<?xml version="1.0" encoding="utf-8"?>
<!-- Generator: Adobe Illustrator 21.0.0, SVG Export Plug-In . SVG Version: 6.00 Build 0)  -->
<svg version="1.1" xmlns="http://www.w3.org/2000/svg" xmlns:xlink="http://www.w3.org/1999/xlink" x="0px" y="0px"
	 viewBox="0 0 119.2 66" style="enable-background:new 0 0 119.2 66;" xml:space="preserve">
<style type="text/css">
	.st0{fill-rule:evenodd;clip-rule:evenodd;fill:#FF000F;}
</style>
<g id="ABB_Logo_RGB_33px">
	<path class="st0" d="M63.1,33.5H74c0.9,1.6,1.3,3.4,1.3,5.3c0,5.7-4.2,10.3-10.2,10.6v0h-2V33.5z M52.1,49.5h10v-16h-10V49.5z
		 M73.3,32.5c-1-1.4-2.4-2.5-3.9-3.3c1.8-1.3,3-3.4,3-5.7c0-3.9-3.1-7-7-7h-2.3v16H73.3z M52.1,32.5h10v-16h-10V32.5z M90.1,49.5h2
		v0c6-0.3,10.2-5,10.2-10.6c0-1.9-0.4-3.8-1.3-5.3H90.1V49.5z M79.1,49.5h10v-16h-10V49.5z M100.3,32.5c-1-1.4-2.4-2.5-3.9-3.3
		c1.8-1.3,3-3.4,3-5.7c0-3.9-3.1-7-7-7h-2.3v16H100.3z M79.1,32.5h10v-16h-10V32.5z M21.7,33.5l-5.7,16h8.3l2.3-7h5.3v-9H21.7z
		 M32.1,16.5h-4.3l-5.7,16h10V16.5z M33.1,42.5h5.3l2.3,7h8.3l-5.7-16H33.1V42.5z M43.1,32.5l-5.7-16h-4.3v16H43.1z"/>
</g>
<g id="Schutzzone">
</g>
</svg>
