<?xml version="1.0" encoding="utf-8"?>
<!-- Generator: Adobe Illustrator 21.0.0, SVG Export Plug-In . SVG Version: 6.00 Build 0)  -->
<svg version="1.1" xmlns="http://www.w3.org/2000/svg" xmlns:xlink="http://www.w3.org/1999/xlink" x="0px" y="0px"
	 viewBox="0 0 91.2 50" style="enable-background:new 0 0 91.2 50;" xml:space="preserve">
<g id="ABB_Logo_RGB_25px">
	<path d="M25.5,24.5v-12h3.2l4.2,12H25.5z M24.5,24.5v-12h-3.2l-4.2,12H24.5z M25.5,25.5v6.9h3.9l1.8,5.1h6.3l-4.2-12H25.5z
		 M24.5,25.5h-7.8l-4.2,12h6.3l1.8-5.1h3.9V25.5z M47.5,12.5h-8v12h8V12.5z M56,24.5c-0.8-1.1-1.9-1.9-3.2-2.5
		c1.3-1,2.1-2.5,2.1-4.2c0-2.9-2.4-5.3-5.3-5.3h-1.1v12H56z M39.5,25.5v12h8v-12H39.5z M56.6,25.5h-8.1v12h1.1v0
		c4.5,0,8.1-3.6,8.1-8.1C57.7,28,57.3,26.7,56.6,25.5z M68.5,12.5h-8v12h8V12.5z M77,24.5c-0.8-1.1-1.9-1.9-3.2-2.5
		c1.3-1,2.1-2.5,2.1-4.2c0-2.9-2.4-5.3-5.3-5.3h-1.1v12H77z M60.5,25.5v12h8v-12H60.5z M77.6,25.5h-8.1v12h1.1v0
		c4.5,0,8.1-3.6,8.1-8.1C78.7,28,78.3,26.7,77.6,25.5z"/>
</g>
<g id="Schutzzone">
</g>
</svg>
