<?xml version="1.0" encoding="utf-8"?>
<!-- Generator: Adobe Illustrator 21.0.0, SVG Export Plug-In . SVG Version: 6.00 Build 0)  -->
<svg version="1.1" xmlns="http://www.w3.org/2000/svg" xmlns:xlink="http://www.w3.org/1999/xlink" x="0px" y="0px"
	 viewBox="0 0 105 58" style="enable-background:new 0 0 105 58;" xml:space="preserve">
<g id="ABB_Logo_RGB_29px">
	<g>
		<path d="M60.7,25.7c1.6-1.1,2.6-3,2.6-5.1c0-3.4-2.8-6.2-6.2-6.2h-1.7v14h8.6C63.2,27.3,62.1,26.4,60.7,25.7z"/>
		<rect x="45.5" y="14.5" width="9" height="14"/>
		<path d="M55.5,29.5v14h1.7v0c4.9-0.3,8.8-4.4,8.8-9.3c0-1.7-0.5-3.3-1.2-4.6H55.5z"/>
		<rect x="45.5" y="29.5" width="9" height="14"/>
		<rect x="69.5" y="14.5" width="9" height="14"/>
		<path d="M84.7,25.7c1.6-1.1,2.6-3,2.6-5.1c0-3.4-2.8-6.2-6.2-6.2h-1.7v14h8.6C87.2,27.3,86.1,26.4,84.7,25.7z"/>
		<rect x="69.5" y="29.5" width="9" height="14"/>
		<path d="M88.8,29.5h-9.3v14h1.7v0c4.9-0.3,8.8-4.4,8.8-9.3C90,32.4,89.5,30.9,88.8,29.5z"/>
		<polygon points="33.2,14.5 29.5,14.5 29.5,28.5 38.2,28.5 		"/>
		<polygon points="19.8,28.5 28.5,28.5 28.5,14.5 24.8,14.5 		"/>
		<polygon points="14.5,43.5 21.8,43.5 23.9,37.5 28.5,37.5 28.5,29.5 19.4,29.5 		"/>
		<polygon points="29.5,29.5 29.5,37.5 34.1,37.5 36.2,43.5 43.5,43.5 38.6,29.5 		"/>
	</g>
</g>
<g id="Schutzzone">
</g>
</svg>
