<?xml version="1.0" encoding="utf-8"?>
<!-- Generator: Adobe Illustrator 21.0.0, SVG Export Plug-In . SVG Version: 6.00 Build 0)  -->
<svg version="1.1" xmlns="http://www.w3.org/2000/svg" xmlns:xlink="http://www.w3.org/1999/xlink" x="0px" y="0px"
	 viewBox="0 0 55.3 30" style="enable-background:new 0 0 55.3 30;" xml:space="preserve">
<style type="text/css">
	.st0{fill:#FFFFFF;}
</style>
<g id="ABB_Logo_RGB_15px">
	<path class="st0" d="M19.7,14.5h-4.4v-7h1.9L19.7,14.5z M10.3,14.5h4.2v-7h-1.7L10.3,14.5z M7.5,22.5h3.8l1.1-3h2.2v-4.2h-4.4
		L7.5,22.5z M15.2,15.2v4.2h2.4l1.1,3h3.8l-2.6-7.2H15.2z M33.7,14.5h-5.4v-7h1.3v0c0,0,0.1,0,0.1,0c1.8,0,3.2,1.4,3.2,3.2
		c0,1-0.4,1.8-1.1,2.4C32.5,13.4,33.2,13.9,33.7,14.5z M23.5,14.5h4v-7h-4V14.5z M23.5,22.5h4v-7.2h-4V22.5z M28.2,15.2v7.2
		c0,0,1.5,0,1.7,0c2.7,0,4.9-2.2,4.9-4.9c0-0.9-0.2-1.7-0.6-2.3H28.2z M46.7,14.5h-5.4v-7h1.3v0c0,0,0.1,0,0.1,0
		c1.8,0,3.2,1.4,3.2,3.2c0,1-0.4,1.8-1.1,2.4C45.5,13.4,46.2,13.9,46.7,14.5z M36.5,14.5h4v-7h-4V14.5z M47.2,15.2h-5.9v7.2
		c0,0,1.5,0,1.7,0c2.7,0,4.9-2.2,4.9-4.9C47.8,16.7,47.6,15.9,47.2,15.2z M36.5,22.5h4v-7.2h-4V22.5z"/>
</g>
<g id="Schutzzone">
</g>
</svg>
