<svg xmlns="http://www.w3.org/2000/svg" viewBox="0 0 408 36"><defs><style>.cls-1{fill:#f03040;}.cls-2{fill:#ff2c3e;}</style></defs><title>Artboard 25 copy 2</title><g id="HEX"><path class="cls-1" d="M44.69,13.86l1.56,6.69h0L48,13.86h1.49l1.69,6.74h0l1.61-6.74h1.47L52,22.43H50.44l-1.71-6.76h0L47,22.43H45.47l-2.31-8.57Z"/><path class="cls-1" d="M61.28,22.43l-.44.09-.39,0a1.79,1.79,0,0,1-.42,0,.91.91,0,0,1-.34-.16.83.83,0,0,1-.24-.29,1.28,1.28,0,0,1-.12-.45h0a2.66,2.66,0,0,1-.45.46,2.31,2.31,0,0,1-.52.31,3.32,3.32,0,0,1-1.31.24,2.42,2.42,0,0,1-1.62-.51,1.77,1.77,0,0,1-.6-1.45,1.7,1.7,0,0,1,.6-1.42,2.11,2.11,0,0,1,.58-.32,4.68,4.68,0,0,1,.73-.2c.26-.05.54-.09.82-.13l.87-.1.34-.07a.8.8,0,0,0,.27-.13.59.59,0,0,0,.17-.22.79.79,0,0,0,.06-.33,1,1,0,0,0-.31-.79,2.12,2.12,0,0,0-2.05,0,1,1,0,0,0-.39.73H55a2,2,0,0,1,.28-.9,2,2,0,0,1,.62-.62,2.88,2.88,0,0,1,.9-.36A5.08,5.08,0,0,1,58,15.68a3.42,3.42,0,0,1,2,.5,1.65,1.65,0,0,1,.67,1.41v3.54a.47.47,0,0,0,.08.3.33.33,0,0,0,.27.1h.12l.13,0Zm-2-3.35h0a1,1,0,0,1-.54.23l-.48.08-.65.11a2.21,2.21,0,0,0-1,.37.87.87,0,0,0-.32.72.89.89,0,0,0,.37.76,1.48,1.48,0,0,0,.87.24,1.79,1.79,0,0,0,1.27-.43,1.59,1.59,0,0,0,.49-1.24Z"/><path class="cls-1" d="M62.65,22.43V15.86H64v1.34h0a2.4,2.4,0,0,1,.87-1.08,2.23,2.23,0,0,1,1.29-.39h.21l.2,0v1.36l-.25,0h-.28a1.84,1.84,0,0,0-1.48.6,2.36,2.36,0,0,0-.51,1.57v3.18Z"/><path class="cls-1" d="M71.18,15.68a3.25,3.25,0,0,1,1.1.16,1.8,1.8,0,0,1,.74.49,1.94,1.94,0,0,1,.42.8,4.29,4.29,0,0,1,.13,1.12v4.17H72.13v-3.9a2.11,2.11,0,0,0-.32-1.27,1.19,1.19,0,0,0-1-.43,1.48,1.48,0,0,0-1.23.52,2.28,2.28,0,0,0-.41,1.45v3.63H67.71V15.86h1.38v1h0a2.14,2.14,0,0,1,.37-.5A2.24,2.24,0,0,1,70,16a2.34,2.34,0,0,1,.57-.23A2.51,2.51,0,0,1,71.18,15.68Z"/><path class="cls-1" d="M77,13v1.42H75.53V13Zm0,2.86v6.57H75.53V15.86Z"/><path class="cls-1" d="M82.39,15.68a3.25,3.25,0,0,1,1.1.16,1.8,1.8,0,0,1,.74.49,1.94,1.94,0,0,1,.42.8,4.29,4.29,0,0,1,.13,1.12v4.17H83.34v-3.9A2.11,2.11,0,0,0,83,17.26a1.19,1.19,0,0,0-1-.43,1.48,1.48,0,0,0-1.23.52,2.28,2.28,0,0,0-.41,1.45v3.63H78.92V15.86H80.3v1h0a2.14,2.14,0,0,1,.37-.5,2.24,2.24,0,0,1,.48-.37,2.34,2.34,0,0,1,.57-.23A2.51,2.51,0,0,1,82.39,15.68Z"/><path class="cls-1" d="M89.27,15.68a2.35,2.35,0,0,1,1.2.29,2.13,2.13,0,0,1,.81.85h0v-1h1.39V22a3.42,3.42,0,0,1-.23,1.31,2.4,2.4,0,0,1-.65.92,2.71,2.71,0,0,1-1,.54,4.81,4.81,0,0,1-1.35.18,4.46,4.46,0,0,1-1-.11,2.93,2.93,0,0,1-.86-.33,2.13,2.13,0,0,1-.65-.59,1.75,1.75,0,0,1-.31-.86h1.44a1,1,0,0,0,.49.66,2,2,0,0,0,1,.22,1.64,1.64,0,0,0,1.28-.49,2,2,0,0,0,.44-1.4v-1h0a2,2,0,0,1-.82.84,2.47,2.47,0,0,1-1.22.3A2.92,2.92,0,0,1,88,21.95a2.46,2.46,0,0,1-.88-.69,3,3,0,0,1-.52-1,4.69,4.69,0,0,1-.17-1.3,4.07,4.07,0,0,1,.18-1.22,3.1,3.1,0,0,1,.54-1,2.66,2.66,0,0,1,.9-.72A2.76,2.76,0,0,1,89.27,15.68Zm-1.42,3.25a3.41,3.41,0,0,0,.11.87,2,2,0,0,0,.32.68,1.48,1.48,0,0,0,.53.44,1.65,1.65,0,0,0,.74.16,1.59,1.59,0,0,0,.75-.17,1.71,1.71,0,0,0,.55-.46,2,2,0,0,0,.34-.66,2.62,2.62,0,0,0,.11-.78,3.52,3.52,0,0,0-.11-.88,2.07,2.07,0,0,0-.32-.71,1.53,1.53,0,0,0-.55-.47,1.68,1.68,0,0,0-.78-.17,1.57,1.57,0,0,0-.77.18,1.53,1.53,0,0,0-.53.48,2.15,2.15,0,0,0-.3.69A3.18,3.18,0,0,0,87.85,18.93Z"/><path class="cls-1" d="M96.24,16.06V17.7H94.64V16.06Zm0,4.73v1.64H94.64V20.79Z"/><path class="cls-1" d="M105.41,13.68a4.5,4.5,0,0,1,1.32.18,3.45,3.45,0,0,1,1.07.53,2.93,2.93,0,0,1,.76.85,3.2,3.2,0,0,1,.41,1.13h-1.46a1.9,1.9,0,0,0-.26-.56,1.8,1.8,0,0,0-.44-.45,2.2,2.2,0,0,0-.62-.31,2.54,2.54,0,0,0-.78-.11,2.41,2.41,0,0,0-2,1,3.12,3.12,0,0,0-.5,1,4.5,4.5,0,0,0-.16,1.22,4.45,4.45,0,0,0,.16,1.17,3.06,3.06,0,0,0,.48,1,2.4,2.4,0,0,0,2,1,2.37,2.37,0,0,0,.85-.14,2,2,0,0,0,1.11-1,2.67,2.67,0,0,0,.24-.78h1.46a4.21,4.21,0,0,1-.35,1.26,3.2,3.2,0,0,1-1.82,1.69,4.14,4.14,0,0,1-1.48.25,4.25,4.25,0,0,1-1.72-.34,3.85,3.85,0,0,1-1.32-.93,4.12,4.12,0,0,1-.84-1.41,5.21,5.21,0,0,1-.29-1.78,5.32,5.32,0,0,1,.28-1.72,4.29,4.29,0,0,1,.81-1.43,3.83,3.83,0,0,1,1.31-1A4.18,4.18,0,0,1,105.41,13.68Z"/><path class="cls-1" d="M112,13v1.42h-1.45V13Zm0,2.86v6.57h-1.45V15.86Z"/><path class="cls-1" d="M114,22.43V15.86h1.37v1.34h0a2.4,2.4,0,0,1,.87-1.08,2.23,2.23,0,0,1,1.29-.39h.21l.2,0v1.36l-.25,0h-.28a1.84,1.84,0,0,0-1.48.6,2.36,2.36,0,0,0-.51,1.57v3.18Z"/><path class="cls-1" d="M121.59,15.68a2.79,2.79,0,0,1,.66.08,2.56,2.56,0,0,1,.59.22,2.15,2.15,0,0,1,.5.36,1.91,1.91,0,0,1,.37.5h0v-1h1.37v8.93h-1.45V21.45h0a1.84,1.84,0,0,1-.37.5,2.14,2.14,0,0,1-.51.37,2.58,2.58,0,0,1-.61.22,2.93,2.93,0,0,1-.67.08,2.6,2.6,0,0,1-2-.91,3.68,3.68,0,0,1-.81-2.53,3.86,3.86,0,0,1,.8-2.53A2.62,2.62,0,0,1,121.59,15.68Zm-1.51,3.47a3.64,3.64,0,0,0,.11.92,2.31,2.31,0,0,0,.33.75,1.61,1.61,0,0,0,.56.5,1.59,1.59,0,0,0,.77.18,1.75,1.75,0,0,0,.8-.17,1.65,1.65,0,0,0,.58-.48,2.12,2.12,0,0,0,.35-.73,3.56,3.56,0,0,0,.12-.94,3.74,3.74,0,0,0-.1-.84,2.4,2.4,0,0,0-.32-.77,1.76,1.76,0,0,0-.57-.56,1.59,1.59,0,0,0-.85-.21,1.54,1.54,0,0,0-.82.21,1.73,1.73,0,0,0-.55.54,2.35,2.35,0,0,0-.32.75A4,4,0,0,0,120.08,19.15Z"/><path class="cls-1" d="M131.5,22.43v-1h0a2.25,2.25,0,0,1-.39.52,2.3,2.3,0,0,1-.5.37,2.49,2.49,0,0,1-.58.23,2.54,2.54,0,0,1-.64.08,2.3,2.3,0,0,1-1.78-.63A2.81,2.81,0,0,1,127,20V15.86h1.44v4a2.89,2.89,0,0,0,.08.7,1.37,1.37,0,0,0,.24.52,1,1,0,0,0,.42.32,1.81,1.81,0,0,0,1.36,0,1.37,1.37,0,0,0,.5-.43,1.86,1.86,0,0,0,.29-.66,3.72,3.72,0,0,0,.09-.85v-3.5h1.44v6.57Z"/><path class="cls-1" d="M136.26,13v1.42h-1.45V13Zm0,2.86v6.57h-1.45V15.86Z"/><path class="cls-1" d="M141.48,22.48l-.28,0h-.55a4.59,4.59,0,0,1-.74-.06,1.58,1.58,0,0,1-.6-.22,1.12,1.12,0,0,1-.4-.45,1.67,1.67,0,0,1-.15-.76V16.88h-1.29v-1h1.29v-2h1.45v2h1.5v1h-1.5V20.6a.83.83,0,0,0,.17.58.8.8,0,0,0,.59.18h.57l.17,0v1.14Z"/><path class="cls-1" d="M153,19.14a4.84,4.84,0,0,1-.17,1.28,3.47,3.47,0,0,1-.52,1.11,2.65,2.65,0,0,1-.88.79,2.51,2.51,0,0,1-1.25.3,2.93,2.93,0,0,1-1.36-.3,1.9,1.9,0,0,1-.86-.87h0v1H146.6V13.35H148v3.47h0a1.88,1.88,0,0,1,.36-.47,2.16,2.16,0,0,1,.5-.36,2.68,2.68,0,0,1,.61-.23,2.85,2.85,0,0,1,.68-.08,2.52,2.52,0,0,1,1.24.29,2.65,2.65,0,0,1,.88.78,3.4,3.4,0,0,1,.52,1.11A4.88,4.88,0,0,1,153,19.14Zm-1.45,0a3.75,3.75,0,0,0-.09-.82,2.52,2.52,0,0,0-.3-.76,1.71,1.71,0,0,0-.54-.56,1.5,1.5,0,0,0-.83-.22A1.57,1.57,0,0,0,149,17a1.71,1.71,0,0,0-.56.54,2.4,2.4,0,0,0-.32.75,3.63,3.63,0,0,0,0,1.69,2.37,2.37,0,0,0,.31.76,1.76,1.76,0,0,0,.56.55,1.57,1.57,0,0,0,.84.21,1.49,1.49,0,0,0,.8-.21,1.69,1.69,0,0,0,.54-.54,2.42,2.42,0,0,0,.31-.75A3.94,3.94,0,0,0,151.57,19.15Z"/><path class="cls-1" d="M154.65,22.43V15.86H156v1.34h0a2.4,2.4,0,0,1,.87-1.08,2.23,2.23,0,0,1,1.29-.39h.21l.2,0v1.36l-.25,0h-.28a1.84,1.84,0,0,0-1.48.6,2.36,2.36,0,0,0-.51,1.57v3.18Z"/><path class="cls-1" d="M162.46,15.68a3,3,0,0,1,1.34.28,2.79,2.79,0,0,1,1,.77,3.33,3.33,0,0,1,.58,1.13,4.76,4.76,0,0,1,.19,1.37v.26h-4.85a2.76,2.76,0,0,0,.13.81,1.91,1.91,0,0,0,.35.63,1.55,1.55,0,0,0,.54.41,1.7,1.7,0,0,0,.72.15,1.9,1.9,0,0,0,1-.23,1.7,1.7,0,0,0,.61-.6h1.37a3.06,3.06,0,0,1-.45.81,2.83,2.83,0,0,1-.66.62,3,3,0,0,1-.85.39,3.66,3.66,0,0,1-1,.13,3.28,3.28,0,0,1-1.33-.26,2.83,2.83,0,0,1-1-.72,3.18,3.18,0,0,1-.62-1.1,4.3,4.3,0,0,1-.22-1.4,4.06,4.06,0,0,1,.22-1.33,3.29,3.29,0,0,1,.63-1.1,3,3,0,0,1,1-.76A3.16,3.16,0,0,1,162.46,15.68Zm1.63,2.85a2.78,2.78,0,0,0-.16-.71,1.72,1.72,0,0,0-.33-.55,1.43,1.43,0,0,0-.5-.36,1.91,1.91,0,0,0-1.37,0,1.51,1.51,0,0,0-.52.36,1.79,1.79,0,0,0-.35.55,2.55,2.55,0,0,0-.17.7Z"/><path class="cls-1" d="M173.18,22.43l-.44.09-.39,0a1.79,1.79,0,0,1-.42,0,.91.91,0,0,1-.34-.16.83.83,0,0,1-.24-.29,1.28,1.28,0,0,1-.12-.45h0a2.66,2.66,0,0,1-.45.46,2.31,2.31,0,0,1-.52.31,3.32,3.32,0,0,1-1.31.24,2.42,2.42,0,0,1-1.62-.51,1.77,1.77,0,0,1-.6-1.45,1.7,1.7,0,0,1,.6-1.42,2.11,2.11,0,0,1,.58-.32,4.68,4.68,0,0,1,.73-.2c.26-.05.54-.09.82-.13l.87-.1.34-.07a.8.8,0,0,0,.27-.13.59.59,0,0,0,.17-.22.79.79,0,0,0,.06-.33,1,1,0,0,0-.31-.79,2.12,2.12,0,0,0-2.05,0,1,1,0,0,0-.39.73h-1.45a2,2,0,0,1,.28-.9,2,2,0,0,1,.62-.62,2.88,2.88,0,0,1,.9-.36,5.08,5.08,0,0,1,1.13-.12,3.42,3.42,0,0,1,2,.5,1.65,1.65,0,0,1,.67,1.41v3.54a.47.47,0,0,0,.08.3.33.33,0,0,0,.27.1h.12l.13,0Zm-2-3.35h0a1,1,0,0,1-.54.23l-.48.08-.65.11a2.21,2.21,0,0,0-1,.37.87.87,0,0,0-.32.72.89.89,0,0,0,.37.76,1.48,1.48,0,0,0,.87.24,1.79,1.79,0,0,0,1.27-.43,1.59,1.59,0,0,0,.49-1.24Z"/><path class="cls-1" d="M176.11,13.35v5.17l2.77-2.66h1.75L178,18.28l2.84,4.15h-1.76L177,19.27l-.91.81v2.35h-1.45V13.35Z"/><path class="cls-1" d="M184.6,15.68a3,3,0,0,1,1.34.28,2.79,2.79,0,0,1,1,.77,3.33,3.33,0,0,1,.58,1.13,4.76,4.76,0,0,1,.19,1.37v.26h-4.85a2.76,2.76,0,0,0,.13.81,1.91,1.91,0,0,0,.35.63,1.55,1.55,0,0,0,.54.41,1.7,1.7,0,0,0,.72.15,1.9,1.9,0,0,0,1-.23,1.7,1.7,0,0,0,.61-.6h1.37a3.06,3.06,0,0,1-.45.81,2.83,2.83,0,0,1-.66.62,3,3,0,0,1-.85.39,3.66,3.66,0,0,1-1,.13,3.28,3.28,0,0,1-1.33-.26,2.83,2.83,0,0,1-1-.72,3.18,3.18,0,0,1-.62-1.1,4.3,4.3,0,0,1-.22-1.4,4.06,4.06,0,0,1,.22-1.33,3.29,3.29,0,0,1,.63-1.1,3,3,0,0,1,1-.76A3.16,3.16,0,0,1,184.6,15.68Zm1.63,2.85a2.78,2.78,0,0,0-.16-.71,1.72,1.72,0,0,0-.33-.55,1.43,1.43,0,0,0-.5-.36,1.91,1.91,0,0,0-1.37,0,1.51,1.51,0,0,0-.52.36,1.79,1.79,0,0,0-.35.55,2.55,2.55,0,0,0-.17.7Z"/><path class="cls-1" d="M189.19,22.43V15.86h1.37v1.34h0a2.4,2.4,0,0,1,.87-1.08,2.23,2.23,0,0,1,1.29-.39H193l.2,0v1.36l-.25,0h-.28a1.84,1.84,0,0,0-1.48.6,2.36,2.36,0,0,0-.51,1.57v3.18Z"/><path class="cls-1" d="M201,22.48l-.28,0h-.55a4.59,4.59,0,0,1-.74-.06,1.58,1.58,0,0,1-.6-.22,1.12,1.12,0,0,1-.4-.45,1.67,1.67,0,0,1-.15-.76V16.88H197v-1h1.29v-2h1.45v2h1.5v1h-1.5V20.6a.83.83,0,0,0,.17.58.8.8,0,0,0,.59.18h.57l.17,0v1.14Z"/><path class="cls-1" d="M204.13,13v1.42h-1.45V13Zm0,2.86v6.57h-1.45V15.86Z"/><path class="cls-1" d="M212.55,19.19a4.54,4.54,0,0,1-.08.85,4.16,4.16,0,0,1-.23.8,3.31,3.31,0,0,1-.4.71,2.58,2.58,0,0,1-.57.56,2.64,2.64,0,0,1-.73.37,2.87,2.87,0,0,1-.91.13,2.61,2.61,0,0,1-.63-.08,2.42,2.42,0,0,1-.58-.22,2.29,2.29,0,0,1-.5-.36,2,2,0,0,1-.38-.5h0v3.33h-1.44V15.86h1.37v1h0a2.08,2.08,0,0,1,.86-.88,2.59,2.59,0,0,1,1.23-.29,2.88,2.88,0,0,1,1.31.28,2.67,2.67,0,0,1,.93.76,3.31,3.31,0,0,1,.55,1.12A4.85,4.85,0,0,1,212.55,19.19Zm-1.45,0a3.92,3.92,0,0,0-.09-.83,2.38,2.38,0,0,0-.3-.76,1.72,1.72,0,0,0-.56-.56,1.57,1.57,0,0,0-.85-.22,1.6,1.6,0,0,0-1.35.61,2.83,2.83,0,0,0-.47,1.76,3.62,3.62,0,0,0,.1.84,2.35,2.35,0,0,0,.32.75,1.73,1.73,0,0,0,.57.54,1.64,1.64,0,0,0,.85.21,1.56,1.56,0,0,0,1.33-.66,2.18,2.18,0,0,0,.34-.74A3.74,3.74,0,0,0,211.1,19.15Z"/><path class="cls-1" d="M220.59,19.19a4.54,4.54,0,0,1-.08.85,4.16,4.16,0,0,1-.23.8,3.31,3.31,0,0,1-.4.71,2.58,2.58,0,0,1-.57.56,2.64,2.64,0,0,1-.73.37,2.87,2.87,0,0,1-.91.13,2.61,2.61,0,0,1-.63-.08,2.42,2.42,0,0,1-.58-.22A2.29,2.29,0,0,1,216,22a2,2,0,0,1-.38-.5h0v3.33h-1.44V15.86h1.37v1h0a2.08,2.08,0,0,1,.86-.88,2.59,2.59,0,0,1,1.23-.29,2.88,2.88,0,0,1,1.31.28,2.67,2.67,0,0,1,.93.76,3.31,3.31,0,0,1,.55,1.12A4.85,4.85,0,0,1,220.59,19.19Zm-1.45,0a3.92,3.92,0,0,0-.09-.83,2.38,2.38,0,0,0-.3-.76,1.72,1.72,0,0,0-.56-.56,1.57,1.57,0,0,0-.85-.22,1.6,1.6,0,0,0-1.35.61,2.83,2.83,0,0,0-.47,1.76,3.62,3.62,0,0,0,.1.84,2.35,2.35,0,0,0,.32.75,1.73,1.73,0,0,0,.57.54,1.64,1.64,0,0,0,.85.21,1.56,1.56,0,0,0,1.33-.66,2.18,2.18,0,0,0,.34-.74A3.74,3.74,0,0,0,219.14,19.15Z"/><path class="cls-1" d="M225,15.68a3,3,0,0,1,1.34.28,2.79,2.79,0,0,1,1,.77,3.33,3.33,0,0,1,.58,1.13,4.76,4.76,0,0,1,.19,1.37v.26h-4.85a2.76,2.76,0,0,0,.13.81,1.91,1.91,0,0,0,.35.63,1.55,1.55,0,0,0,.54.41,1.7,1.7,0,0,0,.72.15,1.9,1.9,0,0,0,1-.23,1.7,1.7,0,0,0,.61-.6h1.37a3.06,3.06,0,0,1-.45.81,2.83,2.83,0,0,1-.66.62,3,3,0,0,1-.85.39,3.66,3.66,0,0,1-1,.13,3.28,3.28,0,0,1-1.33-.26,2.83,2.83,0,0,1-1-.72,3.18,3.18,0,0,1-.62-1.1,4.3,4.3,0,0,1-.22-1.4,4.06,4.06,0,0,1,.22-1.33,3.29,3.29,0,0,1,.63-1.1,3,3,0,0,1,1-.76A3.16,3.16,0,0,1,225,15.68Zm1.63,2.85a2.78,2.78,0,0,0-.16-.71,1.72,1.72,0,0,0-.33-.55,1.43,1.43,0,0,0-.5-.36,1.91,1.91,0,0,0-1.37,0,1.51,1.51,0,0,0-.52.36,1.79,1.79,0,0,0-.35.55,2.55,2.55,0,0,0-.17.7Z"/><path class="cls-1" d="M235.73,13.35v9.08h-1.37v-1h0a2.07,2.07,0,0,1-.37.49,2.16,2.16,0,0,1-.49.37,2.44,2.44,0,0,1-.59.23,2.79,2.79,0,0,1-.67.08,2.72,2.72,0,0,1-1.28-.29,2.76,2.76,0,0,1-.92-.77,3.38,3.38,0,0,1-.56-1.12,4.68,4.68,0,0,1-.19-1.33,4.53,4.53,0,0,1,.18-1.26,3.34,3.34,0,0,1,.54-1.1,2.75,2.75,0,0,1,.91-.77,2.92,2.92,0,0,1,1.92-.22,2.49,2.49,0,0,1,.58.21,2,2,0,0,1,.86.85h0V13.35Zm-5,5.79a3.62,3.62,0,0,0,.1.82,2.44,2.44,0,0,0,.31.76,1.81,1.81,0,0,0,.56.56,1.5,1.5,0,0,0,.83.22,1.73,1.73,0,0,0,.79-.17,1.58,1.58,0,0,0,.57-.49,2.25,2.25,0,0,0,.35-.75,3.68,3.68,0,0,0,.12-1,3.74,3.74,0,0,0-.1-.84,2.3,2.3,0,0,0-.31-.75,1.72,1.72,0,0,0-.57-.54,1.64,1.64,0,0,0-.85-.21,1.56,1.56,0,0,0-.82.2,1.7,1.7,0,0,0-.55.53,2.35,2.35,0,0,0-.32.75A3.93,3.93,0,0,0,230.71,19.14Z"/><path class="cls-2" d="M32.88,25.63,23.5,9.36a.53.53,0,0,0-1,0L13.12,25.63c-.27.48,0,.87.5.87H32.38C32.93,26.49,33.16,26.1,32.88,25.63ZM24,24.47H22v-2.1H24Zm0-4.2H22V14H24Z"/></g></svg>