<svg xmlns="http://www.w3.org/2000/svg" viewBox="0 0 328 64"><defs><style>.cls-1{fill:#b7519f;}.cls-2{fill:#58d7da;}.cls-3{fill:#cb2bd5;}.cls-4{fill:#fff;}.cls-5{fill:#14f0f0;}</style></defs><title>Artboard 16</title><g id="Colors"><rect class="cls-1" x="68" width="64" height="64"/><rect class="cls-2" x="264" width="64" height="64"/><rect class="cls-3" width="64" height="64"/><path class="cls-4" d="M14,58.5V53h0l-1.8,5.49H10.86l-1.8-5.44H9V58.5H7.57V51.37H9.86l1.69,5.18h0l1.61-5.18h2.28V58.5Z"/><path class="cls-4" d="M21.65,58.5l-.47-1.59h-2.8l-.49,1.59H16.3l2.4-7.13h2.21l2.36,7.13ZM19.8,52.43h0l-1,3.32H20.8Z"/><path class="cls-4" d="M27.07,51.19a3.73,3.73,0,0,1,1.11.16,2.92,2.92,0,0,1,.92.47,2.55,2.55,0,0,1,.66.76,2.68,2.68,0,0,1,.33,1h-1.5a1.51,1.51,0,0,0-.21-.49,1.3,1.3,0,0,0-.34-.34,1.51,1.51,0,0,0-.44-.2,2,2,0,0,0-.53-.07,1.84,1.84,0,0,0-.87.2,1.69,1.69,0,0,0-.6.53,2.36,2.36,0,0,0-.35.78,3.82,3.82,0,0,0-.11.94,3.68,3.68,0,0,0,.1.87,2.33,2.33,0,0,0,.33.77,1.74,1.74,0,0,0,.6.54,1.83,1.83,0,0,0,.9.21A1.75,1.75,0,0,0,28.26,57a1.68,1.68,0,0,0,.51-1.16H27.19V54.64h3V58.5h-1L29,57.7h0a2.59,2.59,0,0,1-.91.75,2.55,2.55,0,0,1-1.1.23,3.49,3.49,0,0,1-1.4-.28,3.18,3.18,0,0,1-1.09-.77,3.55,3.55,0,0,1-.71-1.18A4.22,4.22,0,0,1,23.56,55a4.49,4.49,0,0,1,.23-1.46,3.54,3.54,0,0,1,.68-1.2,3.19,3.19,0,0,1,1.1-.81A3.56,3.56,0,0,1,27.07,51.19Z"/><path class="cls-4" d="M37,51.37v1.32H33.23v1.52h3.45v1.22H33.23v1.75h3.84V58.5H31.66V51.37Z"/><path class="cls-4" d="M39.87,51.36l3,4.89h0V51.36h1.47V58.5H42.77l-3-4.88h0V58.5H38.31V51.36Z"/><path class="cls-4" d="M51.15,51.36v1.32H49V58.5H47.44V52.68H45.3V51.36Z"/><path class="cls-4" d="M56,58.5l-.47-1.59h-2.8l-.49,1.59H50.64L53,51.37h2.21l2.36,7.13Zm-1.85-6.07h0l-1,3.32h2.06Z"/><path class="cls-4" d="M94.34,53.65a2.2,2.2,0,0,1-.65,1.66,2.44,2.44,0,0,1-1.77.63h-1.7V58.5H88.65V51.36h3.27a2.44,2.44,0,0,1,1.77.63A2.19,2.19,0,0,1,94.34,53.65Zm-1.52,0a1,1,0,0,0-.32-.81,1.58,1.58,0,0,0-1-.26H90.22v2.14h1.26a2.52,2.52,0,0,0,.59-.06,1.07,1.07,0,0,0,.42-.19A1,1,0,0,0,92.82,53.65Z"/><path class="cls-4" d="M97,51.36V58.5H95.48V51.36Z"/><path class="cls-4" d="M100.22,51.36l3,4.89h0V51.36h1.47V58.5h-1.57l-3-4.88h0V58.5H98.66V51.36Z"/><path class="cls-4" d="M107.88,51.36v3l2.79-3h2l-2.79,2.82,3.06,4.32h-2l-2.15-3.21-.9.91v2.3h-1.57V51.36Z"/><rect class="cls-5" x="196" width="64" height="64"/><path d="M217.8,51.21a4,4,0,0,1,1.15.16,2.8,2.8,0,0,1,.92.46,2.47,2.47,0,0,1,.64.74,2.81,2.81,0,0,1,.33,1h-1.52a1.26,1.26,0,0,0-.17-.4,1.3,1.3,0,0,0-.32-.33,1.6,1.6,0,0,0-.45-.23,1.89,1.89,0,0,0-.58-.08,1.82,1.82,0,0,0-.89.21,1.79,1.79,0,0,0-.61.55,2.43,2.43,0,0,0-.35.78,3.62,3.62,0,0,0-.11.91,3.56,3.56,0,0,0,0,.58,2.85,2.85,0,0,0,.15.56,2.26,2.26,0,0,0,.26.49,1.7,1.7,0,0,0,.38.39,1.74,1.74,0,0,0,.5.26,1.93,1.93,0,0,0,.63.1,1.53,1.53,0,0,0,1.08-.37,1.67,1.67,0,0,0,.5-1h1.52a3.62,3.62,0,0,1-.29,1.08,2.62,2.62,0,0,1-.61.86,2.78,2.78,0,0,1-.94.57,3.56,3.56,0,0,1-1.27.21,3.65,3.65,0,0,1-1.44-.28,3.27,3.27,0,0,1-1.12-.77,3.43,3.43,0,0,1-.72-1.17,4.23,4.23,0,0,1-.25-1.49,4.61,4.61,0,0,1,.1-1,3.91,3.91,0,0,1,.31-.89,3.67,3.67,0,0,1,.51-.76,3.14,3.14,0,0,1,.69-.6,3.31,3.31,0,0,1,.88-.39A3.81,3.81,0,0,1,217.8,51.21Z"/><path d="M222.83,51.36l1.67,3,1.66-3h1.75l-2.65,4.4V58.5h-1.57V55.72l-2.63-4.36Z"/><path d="M232.52,58.5,232,56.91h-2.8l-.49,1.59h-1.59l2.4-7.13h2.21l2.36,7.13Zm-1.85-6.07h0l-1,3.32h2.06Z"/><path d="M236.54,51.36l3,4.89h0V51.36H241V58.5h-1.57l-3-4.88h0V58.5H235V51.36Z"/><path d="M272,51.36v1.32h-2.14V58.5h-1.57V52.68h-2.14V51.36Z"/><path d="M274.48,51.36v4.48a1.58,1.58,0,0,0,.35,1.14,1.49,1.49,0,0,0,1.12.37,2.34,2.34,0,0,0,.66-.08,1.08,1.08,0,0,0,.46-.26,1.1,1.1,0,0,0,.27-.46,2.34,2.34,0,0,0,.09-.69V51.36H279v4.49a2.74,2.74,0,0,1-.78,2.08,3.14,3.14,0,0,1-2.27.75,4.22,4.22,0,0,1-1.33-.19,2.48,2.48,0,0,1-.95-.55,2.73,2.73,0,0,1-.77-2.08V51.36Z"/><path d="M286.51,53.33a1.89,1.89,0,0,1-.44,1.32,1.58,1.58,0,0,1-.3.26,2.24,2.24,0,0,1-.39.2v0a1.23,1.23,0,0,1,.77.6,1.66,1.66,0,0,1,.2.52,4.6,4.6,0,0,1,.07.56q0,.29,0,.58a3.9,3.9,0,0,0,.07.58,1.31,1.31,0,0,0,.2.51h-1.57A2.18,2.18,0,0,1,285,58q0-.28-.07-.67A2.42,2.42,0,0,0,284.6,56a1.12,1.12,0,0,0-.86-.31h-1.61V58.5h-1.57V51.36h3.89a2.05,2.05,0,0,1,1.46.56A1.86,1.86,0,0,1,286.51,53.33Zm-1.57.23a1,1,0,0,0-.26-.75,1.14,1.14,0,0,0-.78-.24h-1.75v2h1.75a1.66,1.66,0,0,0,.42,0,.79.79,0,0,0,.32-.16A1,1,0,0,0,284.94,53.57Z"/><path d="M294.63,55a4.33,4.33,0,0,1-.23,1.44,3.59,3.59,0,0,1-.7,1.2l.89.81-.73.77-1-.92a3,3,0,0,1-.78.31,3.92,3.92,0,0,1-.95.11,3.24,3.24,0,0,1-2.56-1.07,3.84,3.84,0,0,1-.95-2.64,3.89,3.89,0,0,1,1-2.71,3.59,3.59,0,0,1,5.1,0A3.88,3.88,0,0,1,294.63,55Zm-1.57,0a2.85,2.85,0,0,0-.51-1.79,1.71,1.71,0,0,0-1.44-.66,1.69,1.69,0,0,0-1.43.67,2.88,2.88,0,0,0-.51,1.78,2.85,2.85,0,0,0,.5,1.73,1.45,1.45,0,0,0,.65.5,2.62,2.62,0,0,0,1,.16l.29,0a.33.33,0,0,0,.17-.08l-.89-.81.73-.78,1,.94a2.11,2.11,0,0,0,.33-.72A3.68,3.68,0,0,0,293.06,55Z"/><path d="M297.4,51.36v4.48a1.59,1.59,0,0,0,.35,1.14,1.49,1.49,0,0,0,1.12.37,2.33,2.33,0,0,0,.66-.08A1.07,1.07,0,0,0,300,57a1.11,1.11,0,0,0,.27-.46,2.34,2.34,0,0,0,.09-.69V51.36h1.57v4.49a2.74,2.74,0,0,1-.78,2.08,3.14,3.14,0,0,1-2.27.75,4.2,4.2,0,0,1-1.33-.19,2.48,2.48,0,0,1-1-.55,2.73,2.73,0,0,1-.77-2.08V51.36Z"/><path d="M310.14,55a3.79,3.79,0,0,1-1,2.66,3.28,3.28,0,0,1-2.54,1.05,3.76,3.76,0,0,1-1.35-.23,3.3,3.3,0,0,1-1.12-.73,3.34,3.34,0,0,1-.78-1.23,4.37,4.37,0,0,1-.26-1.52,3.89,3.89,0,0,1,1-2.71,3.58,3.58,0,0,1,5.1,0A3.87,3.87,0,0,1,310.14,55Zm-1.57,0a2.83,2.83,0,0,0-.52-1.79,1.72,1.72,0,0,0-1.43-.66,1.69,1.69,0,0,0-1.43.67,2.87,2.87,0,0,0-.51,1.78,2.77,2.77,0,0,0,.5,1.72,1.89,1.89,0,0,0,2.87,0A2.78,2.78,0,0,0,308.57,55Z"/><path d="M313,51.36V58.5h-1.57V51.36Z"/><path d="M320,56.38a2.09,2.09,0,0,1-.24,1,2.06,2.06,0,0,1-.66.71,3,3,0,0,1-1,.41,4.82,4.82,0,0,1-1.14.13,4.43,4.43,0,0,1-1.17-.15,2.91,2.91,0,0,1-1-.44,2.14,2.14,0,0,1-.63-.72,2,2,0,0,1-.23-1v0h1.53v0a.89.89,0,0,0,.14.52,1.06,1.06,0,0,0,.36.33,1.55,1.55,0,0,0,.49.18,2.74,2.74,0,0,0,.53.05,2.65,2.65,0,0,0,.58-.06,1.48,1.48,0,0,0,.45-.17.86.86,0,0,0,.29-.28.74.74,0,0,0,.1-.39.65.65,0,0,0-.07-.31.75.75,0,0,0-.22-.24,1.76,1.76,0,0,0-.38-.2,5.43,5.43,0,0,0-.55-.18l-1.46-.4a2.39,2.39,0,0,1-1.17-.67,1.73,1.73,0,0,1-.4-1.19,1.92,1.92,0,0,1,.22-.93,2,2,0,0,1,.6-.68,2.68,2.68,0,0,1,.88-.41,4.2,4.2,0,0,1,2.07,0,2.81,2.81,0,0,1,.88.37,2,2,0,0,1,.63.65,1.8,1.8,0,0,1,.24.95h-1.52a.84.84,0,0,0-.38-.64,1.57,1.57,0,0,0-.9-.23,2.19,2.19,0,0,0-.44,0,1.34,1.34,0,0,0-.38.14.81.81,0,0,0-.27.25.65.65,0,0,0-.1.37.78.78,0,0,0,0,.27.5.5,0,0,0,.13.19.73.73,0,0,0,.2.13l.28.1,1.72.46a3.81,3.81,0,0,1,.79.3,2.35,2.35,0,0,1,.59.43,1.78,1.78,0,0,1,.37.57A1.89,1.89,0,0,1,320,56.38Z"/><path d="M326.47,51.37v1.32H322.7v1.52h3.45v1.22H322.7v1.75h3.84V58.5h-5.41V51.37Z"/></g></svg>