<svg xmlns="http://www.w3.org/2000/svg" viewBox="0 0 408 408"><defs><style>.cls-1{fill:none;stroke:#004b7a;stroke-miterlimit:10;stroke-width:0.71px;}.cls-2{fill:#004b7a;fill-rule:evenodd;}</style></defs><title>Artboard 35</title><g id="HEX"><circle class="cls-1" cx="340.65" cy="69.09" r="47.74"/><polygon class="cls-1" points="340.65 14.23 348.76 7.42 354.85 16.1 364.45 11.62 368.08 21.58 378.51 19.74 379.44 30.3 389.99 31.22 388.15 41.66 398.11 45.28 393.64 54.89 402.32 60.97 395.5 69.09 402.32 77.21 393.64 83.28 398.11 92.89 388.15 96.52 389.99 106.95 379.44 107.88 378.51 118.44 368.08 116.6 364.45 126.55 354.85 122.08 348.76 130.76 340.65 123.94 332.53 130.76 326.45 122.08 316.84 126.55 313.22 116.6 302.78 118.44 301.86 107.88 291.3 106.95 293.14 96.52 283.18 92.89 287.66 83.28 278.98 77.21 285.79 69.09 278.98 60.97 287.66 54.89 283.18 45.28 293.14 41.66 291.3 31.22 301.86 30.3 302.78 19.74 313.22 21.58 316.84 11.62 326.45 16.1 332.53 7.42 340.65 14.23"/><line class="cls-1" x1="269.94" y1="49.01" x2="111.19" y2="99.32"/><line class="cls-1" x1="360.55" y1="136.23" x2="270.02" y2="372.46"/><path class="cls-2" d="M167.49,127.82a19.71,19.71,0,0,1-1.43,1.89,8.67,8.67,0,0,1-3.84,2.68,6.34,6.34,0,0,1-5.85-1.24,1.71,1.71,0,0,1-.56-2.25,6,6,0,0,1,.31-.67l1.59-3c.79-1.48,1.57-3,2.37-4.45a2.86,2.86,0,0,0,.26-2.42,7.58,7.58,0,0,1-.28-4.37,1.52,1.52,0,0,0-.33-1.52,1.45,1.45,0,0,1-.31-1.38c.25-1.41.5-2.82.76-4.22a5.49,5.49,0,0,1,.86-2.35,43.46,43.46,0,0,1,3.79-4.93,29.43,29.43,0,0,1,2.51-2.51,15.6,15.6,0,0,1,5.54-2.75,4.31,4.31,0,0,1,1.3-.25,19.78,19.78,0,0,1,4.41.42c1.76.49,3.53.93,5.29,1.41a3,3,0,0,1,.91.47,8.27,8.27,0,0,1,2.49,2.7,3.24,3.24,0,0,0,1.81,1.66,1.9,1.9,0,0,1,1.1,1.14,6,6,0,0,1,.65,2.57,4.23,4.23,0,0,0,.76,2.35c.57.92,1.09,1.88,1.61,2.83a20.53,20.53,0,0,0,3,4.72c.9.92,1.82,1.82,2.71,2.74A15.11,15.11,0,0,0,203,120a3,3,0,0,0,1.26.35,8.29,8.29,0,0,1,4.21,1.23,8.45,8.45,0,0,0,1.36.58q1.32.48,2.66.93a21.4,21.4,0,0,1,5.59,2.69,13.22,13.22,0,0,0,3,1.55,15.75,15.75,0,0,1,3.39,1.81,18.63,18.63,0,0,1,5.23,5.78,15.65,15.65,0,0,1,2.24,6.22c.17,1.22.45,2.43.5,3.66.08,2,1,3.7,1.78,5.45a17.59,17.59,0,0,1,.93,2.32c.3,1.09.61,2.19.93,3.28q1,3.48,2.07,7c.65,2.17,1.32,4.35,2,6.52.35,1.18.62,2.39,1,3.57a20.28,20.28,0,0,1,.82,4.06c.13,1.27.18,2.56.28,3.83.06.74.19,1.47.23,2.21.12,2.33-.63,3.23-2.33,4a4.2,4.2,0,0,1-1,.23c-1,.19-2.06.28-3.05.55-2.14.59-4.25,1.28-6.39,1.91s-4.26,1.27-6.41,1.81c-1.43.35-2.92.51-4.37.78a1.55,1.55,0,0,0-1.48,1.56,5.13,5.13,0,0,0,0,.88c.07,1.28.12,2.56.22,3.84a1.89,1.89,0,0,1-1,1.86,2.36,2.36,0,0,0-.6.43,6.1,6.1,0,0,0-.5.85c.42.41.94.69,1.08,1.1a2.59,2.59,0,0,1,.15,2.15,2.16,2.16,0,0,0-.14,1.57,21.07,21.07,0,0,1,.52,3.51,12.74,12.74,0,0,0,1.05,4.73,3.88,3.88,0,0,1,.29,1.73,60.06,60.06,0,0,0,.21,6.8,31.27,31.27,0,0,1-.33,7.22c-.06.34-.08.68-.14,1-.38,2.44-.67,4.89-1.16,7.31-.62,3-1.4,6.06-2.1,9.09-.79,3.41-1.55,6.83-2.35,10.24-.36,1.53-.85,3-1.22,4.57-.45,1.87-.8,3.77-1.28,5.63a8.31,8.31,0,0,0-.13,3.5c.39,2.46.47,4.93-.91,7.18a1.72,1.72,0,0,0-.15,1.56c.29.79.54,1.59.84,2.38a26.18,26.18,0,0,1,1.9,9.52,20.39,20.39,0,0,0,.17,2.06c.15,1.67.35,3.34.45,5,.14,2.26.23,4.53.33,6.8.08,1.77.14,3.55.23,5.32.07,1.58.15,3.15.25,4.73a23.42,23.42,0,0,1-.28,6.78c-.24,1.06-.37,2.14-.61,3.2a3.37,3.37,0,0,0,.08,1.75c.37,1.23.75,2.46,1.12,3.69.17.57.32,1.14.49,1.71a3,3,0,0,1-.24,2.43,9.91,9.91,0,0,0-.46,1.09,5,5,0,0,1,.61.7,2.36,2.36,0,0,1,.45,1.05,16.4,16.4,0,0,1-.21,2.8,19.49,19.49,0,0,0-.1,2.19,11.65,11.65,0,0,1-.66,2.26,3.25,3.25,0,0,0-.07.88,2.32,2.32,0,0,1-1.34,2.14,7.37,7.37,0,0,1-1.65.64c-.71.19-1.46.26-2.18.42a12.81,12.81,0,0,1-6.72.14,1.8,1.8,0,0,0-.44-.05c-.71,0-.93.13-1.08.89a9.64,9.64,0,0,1-1.74,4.66.93.93,0,0,0-.1,1,9.15,9.15,0,0,1,.41,3.21,10.67,10.67,0,0,0,.35,3.2l1,.69a5.06,5.06,0,0,1-.89,3,2.08,2.08,0,0,0-.37,1.68c.14.88.18,1.77.28,2.65a3.11,3.11,0,0,1-.55,2.1,5.61,5.61,0,0,1-2.73,2.19c-1.79.7-3.61,1.35-5.4,2.05-3.17,1.23-6.48,2.1-9.59,3.51a12.52,12.52,0,0,1-3,.88c-1.55.27-3.13.37-4.69.58a71.48,71.48,0,0,1-10.5.47,15.94,15.94,0,0,1-4.53-.66,5.1,5.1,0,0,1-3.42-5.43c.06-.34.08-.69.16-1a6.45,6.45,0,0,1,3.54-4.83l2-.91c1.08-.49,2.18-.94,3.24-1.47s2.36-1.24,3.53-1.87a2.13,2.13,0,0,0,.73-.49,6.23,6.23,0,0,1,2-1.49,4.53,4.53,0,0,0,2.19-2.32,5.77,5.77,0,0,1,.52-.9,23.66,23.66,0,0,0,2.22-5.16,17.57,17.57,0,0,1,2.74-5.54,1.77,1.77,0,0,0,.37-1.77,8.47,8.47,0,0,1-.49-3.05,2.92,2.92,0,0,0-.52-1.82,3.36,3.36,0,0,1-.46-3.1,9,9,0,0,1,.68-1.79,21.25,21.25,0,0,0,1.38-3.11c.23-.65.52-1.28.79-1.92q1-2.45,2.11-4.9a3.21,3.21,0,0,0,.18-2.31,7.94,7.94,0,0,1-.18-.87c-.34-1.79-.72-3.57-.92-5.39a57.73,57.73,0,0,0-1.39-8,33.29,33.29,0,0,1-.8-3.92c-.38-3-.76-6.07-1-9.12a64.89,64.89,0,0,1-.08-7,25.26,25.26,0,0,1,.45-5.15,1.79,1.79,0,0,0,0-.3,47,47,0,0,1,1.36-8.46,8.56,8.56,0,0,0,.27-1.45c.15-1.82.3-3.64.38-5.46a19.71,19.71,0,0,0-.07-3.4c-.46-3.52-1-7-1.53-10.55-.39-2.78-.65-5.58-.79-8.39a32.43,32.43,0,0,0-.71-6.46,8.6,8.6,0,0,1-.09-3.83,35.32,35.32,0,0,0,.3-6.35,100.33,100.33,0,0,0-.74-10.77,23.11,23.11,0,0,1-.14-5.75,1.14,1.14,0,0,0-.76-1.42,2.14,2.14,0,0,1-1.36-1.79,12.32,12.32,0,0,1-.21-3.39,2.35,2.35,0,0,1,1.51-2.19c.27-.11.52-.25.78-.37a4.5,4.5,0,0,0,0-1.07,2.85,2.85,0,0,1,.12-1.88,2.34,2.34,0,0,0-.4-2.62,5.86,5.86,0,0,1-.53-.89,4.46,4.46,0,0,0-.78,0c-1.45.28-2.9.61-4.35.86a36.83,36.83,0,0,1-4.83.68,16.14,16.14,0,0,0-6.42,1.56,3.2,3.2,0,0,1-2.17.23c-1-.23-1.93-.42-2.9-.6a9.71,9.71,0,0,0-1.76-.21,21.18,21.18,0,0,1-3.82-.42,18.07,18.07,0,0,0-4.26-.41,3.68,3.68,0,0,1-2.11-.55,6.6,6.6,0,0,0-1.52-.52c-1.09-.3-2.19-.59-3.29-.86-.67-.17-1.34-.3-2-.46a7.24,7.24,0,0,1-1.26-.37,4.8,4.8,0,0,1-2-1.65l-.94.16a.94.94,0,0,1-1-.44c-.13-.21-.25-.43-.36-.64-2-3.76-3.93-7.53-5.91-11.29q-3.66-6.95-7.35-13.88-2.88-5.43-5.74-10.88a6.36,6.36,0,0,1-.42-.95.74.74,0,0,1,.72-1,4.47,4.47,0,0,1,1.17.13c3.36.81,6.71,1.65,10.08,2.43a2.67,2.67,0,0,1,2,1.54c1.25,2.52,2.57,5,3.87,7.51q4.09,7.81,8.19,15.61c.8,1.53,1.61,3.06,2.43,4.58.62,1.15.79,1.23,2.14,1l23.94-4.93a11.76,11.76,0,0,0,1.24-.4,5,5,0,0,0,0-.66c-.07-.87.39-1.19,1.11-1.24a4.86,4.86,0,0,1,.59-.06,7.66,7.66,0,0,0,2.88-.62c1.07-.37,2.14-.75,3.21-1.15a15.18,15.18,0,0,0,1.9-.82,5,5,0,0,1,2.37-.76,1.07,1.07,0,0,0,1-.7c.37-.86.71-1.73,1.06-2.6a10.61,10.61,0,0,0,.86-4.75,1.37,1.37,0,0,1,.05-.29,18.48,18.48,0,0,0,0-5.16,19.41,19.41,0,0,1,0-3.4c.12-2,.33-4,.47-6a4.81,4.81,0,0,0-.19-2.05,8.36,8.36,0,0,1-.25-4.24c.12-.78.21-1.57.3-2.35s.11-1.48.25-2.2a10.24,10.24,0,0,1,3.54-6.32,12.83,12.83,0,0,0,.95-.94c.56-.56,1.13-1.1,1.66-1.68a21.4,21.4,0,0,0,1.52-1.81.85.85,0,0,0-.14-1.2c-.27-.22-.61-.15-1.06.22a7,7,0,0,1-1.28,1,13.39,13.39,0,0,1-2.63,1c-1.63.39-2.51,0-3.18-1.17-.19-.34-.41-.68-.59-1a1.1,1.1,0,0,0-.95-.61c-.48,0-1,.11-1.49-.26l-.22-.64c-.28-.84-.28-.88-1.11-.85a1.65,1.65,0,0,1-1.33-.51c-.24-.24-.55-.43-.78-.68a1.49,1.49,0,0,0-2-.36c-1.18.55-1.68.31-2.23-.86a7.84,7.84,0,0,1-.34-1c-.2-.66-.38-1.33-.6-2-.1-.31-.28-.6-.52-1.12ZM155.33,196c.68-.11,1.35-.27,2-.45s1.24-.33,1.84-.55c1.58-.56,3.15-1.14,4.72-1.72.31-.11.69-.2.6-.76a4.83,4.83,0,0,0-1,0q-5,1.05-10,2.14a7.87,7.87,0,0,0-.82.28A2.45,2.45,0,0,0,155.33,196Z"/></g></svg>