<svg xmlns="http://www.w3.org/2000/svg" viewBox="0 0 350 129"><defs><style>.cls-1{fill:#969696;stroke:#d2d2d2;stroke-width:4px;}.cls-1,.cls-4{stroke-miterlimit:10;}.cls-2{fill:#6e6e6e;}.cls-3{fill:#0096e0;}.cls-4{fill:none;stroke:#969696;}</style></defs><title>Artboard 43</title><g id="HEX"><line class="cls-1" y1="97" x2="350" y2="97"/><path class="cls-2" d="M91.25,111.89A2.66,2.66,0,0,1,93.56,113a5.72,5.72,0,0,1,.79,3.3,5.83,5.83,0,0,1-.79,3.35,2.92,2.92,0,0,1-4.62,0,5.81,5.81,0,0,1-.79-3.35,5.74,5.74,0,0,1,.79-3.31A2.64,2.64,0,0,1,91.25,111.89Zm-1.7,4.44a10.28,10.28,0,0,0,.07,1.25,4.18,4.18,0,0,0,.26,1.06,1.83,1.83,0,0,0,.52.74,1.28,1.28,0,0,0,.85.28,1.31,1.31,0,0,0,1.08-.51,2.12,2.12,0,0,0,.31-.56,4.17,4.17,0,0,0,.2-.69,6.33,6.33,0,0,0,.1-.77q0-.4,0-.8a9.63,9.63,0,0,0-.08-1.27,3.8,3.8,0,0,0-.28-1,1.82,1.82,0,0,0-.53-.71,1.32,1.32,0,0,0-.84-.26,1.29,1.29,0,0,0-.6.13,1.39,1.39,0,0,0-.45.37,2,2,0,0,0-.31.55,4.32,4.32,0,0,0-.19.68,6.52,6.52,0,0,0-.11.76Q89.55,115.93,89.55,116.33Z"/><path class="cls-2" d="M98.28,120.81a3.21,3.21,0,0,1-1-.14,2.49,2.49,0,0,1-.79-.41,2.29,2.29,0,0,1-.57-.65,2.45,2.45,0,0,1-.3-.86H97a1.6,1.6,0,0,0,.17.39,1.14,1.14,0,0,0,.28.31,1.3,1.3,0,0,0,.39.21,1.55,1.55,0,0,0,.5.08,1.46,1.46,0,0,0,.88-.26,2,2,0,0,0,.59-.69,3.5,3.5,0,0,0,.33-1,6.78,6.78,0,0,0,.12-1.13h0a2.16,2.16,0,0,1-.67.68,2.21,2.21,0,0,1-.9.3,2.48,2.48,0,0,1-1.37-.11,2.34,2.34,0,0,1-1.35-1,2.76,2.76,0,0,1-.49-1.62,3,3,0,0,1,.85-2.2,2.84,2.84,0,0,1,2.13-.87,3.25,3.25,0,0,1,1.42.29,2.51,2.51,0,0,1,1,.86,5.88,5.88,0,0,1,.79,3.34,7.74,7.74,0,0,1-.07,1.05,5.85,5.85,0,0,1-.23,1,4.56,4.56,0,0,1-.42.92,3,3,0,0,1-.62.75,2.77,2.77,0,0,1-.86.5A3.19,3.19,0,0,1,98.28,120.81Zm1.8-5.94a1.88,1.88,0,0,0-.45-1.3,1.53,1.53,0,0,0-1.22-.52,1.41,1.41,0,0,0-1.13.53,1.9,1.9,0,0,0-.45,1.27,2,2,0,0,0,.43,1.32,1.43,1.43,0,0,0,1.17.54,1.55,1.55,0,0,0,1.2-.52A2,2,0,0,0,100.08,114.87Z"/><path class="cls-2" d="M104.69,119v1.64h-1.61V119Z"/><path class="cls-2" d="M118,116.37a4.63,4.63,0,0,1-1.14,3.19,3.85,3.85,0,0,1-3,1.27,4.36,4.36,0,0,1-1.64-.29,3.85,3.85,0,0,1-1.32-.9,4,4,0,0,1-.9-1.46,5.35,5.35,0,0,1-.3-1.81,4.68,4.68,0,0,1,1.14-3.24,3.85,3.85,0,0,1,3-1.27,4.43,4.43,0,0,1,1.64.3,3.58,3.58,0,0,1,1.32.92,4,4,0,0,1,.89,1.48A5.69,5.69,0,0,1,118,116.37Zm-1.51,0a3.69,3.69,0,0,0-.7-2.34,2.57,2.57,0,0,0-3.9,0,3.69,3.69,0,0,0-.7,2.34,3.63,3.63,0,0,0,.69,2.29,2.59,2.59,0,0,0,3.91,0A3.66,3.66,0,0,0,116.45,116.37Z"/><path class="cls-2" d="M122.44,113.88a4.08,4.08,0,0,1,1.06.13,2.82,2.82,0,0,1,.89.41,2.27,2.27,0,0,1,.64.68,2.3,2.3,0,0,1,.31.95h-1.42a1.21,1.21,0,0,0-.47-.78,1.69,1.69,0,0,0-1-.27,1.53,1.53,0,0,0-.81.21,1.8,1.8,0,0,0-.57.54,2.44,2.44,0,0,0-.33.76,3.42,3.42,0,0,0,0,1.67,2.42,2.42,0,0,0,.32.75,1.78,1.78,0,0,0,.56.55,1.51,1.51,0,0,0,.82.21,1.81,1.81,0,0,0,.6-.09,1.48,1.48,0,0,0,.47-.26,1.4,1.4,0,0,0,.33-.41,1.75,1.75,0,0,0,.18-.52h1.4a3.08,3.08,0,0,1-.33,1,2.59,2.59,0,0,1-.62.76,2.78,2.78,0,0,1-.89.49,3.49,3.49,0,0,1-1.14.18,3.33,3.33,0,0,1-1.32-.25,3,3,0,0,1-1-.71,3.22,3.22,0,0,1-.67-1.08,3.83,3.83,0,0,1-.24-1.37,4.25,4.25,0,0,1,.21-1.36,3.31,3.31,0,0,1,.63-1.12,3,3,0,0,1,1-.76A3.33,3.33,0,0,1,122.44,113.88Z"/><path class="cls-2" d="M130.16,120.68h-.83a4.59,4.59,0,0,1-.74-.06,1.58,1.58,0,0,1-.6-.22,1.12,1.12,0,0,1-.4-.45,1.67,1.67,0,0,1-.15-.76v-4.15h-1.29v-1h1.29v-2h1.45v2h1.5v1h-1.5v3.72a.83.83,0,0,0,.17.58.8.8,0,0,0,.59.18h.57l.17,0v1.14Z"/><path class="cls-2" d="M252.56,120.63v-5.87h-2.2v-1a6,6,0,0,0,.9-.07,2.36,2.36,0,0,0,.63-.18,1.57,1.57,0,0,0,.64-.55,2.21,2.21,0,0,0,.31-.89H254v8.6Z"/><path class="cls-2" d="M260,111.89a2.66,2.66,0,0,1,2.32,1.13,5.72,5.72,0,0,1,.79,3.3,5.83,5.83,0,0,1-.79,3.35,2.92,2.92,0,0,1-4.62,0,5.81,5.81,0,0,1-.79-3.35,5.74,5.74,0,0,1,.79-3.31A2.64,2.64,0,0,1,260,111.89Zm-1.7,4.44a10.28,10.28,0,0,0,.07,1.25,4.18,4.18,0,0,0,.26,1.06,1.83,1.83,0,0,0,.52.74,1.28,1.28,0,0,0,.85.28,1.31,1.31,0,0,0,1.08-.51,2.12,2.12,0,0,0,.31-.56,4.17,4.17,0,0,0,.2-.69,6.33,6.33,0,0,0,.1-.77q0-.4,0-.8a9.63,9.63,0,0,0-.08-1.27,3.8,3.8,0,0,0-.28-1,1.82,1.82,0,0,0-.53-.71A1.32,1.32,0,0,0,260,113a1.29,1.29,0,0,0-.6.13,1.39,1.39,0,0,0-.45.37,2,2,0,0,0-.31.55,4.32,4.32,0,0,0-.19.68,6.52,6.52,0,0,0-.11.76Q258.31,115.93,258.31,116.33Z"/><path class="cls-2" d="M266.19,119v1.64h-1.61V119Z"/><path class="cls-2" d="M279.46,116.37a4.63,4.63,0,0,1-1.14,3.19,3.85,3.85,0,0,1-3,1.27,4.36,4.36,0,0,1-1.64-.29,3.85,3.85,0,0,1-1.32-.9,4,4,0,0,1-.9-1.46,5.35,5.35,0,0,1-.3-1.81,4.68,4.68,0,0,1,1.14-3.24,3.85,3.85,0,0,1,3-1.27,4.43,4.43,0,0,1,1.64.3,3.58,3.58,0,0,1,1.32.92,4,4,0,0,1,.89,1.48A5.69,5.69,0,0,1,279.46,116.37Zm-1.51,0a3.69,3.69,0,0,0-.7-2.34,2.57,2.57,0,0,0-3.9,0,3.69,3.69,0,0,0-.7,2.34,3.63,3.63,0,0,0,.69,2.29,2.59,2.59,0,0,0,3.91,0A3.66,3.66,0,0,0,278,116.37Z"/><path class="cls-2" d="M283.94,113.88A4.08,4.08,0,0,1,285,114a2.82,2.82,0,0,1,.89.41,2.27,2.27,0,0,1,.64.68,2.3,2.3,0,0,1,.31.95h-1.42a1.21,1.21,0,0,0-.47-.78,1.69,1.69,0,0,0-1-.27,1.53,1.53,0,0,0-.81.21,1.8,1.8,0,0,0-.57.54,2.44,2.44,0,0,0-.33.76,3.42,3.42,0,0,0,0,1.67,2.42,2.42,0,0,0,.32.75,1.78,1.78,0,0,0,.56.55,1.51,1.51,0,0,0,.82.21,1.81,1.81,0,0,0,.6-.09,1.48,1.48,0,0,0,.47-.26,1.4,1.4,0,0,0,.33-.41,1.75,1.75,0,0,0,.18-.52h1.4a3.08,3.08,0,0,1-.33,1,2.59,2.59,0,0,1-.62.76,2.78,2.78,0,0,1-.89.49,3.49,3.49,0,0,1-1.14.18,3.33,3.33,0,0,1-1.32-.25,3,3,0,0,1-1-.71,3.22,3.22,0,0,1-.67-1.08,3.83,3.83,0,0,1-.24-1.37,4.25,4.25,0,0,1,.21-1.36,3.31,3.31,0,0,1,.63-1.12,3,3,0,0,1,1-.76A3.33,3.33,0,0,1,283.94,113.88Z"/><path class="cls-2" d="M291.66,120.68h-.83a4.59,4.59,0,0,1-.74-.06,1.58,1.58,0,0,1-.6-.22,1.12,1.12,0,0,1-.4-.45,1.67,1.67,0,0,1-.15-.76v-4.15h-1.29v-1h1.29v-2h1.45v2h1.5v1h-1.5v3.72a.83.83,0,0,0,.17.58.8.8,0,0,0,.59.18h.57l.17,0v1.14Z"/><rect class="cls-3" x="2" y="55" width="8" height="39"/><rect class="cls-3" x="12" y="45" width="8" height="49"/><rect class="cls-3" x="22" y="85" width="8" height="9"/><rect class="cls-3" x="32" y="65" width="8" height="29"/><rect class="cls-3" x="42" y="72" width="8" height="22"/><rect class="cls-3" x="52" y="67" width="8" height="27"/><rect class="cls-3" x="62" y="88" width="8" height="6"/><rect class="cls-3" x="72" y="71" width="8" height="23"/><rect class="cls-3" x="122" y="85" width="8" height="9"/><rect class="cls-3" x="132" y="60" width="8" height="34"/><rect class="cls-3" x="142" y="10" width="8" height="84"/><rect class="cls-3" x="152" y="20" width="8" height="74"/><rect class="cls-3" x="162" y="15" width="8" height="79"/><rect class="cls-3" x="172" y="54" width="8" height="40"/><rect class="cls-3" x="192" y="70" width="8" height="24"/><rect class="cls-3" x="212" y="85" width="8" height="9"/><rect class="cls-3" x="222" y="87" width="8" height="7"/><rect class="cls-3" x="262" y="87" width="8" height="7"/><rect class="cls-3" x="282" y="90" width="8" height="4"/><rect class="cls-3" x="292" y="89" width="8" height="5"/><rect class="cls-3" x="312" y="90" width="8" height="4"/><line class="cls-4" x1="107.5" y1="94" x2="107.5" y2="99"/><line class="cls-4" x1="267.5" y1="94" x2="267.5" y2="99"/></g></svg>