<svg id="Layer_1" data-name="Layer 1" xmlns="http://www.w3.org/2000/svg" viewBox="0 0 1390 492"><defs><style>.cls-1{fill:#282828;}.cls-2{fill:#cdcdcd;}.cls-3{fill:#143f61;}.cls-4{fill:#194d76;}.cls-5{fill:#1b5380;}.cls-6{fill:#1c5785;}.cls-7{fill:#1e5b8f;}.cls-8{fill:#206397;}.cls-9{fill:#2269a1;}.cls-10{fill:#236ea8;}.cls-11{fill:#267bbd;}.cls-12{fill:#17486e;}.cls-13{fill:#0aaeff;}.cls-14{fill:#0096e0;}.cls-15{fill:#08c;}.cls-16{fill:#47c2ff;}.cls-17{fill:#70cfff;}.cls-18{fill:#9df;}.cls-19{fill:#c2ebff;}.cls-20{fill:#d6f1ff;}.cls-21{fill:#8c8c8c;}.cls-22{fill:#d2d2d2;}.cls-23{fill:#a0a0a0;}.cls-24{fill:#aaa;}.cls-25{fill:#b4b4b4;}.cls-26{fill:#bebebe;}.cls-27{fill:#c3c3c3;}.cls-28{fill:#c8c8c8;}.cls-29{fill:#969696;}.cls-30{fill:#d7d7d7;}.cls-31{fill:#e1e1e1;}.cls-32{fill:#e6e6e6;}.cls-33{fill:#ebebeb;}.cls-34{fill:#f0f0f0;}.cls-35{fill:#f5f5f5;}.cls-36{fill:#fafafa;}.cls-37{fill:#fff;}.cls-38{fill:#dcdcdc;}.cls-39{fill:#373737;}.cls-40{fill:#505050;}.cls-41{fill:#323232;}.cls-42{fill:#828282;}.cls-43{fill:#414141;}.cls-44{fill:#464646;}.cls-45{fill:#5a5a5a;}.cls-46{fill:#646464;}.cls-47{fill:#6e6e6e;}.cls-48{fill:#787878;}.cls-49{fill:#3c3c3c;}.cls-50{fill:#0f0f0f;}.cls-51{fill:#141414;}.cls-52{fill:#191919;}.cls-53{fill:#1e1e1e;}.cls-54{fill:#242424;}.cls-55{fill:#2d2d2d;}.cls-56{fill:#0a0a0a;}</style></defs><title>edit2Artboard 1</title><g id="Bg"><rect class="cls-1" y="1" width="1390" height="491"/></g><g id="Colors"><path class="cls-2" d="M71.7,351.21a3.24,3.24,0,0,1-.3,1.43,2.87,2.87,0,0,1-.83,1,3.7,3.7,0,0,1-1.26.63,5.7,5.7,0,0,1-1.59.21H62.37v-11.4h5.27a6.31,6.31,0,0,1,1.48.16,3.13,3.13,0,0,1,1.13.5,2.25,2.25,0,0,1,.71.88,3,3,0,0,1,.25,1.28,2.51,2.51,0,0,1-.45,1.51,2.71,2.71,0,0,1-1.26.93h0a3.37,3.37,0,0,1,1,.4,2.45,2.45,0,0,1,.69.63,2.72,2.72,0,0,1,.41.83A3.46,3.46,0,0,1,71.7,351.21Zm-2.45-4.94a1.44,1.44,0,0,0-.51-1.22,2.42,2.42,0,0,0-1.49-.39H64.37v3.18h3a2.62,2.62,0,0,0,.71-.09,1.75,1.75,0,0,0,.59-.29,1.37,1.37,0,0,0,.4-.49,1.72,1.72,0,0,0,.19-.7Zm.45,4.84a1.67,1.67,0,0,0-.57-1.37,2.54,2.54,0,0,0-1.64-.46H64.37v3.64h3.14a2.61,2.61,0,0,0,1.63-.44,1.62,1.62,0,0,0,.56-1.37Z"/><path class="cls-2" d="M75.8,343.08v9.73h5.87v1.69H73.8V343.08Z"/><path class="cls-2" d="M84.7,343.08v7.16a3,3,0,0,0,.65,2.13,2.7,2.7,0,0,0,2.06.7,2.77,2.77,0,0,0,2.07-.68,3,3,0,0,0,.66-2.14v-7.17h2v7.25a4.38,4.38,0,0,1-1.2,3.24,4.81,4.81,0,0,1-3.52,1.2,6.44,6.44,0,0,1-2-.3,3.73,3.73,0,0,1-2.4-2.33,5.37,5.37,0,0,1-.29-1.8v-7.25Z"/><path class="cls-2" d="M103.06,343.09v1.69h-6.3v3h5.82v1.59H96.77v3.41h6.4v1.68h-8.4V343.09Z"/><path class="cls-2" d="M118.38,351.24a3.15,3.15,0,0,1-.39,1.61,3.22,3.22,0,0,1-1,1.09,4.67,4.67,0,0,1-1.51.63,7.85,7.85,0,0,1-1.79.2,6.9,6.9,0,0,1-1.82-.23,4.49,4.49,0,0,1-1.47-.68,3.31,3.31,0,0,1-1-1.12,3.16,3.16,0,0,1-.36-1.53v-.13h2v.07a1.78,1.78,0,0,0,.22.9,1.87,1.87,0,0,0,.6.64,2.81,2.81,0,0,0,.89.38,4.83,4.83,0,0,0,2.11,0,2.75,2.75,0,0,0,.84-.33,1.74,1.74,0,0,0,.57-.55,1.42,1.42,0,0,0,.21-.77,1.24,1.24,0,0,0-.5-1,4.34,4.34,0,0,0-1.55-.68l-2.45-.65a3.77,3.77,0,0,1-1.91-1,2.68,2.68,0,0,1-.62-1.86,3,3,0,0,1,.34-1.46,3.15,3.15,0,0,1,.93-1A4.28,4.28,0,0,1,112,343a6.4,6.4,0,0,1,3.24,0,4.32,4.32,0,0,1,1.36.61,3.09,3.09,0,0,1,.95,1,3,3,0,0,1,.37,1.46H116a1.67,1.67,0,0,0-.21-.69,1.69,1.69,0,0,0-.49-.54,2.4,2.4,0,0,0-.73-.35,3.34,3.34,0,0,0-.95-.12,3.87,3.87,0,0,0-.89.1,2.33,2.33,0,0,0-.73.3,1.53,1.53,0,0,0-.5.51,1.4,1.4,0,0,0-.18.73,1.32,1.32,0,0,0,.09.52,1.07,1.07,0,0,0,.27.38,1.41,1.41,0,0,0,.41.26,4,4,0,0,0,.54.18l2.7.71a4.91,4.91,0,0,1,2.27,1.16A2.7,2.7,0,0,1,118.38,351.24Z"/><path class="cls-2" d="M125.28,342.84a6,6,0,0,1,1.75.25,4.59,4.59,0,0,1,1.43.71,3.93,3.93,0,0,1,1,1.13,4.26,4.26,0,0,1,.54,1.51H128a2.52,2.52,0,0,0-.34-.75,2.42,2.42,0,0,0-.59-.61,2.94,2.94,0,0,0-.83-.41,3.39,3.39,0,0,0-1-.15,3.21,3.21,0,0,0-2.7,1.31,4.16,4.16,0,0,0-.66,1.38,6.06,6.06,0,0,0,0,3.18,4.08,4.08,0,0,0,.64,1.36,3.21,3.21,0,0,0,2.72,1.33,3.15,3.15,0,0,0,1.13-.19,2.65,2.65,0,0,0,1.48-1.35,3.56,3.56,0,0,0,.32-1h1.95a5.64,5.64,0,0,1-.47,1.68,4.26,4.26,0,0,1-2.43,2.26,5.52,5.52,0,0,1-2,.33,5.66,5.66,0,0,1-2.29-.45,5.15,5.15,0,0,1-1.75-1.24,5.5,5.5,0,0,1-1.12-1.88,6.94,6.94,0,0,1-.39-2.37,7.09,7.09,0,0,1,.37-2.29,5.71,5.71,0,0,1,1.07-1.91,5.11,5.11,0,0,1,1.75-1.31A5.57,5.57,0,0,1,125.28,342.84Z"/><path class="cls-2" d="M139.45,354.5l-1-2.91h-4.73l-1,2.91h-2l4.11-11.41h2.7l4,11.41Zm-3.31-9.93h0l-1.87,5.5H138Z"/><path class="cls-2" d="M145,343.08v9.73h5.87v1.69H143V343.08Z"/><path class="cls-2" d="M160.77,343.09v1.69h-6.3v3h5.82v1.59h-5.82v3.41h6.4v1.68h-8.4V343.09Z"/><path class="cls-2" d="M174.16,349.08v1.59h-8v-1.59Z"/><path class="cls-2" d="M187.69,354.5l-1-2.91H182l-1,2.91h-2l4-11.41h2.7l4,11.41Zm-3.31-9.93h0l-1.87,5.5h3.73Z"/><path class="cls-2" d="M195.91,342.84a6,6,0,0,1,1.75.25,4.59,4.59,0,0,1,1.43.71,3.93,3.93,0,0,1,1,1.13,4.26,4.26,0,0,1,.54,1.51h-1.95a2.52,2.52,0,0,0-.34-.75,2.42,2.42,0,0,0-.59-.61,2.94,2.94,0,0,0-.83-.41,3.39,3.39,0,0,0-1-.15,3.21,3.21,0,0,0-2.7,1.31,4.16,4.16,0,0,0-.66,1.38,6.06,6.06,0,0,0,0,3.18,4.08,4.08,0,0,0,.64,1.36,3.21,3.21,0,0,0,2.72,1.33,3.15,3.15,0,0,0,1.13-.19,2.65,2.65,0,0,0,1.48-1.35,3.56,3.56,0,0,0,.32-1h1.95a5.64,5.64,0,0,1-.47,1.68,4.26,4.26,0,0,1-2.43,2.26,5.52,5.52,0,0,1-2,.33,5.66,5.66,0,0,1-2.29-.45,5.15,5.15,0,0,1-1.75-1.24,5.5,5.5,0,0,1-1.12-1.88,6.94,6.94,0,0,1-.39-2.37,7.09,7.09,0,0,1,.37-2.29,5.71,5.71,0,0,1,1.07-1.91,5.11,5.11,0,0,1,1.75-1.31A5.57,5.57,0,0,1,195.91,342.84Z"/><path class="cls-2" d="M207.81,342.84a6,6,0,0,1,1.75.25,4.59,4.59,0,0,1,1.43.71,3.93,3.93,0,0,1,1,1.13,4.26,4.26,0,0,1,.54,1.51h-1.95a2.52,2.52,0,0,0-.34-.75,2.42,2.42,0,0,0-.59-.61,2.94,2.94,0,0,0-.83-.41,3.39,3.39,0,0,0-1-.15,3.21,3.21,0,0,0-2.7,1.31,4.16,4.16,0,0,0-.66,1.38,6.06,6.06,0,0,0,0,3.18,4.08,4.08,0,0,0,.64,1.36,3.21,3.21,0,0,0,2.72,1.33,3.15,3.15,0,0,0,1.13-.19,2.65,2.65,0,0,0,1.48-1.35,3.56,3.56,0,0,0,.32-1h1.95a5.64,5.64,0,0,1-.47,1.68,4.26,4.26,0,0,1-2.43,2.26,5.52,5.52,0,0,1-2,.33,5.66,5.66,0,0,1-2.29-.45,5.15,5.15,0,0,1-1.75-1.24,5.5,5.5,0,0,1-1.12-1.88,6.94,6.94,0,0,1-.39-2.37,7.09,7.09,0,0,1,.37-2.29,5.71,5.71,0,0,1,1.07-1.91,5.11,5.11,0,0,1,1.75-1.31A5.57,5.57,0,0,1,207.81,342.84Z"/><path class="cls-2" d="M223,343.09v1.69h-6.3v3h5.82v1.59H216.7v3.41h6.4v1.68h-8.4V343.09Z"/><path class="cls-2" d="M227.17,343.08l5.45,8.48h0v-8.48h1.9V354.5h-2l-5.46-8.5h0v8.48h-1.9v-11.4Z"/><path class="cls-2" d="M245.33,343.08v1.69H241.7v9.73h-2v-9.73h-3.62v-1.69Z"/><path class="cls-2" d="M255.31,351.24a3.15,3.15,0,0,1-.39,1.61,3.22,3.22,0,0,1-1,1.09,4.67,4.67,0,0,1-1.51.63,7.85,7.85,0,0,1-1.79.2,6.9,6.9,0,0,1-1.82-.23,4.49,4.49,0,0,1-1.47-.68,3.31,3.31,0,0,1-1-1.12,3.16,3.16,0,0,1-.36-1.53v-.13h2v.07a1.78,1.78,0,0,0,.22.9,1.87,1.87,0,0,0,.6.64,2.81,2.81,0,0,0,.89.38,4.83,4.83,0,0,0,2.11,0,2.75,2.75,0,0,0,.84-.33,1.74,1.74,0,0,0,.57-.55,1.42,1.42,0,0,0,.21-.77,1.24,1.24,0,0,0-.5-1,4.34,4.34,0,0,0-1.55-.68l-2.45-.65a3.77,3.77,0,0,1-1.91-1,2.68,2.68,0,0,1-.62-1.86,3,3,0,0,1,.34-1.46,3.15,3.15,0,0,1,.93-1A4.28,4.28,0,0,1,249,343a6.4,6.4,0,0,1,3.24,0,4.32,4.32,0,0,1,1.36.61,3.09,3.09,0,0,1,.95,1,3,3,0,0,1,.37,1.46H253a1.67,1.67,0,0,0-.21-.69,1.69,1.69,0,0,0-.49-.54,2.4,2.4,0,0,0-.73-.35,3.34,3.34,0,0,0-.95-.12,3.87,3.87,0,0,0-.89.1,2.33,2.33,0,0,0-.73.3,1.53,1.53,0,0,0-.5.51,1.4,1.4,0,0,0-.18.73,1.32,1.32,0,0,0,.09.52,1.07,1.07,0,0,0,.27.38,1.41,1.41,0,0,0,.41.26,4.05,4.05,0,0,0,.54.18l2.7.71a4.91,4.91,0,0,1,2.27,1.16A2.7,2.7,0,0,1,255.31,351.24Z"/><path class="cls-2" d="M68.3,52.31a5.85,5.85,0,0,1,1.72.25,4.71,4.71,0,0,1,1.44.71,4.08,4.08,0,0,1,1.05,1.16A4.35,4.35,0,0,1,73.08,56H71.14a2.49,2.49,0,0,0-.38-.85,2.56,2.56,0,0,0-.63-.63,2.82,2.82,0,0,0-.84-.39,3.63,3.63,0,0,0-1-.13,3.35,3.35,0,0,0-1.56.34,3.19,3.19,0,0,0-1.11.93A4,4,0,0,0,65,56.65a6.28,6.28,0,0,0-.21,1.67,6.13,6.13,0,0,0,.2,1.56,4.06,4.06,0,0,0,.63,1.36,3.26,3.26,0,0,0,1.1,1,3.31,3.31,0,0,0,1.61.37,3.71,3.71,0,0,0,1.28-.21,2.72,2.72,0,0,0,1-.6,2.81,2.81,0,0,0,.64-1,4,4,0,0,0,.27-1.31h-3V58H73.3v6H71.95l-.21-1.57h0a3.92,3.92,0,0,1-1.49,1.39,4.29,4.29,0,0,1-2,.45A5.5,5.5,0,0,1,66,63.82a5.06,5.06,0,0,1-1.73-1.25,5.6,5.6,0,0,1-1.1-1.88,7,7,0,0,1-.39-2.36A7.19,7.19,0,0,1,63.13,56a5.61,5.61,0,0,1,1.08-1.91A5.13,5.13,0,0,1,66,52.79,5.53,5.53,0,0,1,68.3,52.31Z"/><path class="cls-2" d="M85,55.67a3,3,0,0,1-.66,2,2.41,2.41,0,0,1-.57.49,3.31,3.31,0,0,1-.73.34h0a2.29,2.29,0,0,1,.79.33,1.88,1.88,0,0,1,.53.55,2.6,2.6,0,0,1,.34.83,6.84,6.84,0,0,1,.13.92,8.73,8.73,0,0,0,.06,1,6.35,6.35,0,0,0,.13,1,2.19,2.19,0,0,0,.32.83h-2a5.83,5.83,0,0,1-.3-1.79,4.27,4.27,0,0,0-.6-2.35A1.8,1.8,0,0,0,81,59.28H77.75V64h-2V52.58h5.89a3.42,3.42,0,0,1,2.38.85A2.88,2.88,0,0,1,85,55.67ZM83,56a1.75,1.75,0,0,0-.51-1.37,2.08,2.08,0,0,0-1.43-.45H77.75v3.67H81a2,2,0,0,0,1.36-.44A1.73,1.73,0,0,0,83,56Z"/><path class="cls-2" d="M95.67,52.59v1.69h-6.3v3H95.2v1.59H89.38v3.41h6.4V64h-8.4V52.59Z"/><path class="cls-2" d="M98.76,52.58l3.07,5.12,3-5.12h2.26l-4.34,6.92V64h-2V59.46l-4.31-6.88Z"/><path class="cls-2" d="M121.79,60.74a3.15,3.15,0,0,1-.39,1.61,3.22,3.22,0,0,1-1,1.09,4.67,4.67,0,0,1-1.51.63,7.85,7.85,0,0,1-1.79.2,6.9,6.9,0,0,1-1.82-.23,4.49,4.49,0,0,1-1.47-.68,3.31,3.31,0,0,1-1-1.12,3.16,3.16,0,0,1-.36-1.53v-.13h2v.07a1.78,1.78,0,0,0,.22.9,1.87,1.87,0,0,0,.6.64,2.81,2.81,0,0,0,.89.38,4.83,4.83,0,0,0,2.11,0,2.75,2.75,0,0,0,.84-.33,1.74,1.74,0,0,0,.57-.55,1.42,1.42,0,0,0,.21-.77,1.24,1.24,0,0,0-.5-1,4.34,4.34,0,0,0-1.55-.68l-2.45-.65a3.77,3.77,0,0,1-1.91-1,2.68,2.68,0,0,1-.62-1.86,3,3,0,0,1,.34-1.46,3.15,3.15,0,0,1,.93-1,4.28,4.28,0,0,1,1.38-.64,6.4,6.4,0,0,1,3.24,0,4.32,4.32,0,0,1,1.36.61,3.09,3.09,0,0,1,.95,1,3,3,0,0,1,.37,1.46h-1.95a1.67,1.67,0,0,0-.21-.69,1.69,1.69,0,0,0-.49-.54A2.4,2.4,0,0,0,118,54a3.34,3.34,0,0,0-.95-.12,3.87,3.87,0,0,0-.89.1,2.33,2.33,0,0,0-.73.3,1.53,1.53,0,0,0-.5.51,1.4,1.4,0,0,0-.18.73,1.32,1.32,0,0,0,.09.52,1.07,1.07,0,0,0,.27.38,1.41,1.41,0,0,0,.41.26,4,4,0,0,0,.54.18l2.7.71A4.91,4.91,0,0,1,121,58.73,2.7,2.7,0,0,1,121.79,60.74Z"/><path class="cls-2" d="M128.69,52.34a6,6,0,0,1,1.75.25,4.59,4.59,0,0,1,1.43.71,3.93,3.93,0,0,1,1,1.13,4.26,4.26,0,0,1,.54,1.51h-1.95a2.52,2.52,0,0,0-.34-.75,2.42,2.42,0,0,0-.59-.61,2.94,2.94,0,0,0-.83-.41,3.39,3.39,0,0,0-1-.15,3.21,3.21,0,0,0-2.7,1.31,4.16,4.16,0,0,0-.66,1.38,6.06,6.06,0,0,0,0,3.18,4.08,4.08,0,0,0,.64,1.36,3.21,3.21,0,0,0,2.72,1.33,3.15,3.15,0,0,0,1.13-.19A2.65,2.65,0,0,0,131.31,61a3.56,3.56,0,0,0,.32-1h1.95a5.64,5.64,0,0,1-.47,1.68A4.26,4.26,0,0,1,130.68,64a5.52,5.52,0,0,1-2,.33,5.66,5.66,0,0,1-2.29-.45,5.15,5.15,0,0,1-1.75-1.24,5.5,5.5,0,0,1-1.12-1.88,6.94,6.94,0,0,1-.39-2.37,7.09,7.09,0,0,1,.37-2.29,5.71,5.71,0,0,1,1.07-1.91,5.11,5.11,0,0,1,1.75-1.31A5.57,5.57,0,0,1,128.69,52.34Z"/><path class="cls-2" d="M142.86,64l-1-2.91h-4.73l-1,2.91h-2l4.11-11.41h2.7l4,11.41Zm-3.31-9.93h0l-1.87,5.5h3.73Z"/><path class="cls-2" d="M148.41,52.58v9.73h5.87V64h-7.87V52.58Z"/><path class="cls-2" d="M164.18,52.59v1.69h-6.3v3h5.82v1.59h-5.82v3.41h6.4V64h-8.4V52.59Z"/><path class="cls-2" d="M519.7,351.21a3.25,3.25,0,0,1-.3,1.43,2.88,2.88,0,0,1-.83,1,3.7,3.7,0,0,1-1.26.63,5.7,5.7,0,0,1-1.59.21h-5.36v-11.4h5.27a6.31,6.31,0,0,1,1.48.16,3.14,3.14,0,0,1,1.13.5,2.25,2.25,0,0,1,.71.88,3,3,0,0,1,.25,1.28,2.51,2.51,0,0,1-.45,1.51,2.71,2.71,0,0,1-1.26.93h0a3.38,3.38,0,0,1,1,.4,2.45,2.45,0,0,1,.69.63,2.73,2.73,0,0,1,.41.83A3.46,3.46,0,0,1,519.7,351.21Zm-2.45-4.94a1.44,1.44,0,0,0-.51-1.22,2.42,2.42,0,0,0-1.49-.39h-2.89v3.18h3a2.62,2.62,0,0,0,.71-.09,1.76,1.76,0,0,0,.59-.29,1.38,1.38,0,0,0,.4-.49,1.72,1.72,0,0,0,.2-.7Zm.45,4.84a1.67,1.67,0,0,0-.57-1.37,2.54,2.54,0,0,0-1.64-.46h-3.13v3.64h3.14a2.61,2.61,0,0,0,1.63-.44,1.62,1.62,0,0,0,.57-1.37Z"/><path class="cls-2" d="M523.8,343.08v9.73h5.87v1.69H521.8V343.08Z"/><path class="cls-2" d="M532.7,343.08v7.16a3,3,0,0,0,.65,2.13,2.7,2.7,0,0,0,2.06.7,2.77,2.77,0,0,0,2.07-.68,3,3,0,0,0,.66-2.14v-7.17h2v7.25a4.38,4.38,0,0,1-1.2,3.24,4.81,4.81,0,0,1-3.52,1.2,6.44,6.44,0,0,1-2-.3,3.73,3.73,0,0,1-2.4-2.33,5.37,5.37,0,0,1-.29-1.8v-7.25Z"/><path class="cls-2" d="M551.06,343.09v1.69h-6.3v3h5.82v1.59h-5.82v3.41h6.4v1.68h-8.4V343.09Z"/><path class="cls-2" d="M566.38,351.24a3.15,3.15,0,0,1-.39,1.61,3.22,3.22,0,0,1-1,1.09,4.67,4.67,0,0,1-1.51.63,7.85,7.85,0,0,1-1.79.2,6.9,6.9,0,0,1-1.82-.23,4.49,4.49,0,0,1-1.47-.68,3.31,3.31,0,0,1-1-1.12,3.16,3.16,0,0,1-.36-1.53v-.13h2v.07a1.77,1.77,0,0,0,.22.9,1.86,1.86,0,0,0,.6.64,2.8,2.8,0,0,0,.89.38,4.83,4.83,0,0,0,2.11,0,2.76,2.76,0,0,0,.84-.33,1.75,1.75,0,0,0,.57-.55,1.42,1.42,0,0,0,.21-.77,1.24,1.24,0,0,0-.5-1,4.34,4.34,0,0,0-1.55-.68l-2.45-.65a3.77,3.77,0,0,1-1.91-1,2.68,2.68,0,0,1-.62-1.86,3,3,0,0,1,.34-1.46,3.15,3.15,0,0,1,.93-1A4.27,4.27,0,0,1,560,343a6.4,6.4,0,0,1,3.24,0,4.32,4.32,0,0,1,1.36.61,3.09,3.09,0,0,1,1,1,3,3,0,0,1,.37,1.46H564a1.68,1.68,0,0,0-.21-.69,1.7,1.7,0,0,0-.49-.54,2.4,2.4,0,0,0-.73-.35,3.34,3.34,0,0,0-1-.12,3.87,3.87,0,0,0-.89.1,2.32,2.32,0,0,0-.73.3,1.53,1.53,0,0,0-.5.51,1.4,1.4,0,0,0-.18.73,1.32,1.32,0,0,0,.09.52,1.07,1.07,0,0,0,.27.38,1.41,1.41,0,0,0,.41.26,4,4,0,0,0,.54.18l2.7.71a4.92,4.92,0,0,1,2.27,1.16A2.7,2.7,0,0,1,566.38,351.24Z"/><path class="cls-2" d="M573.28,342.84a6,6,0,0,1,1.75.25,4.6,4.6,0,0,1,1.43.71,3.93,3.93,0,0,1,1,1.13,4.27,4.27,0,0,1,.54,1.51h-2a2.52,2.52,0,0,0-.34-.75,2.43,2.43,0,0,0-.59-.61,2.94,2.94,0,0,0-.83-.41,3.39,3.39,0,0,0-1-.15,3.21,3.21,0,0,0-2.7,1.31,4.16,4.16,0,0,0-.66,1.38,6,6,0,0,0-.22,1.63,5.9,5.9,0,0,0,.21,1.55,4.08,4.08,0,0,0,.64,1.36,3.21,3.21,0,0,0,2.72,1.33,3.15,3.15,0,0,0,1.13-.19,2.65,2.65,0,0,0,1.48-1.35,3.56,3.56,0,0,0,.32-1h2a5.64,5.64,0,0,1-.47,1.68,4.26,4.26,0,0,1-2.43,2.26,5.52,5.52,0,0,1-2,.33,5.66,5.66,0,0,1-2.29-.45,5.14,5.14,0,0,1-1.75-1.24,5.49,5.49,0,0,1-1.12-1.88,6.94,6.94,0,0,1-.39-2.37,7.09,7.09,0,0,1,.37-2.29,5.7,5.7,0,0,1,1.07-1.91,5.1,5.1,0,0,1,1.75-1.31A5.57,5.57,0,0,1,573.28,342.84Z"/><path class="cls-2" d="M587.45,354.5l-1-2.91h-4.73l-1,2.91h-2l4.11-11.41h2.7l4,11.41Zm-3.31-9.93h0l-1.87,5.5H586Z"/><path class="cls-2" d="M593,343.08v9.73h5.87v1.69H591V343.08Z"/><path class="cls-2" d="M608.77,343.09v1.69h-6.3v3h5.82v1.59h-5.82v3.41h6.4v1.68h-8.4V343.09Z"/><path class="cls-2" d="M622.16,349.08v1.59h-8v-1.59Z"/><path class="cls-2" d="M637.52,351.21a3.25,3.25,0,0,1-.3,1.43,2.88,2.88,0,0,1-.83,1,3.7,3.7,0,0,1-1.26.63,5.7,5.7,0,0,1-1.59.21h-5.36v-11.4h5.27a6.31,6.31,0,0,1,1.48.16,3.14,3.14,0,0,1,1.13.5,2.25,2.25,0,0,1,.71.88,3,3,0,0,1,.25,1.28,2.51,2.51,0,0,1-.45,1.51,2.71,2.71,0,0,1-1.26.93h0a3.38,3.38,0,0,1,1,.4,2.45,2.45,0,0,1,.69.63,2.73,2.73,0,0,1,.41.83A3.46,3.46,0,0,1,637.52,351.21Zm-2.45-4.94a1.44,1.44,0,0,0-.51-1.22,2.42,2.42,0,0,0-1.49-.39h-2.89v3.18h3a2.62,2.62,0,0,0,.71-.09,1.76,1.76,0,0,0,.59-.29,1.38,1.38,0,0,0,.4-.49,1.72,1.72,0,0,0,.2-.7Zm.45,4.84a1.67,1.67,0,0,0-.57-1.37,2.54,2.54,0,0,0-1.64-.46h-3.13v3.64h3.14a2.61,2.61,0,0,0,1.63-.44,1.62,1.62,0,0,0,.57-1.37Z"/><path class="cls-2" d="M647.13,354.5l-1-2.91H641.4l-1,2.91h-2l4.11-11.41h2.7l4,11.41Zm-3.31-9.93h0l-1.87,5.5h3.73Z"/><path class="cls-2" d="M655.35,342.84a6,6,0,0,1,1.75.25,4.6,4.6,0,0,1,1.43.71,3.93,3.93,0,0,1,1,1.13,4.27,4.27,0,0,1,.54,1.51h-2a2.52,2.52,0,0,0-.34-.75,2.43,2.43,0,0,0-.59-.61,2.94,2.94,0,0,0-.83-.41,3.39,3.39,0,0,0-1-.15,3.21,3.21,0,0,0-2.7,1.31,4.16,4.16,0,0,0-.66,1.38,6,6,0,0,0-.22,1.63,5.9,5.9,0,0,0,.21,1.55,4.08,4.08,0,0,0,.64,1.36,3.21,3.21,0,0,0,2.72,1.33,3.15,3.15,0,0,0,1.13-.19,2.65,2.65,0,0,0,1.48-1.35,3.56,3.56,0,0,0,.32-1h2a5.64,5.64,0,0,1-.47,1.68,4.26,4.26,0,0,1-2.43,2.26,5.52,5.52,0,0,1-2,.33,5.66,5.66,0,0,1-2.29-.45,5.14,5.14,0,0,1-1.75-1.24,5.49,5.49,0,0,1-1.12-1.88,6.94,6.94,0,0,1-.39-2.37,7.09,7.09,0,0,1,.37-2.29,5.7,5.7,0,0,1,1.07-1.91,5.1,5.1,0,0,1,1.75-1.31A5.57,5.57,0,0,1,655.35,342.84Z"/><path class="cls-2" d="M664.29,343.08v5.24l5.25-5.24h2.54l-4.7,4.59,5.06,6.84h-2.52L666,349.07l-1.71,1.66v3.77h-2V343.08Z"/><path class="cls-2" d="M678.19,342.81a5.85,5.85,0,0,1,1.72.25,4.71,4.71,0,0,1,1.44.71,4.08,4.08,0,0,1,1,1.16,4.36,4.36,0,0,1,.57,1.57h-2a2.5,2.5,0,0,0-.38-.85A2.56,2.56,0,0,0,680,345a2.82,2.82,0,0,0-.84-.39,3.63,3.63,0,0,0-1-.13,3.35,3.35,0,0,0-1.56.34,3.19,3.19,0,0,0-1.11.93,4,4,0,0,0-.66,1.38,6.28,6.28,0,0,0-.21,1.67,6.13,6.13,0,0,0,.2,1.56,4,4,0,0,0,.63,1.36,3.26,3.26,0,0,0,1.1,1,3.3,3.3,0,0,0,1.61.37,3.71,3.71,0,0,0,1.28-.21,2.72,2.72,0,0,0,1-.6,2.81,2.81,0,0,0,.64-1,4,4,0,0,0,.27-1.31h-3v-1.53h4.82v6h-1.31l-.21-1.57h0a3.92,3.92,0,0,1-1.49,1.39,4.29,4.29,0,0,1-2,.45,5.5,5.5,0,0,1-2.27-.45,5.06,5.06,0,0,1-1.73-1.25,5.6,5.6,0,0,1-1.1-1.88,7,7,0,0,1-.39-2.36,7.18,7.18,0,0,1,.37-2.33,5.6,5.6,0,0,1,1.08-1.91,5.13,5.13,0,0,1,1.74-1.29A5.53,5.53,0,0,1,678.19,342.81Z"/><path class="cls-2" d="M694.86,346.17a3,3,0,0,1-.66,2,2.42,2.42,0,0,1-.57.49,3.32,3.32,0,0,1-.73.34h0a2.29,2.29,0,0,1,.79.33,1.88,1.88,0,0,1,.53.55,2.6,2.6,0,0,1,.34.83,6.84,6.84,0,0,1,.13.92,8.73,8.73,0,0,0,.06,1,6.29,6.29,0,0,0,.13,1,2.18,2.18,0,0,0,.32.83h-2a5.82,5.82,0,0,1-.3-1.79,4.27,4.27,0,0,0-.6-2.35,1.8,1.8,0,0,0-1.41-.54H687.7v4.68h-2V343.08h5.89a3.42,3.42,0,0,1,2.38.85A2.88,2.88,0,0,1,694.86,346.17Zm-2,.32a1.75,1.75,0,0,0-.51-1.37,2.08,2.08,0,0,0-1.43-.45h-3.28v3.67h3.28a2,2,0,0,0,1.36-.44A1.73,1.73,0,0,0,692.86,346.49Z"/><path class="cls-2" d="M707.7,348.82a6.17,6.17,0,0,1-1.52,4.26,5.14,5.14,0,0,1-4,1.69,5.81,5.81,0,0,1-2.18-.39,5.14,5.14,0,0,1-1.76-1.2,5.37,5.37,0,0,1-1.2-2,7.14,7.14,0,0,1-.4-2.41,6.24,6.24,0,0,1,1.52-4.32,5.13,5.13,0,0,1,4-1.69,5.92,5.92,0,0,1,2.19.39,4.78,4.78,0,0,1,1.77,1.22,5.36,5.36,0,0,1,1.19,2A7.62,7.62,0,0,1,707.7,348.82Zm-2,0a4.92,4.92,0,0,0-.94-3.12,3.42,3.42,0,0,0-5.2,0,4.92,4.92,0,0,0-.93,3.13,4.83,4.83,0,0,0,.92,3,3.45,3.45,0,0,0,5.21,0,4.88,4.88,0,0,0,.93-3.06Z"/><path class="cls-2" d="M711.67,343.08v7.16a3,3,0,0,0,.65,2.13,2.7,2.7,0,0,0,2.06.7,2.77,2.77,0,0,0,2.07-.68,3,3,0,0,0,.66-2.14v-7.17h2v7.25a4.38,4.38,0,0,1-1.2,3.24,4.81,4.81,0,0,1-3.52,1.2,6.44,6.44,0,0,1-2-.3,3.73,3.73,0,0,1-2.4-2.33,5.37,5.37,0,0,1-.29-1.8v-7.25Z"/><path class="cls-2" d="M723.77,343.08l5.45,8.48h0v-8.48h1.9V354.5h-2l-5.46-8.5h0v8.48h-1.9v-11.4Z"/><path class="cls-2" d="M738.44,343.08a5.09,5.09,0,0,1,3.8,1.45,5.82,5.82,0,0,1,1.42,4.23,6,6,0,0,1-1.41,4.27,4.94,4.94,0,0,1-3.77,1.48h-4.62V343.08Zm-.23,9.73a3.32,3.32,0,0,0,2.52-1,4.19,4.19,0,0,0,.91-3,4.47,4.47,0,0,0-.92-3.15,3.75,3.75,0,0,0-2.85-1h-2v8Z"/><path class="cls-2" d="M754.36,351.24a3.15,3.15,0,0,1-.39,1.61,3.22,3.22,0,0,1-1,1.09,4.67,4.67,0,0,1-1.51.63,7.85,7.85,0,0,1-1.79.2,6.9,6.9,0,0,1-1.82-.23,4.49,4.49,0,0,1-1.47-.68,3.31,3.31,0,0,1-1-1.12,3.16,3.16,0,0,1-.36-1.53v-.13h2v.07a1.77,1.77,0,0,0,.22.9,1.86,1.86,0,0,0,.6.64,2.8,2.8,0,0,0,.89.38,4.83,4.83,0,0,0,2.11,0,2.76,2.76,0,0,0,.84-.33,1.75,1.75,0,0,0,.57-.55,1.42,1.42,0,0,0,.21-.77,1.24,1.24,0,0,0-.5-1,4.34,4.34,0,0,0-1.55-.68l-2.45-.65a3.77,3.77,0,0,1-1.91-1,2.68,2.68,0,0,1-.62-1.86,3,3,0,0,1,.34-1.46,3.15,3.15,0,0,1,.93-1A4.27,4.27,0,0,1,748,343a6.4,6.4,0,0,1,3.24,0,4.32,4.32,0,0,1,1.36.61,3.09,3.09,0,0,1,1,1,3,3,0,0,1,.37,1.46H752a1.68,1.68,0,0,0-.21-.69,1.7,1.7,0,0,0-.49-.54,2.4,2.4,0,0,0-.73-.35,3.34,3.34,0,0,0-1-.12,3.87,3.87,0,0,0-.89.1,2.32,2.32,0,0,0-.73.3,1.53,1.53,0,0,0-.5.51,1.4,1.4,0,0,0-.18.73,1.32,1.32,0,0,0,.09.52,1.07,1.07,0,0,0,.27.38,1.41,1.41,0,0,0,.41.26,4,4,0,0,0,.54.18l2.7.71a4.92,4.92,0,0,1,2.27,1.16A2.7,2.7,0,0,1,754.36,351.24Z"/><rect class="cls-3" x="1281" y="372" width="56" height="56"/><rect class="cls-4" x="1141" y="372" width="56" height="56"/><rect class="cls-5" x="1071" y="372" width="56" height="56"/><rect class="cls-6" x="1001" y="372" width="56" height="56"/><rect class="cls-7" x="931" y="372" width="56" height="56"/><rect class="cls-8" x="853" y="364" width="72" height="72"/><rect class="cls-9" x="791" y="372" width="56" height="56"/><rect class="cls-10" x="721" y="372" width="56" height="56"/><rect class="cls-11" x="651" y="372" width="56" height="56"/><rect class="cls-12" x="1211" y="372" width="56" height="56"/><rect class="cls-13" x="405" y="362" width="72" height="72"/><rect class="cls-14" x="511" y="372" width="56" height="56"/><rect class="cls-15" x="581" y="372" width="56" height="56"/><rect class="cls-16" x="343" y="372" width="56" height="56"/><rect class="cls-17" x="273" y="372" width="56" height="56"/><rect class="cls-18" x="203" y="372" width="56" height="56"/><rect class="cls-19" x="133" y="372" width="56" height="56"/><rect class="cls-20" x="63" y="372" width="56" height="56"/><rect class="cls-21" x="415" y="165" width="56" height="56"/><rect class="cls-22" x="687" y="87" width="72" height="72"/><rect class="cls-23" x="275" y="165" width="56" height="56"/><rect class="cls-24" x="205" y="165" width="56" height="56"/><rect class="cls-25" x="135" y="165" width="56" height="56"/><rect class="cls-26" x="65" y="165" width="56" height="56"/><rect class="cls-27" x="905" y="95" width="56" height="56"/><rect class="cls-28" x="835" y="95" width="56" height="56"/><rect class="cls-2" x="765" y="95" width="56" height="56"/><rect class="cls-29" x="345" y="165" width="56" height="56"/><rect class="cls-30" x="625" y="95" width="56" height="56"/><rect class="cls-31" x="485" y="95" width="56" height="56"/><rect class="cls-32" x="415" y="95" width="56" height="56"/><rect class="cls-33" x="345" y="95" width="56" height="56"/><rect class="cls-34" x="275" y="95" width="56" height="56"/><rect class="cls-35" x="205" y="95" width="56" height="56"/><rect class="cls-36" x="135" y="95" width="56" height="56"/><rect class="cls-37" x="64" y="95" width="56" height="56"/><rect class="cls-38" x="555" y="95" width="56" height="56"/><rect class="cls-39" x="205" y="235" width="56" height="56"/><path class="cls-40" d="M261,235h-4v1h4Zm-8,0h-4v1h4Zm-8,0h-4v1h4Zm-8,0h-4v1h4Zm-8,0h-4v1h4Zm-8,0h-4v1h4Zm-8,0h-4v1h4Zm-7,0h-1v4h1Zm0,8h-1v4h1Zm0,8h-1v4h1Zm0,8h-1v4h1Zm0,8h-1v4h1Zm0,8h-1v4h1Zm0,8h-1v4h1Zm3,7h-4v1h4Zm8,0h-4v1h4Zm8,0h-4v1h4Zm8,0h-4v1h4Zm8,0h-4v1h4Zm8,0h-4v1h4Zm8,0h-4v1h4Zm4-3h-1v4h1Zm0-8h-1v4h1Zm0-8h-1v4h1Zm0-8h-1v4h1Zm0-8h-1v4h1Zm0-8h-1v4h1Zm0-8h-1v4h1Z"/><rect class="cls-41" x="267" y="227" width="72" height="72"/><path class="cls-40" d="M339,227h-4v1h4Zm-8,0h-4v1h4Zm-8,0h-4v1h4Zm-8,0h-4v1h4Zm-8,0h-4v1h4Zm-8,0h-4v1h4Zm-8,0h-4v1h4Zm-8,0h-4v1h4Zm-8,0h-4v1h4Zm-7,0h-1v4h1Zm0,8h-1v4h1Zm0,8h-1v4h1Zm0,8h-1v4h1Zm0,8h-1v4h1Zm0,8h-1v4h1Zm0,8h-1v4h1Zm0,8h-1v4h1Zm0,8h-1v4h1Zm3,7h-4v1h4Zm8,0h-4v1h4Zm8,0h-4v1h4Zm8,0h-4v1h4Zm8,0h-4v1h4Zm8,0h-4v1h4Zm8,0h-4v1h4Zm8,0h-4v1h4Zm8,0h-4v1h4Zm4-3h-1v4h1Zm0-8h-1v4h1Zm0-8h-1v4h1Zm0-8h-1v4h1Zm0-8h-1v4h1Zm0-8h-1v4h1Zm0-8h-1v4h1Zm0-8h-1v4h1Zm0-8h-1v4h1Z"/><rect class="cls-42" x="485" y="165" width="56" height="56"/><rect class="cls-43" x="65" y="235" width="56" height="56"/><rect class="cls-44" x="905" y="165" width="56" height="56"/><rect class="cls-40" x="835" y="165" width="56" height="56"/><rect class="cls-45" x="765" y="165" width="56" height="56"/><rect class="cls-46" x="695" y="165" width="56" height="56"/><rect class="cls-47" x="625" y="165" width="56" height="56"/><rect class="cls-48" x="555" y="165" width="56" height="56"/><rect class="cls-49" x="135" y="235" width="56" height="56"/><path class="cls-40" d="M191,235h-4v1h4Zm-8,0h-4v1h4Zm-8,0h-4v1h4Zm-8,0h-4v1h4Zm-8,0h-4v1h4Zm-8,0h-4v1h4Zm-8,0h-4v1h4Zm-7,0h-1v4h1Zm0,8h-1v4h1Zm0,8h-1v4h1Zm0,8h-1v4h1Zm0,8h-1v4h1Zm0,8h-1v4h1Zm0,8h-1v4h1Zm3,7h-4v1h4Zm8,0h-4v1h4Zm8,0h-4v1h4Zm8,0h-4v1h4Zm8,0h-4v1h4Zm8,0h-4v1h4Zm8,0h-4v1h4Zm4-3h-1v4h1Zm0-8h-1v4h1Zm0-8h-1v4h1Zm0-8h-1v4h1Zm0-8h-1v4h1Zm0-8h-1v4h1Zm0-8h-1v4h1Z"/><rect x="905" y="235" width="56" height="56"/><path class="cls-40" d="M961,235h-4v1h4Zm-8,0h-4v1h4Zm-8,0h-4v1h4Zm-8,0h-4v1h4Zm-8,0h-4v1h4Zm-8,0h-4v1h4Zm-8,0h-4v1h4Zm-7,0h-1v4h1Zm0,8h-1v4h1Zm0,8h-1v4h1Zm0,8h-1v4h1Zm0,8h-1v4h1Zm0,8h-1v4h1Zm0,8h-1v4h1Zm3,7h-4v1h4Zm8,0h-4v1h4Zm8,0h-4v1h4Zm8,0h-4v1h4Zm8,0h-4v1h4Zm8,0h-4v1h4Zm8,0h-4v1h4Zm4-3h-1v4h1Zm0-8h-1v4h1Zm0-8h-1v4h1Zm0-8h-1v4h1Zm0-8h-1v4h1Zm0-8h-1v4h1Zm0-8h-1v4h1Z"/><rect class="cls-50" x="765" y="235" width="56" height="56"/><path class="cls-40" d="M821,235h-4v1h4Zm-8,0h-4v1h4Zm-8,0h-4v1h4Zm-8,0h-4v1h4Zm-8,0h-4v1h4Zm-8,0h-4v1h4Zm-8,0h-4v1h4Zm-7,0h-1v4h1Zm0,8h-1v4h1Zm0,8h-1v4h1Zm0,8h-1v4h1Zm0,8h-1v4h1Zm0,8h-1v4h1Zm0,8h-1v4h1Zm3,7h-4v1h4Zm8,0h-4v1h4Zm8,0h-4v1h4Zm8,0h-4v1h4Zm8,0h-4v1h4Zm8,0h-4v1h4Zm8,0h-4v1h4Zm4-3h-1v4h1Zm0-8h-1v4h1Zm0-8h-1v4h1Zm0-8h-1v4h1Zm0-8h-1v4h1Zm0-8h-1v4h1Zm0-8h-1v4h1Z"/><rect class="cls-51" x="695" y="235" width="56" height="56"/><path class="cls-40" d="M751,235h-4v1h4Zm-8,0h-4v1h4Zm-8,0h-4v1h4Zm-8,0h-4v1h4Zm-8,0h-4v1h4Zm-8,0h-4v1h4Zm-8,0h-4v1h4Zm-7,0h-1v4h1Zm0,8h-1v4h1Zm0,8h-1v4h1Zm0,8h-1v4h1Zm0,8h-1v4h1Zm0,8h-1v4h1Zm0,8h-1v4h1Zm3,7h-4v1h4Zm8,0h-4v1h4Zm8,0h-4v1h4Zm8,0h-4v1h4Zm8,0h-4v1h4Zm8,0h-4v1h4Zm8,0h-4v1h4Zm4-3h-1v4h1Zm0-8h-1v4h1Zm0-8h-1v4h1Zm0-8h-1v4h1Zm0-8h-1v4h1Zm0-8h-1v4h1Zm0-8h-1v4h1Z"/><rect class="cls-52" x="625" y="235" width="56" height="56"/><path class="cls-40" d="M681,235h-4v1h4Zm-8,0h-4v1h4Zm-8,0h-4v1h4Zm-8,0h-4v1h4Zm-8,0h-4v1h4Zm-8,0h-4v1h4Zm-8,0h-4v1h4Zm-7,0h-1v4h1Zm0,8h-1v4h1Zm0,8h-1v4h1Zm0,8h-1v4h1Zm0,8h-1v4h1Zm0,8h-1v4h1Zm0,8h-1v4h1Zm3,7h-4v1h4Zm8,0h-4v1h4Zm8,0h-4v1h4Zm8,0h-4v1h4Zm8,0h-4v1h4Zm8,0h-4v1h4Zm8,0h-4v1h4Zm4-3h-1v4h1Zm0-8h-1v4h1Zm0-8h-1v4h1Zm0-8h-1v4h1Zm0-8h-1v4h1Zm0-8h-1v4h1Zm0-8h-1v4h1Z"/><rect class="cls-53" x="555" y="235" width="56" height="56"/><path class="cls-40" d="M611,235h-4v1h4Zm-8,0h-4v1h4Zm-8,0h-4v1h4Zm-8,0h-4v1h4Zm-8,0h-4v1h4Zm-8,0h-4v1h4Zm-8,0h-4v1h4Zm-7,0h-1v4h1Zm0,8h-1v4h1Zm0,8h-1v4h1Zm0,8h-1v4h1Zm0,8h-1v4h1Zm0,8h-1v4h1Zm0,8h-1v4h1Zm3,7h-4v1h4Zm8,0h-4v1h4Zm8,0h-4v1h4Zm8,0h-4v1h4Zm8,0h-4v1h4Zm8,0h-4v1h4Zm8,0h-4v1h4Zm4-3h-1v4h1Zm0-8h-1v4h1Zm0-8h-1v4h1Zm0-8h-1v4h1Zm0-8h-1v4h1Zm0-8h-1v4h1Zm0-8h-1v4h1Z"/><rect class="cls-54" x="477" y="227" width="72" height="72"/><path class="cls-40" d="M549,227h-4v1h4Zm-8,0h-4v1h4Zm-8,0h-4v1h4Zm-8,0h-4v1h4Zm-8,0h-4v1h4Zm-8,0h-4v1h4Zm-8,0h-4v1h4Zm-8,0h-4v1h4Zm-8,0h-4v1h4Zm-7,0h-1v4h1Zm0,8h-1v4h1Zm0,8h-1v4h1Zm0,8h-1v4h1Zm0,8h-1v4h1Zm0,8h-1v4h1Zm0,8h-1v4h1Zm0,8h-1v4h1Zm0,8h-1v4h1Zm3,7h-4v1h4Zm8,0h-4v1h4Zm8,0h-4v1h4Zm8,0h-4v1h4Zm8,0h-4v1h4Zm8,0h-4v1h4Zm8,0h-4v1h4Zm8,0h-4v1h4Zm8,0h-4v1h4Zm4-3h-1v4h1Zm0-8h-1v4h1Zm0-8h-1v4h1Zm0-8h-1v4h1Zm0-8h-1v4h1Zm0-8h-1v4h1Zm0-8h-1v4h1Zm0-8h-1v4h1Zm0-8h-1v4h1Z"/><rect class="cls-1" x="415" y="235" width="56" height="56"/><path class="cls-40" d="M471,235h-4v1h4Zm-8,0h-4v1h4Zm-8,0h-4v1h4Zm-8,0h-4v1h4Zm-8,0h-4v1h4Zm-8,0h-4v1h4Zm-8,0h-4v1h4Zm-7,0h-1v4h1Zm0,8h-1v4h1Zm0,8h-1v4h1Zm0,8h-1v4h1Zm0,8h-1v4h1Zm0,8h-1v4h1Zm0,8h-1v4h1Zm3,7h-4v1h4Zm8,0h-4v1h4Zm8,0h-4v1h4Zm8,0h-4v1h4Zm8,0h-4v1h4Zm8,0h-4v1h4Zm8,0h-4v1h4Zm4-3h-1v4h1Zm0-8h-1v4h1Zm0-8h-1v4h1Zm0-8h-1v4h1Zm0-8h-1v4h1Zm0-8h-1v4h1Zm0-8h-1v4h1Z"/><rect class="cls-55" x="345" y="235" width="56" height="56"/><path class="cls-40" d="M401,235h-4v1h4Zm-8,0h-4v1h4Zm-8,0h-4v1h4Zm-8,0h-4v1h4Zm-8,0h-4v1h4Zm-8,0h-4v1h4Zm-8,0h-4v1h4Zm-7,0h-1v4h1Zm0,8h-1v4h1Zm0,8h-1v4h1Zm0,8h-1v4h1Zm0,8h-1v4h1Zm0,8h-1v4h1Zm0,8h-1v4h1Zm3,7h-4v1h4Zm8,0h-4v1h4Zm8,0h-4v1h4Zm8,0h-4v1h4Zm8,0h-4v1h4Zm8,0h-4v1h4Zm8,0h-4v1h4Zm4-3h-1v4h1Zm0-8h-1v4h1Zm0-8h-1v4h1Zm0-8h-1v4h1Zm0-8h-1v4h1Zm0-8h-1v4h1Zm0-8h-1v4h1Z"/><rect class="cls-56" x="835" y="235" width="56" height="56"/><path class="cls-40" d="M891,235h-4v1h4Zm-8,0h-4v1h4Zm-8,0h-4v1h4Zm-8,0h-4v1h4Zm-8,0h-4v1h4Zm-8,0h-4v1h4Zm-8,0h-4v1h4Zm-7,0h-1v4h1Zm0,8h-1v4h1Zm0,8h-1v4h1Zm0,8h-1v4h1Zm0,8h-1v4h1Zm0,8h-1v4h1Zm0,8h-1v4h1Zm3,7h-4v1h4Zm8,0h-4v1h4Zm8,0h-4v1h4Zm8,0h-4v1h4Zm8,0h-4v1h4Zm8,0h-4v1h4Zm8,0h-4v1h4Zm4-3h-1v4h1Zm0-8h-1v4h1Zm0-8h-1v4h1Zm0-8h-1v4h1Zm0-8h-1v4h1Zm0-8h-1v4h1Zm0-8h-1v4h1Z"/></g><g id="HEX"><path class="cls-37" d="M489.79,244.88a2.43,2.43,0,0,1-.22,1.07,2.15,2.15,0,0,1-.62.77,2.77,2.77,0,0,1-.94.47,4.28,4.28,0,0,1-1.2.16h-4v-8.57h4a4.72,4.72,0,0,1,1.11.12,2.35,2.35,0,0,1,.84.38,1.68,1.68,0,0,1,.54.66,2.25,2.25,0,0,1,.19,1,1.88,1.88,0,0,1-.34,1.13,2,2,0,0,1-1,.7h0a2.54,2.54,0,0,1,.74.3,1.83,1.83,0,0,1,.52.47,2,2,0,0,1,.3.62A2.58,2.58,0,0,1,489.79,244.88Zm-1.83-3.7a1.08,1.08,0,0,0-.38-.91,1.81,1.81,0,0,0-1.12-.29h-2.17v2.38h2.27a2,2,0,0,0,.54-.07,1.32,1.32,0,0,0,.44-.21,1,1,0,0,0,.3-.37,1.28,1.28,0,0,0,.16-.54Zm.33,3.63a1.25,1.25,0,0,0-.42-1,1.9,1.9,0,0,0-1.23-.35h-2.35v2.73h2.36a2,2,0,0,0,1.22-.33,1.21,1.21,0,0,0,.42-1.06Z"/><path class="cls-37" d="M492.79,238.26v9.08h-1.45v-9.08Z"/><path class="cls-37" d="M500.88,247.34l-.44.09H500a1.79,1.79,0,0,1-.42,0,.91.91,0,0,1-.34-.16A.84.84,0,0,1,499,247a1.28,1.28,0,0,1-.12-.45h0a2.67,2.67,0,0,1-.45.46,2.3,2.3,0,0,1-.52.31,3.32,3.32,0,0,1-1.31.24A2.42,2.42,0,0,1,495,247a1.77,1.77,0,0,1-.6-1.45,1.7,1.7,0,0,1,.6-1.42,2.11,2.11,0,0,1,.58-.32,4.69,4.69,0,0,1,.73-.2q.39-.08.82-.13l.87-.1.34-.07a.8.8,0,0,0,.27-.13.59.59,0,0,0,.17-.22.79.79,0,0,0,.06-.33,1,1,0,0,0-.31-.79,2.11,2.11,0,0,0-2,0,1,1,0,0,0-.39.73h-1.45a1.9,1.9,0,0,1,.9-1.52,2.88,2.88,0,0,1,.9-.36,5.08,5.08,0,0,1,1.13-.12,3.42,3.42,0,0,1,2,.5,1.65,1.65,0,0,1,.67,1.41V246a.47.47,0,0,0,.08.3.33.33,0,0,0,.27.1h.25Zm-2-3.35h0a1,1,0,0,1-.54.23l-.48.08-.65.11a2.2,2.2,0,0,0-1,.37.87.87,0,0,0-.32.72.89.89,0,0,0,.37.76,1.48,1.48,0,0,0,.87.24,1.79,1.79,0,0,0,1.27-.43,1.59,1.59,0,0,0,.49-1.24Z"/><path class="cls-37" d="M505.23,240.59a4.08,4.08,0,0,1,1.06.13,2.82,2.82,0,0,1,.89.41,2.27,2.27,0,0,1,.64.68,2.3,2.3,0,0,1,.31,1h-1.42a1.21,1.21,0,0,0-.47-.78,1.69,1.69,0,0,0-1-.27,1.53,1.53,0,0,0-.81.21,1.8,1.8,0,0,0-.57.54,2.44,2.44,0,0,0-.33.76,3.42,3.42,0,0,0,0,1.67,2.42,2.42,0,0,0,.32.75,1.78,1.78,0,0,0,.56.55,1.51,1.51,0,0,0,.82.21,1.81,1.81,0,0,0,.6-.09,1.48,1.48,0,0,0,.47-.26,1.4,1.4,0,0,0,.33-.41,1.75,1.75,0,0,0,.18-.52h1.4a3.08,3.08,0,0,1-.33,1,2.59,2.59,0,0,1-.62.76,2.78,2.78,0,0,1-.89.49,3.49,3.49,0,0,1-1.14.18,3.33,3.33,0,0,1-1.32-.25,3,3,0,0,1-1-.71,3.22,3.22,0,0,1-.67-1.08,3.83,3.83,0,0,1-.24-1.37,4.25,4.25,0,0,1,.21-1.36,3.31,3.31,0,0,1,.63-1.12,3,3,0,0,1,1-.76A3.33,3.33,0,0,1,505.23,240.59Z"/><path class="cls-37" d="M511.25,238.26v5.17l2.77-2.66h1.75l-2.6,2.42,2.84,4.15h-1.76l-2.09-3.16-.91.81v2.35H509.8v-9.08Z"/><path class="cls-37" d="M526.24,247.34l-.74-2.18H522l-.75,2.18h-1.53l3.08-8.55h2l3,8.55Zm-2.48-7.45h0L522.32,244h2.79Z"/><path class="cls-37" d="M535.91,244.88a2.43,2.43,0,0,1-.22,1.07,2.15,2.15,0,0,1-.62.77,2.77,2.77,0,0,1-.94.47,4.28,4.28,0,0,1-1.2.16h-4v-8.57h4a4.72,4.72,0,0,1,1.11.12,2.35,2.35,0,0,1,.84.38,1.68,1.68,0,0,1,.54.66,2.25,2.25,0,0,1,.19,1,1.88,1.88,0,0,1-.34,1.13,2,2,0,0,1-1,.7h0a2.54,2.54,0,0,1,.74.3,1.83,1.83,0,0,1,.52.47,2,2,0,0,1,.3.62A2.58,2.58,0,0,1,535.91,244.88Zm-1.83-3.7a1.08,1.08,0,0,0-.38-.91,1.81,1.81,0,0,0-1.12-.29H530.4v2.38h2.27a2,2,0,0,0,.54-.07,1.32,1.32,0,0,0,.44-.21,1,1,0,0,0,.3-.37,1.28,1.28,0,0,0,.12-.54Zm.33,3.63a1.25,1.25,0,0,0-.42-1,1.9,1.9,0,0,0-1.23-.35H530.4v2.73h2.36a2,2,0,0,0,1.22-.33,1.21,1.21,0,0,0,.43-1.06Z"/><path class="cls-37" d="M544.48,244.88a2.43,2.43,0,0,1-.22,1.07,2.15,2.15,0,0,1-.62.77,2.77,2.77,0,0,1-.94.47,4.28,4.28,0,0,1-1.2.16h-4v-8.57h4a4.72,4.72,0,0,1,1.11.12,2.35,2.35,0,0,1,.84.38,1.68,1.68,0,0,1,.54.66,2.25,2.25,0,0,1,.19,1,1.88,1.88,0,0,1-.34,1.13,2,2,0,0,1-1,.7h0a2.54,2.54,0,0,1,.74.3,1.83,1.83,0,0,1,.52.47,2,2,0,0,1,.3.62A2.58,2.58,0,0,1,544.48,244.88Zm-1.83-3.7a1.08,1.08,0,0,0-.38-.91,1.81,1.81,0,0,0-1.12-.29H539v2.38h2.27a2,2,0,0,0,.54-.07,1.32,1.32,0,0,0,.44-.21,1,1,0,0,0,.3-.37,1.28,1.28,0,0,0,.1-.54Zm.33,3.63a1.25,1.25,0,0,0-.42-1,1.9,1.9,0,0,0-1.23-.35H539v2.73h2.36a2,2,0,0,0,1.22-.33,1.21,1.21,0,0,0,.42-1.06Z"/><path class="cls-37" d="M500.71,258.46a4.85,4.85,0,0,1-.17,1.28,3.47,3.47,0,0,1-.52,1.11,2.65,2.65,0,0,1-.88.79,2.51,2.51,0,0,1-1.25.3,2.93,2.93,0,0,1-1.36-.3,1.9,1.9,0,0,1-.86-.87h0v1H494.3v-9.08h1.44v3.47h0a1.88,1.88,0,0,1,.36-.47,2.16,2.16,0,0,1,.5-.36,2.68,2.68,0,0,1,.61-.23,2.85,2.85,0,0,1,.68-.08,2.52,2.52,0,0,1,1.24.29,2.66,2.66,0,0,1,.88.78,3.4,3.4,0,0,1,.52,1.11A4.87,4.87,0,0,1,500.71,258.46Zm-1.45,0a3.74,3.74,0,0,0-.09-.82,2.52,2.52,0,0,0-.3-.76,1.71,1.71,0,0,0-.54-.56,1.5,1.5,0,0,0-.83-.22,1.57,1.57,0,0,0-.82.21,1.71,1.71,0,0,0-.56.54,2.39,2.39,0,0,0-.32.75,3.63,3.63,0,0,0-.1.86,3.68,3.68,0,0,0,.1.83,2.37,2.37,0,0,0,.31.76,1.76,1.76,0,0,0,.56.55,1.57,1.57,0,0,0,.84.21,1.49,1.49,0,0,0,.8-.21,1.69,1.69,0,0,0,.54-.54,2.43,2.43,0,0,0,.31-.75,3.94,3.94,0,0,0,.11-.85Z"/><path class="cls-37" d="M508.47,261.74l-.44.09h-.39a1.79,1.79,0,0,1-.42,0,.91.91,0,0,1-.34-.16.84.84,0,0,1-.24-.29,1.28,1.28,0,0,1-.12-.45h0a2.67,2.67,0,0,1-.45.46,2.3,2.3,0,0,1-.52.31,3.32,3.32,0,0,1-1.31.24,2.42,2.42,0,0,1-1.62-.51A1.77,1.77,0,0,1,502,260a1.7,1.7,0,0,1,.6-1.42,2.11,2.11,0,0,1,.58-.32,4.69,4.69,0,0,1,.73-.2q.39-.08.82-.13l.87-.1.34-.07a.8.8,0,0,0,.27-.13.59.59,0,0,0,.17-.22.79.79,0,0,0,.06-.33,1,1,0,0,0-.31-.79,2.11,2.11,0,0,0-2,0,1,1,0,0,0-.39.73h-1.45a1.9,1.9,0,0,1,.9-1.52,2.88,2.88,0,0,1,.9-.36,5.08,5.08,0,0,1,1.13-.12,3.42,3.42,0,0,1,2,.5,1.65,1.65,0,0,1,.67,1.41v3.54a.47.47,0,0,0,.08.3.33.33,0,0,0,.27.1h.25Zm-2-3.35h0a1,1,0,0,1-.54.23l-.48.08-.65.11a2.2,2.2,0,0,0-1,.37.87.87,0,0,0-.32.72.89.89,0,0,0,.37.76,1.48,1.48,0,0,0,.87.24,1.79,1.79,0,0,0,1.27-.43,1.59,1.59,0,0,0,.49-1.24Z"/><path class="cls-37" d="M509.84,261.74v-6.57h1.37v1.34h0a2.4,2.4,0,0,1,.87-1.08,2.23,2.23,0,0,1,1.29-.39h.41v1.36h-.53a1.84,1.84,0,0,0-1.48.6,2.36,2.36,0,0,0-.51,1.57v3.18Z"/><path class="cls-37" d="M524.82,258.46a4.85,4.85,0,0,1-.17,1.28,3.47,3.47,0,0,1-.52,1.11,2.65,2.65,0,0,1-.88.79,2.51,2.51,0,0,1-1.25.3,2.93,2.93,0,0,1-1.36-.3,1.9,1.9,0,0,1-.86-.87h0v1H518.4v-9.08h1.44v3.47h0a1.88,1.88,0,0,1,.36-.47,2.16,2.16,0,0,1,.5-.36,2.68,2.68,0,0,1,.61-.23,2.85,2.85,0,0,1,.69-.1,2.52,2.52,0,0,1,1.24.29,2.66,2.66,0,0,1,.88.78,3.4,3.4,0,0,1,.52,1.11A4.87,4.87,0,0,1,524.82,258.46Zm-1.45,0a3.74,3.74,0,0,0-.09-.82,2.52,2.52,0,0,0-.3-.76,1.71,1.71,0,0,0-.54-.56,1.5,1.5,0,0,0-.83-.22,1.57,1.57,0,0,0-.82.21,1.71,1.71,0,0,0-.56.54,2.39,2.39,0,0,0-.32.75,3.63,3.63,0,0,0-.1.86,3.68,3.68,0,0,0,.1.83,2.37,2.37,0,0,0,.31.76,1.76,1.76,0,0,0,.56.55,1.57,1.57,0,0,0,.84.21,1.49,1.49,0,0,0,.8-.21,1.69,1.69,0,0,0,.54-.54,2.43,2.43,0,0,0,.31-.75A3.94,3.94,0,0,0,523.37,258.46Z"/><path class="cls-37" d="M529,255a2.35,2.35,0,0,1,1.2.3,2.12,2.12,0,0,1,.81.85h0v-1h1.39v6.17a3.42,3.42,0,0,1-.23,1.31,2.39,2.39,0,0,1-.65.92,2.71,2.71,0,0,1-1,.54,4.81,4.81,0,0,1-1.35.18,4.46,4.46,0,0,1-1-.11,2.93,2.93,0,0,1-.86-.33,2.12,2.12,0,0,1-.65-.59,1.76,1.76,0,0,1-.31-.86h1.44a1,1,0,0,0,.49.66,2,2,0,0,0,1,.22,1.64,1.64,0,0,0,1.28-.49,2,2,0,0,0,.44-1.4v-1h0a2,2,0,0,1-.82.84,2.47,2.47,0,0,1-1.22.3,2.92,2.92,0,0,1-1.26-.25,2.46,2.46,0,0,1-.88-.69,3,3,0,0,1-.52-1,4.7,4.7,0,0,1-.17-1.3,4.06,4.06,0,0,1,.18-1.22,3.1,3.1,0,0,1,.54-1,2.67,2.67,0,0,1,.9-.72A2.76,2.76,0,0,1,529,255Zm-1.42,3.25a3.41,3.41,0,0,0,.11.87,2,2,0,0,0,.32.68,1.48,1.48,0,0,0,.53.44,1.65,1.65,0,0,0,.74.16,1.58,1.58,0,0,0,.75-.17,1.71,1.71,0,0,0,.55-.46,2,2,0,0,0,.34-.66,2.63,2.63,0,0,0,.11-.78,3.51,3.51,0,0,0-.11-.88,2.07,2.07,0,0,0-.32-.71,1.53,1.53,0,0,0-.55-.47,1.68,1.68,0,0,0-.78-.17,1.57,1.57,0,0,0-.77.18,1.53,1.53,0,0,0-.53.48,2.15,2.15,0,0,0-.3.69,3.18,3.18,0,0,0-.07.8Z"/><path class="cls-37" d="M277.77,238.78a3.81,3.81,0,0,1,2.85,1.08,4.36,4.36,0,0,1,1.07,3.17,4.48,4.48,0,0,1-1,3.21,3.71,3.71,0,0,1-2.82,1.11h-3.46v-8.57Zm-.17,7.3a2.49,2.49,0,0,0,1.89-.71,3.14,3.14,0,0,0,.69-2.23,3.35,3.35,0,0,0-.69-2.36,2.81,2.81,0,0,0-2.14-.73h-1.51v6Z"/><path class="cls-37" d="M289.35,247.34l-.44.09h-.39a1.79,1.79,0,0,1-.42,0,.91.91,0,0,1-.34-.16.84.84,0,0,1-.24-.29,1.28,1.28,0,0,1-.12-.45h0a2.67,2.67,0,0,1-.45.46,2.3,2.3,0,0,1-.52.31,3.32,3.32,0,0,1-1.31.24,2.42,2.42,0,0,1-1.62-.51,1.77,1.77,0,0,1-.6-1.45,1.7,1.7,0,0,1,.6-1.42,2.11,2.11,0,0,1,.58-.32,4.69,4.69,0,0,1,.73-.2q.39-.08.82-.13l.87-.1.34-.07a.8.8,0,0,0,.27-.13.59.59,0,0,0,.17-.22.79.79,0,0,0,.06-.33,1,1,0,0,0-.31-.79,2.11,2.11,0,0,0-2,0,1,1,0,0,0-.39.73H283.1a1.9,1.9,0,0,1,.9-1.52,2.88,2.88,0,0,1,.9-.36,5.08,5.08,0,0,1,1.13-.12,3.42,3.42,0,0,1,2,.5,1.65,1.65,0,0,1,.67,1.41V246a.47.47,0,0,0,.08.3.33.33,0,0,0,.27.1h.25Zm-2-3.35h0a1,1,0,0,1-.54.23l-.48.08-.65.11a2.2,2.2,0,0,0-1,.37.87.87,0,0,0-.32.72.89.89,0,0,0,.37.76,1.48,1.48,0,0,0,.87.24,1.79,1.79,0,0,0,1.27-.43,1.59,1.59,0,0,0,.49-1.24Z"/><path class="cls-37" d="M290.72,247.34v-6.57h1.37v1.34h0A2.4,2.4,0,0,1,293,241a2.23,2.23,0,0,1,1.29-.39h.41V242h-.53a1.84,1.84,0,0,0-1.48.6,2.36,2.36,0,0,0-.51,1.57v3.18Z"/><path class="cls-37" d="M297.35,238.26v5.17l2.77-2.66h1.75l-2.6,2.42,2.84,4.15h-1.76l-2.09-3.16-.91.81v2.35H295.9v-9.08Z"/><path class="cls-37" d="M309.23,240.59a2.35,2.35,0,0,1,1.2.3,2.12,2.12,0,0,1,.81.85h0v-1h1.39v6.17a3.42,3.42,0,0,1-.23,1.31,2.39,2.39,0,0,1-.65.92,2.71,2.71,0,0,1-1,.54,4.81,4.81,0,0,1-1.35.18,4.46,4.46,0,0,1-1-.11,2.93,2.93,0,0,1-.86-.33,2.12,2.12,0,0,1-.65-.59,1.76,1.76,0,0,1-.31-.86H308a1,1,0,0,0,.49.66,2,2,0,0,0,1,.22,1.64,1.64,0,0,0,1.28-.49,2,2,0,0,0,.44-1.4v-1h0a2,2,0,0,1-.82.84,2.47,2.47,0,0,1-1.22.3,2.92,2.92,0,0,1-1.26-.25,2.46,2.46,0,0,1-.88-.69,3,3,0,0,1-.52-1,4.7,4.7,0,0,1-.17-1.3,4.06,4.06,0,0,1,.18-1.22,3.1,3.1,0,0,1,.54-1,2.67,2.67,0,0,1,.9-.72A2.76,2.76,0,0,1,309.23,240.59Zm-1.42,3.25a3.41,3.41,0,0,0,.11.87,2,2,0,0,0,.32.68,1.48,1.48,0,0,0,.53.44,1.65,1.65,0,0,0,.74.16,1.58,1.58,0,0,0,.75-.17,1.71,1.71,0,0,0,.55-.46,2,2,0,0,0,.34-.66,2.63,2.63,0,0,0,.11-.78,3.51,3.51,0,0,0-.11-.88,2.07,2.07,0,0,0-.32-.71,1.53,1.53,0,0,0-.55-.47,1.68,1.68,0,0,0-.78-.17,1.57,1.57,0,0,0-.77.18,1.53,1.53,0,0,0-.53.48,2.15,2.15,0,0,0-.3.69,3.18,3.18,0,0,0-.1.81Z"/><path class="cls-37" d="M314.62,247.34v-6.57H316v1.34h0a2.4,2.4,0,0,1,.87-1.08,2.23,2.23,0,0,1,1.29-.39h.41V242H318a1.84,1.84,0,0,0-1.48.6,2.36,2.36,0,0,0-.51,1.57v3.18Z"/><path class="cls-37" d="M322.43,240.59a3,3,0,0,1,1.34.28,2.78,2.78,0,0,1,1,.77,3.33,3.33,0,0,1,.58,1.13,4.76,4.76,0,0,1,.19,1.37v.26h-4.85a2.77,2.77,0,0,0,.13.81,1.9,1.9,0,0,0,.35.63,1.55,1.55,0,0,0,.54.41,1.7,1.7,0,0,0,.72.15,1.9,1.9,0,0,0,1-.23,1.7,1.7,0,0,0,.61-.6h1.37a3.06,3.06,0,0,1-.45.81,2.83,2.83,0,0,1-.66.62,3,3,0,0,1-.85.39,3.66,3.66,0,0,1-1,.13,3.28,3.28,0,0,1-1.33-.26,2.82,2.82,0,0,1-1-.72,3.18,3.18,0,0,1-.62-1.1,4.31,4.31,0,0,1-.22-1.4,4,4,0,0,1,.22-1.33,3.3,3.3,0,0,1,.63-1.1,3,3,0,0,1,1-.76A3.16,3.16,0,0,1,322.43,240.59Zm1.63,2.85a2.77,2.77,0,0,0-.16-.71,1.73,1.73,0,0,0-.33-.55,1.43,1.43,0,0,0-.5-.35,1.91,1.91,0,0,0-1.37,0,1.51,1.51,0,0,0-.52.36,1.79,1.79,0,0,0-.35.55,2.54,2.54,0,0,0-.17.7Z"/><path class="cls-37" d="M327.71,240.77l1.73,5h0l1.64-5h1.49l-2.81,7.52a3,3,0,0,1-.29.59,1.79,1.79,0,0,1-.4.44,1.71,1.71,0,0,1-.54.28,2.43,2.43,0,0,1-.72.1h-1v-1.2l.45,0h.35a1,1,0,0,0,.4-.07.76.76,0,0,0,.28-.21,1.39,1.39,0,0,0,.21-.36q.09-.22.18-.52l-2.53-6.57Z"/><path class="cls-37" d="M302.37,258.46a4.85,4.85,0,0,1-.17,1.28,3.47,3.47,0,0,1-.52,1.11,2.65,2.65,0,0,1-.88.79,2.51,2.51,0,0,1-1.25.3,2.93,2.93,0,0,1-1.36-.3,1.9,1.9,0,0,1-.86-.87h0v1H296v-9.08h1.44v3.47h0a1.88,1.88,0,0,1,.36-.47,2.16,2.16,0,0,1,.5-.36,2.68,2.68,0,0,1,.61-.23,2.85,2.85,0,0,1,.68-.08,2.52,2.52,0,0,1,1.24.29,2.66,2.66,0,0,1,.88.78,3.4,3.4,0,0,1,.52,1.11A4.87,4.87,0,0,1,302.37,258.46Zm-1.45,0a3.74,3.74,0,0,0-.09-.82,2.52,2.52,0,0,0-.3-.76,1.71,1.71,0,0,0-.54-.56,1.5,1.5,0,0,0-.83-.22,1.57,1.57,0,0,0-.82.21,1.71,1.71,0,0,0-.56.54,2.39,2.39,0,0,0-.32.75,3.63,3.63,0,0,0-.1.86,3.68,3.68,0,0,0,.1.83,2.37,2.37,0,0,0,.31.76,1.76,1.76,0,0,0,.56.55,1.57,1.57,0,0,0,.84.21,1.49,1.49,0,0,0,.8-.21,1.69,1.69,0,0,0,.54-.54,2.43,2.43,0,0,0,.31-.75,3.94,3.94,0,0,0,.1-.85Z"/><path class="cls-37" d="M306.57,255a2.35,2.35,0,0,1,1.2.3,2.12,2.12,0,0,1,.81.85h0v-1H310v6.17a3.42,3.42,0,0,1-.23,1.31,2.39,2.39,0,0,1-.65.92,2.71,2.71,0,0,1-1,.54,4.81,4.81,0,0,1-1.35.18,4.46,4.46,0,0,1-1-.11,2.93,2.93,0,0,1-.86-.33,2.12,2.12,0,0,1-.65-.59,1.76,1.76,0,0,1-.31-.86h1.44a1,1,0,0,0,.49.66,2,2,0,0,0,1,.22,1.64,1.64,0,0,0,1.28-.49,2,2,0,0,0,.44-1.4v-1h0a2,2,0,0,1-.82.84,2.47,2.47,0,0,1-1.22.3,2.92,2.92,0,0,1-1.26-.25,2.46,2.46,0,0,1-.88-.69,3,3,0,0,1-.52-1,4.7,4.7,0,0,1-.17-1.3,4.06,4.06,0,0,1,.18-1.22,3.1,3.1,0,0,1,.54-1,2.67,2.67,0,0,1,.9-.72A2.76,2.76,0,0,1,306.57,255Zm-1.42,3.25a3.41,3.41,0,0,0,.11.87,2,2,0,0,0,.32.68,1.48,1.48,0,0,0,.53.44,1.65,1.65,0,0,0,.74.16,1.58,1.58,0,0,0,.75-.17,1.71,1.71,0,0,0,.55-.46,2,2,0,0,0,.34-.66,2.63,2.63,0,0,0,.11-.78,3.51,3.51,0,0,0-.11-.88,2.07,2.07,0,0,0-.32-.71,1.53,1.53,0,0,0-.55-.47,1.68,1.68,0,0,0-.78-.17,1.57,1.57,0,0,0-.77.18,1.53,1.53,0,0,0-.53.48,2.15,2.15,0,0,0-.3.69A3.18,3.18,0,0,0,305.15,258.25Z"/><path class="cls-37" d="M492.43,286.66l.34-2.48h-1.35l-.35,2.48h-1l.35-2.48h-1.11v-.88h1.23l.23-1.63H489.7v-.88h1.23l.35-2.48h1l-.35,2.48h1.35l.34-2.48h1l-.35,2.48h1v.88h-1.14l-.23,1.63h1v.88h-1.15l-.35,2.48Zm.69-5h-1.34l-.23,1.63h1.35Z"/><path class="cls-37" d="M499.66,277.93a3,3,0,0,1,2,.7,2.22,2.22,0,0,1,.6.83,2.77,2.77,0,0,1,.19,1.06,2.82,2.82,0,0,1-.46,1.55,5.83,5.83,0,0,1-1.78,1.54,8.9,8.9,0,0,0-.85.57,6.92,6.92,0,0,0-.58.47,2.8,2.8,0,0,0-.62.81h4.33v1.21h-6.08a3.35,3.35,0,0,1,.39-1.59,3.73,3.73,0,0,1,.51-.69,5.59,5.59,0,0,1,.74-.66L499,283l1.12-.83a2.7,2.7,0,0,0,.71-.75,1.61,1.61,0,0,0,.23-.83,1.68,1.68,0,0,0-.1-.59,1.33,1.33,0,0,0-.31-.48,1.44,1.44,0,0,0-.47-.3,1.77,1.77,0,0,0-1.31,0,1.46,1.46,0,0,0-.5.38,1.58,1.58,0,0,0-.29.53,2,2,0,0,0-.1.61v.15h-1.34v-.15a3.14,3.14,0,0,1,.21-1.15,2.54,2.54,0,0,1,.59-.9,2.71,2.71,0,0,1,.94-.59A3.45,3.45,0,0,1,499.66,277.93Z"/><path class="cls-37" d="M508.73,284.61v2h-1.31v-2h-3.76v-1.29l3.82-5.27h1.25v5.41h1.2v1.15Zm-1.31-4.82h0l-2.62,3.67h2.65Z"/><path class="cls-37" d="M514.2,277.93a3,3,0,0,1,2,.7,2.22,2.22,0,0,1,.6.83,2.77,2.77,0,0,1,.19,1.06,2.82,2.82,0,0,1-.46,1.55,5.83,5.83,0,0,1-1.78,1.54,8.9,8.9,0,0,0-.85.57,6.92,6.92,0,0,0-.58.47,2.8,2.8,0,0,0-.62.81H517v1.21h-6a3.35,3.35,0,0,1,.39-1.59,3.73,3.73,0,0,1,.51-.69,5.59,5.59,0,0,1,.74-.66l1-.71,1.12-.83a2.7,2.7,0,0,0,.71-.75,1.61,1.61,0,0,0,.23-.83,1.68,1.68,0,0,0-.1-.59,1.33,1.33,0,0,0-.31-.48,1.44,1.44,0,0,0-.47-.3,1.77,1.77,0,0,0-1.31,0,1.46,1.46,0,0,0-.5.38,1.58,1.58,0,0,0-.29.53,2,2,0,0,0-.1.61v.15h-1.34v-.15a3.14,3.14,0,0,1,.21-1.15,2.54,2.54,0,0,1,.59-.9,2.71,2.71,0,0,1,.94-.59A3.45,3.45,0,0,1,514.2,277.93Z"/><path class="cls-37" d="M523.27,284.61v2H522v-2h-3.8v-1.29L522,278h1.25v5.41h1.2v1.15ZM522,279.79h0l-2.62,3.67H522Z"/><path class="cls-37" d="M528.73,277.93a3,3,0,0,1,2,.7,2.22,2.22,0,0,1,.6.83,2.77,2.77,0,0,1,.19,1.06,2.82,2.82,0,0,1-.46,1.55,5.83,5.83,0,0,1-1.78,1.54,8.9,8.9,0,0,0-.85.57,6.92,6.92,0,0,0-.58.47,2.8,2.8,0,0,0-.62.81h4.33v1.21h-6.08a3.35,3.35,0,0,1,.39-1.59,3.73,3.73,0,0,1,.51-.69,5.59,5.59,0,0,1,.74-.66l1-.71,1.12-.83a2.7,2.7,0,0,0,.71-.75,1.61,1.61,0,0,0,.23-.83,1.68,1.68,0,0,0-.1-.59,1.33,1.33,0,0,0-.31-.48,1.44,1.44,0,0,0-.47-.3,1.77,1.77,0,0,0-1.31,0,1.46,1.46,0,0,0-.5.38,1.58,1.58,0,0,0-.29.53,2,2,0,0,0-.1.61v.15h-1.34v-.15a3.14,3.14,0,0,1,.21-1.15,2.54,2.54,0,0,1,.59-.9,2.71,2.71,0,0,1,.94-.59A3.45,3.45,0,0,1,528.73,277.93Z"/><path class="cls-37" d="M537.8,284.61v2h-1.31v-2h-3.76v-1.29l3.82-5.27h1.25v5.41H539v1.15Zm-1.31-4.82h0l-2.62,3.67h2.65Z"/><path class="cls-37" d="M873.42,383.88a2.43,2.43,0,0,1-.22,1.07,2.15,2.15,0,0,1-.62.77,2.77,2.77,0,0,1-.94.47,4.28,4.28,0,0,1-1.2.16h-4v-8.57h4a4.72,4.72,0,0,1,1.11.12,2.35,2.35,0,0,1,.84.38,1.68,1.68,0,0,1,.54.66,2.25,2.25,0,0,1,.19,1,1.88,1.88,0,0,1-.34,1.13,2,2,0,0,1-1,.7h0a2.54,2.54,0,0,1,.74.3,1.83,1.83,0,0,1,.52.47,2,2,0,0,1,.3.62A2.58,2.58,0,0,1,873.42,383.88Zm-1.83-3.7a1.08,1.08,0,0,0-.38-.91,1.81,1.81,0,0,0-1.12-.29h-2.17v2.38h2.27a2,2,0,0,0,.54-.07,1.32,1.32,0,0,0,.44-.21,1,1,0,0,0,.3-.37,1.28,1.28,0,0,0,.12-.54Zm.33,3.63a1.25,1.25,0,0,0-.42-1,1.9,1.9,0,0,0-1.23-.35h-2.35v2.73h2.36a2,2,0,0,0,1.22-.33,1.21,1.21,0,0,0,.42-1.06Z"/><path class="cls-37" d="M876.42,377.26v9.08H875v-9.08Z"/><path class="cls-37" d="M882.87,386.34v-1h0a2.25,2.25,0,0,1-.39.52,2.3,2.3,0,0,1-.5.37,2.49,2.49,0,0,1-.58.23,2.54,2.54,0,0,1-.64.08,2.3,2.3,0,0,1-1.78-.63,2.81,2.81,0,0,1-.57-2v-4.19h1.44v4a2.89,2.89,0,0,0,.08.7,1.37,1.37,0,0,0,.24.52,1,1,0,0,0,.42.32,1.82,1.82,0,0,0,1.36,0,1.37,1.37,0,0,0,.5-.43,1.86,1.86,0,0,0,.29-.66,3.72,3.72,0,0,0,.09-.85v-3.5h1.44v6.57Z"/><path class="cls-37" d="M889,379.59a3,3,0,0,1,1.34.28,2.78,2.78,0,0,1,1,.77,3.33,3.33,0,0,1,.58,1.13,4.76,4.76,0,0,1,.19,1.37v.26h-4.85a2.77,2.77,0,0,0,.13.81,1.9,1.9,0,0,0,.35.63,1.55,1.55,0,0,0,.54.41,1.7,1.7,0,0,0,.72.15,1.9,1.9,0,0,0,1-.23,1.7,1.7,0,0,0,.61-.6H892a3.06,3.06,0,0,1-.45.81,2.83,2.83,0,0,1-.66.62,3,3,0,0,1-.85.39,3.66,3.66,0,0,1-1,.13,3.28,3.28,0,0,1-1.33-.26,2.82,2.82,0,0,1-1-.72,3.18,3.18,0,0,1-.62-1.1,4.31,4.31,0,0,1-.22-1.4,4,4,0,0,1,.22-1.33,3.3,3.3,0,0,1,.63-1.1,3,3,0,0,1,1-.76A3.16,3.16,0,0,1,889,379.59Zm1.63,2.85a2.77,2.77,0,0,0-.16-.71,1.73,1.73,0,0,0-.33-.55,1.43,1.43,0,0,0-.5-.35,1.91,1.91,0,0,0-1.37,0,1.51,1.51,0,0,0-.52.36,1.79,1.79,0,0,0-.35.55,2.54,2.54,0,0,0-.17.7Z"/><path class="cls-37" d="M903.48,383.06a4.85,4.85,0,0,1-.17,1.28,3.47,3.47,0,0,1-.52,1.11,2.65,2.65,0,0,1-.88.79,2.51,2.51,0,0,1-1.25.3,2.93,2.93,0,0,1-1.36-.3,1.9,1.9,0,0,1-.86-.87h0v1h-1.37v-9.08h1.44v3.47h0a1.88,1.88,0,0,1,.36-.47,2.16,2.16,0,0,1,.5-.36,2.68,2.68,0,0,1,.61-.23,2.85,2.85,0,0,1,.68-.08,2.52,2.52,0,0,1,1.24.29,2.66,2.66,0,0,1,.88.78,3.4,3.4,0,0,1,.52,1.11A4.87,4.87,0,0,1,903.48,383.06Zm-1.45,0a3.74,3.74,0,0,0-.09-.82,2.52,2.52,0,0,0-.3-.76,1.71,1.71,0,0,0-.54-.56,1.5,1.5,0,0,0-.83-.22,1.57,1.57,0,0,0-.82.21,1.71,1.71,0,0,0-.56.54,2.39,2.39,0,0,0-.32.75,3.63,3.63,0,0,0-.1.86,3.68,3.68,0,0,0,.1.83,2.37,2.37,0,0,0,.31.76,1.76,1.76,0,0,0,.56.55,1.57,1.57,0,0,0,.84.21,1.49,1.49,0,0,0,.8-.21,1.69,1.69,0,0,0,.54-.54,2.43,2.43,0,0,0,.31-.75,3.94,3.94,0,0,0,.07-.85Z"/><path class="cls-37" d="M907.68,379.59a2.35,2.35,0,0,1,1.2.3,2.12,2.12,0,0,1,.81.85h0v-1h1.39v6.17a3.42,3.42,0,0,1-.23,1.31,2.39,2.39,0,0,1-.65.92,2.71,2.71,0,0,1-1,.54,4.81,4.81,0,0,1-1.35.18,4.46,4.46,0,0,1-1-.11,2.93,2.93,0,0,1-.86-.33,2.12,2.12,0,0,1-.65-.59A1.76,1.76,0,0,1,905,387h1.44a1,1,0,0,0,.49.66,2,2,0,0,0,1,.22,1.64,1.64,0,0,0,1.28-.49,2,2,0,0,0,.44-1.4v-1h0a2,2,0,0,1-.82.84,2.47,2.47,0,0,1-1.22.3,2.92,2.92,0,0,1-1.26-.25,2.46,2.46,0,0,1-.88-.69,3,3,0,0,1-.52-1,4.7,4.7,0,0,1-.17-1.3,4.06,4.06,0,0,1,.18-1.22,3.1,3.1,0,0,1,.54-1,2.67,2.67,0,0,1,.9-.72A2.76,2.76,0,0,1,907.68,379.59Zm-1.42,3.25a3.41,3.41,0,0,0,.11.87,2,2,0,0,0,.32.68,1.48,1.48,0,0,0,.53.44,1.65,1.65,0,0,0,.74.16,1.58,1.58,0,0,0,.75-.17,1.71,1.71,0,0,0,.55-.46,2,2,0,0,0,.34-.66,2.63,2.63,0,0,0,.11-.78,3.51,3.51,0,0,0-.11-.88,2.07,2.07,0,0,0-.32-.71,1.53,1.53,0,0,0-.55-.47,1.68,1.68,0,0,0-.78-.17,1.57,1.57,0,0,0-.77.18,1.53,1.53,0,0,0-.53.48,2.15,2.15,0,0,0-.3.69,3.18,3.18,0,0,0-.09.81Z"/><path class="cls-37" d="M424.88,368.42a2.54,2.54,0,0,1-.75,1.92,2.51,2.51,0,0,1-.88.54,3.33,3.33,0,0,1-1.13.18h-2.4v3.29h-1.5v-8.57h3.9a2.79,2.79,0,0,1,2,.72A2.51,2.51,0,0,1,424.88,368.42Zm-1.46,0a1.36,1.36,0,0,0-.42-1.09,2,2,0,0,0-1.31-.36h-2v2.9h2a2.78,2.78,0,0,0,.72-.08,1.28,1.28,0,0,0,1-1.36Z"/><path class="cls-37" d="M426,374.34v-6.57h1.37v1.34h0a2.4,2.4,0,0,1,.87-1.08,2.23,2.23,0,0,1,1.29-.39H430V369h-.53a1.84,1.84,0,0,0-1.48.6,2.36,2.36,0,0,0-.51,1.57v3.18Z"/><path class="cls-37" d="M432.62,364.91v1.42h-1.45v-1.42Zm0,2.86v6.57h-1.45v-6.57Z"/><path class="cls-37" d="M442.86,374.34v-4a3.44,3.44,0,0,0,0-.62,1.26,1.26,0,0,0-.19-.49,1,1,0,0,0-.39-.32,1.48,1.48,0,0,0-.63-.12,1.24,1.24,0,0,0-1.06.47,2.29,2.29,0,0,0-.35,1.38v3.74h-1.45v-4.21a1.64,1.64,0,0,0-.28-1,1.1,1.1,0,0,0-.91-.35,1.34,1.34,0,0,0-1.08.48,2,2,0,0,0-.4,1.31v3.81h-1.45v-6.57H436v1h0a2.31,2.31,0,0,1,2.06-1.15,2.27,2.27,0,0,1,1.2.3,1.71,1.71,0,0,1,.71.86,2.45,2.45,0,0,1,.87-.86,2.21,2.21,0,0,1,3.47,2v4.48Z"/><path class="cls-37" d="M452.39,374.34l-.44.09h-.39a1.79,1.79,0,0,1-.42,0,.91.91,0,0,1-.34-.16.84.84,0,0,1-.24-.29,1.28,1.28,0,0,1-.12-.45h0a2.67,2.67,0,0,1-.45.46,2.3,2.3,0,0,1-.52.31,3.32,3.32,0,0,1-1.31.24,2.42,2.42,0,0,1-1.62-.51,1.77,1.77,0,0,1-.6-1.45,1.7,1.7,0,0,1,.6-1.42,2.11,2.11,0,0,1,.58-.32,4.69,4.69,0,0,1,.73-.2q.39-.08.82-.13l.87-.1.34-.07a.8.8,0,0,0,.27-.13.59.59,0,0,0,.17-.22.79.79,0,0,0,.06-.33,1,1,0,0,0-.31-.79,2.11,2.11,0,0,0-2,0,1,1,0,0,0-.39.73h-1.45a1.9,1.9,0,0,1,.9-1.52,2.88,2.88,0,0,1,.9-.36,5.08,5.08,0,0,1,1.13-.12,3.42,3.42,0,0,1,2,.5,1.65,1.65,0,0,1,.67,1.41V373a.47.47,0,0,0,.08.3.33.33,0,0,0,.27.1h.25Zm-2-3.35h0a1,1,0,0,1-.54.23l-.48.08-.65.11a2.2,2.2,0,0,0-1,.37.87.87,0,0,0-.32.72.89.89,0,0,0,.37.76,1.48,1.48,0,0,0,.87.24,1.79,1.79,0,0,0,1.27-.43,1.59,1.59,0,0,0,.49-1.24Z"/><path class="cls-37" d="M453.75,374.34v-6.57h1.37v1.34h0A2.4,2.4,0,0,1,456,368a2.23,2.23,0,0,1,1.29-.39h.41V369h-.53a1.84,1.84,0,0,0-1.48.6,2.36,2.36,0,0,0-.51,1.57v3.18Z"/><path class="cls-37" d="M459.83,367.77l1.73,5h0l1.64-5h1.49l-2.81,7.52a3,3,0,0,1-.29.59,1.79,1.79,0,0,1-.4.44,1.71,1.71,0,0,1-.54.28,2.43,2.43,0,0,1-.72.1h-1v-1.2l.45,0h.35a1,1,0,0,0,.4-.07.76.76,0,0,0,.28-.21,1.39,1.39,0,0,0,.21-.36q.09-.22.18-.52l-2.53-6.57Z"/><path class="cls-37" d="M426.86,388.74l-.44.09H426a1.79,1.79,0,0,1-.42,0,.91.91,0,0,1-.34-.16.84.84,0,0,1-.24-.29,1.28,1.28,0,0,1-.12-.45h0a2.67,2.67,0,0,1-.45.46,2.3,2.3,0,0,1-.52.31,3.32,3.32,0,0,1-1.31.24,2.42,2.42,0,0,1-1.62-.51,1.77,1.77,0,0,1-.6-1.45,1.7,1.7,0,0,1,.6-1.42,2.11,2.11,0,0,1,.58-.32,4.69,4.69,0,0,1,.73-.2q.39-.08.82-.13l.87-.1.34-.07a.8.8,0,0,0,.27-.13.59.59,0,0,0,.17-.22.79.79,0,0,0,.06-.33,1,1,0,0,0-.31-.79,2.11,2.11,0,0,0-2,0,1,1,0,0,0-.39.73h-1.45a1.9,1.9,0,0,1,.9-1.52,2.88,2.88,0,0,1,.9-.36,5.08,5.08,0,0,1,1.13-.12,3.42,3.42,0,0,1,2,.5,1.65,1.65,0,0,1,.67,1.41v3.54a.47.47,0,0,0,.08.3.33.33,0,0,0,.27.1h.25Zm-2-3.35h0a1,1,0,0,1-.54.23l-.48.08-.65.11a2.2,2.2,0,0,0-1,.37.87.87,0,0,0-.32.72.89.89,0,0,0,.37.76,1.48,1.48,0,0,0,.87.24,1.79,1.79,0,0,0,1.27-.43,1.59,1.59,0,0,0,.49-1.24Z"/><path class="cls-37" d="M431.21,382a4.08,4.08,0,0,1,1.06.13,2.82,2.82,0,0,1,.89.41,2.27,2.27,0,0,1,.64.68,2.3,2.3,0,0,1,.31,1h-1.42a1.21,1.21,0,0,0-.47-.78,1.69,1.69,0,0,0-1-.27,1.53,1.53,0,0,0-.81.21,1.8,1.8,0,0,0-.57.54,2.44,2.44,0,0,0-.33.76,3.42,3.42,0,0,0,0,1.67,2.42,2.42,0,0,0,.32.75,1.78,1.78,0,0,0,.56.55,1.51,1.51,0,0,0,.82.21,1.81,1.81,0,0,0,.6-.09,1.48,1.48,0,0,0,.47-.26,1.4,1.4,0,0,0,.33-.41,1.75,1.75,0,0,0,.18-.52h1.4a3.08,3.08,0,0,1-.33,1,2.59,2.59,0,0,1-.62.76,2.78,2.78,0,0,1-.89.49,3.49,3.49,0,0,1-1.14.18,3.33,3.33,0,0,1-1.32-.25,3,3,0,0,1-1-.71,3.22,3.22,0,0,1-.67-1.08,3.83,3.83,0,0,1-.24-1.37,4.25,4.25,0,0,1,.21-1.36,3.31,3.31,0,0,1,.63-1.12,3,3,0,0,1,1-.76A3.33,3.33,0,0,1,431.21,382Z"/><path class="cls-37" d="M438.65,382a4.08,4.08,0,0,1,1.06.13,2.82,2.82,0,0,1,.89.41,2.27,2.27,0,0,1,.64.68,2.3,2.3,0,0,1,.31,1h-1.42a1.21,1.21,0,0,0-.47-.78,1.69,1.69,0,0,0-1-.27,1.53,1.53,0,0,0-.81.21,1.8,1.8,0,0,0-.57.54,2.44,2.44,0,0,0-.33.76,3.42,3.42,0,0,0,0,1.67,2.42,2.42,0,0,0,.32.75,1.78,1.78,0,0,0,.56.55,1.51,1.51,0,0,0,.82.21,1.81,1.81,0,0,0,.6-.09,1.48,1.48,0,0,0,.47-.26A1.4,1.4,0,0,0,440,387a1.75,1.75,0,0,0,.18-.52h1.4a3.08,3.08,0,0,1-.33,1,2.59,2.59,0,0,1-.62.76,2.78,2.78,0,0,1-.89.49,3.49,3.49,0,0,1-1.14.18,3.33,3.33,0,0,1-1.32-.25,3,3,0,0,1-1-.71,3.22,3.22,0,0,1-.67-1.08,3.83,3.83,0,0,1-.24-1.37,4.25,4.25,0,0,1,.21-1.36,3.31,3.31,0,0,1,.63-1.12,3,3,0,0,1,1-.76A3.33,3.33,0,0,1,438.65,382Z"/><path class="cls-37" d="M445.94,382a3,3,0,0,1,1.34.28,2.78,2.78,0,0,1,1,.77,3.33,3.33,0,0,1,.58,1.13,4.76,4.76,0,0,1,.19,1.37v.26H444.2a2.77,2.77,0,0,0,.13.81,1.9,1.9,0,0,0,.35.63,1.55,1.55,0,0,0,.54.41,1.7,1.7,0,0,0,.72.15,1.9,1.9,0,0,0,1-.23,1.7,1.7,0,0,0,.61-.6h1.37a3.06,3.06,0,0,1-.45.81,2.83,2.83,0,0,1-.66.62,3,3,0,0,1-.85.39,3.66,3.66,0,0,1-1,.13,3.28,3.28,0,0,1-1.33-.26,2.82,2.82,0,0,1-1-.72,3.18,3.18,0,0,1-.62-1.1,4.31,4.31,0,0,1-.22-1.4,4,4,0,0,1,.22-1.33,3.3,3.3,0,0,1,.63-1.1,3,3,0,0,1,1-.76A3.16,3.16,0,0,1,445.94,382Zm1.63,2.85a2.77,2.77,0,0,0-.16-.71,1.73,1.73,0,0,0-.33-.55,1.43,1.43,0,0,0-.5-.35,1.91,1.91,0,0,0-1.37,0,1.51,1.51,0,0,0-.52.36,1.79,1.79,0,0,0-.35.55,2.54,2.54,0,0,0-.17.7Z"/><path class="cls-37" d="M454,382a3.25,3.25,0,0,1,1.1.16,1.8,1.8,0,0,1,.74.49,2,2,0,0,1,.42.81,4.28,4.28,0,0,1,.13,1.12v4.17H455v-3.9a2.11,2.11,0,0,0-.32-1.27,1.19,1.19,0,0,0-1-.43,1.48,1.48,0,0,0-1.23.52,2.28,2.28,0,0,0-.41,1.45v3.63h-1.44v-6.57h1.38v1h0a2.14,2.14,0,0,1,.37-.5,2.24,2.24,0,0,1,.48-.37,2.34,2.34,0,0,1,.57-.23A2.51,2.51,0,0,1,454,382Z"/><path class="cls-37" d="M461.56,388.79h-.83a4.59,4.59,0,0,1-.74-.06,1.58,1.58,0,0,1-.6-.22,1.12,1.12,0,0,1-.4-.45,1.67,1.67,0,0,1-.15-.76v-4.15h-1.29v-1h1.29v-2h1.45v2h1.5v1h-1.5v3.72a.83.83,0,0,0,.17.58.8.8,0,0,0,.59.18h.74v1.14Z"/><path class="cls-37" d="M429,396.39a4.08,4.08,0,0,1,1.06.13,2.82,2.82,0,0,1,.89.41,2.27,2.27,0,0,1,.64.68,2.3,2.3,0,0,1,.31,1h-1.42a1.21,1.21,0,0,0-.47-.78,1.69,1.69,0,0,0-1-.27,1.53,1.53,0,0,0-.81.21,1.8,1.8,0,0,0-.57.54,2.44,2.44,0,0,0-.33.76,3.42,3.42,0,0,0,0,1.67,2.42,2.42,0,0,0,.32.75,1.78,1.78,0,0,0,.56.55,1.51,1.51,0,0,0,.82.21,1.81,1.81,0,0,0,.6-.09,1.48,1.48,0,0,0,.47-.26,1.4,1.4,0,0,0,.33-.41,1.75,1.75,0,0,0,.18-.52H432a3.08,3.08,0,0,1-.33,1,2.59,2.59,0,0,1-.62.76,2.78,2.78,0,0,1-.89.49,3.49,3.49,0,0,1-1.14.18,3.33,3.33,0,0,1-1.32-.25,3,3,0,0,1-1-.71,3.22,3.22,0,0,1-.67-1.08,3.83,3.83,0,0,1-.24-1.37,4.25,4.25,0,0,1,.21-1.36,3.31,3.31,0,0,1,.63-1.12,3,3,0,0,1,1-.76A3.33,3.33,0,0,1,429,396.39Z"/><path class="cls-37" d="M439.81,399.86a4.09,4.09,0,0,1-.23,1.38,3.1,3.1,0,0,1-.68,1.11,3,3,0,0,1-1,.73,3.49,3.49,0,0,1-1.36.25,3.12,3.12,0,0,1-2.38-1,3.94,3.94,0,0,1,0-5,3.1,3.1,0,0,1,2.39-1,3.15,3.15,0,0,1,2.4,1A3.54,3.54,0,0,1,439.81,399.86Zm-1.45,0a3.59,3.59,0,0,0-.11-.92,2.21,2.21,0,0,0-.35-.75,1.68,1.68,0,0,0-.58-.5,1.75,1.75,0,0,0-.83-.18,1.71,1.71,0,0,0-.77.17,1.62,1.62,0,0,0-.57.48,2.23,2.23,0,0,0-.36.74,3.79,3.79,0,0,0,0,1.9,2.19,2.19,0,0,0,.35.74,1.67,1.67,0,0,0,.58.49,1.7,1.7,0,0,0,.79.18,1.72,1.72,0,0,0,.79-.18,1.68,1.68,0,0,0,.58-.49,2.24,2.24,0,0,0,.36-.74A3.41,3.41,0,0,0,438.36,399.86Z"/><path class="cls-37" d="M442.91,394.06v9.08h-1.45v-9.08Z"/><path class="cls-37" d="M451.17,399.86a4.09,4.09,0,0,1-.23,1.38,3.1,3.1,0,0,1-.68,1.11,3,3,0,0,1-1,.73,3.49,3.49,0,0,1-1.36.25,3.12,3.12,0,0,1-2.38-1,3.94,3.94,0,0,1,0-5,3.1,3.1,0,0,1,2.39-1,3.15,3.15,0,0,1,2.4,1A3.54,3.54,0,0,1,451.17,399.86Zm-1.45,0a3.59,3.59,0,0,0-.11-.92,2.21,2.21,0,0,0-.35-.75,1.68,1.68,0,0,0-.58-.5,1.75,1.75,0,0,0-.83-.18,1.71,1.71,0,0,0-.77.17,1.62,1.62,0,0,0-.57.48,2.23,2.23,0,0,0-.36.74,3.79,3.79,0,0,0,0,1.9,2.19,2.19,0,0,0,.35.74,1.67,1.67,0,0,0,.58.49,1.7,1.7,0,0,0,.79.18,1.72,1.72,0,0,0,.79-.18,1.68,1.68,0,0,0,.58-.49,2.24,2.24,0,0,0,.36-.74A3.41,3.41,0,0,0,449.72,399.86Z"/><path class="cls-37" d="M452.78,403.14v-6.57h1.37v1.34h0a2.4,2.4,0,0,1,.87-1.08,2.23,2.23,0,0,1,1.29-.39h.41v1.36h-.53a1.84,1.84,0,0,0-1.48.6,2.36,2.36,0,0,0-.51,1.57v3.18Z"/><path class="cls-37" d="M867.79,425.66l.34-2.48h-1.35l-.35,2.48h-1l.35-2.48h-1.11v-.88h1.23l.23-1.63H865v-.88h1.23l.35-2.48h1l-.35,2.48h1.35l.34-2.48h1l-.35,2.48h1v.88h-1.14l-.23,1.63h1v.88h-1.15l-.35,2.48Zm.69-5h-1.34l-.23,1.63h1.35Z"/><path class="cls-37" d="M875,416.93a3,3,0,0,1,2,.7,2.22,2.22,0,0,1,.6.83,2.77,2.77,0,0,1,.19,1.06,2.82,2.82,0,0,1-.46,1.55,5.83,5.83,0,0,1-1.78,1.54,8.9,8.9,0,0,0-.85.57,6.92,6.92,0,0,0-.58.47,2.8,2.8,0,0,0-.62.81h4.33v1.21h-6.08a3.35,3.35,0,0,1,.39-1.59,3.73,3.73,0,0,1,.51-.69,5.59,5.59,0,0,1,.74-.66l1-.71,1.12-.83a2.7,2.7,0,0,0,.71-.75,1.61,1.61,0,0,0,.23-.83,1.68,1.68,0,0,0-.1-.59,1.33,1.33,0,0,0-.31-.48,1.44,1.44,0,0,0-.47-.3,1.77,1.77,0,0,0-1.31,0,1.46,1.46,0,0,0-.5.38,1.58,1.58,0,0,0-.29.53,2,2,0,0,0-.1.61v.15H872v-.15a3.14,3.14,0,0,1,.21-1.15,2.54,2.54,0,0,1,.59-.9,2.71,2.71,0,0,1,.94-.59A3.45,3.45,0,0,1,875,416.93Z"/><path class="cls-37" d="M882.16,416.92a2.66,2.66,0,0,1,2.32,1.13,5.72,5.72,0,0,1,.79,3.3,5.83,5.83,0,0,1-.79,3.35,2.92,2.92,0,0,1-4.62,0,5.81,5.81,0,0,1-.79-3.35,5.74,5.74,0,0,1,.79-3.31A2.64,2.64,0,0,1,882.16,416.92Zm-1.7,4.44a10.28,10.28,0,0,0,.07,1.25,4.18,4.18,0,0,0,.26,1.06,1.83,1.83,0,0,0,.52.74,1.28,1.28,0,0,0,.85.28,1.31,1.31,0,0,0,1.08-.51,2.12,2.12,0,0,0,.31-.56,4.17,4.17,0,0,0,.2-.69,6.32,6.32,0,0,0,.1-.77q0-.4,0-.8a9.64,9.64,0,0,0-.08-1.27,3.8,3.8,0,0,0-.28-1,1.82,1.82,0,0,0-.53-.71,1.32,1.32,0,0,0-.84-.26,1.29,1.29,0,0,0-.6.13,1.39,1.39,0,0,0-.45.37,2,2,0,0,0-.31.55,4.32,4.32,0,0,0-.19.68,6.51,6.51,0,0,0-.11.76q0,.39,0,.75Z"/><path class="cls-37" d="M889.7,416.93a3.18,3.18,0,0,1,1,.14,2.5,2.5,0,0,1,.79.41,2.29,2.29,0,0,1,.57.65,2.45,2.45,0,0,1,.3.86H891a1.57,1.57,0,0,0-.17-.4,1.14,1.14,0,0,0-.28-.31,1.26,1.26,0,0,0-.39-.21,1.63,1.63,0,0,0-.51-.07,1.45,1.45,0,0,0-.88.26,2,2,0,0,0-.58.69,3.5,3.5,0,0,0-.33,1,6.72,6.72,0,0,0-.12,1.13h0a2,2,0,0,1,1.58-1,2.45,2.45,0,0,1,1.36.11,2.41,2.41,0,0,1,1.36,1,2.77,2.77,0,0,1,.49,1.62,3,3,0,0,1-.85,2.2,2.83,2.83,0,0,1-2.13.87,3.22,3.22,0,0,1-1.42-.29,2.58,2.58,0,0,1-1-.86,4.1,4.1,0,0,1-.59-1.39,8.46,8.46,0,0,1-.2-1.94,7.75,7.75,0,0,1,.07-1,5.85,5.85,0,0,1,.23-1,4.47,4.47,0,0,1,.42-.92,3.09,3.09,0,0,1,.63-.75,2.77,2.77,0,0,1,.86-.5A3.19,3.19,0,0,1,889.7,416.93Zm-1.8,5.94a1.9,1.9,0,0,0,.45,1.31,1.53,1.53,0,0,0,1.21.52,1.43,1.43,0,0,0,1.14-.53,1.9,1.9,0,0,0,.45-1.27,2.05,2.05,0,0,0-.43-1.32,1.42,1.42,0,0,0-1.17-.54,1.55,1.55,0,0,0-1.2.51,2,2,0,0,0-.45,1.31Z"/><path class="cls-37" d="M896.7,416.93a3.64,3.64,0,0,1,1,.15,2.72,2.72,0,0,1,.88.44,2.18,2.18,0,0,1,.62.72,2.1,2.1,0,0,1,.23,1,2.16,2.16,0,0,1-.08.62,1.83,1.83,0,0,1-.25.52,1.63,1.63,0,0,1-.4.41,1.88,1.88,0,0,1-.56.27h0a1.93,1.93,0,0,1,1.2.71,2.07,2.07,0,0,1,.42,1.3,2.5,2.5,0,0,1-.89,2,3.31,3.31,0,0,1-2.23.76,3.84,3.84,0,0,1-1.17-.18,2.94,2.94,0,0,1-1-.52,2.49,2.49,0,0,1-.67-.84,2.55,2.55,0,0,1-.25-1.14V423h1.34v.13a1.45,1.45,0,0,0,.49,1.11,1.58,1.58,0,0,0,.52.3,1.91,1.91,0,0,0,.64.11,1.81,1.81,0,0,0,1.28-.44,1.45,1.45,0,0,0,.47-1.11,1.34,1.34,0,0,0-.45-1.09,2.2,2.2,0,0,0-1.46-.39H896v-1h.43a1.86,1.86,0,0,0,1.2-.35,1.1,1.1,0,0,0,.4-.9,1.39,1.39,0,0,0-.11-.58,1.12,1.12,0,0,0-.31-.41,1.34,1.34,0,0,0-.46-.24,2,2,0,0,0-.57-.08,1.7,1.7,0,0,0-.6.1,1.41,1.41,0,0,0-.48.3,1.44,1.44,0,0,0-.33.47,1.62,1.62,0,0,0-.13.64h-1.34a2.81,2.81,0,0,1,.23-1,2.55,2.55,0,0,1,.59-.84,2.75,2.75,0,0,1,.91-.56A3.27,3.27,0,0,1,896.7,416.93Z"/><path class="cls-37" d="M903.72,425.84a3.21,3.21,0,0,1-1-.14,2.49,2.49,0,0,1-.79-.41,2.29,2.29,0,0,1-.57-.65,2.45,2.45,0,0,1-.3-.86h1.34a1.6,1.6,0,0,0,.17.39,1.14,1.14,0,0,0,.28.31,1.3,1.3,0,0,0,.39.21,1.55,1.55,0,0,0,.5.08,1.46,1.46,0,0,0,.88-.26,2,2,0,0,0,.59-.69,3.5,3.5,0,0,0,.33-1,6.78,6.78,0,0,0,.12-1.13h0a2.16,2.16,0,0,1-.67.68,2.21,2.21,0,0,1-.9.3,2.48,2.48,0,0,1-1.37-.11,2.34,2.34,0,0,1-1.35-1,2.76,2.76,0,0,1-.49-1.62,3,3,0,0,1,.85-2.2,2.84,2.84,0,0,1,2.13-.87,3.25,3.25,0,0,1,1.42.29,2.51,2.51,0,0,1,1,.86,5.88,5.88,0,0,1,.79,3.34,7.75,7.75,0,0,1-.07,1,5.85,5.85,0,0,1-.23,1,4.56,4.56,0,0,1-.42.92,3,3,0,0,1-.62.75,2.77,2.77,0,0,1-.86.5A3.19,3.19,0,0,1,903.72,425.84Zm1.8-5.94a1.88,1.88,0,0,0-.45-1.3,1.53,1.53,0,0,0-1.22-.52,1.41,1.41,0,0,0-1.13.53,1.9,1.9,0,0,0-.45,1.27,2,2,0,0,0,.43,1.32,1.43,1.43,0,0,0,1.17.54,1.55,1.55,0,0,0,1.2-.52,2,2,0,0,0,.45-1.32Z"/><path class="cls-37" d="M914.11,417.09v1.21a8.83,8.83,0,0,0-1.24,1.49,10.33,10.33,0,0,0-1,1.83,12,12,0,0,0-.87,4h-1.49a11.75,11.75,0,0,1,.93-3.82,13.7,13.7,0,0,1,2.2-3.45h-4.32v-1.29Z"/><path class="cls-37" d="M420.76,425.66l.34-2.48h-1.35l-.35,2.48h-1l.35-2.48h-1.11v-.88h1.23l.23-1.63H418v-.88h1.23l.35-2.48h1l-.35,2.48h1.35l.34-2.48h1l-.35,2.48h1v.88h-1.14l-.23,1.63h1v.88H422l-.35,2.48Zm.69-5h-1.34l-.23,1.63h1.35Z"/><path class="cls-37" d="M427.87,416.92a2.66,2.66,0,0,1,2.32,1.13,5.72,5.72,0,0,1,.79,3.3,5.83,5.83,0,0,1-.79,3.35,2.92,2.92,0,0,1-4.62,0,5.81,5.81,0,0,1-.79-3.35,5.74,5.74,0,0,1,.79-3.31A2.64,2.64,0,0,1,427.87,416.92Zm-1.7,4.44a10.28,10.28,0,0,0,.07,1.25,4.18,4.18,0,0,0,.26,1.06,1.83,1.83,0,0,0,.52.74,1.28,1.28,0,0,0,.85.28,1.31,1.31,0,0,0,1.08-.51,2.12,2.12,0,0,0,.31-.56,4.17,4.17,0,0,0,.2-.69,6.33,6.33,0,0,0,.1-.77q0-.4,0-.8a9.63,9.63,0,0,0-.08-1.27,3.8,3.8,0,0,0-.28-1,1.82,1.82,0,0,0-.53-.71,1.32,1.32,0,0,0-.84-.26,1.29,1.29,0,0,0-.6.13,1.39,1.39,0,0,0-.45.37,2,2,0,0,0-.31.55,4.32,4.32,0,0,0-.19.68,6.52,6.52,0,0,0-.11.76v.75Z"/><path class="cls-37" d="M438.17,425.66l-.74-2.18h-3.55l-.75,2.18H431.6l3.08-8.55h2l3,8.55Zm-2.48-7.45h0l-1.41,4.13H437Z"/><path class="cls-37" d="M446.46,425.66l-.74-2.18h-3.55l-.75,2.18h-1.53L443,417.1h2l3,8.55ZM444,418.21h0l-1.41,4.13h2.79Z"/><path class="cls-37" d="M455.35,417.1v1.27h-4.72v2.28H455v1.19h-4.37v2.56h4.8v1.26h-6.3V417.1Z"/><path class="cls-37" d="M462.73,417.09v1.27h-4.31v2.38h3.77v1.19h-3.77v3.73h-1.5v-8.57Z"/><path class="cls-37" d="M469.85,417.09v1.27h-4.31v2.38h3.77v1.19h-3.77v3.73H464v-8.57Z"/><path class="cls-43" d="M691.58,99.78a3.81,3.81,0,0,1,2.85,1.08A4.36,4.36,0,0,1,695.5,104a4.48,4.48,0,0,1-1,3.21,3.71,3.71,0,0,1-2.82,1.11h-3.46V99.78Zm-.17,7.3a2.49,2.49,0,0,0,1.89-.71,3.14,3.14,0,0,0,.69-2.23,3.35,3.35,0,0,0-.69-2.36,2.81,2.81,0,0,0-2.14-.73h-1.51v6Z"/><path class="cls-43" d="M699.86,101.59a3,3,0,0,1,1.34.28,2.78,2.78,0,0,1,1,.77,3.33,3.33,0,0,1,.58,1.13,4.76,4.76,0,0,1,.19,1.37v.26h-4.85a2.77,2.77,0,0,0,.13.81,1.9,1.9,0,0,0,.35.63,1.55,1.55,0,0,0,.54.41,1.7,1.7,0,0,0,.72.15,1.9,1.9,0,0,0,1-.23,1.7,1.7,0,0,0,.61-.6h1.37a3.06,3.06,0,0,1-.45.81,2.83,2.83,0,0,1-.66.62,3,3,0,0,1-.85.39,3.66,3.66,0,0,1-1,.13,3.28,3.28,0,0,1-1.33-.26,2.82,2.82,0,0,1-1-.72,3.18,3.18,0,0,1-.62-1.1,4.31,4.31,0,0,1-.22-1.4,4,4,0,0,1,.22-1.33,3.3,3.3,0,0,1,.63-1.1,3,3,0,0,1,1-.76A3.16,3.16,0,0,1,699.86,101.59Zm1.63,2.85a2.77,2.77,0,0,0-.16-.71,1.73,1.73,0,0,0-.33-.55,1.43,1.43,0,0,0-.5-.35,1.91,1.91,0,0,0-1.37,0,1.51,1.51,0,0,0-.52.36,1.79,1.79,0,0,0-.35.55,2.54,2.54,0,0,0-.17.7Z"/><path class="cls-43" d="M706.38,102.79v5.55h-1.45v-5.55h-1.28v-1h1.28v-.51a2,2,0,0,1,.52-1.52,1.64,1.64,0,0,1,.63-.36,3,3,0,0,1,.9-.12h1v1.11h-.72a.86.86,0,0,0-.65.2,1,1,0,0,0-.18.68v.51h1.44v1Z"/><path class="cls-43" d="M715.11,108.34l-.44.09h-.39a1.79,1.79,0,0,1-.42,0,.91.91,0,0,1-.34-.16.84.84,0,0,1-.24-.29,1.28,1.28,0,0,1-.12-.45h0a2.67,2.67,0,0,1-.45.46,2.3,2.3,0,0,1-.52.31,3.32,3.32,0,0,1-1.31.24,2.42,2.42,0,0,1-1.62-.51,1.77,1.77,0,0,1-.6-1.45,1.7,1.7,0,0,1,.6-1.42,2.11,2.11,0,0,1,.58-.32,4.69,4.69,0,0,1,.73-.2q.39-.08.82-.13l.87-.1.34-.07a.8.8,0,0,0,.27-.13A.59.59,0,0,0,713,104a.79.79,0,0,0,.06-.33,1,1,0,0,0-.31-.79,2.11,2.11,0,0,0-2,0,1,1,0,0,0-.39.73h-1.45a1.9,1.9,0,0,1,.9-1.52,2.88,2.88,0,0,1,.9-.36,5.08,5.08,0,0,1,1.13-.12,3.42,3.42,0,0,1,2,.5,1.65,1.65,0,0,1,.67,1.41V107a.47.47,0,0,0,.08.3.33.33,0,0,0,.27.1h.32Zm-2-3.35h0a1,1,0,0,1-.54.23l-.48.08-.65.11a2.2,2.2,0,0,0-1,.37.87.87,0,0,0-.32.72.89.89,0,0,0,.37.76,1.48,1.48,0,0,0,.87.24,1.79,1.79,0,0,0,1.27-.43,1.59,1.59,0,0,0,.49-1.24Z"/><path class="cls-43" d="M721,108.34v-1h0a2.25,2.25,0,0,1-.39.52,2.3,2.3,0,0,1-.5.37,2.49,2.49,0,0,1-.58.23,2.54,2.54,0,0,1-.64.08,2.3,2.3,0,0,1-1.78-.63,2.81,2.81,0,0,1-.57-2v-4.19H718v4a2.89,2.89,0,0,0,.08.7,1.37,1.37,0,0,0,.24.52,1,1,0,0,0,.42.32,1.82,1.82,0,0,0,1.36,0,1.37,1.37,0,0,0,.5-.43,1.86,1.86,0,0,0,.29-.66,3.72,3.72,0,0,0,.09-.85v-3.5h1.44v6.57Z"/><path class="cls-43" d="M725.73,99.26v9.08h-1.45V99.26Z"/><path class="cls-43" d="M731,108.39h-.83a4.59,4.59,0,0,1-.74-.06,1.58,1.58,0,0,1-.6-.22,1.12,1.12,0,0,1-.4-.45,1.67,1.67,0,0,1-.15-.76v-4.15H727v-1h1.29v-2h1.45v2h1.5v1h-1.5v3.72a.83.83,0,0,0,.17.58.8.8,0,0,0,.59.18h.68v1.14Z"/><path class="cls-43" d="M739.34,108.39h-.83a4.59,4.59,0,0,1-.74-.06,1.58,1.58,0,0,1-.6-.22,1.12,1.12,0,0,1-.4-.45,1.67,1.67,0,0,1-.15-.76v-4.15h-1.29v-1h1.29v-2h1.45v2h1.5v1h-1.5v3.72a.83.83,0,0,0,.17.58.8.8,0,0,0,.59.18h.74v1.14Z"/><path class="cls-43" d="M743.73,101.59a3,3,0,0,1,1.34.28,2.78,2.78,0,0,1,1,.77,3.33,3.33,0,0,1,.58,1.13,4.76,4.76,0,0,1,.19,1.37v.26H742a2.77,2.77,0,0,0,.13.81,1.9,1.9,0,0,0,.35.63,1.55,1.55,0,0,0,.54.41,1.7,1.7,0,0,0,.72.15,1.9,1.9,0,0,0,1-.23,1.7,1.7,0,0,0,.61-.6h1.37a3.06,3.06,0,0,1-.45.81,2.83,2.83,0,0,1-.66.62,3,3,0,0,1-.85.39,3.66,3.66,0,0,1-1,.13,3.28,3.28,0,0,1-1.33-.26,2.82,2.82,0,0,1-1-.72,3.18,3.18,0,0,1-.62-1.1,4.31,4.31,0,0,1-.22-1.4,4,4,0,0,1,.22-1.33,3.3,3.3,0,0,1,.63-1.1,3,3,0,0,1,1-.76A3.16,3.16,0,0,1,743.73,101.59Zm1.63,2.85a2.77,2.77,0,0,0-.16-.71,1.73,1.73,0,0,0-.33-.55,1.43,1.43,0,0,0-.5-.35,1.91,1.91,0,0,0-1.37,0,1.51,1.51,0,0,0-.52.36,1.79,1.79,0,0,0-.35.55,2.54,2.54,0,0,0-.17.7Z"/><path class="cls-43" d="M749.17,101.77l1.41,2,1.39-2h1.64l-2.23,3.11,2.47,3.47h-1.69L750.55,106l-1.61,2.32h-1.66l2.43-3.44-2.23-3.13Z"/><path class="cls-43" d="M758.21,108.39h-.83a4.59,4.59,0,0,1-.74-.06,1.58,1.58,0,0,1-.6-.22,1.12,1.12,0,0,1-.4-.45,1.67,1.67,0,0,1-.15-.76v-4.15H754.2v-1h1.29v-2h1.45v2h1.5v1h-1.5v3.72a.83.83,0,0,0,.17.58.8.8,0,0,0,.59.18h.74v1.14Z"/><path class="cls-43" d="M696.93,119.46a4.09,4.09,0,0,1-.23,1.38A3.1,3.1,0,0,1,696,122a3,3,0,0,1-1,.73,3.49,3.49,0,0,1-1.36.25,3.12,3.12,0,0,1-2.38-1,3.94,3.94,0,0,1,0-5,3.1,3.1,0,0,1,2.39-1,3.15,3.15,0,0,1,2.4,1A3.54,3.54,0,0,1,696.93,119.46Zm-1.45,0a3.59,3.59,0,0,0-.11-.92,2.21,2.21,0,0,0-.35-.75,1.68,1.68,0,0,0-.58-.5,1.75,1.75,0,0,0-.83-.18,1.71,1.71,0,0,0-.77.17,1.62,1.62,0,0,0-.57.48,2.23,2.23,0,0,0-.36.74,3.79,3.79,0,0,0,0,1.9,2.19,2.19,0,0,0,.35.74,1.67,1.67,0,0,0,.58.49,1.7,1.7,0,0,0,.79.18,1.72,1.72,0,0,0,.79-.18,1.68,1.68,0,0,0,.58-.49,2.24,2.24,0,0,0,.36-.74A3.41,3.41,0,0,0,695.48,119.46Z"/><path class="cls-43" d="M702,116a3.25,3.25,0,0,1,1.1.16,1.8,1.8,0,0,1,.74.49,2,2,0,0,1,.42.81,4.28,4.28,0,0,1,.13,1.12v4.17H703v-3.9a2.11,2.11,0,0,0-.32-1.27,1.19,1.19,0,0,0-1-.43,1.48,1.48,0,0,0-1.23.52,2.28,2.28,0,0,0-.41,1.45v3.63H698.6v-6.57H700v1h0a2.14,2.14,0,0,1,.37-.5,2.24,2.24,0,0,1,.48-.37,2.34,2.34,0,0,1,.57-.23A2.51,2.51,0,0,1,702,116Z"/><path class="cls-43" d="M715.94,113.66v9.08h-1.37v-1h0a2.07,2.07,0,0,1-.37.5,2.16,2.16,0,0,1-.49.37,2.44,2.44,0,0,1-.59.23,2.79,2.79,0,0,1-.67.08,2.72,2.72,0,0,1-1.28-.29,2.76,2.76,0,0,1-.92-.77,3.38,3.38,0,0,1-.56-1.12,4.69,4.69,0,0,1-.19-1.33,4.52,4.52,0,0,1,.18-1.26,3.34,3.34,0,0,1,.54-1.1,2.75,2.75,0,0,1,.91-.77,2.91,2.91,0,0,1,1.92-.22,2.49,2.49,0,0,1,.58.21,2.07,2.07,0,0,1,.49.35,2,2,0,0,1,.37.5h0v-3.47Zm-5,5.79a3.63,3.63,0,0,0,.1.82,2.44,2.44,0,0,0,.31.76,1.81,1.81,0,0,0,.56.56,1.5,1.5,0,0,0,.83.22,1.73,1.73,0,0,0,.79-.17,1.58,1.58,0,0,0,.57-.49,2.25,2.25,0,0,0,.35-.75,3.68,3.68,0,0,0,.12-1,3.73,3.73,0,0,0-.1-.84,2.3,2.3,0,0,0-.31-.75,1.72,1.72,0,0,0-.57-.54,1.64,1.64,0,0,0-.85-.21,1.56,1.56,0,0,0-.82.2,1.7,1.7,0,0,0-.55.53,2.35,2.35,0,0,0-.32.75,3.93,3.93,0,0,0-.13.91Z"/><path class="cls-43" d="M724,122.74l-.44.09h-.39a1.79,1.79,0,0,1-.42,0,.91.91,0,0,1-.34-.16.84.84,0,0,1-.24-.29,1.28,1.28,0,0,1-.12-.45h0a2.67,2.67,0,0,1-.45.46,2.3,2.3,0,0,1-.52.31,3.32,3.32,0,0,1-1.31.24,2.42,2.42,0,0,1-1.62-.51,1.77,1.77,0,0,1-.6-1.45,1.7,1.7,0,0,1,.6-1.42,2.11,2.11,0,0,1,.58-.32,4.69,4.69,0,0,1,.73-.2q.39-.08.82-.13l.87-.1.34-.07a.8.8,0,0,0,.27-.13.59.59,0,0,0,.17-.22.79.79,0,0,0,.06-.33,1,1,0,0,0-.31-.79,2.11,2.11,0,0,0-2,0,1,1,0,0,0-.39.73h-1.45a1.9,1.9,0,0,1,.9-1.52,2.88,2.88,0,0,1,.9-.36,5.08,5.08,0,0,1,1.13-.12,3.42,3.42,0,0,1,2,.5,1.65,1.65,0,0,1,.67,1.41v3.54a.47.47,0,0,0,.08.3.33.33,0,0,0,.27.1H724Zm-2-3.35h0a1,1,0,0,1-.54.23l-.48.08-.65.11a2.2,2.2,0,0,0-1,.37.87.87,0,0,0-.32.72.89.89,0,0,0,.37.76,1.48,1.48,0,0,0,.87.24,1.79,1.79,0,0,0,1.27-.43,1.59,1.59,0,0,0,.49-1.24Z"/><path class="cls-43" d="M725.34,122.74v-6.57h1.37v1.34h0a2.4,2.4,0,0,1,.87-1.08,2.23,2.23,0,0,1,1.29-.39h.41v1.36h-.53a1.84,1.84,0,0,0-1.48.6,2.36,2.36,0,0,0-.51,1.57v3.18Z"/><path class="cls-43" d="M732,113.66v5.17l2.77-2.66h1.75l-2.6,2.42,2.84,4.15H735l-2.09-3.16-.91.81v2.35h-1.45v-9.08Z"/><path class="cls-43" d="M747.69,119.46a4.85,4.85,0,0,1-.17,1.28,3.47,3.47,0,0,1-.52,1.11,2.65,2.65,0,0,1-.88.79,2.51,2.51,0,0,1-1.25.3,2.93,2.93,0,0,1-1.36-.3,1.9,1.9,0,0,1-.86-.87h0v1h-1.37v-9.08h1.44v3.47h0a1.88,1.88,0,0,1,.36-.47,2.16,2.16,0,0,1,.5-.36,2.68,2.68,0,0,1,.61-.23,2.85,2.85,0,0,1,.68-.08,2.52,2.52,0,0,1,1.24.29,2.66,2.66,0,0,1,.88.78,3.4,3.4,0,0,1,.52,1.11A4.87,4.87,0,0,1,747.69,119.46Zm-1.45,0a3.74,3.74,0,0,0-.09-.82,2.52,2.52,0,0,0-.3-.76,1.71,1.71,0,0,0-.54-.56,1.5,1.5,0,0,0-.83-.22,1.57,1.57,0,0,0-.82.21,1.71,1.71,0,0,0-.56.54,2.39,2.39,0,0,0-.32.75,3.63,3.63,0,0,0-.1.86,3.68,3.68,0,0,0,.1.83,2.37,2.37,0,0,0,.31.76,1.76,1.76,0,0,0,.56.55,1.57,1.57,0,0,0,.84.21,1.49,1.49,0,0,0,.8-.21,1.69,1.69,0,0,0,.54-.54,2.43,2.43,0,0,0,.31-.75A3.94,3.94,0,0,0,746.24,119.46Z"/><path class="cls-43" d="M751.9,116a2.35,2.35,0,0,1,1.2.3,2.12,2.12,0,0,1,.81.85h0v-1h1.39v6.17a3.42,3.42,0,0,1-.23,1.31,2.39,2.39,0,0,1-.65.92,2.71,2.71,0,0,1-1,.54,4.81,4.81,0,0,1-1.35.18,4.46,4.46,0,0,1-1-.11,2.93,2.93,0,0,1-.86-.33,2.12,2.12,0,0,1-.65-.59,1.76,1.76,0,0,1-.31-.86h1.44a1,1,0,0,0,.49.66,2,2,0,0,0,1,.22,1.64,1.64,0,0,0,1.28-.49,2,2,0,0,0,.44-1.4v-1h0a2,2,0,0,1-.82.84,2.47,2.47,0,0,1-1.22.3,2.92,2.92,0,0,1-1.26-.25,2.46,2.46,0,0,1-.88-.69,3,3,0,0,1-.52-1,4.7,4.7,0,0,1-.17-1.3,4.06,4.06,0,0,1,.18-1.22,3.1,3.1,0,0,1,.54-1,2.67,2.67,0,0,1,.9-.72A2.76,2.76,0,0,1,751.9,116Zm-1.42,3.25a3.41,3.41,0,0,0,.11.87,2,2,0,0,0,.32.68,1.48,1.48,0,0,0,.53.44,1.65,1.65,0,0,0,.74.16,1.58,1.58,0,0,0,.75-.17,1.71,1.71,0,0,0,.55-.46,2,2,0,0,0,.34-.66,2.63,2.63,0,0,0,.11-.78,3.51,3.51,0,0,0-.11-.88,2.07,2.07,0,0,0-.32-.71,1.53,1.53,0,0,0-.55-.47,1.68,1.68,0,0,0-.78-.17,1.57,1.57,0,0,0-.77.18,1.53,1.53,0,0,0-.53.48,2.15,2.15,0,0,0-.3.69,3.18,3.18,0,0,0-.1.8Z"/><path class="cls-43" d="M700.44,147.66l.34-2.48h-1.35l-.35,2.48h-1l.35-2.48h-1.11v-.88h1.23l.23-1.63h-1.11v-.88h1.23l.35-2.48h1l-.35,2.48h1.35l.34-2.48h1l-.35,2.48h1v.88H702.1l-.23,1.63h1v.88h-1.15l-.35,2.48Zm.69-5h-1.34l-.23,1.63h1.35Z"/><path class="cls-43" d="M708.38,139.09a3.81,3.81,0,0,1,2.85,1.08,4.36,4.36,0,0,1,1.07,3.17,4.48,4.48,0,0,1-1,3.21,3.71,3.71,0,0,1-2.82,1.11H705v-8.57Zm-.17,7.3a2.49,2.49,0,0,0,1.89-.71,3.14,3.14,0,0,0,.69-2.23,3.35,3.35,0,0,0-.69-2.36,2.81,2.81,0,0,0-2.14-.73h-1.51v6Z"/><path class="cls-43" d="M716.62,138.93a3,3,0,0,1,2,.7,2.22,2.22,0,0,1,.6.83,2.77,2.77,0,0,1,.19,1.06,2.82,2.82,0,0,1-.46,1.55,5.83,5.83,0,0,1-1.78,1.54,8.9,8.9,0,0,0-.85.57,6.92,6.92,0,0,0-.58.47,2.8,2.8,0,0,0-.62.81h4.33v1.21h-6.08a3.35,3.35,0,0,1,.39-1.59,3.73,3.73,0,0,1,.51-.69,5.59,5.59,0,0,1,.74-.66l1-.73,1.12-.83a2.7,2.7,0,0,0,.71-.75,1.61,1.61,0,0,0,.23-.83,1.68,1.68,0,0,0-.1-.59,1.33,1.33,0,0,0-.31-.48,1.44,1.44,0,0,0-.47-.3,1.77,1.77,0,0,0-1.31,0,1.46,1.46,0,0,0-.5.38,1.58,1.58,0,0,0-.29.53,2,2,0,0,0-.1.61v.15h-1.34v-.15a3.14,3.14,0,0,1,.21-1.15,2.54,2.54,0,0,1,.59-.9,2.71,2.71,0,0,1,.94-.59A3.45,3.45,0,0,1,716.62,138.93Z"/><path class="cls-43" d="M724.59,139.09a3.81,3.81,0,0,1,2.85,1.08,4.36,4.36,0,0,1,1.07,3.17,4.48,4.48,0,0,1-1,3.21,3.71,3.71,0,0,1-2.82,1.11h-3.46v-8.57Zm-.17,7.3a2.49,2.49,0,0,0,1.89-.71,3.14,3.14,0,0,0,.69-2.23,3.35,3.35,0,0,0-.69-2.36,2.81,2.81,0,0,0-2.14-.73h-1.51v6Z"/><path class="cls-43" d="M732.84,138.93a3,3,0,0,1,2,.7,2.22,2.22,0,0,1,.6.83,2.77,2.77,0,0,1,.19,1.06,2.82,2.82,0,0,1-.46,1.55,5.83,5.83,0,0,1-1.78,1.54,8.9,8.9,0,0,0-.85.57,6.92,6.92,0,0,0-.58.47,2.8,2.8,0,0,0-.62.81h4.33v1.21h-6.08a3.35,3.35,0,0,1,.39-1.59,3.73,3.73,0,0,1,.51-.69,5.59,5.59,0,0,1,.74-.66l1-.71,1.12-.83a2.7,2.7,0,0,0,.71-.75,1.61,1.61,0,0,0,.23-.83,1.68,1.68,0,0,0-.1-.59,1.33,1.33,0,0,0-.31-.48,1.44,1.44,0,0,0-.47-.3,1.77,1.77,0,0,0-1.31,0,1.46,1.46,0,0,0-.5.38,1.58,1.58,0,0,0-.29.53,2,2,0,0,0-.1.61v.15h-1.34v-.15a3.14,3.14,0,0,1,.21-1.15,2.54,2.54,0,0,1,.59-.9,2.71,2.71,0,0,1,.94-.59A3.45,3.45,0,0,1,732.84,138.93Z"/><path class="cls-43" d="M740.8,139.09a3.81,3.81,0,0,1,2.85,1.08,4.36,4.36,0,0,1,1.07,3.17,4.48,4.48,0,0,1-1,3.21,3.71,3.71,0,0,1-2.82,1.11h-3.46v-8.57Zm-.17,7.3a2.49,2.49,0,0,0,1.89-.71,3.14,3.14,0,0,0,.69-2.23,3.35,3.35,0,0,0-.69-2.36,2.81,2.81,0,0,0-2.14-.73h-1.51v6Z"/><path class="cls-43" d="M749,138.93a3,3,0,0,1,2,.7,2.22,2.22,0,0,1,.6.83,2.77,2.77,0,0,1,.19,1.06,2.82,2.82,0,0,1-.46,1.55,5.83,5.83,0,0,1-1.78,1.54,8.9,8.9,0,0,0-.85.57,6.92,6.92,0,0,0-.58.47,2.8,2.8,0,0,0-.62.81h4.33v1.21h-6.08a3.35,3.35,0,0,1,.39-1.59,3.73,3.73,0,0,1,.51-.69,5.59,5.59,0,0,1,.74-.66l1-.71,1.12-.83a2.7,2.7,0,0,0,.71-.75,1.61,1.61,0,0,0,.23-.83,1.68,1.68,0,0,0-.1-.59,1.33,1.33,0,0,0-.31-.48,1.44,1.44,0,0,0-.47-.3,1.77,1.77,0,0,0-1.31,0,1.46,1.46,0,0,0-.5.38,1.58,1.58,0,0,0-.29.53,2,2,0,0,0-.1.61v.15H746v-.15a3.14,3.14,0,0,1,.21-1.15,2.54,2.54,0,0,1,.59-.9,2.71,2.71,0,0,1,.94-.59A3.45,3.45,0,0,1,749,138.93Z"/><path class="cls-37" d="M280.34,286.66l.34-2.48h-1.35l-.35,2.48h-1l.35-2.48h-1.11v-.88h1.23l.23-1.63h-1.11v-.88h1.23l.35-2.48h1l-.35,2.48h1.35l.34-2.48h1l-.35,2.48h1v.88H282l-.23,1.63h1v.88h-1.15l-.35,2.48Zm.69-5h-1.34l-.23,1.63h1.35Z"/><path class="cls-37" d="M287.46,277.93a3.64,3.64,0,0,1,1,.15,2.72,2.72,0,0,1,.88.44,2.18,2.18,0,0,1,.62.72,2.1,2.1,0,0,1,.23,1,2.16,2.16,0,0,1-.08.62,1.83,1.83,0,0,1-.25.52,1.63,1.63,0,0,1-.4.41,1.88,1.88,0,0,1-.56.27h0a1.93,1.93,0,0,1,1.2.71,2.07,2.07,0,0,1,.42,1.3,2.5,2.5,0,0,1-.89,2,3.31,3.31,0,0,1-2.23.76,3.84,3.84,0,0,1-1.17-.18,2.94,2.94,0,0,1-1-.52,2.49,2.49,0,0,1-.67-.84,2.55,2.55,0,0,1-.25-1.14V284h1.34v.13a1.45,1.45,0,0,0,.49,1.11,1.58,1.58,0,0,0,.52.3,1.91,1.91,0,0,0,.64.11,1.81,1.81,0,0,0,1.28-.44,1.45,1.45,0,0,0,.47-1.11,1.34,1.34,0,0,0-.45-1.09,2.2,2.2,0,0,0-1.46-.39h-.35v-1h.43a1.86,1.86,0,0,0,1.2-.35,1.1,1.1,0,0,0,.4-.9,1.39,1.39,0,0,0-.11-.58,1.12,1.12,0,0,0-.31-.41,1.34,1.34,0,0,0-.46-.24,2,2,0,0,0-.57-.08,1.7,1.7,0,0,0-.6.1,1.41,1.41,0,0,0-.48.3,1.44,1.44,0,0,0-.33.47,1.62,1.62,0,0,0-.13.64h-1.34a2.81,2.81,0,0,1,.23-1,2.55,2.55,0,0,1,.59-.84,2.75,2.75,0,0,1,.91-.56A3.27,3.27,0,0,1,287.46,277.93Z"/><path class="cls-37" d="M294.84,277.93a3,3,0,0,1,2,.7,2.22,2.22,0,0,1,.6.83,2.77,2.77,0,0,1,.19,1.06,2.82,2.82,0,0,1-.46,1.55,5.83,5.83,0,0,1-1.78,1.54,8.9,8.9,0,0,0-.85.57,6.92,6.92,0,0,0-.58.47,2.8,2.8,0,0,0-.62.81h4.33v1.21h-6.08a3.35,3.35,0,0,1,.39-1.59,3.73,3.73,0,0,1,.51-.69,5.59,5.59,0,0,1,.74-.66l1-.71,1.12-.83a2.7,2.7,0,0,0,.71-.75,1.61,1.61,0,0,0,.23-.83,1.68,1.68,0,0,0-.1-.59,1.33,1.33,0,0,0-.31-.48,1.44,1.44,0,0,0-.47-.3,1.77,1.77,0,0,0-1.31,0,1.46,1.46,0,0,0-.5.38,1.58,1.58,0,0,0-.29.53,2,2,0,0,0-.1.61v.15h-1.34v-.15a3.14,3.14,0,0,1,.21-1.15,2.54,2.54,0,0,1,.59-.9,2.71,2.71,0,0,1,.94-.59A3.45,3.45,0,0,1,294.84,277.93Z"/><path class="cls-37" d="M302,277.93a3.64,3.64,0,0,1,1,.15,2.72,2.72,0,0,1,.88.44,2.18,2.18,0,0,1,.62.72,2.1,2.1,0,0,1,.23,1,2.16,2.16,0,0,1-.08.62,1.83,1.83,0,0,1-.25.52,1.63,1.63,0,0,1-.4.41,1.88,1.88,0,0,1-.56.27h0a1.93,1.93,0,0,1,1.2.71,2.07,2.07,0,0,1,.42,1.3,2.5,2.5,0,0,1-.89,2,3.31,3.31,0,0,1-2.23.76,3.84,3.84,0,0,1-1.17-.18,2.94,2.94,0,0,1-1-.52,2.49,2.49,0,0,1-.67-.84,2.55,2.55,0,0,1-.25-1.14V284h1.34v.13a1.45,1.45,0,0,0,.49,1.11,1.58,1.58,0,0,0,.52.3,1.91,1.91,0,0,0,.64.11,1.81,1.81,0,0,0,1.28-.44,1.45,1.45,0,0,0,.47-1.11,1.34,1.34,0,0,0-.45-1.09,2.2,2.2,0,0,0-1.46-.39h-.35v-1h.43a1.86,1.86,0,0,0,1.2-.35,1.1,1.1,0,0,0,.4-.9,1.39,1.39,0,0,0-.11-.58,1.12,1.12,0,0,0-.31-.41,1.34,1.34,0,0,0-.46-.24,2,2,0,0,0-.57-.08,1.7,1.7,0,0,0-.6.1,1.41,1.41,0,0,0-.48.3,1.44,1.44,0,0,0-.33.47,1.62,1.62,0,0,0-.13.64H299a2.81,2.81,0,0,1,.23-1,2.55,2.55,0,0,1,.59-.84,2.75,2.75,0,0,1,.91-.56A3.27,3.27,0,0,1,302,277.93Z"/><path class="cls-37" d="M309.37,277.93a3,3,0,0,1,2,.7,2.22,2.22,0,0,1,.6.83,2.77,2.77,0,0,1,.19,1.06,2.82,2.82,0,0,1-.46,1.55,5.83,5.83,0,0,1-1.7,1.53,8.9,8.9,0,0,0-.85.57,6.92,6.92,0,0,0-.58.47,2.8,2.8,0,0,0-.62.81h4.33v1.21H306.2a3.35,3.35,0,0,1,.39-1.59,3.73,3.73,0,0,1,.51-.69,5.59,5.59,0,0,1,.74-.66l1-.71,1.12-.83a2.7,2.7,0,0,0,.71-.75,1.61,1.61,0,0,0,.23-.83,1.68,1.68,0,0,0-.1-.59,1.33,1.33,0,0,0-.31-.48,1.44,1.44,0,0,0-.47-.3,1.77,1.77,0,0,0-1.31,0,1.46,1.46,0,0,0-.5.38,1.58,1.58,0,0,0-.29.53,2,2,0,0,0-.1.61v.15h-1.34v-.15a3.14,3.14,0,0,1,.21-1.15,2.54,2.54,0,0,1,.59-.9,2.71,2.71,0,0,1,.94-.59A3.45,3.45,0,0,1,309.37,277.93Z"/><path class="cls-37" d="M316.52,277.93a3.64,3.64,0,0,1,1,.15,2.72,2.72,0,0,1,.88.44,2.18,2.18,0,0,1,.62.72,2.1,2.1,0,0,1,.23,1,2.16,2.16,0,0,1-.08.62,1.83,1.83,0,0,1-.25.52,1.63,1.63,0,0,1-.4.41,1.88,1.88,0,0,1-.56.27h0a1.93,1.93,0,0,1,1.2.71,2.07,2.07,0,0,1,.42,1.3,2.5,2.5,0,0,1-.89,2,3.31,3.31,0,0,1-2.23.76,3.84,3.84,0,0,1-1.17-.18,2.94,2.94,0,0,1-1-.52,2.49,2.49,0,0,1-.67-.84,2.55,2.55,0,0,1-.25-1.14V284h1.34v.13a1.45,1.45,0,0,0,.49,1.11,1.58,1.58,0,0,0,.52.3,1.91,1.91,0,0,0,.64.11,1.81,1.81,0,0,0,1.28-.44,1.45,1.45,0,0,0,.47-1.11,1.34,1.34,0,0,0-.45-1.09,2.2,2.2,0,0,0-1.46-.39h-.35v-1h.43a1.86,1.86,0,0,0,1.2-.35,1.1,1.1,0,0,0,.4-.9,1.39,1.39,0,0,0-.11-.58,1.12,1.12,0,0,0-.31-.41,1.34,1.34,0,0,0-.46-.24,2,2,0,0,0-.57-.08,1.7,1.7,0,0,0-.6.1,1.41,1.41,0,0,0-.48.3,1.44,1.44,0,0,0-.33.47,1.62,1.62,0,0,0-.13.64h-1.34a2.81,2.81,0,0,1,.23-1,2.55,2.55,0,0,1,.59-.84,2.75,2.75,0,0,1,.91-.56A3.27,3.27,0,0,1,316.52,277.93Z"/><path class="cls-37" d="M323.9,277.93a3,3,0,0,1,2,.7,2.22,2.22,0,0,1,.6.83,2.77,2.77,0,0,1,.19,1.06,2.82,2.82,0,0,1-.46,1.55,5.83,5.83,0,0,1-1.78,1.54,8.9,8.9,0,0,0-.85.57,6.92,6.92,0,0,0-.58.47,2.8,2.8,0,0,0-.62.81h4.33v1.21h-6.08a3.35,3.35,0,0,1,.39-1.59,3.73,3.73,0,0,1,.51-.69,5.59,5.59,0,0,1,.74-.66l1-.71,1.12-.83a2.7,2.7,0,0,0,.71-.75,1.61,1.61,0,0,0,.23-.83,1.68,1.68,0,0,0-.1-.59,1.33,1.33,0,0,0-.31-.48,1.44,1.44,0,0,0-.47-.3,1.77,1.77,0,0,0-1.31,0,1.46,1.46,0,0,0-.5.38,1.58,1.58,0,0,0-.29.53,2,2,0,0,0-.1.61v.15h-1.34v-.15a3.14,3.14,0,0,1,.21-1.15,2.54,2.54,0,0,1,.59-.9,2.71,2.71,0,0,1,.94-.59A3.45,3.45,0,0,1,323.9,277.93Z"/></g></svg>