<svg xmlns="http://www.w3.org/2000/svg" viewBox="0 0 408 408"><defs><style>.cls-1{fill:none;stroke:#004b7a;stroke-miterlimit:10;stroke-width:0.71px;}</style></defs><title>Artboard 35 copy</title><g id="HEX"><path class="cls-1" d="M205.75,155.09c-3.55-11-18.7-15.48-18.7-15.48l.65-1.29-4.52-3.87-1.28-1.29,2.57-2.58c-2.9-.64-4.19-18.06-4.19-18.06-9.67-17.08-24.17-4.19-24.17-4.19-12.9,10.64-4.84,16.12-4.84,16.12l1.94,3.54,2.25,2.58c-2.58,4.83,2.26,4.83,2.26,4.83,0,1,4.52,8.06,4.52,8.06,8.05-1,5.8,1.61,5.8,1.61l-1.94,4.84c-11,5.16-11.28,11.92-11.28,11.92-.33,3.55-7.74,26.44-7.74,26.44l-22.56.33L111.94,149l-3.55.65,10,38.35c-2.58.33-.33,8.06-.33,8.06.65,1.62,12.25,4.2,12.25,4.2.33,1.29,5.16,1,5.16,1l5.16,1c0,3.86,11.92,5.81,12.89,6.12s0,5.16,0,5.16c-6.45,10,0,60.61,0,60.61,1.61,21.59,15.15,52.87,15.15,52.87-1.29,1-2.26,5.8-2.26,5.8-.64,2.26-15.8,9.34-15.8,9.34.33,5.48,14.19,4.52,14.19,4.52l-.65,7.73c-2.9,1.94-7.09,15.16-7.09,15.16C161.59,380.42,179,362,179,362c3.55-.65,7.74-14.51,7.74-14.51,8.06-14.5,5.16-142.8,6.12-142.15s1.61-4.84,3.23-3.88,9.12-2.71,9.12-2.71l3.64-3.64S209.3,166,205.75,155.09Z"/><circle class="cls-1" cx="340.65" cy="68.88" r="47.74"/><polygon class="cls-1" points="340.65 14.02 348.76 7.21 354.85 15.89 364.45 11.41 368.08 21.37 378.51 19.53 379.44 30.09 389.99 31.01 388.15 41.45 398.11 45.08 393.64 54.68 402.32 60.76 395.5 68.88 402.32 77 393.64 83.08 398.11 92.68 388.15 96.31 389.99 106.74 379.44 107.67 378.51 118.23 368.08 116.39 364.45 126.34 354.85 121.87 348.76 130.55 340.65 123.74 332.53 130.55 326.45 121.87 316.84 126.34 313.22 116.39 302.78 118.23 301.86 107.67 291.3 106.74 293.14 96.31 283.18 92.68 287.66 83.08 278.98 77 285.79 68.88 278.98 60.76 287.66 54.68 283.18 45.08 293.14 41.45 291.3 31.01 301.86 30.09 302.78 19.53 313.22 21.37 316.84 11.41 326.45 15.89 332.53 7.21 340.65 14.02"/><line class="cls-1" x1="269.94" y1="48.8" x2="111.19" y2="99.12"/><line class="cls-1" x1="360.55" y1="136.02" x2="270.02" y2="372.25"/></g></svg>