<svg id="Layer_1" data-name="Layer 1" xmlns="http://www.w3.org/2000/svg" viewBox="0 0 1390 435"><defs><style>.cls-1{fill:#fff;}.cls-2{fill:#1e1e1e;}.cls-3{fill:#143f61;}.cls-4{fill:#194d76;}.cls-5{fill:#1b5380;}.cls-6{fill:#1c5785;}.cls-7{fill:#1e5b8f;}.cls-8{fill:#206397;}.cls-9{fill:#2269a1;}.cls-10{fill:#236ea8;}.cls-11{fill:#267bbd;}.cls-12{fill:#17486e;}.cls-13{fill:#0aaeff;}.cls-14{fill:#0096e0;}.cls-15{fill:#08c;}.cls-16{fill:#47c2ff;}.cls-17{fill:#70cfff;}.cls-18{fill:#9df;}.cls-19{fill:#c2ebff;}.cls-20{fill:#d6f1ff;}.cls-21{fill:#8c8c8c;}.cls-22{fill:#d2d2d2;}.cls-23{fill:#a0a0a0;}.cls-24{fill:#aaa;}.cls-25{fill:#b4b4b4;}.cls-26{fill:#bebebe;}.cls-27{fill:#c3c3c3;}.cls-28{fill:#c8c8c8;}.cls-29{fill:#cdcdcd;}.cls-30{fill:#969696;}.cls-31{fill:#d7d7d7;}.cls-32{fill:#e1e1e1;}.cls-33{fill:#e6e6e6;}.cls-34{fill:#ebebeb;}.cls-35{fill:#f0f0f0;}.cls-36{fill:#f5f5f5;}.cls-37{fill:#fafafa;}.cls-38{fill:#dcdcdc;}.cls-39{fill:#373737;}.cls-40{fill:#323232;}.cls-41{fill:#828282;}.cls-42{fill:#414141;}.cls-43{fill:#464646;}.cls-44{fill:#505050;}.cls-45{fill:#5a5a5a;}.cls-46{fill:#646464;}.cls-47{fill:#6e6e6e;}.cls-48{fill:#787878;}.cls-49{fill:#3c3c3c;}.cls-50{fill:#0f0f0f;}.cls-51{fill:#141414;}.cls-52{fill:#191919;}.cls-53{fill:#242424;}.cls-54{fill:#282828;}.cls-55{fill:#2d2d2d;}.cls-56{fill:#0a0a0a;}</style></defs><title>editArtboard 1</title><g id="Bg"><rect class="cls-1" y="-57" width="1391" height="491"/></g><g id="Colors"><path class="cls-2" d="M71.7,304.21a3.24,3.24,0,0,1-.3,1.43,2.87,2.87,0,0,1-.83,1,3.7,3.7,0,0,1-1.26.63,5.7,5.7,0,0,1-1.59.21H62.37v-11.4h5.27a6.31,6.31,0,0,1,1.48.16,3.13,3.13,0,0,1,1.13.5,2.25,2.25,0,0,1,.71.88,3,3,0,0,1,.25,1.28,2.51,2.51,0,0,1-.45,1.51,2.71,2.71,0,0,1-1.26.93h0a3.37,3.37,0,0,1,1,.4,2.45,2.45,0,0,1,.69.63,2.72,2.72,0,0,1,.41.83A3.46,3.46,0,0,1,71.7,304.21Zm-2.45-4.94a1.44,1.44,0,0,0-.51-1.22,2.42,2.42,0,0,0-1.49-.39H64.37v3.18h3a2.62,2.62,0,0,0,.71-.09,1.75,1.75,0,0,0,.59-.29,1.37,1.37,0,0,0,.4-.49,1.72,1.72,0,0,0,.19-.7Zm.45,4.84a1.67,1.67,0,0,0-.57-1.37,2.54,2.54,0,0,0-1.64-.46H64.37v3.64h3.14a2.61,2.61,0,0,0,1.63-.44A1.62,1.62,0,0,0,69.7,304.11Z"/><path class="cls-2" d="M75.8,296.08v9.73h5.87v1.69H73.8V296.08Z"/><path class="cls-2" d="M84.7,296.08v7.16a3,3,0,0,0,.65,2.13,2.7,2.7,0,0,0,2.06.7,2.77,2.77,0,0,0,2.07-.68,3,3,0,0,0,.66-2.14v-7.17h2v7.25a4.38,4.38,0,0,1-1.2,3.24,4.81,4.81,0,0,1-3.52,1.2,6.44,6.44,0,0,1-2-.3,3.73,3.73,0,0,1-2.4-2.33,5.37,5.37,0,0,1-.29-1.8v-7.25Z"/><path class="cls-2" d="M103.06,296.09v1.69h-6.3v3h5.82v1.59H96.77v3.41h6.4v1.68h-8.4V296.09Z"/><path class="cls-2" d="M118.38,304.24a3.15,3.15,0,0,1-.39,1.61,3.22,3.22,0,0,1-1,1.09,4.67,4.67,0,0,1-1.51.63,7.85,7.85,0,0,1-1.79.2,6.9,6.9,0,0,1-1.82-.23,4.49,4.49,0,0,1-1.47-.68,3.31,3.31,0,0,1-1-1.12,3.16,3.16,0,0,1-.36-1.53v-.13h2v.07a1.78,1.78,0,0,0,.22.9,1.87,1.87,0,0,0,.6.64,2.81,2.81,0,0,0,.89.38,4.83,4.83,0,0,0,2.11,0,2.75,2.75,0,0,0,.84-.33,1.74,1.74,0,0,0,.57-.55,1.42,1.42,0,0,0,.21-.77,1.24,1.24,0,0,0-.5-1,4.34,4.34,0,0,0-1.55-.68l-2.45-.65a3.77,3.77,0,0,1-1.91-1,2.68,2.68,0,0,1-.62-1.86,3,3,0,0,1,.34-1.46,3.15,3.15,0,0,1,.93-1A4.28,4.28,0,0,1,112,296a6.4,6.4,0,0,1,3.24,0,4.32,4.32,0,0,1,1.36.61,3.09,3.09,0,0,1,.95,1,3,3,0,0,1,.37,1.46H116a1.67,1.67,0,0,0-.21-.69,1.69,1.69,0,0,0-.49-.54,2.4,2.4,0,0,0-.73-.35,3.34,3.34,0,0,0-.95-.12,3.87,3.87,0,0,0-.89.1,2.33,2.33,0,0,0-.73.3,1.53,1.53,0,0,0-.5.51,1.4,1.4,0,0,0-.18.73,1.32,1.32,0,0,0,.09.52,1.07,1.07,0,0,0,.27.38,1.41,1.41,0,0,0,.41.26,4,4,0,0,0,.54.18l2.7.71a4.91,4.91,0,0,1,2.27,1.16A2.7,2.7,0,0,1,118.38,304.24Z"/><path class="cls-2" d="M125.28,295.84a6,6,0,0,1,1.75.25,4.59,4.59,0,0,1,1.43.71,3.93,3.93,0,0,1,1,1.13,4.26,4.26,0,0,1,.54,1.51H128a2.52,2.52,0,0,0-.34-.75,2.42,2.42,0,0,0-.59-.61,2.94,2.94,0,0,0-.83-.41,3.39,3.39,0,0,0-1-.15,3.21,3.21,0,0,0-2.7,1.31,4.16,4.16,0,0,0-.66,1.38,6.06,6.06,0,0,0,0,3.18,4.08,4.08,0,0,0,.64,1.36,3.21,3.21,0,0,0,2.72,1.33,3.15,3.15,0,0,0,1.13-.19,2.65,2.65,0,0,0,1.48-1.35,3.56,3.56,0,0,0,.32-1h1.95a5.64,5.64,0,0,1-.47,1.68,4.26,4.26,0,0,1-2.43,2.26,5.52,5.52,0,0,1-2,.33,5.66,5.66,0,0,1-2.29-.45,5.15,5.15,0,0,1-1.75-1.24,5.5,5.5,0,0,1-1.12-1.88,6.94,6.94,0,0,1-.39-2.37,7.09,7.09,0,0,1,.37-2.29,5.71,5.71,0,0,1,1.07-1.91,5.11,5.11,0,0,1,1.75-1.31A5.57,5.57,0,0,1,125.28,295.84Z"/><path class="cls-2" d="M139.45,307.5l-1-2.91h-4.73l-1,2.91h-2l4.11-11.41h2.7l4,11.41Zm-3.31-9.93h0l-1.87,5.5H138Z"/><path class="cls-2" d="M145,296.08v9.73h5.87v1.69H143V296.08Z"/><path class="cls-2" d="M160.77,296.09v1.69h-6.3v3h5.82v1.59h-5.82v3.41h6.4v1.68h-8.4V296.09Z"/><path class="cls-2" d="M174.16,302.08v1.59h-8v-1.59Z"/><path class="cls-2" d="M187.69,307.5l-1-2.91H182l-1,2.91h-2l4-11.41h2.7l4,11.41Zm-3.31-9.93h0l-1.87,5.5h3.73Z"/><path class="cls-2" d="M195.91,295.84a6,6,0,0,1,1.75.25,4.59,4.59,0,0,1,1.43.71,3.93,3.93,0,0,1,1,1.13,4.26,4.26,0,0,1,.54,1.51h-1.95a2.52,2.52,0,0,0-.34-.75,2.42,2.42,0,0,0-.59-.61,2.94,2.94,0,0,0-.83-.41,3.39,3.39,0,0,0-1-.15,3.21,3.21,0,0,0-2.7,1.31,4.16,4.16,0,0,0-.66,1.38,6.06,6.06,0,0,0,0,3.18,4.08,4.08,0,0,0,.64,1.36,3.21,3.21,0,0,0,2.72,1.33,3.15,3.15,0,0,0,1.13-.19,2.65,2.65,0,0,0,1.48-1.35,3.56,3.56,0,0,0,.32-1h1.95a5.64,5.64,0,0,1-.47,1.68,4.26,4.26,0,0,1-2.43,2.26,5.52,5.52,0,0,1-2,.33,5.66,5.66,0,0,1-2.29-.45,5.15,5.15,0,0,1-1.75-1.24,5.5,5.5,0,0,1-1.12-1.88,6.94,6.94,0,0,1-.39-2.37,7.09,7.09,0,0,1,.37-2.29,5.71,5.71,0,0,1,1.07-1.91,5.11,5.11,0,0,1,1.75-1.31A5.57,5.57,0,0,1,195.91,295.84Z"/><path class="cls-2" d="M207.81,295.84a6,6,0,0,1,1.75.25,4.59,4.59,0,0,1,1.43.71,3.93,3.93,0,0,1,1,1.13,4.26,4.26,0,0,1,.54,1.51h-1.95a2.52,2.52,0,0,0-.34-.75,2.42,2.42,0,0,0-.59-.61,2.94,2.94,0,0,0-.83-.41,3.39,3.39,0,0,0-1-.15,3.21,3.21,0,0,0-2.7,1.31,4.16,4.16,0,0,0-.66,1.38,6.06,6.06,0,0,0,0,3.18,4.08,4.08,0,0,0,.64,1.36,3.21,3.21,0,0,0,2.72,1.33,3.15,3.15,0,0,0,1.13-.19,2.65,2.65,0,0,0,1.48-1.35,3.56,3.56,0,0,0,.32-1h1.95a5.64,5.64,0,0,1-.47,1.68,4.26,4.26,0,0,1-2.43,2.26,5.52,5.52,0,0,1-2,.33,5.66,5.66,0,0,1-2.29-.45,5.15,5.15,0,0,1-1.75-1.24,5.5,5.5,0,0,1-1.12-1.88,6.94,6.94,0,0,1-.39-2.37,7.09,7.09,0,0,1,.37-2.29,5.71,5.71,0,0,1,1.07-1.91,5.11,5.11,0,0,1,1.75-1.31A5.57,5.57,0,0,1,207.81,295.84Z"/><path class="cls-2" d="M223,296.09v1.69h-6.3v3h5.82v1.59H216.7v3.41h6.4v1.68h-8.4V296.09Z"/><path class="cls-2" d="M227.17,296.08l5.45,8.48h0v-8.48h1.9V307.5h-2l-5.46-8.5h0v8.48h-1.9v-11.4Z"/><path class="cls-2" d="M245.33,296.08v1.69H241.7v9.73h-2v-9.73h-3.62v-1.69Z"/><path class="cls-2" d="M255.31,304.24a3.15,3.15,0,0,1-.39,1.61,3.22,3.22,0,0,1-1,1.09,4.67,4.67,0,0,1-1.51.63,7.85,7.85,0,0,1-1.79.2,6.9,6.9,0,0,1-1.82-.23,4.49,4.49,0,0,1-1.47-.68,3.31,3.31,0,0,1-1-1.12,3.16,3.16,0,0,1-.36-1.53v-.13h2v.07a1.78,1.78,0,0,0,.22.9,1.87,1.87,0,0,0,.6.64,2.81,2.81,0,0,0,.89.38,4.83,4.83,0,0,0,2.11,0,2.75,2.75,0,0,0,.84-.33,1.74,1.74,0,0,0,.57-.55,1.42,1.42,0,0,0,.21-.77,1.24,1.24,0,0,0-.5-1,4.34,4.34,0,0,0-1.55-.68l-2.45-.65a3.77,3.77,0,0,1-1.91-1,2.68,2.68,0,0,1-.62-1.86,3,3,0,0,1,.34-1.46,3.15,3.15,0,0,1,.93-1A4.28,4.28,0,0,1,249,296a6.4,6.4,0,0,1,3.24,0,4.32,4.32,0,0,1,1.36.61,3.09,3.09,0,0,1,.95,1,3,3,0,0,1,.37,1.46H253a1.67,1.67,0,0,0-.21-.69,1.69,1.69,0,0,0-.49-.54,2.4,2.4,0,0,0-.73-.35,3.34,3.34,0,0,0-.95-.12,3.87,3.87,0,0,0-.89.1,2.33,2.33,0,0,0-.73.3,1.53,1.53,0,0,0-.5.51,1.4,1.4,0,0,0-.18.73,1.32,1.32,0,0,0,.09.52,1.07,1.07,0,0,0,.27.38,1.41,1.41,0,0,0,.41.26,4.05,4.05,0,0,0,.54.18l2.7.71a4.91,4.91,0,0,1,2.27,1.16A2.7,2.7,0,0,1,255.31,304.24Z"/><path class="cls-2" d="M68.3,15.31a5.85,5.85,0,0,1,1.72.25,4.71,4.71,0,0,1,1.44.71,4.08,4.08,0,0,1,1.05,1.16A4.35,4.35,0,0,1,73.08,19H71.14a2.49,2.49,0,0,0-.38-.85,2.56,2.56,0,0,0-.63-.63,2.82,2.82,0,0,0-.84-.39,3.63,3.63,0,0,0-1-.13,3.35,3.35,0,0,0-1.56.34,3.19,3.19,0,0,0-1.11.93A4.05,4.05,0,0,0,65,19.65a6.28,6.28,0,0,0-.21,1.67,6.13,6.13,0,0,0,.2,1.56,4.06,4.06,0,0,0,.63,1.36,3.26,3.26,0,0,0,1.1,1,3.31,3.31,0,0,0,1.61.37,3.71,3.71,0,0,0,1.28-.21,2.72,2.72,0,0,0,1-.6,2.81,2.81,0,0,0,.64-1,4,4,0,0,0,.27-1.31h-3V21h4.82v6H71.95l-.21-1.57h0a3.92,3.92,0,0,1-1.49,1.39,4.29,4.29,0,0,1-2,.45A5.5,5.5,0,0,1,66,26.81a5.06,5.06,0,0,1-1.73-1.25,5.6,5.6,0,0,1-1.1-1.88,7,7,0,0,1-.39-2.36A7.19,7.19,0,0,1,63.13,19a5.61,5.61,0,0,1,1.08-1.91A5.13,5.13,0,0,1,66,15.79,5.53,5.53,0,0,1,68.3,15.31Z"/><path class="cls-2" d="M85,18.67a3,3,0,0,1-.66,2,2.41,2.41,0,0,1-.57.49,3.31,3.31,0,0,1-.73.34h0a2.29,2.29,0,0,1,.79.33,1.88,1.88,0,0,1,.53.55,2.6,2.6,0,0,1,.34.83,6.84,6.84,0,0,1,.13.92,8.73,8.73,0,0,0,.06,1,6.35,6.35,0,0,0,.13,1,2.19,2.19,0,0,0,.32.83h-2a5.83,5.83,0,0,1-.3-1.79,4.27,4.27,0,0,0-.6-2.35A1.8,1.8,0,0,0,81,22.28H77.75V27h-2V15.58h5.89a3.42,3.42,0,0,1,2.38.85A2.88,2.88,0,0,1,85,18.67ZM83,19a1.75,1.75,0,0,0-.51-1.37A2.08,2.08,0,0,0,81,17.16H77.75v3.67H81a2,2,0,0,0,1.36-.44A1.73,1.73,0,0,0,83,19Z"/><path class="cls-2" d="M95.67,15.59v1.69h-6.3v3H95.2v1.59H89.38v3.41h6.4V27h-8.4V15.59Z"/><path class="cls-2" d="M98.76,15.58l3.07,5.12,3-5.12h2.26L102.8,22.5V27h-2V22.46l-4.31-6.88Z"/><path class="cls-2" d="M121.79,23.74a3.15,3.15,0,0,1-.39,1.61,3.22,3.22,0,0,1-1,1.09,4.67,4.67,0,0,1-1.51.63,7.85,7.85,0,0,1-1.79.2,6.9,6.9,0,0,1-1.82-.23,4.49,4.49,0,0,1-1.47-.68,3.31,3.31,0,0,1-1-1.12,3.16,3.16,0,0,1-.36-1.53v-.13h2v.07a1.78,1.78,0,0,0,.22.9,1.87,1.87,0,0,0,.6.64,2.81,2.81,0,0,0,.89.38,4.83,4.83,0,0,0,2.11,0,2.75,2.75,0,0,0,.84-.33,1.74,1.74,0,0,0,.57-.55,1.42,1.42,0,0,0,.21-.77,1.24,1.24,0,0,0-.5-1,4.34,4.34,0,0,0-1.55-.68l-2.45-.65a3.77,3.77,0,0,1-1.91-1,2.68,2.68,0,0,1-.62-1.86,3,3,0,0,1,.34-1.46,3.15,3.15,0,0,1,.93-1.05,4.28,4.28,0,0,1,1.38-.64,6.4,6.4,0,0,1,3.24,0,4.32,4.32,0,0,1,1.36.61,3.09,3.09,0,0,1,.95,1,3,3,0,0,1,.37,1.46h-1.95a1.67,1.67,0,0,0-.21-.69,1.69,1.69,0,0,0-.49-.54A2.4,2.4,0,0,0,118,17a3.34,3.34,0,0,0-.95-.12,3.87,3.87,0,0,0-.89.1,2.33,2.33,0,0,0-.73.3,1.53,1.53,0,0,0-.5.51,1.4,1.4,0,0,0-.18.73,1.32,1.32,0,0,0,.09.52,1.07,1.07,0,0,0,.27.38,1.41,1.41,0,0,0,.41.26,4,4,0,0,0,.54.18l2.7.71A4.91,4.91,0,0,1,121,21.74,2.7,2.7,0,0,1,121.79,23.74Z"/><path class="cls-2" d="M128.69,15.34a6,6,0,0,1,1.75.25,4.59,4.59,0,0,1,1.43.71,3.93,3.93,0,0,1,1,1.13,4.26,4.26,0,0,1,.54,1.51h-1.95a2.52,2.52,0,0,0-.34-.75,2.42,2.42,0,0,0-.59-.61,2.94,2.94,0,0,0-.83-.41,3.39,3.39,0,0,0-1-.15,3.21,3.21,0,0,0-2.7,1.31,4.16,4.16,0,0,0-.66,1.38,6.06,6.06,0,0,0,0,3.18,4.08,4.08,0,0,0,.64,1.36,3.21,3.21,0,0,0,2.72,1.33,3.15,3.15,0,0,0,1.13-.19A2.65,2.65,0,0,0,131.28,24a3.56,3.56,0,0,0,.32-1h1.95a5.64,5.64,0,0,1-.47,1.68,4.26,4.26,0,0,1-2.43,2.26,5.52,5.52,0,0,1-2,.33,5.66,5.66,0,0,1-2.29-.45,5.15,5.15,0,0,1-1.75-1.24,5.5,5.5,0,0,1-1.12-1.88,6.94,6.94,0,0,1-.39-2.37,7.09,7.09,0,0,1,.37-2.29,5.71,5.71,0,0,1,1.07-1.91,5.11,5.11,0,0,1,1.75-1.31A5.57,5.57,0,0,1,128.69,15.34Z"/><path class="cls-2" d="M142.86,27l-1-2.91h-4.73l-1,2.91h-2l4.11-11.41h2.7l4,11.41Zm-3.31-9.93h0l-1.87,5.5h3.73Z"/><path class="cls-2" d="M148.41,15.58v9.73h5.87V27h-7.87V15.58Z"/><path class="cls-2" d="M164.18,15.59v1.69h-6.3v3h5.82v1.59h-5.82v3.41h6.4V27h-8.4V15.59Z"/><path class="cls-2" d="M519.7,304.21a3.25,3.25,0,0,1-.3,1.43,2.88,2.88,0,0,1-.83,1,3.7,3.7,0,0,1-1.26.63,5.7,5.7,0,0,1-1.59.21h-5.36v-11.4h5.27a6.31,6.31,0,0,1,1.48.16,3.14,3.14,0,0,1,1.13.5,2.25,2.25,0,0,1,.71.88,3,3,0,0,1,.25,1.28,2.51,2.51,0,0,1-.45,1.51,2.71,2.71,0,0,1-1.26.93h0a3.38,3.38,0,0,1,1,.4,2.45,2.45,0,0,1,.69.63,2.73,2.73,0,0,1,.41.83A3.46,3.46,0,0,1,519.7,304.21Zm-2.45-4.94a1.44,1.44,0,0,0-.51-1.22,2.42,2.42,0,0,0-1.49-.39h-2.89v3.18h3a2.62,2.62,0,0,0,.71-.09,1.76,1.76,0,0,0,.59-.29,1.38,1.38,0,0,0,.4-.49,1.72,1.72,0,0,0,.2-.7Zm.45,4.84a1.67,1.67,0,0,0-.57-1.37,2.54,2.54,0,0,0-1.64-.46h-3.13v3.64h3.14a2.61,2.61,0,0,0,1.63-.44A1.62,1.62,0,0,0,517.7,304.11Z"/><path class="cls-2" d="M523.8,296.08v9.73h5.87v1.69H521.8V296.08Z"/><path class="cls-2" d="M532.7,296.08v7.16a3,3,0,0,0,.65,2.13,2.7,2.7,0,0,0,2.06.7,2.77,2.77,0,0,0,2.07-.68,3,3,0,0,0,.66-2.14v-7.17h2v7.25a4.38,4.38,0,0,1-1.2,3.24,4.81,4.81,0,0,1-3.52,1.2,6.44,6.44,0,0,1-2-.3,3.73,3.73,0,0,1-2.4-2.33,5.37,5.37,0,0,1-.29-1.8v-7.25Z"/><path class="cls-2" d="M551.06,296.09v1.69h-6.3v3h5.82v1.59h-5.82v3.41h6.4v1.68h-8.4V296.09Z"/><path class="cls-2" d="M566.38,304.24a3.15,3.15,0,0,1-.39,1.61,3.22,3.22,0,0,1-1,1.09,4.67,4.67,0,0,1-1.51.63,7.85,7.85,0,0,1-1.79.2,6.9,6.9,0,0,1-1.82-.23,4.49,4.49,0,0,1-1.47-.68,3.31,3.31,0,0,1-1-1.12,3.16,3.16,0,0,1-.36-1.53v-.13h2v.07a1.77,1.77,0,0,0,.22.9,1.86,1.86,0,0,0,.6.64,2.8,2.8,0,0,0,.89.38,4.83,4.83,0,0,0,2.11,0,2.76,2.76,0,0,0,.84-.33,1.75,1.75,0,0,0,.57-.55,1.42,1.42,0,0,0,.21-.77,1.24,1.24,0,0,0-.5-1,4.34,4.34,0,0,0-1.55-.68l-2.45-.65a3.77,3.77,0,0,1-1.91-1,2.68,2.68,0,0,1-.62-1.86,3,3,0,0,1,.34-1.46,3.15,3.15,0,0,1,.93-1A4.27,4.27,0,0,1,560,296a6.4,6.4,0,0,1,3.24,0,4.32,4.32,0,0,1,1.36.61,3.09,3.09,0,0,1,1,1,3,3,0,0,1,.37,1.46H564a1.68,1.68,0,0,0-.21-.69,1.7,1.7,0,0,0-.49-.54,2.4,2.4,0,0,0-.73-.35,3.34,3.34,0,0,0-1-.12,3.87,3.87,0,0,0-.89.1,2.32,2.32,0,0,0-.73.3,1.53,1.53,0,0,0-.5.51,1.4,1.4,0,0,0-.18.73,1.32,1.32,0,0,0,.09.52,1.07,1.07,0,0,0,.27.38,1.41,1.41,0,0,0,.41.26,4,4,0,0,0,.54.18l2.7.71a4.92,4.92,0,0,1,2.27,1.16A2.7,2.7,0,0,1,566.38,304.24Z"/><path class="cls-2" d="M573.28,295.84a6,6,0,0,1,1.75.25,4.6,4.6,0,0,1,1.43.71,3.93,3.93,0,0,1,1,1.13,4.27,4.27,0,0,1,.54,1.51h-2a2.52,2.52,0,0,0-.34-.75,2.43,2.43,0,0,0-.59-.61,2.94,2.94,0,0,0-.83-.41,3.39,3.39,0,0,0-1-.15,3.21,3.21,0,0,0-2.7,1.31,4.16,4.16,0,0,0-.66,1.38,6,6,0,0,0-.22,1.63,5.9,5.9,0,0,0,.21,1.55,4.08,4.08,0,0,0,.64,1.36,3.21,3.21,0,0,0,2.72,1.33,3.15,3.15,0,0,0,1.13-.19,2.65,2.65,0,0,0,1.48-1.35,3.56,3.56,0,0,0,.32-1h2a5.64,5.64,0,0,1-.47,1.68,4.26,4.26,0,0,1-2.43,2.26,5.52,5.52,0,0,1-2,.33,5.66,5.66,0,0,1-2.29-.45,5.14,5.14,0,0,1-1.75-1.24,5.49,5.49,0,0,1-1.12-1.88,6.94,6.94,0,0,1-.39-2.37,7.09,7.09,0,0,1,.37-2.29,5.7,5.7,0,0,1,1.07-1.91,5.1,5.1,0,0,1,1.75-1.31A5.57,5.57,0,0,1,573.28,295.84Z"/><path class="cls-2" d="M587.45,307.5l-1-2.91h-4.73l-1,2.91h-2l4.11-11.41h2.7l4,11.41Zm-3.31-9.93h0l-1.87,5.5H586Z"/><path class="cls-2" d="M593,296.08v9.73h5.87v1.69H591V296.08Z"/><path class="cls-2" d="M608.77,296.09v1.69h-6.3v3h5.82v1.59h-5.82v3.41h6.4v1.68h-8.4V296.09Z"/><path class="cls-2" d="M622.16,302.08v1.59h-8v-1.59Z"/><path class="cls-2" d="M637.52,304.21a3.25,3.25,0,0,1-.3,1.43,2.88,2.88,0,0,1-.83,1,3.7,3.7,0,0,1-1.26.63,5.7,5.7,0,0,1-1.59.21h-5.36v-11.4h5.27a6.31,6.31,0,0,1,1.48.16,3.14,3.14,0,0,1,1.13.5,2.25,2.25,0,0,1,.71.88,3,3,0,0,1,.25,1.28,2.51,2.51,0,0,1-.45,1.51,2.71,2.71,0,0,1-1.26.93h0a3.38,3.38,0,0,1,1,.4,2.45,2.45,0,0,1,.69.63,2.73,2.73,0,0,1,.41.83A3.46,3.46,0,0,1,637.52,304.21Zm-2.45-4.94a1.44,1.44,0,0,0-.51-1.22,2.42,2.42,0,0,0-1.49-.39h-2.89v3.18h3a2.62,2.62,0,0,0,.71-.09,1.76,1.76,0,0,0,.59-.29,1.38,1.38,0,0,0,.4-.49,1.72,1.72,0,0,0,.2-.7Zm.45,4.84a1.67,1.67,0,0,0-.57-1.37,2.54,2.54,0,0,0-1.64-.46h-3.13v3.64h3.14a2.61,2.61,0,0,0,1.63-.44A1.62,1.62,0,0,0,635.52,304.11Z"/><path class="cls-2" d="M647.13,307.5l-1-2.91H641.4l-1,2.91h-2l4.11-11.41h2.7l4,11.41Zm-3.31-9.93h0l-1.87,5.5h3.73Z"/><path class="cls-2" d="M655.35,295.84a6,6,0,0,1,1.75.25,4.6,4.6,0,0,1,1.43.71,3.93,3.93,0,0,1,1,1.13,4.27,4.27,0,0,1,.54,1.51h-2a2.52,2.52,0,0,0-.34-.75,2.43,2.43,0,0,0-.59-.61,2.94,2.94,0,0,0-.83-.41,3.39,3.39,0,0,0-1-.15,3.21,3.21,0,0,0-2.7,1.31,4.16,4.16,0,0,0-.66,1.38,6,6,0,0,0-.22,1.63,5.9,5.9,0,0,0,.21,1.55,4.08,4.08,0,0,0,.64,1.36,3.21,3.21,0,0,0,2.72,1.33,3.15,3.15,0,0,0,1.13-.19,2.65,2.65,0,0,0,1.48-1.35,3.56,3.56,0,0,0,.32-1h2a5.64,5.64,0,0,1-.47,1.68,4.26,4.26,0,0,1-2.43,2.26,5.52,5.52,0,0,1-2,.33,5.66,5.66,0,0,1-2.29-.45,5.14,5.14,0,0,1-1.75-1.24,5.49,5.49,0,0,1-1.12-1.88,6.94,6.94,0,0,1-.39-2.37,7.09,7.09,0,0,1,.37-2.29,5.7,5.7,0,0,1,1.07-1.91,5.1,5.1,0,0,1,1.75-1.31A5.57,5.57,0,0,1,655.35,295.84Z"/><path class="cls-2" d="M664.29,296.08v5.24l5.25-5.24h2.54l-4.7,4.59,5.06,6.84h-2.52L666,302.07l-1.71,1.66v3.77h-2V296.08Z"/><path class="cls-2" d="M678.19,295.81a5.85,5.85,0,0,1,1.72.25,4.71,4.71,0,0,1,1.44.71,4.08,4.08,0,0,1,1,1.16,4.36,4.36,0,0,1,.57,1.57h-2a2.5,2.5,0,0,0-.38-.85A2.56,2.56,0,0,0,680,298a2.82,2.82,0,0,0-.84-.39,3.63,3.63,0,0,0-1-.13,3.35,3.35,0,0,0-1.56.34,3.19,3.19,0,0,0-1.11.93,4,4,0,0,0-.66,1.38,6.28,6.28,0,0,0-.21,1.67,6.13,6.13,0,0,0,.2,1.56,4,4,0,0,0,.63,1.36,3.26,3.26,0,0,0,1.1,1,3.3,3.3,0,0,0,1.61.37,3.71,3.71,0,0,0,1.28-.21,2.72,2.72,0,0,0,1-.6,2.81,2.81,0,0,0,.64-1,4,4,0,0,0,.27-1.31h-3v-1.53h4.82v6h-1.31l-.21-1.57h0a3.92,3.92,0,0,1-1.49,1.39,4.29,4.29,0,0,1-2,.45,5.5,5.5,0,0,1-2.27-.45,5.06,5.06,0,0,1-1.73-1.25,5.6,5.6,0,0,1-1.1-1.88,7,7,0,0,1-.39-2.36,7.18,7.18,0,0,1,.37-2.33,5.6,5.6,0,0,1,1.08-1.91,5.13,5.13,0,0,1,1.74-1.29A5.53,5.53,0,0,1,678.19,295.81Z"/><path class="cls-2" d="M694.86,299.17a3,3,0,0,1-.66,2,2.42,2.42,0,0,1-.57.49,3.32,3.32,0,0,1-.73.34h0a2.29,2.29,0,0,1,.79.33,1.88,1.88,0,0,1,.53.55,2.6,2.6,0,0,1,.34.83,6.84,6.84,0,0,1,.13.92,8.74,8.74,0,0,0,.06,1,6.29,6.29,0,0,0,.13,1,2.18,2.18,0,0,0,.32.83h-2a5.82,5.82,0,0,1-.3-1.79,4.27,4.27,0,0,0-.6-2.35,1.8,1.8,0,0,0-1.41-.54H687.7v4.68h-2V296.08h5.89a3.42,3.42,0,0,1,2.38.85A2.88,2.88,0,0,1,694.86,299.17Zm-2,.32a1.75,1.75,0,0,0-.51-1.37,2.08,2.08,0,0,0-1.43-.45h-3.28v3.67h3.28a2,2,0,0,0,1.36-.44,1.73,1.73,0,0,0,.58-1.41Z"/><path class="cls-2" d="M707.7,301.82a6.17,6.17,0,0,1-1.52,4.26,5.14,5.14,0,0,1-4,1.69,5.81,5.81,0,0,1-2.18-.39,5.14,5.14,0,0,1-1.76-1.2,5.37,5.37,0,0,1-1.2-2,7.14,7.14,0,0,1-.4-2.41,6.24,6.24,0,0,1,1.52-4.32,5.13,5.13,0,0,1,4-1.69,5.92,5.92,0,0,1,2.19.39,4.78,4.78,0,0,1,1.77,1.22,5.36,5.36,0,0,1,1.19,2A7.62,7.62,0,0,1,707.7,301.82Zm-2,0a4.92,4.92,0,0,0-.94-3.12,3.42,3.42,0,0,0-5.2,0,4.92,4.92,0,0,0-.93,3.13,4.83,4.83,0,0,0,.92,3,3.45,3.45,0,0,0,5.21,0,4.88,4.88,0,0,0,.93-3.06Z"/><path class="cls-2" d="M711.67,296.08v7.16a3,3,0,0,0,.65,2.13,2.7,2.7,0,0,0,2.06.7,2.77,2.77,0,0,0,2.07-.68,3,3,0,0,0,.66-2.14v-7.17h2v7.25a4.38,4.38,0,0,1-1.2,3.24,4.81,4.81,0,0,1-3.52,1.2,6.44,6.44,0,0,1-2-.3,3.73,3.73,0,0,1-2.4-2.33,5.37,5.37,0,0,1-.29-1.8v-7.25Z"/><path class="cls-2" d="M723.77,296.08l5.45,8.48h0v-8.48h1.9V307.5h-2l-5.46-8.5h0v8.48h-1.9v-11.4Z"/><path class="cls-2" d="M738.44,296.08a5.09,5.09,0,0,1,3.8,1.45,5.82,5.82,0,0,1,1.42,4.23,6,6,0,0,1-1.41,4.27,4.94,4.94,0,0,1-3.77,1.48h-4.62V296.08Zm-.23,9.73a3.32,3.32,0,0,0,2.52-1,4.19,4.19,0,0,0,.91-3,4.47,4.47,0,0,0-.92-3.15,3.75,3.75,0,0,0-2.85-1h-2v8Z"/><path class="cls-2" d="M754.36,304.24a3.15,3.15,0,0,1-.39,1.61,3.22,3.22,0,0,1-1,1.09,4.67,4.67,0,0,1-1.51.63,7.85,7.85,0,0,1-1.79.2,6.9,6.9,0,0,1-1.82-.23,4.49,4.49,0,0,1-1.47-.68,3.31,3.31,0,0,1-1-1.12,3.16,3.16,0,0,1-.36-1.53v-.13h2v.07a1.77,1.77,0,0,0,.22.9,1.86,1.86,0,0,0,.6.64,2.8,2.8,0,0,0,.89.38,4.83,4.83,0,0,0,2.11,0,2.76,2.76,0,0,0,.84-.33,1.75,1.75,0,0,0,.57-.55,1.42,1.42,0,0,0,.21-.77,1.24,1.24,0,0,0-.5-1,4.34,4.34,0,0,0-1.55-.68l-2.45-.65a3.77,3.77,0,0,1-1.91-1,2.68,2.68,0,0,1-.62-1.86,3,3,0,0,1,.34-1.46,3.15,3.15,0,0,1,.93-1A4.27,4.27,0,0,1,748,296a6.4,6.4,0,0,1,3.24,0,4.32,4.32,0,0,1,1.36.61,3.09,3.09,0,0,1,1,1,3,3,0,0,1,.37,1.46H752a1.68,1.68,0,0,0-.21-.69,1.7,1.7,0,0,0-.49-.54,2.4,2.4,0,0,0-.73-.35,3.34,3.34,0,0,0-1-.12,3.87,3.87,0,0,0-.89.1,2.32,2.32,0,0,0-.73.3,1.53,1.53,0,0,0-.5.51,1.4,1.4,0,0,0-.18.73,1.32,1.32,0,0,0,.09.52,1.07,1.07,0,0,0,.27.38,1.41,1.41,0,0,0,.41.26,4,4,0,0,0,.54.18l2.7.71a4.92,4.92,0,0,1,2.27,1.16A2.7,2.7,0,0,1,754.36,304.24Z"/><rect class="cls-3" x="1281" y="325" width="56" height="56"/><rect class="cls-4" x="1141" y="325" width="56" height="56"/><rect class="cls-5" x="1071" y="325" width="56" height="56"/><rect class="cls-6" x="1001" y="325" width="56" height="56"/><rect class="cls-7" x="931" y="325" width="56" height="56"/><rect class="cls-8" x="853" y="317" width="72" height="72"/><rect class="cls-9" x="791" y="325" width="56" height="56"/><rect class="cls-10" x="721" y="325" width="56" height="56"/><rect class="cls-11" x="651" y="325" width="56" height="56"/><rect class="cls-12" x="1211" y="325" width="56" height="56"/><rect class="cls-13" x="405" y="317" width="72" height="72"/><rect class="cls-14" x="511" y="325" width="56" height="56"/><rect class="cls-15" x="581" y="325" width="56" height="56"/><rect class="cls-16" x="343" y="325" width="56" height="56"/><rect class="cls-17" x="273" y="325" width="56" height="56"/><rect class="cls-18" x="203" y="325" width="56" height="56"/><rect class="cls-19" x="133" y="325" width="56" height="56"/><rect class="cls-20" x="63" y="325" width="56" height="56"/><rect class="cls-21" x="415" y="118" width="56" height="56"/><rect class="cls-22" x="695" y="48" width="56" height="56"/><rect class="cls-23" x="275" y="118" width="56" height="56"/><rect class="cls-24" x="205" y="118" width="56" height="56"/><rect class="cls-25" x="135" y="118" width="56" height="56"/><rect class="cls-26" x="65" y="118" width="56" height="56"/><rect class="cls-27" x="905" y="48" width="56" height="56"/><rect class="cls-28" x="835" y="48" width="56" height="56"/><rect class="cls-29" x="765" y="48" width="56" height="56"/><rect class="cls-30" x="345" y="118" width="56" height="56"/><rect class="cls-31" x="625" y="48" width="56" height="56"/><rect class="cls-32" x="485" y="48" width="56" height="56"/><rect class="cls-33" x="415" y="48" width="56" height="56"/><rect class="cls-34" x="345" y="48" width="56" height="56"/><path class="cls-30" d="M401,48h-4v1h4Zm-8,0h-4v1h4Zm-8,0h-4v1h4Zm-8,0h-4v1h4Zm-8,0h-4v1h4Zm-8,0h-4v1h4Zm-8,0h-4v1h4Zm-7,0h-1v4h1Zm0,8h-1v4h1Zm0,8h-1v4h1Zm0,8h-1v4h1Zm0,8h-1v4h1Zm0,8h-1v4h1Zm0,8h-1v4h1Zm3,7h-4v1h4Zm8,0h-4v1h4Zm8,0h-4v1h4Zm8,0h-4v1h4Zm8,0h-4v1h4Zm8,0h-4v1h4Zm8,0h-4v1h4Zm4-3h-1v4h1Zm0-8h-1v4h1Zm0-8h-1v4h1Zm0-8h-1v4h1Zm0-8h-1v4h1Zm0-8h-1v4h1Zm0-8h-1v4h1Z"/><rect class="cls-35" x="268" y="41" width="70" height="70"/><path class="cls-30" d="M338,41h-4v1h4Zm-8,0h-4v1h4Zm-8,0h-4v1h4Zm-8,0h-4v1h4Zm-8,0h-4v1h4Zm-8,0h-4v1h4Zm-8,0h-4v1h4Zm-8,0h-4v1h4Zm-8,0h-4v1h4Zm-5,2h-1v4h1Zm0,8h-1v4h1Zm0,8h-1v4h1Zm0,8h-1v4h1Zm0,8h-1v4h1Zm0,8h-1v4h1Zm0,8h-1v4h1Zm0,8h-1v4h1Zm0,8h-1v4h1Zm7,3h-4v1h4Zm8,0h-4v1h4Zm8,0h-4v1h4Zm8,0h-4v1h4Zm8,0h-4v1h4Zm8,0h-4v1h4Zm8,0h-4v1h4Zm8,0h-4v1h4Zm6-1h-1v1h-1v1h2Zm0-8h-1v4h1Zm0-8h-1v4h1Zm0-8h-1v4h1Zm0-8h-1v4h1Zm0-8h-1v4h1Zm0-8h-1v4h1Zm0-8h-1v4h1Zm0-8h-1v4h1Z"/><rect class="cls-36" x="205" y="48" width="56" height="56"/><path class="cls-30" d="M261,48h-4v1h4Zm-8,0h-4v1h4Zm-8,0h-4v1h4Zm-8,0h-4v1h4Zm-8,0h-4v1h4Zm-8,0h-4v1h4Zm-8,0h-4v1h4Zm-7,0h-1v4h1Zm0,8h-1v4h1Zm0,8h-1v4h1Zm0,8h-1v4h1Zm0,8h-1v4h1Zm0,8h-1v4h1Zm0,8h-1v4h1Zm3,7h-4v1h4Zm8,0h-4v1h4Zm8,0h-4v1h4Zm8,0h-4v1h4Zm8,0h-4v1h4Zm8,0h-4v1h4Zm8,0h-4v1h4Zm4-3h-1v4h1Zm0-8h-1v4h1Zm0-8h-1v4h1Zm0-8h-1v4h1Zm0-8h-1v4h1Zm0-8h-1v4h1Zm0-8h-1v4h1Z"/><rect class="cls-37" x="127" y="40" width="72" height="72"/><path class="cls-30" d="M199,40h-4v1h4Zm-8,0h-4v1h4Zm-8,0h-4v1h4Zm-8,0h-4v1h4Zm-8,0h-4v1h4Zm-8,0h-4v1h4Zm-8,0h-4v1h4Zm-8,0h-4v1h4Zm-8,0h-4v1h4Zm-7,0h-1v4h1Zm0,8h-1v4h1Zm0,8h-1v4h1Zm0,8h-1v4h1Zm0,8h-1v4h1Zm0,8h-1v4h1Zm0,8h-1v4h1Zm0,8h-1v4h1Zm0,8h-1v4h1Zm3,7h-4v1h4Zm8,0h-4v1h4Zm8,0h-4v1h4Zm8,0h-4v1h4Zm8,0h-4v1h4Zm8,0h-4v1h4Zm8,0h-4v1h4Zm8,0h-4v1h4Zm8,0h-4v1h4Zm4-3h-1v4h1Zm0-8h-1v4h1Zm0-8h-1v4h1Zm0-8h-1v4h1Zm0-8h-1v4h1Zm0-8h-1v4h1Zm0-8h-1v4h1Zm0-8h-1v4h1Zm0-8h-1v4h1Z"/><rect class="cls-1" x="56" y="40" width="72" height="72"/><path class="cls-30" d="M128,40h-4v1h4Zm-8,0h-4v1h4Zm-8,0h-4v1h4Zm-8,0h-4v1h4Zm-8,0H92v1h4Zm-8,0H84v1h4Zm-8,0H76v1h4Zm-8,0H68v1h4Zm-8,0H60v1h4Zm-7,0H56v4h1Zm0,8H56v4h1Zm0,8H56v4h1Zm0,8H56v4h1Zm0,8H56v4h1Zm0,8H56v4h1Zm0,8H56v4h1Zm0,8H56v4h1Zm0,8H56v4h1Zm3,7H56v1h4Zm8,0H64v1h4Zm8,0H72v1h4Zm8,0H80v1h4Zm8,0H88v1h4Zm8,0H96v1h4Zm8,0h-4v1h4Zm8,0h-4v1h4Zm8,0h-4v1h4Zm4-3h-1v4h1Zm0-8h-1v4h1Zm0-8h-1v4h1Zm0-8h-1v4h1Zm0-8h-1v4h1Zm0-8h-1v4h1Zm0-8h-1v4h1Zm0-8h-1v4h1Zm0-8h-1v4h1Z"/><rect class="cls-38" x="555" y="48" width="56" height="56"/><rect class="cls-39" x="205" y="188" width="56" height="56"/><rect class="cls-40" x="275" y="188" width="56" height="56"/><rect class="cls-41" x="485" y="118" width="56" height="56"/><rect class="cls-42" x="65" y="188" width="56" height="56"/><rect class="cls-43" x="897" y="110" width="72" height="72"/><rect class="cls-44" x="835" y="118" width="56" height="56"/><rect class="cls-45" x="765" y="118" width="56" height="56"/><rect class="cls-46" x="695" y="118" width="56" height="56"/><rect class="cls-47" x="625" y="118" width="56" height="56"/><rect class="cls-48" x="555" y="118" width="56" height="56"/><rect class="cls-49" x="135" y="188" width="56" height="56"/><rect x="905" y="188" width="56" height="56"/><rect class="cls-50" x="765" y="188" width="56" height="56"/><rect class="cls-51" x="695" y="188" width="56" height="56"/><rect class="cls-52" x="625" y="188" width="56" height="56"/><rect class="cls-2" x="555" y="188" width="56" height="56"/><rect class="cls-53" x="477" y="180" width="72" height="72"/><rect class="cls-54" x="415" y="188" width="56" height="56"/><rect class="cls-55" x="345" y="188" width="56" height="56"/><rect class="cls-56" x="835" y="188" width="56" height="56"/></g><g id="HEX"><path class="cls-42" d="M69.67,52.61l1.56,6.69h0L73,52.61h1.49l1.69,6.74h0l1.61-6.74h1.47l-2.32,8.57H75.43l-1.71-6.76h0L72,61.17H70.46L68.15,52.6Z"/><path class="cls-42" d="M84.81,61.17v-3.9A2.11,2.11,0,0,0,84.5,56a1.19,1.19,0,0,0-1-.43,1.79,1.79,0,0,0-.72.13,1.33,1.33,0,0,0-.51.39,1.68,1.68,0,0,0-.3.62,3.13,3.13,0,0,0-.1.83v3.63H80.39V52.09h1.44v3.5h0a1.94,1.94,0,0,1,.35-.48,2.36,2.36,0,0,1,.47-.37,2.24,2.24,0,0,1,.56-.24,2.32,2.32,0,0,1,.61-.08,3.33,3.33,0,0,1,1.08.16,1.77,1.77,0,0,1,.74.47,2,2,0,0,1,.43.81A4.22,4.22,0,0,1,86.21,57v4.17Z"/><path class="cls-42" d="M89.65,51.74v1.42H88.21V51.74Zm0,2.86v6.57H88.21V54.6Z"/><path class="cls-42" d="M94.88,61.22H94a4.59,4.59,0,0,1-.74-.06,1.58,1.58,0,0,1-.6-.22,1.12,1.12,0,0,1-.4-.45,1.67,1.67,0,0,1-.15-.76V55.58H90.87v-1h1.29v-2h1.45v2h1.5v1h-1.5V59.3a.83.83,0,0,0,.17.58.8.8,0,0,0,.59.18h.74V61.2Z"/><path class="cls-42" d="M99.27,54.42a3,3,0,0,1,1.34.28,2.78,2.78,0,0,1,1,.77,3.33,3.33,0,0,1,.58,1.13,4.76,4.76,0,0,1,.19,1.37v.26H97.5a2.77,2.77,0,0,0,.13.81,1.9,1.9,0,0,0,.35.63,1.55,1.55,0,0,0,.54.41,1.7,1.7,0,0,0,.72.15,1.9,1.9,0,0,0,1-.23,1.7,1.7,0,0,0,.61-.6h1.37a3.06,3.06,0,0,1-.45.81,2.83,2.83,0,0,1-.66.62,3,3,0,0,1-.85.39,3.66,3.66,0,0,1-1,.13,3.28,3.28,0,0,1-1.33-.26,2.82,2.82,0,0,1-1-.72,3.18,3.18,0,0,1-.62-1.1,4.31,4.31,0,0,1-.22-1.4,4,4,0,0,1,.22-1.33,3.3,3.3,0,0,1,.63-1.1,3,3,0,0,1,1-.76A3.16,3.16,0,0,1,99.27,54.42Zm1.63,2.85a2.77,2.77,0,0,0-.16-.71,1.73,1.73,0,0,0-.33-.55,1.43,1.43,0,0,0-.5-.35,1.91,1.91,0,0,0-1.37,0A1.51,1.51,0,0,0,98,56a1.79,1.79,0,0,0-.35.55,2.54,2.54,0,0,0-.17.7Z"/><path class="cls-42" d="M113.77,57.89a4.85,4.85,0,0,1-.17,1.28,3.47,3.47,0,0,1-.52,1.11,2.65,2.65,0,0,1-.88.79,2.51,2.51,0,0,1-1.25.3,2.93,2.93,0,0,1-1.36-.3,1.9,1.9,0,0,1-.86-.87h0v1h-1.37V52.12h1.44v3.47h0a1.88,1.88,0,0,1,.36-.47,2.16,2.16,0,0,1,.5-.36,2.68,2.68,0,0,1,.61-.23,2.85,2.85,0,0,1,.68-.08,2.52,2.52,0,0,1,1.24.29,2.66,2.66,0,0,1,.88.78,3.4,3.4,0,0,1,.52,1.11A4.87,4.87,0,0,1,113.77,57.89Zm-1.45,0a3.74,3.74,0,0,0-.09-.82,2.52,2.52,0,0,0-.3-.76,1.71,1.71,0,0,0-.54-.56,1.5,1.5,0,0,0-.83-.22,1.57,1.57,0,0,0-.82.21,1.71,1.71,0,0,0-.56.54,2.39,2.39,0,0,0-.32.75,3.63,3.63,0,0,0-.1.86,3.68,3.68,0,0,0,.1.83,2.37,2.37,0,0,0,.31.76,1.76,1.76,0,0,0,.56.55,1.57,1.57,0,0,0,.84.21,1.49,1.49,0,0,0,.8-.21,1.69,1.69,0,0,0,.54-.54,2.43,2.43,0,0,0,.31-.75A3.94,3.94,0,0,0,112.32,57.89Z"/><path class="cls-42" d="M118,54.42a2.35,2.35,0,0,1,1.2.3,2.12,2.12,0,0,1,.81.85h0v-1h1.39v6.17a3.42,3.42,0,0,1-.23,1.31,2.39,2.39,0,0,1-.65.92,2.71,2.71,0,0,1-1,.54,4.81,4.81,0,0,1-1.35.18,4.46,4.46,0,0,1-1-.11,2.93,2.93,0,0,1-.86-.33,2.12,2.12,0,0,1-.65-.59,1.76,1.76,0,0,1-.31-.86h1.44a1,1,0,0,0,.49.66,2,2,0,0,0,1,.22,1.64,1.64,0,0,0,1.28-.49,2,2,0,0,0,.44-1.4v-1h0a2,2,0,0,1-.82.84,2.47,2.47,0,0,1-1.22.3,2.92,2.92,0,0,1-1.26-.25,2.46,2.46,0,0,1-.88-.69,3,3,0,0,1-.52-1,4.7,4.7,0,0,1-.17-1.3,4.06,4.06,0,0,1,.18-1.22,3.1,3.1,0,0,1,.54-1,2.67,2.67,0,0,1,.9-.72A2.76,2.76,0,0,1,118,54.42Zm-1.42,3.25a3.41,3.41,0,0,0,.11.87,2,2,0,0,0,.32.68,1.48,1.48,0,0,0,.53.44,1.65,1.65,0,0,0,.74.16,1.58,1.58,0,0,0,.75-.17,1.71,1.71,0,0,0,.55-.46,2,2,0,0,0,.34-.66,2.63,2.63,0,0,0,.11-.78,3.51,3.51,0,0,0-.11-.88,2.07,2.07,0,0,0-.32-.71,1.53,1.53,0,0,0-.55-.47,1.68,1.68,0,0,0-.78-.17,1.57,1.57,0,0,0-.77.18,1.53,1.53,0,0,0-.53.48,2.15,2.15,0,0,0-.3.69,3.18,3.18,0,0,0-.12.81Z"/><path class="cls-42" d="M134.26,52.61v7.3h4.4v1.27h-5.9V52.61Z"/><path class="cls-42" d="M141.28,51.74v1.42h-1.45V51.74Zm0,2.86v6.57h-1.45V54.6Z"/><path class="cls-42" d="M145.82,54.42a2.35,2.35,0,0,1,1.2.3,2.12,2.12,0,0,1,.81.85h0v-1h1.39v6.17A3.42,3.42,0,0,1,149,62a2.39,2.39,0,0,1-.65.92,2.71,2.71,0,0,1-1,.54,4.81,4.81,0,0,1-1.35.18,4.46,4.46,0,0,1-1-.11,2.93,2.93,0,0,1-.86-.33,2.12,2.12,0,0,1-.65-.59,1.76,1.76,0,0,1-.31-.86h1.44a1,1,0,0,0,.49.66,2,2,0,0,0,1,.22,1.64,1.64,0,0,0,1.28-.49,2,2,0,0,0,.44-1.4v-1h0a2,2,0,0,1-.82.84,2.47,2.47,0,0,1-1.22.3,2.92,2.92,0,0,1-1.26-.25,2.46,2.46,0,0,1-.88-.69,3,3,0,0,1-.52-1,4.7,4.7,0,0,1-.17-1.3,4.06,4.06,0,0,1,.18-1.22,3.1,3.1,0,0,1,.54-1,2.67,2.67,0,0,1,.9-.72A2.76,2.76,0,0,1,145.82,54.42Zm-1.42,3.25a3.41,3.41,0,0,0,.11.87,2,2,0,0,0,.32.68,1.48,1.48,0,0,0,.53.44,1.65,1.65,0,0,0,.74.16,1.58,1.58,0,0,0,.75-.17,1.71,1.71,0,0,0,.55-.46,2,2,0,0,0,.34-.66,2.63,2.63,0,0,0,.11-.78,3.51,3.51,0,0,0-.11-.88,2.07,2.07,0,0,0-.32-.71,1.53,1.53,0,0,0-.55-.47,1.68,1.68,0,0,0-.78-.17,1.57,1.57,0,0,0-.77.18,1.53,1.53,0,0,0-.53.48,2.15,2.15,0,0,0-.3.69,3.18,3.18,0,0,0-.1.81Z"/><path class="cls-42" d="M155.63,61.17v-3.9a2.11,2.11,0,0,0-.32-1.27,1.19,1.19,0,0,0-1-.43,1.79,1.79,0,0,0-.72.13,1.33,1.33,0,0,0-.51.39,1.68,1.68,0,0,0-.3.62,3.13,3.13,0,0,0-.1.83v3.63H151.2V52.09h1.44v3.5h0a1.94,1.94,0,0,1,.35-.48,2.36,2.36,0,0,1,.47-.37,2.24,2.24,0,0,1,.56-.24,2.32,2.32,0,0,1,.61-.08,3.33,3.33,0,0,1,1.08.16,1.77,1.77,0,0,1,.74.47,2,2,0,0,1,.43.81A4.22,4.22,0,0,1,157,57v4.17Z"/><path class="cls-42" d="M162.24,61.22h-.83a4.59,4.59,0,0,1-.74-.06,1.58,1.58,0,0,1-.6-.22,1.12,1.12,0,0,1-.4-.45,1.67,1.67,0,0,1-.15-.76V55.58h-1.29v-1h1.29v-2H161v2h1.5v1H161V59.3a.83.83,0,0,0,.17.58.8.8,0,0,0,.59.18h.74V61.2Z"/><path class="cls-42" d="M169.94,54.42a2.35,2.35,0,0,1,1.2.3,2.12,2.12,0,0,1,.81.85h0v-1h1.39v6.17a3.42,3.42,0,0,1-.23,1.31,2.39,2.39,0,0,1-.65.92,2.71,2.71,0,0,1-1,.54,4.81,4.81,0,0,1-1.35.18,4.46,4.46,0,0,1-1-.11,2.93,2.93,0,0,1-.86-.33,2.12,2.12,0,0,1-.65-.59,1.76,1.76,0,0,1-.31-.86h1.44a1,1,0,0,0,.49.66,2,2,0,0,0,1,.22,1.64,1.64,0,0,0,1.28-.49,2,2,0,0,0,.44-1.4v-1h0a2,2,0,0,1-.82.84,2.47,2.47,0,0,1-1.22.3,2.92,2.92,0,0,1-1.26-.25,2.46,2.46,0,0,1-.88-.69,3,3,0,0,1-.52-1,4.7,4.7,0,0,1-.17-1.3,4.06,4.06,0,0,1,.18-1.22,3.1,3.1,0,0,1,.54-1,2.67,2.67,0,0,1,.9-.72A2.76,2.76,0,0,1,169.94,54.42Zm-1.42,3.25a3.41,3.41,0,0,0,.11.87,2,2,0,0,0,.32.68,1.48,1.48,0,0,0,.53.44,1.65,1.65,0,0,0,.74.16,1.58,1.58,0,0,0,.75-.17,1.71,1.71,0,0,0,.55-.46,2,2,0,0,0,.34-.66,2.63,2.63,0,0,0,.11-.78,3.51,3.51,0,0,0-.11-.88,2.07,2.07,0,0,0-.32-.71,1.53,1.53,0,0,0-.55-.47,1.68,1.68,0,0,0-.78-.17,1.57,1.57,0,0,0-.77.18,1.53,1.53,0,0,0-.53.48,2.15,2.15,0,0,0-.3.69,3.18,3.18,0,0,0-.09.81Z"/><path class="cls-42" d="M175.33,61.17V54.6h1.37v1.34h0a2.4,2.4,0,0,1,.87-1.08,2.23,2.23,0,0,1,1.29-.39h.41v1.36h-.53a1.84,1.84,0,0,0-1.48.6,2.36,2.36,0,0,0-.51,1.57v3.18Z"/><path class="cls-42" d="M183.14,54.42a3,3,0,0,1,1.34.28,2.78,2.78,0,0,1,1,.77,3.33,3.33,0,0,1,.58,1.13,4.76,4.76,0,0,1,.19,1.37v.26H181.4a2.77,2.77,0,0,0,.13.81,1.9,1.9,0,0,0,.35.63,1.55,1.55,0,0,0,.54.41,1.7,1.7,0,0,0,.72.15,1.9,1.9,0,0,0,1-.23,1.7,1.7,0,0,0,.61-.6h1.37a3.06,3.06,0,0,1-.45.81,2.83,2.83,0,0,1-.66.62,3,3,0,0,1-.85.39,3.66,3.66,0,0,1-1,.13,3.28,3.28,0,0,1-1.33-.26,2.82,2.82,0,0,1-1-.72,3.18,3.18,0,0,1-.62-1.1,4.31,4.31,0,0,1-.22-1.4,4,4,0,0,1,.22-1.33,3.3,3.3,0,0,1,.63-1.1,3,3,0,0,1,1-.76A3.16,3.16,0,0,1,183.14,54.42Zm1.63,2.85a2.77,2.77,0,0,0-.16-.71,1.73,1.73,0,0,0-.33-.55,1.43,1.43,0,0,0-.5-.35,1.91,1.91,0,0,0-1.37,0,1.51,1.51,0,0,0-.52.36,1.79,1.79,0,0,0-.35.55,2.54,2.54,0,0,0-.17.7Z"/><path class="cls-42" d="M188.42,54.6l1.73,5h0l1.64-5h1.49l-2.81,7.52a3,3,0,0,1-.29.59,1.79,1.79,0,0,1-.4.44,1.71,1.71,0,0,1-.54.28,2.43,2.43,0,0,1-.72.1h-1v-1.2l.45.05h.35a1,1,0,0,0,.4-.07.76.76,0,0,0,.28-.21,1.39,1.39,0,0,0,.21-.36q.09-.22.18-.52l-2.53-6.57Z"/><path class="cls-42" d="M156.55,72.29a4.85,4.85,0,0,1-.17,1.28,3.47,3.47,0,0,1-.52,1.11,2.65,2.65,0,0,1-.88.79,2.51,2.51,0,0,1-1.25.3,2.93,2.93,0,0,1-1.36-.3,1.9,1.9,0,0,1-.86-.87h0v1h-1.37V66.52h1.44V70h0a1.88,1.88,0,0,1,.36-.47,2.16,2.16,0,0,1,.5-.36,2.68,2.68,0,0,1,.61-.23,2.85,2.85,0,0,1,.68-.08,2.52,2.52,0,0,1,1.24.29,2.66,2.66,0,0,1,.88.78,3.4,3.4,0,0,1,.52,1.11A4.87,4.87,0,0,1,156.55,72.29Zm-1.45,0a3.74,3.74,0,0,0-.09-.82,2.52,2.52,0,0,0-.3-.76,1.71,1.71,0,0,0-.54-.56,1.5,1.5,0,0,0-.83-.22,1.57,1.57,0,0,0-.82.21,1.71,1.71,0,0,0-.56.54,2.39,2.39,0,0,0-.32.75,3.63,3.63,0,0,0-.1.86,3.68,3.68,0,0,0,.1.83,2.37,2.37,0,0,0,.31.76,1.76,1.76,0,0,0,.56.55,1.57,1.57,0,0,0,.84.21,1.49,1.49,0,0,0,.8-.21,1.69,1.69,0,0,0,.54-.54,2.43,2.43,0,0,0,.31-.75,3.94,3.94,0,0,0,.11-.85Z"/><path class="cls-42" d="M160.76,68.83a2.35,2.35,0,0,1,1.2.3,2.12,2.12,0,0,1,.81.85h0V69h1.39v6.17a3.42,3.42,0,0,1-.23,1.31,2.39,2.39,0,0,1-.65.92,2.71,2.71,0,0,1-1,.54,4.81,4.81,0,0,1-1.35.18,4.46,4.46,0,0,1-1-.11,2.93,2.93,0,0,1-.86-.33,2.12,2.12,0,0,1-.65-.59,1.76,1.76,0,0,1-.31-.86h1.44a1,1,0,0,0,.49.66,2,2,0,0,0,1,.22,1.64,1.64,0,0,0,1.28-.49,2,2,0,0,0,.44-1.4v-1h0a2,2,0,0,1-.82.84,2.47,2.47,0,0,1-1.22.3,2.92,2.92,0,0,1-1.26-.25,2.46,2.46,0,0,1-.88-.69,3,3,0,0,1-.52-1,4.7,4.7,0,0,1-.17-1.3,4.06,4.06,0,0,1,.18-1.22,3.1,3.1,0,0,1,.54-1,2.67,2.67,0,0,1,.9-.72A2.76,2.76,0,0,1,160.76,68.83Zm-1.42,3.25a3.41,3.41,0,0,0,.11.87,2,2,0,0,0,.32.68,1.48,1.48,0,0,0,.53.44,1.65,1.65,0,0,0,.74.16,1.58,1.58,0,0,0,.75-.17,1.71,1.71,0,0,0,.55-.46,2,2,0,0,0,.34-.66,2.63,2.63,0,0,0,.11-.78,3.51,3.51,0,0,0-.11-.88,2.07,2.07,0,0,0-.32-.71,1.53,1.53,0,0,0-.55-.47,1.68,1.68,0,0,0-.78-.17,1.57,1.57,0,0,0-.77.18,1.53,1.53,0,0,0-.53.48,2.15,2.15,0,0,0-.3.69A3.18,3.18,0,0,0,159.34,72.08Z"/><path class="cls-42" d="M172.12,75.58V69.7h-2.2v-1a6,6,0,0,0,.9-.07,2.36,2.36,0,0,0,.63-.18,1.57,1.57,0,0,0,.64-.55,2.21,2.21,0,0,0,.31-.89h1.11v8.6Z"/><path class="cls-42" d="M273.69,52.61v7.3h4.4v1.27h-5.9V52.61Z"/><path class="cls-42" d="M280.72,51.74v1.42h-1.45V51.74Zm0,2.86v6.57h-1.45V54.6Z"/><path class="cls-42" d="M285.25,54.42a2.35,2.35,0,0,1,1.2.3,2.12,2.12,0,0,1,.81.85h0v-1h1.39v6.17a3.42,3.42,0,0,1-.23,1.31,2.39,2.39,0,0,1-.65.92,2.71,2.71,0,0,1-1,.54,4.81,4.81,0,0,1-1.35.18,4.46,4.46,0,0,1-1-.11,2.93,2.93,0,0,1-.86-.33,2.12,2.12,0,0,1-.65-.59,1.76,1.76,0,0,1-.31-.86H284a1,1,0,0,0,.49.66,2,2,0,0,0,1,.22,1.64,1.64,0,0,0,1.28-.49,2,2,0,0,0,.44-1.4v-1h0a2,2,0,0,1-.82.84,2.47,2.47,0,0,1-1.22.3,2.92,2.92,0,0,1-1.26-.25,2.46,2.46,0,0,1-.88-.69,3,3,0,0,1-.52-1,4.7,4.7,0,0,1-.17-1.3,4.06,4.06,0,0,1,.18-1.22,3.1,3.1,0,0,1,.54-1,2.67,2.67,0,0,1,.9-.72A2.76,2.76,0,0,1,285.25,54.42Zm-1.42,3.25a3.41,3.41,0,0,0,.11.87,2,2,0,0,0,.32.68,1.48,1.48,0,0,0,.53.44,1.65,1.65,0,0,0,.74.16,1.58,1.58,0,0,0,.75-.17,1.71,1.71,0,0,0,.55-.46,2,2,0,0,0,.34-.66,2.63,2.63,0,0,0,.11-.78,3.51,3.51,0,0,0-.11-.88,2.07,2.07,0,0,0-.32-.71,1.53,1.53,0,0,0-.55-.47,1.68,1.68,0,0,0-.78-.17,1.57,1.57,0,0,0-.77.18,1.53,1.53,0,0,0-.53.48,2.15,2.15,0,0,0-.3.69,3.18,3.18,0,0,0-.09.81Z"/><path class="cls-42" d="M295.06,61.17v-3.9a2.11,2.11,0,0,0-.32-1.27,1.19,1.19,0,0,0-1-.43,1.79,1.79,0,0,0-.72.13,1.33,1.33,0,0,0-.51.39,1.68,1.68,0,0,0-.3.62,3.13,3.13,0,0,0-.1.83v3.63h-1.44V52.09h1.44v3.5h0a1.94,1.94,0,0,1,.35-.48,2.36,2.36,0,0,1,.47-.37,2.24,2.24,0,0,1,.56-.24,2.32,2.32,0,0,1,.61-.08,3.33,3.33,0,0,1,1.08.16,1.77,1.77,0,0,1,.74.47,2,2,0,0,1,.43.81,4.22,4.22,0,0,1,.14,1.14v4.17Z"/><path class="cls-42" d="M301.67,61.22h-.83a4.59,4.59,0,0,1-.74-.06,1.58,1.58,0,0,1-.6-.22,1.12,1.12,0,0,1-.4-.45,1.67,1.67,0,0,1-.15-.76V55.58h-1.29v-1H299v-2h1.45v2H302v1h-1.5V59.3a.83.83,0,0,0,.17.58.8.8,0,0,0,.59.18H302V61.2Z"/><path class="cls-42" d="M309.37,54.42a2.35,2.35,0,0,1,1.2.3,2.12,2.12,0,0,1,.81.85h0v-1h1.39v6.17a3.42,3.42,0,0,1-.23,1.31,2.39,2.39,0,0,1-.65.92,2.71,2.71,0,0,1-1,.54,4.81,4.81,0,0,1-1.35.18,4.46,4.46,0,0,1-1-.11,2.93,2.93,0,0,1-.86-.33,2.12,2.12,0,0,1-.65-.59,1.76,1.76,0,0,1-.31-.86h1.44a1,1,0,0,0,.49.66,2,2,0,0,0,1,.22,1.64,1.64,0,0,0,1.28-.49,2,2,0,0,0,.44-1.4v-1h0a2,2,0,0,1-.82.84,2.47,2.47,0,0,1-1.22.3,2.92,2.92,0,0,1-1.26-.25,2.46,2.46,0,0,1-.88-.69,3,3,0,0,1-.52-1,4.7,4.7,0,0,1-.17-1.3,4.06,4.06,0,0,1,.18-1.22,3.1,3.1,0,0,1,.54-1,2.67,2.67,0,0,1,.9-.72A2.76,2.76,0,0,1,309.37,54.42ZM308,57.68a3.41,3.41,0,0,0,.11.87,2,2,0,0,0,.32.68,1.48,1.48,0,0,0,.53.44,1.65,1.65,0,0,0,.74.16,1.58,1.58,0,0,0,.75-.17,1.71,1.71,0,0,0,.55-.46,2,2,0,0,0,.34-.66,2.63,2.63,0,0,0,.11-.78,3.51,3.51,0,0,0-.11-.88,2.07,2.07,0,0,0-.32-.71,1.53,1.53,0,0,0-.55-.47,1.68,1.68,0,0,0-.78-.17,1.57,1.57,0,0,0-.77.18,1.53,1.53,0,0,0-.53.48,2.15,2.15,0,0,0-.3.69A3.18,3.18,0,0,0,308,57.68Z"/><path class="cls-42" d="M314.76,61.17V54.6h1.37v1.34h0a2.4,2.4,0,0,1,.87-1.08,2.23,2.23,0,0,1,1.29-.39h.41v1.36h-.53a1.84,1.84,0,0,0-1.48.6,2.36,2.36,0,0,0-.51,1.57v3.18Z"/><path class="cls-42" d="M322.58,54.42a3,3,0,0,1,1.34.28,2.78,2.78,0,0,1,1,.77,3.33,3.33,0,0,1,.58,1.13,4.76,4.76,0,0,1,.19,1.37v.26h-4.85A2.77,2.77,0,0,0,321,59a1.9,1.9,0,0,0,.35.63,1.55,1.55,0,0,0,.54.41,1.7,1.7,0,0,0,.72.15,1.9,1.9,0,0,0,1-.23,1.7,1.7,0,0,0,.61-.6h1.37a3.06,3.06,0,0,1-.45.81,2.83,2.83,0,0,1-.66.62,3,3,0,0,1-.85.39,3.66,3.66,0,0,1-1,.13,3.28,3.28,0,0,1-1.33-.26,2.82,2.82,0,0,1-1-.72,3.18,3.18,0,0,1-.62-1.1,4.31,4.31,0,0,1-.22-1.4,4,4,0,0,1,.22-1.33,3.3,3.3,0,0,1,.63-1.1,3,3,0,0,1,1-.76A3.16,3.16,0,0,1,322.58,54.42Zm1.63,2.85a2.77,2.77,0,0,0-.16-.71,1.73,1.73,0,0,0-.33-.55,1.43,1.43,0,0,0-.5-.35,1.91,1.91,0,0,0-1.37,0,1.51,1.51,0,0,0-.52.36,1.79,1.79,0,0,0-.35.55,2.54,2.54,0,0,0-.17.7Z"/><path class="cls-42" d="M327.85,54.6l1.73,5h0l1.64-5h1.49l-2.81,7.52a3,3,0,0,1-.29.59,1.79,1.79,0,0,1-.4.44,1.71,1.71,0,0,1-.54.28,2.43,2.43,0,0,1-.72.1h-1v-1.2l.45.05h.35a1,1,0,0,0,.4-.07.76.76,0,0,0,.28-.21,1.39,1.39,0,0,0,.21-.36q.09-.22.18-.52l-2.53-6.57Z"/><path class="cls-42" d="M296,72.29a4.85,4.85,0,0,1-.17,1.28,3.47,3.47,0,0,1-.52,1.11,2.65,2.65,0,0,1-.88.79,2.51,2.51,0,0,1-1.25.3,2.93,2.93,0,0,1-1.36-.3,1.9,1.9,0,0,1-.86-.87h0v1h-1.37V66.52H291V70h0a1.88,1.88,0,0,1,.36-.47,2.16,2.16,0,0,1,.5-.36,2.68,2.68,0,0,1,.61-.23,2.85,2.85,0,0,1,.68-.08,2.52,2.52,0,0,1,1.24.29,2.66,2.66,0,0,1,.88.78,3.4,3.4,0,0,1,.52,1.11A4.87,4.87,0,0,1,296,72.29Zm-1.45,0a3.74,3.74,0,0,0-.09-.82,2.52,2.52,0,0,0-.3-.76,1.71,1.71,0,0,0-.54-.56,1.5,1.5,0,0,0-.83-.22,1.57,1.57,0,0,0-.82.21,1.71,1.71,0,0,0-.56.54,2.39,2.39,0,0,0-.32.75,3.63,3.63,0,0,0-.1.86,3.68,3.68,0,0,0,.1.83,2.37,2.37,0,0,0,.31.76,1.76,1.76,0,0,0,.56.55,1.57,1.57,0,0,0,.84.21,1.49,1.49,0,0,0,.8-.21,1.69,1.69,0,0,0,.54-.54,2.43,2.43,0,0,0,.31-.75,3.94,3.94,0,0,0,.09-.85Z"/><path class="cls-42" d="M300.2,68.83a2.35,2.35,0,0,1,1.2.3,2.12,2.12,0,0,1,.81.85h0V69h1.39v6.17a3.42,3.42,0,0,1-.23,1.31,2.39,2.39,0,0,1-.65.92,2.71,2.71,0,0,1-1,.54,4.81,4.81,0,0,1-1.35.18,4.46,4.46,0,0,1-1-.11,2.93,2.93,0,0,1-.86-.33,2.12,2.12,0,0,1-.65-.59,1.76,1.76,0,0,1-.31-.86H299a1,1,0,0,0,.49.66,2,2,0,0,0,1,.22,1.64,1.64,0,0,0,1.28-.49,2,2,0,0,0,.44-1.4v-1h0a2,2,0,0,1-.82.84,2.47,2.47,0,0,1-1.22.3,2.92,2.92,0,0,1-1.26-.25,2.46,2.46,0,0,1-.88-.69,3,3,0,0,1-.52-1,4.7,4.7,0,0,1-.17-1.3,4.06,4.06,0,0,1,.18-1.22,3.1,3.1,0,0,1,.54-1,2.67,2.67,0,0,1,.9-.72A2.76,2.76,0,0,1,300.2,68.83Zm-1.42,3.25a3.41,3.41,0,0,0,.11.87,2,2,0,0,0,.32.68,1.48,1.48,0,0,0,.53.44,1.65,1.65,0,0,0,.74.16,1.58,1.58,0,0,0,.75-.17,1.71,1.71,0,0,0,.55-.46,2,2,0,0,0,.34-.66,2.63,2.63,0,0,0,.11-.78,3.51,3.51,0,0,0-.11-.88,2.07,2.07,0,0,0-.32-.71,1.53,1.53,0,0,0-.55-.47,1.68,1.68,0,0,0-.78-.17,1.57,1.57,0,0,0-.77.18,1.53,1.53,0,0,0-.53.48,2.15,2.15,0,0,0-.3.69,3.18,3.18,0,0,0-.1.8Z"/><path class="cls-42" d="M311.87,66.84a3,3,0,0,1,2,.7,2.22,2.22,0,0,1,.6.83,2.77,2.77,0,0,1,.19,1.06A2.82,2.82,0,0,1,314.2,71a5.83,5.83,0,0,1-1.78,1.54,8.89,8.89,0,0,0-.85.57,6.91,6.91,0,0,0-.58.47,2.8,2.8,0,0,0-.62.81h4.33v1.21h-6.08A3.35,3.35,0,0,1,309,74a3.73,3.73,0,0,1,.51-.69,5.59,5.59,0,0,1,.74-.66l1-.71,1.12-.83a2.7,2.7,0,0,0,.71-.75,1.61,1.61,0,0,0,.23-.83,1.68,1.68,0,0,0-.1-.59,1.33,1.33,0,0,0-.31-.48,1.44,1.44,0,0,0-.47-.3,1.77,1.77,0,0,0-1.31,0,1.46,1.46,0,0,0-.5.38,1.58,1.58,0,0,0-.29.53,2,2,0,0,0-.1.61v.15H308.9v-.15a3.14,3.14,0,0,1,.21-1.15,2.54,2.54,0,0,1,.59-.9,2.71,2.71,0,0,1,.94-.59A3.45,3.45,0,0,1,311.87,66.84Z"/><path class="cls-42" d="M70.76,100.49,71.1,98H69.76l-.35,2.48h-1L68.76,98H67.68v-.88h1.23l.23-1.63H68v-.88h1.23l.35-2.48h1l-.35,2.48h1.35l.34-2.48h1l-.35,2.48h1v.88H72.42l-.23,1.63h1V98H72.06l-.35,2.48Zm.69-5H70.11l-.23,1.63h1.35Z"/><path class="cls-42" d="M81.09,91.92v1.27H76.77v2.38h3.77v1.19H76.77v3.73h-1.5V91.92Z"/><path class="cls-42" d="M88.21,91.92v1.27H83.89v2.38h3.77v1.19H83.89v3.73h-1.5V91.92Z"/><path class="cls-42" d="M95.33,91.92v1.27H91v2.38h3.77v1.19H91v3.73H89.5V91.92Z"/><path class="cls-42" d="M102.44,91.92v1.27H98.13v2.38h3.77v1.19H98.13v3.73h-1.5V91.92Z"/><path class="cls-42" d="M109.56,91.92v1.27h-4.31v2.38H109v1.19h-3.77v3.73h-1.5V91.92Z"/><path class="cls-42" d="M116.68,91.92v1.27h-4.31v2.38h3.77v1.19h-3.77v3.73h-1.5V91.92Z"/><path class="cls-42" d="M139.43,100.49l.34-2.48h-1.35l-.35,2.48h-1l.35-2.48h-1.11v-.88h1.23l.23-1.63H136.7v-.88h1.23l.35-2.48h1l-.35,2.48h1.35l.34-2.48h1l-.35,2.48h1v.88h-1.14l-.23,1.63h1V98h-1.15l-.35,2.48Zm.69-5h-1.34l-.23,1.63h1.35Z"/><path class="cls-42" d="M149.76,91.92v1.27h-4.31v2.38h3.77v1.19h-3.77v3.73h-1.5V91.92Z"/><path class="cls-42" d="M156.26,100.49l-.74-2.18H152l-.75,2.18h-1.53l3.08-8.55h2l3,8.55ZM153.78,93h0l-1.41,4.13h2.79Z"/><path class="cls-42" d="M164.74,91.92v1.27h-4.31v2.38h3.77v1.19h-3.77v3.73h-1.5V91.92Z"/><path class="cls-42" d="M171.24,100.49l-.74-2.18H167l-.75,2.18h-1.53l3.08-8.55h2l3,8.55ZM168.76,93h0l-1.41,4.13h2.79Z"/><path class="cls-42" d="M179.72,91.92v1.27h-4.31v2.38h3.77v1.19h-3.77v3.73h-1.5V91.92Z"/><path class="cls-42" d="M186.22,100.49l-.74-2.18h-3.55l-.75,2.18h-1.53l3.08-8.55h2l3,8.55ZM183.74,93h0l-1.41,4.13h2.79Z"/><path class="cls-42" d="M282.76,100.49,283.1,98h-1.35l-.35,2.48h-1l.35-2.48h-1.11v-.88h1.23l.23-1.63H280v-.88h1.23l.35-2.48h1l-.35,2.48h1.35l.34-2.48h1l-.35,2.48h1v.88h-1.14l-.23,1.63h1V98H284l-.35,2.48Zm.69-5H282.1l-.23,1.63h1.35Z"/><path class="cls-42" d="M293.09,91.92v1.27h-4.31v2.38h3.77v1.19h-3.77v3.73h-1.5V91.92Z"/><path class="cls-42" d="M297,91.75a2.66,2.66,0,0,1,2.32,1.13,5.72,5.72,0,0,1,.79,3.3,5.83,5.83,0,0,1-.79,3.35,2.92,2.92,0,0,1-4.62,0,5.81,5.81,0,0,1-.79-3.35,5.74,5.74,0,0,1,.79-3.31A2.64,2.64,0,0,1,297,91.75Zm-1.7,4.44a10.28,10.28,0,0,0,.07,1.25,4.18,4.18,0,0,0,.26,1.06,1.83,1.83,0,0,0,.52.74,1.28,1.28,0,0,0,.85.28,1.31,1.31,0,0,0,1.08-.51,2.12,2.12,0,0,0,.31-.56,4.17,4.17,0,0,0,.2-.69,6.33,6.33,0,0,0,.1-.77v-.8a9.63,9.63,0,0,0-.08-1.27,3.8,3.8,0,0,0-.28-1,1.82,1.82,0,0,0-.53-.71,1.32,1.32,0,0,0-.84-.26,1.29,1.29,0,0,0-.6.13,1.39,1.39,0,0,0-.45.37,2,2,0,0,0-.31.55,4.32,4.32,0,0,0-.19.68,6.52,6.52,0,0,0-.11.76q0,.35,0,.75Z"/><path class="cls-42" d="M307.47,91.92v1.27h-4.31v2.38h3.77v1.19h-3.77v3.73h-1.5V91.92Z"/><path class="cls-42" d="M311.37,91.75a2.66,2.66,0,0,1,2.32,1.13,5.72,5.72,0,0,1,.79,3.3,5.83,5.83,0,0,1-.79,3.35,2.92,2.92,0,0,1-4.62,0,5.81,5.81,0,0,1-.79-3.35,5.74,5.74,0,0,1,.79-3.31A2.64,2.64,0,0,1,311.37,91.75Zm-1.7,4.44a10.28,10.28,0,0,0,.07,1.25A4.18,4.18,0,0,0,310,98.5a1.83,1.83,0,0,0,.52.74,1.28,1.28,0,0,0,.85.28,1.31,1.31,0,0,0,1.08-.51,2.12,2.12,0,0,0,.31-.56,4.17,4.17,0,0,0,.2-.69,6.33,6.33,0,0,0,.1-.77v-.8a9.63,9.63,0,0,0-.08-1.27,3.8,3.8,0,0,0-.28-1,1.82,1.82,0,0,0-.53-.71,1.32,1.32,0,0,0-.84-.26,1.29,1.29,0,0,0-.6.13,1.39,1.39,0,0,0-.45.37A2,2,0,0,0,310,94a4.32,4.32,0,0,0-.19.68,6.52,6.52,0,0,0-.11.76v.75Z"/><path class="cls-42" d="M321.85,91.92v1.27h-4.31v2.38h3.77v1.19h-3.77v3.73H316V91.92Z"/><path class="cls-42" d="M325.76,91.75a2.66,2.66,0,0,1,2.32,1.13,5.72,5.72,0,0,1,.79,3.3,5.83,5.83,0,0,1-.79,3.35,2.92,2.92,0,0,1-4.62,0,5.81,5.81,0,0,1-.79-3.35,5.74,5.74,0,0,1,.79-3.31A2.64,2.64,0,0,1,325.76,91.75Zm-1.7,4.44a10.28,10.28,0,0,0,.07,1.25,4.18,4.18,0,0,0,.26,1.06,1.83,1.83,0,0,0,.52.74,1.28,1.28,0,0,0,.85.28,1.31,1.31,0,0,0,1.08-.51,2.12,2.12,0,0,0,.31-.56,4.17,4.17,0,0,0,.2-.69,6.33,6.33,0,0,0,.1-.77v-.8a9.63,9.63,0,0,0-.08-1.27,3.8,3.8,0,0,0-.28-1,1.82,1.82,0,0,0-.53-.71,1.32,1.32,0,0,0-.84-.26,1.29,1.29,0,0,0-.6.13,1.39,1.39,0,0,0-.45.37,2,2,0,0,0-.31.55,4.32,4.32,0,0,0-.19.68,6.52,6.52,0,0,0-.11.76Z"/><path class="cls-1" d="M489.79,197.88a2.43,2.43,0,0,1-.22,1.07,2.15,2.15,0,0,1-.62.77,2.77,2.77,0,0,1-.94.47,4.28,4.28,0,0,1-1.2.16h-4v-8.57h4a4.72,4.72,0,0,1,1.11.12,2.35,2.35,0,0,1,.84.38,1.68,1.68,0,0,1,.54.66,2.25,2.25,0,0,1,.19,1,1.88,1.88,0,0,1-.34,1.13,2,2,0,0,1-1,.7h0a2.54,2.54,0,0,1,.74.3,1.83,1.83,0,0,1,.52.47,2,2,0,0,1,.3.62A2.58,2.58,0,0,1,489.79,197.88Zm-1.83-3.7a1.08,1.08,0,0,0-.38-.91,1.81,1.81,0,0,0-1.12-.29h-2.17v2.38h2.27a2,2,0,0,0,.54-.07,1.32,1.32,0,0,0,.44-.21,1,1,0,0,0,.3-.37,1.28,1.28,0,0,0,.16-.54Zm.33,3.63a1.25,1.25,0,0,0-.42-1,1.9,1.9,0,0,0-1.23-.35h-2.35v2.73h2.36a2,2,0,0,0,1.22-.33,1.21,1.21,0,0,0,.42-1.06Z"/><path class="cls-1" d="M492.79,191.26v9.08h-1.45v-9.08Z"/><path class="cls-1" d="M500.88,200.34l-.44.09H500a1.79,1.79,0,0,1-.42,0,.91.91,0,0,1-.34-.16A.84.84,0,0,1,499,200a1.28,1.28,0,0,1-.12-.45h0a2.67,2.67,0,0,1-.45.46,2.3,2.3,0,0,1-.52.31,3.32,3.32,0,0,1-1.31.24A2.42,2.42,0,0,1,495,200a1.77,1.77,0,0,1-.6-1.45,1.7,1.7,0,0,1,.6-1.42,2.11,2.11,0,0,1,.58-.32,4.68,4.68,0,0,1,.73-.2q.39-.08.82-.13l.87-.1.34-.07a.8.8,0,0,0,.27-.13.59.59,0,0,0,.17-.22.79.79,0,0,0,.06-.33,1,1,0,0,0-.31-.79,2.11,2.11,0,0,0-2,0,1,1,0,0,0-.39.73h-1.45a1.9,1.9,0,0,1,.9-1.52,2.88,2.88,0,0,1,.9-.36,5.08,5.08,0,0,1,1.13-.12,3.42,3.42,0,0,1,2,.5,1.65,1.65,0,0,1,.67,1.41V199a.47.47,0,0,0,.08.3.33.33,0,0,0,.27.1h.25Zm-2-3.35h0a1,1,0,0,1-.54.23l-.48.08-.65.11a2.2,2.2,0,0,0-1,.37.87.87,0,0,0-.32.72.89.89,0,0,0,.37.76,1.48,1.48,0,0,0,.87.24,1.79,1.79,0,0,0,1.27-.43,1.59,1.59,0,0,0,.49-1.24Z"/><path class="cls-1" d="M505.23,193.59a4.08,4.08,0,0,1,1.06.13,2.82,2.82,0,0,1,.89.41,2.27,2.27,0,0,1,.64.68,2.3,2.3,0,0,1,.31.95h-1.42a1.21,1.21,0,0,0-.47-.78,1.69,1.69,0,0,0-1-.27,1.53,1.53,0,0,0-.81.21,1.8,1.8,0,0,0-.57.54,2.44,2.44,0,0,0-.33.76,3.42,3.42,0,0,0,0,1.67,2.42,2.42,0,0,0,.32.75,1.78,1.78,0,0,0,.56.55,1.51,1.51,0,0,0,.82.21,1.81,1.81,0,0,0,.6-.09,1.48,1.48,0,0,0,.47-.26,1.4,1.4,0,0,0,.33-.41,1.75,1.75,0,0,0,.18-.52h1.4a3.08,3.08,0,0,1-.33,1,2.59,2.59,0,0,1-.62.76,2.78,2.78,0,0,1-.89.49,3.49,3.49,0,0,1-1.14.18,3.33,3.33,0,0,1-1.32-.25,3,3,0,0,1-1-.71,3.22,3.22,0,0,1-.67-1.08,3.83,3.83,0,0,1-.24-1.37,4.25,4.25,0,0,1,.21-1.36,3.31,3.31,0,0,1,.63-1.12,3,3,0,0,1,1-.76A3.33,3.33,0,0,1,505.23,193.59Z"/><path class="cls-1" d="M511.25,191.26v5.17l2.77-2.66h1.75l-2.6,2.42,2.84,4.15h-1.76l-2.09-3.16-.91.81v2.35H509.8v-9.08Z"/><path class="cls-1" d="M526.24,200.34l-.74-2.18H522l-.75,2.18h-1.53l3.08-8.55h2l3,8.55Zm-2.48-7.45h0L522.32,197h2.79Z"/><path class="cls-1" d="M535.91,197.88a2.43,2.43,0,0,1-.22,1.07,2.15,2.15,0,0,1-.62.77,2.77,2.77,0,0,1-.94.47,4.28,4.28,0,0,1-1.2.16h-4v-8.57h4a4.72,4.72,0,0,1,1.11.12,2.35,2.35,0,0,1,.84.38,1.68,1.68,0,0,1,.54.66,2.25,2.25,0,0,1,.19,1,1.88,1.88,0,0,1-.34,1.13,2,2,0,0,1-1,.7h0a2.54,2.54,0,0,1,.74.3,1.83,1.83,0,0,1,.52.47,2,2,0,0,1,.3.62A2.58,2.58,0,0,1,535.91,197.88Zm-1.83-3.7a1.08,1.08,0,0,0-.38-.91,1.81,1.81,0,0,0-1.12-.29H530.4v2.38h2.27a2,2,0,0,0,.54-.07,1.32,1.32,0,0,0,.44-.21,1,1,0,0,0,.3-.37,1.28,1.28,0,0,0,.12-.54Zm.33,3.63a1.25,1.25,0,0,0-.42-1,1.9,1.9,0,0,0-1.23-.35H530.4v2.73h2.36a2,2,0,0,0,1.22-.33,1.21,1.21,0,0,0,.43-1.06Z"/><path class="cls-1" d="M544.48,197.88a2.43,2.43,0,0,1-.22,1.07,2.15,2.15,0,0,1-.62.77,2.77,2.77,0,0,1-.94.47,4.28,4.28,0,0,1-1.2.16h-4v-8.57h4a4.72,4.72,0,0,1,1.11.12,2.35,2.35,0,0,1,.84.38,1.68,1.68,0,0,1,.54.66,2.25,2.25,0,0,1,.19,1,1.88,1.88,0,0,1-.34,1.13,2,2,0,0,1-1,.7h0a2.54,2.54,0,0,1,.74.3,1.83,1.83,0,0,1,.52.47,2,2,0,0,1,.3.62A2.58,2.58,0,0,1,544.48,197.88Zm-1.83-3.7a1.08,1.08,0,0,0-.38-.91,1.81,1.81,0,0,0-1.12-.29H539v2.38h2.27a2,2,0,0,0,.54-.07,1.32,1.32,0,0,0,.44-.21,1,1,0,0,0,.3-.37,1.28,1.28,0,0,0,.1-.54Zm.33,3.63a1.25,1.25,0,0,0-.42-1,1.9,1.9,0,0,0-1.23-.35H539v2.73h2.36a2,2,0,0,0,1.22-.33,1.21,1.21,0,0,0,.42-1.06Z"/><path class="cls-1" d="M500.71,211.46a4.85,4.85,0,0,1-.17,1.28,3.47,3.47,0,0,1-.52,1.11,2.65,2.65,0,0,1-.88.79,2.51,2.51,0,0,1-1.25.3,2.93,2.93,0,0,1-1.36-.3,1.9,1.9,0,0,1-.86-.87h0v1H494.3v-9.08h1.44v3.47h0a1.88,1.88,0,0,1,.36-.47,2.16,2.16,0,0,1,.5-.36,2.68,2.68,0,0,1,.61-.23,2.85,2.85,0,0,1,.68-.08,2.52,2.52,0,0,1,1.24.29,2.66,2.66,0,0,1,.88.78,3.4,3.4,0,0,1,.52,1.11A4.87,4.87,0,0,1,500.71,211.46Zm-1.45,0a3.74,3.74,0,0,0-.09-.82,2.52,2.52,0,0,0-.3-.76,1.71,1.71,0,0,0-.54-.56,1.5,1.5,0,0,0-.83-.22,1.57,1.57,0,0,0-.82.21,1.71,1.71,0,0,0-.56.54,2.39,2.39,0,0,0-.32.75,3.63,3.63,0,0,0-.1.86,3.68,3.68,0,0,0,.1.83,2.37,2.37,0,0,0,.31.76,1.76,1.76,0,0,0,.56.55,1.57,1.57,0,0,0,.84.21,1.49,1.49,0,0,0,.8-.21,1.69,1.69,0,0,0,.54-.54,2.43,2.43,0,0,0,.31-.75,3.94,3.94,0,0,0,.11-.85Z"/><path class="cls-1" d="M508.47,214.74l-.44.09h-.39a1.79,1.79,0,0,1-.42,0,.91.91,0,0,1-.34-.16.84.84,0,0,1-.24-.29,1.28,1.28,0,0,1-.12-.45h0a2.67,2.67,0,0,1-.45.46,2.3,2.3,0,0,1-.52.31,3.32,3.32,0,0,1-1.31.24,2.42,2.42,0,0,1-1.62-.51A1.77,1.77,0,0,1,502,213a1.7,1.7,0,0,1,.6-1.42,2.11,2.11,0,0,1,.58-.32,4.68,4.68,0,0,1,.73-.2q.39-.08.82-.13l.87-.1.34-.07a.8.8,0,0,0,.27-.13.59.59,0,0,0,.17-.22.79.79,0,0,0,.06-.33,1,1,0,0,0-.31-.79,2.11,2.11,0,0,0-2,0,1,1,0,0,0-.39.73h-1.45a1.9,1.9,0,0,1,.9-1.52,2.88,2.88,0,0,1,.9-.36,5.08,5.08,0,0,1,1.13-.12,3.42,3.42,0,0,1,2,.5,1.65,1.65,0,0,1,.67,1.41v3.54a.47.47,0,0,0,.08.3.33.33,0,0,0,.27.1h.25Zm-2-3.35h0a1,1,0,0,1-.54.23l-.48.08-.65.11a2.2,2.2,0,0,0-1,.37.87.87,0,0,0-.32.72.89.89,0,0,0,.37.76,1.48,1.48,0,0,0,.87.24,1.79,1.79,0,0,0,1.27-.43,1.59,1.59,0,0,0,.49-1.24Z"/><path class="cls-1" d="M509.84,214.74v-6.57h1.37v1.34h0a2.4,2.4,0,0,1,.87-1.08,2.23,2.23,0,0,1,1.29-.39h.41v1.36h-.53a1.84,1.84,0,0,0-1.48.6,2.36,2.36,0,0,0-.51,1.57v3.18Z"/><path class="cls-1" d="M524.82,211.46a4.85,4.85,0,0,1-.17,1.28,3.47,3.47,0,0,1-.52,1.11,2.65,2.65,0,0,1-.88.79,2.51,2.51,0,0,1-1.25.3,2.93,2.93,0,0,1-1.36-.3,1.9,1.9,0,0,1-.86-.87h0v1H518.4v-9.08h1.44v3.47h0a1.88,1.88,0,0,1,.36-.47,2.16,2.16,0,0,1,.5-.36,2.68,2.68,0,0,1,.61-.23,2.85,2.85,0,0,1,.69-.1,2.52,2.52,0,0,1,1.24.29,2.66,2.66,0,0,1,.88.78,3.4,3.4,0,0,1,.52,1.11A4.87,4.87,0,0,1,524.82,211.46Zm-1.45,0a3.74,3.74,0,0,0-.09-.82,2.52,2.52,0,0,0-.3-.76,1.71,1.71,0,0,0-.54-.56,1.5,1.5,0,0,0-.83-.22,1.57,1.57,0,0,0-.82.21,1.71,1.71,0,0,0-.56.54,2.39,2.39,0,0,0-.32.75,3.63,3.63,0,0,0-.1.86,3.68,3.68,0,0,0,.1.83,2.37,2.37,0,0,0,.31.76,1.76,1.76,0,0,0,.56.55,1.57,1.57,0,0,0,.84.21,1.49,1.49,0,0,0,.8-.21,1.69,1.69,0,0,0,.54-.54,2.43,2.43,0,0,0,.31-.75A3.94,3.94,0,0,0,523.37,211.46Z"/><path class="cls-1" d="M529,208a2.35,2.35,0,0,1,1.2.3,2.12,2.12,0,0,1,.81.85h0v-1h1.39v6.17a3.42,3.42,0,0,1-.23,1.31,2.39,2.39,0,0,1-.65.92,2.71,2.71,0,0,1-1,.54,4.81,4.81,0,0,1-1.35.18,4.46,4.46,0,0,1-1-.11,2.93,2.93,0,0,1-.86-.33,2.12,2.12,0,0,1-.65-.59,1.76,1.76,0,0,1-.31-.86h1.44a1,1,0,0,0,.49.66,2,2,0,0,0,1,.22,1.64,1.64,0,0,0,1.28-.49,2,2,0,0,0,.44-1.4v-1h0a2,2,0,0,1-.82.84,2.47,2.47,0,0,1-1.22.3,2.92,2.92,0,0,1-1.26-.25,2.46,2.46,0,0,1-.88-.69,3,3,0,0,1-.52-1,4.7,4.7,0,0,1-.17-1.3,4.06,4.06,0,0,1,.18-1.22,3.1,3.1,0,0,1,.54-1,2.67,2.67,0,0,1,.9-.72A2.76,2.76,0,0,1,529,208Zm-1.42,3.25a3.41,3.41,0,0,0,.11.87,2,2,0,0,0,.32.68,1.48,1.48,0,0,0,.53.44,1.65,1.65,0,0,0,.74.16,1.58,1.58,0,0,0,.75-.17,1.71,1.71,0,0,0,.55-.46,2,2,0,0,0,.34-.66,2.63,2.63,0,0,0,.11-.78,3.51,3.51,0,0,0-.11-.88,2.07,2.07,0,0,0-.32-.71,1.53,1.53,0,0,0-.55-.47,1.68,1.68,0,0,0-.78-.17,1.57,1.57,0,0,0-.77.18,1.53,1.53,0,0,0-.53.48,2.15,2.15,0,0,0-.3.69,3.18,3.18,0,0,0-.07.8Z"/><path class="cls-1" d="M492.43,239.66l.34-2.48h-1.35l-.35,2.48h-1l.35-2.48h-1.11v-.88h1.23l.23-1.63H489.7v-.88h1.23l.35-2.48h1l-.35,2.48h1.35l.34-2.48h1l-.35,2.48h1v.88h-1.14l-.23,1.63h1v.88h-1.15l-.35,2.48Zm.69-5h-1.34l-.23,1.63h1.35Z"/><path class="cls-1" d="M499.66,230.93a3,3,0,0,1,2,.7,2.22,2.22,0,0,1,.6.83,2.77,2.77,0,0,1,.19,1.06,2.82,2.82,0,0,1-.46,1.55,5.83,5.83,0,0,1-1.78,1.54,8.89,8.89,0,0,0-.85.57,6.91,6.91,0,0,0-.58.47,2.8,2.8,0,0,0-.62.81h4.33v1.21h-6.08a3.35,3.35,0,0,1,.39-1.59,3.73,3.73,0,0,1,.51-.69,5.59,5.59,0,0,1,.74-.66L499,236l1.12-.83a2.7,2.7,0,0,0,.71-.75,1.61,1.61,0,0,0,.23-.83,1.68,1.68,0,0,0-.1-.59,1.33,1.33,0,0,0-.31-.48,1.44,1.44,0,0,0-.47-.3,1.77,1.77,0,0,0-1.31,0,1.46,1.46,0,0,0-.5.38,1.58,1.58,0,0,0-.29.53,2,2,0,0,0-.1.61v.15h-1.34v-.15a3.14,3.14,0,0,1,.21-1.15,2.54,2.54,0,0,1,.59-.9,2.71,2.71,0,0,1,.94-.59A3.45,3.45,0,0,1,499.66,230.93Z"/><path class="cls-1" d="M508.73,237.61v2h-1.31v-2h-3.76v-1.29l3.82-5.27h1.25v5.41h1.2v1.15Zm-1.31-4.82h0l-2.62,3.67h2.65Z"/><path class="cls-1" d="M514.2,230.93a3,3,0,0,1,2,.7,2.22,2.22,0,0,1,.6.83,2.77,2.77,0,0,1,.19,1.06,2.82,2.82,0,0,1-.46,1.55,5.83,5.83,0,0,1-1.78,1.54,8.88,8.88,0,0,0-.85.57,6.91,6.91,0,0,0-.58.47,2.8,2.8,0,0,0-.62.81H517v1.21h-6a3.35,3.35,0,0,1,.39-1.59,3.73,3.73,0,0,1,.51-.69,5.59,5.59,0,0,1,.74-.66l1-.71,1.12-.83a2.7,2.7,0,0,0,.71-.75,1.61,1.61,0,0,0,.23-.83,1.68,1.68,0,0,0-.1-.59,1.33,1.33,0,0,0-.31-.48,1.44,1.44,0,0,0-.47-.3,1.77,1.77,0,0,0-1.31,0,1.46,1.46,0,0,0-.5.38,1.58,1.58,0,0,0-.29.53,2,2,0,0,0-.1.61v.15h-1.34v-.15a3.14,3.14,0,0,1,.21-1.15,2.54,2.54,0,0,1,.59-.9,2.71,2.71,0,0,1,.94-.59A3.45,3.45,0,0,1,514.2,230.93Z"/><path class="cls-1" d="M523.27,237.61v2H522v-2h-3.8v-1.29L522,231h1.25v5.41h1.2v1.15ZM522,232.79h0l-2.62,3.67H522Z"/><path class="cls-1" d="M528.73,230.93a3,3,0,0,1,2,.7,2.22,2.22,0,0,1,.6.83,2.77,2.77,0,0,1,.19,1.06,2.82,2.82,0,0,1-.46,1.55,5.83,5.83,0,0,1-1.78,1.54,8.89,8.89,0,0,0-.85.57,6.91,6.91,0,0,0-.58.47,2.8,2.8,0,0,0-.62.81h4.33v1.21h-6.08a3.35,3.35,0,0,1,.39-1.59,3.73,3.73,0,0,1,.51-.69,5.59,5.59,0,0,1,.74-.66l1-.71,1.12-.83a2.7,2.7,0,0,0,.71-.75,1.61,1.61,0,0,0,.23-.83,1.68,1.68,0,0,0-.1-.59,1.33,1.33,0,0,0-.31-.48,1.44,1.44,0,0,0-.47-.3,1.77,1.77,0,0,0-1.31,0,1.46,1.46,0,0,0-.5.38,1.58,1.58,0,0,0-.29.53,2,2,0,0,0-.1.61v.15h-1.34v-.15a3.14,3.14,0,0,1,.21-1.15,2.54,2.54,0,0,1,.59-.9,2.71,2.71,0,0,1,.94-.59A3.45,3.45,0,0,1,528.73,230.93Z"/><path class="cls-1" d="M537.8,237.61v2h-1.31v-2h-3.76v-1.29l3.82-5.27h1.25v5.41H539v1.15Zm-1.31-4.82h0l-2.62,3.67h2.65Z"/><path class="cls-1" d="M873.42,336.88a2.43,2.43,0,0,1-.22,1.07,2.15,2.15,0,0,1-.62.77,2.77,2.77,0,0,1-.94.47,4.28,4.28,0,0,1-1.2.16h-4v-8.57h4a4.72,4.72,0,0,1,1.11.12,2.35,2.35,0,0,1,.84.38,1.68,1.68,0,0,1,.54.66,2.25,2.25,0,0,1,.19,1,1.88,1.88,0,0,1-.34,1.13,2,2,0,0,1-1,.7h0a2.54,2.54,0,0,1,.74.3,1.83,1.83,0,0,1,.52.47,2,2,0,0,1,.3.62A2.58,2.58,0,0,1,873.42,336.88Zm-1.83-3.7a1.08,1.08,0,0,0-.38-.91,1.81,1.81,0,0,0-1.12-.29h-2.17v2.38h2.27a2,2,0,0,0,.54-.07,1.32,1.32,0,0,0,.44-.21,1,1,0,0,0,.3-.37,1.28,1.28,0,0,0,.12-.54Zm.33,3.63a1.25,1.25,0,0,0-.42-1,1.9,1.9,0,0,0-1.23-.35h-2.35v2.73h2.36a2,2,0,0,0,1.22-.33,1.21,1.21,0,0,0,.42-1.06Z"/><path class="cls-1" d="M876.42,330.26v9.08H875v-9.08Z"/><path class="cls-1" d="M882.87,339.34v-1h0a2.25,2.25,0,0,1-.39.52,2.3,2.3,0,0,1-.5.37,2.49,2.49,0,0,1-.58.23,2.54,2.54,0,0,1-.64.08,2.3,2.3,0,0,1-1.78-.63,2.81,2.81,0,0,1-.57-2v-4.19h1.44v4a2.89,2.89,0,0,0,.08.7,1.37,1.37,0,0,0,.24.52,1,1,0,0,0,.42.32,1.82,1.82,0,0,0,1.36,0,1.37,1.37,0,0,0,.5-.43,1.86,1.86,0,0,0,.29-.66,3.72,3.72,0,0,0,.09-.85v-3.5h1.44v6.57Z"/><path class="cls-1" d="M889,332.59a3,3,0,0,1,1.34.28,2.78,2.78,0,0,1,1,.77,3.33,3.33,0,0,1,.58,1.13,4.76,4.76,0,0,1,.19,1.37v.26h-4.85a2.77,2.77,0,0,0,.13.81,1.9,1.9,0,0,0,.35.63,1.55,1.55,0,0,0,.54.41,1.7,1.7,0,0,0,.72.15,1.9,1.9,0,0,0,1-.23,1.7,1.7,0,0,0,.61-.6H892a3.06,3.06,0,0,1-.45.81,2.83,2.83,0,0,1-.66.62,3,3,0,0,1-.85.39,3.66,3.66,0,0,1-1,.13,3.28,3.28,0,0,1-1.33-.26,2.82,2.82,0,0,1-1-.72,3.18,3.18,0,0,1-.62-1.1,4.31,4.31,0,0,1-.22-1.4,4,4,0,0,1,.22-1.33,3.3,3.3,0,0,1,.63-1.1,3,3,0,0,1,1-.76A3.16,3.16,0,0,1,889,332.59Zm1.63,2.85a2.77,2.77,0,0,0-.16-.71,1.73,1.73,0,0,0-.33-.55,1.43,1.43,0,0,0-.5-.35,1.91,1.91,0,0,0-1.37,0,1.51,1.51,0,0,0-.52.36,1.79,1.79,0,0,0-.35.55,2.54,2.54,0,0,0-.17.7Z"/><path class="cls-1" d="M903.48,336.06a4.85,4.85,0,0,1-.17,1.28,3.47,3.47,0,0,1-.52,1.11,2.65,2.65,0,0,1-.88.79,2.51,2.51,0,0,1-1.25.3,2.93,2.93,0,0,1-1.36-.3,1.9,1.9,0,0,1-.86-.87h0v1h-1.37v-9.08h1.44v3.47h0a1.88,1.88,0,0,1,.36-.47,2.16,2.16,0,0,1,.5-.36,2.68,2.68,0,0,1,.61-.23,2.85,2.85,0,0,1,.68-.08,2.52,2.52,0,0,1,1.24.29,2.66,2.66,0,0,1,.88.78,3.4,3.4,0,0,1,.52,1.11A4.87,4.87,0,0,1,903.48,336.06Zm-1.45,0a3.74,3.74,0,0,0-.09-.82,2.52,2.52,0,0,0-.3-.76,1.71,1.71,0,0,0-.54-.56,1.5,1.5,0,0,0-.83-.22,1.57,1.57,0,0,0-.82.21,1.71,1.71,0,0,0-.56.54,2.39,2.39,0,0,0-.32.75,3.63,3.63,0,0,0-.1.86,3.68,3.68,0,0,0,.1.83,2.37,2.37,0,0,0,.31.76,1.76,1.76,0,0,0,.56.55,1.57,1.57,0,0,0,.84.21,1.49,1.49,0,0,0,.8-.21,1.69,1.69,0,0,0,.54-.54,2.43,2.43,0,0,0,.31-.75,3.94,3.94,0,0,0,.07-.85Z"/><path class="cls-1" d="M907.68,332.59a2.35,2.35,0,0,1,1.2.3,2.12,2.12,0,0,1,.81.85h0v-1h1.39v6.17a3.42,3.42,0,0,1-.23,1.31,2.39,2.39,0,0,1-.65.92,2.71,2.71,0,0,1-1,.54,4.81,4.81,0,0,1-1.35.18,4.46,4.46,0,0,1-1-.11,2.93,2.93,0,0,1-.86-.33,2.12,2.12,0,0,1-.65-.59A1.76,1.76,0,0,1,905,340h1.44a1,1,0,0,0,.49.66,2,2,0,0,0,1,.22,1.64,1.64,0,0,0,1.28-.49,2,2,0,0,0,.44-1.4v-1h0a2,2,0,0,1-.82.84,2.47,2.47,0,0,1-1.22.3,2.92,2.92,0,0,1-1.26-.25,2.46,2.46,0,0,1-.88-.69,3,3,0,0,1-.52-1,4.7,4.7,0,0,1-.17-1.3,4.06,4.06,0,0,1,.18-1.22,3.1,3.1,0,0,1,.54-1,2.67,2.67,0,0,1,.9-.72A2.76,2.76,0,0,1,907.68,332.59Zm-1.42,3.25a3.41,3.41,0,0,0,.11.87,2,2,0,0,0,.32.68,1.48,1.48,0,0,0,.53.44,1.65,1.65,0,0,0,.74.16,1.58,1.58,0,0,0,.75-.17,1.71,1.71,0,0,0,.55-.46,2,2,0,0,0,.34-.66,2.63,2.63,0,0,0,.11-.78,3.51,3.51,0,0,0-.11-.88,2.07,2.07,0,0,0-.32-.71,1.53,1.53,0,0,0-.55-.47,1.68,1.68,0,0,0-.78-.17,1.57,1.57,0,0,0-.77.18,1.53,1.53,0,0,0-.53.48,2.15,2.15,0,0,0-.3.69,3.18,3.18,0,0,0-.09.81Z"/><path class="cls-1" d="M424.88,326.42a2.54,2.54,0,0,1-.75,1.92,2.51,2.51,0,0,1-.88.54,3.33,3.33,0,0,1-1.13.18h-2.4v3.29h-1.5v-8.57h3.9a2.79,2.79,0,0,1,2,.72A2.51,2.51,0,0,1,424.88,326.42Zm-1.46,0a1.36,1.36,0,0,0-.42-1.09,2,2,0,0,0-1.31-.36h-2v2.9h2a2.78,2.78,0,0,0,.72-.08,1.28,1.28,0,0,0,1-1.36Z"/><path class="cls-1" d="M426,332.34v-6.57h1.37v1.34h0a2.4,2.4,0,0,1,.87-1.08,2.23,2.23,0,0,1,1.29-.39H430V327h-.53a1.84,1.84,0,0,0-1.48.6,2.36,2.36,0,0,0-.51,1.57v3.18Z"/><path class="cls-1" d="M432.62,322.91v1.42h-1.45v-1.42Zm0,2.86v6.57h-1.45v-6.57Z"/><path class="cls-1" d="M442.86,332.34v-4a3.44,3.44,0,0,0,0-.62,1.26,1.26,0,0,0-.19-.49,1,1,0,0,0-.39-.32,1.48,1.48,0,0,0-.63-.12,1.24,1.24,0,0,0-1.06.47,2.29,2.29,0,0,0-.35,1.38v3.74h-1.45v-4.21a1.64,1.64,0,0,0-.28-1,1.1,1.1,0,0,0-.91-.35,1.34,1.34,0,0,0-1.08.48,2,2,0,0,0-.4,1.31v3.81h-1.45v-6.57H436v1h0a2.31,2.31,0,0,1,2.06-1.15,2.27,2.27,0,0,1,1.2.3,1.71,1.71,0,0,1,.71.86,2.45,2.45,0,0,1,.87-.86,2.21,2.21,0,0,1,3.47,2v4.48Z"/><path class="cls-1" d="M452.39,332.34l-.44.09h-.39a1.79,1.79,0,0,1-.42,0,.91.91,0,0,1-.34-.16.84.84,0,0,1-.24-.29,1.28,1.28,0,0,1-.12-.45h0a2.67,2.67,0,0,1-.45.46,2.3,2.3,0,0,1-.52.31,3.32,3.32,0,0,1-1.31.24,2.42,2.42,0,0,1-1.62-.51,1.77,1.77,0,0,1-.6-1.45,1.7,1.7,0,0,1,.6-1.42,2.11,2.11,0,0,1,.58-.32,4.68,4.68,0,0,1,.73-.2q.39-.08.82-.13l.87-.1.34-.07a.8.8,0,0,0,.27-.13.59.59,0,0,0,.17-.22.79.79,0,0,0,.06-.33,1,1,0,0,0-.31-.79,2.11,2.11,0,0,0-2,0,1,1,0,0,0-.39.73h-1.45a1.9,1.9,0,0,1,.9-1.52,2.88,2.88,0,0,1,.9-.36,5.08,5.08,0,0,1,1.13-.12,3.42,3.42,0,0,1,2,.5,1.65,1.65,0,0,1,.67,1.41V331a.47.47,0,0,0,.08.3.33.33,0,0,0,.27.1h.25Zm-2-3.35h0a1,1,0,0,1-.54.23l-.48.08-.65.11a2.2,2.2,0,0,0-1,.37.87.87,0,0,0-.32.72.89.89,0,0,0,.37.76,1.48,1.48,0,0,0,.87.24,1.79,1.79,0,0,0,1.27-.43,1.59,1.59,0,0,0,.49-1.24Z"/><path class="cls-1" d="M453.75,332.34v-6.57h1.37v1.34h0A2.4,2.4,0,0,1,456,326a2.23,2.23,0,0,1,1.29-.39h.41V327h-.53a1.84,1.84,0,0,0-1.48.6,2.36,2.36,0,0,0-.51,1.57v3.18Z"/><path class="cls-1" d="M459.83,325.77l1.73,5h0l1.64-5h1.49l-2.81,7.52a3,3,0,0,1-.29.59,1.79,1.79,0,0,1-.4.44,1.71,1.71,0,0,1-.54.28,2.43,2.43,0,0,1-.72.1h-1v-1.2l.45,0h.35a1,1,0,0,0,.4-.07.76.76,0,0,0,.28-.21,1.39,1.39,0,0,0,.21-.36q.09-.22.18-.52l-2.53-6.57Z"/><path class="cls-1" d="M426.86,346.74l-.44.09H426a1.79,1.79,0,0,1-.42,0,.91.91,0,0,1-.34-.16.84.84,0,0,1-.24-.29,1.28,1.28,0,0,1-.12-.45h0a2.67,2.67,0,0,1-.45.46,2.3,2.3,0,0,1-.52.31,3.32,3.32,0,0,1-1.31.24,2.42,2.42,0,0,1-1.62-.51,1.77,1.77,0,0,1-.6-1.45,1.7,1.7,0,0,1,.6-1.42,2.11,2.11,0,0,1,.58-.32,4.68,4.68,0,0,1,.73-.2q.39-.08.82-.13l.87-.1.34-.07a.8.8,0,0,0,.27-.13.59.59,0,0,0,.17-.22.79.79,0,0,0,.06-.33,1,1,0,0,0-.31-.79,2.11,2.11,0,0,0-2,0,1,1,0,0,0-.39.73h-1.45a1.9,1.9,0,0,1,.9-1.52,2.88,2.88,0,0,1,.9-.36,5.08,5.08,0,0,1,1.13-.12,3.42,3.42,0,0,1,2,.5,1.65,1.65,0,0,1,.67,1.41v3.54a.47.47,0,0,0,.08.3.33.33,0,0,0,.27.1h.25Zm-2-3.35h0a1,1,0,0,1-.54.23l-.48.08-.65.11a2.2,2.2,0,0,0-1,.37.87.87,0,0,0-.32.72.89.89,0,0,0,.37.76,1.48,1.48,0,0,0,.87.24,1.79,1.79,0,0,0,1.27-.43,1.59,1.59,0,0,0,.49-1.24Z"/><path class="cls-1" d="M431.21,340a4.08,4.08,0,0,1,1.06.13,2.82,2.82,0,0,1,.89.41,2.27,2.27,0,0,1,.64.68,2.3,2.3,0,0,1,.31,1h-1.42a1.21,1.21,0,0,0-.47-.78,1.69,1.69,0,0,0-1-.27,1.53,1.53,0,0,0-.81.21,1.8,1.8,0,0,0-.57.54,2.44,2.44,0,0,0-.33.76,3.42,3.42,0,0,0,0,1.67,2.42,2.42,0,0,0,.32.75,1.78,1.78,0,0,0,.56.55,1.51,1.51,0,0,0,.82.21,1.81,1.81,0,0,0,.6-.09,1.48,1.48,0,0,0,.47-.26,1.4,1.4,0,0,0,.33-.41,1.75,1.75,0,0,0,.18-.52h1.4a3.08,3.08,0,0,1-.33,1,2.59,2.59,0,0,1-.62.76,2.78,2.78,0,0,1-.89.49,3.49,3.49,0,0,1-1.14.18,3.33,3.33,0,0,1-1.32-.25,3,3,0,0,1-1-.71,3.22,3.22,0,0,1-.67-1.08,3.83,3.83,0,0,1-.24-1.37,4.25,4.25,0,0,1,.21-1.36,3.31,3.31,0,0,1,.63-1.12,3,3,0,0,1,1-.76A3.33,3.33,0,0,1,431.21,340Z"/><path class="cls-1" d="M438.65,340a4.08,4.08,0,0,1,1.06.13,2.82,2.82,0,0,1,.89.41,2.27,2.27,0,0,1,.64.68,2.3,2.3,0,0,1,.31,1h-1.42a1.21,1.21,0,0,0-.47-.78,1.69,1.69,0,0,0-1-.27,1.53,1.53,0,0,0-.81.21,1.8,1.8,0,0,0-.57.54,2.44,2.44,0,0,0-.33.76,3.42,3.42,0,0,0,0,1.67,2.42,2.42,0,0,0,.32.75,1.78,1.78,0,0,0,.56.55,1.51,1.51,0,0,0,.82.21,1.81,1.81,0,0,0,.6-.09,1.48,1.48,0,0,0,.47-.26A1.4,1.4,0,0,0,440,345a1.75,1.75,0,0,0,.18-.52h1.4a3.08,3.08,0,0,1-.33,1,2.59,2.59,0,0,1-.62.76,2.78,2.78,0,0,1-.89.49,3.49,3.49,0,0,1-1.14.18,3.33,3.33,0,0,1-1.32-.25,3,3,0,0,1-1-.71,3.22,3.22,0,0,1-.67-1.08,3.83,3.83,0,0,1-.24-1.37,4.25,4.25,0,0,1,.21-1.36,3.31,3.31,0,0,1,.63-1.12,3,3,0,0,1,1-.76A3.33,3.33,0,0,1,438.65,340Z"/><path class="cls-1" d="M445.94,340a3,3,0,0,1,1.34.28,2.78,2.78,0,0,1,1,.77,3.33,3.33,0,0,1,.58,1.13,4.76,4.76,0,0,1,.19,1.37v.26H444.2a2.77,2.77,0,0,0,.13.81,1.9,1.9,0,0,0,.35.63,1.55,1.55,0,0,0,.54.41,1.7,1.7,0,0,0,.72.15,1.9,1.9,0,0,0,1-.23,1.7,1.7,0,0,0,.61-.6h1.37a3.06,3.06,0,0,1-.45.81,2.83,2.83,0,0,1-.66.62,3,3,0,0,1-.85.39,3.66,3.66,0,0,1-1,.13,3.28,3.28,0,0,1-1.33-.26,2.82,2.82,0,0,1-1-.72,3.18,3.18,0,0,1-.62-1.1,4.31,4.31,0,0,1-.22-1.4,4,4,0,0,1,.22-1.33,3.3,3.3,0,0,1,.63-1.1,3,3,0,0,1,1-.76A3.16,3.16,0,0,1,445.94,340Zm1.63,2.85a2.77,2.77,0,0,0-.16-.71,1.73,1.73,0,0,0-.33-.55,1.43,1.43,0,0,0-.5-.35,1.91,1.91,0,0,0-1.37,0,1.51,1.51,0,0,0-.52.36,1.79,1.79,0,0,0-.35.55,2.54,2.54,0,0,0-.17.7Z"/><path class="cls-1" d="M454,340a3.25,3.25,0,0,1,1.1.16,1.8,1.8,0,0,1,.74.49,2,2,0,0,1,.42.81,4.28,4.28,0,0,1,.13,1.12v4.17H455v-3.9a2.11,2.11,0,0,0-.32-1.27,1.19,1.19,0,0,0-1-.43,1.48,1.48,0,0,0-1.23.52,2.28,2.28,0,0,0-.41,1.45v3.63h-1.44v-6.57h1.38v1h0a2.14,2.14,0,0,1,.37-.5,2.24,2.24,0,0,1,.48-.37,2.34,2.34,0,0,1,.57-.23A2.51,2.51,0,0,1,454,340Z"/><path class="cls-1" d="M461.56,346.79h-.83a4.59,4.59,0,0,1-.74-.06,1.58,1.58,0,0,1-.6-.22,1.12,1.12,0,0,1-.4-.45,1.67,1.67,0,0,1-.15-.76v-4.15h-1.29v-1h1.29v-2h1.45v2h1.5v1h-1.5v3.72a.83.83,0,0,0,.17.58.8.8,0,0,0,.59.18h.74v1.14Z"/><path class="cls-1" d="M429,354.39a4.08,4.08,0,0,1,1.06.13,2.82,2.82,0,0,1,.89.41,2.27,2.27,0,0,1,.64.68,2.3,2.3,0,0,1,.31,1h-1.42a1.21,1.21,0,0,0-.47-.78,1.69,1.69,0,0,0-1-.27,1.53,1.53,0,0,0-.81.21,1.8,1.8,0,0,0-.57.54,2.44,2.44,0,0,0-.33.76,3.42,3.42,0,0,0,0,1.67,2.42,2.42,0,0,0,.32.75,1.78,1.78,0,0,0,.56.55,1.51,1.51,0,0,0,.82.21,1.81,1.81,0,0,0,.6-.09,1.48,1.48,0,0,0,.47-.26,1.4,1.4,0,0,0,.33-.41,1.75,1.75,0,0,0,.18-.52H432a3.08,3.08,0,0,1-.33,1,2.59,2.59,0,0,1-.62.76,2.78,2.78,0,0,1-.89.49,3.49,3.49,0,0,1-1.14.18,3.33,3.33,0,0,1-1.32-.25,3,3,0,0,1-1-.71,3.22,3.22,0,0,1-.67-1.08,3.83,3.83,0,0,1-.24-1.37,4.25,4.25,0,0,1,.21-1.36,3.31,3.31,0,0,1,.63-1.12,3,3,0,0,1,1-.76A3.33,3.33,0,0,1,429,354.39Z"/><path class="cls-1" d="M439.81,357.86a4.09,4.09,0,0,1-.23,1.38,3.1,3.1,0,0,1-.68,1.11,3,3,0,0,1-1,.73,3.49,3.49,0,0,1-1.36.25,3.12,3.12,0,0,1-2.38-1,3.94,3.94,0,0,1,0-5,3.1,3.1,0,0,1,2.39-1,3.15,3.15,0,0,1,2.4,1A3.54,3.54,0,0,1,439.81,357.86Zm-1.45,0a3.59,3.59,0,0,0-.11-.92,2.21,2.21,0,0,0-.35-.75,1.68,1.68,0,0,0-.58-.5,1.75,1.75,0,0,0-.83-.18,1.71,1.71,0,0,0-.77.17,1.62,1.62,0,0,0-.57.48,2.23,2.23,0,0,0-.36.74,3.79,3.79,0,0,0,0,1.9,2.19,2.19,0,0,0,.35.74,1.67,1.67,0,0,0,.58.49,1.7,1.7,0,0,0,.79.18,1.72,1.72,0,0,0,.79-.18,1.68,1.68,0,0,0,.58-.49,2.24,2.24,0,0,0,.36-.74A3.41,3.41,0,0,0,438.36,357.86Z"/><path class="cls-1" d="M442.91,352.06v9.08h-1.45v-9.08Z"/><path class="cls-1" d="M451.17,357.86a4.09,4.09,0,0,1-.23,1.38,3.1,3.1,0,0,1-.68,1.11,3,3,0,0,1-1,.73,3.49,3.49,0,0,1-1.36.25,3.12,3.12,0,0,1-2.38-1,3.94,3.94,0,0,1,0-5,3.1,3.1,0,0,1,2.39-1,3.15,3.15,0,0,1,2.4,1A3.54,3.54,0,0,1,451.17,357.86Zm-1.45,0a3.59,3.59,0,0,0-.11-.92,2.21,2.21,0,0,0-.35-.75,1.68,1.68,0,0,0-.58-.5,1.75,1.75,0,0,0-.83-.18,1.71,1.71,0,0,0-.77.17,1.62,1.62,0,0,0-.57.48,2.23,2.23,0,0,0-.36.74,3.79,3.79,0,0,0,0,1.9,2.19,2.19,0,0,0,.35.74,1.67,1.67,0,0,0,.58.49,1.7,1.7,0,0,0,.79.18,1.72,1.72,0,0,0,.79-.18,1.68,1.68,0,0,0,.58-.49,2.24,2.24,0,0,0,.36-.74A3.41,3.41,0,0,0,449.72,357.86Z"/><path class="cls-1" d="M452.78,361.14v-6.57h1.37v1.34h0a2.4,2.4,0,0,1,.87-1.08,2.23,2.23,0,0,1,1.29-.39h.41v1.36h-.53a1.84,1.84,0,0,0-1.48.6,2.36,2.36,0,0,0-.51,1.57v3.18Z"/><path class="cls-1" d="M867.79,378.66l.34-2.48h-1.35l-.35,2.48h-1l.35-2.48h-1.11v-.88h1.23l.23-1.63H865v-.88h1.23l.35-2.48h1l-.35,2.48h1.35l.34-2.48h1l-.35,2.48h1v.88h-1.14l-.23,1.63h1v.88h-1.15l-.35,2.48Zm.69-5h-1.34l-.23,1.63h1.35Z"/><path class="cls-1" d="M875,369.93a3,3,0,0,1,2,.7,2.22,2.22,0,0,1,.6.83,2.77,2.77,0,0,1,.19,1.06,2.82,2.82,0,0,1-.46,1.55,5.83,5.83,0,0,1-1.78,1.54,8.9,8.9,0,0,0-.85.57,6.91,6.91,0,0,0-.58.47,2.8,2.8,0,0,0-.62.81h4.33v1.21h-6.08a3.35,3.35,0,0,1,.39-1.59,3.73,3.73,0,0,1,.51-.69,5.59,5.59,0,0,1,.74-.66l1-.71,1.12-.83a2.7,2.7,0,0,0,.71-.75,1.61,1.61,0,0,0,.23-.83,1.68,1.68,0,0,0-.1-.59,1.33,1.33,0,0,0-.31-.48,1.44,1.44,0,0,0-.47-.3,1.77,1.77,0,0,0-1.31,0,1.46,1.46,0,0,0-.5.38,1.58,1.58,0,0,0-.29.53,2,2,0,0,0-.1.61v.15H872v-.15a3.14,3.14,0,0,1,.21-1.15,2.54,2.54,0,0,1,.59-.9,2.71,2.71,0,0,1,.94-.59A3.45,3.45,0,0,1,875,369.93Z"/><path class="cls-1" d="M882.16,369.92a2.66,2.66,0,0,1,2.32,1.13,5.72,5.72,0,0,1,.79,3.3,5.83,5.83,0,0,1-.79,3.35,2.92,2.92,0,0,1-4.62,0,5.81,5.81,0,0,1-.79-3.35,5.74,5.74,0,0,1,.79-3.31A2.64,2.64,0,0,1,882.16,369.92Zm-1.7,4.44a10.28,10.28,0,0,0,.07,1.25,4.18,4.18,0,0,0,.26,1.06,1.83,1.83,0,0,0,.52.74,1.28,1.28,0,0,0,.85.28,1.31,1.31,0,0,0,1.08-.51,2.12,2.12,0,0,0,.31-.56,4.17,4.17,0,0,0,.2-.69,6.32,6.32,0,0,0,.1-.77q0-.4,0-.8a9.64,9.64,0,0,0-.08-1.27,3.8,3.8,0,0,0-.28-1,1.82,1.82,0,0,0-.53-.71,1.32,1.32,0,0,0-.84-.26,1.29,1.29,0,0,0-.6.13,1.39,1.39,0,0,0-.45.37,2,2,0,0,0-.31.55,4.32,4.32,0,0,0-.19.68,6.51,6.51,0,0,0-.11.76q0,.39,0,.75Z"/><path class="cls-1" d="M889.7,369.93a3.18,3.18,0,0,1,1,.14,2.5,2.5,0,0,1,.79.41,2.29,2.29,0,0,1,.57.65,2.45,2.45,0,0,1,.3.86H891a1.57,1.57,0,0,0-.17-.4,1.14,1.14,0,0,0-.28-.31,1.26,1.26,0,0,0-.39-.21,1.63,1.63,0,0,0-.51-.07,1.45,1.45,0,0,0-.88.26,2,2,0,0,0-.58.69,3.5,3.5,0,0,0-.33,1,6.72,6.72,0,0,0-.12,1.13h0a2,2,0,0,1,1.58-1,2.45,2.45,0,0,1,1.36.11,2.41,2.41,0,0,1,1.36,1,2.77,2.77,0,0,1,.49,1.62,3,3,0,0,1-.85,2.2,2.83,2.83,0,0,1-2.13.87,3.22,3.22,0,0,1-1.42-.29,2.58,2.58,0,0,1-1-.86,4.1,4.1,0,0,1-.59-1.39,8.46,8.46,0,0,1-.2-1.94,7.75,7.75,0,0,1,.07-1,5.85,5.85,0,0,1,.23-1,4.47,4.47,0,0,1,.42-.92,3.09,3.09,0,0,1,.63-.75,2.77,2.77,0,0,1,.86-.5A3.19,3.19,0,0,1,889.7,369.93Zm-1.8,5.94a1.9,1.9,0,0,0,.45,1.31,1.53,1.53,0,0,0,1.21.52,1.43,1.43,0,0,0,1.14-.53,1.9,1.9,0,0,0,.45-1.27,2.05,2.05,0,0,0-.43-1.32,1.42,1.42,0,0,0-1.17-.54,1.55,1.55,0,0,0-1.2.51,2,2,0,0,0-.45,1.31Z"/><path class="cls-1" d="M896.7,369.93a3.64,3.64,0,0,1,1,.15,2.72,2.72,0,0,1,.88.44,2.18,2.18,0,0,1,.62.72,2.1,2.1,0,0,1,.23,1,2.16,2.16,0,0,1-.08.62,1.83,1.83,0,0,1-.25.52,1.63,1.63,0,0,1-.4.41,1.88,1.88,0,0,1-.56.27h0a1.93,1.93,0,0,1,1.2.71,2.07,2.07,0,0,1,.42,1.3,2.5,2.5,0,0,1-.89,2,3.31,3.31,0,0,1-2.23.76,3.84,3.84,0,0,1-1.17-.18,2.94,2.94,0,0,1-1-.52,2.49,2.49,0,0,1-.67-.84,2.55,2.55,0,0,1-.25-1.14V376h1.34v.13a1.45,1.45,0,0,0,.49,1.11,1.58,1.58,0,0,0,.52.3,1.91,1.91,0,0,0,.64.11,1.81,1.81,0,0,0,1.28-.44,1.45,1.45,0,0,0,.47-1.11,1.34,1.34,0,0,0-.45-1.09,2.2,2.2,0,0,0-1.46-.39H896v-1h.43a1.86,1.86,0,0,0,1.2-.35,1.1,1.1,0,0,0,.4-.9,1.39,1.39,0,0,0-.11-.58,1.12,1.12,0,0,0-.31-.41,1.34,1.34,0,0,0-.46-.24,2,2,0,0,0-.57-.08,1.7,1.7,0,0,0-.6.1,1.41,1.41,0,0,0-.48.3,1.44,1.44,0,0,0-.33.47,1.62,1.62,0,0,0-.13.64h-1.34a2.81,2.81,0,0,1,.23-1,2.55,2.55,0,0,1,.59-.84,2.75,2.75,0,0,1,.91-.56A3.27,3.27,0,0,1,896.7,369.93Z"/><path class="cls-1" d="M903.72,378.84a3.21,3.21,0,0,1-1-.14,2.49,2.49,0,0,1-.79-.41,2.29,2.29,0,0,1-.57-.65,2.45,2.45,0,0,1-.3-.86h1.34a1.6,1.6,0,0,0,.17.39,1.14,1.14,0,0,0,.28.31,1.3,1.3,0,0,0,.39.21,1.55,1.55,0,0,0,.5.08,1.46,1.46,0,0,0,.88-.26,2,2,0,0,0,.59-.69,3.5,3.5,0,0,0,.33-1,6.78,6.78,0,0,0,.12-1.13h0a2.16,2.16,0,0,1-.67.68,2.21,2.21,0,0,1-.9.3,2.48,2.48,0,0,1-1.37-.11,2.34,2.34,0,0,1-1.35-1,2.76,2.76,0,0,1-.49-1.62,3,3,0,0,1,.85-2.2,2.84,2.84,0,0,1,2.13-.87,3.25,3.25,0,0,1,1.42.29,2.51,2.51,0,0,1,1,.86,5.88,5.88,0,0,1,.79,3.34,7.75,7.75,0,0,1-.07,1,5.85,5.85,0,0,1-.23,1,4.56,4.56,0,0,1-.42.92,3,3,0,0,1-.62.75,2.77,2.77,0,0,1-.86.5A3.19,3.19,0,0,1,903.72,378.84Zm1.8-5.94a1.88,1.88,0,0,0-.45-1.3,1.53,1.53,0,0,0-1.22-.52,1.41,1.41,0,0,0-1.13.53,1.9,1.9,0,0,0-.45,1.27,2,2,0,0,0,.43,1.32,1.43,1.43,0,0,0,1.17.54,1.55,1.55,0,0,0,1.2-.52,2,2,0,0,0,.45-1.32Z"/><path class="cls-1" d="M914.11,370.09v1.21a8.83,8.83,0,0,0-1.24,1.49,10.33,10.33,0,0,0-1,1.83,12,12,0,0,0-.87,4h-1.49a11.75,11.75,0,0,1,.93-3.82,13.7,13.7,0,0,1,2.2-3.45h-4.32v-1.29Z"/><path class="cls-1" d="M420.76,378.66l.34-2.48h-1.35l-.35,2.48h-1l.35-2.48h-1.11v-.88h1.23l.23-1.63H418v-.88h1.23l.35-2.48h1l-.35,2.48h1.35l.34-2.48h1l-.35,2.48h1v.88h-1.14l-.23,1.63h1v.88H422l-.35,2.48Zm.69-5h-1.34l-.23,1.63h1.35Z"/><path class="cls-1" d="M427.87,369.92a2.66,2.66,0,0,1,2.32,1.13,5.72,5.72,0,0,1,.79,3.3,5.83,5.83,0,0,1-.79,3.35,2.92,2.92,0,0,1-4.62,0,5.81,5.81,0,0,1-.79-3.35,5.74,5.74,0,0,1,.79-3.31A2.64,2.64,0,0,1,427.87,369.92Zm-1.7,4.44a10.28,10.28,0,0,0,.07,1.25,4.18,4.18,0,0,0,.26,1.06,1.83,1.83,0,0,0,.52.74,1.28,1.28,0,0,0,.85.28,1.31,1.31,0,0,0,1.08-.51,2.12,2.12,0,0,0,.31-.56,4.17,4.17,0,0,0,.2-.69,6.33,6.33,0,0,0,.1-.77q0-.4,0-.8a9.63,9.63,0,0,0-.08-1.27,3.8,3.8,0,0,0-.28-1,1.82,1.82,0,0,0-.53-.71,1.32,1.32,0,0,0-.84-.26,1.29,1.29,0,0,0-.6.13,1.39,1.39,0,0,0-.45.37,2,2,0,0,0-.31.55,4.32,4.32,0,0,0-.19.68,6.52,6.52,0,0,0-.11.76v.75Z"/><path class="cls-1" d="M438.17,378.66l-.74-2.18h-3.55l-.75,2.18H431.6l3.08-8.55h2l3,8.55Zm-2.48-7.45h0l-1.41,4.13H437Z"/><path class="cls-1" d="M446.46,378.66l-.74-2.18h-3.55l-.75,2.18h-1.53L443,370.1h2l3,8.55ZM444,371.21h0l-1.41,4.13h2.79Z"/><path class="cls-1" d="M455.35,370.1v1.27h-4.72v2.28H455v1.19h-4.37v2.56h4.8v1.26h-6.3V370.1Z"/><path class="cls-1" d="M462.73,370.09v1.27h-4.31v2.38h3.77v1.19h-3.77v3.73h-1.5v-8.57Z"/><path class="cls-1" d="M469.85,370.09v1.27h-4.31v2.38h3.77v1.19h-3.77v3.73H464v-8.57Z"/><path class="cls-1" d="M901,121.78a3.81,3.81,0,0,1,2.85,1.08,4.36,4.36,0,0,1,1.07,3.17,4.48,4.48,0,0,1-1,3.21,3.71,3.71,0,0,1-2.82,1.11h-3.46v-8.57Zm-.17,7.3a2.49,2.49,0,0,0,1.89-.71,3.14,3.14,0,0,0,.69-2.23,3.35,3.35,0,0,0-.69-2.36,2.81,2.81,0,0,0-2.14-.73H899v6Z"/><path class="cls-1" d="M909.26,123.59a3,3,0,0,1,1.34.28,2.78,2.78,0,0,1,1,.77,3.33,3.33,0,0,1,.58,1.13,4.76,4.76,0,0,1,.19,1.37v.26h-4.85a2.77,2.77,0,0,0,.13.81,1.9,1.9,0,0,0,.35.63,1.55,1.55,0,0,0,.54.41,1.7,1.7,0,0,0,.72.15,1.9,1.9,0,0,0,1-.23,1.7,1.7,0,0,0,.61-.6h1.37a3.06,3.06,0,0,1-.45.81,2.83,2.83,0,0,1-.66.62,3,3,0,0,1-.85.39,3.66,3.66,0,0,1-1,.13,3.28,3.28,0,0,1-1.33-.26,2.82,2.82,0,0,1-1-.72,3.18,3.18,0,0,1-.62-1.1,4.31,4.31,0,0,1-.22-1.4,4,4,0,0,1,.22-1.33,3.3,3.3,0,0,1,.63-1.1,3,3,0,0,1,1-.76A3.16,3.16,0,0,1,909.26,123.59Zm1.63,2.85a2.77,2.77,0,0,0-.16-.71,1.73,1.73,0,0,0-.33-.55,1.43,1.43,0,0,0-.5-.35,1.91,1.91,0,0,0-1.37,0,1.51,1.51,0,0,0-.52.36,1.79,1.79,0,0,0-.35.55,2.54,2.54,0,0,0-.17.7Z"/><path class="cls-1" d="M915.78,124.79v5.55h-1.45v-5.55H913v-1h1.28v-.51a2,2,0,0,1,.52-1.52,1.64,1.64,0,0,1,.63-.36,3,3,0,0,1,.9-.12h1v1.11h-.72a.86.86,0,0,0-.65.2,1,1,0,0,0-.18.68v.51h1.44v1Z"/><path class="cls-1" d="M924.51,130.34l-.44.09h-.39a1.79,1.79,0,0,1-.42,0,.91.91,0,0,1-.34-.16.84.84,0,0,1-.24-.29,1.28,1.28,0,0,1-.12-.45h0a2.67,2.67,0,0,1-.45.46,2.3,2.3,0,0,1-.52.31,3.32,3.32,0,0,1-1.31.24,2.42,2.42,0,0,1-1.62-.51,1.77,1.77,0,0,1-.6-1.45,1.7,1.7,0,0,1,.6-1.42,2.11,2.11,0,0,1,.58-.32,4.68,4.68,0,0,1,.73-.2q.39-.08.82-.13l.87-.1.34-.07a.8.8,0,0,0,.27-.13.59.59,0,0,0,.17-.22.79.79,0,0,0,.06-.33,1,1,0,0,0-.31-.79,2.11,2.11,0,0,0-2,0,1,1,0,0,0-.39.73H918.3a1.9,1.9,0,0,1,.9-1.52,2.88,2.88,0,0,1,.9-.36,5.08,5.08,0,0,1,1.13-.12,3.42,3.42,0,0,1,2,.5,1.65,1.65,0,0,1,.67,1.41V129a.47.47,0,0,0,.08.3.33.33,0,0,0,.27.1h.25Zm-2-3.35h0a1,1,0,0,1-.54.23l-.48.08-.65.11a2.2,2.2,0,0,0-1,.37.87.87,0,0,0-.32.72.89.89,0,0,0,.37.76,1.48,1.48,0,0,0,.87.24,1.79,1.79,0,0,0,1.27-.43,1.59,1.59,0,0,0,.49-1.24Z"/><path class="cls-1" d="M930.37,130.34v-1h0a2.25,2.25,0,0,1-.39.52,2.3,2.3,0,0,1-.5.37,2.49,2.49,0,0,1-.58.23,2.54,2.54,0,0,1-.64.08,2.3,2.3,0,0,1-1.78-.63,2.81,2.81,0,0,1-.57-1.95v-4.19h1.44v4a2.89,2.89,0,0,0,.08.7,1.37,1.37,0,0,0,.24.52,1,1,0,0,0,.42.32,1.82,1.82,0,0,0,1.36,0,1.37,1.37,0,0,0,.5-.43,1.86,1.86,0,0,0,.29-.66,3.72,3.72,0,0,0,.09-.85v-3.5h1.44v6.57Z"/><path class="cls-1" d="M935.13,121.26v9.08h-1.45v-9.08Z"/><path class="cls-1" d="M940.35,130.39h-.83a4.59,4.59,0,0,1-.74-.06,1.58,1.58,0,0,1-.6-.22,1.12,1.12,0,0,1-.4-.45,1.67,1.67,0,0,1-.15-.76v-4.15h-1.29v-1h1.29v-2h1.45v2h1.5v1h-1.5v3.72a.83.83,0,0,0,.17.58.8.8,0,0,0,.59.18h.74v1.14Z"/><path class="cls-1" d="M948.74,130.39h-.83a4.59,4.59,0,0,1-.74-.06,1.58,1.58,0,0,1-.6-.22,1.12,1.12,0,0,1-.4-.45,1.67,1.67,0,0,1-.15-.76v-4.15h-1.29v-1H946v-2h1.45v2H949v1h-1.5v3.72a.83.83,0,0,0,.17.58.8.8,0,0,0,.59.18H949v1.14Z"/><path class="cls-1" d="M953.13,123.59a3,3,0,0,1,1.34.28,2.78,2.78,0,0,1,1,.77,3.33,3.33,0,0,1,.58,1.13,4.76,4.76,0,0,1,.19,1.37v.26h-4.85a2.77,2.77,0,0,0,.13.81,1.9,1.9,0,0,0,.35.63,1.55,1.55,0,0,0,.54.41,1.7,1.7,0,0,0,.72.15,1.9,1.9,0,0,0,1-.23,1.7,1.7,0,0,0,.61-.6h1.37a3.06,3.06,0,0,1-.45.81,2.83,2.83,0,0,1-.66.62,3,3,0,0,1-.85.39,3.66,3.66,0,0,1-1,.13,3.28,3.28,0,0,1-1.33-.26,2.82,2.82,0,0,1-1-.72,3.18,3.18,0,0,1-.62-1.1A4.31,4.31,0,0,1,950,127a4,4,0,0,1,.22-1.33,3.3,3.3,0,0,1,.63-1.1,3,3,0,0,1,1-.76A3.16,3.16,0,0,1,953.13,123.59Zm1.63,2.85a2.77,2.77,0,0,0-.16-.71,1.73,1.73,0,0,0-.33-.55,1.43,1.43,0,0,0-.5-.35,1.91,1.91,0,0,0-1.37,0,1.51,1.51,0,0,0-.52.36,1.79,1.79,0,0,0-.35.55,2.54,2.54,0,0,0-.17.7Z"/><path class="cls-1" d="M958.57,123.77l1.41,2,1.39-2H963l-2.23,3.11,2.47,3.47h-1.69L960,128l-1.61,2.32h-1.66l2.43-3.44-2.23-3.13Z"/><path class="cls-1" d="M967.61,130.39h-.83a4.59,4.59,0,0,1-.74-.06,1.58,1.58,0,0,1-.6-.22,1.12,1.12,0,0,1-.4-.45,1.67,1.67,0,0,1-.15-.76v-4.15H963.6v-1h1.29v-2h1.45v2h1.5v1h-1.5v3.72a.83.83,0,0,0,.17.58.8.8,0,0,0,.59.18h.74v1.14Z"/><path class="cls-1" d="M906.56,141.46a4.09,4.09,0,0,1-.23,1.38,3.1,3.1,0,0,1-.68,1.11,3,3,0,0,1-1,.73,3.49,3.49,0,0,1-1.36.25,3.12,3.12,0,0,1-2.38-1,3.94,3.94,0,0,1,0-5,3.1,3.1,0,0,1,2.39-1,3.15,3.15,0,0,1,2.4,1A3.54,3.54,0,0,1,906.56,141.46Zm-1.45,0a3.59,3.59,0,0,0-.11-.92,2.21,2.21,0,0,0-.35-.75,1.68,1.68,0,0,0-.58-.5,1.75,1.75,0,0,0-.83-.18,1.71,1.71,0,0,0-.77.17,1.62,1.62,0,0,0-.57.48,2.23,2.23,0,0,0-.36.74,3.79,3.79,0,0,0,0,1.9,2.19,2.19,0,0,0,.35.74,1.67,1.67,0,0,0,.58.49,1.7,1.7,0,0,0,.79.18,1.72,1.72,0,0,0,.79-.18,1.68,1.68,0,0,0,.58-.49,2.24,2.24,0,0,0,.36-.74A3.41,3.41,0,0,0,905.11,141.46Z"/><path class="cls-1" d="M911.63,138a3.25,3.25,0,0,1,1.1.16,1.8,1.8,0,0,1,.74.49,2,2,0,0,1,.42.81,4.28,4.28,0,0,1,.13,1.12v4.17h-1.44v-3.9a2.11,2.11,0,0,0-.32-1.27,1.19,1.19,0,0,0-1-.43,1.48,1.48,0,0,0-1.23.52,2.28,2.28,0,0,0-.41,1.45v3.63h-1.44v-6.57h1.38v1h0a2.14,2.14,0,0,1,.37-.5,2.24,2.24,0,0,1,.48-.37,2.34,2.34,0,0,1,.57-.23A2.51,2.51,0,0,1,911.63,138Z"/><path class="cls-1" d="M920.92,135.66v9.08h-1.45v-9.08Z"/><path class="cls-1" d="M924.36,135.31v1.42h-1.45v-1.42Zm0,2.86v6.57h-1.45v-6.57Z"/><path class="cls-1" d="M928.9,138a2.35,2.35,0,0,1,1.2.3,2.12,2.12,0,0,1,.81.85h0v-1h1.39v6.17a3.42,3.42,0,0,1-.23,1.31,2.39,2.39,0,0,1-.65.92,2.71,2.71,0,0,1-1,.54,4.81,4.81,0,0,1-1.35.18,4.46,4.46,0,0,1-1-.11,2.93,2.93,0,0,1-.86-.33,2.12,2.12,0,0,1-.65-.59,1.76,1.76,0,0,1-.31-.86h1.44a1,1,0,0,0,.49.66,2,2,0,0,0,1,.22,1.64,1.64,0,0,0,1.28-.49,2,2,0,0,0,.44-1.4v-1h0a2,2,0,0,1-.82.84,2.47,2.47,0,0,1-1.22.3,2.92,2.92,0,0,1-1.26-.25,2.46,2.46,0,0,1-.88-.69,3,3,0,0,1-.52-1,4.7,4.7,0,0,1-.17-1.3,4.06,4.06,0,0,1,.18-1.22,3.1,3.1,0,0,1,.54-1,2.67,2.67,0,0,1,.9-.72A2.76,2.76,0,0,1,928.9,138Zm-1.42,3.25a3.41,3.41,0,0,0,.11.87,2,2,0,0,0,.32.68,1.48,1.48,0,0,0,.53.44,1.65,1.65,0,0,0,.74.16,1.58,1.58,0,0,0,.75-.17,1.71,1.71,0,0,0,.55-.46,2,2,0,0,0,.34-.66,2.63,2.63,0,0,0,.11-.78,3.51,3.51,0,0,0-.11-.88,2.07,2.07,0,0,0-.32-.71,1.53,1.53,0,0,0-.55-.47,1.68,1.68,0,0,0-.78-.17,1.57,1.57,0,0,0-.77.18,1.53,1.53,0,0,0-.53.48,2.15,2.15,0,0,0-.3.69,3.18,3.18,0,0,0-.1.8Z"/><path class="cls-1" d="M938.71,144.74v-3.9a2.11,2.11,0,0,0-.32-1.27,1.19,1.19,0,0,0-1-.43,1.79,1.79,0,0,0-.72.13,1.33,1.33,0,0,0-.51.39,1.68,1.68,0,0,0-.3.62,3.13,3.13,0,0,0-.1.83v3.63h-1.44v-9.08h1.44v3.5h0a1.94,1.94,0,0,1,.35-.48,2.36,2.36,0,0,1,.47-.37,2.24,2.24,0,0,1,.56-.24,2.32,2.32,0,0,1,.61-.08,3.33,3.33,0,0,1,1.08.16,1.77,1.77,0,0,1,.74.47,2,2,0,0,1,.43.81,4.22,4.22,0,0,1,.14,1.14v4.17Z"/><path class="cls-1" d="M945.32,144.79h-.83a4.59,4.59,0,0,1-.74-.06,1.58,1.58,0,0,1-.6-.22,1.12,1.12,0,0,1-.4-.45,1.67,1.67,0,0,1-.15-.76v-4.15h-1.29v-1h1.29v-2H944v2h1.5v1H944v3.72a.83.83,0,0,0,.17.58.8.8,0,0,0,.59.18h.74v1.14Z"/><path class="cls-1" d="M956.86,141.46a4.85,4.85,0,0,1-.17,1.28,3.47,3.47,0,0,1-.52,1.11,2.65,2.65,0,0,1-.88.79,2.51,2.51,0,0,1-1.25.3,2.93,2.93,0,0,1-1.36-.3,1.9,1.9,0,0,1-.86-.87h0v1h-1.37v-9.08h1.44v3.47h0a1.88,1.88,0,0,1,.36-.47,2.16,2.16,0,0,1,.5-.36,2.68,2.68,0,0,1,.61-.23A2.85,2.85,0,0,1,954,138a2.52,2.52,0,0,1,1.24.29,2.66,2.66,0,0,1,.88.78,3.4,3.4,0,0,1,.52,1.11A4.87,4.87,0,0,1,956.86,141.46Zm-1.45,0a3.74,3.74,0,0,0-.09-.82,2.52,2.52,0,0,0-.3-.76,1.71,1.71,0,0,0-.54-.56,1.5,1.5,0,0,0-.83-.22,1.57,1.57,0,0,0-.82.21,1.71,1.71,0,0,0-.56.54,2.39,2.39,0,0,0-.32.75,3.63,3.63,0,0,0-.1.86,3.68,3.68,0,0,0,.1.83,2.37,2.37,0,0,0,.31.76,1.76,1.76,0,0,0,.56.55,1.57,1.57,0,0,0,.84.21,1.49,1.49,0,0,0,.8-.21,1.69,1.69,0,0,0,.54-.54,2.43,2.43,0,0,0,.31-.75A3.94,3.94,0,0,0,955.41,141.46Z"/><path class="cls-1" d="M961.07,138a2.35,2.35,0,0,1,1.2.3,2.12,2.12,0,0,1,.81.85h0v-1h1.39v6.17a3.42,3.42,0,0,1-.23,1.31,2.39,2.39,0,0,1-.65.92,2.71,2.71,0,0,1-1,.54,4.81,4.81,0,0,1-1.35.18,4.46,4.46,0,0,1-1-.11,2.93,2.93,0,0,1-.86-.33,2.12,2.12,0,0,1-.65-.59,1.76,1.76,0,0,1-.31-.86h1.44a1,1,0,0,0,.49.66,2,2,0,0,0,1,.22,1.64,1.64,0,0,0,1.28-.49,2,2,0,0,0,.44-1.4v-1h0a2,2,0,0,1-.82.84,2.47,2.47,0,0,1-1.22.3,2.92,2.92,0,0,1-1.26-.25,2.46,2.46,0,0,1-.88-.69,3,3,0,0,1-.52-1,4.7,4.7,0,0,1-.17-1.3,4.06,4.06,0,0,1,.18-1.22,3.1,3.1,0,0,1,.54-1,2.67,2.67,0,0,1,.9-.72A2.76,2.76,0,0,1,961.07,138Zm-1.42,3.25a3.41,3.41,0,0,0,.11.87,2,2,0,0,0,.32.68,1.48,1.48,0,0,0,.53.44,1.65,1.65,0,0,0,.74.16,1.58,1.58,0,0,0,.75-.17,1.71,1.71,0,0,0,.55-.46,2,2,0,0,0,.34-.66,2.63,2.63,0,0,0,.11-.78,3.51,3.51,0,0,0-.11-.88,2.07,2.07,0,0,0-.32-.71,1.53,1.53,0,0,0-.55-.47,1.68,1.68,0,0,0-.78-.17,1.57,1.57,0,0,0-.77.18,1.53,1.53,0,0,0-.53.48,2.15,2.15,0,0,0-.3.69,3.18,3.18,0,0,0-.1.8Z"/><path class="cls-1" d="M912.43,169.66l.34-2.48h-1.35l-.35,2.48h-1l.35-2.48h-1.11v-.88h1.23l.23-1.63H909.7v-.88h1.23l.35-2.48h1l-.35,2.48h1.35l.34-2.48h1l-.35,2.48h1v.88h-1.14l-.23,1.63h1v.88h-1.15l-.35,2.48Zm.69-5h-1.34l-.23,1.63h1.35Z"/><path class="cls-1" d="M921.47,167.61v2h-1.31v-2H916.4v-1.29l3.82-5.27h1.25v5.41h1.2v1.15Zm-1.31-4.82h0l-2.62,3.67h2.65Z"/><path class="cls-1" d="M927.07,160.93a3.18,3.18,0,0,1,1,.14,2.5,2.5,0,0,1,.79.41,2.29,2.29,0,0,1,.57.65,2.45,2.45,0,0,1,.3.86H928.4a1.58,1.58,0,0,0-.17-.4,1.14,1.14,0,0,0-.28-.31,1.25,1.25,0,0,0-.39-.21A1.63,1.63,0,0,0,927,162a1.45,1.45,0,0,0-.88.26,2,2,0,0,0-.58.69,3.5,3.5,0,0,0-.33,1,6.72,6.72,0,0,0-.12,1.13h0a2,2,0,0,1,1.58-1,2.45,2.45,0,0,1,1.36.11,2.41,2.41,0,0,1,1.36,1,2.77,2.77,0,0,1,.49,1.62A3,3,0,0,1,929,169a2.83,2.83,0,0,1-2.13.87,3.22,3.22,0,0,1-1.42-.29,2.58,2.58,0,0,1-1-.86,4.1,4.1,0,0,1-.59-1.39,8.47,8.47,0,0,1-.2-1.94,7.75,7.75,0,0,1,.07-1.05,5.85,5.85,0,0,1,.23-1,4.47,4.47,0,0,1,.42-.92,3.09,3.09,0,0,1,.63-.75,2.77,2.77,0,0,1,.86-.5A3.2,3.2,0,0,1,927.07,160.93Zm-1.8,5.94a1.9,1.9,0,0,0,.45,1.31,1.53,1.53,0,0,0,1.21.52,1.43,1.43,0,0,0,1.14-.53,1.9,1.9,0,0,0,.45-1.27,2.05,2.05,0,0,0-.43-1.32,1.42,1.42,0,0,0-1.17-.54,1.55,1.55,0,0,0-1.2.51,2,2,0,0,0-.45,1.31Z"/><path class="cls-1" d="M936,167.61v2h-1.31v-2h-3.76v-1.29l3.82-5.27H936v5.41h1.2v1.15Zm-1.31-4.82h0L932,166.46h2.65Z"/><path class="cls-1" d="M941.6,160.93a3.18,3.18,0,0,1,1,.14,2.5,2.5,0,0,1,.79.41,2.29,2.29,0,0,1,.57.65,2.45,2.45,0,0,1,.3.86H942.9a1.58,1.58,0,0,0-.17-.4,1.14,1.14,0,0,0-.28-.31,1.25,1.25,0,0,0-.39-.21,1.63,1.63,0,0,0-.51-.07,1.45,1.45,0,0,0-.88.26,2,2,0,0,0-.58.69,3.5,3.5,0,0,0-.33,1,6.72,6.72,0,0,0-.12,1.13h0a2,2,0,0,1,1.58-1,2.45,2.45,0,0,1,1.36.11,2.41,2.41,0,0,1,1.36,1,2.77,2.77,0,0,1,.49,1.62,3,3,0,0,1-.85,2.2,2.83,2.83,0,0,1-2.13.87,3.22,3.22,0,0,1-1.42-.29,2.58,2.58,0,0,1-1-.86,4.1,4.1,0,0,1-.59-1.39,8.47,8.47,0,0,1-.2-1.94,7.75,7.75,0,0,1,.07-1.05,5.85,5.85,0,0,1,.23-1,4.47,4.47,0,0,1,.42-.92,3.09,3.09,0,0,1,.63-.75,2.77,2.77,0,0,1,.86-.5A3.2,3.2,0,0,1,941.6,160.93Zm-1.8,5.94a1.9,1.9,0,0,0,.45,1.31,1.53,1.53,0,0,0,1.21.52,1.43,1.43,0,0,0,1.14-.53,1.9,1.9,0,0,0,.45-1.27,2.05,2.05,0,0,0-.43-1.32,1.42,1.42,0,0,0-1.17-.54,1.55,1.55,0,0,0-1.2.51,2,2,0,0,0-.45,1.31Z"/><path class="cls-1" d="M950.53,167.61v2h-1.31v-2h-3.76v-1.29l3.82-5.27h1.25v5.41h1.2v1.15Zm-1.31-4.82h0l-2.62,3.67h2.65Z"/><path class="cls-1" d="M956.13,160.93a3.18,3.18,0,0,1,1,.14,2.5,2.5,0,0,1,.79.41,2.29,2.29,0,0,1,.57.65,2.45,2.45,0,0,1,.3.86h-1.33a1.58,1.58,0,0,0-.17-.4,1.14,1.14,0,0,0-.28-.31,1.25,1.25,0,0,0-.39-.21,1.63,1.63,0,0,0-.51-.07,1.45,1.45,0,0,0-.88.26,2,2,0,0,0-.58.69,3.5,3.5,0,0,0-.33,1,6.72,6.72,0,0,0-.12,1.13h0a2,2,0,0,1,1.58-1,2.45,2.45,0,0,1,1.36.11,2.41,2.41,0,0,1,1.36,1,2.77,2.77,0,0,1,.49,1.62,3,3,0,0,1-.85,2.2,2.83,2.83,0,0,1-2.13.87,3.22,3.22,0,0,1-1.42-.29,2.58,2.58,0,0,1-1-.86,4.1,4.1,0,0,1-.59-1.39,8.47,8.47,0,0,1-.2-1.94,7.75,7.75,0,0,1,.07-1.05,5.85,5.85,0,0,1,.23-1,4.47,4.47,0,0,1,.42-.92,3.09,3.09,0,0,1,.63-.75,2.77,2.77,0,0,1,.86-.5A3.2,3.2,0,0,1,956.13,160.93Zm-1.8,5.94a1.9,1.9,0,0,0,.45,1.31,1.53,1.53,0,0,0,1.21.52,1.43,1.43,0,0,0,1.14-.53,1.9,1.9,0,0,0,.45-1.27,2.05,2.05,0,0,0-.43-1.32A1.42,1.42,0,0,0,956,165a1.55,1.55,0,0,0-1.2.51,2,2,0,0,0-.47,1.35Z"/></g></svg>