<svg xmlns="http://www.w3.org/2000/svg" viewBox="0 0 578 179"><defs><style>.cls-1,.cls-2,.cls-3,.cls-4{fill:#fff;}.cls-1,.cls-2{stroke:#004b7a;}.cls-1,.cls-2,.cls-3,.cls-4,.cls-5{stroke-miterlimit:10;}.cls-1,.cls-3{stroke-width:2px;}.cls-3,.cls-4,.cls-5{stroke:#00457a;}.cls-5{fill:#030202;}</style></defs><title>Artboard 45</title><g id="Colors"><polygon class="cls-1" points="88.89 126.63 60.56 126.63 64.34 116.91 85.11 116.91 88.89 126.63"/><rect class="cls-1" x="23.23" y="49.96" width="102.98" height="67.03"/><rect class="cls-2" x="28.27" y="54.47" width="92.91" height="56.93"/><polygon class="cls-1" points="320.53 157.83 213.42 157.83 213.42 17.86 266.98 17.86 320.53 17.86 320.53 157.83"/><line class="cls-1" x1="268.15" y1="157.9" x2="268.15" y2="17.9"/><rect class="cls-2" x="278.93" y="38.73" width="29.87" height="19.92"/><line class="cls-1" x1="303.15" y1="87.9" x2="315.15" y2="87.9"/><line class="cls-1" x1="252.15" y1="87.9" x2="264.15" y2="87.9"/><rect class="cls-1" x="96.5" y="100.94" width="78.74" height="51.26"/><rect class="cls-1" x="87.79" y="151.33" width="96.15" height="6.57"/><rect class="cls-2" x="100.35" y="104.39" width="71.04" height="43.53"/><rect class="cls-3" x="350.02" y="67.64" width="125.55" height="87.51"/><rect class="cls-4" x="368.95" y="79.74" width="87.69" height="44.84"/><rect class="cls-4" x="368.79" y="135.14" width="88" height="8"/><line class="cls-4" x1="476.01" y1="142.88" x2="350.01" y2="142.88"/><line class="cls-4" x1="383.51" y1="135.38" x2="383.51" y2="142.38"/><line class="cls-4" x1="399.51" y1="135.38" x2="399.51" y2="142.38"/><line class="cls-4" x1="412.51" y1="135.38" x2="412.51" y2="142.38"/><line class="cls-4" x1="427.51" y1="135.38" x2="427.51" y2="142.38"/><line class="cls-4" x1="442.51" y1="135.38" x2="442.51" y2="142.38"/><rect class="cls-3" x="489.17" y="92.82" width="80.83" height="48.19" transform="translate(412.67 646.49) rotate(-90)"/><rect class="cls-4" x="497.65" y="95.4" width="63.87" height="37.95" transform="translate(415.21 643.96) rotate(-90)"/><circle class="cls-5" cx="529.92" cy="151.32" r="2.33"/></g></svg>