<svg xmlns="http://www.w3.org/2000/svg" viewBox="0 0 441 352"><defs><style>.cls-1{fill:#dcdcdc;}.cls-10,.cls-11,.cls-12,.cls-13,.cls-14,.cls-2,.cls-3,.cls-7,.cls-8,.cls-9{fill:none;}.cls-2{stroke:#dcdcdc;}.cls-10,.cls-11,.cls-12,.cls-13,.cls-14,.cls-2,.cls-3,.cls-6,.cls-7,.cls-8,.cls-9{stroke-miterlimit:10;}.cls-3,.cls-6{stroke:#505050;}.cls-4{fill:#505050;}.cls-5{fill:#464646;}.cls-6{fill:#fff;}.cls-7{stroke:#dfac92;}.cls-10,.cls-11,.cls-12,.cls-13,.cls-14,.cls-7,.cls-8,.cls-9{stroke-width:1.5px;}.cls-8{stroke:#889fa3;}.cls-9{stroke:#21be89;}.cls-10{stroke:#8664bf;}.cls-11{stroke:#58d7da;}.cls-12{stroke:#c675b3;}.cls-13{stroke:#be704c;}.cls-14{stroke:#973e82;}</style></defs><title>Artboard 19</title><g id="Colors"><path class="cls-1" d="M425,12V327H26V12H425m1-1H25V328H426V11Z"/><line class="cls-2" x1="125.5" y1="12.5" x2="125.5" y2="327.5"/><line class="cls-2" x1="225.5" y1="12.5" x2="225.5" y2="327.5"/><line class="cls-2" x1="325.5" y1="12.5" x2="325.5" y2="327.5"/><line class="cls-2" x1="26.93" y1="88.5" x2="425.93" y2="88.5"/><line class="cls-2" x1="26.93" y1="166.5" x2="425.93" y2="166.5"/><line class="cls-2" x1="26.93" y1="245.5" x2="425.93" y2="245.5"/><line class="cls-3" x1="25" y1="327.5" x2="426" y2="327.5"/><path class="cls-4" d="M10.2,12.22a2.89,2.89,0,0,1,1,.15,2.31,2.31,0,0,1,.78.46,1.93,1.93,0,0,1,.52.72,2.5,2.5,0,0,1-.17,2.14,4.22,4.22,0,0,1-1.38,1.22l-.64.42a5.27,5.27,0,0,0-.44.34,3.29,3.29,0,0,0-.55.58h3.38V19.5H7.42A2.8,2.8,0,0,1,8,17.73a3.27,3.27,0,0,1,.42-.46,8.66,8.66,0,0,1,.68-.54q.45-.33,1.12-.77a2.74,2.74,0,0,0,.75-.67,1.23,1.23,0,0,0,.24-.73,1.35,1.35,0,0,0-.07-.44,1,1,0,0,0-.21-.36.92.92,0,0,0-.31-.22,1.08,1.08,0,0,0-.43-.08,1.15,1.15,0,0,0-.52.11,1.11,1.11,0,0,0-.36.29,1.18,1.18,0,0,0-.21.4,1.52,1.52,0,0,0-.07.46v.11H7.62V14.7a2.7,2.7,0,0,1,.19-1,2.21,2.21,0,0,1,.53-.78,2.3,2.3,0,0,1,.82-.49A3.1,3.1,0,0,1,10.2,12.22Z"/><path class="cls-4" d="M16.09,12.21a2.6,2.6,0,0,1,1.13.23,2.13,2.13,0,0,1,.83.7,3.35,3.35,0,0,1,.51,1.15,6.7,6.7,0,0,1,.17,1.6,4.82,4.82,0,0,1-.67,2.79,2.25,2.25,0,0,1-2,1,2.24,2.24,0,0,1-1.94-.94,4.85,4.85,0,0,1-.67-2.8,4.72,4.72,0,0,1,.67-2.74A2.24,2.24,0,0,1,16.09,12.21Zm-1.16,3.69c0,.18,0,.36,0,.55s0,.38,0,.57a4,4,0,0,0,.11.54,1.58,1.58,0,0,0,.2.45,1,1,0,0,0,.32.31,1,1,0,0,0,.95,0,1.05,1.05,0,0,0,.33-.34,1.8,1.8,0,0,0,.21-.48,4.24,4.24,0,0,0,.11-.55,4.56,4.56,0,0,0,0-.55c0-.18,0-.34,0-.49s0-.39,0-.59a5.29,5.29,0,0,0-.06-.57,3.44,3.44,0,0,0-.12-.52,1.55,1.55,0,0,0-.21-.42,1,1,0,0,0-.32-.29.94.94,0,0,0-.46-.11.85.85,0,0,0-.47.13,1.08,1.08,0,0,0-.32.33,1.8,1.8,0,0,0-.2.47,4.5,4.5,0,0,0-.11.54q0,.28,0,.54C14.93,15.61,14.93,15.77,14.93,15.91Z"/><path class="cls-4" d="M9.76,96.5V91.87H8V90.78a4,4,0,0,0,.74-.06,2,2,0,0,0,.54-.18,1.47,1.47,0,0,0,.79-1.18h1.16V96.5Z"/><path class="cls-4" d="M18.33,89.37v1.2H15.38l-.28,1.61,0,0a1.9,1.9,0,0,1,.6-.41,2.06,2.06,0,0,1,.8-.14,2.19,2.19,0,0,1,.93.19,2.05,2.05,0,0,1,.69.52,2.27,2.27,0,0,1,.44.77,2.94,2.94,0,0,1,.15.95,2.49,2.49,0,0,1-.2,1,2.59,2.59,0,0,1-.56.82,2.66,2.66,0,0,1-.85.56,2.7,2.7,0,0,1-1.07.21,3.87,3.87,0,0,1-1-.12,2.37,2.37,0,0,1-.81-.37,1.94,1.94,0,0,1-.57-.65,2.26,2.26,0,0,1-.26-.94h1.45a1.19,1.19,0,0,0,.11.35.93.93,0,0,0,.22.28,1,1,0,0,0,.33.18,1.37,1.37,0,0,0,.45.07,1.23,1.23,0,0,0,.54-.12,1.19,1.19,0,0,0,.4-.3,1.3,1.3,0,0,0,.24-.44,1.7,1.7,0,0,0,.08-.52,1.62,1.62,0,0,0-.08-.51,1.26,1.26,0,0,0-.24-.43,1.17,1.17,0,0,0-.39-.29,1.26,1.26,0,0,0-.54-.11,1.48,1.48,0,0,0-.35,0,1.07,1.07,0,0,0-.29.11,1.19,1.19,0,0,0-.24.18,1.83,1.83,0,0,0-.21.25h-1.3l.71-3.94Z"/><path class="cls-4" d="M9.76,173.5v-4.63H8v-1.09a4,4,0,0,0,.74-.06,2,2,0,0,0,.54-.18,1.47,1.47,0,0,0,.79-1.18h1.16v7.14Z"/><path class="cls-4" d="M16.09,166.21a2.6,2.6,0,0,1,1.13.23,2.13,2.13,0,0,1,.83.7,3.35,3.35,0,0,1,.51,1.15,6.7,6.7,0,0,1,.17,1.6,4.82,4.82,0,0,1-.67,2.79,2.25,2.25,0,0,1-2,1,2.24,2.24,0,0,1-1.94-.94,4.85,4.85,0,0,1-.67-2.8,4.72,4.72,0,0,1,.67-2.74A2.24,2.24,0,0,1,16.09,166.21Zm-1.16,3.69c0,.18,0,.36,0,.55s0,.38,0,.57a4,4,0,0,0,.11.54,1.58,1.58,0,0,0,.2.45,1,1,0,0,0,.32.31,1,1,0,0,0,.95,0,1.05,1.05,0,0,0,.33-.34,1.8,1.8,0,0,0,.21-.48,4.24,4.24,0,0,0,.11-.55,4.56,4.56,0,0,0,0-.55c0-.18,0-.34,0-.49s0-.39,0-.59a5.29,5.29,0,0,0-.06-.57,3.44,3.44,0,0,0-.12-.52,1.55,1.55,0,0,0-.21-.42,1,1,0,0,0-.32-.29.94.94,0,0,0-.46-.11.85.85,0,0,0-.47.13,1.08,1.08,0,0,0-.32.33,1.8,1.8,0,0,0-.2.47,4.5,4.5,0,0,0-.11.54q0,.28,0,.54C14.93,169.61,14.93,169.77,14.93,169.91Z"/><path class="cls-4" d="M18.33,243.37v1.2H15.38l-.28,1.61,0,0a1.9,1.9,0,0,1,.6-.41,2.06,2.06,0,0,1,.8-.14,2.19,2.19,0,0,1,.93.19,2.05,2.05,0,0,1,.69.52,2.27,2.27,0,0,1,.44.77,2.94,2.94,0,0,1,.15.95,2.49,2.49,0,0,1-.2,1,2.59,2.59,0,0,1-.56.82,2.66,2.66,0,0,1-.85.56,2.7,2.7,0,0,1-1.07.21,3.87,3.87,0,0,1-1-.12,2.37,2.37,0,0,1-.81-.37,1.94,1.94,0,0,1-.57-.65,2.26,2.26,0,0,1-.26-.94h1.45a1.19,1.19,0,0,0,.11.35.93.93,0,0,0,.22.28,1,1,0,0,0,.33.18,1.37,1.37,0,0,0,.45.07,1.23,1.23,0,0,0,.54-.12,1.19,1.19,0,0,0,.4-.3,1.3,1.3,0,0,0,.24-.44,1.7,1.7,0,0,0,.08-.52,1.62,1.62,0,0,0-.08-.51,1.26,1.26,0,0,0-.24-.43,1.17,1.17,0,0,0-.39-.29,1.26,1.26,0,0,0-.54-.11,1.48,1.48,0,0,0-.35,0,1.07,1.07,0,0,0-.29.11,1.19,1.19,0,0,0-.24.18,1.83,1.83,0,0,0-.21.25h-1.3l.71-3.94Z"/><path class="cls-4" d="M16.09,320.21a2.6,2.6,0,0,1,1.13.23,2.13,2.13,0,0,1,.83.7,3.35,3.35,0,0,1,.51,1.15,6.7,6.7,0,0,1,.17,1.6,4.82,4.82,0,0,1-.67,2.79,2.25,2.25,0,0,1-2,1,2.24,2.24,0,0,1-1.94-.94,4.85,4.85,0,0,1-.67-2.8,4.72,4.72,0,0,1,.67-2.74A2.24,2.24,0,0,1,16.09,320.21Zm-1.16,3.69c0,.18,0,.36,0,.55s0,.38,0,.57a4,4,0,0,0,.11.54,1.58,1.58,0,0,0,.2.45,1,1,0,0,0,.32.31,1,1,0,0,0,.95,0,1.05,1.05,0,0,0,.33-.34,1.8,1.8,0,0,0,.21-.48,4.24,4.24,0,0,0,.11-.55,4.56,4.56,0,0,0,0-.55c0-.18,0-.34,0-.49s0-.39,0-.59a5.29,5.29,0,0,0-.06-.57,3.44,3.44,0,0,0-.12-.52,1.55,1.55,0,0,0-.21-.42,1,1,0,0,0-.32-.29.94.94,0,0,0-.46-.11.85.85,0,0,0-.47.13,1.08,1.08,0,0,0-.32.33,1.8,1.8,0,0,0-.2.47,4.5,4.5,0,0,0-.11.54q0,.28,0,.54C14.93,323.61,14.93,323.77,14.93,323.91Z"/><path class="cls-5" d="M11.5,345.13v-4.89H9.67v-.86a5,5,0,0,0,.75-.06,2,2,0,0,0,.52-.15,1.3,1.3,0,0,0,.53-.46,1.83,1.83,0,0,0,.26-.74h.93v7.17Z"/><path class="cls-5" d="M17.55,345.13v-4.89H15.72v-.86a5,5,0,0,0,.75-.06,2,2,0,0,0,.52-.15,1.3,1.3,0,0,0,.53-.46,1.83,1.83,0,0,0,.26-.74h.93v7.17Z"/><path class="cls-5" d="M22.86,343.76v1.37H21.52v-1.37Z"/><path class="cls-5" d="M32.75,343.09a2,2,0,0,1-.24,1,2,2,0,0,1-.65.68,2.89,2.89,0,0,1-.94.39,4.86,4.86,0,0,1-1.12.13,4.27,4.27,0,0,1-1.14-.14,2.8,2.8,0,0,1-.92-.43,2,2,0,0,1-.62-.7,2,2,0,0,1-.22-1V343h1.22v0a1.13,1.13,0,0,0,.14.56,1.17,1.17,0,0,0,.38.4,1.72,1.72,0,0,0,.56.24,2.87,2.87,0,0,0,.68.08,2.83,2.83,0,0,0,.64-.07A1.7,1.7,0,0,0,31,344a1.08,1.08,0,0,0,.35-.34.89.89,0,0,0,.13-.48.77.77,0,0,0-.31-.63,2.71,2.71,0,0,0-1-.42l-1.53-.41a2.35,2.35,0,0,1-1.2-.65,1.67,1.67,0,0,1-.39-1.16,1.85,1.85,0,0,1,.21-.91,2,2,0,0,1,.58-.66,2.66,2.66,0,0,1,.86-.4,4,4,0,0,1,2,0,2.68,2.68,0,0,1,.85.38,2,2,0,0,1,.59.64,1.89,1.89,0,0,1,.23.91H31.27a1,1,0,0,0-.44-.77,1.48,1.48,0,0,0-.46-.22,2.09,2.09,0,0,0-.59-.08,2.41,2.41,0,0,0-.55.06,1.44,1.44,0,0,0-.46.19,1,1,0,0,0-.31.32.88.88,0,0,0-.12.46.83.83,0,0,0,.06.33.69.69,0,0,0,.17.23.89.89,0,0,0,.26.16l.34.11,1.69.44a3.07,3.07,0,0,1,1.42.72A1.69,1.69,0,0,1,32.75,343.09Z"/><path class="cls-5" d="M39.14,338v1.05H35.21V341h3.64v1H35.21v2.13h4v1H34V338Z"/><path class="cls-5" d="M46,340.19a2.12,2.12,0,0,1-.62,1.6,2.1,2.1,0,0,1-.73.45,2.77,2.77,0,0,1-.95.15h-2v2.74H40.46V338h3.25a2.33,2.33,0,0,1,1.68.6A2.09,2.09,0,0,1,46,340.19Zm-1.22,0a1.14,1.14,0,0,0-.35-.91,1.64,1.64,0,0,0-1.09-.3H41.71v2.42h1.66a2.33,2.33,0,0,0,.6-.07,1.07,1.07,0,0,0,.81-1.14Z"/><path class="cls-5" d="M114.81,345.13v-4.89H113v-.86a5.06,5.06,0,0,0,.75-.06,2,2,0,0,0,.52-.15,1.3,1.3,0,0,0,.53-.46A1.84,1.84,0,0,0,115,338H116v7.17Z"/><path class="cls-5" d="M121.13,337.85a2.45,2.45,0,0,1,1.69.59,1.85,1.85,0,0,1,.5.69,2.3,2.3,0,0,1,.16.88,2.35,2.35,0,0,1-.38,1.29,4.85,4.85,0,0,1-1.48,1.28q-.41.25-.71.47a5.84,5.84,0,0,0-.48.39,2.33,2.33,0,0,0-.52.68h3.61v1h-5.07a2.79,2.79,0,0,1,.33-1.32,3.05,3.05,0,0,1,.42-.57,4.6,4.6,0,0,1,.62-.55l.79-.59.93-.69a2.26,2.26,0,0,0,.59-.63,1.35,1.35,0,0,0,.19-.69,1.39,1.39,0,0,0-.09-.5,1.11,1.11,0,0,0-.26-.4,1.18,1.18,0,0,0-.39-.25,1.47,1.47,0,0,0-1.09,0,1.22,1.22,0,0,0-.41.31,1.34,1.34,0,0,0-.24.44,1.67,1.67,0,0,0-.08.51v.12h-1.11v-.12a2.61,2.61,0,0,1,.17-1,2.13,2.13,0,0,1,.49-.75,2.27,2.27,0,0,1,.78-.49A2.88,2.88,0,0,1,121.13,337.85Z"/><path class="cls-5" d="M126.17,339.82v1.37h-1.34v-1.37Zm0,3.94v1.37h-1.34v-1.37Z"/><path class="cls-5" d="M130,337.85a2.21,2.21,0,0,1,1.93.94,4.77,4.77,0,0,1,.66,2.75,4.86,4.86,0,0,1-.66,2.79,2.44,2.44,0,0,1-3.85,0,4.84,4.84,0,0,1-.66-2.79,4.79,4.79,0,0,1,.66-2.76A2.2,2.2,0,0,1,130,337.85Zm-1.42,3.7a8.68,8.68,0,0,0,.06,1,3.48,3.48,0,0,0,.22.89,1.53,1.53,0,0,0,.43.62,1.06,1.06,0,0,0,.71.23,1.13,1.13,0,0,0,.52-.11,1.15,1.15,0,0,0,.38-.31,1.78,1.78,0,0,0,.26-.47,3.39,3.39,0,0,0,.16-.57,5.26,5.26,0,0,0,.09-.64c0-.22,0-.44,0-.66a8.19,8.19,0,0,0-.07-1.06,3.19,3.19,0,0,0-.23-.87,1.52,1.52,0,0,0-.44-.59,1.1,1.1,0,0,0-.7-.22,1.07,1.07,0,0,0-.5.11,1.17,1.17,0,0,0-.37.31,1.69,1.69,0,0,0-.26.46,3.55,3.55,0,0,0-.16.57,5.28,5.28,0,0,0-.09.63C128.55,341.11,128.54,341.33,128.54,341.54Z"/><path class="cls-5" d="M136,337.85a2.21,2.21,0,0,1,1.93.94,4.77,4.77,0,0,1,.66,2.75,4.86,4.86,0,0,1-.66,2.79,2.44,2.44,0,0,1-3.85,0,4.84,4.84,0,0,1-.66-2.79,4.79,4.79,0,0,1,.66-2.76A2.2,2.2,0,0,1,136,337.85Zm-1.42,3.7a8.68,8.68,0,0,0,.06,1,3.48,3.48,0,0,0,.22.89,1.53,1.53,0,0,0,.43.62,1.06,1.06,0,0,0,.71.23,1.13,1.13,0,0,0,.52-.11,1.15,1.15,0,0,0,.38-.31,1.78,1.78,0,0,0,.26-.47,3.39,3.39,0,0,0,.16-.57,5.26,5.26,0,0,0,.09-.64c0-.22,0-.44,0-.66a8.19,8.19,0,0,0-.07-1.06,3.19,3.19,0,0,0-.23-.87,1.52,1.52,0,0,0-.44-.59,1.1,1.1,0,0,0-.7-.22,1.07,1.07,0,0,0-.5.11,1.17,1.17,0,0,0-.37.31,1.69,1.69,0,0,0-.26.46,3.55,3.55,0,0,0-.16.57,5.28,5.28,0,0,0-.09.63C134.61,341.11,134.6,341.33,134.6,341.54Z"/><path class="cls-5" d="M207.5,345.13v-4.89h-1.83v-.86a5.06,5.06,0,0,0,.75-.06,2,2,0,0,0,.52-.15,1.3,1.3,0,0,0,.53-.46,1.84,1.84,0,0,0,.26-.74h.93v7.17Z"/><path class="cls-5" d="M213.82,337.85a2.45,2.45,0,0,1,1.69.59,1.85,1.85,0,0,1,.5.69,2.3,2.3,0,0,1,.16.88,2.35,2.35,0,0,1-.38,1.29,4.85,4.85,0,0,1-1.48,1.28q-.41.25-.71.47a5.84,5.84,0,0,0-.48.39,2.33,2.33,0,0,0-.52.68h3.61v1h-5.07a2.79,2.79,0,0,1,.33-1.32,3.05,3.05,0,0,1,.42-.57,4.6,4.6,0,0,1,.62-.55l.79-.59.93-.69a2.26,2.26,0,0,0,.59-.63,1.35,1.35,0,0,0,.19-.69,1.39,1.39,0,0,0-.09-.5,1.11,1.11,0,0,0-.26-.4,1.18,1.18,0,0,0-.39-.25,1.47,1.47,0,0,0-1.09,0,1.22,1.22,0,0,0-.41.31,1.34,1.34,0,0,0-.24.44,1.67,1.67,0,0,0-.08.51v.12h-1.11v-.12a2.61,2.61,0,0,1,.17-1,2.13,2.13,0,0,1,.49-.75,2.27,2.27,0,0,1,.78-.49A2.88,2.88,0,0,1,213.82,337.85Z"/><path class="cls-5" d="M218.86,343.76v1.37h-1.34v-1.37Z"/><path class="cls-5" d="M228.75,343.09a2,2,0,0,1-.24,1,2,2,0,0,1-.65.68,2.89,2.89,0,0,1-.94.39,4.86,4.86,0,0,1-1.12.13,4.28,4.28,0,0,1-1.14-.14,2.81,2.81,0,0,1-.92-.43,2.06,2.06,0,0,1-.62-.7,2,2,0,0,1-.22-1V343h1.23v0a1.11,1.11,0,0,0,.14.56,1.17,1.17,0,0,0,.38.4,1.73,1.73,0,0,0,.56.24,2.89,2.89,0,0,0,.68.08,2.84,2.84,0,0,0,.64-.07A1.7,1.7,0,0,0,227,344a1.07,1.07,0,0,0,.35-.34.88.88,0,0,0,.13-.48.77.77,0,0,0-.31-.63,2.7,2.7,0,0,0-1-.42l-1.53-.41a2.36,2.36,0,0,1-1.2-.65,1.68,1.68,0,0,1-.39-1.16,1.86,1.86,0,0,1,.21-.91,2,2,0,0,1,.58-.66,2.67,2.67,0,0,1,.86-.4,4,4,0,0,1,2,0,2.67,2.67,0,0,1,.85.38,1.94,1.94,0,0,1,.59.64,1.89,1.89,0,0,1,.23.91h-1.22a1,1,0,0,0-.13-.43,1.05,1.05,0,0,0-.31-.34,1.46,1.46,0,0,0-.46-.22,2.09,2.09,0,0,0-.59-.08,2.42,2.42,0,0,0-.55.06,1.44,1.44,0,0,0-.46.19,1,1,0,0,0-.31.32.88.88,0,0,0-.11.46.83.83,0,0,0,.06.33.68.68,0,0,0,.17.23.88.88,0,0,0,.26.16l.34.11,1.68.44a3.07,3.07,0,0,1,1.42.72A1.68,1.68,0,0,1,228.75,343.09Z"/><path class="cls-5" d="M235.14,338v1.05h-3.94V341h3.64v1h-3.64v2.13h4v1H230V338Z"/><path class="cls-5" d="M242,340.19a2.12,2.12,0,0,1-.62,1.6,2.1,2.1,0,0,1-.73.45,2.77,2.77,0,0,1-.95.15h-2v2.74h-1.25V338h3.25a2.33,2.33,0,0,1,1.67.6A2.09,2.09,0,0,1,242,340.19Zm-1.22,0a1.14,1.14,0,0,0-.35-.91,1.64,1.64,0,0,0-1.09-.3h-1.64v2.42h1.67a2.34,2.34,0,0,0,.6-.07,1.07,1.07,0,0,0,.81-1.14Z"/><path class="cls-5" d="M312.81,345.13v-4.89H311v-.86a5.06,5.06,0,0,0,.75-.06,2,2,0,0,0,.52-.15,1.3,1.3,0,0,0,.53-.46A1.84,1.84,0,0,0,313,338H314v7.17Z"/><path class="cls-5" d="M319.13,337.85a2.45,2.45,0,0,1,1.69.59,1.85,1.85,0,0,1,.5.69,2.3,2.3,0,0,1,.16.88,2.35,2.35,0,0,1-.38,1.29,4.85,4.85,0,0,1-1.48,1.28q-.41.25-.71.47a5.84,5.84,0,0,0-.48.39,2.33,2.33,0,0,0-.52.68h3.61v1h-5.07a2.79,2.79,0,0,1,.33-1.32,3.05,3.05,0,0,1,.42-.57,4.6,4.6,0,0,1,.62-.55l.79-.59.93-.69a2.26,2.26,0,0,0,.59-.63,1.35,1.35,0,0,0,.19-.69,1.39,1.39,0,0,0-.09-.5,1.11,1.11,0,0,0-.26-.4,1.18,1.18,0,0,0-.39-.25,1.47,1.47,0,0,0-1.09,0,1.22,1.22,0,0,0-.41.31,1.34,1.34,0,0,0-.24.44,1.67,1.67,0,0,0-.08.51v.12h-1.11v-.12a2.61,2.61,0,0,1,.17-1,2.13,2.13,0,0,1,.49-.75,2.27,2.27,0,0,1,.78-.49A2.88,2.88,0,0,1,319.13,337.85Z"/><path class="cls-5" d="M324.17,339.82v1.37h-1.34v-1.37Zm0,3.94v1.37h-1.34v-1.37Z"/><path class="cls-5" d="M328,337.85a2.21,2.21,0,0,1,1.93.94,4.77,4.77,0,0,1,.66,2.75,4.86,4.86,0,0,1-.66,2.79,2.44,2.44,0,0,1-3.85,0,4.84,4.84,0,0,1-.66-2.79,4.79,4.79,0,0,1,.66-2.76A2.2,2.2,0,0,1,328,337.85Zm-1.42,3.7a8.68,8.68,0,0,0,.06,1,3.48,3.48,0,0,0,.22.89,1.53,1.53,0,0,0,.43.62,1.06,1.06,0,0,0,.71.23,1.13,1.13,0,0,0,.52-.11,1.15,1.15,0,0,0,.38-.31,1.78,1.78,0,0,0,.26-.47,3.39,3.39,0,0,0,.16-.57,5.26,5.26,0,0,0,.09-.64c0-.22,0-.44,0-.66a8.19,8.19,0,0,0-.07-1.06,3.19,3.19,0,0,0-.23-.87,1.52,1.52,0,0,0-.44-.59,1.1,1.1,0,0,0-.7-.22,1.07,1.07,0,0,0-.5.11,1.17,1.17,0,0,0-.37.31,1.69,1.69,0,0,0-.26.46,3.55,3.55,0,0,0-.16.57,5.28,5.28,0,0,0-.09.63C326.55,341.11,326.54,341.33,326.54,341.54Z"/><path class="cls-5" d="M334,337.85a2.21,2.21,0,0,1,1.93.94,4.77,4.77,0,0,1,.66,2.75,4.86,4.86,0,0,1-.66,2.79,2.44,2.44,0,0,1-3.85,0,4.84,4.84,0,0,1-.66-2.79,4.79,4.79,0,0,1,.66-2.76A2.2,2.2,0,0,1,334,337.85Zm-1.42,3.7a8.68,8.68,0,0,0,.06,1,3.48,3.48,0,0,0,.22.89,1.53,1.53,0,0,0,.43.62,1.06,1.06,0,0,0,.71.23,1.13,1.13,0,0,0,.52-.11,1.15,1.15,0,0,0,.38-.31,1.78,1.78,0,0,0,.26-.47,3.39,3.39,0,0,0,.16-.57,5.26,5.26,0,0,0,.09-.64c0-.22,0-.44,0-.66a8.19,8.19,0,0,0-.07-1.06,3.19,3.19,0,0,0-.23-.87,1.52,1.52,0,0,0-.44-.59,1.1,1.1,0,0,0-.7-.22,1.07,1.07,0,0,0-.5.11,1.17,1.17,0,0,0-.37.31,1.69,1.69,0,0,0-.26.46,3.55,3.55,0,0,0-.16.57,5.28,5.28,0,0,0-.09.63C332.61,341.11,332.6,341.33,332.6,341.54Z"/><path class="cls-5" d="M403.5,345.13v-4.89h-1.83v-.86a5.08,5.08,0,0,0,.75-.06,2,2,0,0,0,.52-.15,1.3,1.3,0,0,0,.54-.46,1.85,1.85,0,0,0,.26-.74h.93v7.17Z"/><path class="cls-5" d="M409.72,337.85a3.05,3.05,0,0,1,.86.12,2.25,2.25,0,0,1,.73.36,1.82,1.82,0,0,1,.51.6,1.77,1.77,0,0,1,.19.83,1.81,1.81,0,0,1-.07.51,1.51,1.51,0,0,1-.21.43,1.39,1.39,0,0,1-.34.34,1.59,1.59,0,0,1-.47.22v0a1.62,1.62,0,0,1,1,.6,1.73,1.73,0,0,1,.35,1.08,2.08,2.08,0,0,1-.74,1.66,2.76,2.76,0,0,1-1.86.63,3.21,3.21,0,0,1-1-.15,2.44,2.44,0,0,1-.81-.43,2.07,2.07,0,0,1-.56-.7,2.12,2.12,0,0,1-.21-1v-.11h1.11V343a1.24,1.24,0,0,0,.11.53,1.21,1.21,0,0,0,.3.4,1.31,1.31,0,0,0,.44.25,1.59,1.59,0,0,0,.53.09,1.51,1.51,0,0,0,1.07-.37,1.21,1.21,0,0,0,.4-.93,1.12,1.12,0,0,0-.37-.91,1.83,1.83,0,0,0-1.22-.32h-.29v-.85h.36a1.55,1.55,0,0,0,1-.29.92.92,0,0,0,.33-.75,1.14,1.14,0,0,0-.1-.49.92.92,0,0,0-.26-.34,1.09,1.09,0,0,0-.38-.2,1.61,1.61,0,0,0-.47-.07,1.41,1.41,0,0,0-.5.09,1.19,1.19,0,0,0-.4.25,1.21,1.21,0,0,0-.27.39,1.37,1.37,0,0,0-.11.53h-1.11a2.35,2.35,0,0,1,.19-.87,2.14,2.14,0,0,1,.49-.7,2.31,2.31,0,0,1,.76-.47A2.7,2.7,0,0,1,409.72,337.85Z"/><path class="cls-5" d="M414.86,343.76v1.37h-1.34v-1.37Z"/><path class="cls-5" d="M424.75,343.09a1.91,1.91,0,0,1-.89,1.69,2.89,2.89,0,0,1-.94.39,4.86,4.86,0,0,1-1.12.13,4.28,4.28,0,0,1-1.14-.14,2.82,2.82,0,0,1-.92-.43,2.09,2.09,0,0,1-.62-.7,2,2,0,0,1-.22-1V343h1.23v0a1.11,1.11,0,0,0,.14.56,1.17,1.17,0,0,0,.38.4,1.74,1.74,0,0,0,.56.24,2.9,2.9,0,0,0,.68.08,2.85,2.85,0,0,0,.64-.07A1.69,1.69,0,0,0,423,344a1.06,1.06,0,0,0,.35-.34.87.87,0,0,0,.13-.48.77.77,0,0,0-.31-.63,2.7,2.7,0,0,0-1-.42l-1.53-.41a2.37,2.37,0,0,1-1.2-.65,1.68,1.68,0,0,1-.39-1.16,1.87,1.87,0,0,1,.21-.91,2,2,0,0,1,.58-.66,2.68,2.68,0,0,1,.86-.4,4,4,0,0,1,2,0,2.66,2.66,0,0,1,.85.38,1.93,1.93,0,0,1,.59.64,1.89,1.89,0,0,1,.23.91h-1.22a1,1,0,0,0-.13-.43,1.07,1.07,0,0,0-.31-.34,1.45,1.45,0,0,0-.46-.22,2.09,2.09,0,0,0-.59-.08,2.43,2.43,0,0,0-.55.06,1.44,1.44,0,0,0-.46.19,1,1,0,0,0-.31.32.88.88,0,0,0-.11.46.83.83,0,0,0,.06.33.67.67,0,0,0,.17.23.88.88,0,0,0,.26.16l.34.11,1.68.44a3.07,3.07,0,0,1,1.42.72A1.68,1.68,0,0,1,424.75,343.09Z"/><path class="cls-5" d="M431.14,338v1.05h-3.94V341h3.64v1h-3.64v2.13h4v1H426V338Z"/><path class="cls-5" d="M438,340.19a2.11,2.11,0,0,1-.62,1.6,2.09,2.09,0,0,1-.73.45,2.78,2.78,0,0,1-.95.15h-2v2.74h-1.25V338h3.25a2.33,2.33,0,0,1,1.67.6A2.08,2.08,0,0,1,438,340.19Zm-1.22,0a1.14,1.14,0,0,0-.35-.91,1.64,1.64,0,0,0-1.09-.3h-1.64v2.42h1.67a2.35,2.35,0,0,0,.6-.07,1.12,1.12,0,0,0,.44-.23A1.1,1.1,0,0,0,436.78,340.19Z"/><line class="cls-6" x1="25.5" y1="327" x2="25.5" y2="11"/><polyline class="cls-7" points="27.5 137 105.5 68.5 131 207 165.5 165 281 117.93 305.5 207 385.5 55 425.5 112.81"/><polyline class="cls-8" points="27.5 165.86 105.5 107.5 131 225.5 165.5 189.72 281 149.61 305.5 125.5 385.5 96 425.5 145.25"/><path class="cls-9" d="M26.93,197l98.57-72,13.72,72,86.29-72s43-58,51.5-54,48.5,28,48.5,28,68.46,32,100,48.56"/><path class="cls-10" d="M26.93,288l98.57-2,13.72,2,86.29-2s43-58,51.5-54,48.5,28,48.5,28,68.46-38,100-21.44"/><path class="cls-11" d="M26.93,257,75.5,185l63.72,72,86.29-2s43-58,51.5-54,78.5,18,78.5,18,38.46-28,70-11.44"/><path class="cls-12" d="M26.93,236l48.57,9.5,63.72-9.5,86.29.26s43,7.65,51.5,7.13S355.5,241,355.5,241s38.46,3.69,70,1.51"/><path class="cls-13" d="M26.93,45,75.5,54.5,139.21,45l86.29.26s43,7.65,51.5,7.13S355.5,50,355.5,50s38.46,3.69,70,1.51"/><path class="cls-14" d="M26.93,65.47,75.5,95l63.72-29.48,86.29.82S268.5,90,277,88.4,355.5,81,355.5,81s38.46,11.46,70,4.68"/></g></svg>