<svg xmlns="http://www.w3.org/2000/svg" viewBox="0 0 838 92"><defs><style>.cls-1{fill:#c675b3;}.cls-2{fill:#b7519f;}.cls-3{fill:#dfac92;}.cls-4{fill:#d48e6a;}.cls-5{fill:#a288ce;}.cls-6{fill:#8664bf;}.cls-7{fill:#973e82;}.cls-8{fill:#be704c;}.cls-9{fill:#6c46aa;}.cls-10{fill:#70cfff;}.cls-11{fill:#0aaeff;}.cls-12{fill:#08c;}.cls-13{fill:#90e4e6;}.cls-14{fill:#58d7da;}.cls-15{fill:#68dfaa;}.cls-16{fill:#21be89;}.cls-17{fill:#28b1b5;}.cls-18{fill:#049669;}.cls-19{fill:#c2cdcf;}.cls-20{fill:#a5b6b9;}.cls-21{fill:#889fa3;}</style></defs><title>Artboard 17</title><g id="HEX"><rect class="cls-1" x="642" width="64" height="30"/><rect class="cls-2" x="642" y="31" width="64" height="30"/><rect class="cls-3" x="576" width="64" height="30"/><rect class="cls-4" x="576" y="31" width="64" height="30"/><rect class="cls-5" x="708" width="64" height="30"/><rect class="cls-6" x="708" y="31" width="64" height="30"/><rect class="cls-7" x="642" y="62" width="64" height="30"/><rect class="cls-8" x="576" y="62" width="64" height="30"/><rect class="cls-3" x="170" width="64" height="30"/><rect class="cls-4" x="170" y="31" width="64" height="30"/><rect class="cls-8" x="170" y="62" width="64" height="30"/><rect class="cls-9" x="708" y="62" width="64" height="30"/><rect class="cls-10" x="774" width="64" height="30"/><rect class="cls-11" x="774" y="31" width="64" height="30"/><rect class="cls-12" x="774" y="62" width="64" height="30"/><rect class="cls-13" x="340" width="64" height="30"/><rect class="cls-14" x="340" y="31" width="64" height="30"/><rect class="cls-15" x="274" width="64" height="30"/><rect class="cls-16" x="274" y="31" width="64" height="30"/><rect class="cls-10" x="406" width="64" height="30"/><rect class="cls-11" x="406" y="31" width="64" height="30"/><rect class="cls-17" x="340" y="62" width="64" height="30"/><rect class="cls-18" x="274" y="62" width="64" height="30"/><rect class="cls-12" x="406" y="62" width="64" height="30"/><rect class="cls-10" x="104" width="64" height="30"/><rect class="cls-11" x="104" y="31" width="64" height="30"/><rect class="cls-12" x="104" y="62" width="64" height="30"/><rect class="cls-10" width="64" height="30"/><rect class="cls-11" y="31" width="64" height="30"/><rect class="cls-12" y="62" width="64" height="30"/><rect class="cls-19" x="472" width="64" height="30"/><rect class="cls-20" x="472" y="31" width="64" height="30"/><rect class="cls-21" x="472" y="62" width="64" height="30"/></g></svg>