<svg xmlns="http://www.w3.org/2000/svg" viewBox="0 0 132 64">
  <defs>
    <style>
      .dc3c3aa7-da5f-4049-90f3-b4e7a85c7c82 {
        fill: #b7519f;
      }

      .\37 0a07d9f-6002-4a0c-a1ee-9a0d20183cd1 {
        fill: #cb2bd5;
      }

      .\34 31ff7e0-dff8-46c9-8412-e38a0d8d4871 {
        fill: #fff;
      }
    </style>
  </defs>
  <title>Artboard 16</title>
  <g id="72f6615b-5ad1-4cda-8a78-efd88472e1af" data-name="Colors">
    <rect class="dc3c3aa7-da5f-4049-90f3-b4e7a85c7c82" x="68" width="64" height="64"/>
    <rect class="70a07d9f-6002-4a0c-a1ee-9a0d20183cd1" width="64" height="64"/>
    <g>
      <path class="431ff7e0-dff8-46c9-8412-e38a0d8d4871" d="M14,58.5V53h0l-1.8,5.49H10.86l-1.8-5.44H9V58.5H7.57V51.37H9.86l1.69,5.18h0l1.61-5.18h2.28V58.5Z"/>
      <path class="431ff7e0-dff8-46c9-8412-e38a0d8d4871" d="M21.65,58.5l-.47-1.59h-2.8l-.49,1.59H16.3l2.4-7.13h2.21l2.36,7.13ZM19.8,52.43h0l-1,3.32H20.8Z"/>
      <path class="431ff7e0-dff8-46c9-8412-e38a0d8d4871" d="M27.07,51.19a3.73,3.73,0,0,1,1.11.16,2.92,2.92,0,0,1,.92.47,2.55,2.55,0,0,1,.66.76,2.68,2.68,0,0,1,.33,1h-1.5a1.51,1.51,0,0,0-.21-.49,1.3,1.3,0,0,0-.34-.34,1.51,1.51,0,0,0-.44-.2,2,2,0,0,0-.53-.07,1.84,1.84,0,0,0-.87.2,1.69,1.69,0,0,0-.6.53,2.36,2.36,0,0,0-.35.78,3.82,3.82,0,0,0-.11.94,3.68,3.68,0,0,0,.1.87,2.33,2.33,0,0,0,.33.77,1.74,1.74,0,0,0,.6.54,1.83,1.83,0,0,0,.9.21A1.75,1.75,0,0,0,28.26,57a1.68,1.68,0,0,0,.51-1.16H27.19V54.64h3V58.5h-1L29,57.7h0a2.59,2.59,0,0,1-.91.75,2.55,2.55,0,0,1-1.1.23,3.49,3.49,0,0,1-1.4-.28,3.18,3.18,0,0,1-1.09-.77,3.55,3.55,0,0,1-.71-1.18A4.22,4.22,0,0,1,23.56,55a4.49,4.49,0,0,1,.23-1.46,3.54,3.54,0,0,1,.68-1.2,3.19,3.19,0,0,1,1.1-.81A3.56,3.56,0,0,1,27.07,51.19Z"/>
      <path class="431ff7e0-dff8-46c9-8412-e38a0d8d4871" d="M37,51.37v1.32H33.23v1.52h3.45v1.22H33.23v1.75h3.84V58.5H31.66V51.37Z"/>
      <path class="431ff7e0-dff8-46c9-8412-e38a0d8d4871" d="M39.87,51.36l3,4.89h0V51.36h1.47V58.5H42.77l-3-4.88h0V58.5H38.31V51.36Z"/>
      <path class="431ff7e0-dff8-46c9-8412-e38a0d8d4871" d="M51.15,51.36v1.32H49V58.5H47.44V52.68H45.3V51.36Z"/>
      <path class="431ff7e0-dff8-46c9-8412-e38a0d8d4871" d="M56,58.5l-.47-1.59h-2.8l-.49,1.59H50.64L53,51.37h2.21l2.36,7.13Zm-1.85-6.07h0l-1,3.32h2.06Z"/>
    </g>
    <g>
      <path class="431ff7e0-dff8-46c9-8412-e38a0d8d4871" d="M94.34,53.65a2.2,2.2,0,0,1-.65,1.66,2.44,2.44,0,0,1-1.77.63h-1.7V58.5H88.65V51.36h3.27a2.44,2.44,0,0,1,1.77.63A2.19,2.19,0,0,1,94.34,53.65Zm-1.52,0a1,1,0,0,0-.32-.81,1.58,1.58,0,0,0-1-.26H90.22v2.14h1.26a2.52,2.52,0,0,0,.59-.06,1.07,1.07,0,0,0,.42-.19A1,1,0,0,0,92.82,53.65Z"/>
      <path class="431ff7e0-dff8-46c9-8412-e38a0d8d4871" d="M97,51.36V58.5H95.48V51.36Z"/>
      <path class="431ff7e0-dff8-46c9-8412-e38a0d8d4871" d="M100.22,51.36l3,4.89h0V51.36h1.47V58.5h-1.57l-3-4.88h0V58.5H98.66V51.36Z"/>
      <path class="431ff7e0-dff8-46c9-8412-e38a0d8d4871" d="M107.88,51.36v3l2.79-3h2l-2.79,2.82,3.06,4.32h-2l-2.15-3.21-.9.91v2.3h-1.57V51.36Z"/>
    </g>
  </g>
</svg>
