<svg xmlns="http://www.w3.org/2000/svg" viewBox="0 0 400 161"><defs><style>.cls-1{opacity:0.04;}.cls-2,.cls-5{fill:#dcdcdc;}.cls-3{fill:#444;}.cls-4{fill:#fff;}.cls-5,.cls-6{opacity:0.6;}.cls-7{fill:#bebebe;}.cls-12,.cls-8{fill:none;stroke-miterlimit:10;}.cls-8{stroke:#a0a0a0;}.cls-9{fill:#464646;}.cls-10{fill:#0096e0;}.cls-11{fill:#08c;}.cls-12{stroke:#236ea8;}.cls-13{fill:#d6f1ff;opacity:0.5;}.cls-14{fill:#47c2ff;}.cls-15{fill:#1b5380;}</style></defs><title>Artboard 40</title><g id="HEX"><rect class="cls-1" x="0.5" y="128.5" width="121" height="31"/><path class="cls-2" d="M121,129v30H1V129H121m1-1H0v32H122V128Z"/><rect class="cls-1" x="0.5" y="66.5" width="121" height="31"/><path class="cls-2" d="M121,67V97H1V67H121m1-1H0V98H122V66Z"/><rect class="cls-1" x="0.5" y="97.5" width="121" height="31"/><path class="cls-2" d="M121,98v30H1V98H121m1-1H0v32H122V97Z"/><path class="cls-3" d="M14.48,80.88a2.34,2.34,0,0,1-.7,1.8,2.55,2.55,0,0,1-1.8.64h-3V87H8.13V78.43H12a2.53,2.53,0,0,1,1.8.65A2.33,2.33,0,0,1,14.48,80.88Zm-.81,0a1.68,1.68,0,0,0-.5-1.29,2.11,2.11,0,0,0-1.49-.46H8.95v3.5H11.8a2,2,0,0,0,1.35-.45A1.65,1.65,0,0,0,13.66,80.88Z"/><path class="cls-3" d="M16.88,77.92V87h-.8V77.92Z"/><path class="cls-3" d="M24.75,87l-.27,0h-.24a1.37,1.37,0,0,1-.44-.06.65.65,0,0,1-.29-.2.82.82,0,0,1-.16-.35,2.43,2.43,0,0,1,0-.53h0a3,3,0,0,1-1,1,2.79,2.79,0,0,1-1.35.29,2.46,2.46,0,0,1-1.6-.5,1.75,1.75,0,0,1-.6-1.43,1.66,1.66,0,0,1,.66-1.43,6.79,6.79,0,0,1,3-.69,2,2,0,0,0,.44-.08.75.75,0,0,0,.29-.16.6.6,0,0,0,.16-.26,1.28,1.28,0,0,0,0-.38,1.24,1.24,0,0,0-.4-1,2,2,0,0,0-1.31-.34,2.61,2.61,0,0,0-.72.09,1.65,1.65,0,0,0-.53.25,1.13,1.13,0,0,0-.33.39,1.23,1.23,0,0,0-.13.49H19a2,2,0,0,1,.22-.78,1.78,1.78,0,0,1,.51-.59,2.43,2.43,0,0,1,.81-.38,4,4,0,0,1,1.09-.13,2.64,2.64,0,0,1,1.83.54A2,2,0,0,1,24,82.31v3.56a.47.47,0,0,0,.11.33.46.46,0,0,0,.36.12.7.7,0,0,0,.25,0Zm-1.52-3.54h0q-.12.22-.77.31l-.67.1-.74.12a2.67,2.67,0,0,0-1.17.44,1,1,0,0,0-.39.84,1.16,1.16,0,0,0,.43.94,1.6,1.6,0,0,0,1,.35,2.36,2.36,0,0,0,1.63-.58,1.85,1.85,0,0,0,.65-1.44Z"/><path class="cls-3" d="M29.11,80.25a3.35,3.35,0,0,1,1.08.16,1.83,1.83,0,0,1,.74.46,1.87,1.87,0,0,1,.43.77,3.79,3.79,0,0,1,.14,1.08V87h-.8V82.85a2.2,2.2,0,0,0-.41-1.44A1.54,1.54,0,0,0,29,80.92a2.07,2.07,0,0,0-.86.17,1.88,1.88,0,0,0-.65.48,2.16,2.16,0,0,0-.41.71,2.63,2.63,0,0,0-.14.88V87h-.8V80.44H27v1.14h0a2,2,0,0,1,.35-.56,2.18,2.18,0,0,1,.49-.42,2.33,2.33,0,0,1,.6-.26A2.48,2.48,0,0,1,29.11,80.25Z"/><path class="cls-3" d="M36.6,80.25a3.35,3.35,0,0,1,1.08.16,1.83,1.83,0,0,1,.74.46,1.87,1.87,0,0,1,.43.77A3.79,3.79,0,0,1,39,82.72V87h-.8V82.85a2.2,2.2,0,0,0-.41-1.44,1.54,1.54,0,0,0-1.25-.49,2.07,2.07,0,0,0-.86.17,1.88,1.88,0,0,0-.65.48,2.16,2.16,0,0,0-.41.71,2.63,2.63,0,0,0-.14.88V87h-.8V80.44h.8v1.14h0a2,2,0,0,1,.35-.56,2.18,2.18,0,0,1,.49-.42,2.33,2.33,0,0,1,.6-.26A2.48,2.48,0,0,1,36.6,80.25Z"/><path class="cls-3" d="M43.74,80.25a2.71,2.71,0,0,1,1.3.29,2.6,2.6,0,0,1,.9.79,3.45,3.45,0,0,1,.52,1.13,5.21,5.21,0,0,1,.17,1.34v.13H41.58a3.58,3.58,0,0,0,.13.94,2.59,2.59,0,0,0,.39.83,2,2,0,0,0,.66.59,1.92,1.92,0,0,0,.95.22,2.44,2.44,0,0,0,.7-.09,2,2,0,0,0,.56-.26,1.76,1.76,0,0,0,.42-.39,2.41,2.41,0,0,0,.29-.49h.79a3,3,0,0,1-.38.79,2.48,2.48,0,0,1-.59.6,2.68,2.68,0,0,1-.79.39,3.34,3.34,0,0,1-1,.14,2.94,2.94,0,0,1-1.3-.27,2.56,2.56,0,0,1-.91-.73,3.12,3.12,0,0,1-.54-1.1,5.14,5.14,0,0,1-.18-1.37A4.66,4.66,0,0,1,41,82.44a3.36,3.36,0,0,1,.54-1.11,2.74,2.74,0,0,1,.92-.78A2.79,2.79,0,0,1,43.74,80.25Zm2.09,3a3,3,0,0,0-.16-.85,2.44,2.44,0,0,0-.41-.75,2.07,2.07,0,0,0-.65-.54,1.84,1.84,0,0,0-.88-.21,1.84,1.84,0,0,0-1.5.7,2.7,2.7,0,0,0-.42.75,4.31,4.31,0,0,0-.23.9Z"/><path class="cls-3" d="M54,77.92V87h-.74V85.75h0a2,2,0,0,1-.39.59,2.57,2.57,0,0,1-.56.45,2.8,2.8,0,0,1-.67.29,2.63,2.63,0,0,1-.72.1,2.8,2.8,0,0,1-1.28-.28,2.68,2.68,0,0,1-.92-.75,3.32,3.32,0,0,1-.56-1.11A4.68,4.68,0,0,1,48,83.72a4.83,4.83,0,0,1,.17-1.29,3.31,3.31,0,0,1,.53-1.11,2.69,2.69,0,0,1,.92-.78,3,3,0,0,1,2-.2,2.56,2.56,0,0,1,.65.27,2.25,2.25,0,0,1,.54.45,2.07,2.07,0,0,1,.38.63h0V77.92Zm-5.26,5.8a4.17,4.17,0,0,0,.05.65A3.7,3.7,0,0,0,49,85a2.82,2.82,0,0,0,.28.58,2.15,2.15,0,0,0,.41.48,1.8,1.8,0,0,0,.55.32,2,2,0,0,0,.7.12,2.08,2.08,0,0,0,1.73-.84,2.66,2.66,0,0,0,.43-.89,4,4,0,0,0,.14-1.06,4,4,0,0,0-.13-1,2.73,2.73,0,0,0-.41-.9,2.06,2.06,0,0,0-1.76-.88,1.94,1.94,0,0,0-.68.11,1.8,1.8,0,0,0-.54.31,2.15,2.15,0,0,0-.41.47,2.8,2.8,0,0,0-.29.58,3.52,3.52,0,0,0-.17.65A4.25,4.25,0,0,0,48.78,83.72Z"/><path class="cls-3" d="M13.82,109.43v.7h-3V118H10v-7.87H7v-.7Z"/><path class="cls-3" d="M13.79,118v-6.56h.74V113h0a2.56,2.56,0,0,1,.9-1.2,2.32,2.32,0,0,1,1.38-.43h.29v.8h-.18a2.22,2.22,0,0,0-1.71.69,2.36,2.36,0,0,0-.64,1.69V118Z"/><path class="cls-3" d="M19.25,108.57v1.29h-.8v-1.29Zm0,2.87V118h-.8v-6.56Z"/><path class="cls-3" d="M29.72,118v-4.46a1.73,1.73,0,0,0-.37-1.22,1.85,1.85,0,0,0-2.5.21,2.8,2.8,0,0,0-.45,1.71V118h-.81v-4.49a1.81,1.81,0,0,0-.34-1.17,1.25,1.25,0,0,0-1-.42,1.72,1.72,0,0,0-1.46.65,2.72,2.72,0,0,0-.5,1.71V118h-.8v-6.56h.74v1.1h0a2.26,2.26,0,0,1,2.15-1.29,2.44,2.44,0,0,1,.64.08,1.86,1.86,0,0,1,.54.24,1.66,1.66,0,0,1,.42.4,1.86,1.86,0,0,1,.28.55,2.16,2.16,0,0,1,.85-1,2.4,2.4,0,0,1,1.24-.32,2.12,2.12,0,0,1,1.63.58,2.36,2.36,0,0,1,.54,1.66V118Z"/><path class="cls-3" d="M41,118v-4.46a1.73,1.73,0,0,0-.37-1.22,1.85,1.85,0,0,0-2.5.21,2.8,2.8,0,0,0-.45,1.71V118h-.81v-4.49a1.81,1.81,0,0,0-.34-1.17,1.25,1.25,0,0,0-1-.42,1.72,1.72,0,0,0-1.46.65,2.72,2.72,0,0,0-.5,1.71V118h-.8v-6.56h.74v1.1h0a2.26,2.26,0,0,1,2.15-1.29,2.44,2.44,0,0,1,.64.08,1.86,1.86,0,0,1,.54.24,1.66,1.66,0,0,1,.42.4,1.86,1.86,0,0,1,.28.55,2.16,2.16,0,0,1,.85-1,2.4,2.4,0,0,1,1.24-.32,2.12,2.12,0,0,1,1.63.58,2.36,2.36,0,0,1,.54,1.66V118Z"/><path class="cls-3" d="M46.55,111.25a2.71,2.71,0,0,1,1.3.29,2.6,2.6,0,0,1,.9.79,3.45,3.45,0,0,1,.52,1.13,5.21,5.21,0,0,1,.17,1.34v.13H44.39a3.58,3.58,0,0,0,.13.94,2.59,2.59,0,0,0,.39.83,2,2,0,0,0,.66.59,1.92,1.92,0,0,0,.95.22,2.44,2.44,0,0,0,.7-.09,2,2,0,0,0,.56-.26,1.76,1.76,0,0,0,.42-.39,2.41,2.41,0,0,0,.29-.49h.79a3,3,0,0,1-.38.79,2.48,2.48,0,0,1-.59.6,2.68,2.68,0,0,1-.79.39,3.34,3.34,0,0,1-1,.14,2.94,2.94,0,0,1-1.3-.27,2.56,2.56,0,0,1-.91-.73,3.12,3.12,0,0,1-.54-1.1,5.14,5.14,0,0,1-.18-1.37,4.66,4.66,0,0,1,.18-1.28,3.36,3.36,0,0,1,.54-1.11,2.74,2.74,0,0,1,.92-.78A2.79,2.79,0,0,1,46.55,111.25Zm2.09,3a3,3,0,0,0-.16-.85,2.44,2.44,0,0,0-.41-.75,2.07,2.07,0,0,0-.65-.54,1.84,1.84,0,0,0-.88-.21,1.84,1.84,0,0,0-1.5.7,2.7,2.7,0,0,0-.42.75,4.31,4.31,0,0,0-.23.9Z"/><path class="cls-3" d="M56.85,108.92V118h-.74v-1.25h0a2,2,0,0,1-.39.59,2.57,2.57,0,0,1-.56.45,2.8,2.8,0,0,1-.67.29,2.63,2.63,0,0,1-.72.1,2.8,2.8,0,0,1-1.28-.28,2.68,2.68,0,0,1-.92-.75,3.32,3.32,0,0,1-.56-1.11,4.68,4.68,0,0,1-.19-1.34,4.83,4.83,0,0,1,.17-1.29,3.31,3.31,0,0,1,.53-1.11,2.69,2.69,0,0,1,.92-.78,3,3,0,0,1,2-.2,2.56,2.56,0,0,1,.65.27,2.25,2.25,0,0,1,.54.45,2.07,2.07,0,0,1,.38.63h0v-3.77Zm-5.26,5.8a4.17,4.17,0,0,0,.05.65,3.7,3.7,0,0,0,.16.64,2.82,2.82,0,0,0,.28.58,2.15,2.15,0,0,0,.41.48,1.8,1.8,0,0,0,.55.32,2,2,0,0,0,.7.12,2.08,2.08,0,0,0,1.73-.84,2.66,2.66,0,0,0,.43-.89,4,4,0,0,0,.14-1.06,4,4,0,0,0-.13-1,2.73,2.73,0,0,0-.41-.9,2.06,2.06,0,0,0-1.76-.88,1.94,1.94,0,0,0-.68.11,1.8,1.8,0,0,0-.54.31,2.15,2.15,0,0,0-.41.47,2.8,2.8,0,0,0-.29.58,3.52,3.52,0,0,0-.17.65A4.25,4.25,0,0,0,51.59,114.72Z"/><path class="cls-3" d="M8.1,140.43l1.94,7.5h0l2.09-7.5h1l2.1,7.5h0l2-7.5h.81L15.71,149h-.87l-2.17-7.67h0L10.49,149H9.6l-2.38-8.57Z"/><path class="cls-3" d="M25,145.72a4.29,4.29,0,0,1-.2,1.31,3.31,3.31,0,0,1-.61,1.13,2.9,2.9,0,0,1-2.29,1,2.84,2.84,0,0,1-2.24-1,4.07,4.07,0,0,1,0-5,3.08,3.08,0,0,1,4.51,0A3.65,3.65,0,0,1,25,145.72Zm-.8,0a3.8,3.8,0,0,0-.13-1,2.81,2.81,0,0,0-.42-.9,2.25,2.25,0,0,0-.72-.65,2,2,0,0,0-1-.25,2,2,0,0,0-1,.24,2.24,2.24,0,0,0-.72.64,2.85,2.85,0,0,0-.44.9,3.66,3.66,0,0,0-.15,1,3.58,3.58,0,0,0,.14,1,3,3,0,0,0,.43.9,2.24,2.24,0,0,0,.71.65,2,2,0,0,0,1,.25,2,2,0,0,0,1-.24,2.33,2.33,0,0,0,.72-.63,2.8,2.8,0,0,0,.45-.89A3.54,3.54,0,0,0,24.16,145.72Z"/><path class="cls-3" d="M31.33,149v-1.18h0a2.48,2.48,0,0,1-.39.58,2.34,2.34,0,0,1-.52.43,2.47,2.47,0,0,1-.63.27,2.73,2.73,0,0,1-.72.09,2.21,2.21,0,0,1-1.74-.63,2.64,2.64,0,0,1-.56-1.82v-4.31h.8v4.28a2.67,2.67,0,0,0,.1.76A1.43,1.43,0,0,0,28,148a1.33,1.33,0,0,0,.54.35,2.33,2.33,0,0,0,.79.12,1.7,1.7,0,0,0,.89-.23,1.92,1.92,0,0,0,.62-.59,2.62,2.62,0,0,0,.36-.83,3.9,3.9,0,0,0,.11-.94v-3.49h.8V149Z"/><path class="cls-3" d="M37.16,142.25a3.35,3.35,0,0,1,1.08.16,1.83,1.83,0,0,1,.74.46,1.87,1.87,0,0,1,.43.77,3.79,3.79,0,0,1,.14,1.08V149h-.8v-4.15a2.2,2.2,0,0,0-.41-1.44,1.54,1.54,0,0,0-1.25-.49,2.07,2.07,0,0,0-.86.17,1.88,1.88,0,0,0-.65.48,2.16,2.16,0,0,0-.41.71,2.63,2.63,0,0,0-.14.88V149h-.8v-6.56H35v1.14h0a2,2,0,0,1,.35-.56,2.18,2.18,0,0,1,.49-.42,2.33,2.33,0,0,1,.6-.26A2.48,2.48,0,0,1,37.16,142.25Z"/><path class="cls-3" d="M47.46,139.92V149h-.74v-1.25h0a2,2,0,0,1-.39.59,2.57,2.57,0,0,1-.56.45,2.8,2.8,0,0,1-.67.29,2.63,2.63,0,0,1-.72.1,2.8,2.8,0,0,1-1.28-.28,2.68,2.68,0,0,1-.92-.75,3.32,3.32,0,0,1-.56-1.11,4.68,4.68,0,0,1-.19-1.34,4.83,4.83,0,0,1,.17-1.29,3.31,3.31,0,0,1,.53-1.11,2.69,2.69,0,0,1,.92-.78,3,3,0,0,1,2-.2,2.56,2.56,0,0,1,.65.27,2.25,2.25,0,0,1,.54.45,2.07,2.07,0,0,1,.38.63h0v-3.77Zm-5.26,5.8a4.17,4.17,0,0,0,.05.65,3.7,3.7,0,0,0,.16.64,2.82,2.82,0,0,0,.28.58,2.15,2.15,0,0,0,.41.48,1.8,1.8,0,0,0,.55.32,2,2,0,0,0,.7.12,2.08,2.08,0,0,0,1.73-.84,2.66,2.66,0,0,0,.43-.89,4,4,0,0,0,.14-1.06,4,4,0,0,0-.13-1,2.73,2.73,0,0,0-.41-.9,2.06,2.06,0,0,0-1.76-.88,1.94,1.94,0,0,0-.68.11,1.8,1.8,0,0,0-.54.31,2.15,2.15,0,0,0-.41.47,2.8,2.8,0,0,0-.29.58,3.52,3.52,0,0,0-.17.65A4.25,4.25,0,0,0,42.21,145.72Z"/><rect class="cls-4" x="121.5" y="66.5" width="92" height="31"/><path class="cls-2" d="M213,67V97H122V67h91m1-1H121V98h93V66Z"/><rect class="cls-4" x="121.5" y="97.5" width="92" height="31"/><path class="cls-2" d="M213,98v30H122V98h91m1-1H121v32h93V97Z"/><rect class="cls-4" x="121.5" y="128.5" width="92" height="31"/><path class="cls-2" d="M213,129v30H122V129h91m1-1H121v32h93V128Z"/><rect class="cls-4" x="213.5" y="66.5" width="92" height="31"/><path class="cls-2" d="M305,67V97H214V67h91m1-1H213V98h93V66Z"/><rect class="cls-4" x="213.5" y="128.5" width="92" height="31"/><path class="cls-2" d="M305,129v30H214V129h91m1-1H213v32h93V128Z"/><rect class="cls-4" x="305.5" y="66.5" width="92" height="31"/><path class="cls-2" d="M397,67V97H306V67h91m1-1H305V98h93V66Z"/><rect class="cls-4" x="305.5" y="97.5" width="92" height="31"/><path class="cls-2" d="M397,98v30H306V98h91m1-1H305v32h93V97Z"/><rect class="cls-4" x="305.5" y="128.5" width="92" height="31"/><path class="cls-2" d="M397,129v30H306V129h91m1-1H305v32h93V128Z"/><rect class="cls-5" x="224" y="19" width="82" height="28"/><g class="cls-6"><path class="cls-7" d="M306,19V47H224V19h82m1-1H223V48h84V18Z"/></g><line class="cls-8" x1="223" y1="47.5" x2="307" y2="47.5"/><path class="cls-9" d="M246.8,28.64a3.81,3.81,0,0,1,2.85,1.08,4.36,4.36,0,0,1,1.07,3.17,4.48,4.48,0,0,1-1.05,3.21,3.71,3.71,0,0,1-2.82,1.11h-3.46V28.64Zm-.17,7.3a2.49,2.49,0,0,0,1.89-.71,3.14,3.14,0,0,0,.69-2.23,3.35,3.35,0,0,0-.69-2.36,2.81,2.81,0,0,0-2.14-.73h-1.51v6Z"/><path class="cls-9" d="M253.75,27.78V29.2H252.3V27.78Zm0,2.86v6.57H252.3V30.64Z"/><path class="cls-9" d="M261.13,35.22a2,2,0,0,1-.23,1,2,2,0,0,1-.61.68,2.7,2.7,0,0,1-.91.39,4.79,4.79,0,0,1-1.12.13,4.56,4.56,0,0,1-1.08-.12,2.74,2.74,0,0,1-.89-.38,2.14,2.14,0,0,1-.63-.65,2.2,2.2,0,0,1-.3-.94h1.39a1.15,1.15,0,0,0,.51.8,1.51,1.51,0,0,0,.46.2,2.2,2.2,0,0,0,.56.07,2.4,2.4,0,0,0,.53-.06,1.46,1.46,0,0,0,.45-.18,1,1,0,0,0,.32-.31.78.78,0,0,0,.12-.44.61.61,0,0,0-.1-.35.9.9,0,0,0-.27-.26,1.81,1.81,0,0,0-.4-.18l-.47-.13-.93-.22a6,6,0,0,1-.91-.28,2.37,2.37,0,0,1-.63-.37,1.33,1.33,0,0,1-.37-.49,1.57,1.57,0,0,1-.12-.63,1.77,1.77,0,0,1,.21-.89,1.84,1.84,0,0,1,.58-.63,2.69,2.69,0,0,1,.87-.37,4.46,4.46,0,0,1,1.07-.12,3.88,3.88,0,0,1,1.06.13,2.61,2.61,0,0,1,.82.38,1.9,1.9,0,0,1,.54.59,2,2,0,0,1,.25.77h-1.39a1,1,0,0,0-.45-.65,1.65,1.65,0,0,0-.91-.23,2.3,2.3,0,0,0-.47,0,1.27,1.27,0,0,0-.39.14.77.77,0,0,0-.26.25.65.65,0,0,0-.1.36.6.6,0,0,0,.1.35.91.91,0,0,0,.26.25,1.47,1.47,0,0,0,.35.16l.37.1,1.38.33a4.37,4.37,0,0,1,.68.22,2,2,0,0,1,.54.34,1.47,1.47,0,0,1,.37.5A1.84,1.84,0,0,1,261.13,35.22Z"/><path class="cls-9" d="M265.63,30.46a4.08,4.08,0,0,1,1.06.13,2.82,2.82,0,0,1,.89.41,2.27,2.27,0,0,1,.64.68,2.3,2.3,0,0,1,.31.95h-1.42a1.21,1.21,0,0,0-.47-.78,1.69,1.69,0,0,0-1-.27,1.53,1.53,0,0,0-.81.21,1.8,1.8,0,0,0-.57.54,2.44,2.44,0,0,0-.33.76,3.42,3.42,0,0,0,0,1.67,2.42,2.42,0,0,0,.32.75,1.78,1.78,0,0,0,.56.55,1.51,1.51,0,0,0,.82.21,1.81,1.81,0,0,0,.6-.09,1.48,1.48,0,0,0,.47-.26,1.4,1.4,0,0,0,.33-.41,1.75,1.75,0,0,0,.18-.52h1.4a3.08,3.08,0,0,1-.33,1,2.59,2.59,0,0,1-.62.76,2.78,2.78,0,0,1-.89.49,3.49,3.49,0,0,1-1.14.18,3.33,3.33,0,0,1-1.32-.25,3,3,0,0,1-1-.71,3.22,3.22,0,0,1-.67-1.08,3.83,3.83,0,0,1-.24-1.37,4.25,4.25,0,0,1,.21-1.36,3.31,3.31,0,0,1,.63-1.12,3,3,0,0,1,1-.76A3.33,3.33,0,0,1,265.63,30.46Z"/><path class="cls-9" d="M276.22,37.21l-.44.09-.39,0a1.79,1.79,0,0,1-.42,0,.91.91,0,0,1-.34-.16.84.84,0,0,1-.24-.29,1.28,1.28,0,0,1-.12-.45h0a2.67,2.67,0,0,1-.45.46,2.3,2.3,0,0,1-.52.31,3.32,3.32,0,0,1-1.31.24,2.42,2.42,0,0,1-1.62-.51,1.77,1.77,0,0,1-.6-1.45,1.7,1.7,0,0,1,.6-1.42,2.11,2.11,0,0,1,.58-.32,4.68,4.68,0,0,1,.73-.2q.39-.08.82-.13l.87-.1.34-.07a.8.8,0,0,0,.27-.13.59.59,0,0,0,.17-.22.79.79,0,0,0,.06-.33,1,1,0,0,0-.31-.79,2.11,2.11,0,0,0-2.05,0,1,1,0,0,0-.39.73H270a2,2,0,0,1,.28-.9,2,2,0,0,1,.62-.62,2.88,2.88,0,0,1,.9-.36,5.08,5.08,0,0,1,1.13-.12,3.42,3.42,0,0,1,2,.5,1.65,1.65,0,0,1,.67,1.41v3.54a.47.47,0,0,0,.08.3.33.33,0,0,0,.27.1h.12l.13,0Zm-2-3.35h0a1,1,0,0,1-.54.23l-.48.08-.65.11a2.2,2.2,0,0,0-1,.37.87.87,0,0,0-.32.72.89.89,0,0,0,.37.76,1.48,1.48,0,0,0,.87.24,1.79,1.79,0,0,0,1.27-.43,1.59,1.59,0,0,0,.49-1.24Z"/><path class="cls-9" d="M277.58,37.21V30.64h1.37V32h0a2.4,2.4,0,0,1,.87-1.08,2.23,2.23,0,0,1,1.29-.39h.21l.2,0V31.9l-.25,0H281a1.84,1.84,0,0,0-1.48.6A2.36,2.36,0,0,0,279,34v3.18Z"/><path class="cls-9" d="M288.71,28.13v9.08h-1.37v-1h0a2.07,2.07,0,0,1-.37.5,2.16,2.16,0,0,1-.49.37,2.44,2.44,0,0,1-.59.23,2.79,2.79,0,0,1-.67.08,2.72,2.72,0,0,1-1.28-.29,2.76,2.76,0,0,1-.92-.77,3.38,3.38,0,0,1-.56-1.12,4.69,4.69,0,0,1-.19-1.33,4.52,4.52,0,0,1,.18-1.26,3.34,3.34,0,0,1,.54-1.1,2.75,2.75,0,0,1,.91-.77,2.91,2.91,0,0,1,1.92-.22,2.49,2.49,0,0,1,.58.21,2.07,2.07,0,0,1,.49.35,2,2,0,0,1,.37.5h0V28.13Zm-5,5.79a3.63,3.63,0,0,0,.1.82,2.44,2.44,0,0,0,.31.76,1.81,1.81,0,0,0,.56.56,1.5,1.5,0,0,0,.83.22,1.73,1.73,0,0,0,.79-.17,1.58,1.58,0,0,0,.57-.49,2.25,2.25,0,0,0,.35-.75,3.68,3.68,0,0,0,.12-1,3.73,3.73,0,0,0-.1-.84,2.3,2.3,0,0,0-.31-.75,1.72,1.72,0,0,0-.57-.54,1.64,1.64,0,0,0-.85-.21,1.56,1.56,0,0,0-.82.2,1.7,1.7,0,0,0-.55.53,2.35,2.35,0,0,0-.32.75A3.93,3.93,0,0,0,283.68,33.92Z"/><rect class="cls-10" x="313.5" y="18.5" width="83" height="29"/><path class="cls-11" d="M396,19V47H314V19h82m1-1H313V48h84V18Z"/><path class="cls-4" d="M347.74,34.77a2.36,2.36,0,0,1-.29,1.2,2.41,2.41,0,0,1-.78.82,3.5,3.5,0,0,1-1.13.47,5.89,5.89,0,0,1-1.34.15,5.17,5.17,0,0,1-1.37-.17,3.37,3.37,0,0,1-1.1-.51,2.49,2.49,0,0,1-.74-.84,2.38,2.38,0,0,1-.27-1.15v-.1h1.47v.05a1.33,1.33,0,0,0,.16.67,1.4,1.4,0,0,0,.45.48,2.11,2.11,0,0,0,.67.28,3.62,3.62,0,0,0,1.58,0,2.05,2.05,0,0,0,.63-.25,1.3,1.3,0,0,0,.42-.41,1.06,1.06,0,0,0,.16-.58.93.93,0,0,0-.37-.76,3.25,3.25,0,0,0-1.16-.51l-1.84-.49a2.83,2.83,0,0,1-1.44-.78A2,2,0,0,1,341,31a2.24,2.24,0,0,1,.26-1.09,2.36,2.36,0,0,1,.7-.79,3.22,3.22,0,0,1,1-.48,4.62,4.62,0,0,1,1.25-.16,4.67,4.67,0,0,1,1.19.15,3.23,3.23,0,0,1,1,.45,2.32,2.32,0,0,1,.71.77,2.25,2.25,0,0,1,.28,1.09H346a1.25,1.25,0,0,0-.16-.52,1.27,1.27,0,0,0-.37-.4,1.8,1.8,0,0,0-.55-.26,2.49,2.49,0,0,0-.71-.09,2.92,2.92,0,0,0-.67.07,1.75,1.75,0,0,0-.55.23,1.15,1.15,0,0,0-.37.38,1.05,1.05,0,0,0-.14.55,1,1,0,0,0,.07.39.8.8,0,0,0,.2.28,1.07,1.07,0,0,0,.31.19,3.06,3.06,0,0,0,.4.13l2,.53a3.69,3.69,0,0,1,1.7.87A2,2,0,0,1,347.74,34.77Z"/><path class="cls-4" d="M355.26,37.21l-.44.09-.39,0a1.79,1.79,0,0,1-.42,0,.91.91,0,0,1-.34-.16.84.84,0,0,1-.24-.29,1.28,1.28,0,0,1-.12-.45h0a2.67,2.67,0,0,1-.45.46,2.3,2.3,0,0,1-.52.31,3.32,3.32,0,0,1-1.31.24,2.42,2.42,0,0,1-1.62-.51,1.77,1.77,0,0,1-.6-1.45,1.7,1.7,0,0,1,.6-1.42,2.11,2.11,0,0,1,.58-.32,4.68,4.68,0,0,1,.73-.2q.39-.08.82-.13l.87-.1.34-.07a.8.8,0,0,0,.27-.13.59.59,0,0,0,.17-.22.79.79,0,0,0,.06-.33,1,1,0,0,0-.31-.79,2.11,2.11,0,0,0-2.05,0,1,1,0,0,0-.39.73H349a2,2,0,0,1,.28-.9,2,2,0,0,1,.62-.62,2.88,2.88,0,0,1,.9-.36,5.08,5.08,0,0,1,1.13-.12,3.42,3.42,0,0,1,2,.5,1.65,1.65,0,0,1,.67,1.41v3.54a.47.47,0,0,0,.08.3.33.33,0,0,0,.27.1h.12l.13,0Zm-2-3.35h0a1,1,0,0,1-.54.23l-.48.08-.65.11a2.2,2.2,0,0,0-1,.37.87.87,0,0,0-.32.72.89.89,0,0,0,.37.76,1.48,1.48,0,0,0,.87.24,1.79,1.79,0,0,0,1.27-.43,1.59,1.59,0,0,0,.49-1.24Z"/><path class="cls-4" d="M357.38,30.64,359,35.78h0l1.62-5.14h1.44l-2.31,6.57h-1.59l-2.36-6.57Z"/><path class="cls-4" d="M366.07,30.46a3,3,0,0,1,1.34.28,2.78,2.78,0,0,1,1,.77,3.33,3.33,0,0,1,.58,1.13,4.76,4.76,0,0,1,.19,1.37v.26H364.3a2.77,2.77,0,0,0,.13.81,1.9,1.9,0,0,0,.35.63,1.55,1.55,0,0,0,.54.41,1.7,1.7,0,0,0,.72.15,1.9,1.9,0,0,0,1-.23,1.7,1.7,0,0,0,.61-.6H369a3.06,3.06,0,0,1-.45.81,2.83,2.83,0,0,1-.66.62,3,3,0,0,1-.85.39,3.66,3.66,0,0,1-1,.13,3.28,3.28,0,0,1-1.33-.26,2.82,2.82,0,0,1-1-.72,3.18,3.18,0,0,1-.62-1.1,4.31,4.31,0,0,1-.22-1.4,4,4,0,0,1,.22-1.33,3.3,3.3,0,0,1,.63-1.1,3,3,0,0,1,1-.76A3.16,3.16,0,0,1,366.07,30.46Zm1.63,2.85a2.77,2.77,0,0,0-.16-.71,1.73,1.73,0,0,0-.33-.55,1.43,1.43,0,0,0-.5-.35,1.91,1.91,0,0,0-1.37,0,1.51,1.51,0,0,0-.52.36,1.79,1.79,0,0,0-.35.55,2.54,2.54,0,0,0-.17.7Z"/><line class="cls-12" x1="313" y1="47.5" x2="397" y2="47.5"/><path class="cls-9" d="M358.59,86.69V80.82h-2.2v-1a6,6,0,0,0,.9-.07,2.36,2.36,0,0,0,.63-.18,1.57,1.57,0,0,0,.64-.55,2.21,2.21,0,0,0,.31-.89H360v8.6Z"/><path class="cls-9" d="M366.17,78a3,3,0,0,1,2,.7,2.22,2.22,0,0,1,.6.83,2.77,2.77,0,0,1,.19,1.06,2.82,2.82,0,0,1-.46,1.55,5.83,5.83,0,0,1-1.78,1.54q-.5.3-.85.57a6.91,6.91,0,0,0-.58.47,2.8,2.8,0,0,0-.62.81H369v1.21H363a3.35,3.35,0,0,1,.39-1.59,3.73,3.73,0,0,1,.51-.69,5.59,5.59,0,0,1,.74-.66l.95-.71,1.12-.83a2.7,2.7,0,0,0,.71-.75,1.61,1.61,0,0,0,.23-.83,1.68,1.68,0,0,0-.1-.59,1.33,1.33,0,0,0-.31-.48,1.44,1.44,0,0,0-.47-.3,1.77,1.77,0,0,0-1.31,0,1.46,1.46,0,0,0-.5.38,1.58,1.58,0,0,0-.29.53,2,2,0,0,0-.1.61V81h-1.34v-.15a3.14,3.14,0,0,1,.21-1.15,2.54,2.54,0,0,1,.59-.9,2.71,2.71,0,0,1,.94-.59A3.45,3.45,0,0,1,366.17,78Z"/><path class="cls-9" d="M373.07,86.88a3.21,3.21,0,0,1-1-.14,2.49,2.49,0,0,1-.79-.41,2.29,2.29,0,0,1-.57-.65,2.45,2.45,0,0,1-.3-.86h1.34a1.6,1.6,0,0,0,.17.39,1.14,1.14,0,0,0,.28.31,1.3,1.3,0,0,0,.39.21,1.55,1.55,0,0,0,.5.08,1.46,1.46,0,0,0,.88-.26,2,2,0,0,0,.59-.69,3.5,3.5,0,0,0,.33-1,6.78,6.78,0,0,0,.12-1.13h0a2.16,2.16,0,0,1-.67.68,2.21,2.21,0,0,1-.9.3,2.48,2.48,0,0,1-1.37-.11,2.34,2.34,0,0,1-1.35-1,2.76,2.76,0,0,1-.49-1.62,3,3,0,0,1,.85-2.2A2.84,2.84,0,0,1,373.2,78a3.25,3.25,0,0,1,1.42.29,2.51,2.51,0,0,1,1,.86,5.88,5.88,0,0,1,.79,3.34,7.74,7.74,0,0,1-.07,1.05,5.85,5.85,0,0,1-.23,1,4.56,4.56,0,0,1-.42.92,3,3,0,0,1-.62.75,2.77,2.77,0,0,1-.86.5A3.19,3.19,0,0,1,373.07,86.88Zm1.8-5.94a1.88,1.88,0,0,0-.45-1.3,1.53,1.53,0,0,0-1.22-.52,1.41,1.41,0,0,0-1.13.53,1.9,1.9,0,0,0-.45,1.27,2,2,0,0,0,.43,1.32,1.43,1.43,0,0,0,1.17.54,1.55,1.55,0,0,0,1.2-.52A2,2,0,0,0,374.87,80.93Z"/><path class="cls-9" d="M382.5,84.65v2h-1.31v-2h-3.76V83.36l3.82-5.27h1.25V83.5h1.2v1.15Zm-1.31-4.82h0l-2.62,3.67h2.65Z"/><path class="cls-9" d="M389.77,84.65v2h-1.31v-2H384.7V83.36l3.82-5.27h1.25V83.5H391v1.15Zm-1.31-4.82h0L385.8,83.5h2.65Z"/><path class="cls-9" d="M358.59,117.69v-5.87h-2.2v-1a6,6,0,0,0,.9-.07,2.36,2.36,0,0,0,.63-.18,1.57,1.57,0,0,0,.64-.55,2.21,2.21,0,0,0,.31-.89H360v8.6Z"/><path class="cls-9" d="M366.17,109a3,3,0,0,1,2,.7,2.22,2.22,0,0,1,.6.83,2.77,2.77,0,0,1,.19,1.06,2.82,2.82,0,0,1-.46,1.55,5.83,5.83,0,0,1-1.78,1.54q-.5.3-.85.57a6.91,6.91,0,0,0-.58.47,2.8,2.8,0,0,0-.62.81H369v1.21H363a3.35,3.35,0,0,1,.39-1.59,3.73,3.73,0,0,1,.51-.69,5.59,5.59,0,0,1,.74-.66l.95-.71,1.12-.83a2.7,2.7,0,0,0,.71-.75,1.61,1.61,0,0,0,.23-.83,1.68,1.68,0,0,0-.1-.59,1.33,1.33,0,0,0-.31-.48,1.44,1.44,0,0,0-.47-.3,1.77,1.77,0,0,0-1.31,0,1.46,1.46,0,0,0-.5.38,1.58,1.58,0,0,0-.29.53,2,2,0,0,0-.1.61V112h-1.34v-.15a3.14,3.14,0,0,1,.21-1.15,2.54,2.54,0,0,1,.59-.9,2.71,2.71,0,0,1,.94-.59A3.45,3.45,0,0,1,366.17,109Z"/><path class="cls-9" d="M376.46,115.21a2.37,2.37,0,0,1-.89,1.95,3.88,3.88,0,0,1-4.51,0,2.33,2.33,0,0,1-.88-1.93,2.43,2.43,0,0,1,.11-.76,2.08,2.08,0,0,1,.33-.63,2,2,0,0,1,.52-.47,2.17,2.17,0,0,1,.7-.28v0a1.81,1.81,0,0,1-1-.67,1.92,1.92,0,0,1-.33-1.14,2,2,0,0,1,.81-1.65,3.16,3.16,0,0,1,2-.62,2.91,2.91,0,0,1,2,.67,2,2,0,0,1,.76,1.58,2.14,2.14,0,0,1-.08.61,1.83,1.83,0,0,1-.25.52,1.75,1.75,0,0,1-.41.42,2,2,0,0,1-.57.28v0a2.06,2.06,0,0,1,1.24.75A2.24,2.24,0,0,1,376.46,115.21Zm-1.39,0a1.45,1.45,0,0,0-.48-1.11,1.79,1.79,0,0,0-1.27-.44,1.88,1.88,0,0,0-1.27.42,1.42,1.42,0,0,0-.49,1.13,1.53,1.53,0,0,0,.5,1.18,1.79,1.79,0,0,0,1.27.46,1.74,1.74,0,0,0,1.25-.45A1.53,1.53,0,0,0,375.07,115.17Zm-.26-3.83a1.42,1.42,0,0,0-.11-.56,1,1,0,0,0-.32-.42,1.85,1.85,0,0,0-2.14,0,1.18,1.18,0,0,0-.42.94,1.19,1.19,0,0,0,.41.94,1.85,1.85,0,0,0,2.19,0A1.21,1.21,0,0,0,374.81,111.34Z"/><path class="cls-9" d="M382.5,115.65v2h-1.31v-2h-3.76v-1.29l3.82-5.27h1.25v5.41h1.2v1.15Zm-1.31-4.82h0l-2.62,3.67h2.65Z"/><path class="cls-9" d="M390.72,109.13v1.21a8.83,8.83,0,0,0-1.24,1.49,10.33,10.33,0,0,0-.95,1.83,12,12,0,0,0-.87,4h-1.49a11.75,11.75,0,0,1,.93-3.82,13.7,13.7,0,0,1,2.2-3.45H385v-1.29Z"/><path class="cls-9" d="M369.2,146.21a2.37,2.37,0,0,1-.89,1.95,3.88,3.88,0,0,1-4.51,0,2.33,2.33,0,0,1-.88-1.93,2.43,2.43,0,0,1,.11-.76,2.08,2.08,0,0,1,.33-.63,2,2,0,0,1,.52-.47,2.17,2.17,0,0,1,.7-.28v0a1.81,1.81,0,0,1-1-.67,1.92,1.92,0,0,1-.33-1.14,2,2,0,0,1,.81-1.65,3.16,3.16,0,0,1,2-.62,2.91,2.91,0,0,1,2,.67,2,2,0,0,1,.76,1.58,2.14,2.14,0,0,1-.08.61,1.83,1.83,0,0,1-.25.52,1.75,1.75,0,0,1-.41.42,2,2,0,0,1-.57.28v0a2.06,2.06,0,0,1,1.24.75A2.24,2.24,0,0,1,369.2,146.21Zm-1.39,0a1.45,1.45,0,0,0-.48-1.11,1.79,1.79,0,0,0-1.27-.44,1.88,1.88,0,0,0-1.27.42,1.42,1.42,0,0,0-.49,1.13,1.53,1.53,0,0,0,.5,1.18,1.79,1.79,0,0,0,1.27.46,1.74,1.74,0,0,0,1.25-.45A1.53,1.53,0,0,0,367.8,146.17Zm-.26-3.83a1.42,1.42,0,0,0-.11-.56,1,1,0,0,0-.32-.42,1.85,1.85,0,0,0-2.14,0,1.18,1.18,0,0,0-.42.94,1.19,1.19,0,0,0,.41.94,1.85,1.85,0,0,0,2.19,0A1.21,1.21,0,0,0,367.54,142.34Z"/><path class="cls-9" d="M373.32,140a3.64,3.64,0,0,1,1,.15,2.72,2.72,0,0,1,.88.44,2.18,2.18,0,0,1,.62.72,2.1,2.1,0,0,1,.23,1,2.16,2.16,0,0,1-.08.62,1.83,1.83,0,0,1-.25.52,1.63,1.63,0,0,1-.4.41,1.88,1.88,0,0,1-.56.27v0a1.93,1.93,0,0,1,1.2.71,2.07,2.07,0,0,1,.42,1.3,2.5,2.5,0,0,1-.89,2,3.31,3.31,0,0,1-2.23.76,3.84,3.84,0,0,1-1.17-.18,2.94,2.94,0,0,1-1-.52,2.49,2.49,0,0,1-.67-.84,2.55,2.55,0,0,1-.25-1.14v-.13h1.34v.13a1.45,1.45,0,0,0,.49,1.11,1.58,1.58,0,0,0,.52.3,1.91,1.91,0,0,0,.64.11,1.81,1.81,0,0,0,1.28-.44,1.45,1.45,0,0,0,.47-1.11,1.34,1.34,0,0,0-.45-1.09,2.2,2.2,0,0,0-1.46-.39h-.35v-1h.43a1.86,1.86,0,0,0,1.2-.35,1.1,1.1,0,0,0,.4-.9,1.39,1.39,0,0,0-.11-.58,1.12,1.12,0,0,0-.31-.41,1.34,1.34,0,0,0-.46-.24,2,2,0,0,0-.57-.08,1.7,1.7,0,0,0-.6.1,1.41,1.41,0,0,0-.48.3,1.44,1.44,0,0,0-.33.47,1.62,1.62,0,0,0-.13.64H370.4a2.81,2.81,0,0,1,.23-1,2.55,2.55,0,0,1,.59-.84,2.75,2.75,0,0,1,.91-.56A3.27,3.27,0,0,1,373.32,140Z"/><path class="cls-9" d="M380.38,148.69v-5.87h-2.2v-1a6,6,0,0,0,.9-.07,2.36,2.36,0,0,0,.63-.18,1.57,1.57,0,0,0,.64-.55,2.21,2.21,0,0,0,.31-.89h1.11v8.6Z"/><path class="cls-9" d="M388.11,140a3.18,3.18,0,0,1,1,.14,2.5,2.5,0,0,1,.79.41,2.29,2.29,0,0,1,.57.65,2.45,2.45,0,0,1,.3.86h-1.33a1.57,1.57,0,0,0-.17-.4,1.14,1.14,0,0,0-.28-.31,1.26,1.26,0,0,0-.39-.21,1.63,1.63,0,0,0-.51-.07,1.45,1.45,0,0,0-.88.26,2,2,0,0,0-.58.69,3.5,3.5,0,0,0-.33,1,6.72,6.72,0,0,0-.12,1.13l0,0a2,2,0,0,1,1.58-1,2.45,2.45,0,0,1,1.36.11,2.41,2.41,0,0,1,1.36,1,2.77,2.77,0,0,1,.49,1.62,3,3,0,0,1-.85,2.2,2.83,2.83,0,0,1-2.13.87,3.22,3.22,0,0,1-1.42-.29,2.58,2.58,0,0,1-1-.86,4.1,4.1,0,0,1-.59-1.39,8.46,8.46,0,0,1-.2-1.94,7.74,7.74,0,0,1,.07-1.05,5.85,5.85,0,0,1,.23-1,4.47,4.47,0,0,1,.42-.92,3.09,3.09,0,0,1,.63-.75,2.77,2.77,0,0,1,.86-.5A3.19,3.19,0,0,1,388.11,140Zm-1.8,5.94a1.9,1.9,0,0,0,.45,1.31,1.53,1.53,0,0,0,1.21.52,1.43,1.43,0,0,0,1.14-.53,1.9,1.9,0,0,0,.45-1.27,2.05,2.05,0,0,0-.43-1.32,1.42,1.42,0,0,0-1.17-.54,1.55,1.55,0,0,0-1.2.51A2,2,0,0,0,386.31,145.9Z"/><path class="cls-9" d="M196.1,78a3.64,3.64,0,0,1,1,.15,2.72,2.72,0,0,1,.88.44,2.18,2.18,0,0,1,.62.72,2.1,2.1,0,0,1,.23,1,2.16,2.16,0,0,1-.08.62,1.83,1.83,0,0,1-.25.52,1.63,1.63,0,0,1-.4.41,1.88,1.88,0,0,1-.56.27v0a1.93,1.93,0,0,1,1.2.71,2.07,2.07,0,0,1,.42,1.3,2.5,2.5,0,0,1-.89,2,3.31,3.31,0,0,1-2.23.76,3.84,3.84,0,0,1-1.17-.18,2.94,2.94,0,0,1-1-.52,2.49,2.49,0,0,1-.67-.84A2.55,2.55,0,0,1,193,84.2v-.13h1.34v.13a1.45,1.45,0,0,0,.49,1.11,1.58,1.58,0,0,0,.52.3,1.91,1.91,0,0,0,.64.11,1.81,1.81,0,0,0,1.28-.44,1.45,1.45,0,0,0,.47-1.11,1.34,1.34,0,0,0-.45-1.09,2.2,2.2,0,0,0-1.46-.39h-.35v-1h.43a1.86,1.86,0,0,0,1.2-.35,1.1,1.1,0,0,0,.4-.9,1.39,1.39,0,0,0-.11-.58,1.12,1.12,0,0,0-.31-.41,1.34,1.34,0,0,0-.46-.24,2,2,0,0,0-.57-.08,1.7,1.7,0,0,0-.6.1,1.41,1.41,0,0,0-.48.3,1.44,1.44,0,0,0-.33.47,1.62,1.62,0,0,0-.13.64h-1.34a2.81,2.81,0,0,1,.23-1,2.55,2.55,0,0,1,.59-.84,2.75,2.75,0,0,1,.91-.56A3.27,3.27,0,0,1,196.1,78Z"/><path class="cls-9" d="M205.29,84.65v2H204v-2h-3.76V83.36L204,78.09h1.25V83.5h1.2v1.15ZM204,79.83h0l-2.62,3.67H204Z"/><path class="cls-9" d="M196.1,109a3.64,3.64,0,0,1,1,.15,2.72,2.72,0,0,1,.88.44,2.18,2.18,0,0,1,.62.72,2.1,2.1,0,0,1,.23,1,2.16,2.16,0,0,1-.08.62,1.83,1.83,0,0,1-.25.52,1.63,1.63,0,0,1-.4.41,1.88,1.88,0,0,1-.56.27v0a1.93,1.93,0,0,1,1.2.71,2.07,2.07,0,0,1,.42,1.3,2.5,2.5,0,0,1-.89,2,3.31,3.31,0,0,1-2.23.76,3.84,3.84,0,0,1-1.17-.18,2.94,2.94,0,0,1-1-.52,2.49,2.49,0,0,1-.67-.84,2.55,2.55,0,0,1-.25-1.14v-.13h1.34v.13a1.45,1.45,0,0,0,.49,1.11,1.58,1.58,0,0,0,.52.3,1.91,1.91,0,0,0,.64.11,1.81,1.81,0,0,0,1.28-.44,1.45,1.45,0,0,0,.47-1.11,1.34,1.34,0,0,0-.45-1.09,2.2,2.2,0,0,0-1.46-.39h-.35v-1h.43a1.86,1.86,0,0,0,1.2-.35,1.1,1.1,0,0,0,.4-.9,1.39,1.39,0,0,0-.11-.58,1.12,1.12,0,0,0-.31-.41,1.34,1.34,0,0,0-.46-.24,2,2,0,0,0-.57-.08,1.7,1.7,0,0,0-.6.1,1.41,1.41,0,0,0-.48.3,1.44,1.44,0,0,0-.33.47,1.62,1.62,0,0,0-.13.64h-1.34a2.81,2.81,0,0,1,.23-1,2.55,2.55,0,0,1,.59-.84,2.75,2.75,0,0,1,.91-.56A3.27,3.27,0,0,1,196.1,109Z"/><path class="cls-9" d="M205.29,115.65v2H204v-2h-3.76v-1.29l3.82-5.27h1.25v5.41h1.2v1.15ZM204,110.83h0l-2.62,3.67H204Z"/><path class="cls-9" d="M196.22,140a3,3,0,0,1,2,.7,2.22,2.22,0,0,1,.6.83,2.77,2.77,0,0,1,.19,1.06,2.82,2.82,0,0,1-.46,1.55,5.83,5.83,0,0,1-1.78,1.54q-.5.3-.85.57a6.91,6.91,0,0,0-.58.47,2.8,2.8,0,0,0-.62.81h4.33v1.21H193a3.35,3.35,0,0,1,.39-1.59,3.73,3.73,0,0,1,.51-.69,5.59,5.59,0,0,1,.74-.66l.95-.71,1.12-.83a2.7,2.7,0,0,0,.71-.75,1.61,1.61,0,0,0,.23-.83,1.68,1.68,0,0,0-.1-.59,1.33,1.33,0,0,0-.31-.48,1.44,1.44,0,0,0-.47-.3,1.77,1.77,0,0,0-1.31,0,1.46,1.46,0,0,0-.5.38,1.58,1.58,0,0,0-.29.53,2,2,0,0,0-.1.61V143h-1.34v-.15a3.14,3.14,0,0,1,.21-1.15,2.54,2.54,0,0,1,.59-.9,2.71,2.71,0,0,1,.94-.59A3.45,3.45,0,0,1,196.22,140Z"/><path class="cls-9" d="M203.48,140a3,3,0,0,1,2,.7,2.22,2.22,0,0,1,.6.83,2.77,2.77,0,0,1,.19,1.06,2.82,2.82,0,0,1-.46,1.55,5.83,5.83,0,0,1-1.78,1.54q-.5.3-.85.57a6.91,6.91,0,0,0-.58.47,2.8,2.8,0,0,0-.62.81h4.33v1.21h-6.08a3.35,3.35,0,0,1,.39-1.59,3.73,3.73,0,0,1,.51-.69,5.59,5.59,0,0,1,.74-.66l.95-.71,1.12-.83a2.7,2.7,0,0,0,.71-.75,1.61,1.61,0,0,0,.23-.83,1.68,1.68,0,0,0-.1-.59,1.33,1.33,0,0,0-.31-.48,1.44,1.44,0,0,0-.47-.3,1.77,1.77,0,0,0-1.31,0,1.46,1.46,0,0,0-.5.38,1.58,1.58,0,0,0-.29.53,2,2,0,0,0-.1.61V143h-1.34v-.15a3.14,3.14,0,0,1,.21-1.15,2.54,2.54,0,0,1,.59-.9,2.71,2.71,0,0,1,.94-.59A3.45,3.45,0,0,1,203.48,140Z"/><rect class="cls-13" x="214.5" y="98.5" width="90" height="29"/><path class="cls-14" d="M304,99v28H215V99h89m1-1H214v30h91V98Z"/><path class="cls-9" d="M266.59,86.69V80.82h-2.2v-1a6,6,0,0,0,.9-.07,2.36,2.36,0,0,0,.63-.18,1.57,1.57,0,0,0,.64-.55,2.21,2.21,0,0,0,.31-.89H268v8.6Z"/><path class="cls-9" d="M274.17,78a3,3,0,0,1,2,.7,2.22,2.22,0,0,1,.6.83,2.77,2.77,0,0,1,.19,1.06,2.82,2.82,0,0,1-.46,1.55,5.83,5.83,0,0,1-1.78,1.54q-.5.3-.85.57a6.91,6.91,0,0,0-.58.47,2.8,2.8,0,0,0-.62.81H277v1.21H271a3.35,3.35,0,0,1,.39-1.59,3.73,3.73,0,0,1,.51-.69,5.59,5.59,0,0,1,.74-.66l.95-.71,1.12-.83a2.7,2.7,0,0,0,.71-.75,1.61,1.61,0,0,0,.23-.83,1.68,1.68,0,0,0-.1-.59,1.33,1.33,0,0,0-.31-.48,1.44,1.44,0,0,0-.47-.3,1.77,1.77,0,0,0-1.31,0,1.46,1.46,0,0,0-.5.38,1.58,1.58,0,0,0-.29.53,2,2,0,0,0-.1.61V81h-1.34v-.15a3.14,3.14,0,0,1,.21-1.15,2.54,2.54,0,0,1,.59-.9,2.71,2.71,0,0,1,.94-.59A3.45,3.45,0,0,1,274.17,78Z"/><path class="cls-9" d="M284.46,84.21a2.37,2.37,0,0,1-.89,1.95,3.88,3.88,0,0,1-4.51,0,2.33,2.33,0,0,1-.88-1.93,2.43,2.43,0,0,1,.11-.76,2.08,2.08,0,0,1,.33-.63,2,2,0,0,1,.52-.47,2.17,2.17,0,0,1,.7-.28v0a1.81,1.81,0,0,1-1-.67,1.92,1.92,0,0,1-.33-1.14,2,2,0,0,1,.81-1.65,3.16,3.16,0,0,1,2-.62,2.91,2.91,0,0,1,2,.67,2,2,0,0,1,.76,1.58,2.14,2.14,0,0,1-.08.61,1.83,1.83,0,0,1-.25.52,1.75,1.75,0,0,1-.41.42,2,2,0,0,1-.57.28v0a2.06,2.06,0,0,1,1.24.75A2.24,2.24,0,0,1,284.46,84.21Zm-1.39,0a1.45,1.45,0,0,0-.48-1.11,1.79,1.79,0,0,0-1.27-.44,1.88,1.88,0,0,0-1.27.42,1.42,1.42,0,0,0-.49,1.13,1.53,1.53,0,0,0,.5,1.18,1.79,1.79,0,0,0,1.27.46,1.74,1.74,0,0,0,1.25-.45A1.53,1.53,0,0,0,283.07,84.17Zm-.26-3.83a1.42,1.42,0,0,0-.11-.56,1,1,0,0,0-.32-.42,1.85,1.85,0,0,0-2.14,0,1.18,1.18,0,0,0-.42.94,1.19,1.19,0,0,0,.41.94,1.85,1.85,0,0,0,2.19,0A1.21,1.21,0,0,0,282.81,80.34Z"/><path class="cls-9" d="M288.57,78a2.66,2.66,0,0,1,2.32,1.13,5.72,5.72,0,0,1,.79,3.3,5.83,5.83,0,0,1-.79,3.35,2.92,2.92,0,0,1-4.62,0,5.81,5.81,0,0,1-.79-3.35,5.74,5.74,0,0,1,.79-3.31A2.64,2.64,0,0,1,288.57,78Zm-1.7,4.44a10.28,10.28,0,0,0,.07,1.25,4.18,4.18,0,0,0,.26,1.06,1.83,1.83,0,0,0,.52.74,1.28,1.28,0,0,0,.85.28,1.31,1.31,0,0,0,1.08-.51,2.12,2.12,0,0,0,.31-.56,4.17,4.17,0,0,0,.2-.69,6.33,6.33,0,0,0,.1-.77q0-.4,0-.8a9.63,9.63,0,0,0-.08-1.27,3.8,3.8,0,0,0-.28-1,1.82,1.82,0,0,0-.53-.71,1.32,1.32,0,0,0-.84-.26,1.29,1.29,0,0,0-.6.13,1.39,1.39,0,0,0-.45.37,2,2,0,0,0-.31.55,4.32,4.32,0,0,0-.19.68,6.52,6.52,0,0,0-.11.76Q286.87,82,286.87,82.39Z"/><path class="cls-9" d="M299,84.21a2.37,2.37,0,0,1-.89,1.95,3.88,3.88,0,0,1-4.51,0,2.33,2.33,0,0,1-.88-1.93,2.43,2.43,0,0,1,.11-.76,2.08,2.08,0,0,1,.33-.63,2,2,0,0,1,.52-.47,2.17,2.17,0,0,1,.7-.28v0a1.81,1.81,0,0,1-1-.67,1.92,1.92,0,0,1-.33-1.14,2,2,0,0,1,.81-1.65,3.16,3.16,0,0,1,2-.62,2.91,2.91,0,0,1,2,.67,2,2,0,0,1,.76,1.58,2.14,2.14,0,0,1-.08.61,1.83,1.83,0,0,1-.25.52,1.75,1.75,0,0,1-.41.42,2,2,0,0,1-.57.28v0a2.06,2.06,0,0,1,1.24.75A2.24,2.24,0,0,1,299,84.21Zm-1.39,0a1.45,1.45,0,0,0-.48-1.11,1.79,1.79,0,0,0-1.27-.44,1.88,1.88,0,0,0-1.27.42,1.42,1.42,0,0,0-.49,1.13,1.53,1.53,0,0,0,.5,1.18,1.79,1.79,0,0,0,1.27.46,1.74,1.74,0,0,0,1.25-.45A1.53,1.53,0,0,0,297.6,84.17Zm-.26-3.83a1.42,1.42,0,0,0-.11-.56,1,1,0,0,0-.32-.42,1.85,1.85,0,0,0-2.14,0,1.18,1.18,0,0,0-.42.94,1.19,1.19,0,0,0,.41.94,1.85,1.85,0,0,0,2.19,0A1.21,1.21,0,0,0,297.34,80.34Z"/><path class="cls-15" d="M273.85,117.69v-5.87h-2.2v-1a6,6,0,0,0,.9-.07,2.36,2.36,0,0,0,.63-.18,1.57,1.57,0,0,0,.64-.55,2.21,2.21,0,0,0,.31-.89h1.11v8.6Z"/><path class="cls-15" d="M281.43,109a3,3,0,0,1,2,.7,2.22,2.22,0,0,1,.6.83,2.77,2.77,0,0,1,.19,1.06,2.82,2.82,0,0,1-.46,1.55,5.83,5.83,0,0,1-1.78,1.54q-.5.3-.85.57a6.91,6.91,0,0,0-.58.47,2.8,2.8,0,0,0-.62.81h4.33v1.21h-6.08a3.35,3.35,0,0,1,.39-1.59,3.73,3.73,0,0,1,.51-.69,5.59,5.59,0,0,1,.74-.66l.95-.71,1.12-.83a2.7,2.7,0,0,0,.71-.75,1.61,1.61,0,0,0,.23-.83,1.68,1.68,0,0,0-.1-.59,1.33,1.33,0,0,0-.31-.48,1.44,1.44,0,0,0-.47-.3,1.77,1.77,0,0,0-1.31,0,1.46,1.46,0,0,0-.5.38,1.58,1.58,0,0,0-.29.53,2,2,0,0,0-.1.61V112h-1.34v-.15a3.14,3.14,0,0,1,.21-1.15,2.54,2.54,0,0,1,.59-.9,2.71,2.71,0,0,1,.94-.59A3.45,3.45,0,0,1,281.43,109Z"/><path class="cls-15" d="M291.17,109.13v1.18h-3.63l-.42,2.24,0,0a2.3,2.3,0,0,1,.75-.5,2.57,2.57,0,0,1,1-.17,2.81,2.81,0,0,1,1.14.22,2.53,2.53,0,0,1,.86.62,2.71,2.71,0,0,1,.55.93,3.47,3.47,0,0,1,.19,1.17,2.93,2.93,0,0,1-.24,1.17,3,3,0,0,1-.66,1,3.13,3.13,0,0,1-1,.65,3.22,3.22,0,0,1-1.25.24,4.16,4.16,0,0,1-1.15-.15,2.71,2.71,0,0,1-.93-.46,2.33,2.33,0,0,1-.64-.76,2.65,2.65,0,0,1-.28-1.07h1.4a1.51,1.51,0,0,0,.14.5,1.33,1.33,0,0,0,.31.41,1.41,1.41,0,0,0,.48.28,2,2,0,0,0,.65.1,1.67,1.67,0,0,0,.73-.16,1.7,1.7,0,0,0,.55-.42,1.85,1.85,0,0,0,.35-.61,2.17,2.17,0,0,0,.12-.73,2.11,2.11,0,0,0-.12-.7,1.65,1.65,0,0,0-.89-1,1.74,1.74,0,0,0-.74-.15,1.76,1.76,0,0,0-1.52.76h-1.24l.84-4.6Z"/><path class="cls-15" d="M296.11,109a3.18,3.18,0,0,1,1,.14,2.5,2.5,0,0,1,.79.41,2.29,2.29,0,0,1,.57.65,2.45,2.45,0,0,1,.3.86h-1.33a1.57,1.57,0,0,0-.17-.4,1.14,1.14,0,0,0-.28-.31,1.26,1.26,0,0,0-.39-.21,1.63,1.63,0,0,0-.51-.07,1.45,1.45,0,0,0-.88.26,2,2,0,0,0-.58.69,3.5,3.5,0,0,0-.33,1,6.72,6.72,0,0,0-.12,1.13l0,0a2,2,0,0,1,1.58-1,2.45,2.45,0,0,1,1.36.11,2.41,2.41,0,0,1,1.36,1,2.77,2.77,0,0,1,.49,1.62,3,3,0,0,1-.85,2.2,2.83,2.83,0,0,1-2.13.87,3.22,3.22,0,0,1-1.42-.29,2.58,2.58,0,0,1-1-.86,4.1,4.1,0,0,1-.59-1.39,8.46,8.46,0,0,1-.2-1.94,7.74,7.74,0,0,1,.07-1.05,5.85,5.85,0,0,1,.23-1,4.47,4.47,0,0,1,.42-.92,3.09,3.09,0,0,1,.63-.75,2.77,2.77,0,0,1,.86-.5A3.19,3.19,0,0,1,296.11,109Zm-1.8,5.94a1.9,1.9,0,0,0,.45,1.31,1.53,1.53,0,0,0,1.21.52,1.43,1.43,0,0,0,1.14-.53,1.9,1.9,0,0,0,.45-1.27,2.05,2.05,0,0,0-.43-1.32,1.42,1.42,0,0,0-1.17-.54,1.55,1.55,0,0,0-1.2.51A2,2,0,0,0,294.31,114.9Z"/><path class="cls-9" d="M277.2,146.21a2.37,2.37,0,0,1-.89,1.95,3.88,3.88,0,0,1-4.51,0,2.33,2.33,0,0,1-.88-1.93,2.43,2.43,0,0,1,.11-.76,2.08,2.08,0,0,1,.33-.63,2,2,0,0,1,.52-.47,2.17,2.17,0,0,1,.7-.28v0a1.81,1.81,0,0,1-1-.67,1.92,1.92,0,0,1-.33-1.14,2,2,0,0,1,.81-1.65,3.16,3.16,0,0,1,2-.62,2.91,2.91,0,0,1,2,.67,2,2,0,0,1,.76,1.58,2.14,2.14,0,0,1-.08.61,1.83,1.83,0,0,1-.25.52,1.75,1.75,0,0,1-.41.42,2,2,0,0,1-.57.28v0a2.06,2.06,0,0,1,1.24.75A2.24,2.24,0,0,1,277.2,146.21Zm-1.39,0a1.45,1.45,0,0,0-.48-1.11,1.79,1.79,0,0,0-1.27-.44,1.88,1.88,0,0,0-1.27.42,1.42,1.42,0,0,0-.49,1.13,1.53,1.53,0,0,0,.5,1.18,1.79,1.79,0,0,0,1.27.46,1.74,1.74,0,0,0,1.25-.45A1.53,1.53,0,0,0,275.8,146.17Zm-.26-3.83a1.42,1.42,0,0,0-.11-.56,1,1,0,0,0-.32-.42,1.85,1.85,0,0,0-2.14,0,1.18,1.18,0,0,0-.42.94,1.19,1.19,0,0,0,.41.94,1.85,1.85,0,0,0,2.19,0A1.21,1.21,0,0,0,275.54,142.34Z"/><path class="cls-9" d="M281.43,140a3,3,0,0,1,2,.7,2.22,2.22,0,0,1,.6.83,2.77,2.77,0,0,1,.19,1.06,2.82,2.82,0,0,1-.46,1.55,5.83,5.83,0,0,1-1.78,1.54q-.5.3-.85.57a6.91,6.91,0,0,0-.58.47,2.8,2.8,0,0,0-.62.81h4.33v1.21h-6.08a3.35,3.35,0,0,1,.39-1.59,3.73,3.73,0,0,1,.51-.69,5.59,5.59,0,0,1,.74-.66l.95-.71,1.12-.83a2.7,2.7,0,0,0,.71-.75,1.61,1.61,0,0,0,.23-.83,1.68,1.68,0,0,0-.1-.59,1.33,1.33,0,0,0-.31-.48,1.44,1.44,0,0,0-.47-.3,1.77,1.77,0,0,0-1.31,0,1.46,1.46,0,0,0-.5.38,1.58,1.58,0,0,0-.29.53,2,2,0,0,0-.1.61V143h-1.34v-.15a3.14,3.14,0,0,1,.21-1.15,2.54,2.54,0,0,1,.59-.9,2.71,2.71,0,0,1,.94-.59A3.45,3.45,0,0,1,281.43,140Z"/><path class="cls-9" d="M288.7,140a3,3,0,0,1,2,.7,2.22,2.22,0,0,1,.6.83,2.77,2.77,0,0,1,.19,1.06,2.82,2.82,0,0,1-.46,1.55,5.83,5.83,0,0,1-1.78,1.54q-.5.3-.85.57a6.91,6.91,0,0,0-.58.47,2.8,2.8,0,0,0-.62.81h4.33v1.21h-6.08a3.35,3.35,0,0,1,.39-1.59,3.73,3.73,0,0,1,.51-.69,5.59,5.59,0,0,1,.74-.66l.95-.71,1.12-.83a2.7,2.7,0,0,0,.71-.75,1.61,1.61,0,0,0,.23-.83,1.68,1.68,0,0,0-.1-.59,1.33,1.33,0,0,0-.31-.48,1.44,1.44,0,0,0-.47-.3,1.77,1.77,0,0,0-1.31,0,1.46,1.46,0,0,0-.5.38,1.58,1.58,0,0,0-.29.53,2,2,0,0,0-.1.61V143h-1.34v-.15a3.14,3.14,0,0,1,.21-1.15,2.54,2.54,0,0,1,.59-.9,2.71,2.71,0,0,1,.94-.59A3.45,3.45,0,0,1,288.7,140Z"/><path class="cls-9" d="M299,146.21a2.37,2.37,0,0,1-.89,1.95,3.88,3.88,0,0,1-4.51,0,2.33,2.33,0,0,1-.88-1.93,2.43,2.43,0,0,1,.11-.76,2.08,2.08,0,0,1,.33-.63,2,2,0,0,1,.52-.47,2.17,2.17,0,0,1,.7-.28v0a1.81,1.81,0,0,1-1-.67,1.92,1.92,0,0,1-.33-1.14,2,2,0,0,1,.81-1.65,3.16,3.16,0,0,1,2-.62,2.91,2.91,0,0,1,2,.67,2,2,0,0,1,.76,1.58,2.14,2.14,0,0,1-.08.61,1.83,1.83,0,0,1-.25.52,1.75,1.75,0,0,1-.41.42,2,2,0,0,1-.57.28v0a2.06,2.06,0,0,1,1.24.75A2.24,2.24,0,0,1,299,146.21Zm-1.39,0a1.45,1.45,0,0,0-.48-1.11,1.79,1.79,0,0,0-1.27-.44,1.88,1.88,0,0,0-1.27.42,1.42,1.42,0,0,0-.49,1.13,1.53,1.53,0,0,0,.5,1.18,1.79,1.79,0,0,0,1.27.46,1.74,1.74,0,0,0,1.25-.45A1.53,1.53,0,0,0,297.6,146.17Zm-.26-3.83a1.42,1.42,0,0,0-.11-.56,1,1,0,0,0-.32-.42,1.85,1.85,0,0,0-2.14,0,1.18,1.18,0,0,0-.42.94,1.19,1.19,0,0,0,.41.94,1.85,1.85,0,0,0,2.19,0A1.21,1.21,0,0,0,297.34,142.34Z"/></g></svg>