<svg xmlns="http://www.w3.org/2000/svg" viewBox="0 0 204 134"><defs><style>.cls-1{fill:#ffd800;}.cls-2{fill:#cb2bd5;}.cls-3{fill:#14f0f0;}.cls-4{fill:#0052ff;}.cls-5{fill:#ff7300;}.cls-6{fill:#f03040;}.cls-7{fill:#fff;}</style></defs><title>Artboard 15</title><g id="Colors"><rect class="cls-1" width="64" height="64"/><rect class="cls-2" y="70" width="64" height="64"/><rect class="cls-3" x="70" y="70" width="64" height="64"/><rect class="cls-4" x="140" y="70" width="64" height="64"/><rect class="cls-5" x="70" width="64" height="64"/><rect class="cls-6" x="140" width="64" height="64"/><path class="cls-7" d="M12.72,127.14v-6h0l-2,6H9.27l-2-6h0v6H5.65V119.3H8.17L10,125h0l1.77-5.69h2.51v7.84Z"/><path class="cls-7" d="M21.14,127.14l-.52-1.75H17.53L17,127.14H15.25l2.64-7.84h2.43l2.6,7.84Zm-2-6.68h0l-1.14,3.65h2.27Z"/><path class="cls-7" d="M27.1,119.1a4.11,4.11,0,0,1,1.22.18,3.21,3.21,0,0,1,1,.52,2.81,2.81,0,0,1,.72.83,2.94,2.94,0,0,1,.36,1.13H28.77a1.63,1.63,0,0,0-.23-.53,1.41,1.41,0,0,0-.37-.38,1.65,1.65,0,0,0-.49-.22,2.19,2.19,0,0,0-.58-.07,2,2,0,0,0-1,.21,1.85,1.85,0,0,0-.66.58,2.6,2.6,0,0,0-.38.86,4.18,4.18,0,0,0-.12,1,4.07,4.07,0,0,0,.12,1,2.58,2.58,0,0,0,.37.84,1.92,1.92,0,0,0,.66.6,2,2,0,0,0,1,.23,1.92,1.92,0,0,0,1.31-.42,1.85,1.85,0,0,0,.56-1.27H27.23v-1.29h3.3v4.25h-1.1l-.17-.89h0a2.63,2.63,0,0,1-2.2,1.07,3.85,3.85,0,0,1-1.54-.3,3.51,3.51,0,0,1-1.2-.85,3.88,3.88,0,0,1-.78-1.29,4.64,4.64,0,0,1-.28-1.64,4.94,4.94,0,0,1,.26-1.61,3.9,3.9,0,0,1,.75-1.32,3.51,3.51,0,0,1,1.21-.89A3.91,3.91,0,0,1,27.1,119.1Z"/><path class="cls-7" d="M38,119.3v1.45H33.88v1.68h3.8v1.34h-3.8v1.93H38.1v1.45h-6V119.3Z"/><path class="cls-7" d="M41.18,119.29l3.28,5.38h0v-5.38h1.62v7.85H44.37l-3.27-5.37h0v5.37H39.46v-7.85Z"/><path class="cls-7" d="M53.59,119.29v1.45H51.23v6.4H49.51v-6.4H47.15v-1.45Z"/><path class="cls-7" d="M58.92,127.14l-.52-1.75H55.31l-.54,1.75H53l2.64-7.84H58.1l2.6,7.84Zm-2-6.68h0l-1.14,3.65H58Z"/><path d="M91.2,119.12a4.35,4.35,0,0,1,1.27.17,3.09,3.09,0,0,1,1,.51,2.74,2.74,0,0,1,.71.82,3.13,3.13,0,0,1,.37,1.09H92.87a1.35,1.35,0,0,0-.19-.44,1.44,1.44,0,0,0-.35-.37,1.77,1.77,0,0,0-.5-.25,2.06,2.06,0,0,0-.64-.09,2,2,0,0,0-1,.23,2,2,0,0,0-.67.6,2.65,2.65,0,0,0-.39.86,4,4,0,0,0-.07,1.65,3.18,3.18,0,0,0,.17.61,2.55,2.55,0,0,0,.29.54,1.9,1.9,0,0,0,.42.43,1.94,1.94,0,0,0,.55.29,2.17,2.17,0,0,0,.7.1,1.69,1.69,0,0,0,1.19-.41,1.84,1.84,0,0,0,.55-1.12h1.67a4.08,4.08,0,0,1-.32,1.18,2.92,2.92,0,0,1-.67.94,3.09,3.09,0,0,1-1,.63,3.93,3.93,0,0,1-1.39.23,4,4,0,0,1-1.59-.3,3.61,3.61,0,0,1-1.23-.85,3.78,3.78,0,0,1-.79-1.29,4.67,4.67,0,0,1-.28-1.64,5,5,0,0,1,.12-1.08,4.22,4.22,0,0,1,.34-1,4,4,0,0,1,.56-.84,3.38,3.38,0,0,1,.76-.65,3.63,3.63,0,0,1,1-.42A4.17,4.17,0,0,1,91.2,119.12Z"/><path d="M96.73,119.29l1.84,3.26,1.83-3.26h1.92l-2.91,4.84v3H97.67v-3.06l-2.89-4.8Z"/><path d="M107.39,127.14l-.52-1.75h-3.08l-.54,1.75H101.5l2.64-7.84h2.43l2.6,7.84Zm-2-6.68h0l-1.14,3.65h2.27Z"/><path d="M111.81,119.29l3.28,5.38h0v-5.38h1.62v7.85H115l-3.27-5.37h0v5.37h-1.62v-7.85Z"/><path class="cls-7" d="M164.69,124.86a2.13,2.13,0,0,1-.22,1,2.08,2.08,0,0,1-.59.71,2.6,2.6,0,0,1-.87.43,3.77,3.77,0,0,1-1.05.14h-3.86v-7.85h3.75a3,3,0,0,1,1.83.48,1.72,1.72,0,0,1,.62,1.46,1.7,1.7,0,0,1-.28,1,2,2,0,0,1-.78.64h0a2.27,2.27,0,0,1,.66.31,1.77,1.77,0,0,1,.45.45,1.8,1.8,0,0,1,.25.57A2.56,2.56,0,0,1,164.69,124.86Zm-2-3.33a.8.8,0,0,0-.29-.68,1.41,1.41,0,0,0-.86-.22h-1.66v1.84h1.78a1.12,1.12,0,0,0,.74-.24A.86.86,0,0,0,162.65,121.53Zm.32,3.23a1.09,1.09,0,0,0-.31-.84,1.28,1.28,0,0,0-.89-.28h-1.92v2.15h1.89a1.45,1.45,0,0,0,.91-.25A.92.92,0,0,0,163,124.77Z"/><path class="cls-7" d="M167.78,119.29v6.4h3.83v1.45h-5.56v-7.85Z"/><path class="cls-7" d="M174.08,119.29v4.93a1.75,1.75,0,0,0,.39,1.25,1.64,1.64,0,0,0,1.23.4,2.56,2.56,0,0,0,.73-.09,1.18,1.18,0,0,0,.51-.29,1.22,1.22,0,0,0,.29-.51,2.58,2.58,0,0,0,.1-.76v-4.94H179v4.94a3,3,0,0,1-.85,2.28,3.46,3.46,0,0,1-2.5.82,4.66,4.66,0,0,1-1.46-.21,2.74,2.74,0,0,1-1-.6,3,3,0,0,1-.84-2.29v-4.94Z"/><path class="cls-7" d="M186.64,119.3v1.45H182.5v1.68h3.8v1.34h-3.8v1.93h4.23v1.45h-6V119.3Z"/><path class="cls-7" d="M167.81,52.14a2.09,2.09,0,0,1-.48,1.46,1.71,1.71,0,0,1-.34.29,2.43,2.43,0,0,1-.43.22v0a1.36,1.36,0,0,1,.85.66,1.84,1.84,0,0,1,.21.57,5,5,0,0,1,.08.62q0,.32,0,.64a4.27,4.27,0,0,0,.08.64,1.46,1.46,0,0,0,.21.56h-1.73a2.41,2.41,0,0,1-.13-.5q0-.31-.08-.74a2.66,2.66,0,0,0-.39-1.49,1.24,1.24,0,0,0-.95-.34H163v3.07h-1.73V50h4.28a2.26,2.26,0,0,1,1.6.61A2,2,0,0,1,167.81,52.14Zm-1.73.26a1.06,1.06,0,0,0-.29-.82,1.25,1.25,0,0,0-.86-.26H163v2.21h1.93a1.85,1.85,0,0,0,.46-.05.87.87,0,0,0,.35-.18A1.08,1.08,0,0,0,166.08,52.4Z"/><path class="cls-7" d="M175.29,50v1.45h-4.15v1.68h3.8v1.34h-3.8v1.93h4.23v1.45h-6V50Z"/><path class="cls-7" d="M180.17,50a3.35,3.35,0,0,1,2.54,1,4,4,0,0,1,1,2.86,4.21,4.21,0,0,1-1,2.91,3.26,3.26,0,0,1-2.56,1.06h-3.44V50Zm-.13,6.4a1.78,1.78,0,0,0,1.37-.59A2.54,2.54,0,0,0,182,54a2.83,2.83,0,0,0-.57-2,2.13,2.13,0,0,0-1.65-.62h-1.28v5Z"/></g><g id="HEX"><path class="cls-7" d="M86.38,53.93a4.17,4.17,0,0,1-1.06,2.92A3.61,3.61,0,0,1,82.52,58,4.14,4.14,0,0,1,81,57.76,3.62,3.62,0,0,1,79.8,57a3.68,3.68,0,0,1-.86-1.35,4.82,4.82,0,0,1-.29-1.67,4.27,4.27,0,0,1,1.06-3,3.94,3.94,0,0,1,5.61,0A4.26,4.26,0,0,1,86.38,53.93Zm-1.73,0a3.11,3.11,0,0,0-.57-2,2,2,0,0,0-3.14,0,3.16,3.16,0,0,0-.56,2,3.06,3.06,0,0,0,.55,1.9,2.08,2.08,0,0,0,3.16,0A3.06,3.06,0,0,0,84.65,53.93Z"/><path class="cls-7" d="M94.28,52.14a2.09,2.09,0,0,1-.48,1.46,1.74,1.74,0,0,1-.34.29,2.47,2.47,0,0,1-.43.22v0a1.36,1.36,0,0,1,.85.66,1.84,1.84,0,0,1,.21.57,5,5,0,0,1,.08.62q0,.32,0,.64a4.27,4.27,0,0,0,.08.64,1.42,1.42,0,0,0,.21.56H92.78a2.48,2.48,0,0,1-.13-.5,7.35,7.35,0,0,1-.08-.74,2.69,2.69,0,0,0-.39-1.49,1.23,1.23,0,0,0-.95-.34H89.47v3.07H87.75V50H92a2.26,2.26,0,0,1,1.6.61A2,2,0,0,1,94.28,52.14Zm-1.73.26a1.06,1.06,0,0,0-.29-.82,1.25,1.25,0,0,0-.86-.26H89.47v2.21H91.4a1.85,1.85,0,0,0,.46-.05.89.89,0,0,0,.35-.18A1.08,1.08,0,0,0,92.55,52.4Z"/><path class="cls-7" d="M100.92,57.83l-.52-1.75H97.32l-.54,1.75H95L97.68,50h2.43l2.6,7.84Zm-2-6.68h0L97.72,54.8H100Z"/><path class="cls-7" d="M105.34,50l3.28,5.38h0V50h1.62v7.85h-1.72l-3.27-5.37h0v5.37h-1.62V50Z"/><path class="cls-7" d="M115.49,49.78a4.11,4.11,0,0,1,1.22.18,3.19,3.19,0,0,1,1,.52,2.81,2.81,0,0,1,.73.83,2.94,2.94,0,0,1,.36,1.13h-1.65a1.61,1.61,0,0,0-.23-.53,1.39,1.39,0,0,0-.37-.38,1.65,1.65,0,0,0-.49-.22,2.19,2.19,0,0,0-.58-.07,2,2,0,0,0-1,.21,1.86,1.86,0,0,0-.66.58,2.6,2.6,0,0,0-.38.86,4.18,4.18,0,0,0-.12,1,4,4,0,0,0,.12,1,2.58,2.58,0,0,0,.37.84,1.92,1.92,0,0,0,.66.6,2,2,0,0,0,1,.23,1.92,1.92,0,0,0,1.31-.42,1.85,1.85,0,0,0,.56-1.27h-1.74V53.58h3.3v4.25h-1.1l-.17-.89h0a2.63,2.63,0,0,1-2.2,1.07,3.85,3.85,0,0,1-1.54-.3,3.5,3.5,0,0,1-1.2-.85,3.88,3.88,0,0,1-.78-1.29,4.64,4.64,0,0,1-.28-1.64,4.94,4.94,0,0,1,.26-1.61,3.9,3.9,0,0,1,.75-1.32,3.51,3.51,0,0,1,1.21-.89A3.91,3.91,0,0,1,115.49,49.78Z"/><path class="cls-7" d="M126.42,50v1.45h-4.15v1.68h3.8v1.34h-3.8v1.93h4.23v1.45h-6V50Z"/><path d="M10.78,50l1.84,3.26L14.44,50h1.92l-2.91,4.84v3H11.72V54.77L8.83,50Z"/><path d="M23.14,50v1.45H19v1.68h3.8v1.34H19v1.93h4.23v1.45h-6V50Z"/><path d="M26.31,50v6.4h3.83v1.45H24.58V50Z"/><path d="M33,50v6.4h3.83v1.45H31.25V50Z"/><path d="M44.88,53.93a4.17,4.17,0,0,1-1.06,2.92A3.61,3.61,0,0,1,41,58a4.13,4.13,0,0,1-1.49-.25A3.63,3.63,0,0,1,38.3,57a3.69,3.69,0,0,1-.86-1.35,4.8,4.8,0,0,1-.29-1.67,4.28,4.28,0,0,1,1.06-3,3.94,3.94,0,0,1,5.61,0A4.26,4.26,0,0,1,44.88,53.93Zm-1.73,0a3.12,3.12,0,0,0-.57-2,2.05,2.05,0,0,0-3.14,0,3.16,3.16,0,0,0-.56,2,3.06,3.06,0,0,0,.55,1.9,2.08,2.08,0,0,0,3.16,0A3.06,3.06,0,0,0,43.15,53.93Z"/><path d="M47.21,50l1.24,5.72h0L49.84,50h1.62l1.34,5.78h0L54.11,50H55.8l-2.11,7.85H52L50.64,52.1h0l-1.31,5.72H47.56L45.48,50Z"/></g></svg>