<svg id="Layer_1" data-name="Layer 1" xmlns="http://www.w3.org/2000/svg" viewBox="0 0 524 120"><defs><style>.cls-1{fill:#fff;}.cls-2{fill:#464646;}.cls-3{fill:#cdcdcd;}.cls-3,.cls-4{opacity:0.6;}.cls-5{fill:#969696;}.cls-6{fill:#d2d2d2;}.cls-7{fill:none;stroke:#0aaeff;stroke-miterlimit:10;stroke-width:3px;}</style></defs><title>Artboard 5</title><rect class="cls-1" width="524" height="120"/><path class="cls-2" d="M311.68,49.5V61.14a4.92,4.92,0,0,0,1.06,3.46,4.38,4.38,0,0,0,3.35,1.14,4.5,4.5,0,0,0,3.36-1.1,4.84,4.84,0,0,0,1.07-3.48V49.5h3.25V61.28a7.12,7.12,0,0,1-2,5.27,7.82,7.82,0,0,1-5.73,1.94,10.45,10.45,0,0,1-3.29-.49,6.06,6.06,0,0,1-3.9-3.79,8.73,8.73,0,0,1-.46-2.93V49.5Z"/><path class="cls-2" d="M335.4,53.43a7,7,0,0,1,2.38.36,3.92,3.92,0,0,1,1.61,1.05,4.21,4.21,0,0,1,.91,1.75,9.27,9.27,0,0,1,.29,2.43v9h-3.12V59.6a4.58,4.58,0,0,0-.69-2.74,2.58,2.58,0,0,0-2.22-.93A3.2,3.2,0,0,0,331.89,57,4.94,4.94,0,0,0,331,60.2v7.86h-3.12V53.81h3V56H331a4.64,4.64,0,0,1,.8-1.08,4.83,4.83,0,0,1,1-.79,5.07,5.07,0,0,1,1.23-.5A5.48,5.48,0,0,1,335.4,53.43Z"/><path class="cls-2" d="M351.44,59.25v2.58h-7.35V59.25Z"/><path class="cls-2" d="M366.72,63.75a4.34,4.34,0,0,1-.49,2.12,4.23,4.23,0,0,1-1.33,1.47,5.85,5.85,0,0,1-2,.85,10.4,10.4,0,0,1-2.43.27,9.88,9.88,0,0,1-2.35-.27,6,6,0,0,1-1.92-.83A4.64,4.64,0,0,1,354.86,66a4.77,4.77,0,0,1-.66-2h3a2.49,2.49,0,0,0,1.1,1.74,3.24,3.24,0,0,0,1,.44,4.74,4.74,0,0,0,1.21.15,5.24,5.24,0,0,0,1.16-.13,3.14,3.14,0,0,0,1-.39,2.18,2.18,0,0,0,.69-.67,1.69,1.69,0,0,0,.26-.95,1.33,1.33,0,0,0-.22-.76,2,2,0,0,0-.58-.56,4,4,0,0,0-.86-.4q-.49-.17-1-.29l-2-.48a13,13,0,0,1-2-.61,5.14,5.14,0,0,1-1.37-.8,2.88,2.88,0,0,1-.8-1.05,3.41,3.41,0,0,1-.26-1.37,3.84,3.84,0,0,1,.46-1.92,4,4,0,0,1,1.26-1.36,5.82,5.82,0,0,1,1.88-.81,9.66,9.66,0,0,1,2.32-.27,8.38,8.38,0,0,1,2.3.29,5.67,5.67,0,0,1,1.77.83,4.13,4.13,0,0,1,1.18,1.29,4.22,4.22,0,0,1,.54,1.67h-3a2.21,2.21,0,0,0-1-1.4,3.57,3.57,0,0,0-2-.49,5,5,0,0,0-1,.1,2.72,2.72,0,0,0-.84.31,1.65,1.65,0,0,0-.56.53,1.4,1.4,0,0,0-.21.78,1.29,1.29,0,0,0,.22.75,2,2,0,0,0,.56.53,3.13,3.13,0,0,0,.76.36q.41.13.79.22l3,.71a9.36,9.36,0,0,1,1.48.48,4.23,4.23,0,0,1,1.18.73,3.19,3.19,0,0,1,.79,1.09A4,4,0,0,1,366.72,63.75Z"/><path class="cls-2" d="M376.15,53.43a6.51,6.51,0,0,1,2.91.62,6,6,0,0,1,2.09,1.67,7.22,7.22,0,0,1,1.26,2.46,10.31,10.31,0,0,1,.42,3v.57H372.31a6,6,0,0,0,.29,1.76,4.13,4.13,0,0,0,.75,1.36,3.36,3.36,0,0,0,1.17.89,3.67,3.67,0,0,0,1.56.32,4.12,4.12,0,0,0,2.11-.5,3.68,3.68,0,0,0,1.33-1.31h3a6.62,6.62,0,0,1-1,1.76,6.14,6.14,0,0,1-1.43,1.33,6.57,6.57,0,0,1-1.84.84,7.9,7.9,0,0,1-2.2.29,7.11,7.11,0,0,1-2.88-.56A6.11,6.11,0,0,1,371,66.35,6.88,6.88,0,0,1,369.65,64a9.34,9.34,0,0,1-.47-3,8.78,8.78,0,0,1,.47-2.88A7.15,7.15,0,0,1,371,55.68,6.57,6.57,0,0,1,373.2,54,6.84,6.84,0,0,1,376.15,53.43Zm3.54,6.17a6,6,0,0,0-.36-1.53,3.74,3.74,0,0,0-.72-1.19,3.1,3.1,0,0,0-1.09-.77,4.14,4.14,0,0,0-3,0,3.27,3.27,0,0,0-1.12.77,3.88,3.88,0,0,0-.75,1.19,5.49,5.49,0,0,0-.37,1.52Z"/><path class="cls-2" d="M389.33,48.38V68.06h-3.14V48.38Z"/><path class="cls-2" d="M399.7,53.43a6.51,6.51,0,0,1,2.91.62,6,6,0,0,1,2.09,1.67A7.22,7.22,0,0,1,406,58.17a10.31,10.31,0,0,1,.42,3v.57H395.86a6,6,0,0,0,.29,1.76,4.13,4.13,0,0,0,.75,1.36,3.36,3.36,0,0,0,1.17.89,3.67,3.67,0,0,0,1.56.32,4.12,4.12,0,0,0,2.11-.5,3.68,3.68,0,0,0,1.33-1.31h3a6.62,6.62,0,0,1-1,1.76,6.14,6.14,0,0,1-1.43,1.33,6.57,6.57,0,0,1-1.84.84,7.9,7.9,0,0,1-2.2.29,7.11,7.11,0,0,1-2.88-.56,6.11,6.11,0,0,1-2.16-1.56A6.88,6.88,0,0,1,393.2,64a9.34,9.34,0,0,1-.47-3,8.78,8.78,0,0,1,.47-2.88,7.15,7.15,0,0,1,1.36-2.39A6.57,6.57,0,0,1,396.75,54,6.84,6.84,0,0,1,399.7,53.43Zm3.54,6.17a6,6,0,0,0-.36-1.53,3.74,3.74,0,0,0-.72-1.19,3.1,3.1,0,0,0-1.09-.77,4.14,4.14,0,0,0-3,0,3.27,3.27,0,0,0-1.12.77,3.88,3.88,0,0,0-.75,1.19,5.49,5.49,0,0,0-.37,1.52Z"/><path class="cls-2" d="M416.11,53.43a8.81,8.81,0,0,1,2.3.29,6.1,6.1,0,0,1,1.93.88,4.91,4.91,0,0,1,1.38,1.47,5,5,0,0,1,.68,2.06h-3.08a2.62,2.62,0,0,0-1-1.69,3.66,3.66,0,0,0-2.2-.59,3.33,3.33,0,0,0-1.76.45,3.9,3.9,0,0,0-1.23,1.18,5.29,5.29,0,0,0-.72,1.65,7.4,7.4,0,0,0,0,3.62,5.27,5.27,0,0,0,.69,1.63,3.88,3.88,0,0,0,1.21,1.19A3.27,3.27,0,0,0,416,66a3.94,3.94,0,0,0,1.29-.2,3.2,3.2,0,0,0,1-.57,3,3,0,0,0,.72-.88,3.83,3.83,0,0,0,.39-1.14h3a6.67,6.67,0,0,1-.71,2.13A5.62,5.62,0,0,1,420.45,67a6,6,0,0,1-1.92,1.07,7.56,7.56,0,0,1-2.48.38,7.23,7.23,0,0,1-2.86-.55A6.54,6.54,0,0,1,411,66.37,7,7,0,0,1,409.53,64a8.29,8.29,0,0,1-.51-3,9.21,9.21,0,0,1,.46-2.95,7.16,7.16,0,0,1,1.36-2.43A6.43,6.43,0,0,1,413.07,54,7.21,7.21,0,0,1,416.11,53.43Z"/><path class="cls-2" d="M432.85,68.16l-.61,0-.63,0H431a9.87,9.87,0,0,1-1.59-.12,3.42,3.42,0,0,1-1.29-.47,2.43,2.43,0,0,1-.87-1A3.62,3.62,0,0,1,427,65V56h-2.79V53.81H427V49.55h3.14v4.27h3.25V56H430.1v8.06a1.79,1.79,0,0,0,.36,1.26,1.74,1.74,0,0,0,1.29.38h.37l.44,0,.43,0,.36,0v2.48Z"/><path class="cls-2" d="M442.37,53.43a6.51,6.51,0,0,1,2.91.62,6,6,0,0,1,2.09,1.67,7.22,7.22,0,0,1,1.26,2.46,10.31,10.31,0,0,1,.42,3v.57H438.53a6,6,0,0,0,.29,1.76,4.13,4.13,0,0,0,.75,1.36,3.36,3.36,0,0,0,1.17.89,3.67,3.67,0,0,0,1.56.32,4.12,4.12,0,0,0,2.11-.5,3.68,3.68,0,0,0,1.33-1.31h3a6.62,6.62,0,0,1-1,1.76,6.14,6.14,0,0,1-1.43,1.33,6.57,6.57,0,0,1-1.84.84,7.9,7.9,0,0,1-2.2.29,7.11,7.11,0,0,1-2.88-.56,6.11,6.11,0,0,1-2.16-1.56A6.88,6.88,0,0,1,435.87,64a9.34,9.34,0,0,1-.47-3,8.78,8.78,0,0,1,.47-2.88,7.15,7.15,0,0,1,1.36-2.39A6.57,6.57,0,0,1,439.42,54,6.84,6.84,0,0,1,442.37,53.43Zm3.54,6.17a6,6,0,0,0-.36-1.53,3.74,3.74,0,0,0-.72-1.19,3.1,3.1,0,0,0-1.09-.77,4.14,4.14,0,0,0-3,0,3.27,3.27,0,0,0-1.12.77,3.88,3.88,0,0,0-.75,1.19,5.49,5.49,0,0,0-.37,1.52Z"/><path class="cls-2" d="M465.63,48.38V68.06h-3V65.92h-.05a4.52,4.52,0,0,1-.79,1.07,4.69,4.69,0,0,1-1.07.8,5.29,5.29,0,0,1-1.29.5,6.1,6.1,0,0,1-1.45.17,5.79,5.79,0,0,1-4.77-2.29A7.32,7.32,0,0,1,452,63.75a10.15,10.15,0,0,1-.41-2.89,9.8,9.8,0,0,1,.39-2.74,7.24,7.24,0,0,1,1.17-2.38,6,6,0,0,1,2-1.68,6.3,6.3,0,0,1,4.16-.48,5.37,5.37,0,0,1,1.25.46,4.5,4.5,0,0,1,1.06.77,4.45,4.45,0,0,1,.81,1.07h.05V48.38ZM454.73,60.92a7.86,7.86,0,0,0,.21,1.77,5.28,5.28,0,0,0,.68,1.65,3.9,3.9,0,0,0,1.21,1.22,3.25,3.25,0,0,0,1.8.48,3.74,3.74,0,0,0,1.71-.37,3.41,3.41,0,0,0,1.24-1.05,4.88,4.88,0,0,0,.75-1.62,8,8,0,0,0,.25-2.08,8.08,8.08,0,0,0-.21-1.82,5,5,0,0,0-.68-1.62,3.73,3.73,0,0,0-1.23-1.17,3.55,3.55,0,0,0-1.85-.45,3.37,3.37,0,0,0-1.77.44,3.67,3.67,0,0,0-1.2,1.15,5.1,5.1,0,0,0-.69,1.63A8.49,8.49,0,0,0,454.73,60.92Z"/><rect class="cls-3" x="30.5" y="31" width="232" height="58"/><g class="cls-4"><path class="cls-5" d="M262.5,31V89H30.5V31h232m1-1H29.5V90h234V30Z"/></g><path class="cls-2" d="M104.74,62.76a5.13,5.13,0,0,1-.63,2.61,5.23,5.23,0,0,1-1.69,1.78,7.62,7.62,0,0,1-2.45,1,12.81,12.81,0,0,1-2.9.32,11.22,11.22,0,0,1-3-.37A7.32,7.32,0,0,1,91.73,67a5.37,5.37,0,0,1-1.6-1.82,5.15,5.15,0,0,1-.58-2.49v-.22h3.19v.11a2.89,2.89,0,0,0,.36,1.46,3.05,3.05,0,0,0,1,1,4.57,4.57,0,0,0,1.45.62,7.48,7.48,0,0,0,1.77.2,7.39,7.39,0,0,0,1.66-.18,4.49,4.49,0,0,0,1.36-.54,2.84,2.84,0,0,0,.92-.9,2.31,2.31,0,0,0,.34-1.26,2,2,0,0,0-.81-1.64,7.06,7.06,0,0,0-2.52-1.1l-4-1.05a6.13,6.13,0,0,1-3.11-1.68,4.35,4.35,0,0,1-1-3,4.86,4.86,0,0,1,.56-2.37,5.12,5.12,0,0,1,1.52-1.71,7,7,0,0,1,2.23-1,10,10,0,0,1,2.7-.36,10.16,10.16,0,0,1,2.57.32,7,7,0,0,1,2.2,1A5,5,0,0,1,103.45,52a4.87,4.87,0,0,1,.6,2.37h-3.16a2.69,2.69,0,0,0-.34-1.12,2.75,2.75,0,0,0-.79-.88,3.92,3.92,0,0,0-1.19-.56,5.42,5.42,0,0,0-1.54-.2,6.34,6.34,0,0,0-1.44.16,3.81,3.81,0,0,0-1.19.49,2.5,2.5,0,0,0-.81.83,2.28,2.28,0,0,0-.3,1.19,2.15,2.15,0,0,0,.15.85,1.73,1.73,0,0,0,.43.61,2.32,2.32,0,0,0,.67.42,6.76,6.76,0,0,0,.88.29l4.38,1.16a8,8,0,0,1,3.69,1.88A4.38,4.38,0,0,1,104.74,62.76Z"/><path class="cls-2" d="M113.88,53.43a6.51,6.51,0,0,1,2.91.62,6,6,0,0,1,2.09,1.67,7.22,7.22,0,0,1,1.26,2.46,10.31,10.31,0,0,1,.42,3v.57H110a6,6,0,0,0,.29,1.76,4.13,4.13,0,0,0,.75,1.36,3.36,3.36,0,0,0,1.17.89,3.67,3.67,0,0,0,1.56.32,4.12,4.12,0,0,0,2.11-.5,3.68,3.68,0,0,0,1.33-1.31h3a6.62,6.62,0,0,1-1,1.76,6.14,6.14,0,0,1-1.43,1.33,6.57,6.57,0,0,1-1.84.84,7.9,7.9,0,0,1-2.2.29,7.11,7.11,0,0,1-2.88-.56,6.11,6.11,0,0,1-2.16-1.56A6.88,6.88,0,0,1,107.38,64a9.34,9.34,0,0,1-.47-3,8.78,8.78,0,0,1,.47-2.88,7.15,7.15,0,0,1,1.36-2.39A6.57,6.57,0,0,1,110.93,54,6.84,6.84,0,0,1,113.88,53.43Zm3.54,6.17a6,6,0,0,0-.36-1.53,3.74,3.74,0,0,0-.72-1.19,3.1,3.1,0,0,0-1.09-.77,4.14,4.14,0,0,0-3,0,3.27,3.27,0,0,0-1.12.77,3.88,3.88,0,0,0-.75,1.19A5.49,5.49,0,0,0,110,59.6Z"/><path class="cls-2" d="M127.06,48.38V68.06h-3.14V48.38Z"/><path class="cls-2" d="M137.43,53.43a6.51,6.51,0,0,1,2.91.62,6,6,0,0,1,2.09,1.67,7.22,7.22,0,0,1,1.26,2.46,10.31,10.31,0,0,1,.42,3v.57H133.59a6,6,0,0,0,.29,1.76,4.13,4.13,0,0,0,.75,1.36,3.36,3.36,0,0,0,1.17.89,3.67,3.67,0,0,0,1.56.32,4.12,4.12,0,0,0,2.11-.5,3.68,3.68,0,0,0,1.33-1.31h3a6.62,6.62,0,0,1-1,1.76,6.14,6.14,0,0,1-1.43,1.33,6.57,6.57,0,0,1-1.84.84,7.9,7.9,0,0,1-2.2.29,7.11,7.11,0,0,1-2.88-.56,6.11,6.11,0,0,1-2.16-1.56A6.88,6.88,0,0,1,130.93,64a9.34,9.34,0,0,1-.47-3,8.78,8.78,0,0,1,.47-2.88,7.15,7.15,0,0,1,1.36-2.39A6.57,6.57,0,0,1,134.48,54,6.84,6.84,0,0,1,137.43,53.43ZM141,59.6a6,6,0,0,0-.36-1.53,3.74,3.74,0,0,0-.72-1.19,3.1,3.1,0,0,0-1.09-.77,4.14,4.14,0,0,0-3,0,3.27,3.27,0,0,0-1.12.77,3.88,3.88,0,0,0-.75,1.19,5.49,5.49,0,0,0-.37,1.52Z"/><path class="cls-2" d="M153.84,53.43a8.81,8.81,0,0,1,2.3.29,6.1,6.1,0,0,1,1.93.88,4.91,4.91,0,0,1,1.38,1.47,5,5,0,0,1,.68,2.06h-3.08a2.62,2.62,0,0,0-1-1.69,3.66,3.66,0,0,0-2.2-.59,3.33,3.33,0,0,0-1.76.45,3.9,3.9,0,0,0-1.23,1.18,5.29,5.29,0,0,0-.72,1.65,7.4,7.4,0,0,0,0,3.62,5.27,5.27,0,0,0,.69,1.63A3.88,3.88,0,0,0,152,65.57a3.27,3.27,0,0,0,1.78.46,3.94,3.94,0,0,0,1.29-.2,3.2,3.2,0,0,0,1-.57,3,3,0,0,0,.72-.88,3.83,3.83,0,0,0,.39-1.14h3a6.67,6.67,0,0,1-.71,2.13A5.62,5.62,0,0,1,158.18,67a6,6,0,0,1-1.92,1.07,7.56,7.56,0,0,1-2.48.38,7.23,7.23,0,0,1-2.86-.55,6.54,6.54,0,0,1-2.22-1.54A7,7,0,0,1,147.26,64a8.29,8.29,0,0,1-.51-3,9.21,9.21,0,0,1,.46-2.95,7.16,7.16,0,0,1,1.36-2.43A6.43,6.43,0,0,1,150.8,54,7.21,7.21,0,0,1,153.84,53.43Z"/><path class="cls-2" d="M170.58,68.16l-.61,0-.63,0h-.56a9.87,9.87,0,0,1-1.59-.12,3.42,3.42,0,0,1-1.29-.47,2.43,2.43,0,0,1-.87-1A3.62,3.62,0,0,1,164.7,65V56H161.9V53.81h2.79V49.55h3.14v4.27h3.25V56h-3.25v8.06a1.79,1.79,0,0,0,.36,1.26,1.74,1.74,0,0,0,1.29.38h.37l.44,0,.43,0,.36,0v2.48Z"/><path class="cls-2" d="M180.1,53.43A6.51,6.51,0,0,1,183,54a6,6,0,0,1,2.09,1.67,7.22,7.22,0,0,1,1.26,2.46,10.31,10.31,0,0,1,.42,3v.57H176.26a6,6,0,0,0,.29,1.76,4.13,4.13,0,0,0,.75,1.36,3.36,3.36,0,0,0,1.17.89A3.67,3.67,0,0,0,180,66a4.12,4.12,0,0,0,2.11-.5,3.68,3.68,0,0,0,1.33-1.31h3a6.62,6.62,0,0,1-1,1.76A6.14,6.14,0,0,1,184,67.33a6.57,6.57,0,0,1-1.84.84,7.9,7.9,0,0,1-2.2.29,7.11,7.11,0,0,1-2.88-.56,6.11,6.11,0,0,1-2.16-1.56A6.88,6.88,0,0,1,173.6,64a9.34,9.34,0,0,1-.47-3,8.78,8.78,0,0,1,.47-2.88A7.15,7.15,0,0,1,175,55.68,6.57,6.57,0,0,1,177.15,54,6.84,6.84,0,0,1,180.1,53.43Zm3.54,6.17a6,6,0,0,0-.36-1.53,3.74,3.74,0,0,0-.72-1.19,3.1,3.1,0,0,0-1.09-.77,4.14,4.14,0,0,0-3,0,3.27,3.27,0,0,0-1.12.77,3.88,3.88,0,0,0-.75,1.19,5.49,5.49,0,0,0-.37,1.52Z"/><path class="cls-2" d="M203.35,48.38V68.06h-3V65.92h-.05a4.52,4.52,0,0,1-.79,1.07,4.69,4.69,0,0,1-1.07.8,5.29,5.29,0,0,1-1.29.5,6.1,6.1,0,0,1-1.45.17A5.79,5.79,0,0,1,191,66.17a7.32,7.32,0,0,1-1.21-2.42,10.15,10.15,0,0,1-.41-2.89,9.8,9.8,0,0,1,.39-2.74,7.24,7.24,0,0,1,1.17-2.38,6,6,0,0,1,2-1.68,6.3,6.3,0,0,1,4.16-.48,5.37,5.37,0,0,1,1.25.46,4.5,4.5,0,0,1,1.06.77,4.45,4.45,0,0,1,.81,1.07h.05V48.38ZM192.46,60.92a7.86,7.86,0,0,0,.21,1.77,5.28,5.28,0,0,0,.68,1.65,3.9,3.9,0,0,0,1.21,1.22,3.25,3.25,0,0,0,1.8.48,3.74,3.74,0,0,0,1.71-.37,3.41,3.41,0,0,0,1.24-1.05,4.88,4.88,0,0,0,.75-1.62,8,8,0,0,0,.25-2.08,8.08,8.08,0,0,0-.21-1.82,5,5,0,0,0-.68-1.62,3.73,3.73,0,0,0-1.23-1.17,3.55,3.55,0,0,0-1.85-.45,3.37,3.37,0,0,0-1.77.44,3.67,3.67,0,0,0-1.2,1.15,5.1,5.1,0,0,0-.69,1.63A8.49,8.49,0,0,0,192.46,60.92Z"/><path class="cls-6" d="M498.5,31V89H30.5V31h468m1-1H29.5V90h470V30Z"/><line class="cls-7" x1="29.5" y1="31.5" x2="263.5" y2="31.5"/></svg>