<svg id="Layer_1" data-name="Layer 1" xmlns="http://www.w3.org/2000/svg" viewBox="0 0 237 131"><defs><style>.cls-1{fill:none;}.cls-2{fill:#464646;}.cls-3,.cls-8{fill:#fff;}.cls-3,.cls-7{opacity:0.8;}.cls-4,.cls-8{opacity:0.4;}.cls-5{fill:#5a5a5a;}.cls-11,.cls-6{fill:#0aaeff;}.cls-9{opacity:0.3;}.cls-10{opacity:0.5;}.cls-11{fill-opacity:0.4;}.cls-12{fill:#0076b7;}</style></defs><title>Artboard 11</title><rect class="cls-1" x="8" y="30" width="235" height="200"/><path class="cls-2" d="M51,52.19l5,7.25h0V52.19h.81v8.57h-.91l-5-7.25h0v7.25H50.1V52.19Z"/><path class="cls-2" d="M64.86,57.48a4.29,4.29,0,0,1-.2,1.31A3.31,3.31,0,0,1,64,59.91a2.9,2.9,0,0,1-2.29,1,2.84,2.84,0,0,1-2.24-1,4.07,4.07,0,0,1,0-5A3.08,3.08,0,0,1,64,55,3.65,3.65,0,0,1,64.86,57.48Zm-.8,0a3.8,3.8,0,0,0-.13-1,2.82,2.82,0,0,0-.42-.9,2.24,2.24,0,0,0-.72-.65,2,2,0,0,0-1-.25,2,2,0,0,0-1,.24,2.24,2.24,0,0,0-.72.63,2.86,2.86,0,0,0-.44.9,3.66,3.66,0,0,0-.15,1,3.58,3.58,0,0,0,.14,1,3,3,0,0,0,.43.9,2.24,2.24,0,0,0,.71.65,2,2,0,0,0,1,.25,2,2,0,0,0,1-.24,2.34,2.34,0,0,0,.72-.63,2.8,2.8,0,0,0,.45-.89A3.54,3.54,0,0,0,64.06,57.48Z"/><path class="cls-2" d="M66.66,60.76V54.2h.74v1.54h0a2.56,2.56,0,0,1,.9-1.2,2.32,2.32,0,0,1,1.38-.43H70v.8h-.18a2.22,2.22,0,0,0-1.71.69,2.36,2.36,0,0,0-.64,1.69v3.48Z"/><path class="cls-2" d="M79.56,60.76V56.29a1.73,1.73,0,0,0-.37-1.22,1.85,1.85,0,0,0-2.5.21A2.8,2.8,0,0,0,76.23,57v3.77h-.81V56.26a1.81,1.81,0,0,0-.34-1.17,1.25,1.25,0,0,0-1-.42,1.72,1.72,0,0,0-1.46.65A2.72,2.72,0,0,0,72.1,57v3.72h-.8V54.2H72v1.1h0A2.26,2.26,0,0,1,74.22,54a2.44,2.44,0,0,1,.64.08,1.86,1.86,0,0,1,.54.24,1.66,1.66,0,0,1,.42.4,1.87,1.87,0,0,1,.28.55,2.16,2.16,0,0,1,.85-1A2.4,2.4,0,0,1,78.2,54a2.12,2.12,0,0,1,1.63.58,2.36,2.36,0,0,1,.54,1.66v4.51Z"/><path class="cls-2" d="M88.22,60.71l-.27,0h-.24a1.37,1.37,0,0,1-.44-.06.65.65,0,0,1-.29-.2.82.82,0,0,1-.16-.36,2.42,2.42,0,0,1,0-.53h0a3,3,0,0,1-1,1,2.79,2.79,0,0,1-1.35.29,2.46,2.46,0,0,1-1.6-.5,1.75,1.75,0,0,1-.6-1.43,1.66,1.66,0,0,1,.66-1.43,6.79,6.79,0,0,1,3-.69,2,2,0,0,0,.44-.08.75.75,0,0,0,.29-.16.59.59,0,0,0,.16-.26,1.28,1.28,0,0,0,0-.38,1.25,1.25,0,0,0-.4-1A2,2,0,0,0,85,54.68a2.61,2.61,0,0,0-.72.09,1.65,1.65,0,0,0-.53.25,1.13,1.13,0,0,0-.33.39,1.23,1.23,0,0,0-.13.49h-.8a2,2,0,0,1,.22-.78,1.77,1.77,0,0,1,.51-.59,2.43,2.43,0,0,1,.81-.38A4,4,0,0,1,85.09,54a2.64,2.64,0,0,1,1.83.54,2,2,0,0,1,.59,1.52v3.56a.47.47,0,0,0,.11.33.46.46,0,0,0,.36.12.7.7,0,0,0,.25,0ZM86.7,57.17h0q-.12.22-.77.31l-.67.1-.74.12a2.67,2.67,0,0,0-1.17.44,1,1,0,0,0-.39.84,1.16,1.16,0,0,0,.43.94,1.6,1.6,0,0,0,1,.35A2.36,2.36,0,0,0,86,59.69a1.85,1.85,0,0,0,.65-1.44Z"/><path class="cls-2" d="M90.48,51.68v9.08h-.8V51.68Z"/><rect class="cls-3" x="138" y="50" width="14" height="14"/><g class="cls-4"><path class="cls-5" d="M151,51V63H139V51h12m1-1H138V64h14V50Z"/></g><polygon class="cls-6" points="144.45 60.87 140.55 57.22 141.77 55.92 144.23 58.23 148.47 52.71 149.88 53.79 144.45 60.87"/><g class="cls-7"><rect class="cls-8" x="28" y="102" width="14" height="14"/><g class="cls-9"><path class="cls-5" d="M41,103v12H29V103H41m1-1H28v14H42V102Z"/></g></g><polygon class="cls-1" points="34.45 113.08 30.55 109.42 31.77 108.12 34.23 110.44 38.47 104.92 39.88 106 34.45 113.08"/><rect class="cls-3" x="28" y="50" width="14" height="14"/><g class="cls-4"><path class="cls-5" d="M41,51V63H29V51H41m1-1H28V64H42V50Z"/></g><polygon class="cls-1" points="34.45 60.87 30.55 57.22 31.77 55.92 34.23 58.23 38.47 52.71 39.88 53.79 34.45 60.87"/><path class="cls-2" d="M160,52.19l5,7.25h0V52.19h.81v8.57h-.91l-5-7.25h0v7.25h-.82V52.19Z"/><path class="cls-2" d="M173.86,57.48a4.29,4.29,0,0,1-.2,1.31,3.31,3.31,0,0,1-.61,1.13,2.9,2.9,0,0,1-2.29,1,2.84,2.84,0,0,1-2.24-1,4.07,4.07,0,0,1,0-5A3.08,3.08,0,0,1,173,55,3.65,3.65,0,0,1,173.86,57.48Zm-.8,0a3.8,3.8,0,0,0-.13-1,2.82,2.82,0,0,0-.42-.9,2.24,2.24,0,0,0-.72-.65,2,2,0,0,0-1-.25,2,2,0,0,0-1,.24,2.24,2.24,0,0,0-.72.63,2.86,2.86,0,0,0-.44.9,3.66,3.66,0,0,0-.15,1,3.58,3.58,0,0,0,.14,1,3,3,0,0,0,.43.9,2.24,2.24,0,0,0,.71.65,2,2,0,0,0,1,.25,2,2,0,0,0,1-.24,2.34,2.34,0,0,0,.72-.63,2.8,2.8,0,0,0,.45-.89A3.54,3.54,0,0,0,173.06,57.48Z"/><path class="cls-2" d="M175.66,60.76V54.2h.74v1.54h0a2.56,2.56,0,0,1,.9-1.2,2.32,2.32,0,0,1,1.38-.43H179v.8h-.18a2.22,2.22,0,0,0-1.71.69,2.36,2.36,0,0,0-.64,1.69v3.48Z"/><path class="cls-2" d="M188.56,60.76V56.29a1.73,1.73,0,0,0-.37-1.22,1.85,1.85,0,0,0-2.5.21,2.8,2.8,0,0,0-.45,1.71v3.77h-.81V56.26a1.81,1.81,0,0,0-.34-1.17,1.25,1.25,0,0,0-1-.42,1.72,1.72,0,0,0-1.46.65,2.72,2.72,0,0,0-.5,1.71v3.72h-.8V54.2H181v1.1h0A2.26,2.26,0,0,1,183.22,54a2.44,2.44,0,0,1,.64.08,1.86,1.86,0,0,1,.54.24,1.66,1.66,0,0,1,.42.4,1.87,1.87,0,0,1,.28.55,2.16,2.16,0,0,1,.85-1A2.4,2.4,0,0,1,187.2,54a2.12,2.12,0,0,1,1.63.58,2.36,2.36,0,0,1,.54,1.66v4.51Z"/><path class="cls-2" d="M197.22,60.71l-.27,0h-.24a1.37,1.37,0,0,1-.44-.06.65.65,0,0,1-.29-.2.82.82,0,0,1-.16-.36,2.42,2.42,0,0,1,0-.53h0a3,3,0,0,1-1,1,2.79,2.79,0,0,1-1.35.29,2.46,2.46,0,0,1-1.6-.5,1.75,1.75,0,0,1-.6-1.43,1.66,1.66,0,0,1,.66-1.43,6.79,6.79,0,0,1,3-.69,2,2,0,0,0,.44-.08.75.75,0,0,0,.29-.16.59.59,0,0,0,.16-.26,1.28,1.28,0,0,0,0-.38,1.25,1.25,0,0,0-.4-1,2,2,0,0,0-1.31-.34,2.61,2.61,0,0,0-.72.09,1.65,1.65,0,0,0-.53.25,1.13,1.13,0,0,0-.33.39,1.23,1.23,0,0,0-.13.49h-.8a2,2,0,0,1,.22-.78,1.77,1.77,0,0,1,.51-.59,2.43,2.43,0,0,1,.81-.38,4,4,0,0,1,1.09-.13,2.64,2.64,0,0,1,1.83.54,2,2,0,0,1,.59,1.52v3.56a.47.47,0,0,0,.11.33.46.46,0,0,0,.36.12.7.7,0,0,0,.25,0Zm-1.52-3.54h0q-.12.22-.77.31l-.67.1-.74.12a2.67,2.67,0,0,0-1.17.44,1,1,0,0,0-.39.84,1.16,1.16,0,0,0,.43.94,1.6,1.6,0,0,0,1,.35,2.36,2.36,0,0,0,1.63-.58,1.85,1.85,0,0,0,.65-1.44Z"/><path class="cls-2" d="M199.48,51.68v9.08h-.8V51.68Z"/><g class="cls-10"><path class="cls-2" d="M53,104.18a4.11,4.11,0,0,1,3,1,5.51,5.51,0,0,1,0,6.52,4,4,0,0,1-2.89,1H50.13v-8.57Zm-.22,7.87a3.57,3.57,0,0,0,2.61-.83,3.76,3.76,0,0,0,.84-2.75,3.82,3.82,0,0,0-.82-2.74,3.73,3.73,0,0,0-2.75-.84H50.95v7.17Z"/><path class="cls-2" d="M59.57,103.31v1.29h-.8v-1.29Zm0,2.87v6.56h-.8v-6.56Z"/><path class="cls-2" d="M66.68,111a1.67,1.67,0,0,1-.22.88,1.89,1.89,0,0,1-.59.62,2.74,2.74,0,0,1-.84.36,4,4,0,0,1-1,.12A3.66,3.66,0,0,1,63,112.8a2.4,2.4,0,0,1-.8-.41,2,2,0,0,1-.53-.64,2.4,2.4,0,0,1-.25-.85h.81a1.7,1.7,0,0,0,.2.56,1.4,1.4,0,0,0,.38.43,1.8,1.8,0,0,0,.57.28,2.56,2.56,0,0,0,.74.1,3,3,0,0,0,.6-.06,2.05,2.05,0,0,0,.58-.21,1.36,1.36,0,0,0,.44-.38,1,1,0,0,0,.18-.59.93.93,0,0,0-.34-.73,2.6,2.6,0,0,0-1.13-.46l-1-.22a4,4,0,0,1-.77-.24,2.1,2.1,0,0,1-.58-.37,1.46,1.46,0,0,1-.36-.5,1.61,1.61,0,0,1-.12-.65,1.57,1.57,0,0,1,.21-.84,1.77,1.77,0,0,1,.56-.57,2.53,2.53,0,0,1,.78-.33A3.77,3.77,0,0,1,64,106a3.27,3.27,0,0,1,.92.12,2.28,2.28,0,0,1,.73.35,1.83,1.83,0,0,1,.5.57,2.08,2.08,0,0,1,.25.78h-.8a1.33,1.33,0,0,0-.19-.5,1.24,1.24,0,0,0-.36-.37,1.69,1.69,0,0,0-.5-.22,2.36,2.36,0,0,0-.61-.08,2.85,2.85,0,0,0-.58.06,1.59,1.59,0,0,0-.51.19,1.07,1.07,0,0,0-.36.35,1,1,0,0,0-.13.53.74.74,0,0,0,.13.44,1.27,1.27,0,0,0,.33.32,1.92,1.92,0,0,0,.44.22,3.65,3.65,0,0,0,.46.13l1.37.3a2.85,2.85,0,0,1,.59.21,1.77,1.77,0,0,1,.5.35,1.64,1.64,0,0,1,.34.51A1.72,1.72,0,0,1,66.68,111Z"/><path class="cls-2" d="M74.11,112.7l-.27,0H73.6a1.37,1.37,0,0,1-.44-.06.65.65,0,0,1-.29-.2.82.82,0,0,1-.16-.36,2.42,2.42,0,0,1,0-.53h0a3,3,0,0,1-1,1,2.79,2.79,0,0,1-1.35.29,2.46,2.46,0,0,1-1.6-.5A1.75,1.75,0,0,1,68,111a1.66,1.66,0,0,1,.66-1.43,6.79,6.79,0,0,1,3-.69,2,2,0,0,0,.44-.08.75.75,0,0,0,.29-.16.59.59,0,0,0,.16-.26,1.28,1.28,0,0,0,0-.38,1.25,1.25,0,0,0-.4-1,2,2,0,0,0-1.31-.34,2.61,2.61,0,0,0-.72.09,1.65,1.65,0,0,0-.53.25,1.13,1.13,0,0,0-.33.39,1.23,1.23,0,0,0-.13.49h-.8a2,2,0,0,1,.22-.78,1.77,1.77,0,0,1,.51-.59,2.43,2.43,0,0,1,.81-.38A4,4,0,0,1,71,106a2.64,2.64,0,0,1,1.83.54,2,2,0,0,1,.59,1.52v3.56a.47.47,0,0,0,.11.33.46.46,0,0,0,.36.12.7.7,0,0,0,.25,0Zm-1.52-3.54h0q-.12.22-.77.31l-.67.1-.74.12a2.67,2.67,0,0,0-1.17.44,1,1,0,0,0-.39.84,1.16,1.16,0,0,0,.43.94,1.6,1.6,0,0,0,1,.35,2.36,2.36,0,0,0,1.63-.58,1.85,1.85,0,0,0,.65-1.44Z"/><path class="cls-2" d="M81.61,109.47a4.77,4.77,0,0,1-.17,1.28,3.38,3.38,0,0,1-.53,1.11,2.69,2.69,0,0,1-.92.79,2.8,2.8,0,0,1-1.33.3,2.91,2.91,0,0,1-.72-.09,2.59,2.59,0,0,1-.66-.27,2.33,2.33,0,0,1-.55-.45,2.18,2.18,0,0,1-.4-.63h0v1.25h-.74v-9.08h.8v3.77h0a2,2,0,0,1,.36-.61,2.25,2.25,0,0,1,.54-.45,2.49,2.49,0,0,1,.66-.28,3,3,0,0,1,2,.18,2.63,2.63,0,0,1,.91.75,3.34,3.34,0,0,1,.55,1.1A5,5,0,0,1,81.61,109.47Zm-.8,0a4.4,4.4,0,0,0,0-.65,3.53,3.53,0,0,0-.16-.64,2.89,2.89,0,0,0-.28-.59,2.08,2.08,0,0,0-.41-.48,1.83,1.83,0,0,0-.55-.32,2,2,0,0,0-.71-.12,2,2,0,0,0-1.73.85,2.72,2.72,0,0,0-.42.89,3.94,3.94,0,0,0-.14,1.06,4.21,4.21,0,0,0,.13,1,2.67,2.67,0,0,0,.4.9,2.08,2.08,0,0,0,.71.63,2.18,2.18,0,0,0,1.06.24,1.88,1.88,0,0,0,1-.23,2,2,0,0,0,.66-.63,2.91,2.91,0,0,0,.38-.89A4.9,4.9,0,0,0,80.8,109.47Z"/><path class="cls-2" d="M84.3,103.67v9.08h-.8v-9.08Z"/><path class="cls-2" d="M89.08,106a2.71,2.71,0,0,1,1.3.29,2.6,2.6,0,0,1,.9.79,3.44,3.44,0,0,1,.52,1.13,5.22,5.22,0,0,1,.17,1.34v.13H86.92a3.58,3.58,0,0,0,.13.94,2.58,2.58,0,0,0,.39.83,2,2,0,0,0,.66.59,1.92,1.92,0,0,0,.95.22,2.44,2.44,0,0,0,.7-.09,2,2,0,0,0,.56-.26,1.76,1.76,0,0,0,.42-.39A2.4,2.4,0,0,0,91,111h.79a3,3,0,0,1-.38.79,2.48,2.48,0,0,1-.59.6,2.68,2.68,0,0,1-.79.39,3.33,3.33,0,0,1-1,.14,2.94,2.94,0,0,1-1.3-.27,2.56,2.56,0,0,1-.91-.73,3.12,3.12,0,0,1-.54-1.1,5.13,5.13,0,0,1-.18-1.37,4.66,4.66,0,0,1,.18-1.28,3.37,3.37,0,0,1,.54-1.11,2.74,2.74,0,0,1,.92-.78A2.79,2.79,0,0,1,89.08,106Zm2.09,3a3,3,0,0,0-.16-.85,2.44,2.44,0,0,0-.41-.75,2.07,2.07,0,0,0-.65-.54,1.84,1.84,0,0,0-.88-.21,1.84,1.84,0,0,0-1.5.7,2.69,2.69,0,0,0-.42.75,4.32,4.32,0,0,0-.23.9Z"/><path class="cls-2" d="M99.37,103.67v9.08h-.74V111.5h0a2,2,0,0,1-.39.59,2.58,2.58,0,0,1-.56.46,2.8,2.8,0,0,1-.67.29,2.63,2.63,0,0,1-.72.1,2.8,2.8,0,0,1-1.28-.28,2.68,2.68,0,0,1-.92-.75,3.32,3.32,0,0,1-.56-1.11,4.68,4.68,0,0,1-.19-1.34,4.83,4.83,0,0,1,.17-1.29,3.31,3.31,0,0,1,.53-1.11,2.68,2.68,0,0,1,.92-.78,3,3,0,0,1,2-.2,2.56,2.56,0,0,1,.65.27,2.26,2.26,0,0,1,.54.45,2.07,2.07,0,0,1,.38.63h0v-3.77Zm-5.26,5.8a4.17,4.17,0,0,0,.05.65,3.7,3.7,0,0,0,.16.64,2.81,2.81,0,0,0,.28.58,2.15,2.15,0,0,0,.41.48,1.8,1.8,0,0,0,.55.32,2,2,0,0,0,.7.12,2.07,2.07,0,0,0,1.73-.84,2.66,2.66,0,0,0,.43-.89,4,4,0,0,0,.14-1.06,4,4,0,0,0-.13-1,2.73,2.73,0,0,0-.41-.9,2.06,2.06,0,0,0-1.76-.87,1.94,1.94,0,0,0-.68.11,1.8,1.8,0,0,0-.54.31,2.14,2.14,0,0,0-.41.46,2.81,2.81,0,0,0-.29.58,3.51,3.51,0,0,0-.17.65A4.26,4.26,0,0,0,94.12,109.47Z"/></g><g class="cls-7"><rect class="cls-8" x="138" y="102" width="14" height="14"/><g class="cls-9"><path class="cls-5" d="M151,103v12H139V103h12m1-1H138v14h14V102Z"/></g></g><polygon class="cls-11" points="144.45 113.08 140.55 109.42 141.77 108.12 144.23 110.44 148.47 104.92 149.88 106 144.45 113.08"/><g class="cls-10"><path class="cls-2" d="M162,104.18a4.11,4.11,0,0,1,3,1,5.51,5.51,0,0,1,0,6.52,4,4,0,0,1-2.89,1h-2.94v-8.57Zm-.22,7.87a3.57,3.57,0,0,0,2.61-.83,3.76,3.76,0,0,0,.84-2.75,3.82,3.82,0,0,0-.82-2.74,3.73,3.73,0,0,0-2.75-.84h-1.69v7.17Z"/><path class="cls-2" d="M168.57,103.31v1.29h-.8v-1.29Zm0,2.87v6.56h-.8v-6.56Z"/><path class="cls-2" d="M175.68,111a1.67,1.67,0,0,1-.22.88,1.89,1.89,0,0,1-.59.62,2.74,2.74,0,0,1-.84.36,4,4,0,0,1-1,.12,3.66,3.66,0,0,1-1.07-.14,2.4,2.4,0,0,1-.8-.41,2,2,0,0,1-.53-.64,2.4,2.4,0,0,1-.25-.85h.81a1.7,1.7,0,0,0,.2.56,1.4,1.4,0,0,0,.38.43,1.8,1.8,0,0,0,.57.28,2.56,2.56,0,0,0,.74.1,3,3,0,0,0,.6-.06,2.05,2.05,0,0,0,.58-.21,1.36,1.36,0,0,0,.44-.38,1,1,0,0,0,.18-.59.93.93,0,0,0-.34-.73,2.6,2.6,0,0,0-1.13-.46l-1-.22a4,4,0,0,1-.77-.24,2.1,2.1,0,0,1-.58-.37,1.46,1.46,0,0,1-.36-.5,1.61,1.61,0,0,1-.12-.65,1.57,1.57,0,0,1,.21-.84,1.77,1.77,0,0,1,.56-.57,2.53,2.53,0,0,1,.78-.33A3.77,3.77,0,0,1,173,106a3.27,3.27,0,0,1,.92.12,2.28,2.28,0,0,1,.73.35,1.83,1.83,0,0,1,.5.57,2.08,2.08,0,0,1,.25.78h-.8a1.33,1.33,0,0,0-.19-.5,1.24,1.24,0,0,0-.36-.37,1.69,1.69,0,0,0-.5-.22,2.36,2.36,0,0,0-.61-.08,2.85,2.85,0,0,0-.58.06,1.59,1.59,0,0,0-.51.19,1.07,1.07,0,0,0-.36.35,1,1,0,0,0-.13.53.74.74,0,0,0,.13.44,1.27,1.27,0,0,0,.33.32,1.92,1.92,0,0,0,.44.22,3.65,3.65,0,0,0,.46.13l1.37.3a2.85,2.85,0,0,1,.59.21,1.77,1.77,0,0,1,.5.35,1.64,1.64,0,0,1,.34.51A1.72,1.72,0,0,1,175.68,111Z"/><path class="cls-2" d="M183.11,112.7l-.27,0h-.24a1.37,1.37,0,0,1-.44-.06.65.65,0,0,1-.29-.2.82.82,0,0,1-.16-.36,2.42,2.42,0,0,1,0-.53h0a3,3,0,0,1-1,1,2.79,2.79,0,0,1-1.35.29,2.46,2.46,0,0,1-1.6-.5A1.75,1.75,0,0,1,177,111a1.66,1.66,0,0,1,.66-1.43,6.79,6.79,0,0,1,3-.69,2,2,0,0,0,.44-.08.75.75,0,0,0,.29-.16.59.59,0,0,0,.16-.26,1.28,1.28,0,0,0,0-.38,1.25,1.25,0,0,0-.4-1,2,2,0,0,0-1.31-.34,2.61,2.61,0,0,0-.72.09,1.65,1.65,0,0,0-.53.25,1.13,1.13,0,0,0-.33.39,1.23,1.23,0,0,0-.13.49h-.8a2,2,0,0,1,.22-.78,1.77,1.77,0,0,1,.51-.59,2.43,2.43,0,0,1,.81-.38A4,4,0,0,1,180,106a2.64,2.64,0,0,1,1.83.54,2,2,0,0,1,.59,1.52v3.56a.47.47,0,0,0,.11.33.46.46,0,0,0,.36.12.7.7,0,0,0,.25,0Zm-1.52-3.54h0q-.12.22-.77.31l-.67.1-.74.12a2.67,2.67,0,0,0-1.17.44,1,1,0,0,0-.39.84,1.16,1.16,0,0,0,.43.94,1.6,1.6,0,0,0,1,.35,2.36,2.36,0,0,0,1.63-.58,1.85,1.85,0,0,0,.65-1.44Z"/><path class="cls-2" d="M190.61,109.47a4.77,4.77,0,0,1-.17,1.28,3.38,3.38,0,0,1-.53,1.11,2.69,2.69,0,0,1-.92.79,2.8,2.8,0,0,1-1.33.3,2.91,2.91,0,0,1-.72-.09,2.59,2.59,0,0,1-.66-.27,2.33,2.33,0,0,1-.55-.45,2.18,2.18,0,0,1-.4-.63h0v1.25h-.74v-9.08h.8v3.77h0a2,2,0,0,1,.36-.61,2.25,2.25,0,0,1,.54-.45,2.49,2.49,0,0,1,.66-.28,3,3,0,0,1,2,.18,2.63,2.63,0,0,1,.91.75,3.34,3.34,0,0,1,.55,1.1A5,5,0,0,1,190.61,109.47Zm-.8,0a4.4,4.4,0,0,0,0-.65,3.53,3.53,0,0,0-.16-.64,2.89,2.89,0,0,0-.28-.59,2.08,2.08,0,0,0-.41-.48,1.83,1.83,0,0,0-.55-.32,2,2,0,0,0-.71-.12,2,2,0,0,0-1.73.85,2.72,2.72,0,0,0-.42.89,3.94,3.94,0,0,0-.14,1.06,4.21,4.21,0,0,0,.13,1,2.67,2.67,0,0,0,.4.9,2.08,2.08,0,0,0,.71.63,2.18,2.18,0,0,0,1.06.24,1.88,1.88,0,0,0,1-.23,2,2,0,0,0,.66-.63,2.91,2.91,0,0,0,.38-.89A4.9,4.9,0,0,0,189.8,109.47Z"/><path class="cls-2" d="M193.3,103.67v9.08h-.8v-9.08Z"/><path class="cls-2" d="M198.08,106a2.71,2.71,0,0,1,1.3.29,2.6,2.6,0,0,1,.9.79,3.44,3.44,0,0,1,.52,1.13,5.22,5.22,0,0,1,.17,1.34v.13h-5.05a3.58,3.58,0,0,0,.13.94,2.58,2.58,0,0,0,.39.83,2,2,0,0,0,.66.59,1.92,1.92,0,0,0,.95.22,2.44,2.44,0,0,0,.7-.09,2,2,0,0,0,.56-.26,1.76,1.76,0,0,0,.42-.39A2.4,2.4,0,0,0,200,111h.79a3,3,0,0,1-.38.79,2.48,2.48,0,0,1-.59.6,2.68,2.68,0,0,1-.79.39,3.33,3.33,0,0,1-1,.14,2.94,2.94,0,0,1-1.3-.27,2.56,2.56,0,0,1-.91-.73,3.12,3.12,0,0,1-.54-1.1,5.13,5.13,0,0,1-.18-1.37,4.66,4.66,0,0,1,.18-1.28,3.37,3.37,0,0,1,.54-1.11,2.74,2.74,0,0,1,.92-.78A2.79,2.79,0,0,1,198.08,106Zm2.09,3a3,3,0,0,0-.16-.85,2.44,2.44,0,0,0-.41-.75,2.07,2.07,0,0,0-.65-.54,1.84,1.84,0,0,0-.88-.21,1.84,1.84,0,0,0-1.5.7,2.69,2.69,0,0,0-.42.75,4.32,4.32,0,0,0-.23.9Z"/><path class="cls-2" d="M208.37,103.67v9.08h-.74V111.5h0a2,2,0,0,1-.39.59,2.58,2.58,0,0,1-.56.46,2.8,2.8,0,0,1-.67.29,2.63,2.63,0,0,1-.72.1,2.8,2.8,0,0,1-1.28-.28,2.68,2.68,0,0,1-.92-.75,3.32,3.32,0,0,1-.56-1.11,4.68,4.68,0,0,1-.19-1.34,4.83,4.83,0,0,1,.17-1.29,3.31,3.31,0,0,1,.53-1.11,2.68,2.68,0,0,1,.92-.78,3,3,0,0,1,2-.2,2.56,2.56,0,0,1,.65.27,2.26,2.26,0,0,1,.54.45,2.07,2.07,0,0,1,.38.63h0v-3.77Zm-5.26,5.8a4.17,4.17,0,0,0,.05.65,3.7,3.7,0,0,0,.16.64,2.81,2.81,0,0,0,.28.58,2.15,2.15,0,0,0,.41.48,1.8,1.8,0,0,0,.55.32,2,2,0,0,0,.7.12,2.07,2.07,0,0,0,1.73-.84,2.66,2.66,0,0,0,.43-.89,4,4,0,0,0,.14-1.06,4,4,0,0,0-.13-1,2.73,2.73,0,0,0-.41-.9,2.06,2.06,0,0,0-1.76-.87,1.94,1.94,0,0,0-.68.11,1.8,1.8,0,0,0-.54.31,2.14,2.14,0,0,0-.41.46,2.81,2.81,0,0,0-.29.58,3.51,3.51,0,0,0-.17.65A4.26,4.26,0,0,0,203.12,109.47Z"/></g><path class="cls-12" d="M13.49,6.65a4.89,4.89,0,0,1,1.41.2,4.06,4.06,0,0,1,1.19.57,3.34,3.34,0,0,1,1.36,2.09h-1a3,3,0,0,0-.4-.81A2.65,2.65,0,0,0,15.46,8a3.14,3.14,0,0,0-.88-.43,3.93,3.93,0,0,0-2.73.19,3.46,3.46,0,0,0-1.19,1,4.22,4.22,0,0,0-.72,1.4,5.68,5.68,0,0,0-.25,1.69,6.1,6.1,0,0,0,.1,1.09,5,5,0,0,0,.3,1,4.29,4.29,0,0,0,.52.91,3.42,3.42,0,0,0,.73.72,3.32,3.32,0,0,0,.94.48,3.77,3.77,0,0,0,1.17.17A3.27,3.27,0,0,0,14.69,16a3,3,0,0,0,1-.61,3.14,3.14,0,0,0,.65-.9,3.74,3.74,0,0,0,.34-1.08h1a4.75,4.75,0,0,1-.41,1.4A3.87,3.87,0,0,1,16.35,16a3.77,3.77,0,0,1-1.23.78,4.44,4.44,0,0,1-1.65.29,4.72,4.72,0,0,1-2-.4A4.27,4.27,0,0,1,10,15.55a4.89,4.89,0,0,1-.93-1.65,6.63,6.63,0,0,1,0-4A5,5,0,0,1,10,8.21a4.35,4.35,0,0,1,1.48-1.14A4.69,4.69,0,0,1,13.49,6.65Z"/><path class="cls-12" d="M24.77,16.83V12a2.57,2.57,0,0,0-.48-1.69,1.8,1.8,0,0,0-1.46-.57,2.38,2.38,0,0,0-1,.21,2.24,2.24,0,0,0-.75.56,2.5,2.5,0,0,0-.47.83,3.1,3.1,0,0,0-.16,1v4.48h-.94V6.24h.94V10.5h0a2.19,2.19,0,0,1,.4-.65,2.47,2.47,0,0,1,.58-.49,2.83,2.83,0,0,1,.71-.3A2.87,2.87,0,0,1,22.91,9a3.91,3.91,0,0,1,1.26.18,2.14,2.14,0,0,1,.87.54,2.18,2.18,0,0,1,.5.9,4.41,4.41,0,0,1,.16,1.26v5Z"/><path class="cls-12" d="M31.24,9a3.16,3.16,0,0,1,1.52.34,3,3,0,0,1,1,.92,4,4,0,0,1,.61,1.32,6.09,6.09,0,0,1,.2,1.56v.15H28.72a4.19,4.19,0,0,0,.15,1.1,3,3,0,0,0,.45,1,2.32,2.32,0,0,0,.77.69,2.23,2.23,0,0,0,1.11.26,2.85,2.85,0,0,0,.82-.11,2.35,2.35,0,0,0,.65-.3,2,2,0,0,0,.49-.45,2.83,2.83,0,0,0,.34-.57h.92a3.48,3.48,0,0,1-.45.92,2.89,2.89,0,0,1-.68.7,3.11,3.11,0,0,1-.92.45,3.89,3.89,0,0,1-1.16.16,3.43,3.43,0,0,1-1.51-.31,3,3,0,0,1-1.06-.85A3.63,3.63,0,0,1,28,14.61a6,6,0,0,1-.21-1.6,5.45,5.45,0,0,1,.21-1.5,3.92,3.92,0,0,1,.63-1.3A3.19,3.19,0,0,1,29.7,9.3,3.26,3.26,0,0,1,31.24,9Zm2.43,3.51a3.55,3.55,0,0,0-.18-1,2.84,2.84,0,0,0-.48-.88,2.41,2.41,0,0,0-.76-.63,2.15,2.15,0,0,0-1-.24,2.21,2.21,0,0,0-1,.22,2.24,2.24,0,0,0-.74.59,3.18,3.18,0,0,0-.49.87,5,5,0,0,0-.27,1Z"/><path class="cls-12" d="M39.72,9a4,4,0,0,1,1.13.15,2.94,2.94,0,0,1,.91.44,2.39,2.39,0,0,1,.65.71,2.71,2.71,0,0,1,.34,1h-.94a2,2,0,0,0-.26-.6,1.74,1.74,0,0,0-.44-.47,2,2,0,0,0-.62-.3,2.73,2.73,0,0,0-.79-.11,2.35,2.35,0,0,0-1.15.27,2.56,2.56,0,0,0-.84.73,3.39,3.39,0,0,0-.52,1A4.16,4.16,0,0,0,37,13a4.28,4.28,0,0,0,.16,1.17,3.36,3.36,0,0,0,.5,1,2.64,2.64,0,0,0,.83.76,2.28,2.28,0,0,0,1.17.29,2.25,2.25,0,0,0,.83-.15,2.22,2.22,0,0,0,.66-.39,2.11,2.11,0,0,0,.46-.57,2.19,2.19,0,0,0,.24-.67h.94a3.47,3.47,0,0,1-.34,1,2.9,2.9,0,0,1-.64.82,3,3,0,0,1-.93.56,3.36,3.36,0,0,1-1.21.21,3.5,3.5,0,0,1-1.51-.31,3.32,3.32,0,0,1-1.13-.86,3.82,3.82,0,0,1-.71-1.29A5,5,0,0,1,36.11,13a5.06,5.06,0,0,1,.23-1.52A3.87,3.87,0,0,1,37,10.2a3.39,3.39,0,0,1,1.13-.9A3.47,3.47,0,0,1,39.72,9Z"/><path class="cls-12" d="M45.83,6.24v6.64l4.25-3.71h1.25L48.07,12l3.47,4.83H50.38l-3-4.16-1.52,1.26v2.91H44.9V6.24Z"/><path class="cls-12" d="M60,13a5.56,5.56,0,0,1-.2,1.49,3.93,3.93,0,0,1-.62,1.3,3.14,3.14,0,0,1-1.07.92,3.27,3.27,0,0,1-1.55.35,3.39,3.39,0,0,1-.84-.11,3,3,0,0,1-.77-.31,2.73,2.73,0,0,1-.65-.52,2.53,2.53,0,0,1-.46-.74h0v1.46H53V6.24h.94v4.4h0a2.3,2.3,0,0,1,.42-.71A2.63,2.63,0,0,1,55,9.39a2.9,2.9,0,0,1,.77-.32,3.54,3.54,0,0,1,2.36.22,3.07,3.07,0,0,1,1.07.88,3.91,3.91,0,0,1,.64,1.29A5.88,5.88,0,0,1,60,13Zm-.94,0a5.08,5.08,0,0,0-.06-.76,4,4,0,0,0-.18-.75,3.34,3.34,0,0,0-.33-.68,2.42,2.42,0,0,0-.48-.56,2.14,2.14,0,0,0-.65-.38,2.33,2.33,0,0,0-.82-.14A2.46,2.46,0,0,0,55.4,10a2.48,2.48,0,0,0-.83.72,3.18,3.18,0,0,0-.5,1A4.59,4.59,0,0,0,53.91,13a4.93,4.93,0,0,0,.15,1.2,3.12,3.12,0,0,0,.47,1,2.43,2.43,0,0,0,.83.74,2.54,2.54,0,0,0,1.24.28A2.19,2.19,0,0,0,57.72,16a2.3,2.3,0,0,0,.77-.73,3.39,3.39,0,0,0,.45-1A5.68,5.68,0,0,0,59.1,13Z"/><path class="cls-12" d="M69,13a5,5,0,0,1-.24,1.53,3.88,3.88,0,0,1-.71,1.31,3.38,3.38,0,0,1-2.67,1.21,3.31,3.31,0,0,1-2.62-1.14,4.26,4.26,0,0,1-1-2.91,4.25,4.25,0,0,1,1-2.91,3.6,3.6,0,0,1,5.26,0A4.26,4.26,0,0,1,69,13Zm-.94,0a4.45,4.45,0,0,0-.16-1.16,3.28,3.28,0,0,0-.49-1,2.62,2.62,0,0,0-.84-.76,2.39,2.39,0,0,0-1.21-.29,2.3,2.3,0,0,0-1.15.28,2.61,2.61,0,0,0-.84.74,3.31,3.31,0,0,0-.51,1A4.25,4.25,0,0,0,62.7,13a4.19,4.19,0,0,0,.17,1.16,3.48,3.48,0,0,0,.5,1,2.62,2.62,0,0,0,.83.76,2.5,2.5,0,0,0,2.32,0,2.72,2.72,0,0,0,.84-.73,3.28,3.28,0,0,0,.52-1A4.15,4.15,0,0,0,68.06,13Z"/><path class="cls-12" d="M71.29,9.18l2.18,2.91L75.6,9.18h1.17L74,12.84l3,4H75.81L73.4,13.61l-2.35,3.22H69.89l3-4L70.12,9.18Z"/></svg>