<svg id="Layer_1" data-name="Layer 1" xmlns="http://www.w3.org/2000/svg" viewBox="0 0 750 283"><defs><style>.cls-1{fill:#fafafa;}.cls-2{fill:#464646;}.cls-3{fill:none;stroke:#d2d2d2;stroke-miterlimit:10;}.cls-4{fill:#a0a0a0;}</style></defs><title>Artboard 6</title><rect class="cls-1" y="1" width="750" height="140"/><rect class="cls-1" y="142" width="750" height="140"/><path class="cls-2" d="M34.49,68V48.5h-.07L27.53,68H23.86L17,48.6h-.07V68h-4V43.75h6.21l6.69,18.91h0l6.51-18.91H38.5V68Z"/><path class="cls-2" d="M61.93,58.69a11.6,11.6,0,0,1-.64,3.92,8.78,8.78,0,0,1-1.92,3.14,8.39,8.39,0,0,1-2.95,2.06,9.9,9.9,0,0,1-3.86.71,8.85,8.85,0,0,1-6.74-2.72,10,10,0,0,1-2.57-7.11,10,10,0,0,1,2.54-7.11,8.79,8.79,0,0,1,6.77-2.72,8.93,8.93,0,0,1,6.81,2.72A10,10,0,0,1,61.93,58.69Zm-4.1,0a10.16,10.16,0,0,0-.32-2.61,6.27,6.27,0,0,0-1-2.12,4.76,4.76,0,0,0-1.65-1.42A5,5,0,0,0,52.53,52a4.84,4.84,0,0,0-2.19.48,4.59,4.59,0,0,0-1.63,1.36,6.34,6.34,0,0,0-1,2.11,10.74,10.74,0,0,0,0,5.4,6.2,6.2,0,0,0,1,2.11,4.72,4.72,0,0,0,1.64,1.38,4.83,4.83,0,0,0,2.23.5,4.88,4.88,0,0,0,2.24-.5,4.75,4.75,0,0,0,1.65-1.39,6.34,6.34,0,0,0,1-2.11A9.67,9.67,0,0,0,57.83,58.69Z"/><path class="cls-2" d="M75.76,68.13l-.8,0-.82,0H73.4A13.08,13.08,0,0,1,71.32,68a4.47,4.47,0,0,1-1.69-.61,3.17,3.17,0,0,1-1.14-1.27A4.72,4.72,0,0,1,68.07,64V52.25H64.42V49.36h3.65V43.78h4.1v5.58h4.25v2.89H72.17V62.79a2.34,2.34,0,0,0,.47,1.64,2.28,2.28,0,0,0,1.69.5h.48l.57,0,.56,0,.47,0v3.24A6.2,6.2,0,0,1,75.76,68.13Z"/><path class="cls-2" d="M98,58.69a11.6,11.6,0,0,1-.64,3.92,8.78,8.78,0,0,1-1.92,3.14,8.39,8.39,0,0,1-2.95,2.06,9.9,9.9,0,0,1-3.86.71,8.85,8.85,0,0,1-6.74-2.72,10,10,0,0,1-2.57-7.11,10,10,0,0,1,2.54-7.11,8.79,8.79,0,0,1,6.77-2.72,8.93,8.93,0,0,1,6.81,2.72A10,10,0,0,1,98,58.69Zm-4.1,0a10.16,10.16,0,0,0-.32-2.61,6.27,6.27,0,0,0-1-2.12A4.76,4.76,0,0,0,91,52.54,5,5,0,0,0,88.64,52a4.84,4.84,0,0,0-2.19.48,4.59,4.59,0,0,0-1.63,1.36,6.34,6.34,0,0,0-1,2.11,10.74,10.74,0,0,0,0,5.4,6.2,6.2,0,0,0,1,2.11,4.72,4.72,0,0,0,1.64,1.38,4.83,4.83,0,0,0,2.23.5,4.88,4.88,0,0,0,2.24-.5,4.75,4.75,0,0,0,1.65-1.39,6.34,6.34,0,0,0,1-2.11A9.67,9.67,0,0,0,93.94,58.69Z"/><path class="cls-2" d="M102.6,68V49.36h3.87v3.79h.07A6.79,6.79,0,0,1,109,50.08,6.32,6.32,0,0,1,112.66,49l.61,0a2.92,2.92,0,0,1,.57.09v3.85a5.06,5.06,0,0,0-.71-.09l-.8,0a5.22,5.22,0,0,0-4.2,1.71A6.7,6.7,0,0,0,106.69,59v9Z"/><path class="cls-2" d="M136.67,48.86a9.21,9.21,0,0,1,3.11.46,5.13,5.13,0,0,1,2.11,1.38,5.53,5.53,0,0,1,1.2,2.28,12.14,12.14,0,0,1,.37,3.18V68h-4.08V56.93a6,6,0,0,0-.9-3.59,3.38,3.38,0,0,0-2.91-1.21,4.19,4.19,0,0,0-3.49,1.46,6.47,6.47,0,0,0-1.16,4.12V68h-4.08V49.36h3.92v2.82h.1a6.07,6.07,0,0,1,1-1.41,6.33,6.33,0,0,1,1.36-1,6.63,6.63,0,0,1,1.61-.65A7.1,7.1,0,0,1,136.67,48.86Z"/><path class="cls-2" d="M161.59,68V65.13h-.1a6.35,6.35,0,0,1-1.11,1.46A6.51,6.51,0,0,1,159,67.65a7.06,7.06,0,0,1-1.64.65,7.2,7.2,0,0,1-1.8.22q-3.42,0-5-1.78t-1.63-5.51V49.36h4.08V60.57a8.16,8.16,0,0,0,.22,2,3.87,3.87,0,0,0,.68,1.46,3,3,0,0,0,1.2.91,5.16,5.16,0,0,0,3.86-.12,3.88,3.88,0,0,0,1.42-1.22,5.28,5.28,0,0,0,.81-1.88,10.54,10.54,0,0,0,.26-2.41V49.36h4.08V68Z"/><path class="cls-2" d="M194.34,68V56.53a9.75,9.75,0,0,0-.15-1.76,3.58,3.58,0,0,0-.55-1.39,2.71,2.71,0,0,0-1.1-.91,4.19,4.19,0,0,0-1.79-.33,3.52,3.52,0,0,0-3,1.34,6.48,6.48,0,0,0-1,3.92V68h-4.1V56.07a4.66,4.66,0,0,0-.79-2.95,3.11,3.11,0,0,0-2.58-1,3.79,3.79,0,0,0-3.05,1.36,5.65,5.65,0,0,0-1.15,3.7V68H171V49.36h3.85v2.76h.07a6.56,6.56,0,0,1,5.84-3.25,6.43,6.43,0,0,1,3.41.84,4.84,4.84,0,0,1,2,2.45,7,7,0,0,1,2.47-2.45,6.25,6.25,0,0,1,9.84,5.6V68Z"/><path class="cls-2" d="M222.15,58.68a13.75,13.75,0,0,1-.48,3.63,9.85,9.85,0,0,1-1.47,3.15,7.52,7.52,0,0,1-2.49,2.22,7.13,7.13,0,0,1-3.53.84,8.31,8.31,0,0,1-3.84-.85,5.38,5.38,0,0,1-2.45-2.47h-.07V68H204V42.26H208v9.83h.08a5.34,5.34,0,0,1,1-1.34,6.13,6.13,0,0,1,1.42-1,7.6,7.6,0,0,1,1.72-.64,8.09,8.09,0,0,1,1.92-.22,7.14,7.14,0,0,1,3.52.83,7.53,7.53,0,0,1,2.48,2.2A9.65,9.65,0,0,1,221.67,55,13.81,13.81,0,0,1,222.15,58.68Zm-4.1,0a10.61,10.61,0,0,0-.27-2.32,7.14,7.14,0,0,0-.85-2.16,4.87,4.87,0,0,0-1.54-1.59A4.26,4.26,0,0,0,213,52a4.47,4.47,0,0,0-2.33.58,4.84,4.84,0,0,0-1.59,1.52,6.77,6.77,0,0,0-.9,2.13,10.29,10.29,0,0,0-.29,2.44A10.42,10.42,0,0,0,208.2,61a6.71,6.71,0,0,0,.89,2.14,5,5,0,0,0,1.59,1.56,4.46,4.46,0,0,0,2.39.61,4.22,4.22,0,0,0,2.27-.58,4.79,4.79,0,0,0,1.54-1.52,6.88,6.88,0,0,0,.88-2.13A11.19,11.19,0,0,0,218.05,58.69Z"/><path class="cls-2" d="M234.79,48.86a8.52,8.52,0,0,1,3.81.81,7.9,7.9,0,0,1,2.73,2.18A9.45,9.45,0,0,1,243,55.07a13.47,13.47,0,0,1,.55,3.88v.75H229.77a7.83,7.83,0,0,0,.38,2.3,5.39,5.39,0,0,0,1,1.78,4.38,4.38,0,0,0,1.53,1.16,4.8,4.8,0,0,0,2,.42,5.39,5.39,0,0,0,2.76-.65A4.8,4.8,0,0,0,239.2,63h3.87a8.69,8.69,0,0,1-1.28,2.3A8,8,0,0,1,239.92,67a8.52,8.52,0,0,1-2.41,1.1,10.35,10.35,0,0,1-2.87.38,9.28,9.28,0,0,1-3.76-.73,8,8,0,0,1-2.82-2,9,9,0,0,1-1.77-3.1,12.2,12.2,0,0,1-.61-4,11.47,11.47,0,0,1,.61-3.76,9.34,9.34,0,0,1,1.78-3.13,8.6,8.6,0,0,1,2.86-2.14A8.94,8.94,0,0,1,234.79,48.86Zm4.63,8.07a7.85,7.85,0,0,0-.46-2,4.89,4.89,0,0,0-.94-1.55,4.05,4.05,0,0,0-1.43-1,5.4,5.4,0,0,0-3.88,0,4.28,4.28,0,0,0-1.46,1,5.08,5.08,0,0,0-1,1.55,7.19,7.19,0,0,0-.49,2Z"/><path class="cls-2" d="M247.78,68V49.36h3.87v3.79h.07a6.79,6.79,0,0,1,2.47-3.07A6.32,6.32,0,0,1,257.84,49l.61,0a2.92,2.92,0,0,1,.57.09v3.85a5.06,5.06,0,0,0-.71-.09l-.8,0a5.22,5.22,0,0,0-4.2,1.71A6.7,6.7,0,0,0,251.87,59v9Z"/><path class="cls-2" d="M279.06,68V51.35h-6.23V48.42a16.86,16.86,0,0,0,2.54-.19,6.69,6.69,0,0,0,1.78-.52A4.45,4.45,0,0,0,279,46.14a6.27,6.27,0,0,0,.89-2.52H283V68Z"/><path class="cls-2" d="M26.2,91.73a5.07,5.07,0,0,1-1.51,3.9,5.51,5.51,0,0,1-3.9,1.4H14.21v8H12.44V86.43h8.35a5.49,5.49,0,0,1,3.9,1.41A5,5,0,0,1,26.2,91.73Zm-1.76,0a3.63,3.63,0,0,0-1.07-2.8,4.58,4.58,0,0,0-3.22-1H14.21v7.59H20.4a4.27,4.27,0,0,0,2.92-1A3.57,3.57,0,0,0,24.43,91.73Z"/><path class="cls-2" d="M31.4,85.31V105H29.67V85.31Z"/><path class="cls-2" d="M48.47,104.89a5.11,5.11,0,0,1-.58.08l-.53,0a3,3,0,0,1-1-.13,1.41,1.41,0,0,1-.63-.43,1.77,1.77,0,0,1-.36-.77,5.28,5.28,0,0,1-.11-1.15h-.06A6.59,6.59,0,0,1,43,104.77a6,6,0,0,1-2.93.63,5.33,5.33,0,0,1-3.47-1.08,3.79,3.79,0,0,1-1.31-3.1,3.59,3.59,0,0,1,1.42-3.1q1.45-1.05,6.41-1.49a4.31,4.31,0,0,0,1-.18,1.63,1.63,0,0,0,.62-.35,1.3,1.3,0,0,0,.34-.57,2.77,2.77,0,0,0,.11-.83,2.69,2.69,0,0,0-.88-2.18,4.38,4.38,0,0,0-2.84-.74,5.62,5.62,0,0,0-1.57.2,3.56,3.56,0,0,0-1.15.55,2.44,2.44,0,0,0-.72.84,2.65,2.65,0,0,0-.29,1.06H36a4.31,4.31,0,0,1,.48-1.68,3.85,3.85,0,0,1,1.11-1.29,5.27,5.27,0,0,1,1.75-.83,8.75,8.75,0,0,1,2.37-.29,5.73,5.73,0,0,1,4,1.16,4.24,4.24,0,0,1,1.27,3.29v7.72a1,1,0,0,0,.24.71,1,1,0,0,0,.77.27,1.51,1.51,0,0,0,.55-.1Zm-3.3-7.68h-.05q-.25.48-1.66.67L42,98.09l-1.59.27a5.79,5.79,0,0,0-2.53.95,2.17,2.17,0,0,0-.85,1.82,2.52,2.52,0,0,0,.94,2,3.47,3.47,0,0,0,2.23.76,5.12,5.12,0,0,0,3.54-1.26,4,4,0,0,0,1.41-3.12Z"/><path class="cls-2" d="M57.9,90.36a7.24,7.24,0,0,1,2.35.34,4,4,0,0,1,1.61,1,4,4,0,0,1,.93,1.67,8.23,8.23,0,0,1,.3,2.34V105H61.35V96a4.77,4.77,0,0,0-.89-3.13,3.34,3.34,0,0,0-2.72-1.06,4.47,4.47,0,0,0-1.86.38,4.06,4.06,0,0,0-1.41,1,4.67,4.67,0,0,0-.89,1.54,5.7,5.7,0,0,0-.31,1.91V105H51.54V90.77h1.74v2.46h.05A4.31,4.31,0,0,1,54.08,92a4.72,4.72,0,0,1,1.07-.9,5.05,5.05,0,0,1,1.3-.56A5.35,5.35,0,0,1,57.9,90.36Z"/><path class="cls-2" d="M73.52,105.12l-.49,0h-.94a6.55,6.55,0,0,1-1.47-.14,2.09,2.09,0,0,1-1-.49,1.94,1.94,0,0,1-.53-.93,5.72,5.72,0,0,1-.16-1.47V92.23H66.1V90.77H69V86.5H70.7v4.27h3.25v1.46H70.7v9.7a3.8,3.8,0,0,0,.06.73,1.39,1.39,0,0,0,.23.55,1.07,1.07,0,0,0,.46.36,1.89,1.89,0,0,0,.75.13H73l.49,0,.45,0v1.47Z"/><path class="cls-2" d="M98.13,105l-2.26-5.76H87.44L85.21,105H83.32l7.46-18.54h2L100,105ZM91.69,88.23h0L88,97.73h7.3Z"/><line class="cls-3" x1="750" y1="282.5" y2="282.5"/><line class="cls-3" x1="750" y1="0.5" y2="0.5"/><path class="cls-2" d="M34.49,209.24V189.75h-.07l-6.89,19.49H23.86L17,189.85h-.07v19.39h-4V185h6.21l6.69,18.91h0L32.33,185H38.5v24.24Z"/><path class="cls-2" d="M61.93,199.94a11.59,11.59,0,0,1-.64,3.92A8.78,8.78,0,0,1,59.37,207a8.4,8.4,0,0,1-2.95,2.06,9.92,9.92,0,0,1-3.86.71A8.84,8.84,0,0,1,45.83,207a11.15,11.15,0,0,1,0-14.21,8.79,8.79,0,0,1,6.77-2.72,8.93,8.93,0,0,1,6.81,2.72A10,10,0,0,1,61.93,199.94Zm-4.1,0a10.16,10.16,0,0,0-.32-2.61,6.27,6.27,0,0,0-1-2.12,4.76,4.76,0,0,0-1.65-1.42,5,5,0,0,0-2.34-.52,4.83,4.83,0,0,0-2.19.48,4.57,4.57,0,0,0-1.63,1.36,6.32,6.32,0,0,0-1,2.11,10.74,10.74,0,0,0,0,5.4,6.2,6.2,0,0,0,1,2.11,4.71,4.71,0,0,0,1.64,1.38,4.83,4.83,0,0,0,2.23.5,4.88,4.88,0,0,0,2.24-.5,4.75,4.75,0,0,0,1.65-1.39,6.34,6.34,0,0,0,1-2.11A9.67,9.67,0,0,0,57.83,199.94Z"/><path class="cls-2" d="M75.76,209.38l-.8,0-.82,0H73.4a13,13,0,0,1-2.08-.16,4.47,4.47,0,0,1-1.69-.61,3.16,3.16,0,0,1-1.14-1.27,4.72,4.72,0,0,1-.42-2.14V193.5H64.42v-2.89h3.65V185h4.1v5.58h4.25v2.89H72.17V204a2.34,2.34,0,0,0,.47,1.64,2.28,2.28,0,0,0,1.69.5h.48l.57,0,.56,0,.47,0v3.24A6.2,6.2,0,0,1,75.76,209.38Z"/><path class="cls-2" d="M98,199.94a11.59,11.59,0,0,1-.64,3.92A8.78,8.78,0,0,1,95.48,207a8.4,8.4,0,0,1-2.95,2.06,9.92,9.92,0,0,1-3.86.71A8.84,8.84,0,0,1,81.93,207a11.15,11.15,0,0,1,0-14.21,8.79,8.79,0,0,1,6.77-2.72,8.93,8.93,0,0,1,6.81,2.72A10,10,0,0,1,98,199.94Zm-4.1,0a10.16,10.16,0,0,0-.32-2.61,6.27,6.27,0,0,0-1-2.12A4.76,4.76,0,0,0,91,193.79a5,5,0,0,0-2.34-.52,4.83,4.83,0,0,0-2.19.48,4.57,4.57,0,0,0-1.63,1.36,6.32,6.32,0,0,0-1,2.11,10.74,10.74,0,0,0,0,5.4,6.2,6.2,0,0,0,1,2.11,4.71,4.71,0,0,0,1.64,1.38,4.83,4.83,0,0,0,2.23.5,4.88,4.88,0,0,0,2.24-.5,4.75,4.75,0,0,0,1.65-1.39,6.34,6.34,0,0,0,1-2.11A9.67,9.67,0,0,0,93.94,199.94Z"/><path class="cls-2" d="M102.6,209.24V190.61h3.87v3.79h.07a6.78,6.78,0,0,1,2.47-3.07,6.32,6.32,0,0,1,3.65-1.11l.61,0a2.84,2.84,0,0,1,.57.09v3.85a4.91,4.91,0,0,0-.71-.09l-.8,0a5.22,5.22,0,0,0-4.2,1.71,6.7,6.7,0,0,0-1.44,4.45v9Z"/><path class="cls-2" d="M136.67,190.12a9.23,9.23,0,0,1,3.11.46,5.12,5.12,0,0,1,2.11,1.38,5.52,5.52,0,0,1,1.2,2.28,12.14,12.14,0,0,1,.37,3.18v11.82h-4.08V198.18a6,6,0,0,0-.9-3.59,3.38,3.38,0,0,0-2.91-1.21,4.18,4.18,0,0,0-3.49,1.46,6.46,6.46,0,0,0-1.16,4.12v10.28h-4.08V190.61h3.92v2.82h.1a6,6,0,0,1,1-1.41,6.31,6.31,0,0,1,1.36-1,6.63,6.63,0,0,1,1.61-.65A7.1,7.1,0,0,1,136.67,190.12Z"/><path class="cls-2" d="M161.59,209.24v-2.86h-.1a6.33,6.33,0,0,1-1.11,1.46A6.48,6.48,0,0,1,159,208.9a7.06,7.06,0,0,1-1.64.65,7.2,7.2,0,0,1-1.8.22q-3.42,0-5-1.78t-1.63-5.51V190.61h4.08v11.21a8.16,8.16,0,0,0,.22,2,3.87,3.87,0,0,0,.68,1.46,3,3,0,0,0,1.2.91,5.17,5.17,0,0,0,3.86-.12,3.87,3.87,0,0,0,1.42-1.22,5.27,5.27,0,0,0,.81-1.87,10.54,10.54,0,0,0,.26-2.41v-9.93h4.08v18.63Z"/><path class="cls-2" d="M194.34,209.24V197.79a9.75,9.75,0,0,0-.15-1.76,3.59,3.59,0,0,0-.55-1.39,2.7,2.7,0,0,0-1.1-.91,4.18,4.18,0,0,0-1.79-.33,3.52,3.52,0,0,0-3,1.34,6.48,6.48,0,0,0-1,3.92v10.59h-4.1V197.32a4.66,4.66,0,0,0-.79-2.95,3.11,3.11,0,0,0-2.58-1,3.79,3.79,0,0,0-3.05,1.36,5.65,5.65,0,0,0-1.15,3.7v10.79H171V190.61h3.85v2.76h.07a6.56,6.56,0,0,1,5.84-3.25,6.43,6.43,0,0,1,3.41.84,4.85,4.85,0,0,1,2,2.45,7,7,0,0,1,2.47-2.45,6.25,6.25,0,0,1,9.84,5.6v12.68Z"/><path class="cls-2" d="M222.15,199.93a13.75,13.75,0,0,1-.48,3.63,9.85,9.85,0,0,1-1.47,3.15,7.52,7.52,0,0,1-2.49,2.22,7.13,7.13,0,0,1-3.53.84,8.31,8.31,0,0,1-3.84-.85,5.38,5.38,0,0,1-2.45-2.47h-.07v2.79H204V183.51H208v9.83h.08a5.33,5.33,0,0,1,1-1.34,6.14,6.14,0,0,1,1.42-1,7.65,7.65,0,0,1,1.72-.64,8.09,8.09,0,0,1,1.92-.22,7.14,7.14,0,0,1,3.52.83,7.55,7.55,0,0,1,2.48,2.2,9.65,9.65,0,0,1,1.47,3.14A13.82,13.82,0,0,1,222.15,199.93Zm-4.1,0a10.61,10.61,0,0,0-.27-2.32,7.14,7.14,0,0,0-.85-2.16,4.86,4.86,0,0,0-1.54-1.58,4.25,4.25,0,0,0-2.35-.62,4.46,4.46,0,0,0-2.33.58,4.83,4.83,0,0,0-1.59,1.52,6.78,6.78,0,0,0-.9,2.13,10.28,10.28,0,0,0-.29,2.44,10.42,10.42,0,0,0,.27,2.35,6.7,6.7,0,0,0,.89,2.14,5,5,0,0,0,1.59,1.56,4.46,4.46,0,0,0,2.39.61,4.21,4.21,0,0,0,2.27-.58,4.78,4.78,0,0,0,1.54-1.52,6.88,6.88,0,0,0,.88-2.13A11.18,11.18,0,0,0,218.05,199.94Z"/><path class="cls-2" d="M234.79,190.12a8.54,8.54,0,0,1,3.81.81,7.9,7.9,0,0,1,2.73,2.18,9.46,9.46,0,0,1,1.64,3.21,13.48,13.48,0,0,1,.55,3.88v.75H229.77a7.83,7.83,0,0,0,.38,2.3,5.38,5.38,0,0,0,1,1.78,4.37,4.37,0,0,0,1.53,1.16,4.8,4.8,0,0,0,2,.42,5.39,5.39,0,0,0,2.76-.65,4.81,4.81,0,0,0,1.73-1.71h3.87a8.7,8.7,0,0,1-1.28,2.3,8,8,0,0,1-1.88,1.74,8.55,8.55,0,0,1-2.41,1.1,10.38,10.38,0,0,1-2.87.38,9.28,9.28,0,0,1-3.76-.73,8,8,0,0,1-2.82-2,9,9,0,0,1-1.77-3.1,12.19,12.19,0,0,1-.61-4,11.47,11.47,0,0,1,.61-3.76,9.34,9.34,0,0,1,1.78-3.13,8.6,8.6,0,0,1,2.86-2.14A8.94,8.94,0,0,1,234.79,190.12Zm4.63,8.07a7.85,7.85,0,0,0-.46-2,4.89,4.89,0,0,0-.94-1.55,4.05,4.05,0,0,0-1.43-1,4.9,4.9,0,0,0-1.93-.36,5,5,0,0,0-2,.37,4.28,4.28,0,0,0-1.46,1,5.08,5.08,0,0,0-1,1.55,7.19,7.19,0,0,0-.49,2Z"/><path class="cls-2" d="M247.78,209.24V190.61h3.87v3.79h.07a6.78,6.78,0,0,1,2.47-3.07,6.32,6.32,0,0,1,3.65-1.11l.61,0a2.84,2.84,0,0,1,.57.09v3.85a4.91,4.91,0,0,0-.71-.09l-.8,0a5.22,5.22,0,0,0-4.2,1.71,6.7,6.7,0,0,0-1.44,4.45v9Z"/><path class="cls-2" d="M280,184.5a8.35,8.35,0,0,1,5.76,2,6.31,6.31,0,0,1,1.69,2.35,7.84,7.84,0,0,1,.55,3,8,8,0,0,1-1.3,4.38,16.5,16.5,0,0,1-5,4.35q-1.41.86-2.42,1.6a19.77,19.77,0,0,0-1.64,1.32,7.93,7.93,0,0,0-1.76,2.31h12.27v3.44H270.86a9.49,9.49,0,0,1,1.11-4.5,10.56,10.56,0,0,1,1.44-1.94,15.78,15.78,0,0,1,2.1-1.87l2.68-2,3.16-2.36a7.65,7.65,0,0,0,2-2.13,4.56,4.56,0,0,0,.64-2.35,4.76,4.76,0,0,0-.29-1.68,3.77,3.77,0,0,0-.87-1.35,4.09,4.09,0,0,0-1.32-.86,5,5,0,0,0-3.71.1,4.15,4.15,0,0,0-1.4,1.07,4.48,4.48,0,0,0-.83,1.51,5.57,5.57,0,0,0-.27,1.73V193h-3.79v-.41a8.88,8.88,0,0,1,.58-3.26,7.19,7.19,0,0,1,1.68-2.56,7.67,7.67,0,0,1,2.66-1.67A9.78,9.78,0,0,1,280,184.5Z"/><path class="cls-2" d="M26.2,233a5.07,5.07,0,0,1-1.51,3.9,5.52,5.52,0,0,1-3.9,1.4H14.21v8H12.44V227.68h8.35a5.49,5.49,0,0,1,3.9,1.41A5,5,0,0,1,26.2,233Zm-1.76,0a3.63,3.63,0,0,0-1.07-2.8,4.58,4.58,0,0,0-3.22-1H14.21v7.59H20.4a4.27,4.27,0,0,0,2.92-1A3.57,3.57,0,0,0,24.43,233Z"/><path class="cls-2" d="M31.4,226.56v19.68H29.67V226.56Z"/><path class="cls-2" d="M48.47,246.14a5.11,5.11,0,0,1-.58.08l-.53,0a3,3,0,0,1-1-.13,1.41,1.41,0,0,1-.63-.43,1.77,1.77,0,0,1-.36-.77,5.28,5.28,0,0,1-.11-1.15h-.06A6.61,6.61,0,0,1,43,246a6,6,0,0,1-2.93.63,5.33,5.33,0,0,1-3.47-1.08,3.79,3.79,0,0,1-1.31-3.1,3.59,3.59,0,0,1,1.42-3.1q1.45-1.05,6.41-1.48a4.42,4.42,0,0,0,1-.18,1.63,1.63,0,0,0,.62-.35,1.29,1.29,0,0,0,.34-.56,2.78,2.78,0,0,0,.11-.83,2.69,2.69,0,0,0-.88-2.18,4.38,4.38,0,0,0-2.84-.74,5.66,5.66,0,0,0-1.57.2,3.56,3.56,0,0,0-1.15.55,2.45,2.45,0,0,0-.72.84,2.65,2.65,0,0,0-.29,1.06H36a4.31,4.31,0,0,1,.48-1.68,3.85,3.85,0,0,1,1.11-1.29,5.25,5.25,0,0,1,1.75-.82,8.71,8.71,0,0,1,2.37-.29,5.73,5.73,0,0,1,4,1.16,4.24,4.24,0,0,1,1.27,3.29v7.72a1,1,0,0,0,.24.71,1,1,0,0,0,.77.27,1.51,1.51,0,0,0,.55-.1Zm-3.3-7.68h-.05q-.25.48-1.66.67l-1.44.22-1.59.27a5.79,5.79,0,0,0-2.53.95,2.17,2.17,0,0,0-.85,1.82,2.52,2.52,0,0,0,.94,2,3.47,3.47,0,0,0,2.23.76,5.12,5.12,0,0,0,3.54-1.26,4,4,0,0,0,1.41-3.12Z"/><path class="cls-2" d="M57.9,231.61a7.27,7.27,0,0,1,2.35.34,4,4,0,0,1,1.61,1,4,4,0,0,1,.93,1.67,8.22,8.22,0,0,1,.3,2.34v9.28H61.35v-9a4.77,4.77,0,0,0-.89-3.13,3.34,3.34,0,0,0-2.72-1.06,4.47,4.47,0,0,0-1.86.38,4.07,4.07,0,0,0-1.41,1,4.66,4.66,0,0,0-.89,1.54,5.71,5.71,0,0,0-.31,1.91v8.31H51.54V232h1.74v2.46h.05a4.31,4.31,0,0,1,.75-1.21,4.73,4.73,0,0,1,1.07-.9,5.05,5.05,0,0,1,1.3-.56A5.39,5.39,0,0,1,57.9,231.61Z"/><path class="cls-2" d="M73.52,246.37l-.49,0h-.94a6.54,6.54,0,0,1-1.47-.14,2.09,2.09,0,0,1-1-.49,1.94,1.94,0,0,1-.53-.93,5.72,5.72,0,0,1-.16-1.47v-9.89H66.1V232H69v-4.27H70.7V232h3.25v1.46H70.7v9.7a3.8,3.8,0,0,0,.06.73,1.39,1.39,0,0,0,.23.55,1.07,1.07,0,0,0,.46.36,1.89,1.89,0,0,0,.75.13H73l.49,0,.45,0v1.47Z"/><path class="cls-2" d="M99.92,241a4.72,4.72,0,0,1-1.69,3.94,7.61,7.61,0,0,1-4.82,1.34h-8V227.68h8a10.49,10.49,0,0,1,2.22.23,5.35,5.35,0,0,1,1.86.76,3.92,3.92,0,0,1,1.28,1.4,4.4,4.4,0,0,1,.48,2.14,4.54,4.54,0,0,1-.22,1.4,4.1,4.1,0,0,1-1.64,2.18,4.28,4.28,0,0,1-1.36.6v.05a5,5,0,0,1,1.65.51,4,4,0,0,1,2,2.32A5.37,5.37,0,0,1,99.92,241Zm-2.46-8.3A3.14,3.14,0,0,0,96.39,230a5,5,0,0,0-3.15-.85H87.19v6.63h6.18a6.23,6.23,0,0,0,1.45-.17,4.06,4.06,0,0,0,1.29-.55,2.94,2.94,0,0,0,1.35-2.44Zm.7,8.25a3.07,3.07,0,0,0-1.27-2.68,6.25,6.25,0,0,0-3.63-.9H87.19v7.4H93.4a5.71,5.71,0,0,0,3.55-.94A3.42,3.42,0,0,0,98.16,240.91Z"/><line class="cls-3" x1="750" y1="141.5" y2="141.5"/><polygon class="cls-4" points="701.87 201.17 714.5 212.75 701.87 224.32 699.5 221.74 709.31 212.75 699.5 203.75 701.87 201.17"/><polygon class="cls-4" points="701.87 60.17 714.5 71.75 701.87 83.32 699.5 80.74 709.31 71.75 699.5 62.75 701.87 60.17"/></svg>