<svg id="Layer_1" data-name="Layer 1" xmlns="http://www.w3.org/2000/svg" viewBox="0 0 750 313.13"><defs><style>.cls-1{fill:#fff;}.cls-2{fill:none;stroke:#267bbd;stroke-miterlimit:10;stroke-width:2px;}.cls-3{fill:#0096e0;}.cls-4{fill:#dcdcdc;opacity:0.6;}.cls-5{fill:#464646;}</style></defs><title>Artboard 20</title><rect class="cls-1" width="750" height="313.13"/><line class="cls-2" x1="375" y1="312.13" x2="750" y2="312.13"/><rect class="cls-3" x="374.78" y="195.13" width="375.22" height="118"/><rect class="cls-4" y="195.13" width="375.23" height="118"/><path class="cls-1" d="M521.57,257.21a6.7,6.7,0,0,1-.82,3.41,6.82,6.82,0,0,1-2.21,2.32,9.92,9.92,0,0,1-3.2,1.33,16.68,16.68,0,0,1-3.79.42,14.65,14.65,0,0,1-3.87-.49,9.55,9.55,0,0,1-3.12-1.45,7,7,0,0,1-2.09-2.37,6.72,6.72,0,0,1-.76-3.25v-.28h4.17V257a3.79,3.79,0,0,0,.46,1.91,4,4,0,0,0,1.28,1.35,6,6,0,0,0,1.9.81,10.26,10.26,0,0,0,4.49,0,5.83,5.83,0,0,0,1.78-.71,3.7,3.7,0,0,0,1.2-1.17,3,3,0,0,0,.44-1.64,2.63,2.63,0,0,0-1.05-2.15,9.22,9.22,0,0,0-3.3-1.44l-5.21-1.38a8,8,0,0,1-4.07-2.2,5.69,5.69,0,0,1-1.33-3.94,6.35,6.35,0,0,1,.73-3.1,6.7,6.7,0,0,1,2-2.24,9.15,9.15,0,0,1,2.92-1.37,13.58,13.58,0,0,1,6.89,0,9.14,9.14,0,0,1,2.88,1.29,6.57,6.57,0,0,1,2,2.18,6.38,6.38,0,0,1,.79,3.1h-4.13a3.54,3.54,0,0,0-.45-1.47,3.59,3.59,0,0,0-1-1.15,5.11,5.11,0,0,0-1.55-.74,7,7,0,0,0-2-.27,8.24,8.24,0,0,0-1.88.21,5,5,0,0,0-1.56.64A3.28,3.28,0,0,0,507,244.6a3,3,0,0,0-.39,1.55,2.8,2.8,0,0,0,.2,1.11,2.26,2.26,0,0,0,.56.8,3,3,0,0,0,.88.55,8.51,8.51,0,0,0,1.15.38l5.73,1.51a10.43,10.43,0,0,1,4.82,2.46A5.73,5.73,0,0,1,521.57,257.21Z"/><path class="cls-1" d="M538.22,264.13v-2.86h-.1a6.33,6.33,0,0,1-1.11,1.46,6.48,6.48,0,0,1-1.42,1.05,7.06,7.06,0,0,1-1.64.65,7.2,7.2,0,0,1-1.8.22q-3.42,0-5-1.78t-1.63-5.51V245.51h4.08v11.21a8.16,8.16,0,0,0,.22,2,3.87,3.87,0,0,0,.68,1.46,3,3,0,0,0,1.2.91,5.17,5.17,0,0,0,3.86-.12,3.87,3.87,0,0,0,1.42-1.22,5.27,5.27,0,0,0,.81-1.87,10.54,10.54,0,0,0,.26-2.41v-9.93h4.08v18.63Z"/><path class="cls-1" d="M565.68,254.82a13.75,13.75,0,0,1-.48,3.63,9.85,9.85,0,0,1-1.47,3.15,7.52,7.52,0,0,1-2.49,2.22,7.13,7.13,0,0,1-3.53.84,8.31,8.31,0,0,1-3.84-.85,5.38,5.38,0,0,1-2.45-2.47h-.07v2.79h-3.87V238.4h4.08v9.83h.08a5.33,5.33,0,0,1,1-1.34,6.14,6.14,0,0,1,1.42-1,7.65,7.65,0,0,1,1.72-.64,8.09,8.09,0,0,1,1.92-.22,7.14,7.14,0,0,1,3.52.83,7.55,7.55,0,0,1,2.48,2.2,9.65,9.65,0,0,1,1.47,3.14A13.82,13.82,0,0,1,565.68,254.82Zm-4.1,0a10.61,10.61,0,0,0-.27-2.32,7.14,7.14,0,0,0-.85-2.16,4.86,4.86,0,0,0-1.54-1.58,4.25,4.25,0,0,0-2.35-.62,4.46,4.46,0,0,0-2.33.58,4.83,4.83,0,0,0-1.59,1.52,6.78,6.78,0,0,0-.9,2.13,10.28,10.28,0,0,0-.29,2.44,10.42,10.42,0,0,0,.27,2.35,6.7,6.7,0,0,0,.89,2.14,5,5,0,0,0,1.59,1.56,4.46,4.46,0,0,0,2.39.61,4.21,4.21,0,0,0,2.27-.58,4.78,4.78,0,0,0,1.54-1.52,6.88,6.88,0,0,0,.88-2.13A11.18,11.18,0,0,0,561.58,254.84Z"/><path class="cls-1" d="M593.77,264.13V252.68a9.75,9.75,0,0,0-.15-1.76,3.59,3.59,0,0,0-.55-1.39,2.7,2.7,0,0,0-1.1-.91,4.18,4.18,0,0,0-1.79-.33,3.52,3.52,0,0,0-3,1.34,6.48,6.48,0,0,0-1,3.92v10.59h-4.1V252.21a4.66,4.66,0,0,0-.79-2.95,3.11,3.11,0,0,0-2.58-1,3.79,3.79,0,0,0-3.05,1.36,5.65,5.65,0,0,0-1.15,3.7v10.79h-4.1V245.51h3.85v2.76h.07a6.56,6.56,0,0,1,5.84-3.25,6.43,6.43,0,0,1,3.41.84,4.85,4.85,0,0,1,2,2.45,7,7,0,0,1,2.47-2.45,6.25,6.25,0,0,1,9.84,5.6v12.68Z"/><path class="cls-1" d="M607.62,237.41v4h-4.1v-4Zm0,8.1v18.63h-4.1V245.51Z"/><path class="cls-1" d="M622.41,264.28l-.8,0-.82,0h-.74a13,13,0,0,1-2.08-.16,4.47,4.47,0,0,1-1.69-.61,3.16,3.16,0,0,1-1.14-1.27,4.72,4.72,0,0,1-.42-2.14V248.4h-3.65v-2.89h3.65v-5.58h4.1v5.58h4.25v2.89h-4.25v10.54a2.34,2.34,0,0,0,.47,1.64,2.28,2.28,0,0,0,1.69.5h.48l.57,0,.56,0,.47,0v3.24A6.2,6.2,0,0,1,622.41,264.28Z"/><path class="cls-5" d="M140.36,239.35a12.75,12.75,0,0,1,3.73.52,9.76,9.76,0,0,1,3,1.5,8.32,8.32,0,0,1,2.17,2.4,9,9,0,0,1,1.15,3.21H146.3a5.36,5.36,0,0,0-.73-1.59,5.13,5.13,0,0,0-1.25-1.29,6.23,6.23,0,0,0-1.76-.87,7.2,7.2,0,0,0-2.22-.32,6.83,6.83,0,0,0-5.73,2.78,8.84,8.84,0,0,0-1.41,2.92,12.88,12.88,0,0,0,0,6.77,8.69,8.69,0,0,0,1.37,2.9,6.81,6.81,0,0,0,5.78,2.83,6.71,6.71,0,0,0,2.4-.41,5.64,5.64,0,0,0,3.15-2.86,7.58,7.58,0,0,0,.68-2.21h4.13a12,12,0,0,1-1,3.57,9,9,0,0,1-5.16,4.8,11.73,11.73,0,0,1-4.2.7,12,12,0,0,1-4.87-1,10.92,10.92,0,0,1-3.73-2.64,11.69,11.69,0,0,1-2.37-4,14.75,14.75,0,0,1-.83-5,15.07,15.07,0,0,1,.78-4.86,12.12,12.12,0,0,1,2.28-4.06,10.86,10.86,0,0,1,3.71-2.78A11.85,11.85,0,0,1,140.36,239.35Z"/><path class="cls-5" d="M171.87,264.13a10.36,10.36,0,0,1-1.25.25,9.23,9.23,0,0,1-1.11.07,5.1,5.1,0,0,1-1.2-.13,2.58,2.58,0,0,1-1-.44,2.36,2.36,0,0,1-.67-.82,3.61,3.61,0,0,1-.35-1.26h0a7.58,7.58,0,0,1-1.29,1.3,6.53,6.53,0,0,1-1.49.89,9.42,9.42,0,0,1-3.72.68,6.87,6.87,0,0,1-4.58-1.44,5,5,0,0,1-1.71-4.1,4.82,4.82,0,0,1,1.69-4,6,6,0,0,1,1.64-.9,13.32,13.32,0,0,1,2.06-.56q1.11-.21,2.33-.36l2.47-.29a6.08,6.08,0,0,0,1-.2,2.27,2.27,0,0,0,.76-.38,1.67,1.67,0,0,0,.49-.63,2.23,2.23,0,0,0,.17-.93,2.78,2.78,0,0,0-.88-2.23,6,6,0,0,0-5.81,0,2.82,2.82,0,0,0-1.11,2.06h-4.1a5.67,5.67,0,0,1,.81-2.55,5.53,5.53,0,0,1,1.77-1.76,8.2,8.2,0,0,1,2.56-1,14.41,14.41,0,0,1,3.19-.33q3.9,0,5.79,1.41a4.68,4.68,0,0,1,1.89,4v10a1.34,1.34,0,0,0,.22.86,1,1,0,0,0,.77.27,1.89,1.89,0,0,0,.34,0,1.71,1.71,0,0,0,.36-.1Zm-5.79-9.48h0a2.69,2.69,0,0,1-1.54.65l-1.37.23-1.83.3a6.26,6.26,0,0,0-2.8,1.05,2.45,2.45,0,0,0-.9,2,2.51,2.51,0,0,0,1,2.16,4.18,4.18,0,0,0,2.47.68,5.08,5.08,0,0,0,3.59-1.23,4.51,4.51,0,0,0,1.39-3.52Z"/><path class="cls-5" d="M185.55,245a9.23,9.23,0,0,1,3.11.46,5.12,5.12,0,0,1,2.11,1.38,5.52,5.52,0,0,1,1.2,2.28,12.14,12.14,0,0,1,.37,3.18v11.82h-4.08V253.08a6,6,0,0,0-.9-3.59,3.38,3.38,0,0,0-2.91-1.21,4.18,4.18,0,0,0-3.49,1.46,6.46,6.46,0,0,0-1.16,4.12v10.28h-4.08V245.51h3.92v2.82h.1a6,6,0,0,1,1-1.41,6.31,6.31,0,0,1,1.36-1,6.63,6.63,0,0,1,1.61-.65A7.1,7.1,0,0,1,185.55,245Z"/><path class="cls-5" d="M206.2,245a11.54,11.54,0,0,1,3,.38,8,8,0,0,1,2.52,1.15,6.44,6.44,0,0,1,1.81,1.92,6.53,6.53,0,0,1,.89,2.69h-4a3.43,3.43,0,0,0-1.34-2.22,4.79,4.79,0,0,0-2.87-.77,4.35,4.35,0,0,0-2.3.59,5.11,5.11,0,0,0-1.61,1.54,6.92,6.92,0,0,0-.95,2.16,9.68,9.68,0,0,0,0,4.74,6.84,6.84,0,0,0,.9,2.13,5,5,0,0,0,1.58,1.56,4.27,4.27,0,0,0,2.32.61,5.14,5.14,0,0,0,1.69-.27,4.19,4.19,0,0,0,1.34-.75,4,4,0,0,0,.94-1.15,5,5,0,0,0,.51-1.49h4a8.72,8.72,0,0,1-.93,2.78,7.35,7.35,0,0,1-1.75,2.15,7.87,7.87,0,0,1-2.52,1.39,9.89,9.89,0,0,1-3.24.5,9.43,9.43,0,0,1-3.74-.72,8.54,8.54,0,0,1-2.91-2,9.11,9.11,0,0,1-1.88-3.06,10.85,10.85,0,0,1-.67-3.87,12,12,0,0,1,.61-3.85,9.39,9.39,0,0,1,1.78-3.18,8.42,8.42,0,0,1,2.91-2.17A9.43,9.43,0,0,1,206.2,245Z"/><path class="cls-5" d="M226.85,245a8.54,8.54,0,0,1,3.81.81,7.9,7.9,0,0,1,2.73,2.18,9.46,9.46,0,0,1,1.64,3.21,13.48,13.48,0,0,1,.55,3.88v.75H221.84a7.83,7.83,0,0,0,.38,2.3,5.38,5.38,0,0,0,1,1.78,4.37,4.37,0,0,0,1.53,1.16,4.8,4.8,0,0,0,2,.42,5.39,5.39,0,0,0,2.76-.65,4.81,4.81,0,0,0,1.73-1.71h3.87a8.7,8.7,0,0,1-1.28,2.3,8,8,0,0,1-1.88,1.74,8.55,8.55,0,0,1-2.41,1.1,10.38,10.38,0,0,1-2.87.38,9.28,9.28,0,0,1-3.76-.73,8,8,0,0,1-2.82-2,9,9,0,0,1-1.77-3.1,12.19,12.19,0,0,1-.61-4,11.47,11.47,0,0,1,.61-3.76,9.34,9.34,0,0,1,1.78-3.13,8.6,8.6,0,0,1,2.86-2.14A8.94,8.94,0,0,1,226.85,245Zm4.63,8.07a7.85,7.85,0,0,0-.46-2,4.89,4.89,0,0,0-.94-1.55,4.05,4.05,0,0,0-1.43-1,4.9,4.9,0,0,0-1.93-.36,5,5,0,0,0-2,.37,4.28,4.28,0,0,0-1.46,1,5.08,5.08,0,0,0-1,1.55,7.19,7.19,0,0,0-.49,2Z"/><path class="cls-5" d="M244.08,238.4v25.73H240V238.4Z"/></svg>