<svg id="Layer_1" data-name="Layer 1" xmlns="http://www.w3.org/2000/svg" xmlns:xlink="http://www.w3.org/1999/xlink" viewBox="0 0 750.5 103"><defs><style>.cls-1{fill:#fff;}.cls-2{fill:#5a5a5a;}.cls-3{fill:#0aaeff;}.cls-4{fill:#787878;}.cls-5{fill:#a0a0a0;}.cls-6{opacity:0.7;fill:url(#linear-gradient);}</style><linearGradient id="linear-gradient" x1="375.5" y1="4" x2="375.5" gradientUnits="userSpaceOnUse"><stop offset="0" stop-color="#fff"/><stop offset="0.43" stop-color="#fff"/><stop offset="0.5" stop-color="#fff"/><stop offset="0.55" stop-color="#fff" stop-opacity="0.98"/><stop offset="0.61" stop-color="#fff" stop-opacity="0.92"/><stop offset="0.68" stop-color="#fff" stop-opacity="0.81"/><stop offset="0.75" stop-color="#fff" stop-opacity="0.67"/><stop offset="0.83" stop-color="#fff" stop-opacity="0.49"/><stop offset="0.92" stop-color="#fff" stop-opacity="0.26"/><stop offset="1" stop-color="#fff" stop-opacity="0"/></linearGradient></defs><title>Artboard 8</title><rect class="cls-1" x="0.5" y="5" width="750" height="98"/><polygon class="cls-2" points="75.5 20 82.01 36 99.5 36 85.1 47.26 92.83 67.33 75.5 56.6 58.17 67.33 65.9 47.37 51.5 36 68.98 36 75.5 20"/><circle class="cls-2" cx="525.5" cy="44" r="22"/><polygon class="cls-1" points="533.5 42 527.5 42 527.5 36 523.5 36 523.5 42 517.5 42 517.5 46 523.5 46 523.5 52 527.5 52 527.5 46 533.5 46 533.5 42"/><polygon class="cls-3" points="391.5 38.16 391.5 26 385.5 26 385.5 32.29 375 22 351.5 46 358.5 46 358.5 66 371.5 66 371.5 52 378.5 52 378.5 66 391.5 66 391.5 46 399.5 46 391.5 38.16"/><circle class="cls-2" cx="225.5" cy="44" r="22"/><rect class="cls-1" x="223.5" y="32" width="4" height="16"/><rect class="cls-1" x="223.5" y="52" width="4" height="4"/><circle class="cls-2" cx="657.5" cy="44" r="6"/><circle class="cls-2" cx="675.5" cy="44" r="6"/><circle class="cls-2" cx="693.5" cy="44" r="6"/><path class="cls-4" d="M42,79.72v1.16h-7.7V86H41.1V87.2H34.27V94H32.9V79.72Z"/><path class="cls-4" d="M53,93.92,52.6,94H52.2a2.29,2.29,0,0,1-.74-.1,1.09,1.09,0,0,1-.49-.33A1.36,1.36,0,0,1,50.7,93a4.06,4.06,0,0,1-.08-.88h0a5.07,5.07,0,0,1-1.72,1.74,4.64,4.64,0,0,1-2.26.49,4.1,4.1,0,0,1-2.67-.83,2.91,2.91,0,0,1-1-2.38A2.76,2.76,0,0,1,44,88.73q1.11-.81,4.93-1.14a3.3,3.3,0,0,0,.74-.14,1.24,1.24,0,0,0,.48-.27,1,1,0,0,0,.26-.43,2.13,2.13,0,0,0,.08-.63,2.07,2.07,0,0,0-.67-1.67,3.37,3.37,0,0,0-2.19-.57,4.36,4.36,0,0,0-1.21.15,2.77,2.77,0,0,0-.88.42,1.89,1.89,0,0,0-.56.64,2,2,0,0,0-.22.82H43.44a3.32,3.32,0,0,1,.37-1.29,3,3,0,0,1,.85-1A4.06,4.06,0,0,1,46,83a6.73,6.73,0,0,1,1.82-.22,4.41,4.41,0,0,1,3,.89,3.26,3.26,0,0,1,1,2.53v5.94a.78.78,0,0,0,.19.55.77.77,0,0,0,.6.21,1.16,1.16,0,0,0,.42-.08ZM50.51,88h0q-.2.37-1.28.52l-1.11.17-1.23.21a4.47,4.47,0,0,0-1.94.73,1.67,1.67,0,0,0-.65,1.4A1.94,1.94,0,0,0,45,92.6a2.67,2.67,0,0,0,1.72.59,3.94,3.94,0,0,0,2.72-1,3.09,3.09,0,0,0,1.08-2.4Z"/><path class="cls-4" d="M55.49,83.06l3.44,9.6h0l3.4-9.6h1.38L59.65,94H58.23L54,83.06Z"/><path class="cls-4" d="M75.65,88.53a7.14,7.14,0,0,1-.34,2.19,5.52,5.52,0,0,1-1,1.88,4.83,4.83,0,0,1-3.82,1.73,4.73,4.73,0,0,1-3.74-1.63,6.79,6.79,0,0,1,0-8.31,5.14,5.14,0,0,1,7.51,0A6.08,6.08,0,0,1,75.65,88.53Zm-1.34,0a6.33,6.33,0,0,0-.22-1.66,4.7,4.7,0,0,0-.7-1.5,3.76,3.76,0,0,0-1.2-1.09,3.42,3.42,0,0,0-1.73-.42,3.3,3.3,0,0,0-1.64.4,3.74,3.74,0,0,0-1.2,1.06,4.75,4.75,0,0,0-.73,1.5,6.1,6.1,0,0,0-.24,1.71,6,6,0,0,0,.24,1.66,4.93,4.93,0,0,0,.71,1.5,3.72,3.72,0,0,0,1.19,1.08,3.3,3.3,0,0,0,1.68.42,3.27,3.27,0,0,0,1.63-.4,3.88,3.88,0,0,0,1.21-1,4.67,4.67,0,0,0,.75-1.49A5.9,5.9,0,0,0,74.31,88.53Z"/><path class="cls-4" d="M78.64,94V83.06h1.24v2.56h0a4.27,4.27,0,0,1,1.5-2,3.87,3.87,0,0,1,2.29-.71h.48v1.33h-.3a3.7,3.7,0,0,0-2.84,1.14A3.93,3.93,0,0,0,80,88.2V94Z"/><path class="cls-4" d="M87.74,78.28v2.15H86.4V78.28Zm0,4.79V94H86.4V83.06Z"/><path class="cls-4" d="M95.82,94.1h-1.1A5,5,0,0,1,93.59,94a1.6,1.6,0,0,1-.75-.38,1.49,1.49,0,0,1-.41-.72,4.4,4.4,0,0,1-.12-1.13V84.19h-2.2V83.06h2.2V79.78h1.34v3.28h2.5v1.12h-2.5v7.46a2.91,2.91,0,0,0,0,.56,1.07,1.07,0,0,0,.18.42.82.82,0,0,0,.35.27,1.45,1.45,0,0,0,.58.1h1l.35,0v1.13Z"/><path class="cls-4" d="M103.08,82.75a4.52,4.52,0,0,1,2.17.49,4.33,4.33,0,0,1,1.49,1.31,5.75,5.75,0,0,1,.87,1.89,8.67,8.67,0,0,1,.28,2.23v.21H99.47a6,6,0,0,0,.21,1.57,4.31,4.31,0,0,0,.64,1.38,3.31,3.31,0,0,0,1.1,1,3.19,3.19,0,0,0,1.58.37,4.05,4.05,0,0,0,1.17-.16,3.35,3.35,0,0,0,.93-.43,2.91,2.91,0,0,0,.69-.65,4,4,0,0,0,.48-.82h1.31a5,5,0,0,1-.64,1.31,4.13,4.13,0,0,1-1,1,4.43,4.43,0,0,1-1.31.64,5.55,5.55,0,0,1-1.66.23,4.89,4.89,0,0,1-2.16-.44,4.26,4.26,0,0,1-1.52-1.22,5.19,5.19,0,0,1-.9-1.84,8.56,8.56,0,0,1-.29-2.29,7.76,7.76,0,0,1,.3-2.14,5.61,5.61,0,0,1,.9-1.85,4.57,4.57,0,0,1,1.54-1.3A4.66,4.66,0,0,1,103.08,82.75Zm3.48,5a5.08,5.08,0,0,0-.26-1.41,4.07,4.07,0,0,0-.68-1.25,3.47,3.47,0,0,0-1.08-.9,3.07,3.07,0,0,0-1.47-.34,3.17,3.17,0,0,0-1.44.31,3.2,3.2,0,0,0-1.05.85,4.52,4.52,0,0,0-.7,1.25,7.18,7.18,0,0,0-.39,1.5Z"/><path class="cls-4" d="M118.86,91a2.79,2.79,0,0,1-.37,1.46,3.14,3.14,0,0,1-1,1,4.55,4.55,0,0,1-1.41.61,6.6,6.6,0,0,1-1.63.2,6.09,6.09,0,0,1-1.79-.24,4,4,0,0,1-1.34-.68,3.31,3.31,0,0,1-.88-1.07,4,4,0,0,1-.42-1.41h1.35a2.82,2.82,0,0,0,.33.93,2.34,2.34,0,0,0,.63.72,3,3,0,0,0,.94.46,4.25,4.25,0,0,0,1.24.17,5,5,0,0,0,1-.11,3.41,3.41,0,0,0,1-.35,2.25,2.25,0,0,0,.74-.64,1.6,1.6,0,0,0,.29-1,1.55,1.55,0,0,0-.57-1.22,4.34,4.34,0,0,0-1.88-.77l-1.67-.37a6.69,6.69,0,0,1-1.29-.41,3.49,3.49,0,0,1-1-.61,2.42,2.42,0,0,1-.6-.83,2.69,2.69,0,0,1-.21-1.08,2.61,2.61,0,0,1,.36-1.39,3,3,0,0,1,.93-1,4.23,4.23,0,0,1,1.3-.55,6.28,6.28,0,0,1,1.48-.18A5.44,5.44,0,0,1,116,83a3.82,3.82,0,0,1,1.22.59,3.05,3.05,0,0,1,.84,1,3.47,3.47,0,0,1,.41,1.3h-1.34a2.2,2.2,0,0,0-.31-.83,2.07,2.07,0,0,0-.6-.61,2.84,2.84,0,0,0-.84-.37,4,4,0,0,0-1-.13,4.8,4.8,0,0,0-1,.1,2.67,2.67,0,0,0-.84.32,1.79,1.79,0,0,0-.6.58,1.63,1.63,0,0,0-.22.88,1.24,1.24,0,0,0,.22.73,2.1,2.1,0,0,0,.55.54,3.15,3.15,0,0,0,.73.37,6,6,0,0,0,.77.22l2.29.51a4.78,4.78,0,0,1,1,.34,3,3,0,0,1,.83.58,2.74,2.74,0,0,1,.57.85A2.86,2.86,0,0,1,118.86,91Z"/><path class="cls-4" d="M161.53,79.72l8.32,12.08h0V79.72h1.36V94h-1.51l-8.32-12.08h0V94H160V79.72Z"/><path class="cls-4" d="M184.61,88.53a7.14,7.14,0,0,1-.34,2.19,5.52,5.52,0,0,1-1,1.88,4.83,4.83,0,0,1-3.82,1.73,4.73,4.73,0,0,1-3.74-1.63,6.79,6.79,0,0,1,0-8.31,5.14,5.14,0,0,1,7.51,0A6.08,6.08,0,0,1,184.61,88.53Zm-1.34,0a6.33,6.33,0,0,0-.22-1.66,4.7,4.7,0,0,0-.7-1.5,3.76,3.76,0,0,0-1.2-1.09,3.42,3.42,0,0,0-1.73-.42,3.3,3.3,0,0,0-1.64.4,3.74,3.74,0,0,0-1.2,1.06,4.75,4.75,0,0,0-.73,1.5,6.1,6.1,0,0,0-.24,1.71,6,6,0,0,0,.24,1.66,4.93,4.93,0,0,0,.71,1.5,3.72,3.72,0,0,0,1.19,1.08,3.3,3.3,0,0,0,1.68.42,3.27,3.27,0,0,0,1.63-.4,3.88,3.88,0,0,0,1.21-1,4.67,4.67,0,0,0,.75-1.49A5.9,5.9,0,0,0,183.27,88.53Z"/><path class="cls-4" d="M192,94.1h-1.1a5,5,0,0,1-1.13-.11,1.6,1.6,0,0,1-.75-.38,1.49,1.49,0,0,1-.41-.72,4.4,4.4,0,0,1-.12-1.13V84.19h-2.2V83.06h2.2V79.78h1.34v3.28h2.5v1.12h-2.5v7.46a2.91,2.91,0,0,0,0,.56,1.07,1.07,0,0,0,.18.42.82.82,0,0,0,.35.27,1.45,1.45,0,0,0,.58.1h1l.35,0v1.13Z"/><path class="cls-4" d="M196.65,78.28v2.15h-1.34V78.28Zm0,4.79V94h-1.34V83.06Z"/><path class="cls-4" d="M202.5,84.19V94h-1.33V84.19H199V83.06h2.17V82a3.58,3.58,0,0,1,.67-2.46,2,2,0,0,1,.87-.53,4,4,0,0,1,1.24-.18l.77,0a2.9,2.9,0,0,1,.5.06v1.14l-.28,0-.33,0-.3,0h-.22a1.38,1.38,0,0,0-1.59,1.61v1.46H205v1.12Zm5.72-5.91v2.15h-1.34V78.28Zm0,4.79V94h-1.34V83.06Z"/><path class="cls-4" d="M216.42,82.75A5.79,5.79,0,0,1,218,83a4.21,4.21,0,0,1,1.3.63,3.4,3.4,0,0,1,.93,1,3.85,3.85,0,0,1,.49,1.37h-1.34a2.89,2.89,0,0,0-.37-.86,2.51,2.51,0,0,0-.62-.67,2.85,2.85,0,0,0-.88-.43,3.92,3.92,0,0,0-1.13-.15,3.37,3.37,0,0,0-1.64.39,3.67,3.67,0,0,0-1.2,1,4.87,4.87,0,0,0-.74,1.49,6,6,0,0,0-.25,1.74,6.11,6.11,0,0,0,.23,1.67,4.78,4.78,0,0,0,.71,1.49,3.76,3.76,0,0,0,1.19,1.08,3.25,3.25,0,0,0,1.67.42,3.21,3.21,0,0,0,1.18-.21,3.13,3.13,0,0,0,.94-.56,3,3,0,0,0,.65-.82,3.11,3.11,0,0,0,.34-1h1.34a4.92,4.92,0,0,1-.49,1.42,4.14,4.14,0,0,1-.91,1.17,4.22,4.22,0,0,1-1.33.8,4.8,4.8,0,0,1-1.72.29,5,5,0,0,1-2.15-.45,4.74,4.74,0,0,1-1.62-1.23,5.47,5.47,0,0,1-1-1.84,7.44,7.44,0,0,1,0-4.44,5.52,5.52,0,0,1,1-1.85,4.84,4.84,0,0,1,1.62-1.28A5,5,0,0,1,216.42,82.75Z"/><path class="cls-4" d="M233.25,93.92l-.44.06h-.41a2.29,2.29,0,0,1-.74-.1,1.09,1.09,0,0,1-.49-.33,1.36,1.36,0,0,1-.27-.59,4.06,4.06,0,0,1-.08-.88h0a5.07,5.07,0,0,1-1.72,1.74,4.64,4.64,0,0,1-2.26.49,4.1,4.1,0,0,1-2.67-.83,2.91,2.91,0,0,1-1-2.38,2.76,2.76,0,0,1,1.09-2.38q1.11-.81,4.93-1.14a3.3,3.3,0,0,0,.74-.14,1.24,1.24,0,0,0,.48-.27,1,1,0,0,0,.26-.43,2.13,2.13,0,0,0,.08-.63,2.07,2.07,0,0,0-.67-1.67,3.37,3.37,0,0,0-2.19-.57,4.36,4.36,0,0,0-1.21.15,2.77,2.77,0,0,0-.88.42,1.89,1.89,0,0,0-.56.64,2,2,0,0,0-.22.82h-1.34A3.32,3.32,0,0,1,224,84.6a3,3,0,0,1,.85-1,4.06,4.06,0,0,1,1.34-.63,6.73,6.73,0,0,1,1.82-.22,4.41,4.41,0,0,1,3,.89,3.26,3.26,0,0,1,1,2.53v5.94a.78.78,0,0,0,.19.55.77.77,0,0,0,.6.21,1.16,1.16,0,0,0,.42-.08ZM230.71,88h0q-.2.37-1.28.52l-1.11.17-1.23.21a4.47,4.47,0,0,0-1.94.73,1.67,1.67,0,0,0-.65,1.4,1.94,1.94,0,0,0,.72,1.57,2.67,2.67,0,0,0,1.72.59,3.94,3.94,0,0,0,2.72-1,3.09,3.09,0,0,0,1.08-2.4Z"/><path class="cls-4" d="M240,94.1h-1.1a5,5,0,0,1-1.13-.11,1.6,1.6,0,0,1-.75-.38,1.49,1.49,0,0,1-.41-.72,4.4,4.4,0,0,1-.12-1.13V84.19h-2.2V83.06h2.2V79.78h1.34v3.28h2.5v1.12h-2.5v7.46a2.91,2.91,0,0,0,0,.56,1.07,1.07,0,0,0,.18.42.82.82,0,0,0,.35.27,1.45,1.45,0,0,0,.58.1h1l.35,0v1.13Z"/><path class="cls-4" d="M244.69,78.28v2.15h-1.34V78.28Zm0,4.79V94h-1.34V83.06Z"/><path class="cls-4" d="M258.06,88.53a7.14,7.14,0,0,1-.34,2.19,5.52,5.52,0,0,1-1,1.88,4.83,4.83,0,0,1-3.82,1.73,4.73,4.73,0,0,1-3.74-1.63,6.79,6.79,0,0,1,0-8.31,5.14,5.14,0,0,1,7.51,0A6.08,6.08,0,0,1,258.06,88.53Zm-1.34,0a6.33,6.33,0,0,0-.22-1.66,4.7,4.7,0,0,0-.7-1.5,3.76,3.76,0,0,0-1.2-1.09,3.42,3.42,0,0,0-1.73-.42,3.3,3.3,0,0,0-1.64.4,3.74,3.74,0,0,0-1.2,1.06,4.75,4.75,0,0,0-.73,1.5,6.1,6.1,0,0,0-.24,1.71,6,6,0,0,0,.24,1.66,4.93,4.93,0,0,0,.71,1.5,3.72,3.72,0,0,0,1.19,1.08,3.3,3.3,0,0,0,1.68.42,3.27,3.27,0,0,0,1.63-.4,3.88,3.88,0,0,0,1.21-1,4.67,4.67,0,0,0,.75-1.49A5.9,5.9,0,0,0,256.72,88.53Z"/><path class="cls-4" d="M265.92,82.75a5.6,5.6,0,0,1,1.81.26,3.05,3.05,0,0,1,1.24.77,3.11,3.11,0,0,1,.72,1.28,6.33,6.33,0,0,1,.23,1.8V94h-1.34V87.09a3.67,3.67,0,0,0-.68-2.41,2.58,2.58,0,0,0-2.09-.82,3.46,3.46,0,0,0-1.43.29,3.14,3.14,0,0,0-1.08.8,3.6,3.6,0,0,0-.68,1.19,4.39,4.39,0,0,0-.24,1.47V94H261V83.06h1.34V85h0A3.32,3.32,0,0,1,263,84a3.63,3.63,0,0,1,.82-.69,3.92,3.92,0,0,1,1-.43A4.15,4.15,0,0,1,265.92,82.75Z"/><path class="cls-4" d="M281.71,91a2.79,2.79,0,0,1-.37,1.46,3.14,3.14,0,0,1-1,1,4.55,4.55,0,0,1-1.41.61,6.6,6.6,0,0,1-1.63.2,6.09,6.09,0,0,1-1.79-.24,4,4,0,0,1-1.34-.68,3.31,3.31,0,0,1-.88-1.07,4,4,0,0,1-.42-1.41h1.35a2.82,2.82,0,0,0,.33.93,2.34,2.34,0,0,0,.63.72,3,3,0,0,0,.94.46,4.25,4.25,0,0,0,1.24.17,5,5,0,0,0,1-.11,3.41,3.41,0,0,0,1-.35,2.25,2.25,0,0,0,.74-.64,1.6,1.6,0,0,0,.29-1,1.55,1.55,0,0,0-.57-1.22,4.34,4.34,0,0,0-1.88-.77l-1.67-.37a6.69,6.69,0,0,1-1.29-.41,3.49,3.49,0,0,1-1-.61,2.42,2.42,0,0,1-.6-.83,2.69,2.69,0,0,1-.21-1.08,2.61,2.61,0,0,1,.36-1.39,3,3,0,0,1,.93-1,4.23,4.23,0,0,1,1.3-.55,6.28,6.28,0,0,1,1.48-.18,5.44,5.44,0,0,1,1.54.21,3.82,3.82,0,0,1,1.22.59,3.05,3.05,0,0,1,.84,1,3.47,3.47,0,0,1,.41,1.3h-1.34a2.2,2.2,0,0,0-.31-.83,2.07,2.07,0,0,0-.6-.61,2.84,2.84,0,0,0-.84-.37,4,4,0,0,0-1-.13,4.8,4.8,0,0,0-1,.1,2.67,2.67,0,0,0-.84.32,1.79,1.79,0,0,0-.6.58,1.63,1.63,0,0,0-.22.88,1.24,1.24,0,0,0,.22.73,2.1,2.1,0,0,0,.55.54,3.15,3.15,0,0,0,.73.37,6,6,0,0,0,.77.22l2.29.51a4.78,4.78,0,0,1,1,.34,3,3,0,0,1,.83.58,2.74,2.74,0,0,1,.57.85A2.86,2.86,0,0,1,281.71,91Z"/><path class="cls-3" d="M351.1,79.74v6.19h8.47V79.74h1.35V94h-1.35V87.09H351.1V94h-1.37V79.74Z"/><path class="cls-3" d="M374.3,88.53a7.14,7.14,0,0,1-.34,2.19,5.52,5.52,0,0,1-1,1.88,4.83,4.83,0,0,1-3.82,1.73,4.73,4.73,0,0,1-3.74-1.63,6.79,6.79,0,0,1,0-8.31,5.14,5.14,0,0,1,7.51,0A6.08,6.08,0,0,1,374.3,88.53Zm-1.34,0a6.33,6.33,0,0,0-.22-1.66,4.7,4.7,0,0,0-.7-1.5,3.76,3.76,0,0,0-1.2-1.09,3.42,3.42,0,0,0-1.73-.42,3.3,3.3,0,0,0-1.64.4,3.74,3.74,0,0,0-1.2,1.06,4.75,4.75,0,0,0-.73,1.5,6.1,6.1,0,0,0-.24,1.71,6,6,0,0,0,.24,1.66,4.93,4.93,0,0,0,.71,1.5,3.72,3.72,0,0,0,1.19,1.08,3.3,3.3,0,0,0,1.68.42,3.27,3.27,0,0,0,1.63-.4,3.88,3.88,0,0,0,1.21-1,4.67,4.67,0,0,0,.75-1.49A5.9,5.9,0,0,0,373,88.53Z"/><path class="cls-3" d="M391.08,94V86.56a2.88,2.88,0,0,0-.62-2,3.08,3.08,0,0,0-4.17.35,4.67,4.67,0,0,0-.75,2.85V94h-1.35V86.51a3,3,0,0,0-.57-1.94,2.08,2.08,0,0,0-1.72-.7,2.87,2.87,0,0,0-2.43,1.08,4.54,4.54,0,0,0-.83,2.85V94H377.3V83.06h1.24V84.9h.06a3.77,3.77,0,0,1,3.58-2.15,4.08,4.08,0,0,1,1.07.14,3.13,3.13,0,0,1,.91.41,2.78,2.78,0,0,1,.7.66,3.1,3.1,0,0,1,.46.92,3.6,3.6,0,0,1,1.42-1.59,4,4,0,0,1,2.07-.54,3.53,3.53,0,0,1,2.72,1,3.93,3.93,0,0,1,.89,2.76V94Z"/><path class="cls-3" d="M400.36,82.75a4.52,4.52,0,0,1,2.17.49A4.33,4.33,0,0,1,404,84.55a5.75,5.75,0,0,1,.87,1.89,8.67,8.67,0,0,1,.28,2.23v.21h-8.42a6,6,0,0,0,.21,1.57,4.31,4.31,0,0,0,.64,1.38,3.31,3.31,0,0,0,1.1,1,3.19,3.19,0,0,0,1.58.37,4.05,4.05,0,0,0,1.17-.16,3.35,3.35,0,0,0,.93-.43,2.91,2.91,0,0,0,.69-.65,4,4,0,0,0,.48-.82h1.31a5,5,0,0,1-.64,1.31,4.13,4.13,0,0,1-1,1,4.43,4.43,0,0,1-1.31.64,5.55,5.55,0,0,1-1.66.23,4.89,4.89,0,0,1-2.16-.44,4.26,4.26,0,0,1-1.52-1.22,5.19,5.19,0,0,1-.9-1.84,8.56,8.56,0,0,1-.29-2.29,7.76,7.76,0,0,1,.3-2.14,5.61,5.61,0,0,1,.9-1.85,4.57,4.57,0,0,1,1.54-1.3A4.66,4.66,0,0,1,400.36,82.75Zm3.48,5a5.08,5.08,0,0,0-.26-1.41,4.07,4.07,0,0,0-.68-1.25,3.47,3.47,0,0,0-1.08-.9,3.07,3.07,0,0,0-1.47-.34,3.17,3.17,0,0,0-1.44.31,3.2,3.2,0,0,0-1.05.85,4.52,4.52,0,0,0-.7,1.25,7.18,7.18,0,0,0-.39,1.5Z"/><path class="cls-4" d="M479.83,94l-1.74-4.43H471.6L469.88,94h-1.46l5.74-14.26h1.52L481.29,94Zm-5-12.89h0L472,88.41h5.62Z"/><path class="cls-4" d="M492.93,78.86V94H491.7V91.92h0a3.4,3.4,0,0,1-.65,1,4.27,4.27,0,0,1-.94.76,4.61,4.61,0,0,1-1.12.48,4.37,4.37,0,0,1-1.21.17,4.66,4.66,0,0,1-2.13-.46,4.46,4.46,0,0,1-1.53-1.25,5.53,5.53,0,0,1-.93-1.85,7.79,7.79,0,0,1-.31-2.23,8.06,8.06,0,0,1,.29-2.15,5.52,5.52,0,0,1,.89-1.85,4.48,4.48,0,0,1,1.53-1.29,5,5,0,0,1,3.37-.34,4.3,4.3,0,0,1,1.09.45,3.79,3.79,0,0,1,.91.75,3.46,3.46,0,0,1,.63,1h0V78.86Zm-8.76,9.67a7,7,0,0,0,.09,1.08,6.15,6.15,0,0,0,.27,1.07,4.7,4.7,0,0,0,.47,1,3.57,3.57,0,0,0,.68.8,3,3,0,0,0,.91.54,3.26,3.26,0,0,0,1.16.2,3.57,3.57,0,0,0,1.69-.38,3.53,3.53,0,0,0,1.2-1,4.42,4.42,0,0,0,.71-1.48,6.59,6.59,0,0,0,.23-1.77,6.73,6.73,0,0,0-.22-1.71,4.55,4.55,0,0,0-.69-1.5,3.43,3.43,0,0,0-2.94-1.46,3.26,3.26,0,0,0-1.13.19,3,3,0,0,0-.9.52,3.59,3.59,0,0,0-.69.78,4.69,4.69,0,0,0-.48,1,5.9,5.9,0,0,0-.28,1.09A7.07,7.07,0,0,0,484.17,88.53Z"/><path class="cls-4" d="M506.15,78.86V94h-1.23V91.92h0a3.4,3.4,0,0,1-.65,1,4.27,4.27,0,0,1-.94.76,4.61,4.61,0,0,1-1.12.48,4.37,4.37,0,0,1-1.21.17,4.66,4.66,0,0,1-2.13-.46,4.46,4.46,0,0,1-1.53-1.25,5.53,5.53,0,0,1-.93-1.85,7.79,7.79,0,0,1-.31-2.23,8.06,8.06,0,0,1,.29-2.15,5.52,5.52,0,0,1,.89-1.85,4.48,4.48,0,0,1,1.53-1.29,5,5,0,0,1,3.37-.34,4.3,4.3,0,0,1,1.09.45,3.79,3.79,0,0,1,.91.75,3.46,3.46,0,0,1,.63,1h0V78.86Zm-8.76,9.67a7,7,0,0,0,.09,1.08,6.15,6.15,0,0,0,.27,1.07,4.7,4.7,0,0,0,.47,1,3.57,3.57,0,0,0,.68.8,3,3,0,0,0,.91.54,3.26,3.26,0,0,0,1.16.2,3.57,3.57,0,0,0,1.69-.38,3.53,3.53,0,0,0,1.2-1,4.42,4.42,0,0,0,.71-1.48,6.59,6.59,0,0,0,.23-1.77,6.73,6.73,0,0,0-.22-1.71,4.55,4.55,0,0,0-.69-1.5A3.43,3.43,0,0,0,501,83.86a3.26,3.26,0,0,0-1.13.19,3,3,0,0,0-.9.52,3.59,3.59,0,0,0-.69.78,4.69,4.69,0,0,0-.48,1,5.9,5.9,0,0,0-.28,1.09A7.07,7.07,0,0,0,497.39,88.53Z"/><path class="cls-4" d="M525.95,90.21a3.58,3.58,0,0,1-.47,1.9,3.77,3.77,0,0,1-1.27,1.26,5.74,5.74,0,0,1-1.83.71,10.25,10.25,0,0,1-2.14.22A8,8,0,0,1,518.1,94a5.28,5.28,0,0,1-1.73-.81,3.91,3.91,0,0,1-1.16-1.31,3.71,3.71,0,0,1-.42-1.79v-.32h1.37v.1a3.12,3.12,0,0,0,.26,1.26,2.74,2.74,0,0,0,.8,1,4,4,0,0,0,1.35.7,6.31,6.31,0,0,0,1.91.26A6.6,6.6,0,0,0,522,93a4.24,4.24,0,0,0,1.31-.53,3,3,0,0,0,.93-.9,2.3,2.3,0,0,0,.36-1.29q0-1.85-2.78-2.54l-3.33-.82a6.58,6.58,0,0,1-1.46-.52,3.56,3.56,0,0,1-1-.73,2.66,2.66,0,0,1-.58-1,3.74,3.74,0,0,1-.19-1.22,3.5,3.5,0,0,1,.42-1.75,3.91,3.91,0,0,1,1.13-1.26,5.14,5.14,0,0,1,1.62-.77,7,7,0,0,1,1.9-.26,7.23,7.23,0,0,1,2,.26,4.85,4.85,0,0,1,1.59.77A3.79,3.79,0,0,1,525,81.7a3.74,3.74,0,0,1,.42,1.67h-1.35a2.67,2.67,0,0,0-.33-1.08,3,3,0,0,0-.77-.89,3.72,3.72,0,0,0-1.15-.6,4.68,4.68,0,0,0-1.47-.22,5.84,5.84,0,0,0-1.52.19,3.61,3.61,0,0,0-1.18.54,2.45,2.45,0,0,0-.76.89,2.66,2.66,0,0,0-.27,1.22,2,2,0,0,0,.18.87,1.88,1.88,0,0,0,.48.63,2.55,2.55,0,0,0,.71.42,6.53,6.53,0,0,0,.88.28l3.25.8A6.22,6.22,0,0,1,525,87.84,3.21,3.21,0,0,1,525.95,90.21Z"/><path class="cls-4" d="M533,82.75a4.52,4.52,0,0,1,2.17.49,4.33,4.33,0,0,1,1.49,1.31,5.75,5.75,0,0,1,.87,1.89,8.67,8.67,0,0,1,.28,2.23v.21h-8.42a6,6,0,0,0,.21,1.57,4.31,4.31,0,0,0,.64,1.38,3.31,3.31,0,0,0,1.1,1,3.19,3.19,0,0,0,1.58.37,4.05,4.05,0,0,0,1.17-.16,3.35,3.35,0,0,0,.93-.43,2.91,2.91,0,0,0,.69-.65,4,4,0,0,0,.48-.82h1.31a5,5,0,0,1-.64,1.31,4.13,4.13,0,0,1-1,1,4.43,4.43,0,0,1-1.31.64,5.55,5.55,0,0,1-1.66.23,4.89,4.89,0,0,1-2.16-.44,4.26,4.26,0,0,1-1.52-1.22,5.19,5.19,0,0,1-.9-1.84,8.56,8.56,0,0,1-.29-2.29,7.76,7.76,0,0,1,.3-2.14,5.61,5.61,0,0,1,.9-1.85,4.57,4.57,0,0,1,1.54-1.3A4.66,4.66,0,0,1,533,82.75Zm3.48,5a5.08,5.08,0,0,0-.26-1.41,4.07,4.07,0,0,0-.68-1.25,3.47,3.47,0,0,0-1.08-.9,3.07,3.07,0,0,0-1.47-.34,3.17,3.17,0,0,0-1.44.31,3.2,3.2,0,0,0-1.05.85,4.52,4.52,0,0,0-.7,1.25,7.18,7.18,0,0,0-.39,1.5Z"/><path class="cls-4" d="M545.52,82.75a5.6,5.6,0,0,1,1.81.26,3.05,3.05,0,0,1,1.24.77,3.11,3.11,0,0,1,.72,1.28,6.33,6.33,0,0,1,.23,1.8V94h-1.34V87.09a3.67,3.67,0,0,0-.68-2.41,2.58,2.58,0,0,0-2.09-.82,3.46,3.46,0,0,0-1.43.29,3.14,3.14,0,0,0-1.08.8,3.6,3.6,0,0,0-.68,1.19A4.39,4.39,0,0,0,542,87.6V94h-1.34V83.06H542V85h0a3.32,3.32,0,0,1,.58-.93,3.63,3.63,0,0,1,.82-.69,3.92,3.92,0,0,1,1-.43A4.15,4.15,0,0,1,545.52,82.75Z"/><path class="cls-4" d="M561.31,91a2.79,2.79,0,0,1-.37,1.46,3.14,3.14,0,0,1-1,1,4.55,4.55,0,0,1-1.41.61,6.6,6.6,0,0,1-1.63.2,6.09,6.09,0,0,1-1.79-.24,4,4,0,0,1-1.34-.68,3.31,3.31,0,0,1-.88-1.07,4,4,0,0,1-.42-1.41h1.35a2.82,2.82,0,0,0,.33.93,2.34,2.34,0,0,0,.63.72,3,3,0,0,0,.94.46,4.25,4.25,0,0,0,1.24.17,5,5,0,0,0,1-.11,3.41,3.41,0,0,0,1-.35,2.25,2.25,0,0,0,.74-.64,1.6,1.6,0,0,0,.29-1,1.55,1.55,0,0,0-.57-1.22,4.34,4.34,0,0,0-1.88-.77l-1.67-.37a6.69,6.69,0,0,1-1.29-.41,3.49,3.49,0,0,1-1-.61,2.42,2.42,0,0,1-.6-.83,2.69,2.69,0,0,1-.21-1.08,2.61,2.61,0,0,1,.36-1.39,3,3,0,0,1,.93-1,4.23,4.23,0,0,1,1.3-.55,6.28,6.28,0,0,1,1.48-.18,5.44,5.44,0,0,1,1.54.21,3.82,3.82,0,0,1,1.22.59,3.05,3.05,0,0,1,.84,1,3.47,3.47,0,0,1,.41,1.3h-1.34a2.2,2.2,0,0,0-.31-.83,2.07,2.07,0,0,0-.6-.61,2.84,2.84,0,0,0-.84-.37,4,4,0,0,0-1-.13,4.8,4.8,0,0,0-1,.1,2.67,2.67,0,0,0-.84.32,1.79,1.79,0,0,0-.6.58,1.63,1.63,0,0,0-.22.88,1.24,1.24,0,0,0,.22.73,2.1,2.1,0,0,0,.55.54,3.15,3.15,0,0,0,.73.37,6,6,0,0,0,.77.22l2.29.51a4.78,4.78,0,0,1,1,.34,3,3,0,0,1,.83.58,2.74,2.74,0,0,1,.57.85A2.86,2.86,0,0,1,561.31,91Z"/><path class="cls-4" d="M573.94,88.53a7.14,7.14,0,0,1-.34,2.19,5.52,5.52,0,0,1-1,1.88,4.83,4.83,0,0,1-3.82,1.73A4.73,4.73,0,0,1,565,92.69a6.79,6.79,0,0,1,0-8.31,5.14,5.14,0,0,1,7.51,0A6.08,6.08,0,0,1,573.94,88.53Zm-1.34,0a6.33,6.33,0,0,0-.22-1.66,4.7,4.7,0,0,0-.7-1.5,3.76,3.76,0,0,0-1.2-1.09,3.42,3.42,0,0,0-1.73-.42,3.3,3.3,0,0,0-1.64.4,3.74,3.74,0,0,0-1.2,1.06,4.75,4.75,0,0,0-.73,1.5,6.1,6.1,0,0,0-.24,1.71,6,6,0,0,0,.24,1.66,4.93,4.93,0,0,0,.71,1.5,3.72,3.72,0,0,0,1.19,1.08,3.3,3.3,0,0,0,1.68.42,3.27,3.27,0,0,0,1.63-.4,3.88,3.88,0,0,0,1.21-1,4.67,4.67,0,0,0,.75-1.49A5.9,5.9,0,0,0,572.6,88.53Z"/><path class="cls-4" d="M576.93,94V83.06h1.24v2.56h0a4.27,4.27,0,0,1,1.5-2,3.87,3.87,0,0,1,2.29-.71h.48v1.33h-.3a3.7,3.7,0,0,0-2.84,1.14,3.93,3.93,0,0,0-1.07,2.81V94Z"/><path class="cls-4" d="M664,94V81.68h0L659.14,94h-1.3L653,81.68h0V94h-1.37V79.74h2l4.92,12.5h0l4.9-12.5h2V94Z"/><path class="cls-4" d="M678.73,88.53a7.14,7.14,0,0,1-.34,2.19,5.52,5.52,0,0,1-1,1.88,4.83,4.83,0,0,1-3.82,1.73,4.73,4.73,0,0,1-3.74-1.63,6.79,6.79,0,0,1,0-8.31,5.14,5.14,0,0,1,7.51,0A6.08,6.08,0,0,1,678.73,88.53Zm-1.34,0a6.33,6.33,0,0,0-.22-1.66,4.7,4.7,0,0,0-.7-1.5,3.76,3.76,0,0,0-1.2-1.09,3.42,3.42,0,0,0-1.73-.42,3.3,3.3,0,0,0-1.64.4,3.74,3.74,0,0,0-1.2,1.06,4.75,4.75,0,0,0-.73,1.5,6.1,6.1,0,0,0-.24,1.71,6,6,0,0,0,.24,1.66,4.93,4.93,0,0,0,.71,1.5,3.72,3.72,0,0,0,1.19,1.08,3.3,3.3,0,0,0,1.68.42,3.27,3.27,0,0,0,1.63-.4,3.88,3.88,0,0,0,1.21-1,4.67,4.67,0,0,0,.75-1.49A5.9,5.9,0,0,0,677.39,88.53Z"/><path class="cls-4" d="M681.73,94V83.06H683v2.56h0a4.27,4.27,0,0,1,1.5-2,3.87,3.87,0,0,1,2.29-.71h.48v1.33H687a3.7,3.7,0,0,0-2.84,1.14,3.93,3.93,0,0,0-1.07,2.81V94Z"/><path class="cls-4" d="M693.47,82.75a4.52,4.52,0,0,1,2.17.49,4.33,4.33,0,0,1,1.49,1.31,5.75,5.75,0,0,1,.87,1.89,8.67,8.67,0,0,1,.28,2.23v.21h-8.42a6,6,0,0,0,.21,1.57,4.31,4.31,0,0,0,.64,1.38,3.31,3.31,0,0,0,1.1,1,3.19,3.19,0,0,0,1.58.37,4.05,4.05,0,0,0,1.17-.16,3.35,3.35,0,0,0,.93-.43,2.91,2.91,0,0,0,.69-.65,4,4,0,0,0,.48-.82H698a5,5,0,0,1-.64,1.31,4.13,4.13,0,0,1-1,1,4.43,4.43,0,0,1-1.31.64,5.55,5.55,0,0,1-1.66.23,4.89,4.89,0,0,1-2.16-.44,4.26,4.26,0,0,1-1.52-1.22,5.19,5.19,0,0,1-.9-1.84,8.56,8.56,0,0,1-.29-2.29,7.76,7.76,0,0,1,.3-2.14,5.61,5.61,0,0,1,.9-1.85,4.57,4.57,0,0,1,1.54-1.3A4.66,4.66,0,0,1,693.47,82.75Zm3.48,5a5.08,5.08,0,0,0-.26-1.41A4.07,4.07,0,0,0,696,85.1a3.47,3.47,0,0,0-1.08-.9,3.07,3.07,0,0,0-1.47-.34,3.17,3.17,0,0,0-1.44.31A3.2,3.2,0,0,0,691,85a4.52,4.52,0,0,0-.7,1.25,7.18,7.18,0,0,0-.39,1.5Z"/><rect class="cls-5" x="0.5" y="4" width="750" height="1"/><rect class="cls-6" x="0.5" width="750" height="4"/></svg>