<svg id="Layer_1" data-name="Layer 1" xmlns="http://www.w3.org/2000/svg" viewBox="0 0 750 313.13"><defs><style>.cls-1{fill:#fff;}.cls-2,.cls-4{fill:none;stroke-miterlimit:10;}.cls-2{stroke:#267bbd;stroke-width:2px;}.cls-3{fill:#0096e0;}.cls-4{stroke:#fff;stroke-width:8px;}.cls-5{fill:#0aaeff;}.cls-6{fill:#dcdcdc;}</style></defs><title>Artboard 19</title><rect class="cls-1" width="750" height="313.13"/><line class="cls-2" x1="375" y1="312.13" x2="750" y2="312.13"/><rect class="cls-3" y="195.13" width="750" height="118"/><path class="cls-1" d="M315.35,239.86l11.57,18H327v-18h4v24.27h-4.33l-11.57-18h-.07v18h-4V239.86Z"/><path class="cls-1" d="M344.65,245a8.54,8.54,0,0,1,3.81.81,7.9,7.9,0,0,1,2.73,2.18,9.46,9.46,0,0,1,1.64,3.21,13.48,13.48,0,0,1,.55,3.88v.75H339.64a7.83,7.83,0,0,0,.38,2.3,5.38,5.38,0,0,0,1,1.78,4.37,4.37,0,0,0,1.53,1.16,4.8,4.8,0,0,0,2,.42,5.39,5.39,0,0,0,2.76-.65,4.81,4.81,0,0,0,1.73-1.71h3.87a8.7,8.7,0,0,1-1.28,2.3,8,8,0,0,1-1.88,1.74,8.55,8.55,0,0,1-2.41,1.1,10.38,10.38,0,0,1-2.87.38,9.28,9.28,0,0,1-3.76-.73,8,8,0,0,1-2.82-2,9,9,0,0,1-1.77-3.1,12.19,12.19,0,0,1-.61-4,11.47,11.47,0,0,1,.61-3.76,9.34,9.34,0,0,1,1.78-3.13,8.6,8.6,0,0,1,2.86-2.14A8.94,8.94,0,0,1,344.65,245Zm4.63,8.07a7.85,7.85,0,0,0-.46-2,4.89,4.89,0,0,0-.94-1.55,4.05,4.05,0,0,0-1.43-1,4.9,4.9,0,0,0-1.93-.36,5,5,0,0,0-2,.37,4.28,4.28,0,0,0-1.46,1,5.08,5.08,0,0,0-1,1.55,7.19,7.19,0,0,0-.49,2Z"/><path class="cls-1" d="M360.07,245.51l4,5.68,3.93-5.68h4.65l-6.33,8.8,7,9.83h-4.78L364,257.56l-4.55,6.57h-4.7l6.89-9.74-6.31-8.88Z"/><path class="cls-1" d="M385.67,264.28l-.8,0-.82,0h-.74a13,13,0,0,1-2.08-.16,4.47,4.47,0,0,1-1.69-.61,3.16,3.16,0,0,1-1.14-1.27,4.72,4.72,0,0,1-.42-2.14V248.4h-3.65v-2.89H378v-5.58h4.1v5.58h4.25v2.89h-4.25v10.54a2.34,2.34,0,0,0,.47,1.64,2.28,2.28,0,0,0,1.69.5h.48l.57,0,.56,0,.47,0v3.24A6.2,6.2,0,0,1,385.67,264.28Z"/><line class="cls-4" x1="431.85" y1="253.13" x2="409.85" y2="253.13"/><polygon class="cls-1" points="425.86 241.13 441.86 253.13 425.86 265.13 425.86 241.13"/><rect class="cls-5" x="279" y="152.13" width="12" height="12"/><rect class="cls-5" x="315" y="152.13" width="12" height="12"/><rect class="cls-5" x="351" y="152.13" width="12" height="12"/><rect class="cls-5" x="387" y="152.13" width="12" height="12"/><rect class="cls-6" x="423" y="152.13" width="12" height="12"/><rect class="cls-6" x="459" y="152.13" width="12" height="12"/></svg>