<svg id="Layer_1" data-name="Layer 1" xmlns="http://www.w3.org/2000/svg" viewBox="0 0 529 118"><defs><style>.cls-1{fill:#282828;}.cls-10,.cls-11,.cls-2{fill:none;}.cls-3{fill:#323232;}.cls-10,.cls-4{opacity:0.55;}.cls-5{fill:#787878;}.cls-6{fill:#c8c8c8;}.cls-7{fill:#0f0f0f;opacity:0.6;}.cls-8{opacity:0.8;}.cls-9{fill:#f5f5f5;}.cls-10{stroke:#787878;stroke-opacity:0.55;}.cls-10,.cls-11{stroke-miterlimit:10;}.cls-11{stroke:#0aaeff;stroke-width:3px;}</style></defs><title>Artboard 15</title><rect class="cls-1" width="529" height="140"/><line class="cls-2" x1="32" y1="31" x2="265" y2="32"/><rect class="cls-3" x="33" y="32" width="468" height="57"/><g class="cls-4"><path class="cls-5" d="M501,32V89H33V32H501m1-1H32V90H502V31Z"/></g><path class="cls-6" d="M313.18,50.5V62.14a4.92,4.92,0,0,0,1.06,3.46,4.38,4.38,0,0,0,3.34,1.14,4.5,4.5,0,0,0,3.36-1.1A4.84,4.84,0,0,0,322,62.15V50.5h3.25V62.28a7.12,7.12,0,0,1-2,5.27,7.82,7.82,0,0,1-5.73,1.94,10.47,10.47,0,0,1-3.29-.49,6.06,6.06,0,0,1-3.9-3.79,8.74,8.74,0,0,1-.46-2.93V50.5Z"/><path class="cls-6" d="M336.9,54.43a7,7,0,0,1,2.38.36,3.91,3.91,0,0,1,1.61,1.05,4.23,4.23,0,0,1,.91,1.75,9.29,9.29,0,0,1,.29,2.43v9H339V60.6a4.58,4.58,0,0,0-.69-2.74,2.58,2.58,0,0,0-2.22-.93A3.2,3.2,0,0,0,333.39,58a4.94,4.94,0,0,0-.89,3.15v7.86h-3.12V54.81h3V57h.08a4.66,4.66,0,0,1,.8-1.08,4.87,4.87,0,0,1,1-.79,5.07,5.07,0,0,1,1.23-.5A5.43,5.43,0,0,1,336.9,54.43Z"/><path class="cls-6" d="M352.94,60.25v2.58h-7.35V60.25Z"/><path class="cls-6" d="M368.21,64.75a4.34,4.34,0,0,1-.49,2.12,4.25,4.25,0,0,1-1.33,1.47,5.83,5.83,0,0,1-2,.85,10.41,10.41,0,0,1-2.43.27,9.87,9.87,0,0,1-2.35-.27,6,6,0,0,1-1.92-.82A4.64,4.64,0,0,1,356.36,67a4.77,4.77,0,0,1-.66-2h3a2.49,2.49,0,0,0,1.1,1.74,3.24,3.24,0,0,0,1,.44,4.8,4.8,0,0,0,1.21.15,5.17,5.17,0,0,0,1.15-.13,3.13,3.13,0,0,0,1-.39,2.2,2.2,0,0,0,.69-.67,1.69,1.69,0,0,0,.26-.95,1.33,1.33,0,0,0-.21-.75,2,2,0,0,0-.58-.56,3.87,3.87,0,0,0-.86-.4q-.49-.17-1-.29l-2-.48a13.06,13.06,0,0,1-2-.61,5.13,5.13,0,0,1-1.37-.8,2.88,2.88,0,0,1-.8-1.05,3.41,3.41,0,0,1-.26-1.37,3.83,3.83,0,0,1,.46-1.92,4,4,0,0,1,1.26-1.36,5.84,5.84,0,0,1,1.88-.81,9.67,9.67,0,0,1,2.32-.27,8.42,8.42,0,0,1,2.3.29,5.68,5.68,0,0,1,1.77.83,4.13,4.13,0,0,1,1.18,1.29,4.22,4.22,0,0,1,.54,1.67h-3a2.21,2.21,0,0,0-1-1.4,3.57,3.57,0,0,0-2-.49,4.93,4.93,0,0,0-1,.1,2.74,2.74,0,0,0-.84.31,1.67,1.67,0,0,0-.57.53,1.41,1.41,0,0,0-.21.78,1.29,1.29,0,0,0,.22.75,2,2,0,0,0,.56.53,3.21,3.21,0,0,0,.75.36c.27.09.54.16.79.22l3,.71a9.47,9.47,0,0,1,1.48.48,4.23,4.23,0,0,1,1.18.73,3.19,3.19,0,0,1,.79,1.09A4,4,0,0,1,368.21,64.75Z"/><path class="cls-6" d="M377.65,54.43a6.52,6.52,0,0,1,2.91.62,6,6,0,0,1,2.09,1.67,7.22,7.22,0,0,1,1.26,2.46,10.3,10.3,0,0,1,.42,3v.57H373.81a6,6,0,0,0,.29,1.76,4.12,4.12,0,0,0,.75,1.37,3.35,3.35,0,0,0,1.17.89,3.68,3.68,0,0,0,1.56.32,4.13,4.13,0,0,0,2.11-.49A3.68,3.68,0,0,0,381,65.23h3A6.62,6.62,0,0,1,383,67a6.13,6.13,0,0,1-1.44,1.33,6.51,6.51,0,0,1-1.84.84,7.91,7.91,0,0,1-2.2.29,7.1,7.1,0,0,1-2.87-.56,6.11,6.11,0,0,1-2.16-1.56A6.89,6.89,0,0,1,371.15,65a9.32,9.32,0,0,1-.47-3,8.76,8.76,0,0,1,.47-2.88,7.14,7.14,0,0,1,1.36-2.39A6.57,6.57,0,0,1,374.7,55,6.84,6.84,0,0,1,377.65,54.43Zm3.54,6.17a6,6,0,0,0-.36-1.53,3.72,3.72,0,0,0-.72-1.19,3.1,3.1,0,0,0-1.09-.77,4.14,4.14,0,0,0-3,0,3.26,3.26,0,0,0-1.12.77,3.9,3.9,0,0,0-.75,1.19,5.47,5.47,0,0,0-.37,1.52Z"/><path class="cls-6" d="M390.83,49.38V69.06h-3.14V49.38Z"/><path class="cls-6" d="M401.2,54.43a6.53,6.53,0,0,1,2.91.62,6,6,0,0,1,2.09,1.67,7.22,7.22,0,0,1,1.26,2.46,10.3,10.3,0,0,1,.42,3v.57H397.36a6,6,0,0,0,.29,1.76,4.13,4.13,0,0,0,.75,1.37,3.36,3.36,0,0,0,1.17.89,3.69,3.69,0,0,0,1.56.32,4.12,4.12,0,0,0,2.11-.49,3.67,3.67,0,0,0,1.33-1.31h3a6.65,6.65,0,0,1-1,1.76,6.14,6.14,0,0,1-1.43,1.33,6.52,6.52,0,0,1-1.84.84,7.89,7.89,0,0,1-2.2.29,7.11,7.11,0,0,1-2.88-.56A6.12,6.12,0,0,1,396,67.35,6.89,6.89,0,0,1,394.7,65a9.35,9.35,0,0,1-.47-3,8.79,8.79,0,0,1,.47-2.88,7.16,7.16,0,0,1,1.37-2.39A6.57,6.57,0,0,1,398.25,55,6.84,6.84,0,0,1,401.2,54.43Zm3.54,6.17a6,6,0,0,0-.36-1.53,3.74,3.74,0,0,0-.72-1.19,3.1,3.1,0,0,0-1.09-.77,4.14,4.14,0,0,0-3,0,3.26,3.26,0,0,0-1.12.77,3.88,3.88,0,0,0-.75,1.19,5.51,5.51,0,0,0-.37,1.52Z"/><path class="cls-6" d="M417.61,54.43a8.85,8.85,0,0,1,2.3.29,6.12,6.12,0,0,1,1.93.88,4.91,4.91,0,0,1,1.38,1.47,5,5,0,0,1,.68,2.06h-3.09a2.63,2.63,0,0,0-1-1.7,3.67,3.67,0,0,0-2.2-.59,3.33,3.33,0,0,0-1.76.45,3.89,3.89,0,0,0-1.23,1.18,5.3,5.3,0,0,0-.72,1.65,7.5,7.5,0,0,0-.23,1.86,7.59,7.59,0,0,0,.21,1.77,5.27,5.27,0,0,0,.69,1.63,3.87,3.87,0,0,0,1.21,1.19,3.27,3.27,0,0,0,1.78.46,3.92,3.92,0,0,0,1.29-.2,3.21,3.21,0,0,0,1-.57,3,3,0,0,0,.72-.88,3.79,3.79,0,0,0,.39-1.14h3a6.65,6.65,0,0,1-.71,2.13A5.62,5.62,0,0,1,421.95,68,6,6,0,0,1,420,69.08a7.57,7.57,0,0,1-2.48.38,7.2,7.2,0,0,1-2.86-.55,6.55,6.55,0,0,1-2.22-1.54A7,7,0,0,1,411,65a8.28,8.28,0,0,1-.51-3,9.19,9.19,0,0,1,.46-2.95,7.19,7.19,0,0,1,1.36-2.43A6.45,6.45,0,0,1,414.57,55,7.21,7.21,0,0,1,417.61,54.43Z"/><path class="cls-6" d="M434.35,69.16l-.61,0-.63,0h-.56a9.88,9.88,0,0,1-1.59-.12,3.44,3.44,0,0,1-1.29-.47,2.42,2.42,0,0,1-.87-1,3.61,3.61,0,0,1-.32-1.64V57h-2.79V54.81h2.79V50.55h3.14v4.27h3.25V57H431.6v8.06a1.79,1.79,0,0,0,.36,1.26,1.74,1.74,0,0,0,1.29.38h.37l.44,0,.43,0,.36,0v2.48Z"/><path class="cls-6" d="M443.87,54.43a6.52,6.52,0,0,1,2.91.62,6,6,0,0,1,2.09,1.67,7.22,7.22,0,0,1,1.26,2.46,10.3,10.3,0,0,1,.42,3v.57H440a6,6,0,0,0,.29,1.76,4.12,4.12,0,0,0,.75,1.37,3.35,3.35,0,0,0,1.17.89,3.68,3.68,0,0,0,1.56.32,4.13,4.13,0,0,0,2.11-.49,3.68,3.68,0,0,0,1.33-1.31h3a6.62,6.62,0,0,1-1,1.76,6.13,6.13,0,0,1-1.44,1.33,6.51,6.51,0,0,1-1.84.84,7.91,7.91,0,0,1-2.2.29,7.1,7.1,0,0,1-2.87-.56,6.11,6.11,0,0,1-2.16-1.56A6.89,6.89,0,0,1,437.37,65a9.32,9.32,0,0,1-.47-3,8.76,8.76,0,0,1,.47-2.88,7.14,7.14,0,0,1,1.36-2.39A6.57,6.57,0,0,1,440.92,55,6.84,6.84,0,0,1,443.87,54.43Zm3.54,6.17a6,6,0,0,0-.36-1.53,3.72,3.72,0,0,0-.72-1.19,3.1,3.1,0,0,0-1.09-.77,4.14,4.14,0,0,0-3,0,3.26,3.26,0,0,0-1.12.77,3.9,3.9,0,0,0-.75,1.19A5.47,5.47,0,0,0,440,60.6Z"/><path class="cls-6" d="M467.13,49.38V69.06h-3V66.92h-.05a4.51,4.51,0,0,1-.79,1.07,4.69,4.69,0,0,1-1.07.8,5.29,5.29,0,0,1-1.29.5,6.05,6.05,0,0,1-1.45.17,5.9,5.9,0,0,1-2.77-.62,6,6,0,0,1-2-1.67,7.36,7.36,0,0,1-1.21-2.42,10.17,10.17,0,0,1-.41-2.89,9.78,9.78,0,0,1,.39-2.74,7.22,7.22,0,0,1,1.17-2.38,6,6,0,0,1,2-1.68,6.31,6.31,0,0,1,4.16-.48,5.38,5.38,0,0,1,1.25.46,4.49,4.49,0,0,1,1.06.77,4.43,4.43,0,0,1,.81,1.07H464V49.38ZM456.23,61.92a7.86,7.86,0,0,0,.21,1.77,5.28,5.28,0,0,0,.68,1.65,3.91,3.91,0,0,0,1.21,1.22,3.26,3.26,0,0,0,1.8.48,3.75,3.75,0,0,0,1.71-.37,3.4,3.4,0,0,0,1.24-1.05,4.89,4.89,0,0,0,.75-1.62,8,8,0,0,0,.25-2.08,8.07,8.07,0,0,0-.21-1.82,5,5,0,0,0-.68-1.62A3.73,3.73,0,0,0,462,57.29a3.55,3.55,0,0,0-1.85-.45,3.38,3.38,0,0,0-1.77.44,3.68,3.68,0,0,0-1.2,1.16,5.07,5.07,0,0,0-.69,1.63A8.43,8.43,0,0,0,456.23,61.92Z"/><rect class="cls-7" x="33" y="32" width="232" height="57"/><g class="cls-8"><path d="M265,32V89H33V32H265m1-1H32V90H266V31Z"/></g><path class="cls-9" d="M106.74,63.76a5.12,5.12,0,0,1-.63,2.61,5.22,5.22,0,0,1-1.69,1.78,7.6,7.6,0,0,1-2.45,1,12.75,12.75,0,0,1-2.9.32,11.18,11.18,0,0,1-3-.37A7.3,7.3,0,0,1,93.72,68a5.38,5.38,0,0,1-1.6-1.81,5.15,5.15,0,0,1-.58-2.49v-.22h3.19v.12a2.89,2.89,0,0,0,.36,1.46,3,3,0,0,0,1,1,4.54,4.54,0,0,0,1.45.62,7.85,7.85,0,0,0,3.43,0,4.44,4.44,0,0,0,1.36-.54,2.82,2.82,0,0,0,.92-.89,2.31,2.31,0,0,0,.34-1.26,2,2,0,0,0-.81-1.64,7.06,7.06,0,0,0-2.52-1.1l-4-1.05a6.14,6.14,0,0,1-3.11-1.68,4.35,4.35,0,0,1-1-3,4.86,4.86,0,0,1,.56-2.37,5.12,5.12,0,0,1,1.52-1.71,7,7,0,0,1,2.23-1,10,10,0,0,1,2.7-.36,10.12,10.12,0,0,1,2.57.32,7,7,0,0,1,2.2,1A5,5,0,0,1,105.45,53a4.87,4.87,0,0,1,.6,2.37h-3.16a2.69,2.69,0,0,0-.34-1.12,2.74,2.74,0,0,0-.79-.88,3.92,3.92,0,0,0-1.19-.57,5.42,5.42,0,0,0-1.54-.2,6.28,6.28,0,0,0-1.44.16,3.79,3.79,0,0,0-1.19.49,2.49,2.49,0,0,0-.81.83,2.28,2.28,0,0,0-.3,1.19,2.16,2.16,0,0,0,.15.85,1.75,1.75,0,0,0,.43.61,2.32,2.32,0,0,0,.67.42,6.62,6.62,0,0,0,.88.29l4.38,1.15a8,8,0,0,1,3.69,1.88A4.39,4.39,0,0,1,106.74,63.76Z"/><path class="cls-9" d="M115.88,54.43a6.52,6.52,0,0,1,2.91.62,6,6,0,0,1,2.09,1.67,7.22,7.22,0,0,1,1.26,2.46,10.3,10.3,0,0,1,.42,3v.57H112a6,6,0,0,0,.29,1.76,4.12,4.12,0,0,0,.75,1.37,3.36,3.36,0,0,0,1.17.89,3.69,3.69,0,0,0,1.56.32,4.12,4.12,0,0,0,2.11-.49,3.67,3.67,0,0,0,1.33-1.31h3a6.64,6.64,0,0,1-1,1.76,6.14,6.14,0,0,1-1.43,1.33,6.52,6.52,0,0,1-1.84.84,7.9,7.9,0,0,1-2.2.29,7.11,7.11,0,0,1-2.88-.56,6.12,6.12,0,0,1-2.16-1.56A6.89,6.89,0,0,1,109.38,65a9.33,9.33,0,0,1-.47-3,8.77,8.77,0,0,1,.47-2.88,7.15,7.15,0,0,1,1.36-2.39A6.57,6.57,0,0,1,112.93,55,6.84,6.84,0,0,1,115.88,54.43Zm3.54,6.17a6,6,0,0,0-.36-1.53,3.73,3.73,0,0,0-.72-1.19,3.1,3.1,0,0,0-1.09-.77,4.14,4.14,0,0,0-3,0,3.26,3.26,0,0,0-1.12.77,3.89,3.89,0,0,0-.75,1.19A5.49,5.49,0,0,0,112,60.6Z"/><path class="cls-9" d="M129.06,49.38V69.06h-3.14V49.38Z"/><path class="cls-9" d="M139.43,54.43a6.52,6.52,0,0,1,2.91.62,6,6,0,0,1,2.09,1.67,7.22,7.22,0,0,1,1.26,2.46,10.3,10.3,0,0,1,.42,3v.57H135.59a6,6,0,0,0,.29,1.76,4.12,4.12,0,0,0,.75,1.37,3.36,3.36,0,0,0,1.17.89,3.69,3.69,0,0,0,1.56.32,4.12,4.12,0,0,0,2.11-.49,3.67,3.67,0,0,0,1.33-1.31h3a6.64,6.64,0,0,1-1,1.76,6.14,6.14,0,0,1-1.43,1.33,6.52,6.52,0,0,1-1.84.84,7.9,7.9,0,0,1-2.2.29,7.11,7.11,0,0,1-2.88-.56,6.12,6.12,0,0,1-2.16-1.56A6.89,6.89,0,0,1,132.93,65a9.33,9.33,0,0,1-.47-3,8.77,8.77,0,0,1,.47-2.88,7.15,7.15,0,0,1,1.36-2.39A6.57,6.57,0,0,1,136.48,55,6.84,6.84,0,0,1,139.43,54.43ZM143,60.6a6,6,0,0,0-.36-1.53,3.73,3.73,0,0,0-.72-1.19,3.1,3.1,0,0,0-1.09-.77,4.14,4.14,0,0,0-3,0,3.26,3.26,0,0,0-1.12.77,3.89,3.89,0,0,0-.75,1.19,5.49,5.49,0,0,0-.37,1.52Z"/><path class="cls-9" d="M155.84,54.43a8.85,8.85,0,0,1,2.3.29,6.12,6.12,0,0,1,1.93.88,4.92,4.92,0,0,1,1.38,1.47,5,5,0,0,1,.68,2.06h-3.08a2.63,2.63,0,0,0-1-1.7,3.66,3.66,0,0,0-2.2-.59,3.33,3.33,0,0,0-1.76.45,3.9,3.9,0,0,0-1.23,1.18,5.3,5.3,0,0,0-.72,1.65,7.48,7.48,0,0,0-.23,1.86,7.56,7.56,0,0,0,.22,1.77,5.25,5.25,0,0,0,.69,1.63A3.86,3.86,0,0,0,154,66.57a3.27,3.27,0,0,0,1.78.46,3.91,3.91,0,0,0,1.29-.2,3.2,3.2,0,0,0,1-.57,3,3,0,0,0,.72-.88,3.81,3.81,0,0,0,.39-1.14h3a6.66,6.66,0,0,1-.71,2.13A5.63,5.63,0,0,1,160.18,68a6,6,0,0,1-1.92,1.07,7.56,7.56,0,0,1-2.48.38,7.21,7.21,0,0,1-2.86-.55,6.54,6.54,0,0,1-2.22-1.54A7,7,0,0,1,149.26,65a8.28,8.28,0,0,1-.51-3,9.21,9.21,0,0,1,.46-2.95,7.18,7.18,0,0,1,1.36-2.43A6.44,6.44,0,0,1,152.8,55,7.21,7.21,0,0,1,155.84,54.43Z"/><path class="cls-9" d="M172.58,69.16l-.61,0-.63,0h-.56a9.88,9.88,0,0,1-1.59-.12,3.44,3.44,0,0,1-1.29-.47,2.42,2.42,0,0,1-.87-1A3.62,3.62,0,0,1,166.7,66V57H163.9V54.81h2.79V50.55h3.14v4.27h3.25V57h-3.25v8.06a1.79,1.79,0,0,0,.36,1.26,1.74,1.74,0,0,0,1.29.38h.37l.44,0,.43,0,.36,0v2.48Z"/><path class="cls-9" d="M182.1,54.43A6.52,6.52,0,0,1,185,55a6,6,0,0,1,2.09,1.67,7.22,7.22,0,0,1,1.26,2.46,10.3,10.3,0,0,1,.42,3v.57H178.26a6,6,0,0,0,.29,1.76,4.12,4.12,0,0,0,.75,1.37,3.36,3.36,0,0,0,1.17.89A3.69,3.69,0,0,0,182,67a4.12,4.12,0,0,0,2.11-.49,3.67,3.67,0,0,0,1.33-1.31h3a6.64,6.64,0,0,1-1,1.76A6.14,6.14,0,0,1,186,68.33a6.52,6.52,0,0,1-1.84.84,7.9,7.9,0,0,1-2.2.29,7.11,7.11,0,0,1-2.88-.56,6.12,6.12,0,0,1-2.16-1.56A6.89,6.89,0,0,1,175.6,65a9.33,9.33,0,0,1-.47-3,8.77,8.77,0,0,1,.47-2.88A7.15,7.15,0,0,1,177,56.68,6.57,6.57,0,0,1,179.15,55,6.84,6.84,0,0,1,182.1,54.43Zm3.54,6.17a6,6,0,0,0-.36-1.53,3.73,3.73,0,0,0-.72-1.19,3.1,3.1,0,0,0-1.09-.77,4.14,4.14,0,0,0-3,0,3.26,3.26,0,0,0-1.12.77,3.89,3.89,0,0,0-.75,1.19,5.49,5.49,0,0,0-.37,1.52Z"/><path class="cls-9" d="M205.35,49.38V69.06h-3V66.92h-.05a4.5,4.5,0,0,1-.79,1.07,4.69,4.69,0,0,1-1.07.8,5.29,5.29,0,0,1-1.29.5,6,6,0,0,1-1.45.17,5.9,5.9,0,0,1-2.77-.62,6,6,0,0,1-2-1.67,7.34,7.34,0,0,1-1.21-2.42,10.15,10.15,0,0,1-.41-2.89,9.8,9.8,0,0,1,.39-2.74,7.22,7.22,0,0,1,1.17-2.38,6,6,0,0,1,2-1.68,6.31,6.31,0,0,1,4.16-.48,5.37,5.37,0,0,1,1.25.46,4.45,4.45,0,0,1,1.87,1.84h.05V49.38ZM194.46,61.92a7.86,7.86,0,0,0,.21,1.77,5.29,5.29,0,0,0,.68,1.65,3.92,3.92,0,0,0,1.21,1.22,3.26,3.26,0,0,0,1.8.48,3.75,3.75,0,0,0,1.71-.37,3.41,3.41,0,0,0,1.24-1.05,4.88,4.88,0,0,0,.75-1.62,8.34,8.34,0,0,0,0-3.9,5,5,0,0,0-.68-1.62,3.72,3.72,0,0,0-1.23-1.17,3.55,3.55,0,0,0-1.85-.45,3.38,3.38,0,0,0-1.77.44,3.68,3.68,0,0,0-1.2,1.16,5.09,5.09,0,0,0-.69,1.63A8.49,8.49,0,0,0,194.46,61.92Z"/><line class="cls-10" x1="266.5" y1="32" x2="266.5" y2="89"/><line class="cls-11" x1="32" y1="32.5" x2="266" y2="32.5"/></svg>