<svg id="Layer_1" data-name="Layer 1" xmlns="http://www.w3.org/2000/svg" viewBox="0 0 255 326"><defs><style>.cls-1{fill:#464646;}.cls-2{fill:#cdcdcd;opacity:0.6;}.cls-3{opacity:0.4;}.cls-4{fill:#c3c3c3;}.cls-5{opacity:0.5;}.cls-6{opacity:0.2;}.cls-7{opacity:0.3;}.cls-8{fill:#0096e0;}.cls-9{fill:#787878;}.cls-10{fill:#0aaeff;}.cls-11{fill:#fff;}.cls-12{fill:none;}.cls-13{fill:#0076b7;}</style></defs><title>Artboard 13</title><path class="cls-1" d="M35,130.83l-1-2.66H30.06l-1,2.66h-.87l3.45-8.55h.91l3.36,8.55Zm-3-7.73h0l-1.71,4.38h3.37Z"/><path class="cls-1" d="M39.84,124.08a3.46,3.46,0,0,1,1,.13,2.53,2.53,0,0,1,.78.38,2,2,0,0,1,.56.61,2.31,2.31,0,0,1,.29.82h-.8a1.73,1.73,0,0,0-.22-.52,1.5,1.5,0,0,0-.37-.4,1.7,1.7,0,0,0-.53-.26,2.34,2.34,0,0,0-.68-.09,2,2,0,0,0-1,.23,2.19,2.19,0,0,0-.72.63,2.91,2.91,0,0,0-.44.9,3.58,3.58,0,0,0-.15,1,3.67,3.67,0,0,0,.14,1,2.88,2.88,0,0,0,.42.9,2.26,2.26,0,0,0,.71.65,2,2,0,0,0,1,.25,1.93,1.93,0,0,0,.71-.13,1.88,1.88,0,0,0,.56-.34,1.79,1.79,0,0,0,.39-.49,1.87,1.87,0,0,0,.21-.58h.8a3,3,0,0,1-.29.85,2.49,2.49,0,0,1-.55.7,2.54,2.54,0,0,1-.8.48,2.88,2.88,0,0,1-1,.18,3,3,0,0,1-1.29-.27,2.85,2.85,0,0,1-1-.74,3.28,3.28,0,0,1-.61-1.1,4.47,4.47,0,0,1,0-2.67,3.31,3.31,0,0,1,.59-1.11,2.9,2.9,0,0,1,1-.77A3,3,0,0,1,39.84,124.08Z"/><path class="cls-1" d="M46.91,130.9h-.66a3,3,0,0,1-.68-.06,1,1,0,0,1-.45-.23.89.89,0,0,1-.25-.43,2.65,2.65,0,0,1-.07-.68v-4.56H43.49v-.67H44.8v-2h.8v2h1.5v.67h-1.5v4.48a1.76,1.76,0,0,0,0,.34.64.64,0,0,0,.11.25.5.5,0,0,0,.21.16.87.87,0,0,0,.35.06h.6l.21,0v.68Z"/><path class="cls-1" d="M49.7,121.4v1.29h-.8V121.4Zm0,2.87v6.56h-.8v-6.56Z"/><path class="cls-1" d="M51.94,124.27,54,130h0l2-5.76h.83l-2.46,6.56h-.85L51,124.27Z"/><path class="cls-1" d="M60.79,124.08a2.71,2.71,0,0,1,1.3.29,2.6,2.6,0,0,1,.9.79,3.45,3.45,0,0,1,.52,1.13,5.21,5.21,0,0,1,.17,1.34v.13H58.63a3.58,3.58,0,0,0,.13.94,2.59,2.59,0,0,0,.39.83,2,2,0,0,0,.66.59,1.92,1.92,0,0,0,.95.22,2.44,2.44,0,0,0,.7-.09A2,2,0,0,0,62,130a1.76,1.76,0,0,0,.42-.39,2.41,2.41,0,0,0,.29-.49h.79a3,3,0,0,1-.38.79,2.48,2.48,0,0,1-.59.6,2.68,2.68,0,0,1-.79.39,3.34,3.34,0,0,1-1,.14,2.94,2.94,0,0,1-1.3-.27,2.56,2.56,0,0,1-.91-.73,3.12,3.12,0,0,1-.54-1.1,5.14,5.14,0,0,1-.18-1.37,4.66,4.66,0,0,1,.18-1.28,3.36,3.36,0,0,1,.54-1.11,2.74,2.74,0,0,1,.92-.78A2.79,2.79,0,0,1,60.79,124.08Zm2.09,3a3,3,0,0,0-.16-.85,2.44,2.44,0,0,0-.41-.75,2.07,2.07,0,0,0-.65-.54,1.84,1.84,0,0,0-.88-.21,1.84,1.84,0,0,0-1.5.7,2.7,2.7,0,0,0-.42.75,4.31,4.31,0,0,0-.23.9Z"/><rect class="cls-2" x="28" y="144" width="195" height="6"/><g class="cls-3"><path class="cls-4" d="M222,145v4H29v-4H222m1-1H28v6H223v-6Z"/></g><g class="cls-5"><path class="cls-1" d="M32,190.81a4.11,4.11,0,0,1,3,1,5.51,5.51,0,0,1,0,6.52,4,4,0,0,1-2.89,1H29.13v-8.57Zm-.22,7.87a3.57,3.57,0,0,0,2.61-.83,3.76,3.76,0,0,0,.84-2.75,3.82,3.82,0,0,0-.82-2.74,3.73,3.73,0,0,0-2.75-.84H29.95v7.17Z"/><path class="cls-1" d="M38.57,189.94v1.29h-.8v-1.29Zm0,2.87v6.56h-.8v-6.56Z"/><path class="cls-1" d="M45.68,197.59a1.67,1.67,0,0,1-.22.88,1.89,1.89,0,0,1-.59.62,2.74,2.74,0,0,1-.84.36,4,4,0,0,1-1,.12,3.66,3.66,0,0,1-1.07-.14,2.4,2.4,0,0,1-.8-.41,2,2,0,0,1-.53-.64,2.4,2.4,0,0,1-.25-.85h.81a1.7,1.7,0,0,0,.2.56,1.41,1.41,0,0,0,.38.43,1.8,1.8,0,0,0,.57.28,2.56,2.56,0,0,0,.74.1,3,3,0,0,0,.6-.06,2.05,2.05,0,0,0,.58-.21,1.35,1.35,0,0,0,.44-.38,1,1,0,0,0,.18-.59.93.93,0,0,0-.34-.73,2.6,2.6,0,0,0-1.13-.46l-1-.22a4,4,0,0,1-.77-.24,2.1,2.1,0,0,1-.58-.37,1.46,1.46,0,0,1-.36-.5,1.62,1.62,0,0,1-.12-.65,1.57,1.57,0,0,1,.21-.83,1.78,1.78,0,0,1,.56-.57,2.53,2.53,0,0,1,.78-.33,3.77,3.77,0,0,1,.89-.11,3.27,3.27,0,0,1,.92.12,2.29,2.29,0,0,1,.73.35,1.83,1.83,0,0,1,.5.57,2.08,2.08,0,0,1,.25.78h-.8a1.32,1.32,0,0,0-.19-.5,1.24,1.24,0,0,0-.36-.37,1.69,1.69,0,0,0-.5-.22,2.36,2.36,0,0,0-.61-.08,2.85,2.85,0,0,0-.58.06,1.59,1.59,0,0,0-.51.19,1.07,1.07,0,0,0-.36.35,1,1,0,0,0-.13.53.74.74,0,0,0,.13.44,1.27,1.27,0,0,0,.33.32,1.93,1.93,0,0,0,.44.22,3.64,3.64,0,0,0,.46.13l1.37.3a2.85,2.85,0,0,1,.59.21,1.77,1.77,0,0,1,.5.35,1.64,1.64,0,0,1,.34.51A1.71,1.71,0,0,1,45.68,197.59Z"/><path class="cls-1" d="M53.11,199.33l-.27,0H52.6a1.37,1.37,0,0,1-.44-.06.65.65,0,0,1-.29-.2.82.82,0,0,1-.16-.35,2.43,2.43,0,0,1,0-.53h0a3,3,0,0,1-1,1,2.79,2.79,0,0,1-1.35.29,2.46,2.46,0,0,1-1.6-.5,1.75,1.75,0,0,1-.6-1.43,1.66,1.66,0,0,1,.66-1.43,6.79,6.79,0,0,1,3-.69,2,2,0,0,0,.44-.08.75.75,0,0,0,.29-.16.6.6,0,0,0,.16-.26,1.28,1.28,0,0,0,0-.38,1.24,1.24,0,0,0-.4-1,2,2,0,0,0-1.31-.34,2.61,2.61,0,0,0-.72.09,1.65,1.65,0,0,0-.53.25,1.13,1.13,0,0,0-.33.39,1.23,1.23,0,0,0-.13.49h-.8a2,2,0,0,1,.22-.78,1.78,1.78,0,0,1,.51-.59,2.43,2.43,0,0,1,.81-.38,4,4,0,0,1,1.09-.13,2.64,2.64,0,0,1,1.83.54,2,2,0,0,1,.59,1.52v3.56a.47.47,0,0,0,.11.33.46.46,0,0,0,.36.12.7.7,0,0,0,.25,0Zm-1.52-3.54h0q-.12.22-.77.31l-.67.1-.74.12a2.67,2.67,0,0,0-1.17.44,1,1,0,0,0-.39.84,1.16,1.16,0,0,0,.43.94,1.6,1.6,0,0,0,1,.35,2.36,2.36,0,0,0,1.63-.58,1.85,1.85,0,0,0,.65-1.44Z"/><path class="cls-1" d="M60.61,196.09a4.77,4.77,0,0,1-.17,1.28,3.38,3.38,0,0,1-.53,1.11,2.69,2.69,0,0,1-.92.79,2.8,2.8,0,0,1-1.33.3,2.9,2.9,0,0,1-.72-.09,2.59,2.59,0,0,1-.66-.27,2.34,2.34,0,0,1-.55-.45,2.18,2.18,0,0,1-.4-.63h0v1.25h-.74v-9.08h.8v3.77h0a2,2,0,0,1,.36-.61,2.25,2.25,0,0,1,.54-.45,2.5,2.5,0,0,1,.66-.28,3,3,0,0,1,2,.18,2.62,2.62,0,0,1,.91.75,3.34,3.34,0,0,1,.55,1.1A5,5,0,0,1,60.61,196.09Zm-.8,0a4.39,4.39,0,0,0,0-.65,3.54,3.54,0,0,0-.16-.64,2.89,2.89,0,0,0-.28-.59,2.08,2.08,0,0,0-.41-.48,1.83,1.83,0,0,0-.55-.32,2,2,0,0,0-.71-.12,2.05,2.05,0,0,0-1.73.85,2.72,2.72,0,0,0-.42.89,3.94,3.94,0,0,0-.14,1.06,4.21,4.21,0,0,0,.13,1,2.67,2.67,0,0,0,.4.9,2.08,2.08,0,0,0,.71.63,2.18,2.18,0,0,0,1.06.24,1.88,1.88,0,0,0,1-.23,2,2,0,0,0,.66-.63,2.9,2.9,0,0,0,.38-.89A4.91,4.91,0,0,0,59.8,196.09Z"/><path class="cls-1" d="M63.3,190.29v9.08h-.8v-9.08Z"/><path class="cls-1" d="M68.08,192.63a2.71,2.71,0,0,1,1.3.29,2.6,2.6,0,0,1,.9.79,3.45,3.45,0,0,1,.52,1.13,5.21,5.21,0,0,1,.17,1.34v.13H65.92a3.58,3.58,0,0,0,.13.94,2.59,2.59,0,0,0,.39.83,2,2,0,0,0,.66.59,1.92,1.92,0,0,0,.95.22,2.44,2.44,0,0,0,.7-.09,2,2,0,0,0,.56-.26,1.76,1.76,0,0,0,.42-.39,2.41,2.41,0,0,0,.29-.49h.79a3,3,0,0,1-.38.79,2.48,2.48,0,0,1-.59.6,2.68,2.68,0,0,1-.79.39,3.34,3.34,0,0,1-1,.14,2.94,2.94,0,0,1-1.3-.27,2.56,2.56,0,0,1-.91-.73,3.12,3.12,0,0,1-.54-1.1,5.14,5.14,0,0,1-.18-1.37,4.66,4.66,0,0,1,.18-1.28,3.36,3.36,0,0,1,.54-1.11,2.74,2.74,0,0,1,.92-.78A2.79,2.79,0,0,1,68.08,192.63Zm2.09,3a3,3,0,0,0-.16-.85,2.44,2.44,0,0,0-.41-.75,2.07,2.07,0,0,0-.65-.54,1.84,1.84,0,0,0-.88-.21,1.84,1.84,0,0,0-1.5.7,2.7,2.7,0,0,0-.42.75,4.31,4.31,0,0,0-.23.9Z"/><path class="cls-1" d="M78.37,190.29v9.08h-.74v-1.25h0a2,2,0,0,1-.39.59,2.57,2.57,0,0,1-.56.45,2.8,2.8,0,0,1-.67.29,2.63,2.63,0,0,1-.72.1,2.8,2.8,0,0,1-1.28-.28,2.68,2.68,0,0,1-.92-.75,3.32,3.32,0,0,1-.56-1.11,4.68,4.68,0,0,1-.19-1.34,4.83,4.83,0,0,1,.17-1.29A3.31,3.31,0,0,1,73,193.7a2.69,2.69,0,0,1,.92-.78,3,3,0,0,1,2-.2,2.56,2.56,0,0,1,.65.27,2.25,2.25,0,0,1,.54.45,2.07,2.07,0,0,1,.38.63h0v-3.77Zm-5.26,5.8a4.17,4.17,0,0,0,.05.65,3.7,3.7,0,0,0,.16.64,2.82,2.82,0,0,0,.28.58,2.15,2.15,0,0,0,.41.48,1.8,1.8,0,0,0,.55.32,2,2,0,0,0,.7.12A2.08,2.08,0,0,0,77,198a2.66,2.66,0,0,0,.43-.89,4,4,0,0,0,.14-1.06,4,4,0,0,0-.13-1,2.73,2.73,0,0,0-.41-.9,2.06,2.06,0,0,0-1.76-.88,1.94,1.94,0,0,0-.68.11,1.8,1.8,0,0,0-.54.31,2.15,2.15,0,0,0-.41.47,2.8,2.8,0,0,0-.29.58,3.52,3.52,0,0,0-.17.65A4.25,4.25,0,0,0,73.12,196.09Z"/></g><rect class="cls-2" x="28" y="213" width="195" height="6"/><g class="cls-6"><path class="cls-4" d="M222,214v4H29v-4H222m1-1H28v6H223v-6Z"/></g><g class="cls-7"><rect class="cls-8" x="28" y="213" width="43" height="6"/></g><g class="cls-5"><path class="cls-9" d="M31,227.51a2.21,2.21,0,0,1,1.93.94,4.76,4.76,0,0,1,.66,2.75,4.86,4.86,0,0,1-.66,2.79,2.44,2.44,0,0,1-3.85,0,4.84,4.84,0,0,1-.66-2.79,4.78,4.78,0,0,1,.66-2.76A2.2,2.2,0,0,1,31,227.51Zm-1.42,3.7a8.51,8.51,0,0,0,.06,1,3.46,3.46,0,0,0,.22.89,1.51,1.51,0,0,0,.43.62A1.06,1.06,0,0,0,31,234a1.09,1.09,0,0,0,.9-.42,1.77,1.77,0,0,0,.26-.47,3.52,3.52,0,0,0,.16-.57,5.36,5.36,0,0,0,.09-.64q0-.33,0-.66a8,8,0,0,0-.07-1.06,3.17,3.17,0,0,0-.23-.87,1.52,1.52,0,0,0-.44-.59,1.09,1.09,0,0,0-.7-.22,1.08,1.08,0,0,0-.5.11,1.16,1.16,0,0,0-.37.31,1.68,1.68,0,0,0-.26.46,3.58,3.58,0,0,0-.16.57,5.31,5.31,0,0,0-.09.63Q29.6,230.88,29.6,231.21Z"/></g><g class="cls-5"><path class="cls-9" d="M201,234.79V229.9h-1.83V229a4.93,4.93,0,0,0,.75-.06,2,2,0,0,0,.52-.15,1.31,1.31,0,0,0,.53-.46,1.85,1.85,0,0,0,.26-.74h.93v7.17Z"/><path class="cls-9" d="M207.19,227.51a2.21,2.21,0,0,1,1.93.94,4.76,4.76,0,0,1,.66,2.75,4.86,4.86,0,0,1-.66,2.79,2.44,2.44,0,0,1-3.85,0,4.84,4.84,0,0,1-.66-2.79,4.78,4.78,0,0,1,.66-2.76A2.2,2.2,0,0,1,207.19,227.51Zm-1.42,3.7a8.51,8.51,0,0,0,.06,1,3.46,3.46,0,0,0,.22.89,1.51,1.51,0,0,0,.43.62,1.06,1.06,0,0,0,.71.23,1.09,1.09,0,0,0,.9-.42,1.77,1.77,0,0,0,.26-.47,3.52,3.52,0,0,0,.16-.57,5.36,5.36,0,0,0,.09-.64q0-.33,0-.66a8,8,0,0,0-.07-1.06,3.17,3.17,0,0,0-.23-.87,1.52,1.52,0,0,0-.44-.59,1.09,1.09,0,0,0-.7-.22,1.08,1.08,0,0,0-.5.11,1.16,1.16,0,0,0-.37.31,1.68,1.68,0,0,0-.26.46,3.58,3.58,0,0,0-.16.57,5.31,5.31,0,0,0-.09.63Q205.77,230.88,205.77,231.21Z"/><path class="cls-9" d="M213.24,227.51a2.21,2.21,0,0,1,1.93.94,4.76,4.76,0,0,1,.66,2.75,4.86,4.86,0,0,1-.66,2.79,2.44,2.44,0,0,1-3.85,0,4.84,4.84,0,0,1-.66-2.79,4.78,4.78,0,0,1,.66-2.76A2.2,2.2,0,0,1,213.24,227.51Zm-1.42,3.7a8.51,8.51,0,0,0,.06,1,3.46,3.46,0,0,0,.22.89,1.51,1.51,0,0,0,.43.62,1.06,1.06,0,0,0,.71.23,1.09,1.09,0,0,0,.9-.42,1.77,1.77,0,0,0,.26-.47,3.52,3.52,0,0,0,.16-.57,5.36,5.36,0,0,0,.09-.64q0-.33,0-.66a8,8,0,0,0-.07-1.06,3.17,3.17,0,0,0-.23-.87,1.52,1.52,0,0,0-.44-.59,1.09,1.09,0,0,0-.7-.22,1.08,1.08,0,0,0-.5.11,1.16,1.16,0,0,0-.37.31,1.68,1.68,0,0,0-.26.46,3.58,3.58,0,0,0-.16.57,5.31,5.31,0,0,0-.09.63Q211.82,230.88,211.83,231.21Z"/><path class="cls-9" d="M219.3,227.51a2.21,2.21,0,0,1,1.93.94,4.76,4.76,0,0,1,.66,2.75,4.86,4.86,0,0,1-.66,2.79,2.44,2.44,0,0,1-3.85,0,4.84,4.84,0,0,1-.66-2.79,4.78,4.78,0,0,1,.66-2.76A2.2,2.2,0,0,1,219.3,227.51Zm-1.42,3.7a8.51,8.51,0,0,0,.06,1,3.46,3.46,0,0,0,.22.89,1.51,1.51,0,0,0,.43.62,1.06,1.06,0,0,0,.71.23,1.09,1.09,0,0,0,.9-.42,1.77,1.77,0,0,0,.26-.47,3.52,3.52,0,0,0,.16-.57,5.36,5.36,0,0,0,.09-.64q0-.33,0-.66a8,8,0,0,0-.07-1.06,3.17,3.17,0,0,0-.23-.87,1.52,1.52,0,0,0-.44-.59,1.09,1.09,0,0,0-.7-.22,1.08,1.08,0,0,0-.5.11,1.16,1.16,0,0,0-.37.31,1.68,1.68,0,0,0-.26.46,3.58,3.58,0,0,0-.16.57,5.31,5.31,0,0,0-.09.63Q217.88,230.88,217.88,231.21Z"/></g><rect class="cls-10" x="28.5" y="144.5" width="32" height="5"/><path class="cls-10" d="M60,145v4H29v-4H60m1-1H28v6H61v-6Z"/><path class="cls-9" d="M31,158.05a2.22,2.22,0,0,1,1.93.94,4.76,4.76,0,0,1,.66,2.75,4.86,4.86,0,0,1-.66,2.79,2.44,2.44,0,0,1-3.85,0,4.84,4.84,0,0,1-.66-2.79A4.79,4.79,0,0,1,29.1,159,2.2,2.2,0,0,1,31,158.05Zm-1.42,3.7a8.51,8.51,0,0,0,.06,1,3.47,3.47,0,0,0,.22.89,1.53,1.53,0,0,0,.43.62,1.07,1.07,0,0,0,.71.23,1.14,1.14,0,0,0,.52-.11,1.15,1.15,0,0,0,.38-.31,1.78,1.78,0,0,0,.26-.47,3.52,3.52,0,0,0,.16-.57,5.37,5.37,0,0,0,.09-.64q0-.33,0-.66a8,8,0,0,0-.07-1.06,3.17,3.17,0,0,0-.23-.87,1.52,1.52,0,0,0-.44-.59A1.1,1.1,0,0,0,31,159a1.08,1.08,0,0,0-.5.11,1.15,1.15,0,0,0-.37.31,1.66,1.66,0,0,0-.26.46,3.55,3.55,0,0,0-.16.57,5.27,5.27,0,0,0-.09.63Q29.6,161.42,29.6,161.75Z"/><path class="cls-9" d="M201,165.33v-4.89h-1.83v-.87a4.93,4.93,0,0,0,.75-.06,2,2,0,0,0,.52-.15,1.32,1.32,0,0,0,.53-.46,1.85,1.85,0,0,0,.26-.74h.93v7.17Z"/><path class="cls-9" d="M207.19,158.05a2.22,2.22,0,0,1,1.93.94,4.76,4.76,0,0,1,.66,2.75,4.86,4.86,0,0,1-.66,2.79,2.44,2.44,0,0,1-3.85,0,4.84,4.84,0,0,1-.66-2.79,4.79,4.79,0,0,1,.66-2.76A2.2,2.2,0,0,1,207.19,158.05Zm-1.42,3.7a8.51,8.51,0,0,0,.06,1,3.47,3.47,0,0,0,.22.89,1.53,1.53,0,0,0,.43.62,1.07,1.07,0,0,0,.71.23,1.14,1.14,0,0,0,.52-.11,1.15,1.15,0,0,0,.38-.31,1.78,1.78,0,0,0,.26-.47,3.52,3.52,0,0,0,.16-.57,5.37,5.37,0,0,0,.09-.64q0-.33,0-.66a8,8,0,0,0-.07-1.06,3.17,3.17,0,0,0-.23-.87,1.52,1.52,0,0,0-.44-.59,1.1,1.1,0,0,0-.7-.22,1.08,1.08,0,0,0-.5.11,1.15,1.15,0,0,0-.37.31,1.66,1.66,0,0,0-.26.46,3.55,3.55,0,0,0-.16.57,5.27,5.27,0,0,0-.09.63Q205.77,161.42,205.77,161.75Z"/><path class="cls-9" d="M213.24,158.05a2.22,2.22,0,0,1,1.93.94,4.76,4.76,0,0,1,.66,2.75,4.86,4.86,0,0,1-.66,2.79,2.44,2.44,0,0,1-3.85,0,4.84,4.84,0,0,1-.66-2.79,4.79,4.79,0,0,1,.66-2.76A2.2,2.2,0,0,1,213.24,158.05Zm-1.42,3.7a8.51,8.51,0,0,0,.06,1,3.47,3.47,0,0,0,.22.89,1.53,1.53,0,0,0,.43.62,1.07,1.07,0,0,0,.71.23,1.14,1.14,0,0,0,.52-.11,1.15,1.15,0,0,0,.38-.31,1.78,1.78,0,0,0,.26-.47,3.52,3.52,0,0,0,.16-.57,5.37,5.37,0,0,0,.09-.64q0-.33,0-.66a8,8,0,0,0-.07-1.06,3.17,3.17,0,0,0-.23-.87,1.52,1.52,0,0,0-.44-.59,1.1,1.1,0,0,0-.7-.22,1.08,1.08,0,0,0-.5.11,1.15,1.15,0,0,0-.37.31,1.66,1.66,0,0,0-.26.46,3.55,3.55,0,0,0-.16.57,5.27,5.27,0,0,0-.09.63Q211.82,161.42,211.83,161.75Z"/><path class="cls-9" d="M219.3,158.05a2.22,2.22,0,0,1,1.93.94,4.76,4.76,0,0,1,.66,2.75,4.86,4.86,0,0,1-.66,2.79,2.44,2.44,0,0,1-3.85,0,4.84,4.84,0,0,1-.66-2.79,4.79,4.79,0,0,1,.66-2.76A2.2,2.2,0,0,1,219.3,158.05Zm-1.42,3.7a8.51,8.51,0,0,0,.06,1,3.47,3.47,0,0,0,.22.89,1.53,1.53,0,0,0,.43.62,1.07,1.07,0,0,0,.71.23,1.14,1.14,0,0,0,.52-.11,1.15,1.15,0,0,0,.38-.31,1.78,1.78,0,0,0,.26-.47,3.52,3.52,0,0,0,.16-.57,5.37,5.37,0,0,0,.09-.64q0-.33,0-.66a8,8,0,0,0-.07-1.06,3.17,3.17,0,0,0-.23-.87,1.52,1.52,0,0,0-.44-.59,1.1,1.1,0,0,0-.7-.22,1.08,1.08,0,0,0-.5.11,1.15,1.15,0,0,0-.37.31,1.66,1.66,0,0,0-.26.46,3.55,3.55,0,0,0-.16.57,5.27,5.27,0,0,0-.09.63Q217.88,161.42,217.88,161.75Z"/><rect class="cls-10" x="57" y="139" width="16" height="16"/><g class="cls-3"><path class="cls-11" d="M73,139v16H57V139H73m1-1H56v18H74V138Z"/></g><rect class="cls-12" x="8" y="30" width="235" height="298"/><path class="cls-1" d="M30,54l5,7.25h0V54h.81v8.57h-.91l-5-7.25h0v7.25H29.1V54Z"/><path class="cls-1" d="M43.86,59.3a4.29,4.29,0,0,1-.2,1.31A3.31,3.31,0,0,1,43,61.74a2.9,2.9,0,0,1-2.29,1,2.84,2.84,0,0,1-2.24-1,4.07,4.07,0,0,1,0-5,3.08,3.08,0,0,1,4.51,0A3.65,3.65,0,0,1,43.86,59.3Zm-.8,0a3.8,3.8,0,0,0-.13-1,2.81,2.81,0,0,0-.42-.9,2.25,2.25,0,0,0-.72-.65,2,2,0,0,0-1-.25,2,2,0,0,0-1,.24,2.24,2.24,0,0,0-.72.64,2.85,2.85,0,0,0-.44.9,3.66,3.66,0,0,0-.15,1,3.58,3.58,0,0,0,.14,1,3,3,0,0,0,.43.9,2.24,2.24,0,0,0,.71.65,2,2,0,0,0,1,.25,2,2,0,0,0,1-.24,2.33,2.33,0,0,0,.72-.63,2.8,2.8,0,0,0,.45-.89A3.54,3.54,0,0,0,43.06,59.3Z"/><path class="cls-1" d="M45.66,62.58V56h.74v1.54h0a2.56,2.56,0,0,1,.9-1.2,2.32,2.32,0,0,1,1.38-.43H49v.8h-.18a2.22,2.22,0,0,0-1.71.69,2.36,2.36,0,0,0-.64,1.69v3.48Z"/><path class="cls-1" d="M58.56,62.58V58.12a1.73,1.73,0,0,0-.37-1.22,1.85,1.85,0,0,0-2.5.21,2.8,2.8,0,0,0-.45,1.71v3.77h-.81V58.09a1.81,1.81,0,0,0-.34-1.17,1.25,1.25,0,0,0-1-.42,1.72,1.72,0,0,0-1.46.65,2.72,2.72,0,0,0-.5,1.71v3.72h-.8V56H51v1.1h0a2.26,2.26,0,0,1,2.15-1.29,2.44,2.44,0,0,1,.64.08,1.86,1.86,0,0,1,.54.24,1.66,1.66,0,0,1,.42.4,1.86,1.86,0,0,1,.28.55,2.16,2.16,0,0,1,.85-1,2.4,2.4,0,0,1,1.24-.32,2.12,2.12,0,0,1,1.63.58,2.36,2.36,0,0,1,.54,1.66v4.51Z"/><path class="cls-1" d="M67.22,62.54l-.27,0h-.24a1.37,1.37,0,0,1-.44-.06.65.65,0,0,1-.29-.2.82.82,0,0,1-.16-.35,2.43,2.43,0,0,1,0-.53h0a3,3,0,0,1-1,1,2.79,2.79,0,0,1-1.35.29,2.46,2.46,0,0,1-1.6-.5,1.75,1.75,0,0,1-.6-1.43,1.66,1.66,0,0,1,.66-1.43,6.79,6.79,0,0,1,3-.69,2,2,0,0,0,.44-.08.75.75,0,0,0,.29-.16.6.6,0,0,0,.16-.26,1.28,1.28,0,0,0,0-.38,1.24,1.24,0,0,0-.4-1A2,2,0,0,0,64,56.5a2.61,2.61,0,0,0-.72.09,1.65,1.65,0,0,0-.53.25,1.13,1.13,0,0,0-.33.39,1.23,1.23,0,0,0-.13.49h-.8a2,2,0,0,1,.22-.78,1.78,1.78,0,0,1,.51-.59A2.43,2.43,0,0,1,63,56a4,4,0,0,1,1.09-.13,2.64,2.64,0,0,1,1.83.54,2,2,0,0,1,.59,1.52v3.56a.47.47,0,0,0,.11.33.46.46,0,0,0,.36.12.7.7,0,0,0,.25,0ZM65.7,59h0q-.12.22-.77.31l-.67.1-.74.12a2.67,2.67,0,0,0-1.17.44,1,1,0,0,0-.39.84,1.16,1.16,0,0,0,.43.94,1.6,1.6,0,0,0,1,.35A2.36,2.36,0,0,0,65,61.52a1.85,1.85,0,0,0,.65-1.44Z"/><path class="cls-1" d="M69.48,53.5v9.08h-.8V53.5Z"/><rect class="cls-2" x="28" y="76" width="195" height="6"/><g class="cls-3"><path class="cls-4" d="M222,77v4H29V77H222m1-1H28v6H223V76Z"/></g><rect class="cls-10" x="28.5" y="76.5" width="32" height="5"/><path class="cls-10" d="M60,77v4H29V77H60m1-1H28v6H61V76Z"/><path class="cls-9" d="M31,90.05a2.22,2.22,0,0,1,1.93.94,4.76,4.76,0,0,1,.66,2.75,4.86,4.86,0,0,1-.66,2.79,2.44,2.44,0,0,1-3.85,0,4.84,4.84,0,0,1-.66-2.79A4.79,4.79,0,0,1,29.1,91,2.2,2.2,0,0,1,31,90.05Zm-1.42,3.7a8.51,8.51,0,0,0,.06,1,3.47,3.47,0,0,0,.22.89,1.53,1.53,0,0,0,.43.62,1.07,1.07,0,0,0,.71.23,1.14,1.14,0,0,0,.52-.11,1.15,1.15,0,0,0,.38-.31,1.78,1.78,0,0,0,.26-.47,3.52,3.52,0,0,0,.16-.57,5.37,5.37,0,0,0,.09-.64q0-.33,0-.66a8,8,0,0,0-.07-1.06,3.17,3.17,0,0,0-.23-.87,1.52,1.52,0,0,0-.44-.59A1.1,1.1,0,0,0,31,91a1.08,1.08,0,0,0-.5.11,1.15,1.15,0,0,0-.37.31,1.66,1.66,0,0,0-.26.46,3.55,3.55,0,0,0-.16.57,5.27,5.27,0,0,0-.09.63Q29.6,93.42,29.6,93.75Z"/><path class="cls-9" d="M201,97.33V92.44h-1.83v-.87a4.93,4.93,0,0,0,.75-.06,2,2,0,0,0,.52-.15,1.32,1.32,0,0,0,.53-.46,1.85,1.85,0,0,0,.26-.74h.93v7.17Z"/><path class="cls-9" d="M207.19,90.05a2.22,2.22,0,0,1,1.93.94,4.76,4.76,0,0,1,.66,2.75,4.86,4.86,0,0,1-.66,2.79,2.44,2.44,0,0,1-3.85,0,4.84,4.84,0,0,1-.66-2.79,4.79,4.79,0,0,1,.66-2.76A2.2,2.2,0,0,1,207.19,90.05Zm-1.42,3.7a8.51,8.51,0,0,0,.06,1,3.47,3.47,0,0,0,.22.89,1.53,1.53,0,0,0,.43.62,1.07,1.07,0,0,0,.71.23,1.14,1.14,0,0,0,.52-.11,1.15,1.15,0,0,0,.38-.31,1.78,1.78,0,0,0,.26-.47,3.52,3.52,0,0,0,.16-.57,5.37,5.37,0,0,0,.09-.64q0-.33,0-.66a8,8,0,0,0-.07-1.06,3.17,3.17,0,0,0-.23-.87,1.52,1.52,0,0,0-.44-.59,1.1,1.1,0,0,0-.7-.22,1.08,1.08,0,0,0-.5.11,1.15,1.15,0,0,0-.37.31,1.66,1.66,0,0,0-.26.46,3.55,3.55,0,0,0-.16.57,5.27,5.27,0,0,0-.09.63Q205.77,93.42,205.77,93.75Z"/><path class="cls-9" d="M213.24,90.05a2.22,2.22,0,0,1,1.93.94,4.76,4.76,0,0,1,.66,2.75,4.86,4.86,0,0,1-.66,2.79,2.44,2.44,0,0,1-3.85,0,4.84,4.84,0,0,1-.66-2.79,4.79,4.79,0,0,1,.66-2.76A2.2,2.2,0,0,1,213.24,90.05Zm-1.42,3.7a8.51,8.51,0,0,0,.06,1,3.47,3.47,0,0,0,.22.89,1.53,1.53,0,0,0,.43.62,1.07,1.07,0,0,0,.71.23,1.14,1.14,0,0,0,.52-.11,1.15,1.15,0,0,0,.38-.31,1.78,1.78,0,0,0,.26-.47,3.52,3.52,0,0,0,.16-.57,5.37,5.37,0,0,0,.09-.64q0-.33,0-.66a8,8,0,0,0-.07-1.06,3.17,3.17,0,0,0-.23-.87,1.52,1.52,0,0,0-.44-.59,1.1,1.1,0,0,0-.7-.22,1.08,1.08,0,0,0-.5.11,1.15,1.15,0,0,0-.37.31,1.66,1.66,0,0,0-.26.46,3.55,3.55,0,0,0-.16.57,5.27,5.27,0,0,0-.09.63Q211.82,93.42,211.83,93.75Z"/><path class="cls-9" d="M219.3,90.05a2.22,2.22,0,0,1,1.93.94,4.76,4.76,0,0,1,.66,2.75,4.86,4.86,0,0,1-.66,2.79,2.44,2.44,0,0,1-3.85,0,4.84,4.84,0,0,1-.66-2.79,4.79,4.79,0,0,1,.66-2.76A2.2,2.2,0,0,1,219.3,90.05Zm-1.42,3.7a8.51,8.51,0,0,0,.06,1,3.47,3.47,0,0,0,.22.89,1.53,1.53,0,0,0,.43.62,1.07,1.07,0,0,0,.71.23,1.14,1.14,0,0,0,.52-.11,1.15,1.15,0,0,0,.38-.31,1.78,1.78,0,0,0,.26-.47,3.52,3.52,0,0,0,.16-.57,5.37,5.37,0,0,0,.09-.64q0-.33,0-.66a8,8,0,0,0-.07-1.06,3.17,3.17,0,0,0-.23-.87,1.52,1.52,0,0,0-.44-.59,1.1,1.1,0,0,0-.7-.22,1.08,1.08,0,0,0-.5.11,1.15,1.15,0,0,0-.37.31,1.66,1.66,0,0,0-.26.46,3.55,3.55,0,0,0-.16.57,5.27,5.27,0,0,0-.09.63Q217.88,93.42,217.88,93.75Z"/><rect class="cls-10" x="60" y="74" width="10" height="10"/><g class="cls-7"><path class="cls-11" d="M70,74V84H60V74H70m1-1H59V85H71V73Z"/></g><path class="cls-13" d="M16.51,14.18a2.5,2.5,0,0,1-.33,1.33,2.63,2.63,0,0,1-.89.89,4,4,0,0,1-1.28.5,7.17,7.17,0,0,1-1.5.15A5.61,5.61,0,0,1,11,16.85a3.72,3.72,0,0,1-1.21-.57A2.73,2.73,0,0,1,9,15.37a2.59,2.59,0,0,1-.29-1.25v-.23h1V14a2.19,2.19,0,0,0,.18.89,1.92,1.92,0,0,0,.56.72,2.82,2.82,0,0,0,.94.49,4.42,4.42,0,0,0,1.34.18,4.63,4.63,0,0,0,1-.12,3,3,0,0,0,.92-.37,2.11,2.11,0,0,0,.65-.63,1.61,1.61,0,0,0,.25-.91q0-1.29-1.95-1.78l-2.33-.57a4.64,4.64,0,0,1-1-.36,2.51,2.51,0,0,1-.7-.51,1.85,1.85,0,0,1-.4-.67A2.61,2.61,0,0,1,9,9.45a2.45,2.45,0,0,1,.3-1.22,2.73,2.73,0,0,1,.79-.88,3.58,3.58,0,0,1,1.13-.54,4.86,4.86,0,0,1,1.33-.18,5.06,5.06,0,0,1,1.4.18,3.39,3.39,0,0,1,1.11.54,2.58,2.58,0,0,1,1,2h-.94A1.88,1.88,0,0,0,15,8.64,2.09,2.09,0,0,0,14.42,8a2.61,2.61,0,0,0-.8-.42,3.28,3.28,0,0,0-1-.15,4.07,4.07,0,0,0-1.07.13,2.51,2.51,0,0,0-.82.38,1.72,1.72,0,0,0-.53.62,1.87,1.87,0,0,0-.19.85,1.4,1.4,0,0,0,.12.61,1.31,1.31,0,0,0,.33.44,1.8,1.8,0,0,0,.5.3,4.61,4.61,0,0,0,.62.2l2.28.56a4.35,4.35,0,0,1,2.05,1A2.25,2.25,0,0,1,16.51,14.18Z"/><path class="cls-13" d="M19.44,6.24v10.6H18.5V6.24Z"/><path class="cls-13" d="M23,5.83v1.5H22V5.83Zm0,3.35v7.66H22V9.18Z"/><path class="cls-13" d="M32.24,6.24v10.6h-.86V15.38h0a2.38,2.38,0,0,1-.46.69,3,3,0,0,1-.66.53,3.24,3.24,0,0,1-.79.34,3.08,3.08,0,0,1-.84.12,3.26,3.26,0,0,1-1.49-.32A3.12,3.12,0,0,1,26,15.86a3.87,3.87,0,0,1-.65-1.29A5.44,5.44,0,0,1,25.18,13a5.66,5.66,0,0,1,.2-1.5,3.87,3.87,0,0,1,.62-1.3,3.13,3.13,0,0,1,1.07-.91,3.49,3.49,0,0,1,2.36-.24,3,3,0,0,1,.76.31,2.66,2.66,0,0,1,.64.52,2.43,2.43,0,0,1,.44.73h0V6.24ZM26.11,13a4.86,4.86,0,0,0,.06.76,4.35,4.35,0,0,0,.19.75,3.35,3.35,0,0,0,.33.68,2.52,2.52,0,0,0,.48.56,2.1,2.1,0,0,0,.64.38,2.29,2.29,0,0,0,.81.14,2.42,2.42,0,0,0,2-1,3.11,3.11,0,0,0,.5-1A4.62,4.62,0,0,0,31.3,13a4.71,4.71,0,0,0-.15-1.2,3.18,3.18,0,0,0-.48-1,2.4,2.4,0,0,0-2.06-1,2.28,2.28,0,0,0-.79.13,2.1,2.1,0,0,0-.63.36,2.5,2.5,0,0,0-.48.54,3.27,3.27,0,0,0-.34.67,4.17,4.17,0,0,0-.2.76A5,5,0,0,0,26.11,13Z"/><path class="cls-13" d="M37.81,9a3.16,3.16,0,0,1,1.52.34,3,3,0,0,1,1,.92A4,4,0,0,1,41,11.54a6.09,6.09,0,0,1,.2,1.56v.15H35.29a4.19,4.19,0,0,0,.15,1.1,3,3,0,0,0,.45,1,2.32,2.32,0,0,0,.77.69,2.23,2.23,0,0,0,1.11.26,2.85,2.85,0,0,0,.82-.11,2.35,2.35,0,0,0,.65-.3,2,2,0,0,0,.49-.45,2.83,2.83,0,0,0,.34-.57H41a3.48,3.48,0,0,1-.45.92,2.89,2.89,0,0,1-.68.7,3.11,3.11,0,0,1-.92.45,3.89,3.89,0,0,1-1.16.16,3.43,3.43,0,0,1-1.51-.31,3,3,0,0,1-1.06-.85,3.63,3.63,0,0,1-.63-1.29,6,6,0,0,1-.21-1.6,5.45,5.45,0,0,1,.21-1.5,3.92,3.92,0,0,1,.63-1.3,3.19,3.19,0,0,1,1.08-.91A3.26,3.26,0,0,1,37.81,9Zm2.43,3.51a3.55,3.55,0,0,0-.18-1,2.84,2.84,0,0,0-.48-.88,2.41,2.41,0,0,0-.76-.63,2.15,2.15,0,0,0-1-.24,2.21,2.21,0,0,0-1,.22,2.24,2.24,0,0,0-.74.59,3.18,3.18,0,0,0-.49.87,5,5,0,0,0-.27,1Z"/><path class="cls-13" d="M43.13,16.83V9.18H44V11h0a3,3,0,0,1,1.05-1.39,2.71,2.71,0,0,1,1.61-.5H47V10h-.21a2.59,2.59,0,0,0-2,.8,2.75,2.75,0,0,0-.75,2v4.06Z"/></svg>