<svg id="Layer_1" data-name="Layer 1" xmlns="http://www.w3.org/2000/svg" viewBox="0 0 750.5 179"><defs><style>.cls-1{fill:#fff;}.cls-2{fill:#f0f0f0;}.cls-3,.cls-7,.cls-8{fill:none;stroke-miterlimit:10;}.cls-3{stroke:#464646;stroke-width:3px;}.cls-4{fill:#464646;}.cls-5{fill:#5a5a5a;}.cls-6{fill:#c8c8c8;}.cls-7{stroke:#c8c8c8;}.cls-8{stroke:#fff;}</style></defs><title>Artboard 7</title><rect class="cls-1" x="0.5" y="-2" width="750" height="181.17"/><rect class="cls-2" x="251.48" y="-0.17" width="498.5" height="89"/><polyline class="cls-3" points="110.98 60.83 118.98 44.83 132.98 53.8 142.98 34.83"/><circle class="cls-4" cx="110.98" cy="58.83" r="4"/><circle class="cls-4" cx="118.98" cy="44.83" r="4"/><circle class="cls-4" cx="132.98" cy="52.83" r="4"/><circle class="cls-4" cx="142.98" cy="34.83" r="4"/><polygon class="cls-5" points="396.98 53.83 390.98 59.83 362.98 59.83 356.98 53.83 356.98 37.83 362.98 31.83 390.98 31.83 396.98 37.83 396.98 53.83"/><circle class="cls-2" cx="362.98" cy="45.83" r="2"/><circle class="cls-2" cx="390.98" cy="45.83" r="2"/><path class="cls-5" d="M626.15,26.77a19.36,19.36,0,0,0-18.91,17.07h-5.5L610.17,54l8.43-10.13h-6.27c.84-6,6.71-12,13.82-12a13.85,13.85,0,0,1,13.69,14.05c0,11.29-6.86,17.6-15.86,17.6V65c11,0,20.93-8.64,20.93-19.12A18.92,18.92,0,0,0,626.15,26.77Z"/><polygon class="cls-5" points="632.41 52.75 624.46 47.52 624.46 36.71 626.99 36.71 626.99 46.16 633.8 50.63 632.41 52.75"/><rect class="cls-6" x="251.98" y="88.83" width="500" height="1"/><line class="cls-7" x1="252.48" y1="-0.17" x2="252.48" y2="88.83"/><line class="cls-8" x1="252.98" y1="1.33" x2="751.48" y2="1.33"/><line class="cls-7" x1="1.98" y1="0.33" x2="751.48" y2="0.33"/><line class="cls-7" x1="501.48" y1="0.83" x2="501.48" y2="88.83"/><rect class="cls-4" x="1.98" y="-0.17" width="251" height="4"/></svg>