<svg id="Layer_1" data-name="Layer 1" xmlns="http://www.w3.org/2000/svg" viewBox="0 0 226 131"><defs><style>.cls-1{fill:none;}.cls-2{fill:#464646;}.cls-3{opacity:0.5;}.cls-4,.cls-8{fill:#fff;}.cls-4,.cls-7{opacity:0.8;}.cls-5,.cls-8{opacity:0.4;}.cls-6{fill:#5a5a5a;}.cls-9{opacity:0.3;}.cls-10,.cls-11{fill:#0aaeff;}.cls-11{fill-opacity:0.4;}.cls-12{fill:#0076b7;}</style></defs><title>Artboard 12</title><rect class="cls-1" x="5" y="31" width="235" height="200"/><path class="cls-2" d="M55.84,56.19l5,7.25h0V56.19h.81v8.57h-.91l-5-7.25h0v7.25h-.82V56.19Z"/><path class="cls-2" d="M69.68,61.48a4.29,4.29,0,0,1-.2,1.31,3.31,3.31,0,0,1-.61,1.13,2.9,2.9,0,0,1-2.29,1,2.84,2.84,0,0,1-2.24-1,4.07,4.07,0,0,1,0-5,3.08,3.08,0,0,1,4.51,0A3.65,3.65,0,0,1,69.68,61.48Zm-.8,0a3.8,3.8,0,0,0-.13-1,2.82,2.82,0,0,0-.42-.9,2.24,2.24,0,0,0-.72-.65,2,2,0,0,0-1-.25,2,2,0,0,0-1,.24,2.24,2.24,0,0,0-.72.63,2.86,2.86,0,0,0-.44.9,3.66,3.66,0,0,0-.15,1,3.58,3.58,0,0,0,.14,1,3,3,0,0,0,.43.9,2.24,2.24,0,0,0,.71.65,2,2,0,0,0,1,.25,2,2,0,0,0,1-.24,2.34,2.34,0,0,0,.72-.63,2.8,2.8,0,0,0,.45-.89A3.54,3.54,0,0,0,68.88,61.48Z"/><path class="cls-2" d="M71.48,64.76V58.2h.74v1.54h0a2.56,2.56,0,0,1,.9-1.2,2.32,2.32,0,0,1,1.38-.43h.29v.8h-.18a2.22,2.22,0,0,0-1.71.69,2.36,2.36,0,0,0-.64,1.69v3.48Z"/><path class="cls-2" d="M84.38,64.76V60.29A1.73,1.73,0,0,0,84,59.07a1.85,1.85,0,0,0-2.5.21A2.8,2.8,0,0,0,81.06,61v3.77h-.81V60.26a1.81,1.81,0,0,0-.34-1.17,1.25,1.25,0,0,0-1-.42,1.72,1.72,0,0,0-1.46.65,2.72,2.72,0,0,0-.5,1.71v3.72h-.8V58.2h.74v1.1h0A2.26,2.26,0,0,1,79,58a2.44,2.44,0,0,1,.64.08,1.86,1.86,0,0,1,.54.24,1.66,1.66,0,0,1,.42.4,1.87,1.87,0,0,1,.28.55,2.16,2.16,0,0,1,.85-1A2.4,2.4,0,0,1,83,58a2.12,2.12,0,0,1,1.63.58,2.36,2.36,0,0,1,.54,1.66v4.51Z"/><path class="cls-2" d="M93,64.71l-.27,0h-.24a1.37,1.37,0,0,1-.44-.06.65.65,0,0,1-.29-.2.82.82,0,0,1-.16-.36,2.42,2.42,0,0,1,0-.53h0a3,3,0,0,1-1,1,2.79,2.79,0,0,1-1.35.29,2.46,2.46,0,0,1-1.6-.5A1.75,1.75,0,0,1,87,63a1.66,1.66,0,0,1,.66-1.43,6.79,6.79,0,0,1,3-.69,2,2,0,0,0,.44-.08.75.75,0,0,0,.29-.16.59.59,0,0,0,.16-.26,1.28,1.28,0,0,0,0-.38,1.25,1.25,0,0,0-.4-1,2,2,0,0,0-1.31-.34,2.61,2.61,0,0,0-.72.09,1.65,1.65,0,0,0-.53.25,1.13,1.13,0,0,0-.33.39,1.23,1.23,0,0,0-.13.49h-.8a2,2,0,0,1,.22-.78,1.77,1.77,0,0,1,.51-.59,2.43,2.43,0,0,1,.81-.38A4,4,0,0,1,89.91,58a2.64,2.64,0,0,1,1.83.54,2,2,0,0,1,.59,1.52v3.56a.47.47,0,0,0,.11.33.46.46,0,0,0,.36.12A.7.7,0,0,0,93,64Zm-1.52-3.54h0q-.12.22-.77.31l-.67.1-.74.12a2.67,2.67,0,0,0-1.17.44,1,1,0,0,0-.39.84,1.16,1.16,0,0,0,.43.94,1.6,1.6,0,0,0,1,.35,2.36,2.36,0,0,0,1.63-.58,1.85,1.85,0,0,0,.65-1.44Z"/><path class="cls-2" d="M95.3,55.68v9.08h-.8V55.68Z"/><path class="cls-2" d="M162.2,56.19l5,7.25h0V56.19H168v8.57h-.91l-5-7.25h0v7.25h-.82V56.19Z"/><path class="cls-2" d="M176,61.48a4.29,4.29,0,0,1-.2,1.31,3.31,3.31,0,0,1-.61,1.13,2.9,2.9,0,0,1-2.29,1,2.84,2.84,0,0,1-2.24-1,4.07,4.07,0,0,1,0-5,3.08,3.08,0,0,1,4.51,0A3.65,3.65,0,0,1,176,61.48Zm-.8,0a3.8,3.8,0,0,0-.13-1,2.82,2.82,0,0,0-.42-.9,2.24,2.24,0,0,0-.72-.65,2,2,0,0,0-1-.25,2,2,0,0,0-1,.24,2.24,2.24,0,0,0-.72.63,2.86,2.86,0,0,0-.44.9,3.66,3.66,0,0,0-.15,1,3.58,3.58,0,0,0,.14,1,3,3,0,0,0,.43.9,2.24,2.24,0,0,0,.71.65,2,2,0,0,0,1,.25,2,2,0,0,0,1-.24,2.34,2.34,0,0,0,.72-.63,2.8,2.8,0,0,0,.45-.89A3.54,3.54,0,0,0,175.24,61.48Z"/><path class="cls-2" d="M177.84,64.76V58.2h.74v1.54h0a2.56,2.56,0,0,1,.9-1.2,2.32,2.32,0,0,1,1.38-.43h.29v.8H181a2.22,2.22,0,0,0-1.71.69,2.36,2.36,0,0,0-.64,1.69v3.48Z"/><path class="cls-2" d="M190.75,64.76V60.29a1.73,1.73,0,0,0-.37-1.22,1.85,1.85,0,0,0-2.5.21,2.8,2.8,0,0,0-.45,1.71v3.77h-.81V60.26a1.81,1.81,0,0,0-.34-1.17,1.25,1.25,0,0,0-1-.42,1.72,1.72,0,0,0-1.46.65,2.72,2.72,0,0,0-.5,1.71v3.72h-.8V58.2h.74v1.1h0A2.26,2.26,0,0,1,185.41,58a2.44,2.44,0,0,1,.64.08,1.86,1.86,0,0,1,.54.24,1.66,1.66,0,0,1,.42.4,1.87,1.87,0,0,1,.28.55,2.16,2.16,0,0,1,.85-1,2.4,2.4,0,0,1,1.24-.32,2.12,2.12,0,0,1,1.63.58,2.36,2.36,0,0,1,.54,1.66v4.51Z"/><path class="cls-2" d="M199.41,64.71l-.27,0h-.24a1.37,1.37,0,0,1-.44-.06.65.65,0,0,1-.29-.2.82.82,0,0,1-.16-.36,2.42,2.42,0,0,1,0-.53h0a3,3,0,0,1-1,1,2.79,2.79,0,0,1-1.35.29,2.46,2.46,0,0,1-1.6-.5,1.75,1.75,0,0,1-.6-1.43,1.66,1.66,0,0,1,.66-1.43,6.79,6.79,0,0,1,3-.69,2,2,0,0,0,.44-.08.75.75,0,0,0,.29-.16.59.59,0,0,0,.16-.26,1.28,1.28,0,0,0,0-.38,1.25,1.25,0,0,0-.4-1,2,2,0,0,0-1.31-.34,2.61,2.61,0,0,0-.72.09,1.65,1.65,0,0,0-.53.25,1.13,1.13,0,0,0-.33.39,1.23,1.23,0,0,0-.13.49h-.8a2,2,0,0,1,.22-.78,1.77,1.77,0,0,1,.51-.59,2.43,2.43,0,0,1,.81-.38,4,4,0,0,1,1.09-.13,2.64,2.64,0,0,1,1.83.54,2,2,0,0,1,.59,1.52v3.56a.47.47,0,0,0,.11.33.46.46,0,0,0,.36.12.7.7,0,0,0,.25,0Zm-1.52-3.54h0q-.12.22-.77.31l-.67.1-.74.12a2.67,2.67,0,0,0-1.17.44,1,1,0,0,0-.39.84,1.16,1.16,0,0,0,.43.94,1.6,1.6,0,0,0,1,.35,2.36,2.36,0,0,0,1.63-.58,1.85,1.85,0,0,0,.65-1.44Z"/><path class="cls-2" d="M201.66,55.68v9.08h-.8V55.68Z"/><g class="cls-3"><path class="cls-2" d="M57.8,104.18a4.11,4.11,0,0,1,3,1,5.51,5.51,0,0,1,0,6.52,4,4,0,0,1-2.89,1H54.95v-8.57Zm-.22,7.87a3.57,3.57,0,0,0,2.61-.83,3.76,3.76,0,0,0,.84-2.75,3.82,3.82,0,0,0-.82-2.74,3.73,3.73,0,0,0-2.75-.84H55.77v7.17Z"/><path class="cls-2" d="M64.39,103.31v1.29h-.8v-1.29Zm0,2.87v6.56h-.8v-6.56Z"/><path class="cls-2" d="M71.51,111a1.67,1.67,0,0,1-.22.88,1.89,1.89,0,0,1-.59.62,2.74,2.74,0,0,1-.84.36,4,4,0,0,1-1,.12,3.66,3.66,0,0,1-1.07-.14,2.4,2.4,0,0,1-.8-.41,2,2,0,0,1-.53-.64,2.4,2.4,0,0,1-.25-.85H67a1.7,1.7,0,0,0,.2.56,1.4,1.4,0,0,0,.38.43,1.8,1.8,0,0,0,.57.28,2.56,2.56,0,0,0,.74.1,3,3,0,0,0,.6-.06,2.05,2.05,0,0,0,.58-.21,1.36,1.36,0,0,0,.44-.38,1,1,0,0,0,.18-.59.93.93,0,0,0-.34-.73,2.6,2.6,0,0,0-1.13-.46l-1-.22a4,4,0,0,1-.77-.24,2.1,2.1,0,0,1-.58-.37,1.46,1.46,0,0,1-.36-.5,1.61,1.61,0,0,1-.12-.65,1.57,1.57,0,0,1,.21-.84,1.77,1.77,0,0,1,.56-.57,2.53,2.53,0,0,1,.78-.33,3.77,3.77,0,0,1,.89-.11,3.27,3.27,0,0,1,.92.12,2.28,2.28,0,0,1,.73.35,1.83,1.83,0,0,1,.5.57,2.08,2.08,0,0,1,.25.78h-.8a1.33,1.33,0,0,0-.19-.5,1.24,1.24,0,0,0-.36-.37,1.69,1.69,0,0,0-.5-.22,2.36,2.36,0,0,0-.61-.08,2.85,2.85,0,0,0-.58.06,1.59,1.59,0,0,0-.51.19,1.07,1.07,0,0,0-.36.35,1,1,0,0,0-.13.53.74.74,0,0,0,.13.44,1.27,1.27,0,0,0,.33.32,1.92,1.92,0,0,0,.44.22,3.65,3.65,0,0,0,.46.13l1.37.3a2.85,2.85,0,0,1,.59.21,1.77,1.77,0,0,1,.5.35,1.64,1.64,0,0,1,.34.51A1.72,1.72,0,0,1,71.51,111Z"/><path class="cls-2" d="M78.94,112.7l-.27,0h-.24a1.37,1.37,0,0,1-.44-.06.65.65,0,0,1-.29-.2.82.82,0,0,1-.16-.36,2.42,2.42,0,0,1,0-.53h0a3,3,0,0,1-1,1,2.79,2.79,0,0,1-1.35.29,2.46,2.46,0,0,1-1.6-.5,1.75,1.75,0,0,1-.6-1.43,1.66,1.66,0,0,1,.66-1.43,6.79,6.79,0,0,1,3-.69,2,2,0,0,0,.44-.08.75.75,0,0,0,.29-.16.59.59,0,0,0,.16-.26,1.28,1.28,0,0,0,0-.38,1.25,1.25,0,0,0-.4-1,2,2,0,0,0-1.31-.34,2.61,2.61,0,0,0-.72.09,1.65,1.65,0,0,0-.53.25,1.13,1.13,0,0,0-.33.39,1.23,1.23,0,0,0-.13.49h-.8a2,2,0,0,1,.22-.78,1.77,1.77,0,0,1,.51-.59,2.43,2.43,0,0,1,.81-.38A4,4,0,0,1,75.8,106a2.64,2.64,0,0,1,1.83.54,2,2,0,0,1,.59,1.52v3.56a.47.47,0,0,0,.11.33.46.46,0,0,0,.36.12.7.7,0,0,0,.25,0Zm-1.52-3.54h0q-.12.22-.77.31l-.67.1-.74.12a2.67,2.67,0,0,0-1.17.44,1,1,0,0,0-.39.84,1.16,1.16,0,0,0,.43.94,1.6,1.6,0,0,0,1,.35,2.36,2.36,0,0,0,1.63-.58,1.85,1.85,0,0,0,.65-1.44Z"/><path class="cls-2" d="M86.43,109.47a4.77,4.77,0,0,1-.17,1.28,3.38,3.38,0,0,1-.53,1.11,2.69,2.69,0,0,1-.92.79,2.8,2.8,0,0,1-1.33.3,2.91,2.91,0,0,1-.72-.09,2.59,2.59,0,0,1-.66-.27,2.33,2.33,0,0,1-.55-.45,2.18,2.18,0,0,1-.4-.63h0v1.25h-.74v-9.08h.8v3.77h0a2,2,0,0,1,.36-.61,2.25,2.25,0,0,1,.54-.45,2.49,2.49,0,0,1,.66-.28,3,3,0,0,1,2,.18,2.63,2.63,0,0,1,.91.75,3.34,3.34,0,0,1,.55,1.1A5,5,0,0,1,86.43,109.47Zm-.8,0a4.4,4.4,0,0,0,0-.65,3.53,3.53,0,0,0-.16-.64,2.89,2.89,0,0,0-.28-.59,2.08,2.08,0,0,0-.41-.48,1.83,1.83,0,0,0-.55-.32,2,2,0,0,0-.71-.12,2,2,0,0,0-1.73.85,2.72,2.72,0,0,0-.42.89,3.94,3.94,0,0,0-.14,1.06,4.21,4.21,0,0,0,.13,1,2.67,2.67,0,0,0,.4.9,2.08,2.08,0,0,0,.71.63,2.18,2.18,0,0,0,1.06.24,1.88,1.88,0,0,0,1-.23,2,2,0,0,0,.66-.63,2.91,2.91,0,0,0,.38-.89A4.9,4.9,0,0,0,85.63,109.47Z"/><path class="cls-2" d="M89.12,103.67v9.08h-.8v-9.08Z"/><path class="cls-2" d="M93.9,106a2.71,2.71,0,0,1,1.3.29,2.6,2.6,0,0,1,.9.79,3.44,3.44,0,0,1,.52,1.13,5.22,5.22,0,0,1,.17,1.34v.13H91.74a3.58,3.58,0,0,0,.13.94,2.58,2.58,0,0,0,.39.83,2,2,0,0,0,.66.59,1.92,1.92,0,0,0,.95.22,2.44,2.44,0,0,0,.7-.09,2,2,0,0,0,.56-.26,1.76,1.76,0,0,0,.42-.39,2.4,2.4,0,0,0,.29-.49h.79a3,3,0,0,1-.38.79,2.48,2.48,0,0,1-.59.6,2.68,2.68,0,0,1-.79.39,3.33,3.33,0,0,1-1,.14,2.94,2.94,0,0,1-1.3-.27,2.56,2.56,0,0,1-.91-.73,3.12,3.12,0,0,1-.54-1.1,5.13,5.13,0,0,1-.18-1.37,4.66,4.66,0,0,1,.18-1.28,3.37,3.37,0,0,1,.54-1.11,2.74,2.74,0,0,1,.92-.78A2.79,2.79,0,0,1,93.9,106ZM96,109a3,3,0,0,0-.16-.85,2.44,2.44,0,0,0-.41-.75,2.07,2.07,0,0,0-.65-.54,1.84,1.84,0,0,0-.88-.21,1.84,1.84,0,0,0-1.5.7,2.69,2.69,0,0,0-.42.75,4.32,4.32,0,0,0-.23.9Z"/><path class="cls-2" d="M104.2,103.67v9.08h-.74V111.5h0a2,2,0,0,1-.39.59,2.58,2.58,0,0,1-.56.46,2.8,2.8,0,0,1-.67.29,2.63,2.63,0,0,1-.72.1,2.8,2.8,0,0,1-1.28-.28,2.68,2.68,0,0,1-.92-.75,3.32,3.32,0,0,1-.56-1.11,4.68,4.68,0,0,1-.19-1.34,4.83,4.83,0,0,1,.17-1.29,3.31,3.31,0,0,1,.53-1.11,2.68,2.68,0,0,1,.92-.78,3,3,0,0,1,2-.2,2.56,2.56,0,0,1,.65.27,2.26,2.26,0,0,1,.54.45,2.07,2.07,0,0,1,.38.63h0v-3.77Zm-5.26,5.8a4.17,4.17,0,0,0,.05.65,3.7,3.7,0,0,0,.16.64,2.81,2.81,0,0,0,.28.58,2.15,2.15,0,0,0,.41.48,1.8,1.8,0,0,0,.55.32,2,2,0,0,0,.7.12,2.07,2.07,0,0,0,1.73-.84,2.66,2.66,0,0,0,.43-.89,4,4,0,0,0,.14-1.06,4,4,0,0,0-.13-1,2.73,2.73,0,0,0-.41-.9,2.06,2.06,0,0,0-1.76-.87,1.94,1.94,0,0,0-.68.11,1.8,1.8,0,0,0-.54.31,2.14,2.14,0,0,0-.41.46,2.81,2.81,0,0,0-.29.58,3.51,3.51,0,0,0-.17.65A4.26,4.26,0,0,0,98.94,109.47Z"/></g><g class="cls-3"><path class="cls-2" d="M162.52,104.18a4.11,4.11,0,0,1,3,1,5.51,5.51,0,0,1,0,6.52,4,4,0,0,1-2.89,1h-2.94v-8.57Zm-.22,7.87a3.57,3.57,0,0,0,2.61-.83,3.76,3.76,0,0,0,.84-2.75,3.82,3.82,0,0,0-.82-2.74,3.73,3.73,0,0,0-2.75-.84h-1.69v7.17Z"/><path class="cls-2" d="M169.11,103.31v1.29h-.8v-1.29Zm0,2.87v6.56h-.8v-6.56Z"/><path class="cls-2" d="M176.23,111a1.67,1.67,0,0,1-.22.88,1.89,1.89,0,0,1-.59.62,2.74,2.74,0,0,1-.84.36,4,4,0,0,1-1,.12,3.66,3.66,0,0,1-1.07-.14,2.4,2.4,0,0,1-.8-.41,2,2,0,0,1-.53-.64,2.4,2.4,0,0,1-.25-.85h.81a1.7,1.7,0,0,0,.2.56,1.4,1.4,0,0,0,.38.43,1.8,1.8,0,0,0,.57.28,2.56,2.56,0,0,0,.74.1,3,3,0,0,0,.6-.06,2.05,2.05,0,0,0,.58-.21,1.36,1.36,0,0,0,.44-.38,1,1,0,0,0,.18-.59.93.93,0,0,0-.34-.73,2.6,2.6,0,0,0-1.13-.46l-1-.22a4,4,0,0,1-.77-.24,2.1,2.1,0,0,1-.58-.37,1.46,1.46,0,0,1-.36-.5,1.61,1.61,0,0,1-.12-.65,1.57,1.57,0,0,1,.21-.84,1.77,1.77,0,0,1,.56-.57,2.53,2.53,0,0,1,.78-.33,3.77,3.77,0,0,1,.89-.11,3.27,3.27,0,0,1,.92.12,2.28,2.28,0,0,1,.73.35,1.83,1.83,0,0,1,.5.57,2.08,2.08,0,0,1,.25.78h-.8a1.33,1.33,0,0,0-.19-.5,1.24,1.24,0,0,0-.36-.37,1.69,1.69,0,0,0-.5-.22,2.36,2.36,0,0,0-.61-.08,2.85,2.85,0,0,0-.58.06,1.59,1.59,0,0,0-.51.19,1.07,1.07,0,0,0-.36.35,1,1,0,0,0-.13.53.74.74,0,0,0,.13.44,1.27,1.27,0,0,0,.33.32,1.92,1.92,0,0,0,.44.22,3.65,3.65,0,0,0,.46.13l1.37.3a2.85,2.85,0,0,1,.59.21,1.77,1.77,0,0,1,.5.35,1.64,1.64,0,0,1,.34.51A1.72,1.72,0,0,1,176.23,111Z"/><path class="cls-2" d="M183.66,112.7l-.27,0h-.24a1.37,1.37,0,0,1-.44-.06.65.65,0,0,1-.29-.2.82.82,0,0,1-.16-.36,2.42,2.42,0,0,1,0-.53h0a3,3,0,0,1-1,1,2.79,2.79,0,0,1-1.35.29,2.46,2.46,0,0,1-1.6-.5,1.75,1.75,0,0,1-.6-1.43,1.66,1.66,0,0,1,.66-1.43,6.79,6.79,0,0,1,3-.69,2,2,0,0,0,.44-.08.75.75,0,0,0,.29-.16.59.59,0,0,0,.16-.26,1.28,1.28,0,0,0,0-.38,1.25,1.25,0,0,0-.4-1,2,2,0,0,0-1.31-.34,2.61,2.61,0,0,0-.72.09,1.65,1.65,0,0,0-.53.25,1.13,1.13,0,0,0-.33.39,1.23,1.23,0,0,0-.13.49h-.8a2,2,0,0,1,.22-.78,1.77,1.77,0,0,1,.51-.59,2.43,2.43,0,0,1,.81-.38,4,4,0,0,1,1.09-.13,2.64,2.64,0,0,1,1.83.54,2,2,0,0,1,.59,1.52v3.56a.47.47,0,0,0,.11.33.46.46,0,0,0,.36.12.7.7,0,0,0,.25,0Zm-1.52-3.54h0q-.12.22-.77.31l-.67.1-.74.12a2.67,2.67,0,0,0-1.17.44,1,1,0,0,0-.39.84,1.16,1.16,0,0,0,.43.94,1.6,1.6,0,0,0,1,.35,2.36,2.36,0,0,0,1.63-.58,1.85,1.85,0,0,0,.65-1.44Z"/><path class="cls-2" d="M191.15,109.47a4.77,4.77,0,0,1-.17,1.28,3.38,3.38,0,0,1-.53,1.11,2.69,2.69,0,0,1-.92.79,2.8,2.8,0,0,1-1.33.3,2.91,2.91,0,0,1-.72-.09,2.59,2.59,0,0,1-.66-.27,2.33,2.33,0,0,1-.55-.45,2.18,2.18,0,0,1-.4-.63h0v1.25h-.74v-9.08h.8v3.77h0a2,2,0,0,1,.36-.61,2.25,2.25,0,0,1,.54-.45,2.49,2.49,0,0,1,.66-.28,3,3,0,0,1,2,.18,2.63,2.63,0,0,1,.91.75,3.34,3.34,0,0,1,.55,1.1A5,5,0,0,1,191.15,109.47Zm-.8,0a4.4,4.4,0,0,0,0-.65,3.53,3.53,0,0,0-.16-.64,2.89,2.89,0,0,0-.28-.59,2.08,2.08,0,0,0-.41-.48,1.83,1.83,0,0,0-.55-.32,2,2,0,0,0-.71-.12,2,2,0,0,0-1.73.85,2.72,2.72,0,0,0-.42.89,3.94,3.94,0,0,0-.14,1.06,4.21,4.21,0,0,0,.13,1,2.67,2.67,0,0,0,.4.9,2.08,2.08,0,0,0,.71.63,2.18,2.18,0,0,0,1.06.24,1.88,1.88,0,0,0,1-.23,2,2,0,0,0,.66-.63,2.91,2.91,0,0,0,.38-.89A4.9,4.9,0,0,0,190.35,109.47Z"/><path class="cls-2" d="M193.84,103.67v9.08H193v-9.08Z"/><path class="cls-2" d="M198.62,106a2.71,2.71,0,0,1,1.3.29,2.6,2.6,0,0,1,.9.79,3.44,3.44,0,0,1,.52,1.13,5.22,5.22,0,0,1,.17,1.34v.13h-5.05a3.58,3.58,0,0,0,.13.94,2.58,2.58,0,0,0,.39.83,2,2,0,0,0,.66.59,1.92,1.92,0,0,0,.95.22,2.44,2.44,0,0,0,.7-.09,2,2,0,0,0,.56-.26,1.76,1.76,0,0,0,.42-.39,2.4,2.4,0,0,0,.29-.49h.79a3,3,0,0,1-.38.79,2.48,2.48,0,0,1-.59.6,2.68,2.68,0,0,1-.79.39,3.33,3.33,0,0,1-1,.14,2.94,2.94,0,0,1-1.3-.27,2.56,2.56,0,0,1-.91-.73,3.12,3.12,0,0,1-.54-1.1,5.13,5.13,0,0,1-.18-1.37,4.66,4.66,0,0,1,.18-1.28,3.37,3.37,0,0,1,.54-1.11,2.74,2.74,0,0,1,.92-.78A2.79,2.79,0,0,1,198.62,106Zm2.09,3a3,3,0,0,0-.16-.85,2.44,2.44,0,0,0-.41-.75,2.07,2.07,0,0,0-.65-.54,1.84,1.84,0,0,0-.88-.21,1.84,1.84,0,0,0-1.5.7,2.69,2.69,0,0,0-.42.75,4.32,4.32,0,0,0-.23.9Z"/><path class="cls-2" d="M208.92,103.67v9.08h-.74V111.5h0a2,2,0,0,1-.39.59,2.58,2.58,0,0,1-.56.46,2.8,2.8,0,0,1-.67.29,2.63,2.63,0,0,1-.72.1,2.8,2.8,0,0,1-1.28-.28,2.68,2.68,0,0,1-.92-.75,3.32,3.32,0,0,1-.56-1.11,4.68,4.68,0,0,1-.19-1.34,4.83,4.83,0,0,1,.17-1.29,3.31,3.31,0,0,1,.53-1.11,2.68,2.68,0,0,1,.92-.78,3,3,0,0,1,2-.2,2.56,2.56,0,0,1,.65.27,2.26,2.26,0,0,1,.54.45,2.07,2.07,0,0,1,.38.63h0v-3.77Zm-5.26,5.8a4.17,4.17,0,0,0,.05.65,3.7,3.7,0,0,0,.16.64,2.81,2.81,0,0,0,.28.58,2.15,2.15,0,0,0,.41.48,1.8,1.8,0,0,0,.55.32,2,2,0,0,0,.7.12,2.07,2.07,0,0,0,1.73-.84,2.66,2.66,0,0,0,.43-.89,4,4,0,0,0,.14-1.06,4,4,0,0,0-.13-1,2.73,2.73,0,0,0-.41-.9,2.06,2.06,0,0,0-1.76-.87,1.94,1.94,0,0,0-.68.11,1.8,1.8,0,0,0-.54.31,2.14,2.14,0,0,0-.41.46,2.81,2.81,0,0,0-.29.58,3.51,3.51,0,0,0-.17.65A4.26,4.26,0,0,0,203.66,109.47Z"/></g><circle class="cls-4" cx="40" cy="61" r="8"/><g class="cls-5"><path class="cls-6" d="M40,54a7,7,0,1,1-7,7,7,7,0,0,1,7-7m0-1a8,8,0,1,0,8,8,8,8,0,0,0-8-8Z"/></g><g class="cls-7"><circle class="cls-8" cx="40" cy="109" r="8"/><g class="cls-9"><path class="cls-6" d="M40,102a7,7,0,1,1-7,7,7,7,0,0,1,7-7m0-1a8,8,0,1,0,8,8,8,8,0,0,0-8-8Z"/></g></g><g class="cls-7"><circle class="cls-8" cx="145" cy="109" r="8"/><g class="cls-9"><path class="cls-6" d="M145,102a7,7,0,1,1-7,7,7,7,0,0,1,7-7m0-1a8,8,0,1,0,8,8,8,8,0,0,0-8-8Z"/></g></g><circle class="cls-4" cx="145.64" cy="61" r="8"/><g class="cls-5"><path class="cls-6" d="M145.64,54a7,7,0,1,1-7,7,7,7,0,0,1,7-7m0-1a8,8,0,1,0,8,8,8,8,0,0,0-8-8Z"/></g><circle class="cls-10" cx="145.64" cy="61" r="3.56"/><circle class="cls-11" cx="145" cy="109" r="3.56"/><path class="cls-12" d="M21,10.44a2.72,2.72,0,0,1-.51,1.68,2.12,2.12,0,0,1-.62.55A2.81,2.81,0,0,1,19,13v0a2.83,2.83,0,0,1,.8.26,1.35,1.35,0,0,1,.47.4,2.11,2.11,0,0,1,.34.73,5.34,5.34,0,0,1,.13.83q0,.43.05.9a7,7,0,0,0,.11,1,2,2,0,0,0,.09.31,3.5,3.5,0,0,0,.21.43h-1a3.8,3.8,0,0,1-.26-1.55,4.23,4.23,0,0,0-.57-2.34A1.61,1.61,0,0,0,18,13.4H14.29v4.44h-1v-10H18A4,4,0,0,1,19.17,8a2.75,2.75,0,0,1,1,.52A2.37,2.37,0,0,1,21,10.44Zm-1,.19a2.29,2.29,0,0,0-.15-.85,1.68,1.68,0,0,0-.42-.62,1.77,1.77,0,0,0-.66-.38,2.8,2.8,0,0,0-.87-.13H14.29v3.93h3.6a2.21,2.21,0,0,0,1.48-.53A1.76,1.76,0,0,0,20,10.64Z"/><path class="cls-12" d="M29.74,17.78l-.31,0h-.28a1.61,1.61,0,0,1-.52-.07.76.76,0,0,1-.34-.23,1,1,0,0,1-.19-.41A2.88,2.88,0,0,1,28,16.5h0a3.56,3.56,0,0,1-1.2,1.22,3.25,3.25,0,0,1-1.58.34,2.87,2.87,0,0,1-1.87-.58,2,2,0,0,1-.7-1.67,1.93,1.93,0,0,1,.77-1.67,7.91,7.91,0,0,1,3.45-.8,2.34,2.34,0,0,0,.52-.1.87.87,0,0,0,.33-.19.69.69,0,0,0,.18-.3,1.48,1.48,0,0,0,.06-.44,1.45,1.45,0,0,0-.47-1.17,2.36,2.36,0,0,0-1.53-.4,3,3,0,0,0-.84.11,1.92,1.92,0,0,0-.62.29,1.31,1.31,0,0,0-.39.45,1.42,1.42,0,0,0-.16.57H23a2.32,2.32,0,0,1,.26-.91,2.07,2.07,0,0,1,.6-.69,2.83,2.83,0,0,1,.94-.44A4.7,4.7,0,0,1,26.09,10a3.09,3.09,0,0,1,2.13.63,2.29,2.29,0,0,1,.68,1.77v4.16a.55.55,0,0,0,.13.38.54.54,0,0,0,.42.14.82.82,0,0,0,.29-.05ZM28,13.64h0q-.14.26-.9.36l-.78.12-.86.14a3.11,3.11,0,0,0-1.36.51,1.17,1.17,0,0,0-.46,1,1.35,1.35,0,0,0,.51,1.1,1.87,1.87,0,0,0,1.2.41,2.76,2.76,0,0,0,1.91-.68A2.16,2.16,0,0,0,28,14.91Z"/><path class="cls-12" d="M38.1,7.24v10.6h-.86V16.38h0a2.38,2.38,0,0,1-.46.69,3,3,0,0,1-.66.53,3.24,3.24,0,0,1-.79.34,3.08,3.08,0,0,1-.84.12A3.26,3.26,0,0,1,33,17.73a3.12,3.12,0,0,1-1.07-.88,3.87,3.87,0,0,1-.65-1.29A5.44,5.44,0,0,1,31,14a5.66,5.66,0,0,1,.2-1.5,3.87,3.87,0,0,1,.62-1.3,3.13,3.13,0,0,1,1.07-.91,3.49,3.49,0,0,1,2.36-.24,3,3,0,0,1,.76.31,2.66,2.66,0,0,1,.64.52,2.43,2.43,0,0,1,.44.73h0V7.24ZM32,14a4.86,4.86,0,0,0,.06.76,4.35,4.35,0,0,0,.19.75,3.35,3.35,0,0,0,.33.68,2.52,2.52,0,0,0,.48.56,2.1,2.1,0,0,0,.64.38,2.29,2.29,0,0,0,.81.14,2.42,2.42,0,0,0,2-1,3.11,3.11,0,0,0,.5-1A4.62,4.62,0,0,0,37.17,14a4.71,4.71,0,0,0-.15-1.2,3.18,3.18,0,0,0-.48-1,2.4,2.4,0,0,0-2.06-1,2.28,2.28,0,0,0-.79.13,2.1,2.1,0,0,0-.63.36,2.5,2.5,0,0,0-.48.54,3.27,3.27,0,0,0-.34.67,4.17,4.17,0,0,0-.2.76A5,5,0,0,0,32,14Z"/><path class="cls-12" d="M41.63,6.83v1.5h-.94V6.83Zm0,3.35v7.66h-.94V10.18Z"/><path class="cls-12" d="M51,14a5,5,0,0,1-.24,1.53A3.88,3.88,0,0,1,50,16.85a3.38,3.38,0,0,1-2.67,1.21,3.31,3.31,0,0,1-2.62-1.14,4.26,4.26,0,0,1-1-2.91,4.25,4.25,0,0,1,1-2.91,3.6,3.6,0,0,1,5.26,0A4.26,4.26,0,0,1,51,14Zm-.94,0a4.45,4.45,0,0,0-.16-1.16,3.28,3.28,0,0,0-.49-1,2.62,2.62,0,0,0-.84-.76,2.39,2.39,0,0,0-1.21-.29A2.3,2.3,0,0,0,46.2,11a2.61,2.61,0,0,0-.84.74,3.31,3.31,0,0,0-.51,1,4.25,4.25,0,0,0-.17,1.2,4.19,4.19,0,0,0,.17,1.16,3.48,3.48,0,0,0,.5,1,2.62,2.62,0,0,0,.83.76,2.5,2.5,0,0,0,2.32,0,2.72,2.72,0,0,0,.84-.73,3.28,3.28,0,0,0,.52-1A4.15,4.15,0,0,0,50.05,14Z"/><path class="cls-12" d="M64.23,14A5.56,5.56,0,0,1,64,15.5a3.93,3.93,0,0,1-.62,1.3,3.14,3.14,0,0,1-1.07.92,3.27,3.27,0,0,1-1.55.35,3.39,3.39,0,0,1-.84-.11,3,3,0,0,1-.77-.31,2.73,2.73,0,0,1-.65-.52,2.53,2.53,0,0,1-.46-.74h0v1.46h-.87V7.24h.94v4.4h0a2.3,2.3,0,0,1,.42-.71,2.63,2.63,0,0,1,.63-.53,2.9,2.9,0,0,1,.77-.32,3.54,3.54,0,0,1,2.36.22,3.07,3.07,0,0,1,1.07.88A3.91,3.91,0,0,1,64,12.45,5.88,5.88,0,0,1,64.23,14Zm-.94,0a5.08,5.08,0,0,0-.06-.76,4,4,0,0,0-.18-.75,3.34,3.34,0,0,0-.33-.68,2.42,2.42,0,0,0-.48-.56,2.14,2.14,0,0,0-.65-.38,2.33,2.33,0,0,0-.82-.14,2.46,2.46,0,0,0-1.18.27,2.48,2.48,0,0,0-.83.72,3.18,3.18,0,0,0-.5,1A4.59,4.59,0,0,0,58.1,14a4.93,4.93,0,0,0,.15,1.2,3.12,3.12,0,0,0,.47,1,2.43,2.43,0,0,0,.83.74,2.54,2.54,0,0,0,1.24.28A2.19,2.19,0,0,0,61.91,17a2.3,2.3,0,0,0,.77-.73,3.39,3.39,0,0,0,.45-1A5.68,5.68,0,0,0,63.29,14Z"/><path class="cls-12" d="M71.75,17.83V16.46h0a2.87,2.87,0,0,1-.46.67,2.72,2.72,0,0,1-.61.5,2.88,2.88,0,0,1-.74.31,3.19,3.19,0,0,1-.84.11,2.58,2.58,0,0,1-2-.73,3.09,3.09,0,0,1-.65-2.12v-5h.94v5a3.09,3.09,0,0,0,.12.89,1.67,1.67,0,0,0,.36.66,1.55,1.55,0,0,0,.63.41,2.73,2.73,0,0,0,.93.14,2,2,0,0,0,1-.26,2.24,2.24,0,0,0,.72-.69,3,3,0,0,0,.42-1,4.55,4.55,0,0,0,.13-1.09V10.18h.94v7.66Z"/><path class="cls-12" d="M78.23,17.91h-.77a3.53,3.53,0,0,1-.79-.08,1.13,1.13,0,0,1-.52-.26,1.05,1.05,0,0,1-.29-.5,3.1,3.1,0,0,1-.08-.79V11H74.23v-.79h1.54V7.88h.94v2.3h1.75V11H76.71v5.22a2,2,0,0,0,0,.39.74.74,0,0,0,.12.3.57.57,0,0,0,.25.19,1,1,0,0,0,.4.07h.7l.24,0v.79Z"/><path class="cls-12" d="M83.6,17.91h-.77a3.53,3.53,0,0,1-.79-.08,1.13,1.13,0,0,1-.52-.26,1.05,1.05,0,0,1-.29-.5,3.1,3.1,0,0,1-.08-.79V11H79.6v-.79h1.54V7.88h.94v2.3h1.75V11H82.08v5.22a2,2,0,0,0,0,.39.74.74,0,0,0,.12.3.57.57,0,0,0,.25.19,1,1,0,0,0,.4.07h.7l.24,0v.79Z"/><path class="cls-12" d="M92.46,14a5,5,0,0,1-.24,1.53,3.88,3.88,0,0,1-.71,1.31,3.38,3.38,0,0,1-2.67,1.21,3.31,3.31,0,0,1-2.62-1.14,4.26,4.26,0,0,1-1-2.91,4.25,4.25,0,0,1,1-2.91,3.6,3.6,0,0,1,5.26,0A4.26,4.26,0,0,1,92.46,14Zm-.94,0a4.45,4.45,0,0,0-.16-1.16,3.28,3.28,0,0,0-.49-1A2.62,2.62,0,0,0,90,11a2.39,2.39,0,0,0-1.21-.29,2.3,2.3,0,0,0-1.15.28,2.61,2.61,0,0,0-.84.74,3.31,3.31,0,0,0-.51,1,4.25,4.25,0,0,0-.17,1.2,4.19,4.19,0,0,0,.17,1.16,3.48,3.48,0,0,0,.5,1,2.62,2.62,0,0,0,.83.76A2.5,2.5,0,0,0,90,17a2.72,2.72,0,0,0,.84-.73,3.28,3.28,0,0,0,.52-1A4.15,4.15,0,0,0,91.53,14Z"/><path class="cls-12" d="M98,10a3.91,3.91,0,0,1,1.26.18,2.14,2.14,0,0,1,.87.54,2.18,2.18,0,0,1,.5.9,4.41,4.41,0,0,1,.16,1.26v5h-.94V13a2.57,2.57,0,0,0-.48-1.69,1.8,1.8,0,0,0-1.46-.57,2.42,2.42,0,0,0-1,.2,2.2,2.2,0,0,0-.76.56,2.53,2.53,0,0,0-.48.83,3.08,3.08,0,0,0-.17,1v4.48h-.94V10.18h.94V11.5h0a2.3,2.3,0,0,1,.4-.65,2.51,2.51,0,0,1,.57-.49,2.71,2.71,0,0,1,.7-.3A2.89,2.89,0,0,1,98,10Z"/></svg>