<svg id="Layer_1" data-name="Layer 1" xmlns="http://www.w3.org/2000/svg" viewBox="0 0 230 346"><defs><style>.cls-1{fill:#0096e0;}.cls-2{fill:#08c;}.cls-3{fill:#fff;}.cls-4{fill:none;stroke:#236ea8;stroke-miterlimit:10;stroke-width:2px;}.cls-5{fill:#267bbd;}.cls-6{opacity:0.15;}.cls-7{fill:#00a9ff;}.cls-8{fill:#009bed;}.cls-9{opacity:0.6;}</style></defs><title>Artboard 2 copy 2</title><rect class="cls-1" x="24.5" y="28.5" width="176" height="71"/><path class="cls-2" d="M200,29V99H25V29H200m1-1H24v72H201V28Z"/><path class="cls-3" d="M66.28,53.13,75.8,68h.05V53.13h3.32v20H75.61L66.08,58.29H66V73.12H62.71v-20Z"/><path class="cls-3" d="M98.5,65.46A9.55,9.55,0,0,1,98,68.69a7.23,7.23,0,0,1-1.58,2.58A6.91,6.91,0,0,1,94,73a8.16,8.16,0,0,1-3.18.59,7.28,7.28,0,0,1-5.55-2.24,8.23,8.23,0,0,1-2.12-5.85,8.26,8.26,0,0,1,2.09-5.85,7.24,7.24,0,0,1,5.58-2.24,7.36,7.36,0,0,1,5.61,2.24A8.27,8.27,0,0,1,98.5,65.46Zm-3.38,0a8.37,8.37,0,0,0-.27-2.15A5.16,5.16,0,0,0,94,61.57a3.92,3.92,0,0,0-1.36-1.17A4.09,4.09,0,0,0,90.76,60a4,4,0,0,0-1.8.4,3.78,3.78,0,0,0-1.34,1.12,5.22,5.22,0,0,0-.83,1.74,8.84,8.84,0,0,0,0,4.44,5.1,5.1,0,0,0,.83,1.74A3.89,3.89,0,0,0,89,70.54a4,4,0,0,0,1.84.41,4,4,0,0,0,1.85-.41A3.9,3.9,0,0,0,94,69.39a5.22,5.22,0,0,0,.84-1.74A8,8,0,0,0,95.12,65.46Z"/><path class="cls-3" d="M102.26,73.12V57.78h3.19V60.9h.05a5.59,5.59,0,0,1,2-2.53,5.21,5.21,0,0,1,3-.92l.5,0a2.41,2.41,0,0,1,.47.08v3.17a4.17,4.17,0,0,0-.59-.08l-.66,0A4.3,4.3,0,0,0,106.81,62a5.52,5.52,0,0,0-1.19,3.66v7.42Z"/><path class="cls-3" d="M133.43,73.12V63.69a8,8,0,0,0-.12-1.45,3,3,0,0,0-.45-1.15,2.24,2.24,0,0,0-.9-.75,3.45,3.45,0,0,0-1.48-.27A2.9,2.9,0,0,0,128,61.17a5.33,5.33,0,0,0-.83,3.23v8.72h-3.38V63.3a3.84,3.84,0,0,0-.65-2.43,2.56,2.56,0,0,0-2.13-.81,3.12,3.12,0,0,0-2.52,1.12,4.65,4.65,0,0,0-.94,3v8.89h-3.38V57.78h3.17V60h.05a5.4,5.4,0,0,1,4.81-2.68,5.3,5.3,0,0,1,2.81.69,4,4,0,0,1,1.65,2,5.74,5.74,0,0,1,2-2,5.15,5.15,0,0,1,8.1,4.61V73.12Z"/><path class="cls-3" d="M155.66,73.12a8.34,8.34,0,0,1-1,.21,7.46,7.46,0,0,1-.92.05,4.16,4.16,0,0,1-1-.11,2.11,2.11,0,0,1-.79-.36,1.93,1.93,0,0,1-.55-.68,3,3,0,0,1-.29-1h0A6.22,6.22,0,0,1,150,72.27a5.35,5.35,0,0,1-1.22.73,7.74,7.74,0,0,1-3.06.56,5.65,5.65,0,0,1-3.77-1.19A4.13,4.13,0,0,1,140.54,69a4,4,0,0,1,1.39-3.31,4.93,4.93,0,0,1,1.35-.74,11,11,0,0,1,1.7-.46q.92-.18,1.92-.29l2-.24a4.82,4.82,0,0,0,.79-.16,1.85,1.85,0,0,0,.62-.31,1.38,1.38,0,0,0,.4-.52,1.83,1.83,0,0,0,.14-.77,2.29,2.29,0,0,0-.72-1.84,4.93,4.93,0,0,0-4.79,0,2.33,2.33,0,0,0-.92,1.7h-3.38a4.67,4.67,0,0,1,.66-2.1,4.57,4.57,0,0,1,1.46-1.45,6.74,6.74,0,0,1,2.11-.84,11.88,11.88,0,0,1,2.63-.27,8,8,0,0,1,4.77,1.16,3.85,3.85,0,0,1,1.56,3.28v8.27a1.1,1.1,0,0,0,.18.7.78.78,0,0,0,.64.23l.28,0a1.39,1.39,0,0,0,.29-.08Zm-4.77-7.81h0a2.21,2.21,0,0,1-1.27.53l-1.13.19-1.51.25a5.15,5.15,0,0,0-2.3.87,2,2,0,0,0-.75,1.67,2.07,2.07,0,0,0,.86,1.78,3.45,3.45,0,0,0,2,.56,4.18,4.18,0,0,0,3-1,3.71,3.71,0,0,0,1.15-2.9Z"/><path class="cls-3" d="M162.33,51.93V73.12H159V51.93Z"/><line class="cls-4" x1="24" y1="99" x2="201" y2="99"/><rect class="cls-5" x="25" y="138" width="175" height="70"/><path class="cls-5" d="M199,139v68H26V139H199m2-2H24v72H201V137Z"/><path class="cls-3" d="M83.56,182.12,81.83,177H73.55l-1.75,5.09H68.23l7.19-20h4.73l7.05,20Zm-5.8-17.38h-.05l-3.28,9.63h6.52Z"/><path class="cls-3" d="M96.59,166.37a9.54,9.54,0,0,1,2.48.31,6.58,6.58,0,0,1,2.08,1,5.3,5.3,0,0,1,1.49,1.58,5.38,5.38,0,0,1,.73,2.21H100a2.83,2.83,0,0,0-1.11-1.83,4,4,0,0,0-2.37-.64,3.58,3.58,0,0,0-1.89.49,4.21,4.21,0,0,0-1.33,1.27,5.7,5.7,0,0,0-.78,1.78,8,8,0,0,0,0,3.9,5.63,5.63,0,0,0,.74,1.76,4.15,4.15,0,0,0,1.3,1.29,3.52,3.52,0,0,0,1.91.5,4.21,4.21,0,0,0,1.39-.22,3.45,3.45,0,0,0,1.1-.62,3.26,3.26,0,0,0,.77-1,4.1,4.1,0,0,0,.42-1.22h3.27a7.18,7.18,0,0,1-.77,2.29,6.05,6.05,0,0,1-1.44,1.77,6.48,6.48,0,0,1-2.07,1.15,8.14,8.14,0,0,1-2.67.41,7.76,7.76,0,0,1-3.08-.59A7,7,0,0,1,91,180.31a7.5,7.5,0,0,1-1.55-2.52,8.93,8.93,0,0,1-.55-3.19,9.92,9.92,0,0,1,.5-3.17,7.72,7.72,0,0,1,1.47-2.62,6.94,6.94,0,0,1,2.4-1.78A7.76,7.76,0,0,1,96.59,166.37Z"/><path class="cls-3" d="M114.61,182.24l-.66,0-.68,0h-.61a10.67,10.67,0,0,1-1.72-.13,3.67,3.67,0,0,1-1.39-.51,2.6,2.6,0,0,1-.94-1,3.89,3.89,0,0,1-.34-1.76v-9.69h-3v-2.38h3v-4.59h3.38v4.59h3.5v2.38h-3.5v8.68a1.93,1.93,0,0,0,.39,1.35,1.88,1.88,0,0,0,1.39.41h.4l.47,0,.46,0,.39,0v2.67Z"/><path class="cls-3" d="M121.88,160.11v3.31H118.5v-3.31Zm0,6.67v15.34H118.5V166.78Z"/><path class="cls-3" d="M128.2,166.78l3.81,12h.07l3.77-12h3.36l-5.39,15.34h-3.71l-5.5-15.34Z"/><path class="cls-3" d="M148.48,166.37a7,7,0,0,1,3.14.66,6.51,6.51,0,0,1,2.25,1.8,7.78,7.78,0,0,1,1.35,2.65,11.1,11.1,0,0,1,.45,3.19v.62H144.36a6.45,6.45,0,0,0,.31,1.89,4.43,4.43,0,0,0,.81,1.47,3.61,3.61,0,0,0,1.26,1,4,4,0,0,0,1.68.34,4.44,4.44,0,0,0,2.28-.53,4,4,0,0,0,1.43-1.41h3.19a7.16,7.16,0,0,1-1.05,1.89,6.62,6.62,0,0,1-1.54,1.44,7,7,0,0,1-2,.91,8.52,8.52,0,0,1-2.37.31,7.64,7.64,0,0,1-3.1-.6,6.57,6.57,0,0,1-2.32-1.67,7.4,7.4,0,0,1-1.46-2.56,10,10,0,0,1-.51-3.26,9.45,9.45,0,0,1,.51-3.1,7.69,7.69,0,0,1,1.47-2.58,7.08,7.08,0,0,1,2.36-1.76A7.36,7.36,0,0,1,148.48,166.37ZM152.3,173a6.47,6.47,0,0,0-.38-1.65,4,4,0,0,0-.77-1.28,3.34,3.34,0,0,0-1.18-.83,4.45,4.45,0,0,0-3.2,0,3.52,3.52,0,0,0-1.2.83,4.19,4.19,0,0,0-.81,1.28,5.92,5.92,0,0,0-.4,1.63Z"/><g class="cls-6"><rect class="cls-7" x="25" y="248" width="175" height="70"/><path class="cls-8" d="M199,249v68H26V249H199m2-2H24v72H201V247Z"/></g><g class="cls-9"><path class="cls-2" d="M60.13,273.13a8.9,8.9,0,0,1,6.64,2.53q2.49,2.56,2.49,7.4t-2.46,7.48a8.65,8.65,0,0,1-6.59,2.58H52.13v-20Zm-.4,17a5.8,5.8,0,0,0,4.42-1.65q1.6-1.68,1.6-5.21,0-3.81-1.61-5.51a6.57,6.57,0,0,0-5-1.71H55.63v14.08Z"/><path class="cls-2" d="M76.33,271.11v3.31H73v-3.31Zm0,6.67v15.34H73V277.78Z"/><path class="cls-2" d="M93.54,288.49a4.67,4.67,0,0,1-.53,2.28,4.56,4.56,0,0,1-1.43,1.58,6.28,6.28,0,0,1-2.13.92,11.17,11.17,0,0,1-2.62.29,10.64,10.64,0,0,1-2.53-.29,6.39,6.39,0,0,1-2.07-.89,5,5,0,0,1-1.47-1.52,5.13,5.13,0,0,1-.71-2.19H83.3a2.68,2.68,0,0,0,1.18,1.87,3.51,3.51,0,0,0,1.07.47,5.09,5.09,0,0,0,1.3.16A5.56,5.56,0,0,0,88.1,291a3.39,3.39,0,0,0,1.06-.42,2.37,2.37,0,0,0,.74-.72,1.83,1.83,0,0,0,.28-1,1.43,1.43,0,0,0-.23-.81,2.11,2.11,0,0,0-.63-.6,4.3,4.3,0,0,0-.92-.43q-.53-.18-1.1-.31l-2.17-.52a14,14,0,0,1-2.11-.66,5.53,5.53,0,0,1-1.48-.86,3.1,3.1,0,0,1-.86-1.13,3.66,3.66,0,0,1-.28-1.48,4.13,4.13,0,0,1,.5-2.07,4.3,4.3,0,0,1,1.36-1.46,6.29,6.29,0,0,1,2-.87,10.41,10.41,0,0,1,2.5-.29,9.08,9.08,0,0,1,2.47.31,6.1,6.1,0,0,1,1.91.89A4.44,4.44,0,0,1,92.43,280a4.55,4.55,0,0,1,.58,1.8H89.77a2.39,2.39,0,0,0-1-1.51,3.85,3.85,0,0,0-2.13-.53,5.41,5.41,0,0,0-1.11.11,3,3,0,0,0-.9.33,1.8,1.8,0,0,0-.61.57,1.51,1.51,0,0,0-.23.84,1.39,1.39,0,0,0,.23.81,2.12,2.12,0,0,0,.6.57,3.39,3.39,0,0,0,.81.38q.44.14.85.24l3.23.77a10.2,10.2,0,0,1,1.59.51,4.59,4.59,0,0,1,1.27.79,3.44,3.44,0,0,1,.85,1.18A4.31,4.31,0,0,1,93.54,288.49Z"/><path class="cls-2" d="M111.4,293.12a8.34,8.34,0,0,1-1,.21,7.46,7.46,0,0,1-.92.05,4.16,4.16,0,0,1-1-.11,2.11,2.11,0,0,1-.79-.36,1.93,1.93,0,0,1-.55-.68,3,3,0,0,1-.29-1h0a6.22,6.22,0,0,1-1.06,1.07,5.35,5.35,0,0,1-1.22.73,7.74,7.74,0,0,1-3.06.56,5.65,5.65,0,0,1-3.77-1.19A4.13,4.13,0,0,1,96.28,289a4,4,0,0,1,1.39-3.31,4.93,4.93,0,0,1,1.35-.74,11,11,0,0,1,1.7-.46q.92-.18,1.92-.29l2-.24a4.82,4.82,0,0,0,.79-.16,1.85,1.85,0,0,0,.62-.31,1.38,1.38,0,0,0,.4-.52,1.83,1.83,0,0,0,.14-.77,2.29,2.29,0,0,0-.72-1.84,4.93,4.93,0,0,0-4.79,0,2.33,2.33,0,0,0-.92,1.7H96.83a4.67,4.67,0,0,1,.66-2.1,4.57,4.57,0,0,1,1.46-1.45,6.74,6.74,0,0,1,2.11-.84,11.88,11.88,0,0,1,2.63-.27,8,8,0,0,1,4.77,1.16,3.85,3.85,0,0,1,1.56,3.28v8.27a1.1,1.1,0,0,0,.18.7.78.78,0,0,0,.64.23l.28,0a1.39,1.39,0,0,0,.29-.08Zm-4.77-7.81h0a2.21,2.21,0,0,1-1.27.53l-1.13.19-1.51.25a5.15,5.15,0,0,0-2.3.87,2,2,0,0,0-.75,1.67,2.07,2.07,0,0,0,.86,1.78,3.45,3.45,0,0,0,2,.56,4.18,4.18,0,0,0,3-1,3.71,3.71,0,0,0,1.15-2.9Z"/><path class="cls-2" d="M129.57,285.45a11.32,11.32,0,0,1-.4,3A8.11,8.11,0,0,1,128,291a6.18,6.18,0,0,1-2.05,1.83,5.87,5.87,0,0,1-2.91.69,6.85,6.85,0,0,1-3.17-.7,4.43,4.43,0,0,1-2-2h-.05v2.3h-3.19V271.93h3.36V280H118a4.39,4.39,0,0,1,.84-1.11,5.05,5.05,0,0,1,1.17-.83,6.26,6.26,0,0,1,1.42-.53,6.66,6.66,0,0,1,1.58-.18,5.88,5.88,0,0,1,2.9.68,6.2,6.2,0,0,1,2,1.81,8,8,0,0,1,1.21,2.58A11.38,11.38,0,0,1,129.57,285.45Zm-3.38,0a8.75,8.75,0,0,0-.22-1.91,5.89,5.89,0,0,0-.7-1.78,4,4,0,0,0-1.27-1.31,3.51,3.51,0,0,0-1.93-.51,3.68,3.68,0,0,0-1.92.48,4,4,0,0,0-1.31,1.25,5.58,5.58,0,0,0-.75,1.76,8.47,8.47,0,0,0-.24,2,8.58,8.58,0,0,0,.23,1.93,5.51,5.51,0,0,0,.73,1.76,4.1,4.1,0,0,0,1.31,1.29,3.67,3.67,0,0,0,2,.5,3.47,3.47,0,0,0,1.87-.48,3.94,3.94,0,0,0,1.26-1.25,5.67,5.67,0,0,0,.72-1.76A9.22,9.22,0,0,0,126.19,285.46Z"/><path class="cls-2" d="M136.84,271.93v21.19h-3.38V271.93Z"/><path class="cls-2" d="M148,277.37a7,7,0,0,1,3.14.66,6.51,6.51,0,0,1,2.25,1.8,7.78,7.78,0,0,1,1.35,2.65,11.1,11.1,0,0,1,.45,3.19v.62H143.88a6.45,6.45,0,0,0,.31,1.89,4.43,4.43,0,0,0,.81,1.47,3.61,3.61,0,0,0,1.26,1,4,4,0,0,0,1.68.34,4.44,4.44,0,0,0,2.28-.53,4,4,0,0,0,1.43-1.41h3.19a7.16,7.16,0,0,1-1.05,1.89,6.62,6.62,0,0,1-1.54,1.44,7,7,0,0,1-2,.91,8.52,8.52,0,0,1-2.37.31,7.64,7.64,0,0,1-3.1-.6,6.57,6.57,0,0,1-2.32-1.67,7.4,7.4,0,0,1-1.46-2.56,10,10,0,0,1-.51-3.26,9.45,9.45,0,0,1,.51-3.1,7.69,7.69,0,0,1,1.47-2.58,7.08,7.08,0,0,1,2.36-1.76A7.36,7.36,0,0,1,148,277.37Zm3.81,6.64a6.47,6.47,0,0,0-.38-1.65,4,4,0,0,0-.77-1.28,3.34,3.34,0,0,0-1.18-.83,4.45,4.45,0,0,0-3.2,0,3.52,3.52,0,0,0-1.2.83,4.19,4.19,0,0,0-.81,1.28,5.92,5.92,0,0,0-.4,1.63Z"/><path class="cls-2" d="M173.06,271.93v21.19h-3.2v-2.3h-.05A4.83,4.83,0,0,1,169,292a5.05,5.05,0,0,1-1.15.86,5.7,5.7,0,0,1-1.39.53,6.52,6.52,0,0,1-1.56.18,6.36,6.36,0,0,1-3-.67,6.43,6.43,0,0,1-2.15-1.8,7.88,7.88,0,0,1-1.31-2.61,10.92,10.92,0,0,1-.44-3.11,10.55,10.55,0,0,1,.42-2.95,7.8,7.8,0,0,1,1.26-2.56,6.43,6.43,0,0,1,2.13-1.8,6.79,6.79,0,0,1,4.48-.51,5.82,5.82,0,0,1,1.35.5,4.86,4.86,0,0,1,1.14.83,4.78,4.78,0,0,1,.87,1.16h.05v-8.09Zm-11.73,13.51a8.46,8.46,0,0,0,.23,1.91,5.68,5.68,0,0,0,.73,1.78,4.22,4.22,0,0,0,1.31,1.31,3.51,3.51,0,0,0,1.93.51,4,4,0,0,0,1.84-.4,3.67,3.67,0,0,0,1.33-1.13,5.26,5.26,0,0,0,.81-1.74,8.59,8.59,0,0,0,.27-2.24,8.7,8.7,0,0,0-.23-2,5.38,5.38,0,0,0-.73-1.75,4,4,0,0,0-1.32-1.26,3.82,3.82,0,0,0-2-.49,3.64,3.64,0,0,0-1.91.47,4,4,0,0,0-1.29,1.24,5.48,5.48,0,0,0-.74,1.75A9.13,9.13,0,0,0,161.33,285.44Z"/></g></svg>