<svg id="Layer_1" data-name="Layer 1" xmlns="http://www.w3.org/2000/svg" viewBox="0 0 244 131"><defs><style>.cls-1{fill:none;}.cls-11,.cls-2{fill:#0aaeff;}.cls-12,.cls-3{fill:#d6f1ff;}.cls-4{fill:#70cfff;}.cls-15,.cls-5{fill:#8c8c8c;}.cls-11,.cls-5,.cls-6{opacity:0.2;}.cls-7{fill:#969696;}.cls-17,.cls-8{fill:#dcdcdc;}.cls-8{opacity:0.3;}.cls-12,.cls-9{opacity:0.4;}.cls-10{fill:#c3c3c3;}.cls-13{fill:#464646;}.cls-14{fill:#0076b7;}.cls-15,.cls-17,.cls-18{opacity:0.6;}.cls-16{opacity:0.7;}.cls-19{fill:#b4b4b4;}</style></defs><title>Artboard 14</title><rect class="cls-1" x="9" y="30" width="235" height="162"/><rect class="cls-2" x="194.5" y="53.5" width="11" height="11"/><path class="cls-2" d="M205,54V64H195V54h10m1-1H194V65h12V53Z"/><rect class="cls-3" x="206.5" y="50.5" width="17" height="17"/><path class="cls-4" d="M223,51V67H207V51h16m1-1H206V68h18V50Z"/><rect class="cls-5" x="154" y="104" width="10" height="10"/><g class="cls-6"><path class="cls-7" d="M164,104v10H154V104h10m1-1H153v12h12V103Z"/></g><rect class="cls-8" x="136" y="101" width="16" height="16"/><g class="cls-9"><path class="cls-10" d="M152,101v16H136V101h16m1-1H135v18h18V100Z"/></g><rect class="cls-11" x="195" y="104" width="10" height="10"/><g class="cls-6"><path class="cls-2" d="M205,104v10H195V104h10m1-1H194v12h12V103Z"/></g><rect class="cls-12" x="207" y="103" width="16" height="16"/><g class="cls-9"><path class="cls-4" d="M223,103v16H207V103h16m1-1H206v18h18V102Z"/></g><path class="cls-13" d="M31,55.39l5,7.25h0V55.39h.81V64h-.91l-5-7.25h0V64H30.1V55.39Z"/><path class="cls-13" d="M44.86,60.68a4.29,4.29,0,0,1-.2,1.31A3.31,3.31,0,0,1,44,63.12a2.9,2.9,0,0,1-2.29,1,2.84,2.84,0,0,1-2.24-1,4.07,4.07,0,0,1,0-5,3.08,3.08,0,0,1,4.51,0A3.65,3.65,0,0,1,44.86,60.68Zm-.8,0a3.8,3.8,0,0,0-.13-1,2.81,2.81,0,0,0-.42-.9,2.25,2.25,0,0,0-.72-.65,2,2,0,0,0-1-.25,2,2,0,0,0-1,.24,2.24,2.24,0,0,0-.72.64,2.85,2.85,0,0,0-.44.9,3.66,3.66,0,0,0-.15,1,3.58,3.58,0,0,0,.14,1,3,3,0,0,0,.43.9,2.24,2.24,0,0,0,.71.65,2,2,0,0,0,1,.25,2,2,0,0,0,1-.24,2.33,2.33,0,0,0,.72-.63,2.8,2.8,0,0,0,.45-.89A3.54,3.54,0,0,0,44.06,60.68Z"/><path class="cls-13" d="M46.66,64V57.4h.74v1.54h0a2.56,2.56,0,0,1,.9-1.2,2.32,2.32,0,0,1,1.38-.43H50v.8h-.18a2.22,2.22,0,0,0-1.71.69,2.36,2.36,0,0,0-.64,1.69V64Z"/><path class="cls-13" d="M59.56,64V59.49a1.73,1.73,0,0,0-.37-1.22,1.85,1.85,0,0,0-2.5.21,2.8,2.8,0,0,0-.45,1.71V64h-.81V59.46a1.81,1.81,0,0,0-.34-1.17,1.25,1.25,0,0,0-1-.42,1.72,1.72,0,0,0-1.46.65,2.72,2.72,0,0,0-.5,1.71V64h-.8V57.4H52v1.1h0a2.26,2.26,0,0,1,2.15-1.29,2.44,2.44,0,0,1,.64.08,1.86,1.86,0,0,1,.54.24,1.66,1.66,0,0,1,.42.4,1.86,1.86,0,0,1,.28.55,2.16,2.16,0,0,1,.85-1,2.4,2.4,0,0,1,1.24-.32,2.12,2.12,0,0,1,1.63.58,2.36,2.36,0,0,1,.54,1.66V64Z"/><path class="cls-13" d="M68.22,63.91,68,64h-.24a1.37,1.37,0,0,1-.44-.06.65.65,0,0,1-.29-.2.82.82,0,0,1-.16-.35,2.43,2.43,0,0,1,0-.53h0a3,3,0,0,1-1,1,2.79,2.79,0,0,1-1.35.29,2.46,2.46,0,0,1-1.6-.5,1.75,1.75,0,0,1-.6-1.43,1.66,1.66,0,0,1,.66-1.43,6.79,6.79,0,0,1,3-.69A2,2,0,0,0,66.2,60a.75.75,0,0,0,.29-.16.6.6,0,0,0,.16-.26,1.28,1.28,0,0,0,0-.38,1.24,1.24,0,0,0-.4-1A2,2,0,0,0,65,57.88a2.61,2.61,0,0,0-.72.09,1.65,1.65,0,0,0-.53.25,1.13,1.13,0,0,0-.33.39,1.23,1.23,0,0,0-.13.49h-.8a2,2,0,0,1,.22-.78,1.78,1.78,0,0,1,.51-.59,2.43,2.43,0,0,1,.81-.38,4,4,0,0,1,1.09-.13,2.64,2.64,0,0,1,1.83.54,2,2,0,0,1,.59,1.52v3.56a.47.47,0,0,0,.11.33.46.46,0,0,0,.36.12.7.7,0,0,0,.25,0ZM66.7,60.37h0q-.12.22-.77.31l-.67.1-.74.12a2.67,2.67,0,0,0-1.17.44,1,1,0,0,0-.39.84,1.16,1.16,0,0,0,.43.94,1.6,1.6,0,0,0,1,.35A2.36,2.36,0,0,0,66,62.89a1.85,1.85,0,0,0,.65-1.44Z"/><path class="cls-13" d="M70.48,54.88V64h-.8V54.88Z"/><path class="cls-13" d="M33,105.39a4.11,4.11,0,0,1,3,1,5.51,5.51,0,0,1,0,6.52,4,4,0,0,1-2.89,1H30.13v-8.57Zm-.22,7.87a3.57,3.57,0,0,0,2.61-.83,3.76,3.76,0,0,0,.84-2.75,3.82,3.82,0,0,0-.82-2.74,3.73,3.73,0,0,0-2.75-.84H30.95v7.17Z"/><path class="cls-13" d="M39.57,104.53v1.29h-.8v-1.29Zm0,2.87V114h-.8V107.4Z"/><path class="cls-13" d="M46.68,112.18a1.67,1.67,0,0,1-.22.88,1.89,1.89,0,0,1-.59.62A2.74,2.74,0,0,1,45,114a4,4,0,0,1-1,.12A3.66,3.66,0,0,1,43,114a2.4,2.4,0,0,1-.8-.41,2,2,0,0,1-.53-.64,2.4,2.4,0,0,1-.25-.85h.81a1.7,1.7,0,0,0,.2.56,1.41,1.41,0,0,0,.38.43,1.8,1.8,0,0,0,.57.28,2.56,2.56,0,0,0,.74.1,3,3,0,0,0,.6-.06,2.05,2.05,0,0,0,.58-.21,1.35,1.35,0,0,0,.44-.38,1,1,0,0,0,.18-.59.93.93,0,0,0-.34-.73,2.6,2.6,0,0,0-1.13-.46l-1-.22a4,4,0,0,1-.77-.24,2.1,2.1,0,0,1-.58-.37,1.46,1.46,0,0,1-.36-.5,1.62,1.62,0,0,1-.12-.65,1.57,1.57,0,0,1,.21-.83,1.78,1.78,0,0,1,.56-.57,2.53,2.53,0,0,1,.78-.33,3.77,3.77,0,0,1,.89-.11,3.27,3.27,0,0,1,.92.12,2.29,2.29,0,0,1,.73.35,1.83,1.83,0,0,1,.5.57,2.08,2.08,0,0,1,.25.78h-.8a1.32,1.32,0,0,0-.19-.5,1.24,1.24,0,0,0-.36-.37,1.69,1.69,0,0,0-.5-.22,2.36,2.36,0,0,0-.61-.08,2.85,2.85,0,0,0-.58.06,1.59,1.59,0,0,0-.51.19,1.07,1.07,0,0,0-.36.35,1,1,0,0,0-.13.53.74.74,0,0,0,.13.44,1.27,1.27,0,0,0,.33.32,1.93,1.93,0,0,0,.44.22,3.64,3.64,0,0,0,.46.13l1.37.3a2.85,2.85,0,0,1,.59.21,1.77,1.77,0,0,1,.5.35,1.64,1.64,0,0,1,.34.51A1.71,1.71,0,0,1,46.68,112.18Z"/><path class="cls-13" d="M54.11,113.91l-.27,0H53.6a1.37,1.37,0,0,1-.44-.06.65.65,0,0,1-.29-.2.82.82,0,0,1-.16-.35,2.43,2.43,0,0,1,0-.53h0a3,3,0,0,1-1,1,2.79,2.79,0,0,1-1.35.29,2.46,2.46,0,0,1-1.6-.5,1.75,1.75,0,0,1-.6-1.43,1.66,1.66,0,0,1,.66-1.43,6.79,6.79,0,0,1,3-.69,2,2,0,0,0,.44-.08.75.75,0,0,0,.29-.16.6.6,0,0,0,.16-.26,1.28,1.28,0,0,0,0-.38,1.24,1.24,0,0,0-.4-1,2,2,0,0,0-1.31-.34,2.61,2.61,0,0,0-.72.09,1.65,1.65,0,0,0-.53.25,1.13,1.13,0,0,0-.33.39,1.23,1.23,0,0,0-.13.49h-.8a2,2,0,0,1,.22-.78,1.78,1.78,0,0,1,.51-.59,2.43,2.43,0,0,1,.81-.38,4,4,0,0,1,1.09-.13,2.64,2.64,0,0,1,1.83.54,2,2,0,0,1,.59,1.52v3.56a.47.47,0,0,0,.11.33.46.46,0,0,0,.36.12.7.7,0,0,0,.25,0Zm-1.52-3.54h0q-.12.22-.77.31l-.67.1-.74.12a2.67,2.67,0,0,0-1.17.44,1,1,0,0,0-.39.84,1.16,1.16,0,0,0,.43.94,1.6,1.6,0,0,0,1,.35,2.36,2.36,0,0,0,1.63-.58,1.85,1.85,0,0,0,.65-1.44Z"/><path class="cls-13" d="M61.61,110.68a4.77,4.77,0,0,1-.17,1.28,3.38,3.38,0,0,1-.53,1.11,2.69,2.69,0,0,1-.92.79,2.8,2.8,0,0,1-1.33.3,2.9,2.9,0,0,1-.72-.09,2.59,2.59,0,0,1-.66-.27,2.34,2.34,0,0,1-.55-.45,2.18,2.18,0,0,1-.4-.63h0V114h-.74v-9.08h.8v3.77h0a2,2,0,0,1,.36-.61,2.25,2.25,0,0,1,.54-.45,2.5,2.5,0,0,1,.66-.28,3,3,0,0,1,2,.18,2.62,2.62,0,0,1,.91.75,3.34,3.34,0,0,1,.55,1.1A5,5,0,0,1,61.61,110.68Zm-.8,0a4.39,4.39,0,0,0,0-.65,3.54,3.54,0,0,0-.16-.64,2.89,2.89,0,0,0-.28-.59,2.08,2.08,0,0,0-.41-.48,1.83,1.83,0,0,0-.55-.32,2,2,0,0,0-.71-.12,2.05,2.05,0,0,0-1.73.85,2.72,2.72,0,0,0-.42.89,3.94,3.94,0,0,0-.14,1.06,4.21,4.21,0,0,0,.13,1,2.67,2.67,0,0,0,.4.9,2.08,2.08,0,0,0,.71.63,2.18,2.18,0,0,0,1.06.24,1.88,1.88,0,0,0,1-.23,2,2,0,0,0,.66-.63,2.9,2.9,0,0,0,.38-.89A4.91,4.91,0,0,0,60.8,110.68Z"/><path class="cls-13" d="M64.3,104.88V114h-.8v-9.08Z"/><path class="cls-13" d="M69.08,107.21a2.71,2.71,0,0,1,1.3.29,2.6,2.6,0,0,1,.9.79,3.45,3.45,0,0,1,.52,1.13,5.21,5.21,0,0,1,.17,1.34v.13H66.92a3.58,3.58,0,0,0,.13.94,2.59,2.59,0,0,0,.39.83,2,2,0,0,0,.66.59,1.92,1.92,0,0,0,.95.22,2.44,2.44,0,0,0,.7-.09,2,2,0,0,0,.56-.26,1.76,1.76,0,0,0,.42-.39,2.41,2.41,0,0,0,.29-.49h.79a3,3,0,0,1-.38.79,2.48,2.48,0,0,1-.59.6A2.68,2.68,0,0,1,70,114a3.34,3.34,0,0,1-1,.14,2.94,2.94,0,0,1-1.3-.27,2.56,2.56,0,0,1-.91-.73,3.12,3.12,0,0,1-.54-1.1,5.14,5.14,0,0,1-.18-1.37,4.66,4.66,0,0,1,.18-1.28,3.36,3.36,0,0,1,.54-1.11,2.74,2.74,0,0,1,.92-.78A2.79,2.79,0,0,1,69.08,107.21Zm2.09,3a3,3,0,0,0-.16-.85,2.44,2.44,0,0,0-.41-.75,2.07,2.07,0,0,0-.65-.54,1.84,1.84,0,0,0-.88-.21,1.84,1.84,0,0,0-1.5.7,2.7,2.7,0,0,0-.42.75,4.31,4.31,0,0,0-.23.9Z"/><path class="cls-13" d="M79.37,104.88V114h-.74v-1.25h0a2,2,0,0,1-.39.59,2.57,2.57,0,0,1-.56.45A2.8,2.8,0,0,1,77,114a2.63,2.63,0,0,1-.72.1,2.8,2.8,0,0,1-1.28-.28,2.68,2.68,0,0,1-.92-.75,3.32,3.32,0,0,1-.56-1.11,4.68,4.68,0,0,1-.19-1.34,4.83,4.83,0,0,1,.17-1.29,3.31,3.31,0,0,1,.53-1.11,2.69,2.69,0,0,1,.92-.78,3,3,0,0,1,2-.2,2.56,2.56,0,0,1,.65.27,2.25,2.25,0,0,1,.54.45,2.07,2.07,0,0,1,.38.63h0v-3.77Zm-5.26,5.8a4.17,4.17,0,0,0,.05.65,3.7,3.7,0,0,0,.16.64,2.82,2.82,0,0,0,.28.58A2.15,2.15,0,0,0,75,113a1.8,1.8,0,0,0,.55.32,2,2,0,0,0,.7.12,2.08,2.08,0,0,0,1.73-.84,2.66,2.66,0,0,0,.43-.89,4,4,0,0,0,.14-1.06,4,4,0,0,0-.13-1,2.73,2.73,0,0,0-.41-.9,2.06,2.06,0,0,0-1.76-.88,1.94,1.94,0,0,0-.68.11,1.8,1.8,0,0,0-.54.31,2.15,2.15,0,0,0-.41.47,2.8,2.8,0,0,0-.29.58,3.52,3.52,0,0,0-.17.65A4.25,4.25,0,0,0,74.12,110.68Z"/><path class="cls-14" d="M17,6.84v.81H13.5v9.18h-1V7.65H9.06V6.84Z"/><path class="cls-14" d="M23.73,13a5,5,0,0,1-.24,1.53,3.88,3.88,0,0,1-.71,1.31,3.38,3.38,0,0,1-2.67,1.21,3.31,3.31,0,0,1-2.62-1.14,4.26,4.26,0,0,1-1-2.91,4.25,4.25,0,0,1,1-2.91A3.32,3.32,0,0,1,20.11,9a3.33,3.33,0,0,1,2.63,1.14A4.26,4.26,0,0,1,23.73,13Zm-.94,0a4.45,4.45,0,0,0-.16-1.16,3.28,3.28,0,0,0-.49-1A2.62,2.62,0,0,0,21.3,10a2.39,2.39,0,0,0-1.21-.29,2.3,2.3,0,0,0-1.15.28,2.61,2.61,0,0,0-.84.74,3.31,3.31,0,0,0-.51,1,4.25,4.25,0,0,0-.17,1.2,4.19,4.19,0,0,0,.17,1.16,3.48,3.48,0,0,0,.5,1,2.62,2.62,0,0,0,.83.76,2.5,2.5,0,0,0,2.32,0,2.72,2.72,0,0,0,.84-.73,3.28,3.28,0,0,0,.52-1A4.15,4.15,0,0,0,22.79,13Z"/><path class="cls-14" d="M28.82,9a2.67,2.67,0,0,1,.75.11,2.71,2.71,0,0,1,.68.3,2.74,2.74,0,0,1,.58.49,2.66,2.66,0,0,1,.43.65h0V9.18h.94v7.12A3.82,3.82,0,0,1,31.38,19a3.36,3.36,0,0,1-2.58.92,5.3,5.3,0,0,1-1.08-.11,3.14,3.14,0,0,1-1-.36,2.19,2.19,0,0,1-.7-.64,2,2,0,0,1-.33-1h.94a1.45,1.45,0,0,0,.65,1,2.72,2.72,0,0,0,1.46.33,2.39,2.39,0,0,0,1.88-.71,3.1,3.1,0,0,0,.63-2.12V14.91h0a3,3,0,0,1-.44.67,2.67,2.67,0,0,1-.58.5,2.73,2.73,0,0,1-.7.31,2.81,2.81,0,0,1-.79.11,3.68,3.68,0,0,1-1.5-.28,2.84,2.84,0,0,1-1.06-.79,3.32,3.32,0,0,1-.62-1.2,5.41,5.41,0,0,1-.21-1.53,4.6,4.6,0,0,1,.22-1.43,3.43,3.43,0,0,1,.66-1.19,3.19,3.19,0,0,1,1.08-.82A3.46,3.46,0,0,1,28.82,9Zm-2.52,3.83a4.06,4.06,0,0,0,.14,1.12,2.68,2.68,0,0,0,.45.93,2.19,2.19,0,0,0,.78.64,2.48,2.48,0,0,0,1.12.24,2.22,2.22,0,0,0,1.07-.25,2.46,2.46,0,0,0,.78-.66,2.94,2.94,0,0,0,.49-.93,3.52,3.52,0,0,0,.17-1.08,4.33,4.33,0,0,0-.14-1.08,3.09,3.09,0,0,0-.44-1,2.37,2.37,0,0,0-.77-.71,2.18,2.18,0,0,0-1.13-.28A2.27,2.27,0,0,0,27.7,10a2.37,2.37,0,0,0-.78.68,3,3,0,0,0-.46,1A4.47,4.47,0,0,0,26.31,12.79Z"/><path class="cls-14" d="M37.78,9a2.67,2.67,0,0,1,.75.11,2.71,2.71,0,0,1,.68.3,2.74,2.74,0,0,1,.58.49,2.66,2.66,0,0,1,.43.65h0V9.18h.94v7.12A3.82,3.82,0,0,1,40.33,19a3.36,3.36,0,0,1-2.58.92,5.3,5.3,0,0,1-1.08-.11,3.14,3.14,0,0,1-1-.36,2.19,2.19,0,0,1-.7-.64,2,2,0,0,1-.33-1h.94a1.45,1.45,0,0,0,.65,1,2.72,2.72,0,0,0,1.46.33,2.39,2.39,0,0,0,1.88-.71,3.1,3.1,0,0,0,.63-2.12V14.91h0a3,3,0,0,1-.44.67,2.67,2.67,0,0,1-.58.5,2.73,2.73,0,0,1-.7.31,2.81,2.81,0,0,1-.79.11,3.68,3.68,0,0,1-1.5-.28,2.84,2.84,0,0,1-1.06-.79,3.32,3.32,0,0,1-.62-1.2,5.41,5.41,0,0,1-.21-1.53,4.6,4.6,0,0,1,.22-1.43,3.43,3.43,0,0,1,.66-1.19,3.19,3.19,0,0,1,1.08-.82A3.46,3.46,0,0,1,37.78,9Zm-2.52,3.83a4.06,4.06,0,0,0,.14,1.12,2.68,2.68,0,0,0,.45.93,2.19,2.19,0,0,0,.78.64,2.48,2.48,0,0,0,1.12.24,2.22,2.22,0,0,0,1.07-.25,2.46,2.46,0,0,0,.78-.66,2.94,2.94,0,0,0,.49-.93,3.52,3.52,0,0,0,.17-1.08,4.33,4.33,0,0,0-.14-1.08,3.09,3.09,0,0,0-.44-1A2.37,2.37,0,0,0,38.9,10a2.18,2.18,0,0,0-1.13-.28,2.27,2.27,0,0,0-1.12.26,2.37,2.37,0,0,0-.78.68,3,3,0,0,0-.46,1A4.47,4.47,0,0,0,35.26,12.79Z"/><path class="cls-14" d="M44.69,6.24v10.6h-.94V6.24Z"/><path class="cls-14" d="M50.27,9a3.16,3.16,0,0,1,1.52.34,3,3,0,0,1,1,.92,4,4,0,0,1,.61,1.32,6.09,6.09,0,0,1,.2,1.56v.15H47.75a4.19,4.19,0,0,0,.15,1.1,3,3,0,0,0,.45,1,2.32,2.32,0,0,0,.77.69,2.23,2.23,0,0,0,1.11.26,2.85,2.85,0,0,0,.82-.11,2.35,2.35,0,0,0,.65-.3,2,2,0,0,0,.49-.45,2.83,2.83,0,0,0,.34-.57h.92a3.48,3.48,0,0,1-.45.92,2.89,2.89,0,0,1-.68.7,3.11,3.11,0,0,1-.92.45,3.89,3.89,0,0,1-1.16.16,3.43,3.43,0,0,1-1.51-.31,3,3,0,0,1-1.06-.85A3.63,3.63,0,0,1,47,14.61a6,6,0,0,1-.21-1.6,5.45,5.45,0,0,1,.21-1.5,3.92,3.92,0,0,1,.63-1.3,3.19,3.19,0,0,1,1.08-.91A3.26,3.26,0,0,1,50.27,9Zm2.43,3.51a3.55,3.55,0,0,0-.18-1,2.84,2.84,0,0,0-.48-.88,2.41,2.41,0,0,0-.76-.63,2.15,2.15,0,0,0-1-.24,2.21,2.21,0,0,0-1,.22,2.24,2.24,0,0,0-.74.59,3.18,3.18,0,0,0-.49.87,5,5,0,0,0-.27,1Z"/><path class="cls-14" d="M65.39,14.76a2,2,0,0,1-.26,1,2.21,2.21,0,0,1-.69.72,3.2,3.2,0,0,1-1,.42,4.64,4.64,0,0,1-1.14.14,4.27,4.27,0,0,1-1.25-.17,2.79,2.79,0,0,1-.94-.48,2.33,2.33,0,0,1-.62-.75,2.81,2.81,0,0,1-.29-1h.94a2,2,0,0,0,.23.65,1.65,1.65,0,0,0,.44.5,2.09,2.09,0,0,0,.66.32,3,3,0,0,0,.87.12,3.49,3.49,0,0,0,.7-.08,2.4,2.4,0,0,0,.68-.25,1.57,1.57,0,0,0,.52-.45,1.12,1.12,0,0,0,.21-.69,1.08,1.08,0,0,0-.4-.85,3,3,0,0,0-1.32-.54l-1.17-.26a4.68,4.68,0,0,1-.9-.28,2.45,2.45,0,0,1-.67-.43,1.7,1.7,0,0,1-.42-.58,1.88,1.88,0,0,1-.14-.76,1.83,1.83,0,0,1,.25-1,2.08,2.08,0,0,1,.65-.67,3,3,0,0,1,.91-.38,4.4,4.4,0,0,1,1-.12,3.81,3.81,0,0,1,1.08.14,2.67,2.67,0,0,1,.85.41,2.14,2.14,0,0,1,.59.67,2.43,2.43,0,0,1,.29.91h-.94a1.55,1.55,0,0,0-.22-.58,1.44,1.44,0,0,0-.42-.43,2,2,0,0,0-.59-.26,2.75,2.75,0,0,0-.71-.09,3.34,3.34,0,0,0-.67.07A1.85,1.85,0,0,0,61,10a1.24,1.24,0,0,0-.42.41,1.13,1.13,0,0,0-.16.62.87.87,0,0,0,.15.51,1.48,1.48,0,0,0,.39.38,2.21,2.21,0,0,0,.51.26,4.26,4.26,0,0,0,.54.15l1.6.36a3.32,3.32,0,0,1,.69.24,2.05,2.05,0,0,1,.58.41,1.91,1.91,0,0,1,.4.59A2,2,0,0,1,65.39,14.76Z"/><path class="cls-14" d="M67.55,9.18l2,6.56h0L71.4,9.18h1.05l1.87,6.56h0l2-6.56h1l-2.47,7.66h-1l-1.88-6.44h0L70,16.83H69L66.55,9.18Z"/><path class="cls-14" d="M79.93,5.83v1.5H79V5.83Zm0,3.35v7.66H79V9.18Z"/><path class="cls-14" d="M85.59,16.91h-.77a3.53,3.53,0,0,1-.79-.08,1.13,1.13,0,0,1-.52-.26,1.05,1.05,0,0,1-.29-.5,3.1,3.1,0,0,1-.08-.79V10H81.59V9.18h1.54V6.88h.94v2.3h1.75V10H84.07v5.22a2,2,0,0,0,0,.39.74.74,0,0,0,.12.3.57.57,0,0,0,.25.19,1,1,0,0,0,.4.07h.7l.24,0v.79Z"/><path class="cls-14" d="M91,9a4,4,0,0,1,1.13.15,2.94,2.94,0,0,1,.91.44,2.39,2.39,0,0,1,.65.71,2.71,2.71,0,0,1,.34,1h-.94a2,2,0,0,0-.26-.6,1.74,1.74,0,0,0-.44-.47,2,2,0,0,0-.62-.3A2.73,2.73,0,0,0,91,9.74a2.35,2.35,0,0,0-1.15.27,2.56,2.56,0,0,0-.84.73,3.39,3.39,0,0,0-.52,1A4.16,4.16,0,0,0,88.36,13a4.28,4.28,0,0,0,.16,1.17,3.36,3.36,0,0,0,.5,1,2.64,2.64,0,0,0,.83.76,2.28,2.28,0,0,0,1.17.29,2.25,2.25,0,0,0,.83-.15,2.22,2.22,0,0,0,.66-.39,2.11,2.11,0,0,0,.46-.57,2.19,2.19,0,0,0,.24-.67h.94a3.47,3.47,0,0,1-.34,1,2.9,2.9,0,0,1-.64.82,3,3,0,0,1-.93.56,3.36,3.36,0,0,1-1.21.21,3.5,3.5,0,0,1-1.51-.31,3.32,3.32,0,0,1-1.13-.86,3.82,3.82,0,0,1-.71-1.29A5,5,0,0,1,87.43,13a5.06,5.06,0,0,1,.23-1.52,3.87,3.87,0,0,1,.68-1.29,3.39,3.39,0,0,1,1.13-.9A3.47,3.47,0,0,1,91,9Z"/><path class="cls-14" d="M101.48,16.83V12a2.57,2.57,0,0,0-.48-1.69,1.8,1.8,0,0,0-1.46-.57,2.38,2.38,0,0,0-1,.21,2.24,2.24,0,0,0-.75.56,2.5,2.5,0,0,0-.47.83,3.1,3.1,0,0,0-.16,1v4.48H96.2V6.24h.94V10.5h0a2.19,2.19,0,0,1,.4-.65,2.47,2.47,0,0,1,.58-.49,2.83,2.83,0,0,1,.71-.3A2.87,2.87,0,0,1,99.62,9a3.91,3.91,0,0,1,1.26.18,2.14,2.14,0,0,1,.87.54,2.18,2.18,0,0,1,.5.9,4.41,4.41,0,0,1,.16,1.26v5Z"/><rect class="cls-15" x="155" y="54" width="10" height="10"/><g class="cls-16"><path class="cls-7" d="M165,54V64H155V54h10m1-1H154V65h12V53Z"/></g><rect class="cls-17" x="137" y="51" width="16" height="16"/><g class="cls-18"><path class="cls-19" d="M153,51V67H137V51h16m1-1H136V68h18V50Z"/></g></svg>