<svg xmlns="http://www.w3.org/2000/svg" viewBox="0 0 240 128"><defs><style>.cls-1{fill:#e1e1e1;}.cls-2{fill:#f0f0f0;}.cls-3{fill:#ebebeb;}.cls-4{fill:#464646;}.cls-5{fill:#646464;}.cls-6,.cls-7,.cls-8{fill:none;stroke-miterlimit:10;}.cls-6{stroke:#e6e6e6;}.cls-7{stroke:#c8c8c8;}.cls-8{stroke:#d7d7d7;}</style></defs><title>Artboard 56</title><g id="Layer_1" data-name="Layer 1"><rect class="cls-1" x="10" y="14.51" width="218.06" height="36"/><rect class="cls-2" x="191.58" y="51.01" width="35" height="35"/><path class="cls-3" d="M226.08,51.51v34h-34v-34h34m1-1h-36v36h36v-36Z"/><path class="cls-4" d="M209.5,66.46a2.8,2.8,0,0,1-.1.8,1.66,1.66,0,0,1-.31.59,1.31,1.31,0,0,1-.5.37,1.73,1.73,0,0,1-.68.13,1.45,1.45,0,0,1-1.18-.49,2.57,2.57,0,0,1,0-2.8,1.46,1.46,0,0,1,1.18-.49,1.72,1.72,0,0,1,.68.13,1.28,1.28,0,0,1,.5.37,1.68,1.68,0,0,1,.31.6A2.8,2.8,0,0,1,209.5,66.46Zm-.53,0a2.44,2.44,0,0,0-.05-.51,1.5,1.5,0,0,0-.18-.47,1,1,0,0,0-.33-.34,1,1,0,0,0-1.28.24,2.19,2.19,0,0,0,0,2.13,1,1,0,0,0,1.28.25,1,1,0,0,0,.32-.32,1.44,1.44,0,0,0,.18-.46A2.77,2.77,0,0,0,209,66.47ZM208,72h-.48l4.53-7.59h.47Zm5.88-2.08a2.76,2.76,0,0,1-.11.8,1.66,1.66,0,0,1-.31.59,1.32,1.32,0,0,1-.5.37,1.73,1.73,0,0,1-.68.13,1.64,1.64,0,0,1-.7-.14,1.37,1.37,0,0,1-.5-.4,1.74,1.74,0,0,1-.29-.6,3,3,0,0,1,0-1.55,1.68,1.68,0,0,1,.3-.6,1.27,1.27,0,0,1,.5-.37,1.9,1.9,0,0,1,1.37,0,1.27,1.27,0,0,1,.5.37,1.68,1.68,0,0,1,.3.6A2.77,2.77,0,0,1,213.89,69.9Zm-.53,0a2.51,2.51,0,0,0-.05-.51,1.52,1.52,0,0,0-.18-.47,1.05,1.05,0,0,0-.33-.34.91.91,0,0,0-.51-.13.9.9,0,0,0-.78.38,1.8,1.8,0,0,0-.27,1.07,1.74,1.74,0,0,0,.28,1.05,1,1,0,0,0,1.27.25,1,1,0,0,0,.33-.32,1.46,1.46,0,0,0,.18-.46A2.62,2.62,0,0,0,213.36,69.91Z"/><rect class="cls-2" x="191.58" y="87.01" width="35" height="35"/><path class="cls-3" d="M226.08,87.51v34h-34v-34h34m1-1h-36v36h36v-36Z"/><path class="cls-4" d="M209.5,102.46a2.8,2.8,0,0,1-.1.8,1.66,1.66,0,0,1-.31.59,1.31,1.31,0,0,1-.5.37,1.73,1.73,0,0,1-.68.13,1.45,1.45,0,0,1-1.18-.49,2.57,2.57,0,0,1,0-2.8,1.46,1.46,0,0,1,1.18-.49,1.72,1.72,0,0,1,.68.13,1.28,1.28,0,0,1,.5.37,1.68,1.68,0,0,1,.31.6A2.8,2.8,0,0,1,209.5,102.46Zm-.53,0a2.44,2.44,0,0,0-.05-.51,1.5,1.5,0,0,0-.18-.47,1,1,0,0,0-.33-.34,1,1,0,0,0-1.28.24,2.19,2.19,0,0,0,0,2.13,1,1,0,0,0,1.28.25,1,1,0,0,0,.32-.32,1.44,1.44,0,0,0,.18-.46A2.77,2.77,0,0,0,209,102.47Zm-1,5.5h-.48l4.53-7.59h.47Zm5.88-2.08a2.76,2.76,0,0,1-.11.8,1.66,1.66,0,0,1-.31.59,1.32,1.32,0,0,1-.5.37,1.73,1.73,0,0,1-.68.13,1.64,1.64,0,0,1-.7-.14,1.37,1.37,0,0,1-.5-.4,1.74,1.74,0,0,1-.29-.6,3,3,0,0,1,0-1.55,1.68,1.68,0,0,1,.3-.6,1.27,1.27,0,0,1,.5-.37,1.9,1.9,0,0,1,1.37,0,1.27,1.27,0,0,1,.5.37,1.68,1.68,0,0,1,.3.6A2.77,2.77,0,0,1,213.89,105.9Zm-.53,0a2.51,2.51,0,0,0-.05-.51,1.52,1.52,0,0,0-.18-.47,1.05,1.05,0,0,0-.33-.34.91.91,0,0,0-.51-.13.9.9,0,0,0-.78.38,1.8,1.8,0,0,0-.27,1.07,1.74,1.74,0,0,0,.28,1.05,1,1,0,0,0,1.27.25,1,1,0,0,0,.33-.32,1.46,1.46,0,0,0,.18-.46A2.62,2.62,0,0,0,213.36,105.91Z"/><path class="cls-4" d="M23,63.65v.7H17.94v3.09h4.77v.69H17.94v3.38h5.14v.7h-6V63.65Z"/><path class="cls-4" d="M30.77,69.93a2.15,2.15,0,0,1-.28,1.14,2.26,2.26,0,0,1-.76.76,3.46,3.46,0,0,1-1.1.42,6.15,6.15,0,0,1-1.29.13,4.8,4.8,0,0,1-1.28-.16,3.18,3.18,0,0,1-1-.49,2.35,2.35,0,0,1-.69-.79,2.22,2.22,0,0,1-.25-1.08v-.19h.82v.06a1.87,1.87,0,0,0,.16.76,1.65,1.65,0,0,0,.48.62,2.43,2.43,0,0,0,.81.42,3.79,3.79,0,0,0,1.15.16,4,4,0,0,0,.9-.1,2.56,2.56,0,0,0,.79-.32,1.81,1.81,0,0,0,.56-.54A1.38,1.38,0,0,0,30,70q0-1.11-1.67-1.52l-2-.49a4,4,0,0,1-.88-.31,2.14,2.14,0,0,1-.6-.44,1.6,1.6,0,0,1-.35-.58,2.24,2.24,0,0,1-.11-.73,2.1,2.1,0,0,1,.25-1,2.34,2.34,0,0,1,.68-.76,3.07,3.07,0,0,1,1-.46,4.16,4.16,0,0,1,1.14-.16,4.34,4.34,0,0,1,1.2.16,2.9,2.9,0,0,1,1,.46,2.27,2.27,0,0,1,.64.75,2.24,2.24,0,0,1,.25,1h-.81a1.6,1.6,0,0,0-.2-.65,1.78,1.78,0,0,0-.46-.53,2.24,2.24,0,0,0-.69-.36,2.81,2.81,0,0,0-.88-.13,3.49,3.49,0,0,0-.91.11,2.16,2.16,0,0,0-.71.33,1.46,1.46,0,0,0-.46.53,1.6,1.6,0,0,0-.16.73,1.2,1.2,0,0,0,.11.52,1.13,1.13,0,0,0,.29.38A1.54,1.54,0,0,0,26,67a4,4,0,0,0,.53.17l2,.48a3.73,3.73,0,0,1,1.76.85A1.93,1.93,0,0,1,30.77,69.93Z"/><path class="cls-4" d="M35.34,63.64a4.11,4.11,0,0,1,3,1,4.36,4.36,0,0,1,1.07,3.26,4.33,4.33,0,0,1-1.07,3.26,4,4,0,0,1-2.89,1H32.49V63.64Zm-.22,7.87a3.57,3.57,0,0,0,2.61-.83,3.76,3.76,0,0,0,.84-2.75,3.82,3.82,0,0,0-.82-2.74A3.73,3.73,0,0,0,35,64.34H33.31v7.17Z"/><path class="cls-4" d="M23.48,102.09a2.34,2.34,0,0,1-.7,1.8,2.55,2.55,0,0,1-1.8.64h-3v3.67h-.82V99.64H21a2.53,2.53,0,0,1,1.8.65A2.33,2.33,0,0,1,23.48,102.09Zm-.81,0a1.68,1.68,0,0,0-.5-1.29,2.11,2.11,0,0,0-1.49-.46H17.94v3.5H20.8a2,2,0,0,0,1.35-.45A1.65,1.65,0,0,0,22.66,102.09Z"/><path class="cls-4" d="M28.65,99.48a4.19,4.19,0,0,1,1.21.17,3.47,3.47,0,0,1,1,.49A2.86,2.86,0,0,1,32,101.92h-.81a2.57,2.57,0,0,0-.34-.7,2.26,2.26,0,0,0-.55-.56,2.68,2.68,0,0,0-.75-.37,3.37,3.37,0,0,0-2.34.17,3,3,0,0,0-1,.82,3.62,3.62,0,0,0-.62,1.2,4.87,4.87,0,0,0-.21,1.44,5.18,5.18,0,0,0,.08.94,4.26,4.26,0,0,0,.26.88,3.66,3.66,0,0,0,.44.78,2.93,2.93,0,0,0,.62.62,2.86,2.86,0,0,0,.81.41,3.23,3.23,0,0,0,1,.15,2.8,2.8,0,0,0,1.06-.19,2.55,2.55,0,0,0,.82-.52,2.7,2.7,0,0,0,.56-.77,3.22,3.22,0,0,0,.29-.93h.81a4.09,4.09,0,0,1-.35,1.2,3.33,3.33,0,0,1-.71,1,3.23,3.23,0,0,1-1.06.67,3.8,3.8,0,0,1-1.42.25,4,4,0,0,1-1.7-.34,3.66,3.66,0,0,1-1.27-.94,4.19,4.19,0,0,1-.79-1.42,5.68,5.68,0,0,1,0-3.45,4.23,4.23,0,0,1,.77-1.42,3.72,3.72,0,0,1,1.27-1A4,4,0,0,1,28.65,99.48Z"/><path class="cls-4" d="M40,105.93a2.15,2.15,0,0,1-.28,1.14,2.26,2.26,0,0,1-.76.76,3.46,3.46,0,0,1-1.1.42,6.15,6.15,0,0,1-1.29.13,4.8,4.8,0,0,1-1.28-.16,3.18,3.18,0,0,1-1-.49,2.35,2.35,0,0,1-.69-.79,2.22,2.22,0,0,1-.25-1.08v-.19h.82v.06a1.87,1.87,0,0,0,.16.76,1.65,1.65,0,0,0,.48.62,2.43,2.43,0,0,0,.81.42,3.79,3.79,0,0,0,1.15.16,4,4,0,0,0,.9-.1,2.56,2.56,0,0,0,.79-.32,1.81,1.81,0,0,0,.56-.54,1.38,1.38,0,0,0,.21-.78q0-1.11-1.67-1.52l-2-.49a4,4,0,0,1-.88-.31,2.14,2.14,0,0,1-.6-.44,1.6,1.6,0,0,1-.35-.58,2.24,2.24,0,0,1-.11-.73,2.1,2.1,0,0,1,.25-1,2.34,2.34,0,0,1,.68-.76,3.07,3.07,0,0,1,1-.46,4.16,4.16,0,0,1,1.14-.16,4.34,4.34,0,0,1,1.2.16,2.9,2.9,0,0,1,1,.46,2.27,2.27,0,0,1,.64.75,2.24,2.24,0,0,1,.25,1h-.81a1.6,1.6,0,0,0-.2-.65,1.78,1.78,0,0,0-.46-.53,2.24,2.24,0,0,0-.69-.36,2.81,2.81,0,0,0-.88-.13,3.49,3.49,0,0,0-.91.11,2.16,2.16,0,0,0-.71.33,1.46,1.46,0,0,0-.46.53,1.6,1.6,0,0,0-.16.73,1.2,1.2,0,0,0,.11.52,1.13,1.13,0,0,0,.29.38,1.54,1.54,0,0,0,.43.25,4,4,0,0,0,.53.17l2,.48a3.73,3.73,0,0,1,1.76.85A1.93,1.93,0,0,1,40,105.93Z"/><path class="cls-4" d="M154.4,63.65v.71A13.7,13.7,0,0,0,153,66.12,13.19,13.19,0,0,0,151.91,68a11.5,11.5,0,0,0-.7,2,12.2,12.2,0,0,0-.31,2.14h-.84a12.81,12.81,0,0,1,.32-2.12,10.53,10.53,0,0,1,.67-1.93,15.67,15.67,0,0,1,2.58-3.79h-4.79v-.71Z"/><path class="cls-4" d="M158.9,63.48a2.81,2.81,0,0,1,2,.66,2.28,2.28,0,0,1,.73,1.78,2.82,2.82,0,0,1-.55,1.66,7,7,0,0,1-2,1.66,8.29,8.29,0,0,0-1.66,1.23,2,2,0,0,0-.56,1h4.81v.72h-5.7a3,3,0,0,1,.56-1.74,6.61,6.61,0,0,1,1.93-1.66,8.78,8.78,0,0,0,1.89-1.48,2.11,2.11,0,0,0,.51-1.41,1.64,1.64,0,0,0-.54-1.28,2,2,0,0,0-1.4-.49,2,2,0,0,0-.86.17,1.82,1.82,0,0,0-.61.44,1.77,1.77,0,0,0-.36.62,2.2,2.2,0,0,0-.12.71v.17h-.77v-.12a2.93,2.93,0,0,1,.17-1,2.42,2.42,0,0,1,.51-.84,2.47,2.47,0,0,1,.86-.59A3.06,3.06,0,0,1,158.9,63.48Z"/><path class="cls-4" d="M154.06,99.65v.72h-3.78l-.54,2.78,0,0a2.32,2.32,0,0,1,.82-.52,2.79,2.79,0,0,1,1-.18,3.18,3.18,0,0,1,1.2.22,2.6,2.6,0,0,1,.92.61,2.73,2.73,0,0,1,.59.94,3.43,3.43,0,0,1,.21,1.22,2.81,2.81,0,0,1-.23,1.14,2.94,2.94,0,0,1-1.61,1.56,3.12,3.12,0,0,1-1.2.23,3.29,3.29,0,0,1-1.1-.17,2.59,2.59,0,0,1-.85-.48,2.26,2.26,0,0,1-.56-.74,2.52,2.52,0,0,1-.23-1h.79a1.84,1.84,0,0,0,.16.64,1.65,1.65,0,0,0,.4.54,2,2,0,0,0,.62.37,2.29,2.29,0,0,0,.83.14,2.06,2.06,0,0,0,.87-.18,2.14,2.14,0,0,0,.7-.5,2.4,2.4,0,0,0,.46-.75,2.49,2.49,0,0,0,.17-.92,2.41,2.41,0,0,0-.16-.86,2.12,2.12,0,0,0-1.14-1.2,2.2,2.2,0,0,0-.91-.18,2.55,2.55,0,0,0-1.07.23,2.22,2.22,0,0,0-.85.68h-.66l.81-4.38Z"/><path class="cls-4" d="M158.89,99.48a2.87,2.87,0,0,1,1.32.29,2.48,2.48,0,0,1,.94.85,4.14,4.14,0,0,1,.57,1.39,8.64,8.64,0,0,1,.19,1.92,5.94,5.94,0,0,1-.77,3.35,2.82,2.82,0,0,1-4.49,0,7.62,7.62,0,0,1,0-6.69A2.56,2.56,0,0,1,158.89,99.48Zm-2.23,4.45q0,3.81,2.23,3.81t2.24-3.81a5.64,5.64,0,0,0-.57-2.84,1.84,1.84,0,0,0-1.68-1,1.82,1.82,0,0,0-1.65.94A5.63,5.63,0,0,0,156.66,103.93Z"/><path class="cls-5" d="M23.68,30.28a2.44,2.44,0,0,1-1.63,2.46,3.32,3.32,0,0,1-1.13.18h-2.4v3.29H17V27.64h3.9a2.79,2.79,0,0,1,2,.72A2.51,2.51,0,0,1,23.68,30.28Zm-1.46,0a1.37,1.37,0,0,0-.42-1.09,2,2,0,0,0-1.31-.36h-2v2.9h2a2.77,2.77,0,0,0,.72-.08,1.28,1.28,0,0,0,1-1.36Z"/><path class="cls-5" d="M25,36.21V29.63h1.37V31h0a2.4,2.4,0,0,1,.87-1.08,2.23,2.23,0,0,1,1.29-.39h.21l.2,0v1.36l-.25,0h-.28a1.84,1.84,0,0,0-1.48.6A2.36,2.36,0,0,0,26.42,33v3.18Z"/><path class="cls-5" d="M36.39,32.92a4.09,4.09,0,0,1-.23,1.38,3.09,3.09,0,0,1-.68,1.11,3,3,0,0,1-1,.73,3.49,3.49,0,0,1-1.36.25,3.12,3.12,0,0,1-2.38-1,3.94,3.94,0,0,1,0-5,3.1,3.1,0,0,1,2.39-1,3.15,3.15,0,0,1,2.4,1A3.54,3.54,0,0,1,36.39,32.92Zm-1.45,0a3.59,3.59,0,0,0-.12-.92,2.21,2.21,0,0,0-.35-.75,1.68,1.68,0,0,0-.58-.5,1.75,1.75,0,0,0-.83-.18,1.71,1.71,0,0,0-.77.17,1.62,1.62,0,0,0-.57.48,2.23,2.23,0,0,0-.36.74,3.8,3.8,0,0,0,0,1.9,2.19,2.19,0,0,0,.36.74,1.67,1.67,0,0,0,.58.49,1.86,1.86,0,0,0,1.58,0,1.67,1.67,0,0,0,.58-.49,2.24,2.24,0,0,0,.36-.74A3.41,3.41,0,0,0,34.94,32.92Z"/><path class="cls-5" d="M41,29.46a4.07,4.07,0,0,1,1.06.13,2.82,2.82,0,0,1,.89.41,2.27,2.27,0,0,1,.64.68,2.3,2.3,0,0,1,.31.95H42.47a1.21,1.21,0,0,0-.47-.78,1.69,1.69,0,0,0-1-.27,1.54,1.54,0,0,0-.81.21,1.8,1.8,0,0,0-.57.54,2.44,2.44,0,0,0-.33.76,3.43,3.43,0,0,0,0,1.67,2.42,2.42,0,0,0,.32.75,1.78,1.78,0,0,0,.56.55,1.51,1.51,0,0,0,.82.21,1.81,1.81,0,0,0,.6-.09,1.48,1.48,0,0,0,.47-.26,1.4,1.4,0,0,0,.33-.41,1.75,1.75,0,0,0,.18-.52h1.4a3.08,3.08,0,0,1-.33,1,2.6,2.6,0,0,1-.62.76,2.77,2.77,0,0,1-.89.49,3.49,3.49,0,0,1-1.14.18,3.33,3.33,0,0,1-1.32-.25,3,3,0,0,1-1-.71,3.22,3.22,0,0,1-.67-1.08A3.83,3.83,0,0,1,37.71,33a4.25,4.25,0,0,1,.21-1.36,3.31,3.31,0,0,1,.63-1.12,3,3,0,0,1,1-.76A3.33,3.33,0,0,1,41,29.46Z"/><path class="cls-5" d="M48.34,29.46a3,3,0,0,1,1.34.28,2.79,2.79,0,0,1,1,.77,3.33,3.33,0,0,1,.58,1.13A4.76,4.76,0,0,1,51.42,33v.26H46.57a2.77,2.77,0,0,0,.13.81,1.9,1.9,0,0,0,.35.63,1.55,1.55,0,0,0,.54.41,1.7,1.7,0,0,0,.72.15,1.9,1.9,0,0,0,1-.23,1.7,1.7,0,0,0,.61-.6h1.37a3.06,3.06,0,0,1-.45.81,2.83,2.83,0,0,1-.66.62,3,3,0,0,1-.85.39,3.66,3.66,0,0,1-1,.13A3.28,3.28,0,0,1,47,36.14a2.82,2.82,0,0,1-1-.72,3.18,3.18,0,0,1-.62-1.1,4.31,4.31,0,0,1-.22-1.4,4,4,0,0,1,.22-1.33,3.29,3.29,0,0,1,.63-1.1,3,3,0,0,1,1-.76A3.16,3.16,0,0,1,48.34,29.46ZM50,32.3a2.77,2.77,0,0,0-.16-.71,1.73,1.73,0,0,0-.33-.55,1.43,1.43,0,0,0-.5-.35,1.73,1.73,0,0,0-.68-.13,1.74,1.74,0,0,0-.69.13,1.51,1.51,0,0,0-.52.36,1.79,1.79,0,0,0-.35.55,2.54,2.54,0,0,0-.17.7Z"/><path class="cls-5" d="M58.37,34.22a2,2,0,0,1-.23,1,2,2,0,0,1-.61.68,2.7,2.7,0,0,1-.91.39,4.78,4.78,0,0,1-1.12.13,4.56,4.56,0,0,1-1.08-.12,2.75,2.75,0,0,1-.89-.38,2.14,2.14,0,0,1-.63-.65,2.2,2.2,0,0,1-.3-.94H54a1.14,1.14,0,0,0,.51.8,1.52,1.52,0,0,0,.46.2,2.2,2.2,0,0,0,.56.07,2.4,2.4,0,0,0,.53-.06,1.45,1.45,0,0,0,.45-.18,1,1,0,0,0,.32-.31.78.78,0,0,0,.12-.44.61.61,0,0,0-.1-.35.9.9,0,0,0-.27-.26,1.82,1.82,0,0,0-.4-.18l-.47-.13-.93-.22a6,6,0,0,1-.91-.28,2.37,2.37,0,0,1-.63-.37,1.33,1.33,0,0,1-.37-.49,1.57,1.57,0,0,1-.12-.63,1.77,1.77,0,0,1,.21-.89,1.85,1.85,0,0,1,.58-.63,2.69,2.69,0,0,1,.87-.37,4.46,4.46,0,0,1,1.07-.12,3.88,3.88,0,0,1,1.06.13,2.61,2.61,0,0,1,.82.38,1.9,1.9,0,0,1,.54.59,2,2,0,0,1,.25.77H56.76a1,1,0,0,0-.45-.65,1.65,1.65,0,0,0-.91-.23,2.3,2.3,0,0,0-.47,0,1.27,1.27,0,0,0-.39.14.77.77,0,0,0-.26.25.65.65,0,0,0-.1.36.6.6,0,0,0,.1.35.91.91,0,0,0,.26.25,1.46,1.46,0,0,0,.35.16l.37.1,1.38.33a4.36,4.36,0,0,1,.68.22,2,2,0,0,1,.54.34,1.47,1.47,0,0,1,.37.5A1.84,1.84,0,0,1,58.37,34.22Z"/><path class="cls-5" d="M65.39,34.22a2,2,0,0,1-.22,1,2,2,0,0,1-.61.68,2.69,2.69,0,0,1-.91.39,4.8,4.8,0,0,1-1.12.13,4.56,4.56,0,0,1-1.08-.12,2.74,2.74,0,0,1-.89-.38,2.14,2.14,0,0,1-.63-.65,2.2,2.2,0,0,1-.3-.94H61a1.15,1.15,0,0,0,.51.8,1.51,1.51,0,0,0,.46.2,2.2,2.2,0,0,0,.56.07,2.4,2.4,0,0,0,.53-.06,1.46,1.46,0,0,0,.46-.18,1,1,0,0,0,.32-.31.78.78,0,0,0,.12-.44.61.61,0,0,0-.1-.35.9.9,0,0,0-.27-.26,1.8,1.8,0,0,0-.39-.18l-.47-.13-.93-.22a6,6,0,0,1-.9-.28,2.37,2.37,0,0,1-.63-.37,1.33,1.33,0,0,1-.37-.49,1.57,1.57,0,0,1-.12-.63,1.77,1.77,0,0,1,.21-.89,1.84,1.84,0,0,1,.58-.63,2.69,2.69,0,0,1,.87-.37,4.46,4.46,0,0,1,1.07-.12,3.88,3.88,0,0,1,1.06.13,2.62,2.62,0,0,1,.82.38,1.9,1.9,0,0,1,.54.59,2,2,0,0,1,.25.77H63.78a1,1,0,0,0-.45-.65,1.65,1.65,0,0,0-.91-.23,2.3,2.3,0,0,0-.47,0,1.27,1.27,0,0,0-.39.14.77.77,0,0,0-.26.25.65.65,0,0,0-.1.36.6.6,0,0,0,.1.35.91.91,0,0,0,.26.25,1.47,1.47,0,0,0,.35.16l.37.1,1.38.33a4.38,4.38,0,0,1,.68.22,2,2,0,0,1,.54.34,1.47,1.47,0,0,1,.37.5A1.84,1.84,0,0,1,65.39,34.22Z"/><path class="cls-5" d="M76.89,33.76a2.36,2.36,0,0,1-.29,1.2,2.41,2.41,0,0,1-.78.82,3.5,3.5,0,0,1-1.13.47,5.89,5.89,0,0,1-1.34.15A5.17,5.17,0,0,1,72,36.23a3.37,3.37,0,0,1-1.1-.51,2.49,2.49,0,0,1-.74-.84,2.38,2.38,0,0,1-.27-1.15v-.1h1.47v.05a1.33,1.33,0,0,0,.16.67,1.4,1.4,0,0,0,.45.48,2.11,2.11,0,0,0,.67.28,3.62,3.62,0,0,0,1.58,0,2.05,2.05,0,0,0,.63-.25,1.31,1.31,0,0,0,.43-.41,1.06,1.06,0,0,0,.15-.58.93.93,0,0,0-.37-.76,3.26,3.26,0,0,0-1.16-.51l-1.84-.49a2.83,2.83,0,0,1-1.44-.78A2,2,0,0,1,70.15,30a2.24,2.24,0,0,1,.26-1.09,2.37,2.37,0,0,1,.7-.79,3.22,3.22,0,0,1,1-.48,4.61,4.61,0,0,1,1.24-.16,4.68,4.68,0,0,1,1.19.15,3.23,3.23,0,0,1,1,.45,2.32,2.32,0,0,1,.71.77,2.25,2.25,0,0,1,.28,1.09H75.12a1.25,1.25,0,0,0-.16-.52,1.26,1.26,0,0,0-.37-.4,1.81,1.81,0,0,0-.55-.26,2.49,2.49,0,0,0-.71-.09,2.91,2.91,0,0,0-.66.07,1.75,1.75,0,0,0-.55.23,1.15,1.15,0,0,0-.37.38,1.05,1.05,0,0,0-.14.55,1,1,0,0,0,.07.39.8.8,0,0,0,.2.28,1.07,1.07,0,0,0,.31.19,3.06,3.06,0,0,0,.4.13l2,.53a3.69,3.69,0,0,1,1.7.87A2,2,0,0,1,76.89,33.76Z"/><path class="cls-5" d="M81.2,29.46a3,3,0,0,1,1.34.28,2.79,2.79,0,0,1,1,.77,3.33,3.33,0,0,1,.58,1.13A4.76,4.76,0,0,1,84.29,33v.26H79.43a2.77,2.77,0,0,0,.13.81,1.9,1.9,0,0,0,.35.63,1.55,1.55,0,0,0,.54.41,1.7,1.7,0,0,0,.72.15,1.9,1.9,0,0,0,1-.23,1.7,1.7,0,0,0,.61-.6h1.37a3.06,3.06,0,0,1-.45.81,2.83,2.83,0,0,1-.66.62,3,3,0,0,1-.85.39,3.66,3.66,0,0,1-1,.13,3.28,3.28,0,0,1-1.33-.26,2.82,2.82,0,0,1-1-.72,3.18,3.18,0,0,1-.62-1.1,4.31,4.31,0,0,1-.22-1.4,4,4,0,0,1,.22-1.33,3.29,3.29,0,0,1,.63-1.1,3,3,0,0,1,1-.76A3.16,3.16,0,0,1,81.2,29.46Zm1.63,2.85a2.77,2.77,0,0,0-.16-.71,1.73,1.73,0,0,0-.33-.55,1.43,1.43,0,0,0-.5-.35,1.73,1.73,0,0,0-.68-.13,1.74,1.74,0,0,0-.69.13,1.51,1.51,0,0,0-.52.36,1.79,1.79,0,0,0-.35.55,2.54,2.54,0,0,0-.17.7Z"/><path class="cls-5" d="M88.83,29.46a4.07,4.07,0,0,1,1.06.13,2.82,2.82,0,0,1,.89.41,2.27,2.27,0,0,1,.64.68,2.3,2.3,0,0,1,.31.95H90.31a1.21,1.21,0,0,0-.47-.78,1.69,1.69,0,0,0-1-.27,1.54,1.54,0,0,0-.81.21,1.8,1.8,0,0,0-.57.54,2.44,2.44,0,0,0-.33.76,3.43,3.43,0,0,0,0,1.67,2.42,2.42,0,0,0,.32.75,1.78,1.78,0,0,0,.56.55,1.51,1.51,0,0,0,.82.21,1.81,1.81,0,0,0,.6-.09,1.48,1.48,0,0,0,.47-.26,1.4,1.4,0,0,0,.33-.41,1.75,1.75,0,0,0,.18-.52h1.4a3.08,3.08,0,0,1-.33,1,2.6,2.6,0,0,1-.62.76,2.77,2.77,0,0,1-.89.49,3.49,3.49,0,0,1-1.14.18,3.33,3.33,0,0,1-1.32-.25,3,3,0,0,1-1-.71,3.22,3.22,0,0,1-.67-1.08A3.83,3.83,0,0,1,85.56,33a4.25,4.25,0,0,1,.21-1.36,3.31,3.31,0,0,1,.63-1.12,3,3,0,0,1,1-.76A3.33,3.33,0,0,1,88.83,29.46Z"/><path class="cls-5" d="M96.69,36.26h-.83a4.6,4.6,0,0,1-.74-.06,1.58,1.58,0,0,1-.6-.22,1.12,1.12,0,0,1-.4-.45,1.67,1.67,0,0,1-.15-.76V30.65H92.69v-1H94v-2h1.45v2h1.5v1h-1.5v3.72a.83.83,0,0,0,.17.58.81.81,0,0,0,.6.18h.57l.17,0v1.14Z"/><path class="cls-5" d="M99.83,26.77v1.42H98.38V26.77Zm0,2.86v6.57H98.38V29.63Z"/><path class="cls-5" d="M108.1,32.92a4.09,4.09,0,0,1-.22,1.38,3.1,3.1,0,0,1-.68,1.11,3,3,0,0,1-1,.73,3.5,3.5,0,0,1-1.36.25,3.12,3.12,0,0,1-2.38-1,3.94,3.94,0,0,1,0-5,3.1,3.1,0,0,1,2.39-1,3.15,3.15,0,0,1,2.4,1A3.54,3.54,0,0,1,108.1,32.92Zm-1.45,0a3.59,3.59,0,0,0-.11-.92,2.21,2.21,0,0,0-.35-.75,1.68,1.68,0,0,0-.58-.5,1.75,1.75,0,0,0-.83-.18,1.71,1.71,0,0,0-.77.17,1.62,1.62,0,0,0-.57.48,2.23,2.23,0,0,0-.36.74,3.77,3.77,0,0,0,0,1.9,2.19,2.19,0,0,0,.35.74,1.67,1.67,0,0,0,.58.49,1.7,1.7,0,0,0,.79.18,1.72,1.72,0,0,0,.79-.18,1.68,1.68,0,0,0,.58-.49,2.24,2.24,0,0,0,.36-.74A3.41,3.41,0,0,0,106.65,32.92Z"/><path class="cls-5" d="M113.22,29.46a3.25,3.25,0,0,1,1.1.16,1.8,1.8,0,0,1,.74.49,2,2,0,0,1,.42.81,4.29,4.29,0,0,1,.13,1.12v4.17h-1.44V32.3a2.11,2.11,0,0,0-.32-1.27,1.19,1.19,0,0,0-1-.43,1.48,1.48,0,0,0-1.23.52,2.28,2.28,0,0,0-.41,1.45v3.63h-1.44V29.63h1.38v1h0a2.14,2.14,0,0,1,.37-.5,2.24,2.24,0,0,1,.48-.37,2.34,2.34,0,0,1,.57-.23A2.51,2.51,0,0,1,113.22,29.46Z"/><path class="cls-5" d="M150.63,27.64l2.23,6.88h0l2.23-6.88h1.56l-3,8.57H152l-2.92-8.57Z"/><path class="cls-5" d="M163.39,36.21l-.44.09-.39,0a1.79,1.79,0,0,1-.42,0,.9.9,0,0,1-.34-.16.84.84,0,0,1-.24-.29,1.28,1.28,0,0,1-.12-.45h0a2.66,2.66,0,0,1-.45.46,2.31,2.31,0,0,1-.53.31,3.32,3.32,0,0,1-1.31.24,2.42,2.42,0,0,1-1.62-.51,1.77,1.77,0,0,1-.6-1.45,1.7,1.7,0,0,1,.6-1.42,2.11,2.11,0,0,1,.58-.32,4.68,4.68,0,0,1,.73-.2c.26-.05.54-.09.82-.13l.87-.1.34-.07a.79.79,0,0,0,.27-.13.59.59,0,0,0,.17-.22.79.79,0,0,0,.06-.33,1,1,0,0,0-.31-.79,2.11,2.11,0,0,0-2.05,0,1,1,0,0,0-.39.73h-1.45a2,2,0,0,1,.29-.9,2,2,0,0,1,.62-.62,2.88,2.88,0,0,1,.9-.36,5.08,5.08,0,0,1,1.13-.12,3.42,3.42,0,0,1,2,.5,1.65,1.65,0,0,1,.67,1.41v3.54a.47.47,0,0,0,.08.3.33.33,0,0,0,.27.1h.12l.13,0Zm-2-3.35h0a1,1,0,0,1-.54.23l-.48.08-.65.11a2.2,2.2,0,0,0-1,.37.87.87,0,0,0-.32.72.89.89,0,0,0,.37.76,1.48,1.48,0,0,0,.87.24,1.79,1.79,0,0,0,1.27-.43,1.59,1.59,0,0,0,.49-1.24Z"/><path class="cls-5" d="M166.33,27.13v9.08h-1.45V27.13Z"/><path class="cls-5" d="M172.8,36.21v-1h0a2.25,2.25,0,0,1-.39.52,2.3,2.3,0,0,1-.5.37,2.49,2.49,0,0,1-.58.23,2.55,2.55,0,0,1-.64.08,2.3,2.3,0,0,1-1.78-.63,2.81,2.81,0,0,1-.57-1.95V29.63h1.44v4a2.89,2.89,0,0,0,.08.7,1.37,1.37,0,0,0,.24.52,1.05,1.05,0,0,0,.43.32,1.82,1.82,0,0,0,1.36,0,1.37,1.37,0,0,0,.5-.43,1.86,1.86,0,0,0,.29-.66,3.72,3.72,0,0,0,.09-.85v-3.5h1.44v6.57Z"/><path class="cls-5" d="M179,29.46a3,3,0,0,1,1.35.28,2.78,2.78,0,0,1,1,.77,3.33,3.33,0,0,1,.58,1.13,4.76,4.76,0,0,1,.19,1.37v.26h-4.85a2.77,2.77,0,0,0,.13.81,1.9,1.9,0,0,0,.35.63,1.55,1.55,0,0,0,.54.41,1.7,1.7,0,0,0,.72.15,1.91,1.91,0,0,0,1-.23,1.69,1.69,0,0,0,.61-.6h1.37a3.06,3.06,0,0,1-.45.81,2.83,2.83,0,0,1-.66.62,3,3,0,0,1-.85.39,3.66,3.66,0,0,1-1,.13,3.27,3.27,0,0,1-1.33-.26,2.82,2.82,0,0,1-1-.72,3.18,3.18,0,0,1-.62-1.1,4.31,4.31,0,0,1-.22-1.4A4,4,0,0,1,176,31.6a3.3,3.3,0,0,1,.63-1.1,3,3,0,0,1,1-.76A3.16,3.16,0,0,1,179,29.46Zm1.63,2.85a2.77,2.77,0,0,0-.16-.71,1.72,1.72,0,0,0-.33-.55,1.43,1.43,0,0,0-.5-.35,1.91,1.91,0,0,0-1.37,0,1.51,1.51,0,0,0-.52.36,1.79,1.79,0,0,0-.35.55,2.54,2.54,0,0,0-.17.7Z"/><line class="cls-6" x1="141.5" y1="51.51" x2="141.5" y2="124.01"/><line class="cls-7" x1="141.5" y1="15" x2="141.5" y2="50"/><line class="cls-8" x1="10.5" y1="14.51" x2="10.5" y2="124.01"/><line class="cls-8" x1="10" y1="122.01" x2="227.08" y2="122.01"/><line class="cls-6" x1="10" y1="86.01" x2="227.08" y2="86.01"/><line class="cls-7" x1="10" y1="50.01" x2="227.23" y2="50.01"/><line class="cls-8" x1="10" y1="15.01" x2="227.23" y2="15.01"/><line class="cls-8" x1="227.57" y1="14.51" x2="227.57" y2="123.01"/></g></svg>