<svg xmlns="http://www.w3.org/2000/svg" viewBox="0 0 466.96 50"><defs><style>.cls-1{fill:#f0f0f0;}.cls-2{fill:#389aea;}.cls-3,.cls-5,.cls-8{fill:none;stroke-miterlimit:10;}.cls-3{stroke:#389aea;}.cls-4{fill:#fff;}.cls-5{stroke:#206397;}.cls-6{fill:#e6e6e6;}.cls-7{fill:#464646;}.cls-8{stroke:#aaa;}</style></defs><title>Artboard 48</title><g id="Layer_1" data-name="Layer 1"><rect class="cls-1" width="466.96" height="50"/><rect class="cls-2" x="358.93" y="7.89" width="94" height="35"/><rect class="cls-3" x="358.93" y="7.89" width="94" height="35"/><path class="cls-4" d="M399.72,26.75a2.32,2.32,0,0,1-.3,1.2,2.44,2.44,0,0,1-.8.82,3.67,3.67,0,0,1-1.16.47,6.23,6.23,0,0,1-1.38.15,5.46,5.46,0,0,1-1.41-.17,3.52,3.52,0,0,1-1.13-.51,2.52,2.52,0,0,1-.76-.84,2.32,2.32,0,0,1-.28-1.15v-.1H394v.05a1.31,1.31,0,0,0,.17.67,1.43,1.43,0,0,0,.46.48,2.2,2.2,0,0,0,.69.28,3.84,3.84,0,0,0,1.63,0,2.16,2.16,0,0,0,.65-.25,1.33,1.33,0,0,0,.44-.41,1,1,0,0,0,.16-.58.92.92,0,0,0-.38-.76,3.4,3.4,0,0,0-1.2-.51l-1.89-.49a2.94,2.94,0,0,1-1.48-.78,2,2,0,0,1-.48-1.39,2.19,2.19,0,0,1,.27-1.09,2.38,2.38,0,0,1,.72-.79,3.36,3.36,0,0,1,1.06-.48,5.08,5.08,0,0,1,2.5,0,3.37,3.37,0,0,1,1,.45,2.34,2.34,0,0,1,.73.77,2.2,2.2,0,0,1,.29,1.09h-1.5a1.22,1.22,0,0,0-.16-.52,1.28,1.28,0,0,0-.38-.4,1.89,1.89,0,0,0-.56-.26,2.64,2.64,0,0,0-.73-.09,3.08,3.08,0,0,0-.68.07,1.82,1.82,0,0,0-.57.23,1.17,1.17,0,0,0-.39.38,1,1,0,0,0-.14.55,1,1,0,0,0,.07.39.82.82,0,0,0,.21.28,1.12,1.12,0,0,0,.32.19,3.16,3.16,0,0,0,.42.13l2.08.53a3.84,3.84,0,0,1,1.75.87A2,2,0,0,1,399.72,26.75Z"/><path class="cls-4" d="M407.46,29.19l-.45.09-.4,0a1.89,1.89,0,0,1-.43,0,.94.94,0,0,1-.35-.16.84.84,0,0,1-.25-.29,1.25,1.25,0,0,1-.13-.45h0a2.7,2.7,0,0,1-.47.46,2.42,2.42,0,0,1-.54.31,3.51,3.51,0,0,1-1.35.24,2.54,2.54,0,0,1-1.66-.51,1.74,1.74,0,0,1-.62-1.45,1.68,1.68,0,0,1,.62-1.42,2.2,2.2,0,0,1,.6-.32,4.94,4.94,0,0,1,.75-.2q.4-.08.85-.13l.9-.1.35-.07a.83.83,0,0,0,.27-.13.59.59,0,0,0,.18-.22.77.77,0,0,0,.06-.33,1,1,0,0,0-.32-.79,2.23,2.23,0,0,0-2.11,0,1,1,0,0,0-.4.73H401a2,2,0,0,1,.29-.9,2,2,0,0,1,.64-.62,3,3,0,0,1,.93-.36,5.37,5.37,0,0,1,1.16-.12,3.6,3.6,0,0,1,2.1.5,1.63,1.63,0,0,1,.69,1.41v3.54a.46.46,0,0,0,.08.3.35.35,0,0,0,.28.1h.12l.13,0Zm-2.11-3.35h0a1,1,0,0,1-.56.23l-.5.08-.67.11a2.32,2.32,0,0,0-1,.37.86.86,0,0,0-.33.72.88.88,0,0,0,.38.76,1.55,1.55,0,0,0,.9.24,1.88,1.88,0,0,0,1.3-.43,1.57,1.57,0,0,0,.51-1.24Z"/><path class="cls-4" d="M409.65,22.62l1.68,5.14h0L413,22.62h1.48l-2.38,6.57H410.5l-2.42-6.57Z"/><path class="cls-4" d="M418.6,22.44a3.18,3.18,0,0,1,1.38.28,2.86,2.86,0,0,1,1,.77,3.31,3.31,0,0,1,.6,1.13,4.63,4.63,0,0,1,.2,1.37v.26h-5a2.67,2.67,0,0,0,.14.81,1.89,1.89,0,0,0,.36.63,1.59,1.59,0,0,0,.56.41,1.79,1.79,0,0,0,.74.15,2,2,0,0,0,1-.23,1.72,1.72,0,0,0,.63-.6h1.41a3,3,0,0,1-.46.81,2.91,2.91,0,0,1-.68.62,3.16,3.16,0,0,1-.87.39,3.86,3.86,0,0,1-1,.13,3.46,3.46,0,0,1-1.37-.26,2.9,2.9,0,0,1-1-.72,3.14,3.14,0,0,1-.64-1.1,4.18,4.18,0,0,1-.22-1.4,3.93,3.93,0,0,1,.22-1.33,3.26,3.26,0,0,1,.65-1.1,3.11,3.11,0,0,1,1-.76A3.33,3.33,0,0,1,418.6,22.44Zm1.68,2.85a2.65,2.65,0,0,0-.17-.71,1.7,1.7,0,0,0-.34-.55,1.47,1.47,0,0,0-.52-.35,2,2,0,0,0-1.41,0,1.56,1.56,0,0,0-.53.36,1.8,1.8,0,0,0-.36.55,2.47,2.47,0,0,0-.18.7Z"/><line class="cls-5" x1="358.43" y1="42.89" x2="453.43" y2="42.89"/><rect class="cls-1" x="258.16" y="7.5" width="89" height="35"/><path class="cls-6" d="M346.66,42h-88V8h88Zm1-35h-90V43h90Z"/><path class="cls-7" d="M287.11,19.25a4.5,4.5,0,0,1,1.32.18,3.45,3.45,0,0,1,1.07.53,2.94,2.94,0,0,1,.76.85,3.19,3.19,0,0,1,.41,1.13H289.2a1.89,1.89,0,0,0-.26-.56,1.81,1.81,0,0,0-.44-.45,2.2,2.2,0,0,0-.62-.31,2.54,2.54,0,0,0-.78-.11,2.41,2.41,0,0,0-2,1,3.12,3.12,0,0,0-.5,1,4.54,4.54,0,0,0,0,2.39,3.07,3.07,0,0,0,.48,1,2.41,2.41,0,0,0,2,1,2.37,2.37,0,0,0,.85-.14,2,2,0,0,0,1.11-1,2.67,2.67,0,0,0,.24-.78h1.46a4.21,4.21,0,0,1-.35,1.26A3.19,3.19,0,0,1,288.58,28a4.14,4.14,0,0,1-1.48.25,4.25,4.25,0,0,1-1.72-.34,3.85,3.85,0,0,1-1.32-.93,4.13,4.13,0,0,1-.84-1.41,5.21,5.21,0,0,1-.29-1.78A5.32,5.32,0,0,1,283.2,22,4.28,4.28,0,0,1,284,20.6a3.83,3.83,0,0,1,1.31-1A4.18,4.18,0,0,1,287.11,19.25Z"/><path class="cls-7" d="M298.37,28l-.44.09-.39,0a1.79,1.79,0,0,1-.42,0,.91.91,0,0,1-.34-.16.84.84,0,0,1-.24-.29,1.28,1.28,0,0,1-.12-.45h0a2.67,2.67,0,0,1-.45.46,2.3,2.3,0,0,1-.52.31,3.32,3.32,0,0,1-1.31.24,2.42,2.42,0,0,1-1.62-.51,1.77,1.77,0,0,1-.6-1.45,1.7,1.7,0,0,1,.6-1.42,2.11,2.11,0,0,1,.58-.32,4.68,4.68,0,0,1,.73-.2q.39-.08.82-.13l.87-.1.34-.07a.8.8,0,0,0,.27-.13.59.59,0,0,0,.17-.22.79.79,0,0,0,.06-.33,1,1,0,0,0-.31-.79,2.11,2.11,0,0,0-2.05,0,1,1,0,0,0-.39.73h-1.45a2,2,0,0,1,.28-.9,2,2,0,0,1,.62-.62,2.88,2.88,0,0,1,.9-.36,5.08,5.08,0,0,1,1.13-.12,3.42,3.42,0,0,1,2,.5,1.65,1.65,0,0,1,.67,1.41V26.7a.47.47,0,0,0,.08.3.33.33,0,0,0,.27.1h.12l.13,0Zm-2-3.35h0a1,1,0,0,1-.54.23l-.48.08-.65.11a2.2,2.2,0,0,0-1,.37.87.87,0,0,0-.32.72.89.89,0,0,0,.37.76,1.48,1.48,0,0,0,.87.24,1.79,1.79,0,0,0,1.27-.43,1.59,1.59,0,0,0,.49-1.24Z"/><path class="cls-7" d="M303.2,21.25a3.25,3.25,0,0,1,1.1.16,1.8,1.8,0,0,1,.74.49,2,2,0,0,1,.42.81,4.28,4.28,0,0,1,.13,1.12V28h-1.44V24.1a2.11,2.11,0,0,0-.32-1.27,1.19,1.19,0,0,0-1-.43,1.48,1.48,0,0,0-1.23.52,2.28,2.28,0,0,0-.41,1.45V28h-1.44V21.42h1.38v1h0a2.14,2.14,0,0,1,.37-.5,2.24,2.24,0,0,1,.48-.37,2.34,2.34,0,0,1,.57-.23A2.51,2.51,0,0,1,303.2,21.25Z"/><path class="cls-7" d="M310.49,21.25a4.08,4.08,0,0,1,1.06.13,2.82,2.82,0,0,1,.89.41,2.27,2.27,0,0,1,.64.68,2.3,2.3,0,0,1,.31.95H312a1.21,1.21,0,0,0-.47-.78,1.69,1.69,0,0,0-1-.27,1.53,1.53,0,0,0-.81.21,1.8,1.8,0,0,0-.57.54,2.44,2.44,0,0,0-.33.76,3.42,3.42,0,0,0,0,1.67,2.42,2.42,0,0,0,.32.75,1.78,1.78,0,0,0,.56.55,1.51,1.51,0,0,0,.82.21,1.81,1.81,0,0,0,.6-.09,1.48,1.48,0,0,0,.47-.26,1.4,1.4,0,0,0,.33-.41,1.75,1.75,0,0,0,.18-.52h1.4a3.08,3.08,0,0,1-.33,1,2.59,2.59,0,0,1-.62.76,2.78,2.78,0,0,1-.89.49,3.49,3.49,0,0,1-1.14.18,3.33,3.33,0,0,1-1.32-.25,3,3,0,0,1-1-.71,3.22,3.22,0,0,1-.67-1.08,3.83,3.83,0,0,1-.24-1.37,4.25,4.25,0,0,1,.21-1.36,3.31,3.31,0,0,1,.63-1.12,3,3,0,0,1,1-.76A3.33,3.33,0,0,1,310.49,21.25Z"/><path class="cls-7" d="M317.78,21.25a3,3,0,0,1,1.34.28,2.78,2.78,0,0,1,1,.77,3.33,3.33,0,0,1,.58,1.13,4.76,4.76,0,0,1,.19,1.37v.26H316a2.77,2.77,0,0,0,.13.81,1.9,1.9,0,0,0,.35.63,1.55,1.55,0,0,0,.54.41,1.7,1.7,0,0,0,.72.15,1.9,1.9,0,0,0,1-.23,1.7,1.7,0,0,0,.61-.6h1.37a3.06,3.06,0,0,1-.45.81,2.83,2.83,0,0,1-.66.62,3,3,0,0,1-.85.39,3.66,3.66,0,0,1-1,.13,3.28,3.28,0,0,1-1.33-.26,2.82,2.82,0,0,1-1-.72,3.18,3.18,0,0,1-.62-1.1,4.31,4.31,0,0,1-.22-1.4,4,4,0,0,1,.22-1.33,3.3,3.3,0,0,1,.63-1.1,3,3,0,0,1,1-.76A3.16,3.16,0,0,1,317.78,21.25Zm1.63,2.85a2.77,2.77,0,0,0-.16-.71,1.73,1.73,0,0,0-.33-.55,1.43,1.43,0,0,0-.5-.35,1.91,1.91,0,0,0-1.37,0,1.51,1.51,0,0,0-.52.36,1.79,1.79,0,0,0-.35.55,2.54,2.54,0,0,0-.17.7Z"/><path class="cls-7" d="M323.86,18.92V28h-1.45V18.92Z"/><line class="cls-8" x1="257.66" y1="42.5" x2="347.66" y2="42.5"/></g></svg>