<svg xmlns="http://www.w3.org/2000/svg" viewBox="0 0 162 36"><defs><style>.cls-1{fill:#f0f0f0;}.cls-2{fill:#e6e6e6;}.cls-3{fill:#464646;}.cls-4{fill:#dcdcdc;}.cls-5{fill:#d7d7d7;}.cls-6{fill:none;stroke:#aaa;stroke-miterlimit:10;}</style></defs><title>Artboard 27</title><g id="Layer_1" data-name="Layer 1"><rect class="cls-1" x="0.5" y="0.5" width="35" height="35"/><path class="cls-2" d="M35,1V35H1V1H35m1-1H0V36H36V0Z"/><path class="cls-3" d="M17.8,21V15.13H15.6v-1a6,6,0,0,0,.9-.07,2.36,2.36,0,0,0,.63-.18,1.57,1.57,0,0,0,.64-.55,2.21,2.21,0,0,0,.31-.89H19.2V21Z"/><rect class="cls-4" x="42.5" y="0.5" width="35" height="35"/><path class="cls-5" d="M77,1V35H43V1H77m1-1H42V36H78V0Z"/><path class="cls-3" d="M60.12,13.27a3,3,0,0,1,2,.7,2.22,2.22,0,0,1,.6.83,2.77,2.77,0,0,1,.19,1.06,2.82,2.82,0,0,1-.46,1.55,5.83,5.83,0,0,1-1.78,1.54q-.5.3-.85.57a6.91,6.91,0,0,0-.58.47,2.8,2.8,0,0,0-.62.81H63V22H56.91a3.35,3.35,0,0,1,.39-1.59,3.73,3.73,0,0,1,.51-.69,5.59,5.59,0,0,1,.74-.66l.95-.71,1.12-.83a2.7,2.7,0,0,0,.71-.75,1.61,1.61,0,0,0,.23-.83,1.68,1.68,0,0,0-.1-.59,1.33,1.33,0,0,0-.31-.48,1.44,1.44,0,0,0-.47-.3,1.77,1.77,0,0,0-1.31,0,1.46,1.46,0,0,0-.5.38,1.58,1.58,0,0,0-.29.53,2,2,0,0,0-.1.61v.15H57.14v-.15A3.14,3.14,0,0,1,57.35,15a2.54,2.54,0,0,1,.59-.9,2.71,2.71,0,0,1,.94-.59A3.45,3.45,0,0,1,60.12,13.27Z"/><rect class="cls-4" x="84.5" y="0.5" width="35" height="35"/><path class="cls-5" d="M119,1V35H85V1h34m1-1H84V36h36V0Z"/><path class="cls-3" d="M102,13.27a3.64,3.64,0,0,1,1,.15,2.72,2.72,0,0,1,.88.44,2.18,2.18,0,0,1,.62.72,2.1,2.1,0,0,1,.23,1,2.16,2.16,0,0,1-.08.62,1.83,1.83,0,0,1-.25.52,1.63,1.63,0,0,1-.4.41,1.88,1.88,0,0,1-.56.27v0a1.93,1.93,0,0,1,1.2.71,2.07,2.07,0,0,1,.42,1.3,2.5,2.5,0,0,1-.89,2,3.31,3.31,0,0,1-2.23.76,3.84,3.84,0,0,1-1.17-.18,2.94,2.94,0,0,1-1-.52,2.49,2.49,0,0,1-.67-.84,2.55,2.55,0,0,1-.25-1.14v-.13h1.34v.13a1.45,1.45,0,0,0,.49,1.11,1.58,1.58,0,0,0,.52.3,1.91,1.91,0,0,0,.64.11,1.81,1.81,0,0,0,1.28-.44,1.45,1.45,0,0,0,.47-1.11,1.34,1.34,0,0,0-.45-1.09,2.2,2.2,0,0,0-1.46-.39h-.35V17h.43a1.86,1.86,0,0,0,1.2-.35,1.1,1.1,0,0,0,.4-.9,1.39,1.39,0,0,0-.11-.58,1.12,1.12,0,0,0-.31-.41,1.34,1.34,0,0,0-.46-.24,2,2,0,0,0-.57-.08,1.7,1.7,0,0,0-.6.1,1.41,1.41,0,0,0-.48.3,1.44,1.44,0,0,0-.33.47,1.62,1.62,0,0,0-.13.64H99.09a2.81,2.81,0,0,1,.23-1,2.55,2.55,0,0,1,.59-.84,2.75,2.75,0,0,1,.91-.56A3.27,3.27,0,0,1,102,13.27Z"/><rect class="cls-4" x="126.5" y="0.5" width="35" height="35"/><path class="cls-5" d="M161,1V35H127V1h34m1-1H126V36h36V0Z"/><path class="cls-3" d="M145.92,20v2h-1.31V20h-3.76V18.67l3.82-5.27h1.25v5.41h1.2V20Zm-1.31-4.82h0L142,18.81h2.65Z"/><line class="cls-6" y1="35.5" x2="36" y2="35.5"/><line class="cls-6" x1="42" y1="0.5" x2="78" y2="0.5"/><line class="cls-6" x1="84" y1="0.5" x2="120" y2="0.5"/><line class="cls-6" x1="126" y1="0.5" x2="162" y2="0.5"/></g></svg>