<svg xmlns="http://www.w3.org/2000/svg" xmlns:xlink="http://www.w3.org/1999/xlink" viewBox="0 0 320 240"><defs><style>.cls-1,.cls-12,.cls-13,.cls-8{fill:none;}.cls-2,.cls-3{fill:#ce3342;}.cls-2{opacity:0.09;}.cls-4{fill:#dcdcdc;}.cls-5{fill:#464646;}.cls-6{fill:#cf3341;}.cls-7{fill:#389aea;}.cls-8{stroke:#389aea;}.cls-12,.cls-13,.cls-8{stroke-miterlimit:10;}.cls-9{fill:#fff;}.cls-10{opacity:0.4;}.cls-11{clip-path:url(#clip-path);}.cls-12{stroke:#206397;}.cls-13{stroke:#cf3341;stroke-width:3px;}</style><clipPath id="clip-path"><rect class="cls-1" x="21" y="117.57" width="60.43" height="13.18"/></clipPath></defs><title>Artboard 41 copy 4</title><g id="Layer_1" data-name="Layer 1"><rect class="cls-2" x="10.5" y="107.5" width="298" height="34"/><path class="cls-3" d="M308,108v33H11V108H308m1-1H10v35H309V107Z"/><path class="cls-4" d="M308,28V61H11V28H308m1-1H10V62H309V27Z"/><path class="cls-5" d="M25.23,47.9h-.83a4.59,4.59,0,0,1-.74-.06,1.58,1.58,0,0,1-.6-.22,1.12,1.12,0,0,1-.4-.45,1.67,1.67,0,0,1-.15-.76V42.3H21.22v-1h1.29v-2H24v2h1.5v1H24V46a.83.83,0,0,0,.17.58.8.8,0,0,0,.59.18h.57l.17,0v1.14Z"/><path class="cls-5" d="M33.09,44.57A4.09,4.09,0,0,1,32.87,46a3.1,3.1,0,0,1-.68,1.11,3,3,0,0,1-1,.73,3.49,3.49,0,0,1-1.36.25,3.12,3.12,0,0,1-2.38-1,3.94,3.94,0,0,1,0-5,3.1,3.1,0,0,1,2.39-1,3.15,3.15,0,0,1,2.4,1A3.54,3.54,0,0,1,33.09,44.57Zm-1.45,0a3.59,3.59,0,0,0-.11-.92,2.21,2.21,0,0,0-.35-.75,1.68,1.68,0,0,0-.58-.5,1.75,1.75,0,0,0-.83-.18,1.71,1.71,0,0,0-.77.17,1.62,1.62,0,0,0-.57.48,2.23,2.23,0,0,0-.36.74,3.79,3.79,0,0,0,0,1.9,2.19,2.19,0,0,0,.35.74,1.67,1.67,0,0,0,.58.49,1.7,1.7,0,0,0,.79.18,1.72,1.72,0,0,0,.79-.18,1.68,1.68,0,0,0,.58-.49,2.24,2.24,0,0,0,.36-.74A3.41,3.41,0,0,0,31.65,44.57Z"/><path class="cls-5" d="M43,47.85v-4a3.44,3.44,0,0,0-.05-.62,1.26,1.26,0,0,0-.19-.49,1,1,0,0,0-.39-.32,1.48,1.48,0,0,0-.63-.12,1.24,1.24,0,0,0-1.06.47,2.29,2.29,0,0,0-.35,1.38v3.74H38.86V43.65a1.64,1.64,0,0,0-.28-1,1.1,1.1,0,0,0-.91-.35,1.34,1.34,0,0,0-1.08.48,2,2,0,0,0-.4,1.31v3.81H34.75V41.28h1.36v1h0a2.31,2.31,0,0,1,2.06-1.15,2.27,2.27,0,0,1,1.2.3,1.71,1.71,0,0,1,.71.86A2.45,2.45,0,0,1,41,41.4a2.21,2.21,0,0,1,3.47,2v4.48Z"/><path class="cls-5" d="M48,46.21v1.64H46.36V46.21Z"/><path class="cls-5" d="M56,38.77v9.08H54.63v-1h0a2.07,2.07,0,0,1-.37.5,2.16,2.16,0,0,1-.49.37,2.44,2.44,0,0,1-.59.23,2.79,2.79,0,0,1-.67.08,2.72,2.72,0,0,1-1.28-.29,2.76,2.76,0,0,1-.92-.77,3.38,3.38,0,0,1-.56-1.12,4.69,4.69,0,0,1-.19-1.33,4.52,4.52,0,0,1,.18-1.26,3.34,3.34,0,0,1,.54-1.1,2.75,2.75,0,0,1,.91-.77,2.91,2.91,0,0,1,1.92-.22,2.49,2.49,0,0,1,.58.21,2.07,2.07,0,0,1,.49.35,2,2,0,0,1,.37.5h0V38.77Zm-5,5.79a3.63,3.63,0,0,0,.1.82,2.44,2.44,0,0,0,.31.76,1.81,1.81,0,0,0,.56.56,1.5,1.5,0,0,0,.83.22,1.73,1.73,0,0,0,.79-.17,1.58,1.58,0,0,0,.57-.49,2.25,2.25,0,0,0,.35-.75,3.68,3.68,0,0,0,.12-1,3.73,3.73,0,0,0-.1-.84,2.3,2.3,0,0,0-.31-.75,1.72,1.72,0,0,0-.57-.54,1.64,1.64,0,0,0-.85-.21,1.56,1.56,0,0,0-.82.2,1.7,1.7,0,0,0-.55.53,2.35,2.35,0,0,0-.32.75A3.93,3.93,0,0,0,51,44.56Z"/><path class="cls-5" d="M64.2,44.57A4.09,4.09,0,0,1,64,46a3.1,3.1,0,0,1-.68,1.11,3,3,0,0,1-1,.73A3.49,3.49,0,0,1,60.9,48a3.12,3.12,0,0,1-2.38-1,3.94,3.94,0,0,1,0-5,3.1,3.1,0,0,1,2.39-1,3.15,3.15,0,0,1,2.4,1A3.54,3.54,0,0,1,64.2,44.57Zm-1.45,0a3.59,3.59,0,0,0-.11-.92,2.21,2.21,0,0,0-.35-.75,1.68,1.68,0,0,0-.58-.5,1.75,1.75,0,0,0-.83-.18,1.71,1.71,0,0,0-.77.17,1.62,1.62,0,0,0-.57.48,2.23,2.23,0,0,0-.36.74,3.79,3.79,0,0,0,0,1.9,2.19,2.19,0,0,0,.35.74,1.67,1.67,0,0,0,.58.49,1.7,1.7,0,0,0,.79.18,1.72,1.72,0,0,0,.79-.18,1.68,1.68,0,0,0,.58-.49,2.24,2.24,0,0,0,.36-.74A3.41,3.41,0,0,0,62.75,44.57Z"/><path class="cls-5" d="M72.12,44.57A4.09,4.09,0,0,1,71.89,46a3.1,3.1,0,0,1-.68,1.11,3,3,0,0,1-1,.73,3.49,3.49,0,0,1-1.36.25,3.12,3.12,0,0,1-2.38-1,3.94,3.94,0,0,1,0-5,3.1,3.1,0,0,1,2.39-1,3.15,3.15,0,0,1,2.4,1A3.54,3.54,0,0,1,72.12,44.57Zm-1.45,0a3.59,3.59,0,0,0-.11-.92,2.21,2.21,0,0,0-.35-.75,1.68,1.68,0,0,0-.58-.5,1.75,1.75,0,0,0-.83-.18,1.71,1.71,0,0,0-.77.17,1.62,1.62,0,0,0-.57.48,2.23,2.23,0,0,0-.36.74,3.79,3.79,0,0,0,0,1.9,2.19,2.19,0,0,0,.35.74,1.67,1.67,0,0,0,.58.49,1.7,1.7,0,0,0,.79.18,1.72,1.72,0,0,0,.79-.18,1.68,1.68,0,0,0,.58-.49,2.24,2.24,0,0,0,.36-.74A3.41,3.41,0,0,0,70.67,44.57Z"/><path class="cls-5" d="M75.22,38.77v9.08H73.78V38.77Z"/><path class="cls-5" d="M80,41.1a3,3,0,0,1,1.34.28,2.78,2.78,0,0,1,1,.77,3.33,3.33,0,0,1,.58,1.13,4.76,4.76,0,0,1,.19,1.37v.26H78.24a2.77,2.77,0,0,0,.13.81,1.9,1.9,0,0,0,.35.63,1.55,1.55,0,0,0,.54.41,1.7,1.7,0,0,0,.72.15,1.9,1.9,0,0,0,1-.23,1.7,1.7,0,0,0,.61-.6h1.37a3.06,3.06,0,0,1-.45.81,2.83,2.83,0,0,1-.66.62,3,3,0,0,1-.85.39A3.66,3.66,0,0,1,80,48a3.28,3.28,0,0,1-1.33-.26,2.82,2.82,0,0,1-1-.72A3.18,3.18,0,0,1,77,46a4.31,4.31,0,0,1-.22-1.4A4,4,0,0,1,77,43.25a3.3,3.3,0,0,1,.63-1.1,3,3,0,0,1,1-.76A3.16,3.16,0,0,1,80,41.1ZM81.64,44a2.77,2.77,0,0,0-.16-.71,1.73,1.73,0,0,0-.33-.55,1.43,1.43,0,0,0-.5-.35,1.91,1.91,0,0,0-1.37,0,1.51,1.51,0,0,0-.52.36,1.79,1.79,0,0,0-.35.55,2.54,2.54,0,0,0-.17.7Z"/><path class="cls-5" d="M85.29,41.28l1.73,5h0l1.64-5h1.49L87.36,48.8a3,3,0,0,1-.29.59,1.79,1.79,0,0,1-.4.44,1.71,1.71,0,0,1-.54.28,2.43,2.43,0,0,1-.72.1l-.54,0-.46,0v-1.2l.45.05h.35a1,1,0,0,0,.4-.07.76.76,0,0,0,.28-.21,1.39,1.39,0,0,0,.21-.36q.09-.22.18-.52l-2.53-6.57Z"/><path class="cls-5" d="M96.19,39.42a5.87,5.87,0,0,1,1.09.1,5.07,5.07,0,0,1,1,.31,4.55,4.55,0,0,1,.92.52,3.46,3.46,0,0,1,.74.73,3.34,3.34,0,0,1,.49.94,3.58,3.58,0,0,1,.18,1.15,3.19,3.19,0,0,1-.13.93,3.14,3.14,0,0,1-.92,1.45,3.47,3.47,0,0,1-.7.49,3.62,3.62,0,0,1-1.67.41,1,1,0,0,1-.59-.15.57.57,0,0,1-.24-.42h0a1.6,1.6,0,0,1-.56.44,1.52,1.52,0,0,1-.63.14,1.25,1.25,0,0,1-.57-.13,1.28,1.28,0,0,1-.42-.34,1.48,1.48,0,0,1-.26-.5,2,2,0,0,1-.09-.59,3,3,0,0,1,.57-1.72,2.26,2.26,0,0,1,.67-.6,1.75,1.75,0,0,1,.9-.23,1.19,1.19,0,0,1,.65.18,1.22,1.22,0,0,1,.45.54l.19-.56h.88l-.64,2.26q-.05.18-.08.33a.87.87,0,0,0,0,.24.22.22,0,0,0,.07.15.31.31,0,0,0,.2.05,1.8,1.8,0,0,0,.72-.16,2.13,2.13,0,0,0,.67-.46,2.35,2.35,0,0,0,.68-1.7A2.64,2.64,0,0,0,99.45,42a2.85,2.85,0,0,0-.77-.94,3.62,3.62,0,0,0-1.14-.6,4.44,4.44,0,0,0-1.38-.21,4.25,4.25,0,0,0-1.66.31,3.8,3.8,0,0,0-1.28.87,3.89,3.89,0,0,0-.83,1.32,4.56,4.56,0,0,0-.29,1.66,4.71,4.71,0,0,0,.27,1.6,3.92,3.92,0,0,0,.76,1.3,3.52,3.52,0,0,0,1.19.87,3.68,3.68,0,0,0,1.54.32,4.31,4.31,0,0,0,1.81-.37,4,4,0,0,0,1.39-1h1.13a4.31,4.31,0,0,1-.77.91,4.85,4.85,0,0,1-1,.7,5.28,5.28,0,0,1-1.2.45,5.72,5.72,0,0,1-1.36.16,5.06,5.06,0,0,1-1.3-.16,4.62,4.62,0,0,1-1.14-.47,4.35,4.35,0,0,1-.95-.74,4.45,4.45,0,0,1-.72-1,5.11,5.11,0,0,1-.46-1.19,5.58,5.58,0,0,1-.16-1.36,5,5,0,0,1,.68-2.54,4.72,4.72,0,0,1,.79-1,4.88,4.88,0,0,1,1-.76,5.14,5.14,0,0,1,1.22-.48A5.45,5.45,0,0,1,96.19,39.42Zm-1.37,5.33a1,1,0,0,0,0,.28.76.76,0,0,0,.11.24.58.58,0,0,0,.19.17.56.56,0,0,0,.28.06.82.82,0,0,0,.47-.15,1.44,1.44,0,0,0,.38-.37,1.89,1.89,0,0,0,.25-.49,1.56,1.56,0,0,0,.09-.49.91.91,0,0,0,0-.26.7.7,0,0,0-.12-.23.61.61,0,0,0-.2-.17.62.62,0,0,0-.29-.06.84.84,0,0,0-.46.13,1.31,1.31,0,0,0-.36.35,1.74,1.74,0,0,0-.24.47A1.65,1.65,0,0,0,94.82,44.74Z"/><path class="cls-5" d="M105.26,41.1a3,3,0,0,1,1.34.28,2.78,2.78,0,0,1,1,.77,3.33,3.33,0,0,1,.58,1.13,4.76,4.76,0,0,1,.19,1.37v.26h-4.85a2.77,2.77,0,0,0,.13.81,1.9,1.9,0,0,0,.35.63,1.55,1.55,0,0,0,.54.41,1.7,1.7,0,0,0,.72.15,1.9,1.9,0,0,0,1-.23,1.7,1.7,0,0,0,.61-.6h1.37a3.06,3.06,0,0,1-.45.81,2.83,2.83,0,0,1-.66.62,3,3,0,0,1-.85.39,3.66,3.66,0,0,1-1,.13,3.28,3.28,0,0,1-1.33-.26,2.82,2.82,0,0,1-1-.72,3.18,3.18,0,0,1-.62-1.1,4.31,4.31,0,0,1-.22-1.4,4,4,0,0,1,.22-1.33,3.3,3.3,0,0,1,.63-1.1,3,3,0,0,1,1-.76A3.16,3.16,0,0,1,105.26,41.1ZM106.89,44a2.77,2.77,0,0,0-.16-.71,1.73,1.73,0,0,0-.33-.55,1.43,1.43,0,0,0-.5-.35,1.91,1.91,0,0,0-1.37,0,1.51,1.51,0,0,0-.52.36,1.79,1.79,0,0,0-.35.55,2.54,2.54,0,0,0-.17.7Z"/><path class="cls-5" d="M118.14,47.85v-4a3.44,3.44,0,0,0-.05-.62,1.26,1.26,0,0,0-.19-.49,1,1,0,0,0-.39-.32,1.48,1.48,0,0,0-.63-.12,1.24,1.24,0,0,0-1.06.47,2.29,2.29,0,0,0-.35,1.38v3.74H114V43.65a1.64,1.64,0,0,0-.28-1,1.1,1.1,0,0,0-.91-.35,1.34,1.34,0,0,0-1.08.48,2,2,0,0,0-.4,1.31v3.81h-1.45V41.28h1.36v1h0a2.31,2.31,0,0,1,2.06-1.15,2.27,2.27,0,0,1,1.2.3,1.71,1.71,0,0,1,.71.86,2.45,2.45,0,0,1,.87-.86,2.21,2.21,0,0,1,3.47,2v4.48Z"/><path class="cls-5" d="M127.66,47.85l-.44.09-.39,0a1.79,1.79,0,0,1-.42,0,.91.91,0,0,1-.34-.16.84.84,0,0,1-.24-.29,1.28,1.28,0,0,1-.12-.45h0a2.67,2.67,0,0,1-.45.46,2.3,2.3,0,0,1-.52.31,3.32,3.32,0,0,1-1.31.24,2.42,2.42,0,0,1-1.62-.51,1.77,1.77,0,0,1-.6-1.45,1.7,1.7,0,0,1,.6-1.42,2.11,2.11,0,0,1,.58-.32,4.68,4.68,0,0,1,.73-.2q.39-.08.82-.13l.87-.1.34-.07a.8.8,0,0,0,.27-.13.59.59,0,0,0,.17-.22.79.79,0,0,0,.06-.33,1,1,0,0,0-.31-.79,2.11,2.11,0,0,0-2.05,0,1,1,0,0,0-.39.73h-1.45a2,2,0,0,1,.28-.9,2,2,0,0,1,.62-.62,2.88,2.88,0,0,1,.9-.36,5.08,5.08,0,0,1,1.13-.12,3.42,3.42,0,0,1,2,.5,1.65,1.65,0,0,1,.67,1.41v3.54a.47.47,0,0,0,.08.3.33.33,0,0,0,.27.1h.12l.13,0Zm-2-3.35h0a1,1,0,0,1-.54.23l-.48.08-.65.11a2.2,2.2,0,0,0-1,.37.87.87,0,0,0-.32.72.89.89,0,0,0,.37.76,1.48,1.48,0,0,0,.87.24,1.79,1.79,0,0,0,1.27-.43,1.59,1.59,0,0,0,.49-1.24Z"/><path class="cls-5" d="M130.52,38.42v1.42h-1.45V38.42Zm0,2.86v6.57h-1.45V41.28Z"/><path class="cls-5" d="M134,38.77v9.08h-1.45V38.77Z"/><path class="cls-5" d="M137.5,46.21v1.64h-1.61V46.21Z"/><path class="cls-5" d="M142.37,41.1a4.08,4.08,0,0,1,1.06.13,2.82,2.82,0,0,1,.89.41,2.27,2.27,0,0,1,.64.68,2.3,2.3,0,0,1,.31.95h-1.42a1.21,1.21,0,0,0-.47-.78,1.69,1.69,0,0,0-1-.27,1.53,1.53,0,0,0-.81.21A1.8,1.8,0,0,0,141,43a2.44,2.44,0,0,0-.33.76,3.42,3.42,0,0,0,0,1.67,2.42,2.42,0,0,0,.32.75,1.78,1.78,0,0,0,.56.55,1.51,1.51,0,0,0,.82.21,1.81,1.81,0,0,0,.6-.09,1.48,1.48,0,0,0,.47-.26,1.4,1.4,0,0,0,.33-.41,1.75,1.75,0,0,0,.18-.52h1.4a3.08,3.08,0,0,1-.33,1,2.59,2.59,0,0,1-.62.76,2.78,2.78,0,0,1-.89.49,3.49,3.49,0,0,1-1.14.18,3.33,3.33,0,0,1-1.32-.25,3,3,0,0,1-1-.71,3.22,3.22,0,0,1-.67-1.08,3.83,3.83,0,0,1-.24-1.37,4.25,4.25,0,0,1,.21-1.36,3.31,3.31,0,0,1,.63-1.12,3,3,0,0,1,1-.76A3.33,3.33,0,0,1,142.37,41.1Z"/><path class="cls-5" d="M153.13,44.57A4.09,4.09,0,0,1,152.9,46a3.1,3.1,0,0,1-.68,1.11,3,3,0,0,1-1,.73,3.49,3.49,0,0,1-1.36.25,3.12,3.12,0,0,1-2.38-1,3.94,3.94,0,0,1,0-5,3.1,3.1,0,0,1,2.39-1,3.15,3.15,0,0,1,2.4,1A3.54,3.54,0,0,1,153.13,44.57Zm-1.45,0a3.59,3.59,0,0,0-.11-.92,2.21,2.21,0,0,0-.35-.75,1.68,1.68,0,0,0-.58-.5,1.75,1.75,0,0,0-.83-.18,1.71,1.71,0,0,0-.77.17,1.62,1.62,0,0,0-.57.48,2.23,2.23,0,0,0-.36.74,3.79,3.79,0,0,0,0,1.9,2.19,2.19,0,0,0,.35.74,1.67,1.67,0,0,0,.58.49,1.7,1.7,0,0,0,.79.18,1.72,1.72,0,0,0,.79-.18,1.68,1.68,0,0,0,.58-.49,2.24,2.24,0,0,0,.36-.74A3.41,3.41,0,0,0,151.68,44.57Z"/><path class="cls-5" d="M163,47.85v-4a3.44,3.44,0,0,0-.05-.62,1.26,1.26,0,0,0-.19-.49,1,1,0,0,0-.39-.32,1.48,1.48,0,0,0-.63-.12,1.24,1.24,0,0,0-1.06.47,2.29,2.29,0,0,0-.35,1.38v3.74H158.9V43.65a1.64,1.64,0,0,0-.28-1,1.1,1.1,0,0,0-.91-.35,1.34,1.34,0,0,0-1.08.48,2,2,0,0,0-.4,1.31v3.81h-1.45V41.28h1.36v1h0a2.31,2.31,0,0,1,2.06-1.15,2.27,2.27,0,0,1,1.2.3,1.71,1.71,0,0,1,.71.86,2.45,2.45,0,0,1,.87-.86,2.21,2.21,0,0,1,3.47,2v4.48Z"/><path class="cls-5" d="M16.54,11.3V12H11.45v3.09h4.77v.69H11.45v3.38h5.14v.7h-6V11.3Z"/><path class="cls-5" d="M26.36,19.86V15.39A1.73,1.73,0,0,0,26,14.17a1.85,1.85,0,0,0-2.5.21A2.8,2.8,0,0,0,23,16.08v3.77h-.81V15.36a1.81,1.81,0,0,0-.34-1.17,1.25,1.25,0,0,0-1-.42,1.72,1.72,0,0,0-1.46.65,2.72,2.72,0,0,0-.5,1.71v3.72h-.8V13.29h.74v1.1h0A2.26,2.26,0,0,1,21,13.11a2.44,2.44,0,0,1,.64.08,1.86,1.86,0,0,1,.54.24,1.66,1.66,0,0,1,.42.4,1.86,1.86,0,0,1,.28.55,2.16,2.16,0,0,1,.85-1A2.4,2.4,0,0,1,25,13.11a2.12,2.12,0,0,1,1.63.58,2.36,2.36,0,0,1,.54,1.66v4.51Z"/><path class="cls-5" d="M35,19.81l-.27,0h-.24a1.37,1.37,0,0,1-.44-.06.65.65,0,0,1-.29-.2.82.82,0,0,1-.16-.35,2.43,2.43,0,0,1,0-.53h0a3,3,0,0,1-1,1,2.79,2.79,0,0,1-1.35.29,2.46,2.46,0,0,1-1.6-.5,1.75,1.75,0,0,1-.6-1.43,1.66,1.66,0,0,1,.66-1.43,6.79,6.79,0,0,1,3-.69,2,2,0,0,0,.44-.08.75.75,0,0,0,.29-.16.6.6,0,0,0,.16-.26,1.28,1.28,0,0,0,0-.38,1.24,1.24,0,0,0-.4-1,2,2,0,0,0-1.31-.34,2.61,2.61,0,0,0-.72.09,1.65,1.65,0,0,0-.53.25,1.13,1.13,0,0,0-.33.39,1.23,1.23,0,0,0-.13.49h-.8a2,2,0,0,1,.22-.78,1.78,1.78,0,0,1,.51-.59,2.43,2.43,0,0,1,.81-.38,4,4,0,0,1,1.09-.13,2.64,2.64,0,0,1,1.83.54,2,2,0,0,1,.59,1.52v3.56a.47.47,0,0,0,.11.33.46.46,0,0,0,.36.12.7.7,0,0,0,.25,0ZM33.5,16.27h0q-.12.22-.77.31l-.67.1-.74.12a2.67,2.67,0,0,0-1.17.44,1,1,0,0,0-.39.84,1.16,1.16,0,0,0,.43.94,1.6,1.6,0,0,0,1,.35,2.36,2.36,0,0,0,1.63-.58,1.85,1.85,0,0,0,.65-1.44Z"/><path class="cls-5" d="M37.28,10.42v1.29h-.8V10.42Zm0,2.87v6.56h-.8V13.29Z"/><path class="cls-5" d="M40.31,10.78v9.08h-.8V10.78Z"/><path class="cls-5" d="M17,93.74a2.34,2.34,0,0,1-.7,1.8,2.55,2.55,0,0,1-1.8.64h-3v3.67h-.82V91.29h3.86a2.53,2.53,0,0,1,1.8.65A2.33,2.33,0,0,1,17,93.74Zm-.81,0a1.68,1.68,0,0,0-.5-1.29A2.11,2.11,0,0,0,14.18,92H11.45v3.5H14.3A2,2,0,0,0,15.65,95,1.65,1.65,0,0,0,16.16,93.74Z"/><path class="cls-5" d="M23.88,99.81l-.27,0h-.24a1.37,1.37,0,0,1-.44-.06.65.65,0,0,1-.29-.2.82.82,0,0,1-.16-.35,2.43,2.43,0,0,1,0-.53h0a3,3,0,0,1-1,1A2.79,2.79,0,0,1,20,100a2.46,2.46,0,0,1-1.6-.5,1.75,1.75,0,0,1-.6-1.43,1.66,1.66,0,0,1,.66-1.43,6.79,6.79,0,0,1,3-.69,2,2,0,0,0,.44-.08.75.75,0,0,0,.29-.16.6.6,0,0,0,.16-.26,1.28,1.28,0,0,0,0-.38,1.24,1.24,0,0,0-.4-1,2,2,0,0,0-1.31-.34,2.61,2.61,0,0,0-.72.09,1.65,1.65,0,0,0-.53.25,1.13,1.13,0,0,0-.33.39,1.23,1.23,0,0,0-.13.49h-.8a2,2,0,0,1,.22-.78,1.78,1.78,0,0,1,.51-.59,2.43,2.43,0,0,1,.81-.38,4,4,0,0,1,1.09-.13,2.64,2.64,0,0,1,1.83.54,2,2,0,0,1,.59,1.52v3.56a.47.47,0,0,0,.11.33.46.46,0,0,0,.36.12.7.7,0,0,0,.25,0Zm-1.52-3.54h0q-.12.22-.77.31l-.67.1-.74.12a2.67,2.67,0,0,0-1.17.44,1,1,0,0,0-.39.84A1.16,1.16,0,0,0,19,99a1.6,1.6,0,0,0,1,.35,2.36,2.36,0,0,0,1.63-.58,1.85,1.85,0,0,0,.65-1.44Z"/><path class="cls-5" d="M30.22,98.07a1.67,1.67,0,0,1-.22.88,1.89,1.89,0,0,1-.59.62,2.74,2.74,0,0,1-.84.36,4,4,0,0,1-1,.12,3.66,3.66,0,0,1-1.07-.14,2.4,2.4,0,0,1-.8-.41,2,2,0,0,1-.53-.64,2.4,2.4,0,0,1-.25-.85h.81a1.7,1.7,0,0,0,.2.56,1.41,1.41,0,0,0,.38.43,1.8,1.8,0,0,0,.57.28,2.56,2.56,0,0,0,.74.1,3,3,0,0,0,.6-.06,2.05,2.05,0,0,0,.58-.21,1.35,1.35,0,0,0,.44-.38,1,1,0,0,0,.18-.59.93.93,0,0,0-.34-.73,2.6,2.6,0,0,0-1.13-.46l-1-.22a4,4,0,0,1-.77-.24,2.1,2.1,0,0,1-.58-.37,1.46,1.46,0,0,1-.36-.5,1.62,1.62,0,0,1-.12-.65,1.57,1.57,0,0,1,.21-.83,1.78,1.78,0,0,1,.56-.57,2.53,2.53,0,0,1,.78-.33,3.77,3.77,0,0,1,.89-.11,3.27,3.27,0,0,1,.92.12,2.29,2.29,0,0,1,.73.35,1.83,1.83,0,0,1,.5.57,2.08,2.08,0,0,1,.25.78h-.8a1.32,1.32,0,0,0-.19-.5,1.24,1.24,0,0,0-.36-.37,1.69,1.69,0,0,0-.5-.22,2.36,2.36,0,0,0-.61-.08,2.85,2.85,0,0,0-.58.06,1.59,1.59,0,0,0-.51.19,1.07,1.07,0,0,0-.36.35,1,1,0,0,0-.13.53.74.74,0,0,0,.13.44,1.27,1.27,0,0,0,.33.32,1.93,1.93,0,0,0,.44.22,3.64,3.64,0,0,0,.46.13l1.37.3a2.85,2.85,0,0,1,.59.21,1.77,1.77,0,0,1,.5.35,1.64,1.64,0,0,1,.34.51A1.71,1.71,0,0,1,30.22,98.07Z"/><path class="cls-5" d="M36.88,98.07a1.67,1.67,0,0,1-.22.88,1.89,1.89,0,0,1-.59.62,2.74,2.74,0,0,1-.84.36,4,4,0,0,1-1,.12,3.66,3.66,0,0,1-1.07-.14,2.4,2.4,0,0,1-.8-.41,2,2,0,0,1-.53-.64,2.4,2.4,0,0,1-.25-.85h.81a1.7,1.7,0,0,0,.2.56A1.41,1.41,0,0,0,33,99a1.8,1.8,0,0,0,.57.28,2.56,2.56,0,0,0,.74.1,3,3,0,0,0,.6-.06,2.05,2.05,0,0,0,.58-.21,1.35,1.35,0,0,0,.44-.38,1,1,0,0,0,.18-.59.93.93,0,0,0-.34-.73,2.6,2.6,0,0,0-1.13-.46l-1-.22a4,4,0,0,1-.77-.24,2.1,2.1,0,0,1-.58-.37,1.46,1.46,0,0,1-.36-.5,1.62,1.62,0,0,1-.12-.65,1.57,1.57,0,0,1,.21-.83,1.78,1.78,0,0,1,.56-.57,2.53,2.53,0,0,1,.78-.33,3.77,3.77,0,0,1,.89-.11,3.27,3.27,0,0,1,.92.12,2.29,2.29,0,0,1,.73.35,1.83,1.83,0,0,1,.5.57,2.08,2.08,0,0,1,.25.78h-.8a1.32,1.32,0,0,0-.19-.5,1.24,1.24,0,0,0-.36-.37,1.69,1.69,0,0,0-.5-.22,2.36,2.36,0,0,0-.61-.08,2.85,2.85,0,0,0-.58.06,1.59,1.59,0,0,0-.51.19,1.07,1.07,0,0,0-.36.35,1,1,0,0,0-.13.53.74.74,0,0,0,.13.44,1.27,1.27,0,0,0,.33.32,1.93,1.93,0,0,0,.44.22,3.64,3.64,0,0,0,.46.13l1.37.3a2.85,2.85,0,0,1,.59.21,1.77,1.77,0,0,1,.5.35,1.64,1.64,0,0,1,.34.51A1.71,1.71,0,0,1,36.88,98.07Z"/><path class="cls-5" d="M38.73,93.29l1.68,5.62h0L42,93.29h.9l1.61,5.62h0l1.68-5.62h.85L45,99.85h-.87L42.5,94.33h0l-1.6,5.52H40l-2.11-6.56Z"/><path class="cls-5" d="M54.34,96.57a4.29,4.29,0,0,1-.2,1.31A3.31,3.31,0,0,1,53.53,99a2.9,2.9,0,0,1-2.29,1,2.84,2.84,0,0,1-2.24-1,4.07,4.07,0,0,1,0-5,3.08,3.08,0,0,1,4.51,0A3.65,3.65,0,0,1,54.34,96.57Zm-.8,0a3.8,3.8,0,0,0-.13-1,2.81,2.81,0,0,0-.42-.9,2.25,2.25,0,0,0-.72-.65,2,2,0,0,0-1-.25,2,2,0,0,0-1,.24,2.24,2.24,0,0,0-.72.64,2.85,2.85,0,0,0-.44.9,3.66,3.66,0,0,0-.15,1,3.58,3.58,0,0,0,.14,1,3,3,0,0,0,.43.9,2.24,2.24,0,0,0,.71.65,2,2,0,0,0,1,.25,2,2,0,0,0,1-.24,2.33,2.33,0,0,0,.72-.63,2.8,2.8,0,0,0,.45-.89A3.54,3.54,0,0,0,53.54,96.57Z"/><path class="cls-5" d="M56.14,99.85V93.29h.74v1.54h0a2.56,2.56,0,0,1,.9-1.2,2.32,2.32,0,0,1,1.38-.43h.29V94h-.18a2.22,2.22,0,0,0-1.71.69,2.36,2.36,0,0,0-.64,1.69v3.48Z"/><path class="cls-5" d="M66.35,90.77v9.08h-.74V98.61h0a2,2,0,0,1-.39.59,2.57,2.57,0,0,1-.56.45,2.8,2.8,0,0,1-.67.29,2.63,2.63,0,0,1-.72.1A2.8,2.8,0,0,1,62,99.77,2.68,2.68,0,0,1,61,99a3.32,3.32,0,0,1-.56-1.11,4.68,4.68,0,0,1-.19-1.34,4.83,4.83,0,0,1,.17-1.29A3.31,3.31,0,0,1,61,94.17a2.69,2.69,0,0,1,.92-.78,3,3,0,0,1,2-.2,2.56,2.56,0,0,1,.65.27,2.25,2.25,0,0,1,.54.45,2.07,2.07,0,0,1,.38.63h0V90.77Zm-5.26,5.8a4.17,4.17,0,0,0,.05.65,3.7,3.7,0,0,0,.16.64,2.82,2.82,0,0,0,.28.58,2.15,2.15,0,0,0,.41.48,1.8,1.8,0,0,0,.55.32,2,2,0,0,0,.7.12A2.08,2.08,0,0,0,65,98.53a2.66,2.66,0,0,0,.43-.89,4,4,0,0,0,.14-1.06,4,4,0,0,0-.13-1,2.73,2.73,0,0,0-.41-.9,2.06,2.06,0,0,0-1.76-.88,1.94,1.94,0,0,0-.68.11,1.8,1.8,0,0,0-.54.31,2.15,2.15,0,0,0-.41.47,2.8,2.8,0,0,0-.29.58,3.52,3.52,0,0,0-.17.65A4.25,4.25,0,0,0,61.09,96.57Z"/><path class="cls-6" d="M16.32,151.43v.7h-3V160h-.81v-7.87h-3v-.7Z"/><path class="cls-6" d="M22,160v-4.15a2.2,2.2,0,0,0-.41-1.45,1.54,1.54,0,0,0-1.25-.49,2,2,0,0,0-.87.18,1.91,1.91,0,0,0-.65.48,2.14,2.14,0,0,0-.4.71,2.66,2.66,0,0,0-.14.87V160h-.8v-9.08h.8v3.66h0a1.89,1.89,0,0,1,.34-.56,2.12,2.12,0,0,1,.5-.42,2.43,2.43,0,0,1,.61-.26,2.46,2.46,0,0,1,.67-.09,3.35,3.35,0,0,1,1.08.15,1.83,1.83,0,0,1,.74.46,1.87,1.87,0,0,1,.43.77,3.79,3.79,0,0,1,.14,1.08V160Z"/><path class="cls-6" d="M27.51,153.25a2.71,2.71,0,0,1,1.3.29,2.6,2.6,0,0,1,.9.79,3.44,3.44,0,0,1,.52,1.13,5.22,5.22,0,0,1,.17,1.34v.13H25.34a3.58,3.58,0,0,0,.13.94,2.58,2.58,0,0,0,.39.83,2,2,0,0,0,.66.59,1.92,1.92,0,0,0,.95.22,2.44,2.44,0,0,0,.7-.09,2,2,0,0,0,.56-.26,1.76,1.76,0,0,0,.42-.39,2.4,2.4,0,0,0,.29-.49h.79a3,3,0,0,1-.38.79,2.48,2.48,0,0,1-.59.6,2.68,2.68,0,0,1-.79.39,3.33,3.33,0,0,1-1,.14,2.94,2.94,0,0,1-1.3-.27,2.56,2.56,0,0,1-.91-.73,3.12,3.12,0,0,1-.54-1.1,5.13,5.13,0,0,1-.18-1.37,4.66,4.66,0,0,1,.18-1.28,3.37,3.37,0,0,1,.54-1.11,2.74,2.74,0,0,1,.92-.78A2.79,2.79,0,0,1,27.51,153.25Zm2.09,3a3,3,0,0,0-.16-.85,2.44,2.44,0,0,0-.41-.75,2.07,2.07,0,0,0-.65-.54,1.84,1.84,0,0,0-.88-.21,1.84,1.84,0,0,0-1.5.7,2.69,2.69,0,0,0-.42.75,4.32,4.32,0,0,0-.23.9Z"/><path class="cls-6" d="M38.13,153.25a2.71,2.71,0,0,1,1.3.29,2.6,2.6,0,0,1,.9.79,3.44,3.44,0,0,1,.52,1.13A5.22,5.22,0,0,1,41,156.8v.13H36a3.58,3.58,0,0,0,.13.94,2.58,2.58,0,0,0,.39.83,2,2,0,0,0,.66.59,1.92,1.92,0,0,0,.95.22,2.44,2.44,0,0,0,.7-.09,2,2,0,0,0,.56-.26,1.76,1.76,0,0,0,.42-.39,2.4,2.4,0,0,0,.29-.49h.79a3,3,0,0,1-.38.79,2.48,2.48,0,0,1-.59.6,2.68,2.68,0,0,1-.79.39,3.33,3.33,0,0,1-1,.14,2.94,2.94,0,0,1-1.3-.27,2.56,2.56,0,0,1-.91-.73,3.12,3.12,0,0,1-.54-1.1,5.13,5.13,0,0,1-.18-1.37,4.66,4.66,0,0,1,.18-1.28,3.37,3.37,0,0,1,.54-1.11,2.74,2.74,0,0,1,.92-.78A2.79,2.79,0,0,1,38.13,153.25Zm2.09,3a3,3,0,0,0-.16-.85,2.44,2.44,0,0,0-.41-.75,2.07,2.07,0,0,0-.65-.54,1.84,1.84,0,0,0-.88-.21,1.84,1.84,0,0,0-1.5.7,2.69,2.69,0,0,0-.42.75,4.32,4.32,0,0,0-.23.9Z"/><path class="cls-6" d="M51,160v-4.46a1.73,1.73,0,0,0-.37-1.22,1.85,1.85,0,0,0-2.5.21,2.8,2.8,0,0,0-.45,1.71V160h-.81V155.5a1.81,1.81,0,0,0-.34-1.17,1.25,1.25,0,0,0-1-.42,1.72,1.72,0,0,0-1.46.65,2.72,2.72,0,0,0-.5,1.71V160h-.8v-6.56h.74v1.1h0a2.26,2.26,0,0,1,2.15-1.29,2.44,2.44,0,0,1,.64.08,1.86,1.86,0,0,1,.54.24,1.66,1.66,0,0,1,.42.4,1.87,1.87,0,0,1,.28.55,2.16,2.16,0,0,1,.85-1,2.4,2.4,0,0,1,1.24-.32,2.12,2.12,0,0,1,1.63.58,2.36,2.36,0,0,1,.54,1.66V160Z"/><path class="cls-6" d="M59.63,160l-.27,0h-.24a1.37,1.37,0,0,1-.44-.06.65.65,0,0,1-.29-.2.82.82,0,0,1-.16-.36,2.42,2.42,0,0,1,0-.53h0a3,3,0,0,1-1,1,2.79,2.79,0,0,1-1.35.29,2.46,2.46,0,0,1-1.6-.5,1.75,1.75,0,0,1-.6-1.43,1.66,1.66,0,0,1,.66-1.43,6.79,6.79,0,0,1,3-.69,2,2,0,0,0,.44-.08.75.75,0,0,0,.29-.16.59.59,0,0,0,.16-.26,1.28,1.28,0,0,0,0-.38,1.25,1.25,0,0,0-.4-1,2,2,0,0,0-1.31-.34,2.61,2.61,0,0,0-.72.09,1.65,1.65,0,0,0-.53.25,1.13,1.13,0,0,0-.33.39,1.23,1.23,0,0,0-.13.49h-.8a2,2,0,0,1,.22-.78,1.77,1.77,0,0,1,.51-.59,2.43,2.43,0,0,1,.81-.38,4,4,0,0,1,1.09-.13,2.64,2.64,0,0,1,1.83.54,2,2,0,0,1,.59,1.52v3.56a.47.47,0,0,0,.11.33.46.46,0,0,0,.36.12.7.7,0,0,0,.25,0Zm-1.52-3.54h0q-.12.22-.77.31l-.67.1-.74.12a2.67,2.67,0,0,0-1.17.44,1,1,0,0,0-.39.84,1.16,1.16,0,0,0,.43.94,1.6,1.6,0,0,0,1,.35,2.36,2.36,0,0,0,1.63-.58,1.85,1.85,0,0,0,.65-1.44Z"/><path class="cls-6" d="M61.88,150.56v1.29h-.8v-1.29Zm0,2.87V160h-.8v-6.56Z"/><path class="cls-6" d="M64.91,150.92V160h-.8v-9.08Z"/><path class="cls-6" d="M76.28,160,76,160h-.24a1.37,1.37,0,0,1-.44-.06.65.65,0,0,1-.29-.2.82.82,0,0,1-.16-.36,2.42,2.42,0,0,1,0-.53h0a3,3,0,0,1-1,1,2.79,2.79,0,0,1-1.35.29,2.46,2.46,0,0,1-1.6-.5,1.75,1.75,0,0,1-.6-1.43,1.66,1.66,0,0,1,.66-1.43,6.79,6.79,0,0,1,3-.69,2,2,0,0,0,.44-.08.75.75,0,0,0,.29-.16.59.59,0,0,0,.16-.26,1.28,1.28,0,0,0,0-.38,1.25,1.25,0,0,0-.4-1,2,2,0,0,0-1.31-.34,2.61,2.61,0,0,0-.72.09,1.65,1.65,0,0,0-.53.25,1.13,1.13,0,0,0-.33.39,1.23,1.23,0,0,0-.13.49h-.8a2,2,0,0,1,.22-.78,1.77,1.77,0,0,1,.51-.59,2.43,2.43,0,0,1,.81-.38,4,4,0,0,1,1.09-.13,2.64,2.64,0,0,1,1.83.54,2,2,0,0,1,.59,1.52v3.56a.47.47,0,0,0,.11.33.46.46,0,0,0,.36.12.7.7,0,0,0,.25,0Zm-1.52-3.54h0q-.12.22-.77.31l-.67.1-.74.12a2.67,2.67,0,0,0-1.17.44,1,1,0,0,0-.39.84,1.16,1.16,0,0,0,.43.94,1.6,1.6,0,0,0,1,.35,2.36,2.36,0,0,0,1.63-.58,1.85,1.85,0,0,0,.65-1.44Z"/><path class="cls-6" d="M80.63,153.25a3.35,3.35,0,0,1,1.08.15,1.83,1.83,0,0,1,.74.46,1.87,1.87,0,0,1,.43.77,3.79,3.79,0,0,1,.14,1.08V160h-.8v-4.15a2.2,2.2,0,0,0-.41-1.45,1.54,1.54,0,0,0-1.25-.49,2.07,2.07,0,0,0-.86.17,1.88,1.88,0,0,0-.65.48,2.15,2.15,0,0,0-.41.71,2.64,2.64,0,0,0-.14.88V160h-.8v-6.56h.8v1.14h0a2,2,0,0,1,.35-.56,2.18,2.18,0,0,1,.49-.42,2.33,2.33,0,0,1,.6-.26A2.48,2.48,0,0,1,80.63,153.25Z"/><path class="cls-6" d="M90.93,150.92V160H90.2v-1.25h0a2,2,0,0,1-.39.59,2.58,2.58,0,0,1-.56.46,2.8,2.8,0,0,1-.67.29,2.63,2.63,0,0,1-.72.1,2.8,2.8,0,0,1-1.28-.28,2.68,2.68,0,0,1-.92-.75,3.32,3.32,0,0,1-.56-1.11,4.68,4.68,0,0,1-.19-1.34,4.83,4.83,0,0,1,.17-1.29,3.31,3.31,0,0,1,.53-1.11,2.68,2.68,0,0,1,.92-.78,3,3,0,0,1,2-.2,2.56,2.56,0,0,1,.65.27,2.26,2.26,0,0,1,.54.45,2.07,2.07,0,0,1,.38.63h0v-3.77Zm-5.26,5.8a4.17,4.17,0,0,0,.05.65,3.7,3.7,0,0,0,.16.64,2.81,2.81,0,0,0,.28.58,2.15,2.15,0,0,0,.41.48,1.8,1.8,0,0,0,.55.32,2,2,0,0,0,.7.12,2.07,2.07,0,0,0,1.73-.84,2.66,2.66,0,0,0,.43-.89,4,4,0,0,0,.14-1.06,4,4,0,0,0-.13-1,2.73,2.73,0,0,0-.41-.9,2.06,2.06,0,0,0-1.76-.87,1.94,1.94,0,0,0-.68.11,1.8,1.8,0,0,0-.54.31,2.14,2.14,0,0,0-.41.46,2.81,2.81,0,0,0-.29.58,3.51,3.51,0,0,0-.17.65A4.26,4.26,0,0,0,85.68,156.72Z"/><path class="cls-6" d="M102.69,156.72a4.77,4.77,0,0,1-.17,1.28,3.38,3.38,0,0,1-.53,1.11,2.69,2.69,0,0,1-.92.79,2.78,2.78,0,0,1-1.32.3,2.81,2.81,0,0,1-.71-.09,2.45,2.45,0,0,1-.65-.27,2.29,2.29,0,0,1-.54-.45,2.21,2.21,0,0,1-.38-.63h0v3.67h-.8v-9h.74v1.25h0a2.24,2.24,0,0,1,.39-.61,2.29,2.29,0,0,1,.55-.45,2.68,2.68,0,0,1,.67-.28,2.81,2.81,0,0,1,.74-.1,2.85,2.85,0,0,1,1.29.28,2.64,2.64,0,0,1,.92.75,3.32,3.32,0,0,1,.56,1.1A4.68,4.68,0,0,1,102.69,156.72Zm-.8,0a4.48,4.48,0,0,0-.11-1,2.84,2.84,0,0,0-.37-.9,2.07,2.07,0,0,0-.67-.66,1.9,1.9,0,0,0-1-.26,2.09,2.09,0,0,0-1.7.7,3.22,3.22,0,0,0-.58,2.1,4.19,4.19,0,0,0,.13,1,2.68,2.68,0,0,0,.4.9,2.1,2.1,0,0,0,.71.64,2.16,2.16,0,0,0,1.06.24,1.87,1.87,0,0,0,1-.24,2,2,0,0,0,.67-.63,2.87,2.87,0,0,0,.39-.9A4.14,4.14,0,0,0,101.88,156.72Z"/><path class="cls-6" d="M110.22,160l-.27,0h-.24a1.37,1.37,0,0,1-.44-.06.65.65,0,0,1-.29-.2.82.82,0,0,1-.16-.36,2.42,2.42,0,0,1,0-.53h0a3,3,0,0,1-1,1,2.79,2.79,0,0,1-1.35.29,2.46,2.46,0,0,1-1.6-.5,1.75,1.75,0,0,1-.6-1.43,1.66,1.66,0,0,1,.66-1.43,6.79,6.79,0,0,1,3-.69,2,2,0,0,0,.44-.08.75.75,0,0,0,.29-.16.59.59,0,0,0,.16-.26,1.28,1.28,0,0,0,0-.38,1.25,1.25,0,0,0-.4-1,2,2,0,0,0-1.31-.34,2.61,2.61,0,0,0-.72.09,1.65,1.65,0,0,0-.53.25,1.13,1.13,0,0,0-.33.39,1.23,1.23,0,0,0-.13.49h-.8a2,2,0,0,1,.22-.78,1.77,1.77,0,0,1,.51-.59,2.43,2.43,0,0,1,.81-.38,4,4,0,0,1,1.09-.13,2.64,2.64,0,0,1,1.83.54,2,2,0,0,1,.59,1.52v3.56a.47.47,0,0,0,.11.33.46.46,0,0,0,.36.12.7.7,0,0,0,.25,0Zm-1.52-3.54h0q-.12.22-.77.31l-.67.1-.74.12a2.67,2.67,0,0,0-1.17.44,1,1,0,0,0-.39.84,1.16,1.16,0,0,0,.43.94,1.6,1.6,0,0,0,1,.35,2.36,2.36,0,0,0,1.63-.58,1.85,1.85,0,0,0,.65-1.44Z"/><path class="cls-6" d="M116.56,158.22a1.67,1.67,0,0,1-.22.88,1.89,1.89,0,0,1-.59.62,2.74,2.74,0,0,1-.84.36,4,4,0,0,1-1,.12,3.66,3.66,0,0,1-1.07-.14,2.4,2.4,0,0,1-.8-.41,2,2,0,0,1-.53-.64,2.4,2.4,0,0,1-.25-.85h.81a1.7,1.7,0,0,0,.2.56,1.4,1.4,0,0,0,.38.43,1.8,1.8,0,0,0,.57.28,2.56,2.56,0,0,0,.74.1,3,3,0,0,0,.6-.06,2.05,2.05,0,0,0,.58-.21,1.36,1.36,0,0,0,.44-.38,1,1,0,0,0,.18-.59.93.93,0,0,0-.34-.73,2.6,2.6,0,0,0-1.13-.46l-1-.22a4,4,0,0,1-.77-.24,2.1,2.1,0,0,1-.58-.37,1.46,1.46,0,0,1-.36-.5,1.61,1.61,0,0,1-.12-.65,1.57,1.57,0,0,1,.21-.84,1.77,1.77,0,0,1,.56-.57,2.53,2.53,0,0,1,.78-.33,3.77,3.77,0,0,1,.89-.11,3.27,3.27,0,0,1,.92.12,2.28,2.28,0,0,1,.73.35,1.83,1.83,0,0,1,.5.57,2.08,2.08,0,0,1,.25.78h-.8a1.33,1.33,0,0,0-.19-.5,1.24,1.24,0,0,0-.36-.37,1.69,1.69,0,0,0-.5-.22,2.36,2.36,0,0,0-.61-.08,2.85,2.85,0,0,0-.58.06,1.59,1.59,0,0,0-.51.19,1.07,1.07,0,0,0-.36.35,1,1,0,0,0-.13.53.74.74,0,0,0,.13.44,1.27,1.27,0,0,0,.33.32,1.92,1.92,0,0,0,.44.22,3.65,3.65,0,0,0,.46.13l1.37.3a2.85,2.85,0,0,1,.59.21,1.77,1.77,0,0,1,.5.35,1.64,1.64,0,0,1,.34.51A1.72,1.72,0,0,1,116.56,158.22Z"/><path class="cls-6" d="M123.23,158.22a1.67,1.67,0,0,1-.22.88,1.89,1.89,0,0,1-.59.62,2.74,2.74,0,0,1-.84.36,4,4,0,0,1-1,.12,3.66,3.66,0,0,1-1.07-.14,2.4,2.4,0,0,1-.8-.41,2,2,0,0,1-.53-.64,2.4,2.4,0,0,1-.25-.85h.81a1.7,1.7,0,0,0,.2.56,1.4,1.4,0,0,0,.38.43,1.8,1.8,0,0,0,.57.28,2.56,2.56,0,0,0,.74.1,3,3,0,0,0,.6-.06,2.05,2.05,0,0,0,.58-.21,1.36,1.36,0,0,0,.44-.38,1,1,0,0,0,.18-.59.93.93,0,0,0-.34-.73,2.6,2.6,0,0,0-1.13-.46l-1-.22a4,4,0,0,1-.77-.24,2.1,2.1,0,0,1-.58-.37,1.46,1.46,0,0,1-.36-.5,1.61,1.61,0,0,1-.12-.65,1.57,1.57,0,0,1,.21-.84,1.77,1.77,0,0,1,.56-.57,2.53,2.53,0,0,1,.78-.33,3.77,3.77,0,0,1,.89-.11,3.27,3.27,0,0,1,.92.12,2.28,2.28,0,0,1,.73.35,1.83,1.83,0,0,1,.5.57,2.08,2.08,0,0,1,.25.78h-.8a1.33,1.33,0,0,0-.19-.5,1.24,1.24,0,0,0-.36-.37,1.69,1.69,0,0,0-.5-.22,2.36,2.36,0,0,0-.61-.08,2.85,2.85,0,0,0-.58.06,1.59,1.59,0,0,0-.51.19,1.07,1.07,0,0,0-.36.35,1,1,0,0,0-.13.53.74.74,0,0,0,.13.44,1.27,1.27,0,0,0,.33.32,1.92,1.92,0,0,0,.44.22,3.65,3.65,0,0,0,.46.13l1.37.3a2.85,2.85,0,0,1,.59.21,1.77,1.77,0,0,1,.5.35,1.64,1.64,0,0,1,.34.51A1.72,1.72,0,0,1,123.23,158.22Z"/><path class="cls-6" d="M125.08,153.44l1.68,5.62h0l1.6-5.62h.9l1.61,5.62h0l1.68-5.62h.85L131.33,160h-.87l-1.61-5.52h0l-1.6,5.52h-.88l-2.11-6.56Z"/><path class="cls-6" d="M140.69,156.72a4.29,4.29,0,0,1-.2,1.31,3.31,3.31,0,0,1-.61,1.13,2.9,2.9,0,0,1-2.29,1,2.84,2.84,0,0,1-2.24-1,4.07,4.07,0,0,1,0-5,3.08,3.08,0,0,1,4.51,0A3.65,3.65,0,0,1,140.69,156.72Zm-.8,0a3.8,3.8,0,0,0-.13-1,2.82,2.82,0,0,0-.42-.9,2.24,2.24,0,0,0-.72-.65,2,2,0,0,0-1-.25,2,2,0,0,0-1,.24,2.24,2.24,0,0,0-.72.63,2.86,2.86,0,0,0-.44.9,3.66,3.66,0,0,0-.15,1,3.58,3.58,0,0,0,.14,1,3,3,0,0,0,.43.9,2.24,2.24,0,0,0,.71.65,2,2,0,0,0,1,.25,2,2,0,0,0,1-.24,2.34,2.34,0,0,0,.72-.63,2.8,2.8,0,0,0,.45-.89A3.54,3.54,0,0,0,139.88,156.72Z"/><path class="cls-6" d="M142.48,160v-6.56h.74V155h0a2.56,2.56,0,0,1,.9-1.2,2.32,2.32,0,0,1,1.38-.43h.29v.8h-.18a2.22,2.22,0,0,0-1.71.69,2.36,2.36,0,0,0-.64,1.69V160Z"/><path class="cls-6" d="M152.69,150.92V160H152v-1.25h0a2,2,0,0,1-.39.59,2.58,2.58,0,0,1-.56.46,2.8,2.8,0,0,1-.67.29,2.63,2.63,0,0,1-.72.1,2.8,2.8,0,0,1-1.28-.28,2.68,2.68,0,0,1-.92-.75,3.32,3.32,0,0,1-.56-1.11,4.68,4.68,0,0,1-.19-1.34,4.83,4.83,0,0,1,.17-1.29,3.31,3.31,0,0,1,.53-1.11,2.68,2.68,0,0,1,.92-.78,3,3,0,0,1,2-.2,2.56,2.56,0,0,1,.65.27,2.26,2.26,0,0,1,.54.45,2.07,2.07,0,0,1,.38.63h0v-3.77Zm-5.26,5.8a4.17,4.17,0,0,0,.05.65,3.7,3.7,0,0,0,.16.64,2.81,2.81,0,0,0,.28.58,2.15,2.15,0,0,0,.41.48,1.8,1.8,0,0,0,.55.32,2,2,0,0,0,.7.12,2.07,2.07,0,0,0,1.73-.84,2.66,2.66,0,0,0,.43-.89,4,4,0,0,0,.14-1.06,4,4,0,0,0-.13-1,2.73,2.73,0,0,0-.41-.9,2.06,2.06,0,0,0-1.76-.87,1.94,1.94,0,0,0-.68.11,1.8,1.8,0,0,0-.54.31,2.14,2.14,0,0,0-.41.46,2.81,2.81,0,0,0-.29.58,3.51,3.51,0,0,0-.17.65A4.26,4.26,0,0,0,147.44,156.72Z"/><path class="cls-6" d="M158.37,153.44l2.16,5.59h0l2-5.59h.8l-2.83,7.5q-.13.33-.26.61a1.7,1.7,0,0,1-.32.47,1.29,1.29,0,0,1-.46.3,1.88,1.88,0,0,1-.69.11,3.17,3.17,0,0,1-.63-.06v-.68a1.29,1.29,0,0,0,.28.06h.27a1.08,1.08,0,0,0,.48-.09.9.9,0,0,0,.34-.3,2.86,2.86,0,0,0,.28-.55l.33-.83-2.62-6.54Z"/><path class="cls-6" d="M170.51,156.72a4.29,4.29,0,0,1-.2,1.31,3.31,3.31,0,0,1-.61,1.13,2.9,2.9,0,0,1-2.29,1,2.84,2.84,0,0,1-2.24-1,4.07,4.07,0,0,1,0-5,3.08,3.08,0,0,1,4.51,0A3.65,3.65,0,0,1,170.51,156.72Zm-.8,0a3.8,3.8,0,0,0-.13-1,2.82,2.82,0,0,0-.42-.9,2.24,2.24,0,0,0-.72-.65,2,2,0,0,0-1-.25,2,2,0,0,0-1,.24,2.24,2.24,0,0,0-.72.63,2.86,2.86,0,0,0-.44.9,3.66,3.66,0,0,0-.15,1,3.58,3.58,0,0,0,.14,1,3,3,0,0,0,.43.9,2.24,2.24,0,0,0,.71.65,2,2,0,0,0,1,.25,2,2,0,0,0,1-.24,2.34,2.34,0,0,0,.72-.63,2.8,2.8,0,0,0,.45-.89A3.54,3.54,0,0,0,169.71,156.72Z"/><path class="cls-6" d="M176.88,160v-1.18h0a2.47,2.47,0,0,1-.39.58,2.34,2.34,0,0,1-.52.43,2.47,2.47,0,0,1-.63.27,2.73,2.73,0,0,1-.72.09,2.21,2.21,0,0,1-1.74-.63,2.64,2.64,0,0,1-.56-1.82v-4.31h.8v4.28a2.67,2.67,0,0,0,.1.76,1.43,1.43,0,0,0,.31.56,1.33,1.33,0,0,0,.54.35,2.33,2.33,0,0,0,.79.12,1.7,1.7,0,0,0,.89-.23,1.92,1.92,0,0,0,.62-.59,2.61,2.61,0,0,0,.36-.83,3.9,3.9,0,0,0,.11-.94v-3.49h.8V160Z"/><path class="cls-6" d="M185.86,153.25a2.71,2.71,0,0,1,1.3.29,2.6,2.6,0,0,1,.9.79,3.44,3.44,0,0,1,.52,1.13,5.22,5.22,0,0,1,.17,1.34v.13H183.7a3.58,3.58,0,0,0,.13.94,2.58,2.58,0,0,0,.39.83,2,2,0,0,0,.66.59,1.92,1.92,0,0,0,.95.22,2.44,2.44,0,0,0,.7-.09,2,2,0,0,0,.56-.26,1.76,1.76,0,0,0,.42-.39,2.4,2.4,0,0,0,.29-.49h.79a3,3,0,0,1-.38.79,2.48,2.48,0,0,1-.59.6,2.68,2.68,0,0,1-.79.39,3.33,3.33,0,0,1-1,.14,2.94,2.94,0,0,1-1.3-.27,2.56,2.56,0,0,1-.91-.73,3.12,3.12,0,0,1-.54-1.1,5.13,5.13,0,0,1-.18-1.37,4.66,4.66,0,0,1,.18-1.28,3.37,3.37,0,0,1,.54-1.11,2.74,2.74,0,0,1,.92-.78A2.79,2.79,0,0,1,185.86,153.25Zm2.09,3a3,3,0,0,0-.16-.85,2.44,2.44,0,0,0-.41-.75,2.07,2.07,0,0,0-.65-.54,1.84,1.84,0,0,0-.88-.21,1.84,1.84,0,0,0-1.5.7,2.69,2.69,0,0,0-.42.75,4.32,4.32,0,0,0-.23.9Z"/><path class="cls-6" d="M193.34,153.25a3.35,3.35,0,0,1,1.08.15,1.83,1.83,0,0,1,.74.46,1.87,1.87,0,0,1,.43.77,3.79,3.79,0,0,1,.14,1.08V160h-.8v-4.15a2.2,2.2,0,0,0-.41-1.45,1.54,1.54,0,0,0-1.25-.49,2.07,2.07,0,0,0-.86.17,1.88,1.88,0,0,0-.65.48,2.15,2.15,0,0,0-.41.71,2.64,2.64,0,0,0-.14.88V160h-.8v-6.56h.8v1.14h0a2,2,0,0,1,.35-.56,2.18,2.18,0,0,1,.49-.42,2.33,2.33,0,0,1,.6-.26A2.48,2.48,0,0,1,193.34,153.25Z"/><path class="cls-6" d="M200.55,160.06h-.66a3,3,0,0,1-.68-.06,1,1,0,0,1-.45-.23.89.89,0,0,1-.25-.43,2.65,2.65,0,0,1-.07-.68v-4.56h-1.32v-.67h1.32v-2h.8v2h1.5v.67h-1.5v4.48a1.75,1.75,0,0,0,0,.34.64.64,0,0,0,.11.26.5.5,0,0,0,.21.16.87.87,0,0,0,.35.06h.6l.21,0V160Z"/><path class="cls-6" d="M204.91,153.25a2.71,2.71,0,0,1,1.3.29,2.6,2.6,0,0,1,.9.79,3.44,3.44,0,0,1,.52,1.13,5.22,5.22,0,0,1,.17,1.34v.13h-5.05a3.58,3.58,0,0,0,.13.94,2.58,2.58,0,0,0,.39.83,2,2,0,0,0,.66.59,1.92,1.92,0,0,0,.95.22,2.44,2.44,0,0,0,.7-.09,2,2,0,0,0,.56-.26,1.76,1.76,0,0,0,.42-.39,2.4,2.4,0,0,0,.29-.49h.79a3,3,0,0,1-.38.79,2.48,2.48,0,0,1-.59.6,2.68,2.68,0,0,1-.79.39,3.33,3.33,0,0,1-1,.14,2.94,2.94,0,0,1-1.3-.27,2.56,2.56,0,0,1-.91-.73,3.12,3.12,0,0,1-.54-1.1,5.13,5.13,0,0,1-.18-1.37,4.66,4.66,0,0,1,.18-1.28,3.37,3.37,0,0,1,.54-1.11,2.74,2.74,0,0,1,.92-.78A2.79,2.79,0,0,1,204.91,153.25Zm2.09,3a3,3,0,0,0-.16-.85,2.44,2.44,0,0,0-.41-.75,2.07,2.07,0,0,0-.65-.54,1.84,1.84,0,0,0-.88-.21,1.84,1.84,0,0,0-1.5.7,2.69,2.69,0,0,0-.42.75,4.32,4.32,0,0,0-.23.9Z"/><path class="cls-6" d="M209.47,160v-6.56h.74V155h0a2.56,2.56,0,0,1,.9-1.2,2.32,2.32,0,0,1,1.38-.43h.29v.8h-.18a2.22,2.22,0,0,0-1.71.69,2.36,2.36,0,0,0-.64,1.69V160Z"/><path class="cls-6" d="M216.52,153.25a2.71,2.71,0,0,1,1.3.29,2.6,2.6,0,0,1,.9.79,3.44,3.44,0,0,1,.52,1.13,5.22,5.22,0,0,1,.17,1.34v.13h-5.05a3.58,3.58,0,0,0,.13.94,2.58,2.58,0,0,0,.39.83,2,2,0,0,0,.66.59,1.92,1.92,0,0,0,.95.22,2.44,2.44,0,0,0,.7-.09,2,2,0,0,0,.56-.26,1.76,1.76,0,0,0,.42-.39,2.4,2.4,0,0,0,.29-.49h.79a3,3,0,0,1-.38.79,2.48,2.48,0,0,1-.59.6,2.68,2.68,0,0,1-.79.39,3.33,3.33,0,0,1-1,.14,2.94,2.94,0,0,1-1.3-.27,2.56,2.56,0,0,1-.91-.73,3.12,3.12,0,0,1-.54-1.1,5.13,5.13,0,0,1-.18-1.37,4.66,4.66,0,0,1,.18-1.28,3.37,3.37,0,0,1,.54-1.11,2.74,2.74,0,0,1,.92-.78A2.79,2.79,0,0,1,216.52,153.25Zm2.09,3a3,3,0,0,0-.16-.85,2.44,2.44,0,0,0-.41-.75,2.07,2.07,0,0,0-.65-.54,1.84,1.84,0,0,0-.88-.21,1.84,1.84,0,0,0-1.5.7,2.69,2.69,0,0,0-.42.75,4.32,4.32,0,0,0-.23.9Z"/><path class="cls-6" d="M226.82,150.92V160h-.74v-1.25h0a2,2,0,0,1-.39.59,2.58,2.58,0,0,1-.56.46,2.8,2.8,0,0,1-.67.29,2.63,2.63,0,0,1-.72.1,2.8,2.8,0,0,1-1.28-.28,2.68,2.68,0,0,1-.92-.75,3.32,3.32,0,0,1-.56-1.11,4.68,4.68,0,0,1-.19-1.34,4.83,4.83,0,0,1,.17-1.29,3.31,3.31,0,0,1,.53-1.11,2.68,2.68,0,0,1,.92-.78,3,3,0,0,1,2-.2,2.56,2.56,0,0,1,.65.27,2.26,2.26,0,0,1,.54.45,2.07,2.07,0,0,1,.38.63h0v-3.77Zm-5.26,5.8a4.17,4.17,0,0,0,.05.65,3.7,3.7,0,0,0,.16.64,2.81,2.81,0,0,0,.28.58,2.15,2.15,0,0,0,.41.48,1.8,1.8,0,0,0,.55.32,2,2,0,0,0,.7.12,2.07,2.07,0,0,0,1.73-.84,2.66,2.66,0,0,0,.43-.89,4,4,0,0,0,.14-1.06,4,4,0,0,0-.13-1,2.73,2.73,0,0,0-.41-.9,2.06,2.06,0,0,0-1.76-.87,1.94,1.94,0,0,0-.68.11,1.8,1.8,0,0,0-.54.31,2.14,2.14,0,0,0-.41.46,2.81,2.81,0,0,0-.29.58,3.51,3.51,0,0,0-.17.65A4.26,4.26,0,0,0,221.56,156.72Z"/><path class="cls-6" d="M238.24,150.92V160h-.74v-1.25h0a2,2,0,0,1-.39.59,2.58,2.58,0,0,1-.56.46,2.8,2.8,0,0,1-.67.29,2.63,2.63,0,0,1-.72.1,2.8,2.8,0,0,1-1.28-.28,2.68,2.68,0,0,1-.92-.75,3.32,3.32,0,0,1-.56-1.11,4.68,4.68,0,0,1-.19-1.34,4.83,4.83,0,0,1,.17-1.29,3.31,3.31,0,0,1,.53-1.11,2.68,2.68,0,0,1,.92-.78,3,3,0,0,1,2-.2,2.56,2.56,0,0,1,.65.27,2.26,2.26,0,0,1,.54.45,2.07,2.07,0,0,1,.38.63h0v-3.77Zm-5.26,5.8a4.17,4.17,0,0,0,.05.65,3.7,3.7,0,0,0,.16.64,2.81,2.81,0,0,0,.28.58,2.15,2.15,0,0,0,.41.48,1.8,1.8,0,0,0,.55.32,2,2,0,0,0,.7.12,2.07,2.07,0,0,0,1.73-.84,2.66,2.66,0,0,0,.43-.89,4,4,0,0,0,.14-1.06,4,4,0,0,0-.13-1,2.73,2.73,0,0,0-.41-.9,2.06,2.06,0,0,0-1.76-.87,1.94,1.94,0,0,0-.68.11,1.8,1.8,0,0,0-.54.31,2.14,2.14,0,0,0-.41.46,2.81,2.81,0,0,0-.29.58,3.51,3.51,0,0,0-.17.65A4.26,4.26,0,0,0,233,156.72Z"/><path class="cls-6" d="M246.26,156.72a4.29,4.29,0,0,1-.2,1.31,3.31,3.31,0,0,1-.61,1.13,2.9,2.9,0,0,1-2.29,1,2.84,2.84,0,0,1-2.24-1,4.07,4.07,0,0,1,0-5,3.08,3.08,0,0,1,4.51,0A3.65,3.65,0,0,1,246.26,156.72Zm-.8,0a3.8,3.8,0,0,0-.13-1,2.82,2.82,0,0,0-.42-.9,2.24,2.24,0,0,0-.72-.65,2,2,0,0,0-1-.25,2,2,0,0,0-1,.24,2.24,2.24,0,0,0-.72.63,2.86,2.86,0,0,0-.44.9,3.66,3.66,0,0,0-.15,1,3.58,3.58,0,0,0,.14,1,3,3,0,0,0,.43.9,2.24,2.24,0,0,0,.71.65,2,2,0,0,0,1,.25,2,2,0,0,0,1-.24,2.34,2.34,0,0,0,.72-.63,2.8,2.8,0,0,0,.45-.89A3.54,3.54,0,0,0,245.46,156.72Z"/><path class="cls-6" d="M251,153.25a3.35,3.35,0,0,1,1.08.15,1.83,1.83,0,0,1,.74.46,1.87,1.87,0,0,1,.43.77,3.79,3.79,0,0,1,.14,1.08V160h-.8v-4.15a2.2,2.2,0,0,0-.41-1.45,1.54,1.54,0,0,0-1.25-.49,2.07,2.07,0,0,0-.86.17,1.88,1.88,0,0,0-.65.48,2.15,2.15,0,0,0-.41.71,2.64,2.64,0,0,0-.14.88V160H248v-6.56h.8v1.14h0a2,2,0,0,1,.35-.56,2.18,2.18,0,0,1,.49-.42,2.33,2.33,0,0,1,.6-.26A2.48,2.48,0,0,1,251,153.25Z"/><path class="cls-6" d="M256.5,151.43v2.91h-.76v-2.91Z"/><path class="cls-6" d="M261.52,160.06h-.66a3,3,0,0,1-.68-.06,1,1,0,0,1-.45-.23.89.89,0,0,1-.25-.43,2.65,2.65,0,0,1-.07-.68v-4.56H258.1v-.67h1.32v-2h.8v2h1.5v.67h-1.5v4.48a1.75,1.75,0,0,0,0,.34.64.64,0,0,0,.11.26.5.5,0,0,0,.21.16.87.87,0,0,0,.35.06h.6l.21,0V160Z"/><path class="cls-6" d="M18.86,176v-4.46a1.73,1.73,0,0,0-.37-1.22,1.55,1.55,0,0,0-1.17-.39,1.56,1.56,0,0,0-1.33.6,2.8,2.8,0,0,0-.45,1.71V176h-.81V171.5a1.81,1.81,0,0,0-.34-1.17,1.25,1.25,0,0,0-1-.42,1.72,1.72,0,0,0-1.46.65,2.72,2.72,0,0,0-.5,1.71V176h-.8v-6.56h.74v1.1h0a2.26,2.26,0,0,1,2.15-1.29,2.44,2.44,0,0,1,.64.08,1.86,1.86,0,0,1,.54.24,1.66,1.66,0,0,1,.42.4,1.87,1.87,0,0,1,.28.55,2.16,2.16,0,0,1,.85-1,2.4,2.4,0,0,1,1.24-.32,2.12,2.12,0,0,1,1.63.58,2.36,2.36,0,0,1,.54,1.66V176Z"/><path class="cls-6" d="M27.52,175.95l-.27,0H27a1.37,1.37,0,0,1-.44-.06.65.65,0,0,1-.29-.2.82.82,0,0,1-.16-.36,2.42,2.42,0,0,1,0-.53h0a3,3,0,0,1-1,1,2.79,2.79,0,0,1-1.35.29,2.46,2.46,0,0,1-1.6-.5,1.75,1.75,0,0,1-.6-1.43,1.66,1.66,0,0,1,.66-1.43,6.79,6.79,0,0,1,3-.69,2,2,0,0,0,.44-.08.75.75,0,0,0,.29-.16.59.59,0,0,0,.16-.26,1.28,1.28,0,0,0,0-.38,1.25,1.25,0,0,0-.4-1,2,2,0,0,0-1.31-.34,2.61,2.61,0,0,0-.72.09,1.65,1.65,0,0,0-.53.25,1.13,1.13,0,0,0-.33.39,1.23,1.23,0,0,0-.13.49h-.8a2,2,0,0,1,.22-.78,1.77,1.77,0,0,1,.51-.59,2.43,2.43,0,0,1,.81-.38,4,4,0,0,1,1.09-.13,2.64,2.64,0,0,1,1.83.54,2,2,0,0,1,.59,1.52v3.56a.47.47,0,0,0,.11.33.46.46,0,0,0,.36.12.7.7,0,0,0,.25,0ZM26,172.4h0q-.12.22-.77.31l-.67.1-.74.12a2.67,2.67,0,0,0-1.17.44,1,1,0,0,0-.39.84,1.16,1.16,0,0,0,.43.94,1.6,1.6,0,0,0,1,.35,2.36,2.36,0,0,0,1.63-.58,1.85,1.85,0,0,0,.65-1.44Z"/><path class="cls-6" d="M31.6,176.05h-.66a3,3,0,0,1-.68-.06,1,1,0,0,1-.45-.23.89.89,0,0,1-.25-.43,2.65,2.65,0,0,1-.07-.68v-4.56H28.17v-.67h1.32v-2h.8v2h1.5v.67h-1.5v4.48a1.75,1.75,0,0,0,0,.34.64.64,0,0,0,.11.26.5.5,0,0,0,.21.16.87.87,0,0,0,.35.06h.6l.21,0V176Z"/><path class="cls-6" d="M36.27,169.24a3.46,3.46,0,0,1,1,.13,2.53,2.53,0,0,1,.78.38,2,2,0,0,1,.56.61,2.31,2.31,0,0,1,.29.82h-.8a1.73,1.73,0,0,0-.22-.52,1.5,1.5,0,0,0-.37-.4,1.7,1.7,0,0,0-.53-.26,2.35,2.35,0,0,0-.68-.09,2,2,0,0,0-1,.23,2.19,2.19,0,0,0-.72.63,2.91,2.91,0,0,0-.44.9,3.58,3.58,0,0,0-.15,1,3.67,3.67,0,0,0,.14,1,2.88,2.88,0,0,0,.42.9,2.26,2.26,0,0,0,.71.65,2,2,0,0,0,1,.25,1.93,1.93,0,0,0,.71-.13,1.88,1.88,0,0,0,.56-.34,1.8,1.8,0,0,0,.39-.49,1.87,1.87,0,0,0,.21-.58h.8a3,3,0,0,1-.29.85,2.49,2.49,0,0,1-.55.7,2.54,2.54,0,0,1-.8.48,2.88,2.88,0,0,1-1,.18,3,3,0,0,1-1.29-.27,2.85,2.85,0,0,1-1-.74,3.28,3.28,0,0,1-.61-1.1,4.47,4.47,0,0,1,0-2.67A3.31,3.31,0,0,1,34,170.3a2.9,2.9,0,0,1,1-.77A3,3,0,0,1,36.27,169.24Z"/><path class="cls-6" d="M45.22,176v-4.15a2.2,2.2,0,0,0-.41-1.45,1.54,1.54,0,0,0-1.25-.49,2,2,0,0,0-.87.18,1.91,1.91,0,0,0-.65.48,2.14,2.14,0,0,0-.4.71,2.66,2.66,0,0,0-.14.87V176h-.8v-9.08h.8v3.66h0a1.89,1.89,0,0,1,.34-.56,2.12,2.12,0,0,1,.5-.42,2.43,2.43,0,0,1,.61-.26,2.46,2.46,0,0,1,.67-.09,3.35,3.35,0,0,1,1.08.15,1.83,1.83,0,0,1,.74.46,1.87,1.87,0,0,1,.43.77,3.79,3.79,0,0,1,.14,1.08V176Z"/><path class="cls-6" d="M49.5,174.72V176H48.39v-1.27Z"/><rect class="cls-7" x="214.5" y="189" width="94" height="35"/><rect class="cls-8" x="214.5" y="189" width="94" height="35"/><path class="cls-9" d="M248,207.86a2.31,2.31,0,0,1-.3,1.2,2.44,2.44,0,0,1-.8.82,3.67,3.67,0,0,1-1.16.47,6.23,6.23,0,0,1-1.38.15,5.46,5.46,0,0,1-1.41-.17,3.52,3.52,0,0,1-1.13-.51A2.52,2.52,0,0,1,241,209a2.32,2.32,0,0,1-.28-1.15v-.1h1.51v.05a1.31,1.31,0,0,0,.17.67,1.42,1.42,0,0,0,.46.48,2.2,2.2,0,0,0,.69.29,3.84,3.84,0,0,0,1.63,0,2.16,2.16,0,0,0,.65-.25,1.32,1.32,0,0,0,.44-.41,1,1,0,0,0,.16-.58.92.92,0,0,0-.38-.76,3.4,3.4,0,0,0-1.2-.51l-1.89-.49a2.94,2.94,0,0,1-1.48-.78,2,2,0,0,1-.48-1.39,2.2,2.2,0,0,1,.27-1.09,2.38,2.38,0,0,1,.72-.79,3.36,3.36,0,0,1,1.06-.48,5.09,5.09,0,0,1,2.5,0,3.37,3.37,0,0,1,1,.46,2.34,2.34,0,0,1,.73.77,2.2,2.2,0,0,1,.29,1.09h-1.5a1.23,1.23,0,0,0-.16-.52,1.28,1.28,0,0,0-.38-.4,1.88,1.88,0,0,0-.56-.26,2.64,2.64,0,0,0-.73-.09,3.09,3.09,0,0,0-.68.07,1.82,1.82,0,0,0-.57.23,1.17,1.17,0,0,0-.39.38,1,1,0,0,0-.14.55,1,1,0,0,0,.07.39.82.82,0,0,0,.21.28,1.12,1.12,0,0,0,.32.19,3.16,3.16,0,0,0,.42.13l2.08.53a3.84,3.84,0,0,1,1.75.87A2,2,0,0,1,248,207.86Z"/><path class="cls-9" d="M250.92,200.87v1.42h-1.49v-1.42Zm0,2.86v6.57h-1.49v-6.57Z"/><path class="cls-9" d="M255.59,203.55a2.47,2.47,0,0,1,1.24.29,2.15,2.15,0,0,1,.83.85h0v-1h1.43v6.17a3.34,3.34,0,0,1-.24,1.31,2.4,2.4,0,0,1-.67.92,2.81,2.81,0,0,1-1.06.54,5.09,5.09,0,0,1-1.39.18,4.71,4.71,0,0,1-1-.11,3.05,3.05,0,0,1-.89-.33,2.16,2.16,0,0,1-.67-.59,1.72,1.72,0,0,1-.32-.86h1.48a1,1,0,0,0,.5.66,2.1,2.1,0,0,0,1,.22,1.72,1.72,0,0,0,1.32-.49,2,2,0,0,0,.46-1.4v-1h0a2,2,0,0,1-.84.84,2.6,2.6,0,0,1-1.26.3,3.08,3.08,0,0,1-1.3-.25,2.52,2.52,0,0,1-.91-.69,2.93,2.93,0,0,1-.54-1,4.58,4.58,0,0,1-.18-1.3,4,4,0,0,1,.19-1.22,3.06,3.06,0,0,1,.56-1,2.73,2.73,0,0,1,.93-.72A2.91,2.91,0,0,1,255.59,203.55Zm-1.47,3.25a3.32,3.32,0,0,0,.11.87,1.93,1.93,0,0,0,.33.68,1.52,1.52,0,0,0,.55.44,1.74,1.74,0,0,0,.76.16,1.67,1.67,0,0,0,.77-.17,1.74,1.74,0,0,0,.57-.46,2,2,0,0,0,.35-.66,2.53,2.53,0,0,0,.12-.78,3.43,3.43,0,0,0-.11-.88,2,2,0,0,0-.33-.71,1.56,1.56,0,0,0-.56-.47,1.77,1.77,0,0,0-.8-.17,1.65,1.65,0,0,0-.8.18,1.56,1.56,0,0,0-.54.48,2.12,2.12,0,0,0-.31.69A3.1,3.1,0,0,0,254.13,206.8Z"/><path class="cls-9" d="M264.71,203.55a3.43,3.43,0,0,1,1.13.16,1.87,1.87,0,0,1,.77.49,1.93,1.93,0,0,1,.43.8,4.16,4.16,0,0,1,.14,1.12v4.17h-1.48v-3.9a2.06,2.06,0,0,0-.33-1.27,1.24,1.24,0,0,0-1.06-.43,1.54,1.54,0,0,0-1.27.52,2.24,2.24,0,0,0-.42,1.45v3.63h-1.48v-6.57h1.42v1h0a2.16,2.16,0,0,1,.38-.5,2.33,2.33,0,0,1,.5-.37,2.45,2.45,0,0,1,.58-.23A2.65,2.65,0,0,1,264.71,203.55Z"/><path class="cls-9" d="M274.27,200.87v1.42h-1.49v-1.42Zm0,2.86v6.57h-1.49v-6.57Z"/><path class="cls-9" d="M279.84,203.55a3.43,3.43,0,0,1,1.13.16,1.87,1.87,0,0,1,.77.49,1.93,1.93,0,0,1,.43.8,4.16,4.16,0,0,1,.14,1.12v4.17h-1.48v-3.9a2.06,2.06,0,0,0-.33-1.27,1.24,1.24,0,0,0-1.06-.43,1.54,1.54,0,0,0-1.27.52,2.24,2.24,0,0,0-.42,1.45v3.63h-1.48v-6.57h1.42v1h0a2.16,2.16,0,0,1,.38-.5,2.33,2.33,0,0,1,.5-.37,2.45,2.45,0,0,1,.58-.23A2.65,2.65,0,0,1,279.84,203.55Z"/><path class="cls-7" d="M139.8,201.55a4.77,4.77,0,0,1,1.35.18,3.6,3.6,0,0,1,1.1.53,3,3,0,0,1,.79.85,3.14,3.14,0,0,1,.42,1.13H142a1.87,1.87,0,0,0-.27-.56,1.82,1.82,0,0,0-.46-.45,2.29,2.29,0,0,0-.64-.31,2.68,2.68,0,0,0-.8-.11,2.63,2.63,0,0,0-1.22.27,2.53,2.53,0,0,0-.86.71,3.08,3.08,0,0,0-.51,1A4.39,4.39,0,0,0,137,206a4.29,4.29,0,0,0,.16,1.17,3,3,0,0,0,.5,1,2.56,2.56,0,0,0,.86.72,2.62,2.62,0,0,0,1.24.28,2.5,2.5,0,0,0,.87-.14,2.1,2.1,0,0,0,.68-.4,2.06,2.06,0,0,0,.47-.61,2.65,2.65,0,0,0,.25-.78h1.5a4.14,4.14,0,0,1-.36,1.26,3.26,3.26,0,0,1-.75,1,3.38,3.38,0,0,1-1.13.68,4.37,4.37,0,0,1-1.53.25,4.48,4.48,0,0,1-1.77-.34,4,4,0,0,1-1.35-.93,4.1,4.1,0,0,1-.86-1.41,5.07,5.07,0,0,1-.3-1.78,5.2,5.2,0,0,1,.28-1.72,4.26,4.26,0,0,1,.83-1.43,3.93,3.93,0,0,1,1.35-1A4.42,4.42,0,0,1,139.8,201.55Z"/><path class="cls-7" d="M151.4,210.3l-.45.09-.4,0a1.89,1.89,0,0,1-.43,0,.94.94,0,0,1-.35-.16.84.84,0,0,1-.25-.29,1.25,1.25,0,0,1-.13-.45h0a2.69,2.69,0,0,1-.47.46,2.42,2.42,0,0,1-.54.31,3.51,3.51,0,0,1-1.35.24,2.54,2.54,0,0,1-1.66-.51,1.74,1.74,0,0,1-.62-1.45,1.68,1.68,0,0,1,.62-1.42,2.2,2.2,0,0,1,.6-.32,4.94,4.94,0,0,1,.75-.2c.27-.05.55-.09.85-.13l.9-.1.35-.07a.83.83,0,0,0,.27-.13.59.59,0,0,0,.18-.22.77.77,0,0,0,.06-.33,1,1,0,0,0-.32-.79,2.24,2.24,0,0,0-2.11,0,1,1,0,0,0-.4.73H145a1.91,1.91,0,0,1,.94-1.52,3,3,0,0,1,.93-.36,5.37,5.37,0,0,1,1.16-.12,3.6,3.6,0,0,1,2.1.5,1.63,1.63,0,0,1,.69,1.41V209a.46.46,0,0,0,.08.3.35.35,0,0,0,.28.1h.12l.13,0ZM149.3,207h0a1,1,0,0,1-.56.23l-.5.08-.67.11a2.32,2.32,0,0,0-1,.37.86.86,0,0,0-.33.72.88.88,0,0,0,.38.76,1.55,1.55,0,0,0,.9.24,1.88,1.88,0,0,0,1.3-.43,1.57,1.57,0,0,0,.51-1.24Z"/><path class="cls-7" d="M156.37,203.55a3.43,3.43,0,0,1,1.13.16,1.87,1.87,0,0,1,.77.49,1.93,1.93,0,0,1,.43.8,4.16,4.16,0,0,1,.14,1.12v4.17h-1.48v-3.9a2.06,2.06,0,0,0-.33-1.27,1.24,1.24,0,0,0-1.06-.43,1.54,1.54,0,0,0-1.27.52,2.24,2.24,0,0,0-.42,1.45v3.63H152.8v-6.57h1.42v1h0a2.16,2.16,0,0,1,.38-.5,2.33,2.33,0,0,1,.5-.37,2.45,2.45,0,0,1,.58-.23A2.65,2.65,0,0,1,156.37,203.55Z"/><path class="cls-7" d="M163.87,203.55a4.32,4.32,0,0,1,1.09.13,2.94,2.94,0,0,1,.92.41,2.31,2.31,0,0,1,.66.68,2.25,2.25,0,0,1,.32.95H165.4a1.21,1.21,0,0,0-.49-.78,1.78,1.78,0,0,0-1-.27,1.62,1.62,0,0,0-.84.21,1.83,1.83,0,0,0-.58.54,2.39,2.39,0,0,0-.34.76,3.33,3.33,0,0,0,0,1.67,2.39,2.39,0,0,0,.33.75,1.82,1.82,0,0,0,.57.55,1.59,1.59,0,0,0,.84.21,1.92,1.92,0,0,0,.62-.09,1.54,1.54,0,0,0,.49-.26,1.42,1.42,0,0,0,.34-.41,1.73,1.73,0,0,0,.19-.52h1.44a3,3,0,0,1-.34,1,2.61,2.61,0,0,1-.64.76,2.88,2.88,0,0,1-.91.49,3.69,3.69,0,0,1-1.18.18,3.51,3.51,0,0,1-1.36-.26,3.11,3.11,0,0,1-1.06-.71,3.21,3.21,0,0,1-.68-1.08,3.72,3.72,0,0,1-.24-1.37,4.12,4.12,0,0,1,.22-1.36,3.28,3.28,0,0,1,.65-1.12,3,3,0,0,1,1.06-.76A3.52,3.52,0,0,1,163.87,203.55Z"/><path class="cls-7" d="M171.38,203.55a3.18,3.18,0,0,1,1.38.28,2.86,2.86,0,0,1,1,.77,3.31,3.31,0,0,1,.6,1.13,4.63,4.63,0,0,1,.2,1.37v.26h-5a2.67,2.67,0,0,0,.14.81,1.89,1.89,0,0,0,.36.63,1.59,1.59,0,0,0,.56.41,1.79,1.79,0,0,0,.74.15,2,2,0,0,0,1-.23,1.72,1.72,0,0,0,.63-.6h1.41a3,3,0,0,1-.46.81,2.91,2.91,0,0,1-.68.62,3.16,3.16,0,0,1-.87.39,3.86,3.86,0,0,1-1,.13,3.46,3.46,0,0,1-1.37-.26,2.9,2.9,0,0,1-1-.72,3.14,3.14,0,0,1-.64-1.1,4.17,4.17,0,0,1-.22-1.4,3.93,3.93,0,0,1,.22-1.33,3.25,3.25,0,0,1,.65-1.1,3.11,3.11,0,0,1,1-.76A3.33,3.33,0,0,1,171.38,203.55Zm1.68,2.85a2.66,2.66,0,0,0-.17-.71,1.69,1.69,0,0,0-.34-.55,1.47,1.47,0,0,0-.52-.36,2,2,0,0,0-1.41,0,1.56,1.56,0,0,0-.53.36,1.79,1.79,0,0,0-.36.55,2.48,2.48,0,0,0-.18.7Z"/><path class="cls-7" d="M177.64,201.22v9.08h-1.49v-9.08Z"/><g class="cls-10"><g class="cls-11"><path class="cls-5" d="M28.68,121.93a2.54,2.54,0,0,1-.75,1.92,2.51,2.51,0,0,1-.88.54,3.33,3.33,0,0,1-1.13.18h-2.4v3.29H22v-8.57h3.9a2.79,2.79,0,0,1,2,.72A2.51,2.51,0,0,1,28.68,121.93Zm-1.46,0a1.36,1.36,0,0,0-.42-1.09,2,2,0,0,0-1.31-.36h-2v2.9h2a2.78,2.78,0,0,0,.72-.08,1.28,1.28,0,0,0,1-1.36Z"/><path class="cls-5" d="M35.9,127.85l-.44.09-.39,0a1.79,1.79,0,0,1-.42,0,.91.91,0,0,1-.34-.16.84.84,0,0,1-.24-.29,1.28,1.28,0,0,1-.12-.45h0a2.67,2.67,0,0,1-.45.46,2.3,2.3,0,0,1-.52.31,3.32,3.32,0,0,1-1.31.24,2.42,2.42,0,0,1-1.62-.51,1.77,1.77,0,0,1-.6-1.45,1.7,1.7,0,0,1,.6-1.42,2.11,2.11,0,0,1,.58-.32,4.68,4.68,0,0,1,.73-.2q.39-.08.82-.13l.87-.1.34-.07a.8.8,0,0,0,.27-.13.59.59,0,0,0,.17-.22.79.79,0,0,0,.06-.33,1,1,0,0,0-.31-.79,2.11,2.11,0,0,0-2.05,0,1,1,0,0,0-.39.73H29.65a2,2,0,0,1,.28-.9,2,2,0,0,1,.62-.62,2.88,2.88,0,0,1,.9-.36,5.08,5.08,0,0,1,1.13-.12,3.42,3.42,0,0,1,2,.5A1.65,1.65,0,0,1,35.3,123v3.54a.47.47,0,0,0,.08.3.33.33,0,0,0,.27.1h.12l.13,0Zm-2-3.35h0a1,1,0,0,1-.54.23l-.48.08-.65.11a2.2,2.2,0,0,0-1,.37.87.87,0,0,0-.32.72.89.89,0,0,0,.37.76,1.48,1.48,0,0,0,.87.24,1.79,1.79,0,0,0,1.27-.43,1.59,1.59,0,0,0,.49-1.24Z"/><path class="cls-5" d="M42.69,125.87a2,2,0,0,1-.23,1,2,2,0,0,1-.61.68,2.7,2.7,0,0,1-.91.39,4.79,4.79,0,0,1-1.12.13,4.56,4.56,0,0,1-1.08-.12,2.74,2.74,0,0,1-.89-.38,2.14,2.14,0,0,1-.63-.65,2.2,2.2,0,0,1-.3-.94H38.3a1.15,1.15,0,0,0,.51.8,1.51,1.51,0,0,0,.46.2,2.2,2.2,0,0,0,.56.07,2.4,2.4,0,0,0,.53-.06,1.46,1.46,0,0,0,.45-.18,1,1,0,0,0,.32-.31.78.78,0,0,0,.12-.44.61.61,0,0,0-.1-.35.9.9,0,0,0-.27-.26,1.81,1.81,0,0,0-.4-.18l-.47-.13-.93-.22a6,6,0,0,1-.91-.28,2.37,2.37,0,0,1-.63-.37,1.33,1.33,0,0,1-.37-.49,1.57,1.57,0,0,1-.12-.63,1.77,1.77,0,0,1,.21-.89,1.84,1.84,0,0,1,.58-.63,2.69,2.69,0,0,1,.87-.37,4.46,4.46,0,0,1,1.07-.12,3.88,3.88,0,0,1,1.06.13,2.61,2.61,0,0,1,.82.38,1.9,1.9,0,0,1,.54.59,2,2,0,0,1,.25.77H41.07a1,1,0,0,0-.45-.65,1.65,1.65,0,0,0-.91-.23,2.3,2.3,0,0,0-.47,0,1.27,1.27,0,0,0-.39.14.77.77,0,0,0-.26.25.65.65,0,0,0-.1.36.6.6,0,0,0,.1.35.91.91,0,0,0,.26.25,1.47,1.47,0,0,0,.35.16l.37.1,1.38.33a4.37,4.37,0,0,1,.68.22,2,2,0,0,1,.54.34,1.47,1.47,0,0,1,.37.5A1.84,1.84,0,0,1,42.69,125.87Z"/><path class="cls-5" d="M49.63,125.87a2,2,0,0,1-.23,1,2,2,0,0,1-.61.68,2.7,2.7,0,0,1-.91.39,4.79,4.79,0,0,1-1.12.13,4.56,4.56,0,0,1-1.08-.12,2.74,2.74,0,0,1-.89-.38,2.14,2.14,0,0,1-.63-.65,2.2,2.2,0,0,1-.3-.94h1.39a1.15,1.15,0,0,0,.51.8,1.51,1.51,0,0,0,.46.2,2.2,2.2,0,0,0,.56.07,2.4,2.4,0,0,0,.53-.06,1.46,1.46,0,0,0,.45-.18,1,1,0,0,0,.32-.31.78.78,0,0,0,.12-.44.61.61,0,0,0-.1-.35.9.9,0,0,0-.27-.26,1.81,1.81,0,0,0-.4-.18l-.47-.13-.93-.22a6,6,0,0,1-.91-.28,2.37,2.37,0,0,1-.63-.37,1.33,1.33,0,0,1-.37-.49,1.57,1.57,0,0,1-.12-.63,1.77,1.77,0,0,1,.21-.89,1.84,1.84,0,0,1,.58-.63,2.69,2.69,0,0,1,.87-.37,4.46,4.46,0,0,1,1.07-.12,3.88,3.88,0,0,1,1.06.13,2.61,2.61,0,0,1,.82.38,1.9,1.9,0,0,1,.54.59,2,2,0,0,1,.25.77H48a1,1,0,0,0-.45-.65,1.65,1.65,0,0,0-.91-.23,2.3,2.3,0,0,0-.47,0,1.27,1.27,0,0,0-.39.14.77.77,0,0,0-.26.25.65.65,0,0,0-.1.36.6.6,0,0,0,.1.35.91.91,0,0,0,.26.25,1.47,1.47,0,0,0,.35.16l.37.1,1.38.33a4.37,4.37,0,0,1,.68.22,2,2,0,0,1,.54.34,1.47,1.47,0,0,1,.37.5A1.84,1.84,0,0,1,49.63,125.87Z"/><path class="cls-5" d="M52,121.28l1.38,5h0l1.28-5h1.45l1.29,5h0l1.38-5h1.49l-2.09,6.57h-1.5l-1.33-4.93h0L54,127.85H52.52l-2.09-6.57Z"/><path class="cls-5" d="M67.77,124.57a4.09,4.09,0,0,1-.23,1.38,3.1,3.1,0,0,1-.68,1.11,3,3,0,0,1-1,.73,3.49,3.49,0,0,1-1.36.25,3.12,3.12,0,0,1-2.38-1,3.94,3.94,0,0,1,0-5,3.1,3.1,0,0,1,2.39-1,3.15,3.15,0,0,1,2.4,1A3.54,3.54,0,0,1,67.77,124.57Zm-1.45,0a3.59,3.59,0,0,0-.11-.92,2.21,2.21,0,0,0-.35-.75,1.68,1.68,0,0,0-.58-.5,1.75,1.75,0,0,0-.83-.18,1.71,1.71,0,0,0-.77.17,1.62,1.62,0,0,0-.57.48,2.23,2.23,0,0,0-.36.74,3.79,3.79,0,0,0,0,1.9,2.19,2.19,0,0,0,.35.74,1.67,1.67,0,0,0,.58.49,1.7,1.7,0,0,0,.79.18,1.72,1.72,0,0,0,.79-.18,1.68,1.68,0,0,0,.58-.49,2.24,2.24,0,0,0,.36-.74A3.41,3.41,0,0,0,66.32,124.57Z"/><path class="cls-5" d="M69.38,127.85v-6.57h1.37v1.34h0a2.4,2.4,0,0,1,.87-1.08,2.23,2.23,0,0,1,1.29-.39h.21l.2,0v1.36l-.25,0h-.28a1.84,1.84,0,0,0-1.48.6,2.36,2.36,0,0,0-.51,1.57v3.18Z"/><path class="cls-5" d="M80.5,118.77v9.08H79.13v-1h0a2.07,2.07,0,0,1-.37.5,2.16,2.16,0,0,1-.49.37,2.44,2.44,0,0,1-.59.23A2.79,2.79,0,0,1,77,128a2.72,2.72,0,0,1-1.28-.29,2.76,2.76,0,0,1-.92-.77,3.38,3.38,0,0,1-.56-1.12,4.69,4.69,0,0,1-.19-1.33,4.52,4.52,0,0,1,.18-1.26,3.34,3.34,0,0,1,.54-1.1,2.75,2.75,0,0,1,.91-.77,2.91,2.91,0,0,1,1.92-.22,2.49,2.49,0,0,1,.58.21,2.07,2.07,0,0,1,.49.35,2,2,0,0,1,.37.5h0v-3.47Zm-5,5.79a3.63,3.63,0,0,0,.1.82,2.44,2.44,0,0,0,.31.76,1.81,1.81,0,0,0,.56.56,1.5,1.5,0,0,0,.83.22,1.73,1.73,0,0,0,.79-.17,1.58,1.58,0,0,0,.57-.49,2.25,2.25,0,0,0,.35-.75,3.68,3.68,0,0,0,.12-1,3.73,3.73,0,0,0-.1-.84,2.3,2.3,0,0,0-.31-.75,1.72,1.72,0,0,0-.57-.54,1.64,1.64,0,0,0-.85-.21,1.56,1.56,0,0,0-.82.2,1.7,1.7,0,0,0-.55.53,2.35,2.35,0,0,0-.32.75A3.93,3.93,0,0,0,75.47,124.56Z"/></g></g><line class="cls-12" x1="214" y1="224" x2="309" y2="224"/><line class="cls-13" x1="10" y1="140.5" x2="308" y2="140.5"/></g></svg>