<?xml version="1.0" encoding="utf-8"?>
<!-- Generator: Adobe Illustrator 20.0.0, SVG Export Plug-In . SVG Version: 6.00 Build 0)  -->
<!DOCTYPE svg PUBLIC "-//W3C//DTD SVG 1.1//EN" "http://www.w3.org/Graphics/SVG/1.1/DTD/svg11.dtd">
<svg version="1.1" id="Layer_1" xmlns="http://www.w3.org/2000/svg" xmlns:xlink="http://www.w3.org/1999/xlink" x="0px" y="0px"
	 viewBox="0 0 314 261" style="enable-background:new 0 0 314 261;" xml:space="preserve">
<style type="text/css">
	.st0{fill:#6D6E70;}
	.st1{fill:none;stroke:#B2B2B2;stroke-miterlimit:10;}
	.st2{fill:none;stroke:#E5E5E5;stroke-miterlimit:10;}
	.st3{fill:#389AEA;}
	.st4{fill:#17486E;}
	.st5{fill:#BEDEF6;}
</style>
<title>Artboard 70</title>
<g id="Layer_1_1_">
	<path class="st0" d="M248.7,54.1v3.3h-0.8v-3.3h-3.5v-0.8h3.5V50h0.8v3.3h3.5v0.8H248.7z"/>
	<path class="st0" d="M265.3,46.9v0.9h-4.9l-0.7,3.4l0,0c0.3-0.3,0.7-0.5,1.1-0.6c0.4-0.1,0.8-0.2,1.3-0.2c0.5,0,1.1,0.1,1.5,0.3
		c0.9,0.3,1.6,1,2,1.9c0.2,0.5,0.3,1,0.3,1.5c0,0.5-0.1,1-0.3,1.4c-0.2,0.4-0.5,0.8-0.8,1.1c-0.4,0.3-0.8,0.6-1.2,0.8
		c-0.5,0.2-1,0.3-1.5,0.3c-0.5,0-1-0.1-1.4-0.2c-0.4-0.1-0.8-0.3-1.1-0.6c-0.3-0.2-0.6-0.6-0.7-0.9c-0.2-0.4-0.3-0.8-0.3-1.2h1
		c0,0.3,0.1,0.5,0.2,0.8c0.1,0.3,0.3,0.5,0.5,0.7c0.2,0.2,0.5,0.4,0.8,0.5c0.3,0.1,0.7,0.2,1.1,0.2c0.8,0,1.5-0.3,2-0.8
		c0.5-0.6,0.8-1.3,0.8-2.1c0-0.4-0.1-0.7-0.2-1.1c-0.1-0.3-0.3-0.6-0.6-0.9c-0.3-0.3-0.6-0.5-0.9-0.6c-0.4-0.2-0.8-0.2-1.2-0.2
		c-0.5,0-0.9,0.1-1.4,0.3c-0.4,0.2-0.8,0.5-1.1,0.8h-0.9l1-5.4L265.3,46.9z"/>
	<path class="st0" d="M270,55.8v1.6h-1.4v-1.6H270z"/>
	<path class="st0" d="M280.2,54.4c0,0.9-0.4,1.8-1.1,2.3c-1.7,1.2-3.9,1.2-5.6,0c-0.7-0.6-1.1-1.4-1.1-2.3c0-1,0.5-1.9,1.3-2.4
		c0.3-0.2,0.6-0.3,0.9-0.4l0,0c-0.5-0.1-1-0.5-1.4-0.9c-0.3-0.4-0.5-0.9-0.5-1.4c0-0.8,0.4-1.5,1-1.9c0.7-0.5,1.5-0.8,2.4-0.7
		c0.9,0,1.7,0.2,2.4,0.7c0.6,0.4,1,1.2,1,1.9c0,0.3,0,0.5-0.1,0.8c-0.1,0.2-0.2,0.5-0.4,0.7c-0.2,0.2-0.4,0.4-0.6,0.5
		c-0.2,0.2-0.5,0.3-0.8,0.3l0,0c0.7,0.1,1.3,0.4,1.7,0.9C280.1,53.2,280.2,53.8,280.2,54.4z M279.2,54.4c0-0.6-0.3-1.3-0.8-1.7
		c-1.3-0.9-2.9-0.9-4.2,0c-0.5,0.4-0.8,1-0.7,1.7c0,0.7,0.3,1.3,0.8,1.8c1.2,0.9,2.9,0.9,4.1,0C279,55.8,279.3,55.1,279.2,54.4
		L279.2,54.4z M278.8,49.3c0-0.5-0.2-1-0.7-1.3c-1.1-0.7-2.4-0.7-3.5,0c-0.4,0.3-0.7,0.8-0.7,1.3c0,0.6,0.2,1.1,0.6,1.4
		c0.5,0.4,1.1,0.6,1.7,0.5c0.7,0,1.3-0.1,1.8-0.6C278.6,50.4,278.8,49.9,278.8,49.3L278.8,49.3z"/>
	<path class="st0" d="M288.9,46.9v0.9H284l-0.7,3.4l0,0c0.3-0.3,0.7-0.5,1.1-0.6c0.4-0.1,0.8-0.2,1.3-0.2c0.5,0,1.1,0.1,1.5,0.3
		c0.9,0.3,1.6,1,2,1.9c0.2,0.5,0.3,1,0.3,1.5c0,0.5-0.1,1-0.3,1.4c-0.2,0.4-0.5,0.8-0.8,1.1c-0.4,0.3-0.8,0.6-1.2,0.8
		c-0.5,0.2-1,0.3-1.5,0.3c-0.5,0-1-0.1-1.4-0.2c-0.4-0.1-0.8-0.3-1.1-0.6c-0.3-0.2-0.6-0.6-0.7-0.9c-0.2-0.4-0.3-0.8-0.3-1.2h1
		c0,0.3,0.1,0.5,0.2,0.8c0.1,0.3,0.3,0.5,0.5,0.7c0.2,0.2,0.5,0.4,0.8,0.5c0.3,0.1,0.7,0.2,1.1,0.2c0.8,0,1.5-0.3,2-0.8
		c0.5-0.6,0.8-1.3,0.8-2.1c0-0.4-0.1-0.7-0.2-1.1c-0.1-0.3-0.3-0.6-0.6-0.9c-0.3-0.3-0.6-0.5-0.9-0.6c-0.4-0.2-0.8-0.2-1.2-0.2
		c-0.5,0-0.9,0.1-1.4,0.3c-0.4,0.2-0.8,0.5-1.1,0.8h-0.9l1-5.4L288.9,46.9z"/>
	<line class="st1" x1="155.5" y1="246" x2="155.5" y2="14"/>
	<line class="st1" x1="281" y1="241.5" x2="30" y2="241.5"/>
	<line class="st2" x1="281" y1="117.5" x2="96" y2="117.5"/>
	<line class="st2" x1="281" y1="181.5" x2="64" y2="181.5"/>
	<line class="st2" x1="235" y1="55.5" x2="29" y2="55.5"/>
	<rect x="155" y="33" class="st3" width="75" height="45"/>
	<rect x="101" y="96" class="st4" width="54" height="46"/>
	<rect x="69" y="159" class="st5" width="86" height="46"/>
	<path class="st0" d="M293.6,46.6c0,0.2,0,0.4-0.1,0.6c0,0.2-0.1,0.3-0.2,0.5c-0.1,0.1-0.2,0.2-0.4,0.3c-0.2,0.1-0.3,0.1-0.5,0.1
		c-0.3,0-0.7-0.1-0.9-0.4c-0.4-0.7-0.4-1.5,0-2.2c0.2-0.3,0.6-0.4,0.9-0.4c0.2,0,0.4,0,0.5,0.1c0.1,0.1,0.3,0.2,0.4,0.3
		c0.1,0.1,0.2,0.3,0.2,0.5C293.5,46.2,293.6,46.4,293.6,46.6z M293.2,46.6c0-0.1,0-0.3,0-0.4c0-0.1-0.1-0.2-0.1-0.4
		c-0.1-0.1-0.1-0.2-0.2-0.3c-0.3-0.2-0.8-0.1-1,0.2c-0.3,0.5-0.3,1.1,0,1.7c0.1,0.2,0.4,0.3,0.6,0.3c0.1,0,0.3,0,0.4-0.1
		c0.1-0.1,0.2-0.1,0.2-0.2c0.1-0.1,0.1-0.2,0.1-0.3C293.2,46.9,293.2,46.8,293.2,46.6L293.2,46.6z M292.4,50.9H292l3.5-5.9h0.4
		L292.4,50.9z M297,49.3c0,0.2,0,0.4-0.1,0.6c0,0.2-0.1,0.3-0.2,0.5c-0.1,0.1-0.2,0.2-0.4,0.3c-0.2,0.1-0.3,0.1-0.5,0.1
		c-0.2,0-0.4,0-0.5-0.1c-0.2-0.1-0.3-0.2-0.4-0.3c-0.1-0.1-0.2-0.3-0.2-0.5c-0.1-0.4-0.1-0.8,0-1.2c0-0.2,0.1-0.3,0.2-0.5
		c0.1-0.1,0.2-0.2,0.4-0.3c0.3-0.1,0.7-0.1,1.1,0c0.1,0.1,0.3,0.2,0.4,0.3c0.1,0.1,0.2,0.3,0.2,0.5C297,48.9,297,49.1,297,49.3z
		 M296.6,49.3c0-0.1,0-0.3,0-0.4c0-0.1-0.1-0.2-0.1-0.4c-0.1-0.1-0.1-0.2-0.2-0.3c-0.1-0.1-0.3-0.1-0.4-0.1c-0.2,0-0.5,0.1-0.6,0.3
		c-0.2,0.2-0.2,0.5-0.2,0.8c0,0.3,0.1,0.6,0.2,0.8c0.2,0.3,0.7,0.4,1,0.2c0.1-0.1,0.2-0.1,0.2-0.2c0.1-0.1,0.1-0.2,0.1-0.3
		C296.6,49.5,296.6,49.4,296.6,49.3L296.6,49.3z"/>
	<path class="st0" d="M42.8,118v0.9h-3.9V118H42.8z"/>
	<path class="st0" d="M52.9,112c0.9,0,1.8,0.2,2.5,0.8c0.6,0.5,1,1.4,1,2.2c0,0.7-0.3,1.4-0.7,2c-0.7,0.8-1.6,1.5-2.6,2
		c-0.8,0.4-1.5,0.9-2.1,1.5c-0.4,0.3-0.6,0.8-0.7,1.2h6.2v0.9H49c0-0.8,0.3-1.5,0.7-2.1c0.7-0.8,1.5-1.5,2.5-2
		c0.9-0.5,1.7-1.1,2.4-1.8c0.4-0.5,0.7-1.1,0.7-1.7c0-0.6-0.2-1.2-0.7-1.6c-0.5-0.4-1.2-0.6-1.8-0.6c-0.4,0-0.8,0.1-1.1,0.2
		c-0.3,0.1-0.6,0.3-0.8,0.5c-0.2,0.2-0.4,0.5-0.5,0.8c-0.1,0.3-0.2,0.6-0.1,0.9v0.2h-1v-0.1c0-0.4,0.1-0.8,0.2-1.2
		c0.2-0.4,0.4-0.7,0.7-1c0.3-0.3,0.7-0.6,1.1-0.7C51.8,112.1,52.3,112,52.9,112z"/>
	<path class="st0" d="M60.7,121.2v1.6h-1.4v-1.6H60.7z"/>
	<path class="st0" d="M69.2,120.1v2.6h-0.9v-2.6h-5.2v-0.9l5.2-7.1h0.9v7.2h1.7v0.8L69.2,120.1z M68.3,113.5L68.3,113.5l-4.3,5.8
		h4.3L68.3,113.5z"/>
	<path class="st0" d="M76.5,112c0.9,0,1.8,0.2,2.5,0.8c0.6,0.5,1,1.4,1,2.2c0,0.7-0.3,1.4-0.7,2c-0.7,0.8-1.6,1.5-2.6,2
		c-0.8,0.4-1.5,0.9-2.1,1.5c-0.4,0.3-0.6,0.8-0.7,1.2H80v0.9h-7.4c0-0.8,0.3-1.5,0.7-2.1c0.7-0.8,1.5-1.5,2.5-2
		c0.9-0.5,1.7-1.1,2.4-1.8c0.4-0.5,0.7-1.1,0.7-1.7c0-0.6-0.2-1.2-0.7-1.6c-0.5-0.4-1.2-0.6-1.8-0.6c-0.4,0-0.8,0.1-1.1,0.2
		c-0.3,0.1-0.6,0.3-0.8,0.5c-0.2,0.2-0.4,0.5-0.5,0.8c-0.1,0.3-0.2,0.6-0.1,0.9v0.2h-1v-0.1c0-0.4,0.1-0.8,0.2-1.2
		c0.2-0.4,0.4-0.7,0.7-1c0.3-0.3,0.7-0.6,1.1-0.7C75.4,112.1,75.9,112,76.5,112z"/>
	<path class="st0" d="M84.3,112c0,0.2,0,0.4-0.1,0.6c0,0.2-0.1,0.3-0.2,0.5c-0.1,0.1-0.2,0.2-0.4,0.3c-0.2,0.1-0.3,0.1-0.5,0.1
		c-0.3,0-0.7-0.1-0.9-0.4c-0.4-0.7-0.4-1.5,0-2.2c0.2-0.3,0.6-0.4,0.9-0.4c0.2,0,0.4,0,0.5,0.1c0.1,0.1,0.3,0.2,0.4,0.3
		c0.1,0.1,0.2,0.3,0.2,0.5C84.3,111.6,84.4,111.8,84.3,112z M83.9,112c0-0.1,0-0.3,0-0.4c0-0.1-0.1-0.2-0.1-0.4
		c-0.1-0.1-0.1-0.2-0.2-0.3c-0.3-0.2-0.8-0.1-1,0.2c-0.3,0.5-0.3,1.1,0,1.6c0.2,0.3,0.7,0.4,1,0.2c0.1-0.1,0.2-0.1,0.2-0.2
		c0.1-0.1,0.1-0.2,0.1-0.4C84,112.3,84,112.1,83.9,112z M83.2,116.2h-0.4l3.5-5.9h0.4L83.2,116.2z M87.7,114.6c0,0.2,0,0.4-0.1,0.6
		c0,0.2-0.1,0.3-0.2,0.5c-0.1,0.1-0.2,0.2-0.4,0.3c-0.2,0.1-0.3,0.1-0.5,0.1c-0.2,0-0.3,0-0.5-0.1c-0.1-0.1-0.3-0.2-0.4-0.3
		c-0.1-0.1-0.2-0.3-0.2-0.5c-0.1-0.2-0.1-0.4-0.1-0.6c0-0.2,0-0.4,0.1-0.6c0-0.2,0.1-0.3,0.2-0.5c0.1-0.1,0.2-0.2,0.4-0.3
		c0.3-0.1,0.7-0.1,1.1,0c0.1,0.1,0.3,0.2,0.4,0.3c0.1,0.1,0.2,0.3,0.2,0.5C87.7,114.2,87.7,114.4,87.7,114.6L87.7,114.6z
		 M87.3,114.6c0-0.1,0-0.3,0-0.4c0-0.1-0.1-0.2-0.1-0.4c-0.1-0.1-0.1-0.2-0.2-0.3c-0.3-0.2-0.8-0.1-1,0.2c-0.2,0.2-0.2,0.5-0.2,0.8
		c0,0.3,0.1,0.6,0.2,0.8c0.1,0.2,0.4,0.3,0.6,0.3c0.1,0,0.3,0,0.4-0.1c0.1-0.1,0.2-0.1,0.2-0.2c0.1-0.1,0.1-0.2,0.1-0.4
		C87.3,114.9,87.3,114.8,87.3,114.6L87.3,114.6z"/>
	<path class="st0" d="M14.8,180.9v0.9h-3.9v-0.9H14.8z"/>
	<path class="st0" d="M28.1,175.1v0.9h-4.9l-0.7,3.4l0,0c0.3-0.3,0.7-0.5,1.1-0.6c0.4-0.1,0.8-0.2,1.3-0.2c0.5,0,1.1,0.1,1.5,0.3
		c0.4,0.2,0.9,0.4,1.2,0.8c0.3,0.3,0.6,0.7,0.8,1.2c0.2,0.5,0.3,1,0.3,1.5c0,0.5-0.1,1-0.3,1.4c-0.2,0.4-0.5,0.8-0.8,1.1
		c-0.4,0.3-0.8,0.6-1.2,0.8c-0.5,0.2-1,0.3-1.5,0.3c-0.5,0-1-0.1-1.4-0.2c-0.4-0.1-0.8-0.3-1.1-0.6c-0.3-0.2-0.6-0.6-0.7-0.9
		c-0.2-0.4-0.3-0.8-0.3-1.2h1c0,0.3,0.1,0.5,0.2,0.8c0.1,0.3,0.3,0.5,0.5,0.7c0.2,0.2,0.5,0.4,0.8,0.5c0.3,0.1,0.7,0.2,1.1,0.2
		c0.8,0,1.5-0.3,2-0.9c0.5-0.6,0.8-1.3,0.8-2.1c0-0.4-0.1-0.7-0.2-1.1c-0.1-0.3-0.3-0.6-0.6-0.9c-0.3-0.3-0.6-0.5-0.9-0.6
		c-0.4-0.2-0.8-0.2-1.2-0.2c-0.5,0-0.9,0.1-1.4,0.3c-0.4,0.2-0.8,0.5-1.1,0.8h-0.9l1-5.4L28.1,175.1z"/>
	<path class="st0" d="M32.7,184.1v1.6h-1.4v-1.6H32.7z"/>
	<path class="st0" d="M41.2,183v2.6h-0.9V183h-5.2v-1l5.2-7.1h0.9v7.2h1.7v0.9H41.2z M40.3,176.4L40.3,176.4l-4.2,5.8h4.3
		L40.3,176.4z"/>
	<path class="st0" d="M52.1,175.1v0.9c-0.7,0.7-1.3,1.4-1.8,2.1c-0.5,0.7-1,1.5-1.4,2.3c-0.4,0.8-0.7,1.6-0.9,2.5
		c-0.2,0.9-0.4,1.7-0.4,2.6h-1.1c0.1-0.9,0.2-1.8,0.4-2.6c0.2-0.8,0.5-1.6,0.9-2.4c0.9-1.7,2-3.3,3.3-4.6h-6.2v-0.9L52.1,175.1z"/>
	<path class="st0" d="M56.4,174.8c0,0.2,0,0.4-0.1,0.6c0,0.2-0.1,0.3-0.2,0.5c-0.1,0.1-0.2,0.2-0.4,0.3c-0.2,0.1-0.3,0.1-0.5,0.1
		c-0.3,0-0.7-0.1-0.9-0.4c-0.4-0.7-0.4-1.5,0-2.2c0.2-0.3,0.6-0.4,0.9-0.4c0.2,0,0.4,0,0.5,0.1c0.1,0.1,0.3,0.2,0.4,0.3
		c0.1,0.1,0.2,0.3,0.2,0.5C56.4,174.4,56.4,174.6,56.4,174.8z M56,174.8c0-0.1,0-0.3,0-0.4c0-0.1-0.1-0.2-0.1-0.4
		c-0.1-0.1-0.1-0.2-0.2-0.3c-0.3-0.2-0.8-0.1-1,0.2c-0.3,0.5-0.3,1.1,0,1.6c0.1,0.2,0.4,0.3,0.6,0.3c0.1,0,0.3,0,0.4-0.1
		c0.1-0.1,0.2-0.1,0.2-0.2c0.1-0.1,0.1-0.2,0.1-0.4C56,175.1,56,175,56,174.8L56,174.8z M55.2,179.1h-0.4l3.5-5.9h0.4L55.2,179.1z
		 M59.8,177.5c0,0.2,0,0.4-0.1,0.6c0,0.2-0.1,0.3-0.2,0.5c-0.1,0.1-0.2,0.2-0.4,0.3c-0.2,0.1-0.3,0.1-0.5,0.1c-0.2,0-0.4,0-0.5-0.1
		c-0.2-0.1-0.3-0.2-0.4-0.3c-0.1-0.1-0.2-0.3-0.2-0.5c-0.1-0.4-0.1-0.8,0-1.2c0-0.2,0.1-0.3,0.2-0.5c0.1-0.1,0.2-0.2,0.4-0.3
		c0.3-0.1,0.7-0.1,1.1,0c0.1,0.1,0.3,0.2,0.4,0.3c0.1,0.1,0.2,0.3,0.2,0.5C59.7,177.1,59.8,177.3,59.8,177.5L59.8,177.5z
		 M59.4,177.5c0-0.1,0-0.3,0-0.4c0-0.1-0.1-0.2-0.1-0.4c-0.1-0.1-0.1-0.2-0.2-0.3c-0.1-0.1-0.3-0.1-0.4-0.1c-0.2,0-0.5,0.1-0.6,0.3
		c-0.2,0.2-0.2,0.5-0.2,0.8c0,0.3,0.1,0.6,0.2,0.8c0.2,0.3,0.7,0.4,1,0.2c0.1-0.1,0.2-0.1,0.2-0.2c0.1-0.1,0.1-0.2,0.1-0.4
		C59.4,177.7,59.4,177.6,59.4,177.5L59.4,177.5z"/>
</g>
</svg>
