<svg xmlns="http://www.w3.org/2000/svg" viewBox="0 0 134 78"><defs><style>.cls-1{fill:#ff6c00;}.cls-2,.cls-5{fill:none;stroke-miterlimit:10;}.cls-2{stroke:#ff6c00;stroke-width:0.4px;}.cls-3{fill:#f0f0f0;}.cls-4{fill:#e6e6e6;}.cls-5{stroke:#aaa;}.cls-6{fill:#464646;}</style></defs><title>Artboard 21</title><g id="Layer_1" data-name="Layer 1"><path class="cls-1" d="M3.24,14a2.36,2.36,0,0,1,.65.09,1.79,1.79,0,0,1,.57.27,1.39,1.39,0,0,1,.4.46,1.32,1.32,0,0,1,.15.65,1.48,1.48,0,0,1-.06.44,1.21,1.21,0,0,1-.19.37,1.18,1.18,0,0,1-.3.28,1.4,1.4,0,0,1-.41.18v0a1.37,1.37,0,0,1,.89.5,1.47,1.47,0,0,1,.3.93,1.61,1.61,0,0,1-.56,1.27,1.86,1.86,0,0,1-.63.37,2.5,2.5,0,0,1-.81.12,2.44,2.44,0,0,1-.74-.11,1.86,1.86,0,0,1-.61-.32A1.56,1.56,0,0,1,1.45,19a1.52,1.52,0,0,1-.15-.69v-.12h.52v.11a1.16,1.16,0,0,0,.37.86,1.34,1.34,0,0,0,.44.27,1.63,1.63,0,0,0,.59.1,1.79,1.79,0,0,0,.6-.09,1.5,1.5,0,0,0,.46-.27,1.14,1.14,0,0,0,.43-.92,1.26,1.26,0,0,0-.09-.5,1.08,1.08,0,0,0-.28-.39,1.49,1.49,0,0,0-1-.33H2.89v-.44h.46a1.24,1.24,0,0,0,.8-.28,1,1,0,0,0,.34-.77,1.06,1.06,0,0,0-.1-.47,1,1,0,0,0-.27-.34,1.13,1.13,0,0,0-.4-.21,1.73,1.73,0,0,0-.49-.07,1.4,1.4,0,0,0-.54.1,1.19,1.19,0,0,0-.67.68,1.31,1.31,0,0,0-.09.49H1.42a1.63,1.63,0,0,1,.12-.61,1.69,1.69,0,0,1,.36-.54,1.79,1.79,0,0,1,.57-.39A1.89,1.89,0,0,1,3.24,14Z"/><path class="cls-1" d="M8.13,14a1.92,1.92,0,0,1,.88.19,1.65,1.65,0,0,1,.63.57,2.76,2.76,0,0,1,.38.93A5.76,5.76,0,0,1,10.14,17a4,4,0,0,1-.51,2.23,1.7,1.7,0,0,1-1.5.75,1.7,1.7,0,0,1-1.49-.74A3.93,3.93,0,0,1,6.12,17a3.92,3.92,0,0,1,.52-2.23A1.71,1.71,0,0,1,8.13,14ZM6.64,17q0,2.54,1.49,2.54T9.62,17a3.77,3.77,0,0,0-.38-1.89,1.22,1.22,0,0,0-1.12-.63,1.21,1.21,0,0,0-1.1.63A3.75,3.75,0,0,0,6.64,17Z"/><path class="cls-1" d="M15.32,17.63a3.19,3.19,0,0,1-.12.85,2.24,2.24,0,0,1-.36.74,1.79,1.79,0,0,1-.61.52,1.86,1.86,0,0,1-.88.2,1.84,1.84,0,0,1-.47-.06,1.68,1.68,0,0,1-.43-.18,1.52,1.52,0,0,1-.36-.3,1.47,1.47,0,0,1-.26-.42h0v2.45h-.54v-6h.5v.83h0a1.49,1.49,0,0,1,.26-.41,1.53,1.53,0,0,1,.37-.3,1.81,1.81,0,0,1,.44-.19,2,2,0,0,1,1.35.12,1.77,1.77,0,0,1,.62.5,2.22,2.22,0,0,1,.37.74A3.11,3.11,0,0,1,15.32,17.63Zm-.54,0a3,3,0,0,0-.07-.65,1.89,1.89,0,0,0-.24-.6,1.38,1.38,0,0,0-.45-.44,1.26,1.26,0,0,0-.68-.17,1.39,1.39,0,0,0-1.13.47,2.14,2.14,0,0,0-.39,1.4,2.79,2.79,0,0,0,.08.69,1.79,1.79,0,0,0,.27.6,1.4,1.4,0,0,0,.48.42,1.44,1.44,0,0,0,.71.16,1.25,1.25,0,0,0,.64-.16,1.36,1.36,0,0,0,.45-.42,1.9,1.9,0,0,0,.26-.6A2.77,2.77,0,0,0,14.79,17.63Z"/><path class="cls-1" d="M16.78,15.44,18,17.11l1.22-1.66h.67l-1.58,2.09L20,19.82h-.68L18,18l-1.34,1.84H16l1.7-2.27-1.57-2.1Z"/><line class="cls-2" x1="23.7" y1="31.82" x2="23.7" y2="1.82"/><line class="cls-2" x1="22.7" y1="1.82" x2="24.7" y2="1.82"/><line class="cls-2" x1="22.7" y1="31.82" x2="24.7" y2="31.82"/><path class="cls-1" d="M3.79,62.67a1.88,1.88,0,0,1,1.3.44,1.52,1.52,0,0,1,.49,1.19,1.88,1.88,0,0,1-.37,1.11A4.63,4.63,0,0,1,3.87,66.5a5.47,5.47,0,0,0-1.11.82A1.33,1.33,0,0,0,2.4,68H5.6v.48H1.8a2,2,0,0,1,.37-1.16,4.41,4.41,0,0,1,1.29-1.11,5.88,5.88,0,0,0,1.26-1,1.41,1.41,0,0,0,.34-.94,1.09,1.09,0,0,0-.36-.85,1.34,1.34,0,0,0-.93-.33,1.36,1.36,0,0,0-.57.11,1.21,1.21,0,0,0-.4.29,1.19,1.19,0,0,0-.24.41,1.46,1.46,0,0,0-.08.47v.11H2v-.08a2,2,0,0,1,.11-.65,1.61,1.61,0,0,1,.34-.56A1.66,1.66,0,0,1,3,62.81,2,2,0,0,1,3.79,62.67Z"/><path class="cls-1" d="M9.74,67v1.43H9.27V67H6.6v-.5l2.67-3.84h.47v3.9h.87V67Zm-.48-3.57h0L7.07,66.61h2.2Z"/><path class="cls-1" d="M15.82,66.29a3.19,3.19,0,0,1-.12.85,2.24,2.24,0,0,1-.36.74,1.79,1.79,0,0,1-.61.52,1.86,1.86,0,0,1-.88.2,1.84,1.84,0,0,1-.47-.06,1.68,1.68,0,0,1-.43-.18,1.52,1.52,0,0,1-.36-.3,1.47,1.47,0,0,1-.26-.42h0V70.1h-.54v-6h.5v.83h0a1.49,1.49,0,0,1,.26-.41,1.53,1.53,0,0,1,.37-.3,1.81,1.81,0,0,1,.44-.19,2,2,0,0,1,1.35.12,1.77,1.77,0,0,1,.62.5,2.22,2.22,0,0,1,.37.74A3.11,3.11,0,0,1,15.82,66.29Zm-.54,0a3,3,0,0,0-.07-.65A1.89,1.89,0,0,0,15,65a1.38,1.38,0,0,0-.45-.44,1.26,1.26,0,0,0-.68-.17,1.39,1.39,0,0,0-1.13.47,2.14,2.14,0,0,0-.39,1.4,2.79,2.79,0,0,0,.08.69,1.79,1.79,0,0,0,.27.6,1.4,1.4,0,0,0,.48.42,1.44,1.44,0,0,0,.71.16,1.25,1.25,0,0,0,.64-.16,1.36,1.36,0,0,0,.45-.42,1.9,1.9,0,0,0,.26-.6A2.77,2.77,0,0,0,15.29,66.29Z"/><path class="cls-1" d="M17.28,64.11l1.25,1.66,1.22-1.66h.67L18.84,66.2l1.71,2.28h-.68l-1.37-1.84-1.34,1.84h-.66l1.7-2.27-1.57-2.1Z"/><line class="cls-2" x1="23.7" y1="77.48" x2="23.7" y2="53.48"/><line class="cls-2" x1="22.7" y1="53.48" x2="24.7" y2="53.48"/><line class="cls-2" x1="22.7" y1="77.48" x2="24.7" y2="77.48"/><rect class="cls-3" x="30.5" y="1.5" width="101" height="29"/><path class="cls-4" d="M131,30H31V2H131Zm1-29H30V31H132Z"/><line class="cls-5" x1="30" y1="30.5" x2="132" y2="30.5"/><path class="cls-6" d="M64.38,17.71a2,2,0,0,1-.23,1,2,2,0,0,1-.61.68,2.7,2.7,0,0,1-.91.39,4.79,4.79,0,0,1-1.12.13,4.56,4.56,0,0,1-1.08-.12,2.74,2.74,0,0,1-.89-.38,2.14,2.14,0,0,1-.63-.65,2.2,2.2,0,0,1-.3-.94H60a1.15,1.15,0,0,0,.51.8,1.51,1.51,0,0,0,.46.2,2.2,2.2,0,0,0,.56.07A2.4,2.4,0,0,0,62,18.8a1.46,1.46,0,0,0,.45-.18,1,1,0,0,0,.32-.31.78.78,0,0,0,.12-.44.61.61,0,0,0-.1-.35.9.9,0,0,0-.27-.26,1.81,1.81,0,0,0-.4-.18l-.47-.13-.93-.22a6,6,0,0,1-.91-.28,2.37,2.37,0,0,1-.63-.37,1.33,1.33,0,0,1-.37-.49,1.57,1.57,0,0,1-.12-.63,1.77,1.77,0,0,1,.21-.89,1.84,1.84,0,0,1,.58-.63,2.69,2.69,0,0,1,.87-.37,4.46,4.46,0,0,1,1.07-.12,3.88,3.88,0,0,1,1.06.13,2.61,2.61,0,0,1,.82.38,1.9,1.9,0,0,1,.54.59,2,2,0,0,1,.25.77H62.76a1,1,0,0,0-.45-.65A1.65,1.65,0,0,0,61.4,14a2.3,2.3,0,0,0-.47,0,1.27,1.27,0,0,0-.39.14.77.77,0,0,0-.26.25.65.65,0,0,0-.1.36.6.6,0,0,0,.1.35.91.91,0,0,0,.26.25,1.47,1.47,0,0,0,.35.16l.37.1,1.38.33a4.37,4.37,0,0,1,.68.22,2,2,0,0,1,.54.34,1.47,1.47,0,0,1,.37.5A1.84,1.84,0,0,1,64.38,17.71Z"/><path class="cls-6" d="M74.19,19.69v-4a3.44,3.44,0,0,0-.05-.62,1.26,1.26,0,0,0-.19-.49,1,1,0,0,0-.39-.32,1.48,1.48,0,0,0-.63-.12,1.24,1.24,0,0,0-1.06.47A2.29,2.29,0,0,0,71.5,16v3.74H70.06V15.49a1.64,1.64,0,0,0-.28-1,1.1,1.1,0,0,0-.91-.35,1.34,1.34,0,0,0-1.08.48,2,2,0,0,0-.4,1.31v3.81H65.94V13.12H67.3v1h0a2.31,2.31,0,0,1,2.06-1.15,2.27,2.27,0,0,1,1.2.3,1.71,1.71,0,0,1,.71.86,2.45,2.45,0,0,1,.87-.86,2.64,2.64,0,0,1,2.89.3,2.31,2.31,0,0,1,.58,1.68v4.48Z"/><path class="cls-6" d="M83.72,19.69l-.44.09-.39,0a1.79,1.79,0,0,1-.42,0,.91.91,0,0,1-.34-.16.84.84,0,0,1-.24-.29,1.28,1.28,0,0,1-.12-.45h0a2.67,2.67,0,0,1-.45.46,2.3,2.3,0,0,1-.52.31,3.32,3.32,0,0,1-1.31.24,2.42,2.42,0,0,1-1.62-.51,1.77,1.77,0,0,1-.6-1.45,1.7,1.7,0,0,1,.6-1.42,2.11,2.11,0,0,1,.58-.32,4.68,4.68,0,0,1,.73-.2q.39-.08.82-.13l.87-.1.34-.07a.8.8,0,0,0,.27-.13.59.59,0,0,0,.17-.22.79.79,0,0,0,.06-.33,1,1,0,0,0-.31-.79,2.11,2.11,0,0,0-2.05,0,1,1,0,0,0-.39.73H77.47a2,2,0,0,1,.28-.9,2,2,0,0,1,.62-.62,2.88,2.88,0,0,1,.9-.36,5.08,5.08,0,0,1,1.13-.12,3.42,3.42,0,0,1,2,.5,1.65,1.65,0,0,1,.67,1.41v3.54a.47.47,0,0,0,.08.3.33.33,0,0,0,.27.1h.12l.13,0Zm-2-3.35h0a1,1,0,0,1-.54.23l-.48.08-.65.11a2.2,2.2,0,0,0-1,.37.87.87,0,0,0-.32.72.89.89,0,0,0,.37.76,1.48,1.48,0,0,0,.87.24,1.79,1.79,0,0,0,1.27-.43,1.59,1.59,0,0,0,.49-1.24Z"/><path class="cls-6" d="M86.58,10.61v9.08H85.13V10.61Z"/><path class="cls-6" d="M90,10.61v9.08H88.57V10.61Z"/><path class="cls-6" d="M94.81,12.94a3,3,0,0,1,1.34.28,2.78,2.78,0,0,1,1,.77,3.33,3.33,0,0,1,.58,1.13,4.76,4.76,0,0,1,.19,1.37v.26H93a2.77,2.77,0,0,0,.13.81,1.9,1.9,0,0,0,.35.63,1.55,1.55,0,0,0,.54.41,1.7,1.7,0,0,0,.72.15,1.9,1.9,0,0,0,1-.23,1.7,1.7,0,0,0,.61-.6h1.37a3.06,3.06,0,0,1-.45.81,2.83,2.83,0,0,1-.66.62,3,3,0,0,1-.85.39,3.66,3.66,0,0,1-1,.13,3.28,3.28,0,0,1-1.33-.26,2.82,2.82,0,0,1-1-.72,3.18,3.18,0,0,1-.62-1.1,4.31,4.31,0,0,1-.22-1.4,4,4,0,0,1,.22-1.33,3.3,3.3,0,0,1,.63-1.1,3,3,0,0,1,1-.76A3.16,3.16,0,0,1,94.81,12.94Zm1.63,2.85a2.77,2.77,0,0,0-.16-.71,1.73,1.73,0,0,0-.33-.55,1.43,1.43,0,0,0-.5-.35,1.91,1.91,0,0,0-1.37,0,1.51,1.51,0,0,0-.52.36,1.79,1.79,0,0,0-.35.55,2.54,2.54,0,0,0-.17.7Z"/><path class="cls-6" d="M99.4,19.69V13.12h1.37v1.34h0a2.4,2.4,0,0,1,.87-1.08,2.23,2.23,0,0,1,1.29-.39h.21l.2,0v1.36l-.25,0h-.28a1.84,1.84,0,0,0-1.48.6,2.36,2.36,0,0,0-.51,1.57v3.18Z"/><rect class="cls-3" x="30.5" y="54.5" width="89" height="23"/><path class="cls-4" d="M119,77H31V55h88Zm1-23H30V78h90Z"/><line class="cls-5" x1="30" y1="77.5" x2="120" y2="77.5"/><path class="cls-6" d="M60.25,69.69v-4a3.44,3.44,0,0,0-.05-.62,1.26,1.26,0,0,0-.19-.49,1,1,0,0,0-.39-.32A1.48,1.48,0,0,0,59,64.1a1.24,1.24,0,0,0-1.06.47A2.29,2.29,0,0,0,57.56,66v3.74H56.11V65.49a1.64,1.64,0,0,0-.28-1,1.1,1.1,0,0,0-.91-.35,1.34,1.34,0,0,0-1.08.48,2,2,0,0,0-.4,1.31v3.81H52V63.12h1.36v1h0a2.31,2.31,0,0,1,2.06-1.15,2.27,2.27,0,0,1,1.2.3,1.71,1.71,0,0,1,.71.86,2.45,2.45,0,0,1,.87-.86,2.21,2.21,0,0,1,3.47,2v4.48Z"/><path class="cls-6" d="M65.13,60.26v1.42H63.68V60.26Zm0,2.86v6.57H63.68V63.12Z"/><path class="cls-6" d="M70.55,62.94a3.25,3.25,0,0,1,1.1.16,1.8,1.8,0,0,1,.74.49,2,2,0,0,1,.42.81,4.28,4.28,0,0,1,.13,1.12v4.17H71.5v-3.9a2.11,2.11,0,0,0-.32-1.27,1.19,1.19,0,0,0-1-.43,1.48,1.48,0,0,0-1.23.52,2.28,2.28,0,0,0-.41,1.45v3.63H67.08V63.12h1.38v1h0a2.14,2.14,0,0,1,.37-.5,2.24,2.24,0,0,1,.48-.37,2.34,2.34,0,0,1,.57-.23A2.51,2.51,0,0,1,70.55,62.94Z"/><path class="cls-6" d="M76.34,60.26v1.42H74.89V60.26Zm0,2.86v6.57H74.89V63.12Z"/><path class="cls-6" d="M86.58,69.69v-4a3.44,3.44,0,0,0-.05-.62,1.26,1.26,0,0,0-.19-.49,1,1,0,0,0-.39-.32,1.48,1.48,0,0,0-.63-.12,1.24,1.24,0,0,0-1.06.47A2.29,2.29,0,0,0,83.9,66v3.74H82.45V65.49a1.64,1.64,0,0,0-.28-1,1.1,1.1,0,0,0-.91-.35,1.34,1.34,0,0,0-1.08.48,2,2,0,0,0-.4,1.31v3.81H78.33V63.12h1.36v1h0a2.31,2.31,0,0,1,2.06-1.15,2.27,2.27,0,0,1,1.2.3,1.71,1.71,0,0,1,.71.86,2.45,2.45,0,0,1,.87-.86,2.21,2.21,0,0,1,3.47,2v4.48Z"/><path class="cls-6" d="M96.11,69.69l-.44.09-.39,0a1.79,1.79,0,0,1-.42,0,.91.91,0,0,1-.34-.16.84.84,0,0,1-.24-.29,1.28,1.28,0,0,1-.12-.45h0a2.67,2.67,0,0,1-.45.46,2.3,2.3,0,0,1-.52.31,3.32,3.32,0,0,1-1.31.24,2.42,2.42,0,0,1-1.62-.51,1.77,1.77,0,0,1-.6-1.45,1.7,1.7,0,0,1,.6-1.42,2.11,2.11,0,0,1,.58-.32,4.68,4.68,0,0,1,.73-.2q.39-.08.82-.13l.87-.1.34-.07a.8.8,0,0,0,.27-.13.59.59,0,0,0,.17-.22.79.79,0,0,0,.06-.33,1,1,0,0,0-.31-.79,2.11,2.11,0,0,0-2.05,0,1,1,0,0,0-.39.73H89.86a2,2,0,0,1,.28-.9,2,2,0,0,1,.62-.62,2.88,2.88,0,0,1,.9-.36,5.08,5.08,0,0,1,1.13-.12,3.42,3.42,0,0,1,2,.5,1.65,1.65,0,0,1,.67,1.41v3.54a.47.47,0,0,0,.08.3.33.33,0,0,0,.27.1H96l.13,0Zm-2-3.35h0a1,1,0,0,1-.54.23l-.48.08-.65.11a2.2,2.2,0,0,0-1,.37.87.87,0,0,0-.32.72.89.89,0,0,0,.37.76,1.48,1.48,0,0,0,.87.24,1.79,1.79,0,0,0,1.27-.43,1.59,1.59,0,0,0,.49-1.24Z"/><path class="cls-6" d="M99,60.61v9.08H97.52V60.61Z"/></g></svg>