<svg xmlns="http://www.w3.org/2000/svg" xmlns:xlink="http://www.w3.org/1999/xlink" viewBox="0 0 320 300"><defs><style>.cls-1,.cls-10,.cls-9{fill:none;}.cls-2{fill:#fff;}.cls-3{fill:#dcdcdc;}.cls-4{opacity:0.4;}.cls-5{clip-path:url(#clip-path);}.cls-6{fill:#464646;}.cls-7{clip-path:url(#clip-path-2);}.cls-8{fill:#389aea;}.cls-9{stroke:#389aea;}.cls-10,.cls-9{stroke-miterlimit:10;}.cls-10{stroke:#206397;}.cls-11{fill:#62acfc;}</style><clipPath id="clip-path"><rect class="cls-1" x="24" y="109.57" width="33.87" height="13.18"/></clipPath><clipPath id="clip-path-2"><rect class="cls-1" x="24" y="189.57" width="60.43" height="13.18"/></clipPath></defs><title>Artboard 41 copy 2</title><g id="Layer_1" data-name="Layer 1"><rect class="cls-2" x="12.5" y="99.07" width="299" height="35"/><path class="cls-3" d="M311,100v33H14V100H311m1-1H13v35H312V99Z"/><g class="cls-4"><g class="cls-5"><path class="cls-6" d="M31.25,111.3v1.27H26.53v2.28h4.37V116H26.53v2.56h4.8v1.26H25V111.3Z"/><path class="cls-6" d="M41,119.85v-4a3.44,3.44,0,0,0-.05-.62,1.26,1.26,0,0,0-.19-.49,1,1,0,0,0-.39-.32,1.48,1.48,0,0,0-.63-.12,1.24,1.24,0,0,0-1.06.47,2.29,2.29,0,0,0-.35,1.38v3.74H36.92v-4.21a1.64,1.64,0,0,0-.28-1,1.1,1.1,0,0,0-.91-.35,1.34,1.34,0,0,0-1.08.48,2,2,0,0,0-.4,1.31v3.81H32.8v-6.57h1.36v1h0a2.31,2.31,0,0,1,2.06-1.15,2.27,2.27,0,0,1,1.2.3,1.71,1.71,0,0,1,.71.86,2.45,2.45,0,0,1,.87-.86,2.21,2.21,0,0,1,3.47,2v4.48Z"/><path class="cls-6" d="M50.57,119.85l-.44.09-.39,0a1.79,1.79,0,0,1-.42,0,.91.91,0,0,1-.34-.16.84.84,0,0,1-.24-.29,1.28,1.28,0,0,1-.12-.45h0a2.67,2.67,0,0,1-.45.46,2.3,2.3,0,0,1-.52.31,3.32,3.32,0,0,1-1.31.24,2.42,2.42,0,0,1-1.62-.51,1.77,1.77,0,0,1-.6-1.45,1.7,1.7,0,0,1,.6-1.42,2.11,2.11,0,0,1,.58-.32,4.68,4.68,0,0,1,.73-.2q.39-.08.82-.13l.87-.1.34-.07a.8.8,0,0,0,.27-.13.59.59,0,0,0,.17-.22.79.79,0,0,0,.06-.33,1,1,0,0,0-.31-.79,2.11,2.11,0,0,0-2.05,0,1,1,0,0,0-.39.73H44.33a2,2,0,0,1,.28-.9,2,2,0,0,1,.62-.62,2.88,2.88,0,0,1,.9-.36,5.08,5.08,0,0,1,1.13-.12,3.42,3.42,0,0,1,2,.5A1.65,1.65,0,0,1,50,115v3.54a.47.47,0,0,0,.08.3.33.33,0,0,0,.27.1h.12l.13,0Zm-2-3.35h0a1,1,0,0,1-.54.23l-.48.08-.65.11a2.2,2.2,0,0,0-1,.37.87.87,0,0,0-.32.72.89.89,0,0,0,.37.76,1.48,1.48,0,0,0,.87.24,1.79,1.79,0,0,0,1.27-.43,1.59,1.59,0,0,0,.49-1.24Z"/><path class="cls-6" d="M53.43,110.42v1.42H52v-1.42Zm0,2.86v6.57H52v-6.57Z"/><path class="cls-6" d="M56.88,110.77v9.08H55.43v-9.08Z"/></g></g><path class="cls-6" d="M19.54,83.3V84H14.45v3.09h4.77v.69H14.45v3.38h5.14v.7h-6V83.3Z"/><path class="cls-6" d="M29.36,91.85V87.39A1.73,1.73,0,0,0,29,86.16a1.85,1.85,0,0,0-2.5.21A2.8,2.8,0,0,0,26,88.08v3.77h-.81V87.36a1.81,1.81,0,0,0-.34-1.17,1.25,1.25,0,0,0-1-.42,1.72,1.72,0,0,0-1.46.65,2.72,2.72,0,0,0-.5,1.71v3.72h-.8V85.29h.74v1.1h0A2.26,2.26,0,0,1,24,85.1a2.44,2.44,0,0,1,.64.08,1.86,1.86,0,0,1,.54.24,1.66,1.66,0,0,1,.42.4,1.86,1.86,0,0,1,.28.55,2.16,2.16,0,0,1,.85-1A2.4,2.4,0,0,1,28,85.1a2.12,2.12,0,0,1,1.63.58,2.36,2.36,0,0,1,.54,1.66v4.51Z"/><path class="cls-6" d="M38,91.81l-.27,0h-.24a1.37,1.37,0,0,1-.44-.06.65.65,0,0,1-.29-.2.82.82,0,0,1-.16-.35,2.43,2.43,0,0,1,0-.53h0a3,3,0,0,1-1,1,2.79,2.79,0,0,1-1.35.29,2.46,2.46,0,0,1-1.6-.5,1.75,1.75,0,0,1-.6-1.43,1.66,1.66,0,0,1,.66-1.43,6.79,6.79,0,0,1,3-.69,2,2,0,0,0,.44-.08.75.75,0,0,0,.29-.16.6.6,0,0,0,.16-.26,1.28,1.28,0,0,0,0-.38,1.24,1.24,0,0,0-.4-1,2,2,0,0,0-1.31-.34,2.61,2.61,0,0,0-.72.09,1.65,1.65,0,0,0-.53.25,1.13,1.13,0,0,0-.33.39,1.23,1.23,0,0,0-.13.49h-.8a2,2,0,0,1,.22-.78,1.78,1.78,0,0,1,.51-.59,2.43,2.43,0,0,1,.81-.38,4,4,0,0,1,1.09-.13,2.64,2.64,0,0,1,1.83.54,2,2,0,0,1,.59,1.52v3.56a.47.47,0,0,0,.11.33.46.46,0,0,0,.36.12.7.7,0,0,0,.25,0Zm-1.52-3.54h0q-.12.22-.77.31l-.67.1-.74.12a2.67,2.67,0,0,0-1.17.44,1,1,0,0,0-.39.84,1.16,1.16,0,0,0,.43.94,1.6,1.6,0,0,0,1,.35,2.36,2.36,0,0,0,1.63-.58,1.85,1.85,0,0,0,.65-1.44Z"/><path class="cls-6" d="M40.27,82.42v1.29h-.8V82.42Zm0,2.87v6.56h-.8V85.29Z"/><path class="cls-6" d="M43.3,82.77v9.08h-.8V82.77Z"/><rect class="cls-2" x="12.5" y="179.07" width="299" height="35"/><path class="cls-3" d="M311,180v33H14V180H311m1-1H13v35H312V179Z"/><g class="cls-4"><g class="cls-7"><path class="cls-6" d="M31.68,193.93a2.54,2.54,0,0,1-.75,1.92,2.51,2.51,0,0,1-.88.54,3.33,3.33,0,0,1-1.13.18h-2.4v3.29H25v-8.57h3.9a2.79,2.79,0,0,1,2,.72A2.51,2.51,0,0,1,31.68,193.93Zm-1.46,0a1.36,1.36,0,0,0-.42-1.09,2,2,0,0,0-1.31-.36h-2v2.9h2a2.78,2.78,0,0,0,.72-.08,1.28,1.28,0,0,0,1-1.36Z"/><path class="cls-6" d="M38.9,199.85l-.44.09-.39,0a1.79,1.79,0,0,1-.42,0,.91.91,0,0,1-.34-.16.84.84,0,0,1-.24-.29,1.28,1.28,0,0,1-.12-.45h0a2.67,2.67,0,0,1-.45.46,2.3,2.3,0,0,1-.52.31,3.32,3.32,0,0,1-1.31.24,2.42,2.42,0,0,1-1.62-.51,1.77,1.77,0,0,1-.6-1.45,1.7,1.7,0,0,1,.6-1.42,2.11,2.11,0,0,1,.58-.32,4.68,4.68,0,0,1,.73-.2q.39-.08.82-.13l.87-.1.34-.07a.8.8,0,0,0,.27-.13.59.59,0,0,0,.17-.22.79.79,0,0,0,.06-.33,1,1,0,0,0-.31-.79,2.11,2.11,0,0,0-2.05,0,1,1,0,0,0-.39.73H32.65a2,2,0,0,1,.28-.9,2,2,0,0,1,.62-.62,2.88,2.88,0,0,1,.9-.36,5.08,5.08,0,0,1,1.13-.12,3.42,3.42,0,0,1,2,.5A1.65,1.65,0,0,1,38.3,195v3.54a.47.47,0,0,0,.08.3.33.33,0,0,0,.27.1h.12l.13,0Zm-2-3.35h0a1,1,0,0,1-.54.23l-.48.08-.65.11a2.2,2.2,0,0,0-1,.37.87.87,0,0,0-.32.72.89.89,0,0,0,.37.76,1.48,1.48,0,0,0,.87.24,1.79,1.79,0,0,0,1.27-.43,1.59,1.59,0,0,0,.49-1.24Z"/><path class="cls-6" d="M45.69,197.87a2,2,0,0,1-.23,1,2,2,0,0,1-.61.68,2.7,2.7,0,0,1-.91.39,4.79,4.79,0,0,1-1.12.13,4.56,4.56,0,0,1-1.08-.12,2.74,2.74,0,0,1-.89-.38,2.14,2.14,0,0,1-.63-.65,2.2,2.2,0,0,1-.3-.94H41.3a1.15,1.15,0,0,0,.51.8,1.51,1.51,0,0,0,.46.2,2.2,2.2,0,0,0,.56.07,2.4,2.4,0,0,0,.53-.06,1.46,1.46,0,0,0,.45-.18,1,1,0,0,0,.32-.31.78.78,0,0,0,.12-.44.61.61,0,0,0-.1-.35.9.9,0,0,0-.27-.26,1.81,1.81,0,0,0-.4-.18L43,197.1l-.93-.22a6,6,0,0,1-.91-.28,2.37,2.37,0,0,1-.63-.37,1.33,1.33,0,0,1-.37-.49,1.57,1.57,0,0,1-.12-.63,1.77,1.77,0,0,1,.21-.89,1.84,1.84,0,0,1,.58-.63,2.69,2.69,0,0,1,.87-.37,4.46,4.46,0,0,1,1.07-.12,3.88,3.88,0,0,1,1.06.13,2.61,2.61,0,0,1,.82.38,1.9,1.9,0,0,1,.54.59,2,2,0,0,1,.25.77H44.07a1,1,0,0,0-.45-.65,1.65,1.65,0,0,0-.91-.23,2.3,2.3,0,0,0-.47,0,1.27,1.27,0,0,0-.39.14.77.77,0,0,0-.26.25.65.65,0,0,0-.1.36.6.6,0,0,0,.1.35.91.91,0,0,0,.26.25,1.47,1.47,0,0,0,.35.16l.37.1,1.38.33a4.37,4.37,0,0,1,.68.22,2,2,0,0,1,.54.34,1.47,1.47,0,0,1,.37.5A1.84,1.84,0,0,1,45.69,197.87Z"/><path class="cls-6" d="M52.63,197.87a2,2,0,0,1-.23,1,2,2,0,0,1-.61.68,2.7,2.7,0,0,1-.91.39,4.79,4.79,0,0,1-1.12.13,4.56,4.56,0,0,1-1.08-.12,2.74,2.74,0,0,1-.89-.38,2.14,2.14,0,0,1-.63-.65,2.2,2.2,0,0,1-.3-.94h1.39a1.15,1.15,0,0,0,.51.8,1.51,1.51,0,0,0,.46.2,2.2,2.2,0,0,0,.56.07,2.4,2.4,0,0,0,.53-.06,1.46,1.46,0,0,0,.45-.18,1,1,0,0,0,.32-.31.78.78,0,0,0,.12-.44.61.61,0,0,0-.1-.35.9.9,0,0,0-.27-.26,1.81,1.81,0,0,0-.4-.18L50,197.1l-.93-.22a6,6,0,0,1-.91-.28,2.37,2.37,0,0,1-.63-.37,1.33,1.33,0,0,1-.37-.49,1.57,1.57,0,0,1-.12-.63,1.77,1.77,0,0,1,.21-.89,1.84,1.84,0,0,1,.58-.63,2.69,2.69,0,0,1,.87-.37,4.46,4.46,0,0,1,1.07-.12,3.88,3.88,0,0,1,1.06.13,2.61,2.61,0,0,1,.82.38,1.9,1.9,0,0,1,.54.59,2,2,0,0,1,.25.77H51a1,1,0,0,0-.45-.65,1.65,1.65,0,0,0-.91-.23,2.3,2.3,0,0,0-.47,0,1.27,1.27,0,0,0-.39.14.77.77,0,0,0-.26.25.65.65,0,0,0-.1.36.6.6,0,0,0,.1.35.91.91,0,0,0,.26.25,1.47,1.47,0,0,0,.35.16l.37.1,1.38.33a4.37,4.37,0,0,1,.68.22,2,2,0,0,1,.54.34,1.47,1.47,0,0,1,.37.5A1.84,1.84,0,0,1,52.63,197.87Z"/><path class="cls-6" d="M55,193.28l1.38,5h0l1.28-5h1.45l1.29,5h0l1.38-5h1.49l-2.09,6.57h-1.5l-1.33-4.93h0L57,199.85H55.52l-2.09-6.57Z"/><path class="cls-6" d="M70.77,196.57a4.09,4.09,0,0,1-.23,1.38,3.1,3.1,0,0,1-.68,1.11,3,3,0,0,1-1,.73,3.49,3.49,0,0,1-1.36.25,3.12,3.12,0,0,1-2.38-1,3.94,3.94,0,0,1,0-5,3.1,3.1,0,0,1,2.39-1,3.15,3.15,0,0,1,2.4,1A3.54,3.54,0,0,1,70.77,196.57Zm-1.45,0a3.59,3.59,0,0,0-.11-.92,2.21,2.21,0,0,0-.35-.75,1.68,1.68,0,0,0-.58-.5,1.75,1.75,0,0,0-.83-.18,1.71,1.71,0,0,0-.77.17,1.62,1.62,0,0,0-.57.48,2.23,2.23,0,0,0-.36.74,3.79,3.79,0,0,0,0,1.9,2.19,2.19,0,0,0,.35.74,1.67,1.67,0,0,0,.58.49,1.7,1.7,0,0,0,.79.18,1.72,1.72,0,0,0,.79-.18,1.68,1.68,0,0,0,.58-.49,2.24,2.24,0,0,0,.36-.74A3.41,3.41,0,0,0,69.32,196.57Z"/><path class="cls-6" d="M72.38,199.85v-6.57h1.37v1.34h0a2.4,2.4,0,0,1,.87-1.08,2.23,2.23,0,0,1,1.29-.39h.21l.2,0v1.36l-.25,0h-.28a1.84,1.84,0,0,0-1.48.6,2.36,2.36,0,0,0-.51,1.57v3.18Z"/><path class="cls-6" d="M83.5,190.77v9.08H82.13v-1h0a2.07,2.07,0,0,1-.37.5,2.16,2.16,0,0,1-.49.37,2.44,2.44,0,0,1-.59.23A2.79,2.79,0,0,1,80,200a2.72,2.72,0,0,1-1.28-.29,2.76,2.76,0,0,1-.92-.77,3.38,3.38,0,0,1-.56-1.12,4.69,4.69,0,0,1-.19-1.33,4.52,4.52,0,0,1,.18-1.26,3.34,3.34,0,0,1,.54-1.1,2.75,2.75,0,0,1,.91-.77,2.91,2.91,0,0,1,1.92-.22,2.49,2.49,0,0,1,.58.21,2.07,2.07,0,0,1,.49.35,2,2,0,0,1,.37.5h0v-3.47Zm-5,5.79a3.63,3.63,0,0,0,.1.82,2.44,2.44,0,0,0,.31.76,1.81,1.81,0,0,0,.56.56,1.5,1.5,0,0,0,.83.22,1.73,1.73,0,0,0,.79-.17,1.58,1.58,0,0,0,.57-.49,2.25,2.25,0,0,0,.35-.75,3.68,3.68,0,0,0,.12-1,3.73,3.73,0,0,0-.1-.84,2.3,2.3,0,0,0-.31-.75,1.72,1.72,0,0,0-.57-.54,1.64,1.64,0,0,0-.85-.21,1.56,1.56,0,0,0-.82.2,1.7,1.7,0,0,0-.55.53,2.35,2.35,0,0,0-.32.75A3.93,3.93,0,0,0,78.47,196.56Z"/></g></g><path class="cls-6" d="M20,165.74a2.34,2.34,0,0,1-.7,1.8,2.55,2.55,0,0,1-1.8.64h-3v3.67h-.82v-8.57h3.86a2.53,2.53,0,0,1,1.8.65A2.33,2.33,0,0,1,20,165.74Zm-.81,0a1.68,1.68,0,0,0-.5-1.29,2.11,2.11,0,0,0-1.49-.46H14.45v3.5H17.3a2,2,0,0,0,1.35-.45A1.65,1.65,0,0,0,19.16,165.74Z"/><path class="cls-6" d="M26.88,171.81l-.27,0h-.24a1.37,1.37,0,0,1-.44-.06.65.65,0,0,1-.29-.2.82.82,0,0,1-.16-.35,2.43,2.43,0,0,1,0-.53h0a3,3,0,0,1-1,1A2.79,2.79,0,0,1,23,172a2.46,2.46,0,0,1-1.6-.5,1.75,1.75,0,0,1-.6-1.43,1.66,1.66,0,0,1,.66-1.43,6.79,6.79,0,0,1,3-.69,2,2,0,0,0,.44-.08.75.75,0,0,0,.29-.16.6.6,0,0,0,.16-.26,1.28,1.28,0,0,0,0-.38,1.24,1.24,0,0,0-.4-1,2,2,0,0,0-1.31-.34,2.61,2.61,0,0,0-.72.09,1.65,1.65,0,0,0-.53.25,1.13,1.13,0,0,0-.33.39,1.23,1.23,0,0,0-.13.49h-.8a2,2,0,0,1,.22-.78,1.78,1.78,0,0,1,.51-.59,2.43,2.43,0,0,1,.81-.38,4,4,0,0,1,1.09-.13,2.64,2.64,0,0,1,1.83.54,2,2,0,0,1,.59,1.52v3.56a.47.47,0,0,0,.11.33.46.46,0,0,0,.36.12.7.7,0,0,0,.25,0Zm-1.52-3.54h0q-.12.22-.77.31l-.67.1-.74.12a2.67,2.67,0,0,0-1.17.44,1,1,0,0,0-.39.84A1.16,1.16,0,0,0,22,171a1.6,1.6,0,0,0,1,.35,2.36,2.36,0,0,0,1.63-.58,1.85,1.85,0,0,0,.65-1.44Z"/><path class="cls-6" d="M33.22,170.07a1.67,1.67,0,0,1-.22.88,1.89,1.89,0,0,1-.59.62,2.74,2.74,0,0,1-.84.36,4,4,0,0,1-1,.12,3.66,3.66,0,0,1-1.07-.14,2.4,2.4,0,0,1-.8-.41,2,2,0,0,1-.53-.64,2.4,2.4,0,0,1-.25-.85h.81a1.7,1.7,0,0,0,.2.56,1.41,1.41,0,0,0,.38.43,1.8,1.8,0,0,0,.57.28,2.56,2.56,0,0,0,.74.1,3,3,0,0,0,.6-.06,2.05,2.05,0,0,0,.58-.21,1.35,1.35,0,0,0,.44-.38,1,1,0,0,0,.18-.59.93.93,0,0,0-.34-.73,2.6,2.6,0,0,0-1.13-.46l-1-.22a4,4,0,0,1-.77-.24,2.1,2.1,0,0,1-.58-.37,1.46,1.46,0,0,1-.36-.5,1.62,1.62,0,0,1-.12-.65,1.57,1.57,0,0,1,.21-.83,1.78,1.78,0,0,1,.56-.57,2.53,2.53,0,0,1,.78-.33,3.77,3.77,0,0,1,.89-.11,3.27,3.27,0,0,1,.92.12,2.29,2.29,0,0,1,.73.35,1.83,1.83,0,0,1,.5.57,2.08,2.08,0,0,1,.25.78h-.8a1.32,1.32,0,0,0-.19-.5,1.24,1.24,0,0,0-.36-.37,1.69,1.69,0,0,0-.5-.22,2.36,2.36,0,0,0-.61-.08,2.85,2.85,0,0,0-.58.06,1.59,1.59,0,0,0-.51.19,1.07,1.07,0,0,0-.36.35,1,1,0,0,0-.13.53.74.74,0,0,0,.13.44,1.27,1.27,0,0,0,.33.32,1.93,1.93,0,0,0,.44.22,3.64,3.64,0,0,0,.46.13l1.37.3a2.85,2.85,0,0,1,.59.21,1.77,1.77,0,0,1,.5.35,1.64,1.64,0,0,1,.34.51A1.71,1.71,0,0,1,33.22,170.07Z"/><path class="cls-6" d="M39.88,170.07a1.67,1.67,0,0,1-.22.88,1.89,1.89,0,0,1-.59.62,2.74,2.74,0,0,1-.84.36,4,4,0,0,1-1,.12,3.66,3.66,0,0,1-1.07-.14,2.4,2.4,0,0,1-.8-.41,2,2,0,0,1-.53-.64,2.4,2.4,0,0,1-.25-.85h.81a1.7,1.7,0,0,0,.2.56A1.41,1.41,0,0,0,36,171a1.8,1.8,0,0,0,.57.28,2.56,2.56,0,0,0,.74.1,3,3,0,0,0,.6-.06,2.05,2.05,0,0,0,.58-.21,1.35,1.35,0,0,0,.44-.38,1,1,0,0,0,.18-.59.93.93,0,0,0-.34-.73,2.6,2.6,0,0,0-1.13-.46l-1-.22a4,4,0,0,1-.77-.24,2.1,2.1,0,0,1-.58-.37,1.46,1.46,0,0,1-.36-.5,1.62,1.62,0,0,1-.12-.65,1.57,1.57,0,0,1,.21-.83,1.78,1.78,0,0,1,.56-.57,2.53,2.53,0,0,1,.78-.33,3.77,3.77,0,0,1,.89-.11,3.27,3.27,0,0,1,.92.12,2.29,2.29,0,0,1,.73.35,1.83,1.83,0,0,1,.5.57,2.08,2.08,0,0,1,.25.78h-.8a1.32,1.32,0,0,0-.19-.5,1.24,1.24,0,0,0-.36-.37,1.69,1.69,0,0,0-.5-.22,2.36,2.36,0,0,0-.61-.08,2.85,2.85,0,0,0-.58.06,1.59,1.59,0,0,0-.51.19,1.07,1.07,0,0,0-.36.35,1,1,0,0,0-.13.53.74.74,0,0,0,.13.44,1.27,1.27,0,0,0,.33.32,1.93,1.93,0,0,0,.44.22,3.64,3.64,0,0,0,.46.13l1.37.3a2.85,2.85,0,0,1,.59.21,1.77,1.77,0,0,1,.5.35,1.64,1.64,0,0,1,.34.51A1.71,1.71,0,0,1,39.88,170.07Z"/><path class="cls-6" d="M41.73,165.29l1.68,5.62h0l1.6-5.62h.9l1.61,5.62h0l1.68-5.62h.85L48,171.85h-.87l-1.61-5.52h0l-1.6,5.52H43l-2.11-6.56Z"/><path class="cls-6" d="M57.34,168.57a4.29,4.29,0,0,1-.2,1.31,3.31,3.31,0,0,1-.61,1.13,2.9,2.9,0,0,1-2.29,1,2.84,2.84,0,0,1-2.24-1,4.07,4.07,0,0,1,0-5,3.08,3.08,0,0,1,4.51,0A3.65,3.65,0,0,1,57.34,168.57Zm-.8,0a3.8,3.8,0,0,0-.13-1,2.81,2.81,0,0,0-.42-.9,2.25,2.25,0,0,0-.72-.65,2,2,0,0,0-1-.25,2,2,0,0,0-1,.24,2.24,2.24,0,0,0-.72.64,2.85,2.85,0,0,0-.44.9,3.66,3.66,0,0,0-.15,1,3.58,3.58,0,0,0,.14,1,3,3,0,0,0,.43.9,2.24,2.24,0,0,0,.71.65,2,2,0,0,0,1,.25,2,2,0,0,0,1-.24,2.33,2.33,0,0,0,.72-.63,2.8,2.8,0,0,0,.45-.89A3.54,3.54,0,0,0,56.54,168.57Z"/><path class="cls-6" d="M59.14,171.85v-6.56h.74v1.54h0a2.56,2.56,0,0,1,.9-1.2,2.32,2.32,0,0,1,1.38-.43h.29v.8h-.18a2.22,2.22,0,0,0-1.71.69,2.36,2.36,0,0,0-.64,1.69v3.48Z"/><path class="cls-6" d="M69.35,162.77v9.08h-.74V170.6h0a2,2,0,0,1-.39.59,2.57,2.57,0,0,1-.56.45,2.8,2.8,0,0,1-.67.29,2.63,2.63,0,0,1-.72.1,2.8,2.8,0,0,1-1.28-.28A2.68,2.68,0,0,1,64,171a3.32,3.32,0,0,1-.56-1.11,4.68,4.68,0,0,1-.19-1.34,4.83,4.83,0,0,1,.17-1.29,3.31,3.31,0,0,1,.53-1.11,2.69,2.69,0,0,1,.92-.78,3,3,0,0,1,2-.2,2.56,2.56,0,0,1,.65.27,2.25,2.25,0,0,1,.54.45,2.07,2.07,0,0,1,.38.63h0v-3.77Zm-5.26,5.8a4.17,4.17,0,0,0,.05.65,3.7,3.7,0,0,0,.16.64,2.82,2.82,0,0,0,.28.58,2.15,2.15,0,0,0,.41.48,1.8,1.8,0,0,0,.55.32,2,2,0,0,0,.7.12,2.08,2.08,0,0,0,1.73-.84,2.66,2.66,0,0,0,.43-.89,4,4,0,0,0,.14-1.06,4,4,0,0,0-.13-1,2.73,2.73,0,0,0-.41-.9,2.06,2.06,0,0,0-1.76-.88,1.94,1.94,0,0,0-.68.11,1.8,1.8,0,0,0-.54.31,2.15,2.15,0,0,0-.41.47,2.8,2.8,0,0,0-.29.58,3.52,3.52,0,0,0-.17.65A4.25,4.25,0,0,0,64.09,168.57Z"/><rect class="cls-8" x="217.5" y="261" width="94" height="35"/><rect class="cls-9" x="217.5" y="261" width="94" height="35"/><path class="cls-2" d="M251,279.86a2.32,2.32,0,0,1-.3,1.21,2.44,2.44,0,0,1-.8.82,3.67,3.67,0,0,1-1.16.47,6.23,6.23,0,0,1-1.38.15,5.46,5.46,0,0,1-1.41-.17,3.52,3.52,0,0,1-1.13-.51A2.52,2.52,0,0,1,244,281a2.32,2.32,0,0,1-.28-1.15v-.1h1.51v.05a1.31,1.31,0,0,0,.17.67,1.43,1.43,0,0,0,.46.48,2.2,2.2,0,0,0,.69.28,3.84,3.84,0,0,0,1.63,0,2.16,2.16,0,0,0,.65-.25,1.33,1.33,0,0,0,.44-.41,1,1,0,0,0,.16-.58.92.92,0,0,0-.38-.76,3.4,3.4,0,0,0-1.2-.51l-1.89-.49a2.94,2.94,0,0,1-1.48-.78,2,2,0,0,1-.48-1.39,2.19,2.19,0,0,1,.27-1.09,2.38,2.38,0,0,1,.72-.79,3.36,3.36,0,0,1,1.06-.48,5.06,5.06,0,0,1,2.5,0,3.37,3.37,0,0,1,1,.45,2.34,2.34,0,0,1,.73.77,2.2,2.2,0,0,1,.29,1.09h-1.5a1.22,1.22,0,0,0-.16-.52,1.28,1.28,0,0,0-.38-.4,1.89,1.89,0,0,0-.56-.26,2.64,2.64,0,0,0-.73-.09,3.08,3.08,0,0,0-.68.07,1.82,1.82,0,0,0-.57.22,1.17,1.17,0,0,0-.39.38,1,1,0,0,0-.14.55,1,1,0,0,0,.07.39.82.82,0,0,0,.21.28,1.12,1.12,0,0,0,.32.19,3.16,3.16,0,0,0,.42.13l2.08.53a3.84,3.84,0,0,1,1.75.87A2,2,0,0,1,251,279.86Z"/><path class="cls-2" d="M253.92,272.87v1.42h-1.49v-1.42Zm0,2.86v6.57h-1.49v-6.57Z"/><path class="cls-2" d="M258.59,275.55a2.47,2.47,0,0,1,1.24.3,2.15,2.15,0,0,1,.83.85h0v-1h1.43v6.17a3.35,3.35,0,0,1-.24,1.31,2.39,2.39,0,0,1-.67.92,2.81,2.81,0,0,1-1.06.54,5.09,5.09,0,0,1-1.39.18,4.71,4.71,0,0,1-1-.11,3.05,3.05,0,0,1-.89-.33,2.16,2.16,0,0,1-.67-.59,1.73,1.73,0,0,1-.32-.87h1.48a1,1,0,0,0,.5.66,2.1,2.1,0,0,0,1,.22,1.72,1.72,0,0,0,1.32-.49,2,2,0,0,0,.46-1.4v-1h0a2,2,0,0,1-.84.84,2.6,2.6,0,0,1-1.26.3,3.08,3.08,0,0,1-1.3-.25,2.52,2.52,0,0,1-.91-.69,2.92,2.92,0,0,1-.54-1,4.6,4.6,0,0,1-.18-1.3,3.94,3.94,0,0,1,.19-1.21,3.06,3.06,0,0,1,.56-1,2.73,2.73,0,0,1,.93-.72A2.91,2.91,0,0,1,258.59,275.55Zm-1.47,3.25a3.32,3.32,0,0,0,.11.87,1.94,1.94,0,0,0,.33.68,1.52,1.52,0,0,0,.55.44,1.74,1.74,0,0,0,.76.16,1.67,1.67,0,0,0,.77-.17,1.74,1.74,0,0,0,.57-.46,2,2,0,0,0,.35-.66,2.55,2.55,0,0,0,.12-.78,3.41,3.41,0,0,0-.11-.88,2.06,2.06,0,0,0-.33-.71,1.56,1.56,0,0,0-.56-.47,1.77,1.77,0,0,0-.8-.17,1.65,1.65,0,0,0-.8.18,1.55,1.55,0,0,0-.54.48,2.12,2.12,0,0,0-.31.69A3.1,3.1,0,0,0,257.13,278.8Z"/><path class="cls-2" d="M267.71,275.55a3.43,3.43,0,0,1,1.13.16,1.87,1.87,0,0,1,.77.49,1.94,1.94,0,0,1,.43.81,4.15,4.15,0,0,1,.14,1.12v4.17h-1.48v-3.9a2.06,2.06,0,0,0-.33-1.27,1.24,1.24,0,0,0-1.06-.43,1.54,1.54,0,0,0-1.27.52,2.24,2.24,0,0,0-.42,1.45v3.63h-1.48v-6.57h1.42v1h0a2.16,2.16,0,0,1,.38-.5,2.32,2.32,0,0,1,.5-.37,2.45,2.45,0,0,1,.58-.23A2.65,2.65,0,0,1,267.71,275.55Z"/><path class="cls-2" d="M277.27,272.87v1.42h-1.49v-1.42Zm0,2.86v6.57h-1.49v-6.57Z"/><path class="cls-2" d="M282.84,275.55a3.43,3.43,0,0,1,1.13.16,1.87,1.87,0,0,1,.77.49,1.94,1.94,0,0,1,.43.81,4.15,4.15,0,0,1,.14,1.12v4.17h-1.48v-3.9a2.06,2.06,0,0,0-.33-1.27,1.24,1.24,0,0,0-1.06-.43,1.54,1.54,0,0,0-1.27.52,2.24,2.24,0,0,0-.42,1.45v3.63h-1.48v-6.57h1.42v1h0a2.16,2.16,0,0,1,.38-.5,2.32,2.32,0,0,1,.5-.37,2.45,2.45,0,0,1,.58-.23A2.65,2.65,0,0,1,282.84,275.55Z"/><line class="cls-10" x1="217" y1="296" x2="312" y2="296"/><path class="cls-8" d="M142.8,273.55a4.77,4.77,0,0,1,1.35.19,3.6,3.6,0,0,1,1.1.53,3,3,0,0,1,.79.85,3.13,3.13,0,0,1,.42,1.13H145a1.86,1.86,0,0,0-.27-.56,1.83,1.83,0,0,0-.46-.46,2.29,2.29,0,0,0-.64-.31,2.68,2.68,0,0,0-.8-.12,2.63,2.63,0,0,0-1.22.27,2.53,2.53,0,0,0-.86.71,3.08,3.08,0,0,0-.51,1A4.37,4.37,0,0,0,140,278a4.29,4.29,0,0,0,.16,1.17,3,3,0,0,0,.5,1,2.56,2.56,0,0,0,.86.72,2.62,2.62,0,0,0,1.24.28,2.5,2.5,0,0,0,.87-.14,2.1,2.1,0,0,0,.68-.4,2.07,2.07,0,0,0,.47-.61,2.65,2.65,0,0,0,.25-.78h1.5a4.14,4.14,0,0,1-.36,1.26,3.27,3.27,0,0,1-.75,1,3.38,3.38,0,0,1-1.13.68,4.37,4.37,0,0,1-1.53.25,4.48,4.48,0,0,1-1.77-.34,4,4,0,0,1-1.35-.93,4.11,4.11,0,0,1-.86-1.41,5.07,5.07,0,0,1-.3-1.78,5.2,5.2,0,0,1,.28-1.72,4.25,4.25,0,0,1,.83-1.43,3.93,3.93,0,0,1,1.35-1A4.42,4.42,0,0,1,142.8,273.55Z"/><path class="cls-8" d="M154.4,282.3l-.45.09-.4,0a1.89,1.89,0,0,1-.43,0,.94.94,0,0,1-.35-.15.85.85,0,0,1-.25-.29,1.25,1.25,0,0,1-.13-.45h0a2.7,2.7,0,0,1-.47.46,2.41,2.41,0,0,1-.54.31,3.51,3.51,0,0,1-1.35.24,2.54,2.54,0,0,1-1.66-.51,1.74,1.74,0,0,1-.62-1.45,1.68,1.68,0,0,1,.62-1.42,2.2,2.2,0,0,1,.6-.32,4.94,4.94,0,0,1,.75-.2c.27-.05.55-.09.85-.12l.9-.1.35-.07a.83.83,0,0,0,.27-.13.59.59,0,0,0,.18-.22.77.77,0,0,0,.06-.33,1,1,0,0,0-.32-.79,2.23,2.23,0,0,0-2.11,0,1,1,0,0,0-.4.73H148a2,2,0,0,1,.29-.9,2,2,0,0,1,.64-.62,3,3,0,0,1,.93-.36,5.37,5.37,0,0,1,1.16-.12,3.6,3.6,0,0,1,2.1.5,1.63,1.63,0,0,1,.69,1.41V281a.46.46,0,0,0,.08.3.35.35,0,0,0,.28.1h.12l.13,0ZM152.3,279h0a1,1,0,0,1-.56.23l-.5.08-.67.11a2.31,2.31,0,0,0-1,.37.85.85,0,0,0-.33.72.88.88,0,0,0,.38.76,1.55,1.55,0,0,0,.9.24,1.88,1.88,0,0,0,1.3-.43,1.57,1.57,0,0,0,.51-1.24Z"/><path class="cls-8" d="M159.37,275.55a3.43,3.43,0,0,1,1.13.16,1.87,1.87,0,0,1,.77.49,1.94,1.94,0,0,1,.43.81,4.15,4.15,0,0,1,.14,1.12v4.17h-1.48v-3.9a2.06,2.06,0,0,0-.33-1.27,1.24,1.24,0,0,0-1.06-.43,1.54,1.54,0,0,0-1.27.52,2.24,2.24,0,0,0-.42,1.45v3.63H155.8v-6.57h1.42v1h0a2.16,2.16,0,0,1,.38-.5,2.32,2.32,0,0,1,.5-.37,2.45,2.45,0,0,1,.58-.23A2.65,2.65,0,0,1,159.37,275.55Z"/><path class="cls-8" d="M166.87,275.55a4.32,4.32,0,0,1,1.09.13,2.94,2.94,0,0,1,.92.41,2.3,2.3,0,0,1,.66.68,2.25,2.25,0,0,1,.32.95H168.4a1.2,1.2,0,0,0-.49-.78,1.78,1.78,0,0,0-1-.27,1.62,1.62,0,0,0-.84.21,1.83,1.83,0,0,0-.58.54,2.39,2.39,0,0,0-.34.76,3.32,3.32,0,0,0,0,1.67,2.4,2.4,0,0,0,.33.75,1.82,1.82,0,0,0,.57.55,1.59,1.59,0,0,0,.84.21,1.92,1.92,0,0,0,.62-.09,1.54,1.54,0,0,0,.49-.26,1.41,1.41,0,0,0,.34-.41,1.74,1.74,0,0,0,.19-.53h1.44a3,3,0,0,1-.34,1,2.6,2.6,0,0,1-.64.76,2.88,2.88,0,0,1-.91.49,3.69,3.69,0,0,1-1.18.18,3.51,3.51,0,0,1-1.36-.25,3.11,3.11,0,0,1-1.06-.71,3.22,3.22,0,0,1-.68-1.08,3.72,3.72,0,0,1-.24-1.37,4.12,4.12,0,0,1,.22-1.36,3.27,3.27,0,0,1,.65-1.12,3.05,3.05,0,0,1,1.06-.77A3.52,3.52,0,0,1,166.87,275.55Z"/><path class="cls-8" d="M174.38,275.55a3.18,3.18,0,0,1,1.38.29,2.86,2.86,0,0,1,1,.77,3.32,3.32,0,0,1,.6,1.13,4.62,4.62,0,0,1,.2,1.37v.26h-5a2.68,2.68,0,0,0,.14.81,1.88,1.88,0,0,0,.36.63,1.59,1.59,0,0,0,.56.41,1.79,1.79,0,0,0,.74.15,2,2,0,0,0,1-.23,1.72,1.72,0,0,0,.63-.6h1.41a3.05,3.05,0,0,1-.46.81,2.91,2.91,0,0,1-.68.62,3.16,3.16,0,0,1-.87.39,3.86,3.86,0,0,1-1,.13,3.46,3.46,0,0,1-1.37-.26,2.9,2.9,0,0,1-1-.72,3.14,3.14,0,0,1-.64-1.1,4.18,4.18,0,0,1-.22-1.4,3.92,3.92,0,0,1,.22-1.33,3.26,3.26,0,0,1,.65-1.11,3.11,3.11,0,0,1,1-.76A3.33,3.33,0,0,1,174.38,275.55Zm1.68,2.85a2.64,2.64,0,0,0-.17-.71,1.7,1.7,0,0,0-.34-.55,1.47,1.47,0,0,0-.52-.35,2,2,0,0,0-1.41,0,1.56,1.56,0,0,0-.53.36,1.8,1.8,0,0,0-.36.55,2.47,2.47,0,0,0-.18.7Z"/><path class="cls-8" d="M180.64,273.22v9.08h-1.49v-9.08Z"/><path class="cls-11" d="M49,47.09a2.34,2.34,0,0,1-.7,1.8,2.55,2.55,0,0,1-1.8.64h-3v3.67h-.82V44.64h3.86a2.53,2.53,0,0,1,1.8.65A2.33,2.33,0,0,1,49,47.09Zm-.81,0a1.68,1.68,0,0,0-.5-1.29,2.11,2.11,0,0,0-1.49-.46H43.45v3.5H46.3a2,2,0,0,0,1.35-.45A1.65,1.65,0,0,0,48.16,47.09Z"/><path class="cls-11" d="M51.38,44.12v9.08h-.8V44.12Z"/><path class="cls-11" d="M56.16,46.46a2.71,2.71,0,0,1,1.3.29,2.6,2.6,0,0,1,.9.79,3.44,3.44,0,0,1,.52,1.13A5.22,5.22,0,0,1,59,50v.13H54a3.58,3.58,0,0,0,.13.94,2.58,2.58,0,0,0,.39.83,2,2,0,0,0,.66.59,1.92,1.92,0,0,0,.95.22,2.44,2.44,0,0,0,.7-.09,2,2,0,0,0,.56-.26,1.76,1.76,0,0,0,.42-.39,2.4,2.4,0,0,0,.29-.49h.79a3,3,0,0,1-.38.79,2.48,2.48,0,0,1-.59.6,2.68,2.68,0,0,1-.79.39,3.33,3.33,0,0,1-1,.14,2.94,2.94,0,0,1-1.3-.27,2.56,2.56,0,0,1-.91-.73,3.12,3.12,0,0,1-.54-1.1,5.13,5.13,0,0,1-.18-1.37,4.66,4.66,0,0,1,.18-1.28,3.37,3.37,0,0,1,.54-1.11,2.74,2.74,0,0,1,.92-.78A2.79,2.79,0,0,1,56.16,46.46Zm2.09,3a3,3,0,0,0-.16-.85,2.44,2.44,0,0,0-.41-.75,2.07,2.07,0,0,0-.65-.54,1.84,1.84,0,0,0-.88-.21,1.84,1.84,0,0,0-1.5.7,2.69,2.69,0,0,0-.42.75,4.32,4.32,0,0,0-.23.9Z"/><path class="cls-11" d="M66.39,53.16l-.27,0h-.24a1.37,1.37,0,0,1-.44-.06.65.65,0,0,1-.29-.2.82.82,0,0,1-.16-.36,2.42,2.42,0,0,1,0-.53h0a3,3,0,0,1-1,1,2.79,2.79,0,0,1-1.35.29,2.46,2.46,0,0,1-1.6-.5,1.75,1.75,0,0,1-.6-1.43A1.66,1.66,0,0,1,61,50a6.79,6.79,0,0,1,3-.69,2,2,0,0,0,.44-.08.75.75,0,0,0,.29-.16.59.59,0,0,0,.16-.26,1.28,1.28,0,0,0,0-.38,1.25,1.25,0,0,0-.4-1,2,2,0,0,0-1.31-.34,2.61,2.61,0,0,0-.72.09,1.65,1.65,0,0,0-.53.25,1.13,1.13,0,0,0-.33.39,1.23,1.23,0,0,0-.13.49h-.8a2,2,0,0,1,.22-.78,1.77,1.77,0,0,1,.51-.59,2.43,2.43,0,0,1,.81-.38,4,4,0,0,1,1.09-.13,2.64,2.64,0,0,1,1.83.54,2,2,0,0,1,.59,1.52v3.56a.47.47,0,0,0,.11.33.46.46,0,0,0,.36.12.7.7,0,0,0,.25,0Zm-1.52-3.54h0q-.12.22-.77.31l-.67.1-.74.12a2.67,2.67,0,0,0-1.17.44,1,1,0,0,0-.39.84,1.16,1.16,0,0,0,.43.94,1.6,1.6,0,0,0,1,.35,2.36,2.36,0,0,0,1.63-.58,1.85,1.85,0,0,0,.65-1.44Z"/><path class="cls-11" d="M72.73,51.42a1.67,1.67,0,0,1-.22.88,1.89,1.89,0,0,1-.59.62,2.74,2.74,0,0,1-.84.36,4,4,0,0,1-1,.12A3.66,3.66,0,0,1,69,53.25a2.4,2.4,0,0,1-.8-.41,2,2,0,0,1-.53-.64,2.4,2.4,0,0,1-.25-.85h.81a1.7,1.7,0,0,0,.2.56,1.4,1.4,0,0,0,.38.43,1.8,1.8,0,0,0,.57.28,2.56,2.56,0,0,0,.74.1,3,3,0,0,0,.6-.06,2.05,2.05,0,0,0,.58-.21,1.36,1.36,0,0,0,.44-.38,1,1,0,0,0,.18-.59.93.93,0,0,0-.34-.73,2.6,2.6,0,0,0-1.13-.46l-1-.22a4,4,0,0,1-.77-.24,2.1,2.1,0,0,1-.58-.37,1.46,1.46,0,0,1-.36-.5,1.61,1.61,0,0,1-.12-.65,1.57,1.57,0,0,1,.21-.84,1.77,1.77,0,0,1,.56-.57,2.53,2.53,0,0,1,.78-.33,3.77,3.77,0,0,1,.89-.11,3.27,3.27,0,0,1,.92.12,2.28,2.28,0,0,1,.73.35,1.83,1.83,0,0,1,.5.57,2.08,2.08,0,0,1,.25.78h-.8a1.33,1.33,0,0,0-.19-.5,1.24,1.24,0,0,0-.36-.37,1.69,1.69,0,0,0-.5-.22,2.36,2.36,0,0,0-.61-.08,2.85,2.85,0,0,0-.58.06,1.59,1.59,0,0,0-.51.19,1.07,1.07,0,0,0-.36.35,1,1,0,0,0-.13.53.74.74,0,0,0,.13.44,1.27,1.27,0,0,0,.33.32,1.92,1.92,0,0,0,.44.22,3.65,3.65,0,0,0,.46.13l1.37.3a2.85,2.85,0,0,1,.59.21,1.77,1.77,0,0,1,.5.35,1.64,1.64,0,0,1,.34.51A1.72,1.72,0,0,1,72.73,51.42Z"/><path class="cls-11" d="M77.07,46.46a2.71,2.71,0,0,1,1.3.29,2.6,2.6,0,0,1,.9.79,3.44,3.44,0,0,1,.52,1.13A5.22,5.22,0,0,1,80,50v.13H74.9a3.58,3.58,0,0,0,.13.94,2.58,2.58,0,0,0,.39.83,2,2,0,0,0,.66.59,1.92,1.92,0,0,0,.95.22,2.44,2.44,0,0,0,.7-.09,2,2,0,0,0,.56-.26A1.76,1.76,0,0,0,78.7,52a2.4,2.4,0,0,0,.29-.49h.79a3,3,0,0,1-.38.79,2.48,2.48,0,0,1-.59.6,2.68,2.68,0,0,1-.79.39,3.33,3.33,0,0,1-1,.14,2.94,2.94,0,0,1-1.3-.27,2.56,2.56,0,0,1-.91-.73,3.12,3.12,0,0,1-.54-1.1,5.13,5.13,0,0,1-.18-1.37,4.66,4.66,0,0,1,.18-1.28,3.37,3.37,0,0,1,.54-1.11,2.74,2.74,0,0,1,.92-.78A2.79,2.79,0,0,1,77.07,46.46Zm2.09,3a3,3,0,0,0-.16-.85,2.44,2.44,0,0,0-.41-.75,2.07,2.07,0,0,0-.65-.54,1.84,1.84,0,0,0-.88-.21,1.84,1.84,0,0,0-1.5.7,2.69,2.69,0,0,0-.42.75,4.32,4.32,0,0,0-.23.9Z"/><path class="cls-11" d="M90,51.42a1.67,1.67,0,0,1-.22.88,1.89,1.89,0,0,1-.59.62,2.74,2.74,0,0,1-.84.36,4,4,0,0,1-1,.12,3.66,3.66,0,0,1-1.07-.14,2.4,2.4,0,0,1-.8-.41A2,2,0,0,1,85,52.2a2.4,2.4,0,0,1-.25-.85h.81a1.7,1.7,0,0,0,.2.56,1.4,1.4,0,0,0,.38.43,1.8,1.8,0,0,0,.57.28,2.56,2.56,0,0,0,.74.1,3,3,0,0,0,.6-.06,2.05,2.05,0,0,0,.58-.21,1.36,1.36,0,0,0,.44-.38,1,1,0,0,0,.18-.59.93.93,0,0,0-.34-.73,2.6,2.6,0,0,0-1.13-.46l-1-.22a4,4,0,0,1-.77-.24,2.1,2.1,0,0,1-.58-.37,1.46,1.46,0,0,1-.36-.5,1.61,1.61,0,0,1-.12-.65,1.57,1.57,0,0,1,.21-.84,1.77,1.77,0,0,1,.56-.57,2.53,2.53,0,0,1,.78-.33,3.77,3.77,0,0,1,.89-.11,3.27,3.27,0,0,1,.92.12,2.28,2.28,0,0,1,.73.35,1.83,1.83,0,0,1,.5.57,2.08,2.08,0,0,1,.25.78H89a1.33,1.33,0,0,0-.19-.5,1.24,1.24,0,0,0-.36-.37,1.69,1.69,0,0,0-.5-.22,2.36,2.36,0,0,0-.61-.08,2.85,2.85,0,0,0-.58.06,1.59,1.59,0,0,0-.51.19,1.07,1.07,0,0,0-.36.35,1,1,0,0,0-.13.53.74.74,0,0,0,.13.44,1.27,1.27,0,0,0,.33.32,1.92,1.92,0,0,0,.44.22,3.65,3.65,0,0,0,.46.13l1.37.3a2.85,2.85,0,0,1,.59.21,1.77,1.77,0,0,1,.5.35,1.64,1.64,0,0,1,.34.51A1.72,1.72,0,0,1,90,51.42Z"/><path class="cls-11" d="M92.61,43.77v1.29h-.8V43.77Zm0,2.87v6.56h-.8V46.64Z"/><path class="cls-11" d="M97.39,46.46a2.29,2.29,0,0,1,.64.09,2.32,2.32,0,0,1,1.08.68,2.26,2.26,0,0,1,.37.56h0V46.64h.8v6.1a3.27,3.27,0,0,1-.73,2.3,2.88,2.88,0,0,1-2.21.79,4.54,4.54,0,0,1-.93-.09,2.71,2.71,0,0,1-.81-.3,1.88,1.88,0,0,1-.6-.55,1.68,1.68,0,0,1-.28-.82h.8a1.24,1.24,0,0,0,.56.81,2.33,2.33,0,0,0,1.25.28A2,2,0,0,0,99,54.54a2.65,2.65,0,0,0,.54-1.81V51.55h0a2.53,2.53,0,0,1-.37.57,2.28,2.28,0,0,1-.5.43,2.35,2.35,0,0,1-.6.27,2.4,2.4,0,0,1-.67.09A3.16,3.16,0,0,1,96,52.68a2.43,2.43,0,0,1-.91-.67,2.85,2.85,0,0,1-.54-1,4.64,4.64,0,0,1-.18-1.31,4,4,0,0,1,.19-1.22,3,3,0,0,1,.56-1,2.74,2.74,0,0,1,.93-.7A3,3,0,0,1,97.39,46.46Zm-2.16,3.29a3.48,3.48,0,0,0,.12,1,2.29,2.29,0,0,0,.38.8,1.87,1.87,0,0,0,.67.54,2.13,2.13,0,0,0,1,.2,1.9,1.9,0,0,0,.91-.21,2.1,2.1,0,0,0,.67-.56,2.53,2.53,0,0,0,.42-.8,3,3,0,0,0,.14-.93,3.72,3.72,0,0,0-.12-.93A2.66,2.66,0,0,0,99,48a2,2,0,0,0-.66-.61,1.87,1.87,0,0,0-1-.24,2,2,0,0,0-1,.22,2,2,0,0,0-.67.59,2.55,2.55,0,0,0-.39.84A3.87,3.87,0,0,0,95.23,49.74Z"/><path class="cls-11" d="M105.41,46.46a3.35,3.35,0,0,1,1.08.15,1.83,1.83,0,0,1,.74.46,1.87,1.87,0,0,1,.43.77,3.79,3.79,0,0,1,.14,1.08v4.28H107V49.06a2.2,2.2,0,0,0-.41-1.45,1.54,1.54,0,0,0-1.25-.49,2.07,2.07,0,0,0-.86.17,1.88,1.88,0,0,0-.65.48,2.15,2.15,0,0,0-.41.71,2.64,2.64,0,0,0-.14.88v3.84h-.8V46.64h.8v1.14h0a2,2,0,0,1,.35-.56,2.18,2.18,0,0,1,.49-.42,2.33,2.33,0,0,1,.6-.26A2.48,2.48,0,0,1,105.41,46.46Z"/><path class="cls-11" d="M114.3,43.77v1.29h-.8V43.77Zm0,2.87v6.56h-.8V46.64Z"/><path class="cls-11" d="M119.42,46.46a3.35,3.35,0,0,1,1.08.15,1.83,1.83,0,0,1,.74.46,1.87,1.87,0,0,1,.43.77,3.79,3.79,0,0,1,.14,1.08v4.28H121V49.06a2.2,2.2,0,0,0-.41-1.45,1.54,1.54,0,0,0-1.25-.49,2.07,2.07,0,0,0-.86.17,1.88,1.88,0,0,0-.65.48,2.15,2.15,0,0,0-.41.71,2.64,2.64,0,0,0-.14.88v3.84h-.8V46.64h.8v1.14h0a2,2,0,0,1,.35-.56,2.18,2.18,0,0,1,.49-.42,2.33,2.33,0,0,1,.6-.26A2.48,2.48,0,0,1,119.42,46.46Z"/><path class="cls-11" d="M130.13,53.27h-.66a3,3,0,0,1-.68-.06,1,1,0,0,1-.45-.23.89.89,0,0,1-.25-.43,2.65,2.65,0,0,1-.07-.68V47.32H126.7v-.67H128v-2h.8v2h1.5v.67h-1.5v4.48a1.75,1.75,0,0,0,0,.34.64.64,0,0,0,.11.26.5.5,0,0,0,.21.16.87.87,0,0,0,.35.06h.6l.21,0v.68Z"/><path class="cls-11" d="M137.9,49.92a4.29,4.29,0,0,1-.2,1.31,3.31,3.31,0,0,1-.61,1.13,2.9,2.9,0,0,1-2.29,1,2.84,2.84,0,0,1-2.24-1,4.07,4.07,0,0,1,0-5,3.08,3.08,0,0,1,4.51,0A3.65,3.65,0,0,1,137.9,49.92Zm-.8,0a3.8,3.8,0,0,0-.13-1,2.82,2.82,0,0,0-.42-.9,2.24,2.24,0,0,0-.72-.65,2,2,0,0,0-1-.25,2,2,0,0,0-1,.24,2.24,2.24,0,0,0-.72.63,2.86,2.86,0,0,0-.44.9,3.66,3.66,0,0,0-.15,1,3.58,3.58,0,0,0,.14,1,3,3,0,0,0,.43.9,2.24,2.24,0,0,0,.71.65,2,2,0,0,0,1,.25,2,2,0,0,0,1-.24,2.34,2.34,0,0,0,.72-.63,2.8,2.8,0,0,0,.45-.89A3.54,3.54,0,0,0,137.1,49.92Z"/><path class="cls-11" d="M145.77,46.46a2.71,2.71,0,0,1,1.3.29,2.6,2.6,0,0,1,.9.79,3.44,3.44,0,0,1,.52,1.13,5.22,5.22,0,0,1,.17,1.34v.13h-5.05a3.58,3.58,0,0,0,.13.94,2.58,2.58,0,0,0,.39.83,2,2,0,0,0,.66.59,1.92,1.92,0,0,0,.95.22,2.44,2.44,0,0,0,.7-.09,2,2,0,0,0,.56-.26,1.76,1.76,0,0,0,.42-.39,2.4,2.4,0,0,0,.29-.49h.79a3,3,0,0,1-.38.79,2.48,2.48,0,0,1-.59.6,2.68,2.68,0,0,1-.79.39,3.33,3.33,0,0,1-1,.14,2.94,2.94,0,0,1-1.3-.27,2.56,2.56,0,0,1-.91-.73,3.12,3.12,0,0,1-.54-1.1,5.13,5.13,0,0,1-.18-1.37,4.66,4.66,0,0,1,.18-1.28,3.37,3.37,0,0,1,.54-1.11,2.74,2.74,0,0,1,.92-.78A2.79,2.79,0,0,1,145.77,46.46Zm2.09,3a3,3,0,0,0-.16-.85,2.44,2.44,0,0,0-.41-.75,2.07,2.07,0,0,0-.65-.54,1.84,1.84,0,0,0-.88-.21,1.84,1.84,0,0,0-1.5.7,2.69,2.69,0,0,0-.42.75,4.32,4.32,0,0,0-.23.9Z"/><path class="cls-11" d="M156.06,44.12v9.08h-.74V52h0a2,2,0,0,1-.39.59,2.58,2.58,0,0,1-.56.46,2.8,2.8,0,0,1-.67.29,2.63,2.63,0,0,1-.72.1,2.8,2.8,0,0,1-1.28-.28,2.68,2.68,0,0,1-.92-.75,3.32,3.32,0,0,1-.56-1.11,4.68,4.68,0,0,1-.19-1.34,4.83,4.83,0,0,1,.17-1.29,3.31,3.31,0,0,1,.53-1.11,2.68,2.68,0,0,1,.92-.78,3,3,0,0,1,2-.2,2.56,2.56,0,0,1,.65.27,2.26,2.26,0,0,1,.54.45,2.07,2.07,0,0,1,.38.63h0V44.12Zm-5.26,5.8a4.17,4.17,0,0,0,.05.65,3.7,3.7,0,0,0,.16.64,2.81,2.81,0,0,0,.28.58,2.15,2.15,0,0,0,.41.48,1.8,1.8,0,0,0,.55.32,2,2,0,0,0,.7.12,2.07,2.07,0,0,0,1.73-.84,2.66,2.66,0,0,0,.43-.89,4,4,0,0,0,.14-1.06,4,4,0,0,0-.13-1,2.73,2.73,0,0,0-.41-.9,2.06,2.06,0,0,0-1.76-.87,1.94,1.94,0,0,0-.68.11,1.8,1.8,0,0,0-.54.31,2.14,2.14,0,0,0-.41.46,2.81,2.81,0,0,0-.29.58,3.51,3.51,0,0,0-.17.65A4.26,4.26,0,0,0,150.81,49.92Z"/><path class="cls-11" d="M159.09,43.77v1.29h-.8V43.77Zm0,2.87v6.56h-.8V46.64Z"/><path class="cls-11" d="M163.93,53.27h-.66a3,3,0,0,1-.68-.06,1,1,0,0,1-.45-.23.89.89,0,0,1-.25-.43,2.65,2.65,0,0,1-.07-.68V47.32h-1.32v-.67h1.32v-2h.8v2h1.5v.67h-1.5v4.48a1.75,1.75,0,0,0,0,.34.64.64,0,0,0,.11.26.5.5,0,0,0,.21.16.87.87,0,0,0,.35.06h.6l.21,0v.68Z"/><path class="cls-11" d="M172,53.27h-.66a3,3,0,0,1-.68-.06,1,1,0,0,1-.45-.23.89.89,0,0,1-.25-.43,2.65,2.65,0,0,1-.07-.68V47.32h-1.32v-.67h1.32v-2h.8v2h1.5v.67h-1.5v4.48a1.75,1.75,0,0,0,0,.34.64.64,0,0,0,.11.26.5.5,0,0,0,.21.16.87.87,0,0,0,.35.06h.6l.21,0v.68Z"/><path class="cls-11" d="M178.51,53.21V49.06a2.2,2.2,0,0,0-.41-1.45,1.54,1.54,0,0,0-1.25-.49,2,2,0,0,0-.87.18,1.91,1.91,0,0,0-.65.48,2.14,2.14,0,0,0-.4.71,2.66,2.66,0,0,0-.14.87v3.84H174V44.12h.8v3.66h0a1.89,1.89,0,0,1,.34-.56,2.12,2.12,0,0,1,.5-.42,2.43,2.43,0,0,1,.61-.26,2.46,2.46,0,0,1,.67-.09,3.35,3.35,0,0,1,1.08.15,1.83,1.83,0,0,1,.74.46,1.87,1.87,0,0,1,.43.77,3.79,3.79,0,0,1,.14,1.08v4.28Z"/><path class="cls-11" d="M184.06,46.46a2.71,2.71,0,0,1,1.3.29,2.6,2.6,0,0,1,.9.79,3.44,3.44,0,0,1,.52,1.13,5.22,5.22,0,0,1,.17,1.34v.13H181.9a3.58,3.58,0,0,0,.13.94,2.58,2.58,0,0,0,.39.83,2,2,0,0,0,.66.59,1.92,1.92,0,0,0,.95.22,2.44,2.44,0,0,0,.7-.09,2,2,0,0,0,.56-.26,1.76,1.76,0,0,0,.42-.39,2.4,2.4,0,0,0,.29-.49h.79a3,3,0,0,1-.38.79,2.48,2.48,0,0,1-.59.6,2.68,2.68,0,0,1-.79.39,3.33,3.33,0,0,1-1,.14,2.94,2.94,0,0,1-1.3-.27,2.56,2.56,0,0,1-.91-.73,3.12,3.12,0,0,1-.54-1.1,5.13,5.13,0,0,1-.18-1.37,4.66,4.66,0,0,1,.18-1.28,3.37,3.37,0,0,1,.54-1.11,2.74,2.74,0,0,1,.92-.78A2.79,2.79,0,0,1,184.06,46.46Zm2.09,3a3,3,0,0,0-.16-.85,2.44,2.44,0,0,0-.41-.75,2.07,2.07,0,0,0-.65-.54,1.84,1.84,0,0,0-.88-.21,1.84,1.84,0,0,0-1.5.7,2.69,2.69,0,0,0-.42.75,4.32,4.32,0,0,0-.23.9Z"/><path class="cls-11" d="M197.85,44.12v9.08h-.74V52h0a2,2,0,0,1-.39.59,2.58,2.58,0,0,1-.56.46,2.8,2.8,0,0,1-.67.29,2.63,2.63,0,0,1-.72.1,2.8,2.8,0,0,1-1.28-.28,2.68,2.68,0,0,1-.92-.75,3.32,3.32,0,0,1-.56-1.11,4.68,4.68,0,0,1-.19-1.34,4.83,4.83,0,0,1,.17-1.29,3.31,3.31,0,0,1,.53-1.11,2.68,2.68,0,0,1,.92-.78,3,3,0,0,1,2-.2,2.56,2.56,0,0,1,.65.27,2.26,2.26,0,0,1,.54.45,2.07,2.07,0,0,1,.38.63h0V44.12Zm-5.26,5.8a4.17,4.17,0,0,0,.05.65,3.7,3.7,0,0,0,.16.64,2.81,2.81,0,0,0,.28.58,2.15,2.15,0,0,0,.41.48,1.8,1.8,0,0,0,.55.32,2,2,0,0,0,.7.12,2.07,2.07,0,0,0,1.73-.84,2.66,2.66,0,0,0,.43-.89,4,4,0,0,0,.14-1.06,4,4,0,0,0-.13-1,2.73,2.73,0,0,0-.41-.9,2.06,2.06,0,0,0-1.76-.87,1.94,1.94,0,0,0-.68.11,1.8,1.8,0,0,0-.54.31,2.14,2.14,0,0,0-.41.46,2.81,2.81,0,0,0-.29.58,3.51,3.51,0,0,0-.17.65A4.26,4.26,0,0,0,192.59,49.92Z"/><path class="cls-11" d="M205.71,53.16l-.27,0h-.24a1.37,1.37,0,0,1-.44-.06.65.65,0,0,1-.29-.2.82.82,0,0,1-.16-.36,2.42,2.42,0,0,1,0-.53h0a3,3,0,0,1-1,1,2.79,2.79,0,0,1-1.35.29,2.46,2.46,0,0,1-1.6-.5,1.75,1.75,0,0,1-.6-1.43,1.66,1.66,0,0,1,.66-1.43,6.79,6.79,0,0,1,3-.69,2,2,0,0,0,.44-.08.75.75,0,0,0,.29-.16.59.59,0,0,0,.16-.26,1.28,1.28,0,0,0,0-.38,1.25,1.25,0,0,0-.4-1,2,2,0,0,0-1.31-.34,2.61,2.61,0,0,0-.72.09,1.65,1.65,0,0,0-.53.25,1.13,1.13,0,0,0-.33.39,1.23,1.23,0,0,0-.13.49h-.8a2,2,0,0,1,.22-.78,1.77,1.77,0,0,1,.51-.59,2.43,2.43,0,0,1,.81-.38,4,4,0,0,1,1.09-.13,2.64,2.64,0,0,1,1.83.54,2,2,0,0,1,.59,1.52v3.56a.47.47,0,0,0,.11.33.46.46,0,0,0,.36.12.7.7,0,0,0,.25,0Zm-1.52-3.54h0q-.12.22-.77.31l-.67.1-.74.12a2.67,2.67,0,0,0-1.17.44,1,1,0,0,0-.39.84,1.16,1.16,0,0,0,.43.94,1.6,1.6,0,0,0,1,.35,2.36,2.36,0,0,0,1.63-.58,1.85,1.85,0,0,0,.65-1.44Z"/><path class="cls-11" d="M212.05,51.42a1.67,1.67,0,0,1-.22.88,1.89,1.89,0,0,1-.59.62,2.74,2.74,0,0,1-.84.36,4,4,0,0,1-1,.12,3.66,3.66,0,0,1-1.07-.14,2.4,2.4,0,0,1-.8-.41,2,2,0,0,1-.53-.64,2.4,2.4,0,0,1-.25-.85h.81a1.7,1.7,0,0,0,.2.56,1.4,1.4,0,0,0,.38.43,1.8,1.8,0,0,0,.57.28,2.56,2.56,0,0,0,.74.1,3,3,0,0,0,.6-.06,2.05,2.05,0,0,0,.58-.21,1.36,1.36,0,0,0,.44-.38,1,1,0,0,0,.18-.59.93.93,0,0,0-.34-.73,2.6,2.6,0,0,0-1.13-.46l-1-.22a4,4,0,0,1-.77-.24,2.1,2.1,0,0,1-.58-.37,1.46,1.46,0,0,1-.36-.5,1.61,1.61,0,0,1-.12-.65,1.57,1.57,0,0,1,.21-.84,1.77,1.77,0,0,1,.56-.57,2.53,2.53,0,0,1,.78-.33,3.77,3.77,0,0,1,.89-.11,3.27,3.27,0,0,1,.92.12,2.28,2.28,0,0,1,.73.35,1.83,1.83,0,0,1,.5.57,2.08,2.08,0,0,1,.25.78H211a1.33,1.33,0,0,0-.19-.5,1.24,1.24,0,0,0-.36-.37,1.69,1.69,0,0,0-.5-.22,2.36,2.36,0,0,0-.61-.08,2.85,2.85,0,0,0-.58.06,1.59,1.59,0,0,0-.51.19,1.07,1.07,0,0,0-.36.35,1,1,0,0,0-.13.53.74.74,0,0,0,.13.44,1.27,1.27,0,0,0,.33.32,1.92,1.92,0,0,0,.44.22,3.65,3.65,0,0,0,.46.13l1.37.3a2.85,2.85,0,0,1,.59.21,1.77,1.77,0,0,1,.5.35,1.64,1.64,0,0,1,.34.51A1.72,1.72,0,0,1,212.05,51.42Z"/><path class="cls-11" d="M218.33,53.21V49.06a2.2,2.2,0,0,0-.41-1.45,1.54,1.54,0,0,0-1.25-.49,2,2,0,0,0-.87.18,1.91,1.91,0,0,0-.65.48,2.14,2.14,0,0,0-.4.71,2.66,2.66,0,0,0-.14.87v3.84h-.8V44.12h.8v3.66h0a1.89,1.89,0,0,1,.34-.56,2.12,2.12,0,0,1,.5-.42,2.43,2.43,0,0,1,.61-.26,2.46,2.46,0,0,1,.67-.09,3.35,3.35,0,0,1,1.08.15,1.83,1.83,0,0,1,.74.46,1.87,1.87,0,0,1,.43.77,3.79,3.79,0,0,1,.14,1.08v4.28Z"/><path class="cls-11" d="M227.37,49.92a4.77,4.77,0,0,1-.17,1.28,3.38,3.38,0,0,1-.53,1.11,2.69,2.69,0,0,1-.92.79,2.8,2.8,0,0,1-1.33.3,2.91,2.91,0,0,1-.72-.09A2.59,2.59,0,0,1,223,53a2.33,2.33,0,0,1-.55-.45,2.18,2.18,0,0,1-.4-.63h0v1.25h-.74V44.12h.8v3.77h0a2,2,0,0,1,.36-.61,2.25,2.25,0,0,1,.54-.45,2.49,2.49,0,0,1,.66-.28,3,3,0,0,1,2,.18,2.63,2.63,0,0,1,.91.75,3.34,3.34,0,0,1,.55,1.1A5,5,0,0,1,227.37,49.92Zm-.8,0a4.4,4.4,0,0,0,0-.65,3.53,3.53,0,0,0-.16-.64,2.89,2.89,0,0,0-.28-.59,2.08,2.08,0,0,0-.41-.48,1.83,1.83,0,0,0-.55-.32,2,2,0,0,0-.71-.12,2,2,0,0,0-1.73.85,2.72,2.72,0,0,0-.42.89,3.94,3.94,0,0,0-.14,1.06,4.21,4.21,0,0,0,.13,1,2.67,2.67,0,0,0,.4.9,2.08,2.08,0,0,0,.71.63,2.18,2.18,0,0,0,1.06.24,1.88,1.88,0,0,0,1-.23,2,2,0,0,0,.66-.63,2.91,2.91,0,0,0,.38-.89A4.9,4.9,0,0,0,226.56,49.92Z"/><path class="cls-11" d="M235,49.92a4.29,4.29,0,0,1-.2,1.31,3.31,3.31,0,0,1-.61,1.13,2.9,2.9,0,0,1-2.29,1,2.84,2.84,0,0,1-2.24-1,4.07,4.07,0,0,1,0-5,3.08,3.08,0,0,1,4.51,0A3.65,3.65,0,0,1,235,49.92Zm-.8,0a3.8,3.8,0,0,0-.13-1,2.82,2.82,0,0,0-.42-.9,2.24,2.24,0,0,0-.72-.65,2,2,0,0,0-1-.25,2,2,0,0,0-1,.24,2.24,2.24,0,0,0-.72.63,2.86,2.86,0,0,0-.44.9,3.66,3.66,0,0,0-.15,1,3.58,3.58,0,0,0,.14,1,3,3,0,0,0,.43.9,2.24,2.24,0,0,0,.71.65,2,2,0,0,0,1,.25,2,2,0,0,0,1-.24,2.34,2.34,0,0,0,.72-.63,2.8,2.8,0,0,0,.45-.89A3.54,3.54,0,0,0,234.24,49.92Z"/><path class="cls-11" d="M242.51,53.16l-.27,0H242a1.37,1.37,0,0,1-.44-.06.65.65,0,0,1-.29-.2.82.82,0,0,1-.16-.36,2.42,2.42,0,0,1,0-.53h0a3,3,0,0,1-1,1,2.79,2.79,0,0,1-1.35.29,2.46,2.46,0,0,1-1.6-.5,1.75,1.75,0,0,1-.6-1.43,1.66,1.66,0,0,1,.66-1.43,6.79,6.79,0,0,1,3-.69,2,2,0,0,0,.44-.08.75.75,0,0,0,.29-.16.59.59,0,0,0,.16-.26,1.28,1.28,0,0,0,0-.38,1.25,1.25,0,0,0-.4-1,2,2,0,0,0-1.31-.34,2.61,2.61,0,0,0-.72.09,1.65,1.65,0,0,0-.53.25,1.13,1.13,0,0,0-.33.39,1.23,1.23,0,0,0-.13.49h-.8a2,2,0,0,1,.22-.78,1.77,1.77,0,0,1,.51-.59,2.43,2.43,0,0,1,.81-.38,4,4,0,0,1,1.09-.13,2.64,2.64,0,0,1,1.83.54,2,2,0,0,1,.59,1.52v3.56a.47.47,0,0,0,.11.33.46.46,0,0,0,.36.12.7.7,0,0,0,.25,0ZM241,49.61h0q-.12.22-.77.31l-.67.1-.74.12a2.67,2.67,0,0,0-1.17.44,1,1,0,0,0-.39.84,1.16,1.16,0,0,0,.43.94,1.6,1.6,0,0,0,1,.35,2.36,2.36,0,0,0,1.63-.58A1.85,1.85,0,0,0,241,50.7Z"/><path class="cls-11" d="M243.95,53.21V46.64h.74v1.54h0a2.56,2.56,0,0,1,.9-1.2,2.32,2.32,0,0,1,1.38-.43h.29v.8h-.18a2.22,2.22,0,0,0-1.71.69,2.36,2.36,0,0,0-.64,1.69v3.48Z"/><path class="cls-11" d="M254.31,44.12v9.08h-.74V52h0a2,2,0,0,1-.39.59,2.58,2.58,0,0,1-.56.46,2.8,2.8,0,0,1-.67.29,2.63,2.63,0,0,1-.72.1,2.8,2.8,0,0,1-1.28-.28,2.68,2.68,0,0,1-.92-.75,3.32,3.32,0,0,1-.56-1.11,4.68,4.68,0,0,1-.19-1.34,4.83,4.83,0,0,1,.17-1.29,3.31,3.31,0,0,1,.53-1.11,2.68,2.68,0,0,1,.92-.78,3,3,0,0,1,2-.2,2.56,2.56,0,0,1,.65.27,2.26,2.26,0,0,1,.54.45,2.07,2.07,0,0,1,.38.63h0V44.12Zm-5.26,5.8a4.17,4.17,0,0,0,.05.65,3.7,3.7,0,0,0,.16.64,2.81,2.81,0,0,0,.28.58,2.15,2.15,0,0,0,.41.48,1.8,1.8,0,0,0,.55.32,2,2,0,0,0,.7.12,2.07,2.07,0,0,0,1.73-.84,2.66,2.66,0,0,0,.43-.89,4,4,0,0,0,.14-1.06,4,4,0,0,0-.13-1A2.73,2.73,0,0,0,253,48a2.06,2.06,0,0,0-1.76-.87,1.94,1.94,0,0,0-.68.11,1.8,1.8,0,0,0-.54.31,2.14,2.14,0,0,0-.41.46,2.81,2.81,0,0,0-.29.58,3.51,3.51,0,0,0-.17.65A4.26,4.26,0,0,0,249.06,49.92Z"/><path class="cls-11" d="M257.82,51.93v1.27h-1.11V51.93Z"/><path class="cls-11" d="M22.5,40a8.44,8.44,0,1,1-8.44,8.44A8.45,8.45,0,0,1,22.5,40m0-1.56a10,10,0,1,0,10,10,10,10,0,0,0-10-10M25.68,54v-1.1H24a.34.34,0,0,1-.34-.34V46.53h-3.6v1.25h.44c.45,0,.84.39.84,1.09v3.71a.34.34,0,0,1-.34.34H19.37V54ZM24,43.87a1.45,1.45,0,1,0-1.45,1.46A1.46,1.46,0,0,0,24,43.87"/></g></svg>