<svg xmlns="http://www.w3.org/2000/svg" xmlns:xlink="http://www.w3.org/1999/xlink" viewBox="0 0 156 70"><defs><style>.cls-1,.cls-15,.cls-4{fill:none;}.cls-2{fill:#f0f0f0;}.cls-3{fill:#e6e6e6;}.cls-4{stroke:#aaa;}.cls-15,.cls-4{stroke-miterlimit:10;}.cls-5{fill:#464646;}.cls-6{opacity:0.9;}.cls-7{clip-path:url(#clip-path);}.cls-8{fill:#f3d084;}.cls-9{opacity:0.85;}.cls-10{clip-path:url(#clip-path-2);}.cls-11{clip-path:url(#clip-path-3);}.cls-12{clip-path:url(#clip-path-4);}.cls-13{clip-path:url(#clip-path-5);}.cls-14{fill:#ff6c00;}.cls-15{stroke:#ff6c00;stroke-width:0.4px;}</style><clipPath id="clip-path"><rect class="cls-1" x="9" y="3" width="12" height="12"/></clipPath><clipPath id="clip-path-2"><rect class="cls-1" x="9" y="15" width="114" height="12"/></clipPath><clipPath id="clip-path-3"><rect class="cls-1" x="9" y="27" width="12" height="12"/></clipPath><clipPath id="clip-path-4"><rect class="cls-1" x="111" y="3" width="12" height="12"/></clipPath><clipPath id="clip-path-5"><rect class="cls-1" x="111" y="27" width="12" height="12"/></clipPath></defs><title>Artboard 25</title><g id="Layer_1" data-name="Layer 1"><rect class="cls-2" x="9.5" y="3.5" width="113" height="35"/><path class="cls-3" d="M122,38H10V4H122Zm1-35H9V39H123Z"/><line class="cls-4" x1="9" y1="38.5" x2="123" y2="38.5"/><path class="cls-5" d="M28.1,15.61v9.08H26.73v-1h0a2.07,2.07,0,0,1-.37.5,2.16,2.16,0,0,1-.49.37,2.44,2.44,0,0,1-.59.23,2.79,2.79,0,0,1-.67.08,2.72,2.72,0,0,1-1.28-.29,2.76,2.76,0,0,1-.92-.77,3.38,3.38,0,0,1-.56-1.12,4.69,4.69,0,0,1-.19-1.33,4.52,4.52,0,0,1,.18-1.26,3.34,3.34,0,0,1,.54-1.1,2.75,2.75,0,0,1,.91-.77A2.91,2.91,0,0,1,25.19,18a2.49,2.49,0,0,1,.58.21,2.07,2.07,0,0,1,.49.35,2,2,0,0,1,.37.5h0V15.61Zm-5,5.79a3.63,3.63,0,0,0,.1.82,2.44,2.44,0,0,0,.31.76,1.81,1.81,0,0,0,.56.56,1.5,1.5,0,0,0,.83.22,1.73,1.73,0,0,0,.79-.17,1.58,1.58,0,0,0,.57-.49,2.25,2.25,0,0,0,.35-.75,3.68,3.68,0,0,0,.12-1,3.73,3.73,0,0,0-.1-.84,2.3,2.3,0,0,0-.31-.75,1.72,1.72,0,0,0-.57-.54,1.64,1.64,0,0,0-.85-.21,1.56,1.56,0,0,0-.82.2,1.7,1.7,0,0,0-.55.53,2.35,2.35,0,0,0-.32.75A3.93,3.93,0,0,0,23.07,21.4Z"/><path class="cls-5" d="M32.83,17.94a3,3,0,0,1,1.34.28,2.78,2.78,0,0,1,1,.77,3.33,3.33,0,0,1,.58,1.13,4.76,4.76,0,0,1,.19,1.37v.26H31.07a2.77,2.77,0,0,0,.13.81,1.9,1.9,0,0,0,.35.63,1.55,1.55,0,0,0,.54.41,1.7,1.7,0,0,0,.72.15,1.9,1.9,0,0,0,1-.23,1.7,1.7,0,0,0,.61-.6h1.37a3.06,3.06,0,0,1-.45.81,2.83,2.83,0,0,1-.66.62,3,3,0,0,1-.85.39,3.66,3.66,0,0,1-1,.13,3.28,3.28,0,0,1-1.33-.26,2.82,2.82,0,0,1-1-.72,3.18,3.18,0,0,1-.62-1.1,4.31,4.31,0,0,1-.22-1.4,4,4,0,0,1,.22-1.33,3.3,3.3,0,0,1,.63-1.1,3,3,0,0,1,1-.76A3.16,3.16,0,0,1,32.83,17.94Zm1.63,2.85a2.77,2.77,0,0,0-.16-.71,1.73,1.73,0,0,0-.33-.55,1.43,1.43,0,0,0-.5-.35,1.91,1.91,0,0,0-1.37,0,1.51,1.51,0,0,0-.52.36,1.79,1.79,0,0,0-.35.55,2.54,2.54,0,0,0-.17.7Z"/><path class="cls-5" d="M39.35,19.14v5.55H37.9V19.14H36.63v-1H37.9v-.51a2,2,0,0,1,.52-1.52,1.64,1.64,0,0,1,.63-.36,3,3,0,0,1,.9-.12h.43l.52,0v1.11l-.18,0-.2,0h-.34a.86.86,0,0,0-.65.2,1,1,0,0,0-.18.68v.51h1.44v1Z"/><path class="cls-5" d="M48.08,24.69l-.44.09-.39,0a1.79,1.79,0,0,1-.42,0,.91.91,0,0,1-.34-.16.84.84,0,0,1-.24-.29,1.28,1.28,0,0,1-.12-.45h0a2.67,2.67,0,0,1-.45.46,2.3,2.3,0,0,1-.52.31,3.32,3.32,0,0,1-1.31.24,2.42,2.42,0,0,1-1.62-.51,1.77,1.77,0,0,1-.6-1.45,1.7,1.7,0,0,1,.6-1.42,2.11,2.11,0,0,1,.58-.32,4.68,4.68,0,0,1,.73-.2q.39-.08.82-.13l.87-.1.34-.07a.8.8,0,0,0,.27-.13.59.59,0,0,0,.17-.22A.79.79,0,0,0,46,20a1,1,0,0,0-.31-.79,2.11,2.11,0,0,0-2.05,0,1,1,0,0,0-.39.73H41.83a2,2,0,0,1,.28-.9,2,2,0,0,1,.62-.62,2.88,2.88,0,0,1,.9-.36,5.08,5.08,0,0,1,1.13-.12,3.42,3.42,0,0,1,2,.5,1.65,1.65,0,0,1,.67,1.41v3.54a.47.47,0,0,0,.08.3.33.33,0,0,0,.27.1H48l.13,0Zm-2-3.35h0a1,1,0,0,1-.54.23l-.48.08-.65.11a2.2,2.2,0,0,0-1,.37.87.87,0,0,0-.32.72.89.89,0,0,0,.37.76,1.48,1.48,0,0,0,.87.24,1.79,1.79,0,0,0,1.27-.43A1.59,1.59,0,0,0,46,22.18Z"/><path class="cls-5" d="M53.94,24.69v-1h0a2.25,2.25,0,0,1-.39.52,2.3,2.3,0,0,1-.5.37,2.49,2.49,0,0,1-.58.23,2.54,2.54,0,0,1-.64.08A2.3,2.3,0,0,1,50,24.25a2.81,2.81,0,0,1-.57-1.95V18.12h1.44v4a2.89,2.89,0,0,0,.08.7,1.37,1.37,0,0,0,.24.52,1,1,0,0,0,.42.32,1.82,1.82,0,0,0,1.36,0,1.37,1.37,0,0,0,.5-.43,1.86,1.86,0,0,0,.29-.66,3.72,3.72,0,0,0,.09-.85v-3.5h1.44v6.57Z"/><path class="cls-5" d="M58.7,15.61v9.08H57.26V15.61Z"/><path class="cls-5" d="M63.92,24.74h-.83a4.59,4.59,0,0,1-.74-.06,1.58,1.58,0,0,1-.6-.22,1.12,1.12,0,0,1-.4-.45,1.67,1.67,0,0,1-.15-.76V19.14H59.92v-1h1.29v-2h1.45v2h1.5v1h-1.5v3.72a.83.83,0,0,0,.17.58.8.8,0,0,0,.59.18H64l.17,0v1.14Z"/><path class="cls-5" d="M75.46,21.41a4.85,4.85,0,0,1-.17,1.28,3.47,3.47,0,0,1-.52,1.11,2.65,2.65,0,0,1-.88.79,2.51,2.51,0,0,1-1.25.3,2.93,2.93,0,0,1-1.36-.3,1.9,1.9,0,0,1-.86-.87h0v1H69V15.61h1.44v3.47h0a1.88,1.88,0,0,1,.36-.47,2.16,2.16,0,0,1,.5-.36A2.68,2.68,0,0,1,72,18a2.85,2.85,0,0,1,.68-.08,2.52,2.52,0,0,1,1.24.29,2.66,2.66,0,0,1,.88.78,3.4,3.4,0,0,1,.52,1.11A4.87,4.87,0,0,1,75.46,21.41Zm-1.45,0a3.74,3.74,0,0,0-.09-.82,2.52,2.52,0,0,0-.3-.76,1.71,1.71,0,0,0-.54-.56,1.5,1.5,0,0,0-.83-.22,1.57,1.57,0,0,0-.82.21,1.71,1.71,0,0,0-.56.54,2.39,2.39,0,0,0-.32.75,3.63,3.63,0,0,0-.1.86,3.68,3.68,0,0,0,.1.83,2.37,2.37,0,0,0,.31.76,1.76,1.76,0,0,0,.56.55,1.57,1.57,0,0,0,.84.21,1.49,1.49,0,0,0,.8-.21A1.69,1.69,0,0,0,73.6,23a2.43,2.43,0,0,0,.31-.75A3.94,3.94,0,0,0,74,21.41Z"/><path class="cls-5" d="M81.58,24.69v-1h0a2.25,2.25,0,0,1-.39.52,2.3,2.3,0,0,1-.5.37,2.49,2.49,0,0,1-.58.23,2.54,2.54,0,0,1-.64.08,2.3,2.3,0,0,1-1.78-.63,2.81,2.81,0,0,1-.57-1.95V18.12h1.44v4a2.89,2.89,0,0,0,.08.7,1.37,1.37,0,0,0,.24.52,1,1,0,0,0,.42.32,1.82,1.82,0,0,0,1.36,0,1.37,1.37,0,0,0,.5-.43,1.86,1.86,0,0,0,.29-.66,3.72,3.72,0,0,0,.09-.85v-3.5h1.44v6.57Z"/><path class="cls-5" d="M88.12,24.74h-.83a4.59,4.59,0,0,1-.74-.06,1.58,1.58,0,0,1-.6-.22,1.12,1.12,0,0,1-.4-.45,1.67,1.67,0,0,1-.15-.76V19.14H84.12v-1h1.29v-2h1.45v2h1.5v1h-1.5v3.72a.83.83,0,0,0,.17.58.8.8,0,0,0,.59.18h.57l.17,0v1.14Z"/><path class="cls-5" d="M93,24.74h-.83a4.59,4.59,0,0,1-.74-.06,1.58,1.58,0,0,1-.6-.22,1.12,1.12,0,0,1-.4-.45,1.67,1.67,0,0,1-.15-.76V19.14H89v-1H90.3v-2h1.45v2h1.5v1h-1.5v3.72a.83.83,0,0,0,.17.58.8.8,0,0,0,.59.18h.57l.17,0v1.14Z"/><path class="cls-5" d="M100.88,21.41a4.09,4.09,0,0,1-.23,1.38A3.1,3.1,0,0,1,100,23.9a3,3,0,0,1-1,.73,3.49,3.49,0,0,1-1.36.25,3.12,3.12,0,0,1-2.38-1,3.53,3.53,0,0,1-.91-2.51,3.54,3.54,0,0,1,.9-2.51,3.1,3.1,0,0,1,2.39-1,3.15,3.15,0,0,1,2.4,1A3.54,3.54,0,0,1,100.88,21.41Zm-1.45,0a3.59,3.59,0,0,0-.11-.92,2.21,2.21,0,0,0-.35-.75,1.68,1.68,0,0,0-.58-.5,1.75,1.75,0,0,0-.83-.18,1.71,1.71,0,0,0-.77.17,1.62,1.62,0,0,0-.57.48,2.23,2.23,0,0,0-.36.74,3.79,3.79,0,0,0,0,1.9,2.19,2.19,0,0,0,.35.74,1.67,1.67,0,0,0,.58.49,1.7,1.7,0,0,0,.79.18,1.72,1.72,0,0,0,.79-.18,1.68,1.68,0,0,0,.58-.49,2.24,2.24,0,0,0,.36-.74A3.41,3.41,0,0,0,99.43,21.41Z"/><path class="cls-5" d="M106,17.94a3.25,3.25,0,0,1,1.1.16,1.8,1.8,0,0,1,.74.49,2,2,0,0,1,.42.81,4.28,4.28,0,0,1,.13,1.12v4.17h-1.44v-3.9a2.11,2.11,0,0,0-.32-1.27,1.19,1.19,0,0,0-1-.43,1.48,1.48,0,0,0-1.23.52,2.28,2.28,0,0,0-.41,1.45v3.63h-1.44V18.12h1.38v1h0a2.14,2.14,0,0,1,.37-.5,2.24,2.24,0,0,1,.48-.37,2.34,2.34,0,0,1,.57-.23A2.51,2.51,0,0,1,106,17.94Z"/><g class="cls-6"><g class="cls-7"><rect class="cls-8" x="9" y="3" width="12" height="12"/></g></g><g class="cls-9"><g class="cls-10"><rect class="cls-8" x="9" y="15" width="114" height="12"/></g></g><g class="cls-6"><g class="cls-11"><rect class="cls-8" x="9" y="27" width="12" height="12"/></g></g><g class="cls-6"><g class="cls-12"><rect class="cls-8" x="111" y="3" width="12" height="12"/></g></g><g class="cls-6"><g class="cls-13"><rect class="cls-8" x="111" y="27" width="12" height="12"/></g></g><path class="cls-14" d="M109.85,54.88V50.59h-1.52v-.37l.6,0a1.59,1.59,0,0,0,.38-.08.87.87,0,0,0,.43-.35,1.64,1.64,0,0,0,.21-.65h.42v5.77Z"/><path class="cls-14" d="M114.65,49.06a1.88,1.88,0,0,1,1.3.44,1.52,1.52,0,0,1,.49,1.19,1.88,1.88,0,0,1-.37,1.11,4.63,4.63,0,0,1-1.34,1.11,5.55,5.55,0,0,0-1.11.82,1.33,1.33,0,0,0-.37.68h3.21v.48h-3.8a2,2,0,0,1,.37-1.16,4.41,4.41,0,0,1,1.29-1.11,5.84,5.84,0,0,0,1.26-1,1.4,1.4,0,0,0,.34-.94,1.09,1.09,0,0,0-.36-.85,1.34,1.34,0,0,0-.93-.33,1.36,1.36,0,0,0-.57.11,1.21,1.21,0,0,0-.4.29,1.18,1.18,0,0,0-.24.41,1.46,1.46,0,0,0-.08.47v.11h-.52v-.08a2,2,0,0,1,.11-.65,1.61,1.61,0,0,1,.34-.56,1.64,1.64,0,0,1,.57-.39A2,2,0,0,1,114.65,49.06Z"/><path class="cls-14" d="M121.84,52.69a3.19,3.19,0,0,1-.12.85,2.25,2.25,0,0,1-.36.74,1.79,1.79,0,0,1-.61.52,1.85,1.85,0,0,1-.88.2,1.89,1.89,0,0,1-.47-.06,1.62,1.62,0,0,1-.43-.18,1.52,1.52,0,0,1-.36-.3,1.47,1.47,0,0,1-.26-.42h0V56.5h-.54v-6h.5v.83h0a1.49,1.49,0,0,1,.26-.41,1.53,1.53,0,0,1,.37-.3,1.77,1.77,0,0,1,.44-.19,1.87,1.87,0,0,1,.49-.06,1.91,1.91,0,0,1,.86.18,1.76,1.76,0,0,1,.62.5,2.22,2.22,0,0,1,.37.74A3.11,3.11,0,0,1,121.84,52.69Zm-.54,0a3,3,0,0,0-.07-.65,1.89,1.89,0,0,0-.24-.6,1.38,1.38,0,0,0-.45-.44,1.27,1.27,0,0,0-.68-.17,1.39,1.39,0,0,0-1.13.47,2.14,2.14,0,0,0-.39,1.4,2.79,2.79,0,0,0,.08.69,1.79,1.79,0,0,0,.27.6,1.39,1.39,0,0,0,.48.42,1.45,1.45,0,0,0,.71.16,1.25,1.25,0,0,0,.64-.16A1.35,1.35,0,0,0,121,54a1.91,1.91,0,0,0,.26-.6A2.77,2.77,0,0,0,121.31,52.69Z"/><path class="cls-14" d="M123.31,50.5l1.25,1.66,1.22-1.66h.67l-1.58,2.09,1.71,2.28h-.68L124.51,53l-1.34,1.84h-.66l1.7-2.27-1.57-2.1Z"/><path class="cls-14" d="M7.85,54.88V50.59H6.33v-.37l.6,0a1.59,1.59,0,0,0,.38-.08.87.87,0,0,0,.43-.35,1.64,1.64,0,0,0,.21-.65h.42v5.77Z"/><path class="cls-14" d="M12.65,49.06a1.88,1.88,0,0,1,1.3.44,1.52,1.52,0,0,1,.49,1.19,1.88,1.88,0,0,1-.37,1.11,4.63,4.63,0,0,1-1.34,1.11,5.55,5.55,0,0,0-1.11.82,1.33,1.33,0,0,0-.37.68h3.21v.48h-3.8A2,2,0,0,1,11,53.72a4.41,4.41,0,0,1,1.29-1.11,5.84,5.84,0,0,0,1.26-1,1.4,1.4,0,0,0,.34-.94,1.09,1.09,0,0,0-.36-.85,1.34,1.34,0,0,0-.93-.33,1.36,1.36,0,0,0-.57.11,1.21,1.21,0,0,0-.4.29,1.18,1.18,0,0,0-.24.41,1.46,1.46,0,0,0-.08.47v.11h-.52v-.08a2,2,0,0,1,.11-.65,1.61,1.61,0,0,1,.34-.56,1.64,1.64,0,0,1,.57-.39A2,2,0,0,1,12.65,49.06Z"/><path class="cls-14" d="M19.84,52.69a3.19,3.19,0,0,1-.12.85,2.25,2.25,0,0,1-.36.74,1.79,1.79,0,0,1-.61.52,1.85,1.85,0,0,1-.88.2,1.89,1.89,0,0,1-.47-.06,1.62,1.62,0,0,1-.43-.18,1.52,1.52,0,0,1-.36-.3,1.47,1.47,0,0,1-.26-.42h0V56.5h-.54v-6h.5v.83h0a1.49,1.49,0,0,1,.26-.41,1.53,1.53,0,0,1,.37-.3,1.77,1.77,0,0,1,.44-.19,1.87,1.87,0,0,1,.49-.06,1.91,1.91,0,0,1,.86.18,1.76,1.76,0,0,1,.62.5,2.22,2.22,0,0,1,.37.74A3.11,3.11,0,0,1,19.84,52.69Zm-.54,0a3,3,0,0,0-.07-.65,1.89,1.89,0,0,0-.24-.6,1.38,1.38,0,0,0-.45-.44,1.27,1.27,0,0,0-.68-.17,1.39,1.39,0,0,0-1.13.47,2.14,2.14,0,0,0-.39,1.4,2.79,2.79,0,0,0,.08.69,1.79,1.79,0,0,0,.27.6,1.39,1.39,0,0,0,.48.42,1.45,1.45,0,0,0,.71.16,1.25,1.25,0,0,0,.64-.16A1.35,1.35,0,0,0,19,54a1.91,1.91,0,0,0,.26-.6A2.77,2.77,0,0,0,19.31,52.69Z"/><path class="cls-14" d="M21.31,50.5l1.25,1.66,1.22-1.66h.67L22.86,52.6l1.71,2.28h-.68L22.51,53l-1.34,1.84H20.5l1.7-2.27-1.57-2.1Z"/><line class="cls-15" x1="130.06" y1="26.04" x2="130.06" y2="14.04"/><path class="cls-14" d="M135.69,22.37V18.09h-1.52v-.37l.6,0a1.59,1.59,0,0,0,.38-.08.87.87,0,0,0,.43-.35,1.64,1.64,0,0,0,.21-.65h.42v5.77Z"/><path class="cls-14" d="M140.5,16.56a1.88,1.88,0,0,1,1.3.44,1.52,1.52,0,0,1,.49,1.19,1.88,1.88,0,0,1-.37,1.11,4.63,4.63,0,0,1-1.34,1.11,5.55,5.55,0,0,0-1.11.82,1.33,1.33,0,0,0-.37.68h3.21v.48h-3.8a2,2,0,0,1,.37-1.16,4.41,4.41,0,0,1,1.29-1.11,5.84,5.84,0,0,0,1.26-1,1.4,1.4,0,0,0,.34-.94,1.09,1.09,0,0,0-.36-.85,1.34,1.34,0,0,0-.93-.33,1.36,1.36,0,0,0-.57.11,1.21,1.21,0,0,0-.4.29,1.18,1.18,0,0,0-.24.41,1.46,1.46,0,0,0-.08.47v.11h-.52v-.08a2,2,0,0,1,.11-.65,1.61,1.61,0,0,1,.34-.56,1.64,1.64,0,0,1,.57-.39A2,2,0,0,1,140.5,16.56Z"/><path class="cls-14" d="M147.69,20.19a3.19,3.19,0,0,1-.12.85,2.25,2.25,0,0,1-.36.74,1.79,1.79,0,0,1-.61.52,1.85,1.85,0,0,1-.88.2,1.89,1.89,0,0,1-.47-.06,1.62,1.62,0,0,1-.43-.18,1.52,1.52,0,0,1-.36-.3,1.47,1.47,0,0,1-.26-.42h0V24h-.54V18h.5v.83h0a1.49,1.49,0,0,1,.26-.41,1.53,1.53,0,0,1,.37-.3,1.77,1.77,0,0,1,.44-.19,1.87,1.87,0,0,1,.49-.06,1.91,1.91,0,0,1,.86.18,1.76,1.76,0,0,1,.62.5,2.22,2.22,0,0,1,.37.74A3.11,3.11,0,0,1,147.69,20.19Zm-.54,0a3,3,0,0,0-.07-.65,1.89,1.89,0,0,0-.24-.6,1.38,1.38,0,0,0-.45-.44,1.27,1.27,0,0,0-.68-.17,1.39,1.39,0,0,0-1.13.47,2.14,2.14,0,0,0-.39,1.4,2.79,2.79,0,0,0,.08.69,1.79,1.79,0,0,0,.27.6,1.39,1.39,0,0,0,.48.42,1.45,1.45,0,0,0,.71.16,1.25,1.25,0,0,0,.64-.16,1.35,1.35,0,0,0,.45-.42,1.91,1.91,0,0,0,.26-.6A2.77,2.77,0,0,0,147.15,20.19Z"/><path class="cls-14" d="M149.15,18l1.25,1.66L151.61,18h.67l-1.58,2.09,1.71,2.28h-.68l-1.37-1.84L149,22.37h-.66L150,20.1,148.48,18Z"/><line class="cls-15" x1="129.06" y1="14.04" x2="131.06" y2="14.04"/><line class="cls-15" x1="129.06" y1="26.04" x2="131.06" y2="26.04"/><line class="cls-15" x1="122.89" y1="45.04" x2="110.89" y2="45.04"/><line class="cls-15" x1="122.89" y1="46.04" x2="122.89" y2="44.04"/><line class="cls-15" x1="110.89" y1="46.04" x2="110.89" y2="44.04"/><line class="cls-15" x1="20.89" y1="45.04" x2="8.89" y2="45.04"/><line class="cls-15" x1="20.89" y1="46.04" x2="20.89" y2="44.04"/><line class="cls-15" x1="8.89" y1="46.04" x2="8.89" y2="44.04"/></g></svg>