<svg xmlns="http://www.w3.org/2000/svg" viewBox="0 0 220 131"><defs><style>.cls-1{fill:#ff6c00;}.cls-2{fill:#c8c8c8;}.cls-3{fill:#fff;}.cls-4{fill:#b4b4b4;}.cls-5{fill:#8c8c8c;}.cls-6{fill:#6e6e6e;}.cls-7{fill:#389aea;}.cls-8{fill:#87c4ff;}.cls-9{opacity:0.3;}.cls-10{opacity:0.5;}</style></defs><title>Artboard 32</title><g id="Layer_1" data-name="Layer 1"><path class="cls-1" d="M22,16.32l5,7.25h0V16.32h.81v8.57h-.91l-5-7.25h0v7.25h-.82V16.32Z"/><path class="cls-1" d="M35.87,21.61a4.29,4.29,0,0,1-.2,1.31A3.31,3.31,0,0,1,35.06,24a2.9,2.9,0,0,1-2.29,1,2.84,2.84,0,0,1-2.24-1,3.65,3.65,0,0,1-.86-2.5,3.65,3.65,0,0,1,.85-2.49,3.08,3.08,0,0,1,4.51,0A3.65,3.65,0,0,1,35.87,21.61Zm-.8,0a3.8,3.8,0,0,0-.13-1,2.81,2.81,0,0,0-.42-.9,2.25,2.25,0,0,0-.72-.65,2,2,0,0,0-1-.25,2,2,0,0,0-1,.24,2.24,2.24,0,0,0-.72.64,2.85,2.85,0,0,0-.44.9,3.66,3.66,0,0,0-.15,1,3.58,3.58,0,0,0,.14,1,3,3,0,0,0,.43.9,2.24,2.24,0,0,0,.71.65,2,2,0,0,0,1,.25,2,2,0,0,0,1-.24,2.33,2.33,0,0,0,.72-.63,2.8,2.8,0,0,0,.45-.89A3.54,3.54,0,0,0,35.07,21.61Z"/><path class="cls-1" d="M37.67,24.89V18.33h.74v1.54h0a2.56,2.56,0,0,1,.9-1.2,2.32,2.32,0,0,1,1.38-.43H41V19h-.18a2.22,2.22,0,0,0-1.71.69,2.36,2.36,0,0,0-.64,1.69v3.48Z"/><path class="cls-1" d="M50.57,24.89V20.43a1.73,1.73,0,0,0-.37-1.22,1.85,1.85,0,0,0-2.5.21,2.8,2.8,0,0,0-.45,1.71v3.77h-.81V20.4a1.81,1.81,0,0,0-.34-1.17,1.25,1.25,0,0,0-1-.42,1.72,1.72,0,0,0-1.46.65,2.72,2.72,0,0,0-.5,1.71v3.72h-.8V18.33h.74v1.1h0a2.26,2.26,0,0,1,2.15-1.29,2.44,2.44,0,0,1,.64.08,1.86,1.86,0,0,1,.54.24,1.66,1.66,0,0,1,.42.4,1.86,1.86,0,0,1,.28.55,2.16,2.16,0,0,1,.85-1,2.4,2.4,0,0,1,1.24-.32,2.12,2.12,0,0,1,1.63.58,2.36,2.36,0,0,1,.54,1.66v4.51Z"/><path class="cls-1" d="M59.23,24.84l-.27,0h-.24a1.37,1.37,0,0,1-.44-.06.65.65,0,0,1-.29-.2.82.82,0,0,1-.16-.35,2.43,2.43,0,0,1,0-.53h0a3,3,0,0,1-1,1,2.79,2.79,0,0,1-1.35.29,2.46,2.46,0,0,1-1.6-.5,1.75,1.75,0,0,1-.6-1.43,1.66,1.66,0,0,1,.66-1.43,6.79,6.79,0,0,1,3-.69,2,2,0,0,0,.44-.08.75.75,0,0,0,.29-.16.6.6,0,0,0,.16-.26,1.28,1.28,0,0,0,0-.38,1.24,1.24,0,0,0-.4-1A2,2,0,0,0,56,18.81a2.61,2.61,0,0,0-.72.09,1.65,1.65,0,0,0-.53.25,1.13,1.13,0,0,0-.33.39,1.23,1.23,0,0,0-.13.49h-.8a2,2,0,0,1,.22-.78,1.78,1.78,0,0,1,.51-.59,2.43,2.43,0,0,1,.81-.38,4,4,0,0,1,1.09-.13,2.64,2.64,0,0,1,1.83.54,2,2,0,0,1,.59,1.52v3.56a.47.47,0,0,0,.11.33.46.46,0,0,0,.36.12.7.7,0,0,0,.25,0ZM57.71,21.3h0q-.12.22-.77.31l-.67.1-.74.12a2.67,2.67,0,0,0-1.17.44,1,1,0,0,0-.39.84,1.16,1.16,0,0,0,.43.94,1.6,1.6,0,0,0,1,.35,2.36,2.36,0,0,0,1.63-.58,1.85,1.85,0,0,0,.65-1.44Z"/><path class="cls-1" d="M61.49,15.81v9.08h-.8V15.81Z"/><path class="cls-1" d="M29.9,64.34v3.71H35V64.34h.81v8.55H35V68.74H29.9v4.15h-.82V64.34Z"/><path class="cls-1" d="M43.82,69.61a4.29,4.29,0,0,1-.2,1.31A3.31,3.31,0,0,1,43,72a2.9,2.9,0,0,1-2.29,1,2.84,2.84,0,0,1-2.24-1,4.07,4.07,0,0,1,0-5,3.08,3.08,0,0,1,4.51,0A3.65,3.65,0,0,1,43.82,69.61Zm-.8,0a3.8,3.8,0,0,0-.13-1,2.81,2.81,0,0,0-.42-.9,2.25,2.25,0,0,0-.72-.65,2,2,0,0,0-1-.25,2,2,0,0,0-1,.24,2.24,2.24,0,0,0-.72.64,2.85,2.85,0,0,0-.44.9,3.66,3.66,0,0,0-.15,1,3.58,3.58,0,0,0,.14,1,3,3,0,0,0,.43.9,2.24,2.24,0,0,0,.71.65,2,2,0,0,0,1,.25,2,2,0,0,0,1-.24,2.33,2.33,0,0,0,.72-.63,2.8,2.8,0,0,0,.45-.89A3.54,3.54,0,0,0,43,69.61Z"/><path class="cls-1" d="M45.65,66.33l2.06,5.76h0l2-5.76h.83l-2.46,6.56h-.85l-2.54-6.56Z"/><path class="cls-1" d="M54.5,66.14a2.71,2.71,0,0,1,1.3.29,2.6,2.6,0,0,1,.9.79,3.45,3.45,0,0,1,.52,1.13,5.21,5.21,0,0,1,.17,1.34v.13H52.34a3.58,3.58,0,0,0,.13.94,2.59,2.59,0,0,0,.39.83,2,2,0,0,0,.66.59,1.92,1.92,0,0,0,.95.22,2.44,2.44,0,0,0,.7-.09,2,2,0,0,0,.56-.26,1.76,1.76,0,0,0,.42-.39,2.41,2.41,0,0,0,.29-.49h.79a3,3,0,0,1-.38.79,2.48,2.48,0,0,1-.59.6,2.68,2.68,0,0,1-.79.39,3.34,3.34,0,0,1-1,.14,2.94,2.94,0,0,1-1.3-.27,2.56,2.56,0,0,1-.91-.73,3.12,3.12,0,0,1-.54-1.1,5.14,5.14,0,0,1-.18-1.37,4.66,4.66,0,0,1,.18-1.28,3.36,3.36,0,0,1,.54-1.11,2.74,2.74,0,0,1,.92-.78A2.79,2.79,0,0,1,54.5,66.14Zm2.09,3a3,3,0,0,0-.16-.85,2.44,2.44,0,0,0-.41-.75,2.07,2.07,0,0,0-.65-.54,1.84,1.84,0,0,0-.88-.21,1.84,1.84,0,0,0-1.5.7,2.7,2.7,0,0,0-.42.75,4.31,4.31,0,0,0-.23.9Z"/><path class="cls-1" d="M59.06,72.89V66.33h.74v1.54h0a2.56,2.56,0,0,1,.9-1.2,2.32,2.32,0,0,1,1.38-.43h.29V67h-.18a2.22,2.22,0,0,0-1.71.69,2.36,2.36,0,0,0-.64,1.69v3.48Z"/><path class="cls-1" d="M15.1,112.32a4.11,4.11,0,0,1,3,1,5.51,5.51,0,0,1,0,6.52,4,4,0,0,1-2.89,1H12.25v-8.57Zm-.22,7.87a3.57,3.57,0,0,0,2.61-.83,3.76,3.76,0,0,0,.84-2.75,3.82,3.82,0,0,0-.82-2.74,3.73,3.73,0,0,0-2.75-.84H13.07v7.17Z"/><path class="cls-1" d="M21.69,111.46v1.29h-.8v-1.29Zm0,2.87v6.56h-.8v-6.56Z"/><path class="cls-1" d="M28.81,119.11a1.67,1.67,0,0,1-.22.88,1.89,1.89,0,0,1-.59.62,2.74,2.74,0,0,1-.84.36,4,4,0,0,1-1,.12,3.66,3.66,0,0,1-1.07-.14,2.4,2.4,0,0,1-.8-.41,2,2,0,0,1-.53-.64,2.4,2.4,0,0,1-.25-.85h.81a1.7,1.7,0,0,0,.2.56,1.41,1.41,0,0,0,.38.43,1.8,1.8,0,0,0,.57.28,2.56,2.56,0,0,0,.74.1,3,3,0,0,0,.6-.06,2.05,2.05,0,0,0,.58-.21,1.35,1.35,0,0,0,.44-.38,1,1,0,0,0,.18-.59.93.93,0,0,0-.34-.73,2.6,2.6,0,0,0-1.13-.46l-1-.22a4,4,0,0,1-.77-.24,2.1,2.1,0,0,1-.58-.37,1.46,1.46,0,0,1-.36-.5,1.62,1.62,0,0,1-.12-.65,1.57,1.57,0,0,1,.21-.83,1.78,1.78,0,0,1,.56-.57,2.53,2.53,0,0,1,.78-.33,3.77,3.77,0,0,1,.89-.11,3.27,3.27,0,0,1,.92.12,2.29,2.29,0,0,1,.73.35,1.83,1.83,0,0,1,.5.57,2.08,2.08,0,0,1,.25.78h-.8a1.32,1.32,0,0,0-.19-.5,1.24,1.24,0,0,0-.36-.37,1.69,1.69,0,0,0-.5-.22,2.36,2.36,0,0,0-.61-.08,2.85,2.85,0,0,0-.58.06,1.59,1.59,0,0,0-.51.19,1.07,1.07,0,0,0-.36.35,1,1,0,0,0-.13.53.74.74,0,0,0,.13.44,1.27,1.27,0,0,0,.33.32,1.93,1.93,0,0,0,.44.22,3.64,3.64,0,0,0,.46.13l1.37.3a2.85,2.85,0,0,1,.59.21,1.77,1.77,0,0,1,.5.35,1.64,1.64,0,0,1,.34.51A1.71,1.71,0,0,1,28.81,119.11Z"/><path class="cls-1" d="M36.24,120.84l-.27,0h-.24a1.37,1.37,0,0,1-.44-.06.65.65,0,0,1-.29-.2.82.82,0,0,1-.16-.35,2.43,2.43,0,0,1,0-.53h0a3,3,0,0,1-1,1,2.79,2.79,0,0,1-1.35.29,2.46,2.46,0,0,1-1.6-.5,1.75,1.75,0,0,1-.6-1.43,1.66,1.66,0,0,1,.66-1.43,6.79,6.79,0,0,1,3-.69,2,2,0,0,0,.44-.08.75.75,0,0,0,.29-.16.6.6,0,0,0,.16-.26,1.28,1.28,0,0,0,0-.38,1.24,1.24,0,0,0-.4-1,2,2,0,0,0-1.31-.34,2.61,2.61,0,0,0-.72.09,1.65,1.65,0,0,0-.53.25,1.13,1.13,0,0,0-.33.39,1.23,1.23,0,0,0-.13.49h-.8a2,2,0,0,1,.22-.78,1.78,1.78,0,0,1,.51-.59,2.43,2.43,0,0,1,.81-.38,4,4,0,0,1,1.09-.13,2.64,2.64,0,0,1,1.83.54,2,2,0,0,1,.59,1.52v3.56a.47.47,0,0,0,.11.33.46.46,0,0,0,.36.12.7.7,0,0,0,.25,0Zm-1.52-3.54h0q-.12.22-.77.31l-.67.1-.74.12a2.67,2.67,0,0,0-1.17.44,1,1,0,0,0-.39.84,1.16,1.16,0,0,0,.43.94,1.6,1.6,0,0,0,1,.35,2.36,2.36,0,0,0,1.63-.58,1.85,1.85,0,0,0,.65-1.44Z"/><path class="cls-1" d="M43.73,117.61a4.77,4.77,0,0,1-.17,1.28A3.38,3.38,0,0,1,43,120a2.69,2.69,0,0,1-.92.79,2.8,2.8,0,0,1-1.33.3,2.9,2.9,0,0,1-.72-.09,2.59,2.59,0,0,1-.66-.27,2.34,2.34,0,0,1-.55-.45,2.18,2.18,0,0,1-.4-.63h0v1.25h-.74v-9.08h.8v3.77h0a2,2,0,0,1,.36-.61,2.25,2.25,0,0,1,.54-.45,2.5,2.5,0,0,1,.66-.28,3,3,0,0,1,2,.18,2.62,2.62,0,0,1,.91.75,3.34,3.34,0,0,1,.55,1.1A5,5,0,0,1,43.73,117.61Zm-.8,0a4.39,4.39,0,0,0,0-.65,3.54,3.54,0,0,0-.16-.64,2.89,2.89,0,0,0-.28-.59,2.08,2.08,0,0,0-.41-.48,1.83,1.83,0,0,0-.55-.32,2,2,0,0,0-.71-.12,2.05,2.05,0,0,0-1.73.85,2.72,2.72,0,0,0-.42.89,3.94,3.94,0,0,0-.14,1.06,4.21,4.21,0,0,0,.13,1,2.67,2.67,0,0,0,.4.9,2.08,2.08,0,0,0,.71.63,2.18,2.18,0,0,0,1.06.24,1.88,1.88,0,0,0,1-.23,2,2,0,0,0,.66-.63,2.9,2.9,0,0,0,.38-.89A4.91,4.91,0,0,0,42.93,117.61Z"/><path class="cls-1" d="M46.42,111.81v9.08h-.8v-9.08Z"/><path class="cls-1" d="M51.2,114.14a2.71,2.71,0,0,1,1.3.29,2.6,2.6,0,0,1,.9.79,3.45,3.45,0,0,1,.52,1.13,5.21,5.21,0,0,1,.17,1.34v.13H49a3.58,3.58,0,0,0,.13.94,2.59,2.59,0,0,0,.39.83,2,2,0,0,0,.66.59,1.92,1.92,0,0,0,.95.22,2.44,2.44,0,0,0,.7-.09,2,2,0,0,0,.56-.26,1.76,1.76,0,0,0,.42-.39,2.41,2.41,0,0,0,.29-.49h.79a3,3,0,0,1-.38.79,2.48,2.48,0,0,1-.59.6,2.68,2.68,0,0,1-.79.39,3.34,3.34,0,0,1-1,.14,2.94,2.94,0,0,1-1.3-.27,2.56,2.56,0,0,1-.91-.73,3.12,3.12,0,0,1-.54-1.1,5.14,5.14,0,0,1-.18-1.37,4.66,4.66,0,0,1,.18-1.28,3.36,3.36,0,0,1,.54-1.11,2.74,2.74,0,0,1,.92-.78A2.79,2.79,0,0,1,51.2,114.14Zm2.09,3a3,3,0,0,0-.16-.85,2.44,2.44,0,0,0-.41-.75,2.07,2.07,0,0,0-.65-.54,1.84,1.84,0,0,0-.88-.21,1.84,1.84,0,0,0-1.5.7,2.7,2.7,0,0,0-.42.75,4.31,4.31,0,0,0-.23.9Z"/><path class="cls-1" d="M61.5,111.81v9.08h-.74v-1.25h0a2,2,0,0,1-.39.59,2.57,2.57,0,0,1-.56.45,2.8,2.8,0,0,1-.67.29,2.63,2.63,0,0,1-.72.1,2.8,2.8,0,0,1-1.28-.28,2.68,2.68,0,0,1-.92-.75,3.32,3.32,0,0,1-.56-1.11,4.68,4.68,0,0,1-.19-1.34,4.83,4.83,0,0,1,.17-1.29,3.31,3.31,0,0,1,.53-1.11,2.69,2.69,0,0,1,.92-.78,3,3,0,0,1,2-.2,2.56,2.56,0,0,1,.65.27,2.25,2.25,0,0,1,.54.45,2.07,2.07,0,0,1,.38.63h0v-3.77Zm-5.26,5.8a4.17,4.17,0,0,0,.05.65,3.7,3.7,0,0,0,.16.64,2.82,2.82,0,0,0,.28.58,2.15,2.15,0,0,0,.41.48,1.8,1.8,0,0,0,.55.32,2,2,0,0,0,.7.12,2.08,2.08,0,0,0,1.73-.84,2.66,2.66,0,0,0,.43-.89,4,4,0,0,0,.14-1.06,4,4,0,0,0-.13-1,2.73,2.73,0,0,0-.41-.9,2.06,2.06,0,0,0-1.76-.88,1.94,1.94,0,0,0-.68.11,1.8,1.8,0,0,0-.54.31,2.15,2.15,0,0,0-.41.47,2.8,2.8,0,0,0-.29.58,3.52,3.52,0,0,0-.17.65A4.25,4.25,0,0,0,56.24,117.61Z"/><rect class="cls-2" x="75.5" y="14.5" width="29" height="11"/><path class="cls-2" d="M104,15V25H76V15h28m1-1H75V26h30V14Z"/><rect class="cls-3" x="75.5" y="11.5" width="17" height="17"/><path class="cls-4" d="M92,12V28H76V12H92m1-1H75V29H93V11Z"/><rect class="cls-5" x="75.5" y="60.5" width="29" height="11"/><path class="cls-5" d="M104,61V71H76V61h28m1-1H75V72h30V60Z"/><rect class="cls-3" x="75.5" y="57.5" width="17" height="17"/><path class="cls-6" d="M92,58V74H76V58H92m1-1H75V75H93V57Z"/><rect class="cls-7" x="128.5" y="14.5" width="29" height="11"/><path class="cls-7" d="M157,15V25H129V15h28m1-1H128V26h30V14Z"/><rect class="cls-3" x="140.5" y="11.5" width="17" height="17"/><path class="cls-8" d="M157,12V28H141V12h16m1-1H140V29h18V11Z"/><g class="cls-9"><rect class="cls-2" x="75.5" y="110.5" width="29" height="11"/><path class="cls-2" d="M104,111v10H76V111h28m1-1H75v12h30V110Z"/></g><rect class="cls-3" x="75" y="107" width="18" height="18"/><g class="cls-10"><path class="cls-4" d="M92,108v16H76V108H92m1-1H75v18H93V107Z"/></g><g class="cls-9"><rect class="cls-7" x="128.5" y="110.5" width="29" height="11"/><path class="cls-7" d="M157,111v10H129V111h28m1-1H128v12h30V110Z"/></g><rect class="cls-3" x="140" y="107" width="18" height="18"/><g class="cls-10"><path class="cls-8" d="M157,108v16H141V108h16m1-1H140v18h18V107Z"/></g><rect class="cls-5" x="128.5" y="60.5" width="29" height="11"/><path class="cls-5" d="M157,61V71H129V61h28m1-1H128V72h30V60Z"/><rect class="cls-3" x="140.5" y="57.5" width="17" height="17"/><path class="cls-6" d="M157,58V74H141V58h16m1-1H140V75h18V57Z"/></g></svg>