<svg xmlns="http://www.w3.org/2000/svg" viewBox="0 0 285 140"><defs><style>.cls-1{fill:#fff;}.cls-2{fill:#dcdcdc;}.cls-3{opacity:0.5;}.cls-4{fill:#464646;}.cls-5{fill:#828282;}</style></defs><title>Artboard 39</title><g id="Layer_1" data-name="Layer 1"><rect class="cls-1" x="8.5" y="24.5" width="269" height="105"/><path class="cls-2" d="M277,25V129H9V25H277m1-1H8V130H278V24Z"/><g class="cls-3"><path class="cls-4" d="M28.25,37.38v1.27H23.53v2.28h4.37v1.19H23.53v2.56h4.8v1.26H22V37.38Z"/><path class="cls-4" d="M38,45.93v-4a3.44,3.44,0,0,0-.05-.62,1.26,1.26,0,0,0-.19-.49,1,1,0,0,0-.39-.32,1.48,1.48,0,0,0-.63-.12,1.24,1.24,0,0,0-1.06.47,2.29,2.29,0,0,0-.35,1.38v3.74H33.91V41.72a1.65,1.65,0,0,0-.28-1,1.1,1.1,0,0,0-.91-.35,1.34,1.34,0,0,0-1.08.48,2,2,0,0,0-.4,1.31v3.81H29.79V39.36h1.36v1h0a2.31,2.31,0,0,1,2.06-1.15,2.27,2.27,0,0,1,1.2.29,1.71,1.71,0,0,1,.71.87,2.46,2.46,0,0,1,.87-.87,2.21,2.21,0,0,1,3.47,2v4.48Z"/><path class="cls-4" d="M47.9,42.69a4.54,4.54,0,0,1-.08.85,4.16,4.16,0,0,1-.23.8,3.31,3.31,0,0,1-.4.71,2.58,2.58,0,0,1-.57.56,2.64,2.64,0,0,1-.73.37,2.87,2.87,0,0,1-.91.13,2.61,2.61,0,0,1-.63-.08,2.42,2.42,0,0,1-.58-.22,2.29,2.29,0,0,1-.5-.36,2,2,0,0,1-.38-.5h0v3.33H41.44V39.36H42.8v1h0a2.08,2.08,0,0,1,.86-.88,2.59,2.59,0,0,1,1.23-.29,2.88,2.88,0,0,1,1.31.28,2.67,2.67,0,0,1,.93.76,3.31,3.31,0,0,1,.55,1.12A4.85,4.85,0,0,1,47.9,42.69Zm-1.45,0a3.92,3.92,0,0,0-.09-.83,2.38,2.38,0,0,0-.3-.76,1.72,1.72,0,0,0-.56-.56,1.57,1.57,0,0,0-.85-.22,1.6,1.6,0,0,0-1.35.61,2.83,2.83,0,0,0-.47,1.76,3.62,3.62,0,0,0,.1.84,2.35,2.35,0,0,0,.32.75,1.73,1.73,0,0,0,.57.54,1.64,1.64,0,0,0,.85.21A1.56,1.56,0,0,0,46,44.34a2.18,2.18,0,0,0,.34-.74A3.74,3.74,0,0,0,46.45,42.65Z"/><path class="cls-4" d="M52.75,46l-.28,0h-.55a4.59,4.59,0,0,1-.74-.06,1.58,1.58,0,0,1-.6-.22,1.12,1.12,0,0,1-.4-.45,1.67,1.67,0,0,1-.15-.76V40.38H48.74v-1H50v-2h1.45v2H53v1h-1.5V44.1a.83.83,0,0,0,.17.58.8.8,0,0,0,.59.18h.57l.17,0V46Z"/><path class="cls-4" d="M55.06,39.36l1.73,5h0l1.64-5h1.49l-2.81,7.52a3,3,0,0,1-.29.59,1.8,1.8,0,0,1-.4.44,1.71,1.71,0,0,1-.54.28,2.43,2.43,0,0,1-.72.1l-.54,0-.46,0V47l.45.05H55a1,1,0,0,0,.4-.07.76.76,0,0,0,.28-.21,1.39,1.39,0,0,0,.21-.36c.06-.15.12-.32.18-.52l-2.53-6.57Z"/><path class="cls-4" d="M67.76,46l-.28,0h-.55a4.59,4.59,0,0,1-.74-.06,1.58,1.58,0,0,1-.6-.22,1.12,1.12,0,0,1-.4-.45,1.67,1.67,0,0,1-.15-.76V40.38H63.76v-1H65v-2h1.45v2H68v1h-1.5V44.1a.83.83,0,0,0,.17.58.8.8,0,0,0,.59.18h.57l.17,0V46Z"/><path class="cls-4" d="M72.15,39.18a3,3,0,0,1,1.34.28,2.79,2.79,0,0,1,1,.77A3.33,3.33,0,0,1,75,41.37a4.76,4.76,0,0,1,.19,1.37V43H70.38a2.76,2.76,0,0,0,.13.81,1.91,1.91,0,0,0,.35.63,1.55,1.55,0,0,0,.54.41,1.7,1.7,0,0,0,.72.15,1.9,1.9,0,0,0,1-.23,1.7,1.7,0,0,0,.61-.6h1.37a3.06,3.06,0,0,1-.45.81,2.83,2.83,0,0,1-.66.62,3,3,0,0,1-.85.39,3.66,3.66,0,0,1-1,.13,3.28,3.28,0,0,1-1.33-.26,2.83,2.83,0,0,1-1-.72,3.18,3.18,0,0,1-.62-1.1,4.3,4.3,0,0,1-.22-1.4,4.06,4.06,0,0,1,.22-1.33,3.29,3.29,0,0,1,.63-1.1,3,3,0,0,1,1-.76A3.16,3.16,0,0,1,72.15,39.18ZM73.79,42a2.78,2.78,0,0,0-.16-.71,1.72,1.72,0,0,0-.33-.55,1.43,1.43,0,0,0-.5-.36,1.91,1.91,0,0,0-1.37,0,1.51,1.51,0,0,0-.52.36,1.79,1.79,0,0,0-.35.55,2.55,2.55,0,0,0-.17.7Z"/><path class="cls-4" d="M77.6,39.36l1.41,2,1.39-2H82L79.8,42.46l2.47,3.47H80.59L79,43.61l-1.61,2.32H75.71l2.43-3.44-2.23-3.13Z"/><path class="cls-4" d="M86.63,46l-.28,0H85.8a4.59,4.59,0,0,1-.74-.06,1.58,1.58,0,0,1-.6-.22,1.12,1.12,0,0,1-.4-.45,1.67,1.67,0,0,1-.15-.76V40.38H82.63v-1h1.29v-2h1.45v2h1.5v1h-1.5V44.1a.83.83,0,0,0,.17.58.8.8,0,0,0,.59.18h.57l.17,0V46Z"/><path class="cls-4" d="M93.67,40.38v5.55H92.23V40.38H90.95v-1h1.28v-.51a2,2,0,0,1,.52-1.52,1.64,1.64,0,0,1,.63-.36,3,3,0,0,1,.9-.12h.43l.52,0V38l-.18,0-.2,0h-.34a.86.86,0,0,0-.65.2,1,1,0,0,0-.18.68v.51h1.44v1Zm3.87-3.88v1.42H96.1V36.5Zm0,2.86v6.57H96.1V39.36Z"/><path class="cls-4" d="M102.33,39.18a3,3,0,0,1,1.34.28,2.79,2.79,0,0,1,1,.77,3.33,3.33,0,0,1,.58,1.13,4.76,4.76,0,0,1,.19,1.37V43h-4.85a2.76,2.76,0,0,0,.13.81,1.91,1.91,0,0,0,.35.63,1.55,1.55,0,0,0,.54.41,1.7,1.7,0,0,0,.72.15,1.9,1.9,0,0,0,1-.23,1.7,1.7,0,0,0,.61-.6h1.37a3.06,3.06,0,0,1-.45.81,2.83,2.83,0,0,1-.66.62,3,3,0,0,1-.85.39,3.66,3.66,0,0,1-1,.13,3.28,3.28,0,0,1-1.33-.26,2.83,2.83,0,0,1-1-.72,3.18,3.18,0,0,1-.62-1.1,4.3,4.3,0,0,1-.22-1.4,4.06,4.06,0,0,1,.22-1.33,3.29,3.29,0,0,1,.63-1.1,3,3,0,0,1,1-.76A3.16,3.16,0,0,1,102.33,39.18ZM104,42a2.78,2.78,0,0,0-.16-.71,1.72,1.72,0,0,0-.33-.55,1.43,1.43,0,0,0-.5-.36,1.91,1.91,0,0,0-1.37,0,1.51,1.51,0,0,0-.52.36,1.79,1.79,0,0,0-.35.55,2.55,2.55,0,0,0-.17.7Z"/><path class="cls-4" d="M108.42,36.85v9.08H107V36.85Z"/><path class="cls-4" d="M116.51,36.85v9.08h-1.37v-1h0a2.07,2.07,0,0,1-.37.49,2.16,2.16,0,0,1-.49.37,2.44,2.44,0,0,1-.59.23,2.79,2.79,0,0,1-.67.08,2.72,2.72,0,0,1-1.28-.29,2.76,2.76,0,0,1-.92-.77,3.38,3.38,0,0,1-.56-1.12,4.68,4.68,0,0,1-.19-1.33,4.53,4.53,0,0,1,.18-1.26,3.34,3.34,0,0,1,.54-1.1,2.75,2.75,0,0,1,.91-.77,2.92,2.92,0,0,1,1.92-.22,2.49,2.49,0,0,1,.58.21,2,2,0,0,1,.86.85h0V36.85Zm-5,5.79a3.62,3.62,0,0,0,.1.82,2.44,2.44,0,0,0,.31.76,1.81,1.81,0,0,0,.56.56,1.5,1.5,0,0,0,.83.22,1.73,1.73,0,0,0,.79-.17,1.58,1.58,0,0,0,.57-.49,2.25,2.25,0,0,0,.35-.75,3.68,3.68,0,0,0,.12-1,3.74,3.74,0,0,0-.1-.84,2.3,2.3,0,0,0-.31-.75,1.72,1.72,0,0,0-.57-.54,1.64,1.64,0,0,0-.85-.21,1.56,1.56,0,0,0-.82.2,1.7,1.7,0,0,0-.55.53,2.35,2.35,0,0,0-.32.75A3.93,3.93,0,0,0,111.49,42.64Z"/><path class="cls-4" d="M123.4,36.85v9.08H122V36.85Z"/><path class="cls-4" d="M131.48,45.93,131,46l-.39,0a1.79,1.79,0,0,1-.42,0,.91.91,0,0,1-.34-.16.83.83,0,0,1-.24-.29,1.28,1.28,0,0,1-.12-.45h0a2.66,2.66,0,0,1-.45.46,2.31,2.31,0,0,1-.52.31,3.32,3.32,0,0,1-1.31.24,2.42,2.42,0,0,1-1.62-.51,1.77,1.77,0,0,1-.6-1.45,1.7,1.7,0,0,1,.6-1.42,2.11,2.11,0,0,1,.58-.32,4.68,4.68,0,0,1,.73-.2c.26-.05.54-.09.82-.13l.87-.1.34-.07a.8.8,0,0,0,.27-.13.59.59,0,0,0,.17-.22.79.79,0,0,0,.06-.33,1,1,0,0,0-.31-.79,2.12,2.12,0,0,0-2.05,0,1,1,0,0,0-.39.73h-1.45a2,2,0,0,1,.28-.9,2,2,0,0,1,.62-.62,2.88,2.88,0,0,1,.9-.36,5.08,5.08,0,0,1,1.13-.12,3.42,3.42,0,0,1,2,.5,1.65,1.65,0,0,1,.67,1.41v3.54a.47.47,0,0,0,.08.3.33.33,0,0,0,.27.1h.12l.13,0Zm-2-3.35h0a1,1,0,0,1-.54.23l-.48.08-.65.11a2.21,2.21,0,0,0-1,.37.87.87,0,0,0-.32.72.89.89,0,0,0,.37.76,1.48,1.48,0,0,0,.87.24,1.79,1.79,0,0,0,1.27-.43,1.59,1.59,0,0,0,.49-1.24Z"/><path class="cls-4" d="M139.27,42.64a4.84,4.84,0,0,1-.17,1.28,3.47,3.47,0,0,1-.52,1.11,2.65,2.65,0,0,1-.88.79,2.51,2.51,0,0,1-1.25.3,2.93,2.93,0,0,1-1.36-.3,1.9,1.9,0,0,1-.86-.87h0v1h-1.37V36.85h1.44v3.47h0a1.88,1.88,0,0,1,.36-.47,2.16,2.16,0,0,1,.5-.36,2.68,2.68,0,0,1,.61-.23,2.85,2.85,0,0,1,.68-.08,2.52,2.52,0,0,1,1.24.29,2.65,2.65,0,0,1,.88.78,3.4,3.4,0,0,1,.52,1.11A4.88,4.88,0,0,1,139.27,42.64Zm-1.45,0a3.75,3.75,0,0,0-.09-.82,2.52,2.52,0,0,0-.3-.76,1.71,1.71,0,0,0-.54-.56,1.5,1.5,0,0,0-.83-.22,1.57,1.57,0,0,0-.82.21,1.71,1.71,0,0,0-.56.54,2.4,2.4,0,0,0-.32.75,3.63,3.63,0,0,0,0,1.69,2.37,2.37,0,0,0,.31.76,1.76,1.76,0,0,0,.56.55,1.57,1.57,0,0,0,.84.21,1.49,1.49,0,0,0,.8-.21,1.69,1.69,0,0,0,.54-.54,2.42,2.42,0,0,0,.31-.75A3.94,3.94,0,0,0,137.82,42.65Z"/><path class="cls-4" d="M143.73,39.18a3,3,0,0,1,1.34.28,2.79,2.79,0,0,1,1,.77,3.33,3.33,0,0,1,.58,1.13,4.76,4.76,0,0,1,.19,1.37V43H142a2.76,2.76,0,0,0,.13.81,1.91,1.91,0,0,0,.35.63,1.55,1.55,0,0,0,.54.41,1.7,1.7,0,0,0,.72.15,1.9,1.9,0,0,0,1-.23,1.7,1.7,0,0,0,.61-.6h1.37a3.06,3.06,0,0,1-.45.81,2.83,2.83,0,0,1-.66.62,3,3,0,0,1-.85.39,3.66,3.66,0,0,1-1,.13,3.28,3.28,0,0,1-1.33-.26,2.83,2.83,0,0,1-1-.72,3.18,3.18,0,0,1-.62-1.1,4.3,4.3,0,0,1-.22-1.4,4.06,4.06,0,0,1,.22-1.33,3.29,3.29,0,0,1,.63-1.1,3,3,0,0,1,1-.76A3.16,3.16,0,0,1,143.73,39.18ZM145.37,42a2.78,2.78,0,0,0-.16-.71,1.72,1.72,0,0,0-.33-.55,1.43,1.43,0,0,0-.5-.36,1.91,1.91,0,0,0-1.37,0,1.51,1.51,0,0,0-.52.36,1.79,1.79,0,0,0-.35.55,2.55,2.55,0,0,0-.17.7Z"/><path class="cls-4" d="M149.81,36.85v9.08h-1.45V36.85Z"/></g><path class="cls-5" d="M10.95,7.43V15.3h4.8V16H10.13V7.43Z"/><path class="cls-5" d="M22.55,16l-.27,0H22a1.37,1.37,0,0,1-.44-.06.65.65,0,0,1-.29-.2.82.82,0,0,1-.16-.35,2.43,2.43,0,0,1,0-.53h0a3,3,0,0,1-1,1,2.79,2.79,0,0,1-1.35.29,2.46,2.46,0,0,1-1.6-.5,1.75,1.75,0,0,1-.6-1.43,1.66,1.66,0,0,1,.66-1.43,6.79,6.79,0,0,1,3-.69,2,2,0,0,0,.44-.08.75.75,0,0,0,.29-.16.6.6,0,0,0,.16-.26,1.28,1.28,0,0,0,0-.38,1.24,1.24,0,0,0-.4-1,2,2,0,0,0-1.31-.34,2.61,2.61,0,0,0-.72.09,1.65,1.65,0,0,0-.53.25,1.13,1.13,0,0,0-.33.39,1.23,1.23,0,0,0-.13.49h-.8a2,2,0,0,1,.22-.78,1.78,1.78,0,0,1,.51-.59,2.43,2.43,0,0,1,.81-.38,4,4,0,0,1,1.09-.13,2.64,2.64,0,0,1,1.83.54,2,2,0,0,1,.59,1.52v3.56a.47.47,0,0,0,.11.33.46.46,0,0,0,.36.12.7.7,0,0,0,.25,0ZM21,12.41h0q-.12.22-.77.31l-.67.1-.74.12a2.67,2.67,0,0,0-1.17.44,1,1,0,0,0-.39.84,1.16,1.16,0,0,0,.43.94,1.6,1.6,0,0,0,1,.35,2.36,2.36,0,0,0,1.63-.58A1.85,1.85,0,0,0,21,13.49Z"/><path class="cls-5" d="M30,12.72A4.77,4.77,0,0,1,29.87,14a3.38,3.38,0,0,1-.53,1.11,2.69,2.69,0,0,1-.92.79,2.8,2.8,0,0,1-1.33.3,2.9,2.9,0,0,1-.72-.09,2.59,2.59,0,0,1-.66-.27,2.34,2.34,0,0,1-.55-.45,2.18,2.18,0,0,1-.4-.63h0V16H24V6.92h.8v3.77h0a2,2,0,0,1,.36-.61,2.25,2.25,0,0,1,.54-.45,2.5,2.5,0,0,1,.66-.28,3,3,0,0,1,2,.18,2.62,2.62,0,0,1,.91.75,3.34,3.34,0,0,1,.55,1.1A5,5,0,0,1,30,12.72Zm-.8,0a4.39,4.39,0,0,0,0-.65,3.54,3.54,0,0,0-.16-.64,2.89,2.89,0,0,0-.28-.59,2.08,2.08,0,0,0-.41-.48,1.83,1.83,0,0,0-.55-.32,2,2,0,0,0-.71-.12,2.05,2.05,0,0,0-1.73.85,2.72,2.72,0,0,0-.42.89,3.94,3.94,0,0,0-.14,1.06,4.21,4.21,0,0,0,.13,1,2.67,2.67,0,0,0,.4.9,2.08,2.08,0,0,0,.71.63,2.18,2.18,0,0,0,1.06.24,1.88,1.88,0,0,0,1-.23,2,2,0,0,0,.66-.63,2.9,2.9,0,0,0,.38-.89A4.91,4.91,0,0,0,29.24,12.72Z"/><path class="cls-5" d="M34.48,9.25a2.71,2.71,0,0,1,1.3.29,2.6,2.6,0,0,1,.9.79,3.45,3.45,0,0,1,.52,1.13,5.21,5.21,0,0,1,.17,1.34v.13H32.32a3.58,3.58,0,0,0,.13.94,2.59,2.59,0,0,0,.39.83,2,2,0,0,0,.66.59,1.92,1.92,0,0,0,.95.22,2.44,2.44,0,0,0,.7-.09,2,2,0,0,0,.56-.26,1.76,1.76,0,0,0,.42-.39,2.41,2.41,0,0,0,.29-.49h.79a3,3,0,0,1-.38.79,2.48,2.48,0,0,1-.59.6,2.68,2.68,0,0,1-.79.39,3.34,3.34,0,0,1-1,.14,2.94,2.94,0,0,1-1.3-.27,2.56,2.56,0,0,1-.91-.73,3.12,3.12,0,0,1-.54-1.1,5.14,5.14,0,0,1-.18-1.37,4.66,4.66,0,0,1,.18-1.28,3.36,3.36,0,0,1,.54-1.11,2.74,2.74,0,0,1,.92-.78A2.79,2.79,0,0,1,34.48,9.25Zm2.09,3a3,3,0,0,0-.16-.85,2.44,2.44,0,0,0-.41-.75,2.07,2.07,0,0,0-.65-.54,1.84,1.84,0,0,0-.88-.21,1.84,1.84,0,0,0-1.5.7,2.7,2.7,0,0,0-.42.75,4.31,4.31,0,0,0-.23.9Z"/><path class="cls-5" d="M39.87,6.92V16h-.8V6.92Z"/></g></svg>