<svg xmlns="http://www.w3.org/2000/svg" viewBox="0 0 213 125"><defs><style>.cls-1{fill:#ff6c00;}.cls-2{fill:#464646;}.cls-11,.cls-3{opacity:0.5;}.cls-4{fill:#fff;}.cls-5{fill:#bebebe;}.cls-6{fill:#f5f5f5;}.cls-7{fill:#dcdcdc;}.cls-8{fill:#6e6e6e;}.cls-9{fill:none;}.cls-10,.cls-11{fill:#3da8ff;}</style></defs><title>Artboard 31</title><g id="Layer_1" data-name="Layer 1"><path class="cls-1" d="M23,10.32l5,7.25h0V10.32h.81v8.57h-.91l-5-7.25h0v7.25h-.82V10.32Z"/><path class="cls-1" d="M36.87,15.61a4.29,4.29,0,0,1-.2,1.31A3.31,3.31,0,0,1,36.06,18a2.9,2.9,0,0,1-2.29,1,2.84,2.84,0,0,1-2.24-1,3.65,3.65,0,0,1-.86-2.5,3.65,3.65,0,0,1,.85-2.49,3.08,3.08,0,0,1,4.51,0A3.65,3.65,0,0,1,36.87,15.61Zm-.8,0a3.8,3.8,0,0,0-.13-1,2.81,2.81,0,0,0-.42-.9,2.25,2.25,0,0,0-.72-.65,2,2,0,0,0-1-.25,2,2,0,0,0-1,.24,2.24,2.24,0,0,0-.72.64,2.85,2.85,0,0,0-.44.9,3.66,3.66,0,0,0-.15,1,3.58,3.58,0,0,0,.14,1,3,3,0,0,0,.43.9,2.24,2.24,0,0,0,.71.65,2,2,0,0,0,1,.25,2,2,0,0,0,1-.24,2.33,2.33,0,0,0,.72-.63,2.8,2.8,0,0,0,.45-.89A3.54,3.54,0,0,0,36.07,15.61Z"/><path class="cls-1" d="M38.67,18.89V12.33h.74v1.54h0a2.56,2.56,0,0,1,.9-1.2,2.32,2.32,0,0,1,1.38-.43H42V13h-.18a2.22,2.22,0,0,0-1.71.69,2.36,2.36,0,0,0-.64,1.69v3.48Z"/><path class="cls-1" d="M51.57,18.89V14.43a1.73,1.73,0,0,0-.37-1.22,1.85,1.85,0,0,0-2.5.21,2.8,2.8,0,0,0-.45,1.71v3.77h-.81V14.4a1.81,1.81,0,0,0-.34-1.17,1.25,1.25,0,0,0-1-.42,1.72,1.72,0,0,0-1.46.65,2.72,2.72,0,0,0-.5,1.71v3.72h-.8V12.33h.74v1.1h0a2.26,2.26,0,0,1,2.15-1.29,2.44,2.44,0,0,1,.64.08,1.86,1.86,0,0,1,.54.24,1.66,1.66,0,0,1,.42.4,1.86,1.86,0,0,1,.28.55,2.16,2.16,0,0,1,.85-1,2.4,2.4,0,0,1,1.24-.32,2.12,2.12,0,0,1,1.63.58,2.36,2.36,0,0,1,.54,1.66v4.51Z"/><path class="cls-1" d="M60.23,18.84l-.27,0h-.24a1.37,1.37,0,0,1-.44-.06.65.65,0,0,1-.29-.2.82.82,0,0,1-.16-.35,2.43,2.43,0,0,1,0-.53h0a3,3,0,0,1-1,1,2.79,2.79,0,0,1-1.35.29,2.46,2.46,0,0,1-1.6-.5,1.75,1.75,0,0,1-.6-1.43,1.66,1.66,0,0,1,.66-1.43,6.79,6.79,0,0,1,3-.69,2,2,0,0,0,.44-.08.75.75,0,0,0,.29-.16.6.6,0,0,0,.16-.26,1.28,1.28,0,0,0,0-.38,1.24,1.24,0,0,0-.4-1A2,2,0,0,0,57,12.81a2.61,2.61,0,0,0-.72.09,1.65,1.65,0,0,0-.53.25,1.13,1.13,0,0,0-.33.39,1.23,1.23,0,0,0-.13.49h-.8a2,2,0,0,1,.22-.78,1.78,1.78,0,0,1,.51-.59,2.43,2.43,0,0,1,.81-.38,4,4,0,0,1,1.09-.13,2.64,2.64,0,0,1,1.83.54,2,2,0,0,1,.59,1.52v3.56a.47.47,0,0,0,.11.33.46.46,0,0,0,.36.12.7.7,0,0,0,.25,0ZM58.71,15.3h0q-.12.22-.77.31l-.67.1-.74.12a2.67,2.67,0,0,0-1.17.44,1,1,0,0,0-.39.84,1.16,1.16,0,0,0,.43.94,1.6,1.6,0,0,0,1,.35,2.36,2.36,0,0,0,1.63-.58,1.85,1.85,0,0,0,.65-1.44Z"/><path class="cls-1" d="M62.49,9.81v9.08h-.8V9.81Z"/><path class="cls-1" d="M30.9,58.34v3.71H36V58.34h.81v8.55H36V62.74H30.9v4.15h-.82V58.34Z"/><path class="cls-1" d="M44.82,63.61a4.29,4.29,0,0,1-.2,1.31A3.31,3.31,0,0,1,44,66a2.9,2.9,0,0,1-2.29,1,2.84,2.84,0,0,1-2.24-1,4.07,4.07,0,0,1,0-5,3.08,3.08,0,0,1,4.51,0A3.65,3.65,0,0,1,44.82,63.61Zm-.8,0a3.8,3.8,0,0,0-.13-1,2.81,2.81,0,0,0-.42-.9,2.25,2.25,0,0,0-.72-.65,2,2,0,0,0-1-.25,2,2,0,0,0-1,.24,2.24,2.24,0,0,0-.72.64,2.85,2.85,0,0,0-.44.9,3.66,3.66,0,0,0-.15,1,3.58,3.58,0,0,0,.14,1,3,3,0,0,0,.43.9,2.24,2.24,0,0,0,.71.65,2,2,0,0,0,1,.25,2,2,0,0,0,1-.24,2.33,2.33,0,0,0,.72-.63,2.8,2.8,0,0,0,.45-.89A3.54,3.54,0,0,0,44,63.61Z"/><path class="cls-1" d="M46.65,60.33l2.06,5.76h0l2-5.76h.83l-2.46,6.56h-.85l-2.54-6.56Z"/><path class="cls-1" d="M55.5,60.14a2.71,2.71,0,0,1,1.3.29,2.6,2.6,0,0,1,.9.79,3.45,3.45,0,0,1,.52,1.13,5.21,5.21,0,0,1,.17,1.34v.13H53.34a3.58,3.58,0,0,0,.13.94,2.59,2.59,0,0,0,.39.83,2,2,0,0,0,.66.59,1.92,1.92,0,0,0,.95.22,2.44,2.44,0,0,0,.7-.09,2,2,0,0,0,.56-.26,1.76,1.76,0,0,0,.42-.39,2.41,2.41,0,0,0,.29-.49h.79a3,3,0,0,1-.38.79,2.48,2.48,0,0,1-.59.6,2.68,2.68,0,0,1-.79.39,3.34,3.34,0,0,1-1,.14,2.94,2.94,0,0,1-1.3-.27,2.56,2.56,0,0,1-.91-.73,3.12,3.12,0,0,1-.54-1.1,5.14,5.14,0,0,1-.18-1.37,4.66,4.66,0,0,1,.18-1.28,3.36,3.36,0,0,1,.54-1.11,2.74,2.74,0,0,1,.92-.78A2.79,2.79,0,0,1,55.5,60.14Zm2.09,3a3,3,0,0,0-.16-.85,2.44,2.44,0,0,0-.41-.75,2.07,2.07,0,0,0-.65-.54,1.84,1.84,0,0,0-.88-.21,1.84,1.84,0,0,0-1.5.7,2.7,2.7,0,0,0-.42.75,4.31,4.31,0,0,0-.23.9Z"/><path class="cls-1" d="M60.06,66.89V60.33h.74v1.54h0a2.56,2.56,0,0,1,.9-1.2,2.32,2.32,0,0,1,1.38-.43h.29V61h-.18a2.22,2.22,0,0,0-1.71.69,2.36,2.36,0,0,0-.64,1.69v3.48Z"/><path class="cls-1" d="M16.1,106.32a4.11,4.11,0,0,1,3,1,5.51,5.51,0,0,1,0,6.52,4,4,0,0,1-2.89,1H13.25v-8.57Zm-.22,7.87a3.57,3.57,0,0,0,2.61-.83,3.76,3.76,0,0,0,.84-2.75,3.82,3.82,0,0,0-.82-2.74,3.73,3.73,0,0,0-2.75-.84H14.07v7.17Z"/><path class="cls-1" d="M22.69,105.46v1.29h-.8v-1.29Zm0,2.87v6.56h-.8v-6.56Z"/><path class="cls-1" d="M29.81,113.11a1.67,1.67,0,0,1-.22.88,1.89,1.89,0,0,1-.59.62,2.74,2.74,0,0,1-.84.36,4,4,0,0,1-1,.12,3.66,3.66,0,0,1-1.07-.14,2.4,2.4,0,0,1-.8-.41,2,2,0,0,1-.53-.64,2.4,2.4,0,0,1-.25-.85h.81a1.7,1.7,0,0,0,.2.56,1.41,1.41,0,0,0,.38.43,1.8,1.8,0,0,0,.57.28,2.56,2.56,0,0,0,.74.1,3,3,0,0,0,.6-.06,2.05,2.05,0,0,0,.58-.21,1.35,1.35,0,0,0,.44-.38,1,1,0,0,0,.18-.59.93.93,0,0,0-.34-.73,2.6,2.6,0,0,0-1.13-.46l-1-.22a4,4,0,0,1-.77-.24,2.1,2.1,0,0,1-.58-.37,1.46,1.46,0,0,1-.36-.5,1.62,1.62,0,0,1-.12-.65,1.57,1.57,0,0,1,.21-.83,1.78,1.78,0,0,1,.56-.57,2.53,2.53,0,0,1,.78-.33,3.77,3.77,0,0,1,.89-.11,3.27,3.27,0,0,1,.92.12,2.29,2.29,0,0,1,.73.35,1.83,1.83,0,0,1,.5.57,2.08,2.08,0,0,1,.25.78h-.8a1.32,1.32,0,0,0-.19-.5,1.24,1.24,0,0,0-.36-.37,1.69,1.69,0,0,0-.5-.22,2.36,2.36,0,0,0-.61-.08,2.85,2.85,0,0,0-.58.06,1.59,1.59,0,0,0-.51.19,1.07,1.07,0,0,0-.36.35,1,1,0,0,0-.13.53.74.74,0,0,0,.13.44,1.27,1.27,0,0,0,.33.32,1.93,1.93,0,0,0,.44.22,3.64,3.64,0,0,0,.46.13l1.37.3a2.85,2.85,0,0,1,.59.21,1.77,1.77,0,0,1,.5.35,1.64,1.64,0,0,1,.34.51A1.71,1.71,0,0,1,29.81,113.11Z"/><path class="cls-1" d="M37.24,114.84l-.27,0h-.24a1.37,1.37,0,0,1-.44-.06.65.65,0,0,1-.29-.2.82.82,0,0,1-.16-.35,2.43,2.43,0,0,1,0-.53h0a3,3,0,0,1-1,1,2.79,2.79,0,0,1-1.35.29,2.46,2.46,0,0,1-1.6-.5,1.75,1.75,0,0,1-.6-1.43,1.66,1.66,0,0,1,.66-1.43,6.79,6.79,0,0,1,3-.69,2,2,0,0,0,.44-.08.75.75,0,0,0,.29-.16.6.6,0,0,0,.16-.26,1.28,1.28,0,0,0,0-.38,1.24,1.24,0,0,0-.4-1,2,2,0,0,0-1.31-.34,2.61,2.61,0,0,0-.72.09,1.65,1.65,0,0,0-.53.25,1.13,1.13,0,0,0-.33.39,1.23,1.23,0,0,0-.13.49h-.8a2,2,0,0,1,.22-.78,1.78,1.78,0,0,1,.51-.59,2.43,2.43,0,0,1,.81-.38,4,4,0,0,1,1.09-.13,2.64,2.64,0,0,1,1.83.54,2,2,0,0,1,.59,1.52v3.56a.47.47,0,0,0,.11.33.46.46,0,0,0,.36.12.7.7,0,0,0,.25,0Zm-1.52-3.54h0q-.12.22-.77.31l-.67.1-.74.12a2.67,2.67,0,0,0-1.17.44,1,1,0,0,0-.39.84,1.16,1.16,0,0,0,.43.94,1.6,1.6,0,0,0,1,.35,2.36,2.36,0,0,0,1.63-.58,1.85,1.85,0,0,0,.65-1.44Z"/><path class="cls-1" d="M44.73,111.61a4.77,4.77,0,0,1-.17,1.28A3.38,3.38,0,0,1,44,114a2.69,2.69,0,0,1-.92.79,2.8,2.8,0,0,1-1.33.3,2.9,2.9,0,0,1-.72-.09,2.59,2.59,0,0,1-.66-.27,2.34,2.34,0,0,1-.55-.45,2.18,2.18,0,0,1-.4-.63h0v1.25h-.74v-9.08h.8v3.77h0a2,2,0,0,1,.36-.61,2.25,2.25,0,0,1,.54-.45,2.5,2.5,0,0,1,.66-.28,3,3,0,0,1,2,.18,2.62,2.62,0,0,1,.91.75,3.34,3.34,0,0,1,.55,1.1A5,5,0,0,1,44.73,111.61Zm-.8,0a4.39,4.39,0,0,0,0-.65,3.54,3.54,0,0,0-.16-.64,2.89,2.89,0,0,0-.28-.59,2.08,2.08,0,0,0-.41-.48,1.83,1.83,0,0,0-.55-.32,2,2,0,0,0-.71-.12,2.05,2.05,0,0,0-1.73.85,2.72,2.72,0,0,0-.42.89,3.94,3.94,0,0,0-.14,1.06,4.21,4.21,0,0,0,.13,1,2.67,2.67,0,0,0,.4.9,2.08,2.08,0,0,0,.71.63,2.18,2.18,0,0,0,1.06.24,1.88,1.88,0,0,0,1-.23,2,2,0,0,0,.66-.63,2.9,2.9,0,0,0,.38-.89A4.91,4.91,0,0,0,43.93,111.61Z"/><path class="cls-1" d="M47.42,105.81v9.08h-.8v-9.08Z"/><path class="cls-1" d="M52.2,108.14a2.71,2.71,0,0,1,1.3.29,2.6,2.6,0,0,1,.9.79,3.45,3.45,0,0,1,.52,1.13,5.21,5.21,0,0,1,.17,1.34v.13H50a3.58,3.58,0,0,0,.13.94,2.59,2.59,0,0,0,.39.83,2,2,0,0,0,.66.59,1.92,1.92,0,0,0,.95.22,2.44,2.44,0,0,0,.7-.09,2,2,0,0,0,.56-.26,1.76,1.76,0,0,0,.42-.39,2.41,2.41,0,0,0,.29-.49h.79a3,3,0,0,1-.38.79,2.48,2.48,0,0,1-.59.6,2.68,2.68,0,0,1-.79.39,3.34,3.34,0,0,1-1,.14,2.94,2.94,0,0,1-1.3-.27,2.56,2.56,0,0,1-.91-.73,3.12,3.12,0,0,1-.54-1.1,5.14,5.14,0,0,1-.18-1.37,4.66,4.66,0,0,1,.18-1.28,3.36,3.36,0,0,1,.54-1.11,2.74,2.74,0,0,1,.92-.78A2.79,2.79,0,0,1,52.2,108.14Zm2.09,3a3,3,0,0,0-.16-.85,2.44,2.44,0,0,0-.41-.75,2.07,2.07,0,0,0-.65-.54,1.84,1.84,0,0,0-.88-.21,1.84,1.84,0,0,0-1.5.7,2.7,2.7,0,0,0-.42.75,4.31,4.31,0,0,0-.23.9Z"/><path class="cls-1" d="M62.5,105.81v9.08h-.74v-1.25h0a2,2,0,0,1-.39.59,2.57,2.57,0,0,1-.56.45,2.8,2.8,0,0,1-.67.29,2.63,2.63,0,0,1-.72.1,2.8,2.8,0,0,1-1.28-.28,2.68,2.68,0,0,1-.92-.75,3.32,3.32,0,0,1-.56-1.11,4.68,4.68,0,0,1-.19-1.34,4.83,4.83,0,0,1,.17-1.29,3.31,3.31,0,0,1,.53-1.11,2.69,2.69,0,0,1,.92-.78,3,3,0,0,1,2-.2,2.56,2.56,0,0,1,.65.27,2.25,2.25,0,0,1,.54.45,2.07,2.07,0,0,1,.38.63h0v-3.77Zm-5.26,5.8a4.17,4.17,0,0,0,.05.65,3.7,3.7,0,0,0,.16.64,2.82,2.82,0,0,0,.28.58,2.15,2.15,0,0,0,.41.48,1.8,1.8,0,0,0,.55.32,2,2,0,0,0,.7.12,2.08,2.08,0,0,0,1.73-.84,2.66,2.66,0,0,0,.43-.89,4,4,0,0,0,.14-1.06,4,4,0,0,0-.13-1,2.73,2.73,0,0,0-.41-.9,2.06,2.06,0,0,0-1.76-.88,1.94,1.94,0,0,0-.68.11,1.8,1.8,0,0,0-.54.31,2.15,2.15,0,0,0-.41.47,2.8,2.8,0,0,0-.29.58,3.52,3.52,0,0,0-.17.65A4.25,4.25,0,0,0,57.24,111.61Z"/><path class="cls-2" d="M102.67,10.19v7.87h4.8v.7h-5.62V10.19Z"/><path class="cls-2" d="M114.27,18.71l-.27,0h-.24a1.37,1.37,0,0,1-.44-.06.65.65,0,0,1-.29-.2.82.82,0,0,1-.16-.36,2.42,2.42,0,0,1,0-.53h0a3,3,0,0,1-1,1,2.79,2.79,0,0,1-1.35.29,2.46,2.46,0,0,1-1.6-.5,1.75,1.75,0,0,1-.6-1.43,1.66,1.66,0,0,1,.66-1.43,6.79,6.79,0,0,1,3-.69,2,2,0,0,0,.44-.08.75.75,0,0,0,.29-.16.59.59,0,0,0,.16-.26,1.28,1.28,0,0,0,0-.38,1.25,1.25,0,0,0-.4-1,2,2,0,0,0-1.31-.34,2.61,2.61,0,0,0-.72.09,1.65,1.65,0,0,0-.53.25,1.13,1.13,0,0,0-.33.39,1.23,1.23,0,0,0-.13.49h-.8a2,2,0,0,1,.22-.78,1.77,1.77,0,0,1,.51-.59,2.43,2.43,0,0,1,.81-.38,4,4,0,0,1,1.09-.13,2.64,2.64,0,0,1,1.83.54,2,2,0,0,1,.59,1.52v3.56a.47.47,0,0,0,.11.33.46.46,0,0,0,.36.12.7.7,0,0,0,.25,0Zm-1.52-3.54h0q-.12.22-.77.31l-.67.1-.74.12a2.67,2.67,0,0,0-1.17.44A1,1,0,0,0,109,17a1.16,1.16,0,0,0,.43.94,1.6,1.6,0,0,0,1,.35,2.36,2.36,0,0,0,1.63-.58,1.85,1.85,0,0,0,.65-1.44Z"/><path class="cls-2" d="M121.76,15.48a4.77,4.77,0,0,1-.17,1.28,3.38,3.38,0,0,1-.53,1.11,2.69,2.69,0,0,1-.92.79,2.8,2.8,0,0,1-1.33.3,2.91,2.91,0,0,1-.72-.09,2.59,2.59,0,0,1-.66-.27,2.33,2.33,0,0,1-.55-.45,2.18,2.18,0,0,1-.4-.63h0v1.25h-.74V9.68h.8v3.77h0a2,2,0,0,1,.36-.61,2.25,2.25,0,0,1,.54-.45,2.49,2.49,0,0,1,.66-.28,3,3,0,0,1,2,.18A2.63,2.63,0,0,1,121,13a3.34,3.34,0,0,1,.55,1.1A5,5,0,0,1,121.76,15.48Zm-.8,0a4.4,4.4,0,0,0,0-.65,3.53,3.53,0,0,0-.16-.64,2.89,2.89,0,0,0-.28-.59,2.08,2.08,0,0,0-.41-.48,1.83,1.83,0,0,0-.55-.32,2,2,0,0,0-.71-.12,2,2,0,0,0-1.73.85,2.72,2.72,0,0,0-.42.89,3.94,3.94,0,0,0-.14,1.06,4.21,4.21,0,0,0,.13,1,2.67,2.67,0,0,0,.4.9,2.08,2.08,0,0,0,.71.63,2.18,2.18,0,0,0,1.06.24,1.88,1.88,0,0,0,1-.23,2,2,0,0,0,.66-.63,2.91,2.91,0,0,0,.38-.89A4.9,4.9,0,0,0,121,15.48Z"/><path class="cls-2" d="M126.2,12a2.71,2.71,0,0,1,1.3.29,2.6,2.6,0,0,1,.9.79,3.44,3.44,0,0,1,.52,1.13,5.22,5.22,0,0,1,.17,1.34v.13H124a3.58,3.58,0,0,0,.13.94,2.58,2.58,0,0,0,.39.83,2,2,0,0,0,.66.59,1.92,1.92,0,0,0,.95.22,2.44,2.44,0,0,0,.7-.09,2,2,0,0,0,.56-.26,1.76,1.76,0,0,0,.42-.39,2.4,2.4,0,0,0,.29-.49h.79a3,3,0,0,1-.38.79,2.48,2.48,0,0,1-.59.6,2.68,2.68,0,0,1-.79.39,3.33,3.33,0,0,1-1,.14,2.94,2.94,0,0,1-1.3-.27A2.56,2.56,0,0,1,124,18a3.12,3.12,0,0,1-.54-1.1,5.13,5.13,0,0,1-.18-1.37,4.66,4.66,0,0,1,.18-1.28,3.37,3.37,0,0,1,.54-1.11,2.74,2.74,0,0,1,.92-.78A2.79,2.79,0,0,1,126.2,12Zm2.09,3a3,3,0,0,0-.16-.85,2.44,2.44,0,0,0-.41-.75,2.07,2.07,0,0,0-.65-.54,1.84,1.84,0,0,0-.88-.21,1.84,1.84,0,0,0-1.5.7,2.69,2.69,0,0,0-.42.75,4.32,4.32,0,0,0-.23.9Z"/><path class="cls-2" d="M131.59,9.68v9.08h-.8V9.68Z"/><path class="cls-2" d="M102.67,58.19v7.87h4.8v.7h-5.62V58.19Z"/><path class="cls-2" d="M114.27,66.71l-.27,0h-.24a1.37,1.37,0,0,1-.44-.06.65.65,0,0,1-.29-.2.82.82,0,0,1-.16-.36,2.42,2.42,0,0,1,0-.53h0a3,3,0,0,1-1,1,2.79,2.79,0,0,1-1.35.29,2.46,2.46,0,0,1-1.6-.5,1.75,1.75,0,0,1-.6-1.43,1.66,1.66,0,0,1,.66-1.43,6.79,6.79,0,0,1,3-.69,2,2,0,0,0,.44-.08.75.75,0,0,0,.29-.16.59.59,0,0,0,.16-.26,1.28,1.28,0,0,0,0-.38,1.25,1.25,0,0,0-.4-1,2,2,0,0,0-1.31-.34,2.61,2.61,0,0,0-.72.09,1.65,1.65,0,0,0-.53.25,1.13,1.13,0,0,0-.33.39,1.23,1.23,0,0,0-.13.49h-.8a2,2,0,0,1,.22-.78,1.77,1.77,0,0,1,.51-.59,2.43,2.43,0,0,1,.81-.38,4,4,0,0,1,1.09-.13,2.64,2.64,0,0,1,1.83.54,2,2,0,0,1,.59,1.52v3.56a.47.47,0,0,0,.11.33.46.46,0,0,0,.36.12.7.7,0,0,0,.25,0Zm-1.52-3.54h0q-.12.22-.77.31l-.67.1-.74.12a2.67,2.67,0,0,0-1.17.44A1,1,0,0,0,109,65a1.16,1.16,0,0,0,.43.94,1.6,1.6,0,0,0,1,.35,2.36,2.36,0,0,0,1.63-.58,1.85,1.85,0,0,0,.65-1.44Z"/><path class="cls-2" d="M121.76,63.48a4.77,4.77,0,0,1-.17,1.28,3.38,3.38,0,0,1-.53,1.11,2.69,2.69,0,0,1-.92.79,2.8,2.8,0,0,1-1.33.3,2.91,2.91,0,0,1-.72-.09,2.59,2.59,0,0,1-.66-.27,2.33,2.33,0,0,1-.55-.45,2.18,2.18,0,0,1-.4-.63h0v1.25h-.74V57.68h.8v3.77h0a2,2,0,0,1,.36-.61,2.25,2.25,0,0,1,.54-.45,2.49,2.49,0,0,1,.66-.28,3,3,0,0,1,2,.18A2.63,2.63,0,0,1,121,61a3.34,3.34,0,0,1,.55,1.1A5,5,0,0,1,121.76,63.48Zm-.8,0a4.4,4.4,0,0,0,0-.65,3.53,3.53,0,0,0-.16-.64,2.89,2.89,0,0,0-.28-.59,2.08,2.08,0,0,0-.41-.48,1.83,1.83,0,0,0-.55-.32,2,2,0,0,0-.71-.12,2,2,0,0,0-1.73.85,2.72,2.72,0,0,0-.42.89,3.94,3.94,0,0,0-.14,1.06,4.21,4.21,0,0,0,.13,1,2.67,2.67,0,0,0,.4.9,2.08,2.08,0,0,0,.71.63,2.18,2.18,0,0,0,1.06.24,1.88,1.88,0,0,0,1-.23,2,2,0,0,0,.66-.63,2.91,2.91,0,0,0,.38-.89A4.9,4.9,0,0,0,121,63.48Z"/><path class="cls-2" d="M126.2,60a2.71,2.71,0,0,1,1.3.29,2.6,2.6,0,0,1,.9.79,3.44,3.44,0,0,1,.52,1.13,5.22,5.22,0,0,1,.17,1.34v.13H124a3.58,3.58,0,0,0,.13.94,2.58,2.58,0,0,0,.39.83,2,2,0,0,0,.66.59,1.92,1.92,0,0,0,.95.22,2.44,2.44,0,0,0,.7-.09,2,2,0,0,0,.56-.26,1.76,1.76,0,0,0,.42-.39,2.4,2.4,0,0,0,.29-.49h.79a3,3,0,0,1-.38.79,2.48,2.48,0,0,1-.59.6,2.68,2.68,0,0,1-.79.39,3.33,3.33,0,0,1-1,.14,2.94,2.94,0,0,1-1.3-.27A2.56,2.56,0,0,1,124,66a3.12,3.12,0,0,1-.54-1.1,5.13,5.13,0,0,1-.18-1.37,4.66,4.66,0,0,1,.18-1.28,3.37,3.37,0,0,1,.54-1.11,2.74,2.74,0,0,1,.92-.78A2.79,2.79,0,0,1,126.2,60Zm2.09,3a3,3,0,0,0-.16-.85,2.44,2.44,0,0,0-.41-.75,2.07,2.07,0,0,0-.65-.54,1.84,1.84,0,0,0-.88-.21,1.84,1.84,0,0,0-1.5.7,2.69,2.69,0,0,0-.42.75,4.32,4.32,0,0,0-.23.9Z"/><path class="cls-2" d="M131.59,57.68v9.08h-.8V57.68Z"/><path class="cls-2" d="M173.94,58.19v7.87h4.8v.7h-5.62V58.19Z"/><path class="cls-2" d="M185.55,66.71l-.27,0H185a1.37,1.37,0,0,1-.44-.06.65.65,0,0,1-.29-.2.82.82,0,0,1-.16-.36,2.42,2.42,0,0,1,0-.53h0a3,3,0,0,1-1,1,2.79,2.79,0,0,1-1.35.29,2.46,2.46,0,0,1-1.6-.5,1.75,1.75,0,0,1-.6-1.43,1.66,1.66,0,0,1,.66-1.43,6.79,6.79,0,0,1,3-.69,2,2,0,0,0,.44-.08.75.75,0,0,0,.29-.16.59.59,0,0,0,.16-.26,1.28,1.28,0,0,0,0-.38,1.25,1.25,0,0,0-.4-1,2,2,0,0,0-1.31-.34,2.61,2.61,0,0,0-.72.09,1.65,1.65,0,0,0-.53.25,1.13,1.13,0,0,0-.33.39,1.23,1.23,0,0,0-.13.49h-.8a2,2,0,0,1,.22-.78,1.77,1.77,0,0,1,.51-.59,2.43,2.43,0,0,1,.81-.38,4,4,0,0,1,1.09-.13,2.64,2.64,0,0,1,1.83.54,2,2,0,0,1,.59,1.52v3.56a.47.47,0,0,0,.11.33.46.46,0,0,0,.36.12.7.7,0,0,0,.25,0ZM184,63.17h0q-.12.22-.77.31l-.67.1-.74.12a2.67,2.67,0,0,0-1.17.44,1,1,0,0,0-.39.84,1.16,1.16,0,0,0,.43.94,1.6,1.6,0,0,0,1,.35,2.36,2.36,0,0,0,1.63-.58,1.85,1.85,0,0,0,.65-1.44Z"/><path class="cls-2" d="M193,63.48a4.77,4.77,0,0,1-.17,1.28,3.38,3.38,0,0,1-.53,1.11,2.69,2.69,0,0,1-.92.79,2.8,2.8,0,0,1-1.33.3,2.91,2.91,0,0,1-.72-.09,2.59,2.59,0,0,1-.66-.27,2.33,2.33,0,0,1-.55-.45,2.18,2.18,0,0,1-.4-.63h0v1.25H187V57.68h.8v3.77h0a2,2,0,0,1,.36-.61,2.25,2.25,0,0,1,.54-.45,2.49,2.49,0,0,1,.66-.28,3,3,0,0,1,2,.18,2.63,2.63,0,0,1,.91.75,3.34,3.34,0,0,1,.55,1.1A5,5,0,0,1,193,63.48Zm-.8,0a4.4,4.4,0,0,0,0-.65,3.53,3.53,0,0,0-.16-.64,2.89,2.89,0,0,0-.28-.59,2.08,2.08,0,0,0-.41-.48,1.83,1.83,0,0,0-.55-.32,2,2,0,0,0-.71-.12,2,2,0,0,0-1.73.85,2.72,2.72,0,0,0-.42.89,3.94,3.94,0,0,0-.14,1.06,4.21,4.21,0,0,0,.13,1,2.67,2.67,0,0,0,.4.9A2.08,2.08,0,0,0,189,66a2.18,2.18,0,0,0,1.06.24,1.88,1.88,0,0,0,1-.23,2,2,0,0,0,.66-.63,2.91,2.91,0,0,0,.38-.89A4.9,4.9,0,0,0,192.24,63.48Z"/><path class="cls-2" d="M197.48,60a2.71,2.71,0,0,1,1.3.29,2.6,2.6,0,0,1,.9.79,3.44,3.44,0,0,1,.52,1.13,5.22,5.22,0,0,1,.17,1.34v.13h-5.05a3.58,3.58,0,0,0,.13.94,2.58,2.58,0,0,0,.39.83,2,2,0,0,0,.66.59,1.92,1.92,0,0,0,.95.22,2.44,2.44,0,0,0,.7-.09,2,2,0,0,0,.56-.26,1.76,1.76,0,0,0,.42-.39,2.4,2.4,0,0,0,.29-.49h.79a3,3,0,0,1-.38.79,2.48,2.48,0,0,1-.59.6,2.68,2.68,0,0,1-.79.39,3.33,3.33,0,0,1-1,.14,2.94,2.94,0,0,1-1.3-.27,2.56,2.56,0,0,1-.91-.73,3.12,3.12,0,0,1-.54-1.1,5.13,5.13,0,0,1-.18-1.37,4.66,4.66,0,0,1,.18-1.28,3.37,3.37,0,0,1,.54-1.11,2.74,2.74,0,0,1,.92-.78A2.79,2.79,0,0,1,197.48,60Zm2.09,3a3,3,0,0,0-.16-.85,2.44,2.44,0,0,0-.41-.75,2.07,2.07,0,0,0-.65-.54,1.84,1.84,0,0,0-.88-.21,1.84,1.84,0,0,0-1.5.7,2.69,2.69,0,0,0-.42.75,4.32,4.32,0,0,0-.23.9Z"/><path class="cls-2" d="M202.87,57.68v9.08h-.8V57.68Z"/><path class="cls-2" d="M175.58,10.19v7.87h4.8v.7h-5.62V10.19Z"/><path class="cls-2" d="M187.19,18.71l-.27,0h-.24a1.37,1.37,0,0,1-.44-.06.65.65,0,0,1-.29-.2.82.82,0,0,1-.16-.36,2.42,2.42,0,0,1,0-.53h0a3,3,0,0,1-1,1,2.79,2.79,0,0,1-1.35.29,2.46,2.46,0,0,1-1.6-.5,1.75,1.75,0,0,1-.6-1.43,1.66,1.66,0,0,1,.66-1.43,6.79,6.79,0,0,1,3-.69,2,2,0,0,0,.44-.08.75.75,0,0,0,.29-.16.59.59,0,0,0,.16-.26,1.28,1.28,0,0,0,0-.38,1.25,1.25,0,0,0-.4-1,2,2,0,0,0-1.31-.34,2.61,2.61,0,0,0-.72.09,1.65,1.65,0,0,0-.53.25,1.13,1.13,0,0,0-.33.39,1.23,1.23,0,0,0-.13.49h-.8a2,2,0,0,1,.22-.78,1.77,1.77,0,0,1,.51-.59,2.43,2.43,0,0,1,.81-.38,4,4,0,0,1,1.09-.13,2.64,2.64,0,0,1,1.83.54,2,2,0,0,1,.59,1.52v3.56a.47.47,0,0,0,.11.33.46.46,0,0,0,.36.12.7.7,0,0,0,.25,0Zm-1.52-3.54h0q-.12.22-.77.31l-.67.1-.74.12a2.67,2.67,0,0,0-1.17.44,1,1,0,0,0-.39.84,1.16,1.16,0,0,0,.43.94,1.6,1.6,0,0,0,1,.35,2.36,2.36,0,0,0,1.63-.58,1.85,1.85,0,0,0,.65-1.44Z"/><path class="cls-2" d="M194.68,15.48a4.77,4.77,0,0,1-.17,1.28,3.38,3.38,0,0,1-.53,1.11,2.69,2.69,0,0,1-.92.79,2.8,2.8,0,0,1-1.33.3,2.91,2.91,0,0,1-.72-.09,2.59,2.59,0,0,1-.66-.27,2.33,2.33,0,0,1-.55-.45,2.18,2.18,0,0,1-.4-.63h0v1.25h-.74V9.68h.8v3.77h0a2,2,0,0,1,.36-.61,2.25,2.25,0,0,1,.54-.45,2.49,2.49,0,0,1,.66-.28,3,3,0,0,1,2,.18,2.63,2.63,0,0,1,.91.75,3.34,3.34,0,0,1,.55,1.1A5,5,0,0,1,194.68,15.48Zm-.8,0a4.4,4.4,0,0,0,0-.65,3.53,3.53,0,0,0-.16-.64,2.89,2.89,0,0,0-.28-.59,2.08,2.08,0,0,0-.41-.48,1.83,1.83,0,0,0-.55-.32,2,2,0,0,0-.71-.12,2,2,0,0,0-1.73.85,2.72,2.72,0,0,0-.42.89,3.94,3.94,0,0,0-.14,1.06,4.21,4.21,0,0,0,.13,1,2.67,2.67,0,0,0,.4.9,2.08,2.08,0,0,0,.71.63,2.18,2.18,0,0,0,1.06.24,1.88,1.88,0,0,0,1-.23,2,2,0,0,0,.66-.63,2.91,2.91,0,0,0,.38-.89A4.9,4.9,0,0,0,193.88,15.48Z"/><path class="cls-2" d="M199.12,12a2.71,2.71,0,0,1,1.3.29,2.6,2.6,0,0,1,.9.79,3.44,3.44,0,0,1,.52,1.13,5.22,5.22,0,0,1,.17,1.34v.13H197a3.58,3.58,0,0,0,.13.94,2.58,2.58,0,0,0,.39.83,2,2,0,0,0,.66.59,1.92,1.92,0,0,0,.95.22,2.44,2.44,0,0,0,.7-.09,2,2,0,0,0,.56-.26,1.76,1.76,0,0,0,.42-.39A2.4,2.4,0,0,0,201,17h.79a3,3,0,0,1-.38.79,2.48,2.48,0,0,1-.59.6,2.68,2.68,0,0,1-.79.39,3.33,3.33,0,0,1-1,.14,2.94,2.94,0,0,1-1.3-.27,2.56,2.56,0,0,1-.91-.73,3.12,3.12,0,0,1-.54-1.1,5.13,5.13,0,0,1-.18-1.37,4.66,4.66,0,0,1,.18-1.28,3.37,3.37,0,0,1,.54-1.11,2.74,2.74,0,0,1,.92-.78A2.79,2.79,0,0,1,199.12,12Zm2.09,3a3,3,0,0,0-.16-.85,2.44,2.44,0,0,0-.41-.75,2.07,2.07,0,0,0-.65-.54,1.84,1.84,0,0,0-.88-.21,1.84,1.84,0,0,0-1.5.7,2.69,2.69,0,0,0-.42.75,4.32,4.32,0,0,0-.23.9Z"/><path class="cls-2" d="M204.51,9.68v9.08h-.8V9.68Z"/><g class="cls-3"><path class="cls-2" d="M102.67,105.19v7.87h4.8v.7h-5.62v-8.57Z"/><path class="cls-2" d="M114.27,113.71l-.27,0h-.24a1.37,1.37,0,0,1-.44-.06.65.65,0,0,1-.29-.2.82.82,0,0,1-.16-.36,2.42,2.42,0,0,1,0-.53h0a3,3,0,0,1-1,1,2.79,2.79,0,0,1-1.35.29,2.46,2.46,0,0,1-1.6-.5,1.75,1.75,0,0,1-.6-1.43,1.66,1.66,0,0,1,.66-1.43,6.79,6.79,0,0,1,3-.69,2,2,0,0,0,.44-.08.75.75,0,0,0,.29-.16.59.59,0,0,0,.16-.26,1.28,1.28,0,0,0,0-.38,1.25,1.25,0,0,0-.4-1,2,2,0,0,0-1.31-.34,2.61,2.61,0,0,0-.72.09,1.65,1.65,0,0,0-.53.25,1.13,1.13,0,0,0-.33.39,1.23,1.23,0,0,0-.13.49h-.8a2,2,0,0,1,.22-.78,1.77,1.77,0,0,1,.51-.59,2.43,2.43,0,0,1,.81-.38,4,4,0,0,1,1.09-.13,2.64,2.64,0,0,1,1.83.54,2,2,0,0,1,.59,1.52v3.56a.47.47,0,0,0,.11.33.46.46,0,0,0,.36.12.7.7,0,0,0,.25,0Zm-1.52-3.54h0q-.12.22-.77.31l-.67.1-.74.12a2.67,2.67,0,0,0-1.17.44,1,1,0,0,0-.39.84,1.16,1.16,0,0,0,.43.94,1.6,1.6,0,0,0,1,.35,2.36,2.36,0,0,0,1.63-.58,1.85,1.85,0,0,0,.65-1.44Z"/><path class="cls-2" d="M121.76,110.48a4.77,4.77,0,0,1-.17,1.28,3.38,3.38,0,0,1-.53,1.11,2.69,2.69,0,0,1-.92.79,2.8,2.8,0,0,1-1.33.3,2.91,2.91,0,0,1-.72-.09,2.59,2.59,0,0,1-.66-.27,2.33,2.33,0,0,1-.55-.45,2.18,2.18,0,0,1-.4-.63h0v1.25h-.74v-9.08h.8v3.77h0a2,2,0,0,1,.36-.61,2.25,2.25,0,0,1,.54-.45,2.49,2.49,0,0,1,.66-.28,3,3,0,0,1,2,.18,2.63,2.63,0,0,1,.91.75,3.34,3.34,0,0,1,.55,1.1A5,5,0,0,1,121.76,110.48Zm-.8,0a4.4,4.4,0,0,0,0-.65,3.53,3.53,0,0,0-.16-.64,2.89,2.89,0,0,0-.28-.59,2.08,2.08,0,0,0-.41-.48,1.83,1.83,0,0,0-.55-.32,2,2,0,0,0-.71-.12,2,2,0,0,0-1.73.85,2.72,2.72,0,0,0-.42.89,3.94,3.94,0,0,0-.14,1.06,4.21,4.21,0,0,0,.13,1,2.67,2.67,0,0,0,.4.9,2.08,2.08,0,0,0,.71.63,2.18,2.18,0,0,0,1.06.24,1.88,1.88,0,0,0,1-.23,2,2,0,0,0,.66-.63,2.91,2.91,0,0,0,.38-.89A4.9,4.9,0,0,0,121,110.48Z"/><path class="cls-2" d="M126.2,107a2.71,2.71,0,0,1,1.3.29,2.6,2.6,0,0,1,.9.79,3.44,3.44,0,0,1,.52,1.13,5.22,5.22,0,0,1,.17,1.34v.13H124a3.58,3.58,0,0,0,.13.94,2.58,2.58,0,0,0,.39.83,2,2,0,0,0,.66.59,1.92,1.92,0,0,0,.95.22,2.44,2.44,0,0,0,.7-.09,2,2,0,0,0,.56-.26,1.76,1.76,0,0,0,.42-.39,2.4,2.4,0,0,0,.29-.49h.79a3,3,0,0,1-.38.79,2.48,2.48,0,0,1-.59.6,2.68,2.68,0,0,1-.79.39,3.33,3.33,0,0,1-1,.14,2.94,2.94,0,0,1-1.3-.27A2.56,2.56,0,0,1,124,113a3.12,3.12,0,0,1-.54-1.1,5.13,5.13,0,0,1-.18-1.37,4.66,4.66,0,0,1,.18-1.28,3.37,3.37,0,0,1,.54-1.11,2.74,2.74,0,0,1,.92-.78A2.79,2.79,0,0,1,126.2,107Zm2.09,3a3,3,0,0,0-.16-.85,2.44,2.44,0,0,0-.41-.75,2.07,2.07,0,0,0-.65-.54,1.84,1.84,0,0,0-.88-.21,1.84,1.84,0,0,0-1.5.7,2.69,2.69,0,0,0-.42.75,4.32,4.32,0,0,0-.23.9Z"/><path class="cls-2" d="M131.59,104.68v9.08h-.8v-9.08Z"/></g><g class="cls-3"><path class="cls-2" d="M173.94,105.19v7.87h4.8v.7h-5.62v-8.57Z"/><path class="cls-2" d="M185.55,113.71l-.27,0H185a1.37,1.37,0,0,1-.44-.06.65.65,0,0,1-.29-.2.82.82,0,0,1-.16-.36,2.42,2.42,0,0,1,0-.53h0a3,3,0,0,1-1,1,2.79,2.79,0,0,1-1.35.29,2.46,2.46,0,0,1-1.6-.5,1.75,1.75,0,0,1-.6-1.43,1.66,1.66,0,0,1,.66-1.43,6.79,6.79,0,0,1,3-.69,2,2,0,0,0,.44-.08.75.75,0,0,0,.29-.16.59.59,0,0,0,.16-.26,1.28,1.28,0,0,0,0-.38,1.25,1.25,0,0,0-.4-1,2,2,0,0,0-1.31-.34,2.61,2.61,0,0,0-.72.09,1.65,1.65,0,0,0-.53.25,1.13,1.13,0,0,0-.33.39,1.23,1.23,0,0,0-.13.49h-.8a2,2,0,0,1,.22-.78,1.77,1.77,0,0,1,.51-.59,2.43,2.43,0,0,1,.81-.38,4,4,0,0,1,1.09-.13,2.64,2.64,0,0,1,1.83.54,2,2,0,0,1,.59,1.52v3.56a.47.47,0,0,0,.11.33.46.46,0,0,0,.36.12.7.7,0,0,0,.25,0ZM184,110.17h0q-.12.22-.77.31l-.67.1-.74.12a2.67,2.67,0,0,0-1.17.44,1,1,0,0,0-.39.84,1.16,1.16,0,0,0,.43.94,1.6,1.6,0,0,0,1,.35,2.36,2.36,0,0,0,1.63-.58,1.85,1.85,0,0,0,.65-1.44Z"/><path class="cls-2" d="M193,110.48a4.77,4.77,0,0,1-.17,1.28,3.38,3.38,0,0,1-.53,1.11,2.69,2.69,0,0,1-.92.79,2.8,2.8,0,0,1-1.33.3,2.91,2.91,0,0,1-.72-.09,2.59,2.59,0,0,1-.66-.27,2.33,2.33,0,0,1-.55-.45,2.18,2.18,0,0,1-.4-.63h0v1.25H187v-9.08h.8v3.77h0a2,2,0,0,1,.36-.61,2.25,2.25,0,0,1,.54-.45,2.49,2.49,0,0,1,.66-.28,3,3,0,0,1,2,.18,2.63,2.63,0,0,1,.91.75,3.34,3.34,0,0,1,.55,1.1A5,5,0,0,1,193,110.48Zm-.8,0a4.4,4.4,0,0,0,0-.65,3.53,3.53,0,0,0-.16-.64,2.89,2.89,0,0,0-.28-.59,2.08,2.08,0,0,0-.41-.48,1.83,1.83,0,0,0-.55-.32,2,2,0,0,0-.71-.12,2,2,0,0,0-1.73.85,2.72,2.72,0,0,0-.42.89,3.94,3.94,0,0,0-.14,1.06,4.21,4.21,0,0,0,.13,1,2.67,2.67,0,0,0,.4.9,2.08,2.08,0,0,0,.71.63,2.18,2.18,0,0,0,1.06.24,1.88,1.88,0,0,0,1-.23,2,2,0,0,0,.66-.63,2.91,2.91,0,0,0,.38-.89A4.9,4.9,0,0,0,192.24,110.48Z"/><path class="cls-2" d="M197.48,107a2.71,2.71,0,0,1,1.3.29,2.6,2.6,0,0,1,.9.79,3.44,3.44,0,0,1,.52,1.13,5.22,5.22,0,0,1,.17,1.34v.13h-5.05a3.58,3.58,0,0,0,.13.94,2.58,2.58,0,0,0,.39.83,2,2,0,0,0,.66.59,1.92,1.92,0,0,0,.95.22,2.44,2.44,0,0,0,.7-.09,2,2,0,0,0,.56-.26,1.76,1.76,0,0,0,.42-.39,2.4,2.4,0,0,0,.29-.49h.79a3,3,0,0,1-.38.79,2.48,2.48,0,0,1-.59.6,2.68,2.68,0,0,1-.79.39,3.33,3.33,0,0,1-1,.14,2.94,2.94,0,0,1-1.3-.27,2.56,2.56,0,0,1-.91-.73,3.12,3.12,0,0,1-.54-1.1,5.13,5.13,0,0,1-.18-1.37,4.66,4.66,0,0,1,.18-1.28,3.37,3.37,0,0,1,.54-1.11,2.74,2.74,0,0,1,.92-.78A2.79,2.79,0,0,1,197.48,107Zm2.09,3a3,3,0,0,0-.16-.85,2.44,2.44,0,0,0-.41-.75,2.07,2.07,0,0,0-.65-.54,1.84,1.84,0,0,0-.88-.21,1.84,1.84,0,0,0-1.5.7,2.69,2.69,0,0,0-.42.75,4.32,4.32,0,0,0-.23.9Z"/><path class="cls-2" d="M202.87,104.68v9.08h-.8v-9.08Z"/></g><path class="cls-4" d="M87,23.5A8.5,8.5,0,1,1,95.5,15,8.51,8.51,0,0,1,87,23.5Z"/><path class="cls-5" d="M87,7a8,8,0,1,1-8,8,8,8,0,0,1,8-8m0-1a9,9,0,1,0,9,9,9,9,0,0,0-9-9Z"/><path class="cls-6" d="M87,118.5a8.5,8.5,0,1,1,8.5-8.5A8.51,8.51,0,0,1,87,118.5Z"/><path class="cls-7" d="M87,102a8,8,0,1,1-8,8,8,8,0,0,1,8-8m0-1a9,9,0,1,0,9,9,9,9,0,0,0-9-9Z"/><path class="cls-6" d="M159.28,118.5a8.5,8.5,0,1,1,8.5-8.5A8.51,8.51,0,0,1,159.28,118.5Z"/><path class="cls-7" d="M159.28,102a8,8,0,1,1-8,8,8,8,0,0,1,8-8m0-1a9,9,0,1,0,9,9,9,9,0,0,0-9-9Z"/><path class="cls-4" d="M87,71.5A8.5,8.5,0,1,1,95.5,63,8.51,8.51,0,0,1,87,71.5Z"/><path class="cls-8" d="M87,55a8,8,0,1,1-8,8,8,8,0,0,1,8-8m0-1a9,9,0,1,0,9,9,9,9,0,0,0-9-9Z"/><circle class="cls-9" cx="87" cy="63" r="4"/><path class="cls-4" d="M159.92,23.5a8.5,8.5,0,1,1,8.5-8.5A8.51,8.51,0,0,1,159.92,23.5Z"/><path class="cls-5" d="M159.92,7a8,8,0,1,1-8,8,8,8,0,0,1,8-8m0-1a9,9,0,1,0,9,9,9,9,0,0,0-9-9Z"/><circle class="cls-10" cx="159.92" cy="15" r="4"/><circle class="cls-11" cx="159.28" cy="110" r="4"/><path class="cls-4" d="M159.28,71.5a8.5,8.5,0,1,1,8.5-8.5A8.51,8.51,0,0,1,159.28,71.5Z"/><path class="cls-8" d="M159.28,55a8,8,0,1,1-8,8,8,8,0,0,1,8-8m0-1a9,9,0,1,0,9,9,9,9,0,0,0-9-9Z"/><circle class="cls-10" cx="159.28" cy="63" r="4"/></g></svg>