<svg xmlns="http://www.w3.org/2000/svg" viewBox="0 0 797 140"><defs><style>.cls-1,.cls-11,.cls-14,.cls-6{fill:none;}.cls-1{stroke:#b2b2b2;stroke-width:1.08px;}.cls-1,.cls-10,.cls-11,.cls-14,.cls-4,.cls-6,.cls-7{stroke-miterlimit:10;}.cls-2{fill:gray;}.cls-3,.cls-4{fill:#389aea;}.cls-4,.cls-7{stroke:#389aea;}.cls-5{fill:#f2f2f2;}.cls-6{stroke:#ccc;}.cls-7,.cls-9{fill:#3799e9;}.cls-8{fill:#ccc;}.cls-10,.cls-12{fill:#fff;}.cls-10{stroke:#000;opacity:0.3;}.cls-11{stroke:gray;}.cls-13{opacity:0.2;}.cls-14{stroke:#fff;}</style></defs><title>Artboard 33</title><g id="Layer_1" data-name="Layer 1"><rect class="cls-1" x="84.08" y="31.23" width="610.31" height="4"/><path class="cls-2" d="M21.24,27.19a2.87,2.87,0,0,1,1.32.29,2.48,2.48,0,0,1,.94.85,4.14,4.14,0,0,1,.57,1.39,8.64,8.64,0,0,1,.19,1.92A5.94,5.94,0,0,1,23.49,35a2.55,2.55,0,0,1-2.25,1.12A2.56,2.56,0,0,1,19,35a5.89,5.89,0,0,1-.77-3.34A5.89,5.89,0,0,1,19,28.3,2.56,2.56,0,0,1,21.24,27.19ZM19,31.64q0,3.81,2.23,3.81t2.24-3.81a5.64,5.64,0,0,0-.57-2.84,1.84,1.84,0,0,0-1.68-1,1.82,1.82,0,0,0-1.65.94A5.63,5.63,0,0,0,19,31.64Z"/><path class="cls-2" d="M31.51,33.5a2.36,2.36,0,0,1-.83,1.91,3.22,3.22,0,0,1-2.16.7,3.18,3.18,0,0,1-2.16-.71,2.52,2.52,0,0,1-.7-2.64,2.29,2.29,0,0,1,.35-.67,2.18,2.18,0,0,1,1.28-.81v0a2.05,2.05,0,0,1-1.06-.72,2,2,0,0,1-.35-1.18,1.9,1.9,0,0,1,.76-1.57,2.91,2.91,0,0,1,1.86-.59,3,3,0,0,1,1.88.59,1.88,1.88,0,0,1,.76,1.57,2.2,2.2,0,0,1-.09.65,1.81,1.81,0,0,1-.72,1,2.1,2.1,0,0,1-.6.28v0a2.18,2.18,0,0,1,1.32.77A2.29,2.29,0,0,1,31.51,33.5Zm-.78,0a1.75,1.75,0,0,0-.59-1.35,2.31,2.31,0,0,0-1.63-.53,2.33,2.33,0,0,0-1.61.52,1.76,1.76,0,0,0-.57,1.37,1.79,1.79,0,0,0,.6,1.42,2.7,2.7,0,0,0,3.2,0A1.79,1.79,0,0,0,30.73,33.5Zm-.36-4.14a1.35,1.35,0,0,0-.5-1.1,2.37,2.37,0,0,0-2.67,0,1.3,1.3,0,0,0-.53,1.09,1.48,1.48,0,0,0,.49,1.18,2,2,0,0,0,1.32.43,2,2,0,0,0,1.41-.45A1.52,1.52,0,0,0,30.37,29.35Z"/><path class="cls-2" d="M34.55,29.6v1.27H33.44V29.6Zm0,5v1.27H33.44V34.64Z"/><path class="cls-2" d="M39.4,27.19a3.57,3.57,0,0,1,1,.13,2.67,2.67,0,0,1,.85.41,2.08,2.08,0,0,1,.6.69,2,2,0,0,1,.23,1,2.22,2.22,0,0,1-.1.66,1.82,1.82,0,0,1-.28.56,1.77,1.77,0,0,1-.45.42,2.14,2.14,0,0,1-.62.27v0a2.06,2.06,0,0,1,1.33.74,2.21,2.21,0,0,1,.45,1.39,2.41,2.41,0,0,1-.84,1.91,2.78,2.78,0,0,1-1,.55,3.78,3.78,0,0,1-1.21.18,3.66,3.66,0,0,1-1.12-.17,2.8,2.8,0,0,1-.92-.49,2.34,2.34,0,0,1-.63-.78,2.29,2.29,0,0,1-.23-1v-.18h.79v.16a1.73,1.73,0,0,0,.56,1.28,2,2,0,0,0,.66.4,2.45,2.45,0,0,0,.88.15,2.7,2.7,0,0,0,.91-.13,2.21,2.21,0,0,0,.69-.4,1.7,1.7,0,0,0,.64-1.38,1.89,1.89,0,0,0-.14-.75A1.64,1.64,0,0,0,41,32.2a2.22,2.22,0,0,0-1.53-.5h-.64V31h.69a1.86,1.86,0,0,0,1.21-.42,1.42,1.42,0,0,0,.52-1.15,1.59,1.59,0,0,0-.15-.71,1.48,1.48,0,0,0-.4-.51,1.73,1.73,0,0,0-.6-.31,2.56,2.56,0,0,0-.73-.1,2.1,2.1,0,0,0-.81.15,1.8,1.8,0,0,0-.61.41,1.82,1.82,0,0,0-.39.6,2,2,0,0,0-.13.73h-.78a2.44,2.44,0,0,1,.18-.92,2.52,2.52,0,0,1,.53-.82,2.7,2.7,0,0,1,.86-.59A2.82,2.82,0,0,1,39.4,27.19Z"/><path class="cls-2" d="M46.73,27.19a2.81,2.81,0,0,1,2,.66,2.28,2.28,0,0,1,.73,1.78,2.82,2.82,0,0,1-.55,1.66,7,7,0,0,1-2,1.66,8.29,8.29,0,0,0-1.66,1.23,2,2,0,0,0-.56,1h4.81v.72h-5.7a3,3,0,0,1,.56-1.74,6.61,6.61,0,0,1,1.93-1.66A8.78,8.78,0,0,0,48.13,31a2.11,2.11,0,0,0,.51-1.41,1.64,1.64,0,0,0-.54-1.28,2,2,0,0,0-1.4-.49,2,2,0,0,0-.86.17,1.82,1.82,0,0,0-.61.44,1.77,1.77,0,0,0-.36.62,2.2,2.2,0,0,0-.12.71V30H44v-.12a2.93,2.93,0,0,1,.17-1,2.42,2.42,0,0,1,.51-.84,2.47,2.47,0,0,1,.86-.59A3.06,3.06,0,0,1,46.73,27.19Z"/><path class="cls-2" d="M60.62,35.87l-.27,0h-.24a1.37,1.37,0,0,1-.44-.06.66.66,0,0,1-.29-.2.81.81,0,0,1-.16-.35,2.44,2.44,0,0,1,0-.53h0a3,3,0,0,1-1,1,2.79,2.79,0,0,1-1.35.29,2.46,2.46,0,0,1-1.6-.5,1.75,1.75,0,0,1-.6-1.43,1.66,1.66,0,0,1,.66-1.43,6.79,6.79,0,0,1,3-.69A2,2,0,0,0,58.6,32a.75.75,0,0,0,.29-.16.6.6,0,0,0,.16-.26,1.28,1.28,0,0,0,0-.38,1.24,1.24,0,0,0-.4-1,2,2,0,0,0-1.31-.34,2.61,2.61,0,0,0-.72.09,1.65,1.65,0,0,0-.53.25,1.13,1.13,0,0,0-.33.39,1.22,1.22,0,0,0-.13.49h-.8a2,2,0,0,1,.22-.78,1.78,1.78,0,0,1,.51-.6,2.43,2.43,0,0,1,.81-.38,4,4,0,0,1,1.09-.13,2.64,2.64,0,0,1,1.83.54,2,2,0,0,1,.59,1.52v3.56a.47.47,0,0,0,.11.33.46.46,0,0,0,.36.12.7.7,0,0,0,.25,0ZM59.1,32.32h0q-.12.22-.77.31l-.67.1-.74.12a2.67,2.67,0,0,0-1.17.44,1,1,0,0,0-.39.84,1.16,1.16,0,0,0,.43.94,1.6,1.6,0,0,0,1,.35,2.36,2.36,0,0,0,1.63-.58,1.85,1.85,0,0,0,.65-1.44Z"/><path class="cls-2" d="M70.32,35.92V31.45A1.73,1.73,0,0,0,70,30.23a1.85,1.85,0,0,0-2.5.21A2.8,2.8,0,0,0,67,32.14v3.77h-.81V31.42a1.81,1.81,0,0,0-.34-1.17,1.25,1.25,0,0,0-1-.42,1.72,1.72,0,0,0-1.46.65,2.72,2.72,0,0,0-.5,1.71v3.72h-.8V29.35h.74v1.1h0A2.26,2.26,0,0,1,65,29.17a2.44,2.44,0,0,1,.64.08,1.87,1.87,0,0,1,.54.24,1.66,1.66,0,0,1,.42.4,1.85,1.85,0,0,1,.28.55,2.16,2.16,0,0,1,.85-1A2.4,2.4,0,0,1,69,29.17a2.12,2.12,0,0,1,1.63.58,2.36,2.36,0,0,1,.54,1.66v4.51Z"/><path class="cls-3" d="M217.12,11.15a2.62,2.62,0,0,1,1.21.26,2.28,2.28,0,0,1,.87.78,3.8,3.8,0,0,1,.52,1.28,7.89,7.89,0,0,1,.17,1.76,5.45,5.45,0,0,1-.7,3.07,2.58,2.58,0,0,1-4.12,0,5.4,5.4,0,0,1-.71-3.06,5.39,5.39,0,0,1,.71-3.07A2.34,2.34,0,0,1,217.12,11.15Zm-2,4.08q0,3.49,2,3.49t2.05-3.49a5.18,5.18,0,0,0-.52-2.6,1.78,1.78,0,0,0-3.06,0A5.16,5.16,0,0,0,215.08,15.23Z"/><path class="cls-3" d="M223.59,19.32a2.92,2.92,0,0,1-.86-.12,2.13,2.13,0,0,1-.69-.35,2,2,0,0,1-.49-.57,2.3,2.3,0,0,1-.27-.77H222a1.56,1.56,0,0,0,.17.47,1.35,1.35,0,0,0,.32.38,1.53,1.53,0,0,0,.48.26,2,2,0,0,0,.64.09,1.85,1.85,0,0,0,.94-.23,1.93,1.93,0,0,0,.68-.68,3.51,3.51,0,0,0,.42-1.11,7.35,7.35,0,0,0,.14-1.51h0a2.32,2.32,0,0,1-.88,1,2.34,2.34,0,0,1-1.24.36,2.51,2.51,0,0,1-1.88-.74,2.59,2.59,0,0,1-.73-1.91,2.6,2.6,0,0,1,2.69-2.69,2.83,2.83,0,0,1,1.29.27,2.1,2.1,0,0,1,.85.77,3.83,3.83,0,0,1,.48,1.28,9.51,9.51,0,0,1,.16,1.88,7.66,7.66,0,0,1-.06,1,5,5,0,0,1-.2.93,4.07,4.07,0,0,1-.37.82,2.62,2.62,0,0,1-.55.66,2.44,2.44,0,0,1-.75.44A2.82,2.82,0,0,1,223.59,19.32Zm2-5.53a2.06,2.06,0,0,0-.52-1.5,1.94,1.94,0,0,0-1.46-.54,1.75,1.75,0,0,0-1.36.6,2.07,2.07,0,0,0-.54,1.43,2.2,2.2,0,0,0,.53,1.5,1.76,1.76,0,0,0,1.4.6,1.88,1.88,0,0,0,1.41-.58A2.1,2.1,0,0,0,225.64,13.79Z"/><path class="cls-3" d="M229.32,13.36v1.17h-1V13.36Zm0,4.63v1.17h-1V18Z"/><path class="cls-3" d="M233.76,11.15a3.29,3.29,0,0,1,.89.12,2.45,2.45,0,0,1,.78.37,1.93,1.93,0,0,1,.55.63,1.82,1.82,0,0,1,.21.89,2,2,0,0,1-.09.61,1.65,1.65,0,0,1-.26.51,1.62,1.62,0,0,1-.42.39,2,2,0,0,1-.57.25v0a1.88,1.88,0,0,1,1.22.68,2,2,0,0,1,.41,1.28,2.21,2.21,0,0,1-.77,1.75,2.57,2.57,0,0,1-.87.5,3.46,3.46,0,0,1-1.11.16,3.31,3.31,0,0,1-1-.15,2.55,2.55,0,0,1-.84-.45,2.15,2.15,0,0,1-.58-.71,2.09,2.09,0,0,1-.21-1v-.17h.72V17a1.59,1.59,0,0,0,.51,1.18,1.84,1.84,0,0,0,.6.37,2.28,2.28,0,0,0,.81.14,2.49,2.49,0,0,0,.83-.12,2.07,2.07,0,0,0,.64-.37,1.56,1.56,0,0,0,.59-1.26,1.73,1.73,0,0,0-.13-.69,1.51,1.51,0,0,0-.39-.53,2,2,0,0,0-1.4-.46h-.59v-.6h.63A1.71,1.71,0,0,0,235,14.3a1.3,1.3,0,0,0,.47-1.06,1.45,1.45,0,0,0-.14-.65,1.34,1.34,0,0,0-.37-.47,1.56,1.56,0,0,0-.55-.28,2.36,2.36,0,0,0-.67-.09,1.91,1.91,0,0,0-.74.14,1.64,1.64,0,0,0-.56.38,1.66,1.66,0,0,0-.35.55,1.8,1.8,0,0,0-.12.67h-.71a2.24,2.24,0,0,1,.17-.84,2.33,2.33,0,0,1,.49-.75,2.45,2.45,0,0,1,.78-.54A2.57,2.57,0,0,1,233.76,11.15Z"/><path class="cls-3" d="M242,17.18v2h-.66v-2H237.7v-.69l3.67-5.28H242v5.36h1.19v.6Zm-.66-4.92h0l-3,4.31h3Z"/><path class="cls-3" d="M253.22,19.11l-.24,0h-.22a1.27,1.27,0,0,1-.41-.06.6.6,0,0,1-.27-.18.76.76,0,0,1-.15-.33,2.22,2.22,0,0,1,0-.48h0a2.81,2.81,0,0,1-.95,1,2.55,2.55,0,0,1-1.24.27,2.26,2.26,0,0,1-1.47-.46,1.6,1.6,0,0,1-.55-1.31,1.52,1.52,0,0,1,.6-1.31,6.22,6.22,0,0,1,2.71-.63,1.84,1.84,0,0,0,.41-.07.71.71,0,0,0,.26-.15.55.55,0,0,0,.14-.24,1.17,1.17,0,0,0,0-.35,1.14,1.14,0,0,0-.37-.92,1.85,1.85,0,0,0-1.2-.31,2.35,2.35,0,0,0-.66.08,1.51,1.51,0,0,0-.49.23,1,1,0,0,0-.31.36,1.12,1.12,0,0,0-.12.45h-.74a1.83,1.83,0,0,1,.2-.71,1.63,1.63,0,0,1,.47-.54,2.22,2.22,0,0,1,.74-.35,3.71,3.71,0,0,1,1-.12,2.43,2.43,0,0,1,1.68.49,1.8,1.8,0,0,1,.54,1.39v3.27a.43.43,0,0,0,.1.3.42.42,0,0,0,.33.11.67.67,0,0,0,.23,0Zm-1.4-3.25h0c-.07.14-.31.23-.7.29l-.61.09-.67.11a2.45,2.45,0,0,0-1.07.4.92.92,0,0,0-.36.77,1.07,1.07,0,0,0,.4.87,1.47,1.47,0,0,0,.95.32,2.16,2.16,0,0,0,1.5-.53,1.7,1.7,0,0,0,.6-1.32Z"/><path class="cls-3" d="M262.11,19.15V15.06a1.58,1.58,0,0,0-.34-1.12,1.69,1.69,0,0,0-2.3.19,2.57,2.57,0,0,0-.41,1.57v3.46h-.74V15A1.66,1.66,0,0,0,258,14a1.14,1.14,0,0,0-.95-.39,1.58,1.58,0,0,0-1.34.6,2.49,2.49,0,0,0-.46,1.57v3.41h-.74v-6h.68v1h0a2.07,2.07,0,0,1,2-1.18,2.29,2.29,0,0,1,.59.07,1.75,1.75,0,0,1,.5.22,1.54,1.54,0,0,1,.38.37,1.73,1.73,0,0,1,.25.51,2,2,0,0,1,.78-.87,2.2,2.2,0,0,1,1.14-.29,1.94,1.94,0,0,1,1.5.53,2.16,2.16,0,0,1,.49,1.52v4.14Z"/><path class="cls-3" d="M452.91,19.15V13.26h-2.09v-.51c.33,0,.6,0,.83-.05a2.26,2.26,0,0,0,.53-.12,1.2,1.2,0,0,0,.59-.48,2.25,2.25,0,0,0,.29-.89h.58v7.93Z"/><path class="cls-3" d="M459.5,11.15a2.62,2.62,0,0,1,1.21.26,2.28,2.28,0,0,1,.87.78,3.8,3.8,0,0,1,.52,1.28,7.92,7.92,0,0,1,.17,1.76,5.45,5.45,0,0,1-.7,3.07,2.58,2.58,0,0,1-4.12,0,5.4,5.4,0,0,1-.71-3.06,5.39,5.39,0,0,1,.71-3.07A2.34,2.34,0,0,1,459.5,11.15Zm-2,4.08q0,3.49,2,3.49t2.05-3.49a5.17,5.17,0,0,0-.52-2.6,1.78,1.78,0,0,0-3.06,0A5.17,5.17,0,0,0,457.46,15.23Z"/><path class="cls-3" d="M465,13.36v1.17h-1V13.36ZM465,18v1.17h-1V18Z"/><path class="cls-3" d="M469.54,11.15a2.58,2.58,0,0,1,1.79.6,2.09,2.09,0,0,1,.67,1.63,2.58,2.58,0,0,1-.5,1.52,6.39,6.39,0,0,1-1.84,1.52,7.58,7.58,0,0,0-1.52,1.13,1.83,1.83,0,0,0-.51.94H472v.66h-5.23a2.75,2.75,0,0,1,.51-1.6A6.06,6.06,0,0,1,469.09,16a8,8,0,0,0,1.73-1.36,1.93,1.93,0,0,0,.47-1.29,1.5,1.5,0,0,0-.49-1.17,1.85,1.85,0,0,0-1.28-.45,1.87,1.87,0,0,0-.78.15,1.67,1.67,0,0,0-.56.4,1.63,1.63,0,0,0-.33.57,2,2,0,0,0-.11.65v.15H467v-.11a2.71,2.71,0,0,1,.15-.9,2.19,2.19,0,0,1,1.25-1.31A2.79,2.79,0,0,1,469.54,11.15Z"/><path class="cls-3" d="M478.75,11.31V12a12.54,12.54,0,0,0-1.3,1.6,12.13,12.13,0,0,0-1,1.75,10.63,10.63,0,0,0-.64,1.87,11.24,11.24,0,0,0-.29,2h-.77a11.76,11.76,0,0,1,.29-1.95,9.65,9.65,0,0,1,.61-1.77A14.39,14.39,0,0,1,478,12h-4.39v-.65Z"/><path class="cls-3" d="M488.93,19.11l-.24,0h-.22a1.27,1.27,0,0,1-.41-.06.6.6,0,0,1-.27-.18.75.75,0,0,1-.15-.33,2.22,2.22,0,0,1,0-.48h0a2.81,2.81,0,0,1-.95,1,2.55,2.55,0,0,1-1.24.27,2.26,2.26,0,0,1-1.47-.46,1.6,1.6,0,0,1-.55-1.31,1.52,1.52,0,0,1,.6-1.31,6.21,6.21,0,0,1,2.71-.63,1.85,1.85,0,0,0,.41-.07.71.71,0,0,0,.26-.15.55.55,0,0,0,.14-.24,1.19,1.19,0,0,0,0-.35,1.14,1.14,0,0,0-.37-.92,1.86,1.86,0,0,0-1.2-.31,2.35,2.35,0,0,0-.66.08,1.52,1.52,0,0,0-.49.23,1,1,0,0,0-.31.36,1.14,1.14,0,0,0-.12.45h-.74a1.83,1.83,0,0,1,.2-.71,1.64,1.64,0,0,1,.47-.54,2.23,2.23,0,0,1,.74-.35,3.71,3.71,0,0,1,1-.12,2.43,2.43,0,0,1,1.68.49,1.8,1.8,0,0,1,.54,1.39v3.27a.43.43,0,0,0,.1.3.42.42,0,0,0,.33.11.67.67,0,0,0,.23,0Zm-1.4-3.25h0c-.07.14-.31.23-.7.29l-.61.09-.67.11a2.45,2.45,0,0,0-1.07.4.92.92,0,0,0-.36.77,1.07,1.07,0,0,0,.4.87,1.47,1.47,0,0,0,.95.32,2.16,2.16,0,0,0,1.5-.53,1.69,1.69,0,0,0,.6-1.32Z"/><path class="cls-3" d="M497.83,19.15V15.06a1.58,1.58,0,0,0-.34-1.12,1.69,1.69,0,0,0-2.3.19,2.57,2.57,0,0,0-.41,1.57v3.46H494V15a1.66,1.66,0,0,0-.31-1.07,1.14,1.14,0,0,0-.95-.39,1.58,1.58,0,0,0-1.34.6,2.49,2.49,0,0,0-.46,1.57v3.41h-.74v-6h.68v1h0a2.07,2.07,0,0,1,2-1.18,2.29,2.29,0,0,1,.59.07,1.74,1.74,0,0,1,.5.22,1.55,1.55,0,0,1,.38.37,1.72,1.72,0,0,1,.25.51,2,2,0,0,1,.78-.87,2.2,2.2,0,0,1,1.14-.29,1.94,1.94,0,0,1,1.5.53,2.16,2.16,0,0,1,.49,1.52v4.14Z"/><path class="cls-2" d="M716.74,35.92V29.49h-2.29v-.56c.36,0,.66,0,.9-.05a2.35,2.35,0,0,0,.57-.13,1.3,1.3,0,0,0,.64-.52,2.47,2.47,0,0,0,.31-1h.63v8.65Z"/><path class="cls-2" d="M723.94,27.19a2.81,2.81,0,0,1,2,.66,2.28,2.28,0,0,1,.73,1.78,2.82,2.82,0,0,1-.55,1.66,7,7,0,0,1-2,1.66,8.29,8.29,0,0,0-1.66,1.23,2,2,0,0,0-.56,1h4.81v.72H721a3,3,0,0,1,.56-1.74,6.61,6.61,0,0,1,1.93-1.66A8.78,8.78,0,0,0,725.34,31a2.11,2.11,0,0,0,.51-1.41,1.64,1.64,0,0,0-.54-1.28,2,2,0,0,0-1.4-.49,2,2,0,0,0-.86.17,1.82,1.82,0,0,0-.61.44,1.77,1.77,0,0,0-.36.62,2.2,2.2,0,0,0-.12.71V30h-.77v-.12a2.93,2.93,0,0,1,.17-1,2.42,2.42,0,0,1,.51-.84,2.47,2.47,0,0,1,.86-.59A3.06,3.06,0,0,1,723.94,27.19Z"/><path class="cls-2" d="M730,29.6v1.27h-1.11V29.6Zm0,5v1.27h-1.11V34.64Z"/><path class="cls-2" d="M734.83,27.19a3.57,3.57,0,0,1,1,.13,2.67,2.67,0,0,1,.85.41,2.08,2.08,0,0,1,.6.69,2,2,0,0,1,.23,1,2.22,2.22,0,0,1-.1.66,1.82,1.82,0,0,1-.28.56,1.77,1.77,0,0,1-.45.42,2.14,2.14,0,0,1-.62.27v0a2.06,2.06,0,0,1,1.33.74,2.21,2.21,0,0,1,.45,1.39,2.41,2.41,0,0,1-.84,1.91,2.78,2.78,0,0,1-1,.55,3.78,3.78,0,0,1-1.21.18,3.66,3.66,0,0,1-1.12-.17,2.8,2.8,0,0,1-.92-.49,2.34,2.34,0,0,1-.63-.78,2.29,2.29,0,0,1-.23-1v-.18h.79v.16a1.73,1.73,0,0,0,.56,1.28,2,2,0,0,0,.66.4,2.45,2.45,0,0,0,.88.15,2.7,2.7,0,0,0,.91-.13,2.21,2.21,0,0,0,.69-.4,1.7,1.7,0,0,0,.64-1.38,1.89,1.89,0,0,0-.14-.75,1.64,1.64,0,0,0-.42-.58,2.22,2.22,0,0,0-1.53-.5h-.64V31H735a1.86,1.86,0,0,0,1.21-.42,1.42,1.42,0,0,0,.52-1.15,1.59,1.59,0,0,0-.15-.71,1.48,1.48,0,0,0-.4-.51,1.73,1.73,0,0,0-.6-.31,2.56,2.56,0,0,0-.73-.1A2.1,2.1,0,0,0,734,28a1.8,1.8,0,0,0-.61.41,1.82,1.82,0,0,0-.39.6,2,2,0,0,0-.13.73h-.78a2.44,2.44,0,0,1,.18-.92,2.52,2.52,0,0,1,.53-.82,2.7,2.7,0,0,1,.86-.59A2.82,2.82,0,0,1,734.83,27.19Z"/><path class="cls-2" d="M742.16,27.19a2.81,2.81,0,0,1,2,.66,2.28,2.28,0,0,1,.73,1.78,2.82,2.82,0,0,1-.55,1.66,7,7,0,0,1-2,1.66,8.29,8.29,0,0,0-1.66,1.23,2,2,0,0,0-.56,1h4.81v.72h-5.7a3,3,0,0,1,.56-1.74,6.61,6.61,0,0,1,1.93-1.66A8.78,8.78,0,0,0,743.56,31a2.11,2.11,0,0,0,.51-1.41,1.64,1.64,0,0,0-.54-1.28,2,2,0,0,0-1.4-.49,2,2,0,0,0-.86.17,1.82,1.82,0,0,0-.61.44,1.77,1.77,0,0,0-.36.62,2.2,2.2,0,0,0-.12.71V30h-.77v-.12a2.93,2.93,0,0,1,.17-1,2.42,2.42,0,0,1,.51-.84,2.47,2.47,0,0,1,.86-.59A3.06,3.06,0,0,1,742.16,27.19Z"/><path class="cls-2" d="M756.44,32.63a4.78,4.78,0,0,1-.17,1.28,3.38,3.38,0,0,1-.53,1.11,2.69,2.69,0,0,1-.92.79,3,3,0,0,1-2,.21,2.46,2.46,0,0,1-.65-.27,2.29,2.29,0,0,1-.54-.45,2.21,2.21,0,0,1-.38-.63h0v3.67h-.8v-9h.74V30.6h0a2.24,2.24,0,0,1,.39-.61,2.29,2.29,0,0,1,.55-.45,2.67,2.67,0,0,1,.67-.28,2.82,2.82,0,0,1,.74-.1,2.85,2.85,0,0,1,1.29.28,2.64,2.64,0,0,1,.92.75,3.33,3.33,0,0,1,.56,1.11A4.66,4.66,0,0,1,756.44,32.63Zm-.8,0a4.48,4.48,0,0,0-.11-1,2.84,2.84,0,0,0-.37-.9,2.07,2.07,0,0,0-.67-.66,1.9,1.9,0,0,0-1-.26,2.09,2.09,0,0,0-1.7.7,3.21,3.21,0,0,0-.58,2.09,4.21,4.21,0,0,0,.13,1,2.68,2.68,0,0,0,.4.9,2.09,2.09,0,0,0,.71.63,2.16,2.16,0,0,0,1.06.24,1.87,1.87,0,0,0,1-.24,2,2,0,0,0,.67-.63,2.87,2.87,0,0,0,.39-.9A4.14,4.14,0,0,0,755.64,32.63Z"/><path class="cls-2" d="M766.58,35.92V31.45a1.73,1.73,0,0,0-.37-1.22,1.85,1.85,0,0,0-2.5.21,2.8,2.8,0,0,0-.45,1.71v3.77h-.81V31.42a1.81,1.81,0,0,0-.34-1.17,1.25,1.25,0,0,0-1-.42,1.72,1.72,0,0,0-1.46.65,2.72,2.72,0,0,0-.5,1.71v3.72h-.8V29.35h.74v1.1h0a2.26,2.26,0,0,1,2.15-1.29,2.44,2.44,0,0,1,.64.08,1.87,1.87,0,0,1,.54.24,1.66,1.66,0,0,1,.42.4,1.85,1.85,0,0,1,.28.55,2.16,2.16,0,0,1,.85-1,2.4,2.4,0,0,1,1.24-.32,2.12,2.12,0,0,1,1.63.58,2.36,2.36,0,0,1,.54,1.66v4.51Z"/><rect class="cls-3" x="237.33" y="26" width="5.33" height="14.65"/><rect class="cls-3" x="463.33" y="26" width="5.33" height="14.65"/><rect class="cls-4" x="239.5" y="31.5" width="226" height="4"/><rect class="cls-5" x="84.08" y="109.23" width="270.42" height="6"/><path class="cls-2" d="M86.5,97.1a1.92,1.92,0,0,1,.88.19,1.66,1.66,0,0,1,.63.57,2.76,2.76,0,0,1,.38.93,5.79,5.79,0,0,1,.13,1.28,4,4,0,0,1-.51,2.23,1.88,1.88,0,0,1-3,0,5.08,5.08,0,0,1,0-4.46A1.71,1.71,0,0,1,86.5,97.1Zm-1.49,3q0,2.54,1.49,2.54T88,100.06a3.77,3.77,0,0,0-.38-1.89,1.23,1.23,0,0,0-1.12-.63,1.21,1.21,0,0,0-1.1.63A3.76,3.76,0,0,0,85,100.06Z"/><path class="cls-2" d="M340.89,97.1a1.88,1.88,0,0,1,1.3.44,1.52,1.52,0,0,1,.49,1.19,1.88,1.88,0,0,1-.37,1.11,4.6,4.6,0,0,1-1.34,1.11,5.63,5.63,0,0,0-1.11.82,1.33,1.33,0,0,0-.37.68h3.21v.48h-3.8a2,2,0,0,1,.37-1.16,4.44,4.44,0,0,1,1.29-1.11,5.81,5.81,0,0,0,1.26-1,1.4,1.4,0,0,0,.34-.94,1.09,1.09,0,0,0-.36-.85,1.34,1.34,0,0,0-.93-.33,1.36,1.36,0,0,0-.57.11,1.21,1.21,0,0,0-.4.29,1.19,1.19,0,0,0-.24.41,1.47,1.47,0,0,0-.08.47v.11h-.52v-.08a2,2,0,0,1,.11-.65,1.61,1.61,0,0,1,.34-.56,1.66,1.66,0,0,1,.57-.39A2.06,2.06,0,0,1,340.89,97.1Z"/><path class="cls-2" d="M345.73,97.1a1.92,1.92,0,0,1,.88.19,1.66,1.66,0,0,1,.63.57,2.76,2.76,0,0,1,.38.93,5.79,5.79,0,0,1,.13,1.28,4,4,0,0,1-.51,2.23,1.88,1.88,0,0,1-3,0,5.08,5.08,0,0,1,0-4.46A1.71,1.71,0,0,1,345.73,97.1Zm-1.49,3q0,2.54,1.49,2.54t1.49-2.54a3.77,3.77,0,0,0-.38-1.89,1.23,1.23,0,0,0-1.12-.63,1.21,1.21,0,0,0-1.1.63A3.76,3.76,0,0,0,344.24,100.06Z"/><path class="cls-2" d="M350.57,97.1a1.92,1.92,0,0,1,.88.19,1.66,1.66,0,0,1,.63.57,2.76,2.76,0,0,1,.38.93,5.79,5.79,0,0,1,.13,1.28,4,4,0,0,1-.51,2.23,1.88,1.88,0,0,1-3,0,5.08,5.08,0,0,1,0-4.46A1.71,1.71,0,0,1,350.57,97.1Zm-1.49,3q0,2.54,1.49,2.54t1.49-2.54a3.77,3.77,0,0,0-.38-1.89,1.23,1.23,0,0,0-1.12-.63,1.21,1.21,0,0,0-1.1.63A3.76,3.76,0,0,0,349.09,100.06Z"/><path class="cls-3" d="M135.39,127.83a2.3,2.3,0,0,1,.76.12,1.8,1.8,0,0,1,.63.37,1.53,1.53,0,0,1,.41.58,1.89,1.89,0,0,1,.13.72,1.92,1.92,0,0,1-.27,1,3.4,3.4,0,0,1-1.1,1l-.51.34a3.86,3.86,0,0,0-.35.27,2.59,2.59,0,0,0-.44.46h2.7v1h-4.2a2.23,2.23,0,0,1,.44-1.41,2.61,2.61,0,0,1,.33-.37,6.8,6.8,0,0,1,.54-.44q.36-.26.89-.62a2.2,2.2,0,0,0,.6-.54,1,1,0,0,0,.19-.58,1.07,1.07,0,0,0-.06-.35.78.78,0,0,0-.17-.29.7.7,0,0,0-.25-.18.85.85,0,0,0-.34-.06.91.91,0,0,0-.42.09.87.87,0,0,0-.29.23.93.93,0,0,0-.17.32,1.25,1.25,0,0,0-.05.37v.09h-1.11v-.11a2.17,2.17,0,0,1,.15-.83,1.76,1.76,0,0,1,.43-.62,1.82,1.82,0,0,1,.65-.39A2.5,2.5,0,0,1,135.39,127.83Z"/><path class="cls-3" d="M140.23,127.83a2.3,2.3,0,0,1,.76.12,1.8,1.8,0,0,1,.63.37,1.53,1.53,0,0,1,.41.58,1.89,1.89,0,0,1,.13.72,1.92,1.92,0,0,1-.27,1,3.4,3.4,0,0,1-1.1,1l-.51.34a3.86,3.86,0,0,0-.35.27,2.59,2.59,0,0,0-.44.46h2.7v1H138a2.23,2.23,0,0,1,.44-1.41,2.61,2.61,0,0,1,.33-.37,6.8,6.8,0,0,1,.54-.44q.36-.26.89-.62a2.2,2.2,0,0,0,.6-.54,1,1,0,0,0,.19-.58,1.07,1.07,0,0,0-.06-.35.78.78,0,0,0-.17-.29.7.7,0,0,0-.25-.18.85.85,0,0,0-.34-.06.91.91,0,0,0-.42.09.87.87,0,0,0-.29.23.93.93,0,0,0-.17.32,1.25,1.25,0,0,0-.05.37v.09h-1.11v-.11a2.17,2.17,0,0,1,.15-.83,1.76,1.76,0,0,1,.43-.62,1.82,1.82,0,0,1,.65-.39A2.5,2.5,0,0,1,140.23,127.83Z"/><path class="cls-3" d="M144.27,132.42v1.25a1.23,1.23,0,0,1-.32.83,1.54,1.54,0,0,1-.92.48v-.57a.71.71,0,0,0,.41-.27.7.7,0,0,0,.16-.43v-.05H143v-1.23Z"/><path class="cls-3" d="M148.55,132.33v1.32h-1.1v-1.32H145v-1.06l2.48-3.33h1v3.44h.76v.95Zm-1.1-3h0l-1.5,2.06h1.53Z"/><path class="cls-3" d="M215.54,127.94v1h-2.36l-.23,1.29,0,0a1.47,1.47,0,0,1,.48-.33,1.64,1.64,0,0,1,.64-.11,1.73,1.73,0,0,1,.74.15,1.61,1.61,0,0,1,.55.41,1.81,1.81,0,0,1,.35.62,2.33,2.33,0,0,1,.12.76,2,2,0,0,1-.16.79,2.05,2.05,0,0,1-.45.65,2.15,2.15,0,0,1-.68.45,2.19,2.19,0,0,1-.85.17,3.16,3.16,0,0,1-.79-.1,1.93,1.93,0,0,1-.65-.3,1.59,1.59,0,0,1-.45-.52,1.82,1.82,0,0,1-.21-.75h1.16a.94.94,0,0,0,.09.28.73.73,0,0,0,.18.22.82.82,0,0,0,.27.15,1.12,1.12,0,0,0,.36.05,1,1,0,0,0,.44-.09,1,1,0,0,0,.32-.24,1,1,0,0,0,.19-.35,1.34,1.34,0,0,0,.06-.41,1.28,1.28,0,0,0-.06-.41,1,1,0,0,0-.19-.34.92.92,0,0,0-.31-.23,1,1,0,0,0-.43-.09,1.22,1.22,0,0,0-.28,0,.88.88,0,0,0-.42.23,1.37,1.37,0,0,0-.17.2h-1l.57-3.15Z"/><path class="cls-3" d="M218.38,133.65v-3.71h-1.43v-.87a3.24,3.24,0,0,0,.6,0,1.66,1.66,0,0,0,.44-.15,1.18,1.18,0,0,0,.64-.94h.93v5.71Z"/><path class="cls-3" d="M222.77,132.42v1.25a1.23,1.23,0,0,1-.32.83,1.54,1.54,0,0,1-.92.48v-.57a.71.71,0,0,0,.41-.27.7.7,0,0,0,.16-.43v-.05h-.58v-1.23Z"/><path class="cls-3" d="M227.45,127.94v1h-2.36l-.23,1.29,0,0a1.47,1.47,0,0,1,.48-.33,1.64,1.64,0,0,1,.64-.11,1.73,1.73,0,0,1,.74.15,1.61,1.61,0,0,1,.55.41,1.81,1.81,0,0,1,.35.62,2.33,2.33,0,0,1,.12.76,2,2,0,0,1-.16.79,2.05,2.05,0,0,1-.45.65,2.15,2.15,0,0,1-.68.45,2.19,2.19,0,0,1-.85.17,3.16,3.16,0,0,1-.79-.1,1.93,1.93,0,0,1-.65-.3,1.59,1.59,0,0,1-.45-.52,1.82,1.82,0,0,1-.21-.75h1.16a.94.94,0,0,0,.09.28.73.73,0,0,0,.18.22.82.82,0,0,0,.27.15,1.12,1.12,0,0,0,.36.05,1,1,0,0,0,.44-.09,1,1,0,0,0,.32-.24,1,1,0,0,0,.19-.35,1.34,1.34,0,0,0,.06-.41,1.28,1.28,0,0,0-.06-.41,1,1,0,0,0-.19-.34.92.92,0,0,0-.31-.23,1,1,0,0,0-.43-.09,1.22,1.22,0,0,0-.28,0,.88.88,0,0,0-.42.23,1.37,1.37,0,0,0-.17.2h-1l.57-3.15Z"/><line class="cls-6" x1="142.04" y1="110" x2="142.04" y2="124.5"/><rect class="cls-6" x="127.54" y="124" width="29" height="14.56"/><line class="cls-6" x1="220.04" y1="110" x2="220.04" y2="124.5"/><rect class="cls-6" x="205.54" y="124" width="29" height="14.56"/><rect class="cls-7" x="142.54" y="110" width="77.5" height="4.92"/><rect class="cls-8" x="433.42" y="109.23" width="173.42" height="6"/><rect class="cls-9" x="433.42" y="109.23" width="78.92" height="6"/><path class="cls-2" d="M435.84,97.1a1.92,1.92,0,0,1,.88.19,1.66,1.66,0,0,1,.63.57,2.76,2.76,0,0,1,.38.93,5.79,5.79,0,0,1,.13,1.28,4,4,0,0,1-.51,2.23,1.88,1.88,0,0,1-3,0,5.08,5.08,0,0,1,0-4.46A1.71,1.71,0,0,1,435.84,97.1Zm-1.49,3q0,2.54,1.49,2.54t1.49-2.54a3.77,3.77,0,0,0-.38-1.89,1.23,1.23,0,0,0-1.12-.63,1.21,1.21,0,0,0-1.1.63A3.76,3.76,0,0,0,434.35,100.06Z"/><path class="cls-2" d="M512.34,97.1a1.88,1.88,0,0,1,1.3.44,1.52,1.52,0,0,1,.49,1.19,1.88,1.88,0,0,1-.37,1.11,4.6,4.6,0,0,1-1.34,1.11,5.63,5.63,0,0,0-1.11.82,1.33,1.33,0,0,0-.37.68h3.21v.48h-3.8a2,2,0,0,1,.37-1.16,4.44,4.44,0,0,1,1.29-1.11,5.81,5.81,0,0,0,1.26-1,1.4,1.4,0,0,0,.34-.94,1.09,1.09,0,0,0-.36-.85,1.34,1.34,0,0,0-.93-.33,1.36,1.36,0,0,0-.57.11,1.21,1.21,0,0,0-.4.29,1.19,1.19,0,0,0-.24.41,1.47,1.47,0,0,0-.08.47v.11h-.52v-.08a2,2,0,0,1,.11-.65,1.61,1.61,0,0,1,.34-.56,1.66,1.66,0,0,1,.57-.39A2.06,2.06,0,0,1,512.34,97.1Z"/><path class="cls-2" d="M517.18,97.1a1.92,1.92,0,0,1,.88.19,1.66,1.66,0,0,1,.63.57,2.76,2.76,0,0,1,.38.93,5.79,5.79,0,0,1,.13,1.28,4,4,0,0,1-.51,2.23,1.88,1.88,0,0,1-3,0,5.08,5.08,0,0,1,0-4.46A1.71,1.71,0,0,1,517.18,97.1Zm-1.49,3q0,2.54,1.49,2.54t1.49-2.54a3.77,3.77,0,0,0-.38-1.89,1.23,1.23,0,0,0-1.12-.63,1.21,1.21,0,0,0-1.1.63A3.76,3.76,0,0,0,515.7,100.06Z"/><path class="cls-2" d="M521.21,102.07v.88a1.18,1.18,0,0,1-.2.65.94.94,0,0,1-.24.26,1,1,0,0,1-.33.15v-.34a.57.57,0,0,0,.3-.28.88.88,0,0,0,.11-.43v0h-.37v-.85Z"/><path class="cls-2" d="M525.59,101.48v1.43h-.48v-1.43h-2.66V101l2.67-3.84h.47V101h.87v.44Zm-.48-3.57h0L522.92,101h2.2Z"/><path class="cls-2" d="M593.23,97.1a1.88,1.88,0,0,1,1.3.44,1.52,1.52,0,0,1,.49,1.19,1.88,1.88,0,0,1-.37,1.11,4.6,4.6,0,0,1-1.34,1.11,5.63,5.63,0,0,0-1.11.82,1.33,1.33,0,0,0-.37.68h3.21v.48h-3.8a2,2,0,0,1,.37-1.16,4.44,4.44,0,0,1,1.29-1.11,5.81,5.81,0,0,0,1.26-1,1.4,1.4,0,0,0,.34-.94,1.09,1.09,0,0,0-.36-.85,1.34,1.34,0,0,0-.93-.33,1.36,1.36,0,0,0-.57.11,1.21,1.21,0,0,0-.4.29,1.19,1.19,0,0,0-.24.41,1.47,1.47,0,0,0-.08.47v.11h-.52v-.08a2,2,0,0,1,.11-.65,1.61,1.61,0,0,1,.34-.56,1.66,1.66,0,0,1,.57-.39A2.06,2.06,0,0,1,593.23,97.1Z"/><path class="cls-2" d="M598.07,97.1a1.92,1.92,0,0,1,.88.19,1.66,1.66,0,0,1,.63.57,2.76,2.76,0,0,1,.38.93,5.79,5.79,0,0,1,.13,1.28,4,4,0,0,1-.51,2.23,1.88,1.88,0,0,1-3,0,5.08,5.08,0,0,1,0-4.46A1.71,1.71,0,0,1,598.07,97.1Zm-1.49,3q0,2.54,1.49,2.54t1.49-2.54a3.77,3.77,0,0,0-.38-1.89,1.23,1.23,0,0,0-1.12-.63,1.21,1.21,0,0,0-1.1.63A3.76,3.76,0,0,0,596.59,100.06Z"/><path class="cls-2" d="M602.92,97.1a1.92,1.92,0,0,1,.88.19,1.66,1.66,0,0,1,.63.57,2.76,2.76,0,0,1,.38.93,5.79,5.79,0,0,1,.13,1.28,4,4,0,0,1-.51,2.23,1.88,1.88,0,0,1-3,0,5.08,5.08,0,0,1,0-4.46A1.71,1.71,0,0,1,602.92,97.1Zm-1.49,3q0,2.54,1.49,2.54t1.49-2.54a3.77,3.77,0,0,0-.38-1.89,1.23,1.23,0,0,0-1.12-.63,1.21,1.21,0,0,0-1.1.63A3.76,3.76,0,0,0,601.43,100.06Z"/><line class="cls-10" x1="575.34" y1="114.92" x2="575.34" y2="110"/><line class="cls-10" x1="455.01" y1="114.92" x2="455.01" y2="110"/><line class="cls-11" x1="536.84" y1="104" x2="536.84" y2="122"/><rect class="cls-2" x="525.34" y="121" width="22.5" height="12"/><path class="cls-12" d="M530.54,124.28a2.33,2.33,0,0,1,.76.12,1.83,1.83,0,0,1,.63.37,1.55,1.55,0,0,1,.41.58,1.89,1.89,0,0,1,.13.72,1.92,1.92,0,0,1-.27,1,3.38,3.38,0,0,1-1.1,1l-.51.34a4,4,0,0,0-.35.27,2.6,2.6,0,0,0-.44.46h2.7v1h-4.2a2.37,2.37,0,0,1,.2-1,2.4,2.4,0,0,1,.24-.41,2.55,2.55,0,0,1,.33-.37q.19-.17.54-.44t.89-.62a2.2,2.2,0,0,0,.6-.54,1,1,0,0,0,.19-.58,1.06,1.06,0,0,0-.06-.35.8.8,0,0,0-.17-.29.71.71,0,0,0-.25-.18.84.84,0,0,0-.34-.06.91.91,0,0,0-.42.09.86.86,0,0,0-.29.23.94.94,0,0,0-.17.32,1.27,1.27,0,0,0-.05.37v.09h-1.11v-.11a2.17,2.17,0,0,1,.15-.83,1.76,1.76,0,0,1,.43-.62,1.84,1.84,0,0,1,.65-.39A2.5,2.5,0,0,1,530.54,124.28Z"/><path class="cls-12" d="M535.25,124.27a2.09,2.09,0,0,1,.91.19,1.72,1.72,0,0,1,.66.56,2.64,2.64,0,0,1,.4.92,5.35,5.35,0,0,1,.14,1.28,3.86,3.86,0,0,1-.54,2.23,2,2,0,0,1-3.12,0,3.88,3.88,0,0,1-.54-2.24,3.77,3.77,0,0,1,.53-2.2A1.79,1.79,0,0,1,535.25,124.27Zm-.93,3c0,.14,0,.29,0,.44a4.45,4.45,0,0,0,0,.46,3,3,0,0,0,.09.43,1.29,1.29,0,0,0,.16.36.8.8,0,0,0,.26.25.8.8,0,0,0,.76,0,.84.84,0,0,0,.27-.27,1.44,1.44,0,0,0,.16-.38,3.43,3.43,0,0,0,.09-.44,4.13,4.13,0,0,0,0-.44q0-.22,0-.39t0-.47a4.24,4.24,0,0,0,0-.46,2.65,2.65,0,0,0-.1-.42,1.23,1.23,0,0,0-.17-.34.78.78,0,0,0-.26-.23.76.76,0,0,0-.37-.08.68.68,0,0,0-.38.1.82.82,0,0,0-.26.27,1.44,1.44,0,0,0-.16.38,3.37,3.37,0,0,0-.09.44c0,.15,0,.29,0,.44S534.32,127.11,534.32,127.22Z"/><path class="cls-12" d="M539.43,128.87v1.25a1.23,1.23,0,0,1-.32.83,1.53,1.53,0,0,1-.92.48v-.57a.7.7,0,0,0,.41-.27.69.69,0,0,0,.16-.43v-.05h-.58v-1.23Z"/><path class="cls-12" d="M544.48,128.42a1.58,1.58,0,0,1-.62,1.31,2.38,2.38,0,0,1-1.52.49,2.44,2.44,0,0,1-1.55-.48,1.56,1.56,0,0,1-.61-1.31,1.67,1.67,0,0,1,.07-.5,1.36,1.36,0,0,1,.21-.41,1.23,1.23,0,0,1,.34-.31,1.5,1.5,0,0,1,.46-.18v0a1.19,1.19,0,0,1-.36-.17,1.07,1.07,0,0,1-.26-.26,1.14,1.14,0,0,1-.16-.34,1.44,1.44,0,0,1-.05-.4,1.36,1.36,0,0,1,.57-1.13,2.19,2.19,0,0,1,1.36-.43,1.94,1.94,0,0,1,1.4.48,1.43,1.43,0,0,1,.51,1.05,1.31,1.31,0,0,1-.21.73,1.18,1.18,0,0,1-.62.46v0a1.52,1.52,0,0,1,.46.19,1.23,1.23,0,0,1,.33.31,1.32,1.32,0,0,1,.2.41A1.69,1.69,0,0,1,544.48,128.42Zm-1.16,0a.85.85,0,0,0-.28-.65,1,1,0,0,0-.71-.26,1.07,1.07,0,0,0-.71.24.81.81,0,0,0-.29.66.92.92,0,0,0,.29.7,1,1,0,0,0,.72.28,1,1,0,0,0,.7-.27A.94.94,0,0,0,543.32,128.38Zm-.13-2.44a.9.9,0,0,0-.06-.35.66.66,0,0,0-.19-.26.77.77,0,0,0-.26-.14,1.17,1.17,0,0,0-.35,0,.9.9,0,0,0-.63.23.74.74,0,0,0-.24.57.68.68,0,0,0,.24.54.93.93,0,0,0,.63.21.91.91,0,0,0,.63-.2A.7.7,0,0,0,543.2,125.94Z"/><path d="M500.25,89.37V84.74h-1.79V83.65a3.89,3.89,0,0,0,.74-.06,2,2,0,0,0,.54-.18,1.47,1.47,0,0,0,.8-1.18h1.16v7.14Z"/><path d="M506.37,89.52a2.65,2.65,0,0,1-.83-.12,2.16,2.16,0,0,1-.68-.36,2,2,0,0,1-.49-.56,2,2,0,0,1-.25-.72h1.37a1,1,0,0,0,.32.49.92.92,0,0,0,.6.18,1,1,0,0,0,.47-.1,1.14,1.14,0,0,0,.35-.27,1.53,1.53,0,0,0,.25-.39,2.73,2.73,0,0,0,.16-.46,4.18,4.18,0,0,0,.09-.49c0-.16,0-.31,0-.46l0,0a1.77,1.77,0,0,1-.68.61,2.12,2.12,0,0,1-.92.19,2.21,2.21,0,0,1-1.14-.32,2,2,0,0,1-.81-.87,2.74,2.74,0,0,1,.45-3,2.59,2.59,0,0,1,3.83.21,4.62,4.62,0,0,1,.7,2.73,6.19,6.19,0,0,1-.06.88,5,5,0,0,1-.2.86,3.82,3.82,0,0,1-.36.78,2.54,2.54,0,0,1-.54.63,2.4,2.4,0,0,1-.73.43A2.67,2.67,0,0,1,506.37,89.52Zm1.29-4.9a1.43,1.43,0,0,0-.32-.93,1,1,0,0,0-.84-.4,1,1,0,0,0-.78.39,1.39,1.39,0,0,0-.31.92,1.56,1.56,0,0,0,.29.95,1,1,0,0,0,.81.4,1.05,1.05,0,0,0,.84-.37A1.43,1.43,0,0,0,507.67,84.61Z"/><path d="M511.79,87.83v1.54h-1.57V87.83Z"/><path d="M515.21,89.52a2.65,2.65,0,0,1-.83-.12,2.16,2.16,0,0,1-.68-.36,2,2,0,0,1-.49-.56,2,2,0,0,1-.25-.72h1.37a1,1,0,0,0,.32.49.92.92,0,0,0,.6.18,1,1,0,0,0,.47-.1,1.14,1.14,0,0,0,.35-.27,1.53,1.53,0,0,0,.25-.39,2.73,2.73,0,0,0,.16-.46,4.18,4.18,0,0,0,.09-.49c0-.16,0-.31,0-.46l0,0a1.77,1.77,0,0,1-.68.61A2.12,2.12,0,0,1,515,87a2.21,2.21,0,0,1-1.14-.32,2,2,0,0,1-.81-.87,2.74,2.74,0,0,1,.45-3,2.59,2.59,0,0,1,3.83.21,4.62,4.62,0,0,1,.7,2.73,6.19,6.19,0,0,1-.06.88,5,5,0,0,1-.2.86,3.82,3.82,0,0,1-.36.78,2.54,2.54,0,0,1-.54.63,2.4,2.4,0,0,1-.73.43A2.67,2.67,0,0,1,515.21,89.52Zm1.29-4.9a1.43,1.43,0,0,0-.32-.93,1,1,0,0,0-.84-.4,1,1,0,0,0-.78.39,1.39,1.39,0,0,0-.31.92,1.56,1.56,0,0,0,.29.95,1,1,0,0,0,.81.4,1.05,1.05,0,0,0,.84-.37A1.43,1.43,0,0,0,516.5,84.61Z"/><path d="M524.17,87.27a2,2,0,0,1-.77,1.64,3,3,0,0,1-1.9.61,3,3,0,0,1-1.94-.6,2,2,0,0,1-.77-1.64,2.09,2.09,0,0,1,.09-.62,1.71,1.71,0,0,1,.26-.52,1.57,1.57,0,0,1,.42-.38,1.88,1.88,0,0,1,.57-.23v0a1.53,1.53,0,0,1-.45-.21,1.35,1.35,0,0,1-.33-.33,1.42,1.42,0,0,1-.2-.42,1.8,1.8,0,0,1-.07-.5,1.7,1.7,0,0,1,.71-1.41,2.72,2.72,0,0,1,1.7-.54,2.43,2.43,0,0,1,1.75.6,1.79,1.79,0,0,1,.64,1.32,1.64,1.64,0,0,1-.26.92,1.46,1.46,0,0,1-.78.58v0a1.88,1.88,0,0,1,.58.24,1.54,1.54,0,0,1,.42.38,1.66,1.66,0,0,1,.25.51A2.14,2.14,0,0,1,524.17,87.27Zm-1.45-.05a1.06,1.06,0,0,0-.35-.82,1.24,1.24,0,0,0-.88-.33,1.33,1.33,0,0,0-.89.3,1,1,0,0,0-.37.83,1.16,1.16,0,0,0,.37.87,1.25,1.25,0,0,0,.9.35,1.22,1.22,0,0,0,.88-.34A1.17,1.17,0,0,0,522.72,87.22Zm-.16-3a1.12,1.12,0,0,0-.08-.44.82.82,0,0,0-.24-.32.93.93,0,0,0-.32-.17,1.45,1.45,0,0,0-.43-.06,1.13,1.13,0,0,0-.79.28.93.93,0,0,0-.3.71.85.85,0,0,0,.3.67,1.17,1.17,0,0,0,.79.26,1.15,1.15,0,0,0,.78-.25A.88.88,0,0,0,522.56,84.17Z"/><path d="M526.9,81.8v4.06l1.9-2h1.78l-2.07,2,2.3,3.47H529l-1.5-2.45-.58.56v1.89h-1.51V81.8Z"/><path d="M532.56,83.89l1.16,4h0l1.15-4h1.49l-1.86,5.48h-1.67L531,83.89Z"/><rect class="cls-13" x="518.34" y="109.23" width="18.25" height="5.68"/><line class="cls-14" x1="518.34" y1="114.92" x2="518.34" y2="109.23"/></g></svg>