<svg xmlns="http://www.w3.org/2000/svg" xmlns:xlink="http://www.w3.org/1999/xlink" viewBox="0 0 98 84"><defs><style>.cls-1,.cls-4,.cls-7{fill:none;}.cls-2{fill:#f0f0f0;}.cls-3{fill:#e6e6e6;}.cls-4{stroke:#aaa;}.cls-4,.cls-7{stroke-miterlimit:10;}.cls-5{fill:#464646;}.cls-6{fill:#ff6c00;}.cls-7{stroke:#ff6c00;stroke-width:0.4px;}.cls-8{opacity:0.9;}.cls-9{clip-path:url(#clip-path);}.cls-10{fill:#f3d084;}</style><clipPath id="clip-path"><rect class="cls-1" x="34" y="40.16" width="6" height="11.15"/></clipPath></defs><title>Artboard 23</title><g id="Layer_1" data-name="Layer 1"><rect class="cls-2" x="6.5" y="28.5" width="85" height="35"/><path class="cls-3" d="M91,63H7V29H91Zm1-35H6V64H92Z"/><line class="cls-4" x1="6" y1="63.5" x2="92" y2="63.5"/><path class="cls-5" d="M46.38,46.41a4.85,4.85,0,0,1-.17,1.28,3.47,3.47,0,0,1-.52,1.11,2.65,2.65,0,0,1-.88.79,2.51,2.51,0,0,1-1.25.3,2.93,2.93,0,0,1-1.36-.3,1.9,1.9,0,0,1-.86-.87h0v1H40V40.61H41.4v3.47h0a1.88,1.88,0,0,1,.36-.47,2.16,2.16,0,0,1,.5-.36,2.68,2.68,0,0,1,.61-.23,2.85,2.85,0,0,1,.68-.08,2.52,2.52,0,0,1,1.24.29,2.66,2.66,0,0,1,.88.78,3.4,3.4,0,0,1,.52,1.11A4.87,4.87,0,0,1,46.38,46.41Zm-1.45,0a3.74,3.74,0,0,0-.09-.82,2.52,2.52,0,0,0-.3-.76,1.71,1.71,0,0,0-.54-.56,1.5,1.5,0,0,0-.83-.22,1.57,1.57,0,0,0-.82.21,1.71,1.71,0,0,0-.56.54,2.39,2.39,0,0,0-.32.75,3.63,3.63,0,0,0-.1.86,3.68,3.68,0,0,0,.1.83,2.37,2.37,0,0,0,.31.76,1.76,1.76,0,0,0,.56.55,1.57,1.57,0,0,0,.84.21,1.49,1.49,0,0,0,.8-.21,1.69,1.69,0,0,0,.54-.54,2.43,2.43,0,0,0,.31-.75A3.94,3.94,0,0,0,44.93,46.41Z"/><path class="cls-5" d="M52.49,49.69v-1h0a2.25,2.25,0,0,1-.39.52,2.3,2.3,0,0,1-.5.37,2.49,2.49,0,0,1-.58.23,2.54,2.54,0,0,1-.64.08,2.3,2.3,0,0,1-1.78-.63A2.81,2.81,0,0,1,48,47.31V43.12h1.44v4a2.89,2.89,0,0,0,.08.7,1.37,1.37,0,0,0,.24.52,1,1,0,0,0,.42.32,1.82,1.82,0,0,0,1.36,0,1.37,1.37,0,0,0,.5-.43,1.86,1.86,0,0,0,.29-.66,3.72,3.72,0,0,0,.09-.85v-3.5h1.44v6.57Z"/><path class="cls-5" d="M59,49.74H58.2a4.59,4.59,0,0,1-.74-.06,1.58,1.58,0,0,1-.6-.22,1.12,1.12,0,0,1-.4-.45,1.67,1.67,0,0,1-.15-.76V44.14H55v-1h1.29v-2h1.45v2h1.5v1h-1.5v3.72a.83.83,0,0,0,.17.58.8.8,0,0,0,.59.18h.57l.17,0v1.14Z"/><path class="cls-5" d="M63.93,49.74h-.83a4.59,4.59,0,0,1-.74-.06,1.58,1.58,0,0,1-.6-.22,1.12,1.12,0,0,1-.4-.45,1.67,1.67,0,0,1-.15-.76V44.14H59.92v-1h1.29v-2h1.45v2h1.5v1h-1.5v3.72a.83.83,0,0,0,.17.58.8.8,0,0,0,.59.18H64l.17,0v1.14Z"/><path class="cls-5" d="M71.79,46.41a4.09,4.09,0,0,1-.23,1.38,3.1,3.1,0,0,1-.68,1.11,3,3,0,0,1-1,.73,3.49,3.49,0,0,1-1.36.25,3.12,3.12,0,0,1-2.38-1,3.94,3.94,0,0,1,0-5,3.1,3.1,0,0,1,2.39-1,3.15,3.15,0,0,1,2.4,1A3.54,3.54,0,0,1,71.79,46.41Zm-1.45,0a3.59,3.59,0,0,0-.11-.92,2.21,2.21,0,0,0-.35-.75,1.68,1.68,0,0,0-.58-.5,1.75,1.75,0,0,0-.83-.18,1.71,1.71,0,0,0-.77.17,1.62,1.62,0,0,0-.57.48,2.23,2.23,0,0,0-.36.74,3.79,3.79,0,0,0,0,1.9,2.19,2.19,0,0,0,.35.74,1.67,1.67,0,0,0,.58.49,1.7,1.7,0,0,0,.79.18,1.72,1.72,0,0,0,.79-.18,1.68,1.68,0,0,0,.58-.49,2.24,2.24,0,0,0,.36-.74A3.41,3.41,0,0,0,70.35,46.41Z"/><path class="cls-5" d="M76.87,42.94a3.25,3.25,0,0,1,1.1.16,1.8,1.8,0,0,1,.74.49,2,2,0,0,1,.42.81,4.28,4.28,0,0,1,.13,1.12v4.17H77.82v-3.9a2.11,2.11,0,0,0-.32-1.27,1.19,1.19,0,0,0-1-.43,1.48,1.48,0,0,0-1.23.52,2.28,2.28,0,0,0-.41,1.45v3.63H73.4V43.12h1.38v1h0a2.14,2.14,0,0,1,.37-.5,2.24,2.24,0,0,1,.48-.37,2.34,2.34,0,0,1,.57-.23A2.51,2.51,0,0,1,76.87,42.94Z"/><path class="cls-6" d="M27.9,2.08v.46h-2V7.79h-.54V2.54h-2V2.08Z"/><path class="cls-6" d="M30.37,3.29a1.81,1.81,0,0,1,.87.2,1.73,1.73,0,0,1,.6.52,2.3,2.3,0,0,1,.35.76,3.47,3.47,0,0,1,.11.89v.09H28.93a2.38,2.38,0,0,0,.08.63,1.73,1.73,0,0,0,.26.55,1.32,1.32,0,0,0,.44.39,1.28,1.28,0,0,0,.63.15,1.61,1.61,0,0,0,.47-.06,1.35,1.35,0,0,0,.37-.17A1.17,1.17,0,0,0,31.46,7a1.63,1.63,0,0,0,.19-.33h.52a2,2,0,0,1-.26.52,1.65,1.65,0,0,1-.39.4,1.8,1.8,0,0,1-.52.26,2.21,2.21,0,0,1-.66.09,2,2,0,0,1-.87-.18,1.7,1.7,0,0,1-.61-.49,2.08,2.08,0,0,1-.36-.73,3.42,3.42,0,0,1-.12-.92,3.1,3.1,0,0,1,.12-.86A2.25,2.25,0,0,1,28.87,4a1.83,1.83,0,0,1,.62-.52A1.86,1.86,0,0,1,30.37,3.29Zm1.39,2a2,2,0,0,0-.11-.56,1.62,1.62,0,0,0-.27-.5,1.38,1.38,0,0,0-.43-.36,1.23,1.23,0,0,0-.59-.14,1.23,1.23,0,0,0-1,.46,1.82,1.82,0,0,0-.28.5,2.86,2.86,0,0,0-.15.6Z"/><path class="cls-6" d="M33.63,3.41l1.25,1.66,1.22-1.66h.67L35.18,5.51l1.71,2.28h-.68L34.83,5.95,33.49,7.79h-.66l1.7-2.27L33,3.41Z"/><path class="cls-6" d="M39.52,7.83h-.44a2,2,0,0,1-.45,0,.64.64,0,0,1-.3-.15.59.59,0,0,1-.16-.29,1.76,1.76,0,0,1,0-.45v-3h-.88V3.41h.88V2.1h.54V3.41h1v.45h-1v3a1.16,1.16,0,0,0,0,.22.43.43,0,0,0,.07.17.33.33,0,0,0,.14.11.58.58,0,0,0,.23,0h.54v.45Z"/><path class="cls-6" d="M46.94,7.76l-.18,0H46.6a.92.92,0,0,1-.29,0,.44.44,0,0,1-.2-.13A.54.54,0,0,1,46,7.38,1.63,1.63,0,0,1,46,7h0a2,2,0,0,1-.69.7,1.86,1.86,0,0,1-.9.2,1.64,1.64,0,0,1-1.07-.33,1.17,1.17,0,0,1-.4-1,1.11,1.11,0,0,1,.44-1,4.53,4.53,0,0,1,2-.46,1.34,1.34,0,0,0,.29-.05.5.5,0,0,0,.19-.11.4.4,0,0,0,.11-.17.86.86,0,0,0,0-.25A.83.83,0,0,0,45.65,4a1.35,1.35,0,0,0-.87-.23,1.75,1.75,0,0,0-.48.06,1.1,1.1,0,0,0-.35.17.75.75,0,0,0-.22.26.82.82,0,0,0-.09.33H43.1A1.33,1.33,0,0,1,43.24,4a1.18,1.18,0,0,1,.34-.4,1.61,1.61,0,0,1,.54-.25,2.7,2.7,0,0,1,.73-.09,1.76,1.76,0,0,1,1.22.36,1.31,1.31,0,0,1,.39,1V7a.31.31,0,0,0,.07.22.31.31,0,0,0,.24.08.48.48,0,0,0,.17,0Zm-1-2.36h0q-.08.15-.51.21L45,5.67l-.49.08a1.78,1.78,0,0,0-.78.29.67.67,0,0,0-.26.56.77.77,0,0,0,.29.63,1.07,1.07,0,0,0,.69.23,1.58,1.58,0,0,0,1.09-.39,1.24,1.24,0,0,0,.43-1Z"/><path class="cls-6" d="M49.84,3.29a2.22,2.22,0,0,1,.72.1,1.22,1.22,0,0,1,.5.31,1.24,1.24,0,0,1,.29.51,2.54,2.54,0,0,1,.09.72V7.79H50.9V5a1.47,1.47,0,0,0-.27-1,1,1,0,0,0-.84-.33,1.37,1.37,0,0,0-.57.12,1.25,1.25,0,0,0-.43.32,1.45,1.45,0,0,0-.27.47,1.75,1.75,0,0,0-.1.59V7.79h-.54V3.41h.54v.76h0a1.33,1.33,0,0,1,.23-.37A1.43,1.43,0,0,1,49,3.52a1.56,1.56,0,0,1,.4-.17A1.67,1.67,0,0,1,49.84,3.29Z"/><path class="cls-6" d="M56.71,1.73V7.79h-.49V7h0a1.36,1.36,0,0,1-.26.4,1.72,1.72,0,0,1-.37.3,1.89,1.89,0,0,1-.45.19,1.74,1.74,0,0,1-.48.07,1.86,1.86,0,0,1-.85-.19,1.79,1.79,0,0,1-.61-.5,2.22,2.22,0,0,1-.37-.74,3.11,3.11,0,0,1-.12-.89,3.23,3.23,0,0,1,.12-.86A2.21,2.21,0,0,1,53.14,4a1.79,1.79,0,0,1,.61-.52,2,2,0,0,1,1.35-.13,1.71,1.71,0,0,1,.44.18,1.49,1.49,0,0,1,.36.3,1.38,1.38,0,0,1,.25.42h0V1.73ZM53.21,5.6a2.78,2.78,0,0,0,0,.43,2.45,2.45,0,0,0,.11.43,1.9,1.9,0,0,0,.19.39,1.42,1.42,0,0,0,.27.32,1.2,1.2,0,0,0,.37.21,1.32,1.32,0,0,0,.46.08,1.43,1.43,0,0,0,.68-.15,1.41,1.41,0,0,0,.48-.41,1.77,1.77,0,0,0,.29-.59,2.64,2.64,0,0,0,.09-.71,2.69,2.69,0,0,0-.09-.68,1.82,1.82,0,0,0-.28-.6,1.37,1.37,0,0,0-1.18-.58,1.29,1.29,0,0,0-.45.07,1.2,1.2,0,0,0-.36.21,1.45,1.45,0,0,0-.28.31,1.87,1.87,0,0,0-.19.38,2.35,2.35,0,0,0-.11.44A2.81,2.81,0,0,0,53.21,5.6Z"/><path class="cls-6" d="M61.05,1.5v.86h-.54V1.5Zm0,1.91V7.79h-.54V3.41Z"/><path class="cls-6" d="M64.33,3.29a2.29,2.29,0,0,1,.65.09,1.69,1.69,0,0,1,.52.25,1.36,1.36,0,0,1,.37.4,1.54,1.54,0,0,1,.2.55h-.54a1.16,1.16,0,0,0-.15-.34A1,1,0,0,0,65.13,4a1.12,1.12,0,0,0-.35-.17,1.58,1.58,0,0,0-.45-.06,1.34,1.34,0,0,0-.66.16,1.46,1.46,0,0,0-.48.42,2,2,0,0,0-.29.6,2.38,2.38,0,0,0-.1.7,2.45,2.45,0,0,0,.09.67,1.91,1.91,0,0,0,.28.6,1.51,1.51,0,0,0,.47.43,1.4,1.4,0,0,0,1.14.08,1.25,1.25,0,0,0,.38-.22,1.19,1.19,0,0,0,.26-.33,1.25,1.25,0,0,0,.14-.38h.54a2,2,0,0,1-.2.57,1.65,1.65,0,0,1-.37.47A1.7,1.7,0,0,1,65,7.8a1.92,1.92,0,0,1-.69.12,2,2,0,0,1-.86-.18,1.91,1.91,0,0,1-.65-.49,2.18,2.18,0,0,1-.41-.73,3,3,0,0,1,0-1.78A2.21,2.21,0,0,1,62.79,4a1.93,1.93,0,0,1,.65-.51A2,2,0,0,1,64.33,3.29Z"/><path class="cls-6" d="M71.16,5.6a2.86,2.86,0,0,1-.13.88,2.21,2.21,0,0,1-.41.75,1.93,1.93,0,0,1-1.53.69,1.89,1.89,0,0,1-1.5-.65A2.43,2.43,0,0,1,67,5.6a2.43,2.43,0,0,1,.57-1.66,2.06,2.06,0,0,1,3,0A2.43,2.43,0,0,1,71.16,5.6Zm-.54,0a2.53,2.53,0,0,0-.09-.66,1.88,1.88,0,0,0-.28-.6,1.5,1.5,0,0,0-.48-.44,1.36,1.36,0,0,0-.69-.17,1.32,1.32,0,0,0-.66.16,1.49,1.49,0,0,0-.48.42,1.9,1.9,0,0,0-.29.6,2.44,2.44,0,0,0-.1.68,2.38,2.38,0,0,0,.1.66,2,2,0,0,0,.29.6,1.49,1.49,0,0,0,.48.43,1.43,1.43,0,0,0,1.33,0,1.56,1.56,0,0,0,.48-.42,1.88,1.88,0,0,0,.3-.6A2.36,2.36,0,0,0,70.63,5.6Z"/><path class="cls-6" d="M74.31,3.29a2.22,2.22,0,0,1,.72.1,1.22,1.22,0,0,1,.5.31,1.24,1.24,0,0,1,.29.51,2.54,2.54,0,0,1,.09.72V7.79h-.54V5a1.47,1.47,0,0,0-.27-1,1,1,0,0,0-.84-.33,1.37,1.37,0,0,0-.57.12,1.25,1.25,0,0,0-.43.32,1.45,1.45,0,0,0-.27.47,1.75,1.75,0,0,0-.1.59V7.79h-.54V3.41h.54v.76h0a1.33,1.33,0,0,1,.23-.37,1.43,1.43,0,0,1,.33-.28,1.56,1.56,0,0,1,.4-.17A1.67,1.67,0,0,1,74.31,3.29Z"/><path class="cls-6" d="M25.89,12.89a2.29,2.29,0,0,1,.65.09,1.69,1.69,0,0,1,.52.25,1.36,1.36,0,0,1,.37.4,1.54,1.54,0,0,1,.2.55h-.54a1.16,1.16,0,0,0-.15-.34,1,1,0,0,0-.25-.27,1.12,1.12,0,0,0-.35-.17,1.58,1.58,0,0,0-.45-.06,1.34,1.34,0,0,0-.66.16,1.46,1.46,0,0,0-.48.42,2,2,0,0,0-.29.6,2.38,2.38,0,0,0-.1.7,2.45,2.45,0,0,0,.09.67,1.91,1.91,0,0,0,.28.6,1.51,1.51,0,0,0,.47.43,1.4,1.4,0,0,0,1.14.08,1.25,1.25,0,0,0,.38-.22,1.19,1.19,0,0,0,.26-.33,1.25,1.25,0,0,0,.14-.38h.54a2,2,0,0,1-.2.57,1.65,1.65,0,0,1-.37.47,1.7,1.7,0,0,1-.53.32,1.92,1.92,0,0,1-.69.12,2,2,0,0,1-.86-.18,1.91,1.91,0,0,1-.65-.49,2.18,2.18,0,0,1-.41-.73,3,3,0,0,1,0-1.78,2.21,2.21,0,0,1,.39-.74,1.93,1.93,0,0,1,.65-.51A2,2,0,0,1,25.89,12.89Z"/><path class="cls-6" d="M30.56,12.89a1.81,1.81,0,0,1,.87.2,1.73,1.73,0,0,1,.6.52,2.3,2.3,0,0,1,.35.76,3.47,3.47,0,0,1,.11.89v.09H29.12a2.38,2.38,0,0,0,.08.63,1.73,1.73,0,0,0,.26.55,1.32,1.32,0,0,0,.44.39,1.28,1.28,0,0,0,.63.15A1.61,1.61,0,0,0,31,17a1.35,1.35,0,0,0,.37-.17,1.17,1.17,0,0,0,.28-.26,1.63,1.63,0,0,0,.19-.33h.52a2,2,0,0,1-.26.52,1.65,1.65,0,0,1-.39.4,1.8,1.8,0,0,1-.52.26,2.21,2.21,0,0,1-.66.09,2,2,0,0,1-.87-.18,1.7,1.7,0,0,1-.61-.49,2.08,2.08,0,0,1-.36-.73,3.42,3.42,0,0,1-.12-.92,3.1,3.1,0,0,1,.12-.86,2.25,2.25,0,0,1,.36-.74,1.83,1.83,0,0,1,.62-.52A1.86,1.86,0,0,1,30.56,12.89Zm1.39,2a2,2,0,0,0-.11-.56,1.62,1.62,0,0,0-.27-.5,1.38,1.38,0,0,0-.43-.36,1.23,1.23,0,0,0-.59-.14,1.23,1.23,0,0,0-1,.46,1.82,1.82,0,0,0-.28.5,2.86,2.86,0,0,0-.15.6Z"/><path class="cls-6" d="M35.55,12.89a2.22,2.22,0,0,1,.72.1,1.22,1.22,0,0,1,.5.31,1.24,1.24,0,0,1,.29.51,2.54,2.54,0,0,1,.09.72v2.86h-.54V14.62a1.47,1.47,0,0,0-.27-1,1,1,0,0,0-.84-.33,1.37,1.37,0,0,0-.57.12,1.25,1.25,0,0,0-.43.32,1.45,1.45,0,0,0-.27.47,1.75,1.75,0,0,0-.1.59v2.56H33.6V13h.54v.76h0a1.33,1.33,0,0,1,.23-.37,1.43,1.43,0,0,1,.33-.28,1.56,1.56,0,0,1,.4-.17A1.67,1.67,0,0,1,35.55,12.89Z"/><path class="cls-6" d="M40.36,17.43h-.44a2,2,0,0,1-.45,0,.64.64,0,0,1-.3-.15A.59.59,0,0,1,39,17a1.76,1.76,0,0,1,0-.45v-3h-.88V13H39V11.7h.54V13h1v.45h-1v3a1.16,1.16,0,0,0,0,.22.43.43,0,0,0,.07.17.33.33,0,0,0,.14.11A.58.58,0,0,0,40,17h.54v.45Z"/><path class="cls-6" d="M43.38,12.89a1.81,1.81,0,0,1,.87.2,1.73,1.73,0,0,1,.6.52,2.3,2.3,0,0,1,.35.76,3.47,3.47,0,0,1,.11.89v.09H41.94A2.38,2.38,0,0,0,42,16a1.73,1.73,0,0,0,.26.55,1.32,1.32,0,0,0,.44.39,1.28,1.28,0,0,0,.63.15,1.61,1.61,0,0,0,.47-.06,1.35,1.35,0,0,0,.37-.17,1.17,1.17,0,0,0,.28-.26,1.63,1.63,0,0,0,.19-.33h.52a2,2,0,0,1-.26.52,1.65,1.65,0,0,1-.39.4,1.8,1.8,0,0,1-.52.26,2.21,2.21,0,0,1-.66.09,2,2,0,0,1-.87-.18,1.7,1.7,0,0,1-.61-.49,2.08,2.08,0,0,1-.36-.73,3.42,3.42,0,0,1-.12-.92,3.1,3.1,0,0,1,.12-.86,2.25,2.25,0,0,1,.36-.74,1.83,1.83,0,0,1,.62-.52A1.86,1.86,0,0,1,43.38,12.89Zm1.39,2a2,2,0,0,0-.11-.56,1.62,1.62,0,0,0-.27-.5,1.38,1.38,0,0,0-.43-.36,1.23,1.23,0,0,0-.59-.14,1.23,1.23,0,0,0-1,.46,1.82,1.82,0,0,0-.28.5,2.86,2.86,0,0,0-.15.6Z"/><path class="cls-6" d="M46.43,17.39V13h.5v1h0a1.71,1.71,0,0,1,.6-.8,1.55,1.55,0,0,1,.92-.29h.19v.53h-.12a1.48,1.48,0,0,0-1.14.46A1.57,1.57,0,0,0,47,15.07v2.32Z"/><path class="cls-6" d="M51.27,14.83v.46h-2v-.46Z"/><path class="cls-6" d="M56.26,17.36l-.18,0h-.16a.92.92,0,0,1-.29,0,.44.44,0,0,1-.2-.13.54.54,0,0,1-.11-.24,1.63,1.63,0,0,1,0-.35h0a2,2,0,0,1-.69.7,1.86,1.86,0,0,1-.9.2,1.64,1.64,0,0,1-1.07-.33,1.17,1.17,0,0,1-.4-1,1.11,1.11,0,0,1,.44-1,4.53,4.53,0,0,1,2-.46,1.34,1.34,0,0,0,.29-.05.5.5,0,0,0,.19-.11.4.4,0,0,0,.11-.17.86.86,0,0,0,0-.25.83.83,0,0,0-.27-.67,1.35,1.35,0,0,0-.87-.23,1.75,1.75,0,0,0-.48.06,1.1,1.1,0,0,0-.35.17.75.75,0,0,0-.22.26.82.82,0,0,0-.09.33h-.54a1.33,1.33,0,0,1,.15-.52,1.18,1.18,0,0,1,.34-.4,1.61,1.61,0,0,1,.54-.25,2.7,2.7,0,0,1,.73-.09,1.76,1.76,0,0,1,1.22.36,1.31,1.31,0,0,1,.39,1v2.38a.31.31,0,0,0,.07.22.31.31,0,0,0,.24.08.48.48,0,0,0,.17,0Zm-1-2.36h0q-.08.15-.51.21l-.44.07-.49.08a1.78,1.78,0,0,0-.78.29.67.67,0,0,0-.26.56.77.77,0,0,0,.29.63,1.07,1.07,0,0,0,.69.23,1.58,1.58,0,0,0,1.09-.39,1.24,1.24,0,0,0,.43-1Z"/><path class="cls-6" d="M57.76,11.33v6.05h-.54V11.33Z"/><path class="cls-6" d="M59.78,11.1V12h-.54V11.1Zm0,1.91v4.38h-.54V13Z"/><path class="cls-6" d="M63,12.89a1.54,1.54,0,0,1,1.15.51,1.51,1.51,0,0,1,.25.37h0V13h.54v4.07a2.18,2.18,0,0,1-.48,1.53,1.92,1.92,0,0,1-1.48.52,3,3,0,0,1-.62-.06,1.81,1.81,0,0,1-.54-.2,1.25,1.25,0,0,1-.4-.37A1.12,1.12,0,0,1,61.2,18h.54a.83.83,0,0,0,.37.54,1.56,1.56,0,0,0,.83.19,1.36,1.36,0,0,0,1.07-.4,1.77,1.77,0,0,0,.36-1.21v-.79h0a1.69,1.69,0,0,1-.25.38,1.53,1.53,0,0,1-.33.29,1.58,1.58,0,0,1-.85.24,2.11,2.11,0,0,1-.86-.16,1.62,1.62,0,0,1-.6-.45,1.9,1.9,0,0,1-.36-.69A3.09,3.09,0,0,1,61,15a2.63,2.63,0,0,1,.13-.82,2,2,0,0,1,.38-.68,1.83,1.83,0,0,1,.62-.47A2,2,0,0,1,63,12.89Zm-1.44,2.19a2.34,2.34,0,0,0,.08.64,1.53,1.53,0,0,0,.26.53,1.25,1.25,0,0,0,.44.36,1.42,1.42,0,0,0,.64.13,1.27,1.27,0,0,0,.61-.14,1.39,1.39,0,0,0,.45-.37,1.7,1.7,0,0,0,.28-.53,2,2,0,0,0,.1-.62,2.48,2.48,0,0,0-.08-.62A1.78,1.78,0,0,0,64,13.9a1.35,1.35,0,0,0-.44-.41,1.25,1.25,0,0,0-.65-.16,1.3,1.3,0,0,0-.64.15,1.35,1.35,0,0,0-.44.39,1.69,1.69,0,0,0-.26.56A2.58,2.58,0,0,0,61.53,15.08Z"/><path class="cls-6" d="M68.31,12.89A2.22,2.22,0,0,1,69,13a1.22,1.22,0,0,1,.5.31,1.24,1.24,0,0,1,.29.51,2.54,2.54,0,0,1,.09.72v2.86h-.54V14.62a1.47,1.47,0,0,0-.27-1,1,1,0,0,0-.84-.33,1.37,1.37,0,0,0-.57.12,1.25,1.25,0,0,0-.43.32,1.45,1.45,0,0,0-.27.47,1.75,1.75,0,0,0-.1.59v2.56h-.54V13h.54v.76h0a1.33,1.33,0,0,1,.23-.37,1.43,1.43,0,0,1,.33-.28,1.56,1.56,0,0,1,.4-.17A1.67,1.67,0,0,1,68.31,12.89Z"/><path class="cls-6" d="M73.08,12.89a1.81,1.81,0,0,1,.87.2,1.73,1.73,0,0,1,.6.52,2.3,2.3,0,0,1,.35.76,3.47,3.47,0,0,1,.11.89v.09H71.63a2.38,2.38,0,0,0,.08.63,1.73,1.73,0,0,0,.26.55,1.32,1.32,0,0,0,.44.39,1.28,1.28,0,0,0,.63.15,1.61,1.61,0,0,0,.47-.06,1.35,1.35,0,0,0,.37-.17,1.17,1.17,0,0,0,.28-.26,1.63,1.63,0,0,0,.19-.33h.52a2,2,0,0,1-.26.52,1.65,1.65,0,0,1-.39.4,1.8,1.8,0,0,1-.52.26,2.21,2.21,0,0,1-.66.09,2,2,0,0,1-.87-.18,1.7,1.7,0,0,1-.61-.49,2.08,2.08,0,0,1-.36-.73,3.42,3.42,0,0,1-.12-.92,3.1,3.1,0,0,1,.12-.86,2.25,2.25,0,0,1,.36-.74,1.83,1.83,0,0,1,.62-.52A1.86,1.86,0,0,1,73.08,12.89Zm1.39,2a2,2,0,0,0-.11-.56,1.62,1.62,0,0,0-.27-.5,1.38,1.38,0,0,0-.43-.36,1.23,1.23,0,0,0-.59-.14,1.23,1.23,0,0,0-1,.46,1.82,1.82,0,0,0-.28.5,2.86,2.86,0,0,0-.15.6Z"/><path class="cls-6" d="M79.94,11.33v6.05h-.49v-.83h0a1.36,1.36,0,0,1-.26.4,1.72,1.72,0,0,1-.37.3,1.89,1.89,0,0,1-.45.19,1.74,1.74,0,0,1-.48.07,1.86,1.86,0,0,1-.85-.19,1.79,1.79,0,0,1-.61-.5,2.22,2.22,0,0,1-.37-.74,3.11,3.11,0,0,1-.12-.89,3.23,3.23,0,0,1,.12-.86,2.21,2.21,0,0,1,.36-.74,1.79,1.79,0,0,1,.61-.52,2,2,0,0,1,1.35-.13,1.71,1.71,0,0,1,.44.18,1.49,1.49,0,0,1,.36.3,1.38,1.38,0,0,1,.25.42h0V11.33Zm-3.5,3.87a2.78,2.78,0,0,0,0,.43,2.45,2.45,0,0,0,.11.43,1.9,1.9,0,0,0,.19.39,1.42,1.42,0,0,0,.27.32,1.2,1.2,0,0,0,.37.21,1.32,1.32,0,0,0,.46.08,1.43,1.43,0,0,0,.68-.15A1.41,1.41,0,0,0,79,16.5a1.77,1.77,0,0,0,.29-.59,2.64,2.64,0,0,0,.09-.71,2.69,2.69,0,0,0-.09-.68,1.82,1.82,0,0,0-.28-.6,1.37,1.37,0,0,0-1.18-.58,1.29,1.29,0,0,0-.45.07,1.2,1.2,0,0,0-.36.21,1.45,1.45,0,0,0-.28.31,1.87,1.87,0,0,0-.19.38,2.35,2.35,0,0,0-.11.44A2.81,2.81,0,0,0,76.44,15.2Z"/><path class="cls-6" d="M34.75,74.4a2.11,2.11,0,0,1,.63.09,1.56,1.56,0,0,1,.5.26,1.43,1.43,0,0,1,.36.41,1.67,1.67,0,0,1,.2.56h-.52a1.13,1.13,0,0,0-.12-.34,1,1,0,0,0-.24-.28,1.12,1.12,0,0,0-.35-.19,1.43,1.43,0,0,0-.46-.07,1.35,1.35,0,0,0-.68.17,1.41,1.41,0,0,0-.5.5,2.55,2.55,0,0,0-.3.81,5.35,5.35,0,0,0-.1,1.1h0a1.72,1.72,0,0,1,1.54-1,1.83,1.83,0,0,1,1.37.54,1.88,1.88,0,0,1,.53,1.39,1.89,1.89,0,0,1-2,2,2.07,2.07,0,0,1-.94-.2,1.54,1.54,0,0,1-.62-.56,2.8,2.8,0,0,1-.35-.93,7,7,0,0,1-.12-1.37,5.64,5.64,0,0,1,0-.71,3.72,3.72,0,0,1,.15-.67,3,3,0,0,1,.27-.6,1.89,1.89,0,0,1,.4-.48,1.78,1.78,0,0,1,.55-.32A2,2,0,0,1,34.75,74.4Zm-1.49,4a1.5,1.5,0,0,0,.38,1.09,1.4,1.4,0,0,0,1.06.39,1.27,1.27,0,0,0,1-.44,1.5,1.5,0,0,0,.39-1,1.6,1.6,0,0,0-.38-1.09,1.29,1.29,0,0,0-1-.43,1.36,1.36,0,0,0-1,.42A1.54,1.54,0,0,0,33.27,78.42Z"/><path class="cls-6" d="M41.78,78a3.19,3.19,0,0,1-.12.85,2.25,2.25,0,0,1-.36.74,1.79,1.79,0,0,1-.61.52,1.85,1.85,0,0,1-.88.2,1.89,1.89,0,0,1-.47-.06,1.62,1.62,0,0,1-.43-.18,1.52,1.52,0,0,1-.36-.3,1.47,1.47,0,0,1-.26-.42h0v2.45h-.54v-6h.5v.83h0a1.49,1.49,0,0,1,.26-.41,1.53,1.53,0,0,1,.37-.3,1.77,1.77,0,0,1,.44-.19,1.87,1.87,0,0,1,.49-.06,1.91,1.91,0,0,1,.86.18,1.76,1.76,0,0,1,.62.5,2.22,2.22,0,0,1,.37.74A3.11,3.11,0,0,1,41.78,78Zm-.54,0a3,3,0,0,0-.07-.65,1.89,1.89,0,0,0-.24-.6,1.38,1.38,0,0,0-.45-.44,1.27,1.27,0,0,0-.68-.17,1.39,1.39,0,0,0-1.13.47,2.14,2.14,0,0,0-.39,1.4,2.79,2.79,0,0,0,.08.69,1.79,1.79,0,0,0,.27.6,1.39,1.39,0,0,0,.48.42,1.45,1.45,0,0,0,.71.16,1.25,1.25,0,0,0,.64-.16,1.35,1.35,0,0,0,.45-.42,1.91,1.91,0,0,0,.26-.6A2.77,2.77,0,0,0,41.25,78Z"/><path class="cls-6" d="M43.24,75.84l1.25,1.66,1.22-1.66h.67L44.8,77.94l1.71,2.28h-.68l-1.37-1.84-1.34,1.84h-.66l1.7-2.27-1.57-2.1Z"/><line class="cls-7" x1="41.83" y1="70.22" x2="35.83" y2="70.22"/><line class="cls-7" x1="41.83" y1="71.22" x2="41.83" y2="69.22"/><line class="cls-7" x1="35.83" y1="71.22" x2="35.83" y2="69.22"/><g class="cls-8"><g class="cls-9"><rect class="cls-10" x="34" y="40.16" width="6" height="11.15"/></g></g><path class="cls-5" d="M25.25,54l-.79-2.21L23,51.19l-2.07,1.05-1.11-1.11,1-2.12-.6-1.46L18,46.83V45.25l2.21-.79.6-1.46-1.05-2.07,1.11-1.11,2.12,1,1.46-.6L25.18,38h1.57l.79,2.21,1.46.6,2.07-1.05,1.11,1.11-1,2.12.6,1.46,2.21.72v1.57l-2.21.79L31.19,49l1.05,2.07-1.11,1.11-2.12-1-1.46.6L26.82,54ZM26,42.48A3.52,3.52,0,1,0,29.52,46,3.52,3.52,0,0,0,26,42.48Z"/><line class="cls-7" x1="80.76" y1="22.5" x2="20.26" y2="22.5"/><line class="cls-7" x1="80.76" y1="23.5" x2="80.76" y2="21.5"/><line class="cls-7" x1="20.26" y1="23.5" x2="20.26" y2="21.5"/></g></svg>