<svg xmlns="http://www.w3.org/2000/svg" xmlns:xlink="http://www.w3.org/1999/xlink" viewBox="0 0 746 332"><defs><style>.cls-1{fill:none;}.cls-2{clip-path:url(#clip-path);}.cls-3{fill:#bedef6;}.cls-4{fill:#17486e;}.cls-5{fill:#389aea;}.cls-6{fill:#6d6e70;}.cls-7,.cls-8{fill:#fff;stroke-miterlimit:10;}.cls-7{stroke:#b2b2b2;}.cls-8{stroke:#e5e5e5;}</style><clipPath id="clip-path"><circle class="cls-1" cx="156.6" cy="164.85" r="118.3" transform="translate(-43.46 56.81) rotate(-18.1)"/></clipPath></defs><title>Artboard 70</title><g id="Layer_1" data-name="Layer 1"><g class="cls-2"><rect class="cls-3" x="38.27" y="46.52" width="242.11" height="242.11"/><polygon class="cls-4" points="302.23 17.66 156.6 17.66 156.6 163.28 302.23 220.6 302.23 17.66"/><rect class="cls-5" x="11.71" y="17.66" width="145.62" height="145.62"/></g><path class="cls-6" d="M21.5,29.58a5.36,5.36,0,0,1,3.6,1.15,3.9,3.9,0,0,1,1.35,3.12,4.77,4.77,0,0,1-1,2.9,12.65,12.65,0,0,1-3.69,2.9,15.22,15.22,0,0,0-3.06,2.15,3.42,3.42,0,0,0-1,1.78h8.87v1.26H16a5.06,5.06,0,0,1,1-3,12,12,0,0,1,3.55-2.91,16,16,0,0,0,3.48-2.59A3.57,3.57,0,0,0,25,33.82a2.8,2.8,0,0,0-1-2.24,3.83,3.83,0,0,0-2.58-.86,3.91,3.91,0,0,0-1.58.29,3.35,3.35,0,0,0-1.12.77,3.08,3.08,0,0,0-.66,1.09,3.7,3.7,0,0,0-.22,1.24v.3H16.44v-.21a4.9,4.9,0,0,1,.31-1.71A4.21,4.21,0,0,1,17.68,31a4.58,4.58,0,0,1,1.58-1A5.92,5.92,0,0,1,21.5,29.58Z"/><path class="cls-6" d="M39.38,29.87v1.26h-7l-1,4.86.05,0A4.32,4.32,0,0,1,33,35.13a5.42,5.42,0,0,1,1.83-.31,6.14,6.14,0,0,1,2.2.38,4.83,4.83,0,0,1,1.69,1.07,4.77,4.77,0,0,1,1.08,1.65A5.74,5.74,0,0,1,40.15,40a4.7,4.7,0,0,1-.43,2,5.17,5.17,0,0,1-1.18,1.63,5.54,5.54,0,0,1-1.78,1.1,6,6,0,0,1-2.2.4,6.37,6.37,0,0,1-2-.3A4.85,4.85,0,0,1,31,44a4,4,0,0,1-1-1.3,4.23,4.23,0,0,1-.43-1.67H31a3.09,3.09,0,0,0,.3,1.12,2.88,2.88,0,0,0,.73.94,3.62,3.62,0,0,0,1.14.65,4.43,4.43,0,0,0,1.53.25,4,4,0,0,0,2.88-1.21,4.19,4.19,0,0,0,1.17-2.93,4,4,0,0,0-.29-1.51,3.72,3.72,0,0,0-.82-1.25,4,4,0,0,0-1.29-.86A4.23,4.23,0,0,0,34.65,36a4.93,4.93,0,0,0-2,.39,4.06,4.06,0,0,0-1.57,1.2H29.89l1.5-7.67Z"/><path class="cls-6" d="M46,42.62v2.23H44V42.62Z"/><path class="cls-6" d="M55,29.58a7,7,0,0,1,1.8.24,5,5,0,0,1,1.57.71,3.72,3.72,0,0,1,1.11,1.2,3.33,3.33,0,0,1,.42,1.71,3.69,3.69,0,0,1-.18,1.16,3.11,3.11,0,0,1-.52,1,3.2,3.2,0,0,1-.84.74,4,4,0,0,1-1.14.47v0a3.84,3.84,0,0,1,2.45,1.3,3.73,3.73,0,0,1,.82,2.44,4.13,4.13,0,0,1-1.56,3.34,5.23,5.23,0,0,1-1.75,1,7.36,7.36,0,0,1-2.23.31,7.06,7.06,0,0,1-2.06-.29,5.26,5.26,0,0,1-1.7-.85A4.13,4.13,0,0,1,50,42.66a3.83,3.83,0,0,1-.43-1.82v-.32H51v.29A2.91,2.91,0,0,0,51.28,42a3,3,0,0,0,.76,1,3.7,3.7,0,0,0,1.22.7,4.74,4.74,0,0,0,1.63.26,5.23,5.23,0,0,0,1.67-.24,4.13,4.13,0,0,0,1.28-.71A2.93,2.93,0,0,0,59,40.67a3.16,3.16,0,0,0-.26-1.31,2.9,2.9,0,0,0-.78-1,4.25,4.25,0,0,0-2.82-.87H54V36.32h1.26a3.55,3.55,0,0,0,2.22-.73,2.43,2.43,0,0,0,1-2,2.67,2.67,0,0,0-.28-1.24,2.63,2.63,0,0,0-.75-.89,3.29,3.29,0,0,0-1.11-.54,5,5,0,0,0-1.35-.18,4.06,4.06,0,0,0-1.5.26,3.34,3.34,0,0,0-1.13.72,3.16,3.16,0,0,0-.71,1.06A3.28,3.28,0,0,0,51.35,34H49.92a4.09,4.09,0,0,1,.34-1.61,4.4,4.4,0,0,1,1-1.43,5,5,0,0,1,1.58-1A5.43,5.43,0,0,1,55,29.58Z"/><path class="cls-6" d="M68.07,45.17a6.19,6.19,0,0,1-1.73-.23A4.44,4.44,0,0,1,65,44.27a3.81,3.81,0,0,1-1-1.08,4.2,4.2,0,0,1-.55-1.46h1.44a2.87,2.87,0,0,0,.35.89,2.6,2.6,0,0,0,.65.73,3.12,3.12,0,0,0,1,.49A4.19,4.19,0,0,0,68.1,44,3.88,3.88,0,0,0,70,43.58a3.79,3.79,0,0,0,1.38-1.31,6.5,6.5,0,0,0,.84-2.12,13.36,13.36,0,0,0,.28-2.89h0a4.53,4.53,0,0,1-1.76,1.83,4.89,4.89,0,0,1-2.49.68,5.2,5.2,0,0,1-3.78-1.42,4.81,4.81,0,0,1-1.47-3.64A4.87,4.87,0,0,1,64.48,31a5.42,5.42,0,0,1,3.88-1.45,6,6,0,0,1,2.59.51,4.18,4.18,0,0,1,1.71,1.47,7.11,7.11,0,0,1,1,2.44,17.28,17.28,0,0,1,.32,3.59,14,14,0,0,1-.12,1.86,9.35,9.35,0,0,1-.41,1.77,7.61,7.61,0,0,1-.73,1.56A5,5,0,0,1,71.56,44a5,5,0,0,1-1.52.84A5.94,5.94,0,0,1,68.07,45.17Zm4.12-10.56a3.82,3.82,0,0,0-1-2.86,4,4,0,0,0-2.93-1,3.6,3.6,0,0,0-2.74,1.15,3.84,3.84,0,0,0-1.09,2.74,4.08,4.08,0,0,0,1.06,2.87,3.63,3.63,0,0,0,2.81,1.14,3.79,3.79,0,0,0,3.94-4Z"/><path class="cls-6" d="M243,29.57a6.92,6.92,0,0,1,1.8.24,5,5,0,0,1,1.57.71,3.7,3.7,0,0,1,1.11,1.2,3.33,3.33,0,0,1,.42,1.71,3.69,3.69,0,0,1-.18,1.16,3.1,3.1,0,0,1-.52,1,3.2,3.2,0,0,1-.84.74,4,4,0,0,1-1.14.47v0a3.84,3.84,0,0,1,2.45,1.3,3.73,3.73,0,0,1,.82,2.44A4.13,4.13,0,0,1,247,43.9a5.19,5.19,0,0,1-1.75,1,7.33,7.33,0,0,1-2.23.31,7.09,7.09,0,0,1-2.06-.29,5.26,5.26,0,0,1-1.7-.85,4.14,4.14,0,0,1-1.16-1.36,3.83,3.83,0,0,1-.43-1.82v-.32h1.45v.29a2.91,2.91,0,0,0,.26,1.23,3,3,0,0,0,.76,1,3.71,3.71,0,0,0,1.22.7A4.72,4.72,0,0,0,243,44a5.26,5.26,0,0,0,1.67-.24,4.15,4.15,0,0,0,1.28-.71,2.93,2.93,0,0,0,1.19-2.41,3.16,3.16,0,0,0-.26-1.31,2.89,2.89,0,0,0-.78-1,4.24,4.24,0,0,0-2.82-.87h-1.19V36.32h1.26a3.55,3.55,0,0,0,2.22-.73,2.44,2.44,0,0,0,1-2,2.67,2.67,0,0,0-.28-1.24,2.62,2.62,0,0,0-.75-.89,3.25,3.25,0,0,0-1.11-.54,5,5,0,0,0-1.35-.18,4.06,4.06,0,0,0-1.5.26,3.34,3.34,0,0,0-1.13.72,3.16,3.16,0,0,0-.71,1.06,3.29,3.29,0,0,0-.25,1.28H238a4.08,4.08,0,0,1,.34-1.61,4.41,4.41,0,0,1,1-1.43,5,5,0,0,1,1.58-1A5.45,5.45,0,0,1,243,29.57Z"/><path class="cls-6" d="M256.54,29.57a5.52,5.52,0,0,1,2.42.5,4.5,4.5,0,0,1,1.74,1.49,7.06,7.06,0,0,1,1,2.44,14.42,14.42,0,0,1,.35,3.35,10,10,0,0,1-1.42,5.86,5.36,5.36,0,0,1-8.28,0A9.9,9.9,0,0,1,251,37.38q0-3.91,1.43-5.85A4.8,4.8,0,0,1,256.54,29.57Zm-4.12,7.78q0,6.67,4.12,6.67t4.13-6.67a9.46,9.46,0,0,0-1-5,3.43,3.43,0,0,0-3.1-1.67,3.39,3.39,0,0,0-3,1.64A9.44,9.44,0,0,0,252.42,37.36Z"/><path class="cls-6" d="M267.67,42.62v2.23h-2.05V42.62Z"/><path class="cls-6" d="M279.8,41.08v3.76h-1.32V41.08h-7.37V39.77L278.5,29.7h1.3V39.93h2.4v1.15Zm-1.32-9.38h0l-6,8.23h6.07Z"/><path class="cls-6" d="M290.13,29.57a5.36,5.36,0,0,1,3.6,1.15,3.9,3.9,0,0,1,1.35,3.12,4.78,4.78,0,0,1-1,2.9,12.66,12.66,0,0,1-3.69,2.9,15.22,15.22,0,0,0-3.06,2.15,3.43,3.43,0,0,0-1,1.79h8.87v1.26H284.64a5.06,5.06,0,0,1,1-3,12,12,0,0,1,3.55-2.91,16,16,0,0,0,3.48-2.59,3.57,3.57,0,0,0,.94-2.47,2.8,2.8,0,0,0-1-2.24,3.83,3.83,0,0,0-2.58-.86,3.91,3.91,0,0,0-1.58.29,3.35,3.35,0,0,0-1.12.77,3.08,3.08,0,0,0-.66,1.09,3.69,3.69,0,0,0-.22,1.24v.3h-1.43v-.21a4.9,4.9,0,0,1,.31-1.71A4.19,4.19,0,0,1,286.3,31a4.57,4.57,0,0,1,1.58-1A5.92,5.92,0,0,1,290.13,29.57Z"/><path class="cls-6" d="M55.94,315.33v3.76H54.62v-3.76H47.26V314L54.64,304h1.3v10.23h2.4v1.15ZM54.62,306h0l-6,8.23h6.07Z"/><path class="cls-6" d="M69.33,315.33v3.76H68v-3.76H60.65V314L68,304h1.3v10.23h2.4v1.15ZM68,306h0l-6,8.23H68Z"/><path class="cls-6" d="M77.39,316.87v2.22H75.34v-2.22Z"/><path class="cls-6" d="M86.57,319.1V307.85H82.36v-1c.66,0,1.21,0,1.66-.1a4.54,4.54,0,0,0,1.06-.22,2.38,2.38,0,0,0,1.18-.91,4.17,4.17,0,0,0,.58-1.7H88V319.1Z"/><path class="cls-6" d="M99.45,319.43a6.12,6.12,0,0,1-1.73-.23,4.4,4.4,0,0,1-1.39-.67,3.78,3.78,0,0,1-1-1.08,4.19,4.19,0,0,1-.55-1.46h1.44a2.87,2.87,0,0,0,.35.89,2.57,2.57,0,0,0,.65.73,3.12,3.12,0,0,0,1,.49,4.13,4.13,0,0,0,1.28.18,3.9,3.9,0,0,0,1.89-.45,3.79,3.79,0,0,0,1.38-1.31,6.52,6.52,0,0,0,.84-2.12,13.38,13.38,0,0,0,.28-2.89h0a4.52,4.52,0,0,1-1.76,1.84,4.89,4.89,0,0,1-2.49.68,5.2,5.2,0,0,1-3.78-1.42A4.81,4.81,0,0,1,94.31,309a4.87,4.87,0,0,1,1.53-3.69,5.43,5.43,0,0,1,3.88-1.45,6,6,0,0,1,2.59.51,4.19,4.19,0,0,1,1.71,1.47,7.12,7.12,0,0,1,1,2.44,17.26,17.26,0,0,1,.32,3.59,14,14,0,0,1-.12,1.86,9.35,9.35,0,0,1-.41,1.77A7.54,7.54,0,0,1,104,317a5,5,0,0,1-1.1,1.26,5,5,0,0,1-1.52.83A5.92,5.92,0,0,1,99.45,319.43Zm4.12-10.56a3.82,3.82,0,0,0-1-2.86,4,4,0,0,0-2.93-1,3.6,3.6,0,0,0-2.74,1.15,3.84,3.84,0,0,0-1.09,2.74,4.08,4.08,0,0,0,1.06,2.87,3.64,3.64,0,0,0,2.81,1.14,3.79,3.79,0,0,0,3.94-4Z"/><path class="cls-6" d="M85.41,30.8a3.41,3.41,0,0,1-.14,1,2.12,2.12,0,0,1-.41.76,1.72,1.72,0,0,1-.67.47,2.37,2.37,0,0,1-.91.16,2,2,0,0,1-1.58-.63,2.63,2.63,0,0,1-.55-1.79A2.63,2.63,0,0,1,81.71,29a2,2,0,0,1,1.57-.62,2.42,2.42,0,0,1,.91.16,1.73,1.73,0,0,1,.67.48,2.13,2.13,0,0,1,.41.76A3.41,3.41,0,0,1,85.41,30.8Zm-.71,0a3,3,0,0,0-.07-.65,1.9,1.9,0,0,0-.24-.6,1.37,1.37,0,0,0-.44-.44,1.25,1.25,0,0,0-.68-.17,1.23,1.23,0,0,0-1,.48,2.71,2.71,0,0,0,0,2.73,1.24,1.24,0,0,0,1.05.48,1.26,1.26,0,0,0,.66-.16,1.29,1.29,0,0,0,.43-.42,1.81,1.81,0,0,0,.24-.59A3.3,3.3,0,0,0,84.7,30.82Zm-1.29,7h-.64l6.06-9.73h.63Zm7.86-2.67a3.41,3.41,0,0,1-.14,1,2.1,2.1,0,0,1-.41.76,1.74,1.74,0,0,1-.67.48,2.39,2.39,0,0,1-.91.16,2.24,2.24,0,0,1-.94-.18,1.81,1.81,0,0,1-.66-.51,2.18,2.18,0,0,1-.39-.77,3.7,3.7,0,0,1,0-2,2.14,2.14,0,0,1,.41-.76,1.71,1.71,0,0,1,.67-.48,2.64,2.64,0,0,1,1.83,0,1.72,1.72,0,0,1,.67.48,2.14,2.14,0,0,1,.41.76A3.41,3.41,0,0,1,91.28,35.2Zm-.71,0a3,3,0,0,0-.07-.65,1.9,1.9,0,0,0-.24-.6,1.37,1.37,0,0,0-.44-.44,1.25,1.25,0,0,0-.68-.17,1.23,1.23,0,0,0-1,.48,2.24,2.24,0,0,0-.37,1.38,2.17,2.17,0,0,0,.37,1.35,1.24,1.24,0,0,0,1,.48,1.27,1.27,0,0,0,.66-.16,1.3,1.3,0,0,0,.43-.42,1.8,1.8,0,0,0,.24-.59A3.3,3.3,0,0,0,90.57,35.21Z"/><path class="cls-6" d="M309.21,30.8a3.41,3.41,0,0,1-.14,1,2.12,2.12,0,0,1-.41.76,1.72,1.72,0,0,1-.67.47,2.37,2.37,0,0,1-.91.16,2,2,0,0,1-1.58-.63A2.63,2.63,0,0,1,305,30.8a2.63,2.63,0,0,1,.55-1.79,2,2,0,0,1,1.57-.62,2.42,2.42,0,0,1,.91.16,1.73,1.73,0,0,1,.67.48,2.13,2.13,0,0,1,.41.76A3.41,3.41,0,0,1,309.21,30.8Zm-.71,0a3,3,0,0,0-.07-.65,1.9,1.9,0,0,0-.24-.6,1.37,1.37,0,0,0-.44-.44,1.25,1.25,0,0,0-.68-.17,1.23,1.23,0,0,0-1,.48,2.71,2.71,0,0,0,0,2.73,1.24,1.24,0,0,0,1.05.48,1.26,1.26,0,0,0,.66-.16,1.29,1.29,0,0,0,.43-.42,1.81,1.81,0,0,0,.24-.59A3.3,3.3,0,0,0,308.5,30.82Zm-1.29,7h-.64l6.06-9.73h.63Zm7.86-2.67a3.41,3.41,0,0,1-.14,1,2.1,2.1,0,0,1-.41.76,1.74,1.74,0,0,1-.67.48,2.39,2.39,0,0,1-.91.16,2.24,2.24,0,0,1-.94-.18,1.81,1.81,0,0,1-.66-.51,2.18,2.18,0,0,1-.39-.77,3.7,3.7,0,0,1,0-2,2.14,2.14,0,0,1,.41-.76,1.71,1.71,0,0,1,.67-.48,2.64,2.64,0,0,1,1.83,0,1.72,1.72,0,0,1,.67.48,2.14,2.14,0,0,1,.41.76A3.41,3.41,0,0,1,315.08,35.2Zm-.71,0a3,3,0,0,0-.07-.65,1.9,1.9,0,0,0-.24-.6,1.37,1.37,0,0,0-.44-.44,1.25,1.25,0,0,0-.68-.17,1.23,1.23,0,0,0-1,.48,2.24,2.24,0,0,0-.37,1.38,2.17,2.17,0,0,0,.37,1.35,1.24,1.24,0,0,0,1,.48,1.27,1.27,0,0,0,.66-.16,1.3,1.3,0,0,0,.43-.42,1.8,1.8,0,0,0,.24-.59A3.3,3.3,0,0,0,314.36,35.21Z"/><path class="cls-6" d="M119.17,304.75a3.41,3.41,0,0,1-.14,1,2.1,2.1,0,0,1-.41.76,1.74,1.74,0,0,1-.67.48,2.39,2.39,0,0,1-.91.16,2,2,0,0,1-1.58-.63,3.18,3.18,0,0,1,0-3.59,2,2,0,0,1,1.57-.63,2.4,2.4,0,0,1,.91.16,1.72,1.72,0,0,1,.67.48,2.13,2.13,0,0,1,.41.76A3.4,3.4,0,0,1,119.17,304.75Zm-.71,0a3,3,0,0,0-.07-.65,1.9,1.9,0,0,0-.24-.6,1.37,1.37,0,0,0-.44-.44,1.25,1.25,0,0,0-.68-.17,1.23,1.23,0,0,0-1,.48,2.71,2.71,0,0,0,0,2.73,1.24,1.24,0,0,0,1.05.48,1.27,1.27,0,0,0,.66-.16,1.31,1.31,0,0,0,.43-.42,1.82,1.82,0,0,0,.24-.59A3.31,3.31,0,0,0,118.46,304.77Zm-1.29,7h-.64l6.06-9.73h.63Zm7.86-2.66a3.4,3.4,0,0,1-.14,1,2.1,2.1,0,0,1-.41.76,1.76,1.76,0,0,1-.67.48,2.4,2.4,0,0,1-.91.16,2.24,2.24,0,0,1-.94-.18,1.81,1.81,0,0,1-.66-.51,2.19,2.19,0,0,1-.39-.77,3.7,3.7,0,0,1,0-2,2.13,2.13,0,0,1,.41-.76,1.71,1.71,0,0,1,.67-.47,2.64,2.64,0,0,1,1.83,0,1.71,1.71,0,0,1,.67.47,2.13,2.13,0,0,1,.41.76A3.41,3.41,0,0,1,125,309.15Zm-.71,0a3,3,0,0,0-.07-.65,1.92,1.92,0,0,0-.24-.6,1.37,1.37,0,0,0-.44-.44,1.26,1.26,0,0,0-.68-.17,1.22,1.22,0,0,0-1,.48,2.23,2.23,0,0,0-.37,1.38,2.16,2.16,0,0,0,.37,1.35,1.24,1.24,0,0,0,1,.49,1.28,1.28,0,0,0,.66-.16,1.32,1.32,0,0,0,.43-.42,1.82,1.82,0,0,0,.24-.59A3.3,3.3,0,0,0,124.33,309.16Z"/><path class="cls-6" d="M680.72,93.08V96.4h-.83V93.08h-3.5V92.3h3.5V89h.83V92.3h3.49v.78Z"/><path class="cls-6" d="M697.32,85.89v.88h-4.89l-.71,3.41,0,0a3,3,0,0,1,1.06-.64,3.78,3.78,0,0,1,1.28-.22,4.32,4.32,0,0,1,1.55.27,3.28,3.28,0,0,1,1.95,1.91,4,4,0,0,1,.27,1.5,3.31,3.31,0,0,1-.3,1.4,3.62,3.62,0,0,1-.83,1.14,3.9,3.9,0,0,1-1.25.77,4.22,4.22,0,0,1-1.55.28,4.44,4.44,0,0,1-1.42-.21,3.36,3.36,0,0,1-1.1-.59,2.78,2.78,0,0,1-.73-.91,3,3,0,0,1-.3-1.17h1a2.18,2.18,0,0,0,.21.79,2,2,0,0,0,.51.66,2.55,2.55,0,0,0,.8.46,3.11,3.11,0,0,0,1.08.17,2.8,2.8,0,0,0,2-.85,2.95,2.95,0,0,0,.82-2.05,2.81,2.81,0,0,0-.2-1.06,2.6,2.6,0,0,0-.58-.88,2.79,2.79,0,0,0-.9-.6,3,3,0,0,0-1.17-.22,3.48,3.48,0,0,0-1.38.28,2.84,2.84,0,0,0-1.1.84h-.86l1.05-5.38Z"/><path class="cls-6" d="M702,94.83V96.4h-1.44V94.83Z"/><path class="cls-6" d="M712.22,93.42a2.83,2.83,0,0,1-1.07,2.35,4.94,4.94,0,0,1-5.58,0,2.83,2.83,0,0,1-1.06-2.31,2.76,2.76,0,0,1,1.33-2.38,2.88,2.88,0,0,1,.94-.37v0a2.67,2.67,0,0,1-1.37-.89,2.34,2.34,0,0,1-.46-1.45,2.29,2.29,0,0,1,1-1.93,3.91,3.91,0,0,1,2.41-.73,4,4,0,0,1,2.43.73,2.27,2.27,0,0,1,1,1.93,2.57,2.57,0,0,1-.12.8,2.19,2.19,0,0,1-.36.68,2.31,2.31,0,0,1-.57.52,2.79,2.79,0,0,1-.78.34v0a2.86,2.86,0,0,1,1.71.94A2.72,2.72,0,0,1,712.22,93.42Zm-1,0a2.11,2.11,0,0,0-.76-1.66,3.75,3.75,0,0,0-4.19,0,2.11,2.11,0,0,0-.74,1.68,2.15,2.15,0,0,0,.78,1.75,3.65,3.65,0,0,0,4.14,0A2.14,2.14,0,0,0,711.21,93.42Zm-.47-5.09A1.63,1.63,0,0,0,710.1,87a3.2,3.2,0,0,0-3.45,0,1.57,1.57,0,0,0-.68,1.34,1.78,1.78,0,0,0,.64,1.45,2.62,2.62,0,0,0,1.71.53,2.66,2.66,0,0,0,1.83-.55A1.82,1.82,0,0,0,710.74,88.33Z"/><path class="cls-6" d="M720.9,85.89v.88H716l-.71,3.41,0,0a3,3,0,0,1,1.06-.64,3.78,3.78,0,0,1,1.28-.22,4.32,4.32,0,0,1,1.55.27,3.28,3.28,0,0,1,1.95,1.91,4,4,0,0,1,.27,1.5,3.31,3.31,0,0,1-.3,1.4,3.62,3.62,0,0,1-.83,1.14,3.9,3.9,0,0,1-1.25.77,4.22,4.22,0,0,1-1.55.28,4.44,4.44,0,0,1-1.42-.21,3.36,3.36,0,0,1-1.1-.59,2.78,2.78,0,0,1-.73-.91,3,3,0,0,1-.3-1.17h1a2.18,2.18,0,0,0,.21.79,2,2,0,0,0,.51.66,2.55,2.55,0,0,0,.8.46,3.11,3.11,0,0,0,1.08.17,2.8,2.8,0,0,0,2-.85,2.95,2.95,0,0,0,.82-2.05,2.81,2.81,0,0,0-.2-1.06,2.6,2.6,0,0,0-.58-.88,2.79,2.79,0,0,0-.9-.6,3,3,0,0,0-1.17-.22,3.48,3.48,0,0,0-1.38.28,2.84,2.84,0,0,0-1.1.84h-.86l1.05-5.38Z"/><line class="cls-7" x1="587.5" y1="285" x2="587.5" y2="53"/><line class="cls-7" x1="713" y1="280.5" x2="462" y2="280.5"/><line class="cls-8" x1="713" y1="156.5" x2="528" y2="156.5"/><line class="cls-8" x1="713" y1="220.5" x2="496" y2="220.5"/><line class="cls-8" x1="667" y1="94.5" x2="461" y2="94.5"/><rect class="cls-5" x="587" y="72" width="75" height="45"/><rect class="cls-4" x="533" y="135" width="54" height="46"/><rect class="cls-3" x="501" y="198" width="86" height="46"/><path class="cls-6" d="M725.57,85.62a2.15,2.15,0,0,1-.08.62,1.3,1.3,0,0,1-.24.46,1,1,0,0,1-.39.29,1.33,1.33,0,0,1-.52.1,1.12,1.12,0,0,1-.91-.38,2,2,0,0,1,0-2.16,1.13,1.13,0,0,1,.91-.38,1.33,1.33,0,0,1,.53.1,1,1,0,0,1,.38.29,1.31,1.31,0,0,1,.24.46A2.15,2.15,0,0,1,725.57,85.62Zm-.41,0a1.92,1.92,0,0,0,0-.39,1.21,1.21,0,0,0-.14-.36.81.81,0,0,0-.25-.27.77.77,0,0,0-1,.18,1.69,1.69,0,0,0,0,1.65.7.7,0,0,0,.61.29.71.71,0,0,0,.38-.1.77.77,0,0,0,.25-.25,1.11,1.11,0,0,0,.14-.35A2.08,2.08,0,0,0,725.16,85.62Zm-.74,4.25H724l3.5-5.86h.36ZM729,88.27a2.12,2.12,0,0,1-.08.62,1.28,1.28,0,0,1-.24.46,1,1,0,0,1-.39.29,1.34,1.34,0,0,1-.52.1,1.26,1.26,0,0,1-.54-.11,1,1,0,0,1-.38-.31,1.33,1.33,0,0,1-.23-.46,2.33,2.33,0,0,1,0-1.2,1.3,1.3,0,0,1,.24-.46,1,1,0,0,1,.38-.29,1.46,1.46,0,0,1,1.06,0,1,1,0,0,1,.38.29,1.29,1.29,0,0,1,.24.46A2.13,2.13,0,0,1,729,88.27Zm-.41,0a1.91,1.91,0,0,0,0-.39,1.17,1.17,0,0,0-.14-.36.82.82,0,0,0-.25-.27.71.71,0,0,0-.39-.1.7.7,0,0,0-.6.29,1.39,1.39,0,0,0-.21.83,1.35,1.35,0,0,0,.21.81.78.78,0,0,0,1,.2.77.77,0,0,0,.25-.25,1.09,1.09,0,0,0,.14-.35A2.08,2.08,0,0,0,728.55,88.27Z"/><path class="cls-6" d="M474.75,157v.86h-3.88V157Z"/><path class="cls-6" d="M484.9,151a3.77,3.77,0,0,1,2.53.81,2.74,2.74,0,0,1,.95,2.19,3.36,3.36,0,0,1-.71,2,8.91,8.91,0,0,1-2.59,2,10.65,10.65,0,0,0-2.15,1.51,2.4,2.4,0,0,0-.72,1.25h6.23v.88H481a3.56,3.56,0,0,1,.72-2.14,8.44,8.44,0,0,1,2.5-2,11.31,11.31,0,0,0,2.44-1.82,2.51,2.51,0,0,0,.66-1.73,2,2,0,0,0-.7-1.57,2.68,2.68,0,0,0-1.81-.6,2.75,2.75,0,0,0-1.11.21,2.36,2.36,0,0,0-.79.54,2.15,2.15,0,0,0-.47.76,2.57,2.57,0,0,0-.15.87v.21h-1v-.15a3.42,3.42,0,0,1,.22-1.2,3,3,0,0,1,.66-1,3.23,3.23,0,0,1,1.11-.73A4.16,4.16,0,0,1,484.9,151Z"/><path class="cls-6" d="M492.71,160.18v1.56h-1.44v-1.56Z"/><path class="cls-6" d="M501.22,159.1v2.64h-.92V159.1h-5.17v-.92l5.19-7.07h.91v7.19h1.68v.81Zm-.92-6.59h0L496,158.29h4.26Z"/><path class="cls-6" d="M508.47,151a3.77,3.77,0,0,1,2.53.81,2.74,2.74,0,0,1,.95,2.19,3.36,3.36,0,0,1-.71,2,8.91,8.91,0,0,1-2.59,2,10.65,10.65,0,0,0-2.15,1.51,2.4,2.4,0,0,0-.72,1.25H512v.88h-7.38a3.56,3.56,0,0,1,.72-2.14,8.44,8.44,0,0,1,2.5-2,11.31,11.31,0,0,0,2.44-1.82,2.51,2.51,0,0,0,.66-1.73,2,2,0,0,0-.7-1.57,2.68,2.68,0,0,0-1.81-.6,2.75,2.75,0,0,0-1.11.21,2.36,2.36,0,0,0-.79.54,2.15,2.15,0,0,0-.47.76,2.57,2.57,0,0,0-.15.87v.21h-1v-.15a3.42,3.42,0,0,1,.22-1.2,3,3,0,0,1,.66-1,3.23,3.23,0,0,1,1.11-.73A4.16,4.16,0,0,1,508.47,151Z"/><path class="cls-6" d="M516.35,151a2.16,2.16,0,0,1-.08.62,1.27,1.27,0,0,1-.24.46,1,1,0,0,1-.39.29,1.34,1.34,0,0,1-.52.1,1.12,1.12,0,0,1-.91-.38,2,2,0,0,1,0-2.16,1.12,1.12,0,0,1,.91-.38,1.33,1.33,0,0,1,.53.1,1,1,0,0,1,.38.29,1.3,1.3,0,0,1,.24.46A2.17,2.17,0,0,1,516.35,151Zm-.41,0a1.92,1.92,0,0,0,0-.39,1.2,1.2,0,0,0-.14-.36.81.81,0,0,0-.25-.27.77.77,0,0,0-1,.18,1.69,1.69,0,0,0,0,1.65.79.79,0,0,0,1,.19.77.77,0,0,0,.25-.25,1.12,1.12,0,0,0,.14-.36A2.08,2.08,0,0,0,515.94,151Zm-.74,4.25h-.37l3.5-5.86h.36Zm4.54-1.61a2.12,2.12,0,0,1-.08.62,1.28,1.28,0,0,1-.24.46,1,1,0,0,1-.39.29,1.32,1.32,0,0,1-.52.1A1.23,1.23,0,0,1,518,155a1,1,0,0,1-.38-.3,1.34,1.34,0,0,1-.23-.46,2.15,2.15,0,0,1-.08-.58,2.12,2.12,0,0,1,.08-.61,1.3,1.3,0,0,1,.24-.46,1,1,0,0,1,.38-.29,1.48,1.48,0,0,1,1.06,0,1,1,0,0,1,.38.29,1.29,1.29,0,0,1,.24.46A2.12,2.12,0,0,1,519.74,153.61Zm-.41,0a1.93,1.93,0,0,0,0-.39,1.15,1.15,0,0,0-.14-.36.79.79,0,0,0-.25-.27.77.77,0,0,0-1,.19,1.4,1.4,0,0,0-.21.83,1.35,1.35,0,0,0,.21.81.7.7,0,0,0,.6.29.72.72,0,0,0,.38-.1.76.76,0,0,0,.25-.25,1.09,1.09,0,0,0,.14-.35A2.08,2.08,0,0,0,519.33,153.62Z"/><path class="cls-6" d="M446.77,219.9v.86h-3.88v-.86Z"/><path class="cls-6" d="M460.07,214.1V215h-4.89l-.71,3.41,0,0a3,3,0,0,1,1.06-.64,3.77,3.77,0,0,1,1.28-.22,4.3,4.3,0,0,1,1.55.27,3.39,3.39,0,0,1,1.19.75,3.35,3.35,0,0,1,.76,1.16,4,4,0,0,1,.27,1.5,3.3,3.3,0,0,1-.3,1.4,3.61,3.61,0,0,1-.83,1.14,3.89,3.89,0,0,1-1.25.77,4.24,4.24,0,0,1-1.55.28,4.49,4.49,0,0,1-1.42-.21,3.42,3.42,0,0,1-1.1-.59,2.79,2.79,0,0,1-.73-.91,3,3,0,0,1-.3-1.17h1a2.18,2.18,0,0,0,.21.79,2,2,0,0,0,.51.66,2.57,2.57,0,0,0,.8.46,3.11,3.11,0,0,0,1.08.17,2.81,2.81,0,0,0,2-.85,2.94,2.94,0,0,0,.82-2.06,2.81,2.81,0,0,0-.2-1.06,2.61,2.61,0,0,0-.58-.88,2.78,2.78,0,0,0-.9-.6,3,3,0,0,0-1.17-.22,3.44,3.44,0,0,0-1.38.28,2.84,2.84,0,0,0-1.1.84h-.86l1.05-5.38Z"/><path class="cls-6" d="M464.74,223.05v1.56H463.3v-1.56Z"/><path class="cls-6" d="M473.25,222v2.64h-.92V222h-5.17V221l5.19-7.07h.91v7.18h1.68V222Zm-.92-6.59h0l-4.23,5.78h4.26Z"/><path class="cls-6" d="M484.09,214.1V215a17,17,0,0,0-1.83,2.15,16,16,0,0,0-1.39,2.34A13.6,13.6,0,0,0,480,222a14.29,14.29,0,0,0-.41,2.63h-1.08a15,15,0,0,1,.41-2.61,12.49,12.49,0,0,1,.86-2.37,19.21,19.21,0,0,1,3.34-4.65h-6.2v-.88Z"/><path class="cls-6" d="M488.38,213.83a2.15,2.15,0,0,1-.08.62,1.3,1.3,0,0,1-.24.46,1,1,0,0,1-.39.29,1.33,1.33,0,0,1-.52.1,1.12,1.12,0,0,1-.91-.38,2,2,0,0,1,0-2.16,1.13,1.13,0,0,1,.91-.38,1.33,1.33,0,0,1,.53.1,1,1,0,0,1,.38.29,1.31,1.31,0,0,1,.24.46A2.15,2.15,0,0,1,488.38,213.83Zm-.41,0a1.92,1.92,0,0,0,0-.39,1.21,1.21,0,0,0-.14-.36.81.81,0,0,0-.25-.27.77.77,0,0,0-1,.18,1.69,1.69,0,0,0,0,1.65.7.7,0,0,0,.61.29.71.71,0,0,0,.38-.1.77.77,0,0,0,.25-.25,1.11,1.11,0,0,0,.14-.35A2.08,2.08,0,0,0,488,213.84Zm-.74,4.25h-.37l3.5-5.86h.36Zm4.54-1.61a2.12,2.12,0,0,1-.08.62,1.28,1.28,0,0,1-.24.46,1,1,0,0,1-.39.29,1.34,1.34,0,0,1-.52.1,1.26,1.26,0,0,1-.54-.11,1,1,0,0,1-.38-.31,1.33,1.33,0,0,1-.23-.46,2.33,2.33,0,0,1,0-1.2,1.3,1.3,0,0,1,.24-.46,1,1,0,0,1,.38-.29,1.46,1.46,0,0,1,1.06,0,1,1,0,0,1,.38.29,1.29,1.29,0,0,1,.24.46A2.13,2.13,0,0,1,491.77,216.48Zm-.41,0a1.91,1.91,0,0,0,0-.39,1.17,1.17,0,0,0-.14-.36.82.82,0,0,0-.25-.27.71.71,0,0,0-.39-.1.7.7,0,0,0-.6.29,1.39,1.39,0,0,0-.21.83,1.35,1.35,0,0,0,.21.81.78.78,0,0,0,1,.2.77.77,0,0,0,.25-.25,1.09,1.09,0,0,0,.14-.35A2.08,2.08,0,0,0,491.36,216.49Z"/></g></svg>