<svg xmlns="http://www.w3.org/2000/svg" viewBox="0 0 465.94 50"><defs><style>.cls-1{fill:#f0f0f0;}.cls-2{fill:#515151;}</style></defs><title>Artboard 47</title><g id="Layer_1" data-name="Layer 1"><rect class="cls-1" width="465.94" height="50"/><path class="cls-2" d="M32.56,28.64A4.3,4.3,0,0,1,32,30.92a4.53,4.53,0,0,1-1.52,1.52,6.91,6.91,0,0,1-2.19.85,12.3,12.3,0,0,1-2.57.26,9.6,9.6,0,0,1-2.56-.33,6.36,6.36,0,0,1-2.07-1,4.7,4.7,0,0,1-1.39-1.58,4.45,4.45,0,0,1-.5-2.15v-.39h1.64v.12a3.74,3.74,0,0,0,.31,1.52,3.3,3.3,0,0,0,1,1.24,4.86,4.86,0,0,0,1.62.84,7.58,7.58,0,0,0,2.3.31,7.94,7.94,0,0,0,1.8-.21,5.12,5.12,0,0,0,1.58-.64,3.62,3.62,0,0,0,1.12-1.08,2.76,2.76,0,0,0,.43-1.55q0-2.21-3.34-3l-4-1A7.94,7.94,0,0,1,21.83,24a4.29,4.29,0,0,1-1.2-.88A3.2,3.2,0,0,1,19.93,22a4.49,4.49,0,0,1-.22-1.46,4.19,4.19,0,0,1,.51-2.1,4.69,4.69,0,0,1,1.35-1.51A6.14,6.14,0,0,1,23.51,16a8.32,8.32,0,0,1,2.28-.31,8.68,8.68,0,0,1,2.4.32,5.8,5.8,0,0,1,1.91.93,4.54,4.54,0,0,1,1.28,1.49,4.49,4.49,0,0,1,.51,2H30.28a3.2,3.2,0,0,0-.4-1.3A3.56,3.56,0,0,0,29,18.07a4.47,4.47,0,0,0-1.38-.72,5.61,5.61,0,0,0-1.77-.26,7,7,0,0,0-1.83.22,4.32,4.32,0,0,0-1.41.65A2.93,2.93,0,0,0,21.66,19a3.19,3.19,0,0,0-.32,1.46,2.4,2.4,0,0,0,.21,1,2.26,2.26,0,0,0,.57.75,3.09,3.09,0,0,0,.86.51,7.94,7.94,0,0,0,1.05.34l3.9,1a7.46,7.46,0,0,1,3.52,1.7A3.85,3.85,0,0,1,32.56,28.64Z"/><path class="cls-2" d="M35.83,20.06l4.31,11.18h0l4-11.18h1.61l-5.66,15q-.26.67-.52,1.22a3.41,3.41,0,0,1-.63.94,2.59,2.59,0,0,1-.93.6,3.77,3.77,0,0,1-1.37.22,6.34,6.34,0,0,1-1.27-.12V36.56a2.58,2.58,0,0,0,.56.12l.53,0a2.16,2.16,0,0,0,1-.19,1.8,1.8,0,0,0,.67-.61,5.71,5.71,0,0,0,.57-1.1q.28-.68.65-1.66L34.14,20.06Z"/><path class="cls-2" d="M58.29,29.63a3.35,3.35,0,0,1-.45,1.75,3.79,3.79,0,0,1-1.18,1.23,5.49,5.49,0,0,1-1.69.73,8,8,0,0,1-2,.24,7.33,7.33,0,0,1-2.14-.29,4.79,4.79,0,0,1-1.61-.82,4,4,0,0,1-1.06-1.29,4.81,4.81,0,0,1-.5-1.69h1.62a3.4,3.4,0,0,0,.39,1.11,2.81,2.81,0,0,0,.76.86,3.6,3.6,0,0,0,1.13.56,5.12,5.12,0,0,0,1.49.2,6,6,0,0,0,1.2-.13,4.11,4.11,0,0,0,1.17-.42,2.71,2.71,0,0,0,.88-.77,1.92,1.92,0,0,0,.35-1.18A1.85,1.85,0,0,0,56,28.25a5.2,5.2,0,0,0-2.26-.93l-2-.45a8.1,8.1,0,0,1-1.55-.49A4.2,4.2,0,0,1,49,25.66a2.92,2.92,0,0,1-.72-1,3.23,3.23,0,0,1-.25-1.29,3.13,3.13,0,0,1,.43-1.67,3.55,3.55,0,0,1,1.12-1.14,5.06,5.06,0,0,1,1.56-.66A7.53,7.53,0,0,1,53,19.69a6.53,6.53,0,0,1,1.85.25,4.57,4.57,0,0,1,1.46.71,3.65,3.65,0,0,1,1,1.15,4.16,4.16,0,0,1,.49,1.56H56.17a2.64,2.64,0,0,0-.37-1,2.48,2.48,0,0,0-.72-.73,3.38,3.38,0,0,0-1-.45A4.72,4.72,0,0,0,52.84,21a5.7,5.7,0,0,0-1.15.12,3.18,3.18,0,0,0-1,.39,2.14,2.14,0,0,0-.71.7,2,2,0,0,0-.27,1.06,1.49,1.49,0,0,0,.26.88,2.54,2.54,0,0,0,.66.64,3.85,3.85,0,0,0,.88.44,7.28,7.28,0,0,0,.93.26l2.74.61a5.71,5.71,0,0,1,1.19.41,3.54,3.54,0,0,1,1,.7,3.27,3.27,0,0,1,.69,1A3.42,3.42,0,0,1,58.29,29.63Z"/><path class="cls-2" d="M67.09,33.31l-.45,0h-.87a6.08,6.08,0,0,1-1.36-.13,1.93,1.93,0,0,1-.9-.45A1.79,1.79,0,0,1,63,31.9a5.29,5.29,0,0,1-.15-1.36V21.41H60.24V20.06h2.64V16.13h1.61v3.94h3v1.35h-3v9a3.52,3.52,0,0,0,.06.67,1.28,1.28,0,0,0,.21.51,1,1,0,0,0,.42.33,1.75,1.75,0,0,0,.69.12h.75l.45,0,.42,0v1.36Z"/><path class="cls-2" d="M75.81,19.69a5.42,5.42,0,0,1,2.6.59,5.19,5.19,0,0,1,1.79,1.57,6.9,6.9,0,0,1,1,2.27,10.42,10.42,0,0,1,.34,2.68V27H71.49a7.15,7.15,0,0,0,.25,1.89,5.17,5.17,0,0,0,.77,1.66,4,4,0,0,0,1.32,1.18,3.83,3.83,0,0,0,1.9.45,4.88,4.88,0,0,0,1.4-.19,4.05,4.05,0,0,0,1.11-.52,3.52,3.52,0,0,0,.83-.78,4.82,4.82,0,0,0,.58-1h1.57a6,6,0,0,1-.77,1.57,5,5,0,0,1-1.17,1.2,5.36,5.36,0,0,1-1.57.77,6.67,6.67,0,0,1-2,.28,5.87,5.87,0,0,1-2.6-.53,5.11,5.11,0,0,1-1.82-1.46,6.24,6.24,0,0,1-1.08-2.2,10.28,10.28,0,0,1-.35-2.75,9.32,9.32,0,0,1,.36-2.57,6.73,6.73,0,0,1,1.08-2.22,5.47,5.47,0,0,1,1.85-1.56A5.58,5.58,0,0,1,75.81,19.69Zm4.17,6A6.08,6.08,0,0,0,79.67,24a4.88,4.88,0,0,0-.81-1.51,4.14,4.14,0,0,0-1.3-1.08A3.68,3.68,0,0,0,75.79,21a3.69,3.69,0,0,0-3,1.39,5.4,5.4,0,0,0-.84,1.49,8.62,8.62,0,0,0-.46,1.8Z"/><path class="cls-2" d="M101.48,33.19V24.26a3.46,3.46,0,0,0-.74-2.45,3.7,3.7,0,0,0-5,.42,5.6,5.6,0,0,0-.9,3.42v7.55H93.2v-9a3.62,3.62,0,0,0-.68-2.33A2.49,2.49,0,0,0,90.46,21a3.45,3.45,0,0,0-2.92,1.3,5.45,5.45,0,0,0-1,3.42v7.44H84.94V20.06h1.49v2.2h.07a4.52,4.52,0,0,1,4.3-2.58,4.87,4.87,0,0,1,1.28.16,3.73,3.73,0,0,1,1.09.49,3.31,3.31,0,0,1,.84.8,3.72,3.72,0,0,1,.55,1.11,4.32,4.32,0,0,1,1.71-1.91,4.8,4.8,0,0,1,2.48-.64A4.24,4.24,0,0,1,102,20.85a4.71,4.71,0,0,1,1.07,3.32v9Z"/><path class="cls-2" d="M119.52,15.74a5.63,5.63,0,0,1,3.9,1.31,4.56,4.56,0,0,1,1.46,3.56,5.65,5.65,0,0,1-1.1,3.32,13.89,13.89,0,0,1-4,3.32,16.57,16.57,0,0,0-3.32,2.46,4,4,0,0,0-1.11,2H125v1.44h-11.4a6,6,0,0,1,1.11-3.48,13.22,13.22,0,0,1,3.86-3.33,17.55,17.55,0,0,0,3.77-3,4.21,4.21,0,0,0,1-2.82A3.28,3.28,0,0,0,122.25,18a4,4,0,0,0-2.8-1,4.06,4.06,0,0,0-1.71.33,3.64,3.64,0,0,0-1.21.88,3.54,3.54,0,0,0-.72,1.24,4.41,4.41,0,0,0-.23,1.41v.34H114V21a5.85,5.85,0,0,1,.33-2,4.84,4.84,0,0,1,1-1.69,5,5,0,0,1,1.72-1.18A6.13,6.13,0,0,1,119.52,15.74Z"/><path class="cls-2" d="M133.62,33.56a6.34,6.34,0,0,1-1.87-.26,4.69,4.69,0,0,1-1.51-.77,4.27,4.27,0,0,1-1.08-1.24,5,5,0,0,1-.59-1.67h1.56a3.41,3.41,0,0,0,.38,1,2.91,2.91,0,0,0,.71.84,3.34,3.34,0,0,0,1,.56,4.31,4.31,0,0,0,1.39.21,4.05,4.05,0,0,0,2.05-.51,4.21,4.21,0,0,0,1.49-1.49,7.65,7.65,0,0,0,.91-2.43,16.08,16.08,0,0,0,.3-3.3h0a5.17,5.17,0,0,1-4.62,2.87,5.48,5.48,0,0,1-4.1-1.62,5.65,5.65,0,0,1-1.59-4.16,5.67,5.67,0,0,1,5.87-5.87,6.18,6.18,0,0,1,2.81.59A4.62,4.62,0,0,1,138.59,18a8.4,8.4,0,0,1,1,2.79,20.79,20.79,0,0,1,.35,4.1,16.86,16.86,0,0,1-.13,2.13,11.12,11.12,0,0,1-.45,2,8.91,8.91,0,0,1-.8,1.79,5.67,5.67,0,0,1-1.2,1.44,5.33,5.33,0,0,1-1.65,1A6.14,6.14,0,0,1,133.62,33.56Zm4.46-12.07a4.5,4.5,0,0,0-1.14-3.27,4.22,4.22,0,0,0-3.18-1.17,3.82,3.82,0,0,0-3,1.31,4.51,4.51,0,0,0-1.18,3.13,4.8,4.8,0,0,0,1.15,3.28,3.84,3.84,0,0,0,3,1.3,4.1,4.1,0,0,0,3.08-1.27A4.58,4.58,0,0,0,138.08,21.49Z"/><path class="cls-2" d="M150.51,16.05l3.88,15h0l4.18-15h2l4.2,15h0l3.91-15h1.63l-4.72,17.13H164l-4.34-15.34h0l-4.32,15.34h-1.77l-4.76-17.13Z"/><path class="cls-2" d="M184.12,33.09a4.84,4.84,0,0,1-.53.08l-.49,0a2.74,2.74,0,0,1-.88-.12,1.31,1.31,0,0,1-.59-.39,1.64,1.64,0,0,1-.33-.71,4.87,4.87,0,0,1-.1-1.06h-.06A6.1,6.1,0,0,1,179.08,33a5.58,5.58,0,0,1-2.71.59,4.93,4.93,0,0,1-3.2-1A3.5,3.5,0,0,1,172,29.72a3.32,3.32,0,0,1,1.31-2.86q1.34-1,5.92-1.37a4,4,0,0,0,.88-.16,1.5,1.5,0,0,0,.57-.32,1.2,1.2,0,0,0,.32-.52,2.56,2.56,0,0,0,.1-.76,2.49,2.49,0,0,0-.81-2,4,4,0,0,0-2.62-.69,5.22,5.22,0,0,0-1.45.18,3.3,3.3,0,0,0-1.06.5,2.25,2.25,0,0,0-.67.77,2.45,2.45,0,0,0-.27,1h-1.61a4,4,0,0,1,.44-1.55,3.55,3.55,0,0,1,1-1.19,4.86,4.86,0,0,1,1.61-.76,8.06,8.06,0,0,1,2.19-.27,5.29,5.29,0,0,1,3.66,1.07,3.91,3.91,0,0,1,1.17,3v7.13a.94.94,0,0,0,.22.66.92.92,0,0,0,.71.25,1.4,1.4,0,0,0,.5-.09Zm-3-7.09h0q-.23.45-1.54.62l-1.33.2-1.47.25a5.34,5.34,0,0,0-2.33.87,2,2,0,0,0-.79,1.68,2.32,2.32,0,0,0,.87,1.89,3.2,3.2,0,0,0,2.06.7,4.73,4.73,0,0,0,3.27-1.16,3.71,3.71,0,0,0,1.3-2.88Z"/><path class="cls-2" d="M192.27,33.31l-.45,0h-.87a6.08,6.08,0,0,1-1.36-.13,1.93,1.93,0,0,1-.9-.45,1.79,1.79,0,0,1-.49-.86,5.29,5.29,0,0,1-.15-1.36V21.41h-2.64V20.06h2.64V16.13h1.61v3.94h3v1.35h-3v9a3.52,3.52,0,0,0,.06.67,1.28,1.28,0,0,0,.21.51,1,1,0,0,0,.42.33A1.75,1.75,0,0,0,191,32h.75l.45,0,.42,0v1.36Z"/><path class="cls-2" d="M201,19.69a5.42,5.42,0,0,1,2.6.59,5.19,5.19,0,0,1,1.79,1.57,6.9,6.9,0,0,1,1,2.27,10.42,10.42,0,0,1,.34,2.68V27h-10.1a7.15,7.15,0,0,0,.25,1.89,5.17,5.17,0,0,0,.77,1.66A4,4,0,0,0,199,31.77a3.83,3.83,0,0,0,1.9.45,4.88,4.88,0,0,0,1.4-.19,4.05,4.05,0,0,0,1.11-.52,3.52,3.52,0,0,0,.83-.78,4.82,4.82,0,0,0,.58-1h1.57a6,6,0,0,1-.77,1.57,5,5,0,0,1-1.17,1.2,5.36,5.36,0,0,1-1.57.77,6.67,6.67,0,0,1-2,.28,5.87,5.87,0,0,1-2.6-.53,5.11,5.11,0,0,1-1.82-1.46,6.24,6.24,0,0,1-1.08-2.2,10.28,10.28,0,0,1-.35-2.75,9.32,9.32,0,0,1,.36-2.57,6.73,6.73,0,0,1,1.08-2.22,5.47,5.47,0,0,1,1.85-1.56A5.58,5.58,0,0,1,201,19.69Zm4.17,6a6.08,6.08,0,0,0-.32-1.69,4.88,4.88,0,0,0-.81-1.51,4.14,4.14,0,0,0-1.3-1.08A3.68,3.68,0,0,0,201,21a3.69,3.69,0,0,0-3,1.39,5.4,5.4,0,0,0-.84,1.49,8.62,8.62,0,0,0-.46,1.8Z"/><path class="cls-2" d="M210.11,33.19V20.06h1.49v3.07h0a5.12,5.12,0,0,1,1.8-2.39,4.64,4.64,0,0,1,2.75-.86h.57v1.59h-.36A4.44,4.44,0,0,0,213,22.85a4.72,4.72,0,0,0-1.29,3.38v7Z"/><path class="cls-2" d="M228,14.32V16.9H226.4V14.32Zm0,5.74V33.19H226.4V20.06Z"/><path class="cls-2" d="M238.26,19.69a6.69,6.69,0,0,1,2.17.31,3.66,3.66,0,0,1,1.49.93,3.74,3.74,0,0,1,.86,1.54,7.59,7.59,0,0,1,.28,2.16v8.57h-1.61v-8.3a4.4,4.4,0,0,0-.82-2.89,3.09,3.09,0,0,0-2.51-1,4.13,4.13,0,0,0-1.72.35,3.75,3.75,0,0,0-1.3,1,4.32,4.32,0,0,0-.82,1.42,5.27,5.27,0,0,0-.29,1.76v7.68h-1.61V20.06H234v2.27h0a4,4,0,0,1,.69-1.11,4.35,4.35,0,0,1,1-.83,4.66,4.66,0,0,1,1.2-.52A5,5,0,0,1,238.26,19.69Z"/><path class="cls-2" d="M249.11,34.51a4.3,4.3,0,0,1-.68,2.64,2.59,2.59,0,0,1-2.19.88h-.6L245,38V36.68l.38,0h.37a1.69,1.69,0,0,0,1.34-.41,2.06,2.06,0,0,0,.39-1.41V20.06h1.61ZM247.51,16.9V14.32h1.61V16.9Z"/><path class="cls-2" d="M258.68,19.69a5.42,5.42,0,0,1,2.6.59,5.19,5.19,0,0,1,1.79,1.57,6.9,6.9,0,0,1,1,2.27,10.42,10.42,0,0,1,.34,2.68V27h-10.1a7.15,7.15,0,0,0,.25,1.89,5.17,5.17,0,0,0,.77,1.66,4,4,0,0,0,1.32,1.18,3.83,3.83,0,0,0,1.9.45A4.88,4.88,0,0,0,260,32a4.05,4.05,0,0,0,1.11-.52,3.52,3.52,0,0,0,.83-.78,4.82,4.82,0,0,0,.58-1h1.57a6,6,0,0,1-.77,1.57,5,5,0,0,1-1.17,1.2,5.36,5.36,0,0,1-1.57.77,6.67,6.67,0,0,1-2,.28A5.87,5.87,0,0,1,256,33a5.11,5.11,0,0,1-1.82-1.46,6.24,6.24,0,0,1-1.08-2.2,10.28,10.28,0,0,1-.35-2.75,9.32,9.32,0,0,1,.36-2.57,6.73,6.73,0,0,1,1.08-2.22A5.47,5.47,0,0,1,256,20.28,5.58,5.58,0,0,1,258.68,19.69Zm4.17,6a6.08,6.08,0,0,0-.32-1.69,4.88,4.88,0,0,0-.81-1.51,4.14,4.14,0,0,0-1.3-1.08,3.68,3.68,0,0,0-1.76-.41,3.69,3.69,0,0,0-3,1.39,5.4,5.4,0,0,0-.84,1.49,8.62,8.62,0,0,0-.46,1.8Z"/><path class="cls-2" d="M273.22,19.69a6.91,6.91,0,0,1,1.94.26,5.05,5.05,0,0,1,1.56.75,4.08,4.08,0,0,1,1.11,1.21,4.61,4.61,0,0,1,.59,1.65h-1.61a3.47,3.47,0,0,0-.44-1,3,3,0,0,0-.75-.8,3.4,3.4,0,0,0-1.05-.52,4.69,4.69,0,0,0-1.35-.18,4,4,0,0,0-2,.47,4.38,4.38,0,0,0-1.44,1.25,5.83,5.83,0,0,0-.88,1.79,7.17,7.17,0,0,0-.3,2.09,7.34,7.34,0,0,0,.28,2,5.75,5.75,0,0,0,.85,1.79,4.52,4.52,0,0,0,1.42,1.29,3.91,3.91,0,0,0,2,.5A3.86,3.86,0,0,0,274.6,32a3.76,3.76,0,0,0,1.13-.67,3.58,3.58,0,0,0,.79-1,3.75,3.75,0,0,0,.41-1.15h1.61a5.92,5.92,0,0,1-.59,1.71,5,5,0,0,1-1.1,1.41,5.08,5.08,0,0,1-1.59,1,5.76,5.76,0,0,1-2.07.35A6,6,0,0,1,270.6,33a5.71,5.71,0,0,1-1.94-1.48,6.57,6.57,0,0,1-1.22-2.2,8.93,8.93,0,0,1,0-5.33,6.61,6.61,0,0,1,1.17-2.21,5.8,5.8,0,0,1,1.94-1.54A6,6,0,0,1,273.22,19.69Z"/><path class="cls-2" d="M287.37,33.31l-.45,0h-.87a6.08,6.08,0,0,1-1.36-.13,1.93,1.93,0,0,1-.9-.45,1.79,1.79,0,0,1-.49-.86,5.29,5.29,0,0,1-.15-1.36V21.41h-2.64V20.06h2.64V16.13h1.61v3.94h3v1.35h-3v9a3.52,3.52,0,0,0,.06.67,1.28,1.28,0,0,0,.21.51,1,1,0,0,0,.42.33,1.75,1.75,0,0,0,.69.12h.75l.45,0,.42,0v1.36Z"/><path class="cls-2" d="M292.94,14.32V16.9h-1.61V14.32Zm0,5.74V33.19h-1.61V20.06Z"/><path class="cls-2" d="M309,26.63a8.57,8.57,0,0,1-.4,2.63,6.63,6.63,0,0,1-1.22,2.25,5.8,5.8,0,0,1-4.58,2.07,5.67,5.67,0,0,1-4.49-2,7.31,7.31,0,0,1-1.71-5,7.3,7.3,0,0,1,1.7-5,6.17,6.17,0,0,1,9,0A7.3,7.3,0,0,1,309,26.63Zm-1.61,0a7.6,7.6,0,0,0-.27-2,5.63,5.63,0,0,0-.84-1.8,4.5,4.5,0,0,0-1.44-1.31,4.09,4.09,0,0,0-2.08-.5,4,4,0,0,0-2,.48,4.48,4.48,0,0,0-1.44,1.27,5.71,5.71,0,0,0-.87,1.8,7.31,7.31,0,0,0-.29,2.05,7.16,7.16,0,0,0,.29,2,5.93,5.93,0,0,0,.86,1.8,4.47,4.47,0,0,0,1.43,1.3,4,4,0,0,0,2,.5,3.93,3.93,0,0,0,2-.48,4.67,4.67,0,0,0,1.45-1.26,5.61,5.61,0,0,0,.9-1.79A7.09,7.09,0,0,0,307.38,26.63Z"/><path class="cls-2" d="M318.42,19.69a6.69,6.69,0,0,1,2.17.31,3.66,3.66,0,0,1,1.49.93,3.74,3.74,0,0,1,.86,1.54,7.59,7.59,0,0,1,.28,2.16v8.57h-1.61v-8.3a4.4,4.4,0,0,0-.82-2.89,3.09,3.09,0,0,0-2.51-1,4.13,4.13,0,0,0-1.72.35,3.75,3.75,0,0,0-1.3,1,4.32,4.32,0,0,0-.82,1.42,5.27,5.27,0,0,0-.29,1.76v7.68h-1.61V20.06h1.61v2.27h0a4,4,0,0,1,.69-1.11,4.35,4.35,0,0,1,1-.83,4.66,4.66,0,0,1,1.2-.52A5,5,0,0,1,318.42,19.69Z"/></g></svg>