<svg xmlns="http://www.w3.org/2000/svg" viewBox="0 0 246.3 293"><defs><style>.cls-1{fill:#fafafa;}.cls-2{fill:#dcdcdc;}.cls-3{fill:#f0f0f0;}.cls-4{fill:#e6e6e6;}.cls-5{fill:none;stroke:#bebebe;stroke-miterlimit:10;}.cls-6{fill:#464646;}.cls-7{fill:#b4b4b4;}.cls-8{fill:#cf3341;}.cls-9{fill:#fff;}.cls-10{fill:#484848;}</style></defs><title>Artboard 41 copy 3</title><g id="Layer_1" data-name="Layer 1"><rect class="cls-1" x="19.5" y="249.1" width="126" height="35"/><path class="cls-2" d="M145,250v33H21V250H145m1-1H20v35H146V249Z"/><rect class="cls-1" x="112" y="249" width="34" height="35"/><path class="cls-2" d="M145,250v33H113V250h32m1-1H112v35h34V249Z"/><rect class="cls-3" x="159" y="14" width="59" height="34"/><path class="cls-4" d="M217,47H159V14h58Zm1-34H158V48h60Z"/><line class="cls-5" x1="158" y1="47.5" x2="218" y2="47.5"/><path class="cls-6" d="M179.18,25.46a4.39,4.39,0,0,1,1.29.18,3.53,3.53,0,0,1,1.08.54,3.06,3.06,0,0,1,.79.87,3.26,3.26,0,0,1,.43,1.18h-1.45a1.87,1.87,0,0,0-.28-.64,1.91,1.91,0,0,0-.47-.47,2.1,2.1,0,0,0-.63-.29,2.73,2.73,0,0,0-.75-.1A2.52,2.52,0,0,0,178,27a2.4,2.4,0,0,0-.83.7,3,3,0,0,0-.49,1,4.73,4.73,0,0,0-.16,1.25,4.59,4.59,0,0,0,.15,1.17,3.05,3.05,0,0,0,.47,1,2.45,2.45,0,0,0,.83.72,2.48,2.48,0,0,0,1.21.28,2.78,2.78,0,0,0,1-.16,2,2,0,0,0,.73-.45,2.11,2.11,0,0,0,.48-.73,3,3,0,0,0,.21-1h-2.26V29.69h3.62v4.54h-1L181.76,33h0a2.93,2.93,0,0,1-1.12,1,3.22,3.22,0,0,1-1.49.33,4.13,4.13,0,0,1-1.7-.34,3.8,3.8,0,0,1-1.3-.94,4.2,4.2,0,0,1-.83-1.41A5.24,5.24,0,0,1,175,30a5.4,5.4,0,0,1,.28-1.75,4.22,4.22,0,0,1,.81-1.43,3.85,3.85,0,0,1,1.31-1A4.14,4.14,0,0,1,179.18,25.46Z"/><path class="cls-6" d="M184.7,34.23V27.65h1.37V29h0A2.4,2.4,0,0,1,187,27.9a2.23,2.23,0,0,1,1.29-.39h.21l.2,0v1.36l-.25,0h-.28a1.84,1.84,0,0,0-1.48.6,2.36,2.36,0,0,0-.51,1.57v3.18Z"/><path class="cls-6" d="M191.27,24.79v1.42h-1.45V24.79Zm0,2.86v6.57h-1.45V27.65Z"/><path class="cls-6" d="M199.36,25.14v9.08H198v-1h0a2.07,2.07,0,0,1-.37.49,2.16,2.16,0,0,1-.49.37,2.44,2.44,0,0,1-.59.23,2.79,2.79,0,0,1-.67.08,2.72,2.72,0,0,1-1.28-.29,2.76,2.76,0,0,1-.92-.77,3.38,3.38,0,0,1-.56-1.12,4.68,4.68,0,0,1-.19-1.33,4.53,4.53,0,0,1,.18-1.26,3.34,3.34,0,0,1,.54-1.1,2.75,2.75,0,0,1,.91-.77,2.92,2.92,0,0,1,1.92-.22,2.49,2.49,0,0,1,.58.21,2,2,0,0,1,.86.85h0V25.14Zm-5,5.79a3.62,3.62,0,0,0,.1.82,2.44,2.44,0,0,0,.31.76,1.81,1.81,0,0,0,.56.56,1.5,1.5,0,0,0,.83.22,1.73,1.73,0,0,0,.79-.17,1.58,1.58,0,0,0,.57-.49,2.25,2.25,0,0,0,.35-.75,3.68,3.68,0,0,0,.12-1,3.74,3.74,0,0,0-.1-.84,2.3,2.3,0,0,0-.31-.75,1.72,1.72,0,0,0-.57-.54,1.64,1.64,0,0,0-.85-.21,1.56,1.56,0,0,0-.82.2,1.7,1.7,0,0,0-.55.53,2.35,2.35,0,0,0-.32.75A3.93,3.93,0,0,0,194.34,30.93Z"/><rect class="cls-1" x="19.5" y="13.1" width="126" height="35"/><path class="cls-2" d="M145,14V47H21V14H145m1-1H20V48H146V13Z"/><path class="cls-6" d="M34.75,25.15a3,3,0,0,1,2,.7,2.23,2.23,0,0,1,.6.83,2.76,2.76,0,0,1,.19,1.06,2.82,2.82,0,0,1-.46,1.55,5.83,5.83,0,0,1-1.78,1.54q-.5.3-.85.57a6.92,6.92,0,0,0-.58.46,2.8,2.8,0,0,0-.62.81h4.33v1.21H31.54a3.35,3.35,0,0,1,.39-1.59,3.73,3.73,0,0,1,.51-.69,5.59,5.59,0,0,1,.74-.66l.95-.71,1.12-.83a2.7,2.7,0,0,0,.71-.75,1.61,1.61,0,0,0,.23-.83,1.67,1.67,0,0,0-.1-.59,1.33,1.33,0,0,0-.31-.48,1.44,1.44,0,0,0-.47-.3,1.76,1.76,0,0,0-1.31,0,1.46,1.46,0,0,0-.5.38,1.58,1.58,0,0,0-.29.53,2,2,0,0,0-.1.61v.15H31.77V28A3.13,3.13,0,0,1,32,26.86a2.54,2.54,0,0,1,.59-.9,2.71,2.71,0,0,1,.94-.59A3.45,3.45,0,0,1,34.75,25.15Z"/><path class="cls-6" d="M41.89,25.15a2.66,2.66,0,0,1,2.32,1.13,5.71,5.71,0,0,1,.79,3.3,5.84,5.84,0,0,1-.79,3.35,2.92,2.92,0,0,1-4.62,0,5.81,5.81,0,0,1-.79-3.35,5.74,5.74,0,0,1,.79-3.31A2.64,2.64,0,0,1,41.89,25.15Zm-1.7,4.44a10.3,10.3,0,0,0,.07,1.25,4.17,4.17,0,0,0,.26,1.06,1.83,1.83,0,0,0,.52.74,1.28,1.28,0,0,0,.85.28A1.31,1.31,0,0,0,43,32.39a2.12,2.12,0,0,0,.31-.56,4.18,4.18,0,0,0,.2-.69,6.33,6.33,0,0,0,.1-.77q0-.4,0-.8a9.62,9.62,0,0,0-.08-1.27,3.8,3.8,0,0,0-.28-1,1.82,1.82,0,0,0-.53-.71,1.32,1.32,0,0,0-.84-.26,1.29,1.29,0,0,0-.6.13,1.39,1.39,0,0,0-.45.37,2,2,0,0,0-.31.55,4.32,4.32,0,0,0-.19.68,6.53,6.53,0,0,0-.11.76C40.2,29.06,40.19,29.32,40.19,29.58Z"/><path class="cls-6" d="M49,33.88V28h-2.2V27a6,6,0,0,0,.9-.07,2.36,2.36,0,0,0,.63-.19,1.57,1.57,0,0,0,.64-.55,2.21,2.21,0,0,0,.31-.89h1.11v8.6Z"/><path class="cls-6" d="M59,25.32V26.5H55.39L55,28.74l0,0a2.3,2.3,0,0,1,.75-.5,2.57,2.57,0,0,1,1-.17,2.81,2.81,0,0,1,1.14.22,2.53,2.53,0,0,1,.86.62,2.71,2.71,0,0,1,.55.93A3.46,3.46,0,0,1,59.47,31a2.93,2.93,0,0,1-.24,1.17,3,3,0,0,1-.66,1,3.13,3.13,0,0,1-1,.65,3.22,3.22,0,0,1-1.25.24,4.16,4.16,0,0,1-1.15-.15,2.71,2.71,0,0,1-.93-.46,2.33,2.33,0,0,1-.64-.77,2.65,2.65,0,0,1-.28-1.07h1.4a1.51,1.51,0,0,0,.14.5,1.33,1.33,0,0,0,.31.41,1.41,1.41,0,0,0,.48.28,2,2,0,0,0,.65.1,1.67,1.67,0,0,0,.73-.15,1.7,1.7,0,0,0,.55-.42,1.86,1.86,0,0,0,.35-.61,2.17,2.17,0,0,0,.12-.73,2.11,2.11,0,0,0-.12-.7,1.66,1.66,0,0,0-.89-1,1.74,1.74,0,0,0-.74-.15,1.76,1.76,0,0,0-1.52.76H53.55l.84-4.6Z"/><path class="cls-6" d="M64.12,29.82V31H60.73V29.82Z"/><path class="cls-6" d="M68.41,25.15a2.66,2.66,0,0,1,2.32,1.13,5.71,5.71,0,0,1,.79,3.3,5.84,5.84,0,0,1-.79,3.35,2.92,2.92,0,0,1-4.62,0,5.81,5.81,0,0,1-.79-3.35,5.74,5.74,0,0,1,.79-3.31A2.64,2.64,0,0,1,68.41,25.15Zm-1.7,4.44a10.3,10.3,0,0,0,.07,1.25A4.17,4.17,0,0,0,67,31.89a1.83,1.83,0,0,0,.52.74,1.28,1.28,0,0,0,.85.28,1.31,1.31,0,0,0,1.08-.51,2.12,2.12,0,0,0,.31-.56,4.18,4.18,0,0,0,.2-.69,6.33,6.33,0,0,0,.1-.77q0-.4,0-.8a9.62,9.62,0,0,0-.08-1.27,3.8,3.8,0,0,0-.28-1,1.82,1.82,0,0,0-.53-.71,1.32,1.32,0,0,0-.84-.26,1.29,1.29,0,0,0-.6.13,1.39,1.39,0,0,0-.45.37,2,2,0,0,0-.31.55,4.32,4.32,0,0,0-.19.68,6.53,6.53,0,0,0-.11.76C66.72,29.06,66.71,29.32,66.71,29.58Z"/><path class="cls-6" d="M75.44,34.06a3.21,3.21,0,0,1-1-.14,2.5,2.5,0,0,1-.79-.41,2.29,2.29,0,0,1-.57-.65,2.45,2.45,0,0,1-.3-.86h1.34a1.6,1.6,0,0,0,.17.39,1.15,1.15,0,0,0,.28.31,1.3,1.3,0,0,0,.39.21,1.55,1.55,0,0,0,.5.08,1.46,1.46,0,0,0,.88-.26,2,2,0,0,0,.59-.69,3.49,3.49,0,0,0,.33-1,6.79,6.79,0,0,0,.12-1.13h0a2.16,2.16,0,0,1-.67.68,2.21,2.21,0,0,1-.9.3,2.48,2.48,0,0,1-1.37-.11,2.34,2.34,0,0,1-1.35-1,2.76,2.76,0,0,1-.49-1.62,3,3,0,0,1,.85-2.2,2.84,2.84,0,0,1,2.13-.87,3.25,3.25,0,0,1,1.42.29,2.51,2.51,0,0,1,1,.86,5.88,5.88,0,0,1,.79,3.34,7.74,7.74,0,0,1-.07,1.05,5.85,5.85,0,0,1-.23,1,4.56,4.56,0,0,1-.42.92,3,3,0,0,1-.62.75,2.77,2.77,0,0,1-.86.5A3.19,3.19,0,0,1,75.44,34.06Zm1.8-5.94a1.88,1.88,0,0,0-.45-1.3,1.53,1.53,0,0,0-1.22-.52,1.41,1.41,0,0,0-1.13.53A1.9,1.9,0,0,0,74,28.11a2,2,0,0,0,.43,1.32,1.43,1.43,0,0,0,1.17.54,1.55,1.55,0,0,0,1.2-.52A2,2,0,0,0,77.24,28.12Z"/><path class="cls-6" d="M83.38,29.82V31H80V29.82Z"/><path class="cls-6" d="M87.49,33.88V28h-2.2V27a6,6,0,0,0,.9-.07,2.36,2.36,0,0,0,.63-.19,1.57,1.57,0,0,0,.64-.55,2.21,2.21,0,0,0,.31-.89h1.11v8.6Z"/><path class="cls-6" d="M94.75,33.88V28h-2.2V27a6,6,0,0,0,.9-.07,2.36,2.36,0,0,0,.63-.19,1.57,1.57,0,0,0,.64-.55,2.21,2.21,0,0,0,.31-.89h1.11v8.6Z"/><rect class="cls-1" x="112" y="13" width="34" height="35"/><path class="cls-2" d="M145,14V47H113V14h32m1-1H112V48h34V13Z"/><rect class="cls-1" x="19.5" y="123.1" width="126" height="35"/><path class="cls-2" d="M145,124v33H21V124H145m1-1H20v35H146V123Z"/><rect class="cls-1" x="112" y="123" width="34" height="35"/><path class="cls-2" d="M145,124v33H113V124h32m1-1H112v35h34V123Z"/><path class="cls-7" d="M145,69v33H21V69H145m1-1H20v35H146V68Z"/><path class="cls-6" d="M34.94,82.48a4.08,4.08,0,0,1,1.06.13,2.81,2.81,0,0,1,.89.41,2.27,2.27,0,0,1,.64.68,2.3,2.3,0,0,1,.31.95H36.43a1.21,1.21,0,0,0-.47-.78,1.69,1.69,0,0,0-1-.27,1.53,1.53,0,0,0-.81.21,1.8,1.8,0,0,0-.57.54,2.44,2.44,0,0,0-.33.76,3.42,3.42,0,0,0,0,1.67,2.42,2.42,0,0,0,.32.75,1.78,1.78,0,0,0,.56.55,1.51,1.51,0,0,0,.82.21,1.81,1.81,0,0,0,.6-.09,1.48,1.48,0,0,0,.47-.26,1.4,1.4,0,0,0,.33-.41,1.75,1.75,0,0,0,.18-.52h1.4a3.07,3.07,0,0,1-.33,1,2.6,2.6,0,0,1-.62.76,2.78,2.78,0,0,1-.89.49,3.49,3.49,0,0,1-1.14.18,3.33,3.33,0,0,1-1.32-.26,3,3,0,0,1-1-.71,3.21,3.21,0,0,1-.67-1.08A3.83,3.83,0,0,1,31.67,86a4.25,4.25,0,0,1,.21-1.36,3.32,3.32,0,0,1,.63-1.12,3,3,0,0,1,1-.76A3.33,3.33,0,0,1,34.94,82.48Z"/><path class="cls-6" d="M45.54,80.14v9.08H44.17v-1h0a2.07,2.07,0,0,1-.37.49,2.16,2.16,0,0,1-.49.37,2.44,2.44,0,0,1-.59.23,2.79,2.79,0,0,1-.67.08,2.72,2.72,0,0,1-1.28-.29,2.76,2.76,0,0,1-.92-.77,3.38,3.38,0,0,1-.56-1.12,4.68,4.68,0,0,1-.19-1.33,4.53,4.53,0,0,1,.18-1.26,3.34,3.34,0,0,1,.54-1.1,2.75,2.75,0,0,1,.91-.77,2.92,2.92,0,0,1,1.92-.22,2.49,2.49,0,0,1,.58.21,2,2,0,0,1,.86.85h0V80.14Zm-5,5.79a3.62,3.62,0,0,0,.1.82,2.44,2.44,0,0,0,.31.76,1.81,1.81,0,0,0,.56.56,1.5,1.5,0,0,0,.83.22,1.73,1.73,0,0,0,.79-.17,1.58,1.58,0,0,0,.57-.49,2.25,2.25,0,0,0,.35-.75,3.68,3.68,0,0,0,.12-1,3.74,3.74,0,0,0-.1-.84,2.3,2.3,0,0,0-.31-.75,1.72,1.72,0,0,0-.57-.54,1.64,1.64,0,0,0-.85-.21,1.56,1.56,0,0,0-.82.2,1.7,1.7,0,0,0-.55.53,2.35,2.35,0,0,0-.32.75A3.93,3.93,0,0,0,40.52,85.93Z"/><path class="cls-6" d="M53.86,85.94a4.84,4.84,0,0,1-.17,1.28,3.47,3.47,0,0,1-.52,1.11,2.65,2.65,0,0,1-.88.79,2.51,2.51,0,0,1-1.25.3,2.93,2.93,0,0,1-1.36-.3,1.9,1.9,0,0,1-.86-.87h0v1H47.44V80.14h1.44v3.47h0a1.88,1.88,0,0,1,.36-.47,2.16,2.16,0,0,1,.5-.36,2.68,2.68,0,0,1,.61-.23,2.85,2.85,0,0,1,.68-.08,2.52,2.52,0,0,1,1.24.29,2.65,2.65,0,0,1,.88.78,3.4,3.4,0,0,1,.52,1.11A4.88,4.88,0,0,1,53.86,85.94Zm-1.45,0a3.75,3.75,0,0,0-.09-.82,2.52,2.52,0,0,0-.3-.76,1.71,1.71,0,0,0-.54-.56,1.5,1.5,0,0,0-.83-.22,1.57,1.57,0,0,0-.82.21,1.71,1.71,0,0,0-.56.54,2.4,2.4,0,0,0-.32.75,3.63,3.63,0,0,0,0,1.69,2.37,2.37,0,0,0,.31.76,1.76,1.76,0,0,0,.56.55,1.57,1.57,0,0,0,.84.21,1.49,1.49,0,0,0,.8-.21,1.69,1.69,0,0,0,.54-.54,2.42,2.42,0,0,0,.31-.75A3.94,3.94,0,0,0,52.42,85.95Z"/><path class="cls-6" d="M60.91,87.24a2,2,0,0,1-.23,1,2,2,0,0,1-.61.68,2.7,2.7,0,0,1-.91.39,4.79,4.79,0,0,1-1.12.13A4.56,4.56,0,0,1,57,89.29a2.74,2.74,0,0,1-.89-.38,2.14,2.14,0,0,1-.63-.65,2.2,2.2,0,0,1-.3-.94h1.39a1.15,1.15,0,0,0,.51.8,1.51,1.51,0,0,0,.46.2,2.19,2.19,0,0,0,.56.07,2.4,2.4,0,0,0,.53-.06,1.46,1.46,0,0,0,.45-.18,1,1,0,0,0,.32-.31.78.78,0,0,0,.12-.44.62.62,0,0,0-.1-.35.9.9,0,0,0-.27-.26,1.81,1.81,0,0,0-.4-.18l-.47-.13-.93-.22A6,6,0,0,1,56.4,86a2.37,2.37,0,0,1-.63-.37,1.33,1.33,0,0,1-.37-.49,1.57,1.57,0,0,1-.12-.63,1.78,1.78,0,0,1,.21-.89,1.84,1.84,0,0,1,.58-.63,2.69,2.69,0,0,1,.87-.37A4.46,4.46,0,0,1,58,82.48a3.88,3.88,0,0,1,1.06.13,2.61,2.61,0,0,1,.82.38,1.9,1.9,0,0,1,.54.59,2,2,0,0,1,.25.77H59.3a1,1,0,0,0-.45-.65,1.65,1.65,0,0,0-.91-.22,2.3,2.3,0,0,0-.47,0,1.27,1.27,0,0,0-.39.14.77.77,0,0,0-.26.25.65.65,0,0,0-.1.36.59.59,0,0,0,.1.35.91.91,0,0,0,.26.25,1.47,1.47,0,0,0,.35.16l.37.1,1.38.33a4.37,4.37,0,0,1,.68.22,2,2,0,0,1,.54.34,1.47,1.47,0,0,1,.37.5A1.84,1.84,0,0,1,60.91,87.24Z"/><path class="cls-6" d="M34.94,138a4.08,4.08,0,0,1,1.06.13,2.82,2.82,0,0,1,.89.41,2.27,2.27,0,0,1,.64.68,2.3,2.3,0,0,1,.31.95H36.43a1.21,1.21,0,0,0-.47-.78,1.69,1.69,0,0,0-1-.27,1.53,1.53,0,0,0-.81.21,1.8,1.8,0,0,0-.57.54,2.44,2.44,0,0,0-.33.76,3.45,3.45,0,0,0-.11.86,3.49,3.49,0,0,0,.1.81,2.43,2.43,0,0,0,.32.75,1.78,1.78,0,0,0,.56.55,1.51,1.51,0,0,0,.82.21,1.81,1.81,0,0,0,.6-.09,1.48,1.48,0,0,0,.47-.26,1.39,1.39,0,0,0,.33-.41,1.76,1.76,0,0,0,.18-.53h1.4a3.08,3.08,0,0,1-.33,1,2.59,2.59,0,0,1-.62.76,2.78,2.78,0,0,1-.89.49,3.49,3.49,0,0,1-1.14.18,3.33,3.33,0,0,1-1.32-.25,3,3,0,0,1-1-.71,3.22,3.22,0,0,1-.67-1.08,3.83,3.83,0,0,1-.24-1.37,4.25,4.25,0,0,1,.21-1.36,3.31,3.31,0,0,1,.63-1.12,3,3,0,0,1,1-.77A3.33,3.33,0,0,1,34.94,138Z"/><path class="cls-6" d="M45.54,135.67v9.08H44.17v-1h0a2.08,2.08,0,0,1-.37.5,2.16,2.16,0,0,1-.49.37,2.44,2.44,0,0,1-.59.23,2.79,2.79,0,0,1-.67.08,2.72,2.72,0,0,1-1.28-.29,2.76,2.76,0,0,1-.92-.77,3.38,3.38,0,0,1-.56-1.12,4.69,4.69,0,0,1-.19-1.33,4.52,4.52,0,0,1,.18-1.26,3.35,3.35,0,0,1,.54-1.1,2.75,2.75,0,0,1,.91-.77,2.9,2.9,0,0,1,1.92-.22,2.49,2.49,0,0,1,.58.21,2.08,2.08,0,0,1,.49.36,2,2,0,0,1,.37.49h0v-3.47Zm-5,5.79a3.64,3.64,0,0,0,.1.82,2.44,2.44,0,0,0,.31.76,1.81,1.81,0,0,0,.56.56,1.5,1.5,0,0,0,.83.22,1.73,1.73,0,0,0,.79-.17,1.58,1.58,0,0,0,.57-.49,2.26,2.26,0,0,0,.35-.75,3.68,3.68,0,0,0,.12-1,3.72,3.72,0,0,0-.1-.84,2.3,2.3,0,0,0-.31-.75,1.72,1.72,0,0,0-.57-.54,1.64,1.64,0,0,0-.85-.21,1.56,1.56,0,0,0-.82.2,1.7,1.7,0,0,0-.55.53,2.35,2.35,0,0,0-.32.75A3.92,3.92,0,0,0,40.52,141.46Z"/><path class="cls-6" d="M53.86,141.46a4.86,4.86,0,0,1-.17,1.28,3.47,3.47,0,0,1-.52,1.11,2.65,2.65,0,0,1-.88.79,2.51,2.51,0,0,1-1.25.29,2.93,2.93,0,0,1-1.36-.3,1.9,1.9,0,0,1-.86-.87h0v1H47.44v-9.08h1.44v3.47h0a1.88,1.88,0,0,1,.36-.47,2.16,2.16,0,0,1,.5-.36,2.67,2.67,0,0,1,.61-.22,2.85,2.85,0,0,1,.68-.08,2.52,2.52,0,0,1,1.24.29,2.66,2.66,0,0,1,.88.78,3.4,3.4,0,0,1,.52,1.11A4.87,4.87,0,0,1,53.86,141.46Zm-1.45,0a3.73,3.73,0,0,0-.09-.82,2.52,2.52,0,0,0-.3-.76,1.72,1.72,0,0,0-.54-.56,1.5,1.5,0,0,0-.83-.22,1.57,1.57,0,0,0-.82.21,1.71,1.71,0,0,0-.56.54,2.39,2.39,0,0,0-.32.75,3.63,3.63,0,0,0-.1.86,3.69,3.69,0,0,0,.1.83,2.37,2.37,0,0,0,.31.76,1.76,1.76,0,0,0,.56.55,1.57,1.57,0,0,0,.84.21,1.49,1.49,0,0,0,.8-.21,1.69,1.69,0,0,0,.54-.54,2.43,2.43,0,0,0,.31-.75A3.94,3.94,0,0,0,52.42,141.47Z"/><path class="cls-6" d="M60.91,142.77a2,2,0,0,1-.23,1,2,2,0,0,1-.61.68,2.7,2.7,0,0,1-.91.39,4.79,4.79,0,0,1-1.12.13,4.56,4.56,0,0,1-1.08-.12,2.74,2.74,0,0,1-.89-.38,2.14,2.14,0,0,1-.63-.65,2.21,2.21,0,0,1-.3-.94h1.39a1.14,1.14,0,0,0,.51.8,1.51,1.51,0,0,0,.46.2,2.2,2.2,0,0,0,.56.07,2.4,2.4,0,0,0,.53-.06,1.46,1.46,0,0,0,.45-.18,1,1,0,0,0,.32-.31.79.79,0,0,0,.12-.44.61.61,0,0,0-.1-.35.9.9,0,0,0-.27-.26,1.81,1.81,0,0,0-.4-.19l-.47-.13-.93-.22a6,6,0,0,1-.91-.28,2.37,2.37,0,0,1-.63-.37,1.33,1.33,0,0,1-.37-.49,1.57,1.57,0,0,1-.12-.63,1.77,1.77,0,0,1,.21-.89,1.84,1.84,0,0,1,.58-.63,2.69,2.69,0,0,1,.87-.37A4.46,4.46,0,0,1,58,138a3.88,3.88,0,0,1,1.06.13,2.61,2.61,0,0,1,.82.38,1.91,1.91,0,0,1,.54.6,1.94,1.94,0,0,1,.25.77H59.3a1,1,0,0,0-.45-.65,1.65,1.65,0,0,0-.91-.23,2.3,2.3,0,0,0-.47,0,1.27,1.27,0,0,0-.39.14.77.77,0,0,0-.26.25.65.65,0,0,0-.1.36.6.6,0,0,0,.1.35.91.91,0,0,0,.26.25,1.47,1.47,0,0,0,.35.16l.37.1,1.38.33a4.37,4.37,0,0,1,.68.22,2,2,0,0,1,.54.34,1.47,1.47,0,0,1,.37.5A1.84,1.84,0,0,1,60.91,142.77Z"/><path class="cls-6" d="M64.08,145.24a2.72,2.72,0,0,1-.13.89,1.31,1.31,0,0,1-.38.58,1.5,1.5,0,0,1-.63.31,3.73,3.73,0,0,1-.88.09h-.33l-.33,0v-1.19l.22,0h.23a.85.85,0,0,0,.61-.17.68.68,0,0,0,.18-.51v-7.05h1.45Zm-1.45-8.5v-1.42h1.45v1.42Z"/><path class="cls-6" d="M72.17,144.75l-.44.09-.39,0a1.79,1.79,0,0,1-.42,0,.9.9,0,0,1-.34-.15.84.84,0,0,1-.24-.29,1.28,1.28,0,0,1-.12-.45h0a2.67,2.67,0,0,1-.45.46,2.3,2.3,0,0,1-.52.31,3.32,3.32,0,0,1-1.31.24,2.42,2.42,0,0,1-1.62-.51,1.77,1.77,0,0,1-.6-1.45,1.7,1.7,0,0,1,.6-1.42,2.11,2.11,0,0,1,.58-.32,4.68,4.68,0,0,1,.73-.2c.26-.05.54-.09.82-.12l.87-.1.34-.07a.8.8,0,0,0,.27-.13.59.59,0,0,0,.17-.22.79.79,0,0,0,.06-.33,1,1,0,0,0-.31-.79,2.11,2.11,0,0,0-2.05,0,1,1,0,0,0-.39.73H65.92a2,2,0,0,1,.28-.9,2,2,0,0,1,.62-.62,2.88,2.88,0,0,1,.9-.36,5.08,5.08,0,0,1,1.13-.12,3.42,3.42,0,0,1,2,.5,1.65,1.65,0,0,1,.67,1.41v3.54a.48.48,0,0,0,.08.3.33.33,0,0,0,.27.1H72l.13,0Zm-2-3.35h0a1,1,0,0,1-.54.23l-.48.08-.65.11a2.2,2.2,0,0,0-1,.37.86.86,0,0,0-.32.72.89.89,0,0,0,.37.76,1.48,1.48,0,0,0,.87.24,1.79,1.79,0,0,0,1.27-.43,1.59,1.59,0,0,0,.49-1.24Z"/><path class="cls-6" d="M76.12,138a2.35,2.35,0,0,1,1.2.3,2.12,2.12,0,0,1,.81.85h0v-1h1.39v6.17a3.43,3.43,0,0,1-.23,1.31,2.39,2.39,0,0,1-.65.92,2.71,2.71,0,0,1-1,.54,4.81,4.81,0,0,1-1.35.18,4.46,4.46,0,0,1-1-.11,2.93,2.93,0,0,1-.86-.33,2.12,2.12,0,0,1-.65-.59,1.76,1.76,0,0,1-.31-.87h1.44a1,1,0,0,0,.49.66,2,2,0,0,0,1,.22,1.64,1.64,0,0,0,1.28-.49,2,2,0,0,0,.44-1.4v-1h0a2,2,0,0,1-.82.84,2.47,2.47,0,0,1-1.22.3,2.92,2.92,0,0,1-1.26-.25,2.46,2.46,0,0,1-.88-.69,2.94,2.94,0,0,1-.52-1,4.7,4.7,0,0,1-.17-1.3,4.06,4.06,0,0,1,.18-1.21,3.1,3.1,0,0,1,.54-1,2.67,2.67,0,0,1,.9-.72A2.76,2.76,0,0,1,76.12,138Zm-1.42,3.25a3.41,3.41,0,0,0,.11.87,2,2,0,0,0,.32.68,1.48,1.48,0,0,0,.53.44,1.65,1.65,0,0,0,.74.16,1.58,1.58,0,0,0,.75-.17,1.71,1.71,0,0,0,.55-.46,2,2,0,0,0,.34-.66,2.64,2.64,0,0,0,.11-.78,3.5,3.5,0,0,0-.11-.88,2.08,2.08,0,0,0-.32-.71,1.53,1.53,0,0,0-.55-.47,1.68,1.68,0,0,0-.78-.17,1.57,1.57,0,0,0-.77.18,1.53,1.53,0,0,0-.53.48,2.15,2.15,0,0,0-.3.69A3.18,3.18,0,0,0,74.69,141.25Z"/><path class="cls-6" d="M87.66,135.67v9.08H86.28v-1h0a2.08,2.08,0,0,1-.37.5,2.16,2.16,0,0,1-.49.37,2.44,2.44,0,0,1-.59.23,2.79,2.79,0,0,1-.67.08,2.72,2.72,0,0,1-1.28-.29,2.76,2.76,0,0,1-.92-.77,3.38,3.38,0,0,1-.56-1.12,4.69,4.69,0,0,1-.19-1.33,4.52,4.52,0,0,1,.18-1.26,3.35,3.35,0,0,1,.54-1.1,2.75,2.75,0,0,1,.91-.77,2.9,2.9,0,0,1,1.92-.22,2.49,2.49,0,0,1,.58.21,2.08,2.08,0,0,1,.49.36,2,2,0,0,1,.37.49h0v-3.47Zm-5,5.79a3.64,3.64,0,0,0,.1.82A2.44,2.44,0,0,0,83,143a1.81,1.81,0,0,0,.56.56,1.5,1.5,0,0,0,.83.22,1.73,1.73,0,0,0,.79-.17,1.58,1.58,0,0,0,.57-.49,2.26,2.26,0,0,0,.35-.75,3.68,3.68,0,0,0,.12-1,3.72,3.72,0,0,0-.1-.84,2.3,2.3,0,0,0-.31-.75,1.72,1.72,0,0,0-.57-.54,1.64,1.64,0,0,0-.85-.21,1.56,1.56,0,0,0-.82.2,1.7,1.7,0,0,0-.55.53,2.35,2.35,0,0,0-.32.75A3.92,3.92,0,0,0,82.63,141.46Z"/><path class="cls-6" d="M92.14,138a2.35,2.35,0,0,1,1.2.3,2.12,2.12,0,0,1,.81.85h0v-1h1.39v6.17a3.43,3.43,0,0,1-.23,1.31,2.39,2.39,0,0,1-.65.92,2.71,2.71,0,0,1-1,.54,4.81,4.81,0,0,1-1.35.18,4.46,4.46,0,0,1-1-.11,2.93,2.93,0,0,1-.86-.33,2.12,2.12,0,0,1-.65-.59,1.76,1.76,0,0,1-.31-.87H91a1,1,0,0,0,.49.66,2,2,0,0,0,1,.22,1.64,1.64,0,0,0,1.28-.49,2,2,0,0,0,.44-1.4v-1h0a2,2,0,0,1-.82.84,2.47,2.47,0,0,1-1.22.3,2.92,2.92,0,0,1-1.26-.25,2.46,2.46,0,0,1-.88-.69,2.94,2.94,0,0,1-.52-1,4.7,4.7,0,0,1-.17-1.3,4.06,4.06,0,0,1,.18-1.21,3.1,3.1,0,0,1,.54-1,2.67,2.67,0,0,1,.9-.72A2.76,2.76,0,0,1,92.14,138Zm-1.42,3.25a3.41,3.41,0,0,0,.11.87,2,2,0,0,0,.32.68,1.48,1.48,0,0,0,.53.44,1.65,1.65,0,0,0,.74.16,1.58,1.58,0,0,0,.75-.17,1.71,1.71,0,0,0,.55-.46,2,2,0,0,0,.34-.66,2.64,2.64,0,0,0,.11-.78,3.5,3.5,0,0,0-.11-.88,2.08,2.08,0,0,0-.32-.71,1.53,1.53,0,0,0-.55-.47,1.68,1.68,0,0,0-.78-.17,1.57,1.57,0,0,0-.77.18,1.53,1.53,0,0,0-.53.48,2.15,2.15,0,0,0-.3.69A3.18,3.18,0,0,0,90.71,141.25Z"/><path class="cls-6" d="M99.46,139.2v5.55H98V139.2H96.73v-1H98v-.51a2,2,0,0,1,.52-1.52,1.64,1.64,0,0,1,.63-.36,3,3,0,0,1,.9-.12h.43l.52,0v1.11l-.18,0-.2,0h-.34a.86.86,0,0,0-.65.2,1,1,0,0,0-.18.68v.51h1.44v1Z"/><polygon class="cls-8" points="71.32 167 66 161.18 60.68 167 19 167 19 217 223 217 223 167 71.32 167"/><path class="cls-9" d="M58.55,179.52v8.57h-.81v-8.57Z"/><path class="cls-9" d="M63.76,181.34a3.34,3.34,0,0,1,1.08.16,1.83,1.83,0,0,1,.74.46,1.86,1.86,0,0,1,.43.77,3.79,3.79,0,0,1,.14,1.08v4.28h-.8v-4.15a2.2,2.2,0,0,0-.41-1.44,1.54,1.54,0,0,0-1.25-.49,2.07,2.07,0,0,0-.86.17,1.87,1.87,0,0,0-.65.48,2.16,2.16,0,0,0-.41.71,2.63,2.63,0,0,0-.14.88v3.84h-.8v-6.56h.8v1.14h0a2,2,0,0,1,.35-.56,2.18,2.18,0,0,1,.49-.42,2.33,2.33,0,0,1,.6-.26A2.48,2.48,0,0,1,63.76,181.34Z"/><path class="cls-9" d="M68.36,181.53l2.06,5.76h0l2-5.76h.83l-2.46,6.56H70l-2.54-6.56Z"/><path class="cls-9" d="M80.3,188l-.27,0h-.24a1.37,1.37,0,0,1-.44-.06.66.66,0,0,1-.29-.2.81.81,0,0,1-.16-.35,2.44,2.44,0,0,1,0-.53h0a3,3,0,0,1-1,1,2.79,2.79,0,0,1-1.35.29,2.46,2.46,0,0,1-1.6-.5,1.75,1.75,0,0,1-.6-1.43,1.66,1.66,0,0,1,.66-1.43,6.79,6.79,0,0,1,3-.69,2,2,0,0,0,.44-.08.75.75,0,0,0,.29-.16.6.6,0,0,0,.16-.26,1.28,1.28,0,0,0,0-.38,1.24,1.24,0,0,0-.4-1,2,2,0,0,0-1.31-.34,2.61,2.61,0,0,0-.72.09,1.65,1.65,0,0,0-.53.25,1.13,1.13,0,0,0-.33.39,1.22,1.22,0,0,0-.13.49h-.8a2,2,0,0,1,.22-.78,1.78,1.78,0,0,1,.51-.6,2.43,2.43,0,0,1,.81-.38,4,4,0,0,1,1.09-.13,2.64,2.64,0,0,1,1.83.54,2,2,0,0,1,.59,1.52V187a.47.47,0,0,0,.11.33.46.46,0,0,0,.36.12.7.7,0,0,0,.25,0Zm-1.52-3.54h0q-.12.22-.77.31l-.67.1-.74.12a2.67,2.67,0,0,0-1.17.44,1,1,0,0,0-.39.84,1.16,1.16,0,0,0,.43.94,1.6,1.6,0,0,0,1,.35,2.36,2.36,0,0,0,1.63-.58,1.85,1.85,0,0,0,.65-1.44Z"/><path class="cls-9" d="M82.56,179v9.08h-.8V179Z"/><path class="cls-9" d="M85.59,178.66v1.29h-.8v-1.29Zm0,2.87v6.56h-.8v-6.56Z"/><path class="cls-9" d="M93.53,179v9.08h-.74v-1.25h0a2.05,2.05,0,0,1-.39.6,2.57,2.57,0,0,1-.56.45,2.8,2.8,0,0,1-.67.29,2.63,2.63,0,0,1-.72.1,2.8,2.8,0,0,1-1.28-.28,2.68,2.68,0,0,1-.92-.75,3.32,3.32,0,0,1-.56-1.11,4.68,4.68,0,0,1-.19-1.34,4.83,4.83,0,0,1,.17-1.29,3.3,3.3,0,0,1,.53-1.11,2.69,2.69,0,0,1,.92-.78,3,3,0,0,1,2-.2,2.56,2.56,0,0,1,.65.27,2.25,2.25,0,0,1,.54.45,2.07,2.07,0,0,1,.38.63h0V179Zm-5.26,5.8a4.17,4.17,0,0,0,.05.65,3.7,3.7,0,0,0,.16.64,2.83,2.83,0,0,0,.28.58,2.14,2.14,0,0,0,.41.48,1.8,1.8,0,0,0,.55.32,2,2,0,0,0,.7.12,2.14,2.14,0,0,0,1-.23,2.12,2.12,0,0,0,.72-.61,2.66,2.66,0,0,0,.43-.89,4,4,0,0,0,.14-1.06,4,4,0,0,0-.13-1,2.72,2.72,0,0,0-.41-.9,2.05,2.05,0,0,0-1.76-.88,1.94,1.94,0,0,0-.68.11,1.8,1.8,0,0,0-.54.31,2.15,2.15,0,0,0-.41.47,2.79,2.79,0,0,0-.29.58,3.53,3.53,0,0,0-.17.65A4.24,4.24,0,0,0,88.27,184.81Z"/><path class="cls-9" d="M100,178.66v1.29h-.8v-1.29Zm0,2.87v6.56h-.8v-6.56Z"/><path class="cls-9" d="M105.17,181.34a3.34,3.34,0,0,1,1.08.16,1.83,1.83,0,0,1,.74.46,1.86,1.86,0,0,1,.43.77,3.79,3.79,0,0,1,.14,1.08v4.28h-.8v-4.15a2.2,2.2,0,0,0-.41-1.44,1.54,1.54,0,0,0-1.25-.49,2.07,2.07,0,0,0-.86.17,1.87,1.87,0,0,0-.65.48,2.16,2.16,0,0,0-.41.71,2.63,2.63,0,0,0-.14.88v3.84h-.8v-6.56h.8v1.14h0a2,2,0,0,1,.35-.56,2.18,2.18,0,0,1,.49-.42,2.33,2.33,0,0,1,.6-.26A2.48,2.48,0,0,1,105.17,181.34Z"/><path class="cls-9" d="M115.8,184.81a4.78,4.78,0,0,1-.17,1.28,3.38,3.38,0,0,1-.53,1.11,2.69,2.69,0,0,1-.92.79,3,3,0,0,1-2,.21,2.46,2.46,0,0,1-.65-.27,2.29,2.29,0,0,1-.54-.45,2.21,2.21,0,0,1-.38-.63h0v3.67h-.8v-9h.74v1.25h0a2.24,2.24,0,0,1,.39-.61,2.29,2.29,0,0,1,.55-.45,2.67,2.67,0,0,1,.67-.28,2.82,2.82,0,0,1,.74-.1,2.85,2.85,0,0,1,1.29.28,2.64,2.64,0,0,1,.92.75,3.33,3.33,0,0,1,.56,1.11A4.66,4.66,0,0,1,115.8,184.81Zm-.8,0a4.48,4.48,0,0,0-.11-1,2.84,2.84,0,0,0-.37-.9,2.07,2.07,0,0,0-.67-.66,1.9,1.9,0,0,0-1-.26,2.09,2.09,0,0,0-1.7.7,3.21,3.21,0,0,0-.58,2.09,4.21,4.21,0,0,0,.13,1,2.68,2.68,0,0,0,.4.9,2.09,2.09,0,0,0,.71.63,2.16,2.16,0,0,0,1.06.24,1.87,1.87,0,0,0,1-.24,2,2,0,0,0,.67-.63,2.87,2.87,0,0,0,.39-.9A4.14,4.14,0,0,0,115,184.81Z"/><path class="cls-9" d="M122.25,188.09v-1.18h0a2.48,2.48,0,0,1-.39.58,2.33,2.33,0,0,1-.52.43,2.47,2.47,0,0,1-.63.27,2.73,2.73,0,0,1-.72.09,2.21,2.21,0,0,1-1.74-.63,2.64,2.64,0,0,1-.56-1.82v-4.31h.8v4.28a2.67,2.67,0,0,0,.1.76,1.44,1.44,0,0,0,.31.57,1.33,1.33,0,0,0,.54.35,2.34,2.34,0,0,0,.79.12,1.69,1.69,0,0,0,.89-.22,1.92,1.92,0,0,0,.62-.59,2.63,2.63,0,0,0,.36-.83,3.9,3.9,0,0,0,.11-.94v-3.49h.8v6.56Z"/><path class="cls-9" d="M127.8,188.15h-.66a3,3,0,0,1-.68-.06,1,1,0,0,1-.45-.22.9.9,0,0,1-.25-.43,2.65,2.65,0,0,1-.07-.68V182.2h-1.32v-.67h1.32v-2h.8v2H128v.67h-1.5v4.48a1.77,1.77,0,0,0,0,.34.63.63,0,0,0,.11.25.5.5,0,0,0,.21.16.87.87,0,0,0,.35.06h.6l.21,0v.68Z"/><path class="cls-9" d="M131.07,186.82v1.27H130v-1.27Z"/><path class="cls-9" d="M58.5,197.52v7.87h4.8v.7H57.68v-8.57Z"/><path class="cls-9" d="M69.79,202.81a4.29,4.29,0,0,1-.2,1.31,3.31,3.31,0,0,1-.61,1.13,2.9,2.9,0,0,1-2.29,1,2.84,2.84,0,0,1-2.24-1,4.07,4.07,0,0,1,0-5,3.08,3.08,0,0,1,4.51,0A3.65,3.65,0,0,1,69.79,202.81Zm-.8,0a3.8,3.8,0,0,0-.13-1,2.81,2.81,0,0,0-.42-.9,2.25,2.25,0,0,0-.72-.65,2,2,0,0,0-1-.25,2,2,0,0,0-1,.24,2.24,2.24,0,0,0-.72.64,2.85,2.85,0,0,0-.44.9,3.66,3.66,0,0,0-.15,1,3.58,3.58,0,0,0,.14,1,3,3,0,0,0,.43.9,2.24,2.24,0,0,0,.71.65,2.15,2.15,0,0,0,2,0,2.33,2.33,0,0,0,.72-.63,2.81,2.81,0,0,0,.45-.89A3.54,3.54,0,0,0,69,202.81Z"/><path class="cls-9" d="M74,199.34a3.34,3.34,0,0,1,1.08.16,1.83,1.83,0,0,1,.74.46,1.86,1.86,0,0,1,.43.77,3.79,3.79,0,0,1,.14,1.08v4.28h-.8v-4.15a2.2,2.2,0,0,0-.41-1.44A1.54,1.54,0,0,0,74,200a2.07,2.07,0,0,0-.86.17,1.87,1.87,0,0,0-.65.48,2.16,2.16,0,0,0-.41.71,2.63,2.63,0,0,0-.14.88v3.84h-.8v-6.56h.8v1.14h0a2,2,0,0,1,.35-.56,2.18,2.18,0,0,1,.49-.42,2.33,2.33,0,0,1,.6-.26A2.48,2.48,0,0,1,74,199.34Z"/><path class="cls-9" d="M80.73,199.34a2.3,2.3,0,0,1,.64.09,2.29,2.29,0,0,1,1.08.68,2.26,2.26,0,0,1,.37.56h0v-1.14h.8v6.1a3.27,3.27,0,0,1-.73,2.3,2.88,2.88,0,0,1-2.21.79,4.54,4.54,0,0,1-.93-.09,2.71,2.71,0,0,1-.81-.3,1.88,1.88,0,0,1-.6-.55,1.69,1.69,0,0,1-.28-.82h.8a1.24,1.24,0,0,0,.56.81,2.33,2.33,0,0,0,1.25.28,2,2,0,0,0,1.61-.61,2.66,2.66,0,0,0,.54-1.81v-1.18h0a2.54,2.54,0,0,1-.37.57,2.27,2.27,0,0,1-.5.43,2.35,2.35,0,0,1-.6.27,2.4,2.4,0,0,1-.67.09,3.16,3.16,0,0,1-1.28-.24,2.43,2.43,0,0,1-.91-.67,2.85,2.85,0,0,1-.54-1,4.64,4.64,0,0,1-.18-1.31,4,4,0,0,1,.19-1.22,3,3,0,0,1,.56-1,2.74,2.74,0,0,1,.93-.7A3,3,0,0,1,80.73,199.34Zm-2.16,3.29a3.5,3.5,0,0,0,.12,1,2.29,2.29,0,0,0,.38.8,1.87,1.87,0,0,0,.67.54,2.13,2.13,0,0,0,1,.2,1.9,1.9,0,0,0,.91-.21,2.1,2.1,0,0,0,.67-.56,2.54,2.54,0,0,0,.42-.8,3,3,0,0,0,.14-.93,3.72,3.72,0,0,0-.12-.93,2.66,2.66,0,0,0-.37-.84,2,2,0,0,0-.66-.61,1.87,1.87,0,0,0-1-.24,2,2,0,0,0-1,.22,2,2,0,0,0-.67.59,2.55,2.55,0,0,0-.39.84A3.87,3.87,0,0,0,78.57,202.63Z"/><path class="cls-9" d="M88,199.34a2.71,2.71,0,0,1,1.3.29,2.6,2.6,0,0,1,.9.79,3.46,3.46,0,0,1,.52,1.13,5.2,5.2,0,0,1,.17,1.34V203H85.79a3.58,3.58,0,0,0,.13.94,2.59,2.59,0,0,0,.39.83,2,2,0,0,0,.66.59,1.92,1.92,0,0,0,.95.22,2.44,2.44,0,0,0,.7-.09,2,2,0,0,0,.56-.26,1.75,1.75,0,0,0,.42-.39,2.42,2.42,0,0,0,.29-.49h.79a3,3,0,0,1-.38.79,2.49,2.49,0,0,1-.59.6,2.68,2.68,0,0,1-.79.39,3.34,3.34,0,0,1-1,.14,2.94,2.94,0,0,1-1.3-.27,2.56,2.56,0,0,1-.91-.73,3.12,3.12,0,0,1-.54-1.1,5.15,5.15,0,0,1-.18-1.37,4.66,4.66,0,0,1,.18-1.28,3.36,3.36,0,0,1,.54-1.11,2.74,2.74,0,0,1,.92-.78A2.79,2.79,0,0,1,88,199.34Zm2.09,3a3,3,0,0,0-.16-.85,2.45,2.45,0,0,0-.41-.75,2.07,2.07,0,0,0-.65-.54,1.84,1.84,0,0,0-.88-.21,1.84,1.84,0,0,0-1.5.7,2.7,2.7,0,0,0-.42.75,4.3,4.3,0,0,0-.23.9Z"/><path class="cls-9" d="M92.06,206.09v-6.56h.74v1.54h0a2.56,2.56,0,0,1,.9-1.2,2.32,2.32,0,0,1,1.38-.43h.29v.8h-.18a2.22,2.22,0,0,0-1.71.69,2.36,2.36,0,0,0-.64,1.69v3.48Z"/><path class="cls-9" d="M101.85,199.34a2.71,2.71,0,0,1,1.3.29,2.6,2.6,0,0,1,.9.79,3.46,3.46,0,0,1,.52,1.13,5.2,5.2,0,0,1,.17,1.34V203H99.69a3.58,3.58,0,0,0,.13.94,2.59,2.59,0,0,0,.39.83,2,2,0,0,0,.66.59,1.92,1.92,0,0,0,.95.22,2.44,2.44,0,0,0,.7-.09,2,2,0,0,0,.56-.26,1.75,1.75,0,0,0,.42-.39,2.42,2.42,0,0,0,.29-.49h.79a3,3,0,0,1-.38.79,2.49,2.49,0,0,1-.59.6,2.68,2.68,0,0,1-.79.39,3.34,3.34,0,0,1-1,.14,2.94,2.94,0,0,1-1.3-.27,2.56,2.56,0,0,1-.91-.73,3.12,3.12,0,0,1-.54-1.1,5.15,5.15,0,0,1-.18-1.37,4.66,4.66,0,0,1,.18-1.28,3.36,3.36,0,0,1,.54-1.11,2.74,2.74,0,0,1,.92-.78A2.79,2.79,0,0,1,101.85,199.34Zm2.09,3a3,3,0,0,0-.16-.85,2.45,2.45,0,0,0-.41-.75,2.07,2.07,0,0,0-.65-.54,1.84,1.84,0,0,0-.88-.21,1.84,1.84,0,0,0-1.5.7,2.7,2.7,0,0,0-.42.75,4.3,4.3,0,0,0-.23.9Z"/><path class="cls-9" d="M106.42,206.09v-6.56h.74v1.54h0a2.56,2.56,0,0,1,.9-1.2,2.32,2.32,0,0,1,1.38-.43h.29v.8h-.18a2.22,2.22,0,0,0-1.71.69,2.36,2.36,0,0,0-.64,1.69v3.48Z"/><path class="cls-9" d="M111,206.09v-6.56h.74v1.54h0a2.56,2.56,0,0,1,.9-1.2,2.32,2.32,0,0,1,1.38-.43h.29v.8h-.18a2.22,2.22,0,0,0-1.71.69,2.36,2.36,0,0,0-.64,1.69v3.48Z"/><path class="cls-9" d="M121.4,202.81a4.29,4.29,0,0,1-.2,1.31,3.31,3.31,0,0,1-.61,1.13,2.9,2.9,0,0,1-2.29,1,2.84,2.84,0,0,1-2.24-1,4.07,4.07,0,0,1,0-5,3.08,3.08,0,0,1,4.51,0A3.65,3.65,0,0,1,121.4,202.81Zm-.8,0a3.8,3.8,0,0,0-.13-1,2.81,2.81,0,0,0-.42-.9,2.25,2.25,0,0,0-.72-.65,2,2,0,0,0-1-.25,2,2,0,0,0-1,.24,2.24,2.24,0,0,0-.72.64,2.85,2.85,0,0,0-.44.9,3.66,3.66,0,0,0-.15,1,3.58,3.58,0,0,0,.14,1,3,3,0,0,0,.43.9,2.24,2.24,0,0,0,.71.65,2.15,2.15,0,0,0,2,0,2.33,2.33,0,0,0,.72-.63,2.81,2.81,0,0,0,.45-.89A3.54,3.54,0,0,0,120.6,202.81Z"/><path class="cls-9" d="M123.2,206.09v-6.56h.74v1.54h0a2.56,2.56,0,0,1,.9-1.2,2.32,2.32,0,0,1,1.38-.43h.29v.8h-.18a2.22,2.22,0,0,0-1.71.69,2.36,2.36,0,0,0-.64,1.69v3.48Z"/><path class="cls-9" d="M137.06,197v9.08h-.74v-1.25h0a2.05,2.05,0,0,1-.39.6,2.57,2.57,0,0,1-.56.45,2.8,2.8,0,0,1-.67.29,2.63,2.63,0,0,1-.72.1,2.8,2.8,0,0,1-1.28-.28,2.68,2.68,0,0,1-.92-.75,3.32,3.32,0,0,1-.56-1.11,4.68,4.68,0,0,1-.19-1.34,4.83,4.83,0,0,1,.17-1.29,3.3,3.3,0,0,1,.53-1.11,2.69,2.69,0,0,1,.92-.78,3,3,0,0,1,2-.2,2.56,2.56,0,0,1,.65.27,2.25,2.25,0,0,1,.54.45,2.07,2.07,0,0,1,.38.63h0V197Zm-5.26,5.8a4.17,4.17,0,0,0,.05.65,3.7,3.7,0,0,0,.16.64,2.83,2.83,0,0,0,.28.58,2.14,2.14,0,0,0,.41.48,1.8,1.8,0,0,0,.55.32,2,2,0,0,0,.7.12,2.14,2.14,0,0,0,1-.23,2.12,2.12,0,0,0,.72-.61,2.66,2.66,0,0,0,.43-.89,4,4,0,0,0,.14-1.06,4,4,0,0,0-.13-1,2.72,2.72,0,0,0-.41-.9,2.05,2.05,0,0,0-1.76-.88,1.94,1.94,0,0,0-.68.11,1.8,1.8,0,0,0-.54.31,2.15,2.15,0,0,0-.41.47,2.79,2.79,0,0,0-.29.58,3.53,3.53,0,0,0-.17.65A4.24,4.24,0,0,0,131.8,202.81Z"/><path class="cls-9" d="M141.83,199.34a2.71,2.71,0,0,1,1.3.29,2.6,2.6,0,0,1,.9.79,3.46,3.46,0,0,1,.52,1.13,5.2,5.2,0,0,1,.17,1.34V203h-5.05a3.58,3.58,0,0,0,.13.94,2.59,2.59,0,0,0,.39.83,2,2,0,0,0,.66.59,1.92,1.92,0,0,0,.95.22,2.44,2.44,0,0,0,.7-.09,2,2,0,0,0,.56-.26,1.75,1.75,0,0,0,.42-.39,2.42,2.42,0,0,0,.29-.49h.79a3,3,0,0,1-.38.79,2.49,2.49,0,0,1-.59.6,2.68,2.68,0,0,1-.79.39,3.34,3.34,0,0,1-1,.14,2.94,2.94,0,0,1-1.3-.27,2.56,2.56,0,0,1-.91-.73,3.12,3.12,0,0,1-.54-1.1,5.15,5.15,0,0,1-.18-1.37,4.66,4.66,0,0,1,.18-1.28,3.36,3.36,0,0,1,.54-1.11,2.74,2.74,0,0,1,.92-.78A2.79,2.79,0,0,1,141.83,199.34Zm2.09,3a3,3,0,0,0-.16-.85,2.45,2.45,0,0,0-.41-.75,2.07,2.07,0,0,0-.65-.54,1.84,1.84,0,0,0-.88-.21,1.84,1.84,0,0,0-1.5.7,2.7,2.7,0,0,0-.42.75,4.3,4.3,0,0,0-.23.9Z"/><path class="cls-9" d="M151.3,204.31a1.68,1.68,0,0,1-.22.88,1.89,1.89,0,0,1-.59.62,2.74,2.74,0,0,1-.84.36,4,4,0,0,1-1,.12,3.66,3.66,0,0,1-1.07-.14,2.4,2.4,0,0,1-.8-.41,2,2,0,0,1-.53-.64,2.41,2.41,0,0,1-.25-.85h.81a1.7,1.7,0,0,0,.2.56,1.41,1.41,0,0,0,.38.43,1.8,1.8,0,0,0,.57.28,2.56,2.56,0,0,0,.74.1,3,3,0,0,0,.6-.06,2.05,2.05,0,0,0,.58-.21,1.35,1.35,0,0,0,.44-.38,1,1,0,0,0,.18-.59.93.93,0,0,0-.34-.73,2.6,2.6,0,0,0-1.13-.46l-1-.22a4,4,0,0,1-.77-.24,2.1,2.1,0,0,1-.58-.37,1.45,1.45,0,0,1-.36-.5,1.62,1.62,0,0,1-.12-.65,1.56,1.56,0,0,1,.21-.83,1.78,1.78,0,0,1,.56-.57,2.53,2.53,0,0,1,.78-.33,3.77,3.77,0,0,1,.89-.11,3.27,3.27,0,0,1,.92.12,2.29,2.29,0,0,1,.73.36,1.83,1.83,0,0,1,.5.57,2.07,2.07,0,0,1,.25.78h-.8a1.32,1.32,0,0,0-.19-.5,1.24,1.24,0,0,0-.36-.37,1.69,1.69,0,0,0-.5-.22,2.36,2.36,0,0,0-.61-.08,2.85,2.85,0,0,0-.58.06,1.59,1.59,0,0,0-.51.19,1.07,1.07,0,0,0-.36.35,1,1,0,0,0-.13.53.74.74,0,0,0,.13.44,1.27,1.27,0,0,0,.33.32,1.93,1.93,0,0,0,.44.22,3.63,3.63,0,0,0,.46.13l1.37.3a2.85,2.85,0,0,1,.59.21,1.77,1.77,0,0,1,.5.35,1.64,1.64,0,0,1,.34.51A1.71,1.71,0,0,1,151.3,204.31Z"/><path class="cls-9" d="M155.77,199.34a3.46,3.46,0,0,1,1,.13,2.53,2.53,0,0,1,.78.38,2,2,0,0,1,.56.61,2.3,2.3,0,0,1,.29.82h-.8a1.73,1.73,0,0,0-.22-.52,1.49,1.49,0,0,0-.37-.4,1.7,1.7,0,0,0-.53-.26,2.34,2.34,0,0,0-.68-.09,2,2,0,0,0-1,.23,2.19,2.19,0,0,0-.72.63,2.91,2.91,0,0,0-.44.9,3.58,3.58,0,0,0-.15,1,3.67,3.67,0,0,0,.14,1,2.88,2.88,0,0,0,.42.9,2.26,2.26,0,0,0,.71.65,2,2,0,0,0,1,.25,1.93,1.93,0,0,0,.71-.12,1.88,1.88,0,0,0,.56-.34,1.79,1.79,0,0,0,.39-.49,1.88,1.88,0,0,0,.21-.58h.8a3,3,0,0,1-.29.85,2.49,2.49,0,0,1-.55.7,2.54,2.54,0,0,1-.8.48,2.88,2.88,0,0,1-1,.18,3,3,0,0,1-1.29-.27,2.85,2.85,0,0,1-1-.74,3.28,3.28,0,0,1-.61-1.1,4.47,4.47,0,0,1,0-2.67,3.31,3.31,0,0,1,.59-1.11,2.9,2.9,0,0,1,1-.77A3,3,0,0,1,155.77,199.34Z"/><path class="cls-9" d="M160.21,206.09v-6.56H161v1.54h0a2.56,2.56,0,0,1,.9-1.2,2.32,2.32,0,0,1,1.38-.43h.29v.8h-.18a2.22,2.22,0,0,0-1.71.69,2.36,2.36,0,0,0-.64,1.69v3.48Z"/><path class="cls-9" d="M165.66,196.66v1.29h-.8v-1.29Zm0,2.87v6.56h-.8v-6.56Z"/><path class="cls-9" d="M173.93,202.81a4.78,4.78,0,0,1-.17,1.28,3.38,3.38,0,0,1-.53,1.11,2.69,2.69,0,0,1-.92.79,3,3,0,0,1-2,.21,2.46,2.46,0,0,1-.65-.27,2.29,2.29,0,0,1-.54-.45,2.21,2.21,0,0,1-.38-.63h0v3.67h-.8v-9h.74v1.25h0a2.24,2.24,0,0,1,.39-.61,2.29,2.29,0,0,1,.55-.45,2.67,2.67,0,0,1,.67-.28,2.82,2.82,0,0,1,.74-.1,2.85,2.85,0,0,1,1.29.28,2.64,2.64,0,0,1,.92.75,3.33,3.33,0,0,1,.56,1.11A4.66,4.66,0,0,1,173.93,202.81Zm-.8,0a4.48,4.48,0,0,0-.11-1,2.84,2.84,0,0,0-.37-.9,2.07,2.07,0,0,0-.67-.66,1.9,1.9,0,0,0-1-.26,2.09,2.09,0,0,0-1.7.7,3.21,3.21,0,0,0-.58,2.09,4.21,4.21,0,0,0,.13,1,2.68,2.68,0,0,0,.4.9,2.09,2.09,0,0,0,.71.63,2.16,2.16,0,0,0,1.06.24,1.87,1.87,0,0,0,1-.24,2,2,0,0,0,.67-.63,2.87,2.87,0,0,0,.39-.9A4.14,4.14,0,0,0,173.13,202.81Z"/><path class="cls-9" d="M178.44,206.15h-.66a3,3,0,0,1-.68-.06,1,1,0,0,1-.45-.22.9.9,0,0,1-.25-.43,2.65,2.65,0,0,1-.07-.68V200.2H175v-.67h1.32v-2h.8v2h1.5v.67h-1.5v4.48a1.77,1.77,0,0,0,0,.34.63.63,0,0,0,.11.25.5.5,0,0,0,.21.16.87.87,0,0,0,.35.06h.6l.21,0v.68Z"/><path class="cls-9" d="M181.23,196.66v1.29h-.8v-1.29Zm0,2.87v6.56h-.8v-6.56Z"/><path class="cls-9" d="M189.25,202.81a4.29,4.29,0,0,1-.2,1.31,3.31,3.31,0,0,1-.61,1.13,2.9,2.9,0,0,1-2.29,1,2.84,2.84,0,0,1-2.24-1,4.07,4.07,0,0,1,0-5,3.08,3.08,0,0,1,4.51,0A3.65,3.65,0,0,1,189.25,202.81Zm-.8,0a3.8,3.8,0,0,0-.13-1,2.81,2.81,0,0,0-.42-.9,2.25,2.25,0,0,0-.72-.65,2,2,0,0,0-1-.25,2,2,0,0,0-1,.24,2.24,2.24,0,0,0-.72.64,2.85,2.85,0,0,0-.44.9,3.66,3.66,0,0,0-.15,1,3.58,3.58,0,0,0,.14,1,3,3,0,0,0,.43.9,2.24,2.24,0,0,0,.71.65,2.15,2.15,0,0,0,2,0,2.33,2.33,0,0,0,.72-.63,2.81,2.81,0,0,0,.45-.89A3.54,3.54,0,0,0,188.44,202.81Z"/><path class="cls-9" d="M194,199.34a3.34,3.34,0,0,1,1.08.16,1.83,1.83,0,0,1,.74.46,1.86,1.86,0,0,1,.43.77,3.79,3.79,0,0,1,.14,1.08v4.28h-.8v-4.15a2.2,2.2,0,0,0-.41-1.44,1.54,1.54,0,0,0-1.25-.49,2.07,2.07,0,0,0-.86.17,1.87,1.87,0,0,0-.65.48,2.16,2.16,0,0,0-.41.71,2.63,2.63,0,0,0-.14.88v3.84H191v-6.56h.8v1.14h0a2,2,0,0,1,.35-.56,2.18,2.18,0,0,1,.49-.42,2.33,2.33,0,0,1,.6-.26A2.48,2.48,0,0,1,194,199.34Z"/><path class="cls-9" d="M199.84,204.82v1.27h-1.11v-1.27Z"/><path class="cls-1" d="M37.44,177.34a6.75,6.75,0,1,1-6.75,6.75,6.76,6.76,0,0,1,6.75-6.75m0-1.25a8,8,0,1,0,8,8,8,8,0,0,0-8-8M40.22,188l1-1-2.78-2.78,2.78-2.78-1-1-2.78,2.78-2.78-2.78-1,1,2.78,2.78-2.78,2.78,1,1,2.78-2.78Z"/><rect class="cls-8" x="20" y="155" width="125" height="3"/><path class="cls-6" d="M34.94,263a4.08,4.08,0,0,1,1.06.13,2.82,2.82,0,0,1,.89.41,2.27,2.27,0,0,1,.64.68,2.3,2.3,0,0,1,.31.95H36.43a1.21,1.21,0,0,0-.47-.78,1.69,1.69,0,0,0-1-.27,1.53,1.53,0,0,0-.81.21,1.8,1.8,0,0,0-.57.54,2.44,2.44,0,0,0-.33.76,3.45,3.45,0,0,0-.11.86,3.49,3.49,0,0,0,.1.81,2.43,2.43,0,0,0,.32.75,1.78,1.78,0,0,0,.56.55,1.51,1.51,0,0,0,.82.21,1.81,1.81,0,0,0,.6-.09,1.48,1.48,0,0,0,.47-.26,1.39,1.39,0,0,0,.33-.41,1.76,1.76,0,0,0,.18-.53h1.4a3.08,3.08,0,0,1-.33,1,2.59,2.59,0,0,1-.62.76,2.78,2.78,0,0,1-.89.49,3.49,3.49,0,0,1-1.14.18,3.33,3.33,0,0,1-1.32-.25,3,3,0,0,1-1-.71,3.22,3.22,0,0,1-.67-1.08,3.83,3.83,0,0,1-.24-1.37,4.25,4.25,0,0,1,.21-1.36,3.31,3.31,0,0,1,.63-1.12,3,3,0,0,1,1-.77A3.33,3.33,0,0,1,34.94,263Z"/><path class="cls-6" d="M45.54,260.67v9.08H44.17v-1h0a2.08,2.08,0,0,1-.37.5,2.16,2.16,0,0,1-.49.37,2.44,2.44,0,0,1-.59.23,2.79,2.79,0,0,1-.67.08,2.72,2.72,0,0,1-1.28-.29,2.76,2.76,0,0,1-.92-.77,3.38,3.38,0,0,1-.56-1.12,4.69,4.69,0,0,1-.19-1.33,4.52,4.52,0,0,1,.18-1.26,3.35,3.35,0,0,1,.54-1.1,2.75,2.75,0,0,1,.91-.77,2.9,2.9,0,0,1,1.92-.22,2.49,2.49,0,0,1,.58.21,2.08,2.08,0,0,1,.49.36,2,2,0,0,1,.37.49h0v-3.47Zm-5,5.79a3.64,3.64,0,0,0,.1.82,2.44,2.44,0,0,0,.31.76,1.81,1.81,0,0,0,.56.56,1.5,1.5,0,0,0,.83.22,1.73,1.73,0,0,0,.79-.17,1.58,1.58,0,0,0,.57-.49,2.26,2.26,0,0,0,.35-.75,3.68,3.68,0,0,0,.12-1,3.72,3.72,0,0,0-.1-.84,2.3,2.3,0,0,0-.31-.75,1.72,1.72,0,0,0-.57-.54,1.64,1.64,0,0,0-.85-.21,1.56,1.56,0,0,0-.82.2,1.7,1.7,0,0,0-.55.53,2.35,2.35,0,0,0-.32.75A3.92,3.92,0,0,0,40.52,266.46Z"/><path class="cls-6" d="M53.86,266.46a4.86,4.86,0,0,1-.17,1.28,3.47,3.47,0,0,1-.52,1.11,2.65,2.65,0,0,1-.88.79,2.51,2.51,0,0,1-1.25.29,2.93,2.93,0,0,1-1.36-.3,1.9,1.9,0,0,1-.86-.87h0v1H47.44v-9.08h1.44v3.47h0a1.88,1.88,0,0,1,.36-.47,2.16,2.16,0,0,1,.5-.36,2.67,2.67,0,0,1,.61-.22,2.85,2.85,0,0,1,.68-.08,2.52,2.52,0,0,1,1.24.29,2.66,2.66,0,0,1,.88.78,3.4,3.4,0,0,1,.52,1.11A4.87,4.87,0,0,1,53.86,266.46Zm-1.45,0a3.73,3.73,0,0,0-.09-.82,2.52,2.52,0,0,0-.3-.76,1.72,1.72,0,0,0-.54-.56,1.5,1.5,0,0,0-.83-.22,1.57,1.57,0,0,0-.82.21,1.71,1.71,0,0,0-.56.54,2.39,2.39,0,0,0-.32.75,3.63,3.63,0,0,0-.1.86,3.69,3.69,0,0,0,.1.83,2.37,2.37,0,0,0,.31.76,1.76,1.76,0,0,0,.56.55,1.57,1.57,0,0,0,.84.21,1.49,1.49,0,0,0,.8-.21,1.69,1.69,0,0,0,.54-.54,2.43,2.43,0,0,0,.31-.75A3.94,3.94,0,0,0,52.42,266.47Z"/><path class="cls-6" d="M60.91,267.77a2,2,0,0,1-.23,1,2,2,0,0,1-.61.68,2.7,2.7,0,0,1-.91.39,4.79,4.79,0,0,1-1.12.13,4.56,4.56,0,0,1-1.08-.12,2.74,2.74,0,0,1-.89-.38,2.14,2.14,0,0,1-.63-.65,2.21,2.21,0,0,1-.3-.94h1.39a1.14,1.14,0,0,0,.51.8,1.51,1.51,0,0,0,.46.2,2.2,2.2,0,0,0,.56.07,2.4,2.4,0,0,0,.53-.06,1.46,1.46,0,0,0,.45-.18,1,1,0,0,0,.32-.31.79.79,0,0,0,.12-.44.61.61,0,0,0-.1-.35.9.9,0,0,0-.27-.26,1.81,1.81,0,0,0-.4-.19l-.47-.13-.93-.22a6,6,0,0,1-.91-.28,2.37,2.37,0,0,1-.63-.37,1.33,1.33,0,0,1-.37-.49,1.57,1.57,0,0,1-.12-.63,1.77,1.77,0,0,1,.21-.89,1.84,1.84,0,0,1,.58-.63,2.69,2.69,0,0,1,.87-.37A4.46,4.46,0,0,1,58,263a3.88,3.88,0,0,1,1.06.13,2.61,2.61,0,0,1,.82.38,1.91,1.91,0,0,1,.54.6,1.94,1.94,0,0,1,.25.77H59.3a1,1,0,0,0-.45-.65,1.65,1.65,0,0,0-.91-.23,2.3,2.3,0,0,0-.47,0,1.27,1.27,0,0,0-.39.14.77.77,0,0,0-.26.25.65.65,0,0,0-.1.36.6.6,0,0,0,.1.35.91.91,0,0,0,.26.25,1.47,1.47,0,0,0,.35.16l.37.1,1.38.33a4.37,4.37,0,0,1,.68.22,2,2,0,0,1,.54.34,1.47,1.47,0,0,1,.37.5A1.84,1.84,0,0,1,60.91,267.77Z"/><path class="cls-6" d="M64.08,270.24a2.72,2.72,0,0,1-.13.89,1.31,1.31,0,0,1-.38.58,1.5,1.5,0,0,1-.63.31,3.73,3.73,0,0,1-.88.09h-.33l-.33,0v-1.19l.22,0h.23a.85.85,0,0,0,.61-.17.68.68,0,0,0,.18-.51v-7.05h1.45Zm-1.45-8.5v-1.42h1.45v1.42Z"/><path class="cls-6" d="M72.17,269.75l-.44.09-.39,0a1.79,1.79,0,0,1-.42,0,.9.9,0,0,1-.34-.15.84.84,0,0,1-.24-.29,1.28,1.28,0,0,1-.12-.45h0a2.67,2.67,0,0,1-.45.46,2.3,2.3,0,0,1-.52.31,3.32,3.32,0,0,1-1.31.24,2.42,2.42,0,0,1-1.62-.51,1.77,1.77,0,0,1-.6-1.45,1.7,1.7,0,0,1,.6-1.42,2.11,2.11,0,0,1,.58-.32,4.68,4.68,0,0,1,.73-.2c.26-.05.54-.09.82-.12l.87-.1.34-.07a.8.8,0,0,0,.27-.13.59.59,0,0,0,.17-.22.79.79,0,0,0,.06-.33,1,1,0,0,0-.31-.79,2.11,2.11,0,0,0-2.05,0,1,1,0,0,0-.39.73H65.92a2,2,0,0,1,.28-.9,2,2,0,0,1,.62-.62,2.88,2.88,0,0,1,.9-.36,5.08,5.08,0,0,1,1.13-.12,3.42,3.42,0,0,1,2,.5,1.65,1.65,0,0,1,.67,1.41v3.54a.48.48,0,0,0,.08.3.33.33,0,0,0,.27.1H72l.13,0Zm-2-3.35h0a1,1,0,0,1-.54.23l-.48.08-.65.11a2.2,2.2,0,0,0-1,.37.86.86,0,0,0-.32.72.89.89,0,0,0,.37.76,1.48,1.48,0,0,0,.87.24,1.79,1.79,0,0,0,1.27-.43,1.59,1.59,0,0,0,.49-1.24Z"/><path class="cls-6" d="M76.12,263a2.35,2.35,0,0,1,1.2.3,2.12,2.12,0,0,1,.81.85h0v-1h1.39v6.17a3.43,3.43,0,0,1-.23,1.31,2.39,2.39,0,0,1-.65.92,2.71,2.71,0,0,1-1,.54,4.81,4.81,0,0,1-1.35.18,4.46,4.46,0,0,1-1-.11,2.93,2.93,0,0,1-.86-.33,2.12,2.12,0,0,1-.65-.59,1.76,1.76,0,0,1-.31-.87h1.44a1,1,0,0,0,.49.66,2,2,0,0,0,1,.22,1.64,1.64,0,0,0,1.28-.49,2,2,0,0,0,.44-1.4v-1h0a2,2,0,0,1-.82.84,2.47,2.47,0,0,1-1.22.3,2.92,2.92,0,0,1-1.26-.25,2.46,2.46,0,0,1-.88-.69,2.94,2.94,0,0,1-.52-1,4.7,4.7,0,0,1-.17-1.3,4.06,4.06,0,0,1,.18-1.21,3.1,3.1,0,0,1,.54-1,2.67,2.67,0,0,1,.9-.72A2.76,2.76,0,0,1,76.12,263Zm-1.42,3.25a3.41,3.41,0,0,0,.11.87,2,2,0,0,0,.32.68,1.48,1.48,0,0,0,.53.44,1.65,1.65,0,0,0,.74.16,1.58,1.58,0,0,0,.75-.17,1.71,1.71,0,0,0,.55-.46,2,2,0,0,0,.34-.66,2.64,2.64,0,0,0,.11-.78,3.5,3.5,0,0,0-.11-.88,2.08,2.08,0,0,0-.32-.71,1.53,1.53,0,0,0-.55-.47,1.68,1.68,0,0,0-.78-.17,1.57,1.57,0,0,0-.77.18,1.53,1.53,0,0,0-.53.48,2.15,2.15,0,0,0-.3.69A3.18,3.18,0,0,0,74.69,266.25Z"/><path class="cls-6" d="M87.66,260.67v9.08H86.28v-1h0a2.08,2.08,0,0,1-.37.5,2.16,2.16,0,0,1-.49.37,2.44,2.44,0,0,1-.59.23,2.79,2.79,0,0,1-.67.08,2.72,2.72,0,0,1-1.28-.29,2.76,2.76,0,0,1-.92-.77,3.38,3.38,0,0,1-.56-1.12,4.69,4.69,0,0,1-.19-1.33,4.52,4.52,0,0,1,.18-1.26,3.35,3.35,0,0,1,.54-1.1,2.75,2.75,0,0,1,.91-.77,2.9,2.9,0,0,1,1.92-.22,2.49,2.49,0,0,1,.58.21,2.08,2.08,0,0,1,.49.36,2,2,0,0,1,.37.49h0v-3.47Zm-5,5.79a3.64,3.64,0,0,0,.1.82A2.44,2.44,0,0,0,83,268a1.81,1.81,0,0,0,.56.56,1.5,1.5,0,0,0,.83.22,1.73,1.73,0,0,0,.79-.17,1.58,1.58,0,0,0,.57-.49,2.26,2.26,0,0,0,.35-.75,3.68,3.68,0,0,0,.12-1,3.72,3.72,0,0,0-.1-.84,2.3,2.3,0,0,0-.31-.75,1.72,1.72,0,0,0-.57-.54,1.64,1.64,0,0,0-.85-.21,1.56,1.56,0,0,0-.82.2,1.7,1.7,0,0,0-.55.53,2.35,2.35,0,0,0-.32.75A3.92,3.92,0,0,0,82.63,266.46Z"/><path class="cls-6" d="M92.14,263a2.35,2.35,0,0,1,1.2.3,2.12,2.12,0,0,1,.81.85h0v-1h1.39v6.17a3.43,3.43,0,0,1-.23,1.31,2.39,2.39,0,0,1-.65.92,2.71,2.71,0,0,1-1,.54,4.81,4.81,0,0,1-1.35.18,4.46,4.46,0,0,1-1-.11,2.93,2.93,0,0,1-.86-.33,2.12,2.12,0,0,1-.65-.59,1.76,1.76,0,0,1-.31-.87H91a1,1,0,0,0,.49.66,2,2,0,0,0,1,.22,1.64,1.64,0,0,0,1.28-.49,2,2,0,0,0,.44-1.4v-1h0a2,2,0,0,1-.82.84,2.47,2.47,0,0,1-1.22.3,2.92,2.92,0,0,1-1.26-.25,2.46,2.46,0,0,1-.88-.69,2.94,2.94,0,0,1-.52-1,4.7,4.7,0,0,1-.17-1.3,4.06,4.06,0,0,1,.18-1.21,3.1,3.1,0,0,1,.54-1,2.67,2.67,0,0,1,.9-.72A2.76,2.76,0,0,1,92.14,263Zm-1.42,3.25a3.41,3.41,0,0,0,.11.87,2,2,0,0,0,.32.68,1.48,1.48,0,0,0,.53.44,1.65,1.65,0,0,0,.74.16,1.58,1.58,0,0,0,.75-.17,1.71,1.71,0,0,0,.55-.46,2,2,0,0,0,.34-.66,2.64,2.64,0,0,0,.11-.78,3.5,3.5,0,0,0-.11-.88,2.08,2.08,0,0,0-.32-.71,1.53,1.53,0,0,0-.55-.47,1.68,1.68,0,0,0-.78-.17,1.57,1.57,0,0,0-.77.18,1.53,1.53,0,0,0-.53.48,2.15,2.15,0,0,0-.3.69A3.18,3.18,0,0,0,90.71,266.25Z"/><path class="cls-6" d="M99.46,264.2v5.55H98V264.2H96.73v-1H98v-.51a2,2,0,0,1,.52-1.52,1.64,1.64,0,0,1,.63-.36,3,3,0,0,1,.9-.12h.43l.52,0v1.11l-.18,0-.2,0h-.34a.86.86,0,0,0-.65.2,1,1,0,0,0-.18.68v.51h1.44v1Z"/><rect class="cls-8" x="20" y="280" width="125" height="3"/><rect class="cls-1" x="112" y="68" width="34" height="35"/><path class="cls-2" d="M145,69v33H113V69h32m1-1H112v35h34V68Z"/><rect class="cls-3" x="159" y="69" width="59" height="34"/><path class="cls-4" d="M217,102H159V69h58Zm1-34H158v35h60Z"/><line class="cls-5" x1="158" y1="102.5" x2="218" y2="102.5"/><path class="cls-6" d="M179.18,80.46a4.39,4.39,0,0,1,1.29.18,3.53,3.53,0,0,1,1.08.54,3.06,3.06,0,0,1,.79.87,3.26,3.26,0,0,1,.43,1.18h-1.45a1.87,1.87,0,0,0-.28-.64,1.91,1.91,0,0,0-.47-.47,2.1,2.1,0,0,0-.63-.29,2.73,2.73,0,0,0-.75-.1A2.52,2.52,0,0,0,178,82a2.4,2.4,0,0,0-.83.7,3,3,0,0,0-.49,1,4.73,4.73,0,0,0-.16,1.25,4.59,4.59,0,0,0,.15,1.17,3.05,3.05,0,0,0,.47,1,2.45,2.45,0,0,0,.83.72,2.48,2.48,0,0,0,1.21.28,2.78,2.78,0,0,0,1-.16,2,2,0,0,0,.73-.45,2.11,2.11,0,0,0,.48-.73,3,3,0,0,0,.21-1h-2.26V84.69h3.62v4.54h-1L181.76,88h0a2.93,2.93,0,0,1-1.12,1,3.22,3.22,0,0,1-1.49.33,4.13,4.13,0,0,1-1.7-.34,3.8,3.8,0,0,1-1.3-.94,4.2,4.2,0,0,1-.83-1.41A5.24,5.24,0,0,1,175,85a5.4,5.4,0,0,1,.28-1.75,4.22,4.22,0,0,1,.81-1.43,3.85,3.85,0,0,1,1.31-1A4.14,4.14,0,0,1,179.18,80.46Z"/><path class="cls-6" d="M184.7,89.23V82.65h1.37V84h0A2.4,2.4,0,0,1,187,82.9a2.23,2.23,0,0,1,1.29-.39h.21l.2,0v1.36l-.25,0h-.28a1.84,1.84,0,0,0-1.48.6,2.36,2.36,0,0,0-.51,1.57v3.18Z"/><path class="cls-6" d="M191.27,79.79v1.42h-1.45V79.79Zm0,2.86v6.57h-1.45V82.65Z"/><path class="cls-6" d="M199.36,80.14v9.08H198v-1h0a2.07,2.07,0,0,1-.37.49,2.16,2.16,0,0,1-.49.37,2.44,2.44,0,0,1-.59.23,2.79,2.79,0,0,1-.67.08,2.72,2.72,0,0,1-1.28-.29,2.76,2.76,0,0,1-.92-.77,3.38,3.38,0,0,1-.56-1.12,4.68,4.68,0,0,1-.19-1.33,4.53,4.53,0,0,1,.18-1.26,3.34,3.34,0,0,1,.54-1.1,2.75,2.75,0,0,1,.91-.77,2.92,2.92,0,0,1,1.92-.22,2.49,2.49,0,0,1,.58.21,2,2,0,0,1,.86.85h0V80.14Zm-5,5.79a3.62,3.62,0,0,0,.1.82,2.44,2.44,0,0,0,.31.76,1.81,1.81,0,0,0,.56.56,1.5,1.5,0,0,0,.83.22,1.73,1.73,0,0,0,.79-.17,1.58,1.58,0,0,0,.57-.49,2.25,2.25,0,0,0,.35-.75,3.68,3.68,0,0,0,.12-1,3.74,3.74,0,0,0-.1-.84,2.3,2.3,0,0,0-.31-.75,1.72,1.72,0,0,0-.57-.54,1.64,1.64,0,0,0-.85-.21,1.56,1.56,0,0,0-.82.2,1.7,1.7,0,0,0-.55.53,2.35,2.35,0,0,0-.32.75A3.93,3.93,0,0,0,194.34,85.93Z"/><rect class="cls-3" x="159" y="124" width="59" height="34"/><path class="cls-4" d="M217,157H159V124h58Zm1-34H158v35h60Z"/><line class="cls-5" x1="158" y1="157.5" x2="218" y2="157.5"/><path class="cls-6" d="M179.18,135.46a4.39,4.39,0,0,1,1.29.18,3.53,3.53,0,0,1,1.08.54,3.06,3.06,0,0,1,.79.87,3.26,3.26,0,0,1,.43,1.18h-1.45a1.87,1.87,0,0,0-.28-.64,1.91,1.91,0,0,0-.47-.47,2.1,2.1,0,0,0-.63-.29,2.73,2.73,0,0,0-.75-.1A2.52,2.52,0,0,0,178,137a2.4,2.4,0,0,0-.83.7,3,3,0,0,0-.49,1,4.73,4.73,0,0,0-.16,1.25,4.59,4.59,0,0,0,.15,1.17,3.05,3.05,0,0,0,.47,1,2.45,2.45,0,0,0,.83.72,2.48,2.48,0,0,0,1.21.28,2.78,2.78,0,0,0,1-.16,2,2,0,0,0,.73-.45,2.11,2.11,0,0,0,.48-.73,3,3,0,0,0,.21-1h-2.26v-1.15h3.62v4.54h-1l-.16-1.18h0a2.93,2.93,0,0,1-1.12,1,3.22,3.22,0,0,1-1.49.33,4.13,4.13,0,0,1-1.7-.34,3.8,3.8,0,0,1-1.3-.94,4.2,4.2,0,0,1-.83-1.41A5.24,5.24,0,0,1,175,140a5.4,5.4,0,0,1,.28-1.75,4.22,4.22,0,0,1,.81-1.43,3.85,3.85,0,0,1,1.31-1A4.14,4.14,0,0,1,179.18,135.46Z"/><path class="cls-6" d="M184.7,144.23v-6.57h1.37V139h0a2.4,2.4,0,0,1,.87-1.08,2.23,2.23,0,0,1,1.29-.39h.21l.2,0v1.36l-.25,0h-.28a1.84,1.84,0,0,0-1.48.6,2.36,2.36,0,0,0-.51,1.57v3.18Z"/><path class="cls-6" d="M191.27,134.79v1.42h-1.45v-1.42Zm0,2.86v6.57h-1.45v-6.57Z"/><path class="cls-6" d="M199.36,135.14v9.08H198v-1h0a2.07,2.07,0,0,1-.37.49,2.16,2.16,0,0,1-.49.37,2.44,2.44,0,0,1-.59.23,2.79,2.79,0,0,1-.67.08,2.72,2.72,0,0,1-1.28-.29,2.76,2.76,0,0,1-.92-.77,3.38,3.38,0,0,1-.56-1.12,4.68,4.68,0,0,1-.19-1.33,4.53,4.53,0,0,1,.18-1.26,3.34,3.34,0,0,1,.54-1.1,2.75,2.75,0,0,1,.91-.77,2.92,2.92,0,0,1,1.92-.22,2.49,2.49,0,0,1,.58.21,2,2,0,0,1,.86.85h0v-3.47Zm-5,5.79a3.62,3.62,0,0,0,.1.82,2.44,2.44,0,0,0,.31.76,1.81,1.81,0,0,0,.56.56,1.5,1.5,0,0,0,.83.22,1.73,1.73,0,0,0,.79-.17,1.58,1.58,0,0,0,.57-.49,2.25,2.25,0,0,0,.35-.75,3.68,3.68,0,0,0,.12-1,3.74,3.74,0,0,0-.1-.84,2.3,2.3,0,0,0-.31-.75,1.72,1.72,0,0,0-.57-.54,1.64,1.64,0,0,0-.85-.21,1.56,1.56,0,0,0-.82.2,1.7,1.7,0,0,0-.55.53,2.35,2.35,0,0,0-.32.75A3.93,3.93,0,0,0,194.34,140.93Z"/><rect class="cls-3" x="159" y="250" width="59" height="34"/><path class="cls-4" d="M217,283H159V250h58Zm1-34H158v35h60Z"/><line class="cls-5" x1="158" y1="283.5" x2="218" y2="283.5"/><path class="cls-6" d="M179.18,261.46a4.39,4.39,0,0,1,1.29.18,3.53,3.53,0,0,1,1.08.54,3.06,3.06,0,0,1,.79.87,3.26,3.26,0,0,1,.43,1.18h-1.45a1.87,1.87,0,0,0-.28-.64,1.91,1.91,0,0,0-.47-.47,2.1,2.1,0,0,0-.63-.29,2.73,2.73,0,0,0-.75-.1A2.52,2.52,0,0,0,178,263a2.4,2.4,0,0,0-.83.7,3,3,0,0,0-.49,1,4.73,4.73,0,0,0-.16,1.25,4.59,4.59,0,0,0,.15,1.17,3.05,3.05,0,0,0,.47,1,2.45,2.45,0,0,0,.83.72,2.48,2.48,0,0,0,1.21.28,2.78,2.78,0,0,0,1-.16,2,2,0,0,0,.73-.45,2.11,2.11,0,0,0,.48-.73,3,3,0,0,0,.21-1h-2.26v-1.15h3.62v4.54h-1l-.16-1.18h0a2.93,2.93,0,0,1-1.12,1,3.22,3.22,0,0,1-1.49.33,4.13,4.13,0,0,1-1.7-.34,3.8,3.8,0,0,1-1.3-.94,4.2,4.2,0,0,1-.83-1.41A5.24,5.24,0,0,1,175,266a5.4,5.4,0,0,1,.28-1.75,4.22,4.22,0,0,1,.81-1.43,3.85,3.85,0,0,1,1.31-1A4.14,4.14,0,0,1,179.18,261.46Z"/><path class="cls-6" d="M184.7,270.23v-6.57h1.37V265h0a2.4,2.4,0,0,1,.87-1.08,2.23,2.23,0,0,1,1.29-.39h.21l.2,0v1.36l-.25,0h-.28a1.84,1.84,0,0,0-1.48.6,2.36,2.36,0,0,0-.51,1.57v3.18Z"/><path class="cls-6" d="M191.27,260.79v1.42h-1.45v-1.42Zm0,2.86v6.57h-1.45v-6.57Z"/><path class="cls-6" d="M199.36,261.14v9.08H198v-1h0a2.07,2.07,0,0,1-.37.49,2.16,2.16,0,0,1-.49.37,2.44,2.44,0,0,1-.59.23,2.79,2.79,0,0,1-.67.08,2.72,2.72,0,0,1-1.28-.29,2.76,2.76,0,0,1-.92-.77,3.38,3.38,0,0,1-.56-1.12,4.68,4.68,0,0,1-.19-1.33,4.53,4.53,0,0,1,.18-1.26,3.34,3.34,0,0,1,.54-1.1,2.75,2.75,0,0,1,.91-.77,2.92,2.92,0,0,1,1.92-.22,2.49,2.49,0,0,1,.58.21,2,2,0,0,1,.86.85h0v-3.47Zm-5,5.79a3.62,3.62,0,0,0,.1.82,2.44,2.44,0,0,0,.31.76,1.81,1.81,0,0,0,.56.56,1.5,1.5,0,0,0,.83.22,1.73,1.73,0,0,0,.79-.17,1.58,1.58,0,0,0,.57-.49,2.25,2.25,0,0,0,.35-.75,3.68,3.68,0,0,0,.12-1,3.74,3.74,0,0,0-.1-.84,2.3,2.3,0,0,0-.31-.75,1.72,1.72,0,0,0-.57-.54,1.64,1.64,0,0,0-.85-.21,1.56,1.56,0,0,0-.82.2,1.7,1.7,0,0,0-.55.53,2.35,2.35,0,0,0-.32.75A3.93,3.93,0,0,0,194.34,266.93Z"/><path class="cls-10" d="M134,23V22h-3v1h-4V22h-3v1h-2V37h14V23Zm-2,0h1v2h-1Zm-7,0h1v2h-1Zm10,13H123V27h12Z"/><rect class="cls-10" x="125" y="29" width="2" height="2"/><rect class="cls-10" x="128" y="29" width="2" height="2"/><rect class="cls-10" x="131" y="29" width="2" height="2"/><rect class="cls-10" x="128" y="32" width="2" height="2"/><rect class="cls-10" x="125" y="32" width="2" height="2"/><path class="cls-10" d="M134,79V78h-3v1h-4V78h-3v1h-2V93h14V79Zm-2,0h1v2h-1Zm-7,0h1v2h-1Zm10,13H123V83h12Z"/><rect class="cls-10" x="125" y="85" width="2" height="2"/><rect class="cls-10" x="128" y="85" width="2" height="2"/><rect class="cls-10" x="131" y="85" width="2" height="2"/><rect class="cls-10" x="128" y="88" width="2" height="2"/><rect class="cls-10" x="125" y="88" width="2" height="2"/><path class="cls-10" d="M134,134v-1h-3v1h-4v-1h-3v1h-2v14h14V134Zm-2,0h1v2h-1Zm-7,0h1v2h-1Zm10,13H123v-9h12Z"/><rect class="cls-10" x="125" y="140" width="2" height="2"/><rect class="cls-10" x="128" y="140" width="2" height="2"/><rect class="cls-10" x="131" y="140" width="2" height="2"/><rect class="cls-10" x="128" y="143" width="2" height="2"/><rect class="cls-10" x="125" y="143" width="2" height="2"/><path class="cls-10" d="M134,259v-1h-3v1h-4v-1h-3v1h-2v14h14V259Zm-2,0h1v2h-1Zm-7,0h1v2h-1Zm10,13H123v-9h12Z"/><rect class="cls-10" x="125" y="265" width="2" height="2"/><rect class="cls-10" x="128" y="265" width="2" height="2"/><rect class="cls-10" x="131" y="265" width="2" height="2"/><rect class="cls-10" x="128" y="268" width="2" height="2"/><rect class="cls-10" x="125" y="268" width="2" height="2"/></g></svg>