<svg xmlns="http://www.w3.org/2000/svg" viewBox="0 0 278 174"><defs><style>.cls-1{fill:#ff6c00;}.cls-2{fill:#464646;}.cls-3{fill:#fff;}.cls-4{fill:#6e6e6e;}.cls-11,.cls-5{fill:#3da8ff;}.cls-6{fill:none;}.cls-7{fill:#bebebe;}.cls-8{fill:#f5f5f5;}.cls-9{fill:#dcdcdc;}.cls-10,.cls-11{opacity:0.5;}</style></defs><title>Artboard 30</title><g id="Layer_1" data-name="Layer 1"><path class="cls-1" d="M80,10.32l5,7.25h0V10.32h.81v8.57h-.91l-5-7.25h0v7.25h-.82V10.32Z"/><path class="cls-1" d="M93.87,15.61a4.29,4.29,0,0,1-.2,1.31A3.31,3.31,0,0,1,93.06,18a2.9,2.9,0,0,1-2.29,1,2.84,2.84,0,0,1-2.24-1,3.65,3.65,0,0,1-.86-2.5,3.65,3.65,0,0,1,.85-2.49,3.08,3.08,0,0,1,4.51,0A3.65,3.65,0,0,1,93.87,15.61Zm-.8,0a3.8,3.8,0,0,0-.13-1,2.81,2.81,0,0,0-.42-.9,2.25,2.25,0,0,0-.72-.65,2,2,0,0,0-1-.25,2,2,0,0,0-1,.24,2.24,2.24,0,0,0-.72.64,2.85,2.85,0,0,0-.44.9,3.66,3.66,0,0,0-.15,1,3.58,3.58,0,0,0,.14,1,3,3,0,0,0,.43.9,2.24,2.24,0,0,0,.71.65,2,2,0,0,0,1,.25,2,2,0,0,0,1-.24,2.33,2.33,0,0,0,.72-.63,2.8,2.8,0,0,0,.45-.89A3.54,3.54,0,0,0,93.07,15.61Z"/><path class="cls-1" d="M95.67,18.89V12.33h.74v1.54h0a2.56,2.56,0,0,1,.9-1.2,2.32,2.32,0,0,1,1.38-.43H99V13h-.18a2.22,2.22,0,0,0-1.71.69,2.36,2.36,0,0,0-.64,1.69v3.48Z"/><path class="cls-1" d="M108.57,18.89V14.43a1.73,1.73,0,0,0-.37-1.22,1.85,1.85,0,0,0-2.5.21,2.8,2.8,0,0,0-.45,1.71v3.77h-.81V14.4a1.81,1.81,0,0,0-.34-1.17,1.25,1.25,0,0,0-1-.42,1.72,1.72,0,0,0-1.46.65,2.72,2.72,0,0,0-.5,1.71v3.72h-.8V12.33h.74v1.1h0a2.26,2.26,0,0,1,2.15-1.29,2.44,2.44,0,0,1,.64.08,1.86,1.86,0,0,1,.54.24,1.66,1.66,0,0,1,.42.4,1.86,1.86,0,0,1,.28.55,2.16,2.16,0,0,1,.85-1,2.4,2.4,0,0,1,1.24-.32,2.12,2.12,0,0,1,1.63.58,2.36,2.36,0,0,1,.54,1.66v4.51Z"/><path class="cls-1" d="M117.23,18.84l-.27,0h-.24a1.37,1.37,0,0,1-.44-.06.65.65,0,0,1-.29-.2.82.82,0,0,1-.16-.35,2.43,2.43,0,0,1,0-.53h0a3,3,0,0,1-1,1,2.79,2.79,0,0,1-1.35.29,2.46,2.46,0,0,1-1.6-.5,1.75,1.75,0,0,1-.6-1.43,1.66,1.66,0,0,1,.66-1.43,6.79,6.79,0,0,1,3-.69,2,2,0,0,0,.44-.08.75.75,0,0,0,.29-.16.6.6,0,0,0,.16-.26,1.28,1.28,0,0,0,0-.38,1.24,1.24,0,0,0-.4-1,2,2,0,0,0-1.31-.34,2.61,2.61,0,0,0-.72.09,1.65,1.65,0,0,0-.53.25,1.13,1.13,0,0,0-.33.39,1.23,1.23,0,0,0-.13.49h-.8a2,2,0,0,1,.22-.78,1.78,1.78,0,0,1,.51-.59,2.43,2.43,0,0,1,.81-.38,4,4,0,0,1,1.09-.13,2.64,2.64,0,0,1,1.83.54,2,2,0,0,1,.59,1.52v3.56a.47.47,0,0,0,.11.33.46.46,0,0,0,.36.12.7.7,0,0,0,.25,0Zm-1.52-3.54h0q-.12.22-.77.31l-.67.1-.74.12a2.67,2.67,0,0,0-1.17.44,1,1,0,0,0-.39.84,1.16,1.16,0,0,0,.43.94,1.6,1.6,0,0,0,1,.35,2.36,2.36,0,0,0,1.63-.58,1.85,1.85,0,0,0,.65-1.44Z"/><path class="cls-1" d="M119.49,9.81v9.08h-.8V9.81Z"/><path class="cls-1" d="M87.9,58.34v3.71H93V58.34h.81v8.55H93V62.74H87.9v4.15h-.82V58.34Z"/><path class="cls-1" d="M101.82,63.61a4.29,4.29,0,0,1-.2,1.31A3.31,3.31,0,0,1,101,66a2.9,2.9,0,0,1-2.29,1,2.84,2.84,0,0,1-2.24-1,4.07,4.07,0,0,1,0-5,3.08,3.08,0,0,1,4.51,0A3.65,3.65,0,0,1,101.82,63.61Zm-.8,0a3.8,3.8,0,0,0-.13-1,2.81,2.81,0,0,0-.42-.9,2.25,2.25,0,0,0-.72-.65,2,2,0,0,0-1-.25,2,2,0,0,0-1,.24,2.24,2.24,0,0,0-.72.64,2.85,2.85,0,0,0-.44.9,3.66,3.66,0,0,0-.15,1,3.58,3.58,0,0,0,.14,1,3,3,0,0,0,.43.9,2.24,2.24,0,0,0,.71.65,2,2,0,0,0,1,.25,2,2,0,0,0,1-.24,2.33,2.33,0,0,0,.72-.63,2.8,2.8,0,0,0,.45-.89A3.54,3.54,0,0,0,101,63.61Z"/><path class="cls-1" d="M103.65,60.33l2.06,5.76h0l2-5.76h.83l-2.46,6.56h-.85l-2.54-6.56Z"/><path class="cls-1" d="M112.5,60.14a2.71,2.71,0,0,1,1.3.29,2.6,2.6,0,0,1,.9.79,3.45,3.45,0,0,1,.52,1.13,5.21,5.21,0,0,1,.17,1.34v.13h-5.05a3.58,3.58,0,0,0,.13.94,2.59,2.59,0,0,0,.39.83,2,2,0,0,0,.66.59,1.92,1.92,0,0,0,.95.22,2.44,2.44,0,0,0,.7-.09,2,2,0,0,0,.56-.26,1.76,1.76,0,0,0,.42-.39,2.41,2.41,0,0,0,.29-.49h.79a3,3,0,0,1-.38.79,2.48,2.48,0,0,1-.59.6,2.68,2.68,0,0,1-.79.39,3.34,3.34,0,0,1-1,.14,2.94,2.94,0,0,1-1.3-.27,2.56,2.56,0,0,1-.91-.73,3.12,3.12,0,0,1-.54-1.1,5.14,5.14,0,0,1-.18-1.37,4.66,4.66,0,0,1,.18-1.28,3.36,3.36,0,0,1,.54-1.11,2.74,2.74,0,0,1,.92-.78A2.79,2.79,0,0,1,112.5,60.14Zm2.09,3a3,3,0,0,0-.16-.85,2.44,2.44,0,0,0-.41-.75,2.07,2.07,0,0,0-.65-.54,1.84,1.84,0,0,0-.88-.21,1.84,1.84,0,0,0-1.5.7,2.7,2.7,0,0,0-.42.75,4.31,4.31,0,0,0-.23.9Z"/><path class="cls-1" d="M117.06,66.89V60.33h.74v1.54h0a2.56,2.56,0,0,1,.9-1.2,2.32,2.32,0,0,1,1.38-.43h.29V61h-.18a2.22,2.22,0,0,0-1.71.69,2.36,2.36,0,0,0-.64,1.69v3.48Z"/><path class="cls-1" d="M73.1,106.32a4.11,4.11,0,0,1,3,1,5.51,5.51,0,0,1,0,6.52,4,4,0,0,1-2.89,1H70.25v-8.57Zm-.22,7.87a3.57,3.57,0,0,0,2.61-.83,3.76,3.76,0,0,0,.84-2.75,3.82,3.82,0,0,0-.82-2.74,3.73,3.73,0,0,0-2.75-.84H71.07v7.17Z"/><path class="cls-1" d="M79.69,105.46v1.29h-.8v-1.29Zm0,2.87v6.56h-.8v-6.56Z"/><path class="cls-1" d="M86.81,113.11a1.67,1.67,0,0,1-.22.88,1.89,1.89,0,0,1-.59.62,2.74,2.74,0,0,1-.84.36,4,4,0,0,1-1,.12,3.66,3.66,0,0,1-1.07-.14,2.4,2.4,0,0,1-.8-.41,2,2,0,0,1-.53-.64,2.4,2.4,0,0,1-.25-.85h.81a1.7,1.7,0,0,0,.2.56,1.41,1.41,0,0,0,.38.43,1.8,1.8,0,0,0,.57.28,2.56,2.56,0,0,0,.74.1,3,3,0,0,0,.6-.06,2.05,2.05,0,0,0,.58-.21,1.35,1.35,0,0,0,.44-.38,1,1,0,0,0,.18-.59.93.93,0,0,0-.34-.73,2.6,2.6,0,0,0-1.13-.46l-1-.22a4,4,0,0,1-.77-.24,2.1,2.1,0,0,1-.58-.37,1.46,1.46,0,0,1-.36-.5,1.62,1.62,0,0,1-.12-.65,1.57,1.57,0,0,1,.21-.83,1.78,1.78,0,0,1,.56-.57,2.53,2.53,0,0,1,.78-.33,3.77,3.77,0,0,1,.89-.11,3.27,3.27,0,0,1,.92.12,2.29,2.29,0,0,1,.73.35,1.83,1.83,0,0,1,.5.57,2.08,2.08,0,0,1,.25.78h-.8a1.32,1.32,0,0,0-.19-.5,1.24,1.24,0,0,0-.36-.37,1.69,1.69,0,0,0-.5-.22,2.36,2.36,0,0,0-.61-.08,2.85,2.85,0,0,0-.58.06,1.59,1.59,0,0,0-.51.19,1.07,1.07,0,0,0-.36.35,1,1,0,0,0-.13.53.74.74,0,0,0,.13.44,1.27,1.27,0,0,0,.33.32,1.93,1.93,0,0,0,.44.22,3.64,3.64,0,0,0,.46.13l1.37.3a2.85,2.85,0,0,1,.59.21,1.77,1.77,0,0,1,.5.35,1.64,1.64,0,0,1,.34.51A1.71,1.71,0,0,1,86.81,113.11Z"/><path class="cls-1" d="M94.24,114.84l-.27,0h-.24a1.37,1.37,0,0,1-.44-.06.65.65,0,0,1-.29-.2.82.82,0,0,1-.16-.35,2.43,2.43,0,0,1,0-.53h0a3,3,0,0,1-1,1,2.79,2.79,0,0,1-1.35.29,2.46,2.46,0,0,1-1.6-.5,1.75,1.75,0,0,1-.6-1.43,1.66,1.66,0,0,1,.66-1.43,6.79,6.79,0,0,1,3-.69,2,2,0,0,0,.44-.08.75.75,0,0,0,.29-.16.6.6,0,0,0,.16-.26,1.28,1.28,0,0,0,0-.38,1.24,1.24,0,0,0-.4-1,2,2,0,0,0-1.31-.34,2.61,2.61,0,0,0-.72.09,1.65,1.65,0,0,0-.53.25,1.13,1.13,0,0,0-.33.39,1.23,1.23,0,0,0-.13.49h-.8a2,2,0,0,1,.22-.78,1.78,1.78,0,0,1,.51-.59,2.43,2.43,0,0,1,.81-.38,4,4,0,0,1,1.09-.13,2.64,2.64,0,0,1,1.83.54,2,2,0,0,1,.59,1.52v3.56a.47.47,0,0,0,.11.33.46.46,0,0,0,.36.12.7.7,0,0,0,.25,0Zm-1.52-3.54h0q-.12.22-.77.31l-.67.1-.74.12a2.67,2.67,0,0,0-1.17.44,1,1,0,0,0-.39.84,1.16,1.16,0,0,0,.43.94,1.6,1.6,0,0,0,1,.35,2.36,2.36,0,0,0,1.63-.58,1.85,1.85,0,0,0,.65-1.44Z"/><path class="cls-1" d="M101.73,111.61a4.77,4.77,0,0,1-.17,1.28A3.38,3.38,0,0,1,101,114a2.69,2.69,0,0,1-.92.79,2.8,2.8,0,0,1-1.33.3,2.9,2.9,0,0,1-.72-.09,2.59,2.59,0,0,1-.66-.27,2.34,2.34,0,0,1-.55-.45,2.18,2.18,0,0,1-.4-.63h0v1.25h-.74v-9.08h.8v3.77h0a2,2,0,0,1,.36-.61,2.25,2.25,0,0,1,.54-.45,2.5,2.5,0,0,1,.66-.28,3,3,0,0,1,2,.18,2.62,2.62,0,0,1,.91.75,3.34,3.34,0,0,1,.55,1.1A5,5,0,0,1,101.73,111.61Zm-.8,0a4.39,4.39,0,0,0,0-.65,3.54,3.54,0,0,0-.16-.64,2.89,2.89,0,0,0-.28-.59,2.08,2.08,0,0,0-.41-.48,1.83,1.83,0,0,0-.55-.32,2,2,0,0,0-.71-.12,2.05,2.05,0,0,0-1.73.85,2.72,2.72,0,0,0-.42.89,3.94,3.94,0,0,0-.14,1.06,4.21,4.21,0,0,0,.13,1,2.67,2.67,0,0,0,.4.9,2.08,2.08,0,0,0,.71.63,2.18,2.18,0,0,0,1.06.24,1.88,1.88,0,0,0,1-.23,2,2,0,0,0,.66-.63,2.9,2.9,0,0,0,.38-.89A4.91,4.91,0,0,0,100.93,111.61Z"/><path class="cls-1" d="M104.42,105.81v9.08h-.8v-9.08Z"/><path class="cls-1" d="M109.2,108.14a2.71,2.71,0,0,1,1.3.29,2.6,2.6,0,0,1,.9.79,3.45,3.45,0,0,1,.52,1.13,5.21,5.21,0,0,1,.17,1.34v.13H107a3.58,3.58,0,0,0,.13.94,2.59,2.59,0,0,0,.39.83,2,2,0,0,0,.66.59,1.92,1.92,0,0,0,.95.22,2.44,2.44,0,0,0,.7-.09,2,2,0,0,0,.56-.26,1.76,1.76,0,0,0,.42-.39,2.41,2.41,0,0,0,.29-.49h.79a3,3,0,0,1-.38.79,2.48,2.48,0,0,1-.59.6,2.68,2.68,0,0,1-.79.39,3.34,3.34,0,0,1-1,.14,2.94,2.94,0,0,1-1.3-.27,2.56,2.56,0,0,1-.91-.73,3.12,3.12,0,0,1-.54-1.1,5.14,5.14,0,0,1-.18-1.37,4.66,4.66,0,0,1,.18-1.28,3.36,3.36,0,0,1,.54-1.11,2.74,2.74,0,0,1,.92-.78A2.79,2.79,0,0,1,109.2,108.14Zm2.09,3a3,3,0,0,0-.16-.85,2.44,2.44,0,0,0-.41-.75,2.07,2.07,0,0,0-.65-.54,1.84,1.84,0,0,0-.88-.21,1.84,1.84,0,0,0-1.5.7,2.7,2.7,0,0,0-.42.75,4.31,4.31,0,0,0-.23.9Z"/><path class="cls-1" d="M119.5,105.81v9.08h-.74v-1.25h0a2,2,0,0,1-.39.59,2.57,2.57,0,0,1-.56.45,2.8,2.8,0,0,1-.67.29,2.63,2.63,0,0,1-.72.1,2.8,2.8,0,0,1-1.28-.28,2.68,2.68,0,0,1-.92-.75,3.32,3.32,0,0,1-.56-1.11,4.68,4.68,0,0,1-.19-1.34,4.83,4.83,0,0,1,.17-1.29,3.31,3.31,0,0,1,.53-1.11,2.69,2.69,0,0,1,.92-.78,3,3,0,0,1,2-.2,2.56,2.56,0,0,1,.65.27,2.25,2.25,0,0,1,.54.45,2.07,2.07,0,0,1,.38.63h0v-3.77Zm-5.26,5.8a4.17,4.17,0,0,0,.05.65,3.7,3.7,0,0,0,.16.64,2.82,2.82,0,0,0,.28.58,2.15,2.15,0,0,0,.41.48,1.8,1.8,0,0,0,.55.32,2,2,0,0,0,.7.12,2.08,2.08,0,0,0,1.73-.84,2.66,2.66,0,0,0,.43-.89,4,4,0,0,0,.14-1.06,4,4,0,0,0-.13-1,2.73,2.73,0,0,0-.41-.9,2.06,2.06,0,0,0-1.76-.88,1.94,1.94,0,0,0-.68.11,1.8,1.8,0,0,0-.54.31,2.15,2.15,0,0,0-.41.47,2.8,2.8,0,0,0-.29.58,3.52,3.52,0,0,0-.17.65A4.25,4.25,0,0,0,114.24,111.61Z"/><path class="cls-1" d="M6.25,154.32v8.57H5.43v-8.57Z"/><path class="cls-1" d="M11.45,156.14a3.35,3.35,0,0,1,1.08.16,1.83,1.83,0,0,1,.74.46,1.87,1.87,0,0,1,.43.77,3.79,3.79,0,0,1,.14,1.08v4.28H13v-4.15a2.2,2.2,0,0,0-.41-1.44,1.54,1.54,0,0,0-1.25-.49,2.07,2.07,0,0,0-.86.17,1.88,1.88,0,0,0-.65.48,2.16,2.16,0,0,0-.41.71,2.63,2.63,0,0,0-.14.88v3.84h-.8v-6.56h.8v1.14h0a2,2,0,0,1,.35-.56,2.18,2.18,0,0,1,.49-.42,2.33,2.33,0,0,1,.6-.26A2.48,2.48,0,0,1,11.45,156.14Z"/><path class="cls-1" d="M21.75,153.81v9.08H21v-1.25h0a2,2,0,0,1-.39.59,2.57,2.57,0,0,1-.56.45,2.8,2.8,0,0,1-.67.29,2.63,2.63,0,0,1-.72.1,2.8,2.8,0,0,1-1.28-.28,2.68,2.68,0,0,1-.92-.75,3.32,3.32,0,0,1-.56-1.11,4.68,4.68,0,0,1-.19-1.34,4.83,4.83,0,0,1,.17-1.29,3.31,3.31,0,0,1,.53-1.11,2.69,2.69,0,0,1,.92-.78,3,3,0,0,1,2-.2,2.56,2.56,0,0,1,.65.27,2.25,2.25,0,0,1,.54.45,2.07,2.07,0,0,1,.38.63h0v-3.77Zm-5.26,5.8a4.17,4.17,0,0,0,.05.65,3.7,3.7,0,0,0,.16.64,2.82,2.82,0,0,0,.28.58,2.15,2.15,0,0,0,.41.48,1.8,1.8,0,0,0,.55.32,2,2,0,0,0,.7.12,2.08,2.08,0,0,0,1.73-.84,2.66,2.66,0,0,0,.43-.89,4,4,0,0,0,.14-1.06,4,4,0,0,0-.13-1,2.73,2.73,0,0,0-.41-.9,2.06,2.06,0,0,0-1.76-.88,1.94,1.94,0,0,0-.68.11,1.8,1.8,0,0,0-.54.31,2.15,2.15,0,0,0-.41.47,2.8,2.8,0,0,0-.29.58,3.52,3.52,0,0,0-.17.65A4.25,4.25,0,0,0,16.49,159.61Z"/><path class="cls-1" d="M26.53,156.14a2.71,2.71,0,0,1,1.3.29,2.6,2.6,0,0,1,.9.79,3.45,3.45,0,0,1,.52,1.13,5.21,5.21,0,0,1,.17,1.34v.13H24.36a3.58,3.58,0,0,0,.13.94,2.59,2.59,0,0,0,.39.83,2,2,0,0,0,.66.59,1.92,1.92,0,0,0,.95.22,2.44,2.44,0,0,0,.7-.09,2,2,0,0,0,.56-.26,1.76,1.76,0,0,0,.42-.39,2.41,2.41,0,0,0,.29-.49h.79a3,3,0,0,1-.38.79,2.48,2.48,0,0,1-.59.6,2.68,2.68,0,0,1-.79.39,3.34,3.34,0,0,1-1,.14,2.94,2.94,0,0,1-1.3-.27,2.56,2.56,0,0,1-.91-.73,3.12,3.12,0,0,1-.54-1.1,5.14,5.14,0,0,1-.18-1.37,4.66,4.66,0,0,1,.18-1.28,3.36,3.36,0,0,1,.54-1.11,2.74,2.74,0,0,1,.92-.78A2.79,2.79,0,0,1,26.53,156.14Zm2.09,3a3,3,0,0,0-.16-.85,2.44,2.44,0,0,0-.41-.75,2.07,2.07,0,0,0-.65-.54,1.84,1.84,0,0,0-.88-.21,1.84,1.84,0,0,0-1.5.7,2.7,2.7,0,0,0-.42.75,4.31,4.31,0,0,0-.23.9Z"/><path class="cls-1" d="M33.73,163h-.66a3,3,0,0,1-.68-.06,1,1,0,0,1-.45-.23.89.89,0,0,1-.25-.43,2.65,2.65,0,0,1-.07-.68V157H30.3v-.67h1.32v-2h.8v2h1.5V157h-1.5v4.48a1.76,1.76,0,0,0,0,.34.64.64,0,0,0,.11.25.5.5,0,0,0,.21.16.87.87,0,0,0,.35.06h.6l.21,0v.68Z"/><path class="cls-1" d="M38.27,156.14a2.71,2.71,0,0,1,1.3.29,2.6,2.6,0,0,1,.9.79,3.45,3.45,0,0,1,.52,1.13,5.21,5.21,0,0,1,.17,1.34v.13H36.11a3.58,3.58,0,0,0,.13.94,2.59,2.59,0,0,0,.39.83,2,2,0,0,0,.66.59,1.92,1.92,0,0,0,.95.22,2.44,2.44,0,0,0,.7-.09,2,2,0,0,0,.56-.26,1.76,1.76,0,0,0,.42-.39,2.41,2.41,0,0,0,.29-.49H41a3,3,0,0,1-.38.79,2.48,2.48,0,0,1-.59.6,2.68,2.68,0,0,1-.79.39,3.34,3.34,0,0,1-1,.14,2.94,2.94,0,0,1-1.3-.27,2.56,2.56,0,0,1-.91-.73,3.12,3.12,0,0,1-.54-1.1,5.14,5.14,0,0,1-.18-1.37,4.66,4.66,0,0,1,.18-1.28,3.36,3.36,0,0,1,.54-1.11,2.74,2.74,0,0,1,.92-.78A2.79,2.79,0,0,1,38.27,156.14Zm2.09,3a3,3,0,0,0-.16-.85,2.44,2.44,0,0,0-.41-.75,2.07,2.07,0,0,0-.65-.54,1.84,1.84,0,0,0-.88-.21,1.84,1.84,0,0,0-1.5.7,2.7,2.7,0,0,0-.42.75,4.31,4.31,0,0,0-.23.9Z"/><path class="cls-1" d="M42.83,162.89v-6.56h.74v1.54h0a2.56,2.56,0,0,1,.9-1.2,2.32,2.32,0,0,1,1.38-.43h.29v.8H46a2.22,2.22,0,0,0-1.71.69,2.36,2.36,0,0,0-.64,1.69v3.48Z"/><path class="cls-1" d="M55.73,162.89v-4.46a1.73,1.73,0,0,0-.37-1.22,1.85,1.85,0,0,0-2.5.21,2.8,2.8,0,0,0-.45,1.71v3.77H51.6V158.4a1.81,1.81,0,0,0-.34-1.17,1.25,1.25,0,0,0-1-.42,1.72,1.72,0,0,0-1.46.65,2.72,2.72,0,0,0-.5,1.71v3.72h-.8v-6.56h.74v1.1h0a2.26,2.26,0,0,1,2.15-1.29,2.44,2.44,0,0,1,.64.08,1.86,1.86,0,0,1,.54.24,1.66,1.66,0,0,1,.42.4,1.86,1.86,0,0,1,.28.55,2.16,2.16,0,0,1,.85-1,2.4,2.4,0,0,1,1.24-.32,2.12,2.12,0,0,1,1.63.58,2.36,2.36,0,0,1,.54,1.66v4.51Z"/><path class="cls-1" d="M59.55,153.46v1.29h-.8v-1.29Zm0,2.87v6.56h-.8v-6.56Z"/><path class="cls-1" d="M64.68,156.14a3.35,3.35,0,0,1,1.08.16,1.83,1.83,0,0,1,.74.46,1.87,1.87,0,0,1,.43.77,3.79,3.79,0,0,1,.14,1.08v4.28h-.8v-4.15a2.2,2.2,0,0,0-.41-1.44,1.54,1.54,0,0,0-1.25-.49,2.07,2.07,0,0,0-.86.17,1.88,1.88,0,0,0-.65.48,2.16,2.16,0,0,0-.41.71,2.63,2.63,0,0,0-.14.88v3.84h-.8v-6.56h.8v1.14h0a2,2,0,0,1,.35-.56,2.18,2.18,0,0,1,.49-.42,2.33,2.33,0,0,1,.6-.26A2.48,2.48,0,0,1,64.68,156.14Z"/><path class="cls-1" d="M74.91,162.84l-.27,0H74.4a1.37,1.37,0,0,1-.44-.06.65.65,0,0,1-.29-.2.82.82,0,0,1-.16-.35,2.43,2.43,0,0,1,0-.53h0a3,3,0,0,1-1,1,2.79,2.79,0,0,1-1.35.29,2.46,2.46,0,0,1-1.6-.5,1.75,1.75,0,0,1-.6-1.43,1.66,1.66,0,0,1,.66-1.43,6.79,6.79,0,0,1,3-.69,2,2,0,0,0,.44-.08.75.75,0,0,0,.29-.16.6.6,0,0,0,.16-.26,1.28,1.28,0,0,0,0-.38,1.24,1.24,0,0,0-.4-1,2,2,0,0,0-1.31-.34,2.61,2.61,0,0,0-.72.09,1.65,1.65,0,0,0-.53.25,1.13,1.13,0,0,0-.33.39,1.23,1.23,0,0,0-.13.49h-.8a2,2,0,0,1,.22-.78,1.78,1.78,0,0,1,.51-.59,2.43,2.43,0,0,1,.81-.38,4,4,0,0,1,1.09-.13,2.64,2.64,0,0,1,1.83.54,2,2,0,0,1,.59,1.52v3.56a.47.47,0,0,0,.11.33.46.46,0,0,0,.36.12.7.7,0,0,0,.25,0Zm-1.52-3.54h0q-.12.22-.77.31l-.67.1-.74.12a2.67,2.67,0,0,0-1.17.44,1,1,0,0,0-.39.84,1.16,1.16,0,0,0,.43.94,1.6,1.6,0,0,0,1,.35,2.36,2.36,0,0,0,1.63-.58,1.85,1.85,0,0,0,.65-1.44Z"/><path class="cls-1" d="M79,163h-.66a3,3,0,0,1-.68-.06,1,1,0,0,1-.45-.23.89.89,0,0,1-.25-.43,2.65,2.65,0,0,1-.07-.68V157H75.56v-.67h1.32v-2h.8v2h1.5V157h-1.5v4.48a1.76,1.76,0,0,0,0,.34.64.64,0,0,0,.11.25.5.5,0,0,0,.21.16.87.87,0,0,0,.35.06H79l.21,0v.68Z"/><path class="cls-1" d="M83.53,156.14a2.71,2.71,0,0,1,1.3.29,2.6,2.6,0,0,1,.9.79,3.45,3.45,0,0,1,.52,1.13,5.21,5.21,0,0,1,.17,1.34v.13H81.36a3.58,3.58,0,0,0,.13.94,2.59,2.59,0,0,0,.39.83,2,2,0,0,0,.66.59,1.92,1.92,0,0,0,.95.22,2.44,2.44,0,0,0,.7-.09,2,2,0,0,0,.56-.26,1.76,1.76,0,0,0,.42-.39,2.41,2.41,0,0,0,.29-.49h.79a3,3,0,0,1-.38.79,2.48,2.48,0,0,1-.59.6,2.68,2.68,0,0,1-.79.39,3.34,3.34,0,0,1-1,.14,2.94,2.94,0,0,1-1.3-.27,2.56,2.56,0,0,1-.91-.73,3.12,3.12,0,0,1-.54-1.1,5.14,5.14,0,0,1-.18-1.37,4.66,4.66,0,0,1,.18-1.28,3.36,3.36,0,0,1,.54-1.11,2.74,2.74,0,0,1,.92-.78A2.79,2.79,0,0,1,83.53,156.14Zm2.09,3a3,3,0,0,0-.16-.85,2.44,2.44,0,0,0-.41-.75,2.07,2.07,0,0,0-.65-.54,1.84,1.84,0,0,0-.88-.21,1.84,1.84,0,0,0-1.5.7,2.7,2.7,0,0,0-.42.75,4.31,4.31,0,0,0-.23.9Z"/><path class="cls-1" d="M96.49,161.11a1.67,1.67,0,0,1-.22.88,1.89,1.89,0,0,1-.59.62,2.74,2.74,0,0,1-.84.36,4,4,0,0,1-1,.12,3.66,3.66,0,0,1-1.07-.14,2.4,2.4,0,0,1-.8-.41,2,2,0,0,1-.53-.64,2.4,2.4,0,0,1-.25-.85H92a1.7,1.7,0,0,0,.2.56,1.41,1.41,0,0,0,.38.43,1.8,1.8,0,0,0,.57.28,2.56,2.56,0,0,0,.74.1,3,3,0,0,0,.6-.06,2.05,2.05,0,0,0,.58-.21,1.35,1.35,0,0,0,.44-.38,1,1,0,0,0,.18-.59.93.93,0,0,0-.34-.73,2.6,2.6,0,0,0-1.13-.46l-1-.22a4,4,0,0,1-.77-.24,2.1,2.1,0,0,1-.58-.37,1.46,1.46,0,0,1-.36-.5,1.62,1.62,0,0,1-.12-.65,1.57,1.57,0,0,1,.21-.83,1.78,1.78,0,0,1,.56-.57,2.53,2.53,0,0,1,.78-.33,3.77,3.77,0,0,1,.89-.11,3.27,3.27,0,0,1,.92.12,2.29,2.29,0,0,1,.73.35,1.83,1.83,0,0,1,.5.57,2.08,2.08,0,0,1,.25.78h-.8a1.32,1.32,0,0,0-.19-.5,1.24,1.24,0,0,0-.36-.37,1.69,1.69,0,0,0-.5-.22,2.36,2.36,0,0,0-.61-.08,2.85,2.85,0,0,0-.58.06,1.59,1.59,0,0,0-.51.19,1.07,1.07,0,0,0-.36.35,1,1,0,0,0-.13.53.74.74,0,0,0,.13.44,1.27,1.27,0,0,0,.33.32,1.93,1.93,0,0,0,.44.22,3.64,3.64,0,0,0,.46.13l1.37.3a2.85,2.85,0,0,1,.59.21,1.77,1.77,0,0,1,.5.35,1.64,1.64,0,0,1,.34.51A1.71,1.71,0,0,1,96.49,161.11Z"/><path class="cls-1" d="M100.89,163h-.66a3,3,0,0,1-.68-.06,1,1,0,0,1-.45-.23.89.89,0,0,1-.25-.43,2.65,2.65,0,0,1-.07-.68V157H97.46v-.67h1.32v-2h.8v2h1.5V157h-1.5v4.48a1.76,1.76,0,0,0,0,.34.64.64,0,0,0,.11.25.5.5,0,0,0,.21.16.87.87,0,0,0,.35.06h.6l.21,0v.68Z"/><path class="cls-1" d="M108.52,162.84l-.27,0H108a1.37,1.37,0,0,1-.44-.06.65.65,0,0,1-.29-.2.82.82,0,0,1-.16-.35,2.43,2.43,0,0,1,0-.53h0a3,3,0,0,1-1,1,2.79,2.79,0,0,1-1.35.29,2.46,2.46,0,0,1-1.6-.5,1.75,1.75,0,0,1-.6-1.43,1.66,1.66,0,0,1,.66-1.43,6.79,6.79,0,0,1,3-.69,2,2,0,0,0,.44-.08.75.75,0,0,0,.29-.16.6.6,0,0,0,.16-.26,1.28,1.28,0,0,0,0-.38,1.24,1.24,0,0,0-.4-1,2,2,0,0,0-1.31-.34,2.61,2.61,0,0,0-.72.09,1.65,1.65,0,0,0-.53.25,1.13,1.13,0,0,0-.33.39,1.23,1.23,0,0,0-.13.49h-.8a2,2,0,0,1,.22-.78,1.78,1.78,0,0,1,.51-.59,2.43,2.43,0,0,1,.81-.38,4,4,0,0,1,1.09-.13,2.64,2.64,0,0,1,1.83.54,2,2,0,0,1,.59,1.52v3.56a.47.47,0,0,0,.11.33.46.46,0,0,0,.36.12.7.7,0,0,0,.25,0ZM107,159.3h0q-.12.22-.77.31l-.67.1-.74.12a2.67,2.67,0,0,0-1.17.44,1,1,0,0,0-.39.84,1.16,1.16,0,0,0,.43.94,1.6,1.6,0,0,0,1,.35,2.36,2.36,0,0,0,1.63-.58,1.85,1.85,0,0,0,.65-1.44Z"/><path class="cls-1" d="M112.6,163h-.66a3,3,0,0,1-.68-.06,1,1,0,0,1-.45-.23.89.89,0,0,1-.25-.43,2.65,2.65,0,0,1-.07-.68V157h-1.32v-.67h1.32v-2h.8v2h1.5V157h-1.5v4.48a1.76,1.76,0,0,0,0,.34.64.64,0,0,0,.11.25.5.5,0,0,0,.21.16.87.87,0,0,0,.35.06h.6l.21,0v.68Z"/><path class="cls-1" d="M117.13,156.14a2.71,2.71,0,0,1,1.3.29,2.6,2.6,0,0,1,.9.79,3.45,3.45,0,0,1,.52,1.13,5.21,5.21,0,0,1,.17,1.34v.13H115a3.58,3.58,0,0,0,.13.94,2.59,2.59,0,0,0,.39.83,2,2,0,0,0,.66.59,1.92,1.92,0,0,0,.95.22,2.44,2.44,0,0,0,.7-.09,2,2,0,0,0,.56-.26,1.76,1.76,0,0,0,.42-.39,2.41,2.41,0,0,0,.29-.49h.79a3,3,0,0,1-.38.79,2.48,2.48,0,0,1-.59.6,2.68,2.68,0,0,1-.79.39,3.34,3.34,0,0,1-1,.14,2.94,2.94,0,0,1-1.3-.27,2.56,2.56,0,0,1-.91-.73,3.12,3.12,0,0,1-.54-1.1,5.14,5.14,0,0,1-.18-1.37,4.66,4.66,0,0,1,.18-1.28,3.36,3.36,0,0,1,.54-1.11,2.74,2.74,0,0,1,.92-.78A2.79,2.79,0,0,1,117.13,156.14Zm2.09,3a3,3,0,0,0-.16-.85,2.44,2.44,0,0,0-.41-.75A2.07,2.07,0,0,0,118,157a1.84,1.84,0,0,0-.88-.21,1.84,1.84,0,0,0-1.5.7,2.7,2.7,0,0,0-.42.75,4.31,4.31,0,0,0-.23.9Z"/><path class="cls-2" d="M159.67,9.19v7.87h4.8v.7h-5.62V9.19Z"/><path class="cls-2" d="M171.27,17.71l-.27,0h-.24a1.37,1.37,0,0,1-.44-.06.65.65,0,0,1-.29-.2.82.82,0,0,1-.16-.36,2.42,2.42,0,0,1,0-.53h0a3,3,0,0,1-1,1,2.79,2.79,0,0,1-1.35.29,2.46,2.46,0,0,1-1.6-.5,1.75,1.75,0,0,1-.6-1.43,1.66,1.66,0,0,1,.66-1.43,6.79,6.79,0,0,1,3-.69,2,2,0,0,0,.44-.08.75.75,0,0,0,.29-.16.59.59,0,0,0,.16-.26,1.28,1.28,0,0,0,0-.38,1.25,1.25,0,0,0-.4-1,2,2,0,0,0-1.31-.34,2.61,2.61,0,0,0-.72.09,1.65,1.65,0,0,0-.53.25,1.13,1.13,0,0,0-.33.39,1.23,1.23,0,0,0-.13.49h-.8a2,2,0,0,1,.22-.78,1.77,1.77,0,0,1,.51-.59,2.43,2.43,0,0,1,.81-.38,4,4,0,0,1,1.09-.13,2.64,2.64,0,0,1,1.83.54,2,2,0,0,1,.59,1.52v3.56a.47.47,0,0,0,.11.33.46.46,0,0,0,.36.12.7.7,0,0,0,.25,0Zm-1.52-3.54h0q-.12.22-.77.31l-.67.1-.74.12a2.67,2.67,0,0,0-1.17.44A1,1,0,0,0,166,16a1.16,1.16,0,0,0,.43.94,1.6,1.6,0,0,0,1,.35,2.36,2.36,0,0,0,1.63-.58,1.85,1.85,0,0,0,.65-1.44Z"/><path class="cls-2" d="M178.76,14.48a4.77,4.77,0,0,1-.17,1.28,3.38,3.38,0,0,1-.53,1.11,2.69,2.69,0,0,1-.92.79,2.8,2.8,0,0,1-1.33.3,2.91,2.91,0,0,1-.72-.09,2.59,2.59,0,0,1-.66-.27,2.33,2.33,0,0,1-.55-.45,2.18,2.18,0,0,1-.4-.63h0v1.25h-.74V8.68h.8v3.77h0a2,2,0,0,1,.36-.61,2.25,2.25,0,0,1,.54-.45,2.49,2.49,0,0,1,.66-.28,3,3,0,0,1,2,.18A2.63,2.63,0,0,1,178,12a3.34,3.34,0,0,1,.55,1.1A5,5,0,0,1,178.76,14.48Zm-.8,0a4.4,4.4,0,0,0,0-.65,3.53,3.53,0,0,0-.16-.64,2.89,2.89,0,0,0-.28-.59,2.08,2.08,0,0,0-.41-.48,1.83,1.83,0,0,0-.55-.32,2,2,0,0,0-.71-.12,2,2,0,0,0-1.73.85,2.72,2.72,0,0,0-.42.89,3.94,3.94,0,0,0-.14,1.06,4.21,4.21,0,0,0,.13,1,2.67,2.67,0,0,0,.4.9,2.08,2.08,0,0,0,.71.63,2.18,2.18,0,0,0,1.06.24,1.88,1.88,0,0,0,1-.23,2,2,0,0,0,.66-.63,2.91,2.91,0,0,0,.38-.89A4.9,4.9,0,0,0,178,14.48Z"/><path class="cls-2" d="M183.2,11a2.71,2.71,0,0,1,1.3.29,2.6,2.6,0,0,1,.9.79,3.44,3.44,0,0,1,.52,1.13,5.22,5.22,0,0,1,.17,1.34v.13H181a3.58,3.58,0,0,0,.13.94,2.58,2.58,0,0,0,.39.83,2,2,0,0,0,.66.59,1.92,1.92,0,0,0,.95.22,2.44,2.44,0,0,0,.7-.09,2,2,0,0,0,.56-.26,1.76,1.76,0,0,0,.42-.39,2.4,2.4,0,0,0,.29-.49h.79a3,3,0,0,1-.38.79,2.48,2.48,0,0,1-.59.6,2.68,2.68,0,0,1-.79.39,3.33,3.33,0,0,1-1,.14,2.94,2.94,0,0,1-1.3-.27A2.56,2.56,0,0,1,181,17a3.12,3.12,0,0,1-.54-1.1,5.13,5.13,0,0,1-.18-1.37,4.66,4.66,0,0,1,.18-1.28,3.37,3.37,0,0,1,.54-1.11,2.74,2.74,0,0,1,.92-.78A2.79,2.79,0,0,1,183.2,11Zm2.09,3a3,3,0,0,0-.16-.85,2.44,2.44,0,0,0-.41-.75,2.07,2.07,0,0,0-.65-.54,1.84,1.84,0,0,0-.88-.21,1.84,1.84,0,0,0-1.5.7,2.69,2.69,0,0,0-.42.75,4.32,4.32,0,0,0-.23.9Z"/><path class="cls-2" d="M188.59,8.68v9.08h-.8V8.68Z"/><path class="cls-2" d="M159.67,57.19v7.87h4.8v.7h-5.62V57.19Z"/><path class="cls-2" d="M171.27,65.71l-.27,0h-.24a1.37,1.37,0,0,1-.44-.06.65.65,0,0,1-.29-.2.82.82,0,0,1-.16-.36,2.42,2.42,0,0,1,0-.53h0a3,3,0,0,1-1,1,2.79,2.79,0,0,1-1.35.29,2.46,2.46,0,0,1-1.6-.5,1.75,1.75,0,0,1-.6-1.43,1.66,1.66,0,0,1,.66-1.43,6.79,6.79,0,0,1,3-.69,2,2,0,0,0,.44-.08.75.75,0,0,0,.29-.16.59.59,0,0,0,.16-.26,1.28,1.28,0,0,0,0-.38,1.25,1.25,0,0,0-.4-1,2,2,0,0,0-1.31-.34,2.61,2.61,0,0,0-.72.09,1.65,1.65,0,0,0-.53.25,1.13,1.13,0,0,0-.33.39,1.23,1.23,0,0,0-.13.49h-.8a2,2,0,0,1,.22-.78,1.77,1.77,0,0,1,.51-.59,2.43,2.43,0,0,1,.81-.38,4,4,0,0,1,1.09-.13,2.64,2.64,0,0,1,1.83.54,2,2,0,0,1,.59,1.52v3.56a.47.47,0,0,0,.11.33.46.46,0,0,0,.36.12.7.7,0,0,0,.25,0Zm-1.52-3.54h0q-.12.22-.77.31l-.67.1-.74.12a2.67,2.67,0,0,0-1.17.44A1,1,0,0,0,166,64a1.16,1.16,0,0,0,.43.94,1.6,1.6,0,0,0,1,.35,2.36,2.36,0,0,0,1.63-.58,1.85,1.85,0,0,0,.65-1.44Z"/><path class="cls-2" d="M178.76,62.48a4.77,4.77,0,0,1-.17,1.28,3.38,3.38,0,0,1-.53,1.11,2.69,2.69,0,0,1-.92.79,2.8,2.8,0,0,1-1.33.3,2.91,2.91,0,0,1-.72-.09,2.59,2.59,0,0,1-.66-.27,2.33,2.33,0,0,1-.55-.45,2.18,2.18,0,0,1-.4-.63h0v1.25h-.74V56.68h.8v3.77h0a2,2,0,0,1,.36-.61,2.25,2.25,0,0,1,.54-.45,2.49,2.49,0,0,1,.66-.28,3,3,0,0,1,2,.18A2.63,2.63,0,0,1,178,60a3.34,3.34,0,0,1,.55,1.1A5,5,0,0,1,178.76,62.48Zm-.8,0a4.4,4.4,0,0,0,0-.65,3.53,3.53,0,0,0-.16-.64,2.89,2.89,0,0,0-.28-.59,2.08,2.08,0,0,0-.41-.48,1.83,1.83,0,0,0-.55-.32,2,2,0,0,0-.71-.12,2,2,0,0,0-1.73.85,2.72,2.72,0,0,0-.42.89,3.94,3.94,0,0,0-.14,1.06,4.21,4.21,0,0,0,.13,1,2.67,2.67,0,0,0,.4.9,2.08,2.08,0,0,0,.71.63,2.18,2.18,0,0,0,1.06.24,1.88,1.88,0,0,0,1-.23,2,2,0,0,0,.66-.63,2.91,2.91,0,0,0,.38-.89A4.9,4.9,0,0,0,178,62.48Z"/><path class="cls-2" d="M183.2,59a2.71,2.71,0,0,1,1.3.29,2.6,2.6,0,0,1,.9.79,3.44,3.44,0,0,1,.52,1.13,5.22,5.22,0,0,1,.17,1.34v.13H181a3.58,3.58,0,0,0,.13.94,2.58,2.58,0,0,0,.39.83,2,2,0,0,0,.66.59,1.92,1.92,0,0,0,.95.22,2.44,2.44,0,0,0,.7-.09,2,2,0,0,0,.56-.26,1.76,1.76,0,0,0,.42-.39,2.4,2.4,0,0,0,.29-.49h.79a3,3,0,0,1-.38.79,2.48,2.48,0,0,1-.59.6,2.68,2.68,0,0,1-.79.39,3.33,3.33,0,0,1-1,.14,2.94,2.94,0,0,1-1.3-.27A2.56,2.56,0,0,1,181,65a3.12,3.12,0,0,1-.54-1.1,5.13,5.13,0,0,1-.18-1.37,4.66,4.66,0,0,1,.18-1.28,3.37,3.37,0,0,1,.54-1.11,2.74,2.74,0,0,1,.92-.78A2.79,2.79,0,0,1,183.2,59Zm2.09,3a3,3,0,0,0-.16-.85,2.44,2.44,0,0,0-.41-.75,2.07,2.07,0,0,0-.65-.54,1.84,1.84,0,0,0-.88-.21,1.84,1.84,0,0,0-1.5.7,2.69,2.69,0,0,0-.42.75,4.32,4.32,0,0,0-.23.9Z"/><path class="cls-2" d="M188.59,56.68v9.08h-.8V56.68Z"/><path class="cls-2" d="M230.67,57.19v7.87h4.8v.7h-5.62V57.19Z"/><path class="cls-2" d="M242.27,65.71l-.27,0h-.24a1.37,1.37,0,0,1-.44-.06.65.65,0,0,1-.29-.2.82.82,0,0,1-.16-.36,2.42,2.42,0,0,1,0-.53h0a3,3,0,0,1-1,1,2.79,2.79,0,0,1-1.35.29,2.46,2.46,0,0,1-1.6-.5,1.75,1.75,0,0,1-.6-1.43,1.66,1.66,0,0,1,.66-1.43,6.79,6.79,0,0,1,3-.69,2,2,0,0,0,.44-.08.75.75,0,0,0,.29-.16.59.59,0,0,0,.16-.26,1.28,1.28,0,0,0,0-.38,1.25,1.25,0,0,0-.4-1,2,2,0,0,0-1.31-.34,2.61,2.61,0,0,0-.72.09,1.65,1.65,0,0,0-.53.25,1.13,1.13,0,0,0-.33.39,1.23,1.23,0,0,0-.13.49h-.8a2,2,0,0,1,.22-.78,1.77,1.77,0,0,1,.51-.59,2.43,2.43,0,0,1,.81-.38,4,4,0,0,1,1.09-.13,2.64,2.64,0,0,1,1.83.54,2,2,0,0,1,.59,1.52v3.56a.47.47,0,0,0,.11.33.46.46,0,0,0,.36.12.7.7,0,0,0,.25,0Zm-1.52-3.54h0q-.12.22-.77.31l-.67.1-.74.12a2.67,2.67,0,0,0-1.17.44A1,1,0,0,0,237,64a1.16,1.16,0,0,0,.43.94,1.6,1.6,0,0,0,1,.35,2.36,2.36,0,0,0,1.63-.58,1.85,1.85,0,0,0,.65-1.44Z"/><path class="cls-2" d="M249.76,62.48a4.77,4.77,0,0,1-.17,1.28,3.38,3.38,0,0,1-.53,1.11,2.69,2.69,0,0,1-.92.79,2.8,2.8,0,0,1-1.33.3,2.91,2.91,0,0,1-.72-.09,2.59,2.59,0,0,1-.66-.27,2.33,2.33,0,0,1-.55-.45,2.18,2.18,0,0,1-.4-.63h0v1.25h-.74V56.68h.8v3.77h0a2,2,0,0,1,.36-.61,2.25,2.25,0,0,1,.54-.45,2.49,2.49,0,0,1,.66-.28,3,3,0,0,1,2,.18A2.63,2.63,0,0,1,249,60a3.34,3.34,0,0,1,.55,1.1A5,5,0,0,1,249.76,62.48Zm-.8,0a4.4,4.4,0,0,0,0-.65,3.53,3.53,0,0,0-.16-.64,2.89,2.89,0,0,0-.28-.59,2.08,2.08,0,0,0-.41-.48,1.83,1.83,0,0,0-.55-.32,2,2,0,0,0-.71-.12,2,2,0,0,0-1.73.85,2.72,2.72,0,0,0-.42.89,3.94,3.94,0,0,0-.14,1.06,4.21,4.21,0,0,0,.13,1,2.67,2.67,0,0,0,.4.9,2.08,2.08,0,0,0,.71.63,2.18,2.18,0,0,0,1.06.24,1.88,1.88,0,0,0,1-.23,2,2,0,0,0,.66-.63,2.91,2.91,0,0,0,.38-.89A4.9,4.9,0,0,0,249,62.48Z"/><path class="cls-2" d="M254.2,59a2.71,2.71,0,0,1,1.3.29,2.6,2.6,0,0,1,.9.79,3.44,3.44,0,0,1,.52,1.13,5.22,5.22,0,0,1,.17,1.34v.13H252a3.58,3.58,0,0,0,.13.94,2.58,2.58,0,0,0,.39.83,2,2,0,0,0,.66.59,1.92,1.92,0,0,0,.95.22,2.44,2.44,0,0,0,.7-.09,2,2,0,0,0,.56-.26,1.76,1.76,0,0,0,.42-.39,2.4,2.4,0,0,0,.29-.49h.79a3,3,0,0,1-.38.79,2.48,2.48,0,0,1-.59.6,2.68,2.68,0,0,1-.79.39,3.33,3.33,0,0,1-1,.14,2.94,2.94,0,0,1-1.3-.27A2.56,2.56,0,0,1,252,65a3.12,3.12,0,0,1-.54-1.1,5.13,5.13,0,0,1-.18-1.37,4.66,4.66,0,0,1,.18-1.28,3.37,3.37,0,0,1,.54-1.11,2.74,2.74,0,0,1,.92-.78A2.79,2.79,0,0,1,254.2,59Zm2.09,3a3,3,0,0,0-.16-.85,2.44,2.44,0,0,0-.41-.75,2.07,2.07,0,0,0-.65-.54,1.84,1.84,0,0,0-.88-.21,1.84,1.84,0,0,0-1.5.7,2.69,2.69,0,0,0-.42.75,4.32,4.32,0,0,0-.23.9Z"/><path class="cls-2" d="M259.59,56.68v9.08h-.8V56.68Z"/><rect class="cls-3" x="206.5" y="53.5" width="17" height="17"/><path class="cls-4" d="M223,54V70H207V54h16m1-1H206V71h18V53Z"/><polygon class="cls-5" points="214.29 66.98 209.28 62.28 210.84 60.61 214.01 63.58 219.46 56.48 221.28 57.88 214.29 66.98"/><rect class="cls-3" x="133.5" y="53.5" width="17" height="17"/><path class="cls-4" d="M150,54V70H134V54h16m1-1H133V71h18V53Z"/><polygon class="cls-6" points="141.29 66.98 136.28 62.28 137.84 60.61 141.01 63.58 146.46 56.48 148.28 57.88 141.29 66.98"/><rect class="cls-3" x="206.5" y="5.5" width="17" height="17"/><path class="cls-7" d="M223,6V22H207V6h16m1-1H206V23h18V5Z"/><polygon class="cls-5" points="214.29 18.98 209.28 14.28 210.84 12.61 214.01 15.58 219.46 8.48 221.28 9.88 214.29 18.98"/><rect class="cls-8" x="133.5" y="102.5" width="17" height="17"/><path class="cls-9" d="M150,103v16H134V103h16m1-1H133v18h18V102Z"/><polygon class="cls-6" points="141.29 115.98 136.28 111.28 137.84 109.61 141.01 112.58 146.46 105.48 148.28 106.88 141.29 115.98"/><rect class="cls-3" x="133.5" y="5.5" width="17" height="17"/><path class="cls-7" d="M150,6V22H134V6h16m1-1H133V23h18V5Z"/><polygon class="cls-6" points="141.29 18.98 136.28 14.28 137.84 12.61 141.01 15.58 146.46 8.48 148.28 9.88 141.29 18.98"/><path class="cls-2" d="M232.67,9.19v7.87h4.8v.7h-5.62V9.19Z"/><path class="cls-2" d="M244.27,17.71l-.27,0h-.24a1.37,1.37,0,0,1-.44-.06.65.65,0,0,1-.29-.2.82.82,0,0,1-.16-.36,2.42,2.42,0,0,1,0-.53h0a3,3,0,0,1-1,1,2.79,2.79,0,0,1-1.35.29,2.46,2.46,0,0,1-1.6-.5,1.75,1.75,0,0,1-.6-1.43,1.66,1.66,0,0,1,.66-1.43,6.79,6.79,0,0,1,3-.69,2,2,0,0,0,.44-.08.75.75,0,0,0,.29-.16.59.59,0,0,0,.16-.26,1.28,1.28,0,0,0,0-.38,1.25,1.25,0,0,0-.4-1,2,2,0,0,0-1.31-.34,2.61,2.61,0,0,0-.72.09,1.65,1.65,0,0,0-.53.25,1.13,1.13,0,0,0-.33.39,1.23,1.23,0,0,0-.13.49h-.8a2,2,0,0,1,.22-.78,1.77,1.77,0,0,1,.51-.59,2.43,2.43,0,0,1,.81-.38,4,4,0,0,1,1.09-.13,2.64,2.64,0,0,1,1.83.54,2,2,0,0,1,.59,1.52v3.56a.47.47,0,0,0,.11.33.46.46,0,0,0,.36.12.7.7,0,0,0,.25,0Zm-1.52-3.54h0q-.12.22-.77.31l-.67.1-.74.12a2.67,2.67,0,0,0-1.17.44A1,1,0,0,0,239,16a1.16,1.16,0,0,0,.43.94,1.6,1.6,0,0,0,1,.35,2.36,2.36,0,0,0,1.63-.58,1.85,1.85,0,0,0,.65-1.44Z"/><path class="cls-2" d="M251.76,14.48a4.77,4.77,0,0,1-.17,1.28,3.38,3.38,0,0,1-.53,1.11,2.69,2.69,0,0,1-.92.79,2.8,2.8,0,0,1-1.33.3,2.91,2.91,0,0,1-.72-.09,2.59,2.59,0,0,1-.66-.27,2.33,2.33,0,0,1-.55-.45,2.18,2.18,0,0,1-.4-.63h0v1.25h-.74V8.68h.8v3.77h0a2,2,0,0,1,.36-.61,2.25,2.25,0,0,1,.54-.45,2.49,2.49,0,0,1,.66-.28,3,3,0,0,1,2,.18A2.63,2.63,0,0,1,251,12a3.34,3.34,0,0,1,.55,1.1A5,5,0,0,1,251.76,14.48Zm-.8,0a4.4,4.4,0,0,0,0-.65,3.53,3.53,0,0,0-.16-.64,2.89,2.89,0,0,0-.28-.59,2.08,2.08,0,0,0-.41-.48,1.83,1.83,0,0,0-.55-.32,2,2,0,0,0-.71-.12,2,2,0,0,0-1.73.85,2.72,2.72,0,0,0-.42.89,3.94,3.94,0,0,0-.14,1.06,4.21,4.21,0,0,0,.13,1,2.67,2.67,0,0,0,.4.9,2.08,2.08,0,0,0,.71.63,2.18,2.18,0,0,0,1.06.24,1.88,1.88,0,0,0,1-.23,2,2,0,0,0,.66-.63,2.91,2.91,0,0,0,.38-.89A4.9,4.9,0,0,0,251,14.48Z"/><path class="cls-2" d="M256.2,11a2.71,2.71,0,0,1,1.3.29,2.6,2.6,0,0,1,.9.79,3.44,3.44,0,0,1,.52,1.13,5.22,5.22,0,0,1,.17,1.34v.13H254a3.58,3.58,0,0,0,.13.94,2.58,2.58,0,0,0,.39.83,2,2,0,0,0,.66.59,1.92,1.92,0,0,0,.95.22,2.44,2.44,0,0,0,.7-.09,2,2,0,0,0,.56-.26,1.76,1.76,0,0,0,.42-.39,2.4,2.4,0,0,0,.29-.49h.79a3,3,0,0,1-.38.79,2.48,2.48,0,0,1-.59.6,2.68,2.68,0,0,1-.79.39,3.33,3.33,0,0,1-1,.14,2.94,2.94,0,0,1-1.3-.27A2.56,2.56,0,0,1,254,17a3.12,3.12,0,0,1-.54-1.1,5.13,5.13,0,0,1-.18-1.37,4.66,4.66,0,0,1,.18-1.28,3.37,3.37,0,0,1,.54-1.11,2.74,2.74,0,0,1,.92-.78A2.79,2.79,0,0,1,256.2,11Zm2.09,3a3,3,0,0,0-.16-.85,2.44,2.44,0,0,0-.41-.75,2.07,2.07,0,0,0-.65-.54,1.84,1.84,0,0,0-.88-.21,1.84,1.84,0,0,0-1.5.7,2.69,2.69,0,0,0-.42.75,4.32,4.32,0,0,0-.23.9Z"/><path class="cls-2" d="M261.59,8.68v9.08h-.8V8.68Z"/><g class="cls-10"><path class="cls-2" d="M159.67,106.19v7.87h4.8v.7h-5.62v-8.57Z"/><path class="cls-2" d="M171.27,114.71l-.27,0h-.24a1.37,1.37,0,0,1-.44-.06.65.65,0,0,1-.29-.2.82.82,0,0,1-.16-.36,2.42,2.42,0,0,1,0-.53h0a3,3,0,0,1-1,1,2.79,2.79,0,0,1-1.35.29,2.46,2.46,0,0,1-1.6-.5,1.75,1.75,0,0,1-.6-1.43,1.66,1.66,0,0,1,.66-1.43,6.79,6.79,0,0,1,3-.69,2,2,0,0,0,.44-.08.75.75,0,0,0,.29-.16.59.59,0,0,0,.16-.26,1.28,1.28,0,0,0,0-.38,1.25,1.25,0,0,0-.4-1,2,2,0,0,0-1.31-.34,2.61,2.61,0,0,0-.72.09,1.65,1.65,0,0,0-.53.25,1.13,1.13,0,0,0-.33.39,1.23,1.23,0,0,0-.13.49h-.8a2,2,0,0,1,.22-.78,1.77,1.77,0,0,1,.51-.59,2.43,2.43,0,0,1,.81-.38,4,4,0,0,1,1.09-.13,2.64,2.64,0,0,1,1.83.54,2,2,0,0,1,.59,1.52v3.56a.47.47,0,0,0,.11.33.46.46,0,0,0,.36.12.7.7,0,0,0,.25,0Zm-1.52-3.54h0q-.12.22-.77.31l-.67.1-.74.12a2.67,2.67,0,0,0-1.17.44,1,1,0,0,0-.39.84,1.16,1.16,0,0,0,.43.94,1.6,1.6,0,0,0,1,.35,2.36,2.36,0,0,0,1.63-.58,1.85,1.85,0,0,0,.65-1.44Z"/><path class="cls-2" d="M178.76,111.48a4.77,4.77,0,0,1-.17,1.28,3.38,3.38,0,0,1-.53,1.11,2.69,2.69,0,0,1-.92.79,2.8,2.8,0,0,1-1.33.3,2.91,2.91,0,0,1-.72-.09,2.59,2.59,0,0,1-.66-.27,2.33,2.33,0,0,1-.55-.45,2.18,2.18,0,0,1-.4-.63h0v1.25h-.74v-9.08h.8v3.77h0a2,2,0,0,1,.36-.61,2.25,2.25,0,0,1,.54-.45,2.49,2.49,0,0,1,.66-.28,3,3,0,0,1,2,.18,2.63,2.63,0,0,1,.91.75,3.34,3.34,0,0,1,.55,1.1A5,5,0,0,1,178.76,111.48Zm-.8,0a4.4,4.4,0,0,0,0-.65,3.53,3.53,0,0,0-.16-.64,2.89,2.89,0,0,0-.28-.59,2.08,2.08,0,0,0-.41-.48,1.83,1.83,0,0,0-.55-.32,2,2,0,0,0-.71-.12,2,2,0,0,0-1.73.85,2.72,2.72,0,0,0-.42.89,3.94,3.94,0,0,0-.14,1.06,4.21,4.21,0,0,0,.13,1,2.67,2.67,0,0,0,.4.9,2.08,2.08,0,0,0,.71.63,2.18,2.18,0,0,0,1.06.24,1.88,1.88,0,0,0,1-.23,2,2,0,0,0,.66-.63,2.91,2.91,0,0,0,.38-.89A4.9,4.9,0,0,0,178,111.48Z"/><path class="cls-2" d="M183.2,108a2.71,2.71,0,0,1,1.3.29,2.6,2.6,0,0,1,.9.79,3.44,3.44,0,0,1,.52,1.13,5.22,5.22,0,0,1,.17,1.34v.13H181a3.58,3.58,0,0,0,.13.94,2.58,2.58,0,0,0,.39.83,2,2,0,0,0,.66.59,1.92,1.92,0,0,0,.95.22,2.44,2.44,0,0,0,.7-.09,2,2,0,0,0,.56-.26,1.76,1.76,0,0,0,.42-.39,2.4,2.4,0,0,0,.29-.49h.79a3,3,0,0,1-.38.79,2.48,2.48,0,0,1-.59.6,2.68,2.68,0,0,1-.79.39,3.33,3.33,0,0,1-1,.14,2.94,2.94,0,0,1-1.3-.27A2.56,2.56,0,0,1,181,114a3.12,3.12,0,0,1-.54-1.1,5.13,5.13,0,0,1-.18-1.37,4.66,4.66,0,0,1,.18-1.28,3.37,3.37,0,0,1,.54-1.11,2.74,2.74,0,0,1,.92-.78A2.79,2.79,0,0,1,183.2,108Zm2.09,3a3,3,0,0,0-.16-.85,2.44,2.44,0,0,0-.41-.75,2.07,2.07,0,0,0-.65-.54,1.84,1.84,0,0,0-.88-.21,1.84,1.84,0,0,0-1.5.7,2.69,2.69,0,0,0-.42.75,4.32,4.32,0,0,0-.23.9Z"/><path class="cls-2" d="M188.59,105.68v9.08h-.8v-9.08Z"/></g><rect class="cls-8" x="206.5" y="102.5" width="17" height="17"/><path class="cls-9" d="M223,103v16H207V103h16m1-1H206v18h18V102Z"/><polygon class="cls-11" points="214.29 115.98 209.28 111.28 210.84 109.61 214.01 112.58 219.46 105.48 221.28 106.88 214.29 115.98"/><g class="cls-10"><path class="cls-2" d="M232.67,106.19v7.87h4.8v.7h-5.62v-8.57Z"/><path class="cls-2" d="M244.27,114.71l-.27,0h-.24a1.37,1.37,0,0,1-.44-.06.65.65,0,0,1-.29-.2.82.82,0,0,1-.16-.36,2.42,2.42,0,0,1,0-.53h0a3,3,0,0,1-1,1,2.79,2.79,0,0,1-1.35.29,2.46,2.46,0,0,1-1.6-.5,1.75,1.75,0,0,1-.6-1.43,1.66,1.66,0,0,1,.66-1.43,6.79,6.79,0,0,1,3-.69,2,2,0,0,0,.44-.08.75.75,0,0,0,.29-.16.59.59,0,0,0,.16-.26,1.28,1.28,0,0,0,0-.38,1.25,1.25,0,0,0-.4-1,2,2,0,0,0-1.31-.34,2.61,2.61,0,0,0-.72.09,1.65,1.65,0,0,0-.53.25,1.13,1.13,0,0,0-.33.39,1.23,1.23,0,0,0-.13.49h-.8a2,2,0,0,1,.22-.78,1.77,1.77,0,0,1,.51-.59,2.43,2.43,0,0,1,.81-.38,4,4,0,0,1,1.09-.13,2.64,2.64,0,0,1,1.83.54,2,2,0,0,1,.59,1.52v3.56a.47.47,0,0,0,.11.33.46.46,0,0,0,.36.12.7.7,0,0,0,.25,0Zm-1.52-3.54h0q-.12.22-.77.31l-.67.1-.74.12a2.67,2.67,0,0,0-1.17.44,1,1,0,0,0-.39.84,1.16,1.16,0,0,0,.43.94,1.6,1.6,0,0,0,1,.35,2.36,2.36,0,0,0,1.63-.58,1.85,1.85,0,0,0,.65-1.44Z"/><path class="cls-2" d="M251.76,111.48a4.77,4.77,0,0,1-.17,1.28,3.38,3.38,0,0,1-.53,1.11,2.69,2.69,0,0,1-.92.79,2.8,2.8,0,0,1-1.33.3,2.91,2.91,0,0,1-.72-.09,2.59,2.59,0,0,1-.66-.27,2.33,2.33,0,0,1-.55-.45,2.18,2.18,0,0,1-.4-.63h0v1.25h-.74v-9.08h.8v3.77h0a2,2,0,0,1,.36-.61,2.25,2.25,0,0,1,.54-.45,2.49,2.49,0,0,1,.66-.28,3,3,0,0,1,2,.18,2.63,2.63,0,0,1,.91.75,3.34,3.34,0,0,1,.55,1.1A5,5,0,0,1,251.76,111.48Zm-.8,0a4.4,4.4,0,0,0,0-.65,3.53,3.53,0,0,0-.16-.64,2.89,2.89,0,0,0-.28-.59,2.08,2.08,0,0,0-.41-.48,1.83,1.83,0,0,0-.55-.32,2,2,0,0,0-.71-.12,2,2,0,0,0-1.73.85,2.72,2.72,0,0,0-.42.89,3.94,3.94,0,0,0-.14,1.06,4.21,4.21,0,0,0,.13,1,2.67,2.67,0,0,0,.4.9,2.08,2.08,0,0,0,.71.63,2.18,2.18,0,0,0,1.06.24,1.88,1.88,0,0,0,1-.23,2,2,0,0,0,.66-.63,2.91,2.91,0,0,0,.38-.89A4.9,4.9,0,0,0,251,111.48Z"/><path class="cls-2" d="M256.2,108a2.71,2.71,0,0,1,1.3.29,2.6,2.6,0,0,1,.9.79,3.44,3.44,0,0,1,.52,1.13,5.22,5.22,0,0,1,.17,1.34v.13H254a3.58,3.58,0,0,0,.13.94,2.58,2.58,0,0,0,.39.83,2,2,0,0,0,.66.59,1.92,1.92,0,0,0,.95.22,2.44,2.44,0,0,0,.7-.09,2,2,0,0,0,.56-.26,1.76,1.76,0,0,0,.42-.39,2.4,2.4,0,0,0,.29-.49h.79a3,3,0,0,1-.38.79,2.48,2.48,0,0,1-.59.6,2.68,2.68,0,0,1-.79.39,3.33,3.33,0,0,1-1,.14,2.94,2.94,0,0,1-1.3-.27A2.56,2.56,0,0,1,254,114a3.12,3.12,0,0,1-.54-1.1,5.13,5.13,0,0,1-.18-1.37,4.66,4.66,0,0,1,.18-1.28,3.37,3.37,0,0,1,.54-1.11,2.74,2.74,0,0,1,.92-.78A2.79,2.79,0,0,1,256.2,108Zm2.09,3a3,3,0,0,0-.16-.85,2.44,2.44,0,0,0-.41-.75,2.07,2.07,0,0,0-.65-.54,1.84,1.84,0,0,0-.88-.21,1.84,1.84,0,0,0-1.5.7,2.69,2.69,0,0,0-.42.75,4.32,4.32,0,0,0-.23.9Z"/><path class="cls-2" d="M261.59,105.68v9.08h-.8v-9.08Z"/></g><rect class="cls-3" x="132.5" y="150.5" width="17" height="17"/><path class="cls-7" d="M149,151v16H133V151h16m1-1H132v18h18V150Z"/><path class="cls-2" d="M158.67,154.19v7.87h4.8v.7h-5.62v-8.57Z"/><path class="cls-2" d="M170.27,162.71l-.27,0h-.24a1.37,1.37,0,0,1-.44-.06.65.65,0,0,1-.29-.2.82.82,0,0,1-.16-.36,2.42,2.42,0,0,1,0-.53h0a3,3,0,0,1-1,1,2.79,2.79,0,0,1-1.35.29,2.46,2.46,0,0,1-1.6-.5,1.75,1.75,0,0,1-.6-1.43,1.66,1.66,0,0,1,.66-1.43,6.79,6.79,0,0,1,3-.69,2,2,0,0,0,.44-.08.75.75,0,0,0,.29-.16.59.59,0,0,0,.16-.26,1.28,1.28,0,0,0,0-.38,1.25,1.25,0,0,0-.4-1,2,2,0,0,0-1.31-.34,2.61,2.61,0,0,0-.72.09,1.65,1.65,0,0,0-.53.25,1.13,1.13,0,0,0-.33.39,1.23,1.23,0,0,0-.13.49h-.8a2,2,0,0,1,.22-.78,1.77,1.77,0,0,1,.51-.59,2.43,2.43,0,0,1,.81-.38,4,4,0,0,1,1.09-.13,2.64,2.64,0,0,1,1.83.54,2,2,0,0,1,.59,1.52v3.56a.47.47,0,0,0,.11.33.46.46,0,0,0,.36.12.7.7,0,0,0,.25,0Zm-1.52-3.54h0q-.12.22-.77.31l-.67.1-.74.12a2.67,2.67,0,0,0-1.17.44,1,1,0,0,0-.39.84,1.16,1.16,0,0,0,.43.94,1.6,1.6,0,0,0,1,.35,2.36,2.36,0,0,0,1.63-.58,1.85,1.85,0,0,0,.65-1.44Z"/><path class="cls-2" d="M177.76,159.48a4.77,4.77,0,0,1-.17,1.28,3.38,3.38,0,0,1-.53,1.11,2.69,2.69,0,0,1-.92.79,2.8,2.8,0,0,1-1.33.3,2.91,2.91,0,0,1-.72-.09,2.59,2.59,0,0,1-.66-.27,2.33,2.33,0,0,1-.55-.45,2.18,2.18,0,0,1-.4-.63h0v1.25h-.74v-9.08h.8v3.77h0a2,2,0,0,1,.36-.61,2.25,2.25,0,0,1,.54-.45,2.49,2.49,0,0,1,.66-.28,3,3,0,0,1,2,.18,2.63,2.63,0,0,1,.91.75,3.34,3.34,0,0,1,.55,1.1A5,5,0,0,1,177.76,159.48Zm-.8,0a4.4,4.4,0,0,0,0-.65,3.53,3.53,0,0,0-.16-.64,2.89,2.89,0,0,0-.28-.59,2.08,2.08,0,0,0-.41-.48,1.83,1.83,0,0,0-.55-.32,2,2,0,0,0-.71-.12,2,2,0,0,0-1.73.85,2.72,2.72,0,0,0-.42.89,3.94,3.94,0,0,0-.14,1.06,4.21,4.21,0,0,0,.13,1,2.67,2.67,0,0,0,.4.9,2.08,2.08,0,0,0,.71.63,2.18,2.18,0,0,0,1.06.24,1.88,1.88,0,0,0,1-.23,2,2,0,0,0,.66-.63,2.91,2.91,0,0,0,.38-.89A4.9,4.9,0,0,0,177,159.48Z"/><path class="cls-2" d="M182.2,156a2.71,2.71,0,0,1,1.3.29,2.6,2.6,0,0,1,.9.79,3.44,3.44,0,0,1,.52,1.13,5.22,5.22,0,0,1,.17,1.34v.13H180a3.58,3.58,0,0,0,.13.94,2.58,2.58,0,0,0,.39.83,2,2,0,0,0,.66.59,1.92,1.92,0,0,0,.95.22,2.44,2.44,0,0,0,.7-.09,2,2,0,0,0,.56-.26,1.76,1.76,0,0,0,.42-.39,2.4,2.4,0,0,0,.29-.49h.79a3,3,0,0,1-.38.79,2.48,2.48,0,0,1-.59.6,2.68,2.68,0,0,1-.79.39,3.33,3.33,0,0,1-1,.14,2.94,2.94,0,0,1-1.3-.27A2.56,2.56,0,0,1,180,162a3.12,3.12,0,0,1-.54-1.1,5.13,5.13,0,0,1-.18-1.37,4.66,4.66,0,0,1,.18-1.28,3.37,3.37,0,0,1,.54-1.11,2.74,2.74,0,0,1,.92-.78A2.79,2.79,0,0,1,182.2,156Zm2.09,3a3,3,0,0,0-.16-.85,2.44,2.44,0,0,0-.41-.75,2.07,2.07,0,0,0-.65-.54,1.84,1.84,0,0,0-.88-.21,1.84,1.84,0,0,0-1.5.7,2.69,2.69,0,0,0-.42.75,4.32,4.32,0,0,0-.23.9Z"/><path class="cls-2" d="M187.59,153.68v9.08h-.8v-9.08Z"/><rect class="cls-5" x="137" y="155" width="8" height="8"/></g></svg>