<svg xmlns="http://www.w3.org/2000/svg" viewBox="0 0 197 84"><defs><style>.cls-1{fill:#fff;}.cls-2{fill:#dcdcdc;}.cls-3{fill:#828282;}.cls-4{opacity:0.5;}.cls-5{fill:#bedef6;}.cls-6{fill:#389aea;}</style></defs><title>Artboard 36</title><g id="Layer_1" data-name="Layer 1"><rect class="cls-1" x="7.5" y="23.5" width="179" height="35"/><path class="cls-2" d="M186,24V58H8V24H186m1-1H7V59H187V23Z"/><path class="cls-3" d="M9,5.81v7.87h4.8v.7H8.2V5.81Z"/><path class="cls-3" d="M20.63,14.33l-.27,0h-.24a1.37,1.37,0,0,1-.44-.06.65.65,0,0,1-.29-.2.82.82,0,0,1-.16-.35,2.43,2.43,0,0,1-.05-.53h0a3,3,0,0,1-1,1,2.79,2.79,0,0,1-1.35.29,2.46,2.46,0,0,1-1.6-.5,1.75,1.75,0,0,1-.6-1.43,1.66,1.66,0,0,1,.66-1.43,6.79,6.79,0,0,1,3-.69,2,2,0,0,0,.44-.08.75.75,0,0,0,.29-.16.6.6,0,0,0,.16-.26,1.28,1.28,0,0,0,0-.38,1.24,1.24,0,0,0-.4-1,2,2,0,0,0-1.31-.34,2.6,2.6,0,0,0-.72.09,1.66,1.66,0,0,0-.53.25A1.13,1.13,0,0,0,15.8,9a1.23,1.23,0,0,0-.13.49h-.8a2,2,0,0,1,.22-.78,1.77,1.77,0,0,1,.51-.59,2.43,2.43,0,0,1,.81-.38,4,4,0,0,1,1.09-.13,2.64,2.64,0,0,1,1.83.54,2,2,0,0,1,.59,1.52v3.56a.47.47,0,0,0,.11.33.46.46,0,0,0,.36.12.7.7,0,0,0,.25,0ZM19.1,10.78h0q-.12.22-.77.31l-.66.1-.74.12a2.67,2.67,0,0,0-1.17.44,1,1,0,0,0-.39.84,1.16,1.16,0,0,0,.43.94,1.6,1.6,0,0,0,1,.35,2.36,2.36,0,0,0,1.63-.58,1.85,1.85,0,0,0,.65-1.44Z"/><path class="cls-3" d="M28.12,11.09a4.77,4.77,0,0,1-.17,1.28,3.38,3.38,0,0,1-.53,1.11,2.69,2.69,0,0,1-.92.79,2.8,2.8,0,0,1-1.33.3,2.9,2.9,0,0,1-.72-.09,2.59,2.59,0,0,1-.66-.27,2.34,2.34,0,0,1-.55-.45,2.18,2.18,0,0,1-.4-.63h0v1.25h-.74V5.29h.8V9.06h0a2,2,0,0,1,.36-.61A2.24,2.24,0,0,1,23.78,8a2.5,2.5,0,0,1,.66-.28,3,3,0,0,1,2,.18,2.62,2.62,0,0,1,.91.75,3.35,3.35,0,0,1,.55,1.1A5,5,0,0,1,28.12,11.09Zm-.8,0a4.38,4.38,0,0,0,0-.65,3.54,3.54,0,0,0-.16-.64,2.89,2.89,0,0,0-.28-.59,2.09,2.09,0,0,0-.41-.48,1.83,1.83,0,0,0-.55-.32,2,2,0,0,0-.71-.12,2.05,2.05,0,0,0-1.72.85A2.72,2.72,0,0,0,23,10a3.94,3.94,0,0,0-.14,1.06,4.21,4.21,0,0,0,.13,1,2.67,2.67,0,0,0,.4.9,2.08,2.08,0,0,0,.71.63,2.17,2.17,0,0,0,1.06.24,1.88,1.88,0,0,0,1-.23,2,2,0,0,0,.66-.63,2.91,2.91,0,0,0,.38-.89A4.91,4.91,0,0,0,27.32,11.09Z"/><path class="cls-3" d="M32.56,7.62a2.71,2.71,0,0,1,1.3.29,2.6,2.6,0,0,1,.9.79,3.45,3.45,0,0,1,.52,1.13,5.21,5.21,0,0,1,.17,1.34v.13H30.4a3.58,3.58,0,0,0,.13.94,2.59,2.59,0,0,0,.39.83,2,2,0,0,0,.66.59,1.92,1.92,0,0,0,.95.22,2.45,2.45,0,0,0,.7-.09,2,2,0,0,0,.56-.26,1.76,1.76,0,0,0,.42-.39,2.41,2.41,0,0,0,.29-.49h.79a3,3,0,0,1-.38.79,2.48,2.48,0,0,1-.59.6,2.68,2.68,0,0,1-.79.39,3.34,3.34,0,0,1-1,.14,2.93,2.93,0,0,1-1.3-.27,2.56,2.56,0,0,1-.91-.73,3.12,3.12,0,0,1-.54-1.1,5.14,5.14,0,0,1-.18-1.37,4.66,4.66,0,0,1,.18-1.28,3.36,3.36,0,0,1,.54-1.11,2.74,2.74,0,0,1,.92-.78A2.78,2.78,0,0,1,32.56,7.62Zm2.09,3a3,3,0,0,0-.16-.85A2.44,2.44,0,0,0,34.08,9a2.07,2.07,0,0,0-.65-.54,1.85,1.85,0,0,0-.88-.21,1.84,1.84,0,0,0-1.5.7,2.7,2.7,0,0,0-.42.75,4.31,4.31,0,0,0-.23.9Z"/><path class="cls-3" d="M37.95,5.29v9.08h-.8V5.29Z"/><g class="cls-4"><rect class="cls-5" x="13" y="29" width="82" height="24"/></g><path class="cls-6" d="M29.07,36.57v1.27H26.34v7.3H24.85v-7.3H22.13V36.57Z"/><path class="cls-6" d="M35.1,45.14l-.44.09-.39,0a1.79,1.79,0,0,1-.42,0A.91.91,0,0,1,33.5,45a.84.84,0,0,1-.24-.29,1.28,1.28,0,0,1-.12-.45h0a2.67,2.67,0,0,1-.45.46,2.3,2.3,0,0,1-.52.31,3.32,3.32,0,0,1-1.31.24,2.42,2.42,0,0,1-1.62-.51,1.77,1.77,0,0,1-.6-1.45,1.7,1.7,0,0,1,.6-1.42,2.11,2.11,0,0,1,.58-.32,4.68,4.68,0,0,1,.73-.2q.39-.08.82-.13l.87-.1.34-.07a.8.8,0,0,0,.27-.13.59.59,0,0,0,.17-.22.79.79,0,0,0,.06-.33,1,1,0,0,0-.31-.79,2.11,2.11,0,0,0-2.05,0,1,1,0,0,0-.39.73H28.85a2,2,0,0,1,.28-.9,2,2,0,0,1,.62-.62,2.88,2.88,0,0,1,.9-.36,5.08,5.08,0,0,1,1.13-.12,3.42,3.42,0,0,1,2,.5,1.65,1.65,0,0,1,.67,1.41v3.54a.47.47,0,0,0,.08.3.33.33,0,0,0,.27.1H35l.13,0Zm-2-3.35h0a1,1,0,0,1-.54.23l-.48.08-.65.11a2.2,2.2,0,0,0-1,.37.87.87,0,0,0-.32.72.89.89,0,0,0,.37.76,1.48,1.48,0,0,0,.87.24,1.79,1.79,0,0,0,1.27-.43,1.59,1.59,0,0,0,.49-1.24Z"/><path class="cls-6" d="M39,38.39a2.35,2.35,0,0,1,1.2.3,2.12,2.12,0,0,1,.81.85h0v-1h1.39v6.17A3.42,3.42,0,0,1,42.24,46a2.39,2.39,0,0,1-.65.92,2.71,2.71,0,0,1-1,.54,4.81,4.81,0,0,1-1.35.18,4.46,4.46,0,0,1-1-.11,2.93,2.93,0,0,1-.86-.33,2.12,2.12,0,0,1-.65-.59,1.76,1.76,0,0,1-.31-.86h1.44a1,1,0,0,0,.49.66,2,2,0,0,0,1,.22,1.64,1.64,0,0,0,1.28-.49,2,2,0,0,0,.44-1.4v-1h0a2,2,0,0,1-.82.84,2.47,2.47,0,0,1-1.22.3,2.92,2.92,0,0,1-1.26-.25,2.46,2.46,0,0,1-.88-.69,3,3,0,0,1-.52-1,4.7,4.7,0,0,1-.17-1.3,4.06,4.06,0,0,1,.18-1.22,3.1,3.1,0,0,1,.54-1,2.67,2.67,0,0,1,.9-.72A2.76,2.76,0,0,1,39,38.39Zm-1.42,3.25a3.41,3.41,0,0,0,.11.87,2,2,0,0,0,.32.68,1.48,1.48,0,0,0,.53.44,1.65,1.65,0,0,0,.74.16,1.58,1.58,0,0,0,.75-.17,1.71,1.71,0,0,0,.55-.46,2,2,0,0,0,.34-.66,2.63,2.63,0,0,0,.11-.78,3.51,3.51,0,0,0-.11-.88,2.07,2.07,0,0,0-.32-.71,1.53,1.53,0,0,0-.55-.47,1.68,1.68,0,0,0-.78-.17,1.57,1.57,0,0,0-.77.18,1.53,1.53,0,0,0-.53.48,2.15,2.15,0,0,0-.3.69A3.18,3.18,0,0,0,37.62,41.64Z"/><path class="cls-6" d="M54.23,41.86A4.09,4.09,0,0,1,54,43.24a3.1,3.1,0,0,1-.68,1.11,3,3,0,0,1-1,.73,3.49,3.49,0,0,1-1.36.25,3.12,3.12,0,0,1-2.38-1,3.94,3.94,0,0,1,0-5,3.1,3.1,0,0,1,2.39-1,3.15,3.15,0,0,1,2.4,1A3.54,3.54,0,0,1,54.23,41.86Zm-1.45,0a3.59,3.59,0,0,0-.11-.92,2.21,2.21,0,0,0-.35-.75,1.68,1.68,0,0,0-.58-.5,1.75,1.75,0,0,0-.83-.18,1.71,1.71,0,0,0-.77.17,1.62,1.62,0,0,0-.57.48,2.23,2.23,0,0,0-.36.74,3.79,3.79,0,0,0,0,1.9,2.19,2.19,0,0,0,.35.74,1.67,1.67,0,0,0,.58.49,1.7,1.7,0,0,0,.79.18,1.72,1.72,0,0,0,.79-.18,1.68,1.68,0,0,0,.58-.49,2.24,2.24,0,0,0,.36-.74A3.41,3.41,0,0,0,52.79,41.86Z"/><path class="cls-6" d="M59.31,38.39a3.25,3.25,0,0,1,1.1.16,1.8,1.8,0,0,1,.74.49,2,2,0,0,1,.42.81A4.28,4.28,0,0,1,61.7,41v4.17H60.26v-3.9A2.11,2.11,0,0,0,59.95,40a1.19,1.19,0,0,0-1-.43,1.48,1.48,0,0,0-1.23.52,2.28,2.28,0,0,0-.41,1.45v3.63H55.84V38.57h1.38v1h0a2.14,2.14,0,0,1,.37-.5,2.24,2.24,0,0,1,.48-.37,2.34,2.34,0,0,1,.57-.23A2.51,2.51,0,0,1,59.31,38.39Z"/><path class="cls-6" d="M66.44,38.39a3,3,0,0,1,1.34.28,2.78,2.78,0,0,1,1,.77,3.33,3.33,0,0,1,.58,1.13,4.76,4.76,0,0,1,.19,1.37v.26H64.67a2.77,2.77,0,0,0,.13.81,1.9,1.9,0,0,0,.35.63,1.55,1.55,0,0,0,.54.41,1.7,1.7,0,0,0,.72.15,1.9,1.9,0,0,0,1-.23,1.7,1.7,0,0,0,.61-.6h1.37a3.06,3.06,0,0,1-.45.81,2.83,2.83,0,0,1-.66.62,3,3,0,0,1-.85.39,3.66,3.66,0,0,1-1,.13,3.28,3.28,0,0,1-1.33-.26,2.82,2.82,0,0,1-1-.72,3.18,3.18,0,0,1-.62-1.1,4.31,4.31,0,0,1-.22-1.4,4,4,0,0,1,.22-1.33,3.3,3.3,0,0,1,.63-1.1,3,3,0,0,1,1-.76A3.16,3.16,0,0,1,66.44,38.39Zm1.63,2.85a2.77,2.77,0,0,0-.16-.71,1.73,1.73,0,0,0-.33-.55,1.43,1.43,0,0,0-.5-.35,1.91,1.91,0,0,0-1.37,0,1.51,1.51,0,0,0-.52.36,1.79,1.79,0,0,0-.35.55,2.54,2.54,0,0,0-.17.7Z"/><polygon class="cls-6" points="87.02 38.14 86.31 37.43 83.16 40.58 80.02 37.43 79.31 38.14 82.46 41.29 79.31 44.43 80.02 45.14 83.16 41.99 86.31 45.14 87.02 44.43 83.87 41.29 87.02 38.14"/></g></svg>