<svg xmlns="http://www.w3.org/2000/svg" viewBox="0 0 320 240"><defs><style>.cls-1,.cls-2{fill:#fff;}.cls-2{opacity:0.6;}.cls-3{opacity:0.4;}.cls-4{fill:#959595;}.cls-5{fill:#464646;}.cls-6{fill:#389aea;}.cls-7,.cls-8,.cls-9{fill:none;stroke-miterlimit:10;}.cls-7{stroke:#389aea;}.cls-8{stroke:#6ebd8a;stroke-width:3px;}.cls-9{stroke:#1e1e1e;}.cls-10{fill:#6ebd8a;}</style></defs><title>Artboard 41</title><g id="Layer_1" data-name="Layer 1"><rect class="cls-1" x="7" y="109.07" width="276" height="35"/><rect class="cls-2" x="7" y="109" width="276" height="35"/><g class="cls-3"><path class="cls-4" d="M282,110v33H8V110H282m1-1H7v35H283V109Z"/></g><rect class="cls-1" x="7" y="29" width="276" height="35"/><rect class="cls-2" x="7" y="29" width="276" height="35"/><g class="cls-3"><path class="cls-4" d="M282,30V63H8V30H282m1-1H7V64H283V29Z"/></g><path class="cls-5" d="M22.73,49.9h-.83a4.59,4.59,0,0,1-.74-.06,1.58,1.58,0,0,1-.6-.22,1.12,1.12,0,0,1-.4-.45,1.67,1.67,0,0,1-.15-.76V44.3H18.72v-1H20v-2h1.45v2H23v1h-1.5V48a.83.83,0,0,0,.17.58.8.8,0,0,0,.59.18h.57l.17,0v1.14Z"/><path class="cls-5" d="M30.59,46.57A4.09,4.09,0,0,1,30.37,48a3.1,3.1,0,0,1-.68,1.11,3,3,0,0,1-1,.73,3.49,3.49,0,0,1-1.36.25,3.12,3.12,0,0,1-2.38-1,3.94,3.94,0,0,1,0-5,3.1,3.1,0,0,1,2.39-1,3.15,3.15,0,0,1,2.4,1A3.54,3.54,0,0,1,30.59,46.57Zm-1.45,0a3.59,3.59,0,0,0-.11-.92,2.21,2.21,0,0,0-.35-.75,1.68,1.68,0,0,0-.58-.5,1.75,1.75,0,0,0-.83-.18,1.71,1.71,0,0,0-.77.17,1.62,1.62,0,0,0-.57.48,2.23,2.23,0,0,0-.36.74,3.79,3.79,0,0,0,0,1.9,2.19,2.19,0,0,0,.35.74,1.67,1.67,0,0,0,.58.49,1.7,1.7,0,0,0,.79.18,1.72,1.72,0,0,0,.79-.18,1.68,1.68,0,0,0,.58-.49,2.24,2.24,0,0,0,.36-.74A3.41,3.41,0,0,0,29.15,46.57Z"/><path class="cls-5" d="M40.5,49.85v-4a3.44,3.44,0,0,0-.05-.62,1.26,1.26,0,0,0-.19-.49,1,1,0,0,0-.39-.32,1.48,1.48,0,0,0-.63-.12,1.24,1.24,0,0,0-1.06.47,2.29,2.29,0,0,0-.35,1.38v3.74H36.36V45.65a1.64,1.64,0,0,0-.28-1,1.1,1.1,0,0,0-.91-.35,1.34,1.34,0,0,0-1.08.48,2,2,0,0,0-.4,1.31v3.81H32.25V43.28h1.36v1h0a2.31,2.31,0,0,1,2.06-1.15,2.27,2.27,0,0,1,1.2.3,1.71,1.71,0,0,1,.71.86,2.45,2.45,0,0,1,.87-.86,2.21,2.21,0,0,1,3.47,2v4.48Z"/><path class="cls-5" d="M45.46,48.21v1.64H43.86V48.21Z"/><path class="cls-5" d="M53.5,40.77v9.08H52.13v-1h0a2.07,2.07,0,0,1-.37.5,2.16,2.16,0,0,1-.49.37,2.44,2.44,0,0,1-.59.23A2.79,2.79,0,0,1,50,50a2.72,2.72,0,0,1-1.28-.29,2.76,2.76,0,0,1-.92-.77,3.38,3.38,0,0,1-.56-1.12A4.69,4.69,0,0,1,47,46.53a4.52,4.52,0,0,1,.18-1.26,3.34,3.34,0,0,1,.54-1.1,2.75,2.75,0,0,1,.91-.77,2.91,2.91,0,0,1,1.92-.22,2.49,2.49,0,0,1,.58.21,2.07,2.07,0,0,1,.49.35,2,2,0,0,1,.37.5h0V40.77Zm-5,5.79a3.63,3.63,0,0,0,.1.82,2.44,2.44,0,0,0,.31.76,1.81,1.81,0,0,0,.56.56,1.5,1.5,0,0,0,.83.22,1.73,1.73,0,0,0,.79-.17,1.58,1.58,0,0,0,.57-.49,2.25,2.25,0,0,0,.35-.75,3.68,3.68,0,0,0,.12-1,3.73,3.73,0,0,0-.1-.84,2.3,2.3,0,0,0-.31-.75,1.72,1.72,0,0,0-.57-.54,1.64,1.64,0,0,0-.85-.21,1.56,1.56,0,0,0-.82.2,1.7,1.7,0,0,0-.55.53,2.35,2.35,0,0,0-.32.75A3.93,3.93,0,0,0,48.47,46.56Z"/><path class="cls-5" d="M61.7,46.57A4.09,4.09,0,0,1,61.48,48a3.1,3.1,0,0,1-.68,1.11,3,3,0,0,1-1,.73A3.49,3.49,0,0,1,58.4,50a3.12,3.12,0,0,1-2.38-1,3.94,3.94,0,0,1,0-5,3.1,3.1,0,0,1,2.39-1,3.15,3.15,0,0,1,2.4,1A3.54,3.54,0,0,1,61.7,46.57Zm-1.45,0a3.59,3.59,0,0,0-.11-.92,2.21,2.21,0,0,0-.35-.75,1.68,1.68,0,0,0-.58-.5,1.75,1.75,0,0,0-.83-.18,1.71,1.71,0,0,0-.77.17,1.62,1.62,0,0,0-.57.48,2.23,2.23,0,0,0-.36.74,3.79,3.79,0,0,0,0,1.9,2.19,2.19,0,0,0,.35.74,1.67,1.67,0,0,0,.58.49,1.7,1.7,0,0,0,.79.18,1.72,1.72,0,0,0,.79-.18,1.68,1.68,0,0,0,.58-.49,2.24,2.24,0,0,0,.36-.74A3.41,3.41,0,0,0,60.25,46.57Z"/><path class="cls-5" d="M69.62,46.57A4.09,4.09,0,0,1,69.39,48a3.1,3.1,0,0,1-.68,1.11,3,3,0,0,1-1,.73,3.49,3.49,0,0,1-1.36.25,3.12,3.12,0,0,1-2.38-1,3.94,3.94,0,0,1,0-5,3.1,3.1,0,0,1,2.39-1,3.15,3.15,0,0,1,2.4,1A3.54,3.54,0,0,1,69.62,46.57Zm-1.45,0a3.59,3.59,0,0,0-.11-.92,2.21,2.21,0,0,0-.35-.75,1.68,1.68,0,0,0-.58-.5,1.75,1.75,0,0,0-.83-.18,1.71,1.71,0,0,0-.77.17,1.62,1.62,0,0,0-.57.48,2.23,2.23,0,0,0-.36.74,3.79,3.79,0,0,0,0,1.9,2.19,2.19,0,0,0,.35.74,1.67,1.67,0,0,0,.58.49,1.7,1.7,0,0,0,.79.18,1.72,1.72,0,0,0,.79-.18,1.68,1.68,0,0,0,.58-.49,2.24,2.24,0,0,0,.36-.74A3.41,3.41,0,0,0,68.17,46.57Z"/><path class="cls-5" d="M72.72,40.77v9.08H71.28V40.77Z"/><path class="cls-5" d="M77.51,43.1a3,3,0,0,1,1.34.28,2.78,2.78,0,0,1,1,.77,3.33,3.33,0,0,1,.58,1.13,4.76,4.76,0,0,1,.19,1.37v.26H75.74a2.77,2.77,0,0,0,.13.81,1.9,1.9,0,0,0,.35.63,1.55,1.55,0,0,0,.54.41,1.7,1.7,0,0,0,.72.15,1.9,1.9,0,0,0,1-.23,1.7,1.7,0,0,0,.61-.6h1.37a3.06,3.06,0,0,1-.45.81,2.83,2.83,0,0,1-.66.62,3,3,0,0,1-.85.39,3.66,3.66,0,0,1-1,.13,3.28,3.28,0,0,1-1.33-.26,2.82,2.82,0,0,1-1-.72,3.18,3.18,0,0,1-.62-1.1,4.31,4.31,0,0,1-.22-1.4,4,4,0,0,1,.22-1.33,3.3,3.3,0,0,1,.63-1.1,3,3,0,0,1,1-.76A3.16,3.16,0,0,1,77.51,43.1ZM79.14,46a2.77,2.77,0,0,0-.16-.71,1.73,1.73,0,0,0-.33-.55,1.43,1.43,0,0,0-.5-.35,1.91,1.91,0,0,0-1.37,0,1.51,1.51,0,0,0-.52.36,1.79,1.79,0,0,0-.35.55,2.54,2.54,0,0,0-.17.7Z"/><path class="cls-5" d="M82.79,43.28l1.73,5h0l1.64-5h1.49L84.86,50.8a3,3,0,0,1-.29.59,1.79,1.79,0,0,1-.4.44,1.71,1.71,0,0,1-.54.28,2.43,2.43,0,0,1-.72.1l-.54,0-.46,0v-1.2l.45.05h.35a1,1,0,0,0,.4-.07.76.76,0,0,0,.28-.21,1.39,1.39,0,0,0,.21-.36q.09-.22.18-.52l-2.53-6.57Z"/><path class="cls-5" d="M93.69,41.42a5.87,5.87,0,0,1,1.09.1,5.07,5.07,0,0,1,1,.31,4.55,4.55,0,0,1,.92.52,3.46,3.46,0,0,1,.74.73A3.34,3.34,0,0,1,98,44a3.58,3.58,0,0,1,.18,1.15,3.19,3.19,0,0,1-.13.93,3.14,3.14,0,0,1-.92,1.45,3.47,3.47,0,0,1-.7.49,3.62,3.62,0,0,1-1.67.41,1,1,0,0,1-.59-.15.57.57,0,0,1-.24-.42h0a1.6,1.6,0,0,1-.56.44,1.52,1.52,0,0,1-.63.14,1.25,1.25,0,0,1-.57-.13,1.28,1.28,0,0,1-.42-.34,1.48,1.48,0,0,1-.26-.5,2,2,0,0,1-.09-.59,3,3,0,0,1,.57-1.72,2.26,2.26,0,0,1,.67-.6,1.75,1.75,0,0,1,.9-.23,1.19,1.19,0,0,1,.65.18,1.22,1.22,0,0,1,.45.54l.19-.56h.88L95,46.74q-.05.18-.08.33a.87.87,0,0,0,0,.24.22.22,0,0,0,.07.15.31.31,0,0,0,.2.05,1.8,1.8,0,0,0,.72-.16,2.13,2.13,0,0,0,.67-.46,2.35,2.35,0,0,0,.68-1.7A2.64,2.64,0,0,0,96.95,44a2.85,2.85,0,0,0-.77-.94,3.62,3.62,0,0,0-1.14-.6,4.44,4.44,0,0,0-1.38-.21,4.25,4.25,0,0,0-1.66.31,3.8,3.8,0,0,0-1.28.87,3.89,3.89,0,0,0-.83,1.32,4.56,4.56,0,0,0-.29,1.66,4.71,4.71,0,0,0,.27,1.6,3.92,3.92,0,0,0,.76,1.3,3.52,3.52,0,0,0,1.19.87,3.68,3.68,0,0,0,1.54.32,4.31,4.31,0,0,0,1.81-.37,4,4,0,0,0,1.39-1h1.13a4.31,4.31,0,0,1-.77.91,4.85,4.85,0,0,1-1,.7,5.28,5.28,0,0,1-1.2.45,5.72,5.72,0,0,1-1.36.16,5.06,5.06,0,0,1-1.3-.16,4.62,4.62,0,0,1-1.14-.47,4.35,4.35,0,0,1-.95-.74,4.45,4.45,0,0,1-.72-1,5.11,5.11,0,0,1-.46-1.19,5.58,5.58,0,0,1-.16-1.36,5,5,0,0,1,.68-2.54,4.72,4.72,0,0,1,.79-1,4.88,4.88,0,0,1,1-.76,5.14,5.14,0,0,1,1.22-.48A5.45,5.45,0,0,1,93.69,41.42Zm-1.37,5.33a1,1,0,0,0,0,.28.76.76,0,0,0,.11.24.58.58,0,0,0,.19.17.56.56,0,0,0,.28.06.82.82,0,0,0,.47-.15,1.44,1.44,0,0,0,.38-.37,1.89,1.89,0,0,0,.25-.49,1.56,1.56,0,0,0,.09-.49.91.91,0,0,0,0-.26A.7.7,0,0,0,94,45.5a.61.61,0,0,0-.2-.17.62.62,0,0,0-.29-.06.84.84,0,0,0-.46.13,1.31,1.31,0,0,0-.36.35,1.74,1.74,0,0,0-.24.47A1.65,1.65,0,0,0,92.32,46.74Z"/><path class="cls-5" d="M102.76,43.1a3,3,0,0,1,1.34.28,2.78,2.78,0,0,1,1,.77,3.33,3.33,0,0,1,.58,1.13,4.76,4.76,0,0,1,.19,1.37v.26H101a2.77,2.77,0,0,0,.13.81,1.9,1.9,0,0,0,.35.63,1.55,1.55,0,0,0,.54.41,1.7,1.7,0,0,0,.72.15,1.9,1.9,0,0,0,1-.23,1.7,1.7,0,0,0,.61-.6h1.37a3.06,3.06,0,0,1-.45.81,2.83,2.83,0,0,1-.66.62,3,3,0,0,1-.85.39,3.66,3.66,0,0,1-1,.13,3.28,3.28,0,0,1-1.33-.26,2.82,2.82,0,0,1-1-.72,3.18,3.18,0,0,1-.62-1.1,4.31,4.31,0,0,1-.22-1.4,4,4,0,0,1,.22-1.33,3.3,3.3,0,0,1,.63-1.1,3,3,0,0,1,1-.76A3.16,3.16,0,0,1,102.76,43.1ZM104.39,46a2.77,2.77,0,0,0-.16-.71,1.73,1.73,0,0,0-.33-.55,1.43,1.43,0,0,0-.5-.35,1.91,1.91,0,0,0-1.37,0,1.51,1.51,0,0,0-.52.36,1.79,1.79,0,0,0-.35.55,2.54,2.54,0,0,0-.17.7Z"/><path class="cls-5" d="M115.64,49.85v-4a3.44,3.44,0,0,0-.05-.62,1.26,1.26,0,0,0-.19-.49,1,1,0,0,0-.39-.32,1.48,1.48,0,0,0-.63-.12,1.24,1.24,0,0,0-1.06.47,2.29,2.29,0,0,0-.35,1.38v3.74h-1.45V45.65a1.64,1.64,0,0,0-.28-1,1.1,1.1,0,0,0-.91-.35,1.34,1.34,0,0,0-1.08.48,2,2,0,0,0-.4,1.31v3.81h-1.45V43.28h1.36v1h0a2.31,2.31,0,0,1,2.06-1.15,2.27,2.27,0,0,1,1.2.3,1.71,1.71,0,0,1,.71.86,2.45,2.45,0,0,1,.87-.86,2.21,2.21,0,0,1,3.47,2v4.48Z"/><path class="cls-5" d="M125.16,49.85l-.44.09-.39,0a1.79,1.79,0,0,1-.42,0,.91.91,0,0,1-.34-.16.84.84,0,0,1-.24-.29,1.28,1.28,0,0,1-.12-.45h0a2.67,2.67,0,0,1-.45.46,2.3,2.3,0,0,1-.52.31,3.32,3.32,0,0,1-1.31.24,2.42,2.42,0,0,1-1.62-.51,1.77,1.77,0,0,1-.6-1.45,1.7,1.7,0,0,1,.6-1.42,2.11,2.11,0,0,1,.58-.32,4.68,4.68,0,0,1,.73-.2q.39-.08.82-.13l.87-.1.34-.07a.8.8,0,0,0,.27-.13.59.59,0,0,0,.17-.22.79.79,0,0,0,.06-.33,1,1,0,0,0-.31-.79,2.11,2.11,0,0,0-2.05,0,1,1,0,0,0-.39.73h-1.45a2,2,0,0,1,.28-.9,2,2,0,0,1,.62-.62,2.88,2.88,0,0,1,.9-.36,5.08,5.08,0,0,1,1.13-.12,3.42,3.42,0,0,1,2,.5,1.65,1.65,0,0,1,.67,1.41v3.54a.47.47,0,0,0,.08.3.33.33,0,0,0,.27.1H125l.13,0Zm-2-3.35h0a1,1,0,0,1-.54.23l-.48.08-.65.11a2.2,2.2,0,0,0-1,.37.87.87,0,0,0-.32.72.89.89,0,0,0,.37.76,1.48,1.48,0,0,0,.87.24,1.79,1.79,0,0,0,1.27-.43,1.59,1.59,0,0,0,.49-1.24Z"/><path class="cls-5" d="M128,40.42v1.42h-1.45V40.42Zm0,2.86v6.57h-1.45V43.28Z"/><path class="cls-5" d="M131.47,40.77v9.08H130V40.77Z"/><path class="cls-5" d="M135,48.21v1.64h-1.61V48.21Z"/><path class="cls-5" d="M139.87,43.1a4.08,4.08,0,0,1,1.06.13,2.82,2.82,0,0,1,.89.41,2.27,2.27,0,0,1,.64.68,2.3,2.3,0,0,1,.31.95h-1.42a1.21,1.21,0,0,0-.47-.78,1.69,1.69,0,0,0-1-.27,1.53,1.53,0,0,0-.81.21,1.8,1.8,0,0,0-.57.54,2.44,2.44,0,0,0-.33.76,3.42,3.42,0,0,0,0,1.67,2.42,2.42,0,0,0,.32.75,1.78,1.78,0,0,0,.56.55,1.51,1.51,0,0,0,.82.21,1.81,1.81,0,0,0,.6-.09,1.48,1.48,0,0,0,.47-.26,1.4,1.4,0,0,0,.33-.41,1.75,1.75,0,0,0,.18-.52h1.4a3.08,3.08,0,0,1-.33,1,2.59,2.59,0,0,1-.62.76,2.78,2.78,0,0,1-.89.49,3.49,3.49,0,0,1-1.14.18,3.33,3.33,0,0,1-1.32-.25,3,3,0,0,1-1-.71,3.22,3.22,0,0,1-.67-1.08,3.83,3.83,0,0,1-.24-1.37,4.25,4.25,0,0,1,.21-1.36,3.31,3.31,0,0,1,.63-1.12,3,3,0,0,1,1-.76A3.33,3.33,0,0,1,139.87,43.1Z"/><path class="cls-5" d="M150.63,46.57A4.09,4.09,0,0,1,150.4,48a3.1,3.1,0,0,1-.68,1.11,3,3,0,0,1-1,.73,3.49,3.49,0,0,1-1.36.25,3.12,3.12,0,0,1-2.38-1,3.94,3.94,0,0,1,0-5,3.1,3.1,0,0,1,2.39-1,3.15,3.15,0,0,1,2.4,1A3.54,3.54,0,0,1,150.63,46.57Zm-1.45,0a3.59,3.59,0,0,0-.11-.92,2.21,2.21,0,0,0-.35-.75,1.68,1.68,0,0,0-.58-.5,1.75,1.75,0,0,0-.83-.18,1.71,1.71,0,0,0-.77.17,1.62,1.62,0,0,0-.57.48,2.23,2.23,0,0,0-.36.74,3.79,3.79,0,0,0,0,1.9,2.19,2.19,0,0,0,.35.74,1.67,1.67,0,0,0,.58.49,1.7,1.7,0,0,0,.79.18,1.72,1.72,0,0,0,.79-.18,1.68,1.68,0,0,0,.58-.49,2.24,2.24,0,0,0,.36-.74A3.41,3.41,0,0,0,149.18,46.57Z"/><path class="cls-5" d="M160.53,49.85v-4a3.44,3.44,0,0,0-.05-.62,1.26,1.26,0,0,0-.19-.49,1,1,0,0,0-.39-.32,1.48,1.48,0,0,0-.63-.12,1.24,1.24,0,0,0-1.06.47,2.29,2.29,0,0,0-.35,1.38v3.74H156.4V45.65a1.64,1.64,0,0,0-.28-1,1.1,1.1,0,0,0-.91-.35,1.34,1.34,0,0,0-1.08.48,2,2,0,0,0-.4,1.31v3.81h-1.45V43.28h1.36v1h0a2.31,2.31,0,0,1,2.06-1.15,2.27,2.27,0,0,1,1.2.3,1.71,1.71,0,0,1,.71.86,2.45,2.45,0,0,1,.87-.86,2.21,2.21,0,0,1,3.47,2v4.48Z"/><path class="cls-5" d="M14,13.3V14H8.95v3.09h4.77v.69H8.95v3.38h5.14v.7h-6V13.3Z"/><path class="cls-5" d="M23.86,21.86V17.39a1.73,1.73,0,0,0-.37-1.22,1.55,1.55,0,0,0-1.17-.39,1.56,1.56,0,0,0-1.33.6,2.8,2.8,0,0,0-.45,1.71v3.77h-.81V17.36a1.81,1.81,0,0,0-.34-1.17,1.25,1.25,0,0,0-1-.42,1.72,1.72,0,0,0-1.46.65,2.72,2.72,0,0,0-.5,1.71v3.72h-.8V15.29h.74v1.1h0a2.26,2.26,0,0,1,2.15-1.29,2.44,2.44,0,0,1,.64.08,1.86,1.86,0,0,1,.54.24,1.66,1.66,0,0,1,.42.4,1.86,1.86,0,0,1,.28.55,2.16,2.16,0,0,1,.85-1,2.4,2.4,0,0,1,1.24-.32,2.12,2.12,0,0,1,1.63.58,2.36,2.36,0,0,1,.54,1.66v4.51Z"/><path class="cls-5" d="M32.52,21.81l-.27,0H32a1.37,1.37,0,0,1-.44-.06.65.65,0,0,1-.29-.2.82.82,0,0,1-.16-.35,2.43,2.43,0,0,1,0-.53h0a3,3,0,0,1-1,1,2.79,2.79,0,0,1-1.35.29,2.46,2.46,0,0,1-1.6-.5,1.75,1.75,0,0,1-.6-1.43,1.66,1.66,0,0,1,.66-1.43,6.79,6.79,0,0,1,3-.69,2,2,0,0,0,.44-.08.75.75,0,0,0,.29-.16.6.6,0,0,0,.16-.26,1.28,1.28,0,0,0,0-.38,1.24,1.24,0,0,0-.4-1,2,2,0,0,0-1.31-.34,2.61,2.61,0,0,0-.72.09,1.65,1.65,0,0,0-.53.25,1.13,1.13,0,0,0-.33.39,1.23,1.23,0,0,0-.13.49h-.8a2,2,0,0,1,.22-.78,1.78,1.78,0,0,1,.51-.59,2.43,2.43,0,0,1,.81-.38,4,4,0,0,1,1.09-.13,2.64,2.64,0,0,1,1.83.54,2,2,0,0,1,.59,1.52v3.56a.47.47,0,0,0,.11.33.46.46,0,0,0,.36.12.7.7,0,0,0,.25,0ZM31,18.27h0q-.12.22-.77.31l-.67.1-.74.12a2.67,2.67,0,0,0-1.17.44,1,1,0,0,0-.39.84,1.16,1.16,0,0,0,.43.94,1.6,1.6,0,0,0,1,.35,2.36,2.36,0,0,0,1.63-.58A1.85,1.85,0,0,0,31,19.35Z"/><path class="cls-5" d="M34.78,12.42v1.29H34V12.42Zm0,2.87v6.56H34V15.29Z"/><path class="cls-5" d="M37.81,12.78v9.08H37V12.78Z"/><path class="cls-5" d="M21.5,123.44a2.16,2.16,0,0,1,2.15,2.14,2.09,2.09,0,0,1-.63,1.51,2.14,2.14,0,0,1-3,0,2.1,2.1,0,0,1-.62-1.51,2.06,2.06,0,0,1,.62-1.5A2,2,0,0,1,21.5,123.44Z"/><path class="cls-5" d="M27.51,123.44a2.16,2.16,0,0,1,2.15,2.14,2.09,2.09,0,0,1-.63,1.51,2.14,2.14,0,0,1-3,0,2.1,2.1,0,0,1-.62-1.51,2.06,2.06,0,0,1,.62-1.5A2,2,0,0,1,27.51,123.44Z"/><path class="cls-5" d="M33.51,123.44a2.16,2.16,0,0,1,2.15,2.14,2.09,2.09,0,0,1-.63,1.51,2.14,2.14,0,0,1-3,0,2.1,2.1,0,0,1-.62-1.51,2.06,2.06,0,0,1,.62-1.5A2,2,0,0,1,33.51,123.44Z"/><path class="cls-5" d="M39.52,123.44a2.16,2.16,0,0,1,2.15,2.14,2.09,2.09,0,0,1-.63,1.51,2.14,2.14,0,0,1-3,0,2.1,2.1,0,0,1-.62-1.51,2.06,2.06,0,0,1,.62-1.5A2,2,0,0,1,39.52,123.44Z"/><path class="cls-5" d="M45.52,123.44a2.16,2.16,0,0,1,2.15,2.14,2.09,2.09,0,0,1-.63,1.51,2.14,2.14,0,0,1-3,0,2.1,2.1,0,0,1-.62-1.51,2.06,2.06,0,0,1,.62-1.5A2,2,0,0,1,45.52,123.44Z"/><path class="cls-5" d="M51.53,123.44a2.16,2.16,0,0,1,2.15,2.14,2.09,2.09,0,0,1-.63,1.51,2.14,2.14,0,0,1-3,0,2.1,2.1,0,0,1-.62-1.51,2.06,2.06,0,0,1,.62-1.5A2,2,0,0,1,51.53,123.44Z"/><path class="cls-5" d="M57.54,123.44a2.16,2.16,0,0,1,2.15,2.14,2.09,2.09,0,0,1-.63,1.51,2.14,2.14,0,0,1-3,0,2.1,2.1,0,0,1-.62-1.51,2.06,2.06,0,0,1,.62-1.5A2,2,0,0,1,57.54,123.44Z"/><path class="cls-5" d="M14.48,95.74a2.34,2.34,0,0,1-.7,1.8,2.55,2.55,0,0,1-1.8.64h-3v3.67H8.13V93.29H12a2.53,2.53,0,0,1,1.8.65A2.33,2.33,0,0,1,14.48,95.74Zm-.81,0a1.68,1.68,0,0,0-.5-1.29A2.11,2.11,0,0,0,11.69,94H8.95v3.5H11.8A2,2,0,0,0,13.15,97,1.65,1.65,0,0,0,13.67,95.74Z"/><path class="cls-5" d="M21.38,101.81l-.27,0h-.24a1.37,1.37,0,0,1-.44-.06.65.65,0,0,1-.29-.2.82.82,0,0,1-.16-.35,2.43,2.43,0,0,1,0-.53h0a3,3,0,0,1-1,1,2.79,2.79,0,0,1-1.35.29,2.46,2.46,0,0,1-1.6-.5,1.75,1.75,0,0,1-.6-1.43A1.66,1.66,0,0,1,16,98.7a6.79,6.79,0,0,1,3-.69,2,2,0,0,0,.44-.08.75.75,0,0,0,.29-.16.6.6,0,0,0,.16-.26,1.28,1.28,0,0,0,0-.38,1.24,1.24,0,0,0-.4-1,2,2,0,0,0-1.31-.34,2.61,2.61,0,0,0-.72.09,1.65,1.65,0,0,0-.53.25,1.13,1.13,0,0,0-.33.39,1.23,1.23,0,0,0-.13.49h-.8a2,2,0,0,1,.22-.78,1.78,1.78,0,0,1,.51-.59,2.43,2.43,0,0,1,.81-.38,4,4,0,0,1,1.09-.13,2.64,2.64,0,0,1,1.83.54,2,2,0,0,1,.59,1.52v3.56a.47.47,0,0,0,.11.33.46.46,0,0,0,.36.12.7.7,0,0,0,.25,0Zm-1.52-3.54h0q-.12.22-.77.31l-.67.1-.74.12a2.67,2.67,0,0,0-1.17.44,1,1,0,0,0-.39.84,1.16,1.16,0,0,0,.43.94,1.6,1.6,0,0,0,1,.35,2.36,2.36,0,0,0,1.63-.58,1.85,1.85,0,0,0,.65-1.44Z"/><path class="cls-5" d="M27.72,100.08a1.67,1.67,0,0,1-.22.88,1.89,1.89,0,0,1-.59.62,2.74,2.74,0,0,1-.84.36,4,4,0,0,1-1,.12,3.66,3.66,0,0,1-1.07-.14,2.4,2.4,0,0,1-.8-.41,2,2,0,0,1-.53-.64,2.4,2.4,0,0,1-.25-.85h.81a1.7,1.7,0,0,0,.2.56,1.41,1.41,0,0,0,.38.43,1.8,1.8,0,0,0,.57.28,2.56,2.56,0,0,0,.74.1,3,3,0,0,0,.6-.06,2.05,2.05,0,0,0,.58-.21,1.35,1.35,0,0,0,.44-.38,1,1,0,0,0,.18-.59.93.93,0,0,0-.34-.73,2.6,2.6,0,0,0-1.13-.46l-1-.22a4,4,0,0,1-.77-.24,2.1,2.1,0,0,1-.58-.37,1.46,1.46,0,0,1-.36-.5,1.62,1.62,0,0,1-.12-.65,1.57,1.57,0,0,1,.21-.83,1.78,1.78,0,0,1,.56-.57,2.53,2.53,0,0,1,.78-.33,3.77,3.77,0,0,1,.89-.11,3.27,3.27,0,0,1,.92.12,2.29,2.29,0,0,1,.73.35,1.83,1.83,0,0,1,.5.57,2.08,2.08,0,0,1,.25.78h-.8a1.32,1.32,0,0,0-.19-.5,1.24,1.24,0,0,0-.36-.37,1.69,1.69,0,0,0-.5-.22,2.36,2.36,0,0,0-.61-.08,2.85,2.85,0,0,0-.58.06,1.59,1.59,0,0,0-.51.19,1.07,1.07,0,0,0-.36.35,1,1,0,0,0-.13.53.74.74,0,0,0,.13.44,1.27,1.27,0,0,0,.33.32,1.93,1.93,0,0,0,.44.22,3.64,3.64,0,0,0,.46.13l1.37.3a2.85,2.85,0,0,1,.59.21,1.77,1.77,0,0,1,.5.35,1.64,1.64,0,0,1,.34.51A1.71,1.71,0,0,1,27.72,100.08Z"/><path class="cls-5" d="M34.39,100.08a1.67,1.67,0,0,1-.22.88,1.89,1.89,0,0,1-.59.62,2.74,2.74,0,0,1-.84.36,4,4,0,0,1-1,.12,3.66,3.66,0,0,1-1.07-.14,2.4,2.4,0,0,1-.8-.41,2,2,0,0,1-.53-.64,2.4,2.4,0,0,1-.25-.85h.81a1.7,1.7,0,0,0,.2.56,1.41,1.41,0,0,0,.38.43,1.8,1.8,0,0,0,.57.28,2.56,2.56,0,0,0,.74.1,3,3,0,0,0,.6-.06,2.05,2.05,0,0,0,.58-.21,1.35,1.35,0,0,0,.44-.38,1,1,0,0,0,.18-.59.93.93,0,0,0-.34-.73,2.6,2.6,0,0,0-1.13-.46l-1-.22a4,4,0,0,1-.77-.24,2.1,2.1,0,0,1-.58-.37,1.46,1.46,0,0,1-.36-.5,1.62,1.62,0,0,1-.12-.65,1.57,1.57,0,0,1,.21-.83,1.78,1.78,0,0,1,.56-.57,2.53,2.53,0,0,1,.78-.33,3.77,3.77,0,0,1,.89-.11,3.27,3.27,0,0,1,.92.12,2.29,2.29,0,0,1,.73.35,1.83,1.83,0,0,1,.5.57,2.08,2.08,0,0,1,.25.78h-.8a1.32,1.32,0,0,0-.19-.5,1.24,1.24,0,0,0-.36-.37,1.69,1.69,0,0,0-.5-.22,2.36,2.36,0,0,0-.61-.08,2.85,2.85,0,0,0-.58.06,1.59,1.59,0,0,0-.51.19,1.07,1.07,0,0,0-.36.35,1,1,0,0,0-.13.53.74.74,0,0,0,.13.44,1.27,1.27,0,0,0,.33.32,1.93,1.93,0,0,0,.44.22,3.64,3.64,0,0,0,.46.13l1.37.3a2.85,2.85,0,0,1,.59.21,1.77,1.77,0,0,1,.5.35,1.64,1.64,0,0,1,.34.51A1.71,1.71,0,0,1,34.39,100.08Z"/><path class="cls-5" d="M36.24,95.3l1.68,5.62h0l1.6-5.62h.9L42,100.92h0l1.68-5.62h.85l-2.12,6.56h-.87L40,96.34h0l-1.6,5.52h-.88L35.38,95.3Z"/><path class="cls-5" d="M51.84,98.58a4.29,4.29,0,0,1-.2,1.31A3.31,3.31,0,0,1,51,101a2.9,2.9,0,0,1-2.29,1,2.84,2.84,0,0,1-2.24-1,4.07,4.07,0,0,1,0-5,3.08,3.08,0,0,1,4.51,0A3.65,3.65,0,0,1,51.84,98.58Zm-.8,0a3.8,3.8,0,0,0-.13-1,2.81,2.81,0,0,0-.42-.9,2.25,2.25,0,0,0-.72-.65,2,2,0,0,0-1-.25,2,2,0,0,0-1,.24,2.24,2.24,0,0,0-.72.64,2.85,2.85,0,0,0-.44.9,3.66,3.66,0,0,0-.15,1,3.58,3.58,0,0,0,.14,1,3,3,0,0,0,.43.9,2.24,2.24,0,0,0,.71.65,2,2,0,0,0,1,.25,2,2,0,0,0,1-.24,2.33,2.33,0,0,0,.72-.63,2.8,2.8,0,0,0,.45-.89A3.54,3.54,0,0,0,51,98.58Z"/><path class="cls-5" d="M53.64,101.86V95.3h.74v1.54h0a2.56,2.56,0,0,1,.9-1.2,2.32,2.32,0,0,1,1.38-.43H57V96H56.8a2.22,2.22,0,0,0-1.71.69,2.36,2.36,0,0,0-.64,1.69v3.48Z"/><path class="cls-5" d="M63.85,92.78v9.08h-.74v-1.25h0a2,2,0,0,1-.39.59,2.57,2.57,0,0,1-.56.45,2.8,2.8,0,0,1-.67.29,2.63,2.63,0,0,1-.72.1,2.8,2.8,0,0,1-1.28-.28,2.68,2.68,0,0,1-.92-.75A3.32,3.32,0,0,1,58,99.92a4.68,4.68,0,0,1-.19-1.34A4.83,4.83,0,0,1,58,97.29a3.31,3.31,0,0,1,.53-1.11,2.69,2.69,0,0,1,.92-.78,3,3,0,0,1,2-.2,2.56,2.56,0,0,1,.65.27,2.25,2.25,0,0,1,.54.45,2.07,2.07,0,0,1,.38.63h0V92.78Zm-5.26,5.8a4.17,4.17,0,0,0,.05.65,3.7,3.7,0,0,0,.16.64,2.82,2.82,0,0,0,.28.58,2.15,2.15,0,0,0,.41.48,1.8,1.8,0,0,0,.55.32,2,2,0,0,0,.7.12,2.08,2.08,0,0,0,1.73-.84,2.66,2.66,0,0,0,.43-.89A4,4,0,0,0,63,98.58a4,4,0,0,0-.13-1,2.73,2.73,0,0,0-.41-.9,2.06,2.06,0,0,0-1.76-.88,1.94,1.94,0,0,0-.68.11,1.8,1.8,0,0,0-.54.31,2.15,2.15,0,0,0-.41.47,2.8,2.8,0,0,0-.29.58,3.52,3.52,0,0,0-.17.65A4.25,4.25,0,0,0,58.6,98.58Z"/><rect class="cls-6" x="188" y="191" width="94" height="35"/><rect class="cls-7" x="188" y="191" width="94" height="35"/><path class="cls-1" d="M221.46,209.86a2.31,2.31,0,0,1-.3,1.2,2.44,2.44,0,0,1-.8.82,3.67,3.67,0,0,1-1.16.47,6.23,6.23,0,0,1-1.38.15,5.46,5.46,0,0,1-1.41-.17,3.52,3.52,0,0,1-1.13-.51,2.52,2.52,0,0,1-.76-.84,2.32,2.32,0,0,1-.28-1.15v-.1h1.51v.05a1.31,1.31,0,0,0,.17.67,1.42,1.42,0,0,0,.46.48,2.2,2.2,0,0,0,.69.29,3.84,3.84,0,0,0,1.63,0,2.16,2.16,0,0,0,.65-.25,1.32,1.32,0,0,0,.44-.41A1,1,0,0,0,220,210a.92.92,0,0,0-.38-.76,3.4,3.4,0,0,0-1.2-.51l-1.89-.49a2.94,2.94,0,0,1-1.48-.78,2,2,0,0,1-.48-1.39,2.2,2.2,0,0,1,.27-1.09,2.38,2.38,0,0,1,.72-.79,3.36,3.36,0,0,1,1.06-.48,5.09,5.09,0,0,1,2.5,0,3.37,3.37,0,0,1,1,.46,2.34,2.34,0,0,1,.73.77,2.2,2.2,0,0,1,.29,1.09h-1.5a1.23,1.23,0,0,0-.16-.52,1.28,1.28,0,0,0-.38-.4,1.88,1.88,0,0,0-.56-.26,2.64,2.64,0,0,0-.73-.09,3.09,3.09,0,0,0-.68.07,1.82,1.82,0,0,0-.57.23,1.17,1.17,0,0,0-.39.38,1,1,0,0,0-.14.55,1,1,0,0,0,.07.39.82.82,0,0,0,.21.28,1.12,1.12,0,0,0,.32.19,3.16,3.16,0,0,0,.42.13l2.08.53a3.84,3.84,0,0,1,1.75.87A2,2,0,0,1,221.46,209.86Z"/><path class="cls-1" d="M224.42,202.87v1.42h-1.49v-1.42Zm0,2.86v6.57h-1.49v-6.57Z"/><path class="cls-1" d="M229.09,205.55a2.47,2.47,0,0,1,1.24.29,2.15,2.15,0,0,1,.83.85h0v-1h1.43v6.17a3.34,3.34,0,0,1-.24,1.31,2.4,2.4,0,0,1-.67.92,2.81,2.81,0,0,1-1.06.54,5.09,5.09,0,0,1-1.39.18,4.71,4.71,0,0,1-1-.11,3.05,3.05,0,0,1-.89-.33,2.16,2.16,0,0,1-.67-.59,1.72,1.72,0,0,1-.32-.86h1.48a1,1,0,0,0,.5.66,2.1,2.1,0,0,0,1,.22,1.72,1.72,0,0,0,1.32-.49,2,2,0,0,0,.46-1.4v-1h0a2,2,0,0,1-.84.84,2.6,2.6,0,0,1-1.26.3,3.08,3.08,0,0,1-1.3-.25,2.52,2.52,0,0,1-.91-.69,2.93,2.93,0,0,1-.54-1,4.58,4.58,0,0,1-.18-1.3,4,4,0,0,1,.19-1.22,3.06,3.06,0,0,1,.56-1,2.73,2.73,0,0,1,.93-.72A2.91,2.91,0,0,1,229.09,205.55Zm-1.47,3.25a3.32,3.32,0,0,0,.11.87,1.93,1.93,0,0,0,.33.68,1.52,1.52,0,0,0,.55.44,1.74,1.74,0,0,0,.76.16,1.67,1.67,0,0,0,.77-.17,1.74,1.74,0,0,0,.57-.46,2,2,0,0,0,.35-.66,2.53,2.53,0,0,0,.12-.78,3.43,3.43,0,0,0-.11-.88,2,2,0,0,0-.33-.71,1.56,1.56,0,0,0-.56-.47,1.77,1.77,0,0,0-.8-.17,1.65,1.65,0,0,0-.8.18,1.56,1.56,0,0,0-.54.48,2.12,2.12,0,0,0-.31.69A3.1,3.1,0,0,0,227.63,208.8Z"/><path class="cls-1" d="M238.21,205.55a3.43,3.43,0,0,1,1.13.16,1.87,1.87,0,0,1,.77.49,1.93,1.93,0,0,1,.43.8,4.16,4.16,0,0,1,.14,1.12v4.17h-1.48v-3.9a2.06,2.06,0,0,0-.33-1.27,1.24,1.24,0,0,0-1.06-.43,1.54,1.54,0,0,0-1.27.52,2.24,2.24,0,0,0-.42,1.45v3.63h-1.48v-6.57h1.42v1h0a2.16,2.16,0,0,1,.38-.5,2.33,2.33,0,0,1,.5-.37,2.45,2.45,0,0,1,.58-.23A2.65,2.65,0,0,1,238.21,205.55Z"/><path class="cls-1" d="M247.77,202.87v1.42h-1.49v-1.42Zm0,2.86v6.57h-1.49v-6.57Z"/><path class="cls-1" d="M253.34,205.55a3.43,3.43,0,0,1,1.13.16,1.87,1.87,0,0,1,.77.49,1.93,1.93,0,0,1,.43.8,4.16,4.16,0,0,1,.14,1.12v4.17h-1.48v-3.9a2.06,2.06,0,0,0-.33-1.27,1.24,1.24,0,0,0-1.06-.43,1.54,1.54,0,0,0-1.27.52,2.24,2.24,0,0,0-.42,1.45v3.63h-1.48v-6.57h1.42v1h0a2.16,2.16,0,0,1,.38-.5,2.33,2.33,0,0,1,.5-.37,2.45,2.45,0,0,1,.58-.23A2.65,2.65,0,0,1,253.34,205.55Z"/><path class="cls-6" d="M113.3,203.55a4.77,4.77,0,0,1,1.35.18,3.6,3.6,0,0,1,1.1.53,3,3,0,0,1,.79.85,3.14,3.14,0,0,1,.42,1.13h-1.5a1.87,1.87,0,0,0-.27-.56,1.82,1.82,0,0,0-.46-.45,2.29,2.29,0,0,0-.64-.31,2.68,2.68,0,0,0-.8-.11,2.63,2.63,0,0,0-1.22.27,2.53,2.53,0,0,0-.86.71,3.08,3.08,0,0,0-.51,1,4.39,4.39,0,0,0-.17,1.22,4.29,4.29,0,0,0,.16,1.17,3,3,0,0,0,.5,1,2.56,2.56,0,0,0,.86.72,2.62,2.62,0,0,0,1.24.28,2.5,2.5,0,0,0,.87-.14,2.1,2.1,0,0,0,.68-.4,2.06,2.06,0,0,0,.47-.61,2.65,2.65,0,0,0,.25-.78h1.5a4.14,4.14,0,0,1-.36,1.26,3.26,3.26,0,0,1-.75,1,3.38,3.38,0,0,1-1.13.68,4.37,4.37,0,0,1-1.53.25,4.48,4.48,0,0,1-1.77-.34,4,4,0,0,1-1.35-.93,4.1,4.1,0,0,1-.86-1.41A5.07,5.07,0,0,1,109,208a5.2,5.2,0,0,1,.28-1.72,4.26,4.26,0,0,1,.83-1.43,3.93,3.93,0,0,1,1.35-1A4.42,4.42,0,0,1,113.3,203.55Z"/><path class="cls-6" d="M124.9,212.3l-.45.09-.4,0a1.89,1.89,0,0,1-.43,0,.94.94,0,0,1-.35-.16.84.84,0,0,1-.25-.29,1.25,1.25,0,0,1-.13-.45h0a2.69,2.69,0,0,1-.47.46,2.42,2.42,0,0,1-.54.31,3.51,3.51,0,0,1-1.35.24,2.54,2.54,0,0,1-1.66-.51,1.74,1.74,0,0,1-.62-1.45,1.68,1.68,0,0,1,.62-1.42,2.2,2.2,0,0,1,.6-.32,4.94,4.94,0,0,1,.75-.2c.27-.05.55-.09.85-.13l.9-.1.35-.07a.83.83,0,0,0,.27-.13.59.59,0,0,0,.18-.22.77.77,0,0,0,.06-.33,1,1,0,0,0-.32-.79,2.24,2.24,0,0,0-2.11,0,1,1,0,0,0-.4.73h-1.49a1.91,1.91,0,0,1,.94-1.52,3,3,0,0,1,.93-.36,5.37,5.37,0,0,1,1.16-.12,3.6,3.6,0,0,1,2.1.5,1.63,1.63,0,0,1,.69,1.41V211a.46.46,0,0,0,.08.3.35.35,0,0,0,.28.1h.12l.13,0ZM122.8,209h0a1,1,0,0,1-.56.23l-.5.08-.67.11a2.32,2.32,0,0,0-1,.37.86.86,0,0,0-.33.72.88.88,0,0,0,.38.76,1.55,1.55,0,0,0,.9.24,1.88,1.88,0,0,0,1.3-.43,1.57,1.57,0,0,0,.51-1.24Z"/><path class="cls-6" d="M129.87,205.55a3.43,3.43,0,0,1,1.13.16,1.87,1.87,0,0,1,.77.49,1.93,1.93,0,0,1,.43.8,4.16,4.16,0,0,1,.14,1.12v4.17h-1.48v-3.9a2.06,2.06,0,0,0-.33-1.27,1.24,1.24,0,0,0-1.06-.43,1.54,1.54,0,0,0-1.27.52,2.24,2.24,0,0,0-.42,1.45v3.63H126.3v-6.57h1.42v1h0a2.16,2.16,0,0,1,.38-.5,2.33,2.33,0,0,1,.5-.37,2.45,2.45,0,0,1,.58-.23A2.65,2.65,0,0,1,129.87,205.55Z"/><path class="cls-6" d="M137.37,205.55a4.32,4.32,0,0,1,1.09.13,2.94,2.94,0,0,1,.92.41,2.31,2.31,0,0,1,.66.68,2.25,2.25,0,0,1,.32.95H138.9a1.21,1.21,0,0,0-.49-.78,1.78,1.78,0,0,0-1-.27,1.62,1.62,0,0,0-.84.21,1.83,1.83,0,0,0-.58.54,2.39,2.39,0,0,0-.34.76,3.33,3.33,0,0,0,0,1.67,2.39,2.39,0,0,0,.33.75,1.82,1.82,0,0,0,.57.55,1.59,1.59,0,0,0,.84.21,1.92,1.92,0,0,0,.62-.09,1.54,1.54,0,0,0,.49-.26,1.42,1.42,0,0,0,.34-.41,1.73,1.73,0,0,0,.19-.52h1.44a3,3,0,0,1-.34,1,2.61,2.61,0,0,1-.64.76,2.88,2.88,0,0,1-.91.49,3.69,3.69,0,0,1-1.18.18,3.51,3.51,0,0,1-1.36-.26,3.11,3.11,0,0,1-1.06-.71,3.21,3.21,0,0,1-.68-1.08,3.72,3.72,0,0,1-.24-1.37,4.12,4.12,0,0,1,.22-1.36,3.28,3.28,0,0,1,.65-1.12,3,3,0,0,1,1.06-.76A3.52,3.52,0,0,1,137.37,205.55Z"/><path class="cls-6" d="M144.88,205.55a3.18,3.18,0,0,1,1.38.28,2.86,2.86,0,0,1,1,.77,3.31,3.31,0,0,1,.6,1.13,4.63,4.63,0,0,1,.2,1.37v.26h-5a2.67,2.67,0,0,0,.14.81,1.89,1.89,0,0,0,.36.63,1.59,1.59,0,0,0,.56.41,1.79,1.79,0,0,0,.74.15,2,2,0,0,0,1-.23,1.72,1.72,0,0,0,.63-.6h1.41a3,3,0,0,1-.46.81,2.91,2.91,0,0,1-.68.62,3.16,3.16,0,0,1-.87.39,3.86,3.86,0,0,1-1,.13,3.46,3.46,0,0,1-1.37-.26,2.9,2.9,0,0,1-1-.72,3.14,3.14,0,0,1-.64-1.1,4.17,4.17,0,0,1-.22-1.4,3.93,3.93,0,0,1,.22-1.33,3.25,3.25,0,0,1,.65-1.1,3.11,3.11,0,0,1,1-.76A3.33,3.33,0,0,1,144.88,205.55Zm1.68,2.85a2.66,2.66,0,0,0-.17-.71,1.69,1.69,0,0,0-.34-.55,1.47,1.47,0,0,0-.52-.36,2,2,0,0,0-1.41,0,1.56,1.56,0,0,0-.53.36,1.79,1.79,0,0,0-.36.55,2.48,2.48,0,0,0-.18.7Z"/><path class="cls-6" d="M151.14,203.22v9.08h-1.49v-9.08Z"/><line class="cls-8" x1="7" y1="63" x2="283" y2="63"/><line class="cls-9" x1="64" y1="115.57" x2="64" y2="137.57"/><polygon class="cls-10" points="296.24 52.32 291.01 47.2 293.07 45.09 296.23 48.18 302.94 41.55 305.01 43.65 296.24 52.32"/></g></svg>