<svg xmlns="http://www.w3.org/2000/svg" viewBox="0 0 418.58 434.84"><defs><style>.cls-1{isolation:isolate;}.cls-11,.cls-12,.cls-13,.cls-14,.cls-15,.cls-16,.cls-17,.cls-18,.cls-19,.cls-2{fill:none;}.cls-11,.cls-2{stroke:#e2e2e2;}.cls-11,.cls-12,.cls-13,.cls-14,.cls-15,.cls-16,.cls-17,.cls-18,.cls-2,.cls-8{stroke-miterlimit:10;}.cls-3{opacity:0.25;mix-blend-mode:multiply;}.cls-4{fill:#e6e6e6;}.cls-5{fill:#389aea;}.cls-6{fill:#1bb883;}.cls-7{fill:#e57c5c;}.cls-8{fill:#fff;stroke:#dcdcdc;}.cls-9{fill:#aaa;}.cls-10{fill:#828282;}.cls-11{stroke-width:4px;}.cls-12{stroke:#e6e6e6;}.cls-13{stroke:#f5f5f5;}.cls-14{stroke:#ececec;opacity:0.6;}.cls-15{stroke:#828282;}.cls-16{stroke:#c8c8c8;}.cls-17{stroke:#e57c5c;}.cls-18{stroke:#389aea;}.cls-19{stroke:#1bb883;stroke-linecap:round;stroke-linejoin:round;}.cls-20{fill:#464646;}</style></defs><title>Artboard 64</title><g class="cls-1"><g id="Layer_1" data-name="Layer 1"><rect class="cls-2" x="0.5" y="0.5" width="417.58" height="433.84"/><g class="cls-3"><rect x="1" y="411" width="416.58" height="24"/></g><rect class="cls-4" x="1" y="410" width="416.58" height="24"/><rect class="cls-5" x="13" y="418" width="9" height="9"/><rect class="cls-6" x="141" y="418" width="9" height="9"/><rect class="cls-7" x="270" y="418" width="9" height="9"/><rect class="cls-8" x="62.5" y="54.5" width="316.58" height="315"/><path class="cls-9" d="M171.54,389.83v-5.38h-2v-1a5.44,5.44,0,0,0,.82-.06,2.14,2.14,0,0,0,.57-.17,1.43,1.43,0,0,0,.59-.5,2,2,0,0,0,.29-.82h1v7.88Z"/><path class="cls-9" d="M178.49,381.82a2.7,2.7,0,0,1,1.86.64,2,2,0,0,1,.55.76,2.66,2.66,0,0,1-.24,2.39A5.34,5.34,0,0,1,179,387q-.46.28-.78.52a6.43,6.43,0,0,0-.53.43,2.56,2.56,0,0,0-.57.75h4v1.11h-5.58a3.08,3.08,0,0,1,.36-1.46,3.46,3.46,0,0,1,.46-.63,5.1,5.1,0,0,1,.68-.61l.87-.65,1-.76a2.46,2.46,0,0,0,.65-.69,1.46,1.46,0,0,0,.21-.76,1.54,1.54,0,0,0-.09-.54,1.2,1.2,0,0,0-.28-.44A1.34,1.34,0,0,0,179,383a1.64,1.64,0,0,0-1.2,0,1.35,1.35,0,0,0-.45.35,1.44,1.44,0,0,0-.27.49,1.79,1.79,0,0,0-.09.56v.13h-1.22v-.13a2.88,2.88,0,0,1,.19-1.06,2.33,2.33,0,0,1,.54-.83,2.48,2.48,0,0,1,.86-.54A3.16,3.16,0,0,1,178.49,381.82Z"/><path class="cls-9" d="M184,384v1.5h-1.47V384Zm0,4.33v1.5h-1.47v-1.5Z"/><path class="cls-9" d="M188.21,381.82a2.43,2.43,0,0,1,2.12,1,5.23,5.23,0,0,1,.73,3,5.34,5.34,0,0,1-.73,3.07,2.68,2.68,0,0,1-4.23,0,5.34,5.34,0,0,1-.73-3.07,5.26,5.26,0,0,1,.72-3A2.42,2.42,0,0,1,188.21,381.82Zm-1.56,4.07a9.39,9.39,0,0,0,.07,1.14,3.76,3.76,0,0,0,.24,1,1.69,1.69,0,0,0,.47.68,1.17,1.17,0,0,0,.78.25,1.2,1.2,0,0,0,1-.47,1.91,1.91,0,0,0,.29-.51,3.84,3.84,0,0,0,.18-.63,6.09,6.09,0,0,0,.09-.7q0-.36,0-.73a8.76,8.76,0,0,0-.07-1.16,3.46,3.46,0,0,0-.25-1,1.68,1.68,0,0,0-.49-.65,1.21,1.21,0,0,0-.77-.24,1.17,1.17,0,0,0-.55.12,1.28,1.28,0,0,0-.41.34,1.81,1.81,0,0,0-.28.5,3.9,3.9,0,0,0-.18.62,6.15,6.15,0,0,0-.1.7Q186.65,385.52,186.65,385.88Z"/><path class="cls-9" d="M194.87,381.82a2.43,2.43,0,0,1,2.12,1,5.23,5.23,0,0,1,.73,3,5.34,5.34,0,0,1-.73,3.07,2.68,2.68,0,0,1-4.23,0,5.34,5.34,0,0,1-.73-3.07,5.26,5.26,0,0,1,.72-3A2.42,2.42,0,0,1,194.87,381.82Zm-1.56,4.07a9.39,9.39,0,0,0,.07,1.14,3.76,3.76,0,0,0,.24,1,1.69,1.69,0,0,0,.47.68,1.17,1.17,0,0,0,.78.25,1.2,1.2,0,0,0,1-.47,1.91,1.91,0,0,0,.29-.51,3.84,3.84,0,0,0,.18-.63,6.09,6.09,0,0,0,.09-.7q0-.36,0-.73a8.76,8.76,0,0,0-.07-1.16,3.46,3.46,0,0,0-.25-1,1.68,1.68,0,0,0-.49-.65,1.21,1.21,0,0,0-.77-.24,1.17,1.17,0,0,0-.55.12,1.28,1.28,0,0,0-.41.34,1.81,1.81,0,0,0-.28.5,3.9,3.9,0,0,0-.18.62,6.15,6.15,0,0,0-.1.7Q193.31,385.52,193.31,385.88Z"/><path class="cls-10" d="M245.77,389.83v-5.38h-2v-1a5.43,5.43,0,0,0,.82-.06,2.16,2.16,0,0,0,.58-.17,1.44,1.44,0,0,0,.59-.5,2,2,0,0,0,.29-.82h1v7.88Z"/><path class="cls-10" d="M255,382v1.08h-3.32l-.38,2.05,0,0a2.11,2.11,0,0,1,.69-.46,2.34,2.34,0,0,1,.89-.16,2.58,2.58,0,0,1,1,.2,2.32,2.32,0,0,1,.79.56,2.48,2.48,0,0,1,.5.85,3.19,3.19,0,0,1,.17,1.07,2.68,2.68,0,0,1-.22,1.07,2.73,2.73,0,0,1-.6.88,2.87,2.87,0,0,1-.92.6,3,3,0,0,1-1.15.22,3.78,3.78,0,0,1-1.05-.14,2.46,2.46,0,0,1-.85-.42,2.12,2.12,0,0,1-.58-.7,2.44,2.44,0,0,1-.26-1H251a1.42,1.42,0,0,0,.13.46,1.23,1.23,0,0,0,.29.38,1.29,1.29,0,0,0,.44.25,1.77,1.77,0,0,0,.6.09,1.53,1.53,0,0,0,1.18-.52,1.69,1.69,0,0,0,.32-.56,2,2,0,0,0,.11-.67,1.94,1.94,0,0,0-.11-.64,1.52,1.52,0,0,0-.82-.9,1.61,1.61,0,0,0-.67-.14,1.61,1.61,0,0,0-1.4.7H250l.77-4.22Z"/><path class="cls-10" d="M258.26,388.32v1.5h-1.47v-1.5Z"/><path class="cls-10" d="M264.65,382l3.74,5.83h0V382h1.3v7.85h-1.4L264.57,384h0v5.83h-1.31V382Z"/><path class="cls-10" d="M277.31,386.82a3.73,3.73,0,0,1-.21,1.27,2.83,2.83,0,0,1-.62,1,2.72,2.72,0,0,1-1,.67,3.21,3.21,0,0,1-1.25.23,2.86,2.86,0,0,1-2.18-.88,3.61,3.61,0,0,1,0-4.6,2.85,2.85,0,0,1,2.19-.88,2.89,2.89,0,0,1,2.2.88A3.25,3.25,0,0,1,277.31,386.82Zm-1.33,0a3.26,3.26,0,0,0-.11-.85,2,2,0,0,0-.32-.68,1.55,1.55,0,0,0-.54-.46,1.61,1.61,0,0,0-.76-.17,1.56,1.56,0,0,0-.71.16,1.47,1.47,0,0,0-.53.44,2.08,2.08,0,0,0-.33.68,3.26,3.26,0,0,0-.11.88,3.2,3.2,0,0,0,.11.87,2,2,0,0,0,.32.68,1.53,1.53,0,0,0,.53.45,1.71,1.71,0,0,0,1.45,0,1.52,1.52,0,0,0,.54-.45,2.06,2.06,0,0,0,.33-.68A3.13,3.13,0,0,0,276,386.82Z"/><path class="cls-10" d="M279.48,383.8l1.5,4.71h0l1.48-4.71h1.32l-2.12,6h-1.46l-2.16-6Z"/><path class="cls-10" d="M84.27,389.83v-5.38h-2v-1a5.43,5.43,0,0,0,.82-.06,2.16,2.16,0,0,0,.58-.17,1.44,1.44,0,0,0,.59-.5,2,2,0,0,0,.29-.82h1v7.88Z"/><path class="cls-10" d="M92.87,388v1.87h-1.2V388H88.23v-1.18l3.5-4.83h1.14v5H94V388Zm-1.2-4.42h0l-2.4,3.37h2.43Z"/><path class="cls-10" d="M96.76,388.32v1.5H95.29v-1.5Z"/><path class="cls-10" d="M103.15,382l3.74,5.83h0V382h1.3v7.85h-1.4L103.07,384h0v5.83h-1.31V382Z"/><path class="cls-10" d="M115.81,386.82a3.73,3.73,0,0,1-.21,1.27,2.83,2.83,0,0,1-.62,1,2.72,2.72,0,0,1-1,.67,3.21,3.21,0,0,1-1.25.23,2.86,2.86,0,0,1-2.18-.88,3.61,3.61,0,0,1,0-4.6,2.85,2.85,0,0,1,2.19-.88,2.89,2.89,0,0,1,2.2.88A3.25,3.25,0,0,1,115.81,386.82Zm-1.33,0a3.26,3.26,0,0,0-.11-.85,2,2,0,0,0-.32-.68,1.55,1.55,0,0,0-.54-.46,1.61,1.61,0,0,0-.76-.17,1.56,1.56,0,0,0-.71.16,1.47,1.47,0,0,0-.53.44,2.08,2.08,0,0,0-.33.68,3.26,3.26,0,0,0-.11.88,3.2,3.2,0,0,0,.11.87,2,2,0,0,0,.32.68,1.53,1.53,0,0,0,.53.45,1.71,1.71,0,0,0,1.45,0,1.52,1.52,0,0,0,.54-.45,2.06,2.06,0,0,0,.33-.68A3.13,3.13,0,0,0,114.48,386.82Z"/><path class="cls-10" d="M118,383.8l1.5,4.71h0L121,383.8h1.32l-2.12,6h-1.46l-2.16-6Z"/><path class="cls-9" d="M331.54,389.83v-5.38h-2v-1a5.44,5.44,0,0,0,.82-.06,2.14,2.14,0,0,0,.57-.17,1.43,1.43,0,0,0,.59-.5,2,2,0,0,0,.29-.82h1v7.88Z"/><path class="cls-9" d="M338.49,381.82a2.7,2.7,0,0,1,1.86.64,2,2,0,0,1,.55.76,2.66,2.66,0,0,1-.24,2.39A5.34,5.34,0,0,1,339,387q-.46.28-.78.52a6.43,6.43,0,0,0-.53.43,2.56,2.56,0,0,0-.57.75h4v1.11h-5.58a3.08,3.08,0,0,1,.36-1.46,3.46,3.46,0,0,1,.46-.63,5.1,5.1,0,0,1,.68-.61l.87-.65,1-.76a2.46,2.46,0,0,0,.65-.69,1.46,1.46,0,0,0,.21-.76,1.54,1.54,0,0,0-.09-.54,1.2,1.2,0,0,0-.28-.44A1.34,1.34,0,0,0,339,383a1.64,1.64,0,0,0-1.2,0,1.35,1.35,0,0,0-.45.35,1.44,1.44,0,0,0-.27.49,1.79,1.79,0,0,0-.09.56v.13h-1.22v-.13a2.88,2.88,0,0,1,.19-1.06,2.33,2.33,0,0,1,.54-.83,2.48,2.48,0,0,1,.86-.54A3.16,3.16,0,0,1,338.49,381.82Z"/><path class="cls-9" d="M344,384v1.5h-1.47V384Zm0,4.33v1.5h-1.47v-1.5Z"/><path class="cls-9" d="M348.21,381.82a2.43,2.43,0,0,1,2.12,1,5.23,5.23,0,0,1,.73,3,5.34,5.34,0,0,1-.73,3.07,2.68,2.68,0,0,1-4.23,0,5.34,5.34,0,0,1-.73-3.07,5.26,5.26,0,0,1,.72-3A2.42,2.42,0,0,1,348.21,381.82Zm-1.56,4.07a9.39,9.39,0,0,0,.07,1.14,3.76,3.76,0,0,0,.24,1,1.69,1.69,0,0,0,.47.68,1.17,1.17,0,0,0,.78.25,1.2,1.2,0,0,0,1-.47,1.91,1.91,0,0,0,.29-.51,3.84,3.84,0,0,0,.18-.63,6.09,6.09,0,0,0,.09-.7q0-.36,0-.73a8.76,8.76,0,0,0-.07-1.16,3.46,3.46,0,0,0-.25-1,1.68,1.68,0,0,0-.49-.65,1.21,1.21,0,0,0-.77-.24,1.17,1.17,0,0,0-.55.12,1.28,1.28,0,0,0-.41.34,1.81,1.81,0,0,0-.28.5,3.9,3.9,0,0,0-.18.62,6.15,6.15,0,0,0-.1.7Q346.65,385.52,346.65,385.88Z"/><path class="cls-9" d="M354.87,381.82a2.43,2.43,0,0,1,2.12,1,5.23,5.23,0,0,1,.73,3,5.34,5.34,0,0,1-.73,3.07,2.68,2.68,0,0,1-4.23,0,5.34,5.34,0,0,1-.73-3.07,5.26,5.26,0,0,1,.72-3A2.42,2.42,0,0,1,354.87,381.82Zm-1.56,4.07a9.39,9.39,0,0,0,.07,1.14,3.76,3.76,0,0,0,.24,1,1.69,1.69,0,0,0,.47.68,1.17,1.17,0,0,0,.78.25,1.2,1.2,0,0,0,1-.47,1.91,1.91,0,0,0,.29-.51,3.84,3.84,0,0,0,.18-.63,6.09,6.09,0,0,0,.09-.7q0-.36,0-.73a8.76,8.76,0,0,0-.07-1.16,3.46,3.46,0,0,0-.25-1,1.68,1.68,0,0,0-.49-.65,1.21,1.21,0,0,0-.77-.24,1.17,1.17,0,0,0-.55.12,1.28,1.28,0,0,0-.41.34,1.81,1.81,0,0,0-.28.5,3.9,3.9,0,0,0-.18.62,6.15,6.15,0,0,0-.1.7Q353.31,385.52,353.31,385.88Z"/><path class="cls-7" d="M44.47,134.83v-5.36h-1.9V129q.44,0,.75,0a2,2,0,0,0,.48-.1,1.08,1.08,0,0,0,.53-.43,2,2,0,0,0,.26-.81h.53v7.21Z"/><path class="cls-7" d="M52.3,127.7v.6H49.15l-.45,2.31,0,0a1.93,1.93,0,0,1,.68-.43,2.33,2.33,0,0,1,.83-.15,2.63,2.63,0,0,1,1,.18,2.15,2.15,0,0,1,.76.51,2.25,2.25,0,0,1,.49.79,2.84,2.84,0,0,1,.17,1,2.33,2.33,0,0,1-.2,1,2.45,2.45,0,0,1-1.34,1.3,2.59,2.59,0,0,1-1,.19,2.72,2.72,0,0,1-.91-.14,2.17,2.17,0,0,1-.71-.4,1.87,1.87,0,0,1-.47-.62,2.1,2.1,0,0,1-.2-.79h.65a1.55,1.55,0,0,0,.14.53A1.35,1.35,0,0,0,49,134a1.61,1.61,0,0,0,.51.31,1.91,1.91,0,0,0,.69.12,1.72,1.72,0,0,0,.72-.15,1.77,1.77,0,0,0,.58-.42,2,2,0,0,0,.39-.62,2.07,2.07,0,0,0,.14-.77,2,2,0,0,0-.13-.72,1.82,1.82,0,0,0-.37-.6,1.8,1.8,0,0,0-.58-.41,1.81,1.81,0,0,0-.75-.15,2.13,2.13,0,0,0-.89.19,1.85,1.85,0,0,0-.71.57H48l.68-3.65Z"/><path class="cls-7" d="M43.53,51.15a2.58,2.58,0,0,1,1.79.6A2.1,2.1,0,0,1,46,53.39a2.59,2.59,0,0,1-.51,1.52,6.36,6.36,0,0,1-1.84,1.52,7.6,7.6,0,0,0-1.52,1.13,1.83,1.83,0,0,0-.51.93H46v.66H40.8a2.75,2.75,0,0,1,.51-1.6A6.08,6.08,0,0,1,43.08,56a8.1,8.1,0,0,0,1.73-1.36,1.94,1.94,0,0,0,.47-1.29,1.5,1.5,0,0,0-.49-1.17,1.84,1.84,0,0,0-1.28-.45,1.88,1.88,0,0,0-.79.15,1.66,1.66,0,0,0-.55.4,1.6,1.6,0,0,0-.33.57,2,2,0,0,0-.11.65v.16H41v-.11a2.69,2.69,0,0,1,.15-.9,2.2,2.2,0,0,1,.46-.77,2.26,2.26,0,0,1,.79-.54A2.81,2.81,0,0,1,43.53,51.15Z"/><path class="cls-7" d="M50,51.15a2.62,2.62,0,0,1,1.21.26,2.27,2.27,0,0,1,.87.78,3.81,3.81,0,0,1,.52,1.28,7.93,7.93,0,0,1,.17,1.76A5.45,5.45,0,0,1,52,58.3a2.58,2.58,0,0,1-4.12,0,5.4,5.4,0,0,1-.71-3.06,5.4,5.4,0,0,1,.71-3.07A2.35,2.35,0,0,1,50,51.15Zm-2,4.08q0,3.49,2,3.49T52,55.23a5.18,5.18,0,0,0-.52-2.6A1.69,1.69,0,0,0,50,51.75a1.67,1.67,0,0,0-1.51.86A5.16,5.16,0,0,0,47.92,55.23Z"/><path class="cls-7" d="M44.47,209.33V204h-1.9v-.46q.44,0,.75,0a2,2,0,0,0,.48-.11,1.08,1.08,0,0,0,.53-.43,2,2,0,0,0,.26-.81h.53v7.21Z"/><path class="cls-7" d="M50.27,202.05a2.38,2.38,0,0,1,1.1.24,2.07,2.07,0,0,1,.79.71,3.46,3.46,0,0,1,.47,1.16,7.17,7.17,0,0,1,.16,1.6,5,5,0,0,1-.64,2.79,2.35,2.35,0,0,1-3.74,0,6.35,6.35,0,0,1,0-5.57A2.13,2.13,0,0,1,50.27,202.05Zm-1.86,3.71q0,3.17,1.86,3.17t1.87-3.17a4.71,4.71,0,0,0-.47-2.37,1.62,1.62,0,0,0-2.78,0A4.69,4.69,0,0,0,48.41,205.76Z"/><path class="cls-7" d="M52.3,282.2v.6H49.15l-.45,2.31,0,0a2,2,0,0,1,.68-.43,2.31,2.31,0,0,1,.83-.15,2.65,2.65,0,0,1,1,.18,2.18,2.18,0,0,1,.76.51,2.26,2.26,0,0,1,.49.79,2.84,2.84,0,0,1,.17,1,2.33,2.33,0,0,1-.2,1,2.44,2.44,0,0,1-1.34,1.3,2.59,2.59,0,0,1-1,.19,2.75,2.75,0,0,1-.91-.14,2.17,2.17,0,0,1-.71-.4,1.87,1.87,0,0,1-.47-.62,2.1,2.1,0,0,1-.2-.79h.65a1.55,1.55,0,0,0,.14.54,1.36,1.36,0,0,0,.33.45,1.61,1.61,0,0,0,.51.31,1.91,1.91,0,0,0,.69.12,1.72,1.72,0,0,0,.72-.15,1.77,1.77,0,0,0,.58-.42,2,2,0,0,0,.39-.62A2.07,2.07,0,0,0,52,287a2,2,0,0,0-.13-.72,1.82,1.82,0,0,0-.37-.6,1.8,1.8,0,0,0-.58-.41,1.81,1.81,0,0,0-.75-.15,2.12,2.12,0,0,0-.89.19,1.85,1.85,0,0,0-.71.57H48l.68-3.65Z"/><path class="cls-7" d="M50.27,366a2.39,2.39,0,0,1,1.1.24,2.08,2.08,0,0,1,.79.71,3.46,3.46,0,0,1,.47,1.16,7.17,7.17,0,0,1,.16,1.6,5,5,0,0,1-.64,2.79,2.35,2.35,0,0,1-3.74,0,6.35,6.35,0,0,1,0-5.57A2.13,2.13,0,0,1,50.27,366Zm-1.86,3.71q0,3.17,1.86,3.17t1.87-3.17a4.7,4.7,0,0,0-.47-2.37,1.62,1.62,0,0,0-2.78,0A4.69,4.69,0,0,0,48.41,369.69Z"/><path class="cls-5" d="M22,134.83v-4.89H20.16v-.86a5.05,5.05,0,0,0,.75-.06,2,2,0,0,0,.52-.15,1.31,1.31,0,0,0,.54-.46,1.86,1.86,0,0,0,.26-.74h.93v7.17Z"/><path class="cls-5" d="M30.36,127.69v1h-3L27,130.54l0,0a1.9,1.9,0,0,1,.63-.42,2.13,2.13,0,0,1,.81-.14,2.34,2.34,0,0,1,1,.19,2.09,2.09,0,0,1,.72.51,2.25,2.25,0,0,1,.46.77,2.88,2.88,0,0,1,.16,1,2.43,2.43,0,0,1-.2,1,2.48,2.48,0,0,1-.55.8,2.62,2.62,0,0,1-.83.54,2.7,2.7,0,0,1-1,.2,3.48,3.48,0,0,1-1-.13,2.25,2.25,0,0,1-.77-.38,1.93,1.93,0,0,1-.53-.64,2.2,2.2,0,0,1-.23-.89h1.17a1.28,1.28,0,0,0,.12.42,1.12,1.12,0,0,0,.26.34,1.17,1.17,0,0,0,.4.23,1.64,1.64,0,0,0,.54.08,1.38,1.38,0,0,0,.61-.13,1.4,1.4,0,0,0,.46-.35,1.54,1.54,0,0,0,.29-.5,1.81,1.81,0,0,0,.1-.61,1.77,1.77,0,0,0-.1-.59,1.41,1.41,0,0,0-.29-.49,1.43,1.43,0,0,0-.46-.33,1.45,1.45,0,0,0-.61-.12,1.46,1.46,0,0,0-1.27.63h-1l.7-3.83Z"/><path class="cls-5" d="M22.25,51.87a2.45,2.45,0,0,1,1.69.59,1.85,1.85,0,0,1,.5.69,2.31,2.31,0,0,1,.16.88,2.35,2.35,0,0,1-.38,1.29,4.87,4.87,0,0,1-1.48,1.28q-.42.25-.71.47a5.8,5.8,0,0,0-.48.39,2.34,2.34,0,0,0-.52.68h3.61v1H19.58a2.8,2.8,0,0,1,.33-1.32,3.18,3.18,0,0,1,.42-.57,4.66,4.66,0,0,1,.62-.55l.79-.59.93-.69a2.23,2.23,0,0,0,.59-.63,1.33,1.33,0,0,0,.19-.69,1.4,1.4,0,0,0-.08-.5,1.11,1.11,0,0,0-.26-.4,1.21,1.21,0,0,0-.39-.25,1.49,1.49,0,0,0-1.09,0,1.21,1.21,0,0,0-.41.32,1.29,1.29,0,0,0-.24.44,1.61,1.61,0,0,0-.08.51v.12H19.77v-.12a2.63,2.63,0,0,1,.17-1,2.11,2.11,0,0,1,.49-.75,2.26,2.26,0,0,1,.78-.49A2.88,2.88,0,0,1,22.25,51.87Z"/><path class="cls-5" d="M28.2,51.87a2.21,2.21,0,0,1,1.93.94,4.76,4.76,0,0,1,.66,2.75,4.86,4.86,0,0,1-.66,2.79,2.44,2.44,0,0,1-3.85,0,4.85,4.85,0,0,1-.66-2.79,4.79,4.79,0,0,1,.66-2.76A2.2,2.2,0,0,1,28.2,51.87Zm-1.42,3.7a8.49,8.49,0,0,0,.06,1,3.49,3.49,0,0,0,.22.89,1.53,1.53,0,0,0,.43.62,1.07,1.07,0,0,0,.71.23,1.09,1.09,0,0,0,.9-.42,1.75,1.75,0,0,0,.26-.47,3.48,3.48,0,0,0,.16-.57,5.49,5.49,0,0,0,.08-.64q0-.33,0-.66a7.87,7.87,0,0,0-.07-1.06,3.14,3.14,0,0,0-.23-.87,1.52,1.52,0,0,0-.44-.59,1.1,1.1,0,0,0-.7-.22,1.06,1.06,0,0,0-.5.11,1.14,1.14,0,0,0-.37.31,1.69,1.69,0,0,0-.26.46,3.55,3.55,0,0,0-.16.57,5.69,5.69,0,0,0-.09.63Q26.78,55.24,26.78,55.57Z"/><path class="cls-5" d="M22,209.33v-4.89H20.16v-.87a4.93,4.93,0,0,0,.75-.06,2,2,0,0,0,.52-.15,1.31,1.31,0,0,0,.54-.46,1.86,1.86,0,0,0,.26-.74h.93v7.17Z"/><path class="cls-5" d="M28.2,202a2.21,2.21,0,0,1,1.93.94,4.76,4.76,0,0,1,.66,2.75,4.86,4.86,0,0,1-.66,2.79,2.44,2.44,0,0,1-3.85,0,4.85,4.85,0,0,1-.66-2.79,4.79,4.79,0,0,1,.66-2.76A2.2,2.2,0,0,1,28.2,202Zm-1.42,3.7a8.51,8.51,0,0,0,.06,1,3.49,3.49,0,0,0,.22.89,1.53,1.53,0,0,0,.43.62,1.07,1.07,0,0,0,.71.23,1.09,1.09,0,0,0,.9-.42,1.75,1.75,0,0,0,.26-.47,3.52,3.52,0,0,0,.16-.57,5.47,5.47,0,0,0,.08-.64q0-.33,0-.66a7.87,7.87,0,0,0-.07-1.06,3.14,3.14,0,0,0-.23-.87,1.51,1.51,0,0,0-.44-.59,1.1,1.1,0,0,0-.7-.22,1.08,1.08,0,0,0-.5.11,1.16,1.16,0,0,0-.37.31,1.69,1.69,0,0,0-.26.46,3.55,3.55,0,0,0-.16.57,5.69,5.69,0,0,0-.09.63Q26.78,205.41,26.78,205.74Z"/><path class="cls-5" d="M30.36,281.69v1h-3L27,284.54l0,0a1.93,1.93,0,0,1,.63-.42,2.15,2.15,0,0,1,.81-.14,2.35,2.35,0,0,1,1,.19,2.11,2.11,0,0,1,.72.51,2.26,2.26,0,0,1,.46.77,2.87,2.87,0,0,1,.16,1,2.42,2.42,0,0,1-.2,1,2.47,2.47,0,0,1-.55.8,2.6,2.6,0,0,1-.83.54,2.68,2.68,0,0,1-1,.2,3.44,3.44,0,0,1-1-.13,2.23,2.23,0,0,1-.77-.38,1.93,1.93,0,0,1-.53-.64,2.2,2.2,0,0,1-.23-.89h1.17a1.26,1.26,0,0,0,.12.42,1.11,1.11,0,0,0,.26.34,1.16,1.16,0,0,0,.4.23,1.61,1.61,0,0,0,.54.08,1.39,1.39,0,0,0,.61-.13,1.42,1.42,0,0,0,.46-.35,1.55,1.55,0,0,0,.29-.51,1.8,1.8,0,0,0,.1-.61,1.77,1.77,0,0,0-.1-.59,1.4,1.4,0,0,0-.29-.49,1.41,1.41,0,0,0-.46-.33,1.45,1.45,0,0,0-.61-.12,1.46,1.46,0,0,0-1.27.63h-1l.7-3.83Z"/><path class="cls-5" d="M28.2,366a2.21,2.21,0,0,1,1.93.94,4.76,4.76,0,0,1,.66,2.75,4.86,4.86,0,0,1-.66,2.79,2.44,2.44,0,0,1-3.85,0,4.85,4.85,0,0,1-.66-2.79,4.78,4.78,0,0,1,.66-2.76A2.2,2.2,0,0,1,28.2,366Zm-1.42,3.7a8.51,8.51,0,0,0,.06,1,3.48,3.48,0,0,0,.22.89,1.51,1.51,0,0,0,.43.62,1.07,1.07,0,0,0,.71.23,1.09,1.09,0,0,0,.9-.42,1.75,1.75,0,0,0,.26-.47,3.52,3.52,0,0,0,.16-.57,5.46,5.46,0,0,0,.08-.64q0-.33,0-.66a7.85,7.85,0,0,0-.07-1.06,3.14,3.14,0,0,0-.23-.87,1.51,1.51,0,0,0-.44-.59,1.09,1.09,0,0,0-.7-.22,1.08,1.08,0,0,0-.5.11,1.17,1.17,0,0,0-.37.31,1.7,1.7,0,0,0-.26.46,3.58,3.58,0,0,0-.16.57,5.74,5.74,0,0,0-.09.63Q26.78,369.34,26.78,369.67Z"/><path class="cls-6" d="M392.1,134.83v-5.36h-1.9V129q.44,0,.75,0a2,2,0,0,0,.48-.1,1.08,1.08,0,0,0,.53-.43,2,2,0,0,0,.26-.81h.53v7.21Z"/><path class="cls-6" d="M400.13,127.7v.6H397l-.45,2.31,0,0a1.93,1.93,0,0,1,.68-.43,2.34,2.34,0,0,1,.83-.15,2.64,2.64,0,0,1,1,.18,2.16,2.16,0,0,1,.76.51,2.29,2.29,0,0,1,.49.79,2.86,2.86,0,0,1,.17,1,2.35,2.35,0,0,1-.2,1,2.47,2.47,0,0,1-.53.78,2.5,2.5,0,0,1-.8.52,2.6,2.6,0,0,1-1,.19,2.73,2.73,0,0,1-.91-.14,2.16,2.16,0,0,1-.71-.4,1.89,1.89,0,0,1-.47-.62,2.1,2.1,0,0,1-.2-.79h.65a1.52,1.52,0,0,0,.14.53,1.38,1.38,0,0,0,.33.45,1.65,1.65,0,0,0,.52.31,1.91,1.91,0,0,0,.69.12,1.72,1.72,0,0,0,.72-.15,1.78,1.78,0,0,0,.58-.42,2,2,0,0,0,.39-.62,2.09,2.09,0,0,0,.14-.77,2,2,0,0,0-.13-.72,1.77,1.77,0,0,0-1-1,1.83,1.83,0,0,0-.75-.15,2.13,2.13,0,0,0-.89.19,1.86,1.86,0,0,0-.71.57h-.55l.68-3.65Z"/><path class="cls-6" d="M392,51.88a2.34,2.34,0,0,1,1.63.55,1.9,1.9,0,0,1,.61,1.48,2.35,2.35,0,0,1-.46,1.38,5.82,5.82,0,0,1-1.67,1.38,6.91,6.91,0,0,0-1.38,1,1.65,1.65,0,0,0-.46.85h4v.6h-4.75A2.5,2.5,0,0,1,390,57.7a5.48,5.48,0,0,1,1.61-1.39,7.31,7.31,0,0,0,1.57-1.24,1.76,1.76,0,0,0,.42-1.18,1.36,1.36,0,0,0-.45-1.06,1.88,1.88,0,0,0-1.88-.27,1.53,1.53,0,0,0-.51.37,1.49,1.49,0,0,0-.3.52,1.83,1.83,0,0,0-.1.59v.14h-.64v-.1a2.41,2.41,0,0,1,.14-.82,2,2,0,0,1,.42-.7,2.07,2.07,0,0,1,.71-.49A2.56,2.56,0,0,1,392,51.88Z"/><path class="cls-6" d="M398.1,51.88a2.38,2.38,0,0,1,1.1.24,2.06,2.06,0,0,1,.79.71,3.44,3.44,0,0,1,.47,1.16,7.22,7.22,0,0,1,.16,1.6,5,5,0,0,1-.64,2.79,2.35,2.35,0,0,1-3.74,0,4.92,4.92,0,0,1-.64-2.78,4.91,4.91,0,0,1,.64-2.79A2.13,2.13,0,0,1,398.1,51.88Zm-1.86,3.71q0,3.17,1.86,3.17T400,55.59a4.7,4.7,0,0,0-.47-2.37,1.53,1.53,0,0,0-1.4-.79,1.52,1.52,0,0,0-1.38.78A4.7,4.7,0,0,0,396.24,55.59Z"/><path class="cls-6" d="M392.1,209.33V204h-1.9v-.46q.44,0,.75,0a2,2,0,0,0,.48-.11,1.08,1.08,0,0,0,.53-.43,2,2,0,0,0,.26-.81h.53v7.21Z"/><path class="cls-6" d="M398.1,202.05a2.38,2.38,0,0,1,1.1.24,2.06,2.06,0,0,1,.79.71,3.44,3.44,0,0,1,.47,1.16,7.23,7.23,0,0,1,.16,1.6,5,5,0,0,1-.64,2.79,2.35,2.35,0,0,1-3.74,0,6.36,6.36,0,0,1,0-5.57A2.13,2.13,0,0,1,398.1,202.05Zm-1.86,3.71q0,3.17,1.86,3.17t1.87-3.17a4.7,4.7,0,0,0-.47-2.37,1.54,1.54,0,0,0-1.4-.79,1.52,1.52,0,0,0-1.38.78A4.7,4.7,0,0,0,396.24,205.76Z"/><path class="cls-6" d="M394.07,282.2v.6h-3.15l-.45,2.31,0,0a1.94,1.94,0,0,1,.68-.43,2.32,2.32,0,0,1,.83-.15,2.66,2.66,0,0,1,1,.18,2.19,2.19,0,0,1,.76.51,2.31,2.31,0,0,1,.49.79,2.86,2.86,0,0,1,.17,1,2.34,2.34,0,0,1-.2,1,2.46,2.46,0,0,1-.53.78,2.49,2.49,0,0,1-.8.52,2.6,2.6,0,0,1-1,.19,2.75,2.75,0,0,1-.91-.14,2.16,2.16,0,0,1-.71-.4,1.89,1.89,0,0,1-.47-.62,2.1,2.1,0,0,1-.2-.79h.65a1.53,1.53,0,0,0,.14.54,1.39,1.39,0,0,0,.33.45,1.65,1.65,0,0,0,.52.31,1.91,1.91,0,0,0,.69.12,1.72,1.72,0,0,0,.72-.15,1.78,1.78,0,0,0,.58-.42,2,2,0,0,0,.39-.62,2.09,2.09,0,0,0,.14-.77,2,2,0,0,0-.13-.72,1.77,1.77,0,0,0-1-1,1.83,1.83,0,0,0-.75-.15,2.12,2.12,0,0,0-.89.19,1.86,1.86,0,0,0-.71.57h-.55l.68-3.65Z"/><path class="cls-6" d="M392,366a2.4,2.4,0,0,1,1.1.24,2.07,2.07,0,0,1,.79.71,3.44,3.44,0,0,1,.47,1.16,7.23,7.23,0,0,1,.16,1.6,5,5,0,0,1-.64,2.79,2.35,2.35,0,0,1-3.74,0,6.35,6.35,0,0,1,0-5.57A2.13,2.13,0,0,1,392,366Zm-1.86,3.71q0,3.17,1.86,3.17t1.87-3.17a4.69,4.69,0,0,0-.47-2.37,1.53,1.53,0,0,0-1.4-.79,1.52,1.52,0,0,0-1.38.78A4.7,4.7,0,0,0,390.18,369.69Z"/><line class="cls-11" x1="379.77" y1="371.83" x2="61.8" y2="371.83"/><line class="cls-12" x1="102.5" y1="55.33" x2="102.5" y2="369.33"/><line class="cls-13" x1="122.5" y1="55.33" x2="122.5" y2="369.33"/><line class="cls-13" x1="142.5" y1="55.33" x2="142.5" y2="369.33"/><line class="cls-13" x1="162.5" y1="55.33" x2="162.5" y2="369.33"/><line class="cls-14" x1="182.5" y1="55.33" x2="182.5" y2="369.33"/><line class="cls-13" x1="202.5" y1="55.33" x2="202.5" y2="369.33"/><line class="cls-13" x1="222.5" y1="55.33" x2="222.5" y2="369.33"/><line class="cls-13" x1="242.5" y1="55.33" x2="242.5" y2="369.33"/><line class="cls-12" x1="262.5" y1="55.33" x2="262.5" y2="369.33"/><line class="cls-13" x1="282.5" y1="55.33" x2="282.5" y2="369.33"/><line class="cls-13" x1="362.5" y1="55.33" x2="362.5" y2="369.33"/><line class="cls-13" x1="382.5" y1="55.33" x2="382.5" y2="369.33"/><line class="cls-13" x1="322.5" y1="55.33" x2="322.5" y2="369.33"/><line class="cls-14" x1="342.5" y1="55.33" x2="342.5" y2="369.33"/><line class="cls-13" x1="302.5" y1="55.33" x2="302.5" y2="369.33"/><line class="cls-13" x1="82.5" y1="55.33" x2="82.5" y2="369.33"/><line class="cls-15" x1="102.8" y1="369.33" x2="102.8" y2="373.33"/><line class="cls-15" x1="262.8" y1="369.33" x2="262.8" y2="373.33"/><line class="cls-16" x1="342.8" y1="369.33" x2="342.8" y2="373.33"/><line class="cls-16" x1="182.8" y1="369.33" x2="182.8" y2="373.33"/><line class="cls-12" x1="62.3" y1="130.5" x2="379.77" y2="130.5"/><line class="cls-12" x1="62.3" y1="205.5" x2="379.77" y2="205.5"/><line class="cls-12" x1="62.3" y1="285.5" x2="379.77" y2="285.5"/><polyline class="cls-17" points="62.3 261.33 104.96 291.07 379.68 154.08"/><polyline class="cls-18" points="62.82 239.99 106.48 286.33 379.68 251.83"/><polyline class="cls-19" points="62.82 246.07 83.73 228.08 105 233.16 125.56 253.65 146.47 246.07 166.86 237.24 188.29 235.16 209.21 237.24 230.12 231.16 251.03 240.86 271.94 240.86 290.76 237.39 313.77 234.49 334.68 233.83 354.56 237.24 376.5 237.24 372 217.45 379.68 217.63"/><path class="cls-20" d="M29.48,418.12a2.58,2.58,0,0,1,1.79.6,2.09,2.09,0,0,1,.67,1.63,2.59,2.59,0,0,1-.5,1.52,6.37,6.37,0,0,1-1.84,1.52,7.64,7.64,0,0,0-1.52,1.13,1.82,1.82,0,0,0-.51.93H32v.66H26.75a2.75,2.75,0,0,1,.51-1.6A6.06,6.06,0,0,1,29,423a8,8,0,0,0,1.73-1.36,1.93,1.93,0,0,0,.47-1.29,1.5,1.5,0,0,0-.49-1.17,1.84,1.84,0,0,0-1.28-.45,1.86,1.86,0,0,0-.78.15,1.66,1.66,0,0,0-.56.4,1.62,1.62,0,0,0-.33.57,2,2,0,0,0-.11.65v.16H27v-.11a2.69,2.69,0,0,1,.15-.9,2.25,2.25,0,0,1,.46-.77,2.29,2.29,0,0,1,.79-.54A2.81,2.81,0,0,1,29.48,418.12Z"/><path class="cls-20" d="M36.07,418.12a3.26,3.26,0,0,1,.89.12,2.46,2.46,0,0,1,.78.37,1.92,1.92,0,0,1,.55.63,1.81,1.81,0,0,1,.21.89,2.05,2.05,0,0,1-.09.61,1.62,1.62,0,0,1-.67.9,2,2,0,0,1-.57.25v0a1.89,1.89,0,0,1,1.22.68,2,2,0,0,1,.41,1.28,2.21,2.21,0,0,1-.77,1.75,2.56,2.56,0,0,1-.87.5,3.47,3.47,0,0,1-1.11.16,3.34,3.34,0,0,1-1-.15,2.58,2.58,0,0,1-.84-.45,2.13,2.13,0,0,1-.57-.71,2.09,2.09,0,0,1-.21-1v-.17h.72V424a1.59,1.59,0,0,0,.51,1.18,1.85,1.85,0,0,0,.6.37,2.26,2.26,0,0,0,.81.14,2.46,2.46,0,0,0,.83-.12,2,2,0,0,0,.64-.37,1.56,1.56,0,0,0,.59-1.26,1.73,1.73,0,0,0-.13-.69,1.5,1.5,0,0,0-.39-.53,2,2,0,0,0-1.4-.46h-.59v-.6h.63a1.71,1.71,0,0,0,1.11-.38,1.3,1.3,0,0,0,.47-1.06,1.45,1.45,0,0,0-.14-.65,1.36,1.36,0,0,0-.37-.47,1.6,1.6,0,0,0-.55-.28,2.33,2.33,0,0,0-.67-.09,1.92,1.92,0,0,0-.74.14,1.61,1.61,0,0,0-.56.38,1.67,1.67,0,0,0-.36.55,1.82,1.82,0,0,0-.12.67h-.71a2.23,2.23,0,0,1,.17-.84,2.33,2.33,0,0,1,.49-.75,2.48,2.48,0,0,1,.79-.54A2.58,2.58,0,0,1,36.07,418.12Z"/><path class="cls-20" d="M46.32,420.51a2.14,2.14,0,0,1-.64,1.65,2.33,2.33,0,0,1-1.65.59H41.25v3.37H40.5v-7.85H44a2.32,2.32,0,0,1,1.65.6A2.13,2.13,0,0,1,46.32,420.51Zm-.75,0a1.54,1.54,0,0,0-.45-1.18,1.94,1.94,0,0,0-1.36-.42H41.25v3.21h2.62a1.81,1.81,0,0,0,1.24-.41A1.51,1.51,0,0,0,45.57,420.51Z"/><path class="cls-20" d="M53,418.26v.64H50.28v7.21h-.75V418.9H46.79v-.64Z"/><path class="cls-20" d="M58.92,418.27v.66a12.56,12.56,0,0,0-1.3,1.6,12.11,12.11,0,0,0-1,1.75,10.5,10.5,0,0,0-.64,1.87,11.14,11.14,0,0,0-.29,2h-.77a11.59,11.59,0,0,1,.29-1.95,9.63,9.63,0,0,1,.61-1.77,14.34,14.34,0,0,1,2.36-3.47H53.81v-.66Z"/><path class="cls-20" d="M63,418.12a2.62,2.62,0,0,1,1.21.26,2.26,2.26,0,0,1,.87.78,3.83,3.83,0,0,1,.52,1.28,7.94,7.94,0,0,1,.17,1.76,5.45,5.45,0,0,1-.7,3.07,2.58,2.58,0,0,1-4.12,0,7,7,0,0,1,0-6.13A2.35,2.35,0,0,1,63,418.12Zm-2,4.08q0,3.49,2,3.49t2.05-3.49a5.18,5.18,0,0,0-.52-2.6,1.69,1.69,0,0,0-1.54-.87,1.67,1.67,0,0,0-1.51.86A5.16,5.16,0,0,0,61,422.19Z"/><path class="cls-20" d="M69.69,418.12a2.62,2.62,0,0,1,1.21.26,2.26,2.26,0,0,1,.87.78,3.83,3.83,0,0,1,.52,1.28,7.94,7.94,0,0,1,.17,1.76,5.45,5.45,0,0,1-.7,3.07,2.58,2.58,0,0,1-4.12,0,7,7,0,0,1,0-6.13A2.35,2.35,0,0,1,69.69,418.12Zm-2,4.08q0,3.49,2,3.49t2.05-3.49a5.18,5.18,0,0,0-.52-2.6,1.69,1.69,0,0,0-1.54-.87,1.67,1.67,0,0,0-1.51.86A5.16,5.16,0,0,0,67.64,422.19Z"/><path class="cls-20" d="M76.16,426.29a2.89,2.89,0,0,1-.86-.12,2.13,2.13,0,0,1-.69-.35,1.94,1.94,0,0,1-.49-.57,2.29,2.29,0,0,1-.27-.77h.71a1.55,1.55,0,0,0,.17.47,1.33,1.33,0,0,0,.33.38,1.56,1.56,0,0,0,.48.26,2,2,0,0,0,.64.09,1.87,1.87,0,0,0,.94-.23,1.93,1.93,0,0,0,.68-.69,3.47,3.47,0,0,0,.42-1.11,7.39,7.39,0,0,0,.14-1.51h0a2.37,2.37,0,0,1-2.12,1.32,2.51,2.51,0,0,1-1.88-.74,2.59,2.59,0,0,1-.73-1.91,2.6,2.6,0,0,1,2.69-2.69,2.84,2.84,0,0,1,1.29.27,2.12,2.12,0,0,1,.85.77,3.85,3.85,0,0,1,.47,1.28,9.46,9.46,0,0,1,.16,1.88,7.76,7.76,0,0,1-.06,1,5,5,0,0,1-.21.93,4,4,0,0,1-.37.82,2.58,2.58,0,0,1-.55.66,2.46,2.46,0,0,1-.75.44A2.82,2.82,0,0,1,76.16,426.29Zm2-5.53a2.06,2.06,0,0,0-.52-1.5,1.94,1.94,0,0,0-1.46-.54,1.75,1.75,0,0,0-1.37.6,2.07,2.07,0,0,0-.54,1.43,2.2,2.2,0,0,0,.53,1.5,1.76,1.76,0,0,0,1.4.6,1.88,1.88,0,0,0,1.41-.58A2.1,2.1,0,0,0,78.2,420.75Z"/><path class="cls-20" d="M83.9,418.26l2.22,3.29,2.3-3.29h.83l-2.68,3.82,2.84,4h-.9l-2.38-3.46-2.42,3.46h-.85l2.83-4L83,418.26Z"/><path class="cls-20" d="M91.6,424.95v1.17h-1v-1.17Z"/><path class="cls-20" d="M96.92,418.26l2.55,7h0l2.53-7h.79l-2.91,7.85H99l-2.91-7.85Z"/><path class="cls-20" d="M108.83,426.12l-1-2.44h-3.57l-.95,2.44h-.8l3.16-7.84h.84l3.08,7.84ZM106.11,419h0l-1.56,4h3.09Z"/><path class="cls-20" d="M111.57,418.26v7.21H116v.64h-5.15v-7.85Z"/><path class="cls-20" d="M117.35,418.26v4.91a2.69,2.69,0,0,0,.56,1.83,2.21,2.21,0,0,0,1.74.63,2.24,2.24,0,0,0,1.75-.62,2.67,2.67,0,0,0,.56-1.84v-4.91h.75v5.08a3,3,0,0,1-.78,2.12,3,3,0,0,1-2.28.82,4.4,4.4,0,0,1-.65,0,3.37,3.37,0,0,1-.63-.16,2.79,2.79,0,0,1-.58-.28,2.23,2.23,0,0,1-.49-.43,2.71,2.71,0,0,1-.52-.93,3.49,3.49,0,0,1-.17-1.09v-5.08Z"/><path class="cls-20" d="M130.09,418.27v.64h-4.67v2.84h4.37v.63h-4.37v3.09h4.71v.64h-5.47v-7.84Z"/><path class="cls-20" d="M156.83,418.12a2.59,2.59,0,0,1,1.79.6,2.09,2.09,0,0,1,.67,1.63,2.59,2.59,0,0,1-.5,1.52,6.35,6.35,0,0,1-1.84,1.52,7.59,7.59,0,0,0-1.52,1.13,1.83,1.83,0,0,0-.51.93h4.41v.66H154.1a2.75,2.75,0,0,1,.51-1.6,6.06,6.06,0,0,1,1.77-1.53,8,8,0,0,0,1.73-1.36,1.93,1.93,0,0,0,.47-1.29,1.5,1.5,0,0,0-.49-1.17,1.85,1.85,0,0,0-1.28-.45,1.87,1.87,0,0,0-.78.15,1.66,1.66,0,0,0-.56.4,1.61,1.61,0,0,0-.33.57,2,2,0,0,0-.11.65v.16h-.71v-.11a2.7,2.7,0,0,1,.15-.9,2.24,2.24,0,0,1,.46-.77,2.27,2.27,0,0,1,.79-.54A2.81,2.81,0,0,1,156.83,418.12Z"/><path class="cls-20" d="M163.43,418.12a3.29,3.29,0,0,1,.89.12,2.47,2.47,0,0,1,.78.37,1.92,1.92,0,0,1,.55.63,1.81,1.81,0,0,1,.21.89,2,2,0,0,1-.09.61,1.65,1.65,0,0,1-.26.51,1.62,1.62,0,0,1-.42.39,2,2,0,0,1-.57.25v0a1.89,1.89,0,0,1,1.22.68,2,2,0,0,1,.41,1.28,2.21,2.21,0,0,1-.77,1.75,2.57,2.57,0,0,1-.87.5,3.46,3.46,0,0,1-1.11.16,3.31,3.31,0,0,1-1-.15,2.55,2.55,0,0,1-.84-.45A2.15,2.15,0,0,1,161,425a2.1,2.1,0,0,1-.21-1v-.17h.72V424a1.59,1.59,0,0,0,.51,1.18,1.85,1.85,0,0,0,.6.37,2.28,2.28,0,0,0,.81.14,2.46,2.46,0,0,0,.83-.12,2,2,0,0,0,.64-.37,1.56,1.56,0,0,0,.59-1.26,1.73,1.73,0,0,0-.13-.69,1.51,1.51,0,0,0-.39-.53,2,2,0,0,0-1.4-.46h-.59v-.6h.63a1.71,1.71,0,0,0,1.11-.38,1.3,1.3,0,0,0,.47-1.06,1.45,1.45,0,0,0-.14-.65,1.36,1.36,0,0,0-.37-.47,1.58,1.58,0,0,0-.55-.28,2.36,2.36,0,0,0-.67-.09,1.91,1.91,0,0,0-.74.14,1.64,1.64,0,0,0-.56.38,1.66,1.66,0,0,0-.35.55,1.79,1.79,0,0,0-.12.67h-.71a2.25,2.25,0,0,1,.17-.84,2.32,2.32,0,0,1,.49-.75,2.46,2.46,0,0,1,.78-.54A2.57,2.57,0,0,1,163.43,418.12Z"/><path class="cls-20" d="M173.67,420.51a2.15,2.15,0,0,1-.64,1.65,2.33,2.33,0,0,1-1.65.59H168.6v3.37h-.75v-7.85h3.53a2.32,2.32,0,0,1,1.65.6A2.13,2.13,0,0,1,173.67,420.51Zm-.75,0a1.54,1.54,0,0,0-.45-1.19,1.94,1.94,0,0,0-1.36-.42H168.6v3.21h2.62a1.81,1.81,0,0,0,1.24-.41A1.51,1.51,0,0,0,172.93,420.51Z"/><path class="cls-20" d="M180.37,418.26v.64h-2.74v7.21h-.75V418.9h-2.74v-.64Z"/><path class="cls-20" d="M186.27,418.27v.65a12.61,12.61,0,0,0-1.3,1.6,12.08,12.08,0,0,0-1,1.75,10.55,10.55,0,0,0-.64,1.87,11.24,11.24,0,0,0-.29,2h-.77a11.78,11.78,0,0,1,.29-1.95,9.63,9.63,0,0,1,.61-1.77,14.36,14.36,0,0,1,2.36-3.47h-4.39v-.65Z"/><path class="cls-20" d="M190.38,418.12a2.62,2.62,0,0,1,1.21.26,2.27,2.27,0,0,1,.87.78,3.81,3.81,0,0,1,.52,1.28,7.87,7.87,0,0,1,.17,1.76,5.44,5.44,0,0,1-.7,3.07,2.58,2.58,0,0,1-4.12,0,7,7,0,0,1,0-6.13A2.34,2.34,0,0,1,190.38,418.12Zm-2,4.08q0,3.49,2,3.49t2.05-3.49a5.17,5.17,0,0,0-.52-2.6,1.78,1.78,0,0,0-3.06,0A5.17,5.17,0,0,0,188.34,422.19Z"/><path class="cls-20" d="M197,418.12a2.62,2.62,0,0,1,1.21.26,2.27,2.27,0,0,1,.87.78,3.81,3.81,0,0,1,.52,1.28,7.87,7.87,0,0,1,.17,1.76,5.44,5.44,0,0,1-.7,3.07,2.58,2.58,0,0,1-4.12,0,7,7,0,0,1,0-6.13A2.34,2.34,0,0,1,197,418.12Zm-2,4.08q0,3.49,2,3.49t2.05-3.49a5.17,5.17,0,0,0-.52-2.6,1.78,1.78,0,0,0-3.06,0A5.17,5.17,0,0,0,195,422.19Z"/><path class="cls-20" d="M203.51,426.29a2.93,2.93,0,0,1-.86-.12,2.15,2.15,0,0,1-.69-.35,2,2,0,0,1-.49-.57,2.31,2.31,0,0,1-.27-.77h.71a1.52,1.52,0,0,0,.17.47,1.34,1.34,0,0,0,.32.38,1.57,1.57,0,0,0,.48.26,2,2,0,0,0,.64.09,1.85,1.85,0,0,0,.94-.23,1.94,1.94,0,0,0,.68-.68,3.51,3.51,0,0,0,.42-1.11,7.39,7.39,0,0,0,.14-1.51h0a2.37,2.37,0,0,1-2.12,1.32,2.51,2.51,0,0,1-1.88-.74,2.84,2.84,0,0,1,0-3.84,2.62,2.62,0,0,1,1.93-.76,2.84,2.84,0,0,1,1.29.27,2.11,2.11,0,0,1,.85.77,3.82,3.82,0,0,1,.48,1.28,9.47,9.47,0,0,1,.16,1.88,7.76,7.76,0,0,1-.06,1,5.07,5.07,0,0,1-.2.93,4.07,4.07,0,0,1-.37.82,2.6,2.6,0,0,1-.55.66,2.45,2.45,0,0,1-.75.44A2.83,2.83,0,0,1,203.51,426.29Zm2-5.53a2.06,2.06,0,0,0-.52-1.5,1.93,1.93,0,0,0-1.46-.54,1.75,1.75,0,0,0-1.36.6,2.06,2.06,0,0,0-.54,1.43,2.2,2.2,0,0,0,.53,1.5,1.76,1.76,0,0,0,1.4.6,1.88,1.88,0,0,0,1.41-.58A2.1,2.1,0,0,0,205.56,420.75Z"/><path class="cls-20" d="M211.26,418.26l2.22,3.29,2.3-3.29h.83l-2.68,3.82,2.84,4h-.9l-2.38-3.46-2.42,3.46h-.85l2.83-4.05-2.66-3.8Z"/><path class="cls-20" d="M219,424.95v1.17h-1v-1.17Z"/><path class="cls-20" d="M224.28,418.26l2.55,7h0l2.53-7h.79l-2.91,7.85h-.88l-2.91-7.85Z"/><path class="cls-20" d="M236.19,426.12l-1-2.44h-3.57l-.95,2.44h-.8l3.16-7.84h.84l3.08,7.84ZM233.46,419h0l-1.56,4H235Z"/><path class="cls-20" d="M238.92,418.26v7.21h4.4v.64h-5.15v-7.85Z"/><path class="cls-20" d="M244.71,418.26v4.92a2.69,2.69,0,0,0,.56,1.83,2.21,2.21,0,0,0,1.74.63,2.24,2.24,0,0,0,1.75-.62,2.67,2.67,0,0,0,.56-1.84v-4.92h.75v5.08a3,3,0,0,1-.78,2.12,3,3,0,0,1-2.28.82,4.28,4.28,0,0,1-.65,0,3.4,3.4,0,0,1-.63-.16,2.79,2.79,0,0,1-.58-.28,2.24,2.24,0,0,1-.49-.43,2.73,2.73,0,0,1-.52-.93,3.49,3.49,0,0,1-.17-1.09v-5.08Z"/><path class="cls-20" d="M257.45,418.27v.64h-4.67v2.84h4.37v.63h-4.37v3.09h4.72v.64H252v-7.84Z"/><path class="cls-20" d="M286.58,418.12a2.58,2.58,0,0,1,1.79.6,2.09,2.09,0,0,1,.67,1.63,2.59,2.59,0,0,1-.5,1.52,6.36,6.36,0,0,1-1.84,1.52,7.61,7.61,0,0,0-1.52,1.13,1.82,1.82,0,0,0-.51.93h4.41v.66h-5.23a2.75,2.75,0,0,1,.51-1.6,6,6,0,0,1,1.77-1.53,8,8,0,0,0,1.73-1.36,1.93,1.93,0,0,0,.47-1.29,1.5,1.5,0,0,0-.49-1.17,1.84,1.84,0,0,0-1.28-.45,1.86,1.86,0,0,0-.78.15,1.66,1.66,0,0,0-.56.4,1.63,1.63,0,0,0-.33.57,2,2,0,0,0-.11.65v.16h-.71v-.11a2.7,2.7,0,0,1,.15-.9,2.19,2.19,0,0,1,1.25-1.32A2.81,2.81,0,0,1,286.58,418.12Z"/><path class="cls-20" d="M293.18,418.12a3.3,3.3,0,0,1,.89.12,2.48,2.48,0,0,1,.78.37,1.94,1.94,0,0,1,.55.63,1.82,1.82,0,0,1,.21.89,2.05,2.05,0,0,1-.09.61,1.62,1.62,0,0,1-.67.9,2,2,0,0,1-.57.25v0a1.88,1.88,0,0,1,1.22.68,2,2,0,0,1,.41,1.28,2.21,2.21,0,0,1-.77,1.75,2.57,2.57,0,0,1-.87.5,3.47,3.47,0,0,1-1.11.16,3.31,3.31,0,0,1-1-.15,2.56,2.56,0,0,1-.84-.45,2.13,2.13,0,0,1-.57-.71,2.08,2.08,0,0,1-.21-1v-.17h.72V424a1.58,1.58,0,0,0,.51,1.18,1.84,1.84,0,0,0,.6.37,2.28,2.28,0,0,0,.81.14,2.46,2.46,0,0,0,.83-.12,2.05,2.05,0,0,0,.64-.37,1.56,1.56,0,0,0,.59-1.26,1.73,1.73,0,0,0-.13-.69,1.51,1.51,0,0,0-.39-.53,2,2,0,0,0-1.4-.46h-.59v-.6h.63a1.71,1.71,0,0,0,1.11-.38,1.3,1.3,0,0,0,.47-1.06,1.45,1.45,0,0,0-.14-.65,1.36,1.36,0,0,0-.37-.47,1.58,1.58,0,0,0-.55-.28,2.36,2.36,0,0,0-.67-.09,1.92,1.92,0,0,0-.74.14,1.63,1.63,0,0,0-.56.38,1.66,1.66,0,0,0-.36.55,1.81,1.81,0,0,0-.12.67h-.71a2.23,2.23,0,0,1,.17-.84,2.33,2.33,0,0,1,.49-.75,2.46,2.46,0,0,1,.79-.54A2.56,2.56,0,0,1,293.18,418.12Z"/><path class="cls-20" d="M303.43,420.51a2.14,2.14,0,0,1-.64,1.65,2.33,2.33,0,0,1-1.65.59h-2.78v3.37h-.75v-7.85h3.53a2.32,2.32,0,0,1,1.65.6A2.13,2.13,0,0,1,303.43,420.51Zm-.75,0a1.54,1.54,0,0,0-.45-1.19,1.94,1.94,0,0,0-1.36-.42h-2.51v3.21H301a1.81,1.81,0,0,0,1.24-.41A1.51,1.51,0,0,0,302.68,420.51Z"/><path class="cls-20" d="M310.12,418.26v.64h-2.74v7.21h-.75V418.9H303.9v-.64Z"/><path class="cls-20" d="M316,418.27v.65a12.7,12.7,0,0,0-1.3,1.6,12.16,12.16,0,0,0-1,1.75,10.55,10.55,0,0,0-.64,1.87,11.15,11.15,0,0,0-.29,2H312a11.58,11.58,0,0,1,.29-1.95,9.63,9.63,0,0,1,.61-1.77,14.36,14.36,0,0,1,2.36-3.47h-4.39v-.65Z"/><path class="cls-20" d="M320.13,418.12a2.62,2.62,0,0,1,1.21.26,2.26,2.26,0,0,1,.87.78,3.83,3.83,0,0,1,.52,1.28,7.93,7.93,0,0,1,.17,1.76,5.45,5.45,0,0,1-.7,3.07,2.58,2.58,0,0,1-4.12,0,7,7,0,0,1,0-6.13A2.34,2.34,0,0,1,320.13,418.12Zm-2,4.08q0,3.49,2,3.49t2.05-3.49a5.18,5.18,0,0,0-.52-2.6,1.69,1.69,0,0,0-1.54-.87,1.67,1.67,0,0,0-1.51.86A5.16,5.16,0,0,0,318.09,422.19Z"/><path class="cls-20" d="M326.79,418.12a2.62,2.62,0,0,1,1.21.26,2.26,2.26,0,0,1,.87.78,3.83,3.83,0,0,1,.52,1.28,7.93,7.93,0,0,1,.17,1.76,5.45,5.45,0,0,1-.7,3.07,2.58,2.58,0,0,1-4.12,0,7,7,0,0,1,0-6.13A2.34,2.34,0,0,1,326.79,418.12Zm-2,4.08q0,3.49,2,3.49t2.05-3.49a5.18,5.18,0,0,0-.52-2.6,1.69,1.69,0,0,0-1.54-.87,1.67,1.67,0,0,0-1.51.86A5.16,5.16,0,0,0,324.75,422.19Z"/><path class="cls-20" d="M333.26,426.29a2.92,2.92,0,0,1-.86-.12,2.13,2.13,0,0,1-.69-.35,2,2,0,0,1-.49-.57,2.29,2.29,0,0,1-.27-.77h.71a1.55,1.55,0,0,0,.17.47,1.34,1.34,0,0,0,.33.38,1.56,1.56,0,0,0,.48.26,2,2,0,0,0,.64.09,1.86,1.86,0,0,0,.94-.23,1.93,1.93,0,0,0,.68-.68,3.46,3.46,0,0,0,.42-1.11,7.38,7.38,0,0,0,.14-1.51h0a2.37,2.37,0,0,1-2.12,1.32,2.51,2.51,0,0,1-1.88-.74,2.59,2.59,0,0,1-.73-1.91,2.6,2.6,0,0,1,2.69-2.69,2.84,2.84,0,0,1,1.29.27,2.11,2.11,0,0,1,.85.77,3.84,3.84,0,0,1,.47,1.28,9.47,9.47,0,0,1,.16,1.88,7.76,7.76,0,0,1-.06,1,5,5,0,0,1-.21.93,4,4,0,0,1-.37.82,2.6,2.6,0,0,1-.55.66,2.46,2.46,0,0,1-.75.44A2.82,2.82,0,0,1,333.26,426.29Zm2-5.53a2.06,2.06,0,0,0-.52-1.5,1.94,1.94,0,0,0-1.46-.54,1.75,1.75,0,0,0-1.37.6,2.07,2.07,0,0,0-.54,1.43,2.2,2.2,0,0,0,.53,1.5,1.76,1.76,0,0,0,1.4.6,1.88,1.88,0,0,0,1.41-.58A2.1,2.1,0,0,0,335.31,420.75Z"/><path class="cls-20" d="M341,418.26l2.22,3.29,2.3-3.29h.83l-2.68,3.82,2.84,4h-.9l-2.38-3.46-2.42,3.46H340l2.83-4.05-2.66-3.8Z"/><path class="cls-20" d="M348.7,424.95v1.17h-1v-1.17Z"/><path class="cls-20" d="M354,418.26l2.55,7h0l2.53-7h.79L357,426.12h-.88l-2.91-7.85Z"/><path class="cls-20" d="M365.94,426.12l-1-2.44h-3.57l-.95,2.44h-.8l3.16-7.84h.84l3.08,7.84ZM363.22,419h0l-1.56,4h3.09Z"/><path class="cls-20" d="M368.67,418.26v7.21h4.4v.64h-5.15v-7.85Z"/><path class="cls-20" d="M374.46,418.26v4.92A2.69,2.69,0,0,0,375,425a2.21,2.21,0,0,0,1.74.63,2.24,2.24,0,0,0,1.75-.62,2.67,2.67,0,0,0,.56-1.84v-4.92h.75v5.08a2.94,2.94,0,0,1-.78,2.12,3,3,0,0,1-2.28.82,4.27,4.27,0,0,1-.65,0,3.36,3.36,0,0,1-.63-.16,2.75,2.75,0,0,1-.58-.28,2.2,2.2,0,0,1-.49-.43,2.71,2.71,0,0,1-.52-.93,3.49,3.49,0,0,1-.17-1.09v-5.08Z"/><path class="cls-20" d="M387.2,418.27v.64h-4.67v2.84h4.37v.63h-4.37v3.09h4.71v.64h-5.47v-7.84Z"/></g></g></svg>