<svg xmlns="http://www.w3.org/2000/svg" xmlns:xlink="http://www.w3.org/1999/xlink" viewBox="0 0 276 86"><defs><style>.cls-1,.cls-8{fill:none;}.cls-2{fill:#fff;}.cls-3{fill:#dcdcdc;}.cls-4{opacity:0.5;}.cls-5{fill:#464646;}.cls-6{fill:#828282;}.cls-7{fill:#ff6c00;}.cls-8{stroke:#ff6c00;stroke-miterlimit:10;stroke-width:0.4px;}.cls-9{opacity:0.85;}.cls-10{clip-path:url(#clip-path);}.cls-11{fill:#f3d084;}</style><clipPath id="clip-path"><rect class="cls-1" x="47.08" y="34.61" width="12" height="12"/></clipPath></defs><title>Artboard 34</title><g id="Layer_1" data-name="Layer 1"><rect class="cls-2" x="46.5" y="23.5" width="179" height="35"/><path class="cls-3" d="M225,24V58H47V24H225m1-1H46V59H226V23Z"/><g class="cls-4"><path class="cls-5" d="M66.25,36.37v1.27H61.53v2.28h4.37v1.19H61.53v2.56h4.8v1.26H60V36.37Z"/><path class="cls-5" d="M76,44.93v-4a3.44,3.44,0,0,0-.05-.62,1.26,1.26,0,0,0-.19-.49,1,1,0,0,0-.39-.32,1.48,1.48,0,0,0-.63-.12,1.24,1.24,0,0,0-1.06.47,2.29,2.29,0,0,0-.35,1.38v3.74H71.91V40.72a1.64,1.64,0,0,0-.28-1,1.1,1.1,0,0,0-.91-.35,1.34,1.34,0,0,0-1.08.48,2,2,0,0,0-.4,1.31v3.81H67.79V38.35h1.36v1h0a2.31,2.31,0,0,1,2.06-1.15,2.27,2.27,0,0,1,1.2.3,1.71,1.71,0,0,1,.71.86,2.45,2.45,0,0,1,.87-.86,2.21,2.21,0,0,1,3.47,2v4.48Z"/><path class="cls-5" d="M85.9,41.69a4.55,4.55,0,0,1-.08.85,4.15,4.15,0,0,1-.23.8,3.31,3.31,0,0,1-.4.71,2.59,2.59,0,0,1-.57.57,2.64,2.64,0,0,1-.73.37,2.87,2.87,0,0,1-.91.13,2.61,2.61,0,0,1-.63-.08,2.42,2.42,0,0,1-.58-.22,2.29,2.29,0,0,1-.5-.36,2,2,0,0,1-.38-.5h0v3.33H79.44V38.35H80.8v1h0a2.08,2.08,0,0,1,.86-.88,2.59,2.59,0,0,1,1.23-.29,2.88,2.88,0,0,1,1.31.28,2.67,2.67,0,0,1,.93.76,3.3,3.3,0,0,1,.55,1.12A4.85,4.85,0,0,1,85.9,41.69Zm-1.45,0a3.92,3.92,0,0,0-.09-.83,2.38,2.38,0,0,0-.3-.76,1.72,1.72,0,0,0-.56-.56,1.57,1.57,0,0,0-.85-.22,1.6,1.6,0,0,0-1.35.61,2.82,2.82,0,0,0-.47,1.75,3.62,3.62,0,0,0,.1.84,2.34,2.34,0,0,0,.32.75,1.73,1.73,0,0,0,.57.54,1.64,1.64,0,0,0,.85.21A1.56,1.56,0,0,0,84,43.34a2.17,2.17,0,0,0,.34-.74A3.75,3.75,0,0,0,84.45,41.65Z"/><path class="cls-5" d="M90.75,45h-.83a4.59,4.59,0,0,1-.74-.06,1.58,1.58,0,0,1-.6-.22,1.12,1.12,0,0,1-.4-.45,1.67,1.67,0,0,1-.15-.76V39.37H86.74v-1H88v-2h1.45v2H91v1h-1.5V43.1a.83.83,0,0,0,.17.58.8.8,0,0,0,.59.18h.57l.17,0V45Z"/><path class="cls-5" d="M93.06,38.35l1.73,5h0l1.64-5h1.49l-2.81,7.52a3,3,0,0,1-.29.59,1.79,1.79,0,0,1-.4.44,1.71,1.71,0,0,1-.54.28,2.43,2.43,0,0,1-.72.1l-.54,0-.46,0V46l.45.05H93a1,1,0,0,0,.4-.07.76.76,0,0,0,.28-.21,1.39,1.39,0,0,0,.21-.36q.09-.22.18-.52l-2.53-6.57Z"/><path class="cls-5" d="M105.76,45h-.83a4.59,4.59,0,0,1-.74-.06,1.58,1.58,0,0,1-.6-.22,1.12,1.12,0,0,1-.4-.45,1.67,1.67,0,0,1-.15-.76V39.37h-1.29v-1H103v-2h1.45v2H106v1h-1.5V43.1a.83.83,0,0,0,.17.58.8.8,0,0,0,.59.18h.57l.17,0V45Z"/><path class="cls-5" d="M110.15,38.18a3,3,0,0,1,1.34.28,2.78,2.78,0,0,1,1,.77,3.33,3.33,0,0,1,.58,1.13,4.76,4.76,0,0,1,.19,1.37V42h-4.85a2.77,2.77,0,0,0,.13.81,1.9,1.9,0,0,0,.35.63,1.55,1.55,0,0,0,.54.41,1.7,1.7,0,0,0,.72.15,1.9,1.9,0,0,0,1-.23,1.7,1.7,0,0,0,.61-.6h1.37a3.06,3.06,0,0,1-.45.81,2.83,2.83,0,0,1-.66.62,3,3,0,0,1-.85.39,3.66,3.66,0,0,1-1,.13,3.28,3.28,0,0,1-1.33-.26,2.82,2.82,0,0,1-1-.72,3.18,3.18,0,0,1-.62-1.1,4.31,4.31,0,0,1-.22-1.4,4,4,0,0,1,.22-1.33,3.3,3.3,0,0,1,.63-1.1,3,3,0,0,1,1-.76A3.16,3.16,0,0,1,110.15,38.18ZM111.79,41a2.77,2.77,0,0,0-.16-.71,1.73,1.73,0,0,0-.33-.55,1.43,1.43,0,0,0-.5-.35,1.91,1.91,0,0,0-1.37,0,1.51,1.51,0,0,0-.52.36,1.79,1.79,0,0,0-.35.55,2.54,2.54,0,0,0-.17.7Z"/><path class="cls-5" d="M115.6,38.35l1.41,2,1.39-2H120l-2.23,3.11,2.47,3.47h-1.69L117,42.61l-1.61,2.32h-1.66l2.43-3.44-2.23-3.13Z"/><path class="cls-5" d="M124.63,45h-.83a4.59,4.59,0,0,1-.74-.06,1.58,1.58,0,0,1-.6-.22,1.12,1.12,0,0,1-.4-.45,1.67,1.67,0,0,1-.15-.76V39.37h-1.29v-1h1.29v-2h1.45v2h1.5v1h-1.5V43.1a.83.83,0,0,0,.17.58.8.8,0,0,0,.59.18h.57l.17,0V45Z"/><path class="cls-5" d="M131.67,39.37v5.55h-1.45V39.37h-1.28v-1h1.28v-.51a2,2,0,0,1,.52-1.52,1.64,1.64,0,0,1,.63-.36,3,3,0,0,1,.9-.12h.43l.52,0V37l-.18,0-.2,0h-.34a.86.86,0,0,0-.65.2,1,1,0,0,0-.18.68v.51h1.44v1Zm3.87-3.88v1.42H134.1V35.5Zm0,2.86v6.57H134.1V38.35Z"/><path class="cls-5" d="M140.33,38.18a3,3,0,0,1,1.34.28,2.78,2.78,0,0,1,1,.77,3.33,3.33,0,0,1,.58,1.13,4.76,4.76,0,0,1,.19,1.37V42h-4.85a2.77,2.77,0,0,0,.13.81,1.9,1.9,0,0,0,.35.63,1.55,1.55,0,0,0,.54.41,1.7,1.7,0,0,0,.72.15,1.9,1.9,0,0,0,1-.23,1.7,1.7,0,0,0,.61-.6h1.37a3.06,3.06,0,0,1-.45.81,2.83,2.83,0,0,1-.66.62,3,3,0,0,1-.85.39,3.66,3.66,0,0,1-1,.13,3.28,3.28,0,0,1-1.33-.26,2.82,2.82,0,0,1-1-.72,3.18,3.18,0,0,1-.62-1.1,4.31,4.31,0,0,1-.22-1.4,4,4,0,0,1,.22-1.33,3.3,3.3,0,0,1,.63-1.1,3,3,0,0,1,1-.76A3.16,3.16,0,0,1,140.33,38.18ZM142,41a2.77,2.77,0,0,0-.16-.71,1.73,1.73,0,0,0-.33-.55,1.43,1.43,0,0,0-.5-.35,1.91,1.91,0,0,0-1.37,0,1.51,1.51,0,0,0-.52.36,1.79,1.79,0,0,0-.35.55,2.54,2.54,0,0,0-.17.7Z"/><path class="cls-5" d="M146.42,35.85v9.08H145V35.85Z"/><path class="cls-5" d="M154.51,35.85v9.08h-1.37v-1h0a2.07,2.07,0,0,1-.37.5,2.16,2.16,0,0,1-.49.37,2.44,2.44,0,0,1-.59.23,2.79,2.79,0,0,1-.67.08,2.72,2.72,0,0,1-1.28-.29,2.76,2.76,0,0,1-.92-.77,3.38,3.38,0,0,1-.56-1.12,4.69,4.69,0,0,1-.19-1.33,4.52,4.52,0,0,1,.18-1.26,3.34,3.34,0,0,1,.54-1.1,2.75,2.75,0,0,1,.91-.77,2.91,2.91,0,0,1,1.92-.22,2.49,2.49,0,0,1,.58.21,2.07,2.07,0,0,1,.49.35,2,2,0,0,1,.37.5h0V35.85Zm-5,5.79a3.63,3.63,0,0,0,.1.82,2.44,2.44,0,0,0,.31.76,1.81,1.81,0,0,0,.56.56,1.5,1.5,0,0,0,.83.22,1.73,1.73,0,0,0,.79-.17,1.58,1.58,0,0,0,.57-.49,2.25,2.25,0,0,0,.35-.75,3.68,3.68,0,0,0,.12-1,3.73,3.73,0,0,0-.1-.84,2.3,2.3,0,0,0-.31-.75,1.72,1.72,0,0,0-.57-.54,1.64,1.64,0,0,0-.85-.21,1.56,1.56,0,0,0-.82.2,1.7,1.7,0,0,0-.55.53,2.35,2.35,0,0,0-.32.75A3.93,3.93,0,0,0,149.49,41.64Z"/><path class="cls-5" d="M161.4,35.85v9.08H160V35.85Z"/><path class="cls-5" d="M169.48,44.93,169,45l-.39,0a1.79,1.79,0,0,1-.42,0,.91.91,0,0,1-.34-.16.84.84,0,0,1-.24-.29,1.28,1.28,0,0,1-.12-.45h0a2.67,2.67,0,0,1-.45.46,2.3,2.3,0,0,1-.52.31,3.32,3.32,0,0,1-1.31.24,2.42,2.42,0,0,1-1.62-.51,1.77,1.77,0,0,1-.6-1.45,1.7,1.7,0,0,1,.6-1.42,2.11,2.11,0,0,1,.58-.32,4.68,4.68,0,0,1,.73-.2q.39-.08.82-.13l.87-.1.34-.07a.8.8,0,0,0,.27-.13.59.59,0,0,0,.17-.22.79.79,0,0,0,.06-.33,1,1,0,0,0-.31-.79,2.11,2.11,0,0,0-2.05,0,1,1,0,0,0-.39.73h-1.45a2,2,0,0,1,.28-.9,2,2,0,0,1,.62-.62,2.88,2.88,0,0,1,.9-.36,5.08,5.08,0,0,1,1.13-.12,3.42,3.42,0,0,1,2,.5,1.65,1.65,0,0,1,.67,1.41v3.54a.47.47,0,0,0,.08.3.33.33,0,0,0,.27.1h.12l.13,0Zm-2-3.35h0a1,1,0,0,1-.54.23l-.48.08-.65.11a2.2,2.2,0,0,0-1,.37.87.87,0,0,0-.32.72.89.89,0,0,0,.37.76,1.48,1.48,0,0,0,.87.24,1.79,1.79,0,0,0,1.27-.43,1.59,1.59,0,0,0,.49-1.24Z"/><path class="cls-5" d="M177.27,41.64a4.85,4.85,0,0,1-.17,1.28,3.47,3.47,0,0,1-.52,1.11,2.65,2.65,0,0,1-.88.79,2.51,2.51,0,0,1-1.25.3,2.93,2.93,0,0,1-1.36-.3,1.9,1.9,0,0,1-.86-.87h0v1h-1.37V35.85h1.44v3.47h0a1.88,1.88,0,0,1,.36-.47,2.16,2.16,0,0,1,.5-.36,2.68,2.68,0,0,1,.61-.23,2.85,2.85,0,0,1,.68-.08,2.52,2.52,0,0,1,1.24.29,2.66,2.66,0,0,1,.88.78,3.4,3.4,0,0,1,.52,1.11A4.87,4.87,0,0,1,177.27,41.64Zm-1.45,0a3.74,3.74,0,0,0-.09-.82,2.52,2.52,0,0,0-.3-.76,1.71,1.71,0,0,0-.54-.56,1.5,1.5,0,0,0-.83-.22,1.57,1.57,0,0,0-.82.21,1.71,1.71,0,0,0-.56.54,2.39,2.39,0,0,0-.32.75,3.63,3.63,0,0,0-.1.86,3.68,3.68,0,0,0,.1.83,2.37,2.37,0,0,0,.31.76,1.76,1.76,0,0,0,.56.55,1.57,1.57,0,0,0,.84.21,1.49,1.49,0,0,0,.8-.21,1.69,1.69,0,0,0,.54-.54,2.43,2.43,0,0,0,.31-.75A3.94,3.94,0,0,0,175.82,41.65Z"/><path class="cls-5" d="M181.73,38.18a3,3,0,0,1,1.34.28,2.78,2.78,0,0,1,1,.77,3.33,3.33,0,0,1,.58,1.13,4.76,4.76,0,0,1,.19,1.37V42H180a2.77,2.77,0,0,0,.13.81,1.9,1.9,0,0,0,.35.63,1.55,1.55,0,0,0,.54.41,1.7,1.7,0,0,0,.72.15,1.9,1.9,0,0,0,1-.23,1.7,1.7,0,0,0,.61-.6h1.37a3.06,3.06,0,0,1-.45.81,2.83,2.83,0,0,1-.66.62,3,3,0,0,1-.85.39,3.66,3.66,0,0,1-1,.13,3.28,3.28,0,0,1-1.33-.26,2.82,2.82,0,0,1-1-.72,3.18,3.18,0,0,1-.62-1.1,4.31,4.31,0,0,1-.22-1.4,4,4,0,0,1,.22-1.33,3.3,3.3,0,0,1,.63-1.1,3,3,0,0,1,1-.76A3.16,3.16,0,0,1,181.73,38.18ZM183.37,41a2.77,2.77,0,0,0-.16-.71,1.73,1.73,0,0,0-.33-.55,1.43,1.43,0,0,0-.5-.35,1.91,1.91,0,0,0-1.37,0,1.51,1.51,0,0,0-.52.36,1.79,1.79,0,0,0-.35.55,2.54,2.54,0,0,0-.17.7Z"/><path class="cls-5" d="M187.81,35.85v9.08h-1.45V35.85Z"/></g><path class="cls-6" d="M48.95,6.72v7.87h4.8v.7H48.13V6.72Z"/><path class="cls-6" d="M60.55,15.24l-.27,0H60a1.37,1.37,0,0,1-.44-.06.65.65,0,0,1-.29-.2.82.82,0,0,1-.16-.35,2.43,2.43,0,0,1,0-.53h0a3,3,0,0,1-1,1,2.79,2.79,0,0,1-1.35.29,2.46,2.46,0,0,1-1.6-.5,1.75,1.75,0,0,1-.6-1.43,1.66,1.66,0,0,1,.66-1.43,6.79,6.79,0,0,1,3-.69,2,2,0,0,0,.44-.08.75.75,0,0,0,.29-.16.6.6,0,0,0,.16-.26,1.28,1.28,0,0,0,0-.38,1.24,1.24,0,0,0-.4-1,2,2,0,0,0-1.31-.34,2.61,2.61,0,0,0-.72.09,1.65,1.65,0,0,0-.53.25,1.13,1.13,0,0,0-.33.39,1.23,1.23,0,0,0-.13.49h-.8A2,2,0,0,1,55,9.64,1.78,1.78,0,0,1,55.51,9a2.43,2.43,0,0,1,.81-.38,4,4,0,0,1,1.09-.13,2.64,2.64,0,0,1,1.83.54,2,2,0,0,1,.59,1.52v3.56a.47.47,0,0,0,.11.33.46.46,0,0,0,.36.12.7.7,0,0,0,.25,0ZM59,11.69h0q-.12.22-.77.31l-.67.1-.74.12a2.67,2.67,0,0,0-1.17.44,1,1,0,0,0-.39.84,1.16,1.16,0,0,0,.43.94,1.6,1.6,0,0,0,1,.35,2.36,2.36,0,0,0,1.63-.58A1.85,1.85,0,0,0,59,12.78Z"/><path class="cls-6" d="M68,12a4.77,4.77,0,0,1-.17,1.28,3.38,3.38,0,0,1-.53,1.11,2.69,2.69,0,0,1-.92.79,2.8,2.8,0,0,1-1.33.3,2.9,2.9,0,0,1-.72-.09,2.59,2.59,0,0,1-.66-.27,2.34,2.34,0,0,1-.55-.45,2.18,2.18,0,0,1-.4-.63h0v1.25H62V6.2h.8V10h0a2,2,0,0,1,.36-.61,2.25,2.25,0,0,1,.54-.45,2.5,2.5,0,0,1,.66-.28,3,3,0,0,1,2,.18,2.62,2.62,0,0,1,.91.75,3.34,3.34,0,0,1,.55,1.1A5,5,0,0,1,68,12Zm-.8,0a4.39,4.39,0,0,0,0-.65,3.54,3.54,0,0,0-.16-.64,2.89,2.89,0,0,0-.28-.59,2.08,2.08,0,0,0-.41-.48,1.83,1.83,0,0,0-.55-.32,2,2,0,0,0-.71-.12,2.05,2.05,0,0,0-1.73.85,2.72,2.72,0,0,0-.42.89A3.94,3.94,0,0,0,62.79,12a4.21,4.21,0,0,0,.13,1,2.67,2.67,0,0,0,.4.9,2.08,2.08,0,0,0,.71.63,2.18,2.18,0,0,0,1.06.24,1.88,1.88,0,0,0,1-.23,2,2,0,0,0,.66-.63,2.9,2.9,0,0,0,.38-.89A4.91,4.91,0,0,0,67.24,12Z"/><path class="cls-6" d="M72.48,8.53a2.71,2.71,0,0,1,1.3.29,2.6,2.6,0,0,1,.9.79,3.45,3.45,0,0,1,.52,1.13,5.21,5.21,0,0,1,.17,1.34v.13H70.32a3.58,3.58,0,0,0,.13.94,2.59,2.59,0,0,0,.39.83,2,2,0,0,0,.66.59,1.92,1.92,0,0,0,.95.22,2.44,2.44,0,0,0,.7-.09,2,2,0,0,0,.56-.26,1.76,1.76,0,0,0,.42-.39,2.41,2.41,0,0,0,.29-.49h.79a3,3,0,0,1-.38.79,2.48,2.48,0,0,1-.59.6,2.68,2.68,0,0,1-.79.39,3.34,3.34,0,0,1-1,.14,2.94,2.94,0,0,1-1.3-.27,2.56,2.56,0,0,1-.91-.73,3.12,3.12,0,0,1-.54-1.1A5.14,5.14,0,0,1,69.52,12a4.66,4.66,0,0,1,.18-1.28,3.36,3.36,0,0,1,.54-1.11,2.74,2.74,0,0,1,.92-.78A2.79,2.79,0,0,1,72.48,8.53Zm2.09,3a3,3,0,0,0-.16-.85A2.44,2.44,0,0,0,74,9.95a2.07,2.07,0,0,0-.65-.54,1.84,1.84,0,0,0-.88-.21,1.84,1.84,0,0,0-1.5.7,2.7,2.7,0,0,0-.42.75,4.31,4.31,0,0,0-.23.9Z"/><path class="cls-6" d="M77.87,6.2v9.08h-.8V6.2Z"/><path class="cls-7" d="M16.13,36.56a2.38,2.38,0,0,1,.65.09,1.78,1.78,0,0,1,.57.27,1.39,1.39,0,0,1,.4.46,1.32,1.32,0,0,1,.15.65,1.48,1.48,0,0,1-.06.44,1.21,1.21,0,0,1-.19.37,1.18,1.18,0,0,1-.3.28,1.42,1.42,0,0,1-.41.18v0a1.37,1.37,0,0,1,.89.5,1.47,1.47,0,0,1,.3.93A1.61,1.61,0,0,1,17.56,42a1.86,1.86,0,0,1-.63.37,2.52,2.52,0,0,1-.81.12,2.44,2.44,0,0,1-.74-.11,1.87,1.87,0,0,1-.61-.32,1.56,1.56,0,0,1-.42-.52,1.52,1.52,0,0,1-.15-.69v-.12h.52v.11a1.16,1.16,0,0,0,.37.86,1.33,1.33,0,0,0,.44.27,1.63,1.63,0,0,0,.59.1,1.8,1.8,0,0,0,.6-.09,1.48,1.48,0,0,0,.46-.27,1.14,1.14,0,0,0,.43-.92,1.26,1.26,0,0,0-.09-.5,1.09,1.09,0,0,0-.28-.39,1.48,1.48,0,0,0-1-.33h-.43v-.44h.46a1.24,1.24,0,0,0,.8-.28,1,1,0,0,0,.34-.77,1.06,1.06,0,0,0-.1-.47,1,1,0,0,0-.27-.34,1.15,1.15,0,0,0-.4-.21,1.72,1.72,0,0,0-.49-.07,1.4,1.4,0,0,0-.54.1,1.2,1.2,0,0,0-.41.27,1.21,1.21,0,0,0-.26.4,1.31,1.31,0,0,0-.09.49h-.52a1.63,1.63,0,0,1,.12-.61,1.69,1.69,0,0,1,.36-.54,1.8,1.8,0,0,1,.57-.39A1.88,1.88,0,0,1,16.13,36.56Z"/><path class="cls-7" d="M21.19,36.56a2.11,2.11,0,0,1,.63.09,1.57,1.57,0,0,1,.5.26,1.43,1.43,0,0,1,.36.41,1.66,1.66,0,0,1,.2.56h-.52a1.14,1.14,0,0,0-.12-.34,1,1,0,0,0-.24-.28,1.1,1.1,0,0,0-.35-.19,1.44,1.44,0,0,0-.46-.07,1.35,1.35,0,0,0-.68.17,1.41,1.41,0,0,0-.5.5,2.55,2.55,0,0,0-.3.81,5.35,5.35,0,0,0-.1,1.1h0a1.72,1.72,0,0,1,1.54-1,1.83,1.83,0,0,1,1.37.54A1.88,1.88,0,0,1,23,40.54a1.89,1.89,0,0,1-2,2,2.06,2.06,0,0,1-.94-.2,1.54,1.54,0,0,1-.62-.56,2.79,2.79,0,0,1-.35-.93,6.94,6.94,0,0,1-.12-1.37,5.65,5.65,0,0,1,0-.71,3.7,3.7,0,0,1,.15-.67,3,3,0,0,1,.27-.6,1.88,1.88,0,0,1,.4-.48,1.78,1.78,0,0,1,.55-.32A2.05,2.05,0,0,1,21.19,36.56Zm-1.49,4a1.5,1.5,0,0,0,.38,1.09,1.41,1.41,0,0,0,1.06.39,1.27,1.27,0,0,0,1-.44,1.5,1.5,0,0,0,.39-1,1.6,1.6,0,0,0-.38-1.09,1.29,1.29,0,0,0-1-.43,1.36,1.36,0,0,0-1,.42A1.54,1.54,0,0,0,19.7,40.58Z"/><path class="cls-7" d="M28.22,40.19a3.19,3.19,0,0,1-.12.85,2.25,2.25,0,0,1-.36.74,1.79,1.79,0,0,1-.61.52,2,2,0,0,1-1.36.14,1.65,1.65,0,0,1-.43-.18A1.52,1.52,0,0,1,25,42a1.47,1.47,0,0,1-.26-.42h0V44h-.54V38h.5v.83h0a1.49,1.49,0,0,1,.26-.41,1.53,1.53,0,0,1,.37-.3,1.79,1.79,0,0,1,.44-.19,1.87,1.87,0,0,1,.49-.06,1.9,1.9,0,0,1,.86.18,1.76,1.76,0,0,1,.62.5,2.22,2.22,0,0,1,.37.74A3.11,3.11,0,0,1,28.22,40.19Zm-.54,0a3,3,0,0,0-.07-.65,1.89,1.89,0,0,0-.24-.6,1.38,1.38,0,0,0-.45-.44,1.27,1.27,0,0,0-.68-.17,1.39,1.39,0,0,0-1.13.47,2.14,2.14,0,0,0-.39,1.4,2.79,2.79,0,0,0,.08.69,1.79,1.79,0,0,0,.27.6,1.4,1.4,0,0,0,.48.42,1.44,1.44,0,0,0,.71.16,1.25,1.25,0,0,0,.64-.16,1.35,1.35,0,0,0,.45-.42,1.91,1.91,0,0,0,.26-.6A2.77,2.77,0,0,0,27.68,40.19Z"/><path class="cls-7" d="M29.68,38l1.25,1.66L32.14,38h.67l-1.58,2.09,1.71,2.28h-.68l-1.38-1.84-1.34,1.84h-.66l1.7-2.27L29,38Z"/><line class="cls-8" x1="36.59" y1="58.37" x2="36.59" y2="22.37"/><line class="cls-8" x1="35.59" y1="22.37" x2="37.59" y2="22.37"/><line class="cls-8" x1="35.59" y1="58.37" x2="37.59" y2="58.37"/><g class="cls-9"><g class="cls-10"><rect class="cls-11" x="47.08" y="34.61" width="12" height="12"/></g></g><path class="cls-7" d="M45.88,77V72.68H44.36v-.37l.6,0a1.59,1.59,0,0,0,.38-.08.87.87,0,0,0,.43-.35,1.64,1.64,0,0,0,.21-.65h.42V77Z"/><path class="cls-7" d="M50.68,71.15a1.88,1.88,0,0,1,1.3.44,1.52,1.52,0,0,1,.49,1.19,1.88,1.88,0,0,1-.37,1.11A4.63,4.63,0,0,1,50.77,75a5.55,5.55,0,0,0-1.11.82,1.33,1.33,0,0,0-.37.68H52.5V77H48.7a2,2,0,0,1,.37-1.16,4.41,4.41,0,0,1,1.29-1.11,5.84,5.84,0,0,0,1.26-1,1.4,1.4,0,0,0,.34-.94,1.09,1.09,0,0,0-.36-.85,1.34,1.34,0,0,0-.93-.33,1.36,1.36,0,0,0-.57.11,1.21,1.21,0,0,0-.4.29,1.18,1.18,0,0,0-.24.41,1.46,1.46,0,0,0-.08.47V73h-.52V72.9a2,2,0,0,1,.11-.65,1.61,1.61,0,0,1,.34-.56,1.64,1.64,0,0,1,.57-.39A2,2,0,0,1,50.68,71.15Z"/><path class="cls-7" d="M57.87,74.77a3.19,3.19,0,0,1-.12.85,2.25,2.25,0,0,1-.36.74,1.79,1.79,0,0,1-.61.52,1.85,1.85,0,0,1-.88.2,1.89,1.89,0,0,1-.47-.06,1.62,1.62,0,0,1-.43-.18,1.52,1.52,0,0,1-.36-.3,1.47,1.47,0,0,1-.26-.42h0v2.45h-.54v-6h.5v.83h0A1.49,1.49,0,0,1,54.6,73a1.53,1.53,0,0,1,.37-.3,1.77,1.77,0,0,1,.44-.19,1.87,1.87,0,0,1,.49-.06,1.91,1.91,0,0,1,.86.18,1.76,1.76,0,0,1,.62.5,2.22,2.22,0,0,1,.37.74A3.11,3.11,0,0,1,57.87,74.77Zm-.54,0a3,3,0,0,0-.07-.65,1.89,1.89,0,0,0-.24-.6,1.38,1.38,0,0,0-.45-.44,1.27,1.27,0,0,0-.68-.17,1.39,1.39,0,0,0-1.13.47,2.14,2.14,0,0,0-.39,1.4,2.79,2.79,0,0,0,.08.69,1.79,1.79,0,0,0,.27.6,1.39,1.39,0,0,0,.48.42,1.45,1.45,0,0,0,.71.16,1.25,1.25,0,0,0,.64-.16,1.35,1.35,0,0,0,.45-.42,1.91,1.91,0,0,0,.26-.6A2.77,2.77,0,0,0,57.34,74.77Z"/><path class="cls-7" d="M59.33,72.59l1.25,1.66,1.22-1.66h.67l-1.58,2.09L62.59,77h-.68l-1.37-1.84L59.2,77h-.66l1.7-2.27-1.57-2.1Z"/><line class="cls-8" x1="234.58" y1="46.61" x2="234.58" y2="34.61"/><path class="cls-7" d="M240,43.11V38.82h-1.52v-.37l.6,0a1.59,1.59,0,0,0,.38-.08.87.87,0,0,0,.43-.35,1.64,1.64,0,0,0,.21-.65h.42v5.77Z"/><path class="cls-7" d="M244.85,37.29a1.88,1.88,0,0,1,1.3.44,1.52,1.52,0,0,1,.49,1.19,1.88,1.88,0,0,1-.37,1.11,4.63,4.63,0,0,1-1.34,1.11,5.55,5.55,0,0,0-1.11.82,1.33,1.33,0,0,0-.37.68h3.21v.48h-3.8a2,2,0,0,1,.37-1.16,4.41,4.41,0,0,1,1.29-1.11,5.84,5.84,0,0,0,1.26-1,1.4,1.4,0,0,0,.34-.94,1.09,1.09,0,0,0-.36-.85,1.34,1.34,0,0,0-.93-.33,1.36,1.36,0,0,0-.57.11,1.21,1.21,0,0,0-.4.29,1.18,1.18,0,0,0-.24.41,1.46,1.46,0,0,0-.08.47v.11H243V39a2,2,0,0,1,.11-.65,1.61,1.61,0,0,1,.34-.56,1.64,1.64,0,0,1,.57-.39A2,2,0,0,1,244.85,37.29Z"/><path class="cls-7" d="M252,40.92a3.19,3.19,0,0,1-.12.85,2.25,2.25,0,0,1-.36.74A1.79,1.79,0,0,1,251,43a1.85,1.85,0,0,1-.88.2,1.89,1.89,0,0,1-.47-.06,1.62,1.62,0,0,1-.43-.18,1.52,1.52,0,0,1-.36-.3,1.47,1.47,0,0,1-.26-.42h0v2.45H248v-6h.5v.83h0a1.49,1.49,0,0,1,.26-.41,1.53,1.53,0,0,1,.37-.3,1.77,1.77,0,0,1,.44-.19,1.87,1.87,0,0,1,.49-.06,1.91,1.91,0,0,1,.86.18,1.76,1.76,0,0,1,.62.5,2.22,2.22,0,0,1,.37.74A3.11,3.11,0,0,1,252,40.92Zm-.54,0a3,3,0,0,0-.07-.65,1.89,1.89,0,0,0-.24-.6,1.38,1.38,0,0,0-.45-.44,1.27,1.27,0,0,0-.68-.17,1.39,1.39,0,0,0-1.13.47,2.14,2.14,0,0,0-.39,1.4,2.79,2.79,0,0,0,.08.69,1.79,1.79,0,0,0,.27.6,1.39,1.39,0,0,0,.48.42,1.45,1.45,0,0,0,.71.16,1.25,1.25,0,0,0,.64-.16,1.35,1.35,0,0,0,.45-.42,1.91,1.91,0,0,0,.26-.6A2.77,2.77,0,0,0,251.5,40.92Z"/><path class="cls-7" d="M253.5,38.73l1.25,1.66L256,38.73h.67l-1.58,2.09,1.71,2.28h-.68l-1.37-1.84-1.34,1.84h-.66l1.7-2.27-1.57-2.1Z"/><line class="cls-8" x1="233.58" y1="34.61" x2="235.58" y2="34.61"/><line class="cls-8" x1="233.58" y1="46.61" x2="235.58" y2="46.61"/><line class="cls-8" x1="59.08" y1="66.96" x2="47.08" y2="66.96"/><line class="cls-8" x1="59.08" y1="67.96" x2="59.08" y2="65.96"/><line class="cls-8" x1="47.08" y1="67.96" x2="47.08" y2="65.96"/></g></svg>