<svg xmlns="http://www.w3.org/2000/svg" xmlns:xlink="http://www.w3.org/1999/xlink" viewBox="0 0 333.16 319"><defs><style>.cls-1{fill:none;}.cls-2{clip-path:url(#clip-path);}.cls-3{fill:#bedef6;}.cls-4{fill:#17486e;}.cls-5{fill:#389aea;}.cls-6{fill:#6d6e70;}</style><clipPath id="clip-path"><circle class="cls-1" cx="156.6" cy="151.85" r="118.3" transform="translate(-39.42 56.16) rotate(-18.1)"/></clipPath></defs><title>Artboard 70</title><g id="Layer_1" data-name="Layer 1"><g class="cls-2"><rect class="cls-3" x="38.27" y="33.52" width="242.11" height="242.11"/><polygon class="cls-4" points="302.23 4.66 156.6 4.66 156.6 150.28 302.23 207.6 302.23 4.66"/><rect class="cls-5" x="11.71" y="4.66" width="145.62" height="145.62"/></g><path class="cls-6" d="M21.5,16.58a5.36,5.36,0,0,1,3.6,1.15,3.9,3.9,0,0,1,1.35,3.12,4.77,4.77,0,0,1-1,2.9,12.65,12.65,0,0,1-3.69,2.9,15.22,15.22,0,0,0-3.06,2.15,3.42,3.42,0,0,0-1,1.78h8.87v1.26H16a5.06,5.06,0,0,1,1-3,12,12,0,0,1,3.55-2.91,16,16,0,0,0,3.48-2.59A3.57,3.57,0,0,0,25,20.82a2.8,2.8,0,0,0-1-2.24,3.83,3.83,0,0,0-2.58-.86,3.91,3.91,0,0,0-1.58.29,3.35,3.35,0,0,0-1.12.77,3.08,3.08,0,0,0-.66,1.09,3.7,3.7,0,0,0-.22,1.24v.3H16.44v-.21a4.9,4.9,0,0,1,.31-1.71A4.21,4.21,0,0,1,17.68,18a4.58,4.58,0,0,1,1.58-1A5.92,5.92,0,0,1,21.5,16.58Z"/><path class="cls-6" d="M39.38,16.87v1.26h-7l-1,4.86.05,0A4.32,4.32,0,0,1,33,22.13a5.42,5.42,0,0,1,1.83-.31,6.14,6.14,0,0,1,2.2.38,4.83,4.83,0,0,1,1.69,1.07,4.77,4.77,0,0,1,1.08,1.65A5.74,5.74,0,0,1,40.15,27a4.7,4.7,0,0,1-.43,2,5.17,5.17,0,0,1-1.18,1.63,5.54,5.54,0,0,1-1.78,1.1,6,6,0,0,1-2.2.4,6.37,6.37,0,0,1-2-.3A4.85,4.85,0,0,1,31,31a4,4,0,0,1-1-1.3,4.23,4.23,0,0,1-.43-1.67H31a3.09,3.09,0,0,0,.3,1.12,2.88,2.88,0,0,0,.73.94,3.62,3.62,0,0,0,1.14.65,4.43,4.43,0,0,0,1.53.25,4,4,0,0,0,2.88-1.21,4.19,4.19,0,0,0,1.17-2.93,4,4,0,0,0-.29-1.51,3.72,3.72,0,0,0-.82-1.25,4,4,0,0,0-1.29-.86A4.23,4.23,0,0,0,34.65,23a4.93,4.93,0,0,0-2,.39,4.06,4.06,0,0,0-1.57,1.2H29.89l1.5-7.67Z"/><path class="cls-6" d="M46,29.62v2.23H44V29.62Z"/><path class="cls-6" d="M55,16.58a7,7,0,0,1,1.8.24,5,5,0,0,1,1.57.71,3.72,3.72,0,0,1,1.11,1.2,3.33,3.33,0,0,1,.42,1.71,3.69,3.69,0,0,1-.18,1.16,3.11,3.11,0,0,1-.52,1,3.2,3.2,0,0,1-.84.74,4,4,0,0,1-1.14.47v0a3.84,3.84,0,0,1,2.45,1.3,3.73,3.73,0,0,1,.82,2.44,4.13,4.13,0,0,1-1.56,3.34,5.23,5.23,0,0,1-1.75,1,7.36,7.36,0,0,1-2.23.31,7.06,7.06,0,0,1-2.06-.29,5.26,5.26,0,0,1-1.7-.85A4.13,4.13,0,0,1,50,29.66a3.83,3.83,0,0,1-.43-1.82v-.32H51v.29A2.91,2.91,0,0,0,51.28,29a3,3,0,0,0,.76,1,3.7,3.7,0,0,0,1.22.7,4.74,4.74,0,0,0,1.63.26,5.23,5.23,0,0,0,1.67-.24,4.13,4.13,0,0,0,1.28-.71A2.93,2.93,0,0,0,59,27.67a3.16,3.16,0,0,0-.26-1.31,2.9,2.9,0,0,0-.78-1,4.25,4.25,0,0,0-2.82-.87H54V23.32h1.26a3.55,3.55,0,0,0,2.22-.73,2.43,2.43,0,0,0,1-2,2.67,2.67,0,0,0-.28-1.24,2.63,2.63,0,0,0-.75-.89,3.29,3.29,0,0,0-1.11-.54,5,5,0,0,0-1.35-.18,4.06,4.06,0,0,0-1.5.26,3.34,3.34,0,0,0-1.13.72,3.16,3.16,0,0,0-.71,1.06A3.28,3.28,0,0,0,51.35,21H49.92a4.09,4.09,0,0,1,.34-1.61,4.4,4.4,0,0,1,1-1.43,5,5,0,0,1,1.58-1A5.43,5.43,0,0,1,55,16.58Z"/><path class="cls-6" d="M68.07,32.17a6.19,6.19,0,0,1-1.73-.23A4.44,4.44,0,0,1,65,31.27a3.81,3.81,0,0,1-1-1.08,4.2,4.2,0,0,1-.55-1.46h1.44a2.87,2.87,0,0,0,.35.89,2.6,2.6,0,0,0,.65.73,3.12,3.12,0,0,0,1,.49A4.19,4.19,0,0,0,68.1,31,3.88,3.88,0,0,0,70,30.58a3.79,3.79,0,0,0,1.38-1.31,6.5,6.5,0,0,0,.84-2.12,13.36,13.36,0,0,0,.28-2.89h0a4.53,4.53,0,0,1-1.76,1.83,4.89,4.89,0,0,1-2.49.68,5.2,5.2,0,0,1-3.78-1.42,4.81,4.81,0,0,1-1.47-3.64A4.87,4.87,0,0,1,64.48,18a5.42,5.42,0,0,1,3.88-1.45,6,6,0,0,1,2.59.51,4.18,4.18,0,0,1,1.71,1.47,7.11,7.11,0,0,1,1,2.44,17.28,17.28,0,0,1,.32,3.59,14,14,0,0,1-.12,1.86,9.35,9.35,0,0,1-.41,1.77,7.61,7.61,0,0,1-.73,1.56A5,5,0,0,1,71.56,31a5,5,0,0,1-1.52.84A5.94,5.94,0,0,1,68.07,32.17Zm4.12-10.56a3.82,3.82,0,0,0-1-2.86,4,4,0,0,0-2.93-1,3.6,3.6,0,0,0-2.74,1.15,3.84,3.84,0,0,0-1.09,2.74,4.08,4.08,0,0,0,1.06,2.87,3.63,3.63,0,0,0,2.81,1.14,3.79,3.79,0,0,0,3.94-4Z"/><path class="cls-6" d="M243,16.57a6.92,6.92,0,0,1,1.8.24,5,5,0,0,1,1.57.71,3.7,3.7,0,0,1,1.11,1.2,3.33,3.33,0,0,1,.42,1.71,3.69,3.69,0,0,1-.18,1.16,3.1,3.1,0,0,1-.52,1,3.2,3.2,0,0,1-.84.74,4,4,0,0,1-1.14.47v0a3.84,3.84,0,0,1,2.45,1.3,3.73,3.73,0,0,1,.82,2.44A4.13,4.13,0,0,1,247,30.9a5.19,5.19,0,0,1-1.75,1,7.33,7.33,0,0,1-2.23.31,7.09,7.09,0,0,1-2.06-.29,5.26,5.26,0,0,1-1.7-.85,4.14,4.14,0,0,1-1.16-1.36,3.83,3.83,0,0,1-.43-1.82v-.32h1.45v.29a2.91,2.91,0,0,0,.26,1.23,3,3,0,0,0,.76,1,3.71,3.71,0,0,0,1.22.7A4.72,4.72,0,0,0,243,31a5.26,5.26,0,0,0,1.67-.24,4.15,4.15,0,0,0,1.28-.71,2.93,2.93,0,0,0,1.19-2.41,3.16,3.16,0,0,0-.26-1.31,2.89,2.89,0,0,0-.78-1,4.24,4.24,0,0,0-2.82-.87h-1.19V23.32h1.26a3.55,3.55,0,0,0,2.22-.73,2.44,2.44,0,0,0,1-2,2.67,2.67,0,0,0-.28-1.24,2.62,2.62,0,0,0-.75-.89,3.25,3.25,0,0,0-1.11-.54,5,5,0,0,0-1.35-.18,4.06,4.06,0,0,0-1.5.26,3.34,3.34,0,0,0-1.13.72,3.16,3.16,0,0,0-.71,1.06,3.29,3.29,0,0,0-.25,1.28H238a4.08,4.08,0,0,1,.34-1.61,4.41,4.41,0,0,1,1-1.43,5,5,0,0,1,1.58-1A5.45,5.45,0,0,1,243,16.57Z"/><path class="cls-6" d="M256.54,16.57a5.52,5.52,0,0,1,2.42.5,4.5,4.5,0,0,1,1.74,1.49,7.06,7.06,0,0,1,1,2.44,14.42,14.42,0,0,1,.35,3.35,10,10,0,0,1-1.42,5.86,5.36,5.36,0,0,1-8.28,0A9.9,9.9,0,0,1,251,24.38q0-3.91,1.43-5.85A4.8,4.8,0,0,1,256.54,16.57Zm-4.12,7.78q0,6.67,4.12,6.67t4.13-6.67a9.46,9.46,0,0,0-1-5,3.43,3.43,0,0,0-3.1-1.67,3.39,3.39,0,0,0-3,1.64A9.44,9.44,0,0,0,252.42,24.36Z"/><path class="cls-6" d="M267.67,29.62v2.23h-2.05V29.62Z"/><path class="cls-6" d="M279.8,28.08v3.76h-1.32V28.08h-7.37V26.77L278.5,16.7h1.3V26.93h2.4v1.15Zm-1.32-9.38h0l-6,8.23h6.07Z"/><path class="cls-6" d="M290.13,16.57a5.36,5.36,0,0,1,3.6,1.15,3.9,3.9,0,0,1,1.35,3.12,4.78,4.78,0,0,1-1,2.9,12.66,12.66,0,0,1-3.69,2.9,15.22,15.22,0,0,0-3.06,2.15,3.43,3.43,0,0,0-1,1.79h8.87v1.26H284.64a5.06,5.06,0,0,1,1-3,12,12,0,0,1,3.55-2.91,16,16,0,0,0,3.48-2.59,3.57,3.57,0,0,0,.94-2.47,2.8,2.8,0,0,0-1-2.24,3.83,3.83,0,0,0-2.58-.86,3.91,3.91,0,0,0-1.58.29,3.35,3.35,0,0,0-1.12.77,3.08,3.08,0,0,0-.66,1.09,3.69,3.69,0,0,0-.22,1.24v.3h-1.43v-.21a4.9,4.9,0,0,1,.31-1.71A4.19,4.19,0,0,1,286.3,18a4.57,4.57,0,0,1,1.58-1A5.92,5.92,0,0,1,290.13,16.57Z"/><path class="cls-6" d="M55.94,302.33v3.76H54.62v-3.76H47.26V301L54.64,291h1.3v10.23h2.4v1.15ZM54.62,293h0l-6,8.23h6.07Z"/><path class="cls-6" d="M69.33,302.33v3.76H68v-3.76H60.65V301L68,291h1.3v10.23h2.4v1.15ZM68,293h0l-6,8.23H68Z"/><path class="cls-6" d="M77.39,303.87v2.22H75.34v-2.22Z"/><path class="cls-6" d="M86.57,306.1V294.85H82.36v-1c.66,0,1.21,0,1.66-.1a4.54,4.54,0,0,0,1.06-.22,2.38,2.38,0,0,0,1.18-.91,4.17,4.17,0,0,0,.58-1.7H88V306.1Z"/><path class="cls-6" d="M99.45,306.43a6.12,6.12,0,0,1-1.73-.23,4.4,4.4,0,0,1-1.39-.67,3.78,3.78,0,0,1-1-1.08,4.19,4.19,0,0,1-.55-1.46h1.44a2.87,2.87,0,0,0,.35.89,2.57,2.57,0,0,0,.65.73,3.12,3.12,0,0,0,1,.49,4.13,4.13,0,0,0,1.28.18,3.9,3.9,0,0,0,1.89-.45,3.79,3.79,0,0,0,1.38-1.31,6.52,6.52,0,0,0,.84-2.12,13.38,13.38,0,0,0,.28-2.89h0a4.52,4.52,0,0,1-1.76,1.84,4.89,4.89,0,0,1-2.49.68,5.2,5.2,0,0,1-3.78-1.42A4.81,4.81,0,0,1,94.31,296a4.87,4.87,0,0,1,1.53-3.69,5.43,5.43,0,0,1,3.88-1.45,6,6,0,0,1,2.59.51,4.19,4.19,0,0,1,1.71,1.47,7.12,7.12,0,0,1,1,2.44,17.26,17.26,0,0,1,.32,3.59,14,14,0,0,1-.12,1.86,9.35,9.35,0,0,1-.41,1.77A7.54,7.54,0,0,1,104,304a5,5,0,0,1-1.1,1.26,5,5,0,0,1-1.52.83A5.92,5.92,0,0,1,99.45,306.43Zm4.12-10.56a3.82,3.82,0,0,0-1-2.86,4,4,0,0,0-2.93-1,3.6,3.6,0,0,0-2.74,1.15,3.84,3.84,0,0,0-1.09,2.74,4.08,4.08,0,0,0,1.06,2.87,3.64,3.64,0,0,0,2.81,1.14,3.79,3.79,0,0,0,3.94-4Z"/><path class="cls-6" d="M85.41,17.8a3.41,3.41,0,0,1-.14,1,2.12,2.12,0,0,1-.41.76,1.72,1.72,0,0,1-.67.47,2.37,2.37,0,0,1-.91.16,2,2,0,0,1-1.58-.63,2.63,2.63,0,0,1-.55-1.79A2.63,2.63,0,0,1,81.71,16a2,2,0,0,1,1.57-.62,2.42,2.42,0,0,1,.91.16,1.73,1.73,0,0,1,.67.48,2.13,2.13,0,0,1,.41.76A3.41,3.41,0,0,1,85.41,17.8Zm-.71,0a3,3,0,0,0-.07-.65,1.9,1.9,0,0,0-.24-.6,1.37,1.37,0,0,0-.44-.44,1.25,1.25,0,0,0-.68-.17,1.23,1.23,0,0,0-1,.48,2.19,2.19,0,0,0-.37,1.38,2.18,2.18,0,0,0,.37,1.35,1.24,1.24,0,0,0,1.05.48,1.26,1.26,0,0,0,.66-.16,1.29,1.29,0,0,0,.43-.42,1.81,1.81,0,0,0,.24-.59A3.3,3.3,0,0,0,84.7,17.82Zm-1.29,7h-.64l6.06-9.73h.63Zm7.86-2.67a3.41,3.41,0,0,1-.14,1,2.1,2.1,0,0,1-.41.76,1.74,1.74,0,0,1-.67.48,2.39,2.39,0,0,1-.91.16,2.24,2.24,0,0,1-.94-.18,1.81,1.81,0,0,1-.66-.51,2.18,2.18,0,0,1-.39-.77,3.7,3.7,0,0,1,0-2,2.14,2.14,0,0,1,.41-.76,1.71,1.71,0,0,1,.67-.48,2.64,2.64,0,0,1,1.83,0,1.72,1.72,0,0,1,.67.48,2.14,2.14,0,0,1,.41.76A3.41,3.41,0,0,1,91.28,22.2Zm-.71,0a3,3,0,0,0-.07-.65,1.9,1.9,0,0,0-.24-.6,1.37,1.37,0,0,0-.44-.44,1.25,1.25,0,0,0-.68-.17,1.23,1.23,0,0,0-1,.48,2.24,2.24,0,0,0-.37,1.38,2.17,2.17,0,0,0,.37,1.35,1.24,1.24,0,0,0,1,.48,1.27,1.27,0,0,0,.66-.16,1.3,1.3,0,0,0,.43-.42,1.8,1.8,0,0,0,.24-.59A3.3,3.3,0,0,0,90.57,22.21Z"/><path class="cls-6" d="M309.21,17.8a3.41,3.41,0,0,1-.14,1,2.12,2.12,0,0,1-.41.76,1.72,1.72,0,0,1-.67.47,2.37,2.37,0,0,1-.91.16,2,2,0,0,1-1.58-.63A2.63,2.63,0,0,1,305,17.8a2.63,2.63,0,0,1,.55-1.79,2,2,0,0,1,1.57-.62,2.42,2.42,0,0,1,.91.16,1.73,1.73,0,0,1,.67.48,2.13,2.13,0,0,1,.41.76A3.41,3.41,0,0,1,309.21,17.8Zm-.71,0a3,3,0,0,0-.07-.65,1.9,1.9,0,0,0-.24-.6,1.37,1.37,0,0,0-.44-.44,1.25,1.25,0,0,0-.68-.17,1.23,1.23,0,0,0-1,.48,2.19,2.19,0,0,0-.37,1.38,2.18,2.18,0,0,0,.37,1.35,1.24,1.24,0,0,0,1.05.48,1.26,1.26,0,0,0,.66-.16,1.29,1.29,0,0,0,.43-.42,1.81,1.81,0,0,0,.24-.59A3.3,3.3,0,0,0,308.5,17.82Zm-1.29,7h-.64l6.06-9.73h.63Zm7.86-2.67a3.41,3.41,0,0,1-.14,1,2.1,2.1,0,0,1-.41.76,1.74,1.74,0,0,1-.67.48,2.39,2.39,0,0,1-.91.16,2.24,2.24,0,0,1-.94-.18,1.81,1.81,0,0,1-.66-.51,2.18,2.18,0,0,1-.39-.77,3.7,3.7,0,0,1,0-2,2.14,2.14,0,0,1,.41-.76,1.71,1.71,0,0,1,.67-.48,2.64,2.64,0,0,1,1.83,0,1.72,1.72,0,0,1,.67.48,2.14,2.14,0,0,1,.41.76A3.41,3.41,0,0,1,315.08,22.2Zm-.71,0a3,3,0,0,0-.07-.65,1.9,1.9,0,0,0-.24-.6,1.37,1.37,0,0,0-.44-.44,1.25,1.25,0,0,0-.68-.17,1.23,1.23,0,0,0-1,.48,2.24,2.24,0,0,0-.37,1.38,2.17,2.17,0,0,0,.37,1.35,1.24,1.24,0,0,0,1,.48,1.27,1.27,0,0,0,.66-.16,1.3,1.3,0,0,0,.43-.42,1.8,1.8,0,0,0,.24-.59A3.3,3.3,0,0,0,314.36,22.21Z"/><path class="cls-6" d="M119.17,291.75a3.41,3.41,0,0,1-.14,1,2.1,2.1,0,0,1-.41.76,1.74,1.74,0,0,1-.67.48,2.39,2.39,0,0,1-.91.16,2,2,0,0,1-1.58-.63,3.18,3.18,0,0,1,0-3.59,2,2,0,0,1,1.57-.63,2.4,2.4,0,0,1,.91.16,1.72,1.72,0,0,1,.67.48,2.13,2.13,0,0,1,.41.76A3.4,3.4,0,0,1,119.17,291.75Zm-.71,0a3,3,0,0,0-.07-.65,1.9,1.9,0,0,0-.24-.6,1.37,1.37,0,0,0-.44-.44,1.25,1.25,0,0,0-.68-.17,1.23,1.23,0,0,0-1,.48,2.71,2.71,0,0,0,0,2.73,1.24,1.24,0,0,0,1.05.48,1.27,1.27,0,0,0,.66-.16,1.31,1.31,0,0,0,.43-.42,1.82,1.82,0,0,0,.24-.59A3.31,3.31,0,0,0,118.46,291.77Zm-1.29,7h-.64l6.06-9.73h.63Zm7.86-2.66a3.4,3.4,0,0,1-.14,1,2.1,2.1,0,0,1-.41.76,1.76,1.76,0,0,1-.67.48,2.4,2.4,0,0,1-.91.16,2.24,2.24,0,0,1-.94-.18,1.81,1.81,0,0,1-.66-.51,2.19,2.19,0,0,1-.39-.77,3.7,3.7,0,0,1,0-2,2.13,2.13,0,0,1,.41-.76,1.71,1.71,0,0,1,.67-.47,2.64,2.64,0,0,1,1.83,0,1.71,1.71,0,0,1,.67.47,2.13,2.13,0,0,1,.41.76A3.41,3.41,0,0,1,125,296.15Zm-.71,0a3,3,0,0,0-.07-.65,1.92,1.92,0,0,0-.24-.6,1.37,1.37,0,0,0-.44-.44,1.26,1.26,0,0,0-.68-.17,1.22,1.22,0,0,0-1,.48,2.23,2.23,0,0,0-.37,1.38,2.16,2.16,0,0,0,.37,1.35,1.24,1.24,0,0,0,1,.49,1.28,1.28,0,0,0,.66-.16,1.32,1.32,0,0,0,.43-.42,1.82,1.82,0,0,0,.24-.59A3.3,3.3,0,0,0,124.33,296.16Z"/></g></svg>