<svg xmlns="http://www.w3.org/2000/svg" viewBox="0 0 1316 532"><defs><style>.cls-1{fill:#d2d2d2;}.cls-10,.cls-2,.cls-3,.cls-9{fill:none;}.cls-2{stroke:#dcdcdc;opacity:0.3;}.cls-10,.cls-2,.cls-3,.cls-4,.cls-9{stroke-miterlimit:10;}.cls-3,.cls-4{stroke:#d2d2d2;}.cls-4,.cls-6{fill:#969696;}.cls-4{stroke-width:4px;}.cls-5{fill:#464646;}.cls-7{fill:#389aea;}.cls-8{fill:#e57c5c;}.cls-10,.cls-9{stroke:#505050;stroke-width:2px;}.cls-10{stroke-dasharray:12.1 12.1;}</style></defs><title>Artboard 69</title><g id="Layer_1" data-name="Layer 1"><path class="cls-1" d="M1302.81,15.78v480H68.81v-480h1234m1-1H67.81v482h1236v-482Z"/><line class="cls-2" x1="208.31" y1="16.28" x2="208.31" y2="496.28"/><line class="cls-2" x1="188.31" y1="16.28" x2="188.31" y2="496.28"/><line class="cls-2" x1="168.31" y1="16.28" x2="168.31" y2="496.28"/><line class="cls-2" x1="148.31" y1="16.28" x2="148.31" y2="496.28"/><line class="cls-2" x1="128.31" y1="16.28" x2="128.31" y2="496.28"/><line class="cls-2" x1="108.31" y1="16.28" x2="108.31" y2="496.28"/><line class="cls-2" x1="88.31" y1="16.28" x2="88.31" y2="496.28"/><line class="cls-2" x1="288.31" y1="16.28" x2="288.31" y2="496.28"/><line class="cls-2" x1="268.31" y1="16.28" x2="268.31" y2="496.28"/><line class="cls-2" x1="248.31" y1="16.28" x2="248.31" y2="496.28"/><line class="cls-3" x1="228.31" y1="16.28" x2="228.31" y2="496.28"/><line class="cls-2" x1="348.31" y1="16.28" x2="348.31" y2="496.28"/><line class="cls-2" x1="328.31" y1="16.28" x2="328.31" y2="496.28"/><line class="cls-2" x1="308.31" y1="16.28" x2="308.31" y2="496.28"/><line class="cls-2" x1="428.31" y1="16.28" x2="428.31" y2="496.28"/><line class="cls-2" x1="408.31" y1="16.28" x2="408.31" y2="496.28"/><line class="cls-3" x1="388.31" y1="16.28" x2="388.31" y2="496.28"/><line class="cls-2" x1="368.31" y1="16.28" x2="368.31" y2="496.28"/><line class="cls-2" x1="488.31" y1="16.28" x2="488.31" y2="496.28"/><line class="cls-2" x1="468.31" y1="16.28" x2="468.31" y2="496.28"/><line class="cls-2" x1="448.31" y1="16.28" x2="448.31" y2="496.28"/><line class="cls-2" x1="568.31" y1="16.28" x2="568.31" y2="496.28"/><line class="cls-3" x1="548.31" y1="16.28" x2="548.31" y2="496.28"/><line class="cls-2" x1="528.31" y1="16.28" x2="528.31" y2="496.28"/><line class="cls-2" x1="508.31" y1="16.28" x2="508.31" y2="496.28"/><line class="cls-2" x1="628.31" y1="16.28" x2="628.31" y2="496.28"/><line class="cls-2" x1="608.31" y1="16.28" x2="608.31" y2="496.28"/><line class="cls-2" x1="588.31" y1="16.28" x2="588.31" y2="496.28"/><line class="cls-3" x1="708.31" y1="16.28" x2="708.31" y2="496.28"/><line class="cls-2" x1="688.31" y1="16.28" x2="688.31" y2="496.28"/><line class="cls-2" x1="668.31" y1="16.28" x2="668.31" y2="496.28"/><line class="cls-2" x1="648.31" y1="16.28" x2="648.31" y2="496.28"/><line class="cls-2" x1="768.31" y1="16.28" x2="768.31" y2="496.28"/><line class="cls-2" x1="748.31" y1="16.28" x2="748.31" y2="496.28"/><line class="cls-2" x1="728.31" y1="16.28" x2="728.31" y2="496.28"/><line class="cls-2" x1="848.31" y1="16.28" x2="848.31" y2="496.28"/><line class="cls-2" x1="828.31" y1="16.28" x2="828.31" y2="496.28"/><line class="cls-2" x1="808.31" y1="16.28" x2="808.31" y2="496.28"/><line class="cls-2" x1="788.31" y1="16.28" x2="788.31" y2="496.28"/><line class="cls-2" x1="908.31" y1="16.28" x2="908.31" y2="496.28"/><line class="cls-2" x1="888.31" y1="16.28" x2="888.31" y2="496.28"/><line class="cls-3" x1="868.31" y1="16.28" x2="868.31" y2="496.28"/><line class="cls-2" x1="988.31" y1="16.28" x2="988.31" y2="496.28"/><line class="cls-2" x1="968.31" y1="16.28" x2="968.31" y2="496.28"/><line class="cls-2" x1="948.31" y1="16.28" x2="948.31" y2="496.28"/><line class="cls-2" x1="928.31" y1="16.28" x2="928.31" y2="496.28"/><line class="cls-2" x1="1048.31" y1="16.28" x2="1048.31" y2="496.28"/><line class="cls-3" x1="1028.31" y1="16.28" x2="1028.31" y2="496.28"/><line class="cls-2" x1="1008.31" y1="16.28" x2="1008.31" y2="496.28"/><line class="cls-2" x1="1128.31" y1="16.28" x2="1128.31" y2="496.28"/><line class="cls-2" x1="1108.31" y1="16.28" x2="1108.31" y2="496.28"/><line class="cls-2" x1="1088.31" y1="16.28" x2="1088.31" y2="496.28"/><line class="cls-2" x1="1068.31" y1="16.28" x2="1068.31" y2="496.28"/><line class="cls-3" x1="1188.31" y1="16.28" x2="1188.31" y2="496.28"/><line class="cls-2" x1="1168.31" y1="16.28" x2="1168.31" y2="496.28"/><line class="cls-2" x1="1148.31" y1="16.28" x2="1148.31" y2="496.28"/><line class="cls-2" x1="1268.31" y1="16.28" x2="1268.31" y2="496.28"/><line class="cls-2" x1="1248.31" y1="16.28" x2="1248.31" y2="496.28"/><line class="cls-2" x1="1228.31" y1="16.28" x2="1228.31" y2="496.28"/><line class="cls-2" x1="1208.31" y1="16.28" x2="1208.31" y2="496.28"/><line class="cls-2" x1="1288.31" y1="16.28" x2="1288.31" y2="496.28"/><line class="cls-3" x1="69.74" y1="101.28" x2="1303.74" y2="101.28"/><line class="cls-3" x1="69.74" y1="180.28" x2="1303.74" y2="180.28"/><line class="cls-3" x1="69.74" y1="257.28" x2="1303.74" y2="257.28"/><line class="cls-3" x1="69.74" y1="335.28" x2="1303.74" y2="335.28"/><line class="cls-3" x1="69.74" y1="414.28" x2="1303.74" y2="414.28"/><line class="cls-4" x1="67.74" y1="498.78" x2="1303.74" y2="498.78"/><path class="cls-5" d="M42.71,16.56a3.57,3.57,0,0,1,1,.13,2.67,2.67,0,0,1,.85.41,2.08,2.08,0,0,1,.6.69,2,2,0,0,1,.23,1,2.22,2.22,0,0,1-.1.66A1.82,1.82,0,0,1,45,20a1.77,1.77,0,0,1-.45.42,2.14,2.14,0,0,1-.62.27v0a2.06,2.06,0,0,1,1.33.74,2.21,2.21,0,0,1,.45,1.39,2.41,2.41,0,0,1-.84,1.91,2.78,2.78,0,0,1-1,.55,3.78,3.78,0,0,1-1.21.18,3.66,3.66,0,0,1-1.12-.17,2.8,2.8,0,0,1-.92-.49A2.34,2.34,0,0,1,40,24a2.28,2.28,0,0,1-.23-1v-.18h.79V23a1.74,1.74,0,0,0,.56,1.28,2,2,0,0,0,.66.4,2.45,2.45,0,0,0,.88.15,2.7,2.7,0,0,0,.91-.13,2.21,2.21,0,0,0,.69-.4,1.7,1.7,0,0,0,.64-1.38,1.89,1.89,0,0,0-.14-.75,1.64,1.64,0,0,0-.42-.58,2.22,2.22,0,0,0-1.53-.5h-.64v-.66h.69A1.86,1.86,0,0,0,44.07,20a1.42,1.42,0,0,0,.52-1.15,1.59,1.59,0,0,0-.15-.71,1.48,1.48,0,0,0-.4-.51,1.73,1.73,0,0,0-.6-.31,2.56,2.56,0,0,0-.73-.1,2.1,2.1,0,0,0-.81.15,1.8,1.8,0,0,0-.61.41,1.82,1.82,0,0,0-.39.6,2,2,0,0,0-.13.73H40a2.44,2.44,0,0,1,.18-.92,2.53,2.53,0,0,1,.53-.82,2.7,2.7,0,0,1,.86-.59A2.82,2.82,0,0,1,42.71,16.56Z"/><path class="cls-5" d="M50,16.56a2.87,2.87,0,0,1,1.32.29,2.48,2.48,0,0,1,.94.85,4.14,4.14,0,0,1,.57,1.39A8.64,8.64,0,0,1,53.05,21a5.94,5.94,0,0,1-.77,3.35,2.82,2.82,0,0,1-4.49,0A5.89,5.89,0,0,1,47,21a5.89,5.89,0,0,1,.77-3.35A2.56,2.56,0,0,1,50,16.56ZM47.8,21q0,3.81,2.23,3.81T52.27,21a5.64,5.64,0,0,0-.57-2.84,1.84,1.84,0,0,0-1.68-1,1.82,1.82,0,0,0-1.65.94A5.63,5.63,0,0,0,47.8,21Z"/><path class="cls-5" d="M57.3,16.56a2.87,2.87,0,0,1,1.32.29,2.48,2.48,0,0,1,.94.85,4.14,4.14,0,0,1,.57,1.39A8.64,8.64,0,0,1,60.32,21a5.94,5.94,0,0,1-.77,3.35,2.82,2.82,0,0,1-4.49,0A5.89,5.89,0,0,1,54.29,21a5.89,5.89,0,0,1,.77-3.35A2.56,2.56,0,0,1,57.3,16.56ZM55.07,21q0,3.81,2.23,3.81T59.54,21A5.64,5.64,0,0,0,59,18.17a1.84,1.84,0,0,0-1.68-1,1.82,1.82,0,0,0-1.65.94A5.63,5.63,0,0,0,55.07,21Z"/><path class="cls-5" d="M42.78,95.56a2.81,2.81,0,0,1,2,.66A2.28,2.28,0,0,1,45.46,98a2.82,2.82,0,0,1-.55,1.66,7,7,0,0,1-2,1.66,8.29,8.29,0,0,0-1.66,1.23,2,2,0,0,0-.56,1H45.5v.72H39.8a3,3,0,0,1,.56-1.74,6.61,6.61,0,0,1,1.93-1.66,8.78,8.78,0,0,0,1.89-1.48A2.11,2.11,0,0,0,44.68,98a1.64,1.64,0,0,0-.54-1.28,2,2,0,0,0-1.4-.49,2,2,0,0,0-.86.17,1.82,1.82,0,0,0-.61.44,1.77,1.77,0,0,0-.36.62,2.2,2.2,0,0,0-.12.71v.17H40V98.2a2.93,2.93,0,0,1,.17-1,2.42,2.42,0,0,1,.51-.84,2.47,2.47,0,0,1,.86-.59A3.06,3.06,0,0,1,42.78,95.56Z"/><path class="cls-5" d="M52.47,95.73v.72H48.69l-.54,2.78,0,0a2.32,2.32,0,0,1,.82-.52,2.79,2.79,0,0,1,1-.18,3.18,3.18,0,0,1,1.2.22,2.6,2.6,0,0,1,.92.61,2.73,2.73,0,0,1,.59.94,3.43,3.43,0,0,1,.21,1.22,2.81,2.81,0,0,1-.23,1.14,2.94,2.94,0,0,1-1.61,1.56,3.12,3.12,0,0,1-1.2.23,3.29,3.29,0,0,1-1.1-.17,2.59,2.59,0,0,1-.85-.48,2.26,2.26,0,0,1-.56-.74,2.52,2.52,0,0,1-.23-1h.79a1.84,1.84,0,0,0,.16.64,1.65,1.65,0,0,0,.4.54,2,2,0,0,0,.62.37,2.29,2.29,0,0,0,.83.14,2.06,2.06,0,0,0,.87-.18,2.14,2.14,0,0,0,.7-.5,2.4,2.4,0,0,0,.46-.75,2.49,2.49,0,0,0,.17-.92,2.41,2.41,0,0,0-.16-.86,2.12,2.12,0,0,0-1.14-1.2,2.2,2.2,0,0,0-.91-.18,2.55,2.55,0,0,0-1.07.23,2.22,2.22,0,0,0-.85.68h-.66l.81-4.38Z"/><path class="cls-5" d="M57.3,95.56a2.87,2.87,0,0,1,1.32.29,2.48,2.48,0,0,1,.94.85,4.14,4.14,0,0,1,.57,1.39,8.64,8.64,0,0,1,.19,1.92,5.94,5.94,0,0,1-.77,3.35,2.82,2.82,0,0,1-4.49,0,7.62,7.62,0,0,1,0-6.69A2.56,2.56,0,0,1,57.3,95.56ZM55.07,100q0,3.81,2.23,3.81T59.54,100A5.64,5.64,0,0,0,59,97.17a1.84,1.84,0,0,0-1.68-1,1.82,1.82,0,0,0-1.65.94A5.63,5.63,0,0,0,55.07,100Z"/><path class="cls-5" d="M42.78,174.56a2.81,2.81,0,0,1,2,.66,2.28,2.28,0,0,1,.73,1.78,2.82,2.82,0,0,1-.55,1.66,7,7,0,0,1-2,1.66,8.29,8.29,0,0,0-1.66,1.23,2,2,0,0,0-.56,1H45.5v.72H39.8a3,3,0,0,1,.56-1.74,6.61,6.61,0,0,1,1.93-1.66,8.78,8.78,0,0,0,1.89-1.48,2.11,2.11,0,0,0,.51-1.41,1.64,1.64,0,0,0-.54-1.28,2,2,0,0,0-1.4-.49,2,2,0,0,0-.86.17,1.82,1.82,0,0,0-.61.44,1.77,1.77,0,0,0-.36.62,2.2,2.2,0,0,0-.12.71v.17H40v-.12a2.93,2.93,0,0,1,.17-1,2.42,2.42,0,0,1,.51-.84,2.47,2.47,0,0,1,.86-.59A3.06,3.06,0,0,1,42.78,174.56Z"/><path class="cls-5" d="M50,174.56a2.87,2.87,0,0,1,1.32.29,2.48,2.48,0,0,1,.94.85,4.14,4.14,0,0,1,.57,1.39,8.64,8.64,0,0,1,.19,1.92,5.94,5.94,0,0,1-.77,3.35,2.82,2.82,0,0,1-4.49,0,7.62,7.62,0,0,1,0-6.69A2.56,2.56,0,0,1,50,174.56ZM47.8,179q0,3.81,2.23,3.81T52.27,179a5.64,5.64,0,0,0-.57-2.84,1.84,1.84,0,0,0-1.68-1,1.82,1.82,0,0,0-1.65.94A5.63,5.63,0,0,0,47.8,179Z"/><path class="cls-5" d="M57.3,174.56a2.87,2.87,0,0,1,1.32.29,2.48,2.48,0,0,1,.94.85,4.14,4.14,0,0,1,.57,1.39,8.64,8.64,0,0,1,.19,1.92,5.94,5.94,0,0,1-.77,3.35,2.82,2.82,0,0,1-4.49,0,7.62,7.62,0,0,1,0-6.69A2.56,2.56,0,0,1,57.3,174.56ZM55.07,179q0,3.81,2.23,3.81T59.54,179a5.64,5.64,0,0,0-.57-2.84,1.84,1.84,0,0,0-1.68-1,1.82,1.82,0,0,0-1.65.94A5.63,5.63,0,0,0,55.07,179Z"/><path class="cls-5" d="M42.84,262.28v-6.43H40.56v-.56q.53,0,.9-.06a2.36,2.36,0,0,0,.57-.13,1.3,1.3,0,0,0,.64-.52,2.46,2.46,0,0,0,.31-1h.63v8.65Z"/><path class="cls-5" d="M52.47,253.73v.72H48.69l-.54,2.78,0,0a2.32,2.32,0,0,1,.82-.52,2.79,2.79,0,0,1,1-.18,3.18,3.18,0,0,1,1.2.22,2.6,2.6,0,0,1,.92.61,2.73,2.73,0,0,1,.59.94,3.43,3.43,0,0,1,.21,1.22,2.81,2.81,0,0,1-.23,1.14,2.94,2.94,0,0,1-1.61,1.56,3.12,3.12,0,0,1-1.2.23,3.29,3.29,0,0,1-1.1-.17,2.59,2.59,0,0,1-.85-.48,2.26,2.26,0,0,1-.56-.74,2.52,2.52,0,0,1-.23-1h.79a1.84,1.84,0,0,0,.16.64,1.65,1.65,0,0,0,.4.54,2,2,0,0,0,.62.37,2.29,2.29,0,0,0,.83.14,2.06,2.06,0,0,0,.87-.18,2.14,2.14,0,0,0,.7-.5,2.4,2.4,0,0,0,.46-.75,2.49,2.49,0,0,0,.17-.92,2.41,2.41,0,0,0-.16-.86,2.12,2.12,0,0,0-1.14-1.2,2.2,2.2,0,0,0-.91-.18,2.55,2.55,0,0,0-1.07.23,2.22,2.22,0,0,0-.85.68h-.66l.81-4.38Z"/><path class="cls-5" d="M57.3,253.56a2.87,2.87,0,0,1,1.32.29,2.48,2.48,0,0,1,.94.85,4.14,4.14,0,0,1,.57,1.39,8.64,8.64,0,0,1,.19,1.92,5.94,5.94,0,0,1-.77,3.35,2.82,2.82,0,0,1-4.49,0,7.62,7.62,0,0,1,0-6.69A2.56,2.56,0,0,1,57.3,253.56ZM55.07,258q0,3.81,2.23,3.81T59.54,258a5.64,5.64,0,0,0-.57-2.84,1.84,1.84,0,0,0-1.68-1,1.82,1.82,0,0,0-1.65.94A5.63,5.63,0,0,0,55.07,258Z"/><path class="cls-5" d="M42.84,341.28v-6.43H40.56v-.56q.53,0,.9-.06a2.36,2.36,0,0,0,.57-.13,1.3,1.3,0,0,0,.64-.52,2.46,2.46,0,0,0,.31-1h.63v8.65Z"/><path class="cls-5" d="M50,332.56a2.87,2.87,0,0,1,1.32.29,2.48,2.48,0,0,1,.94.85,4.14,4.14,0,0,1,.57,1.39,8.64,8.64,0,0,1,.19,1.92,5.94,5.94,0,0,1-.77,3.35,2.82,2.82,0,0,1-4.49,0,7.62,7.62,0,0,1,0-6.69A2.56,2.56,0,0,1,50,332.56ZM47.8,337q0,3.81,2.23,3.81T52.27,337a5.64,5.64,0,0,0-.57-2.84,1.84,1.84,0,0,0-1.68-1,1.82,1.82,0,0,0-1.65.94A5.63,5.63,0,0,0,47.8,337Z"/><path class="cls-5" d="M57.3,332.56a2.87,2.87,0,0,1,1.32.29,2.48,2.48,0,0,1,.94.85,4.14,4.14,0,0,1,.57,1.39,8.64,8.64,0,0,1,.19,1.92,5.94,5.94,0,0,1-.77,3.35,2.82,2.82,0,0,1-4.49,0,7.62,7.62,0,0,1,0-6.69A2.56,2.56,0,0,1,57.3,332.56ZM55.07,337q0,3.81,2.23,3.81T59.54,337a5.64,5.64,0,0,0-.57-2.84,1.84,1.84,0,0,0-1.68-1,1.82,1.82,0,0,0-1.65.94A5.63,5.63,0,0,0,55.07,337Z"/><path class="cls-5" d="M52.47,411.73v.72H48.69l-.54,2.78,0,0a2.32,2.32,0,0,1,.82-.52,2.79,2.79,0,0,1,1-.18,3.18,3.18,0,0,1,1.2.22,2.6,2.6,0,0,1,.92.61,2.73,2.73,0,0,1,.59.94,3.43,3.43,0,0,1,.21,1.22,2.81,2.81,0,0,1-.23,1.14,2.94,2.94,0,0,1-1.61,1.56,3.12,3.12,0,0,1-1.2.23,3.29,3.29,0,0,1-1.1-.17,2.59,2.59,0,0,1-.85-.48,2.26,2.26,0,0,1-.56-.74,2.52,2.52,0,0,1-.23-1h.79a1.84,1.84,0,0,0,.16.64,1.65,1.65,0,0,0,.4.54,2,2,0,0,0,.62.37,2.29,2.29,0,0,0,.83.14,2.06,2.06,0,0,0,.87-.18,2.14,2.14,0,0,0,.7-.5,2.4,2.4,0,0,0,.46-.75,2.49,2.49,0,0,0,.17-.92,2.41,2.41,0,0,0-.16-.86,2.12,2.12,0,0,0-1.14-1.2,2.2,2.2,0,0,0-.91-.18,2.55,2.55,0,0,0-1.07.23,2.22,2.22,0,0,0-.85.68h-.66l.81-4.38Z"/><path class="cls-5" d="M57.3,411.56a2.87,2.87,0,0,1,1.32.29,2.48,2.48,0,0,1,.94.85,4.14,4.14,0,0,1,.57,1.39,8.64,8.64,0,0,1,.19,1.92,5.94,5.94,0,0,1-.77,3.35,2.82,2.82,0,0,1-4.49,0,7.62,7.62,0,0,1,0-6.69A2.56,2.56,0,0,1,57.3,411.56ZM55.07,416q0,3.81,2.23,3.81T59.54,416a5.64,5.64,0,0,0-.57-2.84,1.84,1.84,0,0,0-1.68-1,1.82,1.82,0,0,0-1.65.94A5.63,5.63,0,0,0,55.07,416Z"/><path class="cls-5" d="M57.3,490.56a2.87,2.87,0,0,1,1.32.29,2.48,2.48,0,0,1,.94.85,4.14,4.14,0,0,1,.57,1.39,8.64,8.64,0,0,1,.19,1.92,5.94,5.94,0,0,1-.77,3.35,2.82,2.82,0,0,1-4.49,0,7.62,7.62,0,0,1,0-6.69A2.56,2.56,0,0,1,57.3,490.56ZM55.07,495q0,3.81,2.23,3.81T59.54,495a5.64,5.64,0,0,0-.57-2.84,1.84,1.84,0,0,0-1.68-1,1.82,1.82,0,0,0-1.65.94A5.63,5.63,0,0,0,55.07,495Z"/><path class="cls-5" d="M50.68,522.91v-6.43H48.4v-.56q.53,0,.9-.06a2.36,2.36,0,0,0,.57-.13,1.3,1.3,0,0,0,.64-.52,2.46,2.46,0,0,0,.31-1h.63v8.65Z"/><path class="cls-5" d="M57.95,522.91v-6.43H55.66v-.56q.53,0,.9-.06a2.36,2.36,0,0,0,.57-.13,1.3,1.3,0,0,0,.64-.52,2.46,2.46,0,0,0,.31-1h.63v8.65Z"/><path class="cls-5" d="M63.92,521.64v1.27H62.8v-1.27Z"/><path class="cls-5" d="M76,520.64a2.15,2.15,0,0,1-.28,1.14,2.26,2.26,0,0,1-.76.76,3.46,3.46,0,0,1-1.1.42,6.15,6.15,0,0,1-1.29.13,4.8,4.8,0,0,1-1.28-.16,3.18,3.18,0,0,1-1-.49,2.35,2.35,0,0,1-.69-.79,2.22,2.22,0,0,1-.25-1.08v-.19h.82v.06a1.87,1.87,0,0,0,.16.76,1.65,1.65,0,0,0,.48.62,2.43,2.43,0,0,0,.81.42,3.79,3.79,0,0,0,1.15.16,4,4,0,0,0,.9-.1,2.56,2.56,0,0,0,.79-.32,1.81,1.81,0,0,0,.56-.54,1.38,1.38,0,0,0,.21-.78q0-1.11-1.67-1.52l-2-.49a4,4,0,0,1-.88-.31,2.14,2.14,0,0,1-.6-.44,1.6,1.6,0,0,1-.35-.58,2.24,2.24,0,0,1-.11-.73,2.1,2.1,0,0,1,.25-1,2.34,2.34,0,0,1,.68-.76,3.07,3.07,0,0,1,1-.46,4.16,4.16,0,0,1,1.14-.16,4.34,4.34,0,0,1,1.2.16,2.9,2.9,0,0,1,1,.46,2.27,2.27,0,0,1,.64.75,2.24,2.24,0,0,1,.25,1h-.81a1.6,1.6,0,0,0-.2-.65,1.78,1.78,0,0,0-.46-.53,2.24,2.24,0,0,0-.69-.36,2.81,2.81,0,0,0-.88-.13,3.49,3.49,0,0,0-.91.11,2.16,2.16,0,0,0-.71.33,1.46,1.46,0,0,0-.46.53,1.6,1.6,0,0,0-.16.73,1.2,1.2,0,0,0,.11.52,1.13,1.13,0,0,0,.29.38,1.54,1.54,0,0,0,.43.25,4,4,0,0,0,.53.17l2,.48a3.73,3.73,0,0,1,1.76.85A1.93,1.93,0,0,1,76,520.64Z"/><path class="cls-5" d="M80.23,516.16a2.71,2.71,0,0,1,1.3.29,2.6,2.6,0,0,1,.9.79,3.45,3.45,0,0,1,.52,1.13,5.21,5.21,0,0,1,.17,1.34v.13H78.07a3.58,3.58,0,0,0,.13.94,2.59,2.59,0,0,0,.39.83,2,2,0,0,0,.66.59,1.92,1.92,0,0,0,.95.22,2.44,2.44,0,0,0,.7-.09,2,2,0,0,0,.56-.26,1.76,1.76,0,0,0,.42-.39,2.41,2.41,0,0,0,.29-.49h.79a3,3,0,0,1-.38.79,2.48,2.48,0,0,1-.59.6,2.68,2.68,0,0,1-.79.39,3.34,3.34,0,0,1-1,.14,2.94,2.94,0,0,1-1.3-.27,2.56,2.56,0,0,1-.91-.73,3.12,3.12,0,0,1-.54-1.1,5.14,5.14,0,0,1-.18-1.37,4.66,4.66,0,0,1,.18-1.28,3.36,3.36,0,0,1,.54-1.11,2.74,2.74,0,0,1,.92-.78A2.79,2.79,0,0,1,80.23,516.16Zm2.09,3a3,3,0,0,0-.16-.85,2.44,2.44,0,0,0-.41-.75,2.07,2.07,0,0,0-.65-.54,1.84,1.84,0,0,0-.88-.21,1.84,1.84,0,0,0-1.5.7,2.7,2.7,0,0,0-.42.75,4.31,4.31,0,0,0-.23.9Z"/><path class="cls-5" d="M90.85,519.63a4.77,4.77,0,0,1-.17,1.28,3.38,3.38,0,0,1-.53,1.11,2.69,2.69,0,0,1-.92.79,2.78,2.78,0,0,1-1.32.3,2.81,2.81,0,0,1-.71-.09,2.45,2.45,0,0,1-.65-.27,2.29,2.29,0,0,1-.54-.45,2.21,2.21,0,0,1-.38-.63h0v3.67h-.8v-9h.74v1.25h0a2.24,2.24,0,0,1,.39-.61,2.29,2.29,0,0,1,.55-.45,2.67,2.67,0,0,1,.67-.28,2.81,2.81,0,0,1,.74-.1,2.85,2.85,0,0,1,1.29.28,2.64,2.64,0,0,1,.92.75,3.32,3.32,0,0,1,.56,1.1A4.67,4.67,0,0,1,90.85,519.63Zm-.8,0a4.48,4.48,0,0,0-.11-1,2.84,2.84,0,0,0-.37-.9,2.07,2.07,0,0,0-.67-.66,1.9,1.9,0,0,0-1-.26,2.09,2.09,0,0,0-1.7.7,3.21,3.21,0,0,0-.58,2.09,4.2,4.2,0,0,0,.13,1,2.68,2.68,0,0,0,.4.9,2.1,2.1,0,0,0,.71.64,2.16,2.16,0,0,0,1.06.24,1.87,1.87,0,0,0,1-.24,2,2,0,0,0,.67-.63,2.87,2.87,0,0,0,.39-.9A4.14,4.14,0,0,0,90.05,519.63Z"/><path class="cls-5" d="M208.18,522.91v-6.43H205.9v-.56q.53,0,.9-.06a2.36,2.36,0,0,0,.57-.13,1.3,1.3,0,0,0,.64-.52,2.46,2.46,0,0,0,.31-1H209v8.65Z"/><path class="cls-5" d="M215.38,514.19a2.81,2.81,0,0,1,2,.66,2.28,2.28,0,0,1,.73,1.78,2.82,2.82,0,0,1-.55,1.66,7,7,0,0,1-2,1.66,8.29,8.29,0,0,0-1.66,1.23,2,2,0,0,0-.56,1h4.81v.72h-5.7a3,3,0,0,1,.56-1.74,6.61,6.61,0,0,1,1.93-1.66,8.78,8.78,0,0,0,1.89-1.48,2.11,2.11,0,0,0,.51-1.41,1.64,1.64,0,0,0-.54-1.28,2,2,0,0,0-1.4-.49,2,2,0,0,0-.86.17,1.82,1.82,0,0,0-.61.44,1.77,1.77,0,0,0-.36.62,2.2,2.2,0,0,0-.12.71v.17h-.77v-.12a2.93,2.93,0,0,1,.17-1,2.42,2.42,0,0,1,.51-.84,2.47,2.47,0,0,1,.86-.59A3.06,3.06,0,0,1,215.38,514.19Z"/><path class="cls-5" d="M221.42,521.64v1.27H220.3v-1.27Z"/><path class="cls-5" d="M233.47,520.64a2.15,2.15,0,0,1-.28,1.14,2.26,2.26,0,0,1-.76.76,3.46,3.46,0,0,1-1.1.42,6.15,6.15,0,0,1-1.29.13,4.8,4.8,0,0,1-1.28-.16,3.18,3.18,0,0,1-1-.49,2.35,2.35,0,0,1-.69-.79,2.22,2.22,0,0,1-.25-1.08v-.19h.82v.06a1.87,1.87,0,0,0,.16.76,1.65,1.65,0,0,0,.48.62,2.43,2.43,0,0,0,.81.42,3.79,3.79,0,0,0,1.15.16,4,4,0,0,0,.9-.1,2.56,2.56,0,0,0,.79-.32,1.81,1.81,0,0,0,.56-.54,1.38,1.38,0,0,0,.21-.78q0-1.11-1.67-1.52l-2-.49a4,4,0,0,1-.88-.31,2.14,2.14,0,0,1-.6-.44,1.6,1.6,0,0,1-.35-.58,2.24,2.24,0,0,1-.11-.73,2.1,2.1,0,0,1,.25-1,2.34,2.34,0,0,1,.68-.76,3.07,3.07,0,0,1,1-.46,4.16,4.16,0,0,1,1.14-.16,4.34,4.34,0,0,1,1.2.16,2.9,2.9,0,0,1,1,.46,2.27,2.27,0,0,1,.64.75,2.24,2.24,0,0,1,.25,1h-.81a1.6,1.6,0,0,0-.2-.65,1.78,1.78,0,0,0-.46-.53A2.24,2.24,0,0,0,231,515a2.81,2.81,0,0,0-.88-.13,3.49,3.49,0,0,0-.91.11,2.16,2.16,0,0,0-.71.33,1.46,1.46,0,0,0-.46.53,1.6,1.6,0,0,0-.16.73,1.2,1.2,0,0,0,.11.52,1.13,1.13,0,0,0,.29.38,1.54,1.54,0,0,0,.43.25,4,4,0,0,0,.53.17l2,.48a3.73,3.73,0,0,1,1.76.85A1.93,1.93,0,0,1,233.47,520.64Z"/><path class="cls-5" d="M237.73,516.16a2.71,2.71,0,0,1,1.3.29,2.6,2.6,0,0,1,.9.79,3.45,3.45,0,0,1,.52,1.13,5.21,5.21,0,0,1,.17,1.34v.13h-5.05a3.58,3.58,0,0,0,.13.94,2.59,2.59,0,0,0,.39.83,2,2,0,0,0,.66.59,1.92,1.92,0,0,0,.95.22,2.44,2.44,0,0,0,.7-.09,2,2,0,0,0,.56-.26,1.76,1.76,0,0,0,.42-.39,2.41,2.41,0,0,0,.29-.49h.79a3,3,0,0,1-.38.79,2.48,2.48,0,0,1-.59.6,2.68,2.68,0,0,1-.79.39,3.34,3.34,0,0,1-1,.14,2.94,2.94,0,0,1-1.3-.27,2.56,2.56,0,0,1-.91-.73,3.12,3.12,0,0,1-.54-1.1,5.14,5.14,0,0,1-.18-1.37,4.66,4.66,0,0,1,.18-1.28,3.36,3.36,0,0,1,.54-1.11,2.74,2.74,0,0,1,.92-.78A2.79,2.79,0,0,1,237.73,516.16Zm2.09,3a3,3,0,0,0-.16-.85,2.44,2.44,0,0,0-.41-.75,2.07,2.07,0,0,0-.65-.54,1.84,1.84,0,0,0-.88-.21,1.84,1.84,0,0,0-1.5.7,2.7,2.7,0,0,0-.42.75,4.31,4.31,0,0,0-.23.9Z"/><path class="cls-5" d="M248.35,519.63a4.77,4.77,0,0,1-.17,1.28,3.38,3.38,0,0,1-.53,1.11,2.69,2.69,0,0,1-.92.79,2.78,2.78,0,0,1-1.32.3,2.81,2.81,0,0,1-.71-.09,2.45,2.45,0,0,1-.65-.27,2.29,2.29,0,0,1-.54-.45,2.21,2.21,0,0,1-.38-.63h0v3.67h-.8v-9H243v1.25h0a2.24,2.24,0,0,1,.39-.61,2.29,2.29,0,0,1,.55-.45,2.67,2.67,0,0,1,.67-.28,2.81,2.81,0,0,1,.74-.1,2.85,2.85,0,0,1,1.29.28,2.64,2.64,0,0,1,.92.75,3.32,3.32,0,0,1,.56,1.1A4.67,4.67,0,0,1,248.35,519.63Zm-.8,0a4.48,4.48,0,0,0-.11-1,2.84,2.84,0,0,0-.37-.9,2.07,2.07,0,0,0-.67-.66,1.9,1.9,0,0,0-1-.26,2.09,2.09,0,0,0-1.7.7,3.21,3.21,0,0,0-.58,2.09,4.2,4.2,0,0,0,.13,1,2.68,2.68,0,0,0,.4.9,2.1,2.1,0,0,0,.71.64,2.16,2.16,0,0,0,1.06.24,1.87,1.87,0,0,0,1-.24,2,2,0,0,0,.67-.63,2.87,2.87,0,0,0,.39-.9A4.14,4.14,0,0,0,247.55,519.63Z"/><path class="cls-5" d="M369.68,522.91v-6.43H367.4v-.56q.53,0,.9-.06a2.36,2.36,0,0,0,.57-.13,1.3,1.3,0,0,0,.64-.52,2.46,2.46,0,0,0,.31-1h.63v8.65Z"/><path class="cls-5" d="M376.81,514.19a3.57,3.57,0,0,1,1,.13,2.67,2.67,0,0,1,.85.41,2.08,2.08,0,0,1,.6.69,2,2,0,0,1,.23,1,2.22,2.22,0,0,1-.1.66,1.82,1.82,0,0,1-.28.56,1.77,1.77,0,0,1-.45.42,2.14,2.14,0,0,1-.62.27v0a2.06,2.06,0,0,1,1.33.74,2.21,2.21,0,0,1,.45,1.39,2.41,2.41,0,0,1-.84,1.91,2.78,2.78,0,0,1-1,.55,3.78,3.78,0,0,1-1.21.18,3.66,3.66,0,0,1-1.12-.17,2.8,2.8,0,0,1-.92-.49,2.34,2.34,0,0,1-.63-.78,2.28,2.28,0,0,1-.23-1v-.18h.79v.16a1.74,1.74,0,0,0,.56,1.28,2,2,0,0,0,.66.4,2.45,2.45,0,0,0,.88.15,2.7,2.7,0,0,0,.91-.13,2.21,2.21,0,0,0,.69-.4,1.7,1.7,0,0,0,.64-1.38,1.89,1.89,0,0,0-.14-.75,1.64,1.64,0,0,0-.42-.58,2.22,2.22,0,0,0-1.53-.5h-.64V518H377a1.86,1.86,0,0,0,1.21-.42,1.42,1.42,0,0,0,.52-1.15,1.59,1.59,0,0,0-.15-.71,1.48,1.48,0,0,0-.4-.51,1.73,1.73,0,0,0-.6-.31,2.56,2.56,0,0,0-.73-.1,2.1,2.1,0,0,0-.81.15,1.8,1.8,0,0,0-.61.41,1.82,1.82,0,0,0-.39.6,2,2,0,0,0-.13.73h-.78a2.44,2.44,0,0,1,.18-.92,2.53,2.53,0,0,1,.53-.82,2.7,2.7,0,0,1,.86-.59A2.82,2.82,0,0,1,376.81,514.19Z"/><path class="cls-5" d="M382.92,521.64v1.27H381.8v-1.27Z"/><path class="cls-5" d="M395,520.64a2.15,2.15,0,0,1-.28,1.14,2.26,2.26,0,0,1-.76.76,3.46,3.46,0,0,1-1.1.42,6.15,6.15,0,0,1-1.29.13,4.8,4.8,0,0,1-1.28-.16,3.18,3.18,0,0,1-1-.49,2.35,2.35,0,0,1-.69-.79,2.22,2.22,0,0,1-.25-1.08v-.19h.82v.06a1.87,1.87,0,0,0,.16.76,1.65,1.65,0,0,0,.48.62,2.43,2.43,0,0,0,.81.42,3.79,3.79,0,0,0,1.15.16,4,4,0,0,0,.9-.1,2.56,2.56,0,0,0,.79-.32,1.81,1.81,0,0,0,.56-.54,1.38,1.38,0,0,0,.21-.78q0-1.11-1.67-1.52l-2-.49a4,4,0,0,1-.88-.31,2.14,2.14,0,0,1-.6-.44,1.6,1.6,0,0,1-.35-.58,2.24,2.24,0,0,1-.11-.73,2.1,2.1,0,0,1,.25-1,2.34,2.34,0,0,1,.68-.76,3.07,3.07,0,0,1,1-.46,4.16,4.16,0,0,1,1.14-.16,4.34,4.34,0,0,1,1.2.16,2.9,2.9,0,0,1,1,.46,2.27,2.27,0,0,1,.64.75,2.24,2.24,0,0,1,.25,1h-.81a1.6,1.6,0,0,0-.2-.65,1.78,1.78,0,0,0-.46-.53,2.24,2.24,0,0,0-.69-.36,2.81,2.81,0,0,0-.88-.13,3.49,3.49,0,0,0-.91.11,2.16,2.16,0,0,0-.71.33,1.46,1.46,0,0,0-.46.53,1.6,1.6,0,0,0-.16.73,1.2,1.2,0,0,0,.11.52,1.13,1.13,0,0,0,.29.38,1.54,1.54,0,0,0,.43.25,4,4,0,0,0,.53.17l2,.48a3.73,3.73,0,0,1,1.76.85A1.93,1.93,0,0,1,395,520.64Z"/><path class="cls-5" d="M399.23,516.16a2.71,2.71,0,0,1,1.3.29,2.6,2.6,0,0,1,.9.79,3.45,3.45,0,0,1,.52,1.13,5.21,5.21,0,0,1,.17,1.34v.13h-5.05a3.58,3.58,0,0,0,.13.94,2.59,2.59,0,0,0,.39.83,2,2,0,0,0,.66.59,1.92,1.92,0,0,0,.95.22,2.44,2.44,0,0,0,.7-.09,2,2,0,0,0,.56-.26,1.76,1.76,0,0,0,.42-.39,2.41,2.41,0,0,0,.29-.49h.79a3,3,0,0,1-.38.79,2.48,2.48,0,0,1-.59.6,2.68,2.68,0,0,1-.79.39,3.34,3.34,0,0,1-1,.14,2.94,2.94,0,0,1-1.3-.27,2.56,2.56,0,0,1-.91-.73,3.12,3.12,0,0,1-.54-1.1,5.14,5.14,0,0,1-.18-1.37,4.66,4.66,0,0,1,.18-1.28,3.36,3.36,0,0,1,.54-1.11,2.74,2.74,0,0,1,.92-.78A2.79,2.79,0,0,1,399.23,516.16Zm2.09,3a3,3,0,0,0-.16-.85,2.44,2.44,0,0,0-.41-.75,2.07,2.07,0,0,0-.65-.54,1.84,1.84,0,0,0-.88-.21,1.84,1.84,0,0,0-1.5.7,2.7,2.7,0,0,0-.42.75,4.31,4.31,0,0,0-.23.9Z"/><path class="cls-5" d="M409.85,519.63a4.77,4.77,0,0,1-.17,1.28,3.38,3.38,0,0,1-.53,1.11,2.69,2.69,0,0,1-.92.79,2.78,2.78,0,0,1-1.32.3,2.81,2.81,0,0,1-.71-.09,2.45,2.45,0,0,1-.65-.27,2.29,2.29,0,0,1-.54-.45,2.21,2.21,0,0,1-.38-.63h0v3.67h-.8v-9h.74v1.25h0a2.24,2.24,0,0,1,.39-.61,2.29,2.29,0,0,1,.55-.45,2.67,2.67,0,0,1,.67-.28,2.81,2.81,0,0,1,.74-.1,2.85,2.85,0,0,1,1.29.28,2.64,2.64,0,0,1,.92.75,3.32,3.32,0,0,1,.56,1.1A4.67,4.67,0,0,1,409.85,519.63Zm-.8,0a4.48,4.48,0,0,0-.11-1,2.84,2.84,0,0,0-.37-.9,2.07,2.07,0,0,0-.67-.66,1.9,1.9,0,0,0-1-.26,2.09,2.09,0,0,0-1.7.7,3.21,3.21,0,0,0-.58,2.09,4.2,4.2,0,0,0,.13,1,2.68,2.68,0,0,0,.4.9,2.1,2.1,0,0,0,.71.64,2.16,2.16,0,0,0,1.06.24,1.87,1.87,0,0,0,1-.24,2,2,0,0,0,.67-.63,2.87,2.87,0,0,0,.39-.9A4.14,4.14,0,0,0,409.05,519.63Z"/><path class="cls-5" d="M531.18,522.91v-6.43H528.9v-.56q.53,0,.9-.06a2.36,2.36,0,0,0,.57-.13,1.31,1.31,0,0,0,.64-.52,2.46,2.46,0,0,0,.31-1H532v8.65Z"/><path class="cls-5" d="M540,520.76v2.15h-.71v-2.15h-4V520l4-5.75h.7v5.85h1.3v.66Zm-.71-5.36h0L536,520.1h3.29Z"/><path class="cls-5" d="M544.42,521.64v1.27H543.3v-1.27Z"/><path class="cls-5" d="M556.47,520.64a2.15,2.15,0,0,1-.28,1.14,2.26,2.26,0,0,1-.76.76,3.46,3.46,0,0,1-1.1.42,6.16,6.16,0,0,1-1.29.13,4.79,4.79,0,0,1-1.28-.16,3.18,3.18,0,0,1-1-.49,2.35,2.35,0,0,1-.7-.79,2.22,2.22,0,0,1-.25-1.08v-.19h.82v.06a1.87,1.87,0,0,0,.16.76,1.65,1.65,0,0,0,.48.62,2.43,2.43,0,0,0,.81.42,3.79,3.79,0,0,0,1.15.16,4,4,0,0,0,.9-.1,2.55,2.55,0,0,0,.79-.32,1.81,1.81,0,0,0,.56-.54,1.38,1.38,0,0,0,.21-.78q0-1.11-1.67-1.52l-2-.49a4,4,0,0,1-.87-.31,2.15,2.15,0,0,1-.6-.44,1.6,1.6,0,0,1-.35-.58,2.24,2.24,0,0,1-.11-.73,2.1,2.1,0,0,1,.26-1,2.34,2.34,0,0,1,.68-.76,3.07,3.07,0,0,1,1-.46,4.15,4.15,0,0,1,1.14-.16,4.34,4.34,0,0,1,1.2.16,2.9,2.9,0,0,1,1,.46,2.27,2.27,0,0,1,.64.75,2.24,2.24,0,0,1,.25,1h-.81a1.6,1.6,0,0,0-.2-.65,1.78,1.78,0,0,0-.46-.53A2.24,2.24,0,0,0,554,515a2.81,2.81,0,0,0-.88-.13,3.49,3.49,0,0,0-.91.11,2.15,2.15,0,0,0-.71.33,1.46,1.46,0,0,0-.46.53,1.6,1.6,0,0,0-.16.73,1.2,1.2,0,0,0,.11.52,1.13,1.13,0,0,0,.29.38,1.54,1.54,0,0,0,.43.25,4,4,0,0,0,.53.17l2,.48a3.73,3.73,0,0,1,1.76.85A1.93,1.93,0,0,1,556.47,520.64Z"/><path class="cls-5" d="M560.73,516.16a2.71,2.71,0,0,1,1.3.29,2.6,2.6,0,0,1,.9.79,3.45,3.45,0,0,1,.52,1.13,5.21,5.21,0,0,1,.17,1.34v.13h-5.05a3.58,3.58,0,0,0,.13.94,2.59,2.59,0,0,0,.39.83,2,2,0,0,0,.66.59,1.92,1.92,0,0,0,.95.22,2.45,2.45,0,0,0,.7-.09,2,2,0,0,0,.56-.26,1.76,1.76,0,0,0,.42-.39,2.41,2.41,0,0,0,.29-.49h.79a3,3,0,0,1-.38.79,2.48,2.48,0,0,1-.59.6,2.68,2.68,0,0,1-.79.39,3.34,3.34,0,0,1-1,.14,2.93,2.93,0,0,1-1.3-.27,2.56,2.56,0,0,1-.91-.73,3.12,3.12,0,0,1-.54-1.1,5.14,5.14,0,0,1-.18-1.37,4.66,4.66,0,0,1,.18-1.28,3.36,3.36,0,0,1,.54-1.11,2.74,2.74,0,0,1,.92-.78A2.78,2.78,0,0,1,560.73,516.16Zm2.09,3a3,3,0,0,0-.16-.85,2.44,2.44,0,0,0-.41-.75,2.07,2.07,0,0,0-.65-.54,1.85,1.85,0,0,0-.88-.21,1.84,1.84,0,0,0-1.5.7,2.7,2.7,0,0,0-.42.75,4.31,4.31,0,0,0-.23.9Z"/><path class="cls-5" d="M571.35,519.63a4.77,4.77,0,0,1-.17,1.28,3.38,3.38,0,0,1-.53,1.11,2.69,2.69,0,0,1-.92.79,3,3,0,0,1-2,.21,2.45,2.45,0,0,1-.65-.27,2.29,2.29,0,0,1-.54-.45,2.21,2.21,0,0,1-.38-.63h0v3.67h-.8v-9H566v1.25h0a2.24,2.24,0,0,1,.39-.61,2.29,2.29,0,0,1,.55-.45,2.67,2.67,0,0,1,.66-.28,2.81,2.81,0,0,1,.74-.1,2.86,2.86,0,0,1,1.29.28,2.64,2.64,0,0,1,.92.75,3.32,3.32,0,0,1,.56,1.1A4.67,4.67,0,0,1,571.35,519.63Zm-.8,0a4.48,4.48,0,0,0-.11-1,2.84,2.84,0,0,0-.37-.9,2.07,2.07,0,0,0-.67-.66,1.9,1.9,0,0,0-1-.26,2.09,2.09,0,0,0-1.7.7,3.21,3.21,0,0,0-.58,2.09,4.2,4.2,0,0,0,.13,1,2.68,2.68,0,0,0,.4.9,2.1,2.1,0,0,0,.71.64,2.16,2.16,0,0,0,1.06.24,1.87,1.87,0,0,0,1-.24,2,2,0,0,0,.67-.63,2.87,2.87,0,0,0,.39-.9A4.14,4.14,0,0,0,570.55,519.63Z"/><path class="cls-5" d="M692.68,522.91v-6.43H690.4v-.56q.53,0,.9-.06a2.36,2.36,0,0,0,.57-.13,1.3,1.3,0,0,0,.64-.52,2.46,2.46,0,0,0,.31-1h.63v8.65Z"/><path class="cls-5" d="M702.32,514.36v.72h-3.78l-.54,2.78,0,0a2.32,2.32,0,0,1,.82-.52,2.79,2.79,0,0,1,1-.18,3.18,3.18,0,0,1,1.2.22,2.6,2.6,0,0,1,.92.61,2.73,2.73,0,0,1,.59.94,3.43,3.43,0,0,1,.21,1.22,2.81,2.81,0,0,1-.23,1.14,2.94,2.94,0,0,1-1.61,1.56,3.12,3.12,0,0,1-1.2.23,3.29,3.29,0,0,1-1.1-.17,2.59,2.59,0,0,1-.85-.48,2.26,2.26,0,0,1-.56-.74,2.52,2.52,0,0,1-.23-1h.79a1.84,1.84,0,0,0,.16.64,1.65,1.65,0,0,0,.4.54,2,2,0,0,0,.62.37,2.29,2.29,0,0,0,.83.14,2.06,2.06,0,0,0,.87-.18,2.14,2.14,0,0,0,.7-.5,2.4,2.4,0,0,0,.46-.75,2.49,2.49,0,0,0,.17-.92,2.41,2.41,0,0,0-.16-.86,2.12,2.12,0,0,0-1.14-1.2,2.2,2.2,0,0,0-.91-.18,2.55,2.55,0,0,0-1.07.23,2.22,2.22,0,0,0-.85.68h-.66l.81-4.38Z"/><path class="cls-5" d="M705.92,521.64v1.27h-1.11v-1.27Z"/><path class="cls-5" d="M718,520.64a2.15,2.15,0,0,1-.28,1.14,2.26,2.26,0,0,1-.76.76,3.46,3.46,0,0,1-1.1.42,6.15,6.15,0,0,1-1.29.13,4.8,4.8,0,0,1-1.28-.16,3.18,3.18,0,0,1-1-.49,2.35,2.35,0,0,1-.69-.79,2.22,2.22,0,0,1-.25-1.08v-.19h.82v.06a1.87,1.87,0,0,0,.16.76,1.65,1.65,0,0,0,.48.62,2.43,2.43,0,0,0,.81.42,3.79,3.79,0,0,0,1.15.16,4,4,0,0,0,.9-.1,2.56,2.56,0,0,0,.79-.32,1.81,1.81,0,0,0,.56-.54,1.38,1.38,0,0,0,.21-.78q0-1.11-1.67-1.52l-2-.49a4,4,0,0,1-.88-.31,2.14,2.14,0,0,1-.6-.44,1.6,1.6,0,0,1-.35-.58,2.24,2.24,0,0,1-.11-.73,2.1,2.1,0,0,1,.25-1,2.34,2.34,0,0,1,.68-.76,3.07,3.07,0,0,1,1-.46,4.16,4.16,0,0,1,1.14-.16,4.34,4.34,0,0,1,1.2.16,2.9,2.9,0,0,1,1,.46,2.27,2.27,0,0,1,.64.75,2.24,2.24,0,0,1,.25,1h-.81a1.6,1.6,0,0,0-.2-.65,1.78,1.78,0,0,0-.46-.53,2.24,2.24,0,0,0-.69-.36,2.81,2.81,0,0,0-.88-.13,3.49,3.49,0,0,0-.91.11,2.16,2.16,0,0,0-.71.33,1.46,1.46,0,0,0-.46.53,1.6,1.6,0,0,0-.16.73,1.2,1.2,0,0,0,.11.52,1.13,1.13,0,0,0,.29.38,1.54,1.54,0,0,0,.43.25,4,4,0,0,0,.53.17l2,.48a3.73,3.73,0,0,1,1.76.85A1.93,1.93,0,0,1,718,520.64Z"/><path class="cls-5" d="M722.23,516.16a2.71,2.71,0,0,1,1.3.29,2.6,2.6,0,0,1,.9.79,3.45,3.45,0,0,1,.52,1.13,5.21,5.21,0,0,1,.17,1.34v.13h-5.05a3.58,3.58,0,0,0,.13.94,2.59,2.59,0,0,0,.39.83,2,2,0,0,0,.66.59,1.92,1.92,0,0,0,.95.22,2.44,2.44,0,0,0,.7-.09,2,2,0,0,0,.56-.26,1.76,1.76,0,0,0,.42-.39,2.41,2.41,0,0,0,.29-.49h.79a3,3,0,0,1-.38.79,2.48,2.48,0,0,1-.59.6,2.68,2.68,0,0,1-.79.39,3.34,3.34,0,0,1-1,.14,2.94,2.94,0,0,1-1.3-.27,2.56,2.56,0,0,1-.91-.73,3.12,3.12,0,0,1-.54-1.1,5.14,5.14,0,0,1-.18-1.37,4.66,4.66,0,0,1,.18-1.28,3.36,3.36,0,0,1,.54-1.11,2.74,2.74,0,0,1,.92-.78A2.79,2.79,0,0,1,722.23,516.16Zm2.09,3a3,3,0,0,0-.16-.85,2.44,2.44,0,0,0-.41-.75,2.07,2.07,0,0,0-.65-.54,1.84,1.84,0,0,0-.88-.21,1.84,1.84,0,0,0-1.5.7,2.7,2.7,0,0,0-.42.75,4.31,4.31,0,0,0-.23.9Z"/><path class="cls-5" d="M732.85,519.63a4.77,4.77,0,0,1-.17,1.28,3.38,3.38,0,0,1-.53,1.11,2.69,2.69,0,0,1-.92.79,2.78,2.78,0,0,1-1.32.3,2.81,2.81,0,0,1-.71-.09,2.45,2.45,0,0,1-.65-.27,2.29,2.29,0,0,1-.54-.45,2.21,2.21,0,0,1-.38-.63h0v3.67h-.8v-9h.74v1.25h0A2.24,2.24,0,0,1,728,517a2.29,2.29,0,0,1,.55-.45,2.67,2.67,0,0,1,.67-.28,2.81,2.81,0,0,1,.74-.1,2.85,2.85,0,0,1,1.29.28,2.64,2.64,0,0,1,.92.75,3.32,3.32,0,0,1,.56,1.1A4.67,4.67,0,0,1,732.85,519.63Zm-.8,0a4.48,4.48,0,0,0-.11-1,2.84,2.84,0,0,0-.37-.9,2.07,2.07,0,0,0-.67-.66,1.9,1.9,0,0,0-1-.26,2.09,2.09,0,0,0-1.7.7,3.21,3.21,0,0,0-.58,2.09,4.2,4.2,0,0,0,.13,1,2.68,2.68,0,0,0,.4.9,2.1,2.1,0,0,0,.71.64,2.16,2.16,0,0,0,1.06.24,1.87,1.87,0,0,0,1-.24,2,2,0,0,0,.67-.63,2.87,2.87,0,0,0,.39-.9A4.14,4.14,0,0,0,732.05,519.63Z"/><path class="cls-5" d="M854.18,522.91v-6.43H851.9v-.56q.53,0,.9-.06a2.36,2.36,0,0,0,.57-.13,1.3,1.3,0,0,0,.64-.52,2.46,2.46,0,0,0,.31-1H855v8.65Z"/><path class="cls-5" d="M861.63,514.19a3.17,3.17,0,0,1,.94.13,2.34,2.34,0,0,1,.75.38,2.14,2.14,0,0,1,.54.62,2.49,2.49,0,0,1,.3.83h-.78a1.7,1.7,0,0,0-.19-.51,1.45,1.45,0,0,0-.35-.42,1.67,1.67,0,0,0-.52-.28,2.16,2.16,0,0,0-.69-.1,2,2,0,0,0-1,.25,2.1,2.1,0,0,0-.75.75,3.82,3.82,0,0,0-.45,1.21,8,8,0,0,0-.15,1.65h0a2.58,2.58,0,0,1,2.31-1.44,2.74,2.74,0,0,1,2.05.81,2.83,2.83,0,0,1,.8,2.08,2.84,2.84,0,0,1-2.94,2.94,3.09,3.09,0,0,1-1.41-.29,2.31,2.31,0,0,1-.93-.84,4.2,4.2,0,0,1-.52-1.39,10.4,10.4,0,0,1-.17-2.05,8.43,8.43,0,0,1,.07-1.06,5.56,5.56,0,0,1,.22-1,4.46,4.46,0,0,1,.4-.89,2.83,2.83,0,0,1,.6-.72,2.66,2.66,0,0,1,.82-.48A3.07,3.07,0,0,1,861.63,514.19Zm-2.23,6a2.25,2.25,0,0,0,.57,1.63,2.11,2.11,0,0,0,1.59.59,1.91,1.91,0,0,0,1.49-.66,2.26,2.26,0,0,0,.59-1.56,2.4,2.4,0,0,0-.57-1.64,1.93,1.93,0,0,0-1.52-.65,2,2,0,0,0-1.54.63A2.3,2.3,0,0,0,859.4,520.22Z"/><path class="cls-5" d="M867.42,521.64v1.27h-1.11v-1.27Z"/><path class="cls-5" d="M879.47,520.64a2.15,2.15,0,0,1-.28,1.14,2.26,2.26,0,0,1-.76.76,3.46,3.46,0,0,1-1.1.42,6.15,6.15,0,0,1-1.29.13,4.8,4.8,0,0,1-1.28-.16,3.18,3.18,0,0,1-1-.49,2.35,2.35,0,0,1-.69-.79,2.22,2.22,0,0,1-.25-1.08v-.19h.82v.06a1.87,1.87,0,0,0,.16.76,1.65,1.65,0,0,0,.48.62,2.43,2.43,0,0,0,.81.42,3.79,3.79,0,0,0,1.15.16,4,4,0,0,0,.9-.1,2.56,2.56,0,0,0,.79-.32,1.81,1.81,0,0,0,.56-.54,1.38,1.38,0,0,0,.21-.78q0-1.11-1.67-1.52l-2-.49a4,4,0,0,1-.88-.31,2.14,2.14,0,0,1-.6-.44,1.6,1.6,0,0,1-.35-.58,2.24,2.24,0,0,1-.11-.73,2.1,2.1,0,0,1,.25-1,2.34,2.34,0,0,1,.68-.76,3.07,3.07,0,0,1,1-.46,4.16,4.16,0,0,1,1.14-.16,4.34,4.34,0,0,1,1.2.16,2.9,2.9,0,0,1,1,.46,2.27,2.27,0,0,1,.64.75,2.24,2.24,0,0,1,.25,1h-.81a1.6,1.6,0,0,0-.2-.65,1.78,1.78,0,0,0-.46-.53A2.24,2.24,0,0,0,877,515a2.81,2.81,0,0,0-.88-.13,3.49,3.49,0,0,0-.91.11,2.16,2.16,0,0,0-.71.33,1.46,1.46,0,0,0-.46.53,1.6,1.6,0,0,0-.16.73,1.2,1.2,0,0,0,.11.52,1.13,1.13,0,0,0,.29.38,1.54,1.54,0,0,0,.43.25,4,4,0,0,0,.53.17l2,.48a3.73,3.73,0,0,1,1.76.85A1.93,1.93,0,0,1,879.47,520.64Z"/><path class="cls-5" d="M883.73,516.16a2.71,2.71,0,0,1,1.3.29,2.6,2.6,0,0,1,.9.79,3.45,3.45,0,0,1,.52,1.13,5.21,5.21,0,0,1,.17,1.34v.13h-5.05a3.58,3.58,0,0,0,.13.94,2.59,2.59,0,0,0,.39.83,2,2,0,0,0,.66.59,1.92,1.92,0,0,0,.95.22,2.44,2.44,0,0,0,.7-.09,2,2,0,0,0,.56-.26,1.76,1.76,0,0,0,.42-.39,2.41,2.41,0,0,0,.29-.49h.79a3,3,0,0,1-.38.79,2.48,2.48,0,0,1-.59.6,2.68,2.68,0,0,1-.79.39,3.34,3.34,0,0,1-1,.14,2.94,2.94,0,0,1-1.3-.27,2.56,2.56,0,0,1-.91-.73,3.12,3.12,0,0,1-.54-1.1,5.14,5.14,0,0,1-.18-1.37,4.66,4.66,0,0,1,.18-1.28,3.36,3.36,0,0,1,.54-1.11,2.74,2.74,0,0,1,.92-.78A2.79,2.79,0,0,1,883.73,516.16Zm2.09,3a3,3,0,0,0-.16-.85,2.44,2.44,0,0,0-.41-.75,2.07,2.07,0,0,0-.65-.54,1.84,1.84,0,0,0-.88-.21,1.84,1.84,0,0,0-1.5.7,2.7,2.7,0,0,0-.42.75,4.31,4.31,0,0,0-.23.9Z"/><path class="cls-5" d="M894.35,519.63a4.77,4.77,0,0,1-.17,1.28,3.38,3.38,0,0,1-.53,1.11,2.69,2.69,0,0,1-.92.79,2.78,2.78,0,0,1-1.32.3,2.81,2.81,0,0,1-.71-.09,2.45,2.45,0,0,1-.65-.27,2.29,2.29,0,0,1-.54-.45,2.21,2.21,0,0,1-.38-.63h0v3.67h-.8v-9H889v1.25h0a2.24,2.24,0,0,1,.39-.61,2.29,2.29,0,0,1,.55-.45,2.67,2.67,0,0,1,.67-.28,2.81,2.81,0,0,1,.74-.1,2.85,2.85,0,0,1,1.29.28,2.64,2.64,0,0,1,.92.75,3.32,3.32,0,0,1,.56,1.1A4.67,4.67,0,0,1,894.35,519.63Zm-.8,0a4.48,4.48,0,0,0-.11-1,2.84,2.84,0,0,0-.37-.9,2.07,2.07,0,0,0-.67-.66,1.9,1.9,0,0,0-1-.26,2.09,2.09,0,0,0-1.7.7,3.21,3.21,0,0,0-.58,2.09,4.2,4.2,0,0,0,.13,1,2.68,2.68,0,0,0,.4.9,2.1,2.1,0,0,0,.71.64,2.16,2.16,0,0,0,1.06.24,1.87,1.87,0,0,0,1-.24,2,2,0,0,0,.67-.63,2.87,2.87,0,0,0,.39-.9A4.14,4.14,0,0,0,893.55,519.63Z"/><path class="cls-5" d="M1015.68,522.91v-6.43h-2.29v-.56q.53,0,.9-.06a2.36,2.36,0,0,0,.57-.13,1.3,1.3,0,0,0,.64-.52,2.46,2.46,0,0,0,.31-1h.63v8.65Z"/><path class="cls-5" d="M1025.66,514.36v.71a13.7,13.7,0,0,0-1.42,1.75,13.19,13.19,0,0,0-1.08,1.91,11.5,11.5,0,0,0-.7,2,12.2,12.2,0,0,0-.31,2.14h-.84a12.81,12.81,0,0,1,.32-2.12,10.53,10.53,0,0,1,.67-1.93,15.67,15.67,0,0,1,2.58-3.79h-4.79v-.71Z"/><path class="cls-5" d="M1028.92,521.64v1.27h-1.11v-1.27Z"/><path class="cls-5" d="M1041,520.64a2.15,2.15,0,0,1-.28,1.14,2.26,2.26,0,0,1-.76.76,3.46,3.46,0,0,1-1.1.42,6.15,6.15,0,0,1-1.29.13,4.8,4.8,0,0,1-1.28-.16,3.18,3.18,0,0,1-1-.49,2.35,2.35,0,0,1-.69-.79,2.22,2.22,0,0,1-.25-1.08v-.19h.82v.06a1.87,1.87,0,0,0,.16.76,1.65,1.65,0,0,0,.48.62,2.43,2.43,0,0,0,.81.42,3.79,3.79,0,0,0,1.15.16,4,4,0,0,0,.9-.1,2.56,2.56,0,0,0,.79-.32,1.81,1.81,0,0,0,.56-.54,1.38,1.38,0,0,0,.21-.78q0-1.11-1.67-1.52l-2-.49a4,4,0,0,1-.88-.31,2.14,2.14,0,0,1-.6-.44,1.6,1.6,0,0,1-.35-.58,2.24,2.24,0,0,1-.11-.73,2.1,2.1,0,0,1,.25-1,2.34,2.34,0,0,1,.68-.76,3.07,3.07,0,0,1,1-.46,4.16,4.16,0,0,1,1.14-.16,4.34,4.34,0,0,1,1.2.16,2.9,2.9,0,0,1,1,.46,2.27,2.27,0,0,1,.64.75,2.24,2.24,0,0,1,.25,1h-.81a1.6,1.6,0,0,0-.2-.65,1.78,1.78,0,0,0-.46-.53,2.24,2.24,0,0,0-.69-.36,2.81,2.81,0,0,0-.88-.13,3.49,3.49,0,0,0-.91.11,2.16,2.16,0,0,0-.71.33,1.46,1.46,0,0,0-.46.53,1.6,1.6,0,0,0-.16.73,1.2,1.2,0,0,0,.11.52,1.13,1.13,0,0,0,.29.38,1.54,1.54,0,0,0,.43.25,4,4,0,0,0,.53.17l2,.48a3.73,3.73,0,0,1,1.76.85A1.93,1.93,0,0,1,1041,520.64Z"/><path class="cls-5" d="M1045.23,516.16a2.71,2.71,0,0,1,1.3.29,2.6,2.6,0,0,1,.9.79,3.45,3.45,0,0,1,.52,1.13,5.21,5.21,0,0,1,.17,1.34v.13h-5.05a3.58,3.58,0,0,0,.13.94,2.59,2.59,0,0,0,.39.83,2,2,0,0,0,.66.59,1.92,1.92,0,0,0,.95.22,2.44,2.44,0,0,0,.7-.09,2,2,0,0,0,.56-.26,1.76,1.76,0,0,0,.42-.39,2.41,2.41,0,0,0,.29-.49h.79a3,3,0,0,1-.38.79,2.48,2.48,0,0,1-.59.6,2.68,2.68,0,0,1-.79.39,3.34,3.34,0,0,1-1,.14,2.94,2.94,0,0,1-1.3-.27,2.56,2.56,0,0,1-.91-.73,3.12,3.12,0,0,1-.54-1.1,5.14,5.14,0,0,1-.18-1.37,4.66,4.66,0,0,1,.18-1.28,3.36,3.36,0,0,1,.54-1.11,2.74,2.74,0,0,1,.92-.78A2.79,2.79,0,0,1,1045.23,516.16Zm2.09,3a3,3,0,0,0-.16-.85,2.44,2.44,0,0,0-.41-.75,2.07,2.07,0,0,0-.65-.54,1.84,1.84,0,0,0-.88-.21,1.84,1.84,0,0,0-1.5.7,2.7,2.7,0,0,0-.42.75,4.31,4.31,0,0,0-.23.9Z"/><path class="cls-5" d="M1055.85,519.63a4.77,4.77,0,0,1-.17,1.28,3.38,3.38,0,0,1-.53,1.11,2.69,2.69,0,0,1-.92.79,2.78,2.78,0,0,1-1.32.3,2.81,2.81,0,0,1-.71-.09,2.45,2.45,0,0,1-.65-.27,2.29,2.29,0,0,1-.54-.45,2.21,2.21,0,0,1-.38-.63h0v3.67h-.8v-9h.74v1.25h0a2.24,2.24,0,0,1,.39-.61,2.29,2.29,0,0,1,.55-.45,2.67,2.67,0,0,1,.67-.28,2.81,2.81,0,0,1,.74-.1,2.85,2.85,0,0,1,1.29.28,2.64,2.64,0,0,1,.92.75,3.32,3.32,0,0,1,.56,1.1A4.67,4.67,0,0,1,1055.85,519.63Zm-.8,0a4.48,4.48,0,0,0-.11-1,2.84,2.84,0,0,0-.37-.9,2.07,2.07,0,0,0-.67-.66,1.9,1.9,0,0,0-1-.26,2.09,2.09,0,0,0-1.7.7,3.21,3.21,0,0,0-.58,2.09,4.2,4.2,0,0,0,.13,1,2.68,2.68,0,0,0,.4.9,2.1,2.1,0,0,0,.71.64,2.16,2.16,0,0,0,1.06.24,1.87,1.87,0,0,0,1-.24,2,2,0,0,0,.67-.63,2.87,2.87,0,0,0,.39-.9A4.14,4.14,0,0,0,1055.05,519.63Z"/><path class="cls-5" d="M1177.18,522.91v-6.43h-2.29v-.56q.53,0,.9-.06a2.36,2.36,0,0,0,.57-.13,1.3,1.3,0,0,0,.64-.52,2.46,2.46,0,0,0,.31-1h.63v8.65Z"/><path class="cls-5" d="M1187.38,520.49a2.36,2.36,0,0,1-.83,1.91,3.22,3.22,0,0,1-2.16.7,3.18,3.18,0,0,1-2.16-.71,2.52,2.52,0,0,1-.7-2.64,2.28,2.28,0,0,1,.35-.67,2.18,2.18,0,0,1,1.28-.81v0a2.05,2.05,0,0,1-1.06-.72,2,2,0,0,1-.35-1.18,1.9,1.9,0,0,1,.76-1.57,2.91,2.91,0,0,1,1.86-.59,3,3,0,0,1,1.88.59,1.88,1.88,0,0,1,.76,1.57,2.2,2.2,0,0,1-.09.65,1.81,1.81,0,0,1-.72,1,2.1,2.1,0,0,1-.6.28v0a2.18,2.18,0,0,1,1.32.76A2.29,2.29,0,0,1,1187.38,520.49Zm-.78,0a1.75,1.75,0,0,0-.59-1.35,2.78,2.78,0,0,0-3.24,0,1.76,1.76,0,0,0-.57,1.37,1.79,1.79,0,0,0,.6,1.42,2.7,2.7,0,0,0,3.2,0A1.79,1.79,0,0,0,1186.6,520.49Zm-.36-4.14a1.35,1.35,0,0,0-.5-1.1,2.37,2.37,0,0,0-2.67,0,1.3,1.3,0,0,0-.53,1.09,1.48,1.48,0,0,0,.49,1.18,2,2,0,0,0,1.32.43,2,2,0,0,0,1.41-.45A1.52,1.52,0,0,0,1186.24,516.35Z"/><path class="cls-5" d="M1190.42,521.64v1.27h-1.11v-1.27Z"/><path class="cls-5" d="M1202.47,520.64a2.15,2.15,0,0,1-.28,1.14,2.26,2.26,0,0,1-.76.76,3.46,3.46,0,0,1-1.1.42,6.15,6.15,0,0,1-1.29.13,4.8,4.8,0,0,1-1.28-.16,3.18,3.18,0,0,1-1-.49,2.35,2.35,0,0,1-.69-.79,2.22,2.22,0,0,1-.25-1.08v-.19h.82v.06a1.87,1.87,0,0,0,.16.76,1.65,1.65,0,0,0,.48.62,2.43,2.43,0,0,0,.81.42,3.79,3.79,0,0,0,1.15.16,4,4,0,0,0,.9-.1,2.56,2.56,0,0,0,.79-.32,1.81,1.81,0,0,0,.56-.54,1.38,1.38,0,0,0,.21-.78q0-1.11-1.67-1.52l-2-.49a4,4,0,0,1-.88-.31,2.14,2.14,0,0,1-.6-.44,1.6,1.6,0,0,1-.35-.58,2.24,2.24,0,0,1-.11-.73,2.1,2.1,0,0,1,.25-1,2.34,2.34,0,0,1,.68-.76,3.07,3.07,0,0,1,1-.46,4.16,4.16,0,0,1,1.14-.16,4.34,4.34,0,0,1,1.2.16,2.9,2.9,0,0,1,1,.46,2.27,2.27,0,0,1,.64.75,2.24,2.24,0,0,1,.25,1h-.81a1.6,1.6,0,0,0-.2-.65,1.78,1.78,0,0,0-.46-.53,2.24,2.24,0,0,0-.69-.36,2.81,2.81,0,0,0-.88-.13,3.49,3.49,0,0,0-.91.11,2.16,2.16,0,0,0-.71.33,1.46,1.46,0,0,0-.46.53,1.6,1.6,0,0,0-.16.73,1.2,1.2,0,0,0,.11.52,1.13,1.13,0,0,0,.29.38,1.54,1.54,0,0,0,.43.25,4,4,0,0,0,.53.17l2,.48a3.73,3.73,0,0,1,1.76.85A1.93,1.93,0,0,1,1202.47,520.64Z"/><path class="cls-5" d="M1206.73,516.16a2.71,2.71,0,0,1,1.3.29,2.6,2.6,0,0,1,.9.79,3.45,3.45,0,0,1,.52,1.13,5.21,5.21,0,0,1,.17,1.34v.13h-5.05a3.58,3.58,0,0,0,.13.94,2.59,2.59,0,0,0,.39.83,2,2,0,0,0,.66.59,1.92,1.92,0,0,0,.95.22,2.44,2.44,0,0,0,.7-.09,2,2,0,0,0,.56-.26,1.76,1.76,0,0,0,.42-.39,2.41,2.41,0,0,0,.29-.49h.79a3,3,0,0,1-.38.79,2.48,2.48,0,0,1-.59.6,2.68,2.68,0,0,1-.79.39,3.34,3.34,0,0,1-1,.14,2.94,2.94,0,0,1-1.3-.27,2.56,2.56,0,0,1-.91-.73,3.12,3.12,0,0,1-.54-1.1,5.14,5.14,0,0,1-.18-1.37,4.66,4.66,0,0,1,.18-1.28,3.36,3.36,0,0,1,.54-1.11,2.74,2.74,0,0,1,.92-.78A2.79,2.79,0,0,1,1206.73,516.16Zm2.09,3a3,3,0,0,0-.16-.85,2.44,2.44,0,0,0-.41-.75,2.07,2.07,0,0,0-.65-.54,1.84,1.84,0,0,0-.88-.21,1.84,1.84,0,0,0-1.5.7,2.7,2.7,0,0,0-.42.75,4.31,4.31,0,0,0-.23.9Z"/><path class="cls-5" d="M1217.35,519.63a4.77,4.77,0,0,1-.17,1.28,3.38,3.38,0,0,1-.53,1.11,2.69,2.69,0,0,1-.92.79,2.78,2.78,0,0,1-1.32.3,2.81,2.81,0,0,1-.71-.09,2.45,2.45,0,0,1-.65-.27,2.29,2.29,0,0,1-.54-.45,2.21,2.21,0,0,1-.38-.63h0v3.67h-.8v-9h.74v1.25h0a2.24,2.24,0,0,1,.39-.61,2.29,2.29,0,0,1,.55-.45,2.67,2.67,0,0,1,.67-.28,2.81,2.81,0,0,1,.74-.1,2.85,2.85,0,0,1,1.29.28,2.64,2.64,0,0,1,.92.75,3.32,3.32,0,0,1,.56,1.1A4.67,4.67,0,0,1,1217.35,519.63Zm-.8,0a4.48,4.48,0,0,0-.11-1,2.84,2.84,0,0,0-.37-.9,2.07,2.07,0,0,0-.67-.66,1.9,1.9,0,0,0-1-.26,2.09,2.09,0,0,0-1.7.7,3.21,3.21,0,0,0-.58,2.09,4.2,4.2,0,0,0,.13,1,2.68,2.68,0,0,0,.4.9,2.1,2.1,0,0,0,.71.64,2.16,2.16,0,0,0,1.06.24,1.87,1.87,0,0,0,1-.24,2,2,0,0,0,.67-.63,2.87,2.87,0,0,0,.39-.9A4.14,4.14,0,0,0,1216.55,519.63Z"/><path class="cls-6" d="M15.17,315.17l7.25-5v0H15.17v-.81h8.57v.91l-7.25,5v0h7.25v.82H15.17Z"/><path class="cls-6" d="M23.74,302.56H22.56v0a2.48,2.48,0,0,1,.58.39,2.34,2.34,0,0,1,.43.52,2.47,2.47,0,0,1,.27.63,2.73,2.73,0,0,1,.09.72,2.21,2.21,0,0,1-.63,1.74,2.64,2.64,0,0,1-1.82.56H17.17v-.8h4.28a2.67,2.67,0,0,0,.76-.1,1.43,1.43,0,0,0,.57-.31,1.33,1.33,0,0,0,.35-.54,2.33,2.33,0,0,0,.12-.79,1.7,1.7,0,0,0-.23-.89,1.92,1.92,0,0,0-.59-.62,2.62,2.62,0,0,0-.83-.36,3.9,3.9,0,0,0-.94-.11H17.17v-.8h6.56Z"/><path class="cls-6" d="M23.74,291.38H19.27a1.73,1.73,0,0,0-1.22.37,1.85,1.85,0,0,0,.21,2.5,2.8,2.8,0,0,0,1.71.45h3.77v.81H19.24a1.81,1.81,0,0,0-1.17.34,1.25,1.25,0,0,0-.42,1,1.72,1.72,0,0,0,.65,1.46,2.72,2.72,0,0,0,1.71.5h3.72v.8H17.17v-.74h1.1v0A2.26,2.26,0,0,1,17,296.72a2.44,2.44,0,0,1,.08-.64,1.86,1.86,0,0,1,.24-.54,1.66,1.66,0,0,1,.4-.42,1.86,1.86,0,0,1,.55-.28,2.16,2.16,0,0,1-1-.85,2.4,2.4,0,0,1-.32-1.24,2.12,2.12,0,0,1,.58-1.63,2.36,2.36,0,0,1,1.66-.54h4.51Z"/><path class="cls-6" d="M20.46,282.33a4.77,4.77,0,0,1,1.28.17,3.38,3.38,0,0,1,1.11.53,2.69,2.69,0,0,1,.79.92,2.8,2.8,0,0,1,.3,1.33,2.9,2.9,0,0,1-.09.72,2.59,2.59,0,0,1-.27.66,2.34,2.34,0,0,1-.45.55,2.18,2.18,0,0,1-.63.4v0h1.25v.74H14.66v-.8h3.77v0a2,2,0,0,1-.61-.36,2.25,2.25,0,0,1-.45-.54,2.5,2.5,0,0,1-.28-.66,3,3,0,0,1,.18-2,2.62,2.62,0,0,1,.75-.91,3.34,3.34,0,0,1,1.1-.55A5,5,0,0,1,20.46,282.33Zm0,.8a4.39,4.39,0,0,0-.65,0,3.54,3.54,0,0,0-.64.16,2.89,2.89,0,0,0-.59.28,2.08,2.08,0,0,0-.48.41,1.83,1.83,0,0,0-.32.55,2,2,0,0,0-.12.71A2.05,2.05,0,0,0,18.5,287a2.72,2.72,0,0,0,.89.42,3.94,3.94,0,0,0,1.06.14,4.21,4.21,0,0,0,1-.13,2.67,2.67,0,0,0,.9-.4,2.08,2.08,0,0,0,.63-.71,2.18,2.18,0,0,0,.24-1.06,1.88,1.88,0,0,0-.23-1,2,2,0,0,0-.63-.66,2.9,2.9,0,0,0-.89-.38A4.91,4.91,0,0,0,20.46,283.13Z"/><path class="cls-6" d="M17,277.88a2.71,2.71,0,0,1,.29-1.3,2.6,2.6,0,0,1,.79-.9,3.45,3.45,0,0,1,1.13-.52,5.21,5.21,0,0,1,1.34-.17h.13V280a3.58,3.58,0,0,0,.94-.13,2.59,2.59,0,0,0,.83-.39,2,2,0,0,0,.59-.66,1.92,1.92,0,0,0,.22-.95,2.44,2.44,0,0,0-.09-.7,2,2,0,0,0-.26-.56,1.76,1.76,0,0,0-.39-.42A2.41,2.41,0,0,0,22,276v-.79a3,3,0,0,1,.79.38,2.48,2.48,0,0,1,.6.59,2.68,2.68,0,0,1,.39.79,3.34,3.34,0,0,1,.14,1,2.94,2.94,0,0,1-.27,1.3,2.56,2.56,0,0,1-.73.91,3.12,3.12,0,0,1-1.1.54,5.14,5.14,0,0,1-1.37.18,4.66,4.66,0,0,1-1.28-.18,3.36,3.36,0,0,1-1.11-.54,2.74,2.74,0,0,1-.78-.92A2.79,2.79,0,0,1,17,277.88Zm3-2.09a3,3,0,0,0-.85.16,2.44,2.44,0,0,0-.75.41,2.07,2.07,0,0,0-.54.65,1.84,1.84,0,0,0-.21.88,1.84,1.84,0,0,0,.7,1.5,2.7,2.7,0,0,0,.75.42,4.31,4.31,0,0,0,.9.23Z"/><path class="cls-6" d="M23.74,273.32H17.17v-.74h1.54v0a2.56,2.56,0,0,1-1.2-.9,2.32,2.32,0,0,1-.43-1.38V270h.8v.18a2.22,2.22,0,0,0,.69,1.71,2.36,2.36,0,0,0,1.69.64h3.48Z"/><path class="cls-6" d="M20.46,259.38a4.29,4.29,0,0,1,1.31.2,3.31,3.31,0,0,1,1.13.61,2.9,2.9,0,0,1,1,2.29,2.84,2.84,0,0,1-1,2.24,3.65,3.65,0,0,1-2.5.86,3.65,3.65,0,0,1-2.49-.85,3.08,3.08,0,0,1,0-4.51A3.65,3.65,0,0,1,20.46,259.38Zm0,.8a3.8,3.8,0,0,0-1,.13,2.81,2.81,0,0,0-.9.42,2.25,2.25,0,0,0-.65.72,2,2,0,0,0-.25,1,2,2,0,0,0,.24,1,2.24,2.24,0,0,0,.64.72,2.85,2.85,0,0,0,.9.44,3.66,3.66,0,0,0,1,.15,3.58,3.58,0,0,0,1-.14,3,3,0,0,0,.9-.43,2.24,2.24,0,0,0,.65-.71,2,2,0,0,0,.25-1,2,2,0,0,0-.24-1,2.33,2.33,0,0,0-.63-.72,2.8,2.8,0,0,0-.89-.45A3.54,3.54,0,0,0,20.46,260.18Z"/><path class="cls-6" d="M17.85,256.28h5.89v.8H17.85v1.3h-.67v-1.3h-.62a2.15,2.15,0,0,1-1.48-.4,1.23,1.23,0,0,1-.32-.52,2.39,2.39,0,0,1-.11-.74q0-.25,0-.46a1.68,1.68,0,0,1,0-.3h.69a1.37,1.37,0,0,0,0,.17l0,.2q0,.1,0,.18t0,.13a.83.83,0,0,0,1,1h.88v-1.47h.67Z"/><path class="cls-6" d="M23.69,244.33a2.42,2.42,0,0,1,0,.27q0,.11,0,.24a1.37,1.37,0,0,1-.06.44.65.65,0,0,1-.2.29.82.82,0,0,1-.35.16,2.43,2.43,0,0,1-.53,0v0a3,3,0,0,1,1,1,2.79,2.79,0,0,1,.29,1.35,2.46,2.46,0,0,1-.5,1.6,1.75,1.75,0,0,1-1.43.6,1.66,1.66,0,0,1-1.43-.66,6.79,6.79,0,0,1-.69-3,2,2,0,0,0-.08-.44.75.75,0,0,0-.16-.29.6.6,0,0,0-.26-.16,1.28,1.28,0,0,0-.38,0,1.24,1.24,0,0,0-1,.4,2,2,0,0,0-.34,1.31,2.61,2.61,0,0,0,.09.72,1.65,1.65,0,0,0,.25.53,1.13,1.13,0,0,0,.39.33,1.23,1.23,0,0,0,.49.13v.8a2,2,0,0,1-.78-.22,1.78,1.78,0,0,1-.59-.51,2.43,2.43,0,0,1-.38-.81,4,4,0,0,1-.13-1.09,2.64,2.64,0,0,1,.54-1.83,2,2,0,0,1,1.52-.59h3.56a.47.47,0,0,0,.33-.11.46.46,0,0,0,.12-.36.7.7,0,0,0,0-.25Zm-3.54,1.52v0q.22.12.31.77,0,.32.1.67l.12.74a2.67,2.67,0,0,0,.44,1.17,1,1,0,0,0,.84.39,1.16,1.16,0,0,0,.94-.43,1.6,1.6,0,0,0,.35-1,2.36,2.36,0,0,0-.58-1.63,1.85,1.85,0,0,0-1.44-.65Z"/><path class="cls-6" d="M14.66,242.08h9.08v.8H14.66Z"/><path class="cls-6" d="M23.69,234.2a2.42,2.42,0,0,1,0,.27q0,.11,0,.24a1.37,1.37,0,0,1-.06.44.65.65,0,0,1-.2.29.82.82,0,0,1-.35.16,2.43,2.43,0,0,1-.53,0v0a3,3,0,0,1,1,1,2.79,2.79,0,0,1,.29,1.35,2.46,2.46,0,0,1-.5,1.6,1.75,1.75,0,0,1-1.43.6,1.66,1.66,0,0,1-1.43-.66,6.79,6.79,0,0,1-.69-3,2,2,0,0,0-.08-.44.75.75,0,0,0-.16-.29.6.6,0,0,0-.26-.16,1.28,1.28,0,0,0-.38,0,1.24,1.24,0,0,0-1,.4,2,2,0,0,0-.34,1.31,2.61,2.61,0,0,0,.09.72,1.65,1.65,0,0,0,.25.53,1.13,1.13,0,0,0,.39.33,1.23,1.23,0,0,0,.49.13v.8a2,2,0,0,1-.78-.22,1.78,1.78,0,0,1-.59-.51,2.43,2.43,0,0,1-.38-.81,4,4,0,0,1-.13-1.09,2.64,2.64,0,0,1,.54-1.83,2,2,0,0,1,1.52-.59h3.56a.47.47,0,0,0,.33-.11.46.46,0,0,0,.12-.36.7.7,0,0,0,0-.25Zm-3.54,1.52v0q.22.12.31.77,0,.32.1.67l.12.74a2.67,2.67,0,0,0,.44,1.17,1,1,0,0,0,.84.39,1.16,1.16,0,0,0,.94-.43,1.6,1.6,0,0,0,.35-1,2.36,2.36,0,0,0-.58-1.63,1.85,1.85,0,0,0-1.44-.65Z"/><path class="cls-6" d="M23.74,232.77H17.17V232h1.54v0a2.56,2.56,0,0,1-1.2-.9,2.32,2.32,0,0,1-.43-1.38v-.29h.8v.18a2.22,2.22,0,0,0,.69,1.71,2.36,2.36,0,0,0,1.69.64h3.48Z"/><path class="cls-6" d="M23.74,219.87H19.27a1.73,1.73,0,0,0-1.22.37,1.85,1.85,0,0,0,.21,2.5,2.8,2.8,0,0,0,1.71.45h3.77V224H19.24a1.81,1.81,0,0,0-1.17.34,1.25,1.25,0,0,0-.42,1,1.72,1.72,0,0,0,.65,1.46,2.72,2.72,0,0,0,1.71.5h3.72v.8H17.17v-.74h1.1v0A2.26,2.26,0,0,1,17,225.2a2.44,2.44,0,0,1,.08-.64,1.86,1.86,0,0,1,.24-.54,1.66,1.66,0,0,1,.4-.42,1.86,1.86,0,0,1,.55-.28,2.16,2.16,0,0,1-1-.85,2.4,2.4,0,0,1-.32-1.24,2.12,2.12,0,0,1,.58-1.63,2.36,2.36,0,0,1,1.66-.54h4.51Z"/><path class="cls-6" d="M22,212a1.67,1.67,0,0,1,.88.22,1.89,1.89,0,0,1,.62.59,2.74,2.74,0,0,1,.36.84,4,4,0,0,1,.12,1,3.66,3.66,0,0,1-.14,1.07,2.4,2.4,0,0,1-.41.8,2,2,0,0,1-.64.53,2.4,2.4,0,0,1-.85.25v-.81a1.7,1.7,0,0,0,.56-.2,1.41,1.41,0,0,0,.43-.38,1.8,1.8,0,0,0,.28-.57,2.56,2.56,0,0,0,.1-.74,3,3,0,0,0-.06-.6,2.05,2.05,0,0,0-.21-.58,1.35,1.35,0,0,0-.38-.44,1,1,0,0,0-.59-.18.93.93,0,0,0-.73.34,2.6,2.6,0,0,0-.46,1.13l-.22,1a4,4,0,0,1-.24.77,2.1,2.1,0,0,1-.37.58,1.46,1.46,0,0,1-.5.36,1.62,1.62,0,0,1-.65.12,1.57,1.57,0,0,1-.83-.21,1.78,1.78,0,0,1-.57-.56,2.53,2.53,0,0,1-.33-.78,3.77,3.77,0,0,1-.11-.89,3.27,3.27,0,0,1,.12-.92,2.29,2.29,0,0,1,.35-.73,1.83,1.83,0,0,1,.57-.5,2.08,2.08,0,0,1,.78-.25v.8a1.32,1.32,0,0,0-.5.19,1.24,1.24,0,0,0-.37.36,1.69,1.69,0,0,0-.22.5,2.36,2.36,0,0,0-.08.61,2.85,2.85,0,0,0,.06.58,1.59,1.59,0,0,0,.19.51,1.07,1.07,0,0,0,.35.36,1,1,0,0,0,.53.13.74.74,0,0,0,.44-.13,1.27,1.27,0,0,0,.32-.33,1.93,1.93,0,0,0,.22-.44,3.64,3.64,0,0,0,.13-.46l.3-1.37a2.85,2.85,0,0,1,.21-.59,1.77,1.77,0,0,1,.35-.5,1.64,1.64,0,0,1,.51-.34A1.71,1.71,0,0,1,22,212Z"/><rect class="cls-7" x="132.81" y="488.78" width="8" height="7"/><rect class="cls-7" x="142.81" y="461.78" width="8" height="34"/><rect class="cls-8" x="152.81" y="381.78" width="8" height="114"/><rect class="cls-7" x="162.81" y="441.78" width="8" height="54"/><rect class="cls-7" x="172.81" y="463.78" width="8" height="32"/><rect class="cls-7" x="182.81" y="471.78" width="8" height="24"/><rect class="cls-7" x="192.81" y="471.78" width="8" height="24"/><rect class="cls-7" x="202.81" y="451.78" width="8" height="44"/><rect class="cls-7" x="222.81" y="491.78" width="8" height="4"/><rect class="cls-7" x="232.81" y="471.78" width="8" height="24"/><rect class="cls-7" x="242.81" y="466.78" width="8" height="29"/><rect class="cls-7" x="252.81" y="488.78" width="8" height="7"/><rect class="cls-7" x="262.81" y="471.78" width="8" height="24"/><rect class="cls-7" x="272.81" y="473.78" width="8" height="22"/><rect class="cls-7" x="282.81" y="472.78" width="8" height="23"/><rect class="cls-7" x="292.81" y="441.78" width="8" height="54"/><rect class="cls-7" x="312.81" y="492.78" width="8" height="3"/><rect class="cls-7" x="322.81" y="461.78" width="8" height="34"/><rect class="cls-7" x="332.81" y="451.78" width="8" height="44"/><rect class="cls-7" x="362.81" y="461.78" width="8" height="34"/><rect class="cls-7" x="372.81" y="486.78" width="8" height="9"/><rect class="cls-8" x="382.81" y="396.78" width="8" height="99"/><rect class="cls-7" x="392.81" y="441.78" width="8" height="54"/><rect class="cls-7" x="402.81" y="446.78" width="8" height="49"/><rect class="cls-8" x="412.81" y="391.78" width="8" height="104"/><rect class="cls-7" x="422.81" y="436.78" width="8" height="59"/><rect class="cls-7" x="432.81" y="487.78" width="8" height="8"/><rect class="cls-7" x="442.81" y="456.78" width="8" height="39"/><rect class="cls-7" x="452.81" y="446.78" width="8" height="49"/><rect class="cls-7" x="462.81" y="486.78" width="8" height="9"/><rect class="cls-7" x="472.81" y="466.78" width="8" height="29"/><rect class="cls-7" x="482.81" y="473.78" width="8" height="22"/><rect class="cls-7" x="492.81" y="468.78" width="8" height="27"/><rect class="cls-7" x="502.81" y="489.78" width="8" height="6"/><rect class="cls-7" x="512.81" y="472.78" width="8" height="23"/><rect class="cls-7" x="562.81" y="486.78" width="8" height="9"/><rect class="cls-7" x="572.81" y="461.78" width="8" height="34"/><rect class="cls-7" x="582.81" y="411.78" width="8" height="84"/><rect class="cls-7" x="592.81" y="421.78" width="8" height="74"/><rect class="cls-7" x="602.81" y="416.78" width="8" height="79"/><rect class="cls-7" x="612.81" y="455.78" width="8" height="40"/><rect class="cls-7" x="632.81" y="471.78" width="8" height="24"/><rect class="cls-7" x="652.81" y="486.78" width="8" height="9"/><rect class="cls-7" x="662.81" y="488.78" width="8" height="7"/><rect class="cls-7" x="702.81" y="489.28" width="8" height="6.5"/><rect class="cls-7" x="722.81" y="491.78" width="8" height="4"/><rect class="cls-7" x="732.81" y="490.78" width="8" height="5"/><rect class="cls-7" x="752.81" y="491.78" width="8" height="4"/><rect class="cls-7" x="782.81" y="471.78" width="8" height="24"/><rect class="cls-7" x="792.81" y="461.78" width="8" height="34"/><rect class="cls-7" x="802.81" y="459.78" width="8" height="36"/><rect class="cls-8" x="812.81" y="376.78" width="8" height="119"/><rect class="cls-8" x="822.81" y="386.78" width="8" height="109"/><rect class="cls-8" x="832.81" y="401.78" width="8" height="94"/><rect class="cls-7" x="842.81" y="413.78" width="8" height="82"/><rect class="cls-8" x="852.81" y="401.78" width="8" height="94"/><rect class="cls-8" x="862.81" y="396.78" width="8" height="99"/><rect class="cls-8" x="872.81" y="171.78" width="8" height="324"/><rect class="cls-8" x="882.68" y="403.27" width="7.75" height="92.03"/><rect class="cls-8" x="892.81" y="76.78" width="8" height="419"/><rect class="cls-8" x="902.81" y="336.78" width="8" height="159"/><rect class="cls-8" x="912.81" y="356.78" width="8" height="139"/><rect class="cls-8" x="922.81" y="351.78" width="8" height="144"/><rect class="cls-7" x="942.81" y="431.78" width="8" height="64"/><rect class="cls-7" x="952.81" y="486.78" width="8" height="9"/><rect class="cls-7" x="962.81" y="445.78" width="8" height="50"/><rect class="cls-7" x="972.81" y="436.78" width="8" height="59"/><rect class="cls-7" x="982.81" y="467.78" width="8" height="28"/><rect class="cls-7" x="992.81" y="472.78" width="8" height="23"/><rect class="cls-7" x="1002.81" y="471.78" width="8" height="24"/><rect class="cls-7" x="1012.81" y="486.78" width="8" height="9"/><rect class="cls-7" x="1022.81" y="488.28" width="8" height="7.5"/><rect class="cls-7" x="1042.81" y="485.78" width="8" height="10"/><rect class="cls-7" x="1052.81" y="466.78" width="8" height="29"/><rect class="cls-7" x="1062.81" y="451.78" width="8" height="44"/><rect class="cls-7" x="1072.81" y="457.28" width="8" height="38.5"/><rect class="cls-7" x="1092.81" y="490.78" width="8" height="5"/><rect class="cls-7" x="1102.81" y="490.78" width="8" height="5"/><rect class="cls-7" x="1122.81" y="471.78" width="8" height="24"/><rect class="cls-7" x="1132.81" y="474.28" width="8" height="21.5"/><rect class="cls-7" x="1142.81" y="471.78" width="8" height="24"/><rect class="cls-8" x="1152.81" y="378.67" width="8" height="117.12"/><rect class="cls-7" x="1162.81" y="426.78" width="8" height="69"/><rect class="cls-7" x="1172.81" y="461.78" width="8" height="34"/><rect class="cls-7" x="1192.81" y="486.78" width="8" height="9"/><line class="cls-9" x1="69.74" y1="405.78" x2="75.74" y2="405.78"/><line class="cls-10" x1="87.83" y1="405.78" x2="1291.69" y2="405.78"/><line class="cls-9" x1="1297.74" y1="405.78" x2="1303.74" y2="405.78"/></g></svg>