<svg xmlns="http://www.w3.org/2000/svg" viewBox="0 0 285 140"><defs><style>.cls-1{fill:#f0f0f0;}.cls-2{fill:#e6e6e6;}.cls-3{fill:#fff;}.cls-4{fill:#dcdcdc;}.cls-5{fill:#464646;}.cls-6{fill:none;stroke:#aaa;stroke-miterlimit:10;}</style></defs><title>Artboard 39 copy</title><g id="Layer_1" data-name="Layer 1"><rect class="cls-1" x="9.5" y="71.5" width="35" height="35"/><path class="cls-2" d="M44,72v34H10V72H44m1-1H9v36H45V71Z"/><rect class="cls-3" x="9.5" y="11.5" width="89" height="35"/><path class="cls-4" d="M98,12V46H10V12H98m1-1H9V47H99V11Z"/><path class="cls-5" d="M40.13,33.11a3.21,3.21,0,0,1-1-.14,2.49,2.49,0,0,1-.79-.41,2.29,2.29,0,0,1-.57-.65,2.45,2.45,0,0,1-.3-.86h1.34a1.6,1.6,0,0,0,.17.39,1.14,1.14,0,0,0,.28.31,1.31,1.31,0,0,0,.39.21,1.55,1.55,0,0,0,.5.08,1.46,1.46,0,0,0,.88-.26,2,2,0,0,0,.59-.69,3.5,3.5,0,0,0,.33-1A6.77,6.77,0,0,0,42.08,29h0a2.15,2.15,0,0,1-.67.68,2.21,2.21,0,0,1-.9.3,2.48,2.48,0,0,1-1.37-.11,2.34,2.34,0,0,1-1.35-1,2.76,2.76,0,0,1-.49-1.62,3,3,0,0,1,.85-2.2,2.84,2.84,0,0,1,2.13-.87,3.25,3.25,0,0,1,1.42.29,2.51,2.51,0,0,1,1,.86,5.88,5.88,0,0,1,.79,3.34,7.74,7.74,0,0,1-.07,1.05,5.85,5.85,0,0,1-.23,1,4.56,4.56,0,0,1-.42.92,3,3,0,0,1-.62.75,2.78,2.78,0,0,1-.86.5A3.19,3.19,0,0,1,40.13,33.11Zm1.8-5.94a1.88,1.88,0,0,0-.45-1.3,1.53,1.53,0,0,0-1.22-.52,1.41,1.41,0,0,0-1.13.53,1.9,1.9,0,0,0-.45,1.27,2,2,0,0,0,.43,1.32,1.43,1.43,0,0,0,1.17.54,1.55,1.55,0,0,0,1.2-.52A2,2,0,0,0,41.93,27.17Z"/><path class="cls-5" d="M50.79,30.45a2.37,2.37,0,0,1-.89,1.95,3.88,3.88,0,0,1-4.51,0,2.33,2.33,0,0,1-.88-1.93,2.43,2.43,0,0,1,.11-.76,2.08,2.08,0,0,1,.33-.63,2,2,0,0,1,.52-.47,2.17,2.17,0,0,1,.7-.28v0a1.81,1.81,0,0,1-1-.67,1.92,1.92,0,0,1-.33-1.14,2,2,0,0,1,.81-1.65,3.16,3.16,0,0,1,2-.62,2.91,2.91,0,0,1,2,.67,2,2,0,0,1,.76,1.58,2.14,2.14,0,0,1-.08.61,1.82,1.82,0,0,1-.25.52,1.75,1.75,0,0,1-.41.42,2,2,0,0,1-.57.29v0a2.06,2.06,0,0,1,1.24.75A2.24,2.24,0,0,1,50.79,30.45Zm-1.39,0a1.45,1.45,0,0,0-.48-1.11,1.79,1.79,0,0,0-1.27-.44,1.88,1.88,0,0,0-1.27.42,1.42,1.42,0,0,0-.49,1.13,1.53,1.53,0,0,0,.5,1.18,1.79,1.79,0,0,0,1.27.46,1.74,1.74,0,0,0,1.25-.45A1.53,1.53,0,0,0,49.39,30.4Zm-.26-3.83A1.43,1.43,0,0,0,49,26a1,1,0,0,0-.32-.42,1.85,1.85,0,0,0-2.14,0,1.18,1.18,0,0,0-.42.94,1.19,1.19,0,0,0,.41.94,1.85,1.85,0,0,0,2.19,0A1.21,1.21,0,0,0,49.13,26.57Z"/><path class="cls-5" d="M53.8,31.29v1.64H52.2V31.29Z"/><path class="cls-5" d="M58.37,24.2a3.64,3.64,0,0,1,1,.15,2.72,2.72,0,0,1,.88.44,2.19,2.19,0,0,1,.62.72,2.1,2.1,0,0,1,.23,1,2.16,2.16,0,0,1-.08.62,1.83,1.83,0,0,1-.25.52,1.63,1.63,0,0,1-.4.41,1.88,1.88,0,0,1-.56.27v0a1.93,1.93,0,0,1,1.2.71,2.07,2.07,0,0,1,.42,1.3,2.5,2.5,0,0,1-.89,2,3.31,3.31,0,0,1-2.23.76,3.84,3.84,0,0,1-1.17-.18,2.94,2.94,0,0,1-1-.52,2.49,2.49,0,0,1-.67-.84,2.55,2.55,0,0,1-.25-1.14V30.3H56.6v.13a1.45,1.45,0,0,0,.49,1.11,1.58,1.58,0,0,0,.52.3,1.91,1.91,0,0,0,.64.11,1.81,1.81,0,0,0,1.28-.44A1.45,1.45,0,0,0,60,30.4a1.34,1.34,0,0,0-.45-1.09,2.2,2.2,0,0,0-1.46-.39h-.35v-1h.43a1.86,1.86,0,0,0,1.2-.35,1.1,1.1,0,0,0,.4-.9,1.39,1.39,0,0,0-.11-.58,1.12,1.12,0,0,0-.31-.41,1.34,1.34,0,0,0-.46-.24,2,2,0,0,0-.57-.08,1.7,1.7,0,0,0-.6.1,1.41,1.41,0,0,0-.48.3,1.43,1.43,0,0,0-.33.47,1.63,1.63,0,0,0-.13.64H55.46a2.81,2.81,0,0,1,.23-1,2.54,2.54,0,0,1,.59-.84,2.75,2.75,0,0,1,.91-.56A3.27,3.27,0,0,1,58.37,24.2Z"/><rect class="cls-3" x="44.5" y="71.5" width="69" height="35"/><path class="cls-4" d="M113,72v34H45V72h68m1-1H44v36h70V71Z"/><path class="cls-5" d="M77.49,90.88v2H76.18v-2H72.42V89.6l3.82-5.27h1.25v5.41h1.2v1.15Zm-1.31-4.82h0l-2.62,3.67h2.65Z"/><path class="cls-5" d="M82.82,84.19a2.65,2.65,0,0,1,2.32,1.13,5.72,5.72,0,0,1,.79,3.3A5.83,5.83,0,0,1,85.14,92a2.92,2.92,0,0,1-4.62,0,5.81,5.81,0,0,1-.79-3.35,5.75,5.75,0,0,1,.79-3.31A2.64,2.64,0,0,1,82.82,84.19Zm-1.7,4.44a10.27,10.27,0,0,0,.07,1.24,4.19,4.19,0,0,0,.26,1.06,1.83,1.83,0,0,0,.52.74,1.28,1.28,0,0,0,.85.28,1.31,1.31,0,0,0,1.08-.51,2.13,2.13,0,0,0,.31-.56,4.16,4.16,0,0,0,.2-.69,6.33,6.33,0,0,0,.1-.77q0-.4,0-.8a9.65,9.65,0,0,0-.08-1.27,3.8,3.8,0,0,0-.28-1,1.82,1.82,0,0,0-.53-.71,1.32,1.32,0,0,0-.84-.26,1.29,1.29,0,0,0-.6.13,1.39,1.39,0,0,0-.45.37,2,2,0,0,0-.31.55,4.32,4.32,0,0,0-.19.68,6.5,6.5,0,0,0-.11.76C81.14,88.1,81.13,88.37,81.13,88.63Z"/><path class="cls-5" d="M90.09,84.19a2.65,2.65,0,0,1,2.32,1.13,5.72,5.72,0,0,1,.79,3.3A5.83,5.83,0,0,1,92.41,92a2.92,2.92,0,0,1-4.62,0A5.81,5.81,0,0,1,87,88.63a5.75,5.75,0,0,1,.79-3.31A2.64,2.64,0,0,1,90.09,84.19Zm-1.7,4.44a10.27,10.27,0,0,0,.07,1.24,4.19,4.19,0,0,0,.26,1.06,1.83,1.83,0,0,0,.52.74,1.28,1.28,0,0,0,.85.28,1.31,1.31,0,0,0,1.08-.51,2.13,2.13,0,0,0,.31-.56,4.16,4.16,0,0,0,.2-.69,6.33,6.33,0,0,0,.1-.77q0-.4,0-.8a9.65,9.65,0,0,0-.08-1.27,3.8,3.8,0,0,0-.28-1,1.82,1.82,0,0,0-.53-.71,1.32,1.32,0,0,0-.84-.26,1.29,1.29,0,0,0-.6.13,1.39,1.39,0,0,0-.45.37,2,2,0,0,0-.31.55,4.32,4.32,0,0,0-.19.68,6.5,6.5,0,0,0-.11.76C88.4,88.1,88.39,88.37,88.39,88.63Z"/><path class="cls-5" d="M97.36,84.19a2.65,2.65,0,0,1,2.32,1.13,5.72,5.72,0,0,1,.79,3.3A5.83,5.83,0,0,1,99.67,92a2.92,2.92,0,0,1-4.62,0,5.81,5.81,0,0,1-.79-3.35,5.75,5.75,0,0,1,.79-3.31A2.64,2.64,0,0,1,97.36,84.19Zm-1.7,4.44a10.27,10.27,0,0,0,.07,1.24A4.19,4.19,0,0,0,96,90.94a1.83,1.83,0,0,0,.52.74,1.28,1.28,0,0,0,.85.28,1.31,1.31,0,0,0,1.08-.51,2.13,2.13,0,0,0,.31-.56,4.16,4.16,0,0,0,.2-.69,6.33,6.33,0,0,0,.1-.77q0-.4,0-.8A9.65,9.65,0,0,0,99,87.36a3.8,3.8,0,0,0-.28-1,1.82,1.82,0,0,0-.53-.71,1.32,1.32,0,0,0-.84-.26,1.29,1.29,0,0,0-.6.13,1.39,1.39,0,0,0-.45.37,2,2,0,0,0-.31.55,4.32,4.32,0,0,0-.19.68,6.5,6.5,0,0,0-.11.76C95.67,88.1,95.66,88.37,95.66,88.63Z"/><polygon class="cls-5" points="81 39.71 77 35.71 77.71 35 81 38.29 84.3 35 85.01 35.71 81 39.71"/><polygon class="cls-5" points="81 18.29 77 22.29 77.71 23 81 19.71 84.3 23 85.01 22.29 81 18.29"/><rect class="cls-3" x="184.5" y="11.5" width="94" height="35"/><path class="cls-4" d="M278,12V46H185V12h93m1-1H184V47h95V11Z"/><path class="cls-5" d="M211.19,35.27a4.82,4.82,0,0,1-1.47-.21,3.75,3.75,0,0,1-1.19-.62,3.45,3.45,0,0,1-.85-1,3.67,3.67,0,0,1-.45-1.28h2a2.36,2.36,0,0,0,.25.59,1.71,1.71,0,0,0,.41.47,2,2,0,0,0,.58.31,2.33,2.33,0,0,0,.76.12,2.2,2.2,0,0,0,1.32-.39,3,3,0,0,0,.88-1,5.28,5.28,0,0,0,.5-1.47,10.18,10.18,0,0,0,.18-1.7l0,0a3.24,3.24,0,0,1-1,1,3.32,3.32,0,0,1-1.35.45,3.72,3.72,0,0,1-2-.16,3.5,3.5,0,0,1-2-1.44,4.13,4.13,0,0,1-.73-2.43,4.57,4.57,0,0,1,1.27-3.29,4.26,4.26,0,0,1,3.19-1.3,4.87,4.87,0,0,1,2.13.43A3.77,3.77,0,0,1,215,23.62a8.81,8.81,0,0,1,1.18,5,11.77,11.77,0,0,1-.11,1.58,9,9,0,0,1-.35,1.54,6.84,6.84,0,0,1-.62,1.38,4.53,4.53,0,0,1-.94,1.12,4.17,4.17,0,0,1-1.29.75A4.8,4.8,0,0,1,211.19,35.27Zm2.7-8.91a2.81,2.81,0,0,0-.68-2,2.29,2.29,0,0,0-1.83-.77,2.12,2.12,0,0,0-1.7.8,2.84,2.84,0,0,0-.68,1.9,3.06,3.06,0,0,0,.64,2,2.14,2.14,0,0,0,1.76.82,2.33,2.33,0,0,0,1.8-.77A2.92,2.92,0,0,0,213.89,26.36Z"/><path class="cls-5" d="M227.18,31.27a3.56,3.56,0,0,1-1.34,2.92,5.83,5.83,0,0,1-6.76,0,3.5,3.5,0,0,1-1.33-2.9,3.62,3.62,0,0,1,.17-1.13,3.07,3.07,0,0,1,.49-.94,3,3,0,0,1,.78-.71,3.27,3.27,0,0,1,1.05-.43v0a2.71,2.71,0,0,1-1.47-1,2.88,2.88,0,0,1-.5-1.71,3,3,0,0,1,1.22-2.48,4.74,4.74,0,0,1,3-.93,4.37,4.37,0,0,1,3,1,3.06,3.06,0,0,1,1.14,2.37,3.17,3.17,0,0,1-.13.91,2.71,2.71,0,0,1-.37.79,2.61,2.61,0,0,1-.61.62,3,3,0,0,1-.85.43v0a3.09,3.09,0,0,1,1.86,1.13A3.36,3.36,0,0,1,227.18,31.27Zm-2.09-.06a2.18,2.18,0,0,0-.72-1.67,2.68,2.68,0,0,0-1.9-.66,2.82,2.82,0,0,0-1.9.62,2.13,2.13,0,0,0-.73,1.7,2.29,2.29,0,0,0,.75,1.77,2.68,2.68,0,0,0,1.9.69,2.61,2.61,0,0,0,1.87-.67A2.29,2.29,0,0,0,225.09,31.21Zm-.39-5.75a2.13,2.13,0,0,0-.16-.84,1.56,1.56,0,0,0-.48-.63,2.77,2.77,0,0,0-3.22.06,1.76,1.76,0,0,0-.62,1.41,1.79,1.79,0,0,0,.62,1.42,2.78,2.78,0,0,0,3.28,0A1.82,1.82,0,0,0,224.7,25.46Z"/><path class="cls-5" d="M231.7,32.54V35H229.3V32.54Z"/><path class="cls-5" d="M238.55,21.9a5.45,5.45,0,0,1,1.55.22,4.07,4.07,0,0,1,1.32.66,3.28,3.28,0,0,1,.92,1.08,3.16,3.16,0,0,1,.35,1.5,3.2,3.2,0,0,1-.13.92,2.7,2.7,0,0,1-.37.78,2.44,2.44,0,0,1-.61.61,2.83,2.83,0,0,1-.84.4v0a2.9,2.9,0,0,1,1.79,1.07,3.1,3.1,0,0,1,.62,2,3.74,3.74,0,0,1-1.34,3,5,5,0,0,1-3.35,1.14,5.77,5.77,0,0,1-1.75-.26,4.42,4.42,0,0,1-1.46-.78,3.74,3.74,0,0,1-1-1.26,3.82,3.82,0,0,1-.37-1.71v-.2h2v.2a2.22,2.22,0,0,0,.2.95,2.19,2.19,0,0,0,.54.72,2.35,2.35,0,0,0,.79.46,2.86,2.86,0,0,0,1,.16,2.72,2.72,0,0,0,1.92-.66,2.18,2.18,0,0,0,.71-1.67,2,2,0,0,0-.67-1.63,3.3,3.3,0,0,0-2.19-.58h-.53V27.47h.65a2.79,2.79,0,0,0,1.8-.53,1.65,1.65,0,0,0,.6-1.34,2.07,2.07,0,0,0-.17-.87,1.66,1.66,0,0,0-.47-.62,2,2,0,0,0-.69-.36,3,3,0,0,0-.85-.12,2.55,2.55,0,0,0-.9.15,2.11,2.11,0,0,0-.72.44,2.16,2.16,0,0,0-.49.71,2.43,2.43,0,0,0-.19,1h-2a4.21,4.21,0,0,1,.34-1.57,3.83,3.83,0,0,1,.88-1.26,4.12,4.12,0,0,1,1.36-.84A4.89,4.89,0,0,1,238.55,21.9Z"/><polygon class="cls-5" points="261 39.71 257 35.71 257.71 35 261 38.29 264.3 35 265.01 35.71 261 39.71"/><polygon class="cls-5" points="261 18.29 257 22.29 257.71 23 261 19.71 264.3 23 265.01 22.29 261 18.29"/><polygon class="cls-5" points="24.29 89 28.29 93 29 92.29 25.71 89 29 85.7 28.29 84.99 24.29 89"/><rect class="cls-1" x="113.5" y="71.5" width="35" height="35"/><path class="cls-2" d="M148,72v34H114V72h34m1-1H113v36h36V71Z"/><polygon class="cls-5" points="133 89 129 84.99 128.29 85.7 131.59 89 128.29 92.29 129 93 133 89"/><rect class="cls-1" x="243.5" y="71.5" width="35" height="35"/><path class="cls-2" d="M278,72v34H244V72h34m1-1H243v36h36V71Z"/><rect class="cls-1" x="208.5" y="71.5" width="35" height="35"/><path class="cls-2" d="M243,72v34H209V72h34m1-1H208v36h36V71Z"/><path class="cls-5" d="M230.5,88.9v1.78h-9V88.9Z"/><path class="cls-5" d="M261.79,90.25V94h-1.57V90.25h-3.75V88.67h3.75V84.92h1.57v3.75h3.75v1.57Z"/><line class="cls-6" x1="243" y1="106.5" x2="279" y2="106.5"/><line class="cls-6" x1="208" y1="106.5" x2="244" y2="106.5"/><line class="cls-6" x1="113" y1="106.5" x2="149" y2="106.5"/><line class="cls-6" x1="9" y1="106.5" x2="45" y2="106.5"/></g></svg>