<svg xmlns="http://www.w3.org/2000/svg" viewBox="0 0 364 132"><defs><style>.cls-1{fill:#e1e1e1;}.cls-2{fill:#464646;}.cls-3{fill:#646464;}.cls-4,.cls-5,.cls-6,.cls-7{fill:none;stroke-miterlimit:10;}.cls-4{stroke:#e6e6e6;}.cls-5{stroke:#c8c8c8;}.cls-6{stroke:#d7d7d7;}.cls-7{stroke:#3899e9;}</style></defs><title>Artboard 58</title><g id="Layer_1" data-name="Layer 1"><rect class="cls-1" x="10" y="15.66" width="342" height="36"/><path class="cls-2" d="M23,64.8v.7H17.94v3.09h4.77v.69H17.94v3.38h5.14v.7h-6V64.8Z"/><path class="cls-2" d="M30.77,71.08a2.15,2.15,0,0,1-.28,1.14,2.26,2.26,0,0,1-.76.76,3.46,3.46,0,0,1-1.1.42,6.15,6.15,0,0,1-1.29.13,4.8,4.8,0,0,1-1.28-.16,3.18,3.18,0,0,1-1-.49,2.35,2.35,0,0,1-.69-.79A2.22,2.22,0,0,1,24.08,71v-.19h.82v.06a1.87,1.87,0,0,0,.16.76,1.65,1.65,0,0,0,.48.62,2.43,2.43,0,0,0,.81.42,3.79,3.79,0,0,0,1.15.16,4,4,0,0,0,.9-.1,2.56,2.56,0,0,0,.79-.32,1.81,1.81,0,0,0,.56-.54A1.38,1.38,0,0,0,30,71.1q0-1.11-1.67-1.52l-2-.49a4,4,0,0,1-.88-.31,2.14,2.14,0,0,1-.6-.44,1.6,1.6,0,0,1-.35-.58,2.24,2.24,0,0,1-.11-.73,2.1,2.1,0,0,1,.25-1,2.34,2.34,0,0,1,.68-.76,3.07,3.07,0,0,1,1-.46,4.16,4.16,0,0,1,1.14-.16,4.34,4.34,0,0,1,1.2.16,2.9,2.9,0,0,1,1,.46,2.27,2.27,0,0,1,.64.75,2.24,2.24,0,0,1,.25,1h-.81a1.6,1.6,0,0,0-.2-.65A1.78,1.78,0,0,0,29,65.8a2.24,2.24,0,0,0-.69-.36,2.81,2.81,0,0,0-.88-.13,3.49,3.49,0,0,0-.91.11,2.16,2.16,0,0,0-.71.33,1.46,1.46,0,0,0-.46.53,1.6,1.6,0,0,0-.16.73,1.2,1.2,0,0,0,.11.52,1.13,1.13,0,0,0,.29.38,1.54,1.54,0,0,0,.43.25,4,4,0,0,0,.53.17l2,.48a3.73,3.73,0,0,1,1.76.85A1.93,1.93,0,0,1,30.77,71.08Z"/><path class="cls-2" d="M35.34,64.79a4.11,4.11,0,0,1,3,1,4.36,4.36,0,0,1,1.07,3.26,4.33,4.33,0,0,1-1.07,3.26,4,4,0,0,1-2.89,1H32.49V64.79Zm-.22,7.87a3.57,3.57,0,0,0,2.61-.83,3.76,3.76,0,0,0,.84-2.75,3.82,3.82,0,0,0-.82-2.74A3.73,3.73,0,0,0,35,65.49H33.31v7.17Z"/><path class="cls-2" d="M23.48,103.24a2.34,2.34,0,0,1-.7,1.8,2.55,2.55,0,0,1-1.8.64h-3v3.67h-.82v-8.57H21a2.53,2.53,0,0,1,1.8.65A2.33,2.33,0,0,1,23.48,103.24Zm-.81,0a1.68,1.68,0,0,0-.5-1.29,2.11,2.11,0,0,0-1.49-.46H17.94V105H20.8a2,2,0,0,0,1.35-.45A1.65,1.65,0,0,0,22.66,103.24Z"/><path class="cls-2" d="M28.65,100.63a4.19,4.19,0,0,1,1.21.17,3.47,3.47,0,0,1,1,.49A2.86,2.86,0,0,1,32,103.08h-.81a2.57,2.57,0,0,0-.34-.7,2.26,2.26,0,0,0-.55-.56,2.68,2.68,0,0,0-.75-.37,3.37,3.37,0,0,0-2.34.17,3,3,0,0,0-1,.82,3.62,3.62,0,0,0-.62,1.2,4.87,4.87,0,0,0-.21,1.44,5.18,5.18,0,0,0,.08.94,4.26,4.26,0,0,0,.26.88,3.66,3.66,0,0,0,.44.78,2.93,2.93,0,0,0,.62.62,2.86,2.86,0,0,0,.81.41,3.23,3.23,0,0,0,1,.15,2.8,2.8,0,0,0,1.06-.19,2.55,2.55,0,0,0,.82-.52,2.7,2.7,0,0,0,.56-.77,3.22,3.22,0,0,0,.29-.93h.81a4.09,4.09,0,0,1-.35,1.2,3.33,3.33,0,0,1-.71,1,3.23,3.23,0,0,1-1.06.67,3.8,3.8,0,0,1-1.42.25,4,4,0,0,1-1.7-.34,3.66,3.66,0,0,1-1.27-.94,4.19,4.19,0,0,1-.79-1.42,5.68,5.68,0,0,1,0-3.45,4.23,4.23,0,0,1,.77-1.42,3.72,3.72,0,0,1,1.27-1A4,4,0,0,1,28.65,100.63Z"/><path class="cls-2" d="M40,107.08a2.15,2.15,0,0,1-.28,1.14,2.26,2.26,0,0,1-.76.76,3.46,3.46,0,0,1-1.1.42,6.15,6.15,0,0,1-1.29.13,4.8,4.8,0,0,1-1.28-.16,3.18,3.18,0,0,1-1-.49,2.35,2.35,0,0,1-.69-.79,2.22,2.22,0,0,1-.25-1.08v-.19h.82v.06a1.87,1.87,0,0,0,.16.76,1.65,1.65,0,0,0,.48.62,2.43,2.43,0,0,0,.81.42,3.79,3.79,0,0,0,1.15.16,4,4,0,0,0,.9-.1,2.56,2.56,0,0,0,.79-.32,1.81,1.81,0,0,0,.56-.54,1.38,1.38,0,0,0,.21-.78q0-1.11-1.67-1.52l-2-.49a4,4,0,0,1-.88-.31,2.14,2.14,0,0,1-.6-.44,1.6,1.6,0,0,1-.35-.58,2.24,2.24,0,0,1-.11-.73,2.1,2.1,0,0,1,.25-1,2.34,2.34,0,0,1,.68-.76,3.07,3.07,0,0,1,1-.46,4.16,4.16,0,0,1,1.14-.16,4.34,4.34,0,0,1,1.2.16,2.9,2.9,0,0,1,1,.46,2.27,2.27,0,0,1,.64.75,2.24,2.24,0,0,1,.25,1h-.81a1.6,1.6,0,0,0-.2-.65,1.78,1.78,0,0,0-.46-.53,2.24,2.24,0,0,0-.69-.36,2.81,2.81,0,0,0-.88-.13,3.49,3.49,0,0,0-.91.11,2.16,2.16,0,0,0-.71.33,1.46,1.46,0,0,0-.46.53,1.6,1.6,0,0,0-.16.73,1.2,1.2,0,0,0,.11.52,1.13,1.13,0,0,0,.29.38,1.54,1.54,0,0,0,.43.25,4,4,0,0,0,.53.17l2,.48a3.73,3.73,0,0,1,1.76.85A1.93,1.93,0,0,1,40,107.08Z"/><path class="cls-3" d="M23.68,31.43a2.44,2.44,0,0,1-1.63,2.46,3.32,3.32,0,0,1-1.13.18h-2.4v3.29H17V28.79h3.9a2.79,2.79,0,0,1,2,.72A2.51,2.51,0,0,1,23.68,31.43Zm-1.46,0a1.37,1.37,0,0,0-.42-1.09A2,2,0,0,0,20.49,30h-2v2.9h2a2.77,2.77,0,0,0,.72-.08,1.28,1.28,0,0,0,1-1.36Z"/><path class="cls-3" d="M25,37.36V30.78h1.37v1.34h0A2.4,2.4,0,0,1,27.24,31a2.23,2.23,0,0,1,1.29-.39h.21l.2,0V32l-.25,0h-.28a1.84,1.84,0,0,0-1.48.6,2.36,2.36,0,0,0-.51,1.57v3.18Z"/><path class="cls-3" d="M36.39,34.08a4.09,4.09,0,0,1-.23,1.38,3.09,3.09,0,0,1-.68,1.11,3,3,0,0,1-1,.73,3.49,3.49,0,0,1-1.36.25,3.12,3.12,0,0,1-2.38-1,3.94,3.94,0,0,1,0-5,3.1,3.1,0,0,1,2.39-1,3.15,3.15,0,0,1,2.4,1A3.54,3.54,0,0,1,36.39,34.08Zm-1.45,0a3.59,3.59,0,0,0-.12-.92,2.21,2.21,0,0,0-.35-.75,1.68,1.68,0,0,0-.58-.5,1.75,1.75,0,0,0-.83-.18,1.71,1.71,0,0,0-.77.17,1.62,1.62,0,0,0-.57.48,2.23,2.23,0,0,0-.36.74,3.8,3.8,0,0,0,0,1.9,2.19,2.19,0,0,0,.36.74,1.67,1.67,0,0,0,.58.49,1.86,1.86,0,0,0,1.58,0,1.67,1.67,0,0,0,.58-.49,2.24,2.24,0,0,0,.36-.74A3.41,3.41,0,0,0,34.94,34.08Z"/><path class="cls-3" d="M41,30.61a4.07,4.07,0,0,1,1.06.13,2.82,2.82,0,0,1,.89.41,2.27,2.27,0,0,1,.64.68,2.3,2.3,0,0,1,.31.95H42.47A1.21,1.21,0,0,0,42,32a1.69,1.69,0,0,0-1-.27,1.54,1.54,0,0,0-.81.21,1.8,1.8,0,0,0-.57.54,2.44,2.44,0,0,0-.33.76,3.43,3.43,0,0,0,0,1.67,2.42,2.42,0,0,0,.32.75,1.78,1.78,0,0,0,.56.55,1.51,1.51,0,0,0,.82.21,1.81,1.81,0,0,0,.6-.09,1.48,1.48,0,0,0,.47-.26,1.4,1.4,0,0,0,.33-.41,1.75,1.75,0,0,0,.18-.52h1.4a3.08,3.08,0,0,1-.33,1,2.6,2.6,0,0,1-.62.76,2.77,2.77,0,0,1-.89.49,3.49,3.49,0,0,1-1.14.18,3.33,3.33,0,0,1-1.32-.25,3,3,0,0,1-1-.71,3.22,3.22,0,0,1-.67-1.08,3.83,3.83,0,0,1-.24-1.37,4.25,4.25,0,0,1,.21-1.36,3.31,3.31,0,0,1,.63-1.12,3,3,0,0,1,1-.76A3.33,3.33,0,0,1,41,30.61Z"/><path class="cls-3" d="M48.34,30.61a3,3,0,0,1,1.34.28,2.79,2.79,0,0,1,1,.77,3.33,3.33,0,0,1,.58,1.13,4.76,4.76,0,0,1,.19,1.37v.26H46.57a2.77,2.77,0,0,0,.13.81,1.9,1.9,0,0,0,.35.63,1.55,1.55,0,0,0,.54.41,1.7,1.7,0,0,0,.72.15,1.9,1.9,0,0,0,1-.23,1.7,1.7,0,0,0,.61-.6h1.37a3.06,3.06,0,0,1-.45.81,2.83,2.83,0,0,1-.66.62,3,3,0,0,1-.85.39,3.66,3.66,0,0,1-1,.13A3.28,3.28,0,0,1,47,37.29a2.82,2.82,0,0,1-1-.72,3.18,3.18,0,0,1-.62-1.1,4.31,4.31,0,0,1-.22-1.4,4,4,0,0,1,.22-1.33,3.29,3.29,0,0,1,.63-1.1,3,3,0,0,1,1-.76A3.16,3.16,0,0,1,48.34,30.61ZM50,33.46a2.77,2.77,0,0,0-.16-.71,1.73,1.73,0,0,0-.33-.55,1.43,1.43,0,0,0-.5-.35,1.73,1.73,0,0,0-.68-.13,1.74,1.74,0,0,0-.69.13,1.51,1.51,0,0,0-.52.36,1.79,1.79,0,0,0-.35.55,2.54,2.54,0,0,0-.17.7Z"/><path class="cls-3" d="M58.37,35.37a2,2,0,0,1-.23,1,2,2,0,0,1-.61.68,2.7,2.7,0,0,1-.91.39,4.78,4.78,0,0,1-1.12.13,4.56,4.56,0,0,1-1.08-.12,2.75,2.75,0,0,1-.89-.38,2.14,2.14,0,0,1-.63-.65,2.2,2.2,0,0,1-.3-.94H54a1.14,1.14,0,0,0,.51.8,1.52,1.52,0,0,0,.46.2,2.2,2.2,0,0,0,.56.07,2.4,2.4,0,0,0,.53-.06,1.45,1.45,0,0,0,.45-.18,1,1,0,0,0,.32-.31.78.78,0,0,0,.12-.44.61.61,0,0,0-.1-.35.9.9,0,0,0-.27-.26,1.82,1.82,0,0,0-.4-.18l-.47-.13-.93-.22a6,6,0,0,1-.91-.28,2.37,2.37,0,0,1-.63-.37,1.33,1.33,0,0,1-.37-.49,1.57,1.57,0,0,1-.12-.63,1.77,1.77,0,0,1,.21-.89,1.85,1.85,0,0,1,.58-.63,2.69,2.69,0,0,1,.87-.37,4.46,4.46,0,0,1,1.07-.12,3.88,3.88,0,0,1,1.06.13,2.61,2.61,0,0,1,.82.38,1.9,1.9,0,0,1,.54.59,2,2,0,0,1,.25.77H56.76a1,1,0,0,0-.45-.65,1.65,1.65,0,0,0-.91-.23,2.3,2.3,0,0,0-.47,0,1.27,1.27,0,0,0-.39.14.77.77,0,0,0-.26.25.65.65,0,0,0-.1.36.6.6,0,0,0,.1.35.91.91,0,0,0,.26.25,1.46,1.46,0,0,0,.35.16l.37.1,1.38.33a4.36,4.36,0,0,1,.68.22,2,2,0,0,1,.54.34,1.47,1.47,0,0,1,.37.5A1.84,1.84,0,0,1,58.37,35.37Z"/><path class="cls-3" d="M65.39,35.37a2,2,0,0,1-.22,1,2,2,0,0,1-.61.68,2.69,2.69,0,0,1-.91.39,4.8,4.8,0,0,1-1.12.13,4.56,4.56,0,0,1-1.08-.12,2.74,2.74,0,0,1-.89-.38,2.14,2.14,0,0,1-.63-.65,2.2,2.2,0,0,1-.3-.94H61a1.15,1.15,0,0,0,.51.8,1.51,1.51,0,0,0,.46.2,2.2,2.2,0,0,0,.56.07,2.4,2.4,0,0,0,.53-.06,1.46,1.46,0,0,0,.46-.18,1,1,0,0,0,.32-.31.78.78,0,0,0,.12-.44.61.61,0,0,0-.1-.35.9.9,0,0,0-.27-.26,1.8,1.8,0,0,0-.39-.18l-.47-.13-.93-.22a6,6,0,0,1-.9-.28,2.37,2.37,0,0,1-.63-.37,1.33,1.33,0,0,1-.37-.49,1.57,1.57,0,0,1-.12-.63,1.77,1.77,0,0,1,.21-.89,1.84,1.84,0,0,1,.58-.63,2.69,2.69,0,0,1,.87-.37,4.46,4.46,0,0,1,1.07-.12,3.88,3.88,0,0,1,1.06.13,2.62,2.62,0,0,1,.82.38,1.9,1.9,0,0,1,.54.59,2,2,0,0,1,.25.77H63.78a1,1,0,0,0-.45-.65,1.65,1.65,0,0,0-.91-.23,2.3,2.3,0,0,0-.47,0,1.27,1.27,0,0,0-.39.14.77.77,0,0,0-.26.25.65.65,0,0,0-.1.36.6.6,0,0,0,.1.35.91.91,0,0,0,.26.25,1.47,1.47,0,0,0,.35.16l.37.1,1.38.33a4.38,4.38,0,0,1,.68.22,2,2,0,0,1,.54.34,1.47,1.47,0,0,1,.37.5A1.84,1.84,0,0,1,65.39,35.37Z"/><path class="cls-3" d="M76.89,34.91a2.36,2.36,0,0,1-.29,1.2,2.41,2.41,0,0,1-.78.82,3.5,3.5,0,0,1-1.13.47,5.89,5.89,0,0,1-1.34.15A5.17,5.17,0,0,1,72,37.38a3.37,3.37,0,0,1-1.1-.51,2.49,2.49,0,0,1-.74-.84,2.38,2.38,0,0,1-.27-1.15v-.1h1.47v.05a1.33,1.33,0,0,0,.16.67A1.4,1.4,0,0,0,72,36a2.11,2.11,0,0,0,.67.28,3.62,3.62,0,0,0,1.58,0,2.05,2.05,0,0,0,.63-.25,1.31,1.31,0,0,0,.43-.41,1.06,1.06,0,0,0,.15-.58.93.93,0,0,0-.37-.76,3.26,3.26,0,0,0-1.16-.51l-1.84-.49a2.83,2.83,0,0,1-1.44-.78,2,2,0,0,1-.47-1.39A2.24,2.24,0,0,1,70.41,30a2.37,2.37,0,0,1,.7-.79,3.22,3.22,0,0,1,1-.48,4.61,4.61,0,0,1,1.24-.16,4.68,4.68,0,0,1,1.19.15,3.23,3.23,0,0,1,1,.45,2.32,2.32,0,0,1,.71.77,2.25,2.25,0,0,1,.28,1.09H75.12a1.25,1.25,0,0,0-.16-.52,1.26,1.26,0,0,0-.37-.4,1.81,1.81,0,0,0-.55-.26,2.49,2.49,0,0,0-.71-.09,2.91,2.91,0,0,0-.66.07,1.75,1.75,0,0,0-.55.23,1.15,1.15,0,0,0-.37.38,1.05,1.05,0,0,0-.14.55,1,1,0,0,0,.07.39.8.8,0,0,0,.2.28,1.07,1.07,0,0,0,.31.19,3.06,3.06,0,0,0,.4.13l2,.53a3.69,3.69,0,0,1,1.7.87A2,2,0,0,1,76.89,34.91Z"/><path class="cls-3" d="M81.2,30.61a3,3,0,0,1,1.34.28,2.79,2.79,0,0,1,1,.77,3.33,3.33,0,0,1,.58,1.13,4.76,4.76,0,0,1,.19,1.37v.26H79.43a2.77,2.77,0,0,0,.13.81,1.9,1.9,0,0,0,.35.63,1.55,1.55,0,0,0,.54.41,1.7,1.7,0,0,0,.72.15,1.9,1.9,0,0,0,1-.23,1.7,1.7,0,0,0,.61-.6h1.37a3.06,3.06,0,0,1-.45.81A2.83,2.83,0,0,1,83,37a3,3,0,0,1-.85.39,3.66,3.66,0,0,1-1,.13,3.28,3.28,0,0,1-1.33-.26,2.82,2.82,0,0,1-1-.72,3.18,3.18,0,0,1-.62-1.1,4.31,4.31,0,0,1-.22-1.4,4,4,0,0,1,.22-1.33,3.29,3.29,0,0,1,.63-1.1,3,3,0,0,1,1-.76A3.16,3.16,0,0,1,81.2,30.61Zm1.63,2.85a2.77,2.77,0,0,0-.16-.71,1.73,1.73,0,0,0-.33-.55,1.43,1.43,0,0,0-.5-.35,1.73,1.73,0,0,0-.68-.13,1.74,1.74,0,0,0-.69.13,1.51,1.51,0,0,0-.52.36,1.79,1.79,0,0,0-.35.55,2.54,2.54,0,0,0-.17.7Z"/><path class="cls-3" d="M88.83,30.61a4.07,4.07,0,0,1,1.06.13,2.82,2.82,0,0,1,.89.41,2.27,2.27,0,0,1,.64.68,2.3,2.3,0,0,1,.31.95H90.31a1.21,1.21,0,0,0-.47-.78,1.69,1.69,0,0,0-1-.27,1.54,1.54,0,0,0-.81.21,1.8,1.8,0,0,0-.57.54,2.44,2.44,0,0,0-.33.76,3.43,3.43,0,0,0,0,1.67,2.42,2.42,0,0,0,.32.75,1.78,1.78,0,0,0,.56.55,1.51,1.51,0,0,0,.82.21,1.81,1.81,0,0,0,.6-.09,1.48,1.48,0,0,0,.47-.26,1.4,1.4,0,0,0,.33-.41,1.75,1.75,0,0,0,.18-.52h1.4a3.08,3.08,0,0,1-.33,1,2.6,2.6,0,0,1-.62.76,2.77,2.77,0,0,1-.89.49,3.49,3.49,0,0,1-1.14.18,3.33,3.33,0,0,1-1.32-.25,3,3,0,0,1-1-.71,3.22,3.22,0,0,1-.67-1.08,3.83,3.83,0,0,1-.24-1.37,4.25,4.25,0,0,1,.21-1.36,3.31,3.31,0,0,1,.63-1.12,3,3,0,0,1,1-.76A3.33,3.33,0,0,1,88.83,30.61Z"/><path class="cls-3" d="M96.69,37.41h-.83a4.6,4.6,0,0,1-.74-.06,1.58,1.58,0,0,1-.6-.22,1.12,1.12,0,0,1-.4-.45A1.67,1.67,0,0,1,94,36V31.8H92.69v-1H94v-2h1.45v2h1.5v1h-1.5v3.72a.83.83,0,0,0,.17.58.81.81,0,0,0,.6.18h.57l.17,0v1.14Z"/><path class="cls-3" d="M99.83,27.92v1.42H98.38V27.92Zm0,2.86v6.57H98.38V30.78Z"/><path class="cls-3" d="M108.1,34.08a4.09,4.09,0,0,1-.22,1.38,3.1,3.1,0,0,1-.68,1.11,3,3,0,0,1-1,.73,3.5,3.5,0,0,1-1.36.25,3.12,3.12,0,0,1-2.38-1,3.94,3.94,0,0,1,0-5,3.1,3.1,0,0,1,2.39-1,3.15,3.15,0,0,1,2.4,1A3.54,3.54,0,0,1,108.1,34.08Zm-1.45,0a3.59,3.59,0,0,0-.11-.92,2.21,2.21,0,0,0-.35-.75,1.68,1.68,0,0,0-.58-.5,1.75,1.75,0,0,0-.83-.18,1.71,1.71,0,0,0-.77.17,1.62,1.62,0,0,0-.57.48,2.23,2.23,0,0,0-.36.74,3.77,3.77,0,0,0,0,1.9,2.19,2.19,0,0,0,.35.74,1.67,1.67,0,0,0,.58.49,1.7,1.7,0,0,0,.79.18,1.72,1.72,0,0,0,.79-.18,1.68,1.68,0,0,0,.58-.49,2.24,2.24,0,0,0,.36-.74A3.41,3.41,0,0,0,106.65,34.08Z"/><path class="cls-3" d="M113.22,30.61a3.25,3.25,0,0,1,1.1.16,1.8,1.8,0,0,1,.74.49,2,2,0,0,1,.42.81,4.29,4.29,0,0,1,.13,1.12v4.17h-1.44v-3.9a2.11,2.11,0,0,0-.32-1.27,1.19,1.19,0,0,0-1-.43,1.48,1.48,0,0,0-1.23.52,2.28,2.28,0,0,0-.41,1.45v3.63h-1.44V30.78h1.38v1h0a2.14,2.14,0,0,1,.37-.5,2.24,2.24,0,0,1,.48-.37,2.34,2.34,0,0,1,.57-.23A2.51,2.51,0,0,1,113.22,30.61Z"/><path class="cls-3" d="M156.07,28.79v1.27h-2.72v7.3h-1.49v-7.3h-2.72V28.79Z"/><path class="cls-3" d="M156.21,37.36V30.78h1.37v1.34h0a2.4,2.4,0,0,1,.87-1.08,2.23,2.23,0,0,1,1.29-.39H160l.2,0V32l-.25,0h-.28a1.84,1.84,0,0,0-1.48.6,2.36,2.36,0,0,0-.51,1.57v3.18Z"/><path class="cls-3" d="M164.19,30.61a3,3,0,0,1,1.34.28,2.79,2.79,0,0,1,1,.77,3.33,3.33,0,0,1,.58,1.13,4.76,4.76,0,0,1,.19,1.37v.26h-4.85a2.77,2.77,0,0,0,.13.81,1.9,1.9,0,0,0,.35.63,1.55,1.55,0,0,0,.54.41,1.7,1.7,0,0,0,.72.15,1.9,1.9,0,0,0,1-.23,1.7,1.7,0,0,0,.61-.6h1.37a3.06,3.06,0,0,1-.45.81A2.83,2.83,0,0,1,166,37a3,3,0,0,1-.85.39,3.66,3.66,0,0,1-1,.13,3.28,3.28,0,0,1-1.33-.26,2.82,2.82,0,0,1-1-.72,3.18,3.18,0,0,1-.62-1.1,4.31,4.31,0,0,1-.22-1.4,4,4,0,0,1,.22-1.33,3.29,3.29,0,0,1,.63-1.1,3,3,0,0,1,1-.76A3.16,3.16,0,0,1,164.19,30.61Zm1.63,2.85a2.77,2.77,0,0,0-.16-.71,1.73,1.73,0,0,0-.33-.55,1.43,1.43,0,0,0-.5-.35,1.73,1.73,0,0,0-.68-.13,1.74,1.74,0,0,0-.69.13,1.51,1.51,0,0,0-.52.36,1.79,1.79,0,0,0-.35.55,2.54,2.54,0,0,0-.17.7Z"/><path class="cls-3" d="M172.32,30.61a3.24,3.24,0,0,1,1.1.16,1.8,1.8,0,0,1,.74.49,2,2,0,0,1,.42.81,4.28,4.28,0,0,1,.13,1.12v4.17h-1.44v-3.9a2.11,2.11,0,0,0-.32-1.27,1.19,1.19,0,0,0-1-.43,1.48,1.48,0,0,0-1.23.52,2.28,2.28,0,0,0-.41,1.45v3.63h-1.44V30.78h1.38v1h0a2.14,2.14,0,0,1,.37-.5,2.24,2.24,0,0,1,.48-.37,2.34,2.34,0,0,1,.57-.23A2.51,2.51,0,0,1,172.32,30.61Z"/><path class="cls-3" d="M182.81,28.28v9.08h-1.37v-1h0a2.07,2.07,0,0,1-.37.5,2.16,2.16,0,0,1-.49.37,2.45,2.45,0,0,1-.6.23,2.79,2.79,0,0,1-.67.08,2.72,2.72,0,0,1-1.28-.29,2.75,2.75,0,0,1-.92-.77,3.39,3.39,0,0,1-.56-1.12,4.69,4.69,0,0,1-.19-1.33,4.53,4.53,0,0,1,.18-1.26,3.34,3.34,0,0,1,.54-1.1,2.76,2.76,0,0,1,.91-.77,2.91,2.91,0,0,1,1.92-.22,2.48,2.48,0,0,1,.58.21,2.08,2.08,0,0,1,.49.35,2,2,0,0,1,.37.5h0V28.28Zm-5,5.79a3.63,3.63,0,0,0,.1.82,2.44,2.44,0,0,0,.31.76,1.81,1.81,0,0,0,.56.56,1.5,1.5,0,0,0,.83.22,1.73,1.73,0,0,0,.79-.17,1.57,1.57,0,0,0,.57-.49,2.25,2.25,0,0,0,.35-.75,3.68,3.68,0,0,0,.12-1,3.73,3.73,0,0,0-.1-.84,2.3,2.3,0,0,0-.31-.75,1.71,1.71,0,0,0-.56-.54,1.64,1.64,0,0,0-.85-.21,1.56,1.56,0,0,0-.82.2,1.7,1.7,0,0,0-.55.53,2.35,2.35,0,0,0-.32.75A3.93,3.93,0,0,0,177.78,34.06Z"/><line class="cls-4" x1="141.5" y1="51.66" x2="141.5" y2="125.16"/><line class="cls-5" x1="141.5" y1="16.66" x2="141.5" y2="50.66"/><line class="cls-6" x1="10.5" y1="15.66" x2="10.5" y2="125.16"/><line class="cls-6" x1="10" y1="123.16" x2="351.02" y2="123.16"/><line class="cls-4" x1="10" y1="87.16" x2="351.02" y2="87.16"/><line class="cls-5" x1="10" y1="51.16" x2="351.17" y2="51.16"/><line class="cls-6" x1="10" y1="16.16" x2="351.17" y2="16.16"/><line class="cls-6" x1="351.51" y1="15.66" x2="351.51" y2="124.16"/><polyline class="cls-7" points="149 76.28 162.57 69.64 175.22 81.66 198.26 62.51 209.94 70.13 225.6 57.19 241.58 77.66 258.48 69.64 265.23 73.53 278.45 61.92 289.2 76.19 296.57 73.71 304.25 81.05 319.62 68.84 326.68 73.71 344.5 76.92"/><polyline class="cls-7" points="149 112.28 162.57 112.5 175.22 117.66 187.5 107.51 209.94 115.13 225.6 102.19 241.58 113.66 258.48 93.66 269.88 104.88 278.45 97.92 289.2 112.19 296.57 109.71 304.25 117.05 319.62 115.5 326.68 109.71 344.5 112.92"/></g></svg>