<svg xmlns="http://www.w3.org/2000/svg" viewBox="0 0 468.67 50"><defs><style>.cls-1{fill:#efefef;}.cls-2{fill:none;stroke:#d0d0d0;stroke-miterlimit:10;}.cls-3{fill:#505050;}</style></defs><title>Artboard 50</title><g id="Layer_1" data-name="Layer 1"><rect class="cls-1" width="468.67" height="50"/><line class="cls-2" x1="211.5" y1="50" x2="211.5"/><line class="cls-2" x1="258.5" y1="50" x2="258.5"/><path class="cls-3" d="M313,25.28a4.7,4.7,0,0,1-1.1,3.2A3.68,3.68,0,0,1,309,29.74,3.72,3.72,0,0,1,306,28.5a4.71,4.71,0,0,1-1.1-3.22,4.67,4.67,0,0,1,1.1-3.21A3.72,3.72,0,0,1,309,20.81a4.81,4.81,0,0,1,.77.06,4,4,0,0,1,.74.19,3.72,3.72,0,0,1,.69.34,3.43,3.43,0,0,1,.61.49,3.49,3.49,0,0,1,.55.71,4.58,4.58,0,0,1,.38.83,5.41,5.41,0,0,1,.22.91A6.56,6.56,0,0,1,313,25.28Zm-.81,0a4.21,4.21,0,0,0-.85-2.69A2.86,2.86,0,0,0,309,21.51a2.89,2.89,0,0,0-2.36,1.05,4.15,4.15,0,0,0-.86,2.71,4.22,4.22,0,0,0,.85,2.7,3.16,3.16,0,0,0,4.74,0A4.21,4.21,0,0,0,312.21,25.28Z"/><path class="cls-3" d="M314.69,29.56V23h.74v1.54h0a2.56,2.56,0,0,1,.9-1.2,2.32,2.32,0,0,1,1.38-.43H318v.8h-.18a2.22,2.22,0,0,0-1.71.69,2.36,2.36,0,0,0-.64,1.69v3.48Z"/><path class="cls-3" d="M324.9,20.48v9.08h-.74V28.31h0a2,2,0,0,1-.39.59,2.57,2.57,0,0,1-.56.45,2.8,2.8,0,0,1-.67.29,2.63,2.63,0,0,1-.72.1,2.8,2.8,0,0,1-1.28-.28,2.68,2.68,0,0,1-.92-.75,3.32,3.32,0,0,1-.56-1.11,4.68,4.68,0,0,1-.19-1.34A4.83,4.83,0,0,1,319,25a3.31,3.31,0,0,1,.53-1.11,2.69,2.69,0,0,1,.92-.78,3,3,0,0,1,2-.2,2.56,2.56,0,0,1,.65.27,2.25,2.25,0,0,1,.54.45,2.07,2.07,0,0,1,.38.63h0V20.48Zm-5.26,5.8a4.17,4.17,0,0,0,.05.65,3.7,3.7,0,0,0,.16.64,2.82,2.82,0,0,0,.28.58,2.15,2.15,0,0,0,.41.48,1.8,1.8,0,0,0,.55.32,2,2,0,0,0,.7.12,2.08,2.08,0,0,0,1.73-.84,2.66,2.66,0,0,0,.43-.89,4,4,0,0,0,.14-1.06,4,4,0,0,0-.13-1,2.73,2.73,0,0,0-.41-.9,2.06,2.06,0,0,0-1.76-.88,1.94,1.94,0,0,0-.68.11,1.8,1.8,0,0,0-.54.31,2.15,2.15,0,0,0-.41.47,2.8,2.8,0,0,0-.29.58,3.52,3.52,0,0,0-.17.65A4.25,4.25,0,0,0,319.64,26.28Z"/><path class="cls-3" d="M329.67,22.81a2.71,2.71,0,0,1,1.3.29,2.6,2.6,0,0,1,.9.79,3.45,3.45,0,0,1,.52,1.13,5.21,5.21,0,0,1,.17,1.34v.13h-5.05a3.58,3.58,0,0,0,.13.94,2.59,2.59,0,0,0,.39.83,2,2,0,0,0,.66.59,1.92,1.92,0,0,0,.95.22,2.44,2.44,0,0,0,.7-.09,2,2,0,0,0,.56-.26,1.76,1.76,0,0,0,.42-.39,2.41,2.41,0,0,0,.29-.49h.79a3,3,0,0,1-.38.79,2.48,2.48,0,0,1-.59.6,2.68,2.68,0,0,1-.79.39,3.34,3.34,0,0,1-1,.14,2.94,2.94,0,0,1-1.3-.27,2.56,2.56,0,0,1-.91-.73,3.12,3.12,0,0,1-.54-1.1,5.14,5.14,0,0,1-.18-1.37,4.66,4.66,0,0,1,.18-1.28,3.36,3.36,0,0,1,.54-1.11,2.74,2.74,0,0,1,.92-.78A2.79,2.79,0,0,1,329.67,22.81Zm2.09,3a3,3,0,0,0-.16-.85,2.44,2.44,0,0,0-.41-.75,2.07,2.07,0,0,0-.65-.54,1.84,1.84,0,0,0-.88-.21,1.84,1.84,0,0,0-1.5.7,2.7,2.7,0,0,0-.42.75,4.31,4.31,0,0,0-.23.9Z"/><path class="cls-3" d="M334.24,29.56V23H335v1.54h0a2.56,2.56,0,0,1,.9-1.2,2.32,2.32,0,0,1,1.38-.43h.29v.8h-.18a2.22,2.22,0,0,0-1.71.69,2.36,2.36,0,0,0-.64,1.69v3.48Z"/><path class="cls-3" d="M342.36,29.56V23h.74v1.54h0a2.56,2.56,0,0,1,.9-1.2,2.32,2.32,0,0,1,1.38-.43h.29v.8h-.18a2.22,2.22,0,0,0-1.71.69,2.36,2.36,0,0,0-.64,1.69v3.48Z"/><path class="cls-3" d="M349.42,22.81a2.71,2.71,0,0,1,1.3.29,2.6,2.6,0,0,1,.9.79,3.45,3.45,0,0,1,.52,1.13,5.21,5.21,0,0,1,.17,1.34v.13h-5.05a3.58,3.58,0,0,0,.13.94,2.59,2.59,0,0,0,.39.83,2,2,0,0,0,.66.59,1.92,1.92,0,0,0,.95.22,2.44,2.44,0,0,0,.7-.09,2,2,0,0,0,.56-.26,1.76,1.76,0,0,0,.42-.39,2.41,2.41,0,0,0,.29-.49h.79a3,3,0,0,1-.38.79,2.48,2.48,0,0,1-.59.6,2.68,2.68,0,0,1-.79.39,3.34,3.34,0,0,1-1,.14,2.94,2.94,0,0,1-1.3-.27,2.56,2.56,0,0,1-.91-.73,3.12,3.12,0,0,1-.54-1.1,5.14,5.14,0,0,1-.18-1.37,4.66,4.66,0,0,1,.18-1.28,3.36,3.36,0,0,1,.54-1.11,2.74,2.74,0,0,1,.92-.78A2.79,2.79,0,0,1,349.42,22.81Zm2.09,3a3,3,0,0,0-.16-.85,2.44,2.44,0,0,0-.41-.75,2.07,2.07,0,0,0-.65-.54,1.84,1.84,0,0,0-.88-.21,1.84,1.84,0,0,0-1.5.7,2.7,2.7,0,0,0-.42.75,4.31,4.31,0,0,0-.23.9Z"/><path class="cls-3" d="M362.25,29.56V25.1a1.73,1.73,0,0,0-.37-1.22,1.85,1.85,0,0,0-2.5.21,2.8,2.8,0,0,0-.45,1.71v3.77h-.81V25.07a1.81,1.81,0,0,0-.34-1.17,1.25,1.25,0,0,0-1-.42,1.72,1.72,0,0,0-1.46.65,2.72,2.72,0,0,0-.5,1.71v3.72H354V23h.74v1.1h0a2.26,2.26,0,0,1,2.15-1.29,2.44,2.44,0,0,1,.64.08,1.86,1.86,0,0,1,.54.24,1.66,1.66,0,0,1,.42.4,1.86,1.86,0,0,1,.28.55,2.16,2.16,0,0,1,.85-1,2.4,2.4,0,0,1,1.24-.32,2.12,2.12,0,0,1,1.63.58,2.36,2.36,0,0,1,.54,1.66v4.51Z"/><path class="cls-3" d="M370.91,29.52l-.27,0h-.24a1.37,1.37,0,0,1-.44-.06.65.65,0,0,1-.29-.2.82.82,0,0,1-.16-.35,2.43,2.43,0,0,1,0-.53h0a3,3,0,0,1-1,1,2.79,2.79,0,0,1-1.35.29,2.46,2.46,0,0,1-1.6-.5,1.75,1.75,0,0,1-.6-1.43,1.66,1.66,0,0,1,.66-1.43,6.79,6.79,0,0,1,3-.69,2,2,0,0,0,.44-.08.75.75,0,0,0,.29-.16.6.6,0,0,0,.16-.26,1.28,1.28,0,0,0,0-.38,1.24,1.24,0,0,0-.4-1,2,2,0,0,0-1.31-.34,2.61,2.61,0,0,0-.72.09,1.65,1.65,0,0,0-.53.25,1.13,1.13,0,0,0-.33.39,1.23,1.23,0,0,0-.13.49h-.8a2,2,0,0,1,.22-.78,1.78,1.78,0,0,1,.51-.59,2.43,2.43,0,0,1,.81-.38,4,4,0,0,1,1.09-.13,2.64,2.64,0,0,1,1.83.54,2,2,0,0,1,.59,1.52v3.56a.47.47,0,0,0,.11.33.46.46,0,0,0,.36.12.7.7,0,0,0,.25,0ZM369.38,26h0q-.12.22-.77.31l-.67.1-.74.12a2.67,2.67,0,0,0-1.17.44,1,1,0,0,0-.39.84,1.16,1.16,0,0,0,.43.94,1.6,1.6,0,0,0,1,.35,2.36,2.36,0,0,0,1.63-.58,1.85,1.85,0,0,0,.65-1.44Z"/><path class="cls-3" d="M372.34,29.56V23h.74v1.54h0a2.56,2.56,0,0,1,.9-1.2,2.32,2.32,0,0,1,1.38-.43h.29v.8h-.18a2.22,2.22,0,0,0-1.71.69,2.36,2.36,0,0,0-.64,1.69v3.48Z"/><path class="cls-3" d="M377.78,20.48v5.7L381.42,23h1.07l-2.79,2.43,3,4.14h-1L379.08,26l-1.3,1.08v2.49H377V20.48Z"/><path class="cls-3" d="M388.8,27.78a1.67,1.67,0,0,1-.22.88,1.89,1.89,0,0,1-.59.62,2.74,2.74,0,0,1-.84.36,4,4,0,0,1-1,.12,3.66,3.66,0,0,1-1.07-.14,2.4,2.4,0,0,1-.8-.41,2,2,0,0,1-.53-.64,2.4,2.4,0,0,1-.25-.85h.81a1.7,1.7,0,0,0,.2.56,1.41,1.41,0,0,0,.38.43,1.8,1.8,0,0,0,.57.28,2.56,2.56,0,0,0,.74.1,3,3,0,0,0,.6-.06,2.05,2.05,0,0,0,.58-.21,1.35,1.35,0,0,0,.44-.38,1,1,0,0,0,.18-.59.93.93,0,0,0-.34-.73,2.6,2.6,0,0,0-1.13-.46l-1-.22a4,4,0,0,1-.77-.24,2.1,2.1,0,0,1-.58-.37,1.46,1.46,0,0,1-.36-.5,1.62,1.62,0,0,1-.12-.65,1.57,1.57,0,0,1,.21-.83,1.78,1.78,0,0,1,.56-.57,2.53,2.53,0,0,1,.78-.33,3.77,3.77,0,0,1,.89-.11,3.27,3.27,0,0,1,.92.12,2.29,2.29,0,0,1,.73.35,1.83,1.83,0,0,1,.5.57,2.08,2.08,0,0,1,.25.78h-.8a1.32,1.32,0,0,0-.19-.5,1.24,1.24,0,0,0-.36-.37,1.69,1.69,0,0,0-.5-.22,2.36,2.36,0,0,0-.61-.08,2.85,2.85,0,0,0-.58.06,1.59,1.59,0,0,0-.51.19,1.07,1.07,0,0,0-.36.35,1,1,0,0,0-.13.53.74.74,0,0,0,.13.44,1.27,1.27,0,0,0,.33.32,1.93,1.93,0,0,0,.44.22,3.64,3.64,0,0,0,.46.13l1.37.3a2.85,2.85,0,0,1,.59.21,1.77,1.77,0,0,1,.5.35,1.64,1.64,0,0,1,.34.51A1.71,1.71,0,0,1,388.8,27.78Z"/><rect class="cls-3" x="281" y="24" width="10" height="1"/><rect class="cls-3" x="281" y="26" width="10" height="1"/><path class="cls-3" d="M292.5,20h-13a1.5,1.5,0,0,0-1.5,1.5v8a1.5,1.5,0,0,0,1.5,1.5h3.73l2.71,2.71L288.65,31h3.85a1.5,1.5,0,0,0,1.5-1.5v-8a1.5,1.5,0,0,0-1.5-1.5m.5,9.5a.5.5,0,0,1-.5.5h-4.27l-1,1-1.29,1.29L284.65,31l-1-1H279.5a.5.5,0,0,1-.5-.5v-8a.5.5,0,0,1,.5-.5h13a.5.5,0,0,1,.5.5Z"/><polygon class="cls-3" points="78 32 72 26 78 20 78 32"/><polygon class="cls-3" points="46 32 40 26 46 20 46 32"/><rect class="cls-3" x="38" y="20" width="2" height="12"/><polygon class="cls-3" points="106 20 112 26 106 32 106 20"/><polygon class="cls-3" points="138 20 144 26 138 32 138 20"/><rect class="cls-3" x="144" y="20" width="2" height="12"/><rect class="cls-3" x="177" y="20" width="13" height="2"/><path class="cls-3" d="M178,23V34h11V23Zm3,9h-1V25h1Zm3,0h-1V25h1Zm3,0h-1V25h1Z"/><polygon class="cls-3" points="181 18 181 20 182 20 182 19 185 19 185 20 186 20 186 18 181 18"/><path class="cls-3" d="M234.25,34l-.79-2.21-1.46-.6-2.07,1.05-1.11-1.11,1-2.12-.6-1.46L227,26.82V25.25l2.21-.79.6-1.46-1.05-2.07,1.11-1.11,2.12,1,1.46-.6.72-2.21h1.57l.79,2.21,1.46.6,2.07-1.05,1.11,1.11-1,2.12.6,1.46,2.21.72v1.57l-2.21.79-.6,1.46,1.05,2.07-1.11,1.11-2.12-1-1.46.6L235.82,34ZM235,22.48A3.52,3.52,0,1,0,238.52,26,3.52,3.52,0,0,0,235,22.48Z"/></g></svg>