<svg xmlns="http://www.w3.org/2000/svg" viewBox="0 0 496 460"><defs><style>.cls-1{fill:#ff6c00;}.cls-2{fill:#fff;}.cls-3{fill:#3da8ff;}.cls-4{fill:#bedef6;opacity:0.8;}.cls-5{fill:#dcdcdc;}.cls-6{opacity:0.5;}.cls-7{fill:#464646;}.cls-8{fill:#828282;}.cls-9{fill:#f0f0f0;}.cls-10{fill:#e6e6e6;}.cls-11{fill:#b4b4b4;}</style></defs><title>Artboard 37</title><g id="Layer_1" data-name="Layer 1"><path class="cls-1" d="M47.42,39.43l5,7.25h0V39.43h.81V48h-.91l-5-7.25h0V48h-.82V39.43Z"/><path class="cls-1" d="M61.27,44.72a4.29,4.29,0,0,1-.2,1.31,3.31,3.31,0,0,1-.61,1.13,2.9,2.9,0,0,1-2.29,1,2.84,2.84,0,0,1-2.24-1,4.07,4.07,0,0,1,0-5,3.08,3.08,0,0,1,4.51,0A3.65,3.65,0,0,1,61.27,44.72Zm-.8,0a3.8,3.8,0,0,0-.13-1,2.81,2.81,0,0,0-.42-.9,2.25,2.25,0,0,0-.72-.65,2,2,0,0,0-1-.25,2,2,0,0,0-1,.24,2.24,2.24,0,0,0-.72.64,2.85,2.85,0,0,0-.44.9,3.66,3.66,0,0,0-.15,1,3.58,3.58,0,0,0,.14,1,3,3,0,0,0,.43.9,2.24,2.24,0,0,0,.71.65,2,2,0,0,0,1,.25,2,2,0,0,0,1-.24,2.33,2.33,0,0,0,.72-.63,2.8,2.8,0,0,0,.45-.89A3.54,3.54,0,0,0,60.47,44.72Z"/><path class="cls-1" d="M63.07,48V41.44h.74V43h0a2.56,2.56,0,0,1,.9-1.2,2.32,2.32,0,0,1,1.38-.43h.29v.8h-.18a2.22,2.22,0,0,0-1.71.69,2.36,2.36,0,0,0-.64,1.69V48Z"/><path class="cls-1" d="M76,48V43.54a1.73,1.73,0,0,0-.37-1.22,1.85,1.85,0,0,0-2.5.21,2.8,2.8,0,0,0-.45,1.71V48h-.81V43.51a1.81,1.81,0,0,0-.34-1.17,1.25,1.25,0,0,0-1-.42,1.72,1.72,0,0,0-1.46.65,2.72,2.72,0,0,0-.5,1.71V48h-.8V41.44h.74v1.1h0a2.26,2.26,0,0,1,2.15-1.29,2.44,2.44,0,0,1,.64.08,1.86,1.86,0,0,1,.54.24,1.66,1.66,0,0,1,.42.4,1.86,1.86,0,0,1,.28.55,2.16,2.16,0,0,1,.85-1,2.4,2.4,0,0,1,1.24-.32,2.12,2.12,0,0,1,1.63.58,2.36,2.36,0,0,1,.54,1.66V48Z"/><path class="cls-1" d="M84.63,48l-.27,0h-.24a1.37,1.37,0,0,1-.44-.06.65.65,0,0,1-.29-.2.82.82,0,0,1-.16-.35,2.43,2.43,0,0,1,0-.53h0a3,3,0,0,1-1,1,2.79,2.79,0,0,1-1.35.29,2.46,2.46,0,0,1-1.6-.5,1.75,1.75,0,0,1-.6-1.43,1.66,1.66,0,0,1,.66-1.43,6.79,6.79,0,0,1,3-.69,2,2,0,0,0,.44-.08.75.75,0,0,0,.29-.16.6.6,0,0,0,.16-.26,1.28,1.28,0,0,0,0-.38,1.24,1.24,0,0,0-.4-1,2,2,0,0,0-1.31-.34,2.61,2.61,0,0,0-.72.09,1.65,1.65,0,0,0-.53.25,1.13,1.13,0,0,0-.33.39,1.23,1.23,0,0,0-.13.49h-.8a2,2,0,0,1,.22-.78,1.78,1.78,0,0,1,.51-.59,2.43,2.43,0,0,1,.81-.38,4,4,0,0,1,1.09-.13,2.64,2.64,0,0,1,1.83.54,2,2,0,0,1,.59,1.52v3.56a.47.47,0,0,0,.11.33.46.46,0,0,0,.36.12.7.7,0,0,0,.25,0Zm-1.52-3.54h0q-.12.22-.77.31l-.67.1-.74.12a2.67,2.67,0,0,0-1.17.44,1,1,0,0,0-.39.84,1.16,1.16,0,0,0,.43.94,1.6,1.6,0,0,0,1,.35,2.36,2.36,0,0,0,1.63-.58,1.85,1.85,0,0,0,.65-1.44Z"/><path class="cls-1" d="M86.89,38.92V48h-.8V38.92Z"/><path class="cls-1" d="M55.29,111.45v3.71h5.08v-3.71h.81V120h-.81v-4.15H55.29V120h-.82v-8.55Z"/><path class="cls-1" d="M69.21,116.72A4.29,4.29,0,0,1,69,118a3.31,3.31,0,0,1-.61,1.13,2.9,2.9,0,0,1-2.29,1,2.84,2.84,0,0,1-2.24-1,4.07,4.07,0,0,1,0-5,3.08,3.08,0,0,1,4.51,0A3.65,3.65,0,0,1,69.21,116.72Zm-.8,0a3.8,3.8,0,0,0-.13-1,2.81,2.81,0,0,0-.42-.9,2.25,2.25,0,0,0-.72-.65,2,2,0,0,0-1-.25,2,2,0,0,0-1,.24,2.24,2.24,0,0,0-.72.64,2.85,2.85,0,0,0-.44.9,3.66,3.66,0,0,0-.15,1,3.58,3.58,0,0,0,.14,1,3,3,0,0,0,.43.9,2.24,2.24,0,0,0,.71.65,2,2,0,0,0,1,.25,2,2,0,0,0,1-.24,2.33,2.33,0,0,0,.72-.63,2.8,2.8,0,0,0,.45-.89A3.54,3.54,0,0,0,68.41,116.72Z"/><path class="cls-1" d="M71,113.44l2.06,5.76h0l2-5.76H76L73.54,120h-.85l-2.54-6.56Z"/><path class="cls-1" d="M79.9,113.25a2.71,2.71,0,0,1,1.3.29,2.6,2.6,0,0,1,.9.79,3.45,3.45,0,0,1,.52,1.13,5.21,5.21,0,0,1,.17,1.34v.13H77.73a3.58,3.58,0,0,0,.13.94,2.59,2.59,0,0,0,.39.83,2,2,0,0,0,.66.59,1.92,1.92,0,0,0,.95.22,2.44,2.44,0,0,0,.7-.09,2,2,0,0,0,.56-.26,1.76,1.76,0,0,0,.42-.39,2.41,2.41,0,0,0,.29-.49h.79a3,3,0,0,1-.38.79,2.48,2.48,0,0,1-.59.6,2.68,2.68,0,0,1-.79.39,3.34,3.34,0,0,1-1,.14,2.94,2.94,0,0,1-1.3-.27,2.56,2.56,0,0,1-.91-.73,3.12,3.12,0,0,1-.54-1.1,5.14,5.14,0,0,1-.18-1.37,4.66,4.66,0,0,1,.18-1.28,3.36,3.36,0,0,1,.54-1.11,2.74,2.74,0,0,1,.92-.78A2.79,2.79,0,0,1,79.9,113.25Zm2.09,3a3,3,0,0,0-.16-.85,2.44,2.44,0,0,0-.41-.75,2.07,2.07,0,0,0-.65-.54,1.84,1.84,0,0,0-.88-.21,1.84,1.84,0,0,0-1.5.7,2.7,2.7,0,0,0-.42.75,4.31,4.31,0,0,0-.23.9Z"/><path class="cls-1" d="M84.46,120v-6.56h.74V115h0a2.56,2.56,0,0,1,.9-1.2,2.32,2.32,0,0,1,1.38-.43h.29v.8h-.18a2.22,2.22,0,0,0-1.71.69,2.36,2.36,0,0,0-.64,1.69V120Z"/><path class="cls-1" d="M15.85,192l-1-2.66H10.91l-1,2.66H9l3.45-8.55h.91L16.73,192Zm-3-7.73h0l-1.71,4.38h3.37Z"/><path class="cls-1" d="M20.69,185.25a3.46,3.46,0,0,1,1,.13,2.53,2.53,0,0,1,.78.38,2,2,0,0,1,.56.61,2.31,2.31,0,0,1,.29.82h-.8a1.73,1.73,0,0,0-.22-.52,1.5,1.5,0,0,0-.37-.4,1.7,1.7,0,0,0-.53-.26,2.34,2.34,0,0,0-.68-.09,2,2,0,0,0-1,.23,2.19,2.19,0,0,0-.72.63,2.91,2.91,0,0,0-.44.9,3.58,3.58,0,0,0-.15,1,3.67,3.67,0,0,0,.14,1,2.88,2.88,0,0,0,.42.9,2.26,2.26,0,0,0,.71.65,2,2,0,0,0,1,.25,1.93,1.93,0,0,0,.71-.13,1.88,1.88,0,0,0,.56-.34,1.79,1.79,0,0,0,.39-.49,1.87,1.87,0,0,0,.21-.58h.8a3,3,0,0,1-.29.85,2.49,2.49,0,0,1-.55.7,2.54,2.54,0,0,1-.8.48,2.88,2.88,0,0,1-1,.18,3,3,0,0,1-1.29-.27,2.85,2.85,0,0,1-1-.74,3.28,3.28,0,0,1-.61-1.1,4.47,4.47,0,0,1,0-2.67,3.31,3.31,0,0,1,.59-1.11,2.9,2.9,0,0,1,1-.77A3,3,0,0,1,20.69,185.25Z"/><path class="cls-1" d="M27.76,192.06H27.1a3,3,0,0,1-.68-.06,1,1,0,0,1-.45-.23.89.89,0,0,1-.25-.43,2.65,2.65,0,0,1-.07-.68v-4.56H24.34v-.67h1.32v-2h.8v2H28v.67h-1.5v4.48a1.76,1.76,0,0,0,0,.34.64.64,0,0,0,.11.25.5.5,0,0,0,.21.16.87.87,0,0,0,.35.06h.6l.21,0V192Z"/><path class="cls-1" d="M30.55,182.57v1.29h-.8v-1.29Zm0,2.87V192h-.8v-6.56Z"/><path class="cls-1" d="M32.79,185.44l2.06,5.76h0l2-5.76h.83L35.28,192h-.85l-2.54-6.56Z"/><path class="cls-1" d="M41.64,185.25a2.71,2.71,0,0,1,1.3.29,2.6,2.6,0,0,1,.9.79,3.45,3.45,0,0,1,.52,1.13,5.21,5.21,0,0,1,.17,1.34v.13H39.48a3.58,3.58,0,0,0,.13.94,2.59,2.59,0,0,0,.39.83,2,2,0,0,0,.66.59,1.92,1.92,0,0,0,.95.22,2.44,2.44,0,0,0,.7-.09,2,2,0,0,0,.56-.26,1.76,1.76,0,0,0,.42-.39,2.41,2.41,0,0,0,.29-.49h.79a3,3,0,0,1-.38.79,2.48,2.48,0,0,1-.59.6,2.68,2.68,0,0,1-.79.39,3.34,3.34,0,0,1-1,.14,2.94,2.94,0,0,1-1.3-.27,2.56,2.56,0,0,1-.91-.73,3.12,3.12,0,0,1-.54-1.1,5.14,5.14,0,0,1-.18-1.37,4.66,4.66,0,0,1,.18-1.28,3.36,3.36,0,0,1,.54-1.11,2.74,2.74,0,0,1,.92-.78A2.79,2.79,0,0,1,41.64,185.25Zm2.09,3a3,3,0,0,0-.16-.85,2.44,2.44,0,0,0-.41-.75,2.07,2.07,0,0,0-.65-.54,1.84,1.84,0,0,0-.88-.21,1.84,1.84,0,0,0-1.5.7,2.7,2.7,0,0,0-.42.75,4.31,4.31,0,0,0-.23.9Z"/><path class="cls-1" d="M47.51,190.73V192a1.77,1.77,0,0,1-.3,1,1.46,1.46,0,0,1-.37.39,1.5,1.5,0,0,1-.5.23v-.52a.86.86,0,0,0,.45-.42,1.33,1.33,0,0,0,.17-.64V192H46.4v-1.27Z"/><path class="cls-1" d="M58.84,183.43v.7H54.23v3.09h4.1v.7h-4.1V192h-.82v-8.57Z"/><path class="cls-1" d="M66,188.72a4.29,4.29,0,0,1-.2,1.31,3.31,3.31,0,0,1-.61,1.13,2.9,2.9,0,0,1-2.29,1,2.84,2.84,0,0,1-2.24-1,4.07,4.07,0,0,1,0-5,3.08,3.08,0,0,1,4.51,0A3.65,3.65,0,0,1,66,188.72Zm-.8,0a3.8,3.8,0,0,0-.13-1,2.81,2.81,0,0,0-.42-.9,2.25,2.25,0,0,0-.72-.65,2,2,0,0,0-1-.25,2,2,0,0,0-1,.24,2.24,2.24,0,0,0-.72.64,2.85,2.85,0,0,0-.44.9,3.66,3.66,0,0,0-.15,1,3.58,3.58,0,0,0,.14,1,3,3,0,0,0,.43.9,2.24,2.24,0,0,0,.71.65,2,2,0,0,0,1,.25,2,2,0,0,0,1-.24,2.33,2.33,0,0,0,.72-.63,2.8,2.8,0,0,0,.45-.89A3.54,3.54,0,0,0,65.2,188.72Z"/><path class="cls-1" d="M70.5,185.25a3.46,3.46,0,0,1,1,.13,2.53,2.53,0,0,1,.78.38,2,2,0,0,1,.56.61,2.31,2.31,0,0,1,.29.82h-.8a1.73,1.73,0,0,0-.22-.52,1.5,1.5,0,0,0-.37-.4,1.7,1.7,0,0,0-.53-.26,2.34,2.34,0,0,0-.68-.09,2,2,0,0,0-1,.23,2.19,2.19,0,0,0-.72.63,2.91,2.91,0,0,0-.44.9,3.58,3.58,0,0,0-.15,1,3.67,3.67,0,0,0,.14,1,2.88,2.88,0,0,0,.42.9,2.26,2.26,0,0,0,.71.65,2,2,0,0,0,1,.25,1.93,1.93,0,0,0,.71-.13,1.88,1.88,0,0,0,.56-.34,1.79,1.79,0,0,0,.39-.49,1.87,1.87,0,0,0,.21-.58h.8a3,3,0,0,1-.29.85,2.49,2.49,0,0,1-.55.7,2.54,2.54,0,0,1-.8.48,2.88,2.88,0,0,1-1,.18,3,3,0,0,1-1.29-.27,2.85,2.85,0,0,1-1-.74,3.28,3.28,0,0,1-.61-1.1,4.47,4.47,0,0,1,0-2.67,3.31,3.31,0,0,1,.59-1.11,2.9,2.9,0,0,1,1-.77A3,3,0,0,1,70.5,185.25Z"/><path class="cls-1" d="M79.52,192v-1.18h0a2.48,2.48,0,0,1-.39.58,2.34,2.34,0,0,1-.52.43,2.47,2.47,0,0,1-.63.27,2.73,2.73,0,0,1-.72.09,2.21,2.21,0,0,1-1.74-.63,2.64,2.64,0,0,1-.56-1.82v-4.31h.8v4.28a2.67,2.67,0,0,0,.1.76,1.43,1.43,0,0,0,.31.57,1.33,1.33,0,0,0,.54.35,2.33,2.33,0,0,0,.79.12,1.7,1.7,0,0,0,.89-.23,1.92,1.92,0,0,0,.62-.59,2.62,2.62,0,0,0,.36-.83,3.9,3.9,0,0,0,.11-.94v-3.49h.8V192Z"/><path class="cls-1" d="M87.33,190.22a1.67,1.67,0,0,1-.22.88,1.89,1.89,0,0,1-.59.62,2.74,2.74,0,0,1-.84.36,4,4,0,0,1-1,.12,3.66,3.66,0,0,1-1.07-.14,2.4,2.4,0,0,1-.8-.41,2,2,0,0,1-.53-.64,2.4,2.4,0,0,1-.25-.85h.81a1.7,1.7,0,0,0,.2.56,1.41,1.41,0,0,0,.38.43,1.8,1.8,0,0,0,.57.28,2.56,2.56,0,0,0,.74.1,3,3,0,0,0,.6-.06,2.05,2.05,0,0,0,.58-.21,1.35,1.35,0,0,0,.44-.38,1,1,0,0,0,.18-.59.93.93,0,0,0-.34-.73,2.6,2.6,0,0,0-1.13-.46l-1-.22a4,4,0,0,1-.77-.24,2.1,2.1,0,0,1-.58-.37,1.46,1.46,0,0,1-.36-.5,1.62,1.62,0,0,1-.12-.65,1.57,1.57,0,0,1,.21-.83,1.78,1.78,0,0,1,.56-.57,2.53,2.53,0,0,1,.78-.33,3.77,3.77,0,0,1,.89-.11,3.27,3.27,0,0,1,.92.12,2.29,2.29,0,0,1,.73.35,1.83,1.83,0,0,1,.5.57,2.08,2.08,0,0,1,.25.78h-.8a1.32,1.32,0,0,0-.19-.5,1.24,1.24,0,0,0-.36-.37,1.69,1.69,0,0,0-.5-.22,2.36,2.36,0,0,0-.61-.08A2.85,2.85,0,0,0,84,186a1.59,1.59,0,0,0-.51.19,1.07,1.07,0,0,0-.36.35A1,1,0,0,0,83,187a.74.74,0,0,0,.13.44,1.27,1.27,0,0,0,.33.32,1.93,1.93,0,0,0,.44.22,3.64,3.64,0,0,0,.46.13l1.37.3a2.85,2.85,0,0,1,.59.21,1.77,1.77,0,0,1,.5.35,1.64,1.64,0,0,1,.34.51A1.71,1.71,0,0,1,87.33,190.22Z"/><path class="cls-1" d="M37,255.45v3.71H42v-3.71h.81V264H42v-4.15H37V264h-.82v-8.55Z"/><path class="cls-1" d="M45.89,254.57v1.29h-.8v-1.29Zm0,2.87V264h-.8v-6.56Z"/><path class="cls-1" d="M50.67,257.25a2.29,2.29,0,0,1,.64.09,2.31,2.31,0,0,1,1.08.68,2.26,2.26,0,0,1,.37.56h0v-1.14h.8v6.1a3.27,3.27,0,0,1-.73,2.3,2.88,2.88,0,0,1-2.21.79,4.54,4.54,0,0,1-.93-.09,2.71,2.71,0,0,1-.81-.3,1.88,1.88,0,0,1-.6-.55,1.68,1.68,0,0,1-.28-.82h.8a1.24,1.24,0,0,0,.56.81,2.33,2.33,0,0,0,1.25.28,2,2,0,0,0,1.61-.61,2.66,2.66,0,0,0,.54-1.81v-1.18h0a2.53,2.53,0,0,1-.37.57,2.28,2.28,0,0,1-.5.43,2.35,2.35,0,0,1-.6.27,2.4,2.4,0,0,1-.67.09,3.16,3.16,0,0,1-1.28-.24,2.43,2.43,0,0,1-.91-.67,2.85,2.85,0,0,1-.54-1,4.64,4.64,0,0,1-.18-1.31,4,4,0,0,1,.19-1.22,3,3,0,0,1,.56-1,2.74,2.74,0,0,1,.93-.7A3,3,0,0,1,50.67,257.25Zm-2.16,3.29a3.49,3.49,0,0,0,.12,1,2.29,2.29,0,0,0,.38.8,1.87,1.87,0,0,0,.67.54,2.13,2.13,0,0,0,1,.2,1.9,1.9,0,0,0,.91-.21,2.1,2.1,0,0,0,.67-.56,2.53,2.53,0,0,0,.42-.8,3,3,0,0,0,.14-.93,3.72,3.72,0,0,0-.12-.93,2.66,2.66,0,0,0-.37-.84,2,2,0,0,0-.66-.61,1.87,1.87,0,0,0-1-.24,2,2,0,0,0-1,.22,2,2,0,0,0-.67.59,2.55,2.55,0,0,0-.39.84A3.87,3.87,0,0,0,48.51,260.54Z"/><path class="cls-1" d="M60.29,264v-4.15a2.2,2.2,0,0,0-.41-1.44,1.54,1.54,0,0,0-1.25-.49,2,2,0,0,0-.87.18,1.91,1.91,0,0,0-.65.48,2.14,2.14,0,0,0-.4.71,2.66,2.66,0,0,0-.14.87V264h-.8v-9.08h.8v3.66h0a1.89,1.89,0,0,1,.34-.56,2.12,2.12,0,0,1,.5-.42,2.43,2.43,0,0,1,.61-.26,2.46,2.46,0,0,1,.67-.09,3.35,3.35,0,0,1,1.08.16,1.83,1.83,0,0,1,.74.46,1.87,1.87,0,0,1,.43.77,3.79,3.79,0,0,1,.14,1.08V264Z"/><path class="cls-1" d="M64.09,254.92V264h-.8v-9.08Z"/><path class="cls-1" d="M67.12,254.57v1.29h-.8v-1.29Zm0,2.87V264h-.8v-6.56Z"/><path class="cls-1" d="M71.89,257.25a2.29,2.29,0,0,1,.64.09,2.31,2.31,0,0,1,1.08.68,2.26,2.26,0,0,1,.37.56h0v-1.14h.8v6.1a3.27,3.27,0,0,1-.73,2.3,2.88,2.88,0,0,1-2.21.79,4.54,4.54,0,0,1-.93-.09,2.71,2.71,0,0,1-.81-.3,1.88,1.88,0,0,1-.6-.55,1.68,1.68,0,0,1-.28-.82H70a1.24,1.24,0,0,0,.56.81,2.33,2.33,0,0,0,1.25.28,2,2,0,0,0,1.61-.61,2.66,2.66,0,0,0,.54-1.81v-1.18h0a2.53,2.53,0,0,1-.37.57,2.28,2.28,0,0,1-.5.43,2.35,2.35,0,0,1-.6.27,2.4,2.4,0,0,1-.67.09,3.16,3.16,0,0,1-1.28-.24,2.43,2.43,0,0,1-.91-.67,2.85,2.85,0,0,1-.54-1,4.64,4.64,0,0,1-.18-1.31,4,4,0,0,1,.19-1.22,3,3,0,0,1,.56-1,2.74,2.74,0,0,1,.93-.7A3,3,0,0,1,71.89,257.25Zm-2.16,3.29a3.49,3.49,0,0,0,.12,1,2.29,2.29,0,0,0,.38.8,1.87,1.87,0,0,0,.67.54,2.13,2.13,0,0,0,1,.2,1.9,1.9,0,0,0,.91-.21,2.1,2.1,0,0,0,.67-.56,2.53,2.53,0,0,0,.42-.8,3,3,0,0,0,.14-.93,3.72,3.72,0,0,0-.12-.93,2.66,2.66,0,0,0-.37-.84,2,2,0,0,0-.66-.61,1.87,1.87,0,0,0-1-.24,2,2,0,0,0-1,.22,2,2,0,0,0-.67.59,2.55,2.55,0,0,0-.39.84A3.87,3.87,0,0,0,69.74,260.54Z"/><path class="cls-1" d="M81.51,264v-4.15a2.2,2.2,0,0,0-.41-1.44,1.54,1.54,0,0,0-1.25-.49,2,2,0,0,0-.87.18,1.91,1.91,0,0,0-.65.48,2.14,2.14,0,0,0-.4.71,2.66,2.66,0,0,0-.14.87V264H77v-9.08h.8v3.66h0a1.89,1.89,0,0,1,.34-.56,2.12,2.12,0,0,1,.5-.42,2.43,2.43,0,0,1,.61-.26,2.46,2.46,0,0,1,.67-.09,3.35,3.35,0,0,1,1.08.16,1.83,1.83,0,0,1,.74.46,1.87,1.87,0,0,1,.43.77,3.79,3.79,0,0,1,.14,1.08V264Z"/><path class="cls-1" d="M87.13,264.06h-.66a3,3,0,0,1-.68-.06,1,1,0,0,1-.45-.23.89.89,0,0,1-.25-.43,2.65,2.65,0,0,1-.07-.68v-4.56H83.71v-.67H85v-2h.8v2h1.5v.67h-1.5v4.48a1.76,1.76,0,0,0,0,.34.64.64,0,0,0,.11.25.5.5,0,0,0,.21.16.87.87,0,0,0,.35.06h.6l.21,0V264Z"/><path class="cls-1" d="M40.5,327.43a4.11,4.11,0,0,1,3,1,5.51,5.51,0,0,1,0,6.52,4,4,0,0,1-2.89,1H37.64v-8.57Zm-.22,7.87a3.57,3.57,0,0,0,2.61-.83,3.76,3.76,0,0,0,.84-2.75,3.82,3.82,0,0,0-.82-2.74,3.73,3.73,0,0,0-2.75-.84H38.46v7.17Z"/><path class="cls-1" d="M47.09,326.57v1.29h-.8v-1.29Zm0,2.87V336h-.8v-6.56Z"/><path class="cls-1" d="M54.2,334.22a1.67,1.67,0,0,1-.22.88,1.89,1.89,0,0,1-.59.62,2.74,2.74,0,0,1-.84.36,4,4,0,0,1-1,.12,3.66,3.66,0,0,1-1.07-.14,2.4,2.4,0,0,1-.8-.41,2,2,0,0,1-.53-.64,2.4,2.4,0,0,1-.25-.85h.81a1.7,1.7,0,0,0,.2.56,1.41,1.41,0,0,0,.38.43,1.8,1.8,0,0,0,.57.28,2.56,2.56,0,0,0,.74.1,3,3,0,0,0,.6-.06,2.05,2.05,0,0,0,.58-.21,1.35,1.35,0,0,0,.44-.38,1,1,0,0,0,.18-.59.93.93,0,0,0-.34-.73,2.6,2.6,0,0,0-1.13-.46l-1-.22a4,4,0,0,1-.77-.24,2.1,2.1,0,0,1-.58-.37,1.46,1.46,0,0,1-.36-.5,1.62,1.62,0,0,1-.12-.65,1.57,1.57,0,0,1,.21-.83,1.78,1.78,0,0,1,.56-.57,2.53,2.53,0,0,1,.78-.33,3.77,3.77,0,0,1,.89-.11,3.27,3.27,0,0,1,.92.12,2.29,2.29,0,0,1,.73.35,1.83,1.83,0,0,1,.5.57,2.08,2.08,0,0,1,.25.78h-.8a1.32,1.32,0,0,0-.19-.5,1.24,1.24,0,0,0-.36-.37,1.69,1.69,0,0,0-.5-.22,2.36,2.36,0,0,0-.61-.08,2.85,2.85,0,0,0-.58.06,1.59,1.59,0,0,0-.51.19,1.07,1.07,0,0,0-.36.35,1,1,0,0,0-.13.53.74.74,0,0,0,.13.44,1.27,1.27,0,0,0,.33.32,1.93,1.93,0,0,0,.44.22,3.64,3.64,0,0,0,.46.13l1.37.3a2.85,2.85,0,0,1,.59.21,1.77,1.77,0,0,1,.5.35,1.64,1.64,0,0,1,.34.51A1.71,1.71,0,0,1,54.2,334.22Z"/><path class="cls-1" d="M61.63,336l-.27,0h-.24a1.37,1.37,0,0,1-.44-.06.65.65,0,0,1-.29-.2.82.82,0,0,1-.16-.35,2.43,2.43,0,0,1,0-.53h0a3,3,0,0,1-1,1,2.79,2.79,0,0,1-1.35.29,2.46,2.46,0,0,1-1.6-.5,1.75,1.75,0,0,1-.6-1.43,1.66,1.66,0,0,1,.66-1.43,6.79,6.79,0,0,1,3-.69,2,2,0,0,0,.44-.08.75.75,0,0,0,.29-.16.6.6,0,0,0,.16-.26,1.28,1.28,0,0,0,0-.38,1.24,1.24,0,0,0-.4-1,2,2,0,0,0-1.31-.34,2.61,2.61,0,0,0-.72.09,1.65,1.65,0,0,0-.53.25,1.13,1.13,0,0,0-.33.39,1.23,1.23,0,0,0-.13.49h-.8a2,2,0,0,1,.22-.78,1.78,1.78,0,0,1,.51-.59,2.43,2.43,0,0,1,.81-.38,4,4,0,0,1,1.09-.13,2.64,2.64,0,0,1,1.83.54,2,2,0,0,1,.59,1.52v3.56a.47.47,0,0,0,.11.33.46.46,0,0,0,.36.12.7.7,0,0,0,.25,0Zm-1.52-3.54h0q-.12.22-.77.31l-.67.1-.74.12a2.67,2.67,0,0,0-1.17.44,1,1,0,0,0-.39.84,1.16,1.16,0,0,0,.43.94,1.6,1.6,0,0,0,1,.35,2.36,2.36,0,0,0,1.63-.58,1.85,1.85,0,0,0,.65-1.44Z"/><path class="cls-1" d="M69.13,332.72A4.77,4.77,0,0,1,69,334a3.38,3.38,0,0,1-.53,1.11,2.69,2.69,0,0,1-.92.79,2.8,2.8,0,0,1-1.33.3,2.9,2.9,0,0,1-.72-.09,2.59,2.59,0,0,1-.66-.27,2.34,2.34,0,0,1-.55-.45,2.18,2.18,0,0,1-.4-.63h0V336h-.74v-9.08h.8v3.77h0a2,2,0,0,1,.36-.61,2.25,2.25,0,0,1,.54-.45,2.5,2.5,0,0,1,.66-.28,3,3,0,0,1,2,.18,2.62,2.62,0,0,1,.91.75,3.34,3.34,0,0,1,.55,1.1A5,5,0,0,1,69.13,332.72Zm-.8,0a4.39,4.39,0,0,0,0-.65,3.54,3.54,0,0,0-.16-.64,2.89,2.89,0,0,0-.28-.59,2.08,2.08,0,0,0-.41-.48,1.83,1.83,0,0,0-.55-.32,2,2,0,0,0-.71-.12,2.05,2.05,0,0,0-1.73.85,2.72,2.72,0,0,0-.42.89,3.94,3.94,0,0,0-.14,1.06,4.21,4.21,0,0,0,.13,1,2.67,2.67,0,0,0,.4.9,2.08,2.08,0,0,0,.71.63,2.18,2.18,0,0,0,1.06.24,1.88,1.88,0,0,0,1-.23,2,2,0,0,0,.66-.63,2.9,2.9,0,0,0,.38-.89A4.91,4.91,0,0,0,68.32,332.72Z"/><path class="cls-1" d="M71.82,326.92V336H71v-9.08Z"/><path class="cls-1" d="M76.6,329.25a2.71,2.71,0,0,1,1.3.29,2.6,2.6,0,0,1,.9.79,3.45,3.45,0,0,1,.52,1.13,5.21,5.21,0,0,1,.17,1.34v.13H74.44a3.58,3.58,0,0,0,.13.94,2.59,2.59,0,0,0,.39.83,2,2,0,0,0,.66.59,1.92,1.92,0,0,0,.95.22,2.44,2.44,0,0,0,.7-.09,2,2,0,0,0,.56-.26,1.76,1.76,0,0,0,.42-.39,2.41,2.41,0,0,0,.29-.49h.79a3,3,0,0,1-.38.79,2.48,2.48,0,0,1-.59.6,2.68,2.68,0,0,1-.79.39,3.34,3.34,0,0,1-1,.14,2.94,2.94,0,0,1-1.3-.27,2.56,2.56,0,0,1-.91-.73,3.12,3.12,0,0,1-.54-1.1,5.14,5.14,0,0,1-.18-1.37,4.66,4.66,0,0,1,.18-1.28,3.36,3.36,0,0,1,.54-1.11,2.74,2.74,0,0,1,.92-.78A2.79,2.79,0,0,1,76.6,329.25Zm2.09,3a3,3,0,0,0-.16-.85,2.44,2.44,0,0,0-.41-.75,2.07,2.07,0,0,0-.65-.54,1.84,1.84,0,0,0-.88-.21,1.84,1.84,0,0,0-1.5.7,2.7,2.7,0,0,0-.42.75,4.31,4.31,0,0,0-.23.9Z"/><path class="cls-1" d="M86.89,326.92V336h-.74v-1.25h0a2,2,0,0,1-.39.59,2.57,2.57,0,0,1-.56.45,2.8,2.8,0,0,1-.67.29,2.63,2.63,0,0,1-.72.1,2.8,2.8,0,0,1-1.28-.28,2.68,2.68,0,0,1-.92-.75,3.32,3.32,0,0,1-.56-1.11,4.68,4.68,0,0,1-.19-1.34,4.83,4.83,0,0,1,.17-1.29,3.31,3.31,0,0,1,.53-1.11,2.69,2.69,0,0,1,.92-.78,3,3,0,0,1,2-.2,2.56,2.56,0,0,1,.65.27,2.25,2.25,0,0,1,.54.45,2.07,2.07,0,0,1,.38.63h0v-3.77Zm-5.26,5.8a4.17,4.17,0,0,0,.05.65,3.7,3.7,0,0,0,.16.64,2.82,2.82,0,0,0,.28.58,2.15,2.15,0,0,0,.41.48,1.8,1.8,0,0,0,.55.32,2,2,0,0,0,.7.12,2.08,2.08,0,0,0,1.73-.84,2.66,2.66,0,0,0,.43-.89,4,4,0,0,0,.14-1.06,4,4,0,0,0-.13-1,2.73,2.73,0,0,0-.41-.9,2.06,2.06,0,0,0-1.76-.88,1.94,1.94,0,0,0-.68.11,1.8,1.8,0,0,0-.54.31,2.15,2.15,0,0,0-.41.47,2.8,2.8,0,0,0-.29.58,3.52,3.52,0,0,0-.17.65A4.25,4.25,0,0,0,81.64,332.72Z"/><path class="cls-1" d="M36.18,401.67a2.33,2.33,0,0,1-.44,1.44,1.81,1.81,0,0,1-.53.47,2.4,2.4,0,0,1-.7.27v0a2.42,2.42,0,0,1,.69.22,1.16,1.16,0,0,1,.4.34,1.8,1.8,0,0,1,.29.63,4.48,4.48,0,0,1,.11.71q0,.37,0,.77a6,6,0,0,0,.09.82,1.77,1.77,0,0,0,.08.27,2.9,2.9,0,0,0,.18.37h-.9a3.27,3.27,0,0,1-.22-1.33,3.62,3.62,0,0,0-.49-2,1.38,1.38,0,0,0-1.11-.47H30.47V408h-.82v-8.57h4a3.42,3.42,0,0,1,1,.14,2.35,2.35,0,0,1,.82.44A2,2,0,0,1,36.18,401.67Zm-.82.16a2,2,0,0,0-.13-.73,1.44,1.44,0,0,0-.36-.53,1.51,1.51,0,0,0-.57-.33,2.4,2.4,0,0,0-.74-.11H30.47v3.37h3.09a1.9,1.9,0,0,0,1.27-.46A1.51,1.51,0,0,0,35.36,401.83Z"/><path class="cls-1" d="M40.62,401.25a2.71,2.71,0,0,1,1.3.29,2.6,2.6,0,0,1,.9.79,3.45,3.45,0,0,1,.52,1.13,5.21,5.21,0,0,1,.17,1.34v.13H38.45a3.58,3.58,0,0,0,.13.94,2.59,2.59,0,0,0,.39.83,2,2,0,0,0,.66.59,1.92,1.92,0,0,0,.95.22,2.44,2.44,0,0,0,.7-.09,2,2,0,0,0,.56-.26,1.76,1.76,0,0,0,.42-.39,2.41,2.41,0,0,0,.29-.49h.79a3,3,0,0,1-.38.79,2.48,2.48,0,0,1-.59.6,2.68,2.68,0,0,1-.79.39,3.34,3.34,0,0,1-1,.14,2.94,2.94,0,0,1-1.3-.27,2.56,2.56,0,0,1-.91-.73,3.12,3.12,0,0,1-.54-1.1,5.14,5.14,0,0,1-.18-1.37,4.66,4.66,0,0,1,.18-1.28,3.36,3.36,0,0,1,.54-1.11,2.74,2.74,0,0,1,.92-.78A2.79,2.79,0,0,1,40.62,401.25Zm2.09,3a3,3,0,0,0-.16-.85,2.44,2.44,0,0,0-.41-.75,2.07,2.07,0,0,0-.65-.54,1.84,1.84,0,0,0-.88-.21,1.84,1.84,0,0,0-1.5.7,2.7,2.7,0,0,0-.42.75,4.31,4.31,0,0,0-.23.9Z"/><path class="cls-1" d="M50.85,408l-.27,0h-.24a1.37,1.37,0,0,1-.44-.06.65.65,0,0,1-.29-.2.82.82,0,0,1-.16-.35,2.43,2.43,0,0,1,0-.53h0a3,3,0,0,1-1,1,2.79,2.79,0,0,1-1.35.29,2.46,2.46,0,0,1-1.6-.5,1.75,1.75,0,0,1-.6-1.43,1.66,1.66,0,0,1,.66-1.43,6.79,6.79,0,0,1,3-.69,2,2,0,0,0,.44-.08.75.75,0,0,0,.29-.16.6.6,0,0,0,.16-.26,1.28,1.28,0,0,0,0-.38,1.24,1.24,0,0,0-.4-1,2,2,0,0,0-1.31-.34,2.61,2.61,0,0,0-.72.09,1.65,1.65,0,0,0-.53.25,1.13,1.13,0,0,0-.33.39,1.23,1.23,0,0,0-.13.49h-.8a2,2,0,0,1,.22-.78,1.78,1.78,0,0,1,.51-.59,2.43,2.43,0,0,1,.81-.38,4,4,0,0,1,1.09-.13,2.64,2.64,0,0,1,1.83.54,2,2,0,0,1,.59,1.52v3.56a.47.47,0,0,0,.11.33.46.46,0,0,0,.36.12.7.7,0,0,0,.25,0Zm-1.52-3.54h0q-.12.22-.77.31l-.67.1-.74.12a2.67,2.67,0,0,0-1.17.44,1,1,0,0,0-.39.84,1.16,1.16,0,0,0,.43.94,1.6,1.6,0,0,0,1,.35,2.36,2.36,0,0,0,1.63-.58,1.85,1.85,0,0,0,.65-1.44Z"/><path class="cls-1" d="M58,398.92V408h-.74v-1.25h0a2,2,0,0,1-.39.59,2.57,2.57,0,0,1-.56.45,2.8,2.8,0,0,1-.67.29,2.63,2.63,0,0,1-.72.1,2.8,2.8,0,0,1-1.28-.28,2.68,2.68,0,0,1-.92-.75,3.32,3.32,0,0,1-.56-1.11,4.68,4.68,0,0,1-.19-1.34,4.83,4.83,0,0,1,.17-1.29,3.31,3.31,0,0,1,.53-1.11,2.69,2.69,0,0,1,.92-.78,3,3,0,0,1,2-.2,2.56,2.56,0,0,1,.65.27,2.25,2.25,0,0,1,.54.45,2.07,2.07,0,0,1,.38.63h0v-3.77Zm-5.26,5.8a4.17,4.17,0,0,0,.05.65A3.7,3.7,0,0,0,53,406a2.82,2.82,0,0,0,.28.58,2.15,2.15,0,0,0,.41.48,1.8,1.8,0,0,0,.55.32,2,2,0,0,0,.7.12,2.08,2.08,0,0,0,1.73-.84,2.66,2.66,0,0,0,.43-.89,4,4,0,0,0,.14-1.06,4,4,0,0,0-.13-1,2.73,2.73,0,0,0-.41-.9,2.06,2.06,0,0,0-1.76-.88,1.94,1.94,0,0,0-.68.11,1.8,1.8,0,0,0-.54.31,2.15,2.15,0,0,0-.41.47,2.8,2.8,0,0,0-.29.58,3.52,3.52,0,0,0-.17.65A4.25,4.25,0,0,0,52.76,404.72Z"/><path class="cls-1" d="M62.84,404.16v.7h-3v-.7Z"/><path class="cls-1" d="M70.47,404.72a4.29,4.29,0,0,1-.2,1.31,3.31,3.31,0,0,1-.61,1.13,2.9,2.9,0,0,1-2.29,1,2.84,2.84,0,0,1-2.24-1,4.07,4.07,0,0,1,0-5,3.08,3.08,0,0,1,4.51,0A3.65,3.65,0,0,1,70.47,404.72Zm-.8,0a3.8,3.8,0,0,0-.13-1,2.81,2.81,0,0,0-.42-.9,2.25,2.25,0,0,0-.72-.65,2,2,0,0,0-1-.25,2,2,0,0,0-1,.24,2.24,2.24,0,0,0-.72.64,2.85,2.85,0,0,0-.44.9,3.66,3.66,0,0,0-.15,1,3.58,3.58,0,0,0,.14,1,3,3,0,0,0,.43.9,2.24,2.24,0,0,0,.71.65,2,2,0,0,0,1,.25,2,2,0,0,0,1-.24,2.33,2.33,0,0,0,.72-.63,2.8,2.8,0,0,0,.45-.89A3.54,3.54,0,0,0,69.67,404.72Z"/><path class="cls-1" d="M75.19,401.25a3.35,3.35,0,0,1,1.08.16,1.83,1.83,0,0,1,.74.46,1.87,1.87,0,0,1,.43.77,3.79,3.79,0,0,1,.14,1.08V408h-.8v-4.15a2.2,2.2,0,0,0-.41-1.44,1.54,1.54,0,0,0-1.25-.49,2.07,2.07,0,0,0-.86.17,1.88,1.88,0,0,0-.65.48,2.16,2.16,0,0,0-.41.71,2.63,2.63,0,0,0-.14.88V408h-.8v-6.56h.8v1.14h0a2,2,0,0,1,.35-.56,2.18,2.18,0,0,1,.49-.42,2.33,2.33,0,0,1,.6-.26A2.48,2.48,0,0,1,75.19,401.25Z"/><path class="cls-1" d="M80.58,398.92V408h-.8v-9.08Z"/><path class="cls-1" d="M82.77,401.44,84.93,407h0l2-5.59h.8l-2.83,7.5q-.13.33-.26.61a1.7,1.7,0,0,1-.32.47,1.3,1.3,0,0,1-.46.3,1.88,1.88,0,0,1-.69.11,3.17,3.17,0,0,1-.63-.06v-.68a1.29,1.29,0,0,0,.28.06h.27a1.08,1.08,0,0,0,.48-.09.9.9,0,0,0,.34-.3,2.86,2.86,0,0,0,.28-.55l.33-.83-2.62-6.54Z"/><rect class="cls-2" x="101.5" y="241.5" width="179" height="35"/><path class="cls-3" d="M280,242v34H102V242H280m1-1H101v36H281V241Z"/><rect class="cls-4" x="161" y="248" width="72" height="22"/><rect class="cls-2" x="101.5" y="25.5" width="179" height="35"/><path class="cls-5" d="M280,26V60H102V26H280m1-1H101V61H281V25Z"/><g class="cls-6"><path class="cls-7" d="M121.25,38.37v1.27h-4.72v2.28h4.37v1.19h-4.37v2.56h4.8v1.26H115V38.37Z"/><path class="cls-7" d="M131,46.93v-4a3.44,3.44,0,0,0-.05-.62,1.26,1.26,0,0,0-.19-.49,1,1,0,0,0-.39-.32,1.48,1.48,0,0,0-.63-.12,1.24,1.24,0,0,0-1.06.47,2.29,2.29,0,0,0-.35,1.38v3.74h-1.45V42.72a1.64,1.64,0,0,0-.28-1,1.1,1.1,0,0,0-.91-.35,1.34,1.34,0,0,0-1.08.48,2,2,0,0,0-.4,1.31v3.81h-1.45V40.35h1.36v1h0a2.31,2.31,0,0,1,2.06-1.15,2.27,2.27,0,0,1,1.2.3,1.71,1.71,0,0,1,.71.86,2.45,2.45,0,0,1,.87-.86,2.21,2.21,0,0,1,3.47,2v4.48Z"/><path class="cls-7" d="M140.9,43.69a4.55,4.55,0,0,1-.08.85,4.15,4.15,0,0,1-.23.8,3.31,3.31,0,0,1-.4.71,2.59,2.59,0,0,1-.57.57,2.64,2.64,0,0,1-.73.37,2.87,2.87,0,0,1-.91.13,2.61,2.61,0,0,1-.63-.08,2.42,2.42,0,0,1-.58-.22,2.29,2.29,0,0,1-.5-.36,2,2,0,0,1-.38-.5h0v3.33h-1.44V40.35h1.37v1h0a2.08,2.08,0,0,1,.86-.88,2.59,2.59,0,0,1,1.23-.29,2.88,2.88,0,0,1,1.31.28,2.67,2.67,0,0,1,.93.76,3.3,3.3,0,0,1,.55,1.12A4.85,4.85,0,0,1,140.9,43.69Zm-1.45,0a3.92,3.92,0,0,0-.09-.83,2.38,2.38,0,0,0-.3-.76,1.72,1.72,0,0,0-.56-.56,1.57,1.57,0,0,0-.85-.22,1.6,1.6,0,0,0-1.35.61,2.82,2.82,0,0,0-.47,1.75,3.62,3.62,0,0,0,.1.84,2.34,2.34,0,0,0,.32.75,1.73,1.73,0,0,0,.57.54,1.64,1.64,0,0,0,.85.21,1.56,1.56,0,0,0,1.33-.66,2.17,2.17,0,0,0,.34-.74A3.75,3.75,0,0,0,139.45,43.65Z"/><path class="cls-7" d="M145.75,47h-.83a4.59,4.59,0,0,1-.74-.06,1.58,1.58,0,0,1-.6-.22,1.12,1.12,0,0,1-.4-.45,1.67,1.67,0,0,1-.15-.76V41.37h-1.29v-1H143v-2h1.45v2H146v1h-1.5V45.1a.83.83,0,0,0,.17.58.8.8,0,0,0,.59.18h.57l.17,0V47Z"/><path class="cls-7" d="M148.06,40.35l1.73,5h0l1.64-5h1.49l-2.81,7.52a3,3,0,0,1-.29.59,1.79,1.79,0,0,1-.4.44,1.71,1.71,0,0,1-.54.28,2.43,2.43,0,0,1-.72.1l-.54,0-.46,0V48l.45.05H148a1,1,0,0,0,.4-.07.76.76,0,0,0,.28-.21,1.39,1.39,0,0,0,.21-.36q.09-.22.18-.52l-2.53-6.57Z"/><path class="cls-7" d="M160.76,47h-.83a4.59,4.59,0,0,1-.74-.06,1.58,1.58,0,0,1-.6-.22,1.12,1.12,0,0,1-.4-.45,1.67,1.67,0,0,1-.15-.76V41.37h-1.29v-1H158v-2h1.45v2H161v1h-1.5V45.1a.83.83,0,0,0,.17.58.8.8,0,0,0,.59.18h.57l.17,0V47Z"/><path class="cls-7" d="M165.15,40.18a3,3,0,0,1,1.34.28,2.78,2.78,0,0,1,1,.77,3.33,3.33,0,0,1,.58,1.13,4.76,4.76,0,0,1,.19,1.37V44h-4.85a2.77,2.77,0,0,0,.13.81,1.9,1.9,0,0,0,.35.63,1.55,1.55,0,0,0,.54.41,1.7,1.7,0,0,0,.72.15,1.9,1.9,0,0,0,1-.23,1.7,1.7,0,0,0,.61-.6h1.37a3.06,3.06,0,0,1-.45.81,2.83,2.83,0,0,1-.66.62,3,3,0,0,1-.85.39,3.66,3.66,0,0,1-1,.13,3.28,3.28,0,0,1-1.33-.26,2.82,2.82,0,0,1-1-.72,3.18,3.18,0,0,1-.62-1.1,4.31,4.31,0,0,1-.22-1.4,4,4,0,0,1,.22-1.33,3.3,3.3,0,0,1,.63-1.1,3,3,0,0,1,1-.76A3.16,3.16,0,0,1,165.15,40.18ZM166.79,43a2.77,2.77,0,0,0-.16-.71,1.73,1.73,0,0,0-.33-.55,1.43,1.43,0,0,0-.5-.35,1.91,1.91,0,0,0-1.37,0,1.51,1.51,0,0,0-.52.36,1.79,1.79,0,0,0-.35.55,2.54,2.54,0,0,0-.17.7Z"/><path class="cls-7" d="M170.6,40.35l1.41,2,1.39-2H175l-2.23,3.11,2.47,3.47h-1.69L172,44.61l-1.61,2.32h-1.66l2.43-3.44-2.23-3.13Z"/><path class="cls-7" d="M179.63,47h-.83a4.59,4.59,0,0,1-.74-.06,1.58,1.58,0,0,1-.6-.22,1.12,1.12,0,0,1-.4-.45,1.67,1.67,0,0,1-.15-.76V41.37h-1.29v-1h1.29v-2h1.45v2h1.5v1h-1.5V45.1a.83.83,0,0,0,.17.58.8.8,0,0,0,.59.18h.57l.17,0V47Z"/><path class="cls-7" d="M186.67,41.37v5.55h-1.45V41.37h-1.28v-1h1.28v-.51a2,2,0,0,1,.52-1.52,1.64,1.64,0,0,1,.63-.36,3,3,0,0,1,.9-.12h.43l.52,0V39l-.18,0-.2,0h-.34a.86.86,0,0,0-.65.2,1,1,0,0,0-.18.68v.51h1.44v1Zm3.87-3.88v1.42H189.1V37.5Zm0,2.86v6.57H189.1V40.35Z"/><path class="cls-7" d="M195.33,40.18a3,3,0,0,1,1.34.28,2.78,2.78,0,0,1,1,.77,3.33,3.33,0,0,1,.58,1.13,4.76,4.76,0,0,1,.19,1.37V44h-4.85a2.77,2.77,0,0,0,.13.81,1.9,1.9,0,0,0,.35.63,1.55,1.55,0,0,0,.54.41,1.7,1.7,0,0,0,.72.15,1.9,1.9,0,0,0,1-.23,1.7,1.7,0,0,0,.61-.6h1.37a3.06,3.06,0,0,1-.45.81,2.83,2.83,0,0,1-.66.62,3,3,0,0,1-.85.39,3.66,3.66,0,0,1-1,.13,3.28,3.28,0,0,1-1.33-.26,2.82,2.82,0,0,1-1-.72,3.18,3.18,0,0,1-.62-1.1,4.31,4.31,0,0,1-.22-1.4,4,4,0,0,1,.22-1.33,3.3,3.3,0,0,1,.63-1.1,3,3,0,0,1,1-.76A3.16,3.16,0,0,1,195.33,40.18ZM197,43a2.77,2.77,0,0,0-.16-.71,1.73,1.73,0,0,0-.33-.55,1.43,1.43,0,0,0-.5-.35,1.91,1.91,0,0,0-1.37,0,1.51,1.51,0,0,0-.52.36,1.79,1.79,0,0,0-.35.55,2.54,2.54,0,0,0-.17.7Z"/><path class="cls-7" d="M201.42,37.85v9.08H200V37.85Z"/><path class="cls-7" d="M209.51,37.85v9.08h-1.37v-1h0a2.07,2.07,0,0,1-.37.5,2.16,2.16,0,0,1-.49.37,2.44,2.44,0,0,1-.59.23,2.79,2.79,0,0,1-.67.08,2.72,2.72,0,0,1-1.28-.29,2.76,2.76,0,0,1-.92-.77,3.38,3.38,0,0,1-.56-1.12,4.69,4.69,0,0,1-.19-1.33,4.52,4.52,0,0,1,.18-1.26,3.34,3.34,0,0,1,.54-1.1,2.75,2.75,0,0,1,.91-.77,2.91,2.91,0,0,1,1.92-.22,2.49,2.49,0,0,1,.58.21,2.07,2.07,0,0,1,.49.35,2,2,0,0,1,.37.5h0V37.85Zm-5,5.79a3.63,3.63,0,0,0,.1.82,2.44,2.44,0,0,0,.31.76,1.81,1.81,0,0,0,.56.56,1.5,1.5,0,0,0,.83.22,1.73,1.73,0,0,0,.79-.17,1.58,1.58,0,0,0,.57-.49,2.25,2.25,0,0,0,.35-.75,3.68,3.68,0,0,0,.12-1,3.73,3.73,0,0,0-.1-.84,2.3,2.3,0,0,0-.31-.75,1.72,1.72,0,0,0-.57-.54,1.64,1.64,0,0,0-.85-.21,1.56,1.56,0,0,0-.82.2,1.7,1.7,0,0,0-.55.53,2.35,2.35,0,0,0-.32.75A3.93,3.93,0,0,0,204.49,43.64Z"/><path class="cls-7" d="M216.4,37.85v9.08H215V37.85Z"/><path class="cls-7" d="M224.48,46.93,224,47l-.39,0a1.79,1.79,0,0,1-.42,0,.91.91,0,0,1-.34-.16.84.84,0,0,1-.24-.29,1.28,1.28,0,0,1-.12-.45h0a2.67,2.67,0,0,1-.45.46,2.3,2.3,0,0,1-.52.31,3.32,3.32,0,0,1-1.31.24,2.42,2.42,0,0,1-1.62-.51,1.77,1.77,0,0,1-.6-1.45,1.7,1.7,0,0,1,.6-1.42,2.11,2.11,0,0,1,.58-.32,4.68,4.68,0,0,1,.73-.2q.39-.08.82-.13l.87-.1.34-.07a.8.8,0,0,0,.27-.13.59.59,0,0,0,.17-.22.79.79,0,0,0,.06-.33,1,1,0,0,0-.31-.79,2.11,2.11,0,0,0-2.05,0,1,1,0,0,0-.39.73h-1.45a2,2,0,0,1,.28-.9,2,2,0,0,1,.62-.62,2.88,2.88,0,0,1,.9-.36,5.08,5.08,0,0,1,1.13-.12,3.42,3.42,0,0,1,2,.5,1.65,1.65,0,0,1,.67,1.41v3.54a.47.47,0,0,0,.08.3.33.33,0,0,0,.27.1h.12l.13,0Zm-2-3.35h0a1,1,0,0,1-.54.23l-.48.08-.65.11a2.2,2.2,0,0,0-1,.37.87.87,0,0,0-.32.72.89.89,0,0,0,.37.76,1.48,1.48,0,0,0,.87.24,1.79,1.79,0,0,0,1.27-.43,1.59,1.59,0,0,0,.49-1.24Z"/><path class="cls-7" d="M232.27,43.64a4.85,4.85,0,0,1-.17,1.28,3.47,3.47,0,0,1-.52,1.11,2.65,2.65,0,0,1-.88.79,2.51,2.51,0,0,1-1.25.3,2.93,2.93,0,0,1-1.36-.3,1.9,1.9,0,0,1-.86-.87h0v1h-1.37V37.85h1.44v3.47h0a1.88,1.88,0,0,1,.36-.47,2.16,2.16,0,0,1,.5-.36,2.68,2.68,0,0,1,.61-.23,2.85,2.85,0,0,1,.68-.08,2.52,2.52,0,0,1,1.24.29,2.66,2.66,0,0,1,.88.78,3.4,3.4,0,0,1,.52,1.11A4.87,4.87,0,0,1,232.27,43.64Zm-1.45,0a3.74,3.74,0,0,0-.09-.82,2.52,2.52,0,0,0-.3-.76,1.71,1.71,0,0,0-.54-.56,1.5,1.5,0,0,0-.83-.22,1.57,1.57,0,0,0-.82.21,1.71,1.71,0,0,0-.56.54,2.39,2.39,0,0,0-.32.75,3.63,3.63,0,0,0-.1.86,3.68,3.68,0,0,0,.1.83,2.37,2.37,0,0,0,.31.76,1.76,1.76,0,0,0,.56.55,1.57,1.57,0,0,0,.84.21,1.49,1.49,0,0,0,.8-.21,1.69,1.69,0,0,0,.54-.54,2.43,2.43,0,0,0,.31-.75A3.94,3.94,0,0,0,230.82,43.65Z"/><path class="cls-7" d="M236.73,40.18a3,3,0,0,1,1.34.28,2.78,2.78,0,0,1,1,.77,3.33,3.33,0,0,1,.58,1.13,4.76,4.76,0,0,1,.19,1.37V44H235a2.77,2.77,0,0,0,.13.81,1.9,1.9,0,0,0,.35.63,1.55,1.55,0,0,0,.54.41,1.7,1.7,0,0,0,.72.15,1.9,1.9,0,0,0,1-.23,1.7,1.7,0,0,0,.61-.6h1.37a3.06,3.06,0,0,1-.45.81,2.83,2.83,0,0,1-.66.62,3,3,0,0,1-.85.39,3.66,3.66,0,0,1-1,.13,3.28,3.28,0,0,1-1.33-.26,2.82,2.82,0,0,1-1-.72,3.18,3.18,0,0,1-.62-1.1,4.31,4.31,0,0,1-.22-1.4,4,4,0,0,1,.22-1.33,3.3,3.3,0,0,1,.63-1.1,3,3,0,0,1,1-.76A3.16,3.16,0,0,1,236.73,40.18ZM238.37,43a2.77,2.77,0,0,0-.16-.71,1.73,1.73,0,0,0-.33-.55,1.43,1.43,0,0,0-.5-.35,1.91,1.91,0,0,0-1.37,0,1.51,1.51,0,0,0-.52.36,1.79,1.79,0,0,0-.35.55,2.54,2.54,0,0,0-.17.7Z"/><path class="cls-7" d="M242.81,37.85v9.08h-1.45V37.85Z"/></g><path class="cls-8" d="M103.95,8.43V16.3h4.8V17h-5.62V8.43Z"/><path class="cls-8" d="M115.55,17l-.27,0H115a1.37,1.37,0,0,1-.44-.06.65.65,0,0,1-.29-.2.82.82,0,0,1-.16-.35,2.43,2.43,0,0,1,0-.53h0a3,3,0,0,1-1,1,2.79,2.79,0,0,1-1.35.29,2.46,2.46,0,0,1-1.6-.5,1.75,1.75,0,0,1-.6-1.43,1.66,1.66,0,0,1,.66-1.43,6.79,6.79,0,0,1,3-.69,2,2,0,0,0,.44-.08.75.75,0,0,0,.29-.16.6.6,0,0,0,.16-.26,1.28,1.28,0,0,0,0-.38,1.24,1.24,0,0,0-.4-1,2,2,0,0,0-1.31-.34,2.61,2.61,0,0,0-.72.09,1.65,1.65,0,0,0-.53.25,1.13,1.13,0,0,0-.33.39,1.23,1.23,0,0,0-.13.49h-.8a2,2,0,0,1,.22-.78,1.78,1.78,0,0,1,.51-.59,2.43,2.43,0,0,1,.81-.38,4,4,0,0,1,1.09-.13,2.64,2.64,0,0,1,1.83.54,2,2,0,0,1,.59,1.52v3.56a.47.47,0,0,0,.11.33.46.46,0,0,0,.36.12.7.7,0,0,0,.25,0ZM114,13.41h0q-.12.22-.77.31l-.67.1-.74.12a2.67,2.67,0,0,0-1.17.44,1,1,0,0,0-.39.84,1.16,1.16,0,0,0,.43.94,1.6,1.6,0,0,0,1,.35,2.36,2.36,0,0,0,1.63-.58,1.85,1.85,0,0,0,.65-1.44Z"/><path class="cls-8" d="M123,13.72a4.77,4.77,0,0,1-.17,1.28,3.38,3.38,0,0,1-.53,1.11,2.69,2.69,0,0,1-.92.79,2.8,2.8,0,0,1-1.33.3,2.9,2.9,0,0,1-.72-.09,2.59,2.59,0,0,1-.66-.27,2.34,2.34,0,0,1-.55-.45,2.18,2.18,0,0,1-.4-.63h0V17H117V7.92h.8v3.77h0a2,2,0,0,1,.36-.61,2.25,2.25,0,0,1,.54-.45,2.5,2.5,0,0,1,.66-.28,3,3,0,0,1,2,.18,2.62,2.62,0,0,1,.91.75,3.34,3.34,0,0,1,.55,1.1A5,5,0,0,1,123,13.72Zm-.8,0a4.39,4.39,0,0,0,0-.65,3.54,3.54,0,0,0-.16-.64,2.89,2.89,0,0,0-.28-.59,2.08,2.08,0,0,0-.41-.48,1.83,1.83,0,0,0-.55-.32,2,2,0,0,0-.71-.12,2.05,2.05,0,0,0-1.73.85,2.72,2.72,0,0,0-.42.89,3.94,3.94,0,0,0-.14,1.06,4.21,4.21,0,0,0,.13,1,2.67,2.67,0,0,0,.4.9,2.08,2.08,0,0,0,.71.63,2.18,2.18,0,0,0,1.06.24,1.88,1.88,0,0,0,1-.23,2,2,0,0,0,.66-.63,2.9,2.9,0,0,0,.38-.89A4.91,4.91,0,0,0,122.24,13.72Z"/><path class="cls-8" d="M127.48,10.25a2.71,2.71,0,0,1,1.3.29,2.6,2.6,0,0,1,.9.79,3.45,3.45,0,0,1,.52,1.13,5.21,5.21,0,0,1,.17,1.34v.13h-5.05a3.58,3.58,0,0,0,.13.94,2.59,2.59,0,0,0,.39.83,2,2,0,0,0,.66.59,1.92,1.92,0,0,0,.95.22,2.44,2.44,0,0,0,.7-.09,2,2,0,0,0,.56-.26,1.76,1.76,0,0,0,.42-.39,2.41,2.41,0,0,0,.29-.49h.79a3,3,0,0,1-.38.79,2.48,2.48,0,0,1-.59.6,2.68,2.68,0,0,1-.79.39,3.34,3.34,0,0,1-1,.14,2.94,2.94,0,0,1-1.3-.27,2.56,2.56,0,0,1-.91-.73,3.12,3.12,0,0,1-.54-1.1,5.14,5.14,0,0,1-.18-1.37,4.66,4.66,0,0,1,.18-1.28,3.36,3.36,0,0,1,.54-1.11,2.74,2.74,0,0,1,.92-.78A2.79,2.79,0,0,1,127.48,10.25Zm2.09,3a3,3,0,0,0-.16-.85,2.44,2.44,0,0,0-.41-.75,2.07,2.07,0,0,0-.65-.54,1.84,1.84,0,0,0-.88-.21,1.84,1.84,0,0,0-1.5.7,2.7,2.7,0,0,0-.42.75,4.31,4.31,0,0,0-.23.9Z"/><path class="cls-8" d="M132.87,7.92V17h-.8V7.92Z"/><rect class="cls-9" x="101.5" y="313.5" width="179" height="35"/><path class="cls-10" d="M280,314v34H102V314H280m1-1H101v36H281V313Z"/><g class="cls-6"><path class="cls-7" d="M121.25,326.37v1.27h-4.72v2.28h4.37v1.19h-4.37v2.56h4.8v1.26H115v-8.55Z"/><path class="cls-7" d="M131,334.93v-4a3.44,3.44,0,0,0-.05-.62,1.26,1.26,0,0,0-.19-.49,1,1,0,0,0-.39-.32,1.48,1.48,0,0,0-.63-.12,1.24,1.24,0,0,0-1.06.47,2.29,2.29,0,0,0-.35,1.38v3.74h-1.45v-4.21a1.64,1.64,0,0,0-.28-1,1.1,1.1,0,0,0-.91-.35,1.34,1.34,0,0,0-1.08.48,2,2,0,0,0-.4,1.31v3.81h-1.45v-6.57h1.36v1h0a2.31,2.31,0,0,1,2.06-1.15,2.27,2.27,0,0,1,1.2.3,1.71,1.71,0,0,1,.71.86,2.45,2.45,0,0,1,.87-.86,2.21,2.21,0,0,1,3.47,2v4.48Z"/><path class="cls-7" d="M140.9,331.69a4.55,4.55,0,0,1-.08.85,4.15,4.15,0,0,1-.23.8,3.31,3.31,0,0,1-.4.71,2.59,2.59,0,0,1-.57.57,2.64,2.64,0,0,1-.73.37,2.87,2.87,0,0,1-.91.13,2.61,2.61,0,0,1-.63-.08,2.42,2.42,0,0,1-.58-.22,2.29,2.29,0,0,1-.5-.36,2,2,0,0,1-.38-.5h0v3.33h-1.44v-8.93h1.37v1h0a2.08,2.08,0,0,1,.86-.88,2.59,2.59,0,0,1,1.23-.29,2.88,2.88,0,0,1,1.31.28,2.67,2.67,0,0,1,.93.76,3.3,3.3,0,0,1,.55,1.12A4.85,4.85,0,0,1,140.9,331.69Zm-1.45,0a3.92,3.92,0,0,0-.09-.83,2.38,2.38,0,0,0-.3-.76,1.72,1.72,0,0,0-.56-.56,1.57,1.57,0,0,0-.85-.22,1.6,1.6,0,0,0-1.35.61,2.82,2.82,0,0,0-.47,1.75,3.62,3.62,0,0,0,.1.84,2.34,2.34,0,0,0,.32.75,1.73,1.73,0,0,0,.57.54,1.64,1.64,0,0,0,.85.21,1.56,1.56,0,0,0,1.33-.66,2.17,2.17,0,0,0,.34-.74A3.75,3.75,0,0,0,139.45,331.65Z"/><path class="cls-7" d="M145.75,335h-.83a4.59,4.59,0,0,1-.74-.06,1.58,1.58,0,0,1-.6-.22,1.12,1.12,0,0,1-.4-.45,1.67,1.67,0,0,1-.15-.76v-4.15h-1.29v-1H143v-2h1.45v2H146v1h-1.5v3.72a.83.83,0,0,0,.17.58.8.8,0,0,0,.59.18h.57l.17,0V335Z"/><path class="cls-7" d="M148.06,328.35l1.73,5h0l1.64-5h1.49l-2.81,7.52a3,3,0,0,1-.29.59,1.79,1.79,0,0,1-.4.44,1.71,1.71,0,0,1-.54.28,2.43,2.43,0,0,1-.72.1l-.54,0-.46,0V336l.45.05H148a1,1,0,0,0,.4-.07.76.76,0,0,0,.28-.21,1.39,1.39,0,0,0,.21-.36q.09-.22.18-.52l-2.53-6.57Z"/><path class="cls-7" d="M160.76,335h-.83a4.59,4.59,0,0,1-.74-.06,1.58,1.58,0,0,1-.6-.22,1.12,1.12,0,0,1-.4-.45,1.67,1.67,0,0,1-.15-.76v-4.15h-1.29v-1H158v-2h1.45v2H161v1h-1.5v3.72a.83.83,0,0,0,.17.58.8.8,0,0,0,.59.18h.57l.17,0V335Z"/><path class="cls-7" d="M165.15,328.18a3,3,0,0,1,1.34.28,2.78,2.78,0,0,1,1,.77,3.33,3.33,0,0,1,.58,1.13,4.76,4.76,0,0,1,.19,1.37V332h-4.85a2.77,2.77,0,0,0,.13.81,1.9,1.9,0,0,0,.35.63,1.55,1.55,0,0,0,.54.41,1.7,1.7,0,0,0,.72.15,1.9,1.9,0,0,0,1-.23,1.7,1.7,0,0,0,.61-.6h1.37a3.06,3.06,0,0,1-.45.81,2.83,2.83,0,0,1-.66.62,3,3,0,0,1-.85.39,3.66,3.66,0,0,1-1,.13,3.28,3.28,0,0,1-1.33-.26,2.82,2.82,0,0,1-1-.72,3.18,3.18,0,0,1-.62-1.1,4.31,4.31,0,0,1-.22-1.4,4,4,0,0,1,.22-1.33,3.3,3.3,0,0,1,.63-1.1,3,3,0,0,1,1-.76A3.16,3.16,0,0,1,165.15,328.18Zm1.63,2.85a2.77,2.77,0,0,0-.16-.71,1.73,1.73,0,0,0-.33-.55,1.43,1.43,0,0,0-.5-.35,1.91,1.91,0,0,0-1.37,0,1.51,1.51,0,0,0-.52.36,1.79,1.79,0,0,0-.35.55,2.54,2.54,0,0,0-.17.7Z"/><path class="cls-7" d="M170.6,328.35l1.41,2,1.39-2H175l-2.23,3.11,2.47,3.47h-1.69L172,332.61l-1.61,2.32h-1.66l2.43-3.44-2.23-3.13Z"/><path class="cls-7" d="M179.63,335h-.83a4.59,4.59,0,0,1-.74-.06,1.58,1.58,0,0,1-.6-.22,1.12,1.12,0,0,1-.4-.45,1.67,1.67,0,0,1-.15-.76v-4.15h-1.29v-1h1.29v-2h1.45v2h1.5v1h-1.5v3.72a.83.83,0,0,0,.17.58.8.8,0,0,0,.59.18h.57l.17,0V335Z"/><path class="cls-7" d="M186.67,329.37v5.55h-1.45v-5.55h-1.28v-1h1.28v-.51a2,2,0,0,1,.52-1.52,1.64,1.64,0,0,1,.63-.36,3,3,0,0,1,.9-.12h.43l.52,0V327l-.18,0-.2,0h-.34a.86.86,0,0,0-.65.2,1,1,0,0,0-.18.68v.51h1.44v1Zm3.87-3.88v1.42H189.1V325.5Zm0,2.86v6.57H189.1v-6.57Z"/><path class="cls-7" d="M195.33,328.18a3,3,0,0,1,1.34.28,2.78,2.78,0,0,1,1,.77,3.33,3.33,0,0,1,.58,1.13,4.76,4.76,0,0,1,.19,1.37V332h-4.85a2.77,2.77,0,0,0,.13.81,1.9,1.9,0,0,0,.35.63,1.55,1.55,0,0,0,.54.41,1.7,1.7,0,0,0,.72.15,1.9,1.9,0,0,0,1-.23,1.7,1.7,0,0,0,.61-.6h1.37a3.06,3.06,0,0,1-.45.81,2.83,2.83,0,0,1-.66.62,3,3,0,0,1-.85.39,3.66,3.66,0,0,1-1,.13,3.28,3.28,0,0,1-1.33-.26,2.82,2.82,0,0,1-1-.72,3.18,3.18,0,0,1-.62-1.1,4.31,4.31,0,0,1-.22-1.4,4,4,0,0,1,.22-1.33,3.3,3.3,0,0,1,.63-1.1,3,3,0,0,1,1-.76A3.16,3.16,0,0,1,195.33,328.18ZM197,331a2.77,2.77,0,0,0-.16-.71,1.73,1.73,0,0,0-.33-.55,1.43,1.43,0,0,0-.5-.35,1.91,1.91,0,0,0-1.37,0,1.51,1.51,0,0,0-.52.36,1.79,1.79,0,0,0-.35.55,2.54,2.54,0,0,0-.17.7Z"/><path class="cls-7" d="M201.42,325.85v9.08H200v-9.08Z"/><path class="cls-7" d="M209.51,325.85v9.08h-1.37v-1h0a2.07,2.07,0,0,1-.37.5,2.16,2.16,0,0,1-.49.37,2.44,2.44,0,0,1-.59.23,2.79,2.79,0,0,1-.67.08,2.72,2.72,0,0,1-1.28-.29,2.76,2.76,0,0,1-.92-.77,3.38,3.38,0,0,1-.56-1.12,4.69,4.69,0,0,1-.19-1.33,4.52,4.52,0,0,1,.18-1.26,3.34,3.34,0,0,1,.54-1.1,2.75,2.75,0,0,1,.91-.77,2.91,2.91,0,0,1,1.92-.22,2.49,2.49,0,0,1,.58.21,2.07,2.07,0,0,1,.49.35,2,2,0,0,1,.37.5h0v-3.47Zm-5,5.79a3.63,3.63,0,0,0,.1.82,2.44,2.44,0,0,0,.31.76,1.81,1.81,0,0,0,.56.56,1.5,1.5,0,0,0,.83.22,1.73,1.73,0,0,0,.79-.17,1.58,1.58,0,0,0,.57-.49,2.25,2.25,0,0,0,.35-.75,3.68,3.68,0,0,0,.12-1,3.73,3.73,0,0,0-.1-.84,2.3,2.3,0,0,0-.31-.75,1.72,1.72,0,0,0-.57-.54,1.64,1.64,0,0,0-.85-.21,1.56,1.56,0,0,0-.82.2,1.7,1.7,0,0,0-.55.53,2.35,2.35,0,0,0-.32.75A3.93,3.93,0,0,0,204.49,331.64Z"/><path class="cls-7" d="M216.4,325.85v9.08H215v-9.08Z"/><path class="cls-7" d="M224.48,334.93,224,335l-.39,0a1.79,1.79,0,0,1-.42,0,.91.91,0,0,1-.34-.16.84.84,0,0,1-.24-.29,1.28,1.28,0,0,1-.12-.45h0a2.67,2.67,0,0,1-.45.46,2.3,2.3,0,0,1-.52.31,3.32,3.32,0,0,1-1.31.24,2.42,2.42,0,0,1-1.62-.51,1.77,1.77,0,0,1-.6-1.45,1.7,1.7,0,0,1,.6-1.42,2.11,2.11,0,0,1,.58-.32,4.68,4.68,0,0,1,.73-.2q.39-.08.82-.13l.87-.1.34-.07a.8.8,0,0,0,.27-.13.59.59,0,0,0,.17-.22.79.79,0,0,0,.06-.33,1,1,0,0,0-.31-.79,2.11,2.11,0,0,0-2.05,0,1,1,0,0,0-.39.73h-1.45a2,2,0,0,1,.28-.9,2,2,0,0,1,.62-.62,2.88,2.88,0,0,1,.9-.36,5.08,5.08,0,0,1,1.13-.12,3.42,3.42,0,0,1,2,.5,1.65,1.65,0,0,1,.67,1.41v3.54a.47.47,0,0,0,.08.3.33.33,0,0,0,.27.1h.12l.13,0Zm-2-3.35h0a1,1,0,0,1-.54.23l-.48.08-.65.11a2.2,2.2,0,0,0-1,.37.87.87,0,0,0-.32.72.89.89,0,0,0,.37.76,1.48,1.48,0,0,0,.87.24,1.79,1.79,0,0,0,1.27-.43,1.59,1.59,0,0,0,.49-1.24Z"/><path class="cls-7" d="M232.27,331.64a4.85,4.85,0,0,1-.17,1.28,3.47,3.47,0,0,1-.52,1.11,2.65,2.65,0,0,1-.88.79,2.51,2.51,0,0,1-1.25.3,2.93,2.93,0,0,1-1.36-.3,1.9,1.9,0,0,1-.86-.87h0v1h-1.37v-9.08h1.44v3.47h0a1.88,1.88,0,0,1,.36-.47,2.16,2.16,0,0,1,.5-.36,2.68,2.68,0,0,1,.61-.23,2.85,2.85,0,0,1,.68-.08,2.52,2.52,0,0,1,1.24.29,2.66,2.66,0,0,1,.88.78,3.4,3.4,0,0,1,.52,1.11A4.87,4.87,0,0,1,232.27,331.64Zm-1.45,0a3.74,3.74,0,0,0-.09-.82,2.52,2.52,0,0,0-.3-.76,1.71,1.71,0,0,0-.54-.56,1.5,1.5,0,0,0-.83-.22,1.57,1.57,0,0,0-.82.21,1.71,1.71,0,0,0-.56.54,2.39,2.39,0,0,0-.32.75,3.63,3.63,0,0,0-.1.86,3.68,3.68,0,0,0,.1.83,2.37,2.37,0,0,0,.31.76,1.76,1.76,0,0,0,.56.55,1.57,1.57,0,0,0,.84.21,1.49,1.49,0,0,0,.8-.21,1.69,1.69,0,0,0,.54-.54,2.43,2.43,0,0,0,.31-.75A3.94,3.94,0,0,0,230.82,331.65Z"/><path class="cls-7" d="M236.73,328.18a3,3,0,0,1,1.34.28,2.78,2.78,0,0,1,1,.77,3.33,3.33,0,0,1,.58,1.13,4.76,4.76,0,0,1,.19,1.37V332H235a2.77,2.77,0,0,0,.13.81,1.9,1.9,0,0,0,.35.63,1.55,1.55,0,0,0,.54.41,1.7,1.7,0,0,0,.72.15,1.9,1.9,0,0,0,1-.23,1.7,1.7,0,0,0,.61-.6h1.37a3.06,3.06,0,0,1-.45.81,2.83,2.83,0,0,1-.66.62,3,3,0,0,1-.85.39,3.66,3.66,0,0,1-1,.13,3.28,3.28,0,0,1-1.33-.26,2.82,2.82,0,0,1-1-.72,3.18,3.18,0,0,1-.62-1.1,4.31,4.31,0,0,1-.22-1.4,4,4,0,0,1,.22-1.33,3.3,3.3,0,0,1,.63-1.1,3,3,0,0,1,1-.76A3.16,3.16,0,0,1,236.73,328.18Zm1.63,2.85a2.77,2.77,0,0,0-.16-.71,1.73,1.73,0,0,0-.33-.55,1.43,1.43,0,0,0-.5-.35,1.91,1.91,0,0,0-1.37,0,1.51,1.51,0,0,0-.52.36,1.79,1.79,0,0,0-.35.55,2.54,2.54,0,0,0-.17.7Z"/><path class="cls-7" d="M242.81,325.85v9.08h-1.45v-9.08Z"/></g><path class="cls-8" d="M103.95,296.43v7.87h4.8v.7h-5.62v-8.57Z"/><path class="cls-8" d="M115.55,305l-.27,0H115a1.37,1.37,0,0,1-.44-.06.65.65,0,0,1-.29-.2.82.82,0,0,1-.16-.35,2.43,2.43,0,0,1,0-.53h0a3,3,0,0,1-1,1,2.79,2.79,0,0,1-1.35.29,2.46,2.46,0,0,1-1.6-.5,1.75,1.75,0,0,1-.6-1.43,1.66,1.66,0,0,1,.66-1.43,6.79,6.79,0,0,1,3-.69,2,2,0,0,0,.44-.08.75.75,0,0,0,.29-.16.6.6,0,0,0,.16-.26,1.28,1.28,0,0,0,0-.38,1.24,1.24,0,0,0-.4-1,2,2,0,0,0-1.31-.34,2.61,2.61,0,0,0-.72.09,1.65,1.65,0,0,0-.53.25,1.13,1.13,0,0,0-.33.39,1.23,1.23,0,0,0-.13.49h-.8a2,2,0,0,1,.22-.78,1.78,1.78,0,0,1,.51-.59,2.43,2.43,0,0,1,.81-.38,4,4,0,0,1,1.09-.13,2.64,2.64,0,0,1,1.83.54,2,2,0,0,1,.59,1.52v3.56a.47.47,0,0,0,.11.33.46.46,0,0,0,.36.12.7.7,0,0,0,.25,0ZM114,301.41h0q-.12.22-.77.31l-.67.1-.74.12a2.67,2.67,0,0,0-1.17.44,1,1,0,0,0-.39.84,1.16,1.16,0,0,0,.43.94,1.6,1.6,0,0,0,1,.35,2.36,2.36,0,0,0,1.63-.58,1.85,1.85,0,0,0,.65-1.44Z"/><path class="cls-8" d="M123,301.72a4.77,4.77,0,0,1-.17,1.28,3.38,3.38,0,0,1-.53,1.11,2.69,2.69,0,0,1-.92.79,2.8,2.8,0,0,1-1.33.3,2.9,2.9,0,0,1-.72-.09,2.59,2.59,0,0,1-.66-.27,2.34,2.34,0,0,1-.55-.45,2.18,2.18,0,0,1-.4-.63h0V305H117v-9.08h.8v3.77h0a2,2,0,0,1,.36-.61,2.25,2.25,0,0,1,.54-.45,2.5,2.5,0,0,1,.66-.28,3,3,0,0,1,2,.18,2.62,2.62,0,0,1,.91.75,3.34,3.34,0,0,1,.55,1.1A5,5,0,0,1,123,301.72Zm-.8,0a4.39,4.39,0,0,0,0-.65,3.54,3.54,0,0,0-.16-.64,2.89,2.89,0,0,0-.28-.59,2.08,2.08,0,0,0-.41-.48,1.83,1.83,0,0,0-.55-.32,2,2,0,0,0-.71-.12,2.05,2.05,0,0,0-1.73.85,2.72,2.72,0,0,0-.42.89,3.94,3.94,0,0,0-.14,1.06,4.21,4.21,0,0,0,.13,1,2.67,2.67,0,0,0,.4.9,2.08,2.08,0,0,0,.71.63,2.18,2.18,0,0,0,1.06.24,1.88,1.88,0,0,0,1-.23,2,2,0,0,0,.66-.63,2.9,2.9,0,0,0,.38-.89A4.91,4.91,0,0,0,122.24,301.72Z"/><path class="cls-8" d="M127.48,298.25a2.71,2.71,0,0,1,1.3.29,2.6,2.6,0,0,1,.9.79,3.45,3.45,0,0,1,.52,1.13,5.21,5.21,0,0,1,.17,1.34v.13h-5.05a3.58,3.58,0,0,0,.13.94,2.59,2.59,0,0,0,.39.83,2,2,0,0,0,.66.59,1.92,1.92,0,0,0,.95.22,2.44,2.44,0,0,0,.7-.09,2,2,0,0,0,.56-.26,1.76,1.76,0,0,0,.42-.39,2.41,2.41,0,0,0,.29-.49h.79a3,3,0,0,1-.38.79,2.48,2.48,0,0,1-.59.6,2.68,2.68,0,0,1-.79.39,3.34,3.34,0,0,1-1,.14,2.94,2.94,0,0,1-1.3-.27,2.56,2.56,0,0,1-.91-.73,3.12,3.12,0,0,1-.54-1.1,5.14,5.14,0,0,1-.18-1.37,4.66,4.66,0,0,1,.18-1.28,3.36,3.36,0,0,1,.54-1.11,2.74,2.74,0,0,1,.92-.78A2.79,2.79,0,0,1,127.48,298.25Zm2.09,3a3,3,0,0,0-.16-.85,2.44,2.44,0,0,0-.41-.75,2.07,2.07,0,0,0-.65-.54,1.84,1.84,0,0,0-.88-.21,1.84,1.84,0,0,0-1.5.7,2.7,2.7,0,0,0-.42.75,4.31,4.31,0,0,0-.23.9Z"/><path class="cls-8" d="M132.87,295.92V305h-.8v-9.08Z"/><rect class="cls-10" x="101.5" y="385.5" width="179" height="35"/><path class="cls-5" d="M280,386v34H102V386H280m1-1H101v36H281V385Z"/><path class="cls-7" d="M121.25,398.37v1.27h-4.72v2.28h4.37v1.19h-4.37v2.56h4.8v1.26H115v-8.55Z"/><path class="cls-7" d="M131,406.93v-4a3.44,3.44,0,0,0-.05-.62,1.26,1.26,0,0,0-.19-.49,1,1,0,0,0-.39-.32,1.48,1.48,0,0,0-.63-.12,1.24,1.24,0,0,0-1.06.47,2.29,2.29,0,0,0-.35,1.38v3.74h-1.45v-4.21a1.64,1.64,0,0,0-.28-1,1.1,1.1,0,0,0-.91-.35,1.34,1.34,0,0,0-1.08.48,2,2,0,0,0-.4,1.31v3.81h-1.45v-6.57h1.36v1h0a2.31,2.31,0,0,1,2.06-1.15,2.27,2.27,0,0,1,1.2.3,1.71,1.71,0,0,1,.71.86,2.45,2.45,0,0,1,.87-.86,2.21,2.21,0,0,1,3.47,2v4.48Z"/><path class="cls-7" d="M140.9,403.69a4.55,4.55,0,0,1-.08.85,4.15,4.15,0,0,1-.23.8,3.31,3.31,0,0,1-.4.71,2.59,2.59,0,0,1-.57.57,2.64,2.64,0,0,1-.73.37,2.87,2.87,0,0,1-.91.13,2.61,2.61,0,0,1-.63-.08,2.42,2.42,0,0,1-.58-.22,2.29,2.29,0,0,1-.5-.36,2,2,0,0,1-.38-.5h0v3.33h-1.44v-8.93h1.37v1h0a2.08,2.08,0,0,1,.86-.88,2.59,2.59,0,0,1,1.23-.29,2.88,2.88,0,0,1,1.31.28,2.67,2.67,0,0,1,.93.76,3.3,3.3,0,0,1,.55,1.12A4.85,4.85,0,0,1,140.9,403.69Zm-1.45,0a3.92,3.92,0,0,0-.09-.83,2.38,2.38,0,0,0-.3-.76,1.72,1.72,0,0,0-.56-.56,1.57,1.57,0,0,0-.85-.22,1.6,1.6,0,0,0-1.35.61,2.82,2.82,0,0,0-.47,1.75,3.62,3.62,0,0,0,.1.84,2.34,2.34,0,0,0,.32.75,1.73,1.73,0,0,0,.57.54,1.64,1.64,0,0,0,.85.21,1.56,1.56,0,0,0,1.33-.66,2.17,2.17,0,0,0,.34-.74A3.75,3.75,0,0,0,139.45,403.65Z"/><path class="cls-7" d="M145.75,407h-.83a4.59,4.59,0,0,1-.74-.06,1.58,1.58,0,0,1-.6-.22,1.12,1.12,0,0,1-.4-.45,1.67,1.67,0,0,1-.15-.76v-4.15h-1.29v-1H143v-2h1.45v2H146v1h-1.5v3.72a.83.83,0,0,0,.17.58.8.8,0,0,0,.59.18h.57l.17,0V407Z"/><path class="cls-7" d="M148.06,400.35l1.73,5h0l1.64-5h1.49l-2.81,7.52a3,3,0,0,1-.29.59,1.79,1.79,0,0,1-.4.44,1.71,1.71,0,0,1-.54.28,2.43,2.43,0,0,1-.72.1l-.54,0-.46,0V408l.45.05H148a1,1,0,0,0,.4-.07.76.76,0,0,0,.28-.21,1.39,1.39,0,0,0,.21-.36q.09-.22.18-.52l-2.53-6.57Z"/><path class="cls-7" d="M160.76,407h-.83a4.59,4.59,0,0,1-.74-.06,1.58,1.58,0,0,1-.6-.22,1.12,1.12,0,0,1-.4-.45,1.67,1.67,0,0,1-.15-.76v-4.15h-1.29v-1H158v-2h1.45v2H161v1h-1.5v3.72a.83.83,0,0,0,.17.58.8.8,0,0,0,.59.18h.57l.17,0V407Z"/><path class="cls-7" d="M165.15,400.18a3,3,0,0,1,1.34.28,2.78,2.78,0,0,1,1,.77,3.33,3.33,0,0,1,.58,1.13,4.76,4.76,0,0,1,.19,1.37V404h-4.85a2.77,2.77,0,0,0,.13.81,1.9,1.9,0,0,0,.35.63,1.55,1.55,0,0,0,.54.41,1.7,1.7,0,0,0,.72.15,1.9,1.9,0,0,0,1-.23,1.7,1.7,0,0,0,.61-.6h1.37a3.06,3.06,0,0,1-.45.81,2.83,2.83,0,0,1-.66.62,3,3,0,0,1-.85.39,3.66,3.66,0,0,1-1,.13,3.28,3.28,0,0,1-1.33-.26,2.82,2.82,0,0,1-1-.72,3.18,3.18,0,0,1-.62-1.1,4.31,4.31,0,0,1-.22-1.4,4,4,0,0,1,.22-1.33,3.3,3.3,0,0,1,.63-1.1,3,3,0,0,1,1-.76A3.16,3.16,0,0,1,165.15,400.18Zm1.63,2.85a2.77,2.77,0,0,0-.16-.71,1.73,1.73,0,0,0-.33-.55,1.43,1.43,0,0,0-.5-.35,1.91,1.91,0,0,0-1.37,0,1.51,1.51,0,0,0-.52.36,1.79,1.79,0,0,0-.35.55,2.54,2.54,0,0,0-.17.7Z"/><path class="cls-7" d="M170.6,400.35l1.41,2,1.39-2H175l-2.23,3.11,2.47,3.47h-1.69L172,404.61l-1.61,2.32h-1.66l2.43-3.44-2.23-3.13Z"/><path class="cls-7" d="M179.63,407h-.83a4.59,4.59,0,0,1-.74-.06,1.58,1.58,0,0,1-.6-.22,1.12,1.12,0,0,1-.4-.45,1.67,1.67,0,0,1-.15-.76v-4.15h-1.29v-1h1.29v-2h1.45v2h1.5v1h-1.5v3.72a.83.83,0,0,0,.17.58.8.8,0,0,0,.59.18h.57l.17,0V407Z"/><path class="cls-7" d="M186.67,401.37v5.55h-1.45v-5.55h-1.28v-1h1.28v-.51a2,2,0,0,1,.52-1.52,1.64,1.64,0,0,1,.63-.36,3,3,0,0,1,.9-.12h.43l.52,0V399l-.18,0-.2,0h-.34a.86.86,0,0,0-.65.2,1,1,0,0,0-.18.68v.51h1.44v1Zm3.87-3.88v1.42H189.1V397.5Zm0,2.86v6.57H189.1v-6.57Z"/><path class="cls-7" d="M195.33,400.18a3,3,0,0,1,1.34.28,2.78,2.78,0,0,1,1,.77,3.33,3.33,0,0,1,.58,1.13,4.76,4.76,0,0,1,.19,1.37V404h-4.85a2.77,2.77,0,0,0,.13.81,1.9,1.9,0,0,0,.35.63,1.55,1.55,0,0,0,.54.41,1.7,1.7,0,0,0,.72.15,1.9,1.9,0,0,0,1-.23,1.7,1.7,0,0,0,.61-.6h1.37a3.06,3.06,0,0,1-.45.81,2.83,2.83,0,0,1-.66.62,3,3,0,0,1-.85.39,3.66,3.66,0,0,1-1,.13,3.28,3.28,0,0,1-1.33-.26,2.82,2.82,0,0,1-1-.72,3.18,3.18,0,0,1-.62-1.1,4.31,4.31,0,0,1-.22-1.4,4,4,0,0,1,.22-1.33,3.3,3.3,0,0,1,.63-1.1,3,3,0,0,1,1-.76A3.16,3.16,0,0,1,195.33,400.18ZM197,403a2.77,2.77,0,0,0-.16-.71,1.73,1.73,0,0,0-.33-.55,1.43,1.43,0,0,0-.5-.35,1.91,1.91,0,0,0-1.37,0,1.51,1.51,0,0,0-.52.36,1.79,1.79,0,0,0-.35.55,2.54,2.54,0,0,0-.17.7Z"/><path class="cls-7" d="M201.42,397.85v9.08H200v-9.08Z"/><path class="cls-7" d="M209.51,397.85v9.08h-1.37v-1h0a2.07,2.07,0,0,1-.37.5,2.16,2.16,0,0,1-.49.37,2.44,2.44,0,0,1-.59.23,2.79,2.79,0,0,1-.67.08,2.72,2.72,0,0,1-1.28-.29,2.76,2.76,0,0,1-.92-.77,3.38,3.38,0,0,1-.56-1.12,4.69,4.69,0,0,1-.19-1.33,4.52,4.52,0,0,1,.18-1.26,3.34,3.34,0,0,1,.54-1.1,2.75,2.75,0,0,1,.91-.77,2.91,2.91,0,0,1,1.92-.22,2.49,2.49,0,0,1,.58.21,2.07,2.07,0,0,1,.49.35,2,2,0,0,1,.37.5h0v-3.47Zm-5,5.79a3.63,3.63,0,0,0,.1.82,2.44,2.44,0,0,0,.31.76,1.81,1.81,0,0,0,.56.56,1.5,1.5,0,0,0,.83.22,1.73,1.73,0,0,0,.79-.17,1.58,1.58,0,0,0,.57-.49,2.25,2.25,0,0,0,.35-.75,3.68,3.68,0,0,0,.12-1,3.73,3.73,0,0,0-.1-.84,2.3,2.3,0,0,0-.31-.75,1.72,1.72,0,0,0-.57-.54,1.64,1.64,0,0,0-.85-.21,1.56,1.56,0,0,0-.82.2,1.7,1.7,0,0,0-.55.53,2.35,2.35,0,0,0-.32.75A3.93,3.93,0,0,0,204.49,403.64Z"/><path class="cls-7" d="M216.4,397.85v9.08H215v-9.08Z"/><path class="cls-7" d="M224.48,406.93,224,407l-.39,0a1.79,1.79,0,0,1-.42,0,.91.91,0,0,1-.34-.16.84.84,0,0,1-.24-.29,1.28,1.28,0,0,1-.12-.45h0a2.67,2.67,0,0,1-.45.46,2.3,2.3,0,0,1-.52.31,3.32,3.32,0,0,1-1.31.24,2.42,2.42,0,0,1-1.62-.51,1.77,1.77,0,0,1-.6-1.45,1.7,1.7,0,0,1,.6-1.42,2.11,2.11,0,0,1,.58-.32,4.68,4.68,0,0,1,.73-.2q.39-.08.82-.13l.87-.1.34-.07a.8.8,0,0,0,.27-.13.59.59,0,0,0,.17-.22.79.79,0,0,0,.06-.33,1,1,0,0,0-.31-.79,2.11,2.11,0,0,0-2.05,0,1,1,0,0,0-.39.73h-1.45a2,2,0,0,1,.28-.9,2,2,0,0,1,.62-.62,2.88,2.88,0,0,1,.9-.36,5.08,5.08,0,0,1,1.13-.12,3.42,3.42,0,0,1,2,.5,1.65,1.65,0,0,1,.67,1.41v3.54a.47.47,0,0,0,.08.3.33.33,0,0,0,.27.1h.12l.13,0Zm-2-3.35h0a1,1,0,0,1-.54.23l-.48.08-.65.11a2.2,2.2,0,0,0-1,.37.87.87,0,0,0-.32.72.89.89,0,0,0,.37.76,1.48,1.48,0,0,0,.87.24,1.79,1.79,0,0,0,1.27-.43,1.59,1.59,0,0,0,.49-1.24Z"/><path class="cls-7" d="M232.27,403.64a4.85,4.85,0,0,1-.17,1.28,3.47,3.47,0,0,1-.52,1.11,2.65,2.65,0,0,1-.88.79,2.51,2.51,0,0,1-1.25.3,2.93,2.93,0,0,1-1.36-.3,1.9,1.9,0,0,1-.86-.87h0v1h-1.37v-9.08h1.44v3.47h0a1.88,1.88,0,0,1,.36-.47,2.16,2.16,0,0,1,.5-.36,2.68,2.68,0,0,1,.61-.23,2.85,2.85,0,0,1,.68-.08,2.52,2.52,0,0,1,1.24.29,2.66,2.66,0,0,1,.88.78,3.4,3.4,0,0,1,.52,1.11A4.87,4.87,0,0,1,232.27,403.64Zm-1.45,0a3.74,3.74,0,0,0-.09-.82,2.52,2.52,0,0,0-.3-.76,1.71,1.71,0,0,0-.54-.56,1.5,1.5,0,0,0-.83-.22,1.57,1.57,0,0,0-.82.21,1.71,1.71,0,0,0-.56.54,2.39,2.39,0,0,0-.32.75,3.63,3.63,0,0,0-.1.86,3.68,3.68,0,0,0,.1.83,2.37,2.37,0,0,0,.31.76,1.76,1.76,0,0,0,.56.55,1.57,1.57,0,0,0,.84.21,1.49,1.49,0,0,0,.8-.21,1.69,1.69,0,0,0,.54-.54,2.43,2.43,0,0,0,.31-.75A3.94,3.94,0,0,0,230.82,403.65Z"/><path class="cls-7" d="M236.73,400.18a3,3,0,0,1,1.34.28,2.78,2.78,0,0,1,1,.77,3.33,3.33,0,0,1,.58,1.13,4.76,4.76,0,0,1,.19,1.37V404H235a2.77,2.77,0,0,0,.13.81,1.9,1.9,0,0,0,.35.63,1.55,1.55,0,0,0,.54.41,1.7,1.7,0,0,0,.72.15,1.9,1.9,0,0,0,1-.23,1.7,1.7,0,0,0,.61-.6h1.37a3.06,3.06,0,0,1-.45.81,2.83,2.83,0,0,1-.66.62,3,3,0,0,1-.85.39,3.66,3.66,0,0,1-1,.13,3.28,3.28,0,0,1-1.33-.26,2.82,2.82,0,0,1-1-.72,3.18,3.18,0,0,1-.62-1.1,4.31,4.31,0,0,1-.22-1.4,4,4,0,0,1,.22-1.33,3.3,3.3,0,0,1,.63-1.1,3,3,0,0,1,1-.76A3.16,3.16,0,0,1,236.73,400.18Zm1.63,2.85a2.77,2.77,0,0,0-.16-.71,1.73,1.73,0,0,0-.33-.55,1.43,1.43,0,0,0-.5-.35,1.91,1.91,0,0,0-1.37,0,1.51,1.51,0,0,0-.52.36,1.79,1.79,0,0,0-.35.55,2.54,2.54,0,0,0-.17.7Z"/><path class="cls-7" d="M242.81,397.85v9.08h-1.45v-9.08Z"/><path class="cls-8" d="M103.95,368.43v7.87h4.8v.7h-5.62v-8.57Z"/><path class="cls-8" d="M115.55,377l-.27,0H115a1.37,1.37,0,0,1-.44-.06.65.65,0,0,1-.29-.2.82.82,0,0,1-.16-.35,2.43,2.43,0,0,1,0-.53h0a3,3,0,0,1-1,1,2.79,2.79,0,0,1-1.35.29,2.46,2.46,0,0,1-1.6-.5,1.75,1.75,0,0,1-.6-1.43,1.66,1.66,0,0,1,.66-1.43,6.79,6.79,0,0,1,3-.69,2,2,0,0,0,.44-.08.75.75,0,0,0,.29-.16.6.6,0,0,0,.16-.26,1.28,1.28,0,0,0,0-.38,1.24,1.24,0,0,0-.4-1,2,2,0,0,0-1.31-.34,2.61,2.61,0,0,0-.72.09,1.65,1.65,0,0,0-.53.25,1.13,1.13,0,0,0-.33.39,1.23,1.23,0,0,0-.13.49h-.8a2,2,0,0,1,.22-.78,1.78,1.78,0,0,1,.51-.59,2.43,2.43,0,0,1,.81-.38,4,4,0,0,1,1.09-.13,2.64,2.64,0,0,1,1.83.54,2,2,0,0,1,.59,1.52v3.56a.47.47,0,0,0,.11.33.46.46,0,0,0,.36.12.7.7,0,0,0,.25,0ZM114,373.41h0q-.12.22-.77.31l-.67.1-.74.12a2.67,2.67,0,0,0-1.17.44,1,1,0,0,0-.39.84,1.16,1.16,0,0,0,.43.94,1.6,1.6,0,0,0,1,.35,2.36,2.36,0,0,0,1.63-.58,1.85,1.85,0,0,0,.65-1.44Z"/><path class="cls-8" d="M123,373.72a4.77,4.77,0,0,1-.17,1.28,3.38,3.38,0,0,1-.53,1.11,2.69,2.69,0,0,1-.92.79,2.8,2.8,0,0,1-1.33.3,2.9,2.9,0,0,1-.72-.09,2.59,2.59,0,0,1-.66-.27,2.34,2.34,0,0,1-.55-.45,2.18,2.18,0,0,1-.4-.63h0V377H117v-9.08h.8v3.77h0a2,2,0,0,1,.36-.61,2.25,2.25,0,0,1,.54-.45,2.5,2.5,0,0,1,.66-.28,3,3,0,0,1,2,.18,2.62,2.62,0,0,1,.91.75,3.34,3.34,0,0,1,.55,1.1A5,5,0,0,1,123,373.72Zm-.8,0a4.39,4.39,0,0,0,0-.65,3.54,3.54,0,0,0-.16-.64,2.89,2.89,0,0,0-.28-.59,2.08,2.08,0,0,0-.41-.48,1.83,1.83,0,0,0-.55-.32,2,2,0,0,0-.71-.12,2.05,2.05,0,0,0-1.73.85,2.72,2.72,0,0,0-.42.89,3.94,3.94,0,0,0-.14,1.06,4.21,4.21,0,0,0,.13,1,2.67,2.67,0,0,0,.4.9,2.08,2.08,0,0,0,.71.63,2.18,2.18,0,0,0,1.06.24,1.88,1.88,0,0,0,1-.23,2,2,0,0,0,.66-.63,2.9,2.9,0,0,0,.38-.89A4.91,4.91,0,0,0,122.24,373.72Z"/><path class="cls-8" d="M127.48,370.25a2.71,2.71,0,0,1,1.3.29,2.6,2.6,0,0,1,.9.79,3.45,3.45,0,0,1,.52,1.13,5.21,5.21,0,0,1,.17,1.34v.13h-5.05a3.58,3.58,0,0,0,.13.94,2.59,2.59,0,0,0,.39.83,2,2,0,0,0,.66.59,1.92,1.92,0,0,0,.95.22,2.44,2.44,0,0,0,.7-.09,2,2,0,0,0,.56-.26,1.76,1.76,0,0,0,.42-.39,2.41,2.41,0,0,0,.29-.49h.79a3,3,0,0,1-.38.79,2.48,2.48,0,0,1-.59.6,2.68,2.68,0,0,1-.79.39,3.34,3.34,0,0,1-1,.14,2.94,2.94,0,0,1-1.3-.27,2.56,2.56,0,0,1-.91-.73,3.12,3.12,0,0,1-.54-1.1,5.14,5.14,0,0,1-.18-1.37,4.66,4.66,0,0,1,.18-1.28,3.36,3.36,0,0,1,.54-1.11,2.74,2.74,0,0,1,.92-.78A2.79,2.79,0,0,1,127.48,370.25Zm2.09,3a3,3,0,0,0-.16-.85,2.44,2.44,0,0,0-.41-.75,2.07,2.07,0,0,0-.65-.54,1.84,1.84,0,0,0-.88-.21,1.84,1.84,0,0,0-1.5.7,2.7,2.7,0,0,0-.42.75,4.31,4.31,0,0,0-.23.9Z"/><path class="cls-8" d="M132.87,367.92V377h-.8v-9.08Z"/><rect class="cls-2" x="311.5" y="25.5" width="179" height="35"/><path class="cls-5" d="M490,26V60H312V26H490m1-1H311V61H491V25Z"/><path class="cls-7" d="M325.69,38.36l1.56,6.69h0L329,38.36h1.49l1.69,6.74h0l1.61-6.74h1.47L333,46.93h-1.51l-1.71-6.76h0L328,46.93h-1.54l-2.31-8.57Z"/><path class="cls-7" d="M338.05,37.5v1.42H336.6V37.5Zm0,2.86v6.57H336.6V40.35Z"/><path class="cls-7" d="M343.27,47h-.83a4.59,4.59,0,0,1-.74-.06,1.58,1.58,0,0,1-.6-.22,1.12,1.12,0,0,1-.4-.45,1.67,1.67,0,0,1-.15-.76V41.37h-1.29v-1h1.29v-2H342v2h1.5v1H342V45.1a.83.83,0,0,0,.17.58.8.8,0,0,0,.59.18h.57l.17,0V47Z"/><path class="cls-7" d="M349.31,46.93V43a2.11,2.11,0,0,0-.32-1.27,1.19,1.19,0,0,0-1-.43,1.79,1.79,0,0,0-.72.13,1.33,1.33,0,0,0-.51.39,1.68,1.68,0,0,0-.3.62,3.13,3.13,0,0,0-.1.83v3.63h-1.44V37.85h1.44v3.5h0a1.94,1.94,0,0,1,.35-.48,2.36,2.36,0,0,1,.47-.37,2.24,2.24,0,0,1,.56-.24,2.32,2.32,0,0,1,.61-.08,3.33,3.33,0,0,1,1.08.16,1.77,1.77,0,0,1,.74.47,2,2,0,0,1,.43.81,4.22,4.22,0,0,1,.14,1.14v4.17Z"/><path class="cls-7" d="M357.64,37.5v1.42H356.2V37.5Zm0,2.86v6.57H356.2V40.35Z"/><path class="cls-7" d="M363.06,40.18a3.25,3.25,0,0,1,1.1.16,1.8,1.8,0,0,1,.74.49,2,2,0,0,1,.42.81,4.28,4.28,0,0,1,.13,1.12v4.17H364V43a2.11,2.11,0,0,0-.32-1.27,1.19,1.19,0,0,0-1-.43,1.48,1.48,0,0,0-1.23.52A2.28,2.28,0,0,0,361,43.3v3.63h-1.44V40.35H361v1h0a2.14,2.14,0,0,1,.37-.5,2.24,2.24,0,0,1,.48-.37,2.34,2.34,0,0,1,.57-.23A2.51,2.51,0,0,1,363.06,40.18Z"/><path class="cls-7" d="M373.82,43.69a4.55,4.55,0,0,1-.08.85,4.15,4.15,0,0,1-.23.8,3.31,3.31,0,0,1-.4.71,2.59,2.59,0,0,1-.57.57,2.64,2.64,0,0,1-.73.37,2.87,2.87,0,0,1-.91.13,2.61,2.61,0,0,1-.63-.08,2.42,2.42,0,0,1-.58-.22,2.29,2.29,0,0,1-.5-.36,2,2,0,0,1-.38-.5h0v3.33h-1.44V40.35h1.37v1h0a2.08,2.08,0,0,1,.86-.88,2.59,2.59,0,0,1,1.23-.29,2.88,2.88,0,0,1,1.31.28,2.67,2.67,0,0,1,.93.76,3.3,3.3,0,0,1,.55,1.12A4.85,4.85,0,0,1,373.82,43.69Zm-1.45,0a3.92,3.92,0,0,0-.09-.83,2.38,2.38,0,0,0-.3-.76,1.72,1.72,0,0,0-.56-.56,1.57,1.57,0,0,0-.85-.22,1.6,1.6,0,0,0-1.35.61,2.82,2.82,0,0,0-.47,1.75,3.62,3.62,0,0,0,.1.84,2.34,2.34,0,0,0,.32.75,1.73,1.73,0,0,0,.57.54,1.64,1.64,0,0,0,.85.21,1.56,1.56,0,0,0,1.33-.66,2.17,2.17,0,0,0,.34-.74A3.75,3.75,0,0,0,372.38,43.65Z"/><path class="cls-7" d="M379.89,46.93v-1h0a2.25,2.25,0,0,1-.39.52,2.3,2.3,0,0,1-.5.37,2.49,2.49,0,0,1-.58.23,2.54,2.54,0,0,1-.64.08,2.3,2.3,0,0,1-1.78-.63,2.81,2.81,0,0,1-.57-1.95V40.35h1.44v4a2.89,2.89,0,0,0,.08.7,1.37,1.37,0,0,0,.24.52,1,1,0,0,0,.42.32,1.82,1.82,0,0,0,1.36,0,1.37,1.37,0,0,0,.5-.43,1.86,1.86,0,0,0,.29-.66,3.72,3.72,0,0,0,.09-.85v-3.5h1.44v6.57Z"/><path class="cls-7" d="M386.43,47h-.83a4.59,4.59,0,0,1-.74-.06,1.58,1.58,0,0,1-.6-.22,1.12,1.12,0,0,1-.4-.45,1.67,1.67,0,0,1-.15-.76V41.37h-1.29v-1h1.29v-2h1.45v2h1.5v1h-1.5V45.1a.83.83,0,0,0,.17.58.8.8,0,0,0,.59.18h.57l.17,0V47Z"/><path class="cls-7" d="M394.82,47H394a4.59,4.59,0,0,1-.74-.06,1.58,1.58,0,0,1-.6-.22,1.12,1.12,0,0,1-.4-.45,1.67,1.67,0,0,1-.15-.76V41.37h-1.29v-1h1.29v-2h1.45v2h1.5v1h-1.5V45.1a.83.83,0,0,0,.17.58.8.8,0,0,0,.59.18h.57l.17,0V47Z"/><path class="cls-7" d="M399.21,40.18a3,3,0,0,1,1.34.28,2.78,2.78,0,0,1,1,.77,3.33,3.33,0,0,1,.58,1.13,4.76,4.76,0,0,1,.19,1.37V44h-4.85a2.77,2.77,0,0,0,.13.81,1.9,1.9,0,0,0,.35.63,1.55,1.55,0,0,0,.54.41,1.7,1.7,0,0,0,.72.15,1.9,1.9,0,0,0,1-.23,1.7,1.7,0,0,0,.61-.6h1.37a3.06,3.06,0,0,1-.45.81,2.83,2.83,0,0,1-.66.62,3,3,0,0,1-.85.39,3.66,3.66,0,0,1-1,.13,3.28,3.28,0,0,1-1.33-.26,2.82,2.82,0,0,1-1-.72,3.18,3.18,0,0,1-.62-1.1,4.31,4.31,0,0,1-.22-1.4,4,4,0,0,1,.22-1.33,3.3,3.3,0,0,1,.63-1.1,3,3,0,0,1,1-.76A3.16,3.16,0,0,1,399.21,40.18ZM400.85,43a2.77,2.77,0,0,0-.16-.71,1.73,1.73,0,0,0-.33-.55,1.43,1.43,0,0,0-.5-.35,1.91,1.91,0,0,0-1.37,0,1.51,1.51,0,0,0-.52.36,1.79,1.79,0,0,0-.35.55,2.54,2.54,0,0,0-.17.7Z"/><path class="cls-7" d="M404.65,40.35l1.41,2,1.39-2h1.64l-2.23,3.11,2.47,3.47h-1.69L406,44.61l-1.61,2.32h-1.66l2.43-3.44L403,40.35Z"/><path class="cls-7" d="M413.69,47h-.83a4.59,4.59,0,0,1-.74-.06,1.58,1.58,0,0,1-.6-.22,1.12,1.12,0,0,1-.4-.45,1.67,1.67,0,0,1-.15-.76V41.37h-1.29v-1H411v-2h1.45v2h1.5v1h-1.5V45.1a.83.83,0,0,0,.17.58.8.8,0,0,0,.59.18h.57l.17,0V47Z"/><path class="cls-8" d="M313.95,8.43V16.3h4.8V17h-5.62V8.43Z"/><path class="cls-8" d="M325.55,17l-.27,0H325a1.37,1.37,0,0,1-.44-.06.65.65,0,0,1-.29-.2.82.82,0,0,1-.16-.35,2.43,2.43,0,0,1,0-.53h0a3,3,0,0,1-1,1,2.79,2.79,0,0,1-1.35.29,2.46,2.46,0,0,1-1.6-.5,1.75,1.75,0,0,1-.6-1.43,1.66,1.66,0,0,1,.66-1.43,6.79,6.79,0,0,1,3-.69,2,2,0,0,0,.44-.08.75.75,0,0,0,.29-.16.6.6,0,0,0,.16-.26,1.28,1.28,0,0,0,0-.38,1.24,1.24,0,0,0-.4-1,2,2,0,0,0-1.31-.34,2.61,2.61,0,0,0-.72.09,1.65,1.65,0,0,0-.53.25,1.13,1.13,0,0,0-.33.39,1.23,1.23,0,0,0-.13.49h-.8a2,2,0,0,1,.22-.78,1.78,1.78,0,0,1,.51-.59,2.43,2.43,0,0,1,.81-.38,4,4,0,0,1,1.09-.13,2.64,2.64,0,0,1,1.83.54,2,2,0,0,1,.59,1.52v3.56a.47.47,0,0,0,.11.33.46.46,0,0,0,.36.12.7.7,0,0,0,.25,0ZM324,13.41h0q-.12.22-.77.31l-.67.1-.74.12a2.67,2.67,0,0,0-1.17.44,1,1,0,0,0-.39.84,1.16,1.16,0,0,0,.43.94,1.6,1.6,0,0,0,1,.35,2.36,2.36,0,0,0,1.63-.58,1.85,1.85,0,0,0,.65-1.44Z"/><path class="cls-8" d="M333,13.72a4.77,4.77,0,0,1-.17,1.28,3.38,3.38,0,0,1-.53,1.11,2.69,2.69,0,0,1-.92.79,2.8,2.8,0,0,1-1.33.3,2.9,2.9,0,0,1-.72-.09,2.59,2.59,0,0,1-.66-.27,2.34,2.34,0,0,1-.55-.45,2.18,2.18,0,0,1-.4-.63h0V17H327V7.92h.8v3.77h0a2,2,0,0,1,.36-.61,2.25,2.25,0,0,1,.54-.45,2.5,2.5,0,0,1,.66-.28,3,3,0,0,1,2,.18,2.62,2.62,0,0,1,.91.75,3.34,3.34,0,0,1,.55,1.1A5,5,0,0,1,333,13.72Zm-.8,0a4.39,4.39,0,0,0,0-.65,3.54,3.54,0,0,0-.16-.64,2.89,2.89,0,0,0-.28-.59,2.08,2.08,0,0,0-.41-.48,1.83,1.83,0,0,0-.55-.32,2,2,0,0,0-.71-.12,2.05,2.05,0,0,0-1.73.85,2.72,2.72,0,0,0-.42.89,3.94,3.94,0,0,0-.14,1.06,4.21,4.21,0,0,0,.13,1,2.67,2.67,0,0,0,.4.9,2.08,2.08,0,0,0,.71.63,2.18,2.18,0,0,0,1.06.24,1.88,1.88,0,0,0,1-.23,2,2,0,0,0,.66-.63,2.9,2.9,0,0,0,.38-.89A4.91,4.91,0,0,0,332.24,13.72Z"/><path class="cls-8" d="M337.48,10.25a2.71,2.71,0,0,1,1.3.29,2.6,2.6,0,0,1,.9.79,3.45,3.45,0,0,1,.52,1.13,5.21,5.21,0,0,1,.17,1.34v.13h-5.05a3.58,3.58,0,0,0,.13.94,2.59,2.59,0,0,0,.39.83,2,2,0,0,0,.66.59,1.92,1.92,0,0,0,.95.22,2.44,2.44,0,0,0,.7-.09,2,2,0,0,0,.56-.26,1.76,1.76,0,0,0,.42-.39,2.41,2.41,0,0,0,.29-.49h.79a3,3,0,0,1-.38.79,2.48,2.48,0,0,1-.59.6,2.68,2.68,0,0,1-.79.39,3.34,3.34,0,0,1-1,.14,2.94,2.94,0,0,1-1.3-.27,2.56,2.56,0,0,1-.91-.73,3.12,3.12,0,0,1-.54-1.1,5.14,5.14,0,0,1-.18-1.37,4.66,4.66,0,0,1,.18-1.28,3.36,3.36,0,0,1,.54-1.11,2.74,2.74,0,0,1,.92-.78A2.79,2.79,0,0,1,337.48,10.25Zm2.09,3a3,3,0,0,0-.16-.85,2.44,2.44,0,0,0-.41-.75,2.07,2.07,0,0,0-.65-.54,1.84,1.84,0,0,0-.88-.21,1.84,1.84,0,0,0-1.5.7,2.7,2.7,0,0,0-.42.75,4.31,4.31,0,0,0-.23.9Z"/><path class="cls-8" d="M342.87,7.92V17h-.8V7.92Z"/><rect class="cls-9" x="311.5" y="313.5" width="179" height="35"/><path class="cls-10" d="M490,314v34H312V314H490m1-1H311v36H491V313Z"/><g class="cls-6"><path class="cls-7" d="M325.69,326.36l1.56,6.69h0l1.71-6.69h1.49l1.69,6.74h0l1.61-6.74h1.47L333,334.93h-1.51l-1.71-6.76h0L328,334.93h-1.54l-2.31-8.57Z"/><path class="cls-7" d="M338.05,325.5v1.42H336.6V325.5Zm0,2.86v6.57H336.6v-6.57Z"/><path class="cls-7" d="M343.27,335h-.83a4.59,4.59,0,0,1-.74-.06,1.58,1.58,0,0,1-.6-.22,1.12,1.12,0,0,1-.4-.45,1.67,1.67,0,0,1-.15-.76v-4.15h-1.29v-1h1.29v-2H342v2h1.5v1H342v3.72a.83.83,0,0,0,.17.58.8.8,0,0,0,.59.18h.57l.17,0V335Z"/><path class="cls-7" d="M349.31,334.93V331a2.11,2.11,0,0,0-.32-1.27,1.19,1.19,0,0,0-1-.43,1.79,1.79,0,0,0-.72.13,1.33,1.33,0,0,0-.51.39,1.68,1.68,0,0,0-.3.62,3.13,3.13,0,0,0-.1.83v3.63h-1.44v-9.08h1.44v3.5h0a1.94,1.94,0,0,1,.35-.48,2.36,2.36,0,0,1,.47-.37,2.24,2.24,0,0,1,.56-.24,2.32,2.32,0,0,1,.61-.08,3.33,3.33,0,0,1,1.08.16,1.77,1.77,0,0,1,.74.47,2,2,0,0,1,.43.81,4.22,4.22,0,0,1,.14,1.14v4.17Z"/><path class="cls-7" d="M357.64,325.5v1.42H356.2V325.5Zm0,2.86v6.57H356.2v-6.57Z"/><path class="cls-7" d="M363.06,328.18a3.25,3.25,0,0,1,1.1.16,1.8,1.8,0,0,1,.74.49,2,2,0,0,1,.42.81,4.28,4.28,0,0,1,.13,1.12v4.17H364V331a2.11,2.11,0,0,0-.32-1.27,1.19,1.19,0,0,0-1-.43,1.48,1.48,0,0,0-1.23.52,2.28,2.28,0,0,0-.41,1.45v3.63h-1.44v-6.57H361v1h0a2.14,2.14,0,0,1,.37-.5,2.24,2.24,0,0,1,.48-.37,2.34,2.34,0,0,1,.57-.23A2.51,2.51,0,0,1,363.06,328.18Z"/><path class="cls-7" d="M373.82,331.69a4.55,4.55,0,0,1-.08.85,4.15,4.15,0,0,1-.23.8,3.31,3.31,0,0,1-.4.71,2.59,2.59,0,0,1-.57.57,2.64,2.64,0,0,1-.73.37,2.87,2.87,0,0,1-.91.13,2.61,2.61,0,0,1-.63-.08,2.42,2.42,0,0,1-.58-.22,2.29,2.29,0,0,1-.5-.36,2,2,0,0,1-.38-.5h0v3.33h-1.44v-8.93h1.37v1h0a2.08,2.08,0,0,1,.86-.88,2.59,2.59,0,0,1,1.23-.29,2.88,2.88,0,0,1,1.31.28,2.67,2.67,0,0,1,.93.76,3.3,3.3,0,0,1,.55,1.12A4.85,4.85,0,0,1,373.82,331.69Zm-1.45,0a3.92,3.92,0,0,0-.09-.83,2.38,2.38,0,0,0-.3-.76,1.72,1.72,0,0,0-.56-.56,1.57,1.57,0,0,0-.85-.22,1.6,1.6,0,0,0-1.35.61,2.82,2.82,0,0,0-.47,1.75,3.62,3.62,0,0,0,.1.84,2.34,2.34,0,0,0,.32.75,1.73,1.73,0,0,0,.57.54,1.64,1.64,0,0,0,.85.21,1.56,1.56,0,0,0,1.33-.66,2.17,2.17,0,0,0,.34-.74A3.75,3.75,0,0,0,372.38,331.65Z"/><path class="cls-7" d="M379.89,334.93v-1h0a2.25,2.25,0,0,1-.39.52,2.3,2.3,0,0,1-.5.37,2.49,2.49,0,0,1-.58.23,2.54,2.54,0,0,1-.64.08,2.3,2.3,0,0,1-1.78-.63,2.81,2.81,0,0,1-.57-1.95v-4.19h1.44v4a2.89,2.89,0,0,0,.08.7,1.37,1.37,0,0,0,.24.52,1,1,0,0,0,.42.32,1.82,1.82,0,0,0,1.36,0,1.37,1.37,0,0,0,.5-.43,1.86,1.86,0,0,0,.29-.66,3.72,3.72,0,0,0,.09-.85v-3.5h1.44v6.57Z"/><path class="cls-7" d="M386.43,335h-.83a4.59,4.59,0,0,1-.74-.06,1.58,1.58,0,0,1-.6-.22,1.12,1.12,0,0,1-.4-.45,1.67,1.67,0,0,1-.15-.76v-4.15h-1.29v-1h1.29v-2h1.45v2h1.5v1h-1.5v3.72a.83.83,0,0,0,.17.58.8.8,0,0,0,.59.18h.57l.17,0V335Z"/><path class="cls-7" d="M394.82,335H394a4.59,4.59,0,0,1-.74-.06,1.58,1.58,0,0,1-.6-.22,1.12,1.12,0,0,1-.4-.45,1.67,1.67,0,0,1-.15-.76v-4.15h-1.29v-1h1.29v-2h1.45v2h1.5v1h-1.5v3.72a.83.83,0,0,0,.17.58.8.8,0,0,0,.59.18h.57l.17,0V335Z"/><path class="cls-7" d="M399.21,328.18a3,3,0,0,1,1.34.28,2.78,2.78,0,0,1,1,.77,3.33,3.33,0,0,1,.58,1.13,4.76,4.76,0,0,1,.19,1.37V332h-4.85a2.77,2.77,0,0,0,.13.81,1.9,1.9,0,0,0,.35.63,1.55,1.55,0,0,0,.54.41,1.7,1.7,0,0,0,.72.15,1.9,1.9,0,0,0,1-.23,1.7,1.7,0,0,0,.61-.6h1.37a3.06,3.06,0,0,1-.45.81,2.83,2.83,0,0,1-.66.62,3,3,0,0,1-.85.39,3.66,3.66,0,0,1-1,.13,3.28,3.28,0,0,1-1.33-.26,2.82,2.82,0,0,1-1-.72,3.18,3.18,0,0,1-.62-1.1,4.31,4.31,0,0,1-.22-1.4,4,4,0,0,1,.22-1.33,3.3,3.3,0,0,1,.63-1.1,3,3,0,0,1,1-.76A3.16,3.16,0,0,1,399.21,328.18Zm1.63,2.85a2.77,2.77,0,0,0-.16-.71,1.73,1.73,0,0,0-.33-.55,1.43,1.43,0,0,0-.5-.35,1.91,1.91,0,0,0-1.37,0,1.51,1.51,0,0,0-.52.36,1.79,1.79,0,0,0-.35.55,2.54,2.54,0,0,0-.17.7Z"/><path class="cls-7" d="M404.65,328.35l1.41,2,1.39-2h1.64l-2.23,3.11,2.47,3.47h-1.69L406,332.61l-1.61,2.32h-1.66l2.43-3.44L403,328.35Z"/><path class="cls-7" d="M413.69,335h-.83a4.59,4.59,0,0,1-.74-.06,1.58,1.58,0,0,1-.6-.22,1.12,1.12,0,0,1-.4-.45,1.67,1.67,0,0,1-.15-.76v-4.15h-1.29v-1H411v-2h1.45v2h1.5v1h-1.5v3.72a.83.83,0,0,0,.17.58.8.8,0,0,0,.59.18h.57l.17,0V335Z"/></g><path class="cls-8" d="M313.95,296.43v7.87h4.8v.7h-5.62v-8.57Z"/><path class="cls-8" d="M325.55,305l-.27,0H325a1.37,1.37,0,0,1-.44-.06.65.65,0,0,1-.29-.2.82.82,0,0,1-.16-.35,2.43,2.43,0,0,1,0-.53h0a3,3,0,0,1-1,1,2.79,2.79,0,0,1-1.35.29,2.46,2.46,0,0,1-1.6-.5,1.75,1.75,0,0,1-.6-1.43,1.66,1.66,0,0,1,.66-1.43,6.79,6.79,0,0,1,3-.69,2,2,0,0,0,.44-.08.75.75,0,0,0,.29-.16.6.6,0,0,0,.16-.26,1.28,1.28,0,0,0,0-.38,1.24,1.24,0,0,0-.4-1,2,2,0,0,0-1.31-.34,2.61,2.61,0,0,0-.72.09,1.65,1.65,0,0,0-.53.25,1.13,1.13,0,0,0-.33.39,1.23,1.23,0,0,0-.13.49h-.8a2,2,0,0,1,.22-.78,1.78,1.78,0,0,1,.51-.59,2.43,2.43,0,0,1,.81-.38,4,4,0,0,1,1.09-.13,2.64,2.64,0,0,1,1.83.54,2,2,0,0,1,.59,1.52v3.56a.47.47,0,0,0,.11.33.46.46,0,0,0,.36.12.7.7,0,0,0,.25,0ZM324,301.41h0q-.12.22-.77.31l-.67.1-.74.12a2.67,2.67,0,0,0-1.17.44,1,1,0,0,0-.39.84,1.16,1.16,0,0,0,.43.94,1.6,1.6,0,0,0,1,.35,2.36,2.36,0,0,0,1.63-.58,1.85,1.85,0,0,0,.65-1.44Z"/><path class="cls-8" d="M333,301.72a4.77,4.77,0,0,1-.17,1.28,3.38,3.38,0,0,1-.53,1.11,2.69,2.69,0,0,1-.92.79,2.8,2.8,0,0,1-1.33.3,2.9,2.9,0,0,1-.72-.09,2.59,2.59,0,0,1-.66-.27,2.34,2.34,0,0,1-.55-.45,2.18,2.18,0,0,1-.4-.63h0V305H327v-9.08h.8v3.77h0a2,2,0,0,1,.36-.61,2.25,2.25,0,0,1,.54-.45,2.5,2.5,0,0,1,.66-.28,3,3,0,0,1,2,.18,2.62,2.62,0,0,1,.91.75,3.34,3.34,0,0,1,.55,1.1A5,5,0,0,1,333,301.72Zm-.8,0a4.39,4.39,0,0,0,0-.65,3.54,3.54,0,0,0-.16-.64,2.89,2.89,0,0,0-.28-.59,2.08,2.08,0,0,0-.41-.48,1.83,1.83,0,0,0-.55-.32,2,2,0,0,0-.71-.12,2.05,2.05,0,0,0-1.73.85,2.72,2.72,0,0,0-.42.89,3.94,3.94,0,0,0-.14,1.06,4.21,4.21,0,0,0,.13,1,2.67,2.67,0,0,0,.4.9,2.08,2.08,0,0,0,.71.63,2.18,2.18,0,0,0,1.06.24,1.88,1.88,0,0,0,1-.23,2,2,0,0,0,.66-.63,2.9,2.9,0,0,0,.38-.89A4.91,4.91,0,0,0,332.24,301.72Z"/><path class="cls-8" d="M337.48,298.25a2.71,2.71,0,0,1,1.3.29,2.6,2.6,0,0,1,.9.79,3.45,3.45,0,0,1,.52,1.13,5.21,5.21,0,0,1,.17,1.34v.13h-5.05a3.58,3.58,0,0,0,.13.94,2.59,2.59,0,0,0,.39.83,2,2,0,0,0,.66.59,1.92,1.92,0,0,0,.95.22,2.44,2.44,0,0,0,.7-.09,2,2,0,0,0,.56-.26,1.76,1.76,0,0,0,.42-.39,2.41,2.41,0,0,0,.29-.49h.79a3,3,0,0,1-.38.79,2.48,2.48,0,0,1-.59.6,2.68,2.68,0,0,1-.79.39,3.34,3.34,0,0,1-1,.14,2.94,2.94,0,0,1-1.3-.27,2.56,2.56,0,0,1-.91-.73,3.12,3.12,0,0,1-.54-1.1,5.14,5.14,0,0,1-.18-1.37,4.66,4.66,0,0,1,.18-1.28,3.36,3.36,0,0,1,.54-1.11,2.74,2.74,0,0,1,.92-.78A2.79,2.79,0,0,1,337.48,298.25Zm2.09,3a3,3,0,0,0-.16-.85,2.44,2.44,0,0,0-.41-.75,2.07,2.07,0,0,0-.65-.54,1.84,1.84,0,0,0-.88-.21,1.84,1.84,0,0,0-1.5.7,2.7,2.7,0,0,0-.42.75,4.31,4.31,0,0,0-.23.9Z"/><path class="cls-8" d="M342.87,295.92V305h-.8v-9.08Z"/><rect class="cls-2" x="101.5" y="97.5" width="179" height="35"/><path class="cls-11" d="M280,98v34H102V98H280m1-1H101v36H281V97Z"/><g class="cls-6"><path class="cls-7" d="M121.25,110.37v1.27h-4.72v2.28h4.37v1.19h-4.37v2.56h4.8v1.26H115v-8.55Z"/><path class="cls-7" d="M131,118.93v-4a3.44,3.44,0,0,0-.05-.62,1.26,1.26,0,0,0-.19-.49,1,1,0,0,0-.39-.32,1.48,1.48,0,0,0-.63-.12,1.24,1.24,0,0,0-1.06.47,2.29,2.29,0,0,0-.35,1.38v3.74h-1.45v-4.21a1.65,1.65,0,0,0-.28-1,1.1,1.1,0,0,0-.91-.35,1.34,1.34,0,0,0-1.08.48,2,2,0,0,0-.4,1.31v3.81h-1.45v-6.57h1.36v1h0a2.31,2.31,0,0,1,2.06-1.15,2.27,2.27,0,0,1,1.2.29,1.71,1.71,0,0,1,.71.87,2.46,2.46,0,0,1,.87-.87,2.21,2.21,0,0,1,3.47,2v4.48Z"/><path class="cls-7" d="M140.9,115.69a4.54,4.54,0,0,1-.08.85,4.16,4.16,0,0,1-.23.8,3.31,3.31,0,0,1-.4.71,2.58,2.58,0,0,1-.57.56,2.64,2.64,0,0,1-.73.37,2.87,2.87,0,0,1-.91.13,2.61,2.61,0,0,1-.63-.08,2.42,2.42,0,0,1-.58-.22,2.29,2.29,0,0,1-.5-.36,2,2,0,0,1-.38-.5h0v3.33h-1.44v-8.93h1.37v1h0a2.08,2.08,0,0,1,.86-.88,2.59,2.59,0,0,1,1.23-.29,2.88,2.88,0,0,1,1.31.28,2.67,2.67,0,0,1,.93.76,3.31,3.31,0,0,1,.55,1.12A4.85,4.85,0,0,1,140.9,115.69Zm-1.45,0a3.92,3.92,0,0,0-.09-.83,2.38,2.38,0,0,0-.3-.76,1.72,1.72,0,0,0-.56-.56,1.57,1.57,0,0,0-.85-.22,1.6,1.6,0,0,0-1.35.61,2.83,2.83,0,0,0-.47,1.76,3.62,3.62,0,0,0,.1.84,2.35,2.35,0,0,0,.32.75,1.73,1.73,0,0,0,.57.54,1.64,1.64,0,0,0,.85.21,1.56,1.56,0,0,0,1.33-.66,2.18,2.18,0,0,0,.34-.74A3.74,3.74,0,0,0,139.45,115.65Z"/><path class="cls-7" d="M145.75,119l-.28,0h-.55a4.59,4.59,0,0,1-.74-.06,1.58,1.58,0,0,1-.6-.22,1.12,1.12,0,0,1-.4-.45,1.67,1.67,0,0,1-.15-.76v-4.15h-1.29v-1H143v-2h1.45v2H146v1h-1.5v3.72a.83.83,0,0,0,.17.58.8.8,0,0,0,.59.18h.57l.17,0V119Z"/><path class="cls-7" d="M148.06,112.36l1.73,5h0l1.64-5h1.49l-2.81,7.52a3,3,0,0,1-.29.59,1.8,1.8,0,0,1-.4.44,1.71,1.71,0,0,1-.54.28,2.43,2.43,0,0,1-.72.1l-.54,0-.46,0V120l.45.05H148a1,1,0,0,0,.4-.07.76.76,0,0,0,.28-.21,1.39,1.39,0,0,0,.21-.36c.06-.15.12-.32.18-.52l-2.53-6.57Z"/><path class="cls-7" d="M160.76,119l-.28,0h-.55a4.59,4.59,0,0,1-.74-.06,1.58,1.58,0,0,1-.6-.22,1.12,1.12,0,0,1-.4-.45,1.67,1.67,0,0,1-.15-.76v-4.15h-1.29v-1H158v-2h1.45v2H161v1h-1.5v3.72a.83.83,0,0,0,.17.58.8.8,0,0,0,.59.18h.57l.17,0V119Z"/><path class="cls-7" d="M165.15,112.18a3,3,0,0,1,1.34.28,2.79,2.79,0,0,1,1,.77,3.33,3.33,0,0,1,.58,1.13,4.76,4.76,0,0,1,.19,1.37V116h-4.85a2.76,2.76,0,0,0,.13.81,1.91,1.91,0,0,0,.35.63,1.55,1.55,0,0,0,.54.41,1.7,1.7,0,0,0,.72.15,1.9,1.9,0,0,0,1-.23,1.7,1.7,0,0,0,.61-.6h1.37a3.06,3.06,0,0,1-.45.81,2.83,2.83,0,0,1-.66.62,3,3,0,0,1-.85.39,3.66,3.66,0,0,1-1,.13,3.28,3.28,0,0,1-1.33-.26,2.83,2.83,0,0,1-1-.72,3.18,3.18,0,0,1-.62-1.1,4.3,4.3,0,0,1-.22-1.4,4.06,4.06,0,0,1,.22-1.33,3.29,3.29,0,0,1,.63-1.1,3,3,0,0,1,1-.76A3.16,3.16,0,0,1,165.15,112.18Zm1.63,2.85a2.78,2.78,0,0,0-.16-.71,1.72,1.72,0,0,0-.33-.55,1.43,1.43,0,0,0-.5-.36,1.91,1.91,0,0,0-1.37,0,1.51,1.51,0,0,0-.52.36,1.79,1.79,0,0,0-.35.55,2.55,2.55,0,0,0-.17.7Z"/><path class="cls-7" d="M170.6,112.36l1.41,2,1.39-2H175l-2.23,3.11,2.47,3.47h-1.69L172,116.61l-1.61,2.32h-1.66l2.43-3.44-2.23-3.13Z"/><path class="cls-7" d="M179.63,119l-.28,0h-.55a4.59,4.59,0,0,1-.74-.06,1.58,1.58,0,0,1-.6-.22,1.12,1.12,0,0,1-.4-.45,1.67,1.67,0,0,1-.15-.76v-4.15h-1.29v-1h1.29v-2h1.45v2h1.5v1h-1.5v3.72a.83.83,0,0,0,.17.58.8.8,0,0,0,.59.18h.57l.17,0V119Z"/><path class="cls-7" d="M186.67,113.37v5.55h-1.45v-5.55h-1.28v-1h1.28v-.51a2,2,0,0,1,.52-1.52,1.64,1.64,0,0,1,.63-.36,3,3,0,0,1,.9-.12h.43l.52,0V111l-.18,0-.2,0h-.34a.86.86,0,0,0-.65.2,1,1,0,0,0-.18.68v.51h1.44v1Zm3.87-3.88v1.42H189.1V109.5Zm0,2.86v6.57H189.1v-6.57Z"/><path class="cls-7" d="M195.33,112.18a3,3,0,0,1,1.34.28,2.79,2.79,0,0,1,1,.77,3.33,3.33,0,0,1,.58,1.13,4.76,4.76,0,0,1,.19,1.37V116h-4.85a2.76,2.76,0,0,0,.13.81,1.91,1.91,0,0,0,.35.63,1.55,1.55,0,0,0,.54.41,1.7,1.7,0,0,0,.72.15,1.9,1.9,0,0,0,1-.23,1.7,1.7,0,0,0,.61-.6h1.37a3.06,3.06,0,0,1-.45.81,2.83,2.83,0,0,1-.66.62,3,3,0,0,1-.85.39,3.66,3.66,0,0,1-1,.13,3.28,3.28,0,0,1-1.33-.26,2.83,2.83,0,0,1-1-.72,3.18,3.18,0,0,1-.62-1.1,4.3,4.3,0,0,1-.22-1.4,4.06,4.06,0,0,1,.22-1.33,3.29,3.29,0,0,1,.63-1.1,3,3,0,0,1,1-.76A3.16,3.16,0,0,1,195.33,112.18ZM197,115a2.78,2.78,0,0,0-.16-.71,1.72,1.72,0,0,0-.33-.55,1.43,1.43,0,0,0-.5-.36,1.91,1.91,0,0,0-1.37,0,1.51,1.51,0,0,0-.52.36,1.79,1.79,0,0,0-.35.55,2.55,2.55,0,0,0-.17.7Z"/><path class="cls-7" d="M201.42,109.85v9.08H200v-9.08Z"/><path class="cls-7" d="M209.51,109.85v9.08h-1.37v-1h0a2.07,2.07,0,0,1-.37.49,2.16,2.16,0,0,1-.49.37,2.44,2.44,0,0,1-.59.23,2.79,2.79,0,0,1-.67.08,2.72,2.72,0,0,1-1.28-.29,2.76,2.76,0,0,1-.92-.77,3.38,3.38,0,0,1-.56-1.12,4.68,4.68,0,0,1-.19-1.33,4.53,4.53,0,0,1,.18-1.26,3.34,3.34,0,0,1,.54-1.1,2.75,2.75,0,0,1,.91-.77,2.92,2.92,0,0,1,1.92-.22,2.49,2.49,0,0,1,.58.21,2,2,0,0,1,.86.85h0v-3.47Zm-5,5.79a3.62,3.62,0,0,0,.1.82,2.44,2.44,0,0,0,.31.76,1.81,1.81,0,0,0,.56.56,1.5,1.5,0,0,0,.83.22,1.73,1.73,0,0,0,.79-.17,1.58,1.58,0,0,0,.57-.49,2.25,2.25,0,0,0,.35-.75,3.68,3.68,0,0,0,.12-1,3.74,3.74,0,0,0-.1-.84,2.3,2.3,0,0,0-.31-.75,1.72,1.72,0,0,0-.57-.54,1.64,1.64,0,0,0-.85-.21,1.56,1.56,0,0,0-.82.2,1.7,1.7,0,0,0-.55.53,2.35,2.35,0,0,0-.32.75A3.93,3.93,0,0,0,204.49,115.64Z"/><path class="cls-7" d="M216.4,109.85v9.08H215v-9.08Z"/><path class="cls-7" d="M224.48,118.93,224,119l-.39,0a1.79,1.79,0,0,1-.42,0,.91.91,0,0,1-.34-.16.83.83,0,0,1-.24-.29,1.28,1.28,0,0,1-.12-.45h0a2.66,2.66,0,0,1-.45.46,2.31,2.31,0,0,1-.52.31,3.32,3.32,0,0,1-1.31.24,2.42,2.42,0,0,1-1.62-.51,1.77,1.77,0,0,1-.6-1.45,1.7,1.7,0,0,1,.6-1.42,2.11,2.11,0,0,1,.58-.32,4.68,4.68,0,0,1,.73-.2c.26-.05.54-.09.82-.13l.87-.1.34-.07a.8.8,0,0,0,.27-.13.59.59,0,0,0,.17-.22.79.79,0,0,0,.06-.33,1,1,0,0,0-.31-.79,2.12,2.12,0,0,0-2.05,0,1,1,0,0,0-.39.73h-1.45a2,2,0,0,1,.28-.9,2,2,0,0,1,.62-.62,2.88,2.88,0,0,1,.9-.36,5.08,5.08,0,0,1,1.13-.12,3.42,3.42,0,0,1,2,.5,1.65,1.65,0,0,1,.67,1.41v3.54a.47.47,0,0,0,.08.3.33.33,0,0,0,.27.1h.12l.13,0Zm-2-3.35h0a1,1,0,0,1-.54.23l-.48.08-.65.11a2.21,2.21,0,0,0-1,.37.87.87,0,0,0-.32.72.89.89,0,0,0,.37.76,1.48,1.48,0,0,0,.87.24,1.79,1.79,0,0,0,1.27-.43,1.59,1.59,0,0,0,.49-1.24Z"/><path class="cls-7" d="M232.27,115.64a4.84,4.84,0,0,1-.17,1.28,3.47,3.47,0,0,1-.52,1.11,2.65,2.65,0,0,1-.88.79,2.51,2.51,0,0,1-1.25.3,2.93,2.93,0,0,1-1.36-.3,1.9,1.9,0,0,1-.86-.87h0v1h-1.37v-9.08h1.44v3.47h0a1.88,1.88,0,0,1,.36-.47,2.16,2.16,0,0,1,.5-.36,2.68,2.68,0,0,1,.61-.23,2.85,2.85,0,0,1,.68-.08,2.52,2.52,0,0,1,1.24.29,2.65,2.65,0,0,1,.88.78,3.4,3.4,0,0,1,.52,1.11A4.88,4.88,0,0,1,232.27,115.64Zm-1.45,0a3.75,3.75,0,0,0-.09-.82,2.52,2.52,0,0,0-.3-.76,1.71,1.71,0,0,0-.54-.56,1.5,1.5,0,0,0-.83-.22,1.57,1.57,0,0,0-.82.21,1.71,1.71,0,0,0-.56.54,2.4,2.4,0,0,0-.32.75,3.63,3.63,0,0,0,0,1.69,2.37,2.37,0,0,0,.31.76,1.76,1.76,0,0,0,.56.55,1.57,1.57,0,0,0,.84.21,1.49,1.49,0,0,0,.8-.21,1.69,1.69,0,0,0,.54-.54,2.42,2.42,0,0,0,.31-.75A3.94,3.94,0,0,0,230.82,115.65Z"/><path class="cls-7" d="M236.73,112.18a3,3,0,0,1,1.34.28,2.79,2.79,0,0,1,1,.77,3.33,3.33,0,0,1,.58,1.13,4.76,4.76,0,0,1,.19,1.37V116H235a2.76,2.76,0,0,0,.13.81,1.91,1.91,0,0,0,.35.63,1.55,1.55,0,0,0,.54.41,1.7,1.7,0,0,0,.72.15,1.9,1.9,0,0,0,1-.23,1.7,1.7,0,0,0,.61-.6h1.37a3.06,3.06,0,0,1-.45.81,2.83,2.83,0,0,1-.66.62,3,3,0,0,1-.85.39,3.66,3.66,0,0,1-1,.13,3.28,3.28,0,0,1-1.33-.26,2.83,2.83,0,0,1-1-.72,3.18,3.18,0,0,1-.62-1.1,4.3,4.3,0,0,1-.22-1.4,4.06,4.06,0,0,1,.22-1.33,3.29,3.29,0,0,1,.63-1.1,3,3,0,0,1,1-.76A3.16,3.16,0,0,1,236.73,112.18Zm1.63,2.85a2.78,2.78,0,0,0-.16-.71,1.72,1.72,0,0,0-.33-.55,1.43,1.43,0,0,0-.5-.36,1.91,1.91,0,0,0-1.37,0,1.51,1.51,0,0,0-.52.36,1.79,1.79,0,0,0-.35.55,2.55,2.55,0,0,0-.17.7Z"/><path class="cls-7" d="M242.81,109.85v9.08h-1.45v-9.08Z"/></g><path class="cls-8" d="M103.95,80.43V88.3h4.8V89h-5.62V80.43Z"/><path class="cls-8" d="M115.55,89l-.27,0H115a1.37,1.37,0,0,1-.44-.06.65.65,0,0,1-.29-.2.82.82,0,0,1-.16-.35,2.43,2.43,0,0,1,0-.53h0a3,3,0,0,1-1,1,2.79,2.79,0,0,1-1.35.29,2.46,2.46,0,0,1-1.6-.5,1.75,1.75,0,0,1-.6-1.43,1.66,1.66,0,0,1,.66-1.43,6.79,6.79,0,0,1,3-.69,2,2,0,0,0,.44-.08.75.75,0,0,0,.29-.16.6.6,0,0,0,.16-.26,1.28,1.28,0,0,0,0-.38,1.24,1.24,0,0,0-.4-1,2,2,0,0,0-1.31-.34,2.61,2.61,0,0,0-.72.09,1.65,1.65,0,0,0-.53.25,1.13,1.13,0,0,0-.33.39,1.23,1.23,0,0,0-.13.49h-.8a2,2,0,0,1,.22-.78,1.78,1.78,0,0,1,.51-.59,2.43,2.43,0,0,1,.81-.38,4,4,0,0,1,1.09-.13,2.64,2.64,0,0,1,1.83.54,2,2,0,0,1,.59,1.52v3.56a.47.47,0,0,0,.11.33.46.46,0,0,0,.36.12.7.7,0,0,0,.25,0ZM114,85.41h0q-.12.22-.77.31l-.67.1-.74.12a2.67,2.67,0,0,0-1.17.44,1,1,0,0,0-.39.84,1.16,1.16,0,0,0,.43.94,1.6,1.6,0,0,0,1,.35,2.36,2.36,0,0,0,1.63-.58,1.85,1.85,0,0,0,.65-1.44Z"/><path class="cls-8" d="M123,85.72a4.77,4.77,0,0,1-.17,1.28,3.38,3.38,0,0,1-.53,1.11,2.69,2.69,0,0,1-.92.79,2.8,2.8,0,0,1-1.33.3,2.9,2.9,0,0,1-.72-.09,2.59,2.59,0,0,1-.66-.27,2.34,2.34,0,0,1-.55-.45,2.18,2.18,0,0,1-.4-.63h0V89H117V79.92h.8v3.77h0a2,2,0,0,1,.36-.61,2.25,2.25,0,0,1,.54-.45,2.5,2.5,0,0,1,.66-.28,3,3,0,0,1,2,.18,2.62,2.62,0,0,1,.91.75,3.34,3.34,0,0,1,.55,1.1A5,5,0,0,1,123,85.72Zm-.8,0a4.39,4.39,0,0,0,0-.65,3.54,3.54,0,0,0-.16-.64,2.89,2.89,0,0,0-.28-.59,2.08,2.08,0,0,0-.41-.48,1.83,1.83,0,0,0-.55-.32,2,2,0,0,0-.71-.12,2.05,2.05,0,0,0-1.73.85,2.72,2.72,0,0,0-.42.89,3.94,3.94,0,0,0-.14,1.06,4.21,4.21,0,0,0,.13,1,2.67,2.67,0,0,0,.4.9,2.08,2.08,0,0,0,.71.63,2.18,2.18,0,0,0,1.06.24,1.88,1.88,0,0,0,1-.23,2,2,0,0,0,.66-.63,2.9,2.9,0,0,0,.38-.89A4.91,4.91,0,0,0,122.24,85.72Z"/><path class="cls-8" d="M127.48,82.25a2.71,2.71,0,0,1,1.3.29,2.6,2.6,0,0,1,.9.79,3.45,3.45,0,0,1,.52,1.13,5.21,5.21,0,0,1,.17,1.34v.13h-5.05a3.58,3.58,0,0,0,.13.94,2.59,2.59,0,0,0,.39.83,2,2,0,0,0,.66.59,1.92,1.92,0,0,0,.95.22,2.44,2.44,0,0,0,.7-.09,2,2,0,0,0,.56-.26,1.76,1.76,0,0,0,.42-.39,2.41,2.41,0,0,0,.29-.49h.79a3,3,0,0,1-.38.79,2.48,2.48,0,0,1-.59.6,2.68,2.68,0,0,1-.79.39,3.34,3.34,0,0,1-1,.14,2.94,2.94,0,0,1-1.3-.27,2.56,2.56,0,0,1-.91-.73,3.12,3.12,0,0,1-.54-1.1,5.14,5.14,0,0,1-.18-1.37,4.66,4.66,0,0,1,.18-1.28,3.36,3.36,0,0,1,.54-1.11,2.74,2.74,0,0,1,.92-.78A2.79,2.79,0,0,1,127.48,82.25Zm2.09,3a3,3,0,0,0-.16-.85,2.44,2.44,0,0,0-.41-.75,2.07,2.07,0,0,0-.65-.54,1.84,1.84,0,0,0-.88-.21,1.84,1.84,0,0,0-1.5.7,2.7,2.7,0,0,0-.42.75,4.31,4.31,0,0,0-.23.9Z"/><path class="cls-8" d="M132.87,79.92V89h-.8V79.92Z"/><rect class="cls-2" x="101.5" y="169.5" width="179" height="35"/><path class="cls-3" d="M280,170v34H102V170H280m1-1H101v36H281V169Z"/><path class="cls-7" d="M116.55,182.36v8.57H115v-8.57Z"/><path class="cls-7" d="M122,184.18a3.25,3.25,0,0,1,1.1.16,1.8,1.8,0,0,1,.74.49,2,2,0,0,1,.42.81,4.28,4.28,0,0,1,.13,1.12v4.17H123V187a2.11,2.11,0,0,0-.32-1.27,1.19,1.19,0,0,0-1-.43,1.48,1.48,0,0,0-1.23.52,2.28,2.28,0,0,0-.41,1.45v3.63h-1.44v-6.57h1.38v1h0a2.14,2.14,0,0,1,.37-.5,2.24,2.24,0,0,1,.48-.37,2.34,2.34,0,0,1,.57-.23A2.51,2.51,0,0,1,122,184.18Z"/><path class="cls-7" d="M132.77,187.69a4.55,4.55,0,0,1-.08.85,4.15,4.15,0,0,1-.23.8,3.31,3.31,0,0,1-.4.71,2.59,2.59,0,0,1-.57.57,2.64,2.64,0,0,1-.73.37,2.87,2.87,0,0,1-.91.13,2.61,2.61,0,0,1-.63-.08,2.42,2.42,0,0,1-.58-.22,2.29,2.29,0,0,1-.5-.36,2,2,0,0,1-.38-.5h0v3.33h-1.44v-8.93h1.37v1h0a2.08,2.08,0,0,1,.86-.88,2.59,2.59,0,0,1,1.23-.29,2.88,2.88,0,0,1,1.31.28,2.67,2.67,0,0,1,.93.76,3.3,3.3,0,0,1,.55,1.12A4.85,4.85,0,0,1,132.77,187.69Zm-1.45,0a3.92,3.92,0,0,0-.09-.83,2.38,2.38,0,0,0-.3-.76,1.72,1.72,0,0,0-.56-.56,1.57,1.57,0,0,0-.85-.22,1.6,1.6,0,0,0-1.35.61,2.82,2.82,0,0,0-.47,1.75,3.62,3.62,0,0,0,.1.84,2.34,2.34,0,0,0,.32.75,1.73,1.73,0,0,0,.57.54,1.64,1.64,0,0,0,.85.21,1.56,1.56,0,0,0,1.33-.66,2.17,2.17,0,0,0,.34-.74A3.75,3.75,0,0,0,131.33,187.65Z"/><path class="cls-7" d="M138.84,190.93v-1h0a2.25,2.25,0,0,1-.39.52,2.3,2.3,0,0,1-.5.37,2.49,2.49,0,0,1-.58.23,2.54,2.54,0,0,1-.64.08,2.3,2.3,0,0,1-1.78-.63,2.81,2.81,0,0,1-.57-1.95v-4.19h1.44v4a2.89,2.89,0,0,0,.08.7,1.37,1.37,0,0,0,.24.52,1,1,0,0,0,.42.32,1.82,1.82,0,0,0,1.36,0,1.37,1.37,0,0,0,.5-.43,1.86,1.86,0,0,0,.29-.66,3.72,3.72,0,0,0,.09-.85v-3.5h1.44v6.57Z"/><path class="cls-7" d="M145.38,191h-.83a4.59,4.59,0,0,1-.74-.06,1.58,1.58,0,0,1-.6-.22,1.12,1.12,0,0,1-.4-.45,1.67,1.67,0,0,1-.15-.76v-4.15h-1.29v-1h1.29v-2h1.45v2h1.5v1h-1.5v3.72a.83.83,0,0,0,.17.58.8.8,0,0,0,.59.18h.57l.17,0V191Z"/><path class="cls-7" d="M146.87,193.5v-12h1v12Z"/><path class="cls-8" d="M103.95,152.43v7.87h4.8v.7h-5.62v-8.57Z"/><path class="cls-8" d="M115.55,161l-.27,0H115a1.37,1.37,0,0,1-.44-.06.65.65,0,0,1-.29-.2.82.82,0,0,1-.16-.35,2.43,2.43,0,0,1,0-.53h0a3,3,0,0,1-1,1,2.79,2.79,0,0,1-1.35.29,2.46,2.46,0,0,1-1.6-.5,1.75,1.75,0,0,1-.6-1.43,1.66,1.66,0,0,1,.66-1.43,6.79,6.79,0,0,1,3-.69,2,2,0,0,0,.44-.08.75.75,0,0,0,.29-.16.6.6,0,0,0,.16-.26,1.28,1.28,0,0,0,0-.38,1.24,1.24,0,0,0-.4-1,2,2,0,0,0-1.31-.34,2.61,2.61,0,0,0-.72.09,1.65,1.65,0,0,0-.53.25,1.13,1.13,0,0,0-.33.39,1.23,1.23,0,0,0-.13.49h-.8a2,2,0,0,1,.22-.78,1.78,1.78,0,0,1,.51-.59,2.43,2.43,0,0,1,.81-.38,4,4,0,0,1,1.09-.13,2.64,2.64,0,0,1,1.83.54,2,2,0,0,1,.59,1.52v3.56a.47.47,0,0,0,.11.33.46.46,0,0,0,.36.12.7.7,0,0,0,.25,0ZM114,157.41h0q-.12.22-.77.31l-.67.1-.74.12a2.67,2.67,0,0,0-1.17.44,1,1,0,0,0-.39.84,1.16,1.16,0,0,0,.43.94,1.6,1.6,0,0,0,1,.35,2.36,2.36,0,0,0,1.63-.58,1.85,1.85,0,0,0,.65-1.44Z"/><path class="cls-8" d="M123,157.72a4.77,4.77,0,0,1-.17,1.28,3.38,3.38,0,0,1-.53,1.11,2.69,2.69,0,0,1-.92.79,2.8,2.8,0,0,1-1.33.3,2.9,2.9,0,0,1-.72-.09,2.59,2.59,0,0,1-.66-.27,2.34,2.34,0,0,1-.55-.45,2.18,2.18,0,0,1-.4-.63h0V161H117v-9.08h.8v3.77h0a2,2,0,0,1,.36-.61,2.25,2.25,0,0,1,.54-.45,2.5,2.5,0,0,1,.66-.28,3,3,0,0,1,2,.18,2.62,2.62,0,0,1,.91.75,3.34,3.34,0,0,1,.55,1.1A5,5,0,0,1,123,157.72Zm-.8,0a4.39,4.39,0,0,0,0-.65,3.54,3.54,0,0,0-.16-.64,2.89,2.89,0,0,0-.28-.59,2.08,2.08,0,0,0-.41-.48,1.83,1.83,0,0,0-.55-.32,2,2,0,0,0-.71-.12,2.05,2.05,0,0,0-1.73.85,2.72,2.72,0,0,0-.42.89,3.94,3.94,0,0,0-.14,1.06,4.21,4.21,0,0,0,.13,1,2.67,2.67,0,0,0,.4.9,2.08,2.08,0,0,0,.71.63,2.18,2.18,0,0,0,1.06.24,1.88,1.88,0,0,0,1-.23,2,2,0,0,0,.66-.63,2.9,2.9,0,0,0,.38-.89A4.91,4.91,0,0,0,122.24,157.72Z"/><path class="cls-8" d="M127.48,154.25a2.71,2.71,0,0,1,1.3.29,2.6,2.6,0,0,1,.9.79,3.45,3.45,0,0,1,.52,1.13,5.21,5.21,0,0,1,.17,1.34v.13h-5.05a3.58,3.58,0,0,0,.13.94,2.59,2.59,0,0,0,.39.83,2,2,0,0,0,.66.59,1.92,1.92,0,0,0,.95.22,2.44,2.44,0,0,0,.7-.09,2,2,0,0,0,.56-.26,1.76,1.76,0,0,0,.42-.39,2.41,2.41,0,0,0,.29-.49h.79a3,3,0,0,1-.38.79,2.48,2.48,0,0,1-.59.6,2.68,2.68,0,0,1-.79.39,3.34,3.34,0,0,1-1,.14,2.94,2.94,0,0,1-1.3-.27,2.56,2.56,0,0,1-.91-.73,3.12,3.12,0,0,1-.54-1.1,5.14,5.14,0,0,1-.18-1.37,4.66,4.66,0,0,1,.18-1.28,3.36,3.36,0,0,1,.54-1.11,2.74,2.74,0,0,1,.92-.78A2.79,2.79,0,0,1,127.48,154.25Zm2.09,3a3,3,0,0,0-.16-.85,2.44,2.44,0,0,0-.41-.75,2.07,2.07,0,0,0-.65-.54,1.84,1.84,0,0,0-.88-.21,1.84,1.84,0,0,0-1.5.7,2.7,2.7,0,0,0-.42.75,4.31,4.31,0,0,0-.23.9Z"/><path class="cls-8" d="M132.87,151.92V161h-.8v-9.08Z"/><path class="cls-7" d="M116.55,254.36v8.57H115v-8.57Z"/><path class="cls-7" d="M122,256.18a3.25,3.25,0,0,1,1.1.16,1.8,1.8,0,0,1,.74.49,2,2,0,0,1,.42.81,4.28,4.28,0,0,1,.13,1.12v4.17H123V259a2.11,2.11,0,0,0-.32-1.27,1.19,1.19,0,0,0-1-.43,1.48,1.48,0,0,0-1.23.52,2.28,2.28,0,0,0-.41,1.45v3.63h-1.44v-6.57h1.38v1h0a2.14,2.14,0,0,1,.37-.5,2.24,2.24,0,0,1,.48-.37,2.34,2.34,0,0,1,.57-.23A2.51,2.51,0,0,1,122,256.18Z"/><path class="cls-7" d="M132.77,259.69a4.55,4.55,0,0,1-.08.85,4.15,4.15,0,0,1-.23.8,3.31,3.31,0,0,1-.4.71,2.59,2.59,0,0,1-.57.57,2.64,2.64,0,0,1-.73.37,2.87,2.87,0,0,1-.91.13,2.61,2.61,0,0,1-.63-.08,2.42,2.42,0,0,1-.58-.22,2.29,2.29,0,0,1-.5-.36,2,2,0,0,1-.38-.5h0v3.33h-1.44v-8.93h1.37v1h0a2.08,2.08,0,0,1,.86-.88,2.59,2.59,0,0,1,1.23-.29,2.88,2.88,0,0,1,1.31.28,2.67,2.67,0,0,1,.93.76,3.3,3.3,0,0,1,.55,1.12A4.85,4.85,0,0,1,132.77,259.69Zm-1.45,0a3.92,3.92,0,0,0-.09-.83,2.38,2.38,0,0,0-.3-.76,1.72,1.72,0,0,0-.56-.56,1.57,1.57,0,0,0-.85-.22,1.6,1.6,0,0,0-1.35.61,2.82,2.82,0,0,0-.47,1.75,3.62,3.62,0,0,0,.1.84,2.34,2.34,0,0,0,.32.75,1.73,1.73,0,0,0,.57.54,1.64,1.64,0,0,0,.85.21,1.56,1.56,0,0,0,1.33-.66,2.17,2.17,0,0,0,.34-.74A3.75,3.75,0,0,0,131.33,259.65Z"/><path class="cls-7" d="M138.84,262.93v-1h0a2.25,2.25,0,0,1-.39.52,2.3,2.3,0,0,1-.5.37,2.49,2.49,0,0,1-.58.23,2.54,2.54,0,0,1-.64.08,2.3,2.3,0,0,1-1.78-.63,2.81,2.81,0,0,1-.57-1.95v-4.19h1.44v4a2.89,2.89,0,0,0,.08.7,1.37,1.37,0,0,0,.24.52,1,1,0,0,0,.42.32,1.82,1.82,0,0,0,1.36,0,1.37,1.37,0,0,0,.5-.43,1.86,1.86,0,0,0,.29-.66,3.72,3.72,0,0,0,.09-.85v-3.5h1.44v6.57Z"/><path class="cls-7" d="M145.38,263h-.83a4.59,4.59,0,0,1-.74-.06,1.58,1.58,0,0,1-.6-.22,1.12,1.12,0,0,1-.4-.45,1.67,1.67,0,0,1-.15-.76v-4.15h-1.29v-1h1.29v-2h1.45v2h1.5v1h-1.5v3.72a.83.83,0,0,0,.17.58.8.8,0,0,0,.59.18h.57l.17,0V263Z"/><path class="cls-7" d="M153.77,263h-.83a4.59,4.59,0,0,1-.74-.06,1.58,1.58,0,0,1-.6-.22,1.12,1.12,0,0,1-.4-.45,1.67,1.67,0,0,1-.15-.76v-4.15h-1.29v-1h1.29v-2h1.45v2H154v1h-1.5v3.72a.83.83,0,0,0,.17.58.8.8,0,0,0,.59.18h.57l.17,0V263Z"/><path class="cls-7" d="M158.16,256.18a3,3,0,0,1,1.34.28,2.78,2.78,0,0,1,1,.77,3.33,3.33,0,0,1,.58,1.13,4.76,4.76,0,0,1,.19,1.37V260h-4.85a2.77,2.77,0,0,0,.13.81,1.9,1.9,0,0,0,.35.63,1.55,1.55,0,0,0,.54.41,1.7,1.7,0,0,0,.72.15,1.9,1.9,0,0,0,1-.23,1.7,1.7,0,0,0,.61-.6h1.37a3.06,3.06,0,0,1-.45.81,2.83,2.83,0,0,1-.66.62,3,3,0,0,1-.85.39,3.66,3.66,0,0,1-1,.13,3.28,3.28,0,0,1-1.33-.26,2.82,2.82,0,0,1-1-.72,3.18,3.18,0,0,1-.62-1.1,4.31,4.31,0,0,1-.22-1.4,4,4,0,0,1,.22-1.33,3.3,3.3,0,0,1,.63-1.1,3,3,0,0,1,1-.76A3.16,3.16,0,0,1,158.16,256.18ZM159.8,259a2.77,2.77,0,0,0-.16-.71,1.73,1.73,0,0,0-.33-.55,1.43,1.43,0,0,0-.5-.35,1.91,1.91,0,0,0-1.37,0,1.51,1.51,0,0,0-.52.36,1.79,1.79,0,0,0-.35.55,2.54,2.54,0,0,0-.17.7Z"/><path class="cls-7" d="M163.61,256.35l1.41,2,1.39-2H168l-2.23,3.11,2.47,3.47H166.6L165,260.61l-1.61,2.32h-1.66l2.43-3.44-2.23-3.13Z"/><path class="cls-7" d="M172.64,263h-.83a4.59,4.59,0,0,1-.74-.06,1.58,1.58,0,0,1-.6-.22,1.12,1.12,0,0,1-.4-.45,1.67,1.67,0,0,1-.15-.76v-4.15h-1.29v-1h1.29v-2h1.45v2h1.5v1h-1.5v3.72a.83.83,0,0,0,.17.58.8.8,0,0,0,.59.18h.57l.17,0V263Z"/><path class="cls-7" d="M182.17,262.93V259a2.11,2.11,0,0,0-.32-1.27,1.19,1.19,0,0,0-1-.43,1.79,1.79,0,0,0-.72.13,1.33,1.33,0,0,0-.51.39,1.68,1.68,0,0,0-.3.62,3.13,3.13,0,0,0-.1.83v3.63h-1.44v-9.08h1.44v3.5h0a1.94,1.94,0,0,1,.35-.48,2.36,2.36,0,0,1,.47-.37,2.24,2.24,0,0,1,.56-.24,2.32,2.32,0,0,1,.61-.08,3.33,3.33,0,0,1,1.08.16,1.77,1.77,0,0,1,.74.47,2,2,0,0,1,.43.81,4.22,4.22,0,0,1,.14,1.14v4.17Z"/><path class="cls-7" d="M187,253.5v1.42h-1.45V253.5Zm0,2.86v6.57h-1.45v-6.57Z"/><path class="cls-7" d="M191.55,256.18a2.35,2.35,0,0,1,1.2.3,2.12,2.12,0,0,1,.81.85h0v-1H195v6.17a3.42,3.42,0,0,1-.23,1.31,2.39,2.39,0,0,1-.65.92,2.71,2.71,0,0,1-1,.54,4.81,4.81,0,0,1-1.35.18,4.46,4.46,0,0,1-1-.11,2.93,2.93,0,0,1-.86-.33,2.12,2.12,0,0,1-.65-.59,1.76,1.76,0,0,1-.31-.86h1.44a1,1,0,0,0,.49.66,2,2,0,0,0,1,.22,1.64,1.64,0,0,0,1.28-.49,2,2,0,0,0,.44-1.4v-1h0a2,2,0,0,1-.82.84,2.47,2.47,0,0,1-1.22.3,2.92,2.92,0,0,1-1.26-.25,2.46,2.46,0,0,1-.88-.69,3,3,0,0,1-.52-1,4.7,4.7,0,0,1-.17-1.3,4.06,4.06,0,0,1,.18-1.22,3.1,3.1,0,0,1,.54-1,2.67,2.67,0,0,1,.9-.72A2.76,2.76,0,0,1,191.55,256.18Zm-1.42,3.25a3.41,3.41,0,0,0,.11.87,2,2,0,0,0,.32.68,1.48,1.48,0,0,0,.53.44,1.65,1.65,0,0,0,.74.16,1.58,1.58,0,0,0,.75-.17,1.71,1.71,0,0,0,.55-.46,2,2,0,0,0,.34-.66,2.63,2.63,0,0,0,.11-.78,3.51,3.51,0,0,0-.11-.88,2.07,2.07,0,0,0-.32-.71,1.53,1.53,0,0,0-.55-.47,1.68,1.68,0,0,0-.78-.17,1.57,1.57,0,0,0-.77.18,1.53,1.53,0,0,0-.53.48,2.15,2.15,0,0,0-.3.69A3.18,3.18,0,0,0,190.13,259.43Z"/><path class="cls-7" d="M201.36,262.93V259a2.11,2.11,0,0,0-.32-1.27,1.19,1.19,0,0,0-1-.43,1.79,1.79,0,0,0-.72.13,1.33,1.33,0,0,0-.51.39,1.68,1.68,0,0,0-.3.62,3.13,3.13,0,0,0-.1.83v3.63h-1.44v-9.08h1.44v3.5h0a1.94,1.94,0,0,1,.35-.48,2.36,2.36,0,0,1,.47-.37,2.24,2.24,0,0,1,.56-.24,2.32,2.32,0,0,1,.61-.08,3.33,3.33,0,0,1,1.08.16,1.77,1.77,0,0,1,.74.47,2,2,0,0,1,.43.81,4.22,4.22,0,0,1,.14,1.14v4.17Z"/><path class="cls-7" d="M206.2,253.85v9.08h-1.45v-9.08Z"/><path class="cls-7" d="M209.64,253.5v1.42H208.2V253.5Zm0,2.86v6.57H208.2v-6.57Z"/><path class="cls-7" d="M214.18,256.18a2.35,2.35,0,0,1,1.2.3,2.12,2.12,0,0,1,.81.85h0v-1h1.39v6.17a3.42,3.42,0,0,1-.23,1.31,2.39,2.39,0,0,1-.65.92,2.71,2.71,0,0,1-1,.54,4.81,4.81,0,0,1-1.35.18,4.46,4.46,0,0,1-1-.11,2.93,2.93,0,0,1-.86-.33,2.12,2.12,0,0,1-.65-.59,1.76,1.76,0,0,1-.31-.86H213a1,1,0,0,0,.49.66,2,2,0,0,0,1,.22,1.64,1.64,0,0,0,1.28-.49,2,2,0,0,0,.44-1.4v-1h0a2,2,0,0,1-.82.84,2.47,2.47,0,0,1-1.22.3,2.92,2.92,0,0,1-1.26-.25,2.46,2.46,0,0,1-.88-.69,3,3,0,0,1-.52-1,4.7,4.7,0,0,1-.17-1.3,4.06,4.06,0,0,1,.18-1.22,3.1,3.1,0,0,1,.54-1,2.67,2.67,0,0,1,.9-.72A2.76,2.76,0,0,1,214.18,256.18Zm-1.42,3.25a3.41,3.41,0,0,0,.11.87,2,2,0,0,0,.32.68,1.48,1.48,0,0,0,.53.44,1.65,1.65,0,0,0,.74.16,1.58,1.58,0,0,0,.75-.17,1.71,1.71,0,0,0,.55-.46,2,2,0,0,0,.34-.66,2.63,2.63,0,0,0,.11-.78,3.51,3.51,0,0,0-.11-.88,2.07,2.07,0,0,0-.32-.71,1.53,1.53,0,0,0-.55-.47,1.68,1.68,0,0,0-.78-.17,1.57,1.57,0,0,0-.77.18,1.53,1.53,0,0,0-.53.48,2.15,2.15,0,0,0-.3.69A3.18,3.18,0,0,0,212.75,259.43Z"/><path class="cls-7" d="M224,262.93V259a2.11,2.11,0,0,0-.32-1.27,1.19,1.19,0,0,0-1-.43,1.79,1.79,0,0,0-.72.13,1.33,1.33,0,0,0-.51.39,1.68,1.68,0,0,0-.3.62,3.13,3.13,0,0,0-.1.83v3.63h-1.44v-9.08H221v3.5h0a1.94,1.94,0,0,1,.35-.48,2.36,2.36,0,0,1,.47-.37,2.24,2.24,0,0,1,.56-.24,2.32,2.32,0,0,1,.61-.08,3.33,3.33,0,0,1,1.08.16,1.77,1.77,0,0,1,.74.47,2,2,0,0,1,.43.81,4.22,4.22,0,0,1,.14,1.14v4.17Z"/><path class="cls-7" d="M230.6,263h-.83a4.59,4.59,0,0,1-.74-.06,1.58,1.58,0,0,1-.6-.22,1.12,1.12,0,0,1-.4-.45,1.67,1.67,0,0,1-.15-.76v-4.15H226.6v-1h1.29v-2h1.45v2h1.5v1h-1.5v3.72a.83.83,0,0,0,.17.58.8.8,0,0,0,.59.18h.57l.17,0V263Z"/><path class="cls-8" d="M103.95,224.43v7.87h4.8v.7h-5.62v-8.57Z"/><path class="cls-8" d="M115.55,233l-.27,0H115a1.37,1.37,0,0,1-.44-.06.65.65,0,0,1-.29-.2.82.82,0,0,1-.16-.35,2.43,2.43,0,0,1,0-.53h0a3,3,0,0,1-1,1,2.79,2.79,0,0,1-1.35.29,2.46,2.46,0,0,1-1.6-.5,1.75,1.75,0,0,1-.6-1.43,1.66,1.66,0,0,1,.66-1.43,6.79,6.79,0,0,1,3-.69,2,2,0,0,0,.44-.08.75.75,0,0,0,.29-.16.6.6,0,0,0,.16-.26,1.28,1.28,0,0,0,0-.38,1.24,1.24,0,0,0-.4-1,2,2,0,0,0-1.31-.34,2.61,2.61,0,0,0-.72.09,1.65,1.65,0,0,0-.53.25,1.13,1.13,0,0,0-.33.39,1.23,1.23,0,0,0-.13.49h-.8a2,2,0,0,1,.22-.78,1.78,1.78,0,0,1,.51-.59,2.43,2.43,0,0,1,.81-.38,4,4,0,0,1,1.09-.13,2.64,2.64,0,0,1,1.83.54,2,2,0,0,1,.59,1.52v3.56a.47.47,0,0,0,.11.33.46.46,0,0,0,.36.12.7.7,0,0,0,.25,0ZM114,229.41h0q-.12.22-.77.31l-.67.1-.74.12a2.67,2.67,0,0,0-1.17.44,1,1,0,0,0-.39.84,1.16,1.16,0,0,0,.43.94,1.6,1.6,0,0,0,1,.35,2.36,2.36,0,0,0,1.63-.58,1.85,1.85,0,0,0,.65-1.44Z"/><path class="cls-8" d="M123,229.72a4.77,4.77,0,0,1-.17,1.28,3.38,3.38,0,0,1-.53,1.11,2.69,2.69,0,0,1-.92.79,2.8,2.8,0,0,1-1.33.3,2.9,2.9,0,0,1-.72-.09,2.59,2.59,0,0,1-.66-.27,2.34,2.34,0,0,1-.55-.45,2.18,2.18,0,0,1-.4-.63h0V233H117v-9.08h.8v3.77h0a2,2,0,0,1,.36-.61,2.25,2.25,0,0,1,.54-.45,2.5,2.5,0,0,1,.66-.28,3,3,0,0,1,2,.18,2.62,2.62,0,0,1,.91.75,3.34,3.34,0,0,1,.55,1.1A5,5,0,0,1,123,229.72Zm-.8,0a4.39,4.39,0,0,0,0-.65,3.54,3.54,0,0,0-.16-.64,2.89,2.89,0,0,0-.28-.59,2.08,2.08,0,0,0-.41-.48,1.83,1.83,0,0,0-.55-.32,2,2,0,0,0-.71-.12,2.05,2.05,0,0,0-1.73.85,2.72,2.72,0,0,0-.42.89,3.94,3.94,0,0,0-.14,1.06,4.21,4.21,0,0,0,.13,1,2.67,2.67,0,0,0,.4.9,2.08,2.08,0,0,0,.71.63,2.18,2.18,0,0,0,1.06.24,1.88,1.88,0,0,0,1-.23,2,2,0,0,0,.66-.63,2.9,2.9,0,0,0,.38-.89A4.91,4.91,0,0,0,122.24,229.72Z"/><path class="cls-8" d="M127.48,226.25a2.71,2.71,0,0,1,1.3.29,2.6,2.6,0,0,1,.9.79,3.45,3.45,0,0,1,.52,1.13,5.21,5.21,0,0,1,.17,1.34v.13h-5.05a3.58,3.58,0,0,0,.13.94,2.59,2.59,0,0,0,.39.83,2,2,0,0,0,.66.59,1.92,1.92,0,0,0,.95.22,2.44,2.44,0,0,0,.7-.09,2,2,0,0,0,.56-.26,1.76,1.76,0,0,0,.42-.39,2.41,2.41,0,0,0,.29-.49h.79a3,3,0,0,1-.38.79,2.48,2.48,0,0,1-.59.6,2.68,2.68,0,0,1-.79.39,3.34,3.34,0,0,1-1,.14,2.94,2.94,0,0,1-1.3-.27,2.56,2.56,0,0,1-.91-.73,3.12,3.12,0,0,1-.54-1.1,5.14,5.14,0,0,1-.18-1.37,4.66,4.66,0,0,1,.18-1.28,3.36,3.36,0,0,1,.54-1.11,2.74,2.74,0,0,1,.92-.78A2.79,2.79,0,0,1,127.48,226.25Zm2.09,3a3,3,0,0,0-.16-.85,2.44,2.44,0,0,0-.41-.75,2.07,2.07,0,0,0-.65-.54,1.84,1.84,0,0,0-.88-.21,1.84,1.84,0,0,0-1.5.7,2.7,2.7,0,0,0-.42.75,4.31,4.31,0,0,0-.23.9Z"/><path class="cls-8" d="M132.87,223.92V233h-.8v-9.08Z"/></g></svg>