<svg xmlns="http://www.w3.org/2000/svg" viewBox="0 0 360 130"><defs><style>.cls-1{fill:#e1e1e1;}.cls-2{fill:#464646;}.cls-3{fill:#646464;}.cls-4,.cls-5,.cls-6{fill:none;stroke-miterlimit:10;}.cls-4{stroke:#e6e6e6;}.cls-5{stroke:#c8c8c8;}.cls-6{stroke:#d7d7d7;}.cls-7{fill:#fff;}.cls-8{fill:#bebebe;}.cls-9{fill:#3da8ff;}</style></defs><title>Artboard 57</title><g id="Layer_1" data-name="Layer 1"><rect class="cls-1" x="14.38" y="15.66" width="342" height="36"/><path class="cls-2" d="M27.42,64.8v.7H22.32v3.09h4.77v.69H22.32v3.38h5.14v.7h-6V64.8Z"/><path class="cls-2" d="M35.15,71.08a2.15,2.15,0,0,1-.28,1.14,2.26,2.26,0,0,1-.76.76,3.46,3.46,0,0,1-1.1.42,6.16,6.16,0,0,1-1.29.13,4.79,4.79,0,0,1-1.28-.16,3.18,3.18,0,0,1-1-.49,2.35,2.35,0,0,1-.7-.79A2.22,2.22,0,0,1,28.46,71v-.19h.82v.06a1.87,1.87,0,0,0,.16.76,1.65,1.65,0,0,0,.48.62,2.43,2.43,0,0,0,.81.42,3.79,3.79,0,0,0,1.15.16,4,4,0,0,0,.9-.1,2.55,2.55,0,0,0,.79-.32,1.81,1.81,0,0,0,.56-.54,1.38,1.38,0,0,0,.21-.78q0-1.11-1.67-1.52l-2-.49a4,4,0,0,1-.87-.31,2.15,2.15,0,0,1-.6-.44,1.6,1.6,0,0,1-.35-.58,2.24,2.24,0,0,1-.11-.73A2.1,2.1,0,0,1,29,66a2.34,2.34,0,0,1,.68-.76,3.07,3.07,0,0,1,1-.46,4.15,4.15,0,0,1,1.14-.16,4.34,4.34,0,0,1,1.2.16,2.9,2.9,0,0,1,1,.46,2.27,2.27,0,0,1,.64.75,2.24,2.24,0,0,1,.25,1H34a1.6,1.6,0,0,0-.2-.65,1.78,1.78,0,0,0-.46-.53,2.24,2.24,0,0,0-.69-.36,2.81,2.81,0,0,0-.88-.13,3.49,3.49,0,0,0-.91.11,2.15,2.15,0,0,0-.71.33,1.46,1.46,0,0,0-.46.53,1.6,1.6,0,0,0-.16.73,1.2,1.2,0,0,0,.11.52,1.13,1.13,0,0,0,.29.38,1.54,1.54,0,0,0,.43.25,4,4,0,0,0,.53.17l2,.48a3.73,3.73,0,0,1,1.76.85A1.93,1.93,0,0,1,35.15,71.08Z"/><path class="cls-2" d="M39.72,64.79a4.11,4.11,0,0,1,3,1,4.36,4.36,0,0,1,1.07,3.26,4.33,4.33,0,0,1-1.07,3.26,4,4,0,0,1-2.89,1H36.87V64.79Zm-.22,7.87a3.57,3.57,0,0,0,2.61-.83A3.76,3.76,0,0,0,43,69.07a3.82,3.82,0,0,0-.82-2.74,3.73,3.73,0,0,0-2.75-.84H37.69v7.17Z"/><path class="cls-2" d="M27.86,103.24a2.34,2.34,0,0,1-.7,1.8,2.55,2.55,0,0,1-1.8.64h-3v3.67H21.5v-8.57h3.86a2.53,2.53,0,0,1,1.8.65A2.33,2.33,0,0,1,27.86,103.24Zm-.81,0a1.68,1.68,0,0,0-.49-1.29,2.12,2.12,0,0,0-1.49-.46H22.32V105h2.85a2,2,0,0,0,1.35-.45A1.65,1.65,0,0,0,27,103.24Z"/><path class="cls-2" d="M33,100.63a4.19,4.19,0,0,1,1.21.17,3.48,3.48,0,0,1,1,.49,2.86,2.86,0,0,1,1.17,1.79h-.81a2.57,2.57,0,0,0-.34-.7,2.26,2.26,0,0,0-.55-.56,2.67,2.67,0,0,0-.75-.37,3.37,3.37,0,0,0-2.34.17,3,3,0,0,0-1,.82,3.62,3.62,0,0,0-.62,1.2,4.87,4.87,0,0,0-.21,1.44,5.18,5.18,0,0,0,.09.94,4.26,4.26,0,0,0,.26.88,3.67,3.67,0,0,0,.44.78,2.92,2.92,0,0,0,.62.62,2.86,2.86,0,0,0,.81.41,3.23,3.23,0,0,0,1,.15,2.81,2.81,0,0,0,1.06-.19,2.54,2.54,0,0,0,.82-.52,2.7,2.7,0,0,0,.56-.77,3.21,3.21,0,0,0,.29-.93h.81a4.09,4.09,0,0,1-.35,1.2,3.33,3.33,0,0,1-.71,1,3.23,3.23,0,0,1-1.06.67,3.81,3.81,0,0,1-1.42.25,4,4,0,0,1-1.7-.34,3.66,3.66,0,0,1-1.27-.94,4.2,4.2,0,0,1-.79-1.42,5.67,5.67,0,0,1,0-3.45A4.23,4.23,0,0,1,30,102a3.72,3.72,0,0,1,1.27-1A4,4,0,0,1,33,100.63Z"/><path class="cls-2" d="M44.36,107.08a2.15,2.15,0,0,1-.28,1.14,2.26,2.26,0,0,1-.76.76,3.46,3.46,0,0,1-1.1.42,6.16,6.16,0,0,1-1.29.13,4.79,4.79,0,0,1-1.28-.16,3.18,3.18,0,0,1-1-.49,2.35,2.35,0,0,1-.7-.79,2.22,2.22,0,0,1-.25-1.08v-.19h.82v.06a1.87,1.87,0,0,0,.16.76,1.65,1.65,0,0,0,.48.62,2.43,2.43,0,0,0,.81.42,3.79,3.79,0,0,0,1.15.16,4,4,0,0,0,.9-.1,2.55,2.55,0,0,0,.79-.32,1.81,1.81,0,0,0,.56-.54,1.38,1.38,0,0,0,.21-.78q0-1.11-1.67-1.52l-2-.49a4,4,0,0,1-.87-.31,2.15,2.15,0,0,1-.6-.44,1.6,1.6,0,0,1-.35-.58,2.24,2.24,0,0,1-.11-.73,2.1,2.1,0,0,1,.26-1,2.34,2.34,0,0,1,.68-.76,3.08,3.08,0,0,1,1-.46,4.15,4.15,0,0,1,1.14-.16,4.34,4.34,0,0,1,1.2.16,2.9,2.9,0,0,1,1,.46,2.27,2.27,0,0,1,.64.75,2.24,2.24,0,0,1,.25,1h-.81a1.6,1.6,0,0,0-.2-.65,1.78,1.78,0,0,0-.46-.53,2.24,2.24,0,0,0-.69-.36,2.81,2.81,0,0,0-.88-.13,3.49,3.49,0,0,0-.91.11,2.15,2.15,0,0,0-.71.33,1.46,1.46,0,0,0-.46.53,1.6,1.6,0,0,0-.16.73,1.2,1.2,0,0,0,.11.52,1.13,1.13,0,0,0,.29.38,1.54,1.54,0,0,0,.43.25,4,4,0,0,0,.53.17l2,.48a3.73,3.73,0,0,1,1.76.85A1.93,1.93,0,0,1,44.36,107.08Z"/><path class="cls-2" d="M158.78,64.8v.71a13.69,13.69,0,0,0-1.41,1.75,13.19,13.19,0,0,0-1.08,1.91,11.49,11.49,0,0,0-.7,2,12.21,12.21,0,0,0-.31,2.14h-.84a12.81,12.81,0,0,1,.32-2.12,10.52,10.52,0,0,1,.66-1.93A15.67,15.67,0,0,1,158,65.52h-4.79V64.8Z"/><path class="cls-2" d="M163.06,73.54a3.17,3.17,0,0,1-.94-.13,2.34,2.34,0,0,1-.75-.38,2.14,2.14,0,0,1-.54-.62,2.49,2.49,0,0,1-.3-.83h.78a1.7,1.7,0,0,0,.19.51,1.46,1.46,0,0,0,.36.42,1.67,1.67,0,0,0,.52.28,2.15,2.15,0,0,0,.69.1,2,2,0,0,0,1-.25,2.11,2.11,0,0,0,.75-.75,3.82,3.82,0,0,0,.45-1.21,8,8,0,0,0,.15-1.65h0a2.58,2.58,0,0,1-2.31,1.44,2.74,2.74,0,0,1-2.05-.81,2.83,2.83,0,0,1-.8-2.08,2.84,2.84,0,0,1,2.94-2.94,3.09,3.09,0,0,1,1.41.29,2.31,2.31,0,0,1,.93.84,4.2,4.2,0,0,1,.52,1.39,10.4,10.4,0,0,1,.17,2.05,8.43,8.43,0,0,1-.07,1.06,5.56,5.56,0,0,1-.22,1,4.46,4.46,0,0,1-.4.89,2.83,2.83,0,0,1-.6.72,2.67,2.67,0,0,1-.82.48A3.07,3.07,0,0,1,163.06,73.54Zm2.23-6a2.25,2.25,0,0,0-.57-1.63,2.11,2.11,0,0,0-1.59-.59,1.91,1.91,0,0,0-1.49.66,2.26,2.26,0,0,0-.59,1.56,2.4,2.4,0,0,0,.57,1.64,1.92,1.92,0,0,0,1.52.65,2,2,0,0,0,1.54-.63A2.29,2.29,0,0,0,165.29,67.51Z"/><path class="cls-2" d="M168.74,64.79v5.36a2.93,2.93,0,0,0,.61,2,2.41,2.41,0,0,0,1.9.69,2.45,2.45,0,0,0,1.91-.68,2.91,2.91,0,0,0,.61-2V64.79h.82v5.54a3.21,3.21,0,0,1-.85,2.31,3.28,3.28,0,0,1-2.49.9,4.78,4.78,0,0,1-.71-.05,3.74,3.74,0,0,1-.69-.17,3.06,3.06,0,0,1-.63-.31,2.41,2.41,0,0,1-.54-.47,3,3,0,0,1-.57-1,3.82,3.82,0,0,1-.19-1.19V64.79Z"/><path class="cls-2" d="M182.88,71.08a2.15,2.15,0,0,1-.28,1.14,2.26,2.26,0,0,1-.76.76,3.46,3.46,0,0,1-1.1.42,6.16,6.16,0,0,1-1.29.13,4.79,4.79,0,0,1-1.28-.16,3.18,3.18,0,0,1-1-.49,2.35,2.35,0,0,1-.7-.79,2.22,2.22,0,0,1-.25-1.08v-.19H177v.06a1.87,1.87,0,0,0,.16.76,1.65,1.65,0,0,0,.48.62,2.43,2.43,0,0,0,.81.42,3.79,3.79,0,0,0,1.15.16,4,4,0,0,0,.9-.1,2.55,2.55,0,0,0,.79-.32,1.81,1.81,0,0,0,.56-.54,1.38,1.38,0,0,0,.21-.78q0-1.11-1.67-1.52l-2-.49a4,4,0,0,1-.87-.31,2.15,2.15,0,0,1-.6-.44,1.6,1.6,0,0,1-.35-.58,2.24,2.24,0,0,1-.11-.73,2.1,2.1,0,0,1,.26-1,2.34,2.34,0,0,1,.68-.76,3.07,3.07,0,0,1,1-.46,4.15,4.15,0,0,1,1.14-.16,4.34,4.34,0,0,1,1.2.16,2.9,2.9,0,0,1,1,.46,2.27,2.27,0,0,1,.64.75,2.24,2.24,0,0,1,.25,1h-.81a1.6,1.6,0,0,0-.2-.65,1.78,1.78,0,0,0-.46-.53,2.24,2.24,0,0,0-.69-.36,2.81,2.81,0,0,0-.88-.13,3.49,3.49,0,0,0-.91.11,2.15,2.15,0,0,0-.71.33,1.46,1.46,0,0,0-.46.53,1.6,1.6,0,0,0-.16.73,1.2,1.2,0,0,0,.11.52,1.13,1.13,0,0,0,.29.38,1.54,1.54,0,0,0,.43.25,4,4,0,0,0,.53.17l2,.48a3.73,3.73,0,0,1,1.76.85A1.93,1.93,0,0,1,182.88,71.08Z"/><path class="cls-2" d="M185.41,64.79v7.87h4.8v.7h-5.62V64.79Z"/><path class="cls-2" d="M192.2,64.79v7.87H197v.7h-5.62V64.79Z"/><path class="cls-2" d="M197.06,64.79l2.82,4.34,2.81-4.34h1l-3.39,5v3.53h-.81V69.83l-3.37-5Z"/><path class="cls-2" d="M207.42,64.63a2.87,2.87,0,0,1,1.32.29,2.48,2.48,0,0,1,.94.85,4.14,4.14,0,0,1,.57,1.39,8.64,8.64,0,0,1,.19,1.92,5.94,5.94,0,0,1-.77,3.35,2.82,2.82,0,0,1-4.49,0,5.89,5.89,0,0,1-.77-3.34,5.89,5.89,0,0,1,.77-3.35A2.56,2.56,0,0,1,207.42,64.63Zm-2.23,4.45q0,3.81,2.23,3.81t2.24-3.81a5.64,5.64,0,0,0-.57-2.84,1.84,1.84,0,0,0-1.68-1,1.82,1.82,0,0,0-1.65.94A5.63,5.63,0,0,0,205.19,69.08Z"/><path class="cls-2" d="M214.69,64.63a2.87,2.87,0,0,1,1.32.29,2.48,2.48,0,0,1,.94.85,4.14,4.14,0,0,1,.57,1.39,8.64,8.64,0,0,1,.19,1.92,5.94,5.94,0,0,1-.77,3.35,2.82,2.82,0,0,1-4.49,0,5.89,5.89,0,0,1-.77-3.34,5.89,5.89,0,0,1,.77-3.35A2.56,2.56,0,0,1,214.69,64.63Zm-2.23,4.45q0,3.81,2.23,3.81t2.24-3.81a5.64,5.64,0,0,0-.57-2.84,1.84,1.84,0,0,0-1.68-1,1.82,1.82,0,0,0-1.65.94A5.63,5.63,0,0,0,212.46,69.08Z"/><path class="cls-2" d="M222,73.36V66.93h-2.29v-.56q.53,0,.9-.06a2.36,2.36,0,0,0,.57-.13,1.31,1.31,0,0,0,.64-.52,2.46,2.46,0,0,0,.31-1h.63v8.65Z"/><path class="cls-2" d="M229.15,64.63a3.58,3.58,0,0,1,1,.13,2.66,2.66,0,0,1,.85.41,2.08,2.08,0,0,1,.6.69,2,2,0,0,1,.23,1,2.22,2.22,0,0,1-.1.66,1.82,1.82,0,0,1-.28.56,1.77,1.77,0,0,1-.46.42,2.14,2.14,0,0,1-.62.27v0a2.06,2.06,0,0,1,1.33.74,2.21,2.21,0,0,1,.45,1.39,2.41,2.41,0,0,1-.84,1.91,2.78,2.78,0,0,1-1,.55,3.79,3.79,0,0,1-1.21.18,3.65,3.65,0,0,1-1.12-.17,2.8,2.8,0,0,1-.92-.49,2.34,2.34,0,0,1-.63-.78,2.28,2.28,0,0,1-.23-1v-.18H227v.16a1.75,1.75,0,0,0,.56,1.28,2,2,0,0,0,.66.4,2.44,2.44,0,0,0,.88.15,2.71,2.71,0,0,0,.91-.13,2.2,2.2,0,0,0,.69-.4,1.7,1.7,0,0,0,.64-1.38,1.89,1.89,0,0,0-.14-.75,1.64,1.64,0,0,0-.42-.58,2.22,2.22,0,0,0-1.53-.5h-.64v-.66h.69a1.86,1.86,0,0,0,1.21-.42,1.42,1.42,0,0,0,.52-1.15,1.59,1.59,0,0,0-.15-.71,1.48,1.48,0,0,0-.4-.51,1.74,1.74,0,0,0-.6-.31,2.56,2.56,0,0,0-.73-.1,2.1,2.1,0,0,0-.81.15,1.78,1.78,0,0,0-1,1,2,2,0,0,0-.13.73h-.78a2.44,2.44,0,0,1,.19-.92,2.53,2.53,0,0,1,.53-.82,2.7,2.7,0,0,1,.86-.59A2.81,2.81,0,0,1,229.15,64.63Z"/><path class="cls-2" d="M155.79,109.54a3.17,3.17,0,0,1-.94-.13,2.34,2.34,0,0,1-.75-.38,2.14,2.14,0,0,1-.54-.62,2.49,2.49,0,0,1-.3-.83H154a1.7,1.7,0,0,0,.19.51,1.46,1.46,0,0,0,.36.42,1.67,1.67,0,0,0,.52.28,2.15,2.15,0,0,0,.69.1,2,2,0,0,0,1-.25,2.11,2.11,0,0,0,.75-.75,3.82,3.82,0,0,0,.45-1.21,8,8,0,0,0,.15-1.65h0a2.58,2.58,0,0,1-2.31,1.44,2.74,2.74,0,0,1-2.05-.81,2.83,2.83,0,0,1-.8-2.08,2.84,2.84,0,0,1,2.94-2.94,3.09,3.09,0,0,1,1.41.29,2.31,2.31,0,0,1,.93.84,4.2,4.2,0,0,1,.52,1.39,10.4,10.4,0,0,1,.17,2.05,8.43,8.43,0,0,1-.07,1.06,5.56,5.56,0,0,1-.22,1,4.46,4.46,0,0,1-.4.89,2.83,2.83,0,0,1-.6.72,2.67,2.67,0,0,1-.82.48A3.07,3.07,0,0,1,155.79,109.54Zm2.23-6a2.25,2.25,0,0,0-.57-1.63,2.11,2.11,0,0,0-1.59-.59,1.91,1.91,0,0,0-1.49.66,2.26,2.26,0,0,0-.59,1.56,2.4,2.4,0,0,0,.57,1.64,1.92,1.92,0,0,0,1.52.65,2,2,0,0,0,1.54-.63A2.29,2.29,0,0,0,158,103.51Z"/><path class="cls-2" d="M164.94,107.21v2.15h-.71v-2.15h-4v-.75l4-5.75h.7v5.85h1.3v.66Zm-.71-5.36h0l-3.27,4.71h3.29Z"/><path class="cls-2" d="M168.74,100.79v5.36a2.93,2.93,0,0,0,.61,2,2.41,2.41,0,0,0,1.9.69,2.45,2.45,0,0,0,1.91-.68,2.91,2.91,0,0,0,.61-2v-5.36h.82v5.54a3.21,3.21,0,0,1-.85,2.31,3.28,3.28,0,0,1-2.49.9,4.78,4.78,0,0,1-.71-.05,3.74,3.74,0,0,1-.69-.17,3.06,3.06,0,0,1-.63-.31,2.41,2.41,0,0,1-.54-.47,3,3,0,0,1-.57-1,3.82,3.82,0,0,1-.19-1.19v-5.54Z"/><path class="cls-2" d="M177.6,100.79v8.57h-.81v-8.57Z"/><path class="cls-2" d="M182.36,100.63a3.58,3.58,0,0,1,1,.13,2.66,2.66,0,0,1,.85.41,2.08,2.08,0,0,1,.6.69,2,2,0,0,1,.23,1,2.22,2.22,0,0,1-.1.66,1.82,1.82,0,0,1-.28.56,1.77,1.77,0,0,1-.46.42,2.14,2.14,0,0,1-.62.27v0a2.06,2.06,0,0,1,1.33.74,2.21,2.21,0,0,1,.45,1.39,2.41,2.41,0,0,1-.84,1.91,2.78,2.78,0,0,1-1,.55,3.79,3.79,0,0,1-1.21.18,3.65,3.65,0,0,1-1.12-.17,2.8,2.8,0,0,1-.92-.49,2.34,2.34,0,0,1-.63-.78,2.28,2.28,0,0,1-.23-1v-.18h.79v.16a1.75,1.75,0,0,0,.56,1.28,2,2,0,0,0,.66.4,2.44,2.44,0,0,0,.88.15,2.71,2.71,0,0,0,.91-.13,2.2,2.2,0,0,0,.69-.4,1.7,1.7,0,0,0,.64-1.38,1.89,1.89,0,0,0-.14-.75,1.64,1.64,0,0,0-.42-.58,2.22,2.22,0,0,0-1.53-.5h-.64v-.66h.69a1.86,1.86,0,0,0,1.21-.42,1.42,1.42,0,0,0,.52-1.15,1.59,1.59,0,0,0-.15-.71,1.48,1.48,0,0,0-.4-.51,1.74,1.74,0,0,0-.6-.31,2.56,2.56,0,0,0-.73-.1,2.1,2.1,0,0,0-.81.15,1.78,1.78,0,0,0-1,1,2,2,0,0,0-.13.73h-.78a2.44,2.44,0,0,1,.19-.92,2.53,2.53,0,0,1,.53-.82,2.7,2.7,0,0,1,.86-.59A2.81,2.81,0,0,1,182.36,100.63Z"/><path class="cls-2" d="M189.69,100.63a2.87,2.87,0,0,1,1.32.29,2.48,2.48,0,0,1,.94.85,4.14,4.14,0,0,1,.57,1.39,8.64,8.64,0,0,1,.19,1.92,5.94,5.94,0,0,1-.77,3.35,2.82,2.82,0,0,1-4.49,0,7.62,7.62,0,0,1,0-6.69A2.56,2.56,0,0,1,189.69,100.63Zm-2.23,4.45q0,3.81,2.23,3.81t2.24-3.81a5.64,5.64,0,0,0-.57-2.84,1.84,1.84,0,0,0-1.68-1,1.82,1.82,0,0,0-1.65.94A5.63,5.63,0,0,0,187.45,105.08Z"/><path class="cls-2" d="M197,109.36v-6.43h-2.29v-.56q.53,0,.9-.06a2.36,2.36,0,0,0,.57-.13,1.31,1.31,0,0,0,.64-.52,2.46,2.46,0,0,0,.31-1h.63v8.65Z"/><path class="cls-2" d="M204.47,100.63a3.17,3.17,0,0,1,.94.13,2.35,2.35,0,0,1,.75.38,2.14,2.14,0,0,1,.54.62,2.49,2.49,0,0,1,.29.83h-.78a1.7,1.7,0,0,0-.19-.51,1.45,1.45,0,0,0-.35-.42,1.67,1.67,0,0,0-.52-.28,2.16,2.16,0,0,0-.7-.1,2,2,0,0,0-1,.25,2.1,2.1,0,0,0-.75.75,3.82,3.82,0,0,0-.46,1.21,8,8,0,0,0-.15,1.65h0a2.58,2.58,0,0,1,2.31-1.44,2.74,2.74,0,0,1,2.05.81,2.83,2.83,0,0,1,.8,2.08,2.84,2.84,0,0,1-2.94,2.94,3.09,3.09,0,0,1-1.41-.29,2.31,2.31,0,0,1-.93-.84,4.2,4.2,0,0,1-.52-1.39,10.39,10.39,0,0,1-.17-2.05,8.43,8.43,0,0,1,.07-1.06,5.56,5.56,0,0,1,.22-1,4.46,4.46,0,0,1,.4-.89,2.83,2.83,0,0,1,.6-.72,2.66,2.66,0,0,1,.82-.48A3.07,3.07,0,0,1,204.47,100.63Zm-2.23,6a2.25,2.25,0,0,0,.57,1.63,2.11,2.11,0,0,0,1.59.59,1.91,1.91,0,0,0,1.49-.66,2.26,2.26,0,0,0,.59-1.56,2.4,2.4,0,0,0-.57-1.64,1.93,1.93,0,0,0-1.52-.65,2,2,0,0,0-1.54.63A2.3,2.3,0,0,0,202.24,106.67Z"/><path class="cls-2" d="M211.83,100.79a4.11,4.11,0,0,1,3,1,5.51,5.51,0,0,1,0,6.52,4,4,0,0,1-2.89,1H209v-8.57Zm-.22,7.87a3.57,3.57,0,0,0,2.61-.83,3.76,3.76,0,0,0,.84-2.75,3.82,3.82,0,0,0-.82-2.74,3.73,3.73,0,0,0-2.75-.84H209.8v7.17Z"/><path class="cls-3" d="M28.06,31.43a2.54,2.54,0,0,1-.75,1.92,2.51,2.51,0,0,1-.88.54,3.33,3.33,0,0,1-1.13.18h-2.4v3.29h-1.5V28.79h3.9a2.79,2.79,0,0,1,2,.72A2.51,2.51,0,0,1,28.06,31.43Zm-1.46,0a1.36,1.36,0,0,0-.42-1.09A2,2,0,0,0,24.87,30h-2v2.9h2a2.78,2.78,0,0,0,.72-.08,1.28,1.28,0,0,0,1-1.36Z"/><path class="cls-3" d="M29.36,37.36V30.78h1.37v1.34h0A2.4,2.4,0,0,1,31.62,31a2.23,2.23,0,0,1,1.29-.39h.21l.2,0V32l-.25,0h-.28a1.84,1.84,0,0,0-1.48.6,2.36,2.36,0,0,0-.51,1.57v3.18Z"/><path class="cls-3" d="M40.77,34.08a4.09,4.09,0,0,1-.23,1.38,3.1,3.1,0,0,1-.68,1.11,3,3,0,0,1-1,.73,3.49,3.49,0,0,1-1.36.25,3.12,3.12,0,0,1-2.38-1,3.94,3.94,0,0,1,0-5,3.1,3.1,0,0,1,2.39-1,3.15,3.15,0,0,1,2.4,1A3.54,3.54,0,0,1,40.77,34.08Zm-1.45,0a3.59,3.59,0,0,0-.11-.92,2.21,2.21,0,0,0-.35-.75,1.68,1.68,0,0,0-.58-.5,1.75,1.75,0,0,0-.83-.18,1.71,1.71,0,0,0-.77.17,1.62,1.62,0,0,0-.57.48,2.23,2.23,0,0,0-.36.74,3.79,3.79,0,0,0,0,1.9,2.19,2.19,0,0,0,.35.74,1.67,1.67,0,0,0,.58.49,1.7,1.7,0,0,0,.79.18,1.72,1.72,0,0,0,.79-.18,1.68,1.68,0,0,0,.58-.49A2.24,2.24,0,0,0,39.2,35,3.41,3.41,0,0,0,39.32,34.08Z"/><path class="cls-3" d="M45.37,30.61a4.08,4.08,0,0,1,1.06.13,2.82,2.82,0,0,1,.89.41,2.27,2.27,0,0,1,.64.68,2.3,2.3,0,0,1,.31.95H46.85a1.21,1.21,0,0,0-.47-.78,1.69,1.69,0,0,0-1-.27,1.53,1.53,0,0,0-.81.21,1.8,1.8,0,0,0-.57.54,2.44,2.44,0,0,0-.33.76,3.42,3.42,0,0,0,0,1.67,2.42,2.42,0,0,0,.32.75,1.78,1.78,0,0,0,.56.55,1.51,1.51,0,0,0,.82.21,1.81,1.81,0,0,0,.6-.09,1.48,1.48,0,0,0,.47-.26,1.4,1.4,0,0,0,.33-.41,1.75,1.75,0,0,0,.18-.52h1.4a3.08,3.08,0,0,1-.33,1,2.59,2.59,0,0,1-.62.76,2.78,2.78,0,0,1-.89.49,3.49,3.49,0,0,1-1.14.18A3.33,3.33,0,0,1,44,37.29a3,3,0,0,1-1-.71,3.22,3.22,0,0,1-.67-1.08,3.83,3.83,0,0,1-.24-1.37,4.25,4.25,0,0,1,.21-1.36,3.31,3.31,0,0,1,.63-1.12,3,3,0,0,1,1-.76A3.33,3.33,0,0,1,45.37,30.61Z"/><path class="cls-3" d="M52.72,30.61a3,3,0,0,1,1.34.28,2.78,2.78,0,0,1,1,.77,3.33,3.33,0,0,1,.58,1.13,4.76,4.76,0,0,1,.19,1.37v.26H50.95a2.77,2.77,0,0,0,.13.81,1.9,1.9,0,0,0,.35.63,1.55,1.55,0,0,0,.54.41,1.7,1.7,0,0,0,.72.15,1.9,1.9,0,0,0,1-.23,1.7,1.7,0,0,0,.61-.6h1.37a3.06,3.06,0,0,1-.45.81,2.83,2.83,0,0,1-.66.62,3,3,0,0,1-.85.39,3.66,3.66,0,0,1-1,.13,3.28,3.28,0,0,1-1.33-.26,2.82,2.82,0,0,1-1-.72,3.18,3.18,0,0,1-.62-1.1,4.31,4.31,0,0,1-.22-1.4,4,4,0,0,1,.22-1.33,3.3,3.3,0,0,1,.63-1.1,3,3,0,0,1,1-.76A3.16,3.16,0,0,1,52.72,30.61Zm1.63,2.85a2.77,2.77,0,0,0-.16-.71,1.73,1.73,0,0,0-.33-.55,1.43,1.43,0,0,0-.5-.35,1.91,1.91,0,0,0-1.37,0,1.51,1.51,0,0,0-.52.36,1.79,1.79,0,0,0-.35.55,2.54,2.54,0,0,0-.17.7Z"/><path class="cls-3" d="M62.75,35.37a2,2,0,0,1-.23,1,2,2,0,0,1-.61.68,2.7,2.7,0,0,1-.91.39,4.79,4.79,0,0,1-1.12.13,4.56,4.56,0,0,1-1.08-.12,2.74,2.74,0,0,1-.89-.38,2.14,2.14,0,0,1-.63-.65,2.2,2.2,0,0,1-.3-.94h1.39a1.15,1.15,0,0,0,.51.8,1.51,1.51,0,0,0,.46.2,2.2,2.2,0,0,0,.56.07,2.4,2.4,0,0,0,.53-.06,1.46,1.46,0,0,0,.45-.18,1,1,0,0,0,.32-.31.78.78,0,0,0,.12-.44.61.61,0,0,0-.1-.35.9.9,0,0,0-.27-.26,1.81,1.81,0,0,0-.4-.18l-.47-.13-.93-.22a6,6,0,0,1-.91-.28,2.37,2.37,0,0,1-.63-.37,1.33,1.33,0,0,1-.37-.49,1.57,1.57,0,0,1-.12-.63,1.77,1.77,0,0,1,.21-.89,1.84,1.84,0,0,1,.58-.63,2.69,2.69,0,0,1,.87-.37,4.46,4.46,0,0,1,1.07-.12,3.88,3.88,0,0,1,1.06.13,2.61,2.61,0,0,1,.82.38,1.9,1.9,0,0,1,.54.59,2,2,0,0,1,.25.77H61.14a1,1,0,0,0-.45-.65,1.65,1.65,0,0,0-.91-.23,2.3,2.3,0,0,0-.47,0,1.27,1.27,0,0,0-.39.14.77.77,0,0,0-.26.25.65.65,0,0,0-.1.36.6.6,0,0,0,.1.35.91.91,0,0,0,.26.25,1.47,1.47,0,0,0,.35.16l.37.1L61,33.6a4.37,4.37,0,0,1,.68.22,2,2,0,0,1,.54.34,1.47,1.47,0,0,1,.37.5A1.84,1.84,0,0,1,62.75,35.37Z"/><path class="cls-3" d="M69.77,35.37a2,2,0,0,1-.23,1,2,2,0,0,1-.61.68,2.7,2.7,0,0,1-.91.39,4.79,4.79,0,0,1-1.12.13,4.56,4.56,0,0,1-1.08-.12,2.74,2.74,0,0,1-.89-.38,2.14,2.14,0,0,1-.63-.65,2.2,2.2,0,0,1-.3-.94h1.39a1.15,1.15,0,0,0,.51.8,1.51,1.51,0,0,0,.46.2,2.2,2.2,0,0,0,.56.07,2.4,2.4,0,0,0,.53-.06,1.46,1.46,0,0,0,.45-.18,1,1,0,0,0,.32-.31.78.78,0,0,0,.12-.44.61.61,0,0,0-.1-.35.9.9,0,0,0-.27-.26,1.81,1.81,0,0,0-.4-.18l-.47-.13-.93-.22a6,6,0,0,1-.91-.28,2.37,2.37,0,0,1-.63-.37,1.33,1.33,0,0,1-.37-.49,1.57,1.57,0,0,1-.12-.63,1.77,1.77,0,0,1,.21-.89,1.84,1.84,0,0,1,.58-.63,2.69,2.69,0,0,1,.87-.37,4.46,4.46,0,0,1,1.07-.12,3.88,3.88,0,0,1,1.06.13,2.61,2.61,0,0,1,.82.38,1.9,1.9,0,0,1,.54.59,2,2,0,0,1,.25.77H68.16a1,1,0,0,0-.45-.65,1.65,1.65,0,0,0-.91-.23,2.3,2.3,0,0,0-.47,0,1.27,1.27,0,0,0-.39.14.77.77,0,0,0-.26.25.65.65,0,0,0-.1.36.6.6,0,0,0,.1.35.91.91,0,0,0,.26.25,1.47,1.47,0,0,0,.35.16l.37.1L68,33.6a4.37,4.37,0,0,1,.68.22,2,2,0,0,1,.54.34,1.47,1.47,0,0,1,.37.5A1.84,1.84,0,0,1,69.77,35.37Z"/><path class="cls-3" d="M81.28,34.91a2.36,2.36,0,0,1-.29,1.2,2.41,2.41,0,0,1-.78.82,3.5,3.5,0,0,1-1.13.47,5.89,5.89,0,0,1-1.34.15,5.17,5.17,0,0,1-1.37-.17,3.37,3.37,0,0,1-1.1-.51,2.49,2.49,0,0,1-.74-.84,2.38,2.38,0,0,1-.27-1.15v-.1h1.47v.05a1.33,1.33,0,0,0,.16.67,1.4,1.4,0,0,0,.45.48,2.11,2.11,0,0,0,.67.28,3.62,3.62,0,0,0,1.58,0,2.05,2.05,0,0,0,.63-.25,1.3,1.3,0,0,0,.42-.41,1.06,1.06,0,0,0,.16-.58.93.93,0,0,0-.37-.76,3.25,3.25,0,0,0-1.16-.51l-1.84-.49A2.83,2.83,0,0,1,75,32.51a2,2,0,0,1-.47-1.39A2.24,2.24,0,0,1,74.79,30a2.36,2.36,0,0,1,.7-.79,3.22,3.22,0,0,1,1-.48,4.62,4.62,0,0,1,1.25-.16,4.67,4.67,0,0,1,1.19.15,3.23,3.23,0,0,1,1,.45,2.32,2.32,0,0,1,.71.77A2.25,2.25,0,0,1,81,31.06H79.5a1.25,1.25,0,0,0-.16-.52,1.27,1.27,0,0,0-.37-.4,1.8,1.8,0,0,0-.55-.26,2.49,2.49,0,0,0-.71-.09,2.92,2.92,0,0,0-.67.07,1.75,1.75,0,0,0-.55.23,1.15,1.15,0,0,0-.37.38A1.05,1.05,0,0,0,76,31a1,1,0,0,0,.07.39.8.8,0,0,0,.2.28,1.07,1.07,0,0,0,.31.19A3.06,3.06,0,0,0,77,32l2,.53a3.69,3.69,0,0,1,1.7.87A2,2,0,0,1,81.28,34.91Z"/><path class="cls-3" d="M85.58,30.61a3,3,0,0,1,1.34.28,2.78,2.78,0,0,1,1,.77,3.33,3.33,0,0,1,.58,1.13,4.76,4.76,0,0,1,.19,1.37v.26H83.81a2.77,2.77,0,0,0,.13.81,1.9,1.9,0,0,0,.35.63,1.55,1.55,0,0,0,.54.41,1.7,1.7,0,0,0,.72.15,1.9,1.9,0,0,0,1-.23,1.7,1.7,0,0,0,.61-.6h1.37a3.06,3.06,0,0,1-.45.81,2.83,2.83,0,0,1-.66.62,3,3,0,0,1-.85.39,3.66,3.66,0,0,1-1,.13,3.28,3.28,0,0,1-1.33-.26,2.82,2.82,0,0,1-1-.72,3.18,3.18,0,0,1-.62-1.1,4.31,4.31,0,0,1-.22-1.4,4,4,0,0,1,.22-1.33,3.3,3.3,0,0,1,.63-1.1,3,3,0,0,1,1-.76A3.16,3.16,0,0,1,85.58,30.61Zm1.63,2.85a2.77,2.77,0,0,0-.16-.71,1.73,1.73,0,0,0-.33-.55,1.43,1.43,0,0,0-.5-.35,1.91,1.91,0,0,0-1.37,0,1.51,1.51,0,0,0-.52.36,1.79,1.79,0,0,0-.35.55,2.54,2.54,0,0,0-.17.7Z"/><path class="cls-3" d="M93.21,30.61a4.08,4.08,0,0,1,1.06.13,2.82,2.82,0,0,1,.89.41,2.27,2.27,0,0,1,.64.68,2.3,2.3,0,0,1,.31.95H94.69a1.21,1.21,0,0,0-.47-.78,1.69,1.69,0,0,0-1-.27,1.53,1.53,0,0,0-.81.21,1.8,1.8,0,0,0-.57.54,2.44,2.44,0,0,0-.33.76,3.42,3.42,0,0,0,0,1.67,2.42,2.42,0,0,0,.32.75,1.78,1.78,0,0,0,.56.55,1.51,1.51,0,0,0,.82.21,1.81,1.81,0,0,0,.6-.09,1.48,1.48,0,0,0,.47-.26,1.4,1.4,0,0,0,.33-.41,1.75,1.75,0,0,0,.18-.52h1.4a3.08,3.08,0,0,1-.33,1,2.59,2.59,0,0,1-.62.76,2.78,2.78,0,0,1-.89.49,3.49,3.49,0,0,1-1.14.18,3.33,3.33,0,0,1-1.32-.25,3,3,0,0,1-1-.71,3.22,3.22,0,0,1-.67-1.08,3.83,3.83,0,0,1-.24-1.37,4.25,4.25,0,0,1,.21-1.36,3.31,3.31,0,0,1,.63-1.12,3,3,0,0,1,1-.76A3.33,3.33,0,0,1,93.21,30.61Z"/><path class="cls-3" d="M101.07,37.41h-.83a4.59,4.59,0,0,1-.74-.06,1.58,1.58,0,0,1-.6-.22,1.12,1.12,0,0,1-.4-.45,1.67,1.67,0,0,1-.15-.76V31.8H97.07v-1h1.29v-2H99.8v2h1.5v1H99.8v3.72a.83.83,0,0,0,.17.58.8.8,0,0,0,.59.18h.57l.17,0v1.14Z"/><path class="cls-3" d="M104.21,27.92v1.42h-1.45V27.92Zm0,2.86v6.57h-1.45V30.78Z"/><path class="cls-3" d="M112.48,34.08a4.09,4.09,0,0,1-.23,1.38,3.1,3.1,0,0,1-.68,1.11,3,3,0,0,1-1,.73,3.49,3.49,0,0,1-1.36.25,3.12,3.12,0,0,1-2.38-1,3.94,3.94,0,0,1,0-5,3.1,3.1,0,0,1,2.39-1,3.15,3.15,0,0,1,2.4,1A3.54,3.54,0,0,1,112.48,34.08Zm-1.45,0a3.59,3.59,0,0,0-.11-.92,2.21,2.21,0,0,0-.35-.75,1.68,1.68,0,0,0-.58-.5,1.75,1.75,0,0,0-.83-.18,1.71,1.71,0,0,0-.77.17,1.62,1.62,0,0,0-.57.48,2.23,2.23,0,0,0-.36.74,3.79,3.79,0,0,0,0,1.9,2.19,2.19,0,0,0,.35.74,1.67,1.67,0,0,0,.58.49,1.7,1.7,0,0,0,.79.18,1.72,1.72,0,0,0,.79-.18,1.68,1.68,0,0,0,.58-.49,2.24,2.24,0,0,0,.36-.74A3.41,3.41,0,0,0,111,34.08Z"/><path class="cls-3" d="M117.6,30.61a3.25,3.25,0,0,1,1.1.16,1.8,1.8,0,0,1,.74.49,2,2,0,0,1,.42.81,4.28,4.28,0,0,1,.13,1.12v4.17h-1.44v-3.9a2.11,2.11,0,0,0-.32-1.27,1.19,1.19,0,0,0-1-.43,1.48,1.48,0,0,0-1.23.52,2.28,2.28,0,0,0-.41,1.45v3.63h-1.44V30.78h1.38v1h0a2.14,2.14,0,0,1,.37-.5,2.24,2.24,0,0,1,.48-.37,2.34,2.34,0,0,1,.57-.23A2.51,2.51,0,0,1,117.6,30.61Z"/><path class="cls-3" d="M160.45,28.79v1.27h-2.72v7.3h-1.49v-7.3h-2.72V28.79Z"/><path class="cls-3" d="M166.72,37.36l-.44.09-.39,0a1.79,1.79,0,0,1-.42,0,.91.91,0,0,1-.34-.16.84.84,0,0,1-.24-.29,1.28,1.28,0,0,1-.12-.45h0a2.67,2.67,0,0,1-.45.46,2.3,2.3,0,0,1-.52.31,3.32,3.32,0,0,1-1.31.24,2.42,2.42,0,0,1-1.62-.51,1.77,1.77,0,0,1-.6-1.45,1.7,1.7,0,0,1,.6-1.42,2.11,2.11,0,0,1,.58-.32,4.68,4.68,0,0,1,.73-.2q.39-.08.82-.13l.87-.1.34-.07a.8.8,0,0,0,.27-.13.59.59,0,0,0,.17-.22.79.79,0,0,0,.06-.33,1,1,0,0,0-.31-.79,2.11,2.11,0,0,0-2.05,0,1,1,0,0,0-.39.73h-1.45a2,2,0,0,1,.28-.9,2,2,0,0,1,.62-.62,2.88,2.88,0,0,1,.9-.36,5.08,5.08,0,0,1,1.13-.12,3.42,3.42,0,0,1,2,.5,1.65,1.65,0,0,1,.67,1.41v3.54a.47.47,0,0,0,.08.3.33.33,0,0,0,.27.1h.12l.13,0Zm-2-3.35h0a1,1,0,0,1-.54.23l-.48.08-.65.11a2.2,2.2,0,0,0-1,.37.87.87,0,0,0-.32.72.89.89,0,0,0,.37.76,1.48,1.48,0,0,0,.87.24,1.79,1.79,0,0,0,1.27-.43,1.59,1.59,0,0,0,.49-1.24Z"/><path class="cls-3" d="M170.63,30.61a2.35,2.35,0,0,1,1.2.3,2.12,2.12,0,0,1,.81.85h0v-1h1.39V37a3.42,3.42,0,0,1-.23,1.31,2.39,2.39,0,0,1-.65.92,2.71,2.71,0,0,1-1,.54,4.81,4.81,0,0,1-1.35.18,4.46,4.46,0,0,1-1-.11,2.93,2.93,0,0,1-.86-.33,2.12,2.12,0,0,1-.65-.59A1.76,1.76,0,0,1,168,38h1.44a1,1,0,0,0,.49.66,2,2,0,0,0,1,.22,1.64,1.64,0,0,0,1.28-.49,2,2,0,0,0,.44-1.4V36h0a2,2,0,0,1-.82.84,2.47,2.47,0,0,1-1.22.3,2.92,2.92,0,0,1-1.26-.25,2.46,2.46,0,0,1-.88-.69,3,3,0,0,1-.52-1,4.7,4.7,0,0,1-.17-1.3,4.06,4.06,0,0,1,.18-1.22,3.1,3.1,0,0,1,.54-1,2.67,2.67,0,0,1,.9-.72A2.76,2.76,0,0,1,170.63,30.61Zm-1.42,3.25a3.41,3.41,0,0,0,.11.87,2,2,0,0,0,.32.68,1.48,1.48,0,0,0,.53.44,1.65,1.65,0,0,0,.74.16,1.58,1.58,0,0,0,.75-.17,1.71,1.71,0,0,0,.55-.46,2,2,0,0,0,.34-.66,2.63,2.63,0,0,0,.11-.78,3.51,3.51,0,0,0-.11-.88,2.07,2.07,0,0,0-.32-.71,1.53,1.53,0,0,0-.55-.47,1.68,1.68,0,0,0-.78-.17,1.57,1.57,0,0,0-.77.18,1.53,1.53,0,0,0-.53.48,2.15,2.15,0,0,0-.3.69A3.18,3.18,0,0,0,169.21,33.86Z"/><line class="cls-4" x1="145.88" y1="51.66" x2="145.88" y2="125.16"/><line class="cls-5" x1="145.88" y1="17.66" x2="145.88" y2="51.66"/><line class="cls-6" x1="14.88" y1="15.66" x2="14.88" y2="125.16"/><line class="cls-6" x1="14.38" y1="123.16" x2="355.4" y2="123.16"/><line class="cls-4" x1="14.38" y1="87.16" x2="355.4" y2="87.16"/><line class="cls-5" x1="14.38" y1="51.16" x2="355.55" y2="51.16"/><line class="cls-6" x1="14.38" y1="16.16" x2="355.55" y2="16.16"/><line class="cls-6" x1="355.89" y1="15.66" x2="355.89" y2="124.16"/><rect class="cls-7" x="324.93" y="60.92" width="17" height="17"/><path class="cls-8" d="M341.43,77.42h-16v-16h16Zm1-17h-18v18h18Z"/><rect class="cls-7" x="324.93" y="97.16" width="17" height="17"/><path class="cls-8" d="M341.43,113.66h-16v-16h16Zm1-17h-18v18h18Z"/><polygon class="cls-9" points="332.72 110.64 327.71 105.94 329.28 104.27 332.45 107.24 337.89 100.15 339.71 101.54 332.72 110.64"/></g></svg>