<svg xmlns="http://www.w3.org/2000/svg" viewBox="0 0 148 38"><defs><style>.cls-1{fill:#ff6c00;}.cls-2,.cls-5{fill:none;stroke-miterlimit:10;}.cls-2{stroke:#ff6c00;stroke-width:0.4px;}.cls-3{fill:#f0f0f0;}.cls-4{fill:#e6e6e6;}.cls-5{stroke:#aaa;}.cls-6{fill:#464646;}</style></defs><title>Artboard 22</title><g id="Layer_1" data-name="Layer 1"><path class="cls-1" d="M128.54,16.41a2.36,2.36,0,0,1,.65.09,1.79,1.79,0,0,1,.57.27,1.39,1.39,0,0,1,.4.46,1.32,1.32,0,0,1,.15.65,1.48,1.48,0,0,1-.06.44,1.21,1.21,0,0,1-.19.37,1.18,1.18,0,0,1-.3.28,1.4,1.4,0,0,1-.41.18v0a1.37,1.37,0,0,1,.89.5,1.47,1.47,0,0,1,.3.93,1.61,1.61,0,0,1-.56,1.27,1.86,1.86,0,0,1-.63.37,2.5,2.5,0,0,1-.81.12,2.44,2.44,0,0,1-.74-.11,1.86,1.86,0,0,1-.61-.32,1.56,1.56,0,0,1-.42-.52,1.52,1.52,0,0,1-.15-.69v-.12h.52v.11a1.16,1.16,0,0,0,.37.86,1.34,1.34,0,0,0,.44.27,1.63,1.63,0,0,0,.59.1,1.79,1.79,0,0,0,.6-.09,1.5,1.5,0,0,0,.46-.27,1.14,1.14,0,0,0,.43-.92,1.26,1.26,0,0,0-.09-.5,1.08,1.08,0,0,0-.28-.39,1.49,1.49,0,0,0-1-.33h-.43V19h.46a1.24,1.24,0,0,0,.8-.28,1,1,0,0,0,.34-.77,1.06,1.06,0,0,0-.1-.47,1,1,0,0,0-.27-.34,1.13,1.13,0,0,0-.4-.21,1.73,1.73,0,0,0-.49-.07,1.4,1.4,0,0,0-.54.1,1.19,1.19,0,0,0-.67.68,1.31,1.31,0,0,0-.09.49h-.52a1.63,1.63,0,0,1,.12-.61,1.69,1.69,0,0,1,.36-.54,1.79,1.79,0,0,1,.57-.39A1.89,1.89,0,0,1,128.54,16.41Z"/><path class="cls-1" d="M133.59,16.41a2.11,2.11,0,0,1,.63.09,1.58,1.58,0,0,1,.5.26,1.43,1.43,0,0,1,.36.41,1.65,1.65,0,0,1,.2.56h-.52a1.14,1.14,0,0,0-.12-.34,1,1,0,0,0-.24-.28,1.08,1.08,0,0,0-.35-.19,1.46,1.46,0,0,0-.46-.07,1.35,1.35,0,0,0-.68.17,1.41,1.41,0,0,0-.5.5,2.55,2.55,0,0,0-.3.81,5.35,5.35,0,0,0-.1,1.1h0a1.72,1.72,0,0,1,1.54-1,1.83,1.83,0,0,1,1.37.54,1.88,1.88,0,0,1,.53,1.39,1.89,1.89,0,0,1-2,2,2.05,2.05,0,0,1-.94-.2,1.54,1.54,0,0,1-.62-.56,2.79,2.79,0,0,1-.35-.93,6.94,6.94,0,0,1-.12-1.37,5.66,5.66,0,0,1,0-.71,3.68,3.68,0,0,1,.15-.67,3,3,0,0,1,.27-.6,1.87,1.87,0,0,1,.4-.48,1.78,1.78,0,0,1,.55-.32A2.06,2.06,0,0,1,133.59,16.41Zm-1.49,4a1.5,1.5,0,0,0,.38,1.09,1.41,1.41,0,0,0,1.06.39,1.27,1.27,0,0,0,1-.44,1.5,1.5,0,0,0,.39-1,1.6,1.6,0,0,0-.38-1.09,1.29,1.29,0,0,0-1-.43,1.36,1.36,0,0,0-1,.42A1.54,1.54,0,0,0,132.11,20.44Z"/><path class="cls-1" d="M140.62,20a3.19,3.19,0,0,1-.12.85,2.24,2.24,0,0,1-.36.74,1.79,1.79,0,0,1-.61.52,1.86,1.86,0,0,1-.88.2,1.84,1.84,0,0,1-.47-.06,1.68,1.68,0,0,1-.43-.18,1.52,1.52,0,0,1-.36-.3,1.47,1.47,0,0,1-.26-.42h0v2.45h-.54v-6h.5v.83h0a1.49,1.49,0,0,1,.26-.41,1.53,1.53,0,0,1,.37-.3,1.81,1.81,0,0,1,.44-.19,2,2,0,0,1,1.35.12,1.77,1.77,0,0,1,.62.5,2.22,2.22,0,0,1,.37.74A3.11,3.11,0,0,1,140.62,20Zm-.54,0a3,3,0,0,0-.07-.65,1.89,1.89,0,0,0-.24-.6,1.38,1.38,0,0,0-.45-.44,1.26,1.26,0,0,0-.68-.17,1.39,1.39,0,0,0-1.13.47,2.14,2.14,0,0,0-.39,1.4,2.79,2.79,0,0,0,.08.69,1.79,1.79,0,0,0,.27.6,1.4,1.4,0,0,0,.48.42,1.44,1.44,0,0,0,.71.16,1.25,1.25,0,0,0,.64-.16,1.36,1.36,0,0,0,.45-.42,1.9,1.9,0,0,0,.26-.6A2.77,2.77,0,0,0,140.09,20Z"/><path class="cls-1" d="M142.08,17.85l1.25,1.66,1.22-1.66h.67l-1.58,2.09,1.71,2.28h-.68l-1.37-1.84-1.34,1.84h-.66L143,20l-1.57-2.1Z"/><line class="cls-2" x1="122.5" y1="37.73" x2="122.5" y2="1.73"/><line class="cls-2" x1="121.5" y1="1.73" x2="123.5" y2="1.73"/><line class="cls-2" x1="121.5" y1="37.73" x2="123.5" y2="37.73"/><rect class="cls-3" x="2.5" y="1.5" width="113" height="35"/><path class="cls-4" d="M115,36H3V2H115Zm1-35H2V37H116Z"/><line class="cls-5" x1="2" y1="36.5" x2="116" y2="36.5"/><path class="cls-6" d="M29.07,23.24h-.83a4.59,4.59,0,0,1-.74-.06,1.58,1.58,0,0,1-.6-.22,1.12,1.12,0,0,1-.4-.45,1.67,1.67,0,0,1-.15-.76V17.64H25.06v-1h1.29v-2H27.8v2h1.5v1H27.8v3.72a.83.83,0,0,0,.17.58.8.8,0,0,0,.59.18h.57l.17,0v1.14Z"/><path class="cls-6" d="M33.52,16.44a3,3,0,0,1,1.34.28,2.78,2.78,0,0,1,1,.77,3.33,3.33,0,0,1,.58,1.13A4.76,4.76,0,0,1,36.61,20v.26H31.76a2.77,2.77,0,0,0,.13.81,1.9,1.9,0,0,0,.35.63,1.55,1.55,0,0,0,.54.41,1.7,1.7,0,0,0,.72.15,1.9,1.9,0,0,0,1-.23,1.7,1.7,0,0,0,.61-.6h1.37a3.06,3.06,0,0,1-.45.81,2.83,2.83,0,0,1-.66.62,3,3,0,0,1-.85.39,3.66,3.66,0,0,1-1,.13,3.28,3.28,0,0,1-1.33-.26,2.82,2.82,0,0,1-1-.72,3.18,3.18,0,0,1-.62-1.1,4.31,4.31,0,0,1-.22-1.4,4,4,0,0,1,.22-1.33,3.3,3.3,0,0,1,.63-1.1,3,3,0,0,1,1-.76A3.16,3.16,0,0,1,33.52,16.44Zm1.63,2.85a2.77,2.77,0,0,0-.16-.71,1.73,1.73,0,0,0-.33-.55,1.43,1.43,0,0,0-.5-.35,1.91,1.91,0,0,0-1.37,0,1.51,1.51,0,0,0-.52.36,1.79,1.79,0,0,0-.35.55,2.54,2.54,0,0,0-.17.7Z"/><path class="cls-6" d="M39.17,16.62l1.41,2,1.39-2h1.64l-2.23,3.11,2.47,3.47H42.17l-1.62-2.32-1.61,2.32H37.29l2.43-3.44-2.23-3.13Z"/><path class="cls-6" d="M48.21,23.24h-.83a4.59,4.59,0,0,1-.74-.06A1.58,1.58,0,0,1,46,23a1.12,1.12,0,0,1-.4-.45,1.67,1.67,0,0,1-.15-.76V17.64H44.21v-1H45.5v-2h1.45v2h1.5v1h-1.5v3.72a.83.83,0,0,0,.17.58.8.8,0,0,0,.59.18h.57l.17,0v1.14Z"/><path class="cls-6" d="M59.75,19.91a4.85,4.85,0,0,1-.17,1.28,3.47,3.47,0,0,1-.52,1.11,2.65,2.65,0,0,1-.88.79,2.51,2.51,0,0,1-1.25.3,2.93,2.93,0,0,1-1.36-.3,1.9,1.9,0,0,1-.86-.87h0v1H53.32V14.11h1.44v3.47h0a1.88,1.88,0,0,1,.36-.47,2.16,2.16,0,0,1,.5-.36,2.68,2.68,0,0,1,.61-.23,2.85,2.85,0,0,1,.68-.08,2.52,2.52,0,0,1,1.24.29,2.66,2.66,0,0,1,.88.78,3.4,3.4,0,0,1,.52,1.11A4.87,4.87,0,0,1,59.75,19.91Zm-1.45,0a3.74,3.74,0,0,0-.09-.82,2.52,2.52,0,0,0-.3-.76,1.71,1.71,0,0,0-.54-.56,1.5,1.5,0,0,0-.83-.22,1.57,1.57,0,0,0-.82.21,1.71,1.71,0,0,0-.56.54,2.39,2.39,0,0,0-.32.75,3.63,3.63,0,0,0-.1.86,3.68,3.68,0,0,0,.1.83,2.37,2.37,0,0,0,.31.76,1.76,1.76,0,0,0,.56.55,1.57,1.57,0,0,0,.84.21,1.49,1.49,0,0,0,.8-.21,1.69,1.69,0,0,0,.54-.54,2.43,2.43,0,0,0,.31-.75A3.94,3.94,0,0,0,58.3,19.91Z"/><path class="cls-6" d="M65.86,23.19v-1h0a2.25,2.25,0,0,1-.39.52,2.3,2.3,0,0,1-.5.37,2.49,2.49,0,0,1-.58.23,2.54,2.54,0,0,1-.64.08,2.3,2.3,0,0,1-1.78-.63,2.81,2.81,0,0,1-.57-1.95V16.62H62.8v4a2.89,2.89,0,0,0,.08.7,1.37,1.37,0,0,0,.24.52,1,1,0,0,0,.42.32,1.82,1.82,0,0,0,1.36,0,1.37,1.37,0,0,0,.5-.43A1.86,1.86,0,0,0,65.7,21a3.72,3.72,0,0,0,.09-.85v-3.5h1.44v6.57Z"/><path class="cls-6" d="M72.4,23.24h-.83a4.59,4.59,0,0,1-.74-.06,1.58,1.58,0,0,1-.6-.22,1.12,1.12,0,0,1-.4-.45,1.67,1.67,0,0,1-.15-.76V17.64H68.4v-1h1.29v-2h1.45v2h1.5v1h-1.5v3.72a.83.83,0,0,0,.17.58.8.8,0,0,0,.59.18h.57l.17,0v1.14Z"/><path class="cls-6" d="M77.29,23.24h-.83a4.59,4.59,0,0,1-.74-.06,1.58,1.58,0,0,1-.6-.22,1.12,1.12,0,0,1-.4-.45,1.67,1.67,0,0,1-.15-.76V17.64H73.29v-1h1.29v-2H76v2h1.5v1H76v3.72a.83.83,0,0,0,.17.58.8.8,0,0,0,.59.18h.57l.17,0v1.14Z"/><path class="cls-6" d="M85.16,19.91a4.09,4.09,0,0,1-.23,1.38,3.1,3.1,0,0,1-.68,1.11,3,3,0,0,1-1,.73,3.49,3.49,0,0,1-1.36.25,3.12,3.12,0,0,1-2.38-1,3.53,3.53,0,0,1-.91-2.51,3.54,3.54,0,0,1,.9-2.51,3.1,3.1,0,0,1,2.39-1,3.15,3.15,0,0,1,2.4,1A3.54,3.54,0,0,1,85.16,19.91Zm-1.45,0A3.59,3.59,0,0,0,83.6,19a2.21,2.21,0,0,0-.35-.75,1.68,1.68,0,0,0-.58-.5,1.75,1.75,0,0,0-.83-.18,1.71,1.71,0,0,0-.77.17,1.62,1.62,0,0,0-.57.48,2.23,2.23,0,0,0-.36.74,3.79,3.79,0,0,0,0,1.9,2.19,2.19,0,0,0,.35.74,1.67,1.67,0,0,0,.58.49,1.7,1.7,0,0,0,.79.18,1.72,1.72,0,0,0,.79-.18,1.68,1.68,0,0,0,.58-.49,2.24,2.24,0,0,0,.36-.74A3.41,3.41,0,0,0,83.71,19.91Z"/><path class="cls-6" d="M90.24,16.44a3.25,3.25,0,0,1,1.1.16,1.8,1.8,0,0,1,.74.49,2,2,0,0,1,.42.81A4.28,4.28,0,0,1,92.63,19v4.17H91.19v-3.9A2.11,2.11,0,0,0,90.88,18a1.19,1.19,0,0,0-1-.43,1.48,1.48,0,0,0-1.23.52,2.28,2.28,0,0,0-.41,1.45v3.63H86.77V16.62h1.38v1h0a2.14,2.14,0,0,1,.37-.5,2.24,2.24,0,0,1,.48-.37,2.34,2.34,0,0,1,.57-.23A2.51,2.51,0,0,1,90.24,16.44Z"/></g></svg>