<svg xmlns="http://www.w3.org/2000/svg" viewBox="0 0 468.67 50"><defs><style>.cls-1{fill:#f0f0f0;}.cls-2{fill:#464646;}</style></defs><title>Artboard 49</title><g id="Layer_1" data-name="Layer 1"><rect class="cls-1" width="468.67" height="50"/><path class="cls-2" d="M24.16,13.17a11.8,11.8,0,0,0-11.6,12,11.8,11.8,0,0,0,11.6,12,11.8,11.8,0,0,0,11.6-12,11.8,11.8,0,0,0-11.6-12m0,22.5A10.34,10.34,0,0,1,14,25.17a10.34,10.34,0,0,1,10.15-10.5A10.34,10.34,0,0,1,34.3,25.17a10.34,10.34,0,0,1-10.15,10.5"/><polygon class="cls-2" points="24.16 20.05 17.88 25.17 24.16 30.28 24.16 27.17 29.96 27.17 29.96 23.17 24.16 23.17 24.16 20.05"/></g></svg>