<svg xmlns="http://www.w3.org/2000/svg" viewBox="0 0 1366 210"><defs><style>.cls-1{fill:#242424;}.cls-2,.cls-4{opacity:0;}.cls-3{fill:#42b8e9;}.cls-3,.cls-4,.cls-5{stroke:#000;}.cls-11,.cls-12,.cls-13,.cls-20,.cls-27,.cls-3,.cls-4,.cls-5,.cls-7{stroke-miterlimit:10;}.cls-26,.cls-3{opacity:0.4;}.cls-4{fill:#c2c2c2;}.cls-11,.cls-12,.cls-13,.cls-20,.cls-22,.cls-26,.cls-27,.cls-5,.cls-7{fill:none;}.cls-6{fill:#fff;}.cls-7{stroke:#fff;}.cls-8{fill:#dcdcdc;}.cls-9{fill:#b4b4b4;}.cls-10{fill:#00b981;}.cls-11,.cls-27{stroke:#00b981;}.cls-12{stroke:#ff2c3e;}.cls-13{stroke:#c8c8c8;}.cls-14{fill:#191919;}.cls-15{fill:#060606;}.cls-16{fill:#d3d3d3;}.cls-17{fill:#323232;}.cls-18{fill:#3c3c3c;}.cls-19{fill:#2cb9ff;}.cls-20{stroke:#b4b4b4;}.cls-21{opacity:0.3;}.cls-23{fill:#c8c8c8;}.cls-24{fill:#009bed;}.cls-25{fill:#8c8c8c;}.cls-27{stroke-width:6px;}.cls-28{fill:#fafafa;}</style></defs><title>Artboard 27</title><g id="Layer_1" data-name="Layer 1"><rect class="cls-1" y="33" width="1366" height="60"/><path d="M24.89,13.06a14.89,14.89,0,0,1,2.22-.17,4.64,4.64,0,0,1,3.28,1,3.72,3.72,0,0,1,1.14,2.9,4.27,4.27,0,0,1-1.16,3.14,5,5,0,0,1-3.58,1.16,17,17,0,0,1-1.9-.1Zm1,7.15a6.5,6.5,0,0,0,1.06.06,3.11,3.11,0,0,0,3.45-3.43c0-1.91-1.07-3.12-3.28-3.12a6,6,0,0,0-1.22.11Z"/><path d="M32.86,17c0-.68,0-1.27,0-1.81h.92l0,1.14h0a1.74,1.74,0,0,1,1.61-1.27,1.12,1.12,0,0,1,.3,0v1a1.56,1.56,0,0,0-.36,0A1.48,1.48,0,0,0,34,17.45a3,3,0,0,0,0,.49V21h-1Z"/><path d="M38,13.6a.65.65,0,0,1-1.31,0,.64.64,0,0,1,.66-.66A.63.63,0,0,1,38,13.6ZM36.84,21v-5.8h1.06V21Z"/><path d="M40.06,15.23l1.14,3.26A15.06,15.06,0,0,1,41.67,20h0c.13-.48.3-1,.49-1.49l1.13-3.26h1.1L42.15,21h-1l-2.21-5.8Z"/><path d="M45.9,18.32a1.86,1.86,0,0,0,2,2A3.83,3.83,0,0,0,49.5,20l.18.76a4.71,4.71,0,0,1-1.93.36,2.7,2.7,0,0,1-2.86-2.93c0-1.75,1-3.13,2.73-3.13A2.46,2.46,0,0,1,50,17.83a3.91,3.91,0,0,1,0,.49Zm3.1-.76a1.5,1.5,0,0,0-1.47-1.71,1.75,1.75,0,0,0-1.62,1.71Z"/><path d="M58,20.82a3.9,3.9,0,0,1-1.67.34,2.76,2.76,0,0,1-2.89-3,3,3,0,0,1,3.12-3.08,3.52,3.52,0,0,1,1.46.3l-.24.82a2.46,2.46,0,0,0-1.22-.28,2,2,0,0,0-2.05,2.19,2,2,0,0,0,2,2.17,3,3,0,0,0,1.3-.29Z"/><path d="M64.45,18.08a2.84,2.84,0,0,1-2.89,3.08,2.76,2.76,0,0,1-2.79-3,2.84,2.84,0,0,1,2.88-3.08A2.75,2.75,0,0,1,64.45,18.08Zm-4.61.06c0,1.27.73,2.23,1.77,2.23s1.77-.95,1.77-2.25c0-1-.49-2.23-1.74-2.23S59.83,17,59.83,18.14Z"/><path d="M65.78,16.8c0-.6,0-1.09,0-1.57h.92l0,.94h0a2,2,0,0,1,1.83-1.07,1.72,1.72,0,0,1,1.65,1.16h0a2.39,2.39,0,0,1,.65-.76,2,2,0,0,1,1.28-.41c.77,0,1.91.5,1.91,2.52V21H73V17.75c0-1.12-.41-1.79-1.26-1.79a1.37,1.37,0,0,0-1.25,1,1.74,1.74,0,0,0-.08.53V21h-1V17.55c0-.92-.41-1.59-1.21-1.59a1.58,1.58,0,0,0-1.39,1.57V21h-1Z"/><path d="M75.8,17.12c0-.74,0-1.34,0-1.89h.95l0,1h0a2.29,2.29,0,0,1,2.07-1.13c1.4,0,2.46,1.19,2.46,3,0,2.09-1.27,3.12-2.64,3.12a2,2,0,0,1-1.79-.91h0v3.15h-1Zm1,1.55a2.37,2.37,0,0,0,0,.43,1.63,1.63,0,0,0,1.59,1.24c1.12,0,1.77-.91,1.77-2.24,0-1.16-.61-2.16-1.73-2.16a1.69,1.69,0,0,0-1.6,1.31,1.71,1.71,0,0,0-.07.43Z"/><path d="M87.9,18.08A2.84,2.84,0,0,1,85,21.16a2.76,2.76,0,0,1-2.79-3,2.84,2.84,0,0,1,2.88-3.08A2.75,2.75,0,0,1,87.9,18.08Zm-4.61.06c0,1.27.73,2.23,1.77,2.23s1.77-.95,1.77-2.25c0-1-.49-2.23-1.74-2.23S83.29,17,83.29,18.14Z"/><path d="M89.09,20a2.76,2.76,0,0,0,1.39.42c.77,0,1.13-.38,1.13-.86s-.3-.78-1.08-1.07c-1-.37-1.54-.95-1.54-1.64a1.79,1.79,0,0,1,2-1.7,2.9,2.9,0,0,1,1.43.36l-.26.77A2.27,2.27,0,0,0,91,15.89c-.62,0-1,.36-1,.79s.35.7,1.1,1c1,.38,1.52.89,1.52,1.75,0,1-.79,1.74-2.17,1.74a3.32,3.32,0,0,1-1.63-.4Z"/><path d="M94.58,18.32a1.86,1.86,0,0,0,2,2,3.83,3.83,0,0,0,1.61-.3l.18.76a4.71,4.71,0,0,1-1.93.36,2.7,2.7,0,0,1-2.86-2.93c0-1.75,1-3.13,2.73-3.13a2.46,2.46,0,0,1,2.4,2.73,3.91,3.91,0,0,1,0,.49Zm3.1-.76a1.5,1.5,0,0,0-1.47-1.71,1.75,1.75,0,0,0-1.62,1.71Z"/><path d="M100,17c0-.68,0-1.27,0-1.81h.92l0,1.14h0a1.74,1.74,0,0,1,1.61-1.27,1.12,1.12,0,0,1,.3,0v1a1.56,1.56,0,0,0-.36,0,1.48,1.48,0,0,0-1.42,1.36,3,3,0,0,0,0,.49V21h-1Z"/><path d="M106.49,17.12c0-.74,0-1.34,0-1.89h.95l0,1h0a2.29,2.29,0,0,1,2.07-1.13c1.4,0,2.46,1.19,2.46,3,0,2.09-1.27,3.12-2.64,3.12a2,2,0,0,1-1.79-.91h0v3.15h-1Zm1,1.55a2.37,2.37,0,0,0,0,.43,1.63,1.63,0,0,0,1.59,1.24c1.12,0,1.77-.91,1.77-2.24,0-1.16-.61-2.16-1.73-2.16a1.69,1.69,0,0,0-1.6,1.31,1.71,1.71,0,0,0-.07.43Z"/><path d="M113.33,17c0-.68,0-1.27,0-1.81h.92l0,1.14h0a1.74,1.74,0,0,1,1.61-1.27,1.12,1.12,0,0,1,.3,0v1a1.56,1.56,0,0,0-.36,0,1.48,1.48,0,0,0-1.42,1.36,3,3,0,0,0,0,.49V21h-1Z"/><path d="M122.4,18.08a2.84,2.84,0,0,1-2.89,3.08,2.76,2.76,0,0,1-2.79-3,2.84,2.84,0,0,1,2.88-3.08A2.75,2.75,0,0,1,122.4,18.08Zm-4.61.06c0,1.27.73,2.23,1.77,2.23s1.77-.95,1.77-2.25c0-1-.49-2.23-1.74-2.23S117.79,17,117.79,18.14Z"/><path d="M126.69,15.23l1.14,3.26A15.06,15.06,0,0,1,128.3,20h0c.13-.48.3-1,.49-1.49L130,15.23h1.1L128.78,21h-1l-2.21-5.8Z"/><path d="M131.34,20.41a.71.71,0,0,1,.72-.76.76.76,0,1,1-.72.76Z"/><path d="M136,14.22h0l-1.36.73-.2-.8,1.71-.91h.9V21h-1Z"/><path d="M140,20.41a.71.71,0,0,1,.72-.76.76.76,0,1,1-.72.76Z"/><path d="M144.69,14.22h0l-1.36.73-.2-.8,1.71-.91h.9V21h-1Z"/><path d="M150.85,14.22h0l-1.36.73-.2-.8,1.71-.91h.9V21h-1Z"/><path d="M157.64,13.06a10.86,10.86,0,0,1,2-.17,3.32,3.32,0,0,1,2.34.66,2,2,0,0,1,.64,1.54,2.12,2.12,0,0,1-1.53,2.06v0a2,2,0,0,1,1.19,1.63,12.85,12.85,0,0,0,.62,2.22h-1.08a10.5,10.5,0,0,1-.54-1.93c-.24-1.12-.67-1.54-1.62-1.57h-1V21h-1Zm1,3.68h1.07c1.12,0,1.83-.61,1.83-1.54s-.76-1.5-1.86-1.51a4.31,4.31,0,0,0-1,.1Z"/><path d="M169.8,20.77a5.2,5.2,0,0,1-2.14.38,3.78,3.78,0,0,1-4-4.09,4,4,0,0,1,4.23-4.25,4.33,4.33,0,0,1,1.92.36l-.25.85a3.8,3.8,0,0,0-1.63-.34A3,3,0,0,0,164.77,17a2.94,2.94,0,0,0,3.11,3.25,4.18,4.18,0,0,0,1.71-.34Z"/><path d="M173,14.22h0l-1.36.73-.2-.8,1.71-.91h.9V21h-1Z"/><g class="cls-2"><rect class="cls-3" x="1317.98" y="1.2" width="48" height="32"/></g><path class="cls-4" d="M1348,11.2v12h-12v-12h12"/><line class="cls-5" x1="1336.36" y1="11.57" x2="1347.61" y2="22.82"/><line class="cls-5" x1="1347.61" y1="11.57" x2="1336.36" y2="22.82"/><g class="cls-2"><rect class="cls-3" x="1269.98" y="1.2" width="48" height="32"/></g><path class="cls-4" d="M1300,11.2v12h-12v-12h12"/><rect class="cls-5" x="1288.48" y="11.7" width="11" height="11"/><g class="cls-2"><rect class="cls-3" x="1221.98" y="1.2" width="48" height="32"/></g><path class="cls-4" d="M1252,11.2v12h-12v-12h12"/><line class="cls-5" x1="1239.98" y1="23.2" x2="1251.98" y2="23.2"/><rect class="cls-1" y="1.16" width="1366" height="32"/><path class="cls-6" d="M24.91,13a14.89,14.89,0,0,1,2.22-.17,4.64,4.64,0,0,1,3.28,1,3.72,3.72,0,0,1,1.14,2.9,4.27,4.27,0,0,1-1.16,3.14,5,5,0,0,1-3.58,1.16,16.75,16.75,0,0,1-1.9-.1Zm1,7.15a6.61,6.61,0,0,0,1.06.06,3.11,3.11,0,0,0,3.45-3.43c0-1.91-1.07-3.12-3.28-3.12a5.89,5.89,0,0,0-1.22.11Z"/><path class="cls-6" d="M32.87,17c0-.68,0-1.27,0-1.81h.92l0,1.14h0a1.74,1.74,0,0,1,1.61-1.27,1.17,1.17,0,0,1,.3,0v1a1.56,1.56,0,0,0-.36,0A1.48,1.48,0,0,0,34,17.41a3,3,0,0,0,0,.49V21h-1Z"/><path class="cls-6" d="M38,13.56a.65.65,0,0,1-1.31,0,.64.64,0,0,1,.66-.66A.63.63,0,0,1,38,13.56ZM36.85,21v-5.8h1.06V21Z"/><path class="cls-6" d="M40.07,15.19l1.14,3.26a15.06,15.06,0,0,1,.47,1.49h0c.13-.48.3-1,.49-1.49l1.13-3.26h1.1L42.16,21h-1l-2.21-5.8Z"/><path class="cls-6" d="M45.91,18.29a1.86,1.86,0,0,0,2,2,3.83,3.83,0,0,0,1.61-.3l.18.76a4.71,4.71,0,0,1-1.93.36,2.7,2.7,0,0,1-2.86-2.93c0-1.75,1-3.13,2.73-3.13A2.46,2.46,0,0,1,50,17.8a3.91,3.91,0,0,1,0,.49Zm3.1-.76a1.5,1.5,0,0,0-1.47-1.71,1.75,1.75,0,0,0-1.62,1.71Z"/><path class="cls-6" d="M58,20.78a3.9,3.9,0,0,1-1.67.34,2.76,2.76,0,0,1-2.89-3,3,3,0,0,1,3.12-3.08,3.52,3.52,0,0,1,1.46.3l-.24.82a2.46,2.46,0,0,0-1.22-.28,2,2,0,0,0-2.05,2.19,2,2,0,0,0,2,2.17,3,3,0,0,0,1.3-.29Z"/><path class="cls-6" d="M64.46,18a2.84,2.84,0,0,1-2.89,3.08,2.76,2.76,0,0,1-2.79-3,2.84,2.84,0,0,1,2.88-3.08A2.75,2.75,0,0,1,64.46,18Zm-4.61.06c0,1.27.73,2.23,1.77,2.23s1.77-.95,1.77-2.25c0-1-.49-2.23-1.74-2.23S59.85,17,59.85,18.11Z"/><path class="cls-6" d="M65.8,16.76c0-.6,0-1.09,0-1.57h.92l0,.94h0a2,2,0,0,1,1.83-1.07,1.72,1.72,0,0,1,1.65,1.16h0a2.39,2.39,0,0,1,.65-.76,2,2,0,0,1,1.28-.41c.77,0,1.91.5,1.91,2.52V21h-1V17.71c0-1.12-.41-1.79-1.26-1.79a1.37,1.37,0,0,0-1.25,1,1.75,1.75,0,0,0-.08.53V21h-1V17.52c0-.92-.41-1.59-1.21-1.59a1.58,1.58,0,0,0-1.39,1.57V21h-1Z"/><path class="cls-6" d="M75.82,17.09c0-.74,0-1.34,0-1.89h.95l0,1h0a2.29,2.29,0,0,1,2.07-1.13c1.4,0,2.46,1.19,2.46,3,0,2.09-1.27,3.12-2.64,3.12a2,2,0,0,1-1.79-.91h0v3.15h-1Zm1,1.55a2.38,2.38,0,0,0,0,.43A1.63,1.63,0,0,0,78.5,20.3c1.12,0,1.77-.91,1.77-2.24,0-1.16-.61-2.16-1.73-2.16a1.69,1.69,0,0,0-1.6,1.31,1.71,1.71,0,0,0-.07.43Z"/><path class="cls-6" d="M87.92,18A2.84,2.84,0,0,1,85,21.13a2.76,2.76,0,0,1-2.79-3,2.84,2.84,0,0,1,2.88-3.08A2.75,2.75,0,0,1,87.92,18Zm-4.61.06c0,1.27.73,2.23,1.77,2.23s1.77-.95,1.77-2.25c0-1-.49-2.23-1.74-2.23S83.3,17,83.3,18.11Z"/><path class="cls-6" d="M89.11,19.92a2.77,2.77,0,0,0,1.39.42c.77,0,1.13-.38,1.13-.86s-.3-.78-1.08-1.07c-1-.37-1.54-.95-1.54-1.64a1.79,1.79,0,0,1,2-1.7,2.9,2.9,0,0,1,1.43.36l-.26.77A2.27,2.27,0,0,0,91,15.85c-.62,0-1,.36-1,.79s.35.7,1.1,1c1,.38,1.52.89,1.52,1.75,0,1-.79,1.74-2.17,1.74a3.31,3.31,0,0,1-1.63-.4Z"/><path class="cls-6" d="M94.6,18.29a1.86,1.86,0,0,0,2,2A3.83,3.83,0,0,0,98.2,20l.18.76a4.71,4.71,0,0,1-1.93.36,2.7,2.7,0,0,1-2.86-2.93c0-1.75,1-3.13,2.73-3.13a2.46,2.46,0,0,1,2.4,2.73,3.91,3.91,0,0,1,0,.49Zm3.1-.76a1.5,1.5,0,0,0-1.47-1.71,1.75,1.75,0,0,0-1.62,1.71Z"/><path class="cls-6" d="M100,17c0-.68,0-1.27,0-1.81h.92l0,1.14h0a1.74,1.74,0,0,1,1.61-1.27,1.17,1.17,0,0,1,.3,0v1a1.56,1.56,0,0,0-.36,0,1.48,1.48,0,0,0-1.42,1.36,3,3,0,0,0,0,.49V21h-1Z"/><path class="cls-6" d="M106.51,17.09c0-.74,0-1.34,0-1.89h.95l0,1h0a2.29,2.29,0,0,1,2.07-1.13c1.4,0,2.46,1.19,2.46,3,0,2.09-1.27,3.12-2.64,3.12a2,2,0,0,1-1.79-.91h0v3.15h-1Zm1,1.55a2.38,2.38,0,0,0,0,.43,1.63,1.63,0,0,0,1.59,1.24c1.12,0,1.77-.91,1.77-2.24,0-1.16-.61-2.16-1.73-2.16a1.69,1.69,0,0,0-1.6,1.31,1.71,1.71,0,0,0-.07.43Z"/><path class="cls-6" d="M113.35,17c0-.68,0-1.27,0-1.81h.92l0,1.14h0a1.74,1.74,0,0,1,1.61-1.27,1.17,1.17,0,0,1,.3,0v1a1.56,1.56,0,0,0-.36,0,1.48,1.48,0,0,0-1.42,1.36,3,3,0,0,0,0,.49V21h-1Z"/><path class="cls-6" d="M122.41,18a2.84,2.84,0,0,1-2.89,3.08,2.76,2.76,0,0,1-2.79-3,2.84,2.84,0,0,1,2.88-3.08A2.75,2.75,0,0,1,122.41,18Zm-4.61.06c0,1.27.73,2.23,1.77,2.23s1.77-.95,1.77-2.25c0-1-.49-2.23-1.74-2.23S117.8,17,117.8,18.11Z"/><path class="cls-6" d="M126.71,15.19l1.14,3.26a15.06,15.06,0,0,1,.47,1.49h0c.13-.48.3-1,.49-1.49L130,15.19h1.1L128.8,21h-1l-2.21-5.8Z"/><path class="cls-6" d="M131.36,20.37a.71.71,0,0,1,.72-.76.76.76,0,1,1-.72.76Z"/><path class="cls-6" d="M136.05,14.19h0l-1.36.73-.2-.8,1.71-.91h.9V21h-1Z"/><path class="cls-6" d="M140,20.37a.71.71,0,0,1,.72-.76.76.76,0,1,1-.72.76Z"/><path class="cls-6" d="M144.71,14.19h0l-1.36.73-.2-.8,1.71-.91h.9V21h-1Z"/><path class="cls-6" d="M150.87,14.19h0l-1.36.73-.2-.8L151,13.2h.9V21h-1Z"/><path class="cls-6" d="M157.66,13a10.86,10.86,0,0,1,2-.17,3.32,3.32,0,0,1,2.34.66,2,2,0,0,1,.64,1.54,2.12,2.12,0,0,1-1.53,2.06v0a2,2,0,0,1,1.19,1.63,12.85,12.85,0,0,0,.62,2.22h-1.08a10.5,10.5,0,0,1-.54-1.93c-.24-1.12-.67-1.54-1.62-1.57h-1V21h-1Zm1,3.68h1.07c1.12,0,1.83-.61,1.83-1.54s-.76-1.5-1.86-1.51a4.31,4.31,0,0,0-1,.1Z"/><path class="cls-6" d="M169.82,20.73a5.2,5.2,0,0,1-2.14.38,3.78,3.78,0,0,1-4-4.09,4,4,0,0,1,4.23-4.25,4.33,4.33,0,0,1,1.92.36l-.25.85a3.8,3.8,0,0,0-1.63-.34A3,3,0,0,0,164.78,17a2.94,2.94,0,0,0,3.11,3.25,4.18,4.18,0,0,0,1.71-.34Z"/><path class="cls-6" d="M173.05,14.19h0l-1.36.73-.2-.8,1.71-.91h.9V21h-1Z"/><g class="cls-2"><rect class="cls-3" x="1318" y="1.16" width="48" height="32"/></g><path class="cls-4" d="M1348,11.16v12h-12v-12h12"/><line class="cls-7" x1="1336.37" y1="11.54" x2="1347.62" y2="22.79"/><line class="cls-7" x1="1347.62" y1="11.54" x2="1336.37" y2="22.79"/><g class="cls-2"><rect class="cls-3" x="1270" y="1.16" width="48" height="32"/></g><path class="cls-4" d="M1300,11.16v12h-12v-12h12"/><rect class="cls-7" x="1288.5" y="11.66" width="11" height="11"/><g class="cls-2"><rect class="cls-3" x="1222" y="1.16" width="48" height="32"/></g><path class="cls-4" d="M1252,11.16v12h-12v-12h12"/><line class="cls-7" x1="1240" y1="23.16" x2="1252" y2="23.16"/><path class="cls-8" d="M106.7,67.2,106,65h-3.55l-.75,2.18h-1.53l3.08-8.55h2l3,8.55Zm-2.48-7.45h0l-1.41,4.13h2.79Z"/><path class="cls-8" d="M112.87,58.45a4.5,4.5,0,0,1,1.32.18,3.45,3.45,0,0,1,1.07.53A2.94,2.94,0,0,1,116,60a3.19,3.19,0,0,1,.41,1.13H115a1.89,1.89,0,0,0-.26-.56,1.81,1.81,0,0,0-.44-.45,2.2,2.2,0,0,0-.62-.31,2.54,2.54,0,0,0-.78-.11,2.41,2.41,0,0,0-2,1,3.12,3.12,0,0,0-.5,1,4.54,4.54,0,0,0,0,2.39,3.07,3.07,0,0,0,.48,1,2.41,2.41,0,0,0,2,1,2.37,2.37,0,0,0,.85-.14,2,2,0,0,0,1.11-1,2.67,2.67,0,0,0,.24-.78h1.46a4.21,4.21,0,0,1-.35,1.26,3.19,3.19,0,0,1-1.82,1.69,4.14,4.14,0,0,1-1.48.25,4.25,4.25,0,0,1-1.72-.34,3.85,3.85,0,0,1-1.32-.93,4.13,4.13,0,0,1-.84-1.41,5.21,5.21,0,0,1-.29-1.78,5.32,5.32,0,0,1,.28-1.72,4.28,4.28,0,0,1,.81-1.43,3.83,3.83,0,0,1,1.31-1A4.18,4.18,0,0,1,112.87,58.45Z"/><path class="cls-8" d="M124.5,64.75a2.36,2.36,0,0,1-.29,1.2,2.41,2.41,0,0,1-.78.82,3.5,3.5,0,0,1-1.13.47,5.89,5.89,0,0,1-1.34.15,5.17,5.17,0,0,1-1.37-.17,3.37,3.37,0,0,1-1.1-.51,2.49,2.49,0,0,1-.74-.84,2.38,2.38,0,0,1-.27-1.15v-.1H119v.05a1.33,1.33,0,0,0,.16.67,1.4,1.4,0,0,0,.45.48,2.11,2.11,0,0,0,.67.28,3.62,3.62,0,0,0,1.58,0,2.05,2.05,0,0,0,.63-.25,1.3,1.3,0,0,0,.42-.41,1.06,1.06,0,0,0,.16-.58.93.93,0,0,0-.37-.76,3.25,3.25,0,0,0-1.16-.51l-1.84-.49a2.83,2.83,0,0,1-1.44-.78,2,2,0,0,1-.47-1.39,2.24,2.24,0,0,1,.26-1.09,2.36,2.36,0,0,1,.7-.79,3.22,3.22,0,0,1,1-.48,4.62,4.62,0,0,1,1.25-.16,4.67,4.67,0,0,1,1.19.15,3.23,3.23,0,0,1,1,.45,2.32,2.32,0,0,1,.71.77,2.25,2.25,0,0,1,.28,1.09h-1.46a1.25,1.25,0,0,0-.16-.52,1.27,1.27,0,0,0-.37-.4,1.8,1.8,0,0,0-.55-.26,2.49,2.49,0,0,0-.71-.09,2.92,2.92,0,0,0-.67.07,1.75,1.75,0,0,0-.55.23,1.15,1.15,0,0,0-.37.38,1.05,1.05,0,0,0-.14.55,1,1,0,0,0,.07.39.8.8,0,0,0,.2.28,1.07,1.07,0,0,0,.31.19,3.06,3.06,0,0,0,.4.13l2,.53a3.69,3.69,0,0,1,1.7.87A2,2,0,0,1,124.5,64.75Z"/><path class="cls-8" d="M131.7,64.71a2.37,2.37,0,0,1-.89,1.95,3.88,3.88,0,0,1-4.51,0,2.33,2.33,0,0,1-.88-1.93,2.43,2.43,0,0,1,.11-.76,2.08,2.08,0,0,1,.33-.63,2,2,0,0,1,.52-.47,2.17,2.17,0,0,1,.7-.28v0a1.81,1.81,0,0,1-1-.67,1.92,1.92,0,0,1-.33-1.14,2,2,0,0,1,.81-1.65,3.16,3.16,0,0,1,2-.62,2.91,2.91,0,0,1,2,.67,2,2,0,0,1,.76,1.58,2.14,2.14,0,0,1-.08.61,1.83,1.83,0,0,1-.25.52,1.75,1.75,0,0,1-.41.42,2,2,0,0,1-.57.28v0a2.06,2.06,0,0,1,1.24.75A2.24,2.24,0,0,1,131.7,64.71Zm-1.39,0a1.45,1.45,0,0,0-.48-1.11,1.79,1.79,0,0,0-1.27-.44,1.88,1.88,0,0,0-1.27.42,1.42,1.42,0,0,0-.49,1.13,1.53,1.53,0,0,0,.5,1.18,1.79,1.79,0,0,0,1.27.46,1.74,1.74,0,0,0,1.25-.45A1.53,1.53,0,0,0,130.31,64.67Zm-.26-3.83a1.42,1.42,0,0,0-.11-.56,1,1,0,0,0-.32-.42,1.85,1.85,0,0,0-2.14,0,1.18,1.18,0,0,0-.42.94,1.19,1.19,0,0,0,.41.94,1.85,1.85,0,0,0,2.19,0A1.21,1.21,0,0,0,130.05,60.84Z"/><path class="cls-8" d="M139,64.71a2.37,2.37,0,0,1-.89,1.95,3.88,3.88,0,0,1-4.51,0,2.33,2.33,0,0,1-.88-1.93,2.43,2.43,0,0,1,.11-.76,2.08,2.08,0,0,1,.33-.63,2,2,0,0,1,.52-.47,2.17,2.17,0,0,1,.7-.28v0a1.81,1.81,0,0,1-1-.67,1.92,1.92,0,0,1-.33-1.14,2,2,0,0,1,.81-1.65,3.16,3.16,0,0,1,2-.62,2.91,2.91,0,0,1,2,.67,2,2,0,0,1,.76,1.58,2.14,2.14,0,0,1-.08.61,1.83,1.83,0,0,1-.25.52,1.75,1.75,0,0,1-.41.42,2,2,0,0,1-.57.28v0a2.06,2.06,0,0,1,1.24.75A2.24,2.24,0,0,1,139,64.71Zm-1.39,0a1.45,1.45,0,0,0-.48-1.11,1.79,1.79,0,0,0-1.27-.44,1.88,1.88,0,0,0-1.27.42,1.42,1.42,0,0,0-.49,1.13,1.53,1.53,0,0,0,.5,1.18,1.79,1.79,0,0,0,1.27.46,1.74,1.74,0,0,0,1.25-.45A1.53,1.53,0,0,0,137.58,64.67Zm-.26-3.83a1.42,1.42,0,0,0-.11-.56,1,1,0,0,0-.32-.42,1.85,1.85,0,0,0-2.14,0,1.18,1.18,0,0,0-.42.94,1.19,1.19,0,0,0,.41.94,1.85,1.85,0,0,0,2.19,0A1.21,1.21,0,0,0,137.32,60.84Z"/><path class="cls-8" d="M143.08,58.46a2.66,2.66,0,0,1,2.32,1.13,5.72,5.72,0,0,1,.79,3.3,5.83,5.83,0,0,1-.79,3.35,2.92,2.92,0,0,1-4.62,0,5.81,5.81,0,0,1-.79-3.35,5.74,5.74,0,0,1,.79-3.31A2.64,2.64,0,0,1,143.08,58.46Zm-1.7,4.44a10.28,10.28,0,0,0,.07,1.25,4.18,4.18,0,0,0,.26,1.06,1.83,1.83,0,0,0,.52.74,1.28,1.28,0,0,0,.85.28,1.31,1.31,0,0,0,1.08-.51,2.12,2.12,0,0,0,.31-.56,4.17,4.17,0,0,0,.2-.69,6.33,6.33,0,0,0,.1-.77q0-.4,0-.8a9.63,9.63,0,0,0-.08-1.27,3.8,3.8,0,0,0-.28-1,1.82,1.82,0,0,0-.53-.71,1.32,1.32,0,0,0-.84-.26,1.29,1.29,0,0,0-.6.13,1.39,1.39,0,0,0-.45.37,2,2,0,0,0-.31.55,4.32,4.32,0,0,0-.19.68,6.52,6.52,0,0,0-.11.76Q141.38,62.5,141.38,62.89Z"/><path class="cls-8" d="M152.8,69.42a1,1,0,0,1-.52-.14,1.39,1.39,0,0,1-.4-.36,1.81,1.81,0,0,1-.27-.5,1.63,1.63,0,0,1-.1-.55V65.66a1.48,1.48,0,0,0-.07-.44,1.4,1.4,0,0,0-.2-.4,1.17,1.17,0,0,0-.32-.3.89.89,0,0,0-.43-.14v-.9a.85.85,0,0,0,.43-.13,1.14,1.14,0,0,0,.32-.31,1.45,1.45,0,0,0,.2-.42,1.68,1.68,0,0,0,.07-.47V60a1.64,1.64,0,0,1,.09-.54,1.79,1.79,0,0,1,.26-.5,1.42,1.42,0,0,1,.4-.37,1,1,0,0,1,.53-.14h1.35v1.09h-.58a.68.68,0,0,0-.33.07.59.59,0,0,0-.22.2.85.85,0,0,0-.12.3,2,2,0,0,0,0,.39v1.8a2,2,0,0,1-.25,1,1.36,1.36,0,0,1-.81.59v0a1.48,1.48,0,0,1,.43.22,1.53,1.53,0,0,1,.33.34,1.61,1.61,0,0,1,.3.94v1.94a1.73,1.73,0,0,0,0,.35,1,1,0,0,0,.11.3.62.62,0,0,0,.21.21.57.57,0,0,0,.31.08h.62v1.09Z"/><path class="cls-8" d="M158.19,58.46a2.66,2.66,0,0,1,2.32,1.13,5.72,5.72,0,0,1,.79,3.3,5.83,5.83,0,0,1-.79,3.35,2.92,2.92,0,0,1-4.62,0,5.81,5.81,0,0,1-.79-3.35,5.74,5.74,0,0,1,.79-3.31A2.64,2.64,0,0,1,158.19,58.46Zm-1.7,4.44a10.28,10.28,0,0,0,.07,1.25,4.18,4.18,0,0,0,.26,1.06,1.83,1.83,0,0,0,.52.74,1.28,1.28,0,0,0,.85.28,1.31,1.31,0,0,0,1.08-.51,2.12,2.12,0,0,0,.31-.56,4.17,4.17,0,0,0,.2-.69,6.33,6.33,0,0,0,.1-.77q0-.4,0-.8a9.63,9.63,0,0,0-.08-1.27,3.8,3.8,0,0,0-.28-1,1.82,1.82,0,0,0-.53-.71,1.32,1.32,0,0,0-.84-.26,1.29,1.29,0,0,0-.6.13,1.39,1.39,0,0,0-.45.37,2,2,0,0,0-.31.55,4.32,4.32,0,0,0-.19.68,6.52,6.52,0,0,0-.11.76Q156.5,62.5,156.5,62.89Z"/><path class="cls-8" d="M165.48,64.5a1.1,1.1,0,0,0-.32.3,1.39,1.39,0,0,0-.2.41,1.52,1.52,0,0,0-.07.45v2.22a1.71,1.71,0,0,1-.35,1,1.52,1.52,0,0,1-.41.37,1,1,0,0,1-.53.15h-1.35V68.33h.6a.62.62,0,0,0,.32-.08.59.59,0,0,0,.21-.21,1,1,0,0,0,.11-.31,1.91,1.91,0,0,0,0-.37V65.5a1.91,1.91,0,0,1,.07-.51,1.63,1.63,0,0,1,.2-.45,1.4,1.4,0,0,1,.33-.36,1.48,1.48,0,0,1,.46-.23v0a1.38,1.38,0,0,1-.48-.23,1.36,1.36,0,0,1-.33-.36,1.59,1.59,0,0,1-.19-.45,2.09,2.09,0,0,1-.06-.51V60.49a1.4,1.4,0,0,0-.15-.7.55.55,0,0,0-.52-.26h-.61V58.43h1.35a1,1,0,0,1,.51.13,1.39,1.39,0,0,1,.41.35,1.71,1.71,0,0,1,.27.5,1.67,1.67,0,0,1,.1.56v2.17a1.75,1.75,0,0,0,.06.46,1.35,1.35,0,0,0,.19.42,1.18,1.18,0,0,0,.32.31.94.94,0,0,0,.45.15v.9A.88.88,0,0,0,165.48,64.5Z"/><path class="cls-8" d="M168.79,69.42a1,1,0,0,1-.52-.14,1.39,1.39,0,0,1-.4-.36,1.81,1.81,0,0,1-.27-.5,1.63,1.63,0,0,1-.1-.55V65.66a1.48,1.48,0,0,0-.07-.44,1.4,1.4,0,0,0-.2-.4,1.17,1.17,0,0,0-.32-.3.89.89,0,0,0-.43-.14v-.9a.85.85,0,0,0,.43-.13,1.14,1.14,0,0,0,.32-.31,1.45,1.45,0,0,0,.2-.42,1.68,1.68,0,0,0,.07-.47V60a1.64,1.64,0,0,1,.09-.54,1.79,1.79,0,0,1,.26-.5,1.42,1.42,0,0,1,.4-.37,1,1,0,0,1,.53-.14h1.35v1.09h-.58a.68.68,0,0,0-.33.07.59.59,0,0,0-.22.2.85.85,0,0,0-.12.3,2,2,0,0,0,0,.39v1.8a2,2,0,0,1-.25,1,1.36,1.36,0,0,1-.81.59v0a1.48,1.48,0,0,1,.43.22,1.53,1.53,0,0,1,.33.34,1.61,1.61,0,0,1,.3.94v1.94a1.73,1.73,0,0,0,0,.35,1,1,0,0,0,.11.3.62.62,0,0,0,.21.21.57.57,0,0,0,.31.08h.62v1.09Z"/><path class="cls-8" d="M174,67.2V61.32h-2.2v-1a6,6,0,0,0,.9-.07,2.36,2.36,0,0,0,.63-.18,1.57,1.57,0,0,0,.64-.55,2.21,2.21,0,0,0,.31-.89h1.11v8.6Z"/><path class="cls-8" d="M181.47,64.5a1.1,1.1,0,0,0-.32.3,1.39,1.39,0,0,0-.2.41,1.52,1.52,0,0,0-.07.45v2.22a1.71,1.71,0,0,1-.35,1,1.52,1.52,0,0,1-.41.37,1,1,0,0,1-.53.15h-1.35V68.33h.6a.62.62,0,0,0,.32-.08.59.59,0,0,0,.21-.21,1,1,0,0,0,.11-.31,1.91,1.91,0,0,0,0-.37V65.5a1.91,1.91,0,0,1,.07-.51,1.63,1.63,0,0,1,.2-.45,1.4,1.4,0,0,1,.33-.36,1.48,1.48,0,0,1,.46-.23v0a1.38,1.38,0,0,1-.48-.23,1.36,1.36,0,0,1-.33-.36,1.59,1.59,0,0,1-.19-.45,2.09,2.09,0,0,1-.06-.51V60.49a1.4,1.4,0,0,0-.15-.7.55.55,0,0,0-.52-.26h-.61V58.43h1.35a1,1,0,0,1,.51.13,1.39,1.39,0,0,1,.41.35,1.71,1.71,0,0,1,.27.5,1.67,1.67,0,0,1,.1.56v2.17a1.75,1.75,0,0,0,.06.46,1.35,1.35,0,0,0,.19.42,1.18,1.18,0,0,0,.32.31.94.94,0,0,0,.45.15v.9A.88.88,0,0,0,181.47,64.5Z"/><line class="cls-5" x1="365.48" y1="87.2" x2="365.48" y2="39.2"/><line class="cls-5" x1="462.48" y1="87.2" x2="462.48" y2="39.2"/><line class="cls-5" x1="523.48" y1="87.2" x2="523.48" y2="39.2"/><line class="cls-5" x1="584.48" y1="87.2" x2="584.48" y2="39.2"/><line class="cls-5" x1="645.48" y1="87.2" x2="645.48" y2="39.2"/><line class="cls-5" x1="826.48" y1="87.2" x2="826.48" y2="39.2"/><line class="cls-5" x1="887.48" y1="87.2" x2="887.48" y2="39.2"/><line class="cls-5" x1="60.48" y1="87.2" x2="60.48" y2="39.2"/><polygon class="cls-9" points="882.98 86.19 877.32 86.2 882.98 80.54 882.98 86.19"/><path class="cls-10" d="M90.73,58.77l-1.11.72a7.87,7.87,0,1,0-6.76,11.89v-2A5.9,5.9,0,1,1,88,60.57l-1.2.78,1.87.95,2.09,1.06.26.13Z"/><rect class="cls-11" x="485.31" y="44.77" width="14.85" height="14.85" transform="translate(107.41 363.7) rotate(-45)"/><line class="cls-11" x1="492.73" y1="46.32" x2="492.73" y2="57.52"/><path class="cls-9" d="M486.5,74.23a2,2,0,0,1-.24,1,2,2,0,0,1-.65.68,2.89,2.89,0,0,1-.94.39,4.86,4.86,0,0,1-1.12.13,4.28,4.28,0,0,1-1.14-.14,2.81,2.81,0,0,1-.92-.43,2.06,2.06,0,0,1-.62-.7,2,2,0,0,1-.22-1v-.08h1.23v0a1.11,1.11,0,0,0,.14.56,1.17,1.17,0,0,0,.38.4,1.73,1.73,0,0,0,.56.24,2.89,2.89,0,0,0,.68.08,2.84,2.84,0,0,0,.64-.07,1.7,1.7,0,0,0,.52-.21,1.07,1.07,0,0,0,.35-.34.88.88,0,0,0,.13-.48.77.77,0,0,0-.31-.63,2.7,2.7,0,0,0-1-.42l-1.53-.41a2.36,2.36,0,0,1-1.2-.65,1.68,1.68,0,0,1-.39-1.16,1.86,1.86,0,0,1,.21-.91,2,2,0,0,1,.58-.66,2.67,2.67,0,0,1,.86-.4,4,4,0,0,1,2,0,2.67,2.67,0,0,1,.85.38,1.94,1.94,0,0,1,.59.64,1.89,1.89,0,0,1,.23.91H485a1,1,0,0,0-.13-.43,1.05,1.05,0,0,0-.31-.34,1.46,1.46,0,0,0-.46-.22,2.09,2.09,0,0,0-.59-.08A2.42,2.42,0,0,0,483,70a1.44,1.44,0,0,0-.46.19,1,1,0,0,0-.31.32.88.88,0,0,0-.11.46.83.83,0,0,0,.06.33.68.68,0,0,0,.17.23.88.88,0,0,0,.26.16l.34.11,1.68.44A3.07,3.07,0,0,1,486,73,1.68,1.68,0,0,1,486.5,74.23Z"/><path class="cls-9" d="M490.34,76.31h-.69a3.89,3.89,0,0,1-.61,0,1.3,1.3,0,0,1-.5-.18.92.92,0,0,1-.33-.37,1.39,1.39,0,0,1-.12-.63V71.64H487v-.85h1.07V69.15h1.21v1.64h1.25v.85h-1.25v3.1a.68.68,0,0,0,.14.48.67.67,0,0,0,.5.15h.62v1Z"/><path class="cls-9" d="M496.81,76.27l-.37.07-.33,0a1.47,1.47,0,0,1-.35,0,.76.76,0,0,1-.28-.13.69.69,0,0,1-.2-.24,1.08,1.08,0,0,1-.1-.37h0a2.24,2.24,0,0,1-.38.38,1.93,1.93,0,0,1-.44.26,2.76,2.76,0,0,1-1.09.2,2,2,0,0,1-1.35-.42,1.47,1.47,0,0,1-.5-1.21,1.42,1.42,0,0,1,.5-1.18,1.76,1.76,0,0,1,.48-.26,3.87,3.87,0,0,1,.61-.17l.69-.11.72-.08.28-.06a.67.67,0,0,0,.22-.11.48.48,0,0,0,.14-.19.64.64,0,0,0,.05-.27.81.81,0,0,0-.26-.66,1.34,1.34,0,0,0-.87-.22,1.36,1.36,0,0,0-.83.22.83.83,0,0,0-.33.61H491.6a1.68,1.68,0,0,1,.24-.75,1.63,1.63,0,0,1,.52-.52,2.4,2.4,0,0,1,.75-.3,4.21,4.21,0,0,1,.94-.1,2.85,2.85,0,0,1,1.7.42,1.38,1.38,0,0,1,.56,1.17v3a.39.39,0,0,0,.07.25.28.28,0,0,0,.23.08h.1l.11,0Zm-1.7-2.79h0a.79.79,0,0,1-.45.19l-.4.07-.54.09a1.82,1.82,0,0,0-.82.31.72.72,0,0,0-.27.6.74.74,0,0,0,.31.63,1.23,1.23,0,0,0,.73.2,1.49,1.49,0,0,0,1.05-.36,1.32,1.32,0,0,0,.41-1Z"/><path class="cls-9" d="M497.94,76.27V70.79h1.14V71.9h0a2,2,0,0,1,.73-.9,1.86,1.86,0,0,1,1.07-.33h.18l.17,0v1.13l-.21,0h-.23a1.54,1.54,0,0,0-1.24.5,2,2,0,0,0-.42,1.31v2.65Z"/><path class="cls-9" d="M505.11,76.31h-.69a3.89,3.89,0,0,1-.61,0,1.3,1.3,0,0,1-.5-.18.92.92,0,0,1-.33-.37,1.39,1.39,0,0,1-.12-.63V71.64h-1.07v-.85h1.07V69.15h1.21v1.64h1.25v.85h-1.25v3.1a.68.68,0,0,0,.14.48.67.67,0,0,0,.5.15h.62v1Z"/><path class="cls-9" d="M398.72,69a3.78,3.78,0,0,1,1.1.15,2.88,2.88,0,0,1,.89.44,2.45,2.45,0,0,1,.64.71,2.66,2.66,0,0,1,.34.94h-1.22a1.58,1.58,0,0,0-.21-.47,1.49,1.49,0,0,0-.37-.38,1.79,1.79,0,0,0-.52-.26,2.28,2.28,0,0,0-1.64.13,2,2,0,0,0-.7.6,2.58,2.58,0,0,0-.42.86,3.75,3.75,0,0,0-.14,1,3.68,3.68,0,0,0,.13,1,2.55,2.55,0,0,0,.4.85,2.1,2.1,0,0,0,.69.6,2.07,2.07,0,0,0,1,.23,2,2,0,0,0,.71-.12,1.66,1.66,0,0,0,.93-.84,2.23,2.23,0,0,0,.2-.65h1.22a3.53,3.53,0,0,1-.29,1,2.67,2.67,0,0,1-1.52,1.41,3.45,3.45,0,0,1-1.24.21,3.54,3.54,0,0,1-1.43-.28,3.21,3.21,0,0,1-1.1-.78,3.46,3.46,0,0,1-.7-1.17,4.33,4.33,0,0,1-.24-1.48,4.43,4.43,0,0,1,.23-1.43,3.58,3.58,0,0,1,.67-1.19,3.2,3.2,0,0,1,1.09-.82A3.48,3.48,0,0,1,398.72,69Z"/><path class="cls-9" d="M408.25,73.53a3.39,3.39,0,0,1-.19,1.15,2.57,2.57,0,0,1-.56.92,2.47,2.47,0,0,1-.87.61,2.92,2.92,0,0,1-1.14.21,2.6,2.6,0,0,1-2-.8,3.28,3.28,0,0,1,0-4.18,2.58,2.58,0,0,1,2-.8,2.63,2.63,0,0,1,2,.8A3,3,0,0,1,408.25,73.53Zm-1.21,0a3,3,0,0,0-.1-.77,1.84,1.84,0,0,0-.29-.62,1.39,1.39,0,0,0-.49-.42,1.45,1.45,0,0,0-.69-.15,1.42,1.42,0,0,0-.64.14,1.35,1.35,0,0,0-.48.4,1.87,1.87,0,0,0-.3.62,3.15,3.15,0,0,0,0,1.59,1.83,1.83,0,0,0,.29.62,1.39,1.39,0,0,0,.48.41,1.55,1.55,0,0,0,1.32,0,1.41,1.41,0,0,0,.49-.41,1.88,1.88,0,0,0,.3-.62A2.84,2.84,0,0,0,407,73.53Z"/><path class="cls-9" d="M412.48,70.64a2.72,2.72,0,0,1,.92.14,1.5,1.5,0,0,1,.62.41,1.6,1.6,0,0,1,.35.67,3.54,3.54,0,0,1,.11.94v3.48h-1.2V73A1.76,1.76,0,0,0,413,72a1,1,0,0,0-.85-.36,1.23,1.23,0,0,0-1,.43,1.9,1.9,0,0,0-.34,1.21v3h-1.2V70.79h1.15v.83h0a1.8,1.8,0,0,1,.31-.42,1.9,1.9,0,0,1,.4-.31,2,2,0,0,1,.47-.19A2,2,0,0,1,412.48,70.64Z"/><path class="cls-9" d="M418.79,76.31h-.69a3.89,3.89,0,0,1-.61,0,1.3,1.3,0,0,1-.5-.18.92.92,0,0,1-.33-.37,1.39,1.39,0,0,1-.12-.63V71.64h-1.07v-.85h1.07V69.15h1.21v1.64H419v.85h-1.25v3.1a.68.68,0,0,0,.14.48.67.67,0,0,0,.5.15H419v1Z"/><path class="cls-9" d="M420.14,76.27V70.79h1.14V71.9h0A2,2,0,0,1,422,71a1.86,1.86,0,0,1,1.07-.33h.18l.17,0v1.13l-.21,0H423a1.54,1.54,0,0,0-1.24.5,2,2,0,0,0-.42,1.31v2.65Z"/><path class="cls-9" d="M429.54,73.53a3.39,3.39,0,0,1-.19,1.15,2.57,2.57,0,0,1-.56.92,2.47,2.47,0,0,1-.87.61,2.92,2.92,0,0,1-1.14.21,2.6,2.6,0,0,1-2-.8,3.28,3.28,0,0,1,0-4.18,2.58,2.58,0,0,1,2-.8,2.63,2.63,0,0,1,2,.8A3,3,0,0,1,429.54,73.53Zm-1.21,0a3,3,0,0,0-.1-.77,1.84,1.84,0,0,0-.29-.62,1.39,1.39,0,0,0-.49-.42,1.45,1.45,0,0,0-.69-.15,1.42,1.42,0,0,0-.64.14,1.35,1.35,0,0,0-.48.4,1.87,1.87,0,0,0-.3.62,3.15,3.15,0,0,0,0,1.59,1.83,1.83,0,0,0,.29.62,1.39,1.39,0,0,0,.48.41,1.55,1.55,0,0,0,1.32,0,1.41,1.41,0,0,0,.49-.41,1.88,1.88,0,0,0,.3-.62A2.84,2.84,0,0,0,428.33,73.53Z"/><path class="cls-9" d="M432.13,68.7v7.57h-1.21V68.7Z"/><path class="cls-9" d="M548.27,74.23a2,2,0,0,1-.24,1,2,2,0,0,1-.65.68,2.89,2.89,0,0,1-.94.39,4.86,4.86,0,0,1-1.12.13,4.28,4.28,0,0,1-1.14-.14,2.81,2.81,0,0,1-.92-.43,2.06,2.06,0,0,1-.62-.7,2,2,0,0,1-.22-1v-.08h1.23v0a1.11,1.11,0,0,0,.14.56,1.17,1.17,0,0,0,.38.4,1.73,1.73,0,0,0,.56.24,2.89,2.89,0,0,0,.68.08,2.84,2.84,0,0,0,.64-.07,1.7,1.7,0,0,0,.52-.21,1.07,1.07,0,0,0,.35-.34.88.88,0,0,0,.13-.48.77.77,0,0,0-.31-.63,2.7,2.7,0,0,0-1-.42l-1.53-.41a2.36,2.36,0,0,1-1.2-.65,1.68,1.68,0,0,1-.39-1.16,1.86,1.86,0,0,1,.21-.91,2,2,0,0,1,.58-.66,2.67,2.67,0,0,1,.86-.4,4,4,0,0,1,2,0,2.67,2.67,0,0,1,.85.38,1.94,1.94,0,0,1,.59.64A1.89,1.89,0,0,1,548,71h-1.22a1,1,0,0,0-.13-.43,1.05,1.05,0,0,0-.31-.34,1.46,1.46,0,0,0-.46-.22,2.09,2.09,0,0,0-.59-.08,2.42,2.42,0,0,0-.55.06,1.44,1.44,0,0,0-.46.19,1,1,0,0,0-.31.32.88.88,0,0,0-.11.46.83.83,0,0,0,.06.33.68.68,0,0,0,.17.23.88.88,0,0,0,.26.16l.34.11,1.68.44a3.07,3.07,0,0,1,1.42.72A1.68,1.68,0,0,1,548.27,74.23Z"/><path class="cls-9" d="M552.1,76.31h-.69a3.89,3.89,0,0,1-.61,0,1.3,1.3,0,0,1-.5-.18.92.92,0,0,1-.33-.37,1.39,1.39,0,0,1-.12-.63V71.64h-1.07v-.85h1.07V69.15H551v1.64h1.25v.85H551v3.1a.68.68,0,0,0,.14.48.67.67,0,0,0,.5.15h.62v1Z"/><path class="cls-9" d="M558.66,73.53a3.39,3.39,0,0,1-.19,1.15,2.57,2.57,0,0,1-.56.92,2.47,2.47,0,0,1-.87.61,2.92,2.92,0,0,1-1.14.21,2.6,2.6,0,0,1-2-.8,3.28,3.28,0,0,1,0-4.18,2.58,2.58,0,0,1,2-.8,2.63,2.63,0,0,1,2,.8A3,3,0,0,1,558.66,73.53Zm-1.21,0a3,3,0,0,0-.1-.77,1.84,1.84,0,0,0-.29-.62,1.39,1.39,0,0,0-.49-.42,1.45,1.45,0,0,0-.69-.15,1.42,1.42,0,0,0-.64.14,1.35,1.35,0,0,0-.48.4,1.87,1.87,0,0,0-.3.62,3.15,3.15,0,0,0,0,1.59,1.83,1.83,0,0,0,.29.62,1.39,1.39,0,0,0,.48.41,1.55,1.55,0,0,0,1.32,0,1.41,1.41,0,0,0,.49-.41,1.88,1.88,0,0,0,.3-.62A2.84,2.84,0,0,0,557.45,73.53Z"/><path class="cls-9" d="M565.38,73.57a3.73,3.73,0,0,1-.07.71,3.36,3.36,0,0,1-.2.67,2.73,2.73,0,0,1-.33.59,2.16,2.16,0,0,1-.47.47,2.22,2.22,0,0,1-.61.31,2.39,2.39,0,0,1-.75.11,2.18,2.18,0,0,1-.52-.06,2,2,0,0,1-.48-.19,1.94,1.94,0,0,1-.41-.3,1.69,1.69,0,0,1-.31-.42h0v2.77H560V70.79h1.14v.83h0a1.73,1.73,0,0,1,.72-.73,2.15,2.15,0,0,1,1-.24,2.4,2.4,0,0,1,1.09.23,2.23,2.23,0,0,1,.77.63,2.73,2.73,0,0,1,.46.93A4,4,0,0,1,565.38,73.57Zm-1.21,0a3.31,3.31,0,0,0-.08-.69,2,2,0,0,0-.25-.63,1.43,1.43,0,0,0-.46-.46,1.31,1.31,0,0,0-.71-.18,1.33,1.33,0,0,0-1.12.51,2.35,2.35,0,0,0-.39,1.46,3,3,0,0,0,.08.7,1.94,1.94,0,0,0,.27.63,1.44,1.44,0,0,0,.47.45,1.37,1.37,0,0,0,.71.17,1.3,1.3,0,0,0,1.11-.55,1.8,1.8,0,0,0,.28-.62A3.15,3.15,0,0,0,564.18,73.54Z"/><circle class="cls-12" cx="553.98" cy="52.2" r="9.5"/><polygon class="cls-12" points="558.48 49.3 553.98 57.09 549.48 49.3 558.48 49.3"/><circle class="cls-13" cx="611.31" cy="53.87" r="6.82"/><polygon class="cls-13" points="614.54 51.79 611.3 57.39 608.07 51.79 614.54 51.79"/><path class="cls-13" d="M604.48,43a59.13,59.13,0,0,1,5.93,0c11.78.57,14.23,14.7,15.07,16.63"/><rect class="cls-14" x="714.98" y="62.7" width="66" height="23"/><path class="cls-15" d="M780.48,63.2v22h-65v-22h65m1-1h-67v24h67v-24Z"/><path class="cls-16" d="M752.12,73.4v1.09H749V73.4Z"/><path class="cls-16" d="M758.44,69.28v1.08h-3.33l-.38,2.05,0,0a2.11,2.11,0,0,1,.69-.46,2.34,2.34,0,0,1,.89-.16,2.58,2.58,0,0,1,1,.2,2.32,2.32,0,0,1,.79.56,2.48,2.48,0,0,1,.5.85,3.19,3.19,0,0,1,.17,1.07,2.68,2.68,0,0,1-.22,1.07,2.73,2.73,0,0,1-.6.88,2.88,2.88,0,0,1-.92.6,3,3,0,0,1-1.15.22,3.82,3.82,0,0,1-1.06-.14,2.46,2.46,0,0,1-.85-.42,2.12,2.12,0,0,1-.58-.7,2.44,2.44,0,0,1-.26-1h1.28a1.39,1.39,0,0,0,.13.46,1.22,1.22,0,0,0,.29.38,1.29,1.29,0,0,0,.44.25,1.79,1.79,0,0,0,.6.09,1.53,1.53,0,0,0,.67-.14,1.56,1.56,0,0,0,.51-.38,1.7,1.7,0,0,0,.32-.56,2,2,0,0,0,.11-.67,1.92,1.92,0,0,0-.11-.64,1.51,1.51,0,0,0-.82-.9,1.61,1.61,0,0,0-.67-.14,1.73,1.73,0,0,0-.79.17,1.71,1.71,0,0,0-.6.53h-1.14l.77-4.22Z"/><path class="cls-16" d="M762.72,69.12a2.43,2.43,0,0,1,2.12,1,5.24,5.24,0,0,1,.73,3,5.35,5.35,0,0,1-.73,3.07,2.68,2.68,0,0,1-4.23,0,5.33,5.33,0,0,1-.73-3.07,5.26,5.26,0,0,1,.73-3A2.42,2.42,0,0,1,762.72,69.12Zm-1.56,4.07a9.4,9.4,0,0,0,.07,1.14,3.81,3.81,0,0,0,.24,1,1.67,1.67,0,0,0,.47.68,1.17,1.17,0,0,0,.78.25,1.2,1.2,0,0,0,1-.47,1.91,1.91,0,0,0,.29-.51,3.77,3.77,0,0,0,.18-.63,5.75,5.75,0,0,0,.09-.7c0-.24,0-.49,0-.73a8.75,8.75,0,0,0-.07-1.16,3.46,3.46,0,0,0-.25-1,1.68,1.68,0,0,0-.49-.65,1.21,1.21,0,0,0-.77-.24,1.17,1.17,0,0,0-.55.12,1.26,1.26,0,0,0-.41.34,1.84,1.84,0,0,0-.28.5,4,4,0,0,0-.18.62,5.9,5.9,0,0,0-.1.7C761.17,72.7,761.16,72.94,761.16,73.18Z"/><path class="cls-16" d="M769.38,69.12a2.43,2.43,0,0,1,2.12,1,5.24,5.24,0,0,1,.73,3,5.35,5.35,0,0,1-.73,3.07,2.68,2.68,0,0,1-4.23,0,5.33,5.33,0,0,1-.73-3.07,5.26,5.26,0,0,1,.73-3A2.42,2.42,0,0,1,769.38,69.12Zm-1.56,4.07a9.4,9.4,0,0,0,.07,1.14,3.81,3.81,0,0,0,.24,1,1.67,1.67,0,0,0,.47.68,1.17,1.17,0,0,0,.78.25,1.2,1.2,0,0,0,1-.47,1.91,1.91,0,0,0,.29-.51,3.77,3.77,0,0,0,.18-.63,5.75,5.75,0,0,0,.09-.7c0-.24,0-.49,0-.73a8.75,8.75,0,0,0-.07-1.16,3.46,3.46,0,0,0-.25-1,1.68,1.68,0,0,0-.49-.65,1.21,1.21,0,0,0-.77-.24,1.17,1.17,0,0,0-.55.12,1.26,1.26,0,0,0-.41.34,1.84,1.84,0,0,0-.28.5,4,4,0,0,0-.18.62,5.9,5.9,0,0,0-.1.7C767.83,72.7,767.82,72.94,767.82,73.18Z"/><rect class="cls-17" x="780.98" y="62.7" width="31" height="23"/><path class="cls-18" d="M811.48,63.2v22h-30v-22h30m1-1h-32v24h32v-24Z"/><line class="cls-5" x1="780.48" y1="85.72" x2="812.48" y2="85.72"/><path class="cls-19" d="M758.44,47.83v1.08h-3.33L754.73,51l0,0a2.11,2.11,0,0,1,.69-.46,2.34,2.34,0,0,1,.89-.16,2.58,2.58,0,0,1,1,.2,2.32,2.32,0,0,1,.79.56,2.48,2.48,0,0,1,.5.85,3.19,3.19,0,0,1,.17,1.07,2.68,2.68,0,0,1-.22,1.07,2.73,2.73,0,0,1-.6.88,2.88,2.88,0,0,1-.92.6,3,3,0,0,1-1.15.22,3.82,3.82,0,0,1-1.06-.14,2.46,2.46,0,0,1-.85-.42,2.12,2.12,0,0,1-.58-.7,2.44,2.44,0,0,1-.26-1h1.28a1.39,1.39,0,0,0,.13.46,1.22,1.22,0,0,0,.29.38,1.29,1.29,0,0,0,.44.25,1.79,1.79,0,0,0,.6.09,1.53,1.53,0,0,0,.67-.14,1.56,1.56,0,0,0,.51-.38,1.7,1.7,0,0,0,.32-.56,2,2,0,0,0,.11-.67,1.92,1.92,0,0,0-.11-.64,1.51,1.51,0,0,0-.82-.9,1.61,1.61,0,0,0-.67-.14,1.73,1.73,0,0,0-.79.17,1.71,1.71,0,0,0-.6.53h-1.14l.77-4.22Z"/><path class="cls-19" d="M762.72,47.67a2.43,2.43,0,0,1,2.12,1,5.24,5.24,0,0,1,.73,3,5.35,5.35,0,0,1-.73,3.07,2.68,2.68,0,0,1-4.23,0,5.33,5.33,0,0,1-.73-3.07,5.26,5.26,0,0,1,.73-3A2.42,2.42,0,0,1,762.72,47.67Zm-1.56,4.07a9.4,9.4,0,0,0,.07,1.14,3.81,3.81,0,0,0,.24,1,1.67,1.67,0,0,0,.47.68,1.17,1.17,0,0,0,.78.25,1.2,1.2,0,0,0,1-.47,1.91,1.91,0,0,0,.29-.51,3.77,3.77,0,0,0,.18-.63,5.75,5.75,0,0,0,.09-.7c0-.24,0-.49,0-.73a8.75,8.75,0,0,0-.07-1.16,3.46,3.46,0,0,0-.25-1,1.68,1.68,0,0,0-.49-.65,1.21,1.21,0,0,0-.77-.24,1.17,1.17,0,0,0-.55.12,1.26,1.26,0,0,0-.41.34,1.84,1.84,0,0,0-.28.5,4,4,0,0,0-.18.62,5.9,5.9,0,0,0-.1.7C761.17,51.25,761.16,51.5,761.16,51.74Z"/><path class="cls-19" d="M769.38,47.67a2.43,2.43,0,0,1,2.12,1,5.24,5.24,0,0,1,.73,3,5.35,5.35,0,0,1-.73,3.07,2.68,2.68,0,0,1-4.23,0,5.33,5.33,0,0,1-.73-3.07,5.26,5.26,0,0,1,.73-3A2.42,2.42,0,0,1,769.38,47.67Zm-1.56,4.07a9.4,9.4,0,0,0,.07,1.14,3.81,3.81,0,0,0,.24,1,1.67,1.67,0,0,0,.47.68,1.17,1.17,0,0,0,.78.25,1.2,1.2,0,0,0,1-.47,1.91,1.91,0,0,0,.29-.51,3.77,3.77,0,0,0,.18-.63,5.75,5.75,0,0,0,.09-.7c0-.24,0-.49,0-.73a8.75,8.75,0,0,0-.07-1.16,3.46,3.46,0,0,0-.25-1,1.68,1.68,0,0,0-.49-.65,1.21,1.21,0,0,0-.77-.24,1.17,1.17,0,0,0-.55.12,1.26,1.26,0,0,0-.41.34,1.84,1.84,0,0,0-.28.5,4,4,0,0,0-.18.62,5.9,5.9,0,0,0-.1.7C767.83,51.25,767.82,51.5,767.82,51.74Z"/><path class="cls-9" d="M663.52,56.29l-.62-1.82h-3l-.62,1.82H658l2.57-7.13h1.69l2.52,7.13Zm-2.07-6.21h0l-1.17,3.44h2.33Z"/><path class="cls-9" d="M668.18,50.66a3.38,3.38,0,0,1,.89.11,2.36,2.36,0,0,1,.74.34,1.91,1.91,0,0,1,.53.56,1.93,1.93,0,0,1,.26.79h-1.19a1,1,0,0,0-.4-.65,1.42,1.42,0,0,0-.84-.23,1.27,1.27,0,0,0-.68.17,1.5,1.5,0,0,0-.47.45,2,2,0,0,0-.28.63,2.84,2.84,0,0,0,0,1.39,2,2,0,0,0,.26.63,1.48,1.48,0,0,0,.46.46,1.26,1.26,0,0,0,.68.18,1.51,1.51,0,0,0,.5-.08,1.24,1.24,0,0,0,.39-.22,1.17,1.17,0,0,0,.28-.34,1.46,1.46,0,0,0,.15-.44h1.17a2.55,2.55,0,0,1-.27.82,2.15,2.15,0,0,1-.52.63,2.3,2.3,0,0,1-.74.41,2.91,2.91,0,0,1-1,.15,2.76,2.76,0,0,1-1.1-.21,2.5,2.5,0,0,1-.85-.59,2.71,2.71,0,0,1-.55-.9,3.21,3.21,0,0,1-.2-1.14,3.56,3.56,0,0,1,.18-1.13,2.78,2.78,0,0,1,.53-.94,2.49,2.49,0,0,1,.86-.64A2.77,2.77,0,0,1,668.18,50.66Z"/><path class="cls-9" d="M674.61,56.33h-.69a3.89,3.89,0,0,1-.61,0,1.3,1.3,0,0,1-.5-.18.92.92,0,0,1-.33-.37,1.39,1.39,0,0,1-.12-.63V51.66h-1.07v-.85h1.07V49.17h1.21v1.64h1.25v.85h-1.25v3.1a.68.68,0,0,0,.14.48.67.67,0,0,0,.5.15h.62v1Z"/><path class="cls-9" d="M677.21,48.43v1.18H676V48.43Zm0,2.38v5.48H676V50.81Z"/><path class="cls-9" d="M679.46,50.81l1.36,4.28h0l1.35-4.28h1.2l-1.92,5.48h-1.32l-2-5.48Z"/><path class="cls-9" d="M686.71,50.66a2.51,2.51,0,0,1,1.12.24,2.32,2.32,0,0,1,.8.64,2.78,2.78,0,0,1,.48.95,4,4,0,0,1,.16,1.14v.22h-4a2.31,2.31,0,0,0,.11.68,1.58,1.58,0,0,0,.29.53,1.29,1.29,0,0,0,.45.34,1.42,1.42,0,0,0,.6.12,1.58,1.58,0,0,0,.81-.19,1.42,1.42,0,0,0,.51-.5h1.14a2.58,2.58,0,0,1-.38.68,2.35,2.35,0,0,1-.55.51,2.49,2.49,0,0,1-.71.33,3,3,0,0,1-.84.11,2.72,2.72,0,0,1-1.11-.21,2.35,2.35,0,0,1-.83-.6,2.64,2.64,0,0,1-.52-.91,3.59,3.59,0,0,1-.18-1.16,3.38,3.38,0,0,1,.18-1.11,2.75,2.75,0,0,1,.52-.92,2.54,2.54,0,0,1,.84-.63A2.63,2.63,0,0,1,686.71,50.66ZM688.07,53a2.28,2.28,0,0,0-.14-.59,1.44,1.44,0,0,0-.28-.46,1.19,1.19,0,0,0-.42-.29,1.59,1.59,0,0,0-1.14,0,1.24,1.24,0,0,0-.43.3,1.52,1.52,0,0,0-.29.46,2.14,2.14,0,0,0-.14.58Z"/><path class="cls-9" d="M693.44,56.29V50.81h1.14v1.11h0a2,2,0,0,1,.73-.9,1.86,1.86,0,0,1,1.07-.33h.18l.17,0v1.13l-.21,0h-.23a1.54,1.54,0,0,0-1.24.5,2,2,0,0,0-.42,1.31v2.65Z"/><path class="cls-9" d="M700,50.66a2.51,2.51,0,0,1,1.12.24,2.32,2.32,0,0,1,.8.64,2.78,2.78,0,0,1,.48.95,4,4,0,0,1,.16,1.14v.22h-4a2.31,2.31,0,0,0,.11.68,1.58,1.58,0,0,0,.29.53,1.29,1.29,0,0,0,.45.34,1.42,1.42,0,0,0,.6.12,1.58,1.58,0,0,0,.81-.19,1.42,1.42,0,0,0,.51-.5h1.14a2.58,2.58,0,0,1-.38.68,2.35,2.35,0,0,1-.55.51,2.49,2.49,0,0,1-.71.33,3,3,0,0,1-.84.11,2.72,2.72,0,0,1-1.11-.21,2.35,2.35,0,0,1-.83-.6,2.64,2.64,0,0,1-.52-.91,3.59,3.59,0,0,1-.18-1.16,3.38,3.38,0,0,1,.18-1.11,2.75,2.75,0,0,1,.52-.92,2.54,2.54,0,0,1,.84-.63A2.63,2.63,0,0,1,700,50.66ZM701.31,53a2.28,2.28,0,0,0-.14-.59,1.44,1.44,0,0,0-.28-.46,1.19,1.19,0,0,0-.42-.29,1.59,1.59,0,0,0-1.14,0,1.24,1.24,0,0,0-.43.3,1.52,1.52,0,0,0-.29.46,2.14,2.14,0,0,0-.14.58Z"/><path class="cls-9" d="M705.38,51.66v4.63h-1.21V51.66h-1.06v-.85h1.06v-.42a1.65,1.65,0,0,1,.43-1.26,1.37,1.37,0,0,1,.53-.3,2.5,2.5,0,0,1,.75-.1h.36l.43,0v.93l-.15,0h-.45a.72.72,0,0,0-.54.17.84.84,0,0,0-.15.57v.42h1.2v.85Z"/><path class="cls-9" d="M708.86,54.92v1.37h-1.34V54.92Z"/><path class="cls-9" d="M664.6,71.06a1.91,1.91,0,0,1-.42,1.28,1.5,1.5,0,0,1-.35.31,2.09,2.09,0,0,1-.46.21v0a1.43,1.43,0,0,1,.49.21,1.17,1.17,0,0,1,.33.35,1.63,1.63,0,0,1,.21.52,4.43,4.43,0,0,1,.08.57c0,.2,0,.4,0,.61a4,4,0,0,0,.08.62,1.38,1.38,0,0,0,.2.52h-1.27a3.66,3.66,0,0,1-.19-1.12,2.66,2.66,0,0,0-.38-1.47,1.13,1.13,0,0,0-.88-.34h-2v2.92h-1.25V69.13h3.68a2.14,2.14,0,0,1,1.48.53A1.8,1.8,0,0,1,664.6,71.06Zm-1.25.2a1.09,1.09,0,0,0-.32-.86,1.3,1.3,0,0,0-.89-.28h-2.05v2.29h2.05a1.27,1.27,0,0,0,.85-.27A1.08,1.08,0,0,0,663.35,71.26Z"/><path class="cls-9" d="M668.41,70.64a2.51,2.51,0,0,1,1.12.24,2.32,2.32,0,0,1,.8.64,2.78,2.78,0,0,1,.48.95,4,4,0,0,1,.16,1.14v.22h-4a2.31,2.31,0,0,0,.11.68,1.58,1.58,0,0,0,.29.53,1.29,1.29,0,0,0,.45.34,1.42,1.42,0,0,0,.6.12,1.58,1.58,0,0,0,.81-.19,1.42,1.42,0,0,0,.51-.5h1.14a2.58,2.58,0,0,1-.38.68,2.35,2.35,0,0,1-.55.51,2.49,2.49,0,0,1-.71.33,3,3,0,0,1-.84.11,2.72,2.72,0,0,1-1.11-.21,2.35,2.35,0,0,1-.83-.6,2.64,2.64,0,0,1-.52-.91,3.59,3.59,0,0,1-.18-1.16,3.38,3.38,0,0,1,.18-1.11,2.75,2.75,0,0,1,.52-.92,2.54,2.54,0,0,1,.84-.63A2.63,2.63,0,0,1,668.41,70.64ZM669.77,73a2.28,2.28,0,0,0-.14-.59,1.44,1.44,0,0,0-.28-.46,1.19,1.19,0,0,0-.42-.29,1.59,1.59,0,0,0-1.14,0,1.24,1.24,0,0,0-.43.3,1.52,1.52,0,0,0-.29.46,2.14,2.14,0,0,0-.14.58Z"/><path class="cls-9" d="M673.83,71.64v4.63h-1.21V71.64h-1.06v-.85h1.06v-.42a1.65,1.65,0,0,1,.43-1.26,1.37,1.37,0,0,1,.53-.3,2.5,2.5,0,0,1,.75-.1h.36l.43,0v.93l-.15,0h-.45a.72.72,0,0,0-.54.17.84.84,0,0,0-.15.57v.42H675v.85Z"/><path class="cls-9" d="M678.36,70.64a2.51,2.51,0,0,1,1.12.24,2.32,2.32,0,0,1,.8.64,2.78,2.78,0,0,1,.48.95,4,4,0,0,1,.16,1.14v.22h-4a2.31,2.31,0,0,0,.11.68,1.58,1.58,0,0,0,.29.53,1.29,1.29,0,0,0,.45.34,1.42,1.42,0,0,0,.6.12,1.58,1.58,0,0,0,.81-.19,1.42,1.42,0,0,0,.51-.5h1.14a2.58,2.58,0,0,1-.38.68,2.35,2.35,0,0,1-.55.51,2.49,2.49,0,0,1-.71.33,3,3,0,0,1-.84.11,2.72,2.72,0,0,1-1.11-.21,2.35,2.35,0,0,1-.83-.6,2.64,2.64,0,0,1-.52-.91,3.59,3.59,0,0,1-.18-1.16,3.38,3.38,0,0,1,.18-1.11,2.75,2.75,0,0,1,.52-.92,2.54,2.54,0,0,1,.84-.63A2.63,2.63,0,0,1,678.36,70.64ZM679.72,73a2.28,2.28,0,0,0-.14-.59,1.44,1.44,0,0,0-.28-.46,1.19,1.19,0,0,0-.42-.29,1.59,1.59,0,0,0-1.14,0,1.24,1.24,0,0,0-.43.3,1.52,1.52,0,0,0-.29.46,2.14,2.14,0,0,0-.14.58Z"/><path class="cls-9" d="M682.18,76.27V70.79h1.14V71.9h0a2,2,0,0,1,.73-.9,1.86,1.86,0,0,1,1.07-.33h.18l.17,0v1.13l-.21,0H685a1.54,1.54,0,0,0-1.24.5,2,2,0,0,0-.42,1.31v2.65Z"/><path class="cls-9" d="M688.69,70.64a2.51,2.51,0,0,1,1.12.24,2.32,2.32,0,0,1,.8.64,2.78,2.78,0,0,1,.48.95,4,4,0,0,1,.16,1.14v.22h-4a2.31,2.31,0,0,0,.11.68,1.58,1.58,0,0,0,.29.53,1.29,1.29,0,0,0,.45.34,1.42,1.42,0,0,0,.6.12,1.58,1.58,0,0,0,.81-.19,1.42,1.42,0,0,0,.51-.5h1.14a2.58,2.58,0,0,1-.38.68,2.35,2.35,0,0,1-.55.51,2.49,2.49,0,0,1-.71.33,3,3,0,0,1-.84.11,2.72,2.72,0,0,1-1.11-.21,2.35,2.35,0,0,1-.83-.6,2.64,2.64,0,0,1-.52-.91,3.59,3.59,0,0,1-.18-1.16,3.38,3.38,0,0,1,.18-1.11,2.75,2.75,0,0,1,.52-.92,2.54,2.54,0,0,1,.84-.63A2.63,2.63,0,0,1,688.69,70.64ZM690.06,73a2.28,2.28,0,0,0-.14-.59,1.44,1.44,0,0,0-.28-.46,1.19,1.19,0,0,0-.42-.29,1.59,1.59,0,0,0-1.14,0,1.24,1.24,0,0,0-.43.3,1.52,1.52,0,0,0-.29.46,2.14,2.14,0,0,0-.14.58Z"/><path class="cls-9" d="M695.4,70.64a2.72,2.72,0,0,1,.92.14,1.5,1.5,0,0,1,.62.41,1.6,1.6,0,0,1,.35.67,3.54,3.54,0,0,1,.11.94v3.48h-1.2V73a1.76,1.76,0,0,0-.26-1.05,1,1,0,0,0-.85-.36,1.23,1.23,0,0,0-1,.43,1.9,1.9,0,0,0-.34,1.21v3h-1.2V70.79h1.15v.83h0a1.8,1.8,0,0,1,.31-.42,1.9,1.9,0,0,1,.4-.31,2,2,0,0,1,.47-.19A2,2,0,0,1,695.4,70.64Z"/><path class="cls-9" d="M701.48,70.64a3.38,3.38,0,0,1,.89.11,2.36,2.36,0,0,1,.74.34,1.91,1.91,0,0,1,.53.56,1.93,1.93,0,0,1,.26.79h-1.19a1,1,0,0,0-.4-.65,1.42,1.42,0,0,0-.84-.23,1.27,1.27,0,0,0-.68.17,1.5,1.5,0,0,0-.47.45,2,2,0,0,0-.28.63,2.84,2.84,0,0,0,0,1.39,2,2,0,0,0,.26.63,1.48,1.48,0,0,0,.46.46,1.26,1.26,0,0,0,.68.18,1.51,1.51,0,0,0,.5-.08,1.24,1.24,0,0,0,.39-.22,1.17,1.17,0,0,0,.28-.34,1.46,1.46,0,0,0,.15-.44h1.17a2.55,2.55,0,0,1-.27.82,2.15,2.15,0,0,1-.52.63,2.3,2.3,0,0,1-.74.41,2.91,2.91,0,0,1-1,.15,2.76,2.76,0,0,1-1.1-.21,2.5,2.5,0,0,1-.85-.59,2.71,2.71,0,0,1-.55-.9,3.21,3.21,0,0,1-.2-1.14,3.56,3.56,0,0,1,.18-1.13,2.78,2.78,0,0,1,.53-.94,2.49,2.49,0,0,1,.86-.64A2.77,2.77,0,0,1,701.48,70.64Z"/><path class="cls-9" d="M707.55,70.64a2.51,2.51,0,0,1,1.12.24,2.32,2.32,0,0,1,.8.64,2.78,2.78,0,0,1,.48.95,4,4,0,0,1,.16,1.14v.22h-4a2.31,2.31,0,0,0,.11.68,1.58,1.58,0,0,0,.29.53,1.29,1.29,0,0,0,.45.34,1.42,1.42,0,0,0,.6.12,1.58,1.58,0,0,0,.81-.19,1.42,1.42,0,0,0,.51-.5H710a2.58,2.58,0,0,1-.38.68,2.35,2.35,0,0,1-.55.51,2.49,2.49,0,0,1-.71.33,3,3,0,0,1-.84.11,2.72,2.72,0,0,1-1.11-.21,2.35,2.35,0,0,1-.83-.6,2.64,2.64,0,0,1-.52-.91,3.59,3.59,0,0,1-.18-1.16,3.38,3.38,0,0,1,.18-1.11,2.75,2.75,0,0,1,.52-.92,2.54,2.54,0,0,1,.84-.63A2.63,2.63,0,0,1,707.55,70.64ZM708.91,73a2.28,2.28,0,0,0-.14-.59,1.44,1.44,0,0,0-.28-.46,1.19,1.19,0,0,0-.42-.29,1.59,1.59,0,0,0-1.14,0,1.24,1.24,0,0,0-.43.3,1.52,1.52,0,0,0-.29.46,2.14,2.14,0,0,0-.14.58Z"/><path class="cls-9" d="M794.85,74.23a2,2,0,0,1-.24,1,2,2,0,0,1-.65.68,2.89,2.89,0,0,1-.94.39,4.86,4.86,0,0,1-1.12.13,4.28,4.28,0,0,1-1.14-.14,2.81,2.81,0,0,1-.92-.43,2.06,2.06,0,0,1-.62-.7,2,2,0,0,1-.22-1v-.08h1.23v0a1.11,1.11,0,0,0,.14.56,1.17,1.17,0,0,0,.38.4,1.73,1.73,0,0,0,.56.24,2.89,2.89,0,0,0,.68.08,2.84,2.84,0,0,0,.64-.07,1.7,1.7,0,0,0,.52-.21,1.07,1.07,0,0,0,.35-.34.88.88,0,0,0,.13-.48.77.77,0,0,0-.31-.63,2.7,2.7,0,0,0-1-.42l-1.53-.41a2.36,2.36,0,0,1-1.2-.65,1.68,1.68,0,0,1-.39-1.16,1.86,1.86,0,0,1,.21-.91,2,2,0,0,1,.58-.66,2.67,2.67,0,0,1,.86-.4,4,4,0,0,1,2,0,2.67,2.67,0,0,1,.85.38,1.94,1.94,0,0,1,.59.64,1.89,1.89,0,0,1,.23.91h-1.22a1,1,0,0,0-.13-.43,1.05,1.05,0,0,0-.31-.34,1.46,1.46,0,0,0-.46-.22,2.09,2.09,0,0,0-.59-.08,2.42,2.42,0,0,0-.55.06,1.44,1.44,0,0,0-.46.19,1,1,0,0,0-.31.32.88.88,0,0,0-.11.46.83.83,0,0,0,.06.33.68.68,0,0,0,.17.23.88.88,0,0,0,.26.16l.34.11,1.68.44a3.07,3.07,0,0,1,1.42.72A1.68,1.68,0,0,1,794.85,74.23Z"/><path class="cls-9" d="M798.37,70.64a2.51,2.51,0,0,1,1.12.24,2.32,2.32,0,0,1,.8.64,2.78,2.78,0,0,1,.48.95,4,4,0,0,1,.16,1.14v.22h-4a2.31,2.31,0,0,0,.11.68,1.58,1.58,0,0,0,.29.53,1.29,1.29,0,0,0,.45.34,1.42,1.42,0,0,0,.6.12,1.58,1.58,0,0,0,.81-.19,1.42,1.42,0,0,0,.51-.5h1.14a2.58,2.58,0,0,1-.38.68,2.35,2.35,0,0,1-.55.51,2.49,2.49,0,0,1-.71.33,3,3,0,0,1-.84.11,2.72,2.72,0,0,1-1.11-.21,2.35,2.35,0,0,1-.83-.6,2.64,2.64,0,0,1-.52-.91,3.59,3.59,0,0,1-.18-1.16,3.38,3.38,0,0,1,.18-1.11,2.75,2.75,0,0,1,.52-.92,2.54,2.54,0,0,1,.84-.63A2.63,2.63,0,0,1,798.37,70.64ZM799.73,73a2.28,2.28,0,0,0-.14-.59,1.44,1.44,0,0,0-.28-.46,1.19,1.19,0,0,0-.42-.29,1.59,1.59,0,0,0-1.14,0,1.24,1.24,0,0,0-.43.3,1.52,1.52,0,0,0-.29.46,2.14,2.14,0,0,0-.14.58Z"/><path class="cls-9" d="M804.92,76.31h-.69a3.89,3.89,0,0,1-.61,0,1.3,1.3,0,0,1-.5-.18.92.92,0,0,1-.33-.37,1.39,1.39,0,0,1-.12-.63V71.64h-1.07v-.85h1.07V69.15h1.21v1.64h1.25v.85h-1.25v3.1a.68.68,0,0,0,.14.48.67.67,0,0,0,.5.15h.62v1Z"/><polyline class="cls-20" points="849.98 57.2 853.48 57.2 853.48 45.2 862.48 45.2 862.48 57.2 865.98 57.2"/><g class="cls-21"><path class="cls-22" d="M328.55,71a1.94,1.94,0,0,1-.37,1.2,1.5,1.5,0,0,1-.44.39,2,2,0,0,1-.59.22v0a2,2,0,0,1,.57.18,1,1,0,0,1,.33.29,1.5,1.5,0,0,1,.24.53,3.72,3.72,0,0,1,.09.59q0,.31,0,.64a5,5,0,0,0,.08.68,1.51,1.51,0,0,0,.07.22,2.35,2.35,0,0,0,.15.31H328a2.72,2.72,0,0,1-.19-1.11,3,3,0,0,0-.41-1.67,1.15,1.15,0,0,0-.93-.39h-2.68v3.17h-.68V69.13h3.32a2.84,2.84,0,0,1,.85.12,2,2,0,0,1,.68.37A1.69,1.69,0,0,1,328.55,71Zm-.68.14a1.65,1.65,0,0,0-.1-.61,1.2,1.2,0,0,0-.3-.44,1.25,1.25,0,0,0-.47-.27,2,2,0,0,0-.62-.09h-2.58v2.81h2.57a1.58,1.58,0,0,0,1.05-.38A1.26,1.26,0,0,0,327.86,71.13Z"/><path class="cls-22" d="M332.24,70.64a2.27,2.27,0,0,1,1.08.24,2.17,2.17,0,0,1,.75.65,2.87,2.87,0,0,1,.43.95,4.35,4.35,0,0,1,.14,1.12v.11h-4.21a3,3,0,0,0,.1.79,2.15,2.15,0,0,0,.32.69,1.66,1.66,0,0,0,.55.49,1.59,1.59,0,0,0,.79.19,2,2,0,0,0,.58-.08,1.66,1.66,0,0,0,.46-.21,1.46,1.46,0,0,0,.35-.32,2,2,0,0,0,.24-.41h.65a2.49,2.49,0,0,1-.32.65,2.08,2.08,0,0,1-.49.5,2.27,2.27,0,0,1-.65.32,2.79,2.79,0,0,1-.83.11,2.46,2.46,0,0,1-1.08-.22,2.13,2.13,0,0,1-.76-.61,2.61,2.61,0,0,1-.45-.92,4.29,4.29,0,0,1-.15-1.15,3.89,3.89,0,0,1,.15-1.07,2.81,2.81,0,0,1,.45-.92,2.27,2.27,0,0,1,.77-.65A2.32,2.32,0,0,1,332.24,70.64ZM334,73.15a2.53,2.53,0,0,0-.13-.71,2,2,0,0,0-.34-.63,1.73,1.73,0,0,0-.54-.45,1.54,1.54,0,0,0-.73-.17,1.54,1.54,0,0,0-1.25.58,2.25,2.25,0,0,0-.35.62,3.59,3.59,0,0,0-.19.75Z"/><path class="cls-22" d="M340.13,74.78a1.4,1.4,0,0,1-.19.73,1.59,1.59,0,0,1-.49.51,2.31,2.31,0,0,1-.7.3,3.33,3.33,0,0,1-.82.1,3.07,3.07,0,0,1-.89-.12,2,2,0,0,1-.67-.34,1.66,1.66,0,0,1-.44-.54,2,2,0,0,1-.21-.71h.67a1.41,1.41,0,0,0,.16.46,1.17,1.17,0,0,0,.32.36,1.5,1.5,0,0,0,.47.23,2.12,2.12,0,0,0,.62.08,2.48,2.48,0,0,0,.5-.05,1.67,1.67,0,0,0,.49-.18,1.13,1.13,0,0,0,.37-.32.8.8,0,0,0,.15-.49.77.77,0,0,0-.28-.61,2.18,2.18,0,0,0-.94-.39l-.83-.19a3.36,3.36,0,0,1-.64-.2,1.73,1.73,0,0,1-.48-.31,1.22,1.22,0,0,1-.3-.42,1.35,1.35,0,0,1-.1-.54,1.31,1.31,0,0,1,.18-.7,1.48,1.48,0,0,1,.47-.48,2.12,2.12,0,0,1,.65-.27,3.14,3.14,0,0,1,.74-.09,2.72,2.72,0,0,1,.77.1,1.9,1.9,0,0,1,.61.3,1.52,1.52,0,0,1,.42.48,1.73,1.73,0,0,1,.21.65h-.67a1.1,1.1,0,0,0-.16-.42,1,1,0,0,0-.3-.31,1.43,1.43,0,0,0-.42-.19,2,2,0,0,0-.51-.06,2.4,2.4,0,0,0-.48,0,1.36,1.36,0,0,0-.42.16.89.89,0,0,0-.3.29.81.81,0,0,0-.11.44.62.62,0,0,0,.11.37,1,1,0,0,0,.28.27,1.63,1.63,0,0,0,.37.18l.39.11,1.14.25a2.42,2.42,0,0,1,.5.17,1.48,1.48,0,0,1,.42.29,1.35,1.35,0,0,1,.29.42A1.42,1.42,0,0,1,340.13,74.78Z"/><path class="cls-22" d="M343.75,70.64a2.27,2.27,0,0,1,1.08.24,2.17,2.17,0,0,1,.75.65,2.87,2.87,0,0,1,.43.95,4.35,4.35,0,0,1,.14,1.12v.11h-4.21a3,3,0,0,0,.1.79,2.15,2.15,0,0,0,.32.69,1.66,1.66,0,0,0,.55.49,1.59,1.59,0,0,0,.79.19,2,2,0,0,0,.58-.08,1.66,1.66,0,0,0,.46-.21,1.46,1.46,0,0,0,.35-.32,2,2,0,0,0,.24-.41H346a2.49,2.49,0,0,1-.32.65,2.08,2.08,0,0,1-.49.5,2.27,2.27,0,0,1-.65.32,2.79,2.79,0,0,1-.83.11,2.46,2.46,0,0,1-1.08-.22,2.13,2.13,0,0,1-.76-.61,2.61,2.61,0,0,1-.45-.92,4.29,4.29,0,0,1-.15-1.15,3.89,3.89,0,0,1,.15-1.07,2.81,2.81,0,0,1,.45-.92,2.27,2.27,0,0,1,.77-.65A2.32,2.32,0,0,1,343.75,70.64Zm1.74,2.51a2.53,2.53,0,0,0-.13-.71,2,2,0,0,0-.34-.63,1.73,1.73,0,0,0-.54-.45,1.54,1.54,0,0,0-.73-.17,1.54,1.54,0,0,0-1.25.58,2.25,2.25,0,0,0-.35.62,3.59,3.59,0,0,0-.19.75Z"/><path class="cls-22" d="M349.75,76.32h-.55a2.51,2.51,0,0,1-.57-.05.81.81,0,0,1-.37-.19.74.74,0,0,1-.21-.36,2.21,2.21,0,0,1-.06-.57v-3.8h-1.1V70.8H348V69.16h.67V70.8h1.25v.56h-1.25v3.73a1.48,1.48,0,0,0,0,.28.53.53,0,0,0,.09.21.41.41,0,0,0,.18.14.72.72,0,0,0,.29,0h.67v.57Z"/><path class="cls-22" d="M327.35,81.36v4.91h-.66V81.36H325.6V80.8h1.08v-.52a1.79,1.79,0,0,1,.34-1.23,1,1,0,0,1,.43-.26,2,2,0,0,1,.62-.09h.39l.25,0v.57l-.14,0-.16,0h-.26a.69.69,0,0,0-.8.81v.73h1.23v.56Z"/><path class="cls-22" d="M334.4,86.23l-.22,0H334a1.14,1.14,0,0,1-.37-.05.54.54,0,0,1-.24-.16.68.68,0,0,1-.14-.29,2,2,0,0,1,0-.44h0a2.53,2.53,0,0,1-.86.87,2.32,2.32,0,0,1-1.13.24,2,2,0,0,1-1.33-.42,1.46,1.46,0,0,1-.5-1.19,1.38,1.38,0,0,1,.55-1.19,5.67,5.67,0,0,1,2.47-.57,1.62,1.62,0,0,0,.37-.07.63.63,0,0,0,.24-.13.51.51,0,0,0,.13-.22,1.06,1.06,0,0,0,0-.32,1,1,0,0,0-.34-.84,1.68,1.68,0,0,0-1.09-.29,2.16,2.16,0,0,0-.6.08,1.36,1.36,0,0,0-.44.21.92.92,0,0,0-.28.32,1,1,0,0,0-.11.41h-.67a1.66,1.66,0,0,1,.18-.65,1.48,1.48,0,0,1,.43-.5,2,2,0,0,1,.67-.32,3.38,3.38,0,0,1,.91-.11,2.2,2.2,0,0,1,1.52.45,1.63,1.63,0,0,1,.49,1.27v3a.39.39,0,0,0,.09.27.38.38,0,0,0,.3.1.58.58,0,0,0,.21,0Zm-1.27-3h0q-.1.19-.64.26l-.55.08-.61.1a2.23,2.23,0,0,0-1,.36.83.83,0,0,0-.33.7,1,1,0,0,0,.36.79,1.33,1.33,0,0,0,.86.29,2,2,0,0,0,1.36-.48,1.54,1.54,0,0,0,.54-1.2Z"/><path class="cls-22" d="M339.41,86.27v-1h0a2.06,2.06,0,0,1-.32.48,1.94,1.94,0,0,1-.43.36,2,2,0,0,1-.53.22,2.25,2.25,0,0,1-.6.08,1.84,1.84,0,0,1-1.45-.52,2.2,2.2,0,0,1-.47-1.51V80.8h.67v3.56a2.22,2.22,0,0,0,.08.63,1.2,1.2,0,0,0,.26.47,1.12,1.12,0,0,0,.45.29,2,2,0,0,0,.66.1,1.42,1.42,0,0,0,.74-.19,1.61,1.61,0,0,0,.52-.49,2.18,2.18,0,0,0,.3-.69,3.25,3.25,0,0,0,.1-.78V80.8H340v5.47Z"/><path class="cls-22" d="M342.52,78.7v7.57h-.67V78.7Z"/><path class="cls-22" d="M346.56,86.32H346a2.51,2.51,0,0,1-.57-.05.81.81,0,0,1-.37-.19.74.74,0,0,1-.21-.36,2.21,2.21,0,0,1-.06-.57v-3.8h-1.1V80.8h1.1V79.16h.67V80.8h1.25v.56h-1.25v3.73a1.48,1.48,0,0,0,0,.28.53.53,0,0,0,.09.21.41.41,0,0,0,.18.14.72.72,0,0,0,.29,0h.67v.57Z"/></g><path class="cls-9" d="M605.2,69a3.75,3.75,0,0,1,1.1.15,2.89,2.89,0,0,1,.89.44,2.45,2.45,0,0,1,.64.71,2.66,2.66,0,0,1,.34.94h-1.22a1.56,1.56,0,0,0-.21-.47,1.5,1.5,0,0,0-.37-.38,1.83,1.83,0,0,0-.52-.26,2.11,2.11,0,0,0-.65-.1,2.08,2.08,0,0,0-1,.22,2.05,2.05,0,0,0-.7.6,2.6,2.6,0,0,0-.42.86,3.78,3.78,0,0,0,0,2,2.56,2.56,0,0,0,.4.85,2,2,0,0,0,1.7.83,2,2,0,0,0,.71-.12,1.66,1.66,0,0,0,.93-.84,2.21,2.21,0,0,0,.2-.65h1.22a3.49,3.49,0,0,1-.29,1,2.66,2.66,0,0,1-1.52,1.41,3.45,3.45,0,0,1-1.24.21,3.55,3.55,0,0,1-1.43-.28,3.22,3.22,0,0,1-1.1-.78,3.44,3.44,0,0,1-.7-1.17,4.34,4.34,0,0,1-.24-1.48,4.44,4.44,0,0,1,.23-1.43,3.56,3.56,0,0,1,.67-1.19,3.19,3.19,0,0,1,1.09-.82A3.5,3.5,0,0,1,605.2,69Z"/><path class="cls-9" d="M614.73,73.53a3.4,3.4,0,0,1-.19,1.15,2.59,2.59,0,0,1-.56.92,2.47,2.47,0,0,1-.87.61,2.9,2.9,0,0,1-1.14.21,2.6,2.6,0,0,1-2-.8,3.28,3.28,0,0,1,0-4.18,2.59,2.59,0,0,1,2-.8,2.63,2.63,0,0,1,2,.8A3,3,0,0,1,614.73,73.53Zm-1.21,0a3,3,0,0,0-.1-.77,1.85,1.85,0,0,0-.29-.62,1.4,1.4,0,0,0-.49-.42,1.46,1.46,0,0,0-.69-.15,1.43,1.43,0,0,0-.64.14,1.36,1.36,0,0,0-.48.4,1.87,1.87,0,0,0-.3.62,3.16,3.16,0,0,0,0,1.59,1.82,1.82,0,0,0,.3.62,1.39,1.39,0,0,0,.48.41,1.42,1.42,0,0,0,.66.15,1.43,1.43,0,0,0,.66-.15,1.4,1.4,0,0,0,.49-.41,1.87,1.87,0,0,0,.3-.62A2.85,2.85,0,0,0,613.53,73.53Z"/><path class="cls-9" d="M621.19,76.27l-.37.07-.33,0a1.47,1.47,0,0,1-.35,0,.75.75,0,0,1-.28-.13.7.7,0,0,1-.2-.24,1.05,1.05,0,0,1-.1-.37h0a2.24,2.24,0,0,1-.38.38,1.92,1.92,0,0,1-.44.26,2.76,2.76,0,0,1-1.09.2,2,2,0,0,1-1.35-.42,1.47,1.47,0,0,1-.5-1.21,1.42,1.42,0,0,1,.5-1.18,1.76,1.76,0,0,1,.48-.26,4,4,0,0,1,.61-.17l.69-.1.73-.09.28-.06a.65.65,0,0,0,.22-.11.49.49,0,0,0,.14-.19.65.65,0,0,0,.05-.27.82.82,0,0,0-.26-.66,1.76,1.76,0,0,0-1.71,0,.83.83,0,0,0-.33.61H616a1.67,1.67,0,0,1,.24-.75,1.63,1.63,0,0,1,.52-.52,2.39,2.39,0,0,1,.75-.3,4.27,4.27,0,0,1,.94-.1,2.85,2.85,0,0,1,1.7.42,1.38,1.38,0,0,1,.56,1.17v3a.39.39,0,0,0,.07.25.28.28,0,0,0,.23.08h.1l.1,0Zm-1.7-2.79h0a.79.79,0,0,1-.45.19l-.4.07-.54.09a1.84,1.84,0,0,0-.82.31.72.72,0,0,0-.27.6.74.74,0,0,0,.31.63,1.23,1.23,0,0,0,.73.2,1.49,1.49,0,0,0,1.05-.36,1.32,1.32,0,0,0,.41-1Z"/><path class="cls-9" d="M626.85,74.61a1.66,1.66,0,0,1-.19.82,1.63,1.63,0,0,1-.51.56,2.27,2.27,0,0,1-.76.33,4,4,0,0,1-.94.1,3.8,3.8,0,0,1-.9-.1,2.28,2.28,0,0,1-.74-.32,1.77,1.77,0,0,1-.52-.54,1.84,1.84,0,0,1-.25-.78h1.16a1,1,0,0,0,.14.39,1,1,0,0,0,.28.28,1.27,1.27,0,0,0,.38.17,1.84,1.84,0,0,0,.46.06,2,2,0,0,0,.44,0,1.2,1.2,0,0,0,.38-.15.85.85,0,0,0,.26-.26.65.65,0,0,0,.1-.36.51.51,0,0,0-.08-.29.74.74,0,0,0-.22-.21,1.52,1.52,0,0,0-.33-.15l-.39-.11-.78-.19a5,5,0,0,1-.75-.23,2,2,0,0,1-.53-.31,1.11,1.11,0,0,1-.31-.41,1.3,1.3,0,0,1-.1-.53,1.48,1.48,0,0,1,.18-.74,1.53,1.53,0,0,1,.49-.52,2.23,2.23,0,0,1,.72-.31,3.72,3.72,0,0,1,.89-.1,3.26,3.26,0,0,1,.88.11,2.18,2.18,0,0,1,.68.32,1.58,1.58,0,0,1,.45.5,1.62,1.62,0,0,1,.21.64H625.5a.85.85,0,0,0-.37-.54,1.37,1.37,0,0,0-.76-.19,2,2,0,0,0-.4,0,1.07,1.07,0,0,0-.32.12.64.64,0,0,0-.22.21.54.54,0,0,0-.08.3.5.5,0,0,0,.08.29.78.78,0,0,0,.21.21,1.23,1.23,0,0,0,.29.14l.31.08,1.15.27a3.65,3.65,0,0,1,.57.18,1.64,1.64,0,0,1,.45.28,1.23,1.23,0,0,1,.31.42A1.54,1.54,0,0,1,626.85,74.61Z"/><path class="cls-9" d="M630.84,76.31h-.69a3.9,3.9,0,0,1-.61,0,1.33,1.33,0,0,1-.5-.18.93.93,0,0,1-.33-.37,1.39,1.39,0,0,1-.12-.63V71.64H627.5v-.85h1.07V69.15h1.21v1.64H631v.85h-1.25v3.1a.69.69,0,0,0,.14.48.67.67,0,0,0,.5.15H631v1Z"/><path class="cls-9" d="M610.08,84.61a1.66,1.66,0,0,1-.19.82,1.63,1.63,0,0,1-.51.56,2.27,2.27,0,0,1-.76.33,4,4,0,0,1-.94.1,3.8,3.8,0,0,1-.9-.1A2.28,2.28,0,0,1,606,86a1.77,1.77,0,0,1-.52-.54,1.84,1.84,0,0,1-.25-.78h1.16a1,1,0,0,0,.14.39,1,1,0,0,0,.28.28,1.27,1.27,0,0,0,.38.17,1.84,1.84,0,0,0,.46.06,2,2,0,0,0,.44,0,1.2,1.2,0,0,0,.38-.15.85.85,0,0,0,.26-.26.65.65,0,0,0,.1-.36.51.51,0,0,0-.08-.29.74.74,0,0,0-.22-.21,1.52,1.52,0,0,0-.33-.15l-.39-.11-.78-.19a5,5,0,0,1-.75-.23,2,2,0,0,1-.53-.31,1.11,1.11,0,0,1-.31-.41,1.3,1.3,0,0,1-.1-.53,1.48,1.48,0,0,1,.18-.74,1.53,1.53,0,0,1,.49-.52,2.23,2.23,0,0,1,.72-.31,3.72,3.72,0,0,1,.89-.1,3.26,3.26,0,0,1,.88.11,2.18,2.18,0,0,1,.68.32,1.58,1.58,0,0,1,.45.5,1.62,1.62,0,0,1,.21.64h-1.16a.85.85,0,0,0-.37-.54,1.37,1.37,0,0,0-.76-.19,2,2,0,0,0-.4,0,1.07,1.07,0,0,0-.32.12.64.64,0,0,0-.22.21.54.54,0,0,0-.08.3.5.5,0,0,0,.08.29.78.78,0,0,0,.21.21,1.23,1.23,0,0,0,.29.14l.31.08,1.15.27a3.65,3.65,0,0,1,.57.18,1.64,1.64,0,0,1,.45.28A1.23,1.23,0,0,1,610,84,1.54,1.54,0,0,1,610.08,84.61Z"/><path class="cls-9" d="M614.07,86.31h-.69a3.9,3.9,0,0,1-.61,0,1.33,1.33,0,0,1-.5-.18.93.93,0,0,1-.33-.37,1.39,1.39,0,0,1-.12-.63V81.64h-1.07v-.85h1.07V79.15H613v1.64h1.25v.85H613v3.1a.69.69,0,0,0,.14.48.67.67,0,0,0,.5.15h.62v1Z"/><path class="cls-9" d="M620.63,83.53a3.4,3.4,0,0,1-.19,1.15,2.59,2.59,0,0,1-.56.92,2.47,2.47,0,0,1-.87.61,2.9,2.9,0,0,1-1.14.21,2.6,2.6,0,0,1-2-.8,3.28,3.28,0,0,1,0-4.18,2.59,2.59,0,0,1,2-.8,2.63,2.63,0,0,1,2,.8A3,3,0,0,1,620.63,83.53Zm-1.21,0a3,3,0,0,0-.1-.77,1.85,1.85,0,0,0-.29-.62,1.4,1.4,0,0,0-.49-.42,1.46,1.46,0,0,0-.69-.15,1.43,1.43,0,0,0-.64.14,1.36,1.36,0,0,0-.48.4,1.87,1.87,0,0,0-.3.62,3.16,3.16,0,0,0,0,1.59,1.82,1.82,0,0,0,.3.62,1.39,1.39,0,0,0,.48.41,1.42,1.42,0,0,0,.66.15,1.43,1.43,0,0,0,.66-.15,1.4,1.4,0,0,0,.49-.41,1.87,1.87,0,0,0,.3-.62A2.85,2.85,0,0,0,619.42,83.53Z"/><path class="cls-9" d="M627.35,83.57a3.8,3.8,0,0,1-.07.71,3.44,3.44,0,0,1-.2.67,2.75,2.75,0,0,1-.33.59,2.15,2.15,0,0,1-.47.47,2.18,2.18,0,0,1-.61.31,2.38,2.38,0,0,1-.75.11,2.14,2.14,0,0,1-.52-.06,2,2,0,0,1-.48-.19,1.88,1.88,0,0,1-.41-.3,1.67,1.67,0,0,1-.31-.42h0v2.77H622V80.79h1.14v.83h0a1.73,1.73,0,0,1,.72-.73,2.16,2.16,0,0,1,1-.24,2.4,2.4,0,0,1,1.09.23,2.22,2.22,0,0,1,.77.63,2.75,2.75,0,0,1,.46.93A4.05,4.05,0,0,1,627.35,83.57Zm-1.21,0a3.28,3.28,0,0,0-.08-.69,2,2,0,0,0-.25-.63,1.45,1.45,0,0,0-.46-.46,1.31,1.31,0,0,0-.71-.18,1.33,1.33,0,0,0-1.12.51,2.35,2.35,0,0,0-.39,1.46,3,3,0,0,0,.08.7,2,2,0,0,0,.27.63,1.45,1.45,0,0,0,.47.45,1.37,1.37,0,0,0,.71.17,1.3,1.3,0,0,0,1.11-.55,1.8,1.8,0,0,0,.28-.62A3.12,3.12,0,0,0,626.15,83.54Z"/><path class="cls-9" d="M852.47,74.23a2,2,0,0,1-.24,1,2,2,0,0,1-.65.68,2.94,2.94,0,0,1-.94.39,4.91,4.91,0,0,1-1.12.12,4.32,4.32,0,0,1-1.14-.14,2.81,2.81,0,0,1-.92-.43,2.07,2.07,0,0,1-.62-.7,2,2,0,0,1-.22-1v-.08h1.23v0a1.11,1.11,0,0,0,.14.56,1.17,1.17,0,0,0,.38.4,1.76,1.76,0,0,0,.56.24,3,3,0,0,0,1.32,0,1.69,1.69,0,0,0,.52-.21,1.09,1.09,0,0,0,.35-.34.89.89,0,0,0,.13-.48.77.77,0,0,0-.31-.63,2.7,2.7,0,0,0-1-.42l-1.53-.41a2.36,2.36,0,0,1-1.2-.65,1.68,1.68,0,0,1-.39-1.16,1.87,1.87,0,0,1,.21-.91,2,2,0,0,1,.58-.66,2.69,2.69,0,0,1,.86-.4,4,4,0,0,1,2,0,2.7,2.7,0,0,1,.85.38,1.94,1.94,0,0,1,.59.64,1.87,1.87,0,0,1,.23.91H851a1,1,0,0,0-.13-.43,1.06,1.06,0,0,0-.31-.34,1.52,1.52,0,0,0-.46-.22,2.09,2.09,0,0,0-.59-.08A2.41,2.41,0,0,0,849,70a1.45,1.45,0,0,0-.46.19,1,1,0,0,0-.31.32.87.87,0,0,0-.11.46.83.83,0,0,0,.06.33.65.65,0,0,0,.17.23.88.88,0,0,0,.26.16l.34.11,1.68.44A3.08,3.08,0,0,1,852,73,1.69,1.69,0,0,1,852.47,74.23Z"/><path class="cls-9" d="M856.31,76.31h-.69a3.9,3.9,0,0,1-.61,0,1.33,1.33,0,0,1-.5-.18.93.93,0,0,1-.33-.37,1.39,1.39,0,0,1-.12-.63V71.64H853v-.85H854V69.15h1.21v1.64h1.25v.85h-1.25v3.1a.69.69,0,0,0,.14.48.67.67,0,0,0,.5.15h.62v1Z"/><path class="cls-9" d="M860,70.64a2.5,2.5,0,0,1,1.12.24,2.32,2.32,0,0,1,.8.64,2.78,2.78,0,0,1,.48.95,4,4,0,0,1,.16,1.14v.22h-4a2.3,2.3,0,0,0,.11.68,1.59,1.59,0,0,0,.29.52,1.28,1.28,0,0,0,.45.34,1.4,1.4,0,0,0,.6.12,1.58,1.58,0,0,0,.81-.19,1.41,1.41,0,0,0,.51-.5h1.14a2.55,2.55,0,0,1-.38.68,2.36,2.36,0,0,1-.55.51,2.49,2.49,0,0,1-.71.32,3,3,0,0,1-.84.11,2.73,2.73,0,0,1-1.11-.21,2.35,2.35,0,0,1-.83-.6,2.66,2.66,0,0,1-.52-.91,3.59,3.59,0,0,1-.18-1.17,3.37,3.37,0,0,1,.18-1.11,2.75,2.75,0,0,1,.52-.92,2.53,2.53,0,0,1,.84-.63A2.63,2.63,0,0,1,860,70.64ZM861.33,73a2.3,2.3,0,0,0-.14-.59,1.43,1.43,0,0,0-.28-.46,1.18,1.18,0,0,0-.42-.29,1.44,1.44,0,0,0-.57-.11,1.45,1.45,0,0,0-.57.11,1.27,1.27,0,0,0-.43.3,1.5,1.5,0,0,0-.29.46,2.12,2.12,0,0,0-.14.58Z"/><path class="cls-9" d="M869.18,73.57a3.8,3.8,0,0,1-.07.71,3.44,3.44,0,0,1-.2.67,2.75,2.75,0,0,1-.33.59,2.15,2.15,0,0,1-.47.47,2.18,2.18,0,0,1-.61.31,2.38,2.38,0,0,1-.75.11,2.14,2.14,0,0,1-.52-.06,2,2,0,0,1-.48-.19,1.88,1.88,0,0,1-.41-.3,1.67,1.67,0,0,1-.31-.42h0v2.77h-1.2V70.79h1.14v.83h0a1.73,1.73,0,0,1,.72-.73,2.16,2.16,0,0,1,1-.24,2.4,2.4,0,0,1,1.09.23,2.22,2.22,0,0,1,.77.63,2.75,2.75,0,0,1,.46.93A4.05,4.05,0,0,1,869.18,73.57Zm-1.21,0a3.28,3.28,0,0,0-.08-.69,2,2,0,0,0-.25-.63,1.45,1.45,0,0,0-.46-.46,1.31,1.31,0,0,0-.71-.18,1.33,1.33,0,0,0-1.12.51,2.35,2.35,0,0,0-.39,1.46,3,3,0,0,0,.08.7,2,2,0,0,0,.27.63,1.45,1.45,0,0,0,.47.45,1.37,1.37,0,0,0,.71.17,1.3,1.3,0,0,0,1.11-.55,1.8,1.8,0,0,0,.28-.62A3.12,3.12,0,0,0,868,73.54Z"/><path class="cls-9" d="M847.77,80.64a3.43,3.43,0,0,1,.89.11,2.35,2.35,0,0,1,.74.34,1.89,1.89,0,0,1,.53.56,1.92,1.92,0,0,1,.26.79H849a1,1,0,0,0-.4-.65,1.41,1.41,0,0,0-.84-.23,1.27,1.27,0,0,0-.68.17,1.5,1.5,0,0,0-.47.45,2,2,0,0,0-.28.63,2.85,2.85,0,0,0,0,1.39,2,2,0,0,0,.26.63,1.5,1.5,0,0,0,.46.46,1.26,1.26,0,0,0,.68.18,1.49,1.49,0,0,0,.5-.08,1.22,1.22,0,0,0,.39-.22,1.16,1.16,0,0,0,.28-.34,1.45,1.45,0,0,0,.15-.44h1.17a2.57,2.57,0,0,1-.27.82,2.17,2.17,0,0,1-.52.63,2.31,2.31,0,0,1-.74.41,2.91,2.91,0,0,1-1,.15,2.77,2.77,0,0,1-1.1-.21,2.52,2.52,0,0,1-.85-.59,2.68,2.68,0,0,1-.55-.9,3.19,3.19,0,0,1-.2-1.14,3.55,3.55,0,0,1,.18-1.13,2.76,2.76,0,0,1,.52-.93,2.48,2.48,0,0,1,.86-.64A2.77,2.77,0,0,1,847.77,80.64Z"/><path class="cls-9" d="M852.06,80.79,853.5,85h0l1.37-4.2h1.24l-2.34,6.26a2.5,2.5,0,0,1-.24.5,1.48,1.48,0,0,1-.34.37,1.42,1.42,0,0,1-.45.23,2,2,0,0,1-.6.08h-.45l-.39,0v-1l.37,0h.3a.84.84,0,0,0,.33-.06.63.63,0,0,0,.24-.18,1.16,1.16,0,0,0,.18-.3q.08-.18.15-.43l-2.11-5.47Z"/><path class="cls-9" d="M859.5,80.64a3.43,3.43,0,0,1,.89.11,2.35,2.35,0,0,1,.74.34,1.89,1.89,0,0,1,.53.56,1.92,1.92,0,0,1,.26.79h-1.19a1,1,0,0,0-.4-.65,1.41,1.41,0,0,0-.84-.23,1.27,1.27,0,0,0-.68.17,1.5,1.5,0,0,0-.47.45,2,2,0,0,0-.28.63,2.85,2.85,0,0,0,0,1.39,2,2,0,0,0,.26.63,1.5,1.5,0,0,0,.46.46,1.26,1.26,0,0,0,.68.18,1.49,1.49,0,0,0,.5-.08,1.22,1.22,0,0,0,.39-.22,1.16,1.16,0,0,0,.28-.34,1.45,1.45,0,0,0,.15-.44H862a2.57,2.57,0,0,1-.27.82,2.17,2.17,0,0,1-.52.63,2.31,2.31,0,0,1-.74.41,2.91,2.91,0,0,1-1,.15,2.77,2.77,0,0,1-1.1-.21,2.52,2.52,0,0,1-.85-.59,2.68,2.68,0,0,1-.55-.9,3.19,3.19,0,0,1-.2-1.14,3.55,3.55,0,0,1,.18-1.13,2.76,2.76,0,0,1,.52-.93,2.48,2.48,0,0,1,.86-.64A2.77,2.77,0,0,1,859.5,80.64Z"/><path class="cls-9" d="M864.45,78.7v7.57h-1.21V78.7Z"/><path class="cls-9" d="M868.44,80.64a2.5,2.5,0,0,1,1.12.24,2.32,2.32,0,0,1,.8.64,2.78,2.78,0,0,1,.48.95,4,4,0,0,1,.16,1.14v.22h-4a2.3,2.3,0,0,0,.11.68,1.59,1.59,0,0,0,.29.52,1.28,1.28,0,0,0,.45.34,1.4,1.4,0,0,0,.6.12,1.58,1.58,0,0,0,.81-.19,1.41,1.41,0,0,0,.51-.5h1.14a2.55,2.55,0,0,1-.38.68A2.36,2.36,0,0,1,870,86a2.49,2.49,0,0,1-.71.32,3,3,0,0,1-.84.11,2.73,2.73,0,0,1-1.11-.21,2.35,2.35,0,0,1-.83-.6,2.66,2.66,0,0,1-.52-.91,3.59,3.59,0,0,1-.18-1.17,3.37,3.37,0,0,1,.18-1.11,2.75,2.75,0,0,1,.52-.92,2.53,2.53,0,0,1,.84-.63A2.63,2.63,0,0,1,868.44,80.64ZM869.81,83a2.3,2.3,0,0,0-.14-.59,1.43,1.43,0,0,0-.28-.46,1.18,1.18,0,0,0-.42-.29,1.44,1.44,0,0,0-.57-.11,1.45,1.45,0,0,0-.57.11,1.27,1.27,0,0,0-.43.3,1.5,1.5,0,0,0-.29.46A2.12,2.12,0,0,0,867,83Z"/><rect class="cls-23" x="22.05" y="56.2" width="16" height="2"/><rect class="cls-23" x="22.05" y="62.2" width="16" height="2"/><rect class="cls-23" x="22.05" y="68.2" width="16" height="2"/><path class="cls-24" d="M413,42.2v20H379v-20h34m1-1H378v22h36v-22Z"/><path d="M449,42.2v20H415v-20h34m1-1H414v22h36v-22Z"/><path class="cls-19" d="M387.14,47.83v6.69h4v1.16h-5.41V47.83Z"/><path class="cls-19" d="M399.13,51.77a4.24,4.24,0,0,1-1,2.93,3.53,3.53,0,0,1-2.76,1.16,4,4,0,0,1-1.5-.27,3.53,3.53,0,0,1-1.21-.82,3.7,3.7,0,0,1-.82-1.34,4.91,4.91,0,0,1-.27-1.66,4.29,4.29,0,0,1,1-3,3.53,3.53,0,0,1,2.77-1.16,4.07,4.07,0,0,1,1.5.27,3.28,3.28,0,0,1,1.21.84,3.67,3.67,0,0,1,.82,1.36A5.22,5.22,0,0,1,399.13,51.77Zm-1.38,0a3.38,3.38,0,0,0-.64-2.15,2.35,2.35,0,0,0-3.57,0,3.39,3.39,0,0,0-.64,2.15,3.32,3.32,0,0,0,.63,2.1,2.37,2.37,0,0,0,3.58,0A3.35,3.35,0,0,0,397.75,51.77Z"/><path class="cls-19" d="M404,47.66a4.11,4.11,0,0,1,1.21.17,3.18,3.18,0,0,1,1,.49,2.7,2.7,0,0,1,.7.78,2.93,2.93,0,0,1,.37,1h-1.34a1.73,1.73,0,0,0-.24-.51,1.63,1.63,0,0,0-.41-.42,2,2,0,0,0-.57-.28,2.38,2.38,0,0,0-.72-.1,2.29,2.29,0,0,0-1.08.24,2.26,2.26,0,0,0-.77.65,2.88,2.88,0,0,0-.46.95,4.13,4.13,0,0,0-.15,1.12,4.09,4.09,0,0,0,.14,1.07,2.81,2.81,0,0,0,.44.94,2.31,2.31,0,0,0,.76.66,2.27,2.27,0,0,0,1.11.25,2.17,2.17,0,0,0,.78-.13,1.82,1.82,0,0,0,1-.93,2.46,2.46,0,0,0,.22-.71h1.34a3.87,3.87,0,0,1-.32,1.16,2.92,2.92,0,0,1-1.67,1.55,3.79,3.79,0,0,1-1.36.23,3.91,3.91,0,0,1-1.58-.31,3.54,3.54,0,0,1-1.21-.86,3.78,3.78,0,0,1-.77-1.29,4.77,4.77,0,0,1-.27-1.63,4.88,4.88,0,0,1,.25-1.57,3.92,3.92,0,0,1,.74-1.31,3.51,3.51,0,0,1,1.2-.9A3.83,3.83,0,0,1,404,47.66Z"/><path class="cls-25" d="M425.61,50a2.1,2.1,0,0,1-.46,1.41,1.62,1.62,0,0,1-.39.34,2.31,2.31,0,0,1-.5.23v0a1.58,1.58,0,0,1,.54.22,1.31,1.31,0,0,1,.36.38,1.79,1.79,0,0,1,.23.57,4.67,4.67,0,0,1,.09.63c0,.22,0,.44,0,.67a4.43,4.43,0,0,0,.09.68,1.51,1.51,0,0,0,.22.57h-1.4a4,4,0,0,1-.2-1.23,2.93,2.93,0,0,0-.41-1.62,1.24,1.24,0,0,0-1-.37h-2.19v3.22h-1.37V47.83h4a2.35,2.35,0,0,1,1.63.58A2,2,0,0,1,425.61,50Zm-1.37.22a1.2,1.2,0,0,0-.35-.95,1.43,1.43,0,0,0-1-.31h-2.26v2.52h2.26a1.4,1.4,0,0,0,.93-.3A1.19,1.19,0,0,0,424.24,50.17Z"/><path class="cls-25" d="M433,47.84V49h-4.33v2.09h4v1.09h-4v2.35H433v1.15h-5.77V47.84Z"/><path class="cls-25" d="M441.4,55.68v-6.3h0l-2.23,6.3H438l-2.23-6.27h0v6.27h-1.3V47.84h2L438.58,54h0l2.11-6.12h2v7.84Z"/><polygon class="cls-26" points="328.32 52.81 329.2 51.88 334.42 56.78 343.31 45.2 344.32 45.97 334.57 58.68 328.32 52.81"/><line class="cls-27" x1="62" y1="37" x2="365" y2="37"/><rect class="cls-1" y="172.03" width="1366" height="37"/><path d="M24.91,152.89a14.89,14.89,0,0,1,2.22-.17,4.64,4.64,0,0,1,3.28,1,3.72,3.72,0,0,1,1.14,2.9,4.27,4.27,0,0,1-1.16,3.14,5,5,0,0,1-3.58,1.16,17,17,0,0,1-1.9-.1ZM26,160a6.5,6.5,0,0,0,1.06.06,3.11,3.11,0,0,0,3.45-3.43c0-1.91-1.07-3.12-3.28-3.12a6,6,0,0,0-1.22.11Z"/><path d="M32.88,156.88c0-.68,0-1.27,0-1.81h.92l0,1.14h0a1.74,1.74,0,0,1,1.61-1.27,1.13,1.13,0,0,1,.3,0v1a1.56,1.56,0,0,0-.36,0A1.48,1.48,0,0,0,34,157.28a2.93,2.93,0,0,0,0,.49v3.09h-1Z"/><path d="M38,153.43a.65.65,0,0,1-1.31,0,.64.64,0,0,1,.66-.66A.63.63,0,0,1,38,153.43Zm-1.18,7.44v-5.8h1.06v5.8Z"/><path d="M40.08,155.06l1.14,3.26a14.94,14.94,0,0,1,.47,1.49h0c.13-.48.3-1,.49-1.49l1.13-3.26h1.1l-2.28,5.8h-1l-2.21-5.8Z"/><path d="M45.92,158.16a1.86,1.86,0,0,0,2,2,3.83,3.83,0,0,0,1.61-.3l.18.76a4.71,4.71,0,0,1-1.93.36,2.7,2.7,0,0,1-2.86-2.93c0-1.75,1-3.13,2.73-3.13a2.46,2.46,0,0,1,2.4,2.73,3.82,3.82,0,0,1,0,.49Zm3.1-.76a1.5,1.5,0,0,0-1.46-1.71,1.75,1.75,0,0,0-1.62,1.71Z"/><path d="M58,160.65a3.9,3.9,0,0,1-1.67.34,2.76,2.76,0,0,1-2.89-3,3,3,0,0,1,3.12-3.08,3.53,3.53,0,0,1,1.46.3l-.24.82a2.46,2.46,0,0,0-1.22-.28,2.19,2.19,0,0,0,0,4.37,3,3,0,0,0,1.3-.29Z"/><path d="M64.46,157.92A2.84,2.84,0,0,1,61.57,161a2.76,2.76,0,0,1-2.79-3,2.84,2.84,0,0,1,2.88-3.08A2.75,2.75,0,0,1,64.46,157.92Zm-4.61.06c0,1.27.73,2.23,1.77,2.23s1.77-.95,1.77-2.25c0-1-.49-2.23-1.74-2.23S59.85,156.88,59.85,158Z"/><path d="M65.8,156.63c0-.6,0-1.09,0-1.57h.92l0,.94h0a2,2,0,0,1,1.83-1.07,1.72,1.72,0,0,1,1.64,1.16h0a2.39,2.39,0,0,1,.65-.76,2,2,0,0,1,1.29-.41c.77,0,1.91.5,1.91,2.52v3.42h-1v-3.29c0-1.12-.41-1.79-1.26-1.79a1.37,1.37,0,0,0-1.25,1,1.74,1.74,0,0,0-.08.53v3.59h-1v-3.48c0-.92-.41-1.59-1.21-1.59a1.58,1.58,0,0,0-1.39,1.57v3.5h-1Z"/><path d="M75.82,157c0-.74,0-1.34,0-1.89h.95l0,1h0a2.29,2.29,0,0,1,2.07-1.13c1.4,0,2.46,1.19,2.46,3,0,2.09-1.27,3.12-2.64,3.12a2,2,0,0,1-1.79-.91h0v3.15h-1Zm1,1.55a2.41,2.41,0,0,0,0,.43,1.63,1.63,0,0,0,1.59,1.24c1.12,0,1.76-.91,1.76-2.24,0-1.16-.61-2.16-1.73-2.16a1.69,1.69,0,0,0-1.6,1.31,1.71,1.71,0,0,0-.07.43Z"/><path d="M87.92,157.92A2.84,2.84,0,0,1,85,161a2.76,2.76,0,0,1-2.79-3,2.84,2.84,0,0,1,2.88-3.08A2.75,2.75,0,0,1,87.92,157.92Zm-4.61.06c0,1.27.73,2.23,1.77,2.23s1.77-.95,1.77-2.25c0-1-.49-2.23-1.74-2.23S83.31,156.88,83.31,158Z"/><path d="M89.11,159.79a2.76,2.76,0,0,0,1.39.42c.77,0,1.13-.38,1.13-.86s-.3-.78-1.08-1.07c-1-.37-1.54-.95-1.54-1.64a1.79,1.79,0,0,1,2-1.7,2.9,2.9,0,0,1,1.43.36l-.26.77a2.27,2.27,0,0,0-1.19-.33c-.62,0-1,.36-1,.79s.35.7,1.1,1c1,.38,1.53.89,1.53,1.75,0,1-.79,1.74-2.17,1.74a3.32,3.32,0,0,1-1.63-.4Z"/><path d="M94.6,158.16a1.86,1.86,0,0,0,2,2,3.82,3.82,0,0,0,1.61-.3l.18.76a4.7,4.7,0,0,1-1.93.36,2.7,2.7,0,0,1-2.86-2.93c0-1.75,1-3.13,2.73-3.13a2.46,2.46,0,0,1,2.4,2.73,4,4,0,0,1,0,.49Zm3.1-.76a1.5,1.5,0,0,0-1.47-1.71,1.75,1.75,0,0,0-1.62,1.71Z"/><path d="M100,156.88c0-.68,0-1.27,0-1.81h.92l0,1.14h0a1.74,1.74,0,0,1,1.61-1.27,1.13,1.13,0,0,1,.3,0v1a1.56,1.56,0,0,0-.36,0,1.48,1.48,0,0,0-1.42,1.36,2.93,2.93,0,0,0,0,.49v3.09h-1Z"/><path d="M106.51,157c0-.74,0-1.34,0-1.89h.95l0,1h0a2.29,2.29,0,0,1,2.07-1.13c1.4,0,2.46,1.19,2.46,3,0,2.09-1.27,3.12-2.64,3.12a2,2,0,0,1-1.79-.91h0v3.15h-1Zm1,1.55a2.41,2.41,0,0,0,0,.43,1.63,1.63,0,0,0,1.59,1.24c1.12,0,1.76-.91,1.76-2.24,0-1.16-.61-2.16-1.73-2.16a1.69,1.69,0,0,0-1.6,1.31,1.71,1.71,0,0,0-.07.43Z"/><path d="M113.35,156.88c0-.68,0-1.27,0-1.81h.92l0,1.14h0a1.74,1.74,0,0,1,1.61-1.27,1.13,1.13,0,0,1,.3,0v1a1.56,1.56,0,0,0-.36,0,1.48,1.48,0,0,0-1.42,1.36,2.93,2.93,0,0,0,0,.49v3.09h-1Z"/><path d="M122.42,157.92a2.84,2.84,0,0,1-2.89,3.08,2.76,2.76,0,0,1-2.79-3,2.84,2.84,0,0,1,2.88-3.08A2.75,2.75,0,0,1,122.42,157.92Zm-4.61.06c0,1.27.73,2.23,1.77,2.23s1.77-.95,1.77-2.25c0-1-.49-2.23-1.74-2.23S117.81,156.88,117.81,158Z"/><path d="M126.71,155.06l1.14,3.26a14.94,14.94,0,0,1,.47,1.49h0c.13-.48.3-1,.49-1.49l1.13-3.26h1.1l-2.28,5.8h-1l-2.21-5.8Z"/><path d="M131.36,160.25a.71.71,0,0,1,.72-.76.76.76,0,1,1-.72.76Z"/><path d="M136.06,154.06h0l-1.36.73-.2-.8,1.71-.91h.9v7.8h-1Z"/><path d="M140,160.25a.71.71,0,0,1,.72-.76.76.76,0,1,1-.72.76Z"/><path d="M144.71,154.06h0l-1.36.73-.2-.8,1.71-.91h.9v7.8h-1Z"/><path d="M150.87,154.06h0l-1.36.73-.2-.8,1.71-.91h.9v7.8h-1Z"/><path d="M157.66,152.89a10.86,10.86,0,0,1,2-.17,3.32,3.32,0,0,1,2.34.66,2,2,0,0,1,.64,1.54,2.12,2.12,0,0,1-1.53,2.06v0a2,2,0,0,1,1.19,1.63,12.83,12.83,0,0,0,.63,2.22h-1.08a10.46,10.46,0,0,1-.54-1.93c-.24-1.12-.67-1.54-1.62-1.57h-1v3.5h-1Zm1,3.68h1.07c1.12,0,1.83-.61,1.83-1.54s-.76-1.5-1.86-1.51a4.31,4.31,0,0,0-1,.1Z"/><path d="M169.82,160.61a5.2,5.2,0,0,1-2.14.38,3.78,3.78,0,0,1-4-4.09,4,4,0,0,1,4.23-4.25,4.34,4.34,0,0,1,1.92.36l-.25.85a3.8,3.8,0,0,0-1.63-.34,3,3,0,0,0-3.16,3.33,2.94,2.94,0,0,0,3.11,3.25,4.18,4.18,0,0,0,1.71-.34Z"/><path d="M173.05,154.06h0l-1.36.73-.2-.8,1.71-.91h.9v7.8h-1Z"/><g class="cls-2"><rect class="cls-3" x="1318" y="141.03" width="48" height="32"/></g><path class="cls-4" d="M1348,151v12h-12V151h12"/><line class="cls-5" x1="1336.38" y1="151.41" x2="1347.63" y2="162.66"/><line class="cls-5" x1="1347.63" y1="151.41" x2="1336.38" y2="162.66"/><g class="cls-2"><rect class="cls-3" x="1270" y="141.03" width="48" height="32"/></g><path class="cls-4" d="M1300,151v12h-12V151h12"/><rect class="cls-5" x="1288.5" y="151.53" width="11" height="11"/><g class="cls-2"><rect class="cls-3" x="1222" y="141.03" width="48" height="32"/></g><path class="cls-4" d="M1252,151v12h-12V151h12"/><line class="cls-5" x1="1240" y1="163.03" x2="1252" y2="163.03"/><path class="cls-6" d="M1318.31,198.88l-.17-1.46h-.07a4.33,4.33,0,0,1-3.55,1.73,3.31,3.31,0,0,1-3.55-3.34c0-2.81,2.5-4.34,7-4.32v-.24a2.4,2.4,0,0,0-2.64-2.69,5.79,5.79,0,0,0-3,.86l-.48-1.39a7.2,7.2,0,0,1,3.82-1c3.55,0,4.42,2.42,4.42,4.75v4.34a16.36,16.36,0,0,0,.19,2.78ZM1318,193c-2.3,0-4.92.36-4.92,2.62a1.87,1.87,0,0,0,2,2,2.89,2.89,0,0,0,2.81-1.94,2.2,2.2,0,0,0,.12-.67Z"/><path class="cls-6" d="M1323.35,198.88c0-.79.1-2,.1-3v-14h2.09v7.3h0a4.33,4.33,0,0,1,4-2.14c2.88,0,4.92,2.4,4.9,5.93,0,4.15-2.62,6.22-5.21,6.22a4.14,4.14,0,0,1-3.89-2.18h-.07l-.1,1.92Zm2.18-4.66a3.94,3.94,0,0,0,.1.77,3.26,3.26,0,0,0,3.17,2.47c2.21,0,3.53-1.8,3.53-4.46,0-2.33-1.2-4.32-3.46-4.32a3.37,3.37,0,0,0-3.22,2.59,4.13,4.13,0,0,0-.12.86Z"/><path class="cls-6" d="M1337,198.88c0-.79.1-2,.1-3v-14h2.09v7.3h0a4.33,4.33,0,0,1,4-2.14c2.88,0,4.92,2.4,4.9,5.93,0,4.15-2.62,6.22-5.21,6.22A4.14,4.14,0,0,1,1339,197h-.07l-.1,1.92Zm2.18-4.66a3.94,3.94,0,0,0,.1.77,3.26,3.26,0,0,0,3.17,2.47c2.21,0,3.53-1.8,3.53-4.46,0-2.33-1.2-4.32-3.46-4.32a3.37,3.37,0,0,0-3.22,2.59,4.13,4.13,0,0,0-.12.86Z"/><rect class="cls-1" y="141" width="1366" height="32"/><path class="cls-6" d="M24.93,152.85a12.14,12.14,0,0,1,2-.16,3.32,3.32,0,0,1,2.27.67,2.17,2.17,0,0,1,.71,1.69,2.38,2.38,0,0,1-.62,1.73,3.36,3.36,0,0,1-2.47.89,3.57,3.57,0,0,1-.84-.07v3.24h-1Zm1,3.9a3.48,3.48,0,0,0,.87.08c1.26,0,2-.61,2-1.73s-.76-1.58-1.91-1.58a4.46,4.46,0,0,0-1,.08Z"/><path class="cls-6" d="M31.09,156.84c0-.68,0-1.27,0-1.81H32l0,1.14h0a1.74,1.74,0,0,1,1.61-1.27,1.12,1.12,0,0,1,.3,0v1a1.56,1.56,0,0,0-.36,0,1.48,1.48,0,0,0-1.42,1.36,3,3,0,0,0,0,.49v3.09h-1Z"/><path class="cls-6" d="M40.16,157.89A2.84,2.84,0,0,1,37.27,161a2.76,2.76,0,0,1-2.79-3,2.84,2.84,0,0,1,2.88-3.08A2.75,2.75,0,0,1,40.16,157.89Zm-4.61.06c0,1.27.73,2.23,1.77,2.23s1.76-.95,1.76-2.25c0-1-.49-2.23-1.74-2.23S35.55,156.84,35.55,157.95Z"/><path class="cls-6" d="M46.52,152.32v7c0,.52,0,1.1,0,1.5h-.95l0-1h0a2.15,2.15,0,0,1-2,1.14c-1.4,0-2.49-1.19-2.49-3,0-1.93,1.19-3.12,2.61-3.12a1.94,1.94,0,0,1,1.75.89h0v-3.47Zm-1.06,5.07a1.85,1.85,0,0,0,0-.44,1.55,1.55,0,0,0-1.52-1.22c-1.09,0-1.74,1-1.74,2.24s.58,2.15,1.72,2.15a1.59,1.59,0,0,0,1.55-1.26,1.83,1.83,0,0,0,0-.46Z"/><path class="cls-6" d="M53.14,159.25c0,.6,0,1.13,0,1.58h-.94l-.06-.95h0A2.19,2.19,0,0,1,50.25,161c-.91,0-2-.5-2-2.54V155H49.3v3.21c0,1.1.34,1.85,1.3,1.85a1.53,1.53,0,0,0,1.39-1,1.55,1.55,0,0,0,.1-.54V155h1.06Z"/><path class="cls-6" d="M59,160.62a3.9,3.9,0,0,1-1.67.34,2.76,2.76,0,0,1-2.89-3,3,3,0,0,1,3.12-3.08,3.52,3.52,0,0,1,1.46.3l-.24.82a2.46,2.46,0,0,0-1.23-.28,2.19,2.19,0,0,0,0,4.37,3,3,0,0,0,1.3-.29Z"/><path class="cls-6" d="M61.71,153.36V155h1.51v.8H61.71V159c0,.72.2,1.13.79,1.13a2.35,2.35,0,0,0,.61-.07l0,.79a2.59,2.59,0,0,1-.94.14,1.46,1.46,0,0,1-1.14-.44,2.15,2.15,0,0,1-.41-1.51v-3.17h-.9V155h.9v-1.39Z"/><path class="cls-6" d="M67,156.6c0-.6,0-1.09,0-1.57h.94l.06,1h0a2.14,2.14,0,0,1,1.92-1.09c.8,0,2.05.48,2.05,2.47v3.47H70.85v-3.35c0-.94-.35-1.71-1.34-1.71a1.5,1.5,0,0,0-1.42,1.08,1.53,1.53,0,0,0-.07.49v3.49H67Z"/><path class="cls-6" d="M76.85,160.84l-.08-.73h0A2.17,2.17,0,0,1,75,161a1.65,1.65,0,0,1-1.78-1.67c0-1.4,1.25-2.17,3.49-2.16V157a1.2,1.2,0,0,0-1.32-1.34,2.9,2.9,0,0,0-1.51.43l-.24-.7a3.61,3.61,0,0,1,1.91-.52c1.78,0,2.21,1.21,2.21,2.37v2.17a8.15,8.15,0,0,0,.1,1.39Zm-.16-3c-1.15,0-2.46.18-2.46,1.31a.93.93,0,0,0,1,1,1.45,1.45,0,0,0,1.41-1,1.1,1.1,0,0,0,.06-.34Z"/><path class="cls-6" d="M79.42,156.6c0-.6,0-1.09,0-1.57h.92l0,.94h0a2,2,0,0,1,1.83-1.07,1.72,1.72,0,0,1,1.65,1.16h0a2.38,2.38,0,0,1,.65-.76,2,2,0,0,1,1.28-.41c.77,0,1.91.5,1.91,2.52v3.42h-1v-3.29c0-1.12-.41-1.79-1.26-1.79a1.37,1.37,0,0,0-1.25,1,1.74,1.74,0,0,0-.08.53v3.59h-1v-3.48c0-.92-.41-1.59-1.21-1.59a1.44,1.44,0,0,0-1.31,1.06,1.47,1.47,0,0,0-.08.52v3.5h-1Z"/><path class="cls-6" d="M90,158.13a1.86,1.86,0,0,0,2,2,3.82,3.82,0,0,0,1.61-.3l.18.76a4.7,4.7,0,0,1-1.93.36A2.7,2.7,0,0,1,89,158c0-1.75,1-3.13,2.73-3.13a2.46,2.46,0,0,1,2.4,2.73,4,4,0,0,1,0,.49Zm3.1-.76a1.5,1.5,0,0,0-1.47-1.71A1.75,1.75,0,0,0,90,157.37Z"/><g class="cls-2"><rect class="cls-3" x="1318.02" y="141" width="48" height="32"/></g><path class="cls-4" d="M1348,151v12h-12V151h12"/><line class="cls-7" x1="1336.39" y1="151.38" x2="1347.64" y2="162.63"/><line class="cls-7" x1="1347.64" y1="151.38" x2="1336.39" y2="162.63"/><g class="cls-2"><rect class="cls-3" x="1270.02" y="141" width="48" height="32"/></g><path class="cls-4" d="M1300,151v12h-12V151h12"/><rect class="cls-7" x="1288.52" y="151.5" width="11" height="11"/><g class="cls-2"><rect class="cls-3" x="1222.02" y="141" width="48" height="32"/></g><path class="cls-4" d="M1252,151v12h-12V151h12"/><line class="cls-7" x1="1240.02" y1="163" x2="1252.02" y2="163"/><path class="cls-6" d="M32.62,185.32v.7H28v3.09h4.1v.7H28v4.08h-.82v-8.57Z"/><path class="cls-6" d="M34.78,184.45v1.29H34v-1.29Zm0,2.87v6.56H34v-6.56Z"/><path class="cls-6" d="M37.81,184.8v9.08H37V184.8Z"/><path class="cls-6" d="M42.59,187.13a2.71,2.71,0,0,1,1.3.29,2.6,2.6,0,0,1,.9.79,3.45,3.45,0,0,1,.52,1.13,5.21,5.21,0,0,1,.17,1.34v.13H40.43a3.58,3.58,0,0,0,.13.94,2.59,2.59,0,0,0,.39.83,2,2,0,0,0,.66.59,1.92,1.92,0,0,0,.95.22,2.44,2.44,0,0,0,.7-.09,2,2,0,0,0,.56-.26,1.76,1.76,0,0,0,.42-.39,2.41,2.41,0,0,0,.29-.49h.79a3,3,0,0,1-.38.79,2.48,2.48,0,0,1-.59.6,2.68,2.68,0,0,1-.79.39,3.34,3.34,0,0,1-1,.14,2.94,2.94,0,0,1-1.3-.27,2.56,2.56,0,0,1-.91-.73,3.12,3.12,0,0,1-.54-1.1,5.14,5.14,0,0,1-.18-1.37,4.66,4.66,0,0,1,.18-1.28,3.36,3.36,0,0,1,.54-1.11,2.74,2.74,0,0,1,.92-.78A2.79,2.79,0,0,1,42.59,187.13Zm2.09,3a3,3,0,0,0-.16-.85,2.44,2.44,0,0,0-.41-.75,2.07,2.07,0,0,0-.65-.54,1.84,1.84,0,0,0-.88-.21,1.84,1.84,0,0,0-1.5.7,2.7,2.7,0,0,0-.42.75,4.31,4.31,0,0,0-.23.9Z"/><path class="cls-6" d="M93.05,185.33v.7H88v3.09h4.77v.69H88v3.38h5.14v.7h-6v-8.55Z"/><path class="cls-6" d="M100.34,184.8v9.08H99.6v-1.25h0a2,2,0,0,1-.39.59,2.57,2.57,0,0,1-.56.45,2.8,2.8,0,0,1-.67.29,2.63,2.63,0,0,1-.72.1,2.8,2.8,0,0,1-1.28-.28A2.68,2.68,0,0,1,95,193a3.32,3.32,0,0,1-.56-1.11,4.68,4.68,0,0,1-.19-1.34,4.83,4.83,0,0,1,.17-1.29A3.31,3.31,0,0,1,95,188.2a2.69,2.69,0,0,1,.92-.78,3,3,0,0,1,2-.2,2.56,2.56,0,0,1,.65.27,2.25,2.25,0,0,1,.54.45,2.07,2.07,0,0,1,.38.63h0V184.8Zm-5.26,5.8a4.17,4.17,0,0,0,.05.65,3.7,3.7,0,0,0,.16.64,2.82,2.82,0,0,0,.28.58A2.15,2.15,0,0,0,96,193a1.8,1.8,0,0,0,.55.32,2,2,0,0,0,.7.12,2.08,2.08,0,0,0,1.73-.84,2.66,2.66,0,0,0,.43-.89,4,4,0,0,0,.14-1.06,4,4,0,0,0-.13-1,2.73,2.73,0,0,0-.41-.9,2.06,2.06,0,0,0-1.76-.88,1.94,1.94,0,0,0-.68.11,1.8,1.8,0,0,0-.54.31,2.15,2.15,0,0,0-.41.47,2.8,2.8,0,0,0-.29.58,3.52,3.52,0,0,0-.17.65A4.25,4.25,0,0,0,95.08,190.6Z"/><path class="cls-6" d="M103.36,184.45v1.29h-.8v-1.29Zm0,2.87v6.56h-.8v-6.56Z"/><path class="cls-6" d="M108.21,193.95h-.66a3,3,0,0,1-.68-.06,1,1,0,0,1-.45-.23.89.89,0,0,1-.25-.43,2.65,2.65,0,0,1-.07-.68V188h-1.32v-.67h1.32v-2h.8v2h1.5V188h-1.5v4.48a1.76,1.76,0,0,0,0,.34.64.64,0,0,0,.11.25.5.5,0,0,0,.21.16.87.87,0,0,0,.35.06h.6l.21,0v.68Z"/><path class="cls-6" d="M150.07,185.32l2.78,7.66h0l2.76-7.66h.87l-3.18,8.57h-1l-3.18-8.57Z"/><path class="cls-6" d="M158.34,184.45v1.29h-.8v-1.29Zm0,2.87v6.56h-.8v-6.56Z"/><path class="cls-6" d="M163.12,187.13a2.71,2.71,0,0,1,1.3.29,2.6,2.6,0,0,1,.9.79,3.45,3.45,0,0,1,.52,1.13,5.21,5.21,0,0,1,.17,1.34v.13H161a3.58,3.58,0,0,0,.13.94,2.59,2.59,0,0,0,.39.83,2,2,0,0,0,.66.59,1.92,1.92,0,0,0,.95.22,2.44,2.44,0,0,0,.7-.09,2,2,0,0,0,.56-.26,1.76,1.76,0,0,0,.42-.39,2.41,2.41,0,0,0,.29-.49h.79a3,3,0,0,1-.38.79,2.48,2.48,0,0,1-.59.6,2.68,2.68,0,0,1-.79.39,3.34,3.34,0,0,1-1,.14,2.94,2.94,0,0,1-1.3-.27,2.56,2.56,0,0,1-.91-.73,3.12,3.12,0,0,1-.54-1.1,5.14,5.14,0,0,1-.18-1.37,4.66,4.66,0,0,1,.18-1.28,3.36,3.36,0,0,1,.54-1.11,2.74,2.74,0,0,1,.92-.78A2.79,2.79,0,0,1,163.12,187.13Zm2.09,3a3,3,0,0,0-.16-.85,2.44,2.44,0,0,0-.41-.75A2.07,2.07,0,0,0,164,188a1.84,1.84,0,0,0-.88-.21,1.84,1.84,0,0,0-1.5.7,2.7,2.7,0,0,0-.42.75,4.31,4.31,0,0,0-.23.9Z"/><path class="cls-6" d="M167.77,187.32l1.68,5.62h0l1.6-5.62h.9l1.61,5.62h0l1.68-5.62h.85L174,193.88h-.87l-1.61-5.52h0l-1.6,5.52H169l-2.11-6.56Z"/><path class="cls-6" d="M223.25,185.32v.7h-3v7.87h-.81V186h-3v-.7Z"/><path class="cls-6" d="M229,190.6a4.29,4.29,0,0,1-.2,1.31,3.31,3.31,0,0,1-.61,1.13,2.9,2.9,0,0,1-2.29,1,2.84,2.84,0,0,1-2.24-1,4.07,4.07,0,0,1,0-5,3.08,3.08,0,0,1,4.51,0A3.65,3.65,0,0,1,229,190.6Zm-.8,0a3.8,3.8,0,0,0-.13-1,2.81,2.81,0,0,0-.42-.9,2.25,2.25,0,0,0-.72-.65,2,2,0,0,0-1-.25,2,2,0,0,0-1,.24,2.24,2.24,0,0,0-.72.64,2.85,2.85,0,0,0-.44.9,3.66,3.66,0,0,0-.15,1,3.58,3.58,0,0,0,.14,1,3,3,0,0,0,.43.9,2.24,2.24,0,0,0,.71.65,2,2,0,0,0,1,.25,2,2,0,0,0,1-.24,2.33,2.33,0,0,0,.72-.63,2.8,2.8,0,0,0,.45-.89A3.54,3.54,0,0,0,228.23,190.6Z"/><path class="cls-6" d="M236.64,190.6a4.29,4.29,0,0,1-.2,1.31,3.31,3.31,0,0,1-.61,1.13,2.9,2.9,0,0,1-2.29,1,2.84,2.84,0,0,1-2.24-1,4.07,4.07,0,0,1,0-5,3.08,3.08,0,0,1,4.51,0A3.65,3.65,0,0,1,236.64,190.6Zm-.8,0a3.8,3.8,0,0,0-.13-1,2.81,2.81,0,0,0-.42-.9,2.25,2.25,0,0,0-.72-.65,2,2,0,0,0-1-.25,2,2,0,0,0-1,.24,2.24,2.24,0,0,0-.72.64,2.85,2.85,0,0,0-.44.9,3.66,3.66,0,0,0-.15,1,3.58,3.58,0,0,0,.14,1,3,3,0,0,0,.43.9,2.24,2.24,0,0,0,.71.65,2,2,0,0,0,1,.25,2,2,0,0,0,1-.24,2.33,2.33,0,0,0,.72-.63,2.8,2.8,0,0,0,.45-.89A3.54,3.54,0,0,0,235.84,190.6Z"/><path class="cls-6" d="M239.26,184.8v9.08h-.8V184.8Z"/><path class="cls-6" d="M246.37,192.1a1.67,1.67,0,0,1-.22.88,1.89,1.89,0,0,1-.59.62,2.74,2.74,0,0,1-.84.36,4,4,0,0,1-1,.12,3.66,3.66,0,0,1-1.07-.14,2.4,2.4,0,0,1-.8-.41,2,2,0,0,1-.53-.64,2.4,2.4,0,0,1-.25-.85h.81a1.7,1.7,0,0,0,.2.56,1.41,1.41,0,0,0,.38.43,1.8,1.8,0,0,0,.57.28,2.56,2.56,0,0,0,.74.1,3,3,0,0,0,.6-.06,2.05,2.05,0,0,0,.58-.21,1.35,1.35,0,0,0,.44-.38,1,1,0,0,0,.18-.59.93.93,0,0,0-.34-.73,2.6,2.6,0,0,0-1.13-.46l-1-.22a4,4,0,0,1-.77-.24,2.1,2.1,0,0,1-.58-.37,1.46,1.46,0,0,1-.36-.5,1.62,1.62,0,0,1-.12-.65,1.57,1.57,0,0,1,.21-.83,1.78,1.78,0,0,1,.56-.57,2.53,2.53,0,0,1,.78-.33,3.77,3.77,0,0,1,.89-.11,3.27,3.27,0,0,1,.92.12,2.29,2.29,0,0,1,.73.35,1.83,1.83,0,0,1,.5.57,2.08,2.08,0,0,1,.25.78h-.8a1.32,1.32,0,0,0-.19-.5,1.24,1.24,0,0,0-.36-.37,1.69,1.69,0,0,0-.5-.22,2.36,2.36,0,0,0-.61-.08,2.85,2.85,0,0,0-.58.06,1.59,1.59,0,0,0-.51.19,1.07,1.07,0,0,0-.36.35,1,1,0,0,0-.13.53.74.74,0,0,0,.13.44,1.27,1.27,0,0,0,.33.32,1.93,1.93,0,0,0,.44.22,3.64,3.64,0,0,0,.46.13l1.37.3a2.85,2.85,0,0,1,.59.21,1.77,1.77,0,0,1,.5.35,1.64,1.64,0,0,1,.34.51A1.71,1.71,0,0,1,246.37,192.1Z"/><path class="cls-6" d="M288.94,185.33V189H294v-3.71h.81v8.55H294v-4.15h-5.08v4.15h-.82v-8.55Z"/><path class="cls-6" d="M299.63,187.13a2.71,2.71,0,0,1,1.3.29,2.6,2.6,0,0,1,.9.79,3.45,3.45,0,0,1,.52,1.13,5.21,5.21,0,0,1,.17,1.34v.13h-5.05a3.58,3.58,0,0,0,.13.94,2.59,2.59,0,0,0,.39.83,2,2,0,0,0,.66.59,1.92,1.92,0,0,0,.95.22,2.44,2.44,0,0,0,.7-.09,2,2,0,0,0,.56-.26,1.76,1.76,0,0,0,.42-.39,2.41,2.41,0,0,0,.29-.49h.79a3,3,0,0,1-.38.79,2.48,2.48,0,0,1-.59.6,2.68,2.68,0,0,1-.79.39,3.34,3.34,0,0,1-1,.14,2.94,2.94,0,0,1-1.3-.27,2.56,2.56,0,0,1-.91-.73,3.12,3.12,0,0,1-.54-1.1,5.14,5.14,0,0,1-.18-1.37,4.66,4.66,0,0,1,.18-1.28,3.36,3.36,0,0,1,.54-1.11,2.74,2.74,0,0,1,.92-.78A2.79,2.79,0,0,1,299.63,187.13Zm2.09,3a3,3,0,0,0-.16-.85,2.44,2.44,0,0,0-.41-.75,2.07,2.07,0,0,0-.65-.54,1.84,1.84,0,0,0-.88-.21,1.84,1.84,0,0,0-1.5.7,2.7,2.7,0,0,0-.42.75,4.31,4.31,0,0,0-.23.9Z"/><path class="cls-6" d="M305,184.8v9.08h-.8V184.8Z"/><path class="cls-6" d="M313.28,190.6a4.77,4.77,0,0,1-.17,1.28,3.38,3.38,0,0,1-.53,1.11,2.69,2.69,0,0,1-.92.79,2.78,2.78,0,0,1-1.32.3,2.81,2.81,0,0,1-.71-.09,2.45,2.45,0,0,1-.65-.27,2.29,2.29,0,0,1-.54-.45,2.21,2.21,0,0,1-.38-.63h0v3.67h-.8v-9H308v1.25h0a2.24,2.24,0,0,1,.39-.61,2.29,2.29,0,0,1,.55-.45,2.67,2.67,0,0,1,.67-.28,2.81,2.81,0,0,1,.74-.1,2.85,2.85,0,0,1,1.29.28,2.64,2.64,0,0,1,.92.75,3.32,3.32,0,0,1,.56,1.1A4.67,4.67,0,0,1,313.28,190.6Zm-.8,0a4.48,4.48,0,0,0-.11-1,2.84,2.84,0,0,0-.37-.9,2.07,2.07,0,0,0-.67-.66,1.9,1.9,0,0,0-1-.26,2.09,2.09,0,0,0-1.7.7,3.21,3.21,0,0,0-.58,2.09,4.2,4.2,0,0,0,.13,1,2.68,2.68,0,0,0,.4.9,2.1,2.1,0,0,0,.71.64,2.16,2.16,0,0,0,1.06.24,1.87,1.87,0,0,0,1-.24,2,2,0,0,0,.67-.63,2.87,2.87,0,0,0,.39-.9A4.14,4.14,0,0,0,312.48,190.6Z"/><path class="cls-28" d="M1303,70h-3.1l-1.5,5H1293l3.6-11H1303Zm0-7h-6.08l3.63-10H1303Zm1-10h3l3.63,10H1304Zm10.51,22h-5.37l-1.5-5H1304V64h6.91Z"/><path class="cls-28" d="M1316,63V53h6V63Zm6,1V75h-6V64Zm1-1V53h1.59a4.37,4.37,0,0,1,3.41,1.21,4.83,4.83,0,0,1-1,7.61c.75.3,1.42,1.18,2,1.18Zm8,4.94a7,7,0,0,1-1.85,4.94,6.39,6.39,0,0,1-4.59,2.12H1323V64h6.73A6.15,6.15,0,0,1,1331,67.94Z"/><path class="cls-28" d="M1333,63V53h6V63Zm6,1V75h-6V64Zm1-1V53h1.32a4.37,4.37,0,0,1,3.41,1.21,4.83,4.83,0,0,1-1,7.61c.75.3,1.42,1.18,2,1.18Zm7.76,4.94a7,7,0,0,1-1.85,4.94,6.39,6.39,0,0,1-4.59,2.12H1340V64h6.46A6.15,6.15,0,0,1,1347.76,67.94Z"/></g></svg>