<svg xmlns="http://www.w3.org/2000/svg" xmlns:xlink="http://www.w3.org/1999/xlink" viewBox="0 0 360 600"><defs><style>.cls-1,.cls-10,.cls-12,.cls-14,.cls-15,.cls-7,.cls-8{fill:none;}.cls-2{fill:#242424;}.cls-3{fill:#d2d2d2;}.cls-4{fill:#fff;}.cls-5{fill:#8c8c8c;}.cls-6{fill:#808285;}.cls-7{stroke:#1c1c1c;}.cls-10,.cls-12,.cls-14,.cls-15,.cls-7,.cls-8{stroke-miterlimit:10;}.cls-8{stroke:#d2d2d2;}.cls-9{clip-path:url(#clip-path);}.cls-10{stroke:#1bb883;}.cls-10,.cls-14{stroke-width:6px;}.cls-11{fill:#3c3c3c;}.cls-12{stroke:#292929;}.cls-12,.cls-15{stroke-width:2px;}.cls-13{clip-path:url(#clip-path-3);}.cls-14,.cls-15{stroke:#fae600;}</style><clipPath id="clip-path"><rect class="cls-1" x="1.5" y="196.5" width="168" height="114"/></clipPath><clipPath id="clip-path-3"><rect class="cls-1" x="191.5" y="196.5" width="168" height="114"/></clipPath></defs><title>Artboard 33</title><g id="Layer_1" data-name="Layer 1"><rect class="cls-2" width="171" height="600"/><path class="cls-3" d="M19.48,19.22a2.34,2.34,0,0,1-.7,1.8,2.55,2.55,0,0,1-1.8.64h-3v3.67h-.82V16.77H17a2.53,2.53,0,0,1,1.8.65A2.33,2.33,0,0,1,19.48,19.22Zm-.81,0a1.68,1.68,0,0,0-.5-1.29,2.11,2.11,0,0,0-1.49-.46H13.95V21H16.8a2,2,0,0,0,1.35-.45A1.65,1.65,0,0,0,18.66,19.22Z"/><path class="cls-3" d="M24.65,16.61a4.19,4.19,0,0,1,1.21.17,3.47,3.47,0,0,1,1,.49A2.86,2.86,0,0,1,28,19.06h-.81a2.57,2.57,0,0,0-.34-.7,2.26,2.26,0,0,0-.55-.56,2.68,2.68,0,0,0-.75-.37,3.37,3.37,0,0,0-2.34.17,3,3,0,0,0-1,.82,3.62,3.62,0,0,0-.62,1.2,4.87,4.87,0,0,0-.21,1.44,5.18,5.18,0,0,0,.08.94,4.26,4.26,0,0,0,.26.88,3.66,3.66,0,0,0,.44.78,2.93,2.93,0,0,0,.62.62,2.86,2.86,0,0,0,.81.41,3.23,3.23,0,0,0,1,.15,2.8,2.8,0,0,0,1.06-.19,2.55,2.55,0,0,0,.82-.52,2.7,2.7,0,0,0,.56-.77,3.22,3.22,0,0,0,.29-.93h.81a4.09,4.09,0,0,1-.35,1.2,3.33,3.33,0,0,1-.71,1,3.23,3.23,0,0,1-1.06.67,3.8,3.8,0,0,1-1.42.25,4,4,0,0,1-1.7-.34,3.66,3.66,0,0,1-1.27-.94,4.19,4.19,0,0,1-.79-1.42,5.68,5.68,0,0,1,0-3.45A4.23,4.23,0,0,1,21.62,18a3.72,3.72,0,0,1,1.27-1A4,4,0,0,1,24.65,16.61Z"/><path class="cls-3" d="M36,23.07a2.15,2.15,0,0,1-.28,1.14,2.26,2.26,0,0,1-.76.76,3.46,3.46,0,0,1-1.1.42,6.15,6.15,0,0,1-1.29.13,4.8,4.8,0,0,1-1.28-.16,3.18,3.18,0,0,1-1-.49,2.35,2.35,0,0,1-.69-.79A2.22,2.22,0,0,1,29.29,23v-.19h.82v.06a1.87,1.87,0,0,0,.16.76,1.65,1.65,0,0,0,.48.62,2.43,2.43,0,0,0,.81.42,3.79,3.79,0,0,0,1.15.16,4,4,0,0,0,.9-.1,2.56,2.56,0,0,0,.79-.32,1.81,1.81,0,0,0,.56-.54,1.38,1.38,0,0,0,.21-.78q0-1.11-1.67-1.52l-2-.49a4,4,0,0,1-.88-.31,2.14,2.14,0,0,1-.6-.44,1.6,1.6,0,0,1-.35-.58,2.24,2.24,0,0,1-.11-.73,2.1,2.1,0,0,1,.25-1,2.34,2.34,0,0,1,.68-.76,3.07,3.07,0,0,1,1-.46,4.16,4.16,0,0,1,1.14-.16,4.34,4.34,0,0,1,1.2.16,2.9,2.9,0,0,1,1,.46,2.27,2.27,0,0,1,.64.75,2.24,2.24,0,0,1,.25,1h-.81a1.6,1.6,0,0,0-.2-.65,1.78,1.78,0,0,0-.46-.53,2.24,2.24,0,0,0-.69-.36,2.81,2.81,0,0,0-.88-.13,3.49,3.49,0,0,0-.91.11,2.16,2.16,0,0,0-.71.33,1.46,1.46,0,0,0-.46.53,1.6,1.6,0,0,0-.16.73,1.2,1.2,0,0,0,.11.52,1.13,1.13,0,0,0,.29.38,1.54,1.54,0,0,0,.43.25,4,4,0,0,0,.53.17l2,.48a3.73,3.73,0,0,1,1.76.85A1.93,1.93,0,0,1,36,23.07Z"/><path class="cls-3" d="M40.21,16.62a2.81,2.81,0,0,1,2,.66,2.28,2.28,0,0,1,.73,1.78,2.82,2.82,0,0,1-.55,1.66,7,7,0,0,1-2,1.66,8.29,8.29,0,0,0-1.66,1.23,2,2,0,0,0-.56,1h4.81v.72h-5.7a3,3,0,0,1,.56-1.74,6.61,6.61,0,0,1,1.93-1.66,8.78,8.78,0,0,0,1.89-1.48A2.11,2.11,0,0,0,42.11,19a1.64,1.64,0,0,0-.54-1.28,2,2,0,0,0-1.4-.49,2,2,0,0,0-.86.17,1.82,1.82,0,0,0-.61.44,1.77,1.77,0,0,0-.36.62,2.2,2.2,0,0,0-.12.71v.17h-.77v-.12a2.93,2.93,0,0,1,.17-1,2.42,2.42,0,0,1,.51-.84,2.47,2.47,0,0,1,.86-.59A3.06,3.06,0,0,1,40.21,16.62Z"/><path class="cls-3" d="M47.47,16.62a2.87,2.87,0,0,1,1.32.29,2.48,2.48,0,0,1,.94.85,4.14,4.14,0,0,1,.57,1.39,8.64,8.64,0,0,1,.19,1.92,5.94,5.94,0,0,1-.77,3.35,2.82,2.82,0,0,1-4.49,0,5.89,5.89,0,0,1-.77-3.34,5.89,5.89,0,0,1,.77-3.35A2.56,2.56,0,0,1,47.47,16.62Zm-2.23,4.45q0,3.81,2.23,3.81t2.24-3.81a5.64,5.64,0,0,0-.57-2.84,1.84,1.84,0,0,0-1.68-1,1.82,1.82,0,0,0-1.65.94A5.63,5.63,0,0,0,45.23,21.06Z"/><path class="cls-3" d="M54.73,16.62A2.87,2.87,0,0,1,56,16.9a2.48,2.48,0,0,1,.94.85,4.14,4.14,0,0,1,.57,1.39,8.64,8.64,0,0,1,.19,1.92A5.94,5.94,0,0,1,57,24.41a2.82,2.82,0,0,1-4.49,0,5.89,5.89,0,0,1-.77-3.34,5.89,5.89,0,0,1,.77-3.35A2.56,2.56,0,0,1,54.73,16.62ZM52.5,21.06q0,3.81,2.23,3.81T57,21.06a5.64,5.64,0,0,0-.57-2.84,1.84,1.84,0,0,0-1.68-1,1.82,1.82,0,0,0-1.65.94A5.63,5.63,0,0,0,52.5,21.06Z"/><path class="cls-4" d="M130,12h1.91l2.31,7H130Zm-.58,7V12H127.8l-2.31,7Zm0,.58h-4.13L123,26h3.43l1-2.92h2Zm5,0H130v3.5h2.32l1,2.92h3.43Zm7.85,0V26h.91a4,4,0,0,0,4.12-4,3.64,3.64,0,0,0-.82-2.39ZM141.68,12H137.6v7h4.08Zm.58,7H146a2.16,2.16,0,0,0-1.28-.88,3.37,3.37,0,0,0,1.57-2.86A3.24,3.24,0,0,0,143.18,12h-.91Zm-.58.58H137.6V26h4.08Zm11.08,0V26h1.12A4,4,0,0,0,158,22a3.63,3.63,0,0,0-.83-2.39ZM152.18,12h-3.5v7h3.5Zm.58,7h3.92a2.16,2.16,0,0,0-1.28-.88A3.37,3.37,0,0,0,157,15.26,3.24,3.24,0,0,0,153.88,12h-1.12Zm-.58.58h-3.5V26h3.5Z"/><rect class="cls-2" x="1.51" y="56" width="168" height="144"/><path class="cls-3" d="M15.62,69.86l3.4,5.3h0v-5.3h1.19V77H19l-3.4-5.3h0V77H14.34V69.86Z"/><path class="cls-3" d="M26.62,77,26,75.18H23L22.42,77H21.15l2.57-7.13H25.4L27.92,77Zm-2.07-6.21h0l-1.17,3.44h2.33Z"/><path class="cls-3" d="M34.39,72.06a2.12,2.12,0,0,1-.62,1.6,2.1,2.1,0,0,1-.73.45,2.77,2.77,0,0,1-.95.15h-2V77H28.84V69.86h3.25a2.33,2.33,0,0,1,1.67.6A2.09,2.09,0,0,1,34.39,72.06Zm-1.22,0a1.14,1.14,0,0,0-.35-.91,1.64,1.64,0,0,0-1.09-.3H30.09v2.42h1.67a2.34,2.34,0,0,0,.6-.07,1.07,1.07,0,0,0,.81-1.14Z"/><path class="cls-3" d="M36.87,69.86V77H35.62V69.86Z"/><path class="cls-3" d="M43.78,69.87v1.05H39.84v1.9h3.64v1H39.84V76h4v1H38.59V69.87Z"/><path class="cls-3" d="M50.85,71.79a1.91,1.91,0,0,1-.42,1.28,1.48,1.48,0,0,1-.35.31,2,2,0,0,1-.46.21v0a1.39,1.39,0,0,1,.49.21,1.18,1.18,0,0,1,.33.35,1.63,1.63,0,0,1,.21.52,4.43,4.43,0,0,1,.08.57c0,.2,0,.4,0,.61a4,4,0,0,0,.08.62,1.37,1.37,0,0,0,.2.52H49.78a3.66,3.66,0,0,1-.19-1.12,2.67,2.67,0,0,0-.38-1.47,1.13,1.13,0,0,0-.88-.34h-2V77H45.09V69.86h3.68a2.14,2.14,0,0,1,1.48.53A1.8,1.8,0,0,1,50.85,71.79ZM49.6,72a1.09,1.09,0,0,0-.32-.86,1.3,1.3,0,0,0-.89-.28H46.34v2.29h2.05a1.27,1.27,0,0,0,.85-.27A1.08,1.08,0,0,0,49.6,72Z"/><path class="cls-5" d="M84.75,160v-6.43H82.46V153q.53,0,.9-.06a2.36,2.36,0,0,0,.57-.13,1.3,1.3,0,0,0,.64-.52,2.46,2.46,0,0,0,.31-1h.63V160Z"/><path class="cls-5" d="M91.94,151.28a2.87,2.87,0,0,1,1.32.29,2.48,2.48,0,0,1,.94.85,4.14,4.14,0,0,1,.57,1.39,8.64,8.64,0,0,1,.19,1.92,5.94,5.94,0,0,1-.77,3.35,2.82,2.82,0,0,1-4.49,0,7.62,7.62,0,0,1,0-6.69A2.56,2.56,0,0,1,91.94,151.28Zm-2.23,4.45q0,3.81,2.23,3.81t2.24-3.81a5.64,5.64,0,0,0-.57-2.84,1.84,1.84,0,0,0-1.68-1,1.82,1.82,0,0,0-1.65.94A5.63,5.63,0,0,0,89.71,155.72Z"/><path class="cls-5" d="M98,158.73V160H96.87v-1.27Z"/><path class="cls-5" d="M102.9,151.28a2.81,2.81,0,0,1,2,.66,2.28,2.28,0,0,1,.73,1.78,2.82,2.82,0,0,1-.55,1.66,7,7,0,0,1-2,1.66,8.29,8.29,0,0,0-1.66,1.23,2,2,0,0,0-.56,1h4.81V160h-5.7a3,3,0,0,1,.56-1.74,6.61,6.61,0,0,1,1.93-1.66,8.78,8.78,0,0,0,1.89-1.48,2.11,2.11,0,0,0,.51-1.41,1.64,1.64,0,0,0-.54-1.28,2,2,0,0,0-1.4-.49,2,2,0,0,0-.86.17,1.82,1.82,0,0,0-.61.44,1.77,1.77,0,0,0-.36.62,2.2,2.2,0,0,0-.12.71V154h-.77v-.12a2.93,2.93,0,0,1,.17-1,2.42,2.42,0,0,1,.51-.84,2.47,2.47,0,0,1,.86-.59A3.06,3.06,0,0,1,102.9,151.28Z"/><path class="cls-5" d="M110.23,160v-6.43h-2.29V153q.53,0,.9-.06a2.36,2.36,0,0,0,.57-.13,1.3,1.3,0,0,0,.64-.52,2.46,2.46,0,0,0,.31-1H111V160Z"/><path class="cls-5" d="M116.2,158.73V160h-1.11v-1.27Z"/><path class="cls-5" d="M121,151.28a3.57,3.57,0,0,1,1,.13,2.67,2.67,0,0,1,.85.41,2.08,2.08,0,0,1,.6.69,2,2,0,0,1,.23,1,2.22,2.22,0,0,1-.1.66,1.82,1.82,0,0,1-.28.56,1.77,1.77,0,0,1-.45.42,2.14,2.14,0,0,1-.62.27v0a2.06,2.06,0,0,1,1.33.74,2.21,2.21,0,0,1,.45,1.39,2.41,2.41,0,0,1-.84,1.91,2.78,2.78,0,0,1-1,.55,3.78,3.78,0,0,1-1.21.18,3.66,3.66,0,0,1-1.12-.17,2.8,2.8,0,0,1-.92-.49,2.34,2.34,0,0,1-.63-.78,2.28,2.28,0,0,1-.23-1v-.18h.79v.16a1.74,1.74,0,0,0,.56,1.28,2,2,0,0,0,.66.4,2.45,2.45,0,0,0,.88.15,2.7,2.7,0,0,0,.91-.13,2.21,2.21,0,0,0,.69-.4,1.7,1.7,0,0,0,.64-1.38,1.89,1.89,0,0,0-.14-.75,1.64,1.64,0,0,0-.42-.58,2.22,2.22,0,0,0-1.53-.5h-.64v-.66h.69a1.86,1.86,0,0,0,1.21-.42,1.42,1.42,0,0,0,.52-1.15,1.59,1.59,0,0,0-.15-.71,1.48,1.48,0,0,0-.4-.51,1.73,1.73,0,0,0-.6-.31,2.56,2.56,0,0,0-.73-.1,2.1,2.1,0,0,0-.81.15,1.8,1.8,0,0,0-.61.41,1.82,1.82,0,0,0-.39.6,2,2,0,0,0-.13.73h-.78a2.44,2.44,0,0,1,.18-.92,2.53,2.53,0,0,1,.53-.82,2.7,2.7,0,0,1,.86-.59A2.82,2.82,0,0,1,121,151.28Z"/><path class="cls-5" d="M128.63,151.28a3.17,3.17,0,0,1,.94.13,2.34,2.34,0,0,1,.75.38,2.14,2.14,0,0,1,.54.62,2.49,2.49,0,0,1,.3.83h-.78a1.7,1.7,0,0,0-.19-.51,1.45,1.45,0,0,0-.35-.42,1.67,1.67,0,0,0-.52-.28,2.16,2.16,0,0,0-.69-.1,2,2,0,0,0-1,.25,2.1,2.1,0,0,0-.75.75,3.82,3.82,0,0,0-.45,1.21,8,8,0,0,0-.15,1.65h0a2.58,2.58,0,0,1,2.31-1.44,2.74,2.74,0,0,1,2.05.81,2.83,2.83,0,0,1,.8,2.08,2.84,2.84,0,0,1-2.94,2.94,3.09,3.09,0,0,1-1.41-.29,2.31,2.31,0,0,1-.93-.84,4.2,4.2,0,0,1-.52-1.39,10.4,10.4,0,0,1-.17-2.05,8.43,8.43,0,0,1,.07-1.06,5.56,5.56,0,0,1,.22-1,4.46,4.46,0,0,1,.4-.89,2.83,2.83,0,0,1,.6-.72,2.66,2.66,0,0,1,.82-.48A3.07,3.07,0,0,1,128.63,151.28Zm-2.23,6a2.25,2.25,0,0,0,.57,1.63,2.11,2.11,0,0,0,1.59.59,1.91,1.91,0,0,0,1.49-.66,2.26,2.26,0,0,0,.59-1.56,2.4,2.4,0,0,0-.57-1.64,1.93,1.93,0,0,0-1.52-.65,2,2,0,0,0-1.54.63A2.3,2.3,0,0,0,126.4,157.31Z"/><path class="cls-5" d="M134.42,158.73V160h-1.11v-1.27Z"/><path class="cls-5" d="M139.4,160v-6.43h-2.29V153q.53,0,.9-.06a2.36,2.36,0,0,0,.57-.13,1.3,1.3,0,0,0,.64-.52,2.46,2.46,0,0,0,.31-1h.63V160Z"/><path class="cls-5" d="M148.26,157.85V160h-.71v-2.15h-4v-.75l4-5.75h.7v5.85h1.3v.66Zm-.71-5.36h0l-3.27,4.71h3.29Z"/><path class="cls-5" d="M153.93,160v-6.43h-2.29V153q.53,0,.9-.06a2.36,2.36,0,0,0,.57-.13,1.3,1.3,0,0,0,.64-.52,2.46,2.46,0,0,0,.31-1h.63V160Z"/><path class="cls-5" d="M84.75,177v-6.43H82.46V170q.53,0,.9-.06a2.36,2.36,0,0,0,.57-.13,1.3,1.3,0,0,0,.64-.52,2.46,2.46,0,0,0,.31-1h.63V177Z"/><path class="cls-5" d="M91.94,168.28a2.87,2.87,0,0,1,1.32.29,2.48,2.48,0,0,1,.94.85,4.14,4.14,0,0,1,.57,1.39,8.64,8.64,0,0,1,.19,1.92,5.94,5.94,0,0,1-.77,3.35,2.82,2.82,0,0,1-4.49,0,7.62,7.62,0,0,1,0-6.69A2.56,2.56,0,0,1,91.94,168.28Zm-2.23,4.45q0,3.81,2.23,3.81t2.24-3.81a5.64,5.64,0,0,0-.57-2.84,1.84,1.84,0,0,0-1.68-1,1.82,1.82,0,0,0-1.65.94A5.63,5.63,0,0,0,89.71,172.73Z"/><path class="cls-5" d="M98,175.73V177H96.87v-1.27Z"/><path class="cls-5" d="M102.9,168.28a2.81,2.81,0,0,1,2,.66,2.28,2.28,0,0,1,.73,1.78,2.82,2.82,0,0,1-.55,1.66,7,7,0,0,1-2,1.66,8.29,8.29,0,0,0-1.66,1.23,2,2,0,0,0-.56,1h4.81V177h-5.7a3,3,0,0,1,.56-1.74,6.61,6.61,0,0,1,1.93-1.66,8.78,8.78,0,0,0,1.89-1.48,2.11,2.11,0,0,0,.51-1.41,1.64,1.64,0,0,0-.54-1.28,2,2,0,0,0-1.4-.49,2,2,0,0,0-.86.17,1.82,1.82,0,0,0-.61.44,1.77,1.77,0,0,0-.36.62,2.2,2.2,0,0,0-.12.71V171h-.77v-.12a2.93,2.93,0,0,1,.17-1,2.42,2.42,0,0,1,.51-.84,2.47,2.47,0,0,1,.86-.59A3.06,3.06,0,0,1,102.9,168.28Z"/><path class="cls-5" d="M110.23,177v-6.43h-2.29V170q.53,0,.9-.06a2.36,2.36,0,0,0,.57-.13,1.3,1.3,0,0,0,.64-.52,2.46,2.46,0,0,0,.31-1H111V177Z"/><path class="cls-5" d="M116.2,175.73V177h-1.11v-1.27Z"/><path class="cls-5" d="M121,168.28a3.57,3.57,0,0,1,1,.13,2.67,2.67,0,0,1,.85.41,2.08,2.08,0,0,1,.6.69,2,2,0,0,1,.23,1,2.22,2.22,0,0,1-.1.66,1.82,1.82,0,0,1-.28.56,1.77,1.77,0,0,1-.45.42,2.14,2.14,0,0,1-.62.27v0a2.06,2.06,0,0,1,1.33.74,2.21,2.21,0,0,1,.45,1.39,2.41,2.41,0,0,1-.84,1.91,2.78,2.78,0,0,1-1,.55,3.78,3.78,0,0,1-1.21.18,3.66,3.66,0,0,1-1.12-.17,2.8,2.8,0,0,1-.92-.49,2.34,2.34,0,0,1-.63-.78,2.28,2.28,0,0,1-.23-1v-.18h.79v.16a1.74,1.74,0,0,0,.56,1.28,2,2,0,0,0,.66.4,2.45,2.45,0,0,0,.88.15,2.7,2.7,0,0,0,.91-.13,2.21,2.21,0,0,0,.69-.4,1.7,1.7,0,0,0,.64-1.38,1.89,1.89,0,0,0-.14-.75,1.64,1.64,0,0,0-.42-.58,2.22,2.22,0,0,0-1.53-.5h-.64v-.66h.69a1.86,1.86,0,0,0,1.21-.42,1.42,1.42,0,0,0,.52-1.15,1.59,1.59,0,0,0-.15-.71,1.48,1.48,0,0,0-.4-.51,1.73,1.73,0,0,0-.6-.31,2.56,2.56,0,0,0-.73-.1,2.1,2.1,0,0,0-.81.15,1.8,1.8,0,0,0-.61.41,1.82,1.82,0,0,0-.39.6,2,2,0,0,0-.13.73h-.78a2.44,2.44,0,0,1,.18-.92,2.53,2.53,0,0,1,.53-.82,2.7,2.7,0,0,1,.86-.59A2.82,2.82,0,0,1,121,168.28Z"/><path class="cls-5" d="M128.63,168.28a3.17,3.17,0,0,1,.94.13,2.34,2.34,0,0,1,.75.38,2.14,2.14,0,0,1,.54.62,2.49,2.49,0,0,1,.3.83h-.78a1.7,1.7,0,0,0-.19-.51,1.45,1.45,0,0,0-.35-.42,1.67,1.67,0,0,0-.52-.28,2.16,2.16,0,0,0-.69-.1,2,2,0,0,0-1,.25,2.1,2.1,0,0,0-.75.75,3.82,3.82,0,0,0-.45,1.21,8,8,0,0,0-.15,1.65h0a2.58,2.58,0,0,1,2.31-1.44,2.74,2.74,0,0,1,2.05.81,2.83,2.83,0,0,1,.8,2.08,2.84,2.84,0,0,1-2.94,2.94,3.09,3.09,0,0,1-1.41-.29,2.31,2.31,0,0,1-.93-.84,4.2,4.2,0,0,1-.52-1.39,10.4,10.4,0,0,1-.17-2.05,8.43,8.43,0,0,1,.07-1.06,5.56,5.56,0,0,1,.22-1,4.46,4.46,0,0,1,.4-.89,2.83,2.83,0,0,1,.6-.72,2.66,2.66,0,0,1,.82-.48A3.07,3.07,0,0,1,128.63,168.28Zm-2.23,6A2.25,2.25,0,0,0,127,176a2.11,2.11,0,0,0,1.59.59,1.91,1.91,0,0,0,1.49-.66,2.26,2.26,0,0,0,.59-1.56,2.4,2.4,0,0,0-.57-1.64,1.93,1.93,0,0,0-1.52-.65,2,2,0,0,0-1.54.63A2.3,2.3,0,0,0,126.4,174.32Z"/><path class="cls-5" d="M134.42,175.73V177h-1.11v-1.27Z"/><path class="cls-5" d="M139.4,177v-6.43h-2.29V170q.53,0,.9-.06a2.36,2.36,0,0,0,.57-.13,1.3,1.3,0,0,0,.64-.52,2.46,2.46,0,0,0,.31-1h.63V177Z"/><path class="cls-5" d="M148.26,174.85V177h-.71v-2.15h-4v-.75l4-5.75h.7v5.85h1.3v.66Zm-.71-5.36h0l-3.27,4.71h3.29Z"/><path class="cls-5" d="M153.87,168.28a2.81,2.81,0,0,1,2,.66,2.28,2.28,0,0,1,.73,1.78,2.82,2.82,0,0,1-.55,1.66,7,7,0,0,1-2,1.66,8.29,8.29,0,0,0-1.66,1.23,2,2,0,0,0-.56,1h4.81V177h-5.7a3,3,0,0,1,.56-1.74,6.61,6.61,0,0,1,1.93-1.66,8.78,8.78,0,0,0,1.89-1.48,2.11,2.11,0,0,0,.51-1.41,1.64,1.64,0,0,0-.54-1.28,2,2,0,0,0-1.4-.49,2,2,0,0,0-.86.17,1.82,1.82,0,0,0-.61.44,1.77,1.77,0,0,0-.36.62,2.2,2.2,0,0,0-.12.71V171h-.77v-.12a2.93,2.93,0,0,1,.17-1,2.42,2.42,0,0,1,.51-.84,2.47,2.47,0,0,1,.86-.59A3.06,3.06,0,0,1,153.87,168.28Z"/><path class="cls-5" d="M17.17,153.25a2.71,2.71,0,0,1,1.3.29,2.6,2.6,0,0,1,.9.79,3.45,3.45,0,0,1,.52,1.13,5.21,5.21,0,0,1,.17,1.34v.13H15a3.58,3.58,0,0,0,.13.94,2.59,2.59,0,0,0,.39.83,2,2,0,0,0,.66.59,1.92,1.92,0,0,0,.95.22,2.44,2.44,0,0,0,.7-.09,2,2,0,0,0,.56-.26,1.76,1.76,0,0,0,.42-.39,2.41,2.41,0,0,0,.29-.49h.79a3,3,0,0,1-.38.79,2.48,2.48,0,0,1-.59.6,2.68,2.68,0,0,1-.79.39,3.34,3.34,0,0,1-1,.14,2.94,2.94,0,0,1-1.3-.27,2.56,2.56,0,0,1-.91-.73,3.12,3.12,0,0,1-.54-1.1,5.14,5.14,0,0,1-.18-1.37,4.66,4.66,0,0,1,.18-1.28,3.36,3.36,0,0,1,.54-1.11,2.74,2.74,0,0,1,.92-.78A2.79,2.79,0,0,1,17.17,153.25Zm2.09,3a3,3,0,0,0-.16-.85,2.44,2.44,0,0,0-.41-.75,2.07,2.07,0,0,0-.65-.54,1.84,1.84,0,0,0-.88-.21,1.84,1.84,0,0,0-1.5.7,2.7,2.7,0,0,0-.42.75,4.31,4.31,0,0,0-.23.9Z"/><path class="cls-5" d="M24.38,160.06h-.66A3,3,0,0,1,23,160a1,1,0,0,1-.45-.23.89.89,0,0,1-.25-.43,2.65,2.65,0,0,1-.07-.68v-4.56H21v-.67h1.32v-2h.8v2h1.5v.67h-1.5v4.48a1.76,1.76,0,0,0,0,.34.64.64,0,0,0,.11.25.5.5,0,0,0,.21.16.87.87,0,0,0,.35.06h.6l.21,0V160Z"/><path class="cls-5" d="M30.85,160v-4.15a2.2,2.2,0,0,0-.41-1.44,1.54,1.54,0,0,0-1.25-.49,2,2,0,0,0-.87.18,1.91,1.91,0,0,0-.65.48,2.14,2.14,0,0,0-.4.71,2.66,2.66,0,0,0-.14.87V160h-.8v-9.08h.8v3.66h0a1.89,1.89,0,0,1,.34-.56,2.12,2.12,0,0,1,.5-.42,2.43,2.43,0,0,1,.61-.26,2.46,2.46,0,0,1,.67-.09,3.35,3.35,0,0,1,1.08.16,1.83,1.83,0,0,1,.74.46,1.87,1.87,0,0,1,.43.77,3.79,3.79,0,0,1,.14,1.08V160Z"/><path class="cls-5" d="M14.68,170.44l1.68,5.62h0l1.6-5.62h.9l1.61,5.62h0l1.68-5.62H23L20.93,177h-.87l-1.61-5.52h0L16.82,177h-.88l-2.11-6.56Z"/><path class="cls-5" d="M25.3,167.57v1.29h-.8v-1.29Zm0,2.87V177h-.8v-6.56Z"/><path class="cls-5" d="M30.13,173.17v.7h-3v-.7Z"/><path class="cls-5" d="M33.25,171.12V177h-.8v-5.89h-1.3v-.67h1.3v-.62a2.15,2.15,0,0,1,.4-1.48,1.23,1.23,0,0,1,.52-.32,2.39,2.39,0,0,1,.74-.11h.46l.3,0v.69l-.17,0-.2,0h-.31a.83.83,0,0,0-1,1v.88h1.47v.67Zm3.43-3.54v1.29h-.8v-1.29Zm0,2.87V177h-.8v-6.56Z"/><path class="cls-3" d="M14.61,108.56l1.94,7.5h0l2.09-7.5h1l2.1,7.5h0l2-7.5h.81l-2.36,8.57h-.87l-2.17-7.67h0L17,117.13h-.88l-2.38-8.57Z"/><path class="cls-3" d="M28.23,110.38a2.71,2.71,0,0,1,1.3.29,2.6,2.6,0,0,1,.9.79,3.45,3.45,0,0,1,.52,1.13,5.21,5.21,0,0,1,.17,1.34v.13H26.07a3.58,3.58,0,0,0,.13.94,2.59,2.59,0,0,0,.39.83,2,2,0,0,0,.66.59,1.92,1.92,0,0,0,.95.22,2.44,2.44,0,0,0,.7-.09,2,2,0,0,0,.56-.26,1.76,1.76,0,0,0,.42-.39,2.41,2.41,0,0,0,.29-.49h.79a3,3,0,0,1-.38.79,2.48,2.48,0,0,1-.59.6,2.68,2.68,0,0,1-.79.39,3.34,3.34,0,0,1-1,.14,2.94,2.94,0,0,1-1.3-.27,2.56,2.56,0,0,1-.91-.73,3.12,3.12,0,0,1-.54-1.1,5.14,5.14,0,0,1-.18-1.37,4.66,4.66,0,0,1,.18-1.28,3.36,3.36,0,0,1,.54-1.11,2.74,2.74,0,0,1,.92-.78A2.79,2.79,0,0,1,28.23,110.38Zm2.09,3a3,3,0,0,0-.16-.85,2.44,2.44,0,0,0-.41-.75,2.07,2.07,0,0,0-.65-.54,1.84,1.84,0,0,0-.88-.21,1.84,1.84,0,0,0-1.5.7,2.7,2.7,0,0,0-.42.75,4.31,4.31,0,0,0-.23.9Z"/><path class="cls-3" d="M38.25,108v9.08h-.74v-1.25h0a2,2,0,0,1-.39.59,2.57,2.57,0,0,1-.56.45,2.8,2.8,0,0,1-.67.29,2.63,2.63,0,0,1-.72.1,2.8,2.8,0,0,1-1.28-.28,2.68,2.68,0,0,1-.92-.75,3.32,3.32,0,0,1-.56-1.11,4.68,4.68,0,0,1-.19-1.34,4.83,4.83,0,0,1,.17-1.29,3.31,3.31,0,0,1,.53-1.11,2.69,2.69,0,0,1,.92-.78,3,3,0,0,1,2-.2,2.56,2.56,0,0,1,.65.27,2.25,2.25,0,0,1,.54.45,2.07,2.07,0,0,1,.38.63h0V108ZM33,113.84a4.17,4.17,0,0,0,.05.65,3.7,3.7,0,0,0,.16.64,2.82,2.82,0,0,0,.28.58,2.15,2.15,0,0,0,.41.48,1.8,1.8,0,0,0,.55.32,2,2,0,0,0,.7.12,2.08,2.08,0,0,0,1.73-.84,2.66,2.66,0,0,0,.43-.89,4,4,0,0,0,.14-1.06,4,4,0,0,0-.13-1,2.73,2.73,0,0,0-.41-.9,2.06,2.06,0,0,0-1.76-.88,1.94,1.94,0,0,0-.68.11,1.8,1.8,0,0,0-.54.31,2.15,2.15,0,0,0-.41.47,2.8,2.8,0,0,0-.29.58,3.52,3.52,0,0,0-.17.65A4.25,4.25,0,0,0,33,113.84Z"/><path class="cls-3" d="M46,117.13V110.7H43.71v-.56q.53,0,.9-.06a2.36,2.36,0,0,0,.57-.13,1.3,1.3,0,0,0,.64-.52,2.46,2.46,0,0,0,.31-1h.63v8.65Z"/><path class="cls-3" d="M53,117.13V110.7H50.7v-.56q.53,0,.9-.06a2.36,2.36,0,0,0,.57-.13,1.3,1.3,0,0,0,.64-.52,2.46,2.46,0,0,0,.31-1h.63v8.65Z"/><path class="cls-3" d="M58.68,110.81v1.27H57.57v-1.27Zm0,5v1.27H57.57v-1.27Z"/><path class="cls-3" d="M65,115v2.15h-.71V115h-4v-.75l4-5.75H65v5.85h1.3V115Zm-.71-5.36h0L61,114.32h3.29Z"/><path class="cls-3" d="M70.09,117.31a3.17,3.17,0,0,1-.94-.13,2.34,2.34,0,0,1-.75-.38,2.14,2.14,0,0,1-.54-.62,2.49,2.49,0,0,1-.3-.83h.78a1.7,1.7,0,0,0,.19.51,1.45,1.45,0,0,0,.35.42,1.67,1.67,0,0,0,.52.28,2.16,2.16,0,0,0,.69.1,2,2,0,0,0,1-.25,2.1,2.1,0,0,0,.75-.75,3.82,3.82,0,0,0,.45-1.21,8,8,0,0,0,.15-1.65h0a2.58,2.58,0,0,1-2.31,1.44,2.74,2.74,0,0,1-2.05-.81,2.83,2.83,0,0,1-.8-2.08,2.84,2.84,0,0,1,2.94-2.94,3.09,3.09,0,0,1,1.41.29,2.31,2.31,0,0,1,.93.84,4.2,4.2,0,0,1,.52,1.39,10.4,10.4,0,0,1,.17,2.05A8.43,8.43,0,0,1,73.2,114a5.56,5.56,0,0,1-.22,1,4.46,4.46,0,0,1-.4.89,2.83,2.83,0,0,1-.6.72,2.66,2.66,0,0,1-.82.48A3.07,3.07,0,0,1,70.09,117.31Zm2.23-6a2.25,2.25,0,0,0-.57-1.63,2.11,2.11,0,0,0-1.59-.59,1.91,1.91,0,0,0-1.49.66,2.26,2.26,0,0,0-.59,1.56,2.4,2.4,0,0,0,.57,1.64,1.92,1.92,0,0,0,1.52.65,2,2,0,0,0,1.54-.63A2.29,2.29,0,0,0,72.33,111.28Z"/><path class="cls-3" d="M17.14,122.8a2.81,2.81,0,0,1,2,.66,2.28,2.28,0,0,1,.73,1.78,2.82,2.82,0,0,1-.55,1.66,7,7,0,0,1-2,1.66,8.29,8.29,0,0,0-1.66,1.23,2,2,0,0,0-.56,1h4.81v.72h-5.7a3,3,0,0,1,.56-1.74,6.61,6.61,0,0,1,1.93-1.66,8.78,8.78,0,0,0,1.89-1.48,2.11,2.11,0,0,0,.51-1.41,1.64,1.64,0,0,0-.54-1.28,2,2,0,0,0-1.4-.49,2,2,0,0,0-.86.17,1.82,1.82,0,0,0-.61.44,1.77,1.77,0,0,0-.36.62,2.21,2.21,0,0,0-.12.71v.17h-.77v-.12a2.93,2.93,0,0,1,.17-1,2.42,2.42,0,0,1,.51-.84,2.47,2.47,0,0,1,.86-.59A3.06,3.06,0,0,1,17.14,122.8Z"/><path class="cls-3" d="M26.83,123v.72H23.05l-.54,2.78,0,0a2.32,2.32,0,0,1,.82-.52,2.79,2.79,0,0,1,1-.18,3.18,3.18,0,0,1,1.2.22,2.6,2.6,0,0,1,.92.61,2.73,2.73,0,0,1,.59.94,3.43,3.43,0,0,1,.21,1.22,2.81,2.81,0,0,1-.23,1.14,2.94,2.94,0,0,1-1.61,1.56,3.12,3.12,0,0,1-1.2.23,3.29,3.29,0,0,1-1.1-.17,2.58,2.58,0,0,1-.85-.48,2.26,2.26,0,0,1-.56-.74,2.52,2.52,0,0,1-.23-1h.79a1.84,1.84,0,0,0,.16.64,1.65,1.65,0,0,0,.4.54,2,2,0,0,0,.62.37,2.29,2.29,0,0,0,.83.14,2.06,2.06,0,0,0,.87-.19,2.14,2.14,0,0,0,.7-.5,2.4,2.4,0,0,0,.46-.75,2.49,2.49,0,0,0,.17-.92,2.41,2.41,0,0,0-.16-.87,2.12,2.12,0,0,0-1.14-1.2,2.2,2.2,0,0,0-.91-.18,2.55,2.55,0,0,0-1.07.22,2.22,2.22,0,0,0-.85.68h-.66L22.5,123Z"/><path class="cls-3" d="M40.89,131.53v-4.46a1.73,1.73,0,0,0-.37-1.22A1.85,1.85,0,0,0,38,126a2.8,2.8,0,0,0-.45,1.71v3.77h-.81V127a1.81,1.81,0,0,0-.34-1.17,1.25,1.25,0,0,0-1-.42,1.72,1.72,0,0,0-1.46.65,2.72,2.72,0,0,0-.5,1.71v3.72h-.8V125h.74v1.1h0a2.26,2.26,0,0,1,2.15-1.29,2.44,2.44,0,0,1,.64.08,1.86,1.86,0,0,1,.54.24,1.66,1.66,0,0,1,.42.4,1.87,1.87,0,0,1,.28.55,2.16,2.16,0,0,1,.85-1,2.4,2.4,0,0,1,1.24-.32,2.12,2.12,0,0,1,1.63.58,2.36,2.36,0,0,1,.54,1.66v4.51Z"/><path class="cls-3" d="M49.55,131.48l-.27,0H49a1.37,1.37,0,0,1-.44-.06.65.65,0,0,1-.29-.2.82.82,0,0,1-.16-.36,2.42,2.42,0,0,1,0-.53h0a3,3,0,0,1-1,1,2.79,2.79,0,0,1-1.35.29,2.46,2.46,0,0,1-1.6-.5,1.75,1.75,0,0,1-.6-1.43,1.66,1.66,0,0,1,.66-1.43,6.79,6.79,0,0,1,3-.69,2,2,0,0,0,.44-.08.75.75,0,0,0,.29-.16.59.59,0,0,0,.16-.26,1.28,1.28,0,0,0,0-.38,1.25,1.25,0,0,0-.4-1,2,2,0,0,0-1.31-.34,2.61,2.61,0,0,0-.72.09,1.65,1.65,0,0,0-.53.25,1.13,1.13,0,0,0-.33.39,1.23,1.23,0,0,0-.13.49h-.8a2,2,0,0,1,.22-.78,1.77,1.77,0,0,1,.51-.59,2.43,2.43,0,0,1,.81-.38,4,4,0,0,1,1.09-.13,2.64,2.64,0,0,1,1.83.54,2,2,0,0,1,.59,1.52v3.56a.47.47,0,0,0,.11.33.46.46,0,0,0,.36.12.7.7,0,0,0,.25,0ZM48,127.93h0q-.12.22-.77.31l-.67.1-.74.12a2.67,2.67,0,0,0-1.17.44,1,1,0,0,0-.39.84,1.16,1.16,0,0,0,.43.94,1.6,1.6,0,0,0,1,.35,2.36,2.36,0,0,0,1.63-.58A1.85,1.85,0,0,0,48,129Z"/><path class="cls-3" d="M51,131.53V125h.74v1.54h0a2.56,2.56,0,0,1,.9-1.2,2.32,2.32,0,0,1,1.38-.43h.29v.8h-.18a2.22,2.22,0,0,0-1.71.69,2.36,2.36,0,0,0-.64,1.69v3.48Z"/><path class="cls-3" d="M61.65,122.8a2.81,2.81,0,0,1,2,.66,2.28,2.28,0,0,1,.73,1.78,2.82,2.82,0,0,1-.55,1.66,7,7,0,0,1-2,1.66,8.29,8.29,0,0,0-1.66,1.23,2,2,0,0,0-.56,1h4.81v.72h-5.7a3,3,0,0,1,.56-1.74,6.61,6.61,0,0,1,1.93-1.66A8.78,8.78,0,0,0,63,126.64a2.11,2.11,0,0,0,.51-1.41,1.64,1.64,0,0,0-.54-1.28,2,2,0,0,0-1.4-.49,2,2,0,0,0-.86.17,1.82,1.82,0,0,0-.61.44,1.77,1.77,0,0,0-.36.62,2.21,2.21,0,0,0-.12.71v.17H58.9v-.12a2.93,2.93,0,0,1,.17-1,2.42,2.42,0,0,1,.51-.84,2.47,2.47,0,0,1,.86-.59A3.06,3.06,0,0,1,61.65,122.8Z"/><path class="cls-3" d="M68.91,122.8a2.87,2.87,0,0,1,1.32.29,2.48,2.48,0,0,1,.94.85,4.14,4.14,0,0,1,.57,1.39,8.64,8.64,0,0,1,.19,1.92,5.94,5.94,0,0,1-.77,3.35,2.82,2.82,0,0,1-4.49,0,7.62,7.62,0,0,1,0-6.69A2.56,2.56,0,0,1,68.91,122.8Zm-2.23,4.45q0,3.81,2.23,3.81t2.24-3.81a5.65,5.65,0,0,0-.57-2.84,1.94,1.94,0,0,0-3.33,0A5.63,5.63,0,0,0,66.68,127.25Z"/><path class="cls-3" d="M76.25,131.53V125.1H74v-.56c.36,0,.66,0,.9-.06a2.36,2.36,0,0,0,.57-.12,1.31,1.31,0,0,0,.64-.52,2.46,2.46,0,0,0,.31-1H77v8.65Z"/><path class="cls-3" d="M85.88,123v.72H82.1l-.54,2.78,0,0a2.32,2.32,0,0,1,.82-.52,2.79,2.79,0,0,1,1-.18,3.18,3.18,0,0,1,1.2.22,2.6,2.6,0,0,1,.92.61,2.73,2.73,0,0,1,.59.94,3.43,3.43,0,0,1,.21,1.22,2.81,2.81,0,0,1-.23,1.14,2.94,2.94,0,0,1-1.61,1.56,3.12,3.12,0,0,1-1.2.23,3.29,3.29,0,0,1-1.1-.17,2.58,2.58,0,0,1-.85-.48,2.26,2.26,0,0,1-.56-.74,2.52,2.52,0,0,1-.23-1h.79a1.84,1.84,0,0,0,.16.64,1.65,1.65,0,0,0,.4.54,2,2,0,0,0,.62.37,2.29,2.29,0,0,0,.83.14,2.06,2.06,0,0,0,.87-.19,2.14,2.14,0,0,0,.7-.5,2.4,2.4,0,0,0,.46-.75,2.49,2.49,0,0,0,.17-.92,2.41,2.41,0,0,0-.16-.87,2.12,2.12,0,0,0-1.14-1.2,2.2,2.2,0,0,0-.91-.18,2.55,2.55,0,0,0-1.07.22,2.22,2.22,0,0,0-.85.68h-.66l.81-4.38Z"/><rect class="cls-2" x="1.5" y="528.5" width="168" height="57"/><path class="cls-3" d="M61.64,551.76v.7H56.55v3.09h4.77v.69H56.55v3.38H61.7v.7h-6v-8.55Z"/><path class="cls-3" d="M66.11,553.56a3.35,3.35,0,0,1,1.08.16,1.83,1.83,0,0,1,.74.46,1.87,1.87,0,0,1,.43.77,3.79,3.79,0,0,1,.14,1.08v4.28h-.8v-4.15a2.2,2.2,0,0,0-.41-1.44,1.54,1.54,0,0,0-1.25-.49,2.07,2.07,0,0,0-.86.17,1.88,1.88,0,0,0-.65.48,2.16,2.16,0,0,0-.41.71,2.63,2.63,0,0,0-.14.88v3.84h-.8v-6.56H64v1.14h0a2,2,0,0,1,.35-.56,2.18,2.18,0,0,1,.49-.42,2.33,2.33,0,0,1,.6-.26A2.48,2.48,0,0,1,66.11,553.56Z"/><path class="cls-3" d="M73.25,553.56a2.29,2.29,0,0,1,.64.09,2.31,2.31,0,0,1,1.08.68,2.26,2.26,0,0,1,.37.56h0v-1.14h.8v6.1a3.27,3.27,0,0,1-.73,2.3,2.88,2.88,0,0,1-2.21.79,4.54,4.54,0,0,1-.93-.09,2.71,2.71,0,0,1-.81-.3,1.88,1.88,0,0,1-.6-.55,1.68,1.68,0,0,1-.28-.82h.8A1.24,1.24,0,0,0,72,562a2.33,2.33,0,0,0,1.25.28,2,2,0,0,0,1.61-.61,2.66,2.66,0,0,0,.54-1.81v-1.18h0a2.53,2.53,0,0,1-.37.57,2.28,2.28,0,0,1-.5.43,2.35,2.35,0,0,1-.6.27,2.4,2.4,0,0,1-.67.09,3.16,3.16,0,0,1-1.28-.24,2.43,2.43,0,0,1-.91-.67,2.85,2.85,0,0,1-.54-1,4.64,4.64,0,0,1-.18-1.31,4,4,0,0,1,.19-1.22,3,3,0,0,1,.56-1,2.74,2.74,0,0,1,.93-.7A3,3,0,0,1,73.25,553.56Zm-2.16,3.29a3.49,3.49,0,0,0,.12,1,2.29,2.29,0,0,0,.38.8,1.87,1.87,0,0,0,.67.54,2.13,2.13,0,0,0,1,.2,1.9,1.9,0,0,0,.91-.21,2.1,2.1,0,0,0,.67-.56,2.53,2.53,0,0,0,.42-.8,3,3,0,0,0,.14-.93,3.72,3.72,0,0,0-.12-.93,2.66,2.66,0,0,0-.37-.84,2,2,0,0,0-.66-.61,1.87,1.87,0,0,0-1-.24,2,2,0,0,0-1,.22,2,2,0,0,0-.67.59,2.55,2.55,0,0,0-.39.84A3.87,3.87,0,0,0,71.09,556.85Z"/><path class="cls-3" d="M79.18,551.23v9.08h-.8v-9.08Z"/><path class="cls-3" d="M82.21,550.88v1.29h-.8v-1.29Zm0,2.87v6.56h-.8v-6.56Z"/><path class="cls-3" d="M89.32,558.53a1.67,1.67,0,0,1-.22.88,1.89,1.89,0,0,1-.59.62,2.74,2.74,0,0,1-.84.36,4,4,0,0,1-1,.12,3.66,3.66,0,0,1-1.07-.14,2.4,2.4,0,0,1-.8-.41,2,2,0,0,1-.53-.64,2.4,2.4,0,0,1-.25-.85h.81a1.7,1.7,0,0,0,.2.56,1.41,1.41,0,0,0,.38.43,1.8,1.8,0,0,0,.57.28,2.56,2.56,0,0,0,.74.1,3,3,0,0,0,.6-.06,2.05,2.05,0,0,0,.58-.21,1.35,1.35,0,0,0,.44-.38,1,1,0,0,0,.18-.59.93.93,0,0,0-.34-.73,2.6,2.6,0,0,0-1.13-.46l-1-.22a4,4,0,0,1-.77-.24,2.1,2.1,0,0,1-.58-.37,1.46,1.46,0,0,1-.36-.5,1.62,1.62,0,0,1-.12-.65,1.57,1.57,0,0,1,.21-.83A1.78,1.78,0,0,1,85,554a2.53,2.53,0,0,1,.78-.33,3.77,3.77,0,0,1,.89-.11,3.27,3.27,0,0,1,.92.12,2.29,2.29,0,0,1,.73.35,1.83,1.83,0,0,1,.5.57,2.08,2.08,0,0,1,.25.78h-.8a1.32,1.32,0,0,0-.19-.5,1.24,1.24,0,0,0-.36-.37,1.69,1.69,0,0,0-.5-.22,2.36,2.36,0,0,0-.61-.08,2.85,2.85,0,0,0-.58.06,1.59,1.59,0,0,0-.51.19,1.07,1.07,0,0,0-.36.35,1,1,0,0,0-.13.53.74.74,0,0,0,.13.44,1.27,1.27,0,0,0,.33.32,1.93,1.93,0,0,0,.44.22,3.64,3.64,0,0,0,.46.13l1.37.3a2.85,2.85,0,0,1,.59.21,1.77,1.77,0,0,1,.5.35,1.64,1.64,0,0,1,.34.51A1.71,1.71,0,0,1,89.32,558.53Z"/><path class="cls-3" d="M95.6,560.31v-4.15a2.2,2.2,0,0,0-.41-1.44,1.54,1.54,0,0,0-1.25-.49,2,2,0,0,0-.87.18,1.91,1.91,0,0,0-.65.48,2.14,2.14,0,0,0-.4.71,2.66,2.66,0,0,0-.14.87v3.84h-.8v-9.08h.8v3.66h0a1.89,1.89,0,0,1,.34-.56,2.12,2.12,0,0,1,.5-.42,2.43,2.43,0,0,1,.61-.26,2.46,2.46,0,0,1,.67-.09,3.35,3.35,0,0,1,1.08.16,1.83,1.83,0,0,1,.74.46,1.87,1.87,0,0,1,.43.77A3.79,3.79,0,0,1,96.4,556v4.28Z"/><path class="cls-3" d="M104.23,551.57a9.69,9.69,0,0,0-1.89,5.82,6.9,6.9,0,0,0,.13,1.35,8.53,8.53,0,0,0,.38,1.34,10.23,10.23,0,0,0,.6,1.3,11.53,11.53,0,0,0,.78,1.23h-.64a10,10,0,0,1-1.49-2.6,8,8,0,0,1-.52-2.88,9,9,0,0,1,.11-1.43,8.24,8.24,0,0,1,.36-1.41,8.63,8.63,0,0,1,.62-1.38,9.44,9.44,0,0,1,.91-1.34Z"/><path class="cls-3" d="M106.28,551.75v5.36a2.93,2.93,0,0,0,.61,2,2.41,2.41,0,0,0,1.9.69,2.44,2.44,0,0,0,1.91-.68,2.91,2.91,0,0,0,.61-2v-5.36h.82v5.54a3.21,3.21,0,0,1-.85,2.31,3.28,3.28,0,0,1-2.49.9,4.79,4.79,0,0,1-.71-.05,3.73,3.73,0,0,1-.69-.17,3.06,3.06,0,0,1-.63-.31,2.41,2.41,0,0,1-.54-.47,3,3,0,0,1-.57-1,3.82,3.82,0,0,1-.18-1.19v-5.54Z"/><path class="cls-3" d="M120.42,558a2.15,2.15,0,0,1-.28,1.14,2.26,2.26,0,0,1-.76.76,3.46,3.46,0,0,1-1.1.42,6.15,6.15,0,0,1-1.29.13,4.8,4.8,0,0,1-1.28-.16,3.18,3.18,0,0,1-1-.49,2.35,2.35,0,0,1-.69-.79,2.22,2.22,0,0,1-.25-1.08v-.19h.82v.06a1.87,1.87,0,0,0,.16.76,1.65,1.65,0,0,0,.48.62,2.43,2.43,0,0,0,.81.42,3.79,3.79,0,0,0,1.15.16,4,4,0,0,0,.9-.1,2.56,2.56,0,0,0,.79-.32,1.81,1.81,0,0,0,.56-.54,1.38,1.38,0,0,0,.21-.78q0-1.11-1.67-1.52l-2-.49a4,4,0,0,1-.88-.31,2.14,2.14,0,0,1-.6-.44,1.6,1.6,0,0,1-.35-.58A2.24,2.24,0,0,1,114,554a2.1,2.1,0,0,1,.25-1,2.34,2.34,0,0,1,.68-.76,3.07,3.07,0,0,1,1-.46,4.16,4.16,0,0,1,1.14-.16,4.34,4.34,0,0,1,1.2.16,2.9,2.9,0,0,1,1,.46,2.27,2.27,0,0,1,.64.75,2.24,2.24,0,0,1,.25,1h-.81a1.6,1.6,0,0,0-.2-.65,1.78,1.78,0,0,0-.46-.53,2.24,2.24,0,0,0-.69-.36,2.81,2.81,0,0,0-.88-.13,3.49,3.49,0,0,0-.91.11,2.16,2.16,0,0,0-.71.33,1.46,1.46,0,0,0-.46.53,1.6,1.6,0,0,0-.16.73,1.2,1.2,0,0,0,.11.52,1.13,1.13,0,0,0,.29.38,1.54,1.54,0,0,0,.43.25,4,4,0,0,0,.53.17l2,.48a3.73,3.73,0,0,1,1.76.85A1.93,1.93,0,0,1,120.42,558Z"/><path class="cls-3" d="M121.87,551.57a11.33,11.33,0,0,1,.86,1.24,8.41,8.41,0,0,1,.63,1.29,7.8,7.8,0,0,1,.39,1.4,8.62,8.62,0,0,1-1.87,7.1h-.64a10.2,10.2,0,0,0,1.39-2.71,9.63,9.63,0,0,0,.49-3.1,6.72,6.72,0,0,0-.14-1.35,8.49,8.49,0,0,0-.39-1.33,10.9,10.9,0,0,0-.6-1.3,13.56,13.56,0,0,0-.76-1.24Z"/><path class="cls-6" d="M23.51,559.46l-2-2,0,0a14,14,0,0,0,3-5.22h2.34v-1.6h-5.6V549h-1.6v1.6H14v1.59h8.93a12.56,12.56,0,0,1-2.54,4.29,12.56,12.56,0,0,1-1.85-2.68H17a14.08,14.08,0,0,0,2.39,3.65l-4.07,4,1.14,1.14,4-4,2.49,2.49ZM28,555.4h-1.6l-3.6,9.6h1.6l.9-2.4h3.8L30,565h1.6Zm-2.1,5.6,1.3-3.46,1.3,3.46Z"/><line class="cls-7" y1="54.5" x2="171" y2="54.5"/><line class="cls-7" y1="186.5" x2="171" y2="186.5"/><line class="cls-7" y1="186.5" x2="171" y2="186.5"/><line class="cls-7" y1="415.5" x2="171" y2="415.5"/><polyline class="cls-8" points="142 555.06 145.88 558.94 150 555.06"/><g class="cls-9"><rect class="cls-2" x="1.5" y="196.5" width="168" height="114"/></g><path class="cls-3" d="M21.44,212.59a2.29,2.29,0,0,1-.5,1.54,1.79,1.79,0,0,1-.42.37,2.48,2.48,0,0,1-.55.25v0a1.71,1.71,0,0,1,.59.25,1.41,1.41,0,0,1,.4.42,1.94,1.94,0,0,1,.25.62,5.14,5.14,0,0,1,.1.69c0,.24,0,.48,0,.73a4.79,4.79,0,0,0,.09.74,1.65,1.65,0,0,0,.24.62H20.15a4.38,4.38,0,0,1-.22-1.34,3.2,3.2,0,0,0-.45-1.76,1.35,1.35,0,0,0-1.06-.4H16v3.51h-1.5v-8.57h4.42a2.56,2.56,0,0,1,1.78.64A2.16,2.16,0,0,1,21.44,212.59Zm-1.5.24a1.31,1.31,0,0,0-.38-1,1.56,1.56,0,0,0-1.07-.34H16v2.75h2.46a1.52,1.52,0,0,0,1-.33A1.3,1.3,0,0,0,19.94,212.83Z"/><path class="cls-3" d="M27.67,218.84v-1h0a2.25,2.25,0,0,1-.39.52,2.3,2.3,0,0,1-.5.37,2.49,2.49,0,0,1-.58.23,2.54,2.54,0,0,1-.64.08,2.3,2.3,0,0,1-1.78-.63,2.81,2.81,0,0,1-.57-1.95v-4.19h1.44v4a2.89,2.89,0,0,0,.08.7,1.37,1.37,0,0,0,.24.52,1,1,0,0,0,.42.32,1.81,1.81,0,0,0,1.36,0,1.37,1.37,0,0,0,.5-.43,1.86,1.86,0,0,0,.29-.66,3.72,3.72,0,0,0,.09-.85v-3.5H29v6.57Z"/><path class="cls-3" d="M34.4,212.09a3.25,3.25,0,0,1,1.1.16,1.8,1.8,0,0,1,.74.49,1.94,1.94,0,0,1,.42.8,4.29,4.29,0,0,1,.13,1.12v4.17H35.36v-3.9a2.11,2.11,0,0,0-.32-1.27,1.19,1.19,0,0,0-1-.43,1.48,1.48,0,0,0-1.23.52,2.28,2.28,0,0,0-.41,1.45v3.63H30.93v-6.57h1.38v1h0a2.14,2.14,0,0,1,.37-.5,2.24,2.24,0,0,1,.48-.37,2.34,2.34,0,0,1,.57-.23A2.51,2.51,0,0,1,34.4,212.09Z"/><path class="cls-3" d="M42.16,212.09a3.25,3.25,0,0,1,1.1.16,1.8,1.8,0,0,1,.74.49,1.94,1.94,0,0,1,.42.8,4.29,4.29,0,0,1,.13,1.12v4.17H43.12v-3.9a2.11,2.11,0,0,0-.32-1.27,1.19,1.19,0,0,0-1-.43,1.48,1.48,0,0,0-1.23.52,2.28,2.28,0,0,0-.41,1.45v3.63H38.7v-6.57h1.38v1h0a2.14,2.14,0,0,1,.37-.5,2.24,2.24,0,0,1,.48-.37,2.34,2.34,0,0,1,.57-.23A2.51,2.51,0,0,1,42.16,212.09Z"/><path class="cls-3" d="M48,209.41v1.42H46.51v-1.42Zm0,2.86v6.57H46.51v-6.57Z"/><path class="cls-3" d="M53.37,212.09a3.25,3.25,0,0,1,1.1.16,1.8,1.8,0,0,1,.74.49,1.94,1.94,0,0,1,.42.8,4.29,4.29,0,0,1,.13,1.12v4.17H54.33v-3.9a2.11,2.11,0,0,0-.32-1.27,1.19,1.19,0,0,0-1-.43,1.48,1.48,0,0,0-1.23.52,2.28,2.28,0,0,0-.41,1.45v3.63H49.9v-6.57h1.38v1h0a2.14,2.14,0,0,1,.37-.5,2.24,2.24,0,0,1,.48-.37,2.34,2.34,0,0,1,.57-.23A2.51,2.51,0,0,1,53.37,212.09Z"/><path class="cls-3" d="M60.26,212.09a2.35,2.35,0,0,1,1.2.29,2.13,2.13,0,0,1,.81.85h0v-1h1.39v6.17a3.42,3.42,0,0,1-.23,1.31,2.4,2.4,0,0,1-.65.92,2.71,2.71,0,0,1-1,.54,4.81,4.81,0,0,1-1.35.18,4.46,4.46,0,0,1-1-.11,2.93,2.93,0,0,1-.86-.33,2.13,2.13,0,0,1-.65-.59,1.75,1.75,0,0,1-.31-.86h1.44a1,1,0,0,0,.49.66,2,2,0,0,0,1,.22,1.64,1.64,0,0,0,1.28-.49,2,2,0,0,0,.44-1.4v-1h0a2,2,0,0,1-.82.84,2.47,2.47,0,0,1-1.22.3,2.92,2.92,0,0,1-1.26-.25,2.46,2.46,0,0,1-.88-.69,3,3,0,0,1-.52-1,4.69,4.69,0,0,1-.17-1.3,4.07,4.07,0,0,1,.18-1.22,3.1,3.1,0,0,1,.54-1,2.66,2.66,0,0,1,.9-.72A2.76,2.76,0,0,1,60.26,212.09Zm-1.42,3.25a3.41,3.41,0,0,0,.11.87,2,2,0,0,0,.32.68,1.48,1.48,0,0,0,.53.44,1.65,1.65,0,0,0,.74.16,1.59,1.59,0,0,0,.75-.17,1.71,1.71,0,0,0,.55-.46,2,2,0,0,0,.34-.66,2.62,2.62,0,0,0,.11-.78,3.52,3.52,0,0,0-.11-.88,2.07,2.07,0,0,0-.32-.71,1.53,1.53,0,0,0-.55-.47,1.68,1.68,0,0,0-.78-.17,1.57,1.57,0,0,0-.77.18,1.53,1.53,0,0,0-.53.48,2.15,2.15,0,0,0-.3.69A3.18,3.18,0,0,0,58.83,215.34Z"/><g class="cls-9"><line class="cls-10" x1="13.5" y1="228.5" x2="157.5" y2="228.5"/></g><rect class="cls-2" x="27.01" y="294.99" width="117" height="114"/><rect class="cls-11" x="41.51" y="307.99" width="88" height="88"/><polygon class="cls-8" points="93.51 334.07 85.51 347.92 77.51 334.07 93.51 334.07"/><circle class="cls-8" cx="85.51" cy="339.99" r="14"/><path class="cls-3" d="M77.78,372.06a2.15,2.15,0,0,1-.28,1.14,2.26,2.26,0,0,1-.76.76,3.46,3.46,0,0,1-1.1.42,6.15,6.15,0,0,1-1.29.13,4.8,4.8,0,0,1-1.28-.16,3.18,3.18,0,0,1-1-.49,2.35,2.35,0,0,1-.69-.79,2.22,2.22,0,0,1-.25-1.08v-.19h.82v.06a1.87,1.87,0,0,0,.16.76,1.65,1.65,0,0,0,.48.62,2.43,2.43,0,0,0,.81.42,3.79,3.79,0,0,0,1.15.16,4,4,0,0,0,.9-.1,2.56,2.56,0,0,0,.79-.32,1.81,1.81,0,0,0,.56-.54,1.38,1.38,0,0,0,.21-.78q0-1.11-1.67-1.52l-2-.49a4,4,0,0,1-.88-.31,2.14,2.14,0,0,1-.6-.44,1.6,1.6,0,0,1-.35-.58,2.24,2.24,0,0,1-.11-.73,2.1,2.1,0,0,1,.25-1,2.34,2.34,0,0,1,.68-.76,3.07,3.07,0,0,1,1-.46,4.16,4.16,0,0,1,1.14-.16,4.34,4.34,0,0,1,1.2.16,2.9,2.9,0,0,1,1,.46,2.27,2.27,0,0,1,.64.75,2.24,2.24,0,0,1,.25,1h-.81a1.6,1.6,0,0,0-.2-.65,1.78,1.78,0,0,0-.46-.53,2.24,2.24,0,0,0-.69-.36,2.81,2.81,0,0,0-.88-.13,3.49,3.49,0,0,0-.91.11,2.16,2.16,0,0,0-.71.33,1.46,1.46,0,0,0-.46.53,1.6,1.6,0,0,0-.16.73,1.2,1.2,0,0,0,.11.52,1.13,1.13,0,0,0,.29.38,1.54,1.54,0,0,0,.43.25,4,4,0,0,0,.53.17l2,.48a3.73,3.73,0,0,1,1.76.85A1.93,1.93,0,0,1,77.78,372.06Z"/><path class="cls-3" d="M84.91,365.77v.7h-3v7.87h-.81v-7.87h-3v-.7Z"/><path class="cls-3" d="M93.31,370.05a4.7,4.7,0,0,1-1.1,3.2,3.68,3.68,0,0,1-2.94,1.27,3.72,3.72,0,0,1-2.95-1.25,5.26,5.26,0,0,1,0-6.43,3.72,3.72,0,0,1,2.95-1.25,4.81,4.81,0,0,1,.77.06,4,4,0,0,1,.74.19,3.72,3.72,0,0,1,.69.34,3.43,3.43,0,0,1,.61.49,3.49,3.49,0,0,1,.55.71,4.58,4.58,0,0,1,.38.83,5.41,5.41,0,0,1,.22.91A6.57,6.57,0,0,1,93.31,370.05Zm-.81,0a4.21,4.21,0,0,0-.85-2.69,2.86,2.86,0,0,0-2.38-1.08,2.89,2.89,0,0,0-2.36,1.05,4.15,4.15,0,0,0-.86,2.71,4.22,4.22,0,0,0,.85,2.7,3.16,3.16,0,0,0,4.74,0A4.21,4.21,0,0,0,92.5,370.05Z"/><path class="cls-3" d="M101.08,368.22a2.34,2.34,0,0,1-.7,1.8,2.55,2.55,0,0,1-1.8.64h-3v3.67h-.82v-8.57h3.86a2.53,2.53,0,0,1,1.8.65A2.33,2.33,0,0,1,101.08,368.22Zm-.81,0a1.68,1.68,0,0,0-.5-1.29,2.11,2.11,0,0,0-1.49-.46H95.55V370H98.4a2,2,0,0,0,1.35-.45A1.65,1.65,0,0,0,100.26,368.22Z"/><line class="cls-12" x1="42" y1="396" x2="130" y2="396"/><rect class="cls-2" x="190" width="171" height="600"/><path class="cls-3" d="M209.48,19.22a2.34,2.34,0,0,1-.7,1.8,2.55,2.55,0,0,1-1.8.64h-3v3.67h-.82V16.77H207a2.53,2.53,0,0,1,1.8.65A2.33,2.33,0,0,1,209.48,19.22Zm-.81,0a1.68,1.68,0,0,0-.5-1.29,2.11,2.11,0,0,0-1.49-.46h-2.74V21h2.85a2,2,0,0,0,1.35-.45A1.65,1.65,0,0,0,208.66,19.22Z"/><path class="cls-3" d="M214.65,16.61a4.19,4.19,0,0,1,1.21.17,3.47,3.47,0,0,1,1,.49A2.86,2.86,0,0,1,218,19.06h-.81a2.57,2.57,0,0,0-.34-.7,2.26,2.26,0,0,0-.55-.56,2.68,2.68,0,0,0-.75-.37,3.37,3.37,0,0,0-2.34.17,3,3,0,0,0-1,.82,3.62,3.62,0,0,0-.62,1.2,4.87,4.87,0,0,0-.21,1.44,5.18,5.18,0,0,0,.08.94,4.26,4.26,0,0,0,.26.88,3.66,3.66,0,0,0,.44.78,2.93,2.93,0,0,0,.62.62,2.86,2.86,0,0,0,.81.41,3.23,3.23,0,0,0,1,.15,2.8,2.8,0,0,0,1.06-.19,2.55,2.55,0,0,0,.82-.52,2.7,2.7,0,0,0,.56-.77,3.22,3.22,0,0,0,.29-.93h.81a4.09,4.09,0,0,1-.35,1.2,3.33,3.33,0,0,1-.71,1,3.23,3.23,0,0,1-1.06.67,3.8,3.8,0,0,1-1.42.25,4,4,0,0,1-1.7-.34,3.66,3.66,0,0,1-1.27-.94,4.19,4.19,0,0,1-.79-1.42,5.68,5.68,0,0,1,0-3.45,4.23,4.23,0,0,1,.77-1.42,3.72,3.72,0,0,1,1.27-1A4,4,0,0,1,214.65,16.61Z"/><path class="cls-3" d="M226,23.07a2.15,2.15,0,0,1-.28,1.14,2.26,2.26,0,0,1-.76.76,3.46,3.46,0,0,1-1.1.42,6.15,6.15,0,0,1-1.29.13,4.8,4.8,0,0,1-1.28-.16,3.18,3.18,0,0,1-1-.49,2.35,2.35,0,0,1-.69-.79,2.22,2.22,0,0,1-.25-1.08v-.19h.82v.06a1.87,1.87,0,0,0,.16.76,1.65,1.65,0,0,0,.48.62,2.43,2.43,0,0,0,.81.42,3.79,3.79,0,0,0,1.15.16,4,4,0,0,0,.9-.1,2.56,2.56,0,0,0,.79-.32,1.81,1.81,0,0,0,.56-.54,1.38,1.38,0,0,0,.21-.78q0-1.11-1.67-1.52l-2-.49a4,4,0,0,1-.88-.31,2.14,2.14,0,0,1-.6-.44,1.6,1.6,0,0,1-.35-.58,2.24,2.24,0,0,1-.11-.73,2.1,2.1,0,0,1,.25-1,2.34,2.34,0,0,1,.68-.76,3.07,3.07,0,0,1,1-.46,4.16,4.16,0,0,1,1.14-.16,4.34,4.34,0,0,1,1.2.16,2.9,2.9,0,0,1,1,.46,2.27,2.27,0,0,1,.64.75,2.24,2.24,0,0,1,.25,1h-.81a1.6,1.6,0,0,0-.2-.65,1.78,1.78,0,0,0-.46-.53,2.24,2.24,0,0,0-.69-.36,2.81,2.81,0,0,0-.88-.13,3.49,3.49,0,0,0-.91.11,2.16,2.16,0,0,0-.71.33,1.46,1.46,0,0,0-.46.53,1.6,1.6,0,0,0-.16.73,1.2,1.2,0,0,0,.11.52,1.13,1.13,0,0,0,.29.38,1.54,1.54,0,0,0,.43.25,4,4,0,0,0,.53.17l2,.48a3.73,3.73,0,0,1,1.76.85A1.93,1.93,0,0,1,226,23.07Z"/><path class="cls-3" d="M230.21,16.62a2.81,2.81,0,0,1,2,.66,2.28,2.28,0,0,1,.73,1.78,2.82,2.82,0,0,1-.55,1.66,7,7,0,0,1-2,1.66,8.29,8.29,0,0,0-1.66,1.23,2,2,0,0,0-.56,1h4.81v.72h-5.7a3,3,0,0,1,.56-1.74,6.61,6.61,0,0,1,1.93-1.66,8.78,8.78,0,0,0,1.89-1.48,2.11,2.11,0,0,0,.51-1.41,1.64,1.64,0,0,0-.54-1.28,2,2,0,0,0-1.4-.49,2,2,0,0,0-.86.17,1.82,1.82,0,0,0-.61.44,1.77,1.77,0,0,0-.36.62,2.2,2.2,0,0,0-.12.71v.17h-.77v-.12a2.93,2.93,0,0,1,.17-1,2.42,2.42,0,0,1,.51-.84,2.47,2.47,0,0,1,.86-.59A3.06,3.06,0,0,1,230.21,16.62Z"/><path class="cls-3" d="M237.47,16.62a2.87,2.87,0,0,1,1.32.29,2.48,2.48,0,0,1,.94.85,4.14,4.14,0,0,1,.57,1.39,8.64,8.64,0,0,1,.19,1.92,5.94,5.94,0,0,1-.77,3.35,2.82,2.82,0,0,1-4.49,0,5.89,5.89,0,0,1-.77-3.34,5.89,5.89,0,0,1,.77-3.35A2.56,2.56,0,0,1,237.47,16.62Zm-2.23,4.45q0,3.81,2.23,3.81t2.24-3.81a5.64,5.64,0,0,0-.57-2.84,1.84,1.84,0,0,0-1.68-1,1.82,1.82,0,0,0-1.65.94A5.63,5.63,0,0,0,235.23,21.06Z"/><path class="cls-3" d="M244.73,16.62a2.87,2.87,0,0,1,1.32.29,2.48,2.48,0,0,1,.94.85,4.14,4.14,0,0,1,.57,1.39,8.64,8.64,0,0,1,.19,1.92,5.94,5.94,0,0,1-.77,3.35,2.82,2.82,0,0,1-4.49,0,5.89,5.89,0,0,1-.77-3.34,5.89,5.89,0,0,1,.77-3.35A2.56,2.56,0,0,1,244.73,16.62Zm-2.23,4.45q0,3.81,2.23,3.81T247,21.06a5.64,5.64,0,0,0-.57-2.84,1.84,1.84,0,0,0-1.68-1,1.82,1.82,0,0,0-1.65.94A5.63,5.63,0,0,0,242.5,21.06Z"/><path class="cls-4" d="M320,12h1.91l2.31,7H320Zm-.58,7V12H317.8l-2.31,7Zm0,.58h-4.13L313,26h3.43l1-2.92h2Zm5,0H320v3.5h2.32l1,2.92h3.43Zm7.85,0V26h.91a4,4,0,0,0,4.12-4,3.64,3.64,0,0,0-.82-2.39ZM331.68,12H327.6v7h4.08Zm.58,7H336a2.16,2.16,0,0,0-1.28-.88,3.37,3.37,0,0,0,1.57-2.86A3.24,3.24,0,0,0,333.18,12h-.91Zm-.58.58H327.6V26h4.08Zm11.08,0V26h1.12A4,4,0,0,0,348,22a3.63,3.63,0,0,0-.83-2.39ZM342.18,12h-3.5v7h3.5Zm.58,7h3.92a2.16,2.16,0,0,0-1.28-.88A3.37,3.37,0,0,0,347,15.26,3.24,3.24,0,0,0,343.88,12h-1.12Zm-.58.58h-3.5V26h3.5Z"/><rect class="cls-2" x="191.51" y="56" width="168" height="144"/><path class="cls-3" d="M205.62,69.86l3.4,5.3h0v-5.3h1.19V77H209l-3.4-5.3h0V77h-1.19V69.86Z"/><path class="cls-3" d="M216.62,77,216,75.18h-3L212.42,77h-1.27l2.57-7.13h1.69L217.92,77Zm-2.07-6.21h0l-1.17,3.44h2.33Z"/><path class="cls-3" d="M224.39,72.06a2.12,2.12,0,0,1-.62,1.6,2.1,2.1,0,0,1-.73.45,2.77,2.77,0,0,1-.95.15h-2V77h-1.25V69.86h3.25a2.33,2.33,0,0,1,1.67.6A2.09,2.09,0,0,1,224.39,72.06Zm-1.22,0a1.14,1.14,0,0,0-.35-.91,1.64,1.64,0,0,0-1.09-.3h-1.64v2.42h1.67a2.34,2.34,0,0,0,.6-.07,1.07,1.07,0,0,0,.81-1.14Z"/><path class="cls-3" d="M226.87,69.86V77h-1.25V69.86Z"/><path class="cls-3" d="M233.78,69.87v1.05h-3.94v1.9h3.64v1h-3.64V76h4v1h-5.25V69.87Z"/><path class="cls-3" d="M240.85,71.79a1.91,1.91,0,0,1-.42,1.28,1.48,1.48,0,0,1-.35.31,2,2,0,0,1-.46.21v0a1.39,1.39,0,0,1,.49.21,1.18,1.18,0,0,1,.33.35,1.63,1.63,0,0,1,.21.52,4.43,4.43,0,0,1,.08.57c0,.2,0,.4,0,.61a4,4,0,0,0,.08.62,1.37,1.37,0,0,0,.2.52h-1.27a3.66,3.66,0,0,1-.19-1.12,2.67,2.67,0,0,0-.38-1.47,1.13,1.13,0,0,0-.88-.34h-2V77h-1.25V69.86h3.68a2.14,2.14,0,0,1,1.48.53A1.8,1.8,0,0,1,240.85,71.79Zm-1.25.2a1.09,1.09,0,0,0-.32-.86,1.3,1.3,0,0,0-.89-.28h-2.05v2.29h2.05a1.27,1.27,0,0,0,.85-.27A1.08,1.08,0,0,0,239.6,72Z"/><path class="cls-5" d="M274.75,160v-6.43h-2.29V153q.53,0,.9-.06a2.36,2.36,0,0,0,.57-.13,1.3,1.3,0,0,0,.64-.52,2.46,2.46,0,0,0,.31-1h.63V160Z"/><path class="cls-5" d="M281.94,151.28a2.87,2.87,0,0,1,1.32.29,2.48,2.48,0,0,1,.94.85,4.14,4.14,0,0,1,.57,1.39,8.64,8.64,0,0,1,.19,1.92,5.94,5.94,0,0,1-.77,3.35,2.82,2.82,0,0,1-4.49,0,7.62,7.62,0,0,1,0-6.69A2.56,2.56,0,0,1,281.94,151.28Zm-2.23,4.45q0,3.81,2.23,3.81t2.24-3.81a5.64,5.64,0,0,0-.57-2.84,1.84,1.84,0,0,0-1.68-1,1.82,1.82,0,0,0-1.65.94A5.63,5.63,0,0,0,279.71,155.72Z"/><path class="cls-5" d="M288,158.73V160h-1.11v-1.27Z"/><path class="cls-5" d="M292.9,151.28a2.81,2.81,0,0,1,2,.66,2.28,2.28,0,0,1,.73,1.78,2.82,2.82,0,0,1-.55,1.66,7,7,0,0,1-2,1.66,8.29,8.29,0,0,0-1.66,1.23,2,2,0,0,0-.56,1h4.81V160h-5.7a3,3,0,0,1,.56-1.74,6.61,6.61,0,0,1,1.93-1.66,8.78,8.78,0,0,0,1.89-1.48,2.11,2.11,0,0,0,.51-1.41,1.64,1.64,0,0,0-.54-1.28,2,2,0,0,0-1.4-.49,2,2,0,0,0-.86.17,1.82,1.82,0,0,0-.61.44,1.77,1.77,0,0,0-.36.62,2.2,2.2,0,0,0-.12.71V154h-.77v-.12a2.93,2.93,0,0,1,.17-1,2.42,2.42,0,0,1,.51-.84,2.47,2.47,0,0,1,.86-.59A3.06,3.06,0,0,1,292.9,151.28Z"/><path class="cls-5" d="M300.23,160v-6.43h-2.29V153q.53,0,.9-.06a2.36,2.36,0,0,0,.57-.13,1.3,1.3,0,0,0,.64-.52,2.46,2.46,0,0,0,.31-1H301V160Z"/><path class="cls-5" d="M306.2,158.73V160h-1.11v-1.27Z"/><path class="cls-5" d="M311,151.28a3.57,3.57,0,0,1,1,.13,2.67,2.67,0,0,1,.85.41,2.08,2.08,0,0,1,.6.69,2,2,0,0,1,.23,1,2.22,2.22,0,0,1-.1.66,1.82,1.82,0,0,1-.28.56,1.77,1.77,0,0,1-.45.42,2.14,2.14,0,0,1-.62.27v0a2.06,2.06,0,0,1,1.33.74,2.21,2.21,0,0,1,.45,1.39,2.41,2.41,0,0,1-.84,1.91,2.78,2.78,0,0,1-1,.55,3.78,3.78,0,0,1-1.21.18,3.66,3.66,0,0,1-1.12-.17,2.8,2.8,0,0,1-.92-.49,2.34,2.34,0,0,1-.63-.78,2.28,2.28,0,0,1-.23-1v-.18h.79v.16a1.74,1.74,0,0,0,.56,1.28,2,2,0,0,0,.66.4,2.45,2.45,0,0,0,.88.15,2.7,2.7,0,0,0,.91-.13,2.21,2.21,0,0,0,.69-.4,1.7,1.7,0,0,0,.64-1.38,1.89,1.89,0,0,0-.14-.75,1.64,1.64,0,0,0-.42-.58,2.22,2.22,0,0,0-1.53-.5h-.64v-.66h.69a1.86,1.86,0,0,0,1.21-.42,1.42,1.42,0,0,0,.52-1.15,1.59,1.59,0,0,0-.15-.71,1.48,1.48,0,0,0-.4-.51,1.73,1.73,0,0,0-.6-.31,2.56,2.56,0,0,0-.73-.1,2.1,2.1,0,0,0-.81.15,1.8,1.8,0,0,0-.61.41,1.82,1.82,0,0,0-.39.6,2,2,0,0,0-.13.73h-.78a2.44,2.44,0,0,1,.18-.92,2.53,2.53,0,0,1,.53-.82,2.7,2.7,0,0,1,.86-.59A2.82,2.82,0,0,1,311,151.28Z"/><path class="cls-5" d="M318.63,151.28a3.17,3.17,0,0,1,.94.13,2.34,2.34,0,0,1,.75.38,2.14,2.14,0,0,1,.54.62,2.49,2.49,0,0,1,.3.83h-.78a1.7,1.7,0,0,0-.19-.51,1.45,1.45,0,0,0-.35-.42,1.67,1.67,0,0,0-.52-.28,2.16,2.16,0,0,0-.69-.1,2,2,0,0,0-1,.25,2.1,2.1,0,0,0-.75.75,3.82,3.82,0,0,0-.45,1.21,8,8,0,0,0-.15,1.65h0a2.58,2.58,0,0,1,2.31-1.44,2.74,2.74,0,0,1,2.05.81,2.83,2.83,0,0,1,.8,2.08,2.84,2.84,0,0,1-2.94,2.94,3.09,3.09,0,0,1-1.41-.29,2.31,2.31,0,0,1-.93-.84,4.2,4.2,0,0,1-.52-1.39,10.4,10.4,0,0,1-.17-2.05,8.43,8.43,0,0,1,.07-1.06,5.56,5.56,0,0,1,.22-1,4.46,4.46,0,0,1,.4-.89,2.83,2.83,0,0,1,.6-.72,2.66,2.66,0,0,1,.82-.48A3.07,3.07,0,0,1,318.63,151.28Zm-2.23,6a2.25,2.25,0,0,0,.57,1.63,2.11,2.11,0,0,0,1.59.59,1.91,1.91,0,0,0,1.49-.66,2.26,2.26,0,0,0,.59-1.56,2.4,2.4,0,0,0-.57-1.64,1.93,1.93,0,0,0-1.52-.65,2,2,0,0,0-1.54.63A2.3,2.3,0,0,0,316.4,157.31Z"/><path class="cls-5" d="M324.42,158.73V160h-1.11v-1.27Z"/><path class="cls-5" d="M329.4,160v-6.43h-2.29V153q.53,0,.9-.06a2.36,2.36,0,0,0,.57-.13,1.3,1.3,0,0,0,.64-.52,2.46,2.46,0,0,0,.31-1h.63V160Z"/><path class="cls-5" d="M338.26,157.85V160h-.71v-2.15h-4v-.75l4-5.75h.7v5.85h1.3v.66Zm-.71-5.36h0l-3.27,4.71h3.29Z"/><path class="cls-5" d="M343.93,160v-6.43h-2.29V153q.53,0,.9-.06a2.36,2.36,0,0,0,.57-.13,1.3,1.3,0,0,0,.64-.52,2.46,2.46,0,0,0,.31-1h.63V160Z"/><path class="cls-5" d="M274.75,177v-6.43h-2.29V170q.53,0,.9-.06a2.36,2.36,0,0,0,.57-.13,1.3,1.3,0,0,0,.64-.52,2.46,2.46,0,0,0,.31-1h.63V177Z"/><path class="cls-5" d="M281.94,168.28a2.87,2.87,0,0,1,1.32.29,2.48,2.48,0,0,1,.94.85,4.14,4.14,0,0,1,.57,1.39,8.64,8.64,0,0,1,.19,1.92,5.94,5.94,0,0,1-.77,3.35,2.82,2.82,0,0,1-4.49,0,7.62,7.62,0,0,1,0-6.69A2.56,2.56,0,0,1,281.94,168.28Zm-2.23,4.45q0,3.81,2.23,3.81t2.24-3.81a5.64,5.64,0,0,0-.57-2.84,1.84,1.84,0,0,0-1.68-1,1.82,1.82,0,0,0-1.65.94A5.63,5.63,0,0,0,279.71,172.73Z"/><path class="cls-5" d="M288,175.73V177h-1.11v-1.27Z"/><path class="cls-5" d="M292.9,168.28a2.81,2.81,0,0,1,2,.66,2.28,2.28,0,0,1,.73,1.78,2.82,2.82,0,0,1-.55,1.66,7,7,0,0,1-2,1.66,8.29,8.29,0,0,0-1.66,1.23,2,2,0,0,0-.56,1h4.81V177h-5.7a3,3,0,0,1,.56-1.74,6.61,6.61,0,0,1,1.93-1.66,8.78,8.78,0,0,0,1.89-1.48,2.11,2.11,0,0,0,.51-1.41,1.64,1.64,0,0,0-.54-1.28,2,2,0,0,0-1.4-.49,2,2,0,0,0-.86.17,1.82,1.82,0,0,0-.61.44,1.77,1.77,0,0,0-.36.62,2.2,2.2,0,0,0-.12.71V171h-.77v-.12a2.93,2.93,0,0,1,.17-1,2.42,2.42,0,0,1,.51-.84,2.47,2.47,0,0,1,.86-.59A3.06,3.06,0,0,1,292.9,168.28Z"/><path class="cls-5" d="M300.23,177v-6.43h-2.29V170q.53,0,.9-.06a2.36,2.36,0,0,0,.57-.13,1.3,1.3,0,0,0,.64-.52,2.46,2.46,0,0,0,.31-1H301V177Z"/><path class="cls-5" d="M306.2,175.73V177h-1.11v-1.27Z"/><path class="cls-5" d="M311,168.28a3.57,3.57,0,0,1,1,.13,2.67,2.67,0,0,1,.85.41,2.08,2.08,0,0,1,.6.69,2,2,0,0,1,.23,1,2.22,2.22,0,0,1-.1.66,1.82,1.82,0,0,1-.28.56,1.77,1.77,0,0,1-.45.42,2.14,2.14,0,0,1-.62.27v0a2.06,2.06,0,0,1,1.33.74,2.21,2.21,0,0,1,.45,1.39,2.41,2.41,0,0,1-.84,1.91,2.78,2.78,0,0,1-1,.55,3.78,3.78,0,0,1-1.21.18,3.66,3.66,0,0,1-1.12-.17,2.8,2.8,0,0,1-.92-.49,2.34,2.34,0,0,1-.63-.78,2.28,2.28,0,0,1-.23-1v-.18h.79v.16a1.74,1.74,0,0,0,.56,1.28,2,2,0,0,0,.66.4,2.45,2.45,0,0,0,.88.15,2.7,2.7,0,0,0,.91-.13,2.21,2.21,0,0,0,.69-.4,1.7,1.7,0,0,0,.64-1.38,1.89,1.89,0,0,0-.14-.75,1.64,1.64,0,0,0-.42-.58,2.22,2.22,0,0,0-1.53-.5h-.64v-.66h.69a1.86,1.86,0,0,0,1.21-.42,1.42,1.42,0,0,0,.52-1.15,1.59,1.59,0,0,0-.15-.71,1.48,1.48,0,0,0-.4-.51,1.73,1.73,0,0,0-.6-.31,2.56,2.56,0,0,0-.73-.1,2.1,2.1,0,0,0-.81.15,1.8,1.8,0,0,0-.61.41,1.82,1.82,0,0,0-.39.6,2,2,0,0,0-.13.73h-.78a2.44,2.44,0,0,1,.18-.92,2.53,2.53,0,0,1,.53-.82,2.7,2.7,0,0,1,.86-.59A2.82,2.82,0,0,1,311,168.28Z"/><path class="cls-5" d="M318.63,168.28a3.17,3.17,0,0,1,.94.13,2.34,2.34,0,0,1,.75.38,2.14,2.14,0,0,1,.54.62,2.49,2.49,0,0,1,.3.83h-.78a1.7,1.7,0,0,0-.19-.51,1.45,1.45,0,0,0-.35-.42,1.67,1.67,0,0,0-.52-.28,2.16,2.16,0,0,0-.69-.1,2,2,0,0,0-1,.25,2.1,2.1,0,0,0-.75.75,3.82,3.82,0,0,0-.45,1.21,8,8,0,0,0-.15,1.65h0a2.58,2.58,0,0,1,2.31-1.44,2.74,2.74,0,0,1,2.05.81,2.83,2.83,0,0,1,.8,2.08,2.84,2.84,0,0,1-2.94,2.94,3.09,3.09,0,0,1-1.41-.29,2.31,2.31,0,0,1-.93-.84,4.2,4.2,0,0,1-.52-1.39,10.4,10.4,0,0,1-.17-2.05,8.43,8.43,0,0,1,.07-1.06,5.56,5.56,0,0,1,.22-1,4.46,4.46,0,0,1,.4-.89,2.83,2.83,0,0,1,.6-.72,2.66,2.66,0,0,1,.82-.48A3.07,3.07,0,0,1,318.63,168.28Zm-2.23,6A2.25,2.25,0,0,0,317,176a2.11,2.11,0,0,0,1.59.59,1.91,1.91,0,0,0,1.49-.66,2.26,2.26,0,0,0,.59-1.56,2.4,2.4,0,0,0-.57-1.64,1.93,1.93,0,0,0-1.52-.65,2,2,0,0,0-1.54.63A2.3,2.3,0,0,0,316.4,174.32Z"/><path class="cls-5" d="M324.42,175.73V177h-1.11v-1.27Z"/><path class="cls-5" d="M329.4,177v-6.43h-2.29V170q.53,0,.9-.06a2.36,2.36,0,0,0,.57-.13,1.3,1.3,0,0,0,.64-.52,2.46,2.46,0,0,0,.31-1h.63V177Z"/><path class="cls-5" d="M338.26,174.85V177h-.71v-2.15h-4v-.75l4-5.75h.7v5.85h1.3v.66Zm-.71-5.36h0l-3.27,4.71h3.29Z"/><path class="cls-5" d="M343.87,168.28a2.81,2.81,0,0,1,2,.66,2.28,2.28,0,0,1,.73,1.78,2.82,2.82,0,0,1-.55,1.66,7,7,0,0,1-2,1.66,8.29,8.29,0,0,0-1.66,1.23,2,2,0,0,0-.56,1h4.81V177h-5.7a3,3,0,0,1,.56-1.74,6.61,6.61,0,0,1,1.93-1.66,8.78,8.78,0,0,0,1.89-1.48,2.11,2.11,0,0,0,.51-1.41,1.64,1.64,0,0,0-.54-1.28,2,2,0,0,0-1.4-.49,2,2,0,0,0-.86.17,1.82,1.82,0,0,0-.61.44,1.77,1.77,0,0,0-.36.62,2.2,2.2,0,0,0-.12.71V171h-.77v-.12a2.93,2.93,0,0,1,.17-1,2.42,2.42,0,0,1,.51-.84,2.47,2.47,0,0,1,.86-.59A3.06,3.06,0,0,1,343.87,168.28Z"/><path class="cls-5" d="M207.17,153.25a2.71,2.71,0,0,1,1.3.29,2.6,2.6,0,0,1,.9.79,3.45,3.45,0,0,1,.52,1.13,5.21,5.21,0,0,1,.17,1.34v.13H205a3.58,3.58,0,0,0,.13.94,2.59,2.59,0,0,0,.39.83,2,2,0,0,0,.66.59,1.92,1.92,0,0,0,.95.22,2.44,2.44,0,0,0,.7-.09,2,2,0,0,0,.56-.26,1.76,1.76,0,0,0,.42-.39,2.41,2.41,0,0,0,.29-.49h.79a3,3,0,0,1-.38.79,2.48,2.48,0,0,1-.59.6,2.68,2.68,0,0,1-.79.39,3.34,3.34,0,0,1-1,.14,2.94,2.94,0,0,1-1.3-.27,2.56,2.56,0,0,1-.91-.73,3.12,3.12,0,0,1-.54-1.1,5.14,5.14,0,0,1-.18-1.37,4.66,4.66,0,0,1,.18-1.28,3.36,3.36,0,0,1,.54-1.11,2.74,2.74,0,0,1,.92-.78A2.79,2.79,0,0,1,207.17,153.25Zm2.09,3a3,3,0,0,0-.16-.85,2.44,2.44,0,0,0-.41-.75,2.07,2.07,0,0,0-.65-.54,1.84,1.84,0,0,0-.88-.21,1.84,1.84,0,0,0-1.5.7,2.7,2.7,0,0,0-.42.75,4.31,4.31,0,0,0-.23.9Z"/><path class="cls-5" d="M214.38,160.06h-.66A3,3,0,0,1,213,160a1,1,0,0,1-.45-.23.89.89,0,0,1-.25-.43,2.65,2.65,0,0,1-.07-.68v-4.56H211v-.67h1.32v-2h.8v2h1.5v.67h-1.5v4.48a1.76,1.76,0,0,0,0,.34.64.64,0,0,0,.11.25.5.5,0,0,0,.21.16.87.87,0,0,0,.35.06h.6l.21,0V160Z"/><path class="cls-5" d="M220.85,160v-4.15a2.2,2.2,0,0,0-.41-1.44,1.54,1.54,0,0,0-1.25-.49,2,2,0,0,0-.87.18,1.91,1.91,0,0,0-.65.48,2.14,2.14,0,0,0-.4.71,2.66,2.66,0,0,0-.14.87V160h-.8v-9.08h.8v3.66h0a1.89,1.89,0,0,1,.34-.56,2.12,2.12,0,0,1,.5-.42,2.43,2.43,0,0,1,.61-.26,2.46,2.46,0,0,1,.67-.09,3.35,3.35,0,0,1,1.08.16,1.83,1.83,0,0,1,.74.46,1.87,1.87,0,0,1,.43.77,3.79,3.79,0,0,1,.14,1.08V160Z"/><path class="cls-5" d="M204.68,170.44l1.68,5.62h0l1.6-5.62h.9l1.61,5.62h0l1.68-5.62H213L210.93,177h-.87l-1.61-5.52h0l-1.6,5.52h-.88l-2.11-6.56Z"/><path class="cls-5" d="M215.3,167.57v1.29h-.8v-1.29Zm0,2.87V177h-.8v-6.56Z"/><path class="cls-5" d="M220.13,173.17v.7h-3v-.7Z"/><path class="cls-5" d="M223.25,171.12V177h-.8v-5.89h-1.3v-.67h1.3v-.62a2.15,2.15,0,0,1,.4-1.48,1.23,1.23,0,0,1,.52-.32,2.39,2.39,0,0,1,.74-.11h.46l.3,0v.69l-.17,0-.2,0h-.31a.83.83,0,0,0-1,1v.88h1.47v.67Zm3.43-3.54v1.29h-.8v-1.29Zm0,2.87V177h-.8v-6.56Z"/><path class="cls-3" d="M204.61,108.56l1.94,7.5h0l2.09-7.5h1l2.1,7.5h0l2-7.5h.81l-2.36,8.57h-.87l-2.17-7.67h0L207,117.13h-.88l-2.38-8.57Z"/><path class="cls-3" d="M218.23,110.38a2.71,2.71,0,0,1,1.3.29,2.6,2.6,0,0,1,.9.79,3.45,3.45,0,0,1,.52,1.13,5.21,5.21,0,0,1,.17,1.34v.13h-5.05a3.58,3.58,0,0,0,.13.94,2.59,2.59,0,0,0,.39.83,2,2,0,0,0,.66.59,1.92,1.92,0,0,0,.95.22,2.44,2.44,0,0,0,.7-.09,2,2,0,0,0,.56-.26,1.76,1.76,0,0,0,.42-.39,2.41,2.41,0,0,0,.29-.49h.79a3,3,0,0,1-.38.79,2.48,2.48,0,0,1-.59.6,2.68,2.68,0,0,1-.79.39,3.34,3.34,0,0,1-1,.14,2.94,2.94,0,0,1-1.3-.27,2.56,2.56,0,0,1-.91-.73,3.12,3.12,0,0,1-.54-1.1,5.14,5.14,0,0,1-.18-1.37,4.66,4.66,0,0,1,.18-1.28,3.36,3.36,0,0,1,.54-1.11,2.74,2.74,0,0,1,.92-.78A2.79,2.79,0,0,1,218.23,110.38Zm2.09,3a3,3,0,0,0-.16-.85,2.44,2.44,0,0,0-.41-.75,2.07,2.07,0,0,0-.65-.54,1.84,1.84,0,0,0-.88-.21,1.84,1.84,0,0,0-1.5.7,2.7,2.7,0,0,0-.42.75,4.31,4.31,0,0,0-.23.9Z"/><path class="cls-3" d="M228.25,108v9.08h-.74v-1.25h0a2,2,0,0,1-.39.59,2.57,2.57,0,0,1-.56.45,2.8,2.8,0,0,1-.67.29,2.63,2.63,0,0,1-.72.1,2.8,2.8,0,0,1-1.28-.28,2.68,2.68,0,0,1-.92-.75,3.32,3.32,0,0,1-.56-1.11,4.68,4.68,0,0,1-.19-1.34,4.83,4.83,0,0,1,.17-1.29,3.31,3.31,0,0,1,.53-1.11,2.69,2.69,0,0,1,.92-.78,3,3,0,0,1,2-.2,2.56,2.56,0,0,1,.65.27,2.25,2.25,0,0,1,.54.45,2.07,2.07,0,0,1,.38.63h0V108Zm-5.26,5.8a4.17,4.17,0,0,0,.05.65,3.7,3.7,0,0,0,.16.64,2.82,2.82,0,0,0,.28.58,2.15,2.15,0,0,0,.41.48,1.8,1.8,0,0,0,.55.32,2,2,0,0,0,.7.12,2.08,2.08,0,0,0,1.73-.84,2.66,2.66,0,0,0,.43-.89,4,4,0,0,0,.14-1.06,4,4,0,0,0-.13-1,2.73,2.73,0,0,0-.41-.9,2.06,2.06,0,0,0-1.76-.88,1.94,1.94,0,0,0-.68.11,1.8,1.8,0,0,0-.54.31,2.15,2.15,0,0,0-.41.47,2.8,2.8,0,0,0-.29.58,3.52,3.52,0,0,0-.17.65A4.25,4.25,0,0,0,223,113.84Z"/><path class="cls-3" d="M236,117.13V110.7h-2.29v-.56q.53,0,.9-.06a2.36,2.36,0,0,0,.57-.13,1.3,1.3,0,0,0,.64-.52,2.46,2.46,0,0,0,.31-1h.63v8.65Z"/><path class="cls-3" d="M243,117.13V110.7H240.7v-.56q.53,0,.9-.06a2.36,2.36,0,0,0,.57-.13,1.3,1.3,0,0,0,.64-.52,2.46,2.46,0,0,0,.31-1h.63v8.65Z"/><path class="cls-3" d="M248.68,110.81v1.27h-1.11v-1.27Zm0,5v1.27h-1.11v-1.27Z"/><path class="cls-3" d="M255,115v2.15h-.71V115h-4v-.75l4-5.75h.7v5.85h1.3V115Zm-.71-5.36h0L251,114.32h3.29Z"/><path class="cls-3" d="M260.09,117.31a3.17,3.17,0,0,1-.94-.13,2.34,2.34,0,0,1-.75-.38,2.14,2.14,0,0,1-.54-.62,2.49,2.49,0,0,1-.3-.83h.78a1.7,1.7,0,0,0,.19.51,1.45,1.45,0,0,0,.35.42,1.67,1.67,0,0,0,.52.28,2.16,2.16,0,0,0,.69.1,2,2,0,0,0,1-.25,2.1,2.1,0,0,0,.75-.75,3.82,3.82,0,0,0,.45-1.21,8,8,0,0,0,.15-1.65h0a2.58,2.58,0,0,1-2.31,1.44,2.74,2.74,0,0,1-2.05-.81,2.83,2.83,0,0,1-.8-2.08,2.84,2.84,0,0,1,2.94-2.94,3.09,3.09,0,0,1,1.41.29,2.31,2.31,0,0,1,.93.84,4.2,4.2,0,0,1,.52,1.39,10.4,10.4,0,0,1,.17,2.05,8.43,8.43,0,0,1-.07,1.06,5.56,5.56,0,0,1-.22,1,4.46,4.46,0,0,1-.4.89,2.83,2.83,0,0,1-.6.72,2.66,2.66,0,0,1-.82.48A3.07,3.07,0,0,1,260.09,117.31Zm2.23-6a2.25,2.25,0,0,0-.57-1.63,2.11,2.11,0,0,0-1.59-.59,1.91,1.91,0,0,0-1.49.66,2.26,2.26,0,0,0-.59,1.56,2.4,2.4,0,0,0,.57,1.64,1.92,1.92,0,0,0,1.52.65,2,2,0,0,0,1.54-.63A2.29,2.29,0,0,0,262.33,111.28Z"/><path class="cls-3" d="M207.14,122.8a2.81,2.81,0,0,1,2,.66,2.28,2.28,0,0,1,.73,1.78,2.82,2.82,0,0,1-.55,1.66,7,7,0,0,1-2,1.66,8.29,8.29,0,0,0-1.66,1.23,2,2,0,0,0-.56,1h4.81v.72h-5.7a3,3,0,0,1,.56-1.74,6.61,6.61,0,0,1,1.93-1.66,8.78,8.78,0,0,0,1.89-1.48,2.11,2.11,0,0,0,.51-1.41,1.64,1.64,0,0,0-.54-1.28,2,2,0,0,0-1.4-.49,2,2,0,0,0-.86.17,1.82,1.82,0,0,0-.61.44,1.77,1.77,0,0,0-.36.62,2.21,2.21,0,0,0-.12.71v.17h-.77v-.12a2.93,2.93,0,0,1,.17-1,2.42,2.42,0,0,1,.51-.84,2.47,2.47,0,0,1,.86-.59A3.06,3.06,0,0,1,207.14,122.8Z"/><path class="cls-3" d="M216.83,123v.72h-3.78l-.54,2.78,0,0a2.32,2.32,0,0,1,.82-.52,2.79,2.79,0,0,1,1-.18,3.18,3.18,0,0,1,1.2.22,2.6,2.6,0,0,1,.92.61,2.73,2.73,0,0,1,.59.94,3.43,3.43,0,0,1,.21,1.22,2.81,2.81,0,0,1-.23,1.14,2.94,2.94,0,0,1-1.61,1.56,3.12,3.12,0,0,1-1.2.23,3.29,3.29,0,0,1-1.1-.17,2.58,2.58,0,0,1-.85-.48,2.26,2.26,0,0,1-.56-.74,2.52,2.52,0,0,1-.23-1h.79a1.84,1.84,0,0,0,.16.64,1.65,1.65,0,0,0,.4.54,2,2,0,0,0,.62.37,2.29,2.29,0,0,0,.83.14,2.06,2.06,0,0,0,.87-.19,2.14,2.14,0,0,0,.7-.5,2.4,2.4,0,0,0,.46-.75,2.49,2.49,0,0,0,.17-.92,2.41,2.41,0,0,0-.16-.87,2.12,2.12,0,0,0-1.14-1.2,2.2,2.2,0,0,0-.91-.18,2.55,2.55,0,0,0-1.07.22,2.22,2.22,0,0,0-.85.68h-.66l.81-4.38Z"/><path class="cls-3" d="M230.89,131.53v-4.46a1.73,1.73,0,0,0-.37-1.22,1.85,1.85,0,0,0-2.5.21,2.8,2.8,0,0,0-.45,1.71v3.77h-.81V127a1.81,1.81,0,0,0-.34-1.17,1.25,1.25,0,0,0-1-.42,1.72,1.72,0,0,0-1.46.65,2.72,2.72,0,0,0-.5,1.71v3.72h-.8V125h.74v1.1h0a2.26,2.26,0,0,1,2.15-1.29,2.44,2.44,0,0,1,.64.08,1.86,1.86,0,0,1,.54.24,1.66,1.66,0,0,1,.42.4,1.87,1.87,0,0,1,.28.55,2.16,2.16,0,0,1,.85-1,2.4,2.4,0,0,1,1.24-.32,2.12,2.12,0,0,1,1.63.58,2.36,2.36,0,0,1,.54,1.66v4.51Z"/><path class="cls-3" d="M239.55,131.48l-.27,0H239a1.37,1.37,0,0,1-.44-.06.65.65,0,0,1-.29-.2.82.82,0,0,1-.16-.36,2.42,2.42,0,0,1,0-.53h0a3,3,0,0,1-1,1,2.79,2.79,0,0,1-1.35.29,2.46,2.46,0,0,1-1.6-.5,1.75,1.75,0,0,1-.6-1.43,1.66,1.66,0,0,1,.66-1.43,6.79,6.79,0,0,1,3-.69,2,2,0,0,0,.44-.08.75.75,0,0,0,.29-.16.59.59,0,0,0,.16-.26,1.28,1.28,0,0,0,0-.38,1.25,1.25,0,0,0-.4-1,2,2,0,0,0-1.31-.34,2.61,2.61,0,0,0-.72.09,1.65,1.65,0,0,0-.53.25,1.13,1.13,0,0,0-.33.39,1.23,1.23,0,0,0-.13.49h-.8a2,2,0,0,1,.22-.78,1.77,1.77,0,0,1,.51-.59,2.43,2.43,0,0,1,.81-.38,4,4,0,0,1,1.09-.13,2.64,2.64,0,0,1,1.83.54,2,2,0,0,1,.59,1.52v3.56a.47.47,0,0,0,.11.33.46.46,0,0,0,.36.12.7.7,0,0,0,.25,0ZM238,127.93h0q-.12.22-.77.31l-.67.1-.74.12a2.67,2.67,0,0,0-1.17.44,1,1,0,0,0-.39.84,1.16,1.16,0,0,0,.43.94,1.6,1.6,0,0,0,1,.35,2.36,2.36,0,0,0,1.63-.58A1.85,1.85,0,0,0,238,129Z"/><path class="cls-3" d="M241,131.53V125h.74v1.54h0a2.56,2.56,0,0,1,.9-1.2,2.32,2.32,0,0,1,1.38-.43h.29v.8h-.18a2.22,2.22,0,0,0-1.71.69,2.36,2.36,0,0,0-.64,1.69v3.48Z"/><path class="cls-3" d="M251.65,122.8a2.81,2.81,0,0,1,2,.66,2.28,2.28,0,0,1,.73,1.78,2.82,2.82,0,0,1-.55,1.66,7,7,0,0,1-2,1.66,8.29,8.29,0,0,0-1.66,1.23,2,2,0,0,0-.56,1h4.81v.72h-5.7a3,3,0,0,1,.56-1.74,6.61,6.61,0,0,1,1.93-1.66,8.78,8.78,0,0,0,1.89-1.48,2.11,2.11,0,0,0,.51-1.41,1.64,1.64,0,0,0-.54-1.28,2,2,0,0,0-1.4-.49,2,2,0,0,0-.86.17,1.82,1.82,0,0,0-.61.44,1.77,1.77,0,0,0-.36.62,2.21,2.21,0,0,0-.12.71v.17h-.77v-.12a2.93,2.93,0,0,1,.17-1,2.42,2.42,0,0,1,.51-.84,2.47,2.47,0,0,1,.86-.59A3.06,3.06,0,0,1,251.65,122.8Z"/><path class="cls-3" d="M258.91,122.8a2.87,2.87,0,0,1,1.32.29,2.48,2.48,0,0,1,.94.85,4.14,4.14,0,0,1,.57,1.39,8.64,8.64,0,0,1,.19,1.92,5.94,5.94,0,0,1-.77,3.35,2.82,2.82,0,0,1-4.49,0,7.62,7.62,0,0,1,0-6.69A2.56,2.56,0,0,1,258.91,122.8Zm-2.23,4.45q0,3.81,2.23,3.81t2.24-3.81a5.65,5.65,0,0,0-.57-2.84,1.94,1.94,0,0,0-3.33,0A5.63,5.63,0,0,0,256.68,127.25Z"/><path class="cls-3" d="M266.25,131.53V125.1H264v-.56c.36,0,.66,0,.9-.06a2.36,2.36,0,0,0,.57-.12,1.31,1.31,0,0,0,.64-.52,2.46,2.46,0,0,0,.31-1H267v8.65Z"/><path class="cls-3" d="M275.88,123v.72H272.1l-.54,2.78,0,0a2.32,2.32,0,0,1,.82-.52,2.79,2.79,0,0,1,1-.18,3.18,3.18,0,0,1,1.2.22,2.6,2.6,0,0,1,.92.61,2.73,2.73,0,0,1,.59.94,3.43,3.43,0,0,1,.21,1.22,2.81,2.81,0,0,1-.23,1.14,2.94,2.94,0,0,1-1.61,1.56,3.12,3.12,0,0,1-1.2.23,3.29,3.29,0,0,1-1.1-.17,2.58,2.58,0,0,1-.85-.48,2.26,2.26,0,0,1-.56-.74,2.52,2.52,0,0,1-.23-1h.79a1.84,1.84,0,0,0,.16.64,1.65,1.65,0,0,0,.4.54,2,2,0,0,0,.62.37,2.29,2.29,0,0,0,.83.14,2.06,2.06,0,0,0,.87-.19,2.14,2.14,0,0,0,.7-.5,2.4,2.4,0,0,0,.46-.75,2.49,2.49,0,0,0,.17-.92,2.41,2.41,0,0,0-.16-.87,2.12,2.12,0,0,0-1.14-1.2,2.2,2.2,0,0,0-.91-.18,2.55,2.55,0,0,0-1.07.22,2.22,2.22,0,0,0-.85.68h-.66l.81-4.38Z"/><rect class="cls-2" x="191.5" y="528.5" width="168" height="57"/><path class="cls-3" d="M251.64,551.76v.7h-5.09v3.09h4.77v.69h-4.77v3.38h5.14v.7h-6v-8.55Z"/><path class="cls-3" d="M256.11,553.56a3.35,3.35,0,0,1,1.08.16,1.83,1.83,0,0,1,.74.46,1.87,1.87,0,0,1,.43.77,3.79,3.79,0,0,1,.14,1.08v4.28h-.8v-4.15a2.2,2.2,0,0,0-.41-1.44,1.54,1.54,0,0,0-1.25-.49,2.07,2.07,0,0,0-.86.17,1.88,1.88,0,0,0-.65.48,2.16,2.16,0,0,0-.41.71,2.63,2.63,0,0,0-.14.88v3.84h-.8v-6.56h.8v1.14h0a2,2,0,0,1,.35-.56,2.18,2.18,0,0,1,.49-.42,2.33,2.33,0,0,1,.6-.26A2.48,2.48,0,0,1,256.11,553.56Z"/><path class="cls-3" d="M263.25,553.56a2.29,2.29,0,0,1,.64.09,2.31,2.31,0,0,1,1.08.68,2.26,2.26,0,0,1,.37.56h0v-1.14h.8v6.1a3.27,3.27,0,0,1-.73,2.3,2.88,2.88,0,0,1-2.21.79,4.54,4.54,0,0,1-.93-.09,2.71,2.71,0,0,1-.81-.3,1.88,1.88,0,0,1-.6-.55,1.68,1.68,0,0,1-.28-.82h.8a1.24,1.24,0,0,0,.56.81,2.33,2.33,0,0,0,1.25.28,2,2,0,0,0,1.61-.61,2.66,2.66,0,0,0,.54-1.81v-1.18h0a2.53,2.53,0,0,1-.37.57,2.28,2.28,0,0,1-.5.43,2.35,2.35,0,0,1-.6.27,2.4,2.4,0,0,1-.67.09,3.16,3.16,0,0,1-1.28-.24,2.43,2.43,0,0,1-.91-.67,2.85,2.85,0,0,1-.54-1,4.64,4.64,0,0,1-.18-1.31,4,4,0,0,1,.19-1.22,3,3,0,0,1,.56-1,2.74,2.74,0,0,1,.93-.7A3,3,0,0,1,263.25,553.56Zm-2.16,3.29a3.49,3.49,0,0,0,.12,1,2.29,2.29,0,0,0,.38.8,1.87,1.87,0,0,0,.67.54,2.13,2.13,0,0,0,1,.2,1.9,1.9,0,0,0,.91-.21,2.1,2.1,0,0,0,.67-.56,2.53,2.53,0,0,0,.42-.8,3,3,0,0,0,.14-.93,3.72,3.72,0,0,0-.12-.93,2.66,2.66,0,0,0-.37-.84,2,2,0,0,0-.66-.61,1.87,1.87,0,0,0-1-.24,2,2,0,0,0-1,.22,2,2,0,0,0-.67.59,2.55,2.55,0,0,0-.39.84A3.87,3.87,0,0,0,261.09,556.85Z"/><path class="cls-3" d="M269.18,551.23v9.08h-.8v-9.08Z"/><path class="cls-3" d="M272.21,550.88v1.29h-.8v-1.29Zm0,2.87v6.56h-.8v-6.56Z"/><path class="cls-3" d="M279.32,558.53a1.67,1.67,0,0,1-.22.88,1.89,1.89,0,0,1-.59.62,2.74,2.74,0,0,1-.84.36,4,4,0,0,1-1,.12,3.66,3.66,0,0,1-1.07-.14,2.4,2.4,0,0,1-.8-.41,2,2,0,0,1-.53-.64,2.4,2.4,0,0,1-.25-.85h.81a1.7,1.7,0,0,0,.2.56,1.41,1.41,0,0,0,.38.43,1.8,1.8,0,0,0,.57.28,2.56,2.56,0,0,0,.74.1,3,3,0,0,0,.6-.06,2.05,2.05,0,0,0,.58-.21,1.35,1.35,0,0,0,.44-.38,1,1,0,0,0,.18-.59.93.93,0,0,0-.34-.73,2.6,2.6,0,0,0-1.13-.46l-1-.22a4,4,0,0,1-.77-.24,2.1,2.1,0,0,1-.58-.37,1.46,1.46,0,0,1-.36-.5,1.62,1.62,0,0,1-.12-.65,1.57,1.57,0,0,1,.21-.83A1.78,1.78,0,0,1,275,554a2.53,2.53,0,0,1,.78-.33,3.77,3.77,0,0,1,.89-.11,3.27,3.27,0,0,1,.92.12,2.29,2.29,0,0,1,.73.35,1.83,1.83,0,0,1,.5.57,2.08,2.08,0,0,1,.25.78h-.8a1.32,1.32,0,0,0-.19-.5,1.24,1.24,0,0,0-.36-.37,1.69,1.69,0,0,0-.5-.22,2.36,2.36,0,0,0-.61-.08,2.85,2.85,0,0,0-.58.06,1.59,1.59,0,0,0-.51.19,1.07,1.07,0,0,0-.36.35,1,1,0,0,0-.13.53.74.74,0,0,0,.13.44,1.27,1.27,0,0,0,.33.32,1.93,1.93,0,0,0,.44.22,3.64,3.64,0,0,0,.46.13l1.37.3a2.85,2.85,0,0,1,.59.21,1.77,1.77,0,0,1,.5.35,1.64,1.64,0,0,1,.34.51A1.71,1.71,0,0,1,279.32,558.53Z"/><path class="cls-3" d="M285.6,560.31v-4.15a2.2,2.2,0,0,0-.41-1.44,1.54,1.54,0,0,0-1.25-.49,2,2,0,0,0-.87.18,1.91,1.91,0,0,0-.65.48,2.14,2.14,0,0,0-.4.71,2.66,2.66,0,0,0-.14.87v3.84h-.8v-9.08h.8v3.66h0a1.89,1.89,0,0,1,.34-.56,2.12,2.12,0,0,1,.5-.42,2.43,2.43,0,0,1,.61-.26,2.46,2.46,0,0,1,.67-.09,3.35,3.35,0,0,1,1.08.16,1.83,1.83,0,0,1,.74.46,1.87,1.87,0,0,1,.43.77,3.79,3.79,0,0,1,.14,1.08v4.28Z"/><path class="cls-3" d="M294.23,551.57a9.69,9.69,0,0,0-1.89,5.82,6.9,6.9,0,0,0,.13,1.35,8.53,8.53,0,0,0,.38,1.34,10.23,10.23,0,0,0,.6,1.3,11.53,11.53,0,0,0,.78,1.23h-.64a10,10,0,0,1-1.49-2.6,8,8,0,0,1-.52-2.88,9,9,0,0,1,.11-1.43,8.24,8.24,0,0,1,.36-1.41,8.63,8.63,0,0,1,.62-1.38,9.44,9.44,0,0,1,.91-1.34Z"/><path class="cls-3" d="M296.28,551.75v5.36a2.93,2.93,0,0,0,.61,2,2.41,2.41,0,0,0,1.9.69,2.44,2.44,0,0,0,1.91-.68,2.91,2.91,0,0,0,.61-2v-5.36h.82v5.54a3.21,3.21,0,0,1-.85,2.31,3.28,3.28,0,0,1-2.49.9,4.79,4.79,0,0,1-.71-.05,3.73,3.73,0,0,1-.69-.17,3.06,3.06,0,0,1-.63-.31,2.41,2.41,0,0,1-.54-.47,3,3,0,0,1-.57-1,3.82,3.82,0,0,1-.18-1.19v-5.54Z"/><path class="cls-3" d="M310.42,558a2.15,2.15,0,0,1-.28,1.14,2.26,2.26,0,0,1-.76.76,3.46,3.46,0,0,1-1.1.42,6.15,6.15,0,0,1-1.29.13,4.8,4.8,0,0,1-1.28-.16,3.18,3.18,0,0,1-1-.49,2.35,2.35,0,0,1-.69-.79,2.22,2.22,0,0,1-.25-1.08v-.19h.82v.06a1.87,1.87,0,0,0,.16.76,1.65,1.65,0,0,0,.48.62,2.43,2.43,0,0,0,.81.42,3.79,3.79,0,0,0,1.15.16,4,4,0,0,0,.9-.1,2.56,2.56,0,0,0,.79-.32,1.81,1.81,0,0,0,.56-.54,1.38,1.38,0,0,0,.21-.78q0-1.11-1.67-1.52l-2-.49a4,4,0,0,1-.88-.31,2.14,2.14,0,0,1-.6-.44,1.6,1.6,0,0,1-.35-.58A2.24,2.24,0,0,1,304,554a2.1,2.1,0,0,1,.25-1,2.34,2.34,0,0,1,.68-.76,3.07,3.07,0,0,1,1-.46,4.16,4.16,0,0,1,1.14-.16,4.34,4.34,0,0,1,1.2.16,2.9,2.9,0,0,1,1,.46,2.27,2.27,0,0,1,.64.75,2.24,2.24,0,0,1,.25,1h-.81a1.6,1.6,0,0,0-.2-.65,1.78,1.78,0,0,0-.46-.53,2.24,2.24,0,0,0-.69-.36,2.81,2.81,0,0,0-.88-.13,3.49,3.49,0,0,0-.91.11,2.16,2.16,0,0,0-.71.33,1.46,1.46,0,0,0-.46.53,1.6,1.6,0,0,0-.16.73,1.2,1.2,0,0,0,.11.52,1.13,1.13,0,0,0,.29.38,1.54,1.54,0,0,0,.43.25,4,4,0,0,0,.53.17l2,.48a3.73,3.73,0,0,1,1.76.85A1.93,1.93,0,0,1,310.42,558Z"/><path class="cls-3" d="M311.87,551.57a11.33,11.33,0,0,1,.86,1.24,8.41,8.41,0,0,1,.63,1.29,7.8,7.8,0,0,1,.39,1.4,8.62,8.62,0,0,1-1.87,7.1h-.64a10.2,10.2,0,0,0,1.39-2.71,9.63,9.63,0,0,0,.49-3.1,6.72,6.72,0,0,0-.14-1.35,8.49,8.49,0,0,0-.39-1.33,10.9,10.9,0,0,0-.6-1.3,13.56,13.56,0,0,0-.76-1.24Z"/><path class="cls-6" d="M213.51,559.46l-2-2,0,0a14,14,0,0,0,3-5.22h2.34v-1.6h-5.6V549h-1.6v1.6H204v1.59h8.93a12.56,12.56,0,0,1-2.54,4.29,12.56,12.56,0,0,1-1.85-2.68H207a14.08,14.08,0,0,0,2.39,3.65l-4.07,4,1.14,1.14,4-4,2.49,2.49Zm4.5-4.06h-1.6l-3.6,9.6h1.6l.9-2.4h3.8L220,565h1.6Zm-2.1,5.6,1.3-3.46,1.3,3.46Z"/><line class="cls-7" x1="190" y1="54.5" x2="361" y2="54.5"/><line class="cls-7" x1="190" y1="186.5" x2="361" y2="186.5"/><line class="cls-7" x1="190" y1="186.5" x2="361" y2="186.5"/><line class="cls-7" x1="190" y1="415.5" x2="361" y2="415.5"/><polyline class="cls-8" points="332 555.06 335.88 558.94 340 555.06"/><g class="cls-13"><rect class="cls-2" x="191.5" y="196.5" width="168" height="114"/></g><path class="cls-3" d="M211.44,212.59a2.29,2.29,0,0,1-.5,1.54,1.79,1.79,0,0,1-.42.37,2.48,2.48,0,0,1-.55.25v0a1.71,1.71,0,0,1,.59.25,1.41,1.41,0,0,1,.4.42,1.94,1.94,0,0,1,.25.62,5.14,5.14,0,0,1,.1.69c0,.24,0,.48,0,.73a4.79,4.79,0,0,0,.09.74,1.65,1.65,0,0,0,.24.62h-1.53a4.38,4.38,0,0,1-.22-1.34,3.2,3.2,0,0,0-.45-1.76,1.35,1.35,0,0,0-1.06-.4H206v3.51h-1.5v-8.57h4.42a2.56,2.56,0,0,1,1.78.64A2.16,2.16,0,0,1,211.44,212.59Zm-1.5.24a1.31,1.31,0,0,0-.38-1,1.56,1.56,0,0,0-1.07-.34H206v2.75h2.46a1.52,1.52,0,0,0,1-.33A1.3,1.3,0,0,0,209.94,212.83Z"/><path class="cls-3" d="M217.67,218.84v-1h0a2.25,2.25,0,0,1-.39.52,2.3,2.3,0,0,1-.5.37,2.49,2.49,0,0,1-.58.23,2.54,2.54,0,0,1-.64.08,2.3,2.3,0,0,1-1.78-.63,2.81,2.81,0,0,1-.57-1.95v-4.19h1.44v4a2.89,2.89,0,0,0,.08.7,1.37,1.37,0,0,0,.24.52,1,1,0,0,0,.42.32,1.81,1.81,0,0,0,1.36,0,1.37,1.37,0,0,0,.5-.43,1.86,1.86,0,0,0,.29-.66,3.72,3.72,0,0,0,.09-.85v-3.5H219v6.57Z"/><path class="cls-3" d="M224.4,212.09a3.25,3.25,0,0,1,1.1.16,1.8,1.8,0,0,1,.74.49,1.94,1.94,0,0,1,.42.8,4.29,4.29,0,0,1,.13,1.12v4.17h-1.44v-3.9a2.11,2.11,0,0,0-.32-1.27,1.19,1.19,0,0,0-1-.43,1.48,1.48,0,0,0-1.23.52,2.28,2.28,0,0,0-.41,1.45v3.63h-1.44v-6.57h1.38v1h0a2.14,2.14,0,0,1,.37-.5,2.24,2.24,0,0,1,.48-.37,2.34,2.34,0,0,1,.57-.23A2.51,2.51,0,0,1,224.4,212.09Z"/><path class="cls-3" d="M232.16,212.09a3.25,3.25,0,0,1,1.1.16,1.8,1.8,0,0,1,.74.49,1.94,1.94,0,0,1,.42.8,4.29,4.29,0,0,1,.13,1.12v4.17h-1.44v-3.9a2.11,2.11,0,0,0-.32-1.27,1.19,1.19,0,0,0-1-.43,1.48,1.48,0,0,0-1.23.52,2.28,2.28,0,0,0-.41,1.45v3.63H228.7v-6.57h1.38v1h0a2.14,2.14,0,0,1,.37-.5,2.24,2.24,0,0,1,.48-.37,2.34,2.34,0,0,1,.57-.23A2.51,2.51,0,0,1,232.16,212.09Z"/><path class="cls-3" d="M238,209.41v1.42h-1.45v-1.42Zm0,2.86v6.57h-1.45v-6.57Z"/><path class="cls-3" d="M243.37,212.09a3.25,3.25,0,0,1,1.1.16,1.8,1.8,0,0,1,.74.49,1.94,1.94,0,0,1,.42.8,4.29,4.29,0,0,1,.13,1.12v4.17h-1.44v-3.9a2.11,2.11,0,0,0-.32-1.27,1.19,1.19,0,0,0-1-.43,1.48,1.48,0,0,0-1.23.52,2.28,2.28,0,0,0-.41,1.45v3.63H239.9v-6.57h1.38v1h0a2.14,2.14,0,0,1,.37-.5,2.24,2.24,0,0,1,.48-.37,2.34,2.34,0,0,1,.57-.23A2.51,2.51,0,0,1,243.37,212.09Z"/><path class="cls-3" d="M250.26,212.09a2.35,2.35,0,0,1,1.2.29,2.13,2.13,0,0,1,.81.85h0v-1h1.39v6.17a3.42,3.42,0,0,1-.23,1.31,2.4,2.4,0,0,1-.65.92,2.71,2.71,0,0,1-1,.54,4.81,4.81,0,0,1-1.35.18,4.46,4.46,0,0,1-1-.11,2.93,2.93,0,0,1-.86-.33,2.13,2.13,0,0,1-.65-.59,1.75,1.75,0,0,1-.31-.86h1.44a1,1,0,0,0,.49.66,2,2,0,0,0,1,.22,1.64,1.64,0,0,0,1.28-.49,2,2,0,0,0,.44-1.4v-1h0a2,2,0,0,1-.82.84,2.47,2.47,0,0,1-1.22.3,2.92,2.92,0,0,1-1.26-.25,2.46,2.46,0,0,1-.88-.69,3,3,0,0,1-.52-1,4.69,4.69,0,0,1-.17-1.3,4.07,4.07,0,0,1,.18-1.22,3.1,3.1,0,0,1,.54-1,2.66,2.66,0,0,1,.9-.72A2.76,2.76,0,0,1,250.26,212.09Zm-1.42,3.25a3.41,3.41,0,0,0,.11.87,2,2,0,0,0,.32.68,1.48,1.48,0,0,0,.53.44,1.65,1.65,0,0,0,.74.16,1.59,1.59,0,0,0,.75-.17,1.71,1.71,0,0,0,.55-.46,2,2,0,0,0,.34-.66,2.62,2.62,0,0,0,.11-.78,3.52,3.52,0,0,0-.11-.88,2.07,2.07,0,0,0-.32-.71,1.53,1.53,0,0,0-.55-.47,1.68,1.68,0,0,0-.78-.17,1.57,1.57,0,0,0-.77.18,1.53,1.53,0,0,0-.53.48,2.15,2.15,0,0,0-.3.69A3.18,3.18,0,0,0,248.83,215.34Z"/><path class="cls-3" d="M259.94,212.27l1.38,5h0l1.28-5h1.45l1.29,5h0l1.38-5h1.49l-2.09,6.57h-1.5l-1.33-4.93h0L262,218.84h-1.52l-2.09-6.57Z"/><path class="cls-3" d="M270.95,209.41v1.42H269.5v-1.42Zm0,2.86v6.57H269.5v-6.57Z"/><path class="cls-3" d="M276.17,218.89l-.28,0h-.55a4.59,4.59,0,0,1-.74-.06,1.58,1.58,0,0,1-.6-.22,1.12,1.12,0,0,1-.4-.45,1.67,1.67,0,0,1-.15-.76v-4.15h-1.29v-1h1.29v-2h1.45v2h1.5v1h-1.5V217a.83.83,0,0,0,.17.58.8.8,0,0,0,.59.18h.57l.17,0v1.14Z"/><path class="cls-3" d="M282.21,218.84v-3.9a2.11,2.11,0,0,0-.32-1.27,1.19,1.19,0,0,0-1-.43,1.79,1.79,0,0,0-.72.13,1.33,1.33,0,0,0-.51.39,1.69,1.69,0,0,0-.3.62,3.13,3.13,0,0,0-.1.83v3.63h-1.44v-9.08h1.44v3.5h0a1.94,1.94,0,0,1,.35-.48,2.37,2.37,0,0,1,.47-.37,2.24,2.24,0,0,1,.56-.24,2.32,2.32,0,0,1,.61-.08,3.33,3.33,0,0,1,1.08.15,1.77,1.77,0,0,1,.74.47,2,2,0,0,1,.43.81,4.22,4.22,0,0,1,.14,1.14v4.17Z"/><path class="cls-3" d="M289.78,210.27l1.56,6.69h0l1.71-6.69h1.49l1.69,6.74h0l1.61-6.74h1.47L297,218.84h-1.51l-1.71-6.76h0l-1.69,6.76h-1.54l-2.31-8.57Z"/><path class="cls-3" d="M306.64,218.84l-.44.09-.39,0a1.79,1.79,0,0,1-.42,0,.91.91,0,0,1-.34-.16.83.83,0,0,1-.24-.29,1.28,1.28,0,0,1-.12-.45h0a2.66,2.66,0,0,1-.45.46,2.31,2.31,0,0,1-.52.31,3.32,3.32,0,0,1-1.31.24,2.42,2.42,0,0,1-1.62-.51,1.77,1.77,0,0,1-.6-1.45,1.7,1.7,0,0,1,.6-1.42,2.11,2.11,0,0,1,.58-.32,4.68,4.68,0,0,1,.73-.2c.26-.05.54-.09.82-.13l.87-.1.34-.07a.8.8,0,0,0,.27-.13.59.59,0,0,0,.17-.22.79.79,0,0,0,.06-.33,1,1,0,0,0-.31-.79,2.12,2.12,0,0,0-2.05,0,1,1,0,0,0-.39.73h-1.45a2,2,0,0,1,.28-.9,2,2,0,0,1,.62-.62,2.88,2.88,0,0,1,.9-.36,5.08,5.08,0,0,1,1.13-.12,3.42,3.42,0,0,1,2,.5A1.65,1.65,0,0,1,306,214v3.54a.47.47,0,0,0,.08.3.33.33,0,0,0,.27.1h.12l.13,0Zm-2-3.35h0a1,1,0,0,1-.54.23l-.48.08-.65.11a2.21,2.21,0,0,0-1,.37.87.87,0,0,0-.32.72.89.89,0,0,0,.37.76,1.48,1.48,0,0,0,.87.24,1.79,1.79,0,0,0,1.27-.43,1.59,1.59,0,0,0,.49-1.24Z"/><path class="cls-3" d="M308,218.84v-6.57h1.37v1.34h0a2.4,2.4,0,0,1,.87-1.08,2.23,2.23,0,0,1,1.29-.39h.21l.2,0v1.36l-.25,0h-.28a1.84,1.84,0,0,0-1.48.6,2.36,2.36,0,0,0-.51,1.57v3.18Z"/><path class="cls-3" d="M316.53,212.09a3.25,3.25,0,0,1,1.1.16,1.8,1.8,0,0,1,.74.49,1.94,1.94,0,0,1,.42.8,4.29,4.29,0,0,1,.13,1.12v4.17h-1.44v-3.9a2.11,2.11,0,0,0-.32-1.27,1.19,1.19,0,0,0-1-.43,1.48,1.48,0,0,0-1.23.52,2.28,2.28,0,0,0-.41,1.45v3.63h-1.44v-6.57h1.38v1h0a2.14,2.14,0,0,1,.37-.5,2.24,2.24,0,0,1,.48-.37,2.34,2.34,0,0,1,.57-.23A2.51,2.51,0,0,1,316.53,212.09Z"/><path class="cls-3" d="M322.33,209.41v1.42h-1.45v-1.42Zm0,2.86v6.57h-1.45v-6.57Z"/><path class="cls-3" d="M327.74,212.09a3.25,3.25,0,0,1,1.1.16,1.8,1.8,0,0,1,.74.49,1.94,1.94,0,0,1,.42.8,4.29,4.29,0,0,1,.13,1.12v4.17H328.7v-3.9a2.11,2.11,0,0,0-.32-1.27,1.19,1.19,0,0,0-1-.43,1.48,1.48,0,0,0-1.23.52,2.28,2.28,0,0,0-.41,1.45v3.63h-1.44v-6.57h1.38v1h0a2.14,2.14,0,0,1,.37-.5,2.24,2.24,0,0,1,.48-.37,2.34,2.34,0,0,1,.57-.23A2.51,2.51,0,0,1,327.74,212.09Z"/><path class="cls-3" d="M334.63,212.09a2.35,2.35,0,0,1,1.2.29,2.13,2.13,0,0,1,.81.85h0v-1H338v6.17a3.42,3.42,0,0,1-.23,1.31,2.4,2.4,0,0,1-.65.92,2.71,2.71,0,0,1-1,.54,4.81,4.81,0,0,1-1.35.18,4.46,4.46,0,0,1-1-.11,2.93,2.93,0,0,1-.86-.33,2.13,2.13,0,0,1-.65-.59,1.75,1.75,0,0,1-.31-.86h1.44a1,1,0,0,0,.49.66,2,2,0,0,0,1,.22,1.64,1.64,0,0,0,1.28-.49,2,2,0,0,0,.44-1.4v-1h0a2,2,0,0,1-.82.84,2.47,2.47,0,0,1-1.22.3,2.92,2.92,0,0,1-1.26-.25,2.46,2.46,0,0,1-.88-.69,3,3,0,0,1-.52-1,4.69,4.69,0,0,1-.17-1.3,4.07,4.07,0,0,1,.18-1.22,3.1,3.1,0,0,1,.54-1,2.66,2.66,0,0,1,.9-.72A2.76,2.76,0,0,1,334.63,212.09Zm-1.42,3.25a3.41,3.41,0,0,0,.11.87,2,2,0,0,0,.32.68,1.48,1.48,0,0,0,.53.44,1.65,1.65,0,0,0,.74.16,1.59,1.59,0,0,0,.75-.17,1.71,1.71,0,0,0,.55-.46,2,2,0,0,0,.34-.66,2.62,2.62,0,0,0,.11-.78,3.52,3.52,0,0,0-.11-.88,2.07,2.07,0,0,0-.32-.71,1.53,1.53,0,0,0-.55-.47,1.68,1.68,0,0,0-.78-.17,1.57,1.57,0,0,0-.77.18,1.53,1.53,0,0,0-.53.48,2.15,2.15,0,0,0-.3.69A3.18,3.18,0,0,0,333.2,215.34Z"/><g class="cls-13"><line class="cls-14" x1="203.5" y1="228.5" x2="347.5" y2="228.5"/><polygon class="cls-15" points="215.18 248.37 225.68 267.5 204.68 267.5 215.18 248.37"/></g><path class="cls-3" d="M240.93,246.65v.64h-2.74v7.21h-.75v-7.21h-2.74v-.64Z"/><path class="cls-3" d="M246.1,254.51v-3.8a2,2,0,0,0-.38-1.32,1.41,1.41,0,0,0-1.15-.45,1.86,1.86,0,0,0-.8.16,1.75,1.75,0,0,0-.59.44,2,2,0,0,0-.37.66,2.43,2.43,0,0,0-.13.79v3.52h-.74v-8.33h.74v3.35h0A1.71,1.71,0,0,1,243,249a1.94,1.94,0,0,1,.46-.38,2.26,2.26,0,0,1,1.17-.32,3,3,0,0,1,1,.14,1.69,1.69,0,0,1,.68.42,1.72,1.72,0,0,1,.39.71,3.48,3.48,0,0,1,.13,1v3.93Z"/><path class="cls-3" d="M251.18,248.32a2.49,2.49,0,0,1,1.19.27,2.38,2.38,0,0,1,.82.72,3.16,3.16,0,0,1,.48,1,4.79,4.79,0,0,1,.16,1.23v.12H249.2a3.28,3.28,0,0,0,.12.87,2.39,2.39,0,0,0,.35.76,1.81,1.81,0,0,0,.6.54,1.75,1.75,0,0,0,.87.21,2.26,2.26,0,0,0,.64-.09,1.88,1.88,0,0,0,.51-.24,1.63,1.63,0,0,0,.38-.36,2.2,2.2,0,0,0,.27-.45h.72a2.75,2.75,0,0,1-.35.72,2.26,2.26,0,0,1-.54.55,2.45,2.45,0,0,1-.72.35,3.07,3.07,0,0,1-.91.13,2.69,2.69,0,0,1-1.19-.25,2.34,2.34,0,0,1-.83-.67,2.87,2.87,0,0,1-.49-1,4.71,4.71,0,0,1-.16-1.26,4.26,4.26,0,0,1,.16-1.18,3.09,3.09,0,0,1,.5-1,2.47,2.47,0,0,1,2.06-1Zm1.91,2.76a2.79,2.79,0,0,0-.15-.78,2.22,2.22,0,0,0-.37-.69,1.88,1.88,0,0,0-.6-.49,1.68,1.68,0,0,0-.81-.19,1.69,1.69,0,0,0-1.37.64,2.47,2.47,0,0,0-.39.68,3.92,3.92,0,0,0-.21.82Z"/><path class="cls-3" d="M263.82,246.18v8.33h-.68v-1.14h0a1.87,1.87,0,0,1-.36.55,2.35,2.35,0,0,1-.52.42,2.56,2.56,0,0,1-.62.27,2.38,2.38,0,0,1-.66.09,2.57,2.57,0,0,1-1.17-.26,2.47,2.47,0,0,1-.84-.69,3.07,3.07,0,0,1-.51-1,4.3,4.3,0,0,1-.17-1.22,4.43,4.43,0,0,1,.16-1.18,3,3,0,0,1,.49-1,2.44,2.44,0,0,1,.84-.71,2.75,2.75,0,0,1,1.86-.19,2.35,2.35,0,0,1,.6.25,2,2,0,0,1,.5.41,1.89,1.89,0,0,1,.35.58h0v-3.45ZM259,251.5a3.69,3.69,0,0,0,0,.6,3.3,3.3,0,0,0,.15.59,2.62,2.62,0,0,0,.26.53,2,2,0,0,0,.38.44,1.65,1.65,0,0,0,.5.3,1.8,1.8,0,0,0,.64.11,1.9,1.9,0,0,0,1.59-.77,2.42,2.42,0,0,0,.39-.82,3.63,3.63,0,0,0,.13-1,3.67,3.67,0,0,0-.12-.94,2.49,2.49,0,0,0-.38-.83,1.88,1.88,0,0,0-1.62-.8,1.77,1.77,0,0,0-.62.1,1.62,1.62,0,0,0-.49.28,2,2,0,0,0-.38.43,2.56,2.56,0,0,0-.27.53,3.21,3.21,0,0,0-.16.6A3.89,3.89,0,0,0,259,251.5Z"/><path class="cls-3" d="M268.2,248.32a2.49,2.49,0,0,1,1.19.27,2.38,2.38,0,0,1,.82.72,3.16,3.16,0,0,1,.48,1,4.79,4.79,0,0,1,.16,1.23v.12h-4.63a3.28,3.28,0,0,0,.12.87,2.39,2.39,0,0,0,.35.76,1.81,1.81,0,0,0,.6.54,1.75,1.75,0,0,0,.87.21,2.26,2.26,0,0,0,.64-.09,1.88,1.88,0,0,0,.51-.24,1.63,1.63,0,0,0,.38-.36,2.2,2.2,0,0,0,.27-.45h.72a2.75,2.75,0,0,1-.35.72,2.26,2.26,0,0,1-.54.55,2.45,2.45,0,0,1-.72.35,3.07,3.07,0,0,1-.91.13,2.69,2.69,0,0,1-1.19-.25,2.34,2.34,0,0,1-.83-.67,2.87,2.87,0,0,1-.49-1,4.71,4.71,0,0,1-.16-1.26,4.26,4.26,0,0,1,.16-1.18,3.09,3.09,0,0,1,.5-1,2.47,2.47,0,0,1,2.06-1Zm1.91,2.76a2.79,2.79,0,0,0-.15-.78,2.22,2.22,0,0,0-.37-.69,1.88,1.88,0,0,0-.6-.49,1.68,1.68,0,0,0-.81-.19,1.69,1.69,0,0,0-1.37.64,2.47,2.47,0,0,0-.39.68,3.92,3.92,0,0,0-.21.82Z"/><path class="cls-3" d="M276.88,252.87a1.53,1.53,0,0,1-.2.8,1.74,1.74,0,0,1-.54.56,2.54,2.54,0,0,1-.77.33,3.66,3.66,0,0,1-.9.11,3.39,3.39,0,0,1-1-.13,2.22,2.22,0,0,1-.74-.38,1.83,1.83,0,0,1-.49-.59,2.18,2.18,0,0,1-.23-.78h.74a1.58,1.58,0,0,0,.18.51,1.3,1.3,0,0,0,.35.4,1.67,1.67,0,0,0,.52.25,2.36,2.36,0,0,0,.68.09A2.7,2.7,0,0,0,275,254a1.93,1.93,0,0,0,.54-.19,1.24,1.24,0,0,0,.41-.35.88.88,0,0,0,.16-.54.85.85,0,0,0-.31-.67,2.39,2.39,0,0,0-1-.42l-.92-.2a3.79,3.79,0,0,1-.71-.22,2,2,0,0,1-.53-.34,1.34,1.34,0,0,1-.33-.46,1.48,1.48,0,0,1-.11-.59,1.44,1.44,0,0,1,.2-.77,1.62,1.62,0,0,1,.51-.52,2.32,2.32,0,0,1,.72-.3,3.45,3.45,0,0,1,.81-.1,3,3,0,0,1,.85.11,2.09,2.09,0,0,1,.67.32,1.69,1.69,0,0,1,.46.53,1.91,1.91,0,0,1,.23.72h-.74a1.21,1.21,0,0,0-.17-.46,1.12,1.12,0,0,0-.33-.33,1.54,1.54,0,0,0-.46-.21,2.19,2.19,0,0,0-.56-.07,2.66,2.66,0,0,0-.53.05,1.43,1.43,0,0,0-.46.18,1,1,0,0,0-.33.32.88.88,0,0,0-.12.49.68.68,0,0,0,.12.4,1.17,1.17,0,0,0,.3.3,1.8,1.8,0,0,0,.4.2l.42.12,1.26.28a2.64,2.64,0,0,1,.54.19,1.63,1.63,0,0,1,.46.32,1.5,1.5,0,0,1,.31.47A1.56,1.56,0,0,1,276.88,252.87Z"/><path class="cls-3" d="M281,248.32a3.16,3.16,0,0,1,.89.12,2.32,2.32,0,0,1,.72.34,1.86,1.86,0,0,1,.51.56,2.13,2.13,0,0,1,.27.75h-.74a1.61,1.61,0,0,0-.2-.47,1.39,1.39,0,0,0-.34-.37,1.57,1.57,0,0,0-.48-.24,2.18,2.18,0,0,0-.62-.08,1.84,1.84,0,0,0-.9.21,2,2,0,0,0-.66.58,2.67,2.67,0,0,0-.41.82,3.29,3.29,0,0,0-.14,1,3.36,3.36,0,0,0,.13.92,2.64,2.64,0,0,0,.39.82,2.08,2.08,0,0,0,.65.59,1.79,1.79,0,0,0,.92.23,1.76,1.76,0,0,0,.65-.12,1.72,1.72,0,0,0,.52-.31,1.63,1.63,0,0,0,.36-.45,1.75,1.75,0,0,0,.19-.53h.74a2.7,2.7,0,0,1-.27.78,2.26,2.26,0,0,1-.5.64,2.32,2.32,0,0,1-.73.44,2.64,2.64,0,0,1-.95.16,2.74,2.74,0,0,1-1.18-.25,2.61,2.61,0,0,1-.89-.68,3,3,0,0,1-.56-1,4.1,4.1,0,0,1,0-2.44,3,3,0,0,1,.54-1,2.67,2.67,0,0,1,.89-.71A2.74,2.74,0,0,1,281,248.32Z"/><path class="cls-3" d="M285,254.51v-6h.68v1.41h0a2.34,2.34,0,0,1,.83-1.1,2.13,2.13,0,0,1,1.26-.39h.26v.73h-.17a2,2,0,0,0-1.56.63,2.16,2.16,0,0,0-.59,1.55v3.19Z"/><path class="cls-3" d="M290,245.86V247h-.74v-1.18Zm0,2.63v6h-.74v-6Z"/><path class="cls-3" d="M297.62,251.5a4.39,4.39,0,0,1-.16,1.17,3.12,3.12,0,0,1-.49,1,2.48,2.48,0,0,1-.84.72,2.75,2.75,0,0,1-1.87.19,2.22,2.22,0,0,1-.6-.25,2.08,2.08,0,0,1-.49-.41,2,2,0,0,1-.35-.58h0v3.37h-.74v-8.24h.68v1.14h0a2.06,2.06,0,0,1,.35-.56,2.1,2.1,0,0,1,.5-.41,2.44,2.44,0,0,1,.61-.25,2.57,2.57,0,0,1,.68-.09,2.62,2.62,0,0,1,1.18.25,2.44,2.44,0,0,1,.85.69,3.07,3.07,0,0,1,.51,1A4.3,4.3,0,0,1,297.62,251.5Zm-.74,0a4.14,4.14,0,0,0-.1-.9,2.63,2.63,0,0,0-.34-.83,1.91,1.91,0,0,0-.62-.61,1.74,1.74,0,0,0-.93-.24,1.92,1.92,0,0,0-1.56.64,2.94,2.94,0,0,0-.53,1.92,3.85,3.85,0,0,0,.12.94,2.46,2.46,0,0,0,.37.82,1.91,1.91,0,0,0,.66.58,2,2,0,0,0,1,.22,1.72,1.72,0,0,0,.88-.22,1.86,1.86,0,0,0,.61-.58,2.61,2.61,0,0,0,.36-.82A3.79,3.79,0,0,0,296.89,251.5Z"/><path class="cls-3" d="M301.76,254.56h-.6a2.74,2.74,0,0,1-.62-.06.89.89,0,0,1-.41-.21.82.82,0,0,1-.23-.39,2.42,2.42,0,0,1-.07-.62v-4.18h-1.21v-.62h1.21v-1.8h.74v1.8h1.38v.62h-1.37v4.1a1.64,1.64,0,0,0,0,.31.58.58,0,0,0,.1.23.46.46,0,0,0,.19.15.81.81,0,0,0,.32.05h.55l.19,0v.62Z"/><path class="cls-3" d="M304.31,245.86V247h-.74v-1.18Zm0,2.63v6h-.74v-6Z"/><path class="cls-3" d="M311.66,251.5a3.94,3.94,0,0,1-.18,1.2,3,3,0,0,1-.56,1,2.66,2.66,0,0,1-2.1,1,2.6,2.6,0,0,1-2.06-.9,3.73,3.73,0,0,1,0-4.57,2.83,2.83,0,0,1,4.13,0A3.34,3.34,0,0,1,311.66,251.5Zm-.74,0a3.45,3.45,0,0,0-.12-.91,2.57,2.57,0,0,0-.38-.82,2.06,2.06,0,0,0-.66-.6,1.87,1.87,0,0,0-1-.23,1.82,1.82,0,0,0-.9.22,2.07,2.07,0,0,0-.66.58,2.61,2.61,0,0,0-.4.83,3.34,3.34,0,0,0-.13.94,3.27,3.27,0,0,0,.13.91,2.72,2.72,0,0,0,.39.82,2.05,2.05,0,0,0,.66.6,2,2,0,0,0,1.82,0,2.14,2.14,0,0,0,.66-.58,2.56,2.56,0,0,0,.41-.82A3.26,3.26,0,0,0,310.93,251.5Z"/><path class="cls-3" d="M316,248.32a3,3,0,0,1,1,.14,1.69,1.69,0,0,1,.68.42,1.72,1.72,0,0,1,.39.71,3.48,3.48,0,0,1,.13,1v3.93h-.74v-3.8a2,2,0,0,0-.38-1.32,1.41,1.41,0,0,0-1.15-.45,1.9,1.9,0,0,0-.79.16,1.73,1.73,0,0,0-.6.44,2,2,0,0,0-.38.65,2.4,2.4,0,0,0-.13.81v3.52h-.74v-6H314v1h0a1.79,1.79,0,0,1,.32-.51,2,2,0,0,1,.45-.38,2.14,2.14,0,0,1,.55-.24A2.26,2.26,0,0,1,316,248.32Z"/><path class="cls-3" d="M328.71,251.5a3.94,3.94,0,0,1-.18,1.2,3,3,0,0,1-.56,1,2.66,2.66,0,0,1-2.1,1,2.6,2.6,0,0,1-2.06-.9,3.73,3.73,0,0,1,0-4.57,2.83,2.83,0,0,1,4.13,0A3.34,3.34,0,0,1,328.71,251.5Zm-.74,0a3.45,3.45,0,0,0-.12-.91,2.57,2.57,0,0,0-.38-.82,2.06,2.06,0,0,0-.66-.6,1.87,1.87,0,0,0-1-.23,1.82,1.82,0,0,0-.9.22,2.07,2.07,0,0,0-.66.58,2.61,2.61,0,0,0-.4.83,3.34,3.34,0,0,0-.13.94,3.27,3.27,0,0,0,.13.91,2.72,2.72,0,0,0,.39.82,2.05,2.05,0,0,0,.66.6,2,2,0,0,0,1.82,0,2.14,2.14,0,0,0,.66-.58,2.56,2.56,0,0,0,.41-.82A3.26,3.26,0,0,0,328,251.5Z"/><path class="cls-3" d="M332.71,248.32a2.1,2.1,0,0,1,.59.08,2.16,2.16,0,0,1,.54.24,2.12,2.12,0,0,1,.45.38,2.06,2.06,0,0,1,.34.51h0v-1h.74v5.59a3,3,0,0,1-.67,2.11,2.63,2.63,0,0,1-2,.72,4.14,4.14,0,0,1-.85-.09,2.46,2.46,0,0,1-.75-.28,1.73,1.73,0,0,1-.55-.5,1.54,1.54,0,0,1-.26-.75H331a1.14,1.14,0,0,0,.51.75,2.14,2.14,0,0,0,1.15.26,1.87,1.87,0,0,0,1.48-.56,2.44,2.44,0,0,0,.49-1.66V253h0a2.31,2.31,0,0,1-.34.52,2.07,2.07,0,0,1-.46.4,2.12,2.12,0,0,1-.55.25,2.19,2.19,0,0,1-.62.09,2.88,2.88,0,0,1-1.18-.22,2.24,2.24,0,0,1-.83-.62,2.62,2.62,0,0,1-.49-.95,4.25,4.25,0,0,1-.16-1.2,3.64,3.64,0,0,1,.17-1.12,2.69,2.69,0,0,1,.52-.93,2.51,2.51,0,0,1,.85-.64A2.73,2.73,0,0,1,332.71,248.32Zm-2,3a3.15,3.15,0,0,0,.11.88,2.09,2.09,0,0,0,.35.73,1.72,1.72,0,0,0,.61.5,1.94,1.94,0,0,0,.88.19,1.74,1.74,0,0,0,.84-.2,1.92,1.92,0,0,0,.62-.52,2.33,2.33,0,0,0,.38-.73,2.77,2.77,0,0,0,.13-.85,3.43,3.43,0,0,0-.11-.85,2.43,2.43,0,0,0-.34-.77,1.86,1.86,0,0,0-.6-.56,1.71,1.71,0,0,0-.89-.22,1.78,1.78,0,0,0-.88.2,1.87,1.87,0,0,0-.61.54,2.38,2.38,0,0,0-.36.77A3.51,3.51,0,0,0,330.73,251.33Z"/><path class="cls-3" d="M343,254.56h-.6a2.74,2.74,0,0,1-.62-.06.89.89,0,0,1-.41-.21.82.82,0,0,1-.23-.39,2.42,2.42,0,0,1-.07-.62v-4.18h-1.21v-.62h1.21v-1.8h.74v1.8h1.38v.62h-1.37v4.1a1.64,1.64,0,0,0,0,.31.58.58,0,0,0,.1.23.46.46,0,0,0,.19.15.81.81,0,0,0,.32.05H343l.19,0v.62Z"/><path class="cls-3" d="M348.95,254.51v-3.8a2,2,0,0,0-.38-1.32,1.41,1.41,0,0,0-1.15-.45,1.86,1.86,0,0,0-.8.16,1.75,1.75,0,0,0-.59.44,2,2,0,0,0-.37.66,2.43,2.43,0,0,0-.13.79v3.52h-.74v-8.33h.74v3.35h0a1.71,1.71,0,0,1,.31-.51,1.94,1.94,0,0,1,.46-.38,2.26,2.26,0,0,1,1.17-.32,3,3,0,0,1,1,.14,1.69,1.69,0,0,1,.68.42,1.72,1.72,0,0,1,.39.71,3.48,3.48,0,0,1,.13,1v3.93Z"/><path class="cls-3" d="M354,248.32a2.49,2.49,0,0,1,1.19.27,2.38,2.38,0,0,1,.82.72,3.16,3.16,0,0,1,.48,1,4.79,4.79,0,0,1,.16,1.23v.12h-4.63a3.28,3.28,0,0,0,.12.87,2.39,2.39,0,0,0,.35.76,1.81,1.81,0,0,0,.6.54,1.75,1.75,0,0,0,.87.21,2.26,2.26,0,0,0,.64-.09,1.88,1.88,0,0,0,.51-.24,1.63,1.63,0,0,0,.38-.36,2.2,2.2,0,0,0,.27-.45h.72a2.75,2.75,0,0,1-.35.72,2.26,2.26,0,0,1-.54.55,2.45,2.45,0,0,1-.72.35,3.07,3.07,0,0,1-.91.13,2.69,2.69,0,0,1-1.19-.25,2.34,2.34,0,0,1-.83-.67,2.87,2.87,0,0,1-.49-1,4.71,4.71,0,0,1-.16-1.26,4.26,4.26,0,0,1,.16-1.18,3.09,3.09,0,0,1,.5-1,2.47,2.47,0,0,1,2.06-1Zm1.91,2.76a2.79,2.79,0,0,0-.15-.78,2.22,2.22,0,0,0-.37-.69,1.88,1.88,0,0,0-.6-.49,1.68,1.68,0,0,0-.81-.19,1.69,1.69,0,0,0-1.37.64,2.47,2.47,0,0,0-.39.68,3.92,3.92,0,0,0-.21.82Z"/><path class="cls-3" d="M236.43,259.38v8.33h-.74v-8.33Z"/><path class="cls-3" d="M243.65,267.66l-.24,0h-.22a1.25,1.25,0,0,1-.41-.06.59.59,0,0,1-.27-.18.76.76,0,0,1-.15-.33,2.24,2.24,0,0,1,0-.49h0a2.8,2.8,0,0,1-.95,1,2.56,2.56,0,0,1-1.24.27,2.26,2.26,0,0,1-1.47-.46,1.6,1.6,0,0,1-.55-1.31,1.52,1.52,0,0,1,.6-1.31,6.2,6.2,0,0,1,2.71-.63,1.84,1.84,0,0,0,.41-.08.67.67,0,0,0,.26-.15.54.54,0,0,0,.14-.24,1.17,1.17,0,0,0,0-.35,1.14,1.14,0,0,0-.37-.92,1.85,1.85,0,0,0-1.2-.31,2.39,2.39,0,0,0-.66.08,1.52,1.52,0,0,0-.49.23,1,1,0,0,0-.31.35,1.14,1.14,0,0,0-.12.45h-.74a1.83,1.83,0,0,1,.2-.71A1.64,1.64,0,0,1,239,262a2.23,2.23,0,0,1,.74-.35,3.67,3.67,0,0,1,1-.12,2.42,2.42,0,0,1,1.68.49,1.8,1.8,0,0,1,.54,1.39v3.27a.43.43,0,0,0,.1.3.42.42,0,0,0,.33.11.65.65,0,0,0,.23,0Zm-1.4-3.25h0q-.11.2-.7.28l-.61.09-.67.11a2.44,2.44,0,0,0-1.07.4.92.92,0,0,0-.36.77,1.06,1.06,0,0,0,.4.86,1.47,1.47,0,0,0,.95.32,2.16,2.16,0,0,0,1.5-.53,1.7,1.7,0,0,0,.6-1.32Z"/><path class="cls-3" d="M249.46,266.07a1.54,1.54,0,0,1-.2.8,1.75,1.75,0,0,1-.54.56,2.56,2.56,0,0,1-.77.33,3.66,3.66,0,0,1-.9.11,3.36,3.36,0,0,1-1-.13,2.2,2.2,0,0,1-.74-.38,1.83,1.83,0,0,1-.49-.59,2.18,2.18,0,0,1-.23-.78h.74a1.58,1.58,0,0,0,.18.51,1.3,1.3,0,0,0,.35.39,1.67,1.67,0,0,0,.52.25,2.32,2.32,0,0,0,.68.09,2.76,2.76,0,0,0,.55-.06,1.87,1.87,0,0,0,.54-.19,1.25,1.25,0,0,0,.41-.35.88.88,0,0,0,.16-.54.85.85,0,0,0-.31-.67,2.39,2.39,0,0,0-1-.42l-.92-.2a3.71,3.71,0,0,1-.71-.22,1.93,1.93,0,0,1-.53-.34,1.34,1.34,0,0,1-.33-.46,1.48,1.48,0,0,1-.11-.59,1.44,1.44,0,0,1,.2-.77,1.63,1.63,0,0,1,.51-.52,2.3,2.3,0,0,1,.72-.3,3.45,3.45,0,0,1,.81-.1,3,3,0,0,1,.85.11,2.11,2.11,0,0,1,.67.33,1.69,1.69,0,0,1,.46.53,1.91,1.91,0,0,1,.23.72h-.74a1.21,1.21,0,0,0-.17-.46,1.14,1.14,0,0,0-.33-.34,1.54,1.54,0,0,0-.46-.2,2.15,2.15,0,0,0-.56-.07,2.59,2.59,0,0,0-.53.05,1.47,1.47,0,0,0-.46.18,1,1,0,0,0-.33.32.89.89,0,0,0-.12.49.68.68,0,0,0,.12.4,1.14,1.14,0,0,0,.3.29,1.73,1.73,0,0,0,.4.2,3.3,3.3,0,0,0,.42.12l1.26.28a2.59,2.59,0,0,1,.54.19,1.63,1.63,0,0,1,.46.32,1.51,1.51,0,0,1,.31.47A1.56,1.56,0,0,1,249.46,266.07Z"/><path class="cls-3" d="M253.5,267.76h-.6a2.8,2.8,0,0,1-.62-.06.88.88,0,0,1-.41-.21.82.82,0,0,1-.23-.39,2.42,2.42,0,0,1-.07-.62v-4.18h-1.21v-.62h1.21v-1.8h.74v1.8h1.38v.62h-1.37v4.1a1.64,1.64,0,0,0,0,.31.58.58,0,0,0,.1.23.46.46,0,0,0,.19.15.8.8,0,0,0,.32.05h.55l.19,0v.62Z"/><path class="cls-3" d="M263.7,267.66l-.24,0h-.22a1.25,1.25,0,0,1-.41-.06.59.59,0,0,1-.27-.18.76.76,0,0,1-.15-.33,2.24,2.24,0,0,1,0-.49h0a2.8,2.8,0,0,1-.95,1,2.56,2.56,0,0,1-1.24.27,2.26,2.26,0,0,1-1.47-.46,1.6,1.6,0,0,1-.55-1.31,1.52,1.52,0,0,1,.6-1.31,6.2,6.2,0,0,1,2.71-.63,1.84,1.84,0,0,0,.41-.08.67.67,0,0,0,.26-.15.54.54,0,0,0,.14-.24,1.17,1.17,0,0,0,0-.35,1.14,1.14,0,0,0-.37-.92,1.85,1.85,0,0,0-1.2-.31,2.39,2.39,0,0,0-.66.08,1.52,1.52,0,0,0-.49.23,1,1,0,0,0-.31.35,1.14,1.14,0,0,0-.12.45h-.74a1.83,1.83,0,0,1,.2-.71,1.64,1.64,0,0,1,.47-.54,2.23,2.23,0,0,1,.74-.35,3.67,3.67,0,0,1,1-.12,2.42,2.42,0,0,1,1.68.49,1.8,1.8,0,0,1,.54,1.39v3.27a.43.43,0,0,0,.1.3.42.42,0,0,0,.33.11.65.65,0,0,0,.23,0Zm-1.4-3.25h0q-.11.2-.7.28l-.61.09-.67.11a2.44,2.44,0,0,0-1.07.4.92.92,0,0,0-.36.77,1.06,1.06,0,0,0,.4.86,1.47,1.47,0,0,0,.95.32,2.16,2.16,0,0,0,1.5-.53,1.7,1.7,0,0,0,.6-1.32Z"/><path class="cls-3" d="M267.5,261.52a3.19,3.19,0,0,1,.89.12,2.3,2.3,0,0,1,.72.34,1.86,1.86,0,0,1,.51.56,2.12,2.12,0,0,1,.27.75h-.74a1.59,1.59,0,0,0-.2-.47,1.4,1.4,0,0,0-.34-.37,1.57,1.57,0,0,0-.48-.24,2.15,2.15,0,0,0-.62-.08,1.85,1.85,0,0,0-.9.21,2,2,0,0,0-.66.57,2.67,2.67,0,0,0-.41.82,3.3,3.3,0,0,0-.14,1,3.37,3.37,0,0,0,.13.92,2.63,2.63,0,0,0,.39.82,2.09,2.09,0,0,0,.65.59,1.8,1.8,0,0,0,.92.23,1.76,1.76,0,0,0,.65-.12,1.7,1.7,0,0,0,.52-.31,1.63,1.63,0,0,0,.36-.45,1.76,1.76,0,0,0,.19-.53h.74a2.69,2.69,0,0,1-.27.78,2.29,2.29,0,0,1-.5.64,2.33,2.33,0,0,1-.73.44,2.64,2.64,0,0,1-.95.16,2.75,2.75,0,0,1-1.18-.25,2.62,2.62,0,0,1-.89-.68,3,3,0,0,1-.56-1,4.1,4.1,0,0,1,0-2.44,3,3,0,0,1,.54-1,2.68,2.68,0,0,1,.89-.71A2.74,2.74,0,0,1,267.5,261.52Z"/><path class="cls-3" d="M274,267.76h-.6a2.8,2.8,0,0,1-.62-.06.88.88,0,0,1-.41-.21.82.82,0,0,1-.23-.39,2.42,2.42,0,0,1-.07-.62v-4.18h-1.21v-.62h1.21v-1.8h.74v1.8h1.38v.62h-1.37v4.1a1.64,1.64,0,0,0,0,.31.58.58,0,0,0,.1.23.46.46,0,0,0,.19.15.8.8,0,0,0,.32.05H274l.19,0v.62Z"/><path class="cls-3" d="M276.54,259.06v1.18h-.74v-1.18Zm0,2.63v6h-.74v-6Z"/><path class="cls-3" d="M278.59,261.69l1.89,5.28h0l1.87-5.28h.76l-2.25,6h-.78l-2.33-6Z"/><path class="cls-3" d="M286.7,261.52a2.48,2.48,0,0,1,1.19.27,2.39,2.39,0,0,1,.82.72,3.16,3.16,0,0,1,.48,1,4.79,4.79,0,0,1,.16,1.23v.12h-4.63a3.26,3.26,0,0,0,.12.86,2.38,2.38,0,0,0,.35.76,1.83,1.83,0,0,0,.6.54,1.76,1.76,0,0,0,.87.2,2.23,2.23,0,0,0,.64-.09,1.83,1.83,0,0,0,.51-.24,1.6,1.6,0,0,0,.38-.36,2.22,2.22,0,0,0,.27-.45h.72a2.75,2.75,0,0,1-.35.72,2.28,2.28,0,0,1-.54.55,2.45,2.45,0,0,1-.72.35,3,3,0,0,1-.91.13,2.69,2.69,0,0,1-1.19-.24,2.33,2.33,0,0,1-.83-.67,2.88,2.88,0,0,1-.49-1,4.71,4.71,0,0,1-.16-1.26,4.27,4.27,0,0,1,.16-1.18,3.1,3.1,0,0,1,.5-1,2.52,2.52,0,0,1,.85-.71A2.56,2.56,0,0,1,286.7,261.52Zm1.91,2.76a2.79,2.79,0,0,0-.15-.78,2.25,2.25,0,0,0-.37-.69,1.92,1.92,0,0,0-.6-.49,1.69,1.69,0,0,0-.81-.19,1.73,1.73,0,0,0-.79.17,1.76,1.76,0,0,0-.58.47,2.49,2.49,0,0,0-.39.69,3.94,3.94,0,0,0-.21.82Z"/><path class="cls-3" d="M294.16,261.69l1.54,5.15h0l1.47-5.15H298l1.47,5.15h0l1.54-5.15h.78l-1.94,6h-.8l-1.48-5.06h0l-1.47,5.06h-.81l-1.93-6Z"/><path class="cls-3" d="M308.34,267.66l-.24,0h-.22a1.25,1.25,0,0,1-.41-.06.59.59,0,0,1-.27-.18.76.76,0,0,1-.15-.33,2.24,2.24,0,0,1,0-.49h0a2.8,2.8,0,0,1-.95,1,2.56,2.56,0,0,1-1.24.27,2.26,2.26,0,0,1-1.47-.46,1.6,1.6,0,0,1-.55-1.31,1.52,1.52,0,0,1,.6-1.31,6.2,6.2,0,0,1,2.71-.63,1.84,1.84,0,0,0,.41-.08.67.67,0,0,0,.26-.15.54.54,0,0,0,.14-.24,1.17,1.17,0,0,0,0-.35,1.14,1.14,0,0,0-.37-.92,1.85,1.85,0,0,0-1.2-.31,2.39,2.39,0,0,0-.66.08,1.52,1.52,0,0,0-.49.23,1,1,0,0,0-.31.35,1.14,1.14,0,0,0-.12.45h-.74a1.83,1.83,0,0,1,.2-.71,1.64,1.64,0,0,1,.47-.54,2.23,2.23,0,0,1,.74-.35,3.67,3.67,0,0,1,1-.12,2.42,2.42,0,0,1,1.68.49,1.8,1.8,0,0,1,.54,1.39v3.27a.43.43,0,0,0,.1.3.42.42,0,0,0,.33.11.65.65,0,0,0,.23,0Zm-1.4-3.25h0q-.11.2-.7.28l-.61.09-.67.11a2.44,2.44,0,0,0-1.07.4.92.92,0,0,0-.36.77,1.06,1.06,0,0,0,.4.86,1.47,1.47,0,0,0,.95.32,2.16,2.16,0,0,0,1.5-.53,1.7,1.7,0,0,0,.6-1.32Z"/><path class="cls-3" d="M309.65,267.71v-6h.68v1.41h0a2.35,2.35,0,0,1,.83-1.1,2.13,2.13,0,0,1,1.26-.39h.26v.73h-.17A2,2,0,0,0,311,263a2.16,2.16,0,0,0-.59,1.55v3.19Z"/><path class="cls-3" d="M316.58,261.52a3.07,3.07,0,0,1,1,.14,1.69,1.69,0,0,1,.68.42,1.72,1.72,0,0,1,.39.71,3.49,3.49,0,0,1,.13,1v3.93H318v-3.8a2,2,0,0,0-.38-1.32,1.41,1.41,0,0,0-1.15-.45,1.9,1.9,0,0,0-.79.16,1.73,1.73,0,0,0-.6.44,2,2,0,0,0-.38.65,2.41,2.41,0,0,0-.13.81v3.52h-.74v-6h.74v1h0a1.8,1.8,0,0,1,.32-.51,2,2,0,0,1,.45-.38,2.11,2.11,0,0,1,.55-.24A2.3,2.3,0,0,1,316.58,261.52Z"/><path class="cls-3" d="M321.52,259.06v1.18h-.74v-1.18Zm0,2.63v6h-.74v-6Z"/><path class="cls-3" d="M326.22,261.52a3.07,3.07,0,0,1,1,.14,1.69,1.69,0,0,1,.68.42,1.72,1.72,0,0,1,.39.71,3.49,3.49,0,0,1,.13,1v3.93h-.74v-3.8a2,2,0,0,0-.38-1.32,1.41,1.41,0,0,0-1.15-.45,1.9,1.9,0,0,0-.79.16,1.73,1.73,0,0,0-.6.44,2,2,0,0,0-.38.65,2.41,2.41,0,0,0-.13.81v3.52h-.74v-6h.74v1h0a1.8,1.8,0,0,1,.32-.51,2,2,0,0,1,.45-.38,2.11,2.11,0,0,1,.55-.24A2.3,2.3,0,0,1,326.22,261.52Z"/><path class="cls-3" d="M332.76,261.52a2.11,2.11,0,0,1,1.58.7,2.07,2.07,0,0,1,.34.51h0v-1h.74v5.59a3,3,0,0,1-.67,2.11,2.63,2.63,0,0,1-2,.72,4.21,4.21,0,0,1-.85-.09,2.49,2.49,0,0,1-.75-.28,1.73,1.73,0,0,1-.55-.5,1.54,1.54,0,0,1-.26-.75h.74a1.13,1.13,0,0,0,.51.75,2.14,2.14,0,0,0,1.15.26,1.87,1.87,0,0,0,1.48-.56,2.44,2.44,0,0,0,.49-1.66v-1.08h0a2.31,2.31,0,0,1-.34.52,2.07,2.07,0,0,1-.46.39,2.16,2.16,0,0,1-.55.25,2.23,2.23,0,0,1-.62.09,2.9,2.9,0,0,1-1.18-.22,2.23,2.23,0,0,1-.83-.62,2.62,2.62,0,0,1-.49-.95,4.25,4.25,0,0,1-.16-1.2,3.64,3.64,0,0,1,.17-1.12,2.69,2.69,0,0,1,.52-.93,2.51,2.51,0,0,1,.85-.64A2.71,2.71,0,0,1,332.76,261.52Zm-2,3a3.15,3.15,0,0,0,.11.88,2.09,2.09,0,0,0,.35.73,1.72,1.72,0,0,0,.61.5,1.94,1.94,0,0,0,.88.19,1.74,1.74,0,0,0,.84-.2,1.94,1.94,0,0,0,.62-.52,2.33,2.33,0,0,0,.38-.73,2.78,2.78,0,0,0,.13-.85,3.41,3.41,0,0,0-.11-.85,2.41,2.41,0,0,0-.34-.77,1.85,1.85,0,0,0-.6-.56,1.71,1.71,0,0,0-.89-.22,1.79,1.79,0,0,0-.88.2,1.87,1.87,0,0,0-.61.54,2.35,2.35,0,0,0-.36.77A3.49,3.49,0,0,0,330.78,264.53Z"/><path class="cls-3" d="M341.84,266.54v1.17h-1v-1.17Z"/><path class="cls-3" d="M345.22,266.54v1.17h-1v-1.17Z"/><path class="cls-3" d="M348.6,266.54v1.17h-1v-1.17Z"/><rect class="cls-2" x="217.01" y="294.99" width="117" height="114"/><rect class="cls-11" x="231.51" y="307.99" width="88" height="88"/><polygon class="cls-8" points="283.51 334.07 275.51 347.92 267.51 334.07 283.51 334.07"/><circle class="cls-8" cx="275.51" cy="339.99" r="14"/><path class="cls-3" d="M267.78,372.06a2.15,2.15,0,0,1-.28,1.14,2.26,2.26,0,0,1-.76.76,3.46,3.46,0,0,1-1.1.42,6.15,6.15,0,0,1-1.29.13,4.8,4.8,0,0,1-1.28-.16,3.18,3.18,0,0,1-1-.49,2.35,2.35,0,0,1-.69-.79,2.22,2.22,0,0,1-.25-1.08v-.19h.82v.06a1.87,1.87,0,0,0,.16.76,1.65,1.65,0,0,0,.48.62,2.43,2.43,0,0,0,.81.42,3.79,3.79,0,0,0,1.15.16,4,4,0,0,0,.9-.1,2.56,2.56,0,0,0,.79-.32,1.81,1.81,0,0,0,.56-.54,1.38,1.38,0,0,0,.21-.78q0-1.11-1.67-1.52l-2-.49a4,4,0,0,1-.88-.31,2.14,2.14,0,0,1-.6-.44,1.6,1.6,0,0,1-.35-.58,2.24,2.24,0,0,1-.11-.73,2.1,2.1,0,0,1,.25-1,2.34,2.34,0,0,1,.68-.76,3.07,3.07,0,0,1,1-.46,4.16,4.16,0,0,1,1.14-.16,4.34,4.34,0,0,1,1.2.16,2.9,2.9,0,0,1,1,.46,2.27,2.27,0,0,1,.64.75,2.24,2.24,0,0,1,.25,1h-.81a1.6,1.6,0,0,0-.2-.65,1.78,1.78,0,0,0-.46-.53,2.24,2.24,0,0,0-.69-.36,2.81,2.81,0,0,0-.88-.13,3.49,3.49,0,0,0-.91.11,2.16,2.16,0,0,0-.71.33,1.46,1.46,0,0,0-.46.53,1.6,1.6,0,0,0-.16.73,1.2,1.2,0,0,0,.11.52,1.13,1.13,0,0,0,.29.38,1.54,1.54,0,0,0,.43.25,4,4,0,0,0,.53.17l2,.48a3.73,3.73,0,0,1,1.76.85A1.93,1.93,0,0,1,267.78,372.06Z"/><path class="cls-3" d="M274.91,365.77v.7h-3v7.87h-.81v-7.87h-3v-.7Z"/><path class="cls-3" d="M283.31,370.05a4.7,4.7,0,0,1-1.1,3.2,3.68,3.68,0,0,1-2.94,1.27,3.72,3.72,0,0,1-2.95-1.25,5.26,5.26,0,0,1,0-6.43,3.72,3.72,0,0,1,2.95-1.25,4.81,4.81,0,0,1,.77.06,4,4,0,0,1,.74.19,3.72,3.72,0,0,1,.69.34,3.43,3.43,0,0,1,.61.49,3.49,3.49,0,0,1,.55.71,4.58,4.58,0,0,1,.38.83,5.41,5.41,0,0,1,.22.91A6.57,6.57,0,0,1,283.31,370.05Zm-.81,0a4.21,4.21,0,0,0-.85-2.69,2.86,2.86,0,0,0-2.38-1.08,2.89,2.89,0,0,0-2.36,1.05,4.15,4.15,0,0,0-.86,2.71,4.22,4.22,0,0,0,.85,2.7,3.16,3.16,0,0,0,4.74,0A4.21,4.21,0,0,0,282.5,370.05Z"/><path class="cls-3" d="M291.08,368.22a2.34,2.34,0,0,1-.7,1.8,2.55,2.55,0,0,1-1.8.64h-3v3.67h-.82v-8.57h3.86a2.53,2.53,0,0,1,1.8.65A2.33,2.33,0,0,1,291.08,368.22Zm-.81,0a1.68,1.68,0,0,0-.5-1.29,2.11,2.11,0,0,0-1.49-.46h-2.74V370h2.85a2,2,0,0,0,1.35-.45A1.65,1.65,0,0,0,290.26,368.22Z"/><line class="cls-12" x1="232" y1="396" x2="320" y2="396"/></g></svg>