<svg xmlns="http://www.w3.org/2000/svg" xmlns:xlink="http://www.w3.org/1999/xlink" viewBox="0 0 750 124"><defs><style>.cls-1{fill:none;}.cls-2{fill:#242424;}.cls-3,.cls-4{fill:#fff;}.cls-4{fill-rule:evenodd;}.cls-5{clip-path:url(#clip-path);}</style><clipPath id="clip-path"><rect class="cls-1" x="24" y="58" width="48" height="48"/></clipPath></defs><title>Artboard 28</title><g id="Layer_1" data-name="Layer 1"><g id="V1"><rect id="Nav_bar_background" data-name="Nav bar background" class="cls-2" y="40" width="750" height="84"/><g id="Nav_bar_title" data-name="Nav bar title"><path class="cls-3" d="M359.81,71.47v2h-8.47v22.3H349V73.45h-8.47v-2Z"/><path class="cls-3" d="M364.51,69v3.65h-2.27V69Zm0,8.13V95.74h-2.27V77.15Z"/><path class="cls-3" d="M378.25,95.92l-.64,0L377,96h-.57a8.59,8.59,0,0,1-1.93-.18,2.74,2.74,0,0,1-1.27-.64,2.54,2.54,0,0,1-.7-1.22,7.48,7.48,0,0,1-.21-1.93V79.06h-3.74V77.15h3.74V71.57h2.27v5.58h4.25v1.91h-4.25V91.74a4.94,4.94,0,0,0,.08,1,1.79,1.79,0,0,0,.3.72,1.4,1.4,0,0,0,.6.46,2.48,2.48,0,0,0,1,.17H377l.6,0,.64,0,.59,0v1.93A5.08,5.08,0,0,1,378.25,95.92Z"/><path class="cls-3" d="M386.14,70V95.74h-2.27V70Z"/><path class="cls-3" d="M399.69,76.62a7.68,7.68,0,0,1,3.69.83,7.36,7.36,0,0,1,2.54,2.22,9.78,9.78,0,0,1,1.48,3.21,14.73,14.73,0,0,1,.48,3.79V87H393.56a10.16,10.16,0,0,0,.36,2.67,7.34,7.34,0,0,0,1.1,2.35,5.64,5.64,0,0,0,1.87,1.67,5.43,5.43,0,0,0,2.69.63,6.92,6.92,0,0,0,2-.27,5.75,5.75,0,0,0,1.58-.73,5,5,0,0,0,1.18-1.1,6.81,6.81,0,0,0,.82-1.39h2.22a8.46,8.46,0,0,1-1.09,2.22,7,7,0,0,1-1.66,1.7,7.61,7.61,0,0,1-2.22,1.1,9.46,9.46,0,0,1-2.81.39,8.33,8.33,0,0,1-3.68-.75,7.24,7.24,0,0,1-2.58-2.08,8.83,8.83,0,0,1-1.53-3.12,14.56,14.56,0,0,1-.5-3.89,13.23,13.23,0,0,1,.51-3.64,9.51,9.51,0,0,1,1.54-3.15,7.76,7.76,0,0,1,2.61-2.21A7.91,7.91,0,0,1,399.69,76.62Zm5.91,8.53a8.61,8.61,0,0,0-.45-2.4A6.92,6.92,0,0,0,404,80.62a5.87,5.87,0,0,0-1.84-1.53,5.21,5.21,0,0,0-2.5-.58,5.37,5.37,0,0,0-2.45.53,5.44,5.44,0,0,0-1.79,1.44,7.67,7.67,0,0,0-1.2,2.12,12.26,12.26,0,0,0-.66,2.55Z"/></g><rect id="Status_bar_background" data-name="Status bar background" class="cls-2" width="750" height="40"/><g id="iOS_status_bar" data-name="iOS status bar"><path class="cls-3" d="M331,10h12v2.61a19.64,19.64,0,0,0-2.44,3.08,22.56,22.56,0,0,0-1.9,3.38,22.05,22.05,0,0,0-1.32,3.71,35.66,35.66,0,0,0-.68,4.21h-3a24.72,24.72,0,0,1,.69-3.87,23.78,23.78,0,0,1,1.39-3.74,24.54,24.54,0,0,1,2-3.38,30.69,30.69,0,0,1,2.43-3H331Z"/><path class="cls-3" d="M346,15h3v3h-3Zm0,9h3v3h-3Z"/><path class="cls-3" d="M357.3,10a4.89,4.89,0,0,1,2.94.83A5.7,5.7,0,0,1,362,12.93a9.46,9.46,0,0,1,.87,2.82,19.57,19.57,0,0,1,0,6,9.43,9.43,0,0,1-.87,2.82,5.69,5.69,0,0,1-1.78,2.11,5.64,5.64,0,0,1-5.89,0,5.69,5.69,0,0,1-1.78-2.11,9.37,9.37,0,0,1-.86-2.82,19.5,19.5,0,0,1,0-6,9.4,9.4,0,0,1,.86-2.82,5.7,5.7,0,0,1,1.78-2.11A4.89,4.89,0,0,1,357.3,10Zm0,15.19a2.21,2.21,0,0,0,1.49-.52,3.5,3.5,0,0,0,.95-1.39,8.36,8.36,0,0,0,.49-2.05,20.64,20.64,0,0,0,.14-2.5,20.3,20.3,0,0,0-.14-2.48,8.57,8.57,0,0,0-.49-2.05,3.5,3.5,0,0,0-.95-1.4,2.42,2.42,0,0,0-3,0,3.54,3.54,0,0,0-.94,1.4,8.52,8.52,0,0,0-.49,2.05,20.31,20.31,0,0,0-.14,2.48,20.65,20.65,0,0,0,.14,2.5,8.31,8.31,0,0,0,.49,2.05,3.54,3.54,0,0,0,.94,1.39A2.2,2.2,0,0,0,357.3,25.19Z"/><path class="cls-3" d="M367.85,23a1.9,1.9,0,0,0,.73,1.61,2.3,2.3,0,0,0,1.72.61,2.57,2.57,0,0,0,1.77-.6,4,4,0,0,0,1-1.47,7.55,7.55,0,0,0,.49-1.88q.13-1,.2-1.84l0,0a3.74,3.74,0,0,1-1.51,1.5,4.39,4.39,0,0,1-2.11.52,5.59,5.59,0,0,1-2.17-.41,4.89,4.89,0,0,1-1.67-1.14,5.1,5.1,0,0,1-1.08-1.78,6.75,6.75,0,0,1-.38-2.34,6.53,6.53,0,0,1,.38-2.27,5.21,5.21,0,0,1,1.13-1.82,5.1,5.1,0,0,1,1.83-1.21,6.55,6.55,0,0,1,2.45-.43,5.68,5.68,0,0,1,2.93.68,4.92,4.92,0,0,1,1.81,1.87,8.59,8.59,0,0,1,.92,2.8,21.22,21.22,0,0,1,.26,3.43,14.75,14.75,0,0,1-.32,3,9.22,9.22,0,0,1-1.07,2.8,6.16,6.16,0,0,1-2,2.05,5.84,5.84,0,0,1-4.89.46,5.08,5.08,0,0,1-1.57-.94,4.56,4.56,0,0,1-1.12-1.38,3.25,3.25,0,0,1-.48-1.81Zm2.62-10.73a2.87,2.87,0,0,0-1.3.28,2.55,2.55,0,0,0-.91.76,3.39,3.39,0,0,0-.54,1.1,4.65,4.65,0,0,0-.18,1.3,4.86,4.86,0,0,0,.18,1.33,3.37,3.37,0,0,0,.54,1.12,2.77,2.77,0,0,0,.91.78,2.66,2.66,0,0,0,1.3.3,3,3,0,0,0,1.35-.29,2.65,2.65,0,0,0,.95-.78,3.56,3.56,0,0,0,.56-1.13,4.59,4.59,0,0,0,.19-1.33,4.38,4.38,0,0,0-.19-1.3,3.28,3.28,0,0,0-.56-1.09,2.76,2.76,0,0,0-.95-.76A3,3,0,0,0,370.47,12.27Z"/><path class="cls-3" d="M386,10h7.42a7.21,7.21,0,0,1,3,.52,4.71,4.71,0,0,1,1.78,1.32,4.47,4.47,0,0,1,.85,1.73,7.35,7.35,0,0,1,.23,1.73A7.21,7.21,0,0,1,399,17a4.49,4.49,0,0,1-.85,1.72,5,5,0,0,1-1.78,1.53,7.13,7.13,0,0,1-3,.74H389v6h-3Zm3,8h4.25a3.79,3.79,0,0,0,1-.09,2.92,2.92,0,0,0,1-.44,2.36,2.36,0,0,0,.72-.85,2.94,2.94,0,0,0,.28-1.35,3.48,3.48,0,0,0-.24-1.39,2.22,2.22,0,0,0-.65-.87c-.27-.22-.59-.58-.94-.66A5.15,5.15,0,0,0,393.3,12H389Z"/><path class="cls-3" d="M402,10h4.06l4.73,13h0l4.61-13H420V27h-3V14h-.28L412,27h-2.47l-4.76-13H405V27h-3Z"/><g id="GSM"><path class="cls-3" d="M166.69,12a15.31,15.31,0,0,1,10.13,3.83l1.88-2.11a17.43,17.43,0,0,0-24,0l1.88,2.11A15.31,15.31,0,0,1,166.69,12Z"/><path class="cls-3" d="M166.69,18a9.31,9.31,0,0,1,6.09,2.27l2-2.23a12,12,0,0,0-16.16,0l2,2.23A9.3,9.3,0,0,1,166.69,18Z"/><path class="cls-3" d="M170.78,22.53a6.11,6.11,0,0,0-8.19,0l4.09,4.59Z"/><path class="cls-4" d="M20.33,14.49a5.5,5.5,0,1,1-5.5,5.5A5.5,5.5,0,0,1,20.33,14.49Z"/><path class="cls-4" d="M35.08,14.49a5.5,5.5,0,1,1-5.5,5.5A5.5,5.5,0,0,1,35.08,14.49Z"/><path class="cls-4" d="M50,14.49a5.5,5.5,0,1,1-5.5,5.5A5.5,5.5,0,0,1,50,14.49Z"/><path class="cls-3" d="M64.71,15.49a4.5,4.5,0,1,1-4.5,4.5,4.5,4.5,0,0,1,4.5-4.5m0-1a5.5,5.5,0,1,0,5.5,5.5,5.5,5.5,0,0,0-5.5-5.5Z"/><path class="cls-3" d="M79.33,15.49a4.5,4.5,0,1,1-4.5,4.5,4.5,4.5,0,0,1,4.5-4.5m0-1a5.5,5.5,0,1,0,5.5,5.5,5.5,5.5,0,0,0-5.5-5.5Z"/><path class="cls-3" d="M107.88,27l-.22-3h0a2.85,2.85,0,0,1-1.07,1.58,5.86,5.86,0,0,1-1.4,1.08,6.19,6.19,0,0,1-1.64.61,8.38,8.38,0,0,1-1.81.19,8.1,8.1,0,0,1-3.54-.73,7.34,7.34,0,0,1-2.53-2,8.31,8.31,0,0,1-1.51-2.83,11.61,11.61,0,0,1,0-6.77,8.45,8.45,0,0,1,1.51-2.84,7.28,7.28,0,0,1,2.53-2,8.1,8.1,0,0,1,3.54-.73,8.8,8.8,0,0,1,2.54.36,6.56,6.56,0,0,1,2.14,1.08A5.85,5.85,0,0,1,108,12.69a5.73,5.73,0,0,1,.89,2.31h-1.63a14.22,14.22,0,0,0-.49-1.34,4.92,4.92,0,0,0-1.13-1.3,5.73,5.73,0,0,0-1.69-1,5.88,5.88,0,0,0-2.21-.38,6.18,6.18,0,0,0-2.93.66,5.8,5.8,0,0,0-2,1.72,7.4,7.4,0,0,0-1.15,2.41,10.39,10.39,0,0,0,0,5.51,7.38,7.38,0,0,0,1.15,2.42,5.8,5.8,0,0,0,2,1.71,6.17,6.17,0,0,0,2.93.65,6.5,6.5,0,0,0,2.53-.47,5.27,5.27,0,0,0,1.88-1.31,5.11,5.11,0,0,0,1.15-1.9,6.65,6.65,0,0,0,.36-2.42H102V18h7v9Z"/><path class="cls-3" d="M113.38,23.45A4,4,0,0,0,114.57,25a5,5,0,0,0,1.79.82,10.22,10.22,0,0,0,2.21.26,6.17,6.17,0,0,0,1.46-.18,5.1,5.1,0,0,0,1.48-.6,3.75,3.75,0,0,0,1.14-1.08,2.74,2.74,0,0,0,.46-1.59,2.34,2.34,0,0,0-.32-1.25,3,3,0,0,0-.84-.89,4.91,4.91,0,0,0-1.14-.59,11.08,11.08,0,0,0-1.22-.37l-3.82-.94a11.33,11.33,0,0,1-1.45-.48,4.1,4.1,0,0,1-1.24-.77,3.65,3.65,0,0,1-.85-1.18,4,4,0,0,1-.32-1.7,5.43,5.43,0,0,1,.24-1.46,4.06,4.06,0,0,1,.9-1.58,5.24,5.24,0,0,1,1.81-1.26,7.26,7.26,0,0,1,3-.52,8.63,8.63,0,0,1,2.42.34,6,6,0,0,1,2,1,5.05,5.05,0,0,1,1.38,1.69,4.72,4.72,0,0,1,.52,2.33H122.5a3,3,0,0,0-.44-1.73A3.87,3.87,0,0,0,121,12a4.54,4.54,0,0,0-1.46-.75,6,6,0,0,0-1.74-.25,7.18,7.18,0,0,0-1.62.18,4.06,4.06,0,0,0-1.37.57,3,3,0,0,0-.95,1,3.27,3.27,0,0,0-.36,1.61,2.49,2.49,0,0,0,.2,1,2.21,2.21,0,0,0,.56.76,3,3,0,0,0,.83.5,6.24,6.24,0,0,0,1,.31l4.18,1a12,12,0,0,1,1.72.59,5.7,5.7,0,0,1,1.42.86,3.67,3.67,0,0,1,1,1.26,4.23,4.23,0,0,1,.35,1.8,6.69,6.69,0,0,1-.06.77,3.9,3.9,0,0,1-.29,1,5.11,5.11,0,0,1-.65,1.09,4.1,4.1,0,0,1-1.15,1,6.68,6.68,0,0,1-1.81.72,10.61,10.61,0,0,1-2.59.28,10.78,10.78,0,0,1-2.81-.35A6,6,0,0,1,113.16,26a5.56,5.56,0,0,1-1.4-2.09c-.33-.75-.47-1-.42-3H113A5.61,5.61,0,0,0,113.38,23.45Z"/><path class="cls-3" d="M129.67,10l5.69,15,5.9-15H144V27h-2V12h0l-5.86,15h-1.54L129,12h0V27h-2V10Z"/></g><g id="Battery"><path class="cls-3" d="M622.89,27a5,5,0,0,1,.43-2.14,6.26,6.26,0,0,1,1.08-1.7,10,10,0,0,1,1.51-1.39c.56-.42,1.14-.82,1.73-1.22s1.18-.79,1.76-1.2a11.71,11.71,0,0,0,1.57-1.3,5.22,5.22,0,0,0,1-1.43,4,4,0,0,0,.35-1.74,3.36,3.36,0,0,0-.3-1.45,3.22,3.22,0,0,0-.82-1.08,3.55,3.55,0,0,0-1.2-.67,4.58,4.58,0,0,0-1.45-.23,3.76,3.76,0,0,0-1.76.38,3.3,3.3,0,0,0-1.19,1,4,4,0,0,0-.66,1.42,9.93,9.93,0,0,0-.18,1.71h-1.51a6.88,6.88,0,0,1,.3-2.32,5,5,0,0,1,1-1.85,4.53,4.53,0,0,1,1.69-1.22,6,6,0,0,1,2.39-.44,6.77,6.77,0,0,1,2.05.31,4.86,4.86,0,0,1,1.66.89,4,4,0,0,1,1.1,1.48,5,5,0,0,1,.4,2.07,5.09,5.09,0,0,1-.35,1.92,6.11,6.11,0,0,1-.94,1.58,9.19,9.19,0,0,1-1.34,1.33,16.34,16.34,0,0,1-1.6,1.14q-.6.41-1.42.9a15.14,15.14,0,0,0-1.57,1.09,9.5,9.5,0,0,0-1.33,1.44,2.4,2.4,0,0,0-.72,1.68H634v1Z"/><path class="cls-3" d="M645,11A5.57,5.57,0,0,1,646.8,13a9,9,0,0,1,.86,2.78,20,20,0,0,1,0,6,9,9,0,0,1-.86,2.78,5.46,5.46,0,0,1-1.78,2,6,6,0,0,1-6,0,5.42,5.42,0,0,1-1.79-2,9,9,0,0,1-.86-2.78,20,20,0,0,1,0-6,9,9,0,0,1,.86-2.78A5.52,5.52,0,0,1,639.06,11a5.93,5.93,0,0,1,6,0Zm-5.29,1.21A4.73,4.73,0,0,0,638.42,14a9.13,9.13,0,0,0-.59,2.4,21.74,21.74,0,0,0-.14,2.38,21.58,21.58,0,0,0,.14,2.39,9.27,9.27,0,0,0,.59,2.4,4.71,4.71,0,0,0,1.31,1.86,3.94,3.94,0,0,0,4.61,0,4.72,4.72,0,0,0,1.31-1.86,9.23,9.23,0,0,0,.59-2.4,21.58,21.58,0,0,0,.14-2.39,21.74,21.74,0,0,0-.14-2.38,9.09,9.09,0,0,0-.59-2.4,4.74,4.74,0,0,0-1.31-1.85,3.94,3.94,0,0,0-4.61,0Z"/><path class="cls-3" d="M655.92,10.53a3.13,3.13,0,0,1,1.19,1,4.14,4.14,0,0,1,.67,1.44,7.52,7.52,0,0,1,0,3.58,4.12,4.12,0,0,1-.67,1.44,3.14,3.14,0,0,1-1.19,1,4.53,4.53,0,0,1-3.48,0,3.13,3.13,0,0,1-1.19-1,4.1,4.1,0,0,1-.67-1.44,7.51,7.51,0,0,1,0-3.58,4.12,4.12,0,0,1,.67-1.44,3.13,3.13,0,0,1,1.19-1,4.53,4.53,0,0,1,3.48,0Zm-3,1.06a2.38,2.38,0,0,0-.78.84,3.59,3.59,0,0,0-.4,1.13,6.79,6.79,0,0,0-.11,1.19,6.62,6.62,0,0,0,.11,1.18,3.45,3.45,0,0,0,.4,1.1,2.42,2.42,0,0,0,.78.83,2.24,2.24,0,0,0,1.26.32,2.2,2.2,0,0,0,1.24-.32,2.42,2.42,0,0,0,.78-.83,3.69,3.69,0,0,0,.41-1.1,6.06,6.06,0,0,0,.12-1.18,6.22,6.22,0,0,0-.12-1.19,3.85,3.85,0,0,0-.41-1.13,2.38,2.38,0,0,0-.78-.84,2.21,2.21,0,0,0-1.24-.32A2.25,2.25,0,0,0,652.92,11.59ZM665.27,10,654.42,28h-1.15l10.87-18Zm1.19,8.77a3.12,3.12,0,0,1,1.19,1,4.11,4.11,0,0,1,.67,1.44,7.52,7.52,0,0,1,0,3.58,4.12,4.12,0,0,1-.67,1.44,3,3,0,0,1-1.19.95,4.68,4.68,0,0,1-3.48,0,3,3,0,0,1-1.19-.95,4.1,4.1,0,0,1-.67-1.44,7.52,7.52,0,0,1,0-3.58,4.09,4.09,0,0,1,.67-1.44,3.12,3.12,0,0,1,1.19-1,4.53,4.53,0,0,1,3.48,0Zm-3,1.06a2.38,2.38,0,0,0-.78.84,3.56,3.56,0,0,0-.4,1.13,6.8,6.8,0,0,0-.11,1.19,6.62,6.62,0,0,0,.11,1.18,3.42,3.42,0,0,0,.4,1.1,2.41,2.41,0,0,0,.78.83,2.25,2.25,0,0,0,1.26.32,2.2,2.2,0,0,0,1.24-.32,2.42,2.42,0,0,0,.78-.83,3.66,3.66,0,0,0,.41-1.1,6,6,0,0,0,.12-1.18,6.16,6.16,0,0,0-.12-1.19,3.81,3.81,0,0,0-.41-1.13,2.39,2.39,0,0,0-.78-.84,2.2,2.2,0,0,0-1.24-.32A2.24,2.24,0,0,0,663.46,19.82Z"/><path class="cls-3" d="M716,11a3,3,0,0,1,3,3V25a3,3,0,0,1-3,3H679a3,3,0,0,1-3-3V14a3,3,0,0,1,3-3h37m0-1H679a4,4,0,0,0-4,4V25a4,4,0,0,0,4,4h37a4,4,0,0,0,4-4V14a4,4,0,0,0-4-4Z"/><path class="cls-3" d="M682,12h-3a2,2,0,0,0-2,2V25a2,2,0,0,0,2,2h6V12Z"/></g></g><g class="cls-5"><g class="cls-5"><path class="cls-3" d="M30,94H66V90H30Zm0-10H50V80H30Zm0-10H66V70H30Z"/></g></g></g></g></svg>