<svg xmlns="http://www.w3.org/2000/svg" viewBox="0 0 1366.5 33"><defs><style>.cls-1{fill:#242424;}.cls-2,.cls-4{opacity:0;}.cls-3{fill:#42b8e9;opacity:0.4;}.cls-3,.cls-4,.cls-5{stroke:#000;}.cls-3,.cls-4,.cls-5,.cls-7{stroke-miterlimit:10;}.cls-4{fill:#c2c2c2;}.cls-5,.cls-7{fill:none;}.cls-6{fill:#fff;}.cls-7{stroke:#fff;}</style></defs><title>Artboard 23</title><g id="Layer_1" data-name="Layer 1"><rect class="cls-1" y="32.34" width="1366" height="60"/><path d="M24.89,12.39a14.89,14.89,0,0,1,2.22-.17,4.64,4.64,0,0,1,3.28,1,3.72,3.72,0,0,1,1.14,2.9,4.27,4.27,0,0,1-1.16,3.14,5,5,0,0,1-3.58,1.16,17,17,0,0,1-1.9-.1Zm1,7.15A6.5,6.5,0,0,0,27,19.6a3.11,3.11,0,0,0,3.45-3.43c0-1.91-1.07-3.12-3.28-3.12a6,6,0,0,0-1.22.11Z"/><path d="M32.86,16.38c0-.68,0-1.27,0-1.81h.92l0,1.14h0a1.74,1.74,0,0,1,1.61-1.27,1.12,1.12,0,0,1,.3,0v1a1.56,1.56,0,0,0-.36,0A1.48,1.48,0,0,0,34,16.78a3,3,0,0,0,0,.49v3.09h-1Z"/><path d="M38,12.93a.65.65,0,0,1-1.31,0,.64.64,0,0,1,.66-.66A.63.63,0,0,1,38,12.93Zm-1.18,7.44v-5.8h1.06v5.8Z"/><path d="M40.06,14.56l1.14,3.26a15.06,15.06,0,0,1,.47,1.49h0c.13-.48.3-1,.49-1.49l1.13-3.26h1.1l-2.28,5.8h-1l-2.21-5.8Z"/><path d="M45.9,17.66a1.86,1.86,0,0,0,2,2,3.83,3.83,0,0,0,1.61-.3l.18.76a4.71,4.71,0,0,1-1.93.36,2.7,2.7,0,0,1-2.86-2.93c0-1.75,1-3.13,2.73-3.13A2.46,2.46,0,0,1,50,17.17a3.91,3.91,0,0,1,0,.49ZM49,16.9a1.5,1.5,0,0,0-1.47-1.71,1.75,1.75,0,0,0-1.62,1.71Z"/><path d="M58,20.15a3.9,3.9,0,0,1-1.67.34,2.76,2.76,0,0,1-2.89-3,3,3,0,0,1,3.12-3.08,3.52,3.52,0,0,1,1.46.3l-.24.82a2.46,2.46,0,0,0-1.22-.28,2,2,0,0,0-2.05,2.19,2,2,0,0,0,2,2.17,3,3,0,0,0,1.3-.29Z"/><path d="M64.45,17.42a2.84,2.84,0,0,1-2.89,3.08,2.76,2.76,0,0,1-2.79-3,2.84,2.84,0,0,1,2.88-3.08A2.75,2.75,0,0,1,64.45,17.42Zm-4.61.06c0,1.27.73,2.23,1.77,2.23s1.77-.95,1.77-2.25c0-1-.49-2.23-1.74-2.23S59.83,16.38,59.83,17.48Z"/><path d="M65.78,16.13c0-.6,0-1.09,0-1.57h.92l0,.94h0a2,2,0,0,1,1.83-1.07,1.72,1.72,0,0,1,1.65,1.16h0a2.39,2.39,0,0,1,.65-.76,2,2,0,0,1,1.28-.41c.77,0,1.91.5,1.91,2.52v3.42H73V17.08c0-1.12-.41-1.79-1.26-1.79a1.37,1.37,0,0,0-1.25,1,1.74,1.74,0,0,0-.08.53v3.59h-1V16.89c0-.92-.41-1.59-1.21-1.59a1.58,1.58,0,0,0-1.39,1.57v3.5h-1Z"/><path d="M75.8,16.46c0-.74,0-1.34,0-1.89h.95l0,1h0a2.29,2.29,0,0,1,2.07-1.13c1.4,0,2.46,1.19,2.46,3,0,2.09-1.27,3.12-2.64,3.12a2,2,0,0,1-1.79-.91h0v3.15h-1Zm1,1.55a2.37,2.37,0,0,0,0,.43,1.63,1.63,0,0,0,1.59,1.24c1.12,0,1.77-.91,1.77-2.24,0-1.16-.61-2.16-1.73-2.16a1.69,1.69,0,0,0-1.6,1.31,1.71,1.71,0,0,0-.07.43Z"/><path d="M87.9,17.42A2.84,2.84,0,0,1,85,20.5a2.76,2.76,0,0,1-2.79-3,2.84,2.84,0,0,1,2.88-3.08A2.75,2.75,0,0,1,87.9,17.42Zm-4.61.06c0,1.27.73,2.23,1.77,2.23s1.77-.95,1.77-2.25c0-1-.49-2.23-1.74-2.23S83.29,16.38,83.29,17.48Z"/><path d="M89.09,19.29a2.76,2.76,0,0,0,1.39.42c.77,0,1.13-.38,1.13-.86s-.3-.78-1.08-1.07c-1-.37-1.54-.95-1.54-1.64a1.79,1.79,0,0,1,2-1.7,2.9,2.9,0,0,1,1.43.36l-.26.77A2.27,2.27,0,0,0,91,15.22c-.62,0-1,.36-1,.79s.35.7,1.1,1c1,.38,1.52.89,1.52,1.75,0,1-.79,1.74-2.17,1.74a3.32,3.32,0,0,1-1.63-.4Z"/><path d="M94.58,17.66a1.86,1.86,0,0,0,2,2,3.83,3.83,0,0,0,1.61-.3l.18.76a4.71,4.71,0,0,1-1.93.36,2.7,2.7,0,0,1-2.86-2.93c0-1.75,1-3.13,2.73-3.13a2.46,2.46,0,0,1,2.4,2.73,3.91,3.91,0,0,1,0,.49Zm3.1-.76a1.5,1.5,0,0,0-1.47-1.71A1.75,1.75,0,0,0,94.6,16.9Z"/><path d="M100,16.38c0-.68,0-1.27,0-1.81h.92l0,1.14h0a1.74,1.74,0,0,1,1.61-1.27,1.12,1.12,0,0,1,.3,0v1a1.56,1.56,0,0,0-.36,0,1.48,1.48,0,0,0-1.42,1.36,3,3,0,0,0,0,.49v3.09h-1Z"/><path d="M106.49,16.46c0-.74,0-1.34,0-1.89h.95l0,1h0a2.29,2.29,0,0,1,2.07-1.13c1.4,0,2.46,1.19,2.46,3,0,2.09-1.27,3.12-2.64,3.12a2,2,0,0,1-1.79-.91h0v3.15h-1Zm1,1.55a2.37,2.37,0,0,0,0,.43,1.63,1.63,0,0,0,1.59,1.24c1.12,0,1.77-.91,1.77-2.24,0-1.16-.61-2.16-1.73-2.16a1.69,1.69,0,0,0-1.6,1.31,1.71,1.71,0,0,0-.07.43Z"/><path d="M113.33,16.38c0-.68,0-1.27,0-1.81h.92l0,1.14h0a1.74,1.74,0,0,1,1.61-1.27,1.12,1.12,0,0,1,.3,0v1a1.56,1.56,0,0,0-.36,0,1.48,1.48,0,0,0-1.42,1.36,3,3,0,0,0,0,.49v3.09h-1Z"/><path d="M122.4,17.42a2.84,2.84,0,0,1-2.89,3.08,2.76,2.76,0,0,1-2.79-3,2.84,2.84,0,0,1,2.88-3.08A2.75,2.75,0,0,1,122.4,17.42Zm-4.61.06c0,1.27.73,2.23,1.77,2.23s1.77-.95,1.77-2.25c0-1-.49-2.23-1.74-2.23S117.79,16.38,117.79,17.48Z"/><path d="M126.69,14.56l1.14,3.26a15.06,15.06,0,0,1,.47,1.49h0c.13-.48.3-1,.49-1.49L130,14.56h1.1l-2.28,5.8h-1l-2.21-5.8Z"/><path d="M131.34,19.75a.71.71,0,0,1,.72-.76.76.76,0,1,1-.72.76Z"/><path d="M136,13.56h0l-1.36.73-.2-.8,1.71-.91h.9v7.8h-1Z"/><path d="M140,19.75a.71.71,0,0,1,.72-.76.76.76,0,1,1-.72.76Z"/><path d="M144.69,13.56h0l-1.36.73-.2-.8,1.71-.91h.9v7.8h-1Z"/><path d="M150.85,13.56h0l-1.36.73-.2-.8,1.71-.91h.9v7.8h-1Z"/><path d="M157.64,12.39a10.86,10.86,0,0,1,2-.17,3.32,3.32,0,0,1,2.34.66,2,2,0,0,1,.64,1.54,2.12,2.12,0,0,1-1.53,2.06v0a2,2,0,0,1,1.19,1.63,12.85,12.85,0,0,0,.62,2.22h-1.08a10.5,10.5,0,0,1-.54-1.93c-.24-1.12-.67-1.54-1.62-1.57h-1v3.5h-1Zm1,3.68h1.07c1.12,0,1.83-.61,1.83-1.54s-.76-1.5-1.86-1.51a4.31,4.31,0,0,0-1,.1Z"/><path d="M169.8,20.11a5.2,5.2,0,0,1-2.14.38,3.78,3.78,0,0,1-4-4.09,4,4,0,0,1,4.23-4.25,4.33,4.33,0,0,1,1.92.36l-.25.85a3.8,3.8,0,0,0-1.63-.34,3,3,0,0,0-3.16,3.33,2.94,2.94,0,0,0,3.11,3.25,4.18,4.18,0,0,0,1.71-.34Z"/><path d="M173,13.56h0l-1.36.73-.2-.8,1.71-.91h.9v7.8h-1Z"/><g class="cls-2"><rect class="cls-3" x="1317.98" y="0.53" width="48" height="32"/></g><path class="cls-4" d="M1348,10.53v12h-12v-12h12"/><line class="cls-5" x1="1336.36" y1="10.91" x2="1347.61" y2="22.16"/><line class="cls-5" x1="1347.61" y1="10.91" x2="1336.36" y2="22.16"/><g class="cls-2"><rect class="cls-3" x="1269.98" y="0.53" width="48" height="32"/></g><path class="cls-4" d="M1300,10.53v12h-12v-12h12"/><rect class="cls-5" x="1288.48" y="11.03" width="11" height="11"/><g class="cls-2"><rect class="cls-3" x="1221.98" y="0.53" width="48" height="32"/></g><path class="cls-4" d="M1252,10.53v12h-12v-12h12"/><line class="cls-5" x1="1239.98" y1="22.53" x2="1251.98" y2="22.53"/><rect class="cls-1" y="0.5" width="1366" height="32"/><path class="cls-6" d="M24.91,12.36a14.89,14.89,0,0,1,2.22-.17,4.64,4.64,0,0,1,3.28,1,3.72,3.72,0,0,1,1.14,2.9,4.27,4.27,0,0,1-1.16,3.14,5,5,0,0,1-3.58,1.16,16.75,16.75,0,0,1-1.9-.1Zm1,7.15a6.61,6.61,0,0,0,1.06.06,3.11,3.11,0,0,0,3.45-3.43c0-1.91-1.07-3.12-3.28-3.12a5.89,5.89,0,0,0-1.22.11Z"/><path class="cls-6" d="M32.87,16.34c0-.68,0-1.27,0-1.81h.92l0,1.14h0a1.74,1.74,0,0,1,1.61-1.27,1.17,1.17,0,0,1,.3,0v1a1.56,1.56,0,0,0-.36,0A1.48,1.48,0,0,0,34,16.75a3,3,0,0,0,0,.49v3.09h-1Z"/><path class="cls-6" d="M38,12.9a.65.65,0,0,1-1.31,0,.64.64,0,0,1,.66-.66A.63.63,0,0,1,38,12.9Zm-1.18,7.44v-5.8h1.06v5.8Z"/><path class="cls-6" d="M40.07,14.53l1.14,3.26a15.06,15.06,0,0,1,.47,1.49h0c.13-.48.3-1,.49-1.49l1.13-3.26h1.1l-2.28,5.8h-1l-2.21-5.8Z"/><path class="cls-6" d="M45.91,17.63a1.86,1.86,0,0,0,2,2,3.83,3.83,0,0,0,1.61-.3l.18.76a4.71,4.71,0,0,1-1.93.36,2.7,2.7,0,0,1-2.86-2.93c0-1.75,1-3.13,2.73-3.13A2.46,2.46,0,0,1,50,17.13a3.91,3.91,0,0,1,0,.49Zm3.1-.76a1.5,1.5,0,0,0-1.47-1.71,1.75,1.75,0,0,0-1.62,1.71Z"/><path class="cls-6" d="M58,20.12a3.9,3.9,0,0,1-1.67.34,2.76,2.76,0,0,1-2.89-3,3,3,0,0,1,3.12-3.08,3.52,3.52,0,0,1,1.46.3l-.24.82a2.46,2.46,0,0,0-1.22-.28,2,2,0,0,0-2.05,2.19,2,2,0,0,0,2,2.17,3,3,0,0,0,1.3-.29Z"/><path class="cls-6" d="M64.46,17.39a2.84,2.84,0,0,1-2.89,3.08,2.76,2.76,0,0,1-2.79-3,2.84,2.84,0,0,1,2.88-3.08A2.75,2.75,0,0,1,64.46,17.39Zm-4.61.06c0,1.27.73,2.23,1.77,2.23s1.77-.95,1.77-2.25c0-1-.49-2.23-1.74-2.23S59.85,16.34,59.85,17.45Z"/><path class="cls-6" d="M65.8,16.1c0-.6,0-1.09,0-1.57h.92l0,.94h0a2,2,0,0,1,1.83-1.07,1.72,1.72,0,0,1,1.65,1.16h0a2.39,2.39,0,0,1,.65-.76,2,2,0,0,1,1.28-.41c.77,0,1.91.5,1.91,2.52v3.42h-1V17.05c0-1.12-.41-1.79-1.26-1.79a1.37,1.37,0,0,0-1.25,1,1.75,1.75,0,0,0-.08.53v3.59h-1V16.86c0-.92-.41-1.59-1.21-1.59a1.58,1.58,0,0,0-1.39,1.57v3.5h-1Z"/><path class="cls-6" d="M75.82,16.43c0-.74,0-1.34,0-1.89h.95l0,1h0a2.29,2.29,0,0,1,2.07-1.13c1.4,0,2.46,1.19,2.46,3,0,2.09-1.27,3.12-2.64,3.12a2,2,0,0,1-1.79-.91h0v3.15h-1Zm1,1.55a2.38,2.38,0,0,0,0,.43,1.63,1.63,0,0,0,1.59,1.24c1.12,0,1.77-.91,1.77-2.24,0-1.16-.61-2.16-1.73-2.16a1.69,1.69,0,0,0-1.6,1.31,1.71,1.71,0,0,0-.07.43Z"/><path class="cls-6" d="M87.92,17.39A2.84,2.84,0,0,1,85,20.47a2.76,2.76,0,0,1-2.79-3,2.84,2.84,0,0,1,2.88-3.08A2.75,2.75,0,0,1,87.92,17.39Zm-4.61.06c0,1.27.73,2.23,1.77,2.23s1.77-.95,1.77-2.25c0-1-.49-2.23-1.74-2.23S83.3,16.34,83.3,17.45Z"/><path class="cls-6" d="M89.11,19.26a2.77,2.77,0,0,0,1.39.42c.77,0,1.13-.38,1.13-.86s-.3-.78-1.08-1.07c-1-.37-1.54-.95-1.54-1.64a1.79,1.79,0,0,1,2-1.7,2.9,2.9,0,0,1,1.43.36l-.26.77A2.27,2.27,0,0,0,91,15.19c-.62,0-1,.36-1,.79s.35.7,1.1,1c1,.38,1.52.89,1.52,1.75,0,1-.79,1.74-2.17,1.74a3.31,3.31,0,0,1-1.63-.4Z"/><path class="cls-6" d="M94.6,17.63a1.86,1.86,0,0,0,2,2,3.83,3.83,0,0,0,1.61-.3l.18.76a4.71,4.71,0,0,1-1.93.36,2.7,2.7,0,0,1-2.86-2.93c0-1.75,1-3.13,2.73-3.13a2.46,2.46,0,0,1,2.4,2.73,3.91,3.91,0,0,1,0,.49Zm3.1-.76a1.5,1.5,0,0,0-1.47-1.71,1.75,1.75,0,0,0-1.62,1.71Z"/><path class="cls-6" d="M100,16.34c0-.68,0-1.27,0-1.81h.92l0,1.14h0a1.74,1.74,0,0,1,1.61-1.27,1.17,1.17,0,0,1,.3,0v1a1.56,1.56,0,0,0-.36,0,1.48,1.48,0,0,0-1.42,1.36,3,3,0,0,0,0,.49v3.09h-1Z"/><path class="cls-6" d="M106.51,16.43c0-.74,0-1.34,0-1.89h.95l0,1h0a2.29,2.29,0,0,1,2.07-1.13c1.4,0,2.46,1.19,2.46,3,0,2.09-1.27,3.12-2.64,3.12a2,2,0,0,1-1.79-.91h0v3.15h-1Zm1,1.55a2.38,2.38,0,0,0,0,.43,1.63,1.63,0,0,0,1.59,1.24c1.12,0,1.77-.91,1.77-2.24,0-1.16-.61-2.16-1.73-2.16a1.69,1.69,0,0,0-1.6,1.31,1.71,1.71,0,0,0-.07.43Z"/><path class="cls-6" d="M113.35,16.34c0-.68,0-1.27,0-1.81h.92l0,1.14h0a1.74,1.74,0,0,1,1.61-1.27,1.17,1.17,0,0,1,.3,0v1a1.56,1.56,0,0,0-.36,0,1.48,1.48,0,0,0-1.42,1.36,3,3,0,0,0,0,.49v3.09h-1Z"/><path class="cls-6" d="M122.41,17.39a2.84,2.84,0,0,1-2.89,3.08,2.76,2.76,0,0,1-2.79-3,2.84,2.84,0,0,1,2.88-3.08A2.75,2.75,0,0,1,122.41,17.39Zm-4.61.06c0,1.27.73,2.23,1.77,2.23s1.77-.95,1.77-2.25c0-1-.49-2.23-1.74-2.23S117.8,16.34,117.8,17.45Z"/><path class="cls-6" d="M126.71,14.53l1.14,3.26a15.06,15.06,0,0,1,.47,1.49h0c.13-.48.3-1,.49-1.49L130,14.53h1.1l-2.28,5.8h-1l-2.21-5.8Z"/><path class="cls-6" d="M131.36,19.71a.71.71,0,0,1,.72-.76.76.76,0,1,1-.72.76Z"/><path class="cls-6" d="M136.05,13.52h0l-1.36.73-.2-.8,1.71-.91h.9v7.8h-1Z"/><path class="cls-6" d="M140,19.71a.71.71,0,0,1,.72-.76.76.76,0,1,1-.72.76Z"/><path class="cls-6" d="M144.71,13.52h0l-1.36.73-.2-.8,1.71-.91h.9v7.8h-1Z"/><path class="cls-6" d="M150.87,13.52h0l-1.36.73-.2-.8,1.71-.91h.9v7.8h-1Z"/><path class="cls-6" d="M157.66,12.36a10.86,10.86,0,0,1,2-.17,3.32,3.32,0,0,1,2.34.66,2,2,0,0,1,.64,1.54,2.12,2.12,0,0,1-1.53,2.06v0a2,2,0,0,1,1.19,1.63,12.85,12.85,0,0,0,.62,2.22h-1.08a10.5,10.5,0,0,1-.54-1.93c-.24-1.12-.67-1.54-1.62-1.57h-1v3.5h-1Zm1,3.68h1.07c1.12,0,1.83-.61,1.83-1.54s-.76-1.5-1.86-1.51a4.31,4.31,0,0,0-1,.1Z"/><path class="cls-6" d="M169.82,20.07a5.2,5.2,0,0,1-2.14.38,3.78,3.78,0,0,1-4-4.09,4,4,0,0,1,4.23-4.25,4.33,4.33,0,0,1,1.92.36l-.25.85a3.8,3.8,0,0,0-1.63-.34,3,3,0,0,0-3.16,3.33,2.94,2.94,0,0,0,3.11,3.25,4.18,4.18,0,0,0,1.71-.34Z"/><path class="cls-6" d="M173.05,13.52h0l-1.36.73-.2-.8,1.71-.91h.9v7.8h-1Z"/><g class="cls-2"><rect class="cls-3" x="1318" y="0.5" width="48" height="32"/></g><path class="cls-4" d="M1348,10.5v12h-12v-12h12"/><line class="cls-7" x1="1336.37" y1="10.88" x2="1347.62" y2="22.13"/><line class="cls-7" x1="1347.62" y1="10.88" x2="1336.37" y2="22.13"/><g class="cls-2"><rect class="cls-3" x="1270" y="0.5" width="48" height="32"/></g><path class="cls-4" d="M1300,10.5v12h-12v-12h12"/><rect class="cls-7" x="1288.5" y="11" width="11" height="11"/><g class="cls-2"><rect class="cls-3" x="1222" y="0.5" width="48" height="32"/></g><path class="cls-4" d="M1252,10.5v12h-12v-12h12"/><line class="cls-7" x1="1240" y1="22.5" x2="1252" y2="22.5"/></g></svg>