<?xml version="1.0" encoding="utf-8"?>
<!-- Generator: Adobe Illustrator 20.0.0, SVG Export Plug-In . SVG Version: 6.00 Build 0)  -->
<!DOCTYPE svg PUBLIC "-//W3C//DTD SVG 1.1//EN" "http://www.w3.org/Graphics/SVG/1.1/DTD/svg11.dtd">
<svg version="1.1" id="Layer_1" xmlns="http://www.w3.org/2000/svg" xmlns:xlink="http://www.w3.org/1999/xlink" x="0px" y="0px"
	 viewBox="0 0 400 48" style="enable-background:new 0 0 400 48;" xml:space="preserve">
<style type="text/css">
	.st0{fill:#242424;}
	.st1{fill:#FAFAFA;}
	.st2{fill:#FFFFFF;}
</style>
<title>Illegal font</title>
<g id="Bg">
	<polygon class="st0" points="0,48 380,48 400,0 0,0 	"/>
	<rect width="400" height="1"/>
</g>
<path class="st1" d="M28,30h-3.1l-1.5,5H18l3.6-11H28V30z M28,23h-6.1l3.6-10H28V23z M29,13h3l3.6,10H29V13z M39.5,35h-5.4l-1.5-5
	H29v-6h6.9L39.5,35z"/>
<path class="st1" d="M41,23V13h6v10H41z M47,24v11h-6V24H47z M48,23V13h1.6c1.3-0.1,2.5,0.3,3.4,1.2c0.9,0.9,1.4,2.1,1.4,3.4
	c0.1,1.8-0.9,3.4-2.4,4.2c0.8,0.3,1.4,1.2,2,1.2H48z M56,27.9c0.1,1.8-0.6,3.6-1.8,4.9c-1.2,1.3-2.8,2.1-4.6,2.1H48V24h6.7
	C55.6,25.1,56,26.5,56,27.9z"/>
<path class="st1" d="M58,23V13h6v10H58z M64,24v11h-6V24H64z M65,23V13h1.3c1.3-0.1,2.5,0.3,3.4,1.2c0.9,0.9,1.4,2.1,1.4,3.4
	c0.1,1.8-0.9,3.4-2.4,4.2c0.8,0.3,1.4,1.2,2,1.2H65z M72.8,27.9c0.1,1.8-0.6,3.6-1.8,4.9c-1.2,1.3-2.8,2.1-4.6,2.1H65V24h6.5
	C72.3,25.1,72.8,26.5,72.8,27.9z"/>
<g>
	<path class="st2" d="M102.2,21c0,2.6-2.4,3.9-3.9,3.9c-0.3,0-0.5-0.2-0.5-0.5c0-0.2,0.2-0.4,0.5-0.4c1.3-0.1,3-1.2,3-3
		c0-1.7-1.3-2.9-3.2-2.9c-1,0-1.9,0.2-2.7,0.7c0.9,1.7,1.3,4,1.3,6.2c0,4-1.3,6.3-3.1,6.3c-1.6,0-2.7-1.5-2.7-4.7
		c0-2.8,1-6.1,3.3-8.1c-0.6-0.8-1.5-1.4-2.6-1.4c-0.3,0-0.5-0.2-0.5-0.4c0-0.3,0.2-0.5,0.5-0.5c1.3,0,2.6,0.7,3.3,1.8
		c1-0.6,2-0.8,3.2-0.8C100.5,17.1,102.2,18.8,102.2,21z M94.6,19.3c-2,1.8-2.8,5.1-2.8,7.3c0,1.9,0.6,3.8,1.8,3.8
		c1.1,0,2.1-2,2.1-5.3C95.7,23.1,95.4,20.9,94.6,19.3z"/>
	<path class="st2" d="M103.2,30.8c0,0.3-0.2,0.4-0.5,0.4c-0.3,0-0.4-0.2-0.4-0.5c0-0.2,0.6-3.8,0.6-4.5c0-1-0.2-1.3-0.5-1.6
		c-0.1-0.1-0.1-0.2-0.1-0.4c0-0.3,0.2-0.5,0.5-0.5c0.4,0,1,0.7,1,1.8c0.5-1.5,1.7-2.1,2.8-2.1c0.3,0,0.5,0.2,0.5,0.5
		c0,0.3-0.2,0.4-0.5,0.4c-2.3,0.1-2.7,2.8-3.2,5.6L103.2,30.8z"/>
	<path class="st2" d="M113.7,26.3c0,2.4-1.4,4.9-3.6,4.9c-1.5,0-2.5-1.3-2.5-3.4c0-0.6,0.1-1.2,0.3-1.8c0.1-0.2,0.3-0.4,0.5-0.4
		c0.3,0,0.5,0.2,0.5,0.5c0,0.1,0,0.2,0,0.2c-0.1,0.3-0.2,0.9-0.2,1.4c0,1.1,0.5,2.5,1.6,2.5c1.6,0,2.6-2.1,2.6-4
		c0-0.9-0.4-2.1-1.4-2.1c-0.8,0-1.1,0.7-1.1,1.2c0,0.9,0.7,0.9,1,0.9c0.3,0,0.5,0.2,0.5,0.5c0,0.1,0,0.5-0.6,0.5
		c-1.3,0-1.9-0.8-1.9-1.8c0-1.1,0.7-2.2,2.2-2.2C112.8,23.3,113.7,24.6,113.7,26.3z"/>
	<path class="st2" d="M115,27.7c0-2,1.1-4.3,3-4.3c0.9,0,1.6,0.7,1.6,1.1c0,0.3-0.2,0.5-0.5,0.5c-0.2,0-0.3-0.1-0.4-0.2
		c-0.1-0.2-0.4-0.3-0.7-0.3c-1.1,0-2,1.7-2,3.3c0,1.5,0.6,2.5,1.5,2.5c1.8,0,2.7-3.8,2.8-7.8c-1.8-0.5-3.3-1.8-3.3-3.4
		c0-1,0.7-2,1.8-2c0.4,0,0.9,0.2,1.3,0.6c1.1,1.1,1.2,3.7,1.2,4.1c0.2,0,0.5,0.1,0.8,0.1c0.3,0,0.4,0.2,0.4,0.4
		c0,0.2-0.2,0.5-0.4,0.5c-0.3,0-0.5,0-0.9-0.1c0,2.8-0.5,6.3-2,7.8c-0.5,0.5-1.1,0.7-1.7,0.7C116.1,31.2,115,29.9,115,27.7z M118,19
		c0,1.1,1,2.1,2.3,2.5c0-2.6-1-3.5-1.6-3.5C118.2,18,118,18.6,118,19z"/>
	<path class="st2" d="M123.9,24.4c-0.2,1-0.5,2.5-0.5,3.9c0,1,0.2,2.1,0.9,2.1c1.4,0,2.7-2.9,3.2-6.3c0-0.3,0.2-0.4,0.6-0.4
		c0.2,0,0.4,0.3,0.4,0.5c0,0.2-0.2,1.1-0.3,1.8c-0.2,1.2-0.4,2.2-0.4,3c0,0.7,0.1,1.2,0.4,1.5c0.1,0.1,0.1,0.2,0.1,0.3
		c0,0.3-0.2,0.5-0.5,0.5c-0.5,0-1-0.9-1-2.2c-0.6,1.4-1.5,2.2-2.5,2.2c-0.8,0-1.9-0.5-1.9-3c0-1.5,0.3-3.1,0.5-3.9
		c0-0.2,0.1-0.6,0.5-0.6c0.3,0,0.5,0.2,0.5,0.5V24.4z"/>
	<path class="st2" d="M135.1,24.6c0,0.3-0.2,0.5-0.5,0.5c-0.2,0-0.3-0.1-0.4-0.2c-0.2-0.2-0.4-0.4-0.8-0.4c-1.7,0-2.6,2.3-2.6,3.9
		c0,1.8,1,2,1.5,2c0.6,0,1.4-0.3,1.8-1.1c0.1-0.2,0.2-0.3,0.4-0.3c0.3,0,0.4,0.2,0.4,0.5c0,0.4-1,1.8-2.7,1.8
		c-1.4,0-2.4-0.9-2.4-2.9c0-2.4,1.5-4.9,3.7-4.9c0.9,0,1.3,0.4,1.5,0.8C135.1,24.4,135.1,24.5,135.1,24.6z"/>
	<path class="st2" d="M138.8,31.2c0,0-0.1,0-0.2,0c-1.1-0.2-1.6-1.1-1.6-2.8c0-1.1,0.1-2.3,0.5-4c-0.6,0-0.9,0.1-1.2,0.1
		c-0.2,0-0.3-0.1-0.3-0.4c0-0.6,0.9-0.6,1.7-0.7c0.2-0.7,0.4-1.7,0.7-2.6c0.1-0.2,0.2-0.3,0.4-0.4c0.3,0,0.5,0.2,0.5,0.4
		c0,0.1,0,0.2,0,0.2c-0.2,0.7-0.5,1.8-0.6,2.3c0.3,0,0.7,0,1.3,0c0.2,0,0.5,0.2,0.5,0.5c0,0.3-0.2,0.4-0.4,0.4c-0.4,0-1.2,0-1.6-0.1
		c-0.4,1.4-0.6,2.8-0.6,3.9c0,1.7,0.6,1.8,0.9,1.9c0.2,0,0.4,0.2,0.4,0.5C139.3,31,139.1,31.2,138.8,31.2z"/>
	<path class="st2" d="M150.7,26.6c0,1.5-0.4,3.3-0.5,4c-0.1,0.4-0.4,0.4-0.5,0.4c-0.3,0-0.5-0.2-0.5-0.5c0,0,0,0,0-0.1
		c0.2-0.8,0.5-2.4,0.5-3.9c0-1.2-0.2-2-0.8-2c-1.2,0-2.6,2.5-3.3,6.1c0,0.2-0.2,0.4-0.5,0.4c-0.3,0-0.5-0.2-0.5-0.5
		c0-0.3,0.4-1.9,0.5-2.2c0.2-1,0.4-2,0.5-2.7c0-0.7-0.1-1-0.4-1.3c-0.1-0.1-0.1-0.2-0.1-0.4c0-0.2,0.2-0.5,0.5-0.5
		c0.4,0,1,0.8,0.9,2.1c0.6-1.4,1.5-2.1,2.4-2.1C149.5,23.6,150.7,23.9,150.7,26.6z"/>
	<path class="st2" d="M158.4,25.7c0,0.8-0.1,1.8-0.3,2.6c-0.1,0.6-0.2,1.3-0.2,1.8c0,0.1,0,0.2,0,0.3c0,0.1,0.1,0.2,0.1,0.3
		c0,0.2-0.2,0.5-0.5,0.5c-0.5,0-0.6-0.6-0.6-1.1c0-0.5,0.1-1.1,0.2-1.9c0.1-0.8,0.3-1.7,0.3-2.4c0-1.1-0.6-1.5-1.1-1.5
		c-1.7,0-2.9,2.6-2.9,4.6c0,0.8,0.4,1.4,0.9,1.4c0.6,0,1-0.5,1.3-1.1c0.1-0.2,0.2-0.3,0.4-0.3c0.3,0,0.5,0.2,0.5,0.5
		c0,0.4-0.7,1.8-2.3,1.8c-0.9,0-1.8-0.7-1.8-2.3c0-2.3,1.6-5.5,4-5.5C157.7,23.4,158.4,24.2,158.4,25.7z"/>
	<path class="st2" d="M160,30.7c0-0.2,0.2-0.8,0.3-1.4c0.3-1.1,0.6-2.6,0.6-3.8c0-0.2,0-1-0.3-1.3c-0.1-0.1-0.1-0.2-0.1-0.4
		c0-0.3,0.2-0.5,0.5-0.5c0.5,0,1,0.9,0.8,2.4c0.7-1.7,1.6-2.2,2.4-2.2c0.8,0,1.7,0.5,1.8,2.5c0.6-1.7,1.5-2.6,2.6-2.6
		c1,0,1.8,0.9,1.8,3.3c0,1.6-0.4,3.4-0.6,4.2c-0.1,0.2-0.3,0.4-0.5,0.4c-0.3,0-0.5-0.2-0.5-0.5c0,0,0-0.1,0-0.1
		c0.2-0.7,0.6-2.4,0.6-3.8c0-1.2-0.2-2.4-1-2.4c-1.2,0-2.4,2.4-2.8,5c-0.2,1.5-0.3,1.7-0.7,1.7c-0.3,0-0.5-0.2-0.5-0.5
		c0-0.1,0.1-0.7,0.2-1.2c0.2-1,0.3-1.9,0.3-2.8c0-0.5,0-2.1-1-2.1c-1.1,0-2.4,2.6-3.2,6.4c0,0.2-0.2,0.4-0.5,0.4
		C160.2,31.2,160,31,160,30.7z"/>
	<path class="st2" d="M176.6,25.2c0-0.4-0.3-0.7-0.9-0.7c-1.1,0-2.7,1.4-2.7,3.8c0,0.7,0.2,2.1,1.8,2.1c0.6,0,1.2-0.3,1.5-0.7
		c0.1-0.1,0.2-0.2,0.4-0.2c0.3,0,0.4,0.2,0.4,0.5c0,0.4-1.1,1.3-2.4,1.3c-1.7,0-2.8-1.1-2.8-3c0-2.8,1.9-4.7,3.7-4.7
		c1.3,0,1.8,0.8,1.8,1.7c0,1.7-1.8,2.6-3.1,2.6c-0.3,0-0.5-0.2-0.5-0.5c0-0.2,0.2-0.5,0.5-0.5C175.5,26.8,176.6,26.2,176.6,25.2z"/>
</g>
</svg>
