<svg xmlns="http://www.w3.org/2000/svg" viewBox="0 0 400 48"><defs><style>.cls-1{fill:#242424;}.cls-2{fill:#fff;}</style></defs><title>Logo claim</title><g id="Bg"><polygon class="cls-1" points="0 48 380 48 400 0 0 0 0 48"/><rect width="400" height="1"/></g><g id="Layer_1" data-name="Layer 1"><path class="cls-2" d="M99.54,32.9h.84v-.43c0-1.31.69-1.53,1.42-1.53a3.18,3.18,0,0,1,.79.07v.88a1.91,1.91,0,0,0-.53-.06c-.31,0-.56.11-.56.54v.53h1v.84h-1V38h-1.13V33.75h-.84ZM103,35.46a2.59,2.59,0,1,1,5.18,0,2.59,2.59,0,1,1-5.18,0Zm4,0c0-.88-.45-1.81-1.46-1.81s-1.46.92-1.46,1.81.45,1.82,1.46,1.82S107,36.36,107,35.46Zm2.09-2.56h1.06v1h0a1.66,1.66,0,0,1,1.5-1.13,2.75,2.75,0,0,1,.43,0v1.09a4.09,4.09,0,0,0-.49,0c-.77,0-1.39.63-1.39,1.76V38h-1.13Zm10.44,4c0,.28.06.39.27.39a1.51,1.51,0,0,0,.28,0V38a2.84,2.84,0,0,1-.71.13c-.46,0-.78-.16-.87-.62a2.63,2.63,0,0,1-1.78.63,1.56,1.56,0,0,1-1.76-1.5c0-1.28,1-1.49,2-1.6s1.54-.06,1.54-.72-.61-.7-1.06-.7c-.63,0-1.08.26-1.13.81h-1.13c.08-1.32,1.2-1.71,2.33-1.71s2.05.41,2.05,1.49Zm-1.13-1.43a4,4,0,0,1-1.39.31c-.49.08-.92.26-.92.85s.64.66,1,.66,1.27-.26,1.27-1Zm5.08-4.52h1.13v2.62h0a1.87,1.87,0,0,1,1.53-.8c1.62,0,2.4,1.23,2.4,2.73s-.69,2.68-2.21,2.68a1.83,1.83,0,0,1-1.78-.84h0V38h-1.07ZM126,33.66c-1,0-1.44.72-1.44,1.82s.53,1.81,1.44,1.81,1.42-.91,1.42-1.81S127,33.66,126,33.66Zm4.47,2.1a1.37,1.37,0,0,0,1.38,1.52,1.19,1.19,0,0,0,1.25-.85h1.07a2.25,2.25,0,0,1-2.32,1.75,2.43,2.43,0,0,1-2.51-2.7,2.48,2.48,0,1,1,4.9.29Zm2.64-.74a1.32,1.32,0,1,0-2.64,0Zm1.53-2.11h.85V31.37h1.13V32.9h1v.84h-1v2.74c0,.47,0,.7.55.7a2,2,0,0,0,.48,0V38c-.25,0-.49.06-.73.06-1.18,0-1.4-.46-1.42-1.31v-3h-.85Zm3.49,0H139V31.37h1.13V32.9h1v.84h-1v2.74c0,.47,0,.7.55.7a2,2,0,0,0,.48,0V38c-.25,0-.49.06-.73.06-1.18,0-1.4-.46-1.42-1.31v-3h-.85Zm4.77,2.86a1.37,1.37,0,0,0,1.38,1.52,1.19,1.19,0,0,0,1.25-.85h1.07a2.25,2.25,0,0,1-2.32,1.75,2.43,2.43,0,0,1-2.51-2.7,2.48,2.48,0,1,1,4.9.29Zm2.64-.74a1.32,1.32,0,1,0-2.64,0Zm2.08-2.11h1.06v1h0a1.66,1.66,0,0,1,1.5-1.13,2.74,2.74,0,0,1,.43,0v1.09a4.11,4.11,0,0,0-.49,0c-.77,0-1.39.63-1.39,1.76V38h-1.13Zm5.78,0h1.2l1,3.83h0l1-3.83h1.14l.92,3.83h0l1-3.83h1.15L159.3,38h-1.16l-1-3.81h0L156.22,38H155Zm7.87,2.56a2.59,2.59,0,1,1,5.18,0,2.59,2.59,0,1,1-5.18,0Zm4,0c0-.88-.45-1.81-1.46-1.81s-1.46.92-1.46,1.81.45,1.82,1.46,1.82S165.36,36.36,165.36,35.46Zm2.09-2.56h1.06v1h0a1.66,1.66,0,0,1,1.5-1.13,2.75,2.75,0,0,1,.43,0v1.09a4.09,4.09,0,0,0-.49,0c-.77,0-1.39.63-1.39,1.76V38h-1.13Zm3.68-2h1.13V38h-1.13ZM178.33,38h-1.07v-.69h0a1.7,1.7,0,0,1-1.59.83c-1.62,0-2.4-1.2-2.4-2.74,0-1.86,1.1-2.67,2.22-2.67a2,2,0,0,1,1.71.8h0V30.95h1.13Zm-2.53-.75c1,0,1.44-.92,1.44-1.82,0-1.13-.55-1.81-1.42-1.81-1.06,0-1.44.94-1.44,1.87S174.81,37.28,175.8,37.28ZM100.08,19.19h3.13c2,0,2.41,1.31,2.41,2.19s-.39,2.18-2.41,2.17h-1.89v2.72h-1.24Zm1.24,3.35h1.82a1.13,1.13,0,0,0,1.24-1.17c0-.93-.57-1.17-1.22-1.17h-1.84Zm4.87,1.16a2.59,2.59,0,1,1,5.18,0,2.59,2.59,0,1,1-5.18,0Zm4,0c0-.88-.45-1.81-1.46-1.81s-1.46.92-1.46,1.81.45,1.82,1.46,1.82S110.25,24.6,110.25,23.7Zm1.63-2.56h1.2l1,3.83h0l1-3.83h1.14l.92,3.83h0l1-3.83h1.15l-1.61,5.13h-1.16l-1-3.81h0l-.94,3.81h-1.19ZM121,24a1.37,1.37,0,0,0,1.38,1.52,1.19,1.19,0,0,0,1.25-.85h1.07a2.25,2.25,0,0,1-2.32,1.75,2.43,2.43,0,0,1-2.51-2.7,2.48,2.48,0,1,1,4.9.29Zm2.64-.74a1.32,1.32,0,1,0-2.64,0Zm2.08-2.11h1.06v1h0a1.66,1.66,0,0,1,1.5-1.13,2.73,2.73,0,0,1,.43,0v1.09a4,4,0,0,0-.49,0c-.77,0-1.39.63-1.39,1.76v2.44h-1.13Zm10.44,4c0,.28.06.39.27.39a1.58,1.58,0,0,0,.28,0v.78a2.84,2.84,0,0,1-.71.13c-.46,0-.78-.16-.87-.62a2.63,2.63,0,0,1-1.78.63,1.56,1.56,0,0,1-1.76-1.5c0-1.28,1-1.49,2-1.6s1.54-.06,1.54-.72-.61-.69-1.06-.69c-.64,0-1.08.26-1.13.81h-1.13c.08-1.32,1.2-1.71,2.33-1.71s2.05.41,2.05,1.49ZM135,23.7a4,4,0,0,1-1.39.31c-.49.08-.92.26-.92.85s.64.66,1,.66,1.27-.26,1.27-1Zm2.62-2.56h1.07v.75l0,0a1.84,1.84,0,0,1,1.6-.91,1.62,1.62,0,0,1,1.82,1.75v3.52H141V23c0-.8-.34-1.15-1-1.15a1.25,1.25,0,0,0-1.24,1.35v3h-1.13Zm10.56,5.13h-1.07v-.69h0a1.7,1.7,0,0,1-1.59.83c-1.62,0-2.4-1.2-2.4-2.74,0-1.86,1.1-2.67,2.22-2.67a2,2,0,0,1,1.71.8h0V19.19h1.13Zm-2.53-.75c1,0,1.44-.92,1.44-1.82,0-1.13-.55-1.81-1.42-1.81-1.06,0-1.44.94-1.44,1.87S144.67,25.52,145.65,25.52Zm6.24-4.38H153v.69h0a1.71,1.71,0,0,1,1.59-.83c1.62,0,2.4,1.23,2.4,2.73s-.7,2.68-2.21,2.68a2,2,0,0,1-1.72-.8h0v2.56h-1.13Zm2.53.75c-1,0-1.44.72-1.44,1.82s.53,1.81,1.44,1.81,1.42-.91,1.42-1.81S155.35,21.9,154.42,21.9Zm3.52-.75H159v1h0a1.66,1.66,0,0,1,1.5-1.13,2.73,2.73,0,0,1,.43,0v1.09a4,4,0,0,0-.49,0c-.77,0-1.39.63-1.39,1.76v2.44h-1.13Zm3.28,2.56a2.59,2.59,0,1,1,5.18,0,2.59,2.59,0,1,1-5.18,0Zm4,0c0-.88-.45-1.81-1.46-1.81s-1.46.92-1.46,1.81.45,1.82,1.46,1.82S165.27,24.6,165.27,23.7Zm7,2.57h-1.07v-.69h0a1.7,1.7,0,0,1-1.59.83c-1.62,0-2.4-1.2-2.4-2.74,0-1.86,1.1-2.67,2.22-2.67a2,2,0,0,1,1.71.8h0V19.19h1.13Zm-2.53-.75c1,0,1.44-.92,1.44-1.82,0-1.13-.55-1.81-1.42-1.81-1.06,0-1.44.94-1.44,1.87S168.74,25.52,169.73,25.52Zm8.33.75h-1.11v-.71h0a1.72,1.72,0,0,1-1.46.85c-1.34,0-1.91-.67-1.91-2V21.14h1.13v3.15c0,.9.37,1.23,1,1.23.94,0,1.26-.61,1.26-1.4v-3h1.13Zm4.69-3.41a1.08,1.08,0,0,0-1.17-1c-.59,0-1.41.31-1.41,1.87,0,.85.38,1.76,1.36,1.76a1.22,1.22,0,0,0,1.22-1.17h1.13a2.21,2.21,0,0,1-2.35,2.06A2.41,2.41,0,0,1,179,23.76,2.47,2.47,0,0,1,181.57,21a2.08,2.08,0,0,1,2.31,1.86Zm1.62-1.72h.85V19.6h1.13v1.54h1V22h-1v2.74c0,.47,0,.71.54.71a1.91,1.91,0,0,0,.48,0v.87c-.25,0-.49.06-.73.06-1.18,0-1.4-.46-1.42-1.31V22h-.85Zm3.94-2h1.13v1.07h-1.13Zm0,2h1.13v5.13h-1.13Zm1.92,0h1.23l1.3,3.94h0L194,21.14h1.17l-1.84,5.13H192.1Zm5.71-2h1.13v1.07h-1.13Zm0,2h1.13v5.13h-1.13Zm1.91,0h.85V19.6h1.13v1.54h1V22h-1v2.74c0,.47,0,.71.55.71a1.92,1.92,0,0,0,.48,0v.87c-.25,0-.49.06-.73.06-1.18,0-1.4-.46-1.42-1.31V22h-.85Zm3.45,0h1.24L203.88,25h0l1.3-3.83h1.18l-2,5.41c-.37.92-.64,1.76-1.82,1.76a5.2,5.2,0,0,1-.78-.06v-1a3.25,3.25,0,0,0,.54.07c.53,0,.66-.28.79-.71l.13-.4Zm-19.05,10.3h-1v2.63h-.61V31.44h-1V31h2.51Zm2.37,1.72.85-2.21h.87v3.12h-.57V31.63h0l-.93,2.44h-.42l-.93-2.44h0v2.44h-.57V31h.88Z"/><path class="cls-2" d="M28.36,9.83H32l4.76,13.61H28.36ZM27.23,23.43V9.83H23.54L18.78,23.43Zm0,1.13H18.38L13.62,38.17h7.09l2-5.67h4.54Zm10,0H28.36V32.5H32.9l2,5.67H42Zm15.82,0V38.17h2.27a8.5,8.5,0,0,0,6.8-13.61Zm-1.13-1.13V9.83H44V23.43Zm1.13,0h8a8.52,8.52,0,0,0-2.65-1.67A6.38,6.38,0,0,0,55.29,9.83H53Zm-1.13,1.13H44V38.17h7.94Zm23.24,0V38.17H77.4a8.5,8.5,0,0,0,6.8-13.61ZM74,23.43V9.83H66.06V23.43Zm1.13,0h8a8.52,8.52,0,0,0-2.65-1.67A6.38,6.38,0,0,0,77.4,9.83H75.13ZM74,24.57H66.06V38.17H74Z"/></g></svg>