<svg id="Bg" xmlns="http://www.w3.org/2000/svg" viewBox="0 0 400 48"><defs><style>.cls-1{fill:#242424;}.cls-2{fill:red;}</style></defs><title>Logo red</title><polygon class="cls-1" points="0 48 380 48 400 0 0 0 0 48"/><rect width="400" height="1"/><path class="cls-2" d="M28.36,9.83H32l4.76,13.61H28.36ZM27.23,23.43V9.83H23.54L18.78,23.43Zm0,1.13H18.38L13.62,38.17h7.09l2-5.67h4.54Zm10,0H28.36V32.5H32.9l2,5.67H42Zm15.82,0V38.17h2.27a8.5,8.5,0,0,0,6.8-13.61Zm-1.13-1.13V9.83H44V23.43Zm1.13,0h8a8.52,8.52,0,0,0-2.65-1.67A6.38,6.38,0,0,0,55.29,9.83H53Zm-1.13,1.13H44V38.17h7.94Zm23.24,0V38.17H77.4a8.5,8.5,0,0,0,6.8-13.61ZM74,23.43V9.83H66.06V23.43Zm1.13,0h8a8.52,8.52,0,0,0-2.65-1.67A6.38,6.38,0,0,0,77.4,9.83H75.13ZM74,24.57H66.06V38.17H74Z"/></svg>