<svg xmlns="http://www.w3.org/2000/svg" viewBox="0 0 400 48"><defs><style>.cls-1{fill:#242424;}.cls-2{fill:#fafafa;}</style></defs><title>Logo centered</title><g id="Bg"><polygon class="cls-1" points="0 48 380 48 400 0 0 0 0 48"/><rect width="400" height="1"/></g><g id="Layer_1" data-name="Layer 1"><path class="cls-2" d="M228,30h-3.1l-1.5,5H218l3.6-11H228Zm0-7h-6.08l3.63-10H228Zm1-10h3l3.63,10H229Zm10.51,22h-5.37l-1.5-5H229V24h6.91Z"/><path class="cls-2" d="M241,23V13h6V23Zm6,1V35h-6V24Zm1-1V13h1.59A4.37,4.37,0,0,1,253,14.21a4.57,4.57,0,0,1,1.41,3.38A4.58,4.58,0,0,1,252,21.82c.75.3,1.42,1.18,2,1.18Zm8,4.94a7,7,0,0,1-1.85,4.94A6.39,6.39,0,0,1,249.59,35H248V24h6.73A6.15,6.15,0,0,1,256,27.94Z"/><path class="cls-2" d="M258,23V13h6V23Zm6,1V35h-6V24Zm1-1V13h1.32a4.37,4.37,0,0,1,3.41,1.21,4.57,4.57,0,0,1,1.41,3.38,4.58,4.58,0,0,1-2.45,4.23c.75.3,1.42,1.18,2,1.18Zm7.76,4.94a7,7,0,0,1-1.85,4.94A6.39,6.39,0,0,1,266.32,35H265V24h6.46A6.15,6.15,0,0,1,272.76,27.94Z"/></g></svg>