<svg xmlns="http://www.w3.org/2000/svg" viewBox="0 0 400 170"><defs><style>.cls-1{fill:#fafafa;}.cls-2{fill:#242424;}</style></defs><title>Logo placement 1</title><g id="Bg"><rect class="cls-1" width="400" height="170"/><rect class="cls-2" width="400" height="48"/><rect width="400" height="1"/></g><g id="Layer_1" data-name="Layer 1"><path class="cls-1" d="M28,30H24.9l-1.5,5H18l3.6-11H28Zm0-7H21.92l3.63-10H28Zm1-10h3l3.63,10H29ZM39.51,35H34.14l-1.5-5H29V24h6.91Z"/><path class="cls-1" d="M41,23V13h6V23Zm6,1V35H41V24Zm1-1V13h1.59A4.37,4.37,0,0,1,53,14.21a4.57,4.57,0,0,1,1.41,3.38A4.58,4.58,0,0,1,52,21.82c.75.3,1.42,1.18,2,1.18Zm8,4.94a7,7,0,0,1-1.85,4.94A6.39,6.39,0,0,1,49.59,35H48V24h6.73A6.15,6.15,0,0,1,56,27.94Z"/><path class="cls-1" d="M58,23V13h6V23Zm6,1V35H58V24Zm1-1V13h1.32a4.37,4.37,0,0,1,3.41,1.21,4.57,4.57,0,0,1,1.41,3.38,4.58,4.58,0,0,1-2.45,4.23c.75.3,1.42,1.18,2,1.18Zm7.76,4.94a7,7,0,0,1-1.85,4.94A6.39,6.39,0,0,1,66.32,35H65V24h6.46A6.15,6.15,0,0,1,72.76,27.94Z"/></g></svg>