<svg xmlns="http://www.w3.org/2000/svg" viewBox="0 0 400 170"><defs><style>.cls-1{fill:#fafafa;}.cls-2{fill:#242424;}</style></defs><title>Logo placement 3</title><g id="Bg"><rect class="cls-1" width="400" height="170"/><rect class="cls-2" y="122" width="400" height="48"/></g><g id="Layer_1" data-name="Layer 1"><path class="cls-1" d="M28,152H24.9l-1.5,5H18l3.6-11H28Zm0-7H21.92l3.63-10H28Zm1-10h3l3.63,10H29Zm10.51,22H34.14l-1.5-5H29v-6h6.91Z"/><path class="cls-1" d="M41,145V135h6v10Zm6,1v11H41V146Zm1-1V135h1.59A4.37,4.37,0,0,1,53,136.21a4.83,4.83,0,0,1-1,7.61c.75.3,1.42,1.18,2,1.18Zm8,4.94a7,7,0,0,1-1.85,4.94A6.39,6.39,0,0,1,49.59,157H48V146h6.73A6.15,6.15,0,0,1,56,149.94Z"/><path class="cls-1" d="M58,145V135h6v10Zm6,1v11H58V146Zm1-1V135h1.32a4.37,4.37,0,0,1,3.41,1.21,4.83,4.83,0,0,1-1,7.61c.75.3,1.42,1.18,2,1.18Zm7.76,4.94a7,7,0,0,1-1.85,4.94A6.39,6.39,0,0,1,66.32,157H65V146h6.46A6.15,6.15,0,0,1,72.76,149.94Z"/></g></svg>