<svg xmlns="http://www.w3.org/2000/svg" viewBox="0 0 400 48"><defs><style>.cls-1{fill:#242424;}.cls-2{fill:#fafafa;}</style></defs><title>Logo size</title><g id="Bg"><polygon class="cls-1" points="0 48 380 48 400 0 0 0 0 48"/><rect width="400" height="1"/></g><g id="Layer_1" data-name="Layer 1"><path class="cls-2" d="M24,35H18.38l-2.76,9.16H5.79L12.38,24H24Zm0-12.82H12.92L19.57,3.86H24ZM25.88,3.86h5.46L38,22.17H25.88ZM45.12,44.14H35.29L32.53,35H25.88V24H38.53Z"/><path class="cls-2" d="M47.85,22.17V3.86h11V22.17Zm11,1.83V44.14h-11V24Zm1.83-1.83V3.86h2.91c2.44,0,4.52.44,6.24,2.21a8.37,8.37,0,0,1,2.58,6.19A8.38,8.38,0,0,1,67.92,20c1.37.55,2.59,2.16,3.67,2.16Zm14.7,9a12.83,12.83,0,0,1-3.39,9,11.7,11.7,0,0,1-8.4,3.89H60.67V24H73A11.27,11.27,0,0,1,75.37,31.22Z"/><path class="cls-2" d="M79,22.17V3.86H90V22.17ZM90,24V44.14H79V24Zm1.83-1.83V3.86h2.41c2.44,0,4.52.44,6.24,2.21A8.37,8.37,0,0,1,103,12.26,8.38,8.38,0,0,1,98.55,20c1.37.55,2.59,2.16,3.67,2.16Zm14.2,9a12.83,12.83,0,0,1-3.39,9,11.7,11.7,0,0,1-8.4,3.89H91.8V24h11.83A11.27,11.27,0,0,1,106,31.22Z"/></g></svg>