<svg xmlns="http://www.w3.org/2000/svg" viewBox="0 0 400 48"><defs><style>.cls-1{fill:#242424;}.cls-2{fill:#fafafa;}.cls-3{fill:#b4b4b4;}.cls-4{fill:none;stroke:#000;stroke-miterlimit:10;}</style></defs><title>Menu left side</title><g id="Bg"><polygon class="cls-1" points="0 48 380 48 400 0 0 0 0 48"/><rect width="400" height="1"/></g><g id="Layer_1" data-name="Layer 1"><path class="cls-2" d="M77,30H73.9l-1.5,5H67l3.6-11H77Zm0-7H70.92l3.63-10H77Zm1-10h3l3.63,10H78ZM88.51,35H83.14l-1.5-5H78V24h6.91Z"/><path class="cls-2" d="M90,23V13h6V23Zm6,1V35H90V24Zm1-1V13h1.59A4.37,4.37,0,0,1,102,14.21a4.57,4.57,0,0,1,1.41,3.38A4.58,4.58,0,0,1,101,21.82c.75.3,1.42,1.18,2,1.18Zm8,4.94a7,7,0,0,1-1.85,4.94A6.39,6.39,0,0,1,98.59,35H97V24h6.73A6.15,6.15,0,0,1,105,27.94Z"/><path class="cls-2" d="M107,23V13h6V23Zm6,1V35h-6V24Zm1-1V13h1.32a4.37,4.37,0,0,1,3.41,1.21,4.57,4.57,0,0,1,1.41,3.38,4.58,4.58,0,0,1-2.45,4.23c.75.3,1.42,1.18,2,1.18Zm7.76,4.94a7,7,0,0,1-1.85,4.94A6.39,6.39,0,0,1,115.32,35H114V24h6.46A6.15,6.15,0,0,1,121.76,27.94Z"/><path class="cls-2" d="M148.47,21.34a3.12,3.12,0,0,1-.93,2.4,3.4,3.4,0,0,1-2.4.86h-4v4.9H140V18.08h5.14a3.38,3.38,0,0,1,2.4.87A3.1,3.1,0,0,1,148.47,21.34Zm-1.09,0a2.23,2.23,0,0,0-.66-1.72,2.82,2.82,0,0,0-2-.61h-3.65v4.67h3.8a2.63,2.63,0,0,0,1.8-.6A2.2,2.2,0,0,0,147.38,21.34Z"/><path class="cls-2" d="M150.35,29.5V20.75h1v2h0a3.41,3.41,0,0,1,1.2-1.59,3.09,3.09,0,0,1,1.84-.57h.38V21.7h-.24a3,3,0,0,0-2.27.91,3.14,3.14,0,0,0-.86,2.25V29.5Z"/><path class="cls-2" d="M164.09,25.13a5.72,5.72,0,0,1-.27,1.75,4.42,4.42,0,0,1-.82,1.5,3.87,3.87,0,0,1-3.05,1.38,3.79,3.79,0,0,1-3-1.3,4.87,4.87,0,0,1-1.14-3.33,4.86,4.86,0,0,1,1.13-3.32,4.11,4.11,0,0,1,6,0A4.86,4.86,0,0,1,164.09,25.13Zm-1.07,0a5.07,5.07,0,0,0-.18-1.33,3.75,3.75,0,0,0-.56-1.2,3,3,0,0,0-1-.87,2.72,2.72,0,0,0-1.39-.34,2.63,2.63,0,0,0-1.31.32,3,3,0,0,0-1,.85,3.79,3.79,0,0,0-.58,1.2,4.86,4.86,0,0,0-.2,1.37,4.77,4.77,0,0,0,.19,1.33,4,4,0,0,0,.57,1.2,3,3,0,0,0,1,.87,2.86,2.86,0,0,0,2.65,0,3.13,3.13,0,0,0,1-.84,3.76,3.76,0,0,0,.6-1.19A4.73,4.73,0,0,0,163,25.13Z"/><path class="cls-2" d="M174.06,17.39V29.5h-1V27.84h0a2.75,2.75,0,0,1-.52.79,3.48,3.48,0,0,1-.75.61,3.79,3.79,0,0,1-.9.39,3.56,3.56,0,0,1-1,.14,3.74,3.74,0,0,1-1.7-.37,3.58,3.58,0,0,1-1.23-1,4.42,4.42,0,0,1-.74-1.48,6.23,6.23,0,0,1-.25-1.78,6.43,6.43,0,0,1,.23-1.72,4.4,4.4,0,0,1,.71-1.48,3.57,3.57,0,0,1,1.22-1,4,4,0,0,1,2.7-.27,3.39,3.39,0,0,1,.87.36,3,3,0,0,1,.73.6,2.76,2.76,0,0,1,.51.84h0v-5Zm-7,7.73a5.56,5.56,0,0,0,.07.87,4.92,4.92,0,0,0,.21.86,3.76,3.76,0,0,0,.38.78,2.86,2.86,0,0,0,.55.64,2.42,2.42,0,0,0,.73.43,2.63,2.63,0,0,0,.93.16,2.77,2.77,0,0,0,2.31-1.12,3.56,3.56,0,0,0,.57-1.19,5.29,5.29,0,0,0,.19-1.42,5.37,5.37,0,0,0-.18-1.37,3.63,3.63,0,0,0-.55-1.2,2.74,2.74,0,0,0-2.35-1.17,2.58,2.58,0,0,0-.9.15,2.38,2.38,0,0,0-.72.41,2.85,2.85,0,0,0-.55.62,3.71,3.71,0,0,0-.39.77,4.67,4.67,0,0,0-.23.87A5.63,5.63,0,0,0,167,25.13Z"/><path class="cls-2" d="M183,29.5V27.93h0a3.31,3.31,0,0,1-.52.77,3.13,3.13,0,0,1-.7.57,3.32,3.32,0,0,1-.84.36,3.7,3.7,0,0,1-1,.13,3,3,0,0,1-2.32-.84,3.53,3.53,0,0,1-.75-2.42V20.75h1.07v5.7a3.55,3.55,0,0,0,.13,1,1.91,1.91,0,0,0,.41.75,1.79,1.79,0,0,0,.72.47,3.12,3.12,0,0,0,1.06.16,2.26,2.26,0,0,0,1.19-.3,2.58,2.58,0,0,0,.82-.79,3.51,3.51,0,0,0,.48-1.11,5.2,5.2,0,0,0,.15-1.25V20.75h1.07V29.5Z"/><path class="cls-2" d="M190.4,20.5a4.59,4.59,0,0,1,1.29.17,3.36,3.36,0,0,1,1,.5,2.72,2.72,0,0,1,.74.81,3.08,3.08,0,0,1,.39,1.1H192.8a2.31,2.31,0,0,0-.29-.69,2,2,0,0,0-.5-.54,2.26,2.26,0,0,0-.7-.34,3.12,3.12,0,0,0-.9-.12,2.68,2.68,0,0,0-1.31.31,2.91,2.91,0,0,0-1,.84,3.87,3.87,0,0,0-.59,1.2,4.76,4.76,0,0,0-.2,1.39,4.9,4.9,0,0,0,.19,1.34,3.83,3.83,0,0,0,.57,1.2,3,3,0,0,0,.95.86,2.81,2.81,0,0,0,2.28.16,2.52,2.52,0,0,0,.75-.45,2.4,2.4,0,0,0,.52-.65,2.51,2.51,0,0,0,.27-.77h1.07a4,4,0,0,1-.39,1.14,3.34,3.34,0,0,1-.73.94,3.4,3.4,0,0,1-1.06.64,3.84,3.84,0,0,1-1.38.23,4,4,0,0,1-1.72-.36,3.82,3.82,0,0,1-1.29-1,4.38,4.38,0,0,1-.81-1.47,6,6,0,0,1,0-3.55,4.39,4.39,0,0,1,.78-1.48,3.86,3.86,0,0,1,1.29-1A4,4,0,0,1,190.4,20.5Z"/><path class="cls-2" d="M199.8,29.58h-.88a4.09,4.09,0,0,1-.91-.09,1.29,1.29,0,0,1-.6-.3,1.19,1.19,0,0,1-.33-.57,3.52,3.52,0,0,1-.1-.91V21.65h-1.76v-.9H197V18.13h1.07v2.63h2v.9h-2v6a2.32,2.32,0,0,0,0,.45.85.85,0,0,0,.14.34.66.66,0,0,0,.28.22,1.17,1.17,0,0,0,.46.08h.8l.28,0v.91Z"/><path class="cls-2" d="M211,20.5a4.45,4.45,0,0,1,1.45.21,2.44,2.44,0,0,1,1,.62,2.49,2.49,0,0,1,.57,1,5.07,5.07,0,0,1,.18,1.44V29.5h-1.07V24a2.93,2.93,0,0,0-.55-1.93,2.06,2.06,0,0,0-1.67-.65,2.75,2.75,0,0,0-1.14.23,2.49,2.49,0,0,0-.87.64,2.86,2.86,0,0,0-.55.95,3.5,3.5,0,0,0-.19,1.18V29.5h-1.07V20.75h1.07v1.52h0a2.64,2.64,0,0,1,.46-.74,2.87,2.87,0,0,1,.66-.55,3.07,3.07,0,0,1,.8-.35A3.3,3.3,0,0,1,211,20.5Z"/><path class="cls-2" d="M224.51,29.44l-.36.05h-.32a1.83,1.83,0,0,1-.59-.08.88.88,0,0,1-.39-.26,1.09,1.09,0,0,1-.22-.47,3.24,3.24,0,0,1-.07-.71h0a4.07,4.07,0,0,1-1.37,1.39,3.73,3.73,0,0,1-1.8.39,3.29,3.29,0,0,1-2.13-.66,2.33,2.33,0,0,1-.8-1.91,2.21,2.21,0,0,1,.88-1.91,9,9,0,0,1,3.95-.91,2.75,2.75,0,0,0,.59-.11,1,1,0,0,0,.38-.21.8.8,0,0,0,.21-.35,1.72,1.72,0,0,0,.07-.51,1.66,1.66,0,0,0-.54-1.34,2.69,2.69,0,0,0-1.75-.46,3.46,3.46,0,0,0-1,.12,2.18,2.18,0,0,0-.71.34,1.49,1.49,0,0,0-.45.52,1.63,1.63,0,0,0-.18.65h-1.07a2.65,2.65,0,0,1,.29-1,2.36,2.36,0,0,1,.68-.79,3.22,3.22,0,0,1,1.07-.51,5.36,5.36,0,0,1,1.46-.18,3.53,3.53,0,0,1,2.44.71,2.61,2.61,0,0,1,.78,2V28a.63.63,0,0,0,.15.44.61.61,0,0,0,.48.16,1,1,0,0,0,.34-.06Zm-2-4.73h0q-.16.3-1,.41l-.89.13-1,.16A3.55,3.55,0,0,0,218,26a1.33,1.33,0,0,0-.52,1.12,1.55,1.55,0,0,0,.58,1.26,2.13,2.13,0,0,0,1.38.47,3.15,3.15,0,0,0,2.18-.77,2.47,2.47,0,0,0,.87-1.92Z"/><path class="cls-2" d="M237.44,29.5v-6a2.31,2.31,0,0,0-.5-1.63,2.47,2.47,0,0,0-3.34.28,3.73,3.73,0,0,0-.6,2.28v5h-1.08v-6a2.41,2.41,0,0,0-.45-1.55,1.66,1.66,0,0,0-1.37-.56,2.3,2.3,0,0,0-1.95.87,3.63,3.63,0,0,0-.66,2.28v5h-1.07V20.75h1v1.47h0a3,3,0,0,1,2.87-1.72,3.24,3.24,0,0,1,.86.11,2.46,2.46,0,0,1,.73.32,2.2,2.2,0,0,1,.56.53,2.49,2.49,0,0,1,.37.74A2.87,2.87,0,0,1,234,20.93a3.19,3.19,0,0,1,1.65-.43,2.82,2.82,0,0,1,2.18.77,3.14,3.14,0,0,1,.71,2.21v6Z"/><path class="cls-2" d="M244.77,20.5a3.61,3.61,0,0,1,1.73.39,3.45,3.45,0,0,1,1.2,1,4.61,4.61,0,0,1,.7,1.51,7,7,0,0,1,.23,1.79v.17h-6.73a4.76,4.76,0,0,0,.17,1.26,3.45,3.45,0,0,0,.52,1.11,2.65,2.65,0,0,0,.88.79,2.56,2.56,0,0,0,1.27.3,3.26,3.26,0,0,0,.93-.12,2.74,2.74,0,0,0,.74-.34,2.37,2.37,0,0,0,.55-.52,3.26,3.26,0,0,0,.39-.65h1a4,4,0,0,1-.51,1,3.32,3.32,0,0,1-.78.8,3.61,3.61,0,0,1-1,.52,4.49,4.49,0,0,1-1.32.18A3.92,3.92,0,0,1,243,29.4a3.41,3.41,0,0,1-1.21-1,4.16,4.16,0,0,1-.72-1.47,6.85,6.85,0,0,1-.23-1.83,6.19,6.19,0,0,1,.24-1.71,4.47,4.47,0,0,1,.72-1.48,3.64,3.64,0,0,1,1.23-1A3.71,3.71,0,0,1,244.77,20.5Zm2.78,4a4,4,0,0,0-.21-1.13,3.25,3.25,0,0,0-.54-1,2.76,2.76,0,0,0-.87-.72,2.45,2.45,0,0,0-1.18-.27,2.46,2.46,0,0,0-2,.93,3.58,3.58,0,0,0-.56,1,5.71,5.71,0,0,0-.31,1.2Z"/><g id="menu_18"><rect class="cls-3" x="17" y="18" width="14" height="3"/><rect class="cls-3" x="17" y="28" width="14" height="3"/><rect class="cls-3" x="17" y="23" width="14" height="3"/></g><line class="cls-4" x1="48.5" y1="4" x2="48.5" y2="44"/></g></svg>