<svg xmlns="http://www.w3.org/2000/svg" viewBox="0 0 400 258"><defs><style>.cls-1{fill:#242424;}.cls-2{fill:#b4b4b4;}.cls-3{fill:#fff;}.cls-4,.cls-9{fill:none;}.cls-4{stroke:#000;}.cls-11,.cls-13,.cls-4,.cls-7,.cls-9{stroke-miterlimit:10;}.cls-5{fill:#fafafa;}.cls-6{fill:#a288ce;}.cls-11,.cls-12,.cls-13,.cls-7{fill:#21be89;}.cls-7{stroke:#8664bf;}.cls-11,.cls-13,.cls-7,.cls-9{stroke-width:4px;}.cls-8{fill:#47c2ff;}.cls-9{stroke:#0aaeff;}.cls-10{fill:#d48e6a;}.cls-11{stroke:#be704c;}.cls-13{stroke:#049669;}</style></defs><title>Product suite</title><g id="Bg"><polygon class="cls-1" points="0 48 380 48 400 0 0 0 0 48"/><rect width="400" height="1"/><polygon class="cls-1" points="0 118 380 118 400 70 0 70 0 118"/><rect y="70" width="400" height="1"/><polygon class="cls-1" points="0 188 380 188 400 140 0 140 0 188"/><rect y="140" width="400" height="1"/><polygon class="cls-1" points="0 258 380 258 400 210 0 210 0 258"/><rect y="210" width="400" height="1"/></g><g id="Layer_1" data-name="Layer 1"><path class="cls-2" d="M387.45,25.84a2.36,2.36,0,0,1-.29,1.2,2.41,2.41,0,0,1-.78.82,3.5,3.5,0,0,1-1.13.47,5.89,5.89,0,0,1-1.34.15,5.17,5.17,0,0,1-1.37-.17,3.37,3.37,0,0,1-1.1-.51,2.49,2.49,0,0,1-.74-.84,2.38,2.38,0,0,1-.27-1.15v-.1h1.47v.05a1.33,1.33,0,0,0,.16.67,1.4,1.4,0,0,0,.45.48,2.11,2.11,0,0,0,.67.28,3.62,3.62,0,0,0,1.58,0,2.05,2.05,0,0,0,.63-.25,1.3,1.3,0,0,0,.42-.41A1.06,1.06,0,0,0,386,26a.93.93,0,0,0-.37-.76,3.25,3.25,0,0,0-1.16-.51l-1.84-.49a2.83,2.83,0,0,1-1.44-.78A2,2,0,0,1,380.7,22,2.24,2.24,0,0,1,381,21a2.36,2.36,0,0,1,.7-.79,3.22,3.22,0,0,1,1-.48,4.62,4.62,0,0,1,1.25-.16,4.67,4.67,0,0,1,1.19.15,3.23,3.23,0,0,1,1,.45,2.32,2.32,0,0,1,.71.77,2.25,2.25,0,0,1,.28,1.09h-1.46a1.25,1.25,0,0,0-.16-.52,1.27,1.27,0,0,0-.37-.4,1.8,1.8,0,0,0-.55-.26,2.49,2.49,0,0,0-.71-.09,2.92,2.92,0,0,0-.67.07,1.75,1.75,0,0,0-.55.23,1.15,1.15,0,0,0-.37.38,1.05,1.05,0,0,0-.14.55,1,1,0,0,0,.07.39.8.8,0,0,0,.2.28,1.07,1.07,0,0,0,.31.19,3.06,3.06,0,0,0,.4.13l2,.53a3.69,3.69,0,0,1,1.7.87A2,2,0,0,1,387.45,25.84Z"/><path class="cls-3" d="M239.53,19.73v3.44h4V19.73h1.49v8.55h-1.49V24.43h-4v3.86H238V19.73Z"/><path class="cls-3" d="M253.35,25a4.09,4.09,0,0,1-.23,1.38,3.1,3.1,0,0,1-.68,1.11,3,3,0,0,1-1,.73,3.49,3.49,0,0,1-1.36.25,3.12,3.12,0,0,1-2.38-1,3.53,3.53,0,0,1-.91-2.51,3.54,3.54,0,0,1,.9-2.51,3.1,3.1,0,0,1,2.39-1,3.15,3.15,0,0,1,2.4,1A3.54,3.54,0,0,1,253.35,25Zm-1.45,0a3.59,3.59,0,0,0-.11-.92,2.21,2.21,0,0,0-.35-.75,1.68,1.68,0,0,0-.58-.5,1.75,1.75,0,0,0-.83-.18,1.71,1.71,0,0,0-.77.17,1.62,1.62,0,0,0-.57.48,2.23,2.23,0,0,0-.36.74,3.79,3.79,0,0,0,0,1.9,2.19,2.19,0,0,0,.35.74,1.67,1.67,0,0,0,.58.49,1.7,1.7,0,0,0,.79.18,1.72,1.72,0,0,0,.79-.18,1.68,1.68,0,0,0,.58-.49,2.24,2.24,0,0,0,.36-.74A3.41,3.41,0,0,0,251.9,25Z"/><path class="cls-3" d="M263.25,28.28v-4a3.44,3.44,0,0,0-.05-.62,1.26,1.26,0,0,0-.19-.49,1,1,0,0,0-.39-.32,1.48,1.48,0,0,0-.63-.12,1.24,1.24,0,0,0-1.06.47,2.29,2.29,0,0,0-.35,1.38v3.74h-1.45V24.08a1.64,1.64,0,0,0-.28-1,1.1,1.1,0,0,0-.91-.35,1.34,1.34,0,0,0-1.08.48,2,2,0,0,0-.4,1.31v3.81H255V21.71h1.36v1h0a2.31,2.31,0,0,1,2.06-1.15,2.27,2.27,0,0,1,1.2.3,1.71,1.71,0,0,1,.71.86,2.45,2.45,0,0,1,.87-.86,2.21,2.21,0,0,1,3.47,2v4.48Z"/><path class="cls-3" d="M269.48,21.53a3,3,0,0,1,1.34.28,2.78,2.78,0,0,1,1,.77,3.33,3.33,0,0,1,.58,1.13,4.76,4.76,0,0,1,.19,1.37v.26h-4.85a2.77,2.77,0,0,0,.13.81,1.9,1.9,0,0,0,.35.63,1.55,1.55,0,0,0,.54.41,1.7,1.7,0,0,0,.72.15,1.9,1.9,0,0,0,1-.23,1.7,1.7,0,0,0,.61-.6h1.37a3.06,3.06,0,0,1-.45.81,2.83,2.83,0,0,1-.66.62,3,3,0,0,1-.85.39,3.66,3.66,0,0,1-1,.13,3.28,3.28,0,0,1-1.33-.26,2.82,2.82,0,0,1-1-.72,3.18,3.18,0,0,1-.62-1.1,4.31,4.31,0,0,1-.22-1.4,4,4,0,0,1,.22-1.33,3.3,3.3,0,0,1,.63-1.1,3,3,0,0,1,1-.76A3.16,3.16,0,0,1,269.48,21.53Zm1.63,2.85a2.77,2.77,0,0,0-.16-.71,1.73,1.73,0,0,0-.33-.55,1.43,1.43,0,0,0-.5-.35,1.91,1.91,0,0,0-1.37,0,1.51,1.51,0,0,0-.52.36,1.79,1.79,0,0,0-.35.55,2.54,2.54,0,0,0-.17.7Z"/><path class="cls-3" d="M274.08,28.48H273l3.47-9h1.1Z"/><path class="cls-3" d="M284.5,19.2v9.08h-1.37v-1h0a2.07,2.07,0,0,1-.37.5,2.16,2.16,0,0,1-.49.37,2.44,2.44,0,0,1-.59.23,2.79,2.79,0,0,1-.67.08,2.72,2.72,0,0,1-1.28-.29,2.76,2.76,0,0,1-.92-.77,3.38,3.38,0,0,1-.56-1.12A4.69,4.69,0,0,1,278,25a4.52,4.52,0,0,1,.18-1.26,3.34,3.34,0,0,1,.54-1.1,2.75,2.75,0,0,1,.91-.77,2.91,2.91,0,0,1,1.92-.22,2.49,2.49,0,0,1,.58.21,2.07,2.07,0,0,1,.49.35,2,2,0,0,1,.37.5h0V19.2Zm-5,5.79a3.63,3.63,0,0,0,.1.82,2.44,2.44,0,0,0,.31.76,1.81,1.81,0,0,0,.56.56,1.5,1.5,0,0,0,.83.22,1.73,1.73,0,0,0,.79-.17,1.58,1.58,0,0,0,.57-.49,2.25,2.25,0,0,0,.35-.75,3.68,3.68,0,0,0,.12-1,3.73,3.73,0,0,0-.1-.84,2.3,2.3,0,0,0-.31-.75,1.72,1.72,0,0,0-.57-.54,1.64,1.64,0,0,0-.85-.21,1.56,1.56,0,0,0-.82.2,1.7,1.7,0,0,0-.55.53,2.35,2.35,0,0,0-.32.75A3.93,3.93,0,0,0,279.47,25Z"/><path class="cls-3" d="M292.54,28.28l-.44.09-.39,0a1.79,1.79,0,0,1-.42,0,.91.91,0,0,1-.34-.16.84.84,0,0,1-.24-.29,1.28,1.28,0,0,1-.12-.45h0a2.67,2.67,0,0,1-.45.46,2.3,2.3,0,0,1-.52.31,3.32,3.32,0,0,1-1.31.24,2.42,2.42,0,0,1-1.62-.51,1.77,1.77,0,0,1-.6-1.45,1.7,1.7,0,0,1,.6-1.42,2.11,2.11,0,0,1,.58-.32,4.68,4.68,0,0,1,.73-.2q.39-.08.82-.13l.87-.1.34-.07a.8.8,0,0,0,.27-.13.59.59,0,0,0,.17-.22.79.79,0,0,0,.06-.33,1,1,0,0,0-.31-.79,2.11,2.11,0,0,0-2.05,0,1,1,0,0,0-.39.73h-1.45a2,2,0,0,1,.28-.9,2,2,0,0,1,.62-.62,2.88,2.88,0,0,1,.9-.36,5.08,5.08,0,0,1,1.13-.12,3.42,3.42,0,0,1,2,.5,1.65,1.65,0,0,1,.67,1.41V27a.47.47,0,0,0,.08.3.33.33,0,0,0,.27.1h.12l.13,0Zm-2-3.35h0a1,1,0,0,1-.54.23l-.48.08-.65.11a2.2,2.2,0,0,0-1,.37.87.87,0,0,0-.32.72.89.89,0,0,0,.37.76,1.48,1.48,0,0,0,.87.24A1.79,1.79,0,0,0,290,27a1.59,1.59,0,0,0,.49-1.24Z"/><path class="cls-3" d="M299.33,26.3a2,2,0,0,1-.23,1,2,2,0,0,1-.61.68,2.7,2.7,0,0,1-.91.39,4.79,4.79,0,0,1-1.12.13,4.56,4.56,0,0,1-1.08-.12,2.74,2.74,0,0,1-.89-.38,2.14,2.14,0,0,1-.63-.65,2.2,2.2,0,0,1-.3-.94h1.39a1.15,1.15,0,0,0,.51.8,1.51,1.51,0,0,0,.46.2,2.2,2.2,0,0,0,.56.07,2.4,2.4,0,0,0,.53-.06,1.46,1.46,0,0,0,.45-.18,1,1,0,0,0,.32-.31.78.78,0,0,0,.12-.44.61.61,0,0,0-.1-.35.9.9,0,0,0-.27-.26,1.81,1.81,0,0,0-.4-.18l-.47-.13-.93-.22a6,6,0,0,1-.91-.28,2.37,2.37,0,0,1-.63-.37,1.33,1.33,0,0,1-.37-.49,1.57,1.57,0,0,1-.12-.63,1.77,1.77,0,0,1,.21-.89,1.84,1.84,0,0,1,.58-.63,2.69,2.69,0,0,1,.87-.37,4.46,4.46,0,0,1,1.07-.12,3.88,3.88,0,0,1,1.06.13,2.61,2.61,0,0,1,.82.38,1.9,1.9,0,0,1,.54.59,2,2,0,0,1,.25.77h-1.39a1,1,0,0,0-.45-.65,1.65,1.65,0,0,0-.91-.23,2.3,2.3,0,0,0-.47,0,1.27,1.27,0,0,0-.39.14.77.77,0,0,0-.26.25.65.65,0,0,0-.1.36.6.6,0,0,0,.1.35.91.91,0,0,0,.26.25,1.47,1.47,0,0,0,.35.16l.37.1,1.38.33a4.37,4.37,0,0,1,.68.22,2,2,0,0,1,.54.34,1.47,1.47,0,0,1,.37.5A1.84,1.84,0,0,1,299.33,26.3Z"/><path class="cls-3" d="M305.26,28.28v-3.9a2.11,2.11,0,0,0-.32-1.27,1.19,1.19,0,0,0-1-.43,1.79,1.79,0,0,0-.72.13,1.33,1.33,0,0,0-.51.39,1.68,1.68,0,0,0-.3.62,3.13,3.13,0,0,0-.1.83v3.63h-1.44V19.2h1.44v3.5h0a1.94,1.94,0,0,1,.35-.48,2.36,2.36,0,0,1,.47-.37,2.24,2.24,0,0,1,.56-.24,2.32,2.32,0,0,1,.61-.08,3.33,3.33,0,0,1,1.08.16,1.77,1.77,0,0,1,.74.47,2,2,0,0,1,.43.81,4.22,4.22,0,0,1,.14,1.14v4.17Z"/><path class="cls-3" d="M315,25a4.85,4.85,0,0,1-.17,1.28,3.47,3.47,0,0,1-.52,1.11,2.65,2.65,0,0,1-.88.79,2.51,2.51,0,0,1-1.25.3,2.93,2.93,0,0,1-1.36-.3,1.9,1.9,0,0,1-.86-.87h0v1h-1.37V19.2H310v3.47h0a1.88,1.88,0,0,1,.36-.47,2.16,2.16,0,0,1,.5-.36,2.68,2.68,0,0,1,.61-.23,2.85,2.85,0,0,1,.68-.08,2.52,2.52,0,0,1,1.24.29,2.66,2.66,0,0,1,.88.78,3.4,3.4,0,0,1,.52,1.11A4.87,4.87,0,0,1,315,25Zm-1.45,0a3.74,3.74,0,0,0-.09-.82,2.52,2.52,0,0,0-.3-.76,1.71,1.71,0,0,0-.54-.56,1.5,1.5,0,0,0-.83-.22,1.57,1.57,0,0,0-.82.21,1.71,1.71,0,0,0-.56.54,2.39,2.39,0,0,0-.32.75,3.63,3.63,0,0,0-.1.86,3.68,3.68,0,0,0,.1.83,2.37,2.37,0,0,0,.31.76,1.76,1.76,0,0,0,.56.55,1.57,1.57,0,0,0,.84.21,1.49,1.49,0,0,0,.8-.21,1.69,1.69,0,0,0,.54-.54,2.43,2.43,0,0,0,.31-.75A3.94,3.94,0,0,0,313.58,25Z"/><path class="cls-3" d="M323,25a4.09,4.09,0,0,1-.23,1.38,3.1,3.1,0,0,1-.68,1.11,3,3,0,0,1-1,.73,3.49,3.49,0,0,1-1.36.25,3.12,3.12,0,0,1-2.38-1,3.53,3.53,0,0,1-.91-2.51,3.54,3.54,0,0,1,.9-2.51,3.1,3.1,0,0,1,2.39-1,3.15,3.15,0,0,1,2.4,1A3.54,3.54,0,0,1,323,25Zm-1.45,0a3.59,3.59,0,0,0-.11-.92,2.21,2.21,0,0,0-.35-.75,1.68,1.68,0,0,0-.58-.5,1.75,1.75,0,0,0-.83-.18,1.71,1.71,0,0,0-.77.17,1.62,1.62,0,0,0-.57.48,2.23,2.23,0,0,0-.36.74,3.79,3.79,0,0,0,0,1.9,2.19,2.19,0,0,0,.35.74,1.67,1.67,0,0,0,.58.49,1.7,1.7,0,0,0,.79.18,1.72,1.72,0,0,0,.79-.18,1.68,1.68,0,0,0,.58-.49,2.24,2.24,0,0,0,.36-.74A3.41,3.41,0,0,0,321.51,25Z"/><path class="cls-3" d="M330.7,28.28l-.44.09-.39,0a1.79,1.79,0,0,1-.42,0,.91.91,0,0,1-.34-.16.84.84,0,0,1-.24-.29,1.28,1.28,0,0,1-.12-.45h0a2.67,2.67,0,0,1-.45.46,2.3,2.3,0,0,1-.52.31,3.32,3.32,0,0,1-1.31.24,2.42,2.42,0,0,1-1.62-.51,1.77,1.77,0,0,1-.6-1.45,1.7,1.7,0,0,1,.6-1.42,2.11,2.11,0,0,1,.58-.32,4.68,4.68,0,0,1,.73-.2q.39-.08.82-.13l.87-.1.34-.07a.8.8,0,0,0,.27-.13.59.59,0,0,0,.17-.22.79.79,0,0,0,.06-.33,1,1,0,0,0-.31-.79,2.11,2.11,0,0,0-2.05,0,1,1,0,0,0-.39.73h-1.45a2,2,0,0,1,.28-.9,2,2,0,0,1,.62-.62,2.88,2.88,0,0,1,.9-.36,5.08,5.08,0,0,1,1.13-.12,3.42,3.42,0,0,1,2,.5,1.65,1.65,0,0,1,.67,1.41V27a.47.47,0,0,0,.08.3.33.33,0,0,0,.27.1h.12l.13,0Zm-2-3.35h0a1,1,0,0,1-.54.23l-.48.08-.65.11a2.2,2.2,0,0,0-1,.37.87.87,0,0,0-.32.72.89.89,0,0,0,.37.76,1.48,1.48,0,0,0,.87.24,1.79,1.79,0,0,0,1.27-.43,1.59,1.59,0,0,0,.49-1.24Z"/><path class="cls-3" d="M332.07,28.28V21.71h1.37V23h0a2.4,2.4,0,0,1,.87-1.08,2.23,2.23,0,0,1,1.29-.39h.21l.2,0V23l-.25,0h-.28a1.84,1.84,0,0,0-1.48.6,2.36,2.36,0,0,0-.51,1.57v3.18Z"/><path class="cls-3" d="M343.28,19.2v9.08h-1.37v-1h0a2.07,2.07,0,0,1-.37.5,2.16,2.16,0,0,1-.49.37,2.44,2.44,0,0,1-.59.23,2.79,2.79,0,0,1-.67.08,2.72,2.72,0,0,1-1.28-.29,2.76,2.76,0,0,1-.92-.77,3.38,3.38,0,0,1-.56-1.12,4.69,4.69,0,0,1-.19-1.33A4.52,4.52,0,0,1,337,23.7a3.34,3.34,0,0,1,.54-1.1,2.75,2.75,0,0,1,.91-.77,2.91,2.91,0,0,1,1.92-.22,2.49,2.49,0,0,1,.58.21,2.07,2.07,0,0,1,.49.35,2,2,0,0,1,.37.5h0V19.2Zm-5,5.79a3.63,3.63,0,0,0,.1.82,2.44,2.44,0,0,0,.31.76,1.81,1.81,0,0,0,.56.56,1.5,1.5,0,0,0,.83.22,1.73,1.73,0,0,0,.79-.17,1.58,1.58,0,0,0,.57-.49,2.25,2.25,0,0,0,.35-.75,3.68,3.68,0,0,0,.12-1,3.73,3.73,0,0,0-.1-.84,2.3,2.3,0,0,0-.31-.75,1.72,1.72,0,0,0-.57-.54,1.64,1.64,0,0,0-.85-.21,1.56,1.56,0,0,0-.82.2,1.7,1.7,0,0,0-.55.53,2.35,2.35,0,0,0-.32.75A3.93,3.93,0,0,0,338.26,25Z"/><line class="cls-4" x1="218.5" y1="6" x2="218.5" y2="42"/><line class="cls-4" x1="361.5" y1="6" x2="361.5" y2="42"/><path class="cls-5" d="M28,30H24.9l-1.5,5H18l3.6-11H28Zm0-7H21.92l3.63-10H28Zm1-10h3l3.63,10H29ZM39.51,35H34.14l-1.5-5H29V24h6.91Z"/><path class="cls-5" d="M41,23V13h6V23Zm6,1V35H41V24Zm1-1V13h1.59A4.37,4.37,0,0,1,53,14.21a4.57,4.57,0,0,1,1.41,3.38A4.58,4.58,0,0,1,52,21.82c.75.3,1.42,1.18,2,1.18Zm8,4.94a7,7,0,0,1-1.85,4.94A6.39,6.39,0,0,1,49.59,35H48V24h6.73A6.15,6.15,0,0,1,56,27.94Z"/><path class="cls-5" d="M58,23V13h6V23Zm6,1V35H58V24Zm1-1V13h1.32a4.37,4.37,0,0,1,3.41,1.21,4.57,4.57,0,0,1,1.41,3.38,4.58,4.58,0,0,1-2.45,4.23c.75.3,1.42,1.18,2,1.18Zm7.76,4.94a7,7,0,0,1-1.85,4.94A6.39,6.39,0,0,1,66.32,35H65V24h6.46A6.15,6.15,0,0,1,72.76,27.94Z"/><path class="cls-6" d="M99.47,21.34a3.12,3.12,0,0,1-.93,2.4,3.4,3.4,0,0,1-2.4.86h-4v4.9H91V18.08h5.14a3.38,3.38,0,0,1,2.4.87A3.1,3.1,0,0,1,99.47,21.34Zm-1.09,0a2.23,2.23,0,0,0-.66-1.72,2.82,2.82,0,0,0-2-.61H92.09v4.67h3.8a2.63,2.63,0,0,0,1.8-.6A2.2,2.2,0,0,0,98.38,21.34Z"/><path class="cls-6" d="M101.35,29.5V20.75h1v2h0a3.41,3.41,0,0,1,1.2-1.59,3.09,3.09,0,0,1,1.84-.57h.38V21.7h-.24a3,3,0,0,0-2.27.91,3.14,3.14,0,0,0-.86,2.25V29.5Z"/><path class="cls-6" d="M115.09,25.13a5.72,5.72,0,0,1-.27,1.75,4.42,4.42,0,0,1-.82,1.5,3.87,3.87,0,0,1-3.05,1.38,3.79,3.79,0,0,1-3-1.3,4.87,4.87,0,0,1-1.14-3.33,4.86,4.86,0,0,1,1.13-3.32,4.11,4.11,0,0,1,6,0A4.86,4.86,0,0,1,115.09,25.13Zm-1.07,0a5.07,5.07,0,0,0-.18-1.33,3.75,3.75,0,0,0-.56-1.2,3,3,0,0,0-1-.87,2.72,2.72,0,0,0-1.39-.34,2.63,2.63,0,0,0-1.31.32,3,3,0,0,0-1,.85,3.79,3.79,0,0,0-.58,1.2,4.86,4.86,0,0,0-.2,1.37,4.77,4.77,0,0,0,.19,1.33,4,4,0,0,0,.57,1.2,3,3,0,0,0,1,.87,2.86,2.86,0,0,0,2.65,0,3.13,3.13,0,0,0,1-.84,3.76,3.76,0,0,0,.6-1.19A4.73,4.73,0,0,0,114,25.13Z"/><path class="cls-6" d="M125.06,17.39V29.5h-1V27.84h0a2.75,2.75,0,0,1-.52.79,3.48,3.48,0,0,1-.75.61,3.79,3.79,0,0,1-.9.39,3.56,3.56,0,0,1-1,.14,3.74,3.74,0,0,1-1.7-.37,3.58,3.58,0,0,1-1.23-1,4.42,4.42,0,0,1-.74-1.48,6.23,6.23,0,0,1-.25-1.78,6.43,6.43,0,0,1,.23-1.72,4.4,4.4,0,0,1,.71-1.48,3.57,3.57,0,0,1,1.22-1,4,4,0,0,1,2.7-.27,3.39,3.39,0,0,1,.87.36,3,3,0,0,1,.73.6,2.76,2.76,0,0,1,.51.84h0v-5Zm-7,7.73a5.56,5.56,0,0,0,.07.87,4.92,4.92,0,0,0,.21.86,3.76,3.76,0,0,0,.38.78,2.86,2.86,0,0,0,.55.64,2.42,2.42,0,0,0,.73.43,2.63,2.63,0,0,0,.93.16,2.77,2.77,0,0,0,2.31-1.12,3.56,3.56,0,0,0,.57-1.19,5.29,5.29,0,0,0,.19-1.42,5.37,5.37,0,0,0-.18-1.37,3.63,3.63,0,0,0-.55-1.2,2.74,2.74,0,0,0-2.35-1.17,2.58,2.58,0,0,0-.9.15,2.38,2.38,0,0,0-.72.41,2.85,2.85,0,0,0-.55.62,3.71,3.71,0,0,0-.39.77,4.67,4.67,0,0,0-.23.87A5.63,5.63,0,0,0,118,25.13Z"/><path class="cls-6" d="M134,29.5V27.93h0a3.31,3.31,0,0,1-.52.77,3.13,3.13,0,0,1-.7.57,3.32,3.32,0,0,1-.84.36,3.7,3.7,0,0,1-1,.13,3,3,0,0,1-2.32-.84,3.53,3.53,0,0,1-.75-2.42V20.75h1.07v5.7a3.55,3.55,0,0,0,.13,1,1.91,1.91,0,0,0,.41.75,1.79,1.79,0,0,0,.72.47,3.12,3.12,0,0,0,1.06.16,2.26,2.26,0,0,0,1.19-.3,2.58,2.58,0,0,0,.82-.79,3.51,3.51,0,0,0,.48-1.11,5.2,5.2,0,0,0,.15-1.25V20.75h1.07V29.5Z"/><path class="cls-6" d="M141.4,20.5a4.59,4.59,0,0,1,1.29.17,3.36,3.36,0,0,1,1,.5,2.72,2.72,0,0,1,.74.81,3.08,3.08,0,0,1,.39,1.1H143.8a2.31,2.31,0,0,0-.29-.69,2,2,0,0,0-.5-.54,2.26,2.26,0,0,0-.7-.34,3.12,3.12,0,0,0-.9-.12,2.68,2.68,0,0,0-1.31.31,2.91,2.91,0,0,0-1,.84,3.87,3.87,0,0,0-.59,1.2,4.76,4.76,0,0,0-.2,1.39,4.9,4.9,0,0,0,.19,1.34,3.83,3.83,0,0,0,.57,1.2,3,3,0,0,0,.95.86,2.81,2.81,0,0,0,2.28.16,2.52,2.52,0,0,0,.75-.45,2.4,2.4,0,0,0,.52-.65,2.51,2.51,0,0,0,.27-.77h1.07a4,4,0,0,1-.39,1.14,3.34,3.34,0,0,1-.73.94,3.4,3.4,0,0,1-1.06.64,3.84,3.84,0,0,1-1.38.23,4,4,0,0,1-1.72-.36,3.82,3.82,0,0,1-1.29-1,4.38,4.38,0,0,1-.81-1.47,6,6,0,0,1,0-3.55,4.39,4.39,0,0,1,.78-1.48,3.86,3.86,0,0,1,1.29-1A4,4,0,0,1,141.4,20.5Z"/><path class="cls-6" d="M150.8,29.58h-.88a4.09,4.09,0,0,1-.91-.09,1.29,1.29,0,0,1-.6-.3,1.19,1.19,0,0,1-.33-.57,3.52,3.52,0,0,1-.1-.91V21.65h-1.76v-.9H148V18.13h1.07v2.63h2v.9h-2v6a2.32,2.32,0,0,0,0,.45.85.85,0,0,0,.14.34.66.66,0,0,0,.28.22,1.17,1.17,0,0,0,.46.08h.8l.28,0v.91Z"/><path class="cls-6" d="M161.54,29.5V20.93h-3v-.74q.71,0,1.2-.07a3.18,3.18,0,0,0,.77-.17,1.75,1.75,0,0,0,.86-.69,3.29,3.29,0,0,0,.42-1.29h.84V29.5Z"/><line class="cls-7" x1="219" y1="3" x2="361" y2="3"/><path class="cls-2" d="M387.45,95.84a2.36,2.36,0,0,1-.29,1.2,2.41,2.41,0,0,1-.78.82,3.5,3.5,0,0,1-1.13.47,5.89,5.89,0,0,1-1.34.15,5.17,5.17,0,0,1-1.37-.17,3.37,3.37,0,0,1-1.1-.51,2.49,2.49,0,0,1-.74-.84,2.38,2.38,0,0,1-.27-1.15v-.1h1.47v.05a1.33,1.33,0,0,0,.16.67,1.4,1.4,0,0,0,.45.48,2.11,2.11,0,0,0,.67.28,3.62,3.62,0,0,0,1.58,0,2.05,2.05,0,0,0,.63-.25,1.3,1.3,0,0,0,.42-.41A1.06,1.06,0,0,0,386,96a.93.93,0,0,0-.37-.76,3.25,3.25,0,0,0-1.16-.51l-1.84-.49a2.83,2.83,0,0,1-1.44-.78A2,2,0,0,1,380.7,92,2.24,2.24,0,0,1,381,91a2.36,2.36,0,0,1,.7-.79,3.22,3.22,0,0,1,1-.48,4.62,4.62,0,0,1,1.25-.16,4.67,4.67,0,0,1,1.19.15,3.23,3.23,0,0,1,1,.45,2.32,2.32,0,0,1,.71.77,2.25,2.25,0,0,1,.28,1.09h-1.46a1.25,1.25,0,0,0-.16-.52,1.27,1.27,0,0,0-.37-.4,1.8,1.8,0,0,0-.55-.26,2.49,2.49,0,0,0-.71-.09,2.92,2.92,0,0,0-.67.07,1.75,1.75,0,0,0-.55.23,1.15,1.15,0,0,0-.37.38,1.05,1.05,0,0,0-.14.55,1,1,0,0,0,.07.39.8.8,0,0,0,.2.28,1.07,1.07,0,0,0,.31.19,3.06,3.06,0,0,0,.4.13l2,.53a3.69,3.69,0,0,1,1.7.87A2,2,0,0,1,387.45,95.84Z"/><path class="cls-3" d="M239.53,89.73v3.44h4V89.73h1.49v8.55h-1.49V94.43h-4v3.86H238V89.73Z"/><path class="cls-3" d="M253.35,95a4.09,4.09,0,0,1-.23,1.38,3.1,3.1,0,0,1-.68,1.11,3,3,0,0,1-1,.73,3.49,3.49,0,0,1-1.36.25,3.12,3.12,0,0,1-2.38-1,3.94,3.94,0,0,1,0-5,3.1,3.1,0,0,1,2.39-1,3.15,3.15,0,0,1,2.4,1A3.54,3.54,0,0,1,253.35,95Zm-1.45,0a3.59,3.59,0,0,0-.11-.92,2.21,2.21,0,0,0-.35-.75,1.68,1.68,0,0,0-.58-.5,1.75,1.75,0,0,0-.83-.18,1.71,1.71,0,0,0-.77.17,1.62,1.62,0,0,0-.57.48,2.23,2.23,0,0,0-.36.74,3.79,3.79,0,0,0,0,1.9,2.19,2.19,0,0,0,.35.74,1.67,1.67,0,0,0,.58.49,1.7,1.7,0,0,0,.79.18,1.72,1.72,0,0,0,.79-.18,1.68,1.68,0,0,0,.58-.49,2.24,2.24,0,0,0,.36-.74A3.41,3.41,0,0,0,251.9,95Z"/><path class="cls-3" d="M263.25,98.28v-4a3.44,3.44,0,0,0-.05-.62,1.26,1.26,0,0,0-.19-.49,1,1,0,0,0-.39-.32,1.48,1.48,0,0,0-.63-.12,1.24,1.24,0,0,0-1.06.47,2.29,2.29,0,0,0-.35,1.38v3.74h-1.45V94.08a1.64,1.64,0,0,0-.28-1,1.1,1.1,0,0,0-.91-.35,1.34,1.34,0,0,0-1.08.48,2,2,0,0,0-.4,1.31v3.81H255V91.71h1.36v1h0a2.31,2.31,0,0,1,2.06-1.15,2.27,2.27,0,0,1,1.2.3,1.71,1.71,0,0,1,.71.86,2.45,2.45,0,0,1,.87-.86,2.21,2.21,0,0,1,3.47,2v4.48Z"/><path class="cls-3" d="M269.48,91.53a3,3,0,0,1,1.34.28,2.78,2.78,0,0,1,1,.77,3.33,3.33,0,0,1,.58,1.13,4.76,4.76,0,0,1,.19,1.37v.26h-4.85a2.77,2.77,0,0,0,.13.81,1.9,1.9,0,0,0,.35.63,1.55,1.55,0,0,0,.54.41,1.7,1.7,0,0,0,.72.15,1.9,1.9,0,0,0,1-.23,1.7,1.7,0,0,0,.61-.6h1.37a3.06,3.06,0,0,1-.45.81,2.83,2.83,0,0,1-.66.62,3,3,0,0,1-.85.39,3.66,3.66,0,0,1-1,.13,3.28,3.28,0,0,1-1.33-.26,2.82,2.82,0,0,1-1-.72,3.18,3.18,0,0,1-.62-1.1,4.31,4.31,0,0,1-.22-1.4,4,4,0,0,1,.22-1.33,3.3,3.3,0,0,1,.63-1.1,3,3,0,0,1,1-.76A3.16,3.16,0,0,1,269.48,91.53Zm1.63,2.85a2.77,2.77,0,0,0-.16-.71,1.73,1.73,0,0,0-.33-.55,1.43,1.43,0,0,0-.5-.35,1.91,1.91,0,0,0-1.37,0,1.51,1.51,0,0,0-.52.36,1.79,1.79,0,0,0-.35.55,2.54,2.54,0,0,0-.17.7Z"/><path class="cls-3" d="M274.08,98.48H273l3.47-9h1.1Z"/><path class="cls-3" d="M284.5,89.2v9.08h-1.37v-1h0a2.07,2.07,0,0,1-.37.5,2.16,2.16,0,0,1-.49.37,2.44,2.44,0,0,1-.59.23,2.79,2.79,0,0,1-.67.08,2.72,2.72,0,0,1-1.28-.29,2.76,2.76,0,0,1-.92-.77,3.38,3.38,0,0,1-.56-1.12A4.69,4.69,0,0,1,278,95a4.52,4.52,0,0,1,.18-1.26,3.34,3.34,0,0,1,.54-1.1,2.75,2.75,0,0,1,.91-.77,2.91,2.91,0,0,1,1.92-.22,2.49,2.49,0,0,1,.58.21,2.07,2.07,0,0,1,.49.35,2,2,0,0,1,.37.5h0V89.2Zm-5,5.79a3.63,3.63,0,0,0,.1.82,2.44,2.44,0,0,0,.31.76,1.81,1.81,0,0,0,.56.56,1.5,1.5,0,0,0,.83.22,1.73,1.73,0,0,0,.79-.17,1.58,1.58,0,0,0,.57-.49,2.25,2.25,0,0,0,.35-.75,3.68,3.68,0,0,0,.12-1,3.73,3.73,0,0,0-.1-.84,2.3,2.3,0,0,0-.31-.75,1.72,1.72,0,0,0-.57-.54,1.64,1.64,0,0,0-.85-.21,1.56,1.56,0,0,0-.82.2,1.7,1.7,0,0,0-.55.53,2.35,2.35,0,0,0-.32.75A3.93,3.93,0,0,0,279.47,95Z"/><path class="cls-3" d="M292.54,98.28l-.44.09-.39,0a1.79,1.79,0,0,1-.42,0,.91.91,0,0,1-.34-.16.84.84,0,0,1-.24-.29,1.28,1.28,0,0,1-.12-.45h0a2.67,2.67,0,0,1-.45.46,2.3,2.3,0,0,1-.52.31,3.32,3.32,0,0,1-1.31.24,2.42,2.42,0,0,1-1.62-.51,1.77,1.77,0,0,1-.6-1.45,1.7,1.7,0,0,1,.6-1.42,2.11,2.11,0,0,1,.58-.32,4.68,4.68,0,0,1,.73-.2q.39-.08.82-.13l.87-.1.34-.07a.8.8,0,0,0,.27-.13.59.59,0,0,0,.17-.22.79.79,0,0,0,.06-.33,1,1,0,0,0-.31-.79,2.11,2.11,0,0,0-2.05,0,1,1,0,0,0-.39.73h-1.45a2,2,0,0,1,.28-.9,2,2,0,0,1,.62-.62,2.88,2.88,0,0,1,.9-.36,5.08,5.08,0,0,1,1.13-.12,3.42,3.42,0,0,1,2,.5,1.65,1.65,0,0,1,.67,1.41V97a.47.47,0,0,0,.08.3.33.33,0,0,0,.27.1h.12l.13,0Zm-2-3.35h0a1,1,0,0,1-.54.23l-.48.08-.65.11a2.2,2.2,0,0,0-1,.37.87.87,0,0,0-.32.72.89.89,0,0,0,.37.76,1.48,1.48,0,0,0,.87.24A1.79,1.79,0,0,0,290,97a1.59,1.59,0,0,0,.49-1.24Z"/><path class="cls-3" d="M299.33,96.3a2,2,0,0,1-.23,1,2,2,0,0,1-.61.68,2.7,2.7,0,0,1-.91.39,4.79,4.79,0,0,1-1.12.13,4.56,4.56,0,0,1-1.08-.12,2.74,2.74,0,0,1-.89-.38,2.14,2.14,0,0,1-.63-.65,2.2,2.2,0,0,1-.3-.94h1.39a1.15,1.15,0,0,0,.51.8,1.51,1.51,0,0,0,.46.2,2.2,2.2,0,0,0,.56.07,2.4,2.4,0,0,0,.53-.06,1.46,1.46,0,0,0,.45-.18,1,1,0,0,0,.32-.31.78.78,0,0,0,.12-.44.61.61,0,0,0-.1-.35.9.9,0,0,0-.27-.26,1.81,1.81,0,0,0-.4-.18l-.47-.13-.93-.22a6,6,0,0,1-.91-.28,2.37,2.37,0,0,1-.63-.37,1.33,1.33,0,0,1-.37-.49,1.57,1.57,0,0,1-.12-.63,1.77,1.77,0,0,1,.21-.89,1.84,1.84,0,0,1,.58-.63,2.69,2.69,0,0,1,.87-.37,4.46,4.46,0,0,1,1.07-.12,3.88,3.88,0,0,1,1.06.13,2.61,2.61,0,0,1,.82.38,1.9,1.9,0,0,1,.54.59,2,2,0,0,1,.25.77h-1.39a1,1,0,0,0-.45-.65,1.65,1.65,0,0,0-.91-.23,2.3,2.3,0,0,0-.47,0,1.27,1.27,0,0,0-.39.14.77.77,0,0,0-.26.25.65.65,0,0,0-.1.36.6.6,0,0,0,.1.35.91.91,0,0,0,.26.25,1.47,1.47,0,0,0,.35.16l.37.1,1.38.33a4.37,4.37,0,0,1,.68.22,2,2,0,0,1,.54.34,1.47,1.47,0,0,1,.37.5A1.84,1.84,0,0,1,299.33,96.3Z"/><path class="cls-3" d="M305.26,98.28v-3.9a2.11,2.11,0,0,0-.32-1.27,1.19,1.19,0,0,0-1-.43,1.79,1.79,0,0,0-.72.13,1.33,1.33,0,0,0-.51.39,1.68,1.68,0,0,0-.3.62,3.13,3.13,0,0,0-.1.83v3.63h-1.44V89.2h1.44v3.5h0a1.94,1.94,0,0,1,.35-.48,2.36,2.36,0,0,1,.47-.37,2.24,2.24,0,0,1,.56-.24,2.32,2.32,0,0,1,.61-.08,3.33,3.33,0,0,1,1.08.16,1.77,1.77,0,0,1,.74.47,2,2,0,0,1,.43.81,4.22,4.22,0,0,1,.14,1.14v4.17Z"/><path class="cls-3" d="M315,95a4.85,4.85,0,0,1-.17,1.28,3.47,3.47,0,0,1-.52,1.11,2.65,2.65,0,0,1-.88.79,2.51,2.51,0,0,1-1.25.3,2.93,2.93,0,0,1-1.36-.3,1.9,1.9,0,0,1-.86-.87h0v1h-1.37V89.2H310v3.47h0a1.88,1.88,0,0,1,.36-.47,2.16,2.16,0,0,1,.5-.36,2.68,2.68,0,0,1,.61-.23,2.85,2.85,0,0,1,.68-.08,2.52,2.52,0,0,1,1.24.29,2.66,2.66,0,0,1,.88.78,3.4,3.4,0,0,1,.52,1.11A4.87,4.87,0,0,1,315,95Zm-1.45,0a3.74,3.74,0,0,0-.09-.82,2.52,2.52,0,0,0-.3-.76,1.71,1.71,0,0,0-.54-.56,1.5,1.5,0,0,0-.83-.22,1.57,1.57,0,0,0-.82.21,1.71,1.71,0,0,0-.56.54,2.39,2.39,0,0,0-.32.75,3.63,3.63,0,0,0-.1.86,3.68,3.68,0,0,0,.1.83,2.37,2.37,0,0,0,.31.76,1.76,1.76,0,0,0,.56.55,1.57,1.57,0,0,0,.84.21,1.49,1.49,0,0,0,.8-.21,1.69,1.69,0,0,0,.54-.54,2.43,2.43,0,0,0,.31-.75A3.94,3.94,0,0,0,313.58,95Z"/><path class="cls-3" d="M323,95a4.09,4.09,0,0,1-.23,1.38,3.1,3.1,0,0,1-.68,1.11,3,3,0,0,1-1,.73,3.49,3.49,0,0,1-1.36.25,3.12,3.12,0,0,1-2.38-1,3.94,3.94,0,0,1,0-5,3.1,3.1,0,0,1,2.39-1,3.15,3.15,0,0,1,2.4,1A3.54,3.54,0,0,1,323,95Zm-1.45,0a3.59,3.59,0,0,0-.11-.92,2.21,2.21,0,0,0-.35-.75,1.68,1.68,0,0,0-.58-.5,1.75,1.75,0,0,0-.83-.18,1.71,1.71,0,0,0-.77.17,1.62,1.62,0,0,0-.57.48,2.23,2.23,0,0,0-.36.74,3.79,3.79,0,0,0,0,1.9,2.19,2.19,0,0,0,.35.74,1.67,1.67,0,0,0,.58.49,1.7,1.7,0,0,0,.79.18,1.72,1.72,0,0,0,.79-.18,1.68,1.68,0,0,0,.58-.49,2.24,2.24,0,0,0,.36-.74A3.41,3.41,0,0,0,321.51,95Z"/><path class="cls-3" d="M330.7,98.28l-.44.09-.39,0a1.79,1.79,0,0,1-.42,0,.91.91,0,0,1-.34-.16.84.84,0,0,1-.24-.29,1.28,1.28,0,0,1-.12-.45h0a2.67,2.67,0,0,1-.45.46,2.3,2.3,0,0,1-.52.31,3.32,3.32,0,0,1-1.31.24,2.42,2.42,0,0,1-1.62-.51,1.77,1.77,0,0,1-.6-1.45,1.7,1.7,0,0,1,.6-1.42,2.11,2.11,0,0,1,.58-.32,4.68,4.68,0,0,1,.73-.2q.39-.08.82-.13l.87-.1.34-.07a.8.8,0,0,0,.27-.13.59.59,0,0,0,.17-.22.79.79,0,0,0,.06-.33,1,1,0,0,0-.31-.79,2.11,2.11,0,0,0-2.05,0,1,1,0,0,0-.39.73h-1.45a2,2,0,0,1,.28-.9,2,2,0,0,1,.62-.62,2.88,2.88,0,0,1,.9-.36,5.08,5.08,0,0,1,1.13-.12,3.42,3.42,0,0,1,2,.5,1.65,1.65,0,0,1,.67,1.41V97a.47.47,0,0,0,.08.3.33.33,0,0,0,.27.1h.12l.13,0Zm-2-3.35h0a1,1,0,0,1-.54.23l-.48.08-.65.11a2.2,2.2,0,0,0-1,.37.87.87,0,0,0-.32.72.89.89,0,0,0,.37.76,1.48,1.48,0,0,0,.87.24,1.79,1.79,0,0,0,1.27-.43,1.59,1.59,0,0,0,.49-1.24Z"/><path class="cls-3" d="M332.07,98.28V91.71h1.37V93h0a2.4,2.4,0,0,1,.87-1.08,2.23,2.23,0,0,1,1.29-.39h.21l.2,0V93l-.25,0h-.28a1.84,1.84,0,0,0-1.48.6,2.36,2.36,0,0,0-.51,1.57v3.18Z"/><path class="cls-3" d="M343.28,89.2v9.08h-1.37v-1h0a2.07,2.07,0,0,1-.37.5,2.16,2.16,0,0,1-.49.37,2.44,2.44,0,0,1-.59.23,2.79,2.79,0,0,1-.67.08,2.72,2.72,0,0,1-1.28-.29,2.76,2.76,0,0,1-.92-.77,3.38,3.38,0,0,1-.56-1.12,4.69,4.69,0,0,1-.19-1.33A4.52,4.52,0,0,1,337,93.7a3.34,3.34,0,0,1,.54-1.1,2.75,2.75,0,0,1,.91-.77,2.91,2.91,0,0,1,1.92-.22,2.49,2.49,0,0,1,.58.21,2.07,2.07,0,0,1,.49.35,2,2,0,0,1,.37.5h0V89.2Zm-5,5.79a3.63,3.63,0,0,0,.1.82,2.44,2.44,0,0,0,.31.76,1.81,1.81,0,0,0,.56.56,1.5,1.5,0,0,0,.83.22,1.73,1.73,0,0,0,.79-.17,1.58,1.58,0,0,0,.57-.49,2.25,2.25,0,0,0,.35-.75,3.68,3.68,0,0,0,.12-1,3.73,3.73,0,0,0-.1-.84,2.3,2.3,0,0,0-.31-.75,1.72,1.72,0,0,0-.57-.54,1.64,1.64,0,0,0-.85-.21,1.56,1.56,0,0,0-.82.2,1.7,1.7,0,0,0-.55.53,2.35,2.35,0,0,0-.32.75A3.93,3.93,0,0,0,338.26,95Z"/><line class="cls-4" x1="218.5" y1="76" x2="218.5" y2="112"/><line class="cls-4" x1="361.5" y1="76" x2="361.5" y2="112"/><path class="cls-5" d="M28,100H24.9l-1.5,5H18l3.6-11H28Zm0-7H21.92l3.63-10H28Zm1-10h3l3.63,10H29Zm10.51,22H34.14l-1.5-5H29V94h6.91Z"/><path class="cls-5" d="M41,93V83h6V93Zm6,1v11H41V94Zm1-1V83h1.59A4.37,4.37,0,0,1,53,84.21a4.83,4.83,0,0,1-1,7.61c.75.3,1.42,1.18,2,1.18Zm8,4.94a7,7,0,0,1-1.85,4.94A6.39,6.39,0,0,1,49.59,105H48V94h6.73A6.15,6.15,0,0,1,56,97.94Z"/><path class="cls-5" d="M58,93V83h6V93Zm6,1v11H58V94Zm1-1V83h1.32a4.37,4.37,0,0,1,3.41,1.21,4.83,4.83,0,0,1-1,7.61c.75.3,1.42,1.18,2,1.18Zm7.76,4.94a7,7,0,0,1-1.85,4.94A6.39,6.39,0,0,1,66.32,105H65V94h6.46A6.15,6.15,0,0,1,72.76,97.94Z"/><path class="cls-8" d="M99.47,91.34a3.12,3.12,0,0,1-.93,2.4,3.4,3.4,0,0,1-2.4.86h-4v4.9H91V88.08h5.14a3.38,3.38,0,0,1,2.4.87A3.1,3.1,0,0,1,99.47,91.34Zm-1.09,0a2.23,2.23,0,0,0-.66-1.72,2.82,2.82,0,0,0-2-.61H92.09v4.67h3.8a2.63,2.63,0,0,0,1.8-.6A2.2,2.2,0,0,0,98.38,91.34Z"/><path class="cls-8" d="M101.35,99.5V90.75h1v2h0a3.41,3.41,0,0,1,1.2-1.59,3.09,3.09,0,0,1,1.84-.57h.38V91.7h-.24a3,3,0,0,0-2.27.91,3.14,3.14,0,0,0-.86,2.25V99.5Z"/><path class="cls-8" d="M115.09,95.13a5.72,5.72,0,0,1-.27,1.75,4.42,4.42,0,0,1-.82,1.5,3.87,3.87,0,0,1-3.05,1.38,3.79,3.79,0,0,1-3-1.3,5.43,5.43,0,0,1,0-6.65,4.11,4.11,0,0,1,6,0A4.86,4.86,0,0,1,115.09,95.13Zm-1.07,0a5.07,5.07,0,0,0-.18-1.33,3.75,3.75,0,0,0-.56-1.2,3,3,0,0,0-1-.87,2.72,2.72,0,0,0-1.39-.34,2.63,2.63,0,0,0-1.31.32,3,3,0,0,0-1,.85,3.79,3.79,0,0,0-.58,1.2,4.86,4.86,0,0,0-.2,1.37,4.77,4.77,0,0,0,.19,1.33,4,4,0,0,0,.57,1.2,3,3,0,0,0,1,.87,2.86,2.86,0,0,0,2.65,0,3.13,3.13,0,0,0,1-.84,3.76,3.76,0,0,0,.6-1.19A4.73,4.73,0,0,0,114,95.13Z"/><path class="cls-8" d="M125.06,87.39V99.5h-1V97.84h0a2.75,2.75,0,0,1-.52.79,3.48,3.48,0,0,1-.75.61,3.79,3.79,0,0,1-.9.39,3.56,3.56,0,0,1-1,.14,3.74,3.74,0,0,1-1.7-.37,3.58,3.58,0,0,1-1.23-1,4.42,4.42,0,0,1-.74-1.48,6.23,6.23,0,0,1-.25-1.78,6.43,6.43,0,0,1,.23-1.72,4.4,4.4,0,0,1,.71-1.48,3.57,3.57,0,0,1,1.22-1,4,4,0,0,1,2.7-.27,3.39,3.39,0,0,1,.87.36,3,3,0,0,1,.73.6,2.76,2.76,0,0,1,.51.84h0v-5Zm-7,7.73a5.56,5.56,0,0,0,.07.87,4.92,4.92,0,0,0,.21.86,3.76,3.76,0,0,0,.38.78,2.86,2.86,0,0,0,.55.64,2.42,2.42,0,0,0,.73.43,2.63,2.63,0,0,0,.93.16,2.77,2.77,0,0,0,2.31-1.12,3.56,3.56,0,0,0,.57-1.19,5.29,5.29,0,0,0,.19-1.42,5.37,5.37,0,0,0-.18-1.37,3.63,3.63,0,0,0-.55-1.2,2.74,2.74,0,0,0-2.35-1.17,2.58,2.58,0,0,0-.9.15,2.38,2.38,0,0,0-.72.41,2.85,2.85,0,0,0-.55.62,3.71,3.71,0,0,0-.39.77,4.67,4.67,0,0,0-.23.87A5.63,5.63,0,0,0,118,95.13Z"/><path class="cls-8" d="M134,99.5V97.93h0a3.31,3.31,0,0,1-.52.77,3.13,3.13,0,0,1-.7.57,3.32,3.32,0,0,1-.84.36,3.7,3.7,0,0,1-1,.13,3,3,0,0,1-2.32-.84,3.53,3.53,0,0,1-.75-2.42V90.75h1.07v5.7a3.55,3.55,0,0,0,.13,1,1.91,1.91,0,0,0,.41.75,1.79,1.79,0,0,0,.72.47,3.12,3.12,0,0,0,1.06.16,2.26,2.26,0,0,0,1.19-.3,2.58,2.58,0,0,0,.82-.79,3.51,3.51,0,0,0,.48-1.11,5.2,5.2,0,0,0,.15-1.25V90.75h1.07V99.5Z"/><path class="cls-8" d="M141.4,90.5a4.59,4.59,0,0,1,1.29.17,3.36,3.36,0,0,1,1,.5,2.72,2.72,0,0,1,.74.81,3.08,3.08,0,0,1,.39,1.1H143.8a2.31,2.31,0,0,0-.29-.69,2,2,0,0,0-.5-.54,2.26,2.26,0,0,0-.7-.34,3.12,3.12,0,0,0-.9-.12,2.68,2.68,0,0,0-1.31.31,2.91,2.91,0,0,0-1,.84,3.87,3.87,0,0,0-.59,1.2,4.76,4.76,0,0,0-.2,1.39,4.9,4.9,0,0,0,.19,1.34,3.83,3.83,0,0,0,.57,1.2,3,3,0,0,0,.95.86,2.81,2.81,0,0,0,2.28.16,2.52,2.52,0,0,0,.75-.45,2.4,2.4,0,0,0,.52-.65,2.51,2.51,0,0,0,.27-.77h1.07a4,4,0,0,1-.39,1.14,3.34,3.34,0,0,1-.73.94,3.4,3.4,0,0,1-1.06.64,3.84,3.84,0,0,1-1.38.23,4,4,0,0,1-1.72-.36,3.82,3.82,0,0,1-1.29-1,4.38,4.38,0,0,1-.81-1.47,6,6,0,0,1,0-3.55,4.39,4.39,0,0,1,.78-1.48,3.86,3.86,0,0,1,1.29-1A4,4,0,0,1,141.4,90.5Z"/><path class="cls-8" d="M150.8,99.58h-.88a4.09,4.09,0,0,1-.91-.09,1.29,1.29,0,0,1-.6-.3,1.19,1.19,0,0,1-.33-.57,3.52,3.52,0,0,1-.1-.91V91.65h-1.76v-.9H148V88.13h1.07v2.63h2v.9h-2v6a2.32,2.32,0,0,0,0,.45.85.85,0,0,0,.14.34.66.66,0,0,0,.28.22,1.17,1.17,0,0,0,.46.08h.8l.28,0v.91Z"/><path class="cls-8" d="M161.46,87.87a3.75,3.75,0,0,1,2.6.88,3,3,0,0,1,1,2.38,3.77,3.77,0,0,1-.73,2.21,9.28,9.28,0,0,1-2.67,2.21,11,11,0,0,0-2.21,1.64,2.65,2.65,0,0,0-.74,1.36h6.41v1h-7.6a4,4,0,0,1,.74-2.32A8.79,8.79,0,0,1,160.8,95a11.72,11.72,0,0,0,2.52-2A2.81,2.81,0,0,0,164,91.1a2.18,2.18,0,0,0-.72-1.7,2.68,2.68,0,0,0-1.87-.66,2.71,2.71,0,0,0-1.14.22,2.42,2.42,0,0,0-.81.59,2.35,2.35,0,0,0-.48.83,2.92,2.92,0,0,0-.16.94v.23h-1v-.16a3.9,3.9,0,0,1,.22-1.3,3.22,3.22,0,0,1,.68-1.12,3.29,3.29,0,0,1,1.14-.79A4.08,4.08,0,0,1,161.46,87.87Z"/><line class="cls-9" x1="219" y1="73" x2="361" y2="73"/><path class="cls-2" d="M387.45,165.84a2.36,2.36,0,0,1-.29,1.2,2.41,2.41,0,0,1-.78.82,3.5,3.5,0,0,1-1.13.47,5.89,5.89,0,0,1-1.34.15,5.17,5.17,0,0,1-1.37-.17,3.37,3.37,0,0,1-1.1-.51,2.49,2.49,0,0,1-.74-.84,2.38,2.38,0,0,1-.27-1.15v-.1h1.47v.05a1.33,1.33,0,0,0,.16.67,1.4,1.4,0,0,0,.45.48,2.11,2.11,0,0,0,.67.28,3.62,3.62,0,0,0,1.58,0,2.05,2.05,0,0,0,.63-.25,1.3,1.3,0,0,0,.42-.41A1.06,1.06,0,0,0,386,166a.93.93,0,0,0-.37-.76,3.25,3.25,0,0,0-1.16-.51l-1.84-.49a2.83,2.83,0,0,1-1.44-.78,2,2,0,0,1-.47-1.39A2.24,2.24,0,0,1,381,161a2.36,2.36,0,0,1,.7-.79,3.22,3.22,0,0,1,1-.48,4.62,4.62,0,0,1,1.25-.16,4.67,4.67,0,0,1,1.19.15,3.23,3.23,0,0,1,1,.45,2.32,2.32,0,0,1,.71.77,2.25,2.25,0,0,1,.28,1.09h-1.46a1.25,1.25,0,0,0-.16-.52,1.27,1.27,0,0,0-.37-.4,1.8,1.8,0,0,0-.55-.26,2.49,2.49,0,0,0-.71-.09,2.92,2.92,0,0,0-.67.07,1.75,1.75,0,0,0-.55.23,1.15,1.15,0,0,0-.37.38,1.05,1.05,0,0,0-.14.55,1,1,0,0,0,.07.39.8.8,0,0,0,.2.28,1.07,1.07,0,0,0,.31.19,3.06,3.06,0,0,0,.4.13l2,.53a3.69,3.69,0,0,1,1.7.87A2,2,0,0,1,387.45,165.84Z"/><path class="cls-3" d="M239.53,159.73v3.44h4v-3.44h1.49v8.55h-1.49v-3.86h-4v3.86H238v-8.55Z"/><path class="cls-3" d="M253.35,165a4.09,4.09,0,0,1-.23,1.38,3.1,3.1,0,0,1-.68,1.11,3,3,0,0,1-1,.73,3.49,3.49,0,0,1-1.36.25,3.12,3.12,0,0,1-2.38-1,3.94,3.94,0,0,1,0-5,3.1,3.1,0,0,1,2.39-1,3.15,3.15,0,0,1,2.4,1A3.54,3.54,0,0,1,253.35,165Zm-1.45,0a3.59,3.59,0,0,0-.11-.92,2.21,2.21,0,0,0-.35-.75,1.68,1.68,0,0,0-.58-.5,1.75,1.75,0,0,0-.83-.18,1.71,1.71,0,0,0-.77.17,1.62,1.62,0,0,0-.57.48,2.23,2.23,0,0,0-.36.74,3.79,3.79,0,0,0,0,1.9,2.19,2.19,0,0,0,.35.74,1.67,1.67,0,0,0,.58.49,1.7,1.7,0,0,0,.79.18,1.72,1.72,0,0,0,.79-.18,1.68,1.68,0,0,0,.58-.49,2.24,2.24,0,0,0,.36-.74A3.41,3.41,0,0,0,251.9,165Z"/><path class="cls-3" d="M263.25,168.28v-4a3.44,3.44,0,0,0-.05-.62,1.26,1.26,0,0,0-.19-.49,1,1,0,0,0-.39-.32,1.48,1.48,0,0,0-.63-.12,1.24,1.24,0,0,0-1.06.47,2.29,2.29,0,0,0-.35,1.38v3.74h-1.45v-4.21a1.64,1.64,0,0,0-.28-1,1.1,1.1,0,0,0-.91-.35,1.34,1.34,0,0,0-1.08.48,2,2,0,0,0-.4,1.31v3.81H255v-6.57h1.36v1h0a2.31,2.31,0,0,1,2.06-1.15,2.27,2.27,0,0,1,1.2.3,1.71,1.71,0,0,1,.71.86,2.45,2.45,0,0,1,.87-.86,2.21,2.21,0,0,1,3.47,2v4.48Z"/><path class="cls-3" d="M269.48,161.53a3,3,0,0,1,1.34.28,2.78,2.78,0,0,1,1,.77,3.33,3.33,0,0,1,.58,1.13,4.76,4.76,0,0,1,.19,1.37v.26h-4.85a2.77,2.77,0,0,0,.13.81,1.9,1.9,0,0,0,.35.63,1.55,1.55,0,0,0,.54.41,1.7,1.7,0,0,0,.72.15,1.9,1.9,0,0,0,1-.23,1.7,1.7,0,0,0,.61-.6h1.37a3.06,3.06,0,0,1-.45.81,2.83,2.83,0,0,1-.66.62,3,3,0,0,1-.85.39,3.66,3.66,0,0,1-1,.13,3.28,3.28,0,0,1-1.33-.26,2.82,2.82,0,0,1-1-.72,3.18,3.18,0,0,1-.62-1.1,4.31,4.31,0,0,1-.22-1.4,4,4,0,0,1,.22-1.33,3.3,3.3,0,0,1,.63-1.1,3,3,0,0,1,1-.76A3.16,3.16,0,0,1,269.48,161.53Zm1.63,2.85a2.77,2.77,0,0,0-.16-.71,1.73,1.73,0,0,0-.33-.55,1.43,1.43,0,0,0-.5-.35,1.91,1.91,0,0,0-1.37,0,1.51,1.51,0,0,0-.52.36,1.79,1.79,0,0,0-.35.55,2.54,2.54,0,0,0-.17.7Z"/><path class="cls-3" d="M274.08,168.48H273l3.47-9h1.1Z"/><path class="cls-3" d="M284.5,159.2v9.08h-1.37v-1h0a2.07,2.07,0,0,1-.37.5,2.16,2.16,0,0,1-.49.37,2.44,2.44,0,0,1-.59.23,2.79,2.79,0,0,1-.67.08,2.72,2.72,0,0,1-1.28-.29,2.76,2.76,0,0,1-.92-.77,3.38,3.38,0,0,1-.56-1.12A4.69,4.69,0,0,1,278,165a4.52,4.52,0,0,1,.18-1.26,3.34,3.34,0,0,1,.54-1.1,2.75,2.75,0,0,1,.91-.77,2.91,2.91,0,0,1,1.92-.22,2.49,2.49,0,0,1,.58.21,2.07,2.07,0,0,1,.49.35,2,2,0,0,1,.37.5h0V159.2Zm-5,5.79a3.63,3.63,0,0,0,.1.82,2.44,2.44,0,0,0,.31.76,1.81,1.81,0,0,0,.56.56,1.5,1.5,0,0,0,.83.22,1.73,1.73,0,0,0,.79-.17,1.58,1.58,0,0,0,.57-.49,2.25,2.25,0,0,0,.35-.75,3.68,3.68,0,0,0,.12-1,3.73,3.73,0,0,0-.1-.84,2.3,2.3,0,0,0-.31-.75,1.72,1.72,0,0,0-.57-.54,1.64,1.64,0,0,0-.85-.21,1.56,1.56,0,0,0-.82.2,1.7,1.7,0,0,0-.55.53,2.35,2.35,0,0,0-.32.75A3.93,3.93,0,0,0,279.47,165Z"/><path class="cls-3" d="M292.54,168.28l-.44.09-.39,0a1.79,1.79,0,0,1-.42,0,.91.91,0,0,1-.34-.16.84.84,0,0,1-.24-.29,1.28,1.28,0,0,1-.12-.45h0a2.67,2.67,0,0,1-.45.46,2.3,2.3,0,0,1-.52.31,3.32,3.32,0,0,1-1.31.24,2.42,2.42,0,0,1-1.62-.51,1.77,1.77,0,0,1-.6-1.45,1.7,1.7,0,0,1,.6-1.42,2.11,2.11,0,0,1,.58-.32,4.68,4.68,0,0,1,.73-.2q.39-.08.82-.13l.87-.1.34-.07a.8.8,0,0,0,.27-.13.59.59,0,0,0,.17-.22.79.79,0,0,0,.06-.33,1,1,0,0,0-.31-.79,2.11,2.11,0,0,0-2.05,0,1,1,0,0,0-.39.73h-1.45a2,2,0,0,1,.28-.9,2,2,0,0,1,.62-.62,2.88,2.88,0,0,1,.9-.36,5.08,5.08,0,0,1,1.13-.12,3.42,3.42,0,0,1,2,.5,1.65,1.65,0,0,1,.67,1.41V167a.47.47,0,0,0,.08.3.33.33,0,0,0,.27.1h.12l.13,0Zm-2-3.35h0a1,1,0,0,1-.54.23l-.48.08-.65.11a2.2,2.2,0,0,0-1,.37.87.87,0,0,0-.32.72.89.89,0,0,0,.37.76,1.48,1.48,0,0,0,.87.24A1.79,1.79,0,0,0,290,167a1.59,1.59,0,0,0,.49-1.24Z"/><path class="cls-3" d="M299.33,166.3a2,2,0,0,1-.23,1,2,2,0,0,1-.61.68,2.7,2.7,0,0,1-.91.39,4.79,4.79,0,0,1-1.12.13,4.56,4.56,0,0,1-1.08-.12,2.74,2.74,0,0,1-.89-.38,2.14,2.14,0,0,1-.63-.65,2.2,2.2,0,0,1-.3-.94h1.39a1.15,1.15,0,0,0,.51.8,1.51,1.51,0,0,0,.46.2,2.2,2.2,0,0,0,.56.07,2.4,2.4,0,0,0,.53-.06,1.46,1.46,0,0,0,.45-.18,1,1,0,0,0,.32-.31.78.78,0,0,0,.12-.44.61.61,0,0,0-.1-.35.9.9,0,0,0-.27-.26,1.81,1.81,0,0,0-.4-.18l-.47-.13-.93-.22a6,6,0,0,1-.91-.28,2.37,2.37,0,0,1-.63-.37,1.33,1.33,0,0,1-.37-.49,1.57,1.57,0,0,1-.12-.63,1.77,1.77,0,0,1,.21-.89,1.84,1.84,0,0,1,.58-.63,2.69,2.69,0,0,1,.87-.37,4.46,4.46,0,0,1,1.07-.12,3.88,3.88,0,0,1,1.06.13,2.61,2.61,0,0,1,.82.38,1.9,1.9,0,0,1,.54.59,2,2,0,0,1,.25.77h-1.39a1,1,0,0,0-.45-.65,1.65,1.65,0,0,0-.91-.23,2.3,2.3,0,0,0-.47,0,1.27,1.27,0,0,0-.39.14.77.77,0,0,0-.26.25.65.65,0,0,0-.1.36.6.6,0,0,0,.1.35.91.91,0,0,0,.26.25,1.47,1.47,0,0,0,.35.16l.37.1,1.38.33a4.37,4.37,0,0,1,.68.22,2,2,0,0,1,.54.34,1.47,1.47,0,0,1,.37.5A1.84,1.84,0,0,1,299.33,166.3Z"/><path class="cls-3" d="M305.26,168.28v-3.9a2.11,2.11,0,0,0-.32-1.27,1.19,1.19,0,0,0-1-.43,1.79,1.79,0,0,0-.72.13,1.33,1.33,0,0,0-.51.39,1.68,1.68,0,0,0-.3.62,3.13,3.13,0,0,0-.1.83v3.63h-1.44V159.2h1.44v3.5h0a1.94,1.94,0,0,1,.35-.48,2.36,2.36,0,0,1,.47-.37,2.24,2.24,0,0,1,.56-.24,2.32,2.32,0,0,1,.61-.08,3.33,3.33,0,0,1,1.08.16,1.77,1.77,0,0,1,.74.47,2,2,0,0,1,.43.81,4.22,4.22,0,0,1,.14,1.14v4.17Z"/><path class="cls-3" d="M315,165a4.85,4.85,0,0,1-.17,1.28,3.47,3.47,0,0,1-.52,1.11,2.65,2.65,0,0,1-.88.79,2.51,2.51,0,0,1-1.25.3,2.93,2.93,0,0,1-1.36-.3,1.9,1.9,0,0,1-.86-.87h0v1h-1.37V159.2H310v3.47h0a1.88,1.88,0,0,1,.36-.47,2.16,2.16,0,0,1,.5-.36,2.68,2.68,0,0,1,.61-.23,2.85,2.85,0,0,1,.68-.08,2.52,2.52,0,0,1,1.24.29,2.66,2.66,0,0,1,.88.78,3.4,3.4,0,0,1,.52,1.11A4.87,4.87,0,0,1,315,165Zm-1.45,0a3.74,3.74,0,0,0-.09-.82,2.52,2.52,0,0,0-.3-.76,1.71,1.71,0,0,0-.54-.56,1.5,1.5,0,0,0-.83-.22,1.57,1.57,0,0,0-.82.21,1.71,1.71,0,0,0-.56.54,2.39,2.39,0,0,0-.32.75,3.63,3.63,0,0,0-.1.86,3.68,3.68,0,0,0,.1.83,2.37,2.37,0,0,0,.31.76,1.76,1.76,0,0,0,.56.55,1.57,1.57,0,0,0,.84.21,1.49,1.49,0,0,0,.8-.21,1.69,1.69,0,0,0,.54-.54,2.43,2.43,0,0,0,.31-.75A3.94,3.94,0,0,0,313.58,165Z"/><path class="cls-3" d="M323,165a4.09,4.09,0,0,1-.23,1.38,3.1,3.1,0,0,1-.68,1.11,3,3,0,0,1-1,.73,3.49,3.49,0,0,1-1.36.25,3.12,3.12,0,0,1-2.38-1,3.94,3.94,0,0,1,0-5,3.1,3.1,0,0,1,2.39-1,3.15,3.15,0,0,1,2.4,1A3.54,3.54,0,0,1,323,165Zm-1.45,0a3.59,3.59,0,0,0-.11-.92,2.21,2.21,0,0,0-.35-.75,1.68,1.68,0,0,0-.58-.5,1.75,1.75,0,0,0-.83-.18,1.71,1.71,0,0,0-.77.17,1.62,1.62,0,0,0-.57.48,2.23,2.23,0,0,0-.36.74,3.79,3.79,0,0,0,0,1.9,2.19,2.19,0,0,0,.35.74,1.67,1.67,0,0,0,.58.49,1.7,1.7,0,0,0,.79.18,1.72,1.72,0,0,0,.79-.18,1.68,1.68,0,0,0,.58-.49,2.24,2.24,0,0,0,.36-.74A3.41,3.41,0,0,0,321.51,165Z"/><path class="cls-3" d="M330.7,168.28l-.44.09-.39,0a1.79,1.79,0,0,1-.42,0,.91.91,0,0,1-.34-.16.84.84,0,0,1-.24-.29,1.28,1.28,0,0,1-.12-.45h0a2.67,2.67,0,0,1-.45.46,2.3,2.3,0,0,1-.52.31,3.32,3.32,0,0,1-1.31.24,2.42,2.42,0,0,1-1.62-.51,1.77,1.77,0,0,1-.6-1.45,1.7,1.7,0,0,1,.6-1.42,2.11,2.11,0,0,1,.58-.32,4.68,4.68,0,0,1,.73-.2q.39-.08.82-.13l.87-.1.34-.07a.8.8,0,0,0,.27-.13.59.59,0,0,0,.17-.22.79.79,0,0,0,.06-.33,1,1,0,0,0-.31-.79,2.11,2.11,0,0,0-2.05,0,1,1,0,0,0-.39.73h-1.45a2,2,0,0,1,.28-.9,2,2,0,0,1,.62-.62,2.88,2.88,0,0,1,.9-.36,5.08,5.08,0,0,1,1.13-.12,3.42,3.42,0,0,1,2,.5,1.65,1.65,0,0,1,.67,1.41V167a.47.47,0,0,0,.08.3.33.33,0,0,0,.27.1h.12l.13,0Zm-2-3.35h0a1,1,0,0,1-.54.23l-.48.08-.65.11a2.2,2.2,0,0,0-1,.37.87.87,0,0,0-.32.72.89.89,0,0,0,.37.76,1.48,1.48,0,0,0,.87.24,1.79,1.79,0,0,0,1.27-.43,1.59,1.59,0,0,0,.49-1.24Z"/><path class="cls-3" d="M332.07,168.28v-6.57h1.37V163h0a2.4,2.4,0,0,1,.87-1.08,2.23,2.23,0,0,1,1.29-.39h.21l.2,0V163l-.25,0h-.28a1.84,1.84,0,0,0-1.48.6,2.36,2.36,0,0,0-.51,1.57v3.18Z"/><path class="cls-3" d="M343.28,159.2v9.08h-1.37v-1h0a2.07,2.07,0,0,1-.37.5,2.16,2.16,0,0,1-.49.37,2.44,2.44,0,0,1-.59.23,2.79,2.79,0,0,1-.67.08,2.72,2.72,0,0,1-1.28-.29,2.76,2.76,0,0,1-.92-.77,3.38,3.38,0,0,1-.56-1.12,4.69,4.69,0,0,1-.19-1.33,4.52,4.52,0,0,1,.18-1.26,3.34,3.34,0,0,1,.54-1.1,2.75,2.75,0,0,1,.91-.77,2.91,2.91,0,0,1,1.92-.22,2.49,2.49,0,0,1,.58.21,2.07,2.07,0,0,1,.49.35,2,2,0,0,1,.37.5h0V159.2Zm-5,5.79a3.63,3.63,0,0,0,.1.82,2.44,2.44,0,0,0,.31.76,1.81,1.81,0,0,0,.56.56,1.5,1.5,0,0,0,.83.22,1.73,1.73,0,0,0,.79-.17,1.58,1.58,0,0,0,.57-.49,2.25,2.25,0,0,0,.35-.75,3.68,3.68,0,0,0,.12-1,3.73,3.73,0,0,0-.1-.84,2.3,2.3,0,0,0-.31-.75,1.72,1.72,0,0,0-.57-.54,1.64,1.64,0,0,0-.85-.21,1.56,1.56,0,0,0-.82.2,1.7,1.7,0,0,0-.55.53,2.35,2.35,0,0,0-.32.75A3.93,3.93,0,0,0,338.26,165Z"/><line class="cls-4" x1="218.5" y1="146" x2="218.5" y2="182"/><line class="cls-4" x1="361.5" y1="146" x2="361.5" y2="182"/><path class="cls-5" d="M28,170H24.9l-1.5,5H18l3.6-11H28Zm0-7H21.92l3.63-10H28Zm1-10h3l3.63,10H29Zm10.51,22H34.14l-1.5-5H29v-6h6.91Z"/><path class="cls-5" d="M41,163V153h6v10Zm6,1v11H41V164Zm1-1V153h1.59A4.37,4.37,0,0,1,53,154.21a4.83,4.83,0,0,1-1,7.61c.75.3,1.42,1.18,2,1.18Zm8,4.94a7,7,0,0,1-1.85,4.94A6.39,6.39,0,0,1,49.59,175H48V164h6.73A6.15,6.15,0,0,1,56,167.94Z"/><path class="cls-5" d="M58,163V153h6v10Zm6,1v11H58V164Zm1-1V153h1.32a4.37,4.37,0,0,1,3.41,1.21,4.83,4.83,0,0,1-1,7.61c.75.3,1.42,1.18,2,1.18Zm7.76,4.94a7,7,0,0,1-1.85,4.94A6.39,6.39,0,0,1,66.32,175H65V164h6.46A6.15,6.15,0,0,1,72.76,167.94Z"/><path class="cls-10" d="M99.47,161.34a3.12,3.12,0,0,1-.93,2.4,3.4,3.4,0,0,1-2.4.86h-4v4.9H91V158.08h5.14a3.38,3.38,0,0,1,2.4.87A3.1,3.1,0,0,1,99.47,161.34Zm-1.09,0a2.23,2.23,0,0,0-.66-1.72,2.82,2.82,0,0,0-2-.61H92.09v4.67h3.8a2.63,2.63,0,0,0,1.8-.6A2.2,2.2,0,0,0,98.38,161.34Z"/><path class="cls-10" d="M101.35,169.5v-8.75h1v2h0a3.41,3.41,0,0,1,1.2-1.59,3.09,3.09,0,0,1,1.84-.57h.38v1.06h-.24a3,3,0,0,0-2.27.91,3.14,3.14,0,0,0-.86,2.25v4.64Z"/><path class="cls-10" d="M115.09,165.13a5.72,5.72,0,0,1-.27,1.75,4.42,4.42,0,0,1-.82,1.5,3.87,3.87,0,0,1-3.05,1.38,3.79,3.79,0,0,1-3-1.3,5.43,5.43,0,0,1,0-6.65,4.11,4.11,0,0,1,6,0A4.86,4.86,0,0,1,115.09,165.13Zm-1.07,0a5.07,5.07,0,0,0-.18-1.33,3.75,3.75,0,0,0-.56-1.2,3,3,0,0,0-1-.87,2.72,2.72,0,0,0-1.39-.34,2.63,2.63,0,0,0-1.31.32,3,3,0,0,0-1,.85,3.79,3.79,0,0,0-.58,1.2,4.86,4.86,0,0,0-.2,1.37,4.77,4.77,0,0,0,.19,1.33,4,4,0,0,0,.57,1.2,3,3,0,0,0,1,.87,2.86,2.86,0,0,0,2.65,0,3.13,3.13,0,0,0,1-.84,3.76,3.76,0,0,0,.6-1.19A4.73,4.73,0,0,0,114,165.13Z"/><path class="cls-10" d="M125.06,157.39V169.5h-1v-1.66h0a2.75,2.75,0,0,1-.52.79,3.48,3.48,0,0,1-.75.61,3.79,3.79,0,0,1-.9.39,3.56,3.56,0,0,1-1,.14,3.74,3.74,0,0,1-1.7-.37,3.58,3.58,0,0,1-1.23-1,4.42,4.42,0,0,1-.74-1.48,6.23,6.23,0,0,1-.25-1.78,6.43,6.43,0,0,1,.23-1.72,4.4,4.4,0,0,1,.71-1.48,3.57,3.57,0,0,1,1.22-1,4,4,0,0,1,2.7-.27,3.39,3.39,0,0,1,.87.36,3,3,0,0,1,.73.6,2.76,2.76,0,0,1,.51.84h0v-5Zm-7,7.73a5.56,5.56,0,0,0,.07.87,4.92,4.92,0,0,0,.21.86,3.76,3.76,0,0,0,.38.78,2.86,2.86,0,0,0,.55.64,2.42,2.42,0,0,0,.73.43,2.63,2.63,0,0,0,.93.16,2.77,2.77,0,0,0,2.31-1.12,3.56,3.56,0,0,0,.57-1.19,5.29,5.29,0,0,0,.19-1.42,5.37,5.37,0,0,0-.18-1.37,3.63,3.63,0,0,0-.55-1.2,2.74,2.74,0,0,0-2.35-1.17,2.58,2.58,0,0,0-.9.15,2.38,2.38,0,0,0-.72.41,2.85,2.85,0,0,0-.55.62,3.71,3.71,0,0,0-.39.77,4.67,4.67,0,0,0-.23.87A5.63,5.63,0,0,0,118,165.13Z"/><path class="cls-10" d="M134,169.5v-1.57h0a3.31,3.31,0,0,1-.52.77,3.13,3.13,0,0,1-.7.57,3.32,3.32,0,0,1-.84.36,3.7,3.7,0,0,1-1,.13,3,3,0,0,1-2.32-.84,3.53,3.53,0,0,1-.75-2.42v-5.75h1.07v5.7a3.55,3.55,0,0,0,.13,1,1.91,1.91,0,0,0,.41.75,1.79,1.79,0,0,0,.72.47,3.12,3.12,0,0,0,1.06.16,2.26,2.26,0,0,0,1.19-.3,2.58,2.58,0,0,0,.82-.79,3.51,3.51,0,0,0,.48-1.11,5.2,5.2,0,0,0,.15-1.25v-4.66h1.07v8.75Z"/><path class="cls-10" d="M141.4,160.5a4.59,4.59,0,0,1,1.29.17,3.36,3.36,0,0,1,1,.5,2.72,2.72,0,0,1,.74.81,3.08,3.08,0,0,1,.39,1.1H143.8a2.31,2.31,0,0,0-.29-.69,2,2,0,0,0-.5-.54,2.26,2.26,0,0,0-.7-.34,3.12,3.12,0,0,0-.9-.12,2.68,2.68,0,0,0-1.31.31,2.91,2.91,0,0,0-1,.84,3.87,3.87,0,0,0-.59,1.2,4.76,4.76,0,0,0-.2,1.39,4.9,4.9,0,0,0,.19,1.34,3.83,3.83,0,0,0,.57,1.2,3,3,0,0,0,.95.86,2.81,2.81,0,0,0,2.28.16,2.52,2.52,0,0,0,.75-.45,2.4,2.4,0,0,0,.52-.65,2.51,2.51,0,0,0,.27-.77h1.07a4,4,0,0,1-.39,1.14,3.34,3.34,0,0,1-.73.94,3.4,3.4,0,0,1-1.06.64,3.84,3.84,0,0,1-1.38.23,4,4,0,0,1-1.72-.36,3.82,3.82,0,0,1-1.29-1,4.38,4.38,0,0,1-.81-1.47,6,6,0,0,1,0-3.55,4.39,4.39,0,0,1,.78-1.48,3.86,3.86,0,0,1,1.29-1A4,4,0,0,1,141.4,160.5Z"/><path class="cls-10" d="M150.8,169.58h-.88a4.09,4.09,0,0,1-.91-.09,1.29,1.29,0,0,1-.6-.3,1.19,1.19,0,0,1-.33-.57,3.52,3.52,0,0,1-.1-.91v-6.09h-1.76v-.9H148v-2.62h1.07v2.63h2v.9h-2v6a2.32,2.32,0,0,0,0,.45.85.85,0,0,0,.14.34.66.66,0,0,0,.28.22,1.17,1.17,0,0,0,.46.08h.8l.28,0v.91Z"/><path class="cls-10" d="M161.36,157.87a4.76,4.76,0,0,1,1.3.18,3.55,3.55,0,0,1,1.14.54,2.78,2.78,0,0,1,.8.91,2.65,2.65,0,0,1,.3,1.3,3,3,0,0,1-.13.88,2.44,2.44,0,0,1-.37.74,2.37,2.37,0,0,1-.61.56,2.87,2.87,0,0,1-.83.36v0a2.74,2.74,0,0,1,1.77,1,2.94,2.94,0,0,1,.59,1.86,3.21,3.21,0,0,1-1.12,2.55,3.71,3.71,0,0,1-1.27.73,5.06,5.06,0,0,1-1.61.24,4.87,4.87,0,0,1-1.49-.22,3.74,3.74,0,0,1-1.23-.65,3.13,3.13,0,0,1-.84-1,3,3,0,0,1-.31-1.39v-.24h1v.22a2.32,2.32,0,0,0,.74,1.71,2.67,2.67,0,0,0,.88.54,3.26,3.26,0,0,0,1.18.2,3.62,3.62,0,0,0,1.21-.18,3,3,0,0,0,.93-.54,2.27,2.27,0,0,0,.86-1.84,2.52,2.52,0,0,0-.19-1,2.18,2.18,0,0,0-.56-.77,3,3,0,0,0-2-.66h-.86V163h.91a2.49,2.49,0,0,0,1.61-.55,1.9,1.9,0,0,0,.69-1.54,2.12,2.12,0,0,0-.2-.95,2,2,0,0,0-.54-.68,2.3,2.3,0,0,0-.8-.41,3.4,3.4,0,0,0-1-.14,2.8,2.8,0,0,0-1.08.2,2.38,2.38,0,0,0-.82.55,2.41,2.41,0,0,0-.52.8,2.63,2.63,0,0,0-.18,1h-1A3.25,3.25,0,0,1,158,160a3.37,3.37,0,0,1,.71-1.09,3.59,3.59,0,0,1,1.14-.78A3.75,3.75,0,0,1,161.36,157.87Z"/><line class="cls-11" x1="219" y1="143" x2="361" y2="143"/><path class="cls-2" d="M387.45,235.84a2.36,2.36,0,0,1-.29,1.2,2.41,2.41,0,0,1-.78.82,3.5,3.5,0,0,1-1.13.47,5.89,5.89,0,0,1-1.34.15,5.17,5.17,0,0,1-1.37-.17,3.37,3.37,0,0,1-1.1-.51,2.49,2.49,0,0,1-.74-.84,2.38,2.38,0,0,1-.27-1.15v-.1h1.47v.05a1.33,1.33,0,0,0,.16.67,1.4,1.4,0,0,0,.45.48,2.11,2.11,0,0,0,.67.28,3.62,3.62,0,0,0,1.58,0,2.05,2.05,0,0,0,.63-.25,1.3,1.3,0,0,0,.42-.41A1.06,1.06,0,0,0,386,236a.93.93,0,0,0-.37-.76,3.25,3.25,0,0,0-1.16-.51l-1.84-.49a2.83,2.83,0,0,1-1.44-.78,2,2,0,0,1-.47-1.39A2.24,2.24,0,0,1,381,231a2.36,2.36,0,0,1,.7-.79,3.22,3.22,0,0,1,1-.48,4.62,4.62,0,0,1,1.25-.16,4.67,4.67,0,0,1,1.19.15,3.23,3.23,0,0,1,1,.45,2.32,2.32,0,0,1,.71.77,2.25,2.25,0,0,1,.28,1.09h-1.46a1.25,1.25,0,0,0-.16-.52,1.27,1.27,0,0,0-.37-.4,1.8,1.8,0,0,0-.55-.26,2.49,2.49,0,0,0-.71-.09,2.92,2.92,0,0,0-.67.07,1.75,1.75,0,0,0-.55.23,1.15,1.15,0,0,0-.37.38,1.05,1.05,0,0,0-.14.55,1,1,0,0,0,.07.39.8.8,0,0,0,.2.28,1.07,1.07,0,0,0,.31.19,3.06,3.06,0,0,0,.4.13l2,.53a3.69,3.69,0,0,1,1.7.87A2,2,0,0,1,387.45,235.84Z"/><path class="cls-3" d="M239.53,229.73v3.44h4v-3.44h1.49v8.55h-1.49v-3.86h-4v3.86H238v-8.55Z"/><path class="cls-3" d="M253.35,235a4.09,4.09,0,0,1-.23,1.38,3.1,3.1,0,0,1-.68,1.11,3,3,0,0,1-1,.73,3.49,3.49,0,0,1-1.36.25,3.12,3.12,0,0,1-2.38-1,3.94,3.94,0,0,1,0-5,3.1,3.1,0,0,1,2.39-1,3.15,3.15,0,0,1,2.4,1A3.54,3.54,0,0,1,253.35,235Zm-1.45,0a3.59,3.59,0,0,0-.11-.92,2.21,2.21,0,0,0-.35-.75,1.68,1.68,0,0,0-.58-.5,1.75,1.75,0,0,0-.83-.18,1.71,1.71,0,0,0-.77.17,1.62,1.62,0,0,0-.57.48,2.23,2.23,0,0,0-.36.74,3.79,3.79,0,0,0,0,1.9,2.19,2.19,0,0,0,.35.74,1.67,1.67,0,0,0,.58.49,1.7,1.7,0,0,0,.79.18,1.72,1.72,0,0,0,.79-.18,1.68,1.68,0,0,0,.58-.49,2.24,2.24,0,0,0,.36-.74A3.41,3.41,0,0,0,251.9,235Z"/><path class="cls-3" d="M263.25,238.28v-4a3.44,3.44,0,0,0-.05-.62,1.26,1.26,0,0,0-.19-.49,1,1,0,0,0-.39-.32,1.48,1.48,0,0,0-.63-.12,1.24,1.24,0,0,0-1.06.47,2.29,2.29,0,0,0-.35,1.38v3.74h-1.45v-4.21a1.64,1.64,0,0,0-.28-1,1.1,1.1,0,0,0-.91-.35,1.34,1.34,0,0,0-1.08.48,2,2,0,0,0-.4,1.31v3.81H255v-6.57h1.36v1h0a2.31,2.31,0,0,1,2.06-1.15,2.27,2.27,0,0,1,1.2.3,1.71,1.71,0,0,1,.71.86,2.45,2.45,0,0,1,.87-.86,2.21,2.21,0,0,1,3.47,2v4.48Z"/><path class="cls-3" d="M269.48,231.53a3,3,0,0,1,1.34.28,2.78,2.78,0,0,1,1,.77,3.33,3.33,0,0,1,.58,1.13,4.76,4.76,0,0,1,.19,1.37v.26h-4.85a2.77,2.77,0,0,0,.13.81,1.9,1.9,0,0,0,.35.63,1.55,1.55,0,0,0,.54.41,1.7,1.7,0,0,0,.72.15,1.9,1.9,0,0,0,1-.23,1.7,1.7,0,0,0,.61-.6h1.37a3.06,3.06,0,0,1-.45.81,2.83,2.83,0,0,1-.66.62,3,3,0,0,1-.85.39,3.66,3.66,0,0,1-1,.13,3.28,3.28,0,0,1-1.33-.26,2.82,2.82,0,0,1-1-.72,3.18,3.18,0,0,1-.62-1.1,4.31,4.31,0,0,1-.22-1.4,4,4,0,0,1,.22-1.33,3.3,3.3,0,0,1,.63-1.1,3,3,0,0,1,1-.76A3.16,3.16,0,0,1,269.48,231.53Zm1.63,2.85a2.77,2.77,0,0,0-.16-.71,1.73,1.73,0,0,0-.33-.55,1.43,1.43,0,0,0-.5-.35,1.91,1.91,0,0,0-1.37,0,1.51,1.51,0,0,0-.52.36,1.79,1.79,0,0,0-.35.55,2.54,2.54,0,0,0-.17.7Z"/><path class="cls-3" d="M274.08,238.48H273l3.47-9h1.1Z"/><path class="cls-3" d="M284.5,229.2v9.08h-1.37v-1h0a2.07,2.07,0,0,1-.37.5,2.16,2.16,0,0,1-.49.37,2.44,2.44,0,0,1-.59.23,2.79,2.79,0,0,1-.67.08,2.72,2.72,0,0,1-1.28-.29,2.76,2.76,0,0,1-.92-.77,3.38,3.38,0,0,1-.56-1.12A4.69,4.69,0,0,1,278,235a4.52,4.52,0,0,1,.18-1.26,3.34,3.34,0,0,1,.54-1.1,2.75,2.75,0,0,1,.91-.77,2.91,2.91,0,0,1,1.92-.22,2.49,2.49,0,0,1,.58.21,2.07,2.07,0,0,1,.49.35,2,2,0,0,1,.37.5h0V229.2Zm-5,5.79a3.63,3.63,0,0,0,.1.82,2.44,2.44,0,0,0,.31.76,1.81,1.81,0,0,0,.56.56,1.5,1.5,0,0,0,.83.22,1.73,1.73,0,0,0,.79-.17,1.58,1.58,0,0,0,.57-.49,2.25,2.25,0,0,0,.35-.75,3.68,3.68,0,0,0,.12-1,3.73,3.73,0,0,0-.1-.84,2.3,2.3,0,0,0-.31-.75,1.72,1.72,0,0,0-.57-.54,1.64,1.64,0,0,0-.85-.21,1.56,1.56,0,0,0-.82.2,1.7,1.7,0,0,0-.55.53,2.35,2.35,0,0,0-.32.75A3.93,3.93,0,0,0,279.47,235Z"/><path class="cls-3" d="M292.54,238.28l-.44.09-.39,0a1.79,1.79,0,0,1-.42,0,.91.91,0,0,1-.34-.16.84.84,0,0,1-.24-.29,1.28,1.28,0,0,1-.12-.45h0a2.67,2.67,0,0,1-.45.46,2.3,2.3,0,0,1-.52.31,3.32,3.32,0,0,1-1.31.24,2.42,2.42,0,0,1-1.62-.51,1.77,1.77,0,0,1-.6-1.45,1.7,1.7,0,0,1,.6-1.42,2.11,2.11,0,0,1,.58-.32,4.68,4.68,0,0,1,.73-.2q.39-.08.82-.13l.87-.1.34-.07a.8.8,0,0,0,.27-.13.59.59,0,0,0,.17-.22.79.79,0,0,0,.06-.33,1,1,0,0,0-.31-.79,2.11,2.11,0,0,0-2.05,0,1,1,0,0,0-.39.73h-1.45a2,2,0,0,1,.28-.9,2,2,0,0,1,.62-.62,2.88,2.88,0,0,1,.9-.36,5.08,5.08,0,0,1,1.13-.12,3.42,3.42,0,0,1,2,.5,1.65,1.65,0,0,1,.67,1.41V237a.47.47,0,0,0,.08.3.33.33,0,0,0,.27.1h.12l.13,0Zm-2-3.35h0a1,1,0,0,1-.54.23l-.48.08-.65.11a2.2,2.2,0,0,0-1,.37.87.87,0,0,0-.32.72.89.89,0,0,0,.37.76,1.48,1.48,0,0,0,.87.24A1.79,1.79,0,0,0,290,237a1.59,1.59,0,0,0,.49-1.24Z"/><path class="cls-3" d="M299.33,236.3a2,2,0,0,1-.23,1,2,2,0,0,1-.61.68,2.7,2.7,0,0,1-.91.39,4.79,4.79,0,0,1-1.12.13,4.56,4.56,0,0,1-1.08-.12,2.74,2.74,0,0,1-.89-.38,2.14,2.14,0,0,1-.63-.65,2.2,2.2,0,0,1-.3-.94h1.39a1.15,1.15,0,0,0,.51.8,1.51,1.51,0,0,0,.46.2,2.2,2.2,0,0,0,.56.07,2.4,2.4,0,0,0,.53-.06,1.46,1.46,0,0,0,.45-.18,1,1,0,0,0,.32-.31.78.78,0,0,0,.12-.44.61.61,0,0,0-.1-.35.9.9,0,0,0-.27-.26,1.81,1.81,0,0,0-.4-.18l-.47-.13-.93-.22a6,6,0,0,1-.91-.28,2.37,2.37,0,0,1-.63-.37,1.33,1.33,0,0,1-.37-.49,1.57,1.57,0,0,1-.12-.63,1.77,1.77,0,0,1,.21-.89,1.84,1.84,0,0,1,.58-.63,2.69,2.69,0,0,1,.87-.37,4.46,4.46,0,0,1,1.07-.12,3.88,3.88,0,0,1,1.06.13,2.61,2.61,0,0,1,.82.38,1.9,1.9,0,0,1,.54.59,2,2,0,0,1,.25.77h-1.39a1,1,0,0,0-.45-.65,1.65,1.65,0,0,0-.91-.23,2.3,2.3,0,0,0-.47,0,1.27,1.27,0,0,0-.39.14.77.77,0,0,0-.26.25.65.65,0,0,0-.1.36.6.6,0,0,0,.1.35.91.91,0,0,0,.26.25,1.47,1.47,0,0,0,.35.16l.37.1,1.38.33a4.37,4.37,0,0,1,.68.22,2,2,0,0,1,.54.34,1.47,1.47,0,0,1,.37.5A1.84,1.84,0,0,1,299.33,236.3Z"/><path class="cls-3" d="M305.26,238.28v-3.9a2.11,2.11,0,0,0-.32-1.27,1.19,1.19,0,0,0-1-.43,1.79,1.79,0,0,0-.72.13,1.33,1.33,0,0,0-.51.39,1.68,1.68,0,0,0-.3.62,3.13,3.13,0,0,0-.1.83v3.63h-1.44V229.2h1.44v3.5h0a1.94,1.94,0,0,1,.35-.48,2.36,2.36,0,0,1,.47-.37,2.24,2.24,0,0,1,.56-.24,2.32,2.32,0,0,1,.61-.08,3.33,3.33,0,0,1,1.08.16,1.77,1.77,0,0,1,.74.47,2,2,0,0,1,.43.81,4.22,4.22,0,0,1,.14,1.14v4.17Z"/><path class="cls-3" d="M315,235a4.85,4.85,0,0,1-.17,1.28,3.47,3.47,0,0,1-.52,1.11,2.65,2.65,0,0,1-.88.79,2.51,2.51,0,0,1-1.25.3,2.93,2.93,0,0,1-1.36-.3,1.9,1.9,0,0,1-.86-.87h0v1h-1.37V229.2H310v3.47h0a1.88,1.88,0,0,1,.36-.47,2.16,2.16,0,0,1,.5-.36,2.68,2.68,0,0,1,.61-.23,2.85,2.85,0,0,1,.68-.08,2.52,2.52,0,0,1,1.24.29,2.66,2.66,0,0,1,.88.78,3.4,3.4,0,0,1,.52,1.11A4.87,4.87,0,0,1,315,235Zm-1.45,0a3.74,3.74,0,0,0-.09-.82,2.52,2.52,0,0,0-.3-.76,1.71,1.71,0,0,0-.54-.56,1.5,1.5,0,0,0-.83-.22,1.57,1.57,0,0,0-.82.21,1.71,1.71,0,0,0-.56.54,2.39,2.39,0,0,0-.32.75,3.63,3.63,0,0,0-.1.86,3.68,3.68,0,0,0,.1.83,2.37,2.37,0,0,0,.31.76,1.76,1.76,0,0,0,.56.55,1.57,1.57,0,0,0,.84.21,1.49,1.49,0,0,0,.8-.21,1.69,1.69,0,0,0,.54-.54,2.43,2.43,0,0,0,.31-.75A3.94,3.94,0,0,0,313.58,235Z"/><path class="cls-3" d="M323,235a4.09,4.09,0,0,1-.23,1.38,3.1,3.1,0,0,1-.68,1.11,3,3,0,0,1-1,.73,3.49,3.49,0,0,1-1.36.25,3.12,3.12,0,0,1-2.38-1,3.94,3.94,0,0,1,0-5,3.1,3.1,0,0,1,2.39-1,3.15,3.15,0,0,1,2.4,1A3.54,3.54,0,0,1,323,235Zm-1.45,0a3.59,3.59,0,0,0-.11-.92,2.21,2.21,0,0,0-.35-.75,1.68,1.68,0,0,0-.58-.5,1.75,1.75,0,0,0-.83-.18,1.71,1.71,0,0,0-.77.17,1.62,1.62,0,0,0-.57.48,2.23,2.23,0,0,0-.36.74,3.79,3.79,0,0,0,0,1.9,2.19,2.19,0,0,0,.35.74,1.67,1.67,0,0,0,.58.49,1.7,1.7,0,0,0,.79.18,1.72,1.72,0,0,0,.79-.18,1.68,1.68,0,0,0,.58-.49,2.24,2.24,0,0,0,.36-.74A3.41,3.41,0,0,0,321.51,235Z"/><path class="cls-3" d="M330.7,238.28l-.44.09-.39,0a1.79,1.79,0,0,1-.42,0,.91.91,0,0,1-.34-.16.84.84,0,0,1-.24-.29,1.28,1.28,0,0,1-.12-.45h0a2.67,2.67,0,0,1-.45.46,2.3,2.3,0,0,1-.52.31,3.32,3.32,0,0,1-1.31.24,2.42,2.42,0,0,1-1.62-.51,1.77,1.77,0,0,1-.6-1.45,1.7,1.7,0,0,1,.6-1.42,2.11,2.11,0,0,1,.58-.32,4.68,4.68,0,0,1,.73-.2q.39-.08.82-.13l.87-.1.34-.07a.8.8,0,0,0,.27-.13.59.59,0,0,0,.17-.22.79.79,0,0,0,.06-.33,1,1,0,0,0-.31-.79,2.11,2.11,0,0,0-2.05,0,1,1,0,0,0-.39.73h-1.45a2,2,0,0,1,.28-.9,2,2,0,0,1,.62-.62,2.88,2.88,0,0,1,.9-.36,5.08,5.08,0,0,1,1.13-.12,3.42,3.42,0,0,1,2,.5,1.65,1.65,0,0,1,.67,1.41V237a.47.47,0,0,0,.08.3.33.33,0,0,0,.27.1h.12l.13,0Zm-2-3.35h0a1,1,0,0,1-.54.23l-.48.08-.65.11a2.2,2.2,0,0,0-1,.37.87.87,0,0,0-.32.72.89.89,0,0,0,.37.76,1.48,1.48,0,0,0,.87.24,1.79,1.79,0,0,0,1.27-.43,1.59,1.59,0,0,0,.49-1.24Z"/><path class="cls-3" d="M332.07,238.28v-6.57h1.37V233h0a2.4,2.4,0,0,1,.87-1.08,2.23,2.23,0,0,1,1.29-.39h.21l.2,0V233l-.25,0h-.28a1.84,1.84,0,0,0-1.48.6,2.36,2.36,0,0,0-.51,1.57v3.18Z"/><path class="cls-3" d="M343.28,229.2v9.08h-1.37v-1h0a2.07,2.07,0,0,1-.37.5,2.16,2.16,0,0,1-.49.37,2.44,2.44,0,0,1-.59.23,2.79,2.79,0,0,1-.67.08,2.72,2.72,0,0,1-1.28-.29,2.76,2.76,0,0,1-.92-.77,3.38,3.38,0,0,1-.56-1.12,4.69,4.69,0,0,1-.19-1.33,4.52,4.52,0,0,1,.18-1.26,3.34,3.34,0,0,1,.54-1.1,2.75,2.75,0,0,1,.91-.77,2.91,2.91,0,0,1,1.92-.22,2.49,2.49,0,0,1,.58.21,2.07,2.07,0,0,1,.49.35,2,2,0,0,1,.37.5h0V229.2Zm-5,5.79a3.63,3.63,0,0,0,.1.82,2.44,2.44,0,0,0,.31.76,1.81,1.81,0,0,0,.56.56,1.5,1.5,0,0,0,.83.22,1.73,1.73,0,0,0,.79-.17,1.58,1.58,0,0,0,.57-.49,2.25,2.25,0,0,0,.35-.75,3.68,3.68,0,0,0,.12-1,3.73,3.73,0,0,0-.1-.84,2.3,2.3,0,0,0-.31-.75,1.72,1.72,0,0,0-.57-.54,1.64,1.64,0,0,0-.85-.21,1.56,1.56,0,0,0-.82.2,1.7,1.7,0,0,0-.55.53,2.35,2.35,0,0,0-.32.75A3.93,3.93,0,0,0,338.26,235Z"/><line class="cls-4" x1="218.5" y1="216" x2="218.5" y2="252"/><line class="cls-4" x1="361.5" y1="216" x2="361.5" y2="252"/><path class="cls-5" d="M28,240H24.9l-1.5,5H18l3.6-11H28Zm0-7H21.92l3.63-10H28Zm1-10h3l3.63,10H29Zm10.51,22H34.14l-1.5-5H29v-6h6.91Z"/><path class="cls-5" d="M41,233V223h6v10Zm6,1v11H41V234Zm1-1V223h1.59A4.37,4.37,0,0,1,53,224.21a4.83,4.83,0,0,1-1,7.61c.75.3,1.42,1.18,2,1.18Zm8,4.94a7,7,0,0,1-1.85,4.94A6.39,6.39,0,0,1,49.59,245H48V234h6.73A6.15,6.15,0,0,1,56,237.94Z"/><path class="cls-5" d="M58,233V223h6v10Zm6,1v11H58V234Zm1-1V223h1.32a4.37,4.37,0,0,1,3.41,1.21,4.83,4.83,0,0,1-1,7.61c.75.3,1.42,1.18,2,1.18Zm7.76,4.94a7,7,0,0,1-1.85,4.94A6.39,6.39,0,0,1,66.32,245H65V234h6.46A6.15,6.15,0,0,1,72.76,237.94Z"/><path class="cls-12" d="M99.47,231.34a3.12,3.12,0,0,1-.93,2.4,3.4,3.4,0,0,1-2.4.86h-4v4.9H91V228.08h5.14a3.38,3.38,0,0,1,2.4.87A3.1,3.1,0,0,1,99.47,231.34Zm-1.09,0a2.23,2.23,0,0,0-.66-1.72,2.82,2.82,0,0,0-2-.61H92.09v4.67h3.8a2.63,2.63,0,0,0,1.8-.6A2.2,2.2,0,0,0,98.38,231.34Z"/><path class="cls-12" d="M101.35,239.5v-8.75h1v2h0a3.41,3.41,0,0,1,1.2-1.59,3.09,3.09,0,0,1,1.84-.57h.38v1.06h-.24a3,3,0,0,0-2.27.91,3.14,3.14,0,0,0-.86,2.25v4.64Z"/><path class="cls-12" d="M115.09,235.13a5.72,5.72,0,0,1-.27,1.75,4.42,4.42,0,0,1-.82,1.5,3.87,3.87,0,0,1-3.05,1.38,3.79,3.79,0,0,1-3-1.3,5.43,5.43,0,0,1,0-6.65,4.11,4.11,0,0,1,6,0A4.86,4.86,0,0,1,115.09,235.13Zm-1.07,0a5.07,5.07,0,0,0-.18-1.33,3.75,3.75,0,0,0-.56-1.2,3,3,0,0,0-1-.87,2.72,2.72,0,0,0-1.39-.34,2.63,2.63,0,0,0-1.31.32,3,3,0,0,0-1,.85,3.79,3.79,0,0,0-.58,1.2,4.86,4.86,0,0,0-.2,1.37,4.77,4.77,0,0,0,.19,1.33,4,4,0,0,0,.57,1.2,3,3,0,0,0,1,.87,2.86,2.86,0,0,0,2.65,0,3.13,3.13,0,0,0,1-.84,3.76,3.76,0,0,0,.6-1.19A4.73,4.73,0,0,0,114,235.13Z"/><path class="cls-12" d="M125.06,227.39V239.5h-1v-1.66h0a2.75,2.75,0,0,1-.52.79,3.48,3.48,0,0,1-.75.61,3.79,3.79,0,0,1-.9.39,3.56,3.56,0,0,1-1,.14,3.74,3.74,0,0,1-1.7-.37,3.58,3.58,0,0,1-1.23-1,4.42,4.42,0,0,1-.74-1.48,6.23,6.23,0,0,1-.25-1.78,6.43,6.43,0,0,1,.23-1.72,4.4,4.4,0,0,1,.71-1.48,3.57,3.57,0,0,1,1.22-1,4,4,0,0,1,2.7-.27,3.39,3.39,0,0,1,.87.36,3,3,0,0,1,.73.6,2.76,2.76,0,0,1,.51.84h0v-5Zm-7,7.73a5.56,5.56,0,0,0,.07.87,4.92,4.92,0,0,0,.21.86,3.76,3.76,0,0,0,.38.78,2.86,2.86,0,0,0,.55.64,2.42,2.42,0,0,0,.73.43,2.63,2.63,0,0,0,.93.16,2.77,2.77,0,0,0,2.31-1.12,3.56,3.56,0,0,0,.57-1.19,5.29,5.29,0,0,0,.19-1.42,5.37,5.37,0,0,0-.18-1.37,3.63,3.63,0,0,0-.55-1.2,2.74,2.74,0,0,0-2.35-1.17,2.58,2.58,0,0,0-.9.15,2.38,2.38,0,0,0-.72.41,2.85,2.85,0,0,0-.55.62,3.71,3.71,0,0,0-.39.77,4.67,4.67,0,0,0-.23.87A5.63,5.63,0,0,0,118,235.13Z"/><path class="cls-12" d="M134,239.5v-1.57h0a3.31,3.31,0,0,1-.52.77,3.13,3.13,0,0,1-.7.57,3.32,3.32,0,0,1-.84.36,3.7,3.7,0,0,1-1,.13,3,3,0,0,1-2.32-.84,3.53,3.53,0,0,1-.75-2.42v-5.75h1.07v5.7a3.55,3.55,0,0,0,.13,1,1.91,1.91,0,0,0,.41.75,1.79,1.79,0,0,0,.72.47,3.12,3.12,0,0,0,1.06.16,2.26,2.26,0,0,0,1.19-.3,2.58,2.58,0,0,0,.82-.79,3.51,3.51,0,0,0,.48-1.11,5.2,5.2,0,0,0,.15-1.25v-4.66h1.07v8.75Z"/><path class="cls-12" d="M141.4,230.5a4.59,4.59,0,0,1,1.29.17,3.36,3.36,0,0,1,1,.5,2.72,2.72,0,0,1,.74.81,3.08,3.08,0,0,1,.39,1.1H143.8a2.31,2.31,0,0,0-.29-.69,2,2,0,0,0-.5-.54,2.26,2.26,0,0,0-.7-.34,3.12,3.12,0,0,0-.9-.12,2.68,2.68,0,0,0-1.31.31,2.91,2.91,0,0,0-1,.84,3.87,3.87,0,0,0-.59,1.2,4.76,4.76,0,0,0-.2,1.39,4.9,4.9,0,0,0,.19,1.34,3.83,3.83,0,0,0,.57,1.2,3,3,0,0,0,.95.86,2.81,2.81,0,0,0,2.28.16,2.52,2.52,0,0,0,.75-.45,2.4,2.4,0,0,0,.52-.65,2.51,2.51,0,0,0,.27-.77h1.07a4,4,0,0,1-.39,1.14,3.34,3.34,0,0,1-.73.94,3.4,3.4,0,0,1-1.06.64,3.84,3.84,0,0,1-1.38.23,4,4,0,0,1-1.72-.36,3.82,3.82,0,0,1-1.29-1,4.38,4.38,0,0,1-.81-1.47,6,6,0,0,1,0-3.55,4.39,4.39,0,0,1,.78-1.48,3.86,3.86,0,0,1,1.29-1A4,4,0,0,1,141.4,230.5Z"/><path class="cls-12" d="M150.8,239.58h-.88a4.09,4.09,0,0,1-.91-.09,1.29,1.29,0,0,1-.6-.3,1.19,1.19,0,0,1-.33-.57,3.52,3.52,0,0,1-.1-.91v-6.09h-1.76v-.9H148v-2.62h1.07v2.63h2v.9h-2v6a2.32,2.32,0,0,0,0,.45.85.85,0,0,0,.14.34.66.66,0,0,0,.28.22,1.17,1.17,0,0,0,.46.08h.8l.28,0v.91Z"/><path class="cls-12" d="M163.68,236.63v2.87h-1v-2.87H157.4v-1l5.34-7.67h.94v7.8h1.73v.88Zm-1-7.15h0l-4.36,6.27h4.39Z"/><line class="cls-13" x1="219" y1="213" x2="361" y2="213"/></g></svg>