<svg xmlns="http://www.w3.org/2000/svg" viewBox="0 0 400 48"><defs><style>.cls-1{fill:#242424;}.cls-2{fill:#fafafa;}.cls-3{fill:#b7519f;opacity:0.3;}.cls-4,.cls-6{fill:none;stroke-miterlimit:10;}.cls-4{stroke:#b7519f;}.cls-5{fill:#fff;}.cls-6{stroke:#fff;}</style></defs><title>Protected area</title><g id="Bg"><polygon class="cls-1" points="0 48 380 48 400 0 0 0 0 48"/><rect width="400" height="1"/></g><g id="Layer_1" data-name="Layer 1"><path class="cls-2" d="M28,30H24.9l-1.5,5H18l3.6-11H28Zm0-7H21.92l3.63-10H28Zm1-10h3l3.63,10H29ZM39.51,35H34.14l-1.5-5H29V24h6.91Z"/><path class="cls-2" d="M41,23V13h6V23Zm6,1V35H41V24Zm1-1V13h1.59A4.37,4.37,0,0,1,53,14.21a4.57,4.57,0,0,1,1.41,3.38A4.58,4.58,0,0,1,52,21.82c.75.3,1.42,1.18,2,1.18Zm8,4.94a7,7,0,0,1-1.85,4.94A6.39,6.39,0,0,1,49.59,35H48V24h6.73A6.15,6.15,0,0,1,56,27.94Z"/><path class="cls-2" d="M58,23V13h6V23Zm6,1V35H58V24Zm1-1V13h1.32a4.37,4.37,0,0,1,3.41,1.21,4.57,4.57,0,0,1,1.41,3.38,4.58,4.58,0,0,1-2.45,4.23c.75.3,1.42,1.18,2,1.18Zm7.76,4.94a7,7,0,0,1-1.85,4.94A6.39,6.39,0,0,1,66.32,35H65V24h6.46A6.15,6.15,0,0,1,72.76,27.94Z"/><rect class="cls-3" x="7.5" y="35" width="76.5" height="11"/><rect class="cls-3" x="7.5" y="2.25" width="76.5" height="11"/><rect class="cls-3" x="-9" y="18.5" width="43" height="11" transform="translate(36.5 11.5) rotate(90)"/><rect class="cls-3" x="57" y="18.5" width="43" height="11" transform="translate(102.5 -54.5) rotate(90)"/><line class="cls-4" x1="17.5" y1="2.5" x2="17.5" y2="45.5"/><line class="cls-4" x1="7.5" y1="2.5" x2="7.5" y2="45.5"/><line class="cls-4" x1="83.5" y1="2.5" x2="83.5" y2="45.5"/><line class="cls-4" x1="73.5" y1="2.5" x2="73.5" y2="45.5"/><line class="cls-4" x1="115" y1="12.5" x2="7" y2="12.5"/><line class="cls-4" x1="84" y1="2.5" x2="7" y2="2.5"/><line class="cls-4" x1="84" y1="45.5" x2="7" y2="45.5"/><line class="cls-4" x1="115" y1="35.5" x2="7" y2="35.5"/><path class="cls-5" d="M95.08,21.47l1.5,4.71h0l1.48-4.71H99.4l-2.12,6H95.83l-2.16-6Z"/><path class="cls-5" d="M104.5,27.5V23.92a1.94,1.94,0,0,0-.29-1.16,1.09,1.09,0,0,0-.94-.39,1.64,1.64,0,0,0-.66.12,1.21,1.21,0,0,0-.47.36,1.54,1.54,0,0,0-.28.57,2.86,2.86,0,0,0-.09.76V27.5h-1.32V19.17h1.32v3.21h0a1.79,1.79,0,0,1,.32-.44,2.14,2.14,0,0,1,.44-.34,2,2,0,0,1,.52-.22,2.14,2.14,0,0,1,.56-.08,3.05,3.05,0,0,1,1,.14,1.62,1.62,0,0,1,.68.43,1.79,1.79,0,0,1,.39.74,3.85,3.85,0,0,1,.13,1V27.5Z"/><path class="cls-5" d="M124.58,35.83a2.43,2.43,0,0,1,2.12,1,5.24,5.24,0,0,1,.73,3A5.35,5.35,0,0,1,126.7,43a2.68,2.68,0,0,1-4.23,0,5.33,5.33,0,0,1-.73-3.07,5.26,5.26,0,0,1,.73-3A2.42,2.42,0,0,1,124.58,35.83ZM123,39.89a9.4,9.4,0,0,0,.07,1.14,3.81,3.81,0,0,0,.24,1,1.68,1.68,0,0,0,.48.68,1.18,1.18,0,0,0,.78.25,1.2,1.2,0,0,0,1-.47,1.93,1.93,0,0,0,.29-.51,3.87,3.87,0,0,0,.18-.63,5.94,5.94,0,0,0,.09-.7c0-.24,0-.49,0-.73a8.74,8.74,0,0,0-.07-1.16,3.48,3.48,0,0,0-.25-1,1.67,1.67,0,0,0-.49-.65,1.21,1.21,0,0,0-.77-.24A1.17,1.17,0,0,0,124,37a1.27,1.27,0,0,0-.41.34,1.85,1.85,0,0,0-.28.5,4,4,0,0,0-.18.62,6.12,6.12,0,0,0-.1.7C123,39.41,123,39.65,123,39.89Z"/><path class="cls-5" d="M130.24,42.33v1.5h-1.47v-1.5Z"/><path class="cls-5" d="M136.79,36v1.08h-3.32l-.38,2.05,0,0a2.11,2.11,0,0,1,.69-.46,2.34,2.34,0,0,1,.89-.16,2.58,2.58,0,0,1,1,.2,2.32,2.32,0,0,1,.79.56,2.49,2.49,0,0,1,.5.85,3.18,3.18,0,0,1,.17,1.07,2.68,2.68,0,0,1-.22,1.07,2.73,2.73,0,0,1-.6.88,2.87,2.87,0,0,1-.92.6,3,3,0,0,1-1.15.22,3.82,3.82,0,0,1-1.06-.14,2.46,2.46,0,0,1-.85-.42,2.13,2.13,0,0,1-.58-.7,2.42,2.42,0,0,1-.26-1h1.28a1.4,1.4,0,0,0,.13.46,1.22,1.22,0,0,0,.29.38,1.29,1.29,0,0,0,.44.25,1.79,1.79,0,0,0,.6.09,1.53,1.53,0,0,0,.67-.14,1.56,1.56,0,0,0,.51-.38,1.7,1.7,0,0,0,.32-.56,2,2,0,0,0,.11-.67,1.94,1.94,0,0,0-.11-.64,1.51,1.51,0,0,0-.82-.9,1.61,1.61,0,0,0-.67-.14,1.61,1.61,0,0,0-1.4.7h-1.14l.77-4.22Z"/><path class="cls-5" d="M142.52,37.81l1.5,4.71h0l1.48-4.71h1.32l-2.12,6h-1.46l-2.16-6Z"/><path class="cls-5" d="M151.94,43.83V40.26a1.94,1.94,0,0,0-.29-1.16,1.09,1.09,0,0,0-.94-.39,1.64,1.64,0,0,0-.66.12,1.21,1.21,0,0,0-.47.36,1.54,1.54,0,0,0-.28.57,2.86,2.86,0,0,0-.09.76v3.32h-1.32V35.51h1.32v3.21h0a1.79,1.79,0,0,1,.32-.44,2.14,2.14,0,0,1,.44-.34,2,2,0,0,1,.52-.22,2.14,2.14,0,0,1,.56-.08,3.05,3.05,0,0,1,1,.14,1.62,1.62,0,0,1,.68.43,1.79,1.79,0,0,1,.39.74,3.85,3.85,0,0,1,.13,1v3.82Z"/><polyline class="cls-5" points="96.51 16 99.51 13 102.51 16"/><polyline class="cls-5" points="96.51 32 99.51 35 102.51 32"/><line class="cls-6" x1="78.95" y1="40.08" x2="117.07" y2="40.08"/><circle class="cls-5" cx="78.95" cy="40.08" r="1.88"/></g></svg>