<svg xmlns="http://www.w3.org/2000/svg" viewBox="0 0 400 48"><defs><style>.cls-1{fill:#242424;}.cls-2{fill:#b4b4b4;}.cls-3,.cls-6{fill:none;stroke-miterlimit:10;}.cls-3{stroke:#000;}.cls-4{fill:#fafafa;}.cls-5{fill:#b7519f;opacity:0.3;}.cls-6{stroke:#b7519f;}.cls-7{fill:#fff;}</style></defs><title>Top bar grid</title><g id="Bg"><polygon class="cls-1" points="0 48 380 48 400 0 0 0 0 48"/><rect width="400" height="1"/></g><g id="Layer_1" data-name="Layer 1"><path class="cls-2" d="M239.53,19.73v3.44h4V19.73h1.49v8.55h-1.49V24.43h-4v3.86H238V19.73Z"/><path class="cls-2" d="M253.22,25a4.09,4.09,0,0,1-.23,1.38,3.1,3.1,0,0,1-.68,1.11,3,3,0,0,1-1,.73,3.49,3.49,0,0,1-1.36.25,3.12,3.12,0,0,1-2.38-1,3.53,3.53,0,0,1-.91-2.51,3.54,3.54,0,0,1,.9-2.51,3.1,3.1,0,0,1,2.39-1,3.15,3.15,0,0,1,2.4,1A3.54,3.54,0,0,1,253.22,25Zm-1.45,0a3.59,3.59,0,0,0-.11-.92,2.21,2.21,0,0,0-.35-.75,1.68,1.68,0,0,0-.58-.5,1.75,1.75,0,0,0-.83-.18,1.71,1.71,0,0,0-.77.17,1.62,1.62,0,0,0-.57.48,2.23,2.23,0,0,0-.36.74,3.79,3.79,0,0,0,0,1.9,2.19,2.19,0,0,0,.35.74,1.67,1.67,0,0,0,.58.49,1.7,1.7,0,0,0,.79.18,1.72,1.72,0,0,0,.79-.18,1.68,1.68,0,0,0,.58-.49,2.24,2.24,0,0,0,.36-.74A3.41,3.41,0,0,0,251.77,25Z"/><path class="cls-2" d="M263,28.28v-4a3.44,3.44,0,0,0-.05-.62,1.26,1.26,0,0,0-.19-.49,1,1,0,0,0-.39-.32,1.48,1.48,0,0,0-.63-.12,1.24,1.24,0,0,0-1.06.47,2.29,2.29,0,0,0-.35,1.38v3.74h-1.45V24.08a1.64,1.64,0,0,0-.28-1,1.1,1.1,0,0,0-.91-.35,1.34,1.34,0,0,0-1.08.48,2,2,0,0,0-.4,1.31v3.81h-1.45V21.71h1.36v1h0a2.31,2.31,0,0,1,2.06-1.15,2.27,2.27,0,0,1,1.2.3,1.71,1.71,0,0,1,.71.86,2.45,2.45,0,0,1,.87-.86,2.21,2.21,0,0,1,3.47,2v4.48Z"/><path class="cls-2" d="M269.08,21.53a3,3,0,0,1,1.34.28,2.78,2.78,0,0,1,1,.77,3.33,3.33,0,0,1,.58,1.13,4.76,4.76,0,0,1,.19,1.37v.26h-4.85a2.77,2.77,0,0,0,.13.81,1.9,1.9,0,0,0,.35.63,1.55,1.55,0,0,0,.54.41,1.7,1.7,0,0,0,.72.15,1.9,1.9,0,0,0,1-.23,1.7,1.7,0,0,0,.61-.6H272a3.06,3.06,0,0,1-.45.81,2.83,2.83,0,0,1-.66.62,3,3,0,0,1-.85.39,3.66,3.66,0,0,1-1,.13,3.28,3.28,0,0,1-1.33-.26,2.82,2.82,0,0,1-1-.72,3.18,3.18,0,0,1-.62-1.1,4.31,4.31,0,0,1-.22-1.4,4,4,0,0,1,.22-1.33,3.3,3.3,0,0,1,.63-1.1,3,3,0,0,1,1-.76A3.16,3.16,0,0,1,269.08,21.53Zm1.63,2.85a2.77,2.77,0,0,0-.16-.71,1.73,1.73,0,0,0-.33-.55,1.43,1.43,0,0,0-.5-.35,1.91,1.91,0,0,0-1.37,0,1.51,1.51,0,0,0-.52.36,1.79,1.79,0,0,0-.35.55,2.54,2.54,0,0,0-.17.7Z"/><path class="cls-2" d="M273.55,28.48h-1.11l3.47-9H277Z"/><path class="cls-2" d="M283.84,19.2v9.08h-1.37v-1h0a2.07,2.07,0,0,1-.37.5,2.16,2.16,0,0,1-.49.37,2.44,2.44,0,0,1-.59.23,2.79,2.79,0,0,1-.67.08,2.72,2.72,0,0,1-1.28-.29,2.76,2.76,0,0,1-.92-.77,3.38,3.38,0,0,1-.56-1.12,4.69,4.69,0,0,1-.19-1.33,4.52,4.52,0,0,1,.18-1.26,3.34,3.34,0,0,1,.54-1.1,2.75,2.75,0,0,1,.91-.77,2.91,2.91,0,0,1,1.92-.22,2.49,2.49,0,0,1,.58.21,2.07,2.07,0,0,1,.49.35,2,2,0,0,1,.37.5h0V19.2Zm-5,5.79a3.63,3.63,0,0,0,.1.82,2.44,2.44,0,0,0,.31.76,1.81,1.81,0,0,0,.56.56,1.5,1.5,0,0,0,.83.22,1.73,1.73,0,0,0,.79-.17,1.58,1.58,0,0,0,.57-.49,2.25,2.25,0,0,0,.35-.75,3.68,3.68,0,0,0,.12-1,3.73,3.73,0,0,0-.1-.84,2.3,2.3,0,0,0-.31-.75,1.72,1.72,0,0,0-.57-.54,1.64,1.64,0,0,0-.85-.21,1.56,1.56,0,0,0-.82.2,1.7,1.7,0,0,0-.55.53,2.35,2.35,0,0,0-.32.75A3.93,3.93,0,0,0,278.81,25Z"/><path class="cls-2" d="M291.74,28.28l-.44.09-.39,0a1.79,1.79,0,0,1-.42,0,.91.91,0,0,1-.34-.16.84.84,0,0,1-.24-.29,1.28,1.28,0,0,1-.12-.45h0a2.67,2.67,0,0,1-.45.46,2.3,2.3,0,0,1-.52.31,3.32,3.32,0,0,1-1.31.24,2.42,2.42,0,0,1-1.62-.51,1.77,1.77,0,0,1-.6-1.45,1.7,1.7,0,0,1,.6-1.42,2.11,2.11,0,0,1,.58-.32,4.68,4.68,0,0,1,.73-.2q.39-.08.82-.13l.87-.1.34-.07a.8.8,0,0,0,.27-.13.59.59,0,0,0,.17-.22.79.79,0,0,0,.06-.33,1,1,0,0,0-.31-.79,2.11,2.11,0,0,0-2.05,0,1,1,0,0,0-.39.73H285.5a2,2,0,0,1,.28-.9,2,2,0,0,1,.62-.62,2.88,2.88,0,0,1,.9-.36,5.08,5.08,0,0,1,1.13-.12,3.42,3.42,0,0,1,2,.5,1.65,1.65,0,0,1,.67,1.41V27a.47.47,0,0,0,.08.3.33.33,0,0,0,.27.1h.12l.13,0Zm-2-3.35h0a1,1,0,0,1-.54.23l-.48.08-.65.11a2.2,2.2,0,0,0-1,.37.87.87,0,0,0-.32.72.89.89,0,0,0,.37.76,1.48,1.48,0,0,0,.87.24,1.79,1.79,0,0,0,1.27-.43,1.59,1.59,0,0,0,.49-1.24Z"/><path class="cls-2" d="M298.4,26.3a2,2,0,0,1-.23,1,2,2,0,0,1-.61.68,2.7,2.7,0,0,1-.91.39,4.79,4.79,0,0,1-1.12.13,4.56,4.56,0,0,1-1.08-.12,2.74,2.74,0,0,1-.89-.38,2.14,2.14,0,0,1-.63-.65,2.2,2.2,0,0,1-.3-.94H294a1.15,1.15,0,0,0,.51.8,1.51,1.51,0,0,0,.46.2,2.2,2.2,0,0,0,.56.07,2.4,2.4,0,0,0,.53-.06,1.46,1.46,0,0,0,.45-.18,1,1,0,0,0,.32-.31.78.78,0,0,0,.12-.44.61.61,0,0,0-.1-.35.9.9,0,0,0-.27-.26,1.81,1.81,0,0,0-.4-.18l-.47-.13-.93-.22a6,6,0,0,1-.91-.28,2.37,2.37,0,0,1-.63-.37,1.33,1.33,0,0,1-.37-.49,1.57,1.57,0,0,1-.12-.63,1.77,1.77,0,0,1,.21-.89,1.84,1.84,0,0,1,.58-.63,2.69,2.69,0,0,1,.87-.37,4.46,4.46,0,0,1,1.07-.12,3.88,3.88,0,0,1,1.06.13,2.61,2.61,0,0,1,.82.38,1.9,1.9,0,0,1,.54.59,2,2,0,0,1,.25.77h-1.39a1,1,0,0,0-.45-.65,1.65,1.65,0,0,0-.91-.23,2.3,2.3,0,0,0-.47,0,1.27,1.27,0,0,0-.39.14.77.77,0,0,0-.26.25.65.65,0,0,0-.1.36.6.6,0,0,0,.1.35.91.91,0,0,0,.26.25,1.47,1.47,0,0,0,.35.16l.37.1,1.38.33a4.37,4.37,0,0,1,.68.22,2,2,0,0,1,.54.34,1.47,1.47,0,0,1,.37.5A1.84,1.84,0,0,1,298.4,26.3Z"/><path class="cls-2" d="M304.21,28.28v-3.9a2.11,2.11,0,0,0-.32-1.27,1.19,1.19,0,0,0-1-.43,1.79,1.79,0,0,0-.72.13,1.33,1.33,0,0,0-.51.39,1.68,1.68,0,0,0-.3.62,3.13,3.13,0,0,0-.1.83v3.63h-1.44V19.2h1.44v3.5h0a1.94,1.94,0,0,1,.35-.48,2.36,2.36,0,0,1,.47-.37,2.24,2.24,0,0,1,.56-.24,2.32,2.32,0,0,1,.61-.08,3.33,3.33,0,0,1,1.08.16,1.77,1.77,0,0,1,.74.47,2,2,0,0,1,.43.81,4.22,4.22,0,0,1,.14,1.14v4.17Z"/><path class="cls-2" d="M313.84,25a4.85,4.85,0,0,1-.17,1.28,3.47,3.47,0,0,1-.52,1.11,2.65,2.65,0,0,1-.88.79,2.51,2.51,0,0,1-1.25.3,2.93,2.93,0,0,1-1.36-.3,1.9,1.9,0,0,1-.86-.87h0v1h-1.37V19.2h1.44v3.47h0a1.88,1.88,0,0,1,.36-.47,2.16,2.16,0,0,1,.5-.36,2.68,2.68,0,0,1,.61-.23,2.85,2.85,0,0,1,.68-.08,2.52,2.52,0,0,1,1.24.29,2.66,2.66,0,0,1,.88.78,3.4,3.4,0,0,1,.52,1.11A4.87,4.87,0,0,1,313.84,25Zm-1.45,0a3.74,3.74,0,0,0-.09-.82,2.52,2.52,0,0,0-.3-.76,1.71,1.71,0,0,0-.54-.56,1.5,1.5,0,0,0-.83-.22,1.57,1.57,0,0,0-.82.21,1.71,1.71,0,0,0-.56.54,2.39,2.39,0,0,0-.32.75,3.63,3.63,0,0,0-.1.86,3.68,3.68,0,0,0,.1.83,2.37,2.37,0,0,0,.31.76,1.76,1.76,0,0,0,.56.55,1.57,1.57,0,0,0,.84.21,1.49,1.49,0,0,0,.8-.21,1.69,1.69,0,0,0,.54-.54,2.43,2.43,0,0,0,.31-.75A3.94,3.94,0,0,0,312.39,25Z"/><path class="cls-2" d="M321.64,25a4.09,4.09,0,0,1-.23,1.38,3.1,3.1,0,0,1-.68,1.11,3,3,0,0,1-1,.73,3.49,3.49,0,0,1-1.36.25,3.12,3.12,0,0,1-2.38-1A3.53,3.53,0,0,1,315,25a3.54,3.54,0,0,1,.9-2.51,3.1,3.1,0,0,1,2.39-1,3.15,3.15,0,0,1,2.4,1A3.54,3.54,0,0,1,321.64,25Zm-1.45,0a3.59,3.59,0,0,0-.11-.92,2.21,2.21,0,0,0-.35-.75,1.68,1.68,0,0,0-.58-.5,1.75,1.75,0,0,0-.83-.18,1.71,1.71,0,0,0-.77.17,1.62,1.62,0,0,0-.57.48,2.23,2.23,0,0,0-.36.74,3.79,3.79,0,0,0,0,1.9,2.19,2.19,0,0,0,.35.74,1.67,1.67,0,0,0,.58.49,1.7,1.7,0,0,0,.79.18,1.72,1.72,0,0,0,.79-.18,1.68,1.68,0,0,0,.58-.49,2.24,2.24,0,0,0,.36-.74A3.41,3.41,0,0,0,320.19,25Z"/><path class="cls-2" d="M329.25,28.28l-.44.09-.39,0a1.79,1.79,0,0,1-.42,0,.91.91,0,0,1-.34-.16.84.84,0,0,1-.24-.29,1.28,1.28,0,0,1-.12-.45h0a2.67,2.67,0,0,1-.45.46,2.3,2.3,0,0,1-.52.31,3.32,3.32,0,0,1-1.31.24,2.42,2.42,0,0,1-1.62-.51,1.77,1.77,0,0,1-.6-1.45,1.7,1.7,0,0,1,.6-1.42,2.11,2.11,0,0,1,.58-.32,4.68,4.68,0,0,1,.73-.2q.39-.08.82-.13l.87-.1.34-.07a.8.8,0,0,0,.27-.13.59.59,0,0,0,.17-.22.79.79,0,0,0,.06-.33,1,1,0,0,0-.31-.79,2.11,2.11,0,0,0-2.05,0,1,1,0,0,0-.39.73H323a2,2,0,0,1,.28-.9,2,2,0,0,1,.62-.62,2.88,2.88,0,0,1,.9-.36,5.08,5.08,0,0,1,1.13-.12,3.42,3.42,0,0,1,2,.5,1.65,1.65,0,0,1,.67,1.41V27a.47.47,0,0,0,.08.3.33.33,0,0,0,.27.1h.12l.13,0Zm-2-3.35h0a1,1,0,0,1-.54.23l-.48.08-.65.11a2.2,2.2,0,0,0-1,.37.87.87,0,0,0-.32.72.89.89,0,0,0,.37.76,1.48,1.48,0,0,0,.87.24,1.79,1.79,0,0,0,1.27-.43,1.59,1.59,0,0,0,.49-1.24Z"/><path class="cls-2" d="M330.48,28.28V21.71h1.37V23h0a2.4,2.4,0,0,1,.87-1.08,2.23,2.23,0,0,1,1.29-.39h.21l.2,0V23l-.25,0h-.28a1.84,1.84,0,0,0-1.48.6,2.36,2.36,0,0,0-.51,1.57v3.18Z"/><path class="cls-2" d="M341.57,19.2v9.08H340.2v-1h0a2.07,2.07,0,0,1-.37.5,2.16,2.16,0,0,1-.49.37,2.44,2.44,0,0,1-.59.23,2.79,2.79,0,0,1-.67.08,2.72,2.72,0,0,1-1.28-.29,2.76,2.76,0,0,1-.92-.77,3.38,3.38,0,0,1-.56-1.12A4.69,4.69,0,0,1,335.1,25a4.52,4.52,0,0,1,.18-1.26,3.34,3.34,0,0,1,.54-1.1,2.75,2.75,0,0,1,.91-.77,2.91,2.91,0,0,1,1.92-.22,2.49,2.49,0,0,1,.58.21,2.07,2.07,0,0,1,.49.35,2,2,0,0,1,.37.5h0V19.2Zm-5,5.79a3.63,3.63,0,0,0,.1.82,2.44,2.44,0,0,0,.31.76,1.81,1.81,0,0,0,.56.56,1.5,1.5,0,0,0,.83.22,1.73,1.73,0,0,0,.79-.17,1.58,1.58,0,0,0,.57-.49,2.25,2.25,0,0,0,.35-.75,3.68,3.68,0,0,0,.12-1,3.73,3.73,0,0,0-.1-.84,2.3,2.3,0,0,0-.31-.75,1.72,1.72,0,0,0-.57-.54,1.64,1.64,0,0,0-.85-.21,1.56,1.56,0,0,0-.82.2,1.7,1.7,0,0,0-.55.53,2.35,2.35,0,0,0-.32.75A3.93,3.93,0,0,0,336.54,25Z"/><line class="cls-3" x1="218.5" y1="6" x2="218.5" y2="42"/><line class="cls-3" x1="361.5" y1="6" x2="361.5" y2="42"/><path class="cls-4" d="M28,30H24.9l-1.5,5H18l3.6-11H28Zm0-7H21.92l3.63-10H28Zm1-10h3l3.63,10H29ZM39.51,35H34.14l-1.5-5H29V24h6.91Z"/><path class="cls-4" d="M41,23V13h6V23Zm6,1V35H41V24Zm1-1V13h1.59A4.37,4.37,0,0,1,53,14.21a4.57,4.57,0,0,1,1.41,3.38A4.58,4.58,0,0,1,52,21.82c.75.3,1.42,1.18,2,1.18Zm8,4.94a7,7,0,0,1-1.85,4.94A6.39,6.39,0,0,1,49.59,35H48V24h6.73A6.15,6.15,0,0,1,56,27.94Z"/><path class="cls-4" d="M58,23V13h6V23Zm6,1V35H58V24Zm1-1V13h1.32a4.37,4.37,0,0,1,3.41,1.21,4.57,4.57,0,0,1,1.41,3.38,4.58,4.58,0,0,1-2.45,4.23c.75.3,1.42,1.18,2,1.18Zm7.76,4.94a7,7,0,0,1-1.85,4.94A6.39,6.39,0,0,1,66.32,35H65V24h6.46A6.15,6.15,0,0,1,72.76,27.94Z"/><path class="cls-4" d="M99.47,21.34a3.12,3.12,0,0,1-.93,2.4,3.4,3.4,0,0,1-2.4.86h-4v4.9H91V18.08h5.14a3.38,3.38,0,0,1,2.4.87A3.1,3.1,0,0,1,99.47,21.34Zm-1.09,0a2.23,2.23,0,0,0-.66-1.72,2.82,2.82,0,0,0-2-.61H92.09v4.67h3.8a2.63,2.63,0,0,0,1.8-.6A2.2,2.2,0,0,0,98.38,21.34Z"/><path class="cls-4" d="M101.35,29.5V20.75h1v2h0a3.41,3.41,0,0,1,1.2-1.59,3.09,3.09,0,0,1,1.84-.57h.38V21.7h-.24a3,3,0,0,0-2.27.91,3.14,3.14,0,0,0-.86,2.25V29.5Z"/><path class="cls-4" d="M115.09,25.13a5.72,5.72,0,0,1-.27,1.75,4.42,4.42,0,0,1-.82,1.5,3.87,3.87,0,0,1-3.05,1.38,3.79,3.79,0,0,1-3-1.3,4.87,4.87,0,0,1-1.14-3.33,4.86,4.86,0,0,1,1.13-3.32,4.11,4.11,0,0,1,6,0A4.86,4.86,0,0,1,115.09,25.13Zm-1.07,0a5.07,5.07,0,0,0-.18-1.33,3.75,3.75,0,0,0-.56-1.2,3,3,0,0,0-1-.87,2.72,2.72,0,0,0-1.39-.34,2.63,2.63,0,0,0-1.31.32,3,3,0,0,0-1,.85,3.79,3.79,0,0,0-.58,1.2,4.86,4.86,0,0,0-.2,1.37,4.77,4.77,0,0,0,.19,1.33,4,4,0,0,0,.57,1.2,3,3,0,0,0,1,.87,2.86,2.86,0,0,0,2.65,0,3.13,3.13,0,0,0,1-.84,3.76,3.76,0,0,0,.6-1.19A4.73,4.73,0,0,0,114,25.13Z"/><path class="cls-4" d="M125.06,17.39V29.5h-1V27.84h0a2.75,2.75,0,0,1-.52.79,3.48,3.48,0,0,1-.75.61,3.79,3.79,0,0,1-.9.39,3.56,3.56,0,0,1-1,.14,3.74,3.74,0,0,1-1.7-.37,3.58,3.58,0,0,1-1.23-1,4.42,4.42,0,0,1-.74-1.48,6.23,6.23,0,0,1-.25-1.78,6.43,6.43,0,0,1,.23-1.72,4.4,4.4,0,0,1,.71-1.48,3.57,3.57,0,0,1,1.22-1,4,4,0,0,1,2.7-.27,3.39,3.39,0,0,1,.87.36,3,3,0,0,1,.73.6,2.76,2.76,0,0,1,.51.84h0v-5Zm-7,7.73a5.56,5.56,0,0,0,.07.87,4.92,4.92,0,0,0,.21.86,3.76,3.76,0,0,0,.38.78,2.86,2.86,0,0,0,.55.64,2.42,2.42,0,0,0,.73.43,2.63,2.63,0,0,0,.93.16,2.77,2.77,0,0,0,2.31-1.12,3.56,3.56,0,0,0,.57-1.19,5.29,5.29,0,0,0,.19-1.42,5.37,5.37,0,0,0-.18-1.37,3.63,3.63,0,0,0-.55-1.2,2.74,2.74,0,0,0-2.35-1.17,2.58,2.58,0,0,0-.9.15,2.38,2.38,0,0,0-.72.41,2.85,2.85,0,0,0-.55.62,3.71,3.71,0,0,0-.39.77,4.67,4.67,0,0,0-.23.87A5.63,5.63,0,0,0,118,25.13Z"/><path class="cls-4" d="M134,29.5V27.93h0a3.31,3.31,0,0,1-.52.77,3.13,3.13,0,0,1-.7.57,3.32,3.32,0,0,1-.84.36,3.7,3.7,0,0,1-1,.13,3,3,0,0,1-2.32-.84,3.53,3.53,0,0,1-.75-2.42V20.75h1.07v5.7a3.55,3.55,0,0,0,.13,1,1.91,1.91,0,0,0,.41.75,1.79,1.79,0,0,0,.72.47,3.12,3.12,0,0,0,1.06.16,2.26,2.26,0,0,0,1.19-.3,2.58,2.58,0,0,0,.82-.79,3.51,3.51,0,0,0,.48-1.11,5.2,5.2,0,0,0,.15-1.25V20.75h1.07V29.5Z"/><path class="cls-4" d="M141.4,20.5a4.59,4.59,0,0,1,1.29.17,3.36,3.36,0,0,1,1,.5,2.72,2.72,0,0,1,.74.81,3.08,3.08,0,0,1,.39,1.1H143.8a2.31,2.31,0,0,0-.29-.69,2,2,0,0,0-.5-.54,2.26,2.26,0,0,0-.7-.34,3.12,3.12,0,0,0-.9-.12,2.68,2.68,0,0,0-1.31.31,2.91,2.91,0,0,0-1,.84,3.87,3.87,0,0,0-.59,1.2,4.76,4.76,0,0,0-.2,1.39,4.9,4.9,0,0,0,.19,1.34,3.83,3.83,0,0,0,.57,1.2,3,3,0,0,0,.95.86,2.81,2.81,0,0,0,2.28.16,2.52,2.52,0,0,0,.75-.45,2.4,2.4,0,0,0,.52-.65,2.51,2.51,0,0,0,.27-.77h1.07a4,4,0,0,1-.39,1.14,3.34,3.34,0,0,1-.73.94,3.4,3.4,0,0,1-1.06.64,3.84,3.84,0,0,1-1.38.23,4,4,0,0,1-1.72-.36,3.82,3.82,0,0,1-1.29-1,4.38,4.38,0,0,1-.81-1.47,6,6,0,0,1,0-3.55,4.39,4.39,0,0,1,.78-1.48,3.86,3.86,0,0,1,1.29-1A4,4,0,0,1,141.4,20.5Z"/><path class="cls-4" d="M150.8,29.58h-.88a4.09,4.09,0,0,1-.91-.09,1.29,1.29,0,0,1-.6-.3,1.19,1.19,0,0,1-.33-.57,3.52,3.52,0,0,1-.1-.91V21.65h-1.76v-.9H148V18.13h1.07v2.63h2v.9h-2v6a2.32,2.32,0,0,0,0,.45.85.85,0,0,0,.14.34.66.66,0,0,0,.28.22,1.17,1.17,0,0,0,.46.08h.8l.28,0v.91Z"/><path class="cls-4" d="M162,20.5a4.45,4.45,0,0,1,1.45.21,2.44,2.44,0,0,1,1,.62,2.49,2.49,0,0,1,.57,1,5.07,5.07,0,0,1,.18,1.44V29.5h-1.07V24a2.93,2.93,0,0,0-.55-1.93,2.06,2.06,0,0,0-1.67-.65,2.75,2.75,0,0,0-1.14.23,2.49,2.49,0,0,0-.87.64,2.86,2.86,0,0,0-.55.95,3.5,3.5,0,0,0-.19,1.18V29.5h-1.07V20.75h1.07v1.52h0a2.64,2.64,0,0,1,.46-.74,2.87,2.87,0,0,1,.66-.55,3.07,3.07,0,0,1,.8-.35A3.3,3.3,0,0,1,162,20.5Z"/><path class="cls-4" d="M175.51,29.44l-.36.05h-.32a1.83,1.83,0,0,1-.59-.08.88.88,0,0,1-.39-.26,1.09,1.09,0,0,1-.22-.47,3.24,3.24,0,0,1-.07-.71h0a4.07,4.07,0,0,1-1.37,1.39,3.73,3.73,0,0,1-1.8.39,3.29,3.29,0,0,1-2.13-.66,2.33,2.33,0,0,1-.8-1.91,2.21,2.21,0,0,1,.88-1.91,9,9,0,0,1,3.95-.91,2.75,2.75,0,0,0,.59-.11,1,1,0,0,0,.38-.21.8.8,0,0,0,.21-.35,1.72,1.72,0,0,0,.07-.51,1.66,1.66,0,0,0-.54-1.34,2.69,2.69,0,0,0-1.75-.46,3.46,3.46,0,0,0-1,.12,2.18,2.18,0,0,0-.71.34,1.49,1.49,0,0,0-.45.52,1.63,1.63,0,0,0-.18.65h-1.07a2.65,2.65,0,0,1,.29-1,2.36,2.36,0,0,1,.68-.79,3.22,3.22,0,0,1,1.07-.51,5.36,5.36,0,0,1,1.46-.18,3.53,3.53,0,0,1,2.44.71,2.61,2.61,0,0,1,.78,2V28a.63.63,0,0,0,.15.44.61.61,0,0,0,.48.16,1,1,0,0,0,.34-.06Zm-2-4.73h0q-.16.3-1,.41l-.89.13-1,.16A3.55,3.55,0,0,0,169,26a1.33,1.33,0,0,0-.52,1.12,1.55,1.55,0,0,0,.58,1.26,2.13,2.13,0,0,0,1.38.47,3.15,3.15,0,0,0,2.18-.77,2.47,2.47,0,0,0,.87-1.92Z"/><path class="cls-4" d="M188.44,29.5v-6a2.31,2.31,0,0,0-.5-1.63,2.47,2.47,0,0,0-3.34.28,3.73,3.73,0,0,0-.6,2.28v5h-1.08v-6a2.41,2.41,0,0,0-.45-1.55,1.66,1.66,0,0,0-1.37-.56,2.3,2.3,0,0,0-1.95.87,3.63,3.63,0,0,0-.66,2.28v5h-1.07V20.75h1v1.47h0a3,3,0,0,1,2.87-1.72,3.24,3.24,0,0,1,.86.11,2.46,2.46,0,0,1,.73.32,2.2,2.2,0,0,1,.56.53,2.49,2.49,0,0,1,.37.74A2.87,2.87,0,0,1,185,20.93a3.19,3.19,0,0,1,1.65-.43,2.82,2.82,0,0,1,2.18.77,3.14,3.14,0,0,1,.71,2.21v6Z"/><path class="cls-4" d="M195.77,20.5a3.61,3.61,0,0,1,1.73.39,3.45,3.45,0,0,1,1.2,1,4.61,4.61,0,0,1,.7,1.51,7,7,0,0,1,.23,1.79v.17h-6.73a4.76,4.76,0,0,0,.17,1.26,3.45,3.45,0,0,0,.52,1.11,2.65,2.65,0,0,0,.88.79,2.56,2.56,0,0,0,1.27.3,3.26,3.26,0,0,0,.93-.12,2.74,2.74,0,0,0,.74-.34,2.37,2.37,0,0,0,.55-.52,3.26,3.26,0,0,0,.39-.65h1a4,4,0,0,1-.51,1,3.32,3.32,0,0,1-.78.8,3.61,3.61,0,0,1-1,.52,4.49,4.49,0,0,1-1.32.18A3.92,3.92,0,0,1,194,29.4a3.41,3.41,0,0,1-1.21-1,4.16,4.16,0,0,1-.72-1.47,6.85,6.85,0,0,1-.23-1.83,6.19,6.19,0,0,1,.24-1.71,4.47,4.47,0,0,1,.72-1.48,3.64,3.64,0,0,1,1.23-1A3.71,3.71,0,0,1,195.77,20.5Zm2.78,4a4,4,0,0,0-.21-1.13,3.25,3.25,0,0,0-.54-1,2.76,2.76,0,0,0-.87-.72,2.45,2.45,0,0,0-1.18-.27,2.46,2.46,0,0,0-2,.93,3.58,3.58,0,0,0-.56,1,5.71,5.71,0,0,0-.31,1.2Z"/><rect class="cls-5" width="18" height="48"/><rect class="cls-5" x="72.76" width="18" height="48"/><rect class="cls-5" x="200" width="18" height="48"/><rect class="cls-5" x="219" width="18" height="48"/><line class="cls-6" x1="0.5" x2="0.5" y2="48"/><line class="cls-6" x1="17.5" x2="17.5" y2="48"/><line class="cls-6" x1="73.5" x2="73.5" y2="48"/><line class="cls-6" x1="90.5" x2="90.5" y2="48"/><line class="cls-6" x1="200.5" x2="200.5" y2="48"/><line class="cls-6" x1="217.5" x2="217.5" y2="48"/><line class="cls-6" x1="219.5" x2="219.5" y2="48"/><line class="cls-6" x1="236.5" x2="236.5" y2="48"/><path class="cls-7" d="M5.15,45.27V39.89h-2v-1A5.44,5.44,0,0,0,4,38.88a2.15,2.15,0,0,0,.57-.17,1.44,1.44,0,0,0,.59-.5,2,2,0,0,0,.29-.82h1v7.88Z"/><path class="cls-7" d="M14.88,43a2.17,2.17,0,0,1-.82,1.78,3.16,3.16,0,0,1-2.05.66,3.18,3.18,0,0,1-2.08-.66A2.14,2.14,0,0,1,9.12,43a2.21,2.21,0,0,1,.1-.69,1.89,1.89,0,0,1,.3-.58A1.86,1.86,0,0,1,10,41.3a2,2,0,0,1,.64-.26v0a1.65,1.65,0,0,1-.9-.61,1.76,1.76,0,0,1-.31-1,1.83,1.83,0,0,1,.75-1.51A2.9,2.9,0,0,1,12,37.27a2.67,2.67,0,0,1,1.85.62,1.87,1.87,0,0,1,.7,1.44,2,2,0,0,1-.08.56,1.66,1.66,0,0,1-.23.48,1.59,1.59,0,0,1-.37.38,1.82,1.82,0,0,1-.52.26v0a1.89,1.89,0,0,1,1.14.69A2.05,2.05,0,0,1,14.88,43ZM13.6,43a1.34,1.34,0,0,0-.44-1,1.64,1.64,0,0,0-1.16-.4,1.72,1.72,0,0,0-1.16.38,1.3,1.3,0,0,0-.45,1A1.4,1.4,0,0,0,10.85,44a1.64,1.64,0,0,0,1.16.42A1.59,1.59,0,0,0,13.16,44,1.4,1.4,0,0,0,13.6,43Zm-.24-3.51a1.3,1.3,0,0,0-.1-.51,1,1,0,0,0-.3-.38,1.49,1.49,0,0,0-1-.29,1.49,1.49,0,0,0-1,.33,1.08,1.08,0,0,0-.38.86,1.09,1.09,0,0,0,.38.87,1.45,1.45,0,0,0,1,.33,1.45,1.45,0,0,0,1-.33A1.12,1.12,0,0,0,13.37,39.45Z"/><path class="cls-7" d="M78.56,45.27V39.89h-2v-1a5.44,5.44,0,0,0,.82-.06,2.15,2.15,0,0,0,.57-.17,1.44,1.44,0,0,0,.59-.5,2,2,0,0,0,.29-.82h1v7.88Z"/><path class="cls-7" d="M88.29,43a2.17,2.17,0,0,1-.82,1.78,3.56,3.56,0,0,1-4.13,0A2.14,2.14,0,0,1,82.53,43a2.21,2.21,0,0,1,.1-.69,1.89,1.89,0,0,1,.3-.58,1.86,1.86,0,0,1,.48-.43,2,2,0,0,1,.64-.26v0a1.65,1.65,0,0,1-.9-.61,1.76,1.76,0,0,1-.31-1,1.83,1.83,0,0,1,.75-1.51,2.9,2.9,0,0,1,1.81-.57,2.67,2.67,0,0,1,1.85.62,1.87,1.87,0,0,1,.7,1.44,2,2,0,0,1-.08.56,1.66,1.66,0,0,1-.23.48,1.59,1.59,0,0,1-.37.38,1.82,1.82,0,0,1-.52.26v0a1.89,1.89,0,0,1,1.14.69A2.05,2.05,0,0,1,88.29,43ZM87,43a1.34,1.34,0,0,0-.44-1,1.64,1.64,0,0,0-1.16-.4,1.72,1.72,0,0,0-1.16.38,1.3,1.3,0,0,0-.45,1A1.4,1.4,0,0,0,84.26,44a1.64,1.64,0,0,0,1.16.42A1.59,1.59,0,0,0,86.57,44,1.4,1.4,0,0,0,87,43Zm-.24-3.51a1.3,1.3,0,0,0-.1-.51,1,1,0,0,0-.3-.38,1.7,1.7,0,0,0-2,0,1.08,1.08,0,0,0-.38.86,1.09,1.09,0,0,0,.38.87,1.69,1.69,0,0,0,2,0A1.12,1.12,0,0,0,86.77,39.45Z"/><path class="cls-7" d="M205.51,45.27V39.89h-2v-1a5.44,5.44,0,0,0,.82-.06,2.15,2.15,0,0,0,.57-.17,1.44,1.44,0,0,0,.59-.5,2,2,0,0,0,.29-.82h1v7.88Z"/><path class="cls-7" d="M215.23,43a2.17,2.17,0,0,1-.82,1.78,3.56,3.56,0,0,1-4.13,0,2.14,2.14,0,0,1-.81-1.77,2.21,2.21,0,0,1,.1-.69,1.89,1.89,0,0,1,.3-.58,1.86,1.86,0,0,1,.48-.43A2,2,0,0,1,211,41v0a1.65,1.65,0,0,1-.9-.61,1.76,1.76,0,0,1-.31-1,1.83,1.83,0,0,1,.75-1.51,2.9,2.9,0,0,1,1.81-.57,2.67,2.67,0,0,1,1.85.62,1.87,1.87,0,0,1,.7,1.44,2,2,0,0,1-.08.56,1.66,1.66,0,0,1-.23.48,1.59,1.59,0,0,1-.37.38,1.82,1.82,0,0,1-.52.26v0a1.89,1.89,0,0,1,1.14.69A2.05,2.05,0,0,1,215.23,43ZM214,43a1.34,1.34,0,0,0-.44-1,1.64,1.64,0,0,0-1.16-.4,1.72,1.72,0,0,0-1.16.38,1.3,1.3,0,0,0-.45,1,1.4,1.4,0,0,0,.46,1.08,1.64,1.64,0,0,0,1.16.42,1.59,1.59,0,0,0,1.14-.41A1.4,1.4,0,0,0,214,43Zm-.24-3.51a1.3,1.3,0,0,0-.1-.51,1,1,0,0,0-.3-.38,1.7,1.7,0,0,0-2,0,1.08,1.08,0,0,0-.38.86,1.09,1.09,0,0,0,.38.87,1.69,1.69,0,0,0,2,0A1.12,1.12,0,0,0,213.72,39.45Z"/><path class="cls-7" d="M224.42,45.27V39.89h-2v-1a5.44,5.44,0,0,0,.82-.06,2.15,2.15,0,0,0,.57-.17,1.44,1.44,0,0,0,.59-.5,2,2,0,0,0,.29-.82h1v7.88Z"/><path class="cls-7" d="M234.15,43a2.17,2.17,0,0,1-.82,1.78,3.56,3.56,0,0,1-4.13,0,2.14,2.14,0,0,1-.81-1.77,2.21,2.21,0,0,1,.1-.69,1.89,1.89,0,0,1,.3-.58,1.86,1.86,0,0,1,.48-.43,2,2,0,0,1,.64-.26v0a1.65,1.65,0,0,1-.9-.61,1.76,1.76,0,0,1-.31-1,1.83,1.83,0,0,1,.75-1.51,2.9,2.9,0,0,1,1.81-.57,2.67,2.67,0,0,1,1.85.62,1.87,1.87,0,0,1,.7,1.44,2,2,0,0,1-.08.56,1.66,1.66,0,0,1-.23.48,1.59,1.59,0,0,1-.37.38,1.82,1.82,0,0,1-.52.26v0a1.89,1.89,0,0,1,1.14.69A2.05,2.05,0,0,1,234.15,43Zm-1.28,0a1.34,1.34,0,0,0-.44-1,1.64,1.64,0,0,0-1.16-.4,1.72,1.72,0,0,0-1.16.38,1.3,1.3,0,0,0-.45,1,1.4,1.4,0,0,0,.46,1.08,1.64,1.64,0,0,0,1.16.42,1.59,1.59,0,0,0,1.14-.41A1.4,1.4,0,0,0,232.87,43Zm-.24-3.51a1.3,1.3,0,0,0-.1-.51,1,1,0,0,0-.3-.38,1.7,1.7,0,0,0-2,0,1.08,1.08,0,0,0-.38.86,1.09,1.09,0,0,0,.38.87,1.69,1.69,0,0,0,2,0A1.12,1.12,0,0,0,232.63,39.45Z"/><rect class="cls-5" x="343" width="18" height="48"/><line class="cls-6" x1="343.5" x2="343.5" y2="48"/><line class="cls-6" x1="360.5" x2="360.5" y2="48"/><path class="cls-7" d="M348.42,45.27V39.89h-2v-1a5.44,5.44,0,0,0,.82-.06,2.15,2.15,0,0,0,.57-.17,1.44,1.44,0,0,0,.59-.5,2,2,0,0,0,.29-.82h1v7.88Z"/><path class="cls-7" d="M358.15,43a2.17,2.17,0,0,1-.82,1.78,3.56,3.56,0,0,1-4.13,0,2.14,2.14,0,0,1-.81-1.77,2.21,2.21,0,0,1,.1-.69,1.89,1.89,0,0,1,.3-.58,1.86,1.86,0,0,1,.48-.43,2,2,0,0,1,.64-.26v0a1.65,1.65,0,0,1-.9-.61,1.76,1.76,0,0,1-.31-1,1.83,1.83,0,0,1,.75-1.51,2.9,2.9,0,0,1,1.81-.57,2.67,2.67,0,0,1,1.85.62,1.87,1.87,0,0,1,.7,1.44,2,2,0,0,1-.08.56,1.66,1.66,0,0,1-.23.48,1.59,1.59,0,0,1-.37.38,1.82,1.82,0,0,1-.52.26v0a1.89,1.89,0,0,1,1.14.69A2.05,2.05,0,0,1,358.15,43Zm-1.28,0a1.34,1.34,0,0,0-.44-1,1.64,1.64,0,0,0-1.16-.4,1.72,1.72,0,0,0-1.16.38,1.3,1.3,0,0,0-.45,1,1.4,1.4,0,0,0,.46,1.08,1.64,1.64,0,0,0,1.16.42,1.59,1.59,0,0,0,1.14-.41A1.4,1.4,0,0,0,356.87,43Zm-.24-3.51a1.3,1.3,0,0,0-.1-.51,1,1,0,0,0-.3-.38,1.7,1.7,0,0,0-2,0,1.08,1.08,0,0,0-.38.86,1.09,1.09,0,0,0,.38.87,1.69,1.69,0,0,0,2,0A1.12,1.12,0,0,0,356.63,39.45Z"/></g></svg>