<?xml version="1.0" encoding="utf-8"?>
<!-- Generator: Adobe Illustrator 20.0.0, SVG Export Plug-In . SVG Version: 6.00 Build 0)  -->
<!DOCTYPE svg PUBLIC "-//W3C//DTD SVG 1.1//EN" "http://www.w3.org/Graphics/SVG/1.1/DTD/svg11.dtd">
<svg version="1.1" id="Layer_1" xmlns="http://www.w3.org/2000/svg" xmlns:xlink="http://www.w3.org/1999/xlink" x="0px" y="0px"
	 viewBox="0 0 928.6 48" style="enable-background:new 0 0 928.6 48;" xml:space="preserve">
<style type="text/css">
	.st0{fill:#242424;}
	.st1{fill:none;stroke:#000000;stroke-miterlimit:10;}
	.st2{fill:#FF2C3E;}
	.st3{fill:#DCDBDB;}
	.st4{fill:#007CC0;}
	.st5{fill:#009BED;}
	.st6{fill:#060606;}
	.st7{fill:none;stroke:#FFFFFF;stroke-width:2;stroke-miterlimit:10;}
	.st8{fill:#E2E2E2;}
	.st9{fill:none;stroke:#E2E2E2;stroke-miterlimit:10;}
	.st10{fill:#FAFAFA;}
	.st11{fill:#C8C8C8;}
</style>
<title>web bars</title>
<g>
	<rect class="st0" width="1366" height="48"/>
	<rect width="1366" height="1"/>
	<line class="st1" x1="1317.5" y1="4" x2="1317.5" y2="44"/>
	<line class="st1" x1="1268.5" y1="4" x2="1268.5" y2="44"/>
	<line class="st1" x1="398.5" y1="6" x2="398.5" y2="42"/>
	<path class="st2" d="M436.9,31.6l-9.4-16.3c-0.1-0.3-0.4-0.4-0.7-0.3c-0.2,0.1-0.3,0.2-0.3,0.3l-9.4,16.3c-0.3,0.5,0,0.9,0.5,0.9
		h18.8C436.9,32.5,437.1,32.1,436.9,31.6z M428,30.5h-2.1v-2.1h2.1V30.5z M428,26.3h-2.1V20h2.1V26.3z"/>
	<path class="st2" d="M452,18.4l1.8,7.8l0,0l2-7.8h1.7l2,7.9l0,0l1.9-7.9h1.7l-2.7,10h-1.8l-2-7.9l0,0l-2,7.9h-1.8l-2.7-10H452z"/>
	<path class="st2" d="M471.3,28.4c-0.2,0-0.3,0.1-0.5,0.1h-0.5c-0.2,0-0.3,0-0.5,0c-0.1,0-0.3-0.1-0.4-0.2c-0.1-0.1-0.2-0.2-0.3-0.3
		c-0.1-0.2-0.1-0.3-0.1-0.5l0,0c-0.2,0.2-0.3,0.4-0.5,0.5c-0.2,0.1-0.4,0.3-0.6,0.4c-0.5,0.2-1,0.3-1.5,0.3c-0.7,0-1.4-0.2-1.9-0.6
		c-0.5-0.4-0.7-1-0.7-1.7c0-0.6,0.2-1.2,0.7-1.6c0.2-0.2,0.4-0.3,0.7-0.4c0.3-0.1,0.6-0.2,0.9-0.2c0.3-0.1,0.6-0.1,1-0.1l1-0.1
		c0.1,0,0.3,0,0.4-0.1c0.1,0,0.2-0.1,0.3-0.2c0.1-0.1,0.2-0.2,0.2-0.3c0-0.1,0.1-0.2,0.1-0.4c0-0.3-0.1-0.7-0.4-0.9
		c-0.4-0.2-0.8-0.3-1.2-0.3c-0.4,0-0.8,0.1-1.2,0.3c-0.3,0.2-0.4,0.5-0.5,0.9H464c0-0.4,0.1-0.7,0.3-1c0.2-0.3,0.4-0.5,0.7-0.7
		c0.3-0.2,0.7-0.3,1-0.4c0.4-0.1,0.9-0.1,1.3-0.1c0.8-0.1,1.7,0.1,2.4,0.6c0.5,0.4,0.8,1,0.8,1.6v4.1c0,0.1,0,0.2,0.1,0.4
		c0.1,0.1,0.2,0.1,0.3,0.1h0.1h0.1L471.3,28.4z M468.9,24.5L468.9,24.5c-0.2,0.2-0.4,0.3-0.6,0.3l-0.6,0.1L467,25
		c-0.4,0-0.8,0.2-1.1,0.4c-0.3,0.2-0.4,0.5-0.4,0.8c0,0.4,0.1,0.7,0.4,0.9c0.3,0.2,0.6,0.3,1,0.3c0.5,0,1.1-0.2,1.5-0.5
		c0.4-0.4,0.6-0.9,0.6-1.5V24.5z"/>
	<path class="st2" d="M476.7,28.4h-0.3h-0.6c-0.3,0-0.6,0-0.9-0.1c-0.2,0-0.5-0.1-0.7-0.2c-0.2-0.1-0.4-0.3-0.5-0.5
		c-0.1-0.3-0.2-0.6-0.2-0.9v-4.8H472v-1.2h1.5v-2.3h1.7v2.3h1.8v1.2h-1.8v4.3c0,0.2,0,0.5,0.2,0.7c0.2,0.2,0.4,0.2,0.7,0.2h0.7h0.2
		v1.3L476.7,28.4z"/>
	<path class="st2" d="M481.8,20.5c0.5,0,1.1,0.1,1.6,0.3c0.4,0.2,0.8,0.5,1.1,0.9c0.3,0.4,0.5,0.8,0.7,1.3c0.2,0.5,0.2,1.1,0.2,1.6
		V25h-5.7c0,0.3,0.1,0.6,0.2,1c0.1,0.3,0.2,0.5,0.4,0.7c0.2,0.2,0.4,0.4,0.6,0.5c0.3,0.1,0.6,0.2,0.8,0.2c0.4,0,0.8-0.1,1.1-0.3
		c0.3-0.2,0.5-0.4,0.7-0.7h1.6c-0.1,0.3-0.3,0.7-0.5,1c-0.2,0.3-0.5,0.5-0.8,0.7c-0.3,0.2-0.6,0.4-1,0.5c-0.4,0.1-0.8,0.2-1.2,0.2
		c-0.5,0-1.1-0.1-1.5-0.3c-0.4-0.2-0.8-0.5-1.2-0.8c-0.3-0.4-0.6-0.8-0.7-1.3c-0.2-0.5-0.3-1.1-0.2-1.6c0-0.5,0.1-1.1,0.2-1.5
		c0.2-0.5,0.4-0.9,0.7-1.3c0.3-0.4,0.7-0.7,1.2-0.9C480.7,20.6,481.3,20.5,481.8,20.5z M483.8,23.8c0-0.3-0.1-0.6-0.2-0.8
		c-0.1-0.2-0.2-0.5-0.4-0.6c-0.2-0.2-0.4-0.3-0.6-0.4c-0.3-0.1-0.5-0.2-0.8-0.1c-0.3,0-0.5,0-0.8,0.1c-0.2,0.1-0.4,0.2-0.6,0.4
		c-0.2,0.2-0.3,0.4-0.4,0.6c-0.1,0.3-0.2,0.5-0.2,0.8L483.8,23.8z"/>
	<path class="st2" d="M487.2,28.4v-7.7h1.6v1.6l0,0c0.2-0.5,0.6-0.9,1-1.3c0.4-0.3,1-0.5,1.5-0.5h0.2h0.2v1.6h-0.3h-0.3
		c-0.7,0-1.3,0.2-1.7,0.7c-0.4,0.5-0.6,1.2-0.6,1.8v3.7L487.2,28.4z"/>
	<path class="st2" d="M494.9,17.8v10.6h-1.7V17.8H494.9z"/>
	<path class="st2" d="M504.5,24.5c0,0.5-0.1,1.1-0.3,1.6c-0.2,0.5-0.4,0.9-0.8,1.3c-0.3,0.4-0.7,0.7-1.2,0.9c-0.5,0.2-1,0.3-1.6,0.3
		c-1,0-2.1-0.4-2.8-1.1c-1.4-1.7-1.4-4.2,0-5.9c0.7-0.8,1.7-1.2,2.8-1.1c1.1,0,2.1,0.4,2.8,1.1C504.2,22.4,504.5,23.5,504.5,24.5z
		 M502.8,24.5c0-0.4,0-0.7-0.1-1.1c-0.1-0.3-0.2-0.6-0.4-0.9c-0.2-0.2-0.4-0.4-0.7-0.6c-0.3-0.2-0.7-0.2-1-0.2
		c-0.3,0-0.6,0.1-0.9,0.2c-0.3,0.1-0.5,0.3-0.7,0.6c-0.2,0.3-0.3,0.6-0.4,0.9c-0.1,0.4-0.1,0.7-0.1,1.1c0,0.4,0,0.7,0.1,1.1
		c0.1,0.3,0.2,0.6,0.4,0.9c0.2,0.2,0.4,0.4,0.7,0.6c0.3,0.1,0.6,0.2,0.9,0.2c0.3,0,0.6-0.1,0.9-0.2c0.3-0.1,0.5-0.3,0.7-0.6
		c0.2-0.3,0.3-0.6,0.4-0.9C502.7,25.3,502.8,24.9,502.8,24.5z"/>
	<path class="st2" d="M513.7,24.5c0,0.5-0.1,1.1-0.3,1.6c-0.2,0.5-0.4,0.9-0.8,1.3c-0.3,0.4-0.7,0.7-1.2,0.9c-0.5,0.2-1,0.3-1.6,0.3
		c-1,0-2.1-0.4-2.8-1.1c-1.4-1.7-1.4-4.2,0-5.9c0.7-0.8,1.7-1.2,2.8-1.1c1.1,0,2.1,0.4,2.8,1.1C513.4,22.4,513.8,23.5,513.7,24.5z
		 M512,24.5c0-0.4,0-0.7-0.1-1.1c-0.1-0.3-0.2-0.6-0.4-0.9c-0.2-0.2-0.4-0.4-0.7-0.6c-0.3-0.2-0.7-0.2-1-0.2c-0.3,0-0.6,0.1-0.9,0.2
		c-0.3,0.1-0.5,0.3-0.7,0.6c-0.2,0.3-0.3,0.6-0.4,0.9c-0.1,0.4-0.1,0.7-0.1,1.1c0,0.4,0,0.7,0.1,1.1c0.1,0.3,0.2,0.6,0.4,0.9
		c0.2,0.2,0.4,0.4,0.7,0.6c0.3,0.1,0.6,0.2,0.9,0.2c0.3,0,0.6-0.1,0.9-0.2c0.3-0.1,0.5-0.3,0.7-0.6c0.2-0.3,0.3-0.6,0.4-0.9
		C512,25.3,512,24.9,512,24.5L512,24.5z"/>
	<path class="st2" d="M521.5,18.4v4h4.7v-4h1.8v10h-1.7v-4.5h-4.8v4.5h-1.8v-10H521.5z"/>
	<path class="st2" d="M536.9,28.4l-0.9-2.5h-4.1l-0.9,2.5h-1.8l3.6-10h2.4l3.5,10H536.9z M534,19.7L534,19.7l-1.6,4.8h3.3L534,19.7z
		"/>
	<path class="st2" d="M543.1,18.2c0.4,0,0.8,0.1,1.2,0.2c0.4,0.1,0.7,0.3,1,0.5c0.3,0.2,0.5,0.5,0.7,0.8c0.2,0.4,0.3,0.8,0.3,1.2
		c0,0.2,0,0.5-0.1,0.7c-0.1,0.2-0.2,0.4-0.3,0.6c-0.1,0.2-0.3,0.3-0.5,0.5c-0.2,0.1-0.4,0.2-0.7,0.3l0,0c0.6,0.1,1,0.4,1.4,0.8
		c0.3,0.4,0.5,1,0.5,1.5c0,0.9-0.3,1.7-1,2.3c-0.7,0.6-1.7,0.9-2.6,0.9c-0.5,0-0.9-0.1-1.4-0.2c-0.4-0.1-0.8-0.3-1.1-0.6
		c-0.3-0.3-0.6-0.6-0.8-1c-0.2-0.4-0.3-0.9-0.3-1.3v-0.2h1.5v0.2c0,0.5,0.2,1,0.6,1.3c0.2,0.2,0.4,0.3,0.6,0.4
		c0.2,0.1,0.5,0.1,0.8,0.1c0.5,0,1.1-0.2,1.5-0.5c0.4-0.3,0.6-0.8,0.5-1.3c0-0.5-0.2-0.9-0.5-1.3c-0.5-0.3-1.1-0.5-1.7-0.5h-0.4
		v-1.2h0.5c0.5,0,1-0.1,1.4-0.4c0.3-0.2,0.5-0.6,0.5-1c0-0.2,0-0.5-0.1-0.7c-0.1-0.2-0.2-0.4-0.4-0.5c-0.2-0.1-0.3-0.2-0.5-0.3
		c-0.2-0.1-0.4-0.1-0.7-0.1c-0.2,0-0.5,0-0.7,0.1c-0.2,0.1-0.4,0.2-0.6,0.3c-0.2,0.2-0.3,0.3-0.4,0.5c-0.1,0.2-0.1,0.5-0.2,0.7h-1.6
		c0-0.4,0.1-0.8,0.3-1.2c0.2-0.4,0.4-0.7,0.7-1c0.3-0.3,0.7-0.5,1.1-0.7C542.1,18.2,542.6,18.2,543.1,18.2z"/>
	<path class="st2" d="M550.3,21v1.9h-1.9V21H550.3z M550.3,26.5v1.9h-1.9v-1.9H550.3z"/>
	<path class="st2" d="M561,18.2c0.5,0,1,0.1,1.5,0.2c0.4,0.1,0.9,0.3,1.2,0.6c0.4,0.3,0.7,0.6,0.9,1c0.2,0.4,0.4,0.9,0.5,1.3h-1.7
		c-0.1-0.2-0.2-0.5-0.3-0.6c-0.1-0.2-0.3-0.4-0.5-0.5c-0.2-0.2-0.5-0.3-0.7-0.4c-0.3-0.1-0.6-0.1-0.9-0.1c-0.5,0-1,0.1-1.4,0.3
		c-0.4,0.2-0.7,0.5-1,0.8c-0.3,0.4-0.5,0.8-0.6,1.2c-0.2,0.9-0.2,1.9,0,2.8c0.1,0.4,0.3,0.8,0.6,1.2c0.3,0.4,0.6,0.6,1,0.8
		c0.4,0.2,0.9,0.3,1.4,0.3c0.3,0,0.7-0.1,1-0.2c0.6-0.2,1-0.6,1.3-1.2c0.1-0.3,0.2-0.6,0.3-0.9h1.7c-0.1,0.5-0.2,1-0.4,1.5
		c-0.4,0.9-1.2,1.7-2.1,2c-0.6,0.2-1.1,0.3-1.7,0.3c-0.7,0-1.4-0.1-2-0.4c-0.6-0.3-1.1-0.6-1.5-1.1c-0.4-0.5-0.8-1-1-1.6
		c-0.2-0.7-0.3-1.4-0.3-2.1c0-0.7,0.1-1.4,0.3-2c0.2-0.6,0.5-1.2,0.9-1.7c0.4-0.5,0.9-0.9,1.5-1.1C559.5,18.3,560.3,18.2,561,18.2z"
		/>
	<path class="st2" d="M568.7,17.4V19H567v-1.6L568.7,17.4z M568.7,20.7v7.7H567v-7.7H568.7z"/>
	<path class="st2" d="M571,28.4v-7.7h1.6v1.6l0,0c0.2-0.5,0.6-0.9,1-1.3c0.4-0.3,1-0.5,1.5-0.5h0.2h0.2v1.6h-0.3H575
		c-0.7,0-1.3,0.2-1.7,0.7c-0.4,0.5-0.6,1.2-0.6,1.8v3.7L571,28.4z"/>
	<path class="st2" d="M579.8,20.5c0.3,0,0.5,0,0.8,0.1c0.2,0.1,0.5,0.1,0.7,0.3c0.2,0.1,0.4,0.3,0.6,0.4c0.2,0.2,0.3,0.4,0.4,0.6
		l0,0v-1.2h1.6v10.4h-1.7v-3.9l0,0c-0.1,0.2-0.3,0.4-0.4,0.6c-0.2,0.2-0.4,0.3-0.6,0.4c-0.2,0.1-0.5,0.2-0.7,0.3
		c-0.3,0.1-0.5,0.1-0.8,0.1c-0.9,0-1.8-0.4-2.4-1.1c-0.7-0.8-1-1.9-0.9-3c0-1.1,0.3-2.1,0.9-3C577.9,20.9,578.9,20.5,579.8,20.5z
		 M578.1,24.5c0,0.4,0,0.7,0.1,1.1c0.1,0.3,0.2,0.6,0.4,0.9c0.3,0.5,0.9,0.8,1.5,0.8c0.3,0,0.6-0.1,0.9-0.2c0.3-0.1,0.5-0.3,0.7-0.6
		c0.2-0.3,0.3-0.5,0.4-0.9c0.1-0.4,0.1-0.7,0.1-1.1c0-0.3,0-0.7-0.1-1c-0.1-0.3-0.2-0.6-0.4-0.9c-0.2-0.3-0.4-0.5-0.7-0.6
		c-0.3-0.2-0.6-0.3-1-0.2c-0.3,0-0.7,0.1-1,0.2c-0.3,0.2-0.5,0.4-0.7,0.6c-0.2,0.3-0.3,0.6-0.4,0.9
		C578.1,23.8,578.1,24.2,578.1,24.5L578.1,24.5z"/>
	<path class="st2" d="M591.4,28.4v-1.2l0,0c-0.1,0.2-0.3,0.4-0.5,0.6c-0.2,0.2-0.4,0.3-0.6,0.4c-0.2,0.1-0.4,0.2-0.7,0.3
		c-0.2,0.1-0.5,0.1-0.7,0.1c-0.8,0.1-1.5-0.2-2.1-0.7c-0.5-0.6-0.7-1.5-0.7-2.3v-4.9h1.7v4.6c0,0.3,0,0.5,0.1,0.8
		c0.1,0.2,0.1,0.4,0.3,0.6c0.1,0.2,0.3,0.3,0.5,0.4c0.5,0.2,1.1,0.2,1.6,0c0.2-0.1,0.4-0.3,0.6-0.5c0.2-0.2,0.3-0.5,0.3-0.8
		c0.1-0.3,0.1-0.7,0.1-1v-4.1h1.6v7.7L591.4,28.4z"/>
	<path class="st2" d="M597,17.4V19h-1.7v-1.6L597,17.4z M597,20.7v7.7h-1.7v-7.7H597z"/>
	<path class="st2" d="M603,28.4h-0.3h-0.6c-0.3,0-0.6,0-0.9-0.1c-0.2,0-0.5-0.1-0.7-0.2c-0.2-0.1-0.4-0.3-0.5-0.5
		c-0.1-0.3-0.2-0.6-0.2-0.9v-4.8h-1.5v-1.2h1.5v-2.3h1.7v2.3h1.8v1.2h-1.8v4.3c0,0.2,0,0.5,0.2,0.7c0.2,0.2,0.4,0.2,0.7,0.2h0.7h0.2
		v1.3L603,28.4z"/>
	<path class="st2" d="M616.5,24.5c0,0.5-0.1,1-0.2,1.5c-0.1,0.5-0.3,0.9-0.6,1.3c-0.3,0.4-0.6,0.7-1,0.9c-0.4,0.2-0.9,0.4-1.5,0.3
		c-0.5,0-1.1-0.1-1.6-0.4c-0.4-0.2-0.8-0.6-1-1l0,0v1.1H609V17.8h1.7v4l0,0c0.1-0.2,0.3-0.4,0.4-0.5c0.2-0.2,0.4-0.3,0.6-0.4
		c0.2-0.1,0.5-0.2,0.7-0.3c0.3-0.1,0.5-0.1,0.8-0.1c0.5,0,1,0.1,1.5,0.3c0.4,0.2,0.7,0.5,1,0.9c0.3,0.4,0.5,0.8,0.6,1.3
		C616.4,23.5,616.5,24,616.5,24.5z M614.8,24.5c0-0.3,0-0.7-0.1-1c-0.1-0.3-0.2-0.6-0.3-0.9c-0.2-0.3-0.4-0.5-0.6-0.6
		c-0.3-0.2-0.6-0.3-1-0.2c-0.3,0-0.7,0.1-1,0.2c-0.3,0.2-0.5,0.4-0.7,0.6c-0.2,0.3-0.3,0.6-0.4,0.9c-0.2,0.7-0.2,1.3,0,2
		c0.1,0.3,0.2,0.6,0.4,0.9c0.2,0.3,0.4,0.5,0.7,0.6c0.3,0.2,0.6,0.3,1,0.2c0.3,0,0.6-0.1,0.9-0.2c0.3-0.2,0.5-0.4,0.6-0.6
		c0.2-0.3,0.3-0.6,0.4-0.9C614.7,25.2,614.8,24.9,614.8,24.5L614.8,24.5z"/>
	<path class="st2" d="M618.4,28.4v-7.7h1.6v1.6l0,0c0.2-0.5,0.6-0.9,1-1.3c0.4-0.3,1-0.5,1.5-0.5h0.2h0.2v1.6h-0.3h-0.3
		c-0.7,0-1.3,0.2-1.7,0.7c-0.4,0.5-0.6,1.2-0.6,1.8v3.7L618.4,28.4z"/>
	<path class="st2" d="M627.5,20.5c0.5,0,1.1,0.1,1.6,0.3c0.4,0.2,0.8,0.5,1.1,0.9c0.3,0.4,0.5,0.8,0.7,1.3c0.2,0.5,0.2,1.1,0.2,1.6
		V25h-5.7c0,0.3,0.1,0.6,0.2,1c0.1,0.3,0.2,0.5,0.4,0.7c0.2,0.2,0.4,0.4,0.6,0.5c0.3,0.1,0.6,0.2,0.8,0.2c0.4,0,0.8-0.1,1.1-0.3
		c0.3-0.2,0.5-0.4,0.7-0.7h1.6c-0.1,0.3-0.3,0.7-0.5,1c-0.2,0.3-0.5,0.5-0.8,0.7c-0.3,0.2-0.6,0.4-1,0.5c-0.4,0.1-0.8,0.2-1.2,0.2
		c-0.5,0-1.1-0.1-1.5-0.3c-0.4-0.2-0.8-0.5-1.2-0.8c-0.3-0.4-0.6-0.8-0.7-1.3c-0.2-0.5-0.3-1.1-0.2-1.6c0-0.5,0.1-1.1,0.2-1.6
		c0.2-0.5,0.4-0.9,0.7-1.3c0.3-0.4,0.7-0.7,1.2-0.9C626.4,20.6,627,20.5,627.5,20.5z M629.4,23.8c0-0.3-0.1-0.6-0.2-0.8
		c-0.1-0.2-0.2-0.5-0.4-0.6c-0.2-0.2-0.4-0.3-0.6-0.4c-0.3-0.1-0.5-0.2-0.8-0.1c-0.3,0-0.5,0-0.8,0.1c-0.2,0.1-0.4,0.2-0.6,0.4
		c-0.2,0.2-0.3,0.4-0.4,0.6c-0.1,0.3-0.2,0.5-0.2,0.8L629.4,23.8z"/>
	<path class="st2" d="M640,28.4c-0.2,0-0.3,0.1-0.5,0.1H639c-0.2,0-0.3,0-0.5,0c-0.1,0-0.3-0.1-0.4-0.2c-0.1-0.1-0.2-0.2-0.3-0.3
		c-0.1-0.2-0.1-0.3-0.1-0.5l0,0c-0.2,0.2-0.3,0.4-0.5,0.5c-0.2,0.1-0.4,0.3-0.6,0.4c-0.5,0.2-1,0.3-1.5,0.3c-0.7,0-1.4-0.2-1.9-0.6
		c-0.5-0.4-0.7-1-0.7-1.7c0-0.6,0.2-1.2,0.7-1.6c0.2-0.2,0.4-0.3,0.7-0.4c0.3-0.1,0.6-0.2,0.8-0.2c0.3-0.1,0.6-0.1,1-0.1l1-0.1
		c0.1,0,0.3,0,0.4-0.1c0.1,0,0.2-0.1,0.3-0.2c0.1-0.1,0.2-0.2,0.2-0.3c0-0.1,0.1-0.2,0.1-0.4c0-0.3-0.1-0.7-0.4-0.9
		c-0.4-0.2-0.8-0.3-1.2-0.3c-0.4,0-0.8,0.1-1.2,0.3c-0.3,0.2-0.4,0.5-0.5,0.9h-1.7c0-0.4,0.1-0.7,0.3-1c0.2-0.3,0.4-0.5,0.7-0.7
		c0.3-0.2,0.7-0.3,1-0.4c0.4-0.1,0.9-0.1,1.3-0.1c0.8-0.1,1.7,0.1,2.4,0.6c0.5,0.4,0.8,1,0.8,1.6v4.1c0,0.1,0,0.2,0.1,0.4
		c0.1,0.1,0.2,0.1,0.3,0.1h0.1h0.2L640,28.4z M637.6,24.5L637.6,24.5c-0.2,0.2-0.4,0.3-0.6,0.3l-0.6,0.1l-0.8,0.1
		c-0.4,0-0.8,0.2-1.2,0.4c-0.3,0.2-0.4,0.5-0.4,0.8c0,0.4,0.1,0.7,0.4,0.9c0.3,0.2,0.6,0.3,1,0.3c0.5,0,1.1-0.2,1.5-0.5
		c0.4-0.4,0.6-0.9,0.6-1.5L637.6,24.5z"/>
	<path class="st2" d="M643.4,17.8v6l3.2-3.1h2l-3,2.8l3.3,4.9h-2l-2.4-3.7l-1.1,1v2.7h-1.7V17.8L643.4,17.8z"/>
	<path class="st2" d="M653.3,20.5c0.5,0,1.1,0.1,1.6,0.3c0.4,0.2,0.8,0.5,1.1,0.9c0.3,0.4,0.5,0.8,0.7,1.3c0.2,0.5,0.2,1.1,0.2,1.6
		V25h-5.7c0,0.3,0.1,0.6,0.2,1c0.1,0.3,0.2,0.5,0.4,0.7c0.2,0.2,0.4,0.4,0.6,0.5c0.3,0.1,0.6,0.2,0.8,0.2c0.4,0,0.8-0.1,1.1-0.3
		c0.3-0.2,0.5-0.4,0.7-0.7h1.6c-0.1,0.3-0.3,0.7-0.5,1c-0.2,0.3-0.5,0.5-0.8,0.7c-0.3,0.2-0.6,0.4-1,0.5c-0.4,0.1-0.8,0.2-1.2,0.2
		c-0.5,0-1.1-0.1-1.5-0.3c-0.4-0.2-0.8-0.5-1.2-0.8c-0.3-0.4-0.6-0.8-0.7-1.3c-0.2-0.5-0.3-1.1-0.2-1.6c0-0.5,0.1-1.1,0.2-1.5
		c0.2-0.5,0.4-0.9,0.7-1.3c0.3-0.4,0.7-0.7,1.2-0.9C652.3,20.6,652.8,20.5,653.3,20.5z M655.3,23.8c0-0.3-0.1-0.6-0.2-0.8
		c-0.1-0.2-0.2-0.5-0.4-0.6c-0.2-0.2-0.4-0.3-0.6-0.4c-0.3-0.1-0.5-0.2-0.8-0.1c-0.3,0-0.5,0-0.8,0.1c-0.2,0.1-0.4,0.2-0.6,0.4
		c-0.2,0.2-0.3,0.4-0.4,0.6c-0.1,0.3-0.2,0.5-0.2,0.8L655.3,23.8z"/>
	<path class="st2" d="M658.7,28.4v-7.7h1.6v1.6l0,0c0.2-0.5,0.6-0.9,1-1.3c0.4-0.3,1-0.5,1.5-0.5h0.2h0.2v1.6H663h-0.3
		c-0.7,0-1.3,0.2-1.7,0.7c-0.4,0.5-0.6,1.2-0.6,1.8v3.7L658.7,28.4z"/>
	<path class="st2" d="M672.5,28.4h-0.3h-0.6c-0.3,0-0.6,0-0.9-0.1c-0.2,0-0.5-0.1-0.7-0.2c-0.2-0.1-0.4-0.3-0.5-0.5
		c-0.1-0.3-0.2-0.6-0.2-0.9v-4.8h-1.5v-1.2h1.5v-2.3h1.7v2.3h1.8v1.2H671v4.3c0,0.2,0,0.5,0.2,0.7c0.2,0.2,0.4,0.2,0.7,0.2h0.7h0.2
		v1.3L672.5,28.4z"/>
	<path class="st2" d="M676.1,17.4V19h-1.7v-1.6L676.1,17.4z M676.1,20.7v7.7h-1.7v-7.7H676.1z"/>
	<path class="st2" d="M686,24.6c0,0.3,0,0.7-0.1,1c-0.1,0.3-0.2,0.6-0.3,0.9c-0.1,0.3-0.3,0.6-0.5,0.8c-0.2,0.3-0.4,0.5-0.7,0.7
		c-0.3,0.2-0.6,0.3-0.9,0.4c-0.3,0.1-0.7,0.2-1.1,0.2c-0.2,0-0.5,0-0.7-0.1c-0.2-0.1-0.5-0.1-0.7-0.3c-0.2-0.1-0.4-0.3-0.6-0.4
		c-0.2-0.2-0.3-0.4-0.4-0.6l0,0v3.9h-1.7V20.7h1.5v1.2l0,0c0.2-0.4,0.6-0.8,1-1c0.4-0.2,0.9-0.3,1.4-0.3c0.5,0,1.1,0.1,1.5,0.3
		c0.4,0.2,0.8,0.5,1.1,0.9c0.3,0.4,0.5,0.8,0.7,1.3C685.9,23.6,686,24.1,686,24.6z M684.3,24.6c0-0.3,0-0.7-0.1-1
		c-0.1-0.3-0.2-0.6-0.3-0.9c-0.2-0.3-0.4-0.5-0.7-0.6c-0.3-0.2-0.6-0.3-1-0.2c-0.6,0-1.2,0.2-1.6,0.7c-0.4,0.6-0.6,1.3-0.5,2
		c0,0.3,0,0.7,0.1,1c0.1,0.3,0.2,0.6,0.4,0.9c0.2,0.3,0.4,0.5,0.7,0.6c0.3,0.2,0.7,0.3,1,0.2c0.6,0,1.2-0.3,1.5-0.8
		c0.2-0.3,0.3-0.6,0.4-0.9C684.2,25.3,684.3,24.9,684.3,24.6L684.3,24.6z"/>
	<path class="st2" d="M695.3,24.6c0,0.3,0,0.7-0.1,1c-0.1,0.3-0.2,0.6-0.3,0.9c-0.1,0.3-0.3,0.6-0.5,0.8c-0.2,0.3-0.4,0.5-0.7,0.7
		c-0.3,0.2-0.6,0.3-0.9,0.4c-0.3,0.1-0.7,0.2-1.1,0.2c-0.2,0-0.5,0-0.7-0.1c-0.2-0.1-0.5-0.1-0.7-0.3c-0.2-0.1-0.4-0.3-0.6-0.4
		c-0.2-0.2-0.3-0.4-0.4-0.6l0,0v3.9h-1.7V20.7h1.6v1.2l0,0c0.2-0.4,0.6-0.8,1-1c0.4-0.2,0.9-0.3,1.4-0.3c0.5,0,1.1,0.1,1.5,0.3
		c0.4,0.2,0.8,0.5,1.1,0.9c0.3,0.4,0.5,0.8,0.7,1.3C695.2,23.6,695.3,24.1,695.3,24.6z M693.7,24.6c0-0.3,0-0.7-0.1-1
		c-0.1-0.3-0.2-0.6-0.3-0.9c-0.2-0.3-0.4-0.5-0.7-0.6c-0.3-0.2-0.6-0.3-1-0.2c-0.6,0-1.2,0.2-1.6,0.7c-0.4,0.6-0.6,1.3-0.5,2
		c0,0.3,0,0.7,0.1,1c0.1,0.3,0.2,0.6,0.4,0.9c0.2,0.3,0.4,0.5,0.7,0.6c0.3,0.2,0.7,0.3,1,0.2c0.6,0,1.2-0.3,1.5-0.8
		c0.2-0.3,0.3-0.6,0.4-0.9C693.6,25.3,693.6,24.9,693.7,24.6L693.7,24.6z"/>
	<path class="st2" d="M700.5,20.5c0.5,0,1.1,0.1,1.6,0.3c0.4,0.2,0.8,0.5,1.1,0.9c0.3,0.4,0.5,0.8,0.7,1.3c0.2,0.5,0.2,1.1,0.2,1.6
		V25h-5.7c0,0.3,0.1,0.6,0.2,1c0.1,0.3,0.2,0.5,0.4,0.7c0.2,0.2,0.4,0.4,0.6,0.5c0.3,0.1,0.6,0.2,0.8,0.2c0.4,0,0.8-0.1,1.1-0.3
		c0.3-0.2,0.5-0.4,0.7-0.7h1.6c-0.1,0.3-0.3,0.7-0.5,1c-0.2,0.3-0.5,0.5-0.8,0.7c-0.3,0.2-0.6,0.4-1,0.5c-0.4,0.1-0.8,0.2-1.2,0.2
		c-0.5,0-1.1-0.1-1.5-0.3c-0.4-0.2-0.8-0.5-1.2-0.8c-0.3-0.4-0.6-0.8-0.7-1.3c-0.2-0.5-0.3-1.1-0.2-1.6c0-0.5,0.1-1.1,0.3-1.6
		c0.2-0.5,0.4-0.9,0.7-1.3c0.3-0.4,0.7-0.7,1.2-0.9C699.4,20.6,699.9,20.5,700.5,20.5z M702.4,23.8c0-0.3-0.1-0.6-0.2-0.8
		c-0.1-0.2-0.2-0.5-0.4-0.6c-0.2-0.2-0.4-0.3-0.6-0.4c-0.3-0.1-0.5-0.2-0.8-0.1c-0.3,0-0.5,0-0.8,0.1c-0.2,0.1-0.4,0.2-0.6,0.4
		c-0.2,0.2-0.3,0.4-0.4,0.6c-0.1,0.3-0.2,0.5-0.2,0.8L702.4,23.8z"/>
	<path class="st2" d="M713,17.8v10.6h-1.6v-1.1l0,0c-0.1,0.2-0.3,0.4-0.4,0.6c-0.2,0.2-0.4,0.3-0.6,0.4c-0.2,0.1-0.4,0.2-0.7,0.3
		c-1.2,0.3-2.6-0.1-3.3-1.1c-0.3-0.4-0.5-0.8-0.7-1.3c-0.1-0.5-0.2-1-0.2-1.5c0-0.5,0.1-1,0.2-1.5c0.1-0.5,0.3-0.9,0.6-1.3
		c0.3-0.4,0.6-0.7,1.1-0.9c0.7-0.3,1.5-0.4,2.2-0.3c0.2,0.1,0.5,0.1,0.7,0.2c0.2,0.1,0.4,0.2,0.6,0.4c0.2,0.2,0.3,0.4,0.4,0.6l0,0
		v-4L713,17.8z M707.1,24.5c0,0.3,0,0.7,0.1,1c0.1,0.3,0.2,0.6,0.4,0.9c0.2,0.3,0.4,0.5,0.7,0.7c0.3,0.2,0.6,0.3,1,0.3
		c0.3,0,0.6-0.1,0.9-0.2c0.3-0.1,0.5-0.3,0.7-0.6c0.2-0.3,0.3-0.6,0.4-0.9c0.2-0.7,0.2-1.4,0-2.1c-0.1-0.3-0.2-0.6-0.4-0.9
		c-0.2-0.3-0.4-0.5-0.7-0.6c-0.3-0.2-0.7-0.3-1-0.2c-0.3,0-0.7,0.1-1,0.2c-0.3,0.2-0.5,0.4-0.7,0.6c-0.2,0.3-0.3,0.6-0.4,0.9
		C707.1,23.9,707.1,24.2,707.1,24.5L707.1,24.5z"/>
	<path class="st2" d="M717.1,21v1.9h-1.9V21H717.1z M717.1,26.5v1.9h-1.9v-1.9H717.1z"/>
	<path class="st3" d="M724.8,19.8v7.3h4.4v1.3h-5.9v-8.6L724.8,19.8z"/>
	<path class="st3" d="M736.4,25.1c0,0.5-0.1,0.9-0.2,1.4c-0.1,0.4-0.4,0.8-0.7,1.1c-0.3,0.3-0.6,0.6-1,0.7c-0.4,0.2-0.9,0.3-1.4,0.2
		c-0.9,0-1.8-0.3-2.4-1c-1.2-1.5-1.2-3.5,0-5c0.6-0.7,1.5-1,2.4-1c0.9,0,1.8,0.3,2.4,1C736.1,23.3,736.4,24.2,736.4,25.1z
		 M734.9,25.1c0-0.3,0-0.6-0.1-0.9c-0.1-0.3-0.2-0.5-0.3-0.8c-0.2-0.2-0.4-0.4-0.6-0.5c-0.3-0.1-0.5-0.2-0.8-0.2
		c-0.3,0-0.5,0.1-0.8,0.2c-0.2,0.1-0.4,0.3-0.6,0.5c-0.2,0.2-0.3,0.5-0.4,0.7c-0.2,0.6-0.2,1.3,0,1.9c0.1,0.3,0.2,0.5,0.3,0.7
		c0.2,0.2,0.4,0.4,0.6,0.5c0.2,0.1,0.5,0.2,0.8,0.2c0.3,0,0.5-0.1,0.8-0.2c0.2-0.1,0.4-0.3,0.6-0.5c0.2-0.2,0.3-0.5,0.4-0.7
		C734.9,25.7,734.9,25.4,734.9,25.1z"/>
	<path class="st3" d="M738,28.4v-6.6h1.4v1.3l0,0c0.2-0.4,0.5-0.8,0.9-1.1c0.4-0.3,0.8-0.4,1.3-0.4h0.2h0.2V23h-0.2h-0.3
		c-0.6,0-1.1,0.2-1.5,0.6c-0.4,0.4-0.5,1-0.5,1.6v3.2L738,28.4z"/>
	<path class="st3" d="M745.8,21.6c0.5,0,0.9,0.1,1.3,0.3c0.4,0.2,0.7,0.4,1,0.8c0.3,0.3,0.5,0.7,0.6,1.1c0.1,0.4,0.2,0.9,0.2,1.4
		v0.3H744c0,0.3,0,0.5,0.1,0.8c0.1,0.2,0.2,0.4,0.3,0.6c0.1,0.2,0.3,0.3,0.5,0.4c0.2,0.1,0.5,0.2,0.7,0.1c0.3,0,0.7-0.1,1-0.2
		c0.3-0.1,0.5-0.4,0.6-0.6h1.4c-0.1,0.3-0.3,0.6-0.5,0.8c-0.2,0.2-0.4,0.5-0.7,0.6c-0.3,0.2-0.5,0.3-0.8,0.4c-0.3,0.1-0.7,0.1-1,0.1
		c-0.5,0-0.9-0.1-1.3-0.3c-0.4-0.2-0.7-0.4-1-0.7c-0.3-0.3-0.5-0.7-0.6-1.1c-0.2-0.5-0.2-0.9-0.2-1.4c0-0.5,0.1-0.9,0.2-1.3
		c0.1-0.4,0.4-0.8,0.6-1.1c0.3-0.3,0.6-0.6,1-0.8C744.9,21.7,745.3,21.6,745.8,21.6z M747.4,24.5c0-0.2-0.1-0.5-0.2-0.7
		c-0.1-0.2-0.2-0.4-0.3-0.5c-0.1-0.2-0.3-0.3-0.5-0.4c-0.4-0.2-0.9-0.2-1.4,0c-0.2,0.1-0.4,0.2-0.5,0.4c-0.1,0.2-0.3,0.3-0.3,0.5
		c-0.1,0.2-0.1,0.5-0.2,0.7H747.4z"/>
	<path class="st3" d="M758.7,28.4v-4c0-0.2,0-0.4,0-0.6c0-0.2-0.1-0.3-0.2-0.5c-0.1-0.1-0.2-0.2-0.4-0.3c-0.2-0.1-0.4-0.1-0.6-0.1
		c-0.4,0-0.8,0.1-1.1,0.5c-0.3,0.4-0.4,0.9-0.3,1.4v3.7h-1.5v-4.2c0-0.4-0.1-0.7-0.3-1c-0.2-0.3-0.6-0.4-0.9-0.4
		c-0.4,0-0.8,0.2-1.1,0.5c-0.3,0.4-0.4,0.8-0.4,1.3v3.8h-1.5v-6.7h1.4v1l0,0c0.4-0.7,1.2-1.2,2.1-1.1c0.4,0,0.8,0.1,1.2,0.3
		c0.3,0.2,0.6,0.5,0.7,0.9c0.2-0.4,0.5-0.7,0.9-0.9c1-0.7,2.4-0.5,3.1,0.5c0.3,0.4,0.4,0.9,0.4,1.5v4.5L758.7,28.4z"/>
	<path class="st3" d="M767,18.9v1.4h-1.4v-1.4H767z M767,21.8v6.6h-1.4v-6.6H767z"/>
	<path class="st3" d="M775.5,25.1c0,0.3,0,0.6-0.1,0.9c0,0.3-0.1,0.5-0.2,0.8c-0.1,0.3-0.2,0.5-0.4,0.7c-0.2,0.2-0.4,0.4-0.6,0.6
		c-0.2,0.2-0.5,0.3-0.7,0.4c-0.3,0.1-0.6,0.1-0.9,0.1c-0.2,0-0.4,0-0.6-0.1c-0.2,0-0.4-0.1-0.6-0.2c-0.2-0.1-0.4-0.2-0.5-0.4
		c-0.2-0.1-0.3-0.3-0.4-0.5l0,0v3.3H769v-8.9h1.4v1l0,0c0.2-0.4,0.5-0.7,0.9-0.9c0.4-0.2,0.8-0.3,1.2-0.3c0.5,0,0.9,0.1,1.3,0.3
		c0.4,0.2,0.7,0.4,0.9,0.8c0.3,0.3,0.4,0.7,0.5,1.1C775.4,24.2,775.5,24.7,775.5,25.1z M774,25.1c0-0.3,0-0.6-0.1-0.8
		c-0.1-0.3-0.2-0.5-0.3-0.8c-0.1-0.2-0.3-0.4-0.6-0.6c-0.3-0.2-0.6-0.2-0.8-0.2c-0.5,0-1,0.2-1.3,0.6c-0.3,0.5-0.5,1.1-0.5,1.8
		c0,0.3,0,0.6,0.1,0.8c0.1,0.3,0.2,0.5,0.3,0.8c0.1,0.2,0.3,0.4,0.6,0.5c0.3,0.1,0.6,0.2,0.8,0.2c0.5,0,1-0.2,1.3-0.7
		c0.2-0.2,0.3-0.5,0.3-0.7C774,25.8,774,25.4,774,25.1L774,25.1z"/>
	<path class="st3" d="M782.5,26.4c0,0.3-0.1,0.7-0.2,1c-0.1,0.3-0.4,0.5-0.6,0.7c-0.3,0.2-0.6,0.3-0.9,0.4c-0.4,0.1-0.7,0.1-1.1,0.1
		c-0.4,0-0.7,0-1.1-0.1c-0.3-0.1-0.6-0.2-0.9-0.4c-0.3-0.2-0.5-0.4-0.6-0.6c-0.2-0.3-0.3-0.6-0.3-0.9h1.4c0,0.3,0.2,0.6,0.5,0.8
		c0.1,0.1,0.3,0.2,0.5,0.2c0.2,0,0.4,0.1,0.6,0.1c0.2,0,0.4,0,0.5-0.1c0.2,0,0.3-0.1,0.5-0.2c0.1-0.1,0.2-0.2,0.3-0.3
		c0.1-0.1,0.1-0.3,0.1-0.4c0-0.1,0-0.2-0.1-0.4c-0.1-0.1-0.2-0.2-0.3-0.3c-0.1-0.1-0.3-0.1-0.4-0.2l-0.5-0.1l-0.9-0.2
		c-0.3-0.1-0.6-0.2-0.9-0.3c-0.2-0.1-0.4-0.2-0.6-0.4c-0.2-0.1-0.3-0.3-0.4-0.5c-0.1-0.2-0.1-0.4-0.1-0.6c0-0.3,0.1-0.6,0.2-0.9
		c0.1-0.3,0.3-0.5,0.6-0.6c0.3-0.2,0.6-0.3,0.9-0.4c0.4-0.1,0.7-0.1,1.1-0.1c0.4,0,0.7,0,1.1,0.1c0.3,0.1,0.6,0.2,0.8,0.4
		c0.2,0.2,0.4,0.4,0.5,0.6c0.1,0.2,0.2,0.5,0.2,0.8h-1.4c-0.1-0.3-0.2-0.5-0.5-0.6c-0.3-0.2-0.6-0.2-0.9-0.2c-0.2,0-0.3,0-0.5,0
		c-0.1,0-0.3,0.1-0.4,0.1c-0.1,0.1-0.2,0.1-0.3,0.2c-0.1,0.1-0.1,0.2-0.1,0.4c0,0.1,0,0.2,0.1,0.4c0.1,0.1,0.2,0.2,0.3,0.2
		c0.1,0.1,0.2,0.1,0.3,0.2l0.4,0.1l1.4,0.3c0.2,0.1,0.5,0.1,0.7,0.2c0.2,0.1,0.4,0.2,0.5,0.3c0.2,0.1,0.3,0.3,0.4,0.5
		C782.4,25.9,782.5,26.1,782.5,26.4z"/>
	<path class="st3" d="M788.5,28.4v-1l0,0c-0.1,0.2-0.2,0.4-0.4,0.5c-0.1,0.1-0.3,0.3-0.5,0.4c-0.2,0.1-0.4,0.2-0.6,0.2
		c-0.2,0.1-0.4,0.1-0.6,0.1c-0.7,0.1-1.3-0.2-1.8-0.6c-0.4-0.6-0.6-1.3-0.6-1.9v-4.2h1.4v4c0,0.2,0,0.5,0.1,0.7
		c0,0.2,0.1,0.4,0.2,0.5c0.1,0.1,0.3,0.3,0.4,0.3c0.4,0.2,0.9,0.2,1.4,0c0.2-0.1,0.4-0.2,0.5-0.4c0.1-0.2,0.2-0.4,0.3-0.7
		c0.1-0.3,0.1-0.6,0.1-0.9v-3.5h1.4v6.6L788.5,28.4z"/>
	<path class="st3" d="M800,28.4v-4c0-0.2,0-0.4,0-0.6c0-0.2-0.1-0.3-0.2-0.5c-0.1-0.1-0.2-0.2-0.4-0.3c-0.2-0.1-0.4-0.1-0.6-0.1
		c-0.4,0-0.8,0.1-1.1,0.5c-0.3,0.4-0.4,0.9-0.3,1.4v3.7h-1.4v-4.2c0-0.4-0.1-0.7-0.3-1c-0.2-0.3-0.6-0.4-0.9-0.4
		c-0.4,0-0.8,0.2-1.1,0.5c-0.3,0.4-0.4,0.8-0.4,1.3v3.8h-1.5v-6.7h1.4v1l0,0c0.4-0.7,1.2-1.2,2.1-1.1c0.4,0,0.8,0.1,1.2,0.3
		c0.3,0.2,0.6,0.5,0.7,0.9c0.2-0.4,0.5-0.7,0.9-0.9c1-0.7,2.4-0.5,3.1,0.5c0.3,0.4,0.4,0.9,0.4,1.5v4.5L800,28.4z"/>
	<path class="st3" d="M813.1,19.3v9.1h-1.4v-1l0,0c-0.1,0.2-0.2,0.4-0.4,0.5c-0.1,0.1-0.3,0.3-0.5,0.4c-0.2,0.1-0.4,0.2-0.6,0.2
		c-0.2,0.1-0.4,0.1-0.7,0.1c-0.4,0-0.9-0.1-1.3-0.3c-0.4-0.2-0.7-0.4-0.9-0.8c-0.3-0.3-0.4-0.7-0.6-1.1c-0.1-0.4-0.2-0.9-0.2-1.3
		c0-0.4,0.1-0.9,0.2-1.3c0.1-0.4,0.3-0.8,0.5-1.1c0.2-0.3,0.6-0.6,0.9-0.8c0.6-0.3,1.3-0.4,1.9-0.2c0.2,0,0.4,0.1,0.6,0.2
		c0.2,0.1,0.3,0.2,0.5,0.4c0.1,0.1,0.3,0.3,0.4,0.5l0,0v-3.5H813.1z M808.1,25.1c0,0.3,0,0.6,0.1,0.8c0.1,0.3,0.2,0.5,0.3,0.8
		c0.1,0.2,0.3,0.4,0.6,0.6c0.2,0.2,0.5,0.2,0.8,0.2c0.3,0,0.5-0.1,0.8-0.2c0.2-0.1,0.4-0.3,0.6-0.5c0.2-0.2,0.3-0.5,0.3-0.8
		c0.1-0.3,0.1-0.7,0.1-1c0-0.3,0-0.6-0.1-0.8c-0.1-0.3-0.2-0.5-0.3-0.8c-0.1-0.2-0.3-0.4-0.6-0.5c-0.3-0.1-0.6-0.2-0.8-0.2
		c-0.3,0-0.6,0.1-0.8,0.2c-0.2,0.1-0.4,0.3-0.5,0.5c-0.1,0.2-0.3,0.5-0.3,0.8C808.1,24.5,808,24.8,808.1,25.1L808.1,25.1z"/>
	<path class="st3" d="M821.3,25.1c0,0.5-0.1,0.9-0.2,1.4c-0.1,0.4-0.4,0.8-0.7,1.1c-0.3,0.3-0.6,0.6-1,0.7c-0.4,0.2-0.9,0.3-1.4,0.2
		c-0.9,0-1.8-0.3-2.4-1c-1.2-1.5-1.2-3.5,0-5c0.6-0.7,1.5-1,2.4-1c0.9,0,1.8,0.3,2.4,1C821,23.3,821.3,24.2,821.3,25.1z M819.8,25.1
		c0-0.3,0-0.6-0.1-0.9c-0.1-0.3-0.2-0.5-0.3-0.8c-0.2-0.2-0.4-0.4-0.6-0.5c-0.3-0.1-0.5-0.2-0.8-0.2c-0.3,0-0.5,0.1-0.8,0.2
		c-0.2,0.1-0.4,0.3-0.6,0.5c-0.2,0.2-0.3,0.5-0.4,0.7c-0.2,0.6-0.2,1.3,0,1.9c0.1,0.3,0.2,0.5,0.3,0.7c0.2,0.2,0.4,0.4,0.6,0.5
		c0.2,0.1,0.5,0.2,0.8,0.2c0.3,0,0.5-0.1,0.8-0.2c0.2-0.1,0.4-0.3,0.6-0.5c0.2-0.2,0.3-0.5,0.4-0.7
		C819.8,25.7,819.8,25.4,819.8,25.1z"/>
	<path class="st3" d="M824.4,19.3v9.1h-1.5v-9.1H824.4z"/>
	<path class="st3" d="M832.6,25.1c0,0.5-0.1,0.9-0.2,1.4c-0.1,0.4-0.4,0.8-0.7,1.1c-0.3,0.3-0.6,0.6-1,0.7c-0.4,0.2-0.9,0.3-1.4,0.2
		c-0.9,0-1.8-0.3-2.4-1c-1.2-1.5-1.2-3.5,0-5c0.6-0.7,1.5-1,2.4-1c0.9,0,1.8,0.3,2.4,1C832.4,23.3,832.7,24.2,832.6,25.1z
		 M831.2,25.1c0-0.3,0-0.6-0.1-0.9c-0.1-0.3-0.2-0.5-0.3-0.8c-0.2-0.2-0.4-0.4-0.6-0.5c-0.3-0.1-0.5-0.2-0.8-0.2
		c-0.3,0-0.5,0.1-0.8,0.2c-0.2,0.1-0.4,0.3-0.6,0.5c-0.2,0.2-0.3,0.5-0.4,0.7c-0.2,0.6-0.2,1.3,0,1.9c0.1,0.3,0.2,0.5,0.3,0.7
		c0.2,0.2,0.4,0.4,0.6,0.5c0.2,0.1,0.5,0.2,0.8,0.2c0.3,0,0.5-0.1,0.8-0.2c0.2-0.1,0.4-0.3,0.6-0.5c0.2-0.2,0.3-0.5,0.4-0.7
		C831.1,25.7,831.2,25.4,831.2,25.1z"/>
	<path class="st3" d="M834.2,28.4v-6.6h1.4v1.3l0,0c0.2-0.4,0.5-0.8,0.9-1.1c0.4-0.3,0.8-0.4,1.3-0.4h0.2h0.2V23H838h-0.3
		c-0.6,0-1.1,0.2-1.5,0.6c-0.4,0.4-0.5,1-0.5,1.6v3.2L834.2,28.4z"/>
	<path class="st3" d="M848.2,26.4c0,0.3-0.1,0.7-0.2,1c-0.1,0.3-0.4,0.5-0.6,0.7c-0.3,0.2-0.6,0.3-0.9,0.4c-0.4,0.1-0.7,0.1-1.1,0.1
		c-0.4,0-0.7,0-1.1-0.1c-0.3-0.1-0.6-0.2-0.9-0.4c-0.3-0.2-0.5-0.4-0.6-0.6c-0.2-0.3-0.3-0.6-0.3-0.9h1.4c0,0.3,0.2,0.6,0.5,0.8
		c0.1,0.1,0.3,0.2,0.5,0.2c0.2,0,0.4,0.1,0.6,0.1c0.2,0,0.4,0,0.5-0.1c0.2,0,0.3-0.1,0.5-0.2c0.1-0.1,0.2-0.2,0.3-0.3
		c0.1-0.1,0.1-0.3,0.1-0.4c0-0.1,0-0.2-0.1-0.4c-0.1-0.1-0.2-0.2-0.3-0.3c-0.1-0.1-0.3-0.1-0.4-0.2l-0.5-0.1l-0.9-0.2
		c-0.3-0.1-0.6-0.2-0.9-0.3c-0.2-0.1-0.4-0.2-0.6-0.4c-0.2-0.1-0.3-0.3-0.4-0.5c-0.1-0.2-0.1-0.4-0.1-0.6c0-0.3,0.1-0.6,0.2-0.9
		c0.1-0.3,0.3-0.5,0.6-0.6c0.3-0.2,0.6-0.3,0.9-0.4c0.4-0.1,0.7-0.1,1.1-0.1c0.4,0,0.7,0,1.1,0.1c0.3,0.1,0.6,0.2,0.8,0.4
		c0.2,0.2,0.4,0.4,0.5,0.6c0.1,0.2,0.2,0.5,0.2,0.8h-1.4c-0.1-0.3-0.2-0.5-0.5-0.6c-0.3-0.2-0.6-0.2-0.9-0.2c-0.2,0-0.3,0-0.5,0
		c-0.1,0-0.3,0.1-0.4,0.1c-0.1,0.1-0.2,0.1-0.3,0.2c-0.1,0.1-0.1,0.2-0.1,0.4c0,0.1,0,0.2,0.1,0.4c0.1,0.1,0.2,0.2,0.3,0.2
		c0.1,0.1,0.2,0.1,0.3,0.2l0.4,0.1l1.4,0.3c0.2,0.1,0.5,0.1,0.7,0.2c0.2,0.1,0.4,0.2,0.5,0.3c0.2,0.1,0.3,0.3,0.4,0.5
		C848.2,25.9,848.2,26.1,848.2,26.4z"/>
	<path class="st3" d="M851.2,18.9v1.4h-1.5v-1.4H851.2z M851.2,21.8v6.6h-1.5v-6.6H851.2z"/>
	<path class="st3" d="M856.5,28.4h-0.8c-0.2,0-0.5,0-0.7-0.1c-0.2,0-0.4-0.1-0.6-0.2c-0.2-0.1-0.3-0.3-0.4-0.5
		c-0.1-0.2-0.2-0.5-0.2-0.8v-4.1h-1.3v-1h1.3v-2h1.5v2h1.5v1h-1.5v3.7c0,0.2,0,0.4,0.2,0.6c0.2,0.1,0.4,0.2,0.6,0.2h0.6h0.2v1.1
		L856.5,28.4z"/>
	<path class="st3" d="M867.7,28.4l-0.4,0.1h-0.4c-0.1,0-0.3,0-0.4,0c-0.1,0-0.2-0.1-0.3-0.2c-0.1-0.1-0.2-0.2-0.2-0.3
		c-0.1-0.1-0.1-0.3-0.1-0.5l0,0c-0.1,0.2-0.3,0.3-0.5,0.5c-0.2,0.1-0.3,0.2-0.5,0.3c-0.4,0.2-0.9,0.2-1.3,0.2
		c-0.6,0-1.2-0.1-1.6-0.5c-0.4-0.4-0.6-0.9-0.6-1.5c0-0.5,0.2-1.1,0.6-1.4c0.2-0.1,0.4-0.2,0.6-0.3c0.2-0.1,0.5-0.2,0.7-0.2
		c0.3-0.1,0.5-0.1,0.8-0.1l0.9-0.1l0.3-0.1c0.1,0,0.2-0.1,0.3-0.1c0.1-0.1,0.1-0.1,0.2-0.2c0-0.1,0.1-0.2,0.1-0.3
		c0-0.3-0.1-0.6-0.3-0.8c-0.6-0.4-1.4-0.4-2,0c-0.2,0.2-0.4,0.4-0.4,0.7h-1.5c0-0.3,0.1-0.6,0.3-0.9c0.2-0.2,0.4-0.5,0.6-0.6
		c0.3-0.2,0.6-0.3,0.9-0.4c0.4-0.1,0.8-0.1,1.1-0.1c0.7,0,1.4,0.1,2,0.5c0.4,0.3,0.7,0.9,0.7,1.4v3.5c0,0.1,0,0.2,0.1,0.3
		c0.1,0.1,0.2,0.1,0.3,0.1h0.1h0.1L867.7,28.4z M865.7,25L865.7,25c-0.2,0.1-0.3,0.2-0.5,0.2l-0.5,0.1l-0.7,0.1
		c-0.4,0-0.7,0.2-1,0.4c-0.2,0.2-0.3,0.4-0.3,0.7c0,0.3,0.1,0.6,0.4,0.8c0.3,0.2,0.6,0.3,0.9,0.2c0.5,0,0.9-0.1,1.3-0.4
		c0.3-0.3,0.5-0.8,0.5-1.2L865.7,25z"/>
	<path class="st3" d="M877.4,28.4v-4c0-0.2,0-0.4,0-0.6c0-0.2-0.1-0.3-0.2-0.5c-0.1-0.1-0.2-0.2-0.4-0.3c-0.2-0.1-0.4-0.1-0.6-0.1
		c-0.4,0-0.8,0.1-1.1,0.5c-0.3,0.4-0.4,0.9-0.3,1.4v3.7h-1.5v-4.2c0-0.4-0.1-0.7-0.3-1c-0.2-0.3-0.6-0.4-0.9-0.4
		c-0.4,0-0.8,0.2-1.1,0.5c-0.3,0.4-0.4,0.8-0.4,1.3v3.8h-1.5v-6.7h1.4v1l0,0c0.4-0.7,1.2-1.2,2.1-1.1c0.4,0,0.8,0.1,1.2,0.3
		c0.3,0.2,0.6,0.5,0.7,0.9c0.2-0.4,0.5-0.7,0.9-0.9c1-0.7,2.4-0.5,3.1,0.5c0.3,0.4,0.4,0.9,0.4,1.5v4.5L877.4,28.4z"/>
	<path class="st3" d="M883.6,21.6c0.5,0,0.9,0.1,1.3,0.3c0.4,0.2,0.7,0.4,1,0.8c0.3,0.3,0.5,0.7,0.6,1.1c0.1,0.4,0.2,0.9,0.2,1.4
		v0.3h-4.8c0,0.3,0,0.5,0.1,0.8c0.1,0.2,0.2,0.4,0.3,0.6c0.1,0.2,0.3,0.3,0.5,0.4c0.2,0.1,0.5,0.2,0.7,0.1c0.3,0,0.7-0.1,1-0.2
		c0.3-0.1,0.5-0.4,0.6-0.6h1.4c-0.1,0.3-0.3,0.6-0.5,0.8c-0.2,0.2-0.4,0.5-0.7,0.6c-0.3,0.2-0.5,0.3-0.8,0.4c-0.3,0.1-0.7,0.1-1,0.1
		c-0.5,0-0.9-0.1-1.3-0.3c-0.4-0.2-0.7-0.4-1-0.7c-0.3-0.3-0.5-0.7-0.6-1.1c-0.2-0.5-0.2-0.9-0.2-1.4c0-0.5,0.1-0.9,0.2-1.3
		c0.1-0.4,0.4-0.8,0.6-1.1c0.3-0.3,0.6-0.6,1-0.8C882.7,21.7,883.1,21.6,883.6,21.6z M885.2,24.5c0-0.2-0.1-0.5-0.2-0.7
		c-0.1-0.2-0.2-0.4-0.3-0.5c-0.1-0.2-0.3-0.3-0.5-0.4c-0.4-0.2-0.9-0.2-1.4,0c-0.2,0.1-0.4,0.2-0.5,0.4c-0.1,0.2-0.3,0.3-0.3,0.5
		c-0.1,0.2-0.1,0.5-0.2,0.7H885.2z"/>
	<path class="st3" d="M891.5,28.4h-0.8c-0.2,0-0.5,0-0.7-0.1c-0.2,0-0.4-0.1-0.6-0.2c-0.2-0.1-0.3-0.3-0.4-0.5
		c-0.1-0.2-0.2-0.5-0.2-0.8v-4.1h-1.3v-1h1.3v-2h1.5v2h1.5v1h-1.5v3.7c0,0.2,0,0.4,0.2,0.6c0.2,0.1,0.4,0.2,0.6,0.2h0.6h0.2v1.1
		L891.5,28.4z"/>
	<path class="st3" d="M894.7,26.7v1.7c0,0.4-0.1,0.8-0.4,1.1c-0.3,0.4-0.7,0.6-1.2,0.7v-0.7c0.2-0.1,0.4-0.2,0.6-0.4
		c0.1-0.2,0.2-0.4,0.2-0.6v-0.1H893v-1.6L894.7,26.7z"/>
	<path class="st3" d="M903,21.6c0.4,0,0.7,0,1.1,0.1c0.3,0.1,0.6,0.2,0.9,0.4c0.3,0.2,0.5,0.4,0.6,0.7c0.2,0.3,0.3,0.6,0.3,1h-1.4
		c0-0.3-0.2-0.6-0.5-0.8c-0.3-0.2-0.6-0.3-1-0.3c-0.3,0-0.6,0.1-0.8,0.2c-0.2,0.1-0.4,0.3-0.6,0.5c-0.2,0.2-0.3,0.5-0.3,0.8
		c-0.1,0.5-0.1,1.1,0,1.7c0.1,0.3,0.2,0.5,0.3,0.8c0.1,0.2,0.3,0.4,0.6,0.5c0.2,0.1,0.5,0.2,0.8,0.2c0.2,0,0.4,0,0.6-0.1
		c0.2-0.1,0.3-0.1,0.5-0.3c0.1-0.1,0.2-0.3,0.3-0.4c0.1-0.2,0.1-0.3,0.2-0.5h1.4c-0.1,0.3-0.2,0.7-0.3,1c-0.2,0.3-0.4,0.5-0.6,0.8
		c-0.3,0.2-0.6,0.4-0.9,0.5c-0.4,0.1-0.8,0.2-1.1,0.2c-0.5,0-0.9-0.1-1.3-0.2c-0.4-0.2-0.7-0.4-1-0.7c-0.3-0.3-0.5-0.7-0.7-1.1
		c-0.2-0.4-0.2-0.9-0.2-1.4c0-0.5,0.1-0.9,0.2-1.4c0.1-0.4,0.3-0.8,0.6-1.1c0.3-0.3,0.6-0.6,1-0.8C902.1,21.7,902.5,21.6,903,21.6z"
		/>
	<path class="st3" d="M913.8,25.1c0,0.5-0.1,0.9-0.2,1.4c-0.1,0.4-0.4,0.8-0.7,1.1c-0.3,0.3-0.6,0.6-1,0.7c-0.4,0.2-0.9,0.3-1.4,0.2
		c-0.9,0-1.8-0.3-2.4-1c-1.2-1.5-1.2-3.5,0-5c0.6-0.7,1.5-1,2.4-1c0.9,0,1.8,0.3,2.4,1C913.5,23.3,913.8,24.2,913.8,25.1z
		 M912.3,25.1c0-0.3,0-0.6-0.1-0.9c-0.1-0.3-0.2-0.5-0.3-0.8c-0.2-0.2-0.4-0.4-0.6-0.5c-0.3-0.1-0.5-0.2-0.8-0.2
		c-0.3,0-0.5,0.1-0.8,0.2c-0.2,0.1-0.4,0.3-0.6,0.5c-0.2,0.2-0.3,0.5-0.4,0.7c-0.2,0.6-0.2,1.3,0,1.9c0.1,0.3,0.2,0.5,0.3,0.7
		c0.2,0.2,0.4,0.4,0.6,0.5c0.2,0.1,0.5,0.2,0.8,0.2c0.3,0,0.5-0.1,0.8-0.2c0.2-0.1,0.4-0.3,0.6-0.5c0.2-0.2,0.3-0.5,0.4-0.7
		C912.3,25.7,912.3,25.4,912.3,25.1z"/>
	<path class="st3" d="M918.8,21.6c0.4,0,0.7,0,1.1,0.2c0.3,0.1,0.5,0.3,0.7,0.5c0.2,0.2,0.3,0.5,0.4,0.8c0.1,0.4,0.1,0.7,0.1,1.1
		v4.2h-1.4v-3.9c0-0.4-0.1-0.9-0.3-1.3c-0.2-0.3-0.6-0.5-1-0.4c-0.5,0-0.9,0.2-1.2,0.5c-0.3,0.4-0.4,0.9-0.4,1.5v3.6h-1.4v-6.6h1.4
		v1l0,0c0.1-0.2,0.2-0.4,0.4-0.5c0.1-0.1,0.3-0.3,0.5-0.4c0.2-0.1,0.4-0.2,0.6-0.2C918.4,21.6,918.6,21.6,918.8,21.6z"/>
	<path class="st3" d="M928.6,26.4c0,0.3-0.1,0.7-0.2,1c-0.1,0.3-0.4,0.5-0.6,0.7c-0.3,0.2-0.6,0.3-0.9,0.4c-0.4,0.1-0.7,0.1-1.1,0.1
		c-0.4,0-0.7,0-1.1-0.1c-0.3-0.1-0.6-0.2-0.9-0.4c-0.3-0.2-0.5-0.4-0.6-0.6c-0.2-0.3-0.3-0.6-0.3-0.9h1.4c0,0.3,0.2,0.6,0.5,0.8
		c0.1,0.1,0.3,0.2,0.5,0.2c0.2,0,0.4,0.1,0.6,0.1c0.2,0,0.4,0,0.5-0.1c0.2,0,0.3-0.1,0.5-0.2c0.1-0.1,0.2-0.2,0.3-0.3
		c0.1-0.1,0.1-0.3,0.1-0.4c0-0.1,0-0.2-0.1-0.4c-0.1-0.1-0.2-0.2-0.3-0.3c-0.1-0.1-0.3-0.1-0.4-0.2l-0.5-0.1l-0.9-0.2
		c-0.3-0.1-0.6-0.2-0.9-0.3c-0.2-0.1-0.4-0.2-0.6-0.4c-0.2-0.1-0.3-0.3-0.4-0.5c-0.1-0.2-0.1-0.4-0.1-0.6c0-0.3,0.1-0.6,0.2-0.9
		c0.1-0.3,0.3-0.5,0.6-0.6c0.3-0.2,0.6-0.3,0.9-0.4c0.4-0.1,0.7-0.1,1.1-0.1c0.4,0,0.7,0,1.1,0.1c0.3,0.1,0.6,0.2,0.8,0.4
		c0.2,0.2,0.4,0.4,0.5,0.6c0.1,0.2,0.2,0.5,0.2,0.8H927c-0.1-0.3-0.2-0.5-0.5-0.6c-0.3-0.2-0.6-0.2-0.9-0.2c-0.2,0-0.3,0-0.5,0
		c-0.1,0-0.3,0.1-0.4,0.1c-0.1,0.1-0.2,0.1-0.3,0.2c-0.1,0.1-0.1,0.2-0.1,0.4c0,0.1,0,0.2,0.1,0.4c0.1,0.1,0.2,0.2,0.3,0.2
		c0.1,0.1,0.2,0.1,0.3,0.2l0.4,0.1l1.4,0.3c0.2,0.1,0.5,0.1,0.7,0.2c0.2,0.1,0.4,0.2,0.5,0.3c0.2,0.1,0.3,0.3,0.4,0.5
		C928.6,25.9,928.6,26.1,928.6,26.4z"/>
	<path class="st3" d="M932.9,21.6c0.5,0,0.9,0.1,1.3,0.3c0.4,0.2,0.7,0.4,1,0.8c0.3,0.3,0.5,0.7,0.6,1.1c0.1,0.4,0.2,0.9,0.2,1.4
		v0.3h-4.8c0,0.3,0,0.5,0.1,0.8c0.1,0.2,0.2,0.4,0.3,0.6c0.1,0.2,0.3,0.3,0.5,0.4c0.2,0.1,0.5,0.2,0.7,0.1c0.3,0,0.7-0.1,1-0.2
		c0.3-0.1,0.5-0.4,0.6-0.6h1.4c-0.1,0.3-0.3,0.6-0.5,0.8c-0.2,0.2-0.4,0.5-0.7,0.6c-0.3,0.2-0.5,0.3-0.8,0.4c-0.3,0.1-0.7,0.1-1,0.1
		c-0.5,0-0.9-0.1-1.3-0.3c-0.4-0.2-0.7-0.4-1-0.7c-0.3-0.3-0.5-0.7-0.6-1.1c-0.2-0.5-0.2-0.9-0.2-1.4c0-0.5,0.1-0.9,0.2-1.3
		c0.1-0.4,0.4-0.8,0.6-1.1c0.3-0.3,0.6-0.6,1-0.8C932,21.7,932.5,21.6,932.9,21.6z M934.5,24.5c0-0.2-0.1-0.5-0.2-0.7
		c-0.1-0.2-0.2-0.4-0.3-0.5c-0.1-0.2-0.3-0.3-0.5-0.4c-0.4-0.2-0.9-0.2-1.4,0c-0.2,0.1-0.4,0.2-0.5,0.4c-0.1,0.2-0.3,0.3-0.3,0.5
		c-0.1,0.2-0.1,0.5-0.2,0.7H934.5z"/>
	<path class="st3" d="M940.5,21.6c0.4,0,0.7,0,1.1,0.1c0.3,0.1,0.6,0.2,0.9,0.4c0.3,0.2,0.5,0.4,0.6,0.7c0.2,0.3,0.3,0.6,0.3,1H942
		c0-0.3-0.2-0.6-0.5-0.8c-0.3-0.2-0.6-0.3-1-0.3c-0.3,0-0.6,0.1-0.8,0.2c-0.2,0.1-0.4,0.3-0.6,0.5c-0.2,0.2-0.3,0.5-0.3,0.8
		c-0.1,0.5-0.1,1.1,0,1.7c0.1,0.3,0.2,0.5,0.3,0.8c0.1,0.2,0.3,0.4,0.6,0.5c0.2,0.1,0.5,0.2,0.8,0.2c0.2,0,0.4,0,0.6-0.1
		c0.2-0.1,0.3-0.1,0.5-0.3c0.1-0.1,0.2-0.3,0.3-0.4c0.1-0.2,0.1-0.3,0.2-0.5h1.4c-0.1,0.3-0.2,0.7-0.3,1c-0.2,0.3-0.4,0.5-0.6,0.8
		c-0.3,0.2-0.6,0.4-0.9,0.5c-0.4,0.1-0.8,0.2-1.1,0.2c-0.5,0-0.9-0.1-1.3-0.2c-0.4-0.2-0.7-0.4-1-0.7c-0.3-0.3-0.5-0.7-0.7-1.1
		c-0.2-0.4-0.2-0.9-0.2-1.4c0-0.5,0.1-0.9,0.2-1.4c0.1-0.4,0.3-0.8,0.6-1.1c0.3-0.3,0.6-0.6,1-0.8C939.6,21.7,940,21.6,940.5,21.6z"
		/>
	<path class="st3" d="M948.2,28.4h-0.8c-0.2,0-0.5,0-0.7-0.1c-0.2,0-0.4-0.1-0.6-0.2c-0.2-0.1-0.3-0.3-0.4-0.5
		c-0.1-0.2-0.2-0.5-0.2-0.8v-4.1h-1.3v-1h1.3v-2h1.5v2h1.5v1H947v3.7c0,0.2,0,0.4,0.2,0.6c0.2,0.1,0.4,0.2,0.6,0.2h0.6h0.2v1.1
		L948.2,28.4z"/>
	<path class="st3" d="M952.6,21.6c0.5,0,0.9,0.1,1.3,0.3c0.4,0.2,0.7,0.4,1,0.8c0.3,0.3,0.5,0.7,0.6,1.1c0.1,0.4,0.2,0.9,0.2,1.4
		v0.3h-4.8c0,0.3,0,0.5,0.1,0.8c0.1,0.2,0.2,0.4,0.3,0.6c0.1,0.2,0.3,0.3,0.5,0.4c0.2,0.1,0.5,0.2,0.7,0.1c0.3,0,0.7-0.1,1-0.2
		c0.3-0.1,0.5-0.4,0.6-0.6h1.4c-0.1,0.3-0.3,0.6-0.5,0.8c-0.2,0.2-0.4,0.5-0.7,0.6c-0.3,0.2-0.5,0.3-0.8,0.4c-0.3,0.1-0.7,0.1-1,0.1
		c-0.5,0-0.9-0.1-1.3-0.3c-0.4-0.2-0.7-0.4-1-0.7c-0.3-0.3-0.5-0.7-0.6-1.1c-0.2-0.5-0.2-0.9-0.2-1.4c0-0.5,0.1-0.9,0.2-1.3
		c0.1-0.4,0.4-0.8,0.6-1.1c0.3-0.3,0.6-0.6,1-0.8C951.7,21.7,952.2,21.6,952.6,21.6z M954.2,24.5c0-0.2-0.1-0.5-0.2-0.7
		c-0.1-0.2-0.2-0.4-0.3-0.5c-0.1-0.2-0.3-0.3-0.5-0.4c-0.4-0.2-0.9-0.2-1.4,0c-0.2,0.1-0.4,0.2-0.5,0.4c-0.1,0.2-0.3,0.3-0.3,0.5
		c-0.1,0.2-0.1,0.5-0.2,0.7H954.2z"/>
	<path class="st3" d="M960.5,28.4h-0.8c-0.2,0-0.5,0-0.7-0.1c-0.2,0-0.4-0.1-0.6-0.2c-0.2-0.1-0.3-0.3-0.4-0.5
		c-0.1-0.2-0.2-0.5-0.2-0.8v-4.1h-1.3v-1h1.3v-2h1.5v2h1.5v1h-1.5v3.7c0,0.2,0,0.4,0.2,0.6c0.2,0.1,0.4,0.2,0.6,0.2h0.6h0.2v1.1
		L960.5,28.4z"/>
	<path class="st3" d="M966.6,28.4v-1l0,0c-0.1,0.2-0.2,0.4-0.4,0.5c-0.1,0.1-0.3,0.3-0.5,0.4c-0.2,0.1-0.4,0.2-0.6,0.2
		c-0.2,0.1-0.4,0.1-0.6,0.1c-0.7,0.1-1.3-0.2-1.8-0.6c-0.4-0.6-0.6-1.3-0.6-2v-4.2h1.4v4c0,0.2,0,0.5,0.1,0.7c0,0.2,0.1,0.4,0.2,0.5
		c0.1,0.1,0.3,0.3,0.4,0.3c0.4,0.2,0.9,0.2,1.4,0c0.2-0.1,0.4-0.2,0.5-0.4c0.1-0.2,0.2-0.4,0.3-0.7c0.1-0.3,0.1-0.6,0.1-0.9v-3.5
		h1.5v6.6L966.6,28.4z"/>
	<path class="st3" d="M972.7,21.6c0.5,0,0.9,0.1,1.3,0.3c0.4,0.2,0.7,0.4,1,0.8c0.3,0.3,0.5,0.7,0.6,1.1c0.1,0.4,0.2,0.9,0.2,1.4
		v0.3H971c0,0.3,0,0.5,0.1,0.8c0.1,0.2,0.2,0.4,0.3,0.6c0.1,0.2,0.3,0.3,0.5,0.4c0.2,0.1,0.5,0.2,0.7,0.1c0.3,0,0.7-0.1,1-0.2
		c0.3-0.1,0.5-0.4,0.6-0.6h1.4c-0.1,0.3-0.3,0.6-0.5,0.8c-0.2,0.2-0.4,0.5-0.7,0.6c-0.3,0.2-0.5,0.3-0.8,0.4c-0.3,0.1-0.7,0.1-1,0.1
		c-0.5,0-0.9-0.1-1.3-0.3c-0.4-0.2-0.7-0.4-1-0.7c-0.3-0.3-0.5-0.7-0.6-1.1c-0.2-0.5-0.2-0.9-0.2-1.4c0-0.5,0.1-0.9,0.2-1.3
		c0.1-0.4,0.4-0.8,0.6-1.1c0.3-0.3,0.6-0.6,1-0.8C971.8,21.7,972.3,21.6,972.7,21.6z M974.3,24.5c0-0.2-0.1-0.5-0.2-0.7
		c-0.1-0.2-0.2-0.4-0.3-0.5c-0.1-0.2-0.3-0.3-0.5-0.4c-0.4-0.2-0.9-0.2-1.4,0c-0.2,0.1-0.4,0.2-0.5,0.4c-0.1,0.2-0.3,0.3-0.3,0.5
		c-0.1,0.2-0.1,0.5-0.2,0.7H974.3z"/>
	<path class="st3" d="M977.3,28.4v-6.6h1.4v1.3l0,0c0.2-0.4,0.5-0.8,0.9-1.1c0.4-0.3,0.8-0.4,1.3-0.4h0.2h0.2V23H981h-0.3
		c-0.6,0-1.1,0.2-1.5,0.6c-0.4,0.4-0.5,1-0.5,1.6v3.2L977.3,28.4z"/>
	<path class="st3" d="M992,28.4l-0.4,0.1h-0.4c-0.1,0-0.3,0-0.4,0c-0.1,0-0.2-0.1-0.3-0.2c-0.1-0.1-0.2-0.2-0.2-0.3
		c-0.1-0.1-0.1-0.3-0.1-0.5l0,0c-0.1,0.2-0.3,0.3-0.5,0.5c-0.2,0.1-0.3,0.2-0.5,0.3c-0.4,0.2-0.9,0.2-1.3,0.2
		c-0.6,0-1.2-0.1-1.6-0.5c-0.4-0.4-0.6-0.9-0.6-1.5c0-0.5,0.2-1.1,0.6-1.4c0.2-0.1,0.4-0.2,0.6-0.3c0.2-0.1,0.5-0.2,0.7-0.2
		c0.3-0.1,0.5-0.1,0.8-0.1l0.9-0.1l0.3-0.1c0.1,0,0.2-0.1,0.3-0.1c0.1-0.1,0.1-0.1,0.2-0.2c0-0.1,0.1-0.2,0.1-0.3
		c0-0.3-0.1-0.6-0.3-0.8c-0.6-0.4-1.4-0.4-2,0c-0.2,0.2-0.4,0.4-0.4,0.7h-1.5c0-0.3,0.1-0.6,0.3-0.9c0.2-0.2,0.4-0.5,0.6-0.6
		c0.3-0.2,0.6-0.3,0.9-0.4c0.4-0.1,0.8-0.1,1.1-0.1c0.7,0,1.4,0.1,2,0.5c0.4,0.3,0.7,0.9,0.7,1.4v3.5c0,0.1,0,0.2,0.1,0.3
		c0.1,0.1,0.2,0.1,0.3,0.1h0.1h0.1L992,28.4z M990,25L990,25c-0.2,0.1-0.3,0.2-0.5,0.2l-0.5,0.1l-0.7,0.1c-0.4,0-0.7,0.2-1,0.4
		c-0.2,0.2-0.3,0.4-0.3,0.7c0,0.3,0.1,0.6,0.4,0.8c0.3,0.2,0.6,0.3,0.9,0.2c0.5,0,0.9-0.1,1.3-0.4c0.3-0.3,0.5-0.8,0.5-1.2L990,25z"
		/>
	<path class="st3" d="M999.5,19.3v9.1h-1.4v-1l0,0c-0.1,0.2-0.2,0.4-0.4,0.5c-0.1,0.1-0.3,0.3-0.5,0.4c-0.2,0.1-0.4,0.2-0.6,0.2
		c-0.2,0.1-0.4,0.1-0.7,0.1c-0.4,0-0.9-0.1-1.3-0.3c-0.4-0.2-0.7-0.4-0.9-0.8c-0.3-0.3-0.4-0.7-0.6-1.1c-0.1-0.4-0.2-0.9-0.2-1.3
		c0-0.4,0.1-0.9,0.2-1.3c0.1-0.4,0.3-0.8,0.5-1.1c0.2-0.3,0.6-0.6,0.9-0.8c0.6-0.3,1.3-0.4,1.9-0.2c0.2,0,0.4,0.1,0.6,0.2
		c0.2,0.1,0.3,0.2,0.5,0.4c0.1,0.1,0.3,0.3,0.4,0.5l0,0v-3.5H999.5z M994.5,25.1c0,0.3,0,0.6,0.1,0.8c0.1,0.3,0.2,0.5,0.3,0.8
		c0.1,0.2,0.3,0.4,0.6,0.6c0.2,0.2,0.5,0.2,0.8,0.2c0.3,0,0.5-0.1,0.8-0.2c0.2-0.1,0.4-0.3,0.6-0.5c0.2-0.2,0.3-0.5,0.4-0.8
		c0.1-0.3,0.1-0.7,0.1-1c0-0.3,0-0.6-0.1-0.8c-0.1-0.3-0.2-0.5-0.3-0.8c-0.1-0.2-0.3-0.4-0.6-0.5c-0.3-0.1-0.6-0.2-0.8-0.2
		c-0.3,0-0.6,0.1-0.8,0.2c-0.2,0.1-0.4,0.3-0.5,0.5c-0.1,0.2-0.3,0.5-0.3,0.8C994.5,24.4,994.5,24.8,994.5,25.1L994.5,25.1z"/>
	<path class="st3" d="M1002.9,18.9v1.4h-1.5v-1.4H1002.9z M1002.9,21.8v6.6h-1.5v-6.6H1002.9z"/>
	<path class="st3" d="M1011.3,25.1c0,0.3,0,0.6-0.1,0.9c0,0.3-0.1,0.5-0.2,0.8c-0.1,0.3-0.2,0.5-0.4,0.7c-0.2,0.2-0.4,0.4-0.6,0.6
		c-0.2,0.2-0.5,0.3-0.7,0.4c-0.3,0.1-0.6,0.1-0.9,0.1c-0.2,0-0.4,0-0.6-0.1c-0.2,0-0.4-0.1-0.6-0.2c-0.2-0.1-0.4-0.2-0.5-0.4
		c-0.2-0.1-0.3-0.3-0.4-0.5l0,0v3.3h-1.4v-8.9h1.4v1l0,0c0.2-0.4,0.5-0.7,0.9-0.9c0.4-0.2,0.8-0.3,1.2-0.3c0.5,0,0.9,0.1,1.3,0.3
		c0.4,0.2,0.7,0.4,0.9,0.8c0.3,0.3,0.4,0.7,0.5,1.1C1011.2,24.2,1011.3,24.7,1011.3,25.1z M1009.8,25.1c0-0.3,0-0.6-0.1-0.8
		c-0.1-0.3-0.2-0.5-0.3-0.8c-0.1-0.2-0.3-0.4-0.6-0.6c-0.3-0.2-0.6-0.2-0.8-0.2c-0.5,0-1,0.2-1.3,0.6c-0.3,0.5-0.5,1.1-0.5,1.8
		c0,0.3,0,0.6,0.1,0.8c0.1,0.3,0.2,0.5,0.3,0.8c0.1,0.2,0.3,0.4,0.6,0.5c0.3,0.1,0.6,0.2,0.8,0.2c0.5,0,1-0.2,1.3-0.7
		c0.2-0.2,0.3-0.5,0.3-0.7C1009.8,25.8,1009.9,25.4,1009.8,25.1L1009.8,25.1z"/>
	<path class="st3" d="M1014.4,18.9v1.4h-1.5v-1.4H1014.4z M1014.4,21.8v6.6h-1.5v-6.6H1014.4z"/>
	<path class="st3" d="M1021.8,26.4c0,0.3-0.1,0.7-0.2,1c-0.1,0.3-0.4,0.5-0.6,0.7c-0.3,0.2-0.6,0.3-0.9,0.4
		c-0.4,0.1-0.7,0.1-1.1,0.1c-0.4,0-0.7,0-1.1-0.1c-0.3-0.1-0.6-0.2-0.9-0.4c-0.3-0.2-0.5-0.4-0.6-0.6c-0.2-0.3-0.3-0.6-0.3-0.9h1.4
		c0,0.3,0.2,0.6,0.5,0.8c0.1,0.1,0.3,0.2,0.5,0.2c0.2,0,0.4,0.1,0.6,0.1c0.2,0,0.4,0,0.5-0.1c0.2,0,0.3-0.1,0.5-0.2
		c0.1-0.1,0.2-0.2,0.3-0.3c0.1-0.1,0.1-0.3,0.1-0.4c0-0.1,0-0.2-0.1-0.4c-0.1-0.1-0.2-0.2-0.3-0.3c-0.1-0.1-0.3-0.1-0.4-0.2
		l-0.5-0.1l-0.9-0.2c-0.3-0.1-0.6-0.2-0.9-0.3c-0.2-0.1-0.4-0.2-0.6-0.4c-0.2-0.1-0.3-0.3-0.4-0.5c-0.1-0.2-0.1-0.4-0.1-0.6
		c0-0.3,0.1-0.6,0.2-0.9c0.1-0.3,0.3-0.5,0.6-0.6c0.3-0.2,0.6-0.3,0.9-0.4c0.4-0.1,0.7-0.1,1.1-0.1c0.4,0,0.7,0,1.1,0.1
		c0.3,0.1,0.6,0.2,0.8,0.4c0.2,0.2,0.4,0.4,0.5,0.6c0.1,0.2,0.2,0.5,0.2,0.8h-1.4c-0.1-0.3-0.2-0.5-0.5-0.6
		c-0.3-0.2-0.6-0.2-0.9-0.2c-0.2,0-0.3,0-0.5,0c-0.1,0-0.3,0.1-0.4,0.1c-0.1,0.1-0.2,0.1-0.3,0.2c-0.1,0.1-0.1,0.2-0.1,0.4
		c0,0.1,0,0.2,0.1,0.4c0.1,0.1,0.2,0.2,0.3,0.2c0.1,0.1,0.2,0.1,0.3,0.2l0.4,0.1l1.4,0.3c0.2,0.1,0.5,0.1,0.7,0.2
		c0.2,0.1,0.4,0.2,0.5,0.3c0.2,0.1,0.3,0.3,0.4,0.5C1021.7,25.9,1021.8,26.1,1021.8,26.4z"/>
	<path class="st3" d="M1026.2,21.6c0.4,0,0.7,0,1.1,0.1c0.3,0.1,0.6,0.2,0.9,0.4c0.3,0.2,0.5,0.4,0.6,0.7c0.2,0.3,0.3,0.6,0.3,1
		h-1.4c0-0.3-0.2-0.6-0.5-0.8c-0.3-0.2-0.6-0.3-1-0.3c-0.3,0-0.6,0.1-0.8,0.2c-0.2,0.1-0.4,0.3-0.6,0.5c-0.2,0.2-0.3,0.5-0.3,0.8
		c-0.1,0.5-0.1,1.1,0,1.7c0.1,0.3,0.2,0.5,0.3,0.8c0.1,0.2,0.3,0.4,0.6,0.5c0.2,0.1,0.5,0.2,0.8,0.2c0.2,0,0.4,0,0.6-0.1
		c0.2-0.1,0.3-0.1,0.5-0.3c0.1-0.1,0.2-0.3,0.3-0.4c0.1-0.2,0.1-0.3,0.2-0.5h1.4c-0.1,0.3-0.2,0.7-0.3,1c-0.2,0.3-0.4,0.5-0.6,0.8
		c-0.3,0.2-0.6,0.4-0.9,0.5c-0.4,0.1-0.8,0.2-1.1,0.2c-0.5,0-0.9-0.1-1.3-0.2c-0.4-0.2-0.7-0.4-1-0.7c-0.3-0.3-0.5-0.7-0.7-1.1
		c-0.2-0.4-0.2-0.9-0.2-1.4c0-0.5,0.1-0.9,0.2-1.4c0.1-0.4,0.3-0.8,0.6-1.1c0.3-0.3,0.6-0.6,1-0.8
		C1025.3,21.7,1025.8,21.6,1026.2,21.6z"/>
	<path class="st3" d="M1032.2,18.9v1.4h-1.4v-1.4H1032.2z M1032.2,21.8v6.6h-1.4v-6.6H1032.2z"/>
	<path class="st3" d="M1037.6,21.6c0.4,0,0.7,0,1.1,0.2c0.3,0.1,0.5,0.3,0.7,0.5c0.2,0.2,0.3,0.5,0.4,0.8c0.1,0.4,0.1,0.7,0.1,1.1
		v4.2h-1.4v-3.9c0-0.4-0.1-0.9-0.3-1.3c-0.2-0.3-0.6-0.5-1-0.4c-0.5,0-0.9,0.2-1.2,0.5c-0.3,0.4-0.4,0.9-0.4,1.5v3.6h-1.4v-6.6h1.4
		v1l0,0c0.1-0.2,0.2-0.4,0.4-0.5c0.1-0.1,0.3-0.3,0.5-0.4c0.2-0.1,0.4-0.2,0.6-0.2C1037.2,21.6,1037.4,21.6,1037.6,21.6z"/>
	<path class="st3" d="M1044.5,21.6c0.4,0,0.8,0.1,1.2,0.3c0.3,0.2,0.6,0.5,0.8,0.9l0,0v-1h1.4V28c0,0.4-0.1,0.9-0.2,1.3
		c-0.1,0.4-0.4,0.7-0.7,0.9c-0.3,0.2-0.6,0.4-1,0.5c-0.4,0.1-0.9,0.2-1.3,0.2c-0.3,0-0.7,0-1-0.1c-0.3-0.1-0.6-0.2-0.9-0.3
		c-0.3-0.1-0.5-0.4-0.7-0.6c-0.2-0.3-0.3-0.6-0.3-0.9h1.4c0.1,0.3,0.2,0.5,0.5,0.7c0.3,0.2,0.7,0.2,1,0.2c0.5,0,0.9-0.1,1.3-0.5
		c0.3-0.4,0.5-0.9,0.4-1.4v-1l0,0c-0.2,0.4-0.5,0.6-0.8,0.8c-0.4,0.2-0.8,0.3-1.2,0.3c-0.4,0-0.9-0.1-1.3-0.2
		c-0.3-0.2-0.6-0.4-0.9-0.7c-0.2-0.3-0.4-0.6-0.5-1c-0.1-0.4-0.2-0.9-0.2-1.3c0-0.4,0.1-0.8,0.2-1.2c0.1-0.4,0.3-0.7,0.5-1
		c0.2-0.3,0.6-0.5,0.9-0.7C1043.6,21.8,1044.1,21.7,1044.5,21.6z M1043.1,24.9c0,0.3,0,0.6,0.1,0.9c0.1,0.2,0.2,0.5,0.3,0.7
		c0.1,0.2,0.3,0.3,0.5,0.4c0.2,0.1,0.5,0.2,0.7,0.2c0.3,0,0.5-0.1,0.8-0.2c0.2-0.1,0.4-0.3,0.6-0.5c0.2-0.2,0.3-0.4,0.3-0.7
		c0.1-0.3,0.1-0.5,0.1-0.8c0-0.3,0-0.6-0.1-0.9c-0.1-0.3-0.2-0.5-0.3-0.7c-0.1-0.2-0.3-0.4-0.6-0.5c-0.2-0.1-0.5-0.2-0.8-0.2
		c-0.3,0-0.5,0.1-0.8,0.2c-0.2,0.1-0.4,0.3-0.5,0.5c-0.1,0.2-0.2,0.4-0.3,0.7C1043.1,24.3,1043.1,24.6,1043.1,24.9L1043.1,24.9z"/>
	<path class="st3" d="M1056.2,21.6c0.5,0,0.9,0.1,1.3,0.3c0.4,0.2,0.7,0.4,1,0.8c0.3,0.3,0.5,0.7,0.6,1.1c0.1,0.4,0.2,0.9,0.2,1.4
		v0.3h-4.8c0,0.3,0,0.5,0.1,0.8c0.1,0.2,0.2,0.4,0.3,0.6c0.1,0.2,0.3,0.3,0.5,0.4c0.2,0.1,0.5,0.2,0.7,0.1c0.3,0,0.7-0.1,1-0.2
		c0.3-0.1,0.5-0.4,0.6-0.6h1.4c-0.1,0.3-0.3,0.6-0.4,0.8c-0.2,0.2-0.4,0.5-0.7,0.6c-0.3,0.2-0.5,0.3-0.8,0.4c-0.3,0.1-0.7,0.1-1,0.1
		c-0.5,0-0.9-0.1-1.3-0.3c-0.4-0.2-0.7-0.4-1-0.7c-0.3-0.3-0.5-0.7-0.6-1.1c-0.2-0.5-0.2-0.9-0.2-1.4c0-0.5,0.1-0.9,0.2-1.3
		c0.1-0.4,0.4-0.8,0.6-1.1c0.3-0.3,0.6-0.6,1-0.8C1055.3,21.7,1055.8,21.6,1056.2,21.6z M1057.8,24.5c0-0.2-0.1-0.5-0.2-0.7
		c-0.1-0.2-0.2-0.4-0.3-0.5c-0.1-0.2-0.3-0.3-0.5-0.4c-0.4-0.2-0.9-0.2-1.4,0c-0.2,0.1-0.4,0.2-0.5,0.4c-0.1,0.2-0.3,0.3-0.3,0.5
		c-0.1,0.2-0.1,0.5-0.2,0.7H1057.8z"/>
	<path class="st3" d="M1062.3,19.3v9.1h-1.4v-9.1H1062.3z"/>
	<path class="st3" d="M1065.7,18.9v1.4h-1.4v-1.4H1065.7z M1065.7,21.8v6.6h-1.4v-6.6H1065.7z"/>
	<path class="st3" d="M1071,28.4h-0.8c-0.2,0-0.5,0-0.7-0.1c-0.2,0-0.4-0.1-0.6-0.2c-0.2-0.1-0.3-0.3-0.4-0.5
		c-0.1-0.2-0.2-0.5-0.2-0.8v-4.1h-1.3v-1h1.3v-2h1.4v2h1.5v1h-1.5v3.7c0,0.2,0,0.4,0.2,0.6c0.2,0.1,0.4,0.2,0.6,0.2h0.6h0.2v1.1
		L1071,28.4z"/>
	<path class="st3" d="M1074.2,26.7v1.6h-1.6v-1.6H1074.2z"/>
	<path class="st3" d="M1086,25.9c0,0.4-0.1,0.8-0.3,1.2c-0.2,0.3-0.5,0.6-0.8,0.8c-0.3,0.2-0.7,0.4-1.1,0.5
		c-0.4,0.1-0.9,0.2-1.3,0.1c-0.5,0-0.9-0.1-1.4-0.2c-0.4-0.1-0.8-0.3-1.1-0.5c-0.3-0.2-0.6-0.5-0.7-0.8c-0.2-0.4-0.3-0.8-0.3-1.1
		v-0.1h1.5v0c0,0.2,0,0.5,0.2,0.7c0.1,0.2,0.3,0.4,0.4,0.5c0.2,0.1,0.4,0.2,0.7,0.3c0.5,0.1,1.1,0.1,1.6,0c0.2,0,0.4-0.1,0.6-0.2
		c0.2-0.1,0.3-0.2,0.4-0.4c0.1-0.2,0.2-0.4,0.2-0.6c0-0.3-0.1-0.6-0.4-0.8c-0.3-0.2-0.7-0.4-1.2-0.5l-1.8-0.5
		c-0.5-0.1-1-0.4-1.4-0.8c-0.3-0.4-0.5-0.9-0.5-1.4c0-0.4,0.1-0.8,0.3-1.1c0.2-0.3,0.4-0.6,0.7-0.8c0.3-0.2,0.6-0.4,1-0.5
		c0.4-0.1,0.8-0.2,1.2-0.2c0.4,0,0.8,0,1.2,0.1c0.4,0.1,0.7,0.2,1,0.5c0.3,0.2,0.5,0.5,0.7,0.8c0.2,0.3,0.3,0.7,0.3,1.1h-1.5
		c0-0.2-0.1-0.4-0.2-0.5c-0.1-0.2-0.2-0.3-0.4-0.4c-0.2-0.1-0.4-0.2-0.6-0.3c-0.2-0.1-0.5-0.1-0.7-0.1c-0.2,0-0.5,0-0.7,0.1
		c-0.2,0-0.4,0.1-0.6,0.2c-0.2,0.1-0.3,0.2-0.4,0.4c-0.1,0.2-0.1,0.4-0.1,0.5c0,0.1,0,0.3,0.1,0.4c0,0.1,0.1,0.2,0.2,0.3
		c0.1,0.1,0.2,0.1,0.3,0.2c0.1,0.1,0.3,0.1,0.4,0.1l2,0.5c0.6,0.1,1.2,0.4,1.7,0.9C1085.8,24.8,1086,25.3,1086,25.9z"/>
	<path class="st3" d="M1090.2,21.6c0.5,0,0.9,0.1,1.3,0.3c0.4,0.2,0.7,0.4,1,0.8c0.3,0.3,0.5,0.7,0.6,1.1c0.1,0.4,0.2,0.9,0.2,1.4
		v0.3h-4.8c0,0.3,0,0.5,0.1,0.8c0.1,0.2,0.2,0.4,0.3,0.6c0.1,0.2,0.3,0.3,0.5,0.4c0.2,0.1,0.5,0.2,0.7,0.1c0.3,0,0.7-0.1,1-0.2
		c0.3-0.1,0.5-0.4,0.6-0.6h1.4c-0.1,0.3-0.3,0.6-0.4,0.8c-0.2,0.2-0.4,0.5-0.7,0.6c-0.3,0.2-0.5,0.3-0.8,0.4c-0.3,0.1-0.7,0.1-1,0.1
		c-0.5,0-0.9-0.1-1.3-0.3c-0.4-0.2-0.7-0.4-1-0.7c-0.3-0.3-0.5-0.7-0.6-1.1c-0.2-0.5-0.2-0.9-0.2-1.4c0-0.5,0.1-0.9,0.2-1.3
		c0.1-0.4,0.4-0.8,0.6-1.1c0.3-0.3,0.6-0.6,1-0.8C1089.4,21.7,1089.8,21.6,1090.2,21.6z M1091.9,24.5c0-0.2-0.1-0.5-0.2-0.7
		c-0.1-0.2-0.2-0.4-0.3-0.5c-0.1-0.2-0.3-0.3-0.5-0.4c-0.4-0.2-0.9-0.2-1.4,0c-0.2,0.1-0.4,0.2-0.5,0.4c-0.1,0.2-0.3,0.3-0.3,0.5
		c-0.1,0.2-0.1,0.5-0.2,0.7H1091.9z"/>
	<path class="st3" d="M1101,19.3v9.1h-1.4v-1l0,0c-0.1,0.2-0.2,0.4-0.4,0.5c-0.1,0.1-0.3,0.3-0.5,0.4c-0.2,0.1-0.4,0.2-0.6,0.2
		c-0.2,0.1-0.4,0.1-0.7,0.1c-0.4,0-0.9-0.1-1.3-0.3c-0.4-0.2-0.7-0.4-0.9-0.8c-0.3-0.3-0.4-0.7-0.6-1.1c-0.1-0.4-0.2-0.9-0.2-1.3
		c0-0.4,0.1-0.9,0.2-1.3c0.1-0.4,0.3-0.8,0.5-1.1c0.2-0.3,0.6-0.6,0.9-0.8c0.6-0.3,1.3-0.4,1.9-0.2c0.2,0,0.4,0.1,0.6,0.2
		c0.2,0.1,0.3,0.2,0.5,0.4c0.1,0.1,0.3,0.3,0.4,0.5l0,0v-3.5H1101z M1096,25.1c0,0.3,0,0.6,0.1,0.8c0.1,0.3,0.2,0.5,0.3,0.8
		c0.1,0.2,0.3,0.4,0.6,0.6c0.2,0.2,0.5,0.2,0.8,0.2c0.3,0,0.5-0.1,0.8-0.2c0.2-0.1,0.4-0.3,0.6-0.5c0.2-0.2,0.3-0.5,0.3-0.8
		c0.1-0.3,0.1-0.7,0.1-1c0-0.3,0-0.6-0.1-0.8c-0.1-0.3-0.2-0.5-0.3-0.8c-0.1-0.2-0.3-0.4-0.6-0.5c-0.3-0.1-0.6-0.2-0.8-0.2
		c-0.3,0-0.6,0.1-0.8,0.2c-0.2,0.1-0.4,0.3-0.6,0.5c-0.1,0.2-0.3,0.5-0.3,0.8C1096,24.5,1096,24.8,1096,25.1L1096,25.1z"/>
	<path class="st3" d="M1112.8,25.1c0,0.3,0,0.6-0.1,0.9c0,0.3-0.1,0.5-0.2,0.8c-0.1,0.3-0.2,0.5-0.4,0.7c-0.2,0.2-0.4,0.4-0.6,0.6
		c-0.2,0.2-0.5,0.3-0.7,0.4c-0.3,0.1-0.6,0.1-0.9,0.1c-0.2,0-0.4,0-0.6-0.1c-0.2,0-0.4-0.1-0.6-0.2c-0.2-0.1-0.4-0.2-0.5-0.4
		c-0.2-0.1-0.3-0.3-0.4-0.5l0,0v3.3h-1.4v-8.9h1.4v1l0,0c0.2-0.4,0.5-0.7,0.9-0.9c0.4-0.2,0.8-0.3,1.2-0.3c0.5,0,0.9,0.1,1.3,0.3
		c0.4,0.2,0.7,0.4,0.9,0.8c0.3,0.3,0.4,0.7,0.6,1.1C1112.8,24.2,1112.8,24.7,1112.8,25.1z M1111.4,25.1c0-0.3,0-0.6-0.1-0.8
		c-0.1-0.3-0.2-0.5-0.3-0.8c-0.1-0.2-0.3-0.4-0.6-0.6c-0.3-0.2-0.6-0.2-0.8-0.2c-0.5,0-1,0.2-1.3,0.6c-0.3,0.5-0.5,1.1-0.5,1.8
		c0,0.3,0,0.6,0.1,0.8c0.1,0.3,0.2,0.5,0.3,0.8c0.1,0.2,0.3,0.4,0.6,0.5c0.3,0.1,0.6,0.2,0.8,0.2c0.5,0,1-0.2,1.3-0.7
		c0.2-0.2,0.3-0.5,0.3-0.7C1111.4,25.8,1111.4,25.4,1111.4,25.1L1111.4,25.1z"/>
	<path class="st3" d="M1120.7,25.1c0,0.5-0.1,0.9-0.2,1.4c-0.1,0.4-0.4,0.8-0.7,1.1c-0.3,0.3-0.6,0.6-1,0.7
		c-0.4,0.2-0.9,0.3-1.4,0.2c-0.9,0-1.8-0.3-2.4-1c-1.2-1.5-1.2-3.5,0-5c0.6-0.7,1.5-1,2.4-1c0.9,0,1.8,0.3,2.4,1
		C1120.5,23.3,1120.8,24.2,1120.7,25.1z M1119.3,25.1c0-0.3,0-0.6-0.1-0.9c-0.1-0.3-0.2-0.5-0.3-0.8c-0.2-0.2-0.4-0.4-0.6-0.5
		c-0.3-0.1-0.5-0.2-0.8-0.2c-0.3,0-0.5,0.1-0.8,0.2c-0.2,0.1-0.4,0.3-0.6,0.5c-0.2,0.2-0.3,0.5-0.4,0.7c-0.2,0.6-0.2,1.3,0,1.9
		c0.1,0.3,0.2,0.5,0.3,0.7c0.2,0.2,0.4,0.4,0.6,0.5c0.2,0.1,0.5,0.2,0.8,0.2c0.3,0,0.5-0.1,0.8-0.2c0.2-0.1,0.4-0.3,0.6-0.5
		c0.2-0.2,0.3-0.5,0.4-0.7C1119.2,25.7,1119.3,25.4,1119.3,25.1L1119.3,25.1z"/>
	<path class="st3" d="M1127.8,26.4c0,0.3-0.1,0.7-0.2,1c-0.1,0.3-0.4,0.5-0.6,0.7c-0.3,0.2-0.6,0.3-0.9,0.4
		c-0.4,0.1-0.7,0.1-1.1,0.1c-0.4,0-0.7,0-1.1-0.1c-0.3-0.1-0.6-0.2-0.9-0.4c-0.3-0.2-0.5-0.4-0.6-0.6c-0.2-0.3-0.3-0.6-0.3-0.9h1.4
		c0,0.3,0.2,0.6,0.5,0.8c0.1,0.1,0.3,0.2,0.5,0.2c0.2,0,0.4,0.1,0.6,0.1c0.2,0,0.4,0,0.5-0.1c0.2,0,0.3-0.1,0.4-0.2
		c0.1-0.1,0.2-0.2,0.3-0.3c0.1-0.1,0.1-0.3,0.1-0.4c0-0.1,0-0.2-0.1-0.4c-0.1-0.1-0.2-0.2-0.3-0.3c-0.1-0.1-0.3-0.1-0.4-0.2
		l-0.5-0.1l-0.9-0.2c-0.3-0.1-0.6-0.2-0.9-0.3c-0.2-0.1-0.4-0.2-0.6-0.4c-0.2-0.1-0.3-0.3-0.4-0.5c-0.1-0.2-0.1-0.4-0.1-0.6
		c0-0.3,0.1-0.6,0.2-0.9c0.1-0.3,0.3-0.5,0.6-0.6c0.3-0.2,0.6-0.3,0.9-0.4c0.4-0.1,0.7-0.1,1.1-0.1c0.4,0,0.7,0,1.1,0.1
		c0.3,0.1,0.6,0.2,0.8,0.4c0.2,0.2,0.4,0.4,0.5,0.6c0.1,0.2,0.2,0.5,0.2,0.8h-1.4c-0.1-0.3-0.2-0.5-0.4-0.6
		c-0.3-0.2-0.6-0.2-0.9-0.2c-0.2,0-0.3,0-0.5,0c-0.1,0-0.3,0.1-0.4,0.1c-0.1,0.1-0.2,0.1-0.3,0.2c-0.1,0.1-0.1,0.2-0.1,0.4
		c0,0.1,0,0.2,0.1,0.4c0.1,0.1,0.2,0.2,0.3,0.2c0.1,0.1,0.2,0.1,0.3,0.2l0.4,0.1l1.4,0.3c0.2,0.1,0.5,0.1,0.7,0.2
		c0.2,0.1,0.4,0.2,0.5,0.3c0.2,0.1,0.3,0.3,0.4,0.5C1127.7,25.9,1127.8,26.1,1127.8,26.4z"/>
	<path class="st3" d="M1133.8,28.4v-1l0,0c-0.1,0.2-0.2,0.4-0.4,0.5c-0.1,0.1-0.3,0.3-0.5,0.4c-0.2,0.1-0.4,0.2-0.6,0.2
		c-0.2,0.1-0.4,0.1-0.6,0.1c-0.7,0.1-1.3-0.2-1.8-0.6c-0.4-0.6-0.6-1.3-0.6-2v-4.2h1.4v4c0,0.2,0,0.5,0.1,0.7c0,0.2,0.1,0.4,0.2,0.5
		c0.1,0.1,0.3,0.3,0.4,0.3c0.4,0.2,0.9,0.2,1.4,0c0.2-0.1,0.4-0.2,0.5-0.4c0.1-0.2,0.2-0.4,0.3-0.7c0.1-0.3,0.1-0.6,0.1-0.9v-3.5
		h1.4v6.6L1133.8,28.4z"/>
	<path class="st3" d="M1139.9,21.6c0.5,0,0.9,0.1,1.3,0.3c0.4,0.2,0.7,0.4,1,0.8c0.3,0.3,0.5,0.7,0.6,1.1c0.1,0.4,0.2,0.9,0.2,1.4
		v0.3h-4.8c0,0.3,0,0.5,0.1,0.8c0.1,0.2,0.2,0.4,0.3,0.6c0.1,0.2,0.3,0.3,0.5,0.4c0.2,0.1,0.5,0.2,0.7,0.1c0.3,0,0.7-0.1,1-0.2
		c0.3-0.1,0.5-0.4,0.6-0.6h1.4c-0.1,0.3-0.3,0.6-0.4,0.8c-0.2,0.2-0.4,0.5-0.7,0.6c-0.3,0.2-0.5,0.3-0.8,0.4c-0.3,0.1-0.7,0.1-1,0.1
		c-0.5,0-0.9-0.1-1.3-0.3c-0.4-0.2-0.7-0.4-1-0.7c-0.3-0.3-0.5-0.7-0.6-1.1c-0.2-0.5-0.2-0.9-0.2-1.4c0-0.5,0.1-0.9,0.2-1.3
		c0.1-0.4,0.4-0.8,0.6-1.1c0.3-0.3,0.6-0.6,1-0.8C1139,21.7,1139.4,21.6,1139.9,21.6z M1141.5,24.5c0-0.2-0.1-0.5-0.2-0.7
		c-0.1-0.2-0.2-0.4-0.3-0.5c-0.1-0.2-0.3-0.3-0.5-0.4c-0.4-0.2-0.9-0.2-1.4,0c-0.2,0.1-0.4,0.2-0.5,0.4c-0.1,0.2-0.3,0.3-0.3,0.5
		c-0.1,0.2-0.1,0.5-0.2,0.7H1141.5z"/>
	<path class="st3" d="M1144.5,28.4v-6.6h1.4v1.3l0,0c0.2-0.4,0.5-0.8,0.9-1.1c0.4-0.3,0.8-0.4,1.3-0.4h0.2h0.2V23h-0.2h-0.3
		c-0.6,0-1.1,0.2-1.5,0.6c-0.4,0.4-0.5,1-0.5,1.6v3.2L1144.5,28.4z"/>
	<path class="st3" d="M1152.3,21.6c0.5,0,0.9,0.1,1.3,0.3c0.4,0.2,0.7,0.4,1,0.8c0.3,0.3,0.5,0.7,0.6,1.1c0.1,0.4,0.2,0.9,0.2,1.4
		v0.3h-4.8c0,0.3,0,0.5,0.1,0.8c0.1,0.2,0.2,0.4,0.3,0.6c0.1,0.2,0.3,0.3,0.5,0.4c0.2,0.1,0.5,0.2,0.7,0.1c0.3,0,0.7-0.1,1-0.2
		c0.3-0.1,0.5-0.4,0.6-0.6h1.4c-0.1,0.3-0.3,0.6-0.4,0.8c-0.2,0.2-0.4,0.5-0.7,0.6c-0.3,0.2-0.5,0.3-0.8,0.4c-0.3,0.1-0.7,0.1-1,0.1
		c-0.5,0-0.9-0.1-1.3-0.3c-0.4-0.2-0.7-0.4-1-0.7c-0.3-0.3-0.5-0.7-0.6-1.1c-0.2-0.5-0.2-0.9-0.2-1.4c0-0.5,0.1-0.9,0.2-1.3
		c0.1-0.4,0.4-0.8,0.6-1.1c0.3-0.3,0.6-0.6,1-0.8C1151.4,21.7,1151.8,21.6,1152.3,21.6z M1153.9,24.5c0-0.2-0.1-0.5-0.2-0.7
		c-0.1-0.2-0.2-0.4-0.3-0.5c-0.1-0.2-0.3-0.3-0.5-0.4c-0.4-0.2-0.9-0.2-1.4,0c-0.2,0.1-0.4,0.2-0.5,0.4c-0.1,0.2-0.3,0.3-0.3,0.5
		c-0.1,0.2-0.1,0.5-0.2,0.7H1153.9z"/>
	<path class="st3" d="M1161.8,18.9v1.4h-1.4v-1.4H1161.8z M1161.8,21.8v6.6h-1.4v-6.6H1161.8z"/>
	<path class="st3" d="M1167.3,21.6c0.4,0,0.7,0,1.1,0.2c0.3,0.1,0.5,0.3,0.7,0.5c0.2,0.2,0.3,0.5,0.4,0.8c0.1,0.4,0.1,0.7,0.1,1.1
		v4.2h-1.4v-3.9c0-0.4-0.1-0.9-0.3-1.3c-0.2-0.3-0.6-0.5-1-0.4c-0.5,0-0.9,0.2-1.2,0.5c-0.3,0.4-0.4,0.9-0.4,1.5v3.6h-1.4v-6.6h1.4
		v1l0,0c0.1-0.2,0.2-0.4,0.4-0.5c0.1-0.1,0.3-0.3,0.5-0.4c0.2-0.1,0.4-0.2,0.6-0.2C1166.8,21.6,1167,21.6,1167.3,21.6z"/>
	<path class="st3" d="M1174.4,21.6c0.5,0,0.9,0.1,1.3,0.3c0.4,0.2,0.7,0.4,1,0.8c0.3,0.3,0.5,0.7,0.6,1.1c0.1,0.4,0.2,0.9,0.2,1.4
		v0.3h-4.8c0,0.3,0,0.5,0.1,0.8c0.1,0.2,0.2,0.4,0.3,0.6c0.1,0.2,0.3,0.3,0.5,0.4c0.2,0.1,0.5,0.2,0.7,0.1c0.3,0,0.7-0.1,1-0.2
		c0.3-0.1,0.5-0.4,0.6-0.6h1.4c-0.1,0.3-0.3,0.6-0.4,0.8c-0.2,0.2-0.4,0.5-0.7,0.6c-0.3,0.2-0.5,0.3-0.8,0.4c-0.3,0.1-0.7,0.1-1,0.1
		c-0.5,0-0.9-0.1-1.3-0.3c-0.4-0.2-0.7-0.4-1-0.7c-0.3-0.3-0.5-0.7-0.6-1.1c-0.2-0.5-0.2-0.9-0.2-1.4c0-0.5,0.1-0.9,0.2-1.3
		c0.1-0.4,0.4-0.8,0.6-1.1c0.3-0.3,0.6-0.6,1-0.8C1173.5,21.7,1174,21.6,1174.4,21.6z M1176,24.5c0-0.2-0.1-0.5-0.2-0.7
		c-0.1-0.2-0.2-0.4-0.3-0.5c-0.1-0.2-0.3-0.3-0.5-0.4c-0.4-0.2-0.9-0.2-1.4,0c-0.2,0.1-0.4,0.2-0.5,0.4c-0.1,0.2-0.3,0.3-0.3,0.5
		c-0.1,0.2-0.1,0.5-0.2,0.7H1176z"/>
	<path class="st3" d="M1182.3,28.4h-0.8c-0.2,0-0.5,0-0.7-0.1c-0.2,0-0.4-0.1-0.6-0.2c-0.2-0.1-0.3-0.3-0.4-0.5
		c-0.1-0.2-0.2-0.5-0.2-0.8v-4.1h-1.3v-1h1.3v-2h1.5v2h1.5v1h-1.5v3.7c0,0.2,0,0.4,0.2,0.6c0.2,0.1,0.4,0.2,0.6,0.2h0.6h0.2v1.1
		L1182.3,28.4z"/>
	<path class="st3" d="M1185.4,18.9v1.4h-1.4v-1.4H1185.4z M1185.4,21.8v6.6h-1.4v-6.6H1185.4z"/>
	<path class="st3" d="M1193.6,25.1c0,0.5-0.1,0.9-0.2,1.4c-0.1,0.4-0.4,0.8-0.7,1.1c-0.3,0.3-0.6,0.6-1,0.7
		c-0.4,0.2-0.9,0.3-1.4,0.2c-0.9,0-1.8-0.3-2.4-1c-1.2-1.5-1.2-3.5,0-5c0.6-0.7,1.5-1,2.4-1c0.9,0,1.8,0.3,2.4,1
		C1193.4,23.3,1193.7,24.2,1193.6,25.1z M1192.2,25.1c0-0.3,0-0.6-0.1-0.9c-0.1-0.3-0.2-0.5-0.3-0.8c-0.2-0.2-0.4-0.4-0.6-0.5
		c-0.3-0.1-0.5-0.2-0.8-0.2c-0.3,0-0.5,0.1-0.8,0.2c-0.2,0.1-0.4,0.3-0.6,0.5c-0.2,0.2-0.3,0.5-0.4,0.7c-0.2,0.6-0.2,1.3,0,1.9
		c0.1,0.3,0.2,0.5,0.3,0.7c0.2,0.2,0.4,0.4,0.6,0.5c0.2,0.1,0.5,0.2,0.8,0.2c0.3,0,0.5-0.1,0.8-0.2c0.2-0.1,0.4-0.3,0.6-0.5
		c0.2-0.2,0.3-0.5,0.4-0.7C1192.1,25.7,1192.2,25.4,1192.2,25.1z"/>
	<path class="st3" d="M1196.8,26.7v1.6h-1.6v-1.6H1196.8z"/>
	<path class="st3" d="M1200.3,26.7v1.6h-1.6v-1.6H1200.3z"/>
	<path class="st3" d="M1203.7,26.7v1.6h-1.6v-1.6H1203.7z"/>
	<rect x="1218.5" y="9.5" class="st4" width="31" height="31"/>
	<path class="st5" d="M1249,10v30h-30V10H1249 M1250,9h-32v32h32V9z"/>
	<rect x="1218" y="40" class="st6" width="32" height="1"/>
	<polyline class="st7" points="1240,21 1232,29 1228,25 	"/>
	<path class="st8" d="M1293.1,13.2c0.4,0,0.8,0.1,1.2,0.2c0.4,0.1,0.7,0.3,1,0.5c0.3,0.2,0.6,0.5,0.7,0.9c0.2,0.4,0.3,0.8,0.3,1.2
		c0,0.2,0,0.5-0.1,0.7c-0.1,0.2-0.1,0.4-0.3,0.6c-0.1,0.2-0.3,0.3-0.4,0.5c-0.2,0.1-0.4,0.2-0.6,0.3l0,0c0.5,0.1,1,0.4,1.3,0.8
		c0.3,0.4,0.5,0.9,0.5,1.5c0,0.9-0.4,1.8-1.1,2.4c-0.7,0.6-1.7,0.9-2.7,0.9c-0.5,0-1-0.1-1.4-0.2c-0.4-0.1-0.8-0.3-1.2-0.6
		c-0.3-0.3-0.6-0.6-0.8-1c-0.2-0.4-0.3-0.9-0.3-1.4v-0.1h1.9v0.1c0,0.2,0,0.5,0.2,0.7c0.1,0.2,0.2,0.4,0.4,0.5
		c0.2,0.1,0.3,0.2,0.5,0.3c0.2,0.1,0.4,0.1,0.6,0.1c0.2,0,0.5,0,0.7-0.1c0.2-0.1,0.4-0.2,0.6-0.3c0.3-0.3,0.5-0.7,0.4-1.1
		c0-0.4-0.1-0.8-0.4-1.1c-0.5-0.3-1.1-0.4-1.7-0.4h-0.2v-1.4h0.3c0.5,0,1-0.1,1.4-0.4c0.3-0.2,0.4-0.5,0.4-0.9c0-0.2,0-0.4-0.1-0.6
		c-0.1-0.2-0.2-0.3-0.3-0.4c-0.1-0.1-0.3-0.2-0.4-0.2c-0.2-0.1-0.4-0.1-0.6-0.1c-0.2,0-0.4,0-0.6,0.1c-0.2,0.1-0.3,0.1-0.5,0.3
		c-0.1,0.1-0.3,0.3-0.3,0.5c-0.1,0.2-0.1,0.4-0.1,0.7h-1.9c0-0.4,0.1-0.9,0.3-1.3c0.2-0.4,0.4-0.7,0.7-1c0.3-0.3,0.7-0.5,1.1-0.6
		C1292.1,13.2,1292.6,13.2,1293.1,13.2z"/>
	<polyline class="st9" points="1296.5,31.3 1292.5,35.3 1288.5,31.3 	"/>
	<path class="st10" d="M28,30h-3.1l-1.5,5H18l3.6-11H28V30z M28,23h-6.1l3.6-10H28V23z M29,13h3l3.6,10H29V13z M39.5,35h-5.4l-1.5-5
		H29v-6h6.9L39.5,35z"/>
	<path class="st10" d="M41,23V13h6v10H41z M47,24v11h-6V24H47z M48,23V13h1.6c1.3-0.1,2.5,0.3,3.4,1.2c1.9,1.9,1.9,4.9,0,6.8
		c-0.3,0.3-0.6,0.6-1,0.8c0.8,0.3,1.4,1.2,2,1.2L48,23z M56,27.9c0.1,1.8-0.6,3.6-1.8,4.9c-1.2,1.3-2.8,2.1-4.6,2.1H48V24h6.7
		C55.6,25.1,56,26.5,56,27.9z"/>
	<path class="st10" d="M58,23V13h6v10H58z M64,24v11h-6V24H64z M65,23V13h1.3c1.3-0.1,2.5,0.3,3.4,1.2c1.9,1.9,1.9,4.9,0,6.8
		c-0.3,0.3-0.6,0.6-1,0.8c0.8,0.3,1.4,1.2,2,1.2L65,23z M72.8,27.9c0.1,1.8-0.6,3.6-1.8,4.9c-1.2,1.3-2.8,2.1-4.6,2.1H65V24h6.5
		C72.3,25.1,72.8,26.5,72.8,27.9z"/>
	<path class="st10" d="M100.9,29.5v-9.9l0,0L97,29.5h-1l-3.9-9.9l0,0v9.9H91V18.1h1.6l3.9,10l0,0l3.9-10h1.5v11.4H100.9z"/>
	<path class="st10" d="M105.9,16.9v1.7h-1.1v-1.7H105.9z M105.9,20.8v8.8h-1.1v-8.8H105.9z"/>
	<path class="st10" d="M112.3,20.5c0.4,0,0.9,0.1,1.3,0.2c0.4,0.1,0.7,0.3,1,0.5c0.3,0.2,0.6,0.5,0.7,0.8c0.2,0.3,0.3,0.7,0.4,1.1
		h-1.1c-0.1-0.2-0.2-0.5-0.3-0.7c-0.1-0.2-0.3-0.4-0.5-0.5c-0.2-0.2-0.4-0.3-0.7-0.3c-0.3-0.1-0.6-0.1-0.9-0.1
		c-0.5,0-0.9,0.1-1.3,0.3c-0.4,0.2-0.7,0.5-1,0.8c-0.3,0.4-0.5,0.8-0.6,1.2c-0.1,0.5-0.2,0.9-0.2,1.4c0,0.5,0.1,0.9,0.2,1.3
		c0.1,0.4,0.3,0.8,0.6,1.2c0.3,0.4,0.6,0.6,0.9,0.9c0.7,0.4,1.5,0.4,2.3,0.2c0.3-0.1,0.5-0.3,0.8-0.5c0.2-0.2,0.4-0.4,0.5-0.6
		c0.1-0.2,0.2-0.5,0.3-0.8h1.1c-0.1,0.4-0.2,0.8-0.4,1.1c-0.2,0.4-0.4,0.7-0.7,0.9c-0.3,0.3-0.7,0.5-1.1,0.6
		c-0.4,0.2-0.9,0.2-1.4,0.2c-0.6,0-1.2-0.1-1.7-0.4c-0.5-0.2-0.9-0.6-1.3-1c-0.4-0.4-0.6-0.9-0.8-1.5c-0.4-1.2-0.4-2.4,0-3.5
		c0.2-0.5,0.4-1,0.8-1.5c0.4-0.4,0.8-0.8,1.3-1C111.1,20.6,111.7,20.5,112.3,20.5z"/>
	<path class="st10" d="M118.1,29.5v-8.8h1v2l0,0c0.2-0.6,0.7-1.2,1.2-1.6c0.5-0.4,1.2-0.6,1.8-0.6h0.4v1.1h-0.2
		c-0.9,0-1.7,0.3-2.3,0.9c-0.6,0.6-0.9,1.4-0.9,2.2v4.6L118.1,29.5z"/>
	<path class="st10" d="M131.9,25.1c0,0.6-0.1,1.2-0.3,1.8c-0.2,0.5-0.5,1.1-0.8,1.5c-0.8,0.9-1.9,1.4-3.1,1.4c-1.1,0-2.2-0.4-3-1.3
		c-1.5-2-1.5-4.7,0-6.6c1.6-1.7,4.2-1.7,5.8-0.2c0.1,0.1,0.1,0.1,0.2,0.2C131.5,22.7,131.9,23.9,131.9,25.1z M130.8,25.1
		c0-0.4-0.1-0.9-0.2-1.3c-0.1-0.4-0.3-0.8-0.6-1.2c-0.3-0.4-0.6-0.7-1-0.9c-0.4-0.2-0.9-0.4-1.4-0.3c-0.5,0-0.9,0.1-1.3,0.3
		c-0.4,0.2-0.7,0.5-1,0.9c-0.3,0.4-0.5,0.8-0.6,1.2c-0.1,0.4-0.2,0.9-0.2,1.4c0,0.5,0.1,0.9,0.2,1.3c0.1,0.4,0.3,0.8,0.6,1.2
		c0.3,0.4,0.6,0.7,1,0.9c0.8,0.4,1.8,0.4,2.7,0c0.4-0.2,0.7-0.5,1-0.8c0.3-0.4,0.5-0.8,0.6-1.2C130.7,26.1,130.8,25.6,130.8,25.1
		L130.8,25.1z"/>
	<path class="st10" d="M142.5,26.5c0,0.5-0.1,1.1-0.4,1.5c-0.2,0.4-0.6,0.8-1,1c-0.5,0.3-0.9,0.5-1.5,0.6c-0.6,0.1-1.1,0.2-1.7,0.2
		c-0.6,0-1.2-0.1-1.7-0.2c-0.5-0.1-1-0.4-1.4-0.6c-0.4-0.3-0.7-0.6-0.9-1c-0.2-0.4-0.3-0.9-0.3-1.4v-0.3h1.1v0.1
		c0,0.3,0.1,0.7,0.2,1c0.1,0.3,0.4,0.6,0.6,0.8c0.3,0.3,0.7,0.4,1.1,0.6c0.5,0.1,1,0.2,1.5,0.2c0.4,0,0.8,0,1.2-0.1
		c0.4-0.1,0.7-0.2,1.1-0.4c0.3-0.2,0.6-0.4,0.8-0.7c0.2-0.3,0.3-0.6,0.3-1c0-1-0.7-1.7-2.2-2l-2.7-0.7c-0.4-0.1-0.8-0.2-1.2-0.4
		c-0.3-0.1-0.6-0.3-0.8-0.6c-0.2-0.2-0.4-0.5-0.5-0.8c-0.1-0.3-0.2-0.7-0.1-1c0-0.5,0.1-1,0.3-1.4c0.2-0.4,0.5-0.7,0.9-1
		c0.4-0.3,0.8-0.5,1.3-0.6c0.5-0.1,1-0.2,1.5-0.2c0.5,0,1.1,0.1,1.6,0.2c0.5,0.1,0.9,0.3,1.3,0.6c0.8,0.6,1.2,1.4,1.2,2.4h-1.1
		c0-0.3-0.1-0.6-0.3-0.9c-0.2-0.3-0.4-0.5-0.6-0.7c-0.3-0.2-0.6-0.4-0.9-0.5c-0.4-0.1-0.8-0.2-1.2-0.2c-0.4,0-0.8,0-1.2,0.1
		c-0.3,0.1-0.7,0.2-0.9,0.4c-0.3,0.2-0.5,0.4-0.6,0.7c-0.2,0.3-0.2,0.7-0.2,1c0,0.2,0,0.5,0.1,0.7c0.1,0.2,0.2,0.4,0.4,0.5
		c0.2,0.1,0.4,0.3,0.6,0.3c0.2,0.1,0.5,0.2,0.7,0.2l2.6,0.6c0.9,0.2,1.7,0.6,2.3,1.1C142.2,25.1,142.5,25.8,142.5,26.5z"/>
	<path class="st10" d="M149.3,17.9c0.5,0,1.1,0.1,1.6,0.2c0.5,0.1,0.9,0.4,1.4,0.6c0.8,0.6,1.4,1.4,1.6,2.4h-1.1
		c-0.1-0.3-0.3-0.6-0.4-0.9c-0.2-0.3-0.4-0.5-0.7-0.7c-0.3-0.2-0.6-0.4-1-0.5c-1-0.3-2.1-0.2-3.1,0.2c-0.5,0.3-1,0.6-1.4,1.1
		c-0.4,0.5-0.7,1-0.8,1.6c-0.2,0.6-0.3,1.3-0.3,1.9c0,0.4,0,0.8,0.1,1.2c0.1,0.4,0.2,0.8,0.4,1.2c0.2,0.4,0.4,0.7,0.6,1
		c0.2,0.3,0.5,0.6,0.8,0.8c0.3,0.2,0.7,0.4,1.1,0.5c0.4,0.1,0.9,0.2,1.3,0.2c0.5,0,1-0.1,1.4-0.2c0.4-0.2,0.8-0.4,1.1-0.7
		c0.3-0.3,0.6-0.6,0.8-1c0.2-0.4,0.3-0.8,0.4-1.2h1.1c-0.1,0.6-0.2,1.1-0.5,1.6c-0.2,0.5-0.5,0.9-0.9,1.3c-0.4,0.4-0.9,0.7-1.4,0.9
		c-0.6,0.2-1.2,0.3-1.9,0.3c-0.8,0-1.6-0.1-2.3-0.5c-0.6-0.3-1.2-0.7-1.7-1.3c-0.5-0.6-0.8-1.2-1.1-1.9c-0.5-1.5-0.5-3.1,0-4.6
		c0.2-0.7,0.5-1.3,1-1.9c0.5-0.6,1-1,1.7-1.3C147.7,18,148.5,17.8,149.3,17.9z"/>
	<path class="st10" d="M163.7,29.5l-1.4-3.5h-5.2l-1.4,3.5h-1.2l4.6-11.4h1.2l4.5,11.4L163.7,29.5z M159.7,19.2L159.7,19.2l-2.2,5.8
		h4.5L159.7,19.2z"/>
	<path class="st10" d="M170.2,18.1c1.5-0.1,2.9,0.4,4,1.4c1.9,2.6,1.9,6.1,0,8.7c-1.1,0.9-2.4,1.4-3.9,1.4h-3.9V18.1H170.2z
		 M169.9,28.6c1.3,0.1,2.5-0.3,3.5-1.1c0.9-1,1.3-2.3,1.1-3.7c0.1-1.3-0.3-2.6-1.1-3.7c-1-0.8-2.3-1.2-3.7-1.1h-2.3v9.6H169.9z"/>
	<path class="st10" d="M185.3,29.5l-1.4-3.5h-5.2l-1.4,3.5h-1.2l4.6-11.4h1.2l4.5,11.4L185.3,29.5z M181.3,19.2L181.3,19.2L179,25
		h4.5L181.3,19.2z"/>
	<path class="st10" d="M201.6,21.6c0.1,1.5-0.8,2.8-2.2,3.3c-0.5,0.2-1,0.2-1.5,0.2h-3.2v4.4h-2V18.1h5.2c1,0,2,0.3,2.7,1
		C201.2,19.7,201.6,20.7,201.6,21.6z M199.6,21.6c0-0.5-0.2-1.1-0.6-1.5c-0.5-0.4-1.1-0.5-1.8-0.5h-2.6v3.9h2.7c0.3,0,0.7,0,1-0.1
		c0.3-0.1,0.5-0.2,0.7-0.4C199.4,22.7,199.6,22.2,199.6,21.6L199.6,21.6z"/>
	<path class="st10" d="M212.4,21.2c0,0.7-0.2,1.4-0.7,2c-0.2,0.2-0.4,0.4-0.6,0.5c-0.2,0.1-0.5,0.3-0.7,0.3l0,0
		c0.3,0.1,0.6,0.2,0.8,0.3c0.2,0.1,0.4,0.3,0.5,0.5c0.2,0.3,0.3,0.5,0.3,0.8c0.1,0.3,0.1,0.6,0.1,0.9c0,0.3,0,0.7,0.1,1
		c0,0.3,0.1,0.7,0.1,1c0,0.3,0.2,0.6,0.3,0.8h-2c-0.2-0.6-0.3-1.2-0.3-1.8c0-0.8-0.2-1.6-0.6-2.4c-0.4-0.4-0.9-0.6-1.4-0.5h-3.2v4.7
		h-2V18.1h5.9c0.9,0,1.7,0.3,2.4,0.9C212.1,19.5,212.5,20.3,212.4,21.2z M210.4,21.5c0-0.5-0.1-1-0.5-1.4c-0.4-0.3-0.9-0.5-1.4-0.5
		h-3.3v3.7h3.3c0.5,0,1-0.1,1.4-0.4C210.3,22.5,210.5,22,210.4,21.5L210.4,21.5z"/>
	<path class="st10" d="M225.1,23.8c0.1,1.6-0.5,3.1-1.5,4.3c-1,1.1-2.5,1.7-4,1.7c-0.7,0-1.5-0.1-2.2-0.4c-0.7-0.3-1.3-0.7-1.8-1.2
		c-0.5-0.6-0.9-1.2-1.2-2c-0.3-0.8-0.4-1.6-0.4-2.4c-0.1-1.6,0.5-3.1,1.5-4.3c1-1.1,2.5-1.7,4-1.7c0.7,0,1.5,0.1,2.2,0.4
		c0.7,0.3,1.3,0.7,1.8,1.2c0.5,0.6,0.9,1.3,1.2,2C225,22.2,225.1,23,225.1,23.8z M223.1,23.8c0.1-1.1-0.3-2.2-0.9-3.1
		c-1.2-1.4-3.4-1.6-4.8-0.4c-0.1,0.1-0.3,0.2-0.4,0.4c-0.7,0.9-1,2-0.9,3.1c0,1.1,0.3,2.2,0.9,3c1.2,1.4,3.4,1.6,4.9,0.3
		c0.1-0.1,0.2-0.2,0.3-0.3C222.9,26,223.2,24.9,223.1,23.8L223.1,23.8z"/>
	<rect x="1334.1" y="17.2" class="st11" width="16" height="2"/>
	<rect x="1334.1" y="23.2" class="st11" width="16" height="2"/>
	<rect x="1334.1" y="29.2" class="st11" width="16" height="2"/>
</g>
</svg>
