<svg xmlns="http://www.w3.org/2000/svg" viewBox="0 0 578 258"><defs><style>.cls-1,.cls-3{fill:#fff;}.cls-2{fill:#444;}.cls-3{opacity:0.9;}.cls-4,.cls-9{fill:#787878;}.cls-4{opacity:0.4;}.cls-11,.cls-5,.cls-6{fill:none;}.cls-5{opacity:0.1;}.cls-7{fill:#f0f0f0;}.cls-8{fill:#d2d2d2;}.cls-9{opacity:0.2;}.cls-10{fill:#464646;}.cls-11{stroke:#c8c8c8;stroke-miterlimit:10;}</style></defs><title>Artboard 23</title><g id="Bg"><rect class="cls-1" x="-2197" y="-1299" width="6000" height="2500"/></g><g id="Tabeller"><path class="cls-2" d="M133.48,34.09a2.34,2.34,0,0,1-.7,1.8,2.55,2.55,0,0,1-1.8.64h-3v3.67h-.82V31.64H131a2.53,2.53,0,0,1,1.8.65A2.33,2.33,0,0,1,133.48,34.09Zm-.81,0a1.68,1.68,0,0,0-.5-1.29,2.11,2.11,0,0,0-1.49-.46h-2.74v3.5h2.85a2,2,0,0,0,1.35-.45A1.65,1.65,0,0,0,132.66,34.09Z"/><path class="cls-2" d="M140.37,40.16l-.27,0h-.24a1.37,1.37,0,0,1-.44-.06.65.65,0,0,1-.29-.2.82.82,0,0,1-.16-.35,2.43,2.43,0,0,1,0-.53h0a3,3,0,0,1-1,1,2.79,2.79,0,0,1-1.35.29,2.46,2.46,0,0,1-1.6-.5,1.75,1.75,0,0,1-.6-1.43,1.66,1.66,0,0,1,.66-1.43,6.79,6.79,0,0,1,3-.69,2,2,0,0,0,.44-.08.75.75,0,0,0,.29-.16.6.6,0,0,0,.16-.26,1.28,1.28,0,0,0,0-.38,1.24,1.24,0,0,0-.4-1,2,2,0,0,0-1.31-.34,2.61,2.61,0,0,0-.72.09,1.65,1.65,0,0,0-.53.25,1.13,1.13,0,0,0-.33.39,1.23,1.23,0,0,0-.13.49h-.8a2,2,0,0,1,.22-.78,1.78,1.78,0,0,1,.51-.59,2.43,2.43,0,0,1,.81-.38,4,4,0,0,1,1.09-.13,2.64,2.64,0,0,1,1.83.54,2,2,0,0,1,.59,1.52v3.56a.47.47,0,0,0,.11.33.46.46,0,0,0,.36.12.7.7,0,0,0,.25,0Zm-1.52-3.54h0q-.12.22-.77.31l-.67.1-.74.12a2.67,2.67,0,0,0-1.17.44,1,1,0,0,0-.39.84,1.16,1.16,0,0,0,.43.94,1.6,1.6,0,0,0,1,.35,2.36,2.36,0,0,0,1.63-.58,1.85,1.85,0,0,0,.65-1.44Z"/><path class="cls-2" d="M141.8,40.21V33.65h.74v1.54h0a2.56,2.56,0,0,1,.9-1.2,2.32,2.32,0,0,1,1.38-.43h.29v.8H145a2.22,2.22,0,0,0-1.71.69,2.36,2.36,0,0,0-.64,1.69v3.48Z"/><path class="cls-2" d="M152,40.16l-.27,0h-.24a1.37,1.37,0,0,1-.44-.06.65.65,0,0,1-.29-.2.82.82,0,0,1-.16-.35,2.43,2.43,0,0,1,0-.53h0a3,3,0,0,1-1,1,2.79,2.79,0,0,1-1.35.29,2.46,2.46,0,0,1-1.6-.5,1.75,1.75,0,0,1-.6-1.43,1.66,1.66,0,0,1,.66-1.43,6.79,6.79,0,0,1,3-.69,2,2,0,0,0,.44-.08.75.75,0,0,0,.29-.16.6.6,0,0,0,.16-.26,1.28,1.28,0,0,0,0-.38,1.24,1.24,0,0,0-.4-1,2,2,0,0,0-1.31-.34,2.61,2.61,0,0,0-.72.09,1.65,1.65,0,0,0-.53.25,1.13,1.13,0,0,0-.33.39,1.23,1.23,0,0,0-.13.49h-.8a2,2,0,0,1,.22-.78A1.78,1.78,0,0,1,147,34a2.43,2.43,0,0,1,.81-.38,4,4,0,0,1,1.09-.13,2.64,2.64,0,0,1,1.83.54,2,2,0,0,1,.59,1.52v3.56a.47.47,0,0,0,.11.33.46.46,0,0,0,.36.12.7.7,0,0,0,.25,0Zm-1.52-3.54h0q-.12.22-.77.31l-.67.1-.74.12a2.67,2.67,0,0,0-1.17.44,1,1,0,0,0-.39.84,1.16,1.16,0,0,0,.43.94,1.6,1.6,0,0,0,1,.35,2.36,2.36,0,0,0,1.63-.58,1.85,1.85,0,0,0,.65-1.44Z"/><path class="cls-2" d="M161.75,40.21V35.75a1.73,1.73,0,0,0-.37-1.22,1.85,1.85,0,0,0-2.5.21,2.8,2.8,0,0,0-.45,1.71v3.77h-.81V35.72a1.81,1.81,0,0,0-.34-1.17,1.25,1.25,0,0,0-1-.42,1.72,1.72,0,0,0-1.46.65,2.72,2.72,0,0,0-.5,1.71v3.72h-.8V33.65h.74v1.1h0a2.26,2.26,0,0,1,2.15-1.29,2.44,2.44,0,0,1,.64.08,1.86,1.86,0,0,1,.54.24,1.66,1.66,0,0,1,.42.4,1.86,1.86,0,0,1,.28.55,2.16,2.16,0,0,1,.85-1,2.4,2.4,0,0,1,1.24-.32A2.12,2.12,0,0,1,162,34a2.36,2.36,0,0,1,.54,1.66v4.51Z"/><path class="cls-2" d="M167.31,33.46a2.71,2.71,0,0,1,1.3.29,2.6,2.6,0,0,1,.9.79,3.45,3.45,0,0,1,.52,1.13A5.21,5.21,0,0,1,170.2,37v.13h-5.05a3.58,3.58,0,0,0,.13.94,2.59,2.59,0,0,0,.39.83,2,2,0,0,0,.66.59,1.92,1.92,0,0,0,.95.22,2.44,2.44,0,0,0,.7-.09,2,2,0,0,0,.56-.26,1.76,1.76,0,0,0,.42-.39,2.41,2.41,0,0,0,.29-.49H170a3,3,0,0,1-.38.79,2.48,2.48,0,0,1-.59.6,2.68,2.68,0,0,1-.79.39,3.34,3.34,0,0,1-1,.14,2.94,2.94,0,0,1-1.3-.27,2.56,2.56,0,0,1-.91-.73,3.12,3.12,0,0,1-.54-1.1,5.14,5.14,0,0,1-.18-1.37,4.66,4.66,0,0,1,.18-1.28,3.36,3.36,0,0,1,.54-1.11,2.74,2.74,0,0,1,.92-.78A2.79,2.79,0,0,1,167.31,33.46Zm2.09,3a3,3,0,0,0-.16-.85,2.44,2.44,0,0,0-.41-.75,2.07,2.07,0,0,0-.65-.54,1.84,1.84,0,0,0-.88-.21,1.84,1.84,0,0,0-1.5.7,2.7,2.7,0,0,0-.42.75,4.31,4.31,0,0,0-.23.9Z"/><path class="cls-2" d="M174.52,40.27h-.66a3,3,0,0,1-.68-.06,1,1,0,0,1-.45-.23.89.89,0,0,1-.25-.43,2.65,2.65,0,0,1-.07-.68V34.32h-1.32v-.67h1.32v-2h.8v2h1.5v.67h-1.5V38.8a1.76,1.76,0,0,0,0,.34.64.64,0,0,0,.11.25.5.5,0,0,0,.21.16.87.87,0,0,0,.35.06h.6l.21,0v.68Z"/><path class="cls-2" d="M178.88,33.46a2.71,2.71,0,0,1,1.3.29,2.6,2.6,0,0,1,.9.79,3.45,3.45,0,0,1,.52,1.13,5.21,5.21,0,0,1,.17,1.34v.13h-5.05a3.58,3.58,0,0,0,.13.94,2.59,2.59,0,0,0,.39.83,2,2,0,0,0,.66.59,1.92,1.92,0,0,0,.95.22,2.44,2.44,0,0,0,.7-.09,2,2,0,0,0,.56-.26,1.76,1.76,0,0,0,.42-.39,2.41,2.41,0,0,0,.29-.49h.79a3,3,0,0,1-.38.79,2.48,2.48,0,0,1-.59.6,2.68,2.68,0,0,1-.79.39,3.34,3.34,0,0,1-1,.14,2.94,2.94,0,0,1-1.3-.27,2.56,2.56,0,0,1-.91-.73,3.12,3.12,0,0,1-.54-1.1,5.14,5.14,0,0,1-.18-1.37,4.66,4.66,0,0,1,.18-1.28,3.36,3.36,0,0,1,.54-1.11,2.74,2.74,0,0,1,.92-.78A2.79,2.79,0,0,1,178.88,33.46Zm2.09,3a3,3,0,0,0-.16-.85,2.44,2.44,0,0,0-.41-.75,2.07,2.07,0,0,0-.65-.54,1.84,1.84,0,0,0-.88-.21,1.84,1.84,0,0,0-1.5.7,2.7,2.7,0,0,0-.42.75,4.31,4.31,0,0,0-.23.9Z"/><path class="cls-2" d="M183.44,40.21V33.65h.74v1.54h0a2.56,2.56,0,0,1,.9-1.2,2.32,2.32,0,0,1,1.38-.43h.29v.8h-.18a2.22,2.22,0,0,0-1.71.69,2.36,2.36,0,0,0-.64,1.69v3.48Z"/><path class="cls-2" d="M194.17,40.21V33.78h-2.29v-.56q.53,0,.9-.06a2.36,2.36,0,0,0,.57-.13,1.3,1.3,0,0,0,.64-.52,2.46,2.46,0,0,0,.31-1h.63v8.65Z"/><path class="cls-2" d="M129.7,71.21V64.78h-2.29v-.56q.53,0,.9-.06a2.36,2.36,0,0,0,.57-.13,1.3,1.3,0,0,0,.64-.52,2.46,2.46,0,0,0,.31-1h.63v8.65Z"/><path class="cls-2" d="M136.9,62.49a2.81,2.81,0,0,1,2,.66,2.28,2.28,0,0,1,.73,1.78,2.82,2.82,0,0,1-.55,1.66,7,7,0,0,1-2,1.66,8.29,8.29,0,0,0-1.66,1.23,2,2,0,0,0-.56,1h4.81v.72h-5.7a3,3,0,0,1,.56-1.74,6.61,6.61,0,0,1,1.93-1.66,8.78,8.78,0,0,0,1.89-1.48,2.11,2.11,0,0,0,.51-1.41,1.64,1.64,0,0,0-.54-1.28,2,2,0,0,0-1.4-.49,2,2,0,0,0-.86.17,1.82,1.82,0,0,0-.61.44,1.77,1.77,0,0,0-.36.62,2.2,2.2,0,0,0-.12.71v.17h-.77v-.12a2.93,2.93,0,0,1,.17-1,2.42,2.42,0,0,1,.51-.84,2.47,2.47,0,0,1,.86-.59A3.06,3.06,0,0,1,136.9,62.49Z"/><path class="cls-2" d="M146.6,62.66v.72h-3.78l-.54,2.78,0,0a2.32,2.32,0,0,1,.82-.52,2.79,2.79,0,0,1,1-.18,3.18,3.18,0,0,1,1.2.22,2.6,2.6,0,0,1,.92.61,2.73,2.73,0,0,1,.59.94,3.43,3.43,0,0,1,.21,1.22,2.81,2.81,0,0,1-.23,1.14,2.94,2.94,0,0,1-1.61,1.56,3.12,3.12,0,0,1-1.2.23,3.29,3.29,0,0,1-1.1-.17,2.59,2.59,0,0,1-.85-.48,2.26,2.26,0,0,1-.56-.74,2.52,2.52,0,0,1-.23-1H142a1.84,1.84,0,0,0,.16.64,1.65,1.65,0,0,0,.4.54,2,2,0,0,0,.62.37,2.29,2.29,0,0,0,.83.14,2.06,2.06,0,0,0,.87-.18,2.14,2.14,0,0,0,.7-.5,2.4,2.4,0,0,0,.46-.75,2.49,2.49,0,0,0,.17-.92,2.41,2.41,0,0,0-.16-.86,2.12,2.12,0,0,0-1.14-1.2,2.2,2.2,0,0,0-.91-.18,2.55,2.55,0,0,0-1.07.23,2.22,2.22,0,0,0-.85.68h-.66l.81-4.38Z"/><path class="cls-2" d="M129.56,93.49a3.57,3.57,0,0,1,1,.13,2.67,2.67,0,0,1,.85.41,2.08,2.08,0,0,1,.6.69,2,2,0,0,1,.23,1,2.22,2.22,0,0,1-.1.66,1.82,1.82,0,0,1-.28.56,1.77,1.77,0,0,1-.45.42,2.14,2.14,0,0,1-.62.27v0a2.06,2.06,0,0,1,1.33.74,2.21,2.21,0,0,1,.45,1.39,2.41,2.41,0,0,1-.84,1.91,2.78,2.78,0,0,1-1,.55,3.78,3.78,0,0,1-1.21.18,3.66,3.66,0,0,1-1.12-.17,2.8,2.8,0,0,1-.92-.49,2.34,2.34,0,0,1-.63-.78,2.28,2.28,0,0,1-.23-1v-.18h.79v.16a1.74,1.74,0,0,0,.56,1.28,2,2,0,0,0,.66.4,2.45,2.45,0,0,0,.88.15,2.7,2.7,0,0,0,.91-.13,2.21,2.21,0,0,0,.69-.4,1.7,1.7,0,0,0,.64-1.38,1.89,1.89,0,0,0-.14-.75,1.64,1.64,0,0,0-.42-.58,2.22,2.22,0,0,0-1.53-.5H129v-.66h.69a1.86,1.86,0,0,0,1.21-.42,1.42,1.42,0,0,0,.52-1.15,1.59,1.59,0,0,0-.15-.71,1.48,1.48,0,0,0-.4-.51,1.73,1.73,0,0,0-.6-.31,2.56,2.56,0,0,0-.73-.1,2.1,2.1,0,0,0-.81.15,1.8,1.8,0,0,0-.61.41,1.82,1.82,0,0,0-.39.6,2,2,0,0,0-.13.73h-.78a2.44,2.44,0,0,1,.18-.92,2.53,2.53,0,0,1,.53-.82,2.7,2.7,0,0,1,.86-.59A2.82,2.82,0,0,1,129.56,93.49Z"/><path class="cls-2" d="M138.56,100.06v2.15h-.71v-2.15h-4v-.75l4-5.75h.7V99.4h1.3v.66Zm-.71-5.36h0l-3.27,4.71h3.29Z"/><path class="cls-2" d="M129.63,124.49a2.81,2.81,0,0,1,2,.66,2.28,2.28,0,0,1,.73,1.78,2.82,2.82,0,0,1-.55,1.66,7,7,0,0,1-2,1.66,8.29,8.29,0,0,0-1.66,1.23,2,2,0,0,0-.56,1h4.81v.72h-5.7a3,3,0,0,1,.56-1.74,6.61,6.61,0,0,1,1.93-1.66,8.78,8.78,0,0,0,1.89-1.48,2.11,2.11,0,0,0,.51-1.41,1.64,1.64,0,0,0-.54-1.28,2,2,0,0,0-1.4-.49,2,2,0,0,0-.86.17,1.82,1.82,0,0,0-.61.44,1.77,1.77,0,0,0-.36.62,2.2,2.2,0,0,0-.12.71v.17h-.77v-.12a2.93,2.93,0,0,1,.17-1,2.42,2.42,0,0,1,.51-.84,2.47,2.47,0,0,1,.86-.59A3.06,3.06,0,0,1,129.63,124.49Z"/><path class="cls-2" d="M137.14,124.49a3.17,3.17,0,0,1,.94.13,2.34,2.34,0,0,1,.75.38,2.14,2.14,0,0,1,.54.62,2.49,2.49,0,0,1,.3.83h-.78a1.7,1.7,0,0,0-.19-.51,1.45,1.45,0,0,0-.35-.42,1.67,1.67,0,0,0-.52-.28,2.16,2.16,0,0,0-.69-.1,2,2,0,0,0-1,.25,2.1,2.1,0,0,0-.75.75,3.82,3.82,0,0,0-.45,1.21,8,8,0,0,0-.15,1.65h0a2.58,2.58,0,0,1,2.31-1.44,2.74,2.74,0,0,1,2.05.81,2.83,2.83,0,0,1,.8,2.08A2.84,2.84,0,0,1,137,133.4a3.09,3.09,0,0,1-1.41-.29,2.31,2.31,0,0,1-.93-.84,4.2,4.2,0,0,1-.52-1.39,10.4,10.4,0,0,1-.17-2.05,8.43,8.43,0,0,1,.07-1.06,5.56,5.56,0,0,1,.22-1,4.46,4.46,0,0,1,.4-.89,2.83,2.83,0,0,1,.6-.72,2.66,2.66,0,0,1,.82-.48A3.07,3.07,0,0,1,137.14,124.49Zm-2.23,6a2.25,2.25,0,0,0,.57,1.63,2.11,2.11,0,0,0,1.59.59,1.91,1.91,0,0,0,1.49-.66,2.26,2.26,0,0,0,.59-1.56,2.4,2.4,0,0,0-.57-1.64,1.93,1.93,0,0,0-1.52-.65,2,2,0,0,0-1.54.63A2.3,2.3,0,0,0,134.91,130.52Z"/><path class="cls-2" d="M145.83,131.06v2.15h-.71v-2.15h-4v-.75l4-5.75h.7v5.85h1.3v.66Zm-.71-5.36h0l-3.27,4.71h3.29Z"/><path class="cls-2" d="M129.7,164.21v-6.43h-2.29v-.56q.53,0,.9-.06a2.36,2.36,0,0,0,.57-.13,1.3,1.3,0,0,0,.64-.52,2.46,2.46,0,0,0,.31-1h.63v8.65Z"/><path class="cls-2" d="M138.56,162.06v2.15h-.71v-2.15h-4v-.75l4-5.75h.7v5.85h1.3v.66Zm-.71-5.36h0l-3.27,4.71h3.29Z"/><path class="cls-2" d="M146.6,155.66v.72h-3.78l-.54,2.78,0,0a2.32,2.32,0,0,1,.82-.52,2.79,2.79,0,0,1,1-.18,3.18,3.18,0,0,1,1.2.22,2.6,2.6,0,0,1,.92.61,2.73,2.73,0,0,1,.59.94,3.43,3.43,0,0,1,.21,1.22,2.81,2.81,0,0,1-.23,1.14,2.94,2.94,0,0,1-1.61,1.56,3.12,3.12,0,0,1-1.2.23,3.29,3.29,0,0,1-1.1-.17,2.59,2.59,0,0,1-.85-.48,2.26,2.26,0,0,1-.56-.74,2.52,2.52,0,0,1-.23-1H142a1.84,1.84,0,0,0,.16.64,1.65,1.65,0,0,0,.4.54,2,2,0,0,0,.62.37,2.29,2.29,0,0,0,.83.14,2.06,2.06,0,0,0,.87-.18,2.14,2.14,0,0,0,.7-.5,2.4,2.4,0,0,0,.46-.75,2.49,2.49,0,0,0,.17-.92,2.41,2.41,0,0,0-.16-.86,2.12,2.12,0,0,0-1.14-1.2,2.2,2.2,0,0,0-.91-.18,2.55,2.55,0,0,0-1.07.23,2.22,2.22,0,0,0-.85.68h-.66l.81-4.38Z"/><path class="cls-2" d="M129.56,186.49a3.57,3.57,0,0,1,1,.13,2.67,2.67,0,0,1,.85.41,2.08,2.08,0,0,1,.6.69,2,2,0,0,1,.23,1,2.22,2.22,0,0,1-.1.66,1.82,1.82,0,0,1-.28.56,1.77,1.77,0,0,1-.45.42,2.14,2.14,0,0,1-.62.27v0a2.06,2.06,0,0,1,1.33.74,2.21,2.21,0,0,1,.45,1.39,2.41,2.41,0,0,1-.84,1.91,2.78,2.78,0,0,1-1,.55,3.78,3.78,0,0,1-1.21.18,3.66,3.66,0,0,1-1.12-.17,2.8,2.8,0,0,1-.92-.49,2.34,2.34,0,0,1-.63-.78,2.28,2.28,0,0,1-.23-1v-.18h.79v.16a1.74,1.74,0,0,0,.56,1.28,2,2,0,0,0,.66.4,2.45,2.45,0,0,0,.88.15,2.7,2.7,0,0,0,.91-.13,2.21,2.21,0,0,0,.69-.4,1.7,1.7,0,0,0,.64-1.38,1.89,1.89,0,0,0-.14-.75,1.64,1.64,0,0,0-.42-.58,2.22,2.22,0,0,0-1.53-.5H129v-.66h.69a1.86,1.86,0,0,0,1.21-.42,1.42,1.42,0,0,0,.52-1.15,1.59,1.59,0,0,0-.15-.71,1.48,1.48,0,0,0-.4-.51,1.73,1.73,0,0,0-.6-.31,2.56,2.56,0,0,0-.73-.1,2.1,2.1,0,0,0-.81.15,1.8,1.8,0,0,0-.61.41,1.82,1.82,0,0,0-.39.6,2,2,0,0,0-.13.73h-.78a2.44,2.44,0,0,1,.18-.92,2.53,2.53,0,0,1,.53-.82,2.7,2.7,0,0,1,.86-.59A2.82,2.82,0,0,1,129.56,186.49Z"/><path class="cls-2" d="M138.56,193.06v2.15h-.71v-2.15h-4v-.75l4-5.75h.7v5.85h1.3v.66Zm-.71-5.36h0l-3.27,4.71h3.29Z"/><path class="cls-2" d="M142.93,193.94v1.27h-1.11v-1.27Z"/><path class="cls-2" d="M147.91,195.21v-6.43h-2.29v-.56q.53,0,.9-.06a2.36,2.36,0,0,0,.57-.13,1.3,1.3,0,0,0,.64-.52,2.46,2.46,0,0,0,.31-1h.63v8.65Z"/><path class="cls-2" d="M156.13,189a3.33,3.33,0,0,1-.13,1,2,2,0,0,1-.37.71,1.57,1.57,0,0,1-.6.45,2.06,2.06,0,0,1-.81.15,1.75,1.75,0,0,1-1.42-.59,3.09,3.09,0,0,1,0-3.36,1.75,1.75,0,0,1,1.41-.59,2.08,2.08,0,0,1,.82.15,1.54,1.54,0,0,1,.6.45,2,2,0,0,1,.37.71A3.34,3.34,0,0,1,156.13,189Zm-.64,0a3,3,0,0,0-.06-.61,1.82,1.82,0,0,0-.21-.56,1.25,1.25,0,0,0-.4-.41,1.19,1.19,0,0,0-1.53.29,2.63,2.63,0,0,0,0,2.56,1.23,1.23,0,0,0,1.54.3,1.2,1.2,0,0,0,.39-.39,1.73,1.73,0,0,0,.22-.55A3.23,3.23,0,0,0,155.49,189Zm-1.15,6.6h-.57l5.44-9.11h.56Zm7.06-2.5a3.33,3.33,0,0,1-.13,1,2,2,0,0,1-.37.71,1.57,1.57,0,0,1-.6.45,2.06,2.06,0,0,1-.81.15,2,2,0,0,1-.84-.17,1.63,1.63,0,0,1-.59-.47,2.08,2.08,0,0,1-.35-.72,3.62,3.62,0,0,1,0-1.86,2,2,0,0,1,.37-.71,1.54,1.54,0,0,1,.6-.45,2.28,2.28,0,0,1,1.64,0,1.54,1.54,0,0,1,.6.45,2,2,0,0,1,.37.71A3.34,3.34,0,0,1,161.4,193.12Zm-.64,0a3,3,0,0,0-.06-.61,1.82,1.82,0,0,0-.21-.56,1.25,1.25,0,0,0-.4-.41,1.2,1.2,0,0,0-1.54.29,2.17,2.17,0,0,0-.33,1.29,2.1,2.1,0,0,0,.33,1.26,1.21,1.21,0,0,0,1.53.3,1.2,1.2,0,0,0,.39-.39,1.73,1.73,0,0,0,.22-.55A3.23,3.23,0,0,0,160.76,193.14Z"/><rect class="cls-1" x="94.56" y="20.5" width="44.44" height="216.5"/><rect class="cls-3" x="139" y="20.5" width="4" height="216.5"/><rect class="cls-4" x="30.5" y="128.5" width="216" height="1" transform="translate(9.5 267.5) rotate(-90)"/><rect class="cls-5" x="139" y="52" width="419" height="30"/><rect class="cls-6" x="139" y="21" width="419" height="30"/><rect class="cls-7" x="19.5" y="20.5" width="119" height="31"/><path class="cls-8" d="M138,21V51H20V21H138m1-1H19V52H139V20Z"/><rect class="cls-7" x="19.5" y="51.5" width="119" height="31"/><path class="cls-8" d="M138,52V82H20V52H138m1-1H19V83H139V51Z"/><rect class="cls-7" x="19.5" y="82.5" width="119" height="31"/><path class="cls-8" d="M138,83v30H20V83H138m1-1H19v32H139V82Z"/><rect class="cls-7" x="19.5" y="113.5" width="119" height="31"/><path class="cls-8" d="M138,114v30H20V114H138m1-1H19v32H139V113Z"/><rect class="cls-7" x="19.5" y="144.5" width="119" height="31"/><path class="cls-8" d="M138,145v30H20V145H138m1-1H19v32H139V144Z"/><rect class="cls-7" x="19.5" y="175.5" width="119" height="31"/><path class="cls-8" d="M138,176v30H20V176H138m1-1H19v32H139V175Z"/><rect class="cls-7" x="19.5" y="206.5" width="119" height="31"/><path class="cls-8" d="M138,207v30H20V207H138m1-1H19v32H139V206Z"/><rect class="cls-6" x="139" y="52" width="419" height="30"/><rect class="cls-6" x="139" y="83" width="419" height="30"/><rect class="cls-6" x="139" y="114" width="419" height="30"/><rect class="cls-9" x="140" y="20" width="419" height="1"/><rect class="cls-9" x="139" y="82" width="419" height="1"/><rect class="cls-9" x="139" y="51" width="419" height="1"/><rect class="cls-9" x="139" y="113" width="419" height="1"/><rect class="cls-6" x="139" y="114" width="419" height="30"/><rect class="cls-9" x="139" y="144" width="419" height="1"/><rect class="cls-5" x="139" y="145" width="419" height="30"/><rect class="cls-6" x="139" y="145" width="419" height="30"/><rect class="cls-6" x="139" y="176" width="419" height="30"/><rect class="cls-6" x="139" y="207" width="419" height="30"/><rect class="cls-9" x="139" y="175" width="419" height="1"/><rect class="cls-9" x="139" y="206" width="419" height="1"/><rect class="cls-6" x="139" y="207" width="419" height="30"/><rect class="cls-9" x="140" y="237" width="418" height="1"/><path class="cls-10" d="M38.4,35.27a2,2,0,0,1-1.35,2,2.8,2.8,0,0,1-.95.15h-2v2.74H32.85V33.07H36.1a2.33,2.33,0,0,1,1.67.6A2.09,2.09,0,0,1,38.4,35.27Zm-1.22,0a1.14,1.14,0,0,0-.35-.91,1.65,1.65,0,0,0-1.09-.3H34.1v2.42h1.67a2.34,2.34,0,0,0,.6-.07,1.07,1.07,0,0,0,.81-1.14Z"/><path class="cls-10" d="M43.88,40.21l-.62-1.82h-3l-.62,1.82H38.4L41,33.08h1.69l2.52,7.13ZM41.81,34h0l-1.17,3.44h2.33Z"/><path class="cls-10" d="M51.94,35a1.91,1.91,0,0,1-.42,1.28,1.47,1.47,0,0,1-.35.31,2,2,0,0,1-.46.21v0a1.44,1.44,0,0,1,.49.21,1.19,1.19,0,0,1,.33.35,1.63,1.63,0,0,1,.21.52,4.27,4.27,0,0,1,.08.57c0,.2,0,.4,0,.61a3.91,3.91,0,0,0,.08.62,1.35,1.35,0,0,0,.2.52H50.86a3.63,3.63,0,0,1-.19-1.12,2.68,2.68,0,0,0-.38-1.47,1.13,1.13,0,0,0-.88-.34h-2v2.92H46.17V33.07h3.68a2.14,2.14,0,0,1,1.48.53A1.8,1.8,0,0,1,51.94,35Zm-1.25.2a1.1,1.1,0,0,0-.32-.86,1.3,1.3,0,0,0-.89-.28H47.42v2.29h2.05a1.27,1.27,0,0,0,.85-.27A1.08,1.08,0,0,0,50.69,35.21Z"/><path class="cls-10" d="M58.4,40.21l-.62-1.82h-3l-.62,1.82H52.93l2.57-7.13h1.69l2.52,7.13ZM56.33,34h0l-1.17,3.44h2.33Z"/><path class="cls-10" d="M67.05,40.21V34.48h0l-2,5.73H63.93l-2-5.7h0v5.7H60.69V33.08h1.83l2,5.56h0l1.91-5.56h1.82v7.13Z"/><path class="cls-10" d="M75.17,33.08v1.05H71.23V36h3.64v1H71.23v2.13h4v1H70V33.08Z"/><path class="cls-10" d="M81.77,33.07v1.05H79.5v6.08H78.25V34.13H76V33.07Z"/><path class="cls-10" d="M88,33.08v1.05H84V36h3.64v1H84v2.13h4v1H82.78V33.08Z"/><path class="cls-10" d="M95.12,35a1.91,1.91,0,0,1-.42,1.28,1.45,1.45,0,0,1-.35.31,2,2,0,0,1-.46.21v0a1.44,1.44,0,0,1,.49.21,1.19,1.19,0,0,1,.33.35,1.63,1.63,0,0,1,.21.52,4.27,4.27,0,0,1,.08.57c0,.2,0,.4,0,.61a3.91,3.91,0,0,0,.08.62,1.37,1.37,0,0,0,.2.52H94a3.63,3.63,0,0,1-.19-1.12,2.67,2.67,0,0,0-.38-1.47,1.13,1.13,0,0,0-.88-.34h-2v2.92H89.36V33.07H93a2.14,2.14,0,0,1,1.48.53A1.8,1.8,0,0,1,95.12,35Zm-1.25.2a1.09,1.09,0,0,0-.32-.86,1.3,1.3,0,0,0-.89-.28H90.61v2.29h2.05a1.27,1.27,0,0,0,.85-.27A1.08,1.08,0,0,0,93.87,35.21Z"/><path class="cls-10" d="M33.36,64.07l1.86,5.73h0l1.86-5.73h1.3l-2.47,7.14H34.5l-2.44-7.14Z"/><path class="cls-10" d="M43.64,71.21,43,69.39h-3l-.62,1.82H38.17l2.57-7.13h1.69l2.52,7.13ZM41.57,65h0l-1.17,3.44h2.33Z"/><path class="cls-10" d="M47.19,64.07v6.08h3.67v1.05H45.94V64.07Z"/><path class="cls-10" d="M53,64.07v4.48a1.89,1.89,0,0,0,.41,1.33,1.68,1.68,0,0,0,1.29.44A1.73,1.73,0,0,0,56,69.89a1.86,1.86,0,0,0,.41-1.34V64.07h1.25V68.6a2.74,2.74,0,0,1-.75,2,3,3,0,0,1-2.2.75,4,4,0,0,1-1.27-.19,2.33,2.33,0,0,1-1.5-1.46,3.37,3.37,0,0,1-.18-1.13V64.07Z"/><path class="cls-10" d="M64.52,64.08v1.05H60.58V67h3.64v1H60.58v2.13h4v1H59.33V64.08Z"/><path class="cls-10" d="M33.36,95.07l1.86,5.73h0l1.86-5.73h1.3l-2.47,7.14H34.5l-2.44-7.14Z"/><path class="cls-10" d="M43.64,102.21,43,100.39h-3l-.62,1.82H38.17l2.57-7.13h1.69l2.52,7.13ZM41.57,96h0l-1.17,3.44h2.33Z"/><path class="cls-10" d="M47.19,95.07v6.08h3.67v1.05H45.94V95.07Z"/><path class="cls-10" d="M53,95.07v4.48a1.89,1.89,0,0,0,.41,1.33,1.68,1.68,0,0,0,1.29.44,1.73,1.73,0,0,0,1.29-.42,1.86,1.86,0,0,0,.41-1.34V95.07h1.25V99.6a2.74,2.74,0,0,1-.75,2,3,3,0,0,1-2.2.75,4,4,0,0,1-1.27-.19,2.33,2.33,0,0,1-1.5-1.46,3.37,3.37,0,0,1-.18-1.13V95.07Z"/><path class="cls-10" d="M64.52,95.08v1.05H60.58V98h3.64v1H60.58v2.13h4v1H59.33V95.08Z"/><path class="cls-10" d="M75.09,102.21V96.48h0l-2,5.73H72l-2-5.7h0v5.7H68.73V95.08h1.83l2,5.56h0l1.91-5.56h1.82v7.13Z"/><path class="cls-10" d="M79.28,95.07v7.14H78V95.07Z"/><path class="cls-10" d="M82.31,95.07l3.4,5.3h0v-5.3h1.19v7.14H85.64l-3.4-5.3h0v5.3H81V95.07Z"/><path class="cls-10" d="M33.36,126.07l1.86,5.73h0l1.86-5.73h1.3l-2.47,7.14H34.5l-2.44-7.14Z"/><path class="cls-10" d="M43.64,133.21,43,131.39h-3l-.62,1.82H38.17l2.57-7.13h1.69l2.52,7.13ZM41.57,127h0l-1.17,3.44h2.33Z"/><path class="cls-10" d="M47.19,126.07v6.08h3.67v1.05H45.94v-7.14Z"/><path class="cls-10" d="M53,126.07v4.48a1.89,1.89,0,0,0,.41,1.33,1.68,1.68,0,0,0,1.29.44,1.73,1.73,0,0,0,1.29-.42,1.86,1.86,0,0,0,.41-1.34v-4.48h1.25v4.53a2.74,2.74,0,0,1-.75,2,3,3,0,0,1-2.2.75,4,4,0,0,1-1.27-.19,2.33,2.33,0,0,1-1.5-1.46,3.37,3.37,0,0,1-.18-1.13v-4.53Z"/><path class="cls-10" d="M64.52,126.08v1.05H60.58V129h3.64v1H60.58v2.13h4v1H59.33v-7.13Z"/><path class="cls-10" d="M75.09,133.21v-5.73h0l-2,5.73H72l-2-5.7h0v5.7H68.73v-7.13h1.83l2,5.56h0l1.91-5.56h1.82v7.13Z"/><path class="cls-10" d="M82.73,133.21l-.62-1.82h-3l-.62,1.82H77.26l2.57-7.13h1.69L84,133.21ZM80.66,127h0l-1.17,3.44H81.8Z"/><path class="cls-10" d="M86.21,126.07l1.62,2.53,1.68-2.53h1.38l-2.34,3.43,2.52,3.71H89.57l-1.78-2.71L86,133.21H84.57l2.52-3.72-2.34-3.42Z"/><path class="cls-10" d="M36,156.92a3.75,3.75,0,0,1,1.1.15,2.88,2.88,0,0,1,.89.44,2.47,2.47,0,0,1,.64.71,2.67,2.67,0,0,1,.34.94H37.7a1.58,1.58,0,0,0-.21-.47,1.51,1.51,0,0,0-.37-.38,1.84,1.84,0,0,0-.52-.26A2.12,2.12,0,0,0,36,158a2.08,2.08,0,0,0-1,.22,2,2,0,0,0-.7.6,2.59,2.59,0,0,0-.42.86,3.75,3.75,0,0,0-.14,1,3.67,3.67,0,0,0,.13,1,2.54,2.54,0,0,0,.4.85,2,2,0,0,0,1.7.83,2,2,0,0,0,.71-.12,1.65,1.65,0,0,0,.92-.84,2.23,2.23,0,0,0,.2-.65H39a3.52,3.52,0,0,1-.29,1,2.65,2.65,0,0,1-1.52,1.41,3.45,3.45,0,0,1-1.24.21,3.55,3.55,0,0,1-1.43-.28,3.22,3.22,0,0,1-1.1-.78,3.45,3.45,0,0,1-.7-1.17,4.33,4.33,0,0,1-.24-1.48,4.43,4.43,0,0,1,.23-1.43,3.56,3.56,0,0,1,.67-1.19,3.19,3.19,0,0,1,1.09-.82A3.5,3.5,0,0,1,36,156.92Z"/><path class="cls-10" d="M41.58,157.08v2.87h3.37v-2.87h1.24v7.13H44.95V161H41.58v3.21H40.33v-7.13Z"/><path class="cls-10" d="M52.66,164.21,52,162.39h-3l-.62,1.82H47.19l2.57-7.13h1.69L54,164.21ZM50.59,158h0l-1.17,3.44h2.33Z"/><path class="cls-10" d="M56.23,157.07l3.4,5.3h0v-5.3h1.19v7.14H59.57l-3.4-5.3h0v5.3H55v-7.14Z"/><path class="cls-10" d="M65.68,156.91a3.65,3.65,0,0,1,1.07.15,2.94,2.94,0,0,1,.9.45,2.55,2.55,0,0,1,.66.72,2.72,2.72,0,0,1,.36,1H67.46a1.56,1.56,0,0,0-.24-.53,1.59,1.59,0,0,0-.4-.39,1.77,1.77,0,0,0-.52-.24,2.31,2.31,0,0,0-.63-.08,2.11,2.11,0,0,0-1,.21,2,2,0,0,0-.69.58,2.5,2.5,0,0,0-.41.86,3.92,3.92,0,0,0-.13,1,3.84,3.84,0,0,0,.13,1,2.55,2.55,0,0,0,.39.85,2,2,0,0,0,.69.6,2.07,2.07,0,0,0,1,.23,2.33,2.33,0,0,0,.8-.13,1.71,1.71,0,0,0,.61-.38,1.77,1.77,0,0,0,.4-.61,2.51,2.51,0,0,0,.17-.82H65.77v-1h3v3.78H68l-.13-1h0a2.44,2.44,0,0,1-.93.87,2.68,2.68,0,0,1-1.24.28,3.43,3.43,0,0,1-1.42-.28,3.16,3.16,0,0,1-1.08-.78,3.49,3.49,0,0,1-.69-1.18,4.36,4.36,0,0,1-.24-1.47,4.49,4.49,0,0,1,.23-1.46,3.52,3.52,0,0,1,.68-1.19,3.21,3.21,0,0,1,1.09-.81A3.46,3.46,0,0,1,65.68,156.91Z"/><path class="cls-10" d="M75.61,157.08v1.05H71.67V160h3.64v1H71.67v2.13h4v1H70.42v-7.13Z"/><path class="cls-10" d="M36,187.92a3.75,3.75,0,0,1,1.1.15,2.88,2.88,0,0,1,.89.44,2.47,2.47,0,0,1,.64.71,2.67,2.67,0,0,1,.34.94H37.7a1.58,1.58,0,0,0-.21-.47,1.51,1.51,0,0,0-.37-.38,1.84,1.84,0,0,0-.52-.26A2.12,2.12,0,0,0,36,189a2.08,2.08,0,0,0-1,.22,2,2,0,0,0-.7.6,2.59,2.59,0,0,0-.42.86,3.75,3.75,0,0,0-.14,1,3.67,3.67,0,0,0,.13,1,2.54,2.54,0,0,0,.4.85,2,2,0,0,0,1.7.83,2,2,0,0,0,.71-.12,1.65,1.65,0,0,0,.92-.84,2.23,2.23,0,0,0,.2-.65H39a3.52,3.52,0,0,1-.29,1,2.65,2.65,0,0,1-1.52,1.41,3.45,3.45,0,0,1-1.24.21,3.55,3.55,0,0,1-1.43-.28,3.22,3.22,0,0,1-1.1-.78,3.45,3.45,0,0,1-.7-1.17,4.33,4.33,0,0,1-.24-1.48,4.43,4.43,0,0,1,.23-1.43,3.56,3.56,0,0,1,.67-1.19,3.19,3.19,0,0,1,1.09-.82A3.5,3.5,0,0,1,36,187.92Z"/><path class="cls-10" d="M41.58,188.08v2.87h3.37v-2.87h1.24v7.13H44.95V192H41.58v3.21H40.33v-7.13Z"/><path class="cls-10" d="M52.66,195.21,52,193.39h-3l-.62,1.82H47.19l2.57-7.13h1.69L54,195.21ZM50.59,189h0l-1.17,3.44h2.33Z"/><path class="cls-10" d="M56.23,188.07l3.4,5.3h0v-5.3h1.19v7.14H59.57l-3.4-5.3h0v5.3H55v-7.14Z"/><path class="cls-10" d="M65.68,187.91a3.65,3.65,0,0,1,1.07.15,2.94,2.94,0,0,1,.9.45,2.55,2.55,0,0,1,.66.72,2.72,2.72,0,0,1,.36,1H67.46a1.56,1.56,0,0,0-.24-.53,1.59,1.59,0,0,0-.4-.39,1.77,1.77,0,0,0-.52-.24,2.31,2.31,0,0,0-.63-.08,2.11,2.11,0,0,0-1,.21,2,2,0,0,0-.69.58,2.5,2.5,0,0,0-.41.86,3.92,3.92,0,0,0-.13,1,3.84,3.84,0,0,0,.13,1,2.55,2.55,0,0,0,.39.85,2,2,0,0,0,.69.6,2.07,2.07,0,0,0,1,.23,2.33,2.33,0,0,0,.8-.13,1.71,1.71,0,0,0,.61-.38,1.77,1.77,0,0,0,.4-.61,2.51,2.51,0,0,0,.17-.82H65.77v-1h3v3.78H68l-.13-1h0a2.44,2.44,0,0,1-.93.87,2.68,2.68,0,0,1-1.24.28,3.43,3.43,0,0,1-1.42-.28,3.16,3.16,0,0,1-1.08-.78,3.49,3.49,0,0,1-.69-1.18,4.36,4.36,0,0,1-.24-1.47,4.49,4.49,0,0,1,.23-1.46,3.52,3.52,0,0,1,.68-1.19,3.21,3.21,0,0,1,1.09-.81A3.46,3.46,0,0,1,65.68,187.91Z"/><path class="cls-10" d="M75.61,188.08v1.05H71.67V191h3.64v1H71.67v2.13h4v1H70.42v-7.13Z"/><path class="cls-10" d="M83,190.07a2.68,2.68,0,0,1-.11.8,1.62,1.62,0,0,1-.32.59,1.36,1.36,0,0,1-.52.37,1.86,1.86,0,0,1-.7.12,1.51,1.51,0,0,1-1.22-.49A2.16,2.16,0,0,1,79.7,190a2.77,2.77,0,0,1,.1-.77,1.79,1.79,0,0,1,.31-.62,1.42,1.42,0,0,1,.52-.41,1.68,1.68,0,0,1,.73-.15,1.47,1.47,0,0,1,1.21.51A2.26,2.26,0,0,1,83,190.07Zm-.84,0a3.08,3.08,0,0,0,0-.54,1.41,1.41,0,0,0-.14-.42.72.72,0,0,0-.24-.27.66.66,0,0,0-.36-.1.67.67,0,0,0-.6.33,1.9,1.9,0,0,0-.21,1,3,3,0,0,0,0,.45,1.33,1.33,0,0,0,.12.4.77.77,0,0,0,.24.29.74.74,0,0,0,1-.22A1.86,1.86,0,0,0,82.15,190.07ZM82,195.47h-.73l4.28-7.5h.71Zm5.85-2a2.79,2.79,0,0,1-.1.76,1.74,1.74,0,0,1-.31.61,1.42,1.42,0,0,1-.51.41,1.71,1.71,0,0,1-.74.15,1.76,1.76,0,0,1-.71-.13,1.31,1.31,0,0,1-.51-.39,1.72,1.72,0,0,1-.31-.61,2.94,2.94,0,0,1-.1-.81,2.68,2.68,0,0,1,.1-.76A1.71,1.71,0,0,1,85,192a1.45,1.45,0,0,1,.52-.4,1.71,1.71,0,0,1,.73-.15,1.47,1.47,0,0,1,1.21.5A2.21,2.21,0,0,1,87.87,193.43Zm-.84,0a2.79,2.79,0,0,0,0-.51,1.39,1.39,0,0,0-.14-.41.73.73,0,0,0-.24-.27.66.66,0,0,0-.36-.1q-.81,0-.81,1.28a3.11,3.11,0,0,0,0,.45,1.45,1.45,0,0,0,.12.42.81.81,0,0,0,.24.3.63.63,0,0,0,.39.12.68.68,0,0,0,.37-.09.73.73,0,0,0,.25-.26A1.3,1.3,0,0,0,87,194,2.83,2.83,0,0,0,87,193.42Z"/><path class="cls-10" d="M36,218.92a3.75,3.75,0,0,1,1.1.15,2.88,2.88,0,0,1,.89.44,2.47,2.47,0,0,1,.64.71,2.67,2.67,0,0,1,.34.94H37.7a1.58,1.58,0,0,0-.21-.47,1.51,1.51,0,0,0-.37-.38,1.84,1.84,0,0,0-.52-.26A2.12,2.12,0,0,0,36,220a2.08,2.08,0,0,0-1,.22,2,2,0,0,0-.7.6,2.59,2.59,0,0,0-.42.86,3.75,3.75,0,0,0-.14,1,3.67,3.67,0,0,0,.13,1,2.54,2.54,0,0,0,.4.85,2,2,0,0,0,1.7.83,2,2,0,0,0,.71-.12,1.65,1.65,0,0,0,.92-.84,2.23,2.23,0,0,0,.2-.65H39a3.52,3.52,0,0,1-.29,1,2.65,2.65,0,0,1-1.52,1.41,3.45,3.45,0,0,1-1.24.21,3.55,3.55,0,0,1-1.43-.28,3.22,3.22,0,0,1-1.1-.78,3.45,3.45,0,0,1-.7-1.17,4.33,4.33,0,0,1-.24-1.48,4.43,4.43,0,0,1,.23-1.43,3.56,3.56,0,0,1,.67-1.19,3.19,3.19,0,0,1,1.09-.82A3.5,3.5,0,0,1,36,218.92Z"/><path class="cls-10" d="M46.87,222.66a3.86,3.86,0,0,1-.95,2.66,3.21,3.21,0,0,1-2.51,1.05,3.63,3.63,0,0,1-1.37-.24,3.2,3.2,0,0,1-1.1-.75,3.35,3.35,0,0,1-.75-1.22,4.45,4.45,0,0,1-.25-1.51,3.9,3.9,0,0,1,.95-2.7,3.21,3.21,0,0,1,2.52-1.05,3.68,3.68,0,0,1,1.37.25,3,3,0,0,1,1.1.76,3.36,3.36,0,0,1,.74,1.24A4.77,4.77,0,0,1,46.87,222.66Zm-1.26,0a3.07,3.07,0,0,0-.59-2,2.14,2.14,0,0,0-3.25,0,3.08,3.08,0,0,0-.58,2,3,3,0,0,0,.58,1.91,2.16,2.16,0,0,0,3.26,0A3,3,0,0,0,45.61,222.66Z"/><path class="cls-10" d="M54.59,226.21v-5.73h0l-2,5.73H51.46l-2-5.7h0v5.7H48.23v-7.13h1.83l2,5.56h0L54,219.08h1.82v7.13Z"/><path class="cls-10" d="M63.87,226.21v-5.73h0l-2,5.73H60.75l-2-5.7h0v5.7H57.52v-7.13h1.83l2,5.56h0l1.91-5.56h1.82v7.13Z"/><path class="cls-10" d="M72,219.08v1.05H68.06V222H71.7v1H68.06v2.13h4v1H66.81v-7.13Z"/><path class="cls-10" d="M74.65,219.07l3.4,5.3h0v-5.3h1.19v7.14H78l-3.4-5.3h0v5.3H73.38v-7.14Z"/><path class="cls-10" d="M86.06,219.07v1.05H83.79v6.08H82.55v-6.08H80.28v-1.05Z"/><path class="cls-2" d="M246.48,34.09a2.34,2.34,0,0,1-.7,1.8,2.55,2.55,0,0,1-1.8.64h-3v3.67h-.82V31.64H244a2.53,2.53,0,0,1,1.8.65A2.33,2.33,0,0,1,246.48,34.09Zm-.81,0a1.68,1.68,0,0,0-.5-1.29,2.11,2.11,0,0,0-1.49-.46h-2.74v3.5h2.85a2,2,0,0,0,1.35-.45A1.65,1.65,0,0,0,245.66,34.09Z"/><path class="cls-2" d="M253.37,40.16l-.27,0h-.24a1.37,1.37,0,0,1-.44-.06.65.65,0,0,1-.29-.2.82.82,0,0,1-.16-.36,2.42,2.42,0,0,1,0-.53h0a3,3,0,0,1-1,1,2.79,2.79,0,0,1-1.35.29,2.46,2.46,0,0,1-1.6-.5,1.75,1.75,0,0,1-.6-1.43,1.66,1.66,0,0,1,.66-1.43,6.79,6.79,0,0,1,3-.69,2,2,0,0,0,.44-.08.75.75,0,0,0,.29-.16.59.59,0,0,0,.16-.26,1.28,1.28,0,0,0,0-.38,1.25,1.25,0,0,0-.4-1,2,2,0,0,0-1.31-.34,2.61,2.61,0,0,0-.72.09,1.65,1.65,0,0,0-.53.25,1.13,1.13,0,0,0-.33.39,1.23,1.23,0,0,0-.13.49h-.8a2,2,0,0,1,.22-.78,1.77,1.77,0,0,1,.51-.59,2.43,2.43,0,0,1,.81-.38,4,4,0,0,1,1.09-.13,2.64,2.64,0,0,1,1.83.54,2,2,0,0,1,.59,1.52v3.56a.47.47,0,0,0,.11.33.46.46,0,0,0,.36.12.7.7,0,0,0,.25,0Zm-1.52-3.54h0q-.12.22-.77.31l-.67.1-.74.12a2.67,2.67,0,0,0-1.17.44,1,1,0,0,0-.39.84,1.16,1.16,0,0,0,.43.94,1.6,1.6,0,0,0,1,.35,2.36,2.36,0,0,0,1.63-.58,1.85,1.85,0,0,0,.65-1.44Z"/><path class="cls-2" d="M254.8,40.21V33.65h.74v1.54h0a2.56,2.56,0,0,1,.9-1.2,2.32,2.32,0,0,1,1.38-.43h.29v.8H258a2.22,2.22,0,0,0-1.71.69,2.36,2.36,0,0,0-.64,1.69v3.48Z"/><path class="cls-2" d="M265,40.16l-.27,0h-.24a1.37,1.37,0,0,1-.44-.06.65.65,0,0,1-.29-.2.82.82,0,0,1-.16-.36,2.42,2.42,0,0,1,0-.53h0a3,3,0,0,1-1,1,2.79,2.79,0,0,1-1.35.29,2.46,2.46,0,0,1-1.6-.5,1.75,1.75,0,0,1-.6-1.43,1.66,1.66,0,0,1,.66-1.43,6.79,6.79,0,0,1,3-.69,2,2,0,0,0,.44-.08.75.75,0,0,0,.29-.16.59.59,0,0,0,.16-.26,1.28,1.28,0,0,0,0-.38,1.25,1.25,0,0,0-.4-1,2,2,0,0,0-1.31-.34,2.61,2.61,0,0,0-.72.09,1.65,1.65,0,0,0-.53.25,1.13,1.13,0,0,0-.33.39,1.23,1.23,0,0,0-.13.49h-.8a2,2,0,0,1,.22-.78A1.77,1.77,0,0,1,260,34a2.43,2.43,0,0,1,.81-.38,4,4,0,0,1,1.09-.13,2.64,2.64,0,0,1,1.83.54,2,2,0,0,1,.59,1.52v3.56a.47.47,0,0,0,.11.33.46.46,0,0,0,.36.12.7.7,0,0,0,.25,0Zm-1.52-3.54h0q-.12.22-.77.31l-.67.1-.74.12a2.67,2.67,0,0,0-1.17.44,1,1,0,0,0-.39.84,1.16,1.16,0,0,0,.43.94,1.6,1.6,0,0,0,1,.35,2.36,2.36,0,0,0,1.63-.58,1.85,1.85,0,0,0,.65-1.44Z"/><path class="cls-2" d="M274.75,40.21V35.75a1.73,1.73,0,0,0-.37-1.22,1.85,1.85,0,0,0-2.5.21,2.8,2.8,0,0,0-.45,1.71v3.77h-.81V35.72a1.81,1.81,0,0,0-.34-1.17,1.25,1.25,0,0,0-1-.42,1.72,1.72,0,0,0-1.46.65,2.72,2.72,0,0,0-.5,1.71v3.72h-.8V33.65h.74v1.1h0a2.26,2.26,0,0,1,2.15-1.29,2.44,2.44,0,0,1,.64.08,1.86,1.86,0,0,1,.54.24,1.66,1.66,0,0,1,.42.4,1.87,1.87,0,0,1,.28.55,2.16,2.16,0,0,1,.85-1,2.4,2.4,0,0,1,1.24-.32A2.12,2.12,0,0,1,275,34a2.36,2.36,0,0,1,.54,1.66v4.51Z"/><path class="cls-2" d="M280.31,33.46a2.71,2.71,0,0,1,1.3.29,2.6,2.6,0,0,1,.9.79,3.44,3.44,0,0,1,.52,1.13A5.22,5.22,0,0,1,283.2,37v.13h-5.05a3.58,3.58,0,0,0,.13.94,2.58,2.58,0,0,0,.39.83,2,2,0,0,0,.66.59,1.92,1.92,0,0,0,.95.22,2.44,2.44,0,0,0,.7-.09,2,2,0,0,0,.56-.26,1.76,1.76,0,0,0,.42-.39,2.4,2.4,0,0,0,.29-.49H283a3,3,0,0,1-.38.79,2.48,2.48,0,0,1-.59.6,2.68,2.68,0,0,1-.79.39,3.33,3.33,0,0,1-1,.14,2.94,2.94,0,0,1-1.3-.27,2.56,2.56,0,0,1-.91-.73,3.12,3.12,0,0,1-.54-1.1,5.13,5.13,0,0,1-.18-1.37,4.66,4.66,0,0,1,.18-1.28,3.37,3.37,0,0,1,.54-1.11,2.74,2.74,0,0,1,.92-.78A2.79,2.79,0,0,1,280.31,33.46Zm2.09,3a3,3,0,0,0-.16-.85,2.44,2.44,0,0,0-.41-.75,2.07,2.07,0,0,0-.65-.54,1.84,1.84,0,0,0-.88-.21,1.84,1.84,0,0,0-1.5.7,2.69,2.69,0,0,0-.42.75,4.32,4.32,0,0,0-.23.9Z"/><path class="cls-2" d="M287.52,40.27h-.66a3,3,0,0,1-.68-.06,1,1,0,0,1-.45-.23.89.89,0,0,1-.25-.43,2.65,2.65,0,0,1-.07-.68V34.32h-1.32v-.67h1.32v-2h.8v2h1.5v.67h-1.5V38.8a1.75,1.75,0,0,0,0,.34.64.64,0,0,0,.11.26.5.5,0,0,0,.21.16.87.87,0,0,0,.35.06h.6l.21,0v.68Z"/><path class="cls-2" d="M291.88,33.46a2.71,2.71,0,0,1,1.3.29,2.6,2.6,0,0,1,.9.79,3.44,3.44,0,0,1,.52,1.13,5.22,5.22,0,0,1,.17,1.34v.13h-5.05a3.58,3.58,0,0,0,.13.94,2.58,2.58,0,0,0,.39.83,2,2,0,0,0,.66.59,1.92,1.92,0,0,0,.95.22,2.44,2.44,0,0,0,.7-.09,2,2,0,0,0,.56-.26,1.76,1.76,0,0,0,.42-.39,2.4,2.4,0,0,0,.29-.49h.79a3,3,0,0,1-.38.79,2.48,2.48,0,0,1-.59.6,2.68,2.68,0,0,1-.79.39,3.33,3.33,0,0,1-1,.14,2.94,2.94,0,0,1-1.3-.27,2.56,2.56,0,0,1-.91-.73,3.12,3.12,0,0,1-.54-1.1,5.13,5.13,0,0,1-.18-1.37,4.66,4.66,0,0,1,.18-1.28,3.37,3.37,0,0,1,.54-1.11,2.74,2.74,0,0,1,.92-.78A2.79,2.79,0,0,1,291.88,33.46Zm2.09,3a3,3,0,0,0-.16-.85,2.44,2.44,0,0,0-.41-.75,2.07,2.07,0,0,0-.65-.54,1.84,1.84,0,0,0-.88-.21,1.84,1.84,0,0,0-1.5.7,2.69,2.69,0,0,0-.42.75,4.32,4.32,0,0,0-.23.9Z"/><path class="cls-2" d="M296.44,40.21V33.65h.74v1.54h0a2.56,2.56,0,0,1,.9-1.2,2.32,2.32,0,0,1,1.38-.43h.29v.8h-.18a2.22,2.22,0,0,0-1.71.69,2.36,2.36,0,0,0-.64,1.69v3.48Z"/><path class="cls-2" d="M307.1,31.49a2.81,2.81,0,0,1,2,.66,2.28,2.28,0,0,1,.73,1.78,2.82,2.82,0,0,1-.55,1.66,7,7,0,0,1-2,1.66,8.29,8.29,0,0,0-1.66,1.23,2,2,0,0,0-.56,1h4.81v.72h-5.7a3,3,0,0,1,.56-1.74,6.61,6.61,0,0,1,1.93-1.66,8.78,8.78,0,0,0,1.89-1.48,2.11,2.11,0,0,0,.51-1.41,1.64,1.64,0,0,0-.54-1.28,2,2,0,0,0-1.4-.49,2,2,0,0,0-.86.17,1.82,1.82,0,0,0-.61.44,1.77,1.77,0,0,0-.36.62,2.21,2.21,0,0,0-.12.71v.17h-.77v-.12a2.93,2.93,0,0,1,.17-1,2.42,2.42,0,0,1,.51-.84,2.47,2.47,0,0,1,.86-.59A3.06,3.06,0,0,1,307.1,31.49Z"/><path class="cls-2" d="M244.3,69.06v2.15h-.71V69.06h-4v-.75l4-5.75h.7V68.4h1.3v.66Zm-.71-5.36h0l-3.27,4.71h3.29Z"/><path class="cls-2" d="M250.14,62.49a3.17,3.17,0,0,1,.94.13,2.35,2.35,0,0,1,.75.38,2.13,2.13,0,0,1,.54.62,2.5,2.5,0,0,1,.3.84h-.78a1.7,1.7,0,0,0-.19-.51,1.46,1.46,0,0,0-.35-.42,1.67,1.67,0,0,0-.52-.28,2.16,2.16,0,0,0-.69-.1,2,2,0,0,0-1,.25,2.11,2.11,0,0,0-.75.75,3.82,3.82,0,0,0-.45,1.21,8,8,0,0,0-.15,1.65h0a2.58,2.58,0,0,1,2.31-1.44,2.74,2.74,0,0,1,2.05.81,2.83,2.83,0,0,1,.8,2.08A2.84,2.84,0,0,1,250,71.4a3.09,3.09,0,0,1-1.41-.29,2.31,2.31,0,0,1-.93-.84,4.2,4.2,0,0,1-.52-1.39,10.4,10.4,0,0,1-.17-2.05,8.44,8.44,0,0,1,.07-1.06,5.55,5.55,0,0,1,.22-1,4.46,4.46,0,0,1,.4-.89,2.83,2.83,0,0,1,.6-.72,2.67,2.67,0,0,1,.82-.48A3.07,3.07,0,0,1,250.14,62.49Zm-2.23,6a2.25,2.25,0,0,0,.57,1.63,2.11,2.11,0,0,0,1.59.59,1.91,1.91,0,0,0,1.49-.66,2.26,2.26,0,0,0,.59-1.56,2.4,2.4,0,0,0-.57-1.64,1.93,1.93,0,0,0-1.52-.65,2,2,0,0,0-1.54.63A2.3,2.3,0,0,0,247.91,68.52Z"/><path class="cls-2" d="M259.94,62.66v.71a13.69,13.69,0,0,0-1.42,1.75A13.2,13.2,0,0,0,257.45,67a11.5,11.5,0,0,0-.7,2,12.2,12.2,0,0,0-.31,2.14h-.84a12.82,12.82,0,0,1,.32-2.12,10.52,10.52,0,0,1,.67-1.93,15.67,15.67,0,0,1,2.58-3.79h-4.79v-.71Z"/><path class="cls-2" d="M242.88,93.49a3.17,3.17,0,0,1,.94.13,2.35,2.35,0,0,1,.75.38,2.13,2.13,0,0,1,.54.62,2.5,2.5,0,0,1,.3.84h-.78a1.7,1.7,0,0,0-.19-.51,1.46,1.46,0,0,0-.35-.42,1.67,1.67,0,0,0-.52-.28,2.16,2.16,0,0,0-.69-.1,2,2,0,0,0-1,.25,2.11,2.11,0,0,0-.75.75,3.82,3.82,0,0,0-.45,1.21,8,8,0,0,0-.15,1.65h0a2.58,2.58,0,0,1,2.31-1.44,2.74,2.74,0,0,1,2.05.81,2.83,2.83,0,0,1,.8,2.08,2.84,2.84,0,0,1-2.94,2.94,3.09,3.09,0,0,1-1.41-.29,2.31,2.31,0,0,1-.93-.84,4.2,4.2,0,0,1-.52-1.39,10.4,10.4,0,0,1-.17-2.05,8.44,8.44,0,0,1,.07-1.06,5.55,5.55,0,0,1,.22-1,4.46,4.46,0,0,1,.4-.89,2.83,2.83,0,0,1,.6-.72,2.67,2.67,0,0,1,.82-.48A3.07,3.07,0,0,1,242.88,93.49Zm-2.23,6a2.25,2.25,0,0,0,.57,1.63,2.11,2.11,0,0,0,1.59.59,1.91,1.91,0,0,0,1.49-.66,2.26,2.26,0,0,0,.59-1.56,2.4,2.4,0,0,0-.57-1.64,1.93,1.93,0,0,0-1.52-.65,2,2,0,0,0-1.54.63A2.3,2.3,0,0,0,240.65,99.52Z"/><path class="cls-2" d="M245.06,124.66v.72h-3.78l-.54,2.78,0,0a2.32,2.32,0,0,1,.82-.52,2.79,2.79,0,0,1,1-.18,3.18,3.18,0,0,1,1.2.22,2.6,2.6,0,0,1,.92.61,2.73,2.73,0,0,1,.59.94,3.43,3.43,0,0,1,.21,1.22,2.81,2.81,0,0,1-.23,1.14,2.94,2.94,0,0,1-1.61,1.56,3.12,3.12,0,0,1-1.2.23,3.29,3.29,0,0,1-1.1-.17,2.58,2.58,0,0,1-.85-.48,2.26,2.26,0,0,1-.56-.74,2.52,2.52,0,0,1-.23-1h.79a1.84,1.84,0,0,0,.16.64,1.65,1.65,0,0,0,.4.54,2,2,0,0,0,.62.37,2.29,2.29,0,0,0,.83.14,2.06,2.06,0,0,0,.87-.19,2.14,2.14,0,0,0,.7-.5,2.4,2.4,0,0,0,.46-.75,2.49,2.49,0,0,0,.17-.92,2.41,2.41,0,0,0-.16-.87,2.12,2.12,0,0,0-1.14-1.2,2.2,2.2,0,0,0-.91-.18,2.55,2.55,0,0,0-1.07.22,2.22,2.22,0,0,0-.85.68h-.66l.81-4.38Z"/><path class="cls-2" d="M249.83,124.49a3.57,3.57,0,0,1,1,.13,2.67,2.67,0,0,1,.85.41,2.08,2.08,0,0,1,.6.69,2,2,0,0,1,.23,1,2.22,2.22,0,0,1-.1.66,1.82,1.82,0,0,1-.28.56,1.77,1.77,0,0,1-.45.42,2.14,2.14,0,0,1-.62.27v0a2.06,2.06,0,0,1,1.33.74,2.21,2.21,0,0,1,.45,1.39,2.41,2.41,0,0,1-.84,1.91,2.78,2.78,0,0,1-1,.55,3.78,3.78,0,0,1-1.21.18,3.66,3.66,0,0,1-1.12-.17,2.8,2.8,0,0,1-.92-.49,2.34,2.34,0,0,1-.63-.78,2.28,2.28,0,0,1-.23-1v-.18h.79v.16a1.74,1.74,0,0,0,.56,1.28,2,2,0,0,0,.66.4,2.45,2.45,0,0,0,.88.15,2.7,2.7,0,0,0,.91-.13,2.21,2.21,0,0,0,.69-.4,1.7,1.7,0,0,0,.64-1.38,1.89,1.89,0,0,0-.14-.75,1.64,1.64,0,0,0-.42-.58,2.22,2.22,0,0,0-1.53-.5h-.64v-.66H250a1.86,1.86,0,0,0,1.21-.42,1.42,1.42,0,0,0,.52-1.15,1.59,1.59,0,0,0-.15-.71,1.48,1.48,0,0,0-.4-.51,1.73,1.73,0,0,0-.6-.31,2.56,2.56,0,0,0-.73-.1,2.1,2.1,0,0,0-.81.15,1.8,1.8,0,0,0-.61.41,1.82,1.82,0,0,0-.39.6,2,2,0,0,0-.13.73h-.78a2.44,2.44,0,0,1,.18-.92,2.53,2.53,0,0,1,.53-.82,2.7,2.7,0,0,1,.86-.59A2.82,2.82,0,0,1,249.83,124.49Z"/><path class="cls-2" d="M257.16,124.49a2.87,2.87,0,0,1,1.32.29,2.48,2.48,0,0,1,.94.85A4.14,4.14,0,0,1,260,127a8.64,8.64,0,0,1,.19,1.92,5.94,5.94,0,0,1-.77,3.35,2.82,2.82,0,0,1-4.49,0,7.62,7.62,0,0,1,0-6.69A2.56,2.56,0,0,1,257.16,124.49Zm-2.23,4.45q0,3.81,2.23,3.81t2.24-3.81a5.65,5.65,0,0,0-.57-2.84,1.94,1.94,0,0,0-3.33,0A5.63,5.63,0,0,0,254.93,128.93Z"/><path class="cls-2" d="M242.56,155.49a3.57,3.57,0,0,1,1,.13,2.67,2.67,0,0,1,.85.41,2.08,2.08,0,0,1,.6.69,2,2,0,0,1,.23,1,2.22,2.22,0,0,1-.1.66,1.82,1.82,0,0,1-.28.56,1.77,1.77,0,0,1-.45.42,2.14,2.14,0,0,1-.62.27v0a2.06,2.06,0,0,1,1.33.74,2.21,2.21,0,0,1,.45,1.39,2.41,2.41,0,0,1-.84,1.91,2.78,2.78,0,0,1-1,.55,3.78,3.78,0,0,1-1.21.18,3.66,3.66,0,0,1-1.12-.17,2.8,2.8,0,0,1-.92-.49,2.34,2.34,0,0,1-.63-.78,2.28,2.28,0,0,1-.23-1v-.18h.79v.16a1.74,1.74,0,0,0,.56,1.28,2,2,0,0,0,.66.4,2.45,2.45,0,0,0,.88.15,2.7,2.7,0,0,0,.91-.13,2.21,2.21,0,0,0,.69-.4,1.7,1.7,0,0,0,.64-1.38,1.89,1.89,0,0,0-.14-.75,1.64,1.64,0,0,0-.42-.58,2.22,2.22,0,0,0-1.53-.5H242v-.66h.69a1.86,1.86,0,0,0,1.21-.42,1.42,1.42,0,0,0,.52-1.15,1.59,1.59,0,0,0-.15-.71,1.48,1.48,0,0,0-.4-.51,1.73,1.73,0,0,0-.6-.31,2.56,2.56,0,0,0-.73-.1,2.1,2.1,0,0,0-.81.15,1.8,1.8,0,0,0-.61.41,1.82,1.82,0,0,0-.39.6,2,2,0,0,0-.13.73h-.78a2.44,2.44,0,0,1,.18-.92,2.53,2.53,0,0,1,.53-.82,2.7,2.7,0,0,1,.86-.59A2.82,2.82,0,0,1,242.56,155.49Z"/><path class="cls-2" d="M251.56,162.06v2.15h-.71v-2.15h-4v-.75l4-5.75h.7v5.85h1.3v.66Zm-.71-5.36h0l-3.27,4.71h3.29Z"/><path class="cls-2" d="M259.94,155.66v.71a13.69,13.69,0,0,0-1.42,1.75,13.2,13.2,0,0,0-1.08,1.91,11.5,11.5,0,0,0-.7,2,12.2,12.2,0,0,0-.31,2.14h-.84a12.82,12.82,0,0,1,.32-2.12,10.52,10.52,0,0,1,.67-1.93,15.67,15.67,0,0,1,2.58-3.79h-4.79v-.71Z"/><path class="cls-2" d="M242.88,186.49a3.17,3.17,0,0,1,.94.13,2.35,2.35,0,0,1,.75.38,2.13,2.13,0,0,1,.54.62,2.5,2.5,0,0,1,.3.84h-.78a1.7,1.7,0,0,0-.19-.51,1.46,1.46,0,0,0-.35-.42,1.67,1.67,0,0,0-.52-.28,2.16,2.16,0,0,0-.69-.1,2,2,0,0,0-1,.25,2.11,2.11,0,0,0-.75.75,3.82,3.82,0,0,0-.45,1.21,8,8,0,0,0-.15,1.65h0a2.58,2.58,0,0,1,2.31-1.44,2.74,2.74,0,0,1,2.05.81,2.83,2.83,0,0,1,.8,2.08,2.84,2.84,0,0,1-2.94,2.94,3.09,3.09,0,0,1-1.41-.29,2.31,2.31,0,0,1-.93-.84,4.2,4.2,0,0,1-.52-1.39,10.4,10.4,0,0,1-.17-2.05,8.44,8.44,0,0,1,.07-1.06,5.55,5.55,0,0,1,.22-1,4.46,4.46,0,0,1,.4-.89,2.83,2.83,0,0,1,.6-.72,2.67,2.67,0,0,1,.82-.48A3.07,3.07,0,0,1,242.88,186.49Zm-2.23,6a2.25,2.25,0,0,0,.57,1.63,2.11,2.11,0,0,0,1.59.59,1.91,1.91,0,0,0,1.49-.66,2.26,2.26,0,0,0,.59-1.56,2.4,2.4,0,0,0-.57-1.64,1.93,1.93,0,0,0-1.52-.65,2,2,0,0,0-1.54.63A2.3,2.3,0,0,0,240.65,192.52Z"/><path class="cls-2" d="M252.67,186.66v.71a13.69,13.69,0,0,0-1.42,1.75,13.2,13.2,0,0,0-1.08,1.91,11.5,11.5,0,0,0-.7,2,12.2,12.2,0,0,0-.31,2.14h-.84a12.82,12.82,0,0,1,.32-2.12,10.52,10.52,0,0,1,.67-1.93,15.67,15.67,0,0,1,2.58-3.79H247.1v-.71Z"/><path class="cls-2" d="M255.93,193.94v1.27h-1.11v-1.27Z"/><path class="cls-2" d="M260.85,186.49a2.81,2.81,0,0,1,2,.66,2.28,2.28,0,0,1,.73,1.78,2.82,2.82,0,0,1-.55,1.66,7,7,0,0,1-2,1.66,8.29,8.29,0,0,0-1.66,1.23,2,2,0,0,0-.56,1h4.81v.72h-5.7a3,3,0,0,1,.56-1.74,6.61,6.61,0,0,1,1.93-1.66,8.78,8.78,0,0,0,1.89-1.48,2.11,2.11,0,0,0,.51-1.41,1.64,1.64,0,0,0-.54-1.28,2,2,0,0,0-1.4-.49,2,2,0,0,0-.86.17,1.82,1.82,0,0,0-.61.44,1.77,1.77,0,0,0-.36.62,2.21,2.21,0,0,0-.12.71v.17h-.77v-.12a2.93,2.93,0,0,1,.17-1,2.42,2.42,0,0,1,.51-.84,2.47,2.47,0,0,1,.86-.59A3.06,3.06,0,0,1,260.85,186.49Z"/><path class="cls-2" d="M269.13,189a3.32,3.32,0,0,1-.13,1,2,2,0,0,1-.37.71,1.57,1.57,0,0,1-.6.45,2.06,2.06,0,0,1-.81.15,1.75,1.75,0,0,1-1.42-.59,3.09,3.09,0,0,1,0-3.36,1.75,1.75,0,0,1,1.41-.59,2.08,2.08,0,0,1,.82.15,1.54,1.54,0,0,1,.6.45,2,2,0,0,1,.37.71A3.34,3.34,0,0,1,269.13,189Zm-.64,0a3,3,0,0,0-.06-.61,1.81,1.81,0,0,0-.21-.56,1.25,1.25,0,0,0-.4-.41,1.2,1.2,0,0,0-1.53.29,2.63,2.63,0,0,0,0,2.56,1.22,1.22,0,0,0,1.54.3,1.2,1.2,0,0,0,.39-.39,1.73,1.73,0,0,0,.22-.55A3.23,3.23,0,0,0,268.49,189Zm-1.15,6.6h-.57l5.44-9.11h.56Zm7.06-2.5a3.32,3.32,0,0,1-.13,1,2,2,0,0,1-.37.71,1.57,1.57,0,0,1-.6.45,2.06,2.06,0,0,1-.81.15,2,2,0,0,1-.84-.17,1.63,1.63,0,0,1-.59-.47,2.08,2.08,0,0,1-.35-.72,3.3,3.3,0,0,1-.12-.9,3.34,3.34,0,0,1,.13-1,2,2,0,0,1,.37-.71,1.54,1.54,0,0,1,.6-.45,2.28,2.28,0,0,1,1.64,0,1.54,1.54,0,0,1,.6.45,2,2,0,0,1,.37.71A3.34,3.34,0,0,1,274.4,193.13Zm-.64,0a3,3,0,0,0-.06-.61,1.81,1.81,0,0,0-.21-.56,1.25,1.25,0,0,0-.4-.41,1.21,1.21,0,0,0-1.54.29,2.17,2.17,0,0,0-.33,1.29,2.09,2.09,0,0,0,.33,1.26,1.21,1.21,0,0,0,1.53.3,1.2,1.2,0,0,0,.39-.39,1.73,1.73,0,0,0,.22-.55A3.23,3.23,0,0,0,273.76,193.14Z"/><path class="cls-2" d="M243.69,217.48a4.19,4.19,0,0,1,1.21.17,3.47,3.47,0,0,1,1,.49,2.86,2.86,0,0,1,1.17,1.79h-.81a2.57,2.57,0,0,0-.34-.7,2.26,2.26,0,0,0-.55-.56,2.68,2.68,0,0,0-.75-.37,3.38,3.38,0,0,0-2.34.17,3,3,0,0,0-1,.82,3.61,3.61,0,0,0-.62,1.2,4.87,4.87,0,0,0-.21,1.45,5.18,5.18,0,0,0,.08.94,4.25,4.25,0,0,0,.26.88,3.67,3.67,0,0,0,.44.78,2.92,2.92,0,0,0,.62.62,2.86,2.86,0,0,0,.81.41,3.23,3.23,0,0,0,1,.15,2.8,2.8,0,0,0,1.06-.19,2.55,2.55,0,0,0,.82-.52,2.7,2.7,0,0,0,.56-.77,3.21,3.21,0,0,0,.29-.93h.81a4.09,4.09,0,0,1-.35,1.2,3.33,3.33,0,0,1-.71,1,3.23,3.23,0,0,1-1.06.67,3.8,3.8,0,0,1-1.42.25A4,4,0,0,1,242,226a3.66,3.66,0,0,1-1.27-.94,4.19,4.19,0,0,1-.79-1.41,5.68,5.68,0,0,1,0-3.45,4.22,4.22,0,0,1,.77-1.42,3.72,3.72,0,0,1,1.27-1A4,4,0,0,1,243.69,217.48Z"/><path class="cls-2" d="M248.84,226.21v-6.56h.74v1.54h0a2.56,2.56,0,0,1,.9-1.2,2.32,2.32,0,0,1,1.38-.43h.29v.8H252a2.22,2.22,0,0,0-1.71.69,2.36,2.36,0,0,0-.64,1.69v3.48Z"/><path class="cls-2" d="M254.29,216.78v1.29h-.8v-1.29Zm0,2.87v6.56h-.8v-6.56Z"/><path class="cls-2" d="M259.14,226.27h-.66a3,3,0,0,1-.68-.06,1,1,0,0,1-.45-.23.89.89,0,0,1-.25-.43,2.65,2.65,0,0,1-.07-.68v-4.56h-1.32v-.67H257v-2h.8v2h1.5v.67h-1.5v4.48a1.75,1.75,0,0,0,0,.34.64.64,0,0,0,.11.26.5.5,0,0,0,.21.16.87.87,0,0,0,.35.06h.6l.21,0v.68Z"/><path class="cls-2" d="M261.93,216.78v1.29h-.8v-1.29Zm0,2.87v6.56h-.8v-6.56Z"/><path class="cls-2" d="M266.84,219.46a3.46,3.46,0,0,1,1,.13,2.53,2.53,0,0,1,.78.38,2,2,0,0,1,.56.61,2.31,2.31,0,0,1,.29.82h-.8a1.73,1.73,0,0,0-.22-.52,1.5,1.5,0,0,0-.37-.4,1.7,1.7,0,0,0-.53-.26,2.35,2.35,0,0,0-.68-.09,2,2,0,0,0-1,.23,2.19,2.19,0,0,0-.72.63,2.91,2.91,0,0,0-.44.9,3.58,3.58,0,0,0-.15,1,3.67,3.67,0,0,0,.14,1,2.88,2.88,0,0,0,.42.9,2.26,2.26,0,0,0,.71.65,2,2,0,0,0,1,.25,1.93,1.93,0,0,0,.71-.13,1.88,1.88,0,0,0,.56-.34,1.8,1.8,0,0,0,.39-.49,1.87,1.87,0,0,0,.21-.58h.8a3,3,0,0,1-.29.85,2.49,2.49,0,0,1-.55.7,2.54,2.54,0,0,1-.8.48,2.88,2.88,0,0,1-1,.18,3,3,0,0,1-1.29-.27,2.85,2.85,0,0,1-1-.74,3.28,3.28,0,0,1-.61-1.1,4.47,4.47,0,0,1,0-2.67,3.31,3.31,0,0,1,.59-1.11,2.9,2.9,0,0,1,1-.77A3,3,0,0,1,266.84,219.46Z"/><path class="cls-2" d="M276.95,226.16l-.27,0h-.24a1.37,1.37,0,0,1-.44-.06.65.65,0,0,1-.29-.2.82.82,0,0,1-.16-.36,2.42,2.42,0,0,1,0-.53h0a3,3,0,0,1-1,1,2.79,2.79,0,0,1-1.35.29,2.46,2.46,0,0,1-1.6-.5,1.75,1.75,0,0,1-.6-1.43,1.66,1.66,0,0,1,.66-1.43,6.79,6.79,0,0,1,3-.69,2,2,0,0,0,.44-.08.75.75,0,0,0,.29-.16.59.59,0,0,0,.16-.26,1.28,1.28,0,0,0,0-.38,1.25,1.25,0,0,0-.4-1,2,2,0,0,0-1.31-.34,2.61,2.61,0,0,0-.72.09,1.65,1.65,0,0,0-.53.25,1.13,1.13,0,0,0-.33.39,1.23,1.23,0,0,0-.13.49h-.8a2,2,0,0,1,.22-.78,1.77,1.77,0,0,1,.51-.59,2.43,2.43,0,0,1,.81-.38,4,4,0,0,1,1.09-.13,2.64,2.64,0,0,1,1.83.54,2,2,0,0,1,.59,1.52v3.56a.47.47,0,0,0,.11.33.46.46,0,0,0,.36.12.7.7,0,0,0,.25,0Zm-1.52-3.54h0q-.12.22-.77.31l-.67.1-.74.12a2.67,2.67,0,0,0-1.17.44,1,1,0,0,0-.39.84,1.16,1.16,0,0,0,.43.94,1.6,1.6,0,0,0,1,.35,2.36,2.36,0,0,0,1.63-.58,1.85,1.85,0,0,0,.65-1.44Z"/><path class="cls-2" d="M279.2,217.13v9.08h-.8v-9.08Z"/><path class="cls-2" d="M287.61,219.46a3.46,3.46,0,0,1,1,.13,2.53,2.53,0,0,1,.78.38,2,2,0,0,1,.56.61,2.31,2.31,0,0,1,.29.82h-.8a1.73,1.73,0,0,0-.22-.52,1.5,1.5,0,0,0-.37-.4,1.7,1.7,0,0,0-.53-.26,2.35,2.35,0,0,0-.68-.09,2,2,0,0,0-1,.23,2.19,2.19,0,0,0-.72.63,2.91,2.91,0,0,0-.44.9,3.58,3.58,0,0,0-.15,1,3.67,3.67,0,0,0,.14,1,2.88,2.88,0,0,0,.42.9,2.26,2.26,0,0,0,.71.65,2,2,0,0,0,1,.25,1.93,1.93,0,0,0,.71-.13,1.88,1.88,0,0,0,.56-.34,1.8,1.8,0,0,0,.39-.49,1.87,1.87,0,0,0,.21-.58h.8a3,3,0,0,1-.29.85,2.49,2.49,0,0,1-.55.7,2.54,2.54,0,0,1-.8.48,2.88,2.88,0,0,1-1,.18,3,3,0,0,1-1.29-.27,2.85,2.85,0,0,1-1-.74,3.28,3.28,0,0,1-.61-1.1,4.47,4.47,0,0,1,0-2.67,3.31,3.31,0,0,1,.59-1.11,2.9,2.9,0,0,1,1-.77A3,3,0,0,1,287.61,219.46Z"/><path class="cls-2" d="M296.56,226.21v-4.15a2.2,2.2,0,0,0-.41-1.45,1.54,1.54,0,0,0-1.25-.49,2,2,0,0,0-.87.18,1.91,1.91,0,0,0-.65.48,2.14,2.14,0,0,0-.4.71,2.66,2.66,0,0,0-.14.87v3.84H292v-9.08h.8v3.66h0a1.89,1.89,0,0,1,.34-.56,2.12,2.12,0,0,1,.5-.42,2.43,2.43,0,0,1,.61-.26,2.46,2.46,0,0,1,.67-.09,3.35,3.35,0,0,1,1.08.15,1.83,1.83,0,0,1,.74.46,1.87,1.87,0,0,1,.43.77,3.79,3.79,0,0,1,.14,1.08v4.28Z"/><path class="cls-2" d="M305.2,226.16l-.27,0h-.24a1.37,1.37,0,0,1-.44-.06.65.65,0,0,1-.29-.2.82.82,0,0,1-.16-.36,2.42,2.42,0,0,1,0-.53h0a3,3,0,0,1-1,1,2.79,2.79,0,0,1-1.35.29,2.46,2.46,0,0,1-1.6-.5,1.75,1.75,0,0,1-.6-1.43,1.66,1.66,0,0,1,.66-1.43,6.79,6.79,0,0,1,3-.69,2,2,0,0,0,.44-.08.75.75,0,0,0,.29-.16.59.59,0,0,0,.16-.26,1.28,1.28,0,0,0,0-.38,1.25,1.25,0,0,0-.4-1,2,2,0,0,0-1.31-.34,2.61,2.61,0,0,0-.72.09,1.65,1.65,0,0,0-.53.25,1.13,1.13,0,0,0-.33.39,1.23,1.23,0,0,0-.13.49h-.8a2,2,0,0,1,.22-.78,1.77,1.77,0,0,1,.51-.59,2.43,2.43,0,0,1,.81-.38,4,4,0,0,1,1.09-.13,2.64,2.64,0,0,1,1.83.54,2,2,0,0,1,.59,1.52v3.56a.47.47,0,0,0,.11.33.46.46,0,0,0,.36.12.7.7,0,0,0,.25,0Zm-1.52-3.54h0q-.12.22-.77.31l-.67.1-.74.12a2.67,2.67,0,0,0-1.17.44,1,1,0,0,0-.39.84,1.16,1.16,0,0,0,.43.94,1.6,1.6,0,0,0,1,.35,2.36,2.36,0,0,0,1.63-.58,1.85,1.85,0,0,0,.65-1.44Z"/><path class="cls-2" d="M309.55,219.46a3.35,3.35,0,0,1,1.08.15,1.83,1.83,0,0,1,.74.46,1.87,1.87,0,0,1,.43.77,3.79,3.79,0,0,1,.14,1.08v4.28h-.8v-4.15a2.2,2.2,0,0,0-.41-1.45,1.54,1.54,0,0,0-1.25-.49,2.07,2.07,0,0,0-.86.17,1.88,1.88,0,0,0-.65.48,2.15,2.15,0,0,0-.41.71,2.64,2.64,0,0,0-.14.88v3.84h-.8v-6.56h.8v1.14h0a2,2,0,0,1,.35-.56,2.18,2.18,0,0,1,.49-.42,2.33,2.33,0,0,1,.6-.26A2.48,2.48,0,0,1,309.55,219.46Z"/><path class="cls-2" d="M316.69,219.46a2.29,2.29,0,0,1,.64.09,2.32,2.32,0,0,1,1.08.68,2.26,2.26,0,0,1,.37.56h0v-1.14h.8v6.1a3.27,3.27,0,0,1-.73,2.3,2.88,2.88,0,0,1-2.21.79,4.54,4.54,0,0,1-.93-.09,2.71,2.71,0,0,1-.81-.3,1.88,1.88,0,0,1-.6-.55,1.68,1.68,0,0,1-.28-.82h.8a1.24,1.24,0,0,0,.56.81,2.33,2.33,0,0,0,1.25.28,2,2,0,0,0,1.61-.61,2.65,2.65,0,0,0,.54-1.81v-1.18h0a2.53,2.53,0,0,1-.37.57,2.28,2.28,0,0,1-.5.43,2.35,2.35,0,0,1-.6.27,2.4,2.4,0,0,1-.67.09,3.16,3.16,0,0,1-1.28-.24,2.43,2.43,0,0,1-.91-.67,2.85,2.85,0,0,1-.54-1,4.64,4.64,0,0,1-.18-1.31,4,4,0,0,1,.19-1.22,3,3,0,0,1,.56-1,2.74,2.74,0,0,1,.93-.7A3,3,0,0,1,316.69,219.46Zm-2.16,3.29a3.48,3.48,0,0,0,.12,1,2.29,2.29,0,0,0,.38.8,1.87,1.87,0,0,0,.67.54,2.13,2.13,0,0,0,1,.2,1.9,1.9,0,0,0,.91-.21,2.1,2.1,0,0,0,.67-.56,2.53,2.53,0,0,0,.42-.8,3,3,0,0,0,.14-.93,3.72,3.72,0,0,0-.12-.93,2.66,2.66,0,0,0-.37-.84,2,2,0,0,0-.66-.61,1.87,1.87,0,0,0-1-.24,2,2,0,0,0-1,.22,2,2,0,0,0-.67.59,2.55,2.55,0,0,0-.39.84A3.87,3.87,0,0,0,314.53,222.75Z"/><path class="cls-2" d="M324.37,219.46a2.71,2.71,0,0,1,1.3.29,2.6,2.6,0,0,1,.9.79,3.44,3.44,0,0,1,.52,1.13,5.22,5.22,0,0,1,.17,1.34v.13h-5.05a3.58,3.58,0,0,0,.13.94,2.58,2.58,0,0,0,.39.83,2,2,0,0,0,.66.59,1.92,1.92,0,0,0,.95.22,2.44,2.44,0,0,0,.7-.09,2,2,0,0,0,.56-.26A1.76,1.76,0,0,0,326,225a2.4,2.4,0,0,0,.29-.49h.79a3,3,0,0,1-.38.79,2.48,2.48,0,0,1-.59.6,2.68,2.68,0,0,1-.79.39,3.33,3.33,0,0,1-1,.14,2.94,2.94,0,0,1-1.3-.27,2.56,2.56,0,0,1-.91-.73,3.12,3.12,0,0,1-.54-1.1,5.13,5.13,0,0,1-.18-1.37,4.66,4.66,0,0,1,.18-1.28,3.37,3.37,0,0,1,.54-1.11,2.74,2.74,0,0,1,.92-.78A2.79,2.79,0,0,1,324.37,219.46Zm2.09,3a3,3,0,0,0-.16-.85,2.44,2.44,0,0,0-.41-.75,2.07,2.07,0,0,0-.65-.54,1.84,1.84,0,0,0-.88-.21,1.84,1.84,0,0,0-1.5.7,2.69,2.69,0,0,0-.42.75,4.32,4.32,0,0,0-.23.9Z"/><path class="cls-2" d="M363.48,34.09a2.34,2.34,0,0,1-.7,1.8,2.55,2.55,0,0,1-1.8.64h-3v3.67h-.82V31.64H361a2.53,2.53,0,0,1,1.8.65A2.33,2.33,0,0,1,363.48,34.09Zm-.81,0a1.68,1.68,0,0,0-.5-1.29,2.11,2.11,0,0,0-1.49-.46h-2.74v3.5h2.85a2,2,0,0,0,1.35-.45A1.65,1.65,0,0,0,362.66,34.09Z"/><path class="cls-2" d="M370.37,40.16l-.27,0h-.24a1.37,1.37,0,0,1-.44-.06.65.65,0,0,1-.29-.2.82.82,0,0,1-.16-.36,2.42,2.42,0,0,1,0-.53h0a3,3,0,0,1-1,1,2.79,2.79,0,0,1-1.35.29,2.46,2.46,0,0,1-1.6-.5,1.75,1.75,0,0,1-.6-1.43,1.66,1.66,0,0,1,.66-1.43,6.79,6.79,0,0,1,3-.69,2,2,0,0,0,.44-.08.75.75,0,0,0,.29-.16.59.59,0,0,0,.16-.26,1.28,1.28,0,0,0,0-.38,1.25,1.25,0,0,0-.4-1,2,2,0,0,0-1.31-.34,2.61,2.61,0,0,0-.72.09,1.65,1.65,0,0,0-.53.25,1.13,1.13,0,0,0-.33.39,1.23,1.23,0,0,0-.13.49h-.8a2,2,0,0,1,.22-.78,1.77,1.77,0,0,1,.51-.59,2.43,2.43,0,0,1,.81-.38,4,4,0,0,1,1.09-.13,2.64,2.64,0,0,1,1.83.54,2,2,0,0,1,.59,1.52v3.56a.47.47,0,0,0,.11.33.46.46,0,0,0,.36.12.7.7,0,0,0,.25,0Zm-1.52-3.54h0q-.12.22-.77.31l-.67.1-.74.12a2.67,2.67,0,0,0-1.17.44,1,1,0,0,0-.39.84,1.16,1.16,0,0,0,.43.94,1.6,1.6,0,0,0,1,.35,2.36,2.36,0,0,0,1.63-.58,1.85,1.85,0,0,0,.65-1.44Z"/><path class="cls-2" d="M371.8,40.21V33.65h.74v1.54h0a2.56,2.56,0,0,1,.9-1.2,2.32,2.32,0,0,1,1.38-.43h.29v.8H375a2.22,2.22,0,0,0-1.71.69,2.36,2.36,0,0,0-.64,1.69v3.48Z"/><path class="cls-2" d="M382,40.16l-.27,0h-.24a1.37,1.37,0,0,1-.44-.06.65.65,0,0,1-.29-.2.82.82,0,0,1-.16-.36,2.42,2.42,0,0,1,0-.53h0a3,3,0,0,1-1,1,2.79,2.79,0,0,1-1.35.29,2.46,2.46,0,0,1-1.6-.5,1.75,1.75,0,0,1-.6-1.43,1.66,1.66,0,0,1,.66-1.43,6.79,6.79,0,0,1,3-.69,2,2,0,0,0,.44-.08.75.75,0,0,0,.29-.16.59.59,0,0,0,.16-.26,1.28,1.28,0,0,0,0-.38,1.25,1.25,0,0,0-.4-1,2,2,0,0,0-1.31-.34,2.61,2.61,0,0,0-.72.09,1.65,1.65,0,0,0-.53.25,1.13,1.13,0,0,0-.33.39,1.23,1.23,0,0,0-.13.49h-.8a2,2,0,0,1,.22-.78A1.77,1.77,0,0,1,377,34a2.43,2.43,0,0,1,.81-.38,4,4,0,0,1,1.09-.13,2.64,2.64,0,0,1,1.83.54,2,2,0,0,1,.59,1.52v3.56a.47.47,0,0,0,.11.33.46.46,0,0,0,.36.12.7.7,0,0,0,.25,0Zm-1.52-3.54h0q-.12.22-.77.31l-.67.1-.74.12a2.67,2.67,0,0,0-1.17.44,1,1,0,0,0-.39.84,1.16,1.16,0,0,0,.43.94,1.6,1.6,0,0,0,1,.35,2.36,2.36,0,0,0,1.63-.58,1.85,1.85,0,0,0,.65-1.44Z"/><path class="cls-2" d="M391.75,40.21V35.75a1.73,1.73,0,0,0-.37-1.22,1.85,1.85,0,0,0-2.5.21,2.8,2.8,0,0,0-.45,1.71v3.77h-.81V35.72a1.81,1.81,0,0,0-.34-1.17,1.25,1.25,0,0,0-1-.42,1.72,1.72,0,0,0-1.46.65,2.72,2.72,0,0,0-.5,1.71v3.72h-.8V33.65h.74v1.1h0a2.26,2.26,0,0,1,2.15-1.29,2.44,2.44,0,0,1,.64.08,1.86,1.86,0,0,1,.54.24,1.66,1.66,0,0,1,.42.4,1.87,1.87,0,0,1,.28.55,2.16,2.16,0,0,1,.85-1,2.4,2.4,0,0,1,1.24-.32A2.12,2.12,0,0,1,392,34a2.36,2.36,0,0,1,.54,1.66v4.51Z"/><path class="cls-2" d="M397.31,33.46a2.71,2.71,0,0,1,1.3.29,2.6,2.6,0,0,1,.9.79,3.44,3.44,0,0,1,.52,1.13A5.22,5.22,0,0,1,400.2,37v.13h-5.05a3.58,3.58,0,0,0,.13.94,2.58,2.58,0,0,0,.39.83,2,2,0,0,0,.66.59,1.92,1.92,0,0,0,.95.22,2.44,2.44,0,0,0,.7-.09,2,2,0,0,0,.56-.26,1.76,1.76,0,0,0,.42-.39,2.4,2.4,0,0,0,.29-.49H400a3,3,0,0,1-.38.79,2.48,2.48,0,0,1-.59.6,2.68,2.68,0,0,1-.79.39,3.33,3.33,0,0,1-1,.14,2.94,2.94,0,0,1-1.3-.27,2.56,2.56,0,0,1-.91-.73,3.12,3.12,0,0,1-.54-1.1,5.13,5.13,0,0,1-.18-1.37,4.66,4.66,0,0,1,.18-1.28,3.37,3.37,0,0,1,.54-1.11,2.74,2.74,0,0,1,.92-.78A2.79,2.79,0,0,1,397.31,33.46Zm2.09,3a3,3,0,0,0-.16-.85,2.44,2.44,0,0,0-.41-.75,2.07,2.07,0,0,0-.65-.54,1.84,1.84,0,0,0-.88-.21,1.84,1.84,0,0,0-1.5.7,2.69,2.69,0,0,0-.42.75,4.32,4.32,0,0,0-.23.9Z"/><path class="cls-2" d="M404.52,40.27h-.66a3,3,0,0,1-.68-.06,1,1,0,0,1-.45-.23.89.89,0,0,1-.25-.43,2.65,2.65,0,0,1-.07-.68V34.32h-1.32v-.67h1.32v-2h.8v2h1.5v.67h-1.5V38.8a1.75,1.75,0,0,0,0,.34.64.64,0,0,0,.11.26.5.5,0,0,0,.21.16.87.87,0,0,0,.35.06h.6l.21,0v.68Z"/><path class="cls-2" d="M408.88,33.46a2.71,2.71,0,0,1,1.3.29,2.6,2.6,0,0,1,.9.79,3.44,3.44,0,0,1,.52,1.13,5.22,5.22,0,0,1,.17,1.34v.13h-5.05a3.58,3.58,0,0,0,.13.94,2.58,2.58,0,0,0,.39.83,2,2,0,0,0,.66.59,1.92,1.92,0,0,0,.95.22,2.44,2.44,0,0,0,.7-.09,2,2,0,0,0,.56-.26,1.76,1.76,0,0,0,.42-.39,2.4,2.4,0,0,0,.29-.49h.79a3,3,0,0,1-.38.79,2.48,2.48,0,0,1-.59.6,2.68,2.68,0,0,1-.79.39,3.33,3.33,0,0,1-1,.14,2.94,2.94,0,0,1-1.3-.27,2.56,2.56,0,0,1-.91-.73,3.12,3.12,0,0,1-.54-1.1,5.13,5.13,0,0,1-.18-1.37,4.66,4.66,0,0,1,.18-1.28,3.37,3.37,0,0,1,.54-1.11,2.74,2.74,0,0,1,.92-.78A2.79,2.79,0,0,1,408.88,33.46Zm2.09,3a3,3,0,0,0-.16-.85,2.44,2.44,0,0,0-.41-.75,2.07,2.07,0,0,0-.65-.54,1.84,1.84,0,0,0-.88-.21,1.84,1.84,0,0,0-1.5.7,2.69,2.69,0,0,0-.42.75,4.32,4.32,0,0,0-.23.9Z"/><path class="cls-2" d="M413.44,40.21V33.65h.74v1.54h0a2.56,2.56,0,0,1,.9-1.2,2.32,2.32,0,0,1,1.38-.43h.29v.8h-.18a2.22,2.22,0,0,0-1.71.69,2.36,2.36,0,0,0-.64,1.69v3.48Z"/><path class="cls-2" d="M424,31.49a3.57,3.57,0,0,1,1,.13,2.67,2.67,0,0,1,.85.41,2.08,2.08,0,0,1,.6.69,2,2,0,0,1,.23,1,2.22,2.22,0,0,1-.1.66,1.82,1.82,0,0,1-.28.56,1.77,1.77,0,0,1-.45.42,2.14,2.14,0,0,1-.62.27v0a2.06,2.06,0,0,1,1.33.74,2.21,2.21,0,0,1,.45,1.39,2.41,2.41,0,0,1-.84,1.91,2.78,2.78,0,0,1-1,.55,3.78,3.78,0,0,1-1.21.18,3.66,3.66,0,0,1-1.12-.17,2.8,2.8,0,0,1-.92-.49,2.34,2.34,0,0,1-.63-.78,2.28,2.28,0,0,1-.23-1v-.18h.79v.16a1.74,1.74,0,0,0,.56,1.28,2,2,0,0,0,.66.4,2.45,2.45,0,0,0,.88.15,2.7,2.7,0,0,0,.91-.13,2.21,2.21,0,0,0,.69-.4,1.7,1.7,0,0,0,.64-1.38,1.89,1.89,0,0,0-.14-.75,1.64,1.64,0,0,0-.42-.58,2.22,2.22,0,0,0-1.53-.5h-.64v-.66h.69a1.86,1.86,0,0,0,1.21-.42,1.42,1.42,0,0,0,.52-1.15,1.59,1.59,0,0,0-.15-.71,1.48,1.48,0,0,0-.4-.51,1.73,1.73,0,0,0-.6-.31,2.56,2.56,0,0,0-.73-.1,2.1,2.1,0,0,0-.81.15,1.8,1.8,0,0,0-.61.41,1.82,1.82,0,0,0-.39.6,2,2,0,0,0-.13.73h-.78a2.44,2.44,0,0,1,.18-.92,2.53,2.53,0,0,1,.53-.82,2.7,2.7,0,0,1,.86-.59A2.82,2.82,0,0,1,424,31.49Z"/><path class="cls-2" d="M362.06,62.66v.72h-3.78l-.54,2.78,0,0a2.32,2.32,0,0,1,.82-.52,2.79,2.79,0,0,1,1-.18,3.18,3.18,0,0,1,1.2.22,2.6,2.6,0,0,1,.92.61,2.73,2.73,0,0,1,.59.94,3.43,3.43,0,0,1,.21,1.22,2.81,2.81,0,0,1-.23,1.14,2.94,2.94,0,0,1-1.61,1.56,3.12,3.12,0,0,1-1.2.23,3.29,3.29,0,0,1-1.1-.17,2.58,2.58,0,0,1-.85-.48,2.26,2.26,0,0,1-.56-.74,2.52,2.52,0,0,1-.23-1h.79a1.84,1.84,0,0,0,.16.64,1.65,1.65,0,0,0,.4.54,2,2,0,0,0,.62.37,2.29,2.29,0,0,0,.83.14,2.06,2.06,0,0,0,.87-.19,2.14,2.14,0,0,0,.7-.5,2.4,2.4,0,0,0,.46-.75,2.49,2.49,0,0,0,.17-.92,2.41,2.41,0,0,0-.16-.87,2.12,2.12,0,0,0-1.14-1.2,2.2,2.2,0,0,0-.91-.18,2.55,2.55,0,0,0-1.07.22,2.22,2.22,0,0,0-.85.68h-.66l.81-4.38Z"/><path class="cls-2" d="M369.67,62.66v.71a13.69,13.69,0,0,0-1.42,1.75A13.2,13.2,0,0,0,367.18,67a11.5,11.5,0,0,0-.7,2,12.2,12.2,0,0,0-.31,2.14h-.84a12.82,12.82,0,0,1,.32-2.12,10.52,10.52,0,0,1,.67-1.93,15.67,15.67,0,0,1,2.58-3.79H364.1v-.71Z"/><path class="cls-2" d="M377.16,68.79a2.36,2.36,0,0,1-.83,1.91,3.22,3.22,0,0,1-2.16.7,3.18,3.18,0,0,1-2.16-.71,2.52,2.52,0,0,1-.7-2.64,2.28,2.28,0,0,1,.35-.66,2.18,2.18,0,0,1,1.28-.81v0a2.05,2.05,0,0,1-1.06-.72,2,2,0,0,1-.35-1.18,1.9,1.9,0,0,1,.76-1.57,2.91,2.91,0,0,1,1.86-.59,3,3,0,0,1,1.88.59,1.88,1.88,0,0,1,.76,1.57,2.2,2.2,0,0,1-.09.65,1.8,1.8,0,0,1-.72,1,2.1,2.1,0,0,1-.6.28v0a2.18,2.18,0,0,1,1.32.76A2.3,2.3,0,0,1,377.16,68.79Zm-.78,0a1.75,1.75,0,0,0-.59-1.35,2.78,2.78,0,0,0-3.24,0,1.76,1.76,0,0,0-.57,1.37,1.79,1.79,0,0,0,.6,1.42,2.7,2.7,0,0,0,3.2,0A1.79,1.79,0,0,0,376.38,68.79ZM376,64.65a1.35,1.35,0,0,0-.5-1.1,2.37,2.37,0,0,0-2.67,0,1.3,1.3,0,0,0-.53,1.09,1.48,1.48,0,0,0,.49,1.18,2,2,0,0,0,1.32.43,2,2,0,0,0,1.41-.45A1.52,1.52,0,0,0,376,64.65Z"/><path class="cls-2" d="M359.56,93.49a3.57,3.57,0,0,1,1,.13,2.67,2.67,0,0,1,.85.41,2.08,2.08,0,0,1,.6.69,2,2,0,0,1,.23,1,2.22,2.22,0,0,1-.1.66,1.82,1.82,0,0,1-.28.56,1.77,1.77,0,0,1-.45.42,2.14,2.14,0,0,1-.62.27v0a2.06,2.06,0,0,1,1.33.74,2.21,2.21,0,0,1,.45,1.39,2.41,2.41,0,0,1-.84,1.91,2.78,2.78,0,0,1-1,.55,3.78,3.78,0,0,1-1.21.18,3.66,3.66,0,0,1-1.12-.17,2.8,2.8,0,0,1-.92-.49,2.34,2.34,0,0,1-.63-.78,2.28,2.28,0,0,1-.23-1v-.18h.79v.16a1.74,1.74,0,0,0,.56,1.28,2,2,0,0,0,.66.4,2.45,2.45,0,0,0,.88.15,2.7,2.7,0,0,0,.91-.13,2.21,2.21,0,0,0,.69-.4,1.7,1.7,0,0,0,.64-1.38,1.89,1.89,0,0,0-.14-.75,1.64,1.64,0,0,0-.42-.58,2.22,2.22,0,0,0-1.53-.5H359v-.66h.69a1.86,1.86,0,0,0,1.21-.42,1.42,1.42,0,0,0,.52-1.15,1.59,1.59,0,0,0-.15-.71,1.48,1.48,0,0,0-.4-.51,1.73,1.73,0,0,0-.6-.31,2.56,2.56,0,0,0-.73-.1,2.1,2.1,0,0,0-.81.15,1.8,1.8,0,0,0-.61.41,1.82,1.82,0,0,0-.39.6,2,2,0,0,0-.13.73h-.78a2.44,2.44,0,0,1,.18-.92,2.53,2.53,0,0,1,.53-.82,2.7,2.7,0,0,1,.86-.59A2.82,2.82,0,0,1,359.56,93.49Z"/><path class="cls-2" d="M367.14,93.49a3.17,3.17,0,0,1,.94.13,2.35,2.35,0,0,1,.75.38,2.13,2.13,0,0,1,.54.62,2.5,2.5,0,0,1,.3.84h-.78a1.7,1.7,0,0,0-.19-.51,1.46,1.46,0,0,0-.35-.42,1.67,1.67,0,0,0-.52-.28,2.16,2.16,0,0,0-.69-.1,2,2,0,0,0-1,.25,2.11,2.11,0,0,0-.75.75,3.82,3.82,0,0,0-.45,1.21,8,8,0,0,0-.15,1.65h0a2.58,2.58,0,0,1,2.31-1.44,2.74,2.74,0,0,1,2.05.81,2.83,2.83,0,0,1,.8,2.08A2.84,2.84,0,0,1,367,102.4a3.09,3.09,0,0,1-1.41-.29,2.31,2.31,0,0,1-.93-.84,4.2,4.2,0,0,1-.52-1.39,10.4,10.4,0,0,1-.17-2.05,8.44,8.44,0,0,1,.07-1.06,5.55,5.55,0,0,1,.22-1,4.46,4.46,0,0,1,.4-.89,2.83,2.83,0,0,1,.6-.72,2.67,2.67,0,0,1,.82-.48A3.07,3.07,0,0,1,367.14,93.49Zm-2.23,6a2.25,2.25,0,0,0,.57,1.63,2.11,2.11,0,0,0,1.59.59,1.91,1.91,0,0,0,1.49-.66,2.26,2.26,0,0,0,.59-1.56,2.4,2.4,0,0,0-.57-1.64,1.93,1.93,0,0,0-1.52-.65,2,2,0,0,0-1.54.63A2.3,2.3,0,0,0,364.91,99.52Z"/><path class="cls-2" d="M374.41,93.49a3.17,3.17,0,0,1,.94.13,2.35,2.35,0,0,1,.75.38,2.13,2.13,0,0,1,.54.62,2.5,2.5,0,0,1,.3.84h-.78a1.7,1.7,0,0,0-.19-.51,1.46,1.46,0,0,0-.35-.42,1.67,1.67,0,0,0-.52-.28,2.16,2.16,0,0,0-.69-.1,2,2,0,0,0-1,.25,2.11,2.11,0,0,0-.75.75,3.82,3.82,0,0,0-.45,1.21A8,8,0,0,0,372,98h0a2.58,2.58,0,0,1,2.31-1.44,2.74,2.74,0,0,1,2.05.81,2.83,2.83,0,0,1,.8,2.08,2.84,2.84,0,0,1-2.94,2.94,3.09,3.09,0,0,1-1.41-.29,2.31,2.31,0,0,1-.93-.84,4.2,4.2,0,0,1-.52-1.39,10.4,10.4,0,0,1-.17-2.05,8.44,8.44,0,0,1,.07-1.06,5.55,5.55,0,0,1,.22-1,4.46,4.46,0,0,1,.4-.89,2.83,2.83,0,0,1,.6-.72,2.67,2.67,0,0,1,.82-.48A3.07,3.07,0,0,1,374.41,93.49Zm-2.23,6a2.25,2.25,0,0,0,.57,1.63,2.11,2.11,0,0,0,1.59.59,1.91,1.91,0,0,0,1.49-.66,2.26,2.26,0,0,0,.59-1.56,2.4,2.4,0,0,0-.57-1.64,1.93,1.93,0,0,0-1.52-.65,2,2,0,0,0-1.54.63A2.3,2.3,0,0,0,372.18,99.52Z"/><path class="cls-2" d="M359.88,124.49a3.17,3.17,0,0,1,.94.13,2.35,2.35,0,0,1,.75.38,2.13,2.13,0,0,1,.54.62,2.5,2.5,0,0,1,.3.84h-.78a1.7,1.7,0,0,0-.19-.51,1.46,1.46,0,0,0-.35-.42,1.67,1.67,0,0,0-.52-.28,2.16,2.16,0,0,0-.69-.1,2,2,0,0,0-1,.25,2.11,2.11,0,0,0-.75.75,3.82,3.82,0,0,0-.45,1.21,8,8,0,0,0-.15,1.65h0a2.58,2.58,0,0,1,2.31-1.44,2.74,2.74,0,0,1,2.05.81,2.83,2.83,0,0,1,.8,2.08,2.84,2.84,0,0,1-2.94,2.94,3.09,3.09,0,0,1-1.41-.29,2.31,2.31,0,0,1-.93-.84,4.2,4.2,0,0,1-.52-1.39,10.4,10.4,0,0,1-.17-2.05,8.44,8.44,0,0,1,.07-1.06,5.55,5.55,0,0,1,.22-1,4.46,4.46,0,0,1,.4-.89,2.83,2.83,0,0,1,.6-.72,2.67,2.67,0,0,1,.82-.48A3.07,3.07,0,0,1,359.88,124.49Zm-2.23,6a2.25,2.25,0,0,0,.57,1.63,2.11,2.11,0,0,0,1.59.59,1.91,1.91,0,0,0,1.49-.66,2.26,2.26,0,0,0,.59-1.56,2.4,2.4,0,0,0-.57-1.64,1.93,1.93,0,0,0-1.52-.65,2,2,0,0,0-1.54.63A2.3,2.3,0,0,0,357.65,130.52Z"/><path class="cls-2" d="M366.89,124.49a2.87,2.87,0,0,1,1.32.29,2.48,2.48,0,0,1,.94.85,4.14,4.14,0,0,1,.57,1.39,8.64,8.64,0,0,1,.19,1.92,5.94,5.94,0,0,1-.77,3.35,2.82,2.82,0,0,1-4.49,0,7.62,7.62,0,0,1,0-6.69A2.56,2.56,0,0,1,366.89,124.49Zm-2.23,4.45q0,3.81,2.23,3.81t2.24-3.81a5.65,5.65,0,0,0-.57-2.84,1.94,1.94,0,0,0-3.33,0A5.63,5.63,0,0,0,364.66,128.93Z"/><path class="cls-2" d="M374.16,124.49a2.87,2.87,0,0,1,1.32.29,2.48,2.48,0,0,1,.94.85A4.14,4.14,0,0,1,377,127a8.64,8.64,0,0,1,.19,1.92,5.94,5.94,0,0,1-.77,3.35,2.82,2.82,0,0,1-4.49,0,7.62,7.62,0,0,1,0-6.69A2.56,2.56,0,0,1,374.16,124.49Zm-2.23,4.45q0,3.81,2.23,3.81t2.24-3.81a5.65,5.65,0,0,0-.57-2.84,1.94,1.94,0,0,0-3.33,0A5.63,5.63,0,0,0,371.93,128.93Z"/><path class="cls-2" d="M359.63,155.49a2.81,2.81,0,0,1,2,.66,2.28,2.28,0,0,1,.73,1.78,2.82,2.82,0,0,1-.55,1.66,7,7,0,0,1-2,1.66,8.29,8.29,0,0,0-1.66,1.23,2,2,0,0,0-.56,1h4.81v.72h-5.7a3,3,0,0,1,.56-1.74,6.61,6.61,0,0,1,1.93-1.66,8.78,8.78,0,0,0,1.89-1.48,2.11,2.11,0,0,0,.51-1.41,1.64,1.64,0,0,0-.54-1.28,2,2,0,0,0-1.4-.49,2,2,0,0,0-.86.17,1.82,1.82,0,0,0-.61.44,1.77,1.77,0,0,0-.36.62,2.21,2.21,0,0,0-.12.71v.17h-.77v-.12a2.93,2.93,0,0,1,.17-1,2.42,2.42,0,0,1,.51-.84,2.47,2.47,0,0,1,.86-.59A3.06,3.06,0,0,1,359.63,155.49Z"/><path class="cls-2" d="M367,164.21v-6.43h-2.29v-.56c.36,0,.66,0,.9-.06a2.36,2.36,0,0,0,.57-.12,1.31,1.31,0,0,0,.64-.52,2.46,2.46,0,0,0,.31-1h.63v8.65Z"/><path class="cls-2" d="M374.16,155.49a2.87,2.87,0,0,1,1.32.29,2.48,2.48,0,0,1,.94.85A4.14,4.14,0,0,1,377,158a8.64,8.64,0,0,1,.19,1.92,5.94,5.94,0,0,1-.77,3.35,2.82,2.82,0,0,1-4.49,0,7.62,7.62,0,0,1,0-6.69A2.56,2.56,0,0,1,374.16,155.49Zm-2.23,4.45q0,3.81,2.23,3.81t2.24-3.81a5.65,5.65,0,0,0-.57-2.84,1.94,1.94,0,0,0-3.33,0A5.63,5.63,0,0,0,371.93,159.93Z"/><path class="cls-2" d="M361.3,193.06v2.15h-.71v-2.15h-4v-.75l4-5.75h.7v5.85h1.3v.66Zm-.71-5.36h0l-3.27,4.71h3.29Z"/><path class="cls-2" d="M369.33,186.66v.72h-3.78l-.54,2.78,0,0a2.32,2.32,0,0,1,.82-.52,2.79,2.79,0,0,1,1-.18,3.18,3.18,0,0,1,1.2.22,2.6,2.6,0,0,1,.92.61,2.73,2.73,0,0,1,.59.94,3.43,3.43,0,0,1,.21,1.22,2.81,2.81,0,0,1-.23,1.14,2.94,2.94,0,0,1-1.61,1.56,3.12,3.12,0,0,1-1.2.23,3.29,3.29,0,0,1-1.1-.17,2.58,2.58,0,0,1-.85-.48,2.26,2.26,0,0,1-.56-.74,2.52,2.52,0,0,1-.23-1h.79a1.84,1.84,0,0,0,.16.64,1.65,1.65,0,0,0,.4.54,2,2,0,0,0,.62.37,2.29,2.29,0,0,0,.83.14,2.06,2.06,0,0,0,.87-.19,2.14,2.14,0,0,0,.7-.5,2.4,2.4,0,0,0,.46-.75,2.49,2.49,0,0,0,.17-.92,2.41,2.41,0,0,0-.16-.87,2.12,2.12,0,0,0-1.14-1.2,2.2,2.2,0,0,0-.91-.18,2.55,2.55,0,0,0-1.07.22,2.22,2.22,0,0,0-.85.68h-.66l.81-4.38Z"/><path class="cls-2" d="M372.93,193.94v1.27h-1.11v-1.27Z"/><path class="cls-2" d="M380.28,186.66v.72H376.5l-.54,2.78,0,0a2.32,2.32,0,0,1,.82-.52,2.79,2.79,0,0,1,1-.18,3.18,3.18,0,0,1,1.2.22,2.6,2.6,0,0,1,.92.61,2.73,2.73,0,0,1,.59.94,3.43,3.43,0,0,1,.21,1.22,2.81,2.81,0,0,1-.23,1.14,2.94,2.94,0,0,1-1.61,1.56,3.12,3.12,0,0,1-1.2.23,3.29,3.29,0,0,1-1.1-.17,2.58,2.58,0,0,1-.85-.48,2.26,2.26,0,0,1-.56-.74,2.52,2.52,0,0,1-.23-1h.79a1.84,1.84,0,0,0,.16.64,1.65,1.65,0,0,0,.4.54,2,2,0,0,0,.62.37,2.29,2.29,0,0,0,.83.14,2.06,2.06,0,0,0,.87-.19,2.14,2.14,0,0,0,.7-.5,2.4,2.4,0,0,0,.46-.75,2.49,2.49,0,0,0,.17-.92,2.41,2.41,0,0,0-.16-.87,2.12,2.12,0,0,0-1.14-1.2,2.2,2.2,0,0,0-.91-.18,2.55,2.55,0,0,0-1.07.22,2.22,2.22,0,0,0-.85.68h-.66l.81-4.38Z"/><path class="cls-2" d="M386.13,189a3.32,3.32,0,0,1-.13,1,2,2,0,0,1-.37.71,1.57,1.57,0,0,1-.6.45,2.06,2.06,0,0,1-.81.15,1.75,1.75,0,0,1-1.42-.59,3.09,3.09,0,0,1,0-3.36,1.75,1.75,0,0,1,1.41-.59,2.08,2.08,0,0,1,.82.15,1.54,1.54,0,0,1,.6.45,2,2,0,0,1,.37.71A3.34,3.34,0,0,1,386.13,189Zm-.64,0a3,3,0,0,0-.06-.61,1.81,1.81,0,0,0-.21-.56,1.25,1.25,0,0,0-.4-.41,1.2,1.2,0,0,0-1.53.29,2.63,2.63,0,0,0,0,2.56,1.22,1.22,0,0,0,1.54.3,1.2,1.2,0,0,0,.39-.39,1.73,1.73,0,0,0,.22-.55A3.23,3.23,0,0,0,385.49,189Zm-1.15,6.6h-.57l5.44-9.11h.56Zm7.06-2.5a3.32,3.32,0,0,1-.13,1,2,2,0,0,1-.37.71,1.57,1.57,0,0,1-.6.45,2.06,2.06,0,0,1-.81.15,2,2,0,0,1-.84-.17,1.63,1.63,0,0,1-.59-.47,2.08,2.08,0,0,1-.35-.72,3.3,3.3,0,0,1-.12-.9,3.34,3.34,0,0,1,.13-1,2,2,0,0,1,.37-.71,1.54,1.54,0,0,1,.6-.45,2.28,2.28,0,0,1,1.64,0,1.54,1.54,0,0,1,.6.45,2,2,0,0,1,.37.71A3.34,3.34,0,0,1,391.4,193.13Zm-.64,0a3,3,0,0,0-.06-.61,1.81,1.81,0,0,0-.21-.56,1.25,1.25,0,0,0-.4-.41,1.21,1.21,0,0,0-1.54.29,2.17,2.17,0,0,0-.33,1.29,2.09,2.09,0,0,0,.33,1.26,1.21,1.21,0,0,0,1.53.3,1.2,1.2,0,0,0,.39-.39,1.73,1.73,0,0,0,.22-.55A3.23,3.23,0,0,0,390.76,193.14Z"/><path class="cls-2" d="M480.48,34.09a2.34,2.34,0,0,1-.7,1.8,2.55,2.55,0,0,1-1.8.64h-3v3.67h-.82V31.64H478a2.53,2.53,0,0,1,1.8.65A2.33,2.33,0,0,1,480.48,34.09Zm-.81,0a1.68,1.68,0,0,0-.5-1.29,2.11,2.11,0,0,0-1.49-.46h-2.74v3.5h2.85a2,2,0,0,0,1.35-.45A1.65,1.65,0,0,0,479.66,34.09Z"/><path class="cls-2" d="M487.37,40.16l-.27,0h-.24a1.37,1.37,0,0,1-.44-.06.65.65,0,0,1-.29-.2.82.82,0,0,1-.16-.36,2.42,2.42,0,0,1,0-.53h0a3,3,0,0,1-1,1,2.79,2.79,0,0,1-1.35.29,2.46,2.46,0,0,1-1.6-.5,1.75,1.75,0,0,1-.6-1.43,1.66,1.66,0,0,1,.66-1.43,6.79,6.79,0,0,1,3-.69,2,2,0,0,0,.44-.08.75.75,0,0,0,.29-.16.59.59,0,0,0,.16-.26,1.28,1.28,0,0,0,0-.38,1.25,1.25,0,0,0-.4-1,2,2,0,0,0-1.31-.34,2.61,2.61,0,0,0-.72.09,1.65,1.65,0,0,0-.53.25,1.13,1.13,0,0,0-.33.39,1.23,1.23,0,0,0-.13.49h-.8a2,2,0,0,1,.22-.78,1.77,1.77,0,0,1,.51-.59,2.43,2.43,0,0,1,.81-.38,4,4,0,0,1,1.09-.13,2.64,2.64,0,0,1,1.83.54,2,2,0,0,1,.59,1.52v3.56a.47.47,0,0,0,.11.33.46.46,0,0,0,.36.12.7.7,0,0,0,.25,0Zm-1.52-3.54h0q-.12.22-.77.31l-.67.1-.74.12a2.67,2.67,0,0,0-1.17.44,1,1,0,0,0-.39.84,1.16,1.16,0,0,0,.43.94,1.6,1.6,0,0,0,1,.35,2.36,2.36,0,0,0,1.63-.58,1.85,1.85,0,0,0,.65-1.44Z"/><path class="cls-2" d="M488.8,40.21V33.65h.74v1.54h0a2.56,2.56,0,0,1,.9-1.2,2.32,2.32,0,0,1,1.38-.43h.29v.8H492a2.22,2.22,0,0,0-1.71.69,2.36,2.36,0,0,0-.64,1.69v3.48Z"/><path class="cls-2" d="M499,40.16l-.27,0h-.24a1.37,1.37,0,0,1-.44-.06.65.65,0,0,1-.29-.2.82.82,0,0,1-.16-.36,2.42,2.42,0,0,1,0-.53h0a3,3,0,0,1-1,1,2.79,2.79,0,0,1-1.35.29,2.46,2.46,0,0,1-1.6-.5,1.75,1.75,0,0,1-.6-1.43,1.66,1.66,0,0,1,.66-1.43,6.79,6.79,0,0,1,3-.69,2,2,0,0,0,.44-.08.75.75,0,0,0,.29-.16.59.59,0,0,0,.16-.26,1.28,1.28,0,0,0,0-.38,1.25,1.25,0,0,0-.4-1,2,2,0,0,0-1.31-.34,2.61,2.61,0,0,0-.72.09,1.65,1.65,0,0,0-.53.25,1.13,1.13,0,0,0-.33.39,1.23,1.23,0,0,0-.13.49h-.8a2,2,0,0,1,.22-.78A1.77,1.77,0,0,1,494,34a2.43,2.43,0,0,1,.81-.38,4,4,0,0,1,1.09-.13,2.64,2.64,0,0,1,1.83.54,2,2,0,0,1,.59,1.52v3.56a.47.47,0,0,0,.11.33.46.46,0,0,0,.36.12.7.7,0,0,0,.25,0Zm-1.52-3.54h0q-.12.22-.77.31l-.67.1-.74.12a2.67,2.67,0,0,0-1.17.44,1,1,0,0,0-.39.84,1.16,1.16,0,0,0,.43.94,1.6,1.6,0,0,0,1,.35,2.36,2.36,0,0,0,1.63-.58,1.85,1.85,0,0,0,.65-1.44Z"/><path class="cls-2" d="M508.75,40.21V35.75a1.73,1.73,0,0,0-.37-1.22,1.85,1.85,0,0,0-2.5.21,2.8,2.8,0,0,0-.45,1.71v3.77h-.81V35.72a1.81,1.81,0,0,0-.34-1.17,1.25,1.25,0,0,0-1-.42,1.72,1.72,0,0,0-1.46.65,2.72,2.72,0,0,0-.5,1.71v3.72h-.8V33.65h.74v1.1h0a2.26,2.26,0,0,1,2.15-1.29,2.44,2.44,0,0,1,.64.08,1.86,1.86,0,0,1,.54.24,1.66,1.66,0,0,1,.42.4,1.87,1.87,0,0,1,.28.55,2.16,2.16,0,0,1,.85-1,2.4,2.4,0,0,1,1.24-.32A2.12,2.12,0,0,1,509,34a2.36,2.36,0,0,1,.54,1.66v4.51Z"/><path class="cls-2" d="M514.31,33.46a2.71,2.71,0,0,1,1.3.29,2.6,2.6,0,0,1,.9.79,3.44,3.44,0,0,1,.52,1.13A5.22,5.22,0,0,1,517.2,37v.13h-5.05a3.58,3.58,0,0,0,.13.94,2.58,2.58,0,0,0,.39.83,2,2,0,0,0,.66.59,1.92,1.92,0,0,0,.95.22,2.44,2.44,0,0,0,.7-.09,2,2,0,0,0,.56-.26,1.76,1.76,0,0,0,.42-.39,2.4,2.4,0,0,0,.29-.49H517a3,3,0,0,1-.38.79,2.48,2.48,0,0,1-.59.6,2.68,2.68,0,0,1-.79.39,3.33,3.33,0,0,1-1,.14,2.94,2.94,0,0,1-1.3-.27,2.56,2.56,0,0,1-.91-.73,3.12,3.12,0,0,1-.54-1.1,5.13,5.13,0,0,1-.18-1.37,4.66,4.66,0,0,1,.18-1.28,3.37,3.37,0,0,1,.54-1.11,2.74,2.74,0,0,1,.92-.78A2.79,2.79,0,0,1,514.31,33.46Zm2.09,3a3,3,0,0,0-.16-.85,2.44,2.44,0,0,0-.41-.75,2.07,2.07,0,0,0-.65-.54,1.84,1.84,0,0,0-.88-.21,1.84,1.84,0,0,0-1.5.7,2.69,2.69,0,0,0-.42.75,4.32,4.32,0,0,0-.23.9Z"/><path class="cls-2" d="M521.52,40.27h-.66a3,3,0,0,1-.68-.06,1,1,0,0,1-.45-.23.89.89,0,0,1-.25-.43,2.65,2.65,0,0,1-.07-.68V34.32h-1.32v-.67h1.32v-2h.8v2h1.5v.67h-1.5V38.8a1.75,1.75,0,0,0,0,.34.64.64,0,0,0,.11.26.5.5,0,0,0,.21.16.87.87,0,0,0,.35.06h.6l.21,0v.68Z"/><path class="cls-2" d="M525.88,33.46a2.71,2.71,0,0,1,1.3.29,2.6,2.6,0,0,1,.9.79,3.44,3.44,0,0,1,.52,1.13,5.22,5.22,0,0,1,.17,1.34v.13h-5.05a3.58,3.58,0,0,0,.13.94,2.58,2.58,0,0,0,.39.83,2,2,0,0,0,.66.59,1.92,1.92,0,0,0,.95.22,2.44,2.44,0,0,0,.7-.09,2,2,0,0,0,.56-.26,1.76,1.76,0,0,0,.42-.39,2.4,2.4,0,0,0,.29-.49h.79a3,3,0,0,1-.38.79,2.48,2.48,0,0,1-.59.6,2.68,2.68,0,0,1-.79.39,3.33,3.33,0,0,1-1,.14,2.94,2.94,0,0,1-1.3-.27,2.56,2.56,0,0,1-.91-.73,3.12,3.12,0,0,1-.54-1.1,5.13,5.13,0,0,1-.18-1.37,4.66,4.66,0,0,1,.18-1.28,3.37,3.37,0,0,1,.54-1.11,2.74,2.74,0,0,1,.92-.78A2.79,2.79,0,0,1,525.88,33.46Zm2.09,3a3,3,0,0,0-.16-.85,2.44,2.44,0,0,0-.41-.75,2.07,2.07,0,0,0-.65-.54,1.84,1.84,0,0,0-.88-.21,1.84,1.84,0,0,0-1.5.7,2.69,2.69,0,0,0-.42.75,4.32,4.32,0,0,0-.23.9Z"/><path class="cls-2" d="M530.44,40.21V33.65h.74v1.54h0a2.56,2.56,0,0,1,.9-1.2,2.32,2.32,0,0,1,1.38-.43h.29v.8h-.18a2.22,2.22,0,0,0-1.71.69,2.36,2.36,0,0,0-.64,1.69v3.48Z"/><path class="cls-2" d="M542.77,38.06v2.15h-.71V38.06h-4v-.75l4-5.75h.7V37.4h1.3v.66Zm-.71-5.36h0l-3.27,4.71h3.29Z"/><path class="cls-2" d="M479.06,62.66v.72h-3.78l-.54,2.78,0,0a2.32,2.32,0,0,1,.82-.52,2.79,2.79,0,0,1,1-.18,3.18,3.18,0,0,1,1.2.22,2.6,2.6,0,0,1,.92.61,2.73,2.73,0,0,1,.59.94,3.43,3.43,0,0,1,.21,1.22,2.81,2.81,0,0,1-.23,1.14,2.94,2.94,0,0,1-1.61,1.56,3.12,3.12,0,0,1-1.2.23,3.29,3.29,0,0,1-1.1-.17,2.58,2.58,0,0,1-.85-.48,2.26,2.26,0,0,1-.56-.74,2.52,2.52,0,0,1-.23-1h.79a1.84,1.84,0,0,0,.16.64,1.65,1.65,0,0,0,.4.54,2,2,0,0,0,.62.37,2.29,2.29,0,0,0,.83.14,2.06,2.06,0,0,0,.87-.19,2.14,2.14,0,0,0,.7-.5,2.4,2.4,0,0,0,.46-.75,2.49,2.49,0,0,0,.17-.92,2.41,2.41,0,0,0-.16-.87,2.12,2.12,0,0,0-1.14-1.2,2.2,2.2,0,0,0-.91-.18,2.55,2.55,0,0,0-1.07.22,2.22,2.22,0,0,0-.85.68h-.66l.81-4.38Z"/><path class="cls-2" d="M486.89,68.79a2.36,2.36,0,0,1-.83,1.91,3.22,3.22,0,0,1-2.16.7,3.18,3.18,0,0,1-2.16-.71,2.52,2.52,0,0,1-.7-2.64,2.28,2.28,0,0,1,.35-.66,2.18,2.18,0,0,1,1.28-.81v0a2.05,2.05,0,0,1-1.06-.72,2,2,0,0,1-.35-1.18,1.9,1.9,0,0,1,.76-1.57,2.91,2.91,0,0,1,1.86-.59,3,3,0,0,1,1.88.59,1.88,1.88,0,0,1,.76,1.57,2.2,2.2,0,0,1-.09.65,1.8,1.8,0,0,1-.72,1,2.1,2.1,0,0,1-.6.28v0a2.18,2.18,0,0,1,1.32.76A2.3,2.3,0,0,1,486.89,68.79Zm-.78,0a1.75,1.75,0,0,0-.59-1.35,2.78,2.78,0,0,0-3.24,0,1.76,1.76,0,0,0-.57,1.37,1.79,1.79,0,0,0,.6,1.42,2.7,2.7,0,0,0,3.2,0A1.79,1.79,0,0,0,486.11,68.79Zm-.36-4.14a1.35,1.35,0,0,0-.5-1.1,2.37,2.37,0,0,0-2.67,0,1.3,1.3,0,0,0-.53,1.09,1.48,1.48,0,0,0,.49,1.18,2,2,0,0,0,1.32.43,2,2,0,0,0,1.41-.45A1.52,1.52,0,0,0,485.75,64.65Z"/><path class="cls-2" d="M476.63,93.49a2.87,2.87,0,0,1,1.32.29,2.48,2.48,0,0,1,.94.85,4.14,4.14,0,0,1,.57,1.39,8.64,8.64,0,0,1,.19,1.92,5.94,5.94,0,0,1-.77,3.35,2.82,2.82,0,0,1-4.49,0,7.62,7.62,0,0,1,0-6.69A2.56,2.56,0,0,1,476.63,93.49Zm-2.23,4.45q0,3.81,2.23,3.81t2.24-3.81a5.65,5.65,0,0,0-.57-2.84,1.94,1.94,0,0,0-3.33,0A5.63,5.63,0,0,0,474.39,97.93Z"/><path class="cls-2" d="M476.7,133.21v-6.43h-2.29v-.56c.36,0,.66,0,.9-.06a2.36,2.36,0,0,0,.57-.12,1.31,1.31,0,0,0,.64-.52,2.46,2.46,0,0,0,.31-1h.63v8.65Z"/><path class="cls-2" d="M483.9,124.49a2.81,2.81,0,0,1,2,.66,2.28,2.28,0,0,1,.73,1.78,2.82,2.82,0,0,1-.55,1.66,7,7,0,0,1-2,1.66,8.29,8.29,0,0,0-1.66,1.23,2,2,0,0,0-.56,1h4.81v.72h-5.7a3,3,0,0,1,.56-1.74,6.61,6.61,0,0,1,1.93-1.66,8.78,8.78,0,0,0,1.89-1.48,2.11,2.11,0,0,0,.51-1.41,1.64,1.64,0,0,0-.54-1.28,2,2,0,0,0-1.4-.49,2,2,0,0,0-.86.17,1.82,1.82,0,0,0-.61.44,1.77,1.77,0,0,0-.36.62,2.21,2.21,0,0,0-.12.71v.17h-.77v-.12a2.93,2.93,0,0,1,.17-1,2.42,2.42,0,0,1,.51-.84,2.47,2.47,0,0,1,.86-.59A3.06,3.06,0,0,1,483.9,124.49Z"/><path class="cls-2" d="M490.95,133.4a3.17,3.17,0,0,1-.94-.13,2.34,2.34,0,0,1-.75-.38,2.14,2.14,0,0,1-.54-.62,2.49,2.49,0,0,1-.3-.83h.78a1.7,1.7,0,0,0,.19.51,1.45,1.45,0,0,0,.35.42,1.67,1.67,0,0,0,.52.28,2.15,2.15,0,0,0,.69.1,2,2,0,0,0,1-.26,2.1,2.1,0,0,0,.75-.75,3.82,3.82,0,0,0,.45-1.21,8,8,0,0,0,.15-1.65h0a2.58,2.58,0,0,1-2.31,1.44,2.74,2.74,0,0,1-2.05-.81,2.83,2.83,0,0,1-.8-2.08,2.84,2.84,0,0,1,2.94-2.94,3.09,3.09,0,0,1,1.41.29,2.31,2.31,0,0,1,.93.84A4.2,4.2,0,0,1,494,127a10.4,10.4,0,0,1,.17,2.05,8.41,8.41,0,0,1-.07,1.06,5.57,5.57,0,0,1-.22,1,4.45,4.45,0,0,1-.4.89,2.84,2.84,0,0,1-.6.72,2.66,2.66,0,0,1-.82.48A3.07,3.07,0,0,1,490.95,133.4Zm2.23-6a2.25,2.25,0,0,0-.57-1.63,2.11,2.11,0,0,0-1.59-.59,1.91,1.91,0,0,0-1.49.66,2.26,2.26,0,0,0-.59,1.56,2.4,2.4,0,0,0,.57,1.64,1.92,1.92,0,0,0,1.52.65,2,2,0,0,0,1.54-.63A2.29,2.29,0,0,0,493.18,127.36Z"/><path class="cls-2" d="M478.3,162.06v2.15h-.71v-2.15h-4v-.75l4-5.75h.7v5.85h1.3v.66Zm-.71-5.36h0l-3.27,4.71h3.29Z"/><path class="cls-2" d="M486.33,155.66v.72h-3.78l-.54,2.78,0,0a2.32,2.32,0,0,1,.82-.52,2.79,2.79,0,0,1,1-.18,3.18,3.18,0,0,1,1.2.22,2.6,2.6,0,0,1,.92.61,2.73,2.73,0,0,1,.59.94,3.43,3.43,0,0,1,.21,1.22,2.81,2.81,0,0,1-.23,1.14,2.94,2.94,0,0,1-1.61,1.56,3.12,3.12,0,0,1-1.2.23,3.29,3.29,0,0,1-1.1-.17,2.58,2.58,0,0,1-.85-.48,2.26,2.26,0,0,1-.56-.74,2.52,2.52,0,0,1-.23-1h.79a1.84,1.84,0,0,0,.16.64,1.65,1.65,0,0,0,.4.54,2,2,0,0,0,.62.37,2.29,2.29,0,0,0,.83.14,2.06,2.06,0,0,0,.87-.19,2.14,2.14,0,0,0,.7-.5,2.4,2.4,0,0,0,.46-.75,2.49,2.49,0,0,0,.17-.92,2.41,2.41,0,0,0-.16-.87,2.12,2.12,0,0,0-1.14-1.2,2.2,2.2,0,0,0-.91-.18,2.55,2.55,0,0,0-1.07.22,2.22,2.22,0,0,0-.85.68h-.66l.81-4.38Z"/><path class="cls-2" d="M476.7,195.21v-6.43h-2.29v-.56c.36,0,.66,0,.9-.06a2.36,2.36,0,0,0,.57-.12,1.31,1.31,0,0,0,.64-.52,2.46,2.46,0,0,0,.31-1h.63v8.65Z"/><path class="cls-2" d="M483.89,186.49a2.87,2.87,0,0,1,1.32.29,2.48,2.48,0,0,1,.94.85,4.14,4.14,0,0,1,.57,1.39,8.64,8.64,0,0,1,.19,1.92,5.94,5.94,0,0,1-.77,3.35,2.82,2.82,0,0,1-4.49,0,7.62,7.62,0,0,1,0-6.69A2.56,2.56,0,0,1,483.89,186.49Zm-2.23,4.45q0,3.81,2.23,3.81t2.24-3.81a5.65,5.65,0,0,0-.57-2.84,1.94,1.94,0,0,0-3.33,0A5.63,5.63,0,0,0,481.66,190.93Z"/><path class="cls-2" d="M489.93,193.94v1.27h-1.11v-1.27Z"/><path class="cls-2" d="M494.85,186.49a2.81,2.81,0,0,1,2,.66,2.28,2.28,0,0,1,.73,1.78,2.82,2.82,0,0,1-.55,1.66,7,7,0,0,1-2,1.66,8.29,8.29,0,0,0-1.66,1.23,2,2,0,0,0-.56,1h4.81v.72h-5.7a3,3,0,0,1,.56-1.74,6.61,6.61,0,0,1,1.93-1.66,8.78,8.78,0,0,0,1.89-1.48,2.11,2.11,0,0,0,.51-1.41,1.64,1.64,0,0,0-.54-1.28,2,2,0,0,0-1.4-.49,2,2,0,0,0-.86.17,1.82,1.82,0,0,0-.61.44,1.77,1.77,0,0,0-.36.62,2.21,2.21,0,0,0-.12.71v.17h-.77v-.12a2.93,2.93,0,0,1,.17-1,2.42,2.42,0,0,1,.51-.84,2.47,2.47,0,0,1,.86-.59A3.06,3.06,0,0,1,494.85,186.49Z"/><path class="cls-2" d="M503.13,189a3.32,3.32,0,0,1-.13,1,2,2,0,0,1-.37.71,1.57,1.57,0,0,1-.6.45,2.06,2.06,0,0,1-.81.15,1.75,1.75,0,0,1-1.42-.59,3.09,3.09,0,0,1,0-3.36,1.75,1.75,0,0,1,1.41-.59,2.08,2.08,0,0,1,.82.15,1.54,1.54,0,0,1,.6.45,2,2,0,0,1,.37.71A3.34,3.34,0,0,1,503.13,189Zm-.64,0a3,3,0,0,0-.06-.61,1.81,1.81,0,0,0-.21-.56,1.25,1.25,0,0,0-.4-.41,1.2,1.2,0,0,0-1.53.29,2.63,2.63,0,0,0,0,2.56,1.22,1.22,0,0,0,1.54.3,1.2,1.2,0,0,0,.39-.39,1.73,1.73,0,0,0,.22-.55A3.23,3.23,0,0,0,502.49,189Zm-1.15,6.6h-.57l5.44-9.11h.56Zm7.06-2.5a3.32,3.32,0,0,1-.13,1,2,2,0,0,1-.37.71,1.57,1.57,0,0,1-.6.45,2.06,2.06,0,0,1-.81.15,2,2,0,0,1-.84-.17,1.63,1.63,0,0,1-.59-.47,2.08,2.08,0,0,1-.35-.72,3.3,3.3,0,0,1-.12-.9,3.34,3.34,0,0,1,.13-1,2,2,0,0,1,.37-.71,1.54,1.54,0,0,1,.6-.45,2.28,2.28,0,0,1,1.64,0,1.54,1.54,0,0,1,.6.45,2,2,0,0,1,.37.71A3.34,3.34,0,0,1,508.4,193.13Zm-.64,0a3,3,0,0,0-.06-.61,1.81,1.81,0,0,0-.21-.56,1.25,1.25,0,0,0-.4-.41,1.21,1.21,0,0,0-1.54.29,2.17,2.17,0,0,0-.33,1.29,2.09,2.09,0,0,0,.33,1.26,1.21,1.21,0,0,0,1.53.3,1.2,1.2,0,0,0,.39-.39,1.73,1.73,0,0,0,.22-.55A3.23,3.23,0,0,0,507.76,193.14Z"/><rect class="cls-9" x="119.5" y="128.5" width="216" height="1" transform="translate(98.5 356.5) rotate(-90)"/><rect class="cls-9" x="235.5" y="128.5" width="216" height="1" transform="translate(214.5 472.5) rotate(-90)"/><rect class="cls-9" x="352.5" y="128.5" width="216" height="1" transform="translate(331.5 589.5) rotate(-90)"/><line class="cls-11" x1="138.5" y1="238" x2="138.5" y2="20.01"/></g></svg>