<svg xmlns="http://www.w3.org/2000/svg" viewBox="0 0 415 180"><defs><style>.cls-1{fill:#fff;}.cls-2{fill:#dcdcdc;}.cls-3{fill:#444;}.cls-4,.cls-5{fill:#f03040;}.cls-4{opacity:0.09;}.cls-6{fill:none;stroke:#787878;stroke-miterlimit:10;opacity:0.2;}.cls-7{fill:#464646;}</style></defs><title>Artboard 64</title><g id="Bg"><rect class="cls-1" x="-4918.5" y="-1279.5" width="6000" height="2500"/></g><g id="Tabeller"><rect class="cls-1" x="15.5" y="21.5" width="100" height="30"/><rect class="cls-1" x="15.5" y="52.5" width="100" height="30"/><rect class="cls-1" x="15.5" y="83.5" width="100" height="30"/><rect class="cls-1" x="116" y="21" width="92" height="31"/><path class="cls-2" d="M207.5,21.5v30h-91v-30h91m1-1h-93v32h93v-32Z"/><rect class="cls-1" x="208" y="21" width="92" height="31"/><path class="cls-2" d="M299.5,21.5v30h-91v-30h91m1-1h-93v32h93v-32Z"/><path class="cls-3" d="M22.6,31.94l1.94,7.5h0l2.09-7.5h1l2.1,7.5h0l2-7.5h.81L30.21,40.5h-.87l-2.17-7.67h0L25,40.5H24.1l-2.38-8.57Z"/><path class="cls-3" d="M39.46,37.22a4.29,4.29,0,0,1-.2,1.31,3.31,3.31,0,0,1-.61,1.13,2.9,2.9,0,0,1-2.29,1,2.84,2.84,0,0,1-2.24-1,4.07,4.07,0,0,1,0-5,3.08,3.08,0,0,1,4.51,0A3.65,3.65,0,0,1,39.46,37.22Zm-.8,0a3.8,3.8,0,0,0-.13-1,2.81,2.81,0,0,0-.42-.9,2.25,2.25,0,0,0-.72-.65,2,2,0,0,0-1-.25,2,2,0,0,0-1,.24,2.24,2.24,0,0,0-.72.64,2.85,2.85,0,0,0-.44.9,3.66,3.66,0,0,0-.15,1,3.58,3.58,0,0,0,.14,1,3,3,0,0,0,.43.9,2.24,2.24,0,0,0,.71.65,2,2,0,0,0,1,.25,2,2,0,0,0,1-.24,2.33,2.33,0,0,0,.72-.63,2.8,2.8,0,0,0,.45-.89A3.54,3.54,0,0,0,38.66,37.22Z"/><path class="cls-3" d="M45.83,40.5V39.32h0a2.48,2.48,0,0,1-.39.58,2.34,2.34,0,0,1-.52.43,2.47,2.47,0,0,1-.63.27,2.73,2.73,0,0,1-.72.09,2.21,2.21,0,0,1-1.74-.63,2.64,2.64,0,0,1-.56-1.82V33.94H42v4.28a2.67,2.67,0,0,0,.1.76,1.43,1.43,0,0,0,.31.57,1.33,1.33,0,0,0,.54.35,2.33,2.33,0,0,0,.79.12,1.7,1.7,0,0,0,.89-.23,1.92,1.92,0,0,0,.62-.59,2.62,2.62,0,0,0,.36-.83,3.9,3.9,0,0,0,.11-.94V33.94h.8V40.5Z"/><path class="cls-3" d="M51.66,33.75a3.35,3.35,0,0,1,1.08.16,1.83,1.83,0,0,1,.74.46,1.87,1.87,0,0,1,.43.77,3.79,3.79,0,0,1,.14,1.08V40.5h-.8V36.35a2.2,2.2,0,0,0-.41-1.44,1.54,1.54,0,0,0-1.25-.49,2.07,2.07,0,0,0-.86.17,1.88,1.88,0,0,0-.65.48,2.16,2.16,0,0,0-.41.71,2.63,2.63,0,0,0-.14.88V40.5h-.8V33.94h.8v1.14h0a2,2,0,0,1,.35-.56,2.18,2.18,0,0,1,.49-.42,2.33,2.33,0,0,1,.6-.26A2.48,2.48,0,0,1,51.66,33.75Z"/><path class="cls-3" d="M62,31.42V40.5h-.74V39.25h0a2,2,0,0,1-.39.59,2.57,2.57,0,0,1-.56.45,2.8,2.8,0,0,1-.67.29,2.63,2.63,0,0,1-.72.1,2.8,2.8,0,0,1-1.28-.28,2.68,2.68,0,0,1-.92-.75,3.32,3.32,0,0,1-.56-1.11,4.68,4.68,0,0,1-.19-1.34,4.83,4.83,0,0,1,.17-1.29,3.31,3.31,0,0,1,.53-1.11,2.69,2.69,0,0,1,.92-.78,3,3,0,0,1,2-.2,2.56,2.56,0,0,1,.65.27,2.25,2.25,0,0,1,.54.45,2.07,2.07,0,0,1,.38.63h0V31.42Zm-5.26,5.8a4.17,4.17,0,0,0,.05.65,3.7,3.7,0,0,0,.16.64,2.82,2.82,0,0,0,.28.58,2.15,2.15,0,0,0,.41.48,1.8,1.8,0,0,0,.55.32,2,2,0,0,0,.7.12,2.08,2.08,0,0,0,1.73-.84,2.66,2.66,0,0,0,.43-.89,4,4,0,0,0,.14-1.06,4,4,0,0,0-.13-1,2.73,2.73,0,0,0-.41-.9,2.06,2.06,0,0,0-1.76-.88,1.94,1.94,0,0,0-.68.11,1.8,1.8,0,0,0-.54.31,2.15,2.15,0,0,0-.41.47,2.8,2.8,0,0,0-.29.58,3.52,3.52,0,0,0-.17.65A4.25,4.25,0,0,0,56.71,37.22Z"/><path class="cls-3" d="M22.6,62.94l1.94,7.5h0l2.09-7.5h1l2.1,7.5h0l2-7.5h.81L30.21,71.5h-.87l-2.17-7.67h0L25,71.5H24.1l-2.38-8.57Z"/><path class="cls-3" d="M33.72,71.5V64.94h.74v1.54h0a2.56,2.56,0,0,1,.9-1.2,2.32,2.32,0,0,1,1.38-.43h.29v.8h-.18a2.22,2.22,0,0,0-1.71.69A2.36,2.36,0,0,0,34.52,68V71.5Z"/><path class="cls-3" d="M44,71.46l-.27,0h-.24a1.37,1.37,0,0,1-.44-.06.65.65,0,0,1-.29-.2.82.82,0,0,1-.16-.35,2.43,2.43,0,0,1,0-.53h0a3,3,0,0,1-1,1,2.79,2.79,0,0,1-1.35.29,2.46,2.46,0,0,1-1.6-.5,1.75,1.75,0,0,1-.6-1.43,1.66,1.66,0,0,1,.66-1.43,6.79,6.79,0,0,1,3-.69,2,2,0,0,0,.44-.08.75.75,0,0,0,.29-.16.6.6,0,0,0,.16-.26,1.28,1.28,0,0,0,0-.38,1.24,1.24,0,0,0-.4-1,2,2,0,0,0-1.31-.34,2.61,2.61,0,0,0-.72.09,1.65,1.65,0,0,0-.53.25,1.13,1.13,0,0,0-.33.39,1.23,1.23,0,0,0-.13.49h-.8a2,2,0,0,1,.22-.78,1.78,1.78,0,0,1,.51-.59,2.43,2.43,0,0,1,.81-.38,4,4,0,0,1,1.09-.13,2.64,2.64,0,0,1,1.83.54,2,2,0,0,1,.59,1.52v3.56a.47.47,0,0,0,.11.33.46.46,0,0,0,.36.12.7.7,0,0,0,.25,0Zm-1.52-3.54h0q-.12.22-.77.31l-.67.1-.74.12a2.67,2.67,0,0,0-1.17.44,1,1,0,0,0-.39.84,1.16,1.16,0,0,0,.43.94,1.6,1.6,0,0,0,1,.35,2.36,2.36,0,0,0,1.63-.58A1.85,1.85,0,0,0,42.44,69Z"/><path class="cls-3" d="M51.45,68.22a4.77,4.77,0,0,1-.17,1.28,3.38,3.38,0,0,1-.53,1.11,2.69,2.69,0,0,1-.92.79,2.78,2.78,0,0,1-1.32.3,2.81,2.81,0,0,1-.71-.09,2.45,2.45,0,0,1-.65-.27,2.29,2.29,0,0,1-.54-.45,2.21,2.21,0,0,1-.38-.63h0v3.67h-.8v-9h.74v1.25h0a2.24,2.24,0,0,1,.39-.61,2.29,2.29,0,0,1,.55-.45,2.67,2.67,0,0,1,.67-.28,2.81,2.81,0,0,1,.74-.1,2.85,2.85,0,0,1,1.29.28,2.64,2.64,0,0,1,.92.75,3.32,3.32,0,0,1,.56,1.1A4.67,4.67,0,0,1,51.45,68.22Zm-.8,0a4.48,4.48,0,0,0-.11-1,2.84,2.84,0,0,0-.37-.9,2.07,2.07,0,0,0-.67-.66,1.9,1.9,0,0,0-1-.26,2.09,2.09,0,0,0-1.7.7,3.21,3.21,0,0,0-.58,2.09,4.2,4.2,0,0,0,.13,1,2.68,2.68,0,0,0,.4.9,2.1,2.1,0,0,0,.71.64A2.16,2.16,0,0,0,48.5,71a1.87,1.87,0,0,0,1-.24,2,2,0,0,0,.67-.63,2.87,2.87,0,0,0,.39-.9A4.14,4.14,0,0,0,50.65,68.22Z"/><path class="cls-3" d="M59.38,68.22a4.77,4.77,0,0,1-.17,1.28,3.38,3.38,0,0,1-.53,1.11,2.69,2.69,0,0,1-.92.79,2.78,2.78,0,0,1-1.32.3,2.81,2.81,0,0,1-.71-.09,2.45,2.45,0,0,1-.65-.27,2.29,2.29,0,0,1-.54-.45,2.21,2.21,0,0,1-.38-.63h0v3.67h-.8v-9h.74v1.25h0a2.24,2.24,0,0,1,.39-.61,2.29,2.29,0,0,1,.55-.45,2.67,2.67,0,0,1,.67-.28,2.81,2.81,0,0,1,.74-.1,2.85,2.85,0,0,1,1.29.28,2.64,2.64,0,0,1,.92.75,3.32,3.32,0,0,1,.56,1.1A4.67,4.67,0,0,1,59.38,68.22Zm-.8,0a4.48,4.48,0,0,0-.11-1,2.84,2.84,0,0,0-.37-.9,2.07,2.07,0,0,0-.67-.66,1.9,1.9,0,0,0-1-.26,2.09,2.09,0,0,0-1.7.7,3.21,3.21,0,0,0-.58,2.09,4.2,4.2,0,0,0,.13,1,2.68,2.68,0,0,0,.4.9,2.1,2.1,0,0,0,.71.64,2.16,2.16,0,0,0,1.06.24,1.87,1.87,0,0,0,1-.24,2,2,0,0,0,.67-.63,2.87,2.87,0,0,0,.39-.9A4.14,4.14,0,0,0,58.58,68.22Z"/><path class="cls-3" d="M63.82,64.75a2.71,2.71,0,0,1,1.3.29,2.6,2.6,0,0,1,.9.79A3.45,3.45,0,0,1,66.54,67a5.21,5.21,0,0,1,.17,1.34v.13H61.66a3.58,3.58,0,0,0,.13.94,2.59,2.59,0,0,0,.39.83,2,2,0,0,0,.66.59,1.92,1.92,0,0,0,.95.22,2.44,2.44,0,0,0,.7-.09,2,2,0,0,0,.56-.26,1.76,1.76,0,0,0,.42-.39,2.41,2.41,0,0,0,.29-.49h.79a3,3,0,0,1-.38.79,2.48,2.48,0,0,1-.59.6,2.68,2.68,0,0,1-.79.39,3.34,3.34,0,0,1-1,.14,2.94,2.94,0,0,1-1.3-.27,2.56,2.56,0,0,1-.91-.73,3.12,3.12,0,0,1-.54-1.1,5.14,5.14,0,0,1-.18-1.37A4.66,4.66,0,0,1,61,66.94a3.36,3.36,0,0,1,.54-1.11A2.74,2.74,0,0,1,62.5,65,2.79,2.79,0,0,1,63.82,64.75Zm2.09,3a3,3,0,0,0-.16-.85,2.44,2.44,0,0,0-.41-.75,2.07,2.07,0,0,0-.65-.54,1.84,1.84,0,0,0-.88-.21,1.84,1.84,0,0,0-1.5.7,2.7,2.7,0,0,0-.42.75,4.31,4.31,0,0,0-.23.9Z"/><path class="cls-3" d="M74.12,62.42V71.5h-.74V70.25h0a2,2,0,0,1-.39.59,2.57,2.57,0,0,1-.56.45,2.8,2.8,0,0,1-.67.29,2.63,2.63,0,0,1-.72.1,2.8,2.8,0,0,1-1.28-.28,2.68,2.68,0,0,1-.92-.75,3.32,3.32,0,0,1-.56-1.11,4.68,4.68,0,0,1-.19-1.34,4.83,4.83,0,0,1,.17-1.29,3.31,3.31,0,0,1,.53-1.11,2.69,2.69,0,0,1,.92-.78,3,3,0,0,1,2-.2,2.56,2.56,0,0,1,.65.27,2.25,2.25,0,0,1,.54.45,2.07,2.07,0,0,1,.38.63h0V62.42Zm-5.26,5.8a4.17,4.17,0,0,0,.05.65,3.7,3.7,0,0,0,.16.64,2.82,2.82,0,0,0,.28.58,2.15,2.15,0,0,0,.41.48,1.8,1.8,0,0,0,.55.32A2,2,0,0,0,71,71a2.08,2.08,0,0,0,1.73-.84,2.66,2.66,0,0,0,.43-.89,4,4,0,0,0,.14-1.06,4,4,0,0,0-.13-1,2.73,2.73,0,0,0-.41-.9A2.06,2.06,0,0,0,71,65.42a1.94,1.94,0,0,0-.68.11,1.8,1.8,0,0,0-.54.31,2.15,2.15,0,0,0-.41.47,2.8,2.8,0,0,0-.29.58,3.52,3.52,0,0,0-.17.65A4.25,4.25,0,0,0,68.86,68.22Z"/><path class="cls-3" d="M29.32,100.06a2.18,2.18,0,0,1-.78,1.82,3.51,3.51,0,0,1-2.22.62H22.63V93.94h3.69a4.84,4.84,0,0,1,1,.11,2.47,2.47,0,0,1,.86.35,1.81,1.81,0,0,1,.59.65A2,2,0,0,1,29,96a2.1,2.1,0,0,1-.1.64,1.89,1.89,0,0,1-.76,1,2,2,0,0,1-.63.28v0a2.29,2.29,0,0,1,.76.23,1.86,1.86,0,0,1,.92,1.07A2.49,2.49,0,0,1,29.32,100.06Zm-1.14-3.83A1.45,1.45,0,0,0,27.69,95a2.29,2.29,0,0,0-1.45-.39H23.45v3.06H26.3a2.88,2.88,0,0,0,.67-.08,1.87,1.87,0,0,0,.59-.25,1.35,1.35,0,0,0,.62-1.13Zm.32,3.81a1.42,1.42,0,0,0-.59-1.24,2.89,2.89,0,0,0-1.68-.41h-2.8v3.42h2.87a2.64,2.64,0,0,0,1.64-.43A1.58,1.58,0,0,0,28.51,100Z"/><path class="cls-3" d="M36.85,99.22a4.29,4.29,0,0,1-.2,1.31,3.31,3.31,0,0,1-.61,1.13,2.9,2.9,0,0,1-2.29,1,2.84,2.84,0,0,1-2.24-1,4.07,4.07,0,0,1,0-5,3.08,3.08,0,0,1,4.51,0A3.65,3.65,0,0,1,36.85,99.22Zm-.8,0a3.8,3.8,0,0,0-.13-1,2.81,2.81,0,0,0-.42-.9,2.25,2.25,0,0,0-.72-.65,2,2,0,0,0-1-.25,2,2,0,0,0-1,.24,2.24,2.24,0,0,0-.72.64,2.85,2.85,0,0,0-.44.9,3.66,3.66,0,0,0-.15,1,3.58,3.58,0,0,0,.14,1,3,3,0,0,0,.43.9,2.24,2.24,0,0,0,.71.65,2,2,0,0,0,1,.25,2,2,0,0,0,1-.24,2.33,2.33,0,0,0,.72-.63,2.8,2.8,0,0,0,.45-.89A3.54,3.54,0,0,0,36,99.22Z"/><path class="cls-3" d="M44.46,99.22a4.29,4.29,0,0,1-.2,1.31,3.31,3.31,0,0,1-.61,1.13,2.9,2.9,0,0,1-2.29,1,2.84,2.84,0,0,1-2.24-1,4.07,4.07,0,0,1,0-5,3.08,3.08,0,0,1,4.51,0A3.65,3.65,0,0,1,44.46,99.22Zm-.8,0a3.8,3.8,0,0,0-.13-1,2.81,2.81,0,0,0-.42-.9,2.25,2.25,0,0,0-.72-.65,2,2,0,0,0-1-.25,2,2,0,0,0-1,.24,2.24,2.24,0,0,0-.72.64,2.85,2.85,0,0,0-.44.9,3.66,3.66,0,0,0-.15,1,3.58,3.58,0,0,0,.14,1,3,3,0,0,0,.43.9,2.24,2.24,0,0,0,.71.65,2,2,0,0,0,1,.25,2,2,0,0,0,1-.24,2.33,2.33,0,0,0,.72-.63,2.8,2.8,0,0,0,.45-.89A3.54,3.54,0,0,0,43.65,99.22Z"/><path class="cls-3" d="M47.06,93.42v5.7l3.64-3.18h1.07L49,98.37l3,4.14H51l-2.6-3.57L47.06,100v2.49h-.8V93.42Z"/><path class="cls-3" d="M55.67,95.75A2.71,2.71,0,0,1,57,96a2.6,2.6,0,0,1,.9.79A3.45,3.45,0,0,1,58.39,98a5.21,5.21,0,0,1,.17,1.34v.13H53.51a3.58,3.58,0,0,0,.13.94,2.59,2.59,0,0,0,.39.83,2,2,0,0,0,.66.59,1.92,1.92,0,0,0,.95.22,2.44,2.44,0,0,0,.7-.09,2,2,0,0,0,.56-.26,1.76,1.76,0,0,0,.42-.39,2.41,2.41,0,0,0,.29-.49h.79a3,3,0,0,1-.38.79,2.48,2.48,0,0,1-.59.6,2.68,2.68,0,0,1-.79.39,3.34,3.34,0,0,1-1,.14,2.94,2.94,0,0,1-1.3-.27,2.56,2.56,0,0,1-.91-.73,3.12,3.12,0,0,1-.54-1.1,5.14,5.14,0,0,1-.18-1.37,4.66,4.66,0,0,1,.18-1.28,3.36,3.36,0,0,1,.54-1.11,2.74,2.74,0,0,1,.92-.78A2.79,2.79,0,0,1,55.67,95.75Zm2.09,3a3,3,0,0,0-.16-.85,2.44,2.44,0,0,0-.41-.75,2.07,2.07,0,0,0-.65-.54,1.84,1.84,0,0,0-.88-.21,1.84,1.84,0,0,0-1.5.7,2.7,2.7,0,0,0-.42.75,4.31,4.31,0,0,0-.23.9Z"/><path class="cls-3" d="M66,93.42v9.08h-.74v-1.25h0a2,2,0,0,1-.39.59,2.57,2.57,0,0,1-.56.45,2.8,2.8,0,0,1-.67.29,2.63,2.63,0,0,1-.72.1,2.8,2.8,0,0,1-1.28-.28,2.68,2.68,0,0,1-.92-.75,3.32,3.32,0,0,1-.56-1.11,4.68,4.68,0,0,1-.19-1.34,4.83,4.83,0,0,1,.17-1.29,3.31,3.31,0,0,1,.53-1.11,2.69,2.69,0,0,1,.92-.78,3,3,0,0,1,2-.2,2.56,2.56,0,0,1,.65.27,2.25,2.25,0,0,1,.54.45,2.07,2.07,0,0,1,.38.63h0V93.42Zm-5.26,5.8a4.17,4.17,0,0,0,.05.65,3.7,3.7,0,0,0,.16.64,2.82,2.82,0,0,0,.28.58,2.15,2.15,0,0,0,.41.48,1.8,1.8,0,0,0,.55.32,2,2,0,0,0,.7.12,2.08,2.08,0,0,0,1.73-.84,2.66,2.66,0,0,0,.43-.89,4,4,0,0,0,.14-1.06,4,4,0,0,0-.13-1,2.73,2.73,0,0,0-.41-.9,2.06,2.06,0,0,0-1.76-.88,1.94,1.94,0,0,0-.68.11,1.8,1.8,0,0,0-.54.31,2.15,2.15,0,0,0-.41.47,2.8,2.8,0,0,0-.29.58,3.52,3.52,0,0,0-.17.65A4.25,4.25,0,0,0,60.71,99.22Z"/><rect class="cls-1" x="116" y="52" width="92" height="31"/><path class="cls-2" d="M207.5,52.5v30h-91v-30h91m1-1h-93v32h93v-32Z"/><rect class="cls-1" x="116" y="83" width="92" height="31"/><path class="cls-2" d="M207.5,83.5v30h-91v-30h91m1-1h-93v32h93v-32Z"/><rect class="cls-4" x="209" y="53" width="90" height="29"/><path class="cls-5" d="M298.5,53.5v28h-89v-28h89m1-1h-91v30h91v-30Z"/><path class="cls-2" d="M299.5,52.5v30h-91v-30h91m1-1h-93v32h93v-32Z"/><rect class="cls-1" x="208" y="83" width="92" height="31"/><path class="cls-2" d="M299.5,83.5v30h-91v-30h91m1-1h-93v32h93v-32Z"/><line class="cls-6" x1="15.5" y1="21" x2="115.5" y2="21"/><line class="cls-6" x1="15.5" y1="52" x2="115.5" y2="52"/><line class="cls-6" x1="15.5" y1="114" x2="115.5" y2="114"/><line class="cls-6" x1="15.5" y1="83" x2="115.5" y2="83"/><path class="cls-7" d="M190.72,31.47a3,3,0,0,1,2,.7,2.22,2.22,0,0,1,.6.83,2.77,2.77,0,0,1,.19,1.06,2.82,2.82,0,0,1-.46,1.55,5.83,5.83,0,0,1-1.78,1.54q-.5.3-.85.57a6.91,6.91,0,0,0-.58.47,2.8,2.8,0,0,0-.62.81h4.33V40.2h-6.08a3.35,3.35,0,0,1,.39-1.59,3.73,3.73,0,0,1,.51-.69,5.59,5.59,0,0,1,.74-.66l.95-.71,1.12-.83a2.7,2.7,0,0,0,.71-.75,1.61,1.61,0,0,0,.23-.83,1.68,1.68,0,0,0-.1-.59,1.33,1.33,0,0,0-.31-.48,1.44,1.44,0,0,0-.47-.3,1.77,1.77,0,0,0-1.31,0,1.46,1.46,0,0,0-.5.38,1.58,1.58,0,0,0-.29.53,2,2,0,0,0-.1.61v.15h-1.34v-.15a3.14,3.14,0,0,1,.21-1.15,2.54,2.54,0,0,1,.59-.9,2.71,2.71,0,0,1,.94-.59A3.45,3.45,0,0,1,190.72,31.47Z"/><path class="cls-7" d="M198,31.47a3,3,0,0,1,2,.7,2.22,2.22,0,0,1,.6.83,2.77,2.77,0,0,1,.19,1.06,2.82,2.82,0,0,1-.46,1.55,5.83,5.83,0,0,1-1.78,1.54q-.5.3-.85.57a6.91,6.91,0,0,0-.58.47,2.8,2.8,0,0,0-.62.81h4.33V40.2h-6.08a3.35,3.35,0,0,1,.39-1.59,3.73,3.73,0,0,1,.51-.69,5.59,5.59,0,0,1,.74-.66l.95-.71,1.12-.83a2.7,2.7,0,0,0,.71-.75,1.61,1.61,0,0,0,.23-.83,1.68,1.68,0,0,0-.1-.59,1.33,1.33,0,0,0-.31-.48,1.44,1.44,0,0,0-.47-.3,1.77,1.77,0,0,0-1.31,0,1.46,1.46,0,0,0-.5.38,1.58,1.58,0,0,0-.29.53,2,2,0,0,0-.1.61v.15H195v-.15a3.14,3.14,0,0,1,.21-1.15,2.54,2.54,0,0,1,.59-.9,2.71,2.71,0,0,1,.94-.59A3.45,3.45,0,0,1,198,31.47Z"/><path class="cls-7" d="M190.72,62.47a3,3,0,0,1,2,.7,2.22,2.22,0,0,1,.6.83,2.77,2.77,0,0,1,.19,1.06,2.82,2.82,0,0,1-.46,1.55,5.83,5.83,0,0,1-1.78,1.54q-.5.3-.85.57a6.91,6.91,0,0,0-.58.47,2.8,2.8,0,0,0-.62.81h4.33V71.2h-6.08a3.35,3.35,0,0,1,.39-1.59,3.73,3.73,0,0,1,.51-.69,5.59,5.59,0,0,1,.74-.66l.95-.71,1.12-.83a2.7,2.7,0,0,0,.71-.75,1.61,1.61,0,0,0,.23-.83,1.68,1.68,0,0,0-.1-.59,1.33,1.33,0,0,0-.31-.48,1.44,1.44,0,0,0-.47-.3,1.77,1.77,0,0,0-1.31,0,1.46,1.46,0,0,0-.5.38,1.58,1.58,0,0,0-.29.53,2,2,0,0,0-.1.61v.15h-1.34v-.15a3.14,3.14,0,0,1,.21-1.15,2.54,2.54,0,0,1,.59-.9,2.71,2.71,0,0,1,.94-.59A3.45,3.45,0,0,1,190.72,62.47Z"/><path class="cls-7" d="M198,62.47a3,3,0,0,1,2,.7,2.22,2.22,0,0,1,.6.83,2.77,2.77,0,0,1,.19,1.06,2.82,2.82,0,0,1-.46,1.55,5.83,5.83,0,0,1-1.78,1.54q-.5.3-.85.57a6.91,6.91,0,0,0-.58.47,2.8,2.8,0,0,0-.62.81h4.33V71.2h-6.08a3.35,3.35,0,0,1,.39-1.59,3.73,3.73,0,0,1,.51-.69,5.59,5.59,0,0,1,.74-.66l.95-.71,1.12-.83a2.7,2.7,0,0,0,.71-.75,1.61,1.61,0,0,0,.23-.83,1.68,1.68,0,0,0-.1-.59,1.33,1.33,0,0,0-.31-.48,1.44,1.44,0,0,0-.47-.3,1.77,1.77,0,0,0-1.31,0,1.46,1.46,0,0,0-.5.38,1.58,1.58,0,0,0-.29.53,2,2,0,0,0-.1.61v.15H195v-.15a3.14,3.14,0,0,1,.21-1.15,2.54,2.54,0,0,1,.59-.9,2.71,2.71,0,0,1,.94-.59A3.45,3.45,0,0,1,198,62.47Z"/><path class="cls-7" d="M193.19,93.64v1.18h-3.63l-.42,2.24,0,0a2.3,2.3,0,0,1,.75-.5,2.57,2.57,0,0,1,1-.17,2.81,2.81,0,0,1,1.14.22,2.53,2.53,0,0,1,.86.62,2.71,2.71,0,0,1,.55.93,3.47,3.47,0,0,1,.19,1.17,2.93,2.93,0,0,1-.24,1.17,3,3,0,0,1-.66,1,3.13,3.13,0,0,1-1,.65,3.22,3.22,0,0,1-1.25.24,4.16,4.16,0,0,1-1.15-.15,2.71,2.71,0,0,1-.93-.46,2.33,2.33,0,0,1-.64-.76,2.65,2.65,0,0,1-.28-1.07h1.4a1.51,1.51,0,0,0,.14.5,1.33,1.33,0,0,0,.31.41,1.41,1.41,0,0,0,.48.28,2,2,0,0,0,.65.1,1.67,1.67,0,0,0,.73-.16,1.7,1.7,0,0,0,.55-.42,1.85,1.85,0,0,0,.35-.61,2.17,2.17,0,0,0,.12-.73,2.11,2.11,0,0,0-.12-.7,1.65,1.65,0,0,0-.89-1,1.74,1.74,0,0,0-.74-.15,1.76,1.76,0,0,0-1.52.76h-1.24l.84-4.6Z"/><path class="cls-7" d="M199.79,100.15v2h-1.31v-2h-3.76V98.86l3.82-5.27h1.25V99H201v1.15Zm-1.31-4.82h0L195.82,99h2.65Z"/><path class="cls-7" d="M271.7,37.71a2.37,2.37,0,0,1-.89,1.95,3.88,3.88,0,0,1-4.51,0,2.33,2.33,0,0,1-.88-1.93,2.43,2.43,0,0,1,.11-.76,2.08,2.08,0,0,1,.33-.63,2,2,0,0,1,.52-.47,2.17,2.17,0,0,1,.7-.28v0a1.81,1.81,0,0,1-1-.67,1.92,1.92,0,0,1-.33-1.14,2,2,0,0,1,.81-1.65,3.16,3.16,0,0,1,2-.62,2.91,2.91,0,0,1,2,.67,2,2,0,0,1,.76,1.58,2.14,2.14,0,0,1-.08.61,1.83,1.83,0,0,1-.25.52,1.75,1.75,0,0,1-.41.42,2,2,0,0,1-.57.28v0a2.06,2.06,0,0,1,1.24.75A2.24,2.24,0,0,1,271.7,37.71Zm-1.39,0a1.45,1.45,0,0,0-.48-1.11,1.79,1.79,0,0,0-1.27-.44,1.88,1.88,0,0,0-1.27.42,1.42,1.42,0,0,0-.49,1.13,1.53,1.53,0,0,0,.5,1.18,1.79,1.79,0,0,0,1.27.46,1.74,1.74,0,0,0,1.25-.45A1.53,1.53,0,0,0,270.3,37.67ZM270,33.84a1.42,1.42,0,0,0-.11-.56,1,1,0,0,0-.32-.42,1.85,1.85,0,0,0-2.14,0,1.18,1.18,0,0,0-.42.94,1.19,1.19,0,0,0,.41.94,1.85,1.85,0,0,0,2.19,0A1.21,1.21,0,0,0,270,33.84Z"/><path class="cls-7" d="M275.93,31.47a3,3,0,0,1,2,.7,2.22,2.22,0,0,1,.6.83,2.77,2.77,0,0,1,.19,1.06,2.82,2.82,0,0,1-.46,1.55,5.83,5.83,0,0,1-1.78,1.54q-.5.3-.85.57a6.91,6.91,0,0,0-.58.47,2.8,2.8,0,0,0-.62.81h4.33V40.2h-6.08a3.35,3.35,0,0,1,.39-1.59,3.73,3.73,0,0,1,.51-.69,5.59,5.59,0,0,1,.74-.66l.95-.71,1.12-.83a2.7,2.7,0,0,0,.71-.75,1.61,1.61,0,0,0,.23-.83,1.68,1.68,0,0,0-.1-.59,1.33,1.33,0,0,0-.31-.48,1.44,1.44,0,0,0-.47-.3,1.77,1.77,0,0,0-1.31,0,1.46,1.46,0,0,0-.5.38,1.58,1.58,0,0,0-.29.53,2,2,0,0,0-.1.61v.15H273v-.15a3.14,3.14,0,0,1,.21-1.15,2.54,2.54,0,0,1,.59-.9,2.71,2.71,0,0,1,.94-.59A3.45,3.45,0,0,1,275.93,31.47Z"/><path class="cls-7" d="M283.2,31.47a3,3,0,0,1,2,.7,2.22,2.22,0,0,1,.6.83,2.77,2.77,0,0,1,.19,1.06,2.82,2.82,0,0,1-.46,1.55,5.83,5.83,0,0,1-1.78,1.54q-.5.3-.85.57a6.91,6.91,0,0,0-.58.47,2.8,2.8,0,0,0-.62.81h4.33V40.2H280a3.35,3.35,0,0,1,.39-1.59,3.73,3.73,0,0,1,.51-.69,5.59,5.59,0,0,1,.74-.66l.95-.71,1.12-.83a2.7,2.7,0,0,0,.71-.75,1.61,1.61,0,0,0,.23-.83,1.68,1.68,0,0,0-.1-.59,1.33,1.33,0,0,0-.31-.48,1.44,1.44,0,0,0-.47-.3,1.77,1.77,0,0,0-1.31,0,1.46,1.46,0,0,0-.5.38,1.58,1.58,0,0,0-.29.53,2,2,0,0,0-.1.61v.15h-1.34v-.15a3.14,3.14,0,0,1,.21-1.15,2.54,2.54,0,0,1,.59-.9,2.71,2.71,0,0,1,.94-.59A3.45,3.45,0,0,1,283.2,31.47Z"/><path class="cls-7" d="M293.49,37.71a2.37,2.37,0,0,1-.89,1.95,3.88,3.88,0,0,1-4.51,0,2.33,2.33,0,0,1-.88-1.93,2.43,2.43,0,0,1,.11-.76,2.08,2.08,0,0,1,.33-.63,2,2,0,0,1,.52-.47,2.17,2.17,0,0,1,.7-.28v0a1.81,1.81,0,0,1-1-.67,1.92,1.92,0,0,1-.33-1.14,2,2,0,0,1,.81-1.65,3.16,3.16,0,0,1,2-.62,2.91,2.91,0,0,1,2,.67,2,2,0,0,1,.76,1.58,2.14,2.14,0,0,1-.08.61,1.83,1.83,0,0,1-.25.52,1.75,1.75,0,0,1-.41.42,2,2,0,0,1-.57.28v0a2.06,2.06,0,0,1,1.24.75A2.24,2.24,0,0,1,293.49,37.71Zm-1.39,0a1.45,1.45,0,0,0-.48-1.11,1.79,1.79,0,0,0-1.27-.44,1.88,1.88,0,0,0-1.27.42,1.42,1.42,0,0,0-.49,1.13,1.53,1.53,0,0,0,.5,1.18,1.79,1.79,0,0,0,1.27.46,1.74,1.74,0,0,0,1.25-.45A1.53,1.53,0,0,0,292.1,37.67Zm-.26-3.83a1.42,1.42,0,0,0-.11-.56,1,1,0,0,0-.32-.42,1.85,1.85,0,0,0-2.14,0,1.18,1.18,0,0,0-.42.94,1.19,1.19,0,0,0,.41.94,1.85,1.85,0,0,0,2.19,0A1.21,1.21,0,0,0,291.84,33.84Z"/><path class="cls-7" d="M269.81,65.64V71.2h-1.45V65.64h-1.28v-1h1.28v-.51a2,2,0,0,1,.52-1.52,1.64,1.64,0,0,1,.63-.36,3,3,0,0,1,.9-.12h.43l.52,0v1.11l-.18,0-.2,0h-.34a.86.86,0,0,0-.65.2,1,1,0,0,0-.18.68v.51h1.44v1Z"/><path class="cls-7" d="M274,62.11v5.17l2.77-2.66h1.75L275.9,67l2.84,4.15H277L274.88,68l-.91.81V71.2h-1.45V62.11Z"/><path class="cls-7" d="M282.71,62.47a3.18,3.18,0,0,1,1,.14,2.5,2.5,0,0,1,.79.41,2.29,2.29,0,0,1,.57.65,2.45,2.45,0,0,1,.3.86H284a1.57,1.57,0,0,0-.17-.4,1.14,1.14,0,0,0-.28-.31,1.26,1.26,0,0,0-.39-.21,1.63,1.63,0,0,0-.51-.07,1.45,1.45,0,0,0-.88.26,2,2,0,0,0-.58.69,3.5,3.5,0,0,0-.33,1,6.72,6.72,0,0,0-.12,1.13l0,0a2,2,0,0,1,1.58-1,2.45,2.45,0,0,1,1.36.11,2.41,2.41,0,0,1,1.36,1,2.77,2.77,0,0,1,.49,1.62,3,3,0,0,1-.85,2.2,2.83,2.83,0,0,1-2.13.87,3.22,3.22,0,0,1-1.42-.29,2.58,2.58,0,0,1-1-.86,4.1,4.1,0,0,1-.59-1.39,8.46,8.46,0,0,1-.2-1.94,7.74,7.74,0,0,1,.07-1.05,5.85,5.85,0,0,1,.23-1,4.47,4.47,0,0,1,.42-.92,3.09,3.09,0,0,1,.63-.75,2.77,2.77,0,0,1,.86-.5A3.19,3.19,0,0,1,282.71,62.47Zm-1.8,5.94a1.9,1.9,0,0,0,.45,1.31,1.53,1.53,0,0,0,1.21.52,1.43,1.43,0,0,0,1.14-.53,1.9,1.9,0,0,0,.45-1.27,2.05,2.05,0,0,0-.43-1.32,1.42,1.42,0,0,0-1.17-.54,1.55,1.55,0,0,0-1.2.51A2,2,0,0,0,280.91,68.4Z"/><path class="cls-7" d="M292.43,71.2l-.77-.94a3.57,3.57,0,0,1-1.13.84,3.13,3.13,0,0,1-1.32.28,2.82,2.82,0,0,1-2-.68,2.36,2.36,0,0,1-.76-1.83,2.19,2.19,0,0,1,.5-1.39,4.27,4.27,0,0,1,1.48-1.12,4.87,4.87,0,0,1-.73-1.09,2.06,2.06,0,0,1-.17-.82,1.71,1.71,0,0,1,.62-1.34,2.23,2.23,0,0,1,1.51-.54,2.32,2.32,0,0,1,1.56.53,1.79,1.79,0,0,1,.62,1.41,1.94,1.94,0,0,1-.37,1.16,2.71,2.71,0,0,1-.49.51,5.26,5.26,0,0,1-.72.49l1.38,1.68a2.35,2.35,0,0,0,.2-.54,4.49,4.49,0,0,0,.1-.63h1.21a4.23,4.23,0,0,1-.71,2.09l1.63,1.92Zm-3.22-4q-1.4.66-1.4,1.67a1.24,1.24,0,0,0,.43.94,1.5,1.5,0,0,0,1,.39,1.78,1.78,0,0,0,.84-.21,2.74,2.74,0,0,0,.81-.71Zm.41-1.39a2.85,2.85,0,0,0,.81-.69,1.2,1.2,0,0,0,.23-.72.89.89,0,0,0-.27-.66.9.9,0,0,0-.64-.26.91.91,0,0,0-.64.25.86.86,0,0,0-.25.63,1.27,1.27,0,0,0,.16.6A5.14,5.14,0,0,0,289.62,65.85Z"/><path class="cls-7" d="M268.67,93.47a3,3,0,0,1,2,.7,2.22,2.22,0,0,1,.6.83,2.77,2.77,0,0,1,.19,1.06A2.82,2.82,0,0,1,271,97.6a5.83,5.83,0,0,1-1.78,1.54q-.5.3-.85.57a6.91,6.91,0,0,0-.58.47,2.8,2.8,0,0,0-.62.81h4.33v1.21h-6.08a3.35,3.35,0,0,1,.39-1.59,3.73,3.73,0,0,1,.51-.69,5.59,5.59,0,0,1,.74-.66l.95-.71,1.12-.83a2.7,2.7,0,0,0,.71-.75,1.61,1.61,0,0,0,.23-.83,1.68,1.68,0,0,0-.1-.59,1.33,1.33,0,0,0-.31-.48,1.44,1.44,0,0,0-.47-.3,1.77,1.77,0,0,0-1.31,0,1.46,1.46,0,0,0-.5.38,1.58,1.58,0,0,0-.29.53,2,2,0,0,0-.1.61v.15h-1.34v-.15a3.14,3.14,0,0,1,.21-1.15,2.54,2.54,0,0,1,.59-.9,2.71,2.71,0,0,1,.94-.59A3.45,3.45,0,0,1,268.67,93.47Z"/><path class="cls-7" d="M275.82,93.47a3.64,3.64,0,0,1,1,.15,2.72,2.72,0,0,1,.88.44,2.18,2.18,0,0,1,.62.72,2.1,2.1,0,0,1,.23,1,2.16,2.16,0,0,1-.08.62,1.83,1.83,0,0,1-.25.52,1.63,1.63,0,0,1-.4.41,1.88,1.88,0,0,1-.56.27v0a1.93,1.93,0,0,1,1.2.71,2.07,2.07,0,0,1,.42,1.3,2.5,2.5,0,0,1-.89,2,3.31,3.31,0,0,1-2.23.76,3.84,3.84,0,0,1-1.17-.18,2.94,2.94,0,0,1-1-.52,2.49,2.49,0,0,1-.67-.84,2.55,2.55,0,0,1-.25-1.14v-.13H274v.13a1.45,1.45,0,0,0,.49,1.11,1.58,1.58,0,0,0,.52.3,1.91,1.91,0,0,0,.64.11,1.81,1.81,0,0,0,1.28-.44,1.45,1.45,0,0,0,.47-1.11,1.34,1.34,0,0,0-.45-1.09,2.2,2.2,0,0,0-1.46-.39h-.35v-1h.43a1.86,1.86,0,0,0,1.2-.35,1.1,1.1,0,0,0,.4-.9,1.39,1.39,0,0,0-.11-.58,1.12,1.12,0,0,0-.31-.41,1.34,1.34,0,0,0-.46-.24,2,2,0,0,0-.57-.08,1.7,1.7,0,0,0-.6.1,1.41,1.41,0,0,0-.48.3,1.44,1.44,0,0,0-.33.47,1.62,1.62,0,0,0-.13.64H272.9a2.81,2.81,0,0,1,.23-1,2.55,2.55,0,0,1,.59-.84,2.75,2.75,0,0,1,.91-.56A3.27,3.27,0,0,1,275.82,93.47Z"/><path class="cls-7" d="M285,100.15v2h-1.31v-2h-3.76V98.86l3.82-5.27H285V99h1.2v1.15Zm-1.31-4.82h0L281,99h2.65Z"/><path class="cls-7" d="M292.93,93.64v1.18H289.3l-.42,2.24,0,0a2.3,2.3,0,0,1,.75-.5,2.57,2.57,0,0,1,1-.17,2.81,2.81,0,0,1,1.14.22,2.53,2.53,0,0,1,.86.62,2.71,2.71,0,0,1,.55.93,3.47,3.47,0,0,1,.19,1.17,2.93,2.93,0,0,1-.24,1.17,3,3,0,0,1-.66,1,3.13,3.13,0,0,1-1,.65,3.22,3.22,0,0,1-1.25.24,4.16,4.16,0,0,1-1.15-.15,2.71,2.71,0,0,1-.93-.46,2.33,2.33,0,0,1-.64-.76,2.65,2.65,0,0,1-.28-1.07h1.4a1.51,1.51,0,0,0,.14.5,1.33,1.33,0,0,0,.31.41,1.41,1.41,0,0,0,.48.28,2,2,0,0,0,.65.1,1.67,1.67,0,0,0,.73-.16,1.7,1.7,0,0,0,.55-.42,1.85,1.85,0,0,0,.35-.61,2.17,2.17,0,0,0,.12-.73,2.11,2.11,0,0,0-.12-.7,1.65,1.65,0,0,0-.89-1,1.74,1.74,0,0,0-.74-.15,1.76,1.76,0,0,0-1.52.76h-1.24l.84-4.6Z"/></g></svg>