<svg xmlns="http://www.w3.org/2000/svg" viewBox="0 0 558 156"><defs><style>.cls-1,.cls-8{fill:#fff;}.cls-12,.cls-2,.cls-3{fill:none;}.cls-3{opacity:0.1;}.cls-4{opacity:0.04;}.cls-5{fill:#dcdcdc;}.cls-6{fill:#464646;}.cls-7{fill-opacity:0.04;stroke:#dcdcdc;}.cls-12,.cls-7{stroke-miterlimit:10;}.cls-8{opacity:0.6;}.cls-9{fill:#d2d2d2;}.cls-10{fill:#e6e6e6;}.cls-11{fill:#0aaeff;}.cls-12{stroke:#c8c8c8;}</style></defs><title>Artboard 14</title><g id="Bg"><rect class="cls-1" x="-799" y="-1450" width="6000" height="2500"/></g><g id="Tabeller"><rect class="cls-2" x="25" y="17" width="509" height="28"/><rect class="cls-3" x="25" y="20.92" width="140" height="24"/><rect class="cls-4" x="24.5" y="45.5" width="141" height="31"/><path class="cls-5" d="M165,46V76H25V46H165m1-1H24V77H166V45Z"/><rect class="cls-4" x="24.5" y="76.5" width="141" height="31"/><path class="cls-5" d="M165,77v30H25V77H165m1-1H24v32H166V76Z"/><rect class="cls-4" x="24.5" y="107.5" width="141" height="31"/><path class="cls-5" d="M165,108v30H25V108H165m1-1H24v32H166V107Z"/><path class="cls-6" d="M33.12,27.86l3.4,5.3h0v-5.3h1.19V35H36.45l-3.4-5.3h0V35H31.84V27.86Z"/><path class="cls-6" d="M46,31.45a3.85,3.85,0,0,1-.95,2.66,3.21,3.21,0,0,1-2.51,1.05,3.63,3.63,0,0,1-1.36-.24,3.21,3.21,0,0,1-1.1-.75A3.36,3.36,0,0,1,39.35,33a4.45,4.45,0,0,1-.25-1.51,3.9,3.9,0,0,1,.95-2.7,3.21,3.21,0,0,1,2.51-1.05,3.68,3.68,0,0,1,1.37.25,3,3,0,0,1,1.1.76,3.33,3.33,0,0,1,.74,1.23A4.74,4.74,0,0,1,46,31.45Zm-1.25,0a3.07,3.07,0,0,0-.59-2,2.14,2.14,0,0,0-3.25,0,3.08,3.08,0,0,0-.58,2,3,3,0,0,0,.58,1.91,2.16,2.16,0,0,0,3.26,0A3,3,0,0,0,44.76,31.45Z"/><path class="cls-6" d="M53.15,29.79a1.91,1.91,0,0,1-.42,1.28,1.49,1.49,0,0,1-.35.31,2.07,2.07,0,0,1-.46.21v0a1.44,1.44,0,0,1,.49.21,1.18,1.18,0,0,1,.33.35,1.62,1.62,0,0,1,.21.52,4.26,4.26,0,0,1,.08.57q0,.3,0,.61a4,4,0,0,0,.08.62,1.36,1.36,0,0,0,.2.52H52.08a3.63,3.63,0,0,1-.19-1.12,2.68,2.68,0,0,0-.38-1.47,1.13,1.13,0,0,0-.88-.34h-2V35H47.39V27.86h3.68a2.13,2.13,0,0,1,1.48.53A1.8,1.8,0,0,1,53.15,29.79ZM51.9,30a1.09,1.09,0,0,0-.32-.86,1.29,1.29,0,0,0-.89-.28H48.64v2.29h2.05a1.27,1.27,0,0,0,.85-.27A1.08,1.08,0,0,0,51.9,30Z"/><path class="cls-6" d="M178.62,29.79a1.91,1.91,0,0,1-.42,1.28,1.49,1.49,0,0,1-.35.31,2.05,2.05,0,0,1-.46.21v0a1.44,1.44,0,0,1,.49.21,1.18,1.18,0,0,1,.33.35,1.61,1.61,0,0,1,.21.52,4.26,4.26,0,0,1,.08.57q0,.3,0,.61a4,4,0,0,0,.08.62,1.37,1.37,0,0,0,.2.52h-1.27a3.63,3.63,0,0,1-.19-1.12,2.68,2.68,0,0,0-.38-1.47,1.13,1.13,0,0,0-.88-.34h-2V35h-1.25V27.86h3.68a2.13,2.13,0,0,1,1.48.53A1.8,1.8,0,0,1,178.62,29.79Zm-1.25.2a1.09,1.09,0,0,0-.32-.86,1.29,1.29,0,0,0-.89-.28H174.1v2.29h2.05a1.27,1.27,0,0,0,.85-.27A1.08,1.08,0,0,0,177.37,30Z"/><path class="cls-6" d="M186.67,31.45a3.85,3.85,0,0,1-.95,2.66,3.21,3.21,0,0,1-2.51,1.05,3.63,3.63,0,0,1-1.36-.24,3.2,3.2,0,0,1-1.1-.75A3.36,3.36,0,0,1,180,33a4.45,4.45,0,0,1-.25-1.51,3.9,3.9,0,0,1,.95-2.7,3.21,3.21,0,0,1,2.51-1.05,3.68,3.68,0,0,1,1.37.25,3,3,0,0,1,1.1.76,3.35,3.35,0,0,1,.74,1.23A4.76,4.76,0,0,1,186.67,31.45Zm-1.25,0a3.07,3.07,0,0,0-.59-2,2.14,2.14,0,0,0-3.25,0,3.08,3.08,0,0,0-.58,2,3,3,0,0,0,.58,1.91,2.16,2.16,0,0,0,3.26,0A3,3,0,0,0,185.41,31.45Z"/><path class="cls-6" d="M189.29,27.86v6.08H193V35H188V27.86Z"/><path class="cls-6" d="M195.25,27.86v6.08h3.67V35H194V27.86Z"/><path class="cls-6" d="M205.46,33a2,2,0,0,1-.24,1,2,2,0,0,1-.65.68,2.93,2.93,0,0,1-.94.39,4.9,4.9,0,0,1-1.12.12,4.28,4.28,0,0,1-1.14-.14,2.83,2.83,0,0,1-.92-.43,2.07,2.07,0,0,1-.62-.7,2,2,0,0,1-.22-1v-.08h1.23v0a1.12,1.12,0,0,0,.14.56,1.17,1.17,0,0,0,.38.4,1.75,1.75,0,0,0,.56.24,3,3,0,0,0,1.32,0,1.73,1.73,0,0,0,.52-.21,1.09,1.09,0,0,0,.35-.34.88.88,0,0,0,.13-.48.77.77,0,0,0-.31-.63,2.71,2.71,0,0,0-1-.42l-1.53-.41a2.36,2.36,0,0,1-1.2-.65,1.67,1.67,0,0,1-.39-1.16,1.86,1.86,0,0,1,.21-.91,2,2,0,0,1,.58-.66,2.72,2.72,0,0,1,.86-.4,4,4,0,0,1,2,0,2.68,2.68,0,0,1,.85.38,1.93,1.93,0,0,1,.59.64,1.88,1.88,0,0,1,.23.91H204a1,1,0,0,0-.13-.43,1.06,1.06,0,0,0-.31-.34,1.49,1.49,0,0,0-.46-.22,2.06,2.06,0,0,0-.59-.08,2.42,2.42,0,0,0-.55.06,1.48,1.48,0,0,0-.46.19,1,1,0,0,0-.31.32.88.88,0,0,0-.11.46.82.82,0,0,0,.06.33.65.65,0,0,0,.17.23.9.9,0,0,0,.26.16l.34.11,1.68.45a3.06,3.06,0,0,1,1.42.72A1.68,1.68,0,0,1,205.46,33Z"/><path class="cls-6" d="M268.12,27.86l3.4,5.3h0v-5.3h1.19V35h-1.27l-3.4-5.3h0V35h-1.19V27.86Z"/><path class="cls-6" d="M279.67,27.87v1.05h-3.94v1.9h3.64v1h-3.64V34h4v1h-5.25V27.87Z"/><path class="cls-6" d="M286.26,27.86v1.05H284V35h-1.25V28.92h-2.27V27.86Z"/><path class="cls-6" d="M289.19,31.61v1h-2.83v-1Z"/><path class="cls-6" d="M292,27.86l3.4,5.3h0v-5.3h1.19V35h-1.27L292,29.7h0V35h-1.19V27.86Z"/><path class="cls-6" d="M303.58,27.87v1.05h-3.94v1.9h3.64v1h-3.64V34h4v1H298.4V27.87Z"/><path class="cls-6" d="M310.18,27.86v1.05h-2.27V35h-1.25V28.92H304.4V27.86Z"/><path class="cls-6" d="M316.11,27.7a8.64,8.64,0,0,0-.94,2.19,9.15,9.15,0,0,0-.33,2.46,8.48,8.48,0,0,0,.32,2.32,9.41,9.41,0,0,0,.94,2.19h-.95a9.51,9.51,0,0,1-.61-1,8.34,8.34,0,0,1-.46-1.11,7.93,7.93,0,0,1-.29-1.17,7.32,7.32,0,0,1-.1-1.21,8.48,8.48,0,0,1,.09-1.19,8,8,0,0,1,.72-2.34,7.53,7.53,0,0,1,.65-1.09Z"/><path class="cls-6" d="M318.37,27.86v3.28l3.28-3.28h1.59l-2.94,2.87L323.46,35h-1.58l-2.45-3.39-1.07,1V35h-1.25V27.86Z"/><path class="cls-6" d="M327,27.7a3.65,3.65,0,0,1,1.07.15,2.94,2.94,0,0,1,.9.45,2.54,2.54,0,0,1,.66.72,2.71,2.71,0,0,1,.36,1h-1.21a1.55,1.55,0,0,0-.24-.53,1.61,1.61,0,0,0-.4-.39,1.74,1.74,0,0,0-.52-.24,2.27,2.27,0,0,0-.63-.08,2.11,2.11,0,0,0-1,.21,2,2,0,0,0-.69.58,2.53,2.53,0,0,0-.41.86,3.92,3.92,0,0,0-.13,1,3.83,3.83,0,0,0,.13,1,2.55,2.55,0,0,0,.39.85,2,2,0,0,0,.69.6,2.07,2.07,0,0,0,1,.23,2.3,2.3,0,0,0,.8-.13,1.71,1.71,0,0,0,.61-.38,1.75,1.75,0,0,0,.4-.61,2.5,2.5,0,0,0,.17-.82h-1.88v-1h3V35h-.82l-.13-1h0a2.45,2.45,0,0,1-.93.87,2.68,2.68,0,0,1-1.24.28,3.43,3.43,0,0,1-1.42-.28,3.16,3.16,0,0,1-1.08-.78,3.5,3.5,0,0,1-.69-1.18,4.37,4.37,0,0,1-.24-1.47,4.49,4.49,0,0,1,.23-1.46,3.52,3.52,0,0,1,.68-1.19,3.19,3.19,0,0,1,1.09-.81A3.44,3.44,0,0,1,327,27.7Z"/><path class="cls-6" d="M331.85,27.7a9.16,9.16,0,0,1,1.06,2.14,7.36,7.36,0,0,1,.39,2.4,8.45,8.45,0,0,1-.09,1.2,8.08,8.08,0,0,1-.26,1.19,7.68,7.68,0,0,1-.45,1.15,7.24,7.24,0,0,1-.64,1.07h-1a8.89,8.89,0,0,0,.94-2.2,9.09,9.09,0,0,0,.32-2.43,8.32,8.32,0,0,0-.33-2.34,10.09,10.09,0,0,0-.93-2.18Z"/><path class="cls-6" d="M361.94,27.7a3.65,3.65,0,0,1,1.07.15,2.94,2.94,0,0,1,.9.45,2.54,2.54,0,0,1,.66.72,2.71,2.71,0,0,1,.36,1h-1.21a1.55,1.55,0,0,0-.24-.53,1.59,1.59,0,0,0-.4-.39,1.74,1.74,0,0,0-.52-.24,2.26,2.26,0,0,0-.63-.08,2.11,2.11,0,0,0-1,.21,2,2,0,0,0-.69.58,2.53,2.53,0,0,0-.41.86,3.94,3.94,0,0,0-.13,1,3.83,3.83,0,0,0,.12,1,2.55,2.55,0,0,0,.39.85,2,2,0,0,0,.69.6,2.07,2.07,0,0,0,1,.23,2.3,2.3,0,0,0,.8-.13,1.71,1.71,0,0,0,.61-.38,1.75,1.75,0,0,0,.4-.61,2.5,2.5,0,0,0,.17-.82H362v-1h3V35h-.82l-.13-1h0a2.45,2.45,0,0,1-.93.87,2.68,2.68,0,0,1-1.24.28,3.43,3.43,0,0,1-1.42-.28,3.17,3.17,0,0,1-1.08-.78,3.5,3.5,0,0,1-.69-1.18,4.37,4.37,0,0,1-.24-1.47,4.49,4.49,0,0,1,.23-1.46,3.53,3.53,0,0,1,.68-1.19,3.19,3.19,0,0,1,1.09-.81A3.44,3.44,0,0,1,361.94,27.7Z"/><path class="cls-6" d="M372.44,29.79a1.91,1.91,0,0,1-.42,1.28,1.48,1.48,0,0,1-.35.31,2.06,2.06,0,0,1-.46.21v0a1.44,1.44,0,0,1,.49.21,1.18,1.18,0,0,1,.33.35,1.61,1.61,0,0,1,.21.52,4.26,4.26,0,0,1,.08.57q0,.3,0,.61a4,4,0,0,0,.08.62,1.38,1.38,0,0,0,.2.52h-1.27a3.65,3.65,0,0,1-.19-1.12,2.67,2.67,0,0,0-.38-1.47,1.13,1.13,0,0,0-.88-.34h-2V35h-1.25V27.86h3.68a2.13,2.13,0,0,1,1.48.53A1.79,1.79,0,0,1,372.44,29.79Zm-1.25.2a1.09,1.09,0,0,0-.32-.86,1.29,1.29,0,0,0-.89-.28h-2.05v2.29H370a1.27,1.27,0,0,0,.85-.27A1.08,1.08,0,0,0,371.19,30Z"/><path class="cls-6" d="M380.49,31.45a3.85,3.85,0,0,1-.95,2.66A3.21,3.21,0,0,1,377,35.17a3.63,3.63,0,0,1-1.37-.24,3.2,3.2,0,0,1-1.1-.75,3.36,3.36,0,0,1-.75-1.22,4.45,4.45,0,0,1-.25-1.51,3.9,3.9,0,0,1,.95-2.7A3.21,3.21,0,0,1,377,27.7a3.68,3.68,0,0,1,1.37.25,3,3,0,0,1,1.1.76,3.35,3.35,0,0,1,.74,1.23A4.76,4.76,0,0,1,380.49,31.45Zm-1.25,0a3.07,3.07,0,0,0-.59-2,2.14,2.14,0,0,0-3.25,0,3.08,3.08,0,0,0-.58,2,3,3,0,0,0,.58,1.91,2.16,2.16,0,0,0,3.26,0A3,3,0,0,0,379.23,31.45Z"/><path class="cls-6" d="M387.19,33a2,2,0,0,1-.24,1,2,2,0,0,1-.65.68,2.94,2.94,0,0,1-.94.39,4.91,4.91,0,0,1-1.12.12A4.28,4.28,0,0,1,383.1,35a2.83,2.83,0,0,1-.92-.43,2.07,2.07,0,0,1-.62-.7,2,2,0,0,1-.22-1v-.08h1.23v0a1.12,1.12,0,0,0,.14.56,1.17,1.17,0,0,0,.38.4,1.75,1.75,0,0,0,.56.24,3,3,0,0,0,1.32,0,1.73,1.73,0,0,0,.52-.21,1.09,1.09,0,0,0,.35-.34.88.88,0,0,0,.13-.48.77.77,0,0,0-.31-.63,2.71,2.71,0,0,0-1-.42l-1.53-.41A2.36,2.36,0,0,1,382,31a1.67,1.67,0,0,1-.39-1.16,1.86,1.86,0,0,1,.21-.91,2,2,0,0,1,.58-.66,2.71,2.71,0,0,1,.86-.4,4,4,0,0,1,2,0,2.68,2.68,0,0,1,.85.38,1.93,1.93,0,0,1,.59.64,1.88,1.88,0,0,1,.23.91h-1.22a1,1,0,0,0-.13-.43,1.06,1.06,0,0,0-.31-.34,1.49,1.49,0,0,0-.46-.22,2.06,2.06,0,0,0-.59-.08,2.41,2.41,0,0,0-.55.06,1.48,1.48,0,0,0-.46.19,1,1,0,0,0-.31.32.88.88,0,0,0-.11.46.82.82,0,0,0,.06.33.65.65,0,0,0,.17.23.9.9,0,0,0,.26.16l.34.11,1.68.45a3.06,3.06,0,0,1,1.42.72A1.68,1.68,0,0,1,387.19,33Z"/><path class="cls-6" d="M393.92,33a2,2,0,0,1-.24,1,2,2,0,0,1-.65.68,2.94,2.94,0,0,1-.94.39,4.9,4.9,0,0,1-1.12.12,4.28,4.28,0,0,1-1.14-.14,2.83,2.83,0,0,1-.92-.43,2.08,2.08,0,0,1-.62-.7,2,2,0,0,1-.22-1v-.08h1.23v0a1.12,1.12,0,0,0,.14.56,1.18,1.18,0,0,0,.38.4,1.76,1.76,0,0,0,.56.24,3,3,0,0,0,1.32,0,1.72,1.72,0,0,0,.52-.21,1.09,1.09,0,0,0,.35-.34.88.88,0,0,0,.13-.48.77.77,0,0,0-.31-.63,2.71,2.71,0,0,0-1-.42l-1.53-.41a2.36,2.36,0,0,1-1.2-.65,1.68,1.68,0,0,1-.39-1.16,1.87,1.87,0,0,1,.21-.91,2,2,0,0,1,.58-.66,2.71,2.71,0,0,1,.86-.4,4,4,0,0,1,2,0,2.68,2.68,0,0,1,.85.38,1.92,1.92,0,0,1,.59.64,1.88,1.88,0,0,1,.23.91h-1.22a1,1,0,0,0-.13-.43A1.06,1.06,0,0,0,392,29a1.49,1.49,0,0,0-.46-.22,2.05,2.05,0,0,0-.59-.08,2.41,2.41,0,0,0-.55.06,1.48,1.48,0,0,0-.46.19,1,1,0,0,0-.31.32.88.88,0,0,0-.11.46.82.82,0,0,0,.06.33.66.66,0,0,0,.17.23.91.91,0,0,0,.26.16l.34.11L392,31a3.06,3.06,0,0,1,1.42.72A1.68,1.68,0,0,1,393.92,33Z"/><path class="cls-6" d="M400.11,27.7a8.64,8.64,0,0,0-.94,2.19,9.17,9.17,0,0,0-.33,2.46,8.46,8.46,0,0,0,.32,2.32,9.43,9.43,0,0,0,.94,2.19h-.95a9.51,9.51,0,0,1-.61-1,8.41,8.41,0,0,1-.46-1.11,7.87,7.87,0,0,1-.29-1.17,7.27,7.27,0,0,1-.1-1.21,8.4,8.4,0,0,1,.09-1.19,8,8,0,0,1,.72-2.34,7.57,7.57,0,0,1,.65-1.09Z"/><path class="cls-6" d="M402.37,27.86v3.28l3.28-3.28h1.59l-2.94,2.87L407.46,35h-1.58l-2.45-3.39-1.07,1V35h-1.25V27.86Z"/><path class="cls-6" d="M411,27.7a3.66,3.66,0,0,1,1.07.15,2.94,2.94,0,0,1,.9.45,2.54,2.54,0,0,1,.66.72,2.72,2.72,0,0,1,.36,1h-1.21a1.54,1.54,0,0,0-.24-.53,1.59,1.59,0,0,0-.4-.39,1.73,1.73,0,0,0-.52-.24,2.26,2.26,0,0,0-.63-.08,2.1,2.1,0,0,0-1,.21,2,2,0,0,0-.69.58,2.55,2.55,0,0,0-.41.86,3.94,3.94,0,0,0-.13,1,3.83,3.83,0,0,0,.12,1,2.54,2.54,0,0,0,.39.85,2,2,0,0,0,.69.6,2.06,2.06,0,0,0,1,.23,2.3,2.3,0,0,0,.8-.13,1.71,1.71,0,0,0,.61-.38,1.76,1.76,0,0,0,.4-.61,2.51,2.51,0,0,0,.17-.82h-1.88v-1h3V35h-.82l-.13-1h0a2.45,2.45,0,0,1-.93.87,2.68,2.68,0,0,1-1.24.28,3.43,3.43,0,0,1-1.42-.28,3.16,3.16,0,0,1-1.08-.78,3.5,3.5,0,0,1-.69-1.18,4.37,4.37,0,0,1-.24-1.47A4.5,4.5,0,0,1,407.8,30a3.52,3.52,0,0,1,.68-1.19,3.19,3.19,0,0,1,1.09-.81A3.44,3.44,0,0,1,411,27.7Z"/><path class="cls-6" d="M415.84,27.7a9.14,9.14,0,0,1,1.06,2.14,7.35,7.35,0,0,1,.39,2.4,8.53,8.53,0,0,1-.09,1.2,8.08,8.08,0,0,1-.26,1.19,7.73,7.73,0,0,1-.45,1.15,7.16,7.16,0,0,1-.64,1.07h-1a8.89,8.89,0,0,0,.94-2.2,9.11,9.11,0,0,0,.32-2.43,8.32,8.32,0,0,0-.33-2.34,10.09,10.09,0,0,0-.93-2.18Z"/><path class="cls-6" d="M452,29.86a2.69,2.69,0,0,1-.11.8,1.61,1.61,0,0,1-.32.59,1.36,1.36,0,0,1-.52.37,1.86,1.86,0,0,1-.7.13,1.51,1.51,0,0,1-1.22-.49,2.16,2.16,0,0,1-.41-1.42,2.75,2.75,0,0,1,.1-.77,1.79,1.79,0,0,1,.31-.62,1.42,1.42,0,0,1,.52-.41,1.7,1.7,0,0,1,.73-.15,1.47,1.47,0,0,1,1.21.51A2.26,2.26,0,0,1,452,29.86Zm-.84,0a3.08,3.08,0,0,0,0-.54,1.41,1.41,0,0,0-.14-.42.72.72,0,0,0-.24-.27.65.65,0,0,0-.36-.09.67.67,0,0,0-.6.33,1.91,1.91,0,0,0-.21,1,3,3,0,0,0,0,.45,1.35,1.35,0,0,0,.12.4A.76.76,0,0,0,450,31a.66.66,0,0,0,.39.11.65.65,0,0,0,.61-.33A1.85,1.85,0,0,0,451.17,29.86Zm-.13,5.4h-.73l4.28-7.49h.71Zm5.85-2a2.77,2.77,0,0,1-.1.76,1.75,1.75,0,0,1-.31.61,1.43,1.43,0,0,1-.52.4,1.71,1.71,0,0,1-.73.15,1.76,1.76,0,0,1-.71-.13,1.31,1.31,0,0,1-.51-.39,1.74,1.74,0,0,1-.31-.61,2.94,2.94,0,0,1-.1-.81,2.68,2.68,0,0,1,.1-.76,1.72,1.72,0,0,1,.31-.61,1.45,1.45,0,0,1,.52-.4,1.71,1.71,0,0,1,.73-.15,1.46,1.46,0,0,1,1.21.5A2.21,2.21,0,0,1,456.89,33.22Zm-.84,0a2.78,2.78,0,0,0,0-.51,1.38,1.38,0,0,0-.14-.41.72.72,0,0,0-.24-.27.65.65,0,0,0-.36-.1q-.81,0-.81,1.28a3.13,3.13,0,0,0,0,.46,1.47,1.47,0,0,0,.12.41.81.81,0,0,0,.24.3.63.63,0,0,0,.39.12.69.69,0,0,0,.37-.09.73.73,0,0,0,.25-.26,1.29,1.29,0,0,0,.14-.41A2.79,2.79,0,0,0,456.05,33.21Z"/><path class="cls-6" d="M47.64,58.93a4.7,4.7,0,0,1-1.1,3.2,3.68,3.68,0,0,1-2.94,1.27,3.72,3.72,0,0,1-2.95-1.25,5.26,5.26,0,0,1,0-6.43,3.72,3.72,0,0,1,2.95-1.25,4.81,4.81,0,0,1,.77.06,4,4,0,0,1,.74.19,3.72,3.72,0,0,1,.69.34,3.43,3.43,0,0,1,.61.49,3.49,3.49,0,0,1,.55.71,4.58,4.58,0,0,1,.38.83,5.41,5.41,0,0,1,.22.91A6.57,6.57,0,0,1,47.64,58.93Zm-.81,0A4.21,4.21,0,0,0,46,56.24a2.86,2.86,0,0,0-2.38-1.08,2.89,2.89,0,0,0-2.36,1.05,4.15,4.15,0,0,0-.86,2.71,4.22,4.22,0,0,0,.85,2.7,3.16,3.16,0,0,0,4.74,0A4.21,4.21,0,0,0,46.83,58.93Z"/><path class="cls-6" d="M49.31,63.21V56.65h.74v1.54h0A2.56,2.56,0,0,1,51,57a2.32,2.32,0,0,1,1.38-.43h.29v.8h-.18a2.22,2.22,0,0,0-1.71.69,2.36,2.36,0,0,0-.64,1.69v3.48Z"/><path class="cls-6" d="M59.51,54.13v9.08h-.74V62h0a2,2,0,0,1-.39.59,2.57,2.57,0,0,1-.56.45,2.8,2.8,0,0,1-.67.29,2.63,2.63,0,0,1-.72.1,2.8,2.8,0,0,1-1.28-.28,2.68,2.68,0,0,1-.92-.75,3.32,3.32,0,0,1-.56-1.11,4.68,4.68,0,0,1-.19-1.34,4.83,4.83,0,0,1,.17-1.29,3.31,3.31,0,0,1,.53-1.11,2.69,2.69,0,0,1,.92-.78,3,3,0,0,1,2-.2,2.56,2.56,0,0,1,.65.27,2.25,2.25,0,0,1,.54.45,2.07,2.07,0,0,1,.38.63h0V54.13Zm-5.26,5.8a4.17,4.17,0,0,0,.05.65,3.7,3.7,0,0,0,.16.64,2.82,2.82,0,0,0,.28.58,2.15,2.15,0,0,0,.41.48,1.8,1.8,0,0,0,.55.32,2,2,0,0,0,.7.12,2.08,2.08,0,0,0,1.73-.84,2.66,2.66,0,0,0,.43-.89,4,4,0,0,0,.14-1.06,4,4,0,0,0-.13-1,2.73,2.73,0,0,0-.41-.9,2.06,2.06,0,0,0-1.76-.88,1.94,1.94,0,0,0-.68.11,1.8,1.8,0,0,0-.54.31,2.15,2.15,0,0,0-.41.47,2.8,2.8,0,0,0-.29.58,3.52,3.52,0,0,0-.17.65A4.25,4.25,0,0,0,54.26,59.93Z"/><path class="cls-6" d="M64.29,56.46a2.71,2.71,0,0,1,1.3.29,2.6,2.6,0,0,1,.9.79A3.45,3.45,0,0,1,67,58.67,5.21,5.21,0,0,1,67.18,60v.13H62.13a3.58,3.58,0,0,0,.13.94,2.59,2.59,0,0,0,.39.83,2,2,0,0,0,.66.59,1.92,1.92,0,0,0,.95.22,2.44,2.44,0,0,0,.7-.09,2,2,0,0,0,.56-.26,1.76,1.76,0,0,0,.42-.39,2.41,2.41,0,0,0,.29-.49H67a3,3,0,0,1-.38.79,2.48,2.48,0,0,1-.59.6,2.68,2.68,0,0,1-.79.39,3.34,3.34,0,0,1-1,.14,2.94,2.94,0,0,1-1.3-.27,2.56,2.56,0,0,1-.91-.73,3.12,3.12,0,0,1-.54-1.1,5.14,5.14,0,0,1-.18-1.37,4.66,4.66,0,0,1,.18-1.28A3.36,3.36,0,0,1,62,57.54a2.74,2.74,0,0,1,.92-.78A2.79,2.79,0,0,1,64.29,56.46Zm2.09,3a3,3,0,0,0-.16-.85,2.44,2.44,0,0,0-.41-.75,2.07,2.07,0,0,0-.65-.54,1.84,1.84,0,0,0-.88-.21,1.84,1.84,0,0,0-1.5.7,2.7,2.7,0,0,0-.42.75,4.31,4.31,0,0,0-.23.9Z"/><path class="cls-6" d="M68.85,63.21V56.65h.74v1.54h0a2.56,2.56,0,0,1,.9-1.2,2.32,2.32,0,0,1,1.38-.43h.29v.8H72A2.22,2.22,0,0,0,70.3,58a2.36,2.36,0,0,0-.64,1.69v3.48Z"/><path class="cls-6" d="M75.9,56.46a2.71,2.71,0,0,1,1.3.29,2.6,2.6,0,0,1,.9.79,3.45,3.45,0,0,1,.52,1.13A5.21,5.21,0,0,1,78.79,60v.13H73.74a3.58,3.58,0,0,0,.13.94,2.59,2.59,0,0,0,.39.83,2,2,0,0,0,.66.59,1.92,1.92,0,0,0,.95.22,2.44,2.44,0,0,0,.7-.09,2,2,0,0,0,.56-.26,1.76,1.76,0,0,0,.42-.39,2.41,2.41,0,0,0,.29-.49h.79a3,3,0,0,1-.38.79,2.48,2.48,0,0,1-.59.6,2.68,2.68,0,0,1-.79.39,3.34,3.34,0,0,1-1,.14,2.94,2.94,0,0,1-1.3-.27,2.56,2.56,0,0,1-.91-.73,3.12,3.12,0,0,1-.54-1.1,5.14,5.14,0,0,1-.18-1.37,4.66,4.66,0,0,1,.18-1.28,3.36,3.36,0,0,1,.54-1.11,2.74,2.74,0,0,1,.92-.78A2.79,2.79,0,0,1,75.9,56.46Zm2.09,3a3,3,0,0,0-.16-.85,2.44,2.44,0,0,0-.41-.75,2.07,2.07,0,0,0-.65-.54,1.84,1.84,0,0,0-.88-.21,1.84,1.84,0,0,0-1.5.7,2.7,2.7,0,0,0-.42.75,4.31,4.31,0,0,0-.23.9Z"/><path class="cls-6" d="M86.2,54.13v9.08h-.74V62h0a2,2,0,0,1-.39.59,2.57,2.57,0,0,1-.56.45,2.8,2.8,0,0,1-.67.29,2.63,2.63,0,0,1-.72.1,2.8,2.8,0,0,1-1.28-.28,2.68,2.68,0,0,1-.92-.75,3.32,3.32,0,0,1-.56-1.11,4.68,4.68,0,0,1-.19-1.34,4.83,4.83,0,0,1,.17-1.29,3.31,3.31,0,0,1,.53-1.11,2.69,2.69,0,0,1,.92-.78,3,3,0,0,1,2-.2,2.56,2.56,0,0,1,.65.27,2.25,2.25,0,0,1,.54.45,2.07,2.07,0,0,1,.38.63h0V54.13Zm-5.26,5.8a4.17,4.17,0,0,0,.05.65,3.7,3.7,0,0,0,.16.64,2.82,2.82,0,0,0,.28.58,2.15,2.15,0,0,0,.41.48,1.8,1.8,0,0,0,.55.32,2,2,0,0,0,.7.12,2.08,2.08,0,0,0,1.73-.84,2.66,2.66,0,0,0,.43-.89,4,4,0,0,0,.14-1.06,4,4,0,0,0-.13-1,2.73,2.73,0,0,0-.41-.9,2.06,2.06,0,0,0-1.76-.88,1.94,1.94,0,0,0-.68.11,1.8,1.8,0,0,0-.54.31,2.15,2.15,0,0,0-.41.47,2.8,2.8,0,0,0-.29.58,3.52,3.52,0,0,0-.17.65A4.25,4.25,0,0,0,80.94,59.93Z"/><path class="cls-6" d="M47.58,94.21V86.82h0l-2.92,7.39h-.78l-2.92-7.39h0v7.39h-.82V85.66h1.2l3,7.5h0l2.94-7.5h1.2v8.55Z"/><path class="cls-6" d="M51.4,84.78v1.29h-.8V84.78Zm0,2.87v6.56h-.8V87.65Z"/><path class="cls-6" d="M56.53,87.46a3.35,3.35,0,0,1,1.08.16,1.83,1.83,0,0,1,.74.46,1.87,1.87,0,0,1,.43.77,3.79,3.79,0,0,1,.14,1.08v4.28h-.8V90.06a2.2,2.2,0,0,0-.41-1.44,1.54,1.54,0,0,0-1.25-.49,2.07,2.07,0,0,0-.86.17,1.88,1.88,0,0,0-.65.48,2.16,2.16,0,0,0-.41.71,2.63,2.63,0,0,0-.14.88v3.84h-.8V87.65h.8v1.14h0a2,2,0,0,1,.35-.56,2.18,2.18,0,0,1,.49-.42,2.33,2.33,0,0,1,.6-.26A2.48,2.48,0,0,1,56.53,87.46Z"/><path class="cls-6" d="M61.92,84.78v1.29h-.8V84.78Zm0,2.87v6.56h-.8V87.65Z"/><path class="cls-6" d="M72.39,94.21V89.75A1.73,1.73,0,0,0,72,88.52a1.85,1.85,0,0,0-2.5.21,2.8,2.8,0,0,0-.45,1.71v3.77h-.81V89.72a1.81,1.81,0,0,0-.34-1.17,1.25,1.25,0,0,0-1-.42,1.72,1.72,0,0,0-1.46.65,2.72,2.72,0,0,0-.5,1.71v3.72h-.8V87.65h.74v1.1h0a2.26,2.26,0,0,1,2.15-1.29,2.44,2.44,0,0,1,.64.08,1.86,1.86,0,0,1,.54.24,1.66,1.66,0,0,1,.42.4,1.86,1.86,0,0,1,.28.55,2.16,2.16,0,0,1,.85-1A2.4,2.4,0,0,1,71,87.46a2.12,2.12,0,0,1,1.63.58,2.36,2.36,0,0,1,.54,1.66v4.51Z"/><path class="cls-6" d="M80,94.21V93h0a2.48,2.48,0,0,1-.39.58A2.34,2.34,0,0,1,79,94a2.47,2.47,0,0,1-.63.27,2.73,2.73,0,0,1-.72.09,2.21,2.21,0,0,1-1.74-.63A2.64,2.64,0,0,1,75.37,92V87.65h.8v4.28a2.67,2.67,0,0,0,.1.76,1.43,1.43,0,0,0,.31.57,1.33,1.33,0,0,0,.54.35,2.33,2.33,0,0,0,.79.12,1.7,1.7,0,0,0,.89-.23,1.92,1.92,0,0,0,.62-.59,2.62,2.62,0,0,0,.36-.83,3.9,3.9,0,0,0,.11-.94V87.65h.8v6.56Z"/><path class="cls-6" d="M91.14,94.21V89.75a1.73,1.73,0,0,0-.37-1.22,1.85,1.85,0,0,0-2.5.21,2.8,2.8,0,0,0-.45,1.71v3.77H87V89.72a1.81,1.81,0,0,0-.34-1.17,1.25,1.25,0,0,0-1-.42,1.72,1.72,0,0,0-1.46.65,2.72,2.72,0,0,0-.5,1.71v3.72h-.8V87.65h.74v1.1h0a2.26,2.26,0,0,1,2.15-1.29,2.44,2.44,0,0,1,.64.08,1.86,1.86,0,0,1,.54.24,1.66,1.66,0,0,1,.42.4,1.86,1.86,0,0,1,.28.55,2.16,2.16,0,0,1,.85-1,2.4,2.4,0,0,1,1.24-.32,2.12,2.12,0,0,1,1.63.58,2.36,2.36,0,0,1,.54,1.66v4.51Z"/><path class="cls-6" d="M47.58,125.21v-7.39h0l-2.92,7.39h-.78l-2.92-7.39h0v7.39h-.82v-8.55h1.2l3,7.5h0l2.94-7.5h1.2v8.55Z"/><path class="cls-6" d="M56.24,125.16l-.27,0h-.24a1.37,1.37,0,0,1-.44-.06A.65.65,0,0,1,55,125a.82.82,0,0,1-.16-.35,2.43,2.43,0,0,1,0-.53h0a3,3,0,0,1-1,1,2.79,2.79,0,0,1-1.35.29,2.46,2.46,0,0,1-1.6-.5,1.75,1.75,0,0,1-.6-1.43,1.66,1.66,0,0,1,.66-1.43,6.79,6.79,0,0,1,3-.69,2,2,0,0,0,.44-.08.75.75,0,0,0,.29-.16.6.6,0,0,0,.16-.26,1.28,1.28,0,0,0,0-.38,1.24,1.24,0,0,0-.4-1,2,2,0,0,0-1.31-.34,2.61,2.61,0,0,0-.72.09,1.65,1.65,0,0,0-.53.25,1.13,1.13,0,0,0-.33.39,1.23,1.23,0,0,0-.13.49h-.8a2,2,0,0,1,.22-.78,1.78,1.78,0,0,1,.51-.59,2.43,2.43,0,0,1,.81-.38,4,4,0,0,1,1.09-.13,2.64,2.64,0,0,1,1.83.54,2,2,0,0,1,.59,1.52v3.56a.47.47,0,0,0,.11.33.46.46,0,0,0,.36.12.7.7,0,0,0,.25,0Zm-1.52-3.54h0q-.12.22-.77.31l-.67.1-.74.12a2.67,2.67,0,0,0-1.17.44,1,1,0,0,0-.39.84,1.16,1.16,0,0,0,.43.94,1.6,1.6,0,0,0,1,.35,2.36,2.36,0,0,0,1.63-.58,1.85,1.85,0,0,0,.65-1.44Z"/><path class="cls-6" d="M58,118.65l1.87,2.5,1.83-2.5h1l-2.37,3.14,2.56,3.42h-1l-2.06-2.76-2,2.76h-1l2.55-3.41L57,118.65Z"/><path class="cls-6" d="M65,115.78v1.29h-.8v-1.29Zm0,2.87v6.56h-.8v-6.56Z"/><path class="cls-6" d="M75.5,125.21v-4.46a1.73,1.73,0,0,0-.37-1.22,1.85,1.85,0,0,0-2.5.21,2.8,2.8,0,0,0-.45,1.71v3.77h-.81v-4.49a1.81,1.81,0,0,0-.34-1.17,1.25,1.25,0,0,0-1-.42,1.72,1.72,0,0,0-1.46.65,2.72,2.72,0,0,0-.5,1.71v3.72h-.8v-6.56H68v1.1h0a2.26,2.26,0,0,1,2.15-1.29,2.44,2.44,0,0,1,.64.08,1.86,1.86,0,0,1,.54.24,1.66,1.66,0,0,1,.42.4,1.86,1.86,0,0,1,.28.55,2.16,2.16,0,0,1,.85-1,2.4,2.4,0,0,1,1.24-.32,2.12,2.12,0,0,1,1.63.58,2.36,2.36,0,0,1,.54,1.66v4.51Z"/><path class="cls-6" d="M83.07,125.21V124h0a2.48,2.48,0,0,1-.39.58,2.34,2.34,0,0,1-.52.43,2.47,2.47,0,0,1-.63.27,2.73,2.73,0,0,1-.72.09,2.21,2.21,0,0,1-1.74-.63,2.64,2.64,0,0,1-.56-1.82v-4.31h.8v4.28a2.67,2.67,0,0,0,.1.76,1.43,1.43,0,0,0,.31.57,1.33,1.33,0,0,0,.54.35,2.33,2.33,0,0,0,.79.12,1.7,1.7,0,0,0,.89-.23,1.92,1.92,0,0,0,.62-.59,2.62,2.62,0,0,0,.36-.83,3.9,3.9,0,0,0,.11-.94v-3.49h.8v6.56Z"/><path class="cls-6" d="M94.25,125.21v-4.46a1.73,1.73,0,0,0-.37-1.22,1.85,1.85,0,0,0-2.5.21,2.8,2.8,0,0,0-.45,1.71v3.77h-.81v-4.49a1.81,1.81,0,0,0-.34-1.17,1.25,1.25,0,0,0-1-.42,1.72,1.72,0,0,0-1.46.65,2.72,2.72,0,0,0-.5,1.71v3.72H86v-6.56h.74v1.1h0a2.26,2.26,0,0,1,2.15-1.29,2.44,2.44,0,0,1,.64.08,1.86,1.86,0,0,1,.54.24,1.66,1.66,0,0,1,.42.4,1.86,1.86,0,0,1,.28.55,2.16,2.16,0,0,1,.85-1,2.4,2.4,0,0,1,1.24-.32,2.12,2.12,0,0,1,1.63.58,2.36,2.36,0,0,1,.54,1.66v4.51Z"/><line class="cls-7" x1="25" y1="107.5" x2="443" y2="107.5"/><line class="cls-7" x1="25" y1="76.5" x2="443" y2="76.5"/><rect class="cls-8" x="350.5" y="76.5" width="92" height="31"/><path class="cls-9" d="M442,77v30H351V77h91m1-1H350v32h93V76Z"/><path class="cls-6" d="M400.11,95.43V89.56h-2.2v-1a6,6,0,0,0,.9-.07,2.36,2.36,0,0,0,.63-.18,1.57,1.57,0,0,0,.64-.55,2.21,2.21,0,0,0,.31-.89h1.11v8.6Z"/><path class="cls-6" d="M407.32,95.61a3.21,3.21,0,0,1-1-.14,2.49,2.49,0,0,1-.79-.41,2.29,2.29,0,0,1-.57-.65,2.45,2.45,0,0,1-.3-.86H406a1.6,1.6,0,0,0,.17.39,1.14,1.14,0,0,0,.28.31,1.31,1.31,0,0,0,.39.21,1.55,1.55,0,0,0,.5.08,1.46,1.46,0,0,0,.88-.26,2,2,0,0,0,.59-.69,3.5,3.5,0,0,0,.33-1,6.77,6.77,0,0,0,.12-1.13h0a2.15,2.15,0,0,1-.67.68,2.21,2.21,0,0,1-.9.3,2.48,2.48,0,0,1-1.37-.11,2.34,2.34,0,0,1-1.35-1,2.76,2.76,0,0,1-.49-1.62,3,3,0,0,1,.85-2.2,2.84,2.84,0,0,1,2.13-.87,3.25,3.25,0,0,1,1.42.29,2.51,2.51,0,0,1,1,.86,5.88,5.88,0,0,1,.79,3.34,7.74,7.74,0,0,1-.07,1.05,5.85,5.85,0,0,1-.23,1,4.56,4.56,0,0,1-.42.92,3,3,0,0,1-.62.75,2.78,2.78,0,0,1-.86.5A3.19,3.19,0,0,1,407.32,95.61Zm1.8-5.94a1.88,1.88,0,0,0-.45-1.3,1.53,1.53,0,0,0-1.22-.52,1.41,1.41,0,0,0-1.13.53,1.9,1.9,0,0,0-.45,1.27A2,2,0,0,0,406.3,91a1.43,1.43,0,0,0,1.17.54,1.55,1.55,0,0,0,1.2-.52A2,2,0,0,0,409.12,89.67Z"/><path class="cls-6" d="M414.82,86.69a2.65,2.65,0,0,1,2.32,1.13,5.72,5.72,0,0,1,.79,3.3,5.83,5.83,0,0,1-.79,3.35,2.92,2.92,0,0,1-4.62,0,5.81,5.81,0,0,1-.79-3.35,5.75,5.75,0,0,1,.79-3.31A2.64,2.64,0,0,1,414.82,86.69Zm-1.7,4.44a10.27,10.27,0,0,0,.07,1.24,4.19,4.19,0,0,0,.26,1.06,1.83,1.83,0,0,0,.52.74,1.28,1.28,0,0,0,.85.28,1.31,1.31,0,0,0,1.08-.51,2.13,2.13,0,0,0,.31-.56,4.16,4.16,0,0,0,.2-.69,6.33,6.33,0,0,0,.1-.77q0-.4,0-.8a9.65,9.65,0,0,0-.08-1.27,3.8,3.8,0,0,0-.28-1,1.82,1.82,0,0,0-.53-.71,1.32,1.32,0,0,0-.84-.26,1.29,1.29,0,0,0-.6.13,1.39,1.39,0,0,0-.45.37,2,2,0,0,0-.31.55,4.32,4.32,0,0,0-.19.68,6.5,6.5,0,0,0-.11.76C413.14,90.6,413.13,90.87,413.13,91.13Z"/><path class="cls-6" d="M422.09,86.69a2.65,2.65,0,0,1,2.32,1.13,5.72,5.72,0,0,1,.79,3.3,5.83,5.83,0,0,1-.79,3.35,2.92,2.92,0,0,1-4.62,0,5.81,5.81,0,0,1-.79-3.35,5.75,5.75,0,0,1,.79-3.31A2.64,2.64,0,0,1,422.09,86.69Zm-1.7,4.44a10.27,10.27,0,0,0,.07,1.24,4.19,4.19,0,0,0,.26,1.06,1.83,1.83,0,0,0,.52.74,1.28,1.28,0,0,0,.85.28,1.31,1.31,0,0,0,1.08-.51,2.13,2.13,0,0,0,.31-.56,4.16,4.16,0,0,0,.2-.69,6.33,6.33,0,0,0,.1-.77q0-.4,0-.8a9.65,9.65,0,0,0-.08-1.27,3.8,3.8,0,0,0-.28-1,1.82,1.82,0,0,0-.53-.71,1.32,1.32,0,0,0-.84-.26,1.29,1.29,0,0,0-.6.13,1.39,1.39,0,0,0-.45.37,2,2,0,0,0-.31.55,4.32,4.32,0,0,0-.19.68,6.5,6.5,0,0,0-.11.76C420.4,90.6,420.39,90.87,420.39,91.13Z"/><path class="cls-6" d="M429.48,86.7a3,3,0,0,1,2,.7,2.22,2.22,0,0,1,.6.83,2.77,2.77,0,0,1,.19,1.06,2.82,2.82,0,0,1-.46,1.55,5.83,5.83,0,0,1-1.78,1.54q-.5.3-.85.56a6.9,6.9,0,0,0-.58.47,2.8,2.8,0,0,0-.62.81h4.33v1.21h-6.08a3.35,3.35,0,0,1,.39-1.59,3.73,3.73,0,0,1,.51-.69,5.59,5.59,0,0,1,.74-.66l.95-.71L430,91a2.7,2.7,0,0,0,.71-.75,1.6,1.6,0,0,0,.23-.83,1.68,1.68,0,0,0-.1-.6,1.33,1.33,0,0,0-.31-.48A1.44,1.44,0,0,0,430,88a1.79,1.79,0,0,0-1.31,0,1.46,1.46,0,0,0-.5.38,1.58,1.58,0,0,0-.29.53,2,2,0,0,0-.1.61v.15h-1.34v-.15a3.14,3.14,0,0,1,.21-1.15,2.54,2.54,0,0,1,.59-.9,2.71,2.71,0,0,1,.94-.59A3.45,3.45,0,0,1,429.48,86.7Z"/><rect class="cls-8" x="350.5" y="45.5" width="92" height="31"/><path class="cls-9" d="M442,46V76H351V46h91m1-1H350V77h93V45Z"/><path class="cls-6" d="M400.42,55.7a3,3,0,0,1,2,.7,2.22,2.22,0,0,1,.6.83,2.77,2.77,0,0,1,.19,1.06,2.82,2.82,0,0,1-.46,1.55A5.83,5.83,0,0,1,401,61.37q-.5.3-.85.56a6.9,6.9,0,0,0-.58.47,2.8,2.8,0,0,0-.62.81h4.33v1.21h-6.08a3.35,3.35,0,0,1,.39-1.59,3.73,3.73,0,0,1,.51-.69,5.59,5.59,0,0,1,.74-.66l.95-.71,1.12-.83a2.7,2.7,0,0,0,.71-.75,1.6,1.6,0,0,0,.23-.83,1.68,1.68,0,0,0-.1-.6,1.33,1.33,0,0,0-.31-.48A1.44,1.44,0,0,0,401,57a1.79,1.79,0,0,0-1.31,0,1.46,1.46,0,0,0-.5.38,1.58,1.58,0,0,0-.29.53,2,2,0,0,0-.1.61v.15h-1.34v-.15a3.14,3.14,0,0,1,.21-1.15,2.54,2.54,0,0,1,.59-.9,2.71,2.71,0,0,1,.94-.59A3.45,3.45,0,0,1,400.42,55.7Z"/><path class="cls-6" d="M407.56,55.69a2.65,2.65,0,0,1,2.32,1.13,5.72,5.72,0,0,1,.79,3.3,5.83,5.83,0,0,1-.79,3.35,2.92,2.92,0,0,1-4.62,0,5.81,5.81,0,0,1-.79-3.35,5.75,5.75,0,0,1,.79-3.31A2.64,2.64,0,0,1,407.56,55.69Zm-1.7,4.44a10.27,10.27,0,0,0,.07,1.24,4.19,4.19,0,0,0,.26,1.06,1.83,1.83,0,0,0,.52.74,1.28,1.28,0,0,0,.85.28,1.31,1.31,0,0,0,1.08-.51,2.13,2.13,0,0,0,.31-.56,4.16,4.16,0,0,0,.2-.69,6.33,6.33,0,0,0,.1-.77q0-.4,0-.8a9.65,9.65,0,0,0-.08-1.27,3.8,3.8,0,0,0-.28-1,1.82,1.82,0,0,0-.53-.71,1.32,1.32,0,0,0-.84-.26,1.29,1.29,0,0,0-.6.13,1.39,1.39,0,0,0-.45.37,2,2,0,0,0-.31.55,4.32,4.32,0,0,0-.19.68,6.5,6.5,0,0,0-.11.76C405.87,59.6,405.86,59.87,405.86,60.13Z"/><path class="cls-6" d="M414.82,55.69a2.65,2.65,0,0,1,2.32,1.13,5.72,5.72,0,0,1,.79,3.3,5.83,5.83,0,0,1-.79,3.35,2.92,2.92,0,0,1-4.62,0,5.81,5.81,0,0,1-.79-3.35,5.75,5.75,0,0,1,.79-3.31A2.64,2.64,0,0,1,414.82,55.69Zm-1.7,4.44a10.27,10.27,0,0,0,.07,1.24,4.19,4.19,0,0,0,.26,1.06,1.83,1.83,0,0,0,.52.74,1.28,1.28,0,0,0,.85.28,1.31,1.31,0,0,0,1.08-.51,2.13,2.13,0,0,0,.31-.56,4.16,4.16,0,0,0,.2-.69,6.33,6.33,0,0,0,.1-.77q0-.4,0-.8a9.65,9.65,0,0,0-.08-1.27,3.8,3.8,0,0,0-.28-1,1.82,1.82,0,0,0-.53-.71,1.32,1.32,0,0,0-.84-.26,1.29,1.29,0,0,0-.6.13,1.39,1.39,0,0,0-.45.37,2,2,0,0,0-.31.55,4.32,4.32,0,0,0-.19.68,6.5,6.5,0,0,0-.11.76C413.14,59.6,413.13,59.87,413.13,60.13Z"/><path class="cls-6" d="M422.09,55.69a2.65,2.65,0,0,1,2.32,1.13,5.72,5.72,0,0,1,.79,3.3,5.83,5.83,0,0,1-.79,3.35,2.92,2.92,0,0,1-4.62,0,5.81,5.81,0,0,1-.79-3.35,5.75,5.75,0,0,1,.79-3.31A2.64,2.64,0,0,1,422.09,55.69Zm-1.7,4.44a10.27,10.27,0,0,0,.07,1.24,4.19,4.19,0,0,0,.26,1.06,1.83,1.83,0,0,0,.52.74,1.28,1.28,0,0,0,.85.28,1.31,1.31,0,0,0,1.08-.51,2.13,2.13,0,0,0,.31-.56,4.16,4.16,0,0,0,.2-.69,6.33,6.33,0,0,0,.1-.77q0-.4,0-.8a9.65,9.65,0,0,0-.08-1.27,3.8,3.8,0,0,0-.28-1,1.82,1.82,0,0,0-.53-.71,1.32,1.32,0,0,0-.84-.26,1.29,1.29,0,0,0-.6.13,1.39,1.39,0,0,0-.45.37,2,2,0,0,0-.31.55,4.32,4.32,0,0,0-.19.68,6.5,6.5,0,0,0-.11.76C420.4,59.6,420.39,59.87,420.39,60.13Z"/><path class="cls-6" d="M429.36,55.69a2.65,2.65,0,0,1,2.32,1.13,5.72,5.72,0,0,1,.79,3.3,5.83,5.83,0,0,1-.79,3.35,2.92,2.92,0,0,1-4.62,0,5.81,5.81,0,0,1-.79-3.35,5.75,5.75,0,0,1,.79-3.31A2.64,2.64,0,0,1,429.36,55.69Zm-1.7,4.44a10.27,10.27,0,0,0,.07,1.24,4.19,4.19,0,0,0,.26,1.06,1.83,1.83,0,0,0,.52.74,1.28,1.28,0,0,0,.85.28,1.31,1.31,0,0,0,1.08-.51,2.13,2.13,0,0,0,.31-.56,4.16,4.16,0,0,0,.2-.69,6.33,6.33,0,0,0,.1-.77q0-.4,0-.8a9.65,9.65,0,0,0-.08-1.27,3.8,3.8,0,0,0-.28-1,1.82,1.82,0,0,0-.53-.71,1.32,1.32,0,0,0-.84-.26,1.29,1.29,0,0,0-.6.13,1.39,1.39,0,0,0-.45.37,2,2,0,0,0-.31.55,4.32,4.32,0,0,0-.19.68,6.5,6.5,0,0,0-.11.76C427.67,59.6,427.66,59.87,427.66,60.13Z"/><rect class="cls-8" x="350.5" y="107.5" width="92" height="31"/><path class="cls-9" d="M442,108v30H351V108h91m1-1H350v32h93V107Z"/><rect class="cls-8" x="258.5" y="76.5" width="92" height="31"/><path class="cls-9" d="M350,77v30H259V77h91m1-1H258v32h93V76Z"/><path class="cls-6" d="M308.11,95.43V89.56h-2.2v-1a6,6,0,0,0,.9-.07,2.36,2.36,0,0,0,.63-.18,1.57,1.57,0,0,0,.64-.55,2.21,2.21,0,0,0,.31-.89h1.11v8.6Z"/><path class="cls-6" d="M318.72,92.95a2.37,2.37,0,0,1-.89,1.95,3.88,3.88,0,0,1-4.51,0,2.33,2.33,0,0,1-.88-1.93,2.43,2.43,0,0,1,.11-.76,2.08,2.08,0,0,1,.33-.63,2,2,0,0,1,.52-.47,2.17,2.17,0,0,1,.7-.28v0a1.81,1.81,0,0,1-1-.67,1.92,1.92,0,0,1-.33-1.14,2,2,0,0,1,.81-1.65,3.16,3.16,0,0,1,2-.62,2.91,2.91,0,0,1,2,.67,2,2,0,0,1,.76,1.58,2.14,2.14,0,0,1-.08.61,1.82,1.82,0,0,1-.25.52,1.75,1.75,0,0,1-.41.42,2,2,0,0,1-.57.29v0a2.06,2.06,0,0,1,1.24.75A2.24,2.24,0,0,1,318.72,92.95Zm-1.39,0a1.45,1.45,0,0,0-.48-1.11,1.79,1.79,0,0,0-1.27-.44,1.88,1.88,0,0,0-1.27.42,1.42,1.42,0,0,0-.49,1.13,1.53,1.53,0,0,0,.5,1.18,1.79,1.79,0,0,0,1.27.46,1.74,1.74,0,0,0,1.25-.45A1.53,1.53,0,0,0,317.32,92.9Zm-.26-3.83a1.43,1.43,0,0,0-.11-.56,1,1,0,0,0-.32-.42,1.85,1.85,0,0,0-2.14,0,1.18,1.18,0,0,0-.42.94,1.19,1.19,0,0,0,.41.94,1.85,1.85,0,0,0,2.19,0A1.21,1.21,0,0,0,317.06,89.07Z"/><path class="cls-6" d="M325.71,86.86v1.21a8.83,8.83,0,0,0-1.24,1.49,10.33,10.33,0,0,0-.95,1.83,12,12,0,0,0-.87,4h-1.49a11.75,11.75,0,0,1,.93-3.82,13.7,13.7,0,0,1,2.2-3.45H320V86.86Z"/><path class="cls-6" d="M329.86,95.61a3.21,3.21,0,0,1-1-.14,2.49,2.49,0,0,1-.79-.41,2.29,2.29,0,0,1-.57-.65,2.45,2.45,0,0,1-.3-.86h1.34a1.6,1.6,0,0,0,.17.39,1.14,1.14,0,0,0,.28.31,1.31,1.31,0,0,0,.39.21,1.55,1.55,0,0,0,.5.08,1.46,1.46,0,0,0,.88-.26,2,2,0,0,0,.59-.69,3.5,3.5,0,0,0,.33-1,6.77,6.77,0,0,0,.12-1.13h0a2.15,2.15,0,0,1-.67.68,2.21,2.21,0,0,1-.9.3,2.48,2.48,0,0,1-1.37-.11,2.34,2.34,0,0,1-1.35-1,2.76,2.76,0,0,1-.49-1.62,3,3,0,0,1,.85-2.2A2.84,2.84,0,0,1,330,86.7a3.25,3.25,0,0,1,1.42.29,2.51,2.51,0,0,1,1,.86,5.88,5.88,0,0,1,.79,3.34,7.74,7.74,0,0,1-.07,1.05,5.85,5.85,0,0,1-.23,1,4.56,4.56,0,0,1-.42.92,3,3,0,0,1-.62.75,2.78,2.78,0,0,1-.86.5A3.19,3.19,0,0,1,329.86,95.61Zm1.8-5.94a1.88,1.88,0,0,0-.45-1.3,1.53,1.53,0,0,0-1.22-.52,1.41,1.41,0,0,0-1.13.53,1.9,1.9,0,0,0-.45,1.27,2,2,0,0,0,.43,1.32,1.43,1.43,0,0,0,1.17.54,1.55,1.55,0,0,0,1.2-.52A2,2,0,0,0,331.65,89.67Z"/><path class="cls-6" d="M340.51,92.95a2.37,2.37,0,0,1-.89,1.95,3.88,3.88,0,0,1-4.51,0,2.33,2.33,0,0,1-.88-1.93,2.43,2.43,0,0,1,.11-.76,2.08,2.08,0,0,1,.33-.63,2,2,0,0,1,.52-.47,2.17,2.17,0,0,1,.7-.28v0a1.81,1.81,0,0,1-1-.67,1.92,1.92,0,0,1-.33-1.14,2,2,0,0,1,.81-1.65,3.16,3.16,0,0,1,2-.62,2.91,2.91,0,0,1,2,.67,2,2,0,0,1,.76,1.58,2.14,2.14,0,0,1-.08.61,1.82,1.82,0,0,1-.25.52,1.75,1.75,0,0,1-.41.42,2,2,0,0,1-.57.29v0a2.06,2.06,0,0,1,1.24.75A2.24,2.24,0,0,1,340.51,92.95Zm-1.39,0a1.45,1.45,0,0,0-.48-1.11,1.79,1.79,0,0,0-1.27-.44,1.88,1.88,0,0,0-1.27.42,1.42,1.42,0,0,0-.49,1.13,1.53,1.53,0,0,0,.5,1.18,1.79,1.79,0,0,0,1.27.46,1.74,1.74,0,0,0,1.25-.45A1.53,1.53,0,0,0,339.12,92.9Zm-.26-3.83a1.43,1.43,0,0,0-.11-.56,1,1,0,0,0-.32-.42,1.85,1.85,0,0,0-2.14,0,1.18,1.18,0,0,0-.42.94,1.19,1.19,0,0,0,.41.94,1.85,1.85,0,0,0,2.19,0A1.21,1.21,0,0,0,338.86,89.07Z"/><rect class="cls-8" x="258.5" y="45.5" width="92" height="31"/><path class="cls-9" d="M350,46V76H259V46h91m1-1H258V77h93V45Z"/><path class="cls-6" d="M308.11,64.43V58.56h-2.2v-1a6,6,0,0,0,.9-.07,2.36,2.36,0,0,0,.63-.18,1.57,1.57,0,0,0,.64-.55,2.21,2.21,0,0,0,.31-.89h1.11v8.6Z"/><path class="cls-6" d="M315.32,64.61a3.21,3.21,0,0,1-1-.14,2.49,2.49,0,0,1-.79-.41,2.29,2.29,0,0,1-.57-.65,2.45,2.45,0,0,1-.3-.86H314a1.6,1.6,0,0,0,.17.39,1.14,1.14,0,0,0,.28.31,1.31,1.31,0,0,0,.39.21,1.55,1.55,0,0,0,.5.08,1.46,1.46,0,0,0,.88-.26,2,2,0,0,0,.59-.69,3.5,3.5,0,0,0,.33-1,6.77,6.77,0,0,0,.12-1.13h0a2.15,2.15,0,0,1-.67.68,2.21,2.21,0,0,1-.9.3,2.48,2.48,0,0,1-1.37-.11,2.34,2.34,0,0,1-1.35-1,2.76,2.76,0,0,1-.49-1.62,3,3,0,0,1,.85-2.2,2.84,2.84,0,0,1,2.13-.87,3.25,3.25,0,0,1,1.42.29,2.51,2.51,0,0,1,1,.86,5.88,5.88,0,0,1,.79,3.34,7.74,7.74,0,0,1-.07,1.05,5.85,5.85,0,0,1-.23,1,4.56,4.56,0,0,1-.42.92,3,3,0,0,1-.62.75,2.78,2.78,0,0,1-.86.5A3.19,3.19,0,0,1,315.32,64.61Zm1.8-5.94a1.88,1.88,0,0,0-.45-1.3,1.53,1.53,0,0,0-1.22-.52,1.41,1.41,0,0,0-1.13.53,1.9,1.9,0,0,0-.45,1.27A2,2,0,0,0,314.3,60a1.43,1.43,0,0,0,1.17.54,1.55,1.55,0,0,0,1.2-.52A2,2,0,0,0,317.12,58.67Z"/><path class="cls-6" d="M325.71,55.86v1.21a8.83,8.83,0,0,0-1.24,1.49,10.33,10.33,0,0,0-.95,1.83,12,12,0,0,0-.87,4h-1.49a11.75,11.75,0,0,1,.93-3.82,13.7,13.7,0,0,1,2.2-3.45H320V55.86Z"/><path class="cls-6" d="M333.25,61.95a2.37,2.37,0,0,1-.89,1.95,3.88,3.88,0,0,1-4.51,0A2.33,2.33,0,0,1,327,62a2.43,2.43,0,0,1,.11-.76,2.08,2.08,0,0,1,.33-.63,2,2,0,0,1,.52-.47,2.17,2.17,0,0,1,.7-.28v0a1.81,1.81,0,0,1-1-.67,1.92,1.92,0,0,1-.33-1.14,2,2,0,0,1,.81-1.65,3.16,3.16,0,0,1,2-.62,2.91,2.91,0,0,1,2,.67,2,2,0,0,1,.76,1.58,2.14,2.14,0,0,1-.08.61,1.82,1.82,0,0,1-.25.52,1.75,1.75,0,0,1-.41.42,2,2,0,0,1-.57.29v0a2.06,2.06,0,0,1,1.24.75A2.24,2.24,0,0,1,333.25,61.95Zm-1.39,0a1.45,1.45,0,0,0-.48-1.11,1.79,1.79,0,0,0-1.27-.44,1.88,1.88,0,0,0-1.27.42,1.42,1.42,0,0,0-.49,1.13,1.53,1.53,0,0,0,.5,1.18,1.79,1.79,0,0,0,1.27.46,1.74,1.74,0,0,0,1.25-.45A1.53,1.53,0,0,0,331.85,61.9Zm-.26-3.83a1.43,1.43,0,0,0-.11-.56,1,1,0,0,0-.32-.42,1.85,1.85,0,0,0-2.14,0,1.18,1.18,0,0,0-.42.94A1.19,1.19,0,0,0,329,59a1.85,1.85,0,0,0,2.19,0A1.21,1.21,0,0,0,331.6,58.07Z"/><path class="cls-6" d="M340.51,61.95a2.37,2.37,0,0,1-.89,1.95,3.88,3.88,0,0,1-4.51,0,2.33,2.33,0,0,1-.88-1.93,2.43,2.43,0,0,1,.11-.76,2.08,2.08,0,0,1,.33-.63,2,2,0,0,1,.52-.47,2.17,2.17,0,0,1,.7-.28v0a1.81,1.81,0,0,1-1-.67,1.92,1.92,0,0,1-.33-1.14,2,2,0,0,1,.81-1.65,3.16,3.16,0,0,1,2-.62,2.91,2.91,0,0,1,2,.67,2,2,0,0,1,.76,1.58,2.14,2.14,0,0,1-.08.61,1.82,1.82,0,0,1-.25.52,1.75,1.75,0,0,1-.41.42,2,2,0,0,1-.57.29v0a2.06,2.06,0,0,1,1.24.75A2.24,2.24,0,0,1,340.51,61.95Zm-1.39,0a1.45,1.45,0,0,0-.48-1.11,1.79,1.79,0,0,0-1.27-.44,1.88,1.88,0,0,0-1.27.42,1.42,1.42,0,0,0-.49,1.13,1.53,1.53,0,0,0,.5,1.18,1.79,1.79,0,0,0,1.27.46,1.74,1.74,0,0,0,1.25-.45A1.53,1.53,0,0,0,339.12,61.9Zm-.26-3.83a1.43,1.43,0,0,0-.11-.56,1,1,0,0,0-.32-.42,1.85,1.85,0,0,0-2.14,0,1.18,1.18,0,0,0-.42.94,1.19,1.19,0,0,0,.41.94,1.85,1.85,0,0,0,2.19,0A1.21,1.21,0,0,0,338.86,58.07Z"/><rect class="cls-8" x="165.5" y="45.5" width="93" height="31"/><path class="cls-9" d="M258,46V76H166V46h92m1-1H165V77h94V45Z"/><path class="cls-6" d="M248,55.87V57h-3.63l-.42,2.24,0,0a2.3,2.3,0,0,1,.75-.5,2.57,2.57,0,0,1,1-.17,2.81,2.81,0,0,1,1.14.22,2.53,2.53,0,0,1,.86.62,2.7,2.7,0,0,1,.55.93,3.48,3.48,0,0,1,.19,1.17,2.93,2.93,0,0,1-.24,1.17,3,3,0,0,1-.66,1,3.13,3.13,0,0,1-1,.65,3.22,3.22,0,0,1-1.25.24,4.16,4.16,0,0,1-1.15-.15,2.71,2.71,0,0,1-.93-.46,2.32,2.32,0,0,1-.64-.76,2.65,2.65,0,0,1-.28-1.07h1.4a1.51,1.51,0,0,0,.14.5,1.33,1.33,0,0,0,.31.41,1.41,1.41,0,0,0,.48.28,2,2,0,0,0,.65.1,1.67,1.67,0,0,0,.73-.16,1.7,1.7,0,0,0,.55-.42,1.85,1.85,0,0,0,.35-.61,2.17,2.17,0,0,0,.12-.73,2.11,2.11,0,0,0-.12-.7,1.7,1.7,0,0,0-.34-.58,1.68,1.68,0,0,0-.55-.4,1.74,1.74,0,0,0-.74-.15,1.76,1.76,0,0,0-1.52.76h-1.24l.84-4.6Z"/><rect class="cls-8" x="165.5" y="107.5" width="93" height="31"/><path class="cls-9" d="M258,108v30H166V108h92m1-1H165v32h94V107Z"/><path class="cls-6" d="M400.42,117.7a3,3,0,0,1,2,.7,2.22,2.22,0,0,1,.6.83,2.77,2.77,0,0,1,.19,1.06,2.82,2.82,0,0,1-.46,1.55,5.83,5.83,0,0,1-1.78,1.54q-.5.3-.85.56a6.9,6.9,0,0,0-.58.47,2.8,2.8,0,0,0-.62.81h4.33v1.21h-6.08a3.35,3.35,0,0,1,.39-1.59,3.73,3.73,0,0,1,.51-.69,5.59,5.59,0,0,1,.74-.66l.95-.71,1.12-.83a2.7,2.7,0,0,0,.71-.75,1.6,1.6,0,0,0,.23-.83,1.68,1.68,0,0,0-.1-.6,1.33,1.33,0,0,0-.31-.48,1.44,1.44,0,0,0-.47-.3,1.79,1.79,0,0,0-1.31,0,1.46,1.46,0,0,0-.5.38,1.58,1.58,0,0,0-.29.53,2,2,0,0,0-.1.61v.15h-1.34v-.15a3.14,3.14,0,0,1,.21-1.15,2.54,2.54,0,0,1,.59-.9,2.71,2.71,0,0,1,.94-.59A3.45,3.45,0,0,1,400.42,117.7Z"/><path class="cls-6" d="M407.56,117.69a2.65,2.65,0,0,1,2.32,1.13,5.72,5.72,0,0,1,.79,3.3,5.83,5.83,0,0,1-.79,3.35,2.92,2.92,0,0,1-4.62,0,5.81,5.81,0,0,1-.79-3.35,5.75,5.75,0,0,1,.79-3.31A2.64,2.64,0,0,1,407.56,117.69Zm-1.7,4.44a10.27,10.27,0,0,0,.07,1.24,4.19,4.19,0,0,0,.26,1.06,1.83,1.83,0,0,0,.52.74,1.28,1.28,0,0,0,.85.28,1.31,1.31,0,0,0,1.08-.51,2.13,2.13,0,0,0,.31-.56,4.16,4.16,0,0,0,.2-.69,6.33,6.33,0,0,0,.1-.77q0-.4,0-.8a9.65,9.65,0,0,0-.08-1.27,3.8,3.8,0,0,0-.28-1,1.82,1.82,0,0,0-.53-.71,1.32,1.32,0,0,0-.84-.26,1.29,1.29,0,0,0-.6.13,1.39,1.39,0,0,0-.45.37,2,2,0,0,0-.31.55,4.32,4.32,0,0,0-.19.68,6.5,6.5,0,0,0-.11.76C405.87,121.6,405.86,121.87,405.86,122.13Z"/><path class="cls-6" d="M414.59,126.61a3.21,3.21,0,0,1-1-.14,2.49,2.49,0,0,1-.79-.41,2.29,2.29,0,0,1-.57-.65,2.45,2.45,0,0,1-.3-.86h1.34a1.6,1.6,0,0,0,.17.39,1.14,1.14,0,0,0,.28.31,1.31,1.31,0,0,0,.39.21,1.55,1.55,0,0,0,.5.08,1.46,1.46,0,0,0,.88-.26,2,2,0,0,0,.59-.69,3.5,3.5,0,0,0,.33-1,6.77,6.77,0,0,0,.12-1.13h0a2.15,2.15,0,0,1-.67.68,2.21,2.21,0,0,1-.9.3,2.48,2.48,0,0,1-1.37-.11,2.34,2.34,0,0,1-1.35-1,2.76,2.76,0,0,1-.49-1.62,3,3,0,0,1,.85-2.2,2.84,2.84,0,0,1,2.13-.87,3.25,3.25,0,0,1,1.42.29,2.51,2.51,0,0,1,1,.86,5.88,5.88,0,0,1,.79,3.34,7.74,7.74,0,0,1-.07,1.05,5.85,5.85,0,0,1-.23,1,4.56,4.56,0,0,1-.42.92,3,3,0,0,1-.62.75,2.78,2.78,0,0,1-.86.5A3.19,3.19,0,0,1,414.59,126.61Zm1.8-5.94a1.88,1.88,0,0,0-.45-1.3,1.53,1.53,0,0,0-1.22-.52,1.41,1.41,0,0,0-1.13.53,1.9,1.9,0,0,0-.45,1.27,2,2,0,0,0,.43,1.32,1.43,1.43,0,0,0,1.17.54,1.55,1.55,0,0,0,1.2-.52A2,2,0,0,0,416.39,120.67Z"/><path class="cls-6" d="M421.86,126.61a3.21,3.21,0,0,1-1-.14,2.49,2.49,0,0,1-.79-.41,2.29,2.29,0,0,1-.57-.65,2.45,2.45,0,0,1-.3-.86h1.34a1.6,1.6,0,0,0,.17.39,1.14,1.14,0,0,0,.28.31,1.31,1.31,0,0,0,.39.21,1.55,1.55,0,0,0,.5.08,1.46,1.46,0,0,0,.88-.26,2,2,0,0,0,.59-.69,3.5,3.5,0,0,0,.33-1,6.77,6.77,0,0,0,.12-1.13h0a2.15,2.15,0,0,1-.67.68,2.21,2.21,0,0,1-.9.3,2.48,2.48,0,0,1-1.37-.11,2.34,2.34,0,0,1-1.35-1,2.76,2.76,0,0,1-.49-1.62,3,3,0,0,1,.85-2.2,2.84,2.84,0,0,1,2.13-.87,3.25,3.25,0,0,1,1.42.29,2.51,2.51,0,0,1,1,.86,5.88,5.88,0,0,1,.79,3.34,7.74,7.74,0,0,1-.07,1.05,5.85,5.85,0,0,1-.23,1,4.56,4.56,0,0,1-.42.92,3,3,0,0,1-.62.75,2.78,2.78,0,0,1-.86.5A3.19,3.19,0,0,1,421.86,126.61Zm1.8-5.94a1.88,1.88,0,0,0-.45-1.3,1.53,1.53,0,0,0-1.22-.52,1.41,1.41,0,0,0-1.13.53,1.9,1.9,0,0,0-.45,1.27,2,2,0,0,0,.43,1.32,1.43,1.43,0,0,0,1.17.54,1.55,1.55,0,0,0,1.2-.52A2,2,0,0,0,423.65,120.67Z"/><path class="cls-6" d="M432.51,123.95a2.37,2.37,0,0,1-.89,1.95,3.88,3.88,0,0,1-4.51,0,2.33,2.33,0,0,1-.88-1.93,2.43,2.43,0,0,1,.11-.76,2.08,2.08,0,0,1,.33-.63,2,2,0,0,1,.52-.47,2.17,2.17,0,0,1,.7-.28v0a1.81,1.81,0,0,1-1-.67,1.92,1.92,0,0,1-.33-1.14,2,2,0,0,1,.81-1.65,3.16,3.16,0,0,1,2-.62,2.91,2.91,0,0,1,2,.67,2,2,0,0,1,.76,1.58,2.14,2.14,0,0,1-.08.61,1.82,1.82,0,0,1-.25.52,1.75,1.75,0,0,1-.41.42,2,2,0,0,1-.57.29v0a2.06,2.06,0,0,1,1.24.75A2.24,2.24,0,0,1,432.51,123.95Zm-1.39,0a1.45,1.45,0,0,0-.48-1.11,1.79,1.79,0,0,0-1.27-.44,1.88,1.88,0,0,0-1.27.42,1.42,1.42,0,0,0-.49,1.13,1.53,1.53,0,0,0,.5,1.18,1.79,1.79,0,0,0,1.27.46,1.74,1.74,0,0,0,1.25-.45A1.53,1.53,0,0,0,431.12,123.9Zm-.26-3.83a1.43,1.43,0,0,0-.11-.56,1,1,0,0,0-.32-.42,1.85,1.85,0,0,0-2.14,0,1.18,1.18,0,0,0-.42.94,1.19,1.19,0,0,0,.41.94,1.85,1.85,0,0,0,2.19,0A1.21,1.21,0,0,0,430.86,120.07Z"/><rect class="cls-8" x="442.5" y="76.5" width="92" height="31"/><path class="cls-9" d="M534,77v30H443V77h91m1-1H442v32h93V76Z"/><path class="cls-6" d="M513.86,95.61a3.21,3.21,0,0,1-1-.14,2.49,2.49,0,0,1-.79-.41,2.29,2.29,0,0,1-.57-.65,2.45,2.45,0,0,1-.3-.86h1.34a1.6,1.6,0,0,0,.17.39,1.14,1.14,0,0,0,.28.31,1.31,1.31,0,0,0,.39.21,1.55,1.55,0,0,0,.5.08,1.46,1.46,0,0,0,.88-.26,2,2,0,0,0,.59-.69,3.5,3.5,0,0,0,.33-1,6.77,6.77,0,0,0,.12-1.13h0a2.15,2.15,0,0,1-.67.68,2.21,2.21,0,0,1-.9.3,2.48,2.48,0,0,1-1.37-.11,2.34,2.34,0,0,1-1.35-1,2.76,2.76,0,0,1-.49-1.62,3,3,0,0,1,.85-2.2A2.84,2.84,0,0,1,514,86.7a3.25,3.25,0,0,1,1.42.29,2.51,2.51,0,0,1,1,.86,5.88,5.88,0,0,1,.79,3.34,7.74,7.74,0,0,1-.07,1.05,5.85,5.85,0,0,1-.23,1,4.56,4.56,0,0,1-.42.92,3,3,0,0,1-.62.75,2.78,2.78,0,0,1-.86.5A3.19,3.19,0,0,1,513.86,95.61Zm1.8-5.94a1.88,1.88,0,0,0-.45-1.3,1.53,1.53,0,0,0-1.22-.52,1.41,1.41,0,0,0-1.13.53,1.9,1.9,0,0,0-.45,1.27,2,2,0,0,0,.43,1.32,1.43,1.43,0,0,0,1.17.54,1.55,1.55,0,0,0,1.2-.52A2,2,0,0,0,515.65,89.67Z"/><path class="cls-6" d="M524,86.87V88h-3.63l-.42,2.24,0,0a2.3,2.3,0,0,1,.75-.5,2.57,2.57,0,0,1,1-.17,2.81,2.81,0,0,1,1.14.22,2.53,2.53,0,0,1,.86.62,2.7,2.7,0,0,1,.55.93,3.48,3.48,0,0,1,.19,1.17,2.93,2.93,0,0,1-.24,1.17,3,3,0,0,1-.66,1,3.13,3.13,0,0,1-1,.65,3.22,3.22,0,0,1-1.25.24,4.16,4.16,0,0,1-1.15-.15,2.71,2.71,0,0,1-.93-.46,2.32,2.32,0,0,1-.64-.76,2.65,2.65,0,0,1-.28-1.07h1.4a1.51,1.51,0,0,0,.14.5,1.33,1.33,0,0,0,.31.41,1.41,1.41,0,0,0,.48.28,2,2,0,0,0,.65.1,1.67,1.67,0,0,0,.73-.16,1.7,1.7,0,0,0,.55-.42,1.85,1.85,0,0,0,.35-.61,2.17,2.17,0,0,0,.12-.73,2.11,2.11,0,0,0-.12-.7,1.7,1.7,0,0,0-.34-.58,1.68,1.68,0,0,0-.55-.4,1.74,1.74,0,0,0-.74-.15,1.76,1.76,0,0,0-1.52.76h-1.24l.84-4.6Z"/><rect class="cls-8" x="442.5" y="45.5" width="92" height="31"/><path class="cls-9" d="M534,46V76H443V46h91m1-1H442V77h93V45Z"/><rect class="cls-8" x="442.5" y="107.5" width="92" height="31"/><path class="cls-9" d="M534,108v30H443V108h91m1-1H442v32h93V107Z"/><path class="cls-6" d="M506.64,126.43v-5.87h-2.2v-1a6,6,0,0,0,.9-.07,2.36,2.36,0,0,0,.63-.18,1.57,1.57,0,0,0,.64-.55,2.21,2.21,0,0,0,.31-.89H508v8.6Z"/><path class="cls-6" d="M514.09,117.69a2.65,2.65,0,0,1,2.32,1.13,5.72,5.72,0,0,1,.79,3.3,5.83,5.83,0,0,1-.79,3.35,2.92,2.92,0,0,1-4.62,0,5.81,5.81,0,0,1-.79-3.35,5.75,5.75,0,0,1,.79-3.31A2.64,2.64,0,0,1,514.09,117.69Zm-1.7,4.44a10.27,10.27,0,0,0,.07,1.24,4.19,4.19,0,0,0,.26,1.06,1.83,1.83,0,0,0,.52.74,1.28,1.28,0,0,0,.85.28,1.31,1.31,0,0,0,1.08-.51,2.13,2.13,0,0,0,.31-.56,4.16,4.16,0,0,0,.2-.69,6.33,6.33,0,0,0,.1-.77q0-.4,0-.8a9.65,9.65,0,0,0-.08-1.27,3.8,3.8,0,0,0-.28-1,1.82,1.82,0,0,0-.53-.71,1.32,1.32,0,0,0-.84-.26,1.29,1.29,0,0,0-.6.13,1.39,1.39,0,0,0-.45.37,2,2,0,0,0-.31.55,4.32,4.32,0,0,0-.19.68,6.5,6.5,0,0,0-.11.76C512.4,121.6,512.39,121.87,512.39,122.13Z"/><path class="cls-6" d="M524,117.87V119h-3.63l-.42,2.24,0,0a2.3,2.3,0,0,1,.75-.5,2.57,2.57,0,0,1,1-.17,2.81,2.81,0,0,1,1.14.22,2.53,2.53,0,0,1,.86.62,2.7,2.7,0,0,1,.55.93,3.48,3.48,0,0,1,.19,1.17,2.93,2.93,0,0,1-.24,1.17,3,3,0,0,1-.66,1,3.13,3.13,0,0,1-1,.65,3.22,3.22,0,0,1-1.25.24,4.16,4.16,0,0,1-1.15-.15,2.71,2.71,0,0,1-.93-.46,2.32,2.32,0,0,1-.64-.76,2.65,2.65,0,0,1-.28-1.07h1.4a1.51,1.51,0,0,0,.14.5,1.33,1.33,0,0,0,.31.41,1.41,1.41,0,0,0,.48.28,2,2,0,0,0,.65.1,1.67,1.67,0,0,0,.73-.16,1.7,1.7,0,0,0,.55-.42,1.85,1.85,0,0,0,.35-.61,2.17,2.17,0,0,0,.12-.73,2.11,2.11,0,0,0-.12-.7,1.7,1.7,0,0,0-.34-.58,1.68,1.68,0,0,0-.55-.4,1.74,1.74,0,0,0-.74-.15,1.76,1.76,0,0,0-1.52.76h-1.24l.84-4.6Z"/><rect class="cls-8" x="258.5" y="107.5" width="92" height="31"/><path class="cls-9" d="M350,108v30H259V108h91m1-1H258v32h93V107Z"/><path class="cls-6" d="M308.42,117.7a3,3,0,0,1,2,.7,2.22,2.22,0,0,1,.6.83,2.77,2.77,0,0,1,.19,1.06,2.82,2.82,0,0,1-.46,1.55,5.83,5.83,0,0,1-1.78,1.54q-.5.3-.85.56a6.9,6.9,0,0,0-.58.47,2.8,2.8,0,0,0-.62.81h4.33v1.21h-6.08a3.35,3.35,0,0,1,.39-1.59,3.73,3.73,0,0,1,.51-.69,5.59,5.59,0,0,1,.74-.66l.95-.71,1.12-.83a2.7,2.7,0,0,0,.71-.75,1.6,1.6,0,0,0,.23-.83,1.68,1.68,0,0,0-.1-.6,1.33,1.33,0,0,0-.31-.48,1.44,1.44,0,0,0-.47-.3,1.79,1.79,0,0,0-1.31,0,1.46,1.46,0,0,0-.5.38,1.58,1.58,0,0,0-.29.53,2,2,0,0,0-.1.61v.15h-1.34v-.15a3.14,3.14,0,0,1,.21-1.15,2.54,2.54,0,0,1,.59-.9,2.71,2.71,0,0,1,.94-.59A3.45,3.45,0,0,1,308.42,117.7Z"/><path class="cls-6" d="M315.56,117.69a2.65,2.65,0,0,1,2.32,1.13,5.72,5.72,0,0,1,.79,3.3,5.83,5.83,0,0,1-.79,3.35,2.92,2.92,0,0,1-4.62,0,5.81,5.81,0,0,1-.79-3.35,5.75,5.75,0,0,1,.79-3.31A2.64,2.64,0,0,1,315.56,117.69Zm-1.7,4.44a10.27,10.27,0,0,0,.07,1.24,4.19,4.19,0,0,0,.26,1.06,1.83,1.83,0,0,0,.52.74,1.28,1.28,0,0,0,.85.28,1.31,1.31,0,0,0,1.08-.51,2.13,2.13,0,0,0,.31-.56,4.16,4.16,0,0,0,.2-.69,6.33,6.33,0,0,0,.1-.77q0-.4,0-.8a9.65,9.65,0,0,0-.08-1.27,3.8,3.8,0,0,0-.28-1,1.82,1.82,0,0,0-.53-.71,1.32,1.32,0,0,0-.84-.26,1.29,1.29,0,0,0-.6.13,1.39,1.39,0,0,0-.45.37,2,2,0,0,0-.31.55,4.32,4.32,0,0,0-.19.68,6.5,6.5,0,0,0-.11.76C313.87,121.6,313.86,121.87,313.86,122.13Z"/><path class="cls-6" d="M325.71,117.86v1.21a8.83,8.83,0,0,0-1.24,1.49,10.33,10.33,0,0,0-.95,1.83,12,12,0,0,0-.87,4h-1.49a11.75,11.75,0,0,1,.93-3.82,13.7,13.7,0,0,1,2.2-3.45H320v-1.29Z"/><path class="cls-6" d="M333.25,123.95a2.37,2.37,0,0,1-.89,1.95,3.88,3.88,0,0,1-4.51,0A2.33,2.33,0,0,1,327,124a2.43,2.43,0,0,1,.11-.76,2.08,2.08,0,0,1,.33-.63,2,2,0,0,1,.52-.47,2.17,2.17,0,0,1,.7-.28v0a1.81,1.81,0,0,1-1-.67,1.92,1.92,0,0,1-.33-1.14,2,2,0,0,1,.81-1.65,3.16,3.16,0,0,1,2-.62,2.91,2.91,0,0,1,2,.67,2,2,0,0,1,.76,1.58,2.14,2.14,0,0,1-.08.61,1.82,1.82,0,0,1-.25.52,1.75,1.75,0,0,1-.41.42,2,2,0,0,1-.57.29v0a2.06,2.06,0,0,1,1.24.75A2.24,2.24,0,0,1,333.25,123.95Zm-1.39,0a1.45,1.45,0,0,0-.48-1.11,1.79,1.79,0,0,0-1.27-.44,1.88,1.88,0,0,0-1.27.42,1.42,1.42,0,0,0-.49,1.13,1.53,1.53,0,0,0,.5,1.18,1.79,1.79,0,0,0,1.27.46,1.74,1.74,0,0,0,1.25-.45A1.53,1.53,0,0,0,331.85,123.9Zm-.26-3.83a1.43,1.43,0,0,0-.11-.56,1,1,0,0,0-.32-.42,1.85,1.85,0,0,0-2.14,0,1.18,1.18,0,0,0-.42.94,1.19,1.19,0,0,0,.41.94,1.85,1.85,0,0,0,2.19,0A1.21,1.21,0,0,0,331.6,120.07Z"/><path class="cls-6" d="M340.51,123.95a2.37,2.37,0,0,1-.89,1.95,3.88,3.88,0,0,1-4.51,0,2.33,2.33,0,0,1-.88-1.93,2.43,2.43,0,0,1,.11-.76,2.08,2.08,0,0,1,.33-.63,2,2,0,0,1,.52-.47,2.17,2.17,0,0,1,.7-.28v0a1.81,1.81,0,0,1-1-.67,1.92,1.92,0,0,1-.33-1.14,2,2,0,0,1,.81-1.65,3.16,3.16,0,0,1,2-.62,2.91,2.91,0,0,1,2,.67,2,2,0,0,1,.76,1.58,2.14,2.14,0,0,1-.08.61,1.82,1.82,0,0,1-.25.52,1.75,1.75,0,0,1-.41.42,2,2,0,0,1-.57.29v0a2.06,2.06,0,0,1,1.24.75A2.24,2.24,0,0,1,340.51,123.95Zm-1.39,0a1.45,1.45,0,0,0-.48-1.11,1.79,1.79,0,0,0-1.27-.44,1.88,1.88,0,0,0-1.27.42,1.42,1.42,0,0,0-.49,1.13,1.53,1.53,0,0,0,.5,1.18,1.79,1.79,0,0,0,1.27.46,1.74,1.74,0,0,0,1.25-.45A1.53,1.53,0,0,0,339.12,123.9Zm-.26-3.83a1.43,1.43,0,0,0-.11-.56,1,1,0,0,0-.32-.42,1.85,1.85,0,0,0-2.14,0,1.18,1.18,0,0,0-.42.94,1.19,1.19,0,0,0,.41.94,1.85,1.85,0,0,0,2.19,0A1.21,1.21,0,0,0,338.86,120.07Z"/><path class="cls-6" d="M240.69,117.87V119h-3.63l-.42,2.24,0,0a2.3,2.3,0,0,1,.75-.5,2.57,2.57,0,0,1,1-.17,2.81,2.81,0,0,1,1.14.22,2.53,2.53,0,0,1,.86.62,2.7,2.7,0,0,1,.55.93,3.48,3.48,0,0,1,.19,1.17,2.93,2.93,0,0,1-.24,1.17,3,3,0,0,1-.66,1,3.13,3.13,0,0,1-1,.65,3.22,3.22,0,0,1-1.25.24,4.16,4.16,0,0,1-1.15-.15,2.71,2.71,0,0,1-.93-.46,2.32,2.32,0,0,1-.64-.76,2.65,2.65,0,0,1-.28-1.07h1.4a1.51,1.51,0,0,0,.14.5,1.33,1.33,0,0,0,.31.41,1.41,1.41,0,0,0,.48.28,2,2,0,0,0,.65.1,1.67,1.67,0,0,0,.73-.16,1.7,1.7,0,0,0,.55-.42,1.85,1.85,0,0,0,.35-.61,2.17,2.17,0,0,0,.12-.73,2.11,2.11,0,0,0-.12-.7,1.7,1.7,0,0,0-.34-.58,1.68,1.68,0,0,0-.55-.4,1.74,1.74,0,0,0-.74-.15,1.76,1.76,0,0,0-1.52.76h-1.24l.84-4.6Z"/><path class="cls-6" d="M248,117.87V119h-3.63l-.42,2.24,0,0a2.3,2.3,0,0,1,.75-.5,2.57,2.57,0,0,1,1-.17,2.81,2.81,0,0,1,1.14.22,2.53,2.53,0,0,1,.86.62,2.7,2.7,0,0,1,.55.93,3.48,3.48,0,0,1,.19,1.17,2.93,2.93,0,0,1-.24,1.17,3,3,0,0,1-.66,1,3.13,3.13,0,0,1-1,.65,3.22,3.22,0,0,1-1.25.24,4.16,4.16,0,0,1-1.15-.15,2.71,2.71,0,0,1-.93-.46,2.32,2.32,0,0,1-.64-.76,2.65,2.65,0,0,1-.28-1.07h1.4a1.51,1.51,0,0,0,.14.5,1.33,1.33,0,0,0,.31.41,1.41,1.41,0,0,0,.48.28,2,2,0,0,0,.65.1,1.67,1.67,0,0,0,.73-.16,1.7,1.7,0,0,0,.55-.42,1.85,1.85,0,0,0,.35-.61,2.17,2.17,0,0,0,.12-.73,2.11,2.11,0,0,0-.12-.7,1.7,1.7,0,0,0-.34-.58,1.68,1.68,0,0,0-.55-.4,1.74,1.74,0,0,0-.74-.15,1.76,1.76,0,0,0-1.52.76h-1.24l.84-4.6Z"/><rect class="cls-10" x="443" y="73" width="91" height="3"/><rect class="cls-10" x="443" y="104" width="91" height="3"/><rect class="cls-11" x="443" y="135" width="91" height="3"/><rect class="cls-11" x="443" y="104" width="86" height="3"/><path class="cls-5" d="M258,77v30H166V77h92m1-1H165v32h94V76Z"/><path class="cls-6" d="M232.76,93.38v2h-1.31v-2h-3.76V92.1l3.82-5.27h1.25v5.41H234v1.15Zm-1.31-4.82h0l-2.62,3.67h2.65Z"/><path class="cls-6" d="M241.25,92.95a2.37,2.37,0,0,1-.89,1.95,3.88,3.88,0,0,1-4.51,0A2.33,2.33,0,0,1,235,93a2.43,2.43,0,0,1,.11-.76,2.08,2.08,0,0,1,.33-.63,2,2,0,0,1,.52-.47,2.17,2.17,0,0,1,.7-.28v0a1.81,1.81,0,0,1-1-.67,1.92,1.92,0,0,1-.33-1.14,2,2,0,0,1,.81-1.65,3.16,3.16,0,0,1,2-.62,2.91,2.91,0,0,1,2,.67,2,2,0,0,1,.76,1.58,2.14,2.14,0,0,1-.08.61,1.82,1.82,0,0,1-.25.52,1.75,1.75,0,0,1-.41.42,2,2,0,0,1-.57.29v0a2.06,2.06,0,0,1,1.24.75A2.24,2.24,0,0,1,241.25,92.95Zm-1.39,0a1.45,1.45,0,0,0-.48-1.11,1.79,1.79,0,0,0-1.27-.44,1.88,1.88,0,0,0-1.27.42,1.42,1.42,0,0,0-.49,1.13,1.53,1.53,0,0,0,.5,1.18,1.79,1.79,0,0,0,1.27.46,1.74,1.74,0,0,0,1.25-.45A1.53,1.53,0,0,0,239.85,92.9Zm-.26-3.83a1.43,1.43,0,0,0-.11-.56,1,1,0,0,0-.32-.42,1.85,1.85,0,0,0-2.14,0,1.18,1.18,0,0,0-.42.94A1.19,1.19,0,0,0,237,90a1.85,1.85,0,0,0,2.19,0A1.21,1.21,0,0,0,239.6,89.07Z"/><path class="cls-6" d="M245.36,86.69a2.65,2.65,0,0,1,2.32,1.13,5.72,5.72,0,0,1,.79,3.3,5.83,5.83,0,0,1-.79,3.35,2.92,2.92,0,0,1-4.62,0,5.81,5.81,0,0,1-.79-3.35,5.75,5.75,0,0,1,.79-3.31A2.64,2.64,0,0,1,245.36,86.69Zm-1.7,4.44a10.27,10.27,0,0,0,.07,1.24,4.19,4.19,0,0,0,.26,1.06,1.83,1.83,0,0,0,.52.74,1.28,1.28,0,0,0,.85.28,1.31,1.31,0,0,0,1.08-.51,2.13,2.13,0,0,0,.31-.56,4.16,4.16,0,0,0,.2-.69,6.33,6.33,0,0,0,.1-.77q0-.4,0-.8a9.65,9.65,0,0,0-.08-1.27,3.8,3.8,0,0,0-.28-1,1.82,1.82,0,0,0-.53-.71,1.32,1.32,0,0,0-.84-.26,1.29,1.29,0,0,0-.6.13,1.39,1.39,0,0,0-.45.37,2,2,0,0,0-.31.55,4.32,4.32,0,0,0-.19.68,6.5,6.5,0,0,0-.11.76C243.67,90.6,243.66,90.87,243.66,91.13Z"/><path class="cls-5" d="M534,46v92H25V46H534m1-1H24v94H535V45Z"/><line class="cls-12" x1="24" y1="45.5" x2="535" y2="45.5"/></g></svg>