<svg xmlns="http://www.w3.org/2000/svg" viewBox="0 0 674 189"><defs><style>.cls-1,.cls-9{fill:#fff;}.cls-10,.cls-2,.cls-3,.cls-4{fill:none;}.cls-2{stroke:#000;opacity:0.11;}.cls-10,.cls-2,.cls-4{stroke-miterlimit:10;}.cls-4{stroke:#c8c8c8;}.cls-5{fill:#464646;}.cls-6{fill:#429feb;}.cls-7{fill:#dcdcdc;}.cls-7,.cls-9{opacity:0.6;}.cls-8{fill:#d2d2d2;}.cls-10{stroke:#0aaeff;stroke-width:2px;}</style></defs><title>Artboard 7</title><g id="Bg"><rect class="cls-1" x="-35" y="-1037" width="6000" height="2500"/></g><g id="Tabeller"><line class="cls-2" x1="11" y1="170.5" x2="664" y2="170.5"/><rect class="cls-3" x="11" y="140" width="653" height="30"/><line class="cls-2" x1="11" y1="139.5" x2="664" y2="139.5"/><line class="cls-2" x1="11" y1="108.5" x2="664" y2="108.5"/><rect class="cls-3" x="11" y="78" width="653" height="30"/><line class="cls-2" x1="11" y1="77.5" x2="664" y2="77.5"/><rect class="cls-3" x="11" y="47" width="653" height="30"/><line class="cls-4" x1="11" y1="46.5" x2="664" y2="46.5"/><rect class="cls-3" x="11" y="22" width="653" height="24"/><path class="cls-5" d="M27.71,30.93a3.18,3.18,0,0,1,2.37.9A3.63,3.63,0,0,1,31,34.48a3.74,3.74,0,0,1-.88,2.67,3.09,3.09,0,0,1-2.35.92H24.85V30.93ZM27.57,37a2.07,2.07,0,0,0,1.58-.59,2.62,2.62,0,0,0,.57-1.86,2.79,2.79,0,0,0-.58-2A2.34,2.34,0,0,0,27.36,32H26.1v5Z"/><path class="cls-5" d="M36.83,38.07l-.62-1.82h-3l-.62,1.82H31.36l2.57-7.13h1.69l2.52,7.13Zm-2.07-6.21h0L33.57,35.3H35.9Z"/><path class="cls-5" d="M43.53,30.93V32H41.26v6.08H40V32H37.74V30.93Z"/><path class="cls-5" d="M49.73,30.94V32H45.79v1.9h3.64v1H45.79V37h4v1H44.54V30.94Z"/><path class="cls-5" d="M190.89,30.93V32h-2.27v6.08h-1.25V32h-2.27V30.93Z"/><path class="cls-5" d="M193.16,30.93v7.14h-1.25V30.93Z"/><path class="cls-5" d="M201.28,38.07V32.34h0l-2,5.73h-1.08l-2-5.7h0v5.7h-1.18V30.94h1.83l2,5.56h0l1.91-5.56h1.82v7.13Z"/><path class="cls-5" d="M209.4,30.94V32h-3.94v1.9h3.64v1h-3.64V37h4v1h-5.25V30.94Z"/><path class="cls-5" d="M348.37,34.52a3.85,3.85,0,0,1-.95,2.66,3.21,3.21,0,0,1-2.51,1.05,3.63,3.63,0,0,1-1.36-.24,3.21,3.21,0,0,1-1.1-.75A3.36,3.36,0,0,1,341.7,36a4.46,4.46,0,0,1-.25-1.51,3.9,3.9,0,0,1,.95-2.7,3.21,3.21,0,0,1,2.51-1.05,3.68,3.68,0,0,1,1.37.25,3,3,0,0,1,1.1.76,3.34,3.34,0,0,1,.74,1.24A4.73,4.73,0,0,1,348.37,34.52Zm-1.25,0a3.07,3.07,0,0,0-.59-2,2.14,2.14,0,0,0-3.25,0,3.08,3.08,0,0,0-.58,2,3,3,0,0,0,.58,1.91,2.16,2.16,0,0,0,3.26,0A3,3,0,0,0,347.12,34.52Z"/><path class="cls-5" d="M355.58,36a2,2,0,0,1-.19.89,1.79,1.79,0,0,1-.52.64,2.33,2.33,0,0,1-.79.39,3.56,3.56,0,0,1-1,.13h-3.35V30.93H353a3.9,3.9,0,0,1,.93.1,1.94,1.94,0,0,1,.7.31,1.39,1.39,0,0,1,.45.55,1.87,1.87,0,0,1,.16.8,1.57,1.57,0,0,1-.28.94,1.69,1.69,0,0,1-.79.58h0a2.13,2.13,0,0,1,.61.25,1.52,1.52,0,0,1,.43.4,1.7,1.7,0,0,1,.25.52A2.16,2.16,0,0,1,355.58,36Zm-1.53-3.09a.9.9,0,0,0-.32-.76,1.52,1.52,0,0,0-.93-.24H351v2h1.89a1.64,1.64,0,0,0,.45-.06,1.09,1.09,0,0,0,.37-.18.86.86,0,0,0,.25-.3A1.07,1.07,0,0,0,354.05,32.93Zm.28,3a1,1,0,0,0-.35-.86,1.58,1.58,0,0,0-1-.29h-2v2.28h2a1.63,1.63,0,0,0,1-.28A1,1,0,0,0,354.33,36Z"/><path class="cls-5" d="M360.94,30.93v5a2.25,2.25,0,0,1-.63,1.76,2.34,2.34,0,0,1-1.64.51,2.7,2.7,0,0,1-.91-.15,1.86,1.86,0,0,1-1.15-1.14,2.76,2.76,0,0,1-.16-1v-.43h1.15v.19a2.88,2.88,0,0,0,.08.72.89.89,0,0,0,1,.73,1,1,0,0,0,.77-.28,1.73,1.73,0,0,0,.24-1.07V30.93Z"/><path class="cls-5" d="M367.88,30.94V32h-3.94v1.9h3.64v1h-3.64V37h4v1H362.7V30.94Z"/><path class="cls-5" d="M372.26,30.78a3.72,3.72,0,0,1,1.1.15,2.87,2.87,0,0,1,.89.44,2.45,2.45,0,0,1,.64.71,2.67,2.67,0,0,1,.34.95H374a1.58,1.58,0,0,0-.21-.47,1.51,1.51,0,0,0-.37-.38,1.86,1.86,0,0,0-.52-.26,2.15,2.15,0,0,0-.65-.09,2,2,0,0,0-1.68.82,2.62,2.62,0,0,0-.42.86,3.74,3.74,0,0,0-.14,1,3.69,3.69,0,0,0,.13,1,2.55,2.55,0,0,0,.4.85,2,2,0,0,0,1.7.83,2,2,0,0,0,.71-.12,1.66,1.66,0,0,0,.55-.33,1.69,1.69,0,0,0,.38-.51,2.22,2.22,0,0,0,.2-.65h1.22a3.51,3.51,0,0,1-.29,1A2.66,2.66,0,0,1,373.48,38a3.45,3.45,0,0,1-1.24.21,3.55,3.55,0,0,1-1.43-.28,3.21,3.21,0,0,1-1.1-.78A3.42,3.42,0,0,1,369,36a4.35,4.35,0,0,1-.24-1.48,4.44,4.44,0,0,1,.23-1.43,3.54,3.54,0,0,1,.67-1.19,3.18,3.18,0,0,1,1.09-.82A3.5,3.5,0,0,1,372.26,30.78Z"/><path class="cls-5" d="M381.71,30.93V32h-2.27v6.08H378.2V32h-2.27V30.93Z"/><path class="cls-5" d="M390.61,30.93V32h-2.27v6.08H387.1V32h-2.27V30.93Z"/><path class="cls-5" d="M396.81,30.94V32h-3.94v1.9h3.64v1h-3.64V37h4v1h-5.25V30.94Z"/><path class="cls-5" d="M399.22,30.93l1.62,2.53,1.68-2.53h1.38l-2.34,3.43,2.52,3.71h-1.49l-1.78-2.71L399,38.07h-1.41l2.52-3.72-2.34-3.42Z"/><path class="cls-5" d="M410.33,30.93V32h-2.27v6.08h-1.25V32h-2.27V30.93Z"/><path class="cls-5" d="M563.36,30.93l1.86,5.73h0l1.86-5.73h1.3l-2.47,7.14H564.5l-2.44-7.14Z"/><path class="cls-5" d="M573.64,38.07,573,36.25h-3l-.62,1.82h-1.27l2.57-7.13h1.69l2.52,7.13Zm-2.07-6.21h0l-1.17,3.44h2.33Z"/><path class="cls-5" d="M577.19,30.93V37h3.67v1.05h-4.92V30.93Z"/><path class="cls-5" d="M583,30.93v4.48a1.89,1.89,0,0,0,.41,1.33,1.68,1.68,0,0,0,1.29.44,1.73,1.73,0,0,0,1.29-.42,1.86,1.86,0,0,0,.41-1.34V30.93h1.25v4.53a2.74,2.74,0,0,1-.75,2,3,3,0,0,1-2.2.75A4,4,0,0,1,583.4,38a2.33,2.33,0,0,1-1.5-1.46,3.37,3.37,0,0,1-.18-1.13V30.93Z"/><path class="cls-5" d="M594.52,30.94V32h-3.94v1.9h3.64v1h-3.64V37h4v1h-5.25V30.94Z"/><path class="cls-5" d="M27.63,57.49a2.81,2.81,0,0,1,2,.66,2.28,2.28,0,0,1,.73,1.78,2.82,2.82,0,0,1-.55,1.66,7,7,0,0,1-2,1.66,8.29,8.29,0,0,0-1.66,1.23,2,2,0,0,0-.56,1h4.81v.72h-5.7a3,3,0,0,1,.56-1.74,6.61,6.61,0,0,1,1.93-1.66A8.78,8.78,0,0,0,29,61.32a2.11,2.11,0,0,0,.51-1.41A1.64,1.64,0,0,0,29,58.63a2,2,0,0,0-1.4-.49,2,2,0,0,0-.86.17,1.82,1.82,0,0,0-.61.44,1.77,1.77,0,0,0-.36.62,2.2,2.2,0,0,0-.12.71v.17h-.77v-.12a2.93,2.93,0,0,1,.17-1,2.42,2.42,0,0,1,.51-.84,2.47,2.47,0,0,1,.86-.59A3.06,3.06,0,0,1,27.63,57.49Z"/><path class="cls-5" d="M34.89,57.49a2.87,2.87,0,0,1,1.32.29,2.48,2.48,0,0,1,.94.85A4.14,4.14,0,0,1,37.72,60a8.64,8.64,0,0,1,.19,1.92,5.94,5.94,0,0,1-.77,3.35,2.82,2.82,0,0,1-4.49,0,5.89,5.89,0,0,1-.77-3.34,5.89,5.89,0,0,1,.77-3.35A2.56,2.56,0,0,1,34.89,57.49Zm-2.23,4.45q0,3.81,2.23,3.81t2.24-3.81a5.64,5.64,0,0,0-.57-2.84,1.84,1.84,0,0,0-1.68-1,1.82,1.82,0,0,0-1.65.94A5.63,5.63,0,0,0,32.66,61.93Z"/><path class="cls-5" d="M42.23,66.21V59.78H39.94v-.56q.53,0,.9-.06a2.36,2.36,0,0,0,.57-.13,1.3,1.3,0,0,0,.64-.52,2.46,2.46,0,0,0,.31-1H43v8.65Z"/><path class="cls-5" d="M51.86,57.66v.72H48.08l-.54,2.78,0,0a2.32,2.32,0,0,1,.82-.52,2.79,2.79,0,0,1,1-.18,3.18,3.18,0,0,1,1.2.22,2.6,2.6,0,0,1,.92.61,2.73,2.73,0,0,1,.59.94,3.43,3.43,0,0,1,.21,1.22A2.81,2.81,0,0,1,52,64.61a2.94,2.94,0,0,1-1.61,1.56,3.12,3.12,0,0,1-1.2.23,3.29,3.29,0,0,1-1.1-.17,2.59,2.59,0,0,1-.85-.48,2.26,2.26,0,0,1-.56-.74,2.52,2.52,0,0,1-.23-1h.79a1.84,1.84,0,0,0,.16.64,1.65,1.65,0,0,0,.4.54,2,2,0,0,0,.62.37,2.29,2.29,0,0,0,.83.14,2.06,2.06,0,0,0,.87-.18,2.14,2.14,0,0,0,.7-.5,2.4,2.4,0,0,0,.46-.75,2.49,2.49,0,0,0,.17-.92,2.41,2.41,0,0,0-.16-.86,2.12,2.12,0,0,0-1.14-1.2,2.2,2.2,0,0,0-.91-.18,2.55,2.55,0,0,0-1.07.23,2.22,2.22,0,0,0-.85.68h-.66l.81-4.38Z"/><path class="cls-5" d="M56.78,62.37v.7h-3v-.7Z"/><path class="cls-5" d="M61.13,57.49a2.87,2.87,0,0,1,1.32.29,2.48,2.48,0,0,1,.94.85A4.14,4.14,0,0,1,64,60a8.64,8.64,0,0,1,.19,1.92,5.94,5.94,0,0,1-.77,3.35,2.82,2.82,0,0,1-4.49,0,5.89,5.89,0,0,1-.77-3.34,5.89,5.89,0,0,1,.77-3.35A2.56,2.56,0,0,1,61.13,57.49ZM58.9,61.93q0,3.81,2.23,3.81t2.24-3.81a5.64,5.64,0,0,0-.57-2.84,1.84,1.84,0,0,0-1.68-1,1.82,1.82,0,0,0-1.65.94A5.63,5.63,0,0,0,58.9,61.93Z"/><path class="cls-5" d="M71.4,63.79a2.36,2.36,0,0,1-.83,1.91,3.22,3.22,0,0,1-2.16.7,3.18,3.18,0,0,1-2.16-.71,2.52,2.52,0,0,1-.7-2.64,2.28,2.28,0,0,1,.35-.67,2.18,2.18,0,0,1,1.28-.81v0a2.05,2.05,0,0,1-1.06-.72,2,2,0,0,1-.35-1.18,1.9,1.9,0,0,1,.76-1.57,2.91,2.91,0,0,1,1.86-.59,3,3,0,0,1,1.88.59A1.88,1.88,0,0,1,71,59.65a2.2,2.2,0,0,1-.09.65,1.81,1.81,0,0,1-.72,1,2.1,2.1,0,0,1-.6.28v0a2.18,2.18,0,0,1,1.32.76A2.29,2.29,0,0,1,71.4,63.79Zm-.78,0A1.75,1.75,0,0,0,70,62.44a2.78,2.78,0,0,0-3.24,0,1.76,1.76,0,0,0-.57,1.37,1.79,1.79,0,0,0,.6,1.42,2.7,2.7,0,0,0,3.2,0A1.79,1.79,0,0,0,70.62,63.79Zm-.36-4.14a1.35,1.35,0,0,0-.5-1.1,2.37,2.37,0,0,0-2.67,0,1.3,1.3,0,0,0-.53,1.09,1.48,1.48,0,0,0,.49,1.18,2,2,0,0,0,1.32.43,2,2,0,0,0,1.41-.45A1.52,1.52,0,0,0,70.25,59.65Z"/><path class="cls-5" d="M75.76,62.37v.7h-3v-.7Z"/><path class="cls-5" d="M80.11,57.49a2.81,2.81,0,0,1,2,.66,2.28,2.28,0,0,1,.73,1.78,2.82,2.82,0,0,1-.55,1.66,7,7,0,0,1-2,1.66,8.29,8.29,0,0,0-1.66,1.23,2,2,0,0,0-.56,1h4.81v.72h-5.7a3,3,0,0,1,.56-1.74,6.61,6.61,0,0,1,1.93-1.66,8.78,8.78,0,0,0,1.89-1.48A2.11,2.11,0,0,0,82,59.91a1.64,1.64,0,0,0-.54-1.28,2,2,0,0,0-1.4-.49,2,2,0,0,0-.86.17,1.82,1.82,0,0,0-.61.44,1.77,1.77,0,0,0-.36.62,2.2,2.2,0,0,0-.12.71v.17h-.77v-.12a2.93,2.93,0,0,1,.17-1A2.42,2.42,0,0,1,78,58.3a2.47,2.47,0,0,1,.86-.59A3.06,3.06,0,0,1,80.11,57.49Z"/><path class="cls-5" d="M89,64.06v2.15h-.71V64.06h-4v-.75l4-5.75H89V63.4h1.3v.66Zm-.71-5.36h0L85,63.4h3.29Z"/><path class="cls-5" d="M27.63,88.49a2.81,2.81,0,0,1,2,.66,2.28,2.28,0,0,1,.73,1.78,2.82,2.82,0,0,1-.55,1.66,7,7,0,0,1-2,1.66,8.29,8.29,0,0,0-1.66,1.23,2,2,0,0,0-.56,1h4.81v.72h-5.7a3,3,0,0,1,.56-1.74,6.61,6.61,0,0,1,1.93-1.66A8.78,8.78,0,0,0,29,92.32a2.11,2.11,0,0,0,.51-1.41A1.64,1.64,0,0,0,29,89.63a2,2,0,0,0-1.4-.49,2,2,0,0,0-.86.17,1.82,1.82,0,0,0-.61.44,1.77,1.77,0,0,0-.36.62,2.2,2.2,0,0,0-.12.71v.17h-.77v-.12a2.93,2.93,0,0,1,.17-1,2.42,2.42,0,0,1,.51-.84,2.47,2.47,0,0,1,.86-.59A3.06,3.06,0,0,1,27.63,88.49Z"/><path class="cls-5" d="M34.89,88.49a2.87,2.87,0,0,1,1.32.29,2.48,2.48,0,0,1,.94.85A4.14,4.14,0,0,1,37.72,91a8.64,8.64,0,0,1,.19,1.92,5.94,5.94,0,0,1-.77,3.35,2.82,2.82,0,0,1-4.49,0,7.62,7.62,0,0,1,0-6.69A2.56,2.56,0,0,1,34.89,88.49Zm-2.23,4.45q0,3.81,2.23,3.81t2.24-3.81a5.64,5.64,0,0,0-.57-2.84,1.84,1.84,0,0,0-1.68-1,1.82,1.82,0,0,0-1.65.94A5.63,5.63,0,0,0,32.66,92.93Z"/><path class="cls-5" d="M42.23,97.21V90.78H39.94v-.56q.53,0,.9-.06a2.36,2.36,0,0,0,.57-.13,1.3,1.3,0,0,0,.64-.52,2.46,2.46,0,0,0,.31-1H43v8.65Z"/><path class="cls-5" d="M51.86,88.66v.72H48.08l-.54,2.78,0,0a2.32,2.32,0,0,1,.82-.52,2.79,2.79,0,0,1,1-.18,3.18,3.18,0,0,1,1.2.22,2.6,2.6,0,0,1,.92.61,2.73,2.73,0,0,1,.59.94,3.43,3.43,0,0,1,.21,1.22A2.81,2.81,0,0,1,52,95.61a2.94,2.94,0,0,1-1.61,1.56,3.12,3.12,0,0,1-1.2.23,3.29,3.29,0,0,1-1.1-.17,2.59,2.59,0,0,1-.85-.48,2.26,2.26,0,0,1-.56-.74,2.52,2.52,0,0,1-.23-1h.79a1.84,1.84,0,0,0,.16.64,1.65,1.65,0,0,0,.4.54,2,2,0,0,0,.62.37,2.29,2.29,0,0,0,.83.14,2.06,2.06,0,0,0,.87-.18,2.14,2.14,0,0,0,.7-.5,2.4,2.4,0,0,0,.46-.75,2.49,2.49,0,0,0,.17-.92,2.41,2.41,0,0,0-.16-.86,2.12,2.12,0,0,0-1.14-1.2,2.2,2.2,0,0,0-.91-.18,2.55,2.55,0,0,0-1.07.23,2.22,2.22,0,0,0-.85.68h-.66l.81-4.38Z"/><path class="cls-5" d="M56.78,93.37v.7h-3v-.7Z"/><path class="cls-5" d="M61.13,88.49a2.87,2.87,0,0,1,1.32.29,2.48,2.48,0,0,1,.94.85A4.14,4.14,0,0,1,64,91a8.64,8.64,0,0,1,.19,1.92,5.94,5.94,0,0,1-.77,3.35,2.82,2.82,0,0,1-4.49,0,7.62,7.62,0,0,1,0-6.69A2.56,2.56,0,0,1,61.13,88.49ZM58.9,92.93q0,3.81,2.23,3.81t2.24-3.81a5.64,5.64,0,0,0-.57-2.84,1.84,1.84,0,0,0-1.68-1,1.82,1.82,0,0,0-1.65.94A5.63,5.63,0,0,0,58.9,92.93Z"/><path class="cls-5" d="M71.4,94.79a2.36,2.36,0,0,1-.83,1.91,3.22,3.22,0,0,1-2.16.7,3.18,3.18,0,0,1-2.16-.71,2.52,2.52,0,0,1-.7-2.64,2.28,2.28,0,0,1,.35-.67,2.18,2.18,0,0,1,1.28-.81v0a2.05,2.05,0,0,1-1.06-.72,2,2,0,0,1-.35-1.18,1.9,1.9,0,0,1,.76-1.57,2.91,2.91,0,0,1,1.86-.59,3,3,0,0,1,1.88.59A1.88,1.88,0,0,1,71,90.65a2.2,2.2,0,0,1-.09.65,1.81,1.81,0,0,1-.72,1,2.1,2.1,0,0,1-.6.28v0a2.18,2.18,0,0,1,1.32.76A2.29,2.29,0,0,1,71.4,94.79Zm-.78,0A1.75,1.75,0,0,0,70,93.44a2.78,2.78,0,0,0-3.24,0,1.76,1.76,0,0,0-.57,1.37,1.79,1.79,0,0,0,.6,1.42,2.7,2.7,0,0,0,3.2,0A1.79,1.79,0,0,0,70.62,94.79Zm-.36-4.14a1.35,1.35,0,0,0-.5-1.1,2.37,2.37,0,0,0-2.67,0,1.3,1.3,0,0,0-.53,1.09,1.48,1.48,0,0,0,.49,1.18,2,2,0,0,0,1.32.43,2,2,0,0,0,1.41-.45A1.52,1.52,0,0,0,70.25,90.65Z"/><path class="cls-5" d="M75.76,93.37v.7h-3v-.7Z"/><path class="cls-5" d="M80.11,88.49a2.81,2.81,0,0,1,2,.66,2.28,2.28,0,0,1,.73,1.78,2.82,2.82,0,0,1-.55,1.66,7,7,0,0,1-2,1.66,8.29,8.29,0,0,0-1.66,1.23,2,2,0,0,0-.56,1h4.81v.72h-5.7a3,3,0,0,1,.56-1.74,6.61,6.61,0,0,1,1.93-1.66,8.78,8.78,0,0,0,1.89-1.48A2.11,2.11,0,0,0,82,90.91a1.64,1.64,0,0,0-.54-1.28,2,2,0,0,0-1.4-.49,2,2,0,0,0-.86.17,1.82,1.82,0,0,0-.61.44,1.77,1.77,0,0,0-.36.62,2.2,2.2,0,0,0-.12.71v.17h-.77v-.12a2.93,2.93,0,0,1,.17-1A2.42,2.42,0,0,1,78,89.3a2.47,2.47,0,0,1,.86-.59A3.06,3.06,0,0,1,80.11,88.49Z"/><path class="cls-5" d="M89,95.06v2.15h-.71V95.06h-4v-.75l4-5.75H89V94.4h1.3v.66Zm-.71-5.36h0L85,94.4h3.29Z"/><path class="cls-5" d="M27.63,119.49a2.81,2.81,0,0,1,2,.66,2.28,2.28,0,0,1,.73,1.78,2.82,2.82,0,0,1-.55,1.66,7,7,0,0,1-2,1.66,8.29,8.29,0,0,0-1.66,1.23,2,2,0,0,0-.56,1h4.81v.72h-5.7a3,3,0,0,1,.56-1.74,6.61,6.61,0,0,1,1.93-1.66A8.78,8.78,0,0,0,29,123.32a2.11,2.11,0,0,0,.51-1.41,1.64,1.64,0,0,0-.54-1.28,2,2,0,0,0-1.4-.49,2,2,0,0,0-.86.17,1.82,1.82,0,0,0-.61.44,1.77,1.77,0,0,0-.36.62,2.2,2.2,0,0,0-.12.71v.17h-.77v-.12a2.93,2.93,0,0,1,.17-1,2.42,2.42,0,0,1,.51-.84,2.47,2.47,0,0,1,.86-.59A3.06,3.06,0,0,1,27.63,119.49Z"/><path class="cls-5" d="M34.89,119.49a2.87,2.87,0,0,1,1.32.29,2.48,2.48,0,0,1,.94.85,4.14,4.14,0,0,1,.57,1.39,8.64,8.64,0,0,1,.19,1.92,5.94,5.94,0,0,1-.77,3.35,2.82,2.82,0,0,1-4.49,0,7.62,7.62,0,0,1,0-6.69A2.56,2.56,0,0,1,34.89,119.49Zm-2.23,4.45q0,3.81,2.23,3.81t2.24-3.81a5.64,5.64,0,0,0-.57-2.84,1.84,1.84,0,0,0-1.68-1,1.82,1.82,0,0,0-1.65.94A5.63,5.63,0,0,0,32.66,123.93Z"/><path class="cls-5" d="M42.23,128.21v-6.43H39.94v-.56q.53,0,.9-.06a2.36,2.36,0,0,0,.57-.13,1.3,1.3,0,0,0,.64-.52,2.46,2.46,0,0,0,.31-1H43v8.65Z"/><path class="cls-5" d="M51.86,119.66v.72H48.08l-.54,2.78,0,0a2.32,2.32,0,0,1,.82-.52,2.79,2.79,0,0,1,1-.18,3.18,3.18,0,0,1,1.2.22,2.6,2.6,0,0,1,.92.61,2.73,2.73,0,0,1,.59.94,3.43,3.43,0,0,1,.21,1.22,2.81,2.81,0,0,1-.23,1.14,2.94,2.94,0,0,1-1.61,1.56,3.12,3.12,0,0,1-1.2.23,3.29,3.29,0,0,1-1.1-.17,2.59,2.59,0,0,1-.85-.48,2.26,2.26,0,0,1-.56-.74,2.52,2.52,0,0,1-.23-1h.79a1.84,1.84,0,0,0,.16.64,1.65,1.65,0,0,0,.4.54,2,2,0,0,0,.62.37,2.29,2.29,0,0,0,.83.14,2.06,2.06,0,0,0,.87-.18,2.14,2.14,0,0,0,.7-.5,2.4,2.4,0,0,0,.46-.75,2.49,2.49,0,0,0,.17-.92,2.41,2.41,0,0,0-.16-.86,2.12,2.12,0,0,0-1.14-1.2,2.2,2.2,0,0,0-.91-.18,2.55,2.55,0,0,0-1.07.23,2.22,2.22,0,0,0-.85.68h-.66l.81-4.38Z"/><path class="cls-5" d="M56.78,124.37v.7h-3v-.7Z"/><path class="cls-5" d="M61.13,119.49a2.87,2.87,0,0,1,1.32.29,2.48,2.48,0,0,1,.94.85A4.14,4.14,0,0,1,64,122a8.64,8.64,0,0,1,.19,1.92,5.94,5.94,0,0,1-.77,3.35,2.82,2.82,0,0,1-4.49,0,7.62,7.62,0,0,1,0-6.69A2.56,2.56,0,0,1,61.13,119.49Zm-2.23,4.45q0,3.81,2.23,3.81t2.24-3.81a5.64,5.64,0,0,0-.57-2.84,1.84,1.84,0,0,0-1.68-1,1.82,1.82,0,0,0-1.65.94A5.63,5.63,0,0,0,58.9,123.93Z"/><path class="cls-5" d="M71.4,125.79a2.36,2.36,0,0,1-.83,1.91,3.22,3.22,0,0,1-2.16.7,3.18,3.18,0,0,1-2.16-.71,2.52,2.52,0,0,1-.7-2.64,2.28,2.28,0,0,1,.35-.67,2.18,2.18,0,0,1,1.28-.81v0a2.05,2.05,0,0,1-1.06-.72,2,2,0,0,1-.35-1.18,1.9,1.9,0,0,1,.76-1.57,2.91,2.91,0,0,1,1.86-.59,3,3,0,0,1,1.88.59,1.88,1.88,0,0,1,.76,1.57,2.2,2.2,0,0,1-.09.65,1.81,1.81,0,0,1-.72,1,2.1,2.1,0,0,1-.6.28v0a2.18,2.18,0,0,1,1.32.76A2.29,2.29,0,0,1,71.4,125.79Zm-.78,0a1.75,1.75,0,0,0-.59-1.35,2.78,2.78,0,0,0-3.24,0,1.76,1.76,0,0,0-.57,1.37,1.79,1.79,0,0,0,.6,1.42,2.7,2.7,0,0,0,3.2,0A1.79,1.79,0,0,0,70.62,125.79Zm-.36-4.14a1.35,1.35,0,0,0-.5-1.1,2.37,2.37,0,0,0-2.67,0,1.3,1.3,0,0,0-.53,1.09,1.48,1.48,0,0,0,.49,1.18,2,2,0,0,0,1.32.43,2,2,0,0,0,1.41-.45A1.52,1.52,0,0,0,70.25,121.65Z"/><path class="cls-5" d="M75.76,124.37v.7h-3v-.7Z"/><path class="cls-5" d="M80.11,119.49a2.81,2.81,0,0,1,2,.66,2.28,2.28,0,0,1,.73,1.78,2.82,2.82,0,0,1-.55,1.66,7,7,0,0,1-2,1.66,8.29,8.29,0,0,0-1.66,1.23,2,2,0,0,0-.56,1h4.81v.72h-5.7a3,3,0,0,1,.56-1.74,6.61,6.61,0,0,1,1.93-1.66,8.78,8.78,0,0,0,1.89-1.48,2.11,2.11,0,0,0,.51-1.41,1.64,1.64,0,0,0-.54-1.28,2,2,0,0,0-1.4-.49,2,2,0,0,0-.86.17,1.82,1.82,0,0,0-.61.44,1.77,1.77,0,0,0-.36.62,2.2,2.2,0,0,0-.12.71v.17h-.77v-.12a2.93,2.93,0,0,1,.17-1,2.42,2.42,0,0,1,.51-.84,2.47,2.47,0,0,1,.86-.59A3.06,3.06,0,0,1,80.11,119.49Z"/><path class="cls-5" d="M89,126.06v2.15h-.71v-2.15h-4v-.75l4-5.75H89v5.85h1.3v.66Zm-.71-5.36h0L85,125.4h3.29Z"/><path class="cls-5" d="M27.63,150.49a2.81,2.81,0,0,1,2,.66,2.28,2.28,0,0,1,.73,1.78,2.82,2.82,0,0,1-.55,1.66,7,7,0,0,1-2,1.66,8.29,8.29,0,0,0-1.66,1.23,2,2,0,0,0-.56,1h4.81v.72h-5.7a3,3,0,0,1,.56-1.74,6.61,6.61,0,0,1,1.93-1.66A8.78,8.78,0,0,0,29,154.32a2.11,2.11,0,0,0,.51-1.41,1.64,1.64,0,0,0-.54-1.28,2,2,0,0,0-1.4-.49,2,2,0,0,0-.86.17,1.82,1.82,0,0,0-.61.44,1.77,1.77,0,0,0-.36.62,2.2,2.2,0,0,0-.12.71v.17h-.77v-.12a2.93,2.93,0,0,1,.17-1,2.42,2.42,0,0,1,.51-.84,2.47,2.47,0,0,1,.86-.59A3.06,3.06,0,0,1,27.63,150.49Z"/><path class="cls-5" d="M34.89,150.49a2.87,2.87,0,0,1,1.32.29,2.48,2.48,0,0,1,.94.85,4.14,4.14,0,0,1,.57,1.39,8.64,8.64,0,0,1,.19,1.92,5.94,5.94,0,0,1-.77,3.35,2.82,2.82,0,0,1-4.49,0,7.62,7.62,0,0,1,0-6.69A2.56,2.56,0,0,1,34.89,150.49Zm-2.23,4.45q0,3.81,2.23,3.81t2.24-3.81a5.64,5.64,0,0,0-.57-2.84,1.84,1.84,0,0,0-1.68-1,1.82,1.82,0,0,0-1.65.94A5.63,5.63,0,0,0,32.66,154.93Z"/><path class="cls-5" d="M42.23,159.21v-6.43H39.94v-.56q.53,0,.9-.06a2.36,2.36,0,0,0,.57-.13,1.3,1.3,0,0,0,.64-.52,2.46,2.46,0,0,0,.31-1H43v8.65Z"/><path class="cls-5" d="M51.86,150.66v.72H48.08l-.54,2.78,0,0a2.32,2.32,0,0,1,.82-.52,2.79,2.79,0,0,1,1-.18,3.18,3.18,0,0,1,1.2.22,2.6,2.6,0,0,1,.92.61,2.73,2.73,0,0,1,.59.94,3.43,3.43,0,0,1,.21,1.22,2.81,2.81,0,0,1-.23,1.14,2.94,2.94,0,0,1-1.61,1.56,3.12,3.12,0,0,1-1.2.23,3.29,3.29,0,0,1-1.1-.17,2.59,2.59,0,0,1-.85-.48,2.26,2.26,0,0,1-.56-.74,2.52,2.52,0,0,1-.23-1h.79a1.84,1.84,0,0,0,.16.64,1.65,1.65,0,0,0,.4.54,2,2,0,0,0,.62.37,2.29,2.29,0,0,0,.83.14,2.06,2.06,0,0,0,.87-.18,2.14,2.14,0,0,0,.7-.5,2.4,2.4,0,0,0,.46-.75,2.49,2.49,0,0,0,.17-.92,2.41,2.41,0,0,0-.16-.86,2.12,2.12,0,0,0-1.14-1.2,2.2,2.2,0,0,0-.91-.18,2.55,2.55,0,0,0-1.07.23,2.22,2.22,0,0,0-.85.68h-.66l.81-4.38Z"/><path class="cls-5" d="M56.78,155.37v.7h-3v-.7Z"/><path class="cls-5" d="M61.13,150.49a2.87,2.87,0,0,1,1.32.29,2.48,2.48,0,0,1,.94.85A4.14,4.14,0,0,1,64,153a8.64,8.64,0,0,1,.19,1.92,5.94,5.94,0,0,1-.77,3.35,2.82,2.82,0,0,1-4.49,0,7.62,7.62,0,0,1,0-6.69A2.56,2.56,0,0,1,61.13,150.49Zm-2.23,4.45q0,3.81,2.23,3.81t2.24-3.81a5.64,5.64,0,0,0-.57-2.84,1.84,1.84,0,0,0-1.68-1,1.82,1.82,0,0,0-1.65.94A5.63,5.63,0,0,0,58.9,154.93Z"/><path class="cls-5" d="M71.4,156.79a2.36,2.36,0,0,1-.83,1.91,3.22,3.22,0,0,1-2.16.7,3.18,3.18,0,0,1-2.16-.71,2.52,2.52,0,0,1-.7-2.64,2.28,2.28,0,0,1,.35-.67,2.18,2.18,0,0,1,1.28-.81v0a2.05,2.05,0,0,1-1.06-.72,2,2,0,0,1-.35-1.18,1.9,1.9,0,0,1,.76-1.57,2.91,2.91,0,0,1,1.86-.59,3,3,0,0,1,1.88.59,1.88,1.88,0,0,1,.76,1.57,2.2,2.2,0,0,1-.09.65,1.81,1.81,0,0,1-.72,1,2.1,2.1,0,0,1-.6.28v0a2.18,2.18,0,0,1,1.32.76A2.29,2.29,0,0,1,71.4,156.79Zm-.78,0a1.75,1.75,0,0,0-.59-1.35,2.78,2.78,0,0,0-3.24,0,1.76,1.76,0,0,0-.57,1.37,1.79,1.79,0,0,0,.6,1.42,2.7,2.7,0,0,0,3.2,0A1.79,1.79,0,0,0,70.62,156.79Zm-.36-4.14a1.35,1.35,0,0,0-.5-1.1,2.37,2.37,0,0,0-2.67,0,1.3,1.3,0,0,0-.53,1.09,1.48,1.48,0,0,0,.49,1.18,2,2,0,0,0,1.32.43,2,2,0,0,0,1.41-.45A1.52,1.52,0,0,0,70.25,152.65Z"/><path class="cls-5" d="M75.76,155.37v.7h-3v-.7Z"/><path class="cls-5" d="M80.11,150.49a2.81,2.81,0,0,1,2,.66,2.28,2.28,0,0,1,.73,1.78,2.82,2.82,0,0,1-.55,1.66,7,7,0,0,1-2,1.66,8.29,8.29,0,0,0-1.66,1.23,2,2,0,0,0-.56,1h4.81v.72h-5.7a3,3,0,0,1,.56-1.74,6.61,6.61,0,0,1,1.93-1.66,8.78,8.78,0,0,0,1.89-1.48,2.11,2.11,0,0,0,.51-1.41,1.64,1.64,0,0,0-.54-1.28,2,2,0,0,0-1.4-.49,2,2,0,0,0-.86.17,1.82,1.82,0,0,0-.61.44,1.77,1.77,0,0,0-.36.62,2.2,2.2,0,0,0-.12.71v.17h-.77v-.12a2.93,2.93,0,0,1,.17-1,2.42,2.42,0,0,1,.51-.84,2.47,2.47,0,0,1,.86-.59A3.06,3.06,0,0,1,80.11,150.49Z"/><path class="cls-5" d="M89,157.06v2.15h-.71v-2.15h-4v-.75l4-5.75H89v5.85h1.3v.66Zm-.71-5.36h0L85,156.4h3.29Z"/><path class="cls-5" d="M188.63,57.49a2.87,2.87,0,0,1,1.32.29,2.48,2.48,0,0,1,.94.85,4.14,4.14,0,0,1,.57,1.39,8.64,8.64,0,0,1,.19,1.92,5.94,5.94,0,0,1-.77,3.35,2.82,2.82,0,0,1-4.49,0,5.89,5.89,0,0,1-.77-3.34,5.89,5.89,0,0,1,.77-3.35A2.56,2.56,0,0,1,188.63,57.49Zm-2.23,4.45q0,3.81,2.23,3.81t2.24-3.81a5.64,5.64,0,0,0-.57-2.84,1.84,1.84,0,0,0-1.68-1,1.82,1.82,0,0,0-1.65.94A5.63,5.63,0,0,0,186.39,61.93Z"/><path class="cls-5" d="M198.89,63.79a2.36,2.36,0,0,1-.83,1.91,3.22,3.22,0,0,1-2.16.7,3.18,3.18,0,0,1-2.16-.71,2.52,2.52,0,0,1-.7-2.64,2.28,2.28,0,0,1,.35-.67,2.18,2.18,0,0,1,1.28-.81v0a2.05,2.05,0,0,1-1.06-.72,2,2,0,0,1-.35-1.18,1.9,1.9,0,0,1,.76-1.57,2.91,2.91,0,0,1,1.86-.59,3,3,0,0,1,1.88.59,1.88,1.88,0,0,1,.76,1.57,2.2,2.2,0,0,1-.09.65,1.81,1.81,0,0,1-.72,1,2.1,2.1,0,0,1-.6.28v0a2.18,2.18,0,0,1,1.32.76A2.29,2.29,0,0,1,198.89,63.79Zm-.78,0a1.75,1.75,0,0,0-.59-1.35,2.78,2.78,0,0,0-3.24,0,1.76,1.76,0,0,0-.57,1.37,1.79,1.79,0,0,0,.6,1.42,2.7,2.7,0,0,0,3.2,0A1.79,1.79,0,0,0,198.11,63.79Zm-.36-4.14a1.35,1.35,0,0,0-.5-1.1,2.37,2.37,0,0,0-2.67,0,1.3,1.3,0,0,0-.53,1.09,1.48,1.48,0,0,0,.49,1.18,2,2,0,0,0,1.32.43,2,2,0,0,0,1.41-.45A1.52,1.52,0,0,0,197.75,59.65Z"/><path class="cls-5" d="M201.93,59.89v1.27h-1.11V59.89Zm0,5v1.27h-1.11V64.94Z"/><path class="cls-5" d="M208.51,64.06v2.15h-.71V64.06h-4v-.75l4-5.75h.7V63.4h1.3v.66Zm-.71-5.36h0l-3.27,4.71h3.29Z"/><path class="cls-5" d="M214.11,57.49a2.87,2.87,0,0,1,1.32.29,2.48,2.48,0,0,1,.94.85,4.14,4.14,0,0,1,.57,1.39,8.64,8.64,0,0,1,.19,1.92,5.94,5.94,0,0,1-.77,3.35,2.82,2.82,0,0,1-4.49,0,5.89,5.89,0,0,1-.77-3.34,5.89,5.89,0,0,1,.77-3.35A2.56,2.56,0,0,1,214.11,57.49Zm-2.23,4.45q0,3.81,2.23,3.81t2.24-3.81a5.64,5.64,0,0,0-.57-2.84,1.84,1.84,0,0,0-1.68-1,1.82,1.82,0,0,0-1.65.94A5.63,5.63,0,0,0,211.88,61.93Z"/><path class="cls-5" d="M220.15,59.89v1.27H219V59.89Zm0,5v1.27H219V64.94Z"/><path class="cls-5" d="M226.73,64.06v2.15H226V64.06h-4v-.75l4-5.75h.7V63.4H228v.66ZM226,58.7h0l-3.27,4.71H226Z"/><path class="cls-5" d="M232.26,57.49a3.57,3.57,0,0,1,1,.13,2.67,2.67,0,0,1,.85.41,2.08,2.08,0,0,1,.6.69,2,2,0,0,1,.23,1,2.22,2.22,0,0,1-.1.66,1.82,1.82,0,0,1-.28.56,1.77,1.77,0,0,1-.45.42,2.14,2.14,0,0,1-.62.27v0a2.06,2.06,0,0,1,1.33.74,2.21,2.21,0,0,1,.45,1.39,2.41,2.41,0,0,1-.84,1.91,2.78,2.78,0,0,1-1,.55,3.78,3.78,0,0,1-1.21.18,3.66,3.66,0,0,1-1.12-.17,2.8,2.8,0,0,1-.92-.49,2.34,2.34,0,0,1-.63-.78,2.28,2.28,0,0,1-.23-1v-.18h.79v.16a1.74,1.74,0,0,0,.56,1.28,2,2,0,0,0,.66.4,2.45,2.45,0,0,0,.88.15,2.7,2.7,0,0,0,.91-.13,2.21,2.21,0,0,0,.69-.4,1.7,1.7,0,0,0,.64-1.38,1.89,1.89,0,0,0-.14-.75,1.64,1.64,0,0,0-.42-.58,2.22,2.22,0,0,0-1.53-.5h-.64v-.66h.69a1.86,1.86,0,0,0,1.21-.42,1.42,1.42,0,0,0,.52-1.15,1.59,1.59,0,0,0-.15-.71,1.48,1.48,0,0,0-.4-.51,1.73,1.73,0,0,0-.6-.31,2.56,2.56,0,0,0-.73-.1,2.1,2.1,0,0,0-.81.15,1.8,1.8,0,0,0-.61.41,1.82,1.82,0,0,0-.39.6,2,2,0,0,0-.13.73h-.78a2.44,2.44,0,0,1,.18-.92,2.53,2.53,0,0,1,.53-.82,2.7,2.7,0,0,1,.86-.59A2.82,2.82,0,0,1,232.26,57.49Z"/><path class="cls-5" d="M238.37,64.94v1.27h-1.11V64.94Z"/><path class="cls-5" d="M243.53,57.49a3.17,3.17,0,0,1,.94.13,2.34,2.34,0,0,1,.75.38,2.14,2.14,0,0,1,.54.62,2.49,2.49,0,0,1,.3.83h-.78a1.7,1.7,0,0,0-.19-.51,1.45,1.45,0,0,0-.35-.42,1.67,1.67,0,0,0-.52-.28,2.16,2.16,0,0,0-.69-.1,2,2,0,0,0-1,.25,2.1,2.1,0,0,0-.75.75,3.82,3.82,0,0,0-.45,1.21,8,8,0,0,0-.15,1.65h0a2.58,2.58,0,0,1,2.31-1.44,2.74,2.74,0,0,1,2.05.81,2.83,2.83,0,0,1,.8,2.08,2.84,2.84,0,0,1-2.94,2.94A3.09,3.09,0,0,1,242,66.1a2.31,2.31,0,0,1-.93-.84,4.2,4.2,0,0,1-.52-1.39,10.4,10.4,0,0,1-.17-2.05,8.43,8.43,0,0,1,.07-1.06,5.56,5.56,0,0,1,.22-1,4.46,4.46,0,0,1,.4-.89,2.83,2.83,0,0,1,.6-.72,2.66,2.66,0,0,1,.82-.48A3.07,3.07,0,0,1,243.53,57.49Zm-2.23,6a2.25,2.25,0,0,0,.57,1.63,2.11,2.11,0,0,0,1.59.59,1.91,1.91,0,0,0,1.49-.66,2.26,2.26,0,0,0,.59-1.56,2.4,2.4,0,0,0-.57-1.64,1.93,1.93,0,0,0-1.52-.65,2,2,0,0,0-1.54.63A2.3,2.3,0,0,0,241.3,63.52Z"/><path class="cls-5" d="M250.55,57.49a2.81,2.81,0,0,1,2,.66,2.28,2.28,0,0,1,.73,1.78,2.82,2.82,0,0,1-.55,1.66,7,7,0,0,1-2,1.66A8.29,8.29,0,0,0,249,64.47a2,2,0,0,0-.56,1h4.81v.72h-5.7a3,3,0,0,1,.56-1.74,6.61,6.61,0,0,1,1.93-1.66,8.78,8.78,0,0,0,1.89-1.48,2.11,2.11,0,0,0,.51-1.41,1.64,1.64,0,0,0-.54-1.28,2,2,0,0,0-1.4-.49,2,2,0,0,0-.86.17,1.82,1.82,0,0,0-.61.44,1.77,1.77,0,0,0-.36.62,2.2,2.2,0,0,0-.12.71v.17h-.77v-.12a2.93,2.93,0,0,1,.17-1,2.42,2.42,0,0,1,.51-.84,2.47,2.47,0,0,1,.86-.59A3.06,3.06,0,0,1,250.55,57.49Z"/><path class="cls-5" d="M257.74,57.49a3.57,3.57,0,0,1,1,.13,2.67,2.67,0,0,1,.85.41,2.08,2.08,0,0,1,.6.69,2,2,0,0,1,.23,1,2.22,2.22,0,0,1-.1.66,1.82,1.82,0,0,1-.28.56,1.77,1.77,0,0,1-.45.42,2.14,2.14,0,0,1-.62.27v0a2.06,2.06,0,0,1,1.33.74,2.21,2.21,0,0,1,.45,1.39,2.41,2.41,0,0,1-.84,1.91,2.78,2.78,0,0,1-1,.55,3.78,3.78,0,0,1-1.21.18,3.66,3.66,0,0,1-1.12-.17,2.8,2.8,0,0,1-.92-.49,2.34,2.34,0,0,1-.63-.78,2.28,2.28,0,0,1-.23-1v-.18h.79v.16a1.74,1.74,0,0,0,.56,1.28,2,2,0,0,0,.66.4,2.45,2.45,0,0,0,.88.15,2.7,2.7,0,0,0,.91-.13,2.21,2.21,0,0,0,.69-.4,1.7,1.7,0,0,0,.64-1.38,1.89,1.89,0,0,0-.14-.75,1.64,1.64,0,0,0-.42-.58,2.22,2.22,0,0,0-1.53-.5h-.64v-.66h.69a1.86,1.86,0,0,0,1.21-.42,1.42,1.42,0,0,0,.52-1.15,1.59,1.59,0,0,0-.15-.71,1.48,1.48,0,0,0-.4-.51,1.73,1.73,0,0,0-.6-.31,2.56,2.56,0,0,0-.73-.1,2.1,2.1,0,0,0-.81.15,1.8,1.8,0,0,0-.61.41,1.82,1.82,0,0,0-.39.6,2,2,0,0,0-.13.73H255a2.44,2.44,0,0,1,.18-.92,2.53,2.53,0,0,1,.53-.82,2.7,2.7,0,0,1,.86-.59A2.82,2.82,0,0,1,257.74,57.49Z"/><path class="cls-5" d="M188.63,88.49a2.87,2.87,0,0,1,1.32.29,2.48,2.48,0,0,1,.94.85,4.14,4.14,0,0,1,.57,1.39,8.64,8.64,0,0,1,.19,1.92,5.94,5.94,0,0,1-.77,3.35,2.82,2.82,0,0,1-4.49,0,7.62,7.62,0,0,1,0-6.69A2.56,2.56,0,0,1,188.63,88.49Zm-2.23,4.45q0,3.81,2.23,3.81t2.24-3.81a5.64,5.64,0,0,0-.57-2.84,1.84,1.84,0,0,0-1.68-1,1.82,1.82,0,0,0-1.65.94A5.63,5.63,0,0,0,186.39,92.93Z"/><path class="cls-5" d="M198.67,88.66v.71a13.7,13.7,0,0,0-1.42,1.75A13.19,13.19,0,0,0,196.18,93a11.5,11.5,0,0,0-.7,2,12.2,12.2,0,0,0-.31,2.14h-.84a12.81,12.81,0,0,1,.32-2.12,10.53,10.53,0,0,1,.67-1.93,15.67,15.67,0,0,1,2.58-3.79H193.1v-.71Z"/><path class="cls-5" d="M201.93,90.89v1.27h-1.11V90.89Zm0,5v1.27h-1.11V95.94Z"/><path class="cls-5" d="M206.78,88.49a3.57,3.57,0,0,1,1,.13,2.67,2.67,0,0,1,.85.41,2.08,2.08,0,0,1,.6.69,2,2,0,0,1,.23,1,2.22,2.22,0,0,1-.1.66,1.82,1.82,0,0,1-.28.56,1.77,1.77,0,0,1-.45.42,2.14,2.14,0,0,1-.62.27v0a2.06,2.06,0,0,1,1.33.74,2.21,2.21,0,0,1,.45,1.39,2.41,2.41,0,0,1-.84,1.91,2.78,2.78,0,0,1-1,.55,3.78,3.78,0,0,1-1.21.18,3.66,3.66,0,0,1-1.12-.17,2.8,2.8,0,0,1-.92-.49,2.34,2.34,0,0,1-.63-.78,2.28,2.28,0,0,1-.23-1v-.18h.79v.16a1.74,1.74,0,0,0,.56,1.28,2,2,0,0,0,.66.4,2.45,2.45,0,0,0,.88.15,2.7,2.7,0,0,0,.91-.13,2.21,2.21,0,0,0,.69-.4,1.7,1.7,0,0,0,.64-1.38,1.89,1.89,0,0,0-.14-.75,1.64,1.64,0,0,0-.42-.58,2.22,2.22,0,0,0-1.53-.5h-.64v-.66h.69a1.86,1.86,0,0,0,1.21-.42,1.42,1.42,0,0,0,.52-1.15,1.59,1.59,0,0,0-.15-.71,1.48,1.48,0,0,0-.4-.51,1.73,1.73,0,0,0-.6-.31,2.56,2.56,0,0,0-.73-.1,2.1,2.1,0,0,0-.81.15,1.8,1.8,0,0,0-.61.41,1.82,1.82,0,0,0-.39.6,2,2,0,0,0-.13.73H204a2.44,2.44,0,0,1,.18-.92,2.53,2.53,0,0,1,.53-.82,2.7,2.7,0,0,1,.86-.59A2.82,2.82,0,0,1,206.78,88.49Z"/><path class="cls-5" d="M213.9,97.4a3.17,3.17,0,0,1-.94-.13,2.34,2.34,0,0,1-.75-.38,2.14,2.14,0,0,1-.54-.62,2.49,2.49,0,0,1-.3-.83h.78a1.7,1.7,0,0,0,.19.51,1.45,1.45,0,0,0,.35.42,1.67,1.67,0,0,0,.52.28,2.16,2.16,0,0,0,.69.1,2,2,0,0,0,1-.25,2.1,2.1,0,0,0,.75-.75,3.82,3.82,0,0,0,.45-1.21,8,8,0,0,0,.15-1.65h0A2.58,2.58,0,0,1,214,94.31a2.74,2.74,0,0,1-2.05-.81,2.83,2.83,0,0,1-.8-2.08,2.84,2.84,0,0,1,2.94-2.94,3.09,3.09,0,0,1,1.41.29,2.31,2.31,0,0,1,.93.84A4.2,4.2,0,0,1,216.9,91a10.4,10.4,0,0,1,.17,2.05,8.43,8.43,0,0,1-.07,1.06,5.56,5.56,0,0,1-.22,1,4.46,4.46,0,0,1-.4.89,2.83,2.83,0,0,1-.6.72,2.66,2.66,0,0,1-.82.48A3.07,3.07,0,0,1,213.9,97.4Zm2.23-6a2.25,2.25,0,0,0-.57-1.63,2.11,2.11,0,0,0-1.59-.59,1.91,1.91,0,0,0-1.49.66,2.26,2.26,0,0,0-.59,1.56,2.4,2.4,0,0,0,.57,1.64,1.92,1.92,0,0,0,1.52.65,2,2,0,0,0,1.54-.63A2.29,2.29,0,0,0,216.13,91.36Z"/><path class="cls-5" d="M220.15,90.89v1.27H219V90.89Zm0,5v1.27H219V95.94Z"/><path class="cls-5" d="M226.73,95.06v2.15H226V95.06h-4v-.75l4-5.75h.7V94.4H228v.66ZM226,89.7h0l-3.27,4.71H226Z"/><path class="cls-5" d="M232.26,88.49a3.57,3.57,0,0,1,1,.13,2.67,2.67,0,0,1,.85.41,2.08,2.08,0,0,1,.6.69,2,2,0,0,1,.23,1,2.22,2.22,0,0,1-.1.66,1.82,1.82,0,0,1-.28.56,1.77,1.77,0,0,1-.45.42,2.14,2.14,0,0,1-.62.27v0a2.06,2.06,0,0,1,1.33.74,2.21,2.21,0,0,1,.45,1.39,2.41,2.41,0,0,1-.84,1.91,2.78,2.78,0,0,1-1,.55,3.78,3.78,0,0,1-1.21.18,3.66,3.66,0,0,1-1.12-.17,2.8,2.8,0,0,1-.92-.49,2.34,2.34,0,0,1-.63-.78,2.28,2.28,0,0,1-.23-1v-.18h.79v.16a1.74,1.74,0,0,0,.56,1.28,2,2,0,0,0,.66.4,2.45,2.45,0,0,0,.88.15,2.7,2.7,0,0,0,.91-.13,2.21,2.21,0,0,0,.69-.4,1.7,1.7,0,0,0,.64-1.38,1.89,1.89,0,0,0-.14-.75,1.64,1.64,0,0,0-.42-.58,2.22,2.22,0,0,0-1.53-.5h-.64v-.66h.69a1.86,1.86,0,0,0,1.21-.42,1.42,1.42,0,0,0,.52-1.15,1.59,1.59,0,0,0-.15-.71,1.48,1.48,0,0,0-.4-.51,1.73,1.73,0,0,0-.6-.31,2.56,2.56,0,0,0-.73-.1,2.1,2.1,0,0,0-.81.15,1.8,1.8,0,0,0-.61.41,1.82,1.82,0,0,0-.39.6,2,2,0,0,0-.13.73h-.78a2.44,2.44,0,0,1,.18-.92,2.53,2.53,0,0,1,.53-.82,2.7,2.7,0,0,1,.86-.59A2.82,2.82,0,0,1,232.26,88.49Z"/><path class="cls-5" d="M238.37,95.94v1.27h-1.11V95.94Z"/><path class="cls-5" d="M243.53,88.49a3.17,3.17,0,0,1,.94.13,2.34,2.34,0,0,1,.75.38,2.14,2.14,0,0,1,.54.62,2.49,2.49,0,0,1,.3.83h-.78a1.7,1.7,0,0,0-.19-.51,1.45,1.45,0,0,0-.35-.42,1.67,1.67,0,0,0-.52-.28,2.16,2.16,0,0,0-.69-.1,2,2,0,0,0-1,.25,2.1,2.1,0,0,0-.75.75,3.82,3.82,0,0,0-.45,1.21,8,8,0,0,0-.15,1.65h0a2.58,2.58,0,0,1,2.31-1.44,2.74,2.74,0,0,1,2.05.81,2.83,2.83,0,0,1,.8,2.08,2.84,2.84,0,0,1-2.94,2.94A3.09,3.09,0,0,1,242,97.1a2.31,2.31,0,0,1-.93-.84,4.2,4.2,0,0,1-.52-1.39,10.4,10.4,0,0,1-.17-2.05,8.43,8.43,0,0,1,.07-1.06,5.56,5.56,0,0,1,.22-1,4.46,4.46,0,0,1,.4-.89,2.83,2.83,0,0,1,.6-.72,2.66,2.66,0,0,1,.82-.48A3.07,3.07,0,0,1,243.53,88.49Zm-2.23,6a2.25,2.25,0,0,0,.57,1.63,2.11,2.11,0,0,0,1.59.59,1.91,1.91,0,0,0,1.49-.66,2.26,2.26,0,0,0,.59-1.56,2.4,2.4,0,0,0-.57-1.64,1.93,1.93,0,0,0-1.52-.65,2,2,0,0,0-1.54.63A2.3,2.3,0,0,0,241.3,94.52Z"/><path class="cls-5" d="M250.61,97.21V90.78h-2.29v-.56q.53,0,.9-.06a2.36,2.36,0,0,0,.57-.13,1.3,1.3,0,0,0,.64-.52,2.46,2.46,0,0,0,.31-1h.63v8.65Z"/><path class="cls-5" d="M260.59,88.66v.71a13.7,13.7,0,0,0-1.42,1.75A13.19,13.19,0,0,0,258.1,93a11.5,11.5,0,0,0-.7,2,12.2,12.2,0,0,0-.31,2.14h-.84a12.81,12.81,0,0,1,.32-2.12,10.53,10.53,0,0,1,.67-1.93,15.67,15.67,0,0,1,2.58-3.79H255v-.71Z"/><path class="cls-5" d="M188.63,119.49a2.87,2.87,0,0,1,1.32.29,2.48,2.48,0,0,1,.94.85,4.14,4.14,0,0,1,.57,1.39,8.64,8.64,0,0,1,.19,1.92,5.94,5.94,0,0,1-.77,3.35,2.82,2.82,0,0,1-4.49,0,7.62,7.62,0,0,1,0-6.69A2.56,2.56,0,0,1,188.63,119.49Zm-2.23,4.45q0,3.81,2.23,3.81t2.24-3.81a5.64,5.64,0,0,0-.57-2.84,1.84,1.84,0,0,0-1.68-1,1.82,1.82,0,0,0-1.65.94A5.63,5.63,0,0,0,186.39,123.93Z"/><path class="cls-5" d="M198.67,119.66v.71a13.7,13.7,0,0,0-1.42,1.75,13.19,13.19,0,0,0-1.08,1.91,11.5,11.5,0,0,0-.7,2,12.2,12.2,0,0,0-.31,2.14h-.84a12.81,12.81,0,0,1,.32-2.12,10.53,10.53,0,0,1,.67-1.93,15.67,15.67,0,0,1,2.58-3.79H193.1v-.71Z"/><path class="cls-5" d="M201.93,121.89v1.27h-1.11v-1.27Zm0,5v1.27h-1.11v-1.27Z"/><path class="cls-5" d="M206.78,119.49a3.57,3.57,0,0,1,1,.13,2.67,2.67,0,0,1,.85.41,2.08,2.08,0,0,1,.6.69,2,2,0,0,1,.23,1,2.22,2.22,0,0,1-.1.66,1.82,1.82,0,0,1-.28.56,1.77,1.77,0,0,1-.45.42,2.14,2.14,0,0,1-.62.27v0a2.06,2.06,0,0,1,1.33.74,2.21,2.21,0,0,1,.45,1.39,2.41,2.41,0,0,1-.84,1.91,2.78,2.78,0,0,1-1,.55,3.78,3.78,0,0,1-1.21.18,3.66,3.66,0,0,1-1.12-.17,2.8,2.8,0,0,1-.92-.49,2.34,2.34,0,0,1-.63-.78,2.28,2.28,0,0,1-.23-1v-.18h.79v.16a1.74,1.74,0,0,0,.56,1.28,2,2,0,0,0,.66.4,2.45,2.45,0,0,0,.88.15,2.7,2.7,0,0,0,.91-.13,2.21,2.21,0,0,0,.69-.4,1.7,1.7,0,0,0,.64-1.38,1.89,1.89,0,0,0-.14-.75,1.64,1.64,0,0,0-.42-.58,2.22,2.22,0,0,0-1.53-.5h-.64v-.66h.69a1.86,1.86,0,0,0,1.21-.42,1.42,1.42,0,0,0,.52-1.15,1.59,1.59,0,0,0-.15-.71,1.48,1.48,0,0,0-.4-.51,1.73,1.73,0,0,0-.6-.31,2.56,2.56,0,0,0-.73-.1,2.1,2.1,0,0,0-.81.15,1.8,1.8,0,0,0-.61.41,1.82,1.82,0,0,0-.39.6,2,2,0,0,0-.13.73H204a2.44,2.44,0,0,1,.18-.92,2.53,2.53,0,0,1,.53-.82,2.7,2.7,0,0,1,.86-.59A2.82,2.82,0,0,1,206.78,119.49Z"/><path class="cls-5" d="M217.11,125.79a2.36,2.36,0,0,1-.83,1.91,3.22,3.22,0,0,1-2.16.7,3.18,3.18,0,0,1-2.16-.71,2.52,2.52,0,0,1-.7-2.64,2.28,2.28,0,0,1,.35-.67,2.18,2.18,0,0,1,1.28-.81v0a2.05,2.05,0,0,1-1.06-.72,2,2,0,0,1-.35-1.18,1.9,1.9,0,0,1,.76-1.57,2.91,2.91,0,0,1,1.86-.59,3,3,0,0,1,1.88.59,1.88,1.88,0,0,1,.76,1.57,2.2,2.2,0,0,1-.09.65,1.81,1.81,0,0,1-.72,1,2.1,2.1,0,0,1-.6.28v0a2.18,2.18,0,0,1,1.32.76A2.29,2.29,0,0,1,217.11,125.79Zm-.78,0a1.75,1.75,0,0,0-.59-1.35,2.78,2.78,0,0,0-3.24,0,1.76,1.76,0,0,0-.57,1.37,1.79,1.79,0,0,0,.6,1.42,2.7,2.7,0,0,0,3.2,0A1.79,1.79,0,0,0,216.33,125.79Zm-.36-4.14a1.35,1.35,0,0,0-.5-1.1,2.37,2.37,0,0,0-2.67,0,1.3,1.3,0,0,0-.53,1.09,1.48,1.48,0,0,0,.49,1.18,2,2,0,0,0,1.32.43,2,2,0,0,0,1.41-.45A1.52,1.52,0,0,0,216,121.65Z"/><path class="cls-5" d="M220.15,121.89v1.27H219v-1.27Zm0,5v1.27H219v-1.27Z"/><path class="cls-5" d="M226.73,126.06v2.15H226v-2.15h-4v-.75l4-5.75h.7v5.85H228v.66ZM226,120.7h0l-3.27,4.71H226Z"/><path class="cls-5" d="M232.26,119.49a3.57,3.57,0,0,1,1,.13,2.67,2.67,0,0,1,.85.41,2.08,2.08,0,0,1,.6.69,2,2,0,0,1,.23,1,2.22,2.22,0,0,1-.1.66,1.82,1.82,0,0,1-.28.56,1.77,1.77,0,0,1-.45.42,2.14,2.14,0,0,1-.62.27v0a2.06,2.06,0,0,1,1.33.74,2.21,2.21,0,0,1,.45,1.39,2.41,2.41,0,0,1-.84,1.91,2.78,2.78,0,0,1-1,.55,3.78,3.78,0,0,1-1.21.18,3.66,3.66,0,0,1-1.12-.17,2.8,2.8,0,0,1-.92-.49,2.34,2.34,0,0,1-.63-.78,2.28,2.28,0,0,1-.23-1v-.18h.79v.16a1.74,1.74,0,0,0,.56,1.28,2,2,0,0,0,.66.4,2.45,2.45,0,0,0,.88.15,2.7,2.7,0,0,0,.91-.13,2.21,2.21,0,0,0,.69-.4,1.7,1.7,0,0,0,.64-1.38,1.89,1.89,0,0,0-.14-.75,1.64,1.64,0,0,0-.42-.58,2.22,2.22,0,0,0-1.53-.5h-.64v-.66h.69a1.86,1.86,0,0,0,1.21-.42,1.42,1.42,0,0,0,.52-1.15,1.59,1.59,0,0,0-.15-.71,1.48,1.48,0,0,0-.4-.51,1.73,1.73,0,0,0-.6-.31,2.56,2.56,0,0,0-.73-.1,2.1,2.1,0,0,0-.81.15,1.8,1.8,0,0,0-.61.41,1.82,1.82,0,0,0-.39.6,2,2,0,0,0-.13.73h-.78a2.44,2.44,0,0,1,.18-.92,2.53,2.53,0,0,1,.53-.82,2.7,2.7,0,0,1,.86-.59A2.82,2.82,0,0,1,232.26,119.49Z"/><path class="cls-5" d="M238.37,126.94v1.27h-1.11v-1.27Z"/><path class="cls-5" d="M245.71,119.66v.72h-3.78l-.54,2.78,0,0a2.32,2.32,0,0,1,.82-.52,2.79,2.79,0,0,1,1-.18,3.18,3.18,0,0,1,1.2.22,2.6,2.6,0,0,1,.92.61,2.73,2.73,0,0,1,.59.94,3.43,3.43,0,0,1,.21,1.22,2.81,2.81,0,0,1-.23,1.14,2.94,2.94,0,0,1-1.61,1.56,3.12,3.12,0,0,1-1.2.23,3.29,3.29,0,0,1-1.1-.17,2.59,2.59,0,0,1-.85-.48,2.26,2.26,0,0,1-.56-.74,2.52,2.52,0,0,1-.23-1h.79a1.84,1.84,0,0,0,.16.64,1.65,1.65,0,0,0,.4.54,2,2,0,0,0,.62.37,2.29,2.29,0,0,0,.83.14,2.06,2.06,0,0,0,.87-.18,2.14,2.14,0,0,0,.7-.5,2.4,2.4,0,0,0,.46-.75,2.49,2.49,0,0,0,.17-.92,2.41,2.41,0,0,0-.16-.86,2.12,2.12,0,0,0-1.14-1.2,2.2,2.2,0,0,0-.91-.18,2.55,2.55,0,0,0-1.07.23,2.22,2.22,0,0,0-.85.68h-.66l.81-4.38Z"/><path class="cls-5" d="M250.54,119.49a2.87,2.87,0,0,1,1.32.29,2.48,2.48,0,0,1,.94.85,4.14,4.14,0,0,1,.57,1.39,8.64,8.64,0,0,1,.19,1.92,5.94,5.94,0,0,1-.77,3.35,2.82,2.82,0,0,1-4.49,0,7.62,7.62,0,0,1,0-6.69A2.56,2.56,0,0,1,250.54,119.49Zm-2.23,4.45q0,3.81,2.23,3.81t2.24-3.81a5.64,5.64,0,0,0-.57-2.84,1.84,1.84,0,0,0-1.68-1,1.82,1.82,0,0,0-1.65.94A5.63,5.63,0,0,0,248.31,123.93Z"/><path class="cls-5" d="M257.74,119.49a3.57,3.57,0,0,1,1,.13,2.67,2.67,0,0,1,.85.41,2.08,2.08,0,0,1,.6.69,2,2,0,0,1,.23,1,2.22,2.22,0,0,1-.1.66,1.82,1.82,0,0,1-.28.56,1.77,1.77,0,0,1-.45.42,2.14,2.14,0,0,1-.62.27v0a2.06,2.06,0,0,1,1.33.74,2.21,2.21,0,0,1,.45,1.39,2.41,2.41,0,0,1-.84,1.91,2.78,2.78,0,0,1-1,.55,3.78,3.78,0,0,1-1.21.18,3.66,3.66,0,0,1-1.12-.17,2.8,2.8,0,0,1-.92-.49,2.34,2.34,0,0,1-.63-.78,2.28,2.28,0,0,1-.23-1v-.18h.79v.16a1.74,1.74,0,0,0,.56,1.28,2,2,0,0,0,.66.4,2.45,2.45,0,0,0,.88.15,2.7,2.7,0,0,0,.91-.13,2.21,2.21,0,0,0,.69-.4,1.7,1.7,0,0,0,.64-1.38,1.89,1.89,0,0,0-.14-.75,1.64,1.64,0,0,0-.42-.58,2.22,2.22,0,0,0-1.53-.5h-.64v-.66h.69a1.86,1.86,0,0,0,1.21-.42,1.42,1.42,0,0,0,.52-1.15,1.59,1.59,0,0,0-.15-.71,1.48,1.48,0,0,0-.4-.51,1.73,1.73,0,0,0-.6-.31,2.56,2.56,0,0,0-.73-.1,2.1,2.1,0,0,0-.81.15,1.8,1.8,0,0,0-.61.41,1.82,1.82,0,0,0-.39.6,2,2,0,0,0-.13.73H255a2.44,2.44,0,0,1,.18-.92,2.53,2.53,0,0,1,.53-.82,2.7,2.7,0,0,1,.86-.59A2.82,2.82,0,0,1,257.74,119.49Z"/><path class="cls-5" d="M188.63,150.49a2.87,2.87,0,0,1,1.32.29,2.48,2.48,0,0,1,.94.85,4.14,4.14,0,0,1,.57,1.39,8.64,8.64,0,0,1,.19,1.92,5.94,5.94,0,0,1-.77,3.35,2.82,2.82,0,0,1-4.49,0,7.62,7.62,0,0,1,0-6.69A2.56,2.56,0,0,1,188.63,150.49Zm-2.23,4.45q0,3.81,2.23,3.81t2.24-3.81a5.64,5.64,0,0,0-.57-2.84,1.84,1.84,0,0,0-1.68-1,1.82,1.82,0,0,0-1.65.94A5.63,5.63,0,0,0,186.39,154.93Z"/><path class="cls-5" d="M196.14,150.49a3.17,3.17,0,0,1,.94.13,2.34,2.34,0,0,1,.75.38,2.14,2.14,0,0,1,.54.62,2.49,2.49,0,0,1,.3.83h-.78a1.7,1.7,0,0,0-.19-.51,1.45,1.45,0,0,0-.35-.42,1.67,1.67,0,0,0-.52-.28,2.16,2.16,0,0,0-.69-.1,2,2,0,0,0-1,.25,2.1,2.1,0,0,0-.75.75,3.82,3.82,0,0,0-.45,1.21,8,8,0,0,0-.15,1.65h0a2.58,2.58,0,0,1,2.31-1.44,2.74,2.74,0,0,1,2.05.81,2.83,2.83,0,0,1,.8,2.08A2.84,2.84,0,0,1,196,159.4a3.09,3.09,0,0,1-1.41-.29,2.31,2.31,0,0,1-.93-.84,4.2,4.2,0,0,1-.52-1.39,10.4,10.4,0,0,1-.17-2.05,8.43,8.43,0,0,1,.07-1.06,5.56,5.56,0,0,1,.22-1,4.46,4.46,0,0,1,.4-.89,2.83,2.83,0,0,1,.6-.72,2.66,2.66,0,0,1,.82-.48A3.07,3.07,0,0,1,196.14,150.49Zm-2.23,6a2.25,2.25,0,0,0,.57,1.63,2.11,2.11,0,0,0,1.59.59,1.91,1.91,0,0,0,1.49-.66,2.26,2.26,0,0,0,.59-1.56,2.4,2.4,0,0,0-.57-1.64,1.93,1.93,0,0,0-1.52-.65,2,2,0,0,0-1.54.63A2.3,2.3,0,0,0,193.91,156.52Z"/><path class="cls-5" d="M201.93,152.89v1.27h-1.11v-1.27Zm0,5v1.27h-1.11v-1.27Z"/><path class="cls-5" d="M206.78,150.49a3.57,3.57,0,0,1,1,.13,2.67,2.67,0,0,1,.85.41,2.08,2.08,0,0,1,.6.69,2,2,0,0,1,.23,1,2.22,2.22,0,0,1-.1.66,1.82,1.82,0,0,1-.28.56,1.77,1.77,0,0,1-.45.42,2.14,2.14,0,0,1-.62.27v0a2.06,2.06,0,0,1,1.33.74,2.21,2.21,0,0,1,.45,1.39,2.41,2.41,0,0,1-.84,1.91,2.78,2.78,0,0,1-1,.55,3.78,3.78,0,0,1-1.21.18,3.66,3.66,0,0,1-1.12-.17,2.8,2.8,0,0,1-.92-.49,2.34,2.34,0,0,1-.63-.78,2.28,2.28,0,0,1-.23-1v-.18h.79v.16a1.74,1.74,0,0,0,.56,1.28,2,2,0,0,0,.66.4,2.45,2.45,0,0,0,.88.15,2.7,2.7,0,0,0,.91-.13,2.21,2.21,0,0,0,.69-.4,1.7,1.7,0,0,0,.64-1.38,1.89,1.89,0,0,0-.14-.75,1.64,1.64,0,0,0-.42-.58,2.22,2.22,0,0,0-1.53-.5h-.64v-.66h.69a1.86,1.86,0,0,0,1.21-.42,1.42,1.42,0,0,0,.52-1.15,1.59,1.59,0,0,0-.15-.71,1.48,1.48,0,0,0-.4-.51,1.73,1.73,0,0,0-.6-.31,2.56,2.56,0,0,0-.73-.1,2.1,2.1,0,0,0-.81.15,1.8,1.8,0,0,0-.61.41,1.82,1.82,0,0,0-.39.6,2,2,0,0,0-.13.73H204a2.44,2.44,0,0,1,.18-.92,2.53,2.53,0,0,1,.53-.82,2.7,2.7,0,0,1,.86-.59A2.82,2.82,0,0,1,206.78,150.49Z"/><path class="cls-5" d="M216.89,150.66v.71a13.7,13.7,0,0,0-1.42,1.75A13.19,13.19,0,0,0,214.4,155a11.5,11.5,0,0,0-.7,2,12.2,12.2,0,0,0-.31,2.14h-.84a12.81,12.81,0,0,1,.32-2.12,10.53,10.53,0,0,1,.67-1.93,15.67,15.67,0,0,1,2.58-3.79h-4.79v-.71Z"/><path class="cls-5" d="M220.15,152.89v1.27H219v-1.27Zm0,5v1.27H219v-1.27Z"/><path class="cls-5" d="M226.73,157.06v2.15H226v-2.15h-4v-.75l4-5.75h.7v5.85H228v.66ZM226,151.7h0l-3.27,4.71H226Z"/><path class="cls-5" d="M232.26,150.49a3.57,3.57,0,0,1,1,.13,2.67,2.67,0,0,1,.85.41,2.08,2.08,0,0,1,.6.69,2,2,0,0,1,.23,1,2.22,2.22,0,0,1-.1.66,1.82,1.82,0,0,1-.28.56,1.77,1.77,0,0,1-.45.42,2.14,2.14,0,0,1-.62.27v0a2.06,2.06,0,0,1,1.33.74,2.21,2.21,0,0,1,.45,1.39,2.41,2.41,0,0,1-.84,1.91,2.78,2.78,0,0,1-1,.55,3.78,3.78,0,0,1-1.21.18,3.66,3.66,0,0,1-1.12-.17,2.8,2.8,0,0,1-.92-.49,2.34,2.34,0,0,1-.63-.78,2.28,2.28,0,0,1-.23-1v-.18h.79v.16a1.74,1.74,0,0,0,.56,1.28,2,2,0,0,0,.66.4,2.45,2.45,0,0,0,.88.15,2.7,2.7,0,0,0,.91-.13,2.21,2.21,0,0,0,.69-.4,1.7,1.7,0,0,0,.64-1.38,1.89,1.89,0,0,0-.14-.75,1.64,1.64,0,0,0-.42-.58,2.22,2.22,0,0,0-1.53-.5h-.64v-.66h.69a1.86,1.86,0,0,0,1.21-.42,1.42,1.42,0,0,0,.52-1.15,1.59,1.59,0,0,0-.15-.71,1.48,1.48,0,0,0-.4-.51,1.73,1.73,0,0,0-.6-.31,2.56,2.56,0,0,0-.73-.1,2.1,2.1,0,0,0-.81.15,1.8,1.8,0,0,0-.61.41,1.82,1.82,0,0,0-.39.6,2,2,0,0,0-.13.73h-.78a2.44,2.44,0,0,1,.18-.92,2.53,2.53,0,0,1,.53-.82,2.7,2.7,0,0,1,.86-.59A2.82,2.82,0,0,1,232.26,150.49Z"/><path class="cls-5" d="M238.37,157.94v1.27h-1.11v-1.27Z"/><path class="cls-5" d="M243.35,159.21v-6.43h-2.29v-.56q.53,0,.9-.06a2.36,2.36,0,0,0,.57-.13,1.3,1.3,0,0,0,.64-.52,2.46,2.46,0,0,0,.31-1h.63v8.65Z"/><path class="cls-5" d="M253,150.66v.72H249.2l-.54,2.78,0,0a2.32,2.32,0,0,1,.82-.52,2.79,2.79,0,0,1,1-.18,3.18,3.18,0,0,1,1.2.22,2.6,2.6,0,0,1,.92.61,2.73,2.73,0,0,1,.59.94,3.43,3.43,0,0,1,.21,1.22,2.81,2.81,0,0,1-.23,1.14,2.94,2.94,0,0,1-1.61,1.56,3.12,3.12,0,0,1-1.2.23,3.29,3.29,0,0,1-1.1-.17,2.59,2.59,0,0,1-.85-.48,2.26,2.26,0,0,1-.56-.74,2.52,2.52,0,0,1-.23-1h.79a1.84,1.84,0,0,0,.16.64,1.65,1.65,0,0,0,.4.54,2,2,0,0,0,.62.37,2.29,2.29,0,0,0,.83.14,2.06,2.06,0,0,0,.87-.18,2.14,2.14,0,0,0,.7-.5,2.4,2.4,0,0,0,.46-.75,2.49,2.49,0,0,0,.17-.92,2.41,2.41,0,0,0-.16-.86,2.12,2.12,0,0,0-1.14-1.2,2.2,2.2,0,0,0-.91-.18,2.55,2.55,0,0,0-1.07.23,2.22,2.22,0,0,0-.85.68h-.66l.81-4.38Z"/><path class="cls-5" d="M260.59,150.66v.71a13.7,13.7,0,0,0-1.42,1.75A13.19,13.19,0,0,0,258.1,155a11.5,11.5,0,0,0-.7,2,12.2,12.2,0,0,0-.31,2.14h-.84a12.81,12.81,0,0,1,.32-2.12,10.53,10.53,0,0,1,.67-1.93,15.67,15.67,0,0,1,2.58-3.79H255v-.71Z"/><path class="cls-5" d="M348,57.66v.7h-5.09v3.09h4.77v.69h-4.77v3.38h5.14v.7h-6V57.66Z"/><path class="cls-5" d="M349.5,59.65l2.06,5.76h0l2-5.76h.83L352,66.21h-.85l-2.54-6.56Z"/><path class="cls-5" d="M358.36,59.46a2.71,2.71,0,0,1,1.3.29,2.6,2.6,0,0,1,.9.79,3.44,3.44,0,0,1,.52,1.13,5.22,5.22,0,0,1,.17,1.34v.13h-5.05a3.58,3.58,0,0,0,.13.94,2.58,2.58,0,0,0,.39.83,2,2,0,0,0,.66.59,1.92,1.92,0,0,0,.95.22,2.44,2.44,0,0,0,.7-.09,2,2,0,0,0,.56-.26A1.76,1.76,0,0,0,360,65a2.4,2.4,0,0,0,.29-.49h.79a3,3,0,0,1-.38.79,2.48,2.48,0,0,1-.59.6,2.68,2.68,0,0,1-.79.39,3.33,3.33,0,0,1-1,.14,2.94,2.94,0,0,1-1.3-.27,2.56,2.56,0,0,1-.91-.73,3.12,3.12,0,0,1-.54-1.1,5.13,5.13,0,0,1-.18-1.37,4.66,4.66,0,0,1,.18-1.28,3.37,3.37,0,0,1,.54-1.11,2.74,2.74,0,0,1,.92-.78A2.79,2.79,0,0,1,358.36,59.46Zm2.09,3a3,3,0,0,0-.16-.85,2.44,2.44,0,0,0-.41-.75,2.07,2.07,0,0,0-.65-.54,1.84,1.84,0,0,0-.88-.21,1.84,1.84,0,0,0-1.5.7,2.69,2.69,0,0,0-.42.75,4.32,4.32,0,0,0-.23.9Z"/><path class="cls-5" d="M365.84,59.46a3.35,3.35,0,0,1,1.08.15,1.83,1.83,0,0,1,.74.46,1.87,1.87,0,0,1,.43.77,3.79,3.79,0,0,1,.14,1.08v4.28h-.8V62.06a2.2,2.2,0,0,0-.41-1.45,1.54,1.54,0,0,0-1.25-.49,2.07,2.07,0,0,0-.86.17,1.88,1.88,0,0,0-.65.48,2.15,2.15,0,0,0-.41.71,2.64,2.64,0,0,0-.14.88v3.84h-.8V59.65h.8v1.14h0a2,2,0,0,1,.35-.56,2.18,2.18,0,0,1,.49-.42,2.33,2.33,0,0,1,.6-.26A2.48,2.48,0,0,1,365.84,59.46Z"/><path class="cls-5" d="M373,66.27h-.66a3,3,0,0,1-.68-.06,1,1,0,0,1-.45-.23.89.89,0,0,1-.25-.43,2.65,2.65,0,0,1-.07-.68V60.32h-1.32v-.67h1.32v-2h.8v2h1.5v.67h-1.5V64.8a1.75,1.75,0,0,0,0,.34.64.64,0,0,0,.11.26.5.5,0,0,0,.21.16.87.87,0,0,0,.35.06h.6l.21,0v.68Z"/><path class="cls-5" d="M384.24,57.13v9.08h-.74V65h0a2,2,0,0,1-.39.59,2.58,2.58,0,0,1-.56.46,2.8,2.8,0,0,1-.67.29,2.63,2.63,0,0,1-.72.1,2.8,2.8,0,0,1-1.28-.28,2.68,2.68,0,0,1-.92-.75,3.32,3.32,0,0,1-.56-1.11,4.68,4.68,0,0,1-.19-1.34,4.83,4.83,0,0,1,.17-1.29,3.31,3.31,0,0,1,.53-1.11,2.68,2.68,0,0,1,.92-.78,3,3,0,0,1,2-.2,2.56,2.56,0,0,1,.65.27,2.26,2.26,0,0,1,.54.45,2.07,2.07,0,0,1,.38.63h0V57.13ZM379,62.93a4.17,4.17,0,0,0,.05.65,3.7,3.7,0,0,0,.16.64,2.81,2.81,0,0,0,.28.58,2.15,2.15,0,0,0,.41.48,1.8,1.8,0,0,0,.55.32,2,2,0,0,0,.7.12,2.07,2.07,0,0,0,1.73-.84,2.66,2.66,0,0,0,.43-.89,4,4,0,0,0,.14-1.06,4,4,0,0,0-.13-1,2.73,2.73,0,0,0-.41-.9,2.06,2.06,0,0,0-1.76-.87,1.94,1.94,0,0,0-.68.11,1.8,1.8,0,0,0-.54.31,2.14,2.14,0,0,0-.41.46,2.81,2.81,0,0,0-.29.58,3.51,3.51,0,0,0-.17.65A4.26,4.26,0,0,0,379,62.93Z"/><path class="cls-5" d="M389,59.46a2.71,2.71,0,0,1,1.3.29,2.6,2.6,0,0,1,.9.79,3.44,3.44,0,0,1,.52,1.13A5.22,5.22,0,0,1,391.9,63v.13h-5.05a3.58,3.58,0,0,0,.13.94,2.58,2.58,0,0,0,.39.83,2,2,0,0,0,.66.59,1.92,1.92,0,0,0,.95.22,2.44,2.44,0,0,0,.7-.09,2,2,0,0,0,.56-.26,1.76,1.76,0,0,0,.42-.39,2.4,2.4,0,0,0,.29-.49h.79a3,3,0,0,1-.38.79,2.48,2.48,0,0,1-.59.6,2.68,2.68,0,0,1-.79.39,3.33,3.33,0,0,1-1,.14,2.94,2.94,0,0,1-1.3-.27,2.56,2.56,0,0,1-.91-.73,3.12,3.12,0,0,1-.54-1.1,5.13,5.13,0,0,1-.18-1.37,4.66,4.66,0,0,1,.18-1.28,3.37,3.37,0,0,1,.54-1.11,2.74,2.74,0,0,1,.92-.78A2.79,2.79,0,0,1,389,59.46Zm2.09,3a3,3,0,0,0-.16-.85,2.44,2.44,0,0,0-.41-.75,2.07,2.07,0,0,0-.65-.54,1.84,1.84,0,0,0-.88-.21,1.84,1.84,0,0,0-1.5.7,2.69,2.69,0,0,0-.42.75,4.32,4.32,0,0,0-.23.9Z"/><path class="cls-5" d="M398.48,64.43a1.67,1.67,0,0,1-.22.88,1.89,1.89,0,0,1-.59.62,2.74,2.74,0,0,1-.84.36,4,4,0,0,1-1,.12,3.66,3.66,0,0,1-1.07-.14,2.4,2.4,0,0,1-.8-.41,2,2,0,0,1-.53-.64,2.4,2.4,0,0,1-.25-.85H394a1.7,1.7,0,0,0,.2.56,1.4,1.4,0,0,0,.38.43,1.8,1.8,0,0,0,.57.28,2.56,2.56,0,0,0,.74.1,3,3,0,0,0,.6-.06,2.05,2.05,0,0,0,.58-.21,1.36,1.36,0,0,0,.44-.38,1,1,0,0,0,.18-.59.93.93,0,0,0-.34-.73,2.6,2.6,0,0,0-1.13-.46l-1-.22a4,4,0,0,1-.77-.24,2.1,2.1,0,0,1-.58-.37,1.46,1.46,0,0,1-.36-.5,1.61,1.61,0,0,1-.12-.65,1.57,1.57,0,0,1,.21-.84,1.77,1.77,0,0,1,.56-.57,2.53,2.53,0,0,1,.78-.33,3.77,3.77,0,0,1,.89-.11,3.27,3.27,0,0,1,.92.12,2.28,2.28,0,0,1,.73.35,1.83,1.83,0,0,1,.5.57,2.08,2.08,0,0,1,.25.78h-.8a1.33,1.33,0,0,0-.19-.5,1.24,1.24,0,0,0-.36-.37,1.69,1.69,0,0,0-.5-.22,2.36,2.36,0,0,0-.61-.08,2.85,2.85,0,0,0-.58.06,1.59,1.59,0,0,0-.51.19,1.07,1.07,0,0,0-.36.35,1,1,0,0,0-.13.53.74.74,0,0,0,.13.44,1.27,1.27,0,0,0,.33.32,1.92,1.92,0,0,0,.44.22,3.65,3.65,0,0,0,.46.13l1.37.3a2.85,2.85,0,0,1,.59.21,1.77,1.77,0,0,1,.5.35,1.64,1.64,0,0,1,.34.51A1.72,1.72,0,0,1,398.48,64.43Z"/><path class="cls-5" d="M403,59.46a3.46,3.46,0,0,1,1,.13,2.53,2.53,0,0,1,.78.38,2,2,0,0,1,.56.61,2.31,2.31,0,0,1,.29.82h-.8a1.73,1.73,0,0,0-.22-.52,1.5,1.5,0,0,0-.37-.4,1.7,1.7,0,0,0-.53-.26,2.35,2.35,0,0,0-.68-.09,2,2,0,0,0-1,.23,2.19,2.19,0,0,0-.72.63,2.91,2.91,0,0,0-.44.9,3.58,3.58,0,0,0-.15,1,3.67,3.67,0,0,0,.14,1,2.88,2.88,0,0,0,.42.9,2.26,2.26,0,0,0,.71.65,2,2,0,0,0,1,.25,1.93,1.93,0,0,0,.71-.13,1.88,1.88,0,0,0,.56-.34,1.8,1.8,0,0,0,.39-.49,1.87,1.87,0,0,0,.21-.58h.8a3,3,0,0,1-.29.85,2.49,2.49,0,0,1-.55.7,2.54,2.54,0,0,1-.8.48,2.88,2.88,0,0,1-1,.18,3,3,0,0,1-1.29-.27,2.85,2.85,0,0,1-1-.74,3.28,3.28,0,0,1-.61-1.1,4.47,4.47,0,0,1,0-2.67,3.31,3.31,0,0,1,.59-1.11,2.9,2.9,0,0,1,1-.77A3,3,0,0,1,403,59.46Z"/><path class="cls-5" d="M407.39,66.21V59.65h.74v1.54h0a2.56,2.56,0,0,1,.9-1.2,2.32,2.32,0,0,1,1.38-.43h.29v.8h-.18a2.22,2.22,0,0,0-1.71.69,2.36,2.36,0,0,0-.64,1.69v3.48Z"/><path class="cls-5" d="M412.84,56.78v1.29H412V56.78Zm0,2.87v6.56H412V59.65Z"/><path class="cls-5" d="M421.11,62.93a4.77,4.77,0,0,1-.17,1.28,3.38,3.38,0,0,1-.53,1.11,2.69,2.69,0,0,1-.92.79,2.78,2.78,0,0,1-1.32.3,2.81,2.81,0,0,1-.71-.09,2.45,2.45,0,0,1-.65-.27,2.29,2.29,0,0,1-.54-.45,2.21,2.21,0,0,1-.38-.63h0v3.67h-.8v-9h.74V60.9h0a2.24,2.24,0,0,1,.39-.61,2.29,2.29,0,0,1,.55-.45,2.68,2.68,0,0,1,.67-.28,2.81,2.81,0,0,1,.74-.1,2.85,2.85,0,0,1,1.29.28,2.64,2.64,0,0,1,.92.75,3.32,3.32,0,0,1,.56,1.1A4.68,4.68,0,0,1,421.11,62.93Zm-.8,0a4.48,4.48,0,0,0-.11-1,2.84,2.84,0,0,0-.37-.9,2.07,2.07,0,0,0-.67-.66,1.9,1.9,0,0,0-1-.26,2.09,2.09,0,0,0-1.7.7,3.22,3.22,0,0,0-.58,2.1,4.19,4.19,0,0,0,.13,1,2.68,2.68,0,0,0,.4.9,2.1,2.1,0,0,0,.71.64,2.16,2.16,0,0,0,1.06.24,1.87,1.87,0,0,0,1-.24,2,2,0,0,0,.67-.63,2.87,2.87,0,0,0,.39-.9A4.14,4.14,0,0,0,420.31,62.93Z"/><path class="cls-5" d="M425.62,66.27H425a3,3,0,0,1-.68-.06,1,1,0,0,1-.45-.23.89.89,0,0,1-.25-.43,2.65,2.65,0,0,1-.07-.68V60.32h-1.32v-.67h1.32v-2h.8v2h1.5v.67h-1.5V64.8a1.75,1.75,0,0,0,0,.34.64.64,0,0,0,.11.26.5.5,0,0,0,.21.16.87.87,0,0,0,.35.06h.6l.21,0v.68Z"/><path class="cls-5" d="M428.4,56.78v1.29h-.8V56.78Zm0,2.87v6.56h-.8V59.65Z"/><path class="cls-5" d="M436.43,62.93a4.29,4.29,0,0,1-.2,1.31,3.31,3.31,0,0,1-.61,1.13,2.9,2.9,0,0,1-2.29,1,2.84,2.84,0,0,1-2.24-1,4.07,4.07,0,0,1,0-5,3.08,3.08,0,0,1,4.51,0A3.65,3.65,0,0,1,436.43,62.93Zm-.8,0a3.8,3.8,0,0,0-.13-1,2.82,2.82,0,0,0-.42-.9,2.24,2.24,0,0,0-.72-.65,2,2,0,0,0-1-.25,2,2,0,0,0-1,.24,2.24,2.24,0,0,0-.72.63,2.86,2.86,0,0,0-.44.9,3.66,3.66,0,0,0-.15,1,3.58,3.58,0,0,0,.14,1,3,3,0,0,0,.43.9,2.24,2.24,0,0,0,.71.65,2,2,0,0,0,1,.25,2,2,0,0,0,1-.24,2.34,2.34,0,0,0,.72-.63,2.8,2.8,0,0,0,.45-.89A3.54,3.54,0,0,0,435.62,62.93Z"/><path class="cls-5" d="M441.14,59.46a3.35,3.35,0,0,1,1.08.15,1.83,1.83,0,0,1,.74.46,1.87,1.87,0,0,1,.43.77,3.79,3.79,0,0,1,.14,1.08v4.28h-.8V62.06a2.2,2.2,0,0,0-.41-1.45,1.54,1.54,0,0,0-1.25-.49,2.07,2.07,0,0,0-.86.17,1.88,1.88,0,0,0-.65.48,2.15,2.15,0,0,0-.41.71,2.64,2.64,0,0,0-.14.88v3.84h-.8V59.65h.8v1.14h0a2,2,0,0,1,.35-.56,2.18,2.18,0,0,1,.49-.42,2.33,2.33,0,0,1,.6-.26A2.48,2.48,0,0,1,441.14,59.46Z"/><path class="cls-5" d="M451.84,66.27h-.66a3,3,0,0,1-.68-.06,1,1,0,0,1-.45-.23.89.89,0,0,1-.25-.43,2.65,2.65,0,0,1-.07-.68V60.32h-1.32v-.67h1.32v-2h.8v2H452v.67h-1.5V64.8a1.75,1.75,0,0,0,0,.34.64.64,0,0,0,.11.26.5.5,0,0,0,.21.16.87.87,0,0,0,.35.06h.6l.21,0v.68Z"/><path class="cls-5" d="M456.2,59.46a2.71,2.71,0,0,1,1.3.29,2.6,2.6,0,0,1,.9.79,3.44,3.44,0,0,1,.52,1.13,5.22,5.22,0,0,1,.17,1.34v.13H454a3.58,3.58,0,0,0,.13.94,2.58,2.58,0,0,0,.39.83,2,2,0,0,0,.66.59,1.92,1.92,0,0,0,.95.22,2.44,2.44,0,0,0,.7-.09,2,2,0,0,0,.56-.26,1.76,1.76,0,0,0,.42-.39,2.4,2.4,0,0,0,.29-.49h.79a3,3,0,0,1-.38.79,2.48,2.48,0,0,1-.59.6,2.68,2.68,0,0,1-.79.39,3.33,3.33,0,0,1-1,.14,2.94,2.94,0,0,1-1.3-.27,2.56,2.56,0,0,1-.91-.73,3.12,3.12,0,0,1-.54-1.1,5.13,5.13,0,0,1-.18-1.37,4.66,4.66,0,0,1,.18-1.28,3.37,3.37,0,0,1,.54-1.11,2.74,2.74,0,0,1,.92-.78A2.79,2.79,0,0,1,456.2,59.46Zm2.09,3a3,3,0,0,0-.16-.85,2.44,2.44,0,0,0-.41-.75,2.07,2.07,0,0,0-.65-.54,1.84,1.84,0,0,0-.88-.21,1.84,1.84,0,0,0-1.5.7,2.69,2.69,0,0,0-.42.75,4.32,4.32,0,0,0-.23.9Z"/><path class="cls-5" d="M460.93,59.65l1.87,2.5,1.83-2.5h1l-2.37,3.14,2.56,3.42h-1l-2.06-2.76-2,2.76h-1l2.55-3.41-2.36-3.15Z"/><path class="cls-5" d="M469.77,66.27h-.66a3,3,0,0,1-.68-.06A1,1,0,0,1,468,66a.89.89,0,0,1-.25-.43,2.65,2.65,0,0,1-.07-.68V60.32h-1.32v-.67h1.32v-2h.8v2H470v.67h-1.5V64.8a1.75,1.75,0,0,0,0,.34.64.64,0,0,0,.11.26.5.5,0,0,0,.21.16.87.87,0,0,0,.35.06h.6l.21,0v.68Z"/><path class="cls-5" d="M348,88.66v.7h-5.09v3.09h4.77v.69h-4.77v3.38h5.14v.7h-6V88.66Z"/><path class="cls-5" d="M349.5,90.65l2.06,5.76h0l2-5.76h.83L352,97.21h-.85l-2.54-6.56Z"/><path class="cls-5" d="M358.36,90.46a2.71,2.71,0,0,1,1.3.29,2.6,2.6,0,0,1,.9.79,3.44,3.44,0,0,1,.52,1.13,5.22,5.22,0,0,1,.17,1.34v.13h-5.05a3.58,3.58,0,0,0,.13.94,2.58,2.58,0,0,0,.39.83,2,2,0,0,0,.66.59,1.92,1.92,0,0,0,.95.22,2.44,2.44,0,0,0,.7-.09,2,2,0,0,0,.56-.26A1.76,1.76,0,0,0,360,96a2.4,2.4,0,0,0,.29-.49h.79a3,3,0,0,1-.38.79,2.48,2.48,0,0,1-.59.6,2.68,2.68,0,0,1-.79.39,3.33,3.33,0,0,1-1,.14,2.94,2.94,0,0,1-1.3-.27,2.56,2.56,0,0,1-.91-.73,3.12,3.12,0,0,1-.54-1.1,5.13,5.13,0,0,1-.18-1.37,4.66,4.66,0,0,1,.18-1.28,3.37,3.37,0,0,1,.54-1.11,2.74,2.74,0,0,1,.92-.78A2.79,2.79,0,0,1,358.36,90.46Zm2.09,3a3,3,0,0,0-.16-.85,2.44,2.44,0,0,0-.41-.75,2.07,2.07,0,0,0-.65-.54,1.84,1.84,0,0,0-.88-.21,1.84,1.84,0,0,0-1.5.7,2.69,2.69,0,0,0-.42.75,4.32,4.32,0,0,0-.23.9Z"/><path class="cls-5" d="M365.84,90.46a3.35,3.35,0,0,1,1.08.15,1.83,1.83,0,0,1,.74.46,1.87,1.87,0,0,1,.43.77,3.79,3.79,0,0,1,.14,1.08v4.28h-.8V93.06a2.2,2.2,0,0,0-.41-1.45,1.54,1.54,0,0,0-1.25-.49,2.07,2.07,0,0,0-.86.17,1.88,1.88,0,0,0-.65.48,2.15,2.15,0,0,0-.41.71,2.64,2.64,0,0,0-.14.88v3.84h-.8V90.65h.8v1.14h0a2,2,0,0,1,.35-.56,2.18,2.18,0,0,1,.49-.42,2.33,2.33,0,0,1,.6-.26A2.48,2.48,0,0,1,365.84,90.46Z"/><path class="cls-5" d="M373,97.27h-.66a3,3,0,0,1-.68-.06,1,1,0,0,1-.45-.23.89.89,0,0,1-.25-.43,2.65,2.65,0,0,1-.07-.68V91.32h-1.32v-.67h1.32v-2h.8v2h1.5v.67h-1.5V95.8a1.75,1.75,0,0,0,0,.34.64.64,0,0,0,.11.26.5.5,0,0,0,.21.16.87.87,0,0,0,.35.06h.6l.21,0v.68Z"/><path class="cls-5" d="M384.24,88.13v9.08h-.74V96h0a2,2,0,0,1-.39.59,2.58,2.58,0,0,1-.56.46,2.8,2.8,0,0,1-.67.29,2.63,2.63,0,0,1-.72.1,2.8,2.8,0,0,1-1.28-.28,2.68,2.68,0,0,1-.92-.75,3.32,3.32,0,0,1-.56-1.11,4.68,4.68,0,0,1-.19-1.34,4.83,4.83,0,0,1,.17-1.29,3.31,3.31,0,0,1,.53-1.11,2.68,2.68,0,0,1,.92-.78,3,3,0,0,1,2-.2,2.56,2.56,0,0,1,.65.27,2.26,2.26,0,0,1,.54.45,2.07,2.07,0,0,1,.38.63h0V88.13ZM379,93.93a4.17,4.17,0,0,0,.05.65,3.7,3.7,0,0,0,.16.64,2.81,2.81,0,0,0,.28.58,2.15,2.15,0,0,0,.41.48,1.8,1.8,0,0,0,.55.32,2,2,0,0,0,.7.12,2.07,2.07,0,0,0,1.73-.84,2.66,2.66,0,0,0,.43-.89,4,4,0,0,0,.14-1.06,4,4,0,0,0-.13-1,2.73,2.73,0,0,0-.41-.9,2.06,2.06,0,0,0-1.76-.87,1.94,1.94,0,0,0-.68.11,1.8,1.8,0,0,0-.54.31,2.14,2.14,0,0,0-.41.46,2.81,2.81,0,0,0-.29.58,3.51,3.51,0,0,0-.17.65A4.26,4.26,0,0,0,379,93.93Z"/><path class="cls-5" d="M389,90.46a2.71,2.71,0,0,1,1.3.29,2.6,2.6,0,0,1,.9.79,3.44,3.44,0,0,1,.52,1.13A5.22,5.22,0,0,1,391.9,94v.13h-5.05a3.58,3.58,0,0,0,.13.94,2.58,2.58,0,0,0,.39.83,2,2,0,0,0,.66.59,1.92,1.92,0,0,0,.95.22,2.44,2.44,0,0,0,.7-.09,2,2,0,0,0,.56-.26,1.76,1.76,0,0,0,.42-.39,2.4,2.4,0,0,0,.29-.49h.79a3,3,0,0,1-.38.79,2.48,2.48,0,0,1-.59.6,2.68,2.68,0,0,1-.79.39,3.33,3.33,0,0,1-1,.14,2.94,2.94,0,0,1-1.3-.27,2.56,2.56,0,0,1-.91-.73,3.12,3.12,0,0,1-.54-1.1,5.13,5.13,0,0,1-.18-1.37,4.66,4.66,0,0,1,.18-1.28,3.37,3.37,0,0,1,.54-1.11,2.74,2.74,0,0,1,.92-.78A2.79,2.79,0,0,1,389,90.46Zm2.09,3a3,3,0,0,0-.16-.85,2.44,2.44,0,0,0-.41-.75,2.07,2.07,0,0,0-.65-.54,1.84,1.84,0,0,0-.88-.21,1.84,1.84,0,0,0-1.5.7,2.69,2.69,0,0,0-.42.75,4.32,4.32,0,0,0-.23.9Z"/><path class="cls-5" d="M398.48,95.43a1.67,1.67,0,0,1-.22.88,1.89,1.89,0,0,1-.59.62,2.74,2.74,0,0,1-.84.36,4,4,0,0,1-1,.12,3.66,3.66,0,0,1-1.07-.14,2.4,2.4,0,0,1-.8-.41,2,2,0,0,1-.53-.64,2.4,2.4,0,0,1-.25-.85H394a1.7,1.7,0,0,0,.2.56,1.4,1.4,0,0,0,.38.43,1.8,1.8,0,0,0,.57.28,2.56,2.56,0,0,0,.74.1,3,3,0,0,0,.6-.06,2.05,2.05,0,0,0,.58-.21,1.36,1.36,0,0,0,.44-.38,1,1,0,0,0,.18-.59.93.93,0,0,0-.34-.73,2.6,2.6,0,0,0-1.13-.46l-1-.22a4,4,0,0,1-.77-.24,2.1,2.1,0,0,1-.58-.37,1.46,1.46,0,0,1-.36-.5,1.61,1.61,0,0,1-.12-.65,1.57,1.57,0,0,1,.21-.84,1.77,1.77,0,0,1,.56-.57,2.53,2.53,0,0,1,.78-.33,3.77,3.77,0,0,1,.89-.11,3.27,3.27,0,0,1,.92.12,2.28,2.28,0,0,1,.73.35,1.83,1.83,0,0,1,.5.57,2.08,2.08,0,0,1,.25.78h-.8a1.33,1.33,0,0,0-.19-.5,1.24,1.24,0,0,0-.36-.37,1.69,1.69,0,0,0-.5-.22,2.36,2.36,0,0,0-.61-.08,2.85,2.85,0,0,0-.58.06,1.59,1.59,0,0,0-.51.19,1.07,1.07,0,0,0-.36.35,1,1,0,0,0-.13.53.74.74,0,0,0,.13.44,1.27,1.27,0,0,0,.33.32,1.92,1.92,0,0,0,.44.22,3.65,3.65,0,0,0,.46.13l1.37.3a2.85,2.85,0,0,1,.59.21,1.77,1.77,0,0,1,.5.35,1.64,1.64,0,0,1,.34.51A1.72,1.72,0,0,1,398.48,95.43Z"/><path class="cls-5" d="M403,90.46a3.46,3.46,0,0,1,1,.13,2.53,2.53,0,0,1,.78.38,2,2,0,0,1,.56.61,2.31,2.31,0,0,1,.29.82h-.8a1.73,1.73,0,0,0-.22-.52,1.5,1.5,0,0,0-.37-.4,1.7,1.7,0,0,0-.53-.26,2.35,2.35,0,0,0-.68-.09,2,2,0,0,0-1,.23,2.19,2.19,0,0,0-.72.63,2.91,2.91,0,0,0-.44.9,3.58,3.58,0,0,0-.15,1,3.67,3.67,0,0,0,.14,1,2.88,2.88,0,0,0,.42.9,2.26,2.26,0,0,0,.71.65,2,2,0,0,0,1,.25,1.93,1.93,0,0,0,.71-.13,1.88,1.88,0,0,0,.56-.34,1.8,1.8,0,0,0,.39-.49,1.87,1.87,0,0,0,.21-.58h.8a3,3,0,0,1-.29.85,2.49,2.49,0,0,1-.55.7,2.54,2.54,0,0,1-.8.48,2.88,2.88,0,0,1-1,.18,3,3,0,0,1-1.29-.27,2.85,2.85,0,0,1-1-.74,3.28,3.28,0,0,1-.61-1.1,4.47,4.47,0,0,1,0-2.67,3.31,3.31,0,0,1,.59-1.11,2.9,2.9,0,0,1,1-.77A3,3,0,0,1,403,90.46Z"/><path class="cls-5" d="M407.39,97.21V90.65h.74v1.54h0a2.56,2.56,0,0,1,.9-1.2,2.32,2.32,0,0,1,1.38-.43h.29v.8h-.18a2.22,2.22,0,0,0-1.71.69,2.36,2.36,0,0,0-.64,1.69v3.48Z"/><path class="cls-5" d="M412.84,87.78v1.29H412V87.78Zm0,2.87v6.56H412V90.65Z"/><path class="cls-5" d="M421.11,93.93a4.77,4.77,0,0,1-.17,1.28,3.38,3.38,0,0,1-.53,1.11,2.69,2.69,0,0,1-.92.79,2.78,2.78,0,0,1-1.32.3,2.81,2.81,0,0,1-.71-.09,2.45,2.45,0,0,1-.65-.27,2.29,2.29,0,0,1-.54-.45,2.21,2.21,0,0,1-.38-.63h0v3.67h-.8v-9h.74V91.9h0a2.24,2.24,0,0,1,.39-.61,2.29,2.29,0,0,1,.55-.45,2.68,2.68,0,0,1,.67-.28,2.81,2.81,0,0,1,.74-.1,2.85,2.85,0,0,1,1.29.28,2.64,2.64,0,0,1,.92.75,3.32,3.32,0,0,1,.56,1.1A4.68,4.68,0,0,1,421.11,93.93Zm-.8,0a4.48,4.48,0,0,0-.11-1,2.84,2.84,0,0,0-.37-.9,2.07,2.07,0,0,0-.67-.66,1.9,1.9,0,0,0-1-.26,2.09,2.09,0,0,0-1.7.7,3.22,3.22,0,0,0-.58,2.1,4.19,4.19,0,0,0,.13,1,2.68,2.68,0,0,0,.4.9,2.1,2.1,0,0,0,.71.64,2.16,2.16,0,0,0,1.06.24,1.87,1.87,0,0,0,1-.24,2,2,0,0,0,.67-.63,2.87,2.87,0,0,0,.39-.9A4.14,4.14,0,0,0,420.31,93.93Z"/><path class="cls-5" d="M425.62,97.27H425a3,3,0,0,1-.68-.06,1,1,0,0,1-.45-.23.89.89,0,0,1-.25-.43,2.65,2.65,0,0,1-.07-.68V91.32h-1.32v-.67h1.32v-2h.8v2h1.5v.67h-1.5V95.8a1.75,1.75,0,0,0,0,.34.64.64,0,0,0,.11.26.5.5,0,0,0,.21.16.87.87,0,0,0,.35.06h.6l.21,0v.68Z"/><path class="cls-5" d="M428.4,87.78v1.29h-.8V87.78Zm0,2.87v6.56h-.8V90.65Z"/><path class="cls-5" d="M436.43,93.93a4.29,4.29,0,0,1-.2,1.31,3.31,3.31,0,0,1-.61,1.13,2.9,2.9,0,0,1-2.29,1,2.84,2.84,0,0,1-2.24-1,4.07,4.07,0,0,1,0-5,3.08,3.08,0,0,1,4.51,0A3.65,3.65,0,0,1,436.43,93.93Zm-.8,0a3.8,3.8,0,0,0-.13-1,2.82,2.82,0,0,0-.42-.9,2.24,2.24,0,0,0-.72-.65,2,2,0,0,0-1-.25,2,2,0,0,0-1,.24,2.24,2.24,0,0,0-.72.63,2.86,2.86,0,0,0-.44.9,3.66,3.66,0,0,0-.15,1,3.58,3.58,0,0,0,.14,1,3,3,0,0,0,.43.9,2.24,2.24,0,0,0,.71.65,2,2,0,0,0,1,.25,2,2,0,0,0,1-.24,2.34,2.34,0,0,0,.72-.63,2.8,2.8,0,0,0,.45-.89A3.54,3.54,0,0,0,435.62,93.93Z"/><path class="cls-5" d="M441.14,90.46a3.35,3.35,0,0,1,1.08.15,1.83,1.83,0,0,1,.74.46,1.87,1.87,0,0,1,.43.77,3.79,3.79,0,0,1,.14,1.08v4.28h-.8V93.06a2.2,2.2,0,0,0-.41-1.45,1.54,1.54,0,0,0-1.25-.49,2.07,2.07,0,0,0-.86.17,1.88,1.88,0,0,0-.65.48,2.15,2.15,0,0,0-.41.71,2.64,2.64,0,0,0-.14.88v3.84h-.8V90.65h.8v1.14h0a2,2,0,0,1,.35-.56,2.18,2.18,0,0,1,.49-.42,2.33,2.33,0,0,1,.6-.26A2.48,2.48,0,0,1,441.14,90.46Z"/><path class="cls-5" d="M451.84,97.27h-.66a3,3,0,0,1-.68-.06,1,1,0,0,1-.45-.23.89.89,0,0,1-.25-.43,2.65,2.65,0,0,1-.07-.68V91.32h-1.32v-.67h1.32v-2h.8v2H452v.67h-1.5V95.8a1.75,1.75,0,0,0,0,.34.64.64,0,0,0,.11.26.5.5,0,0,0,.21.16.87.87,0,0,0,.35.06h.6l.21,0v.68Z"/><path class="cls-5" d="M456.2,90.46a2.71,2.71,0,0,1,1.3.29,2.6,2.6,0,0,1,.9.79,3.44,3.44,0,0,1,.52,1.13,5.22,5.22,0,0,1,.17,1.34v.13H454a3.58,3.58,0,0,0,.13.94,2.58,2.58,0,0,0,.39.83,2,2,0,0,0,.66.59,1.92,1.92,0,0,0,.95.22,2.44,2.44,0,0,0,.7-.09,2,2,0,0,0,.56-.26,1.76,1.76,0,0,0,.42-.39,2.4,2.4,0,0,0,.29-.49h.79a3,3,0,0,1-.38.79,2.48,2.48,0,0,1-.59.6,2.68,2.68,0,0,1-.79.39,3.33,3.33,0,0,1-1,.14,2.94,2.94,0,0,1-1.3-.27,2.56,2.56,0,0,1-.91-.73,3.12,3.12,0,0,1-.54-1.1,5.13,5.13,0,0,1-.18-1.37,4.66,4.66,0,0,1,.18-1.28,3.37,3.37,0,0,1,.54-1.11,2.74,2.74,0,0,1,.92-.78A2.79,2.79,0,0,1,456.2,90.46Zm2.09,3a3,3,0,0,0-.16-.85,2.44,2.44,0,0,0-.41-.75,2.07,2.07,0,0,0-.65-.54,1.84,1.84,0,0,0-.88-.21,1.84,1.84,0,0,0-1.5.7,2.69,2.69,0,0,0-.42.75,4.32,4.32,0,0,0-.23.9Z"/><path class="cls-5" d="M460.93,90.65l1.87,2.5,1.83-2.5h1l-2.37,3.14,2.56,3.42h-1l-2.06-2.76-2,2.76h-1l2.55-3.41-2.36-3.15Z"/><path class="cls-5" d="M469.77,97.27h-.66a3,3,0,0,1-.68-.06A1,1,0,0,1,468,97a.89.89,0,0,1-.25-.43,2.65,2.65,0,0,1-.07-.68V91.32h-1.32v-.67h1.32v-2h.8v2H470v.67h-1.5V95.8a1.75,1.75,0,0,0,0,.34.64.64,0,0,0,.11.26.5.5,0,0,0,.21.16.87.87,0,0,0,.35.06h.6l.21,0v.68Z"/><path class="cls-5" d="M348,119.66v.7h-5.09v3.09h4.77v.69h-4.77v3.38h5.14v.7h-6v-8.55Z"/><path class="cls-5" d="M349.5,121.65l2.06,5.76h0l2-5.76h.83L352,128.21h-.85l-2.54-6.56Z"/><path class="cls-5" d="M358.36,121.46a2.71,2.71,0,0,1,1.3.29,2.6,2.6,0,0,1,.9.79,3.44,3.44,0,0,1,.52,1.13,5.22,5.22,0,0,1,.17,1.34v.13h-5.05a3.58,3.58,0,0,0,.13.94,2.58,2.58,0,0,0,.39.83,2,2,0,0,0,.66.59,1.92,1.92,0,0,0,.95.22,2.44,2.44,0,0,0,.7-.09,2,2,0,0,0,.56-.26A1.76,1.76,0,0,0,360,127a2.4,2.4,0,0,0,.29-.49h.79a3,3,0,0,1-.38.79,2.48,2.48,0,0,1-.59.6,2.68,2.68,0,0,1-.79.39,3.33,3.33,0,0,1-1,.14,2.94,2.94,0,0,1-1.3-.27,2.56,2.56,0,0,1-.91-.73,3.12,3.12,0,0,1-.54-1.1,5.13,5.13,0,0,1-.18-1.37,4.66,4.66,0,0,1,.18-1.28,3.37,3.37,0,0,1,.54-1.11,2.74,2.74,0,0,1,.92-.78A2.79,2.79,0,0,1,358.36,121.46Zm2.09,3a3,3,0,0,0-.16-.85,2.44,2.44,0,0,0-.41-.75,2.07,2.07,0,0,0-.65-.54,1.84,1.84,0,0,0-.88-.21,1.84,1.84,0,0,0-1.5.7,2.69,2.69,0,0,0-.42.75,4.32,4.32,0,0,0-.23.9Z"/><path class="cls-5" d="M365.84,121.46a3.35,3.35,0,0,1,1.08.15,1.83,1.83,0,0,1,.74.46,1.87,1.87,0,0,1,.43.77,3.79,3.79,0,0,1,.14,1.08v4.28h-.8v-4.15a2.2,2.2,0,0,0-.41-1.45,1.54,1.54,0,0,0-1.25-.49,2.07,2.07,0,0,0-.86.17,1.88,1.88,0,0,0-.65.48,2.15,2.15,0,0,0-.41.71,2.64,2.64,0,0,0-.14.88v3.84h-.8v-6.56h.8v1.14h0a2,2,0,0,1,.35-.56,2.18,2.18,0,0,1,.49-.42,2.33,2.33,0,0,1,.6-.26A2.48,2.48,0,0,1,365.84,121.46Z"/><path class="cls-5" d="M373,128.27h-.66a3,3,0,0,1-.68-.06,1,1,0,0,1-.45-.23.89.89,0,0,1-.25-.43,2.65,2.65,0,0,1-.07-.68v-4.56h-1.32v-.67h1.32v-2h.8v2h1.5v.67h-1.5v4.48a1.75,1.75,0,0,0,0,.34.64.64,0,0,0,.11.26.5.5,0,0,0,.21.16.87.87,0,0,0,.35.06h.6l.21,0v.68Z"/><path class="cls-5" d="M384.24,119.13v9.08h-.74V127h0a2,2,0,0,1-.39.59,2.58,2.58,0,0,1-.56.46,2.8,2.8,0,0,1-.67.29,2.63,2.63,0,0,1-.72.1,2.8,2.8,0,0,1-1.28-.28,2.68,2.68,0,0,1-.92-.75,3.32,3.32,0,0,1-.56-1.11,4.68,4.68,0,0,1-.19-1.34,4.83,4.83,0,0,1,.17-1.29,3.31,3.31,0,0,1,.53-1.11,2.68,2.68,0,0,1,.92-.78,3,3,0,0,1,2-.2,2.56,2.56,0,0,1,.65.27,2.26,2.26,0,0,1,.54.45,2.07,2.07,0,0,1,.38.63h0v-3.77Zm-5.26,5.8a4.17,4.17,0,0,0,.05.65,3.7,3.7,0,0,0,.16.64,2.81,2.81,0,0,0,.28.58,2.15,2.15,0,0,0,.41.48,1.8,1.8,0,0,0,.55.32,2,2,0,0,0,.7.12,2.07,2.07,0,0,0,1.73-.84,2.66,2.66,0,0,0,.43-.89,4,4,0,0,0,.14-1.06,4,4,0,0,0-.13-1,2.73,2.73,0,0,0-.41-.9,2.06,2.06,0,0,0-1.76-.87,1.94,1.94,0,0,0-.68.11,1.8,1.8,0,0,0-.54.31,2.14,2.14,0,0,0-.41.46,2.81,2.81,0,0,0-.29.58,3.51,3.51,0,0,0-.17.65A4.26,4.26,0,0,0,379,124.93Z"/><path class="cls-5" d="M389,121.46a2.71,2.71,0,0,1,1.3.29,2.6,2.6,0,0,1,.9.79,3.44,3.44,0,0,1,.52,1.13,5.22,5.22,0,0,1,.17,1.34v.13h-5.05a3.58,3.58,0,0,0,.13.94,2.58,2.58,0,0,0,.39.83,2,2,0,0,0,.66.59,1.92,1.92,0,0,0,.95.22,2.44,2.44,0,0,0,.7-.09,2,2,0,0,0,.56-.26,1.76,1.76,0,0,0,.42-.39,2.4,2.4,0,0,0,.29-.49h.79a3,3,0,0,1-.38.79,2.48,2.48,0,0,1-.59.6,2.68,2.68,0,0,1-.79.39,3.33,3.33,0,0,1-1,.14,2.94,2.94,0,0,1-1.3-.27,2.56,2.56,0,0,1-.91-.73,3.12,3.12,0,0,1-.54-1.1,5.13,5.13,0,0,1-.18-1.37,4.66,4.66,0,0,1,.18-1.28,3.37,3.37,0,0,1,.54-1.11,2.74,2.74,0,0,1,.92-.78A2.79,2.79,0,0,1,389,121.46Zm2.09,3a3,3,0,0,0-.16-.85,2.44,2.44,0,0,0-.41-.75,2.07,2.07,0,0,0-.65-.54,1.84,1.84,0,0,0-.88-.21,1.84,1.84,0,0,0-1.5.7,2.69,2.69,0,0,0-.42.75,4.32,4.32,0,0,0-.23.9Z"/><path class="cls-5" d="M398.48,126.43a1.67,1.67,0,0,1-.22.88,1.89,1.89,0,0,1-.59.62,2.74,2.74,0,0,1-.84.36,4,4,0,0,1-1,.12,3.66,3.66,0,0,1-1.07-.14,2.4,2.4,0,0,1-.8-.41,2,2,0,0,1-.53-.64,2.4,2.4,0,0,1-.25-.85H394a1.7,1.7,0,0,0,.2.56,1.4,1.4,0,0,0,.38.43,1.8,1.8,0,0,0,.57.28,2.56,2.56,0,0,0,.74.1,3,3,0,0,0,.6-.06,2.05,2.05,0,0,0,.58-.21,1.36,1.36,0,0,0,.44-.38,1,1,0,0,0,.18-.59.93.93,0,0,0-.34-.73,2.6,2.6,0,0,0-1.13-.46l-1-.22a4,4,0,0,1-.77-.24,2.1,2.1,0,0,1-.58-.37,1.46,1.46,0,0,1-.36-.5,1.61,1.61,0,0,1-.12-.65,1.57,1.57,0,0,1,.21-.84,1.77,1.77,0,0,1,.56-.57,2.53,2.53,0,0,1,.78-.33,3.77,3.77,0,0,1,.89-.11,3.27,3.27,0,0,1,.92.12,2.28,2.28,0,0,1,.73.35,1.83,1.83,0,0,1,.5.57,2.08,2.08,0,0,1,.25.78h-.8a1.33,1.33,0,0,0-.19-.5,1.24,1.24,0,0,0-.36-.37,1.69,1.69,0,0,0-.5-.22,2.36,2.36,0,0,0-.61-.08,2.85,2.85,0,0,0-.58.06,1.59,1.59,0,0,0-.51.19,1.07,1.07,0,0,0-.36.35,1,1,0,0,0-.13.53.74.74,0,0,0,.13.44,1.27,1.27,0,0,0,.33.32,1.92,1.92,0,0,0,.44.22,3.65,3.65,0,0,0,.46.13l1.37.3a2.85,2.85,0,0,1,.59.21,1.77,1.77,0,0,1,.5.35,1.64,1.64,0,0,1,.34.51A1.72,1.72,0,0,1,398.48,126.43Z"/><path class="cls-5" d="M403,121.46a3.46,3.46,0,0,1,1,.13,2.53,2.53,0,0,1,.78.38,2,2,0,0,1,.56.61,2.31,2.31,0,0,1,.29.82h-.8a1.73,1.73,0,0,0-.22-.52,1.5,1.5,0,0,0-.37-.4,1.7,1.7,0,0,0-.53-.26,2.35,2.35,0,0,0-.68-.09,2,2,0,0,0-1,.23,2.19,2.19,0,0,0-.72.63,2.91,2.91,0,0,0-.44.9,3.58,3.58,0,0,0-.15,1,3.67,3.67,0,0,0,.14,1,2.88,2.88,0,0,0,.42.9,2.26,2.26,0,0,0,.71.65,2,2,0,0,0,1,.25,1.93,1.93,0,0,0,.71-.13,1.88,1.88,0,0,0,.56-.34,1.8,1.8,0,0,0,.39-.49,1.87,1.87,0,0,0,.21-.58h.8a3,3,0,0,1-.29.85,2.49,2.49,0,0,1-.55.7,2.54,2.54,0,0,1-.8.48,2.88,2.88,0,0,1-1,.18,3,3,0,0,1-1.29-.27,2.85,2.85,0,0,1-1-.74,3.28,3.28,0,0,1-.61-1.1,4.47,4.47,0,0,1,0-2.67,3.31,3.31,0,0,1,.59-1.11,2.9,2.9,0,0,1,1-.77A3,3,0,0,1,403,121.46Z"/><path class="cls-5" d="M407.39,128.21v-6.56h.74v1.54h0a2.56,2.56,0,0,1,.9-1.2,2.32,2.32,0,0,1,1.38-.43h.29v.8h-.18a2.22,2.22,0,0,0-1.71.69,2.36,2.36,0,0,0-.64,1.69v3.48Z"/><path class="cls-5" d="M412.84,118.78v1.29H412v-1.29Zm0,2.87v6.56H412v-6.56Z"/><path class="cls-5" d="M421.11,124.93a4.77,4.77,0,0,1-.17,1.28,3.38,3.38,0,0,1-.53,1.11,2.69,2.69,0,0,1-.92.79,2.78,2.78,0,0,1-1.32.3,2.81,2.81,0,0,1-.71-.09,2.45,2.45,0,0,1-.65-.27,2.29,2.29,0,0,1-.54-.45,2.21,2.21,0,0,1-.38-.63h0v3.67h-.8v-9h.74v1.25h0a2.24,2.24,0,0,1,.39-.61,2.29,2.29,0,0,1,.55-.45,2.68,2.68,0,0,1,.67-.28,2.81,2.81,0,0,1,.74-.1,2.85,2.85,0,0,1,1.29.28,2.64,2.64,0,0,1,.92.75,3.32,3.32,0,0,1,.56,1.1A4.68,4.68,0,0,1,421.11,124.93Zm-.8,0a4.48,4.48,0,0,0-.11-1,2.84,2.84,0,0,0-.37-.9,2.07,2.07,0,0,0-.67-.66,1.9,1.9,0,0,0-1-.26,2.09,2.09,0,0,0-1.7.7,3.22,3.22,0,0,0-.58,2.1,4.19,4.19,0,0,0,.13,1,2.68,2.68,0,0,0,.4.9,2.1,2.1,0,0,0,.71.64,2.16,2.16,0,0,0,1.06.24,1.87,1.87,0,0,0,1-.24,2,2,0,0,0,.67-.63,2.87,2.87,0,0,0,.39-.9A4.14,4.14,0,0,0,420.31,124.93Z"/><path class="cls-5" d="M425.62,128.27H425a3,3,0,0,1-.68-.06,1,1,0,0,1-.45-.23.89.89,0,0,1-.25-.43,2.65,2.65,0,0,1-.07-.68v-4.56h-1.32v-.67h1.32v-2h.8v2h1.5v.67h-1.5v4.48a1.75,1.75,0,0,0,0,.34.64.64,0,0,0,.11.26.5.5,0,0,0,.21.16.87.87,0,0,0,.35.06h.6l.21,0v.68Z"/><path class="cls-5" d="M428.4,118.78v1.29h-.8v-1.29Zm0,2.87v6.56h-.8v-6.56Z"/><path class="cls-5" d="M436.43,124.93a4.29,4.29,0,0,1-.2,1.31,3.31,3.31,0,0,1-.61,1.13,2.9,2.9,0,0,1-2.29,1,2.84,2.84,0,0,1-2.24-1,4.07,4.07,0,0,1,0-5,3.08,3.08,0,0,1,4.51,0A3.65,3.65,0,0,1,436.43,124.93Zm-.8,0a3.8,3.8,0,0,0-.13-1,2.82,2.82,0,0,0-.42-.9,2.24,2.24,0,0,0-.72-.65,2,2,0,0,0-1-.25,2,2,0,0,0-1,.24,2.24,2.24,0,0,0-.72.63,2.86,2.86,0,0,0-.44.9,3.66,3.66,0,0,0-.15,1,3.58,3.58,0,0,0,.14,1,3,3,0,0,0,.43.9,2.24,2.24,0,0,0,.71.65,2,2,0,0,0,1,.25,2,2,0,0,0,1-.24,2.34,2.34,0,0,0,.72-.63,2.8,2.8,0,0,0,.45-.89A3.54,3.54,0,0,0,435.62,124.93Z"/><path class="cls-5" d="M441.14,121.46a3.35,3.35,0,0,1,1.08.15,1.83,1.83,0,0,1,.74.46,1.87,1.87,0,0,1,.43.77,3.79,3.79,0,0,1,.14,1.08v4.28h-.8v-4.15a2.2,2.2,0,0,0-.41-1.45,1.54,1.54,0,0,0-1.25-.49,2.07,2.07,0,0,0-.86.17,1.88,1.88,0,0,0-.65.48,2.15,2.15,0,0,0-.41.71,2.64,2.64,0,0,0-.14.88v3.84h-.8v-6.56h.8v1.14h0a2,2,0,0,1,.35-.56,2.18,2.18,0,0,1,.49-.42,2.33,2.33,0,0,1,.6-.26A2.48,2.48,0,0,1,441.14,121.46Z"/><path class="cls-5" d="M451.84,128.27h-.66a3,3,0,0,1-.68-.06,1,1,0,0,1-.45-.23.89.89,0,0,1-.25-.43,2.65,2.65,0,0,1-.07-.68v-4.56h-1.32v-.67h1.32v-2h.8v2H452v.67h-1.5v4.48a1.75,1.75,0,0,0,0,.34.64.64,0,0,0,.11.26.5.5,0,0,0,.21.16.87.87,0,0,0,.35.06h.6l.21,0v.68Z"/><path class="cls-5" d="M456.2,121.46a2.71,2.71,0,0,1,1.3.29,2.6,2.6,0,0,1,.9.79,3.44,3.44,0,0,1,.52,1.13,5.22,5.22,0,0,1,.17,1.34v.13H454a3.58,3.58,0,0,0,.13.94,2.58,2.58,0,0,0,.39.83,2,2,0,0,0,.66.59,1.92,1.92,0,0,0,.95.22,2.44,2.44,0,0,0,.7-.09,2,2,0,0,0,.56-.26,1.76,1.76,0,0,0,.42-.39,2.4,2.4,0,0,0,.29-.49h.79a3,3,0,0,1-.38.79,2.48,2.48,0,0,1-.59.6,2.68,2.68,0,0,1-.79.39,3.33,3.33,0,0,1-1,.14,2.94,2.94,0,0,1-1.3-.27,2.56,2.56,0,0,1-.91-.73,3.12,3.12,0,0,1-.54-1.1,5.13,5.13,0,0,1-.18-1.37,4.66,4.66,0,0,1,.18-1.28,3.37,3.37,0,0,1,.54-1.11,2.74,2.74,0,0,1,.92-.78A2.79,2.79,0,0,1,456.2,121.46Zm2.09,3a3,3,0,0,0-.16-.85,2.44,2.44,0,0,0-.41-.75,2.07,2.07,0,0,0-.65-.54,1.84,1.84,0,0,0-.88-.21,1.84,1.84,0,0,0-1.5.7,2.69,2.69,0,0,0-.42.75,4.32,4.32,0,0,0-.23.9Z"/><path class="cls-5" d="M460.93,121.65l1.87,2.5,1.83-2.5h1l-2.37,3.14,2.56,3.42h-1l-2.06-2.76-2,2.76h-1l2.55-3.41-2.36-3.15Z"/><path class="cls-5" d="M469.77,128.27h-.66a3,3,0,0,1-.68-.06A1,1,0,0,1,468,128a.89.89,0,0,1-.25-.43,2.65,2.65,0,0,1-.07-.68v-4.56h-1.32v-.67h1.32v-2h.8v2H470v.67h-1.5v4.48a1.75,1.75,0,0,0,0,.34.64.64,0,0,0,.11.26.5.5,0,0,0,.21.16.87.87,0,0,0,.35.06h.6l.21,0v.68Z"/><path class="cls-5" d="M348,150.66v.7h-5.09v3.09h4.77v.69h-4.77v3.38h5.14v.7h-6v-8.55Z"/><path class="cls-5" d="M349.5,152.65l2.06,5.76h0l2-5.76h.83L352,159.21h-.85l-2.54-6.56Z"/><path class="cls-5" d="M358.36,152.46a2.71,2.71,0,0,1,1.3.29,2.6,2.6,0,0,1,.9.79,3.44,3.44,0,0,1,.52,1.13,5.22,5.22,0,0,1,.17,1.34v.13h-5.05a3.58,3.58,0,0,0,.13.94,2.58,2.58,0,0,0,.39.83,2,2,0,0,0,.66.59,1.92,1.92,0,0,0,.95.22,2.44,2.44,0,0,0,.7-.09,2,2,0,0,0,.56-.26A1.76,1.76,0,0,0,360,158a2.4,2.4,0,0,0,.29-.49h.79a3,3,0,0,1-.38.79,2.48,2.48,0,0,1-.59.6,2.68,2.68,0,0,1-.79.39,3.33,3.33,0,0,1-1,.14,2.94,2.94,0,0,1-1.3-.27,2.56,2.56,0,0,1-.91-.73,3.12,3.12,0,0,1-.54-1.1,5.13,5.13,0,0,1-.18-1.37,4.66,4.66,0,0,1,.18-1.28,3.37,3.37,0,0,1,.54-1.11,2.74,2.74,0,0,1,.92-.78A2.79,2.79,0,0,1,358.36,152.46Zm2.09,3a3,3,0,0,0-.16-.85,2.44,2.44,0,0,0-.41-.75,2.07,2.07,0,0,0-.65-.54,1.84,1.84,0,0,0-.88-.21,1.84,1.84,0,0,0-1.5.7,2.69,2.69,0,0,0-.42.75,4.32,4.32,0,0,0-.23.9Z"/><path class="cls-5" d="M365.84,152.46a3.35,3.35,0,0,1,1.08.15,1.83,1.83,0,0,1,.74.46,1.87,1.87,0,0,1,.43.77,3.79,3.79,0,0,1,.14,1.08v4.28h-.8v-4.15a2.2,2.2,0,0,0-.41-1.45,1.54,1.54,0,0,0-1.25-.49,2.07,2.07,0,0,0-.86.17,1.88,1.88,0,0,0-.65.48,2.15,2.15,0,0,0-.41.71,2.64,2.64,0,0,0-.14.88v3.84h-.8v-6.56h.8v1.14h0a2,2,0,0,1,.35-.56,2.18,2.18,0,0,1,.49-.42,2.33,2.33,0,0,1,.6-.26A2.48,2.48,0,0,1,365.84,152.46Z"/><path class="cls-5" d="M373,159.27h-.66a3,3,0,0,1-.68-.06,1,1,0,0,1-.45-.23.89.89,0,0,1-.25-.43,2.65,2.65,0,0,1-.07-.68v-4.56h-1.32v-.67h1.32v-2h.8v2h1.5v.67h-1.5v4.48a1.75,1.75,0,0,0,0,.34.64.64,0,0,0,.11.26.5.5,0,0,0,.21.16.87.87,0,0,0,.35.06h.6l.21,0v.68Z"/><path class="cls-5" d="M384.24,150.13v9.08h-.74V158h0a2,2,0,0,1-.39.59,2.58,2.58,0,0,1-.56.46,2.8,2.8,0,0,1-.67.29,2.63,2.63,0,0,1-.72.1,2.8,2.8,0,0,1-1.28-.28,2.68,2.68,0,0,1-.92-.75,3.32,3.32,0,0,1-.56-1.11,4.68,4.68,0,0,1-.19-1.34,4.83,4.83,0,0,1,.17-1.29,3.31,3.31,0,0,1,.53-1.11,2.68,2.68,0,0,1,.92-.78,3,3,0,0,1,2-.2,2.56,2.56,0,0,1,.65.27,2.26,2.26,0,0,1,.54.45,2.07,2.07,0,0,1,.38.63h0v-3.77Zm-5.26,5.8a4.17,4.17,0,0,0,.05.65,3.7,3.7,0,0,0,.16.64,2.81,2.81,0,0,0,.28.58,2.15,2.15,0,0,0,.41.48,1.8,1.8,0,0,0,.55.32,2,2,0,0,0,.7.12,2.07,2.07,0,0,0,1.73-.84,2.66,2.66,0,0,0,.43-.89,4,4,0,0,0,.14-1.06,4,4,0,0,0-.13-1,2.73,2.73,0,0,0-.41-.9,2.06,2.06,0,0,0-1.76-.87,1.94,1.94,0,0,0-.68.11,1.8,1.8,0,0,0-.54.31,2.14,2.14,0,0,0-.41.46,2.81,2.81,0,0,0-.29.58,3.51,3.51,0,0,0-.17.65A4.26,4.26,0,0,0,379,155.93Z"/><path class="cls-5" d="M389,152.46a2.71,2.71,0,0,1,1.3.29,2.6,2.6,0,0,1,.9.79,3.44,3.44,0,0,1,.52,1.13,5.22,5.22,0,0,1,.17,1.34v.13h-5.05a3.58,3.58,0,0,0,.13.94,2.58,2.58,0,0,0,.39.83,2,2,0,0,0,.66.59,1.92,1.92,0,0,0,.95.22,2.44,2.44,0,0,0,.7-.09,2,2,0,0,0,.56-.26,1.76,1.76,0,0,0,.42-.39,2.4,2.4,0,0,0,.29-.49h.79a3,3,0,0,1-.38.79,2.48,2.48,0,0,1-.59.6,2.68,2.68,0,0,1-.79.39,3.33,3.33,0,0,1-1,.14,2.94,2.94,0,0,1-1.3-.27,2.56,2.56,0,0,1-.91-.73,3.12,3.12,0,0,1-.54-1.1,5.13,5.13,0,0,1-.18-1.37,4.66,4.66,0,0,1,.18-1.28,3.37,3.37,0,0,1,.54-1.11,2.74,2.74,0,0,1,.92-.78A2.79,2.79,0,0,1,389,152.46Zm2.09,3a3,3,0,0,0-.16-.85,2.44,2.44,0,0,0-.41-.75,2.07,2.07,0,0,0-.65-.54,1.84,1.84,0,0,0-.88-.21,1.84,1.84,0,0,0-1.5.7,2.69,2.69,0,0,0-.42.75,4.32,4.32,0,0,0-.23.9Z"/><path class="cls-5" d="M398.48,157.43a1.67,1.67,0,0,1-.22.88,1.89,1.89,0,0,1-.59.62,2.74,2.74,0,0,1-.84.36,4,4,0,0,1-1,.12,3.66,3.66,0,0,1-1.07-.14,2.4,2.4,0,0,1-.8-.41,2,2,0,0,1-.53-.64,2.4,2.4,0,0,1-.25-.85H394a1.7,1.7,0,0,0,.2.56,1.4,1.4,0,0,0,.38.43,1.8,1.8,0,0,0,.57.28,2.56,2.56,0,0,0,.74.1,3,3,0,0,0,.6-.06,2.05,2.05,0,0,0,.58-.21,1.36,1.36,0,0,0,.44-.38,1,1,0,0,0,.18-.59.93.93,0,0,0-.34-.73,2.6,2.6,0,0,0-1.13-.46l-1-.22a4,4,0,0,1-.77-.24,2.1,2.1,0,0,1-.58-.37,1.46,1.46,0,0,1-.36-.5,1.61,1.61,0,0,1-.12-.65,1.57,1.57,0,0,1,.21-.84,1.77,1.77,0,0,1,.56-.57,2.53,2.53,0,0,1,.78-.33,3.77,3.77,0,0,1,.89-.11,3.27,3.27,0,0,1,.92.12,2.28,2.28,0,0,1,.73.35,1.83,1.83,0,0,1,.5.57,2.08,2.08,0,0,1,.25.78h-.8a1.33,1.33,0,0,0-.19-.5,1.24,1.24,0,0,0-.36-.37,1.69,1.69,0,0,0-.5-.22,2.36,2.36,0,0,0-.61-.08,2.85,2.85,0,0,0-.58.06,1.59,1.59,0,0,0-.51.19,1.07,1.07,0,0,0-.36.35,1,1,0,0,0-.13.53.74.74,0,0,0,.13.44,1.27,1.27,0,0,0,.33.32,1.92,1.92,0,0,0,.44.22,3.65,3.65,0,0,0,.46.13l1.37.3a2.85,2.85,0,0,1,.59.21,1.77,1.77,0,0,1,.5.35,1.64,1.64,0,0,1,.34.51A1.72,1.72,0,0,1,398.48,157.43Z"/><path class="cls-5" d="M403,152.46a3.46,3.46,0,0,1,1,.13,2.53,2.53,0,0,1,.78.38,2,2,0,0,1,.56.61,2.31,2.31,0,0,1,.29.82h-.8a1.73,1.73,0,0,0-.22-.52,1.5,1.5,0,0,0-.37-.4,1.7,1.7,0,0,0-.53-.26,2.35,2.35,0,0,0-.68-.09,2,2,0,0,0-1,.23,2.19,2.19,0,0,0-.72.63,2.91,2.91,0,0,0-.44.9,3.58,3.58,0,0,0-.15,1,3.67,3.67,0,0,0,.14,1,2.88,2.88,0,0,0,.42.9,2.26,2.26,0,0,0,.71.65,2,2,0,0,0,1,.25,1.93,1.93,0,0,0,.71-.13,1.88,1.88,0,0,0,.56-.34,1.8,1.8,0,0,0,.39-.49,1.87,1.87,0,0,0,.21-.58h.8a3,3,0,0,1-.29.85,2.49,2.49,0,0,1-.55.7,2.54,2.54,0,0,1-.8.48,2.88,2.88,0,0,1-1,.18,3,3,0,0,1-1.29-.27,2.85,2.85,0,0,1-1-.74,3.28,3.28,0,0,1-.61-1.1,4.47,4.47,0,0,1,0-2.67,3.31,3.31,0,0,1,.59-1.11,2.9,2.9,0,0,1,1-.77A3,3,0,0,1,403,152.46Z"/><path class="cls-5" d="M407.39,159.21v-6.56h.74v1.54h0a2.56,2.56,0,0,1,.9-1.2,2.32,2.32,0,0,1,1.38-.43h.29v.8h-.18a2.22,2.22,0,0,0-1.71.69,2.36,2.36,0,0,0-.64,1.69v3.48Z"/><path class="cls-5" d="M412.84,149.78v1.29H412v-1.29Zm0,2.87v6.56H412v-6.56Z"/><path class="cls-5" d="M421.11,155.93a4.77,4.77,0,0,1-.17,1.28,3.38,3.38,0,0,1-.53,1.11,2.69,2.69,0,0,1-.92.79,2.78,2.78,0,0,1-1.32.3,2.81,2.81,0,0,1-.71-.09,2.45,2.45,0,0,1-.65-.27,2.29,2.29,0,0,1-.54-.45,2.21,2.21,0,0,1-.38-.63h0v3.67h-.8v-9h.74v1.25h0a2.24,2.24,0,0,1,.39-.61,2.29,2.29,0,0,1,.55-.45,2.68,2.68,0,0,1,.67-.28,2.81,2.81,0,0,1,.74-.1,2.85,2.85,0,0,1,1.29.28,2.64,2.64,0,0,1,.92.75,3.32,3.32,0,0,1,.56,1.1A4.68,4.68,0,0,1,421.11,155.93Zm-.8,0a4.48,4.48,0,0,0-.11-1,2.84,2.84,0,0,0-.37-.9,2.07,2.07,0,0,0-.67-.66,1.9,1.9,0,0,0-1-.26,2.09,2.09,0,0,0-1.7.7,3.22,3.22,0,0,0-.58,2.1,4.19,4.19,0,0,0,.13,1,2.68,2.68,0,0,0,.4.9,2.1,2.1,0,0,0,.71.64,2.16,2.16,0,0,0,1.06.24,1.87,1.87,0,0,0,1-.24,2,2,0,0,0,.67-.63,2.87,2.87,0,0,0,.39-.9A4.14,4.14,0,0,0,420.31,155.93Z"/><path class="cls-5" d="M425.62,159.27H425a3,3,0,0,1-.68-.06,1,1,0,0,1-.45-.23.89.89,0,0,1-.25-.43,2.65,2.65,0,0,1-.07-.68v-4.56h-1.32v-.67h1.32v-2h.8v2h1.5v.67h-1.5v4.48a1.75,1.75,0,0,0,0,.34.64.64,0,0,0,.11.26.5.5,0,0,0,.21.16.87.87,0,0,0,.35.06h.6l.21,0v.68Z"/><path class="cls-5" d="M428.4,149.78v1.29h-.8v-1.29Zm0,2.87v6.56h-.8v-6.56Z"/><path class="cls-5" d="M436.43,155.93a4.29,4.29,0,0,1-.2,1.31,3.31,3.31,0,0,1-.61,1.13,2.9,2.9,0,0,1-2.29,1,2.84,2.84,0,0,1-2.24-1,4.07,4.07,0,0,1,0-5,3.08,3.08,0,0,1,4.51,0A3.65,3.65,0,0,1,436.43,155.93Zm-.8,0a3.8,3.8,0,0,0-.13-1,2.82,2.82,0,0,0-.42-.9,2.24,2.24,0,0,0-.72-.65,2,2,0,0,0-1-.25,2,2,0,0,0-1,.24,2.24,2.24,0,0,0-.72.63,2.86,2.86,0,0,0-.44.9,3.66,3.66,0,0,0-.15,1,3.58,3.58,0,0,0,.14,1,3,3,0,0,0,.43.9,2.24,2.24,0,0,0,.71.65,2,2,0,0,0,1,.25,2,2,0,0,0,1-.24,2.34,2.34,0,0,0,.72-.63,2.8,2.8,0,0,0,.45-.89A3.54,3.54,0,0,0,435.62,155.93Z"/><path class="cls-5" d="M441.14,152.46a3.35,3.35,0,0,1,1.08.15,1.83,1.83,0,0,1,.74.46,1.87,1.87,0,0,1,.43.77,3.79,3.79,0,0,1,.14,1.08v4.28h-.8v-4.15a2.2,2.2,0,0,0-.41-1.45,1.54,1.54,0,0,0-1.25-.49,2.07,2.07,0,0,0-.86.17,1.88,1.88,0,0,0-.65.48,2.15,2.15,0,0,0-.41.71,2.64,2.64,0,0,0-.14.88v3.84h-.8v-6.56h.8v1.14h0a2,2,0,0,1,.35-.56,2.18,2.18,0,0,1,.49-.42,2.33,2.33,0,0,1,.6-.26A2.48,2.48,0,0,1,441.14,152.46Z"/><path class="cls-5" d="M451.84,159.27h-.66a3,3,0,0,1-.68-.06,1,1,0,0,1-.45-.23.89.89,0,0,1-.25-.43,2.65,2.65,0,0,1-.07-.68v-4.56h-1.32v-.67h1.32v-2h.8v2H452v.67h-1.5v4.48a1.75,1.75,0,0,0,0,.34.64.64,0,0,0,.11.26.5.5,0,0,0,.21.16.87.87,0,0,0,.35.06h.6l.21,0v.68Z"/><path class="cls-5" d="M456.2,152.46a2.71,2.71,0,0,1,1.3.29,2.6,2.6,0,0,1,.9.79,3.44,3.44,0,0,1,.52,1.13,5.22,5.22,0,0,1,.17,1.34v.13H454a3.58,3.58,0,0,0,.13.94,2.58,2.58,0,0,0,.39.83,2,2,0,0,0,.66.59,1.92,1.92,0,0,0,.95.22,2.44,2.44,0,0,0,.7-.09,2,2,0,0,0,.56-.26,1.76,1.76,0,0,0,.42-.39,2.4,2.4,0,0,0,.29-.49h.79a3,3,0,0,1-.38.79,2.48,2.48,0,0,1-.59.6,2.68,2.68,0,0,1-.79.39,3.33,3.33,0,0,1-1,.14,2.94,2.94,0,0,1-1.3-.27,2.56,2.56,0,0,1-.91-.73,3.12,3.12,0,0,1-.54-1.1,5.13,5.13,0,0,1-.18-1.37,4.66,4.66,0,0,1,.18-1.28,3.37,3.37,0,0,1,.54-1.11,2.74,2.74,0,0,1,.92-.78A2.79,2.79,0,0,1,456.2,152.46Zm2.09,3a3,3,0,0,0-.16-.85,2.44,2.44,0,0,0-.41-.75,2.07,2.07,0,0,0-.65-.54,1.84,1.84,0,0,0-.88-.21,1.84,1.84,0,0,0-1.5.7,2.69,2.69,0,0,0-.42.75,4.32,4.32,0,0,0-.23.9Z"/><path class="cls-5" d="M460.93,152.65l1.87,2.5,1.83-2.5h1l-2.37,3.14,2.56,3.42h-1l-2.06-2.76-2,2.76h-1l2.55-3.41-2.36-3.15Z"/><path class="cls-5" d="M469.77,159.27h-.66a3,3,0,0,1-.68-.06A1,1,0,0,1,468,159a.89.89,0,0,1-.25-.43,2.65,2.65,0,0,1-.07-.68v-4.56h-1.32v-.67h1.32v-2h.8v2H470v.67h-1.5v4.48a1.75,1.75,0,0,0,0,.34.64.64,0,0,0,.11.26.5.5,0,0,0,.21.16.87.87,0,0,0,.35.06h.6l.21,0v.68Z"/><polygon class="cls-5" points="161.01 33 157 37 153 33 161.01 33"/><polyline class="cls-6" points="170 47 170 45 11 45 11 47"/><rect class="cls-7" x="554.5" y="46.5" width="96" height="31"/><path class="cls-8" d="M650,47V77H555V47h95m1-1H554V78h97V46Z"/><path class="cls-5" d="M571.85,61.24a4.63,4.63,0,0,1-1.14,3.19,3.85,3.85,0,0,1-3,1.27,4.36,4.36,0,0,1-1.64-.29,3.85,3.85,0,0,1-1.32-.9,4,4,0,0,1-.9-1.46,5.35,5.35,0,0,1-.3-1.81A4.68,4.68,0,0,1,564.68,58a3.85,3.85,0,0,1,3-1.27,4.43,4.43,0,0,1,1.64.3,3.58,3.58,0,0,1,1.32.92,4,4,0,0,1,.89,1.48A5.69,5.69,0,0,1,571.85,61.24Zm-1.51,0a3.69,3.69,0,0,0-.7-2.34,2.57,2.57,0,0,0-3.9,0,3.69,3.69,0,0,0-.7,2.34,3.63,3.63,0,0,0,.69,2.29,2.59,2.59,0,0,0,3.91,0A3.66,3.66,0,0,0,570.34,61.24Z"/><path class="cls-5" d="M579.22,56.93V58.2h-4.31v2.38h3.77v1.19h-3.77V65.5h-1.5V56.93Z"/><path class="cls-5" d="M586.34,56.93V58.2H582v2.38h3.77v1.19H582V65.5h-1.5V56.93Z"/><polygon class="cls-5" points="636 64 632 60 632.71 59.29 636 62.59 639.3 59.29 640.01 60 636 64"/><rect class="cls-7" x="554.5" y="139.5" width="96" height="31"/><path class="cls-8" d="M650,140v30H555V140h95m1-1H554v32h97V139Z"/><path class="cls-5" d="M567.45,149.93A3.81,3.81,0,0,1,570.3,151a4.36,4.36,0,0,1,1.07,3.17,4.48,4.48,0,0,1-1.05,3.21,3.71,3.71,0,0,1-2.82,1.11H564v-8.57Zm-.17,7.3a2.49,2.49,0,0,0,1.89-.71,3.14,3.14,0,0,0,.69-2.23,3.35,3.35,0,0,0-.69-2.36,2.81,2.81,0,0,0-2.14-.73h-1.51v6Z"/><path class="cls-5" d="M579.19,149.95v1.27h-4.72v2.28h4.37v1.19h-4.37v2.56h4.8v1.26H573v-8.55Z"/><path class="cls-5" d="M586.58,149.93v1.27h-4.31v2.38H586v1.19h-3.77v3.73h-1.5v-8.57Z"/><polygon class="cls-5" points="636 157 632 153 632.71 152.29 636 155.59 639.3 152.29 640.01 153 636 157"/><rect class="cls-9" x="554.5" y="77.5" width="96" height="31"/><path class="cls-8" d="M650,78v30H555V78h95m1-1H554v32h97V77Z"/><path class="cls-5" d="M566.62,88.19a2.65,2.65,0,0,1,2.32,1.13,5.72,5.72,0,0,1,.79,3.3,5.83,5.83,0,0,1-.79,3.35,2.92,2.92,0,0,1-4.62,0,5.81,5.81,0,0,1-.79-3.35,5.75,5.75,0,0,1,.79-3.31A2.64,2.64,0,0,1,566.62,88.19Zm-1.7,4.44a10.27,10.27,0,0,0,.07,1.24,4.19,4.19,0,0,0,.26,1.06,1.83,1.83,0,0,0,.52.74,1.28,1.28,0,0,0,.85.28,1.31,1.31,0,0,0,1.08-.51,2.13,2.13,0,0,0,.31-.56,4.16,4.16,0,0,0,.2-.69,6.33,6.33,0,0,0,.1-.77q0-.4,0-.8a9.65,9.65,0,0,0-.08-1.27,3.8,3.8,0,0,0-.28-1,1.82,1.82,0,0,0-.53-.71,1.32,1.32,0,0,0-.84-.26,1.29,1.29,0,0,0-.6.13,1.39,1.39,0,0,0-.45.37,2,2,0,0,0-.31.55,4.32,4.32,0,0,0-.19.68,6.5,6.5,0,0,0-.11.76C564.93,92.1,564.92,92.37,564.92,92.63Z"/><path class="cls-5" d="M572.8,95.29v1.64h-1.61V95.29Z"/><path class="cls-5" d="M577.48,88.2a3,3,0,0,1,2,.7,2.22,2.22,0,0,1,.6.83,2.77,2.77,0,0,1,.19,1.06,2.82,2.82,0,0,1-.46,1.55,5.83,5.83,0,0,1-1.78,1.54q-.5.3-.85.56a6.9,6.9,0,0,0-.58.47,2.8,2.8,0,0,0-.62.81h4.33v1.21h-6.08a3.35,3.35,0,0,1,.39-1.59,3.73,3.73,0,0,1,.51-.69,5.59,5.59,0,0,1,.74-.66l.95-.71,1.12-.83a2.7,2.7,0,0,0,.71-.75,1.6,1.6,0,0,0,.23-.83,1.68,1.68,0,0,0-.1-.6,1.33,1.33,0,0,0-.31-.48,1.44,1.44,0,0,0-.47-.3,1.79,1.79,0,0,0-1.31,0,1.46,1.46,0,0,0-.5.38,1.58,1.58,0,0,0-.29.53,2,2,0,0,0-.1.61v.15H574.5v-.15a3.14,3.14,0,0,1,.21-1.15,2.54,2.54,0,0,1,.59-.9,2.71,2.71,0,0,1,.94-.59A3.45,3.45,0,0,1,577.48,88.2Z"/><path class="cls-5" d="M584.62,88.19a2.65,2.65,0,0,1,2.32,1.13,5.72,5.72,0,0,1,.79,3.3,5.83,5.83,0,0,1-.79,3.35,2.92,2.92,0,0,1-4.62,0,5.81,5.81,0,0,1-.79-3.35,5.75,5.75,0,0,1,.79-3.31A2.64,2.64,0,0,1,584.62,88.19Zm-1.7,4.44a10.27,10.27,0,0,0,.07,1.24,4.19,4.19,0,0,0,.26,1.06,1.83,1.83,0,0,0,.52.74,1.28,1.28,0,0,0,.85.28,1.31,1.31,0,0,0,1.08-.51,2.13,2.13,0,0,0,.31-.56,4.16,4.16,0,0,0,.2-.69,6.33,6.33,0,0,0,.1-.77q0-.4,0-.8a9.65,9.65,0,0,0-.08-1.27,3.8,3.8,0,0,0-.28-1,1.82,1.82,0,0,0-.53-.71,1.32,1.32,0,0,0-.84-.26,1.29,1.29,0,0,0-.6.13,1.39,1.39,0,0,0-.45.37,2,2,0,0,0-.31.55,4.32,4.32,0,0,0-.19.68,6.5,6.5,0,0,0-.11.76C582.93,92.1,582.92,92.37,582.92,92.63Z"/><rect class="cls-9" x="554.5" y="108.5" width="96" height="31"/><path class="cls-8" d="M650,109v30H555V109h95m1-1H554v32h97V108Z"/><path class="cls-5" d="M566.43,127.93v-5.87h-2.2v-1a6,6,0,0,0,.9-.07,2.36,2.36,0,0,0,.63-.18,1.57,1.57,0,0,0,.64-.55,2.21,2.21,0,0,0,.31-.89h1.11v8.6Z"/><path class="cls-5" d="M572.8,126.29v1.64h-1.61v-1.64Z"/><path class="cls-5" d="M577.35,119.19a2.65,2.65,0,0,1,2.32,1.13,5.72,5.72,0,0,1,.79,3.3,5.83,5.83,0,0,1-.79,3.35,2.92,2.92,0,0,1-4.62,0,5.81,5.81,0,0,1-.79-3.35,5.75,5.75,0,0,1,.79-3.31A2.64,2.64,0,0,1,577.35,119.19Zm-1.7,4.44a10.27,10.27,0,0,0,.07,1.24,4.19,4.19,0,0,0,.26,1.06,1.83,1.83,0,0,0,.52.74,1.28,1.28,0,0,0,.85.28,1.31,1.31,0,0,0,1.08-.51,2.13,2.13,0,0,0,.31-.56,4.16,4.16,0,0,0,.2-.69,6.33,6.33,0,0,0,.1-.77q0-.4,0-.8a9.65,9.65,0,0,0-.08-1.27,3.8,3.8,0,0,0-.28-1,1.82,1.82,0,0,0-.53-.71,1.32,1.32,0,0,0-.84-.26,1.29,1.29,0,0,0-.6.13,1.39,1.39,0,0,0-.45.37,2,2,0,0,0-.31.55,4.32,4.32,0,0,0-.19.68,6.5,6.5,0,0,0-.11.76C575.66,123.1,575.65,123.37,575.65,123.63Z"/><path class="cls-5" d="M584.62,119.19a2.65,2.65,0,0,1,2.32,1.13,5.72,5.72,0,0,1,.79,3.3,5.83,5.83,0,0,1-.79,3.35,2.92,2.92,0,0,1-4.62,0,5.81,5.81,0,0,1-.79-3.35,5.75,5.75,0,0,1,.79-3.31A2.64,2.64,0,0,1,584.62,119.19Zm-1.7,4.44a10.27,10.27,0,0,0,.07,1.24,4.19,4.19,0,0,0,.26,1.06,1.83,1.83,0,0,0,.52.74,1.28,1.28,0,0,0,.85.28,1.31,1.31,0,0,0,1.08-.51,2.13,2.13,0,0,0,.31-.56,4.16,4.16,0,0,0,.2-.69,6.33,6.33,0,0,0,.1-.77q0-.4,0-.8a9.65,9.65,0,0,0-.08-1.27,3.8,3.8,0,0,0-.28-1,1.82,1.82,0,0,0-.53-.71,1.32,1.32,0,0,0-.84-.26,1.29,1.29,0,0,0-.6.13,1.39,1.39,0,0,0-.45.37,2,2,0,0,0-.31.55,4.32,4.32,0,0,0-.19.68,6.5,6.5,0,0,0-.11.76C582.93,123.1,582.92,123.37,582.92,123.63Z"/><line class="cls-10" x1="11" y1="46" x2="170" y2="46"/></g></svg>