<svg xmlns="http://www.w3.org/2000/svg" viewBox="0 0 565 317"><defs><style>.cls-1{fill:#fff;}.cls-2,.cls-3{fill:none;}.cls-2{opacity:0.1;}.cls-4{fill:#464646;}.cls-5{fill:#c8c8c8;}.cls-6{fill:#787878;opacity:0.2;}.cls-7{fill:#444;}.cls-8{fill:#f0f0f0;}</style></defs><title>Artboard 57</title><g id="Bg"><rect class="cls-1" x="-2890" y="-2170" width="6000" height="2500"/></g><g id="Tabeller"><rect class="cls-2" x="95" y="136.28" width="962.01" height="40.71"/><rect class="cls-3" x="95" y="94.22" width="962.01" height="40.71"/><rect class="cls-3" x="95" y="136.28" width="962.01" height="40.71"/><rect class="cls-3" x="95" y="178.34" width="962.01" height="40.71"/><rect class="cls-3" x="95" y="220.4" width="962.01" height="40.71"/><path class="cls-4" d="M121.32,75.4a2.87,2.87,0,0,1-.85,2.17,2.84,2.84,0,0,1-1,.61,3.77,3.77,0,0,1-1.28.2h-2.71V82.1h-1.7V72.41h4.41a3.16,3.16,0,0,1,2.27.82A2.83,2.83,0,0,1,121.32,75.4Zm-1.66,0a1.55,1.55,0,0,0-.47-1.23,2.23,2.23,0,0,0-1.48-.41h-2.22V77h2.26a3.12,3.12,0,0,0,.82-.1,1.44,1.44,0,0,0,1.1-1.54Z"/><path class="cls-4" d="M128.6,82.1l-.83-2.46h-4l-.85,2.46h-1.73l3.48-9.67h2.29l3.42,9.67Zm-2.81-8.42h0l-1.59,4.66h3.16Z"/><path class="cls-4" d="M139.41,75a2.59,2.59,0,0,1-.56,1.74,2,2,0,0,1-.48.42,2.8,2.8,0,0,1-.62.29v0a1.93,1.93,0,0,1,.67.28,1.61,1.61,0,0,1,.45.47,2.2,2.2,0,0,1,.28.71,5.62,5.62,0,0,1,.11.78q0,.4,0,.83a5.43,5.43,0,0,0,.11.84,1.86,1.86,0,0,0,.27.7h-1.73a5,5,0,0,1-.25-1.52,3.63,3.63,0,0,0-.51-2,1.53,1.53,0,0,0-1.2-.46h-2.7v4h-1.7V72.41h5a2.9,2.9,0,0,1,2,.72A2.44,2.44,0,0,1,139.41,75Zm-1.7.27a1.48,1.48,0,0,0-.43-1.17,1.76,1.76,0,0,0-1.21-.38h-2.78v3.11h2.78a1.72,1.72,0,0,0,1.15-.37A1.47,1.47,0,0,0,137.71,75.31Z"/><path class="cls-4" d="M148.06,82.1l-.83-2.46h-4l-.85,2.46h-1.73l3.48-9.67h2.29l3.42,9.67Zm-2.81-8.42h0l-1.59,4.66h3.16Z"/><path class="cls-4" d="M159.67,82.1V74.32h0L156.9,82.1h-1.46l-2.76-7.74h0V82.1H151V72.42h2.48L156.19,80h0l2.6-7.55h2.46V82.1Z"/><path class="cls-4" d="M170.56,72.42v1.43h-5.34v2.58h4.94v1.35h-4.94v2.89h5.43V82.1h-7.12V72.42Z"/><path class="cls-4" d="M179.39,72.41v1.43h-3.08V82.1h-1.69V73.84h-3.07V72.41Z"/><path class="cls-4" d="M187.67,72.42v1.43h-5.34v2.58h4.94v1.35h-4.94v2.89h5.43V82.1h-7.12V72.42Z"/><path class="cls-4" d="M197.25,75a2.59,2.59,0,0,1-.56,1.74,2,2,0,0,1-.48.42,2.8,2.8,0,0,1-.62.29v0a1.93,1.93,0,0,1,.67.28,1.61,1.61,0,0,1,.45.47A2.2,2.2,0,0,1,197,79a5.62,5.62,0,0,1,.11.78q0,.4,0,.83a5.43,5.43,0,0,0,.11.84,1.86,1.86,0,0,0,.27.7h-1.73a5,5,0,0,1-.25-1.52,3.63,3.63,0,0,0-.51-2,1.53,1.53,0,0,0-1.2-.46h-2.7v4h-1.7V72.41h5a2.9,2.9,0,0,1,2,.72A2.44,2.44,0,0,1,197.25,75Zm-1.7.27a1.48,1.48,0,0,0-.43-1.17,1.76,1.76,0,0,0-1.21-.38h-2.78v3.11h2.78a1.72,1.72,0,0,0,1.15-.37A1.47,1.47,0,0,0,195.55,75.31Z"/><path class="cls-4" d="M330.23,72.41l2.52,7.78h0l2.52-7.78h1.76L333.7,82.1h-1.92l-3.31-9.69Z"/><path class="cls-4" d="M344,82.1l-.83-2.46h-4l-.85,2.46H336.6l3.48-9.67h2.29l3.42,9.67Zm-2.81-8.42h0l-1.59,4.66h3.16Z"/><path class="cls-4" d="M348.72,72.41v8.26h5V82.1H347V72.41Z"/><path class="cls-4" d="M356.43,72.41v6.08a2.57,2.57,0,0,0,.55,1.8,2.29,2.29,0,0,0,1.75.59,2.35,2.35,0,0,0,1.75-.58,2.52,2.52,0,0,0,.56-1.82V72.41h1.7v6.15a3.72,3.72,0,0,1-1,2.75,4.08,4.08,0,0,1-3,1,5.44,5.44,0,0,1-1.72-.26,3.16,3.16,0,0,1-2-2,4.56,4.56,0,0,1-.24-1.53V72.41Z"/><path class="cls-4" d="M372,72.42v1.43h-5.34v2.58h4.94v1.35h-4.94v2.89H372V82.1h-7.12V72.42Z"/><path class="cls-4" d="M448.27,72.41l2.52,7.78h0l2.52-7.78h1.76l-3.35,9.69h-1.92l-3.31-9.69Z"/><path class="cls-4" d="M462.07,82.1l-.83-2.46h-4l-.85,2.46h-1.73l3.48-9.67h2.29l3.42,9.67Zm-2.81-8.42h0l-1.59,4.66h3.16Z"/><path class="cls-4" d="M466.76,72.41v8.26h5V82.1h-6.67V72.41Z"/><path class="cls-4" d="M474.47,72.41v6.08a2.57,2.57,0,0,0,.55,1.8,2.29,2.29,0,0,0,1.75.59,2.35,2.35,0,0,0,1.75-.58,2.52,2.52,0,0,0,.56-1.82V72.41h1.7v6.15a3.72,3.72,0,0,1-1,2.75,4.08,4.08,0,0,1-3,1,5.44,5.44,0,0,1-1.72-.26,3.16,3.16,0,0,1-2-2,4.56,4.56,0,0,1-.24-1.53V72.41Z"/><path class="cls-4" d="M490,72.42v1.43h-5.34v2.58h4.94v1.35h-4.94v2.89h5.43V82.1H483V72.42Z"/><path class="cls-4" d="M504.34,82.1V74.32h0l-2.75,7.78H500.1l-2.76-7.74h0V82.1h-1.6V72.42h2.48L500.86,80h0l2.6-7.55h2.46V82.1Z"/><path class="cls-4" d="M509.9,72.41V82.1h-1.7V72.41Z"/><path class="cls-4" d="M513.88,72.41l4.62,7.2h0v-7.2h1.61V82.1H518.4l-4.62-7.19h0V82.1h-1.61V72.41Z"/><rect class="cls-5" x="95" y="92.67" width="960.66" height="2.28"/><rect class="cls-6" x="95" y="176.77" width="960.66" height="2.28"/><rect class="cls-6" x="95" y="133.58" width="960.66" height="2.28"/><rect class="cls-6" x="95" y="219.96" width="960.66" height="2.28"/><rect class="cls-3" x="95" y="220.4" width="962.01" height="40.71"/><rect class="cls-6" x="95" y="260.88" width="960.66" height="2.28"/><path class="cls-7" d="M122.78,112a3.17,3.17,0,0,1-.95,2.44,3.45,3.45,0,0,1-2.44.88h-4.12v5h-1.11V108.66h5.23a3.44,3.44,0,0,1,2.44.88A3.16,3.16,0,0,1,122.78,112Zm-1.11,0a2.28,2.28,0,0,0-.67-1.75,2.87,2.87,0,0,0-2-.62h-3.71v4.75h3.87a2.68,2.68,0,0,0,1.83-.61A2.23,2.23,0,0,0,121.68,112Z"/><path class="cls-7" d="M132.13,120.22l-.36.05h-.33a1.86,1.86,0,0,1-.6-.08.89.89,0,0,1-.4-.27,1.11,1.11,0,0,1-.22-.48,3.31,3.31,0,0,1-.07-.72h0a4.15,4.15,0,0,1-1.4,1.42,3.79,3.79,0,0,1-1.84.4,3.34,3.34,0,0,1-2.17-.68,2.37,2.37,0,0,1-.82-1.94,2.25,2.25,0,0,1,.89-1.94,9.21,9.21,0,0,1,4-.93,2.64,2.64,0,0,0,.6-.11,1,1,0,0,0,.39-.22.81.81,0,0,0,.21-.35,1.74,1.74,0,0,0,.07-.52,1.69,1.69,0,0,0-.55-1.36,2.74,2.74,0,0,0-1.78-.46,3.55,3.55,0,0,0-1,.12,2.23,2.23,0,0,0-.72.34,1.52,1.52,0,0,0-.45.52,1.67,1.67,0,0,0-.18.66h-1.09a2.71,2.71,0,0,1,.3-1.05,2.41,2.41,0,0,1,.7-.81,3.3,3.3,0,0,1,1.09-.52,5.46,5.46,0,0,1,1.48-.18,3.59,3.59,0,0,1,2.48.73,2.66,2.66,0,0,1,.79,2.06v4.83a.64.64,0,0,0,.15.45.63.63,0,0,0,.49.17,1,1,0,0,0,.34-.06Zm-2.07-4.81h0q-.16.3-1,.42l-.9.13-1,.17a3.63,3.63,0,0,0-1.58.59,1.36,1.36,0,0,0-.53,1.14,1.58,1.58,0,0,0,.59,1.28,2.18,2.18,0,0,0,1.4.48,3.2,3.2,0,0,0,2.22-.79,2.51,2.51,0,0,0,.88-2Z"/><path class="cls-7" d="M134.08,120.28v-8.9h1v2.08h0a3.47,3.47,0,0,1,1.22-1.62,3.15,3.15,0,0,1,1.87-.58h.39v1.08h-.25a3,3,0,0,0-2.31.93,3.2,3.2,0,0,0-.87,2.29v4.72Z"/><path class="cls-7" d="M148,120.22l-.36.05h-.33a1.86,1.86,0,0,1-.6-.08.89.89,0,0,1-.4-.27,1.11,1.11,0,0,1-.22-.48,3.31,3.31,0,0,1-.07-.72h0a4.15,4.15,0,0,1-1.4,1.42,3.79,3.79,0,0,1-1.84.4,3.34,3.34,0,0,1-2.17-.68,2.37,2.37,0,0,1-.82-1.94,2.25,2.25,0,0,1,.89-1.94,9.21,9.21,0,0,1,4-.93,2.64,2.64,0,0,0,.6-.11,1,1,0,0,0,.39-.22.81.81,0,0,0,.21-.35,1.74,1.74,0,0,0,.07-.52,1.69,1.69,0,0,0-.55-1.36,2.74,2.74,0,0,0-1.78-.46,3.55,3.55,0,0,0-1,.12,2.23,2.23,0,0,0-.72.34,1.52,1.52,0,0,0-.45.52,1.67,1.67,0,0,0-.18.66h-1.09a2.71,2.71,0,0,1,.3-1.05,2.41,2.41,0,0,1,.7-.81,3.3,3.3,0,0,1,1.09-.52,5.46,5.46,0,0,1,1.48-.18,3.59,3.59,0,0,1,2.48.73,2.66,2.66,0,0,1,.79,2.06v4.83a.64.64,0,0,0,.15.45.63.63,0,0,0,.49.17,1,1,0,0,0,.34-.06Zm-2.07-4.81h0q-.16.3-1,.42l-.9.13-1,.17a3.63,3.63,0,0,0-1.58.59,1.36,1.36,0,0,0-.53,1.14,1.58,1.58,0,0,0,.59,1.28,2.18,2.18,0,0,0,1.4.48,3.2,3.2,0,0,0,2.22-.79,2.51,2.51,0,0,0,.88-2Z"/><path class="cls-7" d="M161.14,120.28v-6.06a2.35,2.35,0,0,0-.5-1.66,2.51,2.51,0,0,0-3.4.28,3.8,3.8,0,0,0-.61,2.32v5.12h-1.1v-6.1a2.46,2.46,0,0,0-.46-1.58,1.69,1.69,0,0,0-1.4-.57,2.34,2.34,0,0,0-2,.88,3.69,3.69,0,0,0-.68,2.32v5h-1.09v-8.9h1v1.49h0a3.07,3.07,0,0,1,2.92-1.75,3.3,3.3,0,0,1,.87.11,2.57,2.57,0,0,1,.74.33,2.27,2.27,0,0,1,.57.54,2.54,2.54,0,0,1,.37.75,2.93,2.93,0,0,1,1.16-1.3,3.26,3.26,0,0,1,1.68-.44,2.88,2.88,0,0,1,2.21.79,3.2,3.2,0,0,1,.73,2.25v6.12Z"/><path class="cls-7" d="M168.7,111.12a3.67,3.67,0,0,1,1.77.4,3.52,3.52,0,0,1,1.22,1.06,4.68,4.68,0,0,1,.71,1.54,7.08,7.08,0,0,1,.23,1.82v.17h-6.85a4.88,4.88,0,0,0,.17,1.28,3.5,3.5,0,0,0,.53,1.13,2.69,2.69,0,0,0,.89.8,2.61,2.61,0,0,0,1.29.3,3.3,3.3,0,0,0,1-.13,2.77,2.77,0,0,0,.76-.35,2.41,2.41,0,0,0,.56-.53,3.27,3.27,0,0,0,.39-.66h1.07a4.11,4.11,0,0,1-.52,1.07,3.37,3.37,0,0,1-.79.81,3.6,3.6,0,0,1-1.07.52,4.51,4.51,0,0,1-1.35.19,4,4,0,0,1-1.76-.36,3.48,3.48,0,0,1-1.24-1,4.25,4.25,0,0,1-.73-1.5,7,7,0,0,1-.24-1.86,6.34,6.34,0,0,1,.24-1.74,4.58,4.58,0,0,1,.74-1.51,3.72,3.72,0,0,1,1.25-1.06A3.78,3.78,0,0,1,168.7,111.12Zm2.83,4.09a4.16,4.16,0,0,0-.21-1.15,3.34,3.34,0,0,0-.55-1,2.83,2.83,0,0,0-.88-.73,2.51,2.51,0,0,0-1.2-.28,2.57,2.57,0,0,0-1.17.25,2.6,2.6,0,0,0-.86.69,3.66,3.66,0,0,0-.57,1,5.8,5.8,0,0,0-.31,1.22Z"/><path class="cls-7" d="M178.47,120.36h-.89a4.1,4.1,0,0,1-.92-.09A1.31,1.31,0,0,1,176,120a1.21,1.21,0,0,1-.33-.58,3.57,3.57,0,0,1-.1-.92v-6.19h-1.79v-.91h1.79v-2.67h1.09v2.67h2v.91h-2v6.07a2.4,2.4,0,0,0,0,.46.85.85,0,0,0,.14.35.67.67,0,0,0,.29.22,1.17,1.17,0,0,0,.47.08h.82l.28,0v.92Z"/><path class="cls-7" d="M184.38,111.12a3.67,3.67,0,0,1,1.77.4,3.52,3.52,0,0,1,1.22,1.06,4.68,4.68,0,0,1,.71,1.54,7.08,7.08,0,0,1,.23,1.82v.17h-6.85a4.88,4.88,0,0,0,.17,1.28,3.5,3.5,0,0,0,.53,1.13,2.69,2.69,0,0,0,.89.8,2.61,2.61,0,0,0,1.29.3,3.3,3.3,0,0,0,1-.13,2.77,2.77,0,0,0,.76-.35,2.41,2.41,0,0,0,.56-.53A3.27,3.27,0,0,0,187,118h1.07a4.11,4.11,0,0,1-.52,1.07,3.37,3.37,0,0,1-.79.81,3.6,3.6,0,0,1-1.07.52,4.51,4.51,0,0,1-1.35.19,4,4,0,0,1-1.76-.36,3.48,3.48,0,0,1-1.24-1,4.25,4.25,0,0,1-.73-1.5,7,7,0,0,1-.24-1.86,6.34,6.34,0,0,1,.24-1.74,4.58,4.58,0,0,1,.74-1.51,3.72,3.72,0,0,1,1.25-1.06A3.78,3.78,0,0,1,184.38,111.12Zm2.83,4.09a4.16,4.16,0,0,0-.21-1.15,3.34,3.34,0,0,0-.55-1,2.83,2.83,0,0,0-.88-.73,2.51,2.51,0,0,0-1.2-.28,2.57,2.57,0,0,0-1.17.25,2.6,2.6,0,0,0-.86.69,3.66,3.66,0,0,0-.57,1,5.8,5.8,0,0,0-.31,1.22Z"/><path class="cls-7" d="M190.57,120.28v-8.9h1v2.08h0a3.47,3.47,0,0,1,1.22-1.62,3.15,3.15,0,0,1,1.87-.58h.39v1.08h-.25a3,3,0,0,0-2.31.93,3.2,3.2,0,0,0-.87,2.29v4.72Z"/><path class="cls-7" d="M205.13,120.28v-8.72H202v-.75q.72,0,1.22-.08a3.12,3.12,0,0,0,.78-.17,1.77,1.77,0,0,0,.87-.7,3.35,3.35,0,0,0,.43-1.32h.86v11.74Z"/><path class="cls-7" d="M122.78,154a3.17,3.17,0,0,1-.95,2.44,3.45,3.45,0,0,1-2.44.88h-4.12v5h-1.11V150.72h5.23a3.44,3.44,0,0,1,2.44.88A3.16,3.16,0,0,1,122.78,154Zm-1.11,0a2.28,2.28,0,0,0-.67-1.75,2.87,2.87,0,0,0-2-.62h-3.71v4.75h3.87a2.68,2.68,0,0,0,1.83-.61A2.23,2.23,0,0,0,121.68,154Z"/><path class="cls-7" d="M132.13,162.28l-.36.05h-.33a1.86,1.86,0,0,1-.6-.08.89.89,0,0,1-.4-.27,1.11,1.11,0,0,1-.22-.48,3.31,3.31,0,0,1-.07-.72h0a4.15,4.15,0,0,1-1.4,1.42,3.79,3.79,0,0,1-1.84.4,3.34,3.34,0,0,1-2.17-.68,2.37,2.37,0,0,1-.82-1.94,2.25,2.25,0,0,1,.89-1.94,9.21,9.21,0,0,1,4-.93,2.64,2.64,0,0,0,.6-.11,1,1,0,0,0,.39-.22.81.81,0,0,0,.21-.35,1.74,1.74,0,0,0,.07-.52,1.69,1.69,0,0,0-.55-1.36,2.74,2.74,0,0,0-1.78-.46,3.55,3.55,0,0,0-1,.12,2.23,2.23,0,0,0-.72.34,1.52,1.52,0,0,0-.45.52,1.67,1.67,0,0,0-.18.66h-1.09a2.71,2.71,0,0,1,.3-1.05,2.41,2.41,0,0,1,.7-.81,3.3,3.3,0,0,1,1.09-.52,5.46,5.46,0,0,1,1.48-.18,3.59,3.59,0,0,1,2.48.73,2.66,2.66,0,0,1,.79,2.06v4.83a.64.64,0,0,0,.15.45.63.63,0,0,0,.49.17,1,1,0,0,0,.34-.06Zm-2.07-4.81h0q-.16.3-1,.42l-.9.13-1,.17a3.63,3.63,0,0,0-1.58.59,1.36,1.36,0,0,0-.53,1.14,1.58,1.58,0,0,0,.59,1.28,2.18,2.18,0,0,0,1.4.48,3.2,3.2,0,0,0,2.22-.79,2.51,2.51,0,0,0,.88-2Z"/><path class="cls-7" d="M134.08,162.34v-8.9h1v2.08h0a3.47,3.47,0,0,1,1.22-1.62,3.15,3.15,0,0,1,1.87-.58h.39v1.08h-.25a3,3,0,0,0-2.31.93,3.2,3.2,0,0,0-.87,2.29v4.72Z"/><path class="cls-7" d="M148,162.28l-.36.05h-.33a1.86,1.86,0,0,1-.6-.08.89.89,0,0,1-.4-.27,1.11,1.11,0,0,1-.22-.48,3.31,3.31,0,0,1-.07-.72h0a4.15,4.15,0,0,1-1.4,1.42,3.79,3.79,0,0,1-1.84.4,3.34,3.34,0,0,1-2.17-.68,2.37,2.37,0,0,1-.82-1.94,2.25,2.25,0,0,1,.89-1.94,9.21,9.21,0,0,1,4-.93,2.64,2.64,0,0,0,.6-.11,1,1,0,0,0,.39-.22.81.81,0,0,0,.21-.35,1.74,1.74,0,0,0,.07-.52,1.69,1.69,0,0,0-.55-1.36,2.74,2.74,0,0,0-1.78-.46,3.55,3.55,0,0,0-1,.12,2.23,2.23,0,0,0-.72.34,1.52,1.52,0,0,0-.45.52,1.67,1.67,0,0,0-.18.66h-1.09a2.71,2.71,0,0,1,.3-1.05,2.41,2.41,0,0,1,.7-.81,3.3,3.3,0,0,1,1.09-.52,5.46,5.46,0,0,1,1.48-.18,3.59,3.59,0,0,1,2.48.73A2.66,2.66,0,0,1,147,156v4.83a.64.64,0,0,0,.15.45.63.63,0,0,0,.49.17,1,1,0,0,0,.34-.06Zm-2.07-4.81h0q-.16.3-1,.42l-.9.13-1,.17a3.63,3.63,0,0,0-1.58.59,1.36,1.36,0,0,0-.53,1.14,1.58,1.58,0,0,0,.59,1.28,2.18,2.18,0,0,0,1.4.48,3.2,3.2,0,0,0,2.22-.79,2.51,2.51,0,0,0,.88-2Z"/><path class="cls-7" d="M161.14,162.34v-6.06a2.35,2.35,0,0,0-.5-1.66,2.51,2.51,0,0,0-3.4.28,3.8,3.8,0,0,0-.61,2.32v5.12h-1.1v-6.1a2.46,2.46,0,0,0-.46-1.58,1.69,1.69,0,0,0-1.4-.57,2.34,2.34,0,0,0-2,.88,3.69,3.69,0,0,0-.68,2.32v5h-1.09v-8.9h1v1.49h0a3.07,3.07,0,0,1,2.92-1.75,3.3,3.3,0,0,1,.87.11,2.57,2.57,0,0,1,.74.33,2.27,2.27,0,0,1,.57.54,2.54,2.54,0,0,1,.37.75,2.93,2.93,0,0,1,1.16-1.3,3.26,3.26,0,0,1,1.68-.44,2.88,2.88,0,0,1,2.21.79,3.2,3.2,0,0,1,.73,2.25v6.12Z"/><path class="cls-7" d="M168.7,153.18a3.67,3.67,0,0,1,1.77.4,3.52,3.52,0,0,1,1.22,1.06,4.68,4.68,0,0,1,.71,1.54,7.08,7.08,0,0,1,.23,1.82v.17h-6.85a4.88,4.88,0,0,0,.17,1.28,3.5,3.5,0,0,0,.53,1.13,2.69,2.69,0,0,0,.89.8,2.61,2.61,0,0,0,1.29.3,3.3,3.3,0,0,0,1-.13,2.77,2.77,0,0,0,.76-.35,2.41,2.41,0,0,0,.56-.53,3.27,3.27,0,0,0,.39-.66h1.07a4.11,4.11,0,0,1-.52,1.07,3.37,3.37,0,0,1-.79.81,3.6,3.6,0,0,1-1.07.52,4.51,4.51,0,0,1-1.35.19,4,4,0,0,1-1.76-.36,3.48,3.48,0,0,1-1.24-1,4.25,4.25,0,0,1-.73-1.5,7,7,0,0,1-.24-1.86,6.34,6.34,0,0,1,.24-1.74,4.58,4.58,0,0,1,.74-1.51,3.72,3.72,0,0,1,1.25-1.06A3.78,3.78,0,0,1,168.7,153.18Zm2.83,4.09a4.16,4.16,0,0,0-.21-1.15,3.34,3.34,0,0,0-.55-1,2.83,2.83,0,0,0-.88-.73,2.51,2.51,0,0,0-1.2-.28,2.57,2.57,0,0,0-1.17.25,2.6,2.6,0,0,0-.86.69,3.66,3.66,0,0,0-.57,1,5.8,5.8,0,0,0-.31,1.22Z"/><path class="cls-7" d="M178.47,162.43h-.89a4.1,4.1,0,0,1-.92-.09,1.31,1.31,0,0,1-.61-.31,1.21,1.21,0,0,1-.33-.58,3.57,3.57,0,0,1-.1-.92v-6.19h-1.79v-.91h1.79v-2.67h1.09v2.67h2v.91h-2v6.07a2.4,2.4,0,0,0,0,.46.85.85,0,0,0,.14.35.67.67,0,0,0,.29.22,1.17,1.17,0,0,0,.47.08h.82l.28,0v.92Z"/><path class="cls-7" d="M184.38,153.18a3.67,3.67,0,0,1,1.77.4,3.52,3.52,0,0,1,1.22,1.06,4.68,4.68,0,0,1,.71,1.54,7.08,7.08,0,0,1,.23,1.82v.17h-6.85a4.88,4.88,0,0,0,.17,1.28,3.5,3.5,0,0,0,.53,1.13,2.69,2.69,0,0,0,.89.8,2.61,2.61,0,0,0,1.29.3,3.3,3.3,0,0,0,1-.13,2.77,2.77,0,0,0,.76-.35,2.41,2.41,0,0,0,.56-.53A3.27,3.27,0,0,0,187,160h1.07a4.11,4.11,0,0,1-.52,1.07,3.37,3.37,0,0,1-.79.81,3.6,3.6,0,0,1-1.07.52,4.51,4.51,0,0,1-1.35.19,4,4,0,0,1-1.76-.36,3.48,3.48,0,0,1-1.24-1,4.25,4.25,0,0,1-.73-1.5,7,7,0,0,1-.24-1.86,6.34,6.34,0,0,1,.24-1.74,4.58,4.58,0,0,1,.74-1.51,3.72,3.72,0,0,1,1.25-1.06A3.78,3.78,0,0,1,184.38,153.18Zm2.83,4.09a4.16,4.16,0,0,0-.21-1.15,3.34,3.34,0,0,0-.55-1,2.83,2.83,0,0,0-.88-.73,2.51,2.51,0,0,0-1.2-.28,2.57,2.57,0,0,0-1.17.25,2.6,2.6,0,0,0-.86.69,3.66,3.66,0,0,0-.57,1,5.8,5.8,0,0,0-.31,1.22Z"/><path class="cls-7" d="M190.57,162.34v-8.9h1v2.08h0a3.47,3.47,0,0,1,1.22-1.62,3.15,3.15,0,0,1,1.87-.58h.39v1.08h-.25a3,3,0,0,0-2.31.93,3.2,3.2,0,0,0-.87,2.29v4.72Z"/><path class="cls-7" d="M205,150.5a3.82,3.82,0,0,1,2.65.89,3.09,3.09,0,0,1,1,2.42,3.83,3.83,0,0,1-.75,2.25,9.41,9.41,0,0,1-2.72,2.25A11.26,11.26,0,0,0,203,160a2.69,2.69,0,0,0-.76,1.38h6.53v1H201a4.06,4.06,0,0,1,.75-2.36,9,9,0,0,1,2.62-2.26,11.91,11.91,0,0,0,2.56-2,2.86,2.86,0,0,0,.69-1.92,2.22,2.22,0,0,0-.73-1.73,2.72,2.72,0,0,0-1.9-.67,2.75,2.75,0,0,0-1.16.23,2.46,2.46,0,0,0-.82.6,2.4,2.4,0,0,0-.49.84,3,3,0,0,0-.16,1v.23h-1v-.17a4,4,0,0,1,.23-1.33,3.27,3.27,0,0,1,.69-1.14,3.36,3.36,0,0,1,1.16-.8A4.16,4.16,0,0,1,205,150.5Z"/><path class="cls-7" d="M122.78,196.11a3.17,3.17,0,0,1-.95,2.44,3.45,3.45,0,0,1-2.44.88h-4.12v5h-1.11V192.78h5.23a3.44,3.44,0,0,1,2.44.88A3.16,3.16,0,0,1,122.78,196.11Zm-1.11,0a2.28,2.28,0,0,0-.67-1.75,2.87,2.87,0,0,0-2-.62h-3.71v4.75h3.87a2.68,2.68,0,0,0,1.83-.61A2.23,2.23,0,0,0,121.68,196.11Z"/><path class="cls-7" d="M132.13,204.34l-.36.05h-.33a1.86,1.86,0,0,1-.6-.08.89.89,0,0,1-.4-.27,1.11,1.11,0,0,1-.22-.48,3.31,3.31,0,0,1-.07-.72h0a4.15,4.15,0,0,1-1.4,1.42,3.79,3.79,0,0,1-1.84.4,3.34,3.34,0,0,1-2.17-.68,2.37,2.37,0,0,1-.82-1.94,2.25,2.25,0,0,1,.89-1.94,9.21,9.21,0,0,1,4-.93,2.64,2.64,0,0,0,.6-.11,1,1,0,0,0,.39-.22.81.81,0,0,0,.21-.35,1.74,1.74,0,0,0,.07-.52,1.69,1.69,0,0,0-.55-1.36,2.74,2.74,0,0,0-1.78-.46,3.55,3.55,0,0,0-1,.12,2.23,2.23,0,0,0-.72.34,1.52,1.52,0,0,0-.45.52,1.67,1.67,0,0,0-.18.66h-1.09a2.71,2.71,0,0,1,.3-1.05,2.41,2.41,0,0,1,.7-.81,3.3,3.3,0,0,1,1.09-.52,5.46,5.46,0,0,1,1.48-.18,3.59,3.59,0,0,1,2.48.73,2.66,2.66,0,0,1,.79,2.06v4.83a.64.64,0,0,0,.15.45.63.63,0,0,0,.49.17,1,1,0,0,0,.34-.06Zm-2.07-4.81h0q-.16.3-1,.42l-.9.13-1,.17a3.63,3.63,0,0,0-1.58.59A1.36,1.36,0,0,0,125,202a1.58,1.58,0,0,0,.59,1.28,2.18,2.18,0,0,0,1.4.48,3.2,3.2,0,0,0,2.22-.79,2.51,2.51,0,0,0,.88-2Z"/><path class="cls-7" d="M134.08,204.41v-8.9h1v2.08h0a3.47,3.47,0,0,1,1.22-1.62,3.15,3.15,0,0,1,1.87-.58h.39v1.08h-.25a3,3,0,0,0-2.31.93,3.2,3.2,0,0,0-.87,2.29v4.72Z"/><path class="cls-7" d="M148,204.34l-.36.05h-.33a1.86,1.86,0,0,1-.6-.08.89.89,0,0,1-.4-.27,1.11,1.11,0,0,1-.22-.48,3.31,3.31,0,0,1-.07-.72h0a4.15,4.15,0,0,1-1.4,1.42,3.79,3.79,0,0,1-1.84.4,3.34,3.34,0,0,1-2.17-.68,2.37,2.37,0,0,1-.82-1.94,2.25,2.25,0,0,1,.89-1.94,9.21,9.21,0,0,1,4-.93,2.64,2.64,0,0,0,.6-.11,1,1,0,0,0,.39-.22.81.81,0,0,0,.21-.35,1.74,1.74,0,0,0,.07-.52,1.69,1.69,0,0,0-.55-1.36,2.74,2.74,0,0,0-1.78-.46,3.55,3.55,0,0,0-1,.12,2.23,2.23,0,0,0-.72.34,1.52,1.52,0,0,0-.45.52,1.67,1.67,0,0,0-.18.66h-1.09a2.71,2.71,0,0,1,.3-1.05,2.41,2.41,0,0,1,.7-.81,3.3,3.3,0,0,1,1.09-.52,5.46,5.46,0,0,1,1.48-.18,3.59,3.59,0,0,1,2.48.73A2.66,2.66,0,0,1,147,198v4.83a.64.64,0,0,0,.15.45.63.63,0,0,0,.49.17,1,1,0,0,0,.34-.06Zm-2.07-4.81h0q-.16.3-1,.42l-.9.13-1,.17a3.63,3.63,0,0,0-1.58.59,1.36,1.36,0,0,0-.53,1.14,1.58,1.58,0,0,0,.59,1.28,2.18,2.18,0,0,0,1.4.48A3.2,3.2,0,0,0,145,203a2.51,2.51,0,0,0,.88-2Z"/><path class="cls-7" d="M161.14,204.41v-6.06a2.35,2.35,0,0,0-.5-1.66,2.51,2.51,0,0,0-3.4.28,3.8,3.8,0,0,0-.61,2.32v5.12h-1.1v-6.1a2.46,2.46,0,0,0-.46-1.58,1.69,1.69,0,0,0-1.4-.57,2.34,2.34,0,0,0-2,.88,3.69,3.69,0,0,0-.68,2.32v5h-1.09v-8.9h1V197h0a3.07,3.07,0,0,1,2.92-1.75,3.3,3.3,0,0,1,.87.11,2.57,2.57,0,0,1,.74.33,2.27,2.27,0,0,1,.57.54,2.54,2.54,0,0,1,.37.75,2.93,2.93,0,0,1,1.16-1.3,3.26,3.26,0,0,1,1.68-.44,2.88,2.88,0,0,1,2.21.79,3.2,3.2,0,0,1,.73,2.25v6.12Z"/><path class="cls-7" d="M168.7,195.25a3.67,3.67,0,0,1,1.77.4,3.52,3.52,0,0,1,1.22,1.06,4.68,4.68,0,0,1,.71,1.54,7.08,7.08,0,0,1,.23,1.82v.17h-6.85a4.88,4.88,0,0,0,.17,1.28,3.5,3.5,0,0,0,.53,1.13,2.69,2.69,0,0,0,.89.8,2.61,2.61,0,0,0,1.29.3,3.3,3.3,0,0,0,1-.13,2.77,2.77,0,0,0,.76-.35,2.41,2.41,0,0,0,.56-.53,3.27,3.27,0,0,0,.39-.66h1.07a4.11,4.11,0,0,1-.52,1.07,3.37,3.37,0,0,1-.79.81,3.6,3.6,0,0,1-1.07.52,4.51,4.51,0,0,1-1.35.19,4,4,0,0,1-1.76-.36,3.48,3.48,0,0,1-1.24-1,4.25,4.25,0,0,1-.73-1.5,7,7,0,0,1-.24-1.86,6.34,6.34,0,0,1,.24-1.74,4.58,4.58,0,0,1,.74-1.51,3.72,3.72,0,0,1,1.25-1.06A3.78,3.78,0,0,1,168.7,195.25Zm2.83,4.09a4.16,4.16,0,0,0-.21-1.15,3.34,3.34,0,0,0-.55-1,2.83,2.83,0,0,0-.88-.73,2.51,2.51,0,0,0-1.2-.28,2.57,2.57,0,0,0-1.17.25,2.6,2.6,0,0,0-.86.69,3.66,3.66,0,0,0-.57,1,5.8,5.8,0,0,0-.31,1.22Z"/><path class="cls-7" d="M178.47,204.49h-.89a4.1,4.1,0,0,1-.92-.09,1.31,1.31,0,0,1-.61-.31,1.21,1.21,0,0,1-.33-.58,3.57,3.57,0,0,1-.1-.92v-6.19h-1.79v-.91h1.79v-2.67h1.09v2.67h2v.91h-2v6.07a2.4,2.4,0,0,0,0,.46.85.85,0,0,0,.14.35.67.67,0,0,0,.29.22,1.17,1.17,0,0,0,.47.08h.82l.28,0v.92Z"/><path class="cls-7" d="M184.38,195.25a3.67,3.67,0,0,1,1.77.4,3.52,3.52,0,0,1,1.22,1.06,4.68,4.68,0,0,1,.71,1.54,7.08,7.08,0,0,1,.23,1.82v.17h-6.85a4.88,4.88,0,0,0,.17,1.28,3.5,3.5,0,0,0,.53,1.13,2.69,2.69,0,0,0,.89.8,2.61,2.61,0,0,0,1.29.3,3.3,3.3,0,0,0,1-.13,2.77,2.77,0,0,0,.76-.35,2.41,2.41,0,0,0,.56-.53,3.27,3.27,0,0,0,.39-.66h1.07a4.11,4.11,0,0,1-.52,1.07,3.37,3.37,0,0,1-.79.81,3.6,3.6,0,0,1-1.07.52,4.51,4.51,0,0,1-1.35.19,4,4,0,0,1-1.76-.36,3.48,3.48,0,0,1-1.24-1,4.25,4.25,0,0,1-.73-1.5,7,7,0,0,1-.24-1.86,6.34,6.34,0,0,1,.24-1.74,4.58,4.58,0,0,1,.74-1.51,3.72,3.72,0,0,1,1.25-1.06A3.78,3.78,0,0,1,184.38,195.25Zm2.83,4.09a4.16,4.16,0,0,0-.21-1.15,3.34,3.34,0,0,0-.55-1,2.83,2.83,0,0,0-.88-.73,2.51,2.51,0,0,0-1.2-.28,2.57,2.57,0,0,0-1.17.25,2.6,2.6,0,0,0-.86.69,3.66,3.66,0,0,0-.57,1,5.8,5.8,0,0,0-.31,1.22Z"/><path class="cls-7" d="M190.57,204.41v-8.9h1v2.08h0a3.47,3.47,0,0,1,1.22-1.62,3.15,3.15,0,0,1,1.87-.58h.39v1.08h-.25a3,3,0,0,0-2.31.93,3.2,3.2,0,0,0-.87,2.29v4.72Z"/><path class="cls-7" d="M204.95,192.57a4.84,4.84,0,0,1,1.32.18,3.64,3.64,0,0,1,1.16.55,2.82,2.82,0,0,1,.82.93,2.69,2.69,0,0,1,.31,1.32,3,3,0,0,1-.13.9,2.48,2.48,0,0,1-.38.75,2.4,2.4,0,0,1-.62.57,2.91,2.91,0,0,1-.84.37v0a2.79,2.79,0,0,1,1.8,1,3,3,0,0,1,.6,1.89,3.27,3.27,0,0,1-1.15,2.59,3.76,3.76,0,0,1-1.29.74,5.11,5.11,0,0,1-1.64.24,5,5,0,0,1-1.51-.23,3.8,3.8,0,0,1-1.25-.66,3.18,3.18,0,0,1-.85-1.06,3.1,3.1,0,0,1-.31-1.41v-.25h1.06v.22a2.36,2.36,0,0,0,.76,1.74,2.69,2.69,0,0,0,.89.54,3.31,3.31,0,0,0,1.2.2,3.67,3.67,0,0,0,1.23-.18,3,3,0,0,0,.94-.55,2.31,2.31,0,0,0,.88-1.87,2.57,2.57,0,0,0-.19-1,2.23,2.23,0,0,0-.57-.79,3,3,0,0,0-2.07-.68h-.87v-.89h.93a2.53,2.53,0,0,0,1.64-.56,1.93,1.93,0,0,0,.7-1.57,2.15,2.15,0,0,0-.2-1,2,2,0,0,0-.55-.69,2.35,2.35,0,0,0-.82-.42,3.47,3.47,0,0,0-1-.14,2.86,2.86,0,0,0-1.1.2,2.42,2.42,0,0,0-1.36,1.38,2.67,2.67,0,0,0-.18,1h-1.06a3.33,3.33,0,0,1,.25-1.25,3.44,3.44,0,0,1,.72-1.11,3.68,3.68,0,0,1,1.16-.79A3.82,3.82,0,0,1,204.95,192.57Z"/><path class="cls-7" d="M122.78,238.17a3.17,3.17,0,0,1-.95,2.44,3.45,3.45,0,0,1-2.44.88h-4.12v5h-1.11V234.84h5.23a3.44,3.44,0,0,1,2.44.88A3.16,3.16,0,0,1,122.78,238.17Zm-1.11,0a2.28,2.28,0,0,0-.67-1.75,2.87,2.87,0,0,0-2-.62h-3.71v4.75h3.87a2.68,2.68,0,0,0,1.83-.61A2.23,2.23,0,0,0,121.68,238.17Z"/><path class="cls-7" d="M132.13,246.4l-.36.05h-.33a1.86,1.86,0,0,1-.6-.08.89.89,0,0,1-.4-.27,1.11,1.11,0,0,1-.22-.48,3.31,3.31,0,0,1-.07-.72h0a4.15,4.15,0,0,1-1.4,1.42,3.79,3.79,0,0,1-1.84.4,3.34,3.34,0,0,1-2.17-.68,2.37,2.37,0,0,1-.82-1.94,2.25,2.25,0,0,1,.89-1.94,9.21,9.21,0,0,1,4-.93,2.64,2.64,0,0,0,.6-.11,1,1,0,0,0,.39-.22.81.81,0,0,0,.21-.35,1.74,1.74,0,0,0,.07-.52,1.69,1.69,0,0,0-.55-1.36,2.74,2.74,0,0,0-1.78-.46,3.55,3.55,0,0,0-1,.12,2.23,2.23,0,0,0-.72.34,1.52,1.52,0,0,0-.45.52,1.67,1.67,0,0,0-.18.66h-1.09a2.71,2.71,0,0,1,.3-1.05,2.41,2.41,0,0,1,.7-.81,3.3,3.3,0,0,1,1.09-.52,5.46,5.46,0,0,1,1.48-.18,3.59,3.59,0,0,1,2.48.73,2.66,2.66,0,0,1,.79,2.06v4.83a.64.64,0,0,0,.15.45.63.63,0,0,0,.49.17,1,1,0,0,0,.34-.06Zm-2.07-4.81h0q-.16.3-1,.42l-.9.13-1,.17a3.63,3.63,0,0,0-1.58.59A1.36,1.36,0,0,0,125,244a1.58,1.58,0,0,0,.59,1.28,2.18,2.18,0,0,0,1.4.48,3.2,3.2,0,0,0,2.22-.79,2.51,2.51,0,0,0,.88-2Z"/><path class="cls-7" d="M134.08,246.47v-8.9h1v2.08h0a3.47,3.47,0,0,1,1.22-1.62,3.15,3.15,0,0,1,1.87-.58h.39v1.08h-.25a3,3,0,0,0-2.31.93,3.2,3.2,0,0,0-.87,2.29v4.72Z"/><path class="cls-7" d="M148,246.4l-.36.05h-.33a1.86,1.86,0,0,1-.6-.08.89.89,0,0,1-.4-.27,1.11,1.11,0,0,1-.22-.48,3.31,3.31,0,0,1-.07-.72h0a4.15,4.15,0,0,1-1.4,1.42,3.79,3.79,0,0,1-1.84.4,3.34,3.34,0,0,1-2.17-.68,2.37,2.37,0,0,1-.82-1.94,2.25,2.25,0,0,1,.89-1.94,9.21,9.21,0,0,1,4-.93,2.64,2.64,0,0,0,.6-.11,1,1,0,0,0,.39-.22.81.81,0,0,0,.21-.35,1.74,1.74,0,0,0,.07-.52,1.69,1.69,0,0,0-.55-1.36,2.74,2.74,0,0,0-1.78-.46,3.55,3.55,0,0,0-1,.12,2.23,2.23,0,0,0-.72.34,1.52,1.52,0,0,0-.45.52,1.67,1.67,0,0,0-.18.66h-1.09a2.71,2.71,0,0,1,.3-1.05,2.41,2.41,0,0,1,.7-.81,3.3,3.3,0,0,1,1.09-.52,5.46,5.46,0,0,1,1.48-.18,3.59,3.59,0,0,1,2.48.73,2.66,2.66,0,0,1,.79,2.06v4.83a.64.64,0,0,0,.15.45.63.63,0,0,0,.49.17,1,1,0,0,0,.34-.06Zm-2.07-4.81h0q-.16.3-1,.42l-.9.13-1,.17a3.63,3.63,0,0,0-1.58.59,1.36,1.36,0,0,0-.53,1.14,1.58,1.58,0,0,0,.59,1.28,2.18,2.18,0,0,0,1.4.48A3.2,3.2,0,0,0,145,245a2.51,2.51,0,0,0,.88-2Z"/><path class="cls-7" d="M161.14,246.47v-6.06a2.35,2.35,0,0,0-.5-1.66,2.51,2.51,0,0,0-3.4.28,3.8,3.8,0,0,0-.61,2.32v5.12h-1.1v-6.1a2.46,2.46,0,0,0-.46-1.58,1.69,1.69,0,0,0-1.4-.57,2.34,2.34,0,0,0-2,.88,3.69,3.69,0,0,0-.68,2.32v5h-1.09v-8.9h1v1.49h0a3.07,3.07,0,0,1,2.92-1.75,3.3,3.3,0,0,1,.87.11,2.57,2.57,0,0,1,.74.33,2.27,2.27,0,0,1,.57.54,2.54,2.54,0,0,1,.37.75,2.93,2.93,0,0,1,1.16-1.3,3.26,3.26,0,0,1,1.68-.44,2.88,2.88,0,0,1,2.21.79,3.2,3.2,0,0,1,.73,2.25v6.12Z"/><path class="cls-7" d="M168.7,237.31a3.67,3.67,0,0,1,1.77.4,3.52,3.52,0,0,1,1.22,1.06,4.68,4.68,0,0,1,.71,1.54,7.08,7.08,0,0,1,.23,1.82v.17h-6.85a4.88,4.88,0,0,0,.17,1.28,3.5,3.5,0,0,0,.53,1.13,2.69,2.69,0,0,0,.89.8,2.61,2.61,0,0,0,1.29.3,3.3,3.3,0,0,0,1-.13,2.77,2.77,0,0,0,.76-.35,2.41,2.41,0,0,0,.56-.53,3.27,3.27,0,0,0,.39-.66h1.07a4.11,4.11,0,0,1-.52,1.07,3.37,3.37,0,0,1-.79.81,3.6,3.6,0,0,1-1.07.52,4.51,4.51,0,0,1-1.35.19,4,4,0,0,1-1.76-.36,3.48,3.48,0,0,1-1.24-1,4.25,4.25,0,0,1-.73-1.5,7,7,0,0,1-.24-1.86,6.34,6.34,0,0,1,.24-1.74,4.58,4.58,0,0,1,.74-1.51,3.72,3.72,0,0,1,1.25-1.06A3.78,3.78,0,0,1,168.7,237.31Zm2.83,4.09a4.16,4.16,0,0,0-.21-1.15,3.34,3.34,0,0,0-.55-1,2.83,2.83,0,0,0-.88-.73,2.51,2.51,0,0,0-1.2-.28,2.57,2.57,0,0,0-1.17.25,2.6,2.6,0,0,0-.86.69,3.66,3.66,0,0,0-.57,1,5.8,5.8,0,0,0-.31,1.22Z"/><path class="cls-7" d="M178.47,246.55h-.89a4.1,4.1,0,0,1-.92-.09,1.31,1.31,0,0,1-.61-.31,1.21,1.21,0,0,1-.33-.58,3.57,3.57,0,0,1-.1-.92v-6.19h-1.79v-.91h1.79v-2.67h1.09v2.67h2v.91h-2v6.07a2.4,2.4,0,0,0,0,.46.85.85,0,0,0,.14.35.67.67,0,0,0,.29.22,1.17,1.17,0,0,0,.47.08h.82l.28,0v.92Z"/><path class="cls-7" d="M184.38,237.31a3.67,3.67,0,0,1,1.77.4,3.52,3.52,0,0,1,1.22,1.06,4.68,4.68,0,0,1,.71,1.54,7.08,7.08,0,0,1,.23,1.82v.17h-6.85a4.88,4.88,0,0,0,.17,1.28,3.5,3.5,0,0,0,.53,1.13,2.69,2.69,0,0,0,.89.8,2.61,2.61,0,0,0,1.29.3,3.3,3.3,0,0,0,1-.13,2.77,2.77,0,0,0,.76-.35,2.41,2.41,0,0,0,.56-.53,3.27,3.27,0,0,0,.39-.66h1.07a4.11,4.11,0,0,1-.52,1.07,3.37,3.37,0,0,1-.79.81,3.6,3.6,0,0,1-1.07.52,4.51,4.51,0,0,1-1.35.19,4,4,0,0,1-1.76-.36,3.48,3.48,0,0,1-1.24-1,4.25,4.25,0,0,1-.73-1.5,7,7,0,0,1-.24-1.86,6.34,6.34,0,0,1,.24-1.74,4.58,4.58,0,0,1,.74-1.51,3.72,3.72,0,0,1,1.25-1.06A3.78,3.78,0,0,1,184.38,237.31Zm2.83,4.09a4.16,4.16,0,0,0-.21-1.15,3.34,3.34,0,0,0-.55-1,2.83,2.83,0,0,0-.88-.73,2.51,2.51,0,0,0-1.2-.28,2.57,2.57,0,0,0-1.17.25,2.6,2.6,0,0,0-.86.69,3.66,3.66,0,0,0-.57,1,5.8,5.8,0,0,0-.31,1.22Z"/><path class="cls-7" d="M190.57,246.47v-8.9h1v2.08h0a3.47,3.47,0,0,1,1.22-1.62,3.15,3.15,0,0,1,1.87-.58h.39v1.08h-.25a3,3,0,0,0-2.31.93,3.2,3.2,0,0,0-.87,2.29v4.72Z"/><path class="cls-7" d="M207.3,243.55v2.92h-1v-2.92h-5.42v-1l5.44-7.81h1v7.93h1.76v.89Zm-1-7.27h0l-4.44,6.38h4.47Z"/><path class="cls-7" d="M333.39,120.28v-8.72h-3.1v-.75q.72,0,1.22-.08a3.12,3.12,0,0,0,.78-.17,1.77,1.77,0,0,0,.87-.7,3.35,3.35,0,0,0,.43-1.32h.86v11.74Z"/><path class="cls-7" d="M343.17,108.44a3.82,3.82,0,0,1,2.65.89,3.09,3.09,0,0,1,1,2.42,3.83,3.83,0,0,1-.75,2.25,9.41,9.41,0,0,1-2.72,2.25,11.26,11.26,0,0,0-2.25,1.67,2.69,2.69,0,0,0-.76,1.38h6.53v1h-7.74a4.06,4.06,0,0,1,.75-2.36,9,9,0,0,1,2.62-2.26,11.91,11.91,0,0,0,2.56-2,2.86,2.86,0,0,0,.69-1.92A2.22,2.22,0,0,0,345,110a2.72,2.72,0,0,0-1.9-.67,2.75,2.75,0,0,0-1.16.23,2.46,2.46,0,0,0-.82.6,2.4,2.4,0,0,0-.49.84,3,3,0,0,0-.16,1v.23h-1V112a4,4,0,0,1,.23-1.33,3.27,3.27,0,0,1,.69-1.14,3.36,3.36,0,0,1,1.16-.8A4.16,4.16,0,0,1,343.17,108.44Z"/><path class="cls-7" d="M356.32,108.67v1H351.2l-.74,3.77,0,0a3.16,3.16,0,0,1,1.11-.7,3.8,3.8,0,0,1,1.34-.24,4.33,4.33,0,0,1,1.62.29,3.53,3.53,0,0,1,1.24.83,3.72,3.72,0,0,1,.79,1.28,4.64,4.64,0,0,1,.28,1.65,3.8,3.8,0,0,1-.32,1.55,4,4,0,0,1-2.18,2.12,4.22,4.22,0,0,1-1.62.31,4.46,4.46,0,0,1-1.49-.24,3.52,3.52,0,0,1-1.15-.66,3.06,3.06,0,0,1-.76-1,3.42,3.42,0,0,1-.32-1.29h1.07a2.51,2.51,0,0,0,.22.87,2.23,2.23,0,0,0,.54.73,2.66,2.66,0,0,0,.84.5,3.1,3.1,0,0,0,1.13.19,2.8,2.8,0,0,0,1.18-.25,2.9,2.9,0,0,0,.95-.68,3.26,3.26,0,0,0,.63-1,3.37,3.37,0,0,0,.23-1.25,3.28,3.28,0,0,0-.21-1.17,2.88,2.88,0,0,0-1.55-1.63,3,3,0,0,0-1.23-.25,3.46,3.46,0,0,0-1.45.31,3,3,0,0,0-1.15.93h-.9l1.11-5.95Z"/><path class="cls-7" d="M335.57,159.42v2.92h-1v-2.92h-5.42v-1l5.44-7.81h1v7.93h1.76v.89Zm-1-7.27h0l-4.44,6.38h4.47Z"/><path class="cls-7" d="M343.5,150.5a4.3,4.3,0,0,1,1.27.18,3.18,3.18,0,0,1,1,.52,2.91,2.91,0,0,1,.73.84,3.38,3.38,0,0,1,.4,1.13h-1.06a2.29,2.29,0,0,0-.25-.69,2,2,0,0,0-.48-.57,2.25,2.25,0,0,0-.71-.38,2.93,2.93,0,0,0-.94-.14,2.76,2.76,0,0,0-1.39.35,2.86,2.86,0,0,0-1,1,5.19,5.19,0,0,0-.62,1.65,10.85,10.85,0,0,0-.21,2.24h0a3.51,3.51,0,0,1,3.13-1.95,3.72,3.72,0,0,1,2.78,1.1,3.83,3.83,0,0,1,1.08,2.82,3.85,3.85,0,0,1-4,4,4.18,4.18,0,0,1-1.91-.4,3.13,3.13,0,0,1-1.26-1.14,5.68,5.68,0,0,1-.7-1.89,14.13,14.13,0,0,1-.23-2.78,11.33,11.33,0,0,1,.09-1.44,7.5,7.5,0,0,1,.3-1.37,6,6,0,0,1,.54-1.21,3.82,3.82,0,0,1,.81-1,3.59,3.59,0,0,1,1.12-.65A4.16,4.16,0,0,1,343.5,150.5Zm-3,8.19a3.06,3.06,0,0,0,.77,2.22,2.87,2.87,0,0,0,2.16.79,2.59,2.59,0,0,0,2-.89,3.06,3.06,0,0,0,.8-2.12,3.26,3.26,0,0,0-.78-2.23,2.62,2.62,0,0,0-2.07-.88,2.76,2.76,0,0,0-2.09.86A3.12,3.12,0,0,0,340.47,158.69Z"/><path class="cls-7" d="M356.78,150.74v1a18.62,18.62,0,0,0-1.92,2.37,18,18,0,0,0-1.46,2.59,15.63,15.63,0,0,0-1,2.77,16.65,16.65,0,0,0-.42,2.91h-1.14a17.34,17.34,0,0,1,.43-2.88,14.43,14.43,0,0,1,.9-2.62,21.31,21.31,0,0,1,3.5-5.14h-6.5v-1Z"/><path class="cls-7" d="M336.61,192.8v1h-5.13l-.74,3.77,0,0a3.16,3.16,0,0,1,1.11-.7,3.8,3.8,0,0,1,1.34-.24,4.33,4.33,0,0,1,1.62.29,3.53,3.53,0,0,1,1.24.83,3.72,3.72,0,0,1,.79,1.28,4.64,4.64,0,0,1,.28,1.65,3.8,3.8,0,0,1-.32,1.55,4,4,0,0,1-2.18,2.12,4.22,4.22,0,0,1-1.62.31,4.46,4.46,0,0,1-1.49-.24,3.52,3.52,0,0,1-1.15-.66,3.06,3.06,0,0,1-.76-1,3.42,3.42,0,0,1-.32-1.29h1.07a2.51,2.51,0,0,0,.22.87,2.23,2.23,0,0,0,.54.73,2.66,2.66,0,0,0,.84.5,3.1,3.1,0,0,0,1.13.19,2.8,2.8,0,0,0,1.18-.25,2.9,2.9,0,0,0,.95-.68,3.26,3.26,0,0,0,.63-1,3.37,3.37,0,0,0,.23-1.25,3.28,3.28,0,0,0-.21-1.17,2.88,2.88,0,0,0-1.55-1.63,3,3,0,0,0-1.23-.25,3.46,3.46,0,0,0-1.45.31,3,3,0,0,0-1.15.93h-.9l1.11-5.95Z"/><path class="cls-7" d="M346.93,192.8v1a18.62,18.62,0,0,0-1.92,2.37,18,18,0,0,0-1.46,2.59,15.63,15.63,0,0,0-1,2.77,16.65,16.65,0,0,0-.42,2.91H341a17.34,17.34,0,0,1,.43-2.88,14.43,14.43,0,0,1,.9-2.62,21.31,21.31,0,0,1,3.5-5.14h-6.5v-1Z"/><path class="cls-7" d="M357.09,201.12a3.2,3.2,0,0,1-1.12,2.59,4.36,4.36,0,0,1-2.93.95,4.31,4.31,0,0,1-2.93-1,3.42,3.42,0,0,1-.95-3.58,3.1,3.1,0,0,1,.48-.9,3,3,0,0,1,1.74-1.1v0a2.79,2.79,0,0,1-1.44-1,2.66,2.66,0,0,1-.48-1.61,2.57,2.57,0,0,1,1-2.13,4,4,0,0,1,2.53-.8,4,4,0,0,1,2.54.8,2.55,2.55,0,0,1,1,2.13,3,3,0,0,1-.13.88,2.45,2.45,0,0,1-1,1.32,2.82,2.82,0,0,1-.81.38v0a3,3,0,0,1,1.79,1A3.11,3.11,0,0,1,357.09,201.12Zm-1.06,0a2.38,2.38,0,0,0-.79-1.84,3.77,3.77,0,0,0-4.4,0,2.38,2.38,0,0,0-.78,1.85,2.43,2.43,0,0,0,.82,1.93,3.66,3.66,0,0,0,4.34,0A2.42,2.42,0,0,0,356,201.12Zm-.49-5.62a1.84,1.84,0,0,0-.68-1.5,3.22,3.22,0,0,0-3.62,0,1.76,1.76,0,0,0-.72,1.48,2,2,0,0,0,.67,1.6,2.65,2.65,0,0,0,1.79.58,2.69,2.69,0,0,0,1.92-.6A2.06,2.06,0,0,0,355.54,195.5Z"/><path class="cls-7" d="M336.61,234.86v1h-5.13l-.74,3.77,0,0a3.16,3.16,0,0,1,1.11-.7,3.8,3.8,0,0,1,1.34-.24,4.33,4.33,0,0,1,1.62.29,3.53,3.53,0,0,1,1.24.83,3.72,3.72,0,0,1,.79,1.28,4.64,4.64,0,0,1,.28,1.65,3.8,3.8,0,0,1-.32,1.55,4,4,0,0,1-2.18,2.12,4.22,4.22,0,0,1-1.62.31,4.46,4.46,0,0,1-1.49-.24,3.52,3.52,0,0,1-1.15-.66,3.06,3.06,0,0,1-.76-1,3.42,3.42,0,0,1-.32-1.29h1.07a2.51,2.51,0,0,0,.22.87,2.23,2.23,0,0,0,.54.73,2.66,2.66,0,0,0,.84.5,3.1,3.1,0,0,0,1.13.19,2.8,2.8,0,0,0,1.18-.25,2.9,2.9,0,0,0,.95-.68,3.26,3.26,0,0,0,.63-1,3.37,3.37,0,0,0,.23-1.25,3.28,3.28,0,0,0-.21-1.17,2.88,2.88,0,0,0-1.55-1.63,3,3,0,0,0-1.23-.25,3.46,3.46,0,0,0-1.45.31,3,3,0,0,0-1.15.93h-.9l1.11-5.95Z"/><path class="cls-7" d="M347.23,243.18a3.2,3.2,0,0,1-1.12,2.59,4.36,4.36,0,0,1-2.93.95,4.31,4.31,0,0,1-2.93-1,3.42,3.42,0,0,1-.95-3.58,3.1,3.1,0,0,1,.48-.9,3,3,0,0,1,1.74-1.1v0a2.79,2.79,0,0,1-1.44-1,2.66,2.66,0,0,1-.48-1.61,2.57,2.57,0,0,1,1-2.13,4,4,0,0,1,2.53-.8,4,4,0,0,1,2.54.8,2.55,2.55,0,0,1,1,2.13,3,3,0,0,1-.13.88,2.45,2.45,0,0,1-1,1.32,2.82,2.82,0,0,1-.81.38v0a3,3,0,0,1,1.79,1A3.11,3.11,0,0,1,347.23,243.18Zm-1.06,0a2.38,2.38,0,0,0-.79-1.84,3.77,3.77,0,0,0-4.4,0,2.38,2.38,0,0,0-.78,1.85,2.43,2.43,0,0,0,.82,1.93,3.66,3.66,0,0,0,4.34,0A2.42,2.42,0,0,0,346.17,243.18Zm-.49-5.62a1.84,1.84,0,0,0-.68-1.5,3.22,3.22,0,0,0-3.62,0,1.76,1.76,0,0,0-.72,1.48,2,2,0,0,0,.67,1.6,2.65,2.65,0,0,0,1.79.58,2.69,2.69,0,0,0,1.92-.6A2.06,2.06,0,0,0,345.68,237.56Z"/><path class="cls-7" d="M451.26,108.44a4.84,4.84,0,0,1,1.32.18,3.64,3.64,0,0,1,1.16.55,2.82,2.82,0,0,1,.82.93,2.69,2.69,0,0,1,.31,1.32,3,3,0,0,1-.13.9,2.48,2.48,0,0,1-.38.75,2.4,2.4,0,0,1-.62.57,2.91,2.91,0,0,1-.84.37v0a2.79,2.79,0,0,1,1.8,1,3,3,0,0,1,.6,1.89,3.27,3.27,0,0,1-1.15,2.59,3.76,3.76,0,0,1-1.29.74,5.11,5.11,0,0,1-1.64.24,5,5,0,0,1-1.51-.23,3.8,3.8,0,0,1-1.25-.66,3.18,3.18,0,0,1-.85-1.06,3.1,3.1,0,0,1-.31-1.41v-.25h1.06v.22a2.36,2.36,0,0,0,.76,1.74,2.69,2.69,0,0,0,.89.54,3.31,3.31,0,0,0,1.2.2,3.67,3.67,0,0,0,1.23-.18,3,3,0,0,0,.94-.55,2.31,2.31,0,0,0,.88-1.87,2.57,2.57,0,0,0-.19-1,2.23,2.23,0,0,0-.57-.79,3,3,0,0,0-2.07-.68h-.87v-.89h.93a2.53,2.53,0,0,0,1.64-.56,1.93,1.93,0,0,0,.7-1.57,2.15,2.15,0,0,0-.2-1,2,2,0,0,0-.55-.69,2.35,2.35,0,0,0-.82-.42,3.47,3.47,0,0,0-1-.14,2.86,2.86,0,0,0-1.1.2,2.42,2.42,0,0,0-1.36,1.38,2.67,2.67,0,0,0-.18,1h-1.06a3.33,3.33,0,0,1,.25-1.25,3.44,3.44,0,0,1,.72-1.11,3.68,3.68,0,0,1,1.16-.79A3.82,3.82,0,0,1,451.26,108.44Z"/><path class="cls-7" d="M463.47,117.36v2.92h-1v-2.92h-5.42v-1l5.44-7.81h1v7.93h1.76v.89Zm-1-7.27h0L458,116.47h4.47Z"/><path class="cls-7" d="M451.69,150.5a4.3,4.3,0,0,1,1.27.18,3.18,3.18,0,0,1,1,.52,2.91,2.91,0,0,1,.73.84,3.38,3.38,0,0,1,.4,1.13h-1.06a2.29,2.29,0,0,0-.25-.69,2,2,0,0,0-.48-.57,2.25,2.25,0,0,0-.71-.38,2.93,2.93,0,0,0-.94-.14,2.76,2.76,0,0,0-1.39.35,2.86,2.86,0,0,0-1,1,5.19,5.19,0,0,0-.62,1.65,10.85,10.85,0,0,0-.21,2.24h0a3.51,3.51,0,0,1,3.13-1.95,3.72,3.72,0,0,1,2.78,1.1,3.83,3.83,0,0,1,1.08,2.82,3.85,3.85,0,0,1-4,4,4.18,4.18,0,0,1-1.91-.4,3.13,3.13,0,0,1-1.26-1.14,5.68,5.68,0,0,1-.7-1.89,14.13,14.13,0,0,1-.23-2.78,11.33,11.33,0,0,1,.09-1.44,7.5,7.5,0,0,1,.3-1.37,6,6,0,0,1,.54-1.21,3.82,3.82,0,0,1,.81-1,3.59,3.59,0,0,1,1.12-.65A4.16,4.16,0,0,1,451.69,150.5Zm-3,8.19a3.06,3.06,0,0,0,.77,2.22,2.87,2.87,0,0,0,2.16.79,2.59,2.59,0,0,0,2-.89,3.06,3.06,0,0,0,.8-2.12,3.26,3.26,0,0,0-.78-2.23,2.62,2.62,0,0,0-2.07-.88,2.76,2.76,0,0,0-2.09.86A3.12,3.12,0,0,0,448.66,158.69Z"/><path class="cls-7" d="M451.26,192.57a4.84,4.84,0,0,1,1.32.18,3.64,3.64,0,0,1,1.16.55,2.82,2.82,0,0,1,.82.93,2.69,2.69,0,0,1,.31,1.32,3,3,0,0,1-.13.9,2.48,2.48,0,0,1-.38.75,2.4,2.4,0,0,1-.62.57,2.91,2.91,0,0,1-.84.37v0a2.79,2.79,0,0,1,1.8,1,3,3,0,0,1,.6,1.89,3.27,3.27,0,0,1-1.15,2.59,3.76,3.76,0,0,1-1.29.74,5.11,5.11,0,0,1-1.64.24,5,5,0,0,1-1.51-.23,3.8,3.8,0,0,1-1.25-.66,3.18,3.18,0,0,1-.85-1.06,3.1,3.1,0,0,1-.31-1.41v-.25h1.06v.22a2.36,2.36,0,0,0,.76,1.74,2.69,2.69,0,0,0,.89.54,3.31,3.31,0,0,0,1.2.2,3.67,3.67,0,0,0,1.23-.18,3,3,0,0,0,.94-.55,2.31,2.31,0,0,0,.88-1.87,2.57,2.57,0,0,0-.19-1,2.23,2.23,0,0,0-.57-.79,3,3,0,0,0-2.07-.68h-.87v-.89h.93a2.53,2.53,0,0,0,1.64-.56,1.93,1.93,0,0,0,.7-1.57,2.15,2.15,0,0,0-.2-1,2,2,0,0,0-.55-.69,2.35,2.35,0,0,0-.82-.42,3.47,3.47,0,0,0-1-.14,2.86,2.86,0,0,0-1.1.2,2.42,2.42,0,0,0-1.36,1.38,2.67,2.67,0,0,0-.18,1h-1.06a3.33,3.33,0,0,1,.25-1.25,3.44,3.44,0,0,1,.72-1.11,3.68,3.68,0,0,1,1.16-.79A3.82,3.82,0,0,1,451.26,192.57Z"/><path class="cls-7" d="M461.54,192.57a4.3,4.3,0,0,1,1.27.18,3.18,3.18,0,0,1,1,.52,2.91,2.91,0,0,1,.73.84,3.38,3.38,0,0,1,.4,1.13h-1.06a2.29,2.29,0,0,0-.25-.69,2,2,0,0,0-.48-.57,2.25,2.25,0,0,0-.71-.38,2.93,2.93,0,0,0-.94-.14,2.76,2.76,0,0,0-1.39.35,2.86,2.86,0,0,0-1,1,5.19,5.19,0,0,0-.62,1.65,10.85,10.85,0,0,0-.21,2.24h0a3.51,3.51,0,0,1,3.13-1.95,3.72,3.72,0,0,1,2.78,1.1,3.83,3.83,0,0,1,1.08,2.82,3.85,3.85,0,0,1-4,4,4.18,4.18,0,0,1-1.91-.4,3.13,3.13,0,0,1-1.26-1.14,5.68,5.68,0,0,1-.7-1.89,14.13,14.13,0,0,1-.23-2.78,11.33,11.33,0,0,1,.09-1.44,7.5,7.5,0,0,1,.3-1.37,6,6,0,0,1,.54-1.21,3.82,3.82,0,0,1,.81-1,3.59,3.59,0,0,1,1.12-.65A4.16,4.16,0,0,1,461.54,192.57Zm-3,8.19a3.06,3.06,0,0,0,.77,2.22,2.87,2.87,0,0,0,2.16.79,2.59,2.59,0,0,0,2-.89,3.06,3.06,0,0,0,.8-2.12,3.26,3.26,0,0,0-.78-2.23,2.62,2.62,0,0,0-2.07-.88,2.76,2.76,0,0,0-2.09.86A3.12,3.12,0,0,0,458.52,200.76Z"/><path class="cls-7" d="M471.4,192.57a4.3,4.3,0,0,1,1.27.18,3.18,3.18,0,0,1,1,.52,2.91,2.91,0,0,1,.73.84,3.38,3.38,0,0,1,.4,1.13h-1.06a2.29,2.29,0,0,0-.25-.69A2,2,0,0,0,473,194a2.25,2.25,0,0,0-.71-.38,2.93,2.93,0,0,0-.94-.14,2.76,2.76,0,0,0-1.39.35,2.86,2.86,0,0,0-1,1,5.19,5.19,0,0,0-.62,1.65,10.85,10.85,0,0,0-.21,2.24h0a3.51,3.51,0,0,1,3.13-1.95,3.72,3.72,0,0,1,2.78,1.1,3.83,3.83,0,0,1,1.08,2.82,3.85,3.85,0,0,1-4,4,4.18,4.18,0,0,1-1.91-.4,3.13,3.13,0,0,1-1.26-1.14,5.68,5.68,0,0,1-.7-1.89,14.13,14.13,0,0,1-.23-2.78,11.33,11.33,0,0,1,.09-1.44,7.5,7.5,0,0,1,.3-1.37,6,6,0,0,1,.54-1.21,3.82,3.82,0,0,1,.81-1,3.59,3.59,0,0,1,1.12-.65A4.16,4.16,0,0,1,471.4,192.57Zm-3,8.19a3.06,3.06,0,0,0,.77,2.22,2.87,2.87,0,0,0,2.16.79,2.59,2.59,0,0,0,2-.89,3.06,3.06,0,0,0,.8-2.12,3.26,3.26,0,0,0-.78-2.23,2.62,2.62,0,0,0-2.07-.88,2.76,2.76,0,0,0-2.09.86A3.12,3.12,0,0,0,468.37,200.76Z"/><path class="cls-7" d="M451.34,234.63a3.89,3.89,0,0,1,1.79.39,3.37,3.37,0,0,1,1.28,1.15,5.61,5.61,0,0,1,.77,1.89,11.69,11.69,0,0,1,.26,2.6,8.07,8.07,0,0,1-1,4.54,3.82,3.82,0,0,1-6.09,0,10.35,10.35,0,0,1,0-9.07A3.47,3.47,0,0,1,451.34,234.63Zm-3,6q0,5.17,3,5.17t3-5.17a7.66,7.66,0,0,0-.77-3.85,2.5,2.5,0,0,0-2.28-1.29,2.47,2.47,0,0,0-2.24,1.27A7.65,7.65,0,0,0,448.32,240.66Z"/><path class="cls-4" d="M566.32,72.41l2.52,7.78h0l2.52-7.78h1.76l-3.35,9.69h-1.92l-3.31-9.69Z"/><rect class="cls-2" x="95" y="304.74" width="962.01" height="40.71"/><rect class="cls-3" x="95" y="262.67" width="962.01" height="40.71"/><rect class="cls-3" x="95" y="304.74" width="962.01" height="40.71"/><rect class="cls-6" x="95" y="301.79" width="960.66" height="2.28"/><path class="cls-7" d="M122.78,280.44a3.17,3.17,0,0,1-.95,2.44,3.45,3.45,0,0,1-2.44.88h-4.12v5h-1.11V277.12h5.23a3.44,3.44,0,0,1,2.44.88A3.16,3.16,0,0,1,122.78,280.44Zm-1.11,0a2.28,2.28,0,0,0-.67-1.75,2.87,2.87,0,0,0-2-.62h-3.71v4.75h3.87a2.68,2.68,0,0,0,1.83-.61A2.23,2.23,0,0,0,121.68,280.44Z"/><path class="cls-7" d="M132.13,288.67l-.36.05h-.33a1.86,1.86,0,0,1-.6-.08.89.89,0,0,1-.4-.27,1.11,1.11,0,0,1-.22-.48,3.31,3.31,0,0,1-.07-.72h0a4.15,4.15,0,0,1-1.4,1.42,3.79,3.79,0,0,1-1.84.4,3.34,3.34,0,0,1-2.17-.68,2.37,2.37,0,0,1-.82-1.94,2.25,2.25,0,0,1,.89-1.94,9.21,9.21,0,0,1,4-.93,2.64,2.64,0,0,0,.6-.11,1,1,0,0,0,.39-.22.81.81,0,0,0,.21-.35,1.74,1.74,0,0,0,.07-.52,1.69,1.69,0,0,0-.55-1.36,2.74,2.74,0,0,0-1.78-.46,3.55,3.55,0,0,0-1,.12,2.23,2.23,0,0,0-.72.34,1.52,1.52,0,0,0-.45.52,1.67,1.67,0,0,0-.18.66h-1.09a2.71,2.71,0,0,1,.3-1.05,2.41,2.41,0,0,1,.7-.81,3.3,3.3,0,0,1,1.09-.52,5.46,5.46,0,0,1,1.48-.18,3.59,3.59,0,0,1,2.48.73,2.66,2.66,0,0,1,.79,2.06v4.83a.64.64,0,0,0,.15.45.63.63,0,0,0,.49.17,1,1,0,0,0,.34-.06Zm-2.07-4.81h0q-.16.3-1,.42l-.9.13-1,.17a3.63,3.63,0,0,0-1.58.59,1.36,1.36,0,0,0-.53,1.14,1.58,1.58,0,0,0,.59,1.28,2.18,2.18,0,0,0,1.4.48,3.2,3.2,0,0,0,2.22-.79,2.51,2.51,0,0,0,.88-2Z"/><path class="cls-7" d="M134.08,288.74v-8.9h1v2.08h0a3.47,3.47,0,0,1,1.22-1.62,3.15,3.15,0,0,1,1.87-.58h.39v1.08h-.25a3,3,0,0,0-2.31.93,3.2,3.2,0,0,0-.87,2.29v4.72Z"/><path class="cls-7" d="M148,288.67l-.36.05h-.33a1.86,1.86,0,0,1-.6-.08.89.89,0,0,1-.4-.27,1.11,1.11,0,0,1-.22-.48,3.31,3.31,0,0,1-.07-.72h0a4.15,4.15,0,0,1-1.4,1.42,3.79,3.79,0,0,1-1.84.4,3.34,3.34,0,0,1-2.17-.68,2.37,2.37,0,0,1-.82-1.94,2.25,2.25,0,0,1,.89-1.94,9.21,9.21,0,0,1,4-.93,2.64,2.64,0,0,0,.6-.11,1,1,0,0,0,.39-.22.81.81,0,0,0,.21-.35,1.74,1.74,0,0,0,.07-.52,1.69,1.69,0,0,0-.55-1.36,2.74,2.74,0,0,0-1.78-.46,3.55,3.55,0,0,0-1,.12,2.23,2.23,0,0,0-.72.34,1.52,1.52,0,0,0-.45.52,1.67,1.67,0,0,0-.18.66h-1.09a2.71,2.71,0,0,1,.3-1.05,2.41,2.41,0,0,1,.7-.81,3.3,3.3,0,0,1,1.09-.52,5.46,5.46,0,0,1,1.48-.18,3.59,3.59,0,0,1,2.48.73,2.66,2.66,0,0,1,.79,2.06v4.83a.64.64,0,0,0,.15.45.63.63,0,0,0,.49.17,1,1,0,0,0,.34-.06Zm-2.07-4.81h0q-.16.3-1,.42l-.9.13-1,.17a3.63,3.63,0,0,0-1.58.59,1.36,1.36,0,0,0-.53,1.14,1.58,1.58,0,0,0,.59,1.28,2.18,2.18,0,0,0,1.4.48,3.2,3.2,0,0,0,2.22-.79,2.51,2.51,0,0,0,.88-2Z"/><path class="cls-7" d="M161.14,288.74v-6.06a2.35,2.35,0,0,0-.5-1.66,2.51,2.51,0,0,0-3.4.28,3.8,3.8,0,0,0-.61,2.32v5.12h-1.1v-6.1a2.46,2.46,0,0,0-.46-1.58,1.69,1.69,0,0,0-1.4-.57,2.34,2.34,0,0,0-2,.88,3.69,3.69,0,0,0-.68,2.32v5h-1.09v-8.9h1v1.49h0a3.07,3.07,0,0,1,2.92-1.75,3.3,3.3,0,0,1,.87.11,2.57,2.57,0,0,1,.74.33,2.27,2.27,0,0,1,.57.54,2.54,2.54,0,0,1,.37.75,2.93,2.93,0,0,1,1.16-1.3,3.26,3.26,0,0,1,1.68-.44,2.88,2.88,0,0,1,2.21.79,3.2,3.2,0,0,1,.73,2.25v6.12Z"/><path class="cls-7" d="M168.7,279.58a3.67,3.67,0,0,1,1.77.4,3.52,3.52,0,0,1,1.22,1.06,4.68,4.68,0,0,1,.71,1.54,7.08,7.08,0,0,1,.23,1.82v.17h-6.85a4.88,4.88,0,0,0,.17,1.28,3.5,3.5,0,0,0,.53,1.13,2.69,2.69,0,0,0,.89.8,2.61,2.61,0,0,0,1.29.3,3.3,3.3,0,0,0,1-.13,2.77,2.77,0,0,0,.76-.35,2.41,2.41,0,0,0,.56-.53,3.27,3.27,0,0,0,.39-.66h1.07a4.11,4.11,0,0,1-.52,1.07,3.37,3.37,0,0,1-.79.81,3.6,3.6,0,0,1-1.07.52,4.51,4.51,0,0,1-1.35.19,4,4,0,0,1-1.76-.36,3.48,3.48,0,0,1-1.24-1,4.25,4.25,0,0,1-.73-1.5,7,7,0,0,1-.24-1.86,6.34,6.34,0,0,1,.24-1.74,4.58,4.58,0,0,1,.74-1.51A3.72,3.72,0,0,1,166.9,280,3.78,3.78,0,0,1,168.7,279.58Zm2.83,4.09a4.16,4.16,0,0,0-.21-1.15,3.34,3.34,0,0,0-.55-1,2.83,2.83,0,0,0-.88-.73,2.51,2.51,0,0,0-1.2-.28,2.57,2.57,0,0,0-1.17.25,2.6,2.6,0,0,0-.86.69,3.66,3.66,0,0,0-.57,1,5.8,5.8,0,0,0-.31,1.22Z"/><path class="cls-7" d="M178.47,288.82h-.89a4.1,4.1,0,0,1-.92-.09,1.31,1.31,0,0,1-.61-.31,1.21,1.21,0,0,1-.33-.58,3.57,3.57,0,0,1-.1-.92v-6.19h-1.79v-.91h1.79v-2.67h1.09v2.67h2v.91h-2v6.07a2.4,2.4,0,0,0,0,.46.85.85,0,0,0,.14.35.67.67,0,0,0,.29.22,1.17,1.17,0,0,0,.47.08h.82l.28,0v.92Z"/><path class="cls-7" d="M184.38,279.58a3.67,3.67,0,0,1,1.77.4,3.52,3.52,0,0,1,1.22,1.06,4.68,4.68,0,0,1,.71,1.54,7.08,7.08,0,0,1,.23,1.82v.17h-6.85a4.88,4.88,0,0,0,.17,1.28,3.5,3.5,0,0,0,.53,1.13,2.69,2.69,0,0,0,.89.8,2.61,2.61,0,0,0,1.29.3,3.3,3.3,0,0,0,1-.13,2.77,2.77,0,0,0,.76-.35,2.41,2.41,0,0,0,.56-.53,3.27,3.27,0,0,0,.39-.66h1.07a4.11,4.11,0,0,1-.52,1.07,3.37,3.37,0,0,1-.79.81,3.6,3.6,0,0,1-1.07.52,4.51,4.51,0,0,1-1.35.19,4,4,0,0,1-1.76-.36,3.48,3.48,0,0,1-1.24-1,4.25,4.25,0,0,1-.73-1.5,7,7,0,0,1-.24-1.86,6.34,6.34,0,0,1,.24-1.74,4.58,4.58,0,0,1,.74-1.51,3.72,3.72,0,0,1,1.25-1.06A3.78,3.78,0,0,1,184.38,279.58Zm2.83,4.09a4.16,4.16,0,0,0-.21-1.15,3.34,3.34,0,0,0-.55-1,2.83,2.83,0,0,0-.88-.73,2.51,2.51,0,0,0-1.2-.28,2.57,2.57,0,0,0-1.17.25,2.6,2.6,0,0,0-.86.69,3.66,3.66,0,0,0-.57,1,5.8,5.8,0,0,0-.31,1.22Z"/><path class="cls-7" d="M190.57,288.74v-8.9h1v2.08h0a3.47,3.47,0,0,1,1.22-1.62,3.15,3.15,0,0,1,1.87-.58h.39v1.08h-.25a3,3,0,0,0-2.31.93,3.2,3.2,0,0,0-.87,2.29v4.72Z"/><path class="cls-7" d="M208.34,277.13v1h-5.13l-.74,3.77,0,0a3.16,3.16,0,0,1,1.11-.7A3.8,3.8,0,0,1,205,281a4.33,4.33,0,0,1,1.62.29,3.53,3.53,0,0,1,1.24.83,3.72,3.72,0,0,1,.79,1.28,4.64,4.64,0,0,1,.28,1.65,3.8,3.8,0,0,1-.32,1.55,4,4,0,0,1-2.18,2.12,4.22,4.22,0,0,1-1.62.31,4.46,4.46,0,0,1-1.49-.24,3.52,3.52,0,0,1-1.15-.66,3.06,3.06,0,0,1-.76-1,3.42,3.42,0,0,1-.32-1.29h1.07a2.51,2.51,0,0,0,.22.87,2.23,2.23,0,0,0,.54.73,2.66,2.66,0,0,0,.84.5,3.1,3.1,0,0,0,1.13.19,2.8,2.8,0,0,0,1.18-.25,2.9,2.9,0,0,0,.95-.68,3.26,3.26,0,0,0,.63-1,3.37,3.37,0,0,0,.23-1.25,3.28,3.28,0,0,0-.21-1.17,2.88,2.88,0,0,0-1.55-1.63,3,3,0,0,0-1.23-.25,3.46,3.46,0,0,0-1.45.31,3,3,0,0,0-1.15.93h-.9l1.11-5.95Z"/><path class="cls-7" d="M333.39,288.74V280h-3.1v-.75q.72,0,1.22-.08a3.12,3.12,0,0,0,.78-.17,1.77,1.77,0,0,0,.87-.7,3.35,3.35,0,0,0,.43-1.32h.86v11.74Z"/><path class="cls-7" d="M343.17,276.9a3.82,3.82,0,0,1,2.65.89,3.09,3.09,0,0,1,1,2.42,3.83,3.83,0,0,1-.75,2.25,9.41,9.41,0,0,1-2.72,2.25,11.26,11.26,0,0,0-2.25,1.67,2.69,2.69,0,0,0-.76,1.38h6.53v1h-7.74a4.06,4.06,0,0,1,.75-2.36,9,9,0,0,1,2.62-2.26,11.91,11.91,0,0,0,2.56-2,2.86,2.86,0,0,0,.69-1.92,2.22,2.22,0,0,0-.73-1.73,2.72,2.72,0,0,0-1.9-.67A2.75,2.75,0,0,0,342,278a2.46,2.46,0,0,0-.82.6,2.4,2.4,0,0,0-.49.84,3,3,0,0,0-.16,1v.23h-1v-.17a4,4,0,0,1,.23-1.33,3.27,3.27,0,0,1,.69-1.14,3.36,3.36,0,0,1,1.16-.8A4.16,4.16,0,0,1,343.17,276.9Z"/><path class="cls-7" d="M356.32,277.13v1H351.2l-.74,3.77,0,0a3.16,3.16,0,0,1,1.11-.7A3.8,3.8,0,0,1,353,281a4.33,4.33,0,0,1,1.62.29,3.53,3.53,0,0,1,1.24.83,3.72,3.72,0,0,1,.79,1.28,4.64,4.64,0,0,1,.28,1.65,3.8,3.8,0,0,1-.32,1.55,4,4,0,0,1-2.18,2.12,4.22,4.22,0,0,1-1.62.31,4.46,4.46,0,0,1-1.49-.24,3.52,3.52,0,0,1-1.15-.66,3.06,3.06,0,0,1-.76-1,3.42,3.42,0,0,1-.32-1.29h1.07a2.51,2.51,0,0,0,.22.87,2.23,2.23,0,0,0,.54.73,2.66,2.66,0,0,0,.84.5,3.1,3.1,0,0,0,1.13.19,2.8,2.8,0,0,0,1.18-.25,2.9,2.9,0,0,0,.95-.68,3.26,3.26,0,0,0,.63-1,3.37,3.37,0,0,0,.23-1.25,3.28,3.28,0,0,0-.21-1.17,2.88,2.88,0,0,0-1.55-1.63,3,3,0,0,0-1.23-.25,3.46,3.46,0,0,0-1.45.31,3,3,0,0,0-1.15.93h-.9l1.11-5.95Z"/><path class="cls-7" d="M451.26,276.9a4.84,4.84,0,0,1,1.32.18,3.64,3.64,0,0,1,1.16.55,2.82,2.82,0,0,1,.82.93,2.69,2.69,0,0,1,.31,1.32,3,3,0,0,1-.13.9,2.48,2.48,0,0,1-.38.75,2.4,2.4,0,0,1-.62.57,2.91,2.91,0,0,1-.84.37v0a2.79,2.79,0,0,1,1.8,1,3,3,0,0,1,.6,1.89,3.27,3.27,0,0,1-1.15,2.59,3.76,3.76,0,0,1-1.29.74,5.11,5.11,0,0,1-1.64.24,5,5,0,0,1-1.51-.23,3.8,3.8,0,0,1-1.25-.66,3.18,3.18,0,0,1-.85-1.06,3.1,3.1,0,0,1-.31-1.41v-.25h1.06v.22a2.36,2.36,0,0,0,.76,1.74,2.69,2.69,0,0,0,.89.54,3.31,3.31,0,0,0,1.2.2,3.67,3.67,0,0,0,1.23-.18,3,3,0,0,0,.94-.55,2.31,2.31,0,0,0,.88-1.87,2.57,2.57,0,0,0-.19-1,2.23,2.23,0,0,0-.57-.79,3,3,0,0,0-2.07-.68h-.87v-.89h.93a2.53,2.53,0,0,0,1.64-.56,1.93,1.93,0,0,0,.7-1.57,2.15,2.15,0,0,0-.2-1,2,2,0,0,0-.55-.69,2.35,2.35,0,0,0-.82-.42,3.47,3.47,0,0,0-1-.14,2.86,2.86,0,0,0-1.1.2,2.42,2.42,0,0,0-1.36,1.38,2.67,2.67,0,0,0-.18,1h-1.06a3.33,3.33,0,0,1,.25-1.25,3.44,3.44,0,0,1,.72-1.11,3.68,3.68,0,0,1,1.16-.79A3.82,3.82,0,0,1,451.26,276.9Z"/><path class="cls-7" d="M463.47,285.82v2.92h-1v-2.92h-5.42v-1l5.44-7.81h1v7.93h1.76v.89Zm-1-7.27h0L458,284.93h4.47Z"/><polygon class="cls-3" points="298.54 75.22 293.11 80.65 287.67 75.22 298.54 75.22"/><polyline class="cls-3" points="310.74 94.22 310.74 91.5 95 91.5 95 94.22"/><polygon class="cls-3" points="293.36 73.95 287.66 79.64 281.97 73.95 293.36 73.95"/><polyline class="cls-3" points="306.39 94.44 306.39 89.89 95 89.89 95 94.44"/><path class="cls-8" d="M1,316V1H564V316Zm74-34H524V35H75Z"/><path class="cls-8" d="M563,2V315H2V2H563M74,283H525V34H74V283M565,0H0V317H565V0ZM76,281V36H523V281Z"/><path class="cls-1" d="M39.5,174A15.5,15.5,0,1,1,55,158.5,15.52,15.52,0,0,1,39.5,174Z"/><path class="cls-1" d="M39.5,144A14.5,14.5,0,1,1,25,158.5,14.52,14.52,0,0,1,39.5,144m0-2A16.5,16.5,0,1,0,56,158.5,16.5,16.5,0,0,0,39.5,142Z"/></g></svg>