<svg xmlns="http://www.w3.org/2000/svg" viewBox="0 0 712 195"><defs><style>.cls-1,.cls-7{fill:#fff;}.cls-2{opacity:0.04;}.cls-3,.cls-4{fill:#dcdcdc;}.cls-4,.cls-5,.cls-7{opacity:0.6;}.cls-6{fill:#bebebe;}.cls-8{fill:#d2d2d2;}.cls-9{fill:#464646;}.cls-10{fill:#444;}.cls-11{fill:none;stroke:#c8c8c8;stroke-miterlimit:10;}</style></defs><title>Artboard 9</title><g id="Bg"><rect class="cls-1" x="-806" y="-345" width="6000" height="2500"/></g><g id="Tabeller"><rect class="cls-2" x="218.5" y="145.5" width="43" height="31"/><path class="cls-3" d="M261,146v30H219V146h42m1-1H218v32h44V145Z"/><rect class="cls-2" x="218.5" y="114.5" width="43" height="31"/><path class="cls-3" d="M261,115v30H219V115h42m1-1H218v32h44V114Z"/><rect class="cls-2" x="218.5" y="83.5" width="43" height="31"/><path class="cls-3" d="M261,84v30H219V84h42m1-1H218v32h44V83Z"/><rect class="cls-2" x="218.5" y="52.5" width="43" height="31"/><path class="cls-3" d="M261,53V83H219V53h42m1-1H218V84h44V52Z"/><rect class="cls-2" x="261.5" y="145.5" width="43" height="31"/><path class="cls-3" d="M304,146v30H262V146h42m1-1H261v32h44V145Z"/><rect class="cls-2" x="261.5" y="114.5" width="43" height="31"/><path class="cls-3" d="M304,115v30H262V115h42m1-1H261v32h44V114Z"/><rect class="cls-2" x="261.5" y="83.5" width="43" height="31"/><path class="cls-3" d="M304,84v30H262V84h42m1-1H261v32h44V83Z"/><rect class="cls-2" x="261.5" y="52.5" width="43" height="31"/><path class="cls-3" d="M304,53V83H262V53h42m1-1H261V84h44V52Z"/><rect class="cls-2" x="519.5" y="145.5" width="43" height="31"/><path class="cls-3" d="M562,146v30H520V146h42m1-1H519v32h44V145Z"/><rect class="cls-2" x="519.5" y="114.5" width="43" height="31"/><path class="cls-3" d="M562,115v30H520V115h42m1-1H519v32h44V114Z"/><rect class="cls-2" x="519.5" y="83.5" width="43" height="31"/><path class="cls-3" d="M562,84v30H520V84h42m1-1H519v32h44V83Z"/><rect class="cls-2" x="519.5" y="52.5" width="43" height="31"/><path class="cls-3" d="M562,53V83H520V53h42m1-1H519V84h44V52Z"/><rect class="cls-2" x="562.5" y="145.5" width="43" height="31"/><path class="cls-3" d="M605,146v30H563V146h42m1-1H562v32h44V145Z"/><rect class="cls-2" x="562.5" y="114.5" width="43" height="31"/><path class="cls-3" d="M605,115v30H563V115h42m1-1H562v32h44V114Z"/><rect class="cls-2" x="562.5" y="83.5" width="43" height="31"/><path class="cls-3" d="M605,84v30H563V84h42m1-1H562v32h44V83Z"/><rect class="cls-2" x="562.5" y="52.5" width="43" height="31"/><path class="cls-3" d="M605,53V83H563V53h42m1-1H562V84h44V52Z"/><rect class="cls-4" x="22" y="146" width="67" height="30"/><g class="cls-5"><path class="cls-6" d="M89,146v30H22V146H89m1-1H21v32H90V145Z"/></g><rect class="cls-4" x="22" y="115" width="67" height="30"/><g class="cls-5"><path class="cls-6" d="M89,115v30H22V115H89m1-1H21v32H90V114Z"/></g><rect class="cls-4" x="22" y="84" width="67" height="30"/><g class="cls-5"><path class="cls-6" d="M89,84v30H22V84H89m1-1H21v32H90V83Z"/></g><rect class="cls-4" x="22" y="53" width="67" height="30"/><g class="cls-5"><path class="cls-6" d="M89,53V83H22V53H89m1-1H21V84H90V52Z"/></g><rect class="cls-7" x="89.5" y="145.5" width="43" height="31"/><path class="cls-8" d="M132,146v30H90V146h42m1-1H89v32h44V145Z"/><rect class="cls-7" x="89.5" y="114.5" width="43" height="31"/><path class="cls-8" d="M132,115v30H90V115h42m1-1H89v32h44V114Z"/><rect class="cls-7" x="89.5" y="83.5" width="43" height="31"/><path class="cls-8" d="M132,84v30H90V84h42m1-1H89v32h44V83Z"/><rect class="cls-7" x="89.5" y="52.5" width="43" height="31"/><path class="cls-8" d="M132,53V83H90V53h42m1-1H89V84h44V52Z"/><path class="cls-9" d="M34.34,29a2,2,0,0,1-.24,1,2,2,0,0,1-.65.68,2.92,2.92,0,0,1-.94.39,4.91,4.91,0,0,1-1.12.12,4.3,4.3,0,0,1-1.14-.14,2.81,2.81,0,0,1-.92-.43,2.08,2.08,0,0,1-.62-.7,2,2,0,0,1-.22-1v-.08h1.23v0a1.11,1.11,0,0,0,.14.56,1.17,1.17,0,0,0,.38.4,1.76,1.76,0,0,0,.56.24,3,3,0,0,0,1.32,0,1.71,1.71,0,0,0,.52-.21,1.08,1.08,0,0,0,.35-.34.89.89,0,0,0,.13-.48.77.77,0,0,0-.31-.63,2.7,2.7,0,0,0-1-.42l-1.53-.41a2.36,2.36,0,0,1-1.2-.65,1.68,1.68,0,0,1-.39-1.16,1.87,1.87,0,0,1,.21-.91,2,2,0,0,1,.58-.66,2.69,2.69,0,0,1,.86-.4,3.84,3.84,0,0,1,1-.14,3.89,3.89,0,0,1,1,.12,2.69,2.69,0,0,1,.85.38,1.93,1.93,0,0,1,.59.64,1.87,1.87,0,0,1,.23.91H32.86a1,1,0,0,0-.44-.77,1.5,1.5,0,0,0-.46-.22,2.07,2.07,0,0,0-.59-.08,2.44,2.44,0,0,0-.55.06,1.46,1.46,0,0,0-.46.19,1,1,0,0,0-.31.32.88.88,0,0,0-.11.46.83.83,0,0,0,.06.33.66.66,0,0,0,.17.23.9.9,0,0,0,.26.16l.34.11,1.68.44a3.07,3.07,0,0,1,1.42.72A1.69,1.69,0,0,1,34.34,29Z"/><path class="cls-9" d="M40.7,23.93V25H38.43v6.08H37.18V25H34.92V23.93Z"/><path class="cls-9" d="M45.75,31.07l-.62-1.82h-3l-.62,1.82H40.28l2.57-7.13h1.69l2.52,7.13Zm-2.07-6.21h0L42.49,28.3h2.33Z"/><path class="cls-9" d="M53.81,25.86a1.91,1.91,0,0,1-.42,1.28,1.48,1.48,0,0,1-.35.31,2.07,2.07,0,0,1-.46.21v0a1.42,1.42,0,0,1,.49.21,1.18,1.18,0,0,1,.33.35,1.62,1.62,0,0,1,.21.52,4.27,4.27,0,0,1,.08.57q0,.3,0,.61a4,4,0,0,0,.08.62,1.36,1.36,0,0,0,.2.52H52.74A3.65,3.65,0,0,1,52.55,30a2.67,2.67,0,0,0-.38-1.47,1.13,1.13,0,0,0-.88-.34h-2v2.92H48.05V23.93h3.68a2.13,2.13,0,0,1,1.48.53A1.8,1.8,0,0,1,53.81,25.86Zm-1.25.2a1.09,1.09,0,0,0-.32-.86,1.3,1.3,0,0,0-.89-.28H49.3v2.29h2.05a1.27,1.27,0,0,0,.85-.27A1.08,1.08,0,0,0,52.56,26.06Z"/><path class="cls-9" d="M60.45,23.93V25H58.18v6.08H56.94V25H54.67V23.93Z"/><path class="cls-9" d="M62.73,23.93v7.14H61.48V23.93Z"/><path class="cls-9" d="M65.77,23.93l3.4,5.3h0v-5.3h1.19v7.14H69.1l-3.4-5.3h0v5.3H64.49V23.93Z"/><path class="cls-9" d="M75.22,23.76a3.65,3.65,0,0,1,1.07.15,2.94,2.94,0,0,1,.9.45,2.55,2.55,0,0,1,.66.72,2.71,2.71,0,0,1,.36,1H77a1.55,1.55,0,0,0-.24-.53,1.6,1.6,0,0,0-.4-.39,1.75,1.75,0,0,0-.52-.24,2.29,2.29,0,0,0-.63-.08,2.1,2.1,0,0,0-1,.21,2,2,0,0,0-.69.58,2.53,2.53,0,0,0-.41.86,3.92,3.92,0,0,0-.13,1,3.83,3.83,0,0,0,.13,1,2.55,2.55,0,0,0,.39.85,2,2,0,0,0,.69.6,2.07,2.07,0,0,0,1,.23A2.31,2.31,0,0,0,76,30a1.69,1.69,0,0,0,.61-.38,1.76,1.76,0,0,0,.4-.61,2.5,2.5,0,0,0,.17-.82H75.31v-1h3v3.78H77.5l-.13-1h0a2.44,2.44,0,0,1-.93.87,2.68,2.68,0,0,1-1.24.28A3.44,3.44,0,0,1,73.77,31a3.17,3.17,0,0,1-1.08-.78A3.5,3.5,0,0,1,72,29a4.37,4.37,0,0,1-.24-1.47A4.49,4.49,0,0,1,72,26.06a3.52,3.52,0,0,1,.68-1.19,3.21,3.21,0,0,1,1.09-.81A3.45,3.45,0,0,1,75.22,23.76Z"/><path class="cls-9" d="M34.34,41a2,2,0,0,1-.24,1,2,2,0,0,1-.65.68,2.92,2.92,0,0,1-.94.39,4.91,4.91,0,0,1-1.12.12,4.3,4.3,0,0,1-1.14-.14,2.81,2.81,0,0,1-.92-.43,2.08,2.08,0,0,1-.62-.7,2,2,0,0,1-.22-1v-.08h1.23v0a1.11,1.11,0,0,0,.14.56,1.17,1.17,0,0,0,.38.4,1.76,1.76,0,0,0,.56.24,3,3,0,0,0,1.32,0,1.71,1.71,0,0,0,.52-.21,1.08,1.08,0,0,0,.35-.34.89.89,0,0,0,.13-.48.77.77,0,0,0-.31-.63,2.7,2.7,0,0,0-1-.42l-1.53-.41a2.36,2.36,0,0,1-1.2-.65,1.68,1.68,0,0,1-.39-1.16,1.87,1.87,0,0,1,.21-.91,2,2,0,0,1,.58-.66,2.69,2.69,0,0,1,.86-.4,3.84,3.84,0,0,1,1-.14,3.89,3.89,0,0,1,1,.12,2.69,2.69,0,0,1,.85.38,1.93,1.93,0,0,1,.59.64,1.87,1.87,0,0,1,.23.91H32.86a1,1,0,0,0-.44-.77,1.5,1.5,0,0,0-.46-.22,2.07,2.07,0,0,0-.59-.08,2.44,2.44,0,0,0-.55.06,1.46,1.46,0,0,0-.46.19,1,1,0,0,0-.31.32.88.88,0,0,0-.11.46.83.83,0,0,0,.06.33.66.66,0,0,0,.17.23.9.9,0,0,0,.26.16l.34.11,1.68.44a3.07,3.07,0,0,1,1.42.72A1.69,1.69,0,0,1,34.34,41Z"/><path class="cls-9" d="M40.7,35.93V37H38.43v6.08H37.18V37H34.92V35.93Z"/><path class="cls-9" d="M48.1,39.52a3.86,3.86,0,0,1-.95,2.66,3.21,3.21,0,0,1-2.51,1.05A3.64,3.64,0,0,1,43.28,43a3.21,3.21,0,0,1-1.1-.75A3.36,3.36,0,0,1,41.43,41a4.46,4.46,0,0,1-.25-1.51,3.9,3.9,0,0,1,.95-2.7,3.21,3.21,0,0,1,2.51-1.05A3.69,3.69,0,0,1,46,36a3,3,0,0,1,1.1.76A3.35,3.35,0,0,1,47.86,38,4.74,4.74,0,0,1,48.1,39.52Zm-1.25,0a3.07,3.07,0,0,0-.59-2,2.14,2.14,0,0,0-3.25,0,3.08,3.08,0,0,0-.58,2A3,3,0,0,0,43,41.43a2.16,2.16,0,0,0,3.26,0A3,3,0,0,0,46.85,39.52Z"/><path class="cls-9" d="M52.58,35.78a3.75,3.75,0,0,1,1.1.15,2.88,2.88,0,0,1,.89.44,2.45,2.45,0,0,1,.64.71,2.66,2.66,0,0,1,.34.94H54.33a1.57,1.57,0,0,0-.21-.47,1.51,1.51,0,0,0-.37-.38,1.84,1.84,0,0,0-.52-.26,2.12,2.12,0,0,0-.65-.1,2.08,2.08,0,0,0-1,.22,2.06,2.06,0,0,0-.7.6,2.61,2.61,0,0,0-.42.86,3.79,3.79,0,0,0,0,2,2.56,2.56,0,0,0,.4.85,2,2,0,0,0,1.7.83,2,2,0,0,0,.71-.12,1.69,1.69,0,0,0,.55-.33,1.71,1.71,0,0,0,.38-.51,2.22,2.22,0,0,0,.2-.65h1.22a3.5,3.5,0,0,1-.29,1A2.66,2.66,0,0,1,53.81,43a3.45,3.45,0,0,1-1.24.21A3.54,3.54,0,0,1,51.14,43a3.21,3.21,0,0,1-1.1-.78,3.44,3.44,0,0,1-.7-1.17,4.35,4.35,0,0,1-.24-1.48,4.44,4.44,0,0,1,.23-1.43A3.56,3.56,0,0,1,50,36.9a3.19,3.19,0,0,1,1.09-.82A3.49,3.49,0,0,1,52.58,35.78Z"/><path class="cls-9" d="M58.2,35.93v3.28l3.28-3.28h1.59L60.13,38.8l3.16,4.27H61.71l-2.45-3.39-1.07,1v2.35H56.95V35.93Z"/><path class="cls-9" d="M98.41,23.93l1.3,5.58h0l1.43-5.58h1.25l1.41,5.62h0l1.34-5.62h1.23l-1.93,7.14H103.2l-1.43-5.63h0l-1.41,5.63H99.06l-1.92-7.14Z"/><path class="cls-9" d="M112.62,23.94V25h-3.94v1.9h3.64v1h-3.64V30h4v1h-5.25V23.94Z"/><path class="cls-9" d="M116.87,23.93a3.18,3.18,0,0,1,2.37.9,3.64,3.64,0,0,1,.89,2.64,3.74,3.74,0,0,1-.88,2.67,3.09,3.09,0,0,1-2.35.92H114V23.93ZM116.73,30a2.07,2.07,0,0,0,1.58-.59,2.62,2.62,0,0,0,.57-1.86,2.79,2.79,0,0,0-.58-2,2.35,2.35,0,0,0-1.78-.61h-1.25v5Z"/><path class="cls-9" d="M100,35.79a2.21,2.21,0,0,1,1.93.94,4.76,4.76,0,0,1,.66,2.75,4.86,4.86,0,0,1-.66,2.79,2.44,2.44,0,0,1-3.85,0,4.85,4.85,0,0,1-.66-2.79,4.79,4.79,0,0,1,.66-2.76A2.2,2.2,0,0,1,100,35.79Zm-1.42,3.7a8.6,8.6,0,0,0,.06,1,3.51,3.51,0,0,0,.22.89,1.53,1.53,0,0,0,.43.62,1.07,1.07,0,0,0,.71.23,1.09,1.09,0,0,0,.9-.42,1.76,1.76,0,0,0,.26-.47,3.45,3.45,0,0,0,.16-.57,5.18,5.18,0,0,0,.09-.64q0-.33,0-.66a8,8,0,0,0-.07-1.06,3.16,3.16,0,0,0-.23-.87,1.52,1.52,0,0,0-.44-.59,1.1,1.1,0,0,0-.7-.22,1.07,1.07,0,0,0-.5.11,1.16,1.16,0,0,0-.37.31,1.7,1.7,0,0,0-.26.46,3.67,3.67,0,0,0-.16.57,5.5,5.5,0,0,0-.09.63Q98.6,39.16,98.6,39.48Z"/><path class="cls-9" d="M108.84,41a2,2,0,0,1-.74,1.62,3.23,3.23,0,0,1-3.75,0A2,2,0,0,1,103.6,41a2,2,0,0,1,.1-.63,1.73,1.73,0,0,1,.27-.52,1.68,1.68,0,0,1,.43-.4,1.81,1.81,0,0,1,.58-.24v0a1.5,1.5,0,0,1-.82-.56,1.6,1.6,0,0,1-.28-.95,1.66,1.66,0,0,1,.68-1.38,2.63,2.63,0,0,1,1.65-.52,2.43,2.43,0,0,1,1.68.56,1.7,1.7,0,0,1,.63,1.31,1.79,1.79,0,0,1-.07.51,1.53,1.53,0,0,1-.21.44,1.46,1.46,0,0,1-.34.35,1.67,1.67,0,0,1-.47.24v0a1.72,1.72,0,0,1,1,.63A1.87,1.87,0,0,1,108.84,41Zm-1.16,0a1.21,1.21,0,0,0-.4-.93,1.49,1.49,0,0,0-1.05-.37,1.57,1.57,0,0,0-1.05.35,1.18,1.18,0,0,0-.41.94,1.27,1.27,0,0,0,.42,1,1.49,1.49,0,0,0,1.05.38,1.45,1.45,0,0,0,1-.37A1.27,1.27,0,0,0,107.68,41Zm-.21-3.19a1.18,1.18,0,0,0-.09-.47.87.87,0,0,0-.27-.35,1.54,1.54,0,0,0-1.79,0,1,1,0,0,0-.35.78,1,1,0,0,0,.34.79,1.54,1.54,0,0,0,1.82,0A1,1,0,0,0,107.46,37.77Z"/><path class="cls-9" d="M110.13,43.23h-.92l2.9-7.47H113Z"/><path class="cls-9" d="M115.58,43.07V38.18h-1.83v-.86a5,5,0,0,0,.75-.06,2,2,0,0,0,.52-.15,1.31,1.31,0,0,0,.53-.46,1.84,1.84,0,0,0,.26-.74h.93v7.17Z"/><path class="cls-9" d="M121.12,43.22a2.68,2.68,0,0,1-.82-.12,2.07,2.07,0,0,1-.66-.34,1.91,1.91,0,0,1-.47-.54,2,2,0,0,1-.25-.71H120a1.33,1.33,0,0,0,.14.33,1,1,0,0,0,.23.26,1.09,1.09,0,0,0,.32.17,1.29,1.29,0,0,0,.42.06,1.22,1.22,0,0,0,.73-.22,1.64,1.64,0,0,0,.49-.57,2.91,2.91,0,0,0,.28-.82,5.69,5.69,0,0,0,.1-.94h0a1.79,1.79,0,0,1-.56.57,1.84,1.84,0,0,1-.75.25,2.07,2.07,0,0,1-1.14-.09,2,2,0,0,1-1.13-.8,2.29,2.29,0,0,1-.41-1.35,2.54,2.54,0,0,1,.71-1.83,2.37,2.37,0,0,1,1.77-.72,2.7,2.7,0,0,1,1.18.24,2.09,2.09,0,0,1,.83.71,4.9,4.9,0,0,1,.65,2.78,6.48,6.48,0,0,1-.06.88,4.87,4.87,0,0,1-.2.85,3.8,3.8,0,0,1-.35.77,2.52,2.52,0,0,1-.52.62,2.32,2.32,0,0,1-.72.42A2.66,2.66,0,0,1,121.12,43.22Zm1.5-5a1.56,1.56,0,0,0-.38-1.08,1.27,1.27,0,0,0-1-.43,1.17,1.17,0,0,0-.94.44,1.58,1.58,0,0,0-.38,1.05,1.7,1.7,0,0,0,.36,1.1,1.19,1.19,0,0,0,1,.45,1.29,1.29,0,0,0,1-.43A1.62,1.62,0,0,0,122.62,38.27Z"/><path class="cls-9" d="M145.89,23.93V25h-2.27v6.08h-1.25V25h-2.27V23.93Z"/><path class="cls-9" d="M148.15,23.94v2.87h3.37V23.94h1.24v7.13h-1.24V27.86h-3.37v3.21H146.9V23.94Z"/><path class="cls-9" d="M155.72,23.93v4.48a1.89,1.89,0,0,0,.41,1.33,1.68,1.68,0,0,0,1.29.44,1.73,1.73,0,0,0,1.29-.42,1.86,1.86,0,0,0,.41-1.34V23.93h1.25v4.53a2.74,2.74,0,0,1-.75,2,3,3,0,0,1-2.2.75,4,4,0,0,1-1.27-.19,2.33,2.33,0,0,1-1.5-1.46,3.35,3.35,0,0,1-.18-1.13V23.93Z"/><path class="cls-9" d="M143,35.79a2.21,2.21,0,0,1,1.93.94,4.76,4.76,0,0,1,.66,2.75,4.86,4.86,0,0,1-.66,2.79,2.44,2.44,0,0,1-3.85,0,4.85,4.85,0,0,1-.66-2.79,4.79,4.79,0,0,1,.66-2.76A2.2,2.2,0,0,1,143,35.79Zm-1.42,3.7a8.6,8.6,0,0,0,.06,1,3.51,3.51,0,0,0,.22.89,1.53,1.53,0,0,0,.43.62,1.07,1.07,0,0,0,.71.23,1.09,1.09,0,0,0,.9-.42,1.76,1.76,0,0,0,.26-.47,3.45,3.45,0,0,0,.16-.57,5.18,5.18,0,0,0,.09-.64q0-.33,0-.66a8,8,0,0,0-.07-1.06,3.16,3.16,0,0,0-.23-.87,1.52,1.52,0,0,0-.44-.59,1.1,1.1,0,0,0-.7-.22,1.07,1.07,0,0,0-.5.11,1.16,1.16,0,0,0-.37.31,1.7,1.7,0,0,0-.26.46,3.67,3.67,0,0,0-.16.57,5.5,5.5,0,0,0-.09.63Q141.6,39.16,141.6,39.48Z"/><path class="cls-9" d="M151.84,41a2,2,0,0,1-.74,1.62,3.23,3.23,0,0,1-3.75,0A2,2,0,0,1,146.6,41a2,2,0,0,1,.1-.63,1.73,1.73,0,0,1,.27-.52,1.68,1.68,0,0,1,.43-.4,1.81,1.81,0,0,1,.58-.24v0a1.5,1.5,0,0,1-.82-.56,1.6,1.6,0,0,1-.28-.95,1.66,1.66,0,0,1,.68-1.38,2.63,2.63,0,0,1,1.65-.52,2.43,2.43,0,0,1,1.68.56,1.7,1.7,0,0,1,.63,1.31,1.79,1.79,0,0,1-.07.51,1.53,1.53,0,0,1-.21.44,1.46,1.46,0,0,1-.34.35,1.67,1.67,0,0,1-.47.24v0a1.72,1.72,0,0,1,1,.63A1.87,1.87,0,0,1,151.84,41Zm-1.16,0a1.21,1.21,0,0,0-.4-.93,1.49,1.49,0,0,0-1.05-.37,1.57,1.57,0,0,0-1.05.35,1.18,1.18,0,0,0-.41.94,1.27,1.27,0,0,0,.42,1,1.49,1.49,0,0,0,1.05.38,1.45,1.45,0,0,0,1-.37A1.27,1.27,0,0,0,150.68,41Zm-.21-3.19a1.18,1.18,0,0,0-.09-.47.87.87,0,0,0-.27-.35,1.54,1.54,0,0,0-1.79,0,1,1,0,0,0-.35.78,1,1,0,0,0,.34.79,1.54,1.54,0,0,0,1.82,0A1,1,0,0,0,150.46,37.77Z"/><path class="cls-9" d="M153.13,43.23h-.92l2.9-7.47H156Z"/><path class="cls-9" d="M159,35.79a2.46,2.46,0,0,1,1.69.59,1.85,1.85,0,0,1,.5.69,2.3,2.3,0,0,1,.16.88,2.35,2.35,0,0,1-.38,1.29,4.86,4.86,0,0,1-1.48,1.28q-.42.25-.71.47a5.83,5.83,0,0,0-.48.39,2.34,2.34,0,0,0-.52.68h3.61v1H156.3a2.79,2.79,0,0,1,.33-1.32,3.12,3.12,0,0,1,.42-.57,4.66,4.66,0,0,1,.62-.55l.79-.59.93-.69a2.24,2.24,0,0,0,.59-.63,1.34,1.34,0,0,0,.19-.69,1.39,1.39,0,0,0-.09-.5,1.11,1.11,0,0,0-.26-.4,1.2,1.2,0,0,0-.39-.25,1.48,1.48,0,0,0-1.09,0,1.22,1.22,0,0,0-.41.31,1.32,1.32,0,0,0-.24.44,1.64,1.64,0,0,0-.08.51v.12H156.5v-.12a2.62,2.62,0,0,1,.17-1,2.11,2.11,0,0,1,.49-.75,2.25,2.25,0,0,1,.78-.49A2.88,2.88,0,0,1,159,35.79Z"/><path class="cls-9" d="M165,35.79a2.21,2.21,0,0,1,1.93.94,4.77,4.77,0,0,1,.66,2.75,4.86,4.86,0,0,1-.66,2.79,2.44,2.44,0,0,1-3.85,0,4.84,4.84,0,0,1-.66-2.79,4.79,4.79,0,0,1,.66-2.76A2.2,2.2,0,0,1,165,35.79Zm-1.42,3.7a8.5,8.5,0,0,0,.06,1,3.46,3.46,0,0,0,.22.89,1.52,1.52,0,0,0,.43.62,1.07,1.07,0,0,0,.71.23,1.09,1.09,0,0,0,.9-.42,1.78,1.78,0,0,0,.26-.47,3.5,3.5,0,0,0,.16-.57,5.37,5.37,0,0,0,.09-.64q0-.33,0-.66a8,8,0,0,0-.07-1.06,3.17,3.17,0,0,0-.23-.87,1.53,1.53,0,0,0-.44-.59,1.1,1.1,0,0,0-.7-.22,1.07,1.07,0,0,0-.5.11,1.15,1.15,0,0,0-.37.31,1.67,1.67,0,0,0-.26.46,3.57,3.57,0,0,0-.16.57,5.29,5.29,0,0,0-.09.63Q163.56,39.16,163.56,39.48Z"/><path class="cls-9" d="M189.7,23.93V25H186.1v2h3.14v1H186.1v3.11h-1.25V23.93Z"/><path class="cls-9" d="M196.54,25.86a1.91,1.91,0,0,1-.42,1.28,1.49,1.49,0,0,1-.35.31,2.06,2.06,0,0,1-.46.21v0a1.42,1.42,0,0,1,.49.21,1.18,1.18,0,0,1,.33.35,1.61,1.61,0,0,1,.21.52,4.27,4.27,0,0,1,.08.57q0,.3,0,.61a4,4,0,0,0,.08.62,1.37,1.37,0,0,0,.2.52h-1.27a3.65,3.65,0,0,1-.19-1.12,2.67,2.67,0,0,0-.38-1.47,1.13,1.13,0,0,0-.88-.34h-2v2.92h-1.25V23.93h3.68a2.13,2.13,0,0,1,1.48.53A1.8,1.8,0,0,1,196.54,25.86Zm-1.25.2a1.09,1.09,0,0,0-.32-.86,1.3,1.3,0,0,0-.89-.28H192v2.29h2.05a1.27,1.27,0,0,0,.85-.27A1.08,1.08,0,0,0,195.29,26.06Z"/><path class="cls-9" d="M199.37,23.93v7.14h-1.25V23.93Z"/><path class="cls-9" d="M187,35.79a2.21,2.21,0,0,1,1.93.94,4.76,4.76,0,0,1,.66,2.75,4.86,4.86,0,0,1-.66,2.79,2.44,2.44,0,0,1-3.85,0,4.85,4.85,0,0,1-.66-2.79,4.79,4.79,0,0,1,.66-2.76A2.2,2.2,0,0,1,187,35.79Zm-1.42,3.7a8.6,8.6,0,0,0,.06,1,3.51,3.51,0,0,0,.22.89,1.53,1.53,0,0,0,.43.62,1.07,1.07,0,0,0,.71.23,1.09,1.09,0,0,0,.9-.42,1.76,1.76,0,0,0,.26-.47,3.45,3.45,0,0,0,.16-.57,5.18,5.18,0,0,0,.09-.64q0-.33,0-.66a8,8,0,0,0-.07-1.06,3.16,3.16,0,0,0-.23-.87,1.52,1.52,0,0,0-.44-.59,1.1,1.1,0,0,0-.7-.22,1.07,1.07,0,0,0-.5.11,1.16,1.16,0,0,0-.37.31,1.7,1.7,0,0,0-.26.46,3.67,3.67,0,0,0-.16.57,5.5,5.5,0,0,0-.09.63Q185.6,39.16,185.6,39.48Z"/><path class="cls-9" d="M195.84,41a2,2,0,0,1-.74,1.62,3.23,3.23,0,0,1-3.75,0A2,2,0,0,1,190.6,41a2,2,0,0,1,.1-.63,1.73,1.73,0,0,1,.27-.52,1.68,1.68,0,0,1,.43-.4,1.81,1.81,0,0,1,.58-.24v0a1.5,1.5,0,0,1-.82-.56,1.6,1.6,0,0,1-.28-.95,1.66,1.66,0,0,1,.68-1.38,2.63,2.63,0,0,1,1.65-.52,2.43,2.43,0,0,1,1.68.56,1.7,1.7,0,0,1,.63,1.31,1.79,1.79,0,0,1-.07.51,1.53,1.53,0,0,1-.21.44,1.46,1.46,0,0,1-.34.35,1.67,1.67,0,0,1-.47.24v0a1.72,1.72,0,0,1,1,.63A1.87,1.87,0,0,1,195.84,41Zm-1.16,0a1.21,1.21,0,0,0-.4-.93,1.49,1.49,0,0,0-1.05-.37,1.57,1.57,0,0,0-1.05.35,1.18,1.18,0,0,0-.41.94,1.27,1.27,0,0,0,.42,1,1.49,1.49,0,0,0,1.05.38,1.45,1.45,0,0,0,1-.37A1.27,1.27,0,0,0,194.68,41Zm-.21-3.19a1.18,1.18,0,0,0-.09-.47.87.87,0,0,0-.27-.35,1.54,1.54,0,0,0-1.79,0,1,1,0,0,0-.35.78,1,1,0,0,0,.34.79,1.54,1.54,0,0,0,1.82,0A1,1,0,0,0,194.46,37.77Z"/><path class="cls-9" d="M197.13,43.23h-.92l2.9-7.47H200Z"/><path class="cls-9" d="M203,35.79a2.46,2.46,0,0,1,1.69.59,1.85,1.85,0,0,1,.5.69,2.3,2.3,0,0,1,.16.88,2.35,2.35,0,0,1-.38,1.29,4.86,4.86,0,0,1-1.48,1.28q-.42.25-.71.47a5.83,5.83,0,0,0-.48.39,2.34,2.34,0,0,0-.52.68h3.61v1H200.3a2.79,2.79,0,0,1,.33-1.32,3.12,3.12,0,0,1,.42-.57,4.66,4.66,0,0,1,.62-.55l.79-.59.93-.69a2.24,2.24,0,0,0,.59-.63,1.34,1.34,0,0,0,.19-.69,1.39,1.39,0,0,0-.09-.5,1.11,1.11,0,0,0-.26-.4,1.2,1.2,0,0,0-.39-.25,1.48,1.48,0,0,0-1.09,0,1.22,1.22,0,0,0-.41.31,1.32,1.32,0,0,0-.24.44,1.64,1.64,0,0,0-.08.51v.12H200.5v-.12a2.62,2.62,0,0,1,.17-1,2.11,2.11,0,0,1,.49-.75,2.25,2.25,0,0,1,.78-.49A2.88,2.88,0,0,1,203,35.79Z"/><path class="cls-9" d="M208.51,43.07V38.18h-1.83v-.86a5,5,0,0,0,.75-.06,2,2,0,0,0,.52-.15,1.31,1.31,0,0,0,.53-.46,1.84,1.84,0,0,0,.26-.74h.93v7.17Z"/><path class="cls-9" d="M232.2,29a2,2,0,0,1-.24,1,2,2,0,0,1-.65.68,2.92,2.92,0,0,1-.94.39,4.91,4.91,0,0,1-1.12.12,4.3,4.3,0,0,1-1.14-.14,2.81,2.81,0,0,1-.92-.43,2.08,2.08,0,0,1-.62-.7,2,2,0,0,1-.22-1v-.08h1.23v0a1.11,1.11,0,0,0,.14.56,1.17,1.17,0,0,0,.38.4,1.76,1.76,0,0,0,.56.24,3,3,0,0,0,1.32,0,1.71,1.71,0,0,0,.52-.21,1.08,1.08,0,0,0,.35-.34.89.89,0,0,0,.13-.48.77.77,0,0,0-.31-.63,2.7,2.7,0,0,0-1-.42l-1.53-.41A2.36,2.36,0,0,1,227,27a1.68,1.68,0,0,1-.39-1.16,1.87,1.87,0,0,1,.21-.91,2,2,0,0,1,.58-.66,2.69,2.69,0,0,1,.86-.4,3.84,3.84,0,0,1,1-.14,3.89,3.89,0,0,1,1,.12,2.69,2.69,0,0,1,.85.38,1.93,1.93,0,0,1,.59.64,1.87,1.87,0,0,1,.23.91h-1.22a1,1,0,0,0-.44-.77,1.5,1.5,0,0,0-.46-.22,2.07,2.07,0,0,0-.59-.08,2.44,2.44,0,0,0-.55.06,1.46,1.46,0,0,0-.46.19,1,1,0,0,0-.31.32.88.88,0,0,0-.11.46.83.83,0,0,0,.06.33.66.66,0,0,0,.17.23.9.9,0,0,0,.26.16l.34.11,1.68.44a3.07,3.07,0,0,1,1.42.72A1.69,1.69,0,0,1,232.2,29Z"/><path class="cls-9" d="M238.17,31.07l-.62-1.82h-3L234,31.07h-1.27l2.57-7.13H237l2.52,7.13Zm-2.07-6.21h0l-1.17,3.44h2.33Z"/><path class="cls-9" d="M244.86,23.93V25h-2.27v6.08h-1.25V25h-2.27V23.93Z"/><path class="cls-9" d="M229,35.79a2.21,2.21,0,0,1,1.93.94,4.76,4.76,0,0,1,.66,2.75,4.86,4.86,0,0,1-.66,2.79,2.44,2.44,0,0,1-3.85,0,4.85,4.85,0,0,1-.66-2.79,4.79,4.79,0,0,1,.66-2.76A2.2,2.2,0,0,1,229,35.79Zm-1.42,3.7a8.6,8.6,0,0,0,.06,1,3.51,3.51,0,0,0,.22.89,1.53,1.53,0,0,0,.43.62,1.07,1.07,0,0,0,.71.23,1.09,1.09,0,0,0,.9-.42,1.76,1.76,0,0,0,.26-.47,3.45,3.45,0,0,0,.16-.57,5.18,5.18,0,0,0,.09-.64q0-.33,0-.66a8,8,0,0,0-.07-1.06,3.16,3.16,0,0,0-.23-.87,1.52,1.52,0,0,0-.44-.59,1.1,1.1,0,0,0-.7-.22,1.07,1.07,0,0,0-.5.11,1.16,1.16,0,0,0-.37.31,1.7,1.7,0,0,0-.26.46,3.67,3.67,0,0,0-.16.57,5.5,5.5,0,0,0-.09.63Q227.6,39.16,227.6,39.48Z"/><path class="cls-9" d="M237.83,41a2,2,0,0,1-.74,1.62,3.23,3.23,0,0,1-3.75,0A2,2,0,0,1,232.6,41a2,2,0,0,1,.1-.63,1.73,1.73,0,0,1,.27-.52,1.68,1.68,0,0,1,.43-.4,1.81,1.81,0,0,1,.58-.24v0a1.5,1.5,0,0,1-.82-.56,1.6,1.6,0,0,1-.28-.95,1.66,1.66,0,0,1,.68-1.38,2.63,2.63,0,0,1,1.65-.52,2.43,2.43,0,0,1,1.68.56,1.7,1.7,0,0,1,.63,1.31,1.79,1.79,0,0,1-.07.51,1.53,1.53,0,0,1-.21.44,1.46,1.46,0,0,1-.34.35,1.67,1.67,0,0,1-.47.24v0a1.72,1.72,0,0,1,1,.63A1.87,1.87,0,0,1,237.83,41Zm-1.16,0a1.21,1.21,0,0,0-.4-.93,1.49,1.49,0,0,0-1.05-.37,1.57,1.57,0,0,0-1.05.35,1.18,1.18,0,0,0-.41.94,1.27,1.27,0,0,0,.42,1,1.49,1.49,0,0,0,1.05.38,1.45,1.45,0,0,0,1-.37A1.27,1.27,0,0,0,236.67,41Zm-.21-3.19a1.18,1.18,0,0,0-.09-.47.87.87,0,0,0-.27-.35,1.54,1.54,0,0,0-1.79,0,1,1,0,0,0-.35.78,1,1,0,0,0,.34.79,1.54,1.54,0,0,0,1.82,0A1,1,0,0,0,236.46,37.77Z"/><path class="cls-9" d="M239.13,43.23h-.92l2.9-7.47H242Z"/><path class="cls-9" d="M245,35.79a2.46,2.46,0,0,1,1.69.59,1.85,1.85,0,0,1,.5.69,2.3,2.3,0,0,1,.16.88,2.35,2.35,0,0,1-.38,1.29,4.86,4.86,0,0,1-1.48,1.28q-.42.25-.71.47a5.83,5.83,0,0,0-.48.39,2.34,2.34,0,0,0-.52.68h3.61v1H242.3a2.79,2.79,0,0,1,.33-1.32,3.12,3.12,0,0,1,.42-.57,4.66,4.66,0,0,1,.62-.55l.79-.59.93-.69a2.24,2.24,0,0,0,.59-.63,1.34,1.34,0,0,0,.19-.69,1.39,1.39,0,0,0-.09-.5,1.11,1.11,0,0,0-.26-.4,1.2,1.2,0,0,0-.39-.25,1.48,1.48,0,0,0-1.09,0,1.22,1.22,0,0,0-.41.31,1.32,1.32,0,0,0-.24.44,1.64,1.64,0,0,0-.08.51v.12h-1.11v-.12a2.62,2.62,0,0,1,.17-1,2.11,2.11,0,0,1,.49-.75,2.25,2.25,0,0,1,.78-.49A2.88,2.88,0,0,1,245,35.79Z"/><path class="cls-9" d="M251.07,35.79a2.46,2.46,0,0,1,1.69.59,1.85,1.85,0,0,1,.5.69,2.3,2.3,0,0,1,.16.88,2.35,2.35,0,0,1-.38,1.29,4.86,4.86,0,0,1-1.48,1.28q-.42.25-.71.47a5.81,5.81,0,0,0-.48.39,2.33,2.33,0,0,0-.52.68h3.61v1H248.4a2.79,2.79,0,0,1,.33-1.32,3.09,3.09,0,0,1,.42-.57,4.64,4.64,0,0,1,.62-.55l.79-.59.93-.69a2.24,2.24,0,0,0,.59-.63,1.34,1.34,0,0,0,.19-.69,1.39,1.39,0,0,0-.09-.5,1.1,1.1,0,0,0-.26-.4,1.2,1.2,0,0,0-.39-.25,1.48,1.48,0,0,0-1.09,0,1.22,1.22,0,0,0-.41.31,1.32,1.32,0,0,0-.24.44,1.64,1.64,0,0,0-.08.51v.12h-1.11v-.12a2.61,2.61,0,0,1,.17-1,2.11,2.11,0,0,1,.49-.75A2.25,2.25,0,0,1,250,36,2.87,2.87,0,0,1,251.07,35.79Z"/><path class="cls-9" d="M275.24,29a2,2,0,0,1-.24,1,2,2,0,0,1-.65.68,2.92,2.92,0,0,1-.94.39,4.91,4.91,0,0,1-1.12.12,4.3,4.3,0,0,1-1.14-.14,2.81,2.81,0,0,1-.92-.43,2.08,2.08,0,0,1-.62-.7,2,2,0,0,1-.22-1v-.08h1.23v0a1.11,1.11,0,0,0,.14.56,1.17,1.17,0,0,0,.38.4,1.76,1.76,0,0,0,.56.24,3,3,0,0,0,1.32,0,1.71,1.71,0,0,0,.52-.21,1.08,1.08,0,0,0,.35-.34.89.89,0,0,0,.13-.48.77.77,0,0,0-.31-.63,2.7,2.7,0,0,0-1-.42l-1.53-.41A2.36,2.36,0,0,1,270,27a1.68,1.68,0,0,1-.39-1.16,1.87,1.87,0,0,1,.21-.91,2,2,0,0,1,.58-.66,2.69,2.69,0,0,1,.86-.4,3.84,3.84,0,0,1,1-.14,3.89,3.89,0,0,1,1,.12,2.69,2.69,0,0,1,.85.38,1.93,1.93,0,0,1,.59.64,1.87,1.87,0,0,1,.23.91h-1.22a1,1,0,0,0-.44-.77,1.5,1.5,0,0,0-.46-.22,2.07,2.07,0,0,0-.59-.08,2.44,2.44,0,0,0-.55.06,1.46,1.46,0,0,0-.46.19,1,1,0,0,0-.31.32.88.88,0,0,0-.11.46.83.83,0,0,0,.06.33.66.66,0,0,0,.17.23.9.9,0,0,0,.26.16l.34.11,1.68.44a3.07,3.07,0,0,1,1.42.72A1.69,1.69,0,0,1,275.24,29Z"/><path class="cls-9" d="M277.7,23.93v4.48a1.89,1.89,0,0,0,.41,1.33,1.68,1.68,0,0,0,1.29.44,1.73,1.73,0,0,0,1.29-.42,1.86,1.86,0,0,0,.41-1.34V23.93h1.25v4.53a2.74,2.74,0,0,1-.75,2,3,3,0,0,1-2.2.75,4,4,0,0,1-1.27-.19,2.33,2.33,0,0,1-1.5-1.46,3.37,3.37,0,0,1-.18-1.13V23.93Z"/><path class="cls-9" d="M285.32,23.93l3.4,5.3h0v-5.3h1.19v7.14h-1.27l-3.4-5.3h0v5.3H284V23.93Z"/><path class="cls-9" d="M272.05,35.79a2.21,2.21,0,0,1,1.93.94,4.76,4.76,0,0,1,.66,2.75,4.86,4.86,0,0,1-.66,2.79,2.44,2.44,0,0,1-3.85,0,4.85,4.85,0,0,1-.66-2.79,4.79,4.79,0,0,1,.66-2.76A2.2,2.2,0,0,1,272.05,35.79Zm-1.42,3.7a8.6,8.6,0,0,0,.06,1,3.51,3.51,0,0,0,.22.89,1.53,1.53,0,0,0,.43.62,1.07,1.07,0,0,0,.71.23,1.09,1.09,0,0,0,.9-.42,1.76,1.76,0,0,0,.26-.47,3.45,3.45,0,0,0,.16-.57,5.18,5.18,0,0,0,.09-.64q0-.33,0-.66a8,8,0,0,0-.07-1.06,3.16,3.16,0,0,0-.23-.87,1.52,1.52,0,0,0-.44-.59,1.1,1.1,0,0,0-.7-.22,1.07,1.07,0,0,0-.5.11,1.16,1.16,0,0,0-.37.31,1.7,1.7,0,0,0-.26.46,3.67,3.67,0,0,0-.16.57,5.5,5.5,0,0,0-.09.63Q270.64,39.16,270.64,39.48Z"/><path class="cls-9" d="M280.88,41a2,2,0,0,1-.74,1.62,3.23,3.23,0,0,1-3.75,0,2,2,0,0,1-.74-1.61,2,2,0,0,1,.1-.63,1.73,1.73,0,0,1,.27-.52,1.68,1.68,0,0,1,.43-.4,1.81,1.81,0,0,1,.58-.24v0a1.5,1.5,0,0,1-.82-.56,1.6,1.6,0,0,1-.28-.95,1.66,1.66,0,0,1,.68-1.38,2.63,2.63,0,0,1,1.65-.52,2.43,2.43,0,0,1,1.68.56,1.7,1.7,0,0,1,.63,1.31,1.79,1.79,0,0,1-.07.51,1.53,1.53,0,0,1-.21.44A1.46,1.46,0,0,1,280,39a1.67,1.67,0,0,1-.47.24v0a1.72,1.72,0,0,1,1,.63A1.87,1.87,0,0,1,280.88,41Zm-1.16,0a1.21,1.21,0,0,0-.4-.93,1.49,1.49,0,0,0-1.05-.37,1.57,1.57,0,0,0-1.05.35,1.18,1.18,0,0,0-.41.94,1.27,1.27,0,0,0,.42,1,1.49,1.49,0,0,0,1.05.38,1.45,1.45,0,0,0,1-.37A1.27,1.27,0,0,0,279.71,41Zm-.21-3.19a1.18,1.18,0,0,0-.09-.47.87.87,0,0,0-.27-.35,1.54,1.54,0,0,0-1.79,0,1,1,0,0,0-.35.78,1,1,0,0,0,.34.79,1.54,1.54,0,0,0,1.82,0A1,1,0,0,0,279.5,37.77Z"/><path class="cls-9" d="M282.17,43.23h-.92l2.9-7.47h.91Z"/><path class="cls-9" d="M288,35.79a2.46,2.46,0,0,1,1.69.59,1.85,1.85,0,0,1,.5.69,2.3,2.3,0,0,1,.16.88,2.35,2.35,0,0,1-.38,1.29,4.86,4.86,0,0,1-1.48,1.28q-.42.25-.71.47a5.83,5.83,0,0,0-.48.39,2.34,2.34,0,0,0-.52.68h3.61v1h-5.07a2.79,2.79,0,0,1,.33-1.32,3.12,3.12,0,0,1,.42-.57,4.66,4.66,0,0,1,.62-.55l.79-.59.93-.69a2.24,2.24,0,0,0,.59-.63,1.34,1.34,0,0,0,.19-.69,1.39,1.39,0,0,0-.09-.5,1.11,1.11,0,0,0-.26-.4,1.2,1.2,0,0,0-.39-.25,1.48,1.48,0,0,0-1.09,0,1.22,1.22,0,0,0-.41.31,1.32,1.32,0,0,0-.24.44,1.64,1.64,0,0,0-.08.51v.12h-1.11v-.12a2.62,2.62,0,0,1,.17-1,2.11,2.11,0,0,1,.49-.75A2.25,2.25,0,0,1,287,36,2.88,2.88,0,0,1,288,35.79Z"/><path class="cls-9" d="M293.94,35.79a3,3,0,0,1,.86.12,2.28,2.28,0,0,1,.73.36,1.83,1.83,0,0,1,.51.6,1.75,1.75,0,0,1,.19.83,1.81,1.81,0,0,1-.07.51,1.53,1.53,0,0,1-.21.43,1.37,1.37,0,0,1-.34.34,1.57,1.57,0,0,1-.47.22v0a1.61,1.61,0,0,1,1,.6,1.72,1.72,0,0,1,.35,1.08,2.08,2.08,0,0,1-.74,1.66,2.76,2.76,0,0,1-1.86.63,3.2,3.2,0,0,1-1-.15,2.45,2.45,0,0,1-.81-.43,2.07,2.07,0,0,1-.56-.7,2.12,2.12,0,0,1-.21-1v-.11h1.11V41a1.2,1.2,0,0,0,.41.93,1.31,1.31,0,0,0,.44.25,1.59,1.59,0,0,0,.53.09,1.51,1.51,0,0,0,1.07-.37,1.21,1.21,0,0,0,.4-.93,1.12,1.12,0,0,0-.37-.91,1.83,1.83,0,0,0-1.22-.32h-.29v-.85h.36a1.55,1.55,0,0,0,1-.29.92.92,0,0,0,.33-.75,1.15,1.15,0,0,0-.1-.49.93.93,0,0,0-.26-.34,1.12,1.12,0,0,0-.39-.2,1.64,1.64,0,0,0-.47-.07,1.41,1.41,0,0,0-.5.09,1.17,1.17,0,0,0-.4.25,1.19,1.19,0,0,0-.27.39,1.35,1.35,0,0,0-.11.53h-1.11a2.34,2.34,0,0,1,.19-.87,2.12,2.12,0,0,1,.49-.7,2.28,2.28,0,0,1,.76-.47A2.72,2.72,0,0,1,293.94,35.79Z"/><path class="cls-9" d="M319.32,31.07V25.34h0l-2,5.73h-1.08l-2-5.7h0v5.7H313V23.94h1.83l2,5.56h0l1.91-5.56h1.82v7.13Z"/><path class="cls-9" d="M328.79,27.52a3.86,3.86,0,0,1-.95,2.66,3.21,3.21,0,0,1-2.51,1.05A3.64,3.64,0,0,1,324,31a3.21,3.21,0,0,1-1.1-.75,3.36,3.36,0,0,1-.75-1.22,4.46,4.46,0,0,1-.25-1.51,3.9,3.9,0,0,1,.95-2.7,3.21,3.21,0,0,1,2.51-1.05,3.69,3.69,0,0,1,1.37.25,3,3,0,0,1,1.1.76,3.35,3.35,0,0,1,.74,1.24A4.76,4.76,0,0,1,328.79,27.52Zm-1.25,0a3.07,3.07,0,0,0-.59-2,2.14,2.14,0,0,0-3.25,0,3.08,3.08,0,0,0-.58,2,3,3,0,0,0,.58,1.91,2.16,2.16,0,0,0,3.26,0A3,3,0,0,0,327.53,27.52Z"/><path class="cls-9" d="M331.43,23.93l3.4,5.3h0v-5.3H336v7.14h-1.27l-3.4-5.3h0v5.3h-1.19V23.93Z"/><path class="cls-9" d="M315.13,35.79a2.21,2.21,0,0,1,1.93.94,4.76,4.76,0,0,1,.66,2.75,4.86,4.86,0,0,1-.66,2.79,2.44,2.44,0,0,1-3.85,0,4.85,4.85,0,0,1-.66-2.79,4.79,4.79,0,0,1,.66-2.76A2.2,2.2,0,0,1,315.13,35.79Zm-1.42,3.7a8.6,8.6,0,0,0,.06,1,3.51,3.51,0,0,0,.22.89,1.53,1.53,0,0,0,.43.62,1.07,1.07,0,0,0,.71.23,1.09,1.09,0,0,0,.9-.42,1.76,1.76,0,0,0,.26-.47,3.45,3.45,0,0,0,.16-.57,5.18,5.18,0,0,0,.09-.64q0-.33,0-.66a8,8,0,0,0-.07-1.06,3.16,3.16,0,0,0-.23-.87,1.52,1.52,0,0,0-.44-.59,1.1,1.1,0,0,0-.7-.22,1.07,1.07,0,0,0-.5.11,1.16,1.16,0,0,0-.37.31,1.7,1.7,0,0,0-.26.46,3.67,3.67,0,0,0-.16.57,5.5,5.5,0,0,0-.09.63Q313.72,39.16,313.72,39.48Z"/><path class="cls-9" d="M324,41a2,2,0,0,1-.74,1.62,3.23,3.23,0,0,1-3.75,0,2,2,0,0,1-.74-1.61,2,2,0,0,1,.1-.63,1.73,1.73,0,0,1,.27-.52,1.68,1.68,0,0,1,.43-.4,1.81,1.81,0,0,1,.58-.24v0a1.5,1.5,0,0,1-.82-.56,1.6,1.6,0,0,1-.28-.95,1.66,1.66,0,0,1,.68-1.38,2.63,2.63,0,0,1,1.65-.52,2.43,2.43,0,0,1,1.68.56,1.7,1.7,0,0,1,.63,1.31,1.79,1.79,0,0,1-.07.51,1.53,1.53,0,0,1-.21.44A1.46,1.46,0,0,1,323,39a1.67,1.67,0,0,1-.47.24v0a1.72,1.72,0,0,1,1,.63A1.87,1.87,0,0,1,324,41Zm-1.16,0a1.21,1.21,0,0,0-.4-.93,1.49,1.49,0,0,0-1.05-.37,1.57,1.57,0,0,0-1.05.35,1.18,1.18,0,0,0-.41.94,1.27,1.27,0,0,0,.42,1,1.49,1.49,0,0,0,1.05.38,1.45,1.45,0,0,0,1-.37A1.27,1.27,0,0,0,322.79,41Zm-.21-3.19a1.18,1.18,0,0,0-.09-.47.87.87,0,0,0-.27-.35,1.54,1.54,0,0,0-1.79,0,1,1,0,0,0-.35.78,1,1,0,0,0,.34.79,1.54,1.54,0,0,0,1.82,0A1,1,0,0,0,322.58,37.77Z"/><path class="cls-9" d="M325.25,43.23h-.92l2.9-7.47h.91Z"/><path class="cls-9" d="M331.09,35.79a2.46,2.46,0,0,1,1.69.59,1.85,1.85,0,0,1,.5.69,2.3,2.3,0,0,1,.16.88,2.35,2.35,0,0,1-.38,1.29,4.86,4.86,0,0,1-1.48,1.28q-.42.25-.71.47a5.83,5.83,0,0,0-.48.39,2.34,2.34,0,0,0-.52.68h3.61v1h-5.07a2.79,2.79,0,0,1,.33-1.32,3.12,3.12,0,0,1,.42-.57,4.66,4.66,0,0,1,.62-.55l.79-.59.93-.69a2.24,2.24,0,0,0,.59-.63,1.34,1.34,0,0,0,.19-.69,1.39,1.39,0,0,0-.09-.5,1.11,1.11,0,0,0-.26-.4,1.2,1.2,0,0,0-.39-.25,1.48,1.48,0,0,0-1.09,0,1.22,1.22,0,0,0-.41.31,1.32,1.32,0,0,0-.24.44,1.64,1.64,0,0,0-.08.51v.12h-1.11v-.12a2.62,2.62,0,0,1,.17-1,2.11,2.11,0,0,1,.49-.75,2.25,2.25,0,0,1,.78-.49A2.88,2.88,0,0,1,331.09,35.79Z"/><path class="cls-9" d="M338.46,41.36v1.7h-1.09v-1.7h-3.13V40.29l3.18-4.39h1v4.51h1v1Zm-1.09-4h0l-2.18,3.06h2.21Z"/><path class="cls-9" d="M360.92,23.93V25h-2.27v6.08H357.4V25h-2.27V23.93Z"/><path class="cls-9" d="M363.15,23.93v4.48a1.89,1.89,0,0,0,.41,1.33,1.69,1.69,0,0,0,1.29.44,1.73,1.73,0,0,0,1.29-.42,1.86,1.86,0,0,0,.41-1.34V23.93h1.25v4.53a2.74,2.74,0,0,1-.75,2,3,3,0,0,1-2.2.75,4,4,0,0,1-1.27-.19,2.33,2.33,0,0,1-1.5-1.46,3.37,3.37,0,0,1-.18-1.13V23.93Z"/><path class="cls-9" d="M374.69,23.94V25h-3.94v1.9h3.64v1h-3.64V30h4v1H369.5V23.94Z"/><path class="cls-9" d="M358,35.79a2.21,2.21,0,0,1,1.93.94,4.76,4.76,0,0,1,.66,2.75,4.86,4.86,0,0,1-.66,2.79,2.44,2.44,0,0,1-3.85,0,4.85,4.85,0,0,1-.66-2.79,4.79,4.79,0,0,1,.66-2.76A2.2,2.2,0,0,1,358,35.79Zm-1.42,3.7a8.6,8.6,0,0,0,.06,1,3.51,3.51,0,0,0,.22.89,1.53,1.53,0,0,0,.43.62,1.07,1.07,0,0,0,.71.23,1.09,1.09,0,0,0,.9-.42,1.76,1.76,0,0,0,.26-.47,3.45,3.45,0,0,0,.16-.57,5.18,5.18,0,0,0,.09-.64q0-.33,0-.66a8,8,0,0,0-.07-1.06,3.16,3.16,0,0,0-.23-.87,1.52,1.52,0,0,0-.44-.59,1.1,1.1,0,0,0-.7-.22,1.07,1.07,0,0,0-.5.11,1.16,1.16,0,0,0-.37.31,1.7,1.7,0,0,0-.26.46,3.67,3.67,0,0,0-.16.57,5.5,5.5,0,0,0-.09.63Q356.63,39.16,356.63,39.48Z"/><path class="cls-9" d="M366.87,41a2,2,0,0,1-.74,1.62,3.23,3.23,0,0,1-3.75,0,2,2,0,0,1-.74-1.61,2,2,0,0,1,.1-.63,1.73,1.73,0,0,1,.27-.52,1.68,1.68,0,0,1,.43-.4,1.81,1.81,0,0,1,.58-.24v0a1.5,1.5,0,0,1-.82-.56,1.6,1.6,0,0,1-.28-.95,1.66,1.66,0,0,1,.68-1.38,2.63,2.63,0,0,1,1.65-.52,2.43,2.43,0,0,1,1.68.56,1.7,1.7,0,0,1,.63,1.31,1.79,1.79,0,0,1-.07.51,1.53,1.53,0,0,1-.21.44A1.46,1.46,0,0,1,366,39a1.67,1.67,0,0,1-.47.24v0a1.72,1.72,0,0,1,1,.63A1.87,1.87,0,0,1,366.87,41Zm-1.16,0a1.21,1.21,0,0,0-.4-.93,1.49,1.49,0,0,0-1.05-.37,1.57,1.57,0,0,0-1.05.35,1.18,1.18,0,0,0-.41.94,1.27,1.27,0,0,0,.42,1,1.49,1.49,0,0,0,1.05.38,1.45,1.45,0,0,0,1-.37A1.27,1.27,0,0,0,365.71,41Zm-.21-3.19a1.18,1.18,0,0,0-.09-.47.87.87,0,0,0-.27-.35,1.54,1.54,0,0,0-1.79,0,1,1,0,0,0-.35.78,1,1,0,0,0,.34.79,1.54,1.54,0,0,0,1.82,0A1,1,0,0,0,365.49,37.77Z"/><path class="cls-9" d="M368.17,43.23h-.92l2.9-7.47h.91Z"/><path class="cls-9" d="M374,35.79a2.46,2.46,0,0,1,1.69.59,1.85,1.85,0,0,1,.5.69,2.3,2.3,0,0,1,.16.88,2.35,2.35,0,0,1-.38,1.29,4.86,4.86,0,0,1-1.48,1.28q-.42.25-.71.47a5.83,5.83,0,0,0-.48.39,2.34,2.34,0,0,0-.52.68h3.61v1h-5.07a2.79,2.79,0,0,1,.33-1.32,3.12,3.12,0,0,1,.42-.57,4.66,4.66,0,0,1,.62-.55l.79-.59.93-.69a2.24,2.24,0,0,0,.59-.63,1.34,1.34,0,0,0,.19-.69,1.39,1.39,0,0,0-.09-.5,1.11,1.11,0,0,0-.26-.4,1.2,1.2,0,0,0-.39-.25,1.48,1.48,0,0,0-1.09,0,1.22,1.22,0,0,0-.41.31,1.32,1.32,0,0,0-.24.44,1.64,1.64,0,0,0-.08.51v.12h-1.11v-.12a2.62,2.62,0,0,1,.17-1,2.11,2.11,0,0,1,.49-.75A2.25,2.25,0,0,1,373,36,2.88,2.88,0,0,1,374,35.79Z"/><path class="cls-9" d="M382.1,35.94v1h-3l-.35,1.87,0,0a1.92,1.92,0,0,1,.63-.42,2.14,2.14,0,0,1,.81-.14,2.34,2.34,0,0,1,.95.19,2.1,2.1,0,0,1,.72.51,2.26,2.26,0,0,1,.46.77,2.89,2.89,0,0,1,.16,1,2.44,2.44,0,0,1-.2,1,2.49,2.49,0,0,1-.55.8,2.6,2.6,0,0,1-.83.54,2.69,2.69,0,0,1-1,.2,3.47,3.47,0,0,1-1-.13,2.26,2.26,0,0,1-.77-.38,1.94,1.94,0,0,1-.53-.64,2.22,2.22,0,0,1-.23-.89h1.17a1.27,1.27,0,0,0,.12.42,1.11,1.11,0,0,0,.26.34,1.17,1.17,0,0,0,.4.23,1.63,1.63,0,0,0,.54.08,1.39,1.39,0,0,0,.61-.13,1.42,1.42,0,0,0,.46-.35,1.55,1.55,0,0,0,.29-.51,1.81,1.81,0,0,0,.1-.61,1.75,1.75,0,0,0-.1-.59,1.38,1.38,0,0,0-.74-.82,1.45,1.45,0,0,0-.61-.12,1.46,1.46,0,0,0-1.27.63h-1l.7-3.83Z"/><path class="cls-9" d="M399.42,23.93l1.3,5.58h0l1.43-5.58h1.25l1.41,5.62h0l1.34-5.62h1.23l-1.93,7.14h-1.26l-1.43-5.63h0l-1.41,5.63h-1.28l-1.92-7.14Z"/><path class="cls-9" d="M413.64,23.94V25H409.7v1.9h3.64v1H409.7V30h4v1h-5.25V23.94Z"/><path class="cls-9" d="M417.88,23.93a3.18,3.18,0,0,1,2.37.9,3.64,3.64,0,0,1,.89,2.64,3.74,3.74,0,0,1-.88,2.67,3.09,3.09,0,0,1-2.35.92H415V23.93ZM417.74,30a2.07,2.07,0,0,0,1.58-.59,2.62,2.62,0,0,0,.57-1.86,2.79,2.79,0,0,0-.58-2,2.35,2.35,0,0,0-1.78-.61h-1.25v5Z"/><path class="cls-9" d="M401,35.79a2.21,2.21,0,0,1,1.93.94,4.76,4.76,0,0,1,.66,2.75,4.86,4.86,0,0,1-.66,2.79,2.44,2.44,0,0,1-3.85,0,4.85,4.85,0,0,1-.66-2.79,4.79,4.79,0,0,1,.66-2.76A2.2,2.2,0,0,1,401,35.79Zm-1.42,3.7a8.6,8.6,0,0,0,.06,1,3.51,3.51,0,0,0,.22.89,1.53,1.53,0,0,0,.43.62,1.07,1.07,0,0,0,.71.23,1.09,1.09,0,0,0,.9-.42,1.76,1.76,0,0,0,.26-.47,3.45,3.45,0,0,0,.16-.57,5.18,5.18,0,0,0,.09-.64q0-.33,0-.66a8,8,0,0,0-.07-1.06,3.16,3.16,0,0,0-.23-.87,1.52,1.52,0,0,0-.44-.59,1.1,1.1,0,0,0-.7-.22,1.07,1.07,0,0,0-.5.11,1.16,1.16,0,0,0-.37.31,1.7,1.7,0,0,0-.26.46,3.67,3.67,0,0,0-.16.57,5.5,5.5,0,0,0-.09.63Q399.62,39.16,399.62,39.48Z"/><path class="cls-9" d="M409.85,41a2,2,0,0,1-.74,1.62,3.23,3.23,0,0,1-3.75,0,2,2,0,0,1-.74-1.61,2,2,0,0,1,.1-.63,1.73,1.73,0,0,1,.27-.52,1.68,1.68,0,0,1,.43-.4,1.81,1.81,0,0,1,.58-.24v0a1.5,1.5,0,0,1-.82-.56,1.6,1.6,0,0,1-.28-.95,1.66,1.66,0,0,1,.68-1.38,2.63,2.63,0,0,1,1.65-.52,2.43,2.43,0,0,1,1.68.56,1.7,1.7,0,0,1,.63,1.31,1.79,1.79,0,0,1-.07.51,1.53,1.53,0,0,1-.21.44,1.46,1.46,0,0,1-.34.35,1.67,1.67,0,0,1-.47.24v0a1.72,1.72,0,0,1,1,.63A1.87,1.87,0,0,1,409.85,41Zm-1.16,0a1.21,1.21,0,0,0-.4-.93,1.49,1.49,0,0,0-1.05-.37,1.57,1.57,0,0,0-1.05.35,1.18,1.18,0,0,0-.41.94,1.27,1.27,0,0,0,.42,1,1.49,1.49,0,0,0,1.05.38,1.45,1.45,0,0,0,1-.37A1.27,1.27,0,0,0,408.69,41Zm-.21-3.19a1.18,1.18,0,0,0-.09-.47.87.87,0,0,0-.27-.35,1.54,1.54,0,0,0-1.79,0,1,1,0,0,0-.35.78,1,1,0,0,0,.34.79,1.54,1.54,0,0,0,1.82,0A1,1,0,0,0,408.48,37.77Z"/><path class="cls-9" d="M411.15,43.23h-.92l2.9-7.47H414Z"/><path class="cls-9" d="M417,35.79a2.46,2.46,0,0,1,1.69.59,1.85,1.85,0,0,1,.5.69,2.3,2.3,0,0,1,.16.88,2.35,2.35,0,0,1-.38,1.29,4.86,4.86,0,0,1-1.48,1.28q-.42.25-.71.47a5.83,5.83,0,0,0-.48.39,2.34,2.34,0,0,0-.52.68h3.61v1h-5.07a2.79,2.79,0,0,1,.33-1.32,3.12,3.12,0,0,1,.42-.57,4.66,4.66,0,0,1,.62-.55l.79-.59.93-.69a2.24,2.24,0,0,0,.59-.63,1.34,1.34,0,0,0,.19-.69,1.39,1.39,0,0,0-.09-.5,1.11,1.11,0,0,0-.26-.4,1.2,1.2,0,0,0-.39-.25,1.48,1.48,0,0,0-1.09,0,1.22,1.22,0,0,0-.41.31,1.32,1.32,0,0,0-.24.44,1.64,1.64,0,0,0-.08.51v.12h-1.11v-.12a2.62,2.62,0,0,1,.17-1,2.11,2.11,0,0,1,.49-.75A2.25,2.25,0,0,1,416,36,2.88,2.88,0,0,1,417,35.79Z"/><path class="cls-9" d="M423.17,35.79a2.66,2.66,0,0,1,.81.12,2.08,2.08,0,0,1,.66.34,1.92,1.92,0,0,1,.47.54,2,2,0,0,1,.25.71h-1.11a1.32,1.32,0,0,0-.14-.33,1,1,0,0,0-.23-.26,1,1,0,0,0-.32-.17,1.37,1.37,0,0,0-.42-.06,1.21,1.21,0,0,0-.73.22,1.64,1.64,0,0,0-.49.57,2.91,2.91,0,0,0-.28.82,5.59,5.59,0,0,0-.1.94h0a1.71,1.71,0,0,1,1.31-.83,2,2,0,0,1,1.13.09,2,2,0,0,1,1.13.8,2.31,2.31,0,0,1,.41,1.35,2.52,2.52,0,0,1-.71,1.83,2.36,2.36,0,0,1-1.77.73,2.68,2.68,0,0,1-1.18-.24,2.15,2.15,0,0,1-.83-.72,3.41,3.41,0,0,1-.49-1.16,7,7,0,0,1-.16-1.62,6.4,6.4,0,0,1,.06-.88,4.82,4.82,0,0,1,.2-.85A3.7,3.7,0,0,1,421,37a2.56,2.56,0,0,1,.52-.62,2.32,2.32,0,0,1,.72-.42A2.65,2.65,0,0,1,423.17,35.79Zm-1.5,4.95a1.58,1.58,0,0,0,.38,1.09,1.27,1.27,0,0,0,1,.43,1.19,1.19,0,0,0,.95-.44,1.59,1.59,0,0,0,.38-1.06,1.71,1.71,0,0,0-.36-1.1,1.19,1.19,0,0,0-1-.45,1.29,1.29,0,0,0-1,.42A1.62,1.62,0,0,0,421.67,40.74Z"/><path class="cls-9" d="M447,23.93V25H444.7v6.08h-1.25V25h-2.27V23.93Z"/><path class="cls-9" d="M449.23,23.94v2.87h3.37V23.94h1.24v7.13H452.6V27.86h-3.37v3.21H448V23.94Z"/><path class="cls-9" d="M456.8,23.93v4.48a1.89,1.89,0,0,0,.41,1.33,1.68,1.68,0,0,0,1.29.44,1.73,1.73,0,0,0,1.29-.42,1.86,1.86,0,0,0,.41-1.34V23.93h1.25v4.53a2.74,2.74,0,0,1-.75,2,3,3,0,0,1-2.2.75,4,4,0,0,1-1.27-.19,2.33,2.33,0,0,1-1.5-1.46,3.35,3.35,0,0,1-.18-1.13V23.93Z"/><path class="cls-9" d="M444.1,35.79a2.21,2.21,0,0,1,1.93.94,4.76,4.76,0,0,1,.66,2.75,4.86,4.86,0,0,1-.66,2.79,2.44,2.44,0,0,1-3.85,0,4.85,4.85,0,0,1-.66-2.79,4.79,4.79,0,0,1,.66-2.76A2.2,2.2,0,0,1,444.1,35.79Zm-1.42,3.7a8.6,8.6,0,0,0,.06,1,3.51,3.51,0,0,0,.22.89,1.53,1.53,0,0,0,.43.62,1.07,1.07,0,0,0,.71.23,1.09,1.09,0,0,0,.9-.42,1.76,1.76,0,0,0,.26-.47,3.45,3.45,0,0,0,.16-.57,5.18,5.18,0,0,0,.09-.64q0-.33,0-.66a8,8,0,0,0-.07-1.06,3.16,3.16,0,0,0-.23-.87,1.52,1.52,0,0,0-.44-.59,1.1,1.1,0,0,0-.7-.22,1.07,1.07,0,0,0-.5.11,1.16,1.16,0,0,0-.37.31,1.7,1.7,0,0,0-.26.46,3.67,3.67,0,0,0-.16.57,5.5,5.5,0,0,0-.09.63Q442.68,39.16,442.68,39.48Z"/><path class="cls-9" d="M452.92,41a2,2,0,0,1-.74,1.62,3.23,3.23,0,0,1-3.75,0,2,2,0,0,1-.74-1.61,2,2,0,0,1,.1-.63,1.73,1.73,0,0,1,.27-.52,1.68,1.68,0,0,1,.43-.4,1.81,1.81,0,0,1,.58-.24v0a1.5,1.5,0,0,1-.82-.56,1.6,1.6,0,0,1-.28-.95,1.66,1.66,0,0,1,.68-1.38,2.63,2.63,0,0,1,1.65-.52,2.43,2.43,0,0,1,1.68.56,1.7,1.7,0,0,1,.63,1.31,1.79,1.79,0,0,1-.07.51,1.53,1.53,0,0,1-.21.44A1.46,1.46,0,0,1,452,39a1.67,1.67,0,0,1-.47.24v0a1.72,1.72,0,0,1,1,.63A1.87,1.87,0,0,1,452.92,41Zm-1.16,0a1.21,1.21,0,0,0-.4-.93,1.49,1.49,0,0,0-1.05-.37,1.57,1.57,0,0,0-1.05.35,1.18,1.18,0,0,0-.41.94,1.27,1.27,0,0,0,.42,1,1.49,1.49,0,0,0,1.05.38,1.45,1.45,0,0,0,1-.37A1.27,1.27,0,0,0,451.75,41Zm-.21-3.19a1.18,1.18,0,0,0-.09-.47.87.87,0,0,0-.27-.35,1.54,1.54,0,0,0-1.79,0,1,1,0,0,0-.35.78,1,1,0,0,0,.34.79,1.54,1.54,0,0,0,1.82,0A1,1,0,0,0,451.54,37.77Z"/><path class="cls-9" d="M454.21,43.23h-.92l2.9-7.47h.91Z"/><path class="cls-9" d="M460.06,35.79a2.46,2.46,0,0,1,1.69.59,1.85,1.85,0,0,1,.5.69,2.3,2.3,0,0,1,.16.88,2.35,2.35,0,0,1-.38,1.29,4.86,4.86,0,0,1-1.48,1.28q-.42.25-.71.47a5.83,5.83,0,0,0-.48.39,2.34,2.34,0,0,0-.52.68h3.61v1h-5.07a2.79,2.79,0,0,1,.33-1.32,3.12,3.12,0,0,1,.42-.57,4.66,4.66,0,0,1,.62-.55l.79-.59.93-.69a2.24,2.24,0,0,0,.59-.63,1.34,1.34,0,0,0,.19-.69,1.39,1.39,0,0,0-.09-.5,1.11,1.11,0,0,0-.26-.4,1.2,1.2,0,0,0-.39-.25,1.48,1.48,0,0,0-1.09,0,1.22,1.22,0,0,0-.41.31,1.32,1.32,0,0,0-.24.44,1.64,1.64,0,0,0-.08.51v.12h-1.11v-.12a2.62,2.62,0,0,1,.17-1,2.11,2.11,0,0,1,.49-.75A2.25,2.25,0,0,1,459,36,2.88,2.88,0,0,1,460.06,35.79Z"/><path class="cls-9" d="M468.29,35.93v1a7.35,7.35,0,0,0-1,1.25,8.61,8.61,0,0,0-.79,1.52,10,10,0,0,0-.73,3.36H464.5a9.78,9.78,0,0,1,.77-3.18A11.41,11.41,0,0,1,467.1,37h-3.6V35.93Z"/><path class="cls-9" d="M489.71,23.93V25h-3.59v2h3.14v1h-3.14v3.11h-1.25V23.93Z"/><path class="cls-9" d="M496.56,25.86a1.91,1.91,0,0,1-.42,1.28,1.48,1.48,0,0,1-.35.31,2.07,2.07,0,0,1-.46.21v0a1.42,1.42,0,0,1,.49.21,1.18,1.18,0,0,1,.33.35,1.62,1.62,0,0,1,.21.52,4.27,4.27,0,0,1,.08.57q0,.3,0,.61a4,4,0,0,0,.08.62,1.36,1.36,0,0,0,.2.52h-1.27A3.65,3.65,0,0,1,495.3,30a2.67,2.67,0,0,0-.38-1.47,1.13,1.13,0,0,0-.88-.34h-2v2.92H490.8V23.93h3.68a2.13,2.13,0,0,1,1.48.53A1.8,1.8,0,0,1,496.56,25.86Zm-1.25.2a1.09,1.09,0,0,0-.32-.86,1.3,1.3,0,0,0-.89-.28H492v2.29h2.05a1.27,1.27,0,0,0,.85-.27A1.08,1.08,0,0,0,495.31,26.06Z"/><path class="cls-9" d="M499.39,23.93v7.14h-1.25V23.93Z"/><path class="cls-9" d="M487,35.79a2.21,2.21,0,0,1,1.93.94,4.77,4.77,0,0,1,.66,2.75,4.86,4.86,0,0,1-.66,2.79,2.44,2.44,0,0,1-3.85,0,4.85,4.85,0,0,1-.66-2.79,4.79,4.79,0,0,1,.66-2.76A2.2,2.2,0,0,1,487,35.79Zm-1.42,3.7a8.6,8.6,0,0,0,.06,1,3.49,3.49,0,0,0,.22.89,1.53,1.53,0,0,0,.43.62,1.07,1.07,0,0,0,.71.23,1.09,1.09,0,0,0,.9-.42,1.76,1.76,0,0,0,.26-.47,3.45,3.45,0,0,0,.16-.57,5.28,5.28,0,0,0,.09-.64q0-.33,0-.66a8,8,0,0,0-.07-1.06,3.16,3.16,0,0,0-.23-.87,1.52,1.52,0,0,0-.44-.59,1.1,1.1,0,0,0-.7-.22,1.07,1.07,0,0,0-.5.11,1.16,1.16,0,0,0-.37.31,1.7,1.7,0,0,0-.26.46,3.57,3.57,0,0,0-.16.57,5.5,5.5,0,0,0-.09.63Q485.62,39.16,485.62,39.48Z"/><path class="cls-9" d="M495.85,41a2,2,0,0,1-.74,1.62,3.23,3.23,0,0,1-3.75,0,2,2,0,0,1-.74-1.61,2,2,0,0,1,.1-.63,1.73,1.73,0,0,1,.27-.52,1.68,1.68,0,0,1,.43-.4,1.81,1.81,0,0,1,.58-.24v0a1.5,1.5,0,0,1-.82-.56,1.6,1.6,0,0,1-.28-.95,1.66,1.66,0,0,1,.68-1.38,2.63,2.63,0,0,1,1.65-.52,2.43,2.43,0,0,1,1.68.56,1.7,1.7,0,0,1,.63,1.31,1.79,1.79,0,0,1-.07.51,1.53,1.53,0,0,1-.21.44,1.46,1.46,0,0,1-.34.35,1.67,1.67,0,0,1-.47.24v0a1.72,1.72,0,0,1,1,.63A1.87,1.87,0,0,1,495.85,41Zm-1.16,0a1.21,1.21,0,0,0-.4-.93,1.49,1.49,0,0,0-1.05-.37,1.57,1.57,0,0,0-1.05.35,1.18,1.18,0,0,0-.41.94,1.27,1.27,0,0,0,.42,1,1.49,1.49,0,0,0,1.05.38,1.45,1.45,0,0,0,1-.37A1.27,1.27,0,0,0,494.69,41Zm-.21-3.19a1.18,1.18,0,0,0-.09-.47.87.87,0,0,0-.27-.35,1.54,1.54,0,0,0-1.79,0,1,1,0,0,0-.35.78,1,1,0,0,0,.34.79,1.54,1.54,0,0,0,1.82,0A1,1,0,0,0,494.48,37.77Z"/><path class="cls-9" d="M497.15,43.23h-.92l2.9-7.47H500Z"/><path class="cls-9" d="M503,35.79a2.45,2.45,0,0,1,1.69.59,1.85,1.85,0,0,1,.5.69,2.3,2.3,0,0,1,.16.88,2.35,2.35,0,0,1-.38,1.29,4.86,4.86,0,0,1-1.48,1.28q-.41.25-.71.47a5.91,5.91,0,0,0-.48.39,2.34,2.34,0,0,0-.52.68h3.61v1h-5.07a2.8,2.8,0,0,1,.33-1.32,3.12,3.12,0,0,1,.42-.57,4.66,4.66,0,0,1,.62-.55l.79-.59.93-.69a2.24,2.24,0,0,0,.59-.63,1.34,1.34,0,0,0,.19-.69,1.39,1.39,0,0,0-.09-.5,1.11,1.11,0,0,0-.26-.4,1.2,1.2,0,0,0-.39-.25,1.48,1.48,0,0,0-1.09,0,1.21,1.21,0,0,0-.41.31,1.32,1.32,0,0,0-.24.44,1.64,1.64,0,0,0-.08.51v.12h-1.11v-.12a2.62,2.62,0,0,1,.17-1,2.12,2.12,0,0,1,.49-.75A2.26,2.26,0,0,1,502,36,2.88,2.88,0,0,1,503,35.79Z"/><path class="cls-9" d="M511.58,41a2,2,0,0,1-.74,1.62,3.23,3.23,0,0,1-3.75,0,2,2,0,0,1-.74-1.61,2,2,0,0,1,.1-.63,1.73,1.73,0,0,1,.27-.52,1.68,1.68,0,0,1,.43-.4,1.81,1.81,0,0,1,.58-.24v0a1.5,1.5,0,0,1-.82-.56,1.6,1.6,0,0,1-.28-.95,1.66,1.66,0,0,1,.68-1.38,2.63,2.63,0,0,1,1.65-.52,2.43,2.43,0,0,1,1.68.56,1.7,1.7,0,0,1,.63,1.31,1.79,1.79,0,0,1-.07.51,1.53,1.53,0,0,1-.21.44,1.46,1.46,0,0,1-.34.35,1.67,1.67,0,0,1-.47.24v0a1.72,1.72,0,0,1,1,.63A1.87,1.87,0,0,1,511.58,41Zm-1.16,0A1.21,1.21,0,0,0,510,40a1.49,1.49,0,0,0-1.05-.37,1.57,1.57,0,0,0-1.05.35,1.18,1.18,0,0,0-.41.94,1.27,1.27,0,0,0,.42,1,1.49,1.49,0,0,0,1.05.38,1.45,1.45,0,0,0,1-.37A1.27,1.27,0,0,0,510.42,41Zm-.21-3.19a1.18,1.18,0,0,0-.09-.47.87.87,0,0,0-.27-.35,1.54,1.54,0,0,0-1.79,0,1,1,0,0,0-.35.78,1,1,0,0,0,.34.79,1.54,1.54,0,0,0,1.82,0A1,1,0,0,0,510.2,37.77Z"/><path class="cls-9" d="M533.2,29a2,2,0,0,1-.24,1,2,2,0,0,1-.65.68,2.92,2.92,0,0,1-.94.39,4.91,4.91,0,0,1-1.12.12,4.3,4.3,0,0,1-1.14-.14,2.81,2.81,0,0,1-.92-.43,2.08,2.08,0,0,1-.62-.7,2,2,0,0,1-.22-1v-.08h1.23v0a1.11,1.11,0,0,0,.14.56,1.17,1.17,0,0,0,.38.4,1.76,1.76,0,0,0,.56.24,3,3,0,0,0,1.32,0,1.71,1.71,0,0,0,.52-.21,1.08,1.08,0,0,0,.35-.34.89.89,0,0,0,.13-.48.77.77,0,0,0-.31-.63,2.7,2.7,0,0,0-1-.42l-1.53-.41A2.36,2.36,0,0,1,528,27a1.68,1.68,0,0,1-.39-1.16,1.87,1.87,0,0,1,.21-.91,2,2,0,0,1,.58-.66,2.69,2.69,0,0,1,.86-.4,3.84,3.84,0,0,1,1-.14,3.89,3.89,0,0,1,1,.12,2.69,2.69,0,0,1,.85.38,1.93,1.93,0,0,1,.59.64,1.87,1.87,0,0,1,.23.91h-1.22a1,1,0,0,0-.44-.77,1.5,1.5,0,0,0-.46-.22,2.07,2.07,0,0,0-.59-.08,2.44,2.44,0,0,0-.55.06,1.46,1.46,0,0,0-.46.19,1,1,0,0,0-.31.32.88.88,0,0,0-.11.46.83.83,0,0,0,.06.33.66.66,0,0,0,.17.23.9.9,0,0,0,.26.16l.34.11,1.68.44a3.07,3.07,0,0,1,1.42.72A1.69,1.69,0,0,1,533.2,29Z"/><path class="cls-9" d="M539.17,31.07l-.62-1.82h-3L535,31.07h-1.27l2.57-7.13H538l2.52,7.13Zm-2.07-6.21h0l-1.17,3.44h2.33Z"/><path class="cls-9" d="M545.86,23.93V25h-2.27v6.08h-1.25V25h-2.27V23.93Z"/><path class="cls-9" d="M530,35.79a2.21,2.21,0,0,1,1.93.94,4.76,4.76,0,0,1,.66,2.75,4.86,4.86,0,0,1-.66,2.79,2.44,2.44,0,0,1-3.85,0,4.85,4.85,0,0,1-.66-2.79,4.79,4.79,0,0,1,.66-2.76A2.2,2.2,0,0,1,530,35.79Zm-1.42,3.7a8.6,8.6,0,0,0,.06,1,3.51,3.51,0,0,0,.22.89,1.53,1.53,0,0,0,.43.62,1.07,1.07,0,0,0,.71.23,1.09,1.09,0,0,0,.9-.42,1.76,1.76,0,0,0,.26-.47,3.45,3.45,0,0,0,.16-.57,5.18,5.18,0,0,0,.09-.64q0-.33,0-.66a8,8,0,0,0-.07-1.06,3.16,3.16,0,0,0-.23-.87,1.52,1.52,0,0,0-.44-.59,1.1,1.1,0,0,0-.7-.22,1.07,1.07,0,0,0-.5.11,1.16,1.16,0,0,0-.37.31,1.7,1.7,0,0,0-.26.46,3.67,3.67,0,0,0-.16.57,5.5,5.5,0,0,0-.09.63Q528.6,39.16,528.6,39.48Z"/><path class="cls-9" d="M538.83,41a2,2,0,0,1-.74,1.62,3.23,3.23,0,0,1-3.75,0A2,2,0,0,1,533.6,41a2,2,0,0,1,.1-.63,1.73,1.73,0,0,1,.27-.52,1.68,1.68,0,0,1,.43-.4,1.81,1.81,0,0,1,.58-.24v0a1.5,1.5,0,0,1-.82-.56,1.6,1.6,0,0,1-.28-.95,1.66,1.66,0,0,1,.68-1.38,2.63,2.63,0,0,1,1.65-.52,2.43,2.43,0,0,1,1.68.56,1.7,1.7,0,0,1,.63,1.31,1.79,1.79,0,0,1-.07.51,1.53,1.53,0,0,1-.21.44,1.46,1.46,0,0,1-.34.35,1.67,1.67,0,0,1-.47.24v0a1.72,1.72,0,0,1,1,.63A1.87,1.87,0,0,1,538.83,41Zm-1.16,0a1.21,1.21,0,0,0-.4-.93,1.49,1.49,0,0,0-1.05-.37,1.57,1.57,0,0,0-1.05.35,1.18,1.18,0,0,0-.41.94,1.27,1.27,0,0,0,.42,1,1.49,1.49,0,0,0,1.05.38,1.45,1.45,0,0,0,1-.37A1.27,1.27,0,0,0,537.67,41Zm-.21-3.19a1.18,1.18,0,0,0-.09-.47.87.87,0,0,0-.27-.35,1.54,1.54,0,0,0-1.79,0,1,1,0,0,0-.35.78,1,1,0,0,0,.34.79,1.54,1.54,0,0,0,1.82,0A1,1,0,0,0,537.46,37.77Z"/><path class="cls-9" d="M540.13,43.23h-.92l2.9-7.47H543Z"/><path class="cls-9" d="M546,35.79a2.46,2.46,0,0,1,1.69.59,1.85,1.85,0,0,1,.5.69,2.3,2.3,0,0,1,.16.88,2.35,2.35,0,0,1-.38,1.29,4.86,4.86,0,0,1-1.48,1.28q-.42.25-.71.47a5.83,5.83,0,0,0-.48.39,2.34,2.34,0,0,0-.52.68h3.61v1H543.3a2.79,2.79,0,0,1,.33-1.32,3.12,3.12,0,0,1,.42-.57,4.66,4.66,0,0,1,.62-.55l.79-.59.93-.69a2.24,2.24,0,0,0,.59-.63,1.34,1.34,0,0,0,.19-.69,1.39,1.39,0,0,0-.09-.5,1.11,1.11,0,0,0-.26-.4,1.2,1.2,0,0,0-.39-.25,1.48,1.48,0,0,0-1.09,0,1.22,1.22,0,0,0-.41.31,1.32,1.32,0,0,0-.24.44,1.64,1.64,0,0,0-.08.51v.12h-1.11v-.12a2.62,2.62,0,0,1,.17-1,2.11,2.11,0,0,1,.49-.75,2.25,2.25,0,0,1,.78-.49A2.88,2.88,0,0,1,546,35.79Z"/><path class="cls-9" d="M551.77,43.22a2.68,2.68,0,0,1-.82-.12,2.07,2.07,0,0,1-.66-.34,1.91,1.91,0,0,1-.47-.54,2,2,0,0,1-.25-.71h1.11a1.32,1.32,0,0,0,.14.33,1,1,0,0,0,.23.26,1.09,1.09,0,0,0,.33.17,1.29,1.29,0,0,0,.42.06,1.22,1.22,0,0,0,.73-.22,1.63,1.63,0,0,0,.49-.57,2.91,2.91,0,0,0,.28-.82,5.69,5.69,0,0,0,.1-.94h0a1.8,1.8,0,0,1-.56.57,1.84,1.84,0,0,1-.75.25,2.07,2.07,0,0,1-1.14-.09,2,2,0,0,1-1.13-.8,2.29,2.29,0,0,1-.41-1.35,2.54,2.54,0,0,1,.71-1.83,2.37,2.37,0,0,1,1.77-.72,2.7,2.7,0,0,1,1.18.24,2.09,2.09,0,0,1,.83.71,4.9,4.9,0,0,1,.65,2.78,6.41,6.41,0,0,1-.06.88,4.82,4.82,0,0,1-.2.85,3.8,3.8,0,0,1-.35.77,2.52,2.52,0,0,1-.52.62,2.32,2.32,0,0,1-.72.42A2.65,2.65,0,0,1,551.77,43.22Zm1.5-5a1.56,1.56,0,0,0-.38-1.08,1.27,1.27,0,0,0-1-.43,1.17,1.17,0,0,0-.94.44,1.58,1.58,0,0,0-.38,1.05,1.7,1.7,0,0,0,.36,1.1,1.19,1.19,0,0,0,1,.45,1.29,1.29,0,0,0,1-.43A1.62,1.62,0,0,0,553.27,38.27Z"/><path class="cls-9" d="M576.14,29a2,2,0,0,1-.24,1,2,2,0,0,1-.65.68,2.92,2.92,0,0,1-.94.39,4.91,4.91,0,0,1-1.12.12,4.3,4.3,0,0,1-1.14-.14,2.81,2.81,0,0,1-.92-.43,2.08,2.08,0,0,1-.62-.7,2,2,0,0,1-.22-1v-.08h1.23v0a1.11,1.11,0,0,0,.14.56,1.17,1.17,0,0,0,.38.4,1.76,1.76,0,0,0,.56.24,3,3,0,0,0,1.32,0,1.71,1.71,0,0,0,.52-.21,1.08,1.08,0,0,0,.35-.34.89.89,0,0,0,.13-.48.77.77,0,0,0-.31-.63,2.7,2.7,0,0,0-1-.42l-1.53-.41a2.36,2.36,0,0,1-1.2-.65,1.68,1.68,0,0,1-.39-1.16,1.87,1.87,0,0,1,.21-.91,2,2,0,0,1,.58-.66,2.69,2.69,0,0,1,.86-.4,3.84,3.84,0,0,1,1-.14,3.89,3.89,0,0,1,1,.12,2.69,2.69,0,0,1,.85.38,1.93,1.93,0,0,1,.59.64,1.87,1.87,0,0,1,.23.91h-1.22a1,1,0,0,0-.44-.77,1.5,1.5,0,0,0-.46-.22,2.07,2.07,0,0,0-.59-.08,2.44,2.44,0,0,0-.55.06,1.46,1.46,0,0,0-.46.19,1,1,0,0,0-.31.32.88.88,0,0,0-.11.46.83.83,0,0,0,.06.33.66.66,0,0,0,.17.23.9.9,0,0,0,.26.16l.34.11,1.68.44a3.07,3.07,0,0,1,1.42.72A1.69,1.69,0,0,1,576.14,29Z"/><path class="cls-9" d="M578.6,23.93v4.48a1.89,1.89,0,0,0,.41,1.33,1.68,1.68,0,0,0,1.29.44,1.73,1.73,0,0,0,1.29-.42,1.86,1.86,0,0,0,.41-1.34V23.93h1.25v4.53a2.74,2.74,0,0,1-.75,2,3,3,0,0,1-2.2.75A4,4,0,0,1,579,31a2.33,2.33,0,0,1-1.5-1.46,3.37,3.37,0,0,1-.18-1.13V23.93Z"/><path class="cls-9" d="M586.22,23.93l3.4,5.3h0v-5.3h1.19v7.14h-1.27l-3.4-5.3h0v5.3h-1.19V23.93Z"/><path class="cls-9" d="M573,35.79a2.21,2.21,0,0,1,1.93.94,4.76,4.76,0,0,1,.66,2.75,4.86,4.86,0,0,1-.66,2.79,2.44,2.44,0,0,1-3.85,0,4.85,4.85,0,0,1-.66-2.79,4.79,4.79,0,0,1,.66-2.76A2.2,2.2,0,0,1,573,35.79Zm-1.42,3.7a8.6,8.6,0,0,0,.06,1,3.51,3.51,0,0,0,.22.89,1.53,1.53,0,0,0,.43.62,1.07,1.07,0,0,0,.71.23,1.09,1.09,0,0,0,.9-.42,1.76,1.76,0,0,0,.26-.47,3.45,3.45,0,0,0,.16-.57,5.18,5.18,0,0,0,.09-.64q0-.33,0-.66a8,8,0,0,0-.07-1.06,3.16,3.16,0,0,0-.23-.87,1.52,1.52,0,0,0-.44-.59,1.1,1.1,0,0,0-.7-.22,1.07,1.07,0,0,0-.5.11,1.16,1.16,0,0,0-.37.31,1.7,1.7,0,0,0-.26.46,3.67,3.67,0,0,0-.16.57,5.5,5.5,0,0,0-.09.63Q571.54,39.16,571.54,39.48Z"/><path class="cls-9" d="M581.77,41a2,2,0,0,1-.74,1.62,3.23,3.23,0,0,1-3.75,0,2,2,0,0,1-.74-1.61,2,2,0,0,1,.1-.63,1.73,1.73,0,0,1,.27-.52,1.68,1.68,0,0,1,.43-.4,1.81,1.81,0,0,1,.58-.24v0a1.5,1.5,0,0,1-.82-.56,1.6,1.6,0,0,1-.28-.95,1.66,1.66,0,0,1,.68-1.38,2.63,2.63,0,0,1,1.65-.52,2.43,2.43,0,0,1,1.68.56,1.7,1.7,0,0,1,.63,1.31,1.79,1.79,0,0,1-.07.51,1.53,1.53,0,0,1-.21.44,1.46,1.46,0,0,1-.34.35,1.67,1.67,0,0,1-.47.24v0a1.72,1.72,0,0,1,1,.63A1.87,1.87,0,0,1,581.77,41Zm-1.16,0a1.21,1.21,0,0,0-.4-.93,1.49,1.49,0,0,0-1.05-.37,1.57,1.57,0,0,0-1.05.35,1.18,1.18,0,0,0-.41.94,1.27,1.27,0,0,0,.42,1,1.49,1.49,0,0,0,1.05.38,1.45,1.45,0,0,0,1-.37A1.27,1.27,0,0,0,580.61,41Zm-.21-3.19a1.18,1.18,0,0,0-.09-.47A.87.87,0,0,0,580,37a1.54,1.54,0,0,0-1.79,0,1,1,0,0,0-.35.78,1,1,0,0,0,.34.79,1.54,1.54,0,0,0,1.82,0A1,1,0,0,0,580.4,37.77Z"/><path class="cls-9" d="M583.07,43.23h-.92l2.9-7.47H586Z"/><path class="cls-9" d="M588.84,35.79a3,3,0,0,1,.86.12,2.28,2.28,0,0,1,.73.36,1.83,1.83,0,0,1,.51.6,1.75,1.75,0,0,1,.19.83,1.81,1.81,0,0,1-.07.51,1.53,1.53,0,0,1-.21.43,1.37,1.37,0,0,1-.34.34,1.57,1.57,0,0,1-.47.22v0a1.61,1.61,0,0,1,1,.6,1.72,1.72,0,0,1,.35,1.08,2.08,2.08,0,0,1-.74,1.66,2.76,2.76,0,0,1-1.86.63,3.2,3.2,0,0,1-1-.15,2.45,2.45,0,0,1-.81-.43,2.07,2.07,0,0,1-.56-.7,2.12,2.12,0,0,1-.21-1v-.11h1.11V41a1.2,1.2,0,0,0,.41.93,1.31,1.31,0,0,0,.44.25,1.59,1.59,0,0,0,.53.09,1.51,1.51,0,0,0,1.07-.37,1.21,1.21,0,0,0,.4-.93,1.12,1.12,0,0,0-.37-.91,1.83,1.83,0,0,0-1.22-.32h-.29v-.85h.36a1.55,1.55,0,0,0,1-.29.92.92,0,0,0,.33-.75,1.15,1.15,0,0,0-.1-.49.93.93,0,0,0-.26-.34,1.12,1.12,0,0,0-.39-.2,1.64,1.64,0,0,0-.47-.07,1.41,1.41,0,0,0-.5.09,1.17,1.17,0,0,0-.4.25,1.19,1.19,0,0,0-.27.39,1.35,1.35,0,0,0-.11.53h-1.11a2.34,2.34,0,0,1,.19-.87,2.12,2.12,0,0,1,.49-.7,2.28,2.28,0,0,1,.76-.47A2.72,2.72,0,0,1,588.84,35.79Z"/><path class="cls-9" d="M595,35.79a2.21,2.21,0,0,1,1.93.94,4.76,4.76,0,0,1,.66,2.75,4.86,4.86,0,0,1-.66,2.79,2.44,2.44,0,0,1-3.85,0,4.85,4.85,0,0,1-.66-2.79,4.79,4.79,0,0,1,.66-2.76A2.2,2.2,0,0,1,595,35.79Zm-1.42,3.7a8.6,8.6,0,0,0,.06,1,3.48,3.48,0,0,0,.22.89,1.53,1.53,0,0,0,.43.62,1.07,1.07,0,0,0,.71.23,1.09,1.09,0,0,0,.9-.42,1.76,1.76,0,0,0,.26-.47,3.45,3.45,0,0,0,.16-.57,5.27,5.27,0,0,0,.09-.64q0-.33,0-.66a8,8,0,0,0-.07-1.06,3.17,3.17,0,0,0-.23-.87,1.52,1.52,0,0,0-.44-.59,1.09,1.09,0,0,0-.7-.22,1.07,1.07,0,0,0-.5.11,1.15,1.15,0,0,0-.37.31,1.69,1.69,0,0,0-.26.46,3.67,3.67,0,0,0-.16.57,5.5,5.5,0,0,0-.09.63Q593.61,39.16,593.61,39.48Z"/><path class="cls-9" d="M620.37,31.07V25.34h0l-2,5.73h-1.08l-2-5.7h0v5.7H614V23.94h1.83l2,5.56h0l1.91-5.56h1.82v7.13Z"/><path class="cls-9" d="M629.84,27.52a3.86,3.86,0,0,1-.95,2.66,3.21,3.21,0,0,1-2.51,1.05A3.64,3.64,0,0,1,625,31a3.21,3.21,0,0,1-1.1-.75,3.36,3.36,0,0,1-.75-1.22,4.46,4.46,0,0,1-.25-1.51,3.9,3.9,0,0,1,.95-2.7,3.21,3.21,0,0,1,2.51-1.05,3.69,3.69,0,0,1,1.37.25,3,3,0,0,1,1.1.76A3.35,3.35,0,0,1,629.6,26,4.76,4.76,0,0,1,629.84,27.52Zm-1.25,0a3.07,3.07,0,0,0-.59-2,2.14,2.14,0,0,0-3.25,0,3.08,3.08,0,0,0-.58,2,3,3,0,0,0,.58,1.91,2.16,2.16,0,0,0,3.26,0A3,3,0,0,0,628.59,27.52Z"/><path class="cls-9" d="M632.48,23.93l3.4,5.3h0v-5.3h1.19v7.14h-1.27l-3.4-5.3h0v5.3h-1.19V23.93Z"/><path class="cls-9" d="M616.19,35.79a2.21,2.21,0,0,1,1.93.94,4.77,4.77,0,0,1,.66,2.75,4.86,4.86,0,0,1-.66,2.79,2.44,2.44,0,0,1-3.85,0,4.85,4.85,0,0,1-.66-2.79,4.79,4.79,0,0,1,.66-2.76A2.2,2.2,0,0,1,616.19,35.79Zm-1.42,3.7a8.6,8.6,0,0,0,.06,1,3.49,3.49,0,0,0,.22.89,1.53,1.53,0,0,0,.43.62,1.07,1.07,0,0,0,.71.23,1.09,1.09,0,0,0,.9-.42,1.76,1.76,0,0,0,.26-.47,3.45,3.45,0,0,0,.16-.57,5.28,5.28,0,0,0,.09-.64q0-.33,0-.66a8,8,0,0,0-.07-1.06,3.16,3.16,0,0,0-.23-.87,1.52,1.52,0,0,0-.44-.59,1.1,1.1,0,0,0-.7-.22,1.07,1.07,0,0,0-.5.11,1.16,1.16,0,0,0-.37.31,1.7,1.7,0,0,0-.26.46,3.57,3.57,0,0,0-.16.57,5.5,5.5,0,0,0-.09.63Q614.77,39.16,614.77,39.48Z"/><path class="cls-9" d="M625,41a2,2,0,0,1-.74,1.62,3.23,3.23,0,0,1-3.75,0,2,2,0,0,1-.74-1.61,2,2,0,0,1,.1-.63,1.73,1.73,0,0,1,.27-.52,1.68,1.68,0,0,1,.43-.4,1.81,1.81,0,0,1,.58-.24v0a1.5,1.5,0,0,1-.82-.56,1.6,1.6,0,0,1-.28-.95,1.66,1.66,0,0,1,.68-1.38,2.63,2.63,0,0,1,1.65-.52,2.43,2.43,0,0,1,1.68.56,1.7,1.7,0,0,1,.63,1.31,1.79,1.79,0,0,1-.07.51,1.53,1.53,0,0,1-.21.44,1.46,1.46,0,0,1-.34.35,1.67,1.67,0,0,1-.47.24v0a1.72,1.72,0,0,1,1,.63A1.87,1.87,0,0,1,625,41Zm-1.16,0a1.21,1.21,0,0,0-.4-.93,1.49,1.49,0,0,0-1.05-.37,1.57,1.57,0,0,0-1.05.35,1.18,1.18,0,0,0-.41.94,1.27,1.27,0,0,0,.42,1,1.49,1.49,0,0,0,1.05.38,1.45,1.45,0,0,0,1-.37A1.27,1.27,0,0,0,623.85,41Zm-.21-3.19a1.18,1.18,0,0,0-.09-.47.87.87,0,0,0-.27-.35,1.54,1.54,0,0,0-1.79,0,1,1,0,0,0-.35.78,1,1,0,0,0,.34.79,1.54,1.54,0,0,0,1.82,0A1,1,0,0,0,623.63,37.77Z"/><path class="cls-9" d="M626.31,43.23h-.92l2.9-7.47h.91Z"/><path class="cls-9" d="M632.08,35.79a3,3,0,0,1,.86.12,2.28,2.28,0,0,1,.73.36,1.83,1.83,0,0,1,.51.6,1.75,1.75,0,0,1,.19.83,1.81,1.81,0,0,1-.07.51,1.53,1.53,0,0,1-.21.43,1.37,1.37,0,0,1-.34.34,1.57,1.57,0,0,1-.47.22v0a1.61,1.61,0,0,1,1,.6,1.72,1.72,0,0,1,.35,1.08,2.08,2.08,0,0,1-.74,1.66,2.76,2.76,0,0,1-1.86.63,3.2,3.2,0,0,1-1-.15,2.45,2.45,0,0,1-.81-.43,2.07,2.07,0,0,1-.56-.7,2.12,2.12,0,0,1-.21-1v-.11h1.11V41a1.2,1.2,0,0,0,.41.93,1.31,1.31,0,0,0,.44.25,1.59,1.59,0,0,0,.53.09,1.51,1.51,0,0,0,1.07-.37,1.21,1.21,0,0,0,.4-.93,1.12,1.12,0,0,0-.37-.91,1.83,1.83,0,0,0-1.22-.32h-.29v-.85h.36a1.55,1.55,0,0,0,1-.29.92.92,0,0,0,.33-.75,1.15,1.15,0,0,0-.1-.49.93.93,0,0,0-.26-.34,1.12,1.12,0,0,0-.39-.2,1.64,1.64,0,0,0-.47-.07,1.41,1.41,0,0,0-.5.09,1.17,1.17,0,0,0-.4.25,1.19,1.19,0,0,0-.27.39,1.35,1.35,0,0,0-.11.53h-1.11a2.34,2.34,0,0,1,.19-.87,2.12,2.12,0,0,1,.49-.7,2.28,2.28,0,0,1,.76-.47A2.72,2.72,0,0,1,632.08,35.79Z"/><path class="cls-9" d="M637.64,43.07V38.18h-1.83v-.86a5,5,0,0,0,.75-.06,2,2,0,0,0,.52-.15,1.31,1.31,0,0,0,.53-.46,1.85,1.85,0,0,0,.26-.74h.93v7.17Z"/><path class="cls-9" d="M662.06,23.93V25h-2.27v6.08h-1.25V25h-2.27V23.93Z"/><path class="cls-9" d="M664.29,23.93v4.48a1.89,1.89,0,0,0,.41,1.33,1.68,1.68,0,0,0,1.29.44,1.73,1.73,0,0,0,1.29-.42,1.86,1.86,0,0,0,.41-1.34V23.93h1.25v4.53a2.74,2.74,0,0,1-.75,2,3,3,0,0,1-2.2.75,4,4,0,0,1-1.27-.19,2.33,2.33,0,0,1-1.5-1.46,3.35,3.35,0,0,1-.18-1.13V23.93Z"/><path class="cls-9" d="M675.83,23.94V25h-3.94v1.9h3.64v1h-3.64V30h4v1h-5.25V23.94Z"/><path class="cls-9" d="M659.19,35.79a2.21,2.21,0,0,1,1.93.94,4.77,4.77,0,0,1,.66,2.75,4.86,4.86,0,0,1-.66,2.79,2.44,2.44,0,0,1-3.85,0,4.85,4.85,0,0,1-.66-2.79,4.79,4.79,0,0,1,.66-2.76A2.2,2.2,0,0,1,659.19,35.79Zm-1.42,3.7a8.6,8.6,0,0,0,.06,1,3.49,3.49,0,0,0,.22.89,1.53,1.53,0,0,0,.43.62,1.07,1.07,0,0,0,.71.23,1.09,1.09,0,0,0,.9-.42,1.76,1.76,0,0,0,.26-.47,3.45,3.45,0,0,0,.16-.57,5.28,5.28,0,0,0,.09-.64q0-.33,0-.66a8,8,0,0,0-.07-1.06,3.16,3.16,0,0,0-.23-.87,1.52,1.52,0,0,0-.44-.59,1.1,1.1,0,0,0-.7-.22,1.07,1.07,0,0,0-.5.11,1.16,1.16,0,0,0-.37.31,1.7,1.7,0,0,0-.26.46,3.57,3.57,0,0,0-.16.57,5.5,5.5,0,0,0-.09.63Q657.77,39.16,657.77,39.48Z"/><path class="cls-9" d="M665.19,43.22a2.68,2.68,0,0,1-.82-.12,2.07,2.07,0,0,1-.66-.34,1.91,1.91,0,0,1-.47-.54,2,2,0,0,1-.25-.71h1.11a1.34,1.34,0,0,0,.14.33,1,1,0,0,0,.23.26,1.09,1.09,0,0,0,.32.17,1.29,1.29,0,0,0,.42.06,1.22,1.22,0,0,0,.73-.22,1.63,1.63,0,0,0,.49-.57,2.91,2.91,0,0,0,.28-.82,5.63,5.63,0,0,0,.1-.94h0a1.79,1.79,0,0,1-.56.57,1.84,1.84,0,0,1-.75.25,2.07,2.07,0,0,1-1.14-.09,2,2,0,0,1-1.13-.8,2.3,2.3,0,0,1-.41-1.35,2.54,2.54,0,0,1,.71-1.83,2.37,2.37,0,0,1,1.77-.72,2.7,2.7,0,0,1,1.18.24,2.09,2.09,0,0,1,.83.71,4.9,4.9,0,0,1,.65,2.78,6.4,6.4,0,0,1-.06.88,4.82,4.82,0,0,1-.2.85,3.8,3.8,0,0,1-.35.77,2.52,2.52,0,0,1-.52.62,2.32,2.32,0,0,1-.72.42A2.66,2.66,0,0,1,665.19,43.22Zm1.5-5a1.56,1.56,0,0,0-.38-1.08,1.27,1.27,0,0,0-1-.43,1.17,1.17,0,0,0-.94.44,1.58,1.58,0,0,0-.38,1.05,1.7,1.7,0,0,0,.36,1.1,1.19,1.19,0,0,0,1,.45,1.29,1.29,0,0,0,1-.43A1.62,1.62,0,0,0,666.69,38.27Z"/><path class="cls-9" d="M669.13,43.23h-.92l2.9-7.47H672Z"/><path class="cls-9" d="M674.87,35.79a2.21,2.21,0,0,1,1.93.94,4.77,4.77,0,0,1,.66,2.75,4.86,4.86,0,0,1-.66,2.79,2.44,2.44,0,0,1-3.85,0,4.85,4.85,0,0,1-.66-2.79,4.79,4.79,0,0,1,.66-2.76A2.2,2.2,0,0,1,674.87,35.79Zm-1.42,3.7a8.6,8.6,0,0,0,.06,1,3.49,3.49,0,0,0,.22.89,1.53,1.53,0,0,0,.43.62,1.07,1.07,0,0,0,.71.23,1.09,1.09,0,0,0,.9-.42,1.76,1.76,0,0,0,.26-.47,3.45,3.45,0,0,0,.16-.57,5.28,5.28,0,0,0,.09-.64q0-.33,0-.66a8,8,0,0,0-.07-1.06,3.16,3.16,0,0,0-.23-.87,1.52,1.52,0,0,0-.44-.59,1.1,1.1,0,0,0-.7-.22,1.07,1.07,0,0,0-.5.11,1.16,1.16,0,0,0-.37.31,1.7,1.7,0,0,0-.26.46,3.57,3.57,0,0,0-.16.57,5.5,5.5,0,0,0-.09.63Q673.45,39.16,673.45,39.48Z"/><path class="cls-9" d="M680.54,43.07V38.18h-1.83v-.86a5,5,0,0,0,.75-.06,2,2,0,0,0,.52-.15,1.31,1.31,0,0,0,.53-.46,1.84,1.84,0,0,0,.26-.74h.93v7.17Z"/><path class="cls-10" d="M111.47,69.16v.7h-3v-.7Z"/><path class="cls-10" d="M115.58,64.28a2.81,2.81,0,0,1,2,.66,2.28,2.28,0,0,1,.73,1.78,2.82,2.82,0,0,1-.55,1.66,7,7,0,0,1-2,1.66,8.29,8.29,0,0,0-1.66,1.23,2,2,0,0,0-.56,1h4.81V73h-5.7a3,3,0,0,1,.56-1.74,6.61,6.61,0,0,1,1.93-1.66A8.78,8.78,0,0,0,117,68.11a2.11,2.11,0,0,0,.51-1.41,1.64,1.64,0,0,0-.54-1.28,2,2,0,0,0-1.4-.49,2,2,0,0,0-.86.17,1.82,1.82,0,0,0-.61.44,1.77,1.77,0,0,0-.36.62,2.2,2.2,0,0,0-.12.71V67h-.77v-.12a2.93,2.93,0,0,1,.17-1,2.42,2.42,0,0,1,.51-.84,2.47,2.47,0,0,1,.86-.59A3.06,3.06,0,0,1,115.58,64.28Z"/><path class="cls-10" d="M122.6,64.28a2.87,2.87,0,0,1,1.32.29,2.48,2.48,0,0,1,.94.85,4.14,4.14,0,0,1,.57,1.39,8.64,8.64,0,0,1,.19,1.92,5.94,5.94,0,0,1-.77,3.35,2.82,2.82,0,0,1-4.49,0,5.89,5.89,0,0,1-.77-3.34,5.89,5.89,0,0,1,.77-3.35A2.56,2.56,0,0,1,122.6,64.28Zm-2.23,4.45q0,3.81,2.23,3.81t2.24-3.81a5.64,5.64,0,0,0-.57-2.84,1.84,1.84,0,0,0-1.68-1,1.82,1.82,0,0,0-1.65.94A5.63,5.63,0,0,0,120.37,68.72Z"/><path class="cls-10" d="M115.65,104V97.57h-2.29V97q.53,0,.9-.06a2.36,2.36,0,0,0,.57-.13,1.3,1.3,0,0,0,.64-.52,2.46,2.46,0,0,0,.31-1h.63V104Z"/><path class="cls-10" d="M122.6,95.28a2.87,2.87,0,0,1,1.32.29,2.48,2.48,0,0,1,.94.85,4.14,4.14,0,0,1,.57,1.39,8.64,8.64,0,0,1,.19,1.92,5.94,5.94,0,0,1-.77,3.35,2.82,2.82,0,0,1-4.49,0,7.62,7.62,0,0,1,0-6.69A2.56,2.56,0,0,1,122.6,95.28Zm-2.23,4.45q0,3.81,2.23,3.81t2.24-3.81a5.64,5.64,0,0,0-.57-2.84,1.84,1.84,0,0,0-1.68-1,1.82,1.82,0,0,0-1.65.94A5.63,5.63,0,0,0,120.37,99.72Z"/><path class="cls-10" d="M122.6,126.28a2.87,2.87,0,0,1,1.32.29,2.48,2.48,0,0,1,.94.85,4.14,4.14,0,0,1,.57,1.39,8.64,8.64,0,0,1,.19,1.92,5.94,5.94,0,0,1-.77,3.35,2.82,2.82,0,0,1-4.49,0,7.62,7.62,0,0,1,0-6.69A2.56,2.56,0,0,1,122.6,126.28Zm-2.23,4.45q0,3.81,2.23,3.81t2.24-3.81a5.64,5.64,0,0,0-.57-2.84,1.84,1.84,0,0,0-1.68-1,1.82,1.82,0,0,0-1.65.94A5.63,5.63,0,0,0,120.37,130.72Z"/><path class="cls-10" d="M122.6,157.28a2.87,2.87,0,0,1,1.32.29,2.48,2.48,0,0,1,.94.85,4.14,4.14,0,0,1,.57,1.39,8.64,8.64,0,0,1,.19,1.92,5.94,5.94,0,0,1-.77,3.35,2.82,2.82,0,0,1-4.49,0,7.62,7.62,0,0,1,0-6.69A2.56,2.56,0,0,1,122.6,157.28Zm-2.23,4.45q0,3.81,2.23,3.81t2.24-3.81a5.64,5.64,0,0,0-.57-2.84,1.84,1.84,0,0,0-1.68-1,1.82,1.82,0,0,0-1.65.94A5.63,5.63,0,0,0,120.37,161.72Z"/><path class="cls-9" d="M37.64,73V66.12h0L35.19,73H33.89l-2.44-6.84h0V73H30V64.45h2.19l2.36,6.67h0l2.3-6.67h2.18V73Z"/><path class="cls-9" d="M42.52,63.57V65H41.07V63.57Zm0,2.86V73H41.07V66.43Z"/><path class="cls-9" d="M47.93,66.25a3.25,3.25,0,0,1,1.1.16,1.8,1.8,0,0,1,.74.49,2,2,0,0,1,.42.81,4.28,4.28,0,0,1,.13,1.12V73H48.89V69.1a2.11,2.11,0,0,0-.32-1.27,1.19,1.19,0,0,0-1-.43,1.48,1.48,0,0,0-1.23.52,2.28,2.28,0,0,0-.41,1.45V73H44.46V66.43h1.38v1h0a2.14,2.14,0,0,1,.37-.5,2.24,2.24,0,0,1,.48-.37,2.34,2.34,0,0,1,.57-.23A2.51,2.51,0,0,1,47.93,66.25Z"/><path class="cls-9" d="M37.64,104V97.12h0L35.19,104H33.89l-2.44-6.84h0V104H30V95.45h2.19l2.36,6.67h0l2.3-6.67h2.18V104Z"/><path class="cls-9" d="M42.52,94.57V96H41.07V94.57Zm0,2.86V104H41.07V97.43Z"/><path class="cls-9" d="M47.93,97.25a3.25,3.25,0,0,1,1.1.16,1.8,1.8,0,0,1,.74.49,2,2,0,0,1,.42.81,4.28,4.28,0,0,1,.13,1.12V104H48.89v-3.9a2.11,2.11,0,0,0-.32-1.27,1.19,1.19,0,0,0-1-.43,1.48,1.48,0,0,0-1.23.52,2.28,2.28,0,0,0-.41,1.45V104H44.46V97.43h1.38v1h0a2.14,2.14,0,0,1,.37-.5,2.24,2.24,0,0,1,.48-.37,2.34,2.34,0,0,1,.57-.23A2.51,2.51,0,0,1,47.93,97.25Z"/><path class="cls-9" d="M37.64,135v-6.88h0L35.19,135H33.89l-2.44-6.84h0V135H30v-8.55h2.19l2.36,6.67h0l2.3-6.67h2.18V135Z"/><path class="cls-9" d="M47.16,135l-.44.09-.39,0a1.79,1.79,0,0,1-.42,0,.91.91,0,0,1-.34-.16.84.84,0,0,1-.24-.29,1.28,1.28,0,0,1-.12-.45h0a2.67,2.67,0,0,1-.45.46,2.3,2.3,0,0,1-.52.31,3.32,3.32,0,0,1-1.31.24,2.42,2.42,0,0,1-1.62-.51,1.77,1.77,0,0,1-.6-1.45,1.7,1.7,0,0,1,.6-1.42,2.11,2.11,0,0,1,.58-.32,4.68,4.68,0,0,1,.73-.2q.39-.08.82-.13l.87-.1.34-.07a.8.8,0,0,0,.27-.13.59.59,0,0,0,.17-.22.79.79,0,0,0,.06-.33,1,1,0,0,0-.31-.79,2.11,2.11,0,0,0-2.05,0,1,1,0,0,0-.39.73H40.91a2,2,0,0,1,.28-.9,2,2,0,0,1,.62-.62,2.88,2.88,0,0,1,.9-.36,5.08,5.08,0,0,1,1.13-.12,3.42,3.42,0,0,1,2,.5,1.65,1.65,0,0,1,.67,1.41v3.54a.47.47,0,0,0,.08.3.33.33,0,0,0,.27.1H47l.13,0Zm-2-3.35h0a1,1,0,0,1-.54.23l-.48.08-.65.11a2.2,2.2,0,0,0-1,.37.87.87,0,0,0-.32.72.89.89,0,0,0,.37.76,1.48,1.48,0,0,0,.87.24,1.79,1.79,0,0,0,1.27-.43,1.59,1.59,0,0,0,.49-1.24Z"/><path class="cls-9" d="M49.58,128.43l1.41,2,1.39-2H54l-2.23,3.11L54.27,135H52.58L51,132.68,49.36,135H47.7l2.43-3.44-2.23-3.13Z"/><path class="cls-9" d="M37.64,166v-6.88h0L35.19,166H33.89l-2.44-6.84h0V166H30v-8.55h2.19l2.36,6.67h0l2.3-6.67h2.18V166Z"/><path class="cls-9" d="M47.16,166l-.44.09-.39,0a1.79,1.79,0,0,1-.42,0,.91.91,0,0,1-.34-.16.84.84,0,0,1-.24-.29,1.28,1.28,0,0,1-.12-.45h0a2.67,2.67,0,0,1-.45.46,2.3,2.3,0,0,1-.52.31,3.32,3.32,0,0,1-1.31.24,2.42,2.42,0,0,1-1.62-.51,1.77,1.77,0,0,1-.6-1.45,1.7,1.7,0,0,1,.6-1.42,2.11,2.11,0,0,1,.58-.32,4.68,4.68,0,0,1,.73-.2q.39-.08.82-.13l.87-.1.34-.07a.8.8,0,0,0,.27-.13.59.59,0,0,0,.17-.22.79.79,0,0,0,.06-.33,1,1,0,0,0-.31-.79,2.11,2.11,0,0,0-2.05,0,1,1,0,0,0-.39.73H40.91a2,2,0,0,1,.28-.9,2,2,0,0,1,.62-.62,2.88,2.88,0,0,1,.9-.36,5.08,5.08,0,0,1,1.13-.12,3.42,3.42,0,0,1,2,.5,1.65,1.65,0,0,1,.67,1.41v3.54a.47.47,0,0,0,.08.3.33.33,0,0,0,.27.1H47l.13,0Zm-2-3.35h0a1,1,0,0,1-.54.23l-.48.08-.65.11a2.2,2.2,0,0,0-1,.37.87.87,0,0,0-.32.72.89.89,0,0,0,.37.76,1.48,1.48,0,0,0,.87.24,1.79,1.79,0,0,0,1.27-.43,1.59,1.59,0,0,0,.49-1.24Z"/><path class="cls-9" d="M49.58,159.43l1.41,2,1.39-2H54l-2.23,3.11L54.27,166H52.58L51,163.68,49.36,166H47.7l2.43-3.44-2.23-3.13Z"/><rect class="cls-7" x="132.5" y="145.5" width="43" height="31"/><path class="cls-8" d="M175,146v30H133V146h42m1-1H132v32h44V145Z"/><rect class="cls-7" x="132.5" y="114.5" width="43" height="31"/><path class="cls-8" d="M175,115v30H133V115h42m1-1H132v32h44V114Z"/><rect class="cls-7" x="132.5" y="83.5" width="43" height="31"/><path class="cls-8" d="M175,84v30H133V84h42m1-1H132v32h44V83Z"/><rect class="cls-7" x="132.5" y="52.5" width="43" height="31"/><path class="cls-8" d="M175,53V83H133V53h42m1-1H132V84h44V52Z"/><rect class="cls-7" x="175.5" y="145.5" width="43" height="31"/><path class="cls-8" d="M218,146v30H176V146h42m1-1H175v32h44V145Z"/><rect class="cls-7" x="175.5" y="114.5" width="43" height="31"/><path class="cls-8" d="M218,115v30H176V115h42m1-1H175v32h44V114Z"/><rect class="cls-7" x="175.5" y="83.5" width="43" height="31"/><path class="cls-8" d="M218,84v30H176V84h42m1-1H175v32h44V83Z"/><rect class="cls-7" x="175.5" y="52.5" width="43" height="31"/><path class="cls-8" d="M218,53V83H176V53h42m1-1H175V84h44V52Z"/><path class="cls-10" d="M197.47,69.16v.7h-3v-.7Z"/><path class="cls-10" d="M201.58,64.28a2.81,2.81,0,0,1,2,.66,2.28,2.28,0,0,1,.73,1.78,2.82,2.82,0,0,1-.55,1.66,7,7,0,0,1-2,1.66,8.29,8.29,0,0,0-1.66,1.23,2,2,0,0,0-.56,1h4.81V73h-5.7a3,3,0,0,1,.56-1.74,6.61,6.61,0,0,1,1.93-1.66A8.78,8.78,0,0,0,203,68.11a2.11,2.11,0,0,0,.51-1.41,1.64,1.64,0,0,0-.54-1.28,2,2,0,0,0-1.4-.49,2,2,0,0,0-.86.17,1.82,1.82,0,0,0-.61.44,1.77,1.77,0,0,0-.36.62,2.2,2.2,0,0,0-.12.71V67h-.77v-.12a2.93,2.93,0,0,1,.17-1,2.42,2.42,0,0,1,.51-.84,2.47,2.47,0,0,1,.86-.59A3.06,3.06,0,0,1,201.58,64.28Z"/><path class="cls-10" d="M208.6,64.28a2.87,2.87,0,0,1,1.32.29,2.48,2.48,0,0,1,.94.85,4.14,4.14,0,0,1,.57,1.39,8.64,8.64,0,0,1,.19,1.92,5.94,5.94,0,0,1-.77,3.35,2.82,2.82,0,0,1-4.49,0,5.89,5.89,0,0,1-.77-3.34,5.89,5.89,0,0,1,.77-3.35A2.56,2.56,0,0,1,208.6,64.28Zm-2.23,4.45q0,3.81,2.23,3.81t2.24-3.81a5.64,5.64,0,0,0-.57-2.84,1.84,1.84,0,0,0-1.68-1,1.82,1.82,0,0,0-1.65.94A5.63,5.63,0,0,0,206.37,68.72Z"/><path class="cls-10" d="M201.65,104V97.57h-2.29V97q.53,0,.9-.06a2.36,2.36,0,0,0,.57-.13,1.3,1.3,0,0,0,.64-.52,2.46,2.46,0,0,0,.31-1h.63V104Z"/><path class="cls-10" d="M208.6,95.28a2.87,2.87,0,0,1,1.32.29,2.48,2.48,0,0,1,.94.85,4.14,4.14,0,0,1,.57,1.39,8.64,8.64,0,0,1,.19,1.92,5.94,5.94,0,0,1-.77,3.35,2.82,2.82,0,0,1-4.49,0,7.62,7.62,0,0,1,0-6.69A2.56,2.56,0,0,1,208.6,95.28Zm-2.23,4.45q0,3.81,2.23,3.81t2.24-3.81a5.64,5.64,0,0,0-.57-2.84,1.84,1.84,0,0,0-1.68-1,1.82,1.82,0,0,0-1.65.94A5.63,5.63,0,0,0,206.37,99.72Z"/><path class="cls-10" d="M208.6,126.28a2.87,2.87,0,0,1,1.32.29,2.48,2.48,0,0,1,.94.85,4.14,4.14,0,0,1,.57,1.39,8.64,8.64,0,0,1,.19,1.92,5.94,5.94,0,0,1-.77,3.35,2.82,2.82,0,0,1-4.49,0,7.62,7.62,0,0,1,0-6.69A2.56,2.56,0,0,1,208.6,126.28Zm-2.23,4.45q0,3.81,2.23,3.81t2.24-3.81a5.64,5.64,0,0,0-.57-2.84,1.84,1.84,0,0,0-1.68-1,1.82,1.82,0,0,0-1.65.94A5.63,5.63,0,0,0,206.37,130.72Z"/><path class="cls-10" d="M208.6,157.28a2.87,2.87,0,0,1,1.32.29,2.48,2.48,0,0,1,.94.85,4.14,4.14,0,0,1,.57,1.39,8.64,8.64,0,0,1,.19,1.92,5.94,5.94,0,0,1-.77,3.35,2.82,2.82,0,0,1-4.49,0,7.62,7.62,0,0,1,0-6.69A2.56,2.56,0,0,1,208.6,157.28Zm-2.23,4.45q0,3.81,2.23,3.81t2.24-3.81a5.64,5.64,0,0,0-.57-2.84,1.84,1.84,0,0,0-1.68-1,1.82,1.82,0,0,0-1.65.94A5.63,5.63,0,0,0,206.37,161.72Z"/><rect class="cls-7" x="304.5" y="145.5" width="43" height="31"/><path class="cls-8" d="M347,146v30H305V146h42m1-1H304v32h44V145Z"/><rect class="cls-7" x="304.5" y="114.5" width="43" height="31"/><path class="cls-8" d="M347,115v30H305V115h42m1-1H304v32h44V114Z"/><rect class="cls-7" x="304.5" y="83.5" width="43" height="31"/><path class="cls-8" d="M347,84v30H305V84h42m1-1H304v32h44V83Z"/><rect class="cls-7" x="304.5" y="52.5" width="43" height="31"/><path class="cls-8" d="M347,53V83H305V53h42m1-1H304V84h44V52Z"/><rect class="cls-7" x="347.5" y="145.5" width="43" height="31"/><path class="cls-8" d="M390,146v30H348V146h42m1-1H347v32h44V145Z"/><rect class="cls-7" x="347.5" y="114.5" width="43" height="31"/><path class="cls-8" d="M390,115v30H348V115h42m1-1H347v32h44V114Z"/><rect class="cls-7" x="347.5" y="52.5" width="43" height="31"/><path class="cls-8" d="M390,53V83H348V53h42m1-1H347V84h44V52Z"/><rect class="cls-7" x="390.5" y="145.5" width="43" height="31"/><path class="cls-8" d="M433,146v30H391V146h42m1-1H390v32h44V145Z"/><rect class="cls-7" x="390.5" y="114.5" width="43" height="31"/><path class="cls-8" d="M433,115v30H391V115h42m1-1H390v32h44V114Z"/><rect class="cls-7" x="390.5" y="52.5" width="43" height="31"/><path class="cls-8" d="M433,53V83H391V53h42m1-1H390V84h44V52Z"/><rect class="cls-7" x="347.5" y="83.5" width="43" height="31"/><path class="cls-8" d="M390,84v30H348V84h42m1-1H347v32h44V83Z"/><rect class="cls-7" x="390.5" y="83.5" width="43" height="31"/><path class="cls-8" d="M433,84v30H391V84h42m1-1H390v32h44V83Z"/><path class="cls-10" d="M412.47,69.16v.7h-3v-.7Z"/><path class="cls-10" d="M416.58,64.28a2.81,2.81,0,0,1,2,.66,2.28,2.28,0,0,1,.73,1.78,2.82,2.82,0,0,1-.55,1.66,7,7,0,0,1-2,1.66,8.29,8.29,0,0,0-1.66,1.23,2,2,0,0,0-.56,1h4.81V73h-5.7a3,3,0,0,1,.56-1.74,6.61,6.61,0,0,1,1.93-1.66A8.78,8.78,0,0,0,418,68.11a2.11,2.11,0,0,0,.51-1.41,1.64,1.64,0,0,0-.54-1.28,2,2,0,0,0-1.4-.49,2,2,0,0,0-.86.17,1.82,1.82,0,0,0-.61.44,1.77,1.77,0,0,0-.36.62,2.2,2.2,0,0,0-.12.71V67h-.77v-.12a2.93,2.93,0,0,1,.17-1,2.42,2.42,0,0,1,.51-.84,2.47,2.47,0,0,1,.86-.59A3.06,3.06,0,0,1,416.58,64.28Z"/><path class="cls-10" d="M423.6,64.28a2.87,2.87,0,0,1,1.32.29,2.48,2.48,0,0,1,.94.85,4.14,4.14,0,0,1,.57,1.39,8.64,8.64,0,0,1,.19,1.92,5.94,5.94,0,0,1-.77,3.35,2.82,2.82,0,0,1-4.49,0,5.89,5.89,0,0,1-.77-3.34,5.89,5.89,0,0,1,.77-3.35A2.56,2.56,0,0,1,423.6,64.28Zm-2.23,4.45q0,3.81,2.23,3.81t2.24-3.81a5.64,5.64,0,0,0-.57-2.84,1.84,1.84,0,0,0-1.68-1,1.82,1.82,0,0,0-1.65.94A5.63,5.63,0,0,0,421.37,68.72Z"/><path class="cls-10" d="M425.27,101.85V104h-.71v-2.15h-4v-.75l4-5.75h.7v5.85h1.3v.66Zm-.71-5.36h0l-3.27,4.71h3.29Z"/><path class="cls-10" d="M423.6,126.28a2.87,2.87,0,0,1,1.32.29,2.48,2.48,0,0,1,.94.85,4.14,4.14,0,0,1,.57,1.39,8.64,8.64,0,0,1,.19,1.92,5.94,5.94,0,0,1-.77,3.35,2.82,2.82,0,0,1-4.49,0,7.62,7.62,0,0,1,0-6.69A2.56,2.56,0,0,1,423.6,126.28Zm-2.23,4.45q0,3.81,2.23,3.81t2.24-3.81a5.64,5.64,0,0,0-.57-2.84,1.84,1.84,0,0,0-1.68-1,1.82,1.82,0,0,0-1.65.94A5.63,5.63,0,0,0,421.37,130.72Z"/><path class="cls-10" d="M423.6,157.28a2.87,2.87,0,0,1,1.32.29,2.48,2.48,0,0,1,.94.85,4.14,4.14,0,0,1,.57,1.39,8.64,8.64,0,0,1,.19,1.92,5.94,5.94,0,0,1-.77,3.35,2.82,2.82,0,0,1-4.49,0,7.62,7.62,0,0,1,0-6.69A2.56,2.56,0,0,1,423.6,157.28Zm-2.23,4.45q0,3.81,2.23,3.81t2.24-3.81a5.64,5.64,0,0,0-.57-2.84,1.84,1.84,0,0,0-1.68-1,1.82,1.82,0,0,0-1.65.94A5.63,5.63,0,0,0,421.37,161.72Z"/><rect class="cls-7" x="433.5" y="145.5" width="43" height="31"/><path class="cls-8" d="M476,146v30H434V146h42m1-1H433v32h44V145Z"/><rect class="cls-7" x="433.5" y="114.5" width="43" height="31"/><path class="cls-8" d="M476,115v30H434V115h42m1-1H433v32h44V114Z"/><rect class="cls-7" x="433.5" y="83.5" width="43" height="31"/><path class="cls-8" d="M476,84v30H434V84h42m1-1H433v32h44V83Z"/><rect class="cls-7" x="433.5" y="52.5" width="43" height="31"/><path class="cls-8" d="M476,53V83H434V53h42m1-1H433V84h44V52Z"/><rect class="cls-7" x="476.5" y="145.5" width="43" height="31"/><path class="cls-8" d="M519,146v30H477V146h42m1-1H476v32h44V145Z"/><rect class="cls-7" x="476.5" y="114.5" width="43" height="31"/><path class="cls-8" d="M519,115v30H477V115h42m1-1H476v32h44V114Z"/><rect class="cls-7" x="476.5" y="83.5" width="43" height="31"/><path class="cls-8" d="M519,84v30H477V84h42m1-1H476v32h44V83Z"/><rect class="cls-7" x="476.5" y="52.5" width="43" height="31"/><path class="cls-8" d="M519,53V83H477V53h42m1-1H476V84h44V52Z"/><path class="cls-10" d="M498.47,69.16v.7h-3v-.7Z"/><path class="cls-10" d="M502.58,64.28a2.81,2.81,0,0,1,2,.66,2.28,2.28,0,0,1,.73,1.78,2.82,2.82,0,0,1-.55,1.66,7,7,0,0,1-2,1.66,8.29,8.29,0,0,0-1.66,1.23,2,2,0,0,0-.56,1h4.81V73h-5.7a3,3,0,0,1,.56-1.74,6.61,6.61,0,0,1,1.93-1.66A8.78,8.78,0,0,0,504,68.11a2.11,2.11,0,0,0,.51-1.41,1.64,1.64,0,0,0-.54-1.28,2,2,0,0,0-1.4-.49,2,2,0,0,0-.86.17,1.82,1.82,0,0,0-.61.44,1.77,1.77,0,0,0-.36.62,2.2,2.2,0,0,0-.12.71V67h-.77v-.12a2.93,2.93,0,0,1,.17-1,2.42,2.42,0,0,1,.51-.84,2.47,2.47,0,0,1,.86-.59A3.06,3.06,0,0,1,502.58,64.28Z"/><path class="cls-10" d="M509.6,64.28a2.87,2.87,0,0,1,1.32.29,2.48,2.48,0,0,1,.94.85,4.14,4.14,0,0,1,.57,1.39,8.64,8.64,0,0,1,.19,1.92,5.94,5.94,0,0,1-.77,3.35,2.82,2.82,0,0,1-4.49,0,5.89,5.89,0,0,1-.77-3.34,5.89,5.89,0,0,1,.77-3.35A2.56,2.56,0,0,1,509.6,64.28Zm-2.23,4.45q0,3.81,2.23,3.81t2.24-3.81a5.64,5.64,0,0,0-.57-2.84,1.84,1.84,0,0,0-1.68-1,1.82,1.82,0,0,0-1.65.94A5.63,5.63,0,0,0,507.37,68.72Z"/><path class="cls-10" d="M511.27,101.85V104h-.71v-2.15h-4v-.75l4-5.75h.7v5.85h1.3v.66Zm-.71-5.36h0l-3.27,4.71h3.29Z"/><path class="cls-10" d="M509.6,126.28a2.87,2.87,0,0,1,1.32.29,2.48,2.48,0,0,1,.94.85,4.14,4.14,0,0,1,.57,1.39,8.64,8.64,0,0,1,.19,1.92,5.94,5.94,0,0,1-.77,3.35,2.82,2.82,0,0,1-4.49,0,7.62,7.62,0,0,1,0-6.69A2.56,2.56,0,0,1,509.6,126.28Zm-2.23,4.45q0,3.81,2.23,3.81t2.24-3.81a5.64,5.64,0,0,0-.57-2.84,1.84,1.84,0,0,0-1.68-1,1.82,1.82,0,0,0-1.65.94A5.63,5.63,0,0,0,507.37,130.72Z"/><path class="cls-10" d="M509.6,157.28a2.87,2.87,0,0,1,1.32.29,2.48,2.48,0,0,1,.94.85,4.14,4.14,0,0,1,.57,1.39,8.64,8.64,0,0,1,.19,1.92,5.94,5.94,0,0,1-.77,3.35,2.82,2.82,0,0,1-4.49,0,7.62,7.62,0,0,1,0-6.69A2.56,2.56,0,0,1,509.6,157.28Zm-2.23,4.45q0,3.81,2.23,3.81t2.24-3.81a5.64,5.64,0,0,0-.57-2.84,1.84,1.84,0,0,0-1.68-1,1.82,1.82,0,0,0-1.65.94A5.63,5.63,0,0,0,507.37,161.72Z"/><rect class="cls-7" x="605.5" y="145.5" width="43" height="31"/><path class="cls-8" d="M648,146v30H606V146h42m1-1H605v32h44V145Z"/><rect class="cls-7" x="605.5" y="114.5" width="43" height="31"/><path class="cls-8" d="M648,115v30H606V115h42m1-1H605v32h44V114Z"/><rect class="cls-7" x="605.5" y="83.5" width="43" height="31"/><path class="cls-8" d="M648,84v30H606V84h42m1-1H605v32h44V83Z"/><rect class="cls-7" x="605.5" y="52.5" width="43" height="31"/><path class="cls-8" d="M648,53V83H606V53h42m1-1H605V84h44V52Z"/><rect class="cls-7" x="648.5" y="145.5" width="43" height="31"/><path class="cls-8" d="M691,146v30H649V146h42m1-1H648v32h44V145Z"/><rect class="cls-7" x="648.5" y="114.5" width="43" height="31"/><path class="cls-8" d="M691,115v30H649V115h42m1-1H648v32h44V114Z"/><rect class="cls-7" x="648.5" y="83.5" width="43" height="31"/><path class="cls-8" d="M691,84v30H649V84h42m1-1H648v32h44V83Z"/><rect class="cls-7" x="648.5" y="52.5" width="43" height="31"/><path class="cls-8" d="M691,53V83H649V53h42m1-1H648V84h44V52Z"/><path class="cls-10" d="M369.47,69.16v.7h-3v-.7Z"/><path class="cls-10" d="M373.58,64.28a2.81,2.81,0,0,1,2,.66,2.28,2.28,0,0,1,.73,1.78,2.82,2.82,0,0,1-.55,1.66,7,7,0,0,1-2,1.66,8.29,8.29,0,0,0-1.66,1.23,2,2,0,0,0-.56,1h4.81V73h-5.7a3,3,0,0,1,.56-1.74,6.61,6.61,0,0,1,1.93-1.66A8.78,8.78,0,0,0,375,68.11a2.11,2.11,0,0,0,.51-1.41,1.64,1.64,0,0,0-.54-1.28,2,2,0,0,0-1.4-.49,2,2,0,0,0-.86.17,1.82,1.82,0,0,0-.61.44,1.77,1.77,0,0,0-.36.62,2.2,2.2,0,0,0-.12.71V67h-.77v-.12a2.93,2.93,0,0,1,.17-1,2.42,2.42,0,0,1,.51-.84,2.47,2.47,0,0,1,.86-.59A3.06,3.06,0,0,1,373.58,64.28Z"/><path class="cls-10" d="M380.6,64.28a2.87,2.87,0,0,1,1.32.29,2.48,2.48,0,0,1,.94.85,4.14,4.14,0,0,1,.57,1.39,8.64,8.64,0,0,1,.19,1.92,5.94,5.94,0,0,1-.77,3.35,2.82,2.82,0,0,1-4.49,0,5.89,5.89,0,0,1-.77-3.34,5.89,5.89,0,0,1,.77-3.35A2.56,2.56,0,0,1,380.6,64.28Zm-2.23,4.45q0,3.81,2.23,3.81t2.24-3.81a5.64,5.64,0,0,0-.57-2.84,1.84,1.84,0,0,0-1.68-1,1.82,1.82,0,0,0-1.65.94A5.63,5.63,0,0,0,378.37,68.72Z"/><path class="cls-10" d="M376.49,100.16v.7h-3v-.7Z"/><path class="cls-10" d="M383,95.45v.72h-3.78l-.54,2.78,0,0a2.32,2.32,0,0,1,.82-.52,2.79,2.79,0,0,1,1-.18,3.18,3.18,0,0,1,1.2.22,2.6,2.6,0,0,1,.92.61,2.73,2.73,0,0,1,.59.94,3.43,3.43,0,0,1,.21,1.22,2.81,2.81,0,0,1-.23,1.14,2.94,2.94,0,0,1-1.61,1.56,3.12,3.12,0,0,1-1.2.23,3.29,3.29,0,0,1-1.1-.17,2.59,2.59,0,0,1-.85-.48,2.26,2.26,0,0,1-.56-.74,2.52,2.52,0,0,1-.23-1h.79a1.84,1.84,0,0,0,.16.64,1.65,1.65,0,0,0,.4.54,2,2,0,0,0,.62.37,2.29,2.29,0,0,0,.83.14,2.06,2.06,0,0,0,.87-.18,2.14,2.14,0,0,0,.7-.5,2.4,2.4,0,0,0,.46-.75,2.49,2.49,0,0,0,.17-.92,2.41,2.41,0,0,0-.16-.86,2.12,2.12,0,0,0-1.14-1.2,2.2,2.2,0,0,0-.91-.18,2.55,2.55,0,0,0-1.07.23,2.22,2.22,0,0,0-.85.68h-.66l.81-4.38Z"/><path class="cls-10" d="M380.6,126.28a2.87,2.87,0,0,1,1.32.29,2.48,2.48,0,0,1,.94.85,4.14,4.14,0,0,1,.57,1.39,8.64,8.64,0,0,1,.19,1.92,5.94,5.94,0,0,1-.77,3.35,2.82,2.82,0,0,1-4.49,0,7.62,7.62,0,0,1,0-6.69A2.56,2.56,0,0,1,380.6,126.28Zm-2.23,4.45q0,3.81,2.23,3.81t2.24-3.81a5.64,5.64,0,0,0-.57-2.84,1.84,1.84,0,0,0-1.68-1,1.82,1.82,0,0,0-1.65.94A5.63,5.63,0,0,0,378.37,130.72Z"/><path class="cls-10" d="M380.6,157.28a2.87,2.87,0,0,1,1.32.29,2.48,2.48,0,0,1,.94.85,4.14,4.14,0,0,1,.57,1.39,8.64,8.64,0,0,1,.19,1.92,5.94,5.94,0,0,1-.77,3.35,2.82,2.82,0,0,1-4.49,0,7.62,7.62,0,0,1,0-6.69A2.56,2.56,0,0,1,380.6,157.28Zm-2.23,4.45q0,3.81,2.23,3.81t2.24-3.81a5.64,5.64,0,0,0-.57-2.84,1.84,1.84,0,0,0-1.68-1,1.82,1.82,0,0,0-1.65.94A5.63,5.63,0,0,0,378.37,161.72Z"/><path class="cls-10" d="M455.47,69.16v.7h-3v-.7Z"/><path class="cls-10" d="M459.58,64.28a2.81,2.81,0,0,1,2,.66,2.28,2.28,0,0,1,.73,1.78,2.82,2.82,0,0,1-.55,1.66,7,7,0,0,1-2,1.66,8.29,8.29,0,0,0-1.66,1.23,2,2,0,0,0-.56,1h4.81V73h-5.7a3,3,0,0,1,.56-1.74,6.61,6.61,0,0,1,1.93-1.66A8.78,8.78,0,0,0,461,68.11a2.11,2.11,0,0,0,.51-1.41,1.64,1.64,0,0,0-.54-1.28,2,2,0,0,0-1.4-.49,2,2,0,0,0-.86.17,1.82,1.82,0,0,0-.61.44,1.77,1.77,0,0,0-.36.62,2.2,2.2,0,0,0-.12.71V67h-.77v-.12a2.93,2.93,0,0,1,.17-1,2.42,2.42,0,0,1,.51-.84,2.47,2.47,0,0,1,.86-.59A3.06,3.06,0,0,1,459.58,64.28Z"/><path class="cls-10" d="M466.6,64.28a2.87,2.87,0,0,1,1.32.29,2.48,2.48,0,0,1,.94.85,4.14,4.14,0,0,1,.57,1.39,8.64,8.64,0,0,1,.19,1.92,5.94,5.94,0,0,1-.77,3.35,2.82,2.82,0,0,1-4.49,0,5.89,5.89,0,0,1-.77-3.34,5.89,5.89,0,0,1,.77-3.35A2.56,2.56,0,0,1,466.6,64.28Zm-2.23,4.45q0,3.81,2.23,3.81t2.24-3.81a5.64,5.64,0,0,0-.57-2.84,1.84,1.84,0,0,0-1.68-1,1.82,1.82,0,0,0-1.65.94A5.63,5.63,0,0,0,464.37,68.72Z"/><path class="cls-10" d="M468.27,101.85V104h-.71v-2.15h-4v-.75l4-5.75h.7v5.85h1.3v.66Zm-.71-5.36h0l-3.27,4.71h3.29Z"/><path class="cls-10" d="M466.6,126.28a2.87,2.87,0,0,1,1.32.29,2.48,2.48,0,0,1,.94.85,4.14,4.14,0,0,1,.57,1.39,8.64,8.64,0,0,1,.19,1.92,5.94,5.94,0,0,1-.77,3.35,2.82,2.82,0,0,1-4.49,0,7.62,7.62,0,0,1,0-6.69A2.56,2.56,0,0,1,466.6,126.28Zm-2.23,4.45q0,3.81,2.23,3.81t2.24-3.81a5.64,5.64,0,0,0-.57-2.84,1.84,1.84,0,0,0-1.68-1,1.82,1.82,0,0,0-1.65.94A5.63,5.63,0,0,0,464.37,130.72Z"/><path class="cls-10" d="M466.6,157.28a2.87,2.87,0,0,1,1.32.29,2.48,2.48,0,0,1,.94.85,4.14,4.14,0,0,1,.57,1.39,8.64,8.64,0,0,1,.19,1.92,5.94,5.94,0,0,1-.77,3.35,2.82,2.82,0,0,1-4.49,0,7.62,7.62,0,0,1,0-6.69A2.56,2.56,0,0,1,466.6,157.28Zm-2.23,4.45q0,3.81,2.23,3.81t2.24-3.81a5.64,5.64,0,0,0-.57-2.84,1.84,1.84,0,0,0-1.68-1,1.82,1.82,0,0,0-1.65.94A5.63,5.63,0,0,0,464.37,161.72Z"/><path class="cls-10" d="M326.47,69.16v.7h-3v-.7Z"/><path class="cls-10" d="M330.58,64.28a2.81,2.81,0,0,1,2,.66,2.28,2.28,0,0,1,.73,1.78,2.82,2.82,0,0,1-.55,1.66,7,7,0,0,1-2,1.66,8.29,8.29,0,0,0-1.66,1.23,2,2,0,0,0-.56,1h4.81V73h-5.7a3,3,0,0,1,.56-1.74,6.61,6.61,0,0,1,1.93-1.66A8.78,8.78,0,0,0,332,68.11a2.11,2.11,0,0,0,.51-1.41,1.64,1.64,0,0,0-.54-1.28,2,2,0,0,0-1.4-.49,2,2,0,0,0-.86.17,1.82,1.82,0,0,0-.61.44,1.77,1.77,0,0,0-.36.62,2.2,2.2,0,0,0-.12.71V67h-.77v-.12a2.93,2.93,0,0,1,.17-1,2.42,2.42,0,0,1,.51-.84,2.47,2.47,0,0,1,.86-.59A3.06,3.06,0,0,1,330.58,64.28Z"/><path class="cls-10" d="M337.6,64.28a2.87,2.87,0,0,1,1.32.29,2.48,2.48,0,0,1,.94.85,4.14,4.14,0,0,1,.57,1.39,8.64,8.64,0,0,1,.19,1.92,5.94,5.94,0,0,1-.77,3.35,2.82,2.82,0,0,1-4.49,0,5.89,5.89,0,0,1-.77-3.34,5.89,5.89,0,0,1,.77-3.35A2.56,2.56,0,0,1,337.6,64.28Zm-2.23,4.45q0,3.81,2.23,3.81t2.24-3.81a5.64,5.64,0,0,0-.57-2.84,1.84,1.84,0,0,0-1.68-1,1.82,1.82,0,0,0-1.65.94A5.63,5.63,0,0,0,335.37,68.72Z"/><path class="cls-10" d="M330.65,104V97.57h-2.29V97q.53,0,.9-.06a2.36,2.36,0,0,0,.57-.13,1.3,1.3,0,0,0,.64-.52,2.46,2.46,0,0,0,.31-1h.63V104Z"/><path class="cls-10" d="M337.6,95.28a2.87,2.87,0,0,1,1.32.29,2.48,2.48,0,0,1,.94.85,4.14,4.14,0,0,1,.57,1.39,8.64,8.64,0,0,1,.19,1.92,5.94,5.94,0,0,1-.77,3.35,2.82,2.82,0,0,1-4.49,0,7.62,7.62,0,0,1,0-6.69A2.56,2.56,0,0,1,337.6,95.28Zm-2.23,4.45q0,3.81,2.23,3.81t2.24-3.81a5.64,5.64,0,0,0-.57-2.84,1.84,1.84,0,0,0-1.68-1,1.82,1.82,0,0,0-1.65.94A5.63,5.63,0,0,0,335.37,99.72Z"/><path class="cls-10" d="M337.6,126.28a2.87,2.87,0,0,1,1.32.29,2.48,2.48,0,0,1,.94.85,4.14,4.14,0,0,1,.57,1.39,8.64,8.64,0,0,1,.19,1.92,5.94,5.94,0,0,1-.77,3.35,2.82,2.82,0,0,1-4.49,0,7.62,7.62,0,0,1,0-6.69A2.56,2.56,0,0,1,337.6,126.28Zm-2.23,4.45q0,3.81,2.23,3.81t2.24-3.81a5.64,5.64,0,0,0-.57-2.84,1.84,1.84,0,0,0-1.68-1,1.82,1.82,0,0,0-1.65.94A5.63,5.63,0,0,0,335.37,130.72Z"/><path class="cls-10" d="M337.6,157.28a2.87,2.87,0,0,1,1.32.29,2.48,2.48,0,0,1,.94.85,4.14,4.14,0,0,1,.57,1.39,8.64,8.64,0,0,1,.19,1.92,5.94,5.94,0,0,1-.77,3.35,2.82,2.82,0,0,1-4.49,0,7.62,7.62,0,0,1,0-6.69A2.56,2.56,0,0,1,337.6,157.28Zm-2.23,4.45q0,3.81,2.23,3.81t2.24-3.81a5.64,5.64,0,0,0-.57-2.84,1.84,1.84,0,0,0-1.68-1,1.82,1.82,0,0,0-1.65.94A5.63,5.63,0,0,0,335.37,161.72Z"/><path class="cls-10" d="M627.47,69.16v.7h-3v-.7Z"/><path class="cls-10" d="M631.58,64.28a2.81,2.81,0,0,1,2,.66,2.28,2.28,0,0,1,.73,1.78,2.82,2.82,0,0,1-.55,1.66,7,7,0,0,1-2,1.66,8.29,8.29,0,0,0-1.66,1.23,2,2,0,0,0-.56,1h4.81V73h-5.7a3,3,0,0,1,.56-1.74,6.61,6.61,0,0,1,1.93-1.66A8.78,8.78,0,0,0,633,68.11a2.11,2.11,0,0,0,.51-1.41,1.64,1.64,0,0,0-.54-1.28,2,2,0,0,0-1.4-.49,2,2,0,0,0-.86.17,1.82,1.82,0,0,0-.61.44,1.77,1.77,0,0,0-.36.62,2.2,2.2,0,0,0-.12.71V67h-.77v-.12a2.93,2.93,0,0,1,.17-1,2.42,2.42,0,0,1,.51-.84,2.47,2.47,0,0,1,.86-.59A3.06,3.06,0,0,1,631.58,64.28Z"/><path class="cls-10" d="M638.6,64.28a2.87,2.87,0,0,1,1.32.29,2.48,2.48,0,0,1,.94.85,4.14,4.14,0,0,1,.57,1.39,8.64,8.64,0,0,1,.19,1.92,5.94,5.94,0,0,1-.77,3.35,2.82,2.82,0,0,1-4.49,0,5.89,5.89,0,0,1-.77-3.34,5.89,5.89,0,0,1,.77-3.35A2.56,2.56,0,0,1,638.6,64.28Zm-2.23,4.45q0,3.81,2.23,3.81t2.24-3.81a5.64,5.64,0,0,0-.57-2.84,1.84,1.84,0,0,0-1.68-1,1.82,1.82,0,0,0-1.65.94A5.63,5.63,0,0,0,636.37,68.72Z"/><path class="cls-10" d="M640.27,101.85V104h-.71v-2.15h-4v-.75l4-5.75h.7v5.85h1.3v.66Zm-.71-5.36h0l-3.27,4.71h3.29Z"/><path class="cls-10" d="M638.6,126.28a2.87,2.87,0,0,1,1.32.29,2.48,2.48,0,0,1,.94.85,4.14,4.14,0,0,1,.57,1.39,8.64,8.64,0,0,1,.19,1.92,5.94,5.94,0,0,1-.77,3.35,2.82,2.82,0,0,1-4.49,0,7.62,7.62,0,0,1,0-6.69A2.56,2.56,0,0,1,638.6,126.28Zm-2.23,4.45q0,3.81,2.23,3.81t2.24-3.81a5.64,5.64,0,0,0-.57-2.84,1.84,1.84,0,0,0-1.68-1,1.82,1.82,0,0,0-1.65.94A5.63,5.63,0,0,0,636.37,130.72Z"/><path class="cls-10" d="M638.6,157.28a2.87,2.87,0,0,1,1.32.29,2.48,2.48,0,0,1,.94.85,4.14,4.14,0,0,1,.57,1.39,8.64,8.64,0,0,1,.19,1.92,5.94,5.94,0,0,1-.77,3.35,2.82,2.82,0,0,1-4.49,0,7.62,7.62,0,0,1,0-6.69A2.56,2.56,0,0,1,638.6,157.28Zm-2.23,4.45q0,3.81,2.23,3.81t2.24-3.81a5.64,5.64,0,0,0-.57-2.84,1.84,1.84,0,0,0-1.68-1,1.82,1.82,0,0,0-1.65.94A5.63,5.63,0,0,0,636.37,161.72Z"/><path class="cls-10" d="M154.47,69.16v.7h-3v-.7Z"/><path class="cls-10" d="M158.58,64.28a2.81,2.81,0,0,1,2,.66,2.28,2.28,0,0,1,.73,1.78,2.82,2.82,0,0,1-.55,1.66,7,7,0,0,1-2,1.66,8.29,8.29,0,0,0-1.66,1.23,2,2,0,0,0-.56,1h4.81V73h-5.7a3,3,0,0,1,.56-1.74,6.61,6.61,0,0,1,1.93-1.66A8.78,8.78,0,0,0,160,68.11a2.11,2.11,0,0,0,.51-1.41,1.64,1.64,0,0,0-.54-1.28,2,2,0,0,0-1.4-.49,2,2,0,0,0-.86.17,1.82,1.82,0,0,0-.61.44,1.77,1.77,0,0,0-.36.62,2.2,2.2,0,0,0-.12.71V67h-.77v-.12a2.93,2.93,0,0,1,.17-1,2.42,2.42,0,0,1,.51-.84,2.47,2.47,0,0,1,.86-.59A3.06,3.06,0,0,1,158.58,64.28Z"/><path class="cls-10" d="M165.6,64.28a2.87,2.87,0,0,1,1.32.29,2.48,2.48,0,0,1,.94.85,4.14,4.14,0,0,1,.57,1.39,8.64,8.64,0,0,1,.19,1.92,5.94,5.94,0,0,1-.77,3.35,2.82,2.82,0,0,1-4.49,0,5.89,5.89,0,0,1-.77-3.34,5.89,5.89,0,0,1,.77-3.35A2.56,2.56,0,0,1,165.6,64.28Zm-2.23,4.45q0,3.81,2.23,3.81t2.24-3.81a5.64,5.64,0,0,0-.57-2.84,1.84,1.84,0,0,0-1.68-1,1.82,1.82,0,0,0-1.65.94A5.63,5.63,0,0,0,163.37,68.72Z"/><path class="cls-10" d="M158.65,104V97.57h-2.29V97q.53,0,.9-.06a2.36,2.36,0,0,0,.57-.13,1.3,1.3,0,0,0,.64-.52,2.46,2.46,0,0,0,.31-1h.63V104Z"/><path class="cls-10" d="M165.6,95.28a2.87,2.87,0,0,1,1.32.29,2.48,2.48,0,0,1,.94.85,4.14,4.14,0,0,1,.57,1.39,8.64,8.64,0,0,1,.19,1.92,5.94,5.94,0,0,1-.77,3.35,2.82,2.82,0,0,1-4.49,0,7.62,7.62,0,0,1,0-6.69A2.56,2.56,0,0,1,165.6,95.28Zm-2.23,4.45q0,3.81,2.23,3.81t2.24-3.81a5.64,5.64,0,0,0-.57-2.84,1.84,1.84,0,0,0-1.68-1,1.82,1.82,0,0,0-1.65.94A5.63,5.63,0,0,0,163.37,99.72Z"/><path class="cls-10" d="M165.6,126.28a2.87,2.87,0,0,1,1.32.29,2.48,2.48,0,0,1,.94.85,4.14,4.14,0,0,1,.57,1.39,8.64,8.64,0,0,1,.19,1.92,5.94,5.94,0,0,1-.77,3.35,2.82,2.82,0,0,1-4.49,0,7.62,7.62,0,0,1,0-6.69A2.56,2.56,0,0,1,165.6,126.28Zm-2.23,4.45q0,3.81,2.23,3.81t2.24-3.81a5.64,5.64,0,0,0-.57-2.84,1.84,1.84,0,0,0-1.68-1,1.82,1.82,0,0,0-1.65.94A5.63,5.63,0,0,0,163.37,130.72Z"/><path class="cls-10" d="M165.6,157.28a2.87,2.87,0,0,1,1.32.29,2.48,2.48,0,0,1,.94.85,4.14,4.14,0,0,1,.57,1.39,8.64,8.64,0,0,1,.19,1.92,5.94,5.94,0,0,1-.77,3.35,2.82,2.82,0,0,1-4.49,0,7.62,7.62,0,0,1,0-6.69A2.56,2.56,0,0,1,165.6,157.28Zm-2.23,4.45q0,3.81,2.23,3.81t2.24-3.81a5.64,5.64,0,0,0-.57-2.84,1.84,1.84,0,0,0-1.68-1,1.82,1.82,0,0,0-1.65.94A5.63,5.63,0,0,0,163.37,161.72Z"/><path class="cls-10" d="M240.47,69.16v.7h-3v-.7Z"/><path class="cls-10" d="M244.58,64.28a2.81,2.81,0,0,1,2,.66,2.28,2.28,0,0,1,.73,1.78,2.82,2.82,0,0,1-.55,1.66,7,7,0,0,1-2,1.66,8.29,8.29,0,0,0-1.66,1.23,2,2,0,0,0-.56,1h4.81V73h-5.7a3,3,0,0,1,.56-1.74,6.61,6.61,0,0,1,1.93-1.66A8.78,8.78,0,0,0,246,68.11a2.11,2.11,0,0,0,.51-1.41,1.64,1.64,0,0,0-.54-1.28,2,2,0,0,0-1.4-.49,2,2,0,0,0-.86.17,1.82,1.82,0,0,0-.61.44,1.77,1.77,0,0,0-.36.62,2.2,2.2,0,0,0-.12.71V67h-.77v-.12a2.93,2.93,0,0,1,.17-1,2.42,2.42,0,0,1,.51-.84,2.47,2.47,0,0,1,.86-.59A3.06,3.06,0,0,1,244.58,64.28Z"/><path class="cls-10" d="M251.6,64.28a2.87,2.87,0,0,1,1.32.29,2.48,2.48,0,0,1,.94.85,4.14,4.14,0,0,1,.57,1.39,8.64,8.64,0,0,1,.19,1.92,5.94,5.94,0,0,1-.77,3.35,2.82,2.82,0,0,1-4.49,0,5.89,5.89,0,0,1-.77-3.34,5.89,5.89,0,0,1,.77-3.35A2.56,2.56,0,0,1,251.6,64.28Zm-2.23,4.45q0,3.81,2.23,3.81t2.24-3.81a5.64,5.64,0,0,0-.57-2.84,1.84,1.84,0,0,0-1.68-1,1.82,1.82,0,0,0-1.65.94A5.63,5.63,0,0,0,249.37,68.72Z"/><path class="cls-10" d="M244.65,104V97.57h-2.29V97q.53,0,.9-.06a2.36,2.36,0,0,0,.57-.13,1.3,1.3,0,0,0,.64-.52,2.46,2.46,0,0,0,.31-1h.63V104Z"/><path class="cls-10" d="M251.6,95.28a2.87,2.87,0,0,1,1.32.29,2.48,2.48,0,0,1,.94.85,4.14,4.14,0,0,1,.57,1.39,8.64,8.64,0,0,1,.19,1.92,5.94,5.94,0,0,1-.77,3.35,2.82,2.82,0,0,1-4.49,0,7.62,7.62,0,0,1,0-6.69A2.56,2.56,0,0,1,251.6,95.28Zm-2.23,4.45q0,3.81,2.23,3.81t2.24-3.81a5.64,5.64,0,0,0-.57-2.84,1.84,1.84,0,0,0-1.68-1,1.82,1.82,0,0,0-1.65.94A5.63,5.63,0,0,0,249.37,99.72Z"/><path class="cls-10" d="M251.6,126.28a2.87,2.87,0,0,1,1.32.29,2.48,2.48,0,0,1,.94.85,4.14,4.14,0,0,1,.57,1.39,8.64,8.64,0,0,1,.19,1.92,5.94,5.94,0,0,1-.77,3.35,2.82,2.82,0,0,1-4.49,0,7.62,7.62,0,0,1,0-6.69A2.56,2.56,0,0,1,251.6,126.28Zm-2.23,4.45q0,3.81,2.23,3.81t2.24-3.81a5.64,5.64,0,0,0-.57-2.84,1.84,1.84,0,0,0-1.68-1,1.82,1.82,0,0,0-1.65.94A5.63,5.63,0,0,0,249.37,130.72Z"/><path class="cls-10" d="M251.6,157.28a2.87,2.87,0,0,1,1.32.29,2.48,2.48,0,0,1,.94.85,4.14,4.14,0,0,1,.57,1.39,8.64,8.64,0,0,1,.19,1.92,5.94,5.94,0,0,1-.77,3.35,2.82,2.82,0,0,1-4.49,0,7.62,7.62,0,0,1,0-6.69A2.56,2.56,0,0,1,251.6,157.28Zm-2.23,4.45q0,3.81,2.23,3.81t2.24-3.81a5.64,5.64,0,0,0-.57-2.84,1.84,1.84,0,0,0-1.68-1,1.82,1.82,0,0,0-1.65.94A5.63,5.63,0,0,0,249.37,161.72Z"/><path class="cls-10" d="M283.47,69.16v.7h-3v-.7Z"/><path class="cls-10" d="M287.58,64.28a2.81,2.81,0,0,1,2,.66,2.28,2.28,0,0,1,.73,1.78,2.82,2.82,0,0,1-.55,1.66,7,7,0,0,1-2,1.66,8.29,8.29,0,0,0-1.66,1.23,2,2,0,0,0-.56,1h4.81V73h-5.7a3,3,0,0,1,.56-1.74,6.61,6.61,0,0,1,1.93-1.66A8.78,8.78,0,0,0,289,68.11a2.11,2.11,0,0,0,.51-1.41,1.64,1.64,0,0,0-.54-1.28,2,2,0,0,0-1.4-.49,2,2,0,0,0-.86.17,1.82,1.82,0,0,0-.61.44,1.77,1.77,0,0,0-.36.62,2.2,2.2,0,0,0-.12.71V67h-.77v-.12a2.93,2.93,0,0,1,.17-1,2.42,2.42,0,0,1,.51-.84,2.47,2.47,0,0,1,.86-.59A3.06,3.06,0,0,1,287.58,64.28Z"/><path class="cls-10" d="M294.6,64.28a2.87,2.87,0,0,1,1.32.29,2.48,2.48,0,0,1,.94.85,4.14,4.14,0,0,1,.57,1.39,8.64,8.64,0,0,1,.19,1.92,5.94,5.94,0,0,1-.77,3.35,2.82,2.82,0,0,1-4.49,0,5.89,5.89,0,0,1-.77-3.34,5.89,5.89,0,0,1,.77-3.35A2.56,2.56,0,0,1,294.6,64.28Zm-2.23,4.45q0,3.81,2.23,3.81t2.24-3.81a5.64,5.64,0,0,0-.57-2.84,1.84,1.84,0,0,0-1.68-1,1.82,1.82,0,0,0-1.65.94A5.63,5.63,0,0,0,292.37,68.72Z"/><path class="cls-10" d="M287.65,104V97.57h-2.29V97q.53,0,.9-.06a2.36,2.36,0,0,0,.57-.13,1.3,1.3,0,0,0,.64-.52,2.46,2.46,0,0,0,.31-1h.63V104Z"/><path class="cls-10" d="M294.6,95.28a2.87,2.87,0,0,1,1.32.29,2.48,2.48,0,0,1,.94.85,4.14,4.14,0,0,1,.57,1.39,8.64,8.64,0,0,1,.19,1.92,5.94,5.94,0,0,1-.77,3.35,2.82,2.82,0,0,1-4.49,0,7.62,7.62,0,0,1,0-6.69A2.56,2.56,0,0,1,294.6,95.28Zm-2.23,4.45q0,3.81,2.23,3.81t2.24-3.81a5.64,5.64,0,0,0-.57-2.84,1.84,1.84,0,0,0-1.68-1,1.82,1.82,0,0,0-1.65.94A5.63,5.63,0,0,0,292.37,99.72Z"/><path class="cls-10" d="M294.6,126.28a2.87,2.87,0,0,1,1.32.29,2.48,2.48,0,0,1,.94.85,4.14,4.14,0,0,1,.57,1.39,8.64,8.64,0,0,1,.19,1.92,5.94,5.94,0,0,1-.77,3.35,2.82,2.82,0,0,1-4.49,0,7.62,7.62,0,0,1,0-6.69A2.56,2.56,0,0,1,294.6,126.28Zm-2.23,4.45q0,3.81,2.23,3.81t2.24-3.81a5.64,5.64,0,0,0-.57-2.84,1.84,1.84,0,0,0-1.68-1,1.82,1.82,0,0,0-1.65.94A5.63,5.63,0,0,0,292.37,130.72Z"/><path class="cls-10" d="M294.6,157.28a2.87,2.87,0,0,1,1.32.29,2.48,2.48,0,0,1,.94.85,4.14,4.14,0,0,1,.57,1.39,8.64,8.64,0,0,1,.19,1.92,5.94,5.94,0,0,1-.77,3.35,2.82,2.82,0,0,1-4.49,0,7.62,7.62,0,0,1,0-6.69A2.56,2.56,0,0,1,294.6,157.28Zm-2.23,4.45q0,3.81,2.23,3.81t2.24-3.81a5.64,5.64,0,0,0-.57-2.84,1.84,1.84,0,0,0-1.68-1,1.82,1.82,0,0,0-1.65.94A5.63,5.63,0,0,0,292.37,161.72Z"/><path class="cls-10" d="M541.47,69.16v.7h-3v-.7Z"/><path class="cls-10" d="M545.58,64.28a2.81,2.81,0,0,1,2,.66,2.28,2.28,0,0,1,.73,1.78,2.82,2.82,0,0,1-.55,1.66,7,7,0,0,1-2,1.66,8.29,8.29,0,0,0-1.66,1.23,2,2,0,0,0-.56,1h4.81V73h-5.7a3,3,0,0,1,.56-1.74,6.61,6.61,0,0,1,1.93-1.66A8.78,8.78,0,0,0,547,68.11a2.11,2.11,0,0,0,.51-1.41,1.64,1.64,0,0,0-.54-1.28,2,2,0,0,0-1.4-.49,2,2,0,0,0-.86.17,1.82,1.82,0,0,0-.61.44,1.77,1.77,0,0,0-.36.62,2.2,2.2,0,0,0-.12.71V67h-.77v-.12a2.93,2.93,0,0,1,.17-1,2.42,2.42,0,0,1,.51-.84,2.47,2.47,0,0,1,.86-.59A3.06,3.06,0,0,1,545.58,64.28Z"/><path class="cls-10" d="M552.6,64.28a2.87,2.87,0,0,1,1.32.29,2.48,2.48,0,0,1,.94.85,4.14,4.14,0,0,1,.57,1.39,8.64,8.64,0,0,1,.19,1.92,5.94,5.94,0,0,1-.77,3.35,2.82,2.82,0,0,1-4.49,0,5.89,5.89,0,0,1-.77-3.34,5.89,5.89,0,0,1,.77-3.35A2.56,2.56,0,0,1,552.6,64.28Zm-2.23,4.45q0,3.81,2.23,3.81t2.24-3.81a5.64,5.64,0,0,0-.57-2.84,1.84,1.84,0,0,0-1.68-1,1.82,1.82,0,0,0-1.65.94A5.63,5.63,0,0,0,550.37,68.72Z"/><path class="cls-10" d="M554.27,101.85V104h-.71v-2.15h-4v-.75l4-5.75h.7v5.85h1.3v.66Zm-.71-5.36h0l-3.27,4.71h3.29Z"/><path class="cls-10" d="M552.6,126.28a2.87,2.87,0,0,1,1.32.29,2.48,2.48,0,0,1,.94.85,4.14,4.14,0,0,1,.57,1.39,8.64,8.64,0,0,1,.19,1.92,5.94,5.94,0,0,1-.77,3.35,2.82,2.82,0,0,1-4.49,0,7.62,7.62,0,0,1,0-6.69A2.56,2.56,0,0,1,552.6,126.28Zm-2.23,4.45q0,3.81,2.23,3.81t2.24-3.81a5.64,5.64,0,0,0-.57-2.84,1.84,1.84,0,0,0-1.68-1,1.82,1.82,0,0,0-1.65.94A5.63,5.63,0,0,0,550.37,130.72Z"/><path class="cls-10" d="M552.6,157.28a2.87,2.87,0,0,1,1.32.29,2.48,2.48,0,0,1,.94.85,4.14,4.14,0,0,1,.57,1.39,8.64,8.64,0,0,1,.19,1.92,5.94,5.94,0,0,1-.77,3.35,2.82,2.82,0,0,1-4.49,0,7.62,7.62,0,0,1,0-6.69A2.56,2.56,0,0,1,552.6,157.28Zm-2.23,4.45q0,3.81,2.23,3.81t2.24-3.81a5.64,5.64,0,0,0-.57-2.84,1.84,1.84,0,0,0-1.68-1,1.82,1.82,0,0,0-1.65.94A5.63,5.63,0,0,0,550.37,161.72Z"/><path class="cls-10" d="M584.47,69.16v.7h-3v-.7Z"/><path class="cls-10" d="M588.58,64.28a2.81,2.81,0,0,1,2,.66,2.28,2.28,0,0,1,.73,1.78,2.82,2.82,0,0,1-.55,1.66,7,7,0,0,1-2,1.66,8.29,8.29,0,0,0-1.66,1.23,2,2,0,0,0-.56,1h4.81V73h-5.7a3,3,0,0,1,.56-1.74,6.61,6.61,0,0,1,1.93-1.66A8.78,8.78,0,0,0,590,68.11a2.11,2.11,0,0,0,.51-1.41,1.64,1.64,0,0,0-.54-1.28,2,2,0,0,0-1.4-.49,2,2,0,0,0-.86.17,1.82,1.82,0,0,0-.61.44,1.77,1.77,0,0,0-.36.62,2.2,2.2,0,0,0-.12.71V67h-.77v-.12a2.93,2.93,0,0,1,.17-1,2.42,2.42,0,0,1,.51-.84,2.47,2.47,0,0,1,.86-.59A3.06,3.06,0,0,1,588.58,64.28Z"/><path class="cls-10" d="M595.6,64.28a2.87,2.87,0,0,1,1.32.29,2.48,2.48,0,0,1,.94.85,4.14,4.14,0,0,1,.57,1.39,8.64,8.64,0,0,1,.19,1.92,5.94,5.94,0,0,1-.77,3.35,2.82,2.82,0,0,1-4.49,0,5.89,5.89,0,0,1-.77-3.34,5.89,5.89,0,0,1,.77-3.35A2.56,2.56,0,0,1,595.6,64.28Zm-2.23,4.45q0,3.81,2.23,3.81t2.24-3.81a5.64,5.64,0,0,0-.57-2.84,1.84,1.84,0,0,0-1.68-1,1.82,1.82,0,0,0-1.65.94A5.63,5.63,0,0,0,593.37,68.72Z"/><path class="cls-10" d="M597.27,101.85V104h-.71v-2.15h-4v-.75l4-5.75h.7v5.85h1.3v.66Zm-.71-5.36h0l-3.27,4.71h3.29Z"/><path class="cls-10" d="M595.6,126.28a2.87,2.87,0,0,1,1.32.29,2.48,2.48,0,0,1,.94.85,4.14,4.14,0,0,1,.57,1.39,8.64,8.64,0,0,1,.19,1.92,5.94,5.94,0,0,1-.77,3.35,2.82,2.82,0,0,1-4.49,0,7.62,7.62,0,0,1,0-6.69A2.56,2.56,0,0,1,595.6,126.28Zm-2.23,4.45q0,3.81,2.23,3.81t2.24-3.81a5.64,5.64,0,0,0-.57-2.84,1.84,1.84,0,0,0-1.68-1,1.82,1.82,0,0,0-1.65.94A5.63,5.63,0,0,0,593.37,130.72Z"/><path class="cls-10" d="M595.6,157.28a2.87,2.87,0,0,1,1.32.29,2.48,2.48,0,0,1,.94.85,4.14,4.14,0,0,1,.57,1.39,8.64,8.64,0,0,1,.19,1.92,5.94,5.94,0,0,1-.77,3.35,2.82,2.82,0,0,1-4.49,0,7.62,7.62,0,0,1,0-6.69A2.56,2.56,0,0,1,595.6,157.28Zm-2.23,4.45q0,3.81,2.23,3.81t2.24-3.81a5.64,5.64,0,0,0-.57-2.84,1.84,1.84,0,0,0-1.68-1,1.82,1.82,0,0,0-1.65.94A5.63,5.63,0,0,0,593.37,161.72Z"/><line class="cls-11" x1="692" y1="52.5" x2="21" y2="52.5"/><path class="cls-10" d="M670.47,69.16v.7h-3v-.7Z"/><path class="cls-10" d="M674.58,64.28a2.81,2.81,0,0,1,2,.66,2.28,2.28,0,0,1,.73,1.78,2.82,2.82,0,0,1-.55,1.66,7,7,0,0,1-2,1.66,8.29,8.29,0,0,0-1.66,1.23,2,2,0,0,0-.56,1h4.81V73h-5.7a3,3,0,0,1,.56-1.74,6.61,6.61,0,0,1,1.93-1.66A8.78,8.78,0,0,0,676,68.11a2.11,2.11,0,0,0,.51-1.41,1.64,1.64,0,0,0-.54-1.28,2,2,0,0,0-1.4-.49,2,2,0,0,0-.86.17,1.82,1.82,0,0,0-.61.44,1.77,1.77,0,0,0-.36.62,2.2,2.2,0,0,0-.12.71V67h-.77v-.12a2.93,2.93,0,0,1,.17-1,2.42,2.42,0,0,1,.51-.84,2.47,2.47,0,0,1,.86-.59A3.06,3.06,0,0,1,674.58,64.28Z"/><path class="cls-10" d="M681.6,64.28a2.87,2.87,0,0,1,1.32.29,2.48,2.48,0,0,1,.94.85,4.14,4.14,0,0,1,.57,1.39,8.64,8.64,0,0,1,.19,1.92,5.94,5.94,0,0,1-.77,3.35,2.82,2.82,0,0,1-4.49,0,5.89,5.89,0,0,1-.77-3.34,5.89,5.89,0,0,1,.77-3.35A2.56,2.56,0,0,1,681.6,64.28Zm-2.23,4.45q0,3.81,2.23,3.81t2.24-3.81a5.64,5.64,0,0,0-.57-2.84,1.84,1.84,0,0,0-1.68-1,1.82,1.82,0,0,0-1.65.94A5.63,5.63,0,0,0,679.37,68.72Z"/><path class="cls-10" d="M683.27,101.85V104h-.71v-2.15h-4v-.75l4-5.75h.7v5.85h1.3v.66Zm-.71-5.36h0l-3.27,4.71h3.29Z"/><path class="cls-10" d="M681.6,126.28a2.87,2.87,0,0,1,1.32.29,2.48,2.48,0,0,1,.94.85,4.14,4.14,0,0,1,.57,1.39,8.64,8.64,0,0,1,.19,1.92,5.94,5.94,0,0,1-.77,3.35,2.82,2.82,0,0,1-4.49,0,7.62,7.62,0,0,1,0-6.69A2.56,2.56,0,0,1,681.6,126.28Zm-2.23,4.45q0,3.81,2.23,3.81t2.24-3.81a5.64,5.64,0,0,0-.57-2.84,1.84,1.84,0,0,0-1.68-1,1.82,1.82,0,0,0-1.65.94A5.63,5.63,0,0,0,679.37,130.72Z"/><path class="cls-10" d="M681.6,157.28a2.87,2.87,0,0,1,1.32.29,2.48,2.48,0,0,1,.94.85,4.14,4.14,0,0,1,.57,1.39,8.64,8.64,0,0,1,.19,1.92,5.94,5.94,0,0,1-.77,3.35,2.82,2.82,0,0,1-4.49,0,7.62,7.62,0,0,1,0-6.69A2.56,2.56,0,0,1,681.6,157.28Zm-2.23,4.45q0,3.81,2.23,3.81t2.24-3.81a5.64,5.64,0,0,0-.57-2.84,1.84,1.84,0,0,0-1.68-1,1.82,1.82,0,0,0-1.65.94A5.63,5.63,0,0,0,679.37,161.72Z"/><polygon class="cls-9" points="76 70.6 72 66.6 72.7 65.9 76 69.19 79.3 65.9 80 66.6 76 70.6"/><polygon class="cls-9" points="76 101.6 72 97.6 72.7 96.9 76 100.19 79.3 96.9 80 97.6 76 101.6"/><polygon class="cls-9" points="76 132.6 72 128.6 72.7 127.9 76 131.19 79.3 127.9 80 128.6 76 132.6"/><polygon class="cls-9" points="76 163.6 72 159.6 72.7 158.9 76 162.19 79.3 158.9 80 159.6 76 163.6"/></g></svg>