<svg xmlns="http://www.w3.org/2000/svg" viewBox="0 0 489 189"><defs><style>.cls-1{fill:#fff;}.cls-2,.cls-5{fill:none;}.cls-2{opacity:0.1;}.cls-3{fill:#f0f0f0;}.cls-4{fill:#d2d2d2;}.cls-6{fill:#464646;}.cls-7{fill:#787878;opacity:0.2;}.cls-8{fill:#444;}.cls-9{fill:#c8c8c8;}</style></defs><title>Artboard 19</title><g id="Bg"><rect class="cls-1" x="-1566" y="-777" width="6000" height="2500"/></g><g id="Tabeller"><rect class="cls-2" x="20" y="76" width="449" height="30"/><rect class="cls-3" x="19.5" y="19.5" width="160" height="25"/><path class="cls-4" d="M179,20V44H20V20H179m1-1H19V45H180V19Z"/><rect class="cls-3" x="179.5" y="19.5" width="87" height="25"/><path class="cls-4" d="M266,20V44H180V20h86m1-1H179V45h88V19Z"/><rect class="cls-3" x="266.5" y="19.5" width="88" height="25"/><path class="cls-4" d="M354,20V44H267V20h87m1-1H266V45h89V19Z"/><rect class="cls-3" x="354.5" y="19.5" width="115" height="25"/><path class="cls-4" d="M469,20V44H355V20H469m1-1H354V45H470V19Z"/><rect class="cls-5" x="20" y="45" width="449" height="30"/><rect class="cls-5" x="20" y="76" width="449" height="30"/><rect class="cls-5" x="20" y="107" width="449" height="30"/><rect class="cls-5" x="20" y="138" width="449" height="30"/><path class="cls-6" d="M39.4,31.13a2.12,2.12,0,0,1-.62,1.6,2.09,2.09,0,0,1-.73.45,2.76,2.76,0,0,1-.94.15h-2v2.74H33.85V28.93H37.1a2.33,2.33,0,0,1,1.67.6A2.09,2.09,0,0,1,39.4,31.13Zm-1.22,0a1.13,1.13,0,0,0-.35-.91,1.64,1.64,0,0,0-1.09-.3H35.1v2.42h1.67a2.29,2.29,0,0,0,.6-.07,1.06,1.06,0,0,0,.81-1.13Z"/><path class="cls-6" d="M44.88,36.07l-.62-1.82h-3l-.62,1.82H39.4L42,28.94h1.69l2.52,7.13Zm-2.07-6.21h0L41.61,33.3h2.33Z"/><path class="cls-6" d="M52.94,30.86a1.91,1.91,0,0,1-.42,1.28,1.51,1.51,0,0,1-.35.31,2.11,2.11,0,0,1-.46.21v0a1.4,1.4,0,0,1,.49.21,1.17,1.17,0,0,1,.33.35,1.62,1.62,0,0,1,.21.52,4.28,4.28,0,0,1,.08.57c0,.2,0,.4,0,.61a4,4,0,0,0,.08.62,1.37,1.37,0,0,0,.2.52H51.86A3.65,3.65,0,0,1,51.68,35a2.67,2.67,0,0,0-.38-1.47,1.13,1.13,0,0,0-.88-.34h-2v2.92H47.17V28.93h3.68a2.13,2.13,0,0,1,1.48.53A1.8,1.8,0,0,1,52.94,30.86Zm-1.25.2a1.09,1.09,0,0,0-.32-.86,1.29,1.29,0,0,0-.89-.28H48.42v2.29h2.05a1.27,1.27,0,0,0,.85-.27A1.08,1.08,0,0,0,51.69,31.06Z"/><path class="cls-6" d="M59.4,36.07l-.62-1.82h-3l-.62,1.82H53.93l2.57-7.13h1.69l2.52,7.13Zm-2.07-6.21h0L56.14,33.3h2.33Z"/><path class="cls-6" d="M68.05,36.07V30.34h0l-2,5.73H64.93l-2-5.7h0v5.7H61.69V28.94h1.83l2,5.56h0l1.91-5.56h1.82v7.13Z"/><path class="cls-6" d="M76.17,28.94V30H72.23v1.9h3.64v1H72.23V35h4v1H71V28.94Z"/><path class="cls-6" d="M82.77,28.93V30H80.5v6.08H79.25V30H77V28.93Z"/><path class="cls-6" d="M89,28.94V30H85v1.9h3.64v1H85V35h4v1H83.78V28.94Z"/><path class="cls-6" d="M96.12,30.86a1.91,1.91,0,0,1-.42,1.28,1.52,1.52,0,0,1-.35.31,2.12,2.12,0,0,1-.46.21v0a1.4,1.4,0,0,1,.49.21,1.17,1.17,0,0,1,.33.35,1.62,1.62,0,0,1,.21.52,4.28,4.28,0,0,1,.08.57c0,.2,0,.4,0,.61a4,4,0,0,0,.08.62,1.37,1.37,0,0,0,.2.52H95A3.65,3.65,0,0,1,94.86,35a2.67,2.67,0,0,0-.38-1.47,1.13,1.13,0,0,0-.88-.34h-2v2.92H90.36V28.93H94a2.13,2.13,0,0,1,1.48.53A1.8,1.8,0,0,1,96.12,30.86Zm-1.25.2a1.09,1.09,0,0,0-.32-.86,1.29,1.29,0,0,0-.89-.28H91.61v2.29h2.05a1.27,1.27,0,0,0,.85-.27A1.08,1.08,0,0,0,94.87,31.06Z"/><path class="cls-6" d="M193.36,28.93l1.86,5.73h0l1.86-5.73h1.3l-2.47,7.14H194.5l-2.44-7.14Z"/><path class="cls-6" d="M203.64,36.07,203,34.25h-3l-.62,1.82h-1.27l2.57-7.13h1.69l2.52,7.13Zm-2.07-6.21h0l-1.17,3.44h2.33Z"/><path class="cls-6" d="M207.19,28.93V35h3.67v1.05h-4.92V28.93Z"/><path class="cls-6" d="M213,28.93v4.48a1.89,1.89,0,0,0,.41,1.33,1.68,1.68,0,0,0,1.29.44,1.73,1.73,0,0,0,1.29-.42,1.86,1.86,0,0,0,.41-1.34V28.93h1.25v4.53a2.74,2.74,0,0,1-.75,2,3,3,0,0,1-2.2.75A4,4,0,0,1,213.4,36a2.33,2.33,0,0,1-1.5-1.46,3.37,3.37,0,0,1-.18-1.13V28.93Z"/><path class="cls-6" d="M224.52,28.94V30h-3.94v1.9h3.64v1h-3.64V35h4v1h-5.25V28.94Z"/><path class="cls-6" d="M283,28.78a3.75,3.75,0,0,1,1.1.15,2.87,2.87,0,0,1,.89.44,2.44,2.44,0,0,1,.64.71,2.66,2.66,0,0,1,.34.94H284.7a1.57,1.57,0,0,0-.21-.47,1.51,1.51,0,0,0-.37-.38,1.83,1.83,0,0,0-.52-.26,2.11,2.11,0,0,0-.65-.1,2.08,2.08,0,0,0-1,.22,2.06,2.06,0,0,0-.7.6,2.61,2.61,0,0,0-.42.86,3.75,3.75,0,0,0-.14,1,3.7,3.7,0,0,0,.13,1,2.57,2.57,0,0,0,.4.85,2,2,0,0,0,1.7.83,2,2,0,0,0,.71-.12,1.66,1.66,0,0,0,.93-.84,2.22,2.22,0,0,0,.2-.65H286a3.5,3.5,0,0,1-.29,1A2.66,2.66,0,0,1,284.18,36a3.45,3.45,0,0,1-1.24.21,3.54,3.54,0,0,1-1.43-.28,3.21,3.21,0,0,1-1.1-.78,3.44,3.44,0,0,1-.7-1.17,4.35,4.35,0,0,1-.24-1.48,4.44,4.44,0,0,1,.23-1.43,3.57,3.57,0,0,1,.67-1.19,3.2,3.2,0,0,1,1.09-.82A3.49,3.49,0,0,1,283,28.78Z"/><path class="cls-6" d="M288.58,28.94v2.87h3.37V28.94h1.24v7.13h-1.24V32.86h-3.37v3.21h-1.25V28.94Z"/><path class="cls-6" d="M299.66,36.07,299,34.25h-3l-.62,1.82h-1.27l2.57-7.13h1.69L301,36.07Zm-2.07-6.21h0L296.4,33.3h2.33Z"/><path class="cls-6" d="M303.23,28.93l3.4,5.3h0v-5.3h1.19v7.14h-1.27l-3.4-5.3h0v5.3H302V28.93Z"/><path class="cls-6" d="M312.68,28.76a3.65,3.65,0,0,1,1.07.15,2.94,2.94,0,0,1,.9.45,2.55,2.55,0,0,1,.66.72,2.71,2.71,0,0,1,.36,1h-1.21a1.56,1.56,0,0,0-.24-.53,1.58,1.58,0,0,0-.4-.39,1.75,1.75,0,0,0-.52-.24,2.28,2.28,0,0,0-.63-.08,2.1,2.1,0,0,0-1,.21,2,2,0,0,0-.69.58,2.53,2.53,0,0,0-.41.86,3.94,3.94,0,0,0-.13,1,3.83,3.83,0,0,0,.12,1,2.55,2.55,0,0,0,.39.85,2,2,0,0,0,.69.6,2.07,2.07,0,0,0,1,.23,2.31,2.31,0,0,0,.8-.13,1.69,1.69,0,0,0,.61-.38,1.76,1.76,0,0,0,.4-.61,2.5,2.5,0,0,0,.17-.82h-1.88v-1h3v3.78H315l-.13-1h0a2.44,2.44,0,0,1-.93.87,2.68,2.68,0,0,1-1.24.28,3.44,3.44,0,0,1-1.42-.28,3.17,3.17,0,0,1-1.08-.78,3.5,3.5,0,0,1-.69-1.18,4.37,4.37,0,0,1-.24-1.47,4.49,4.49,0,0,1,.23-1.46,3.53,3.53,0,0,1,.68-1.19,3.21,3.21,0,0,1,1.09-.81A3.45,3.45,0,0,1,312.68,28.76Z"/><path class="cls-6" d="M322.61,28.94V30h-3.94v1.9h3.64v1h-3.64V35h4v1h-5.25V28.94Z"/><rect class="cls-7" x="20" y="106" width="449" height="1"/><rect class="cls-7" x="20" y="75" width="449" height="1"/><rect class="cls-7" x="20" y="137" width="449" height="1"/><rect class="cls-5" x="20" y="138" width="449" height="30"/><rect class="cls-7" x="20" y="168" width="449" height="1"/><path class="cls-8" d="M40.48,58.09a2.34,2.34,0,0,1-.7,1.8,2.55,2.55,0,0,1-1.8.64h-3v3.67h-.82V55.64H38a2.53,2.53,0,0,1,1.8.65A2.33,2.33,0,0,1,40.48,58.09Zm-.81,0a1.68,1.68,0,0,0-.5-1.29,2.11,2.11,0,0,0-1.49-.46H34.95v3.5H37.8a2,2,0,0,0,1.35-.45A1.65,1.65,0,0,0,39.66,58.09Z"/><path class="cls-8" d="M47.37,64.16l-.27,0h-.24a1.37,1.37,0,0,1-.44-.06.65.65,0,0,1-.29-.2A.82.82,0,0,1,46,63.6a2.43,2.43,0,0,1,0-.53h0a3,3,0,0,1-1,1,2.79,2.79,0,0,1-1.35.29,2.46,2.46,0,0,1-1.6-.5,1.75,1.75,0,0,1-.6-1.43A1.66,1.66,0,0,1,41.95,61a6.79,6.79,0,0,1,3-.69,2,2,0,0,0,.44-.08.75.75,0,0,0,.29-.16.6.6,0,0,0,.16-.26,1.28,1.28,0,0,0,0-.38,1.24,1.24,0,0,0-.4-1,2,2,0,0,0-1.31-.34,2.61,2.61,0,0,0-.72.09,1.65,1.65,0,0,0-.53.25,1.13,1.13,0,0,0-.33.39,1.23,1.23,0,0,0-.13.49h-.8a2,2,0,0,1,.22-.78,1.78,1.78,0,0,1,.51-.59,2.43,2.43,0,0,1,.81-.38,4,4,0,0,1,1.09-.13,2.64,2.64,0,0,1,1.83.54,2,2,0,0,1,.59,1.52v3.56a.47.47,0,0,0,.11.33.46.46,0,0,0,.36.12.7.7,0,0,0,.25,0Zm-1.52-3.54h0q-.12.22-.77.31l-.67.1-.74.12a2.67,2.67,0,0,0-1.17.44,1,1,0,0,0-.39.84,1.16,1.16,0,0,0,.43.94,1.6,1.6,0,0,0,1,.35,2.36,2.36,0,0,0,1.63-.58,1.85,1.85,0,0,0,.65-1.44Z"/><path class="cls-8" d="M48.8,64.21V57.65h.74v1.54h0a2.56,2.56,0,0,1,.9-1.2,2.32,2.32,0,0,1,1.38-.43h.29v.8H52a2.22,2.22,0,0,0-1.71.69,2.36,2.36,0,0,0-.64,1.69v3.48Z"/><path class="cls-8" d="M59,64.16l-.27,0h-.24a1.37,1.37,0,0,1-.44-.06.65.65,0,0,1-.29-.2.82.82,0,0,1-.16-.35,2.43,2.43,0,0,1,0-.53h0a3,3,0,0,1-1,1,2.79,2.79,0,0,1-1.35.29,2.46,2.46,0,0,1-1.6-.5,1.75,1.75,0,0,1-.6-1.43A1.66,1.66,0,0,1,53.63,61a6.79,6.79,0,0,1,3-.69,2,2,0,0,0,.44-.08.75.75,0,0,0,.29-.16.6.6,0,0,0,.16-.26,1.28,1.28,0,0,0,0-.38,1.24,1.24,0,0,0-.4-1,2,2,0,0,0-1.31-.34,2.61,2.61,0,0,0-.72.09,1.65,1.65,0,0,0-.53.25,1.13,1.13,0,0,0-.33.39,1.23,1.23,0,0,0-.13.49h-.8a2,2,0,0,1,.22-.78A1.78,1.78,0,0,1,54,58a2.43,2.43,0,0,1,.81-.38,4,4,0,0,1,1.09-.13,2.64,2.64,0,0,1,1.83.54,2,2,0,0,1,.59,1.52v3.56a.47.47,0,0,0,.11.33.46.46,0,0,0,.36.12.7.7,0,0,0,.25,0Zm-1.52-3.54h0q-.12.22-.77.31l-.67.1-.74.12a2.67,2.67,0,0,0-1.17.44,1,1,0,0,0-.39.84,1.16,1.16,0,0,0,.43.94,1.6,1.6,0,0,0,1,.35,2.36,2.36,0,0,0,1.63-.58,1.85,1.85,0,0,0,.65-1.44Z"/><path class="cls-8" d="M68.75,64.21V59.75a1.73,1.73,0,0,0-.37-1.22,1.85,1.85,0,0,0-2.5.21,2.8,2.8,0,0,0-.45,1.71v3.77h-.81V59.72a1.81,1.81,0,0,0-.34-1.17,1.25,1.25,0,0,0-1-.42,1.72,1.72,0,0,0-1.46.65,2.72,2.72,0,0,0-.5,1.71v3.72h-.8V57.65h.74v1.1h0a2.26,2.26,0,0,1,2.15-1.29,2.44,2.44,0,0,1,.64.08,1.86,1.86,0,0,1,.54.24,1.66,1.66,0,0,1,.42.4,1.86,1.86,0,0,1,.28.55,2.16,2.16,0,0,1,.85-1,2.4,2.4,0,0,1,1.24-.32A2.12,2.12,0,0,1,69,58a2.36,2.36,0,0,1,.54,1.66v4.51Z"/><path class="cls-8" d="M74.31,57.46a2.71,2.71,0,0,1,1.3.29,2.6,2.6,0,0,1,.9.79A3.45,3.45,0,0,1,77,59.67,5.21,5.21,0,0,1,77.2,61v.13H72.15a3.58,3.58,0,0,0,.13.94,2.59,2.59,0,0,0,.39.83,2,2,0,0,0,.66.59,1.92,1.92,0,0,0,.95.22,2.44,2.44,0,0,0,.7-.09,2,2,0,0,0,.56-.26,1.76,1.76,0,0,0,.42-.39,2.41,2.41,0,0,0,.29-.49H77a3,3,0,0,1-.38.79,2.48,2.48,0,0,1-.59.6,2.68,2.68,0,0,1-.79.39,3.34,3.34,0,0,1-1,.14,2.94,2.94,0,0,1-1.3-.27,2.56,2.56,0,0,1-.91-.73,3.12,3.12,0,0,1-.54-1.1,5.14,5.14,0,0,1-.18-1.37,4.66,4.66,0,0,1,.18-1.28,3.36,3.36,0,0,1,.54-1.11,2.74,2.74,0,0,1,.92-.78A2.79,2.79,0,0,1,74.31,57.46Zm2.09,3a3,3,0,0,0-.16-.85,2.44,2.44,0,0,0-.41-.75,2.07,2.07,0,0,0-.65-.54,1.84,1.84,0,0,0-.88-.21,1.84,1.84,0,0,0-1.5.7,2.7,2.7,0,0,0-.42.75,4.31,4.31,0,0,0-.23.9Z"/><path class="cls-8" d="M81.52,64.27h-.66a3,3,0,0,1-.68-.06,1,1,0,0,1-.45-.23.89.89,0,0,1-.25-.43,2.65,2.65,0,0,1-.07-.68V58.32H78.09v-.67h1.32v-2h.8v2h1.5v.67h-1.5V62.8a1.76,1.76,0,0,0,0,.34.64.64,0,0,0,.11.25.5.5,0,0,0,.21.16.87.87,0,0,0,.35.06h.6l.21,0v.68Z"/><path class="cls-8" d="M85.88,57.46a2.71,2.71,0,0,1,1.3.29,2.6,2.6,0,0,1,.9.79,3.45,3.45,0,0,1,.52,1.13A5.21,5.21,0,0,1,88.76,61v.13H83.71a3.58,3.58,0,0,0,.13.94,2.59,2.59,0,0,0,.39.83,2,2,0,0,0,.66.59,1.92,1.92,0,0,0,.95.22,2.44,2.44,0,0,0,.7-.09,2,2,0,0,0,.56-.26,1.76,1.76,0,0,0,.42-.39,2.41,2.41,0,0,0,.29-.49h.79a3,3,0,0,1-.38.79,2.48,2.48,0,0,1-.59.6,2.68,2.68,0,0,1-.79.39,3.34,3.34,0,0,1-1,.14,2.94,2.94,0,0,1-1.3-.27,2.56,2.56,0,0,1-.91-.73,3.12,3.12,0,0,1-.54-1.1,5.14,5.14,0,0,1-.18-1.37,4.66,4.66,0,0,1,.18-1.28,3.36,3.36,0,0,1,.54-1.11,2.74,2.74,0,0,1,.92-.78A2.79,2.79,0,0,1,85.88,57.46Zm2.09,3a3,3,0,0,0-.16-.85,2.44,2.44,0,0,0-.41-.75,2.07,2.07,0,0,0-.65-.54,1.84,1.84,0,0,0-.88-.21,1.84,1.84,0,0,0-1.5.7,2.7,2.7,0,0,0-.42.75,4.31,4.31,0,0,0-.23.9Z"/><path class="cls-8" d="M90.44,64.21V57.65h.74v1.54h0a2.56,2.56,0,0,1,.9-1.2,2.32,2.32,0,0,1,1.38-.43h.29v.8h-.18a2.22,2.22,0,0,0-1.71.69,2.36,2.36,0,0,0-.64,1.69v3.48Z"/><path class="cls-8" d="M101.17,64.21V57.78H98.88v-.56q.53,0,.9-.06a2.36,2.36,0,0,0,.57-.13,1.3,1.3,0,0,0,.64-.52,2.46,2.46,0,0,0,.31-1h.63v8.65Z"/><path class="cls-8" d="M40.48,89.09a2.34,2.34,0,0,1-.7,1.8,2.55,2.55,0,0,1-1.8.64h-3v3.67h-.82V86.64H38a2.53,2.53,0,0,1,1.8.65A2.33,2.33,0,0,1,40.48,89.09Zm-.81,0a1.68,1.68,0,0,0-.5-1.29,2.11,2.11,0,0,0-1.49-.46H34.95v3.5H37.8a2,2,0,0,0,1.35-.45A1.65,1.65,0,0,0,39.66,89.09Z"/><path class="cls-8" d="M47.37,95.16l-.27,0h-.24a1.37,1.37,0,0,1-.44-.06.65.65,0,0,1-.29-.2A.82.82,0,0,1,46,94.6a2.43,2.43,0,0,1,0-.53h0a3,3,0,0,1-1,1,2.79,2.79,0,0,1-1.35.29,2.46,2.46,0,0,1-1.6-.5,1.75,1.75,0,0,1-.6-1.43A1.66,1.66,0,0,1,41.95,92a6.79,6.79,0,0,1,3-.69,2,2,0,0,0,.44-.08.75.75,0,0,0,.29-.16.6.6,0,0,0,.16-.26,1.28,1.28,0,0,0,0-.38,1.24,1.24,0,0,0-.4-1,2,2,0,0,0-1.31-.34,2.61,2.61,0,0,0-.72.09,1.65,1.65,0,0,0-.53.25,1.13,1.13,0,0,0-.33.39,1.23,1.23,0,0,0-.13.49h-.8a2,2,0,0,1,.22-.78,1.78,1.78,0,0,1,.51-.59,2.43,2.43,0,0,1,.81-.38,4,4,0,0,1,1.09-.13,2.64,2.64,0,0,1,1.83.54,2,2,0,0,1,.59,1.52v3.56a.47.47,0,0,0,.11.33.46.46,0,0,0,.36.12.7.7,0,0,0,.25,0Zm-1.52-3.54h0q-.12.22-.77.31l-.67.1-.74.12a2.67,2.67,0,0,0-1.17.44,1,1,0,0,0-.39.84,1.16,1.16,0,0,0,.43.94,1.6,1.6,0,0,0,1,.35,2.36,2.36,0,0,0,1.63-.58,1.85,1.85,0,0,0,.65-1.44Z"/><path class="cls-8" d="M48.8,95.21V88.65h.74v1.54h0a2.56,2.56,0,0,1,.9-1.2,2.32,2.32,0,0,1,1.38-.43h.29v.8H52a2.22,2.22,0,0,0-1.71.69,2.36,2.36,0,0,0-.64,1.69v3.48Z"/><path class="cls-8" d="M59,95.16l-.27,0h-.24a1.37,1.37,0,0,1-.44-.06.65.65,0,0,1-.29-.2.82.82,0,0,1-.16-.35,2.43,2.43,0,0,1,0-.53h0a3,3,0,0,1-1,1,2.79,2.79,0,0,1-1.35.29,2.46,2.46,0,0,1-1.6-.5,1.75,1.75,0,0,1-.6-1.43A1.66,1.66,0,0,1,53.63,92a6.79,6.79,0,0,1,3-.69,2,2,0,0,0,.44-.08.75.75,0,0,0,.29-.16.6.6,0,0,0,.16-.26,1.28,1.28,0,0,0,0-.38,1.24,1.24,0,0,0-.4-1,2,2,0,0,0-1.31-.34,2.61,2.61,0,0,0-.72.09,1.65,1.65,0,0,0-.53.25,1.13,1.13,0,0,0-.33.39,1.23,1.23,0,0,0-.13.49h-.8a2,2,0,0,1,.22-.78A1.78,1.78,0,0,1,54,89a2.43,2.43,0,0,1,.81-.38,4,4,0,0,1,1.09-.13,2.64,2.64,0,0,1,1.83.54,2,2,0,0,1,.59,1.52v3.56a.47.47,0,0,0,.11.33.46.46,0,0,0,.36.12.7.7,0,0,0,.25,0Zm-1.52-3.54h0q-.12.22-.77.31l-.67.1-.74.12a2.67,2.67,0,0,0-1.17.44,1,1,0,0,0-.39.84,1.16,1.16,0,0,0,.43.94,1.6,1.6,0,0,0,1,.35,2.36,2.36,0,0,0,1.63-.58,1.85,1.85,0,0,0,.65-1.44Z"/><path class="cls-8" d="M68.75,95.21V90.75a1.73,1.73,0,0,0-.37-1.22,1.85,1.85,0,0,0-2.5.21,2.8,2.8,0,0,0-.45,1.71v3.77h-.81V90.72a1.81,1.81,0,0,0-.34-1.17,1.25,1.25,0,0,0-1-.42,1.72,1.72,0,0,0-1.46.65,2.72,2.72,0,0,0-.5,1.71v3.72h-.8V88.65h.74v1.1h0a2.26,2.26,0,0,1,2.15-1.29,2.44,2.44,0,0,1,.64.08,1.86,1.86,0,0,1,.54.24,1.66,1.66,0,0,1,.42.4,1.86,1.86,0,0,1,.28.55,2.16,2.16,0,0,1,.85-1,2.4,2.4,0,0,1,1.24-.32A2.12,2.12,0,0,1,69,89a2.36,2.36,0,0,1,.54,1.66v4.51Z"/><path class="cls-8" d="M74.31,88.46a2.71,2.71,0,0,1,1.3.29,2.6,2.6,0,0,1,.9.79A3.45,3.45,0,0,1,77,90.67,5.21,5.21,0,0,1,77.2,92v.13H72.15a3.58,3.58,0,0,0,.13.94,2.59,2.59,0,0,0,.39.83,2,2,0,0,0,.66.59,1.92,1.92,0,0,0,.95.22,2.44,2.44,0,0,0,.7-.09,2,2,0,0,0,.56-.26,1.76,1.76,0,0,0,.42-.39,2.41,2.41,0,0,0,.29-.49H77a3,3,0,0,1-.38.79,2.48,2.48,0,0,1-.59.6,2.68,2.68,0,0,1-.79.39,3.34,3.34,0,0,1-1,.14,2.94,2.94,0,0,1-1.3-.27,2.56,2.56,0,0,1-.91-.73,3.12,3.12,0,0,1-.54-1.1,5.14,5.14,0,0,1-.18-1.37,4.66,4.66,0,0,1,.18-1.28,3.36,3.36,0,0,1,.54-1.11,2.74,2.74,0,0,1,.92-.78A2.79,2.79,0,0,1,74.31,88.46Zm2.09,3a3,3,0,0,0-.16-.85,2.44,2.44,0,0,0-.41-.75,2.07,2.07,0,0,0-.65-.54,1.84,1.84,0,0,0-.88-.21,1.84,1.84,0,0,0-1.5.7,2.7,2.7,0,0,0-.42.75,4.31,4.31,0,0,0-.23.9Z"/><path class="cls-8" d="M81.52,95.27h-.66a3,3,0,0,1-.68-.06,1,1,0,0,1-.45-.23.89.89,0,0,1-.25-.43,2.65,2.65,0,0,1-.07-.68V89.32H78.09v-.67h1.32v-2h.8v2h1.5v.67h-1.5V93.8a1.76,1.76,0,0,0,0,.34.64.64,0,0,0,.11.25.5.5,0,0,0,.21.16.87.87,0,0,0,.35.06h.6l.21,0v.68Z"/><path class="cls-8" d="M85.88,88.46a2.71,2.71,0,0,1,1.3.29,2.6,2.6,0,0,1,.9.79,3.45,3.45,0,0,1,.52,1.13A5.21,5.21,0,0,1,88.76,92v.13H83.71a3.58,3.58,0,0,0,.13.94,2.59,2.59,0,0,0,.39.83,2,2,0,0,0,.66.59,1.92,1.92,0,0,0,.95.22,2.44,2.44,0,0,0,.7-.09,2,2,0,0,0,.56-.26,1.76,1.76,0,0,0,.42-.39,2.41,2.41,0,0,0,.29-.49h.79a3,3,0,0,1-.38.79,2.48,2.48,0,0,1-.59.6,2.68,2.68,0,0,1-.79.39,3.34,3.34,0,0,1-1,.14,2.94,2.94,0,0,1-1.3-.27,2.56,2.56,0,0,1-.91-.73,3.12,3.12,0,0,1-.54-1.1,5.14,5.14,0,0,1-.18-1.37,4.66,4.66,0,0,1,.18-1.28,3.36,3.36,0,0,1,.54-1.11,2.74,2.74,0,0,1,.92-.78A2.79,2.79,0,0,1,85.88,88.46Zm2.09,3a3,3,0,0,0-.16-.85,2.44,2.44,0,0,0-.41-.75,2.07,2.07,0,0,0-.65-.54,1.84,1.84,0,0,0-.88-.21,1.84,1.84,0,0,0-1.5.7,2.7,2.7,0,0,0-.42.75,4.31,4.31,0,0,0-.23.9Z"/><path class="cls-8" d="M90.44,95.21V88.65h.74v1.54h0a2.56,2.56,0,0,1,.9-1.2,2.32,2.32,0,0,1,1.38-.43h.29v.8h-.18a2.22,2.22,0,0,0-1.71.69,2.36,2.36,0,0,0-.64,1.69v3.48Z"/><path class="cls-8" d="M101.1,86.49a2.81,2.81,0,0,1,2,.66,2.28,2.28,0,0,1,.73,1.78,2.82,2.82,0,0,1-.55,1.66,7,7,0,0,1-2,1.66,8.29,8.29,0,0,0-1.66,1.23,2,2,0,0,0-.56,1h4.81v.72h-5.7a3,3,0,0,1,.56-1.74,6.61,6.61,0,0,1,1.93-1.66,8.78,8.78,0,0,0,1.89-1.48,2.11,2.11,0,0,0,.51-1.41,1.64,1.64,0,0,0-.54-1.28,2,2,0,0,0-1.4-.49,2,2,0,0,0-.86.17,1.82,1.82,0,0,0-.61.44,1.77,1.77,0,0,0-.36.62,2.2,2.2,0,0,0-.12.71v.17h-.77v-.12a2.93,2.93,0,0,1,.17-1A2.42,2.42,0,0,1,99,87.3a2.47,2.47,0,0,1,.86-.59A3.06,3.06,0,0,1,101.1,86.49Z"/><path class="cls-8" d="M40.48,120.09a2.34,2.34,0,0,1-.7,1.8,2.55,2.55,0,0,1-1.8.64h-3v3.67h-.82v-8.57H38a2.53,2.53,0,0,1,1.8.65A2.33,2.33,0,0,1,40.48,120.09Zm-.81,0a1.68,1.68,0,0,0-.5-1.29,2.11,2.11,0,0,0-1.49-.46H34.95v3.5H37.8a2,2,0,0,0,1.35-.45A1.65,1.65,0,0,0,39.66,120.09Z"/><path class="cls-8" d="M47.37,126.16l-.27,0h-.24a1.37,1.37,0,0,1-.44-.06.65.65,0,0,1-.29-.2.82.82,0,0,1-.16-.35,2.43,2.43,0,0,1,0-.53h0a3,3,0,0,1-1,1,2.79,2.79,0,0,1-1.35.29,2.46,2.46,0,0,1-1.6-.5,1.75,1.75,0,0,1-.6-1.43,1.66,1.66,0,0,1,.66-1.43,6.79,6.79,0,0,1,3-.69,2,2,0,0,0,.44-.08.75.75,0,0,0,.29-.16.6.6,0,0,0,.16-.26,1.28,1.28,0,0,0,0-.38,1.24,1.24,0,0,0-.4-1,2,2,0,0,0-1.31-.34,2.61,2.61,0,0,0-.72.09,1.65,1.65,0,0,0-.53.25,1.13,1.13,0,0,0-.33.39,1.23,1.23,0,0,0-.13.49h-.8a2,2,0,0,1,.22-.78,1.78,1.78,0,0,1,.51-.59,2.43,2.43,0,0,1,.81-.38,4,4,0,0,1,1.09-.13,2.64,2.64,0,0,1,1.83.54,2,2,0,0,1,.59,1.52v3.56a.47.47,0,0,0,.11.33.46.46,0,0,0,.36.12.7.7,0,0,0,.25,0Zm-1.52-3.54h0q-.12.22-.77.31l-.67.1-.74.12a2.67,2.67,0,0,0-1.17.44,1,1,0,0,0-.39.84,1.16,1.16,0,0,0,.43.94,1.6,1.6,0,0,0,1,.35,2.36,2.36,0,0,0,1.63-.58,1.85,1.85,0,0,0,.65-1.44Z"/><path class="cls-8" d="M48.8,126.21v-6.56h.74v1.54h0a2.56,2.56,0,0,1,.9-1.2,2.32,2.32,0,0,1,1.38-.43h.29v.8H52a2.22,2.22,0,0,0-1.71.69,2.36,2.36,0,0,0-.64,1.69v3.48Z"/><path class="cls-8" d="M59,126.16l-.27,0h-.24a1.37,1.37,0,0,1-.44-.06.65.65,0,0,1-.29-.2.82.82,0,0,1-.16-.35,2.43,2.43,0,0,1,0-.53h0a3,3,0,0,1-1,1,2.79,2.79,0,0,1-1.35.29,2.46,2.46,0,0,1-1.6-.5,1.75,1.75,0,0,1-.6-1.43,1.66,1.66,0,0,1,.66-1.43,6.79,6.79,0,0,1,3-.69,2,2,0,0,0,.44-.08.75.75,0,0,0,.29-.16.6.6,0,0,0,.16-.26,1.28,1.28,0,0,0,0-.38,1.24,1.24,0,0,0-.4-1,2,2,0,0,0-1.31-.34,2.61,2.61,0,0,0-.72.09,1.65,1.65,0,0,0-.53.25,1.13,1.13,0,0,0-.33.39,1.23,1.23,0,0,0-.13.49h-.8a2,2,0,0,1,.22-.78A1.78,1.78,0,0,1,54,120a2.43,2.43,0,0,1,.81-.38,4,4,0,0,1,1.09-.13,2.64,2.64,0,0,1,1.83.54,2,2,0,0,1,.59,1.52v3.56a.47.47,0,0,0,.11.33.46.46,0,0,0,.36.12.7.7,0,0,0,.25,0Zm-1.52-3.54h0q-.12.22-.77.31l-.67.1-.74.12a2.67,2.67,0,0,0-1.17.44,1,1,0,0,0-.39.84,1.16,1.16,0,0,0,.43.94,1.6,1.6,0,0,0,1,.35,2.36,2.36,0,0,0,1.63-.58,1.85,1.85,0,0,0,.65-1.44Z"/><path class="cls-8" d="M68.75,126.21v-4.46a1.73,1.73,0,0,0-.37-1.22,1.85,1.85,0,0,0-2.5.21,2.8,2.8,0,0,0-.45,1.71v3.77h-.81v-4.49a1.81,1.81,0,0,0-.34-1.17,1.25,1.25,0,0,0-1-.42,1.72,1.72,0,0,0-1.46.65,2.72,2.72,0,0,0-.5,1.71v3.72h-.8v-6.56h.74v1.1h0a2.26,2.26,0,0,1,2.15-1.29,2.44,2.44,0,0,1,.64.08,1.86,1.86,0,0,1,.54.24,1.66,1.66,0,0,1,.42.4,1.86,1.86,0,0,1,.28.55,2.16,2.16,0,0,1,.85-1,2.4,2.4,0,0,1,1.24-.32A2.12,2.12,0,0,1,69,120a2.36,2.36,0,0,1,.54,1.66v4.51Z"/><path class="cls-8" d="M74.31,119.46a2.71,2.71,0,0,1,1.3.29,2.6,2.6,0,0,1,.9.79,3.45,3.45,0,0,1,.52,1.13A5.21,5.21,0,0,1,77.2,123v.13H72.15a3.58,3.58,0,0,0,.13.94,2.59,2.59,0,0,0,.39.83,2,2,0,0,0,.66.59,1.92,1.92,0,0,0,.95.22,2.44,2.44,0,0,0,.7-.09,2,2,0,0,0,.56-.26,1.76,1.76,0,0,0,.42-.39,2.41,2.41,0,0,0,.29-.49H77a3,3,0,0,1-.38.79,2.48,2.48,0,0,1-.59.6,2.68,2.68,0,0,1-.79.39,3.34,3.34,0,0,1-1,.14,2.94,2.94,0,0,1-1.3-.27,2.56,2.56,0,0,1-.91-.73,3.12,3.12,0,0,1-.54-1.1,5.14,5.14,0,0,1-.18-1.37,4.66,4.66,0,0,1,.18-1.28,3.36,3.36,0,0,1,.54-1.11,2.74,2.74,0,0,1,.92-.78A2.79,2.79,0,0,1,74.31,119.46Zm2.09,3a3,3,0,0,0-.16-.85,2.44,2.44,0,0,0-.41-.75,2.07,2.07,0,0,0-.65-.54,1.84,1.84,0,0,0-.88-.21,1.84,1.84,0,0,0-1.5.7,2.7,2.7,0,0,0-.42.75,4.31,4.31,0,0,0-.23.9Z"/><path class="cls-8" d="M81.52,126.27h-.66a3,3,0,0,1-.68-.06,1,1,0,0,1-.45-.23.89.89,0,0,1-.25-.43,2.65,2.65,0,0,1-.07-.68v-4.56H78.09v-.67h1.32v-2h.8v2h1.5v.67h-1.5v4.48a1.76,1.76,0,0,0,0,.34.64.64,0,0,0,.11.25.5.5,0,0,0,.21.16.87.87,0,0,0,.35.06h.6l.21,0v.68Z"/><path class="cls-8" d="M85.88,119.46a2.71,2.71,0,0,1,1.3.29,2.6,2.6,0,0,1,.9.79,3.45,3.45,0,0,1,.52,1.13,5.21,5.21,0,0,1,.17,1.34v.13H83.71a3.58,3.58,0,0,0,.13.94,2.59,2.59,0,0,0,.39.83,2,2,0,0,0,.66.59,1.92,1.92,0,0,0,.95.22,2.44,2.44,0,0,0,.7-.09,2,2,0,0,0,.56-.26,1.76,1.76,0,0,0,.42-.39,2.41,2.41,0,0,0,.29-.49h.79a3,3,0,0,1-.38.79,2.48,2.48,0,0,1-.59.6,2.68,2.68,0,0,1-.79.39,3.34,3.34,0,0,1-1,.14,2.94,2.94,0,0,1-1.3-.27,2.56,2.56,0,0,1-.91-.73,3.12,3.12,0,0,1-.54-1.1,5.14,5.14,0,0,1-.18-1.37,4.66,4.66,0,0,1,.18-1.28,3.36,3.36,0,0,1,.54-1.11,2.74,2.74,0,0,1,.92-.78A2.79,2.79,0,0,1,85.88,119.46Zm2.09,3a3,3,0,0,0-.16-.85,2.44,2.44,0,0,0-.41-.75,2.07,2.07,0,0,0-.65-.54,1.84,1.84,0,0,0-.88-.21,1.84,1.84,0,0,0-1.5.7,2.7,2.7,0,0,0-.42.75,4.31,4.31,0,0,0-.23.9Z"/><path class="cls-8" d="M90.44,126.21v-6.56h.74v1.54h0a2.56,2.56,0,0,1,.9-1.2,2.32,2.32,0,0,1,1.38-.43h.29v.8h-.18a2.22,2.22,0,0,0-1.71.69,2.36,2.36,0,0,0-.64,1.69v3.48Z"/><path class="cls-8" d="M101,117.49a3.57,3.57,0,0,1,1,.13,2.67,2.67,0,0,1,.85.41,2.08,2.08,0,0,1,.6.69,2,2,0,0,1,.23,1,2.22,2.22,0,0,1-.1.66,1.82,1.82,0,0,1-.28.56,1.77,1.77,0,0,1-.45.42,2.14,2.14,0,0,1-.62.27v0a2.06,2.06,0,0,1,1.33.74,2.21,2.21,0,0,1,.45,1.39,2.41,2.41,0,0,1-.84,1.91,2.78,2.78,0,0,1-1,.55,3.78,3.78,0,0,1-1.21.18,3.66,3.66,0,0,1-1.12-.17,2.8,2.8,0,0,1-.92-.49,2.34,2.34,0,0,1-.63-.78,2.28,2.28,0,0,1-.23-1v-.18h.79v.16a1.74,1.74,0,0,0,.56,1.28,2,2,0,0,0,.66.4,2.45,2.45,0,0,0,.88.15,2.7,2.7,0,0,0,.91-.13,2.21,2.21,0,0,0,.69-.4,1.7,1.7,0,0,0,.64-1.38,1.89,1.89,0,0,0-.14-.75,1.64,1.64,0,0,0-.42-.58,2.22,2.22,0,0,0-1.53-.5h-.64v-.66h.69a1.86,1.86,0,0,0,1.21-.42,1.42,1.42,0,0,0,.52-1.15,1.59,1.59,0,0,0-.15-.71,1.48,1.48,0,0,0-.4-.51,1.73,1.73,0,0,0-.6-.31,2.56,2.56,0,0,0-.73-.1,2.1,2.1,0,0,0-.81.15,1.8,1.8,0,0,0-.61.41,1.82,1.82,0,0,0-.39.6,2,2,0,0,0-.13.73H98.3a2.44,2.44,0,0,1,.18-.92,2.53,2.53,0,0,1,.53-.82,2.7,2.7,0,0,1,.86-.59A2.82,2.82,0,0,1,101,117.49Z"/><path class="cls-8" d="M40.48,151.09a2.34,2.34,0,0,1-.7,1.8,2.55,2.55,0,0,1-1.8.64h-3v3.67h-.82v-8.57H38a2.53,2.53,0,0,1,1.8.65A2.33,2.33,0,0,1,40.48,151.09Zm-.81,0a1.68,1.68,0,0,0-.5-1.29,2.11,2.11,0,0,0-1.49-.46H34.95v3.5H37.8a2,2,0,0,0,1.35-.45A1.65,1.65,0,0,0,39.66,151.09Z"/><path class="cls-8" d="M47.37,157.16l-.27,0h-.24a1.37,1.37,0,0,1-.44-.06.65.65,0,0,1-.29-.2.82.82,0,0,1-.16-.35,2.43,2.43,0,0,1,0-.53h0a3,3,0,0,1-1,1,2.79,2.79,0,0,1-1.35.29,2.46,2.46,0,0,1-1.6-.5,1.75,1.75,0,0,1-.6-1.43,1.66,1.66,0,0,1,.66-1.43,6.79,6.79,0,0,1,3-.69,2,2,0,0,0,.44-.08.75.75,0,0,0,.29-.16.6.6,0,0,0,.16-.26,1.28,1.28,0,0,0,0-.38,1.24,1.24,0,0,0-.4-1,2,2,0,0,0-1.31-.34,2.61,2.61,0,0,0-.72.09,1.65,1.65,0,0,0-.53.25,1.13,1.13,0,0,0-.33.39,1.23,1.23,0,0,0-.13.49h-.8a2,2,0,0,1,.22-.78,1.78,1.78,0,0,1,.51-.59,2.43,2.43,0,0,1,.81-.38,4,4,0,0,1,1.09-.13,2.64,2.64,0,0,1,1.83.54,2,2,0,0,1,.59,1.52v3.56a.47.47,0,0,0,.11.33.46.46,0,0,0,.36.12.7.7,0,0,0,.25,0Zm-1.52-3.54h0q-.12.22-.77.31l-.67.1-.74.12a2.67,2.67,0,0,0-1.17.44,1,1,0,0,0-.39.84,1.16,1.16,0,0,0,.43.94,1.6,1.6,0,0,0,1,.35,2.36,2.36,0,0,0,1.63-.58,1.85,1.85,0,0,0,.65-1.44Z"/><path class="cls-8" d="M48.8,157.21v-6.56h.74v1.54h0a2.56,2.56,0,0,1,.9-1.2,2.32,2.32,0,0,1,1.38-.43h.29v.8H52a2.22,2.22,0,0,0-1.71.69,2.36,2.36,0,0,0-.64,1.69v3.48Z"/><path class="cls-8" d="M59,157.16l-.27,0h-.24a1.37,1.37,0,0,1-.44-.06.65.65,0,0,1-.29-.2.82.82,0,0,1-.16-.35,2.43,2.43,0,0,1,0-.53h0a3,3,0,0,1-1,1,2.79,2.79,0,0,1-1.35.29,2.46,2.46,0,0,1-1.6-.5,1.75,1.75,0,0,1-.6-1.43,1.66,1.66,0,0,1,.66-1.43,6.79,6.79,0,0,1,3-.69,2,2,0,0,0,.44-.08.75.75,0,0,0,.29-.16.6.6,0,0,0,.16-.26,1.28,1.28,0,0,0,0-.38,1.24,1.24,0,0,0-.4-1,2,2,0,0,0-1.31-.34,2.61,2.61,0,0,0-.72.09,1.65,1.65,0,0,0-.53.25,1.13,1.13,0,0,0-.33.39,1.23,1.23,0,0,0-.13.49h-.8a2,2,0,0,1,.22-.78A1.78,1.78,0,0,1,54,151a2.43,2.43,0,0,1,.81-.38,4,4,0,0,1,1.09-.13,2.64,2.64,0,0,1,1.83.54,2,2,0,0,1,.59,1.52v3.56a.47.47,0,0,0,.11.33.46.46,0,0,0,.36.12.7.7,0,0,0,.25,0Zm-1.52-3.54h0q-.12.22-.77.31l-.67.1-.74.12a2.67,2.67,0,0,0-1.17.44,1,1,0,0,0-.39.84,1.16,1.16,0,0,0,.43.94,1.6,1.6,0,0,0,1,.35,2.36,2.36,0,0,0,1.63-.58,1.85,1.85,0,0,0,.65-1.44Z"/><path class="cls-8" d="M68.75,157.21v-4.46a1.73,1.73,0,0,0-.37-1.22,1.85,1.85,0,0,0-2.5.21,2.8,2.8,0,0,0-.45,1.71v3.77h-.81v-4.49a1.81,1.81,0,0,0-.34-1.17,1.25,1.25,0,0,0-1-.42,1.72,1.72,0,0,0-1.46.65,2.72,2.72,0,0,0-.5,1.71v3.72h-.8v-6.56h.74v1.1h0a2.26,2.26,0,0,1,2.15-1.29,2.44,2.44,0,0,1,.64.08,1.86,1.86,0,0,1,.54.24,1.66,1.66,0,0,1,.42.4,1.86,1.86,0,0,1,.28.55,2.16,2.16,0,0,1,.85-1,2.4,2.4,0,0,1,1.24-.32A2.12,2.12,0,0,1,69,151a2.36,2.36,0,0,1,.54,1.66v4.51Z"/><path class="cls-8" d="M74.31,150.46a2.71,2.71,0,0,1,1.3.29,2.6,2.6,0,0,1,.9.79,3.45,3.45,0,0,1,.52,1.13A5.21,5.21,0,0,1,77.2,154v.13H72.15a3.58,3.58,0,0,0,.13.94,2.59,2.59,0,0,0,.39.83,2,2,0,0,0,.66.59,1.92,1.92,0,0,0,.95.22,2.44,2.44,0,0,0,.7-.09,2,2,0,0,0,.56-.26,1.76,1.76,0,0,0,.42-.39,2.41,2.41,0,0,0,.29-.49H77a3,3,0,0,1-.38.79,2.48,2.48,0,0,1-.59.6,2.68,2.68,0,0,1-.79.39,3.34,3.34,0,0,1-1,.14,2.94,2.94,0,0,1-1.3-.27,2.56,2.56,0,0,1-.91-.73,3.12,3.12,0,0,1-.54-1.1,5.14,5.14,0,0,1-.18-1.37,4.66,4.66,0,0,1,.18-1.28,3.36,3.36,0,0,1,.54-1.11,2.74,2.74,0,0,1,.92-.78A2.79,2.79,0,0,1,74.31,150.46Zm2.09,3a3,3,0,0,0-.16-.85,2.44,2.44,0,0,0-.41-.75,2.07,2.07,0,0,0-.65-.54,1.84,1.84,0,0,0-.88-.21,1.84,1.84,0,0,0-1.5.7,2.7,2.7,0,0,0-.42.75,4.31,4.31,0,0,0-.23.9Z"/><path class="cls-8" d="M81.52,157.27h-.66a3,3,0,0,1-.68-.06,1,1,0,0,1-.45-.23.89.89,0,0,1-.25-.43,2.65,2.65,0,0,1-.07-.68v-4.56H78.09v-.67h1.32v-2h.8v2h1.5v.67h-1.5v4.48a1.76,1.76,0,0,0,0,.34.64.64,0,0,0,.11.25.5.5,0,0,0,.21.16.87.87,0,0,0,.35.06h.6l.21,0v.68Z"/><path class="cls-8" d="M85.88,150.46a2.71,2.71,0,0,1,1.3.29,2.6,2.6,0,0,1,.9.79,3.45,3.45,0,0,1,.52,1.13,5.21,5.21,0,0,1,.17,1.34v.13H83.71a3.58,3.58,0,0,0,.13.94,2.59,2.59,0,0,0,.39.83,2,2,0,0,0,.66.59,1.92,1.92,0,0,0,.95.22,2.44,2.44,0,0,0,.7-.09,2,2,0,0,0,.56-.26,1.76,1.76,0,0,0,.42-.39,2.41,2.41,0,0,0,.29-.49h.79a3,3,0,0,1-.38.79,2.48,2.48,0,0,1-.59.6,2.68,2.68,0,0,1-.79.39,3.34,3.34,0,0,1-1,.14,2.94,2.94,0,0,1-1.3-.27,2.56,2.56,0,0,1-.91-.73,3.12,3.12,0,0,1-.54-1.1,5.14,5.14,0,0,1-.18-1.37,4.66,4.66,0,0,1,.18-1.28,3.36,3.36,0,0,1,.54-1.11,2.74,2.74,0,0,1,.92-.78A2.79,2.79,0,0,1,85.88,150.46Zm2.09,3a3,3,0,0,0-.16-.85,2.44,2.44,0,0,0-.41-.75,2.07,2.07,0,0,0-.65-.54,1.84,1.84,0,0,0-.88-.21,1.84,1.84,0,0,0-1.5.7,2.7,2.7,0,0,0-.42.75,4.31,4.31,0,0,0-.23.9Z"/><path class="cls-8" d="M90.44,157.21v-6.56h.74v1.54h0a2.56,2.56,0,0,1,.9-1.2,2.32,2.32,0,0,1,1.38-.43h.29v.8h-.18a2.22,2.22,0,0,0-1.71.69,2.36,2.36,0,0,0-.64,1.69v3.48Z"/><path class="cls-8" d="M102.77,155.06v2.15h-.71v-2.15h-4v-.75l4-5.75h.7v5.85h1.3v.66Zm-.71-5.36h0l-3.27,4.71h3.29Z"/><path class="cls-8" d="M195.7,64.21V57.78h-2.29v-.56q.53,0,.9-.06a2.36,2.36,0,0,0,.57-.13,1.3,1.3,0,0,0,.64-.52,2.46,2.46,0,0,0,.31-1h.63v8.65Z"/><path class="cls-8" d="M202.9,55.49a2.81,2.81,0,0,1,2,.66,2.28,2.28,0,0,1,.73,1.78,2.82,2.82,0,0,1-.55,1.66,7,7,0,0,1-2,1.66,8.29,8.29,0,0,0-1.66,1.23,2,2,0,0,0-.56,1h4.81v.72h-5.7a3,3,0,0,1,.56-1.74,6.61,6.61,0,0,1,1.93-1.66,8.78,8.78,0,0,0,1.89-1.48,2.11,2.11,0,0,0,.51-1.41,1.64,1.64,0,0,0-.54-1.28,2,2,0,0,0-1.4-.49,2,2,0,0,0-.86.17,1.82,1.82,0,0,0-.61.44,1.77,1.77,0,0,0-.36.62,2.2,2.2,0,0,0-.12.71v.17h-.77v-.12a2.93,2.93,0,0,1,.17-1,2.42,2.42,0,0,1,.51-.84,2.47,2.47,0,0,1,.86-.59A3.06,3.06,0,0,1,202.9,55.49Z"/><path class="cls-8" d="M212.6,55.66v.72h-3.78l-.54,2.78,0,0a2.32,2.32,0,0,1,.82-.52,2.79,2.79,0,0,1,1-.18,3.18,3.18,0,0,1,1.2.22,2.6,2.6,0,0,1,.92.61,2.73,2.73,0,0,1,.59.94,3.43,3.43,0,0,1,.21,1.22,2.81,2.81,0,0,1-.23,1.14,2.94,2.94,0,0,1-1.61,1.56,3.12,3.12,0,0,1-1.2.23,3.29,3.29,0,0,1-1.1-.17,2.59,2.59,0,0,1-.85-.48,2.26,2.26,0,0,1-.56-.74,2.52,2.52,0,0,1-.23-1H208a1.84,1.84,0,0,0,.16.64,1.65,1.65,0,0,0,.4.54,2,2,0,0,0,.62.37,2.29,2.29,0,0,0,.83.14,2.06,2.06,0,0,0,.87-.18,2.14,2.14,0,0,0,.7-.5,2.4,2.4,0,0,0,.46-.75,2.49,2.49,0,0,0,.17-.92,2.41,2.41,0,0,0-.16-.86,2.12,2.12,0,0,0-1.14-1.2,2.2,2.2,0,0,0-.91-.18,2.55,2.55,0,0,0-1.07.23,2.22,2.22,0,0,0-.85.68h-.66l.81-4.38Z"/><path class="cls-8" d="M197.3,93.06v2.15h-.71V93.06h-4v-.75l4-5.75h.7V92.4h1.3v.66Zm-.71-5.36h0l-3.27,4.71h3.29Z"/><path class="cls-8" d="M203.14,86.49a3.17,3.17,0,0,1,.94.13,2.34,2.34,0,0,1,.75.38,2.14,2.14,0,0,1,.54.62,2.49,2.49,0,0,1,.3.83h-.78a1.7,1.7,0,0,0-.19-.51,1.45,1.45,0,0,0-.35-.42,1.67,1.67,0,0,0-.52-.28,2.16,2.16,0,0,0-.69-.1,2,2,0,0,0-1,.25,2.1,2.1,0,0,0-.75.75,3.82,3.82,0,0,0-.45,1.21,8,8,0,0,0-.15,1.65h0a2.58,2.58,0,0,1,2.31-1.44,2.74,2.74,0,0,1,2.05.81,2.83,2.83,0,0,1,.8,2.08A2.84,2.84,0,0,1,203,95.4a3.09,3.09,0,0,1-1.41-.29,2.31,2.31,0,0,1-.93-.84,4.2,4.2,0,0,1-.52-1.39,10.4,10.4,0,0,1-.17-2.05,8.43,8.43,0,0,1,.07-1.06,5.56,5.56,0,0,1,.22-1,4.46,4.46,0,0,1,.4-.89,2.83,2.83,0,0,1,.6-.72,2.66,2.66,0,0,1,.82-.48A3.07,3.07,0,0,1,203.14,86.49Zm-2.23,6a2.25,2.25,0,0,0,.57,1.63,2.11,2.11,0,0,0,1.59.59,1.91,1.91,0,0,0,1.49-.66,2.26,2.26,0,0,0,.59-1.56,2.4,2.4,0,0,0-.57-1.64,1.93,1.93,0,0,0-1.52-.65,2,2,0,0,0-1.54.63A2.3,2.3,0,0,0,200.91,92.52Z"/><path class="cls-8" d="M212.94,86.66v.71a13.7,13.7,0,0,0-1.42,1.75A13.19,13.19,0,0,0,210.45,91a11.5,11.5,0,0,0-.7,2,12.2,12.2,0,0,0-.31,2.14h-.84a12.81,12.81,0,0,1,.32-2.12,10.53,10.53,0,0,1,.67-1.93,15.67,15.67,0,0,1,2.58-3.79h-4.79v-.71Z"/><path class="cls-8" d="M198.06,117.66v.72h-3.78l-.54,2.78,0,0a2.32,2.32,0,0,1,.82-.52,2.79,2.79,0,0,1,1-.18,3.18,3.18,0,0,1,1.2.22,2.6,2.6,0,0,1,.92.61,2.73,2.73,0,0,1,.59.94,3.43,3.43,0,0,1,.21,1.22,2.81,2.81,0,0,1-.23,1.14,2.94,2.94,0,0,1-1.61,1.56,3.12,3.12,0,0,1-1.2.23,3.29,3.29,0,0,1-1.1-.17,2.59,2.59,0,0,1-.85-.48,2.26,2.26,0,0,1-.56-.74,2.52,2.52,0,0,1-.23-1h.79a1.84,1.84,0,0,0,.16.64,1.65,1.65,0,0,0,.4.54,2,2,0,0,0,.62.37,2.29,2.29,0,0,0,.83.14,2.06,2.06,0,0,0,.87-.18,2.14,2.14,0,0,0,.7-.5,2.4,2.4,0,0,0,.46-.75,2.49,2.49,0,0,0,.17-.92,2.41,2.41,0,0,0-.16-.86,2.12,2.12,0,0,0-1.14-1.2,2.2,2.2,0,0,0-.91-.18,2.55,2.55,0,0,0-1.07.23,2.22,2.22,0,0,0-.85.68h-.66l.81-4.38Z"/><path class="cls-8" d="M205.67,117.66v.71a13.7,13.7,0,0,0-1.42,1.75,13.19,13.19,0,0,0-1.08,1.91,11.5,11.5,0,0,0-.7,2,12.2,12.2,0,0,0-.31,2.14h-.84a12.81,12.81,0,0,1,.32-2.12,10.53,10.53,0,0,1,.67-1.93,15.67,15.67,0,0,1,2.58-3.79H200.1v-.71Z"/><path class="cls-8" d="M213.16,123.79a2.36,2.36,0,0,1-.83,1.91,3.22,3.22,0,0,1-2.16.7,3.18,3.18,0,0,1-2.16-.71,2.52,2.52,0,0,1-.7-2.64,2.28,2.28,0,0,1,.35-.67,2.18,2.18,0,0,1,1.28-.81v0a2.05,2.05,0,0,1-1.06-.72,2,2,0,0,1-.35-1.18,1.9,1.9,0,0,1,.76-1.57,2.91,2.91,0,0,1,1.86-.59,3,3,0,0,1,1.88.59,1.88,1.88,0,0,1,.76,1.57,2.2,2.2,0,0,1-.09.65,1.81,1.81,0,0,1-.72,1,2.1,2.1,0,0,1-.6.28v0a2.18,2.18,0,0,1,1.32.76A2.29,2.29,0,0,1,213.16,123.79Zm-.78,0a1.75,1.75,0,0,0-.59-1.35,2.78,2.78,0,0,0-3.24,0,1.76,1.76,0,0,0-.57,1.37,1.79,1.79,0,0,0,.6,1.42,2.7,2.7,0,0,0,3.2,0A1.79,1.79,0,0,0,212.38,123.79Zm-.36-4.14a1.35,1.35,0,0,0-.5-1.1,2.37,2.37,0,0,0-2.67,0,1.3,1.3,0,0,0-.53,1.09,1.48,1.48,0,0,0,.49,1.18,2,2,0,0,0,1.32.43,2,2,0,0,0,1.41-.45A1.52,1.52,0,0,0,212,119.65Z"/><path class="cls-8" d="M198.06,148.66v.72h-3.78l-.54,2.78,0,0a2.32,2.32,0,0,1,.82-.52,2.79,2.79,0,0,1,1-.18,3.18,3.18,0,0,1,1.2.22,2.6,2.6,0,0,1,.92.61,2.73,2.73,0,0,1,.59.94,3.43,3.43,0,0,1,.21,1.22,2.81,2.81,0,0,1-.23,1.14,2.94,2.94,0,0,1-1.61,1.56,3.12,3.12,0,0,1-1.2.23,3.29,3.29,0,0,1-1.1-.17,2.59,2.59,0,0,1-.85-.48,2.26,2.26,0,0,1-.56-.74,2.52,2.52,0,0,1-.23-1h.79a1.84,1.84,0,0,0,.16.64,1.65,1.65,0,0,0,.4.54,2,2,0,0,0,.62.37,2.29,2.29,0,0,0,.83.14,2.06,2.06,0,0,0,.87-.18,2.14,2.14,0,0,0,.7-.5,2.4,2.4,0,0,0,.46-.75,2.49,2.49,0,0,0,.17-.92,2.41,2.41,0,0,0-.16-.86,2.12,2.12,0,0,0-1.14-1.2,2.2,2.2,0,0,0-.91-.18,2.55,2.55,0,0,0-1.07.23,2.22,2.22,0,0,0-.85.68h-.66l.81-4.38Z"/><path class="cls-8" d="M205.89,154.79a2.36,2.36,0,0,1-.83,1.91,3.22,3.22,0,0,1-2.16.7,3.18,3.18,0,0,1-2.16-.71,2.52,2.52,0,0,1-.7-2.64,2.28,2.28,0,0,1,.35-.67,2.18,2.18,0,0,1,1.28-.81v0a2.05,2.05,0,0,1-1.06-.72,2,2,0,0,1-.35-1.18,1.9,1.9,0,0,1,.76-1.57,2.91,2.91,0,0,1,1.86-.59,3,3,0,0,1,1.88.59,1.88,1.88,0,0,1,.76,1.57,2.2,2.2,0,0,1-.09.65,1.81,1.81,0,0,1-.72,1,2.1,2.1,0,0,1-.6.28v0a2.18,2.18,0,0,1,1.32.76A2.29,2.29,0,0,1,205.89,154.79Zm-.78,0a1.75,1.75,0,0,0-.59-1.35,2.78,2.78,0,0,0-3.24,0,1.76,1.76,0,0,0-.57,1.37,1.79,1.79,0,0,0,.6,1.42,2.7,2.7,0,0,0,3.2,0A1.79,1.79,0,0,0,205.11,154.79Zm-.36-4.14a1.35,1.35,0,0,0-.5-1.1,2.37,2.37,0,0,0-2.67,0,1.3,1.3,0,0,0-.53,1.09,1.48,1.48,0,0,0,.49,1.18,2,2,0,0,0,1.32.43,2,2,0,0,0,1.41-.45A1.52,1.52,0,0,0,204.75,150.65Z"/><path class="cls-8" d="M282.7,64.21V57.78h-2.29v-.56q.53,0,.9-.06a2.36,2.36,0,0,0,.57-.13,1.3,1.3,0,0,0,.64-.52,2.46,2.46,0,0,0,.31-1h.63v8.65Z"/><path class="cls-8" d="M291.56,62.06v2.15h-.71V62.06h-4v-.75l4-5.75h.7V61.4h1.3v.66Zm-.71-5.36h0l-3.27,4.71h3.29Z"/><path class="cls-8" d="M299.6,55.66v.72h-3.78l-.54,2.78,0,0a2.32,2.32,0,0,1,.82-.52,2.79,2.79,0,0,1,1-.18,3.18,3.18,0,0,1,1.2.22,2.6,2.6,0,0,1,.92.61,2.73,2.73,0,0,1,.59.94,3.43,3.43,0,0,1,.21,1.22,2.81,2.81,0,0,1-.23,1.14,2.94,2.94,0,0,1-1.61,1.56,3.12,3.12,0,0,1-1.2.23,3.29,3.29,0,0,1-1.1-.17,2.59,2.59,0,0,1-.85-.48,2.26,2.26,0,0,1-.56-.74,2.52,2.52,0,0,1-.23-1H295a1.84,1.84,0,0,0,.16.64,1.65,1.65,0,0,0,.4.54,2,2,0,0,0,.62.37,2.29,2.29,0,0,0,.83.14,2.06,2.06,0,0,0,.87-.18,2.14,2.14,0,0,0,.7-.5,2.4,2.4,0,0,0,.46-.75,2.49,2.49,0,0,0,.17-.92,2.41,2.41,0,0,0-.16-.86,2.12,2.12,0,0,0-1.14-1.2,2.2,2.2,0,0,0-.91-.18,2.55,2.55,0,0,0-1.07.23,2.22,2.22,0,0,0-.85.68h-.66l.81-4.38Z"/><path class="cls-8" d="M282.56,86.49a3.57,3.57,0,0,1,1,.13,2.67,2.67,0,0,1,.85.41,2.08,2.08,0,0,1,.6.69,2,2,0,0,1,.23,1,2.22,2.22,0,0,1-.1.66,1.82,1.82,0,0,1-.28.56,1.77,1.77,0,0,1-.45.42,2.14,2.14,0,0,1-.62.27v0a2.06,2.06,0,0,1,1.33.74,2.21,2.21,0,0,1,.45,1.39,2.41,2.41,0,0,1-.84,1.91,2.78,2.78,0,0,1-1,.55,3.78,3.78,0,0,1-1.21.18,3.66,3.66,0,0,1-1.12-.17,2.8,2.8,0,0,1-.92-.49,2.34,2.34,0,0,1-.63-.78,2.28,2.28,0,0,1-.23-1v-.18h.79v.16a1.74,1.74,0,0,0,.56,1.28,2,2,0,0,0,.66.4,2.45,2.45,0,0,0,.88.15,2.7,2.7,0,0,0,.91-.13,2.21,2.21,0,0,0,.69-.4,1.7,1.7,0,0,0,.64-1.38,1.89,1.89,0,0,0-.14-.75,1.64,1.64,0,0,0-.42-.58,2.22,2.22,0,0,0-1.53-.5H282v-.66h.69a1.86,1.86,0,0,0,1.21-.42,1.42,1.42,0,0,0,.52-1.15,1.59,1.59,0,0,0-.15-.71,1.48,1.48,0,0,0-.4-.51,1.73,1.73,0,0,0-.6-.31,2.56,2.56,0,0,0-.73-.1,2.1,2.1,0,0,0-.81.15,1.8,1.8,0,0,0-.61.41,1.82,1.82,0,0,0-.39.6,2,2,0,0,0-.13.73h-.78a2.44,2.44,0,0,1,.18-.92,2.53,2.53,0,0,1,.53-.82,2.7,2.7,0,0,1,.86-.59A2.82,2.82,0,0,1,282.56,86.49Z"/><path class="cls-8" d="M291.56,93.06v2.15h-.71V93.06h-4v-.75l4-5.75h.7V92.4h1.3v.66Zm-.71-5.36h0l-3.27,4.71h3.29Z"/><path class="cls-8" d="M299.94,86.66v.71a13.7,13.7,0,0,0-1.42,1.75A13.19,13.19,0,0,0,297.45,91a11.5,11.5,0,0,0-.7,2,12.2,12.2,0,0,0-.31,2.14h-.84a12.81,12.81,0,0,1,.32-2.12,10.53,10.53,0,0,1,.67-1.93,15.67,15.67,0,0,1,2.58-3.79h-4.79v-.71Z"/><path class="cls-8" d="M282.63,117.49a2.81,2.81,0,0,1,2,.66,2.28,2.28,0,0,1,.73,1.78,2.82,2.82,0,0,1-.55,1.66,7,7,0,0,1-2,1.66,8.29,8.29,0,0,0-1.66,1.23,2,2,0,0,0-.56,1h4.81v.72h-5.7a3,3,0,0,1,.56-1.74,6.61,6.61,0,0,1,1.93-1.66,8.78,8.78,0,0,0,1.89-1.48,2.11,2.11,0,0,0,.51-1.41,1.64,1.64,0,0,0-.54-1.28,2,2,0,0,0-1.4-.49,2,2,0,0,0-.86.17,1.82,1.82,0,0,0-.61.44,1.77,1.77,0,0,0-.36.62,2.2,2.2,0,0,0-.12.71v.17h-.77v-.12a2.93,2.93,0,0,1,.17-1,2.42,2.42,0,0,1,.51-.84,2.47,2.47,0,0,1,.86-.59A3.06,3.06,0,0,1,282.63,117.49Z"/><path class="cls-8" d="M290,126.21v-6.43h-2.29v-.56q.53,0,.9-.06a2.36,2.36,0,0,0,.57-.13,1.3,1.3,0,0,0,.64-.52,2.46,2.46,0,0,0,.31-1h.63v8.65Z"/><path class="cls-8" d="M297.16,117.49a2.87,2.87,0,0,1,1.32.29,2.48,2.48,0,0,1,.94.85A4.14,4.14,0,0,1,300,120a8.64,8.64,0,0,1,.19,1.92,5.94,5.94,0,0,1-.77,3.35,2.82,2.82,0,0,1-4.49,0,7.62,7.62,0,0,1,0-6.69A2.56,2.56,0,0,1,297.16,117.49Zm-2.23,4.45q0,3.81,2.23,3.81t2.24-3.81a5.64,5.64,0,0,0-.57-2.84,1.84,1.84,0,0,0-1.68-1,1.82,1.82,0,0,0-1.65.94A5.63,5.63,0,0,0,294.93,121.93Z"/><path class="cls-8" d="M284.3,155.06v2.15h-.71v-2.15h-4v-.75l4-5.75h.7v5.85h1.3v.66Zm-.71-5.36h0l-3.27,4.71h3.29Z"/><path class="cls-8" d="M292.33,148.66v.72h-3.78l-.54,2.78,0,0a2.32,2.32,0,0,1,.82-.52,2.79,2.79,0,0,1,1-.18,3.18,3.18,0,0,1,1.2.22,2.6,2.6,0,0,1,.92.61,2.73,2.73,0,0,1,.59.94,3.43,3.43,0,0,1,.21,1.22,2.81,2.81,0,0,1-.23,1.14,2.94,2.94,0,0,1-1.61,1.56,3.12,3.12,0,0,1-1.2.23,3.29,3.29,0,0,1-1.1-.17,2.59,2.59,0,0,1-.85-.48,2.26,2.26,0,0,1-.56-.74,2.52,2.52,0,0,1-.23-1h.79a1.84,1.84,0,0,0,.16.64,1.65,1.65,0,0,0,.4.54,2,2,0,0,0,.62.37,2.29,2.29,0,0,0,.83.14,2.06,2.06,0,0,0,.87-.18,2.14,2.14,0,0,0,.7-.5,2.4,2.4,0,0,0,.46-.75,2.49,2.49,0,0,0,.17-.92,2.41,2.41,0,0,0-.16-.86,2.12,2.12,0,0,0-1.14-1.2,2.2,2.2,0,0,0-.91-.18,2.55,2.55,0,0,0-1.07.23,2.22,2.22,0,0,0-.85.68h-.66l.81-4.38Z"/><path class="cls-6" d="M371.29,28.78a3.75,3.75,0,0,1,1.1.15,2.88,2.88,0,0,1,.89.44,2.44,2.44,0,0,1,.64.71,2.65,2.65,0,0,1,.34.94H373a1.57,1.57,0,0,0-.21-.47,1.5,1.5,0,0,0-.37-.38,1.82,1.82,0,0,0-.52-.26,2.11,2.11,0,0,0-.65-.1,2.08,2.08,0,0,0-1,.22,2.06,2.06,0,0,0-.7.6,2.61,2.61,0,0,0-.42.86,3.79,3.79,0,0,0,0,2,2.57,2.57,0,0,0,.4.85,2,2,0,0,0,1.7.83,2,2,0,0,0,.71-.12,1.68,1.68,0,0,0,.55-.33,1.7,1.7,0,0,0,.38-.51,2.22,2.22,0,0,0,.2-.65h1.22a3.5,3.5,0,0,1-.29,1A2.66,2.66,0,0,1,372.51,36a3.45,3.45,0,0,1-1.24.21,3.54,3.54,0,0,1-1.43-.28,3.21,3.21,0,0,1-1.1-.78,3.44,3.44,0,0,1-.7-1.17,4.35,4.35,0,0,1-.24-1.48,4.44,4.44,0,0,1,.23-1.43,3.56,3.56,0,0,1,.67-1.19,3.2,3.2,0,0,1,1.09-.82A3.49,3.49,0,0,1,371.29,28.78Z"/><path class="cls-6" d="M382.2,32.52a3.86,3.86,0,0,1-.95,2.66,3.21,3.21,0,0,1-2.51,1.05,3.64,3.64,0,0,1-1.36-.24,3.21,3.21,0,0,1-1.1-.75,3.36,3.36,0,0,1-.75-1.22,4.46,4.46,0,0,1-.25-1.51,3.9,3.9,0,0,1,.95-2.7,3.21,3.21,0,0,1,2.51-1.05,3.69,3.69,0,0,1,1.37.25,3,3,0,0,1,1.1.76A3.35,3.35,0,0,1,382,31,4.76,4.76,0,0,1,382.2,32.52Zm-1.25,0a3.07,3.07,0,0,0-.59-2,2.14,2.14,0,0,0-3.25,0,3.08,3.08,0,0,0-.58,2,3,3,0,0,0,.58,1.91,2.16,2.16,0,0,0,3.26,0A3,3,0,0,0,380.94,32.52Z"/><path class="cls-6" d="M389.92,36.07V30.34h0l-2,5.73H386.8l-2-5.7h0v5.7h-1.18V28.94h1.83l2,5.56h0l1.91-5.56h1.82v7.13Z"/><path class="cls-6" d="M399.21,36.07V30.34h0l-2,5.73h-1.08l-2-5.7h0v5.7h-1.18V28.94h1.83l2,5.56h0l1.91-5.56h1.82v7.13Z"/><path class="cls-6" d="M407.33,28.94V30h-3.94v1.9H407v1h-3.64V35h4v1h-5.25V28.94Z"/><path class="cls-6" d="M410,28.93l3.4,5.3h0v-5.3h1.19v7.14h-1.27l-3.4-5.3h0v5.3h-1.19V28.93Z"/><path class="cls-6" d="M421.39,28.93V30h-2.27v6.08h-1.25V30h-2.27V28.93Z"/><path class="cls-8" d="M372,86.48a4.19,4.19,0,0,1,1.21.17,3.47,3.47,0,0,1,1,.49,2.86,2.86,0,0,1,1.17,1.79h-.81a2.57,2.57,0,0,0-.34-.7,2.26,2.26,0,0,0-.55-.56,2.68,2.68,0,0,0-.75-.37,3.37,3.37,0,0,0-2.34.17,3,3,0,0,0-1,.82,3.62,3.62,0,0,0-.62,1.2,4.87,4.87,0,0,0-.21,1.44,5.18,5.18,0,0,0,.08.94,4.26,4.26,0,0,0,.26.88,3.66,3.66,0,0,0,.44.78,2.93,2.93,0,0,0,.62.62,2.86,2.86,0,0,0,.81.41,3.23,3.23,0,0,0,1,.15,2.8,2.8,0,0,0,1.06-.19,2.55,2.55,0,0,0,.82-.52,2.7,2.7,0,0,0,.56-.77,3.22,3.22,0,0,0,.29-.93h.81a4.09,4.09,0,0,1-.35,1.2,3.33,3.33,0,0,1-.71,1,3.23,3.23,0,0,1-1.06.67,3.8,3.8,0,0,1-1.42.25,4,4,0,0,1-1.7-.34,3.66,3.66,0,0,1-1.27-.94,4.19,4.19,0,0,1-.79-1.42,5.68,5.68,0,0,1,0-3.45,4.23,4.23,0,0,1,.77-1.42,3.72,3.72,0,0,1,1.27-1A4,4,0,0,1,372,86.48Z"/><path class="cls-8" d="M377.17,95.21V88.65h.74v1.54h0a2.56,2.56,0,0,1,.9-1.2,2.32,2.32,0,0,1,1.38-.43h.29v.8h-.18a2.22,2.22,0,0,0-1.71.69,2.36,2.36,0,0,0-.64,1.69v3.48Z"/><path class="cls-8" d="M382.63,85.78v1.29h-.8V85.78Zm0,2.87v6.56h-.8V88.65Z"/><path class="cls-8" d="M387.48,95.27h-.66a3,3,0,0,1-.68-.06,1,1,0,0,1-.45-.23.89.89,0,0,1-.25-.43,2.65,2.65,0,0,1-.07-.68V89.32h-1.32v-.67h1.32v-2h.8v2h1.5v.67h-1.5V93.8a1.76,1.76,0,0,0,0,.34.64.64,0,0,0,.11.25.5.5,0,0,0,.21.16.87.87,0,0,0,.35.06h.6l.21,0v.68Z"/><path class="cls-8" d="M390.26,85.78v1.29h-.8V85.78Zm0,2.87v6.56h-.8V88.65Z"/><path class="cls-8" d="M395.18,88.46a3.46,3.46,0,0,1,1,.13,2.53,2.53,0,0,1,.78.38,2,2,0,0,1,.56.61,2.31,2.31,0,0,1,.29.82H397a1.73,1.73,0,0,0-.22-.52,1.5,1.5,0,0,0-.37-.4,1.7,1.7,0,0,0-.53-.26,2.34,2.34,0,0,0-.68-.09,2,2,0,0,0-1,.23,2.19,2.19,0,0,0-.72.63,2.91,2.91,0,0,0-.44.9,3.58,3.58,0,0,0-.15,1,3.67,3.67,0,0,0,.14,1,2.88,2.88,0,0,0,.42.9,2.26,2.26,0,0,0,.71.65,2,2,0,0,0,1,.25,1.93,1.93,0,0,0,.71-.13,1.88,1.88,0,0,0,.56-.34,1.79,1.79,0,0,0,.39-.49,1.87,1.87,0,0,0,.21-.58h.8a3,3,0,0,1-.29.85,2.49,2.49,0,0,1-.55.7,2.54,2.54,0,0,1-.8.48,2.88,2.88,0,0,1-1,.18,3,3,0,0,1-1.29-.27,2.85,2.85,0,0,1-1-.74,3.28,3.28,0,0,1-.61-1.1,4.47,4.47,0,0,1,0-2.67,3.31,3.31,0,0,1,.59-1.11,2.9,2.9,0,0,1,1-.77A3,3,0,0,1,395.18,88.46Z"/><path class="cls-8" d="M405.28,95.16l-.27,0h-.24a1.37,1.37,0,0,1-.44-.06A.65.65,0,0,1,404,95a.82.82,0,0,1-.16-.35,2.43,2.43,0,0,1,0-.53h0a3,3,0,0,1-1,1,2.79,2.79,0,0,1-1.35.29,2.46,2.46,0,0,1-1.6-.5,1.75,1.75,0,0,1-.6-1.43,1.66,1.66,0,0,1,.66-1.43,6.79,6.79,0,0,1,3-.69,2,2,0,0,0,.44-.08.75.75,0,0,0,.29-.16.6.6,0,0,0,.16-.26,1.28,1.28,0,0,0,0-.38,1.24,1.24,0,0,0-.4-1,2,2,0,0,0-1.31-.34,2.61,2.61,0,0,0-.72.09,1.65,1.65,0,0,0-.53.25,1.13,1.13,0,0,0-.33.39,1.23,1.23,0,0,0-.13.49h-.8a2,2,0,0,1,.22-.78,1.78,1.78,0,0,1,.51-.59,2.43,2.43,0,0,1,.81-.38,4,4,0,0,1,1.09-.13A2.64,2.64,0,0,1,404,89a2,2,0,0,1,.59,1.52v3.56a.47.47,0,0,0,.11.33.46.46,0,0,0,.36.12.7.7,0,0,0,.25,0Zm-1.52-3.54h0q-.12.22-.77.31l-.67.1-.74.12a2.67,2.67,0,0,0-1.17.44,1,1,0,0,0-.39.84,1.16,1.16,0,0,0,.43.94,1.6,1.6,0,0,0,1,.35,2.36,2.36,0,0,0,1.63-.58,1.85,1.85,0,0,0,.65-1.44Z"/><path class="cls-8" d="M407.53,86.13v9.08h-.8V86.13Z"/><path class="cls-8" d="M415.94,88.46a3.46,3.46,0,0,1,1,.13,2.53,2.53,0,0,1,.78.38,2,2,0,0,1,.56.61,2.31,2.31,0,0,1,.29.82h-.8a1.73,1.73,0,0,0-.22-.52,1.5,1.5,0,0,0-.37-.4,1.7,1.7,0,0,0-.53-.26,2.34,2.34,0,0,0-.68-.09,2,2,0,0,0-1,.23,2.19,2.19,0,0,0-.72.63,2.91,2.91,0,0,0-.44.9,3.58,3.58,0,0,0-.15,1,3.67,3.67,0,0,0,.14,1,2.88,2.88,0,0,0,.42.9,2.26,2.26,0,0,0,.71.65,2,2,0,0,0,1,.25,1.93,1.93,0,0,0,.71-.13,1.88,1.88,0,0,0,.56-.34,1.79,1.79,0,0,0,.39-.49,1.87,1.87,0,0,0,.21-.58h.8a3,3,0,0,1-.29.85,2.49,2.49,0,0,1-.55.7,2.54,2.54,0,0,1-.8.48,2.88,2.88,0,0,1-1,.18,3,3,0,0,1-1.29-.27,2.85,2.85,0,0,1-1-.74,3.28,3.28,0,0,1-.61-1.1,4.47,4.47,0,0,1,0-2.67,3.31,3.31,0,0,1,.59-1.11,2.9,2.9,0,0,1,1-.77A3,3,0,0,1,415.94,88.46Z"/><path class="cls-8" d="M424.89,95.21V91.06a2.2,2.2,0,0,0-.41-1.44,1.54,1.54,0,0,0-1.25-.49,2,2,0,0,0-.87.18,1.91,1.91,0,0,0-.65.48,2.14,2.14,0,0,0-.4.71,2.66,2.66,0,0,0-.14.87v3.84h-.8V86.13h.8v3.66h0a1.89,1.89,0,0,1,.34-.56,2.12,2.12,0,0,1,.5-.42,2.43,2.43,0,0,1,.61-.26,2.46,2.46,0,0,1,.67-.09,3.35,3.35,0,0,1,1.08.16,1.83,1.83,0,0,1,.74.46,1.87,1.87,0,0,1,.43.77,3.79,3.79,0,0,1,.14,1.08v4.28Z"/><path class="cls-8" d="M433.53,95.16l-.27,0H433a1.37,1.37,0,0,1-.44-.06.65.65,0,0,1-.29-.2.82.82,0,0,1-.16-.35,2.43,2.43,0,0,1,0-.53h0a3,3,0,0,1-1,1,2.79,2.79,0,0,1-1.35.29,2.46,2.46,0,0,1-1.6-.5,1.75,1.75,0,0,1-.6-1.43,1.66,1.66,0,0,1,.66-1.43,6.79,6.79,0,0,1,3-.69,2,2,0,0,0,.44-.08.75.75,0,0,0,.29-.16.6.6,0,0,0,.16-.26,1.28,1.28,0,0,0,0-.38,1.24,1.24,0,0,0-.4-1,2,2,0,0,0-1.31-.34,2.61,2.61,0,0,0-.72.09,1.65,1.65,0,0,0-.53.25,1.13,1.13,0,0,0-.33.39,1.23,1.23,0,0,0-.13.49h-.8a2,2,0,0,1,.22-.78,1.78,1.78,0,0,1,.51-.59,2.43,2.43,0,0,1,.81-.38,4,4,0,0,1,1.09-.13,2.64,2.64,0,0,1,1.83.54,2,2,0,0,1,.59,1.52v3.56a.47.47,0,0,0,.11.33.46.46,0,0,0,.36.12.7.7,0,0,0,.25,0ZM432,91.62h0q-.12.22-.77.31l-.67.1-.74.12a2.67,2.67,0,0,0-1.17.44,1,1,0,0,0-.39.84,1.16,1.16,0,0,0,.43.94,1.6,1.6,0,0,0,1,.35,2.36,2.36,0,0,0,1.63-.58A1.85,1.85,0,0,0,432,92.7Z"/><path class="cls-8" d="M437.89,88.46a3.35,3.35,0,0,1,1.08.16,1.83,1.83,0,0,1,.74.46,1.87,1.87,0,0,1,.43.77,3.79,3.79,0,0,1,.14,1.08v4.28h-.8V91.06a2.2,2.2,0,0,0-.41-1.44,1.54,1.54,0,0,0-1.25-.49,2.07,2.07,0,0,0-.86.17,1.88,1.88,0,0,0-.65.48,2.16,2.16,0,0,0-.41.71,2.63,2.63,0,0,0-.14.88v3.84H435V88.65h.8v1.14h0a2,2,0,0,1,.35-.56,2.18,2.18,0,0,1,.49-.42,2.33,2.33,0,0,1,.6-.26A2.48,2.48,0,0,1,437.89,88.46Z"/><path class="cls-8" d="M445,88.46a2.29,2.29,0,0,1,.64.09,2.32,2.32,0,0,1,1.08.68,2.26,2.26,0,0,1,.37.56h0V88.65h.8v6.1a3.27,3.27,0,0,1-.73,2.3,2.88,2.88,0,0,1-2.21.79,4.54,4.54,0,0,1-.93-.09,2.71,2.71,0,0,1-.81-.3,1.88,1.88,0,0,1-.6-.55,1.68,1.68,0,0,1-.28-.82h.8a1.24,1.24,0,0,0,.56.81,2.33,2.33,0,0,0,1.25.28,2,2,0,0,0,1.61-.61,2.66,2.66,0,0,0,.54-1.81V93.56h0a2.53,2.53,0,0,1-.37.57,2.28,2.28,0,0,1-.5.43,2.34,2.34,0,0,1-.6.27,2.4,2.4,0,0,1-.67.09,3.16,3.16,0,0,1-1.28-.24,2.43,2.43,0,0,1-.91-.67,2.85,2.85,0,0,1-.54-1,4.64,4.64,0,0,1-.18-1.31,4,4,0,0,1,.19-1.22,3,3,0,0,1,.56-1,2.74,2.74,0,0,1,.93-.7A3,3,0,0,1,445,88.46Zm-2.16,3.29a3.49,3.49,0,0,0,.12,1,2.29,2.29,0,0,0,.38.8A1.87,1.87,0,0,0,444,94a2.13,2.13,0,0,0,1,.2,1.9,1.9,0,0,0,.91-.21,2.1,2.1,0,0,0,.67-.56,2.53,2.53,0,0,0,.42-.8,3,3,0,0,0,.14-.93,3.72,3.72,0,0,0-.12-.93,2.66,2.66,0,0,0-.37-.84,2,2,0,0,0-.66-.61,1.87,1.87,0,0,0-1-.24,2,2,0,0,0-1,.22,2,2,0,0,0-.67.59,2.55,2.55,0,0,0-.39.84A3.87,3.87,0,0,0,442.87,91.75Z"/><path class="cls-8" d="M452.71,88.46a2.71,2.71,0,0,1,1.3.29,2.6,2.6,0,0,1,.9.79,3.45,3.45,0,0,1,.52,1.13,5.21,5.21,0,0,1,.17,1.34v.13h-5.05a3.58,3.58,0,0,0,.13.94,2.59,2.59,0,0,0,.39.83,2,2,0,0,0,.66.59,1.92,1.92,0,0,0,.95.22,2.43,2.43,0,0,0,.7-.09,2,2,0,0,0,.56-.26,1.76,1.76,0,0,0,.42-.39,2.42,2.42,0,0,0,.29-.49h.79a3,3,0,0,1-.38.79,2.48,2.48,0,0,1-.59.6,2.68,2.68,0,0,1-.79.39,3.33,3.33,0,0,1-1,.14,2.94,2.94,0,0,1-1.3-.27,2.55,2.55,0,0,1-.91-.73,3.12,3.12,0,0,1-.54-1.1,5.14,5.14,0,0,1-.18-1.37,4.66,4.66,0,0,1,.18-1.28,3.36,3.36,0,0,1,.54-1.11,2.73,2.73,0,0,1,.92-.78A2.79,2.79,0,0,1,452.71,88.46Zm2.09,3a3,3,0,0,0-.16-.85,2.44,2.44,0,0,0-.41-.75,2.07,2.07,0,0,0-.65-.54,1.84,1.84,0,0,0-.88-.21,1.84,1.84,0,0,0-1.5.7,2.7,2.7,0,0,0-.42.75,4.31,4.31,0,0,0-.23.9Z"/><polygon class="cls-5" points="170.01 31 166 35 162 31 170.01 31"/><polyline class="cls-5" points="179 45 179 43 20 43 20 45"/><rect class="cls-9" x="20" y="44" width="449" height="1"/></g></svg>