<svg xmlns="http://www.w3.org/2000/svg" viewBox="0 0 530 140"><defs><style>.cls-1{fill:#f0f0f0;}.cls-2{fill:#d2d2d2;}.cls-12,.cls-13,.cls-3,.cls-7{fill:none;}.cls-3{opacity:0.1;}.cls-4{fill:#fafafa;}.cls-5{fill:#646464;}.cls-6{fill:#464646;}.cls-7{stroke:#000;opacity:0.11;}.cls-12,.cls-13,.cls-7{stroke-miterlimit:10;}.cls-8{fill:#fff;opacity:0.6;}.cls-9{fill:#e6e6e6;}.cls-10{fill:#0aaeff;}.cls-11{fill:#e1e1e1;}.cls-12{stroke:#c8c8c8;}.cls-13{stroke:#d2d2d2;}</style></defs><title>Artboard 22</title><g id="Tabeller"><rect class="cls-1" x="10.5" y="9.5" width="510" height="29"/><path class="cls-2" d="M520,10V38H11V10H520m1-1H10V39H521V9Z"/><rect class="cls-3" x="11" y="14" width="140" height="24"/><rect class="cls-4" x="11" y="39" width="140" height="30"/><rect class="cls-4" x="11" y="70" width="140" height="30"/><rect class="cls-4" x="11" y="101" width="140" height="30"/><path class="cls-5" d="M19.12,20.86l3.4,5.3h0v-5.3h1.19V28H22.45l-3.4-5.3h0V28H17.84V20.86Z"/><path class="cls-5" d="M32,24.45a3.85,3.85,0,0,1-.95,2.66,3.21,3.21,0,0,1-2.51,1.05,3.64,3.64,0,0,1-1.36-.24,3.21,3.21,0,0,1-1.1-.75A3.36,3.36,0,0,1,25.35,26a4.46,4.46,0,0,1-.25-1.51,3.9,3.9,0,0,1,.95-2.7,3.21,3.21,0,0,1,2.51-1.05,3.69,3.69,0,0,1,1.37.25,3,3,0,0,1,1.1.76,3.34,3.34,0,0,1,.74,1.24A4.73,4.73,0,0,1,32,24.45Zm-1.25,0a3.07,3.07,0,0,0-.59-2,2.14,2.14,0,0,0-3.25,0,3.08,3.08,0,0,0-.58,2,3,3,0,0,0,.58,1.91,2.16,2.16,0,0,0,3.26,0A3,3,0,0,0,30.76,24.45Z"/><path class="cls-5" d="M39.15,22.8a1.91,1.91,0,0,1-.42,1.28,1.48,1.48,0,0,1-.35.31,2.07,2.07,0,0,1-.46.21v0a1.42,1.42,0,0,1,.49.21,1.18,1.18,0,0,1,.33.35,1.62,1.62,0,0,1,.21.52,4.27,4.27,0,0,1,.08.57q0,.3,0,.61a4,4,0,0,0,.08.62,1.36,1.36,0,0,0,.2.52H38.08a3.65,3.65,0,0,1-.19-1.12,2.67,2.67,0,0,0-.38-1.47,1.13,1.13,0,0,0-.88-.34h-2V28H33.39V20.86h3.68a2.13,2.13,0,0,1,1.48.53A1.8,1.8,0,0,1,39.15,22.8ZM37.9,23a1.09,1.09,0,0,0-.32-.86,1.3,1.3,0,0,0-.89-.28H34.64v2.29h2.05a1.27,1.27,0,0,0,.85-.27A1.08,1.08,0,0,0,37.9,23Z"/><path class="cls-5" d="M164.62,22.8a1.91,1.91,0,0,1-.42,1.28,1.48,1.48,0,0,1-.35.31,2.05,2.05,0,0,1-.46.21v0a1.42,1.42,0,0,1,.49.21,1.18,1.18,0,0,1,.33.35,1.61,1.61,0,0,1,.21.52,4.27,4.27,0,0,1,.08.57q0,.3,0,.61a4,4,0,0,0,.08.62,1.37,1.37,0,0,0,.2.52h-1.27a3.65,3.65,0,0,1-.19-1.12,2.67,2.67,0,0,0-.38-1.47,1.13,1.13,0,0,0-.88-.34h-2V28h-1.25V20.86h3.68a2.13,2.13,0,0,1,1.48.53A1.8,1.8,0,0,1,164.62,22.8Zm-1.25.2a1.09,1.09,0,0,0-.32-.86,1.3,1.3,0,0,0-.89-.28H160.1v2.29h2.05a1.27,1.27,0,0,0,.85-.27A1.08,1.08,0,0,0,163.37,23Z"/><path class="cls-5" d="M172.67,24.45a3.86,3.86,0,0,1-.95,2.66,3.21,3.21,0,0,1-2.51,1.05,3.64,3.64,0,0,1-1.36-.24,3.21,3.21,0,0,1-1.1-.75A3.36,3.36,0,0,1,166,26a4.46,4.46,0,0,1-.25-1.51,3.9,3.9,0,0,1,.95-2.7,3.21,3.21,0,0,1,2.51-1.05,3.69,3.69,0,0,1,1.37.25,3,3,0,0,1,1.1.76,3.35,3.35,0,0,1,.74,1.24A4.76,4.76,0,0,1,172.67,24.45Zm-1.25,0a3.07,3.07,0,0,0-.59-2,2.14,2.14,0,0,0-3.25,0,3.08,3.08,0,0,0-.58,2,3,3,0,0,0,.58,1.91,2.16,2.16,0,0,0,3.26,0A3,3,0,0,0,171.41,24.45Z"/><path class="cls-5" d="M175.29,20.86v6.08H179V28H174V20.86Z"/><path class="cls-5" d="M181.25,20.86v6.08h3.67V28H180V20.86Z"/><path class="cls-5" d="M191.46,26a2,2,0,0,1-.24,1,2,2,0,0,1-.65.68,2.92,2.92,0,0,1-.94.39,4.9,4.9,0,0,1-1.12.12,4.3,4.3,0,0,1-1.14-.14,2.81,2.81,0,0,1-.92-.43,2.06,2.06,0,0,1-.62-.7,2,2,0,0,1-.22-1v-.08h1.23v0a1.11,1.11,0,0,0,.14.56,1.17,1.17,0,0,0,.38.4,1.75,1.75,0,0,0,.56.24,3,3,0,0,0,1.32,0,1.71,1.71,0,0,0,.52-.21,1.08,1.08,0,0,0,.35-.34.89.89,0,0,0,.13-.48.77.77,0,0,0-.31-.63,2.7,2.7,0,0,0-1-.42l-1.53-.41a2.36,2.36,0,0,1-1.2-.65,1.67,1.67,0,0,1-.39-1.16,1.86,1.86,0,0,1,.21-.91,2,2,0,0,1,.58-.66,2.69,2.69,0,0,1,.86-.4,3.85,3.85,0,0,1,1-.14,3.89,3.89,0,0,1,1,.12,2.69,2.69,0,0,1,.85.38,1.93,1.93,0,0,1,.59.64,1.88,1.88,0,0,1,.23.91H190a1,1,0,0,0-.13-.43,1.06,1.06,0,0,0-.31-.34,1.5,1.5,0,0,0-.46-.22,2.07,2.07,0,0,0-.59-.08,2.44,2.44,0,0,0-.55.06,1.46,1.46,0,0,0-.46.19,1,1,0,0,0-.31.32.88.88,0,0,0-.11.46.83.83,0,0,0,.06.33.66.66,0,0,0,.17.23.9.9,0,0,0,.26.16l.34.11,1.68.44a3.07,3.07,0,0,1,1.42.72A1.69,1.69,0,0,1,191.46,26Z"/><path class="cls-5" d="M254.12,20.86l3.4,5.3h0v-5.3h1.19V28h-1.27l-3.4-5.3h0V28h-1.19V20.86Z"/><path class="cls-5" d="M265.67,20.87v1.05h-3.94v1.9h3.64v1h-3.64V27h4v1h-5.25V20.87Z"/><path class="cls-5" d="M272.26,20.86v1.05H270V28h-1.25V21.92h-2.27V20.86Z"/><path class="cls-5" d="M275.19,24.61v1h-2.83v-1Z"/><path class="cls-5" d="M278,20.86l3.4,5.3h0v-5.3h1.19V28h-1.27L278,22.7h0V28h-1.19V20.86Z"/><path class="cls-5" d="M289.58,20.87v1.05h-3.94v1.9h3.64v1h-3.64V27h4v1H284.4V20.87Z"/><path class="cls-5" d="M296.18,20.86v1.05h-2.27V28h-1.25V21.92H290.4V20.86Z"/><path class="cls-5" d="M302.11,20.7a8.63,8.63,0,0,0-.94,2.19,9.14,9.14,0,0,0-.33,2.46,8.47,8.47,0,0,0,.32,2.32,9.4,9.4,0,0,0,.94,2.19h-.95a9.41,9.41,0,0,1-.61-1,8.4,8.4,0,0,1-.46-1.11,7.92,7.92,0,0,1-.29-1.16,7.33,7.33,0,0,1-.1-1.21,8.48,8.48,0,0,1,.09-1.19,8,8,0,0,1,.72-2.34,7.5,7.5,0,0,1,.65-1.09Z"/><path class="cls-5" d="M304.37,20.86v3.28l3.28-3.28h1.59l-2.94,2.87L309.46,28h-1.58l-2.45-3.39-1.07,1V28h-1.25V20.86Z"/><path class="cls-5" d="M313,20.7a3.65,3.65,0,0,1,1.07.15,2.94,2.94,0,0,1,.9.45,2.55,2.55,0,0,1,.66.72,2.71,2.71,0,0,1,.36,1h-1.21a1.55,1.55,0,0,0-.24-.53,1.6,1.6,0,0,0-.4-.39,1.75,1.75,0,0,0-.52-.24,2.29,2.29,0,0,0-.63-.08,2.1,2.1,0,0,0-1,.21,2,2,0,0,0-.69.58,2.53,2.53,0,0,0-.41.86,3.92,3.92,0,0,0-.13,1,3.83,3.83,0,0,0,.13,1,2.55,2.55,0,0,0,.39.85,2,2,0,0,0,.69.6,2.07,2.07,0,0,0,1,.23,2.31,2.31,0,0,0,.8-.13,1.69,1.69,0,0,0,.61-.38,1.76,1.76,0,0,0,.4-.61,2.5,2.5,0,0,0,.17-.82h-1.88v-1h3V28h-.82l-.13-1h0a2.44,2.44,0,0,1-.93.87,2.68,2.68,0,0,1-1.24.28,3.44,3.44,0,0,1-1.42-.28,3.17,3.17,0,0,1-1.08-.78,3.5,3.5,0,0,1-.69-1.18,4.37,4.37,0,0,1-.24-1.47,4.49,4.49,0,0,1,.23-1.46,3.52,3.52,0,0,1,.68-1.19,3.21,3.21,0,0,1,1.09-.81A3.45,3.45,0,0,1,313,20.7Z"/><path class="cls-5" d="M317.85,20.7a9.14,9.14,0,0,1,1.06,2.14,7.36,7.36,0,0,1,.39,2.4,8.46,8.46,0,0,1-.09,1.2,8.09,8.09,0,0,1-.26,1.19,7.72,7.72,0,0,1-.45,1.15,7.27,7.27,0,0,1-.64,1.07h-1a8.89,8.89,0,0,0,.94-2.2,9.09,9.09,0,0,0,.32-2.43,8.32,8.32,0,0,0-.33-2.34,10.09,10.09,0,0,0-.93-2.18Z"/><path class="cls-5" d="M347.94,20.7a3.65,3.65,0,0,1,1.07.15,2.94,2.94,0,0,1,.9.45,2.55,2.55,0,0,1,.66.72,2.71,2.71,0,0,1,.36,1h-1.21a1.56,1.56,0,0,0-.24-.53,1.58,1.58,0,0,0-.4-.39,1.75,1.75,0,0,0-.52-.24,2.28,2.28,0,0,0-.63-.08,2.1,2.1,0,0,0-1,.21,2,2,0,0,0-.69.58,2.53,2.53,0,0,0-.41.86,3.94,3.94,0,0,0-.13,1,3.83,3.83,0,0,0,.12,1,2.55,2.55,0,0,0,.39.85,2,2,0,0,0,.69.6,2.07,2.07,0,0,0,1,.23,2.31,2.31,0,0,0,.8-.13,1.69,1.69,0,0,0,.61-.38,1.76,1.76,0,0,0,.4-.61,2.5,2.5,0,0,0,.17-.82H348v-1h3V28h-.82l-.13-1h0a2.44,2.44,0,0,1-.93.87,2.68,2.68,0,0,1-1.24.28,3.44,3.44,0,0,1-1.42-.28,3.17,3.17,0,0,1-1.08-.78,3.5,3.5,0,0,1-.69-1.18,4.37,4.37,0,0,1-.24-1.47,4.49,4.49,0,0,1,.23-1.46,3.53,3.53,0,0,1,.68-1.19,3.21,3.21,0,0,1,1.09-.81A3.45,3.45,0,0,1,347.94,20.7Z"/><path class="cls-5" d="M358.44,22.8a1.91,1.91,0,0,1-.42,1.28,1.48,1.48,0,0,1-.35.31,2.06,2.06,0,0,1-.46.21v0a1.42,1.42,0,0,1,.49.21,1.18,1.18,0,0,1,.33.35,1.61,1.61,0,0,1,.21.52,4.27,4.27,0,0,1,.08.57q0,.3,0,.61a4,4,0,0,0,.08.62,1.38,1.38,0,0,0,.2.52h-1.27a3.66,3.66,0,0,1-.19-1.12,2.67,2.67,0,0,0-.38-1.47,1.13,1.13,0,0,0-.88-.34h-2V28h-1.25V20.86h3.68a2.13,2.13,0,0,1,1.48.53A1.8,1.8,0,0,1,358.44,22.8Zm-1.25.2a1.09,1.09,0,0,0-.32-.86,1.3,1.3,0,0,0-.89-.28h-2.05v2.29H356a1.27,1.27,0,0,0,.85-.27A1.08,1.08,0,0,0,357.19,23Z"/><path class="cls-5" d="M366.49,24.45a3.86,3.86,0,0,1-.95,2.66A3.21,3.21,0,0,1,363,28.17a3.64,3.64,0,0,1-1.37-.24,3.2,3.2,0,0,1-1.1-.75,3.36,3.36,0,0,1-.75-1.22,4.46,4.46,0,0,1-.25-1.51,3.9,3.9,0,0,1,.95-2.7A3.21,3.21,0,0,1,363,20.7a3.69,3.69,0,0,1,1.37.25,3,3,0,0,1,1.1.76,3.35,3.35,0,0,1,.74,1.24A4.76,4.76,0,0,1,366.49,24.45Zm-1.25,0a3.07,3.07,0,0,0-.59-2,2.14,2.14,0,0,0-3.25,0,3.08,3.08,0,0,0-.58,2,3,3,0,0,0,.58,1.91,2.16,2.16,0,0,0,3.26,0A3,3,0,0,0,365.23,24.45Z"/><path class="cls-5" d="M373.19,26a2,2,0,0,1-.24,1,2,2,0,0,1-.65.68,2.92,2.92,0,0,1-.94.39,4.91,4.91,0,0,1-1.12.12A4.3,4.3,0,0,1,369.1,28a2.81,2.81,0,0,1-.92-.43,2.06,2.06,0,0,1-.62-.7,2,2,0,0,1-.22-1v-.08h1.23v0a1.11,1.11,0,0,0,.14.56,1.17,1.17,0,0,0,.38.4,1.75,1.75,0,0,0,.56.24,3,3,0,0,0,1.32,0,1.71,1.71,0,0,0,.52-.21,1.09,1.09,0,0,0,.35-.34.89.89,0,0,0,.13-.48.77.77,0,0,0-.31-.63,2.7,2.7,0,0,0-1-.42l-1.53-.41A2.36,2.36,0,0,1,368,24a1.67,1.67,0,0,1-.39-1.16,1.86,1.86,0,0,1,.21-.91,2,2,0,0,1,.58-.66,2.69,2.69,0,0,1,.86-.4,3.84,3.84,0,0,1,1-.14,3.89,3.89,0,0,1,1,.12,2.69,2.69,0,0,1,.85.38,1.93,1.93,0,0,1,.59.64,1.88,1.88,0,0,1,.23.91h-1.22a1,1,0,0,0-.13-.43,1.06,1.06,0,0,0-.31-.34,1.5,1.5,0,0,0-.46-.22,2.07,2.07,0,0,0-.59-.08,2.44,2.44,0,0,0-.55.06,1.45,1.45,0,0,0-.46.19,1,1,0,0,0-.31.32.87.87,0,0,0-.11.46.83.83,0,0,0,.06.33.66.66,0,0,0,.17.23.9.9,0,0,0,.26.16l.34.11,1.68.44a3.07,3.07,0,0,1,1.42.72A1.69,1.69,0,0,1,373.19,26Z"/><path class="cls-5" d="M379.92,26a2,2,0,0,1-.24,1,2,2,0,0,1-.65.68,2.92,2.92,0,0,1-.94.39,4.9,4.9,0,0,1-1.12.12,4.3,4.3,0,0,1-1.14-.14,2.81,2.81,0,0,1-.92-.43,2.08,2.08,0,0,1-.62-.7,2,2,0,0,1-.22-1v-.08h1.23v0a1.12,1.12,0,0,0,.14.56,1.17,1.17,0,0,0,.38.4,1.76,1.76,0,0,0,.56.24,3,3,0,0,0,1.32,0,1.7,1.7,0,0,0,.52-.21,1.09,1.09,0,0,0,.35-.34.89.89,0,0,0,.13-.48.77.77,0,0,0-.31-.63,2.7,2.7,0,0,0-1-.42l-1.53-.41a2.36,2.36,0,0,1-1.2-.65,1.68,1.68,0,0,1-.39-1.16,1.87,1.87,0,0,1,.21-.91,2,2,0,0,1,.58-.66,2.69,2.69,0,0,1,.86-.4,3.84,3.84,0,0,1,1-.14,3.89,3.89,0,0,1,1,.12,2.69,2.69,0,0,1,.85.38,1.93,1.93,0,0,1,.59.64,1.87,1.87,0,0,1,.23.91h-1.22a1,1,0,0,0-.13-.43A1.06,1.06,0,0,0,378,22a1.5,1.5,0,0,0-.46-.22,2.07,2.07,0,0,0-.59-.08,2.44,2.44,0,0,0-.55.06,1.45,1.45,0,0,0-.46.19,1,1,0,0,0-.31.32.87.87,0,0,0-.11.46.83.83,0,0,0,.06.33.67.67,0,0,0,.17.23.91.91,0,0,0,.26.16l.34.11L378,24a3.07,3.07,0,0,1,1.42.72A1.69,1.69,0,0,1,379.92,26Z"/><path class="cls-5" d="M386.11,20.7a8.63,8.63,0,0,0-.94,2.19,9.16,9.16,0,0,0-.33,2.46,8.45,8.45,0,0,0,.32,2.32,9.42,9.42,0,0,0,.94,2.19h-.95a9.41,9.41,0,0,1-.61-1,8.47,8.47,0,0,1-.46-1.11,7.86,7.86,0,0,1-.29-1.16,7.28,7.28,0,0,1-.1-1.21,8.41,8.41,0,0,1,.09-1.19,8,8,0,0,1,.72-2.34,7.55,7.55,0,0,1,.65-1.09Z"/><path class="cls-5" d="M388.37,20.86v3.28l3.28-3.28h1.59l-2.94,2.87L393.46,28h-1.58l-2.45-3.39-1.07,1V28h-1.25V20.86Z"/><path class="cls-5" d="M397,20.7a3.66,3.66,0,0,1,1.07.15,2.94,2.94,0,0,1,.9.45,2.55,2.55,0,0,1,.66.72,2.72,2.72,0,0,1,.36,1h-1.21a1.55,1.55,0,0,0-.24-.53,1.58,1.58,0,0,0-.4-.39,1.74,1.74,0,0,0-.52-.24,2.28,2.28,0,0,0-.63-.08,2.1,2.1,0,0,0-1,.21,2,2,0,0,0-.69.58,2.55,2.55,0,0,0-.41.86,3.94,3.94,0,0,0-.13,1,3.83,3.83,0,0,0,.12,1,2.54,2.54,0,0,0,.39.85,2,2,0,0,0,.69.6,2.07,2.07,0,0,0,1,.23,2.31,2.31,0,0,0,.8-.13,1.7,1.7,0,0,0,.61-.38,1.76,1.76,0,0,0,.4-.61,2.51,2.51,0,0,0,.17-.82h-1.88v-1h3V28h-.82l-.13-1h0a2.44,2.44,0,0,1-.93.87,2.68,2.68,0,0,1-1.24.28,3.43,3.43,0,0,1-1.42-.28,3.17,3.17,0,0,1-1.08-.78,3.5,3.5,0,0,1-.69-1.18,4.37,4.37,0,0,1-.24-1.47A4.51,4.51,0,0,1,393.8,23a3.52,3.52,0,0,1,.68-1.19,3.2,3.2,0,0,1,1.09-.81A3.45,3.45,0,0,1,397,20.7Z"/><path class="cls-5" d="M401.84,20.7a9.12,9.12,0,0,1,1.06,2.14,7.35,7.35,0,0,1,.39,2.4,8.53,8.53,0,0,1-.09,1.2,8.09,8.09,0,0,1-.26,1.19,7.78,7.78,0,0,1-.45,1.15,7.19,7.19,0,0,1-.64,1.07h-1a8.89,8.89,0,0,0,.94-2.2,9.11,9.11,0,0,0,.32-2.43,8.32,8.32,0,0,0-.33-2.34,10.09,10.09,0,0,0-.93-2.18Z"/><path class="cls-5" d="M438,22.86a2.68,2.68,0,0,1-.11.8,1.61,1.61,0,0,1-.32.59,1.36,1.36,0,0,1-.52.37,1.86,1.86,0,0,1-.7.12,1.51,1.51,0,0,1-1.22-.49,2.16,2.16,0,0,1-.41-1.42,2.76,2.76,0,0,1,.1-.77,1.79,1.79,0,0,1,.31-.62,1.43,1.43,0,0,1,.52-.41,1.69,1.69,0,0,1,.73-.15,1.47,1.47,0,0,1,1.21.51A2.26,2.26,0,0,1,438,22.86Zm-.84,0a3.07,3.07,0,0,0,0-.54,1.4,1.4,0,0,0-.14-.42.72.72,0,0,0-.24-.27.65.65,0,0,0-.36-.1.67.67,0,0,0-.6.33,1.91,1.91,0,0,0-.21,1,3,3,0,0,0,0,.45,1.35,1.35,0,0,0,.12.4A.77.77,0,0,0,436,24a.66.66,0,0,0,.39.11.65.65,0,0,0,.61-.33A1.85,1.85,0,0,0,437.17,22.86ZM437,28.26h-.73l4.28-7.5h.71Zm5.85-2a2.77,2.77,0,0,1-.1.76,1.74,1.74,0,0,1-.31.61A1.42,1.42,0,0,1,442,28a1.71,1.71,0,0,1-.73.15,1.75,1.75,0,0,1-.71-.13,1.32,1.32,0,0,1-.51-.39,1.73,1.73,0,0,1-.31-.61,2.94,2.94,0,0,1-.1-.81,2.69,2.69,0,0,1,.1-.76,1.72,1.72,0,0,1,.31-.61,1.45,1.45,0,0,1,.52-.4,1.71,1.71,0,0,1,.73-.15,1.46,1.46,0,0,1,1.21.5A2.21,2.21,0,0,1,442.89,26.22Zm-.84,0a2.79,2.79,0,0,0,0-.51,1.37,1.37,0,0,0-.14-.41.72.72,0,0,0-.24-.27.65.65,0,0,0-.36-.1q-.81,0-.81,1.28a3.12,3.12,0,0,0,0,.45,1.48,1.48,0,0,0,.12.42.81.81,0,0,0,.24.3.63.63,0,0,0,.39.12.68.68,0,0,0,.37-.09.72.72,0,0,0,.25-.26,1.29,1.29,0,0,0,.14-.41A2.79,2.79,0,0,0,442.05,26.21Z"/><path class="cls-6" d="M33.85,52a4.63,4.63,0,0,1-1.14,3.19,3.85,3.85,0,0,1-3,1.27,4.36,4.36,0,0,1-1.64-.29,3.85,3.85,0,0,1-1.32-.9,4,4,0,0,1-.9-1.46,5.35,5.35,0,0,1-.3-1.81,4.68,4.68,0,0,1,1.14-3.24,3.85,3.85,0,0,1,3-1.27,4.43,4.43,0,0,1,1.64.3,3.58,3.58,0,0,1,1.32.92,4,4,0,0,1,.89,1.48A5.69,5.69,0,0,1,33.85,52Zm-1.51,0a3.69,3.69,0,0,0-.7-2.34,2.57,2.57,0,0,0-3.9,0A3.69,3.69,0,0,0,27,52a3.63,3.63,0,0,0,.69,2.29,2.59,2.59,0,0,0,3.91,0A3.66,3.66,0,0,0,32.34,52Z"/><path class="cls-6" d="M35.34,56.21V49.64H36.7V51h0a2.4,2.4,0,0,1,.87-1.08,2.23,2.23,0,0,1,1.29-.39h.21l.2,0V50.9l-.25,0h-.28a1.84,1.84,0,0,0-1.48.6A2.36,2.36,0,0,0,36.78,53v3.18Z"/><path class="cls-6" d="M46.46,47.13v9.08H45.09v-1h0a2.07,2.07,0,0,1-.37.5,2.16,2.16,0,0,1-.49.37,2.44,2.44,0,0,1-.59.23,2.79,2.79,0,0,1-.67.08,2.72,2.72,0,0,1-1.28-.29,2.76,2.76,0,0,1-.92-.77,3.38,3.38,0,0,1-.56-1.12A4.69,4.69,0,0,1,40,52.89a4.52,4.52,0,0,1,.18-1.26,3.34,3.34,0,0,1,.54-1.1,2.75,2.75,0,0,1,.91-.77,2.91,2.91,0,0,1,1.92-.22,2.49,2.49,0,0,1,.58.21,2.07,2.07,0,0,1,.49.35,2,2,0,0,1,.37.5h0V47.13Zm-5,5.79a3.63,3.63,0,0,0,.1.82,2.44,2.44,0,0,0,.31.76,1.81,1.81,0,0,0,.56.56,1.5,1.5,0,0,0,.83.22,1.73,1.73,0,0,0,.79-.17,1.58,1.58,0,0,0,.57-.49,2.25,2.25,0,0,0,.35-.75,3.68,3.68,0,0,0,.12-1,3.73,3.73,0,0,0-.1-.84,2.3,2.3,0,0,0-.31-.75,1.72,1.72,0,0,0-.57-.54,1.64,1.64,0,0,0-.85-.21,1.56,1.56,0,0,0-.82.2,1.7,1.7,0,0,0-.55.53,2.35,2.35,0,0,0-.32.75A3.93,3.93,0,0,0,41.43,52.92Z"/><path class="cls-6" d="M51.19,49.46a3,3,0,0,1,1.34.28,2.78,2.78,0,0,1,1,.77,3.33,3.33,0,0,1,.58,1.13A4.76,4.76,0,0,1,54.27,53v.26H49.42a2.77,2.77,0,0,0,.13.81,1.9,1.9,0,0,0,.35.63,1.55,1.55,0,0,0,.54.41,1.7,1.7,0,0,0,.72.15,1.9,1.9,0,0,0,1-.23,1.7,1.7,0,0,0,.61-.6h1.37a3.06,3.06,0,0,1-.45.81,2.83,2.83,0,0,1-.66.62,3,3,0,0,1-.85.39,3.66,3.66,0,0,1-1,.13,3.28,3.28,0,0,1-1.33-.26,2.82,2.82,0,0,1-1-.72,3.18,3.18,0,0,1-.62-1.1,4.31,4.31,0,0,1-.22-1.4,4,4,0,0,1,.22-1.33,3.3,3.3,0,0,1,.63-1.1,3,3,0,0,1,1-.76A3.16,3.16,0,0,1,51.19,49.46Zm1.63,2.85a2.77,2.77,0,0,0-.16-.71,1.73,1.73,0,0,0-.33-.55,1.43,1.43,0,0,0-.5-.35,1.91,1.91,0,0,0-1.37,0,1.51,1.51,0,0,0-.52.36,1.79,1.79,0,0,0-.35.55,2.54,2.54,0,0,0-.17.7Z"/><path class="cls-6" d="M55.78,56.21V49.64h1.37V51h0A2.4,2.4,0,0,1,58,49.89a2.23,2.23,0,0,1,1.29-.39h.21l.2,0V50.9l-.25,0h-.28a1.84,1.84,0,0,0-1.48.6A2.36,2.36,0,0,0,57.22,53v3.18Z"/><path class="cls-6" d="M63.59,49.46a3,3,0,0,1,1.34.28,2.78,2.78,0,0,1,1,.77,3.33,3.33,0,0,1,.58,1.13A4.76,4.76,0,0,1,66.67,53v.26H61.82a2.77,2.77,0,0,0,.13.81,1.9,1.9,0,0,0,.35.63,1.55,1.55,0,0,0,.54.41,1.7,1.7,0,0,0,.72.15,1.9,1.9,0,0,0,1-.23,1.7,1.7,0,0,0,.61-.6h1.37a3.06,3.06,0,0,1-.45.81,2.83,2.83,0,0,1-.66.62,3,3,0,0,1-.85.39,3.66,3.66,0,0,1-1,.13,3.28,3.28,0,0,1-1.33-.26,2.82,2.82,0,0,1-1-.72,3.18,3.18,0,0,1-.62-1.1,4.31,4.31,0,0,1-.22-1.4,4,4,0,0,1,.22-1.33,3.3,3.3,0,0,1,.63-1.1,3,3,0,0,1,1-.76A3.16,3.16,0,0,1,63.59,49.46Zm1.63,2.85a2.77,2.77,0,0,0-.16-.71,1.73,1.73,0,0,0-.33-.55,1.43,1.43,0,0,0-.5-.35,1.91,1.91,0,0,0-1.37,0,1.51,1.51,0,0,0-.52.36,1.79,1.79,0,0,0-.35.55,2.54,2.54,0,0,0-.17.7Z"/><path class="cls-6" d="M74.32,47.13v9.08H73v-1h0a2.07,2.07,0,0,1-.37.5,2.16,2.16,0,0,1-.49.37,2.44,2.44,0,0,1-.59.23,2.79,2.79,0,0,1-.67.08,2.72,2.72,0,0,1-1.28-.29,2.76,2.76,0,0,1-.92-.77A3.38,3.38,0,0,1,68,54.22a4.69,4.69,0,0,1-.19-1.33A4.52,4.52,0,0,1,68,51.63a3.34,3.34,0,0,1,.54-1.1,2.75,2.75,0,0,1,.91-.77,2.91,2.91,0,0,1,1.92-.22,2.49,2.49,0,0,1,.58.21,2.07,2.07,0,0,1,.49.35,2,2,0,0,1,.37.5h0V47.13Zm-5,5.79a3.63,3.63,0,0,0,.1.82,2.44,2.44,0,0,0,.31.76,1.81,1.81,0,0,0,.56.56,1.5,1.5,0,0,0,.83.22,1.73,1.73,0,0,0,.79-.17,1.58,1.58,0,0,0,.57-.49,2.25,2.25,0,0,0,.35-.75,3.68,3.68,0,0,0,.12-1,3.73,3.73,0,0,0-.1-.84,2.3,2.3,0,0,0-.31-.75,1.72,1.72,0,0,0-.57-.54,1.64,1.64,0,0,0-.85-.21,1.56,1.56,0,0,0-.82.2,1.7,1.7,0,0,0-.55.53,2.35,2.35,0,0,0-.32.75A3.93,3.93,0,0,0,69.3,52.92Z"/><path class="cls-6" d="M33.64,87.21V80.33h0l-2.43,6.88H29.89l-2.44-6.84h0v6.84H26V78.66h2.19l2.36,6.67h0l2.3-6.67h2.18v8.55Z"/><path class="cls-6" d="M38.52,77.78v1.42H37.07V77.78Zm0,2.86v6.57H37.07V80.64Z"/><path class="cls-6" d="M43.93,80.46a3.25,3.25,0,0,1,1.1.16,1.8,1.8,0,0,1,.74.49,2,2,0,0,1,.42.81A4.28,4.28,0,0,1,46.33,83v4.17H44.89v-3.9A2.11,2.11,0,0,0,44.57,82a1.19,1.19,0,0,0-1-.43,1.48,1.48,0,0,0-1.23.52,2.28,2.28,0,0,0-.41,1.45v3.63H40.46V80.64h1.38v1h0a2.14,2.14,0,0,1,.37-.5,2.24,2.24,0,0,1,.48-.37,2.34,2.34,0,0,1,.57-.23A2.51,2.51,0,0,1,43.93,80.46Z"/><path class="cls-6" d="M49.73,77.78v1.42H48.28V77.78Zm0,2.86v6.57H48.28V80.64Z"/><path class="cls-6" d="M60,87.21v-4a3.44,3.44,0,0,0-.05-.62,1.26,1.26,0,0,0-.19-.49,1,1,0,0,0-.39-.32,1.48,1.48,0,0,0-.63-.12,1.24,1.24,0,0,0-1.06.47,2.29,2.29,0,0,0-.35,1.38v3.74H55.84V83a1.64,1.64,0,0,0-.28-1,1.1,1.1,0,0,0-.91-.35,1.34,1.34,0,0,0-1.08.48,2,2,0,0,0-.4,1.31v3.81H51.72V80.64h1.36v1h0a2.31,2.31,0,0,1,2.06-1.15,2.27,2.27,0,0,1,1.2.3,1.71,1.71,0,0,1,.71.86,2.45,2.45,0,0,1,.87-.86,2.21,2.21,0,0,1,3.47,2v4.48Z"/><path class="cls-6" d="M67.86,87.21v-1h0a2.25,2.25,0,0,1-.39.52,2.3,2.3,0,0,1-.5.37,2.49,2.49,0,0,1-.58.23,2.54,2.54,0,0,1-.64.08,2.3,2.3,0,0,1-1.78-.63,2.81,2.81,0,0,1-.57-1.95V80.64H64.8v4a2.89,2.89,0,0,0,.08.7,1.37,1.37,0,0,0,.24.52,1,1,0,0,0,.42.32,1.82,1.82,0,0,0,1.36,0,1.37,1.37,0,0,0,.5-.43,1.86,1.86,0,0,0,.29-.66,3.72,3.72,0,0,0,.09-.85v-3.5h1.44v6.57Z"/><path class="cls-6" d="M79.42,87.21v-4a3.44,3.44,0,0,0-.05-.62,1.26,1.26,0,0,0-.19-.49,1,1,0,0,0-.39-.32,1.48,1.48,0,0,0-.63-.12,1.24,1.24,0,0,0-1.06.47,2.29,2.29,0,0,0-.35,1.38v3.74H75.29V83A1.64,1.64,0,0,0,75,82a1.1,1.1,0,0,0-.91-.35A1.34,1.34,0,0,0,73,82.1a2,2,0,0,0-.4,1.31v3.81H71.17V80.64h1.36v1h0a2.31,2.31,0,0,1,2.06-1.15,2.27,2.27,0,0,1,1.2.3,1.71,1.71,0,0,1,.71.86,2.45,2.45,0,0,1,.87-.86,2.21,2.21,0,0,1,3.47,2v4.48Z"/><path class="cls-6" d="M33.64,118.21v-6.88h0l-2.43,6.88H29.89l-2.44-6.84h0v6.84H26v-8.55h2.19l2.36,6.67h0l2.3-6.67h2.18v8.55Z"/><path class="cls-6" d="M43.16,118.21l-.44.09-.39,0a1.79,1.79,0,0,1-.42,0,.91.91,0,0,1-.34-.16.84.84,0,0,1-.24-.29,1.28,1.28,0,0,1-.12-.45h0a2.67,2.67,0,0,1-.45.46,2.3,2.3,0,0,1-.52.31,3.32,3.32,0,0,1-1.31.24,2.42,2.42,0,0,1-1.62-.51,1.77,1.77,0,0,1-.6-1.45,1.7,1.7,0,0,1,.6-1.42,2.11,2.11,0,0,1,.58-.32,4.68,4.68,0,0,1,.73-.2q.39-.08.82-.13l.87-.1.34-.07a.8.8,0,0,0,.27-.13.59.59,0,0,0,.17-.22.79.79,0,0,0,.06-.33,1,1,0,0,0-.31-.79,2.11,2.11,0,0,0-2.05,0,1,1,0,0,0-.39.73H36.91a2,2,0,0,1,.28-.9,2,2,0,0,1,.62-.62,2.88,2.88,0,0,1,.9-.36,5.08,5.08,0,0,1,1.13-.12,3.42,3.42,0,0,1,2,.5,1.65,1.65,0,0,1,.67,1.41v3.54a.47.47,0,0,0,.08.3.33.33,0,0,0,.27.1H43l.13,0Zm-2-3.35h0a1,1,0,0,1-.54.23l-.48.08-.65.11a2.2,2.2,0,0,0-1,.37.87.87,0,0,0-.32.72.89.89,0,0,0,.37.76,1.48,1.48,0,0,0,.87.24,1.79,1.79,0,0,0,1.27-.43,1.59,1.59,0,0,0,.49-1.24Z"/><path class="cls-6" d="M45.58,111.64l1.41,2,1.39-2H50l-2.23,3.11,2.47,3.47H48.58L47,115.89l-1.61,2.32H43.7l2.43-3.44-2.23-3.13Z"/><path class="cls-6" d="M52.84,108.78v1.42H51.4v-1.42Zm0,2.86v6.57H51.4v-6.57Z"/><path class="cls-6" d="M63.09,118.21v-4a3.44,3.44,0,0,0-.05-.62,1.26,1.26,0,0,0-.19-.49,1,1,0,0,0-.39-.32,1.48,1.48,0,0,0-.63-.12,1.24,1.24,0,0,0-1.06.47,2.29,2.29,0,0,0-.35,1.38v3.74H59V114a1.64,1.64,0,0,0-.28-1,1.1,1.1,0,0,0-.91-.35,1.34,1.34,0,0,0-1.08.48,2,2,0,0,0-.4,1.31v3.81H54.84v-6.57H56.2v1h0a2.31,2.31,0,0,1,2.06-1.15,2.27,2.27,0,0,1,1.2.3,1.71,1.71,0,0,1,.71.86,2.45,2.45,0,0,1,.87-.86,2.21,2.21,0,0,1,3.47,2v4.48Z"/><path class="cls-6" d="M71,118.21v-1h0a2.25,2.25,0,0,1-.39.52,2.3,2.3,0,0,1-.5.37,2.49,2.49,0,0,1-.58.23,2.54,2.54,0,0,1-.64.08,2.3,2.3,0,0,1-1.78-.63,2.81,2.81,0,0,1-.57-1.95v-4.19h1.44v4a2.89,2.89,0,0,0,.08.7,1.37,1.37,0,0,0,.24.52,1,1,0,0,0,.42.32,1.82,1.82,0,0,0,1.36,0,1.37,1.37,0,0,0,.5-.43,1.86,1.86,0,0,0,.29-.66,3.72,3.72,0,0,0,.09-.85v-3.5h1.44v6.57Z"/><path class="cls-6" d="M82.53,118.21v-4a3.44,3.44,0,0,0-.05-.62,1.26,1.26,0,0,0-.19-.49,1,1,0,0,0-.39-.32,1.48,1.48,0,0,0-.63-.12,1.24,1.24,0,0,0-1.06.47,2.29,2.29,0,0,0-.35,1.38v3.74H78.4V114a1.64,1.64,0,0,0-.28-1,1.1,1.1,0,0,0-.91-.35,1.34,1.34,0,0,0-1.08.48,2,2,0,0,0-.4,1.31v3.81H74.28v-6.57h1.36v1h0a2.31,2.31,0,0,1,2.06-1.15,2.27,2.27,0,0,1,1.2.3,1.71,1.71,0,0,1,.71.86,2.45,2.45,0,0,1,.87-.86,2.21,2.21,0,0,1,3.47,2v4.48Z"/><line class="cls-7" x1="11" y1="100.5" x2="429" y2="100.5"/><line class="cls-7" x1="11" y1="69.5" x2="429" y2="69.5"/><rect class="cls-8" x="336.5" y="69.5" width="92" height="31"/><path class="cls-2" d="M428,70v30H337V70h91m1-1H336v32h93V69Z"/><path class="cls-6" d="M386.11,88.43V82.56h-2.2v-1a6,6,0,0,0,.9-.07,2.36,2.36,0,0,0,.63-.18,1.57,1.57,0,0,0,.64-.55,2.21,2.21,0,0,0,.31-.89h1.11v8.6Z"/><path class="cls-6" d="M393.32,88.61a3.21,3.21,0,0,1-1-.14,2.49,2.49,0,0,1-.79-.41,2.29,2.29,0,0,1-.57-.65,2.45,2.45,0,0,1-.3-.86H392a1.6,1.6,0,0,0,.17.39,1.14,1.14,0,0,0,.28.31,1.3,1.3,0,0,0,.39.21,1.55,1.55,0,0,0,.5.08,1.46,1.46,0,0,0,.88-.26,2,2,0,0,0,.59-.69,3.5,3.5,0,0,0,.33-1,6.78,6.78,0,0,0,.12-1.13h0a2.16,2.16,0,0,1-.67.68,2.21,2.21,0,0,1-.9.3,2.48,2.48,0,0,1-1.37-.11,2.34,2.34,0,0,1-1.35-1,2.76,2.76,0,0,1-.49-1.62,3,3,0,0,1,.85-2.2,2.84,2.84,0,0,1,2.13-.87,3.25,3.25,0,0,1,1.42.29,2.51,2.51,0,0,1,1,.86,5.88,5.88,0,0,1,.79,3.34,7.74,7.74,0,0,1-.07,1.05,5.85,5.85,0,0,1-.23,1,4.56,4.56,0,0,1-.42.92,3,3,0,0,1-.62.75,2.77,2.77,0,0,1-.86.5A3.19,3.19,0,0,1,393.32,88.61Zm1.8-5.94a1.88,1.88,0,0,0-.45-1.3,1.53,1.53,0,0,0-1.22-.52,1.41,1.41,0,0,0-1.13.53,1.9,1.9,0,0,0-.45,1.27A2,2,0,0,0,392.3,84a1.43,1.43,0,0,0,1.17.54,1.55,1.55,0,0,0,1.2-.52A2,2,0,0,0,395.12,82.67Z"/><path class="cls-6" d="M400.82,79.69a2.66,2.66,0,0,1,2.32,1.13,5.72,5.72,0,0,1,.79,3.3,5.83,5.83,0,0,1-.79,3.35,2.92,2.92,0,0,1-4.62,0,5.81,5.81,0,0,1-.79-3.35,5.74,5.74,0,0,1,.79-3.31A2.64,2.64,0,0,1,400.82,79.69Zm-1.7,4.44a10.28,10.28,0,0,0,.07,1.25,4.18,4.18,0,0,0,.26,1.06,1.83,1.83,0,0,0,.52.74,1.28,1.28,0,0,0,.85.28,1.31,1.31,0,0,0,1.08-.51,2.12,2.12,0,0,0,.31-.56,4.17,4.17,0,0,0,.2-.69,6.33,6.33,0,0,0,.1-.77q0-.4,0-.8a9.63,9.63,0,0,0-.08-1.27,3.8,3.8,0,0,0-.28-1,1.82,1.82,0,0,0-.53-.71,1.32,1.32,0,0,0-.84-.26,1.29,1.29,0,0,0-.6.13,1.39,1.39,0,0,0-.45.37,2,2,0,0,0-.31.55,4.32,4.32,0,0,0-.19.68,6.52,6.52,0,0,0-.11.76Q399.13,83.74,399.13,84.13Z"/><path class="cls-6" d="M408.09,79.69a2.66,2.66,0,0,1,2.32,1.13,5.72,5.72,0,0,1,.79,3.3,5.83,5.83,0,0,1-.79,3.35,2.92,2.92,0,0,1-4.62,0,5.81,5.81,0,0,1-.79-3.35,5.74,5.74,0,0,1,.79-3.31A2.64,2.64,0,0,1,408.09,79.69Zm-1.7,4.44a10.28,10.28,0,0,0,.07,1.25,4.18,4.18,0,0,0,.26,1.06,1.83,1.83,0,0,0,.52.74,1.28,1.28,0,0,0,.85.28,1.31,1.31,0,0,0,1.08-.51,2.12,2.12,0,0,0,.31-.56,4.17,4.17,0,0,0,.2-.69,6.33,6.33,0,0,0,.1-.77q0-.4,0-.8a9.63,9.63,0,0,0-.08-1.27,3.8,3.8,0,0,0-.28-1,1.82,1.82,0,0,0-.53-.71,1.32,1.32,0,0,0-.84-.26,1.29,1.29,0,0,0-.6.13,1.39,1.39,0,0,0-.45.37,2,2,0,0,0-.31.55,4.32,4.32,0,0,0-.19.68,6.52,6.52,0,0,0-.11.76Q406.39,83.74,406.39,84.13Z"/><path class="cls-6" d="M415.48,79.7a3,3,0,0,1,2,.7,2.22,2.22,0,0,1,.6.83,2.77,2.77,0,0,1,.19,1.06,2.82,2.82,0,0,1-.46,1.55,5.83,5.83,0,0,1-1.78,1.54q-.5.3-.85.57a6.91,6.91,0,0,0-.58.47,2.8,2.8,0,0,0-.62.81h4.33v1.21h-6.08a3.35,3.35,0,0,1,.39-1.59,3.73,3.73,0,0,1,.51-.69,5.59,5.59,0,0,1,.74-.66l.95-.71L416,84a2.7,2.7,0,0,0,.71-.75,1.61,1.61,0,0,0,.23-.83,1.68,1.68,0,0,0-.1-.59,1.33,1.33,0,0,0-.31-.48A1.44,1.44,0,0,0,416,81a1.77,1.77,0,0,0-1.31,0,1.46,1.46,0,0,0-.5.38,1.58,1.58,0,0,0-.29.53,2,2,0,0,0-.1.61v.15h-1.34v-.15a3.14,3.14,0,0,1,.21-1.15,2.54,2.54,0,0,1,.59-.9,2.71,2.71,0,0,1,.94-.59A3.45,3.45,0,0,1,415.48,79.7Z"/><rect class="cls-8" x="336.5" y="38.5" width="92" height="31"/><path class="cls-2" d="M428,39V69H337V39h91m1-1H336V70h93V38Z"/><path class="cls-6" d="M386.42,48.7a3,3,0,0,1,2,.7,2.22,2.22,0,0,1,.6.83,2.77,2.77,0,0,1,.19,1.06,2.82,2.82,0,0,1-.46,1.55A5.83,5.83,0,0,1,387,54.37q-.5.3-.85.57a6.91,6.91,0,0,0-.58.47,2.8,2.8,0,0,0-.62.81h4.33v1.21h-6.08a3.35,3.35,0,0,1,.39-1.59,3.73,3.73,0,0,1,.51-.69,5.59,5.59,0,0,1,.74-.66l.95-.71,1.12-.83a2.7,2.7,0,0,0,.71-.75,1.61,1.61,0,0,0,.23-.83,1.68,1.68,0,0,0-.1-.59,1.33,1.33,0,0,0-.31-.48A1.44,1.44,0,0,0,387,50a1.77,1.77,0,0,0-1.31,0,1.46,1.46,0,0,0-.5.38,1.58,1.58,0,0,0-.29.53,2,2,0,0,0-.1.61v.15h-1.34v-.15a3.14,3.14,0,0,1,.21-1.15,2.54,2.54,0,0,1,.59-.9,2.71,2.71,0,0,1,.94-.59A3.45,3.45,0,0,1,386.42,48.7Z"/><path class="cls-6" d="M393.56,48.69a2.66,2.66,0,0,1,2.32,1.13,5.72,5.72,0,0,1,.79,3.3,5.83,5.83,0,0,1-.79,3.35,2.92,2.92,0,0,1-4.62,0,5.81,5.81,0,0,1-.79-3.35,5.74,5.74,0,0,1,.79-3.31A2.64,2.64,0,0,1,393.56,48.69Zm-1.7,4.44a10.28,10.28,0,0,0,.07,1.25,4.18,4.18,0,0,0,.26,1.06,1.83,1.83,0,0,0,.52.74,1.28,1.28,0,0,0,.85.28,1.31,1.31,0,0,0,1.08-.51,2.12,2.12,0,0,0,.31-.56,4.17,4.17,0,0,0,.2-.69,6.33,6.33,0,0,0,.1-.77q0-.4,0-.8a9.63,9.63,0,0,0-.08-1.27,3.8,3.8,0,0,0-.28-1,1.82,1.82,0,0,0-.53-.71,1.32,1.32,0,0,0-.84-.26,1.29,1.29,0,0,0-.6.13,1.39,1.39,0,0,0-.45.37,2,2,0,0,0-.31.55,4.32,4.32,0,0,0-.19.68,6.52,6.52,0,0,0-.11.76Q391.86,52.74,391.86,53.13Z"/><path class="cls-6" d="M400.82,48.69a2.66,2.66,0,0,1,2.32,1.13,5.72,5.72,0,0,1,.79,3.3,5.83,5.83,0,0,1-.79,3.35,2.92,2.92,0,0,1-4.62,0,5.81,5.81,0,0,1-.79-3.35,5.74,5.74,0,0,1,.79-3.31A2.64,2.64,0,0,1,400.82,48.69Zm-1.7,4.44a10.28,10.28,0,0,0,.07,1.25,4.18,4.18,0,0,0,.26,1.06,1.83,1.83,0,0,0,.52.74,1.28,1.28,0,0,0,.85.28,1.31,1.31,0,0,0,1.08-.51,2.12,2.12,0,0,0,.31-.56,4.17,4.17,0,0,0,.2-.69,6.33,6.33,0,0,0,.1-.77q0-.4,0-.8a9.63,9.63,0,0,0-.08-1.27,3.8,3.8,0,0,0-.28-1,1.82,1.82,0,0,0-.53-.71,1.32,1.32,0,0,0-.84-.26,1.29,1.29,0,0,0-.6.13,1.39,1.39,0,0,0-.45.37,2,2,0,0,0-.31.55,4.32,4.32,0,0,0-.19.68,6.52,6.52,0,0,0-.11.76Q399.13,52.74,399.13,53.13Z"/><path class="cls-6" d="M408.09,48.69a2.66,2.66,0,0,1,2.32,1.13,5.72,5.72,0,0,1,.79,3.3,5.83,5.83,0,0,1-.79,3.35,2.92,2.92,0,0,1-4.62,0,5.81,5.81,0,0,1-.79-3.35,5.74,5.74,0,0,1,.79-3.31A2.64,2.64,0,0,1,408.09,48.69Zm-1.7,4.44a10.28,10.28,0,0,0,.07,1.25,4.18,4.18,0,0,0,.26,1.06,1.83,1.83,0,0,0,.52.74,1.28,1.28,0,0,0,.85.28,1.31,1.31,0,0,0,1.08-.51,2.12,2.12,0,0,0,.31-.56,4.17,4.17,0,0,0,.2-.69,6.33,6.33,0,0,0,.1-.77q0-.4,0-.8a9.63,9.63,0,0,0-.08-1.27,3.8,3.8,0,0,0-.28-1,1.82,1.82,0,0,0-.53-.71,1.32,1.32,0,0,0-.84-.26,1.29,1.29,0,0,0-.6.13,1.39,1.39,0,0,0-.45.37,2,2,0,0,0-.31.55,4.32,4.32,0,0,0-.19.68,6.52,6.52,0,0,0-.11.76Q406.39,52.74,406.39,53.13Z"/><path class="cls-6" d="M415.36,48.69a2.66,2.66,0,0,1,2.32,1.13,5.72,5.72,0,0,1,.79,3.3,5.83,5.83,0,0,1-.79,3.35,2.92,2.92,0,0,1-4.62,0,5.81,5.81,0,0,1-.79-3.35,5.74,5.74,0,0,1,.79-3.31A2.64,2.64,0,0,1,415.36,48.69Zm-1.7,4.44a10.28,10.28,0,0,0,.07,1.25,4.18,4.18,0,0,0,.26,1.06,1.83,1.83,0,0,0,.52.74,1.28,1.28,0,0,0,.85.28,1.31,1.31,0,0,0,1.08-.51,2.12,2.12,0,0,0,.31-.56,4.17,4.17,0,0,0,.2-.69,6.33,6.33,0,0,0,.1-.77q0-.4,0-.8a9.63,9.63,0,0,0-.08-1.27,3.8,3.8,0,0,0-.28-1,1.82,1.82,0,0,0-.53-.71,1.32,1.32,0,0,0-.84-.26,1.29,1.29,0,0,0-.6.13,1.39,1.39,0,0,0-.45.37,2,2,0,0,0-.31.55,4.32,4.32,0,0,0-.19.68,6.52,6.52,0,0,0-.11.76Q413.66,52.74,413.66,53.13Z"/><rect class="cls-8" x="336.5" y="100.5" width="92" height="31"/><path class="cls-2" d="M428,101v30H337V101h91m1-1H336v32h93V100Z"/><rect class="cls-8" x="244.5" y="69.5" width="92" height="31"/><path class="cls-2" d="M336,70v30H245V70h91m1-1H244v32h93V69Z"/><path class="cls-6" d="M294.11,88.43V82.56h-2.2v-1a6,6,0,0,0,.9-.07,2.36,2.36,0,0,0,.63-.18,1.57,1.57,0,0,0,.64-.55,2.21,2.21,0,0,0,.31-.89h1.11v8.6Z"/><path class="cls-6" d="M304.72,85.94a2.37,2.37,0,0,1-.89,1.95,3.88,3.88,0,0,1-4.51,0,2.33,2.33,0,0,1-.88-1.93,2.43,2.43,0,0,1,.11-.76,2.08,2.08,0,0,1,.33-.63,2,2,0,0,1,.52-.47,2.17,2.17,0,0,1,.7-.28v0a1.81,1.81,0,0,1-1-.67,1.92,1.92,0,0,1-.33-1.14,2,2,0,0,1,.81-1.65,3.16,3.16,0,0,1,2-.62,2.91,2.91,0,0,1,2,.67,2,2,0,0,1,.76,1.58,2.14,2.14,0,0,1-.08.61,1.83,1.83,0,0,1-.25.52,1.75,1.75,0,0,1-.41.42,2,2,0,0,1-.57.28v0a2.06,2.06,0,0,1,1.24.75A2.24,2.24,0,0,1,304.72,85.94Zm-1.39,0a1.45,1.45,0,0,0-.48-1.11,1.79,1.79,0,0,0-1.27-.44,1.88,1.88,0,0,0-1.27.42,1.42,1.42,0,0,0-.49,1.13,1.53,1.53,0,0,0,.5,1.18,1.79,1.79,0,0,0,1.27.46,1.74,1.74,0,0,0,1.25-.45A1.53,1.53,0,0,0,303.32,85.9Zm-.26-3.83a1.42,1.42,0,0,0-.11-.56,1,1,0,0,0-.32-.42,1.85,1.85,0,0,0-2.14,0,1.18,1.18,0,0,0-.42.94,1.19,1.19,0,0,0,.41.94,1.85,1.85,0,0,0,2.19,0A1.21,1.21,0,0,0,303.06,82.07Z"/><path class="cls-6" d="M311.71,79.86v1.21a8.83,8.83,0,0,0-1.24,1.49,10.33,10.33,0,0,0-.95,1.83,12,12,0,0,0-.87,4h-1.49a11.75,11.75,0,0,1,.93-3.82,13.7,13.7,0,0,1,2.2-3.45H306V79.86Z"/><path class="cls-6" d="M315.86,88.61a3.21,3.21,0,0,1-1-.14,2.49,2.49,0,0,1-.79-.41,2.29,2.29,0,0,1-.57-.65,2.45,2.45,0,0,1-.3-.86h1.34a1.6,1.6,0,0,0,.17.39,1.14,1.14,0,0,0,.28.31,1.3,1.3,0,0,0,.39.21,1.55,1.55,0,0,0,.5.08,1.46,1.46,0,0,0,.88-.26,2,2,0,0,0,.59-.69,3.5,3.5,0,0,0,.33-1,6.78,6.78,0,0,0,.12-1.13h0a2.16,2.16,0,0,1-.67.68,2.21,2.21,0,0,1-.9.3,2.48,2.48,0,0,1-1.37-.11,2.34,2.34,0,0,1-1.35-1,2.76,2.76,0,0,1-.49-1.62,3,3,0,0,1,.85-2.2A2.84,2.84,0,0,1,316,79.7a3.25,3.25,0,0,1,1.42.29,2.51,2.51,0,0,1,1,.86,5.88,5.88,0,0,1,.79,3.34,7.74,7.74,0,0,1-.07,1.05,5.85,5.85,0,0,1-.23,1,4.56,4.56,0,0,1-.42.92,3,3,0,0,1-.62.75,2.77,2.77,0,0,1-.86.5A3.19,3.19,0,0,1,315.86,88.61Zm1.8-5.94a1.88,1.88,0,0,0-.45-1.3,1.53,1.53,0,0,0-1.22-.52,1.41,1.41,0,0,0-1.13.53,1.9,1.9,0,0,0-.45,1.27,2,2,0,0,0,.43,1.32,1.43,1.43,0,0,0,1.17.54,1.55,1.55,0,0,0,1.2-.52A2,2,0,0,0,317.65,82.67Z"/><path class="cls-6" d="M326.51,85.94a2.37,2.37,0,0,1-.89,1.95,3.88,3.88,0,0,1-4.51,0,2.33,2.33,0,0,1-.88-1.93,2.43,2.43,0,0,1,.11-.76,2.08,2.08,0,0,1,.33-.63,2,2,0,0,1,.52-.47,2.17,2.17,0,0,1,.7-.28v0a1.81,1.81,0,0,1-1-.67,1.92,1.92,0,0,1-.33-1.14,2,2,0,0,1,.81-1.65,3.16,3.16,0,0,1,2-.62,2.91,2.91,0,0,1,2,.67,2,2,0,0,1,.76,1.58,2.14,2.14,0,0,1-.08.61,1.83,1.83,0,0,1-.25.52,1.75,1.75,0,0,1-.41.42,2,2,0,0,1-.57.28v0a2.06,2.06,0,0,1,1.24.75A2.24,2.24,0,0,1,326.51,85.94Zm-1.39,0a1.45,1.45,0,0,0-.48-1.11,1.79,1.79,0,0,0-1.27-.44,1.88,1.88,0,0,0-1.27.42,1.42,1.42,0,0,0-.49,1.13,1.53,1.53,0,0,0,.5,1.18,1.79,1.79,0,0,0,1.27.46,1.74,1.74,0,0,0,1.25-.45A1.53,1.53,0,0,0,325.12,85.9Zm-.26-3.83a1.42,1.42,0,0,0-.11-.56,1,1,0,0,0-.32-.42,1.85,1.85,0,0,0-2.14,0,1.18,1.18,0,0,0-.42.94,1.19,1.19,0,0,0,.41.94,1.85,1.85,0,0,0,2.19,0A1.21,1.21,0,0,0,324.86,82.07Z"/><rect class="cls-8" x="244.5" y="38.5" width="92" height="31"/><path class="cls-2" d="M336,39V69H245V39h91m1-1H244V70h93V38Z"/><path class="cls-6" d="M294.11,57.43V51.56h-2.2v-1a6,6,0,0,0,.9-.07,2.36,2.36,0,0,0,.63-.18,1.57,1.57,0,0,0,.64-.55,2.21,2.21,0,0,0,.31-.89h1.11v8.6Z"/><path class="cls-6" d="M301.32,57.61a3.21,3.21,0,0,1-1-.14,2.49,2.49,0,0,1-.79-.41,2.29,2.29,0,0,1-.57-.65,2.45,2.45,0,0,1-.3-.86H300a1.6,1.6,0,0,0,.17.39,1.14,1.14,0,0,0,.28.31,1.3,1.3,0,0,0,.39.21,1.55,1.55,0,0,0,.5.08,1.46,1.46,0,0,0,.88-.26,2,2,0,0,0,.59-.69,3.5,3.5,0,0,0,.33-1,6.78,6.78,0,0,0,.12-1.13h0a2.16,2.16,0,0,1-.67.68,2.21,2.21,0,0,1-.9.3,2.48,2.48,0,0,1-1.37-.11,2.34,2.34,0,0,1-1.35-1,2.76,2.76,0,0,1-.49-1.62,3,3,0,0,1,.85-2.2,2.84,2.84,0,0,1,2.13-.87,3.25,3.25,0,0,1,1.42.29,2.51,2.51,0,0,1,1,.86,5.88,5.88,0,0,1,.79,3.34,7.74,7.74,0,0,1-.07,1.05,5.85,5.85,0,0,1-.23,1,4.56,4.56,0,0,1-.42.92,3,3,0,0,1-.62.75,2.77,2.77,0,0,1-.86.5A3.19,3.19,0,0,1,301.32,57.61Zm1.8-5.94a1.88,1.88,0,0,0-.45-1.3,1.53,1.53,0,0,0-1.22-.52,1.41,1.41,0,0,0-1.13.53,1.9,1.9,0,0,0-.45,1.27A2,2,0,0,0,300.3,53a1.43,1.43,0,0,0,1.17.54,1.55,1.55,0,0,0,1.2-.52A2,2,0,0,0,303.12,51.67Z"/><path class="cls-6" d="M311.71,48.86v1.21a8.83,8.83,0,0,0-1.24,1.49,10.33,10.33,0,0,0-.95,1.83,12,12,0,0,0-.87,4h-1.49a11.75,11.75,0,0,1,.93-3.82,13.7,13.7,0,0,1,2.2-3.45H306V48.86Z"/><path class="cls-6" d="M319.25,54.94a2.37,2.37,0,0,1-.89,1.95,3.88,3.88,0,0,1-4.51,0A2.33,2.33,0,0,1,313,55a2.43,2.43,0,0,1,.11-.76,2.08,2.08,0,0,1,.33-.63,2,2,0,0,1,.52-.47,2.17,2.17,0,0,1,.7-.28v0a1.81,1.81,0,0,1-1-.67,1.92,1.92,0,0,1-.33-1.14,2,2,0,0,1,.81-1.65,3.16,3.16,0,0,1,2-.62,2.91,2.91,0,0,1,2,.67,2,2,0,0,1,.76,1.58,2.14,2.14,0,0,1-.08.61,1.83,1.83,0,0,1-.25.52,1.75,1.75,0,0,1-.41.42,2,2,0,0,1-.57.28v0a2.06,2.06,0,0,1,1.24.75A2.24,2.24,0,0,1,319.25,54.94Zm-1.39,0a1.45,1.45,0,0,0-.48-1.11,1.79,1.79,0,0,0-1.27-.44,1.88,1.88,0,0,0-1.27.42,1.42,1.42,0,0,0-.49,1.13,1.53,1.53,0,0,0,.5,1.18,1.79,1.79,0,0,0,1.27.46,1.74,1.74,0,0,0,1.25-.45A1.53,1.53,0,0,0,317.85,54.9Zm-.26-3.83a1.42,1.42,0,0,0-.11-.56,1,1,0,0,0-.32-.42,1.85,1.85,0,0,0-2.14,0,1.18,1.18,0,0,0-.42.94A1.19,1.19,0,0,0,315,52a1.85,1.85,0,0,0,2.19,0A1.21,1.21,0,0,0,317.6,51.07Z"/><path class="cls-6" d="M326.51,54.94a2.37,2.37,0,0,1-.89,1.95,3.88,3.88,0,0,1-4.51,0,2.33,2.33,0,0,1-.88-1.93,2.43,2.43,0,0,1,.11-.76,2.08,2.08,0,0,1,.33-.63,2,2,0,0,1,.52-.47,2.17,2.17,0,0,1,.7-.28v0a1.81,1.81,0,0,1-1-.67,1.92,1.92,0,0,1-.33-1.14,2,2,0,0,1,.81-1.65,3.16,3.16,0,0,1,2-.62,2.91,2.91,0,0,1,2,.67,2,2,0,0,1,.76,1.58,2.14,2.14,0,0,1-.08.61,1.83,1.83,0,0,1-.25.52,1.75,1.75,0,0,1-.41.42,2,2,0,0,1-.57.28v0a2.06,2.06,0,0,1,1.24.75A2.24,2.24,0,0,1,326.51,54.94Zm-1.39,0a1.45,1.45,0,0,0-.48-1.11,1.79,1.79,0,0,0-1.27-.44,1.88,1.88,0,0,0-1.27.42,1.42,1.42,0,0,0-.49,1.13,1.53,1.53,0,0,0,.5,1.18,1.79,1.79,0,0,0,1.27.46,1.74,1.74,0,0,0,1.25-.45A1.53,1.53,0,0,0,325.12,54.9Zm-.26-3.83a1.42,1.42,0,0,0-.11-.56,1,1,0,0,0-.32-.42,1.85,1.85,0,0,0-2.14,0,1.18,1.18,0,0,0-.42.94,1.19,1.19,0,0,0,.41.94,1.85,1.85,0,0,0,2.19,0A1.21,1.21,0,0,0,324.86,51.07Z"/><rect class="cls-8" x="151.5" y="38.5" width="93" height="31"/><path class="cls-2" d="M244,39V69H152V39h92m1-1H151V70h94V38Z"/><path class="cls-6" d="M234,48.87V50h-3.63l-.42,2.24,0,0a2.3,2.3,0,0,1,.75-.5,2.57,2.57,0,0,1,1-.17,2.81,2.81,0,0,1,1.14.22,2.53,2.53,0,0,1,.86.62,2.71,2.71,0,0,1,.55.93,3.47,3.47,0,0,1,.19,1.17,2.93,2.93,0,0,1-.24,1.17,3,3,0,0,1-.66,1,3.13,3.13,0,0,1-1,.65,3.22,3.22,0,0,1-1.25.24,4.16,4.16,0,0,1-1.15-.15,2.71,2.71,0,0,1-.93-.46,2.33,2.33,0,0,1-.64-.76,2.65,2.65,0,0,1-.28-1.07h1.4a1.51,1.51,0,0,0,.14.5,1.33,1.33,0,0,0,.31.41,1.41,1.41,0,0,0,.48.28,2,2,0,0,0,.65.1,1.67,1.67,0,0,0,.73-.16,1.7,1.7,0,0,0,.55-.42,1.85,1.85,0,0,0,.35-.61,2.17,2.17,0,0,0,.12-.73,2.11,2.11,0,0,0-.12-.7,1.65,1.65,0,0,0-.89-1,1.74,1.74,0,0,0-.74-.15,1.76,1.76,0,0,0-1.52.76h-1.24l.84-4.6Z"/><rect class="cls-8" x="151.5" y="100.5" width="93" height="31"/><path class="cls-2" d="M244,101v30H152V101h92m1-1H151v32h94V100Z"/><path class="cls-6" d="M386.42,110.7a3,3,0,0,1,2,.7,2.22,2.22,0,0,1,.6.83,2.77,2.77,0,0,1,.19,1.06,2.82,2.82,0,0,1-.46,1.55,5.83,5.83,0,0,1-1.78,1.54q-.5.3-.85.57a6.91,6.91,0,0,0-.58.47,2.8,2.8,0,0,0-.62.81h4.33v1.21h-6.08a3.35,3.35,0,0,1,.39-1.59,3.73,3.73,0,0,1,.51-.69,5.59,5.59,0,0,1,.74-.66l.95-.71,1.12-.83a2.7,2.7,0,0,0,.71-.75,1.61,1.61,0,0,0,.23-.83,1.68,1.68,0,0,0-.1-.59,1.33,1.33,0,0,0-.31-.48,1.44,1.44,0,0,0-.47-.3,1.77,1.77,0,0,0-1.31,0,1.46,1.46,0,0,0-.5.38,1.58,1.58,0,0,0-.29.53,2,2,0,0,0-.1.61v.15h-1.34v-.15a3.14,3.14,0,0,1,.21-1.15,2.54,2.54,0,0,1,.59-.9,2.71,2.71,0,0,1,.94-.59A3.45,3.45,0,0,1,386.42,110.7Z"/><path class="cls-6" d="M393.56,110.69a2.66,2.66,0,0,1,2.32,1.13,5.72,5.72,0,0,1,.79,3.3,5.83,5.83,0,0,1-.79,3.35,2.92,2.92,0,0,1-4.62,0,5.81,5.81,0,0,1-.79-3.35,5.74,5.74,0,0,1,.79-3.31A2.64,2.64,0,0,1,393.56,110.69Zm-1.7,4.44a10.28,10.28,0,0,0,.07,1.25,4.18,4.18,0,0,0,.26,1.06,1.83,1.83,0,0,0,.52.74,1.28,1.28,0,0,0,.85.28,1.31,1.31,0,0,0,1.08-.51,2.12,2.12,0,0,0,.31-.56,4.17,4.17,0,0,0,.2-.69,6.33,6.33,0,0,0,.1-.77q0-.4,0-.8a9.63,9.63,0,0,0-.08-1.27,3.8,3.8,0,0,0-.28-1,1.82,1.82,0,0,0-.53-.71,1.32,1.32,0,0,0-.84-.26,1.29,1.29,0,0,0-.6.13,1.39,1.39,0,0,0-.45.37,2,2,0,0,0-.31.55,4.32,4.32,0,0,0-.19.68,6.52,6.52,0,0,0-.11.76Q391.86,114.74,391.86,115.13Z"/><path class="cls-6" d="M400.59,119.61a3.21,3.21,0,0,1-1-.14,2.49,2.49,0,0,1-.79-.41,2.29,2.29,0,0,1-.57-.65,2.45,2.45,0,0,1-.3-.86h1.34a1.6,1.6,0,0,0,.17.39,1.14,1.14,0,0,0,.28.31,1.3,1.3,0,0,0,.39.21,1.55,1.55,0,0,0,.5.08,1.46,1.46,0,0,0,.88-.26,2,2,0,0,0,.59-.69,3.5,3.5,0,0,0,.33-1,6.78,6.78,0,0,0,.12-1.13h0a2.16,2.16,0,0,1-.67.68,2.21,2.21,0,0,1-.9.3,2.48,2.48,0,0,1-1.37-.11,2.34,2.34,0,0,1-1.35-1,2.76,2.76,0,0,1-.49-1.62,3,3,0,0,1,.85-2.2,2.84,2.84,0,0,1,2.13-.87,3.25,3.25,0,0,1,1.42.29,2.51,2.51,0,0,1,1,.86,5.88,5.88,0,0,1,.79,3.34,7.74,7.74,0,0,1-.07,1.05,5.85,5.85,0,0,1-.23,1,4.56,4.56,0,0,1-.42.92,3,3,0,0,1-.62.75,2.77,2.77,0,0,1-.86.5A3.19,3.19,0,0,1,400.59,119.61Zm1.8-5.94a1.88,1.88,0,0,0-.45-1.3,1.53,1.53,0,0,0-1.22-.52,1.41,1.41,0,0,0-1.13.53,1.9,1.9,0,0,0-.45,1.27,2,2,0,0,0,.43,1.32,1.43,1.43,0,0,0,1.17.54,1.55,1.55,0,0,0,1.2-.52A2,2,0,0,0,402.39,113.67Z"/><path class="cls-6" d="M407.86,119.61a3.21,3.21,0,0,1-1-.14,2.49,2.49,0,0,1-.79-.41,2.29,2.29,0,0,1-.57-.65,2.45,2.45,0,0,1-.3-.86h1.34a1.6,1.6,0,0,0,.17.39,1.14,1.14,0,0,0,.28.31,1.3,1.3,0,0,0,.39.21,1.55,1.55,0,0,0,.5.08,1.46,1.46,0,0,0,.88-.26,2,2,0,0,0,.59-.69,3.5,3.5,0,0,0,.33-1,6.78,6.78,0,0,0,.12-1.13h0a2.16,2.16,0,0,1-.67.68,2.21,2.21,0,0,1-.9.3,2.48,2.48,0,0,1-1.37-.11,2.34,2.34,0,0,1-1.35-1,2.76,2.76,0,0,1-.49-1.62,3,3,0,0,1,.85-2.2,2.84,2.84,0,0,1,2.13-.87,3.25,3.25,0,0,1,1.42.29,2.51,2.51,0,0,1,1,.86,5.88,5.88,0,0,1,.79,3.34,7.74,7.74,0,0,1-.07,1.05,5.85,5.85,0,0,1-.23,1,4.56,4.56,0,0,1-.42.92,3,3,0,0,1-.62.75,2.77,2.77,0,0,1-.86.5A3.19,3.19,0,0,1,407.86,119.61Zm1.8-5.94a1.88,1.88,0,0,0-.45-1.3,1.53,1.53,0,0,0-1.22-.52,1.41,1.41,0,0,0-1.13.53,1.9,1.9,0,0,0-.45,1.27,2,2,0,0,0,.43,1.32,1.43,1.43,0,0,0,1.17.54,1.55,1.55,0,0,0,1.2-.52A2,2,0,0,0,409.65,113.67Z"/><path class="cls-6" d="M418.51,116.94a2.37,2.37,0,0,1-.89,1.95,3.88,3.88,0,0,1-4.51,0,2.33,2.33,0,0,1-.88-1.93,2.43,2.43,0,0,1,.11-.76,2.08,2.08,0,0,1,.33-.63,2,2,0,0,1,.52-.47,2.17,2.17,0,0,1,.7-.28v0a1.81,1.81,0,0,1-1-.67,1.92,1.92,0,0,1-.33-1.14,2,2,0,0,1,.81-1.65,3.16,3.16,0,0,1,2-.62,2.91,2.91,0,0,1,2,.67,2,2,0,0,1,.76,1.58,2.14,2.14,0,0,1-.08.61,1.83,1.83,0,0,1-.25.52,1.75,1.75,0,0,1-.41.42,2,2,0,0,1-.57.28v0a2.06,2.06,0,0,1,1.24.75A2.24,2.24,0,0,1,418.51,116.94Zm-1.39,0a1.45,1.45,0,0,0-.48-1.11,1.79,1.79,0,0,0-1.27-.44,1.88,1.88,0,0,0-1.27.42,1.42,1.42,0,0,0-.49,1.13,1.53,1.53,0,0,0,.5,1.18,1.79,1.79,0,0,0,1.27.46,1.74,1.74,0,0,0,1.25-.45A1.53,1.53,0,0,0,417.12,116.9Zm-.26-3.83a1.42,1.42,0,0,0-.11-.56,1,1,0,0,0-.32-.42,1.85,1.85,0,0,0-2.14,0,1.18,1.18,0,0,0-.42.94,1.19,1.19,0,0,0,.41.94,1.85,1.85,0,0,0,2.19,0A1.21,1.21,0,0,0,416.86,113.07Z"/><rect class="cls-8" x="428.5" y="69.5" width="92" height="31"/><path class="cls-2" d="M520,70v30H429V70h91m1-1H428v32h93V69Z"/><path class="cls-6" d="M499.86,88.61a3.21,3.21,0,0,1-1-.14,2.49,2.49,0,0,1-.79-.41,2.29,2.29,0,0,1-.57-.65,2.45,2.45,0,0,1-.3-.86h1.34a1.6,1.6,0,0,0,.17.39,1.14,1.14,0,0,0,.28.31,1.3,1.3,0,0,0,.39.21,1.55,1.55,0,0,0,.5.08,1.46,1.46,0,0,0,.88-.26,2,2,0,0,0,.59-.69,3.5,3.5,0,0,0,.33-1,6.78,6.78,0,0,0,.12-1.13h0a2.16,2.16,0,0,1-.67.68,2.21,2.21,0,0,1-.9.3,2.48,2.48,0,0,1-1.37-.11,2.34,2.34,0,0,1-1.35-1,2.76,2.76,0,0,1-.49-1.62,3,3,0,0,1,.85-2.2A2.84,2.84,0,0,1,500,79.7a3.25,3.25,0,0,1,1.42.29,2.51,2.51,0,0,1,1,.86,5.88,5.88,0,0,1,.79,3.34,7.74,7.74,0,0,1-.07,1.05,5.85,5.85,0,0,1-.23,1,4.56,4.56,0,0,1-.42.92,3,3,0,0,1-.62.75,2.77,2.77,0,0,1-.86.5A3.19,3.19,0,0,1,499.86,88.61Zm1.8-5.94a1.88,1.88,0,0,0-.45-1.3,1.53,1.53,0,0,0-1.22-.52,1.41,1.41,0,0,0-1.13.53,1.9,1.9,0,0,0-.45,1.27,2,2,0,0,0,.43,1.32,1.43,1.43,0,0,0,1.17.54,1.55,1.55,0,0,0,1.2-.52A2,2,0,0,0,501.65,82.67Z"/><path class="cls-6" d="M510,79.87V81h-3.63l-.42,2.24,0,0a2.3,2.3,0,0,1,.75-.5,2.57,2.57,0,0,1,1-.17,2.81,2.81,0,0,1,1.14.22,2.53,2.53,0,0,1,.86.62,2.71,2.71,0,0,1,.55.93,3.47,3.47,0,0,1,.19,1.17,2.93,2.93,0,0,1-.24,1.17,3,3,0,0,1-.66,1,3.13,3.13,0,0,1-1,.65,3.22,3.22,0,0,1-1.25.24,4.16,4.16,0,0,1-1.15-.15,2.71,2.71,0,0,1-.93-.46,2.33,2.33,0,0,1-.64-.76,2.65,2.65,0,0,1-.28-1.07h1.4a1.51,1.51,0,0,0,.14.5,1.33,1.33,0,0,0,.31.41,1.41,1.41,0,0,0,.48.28,2,2,0,0,0,.65.1,1.67,1.67,0,0,0,.73-.16,1.7,1.7,0,0,0,.55-.42,1.85,1.85,0,0,0,.35-.61,2.17,2.17,0,0,0,.12-.73,2.11,2.11,0,0,0-.12-.7,1.65,1.65,0,0,0-.89-1,1.74,1.74,0,0,0-.74-.15,1.76,1.76,0,0,0-1.52.76h-1.24l.84-4.6Z"/><rect class="cls-8" x="428.5" y="38.5" width="92" height="31"/><path class="cls-2" d="M520,39V69H429V39h91m1-1H428V70h93V38Z"/><rect class="cls-8" x="428.5" y="100.5" width="92" height="31"/><path class="cls-2" d="M520,101v30H429V101h91m1-1H428v32h93V100Z"/><path class="cls-6" d="M492.64,119.43v-5.87h-2.2v-1a6,6,0,0,0,.9-.07,2.36,2.36,0,0,0,.63-.18,1.57,1.57,0,0,0,.64-.55,2.21,2.21,0,0,0,.31-.89H494v8.6Z"/><path class="cls-6" d="M500.09,110.69a2.66,2.66,0,0,1,2.32,1.13,5.72,5.72,0,0,1,.79,3.3,5.83,5.83,0,0,1-.79,3.35,2.92,2.92,0,0,1-4.62,0,5.81,5.81,0,0,1-.79-3.35,5.74,5.74,0,0,1,.79-3.31A2.64,2.64,0,0,1,500.09,110.69Zm-1.7,4.44a10.28,10.28,0,0,0,.07,1.25,4.18,4.18,0,0,0,.26,1.06,1.83,1.83,0,0,0,.52.74,1.28,1.28,0,0,0,.85.28,1.31,1.31,0,0,0,1.08-.51,2.12,2.12,0,0,0,.31-.56,4.17,4.17,0,0,0,.2-.69,6.33,6.33,0,0,0,.1-.77q0-.4,0-.8a9.63,9.63,0,0,0-.08-1.27,3.8,3.8,0,0,0-.28-1,1.82,1.82,0,0,0-.53-.71,1.32,1.32,0,0,0-.84-.26,1.29,1.29,0,0,0-.6.13,1.39,1.39,0,0,0-.45.37,2,2,0,0,0-.31.55,4.32,4.32,0,0,0-.19.68,6.52,6.52,0,0,0-.11.76Q498.39,114.74,498.39,115.13Z"/><path class="cls-6" d="M510,110.87V112h-3.63l-.42,2.24,0,0a2.3,2.3,0,0,1,.75-.5,2.57,2.57,0,0,1,1-.17,2.81,2.81,0,0,1,1.14.22,2.53,2.53,0,0,1,.86.62,2.71,2.71,0,0,1,.55.93,3.47,3.47,0,0,1,.19,1.17,2.93,2.93,0,0,1-.24,1.17,3,3,0,0,1-.66,1,3.13,3.13,0,0,1-1,.65,3.22,3.22,0,0,1-1.25.24,4.16,4.16,0,0,1-1.15-.15,2.71,2.71,0,0,1-.93-.46,2.33,2.33,0,0,1-.64-.76,2.65,2.65,0,0,1-.28-1.07h1.4a1.51,1.51,0,0,0,.14.5,1.33,1.33,0,0,0,.31.41,1.41,1.41,0,0,0,.48.28,2,2,0,0,0,.65.1,1.67,1.67,0,0,0,.73-.16,1.7,1.7,0,0,0,.55-.42,1.85,1.85,0,0,0,.35-.61,2.17,2.17,0,0,0,.12-.73,2.11,2.11,0,0,0-.12-.7,1.65,1.65,0,0,0-.89-1,1.74,1.74,0,0,0-.74-.15,1.76,1.76,0,0,0-1.52.76h-1.24l.84-4.6Z"/><rect class="cls-8" x="244.5" y="100.5" width="92" height="31"/><path class="cls-2" d="M336,101v30H245V101h91m1-1H244v32h93V100Z"/><path class="cls-6" d="M294.42,110.7a3,3,0,0,1,2,.7,2.22,2.22,0,0,1,.6.83,2.77,2.77,0,0,1,.19,1.06,2.82,2.82,0,0,1-.46,1.55,5.83,5.83,0,0,1-1.78,1.54q-.5.3-.85.57a6.91,6.91,0,0,0-.58.47,2.8,2.8,0,0,0-.62.81h4.33v1.21h-6.08a3.35,3.35,0,0,1,.39-1.59,3.73,3.73,0,0,1,.51-.69,5.59,5.59,0,0,1,.74-.66l.95-.71,1.12-.83a2.7,2.7,0,0,0,.71-.75,1.61,1.61,0,0,0,.23-.83,1.68,1.68,0,0,0-.1-.59,1.33,1.33,0,0,0-.31-.48,1.44,1.44,0,0,0-.47-.3,1.77,1.77,0,0,0-1.31,0,1.46,1.46,0,0,0-.5.38,1.58,1.58,0,0,0-.29.53,2,2,0,0,0-.1.61v.15h-1.34v-.15a3.14,3.14,0,0,1,.21-1.15,2.54,2.54,0,0,1,.59-.9,2.71,2.71,0,0,1,.94-.59A3.45,3.45,0,0,1,294.42,110.7Z"/><path class="cls-6" d="M301.56,110.69a2.66,2.66,0,0,1,2.32,1.13,5.72,5.72,0,0,1,.79,3.3,5.83,5.83,0,0,1-.79,3.35,2.92,2.92,0,0,1-4.62,0,5.81,5.81,0,0,1-.79-3.35,5.74,5.74,0,0,1,.79-3.31A2.64,2.64,0,0,1,301.56,110.69Zm-1.7,4.44a10.28,10.28,0,0,0,.07,1.25,4.18,4.18,0,0,0,.26,1.06,1.83,1.83,0,0,0,.52.74,1.28,1.28,0,0,0,.85.28,1.31,1.31,0,0,0,1.08-.51,2.12,2.12,0,0,0,.31-.56,4.17,4.17,0,0,0,.2-.69,6.33,6.33,0,0,0,.1-.77q0-.4,0-.8a9.63,9.63,0,0,0-.08-1.27,3.8,3.8,0,0,0-.28-1,1.82,1.82,0,0,0-.53-.71,1.32,1.32,0,0,0-.84-.26,1.29,1.29,0,0,0-.6.13,1.39,1.39,0,0,0-.45.37,2,2,0,0,0-.31.55,4.32,4.32,0,0,0-.19.68,6.52,6.52,0,0,0-.11.76Q299.86,114.74,299.86,115.13Z"/><path class="cls-6" d="M311.71,110.86v1.21a8.83,8.83,0,0,0-1.24,1.49,10.33,10.33,0,0,0-.95,1.83,12,12,0,0,0-.87,4h-1.49a11.75,11.75,0,0,1,.93-3.82,13.7,13.7,0,0,1,2.2-3.45H306v-1.29Z"/><path class="cls-6" d="M319.25,116.94a2.37,2.37,0,0,1-.89,1.95,3.88,3.88,0,0,1-4.51,0A2.33,2.33,0,0,1,313,117a2.43,2.43,0,0,1,.11-.76,2.08,2.08,0,0,1,.33-.63,2,2,0,0,1,.52-.47,2.17,2.17,0,0,1,.7-.28v0a1.81,1.81,0,0,1-1-.67,1.92,1.92,0,0,1-.33-1.14,2,2,0,0,1,.81-1.65,3.16,3.16,0,0,1,2-.62,2.91,2.91,0,0,1,2,.67,2,2,0,0,1,.76,1.58,2.14,2.14,0,0,1-.08.61,1.83,1.83,0,0,1-.25.52,1.75,1.75,0,0,1-.41.42,2,2,0,0,1-.57.28v0a2.06,2.06,0,0,1,1.24.75A2.24,2.24,0,0,1,319.25,116.94Zm-1.39,0a1.45,1.45,0,0,0-.48-1.11,1.79,1.79,0,0,0-1.27-.44,1.88,1.88,0,0,0-1.27.42,1.42,1.42,0,0,0-.49,1.13,1.53,1.53,0,0,0,.5,1.18,1.79,1.79,0,0,0,1.27.46,1.74,1.74,0,0,0,1.25-.45A1.53,1.53,0,0,0,317.85,116.9Zm-.26-3.83a1.42,1.42,0,0,0-.11-.56,1,1,0,0,0-.32-.42,1.85,1.85,0,0,0-2.14,0,1.18,1.18,0,0,0-.42.94,1.19,1.19,0,0,0,.41.94,1.85,1.85,0,0,0,2.19,0A1.21,1.21,0,0,0,317.6,113.07Z"/><path class="cls-6" d="M326.51,116.94a2.37,2.37,0,0,1-.89,1.95,3.88,3.88,0,0,1-4.51,0,2.33,2.33,0,0,1-.88-1.93,2.43,2.43,0,0,1,.11-.76,2.08,2.08,0,0,1,.33-.63,2,2,0,0,1,.52-.47,2.17,2.17,0,0,1,.7-.28v0a1.81,1.81,0,0,1-1-.67,1.92,1.92,0,0,1-.33-1.14,2,2,0,0,1,.81-1.65,3.16,3.16,0,0,1,2-.62,2.91,2.91,0,0,1,2,.67,2,2,0,0,1,.76,1.58,2.14,2.14,0,0,1-.08.61,1.83,1.83,0,0,1-.25.52,1.75,1.75,0,0,1-.41.42,2,2,0,0,1-.57.28v0a2.06,2.06,0,0,1,1.24.75A2.24,2.24,0,0,1,326.51,116.94Zm-1.39,0a1.45,1.45,0,0,0-.48-1.11,1.79,1.79,0,0,0-1.27-.44,1.88,1.88,0,0,0-1.27.42,1.42,1.42,0,0,0-.49,1.13,1.53,1.53,0,0,0,.5,1.18,1.79,1.79,0,0,0,1.27.46,1.74,1.74,0,0,0,1.25-.45A1.53,1.53,0,0,0,325.12,116.9Zm-.26-3.83a1.42,1.42,0,0,0-.11-.56,1,1,0,0,0-.32-.42,1.85,1.85,0,0,0-2.14,0,1.18,1.18,0,0,0-.42.94,1.19,1.19,0,0,0,.41.94,1.85,1.85,0,0,0,2.19,0A1.21,1.21,0,0,0,324.86,113.07Z"/><path class="cls-6" d="M226.69,110.87V112h-3.63l-.42,2.24,0,0a2.3,2.3,0,0,1,.75-.5,2.57,2.57,0,0,1,1-.17,2.81,2.81,0,0,1,1.14.22,2.53,2.53,0,0,1,.86.62,2.71,2.71,0,0,1,.55.93,3.47,3.47,0,0,1,.19,1.17,2.93,2.93,0,0,1-.24,1.17,3,3,0,0,1-.66,1,3.13,3.13,0,0,1-1,.65,3.22,3.22,0,0,1-1.25.24,4.16,4.16,0,0,1-1.15-.15,2.71,2.71,0,0,1-.93-.46,2.33,2.33,0,0,1-.64-.76,2.65,2.65,0,0,1-.28-1.07h1.4a1.51,1.51,0,0,0,.14.5,1.33,1.33,0,0,0,.31.41,1.41,1.41,0,0,0,.48.28,2,2,0,0,0,.65.1,1.67,1.67,0,0,0,.73-.16,1.7,1.7,0,0,0,.55-.42,1.85,1.85,0,0,0,.35-.61,2.17,2.17,0,0,0,.12-.73,2.11,2.11,0,0,0-.12-.7,1.65,1.65,0,0,0-.89-1,1.74,1.74,0,0,0-.74-.15,1.76,1.76,0,0,0-1.52.76h-1.24l.84-4.6Z"/><path class="cls-6" d="M234,110.87V112h-3.63l-.42,2.24,0,0a2.3,2.3,0,0,1,.75-.5,2.57,2.57,0,0,1,1-.17,2.81,2.81,0,0,1,1.14.22,2.53,2.53,0,0,1,.86.62,2.71,2.71,0,0,1,.55.93,3.47,3.47,0,0,1,.19,1.17,2.93,2.93,0,0,1-.24,1.17,3,3,0,0,1-.66,1,3.13,3.13,0,0,1-1,.65,3.22,3.22,0,0,1-1.25.24,4.16,4.16,0,0,1-1.15-.15,2.71,2.71,0,0,1-.93-.46,2.33,2.33,0,0,1-.64-.76,2.65,2.65,0,0,1-.28-1.07h1.4a1.51,1.51,0,0,0,.14.5,1.33,1.33,0,0,0,.31.41,1.41,1.41,0,0,0,.48.28,2,2,0,0,0,.65.1,1.67,1.67,0,0,0,.73-.16,1.7,1.7,0,0,0,.55-.42,1.85,1.85,0,0,0,.35-.61,2.17,2.17,0,0,0,.12-.73,2.11,2.11,0,0,0-.12-.7,1.65,1.65,0,0,0-.89-1,1.74,1.74,0,0,0-.74-.15,1.76,1.76,0,0,0-1.52.76h-1.24l.84-4.6Z"/><rect class="cls-9" x="429" y="66" width="91" height="3"/><rect class="cls-9" x="429" y="97" width="91" height="3"/><rect class="cls-10" x="429" y="128" width="91" height="3"/><rect class="cls-10" x="429" y="97" width="86" height="3"/><rect class="cls-8" x="151.5" y="69.5" width="93" height="31"/><path class="cls-2" d="M244,70v30H152V70h92m1-1H151v32h94V69Z"/><path class="cls-6" d="M218.76,86.38v2h-1.31v-2h-3.76V85.1l3.82-5.27h1.25v5.41H220v1.15Zm-1.31-4.82h0l-2.62,3.67h2.65Z"/><path class="cls-6" d="M227.25,85.94a2.37,2.37,0,0,1-.89,1.95,3.88,3.88,0,0,1-4.51,0A2.33,2.33,0,0,1,221,86a2.43,2.43,0,0,1,.11-.76,2.08,2.08,0,0,1,.33-.63,2,2,0,0,1,.52-.47,2.17,2.17,0,0,1,.7-.28v0a1.81,1.81,0,0,1-1-.67,1.92,1.92,0,0,1-.33-1.14,2,2,0,0,1,.81-1.65,3.16,3.16,0,0,1,2-.62,2.91,2.91,0,0,1,2,.67,2,2,0,0,1,.76,1.58,2.14,2.14,0,0,1-.08.61,1.83,1.83,0,0,1-.25.52,1.75,1.75,0,0,1-.41.42,2,2,0,0,1-.57.28v0a2.06,2.06,0,0,1,1.24.75A2.24,2.24,0,0,1,227.25,85.94Zm-1.39,0a1.45,1.45,0,0,0-.48-1.11,1.79,1.79,0,0,0-1.27-.44,1.88,1.88,0,0,0-1.27.42,1.42,1.42,0,0,0-.49,1.13,1.53,1.53,0,0,0,.5,1.18,1.79,1.79,0,0,0,1.27.46,1.74,1.74,0,0,0,1.25-.45A1.53,1.53,0,0,0,225.85,85.9Zm-.26-3.83a1.42,1.42,0,0,0-.11-.56,1,1,0,0,0-.32-.42,1.85,1.85,0,0,0-2.14,0,1.18,1.18,0,0,0-.42.94A1.19,1.19,0,0,0,223,83a1.85,1.85,0,0,0,2.19,0A1.21,1.21,0,0,0,225.6,82.07Z"/><path class="cls-6" d="M231.36,79.69a2.66,2.66,0,0,1,2.32,1.13,5.72,5.72,0,0,1,.79,3.3,5.83,5.83,0,0,1-.79,3.35,2.92,2.92,0,0,1-4.62,0,5.81,5.81,0,0,1-.79-3.35,5.74,5.74,0,0,1,.79-3.31A2.64,2.64,0,0,1,231.36,79.69Zm-1.7,4.44a10.28,10.28,0,0,0,.07,1.25,4.18,4.18,0,0,0,.26,1.06,1.83,1.83,0,0,0,.52.74,1.28,1.28,0,0,0,.85.28,1.31,1.31,0,0,0,1.08-.51,2.12,2.12,0,0,0,.31-.56,4.17,4.17,0,0,0,.2-.69,6.33,6.33,0,0,0,.1-.77q0-.4,0-.8a9.63,9.63,0,0,0-.08-1.27,3.8,3.8,0,0,0-.28-1,1.82,1.82,0,0,0-.53-.71,1.32,1.32,0,0,0-.84-.26,1.29,1.29,0,0,0-.6.13,1.39,1.39,0,0,0-.45.37,2,2,0,0,0-.31.55,4.32,4.32,0,0,0-.19.68,6.52,6.52,0,0,0-.11.76Q229.66,83.74,229.66,84.13Z"/><path class="cls-11" d="M520,39v92H11V39H520m1-1H10v94H521V38Z"/><line class="cls-12" x1="10" y1="38.5" x2="521" y2="38.5"/><line class="cls-13" x1="428.5" y1="38" x2="428.5" y2="10"/><line class="cls-13" x1="336.5" y1="38" x2="336.5" y2="10"/><line class="cls-13" x1="244.5" y1="38" x2="244.5" y2="10"/><line class="cls-13" x1="151.5" y1="38" x2="151.5" y2="10"/></g></svg>