<svg xmlns="http://www.w3.org/2000/svg" viewBox="0 0 558 187"><defs><style>.cls-1,.cls-7{fill:#fff;}.cls-2{fill:#f0f0f0;}.cls-3{fill:#d2d2d2;}.cls-4{fill:#444;}.cls-5{fill:#464646;}.cls-6{fill:none;stroke:#787878;stroke-miterlimit:10;opacity:0.2;}.cls-7{opacity:0.8;}.cls-8{opacity:0.4;}.cls-9{fill:#5a5a5a;}.cls-10{fill:#0aaeff;}.cls-11{fill:#b7519f;}.cls-12{fill:#c8c8c8;}</style></defs><title>Artboard 15 copy</title><g id="Bg"><rect class="cls-1" x="-799" y="-1864" width="6000" height="2500"/></g><g id="Tabeller"><rect class="cls-2" x="199.5" y="19.5" width="191" height="21"/><path class="cls-3" d="M390,20V40H200V20H390m1-1H199V41H391V19Z"/><rect class="cls-2" x="390.5" y="19.5" width="73" height="21"/><path class="cls-3" d="M463,20V40H391V20h72m1-1H390V41h74V19Z"/><rect class="cls-2" x="19.5" y="19.5" width="180" height="21"/><path class="cls-3" d="M199,20V40H20V20H199m1-1H19V41H200V19Z"/><rect class="cls-2" x="463.5" y="19.5" width="75" height="21"/><path class="cls-3" d="M538,20V40H464V20h74m1-1H463V41h76V19Z"/><path class="cls-4" d="M54.63,52.28a2.81,2.81,0,0,1,2,.66,2.28,2.28,0,0,1,.73,1.78,2.82,2.82,0,0,1-.55,1.66,7,7,0,0,1-2,1.66,8.29,8.29,0,0,0-1.66,1.23,2,2,0,0,0-.56,1h4.81V61h-5.7a3,3,0,0,1,.56-1.74,6.61,6.61,0,0,1,1.93-1.66A8.78,8.78,0,0,0,56,56.11a2.11,2.11,0,0,0,.51-1.41A1.64,1.64,0,0,0,56,53.42a2,2,0,0,0-1.4-.49,2,2,0,0,0-.86.17,1.82,1.82,0,0,0-.61.44,1.77,1.77,0,0,0-.36.62,2.2,2.2,0,0,0-.12.71V55h-.77v-.12a2.93,2.93,0,0,1,.17-1,2.42,2.42,0,0,1,.51-.84,2.47,2.47,0,0,1,.86-.59A3.06,3.06,0,0,1,54.63,52.28Z"/><path class="cls-4" d="M61.83,52.28a3.57,3.57,0,0,1,1,.13,2.67,2.67,0,0,1,.85.41,2.08,2.08,0,0,1,.6.69,2,2,0,0,1,.23,1,2.22,2.22,0,0,1-.1.66,1.82,1.82,0,0,1-.28.56,1.77,1.77,0,0,1-.45.42,2.14,2.14,0,0,1-.62.27v0a2.06,2.06,0,0,1,1.33.74,2.21,2.21,0,0,1,.45,1.39A2.41,2.41,0,0,1,64,60.46,2.78,2.78,0,0,1,63,61a3.78,3.78,0,0,1-1.21.18A3.66,3.66,0,0,1,60.69,61a2.8,2.8,0,0,1-.92-.49,2.34,2.34,0,0,1-.63-.78,2.28,2.28,0,0,1-.23-1v-.18h.79v.16A1.74,1.74,0,0,0,60.25,60a2,2,0,0,0,.66.4,2.45,2.45,0,0,0,.88.15,2.7,2.7,0,0,0,.91-.13,2.21,2.21,0,0,0,.69-.4A1.7,1.7,0,0,0,64,58.62a1.89,1.89,0,0,0-.14-.75,1.64,1.64,0,0,0-.42-.58,2.22,2.22,0,0,0-1.53-.5H61.3v-.66H62a1.86,1.86,0,0,0,1.21-.42,1.42,1.42,0,0,0,.52-1.15,1.59,1.59,0,0,0-.15-.71,1.48,1.48,0,0,0-.4-.51,1.73,1.73,0,0,0-.6-.31,2.56,2.56,0,0,0-.73-.1,2.1,2.1,0,0,0-.81.15,1.8,1.8,0,0,0-.61.41,1.82,1.82,0,0,0-.39.6,2,2,0,0,0-.13.73H59.1a2.44,2.44,0,0,1,.18-.92,2.53,2.53,0,0,1,.53-.82,2.7,2.7,0,0,1,.86-.59A2.82,2.82,0,0,1,61.83,52.28Z"/><path class="cls-4" d="M73,54.88a2.34,2.34,0,0,1-.7,1.8,2.55,2.55,0,0,1-1.8.64h-3V61h-.82V52.43h3.86a2.53,2.53,0,0,1,1.8.65A2.33,2.33,0,0,1,73,54.88Zm-.81,0a1.68,1.68,0,0,0-.5-1.29,2.11,2.11,0,0,0-1.49-.46H67.48v3.5h2.85a2,2,0,0,0,1.35-.45A1.65,1.65,0,0,0,72.19,54.88Z"/><path class="cls-4" d="M81.15,54.67a2.33,2.33,0,0,1-.44,1.44,1.81,1.81,0,0,1-.53.47,2.4,2.4,0,0,1-.7.27v0a2.42,2.42,0,0,1,.69.22,1.16,1.16,0,0,1,.4.34,1.8,1.8,0,0,1,.29.63,4.48,4.48,0,0,1,.11.71q0,.37,0,.77a6,6,0,0,0,.09.82,1.77,1.77,0,0,0,.08.27,2.9,2.9,0,0,0,.18.37h-.9a3.27,3.27,0,0,1-.22-1.33,3.62,3.62,0,0,0-.49-2,1.38,1.38,0,0,0-1.11-.47H75.44V61h-.82V52.43h4a3.42,3.42,0,0,1,1,.14,2.35,2.35,0,0,1,.82.44A2,2,0,0,1,81.15,54.67Zm-.82.16a2,2,0,0,0-.13-.73,1.44,1.44,0,0,0-.36-.53,1.51,1.51,0,0,0-.57-.33,2.4,2.4,0,0,0-.74-.11H75.44V56.5h3.09A1.9,1.9,0,0,0,79.79,56,1.51,1.51,0,0,0,80.33,54.83Z"/><path class="cls-4" d="M88.32,52.45v.71a13.7,13.7,0,0,0-1.42,1.75,13.19,13.19,0,0,0-1.08,1.91,11.5,11.5,0,0,0-.7,2A12.2,12.2,0,0,0,84.82,61H84a12.81,12.81,0,0,1,.32-2.12A10.53,10.53,0,0,1,85,56.95a15.67,15.67,0,0,1,2.58-3.79H82.76v-.71Z"/><path class="cls-4" d="M92.81,52.28a2.87,2.87,0,0,1,1.32.29,2.48,2.48,0,0,1,.94.85,4.14,4.14,0,0,1,.57,1.39,8.64,8.64,0,0,1,.19,1.92,5.94,5.94,0,0,1-.77,3.35,2.82,2.82,0,0,1-4.49,0,5.89,5.89,0,0,1-.77-3.34,5.89,5.89,0,0,1,.77-3.35A2.56,2.56,0,0,1,92.81,52.28Zm-2.23,4.45q0,3.81,2.23,3.81t2.24-3.81a5.64,5.64,0,0,0-.57-2.84,1.84,1.84,0,0,0-1.68-1,1.82,1.82,0,0,0-1.65.94A5.63,5.63,0,0,0,90.58,56.72Z"/><path class="cls-4" d="M100.08,52.28a2.87,2.87,0,0,1,1.32.29,2.48,2.48,0,0,1,.94.85,4.14,4.14,0,0,1,.57,1.39,8.64,8.64,0,0,1,.19,1.92,5.94,5.94,0,0,1-.77,3.35,2.82,2.82,0,0,1-4.49,0,5.89,5.89,0,0,1-.77-3.34,5.89,5.89,0,0,1,.77-3.35A2.56,2.56,0,0,1,100.08,52.28Zm-2.23,4.45q0,3.81,2.23,3.81t2.24-3.81a5.64,5.64,0,0,0-.57-2.84,1.84,1.84,0,0,0-1.68-1,1.82,1.82,0,0,0-1.65.94A5.63,5.63,0,0,0,97.85,56.72Z"/><path class="cls-4" d="M107.13,61.19a3.17,3.17,0,0,1-.94-.13,2.34,2.34,0,0,1-.75-.38,2.14,2.14,0,0,1-.54-.62,2.49,2.49,0,0,1-.3-.83h.78a1.7,1.7,0,0,0,.19.51,1.45,1.45,0,0,0,.35.42,1.67,1.67,0,0,0,.52.28,2.16,2.16,0,0,0,.69.1,2,2,0,0,0,1-.25,2.1,2.1,0,0,0,.75-.75,3.82,3.82,0,0,0,.45-1.21,8,8,0,0,0,.15-1.65h0a2.58,2.58,0,0,1-2.31,1.44,2.74,2.74,0,0,1-2.05-.81,2.83,2.83,0,0,1-.8-2.08,2.84,2.84,0,0,1,2.94-2.94,3.09,3.09,0,0,1,1.41.29,2.31,2.31,0,0,1,.93.84,4.2,4.2,0,0,1,.52,1.39,10.4,10.4,0,0,1,.17,2.05,8.43,8.43,0,0,1-.07,1.06,5.56,5.56,0,0,1-.22,1,4.46,4.46,0,0,1-.4.89,2.83,2.83,0,0,1-.6.72,2.66,2.66,0,0,1-.82.48A3.07,3.07,0,0,1,107.13,61.19Zm2.23-6a2.25,2.25,0,0,0-.57-1.63,2.11,2.11,0,0,0-1.59-.59,1.91,1.91,0,0,0-1.49.66,2.26,2.26,0,0,0-.59,1.56,2.4,2.4,0,0,0,.57,1.64,1.92,1.92,0,0,0,1.52.65,2,2,0,0,0,1.54-.63A2.29,2.29,0,0,0,109.37,55.15Z"/><path class="cls-4" d="M113.38,54.68V56h-1.11V54.68Zm0,5V61h-1.11V59.73Z"/><path class="cls-4" d="M115.78,52.43,118.2,56l2.51-3.59h.91l-2.92,4.17L121.79,61h-1l-2.6-3.78L115.56,61h-.93l3.09-4.42-2.91-4.15Z"/><path class="cls-4" d="M124.17,59.73V61h-1.11V59.73Z"/><path class="cls-4" d="M126.49,52.43l2.78,7.66h0l2.76-7.66h.87L129.74,61h-1l-3.18-8.57Z"/><path class="cls-4" d="M139.48,61l-1-2.66h-3.89l-1,2.66h-.87l3.45-8.55H137L140.36,61Zm-3-7.73h0l-1.71,4.38h3.37Z"/><path class="cls-4" d="M142.46,52.43V60.3h4.8V61h-5.62V52.43Z"/><path class="cls-4" d="M148.78,52.43v5.36a2.93,2.93,0,0,0,.61,2,2.41,2.41,0,0,0,1.9.69,2.44,2.44,0,0,0,1.91-.68,2.91,2.91,0,0,0,.61-2V52.43h.82V58a3.21,3.21,0,0,1-.85,2.31,3.28,3.28,0,0,1-2.49.9,4.79,4.79,0,0,1-.71-.05,3.73,3.73,0,0,1-.69-.17,3.06,3.06,0,0,1-.63-.31,2.41,2.41,0,0,1-.54-.47,3,3,0,0,1-.57-1A3.82,3.82,0,0,1,148,58V52.43Z"/><path class="cls-4" d="M162.67,52.45v.7h-5.09v3.09h4.77v.69h-4.77V60.3h5.14V61h-6V52.45Z"/><path class="cls-4" d="M54.63,83.28a2.81,2.81,0,0,1,2,.66,2.28,2.28,0,0,1,.73,1.78,2.82,2.82,0,0,1-.55,1.66,7,7,0,0,1-2,1.66,8.29,8.29,0,0,0-1.66,1.23,2,2,0,0,0-.56,1h4.81V92h-5.7a3,3,0,0,1,.56-1.74,6.61,6.61,0,0,1,1.93-1.66A8.78,8.78,0,0,0,56,87.11a2.11,2.11,0,0,0,.51-1.41A1.64,1.64,0,0,0,56,84.42a2,2,0,0,0-1.4-.49,2,2,0,0,0-.86.17,1.82,1.82,0,0,0-.61.44,1.77,1.77,0,0,0-.36.62,2.2,2.2,0,0,0-.12.71V86h-.77v-.12a2.93,2.93,0,0,1,.17-1,2.42,2.42,0,0,1,.51-.84,2.47,2.47,0,0,1,.86-.59A3.06,3.06,0,0,1,54.63,83.28Z"/><path class="cls-4" d="M61.83,83.28a3.57,3.57,0,0,1,1,.13,2.67,2.67,0,0,1,.85.41,2.08,2.08,0,0,1,.6.69,2,2,0,0,1,.23,1,2.22,2.22,0,0,1-.1.66,1.82,1.82,0,0,1-.28.56,1.77,1.77,0,0,1-.45.42,2.14,2.14,0,0,1-.62.27v0a2.06,2.06,0,0,1,1.33.74,2.21,2.21,0,0,1,.45,1.39A2.41,2.41,0,0,1,64,91.46,2.78,2.78,0,0,1,63,92a3.78,3.78,0,0,1-1.21.18A3.66,3.66,0,0,1,60.69,92a2.8,2.8,0,0,1-.92-.49,2.34,2.34,0,0,1-.63-.78,2.28,2.28,0,0,1-.23-1v-.18h.79v.16A1.74,1.74,0,0,0,60.25,91a2,2,0,0,0,.66.4,2.45,2.45,0,0,0,.88.15,2.7,2.7,0,0,0,.91-.13,2.21,2.21,0,0,0,.69-.4A1.7,1.7,0,0,0,64,89.62a1.89,1.89,0,0,0-.14-.75,1.64,1.64,0,0,0-.42-.58,2.22,2.22,0,0,0-1.53-.5H61.3v-.66H62a1.86,1.86,0,0,0,1.21-.42,1.42,1.42,0,0,0,.52-1.15,1.59,1.59,0,0,0-.15-.71,1.48,1.48,0,0,0-.4-.51,1.73,1.73,0,0,0-.6-.31,2.56,2.56,0,0,0-.73-.1,2.1,2.1,0,0,0-.81.15,1.8,1.8,0,0,0-.61.41,1.82,1.82,0,0,0-.39.6,2,2,0,0,0-.13.73H59.1a2.44,2.44,0,0,1,.18-.92,2.53,2.53,0,0,1,.53-.82,2.7,2.7,0,0,1,.86-.59A2.82,2.82,0,0,1,61.83,83.28Z"/><path class="cls-4" d="M73,85.88a2.34,2.34,0,0,1-.7,1.8,2.55,2.55,0,0,1-1.8.64h-3V92h-.82V83.43h3.86a2.53,2.53,0,0,1,1.8.65A2.33,2.33,0,0,1,73,85.88Zm-.81,0a1.68,1.68,0,0,0-.5-1.29,2.11,2.11,0,0,0-1.49-.46H67.48v3.5h2.85a2,2,0,0,0,1.35-.45A1.65,1.65,0,0,0,72.19,85.88Z"/><path class="cls-4" d="M80.31,83.43v.7h-3V92h-.81V84.13h-3v-.7Z"/><path class="cls-4" d="M85.64,89.85V92h-.71V89.85h-4V89.1l4-5.75h.7v5.85h1.3v.66Zm-.71-5.36h0l-3.27,4.71h3.29Z"/><path class="cls-4" d="M91.24,83.28a2.87,2.87,0,0,1,1.32.29,2.48,2.48,0,0,1,.94.85,4.14,4.14,0,0,1,.57,1.39,8.64,8.64,0,0,1,.19,1.92,5.94,5.94,0,0,1-.77,3.35,2.82,2.82,0,0,1-4.49,0,7.62,7.62,0,0,1,0-6.69A2.56,2.56,0,0,1,91.24,83.28ZM89,87.72q0,3.81,2.23,3.81t2.24-3.81a5.64,5.64,0,0,0-.57-2.84,1.84,1.84,0,0,0-1.68-1,1.82,1.82,0,0,0-1.65.94A5.63,5.63,0,0,0,89,87.72Z"/><path class="cls-4" d="M98.75,83.28a3.17,3.17,0,0,1,.94.13,2.34,2.34,0,0,1,.75.38,2.14,2.14,0,0,1,.54.62,2.49,2.49,0,0,1,.3.83h-.78a1.7,1.7,0,0,0-.19-.51,1.45,1.45,0,0,0-.35-.42,1.67,1.67,0,0,0-.52-.28,2.16,2.16,0,0,0-.69-.1,2,2,0,0,0-1,.25,2.1,2.1,0,0,0-.75.75,3.82,3.82,0,0,0-.45,1.21,8,8,0,0,0-.15,1.65h0a2.58,2.58,0,0,1,2.31-1.44,2.74,2.74,0,0,1,2.05.81,2.83,2.83,0,0,1,.8,2.08,2.84,2.84,0,0,1-2.94,2.94,3.09,3.09,0,0,1-1.41-.29,2.31,2.31,0,0,1-.93-.84,4.2,4.2,0,0,1-.52-1.39,10.4,10.4,0,0,1-.17-2.05,8.43,8.43,0,0,1,.07-1.06,5.56,5.56,0,0,1,.22-1,4.46,4.46,0,0,1,.4-.89,2.83,2.83,0,0,1,.6-.72,2.66,2.66,0,0,1,.82-.48A3.07,3.07,0,0,1,98.75,83.28Zm-2.23,6a2.25,2.25,0,0,0,.57,1.63,2.11,2.11,0,0,0,1.59.59,1.91,1.91,0,0,0,1.49-.66,2.26,2.26,0,0,0,.59-1.56,2.4,2.4,0,0,0-.57-1.64A1.93,1.93,0,0,0,98.66,87a2,2,0,0,0-1.54.63A2.3,2.3,0,0,0,96.52,89.31Z"/><path class="cls-4" d="M105.84,92V85.57h-2.29V85q.53,0,.9-.06a2.36,2.36,0,0,0,.57-.13,1.3,1.3,0,0,0,.64-.52,2.46,2.46,0,0,0,.31-1h.63V92Z"/><path class="cls-4" d="M117.23,89.56a2.18,2.18,0,0,1-.78,1.82,3.51,3.51,0,0,1-2.22.62h-3.69V83.43h3.69a4.84,4.84,0,0,1,1,.11,2.47,2.47,0,0,1,.86.35,1.81,1.81,0,0,1,.59.65,2,2,0,0,1,.22,1,2.1,2.1,0,0,1-.1.64,1.89,1.89,0,0,1-.76,1,2,2,0,0,1-.63.28v0a2.29,2.29,0,0,1,.76.23,1.86,1.86,0,0,1,.92,1.07A2.49,2.49,0,0,1,117.23,89.56Zm-1.14-3.83a1.45,1.45,0,0,0-.49-1.21,2.29,2.29,0,0,0-1.45-.39h-2.79v3.06h2.85a2.88,2.88,0,0,0,.67-.08,1.87,1.87,0,0,0,.59-.25,1.35,1.35,0,0,0,.62-1.13Zm.32,3.81a1.42,1.42,0,0,0-.59-1.24,2.89,2.89,0,0,0-1.68-.41h-2.8V91.3h2.87a2.64,2.64,0,0,0,1.64-.43A1.58,1.58,0,0,0,116.41,89.54Z"/><path class="cls-4" d="M120.25,85.68V87h-1.11V85.68Zm0,5V92h-1.11V90.73Z"/><path class="cls-4" d="M129,85.88a2.34,2.34,0,0,1-.7,1.8,2.55,2.55,0,0,1-1.8.64h-3V92h-.82V83.43h3.86a2.53,2.53,0,0,1,1.8.65A2.33,2.33,0,0,1,129,85.88Zm-.81,0a1.68,1.68,0,0,0-.5-1.29,2.11,2.11,0,0,0-1.49-.46h-2.74v3.5h2.85a2,2,0,0,0,1.35-.45A1.65,1.65,0,0,0,128.19,85.88Z"/><path class="cls-4" d="M130.59,83.43l1.94,7.5h0l2.09-7.5h1l2.1,7.5h0l2-7.5h.81L138.2,92h-.87l-2.17-7.67h0L133,92h-.88l-2.38-8.57Z"/><path class="cls-4" d="M54.63,114.28a2.81,2.81,0,0,1,2,.66,2.28,2.28,0,0,1,.73,1.78,2.82,2.82,0,0,1-.55,1.66,7,7,0,0,1-2,1.66,8.29,8.29,0,0,0-1.66,1.23,2,2,0,0,0-.56,1h4.81V123h-5.7a3,3,0,0,1,.56-1.74,6.61,6.61,0,0,1,1.93-1.66A8.78,8.78,0,0,0,56,118.11a2.11,2.11,0,0,0,.51-1.41,1.64,1.64,0,0,0-.54-1.28,2,2,0,0,0-1.4-.49,2,2,0,0,0-.86.17,1.82,1.82,0,0,0-.61.44,1.77,1.77,0,0,0-.36.62,2.2,2.2,0,0,0-.12.71V117h-.77v-.12a2.93,2.93,0,0,1,.17-1,2.42,2.42,0,0,1,.51-.84,2.47,2.47,0,0,1,.86-.59A3.06,3.06,0,0,1,54.63,114.28Z"/><path class="cls-4" d="M61.83,114.28a3.57,3.57,0,0,1,1,.13,2.67,2.67,0,0,1,.85.41,2.08,2.08,0,0,1,.6.69,2,2,0,0,1,.23,1,2.22,2.22,0,0,1-.1.66,1.82,1.82,0,0,1-.28.56,1.77,1.77,0,0,1-.45.42,2.14,2.14,0,0,1-.62.27v0a2.06,2.06,0,0,1,1.33.74,2.21,2.21,0,0,1,.45,1.39,2.41,2.41,0,0,1-.84,1.91,2.78,2.78,0,0,1-1,.55,3.78,3.78,0,0,1-1.21.18,3.66,3.66,0,0,1-1.12-.17,2.8,2.8,0,0,1-.92-.49,2.34,2.34,0,0,1-.63-.78,2.28,2.28,0,0,1-.23-1v-.18h.79v.16a1.74,1.74,0,0,0,.56,1.28,2,2,0,0,0,.66.4,2.45,2.45,0,0,0,.88.15,2.7,2.7,0,0,0,.91-.13,2.21,2.21,0,0,0,.69-.4,1.7,1.7,0,0,0,.64-1.38,1.89,1.89,0,0,0-.14-.75,1.64,1.64,0,0,0-.42-.58,2.22,2.22,0,0,0-1.53-.5H61.3v-.66H62a1.86,1.86,0,0,0,1.21-.42,1.42,1.42,0,0,0,.52-1.15,1.59,1.59,0,0,0-.15-.71,1.48,1.48,0,0,0-.4-.51,1.73,1.73,0,0,0-.6-.31,2.56,2.56,0,0,0-.73-.1,2.1,2.1,0,0,0-.81.15,1.8,1.8,0,0,0-.61.41,1.82,1.82,0,0,0-.39.6,2,2,0,0,0-.13.73H59.1a2.44,2.44,0,0,1,.18-.92,2.53,2.53,0,0,1,.53-.82,2.7,2.7,0,0,1,.86-.59A2.82,2.82,0,0,1,61.83,114.28Z"/><path class="cls-4" d="M73,116.88a2.34,2.34,0,0,1-.7,1.8,2.55,2.55,0,0,1-1.8.64h-3V123h-.82v-8.57h3.86a2.53,2.53,0,0,1,1.8.65A2.33,2.33,0,0,1,73,116.88Zm-.81,0a1.68,1.68,0,0,0-.5-1.29,2.11,2.11,0,0,0-1.49-.46H67.48v3.5h2.85a2,2,0,0,0,1.35-.45A1.65,1.65,0,0,0,72.19,116.88Z"/><path class="cls-4" d="M80.31,114.43v.7h-3V123h-.81v-7.87h-3v-.7Z"/><path class="cls-4" d="M86.75,114.45v.71a13.7,13.7,0,0,0-1.42,1.75,13.19,13.19,0,0,0-1.08,1.91,11.5,11.5,0,0,0-.7,2,12.2,12.2,0,0,0-.31,2.14h-.84a12.81,12.81,0,0,1,.32-2.12,10.53,10.53,0,0,1,.67-1.93A15.67,15.67,0,0,1,86,115.16H81.18v-.71Z"/><path class="cls-4" d="M91.24,114.28a2.87,2.87,0,0,1,1.32.29,2.48,2.48,0,0,1,.94.85,4.14,4.14,0,0,1,.57,1.39,8.64,8.64,0,0,1,.19,1.92,5.94,5.94,0,0,1-.77,3.35,2.82,2.82,0,0,1-4.49,0,7.62,7.62,0,0,1,0-6.69A2.56,2.56,0,0,1,91.24,114.28ZM89,118.72q0,3.81,2.23,3.81t2.24-3.81a5.64,5.64,0,0,0-.57-2.84,1.84,1.84,0,0,0-1.68-1,1.82,1.82,0,0,0-1.65.94A5.63,5.63,0,0,0,89,118.72Z"/><path class="cls-4" d="M98.5,114.28a2.87,2.87,0,0,1,1.32.29,2.48,2.48,0,0,1,.94.85,4.14,4.14,0,0,1,.57,1.39,8.64,8.64,0,0,1,.19,1.92,5.94,5.94,0,0,1-.77,3.35,2.82,2.82,0,0,1-4.49,0,7.62,7.62,0,0,1,0-6.69A2.56,2.56,0,0,1,98.5,114.28Zm-2.23,4.45q0,3.81,2.23,3.81t2.24-3.81a5.64,5.64,0,0,0-.57-2.84,1.84,1.84,0,0,0-1.68-1,1.82,1.82,0,0,0-1.65.94A5.63,5.63,0,0,0,96.27,118.72Z"/><path class="cls-4" d="M105.77,114.28a2.81,2.81,0,0,1,2,.66,2.28,2.28,0,0,1,.73,1.78,2.82,2.82,0,0,1-.55,1.66,7,7,0,0,1-2,1.66,8.29,8.29,0,0,0-1.66,1.23,2,2,0,0,0-.56,1h4.81V123h-5.7a3,3,0,0,1,.56-1.74,6.61,6.61,0,0,1,1.93-1.66,8.78,8.78,0,0,0,1.89-1.48,2.11,2.11,0,0,0,.51-1.41,1.64,1.64,0,0,0-.54-1.28,2,2,0,0,0-1.4-.49,2,2,0,0,0-.86.17,1.82,1.82,0,0,0-.61.44,1.77,1.77,0,0,0-.36.62,2.2,2.2,0,0,0-.12.71V117H103v-.12a2.93,2.93,0,0,1,.17-1,2.42,2.42,0,0,1,.51-.84,2.47,2.47,0,0,1,.86-.59A3.06,3.06,0,0,1,105.77,114.28Z"/><path class="cls-4" d="M111.81,116.68V118H110.7v-1.27Zm0,5V123H110.7v-1.27Z"/><path class="cls-4" d="M114.2,114.43l2.43,3.59,2.51-3.59H120l-2.92,4.17,3.09,4.39h-1l-2.6-3.78L114,123h-.93l3.09-4.42-2.91-4.15Z"/><path class="cls-4" d="M122.6,121.73V123h-1.11v-1.27Z"/><path class="cls-4" d="M124.91,114.43l2.78,7.66h0l2.76-7.66h.87L128.17,123h-1L124,114.43Z"/><path class="cls-4" d="M137.91,123l-1-2.66H133l-1,2.66h-.87l3.45-8.55h.91l3.36,8.55Zm-3-7.73h0l-1.71,4.38h3.37Z"/><path class="cls-4" d="M140.89,114.43v7.87h4.8v.7h-5.62v-8.57Z"/><path class="cls-4" d="M147.2,114.43v5.36a2.93,2.93,0,0,0,.61,2,2.41,2.41,0,0,0,1.9.69,2.44,2.44,0,0,0,1.91-.68,2.91,2.91,0,0,0,.61-2v-5.36H153V120a3.21,3.21,0,0,1-.85,2.31,3.28,3.28,0,0,1-2.49.9,4.79,4.79,0,0,1-.71-.05,3.73,3.73,0,0,1-.69-.17,3.06,3.06,0,0,1-.63-.31,2.41,2.41,0,0,1-.54-.47,3,3,0,0,1-.57-1,3.82,3.82,0,0,1-.18-1.19v-5.54Z"/><path class="cls-4" d="M161.1,114.45v.7H156v3.09h4.77v.69H156v3.38h5.14v.7h-6v-8.55Z"/><path class="cls-4" d="M213.48,54.88a2.34,2.34,0,0,1-.7,1.8,2.55,2.55,0,0,1-1.8.64h-3V61h-.82V52.43H211a2.53,2.53,0,0,1,1.8.65A2.33,2.33,0,0,1,213.48,54.88Zm-.81,0a1.68,1.68,0,0,0-.5-1.29,2.11,2.11,0,0,0-1.49-.46h-2.74v3.5h2.85a2,2,0,0,0,1.35-.45A1.65,1.65,0,0,0,212.66,54.88Z"/><path class="cls-4" d="M214.82,61V54.44h.74V56h0a2.56,2.56,0,0,1,.9-1.2,2.32,2.32,0,0,1,1.38-.43h.29v.8H218a2.22,2.22,0,0,0-1.71.69,2.36,2.36,0,0,0-.64,1.69V61Z"/><path class="cls-4" d="M221.87,54.25a2.71,2.71,0,0,1,1.3.29,2.6,2.6,0,0,1,.9.79,3.45,3.45,0,0,1,.52,1.13,5.21,5.21,0,0,1,.17,1.34v.13h-5.05a3.58,3.58,0,0,0,.13.94,2.59,2.59,0,0,0,.39.83,2,2,0,0,0,.66.59,1.92,1.92,0,0,0,.95.22,2.44,2.44,0,0,0,.7-.09,2,2,0,0,0,.56-.26,1.76,1.76,0,0,0,.42-.39,2.41,2.41,0,0,0,.29-.49h.79a3,3,0,0,1-.38.79,2.48,2.48,0,0,1-.59.6,2.68,2.68,0,0,1-.79.39,3.34,3.34,0,0,1-1,.14,2.94,2.94,0,0,1-1.3-.27,2.56,2.56,0,0,1-.91-.73,3.12,3.12,0,0,1-.54-1.1,5.14,5.14,0,0,1-.18-1.37,4.66,4.66,0,0,1,.18-1.28,3.36,3.36,0,0,1,.54-1.11,2.74,2.74,0,0,1,.92-.78A2.79,2.79,0,0,1,221.87,54.25Zm2.09,3a3,3,0,0,0-.16-.85,2.44,2.44,0,0,0-.41-.75,2.07,2.07,0,0,0-.65-.54,1.84,1.84,0,0,0-.88-.21,1.84,1.84,0,0,0-1.5.7,2.7,2.7,0,0,0-.42.75,4.31,4.31,0,0,0-.23.9Z"/><path class="cls-4" d="M231.34,59.22a1.67,1.67,0,0,1-.22.88,1.89,1.89,0,0,1-.59.62,2.74,2.74,0,0,1-.84.36,4,4,0,0,1-1,.12,3.66,3.66,0,0,1-1.07-.14,2.4,2.4,0,0,1-.8-.41,2,2,0,0,1-.53-.64,2.4,2.4,0,0,1-.25-.85h.81a1.7,1.7,0,0,0,.2.56,1.41,1.41,0,0,0,.38.43,1.8,1.8,0,0,0,.57.28,2.56,2.56,0,0,0,.74.1,3,3,0,0,0,.6-.06,2.05,2.05,0,0,0,.58-.21,1.35,1.35,0,0,0,.44-.38,1,1,0,0,0,.18-.59.93.93,0,0,0-.34-.73,2.6,2.6,0,0,0-1.13-.46l-1-.22a4,4,0,0,1-.77-.24,2.1,2.1,0,0,1-.58-.37,1.46,1.46,0,0,1-.36-.5,1.62,1.62,0,0,1-.12-.65,1.57,1.57,0,0,1,.21-.83,1.78,1.78,0,0,1,.56-.57,2.53,2.53,0,0,1,.78-.33,3.77,3.77,0,0,1,.89-.11,3.27,3.27,0,0,1,.92.12,2.29,2.29,0,0,1,.73.35,1.83,1.83,0,0,1,.5.57,2.08,2.08,0,0,1,.25.78h-.8a1.32,1.32,0,0,0-.19-.5,1.24,1.24,0,0,0-.36-.37,1.69,1.69,0,0,0-.5-.22,2.36,2.36,0,0,0-.61-.08A2.85,2.85,0,0,0,228,55a1.59,1.59,0,0,0-.51.19,1.07,1.07,0,0,0-.36.35A1,1,0,0,0,227,56a.74.74,0,0,0,.13.44,1.27,1.27,0,0,0,.33.32,1.93,1.93,0,0,0,.44.22,3.64,3.64,0,0,0,.46.13l1.37.3a2.85,2.85,0,0,1,.59.21,1.77,1.77,0,0,1,.5.35,1.64,1.64,0,0,1,.34.51A1.71,1.71,0,0,1,231.34,59.22Z"/><path class="cls-4" d="M238,59.22a1.67,1.67,0,0,1-.22.88,1.89,1.89,0,0,1-.59.62,2.74,2.74,0,0,1-.84.36,4,4,0,0,1-1,.12,3.66,3.66,0,0,1-1.07-.14,2.4,2.4,0,0,1-.8-.41A2,2,0,0,1,233,60a2.4,2.4,0,0,1-.25-.85h.81a1.7,1.7,0,0,0,.2.56,1.41,1.41,0,0,0,.38.43,1.8,1.8,0,0,0,.57.28,2.56,2.56,0,0,0,.74.1,3,3,0,0,0,.6-.06,2.05,2.05,0,0,0,.58-.21,1.35,1.35,0,0,0,.44-.38,1,1,0,0,0,.18-.59.93.93,0,0,0-.34-.73,2.6,2.6,0,0,0-1.13-.46l-1-.22a4,4,0,0,1-.77-.24,2.1,2.1,0,0,1-.58-.37,1.46,1.46,0,0,1-.36-.5,1.62,1.62,0,0,1-.12-.65,1.57,1.57,0,0,1,.21-.83,1.78,1.78,0,0,1,.56-.57,2.53,2.53,0,0,1,.78-.33,3.77,3.77,0,0,1,.89-.11,3.27,3.27,0,0,1,.92.12,2.29,2.29,0,0,1,.73.35,1.83,1.83,0,0,1,.5.57,2.08,2.08,0,0,1,.25.78h-.8a1.32,1.32,0,0,0-.19-.5,1.24,1.24,0,0,0-.36-.37,1.69,1.69,0,0,0-.5-.22,2.36,2.36,0,0,0-.61-.08,2.85,2.85,0,0,0-.58.06,1.59,1.59,0,0,0-.51.19,1.07,1.07,0,0,0-.36.35,1,1,0,0,0-.13.53.74.74,0,0,0,.13.44,1.27,1.27,0,0,0,.33.32,1.93,1.93,0,0,0,.44.22,3.64,3.64,0,0,0,.46.13l1.37.3a2.85,2.85,0,0,1,.59.21,1.77,1.77,0,0,1,.5.35,1.64,1.64,0,0,1,.34.51A1.71,1.71,0,0,1,238,59.22Z"/><path class="cls-4" d="M244.34,61V59.82h0a2.48,2.48,0,0,1-.39.58,2.34,2.34,0,0,1-.52.43,2.47,2.47,0,0,1-.63.27,2.73,2.73,0,0,1-.72.09,2.21,2.21,0,0,1-1.74-.63,2.64,2.64,0,0,1-.56-1.82V54.44h.8v4.28a2.67,2.67,0,0,0,.1.76A1.43,1.43,0,0,0,241,60a1.33,1.33,0,0,0,.54.35,2.33,2.33,0,0,0,.79.12,1.7,1.7,0,0,0,.89-.23,1.92,1.92,0,0,0,.62-.59,2.62,2.62,0,0,0,.36-.83,3.9,3.9,0,0,0,.11-.94V54.44h.8V61Z"/><path class="cls-4" d="M247.26,61V54.44H248V56h0a2.56,2.56,0,0,1,.9-1.2,2.32,2.32,0,0,1,1.38-.43h.29v.8h-.18a2.22,2.22,0,0,0-1.71.69,2.36,2.36,0,0,0-.64,1.69V61Z"/><path class="cls-4" d="M254.3,54.25a2.71,2.71,0,0,1,1.3.29,2.6,2.6,0,0,1,.9.79,3.45,3.45,0,0,1,.52,1.13,5.21,5.21,0,0,1,.17,1.34v.13h-5.05a3.58,3.58,0,0,0,.13.94,2.59,2.59,0,0,0,.39.83,2,2,0,0,0,.66.59,1.92,1.92,0,0,0,.95.22,2.44,2.44,0,0,0,.7-.09,2,2,0,0,0,.56-.26,1.76,1.76,0,0,0,.42-.39,2.41,2.41,0,0,0,.29-.49H257a3,3,0,0,1-.38.79,2.48,2.48,0,0,1-.59.6,2.68,2.68,0,0,1-.79.39,3.34,3.34,0,0,1-1,.14,2.94,2.94,0,0,1-1.3-.27,2.56,2.56,0,0,1-.91-.73,3.12,3.12,0,0,1-.54-1.1,5.14,5.14,0,0,1-.18-1.37,4.66,4.66,0,0,1,.18-1.28,3.36,3.36,0,0,1,.54-1.11,2.74,2.74,0,0,1,.92-.78A2.79,2.79,0,0,1,254.3,54.25Zm2.09,3a3,3,0,0,0-.16-.85,2.44,2.44,0,0,0-.41-.75,2.07,2.07,0,0,0-.65-.54,1.84,1.84,0,0,0-.88-.21,1.84,1.84,0,0,0-1.5.7,2.7,2.7,0,0,0-.42.75,4.31,4.31,0,0,0-.23.9Z"/><path class="cls-4" d="M265,61.06h-.66a3,3,0,0,1-.68-.06,1,1,0,0,1-.45-.23.89.89,0,0,1-.25-.43,2.65,2.65,0,0,1-.07-.68V55.11h-1.32v-.67h1.32v-2h.8v2h1.5v.67h-1.5v4.48a1.76,1.76,0,0,0,0,.34.64.64,0,0,0,.11.25.5.5,0,0,0,.21.16.87.87,0,0,0,.35.06h.6l.21,0V61Z"/><path class="cls-4" d="M267,61V54.44h.74V56h0a2.56,2.56,0,0,1,.9-1.2,2.32,2.32,0,0,1,1.38-.43h.29v.8h-.18a2.22,2.22,0,0,0-1.71.69,2.36,2.36,0,0,0-.64,1.69V61Z"/><path class="cls-4" d="M277.21,61l-.27,0h-.24a1.37,1.37,0,0,1-.44-.06.65.65,0,0,1-.29-.2.82.82,0,0,1-.16-.35,2.43,2.43,0,0,1,0-.53h0a3,3,0,0,1-1,1,2.79,2.79,0,0,1-1.35.29,2.46,2.46,0,0,1-1.6-.5,1.75,1.75,0,0,1-.6-1.43,1.66,1.66,0,0,1,.66-1.43,6.79,6.79,0,0,1,3-.69,2,2,0,0,0,.44-.08.75.75,0,0,0,.29-.16.6.6,0,0,0,.16-.26,1.28,1.28,0,0,0,0-.38,1.24,1.24,0,0,0-.4-1,2,2,0,0,0-1.31-.34,2.61,2.61,0,0,0-.72.09,1.65,1.65,0,0,0-.53.25,1.13,1.13,0,0,0-.33.39,1.23,1.23,0,0,0-.13.49h-.8a2,2,0,0,1,.22-.78,1.78,1.78,0,0,1,.51-.59,2.43,2.43,0,0,1,.81-.38,4,4,0,0,1,1.09-.13,2.64,2.64,0,0,1,1.83.54,2,2,0,0,1,.59,1.52v3.56a.47.47,0,0,0,.11.33.46.46,0,0,0,.36.12.7.7,0,0,0,.25,0Zm-1.52-3.54h0q-.12.22-.77.31l-.67.1-.74.12a2.67,2.67,0,0,0-1.17.44,1,1,0,0,0-.39.84,1.16,1.16,0,0,0,.43.94,1.6,1.6,0,0,0,1,.35,2.36,2.36,0,0,0,1.63-.58,1.85,1.85,0,0,0,.65-1.44Z"/><path class="cls-4" d="M281.56,54.25a3.35,3.35,0,0,1,1.08.16,1.83,1.83,0,0,1,.74.46,1.87,1.87,0,0,1,.43.77,3.79,3.79,0,0,1,.14,1.08V61h-.8V56.85a2.2,2.2,0,0,0-.41-1.44,1.54,1.54,0,0,0-1.25-.49,2.07,2.07,0,0,0-.86.17,1.88,1.88,0,0,0-.65.48,2.16,2.16,0,0,0-.41.71,2.63,2.63,0,0,0-.14.88V61h-.8V54.44h.8v1.14h0a2,2,0,0,1,.35-.56,2.18,2.18,0,0,1,.49-.42,2.33,2.33,0,0,1,.6-.26A2.48,2.48,0,0,1,281.56,54.25Z"/><path class="cls-4" d="M291,59.22a1.67,1.67,0,0,1-.22.88,1.89,1.89,0,0,1-.59.62,2.74,2.74,0,0,1-.84.36,4,4,0,0,1-1,.12,3.66,3.66,0,0,1-1.07-.14,2.4,2.4,0,0,1-.8-.41A2,2,0,0,1,286,60a2.4,2.4,0,0,1-.25-.85h.81a1.7,1.7,0,0,0,.2.56,1.41,1.41,0,0,0,.38.43,1.8,1.8,0,0,0,.57.28,2.56,2.56,0,0,0,.74.1,3,3,0,0,0,.6-.06,2.05,2.05,0,0,0,.58-.21,1.35,1.35,0,0,0,.44-.38,1,1,0,0,0,.18-.59.93.93,0,0,0-.34-.73,2.6,2.6,0,0,0-1.13-.46l-1-.22a4,4,0,0,1-.77-.24,2.1,2.1,0,0,1-.58-.37,1.46,1.46,0,0,1-.36-.5,1.62,1.62,0,0,1-.12-.65,1.57,1.57,0,0,1,.21-.83,1.78,1.78,0,0,1,.56-.57,2.53,2.53,0,0,1,.78-.33,3.77,3.77,0,0,1,.89-.11,3.27,3.27,0,0,1,.92.12,2.29,2.29,0,0,1,.73.35,1.83,1.83,0,0,1,.5.57,2.08,2.08,0,0,1,.25.78H290a1.32,1.32,0,0,0-.19-.5,1.24,1.24,0,0,0-.36-.37,1.69,1.69,0,0,0-.5-.22,2.36,2.36,0,0,0-.61-.08,2.85,2.85,0,0,0-.58.06,1.59,1.59,0,0,0-.51.19,1.07,1.07,0,0,0-.36.35,1,1,0,0,0-.13.53.74.74,0,0,0,.13.44,1.27,1.27,0,0,0,.33.32,1.93,1.93,0,0,0,.44.22,3.64,3.64,0,0,0,.46.13l1.37.3a2.85,2.85,0,0,1,.59.21,1.77,1.77,0,0,1,.5.35,1.64,1.64,0,0,1,.34.51A1.71,1.71,0,0,1,291,59.22Z"/><path class="cls-4" d="M301.07,61V56.54a1.73,1.73,0,0,0-.37-1.22,1.85,1.85,0,0,0-2.5.21,2.8,2.8,0,0,0-.45,1.71V61h-.81V56.51a1.81,1.81,0,0,0-.34-1.17,1.25,1.25,0,0,0-1-.42,1.72,1.72,0,0,0-1.46.65,2.72,2.72,0,0,0-.5,1.71V61h-.8V54.44h.74v1.1h0a2.26,2.26,0,0,1,2.15-1.29,2.44,2.44,0,0,1,.64.08,1.86,1.86,0,0,1,.54.24,1.66,1.66,0,0,1,.42.4,1.86,1.86,0,0,1,.28.55,2.16,2.16,0,0,1,.85-1,2.4,2.4,0,0,1,1.24-.32,2.12,2.12,0,0,1,1.63.58,2.36,2.36,0,0,1,.54,1.66V61Z"/><path class="cls-4" d="M304.88,51.57v1.29h-.8V51.57Zm0,2.87V61h-.8V54.44Z"/><path class="cls-4" d="M309.73,61.06h-.66a3,3,0,0,1-.68-.06,1,1,0,0,1-.45-.23.89.89,0,0,1-.25-.43,2.65,2.65,0,0,1-.07-.68V55.11h-1.32v-.67h1.32v-2h.8v2h1.5v.67h-1.5v4.48a1.76,1.76,0,0,0,0,.34.64.64,0,0,0,.11.25.5.5,0,0,0,.21.16.87.87,0,0,0,.35.06h.6l.21,0V61Z"/><path class="cls-4" d="M314.34,61.06h-.66A3,3,0,0,1,313,61a1,1,0,0,1-.45-.23.89.89,0,0,1-.25-.43,2.65,2.65,0,0,1-.07-.68V55.11h-1.32v-.67h1.32v-2h.8v2h1.5v.67H313v4.48a1.76,1.76,0,0,0,0,.34.64.64,0,0,0,.11.25.5.5,0,0,0,.21.16.87.87,0,0,0,.35.06h.6l.21,0V61Z"/><path class="cls-4" d="M318.69,54.25a2.71,2.71,0,0,1,1.3.29,2.6,2.6,0,0,1,.9.79,3.45,3.45,0,0,1,.52,1.13,5.21,5.21,0,0,1,.17,1.34v.13h-5.05a3.58,3.58,0,0,0,.13.94,2.59,2.59,0,0,0,.39.83,2,2,0,0,0,.66.59,1.92,1.92,0,0,0,.95.22,2.44,2.44,0,0,0,.7-.09,2,2,0,0,0,.56-.26,1.76,1.76,0,0,0,.42-.39,2.41,2.41,0,0,0,.29-.49h.79a3,3,0,0,1-.38.79,2.48,2.48,0,0,1-.59.6,2.68,2.68,0,0,1-.79.39,3.34,3.34,0,0,1-1,.14,2.94,2.94,0,0,1-1.3-.27,2.56,2.56,0,0,1-.91-.73,3.12,3.12,0,0,1-.54-1.1,5.14,5.14,0,0,1-.18-1.37,4.66,4.66,0,0,1,.18-1.28,3.36,3.36,0,0,1,.54-1.11,2.74,2.74,0,0,1,.92-.78A2.79,2.79,0,0,1,318.69,54.25Zm2.09,3a3,3,0,0,0-.16-.85,2.44,2.44,0,0,0-.41-.75,2.07,2.07,0,0,0-.65-.54,1.84,1.84,0,0,0-.88-.21,1.84,1.84,0,0,0-1.5.7,2.7,2.7,0,0,0-.42.75,4.31,4.31,0,0,0-.23.9Z"/><path class="cls-4" d="M323.26,61V54.44H324V56h0a2.56,2.56,0,0,1,.9-1.2,2.32,2.32,0,0,1,1.38-.43h.29v.8h-.18a2.22,2.22,0,0,0-1.71.69,2.36,2.36,0,0,0-.64,1.69V61Z"/><path class="cls-4" d="M333.55,52.25a9.69,9.69,0,0,0-1.89,5.82,6.9,6.9,0,0,0,.13,1.35,8.53,8.53,0,0,0,.38,1.34,10.23,10.23,0,0,0,.6,1.3,11.53,11.53,0,0,0,.78,1.23h-.64a10,10,0,0,1-1.49-2.6,8,8,0,0,1-.52-2.88,9,9,0,0,1,.11-1.43,8.24,8.24,0,0,1,.36-1.41,8.63,8.63,0,0,1,.62-1.38,9.44,9.44,0,0,1,.91-1.34Z"/><path class="cls-4" d="M340.77,61l-1-2.66h-3.89l-1,2.66h-.87l3.45-8.55h.91L341.64,61Zm-3-7.73h0l-1.71,4.38h3.37Z"/><path class="cls-4" d="M349.08,58.73a2.15,2.15,0,0,1-.28,1.14,2.26,2.26,0,0,1-.76.76,3.46,3.46,0,0,1-1.1.42,6.15,6.15,0,0,1-1.29.13,4.8,4.8,0,0,1-1.28-.16,3.18,3.18,0,0,1-1-.49,2.35,2.35,0,0,1-.69-.79,2.22,2.22,0,0,1-.25-1.08v-.19h.82v.06a1.87,1.87,0,0,0,.16.76,1.65,1.65,0,0,0,.48.62,2.43,2.43,0,0,0,.81.42,3.79,3.79,0,0,0,1.15.16,4,4,0,0,0,.9-.1,2.56,2.56,0,0,0,.79-.32,1.81,1.81,0,0,0,.56-.54,1.38,1.38,0,0,0,.21-.78q0-1.11-1.67-1.52l-2-.49a4,4,0,0,1-.88-.31,2.14,2.14,0,0,1-.6-.44,1.6,1.6,0,0,1-.35-.58,2.24,2.24,0,0,1-.11-.73,2.1,2.1,0,0,1,.25-1,2.34,2.34,0,0,1,.68-.76,3.07,3.07,0,0,1,1-.46,4.16,4.16,0,0,1,1.14-.16,4.34,4.34,0,0,1,1.2.16,2.9,2.9,0,0,1,1,.46,2.27,2.27,0,0,1,.64.75,2.24,2.24,0,0,1,.25,1h-.81a1.6,1.6,0,0,0-.2-.65,1.78,1.78,0,0,0-.46-.53,2.24,2.24,0,0,0-.69-.36,2.81,2.81,0,0,0-.88-.13,3.49,3.49,0,0,0-.91.11,2.16,2.16,0,0,0-.71.33,1.46,1.46,0,0,0-.46.53,1.6,1.6,0,0,0-.16.73,1.2,1.2,0,0,0,.11.52,1.13,1.13,0,0,0,.29.38,1.54,1.54,0,0,0,.43.25,4,4,0,0,0,.53.17l2,.48a3.73,3.73,0,0,1,1.76.85A1.93,1.93,0,0,1,349.08,58.73Z"/><path class="cls-4" d="M350.53,52.25a11.33,11.33,0,0,1,.86,1.24,8.41,8.41,0,0,1,.63,1.29,7.8,7.8,0,0,1,.39,1.4,8.62,8.62,0,0,1-1.87,7.1h-.64a10.2,10.2,0,0,0,1.39-2.71,9.63,9.63,0,0,0,.49-3.1,6.72,6.72,0,0,0-.14-1.35,8.49,8.49,0,0,0-.39-1.33,10.9,10.9,0,0,0-.6-1.3,13.56,13.56,0,0,0-.76-1.24Z"/><path class="cls-4" d="M213.48,85.88a2.34,2.34,0,0,1-.7,1.8,2.55,2.55,0,0,1-1.8.64h-3V92h-.82V83.43H211a2.53,2.53,0,0,1,1.8.65A2.33,2.33,0,0,1,213.48,85.88Zm-.81,0a1.68,1.68,0,0,0-.5-1.29,2.11,2.11,0,0,0-1.49-.46h-2.74v3.5h2.85a2,2,0,0,0,1.35-.45A1.65,1.65,0,0,0,212.66,85.88Z"/><path class="cls-4" d="M214.82,92V85.44h.74V87h0a2.56,2.56,0,0,1,.9-1.2,2.32,2.32,0,0,1,1.38-.43h.29v.8H218a2.22,2.22,0,0,0-1.71.69,2.36,2.36,0,0,0-.64,1.69V92Z"/><path class="cls-4" d="M221.87,85.25a2.71,2.71,0,0,1,1.3.29,2.6,2.6,0,0,1,.9.79,3.45,3.45,0,0,1,.52,1.13,5.21,5.21,0,0,1,.17,1.34v.13h-5.05a3.58,3.58,0,0,0,.13.94,2.59,2.59,0,0,0,.39.83,2,2,0,0,0,.66.59,1.92,1.92,0,0,0,.95.22,2.44,2.44,0,0,0,.7-.09,2,2,0,0,0,.56-.26,1.76,1.76,0,0,0,.42-.39,2.41,2.41,0,0,0,.29-.49h.79a3,3,0,0,1-.38.79,2.48,2.48,0,0,1-.59.6,2.68,2.68,0,0,1-.79.39,3.34,3.34,0,0,1-1,.14,2.94,2.94,0,0,1-1.3-.27,2.56,2.56,0,0,1-.91-.73,3.12,3.12,0,0,1-.54-1.1,5.14,5.14,0,0,1-.18-1.37,4.66,4.66,0,0,1,.18-1.28,3.36,3.36,0,0,1,.54-1.11,2.74,2.74,0,0,1,.92-.78A2.79,2.79,0,0,1,221.87,85.25Zm2.09,3a3,3,0,0,0-.16-.85,2.44,2.44,0,0,0-.41-.75,2.07,2.07,0,0,0-.65-.54,1.84,1.84,0,0,0-.88-.21,1.84,1.84,0,0,0-1.5.7,2.7,2.7,0,0,0-.42.75,4.31,4.31,0,0,0-.23.9Z"/><path class="cls-4" d="M231.34,90.22a1.67,1.67,0,0,1-.22.88,1.89,1.89,0,0,1-.59.62,2.74,2.74,0,0,1-.84.36,4,4,0,0,1-1,.12,3.66,3.66,0,0,1-1.07-.14,2.4,2.4,0,0,1-.8-.41,2,2,0,0,1-.53-.64,2.4,2.4,0,0,1-.25-.85h.81a1.7,1.7,0,0,0,.2.56,1.41,1.41,0,0,0,.38.43,1.8,1.8,0,0,0,.57.28,2.56,2.56,0,0,0,.74.1,3,3,0,0,0,.6-.06,2.05,2.05,0,0,0,.58-.21,1.35,1.35,0,0,0,.44-.38,1,1,0,0,0,.18-.59.93.93,0,0,0-.34-.73,2.6,2.6,0,0,0-1.13-.46l-1-.22a4,4,0,0,1-.77-.24,2.1,2.1,0,0,1-.58-.37,1.46,1.46,0,0,1-.36-.5,1.62,1.62,0,0,1-.12-.65,1.57,1.57,0,0,1,.21-.83,1.78,1.78,0,0,1,.56-.57,2.53,2.53,0,0,1,.78-.33,3.77,3.77,0,0,1,.89-.11,3.27,3.27,0,0,1,.92.12,2.29,2.29,0,0,1,.73.35,1.83,1.83,0,0,1,.5.57,2.08,2.08,0,0,1,.25.78h-.8a1.32,1.32,0,0,0-.19-.5,1.24,1.24,0,0,0-.36-.37,1.69,1.69,0,0,0-.5-.22,2.36,2.36,0,0,0-.61-.08A2.85,2.85,0,0,0,228,86a1.59,1.59,0,0,0-.51.19,1.07,1.07,0,0,0-.36.35A1,1,0,0,0,227,87a.74.74,0,0,0,.13.44,1.27,1.27,0,0,0,.33.32,1.93,1.93,0,0,0,.44.22,3.64,3.64,0,0,0,.46.13l1.37.3a2.85,2.85,0,0,1,.59.21,1.77,1.77,0,0,1,.5.35,1.64,1.64,0,0,1,.34.51A1.71,1.71,0,0,1,231.34,90.22Z"/><path class="cls-4" d="M238,90.22a1.67,1.67,0,0,1-.22.88,1.89,1.89,0,0,1-.59.62,2.74,2.74,0,0,1-.84.36,4,4,0,0,1-1,.12,3.66,3.66,0,0,1-1.07-.14,2.4,2.4,0,0,1-.8-.41A2,2,0,0,1,233,91a2.4,2.4,0,0,1-.25-.85h.81a1.7,1.7,0,0,0,.2.56,1.41,1.41,0,0,0,.38.43,1.8,1.8,0,0,0,.57.28,2.56,2.56,0,0,0,.74.1,3,3,0,0,0,.6-.06,2.05,2.05,0,0,0,.58-.21,1.35,1.35,0,0,0,.44-.38,1,1,0,0,0,.18-.59.93.93,0,0,0-.34-.73,2.6,2.6,0,0,0-1.13-.46l-1-.22a4,4,0,0,1-.77-.24,2.1,2.1,0,0,1-.58-.37,1.46,1.46,0,0,1-.36-.5,1.62,1.62,0,0,1-.12-.65,1.57,1.57,0,0,1,.21-.83,1.78,1.78,0,0,1,.56-.57,2.53,2.53,0,0,1,.78-.33,3.77,3.77,0,0,1,.89-.11,3.27,3.27,0,0,1,.92.12,2.29,2.29,0,0,1,.73.35,1.83,1.83,0,0,1,.5.57,2.08,2.08,0,0,1,.25.78h-.8a1.32,1.32,0,0,0-.19-.5,1.24,1.24,0,0,0-.36-.37,1.69,1.69,0,0,0-.5-.22,2.36,2.36,0,0,0-.61-.08,2.85,2.85,0,0,0-.58.06,1.59,1.59,0,0,0-.51.19,1.07,1.07,0,0,0-.36.35,1,1,0,0,0-.13.53.74.74,0,0,0,.13.44,1.27,1.27,0,0,0,.33.32,1.93,1.93,0,0,0,.44.22,3.64,3.64,0,0,0,.46.13l1.37.3a2.85,2.85,0,0,1,.59.21,1.77,1.77,0,0,1,.5.35,1.64,1.64,0,0,1,.34.51A1.71,1.71,0,0,1,238,90.22Z"/><path class="cls-4" d="M244.34,92V90.82h0a2.48,2.48,0,0,1-.39.58,2.34,2.34,0,0,1-.52.43,2.47,2.47,0,0,1-.63.27,2.73,2.73,0,0,1-.72.09,2.21,2.21,0,0,1-1.74-.63,2.64,2.64,0,0,1-.56-1.82V85.44h.8v4.28a2.67,2.67,0,0,0,.1.76A1.43,1.43,0,0,0,241,91a1.33,1.33,0,0,0,.54.35,2.33,2.33,0,0,0,.79.12,1.7,1.7,0,0,0,.89-.23,1.92,1.92,0,0,0,.62-.59,2.62,2.62,0,0,0,.36-.83,3.9,3.9,0,0,0,.11-.94V85.44h.8V92Z"/><path class="cls-4" d="M247.26,92V85.44H248V87h0a2.56,2.56,0,0,1,.9-1.2,2.32,2.32,0,0,1,1.38-.43h.29v.8h-.18a2.22,2.22,0,0,0-1.71.69,2.36,2.36,0,0,0-.64,1.69V92Z"/><path class="cls-4" d="M254.3,85.25a2.71,2.71,0,0,1,1.3.29,2.6,2.6,0,0,1,.9.79,3.45,3.45,0,0,1,.52,1.13,5.21,5.21,0,0,1,.17,1.34v.13h-5.05a3.58,3.58,0,0,0,.13.94,2.59,2.59,0,0,0,.39.83,2,2,0,0,0,.66.59,1.92,1.92,0,0,0,.95.22,2.44,2.44,0,0,0,.7-.09,2,2,0,0,0,.56-.26,1.76,1.76,0,0,0,.42-.39,2.41,2.41,0,0,0,.29-.49H257a3,3,0,0,1-.38.79,2.48,2.48,0,0,1-.59.6,2.68,2.68,0,0,1-.79.39,3.34,3.34,0,0,1-1,.14,2.94,2.94,0,0,1-1.3-.27,2.56,2.56,0,0,1-.91-.73,3.12,3.12,0,0,1-.54-1.1,5.14,5.14,0,0,1-.18-1.37,4.66,4.66,0,0,1,.18-1.28,3.36,3.36,0,0,1,.54-1.11,2.74,2.74,0,0,1,.92-.78A2.79,2.79,0,0,1,254.3,85.25Zm2.09,3a3,3,0,0,0-.16-.85,2.44,2.44,0,0,0-.41-.75,2.07,2.07,0,0,0-.65-.54,1.84,1.84,0,0,0-.88-.21,1.84,1.84,0,0,0-1.5.7,2.7,2.7,0,0,0-.42.75,4.31,4.31,0,0,0-.23.9Z"/><path class="cls-4" d="M265,92.06h-.66a3,3,0,0,1-.68-.06,1,1,0,0,1-.45-.23.89.89,0,0,1-.25-.43,2.65,2.65,0,0,1-.07-.68V86.11h-1.32v-.67h1.32v-2h.8v2h1.5v.67h-1.5v4.48a1.76,1.76,0,0,0,0,.34.64.64,0,0,0,.11.25.5.5,0,0,0,.21.16.87.87,0,0,0,.35.06h.6l.21,0V92Z"/><path class="cls-4" d="M267,92V85.44h.74V87h0a2.56,2.56,0,0,1,.9-1.2,2.32,2.32,0,0,1,1.38-.43h.29v.8h-.18a2.22,2.22,0,0,0-1.71.69,2.36,2.36,0,0,0-.64,1.69V92Z"/><path class="cls-4" d="M277.21,92l-.27,0h-.24a1.37,1.37,0,0,1-.44-.06.65.65,0,0,1-.29-.2.82.82,0,0,1-.16-.35,2.43,2.43,0,0,1,0-.53h0a3,3,0,0,1-1,1,2.79,2.79,0,0,1-1.35.29,2.46,2.46,0,0,1-1.6-.5,1.75,1.75,0,0,1-.6-1.43,1.66,1.66,0,0,1,.66-1.43,6.79,6.79,0,0,1,3-.69,2,2,0,0,0,.44-.08.75.75,0,0,0,.29-.16.6.6,0,0,0,.16-.26,1.28,1.28,0,0,0,0-.38,1.24,1.24,0,0,0-.4-1,2,2,0,0,0-1.31-.34,2.61,2.61,0,0,0-.72.09,1.65,1.65,0,0,0-.53.25,1.13,1.13,0,0,0-.33.39,1.23,1.23,0,0,0-.13.49h-.8a2,2,0,0,1,.22-.78,1.78,1.78,0,0,1,.51-.59,2.43,2.43,0,0,1,.81-.38,4,4,0,0,1,1.09-.13,2.64,2.64,0,0,1,1.83.54,2,2,0,0,1,.59,1.52v3.56a.47.47,0,0,0,.11.33.46.46,0,0,0,.36.12.7.7,0,0,0,.25,0Zm-1.52-3.54h0q-.12.22-.77.31l-.67.1-.74.12a2.67,2.67,0,0,0-1.17.44,1,1,0,0,0-.39.84,1.16,1.16,0,0,0,.43.94,1.6,1.6,0,0,0,1,.35,2.36,2.36,0,0,0,1.63-.58,1.85,1.85,0,0,0,.65-1.44Z"/><path class="cls-4" d="M281.56,85.25a3.35,3.35,0,0,1,1.08.16,1.83,1.83,0,0,1,.74.46,1.87,1.87,0,0,1,.43.77,3.79,3.79,0,0,1,.14,1.08V92h-.8V87.85a2.2,2.2,0,0,0-.41-1.44,1.54,1.54,0,0,0-1.25-.49,2.07,2.07,0,0,0-.86.17,1.88,1.88,0,0,0-.65.48,2.16,2.16,0,0,0-.41.71,2.63,2.63,0,0,0-.14.88V92h-.8V85.44h.8v1.14h0a2,2,0,0,1,.35-.56,2.18,2.18,0,0,1,.49-.42,2.33,2.33,0,0,1,.6-.26A2.48,2.48,0,0,1,281.56,85.25Z"/><path class="cls-4" d="M291,90.22a1.67,1.67,0,0,1-.22.88,1.89,1.89,0,0,1-.59.62,2.74,2.74,0,0,1-.84.36,4,4,0,0,1-1,.12,3.66,3.66,0,0,1-1.07-.14,2.4,2.4,0,0,1-.8-.41A2,2,0,0,1,286,91a2.4,2.4,0,0,1-.25-.85h.81a1.7,1.7,0,0,0,.2.56,1.41,1.41,0,0,0,.38.43,1.8,1.8,0,0,0,.57.28,2.56,2.56,0,0,0,.74.1,3,3,0,0,0,.6-.06,2.05,2.05,0,0,0,.58-.21,1.35,1.35,0,0,0,.44-.38,1,1,0,0,0,.18-.59.93.93,0,0,0-.34-.73,2.6,2.6,0,0,0-1.13-.46l-1-.22a4,4,0,0,1-.77-.24,2.1,2.1,0,0,1-.58-.37,1.46,1.46,0,0,1-.36-.5,1.62,1.62,0,0,1-.12-.65,1.57,1.57,0,0,1,.21-.83,1.78,1.78,0,0,1,.56-.57,2.53,2.53,0,0,1,.78-.33,3.77,3.77,0,0,1,.89-.11,3.27,3.27,0,0,1,.92.12,2.29,2.29,0,0,1,.73.35,1.83,1.83,0,0,1,.5.57,2.08,2.08,0,0,1,.25.78H290a1.32,1.32,0,0,0-.19-.5,1.24,1.24,0,0,0-.36-.37,1.69,1.69,0,0,0-.5-.22,2.36,2.36,0,0,0-.61-.08,2.85,2.85,0,0,0-.58.06,1.59,1.59,0,0,0-.51.19,1.07,1.07,0,0,0-.36.35,1,1,0,0,0-.13.53.74.74,0,0,0,.13.44,1.27,1.27,0,0,0,.33.32,1.93,1.93,0,0,0,.44.22,3.64,3.64,0,0,0,.46.13l1.37.3a2.85,2.85,0,0,1,.59.21,1.77,1.77,0,0,1,.5.35,1.64,1.64,0,0,1,.34.51A1.71,1.71,0,0,1,291,90.22Z"/><path class="cls-4" d="M301.07,92V87.54a1.73,1.73,0,0,0-.37-1.22,1.85,1.85,0,0,0-2.5.21,2.8,2.8,0,0,0-.45,1.71V92h-.81V87.51a1.81,1.81,0,0,0-.34-1.17,1.25,1.25,0,0,0-1-.42,1.72,1.72,0,0,0-1.46.65,2.72,2.72,0,0,0-.5,1.71V92h-.8V85.44h.74v1.1h0a2.26,2.26,0,0,1,2.15-1.29,2.44,2.44,0,0,1,.64.08,1.86,1.86,0,0,1,.54.24,1.66,1.66,0,0,1,.42.4,1.86,1.86,0,0,1,.28.55,2.16,2.16,0,0,1,.85-1,2.4,2.4,0,0,1,1.24-.32,2.12,2.12,0,0,1,1.63.58,2.36,2.36,0,0,1,.54,1.66V92Z"/><path class="cls-4" d="M304.88,82.57v1.29h-.8V82.57Zm0,2.87V92h-.8V85.44Z"/><path class="cls-4" d="M309.73,92.06h-.66a3,3,0,0,1-.68-.06,1,1,0,0,1-.45-.23.89.89,0,0,1-.25-.43,2.65,2.65,0,0,1-.07-.68V86.11h-1.32v-.67h1.32v-2h.8v2h1.5v.67h-1.5v4.48a1.76,1.76,0,0,0,0,.34.64.64,0,0,0,.11.25.5.5,0,0,0,.21.16.87.87,0,0,0,.35.06h.6l.21,0V92Z"/><path class="cls-4" d="M314.34,92.06h-.66A3,3,0,0,1,313,92a1,1,0,0,1-.45-.23.89.89,0,0,1-.25-.43,2.65,2.65,0,0,1-.07-.68V86.11h-1.32v-.67h1.32v-2h.8v2h1.5v.67H313v4.48a1.76,1.76,0,0,0,0,.34.64.64,0,0,0,.11.25.5.5,0,0,0,.21.16.87.87,0,0,0,.35.06h.6l.21,0V92Z"/><path class="cls-4" d="M318.69,85.25a2.71,2.71,0,0,1,1.3.29,2.6,2.6,0,0,1,.9.79,3.45,3.45,0,0,1,.52,1.13,5.21,5.21,0,0,1,.17,1.34v.13h-5.05a3.58,3.58,0,0,0,.13.94,2.59,2.59,0,0,0,.39.83,2,2,0,0,0,.66.59,1.92,1.92,0,0,0,.95.22,2.44,2.44,0,0,0,.7-.09,2,2,0,0,0,.56-.26,1.76,1.76,0,0,0,.42-.39,2.41,2.41,0,0,0,.29-.49h.79a3,3,0,0,1-.38.79,2.48,2.48,0,0,1-.59.6,2.68,2.68,0,0,1-.79.39,3.34,3.34,0,0,1-1,.14,2.94,2.94,0,0,1-1.3-.27,2.56,2.56,0,0,1-.91-.73,3.12,3.12,0,0,1-.54-1.1,5.14,5.14,0,0,1-.18-1.37,4.66,4.66,0,0,1,.18-1.28,3.36,3.36,0,0,1,.54-1.11,2.74,2.74,0,0,1,.92-.78A2.79,2.79,0,0,1,318.69,85.25Zm2.09,3a3,3,0,0,0-.16-.85,2.44,2.44,0,0,0-.41-.75,2.07,2.07,0,0,0-.65-.54,1.84,1.84,0,0,0-.88-.21,1.84,1.84,0,0,0-1.5.7,2.7,2.7,0,0,0-.42.75,4.31,4.31,0,0,0-.23.9Z"/><path class="cls-4" d="M323.26,92V85.44H324V87h0a2.56,2.56,0,0,1,.9-1.2,2.32,2.32,0,0,1,1.38-.43h.29v.8h-.18a2.22,2.22,0,0,0-1.71.69,2.36,2.36,0,0,0-.64,1.69V92Z"/><path class="cls-4" d="M333.55,83.25a9.69,9.69,0,0,0-1.89,5.82,6.9,6.9,0,0,0,.13,1.35,8.53,8.53,0,0,0,.38,1.34,10.23,10.23,0,0,0,.6,1.3,11.53,11.53,0,0,0,.78,1.23h-.64a10,10,0,0,1-1.49-2.6,8,8,0,0,1-.52-2.88,9,9,0,0,1,.11-1.43,8.24,8.24,0,0,1,.36-1.41,8.63,8.63,0,0,1,.62-1.38,9.44,9.44,0,0,1,.91-1.34Z"/><path class="cls-4" d="M340.77,92l-1-2.66h-3.89l-1,2.66h-.87l3.45-8.55h.91L341.64,92Zm-3-7.73h0l-1.71,4.38h3.37Z"/><path class="cls-4" d="M349.08,89.73a2.15,2.15,0,0,1-.28,1.14,2.26,2.26,0,0,1-.76.76,3.46,3.46,0,0,1-1.1.42,6.15,6.15,0,0,1-1.29.13,4.8,4.8,0,0,1-1.28-.16,3.18,3.18,0,0,1-1-.49,2.35,2.35,0,0,1-.69-.79,2.22,2.22,0,0,1-.25-1.08v-.19h.82v.06a1.87,1.87,0,0,0,.16.76,1.65,1.65,0,0,0,.48.62,2.43,2.43,0,0,0,.81.42,3.79,3.79,0,0,0,1.15.16,4,4,0,0,0,.9-.1,2.56,2.56,0,0,0,.79-.32,1.81,1.81,0,0,0,.56-.54,1.38,1.38,0,0,0,.21-.78q0-1.11-1.67-1.52l-2-.49a4,4,0,0,1-.88-.31,2.14,2.14,0,0,1-.6-.44,1.6,1.6,0,0,1-.35-.58,2.24,2.24,0,0,1-.11-.73,2.1,2.1,0,0,1,.25-1,2.34,2.34,0,0,1,.68-.76,3.07,3.07,0,0,1,1-.46,4.16,4.16,0,0,1,1.14-.16,4.34,4.34,0,0,1,1.2.16,2.9,2.9,0,0,1,1,.46,2.27,2.27,0,0,1,.64.75,2.24,2.24,0,0,1,.25,1h-.81a1.6,1.6,0,0,0-.2-.65,1.78,1.78,0,0,0-.46-.53,2.24,2.24,0,0,0-.69-.36,2.81,2.81,0,0,0-.88-.13,3.49,3.49,0,0,0-.91.11,2.16,2.16,0,0,0-.71.33,1.46,1.46,0,0,0-.46.53,1.6,1.6,0,0,0-.16.73,1.2,1.2,0,0,0,.11.52,1.13,1.13,0,0,0,.29.38,1.54,1.54,0,0,0,.43.25,4,4,0,0,0,.53.17l2,.48a3.73,3.73,0,0,1,1.76.85A1.93,1.93,0,0,1,349.08,89.73Z"/><path class="cls-4" d="M350.53,83.25a11.33,11.33,0,0,1,.86,1.24,8.41,8.41,0,0,1,.63,1.29,7.8,7.8,0,0,1,.39,1.4,8.62,8.62,0,0,1-1.87,7.1h-.64a10.2,10.2,0,0,0,1.39-2.71,9.63,9.63,0,0,0,.49-3.1,6.72,6.72,0,0,0-.14-1.35,8.49,8.49,0,0,0-.39-1.33,10.9,10.9,0,0,0-.6-1.3,13.56,13.56,0,0,0-.76-1.24Z"/><path class="cls-5" d="M31.89,26.93V28H29.62v6.08H28.37V28H26.11V26.93Z"/><path class="cls-5" d="M36.94,34.07l-.62-1.82h-3l-.62,1.82H31.47L34,26.94h1.69l2.52,7.13Zm-2.07-6.21h0L33.68,31.3H36Z"/><path class="cls-5" d="M42.08,26.76a3.65,3.65,0,0,1,1.07.15,2.94,2.94,0,0,1,.9.45,2.54,2.54,0,0,1,.66.72,2.71,2.71,0,0,1,.36,1H43.86a1.55,1.55,0,0,0-.24-.53,1.59,1.59,0,0,0-.4-.39,1.74,1.74,0,0,0-.52-.24,2.26,2.26,0,0,0-.63-.08,2.11,2.11,0,0,0-1,.21,2,2,0,0,0-.69.58,2.53,2.53,0,0,0-.41.86,3.94,3.94,0,0,0-.13,1,3.83,3.83,0,0,0,.12,1,2.55,2.55,0,0,0,.39.85,2,2,0,0,0,.69.6,2.07,2.07,0,0,0,1,.23,2.3,2.3,0,0,0,.8-.13,1.71,1.71,0,0,0,.61-.38,1.75,1.75,0,0,0,.4-.61,2.5,2.5,0,0,0,.17-.82H42.17v-1h3v3.78h-.82l-.13-1h0a2.45,2.45,0,0,1-.93.87,2.68,2.68,0,0,1-1.24.28A3.43,3.43,0,0,1,40.63,34a3.17,3.17,0,0,1-1.08-.78A3.5,3.5,0,0,1,38.86,32a4.37,4.37,0,0,1-.24-1.47,4.49,4.49,0,0,1,.23-1.46,3.53,3.53,0,0,1,.68-1.19,3.19,3.19,0,0,1,1.09-.81A3.44,3.44,0,0,1,42.08,26.76Z"/><path class="cls-5" d="M209.71,26.93a3.18,3.18,0,0,1,2.37.9,3.63,3.63,0,0,1,.89,2.64,3.74,3.74,0,0,1-.88,2.67,3.09,3.09,0,0,1-2.35.92h-2.89V26.93ZM209.57,33a2.07,2.07,0,0,0,1.58-.59,2.62,2.62,0,0,0,.57-1.86,2.79,2.79,0,0,0-.58-2,2.34,2.34,0,0,0-1.78-.61H208.1v5Z"/><path class="cls-5" d="M219.57,26.94V28h-3.94v1.9h3.64v1h-3.64V33h4v1h-5.25V26.94Z"/><path class="cls-5" d="M226.3,32a2,2,0,0,1-.24,1,2,2,0,0,1-.65.68,2.93,2.93,0,0,1-.94.39,4.91,4.91,0,0,1-1.12.12,4.28,4.28,0,0,1-1.14-.14,2.83,2.83,0,0,1-.92-.43,2.08,2.08,0,0,1-.62-.7,2,2,0,0,1-.22-1v-.08h1.23v0a1.12,1.12,0,0,0,.14.56,1.18,1.18,0,0,0,.38.4,1.76,1.76,0,0,0,.56.24,3,3,0,0,0,1.32,0,1.72,1.72,0,0,0,.52-.21,1.08,1.08,0,0,0,.35-.34.88.88,0,0,0,.13-.48.77.77,0,0,0-.31-.63,2.71,2.71,0,0,0-1-.42l-1.53-.41a2.36,2.36,0,0,1-1.2-.65,1.68,1.68,0,0,1-.39-1.16,1.87,1.87,0,0,1,.21-.91,2,2,0,0,1,.58-.66,2.72,2.72,0,0,1,.86-.4,4,4,0,0,1,2,0,2.68,2.68,0,0,1,.85.38,1.92,1.92,0,0,1,.59.64,1.87,1.87,0,0,1,.23.91h-1.22a1,1,0,0,0-.44-.77,1.49,1.49,0,0,0-.46-.22,2.05,2.05,0,0,0-.59-.08,2.41,2.41,0,0,0-.55.06,1.48,1.48,0,0,0-.46.19,1,1,0,0,0-.31.32.88.88,0,0,0-.11.46.82.82,0,0,0,.06.33.65.65,0,0,0,.17.23.9.9,0,0,0,.26.16l.34.11,1.68.45a3.06,3.06,0,0,1,1.42.72A1.68,1.68,0,0,1,226.3,32Z"/><path class="cls-5" d="M230.68,26.78a3.75,3.75,0,0,1,1.1.15,2.86,2.86,0,0,1,.89.44,2.43,2.43,0,0,1,.64.71,2.67,2.67,0,0,1,.34.95h-1.22a1.57,1.57,0,0,0-.21-.47,1.52,1.52,0,0,0-.37-.38,1.83,1.83,0,0,0-.52-.26,2.11,2.11,0,0,0-.65-.1,2,2,0,0,0-1.68.82,2.6,2.6,0,0,0-.42.86,3.75,3.75,0,0,0-.14,1,3.71,3.71,0,0,0,.13,1,2.57,2.57,0,0,0,.4.85,2,2,0,0,0,1.7.83,2,2,0,0,0,.71-.12,1.66,1.66,0,0,0,.93-.84,2.23,2.23,0,0,0,.2-.65h1.22a3.51,3.51,0,0,1-.29,1.05A2.66,2.66,0,0,1,231.9,34a3.45,3.45,0,0,1-1.24.21,3.55,3.55,0,0,1-1.43-.28,3.21,3.21,0,0,1-1.1-.78,3.44,3.44,0,0,1-.7-1.17,4.35,4.35,0,0,1-.24-1.48,4.43,4.43,0,0,1,.23-1.43,3.57,3.57,0,0,1,.67-1.19,3.2,3.2,0,0,1,1.09-.82A3.48,3.48,0,0,1,230.68,26.78Z"/><path class="cls-5" d="M240.81,28.86a1.91,1.91,0,0,1-.42,1.28,1.5,1.5,0,0,1-.35.31,2.07,2.07,0,0,1-.46.21v0a1.44,1.44,0,0,1,.49.21,1.18,1.18,0,0,1,.33.35,1.62,1.62,0,0,1,.21.52,4.26,4.26,0,0,1,.08.57q0,.3,0,.61a4,4,0,0,0,.08.62,1.36,1.36,0,0,0,.2.52h-1.27a3.63,3.63,0,0,1-.19-1.12,2.68,2.68,0,0,0-.38-1.47,1.13,1.13,0,0,0-.88-.34h-2v2.92H235V26.93h3.68a2.13,2.13,0,0,1,1.48.53A1.8,1.8,0,0,1,240.81,28.86Zm-1.25.2a1.09,1.09,0,0,0-.32-.86,1.29,1.29,0,0,0-.89-.28H236.3v2.29h2.05a1.27,1.27,0,0,0,.85-.27A1.08,1.08,0,0,0,239.56,29.06Z"/><path class="cls-5" d="M243.64,26.93v7.14h-1.25V26.93Z"/><path class="cls-5" d="M250.95,29.13a2.12,2.12,0,0,1-.62,1.6,2.09,2.09,0,0,1-.73.45,2.79,2.79,0,0,1-.94.15h-2v2.74H245.4V26.93h3.25a2.33,2.33,0,0,1,1.67.6A2.09,2.09,0,0,1,250.95,29.13Zm-1.22,0a1.13,1.13,0,0,0-.35-.91,1.64,1.64,0,0,0-1.09-.3h-1.64v2.42h1.67a2.33,2.33,0,0,0,.6-.07,1.06,1.06,0,0,0,.81-1.13Z"/><path class="cls-5" d="M257.4,26.93V28h-2.27v6.08h-1.25V28h-2.27V26.93Z"/><path class="cls-5" d="M259.68,26.93v7.14h-1.25V26.93Z"/><path class="cls-5" d="M268,30.52a3.85,3.85,0,0,1-.95,2.66,3.21,3.21,0,0,1-2.51,1.05,3.63,3.63,0,0,1-1.36-.24,3.21,3.21,0,0,1-1.1-.75,3.36,3.36,0,0,1-.75-1.22,4.45,4.45,0,0,1-.25-1.51,3.9,3.9,0,0,1,.95-2.7,3.21,3.21,0,0,1,2.51-1.05,3.68,3.68,0,0,1,1.37.25,3,3,0,0,1,1.1.76,3.33,3.33,0,0,1,.74,1.23A4.74,4.74,0,0,1,268,30.52Zm-1.25,0a3.07,3.07,0,0,0-.59-2,2.14,2.14,0,0,0-3.25,0,3.08,3.08,0,0,0-.58,2,3,3,0,0,0,.58,1.91,2.16,2.16,0,0,0,3.26,0A3,3,0,0,0,266.74,30.52Z"/><path class="cls-5" d="M270.64,26.93l3.4,5.3h0v-5.3h1.19v7.14H274l-3.4-5.3h0v5.3h-1.19V26.93Z"/><path class="cls-5" d="M400,26.93v4.48a1.89,1.89,0,0,0,.41,1.33,1.69,1.69,0,0,0,1.29.44,1.73,1.73,0,0,0,1.29-.43,1.86,1.86,0,0,0,.41-1.34V26.93h1.25v4.53a2.74,2.74,0,0,1-.75,2,3,3,0,0,1-2.2.75,4,4,0,0,1-1.27-.19,2.33,2.33,0,0,1-1.5-1.46,3.37,3.37,0,0,1-.18-1.13V26.93Z"/><path class="cls-5" d="M407.66,26.93l3.4,5.3h0v-5.3h1.19v7.14H411l-3.4-5.3h0v5.3h-1.19V26.93Z"/><path class="cls-5" d="M415.28,26.93v7.14H414V26.93Z"/><path class="cls-5" d="M422.09,26.93V28h-2.27v6.08h-1.25V28h-2.27V26.93Z"/><path class="cls-5" d="M475.54,34.07l-.62-1.82h-3l-.62,1.82h-1.27l2.57-7.13h1.69l2.52,7.13Zm-2.07-6.21h0l-1.17,3.44h2.33Z"/><path class="cls-5" d="M478.78,26.93v4.48a1.89,1.89,0,0,0,.41,1.33,1.69,1.69,0,0,0,1.29.44,1.73,1.73,0,0,0,1.29-.43,1.86,1.86,0,0,0,.41-1.34V26.93h1.25v4.53a2.74,2.74,0,0,1-.75,2,3,3,0,0,1-2.2.75,4,4,0,0,1-1.27-.19,2.33,2.33,0,0,1-1.5-1.46,3.37,3.37,0,0,1-.18-1.13V26.93Z"/><path class="cls-5" d="M490.2,26.93V28h-2.27v6.08h-1.25V28h-2.27V26.93Z"/><path class="cls-5" d="M497.6,30.52a3.85,3.85,0,0,1-.95,2.66,3.21,3.21,0,0,1-2.51,1.05,3.63,3.63,0,0,1-1.36-.24,3.2,3.2,0,0,1-1.1-.75,3.36,3.36,0,0,1-.75-1.22,4.45,4.45,0,0,1-.25-1.51,3.9,3.9,0,0,1,.95-2.7,3.21,3.21,0,0,1,2.51-1.05,3.68,3.68,0,0,1,1.37.25,3,3,0,0,1,1.1.76,3.35,3.35,0,0,1,.74,1.23A4.76,4.76,0,0,1,497.6,30.52Zm-1.25,0a3.07,3.07,0,0,0-.59-2,2.14,2.14,0,0,0-3.25,0,3.08,3.08,0,0,0-.58,2,3,3,0,0,0,.58,1.91,2.16,2.16,0,0,0,3.26,0A3,3,0,0,0,496.34,30.52Z"/><path class="cls-5" d="M504.3,32a2,2,0,0,1-.24,1,2,2,0,0,1-.65.68,2.93,2.93,0,0,1-.94.39,4.91,4.91,0,0,1-1.12.12,4.28,4.28,0,0,1-1.14-.14,2.83,2.83,0,0,1-.92-.43,2.08,2.08,0,0,1-.62-.7,2,2,0,0,1-.22-1v-.08h1.23v0a1.12,1.12,0,0,0,.14.56,1.18,1.18,0,0,0,.38.4,1.76,1.76,0,0,0,.56.24,3,3,0,0,0,1.32,0,1.72,1.72,0,0,0,.52-.21,1.08,1.08,0,0,0,.35-.34.88.88,0,0,0,.13-.48.77.77,0,0,0-.31-.63,2.71,2.71,0,0,0-1-.42l-1.53-.41a2.36,2.36,0,0,1-1.2-.65,1.68,1.68,0,0,1-.39-1.16,1.87,1.87,0,0,1,.21-.91,2,2,0,0,1,.58-.66,2.72,2.72,0,0,1,.86-.4,4,4,0,0,1,2,0,2.68,2.68,0,0,1,.85.38,1.92,1.92,0,0,1,.59.64,1.87,1.87,0,0,1,.23.91h-1.22a1,1,0,0,0-.44-.77,1.49,1.49,0,0,0-.46-.22,2.05,2.05,0,0,0-.59-.08,2.41,2.41,0,0,0-.55.06,1.48,1.48,0,0,0-.46.19,1,1,0,0,0-.31.32.88.88,0,0,0-.11.46.82.82,0,0,0,.06.33.65.65,0,0,0,.17.23.9.9,0,0,0,.26.16l.34.11,1.68.45a3.06,3.06,0,0,1,1.42.72A1.68,1.68,0,0,1,504.3,32Z"/><path class="cls-5" d="M508.67,26.78a3.75,3.75,0,0,1,1.1.15,2.86,2.86,0,0,1,.89.44,2.43,2.43,0,0,1,.64.71,2.67,2.67,0,0,1,.34.95h-1.22a1.57,1.57,0,0,0-.21-.47,1.52,1.52,0,0,0-.37-.38,1.83,1.83,0,0,0-.52-.26,2.11,2.11,0,0,0-.65-.1,2,2,0,0,0-1.68.82,2.6,2.6,0,0,0-.42.86,3.75,3.75,0,0,0-.14,1,3.71,3.71,0,0,0,.13,1,2.57,2.57,0,0,0,.4.85,2,2,0,0,0,1.7.83,2,2,0,0,0,.71-.12,1.66,1.66,0,0,0,.93-.84,2.23,2.23,0,0,0,.2-.65h1.22a3.51,3.51,0,0,1-.29,1.05A2.66,2.66,0,0,1,509.9,34a3.45,3.45,0,0,1-1.24.21,3.55,3.55,0,0,1-1.43-.28,3.21,3.21,0,0,1-1.1-.78,3.44,3.44,0,0,1-.7-1.17,4.35,4.35,0,0,1-.24-1.48,4.43,4.43,0,0,1,.23-1.43,3.57,3.57,0,0,1,.67-1.19,3.2,3.2,0,0,1,1.09-.82A3.48,3.48,0,0,1,508.67,26.78Z"/><path class="cls-5" d="M517.62,34.07,517,32.25h-3l-.62,1.82h-1.27l2.57-7.13h1.69l2.52,7.13Zm-2.07-6.21h0l-1.17,3.44h2.33Z"/><path class="cls-5" d="M521.17,26.93V33h3.67v1.05h-4.92V26.93Z"/><path class="cls-5" d="M531.06,26.94V28h-3.94v1.9h3.64v1h-3.64V33h4v1h-5.25V26.94Z"/><path class="cls-4" d="M405.82,58.56a2.18,2.18,0,0,1-.78,1.82,3.51,3.51,0,0,1-2.22.62h-3.69V52.43h3.69a4.84,4.84,0,0,1,1,.11,2.47,2.47,0,0,1,.86.35,1.81,1.81,0,0,1,.59.65,2,2,0,0,1,.22,1,2.1,2.1,0,0,1-.1.64,1.89,1.89,0,0,1-.76,1,2,2,0,0,1-.63.28v0a2.29,2.29,0,0,1,.76.23,1.86,1.86,0,0,1,.92,1.07A2.49,2.49,0,0,1,405.82,58.56Zm-1.14-3.83a1.45,1.45,0,0,0-.49-1.21,2.29,2.29,0,0,0-1.45-.39h-2.79v3.06h2.85a2.88,2.88,0,0,0,.67-.08,1.87,1.87,0,0,0,.59-.25,1.35,1.35,0,0,0,.62-1.13Zm.32,3.81a1.42,1.42,0,0,0-.59-1.24,2.89,2.89,0,0,0-1.68-.41h-2.8V60.3h2.87a2.64,2.64,0,0,0,1.64-.43A1.58,1.58,0,0,0,405,58.54Z"/><path class="cls-4" d="M413.2,61l-.27,0h-.24a1.37,1.37,0,0,1-.44-.06.65.65,0,0,1-.29-.2.82.82,0,0,1-.16-.35,2.43,2.43,0,0,1,0-.53h0a3,3,0,0,1-1,1,2.79,2.79,0,0,1-1.35.29,2.46,2.46,0,0,1-1.6-.5,1.75,1.75,0,0,1-.6-1.43,1.66,1.66,0,0,1,.66-1.43,6.79,6.79,0,0,1,3-.69,2,2,0,0,0,.44-.08.75.75,0,0,0,.29-.16.6.6,0,0,0,.16-.26,1.28,1.28,0,0,0,0-.38,1.24,1.24,0,0,0-.4-1,2,2,0,0,0-1.31-.34,2.61,2.61,0,0,0-.72.09,1.65,1.65,0,0,0-.53.25,1.13,1.13,0,0,0-.33.39,1.23,1.23,0,0,0-.13.49h-.8a2,2,0,0,1,.22-.78,1.78,1.78,0,0,1,.51-.59,2.43,2.43,0,0,1,.81-.38,4,4,0,0,1,1.09-.13,2.64,2.64,0,0,1,1.83.54,2,2,0,0,1,.59,1.52v3.56a.47.47,0,0,0,.11.33.46.46,0,0,0,.36.12.7.7,0,0,0,.25,0Zm-1.52-3.54h0q-.12.22-.77.31l-.67.1-.74.12a2.67,2.67,0,0,0-1.17.44,1,1,0,0,0-.39.84,1.16,1.16,0,0,0,.43.94,1.6,1.6,0,0,0,1,.35,2.36,2.36,0,0,0,1.63-.58,1.85,1.85,0,0,0,.65-1.44Z"/><path class="cls-4" d="M414.63,61V54.44h.74V56h0a2.56,2.56,0,0,1,.9-1.2,2.32,2.32,0,0,1,1.38-.43H418v.8h-.18a2.22,2.22,0,0,0-1.71.69,2.36,2.36,0,0,0-.64,1.69V61Z"/><path class="cls-4" d="M421.68,54.25a2.29,2.29,0,0,1,.64.09,2.31,2.31,0,0,1,1.08.68,2.26,2.26,0,0,1,.37.56h0V54.44h.8v6.1a3.27,3.27,0,0,1-.73,2.3,2.88,2.88,0,0,1-2.21.79,4.54,4.54,0,0,1-.93-.09,2.71,2.71,0,0,1-.81-.3,1.88,1.88,0,0,1-.6-.55,1.68,1.68,0,0,1-.28-.82h.8a1.24,1.24,0,0,0,.56.81,2.33,2.33,0,0,0,1.25.28,2,2,0,0,0,1.61-.61,2.66,2.66,0,0,0,.54-1.81V59.35h0a2.53,2.53,0,0,1-.37.57,2.28,2.28,0,0,1-.5.43,2.35,2.35,0,0,1-.6.27,2.4,2.4,0,0,1-.67.09,3.16,3.16,0,0,1-1.28-.24,2.43,2.43,0,0,1-.91-.67,2.85,2.85,0,0,1-.54-1,4.64,4.64,0,0,1-.18-1.31,4,4,0,0,1,.19-1.22,3,3,0,0,1,.56-1,2.74,2.74,0,0,1,.93-.7A3,3,0,0,1,421.68,54.25Zm-2.16,3.29a3.49,3.49,0,0,0,.12,1,2.29,2.29,0,0,0,.38.8,1.87,1.87,0,0,0,.67.54,2.13,2.13,0,0,0,1,.2,1.9,1.9,0,0,0,.91-.21,2.1,2.1,0,0,0,.67-.56,2.53,2.53,0,0,0,.42-.8,3,3,0,0,0,.14-.93,3.72,3.72,0,0,0-.12-.93,2.66,2.66,0,0,0-.37-.84,2,2,0,0,0-.66-.61,1.87,1.87,0,0,0-1-.24,2,2,0,0,0-1,.22,2,2,0,0,0-.67.59,2.55,2.55,0,0,0-.39.84A3.87,3.87,0,0,0,419.52,57.54Z"/><path class="cls-4" d="M405.82,89.56a2.18,2.18,0,0,1-.78,1.82,3.51,3.51,0,0,1-2.22.62h-3.69V83.43h3.69a4.84,4.84,0,0,1,1,.11,2.47,2.47,0,0,1,.86.35,1.81,1.81,0,0,1,.59.65,2,2,0,0,1,.22,1,2.1,2.1,0,0,1-.1.64,1.89,1.89,0,0,1-.76,1,2,2,0,0,1-.63.28v0a2.29,2.29,0,0,1,.76.23,1.86,1.86,0,0,1,.92,1.07A2.49,2.49,0,0,1,405.82,89.56Zm-1.14-3.83a1.45,1.45,0,0,0-.49-1.21,2.29,2.29,0,0,0-1.45-.39h-2.79v3.06h2.85a2.88,2.88,0,0,0,.67-.08,1.87,1.87,0,0,0,.59-.25,1.35,1.35,0,0,0,.62-1.13Zm.32,3.81a1.42,1.42,0,0,0-.59-1.24,2.89,2.89,0,0,0-1.68-.41h-2.8V91.3h2.87a2.64,2.64,0,0,0,1.64-.43A1.58,1.58,0,0,0,405,89.54Z"/><path class="cls-4" d="M413.2,92l-.27,0h-.24a1.37,1.37,0,0,1-.44-.06.65.65,0,0,1-.29-.2.82.82,0,0,1-.16-.35,2.43,2.43,0,0,1,0-.53h0a3,3,0,0,1-1,1,2.79,2.79,0,0,1-1.35.29,2.46,2.46,0,0,1-1.6-.5,1.75,1.75,0,0,1-.6-1.43,1.66,1.66,0,0,1,.66-1.43,6.79,6.79,0,0,1,3-.69,2,2,0,0,0,.44-.08.75.75,0,0,0,.29-.16.6.6,0,0,0,.16-.26,1.28,1.28,0,0,0,0-.38,1.24,1.24,0,0,0-.4-1,2,2,0,0,0-1.31-.34,2.61,2.61,0,0,0-.72.09,1.65,1.65,0,0,0-.53.25,1.13,1.13,0,0,0-.33.39,1.23,1.23,0,0,0-.13.49h-.8a2,2,0,0,1,.22-.78,1.78,1.78,0,0,1,.51-.59,2.43,2.43,0,0,1,.81-.38,4,4,0,0,1,1.09-.13,2.64,2.64,0,0,1,1.83.54,2,2,0,0,1,.59,1.52v3.56a.47.47,0,0,0,.11.33.46.46,0,0,0,.36.12.7.7,0,0,0,.25,0Zm-1.52-3.54h0q-.12.22-.77.31l-.67.1-.74.12a2.67,2.67,0,0,0-1.17.44,1,1,0,0,0-.39.84,1.16,1.16,0,0,0,.43.94,1.6,1.6,0,0,0,1,.35,2.36,2.36,0,0,0,1.63-.58,1.85,1.85,0,0,0,.65-1.44Z"/><path class="cls-4" d="M414.63,92V85.44h.74V87h0a2.56,2.56,0,0,1,.9-1.2,2.32,2.32,0,0,1,1.38-.43H418v.8h-.18a2.22,2.22,0,0,0-1.71.69,2.36,2.36,0,0,0-.64,1.69V92Z"/><path class="cls-4" d="M421.68,85.25a2.29,2.29,0,0,1,.64.09,2.31,2.31,0,0,1,1.08.68,2.26,2.26,0,0,1,.37.56h0V85.44h.8v6.1a3.27,3.27,0,0,1-.73,2.3,2.88,2.88,0,0,1-2.21.79,4.54,4.54,0,0,1-.93-.09,2.71,2.71,0,0,1-.81-.3,1.88,1.88,0,0,1-.6-.55,1.68,1.68,0,0,1-.28-.82h.8a1.24,1.24,0,0,0,.56.81,2.33,2.33,0,0,0,1.25.28,2,2,0,0,0,1.61-.61,2.66,2.66,0,0,0,.54-1.81V90.35h0a2.53,2.53,0,0,1-.37.57,2.28,2.28,0,0,1-.5.43,2.35,2.35,0,0,1-.6.27,2.4,2.4,0,0,1-.67.09,3.16,3.16,0,0,1-1.28-.24,2.43,2.43,0,0,1-.91-.67,2.85,2.85,0,0,1-.54-1,4.64,4.64,0,0,1-.18-1.31,4,4,0,0,1,.19-1.22,3,3,0,0,1,.56-1,2.74,2.74,0,0,1,.93-.7A3,3,0,0,1,421.68,85.25Zm-2.16,3.29a3.49,3.49,0,0,0,.12,1,2.29,2.29,0,0,0,.38.8,1.87,1.87,0,0,0,.67.54,2.13,2.13,0,0,0,1,.2,1.9,1.9,0,0,0,.91-.21,2.1,2.1,0,0,0,.67-.56,2.53,2.53,0,0,0,.42-.8,3,3,0,0,0,.14-.93,3.72,3.72,0,0,0-.12-.93,2.66,2.66,0,0,0-.37-.84,2,2,0,0,0-.66-.61,1.87,1.87,0,0,0-1-.24,2,2,0,0,0-1,.22,2,2,0,0,0-.67.59,2.55,2.55,0,0,0-.39.84A3.87,3.87,0,0,0,419.52,88.54Z"/><path class="cls-4" d="M405.82,120.56a2.18,2.18,0,0,1-.78,1.82,3.51,3.51,0,0,1-2.22.62h-3.69v-8.57h3.69a4.84,4.84,0,0,1,1,.11,2.47,2.47,0,0,1,.86.35,1.81,1.81,0,0,1,.59.65,2,2,0,0,1,.22,1,2.1,2.1,0,0,1-.1.64,1.89,1.89,0,0,1-.76,1,2,2,0,0,1-.63.28v0a2.29,2.29,0,0,1,.76.23,1.86,1.86,0,0,1,.92,1.07A2.49,2.49,0,0,1,405.82,120.56Zm-1.14-3.83a1.45,1.45,0,0,0-.49-1.21,2.29,2.29,0,0,0-1.45-.39h-2.79v3.06h2.85a2.88,2.88,0,0,0,.67-.08,1.87,1.87,0,0,0,.59-.25,1.35,1.35,0,0,0,.62-1.13Zm.32,3.81a1.42,1.42,0,0,0-.59-1.24,2.89,2.89,0,0,0-1.68-.41h-2.8v3.42h2.87a2.64,2.64,0,0,0,1.64-.43A1.58,1.58,0,0,0,405,120.54Z"/><path class="cls-4" d="M413.2,123l-.27,0h-.24a1.37,1.37,0,0,1-.44-.06.65.65,0,0,1-.29-.2.82.82,0,0,1-.16-.35,2.43,2.43,0,0,1,0-.53h0a3,3,0,0,1-1,1,2.79,2.79,0,0,1-1.35.29,2.46,2.46,0,0,1-1.6-.5,1.75,1.75,0,0,1-.6-1.43,1.66,1.66,0,0,1,.66-1.43,6.79,6.79,0,0,1,3-.69,2,2,0,0,0,.44-.08.75.75,0,0,0,.29-.16.6.6,0,0,0,.16-.26,1.28,1.28,0,0,0,0-.38,1.24,1.24,0,0,0-.4-1,2,2,0,0,0-1.31-.34,2.61,2.61,0,0,0-.72.09,1.65,1.65,0,0,0-.53.25,1.13,1.13,0,0,0-.33.39,1.23,1.23,0,0,0-.13.49h-.8a2,2,0,0,1,.22-.78,1.78,1.78,0,0,1,.51-.59,2.43,2.43,0,0,1,.81-.38,4,4,0,0,1,1.09-.13,2.64,2.64,0,0,1,1.83.54,2,2,0,0,1,.59,1.52v3.56a.47.47,0,0,0,.11.33.46.46,0,0,0,.36.12.7.7,0,0,0,.25,0Zm-1.52-3.54h0q-.12.22-.77.31l-.67.1-.74.12a2.67,2.67,0,0,0-1.17.44,1,1,0,0,0-.39.84,1.16,1.16,0,0,0,.43.94,1.6,1.6,0,0,0,1,.35,2.36,2.36,0,0,0,1.63-.58,1.85,1.85,0,0,0,.65-1.44Z"/><path class="cls-4" d="M414.63,123v-6.56h.74V118h0a2.56,2.56,0,0,1,.9-1.2,2.32,2.32,0,0,1,1.38-.43H418v.8h-.18a2.22,2.22,0,0,0-1.71.69,2.36,2.36,0,0,0-.64,1.69V123Z"/><path class="cls-4" d="M421.68,116.25a2.29,2.29,0,0,1,.64.09,2.31,2.31,0,0,1,1.08.68,2.26,2.26,0,0,1,.37.56h0v-1.14h.8v6.1a3.27,3.27,0,0,1-.73,2.3,2.88,2.88,0,0,1-2.21.79,4.54,4.54,0,0,1-.93-.09,2.71,2.71,0,0,1-.81-.3,1.88,1.88,0,0,1-.6-.55,1.68,1.68,0,0,1-.28-.82h.8a1.24,1.24,0,0,0,.56.81,2.33,2.33,0,0,0,1.25.28,2,2,0,0,0,1.61-.61,2.66,2.66,0,0,0,.54-1.81v-1.18h0a2.53,2.53,0,0,1-.37.57,2.28,2.28,0,0,1-.5.43,2.35,2.35,0,0,1-.6.27,2.4,2.4,0,0,1-.67.09,3.16,3.16,0,0,1-1.28-.24,2.43,2.43,0,0,1-.91-.67,2.85,2.85,0,0,1-.54-1,4.64,4.64,0,0,1-.18-1.31,4,4,0,0,1,.19-1.22,3,3,0,0,1,.56-1,2.74,2.74,0,0,1,.93-.7A3,3,0,0,1,421.68,116.25Zm-2.16,3.29a3.49,3.49,0,0,0,.12,1,2.29,2.29,0,0,0,.38.8,1.87,1.87,0,0,0,.67.54,2.13,2.13,0,0,0,1,.2,1.9,1.9,0,0,0,.91-.21,2.1,2.1,0,0,0,.67-.56,2.53,2.53,0,0,0,.42-.8,3,3,0,0,0,.14-.93,3.72,3.72,0,0,0-.12-.93,2.66,2.66,0,0,0-.37-.84,2,2,0,0,0-.66-.61,1.87,1.87,0,0,0-1-.24,2,2,0,0,0-1,.22,2,2,0,0,0-.67.59,2.55,2.55,0,0,0-.39.84A3.87,3.87,0,0,0,419.52,119.54Z"/><line class="cls-6" x1="20" y1="133.5" x2="539" y2="133.5"/><line class="cls-6" x1="20" y1="71.5" x2="538" y2="71.5"/><line class="cls-6" x1="20" y1="102.5" x2="538" y2="102.5"/><line class="cls-6" x1="463.5" y1="41" x2="463.5" y2="133"/><line class="cls-6" x1="538.5" y1="41" x2="538.5" y2="133"/><line class="cls-6" x1="390.5" y1="41" x2="390.5" y2="133"/><line class="cls-6" x1="199.5" y1="41" x2="199.5" y2="133"/><line class="cls-6" x1="19.5" y1="41" x2="19.5" y2="134"/><rect class="cls-7" x="495" y="111" width="14" height="14"/><g class="cls-8"><path class="cls-9" d="M508,112v12H496V112h12m1-1H495v14h14V111Z"/></g><rect class="cls-7" x="495" y="80" width="14" height="14"/><g class="cls-8"><path class="cls-9" d="M508,81V93H496V81h12m1-1H495V94h14V80Z"/></g><rect class="cls-7" x="495" y="49" width="14" height="14"/><g class="cls-8"><path class="cls-9" d="M508,50V62H496V50h12m1-1H495V63h14V49Z"/></g><polygon class="cls-10" points="501.45 59.87 497.55 56.22 498.77 54.92 501.23 57.23 505.47 51.71 506.88 52.79 501.45 59.87"/><polygon class="cls-10" points="501.45 90.87 497.55 87.22 498.77 85.92 501.23 88.23 505.47 82.71 506.88 83.79 501.45 90.87"/><polygon class="cls-10" points="501.45 121.87 497.55 118.22 498.77 116.92 501.23 119.23 505.47 113.71 506.88 114.79 501.45 121.87"/><rect class="cls-10" x="31" y="52" width="8" height="8"/><rect class="cls-11" x="31" y="83" width="8" height="8"/><path class="cls-12" d="M38,115v6H32v-6h6m1-1H31v8h8v-8Z"/></g></svg>