<svg xmlns="http://www.w3.org/2000/svg" viewBox="0 0 617 220"><defs><style>.cls-1{fill:#fff;}.cls-2,.cls-3{fill:none;}.cls-2{opacity:0.1;}.cls-4{fill:#464646;}.cls-5{fill:#c8c8c8;}.cls-6{fill:#787878;opacity:0.2;}.cls-7{fill:#0aaeff;}.cls-8{fill:#ebebeb;}.cls-9{fill:#1bb883;}.cls-10{fill:#ff7300;}</style></defs><title>Artboard 43</title><g id="Bg"><rect class="cls-1" x="-4030" y="-1555" width="6000" height="2500"/></g><g id="Tabeller"><rect class="cls-2" x="20" y="76" width="577" height="30"/><rect class="cls-3" x="20" y="21" width="577" height="24"/><rect class="cls-3" x="20" y="45" width="577" height="30"/><rect class="cls-3" x="20" y="76" width="577" height="30"/><rect class="cls-3" x="20" y="107" width="577" height="30"/><rect class="cls-3" x="20" y="138" width="577" height="30"/><path class="cls-4" d="M207.71,28.93a3.18,3.18,0,0,1,2.37.9,3.63,3.63,0,0,1,.89,2.64,3.74,3.74,0,0,1-.88,2.67,3.09,3.09,0,0,1-2.35.92h-2.89V28.93ZM207.57,35a2.07,2.07,0,0,0,1.58-.59,2.62,2.62,0,0,0,.57-1.86,2.79,2.79,0,0,0-.58-2,2.34,2.34,0,0,0-1.78-.61H206.1v5Z"/><path class="cls-4" d="M217.57,28.94V30h-3.94v1.9h3.64v1h-3.64V35h4v1h-5.25V28.94Z"/><path class="cls-4" d="M224.31,34a2,2,0,0,1-.24,1,2,2,0,0,1-.65.68,2.91,2.91,0,0,1-.94.39,4.9,4.9,0,0,1-1.12.13,4.28,4.28,0,0,1-1.14-.14,2.8,2.8,0,0,1-.92-.43,2.07,2.07,0,0,1-.62-.7,2,2,0,0,1-.22-1v-.08h1.23v0a1.11,1.11,0,0,0,.14.56,1.16,1.16,0,0,0,.38.4,1.75,1.75,0,0,0,.56.24,3,3,0,0,0,1.32,0,1.73,1.73,0,0,0,.52-.21,1.08,1.08,0,0,0,.35-.34.89.89,0,0,0,.13-.48.77.77,0,0,0-.31-.63,2.72,2.72,0,0,0-1-.42l-1.53-.41a2.36,2.36,0,0,1-1.2-.65,1.67,1.67,0,0,1-.39-1.16,1.87,1.87,0,0,1,.21-.91,2,2,0,0,1,.58-.66,2.69,2.69,0,0,1,.86-.4,3.82,3.82,0,0,1,1-.14,3.89,3.89,0,0,1,1,.12,2.69,2.69,0,0,1,.85.38,1.93,1.93,0,0,1,.59.64,1.88,1.88,0,0,1,.23.91h-1.22a1,1,0,0,0-.44-.77,1.5,1.5,0,0,0-.46-.22,2.06,2.06,0,0,0-.59-.08,2.47,2.47,0,0,0-.55.06,1.46,1.46,0,0,0-.46.19,1,1,0,0,0-.31.32.88.88,0,0,0-.11.46.83.83,0,0,0,.06.33.67.67,0,0,0,.17.23.91.91,0,0,0,.26.16l.34.11,1.68.44a3.06,3.06,0,0,1,1.42.72A1.69,1.69,0,0,1,224.31,34Z"/><path class="cls-4" d="M228.68,28.78a3.75,3.75,0,0,1,1.1.15,2.86,2.86,0,0,1,.89.44,2.45,2.45,0,0,1,.64.71,2.67,2.67,0,0,1,.34.95h-1.22a1.59,1.59,0,0,0-.21-.47,1.52,1.52,0,0,0-.37-.38,1.85,1.85,0,0,0-.52-.26,2.12,2.12,0,0,0-.65-.09,2.09,2.09,0,0,0-1,.22,2.06,2.06,0,0,0-.7.6,2.6,2.6,0,0,0-.42.86,3.76,3.76,0,0,0-.14,1,3.69,3.69,0,0,0,.13,1,2.55,2.55,0,0,0,.4.85,2,2,0,0,0,1.7.83,2,2,0,0,0,.71-.12,1.68,1.68,0,0,0,.55-.33,1.71,1.71,0,0,0,.38-.51,2.24,2.24,0,0,0,.2-.65h1.22a3.54,3.54,0,0,1-.29,1A2.66,2.66,0,0,1,229.9,36a3.45,3.45,0,0,1-1.24.21,3.53,3.53,0,0,1-1.43-.28,3.19,3.19,0,0,1-1.1-.78,3.44,3.44,0,0,1-.7-1.17,4.34,4.34,0,0,1-.24-1.48,4.42,4.42,0,0,1,.23-1.43,3.57,3.57,0,0,1,.67-1.19,3.19,3.19,0,0,1,1.09-.82A3.48,3.48,0,0,1,228.68,28.78Z"/><path class="cls-4" d="M234.3,28.93v7.14h-1.25V28.93Z"/><path class="cls-4" d="M241.61,31.13a2.12,2.12,0,0,1-.62,1.6,2.09,2.09,0,0,1-.73.45,2.77,2.77,0,0,1-.95.15h-2v2.74h-1.25V28.93h3.25a2.33,2.33,0,0,1,1.68.6A2.09,2.09,0,0,1,241.61,31.13Zm-1.22,0a1.14,1.14,0,0,0-.35-.91,1.64,1.64,0,0,0-1.09-.3h-1.63v2.42H239a2.28,2.28,0,0,0,.6-.07,1.07,1.07,0,0,0,.81-1.13Z"/><path class="cls-4" d="M248.07,28.93V30H245.8v6.08h-1.25V30h-2.27V28.93Z"/><path class="cls-4" d="M250.35,28.93v7.14H249.1V28.93Z"/><path class="cls-4" d="M258.66,32.52a3.86,3.86,0,0,1-.95,2.66,3.21,3.21,0,0,1-2.51,1.05,3.65,3.65,0,0,1-1.37-.24,3.23,3.23,0,0,1-1.1-.75A3.37,3.37,0,0,1,252,34a4.46,4.46,0,0,1-.25-1.51,3.9,3.9,0,0,1,.95-2.7,3.21,3.21,0,0,1,2.52-1.05,3.7,3.7,0,0,1,1.37.25,3,3,0,0,1,1.1.76,3.36,3.36,0,0,1,.74,1.24A4.77,4.77,0,0,1,258.66,32.52Zm-1.26,0a3.07,3.07,0,0,0-.59-2,2.14,2.14,0,0,0-3.25,0,3.08,3.08,0,0,0-.58,2,3,3,0,0,0,.58,1.91,2.16,2.16,0,0,0,3.26,0A3.05,3.05,0,0,0,257.41,32.52Z"/><path class="cls-4" d="M261.3,28.93l3.4,5.3h0v-5.3h1.19v7.14h-1.27l-3.4-5.3h0v5.3H260V28.93Z"/><path class="cls-4" d="M459.21,34a2,2,0,0,1-.24,1,2,2,0,0,1-.65.68,3,3,0,0,1-.94.39,5,5,0,0,1-1.12.12,4.32,4.32,0,0,1-1.14-.14,2.81,2.81,0,0,1-.92-.43,2.07,2.07,0,0,1-.62-.7,2,2,0,0,1-.22-1v-.08h1.23v0a1.12,1.12,0,0,0,.14.56,1.17,1.17,0,0,0,.38.4,1.77,1.77,0,0,0,.56.24,2.82,2.82,0,0,0,.68.08,2.89,2.89,0,0,0,.64-.07,1.72,1.72,0,0,0,.52-.21,1.11,1.11,0,0,0,.35-.34.89.89,0,0,0,.13-.48.77.77,0,0,0-.31-.63,2.72,2.72,0,0,0-1-.42l-1.53-.41A2.35,2.35,0,0,1,454,32a1.67,1.67,0,0,1-.39-1.16,1.87,1.87,0,0,1,.21-.91,2,2,0,0,1,.58-.66,2.66,2.66,0,0,1,.86-.4,3.86,3.86,0,0,1,1-.14,3.94,3.94,0,0,1,1,.12,2.7,2.7,0,0,1,.85.38,1.94,1.94,0,0,1,.59.64,1.88,1.88,0,0,1,.23.91h-1.22a1,1,0,0,0-.13-.43,1.07,1.07,0,0,0-.3-.34,1.55,1.55,0,0,0-.46-.22,2.06,2.06,0,0,0-.59-.08,2.46,2.46,0,0,0-.55.06,1.45,1.45,0,0,0-.46.19,1,1,0,0,0-.31.32.87.87,0,0,0-.12.46.83.83,0,0,0,.06.33.68.68,0,0,0,.17.23.9.9,0,0,0,.26.16l.34.11,1.68.44a3.08,3.08,0,0,1,1.42.72A1.69,1.69,0,0,1,459.21,34Z"/><path class="cls-4" d="M465.57,28.93V30h-2.27v6.08H462V30h-2.27V28.93Z"/><path class="cls-4" d="M470.62,36.07,470,34.25h-3l-.62,1.82h-1.27l2.57-7.13h1.69l2.52,7.13Zm-2.07-6.21h0l-1.17,3.44h2.33Z"/><path class="cls-4" d="M477.31,28.93V30H475v6.08h-1.25V30h-2.27V28.93Z"/><path class="cls-4" d="M479.54,28.93v4.48a1.89,1.89,0,0,0,.41,1.33,1.68,1.68,0,0,0,1.29.44,1.73,1.73,0,0,0,1.29-.42,1.87,1.87,0,0,0,.41-1.34V28.93h1.25v4.53a2.74,2.74,0,0,1-.75,2,3,3,0,0,1-2.2.75A4,4,0,0,1,480,36a2.33,2.33,0,0,1-1-.59,2.31,2.31,0,0,1-.54-.87,3.35,3.35,0,0,1-.18-1.13V28.93Z"/><path class="cls-4" d="M491.24,34a2,2,0,0,1-.24,1,2,2,0,0,1-.65.68,3,3,0,0,1-.94.39,5,5,0,0,1-1.12.12,4.32,4.32,0,0,1-1.14-.14,2.8,2.8,0,0,1-.92-.43,2.07,2.07,0,0,1-.62-.7,2,2,0,0,1-.22-1v-.08h1.23v0a1.11,1.11,0,0,0,.14.56,1.16,1.16,0,0,0,.38.4,1.78,1.78,0,0,0,.56.24,2.83,2.83,0,0,0,.68.08,2.9,2.9,0,0,0,.64-.07,1.73,1.73,0,0,0,.52-.21,1.1,1.1,0,0,0,.35-.34.89.89,0,0,0,.13-.48.77.77,0,0,0-.31-.63,2.72,2.72,0,0,0-1-.42l-1.53-.41A2.35,2.35,0,0,1,486,32a1.67,1.67,0,0,1-.39-1.16,1.87,1.87,0,0,1,.21-.91,2,2,0,0,1,.58-.66,2.67,2.67,0,0,1,.86-.4,3.86,3.86,0,0,1,1-.14,3.93,3.93,0,0,1,1,.12,2.71,2.71,0,0,1,.85.38,1.93,1.93,0,0,1,.59.64,1.87,1.87,0,0,1,.23.91h-1.22a1,1,0,0,0-.44-.77,1.54,1.54,0,0,0-.46-.22,2.06,2.06,0,0,0-.59-.08,2.47,2.47,0,0,0-.55.06,1.46,1.46,0,0,0-.46.19,1,1,0,0,0-.31.32.88.88,0,0,0-.11.46.83.83,0,0,0,.06.33.67.67,0,0,0,.17.23.89.89,0,0,0,.26.16l.34.11,1.68.44a3.07,3.07,0,0,1,1.42.72A1.69,1.69,0,0,1,491.24,34Z"/><rect class="cls-5" x="20" y="44" width="577" height="1"/><rect class="cls-6" x="20" y="106" width="577" height="1"/><rect class="cls-6" x="20" y="75" width="577" height="1"/><rect class="cls-6" x="20" y="137" width="577" height="1"/><rect class="cls-3" x="20" y="138" width="577" height="30"/><rect class="cls-6" x="20" y="168" width="577" height="1"/><polygon class="cls-4" points="179.01 31 175 35 171 31 179.01 31"/><polyline class="cls-7" points="191 45 191 43 20 43 20 45"/><path class="cls-4" d="M40.37,32.52a3.85,3.85,0,0,1-.95,2.66,3.21,3.21,0,0,1-2.51,1.05A3.64,3.64,0,0,1,35.55,36a3.23,3.23,0,0,1-1.1-.75A3.37,3.37,0,0,1,33.7,34a4.46,4.46,0,0,1-.25-1.51,3.9,3.9,0,0,1,.95-2.7,3.21,3.21,0,0,1,2.51-1.05,3.7,3.7,0,0,1,1.37.25,3,3,0,0,1,1.1.76A3.34,3.34,0,0,1,40.13,31,4.74,4.74,0,0,1,40.37,32.52Zm-1.25,0a3.07,3.07,0,0,0-.59-2,2.14,2.14,0,0,0-3.25,0,3.08,3.08,0,0,0-.58,2,3,3,0,0,0,.58,1.91,2.16,2.16,0,0,0,3.26,0A3,3,0,0,0,39.12,32.52Z"/><path class="cls-4" d="M47.58,34a2,2,0,0,1-.19.89,1.81,1.81,0,0,1-.52.64,2.33,2.33,0,0,1-.79.39,3.56,3.56,0,0,1-1,.13H41.75V28.93H45A3.94,3.94,0,0,1,46,29a2,2,0,0,1,.7.31,1.4,1.4,0,0,1,.45.55,1.89,1.89,0,0,1,.16.8,1.57,1.57,0,0,1-.28.94,1.69,1.69,0,0,1-.79.58h0a2.12,2.12,0,0,1,.61.25,1.52,1.52,0,0,1,.43.4,1.7,1.7,0,0,1,.25.52A2.12,2.12,0,0,1,47.58,34Zm-1.53-3.09a.9.9,0,0,0-.32-.76,1.51,1.51,0,0,0-.93-.24H43v2h1.89a1.63,1.63,0,0,0,.45-.06,1.09,1.09,0,0,0,.37-.18.85.85,0,0,0,.25-.3A1.08,1.08,0,0,0,46.05,30.93Zm.28,3a1,1,0,0,0-.35-.86,1.58,1.58,0,0,0-1-.29H43v2.28h2a1.62,1.62,0,0,0,1-.28A1,1,0,0,0,46.33,34Z"/><path class="cls-4" d="M52.95,28.93v5a2.26,2.26,0,0,1-.63,1.76,2.33,2.33,0,0,1-1.63.51,2.7,2.7,0,0,1-.91-.15,1.86,1.86,0,0,1-1.15-1.14,2.77,2.77,0,0,1-.16-1v-.43h1.15v.19a2.86,2.86,0,0,0,.08.71,1.05,1.05,0,0,0,.2.43,1,1,0,0,0,.8.3,1,1,0,0,0,.77-.28,1.73,1.73,0,0,0,.24-1.07V28.93Z"/><path class="cls-4" d="M59.88,28.94V30H55.95v1.9h3.64v1H55.95V35h4v1H54.7V28.94Z"/><path class="cls-4" d="M64.26,28.78a3.75,3.75,0,0,1,1.1.15,2.86,2.86,0,0,1,.89.44,2.43,2.43,0,0,1,.64.71,2.66,2.66,0,0,1,.34.95H66a1.59,1.59,0,0,0-.21-.47,1.51,1.51,0,0,0-.37-.38,1.83,1.83,0,0,0-.52-.26,2.12,2.12,0,0,0-.65-.09,2.09,2.09,0,0,0-1,.22,2.07,2.07,0,0,0-.7.6,2.62,2.62,0,0,0-.42.86,3.78,3.78,0,0,0,0,2,2.55,2.55,0,0,0,.4.85,2,2,0,0,0,1.7.83,2,2,0,0,0,.71-.12,1.67,1.67,0,0,0,.55-.33,1.71,1.71,0,0,0,.38-.51,2.21,2.21,0,0,0,.2-.65h1.22a3.54,3.54,0,0,1-.29,1A2.67,2.67,0,0,1,65.48,36a3.44,3.44,0,0,1-1.23.21A3.54,3.54,0,0,1,62.81,36a3.2,3.2,0,0,1-1.1-.78A3.44,3.44,0,0,1,61,34a4.36,4.36,0,0,1-.24-1.48A4.42,4.42,0,0,1,61,31.09a3.55,3.55,0,0,1,.67-1.19,3.2,3.2,0,0,1,1.09-.82A3.49,3.49,0,0,1,64.26,28.78Z"/><path class="cls-4" d="M73.71,28.93V30H71.44v6.08H70.2V30H67.93V28.93Z"/><path class="cls-4" d="M211.82,61.77a2.18,2.18,0,0,1-.78,1.82,3.51,3.51,0,0,1-2.22.62h-3.69V55.64h3.69a4.84,4.84,0,0,1,1,.11,2.47,2.47,0,0,1,.86.35,1.81,1.81,0,0,1,.59.65,2,2,0,0,1,.22,1,2.1,2.1,0,0,1-.1.64,1.89,1.89,0,0,1-.76,1,2,2,0,0,1-.63.28v0a2.29,2.29,0,0,1,.76.23,1.86,1.86,0,0,1,.92,1.07A2.49,2.49,0,0,1,211.82,61.77Zm-1.14-3.83a1.45,1.45,0,0,0-.49-1.21,2.29,2.29,0,0,0-1.45-.39h-2.79V59.4h2.85a2.88,2.88,0,0,0,.67-.08,1.87,1.87,0,0,0,.59-.25,1.35,1.35,0,0,0,.62-1.13Zm.32,3.81a1.42,1.42,0,0,0-.59-1.24,2.89,2.89,0,0,0-1.68-.41h-2.8v3.42h2.87a2.64,2.64,0,0,0,1.64-.43A1.58,1.58,0,0,0,211,61.75Z"/><path class="cls-4" d="M214.35,55.13v9.08h-.8V55.13Z"/><path class="cls-4" d="M222.38,60.93a4.29,4.29,0,0,1-.2,1.31,3.31,3.31,0,0,1-.61,1.13,2.9,2.9,0,0,1-2.29,1,2.84,2.84,0,0,1-2.24-1,4.07,4.07,0,0,1,0-5,3.08,3.08,0,0,1,4.51,0A3.65,3.65,0,0,1,222.38,60.93Zm-.8,0a3.8,3.8,0,0,0-.13-1A2.81,2.81,0,0,0,221,59a2.25,2.25,0,0,0-.72-.65,2,2,0,0,0-1-.25,2,2,0,0,0-1,.24,2.24,2.24,0,0,0-.72.64,2.85,2.85,0,0,0-.44.9,3.66,3.66,0,0,0-.15,1,3.58,3.58,0,0,0,.14,1,3,3,0,0,0,.43.9,2.24,2.24,0,0,0,.71.65,2,2,0,0,0,1,.25,2,2,0,0,0,1-.24,2.33,2.33,0,0,0,.72-.63,2.8,2.8,0,0,0,.45-.89A3.54,3.54,0,0,0,221.57,60.93Z"/><path class="cls-4" d="M224.26,57.65l1.68,5.62h0l1.6-5.62h.9l1.61,5.62h0l1.68-5.62h.85l-2.12,6.56h-.87L228,58.69h0l-1.6,5.52h-.88l-2.11-6.56Z"/><path class="cls-4" d="M239.78,55.13v9.08H239V63h0a2,2,0,0,1-.39.59,2.57,2.57,0,0,1-.56.45,2.8,2.8,0,0,1-.67.29,2.63,2.63,0,0,1-.72.1,2.8,2.8,0,0,1-1.28-.28,2.68,2.68,0,0,1-.92-.75,3.32,3.32,0,0,1-.56-1.11,4.68,4.68,0,0,1-.19-1.34,4.83,4.83,0,0,1,.17-1.29,3.31,3.31,0,0,1,.53-1.11,2.69,2.69,0,0,1,.92-.78,3,3,0,0,1,2-.2,2.56,2.56,0,0,1,.65.27,2.25,2.25,0,0,1,.54.45,2.07,2.07,0,0,1,.38.63h0V55.13Zm-5.26,5.8a4.17,4.17,0,0,0,.05.65,3.7,3.7,0,0,0,.16.64,2.82,2.82,0,0,0,.28.58,2.15,2.15,0,0,0,.41.48,1.8,1.8,0,0,0,.55.32,2,2,0,0,0,.7.12,2.08,2.08,0,0,0,1.73-.84,2.66,2.66,0,0,0,.43-.89,4,4,0,0,0,.14-1.06,4,4,0,0,0-.13-1,2.73,2.73,0,0,0-.41-.9,2.06,2.06,0,0,0-1.76-.88,1.94,1.94,0,0,0-.68.11,1.8,1.8,0,0,0-.54.31A2.15,2.15,0,0,0,235,59a2.8,2.8,0,0,0-.29.58,3.52,3.52,0,0,0-.17.65A4.25,4.25,0,0,0,234.53,60.93Z"/><path class="cls-4" d="M247.8,60.93a4.29,4.29,0,0,1-.2,1.31,3.31,3.31,0,0,1-.61,1.13,2.9,2.9,0,0,1-2.29,1,2.84,2.84,0,0,1-2.24-1,4.07,4.07,0,0,1,0-5,3.08,3.08,0,0,1,4.51,0A3.65,3.65,0,0,1,247.8,60.93Zm-.8,0a3.8,3.8,0,0,0-.13-1,2.81,2.81,0,0,0-.42-.9,2.25,2.25,0,0,0-.72-.65,2,2,0,0,0-1-.25,2,2,0,0,0-1,.24A2.24,2.24,0,0,0,243,59a2.85,2.85,0,0,0-.44.9,3.66,3.66,0,0,0-.15,1,3.58,3.58,0,0,0,.14,1,3,3,0,0,0,.43.9,2.24,2.24,0,0,0,.71.65,2,2,0,0,0,1,.25,2,2,0,0,0,1-.24,2.33,2.33,0,0,0,.72-.63,2.8,2.8,0,0,0,.45-.89A3.54,3.54,0,0,0,247,60.93Z"/><path class="cls-4" d="M249.68,57.65l1.68,5.62h0l1.6-5.62h.9l1.61,5.62h0l1.68-5.62H258l-2.12,6.56h-.87l-1.61-5.52h0l-1.6,5.52h-.88l-2.11-6.56Z"/><path class="cls-4" d="M262.39,57.46a3.35,3.35,0,0,1,1.08.16,1.83,1.83,0,0,1,.74.46,1.87,1.87,0,0,1,.43.77,3.79,3.79,0,0,1,.14,1.08v4.28H264V60.06a2.2,2.2,0,0,0-.41-1.44,1.54,1.54,0,0,0-1.25-.49,2.07,2.07,0,0,0-.86.17,1.88,1.88,0,0,0-.65.48,2.16,2.16,0,0,0-.41.71,2.63,2.63,0,0,0-.14.88v3.84h-.8V57.65h.8v1.14h0a2,2,0,0,1,.35-.56,2.18,2.18,0,0,1,.49-.42,2.33,2.33,0,0,1,.6-.26A2.48,2.48,0,0,1,262.39,57.46Z"/><path class="cls-4" d="M271.37,55.64v8.57h-.81V55.64Z"/><path class="cls-4" d="M276.57,57.46a3.35,3.35,0,0,1,1.08.16,1.83,1.83,0,0,1,.74.46,1.87,1.87,0,0,1,.43.77,3.79,3.79,0,0,1,.14,1.08v4.28h-.8V60.06a2.2,2.2,0,0,0-.41-1.44,1.54,1.54,0,0,0-1.25-.49,2.07,2.07,0,0,0-.86.17,1.88,1.88,0,0,0-.65.48,2.16,2.16,0,0,0-.41.71,2.63,2.63,0,0,0-.14.88v3.84h-.8V57.65h.8v1.14h0a2,2,0,0,1,.35-.56,2.18,2.18,0,0,1,.49-.42,2.33,2.33,0,0,1,.6-.26A2.48,2.48,0,0,1,276.57,57.46Z"/><path class="cls-4" d="M282,54.78v1.29h-.8V54.78Zm0,2.87v6.56h-.8V57.65Z"/><path class="cls-4" d="M286.81,64.27h-.66a3,3,0,0,1-.68-.06A1,1,0,0,1,285,64a.89.89,0,0,1-.25-.43,2.65,2.65,0,0,1-.07-.68V58.32h-1.32v-.67h1.32v-2h.8v2H287v.67h-1.5V62.8a1.76,1.76,0,0,0,0,.34.64.64,0,0,0,.11.25.5.5,0,0,0,.21.16.87.87,0,0,0,.35.06h.6l.21,0v.68Z"/><path class="cls-4" d="M289.59,54.78v1.29h-.8V54.78Zm0,2.87v6.56h-.8V57.65Z"/><path class="cls-4" d="M297.47,64.16l-.27,0H297a1.37,1.37,0,0,1-.44-.06.65.65,0,0,1-.29-.2.82.82,0,0,1-.16-.35,2.43,2.43,0,0,1,0-.53h0a3,3,0,0,1-1,1,2.79,2.79,0,0,1-1.35.29,2.46,2.46,0,0,1-1.6-.5,1.75,1.75,0,0,1-.6-1.43A1.66,1.66,0,0,1,292,61a6.79,6.79,0,0,1,3-.69,2,2,0,0,0,.44-.08.75.75,0,0,0,.29-.16.6.6,0,0,0,.16-.26,1.28,1.28,0,0,0,0-.38,1.24,1.24,0,0,0-.4-1,2,2,0,0,0-1.31-.34,2.61,2.61,0,0,0-.72.09,1.65,1.65,0,0,0-.53.25,1.13,1.13,0,0,0-.33.39,1.23,1.23,0,0,0-.13.49h-.8a2,2,0,0,1,.22-.78,1.78,1.78,0,0,1,.51-.59,2.43,2.43,0,0,1,.81-.38,4,4,0,0,1,1.09-.13,2.64,2.64,0,0,1,1.83.54,2,2,0,0,1,.59,1.52v3.56a.47.47,0,0,0,.11.33.46.46,0,0,0,.36.12.7.7,0,0,0,.25,0Zm-1.52-3.54h0q-.12.22-.77.31l-.67.1-.74.12a2.67,2.67,0,0,0-1.17.44,1,1,0,0,0-.39.84,1.16,1.16,0,0,0,.43.94,1.6,1.6,0,0,0,1,.35,2.36,2.36,0,0,0,1.63-.58,1.85,1.85,0,0,0,.65-1.44Z"/><path class="cls-4" d="M301.54,64.27h-.66a3,3,0,0,1-.68-.06,1,1,0,0,1-.45-.23.89.89,0,0,1-.25-.43,2.65,2.65,0,0,1-.07-.68V58.32h-1.32v-.67h1.32v-2h.8v2h1.5v.67h-1.5V62.8a1.76,1.76,0,0,0,0,.34.64.64,0,0,0,.11.25.5.5,0,0,0,.21.16.87.87,0,0,0,.35.06h.6l.21,0v.68Z"/><path class="cls-4" d="M305.9,57.46a2.71,2.71,0,0,1,1.3.29,2.6,2.6,0,0,1,.9.79,3.45,3.45,0,0,1,.52,1.13,5.21,5.21,0,0,1,.17,1.34v.13h-5.05a3.58,3.58,0,0,0,.13.94,2.59,2.59,0,0,0,.39.83,2,2,0,0,0,.66.59,1.92,1.92,0,0,0,.95.22,2.44,2.44,0,0,0,.7-.09,2,2,0,0,0,.56-.26,1.76,1.76,0,0,0,.42-.39,2.41,2.41,0,0,0,.29-.49h.79a3,3,0,0,1-.38.79,2.48,2.48,0,0,1-.59.6,2.68,2.68,0,0,1-.79.39,3.34,3.34,0,0,1-1,.14,2.94,2.94,0,0,1-1.3-.27,2.56,2.56,0,0,1-.91-.73,3.12,3.12,0,0,1-.54-1.1,5.14,5.14,0,0,1-.18-1.37,4.66,4.66,0,0,1,.18-1.28,3.36,3.36,0,0,1,.54-1.11,2.74,2.74,0,0,1,.92-.78A2.79,2.79,0,0,1,305.9,57.46Zm2.09,3a3,3,0,0,0-.16-.85,2.44,2.44,0,0,0-.41-.75,2.07,2.07,0,0,0-.65-.54,1.84,1.84,0,0,0-.88-.21,1.84,1.84,0,0,0-1.5.7,2.7,2.7,0,0,0-.42.75,4.31,4.31,0,0,0-.23.9Z"/><path class="cls-4" d="M316.2,55.13v9.08h-.74V63h0a2,2,0,0,1-.39.59,2.57,2.57,0,0,1-.56.45,2.8,2.8,0,0,1-.67.29,2.63,2.63,0,0,1-.72.1,2.8,2.8,0,0,1-1.28-.28,2.68,2.68,0,0,1-.92-.75,3.32,3.32,0,0,1-.56-1.11,4.68,4.68,0,0,1-.19-1.34,4.83,4.83,0,0,1,.17-1.29,3.31,3.31,0,0,1,.53-1.11,2.69,2.69,0,0,1,.92-.78,3,3,0,0,1,2-.2,2.56,2.56,0,0,1,.65.27,2.25,2.25,0,0,1,.54.45,2.07,2.07,0,0,1,.38.63h0V55.13Zm-5.26,5.8a4.17,4.17,0,0,0,.05.65,3.7,3.7,0,0,0,.16.64,2.82,2.82,0,0,0,.28.58,2.15,2.15,0,0,0,.41.48,1.8,1.8,0,0,0,.55.32,2,2,0,0,0,.7.12,2.08,2.08,0,0,0,1.73-.84,2.66,2.66,0,0,0,.43-.89,4,4,0,0,0,.14-1.06,4,4,0,0,0-.13-1,2.73,2.73,0,0,0-.41-.9,2.06,2.06,0,0,0-1.76-.88,1.94,1.94,0,0,0-.68.11,1.8,1.8,0,0,0-.54.31,2.15,2.15,0,0,0-.41.47,2.8,2.8,0,0,0-.29.58,3.52,3.52,0,0,0-.17.65A4.25,4.25,0,0,0,310.94,60.93Z"/><path class="cls-4" d="M324.05,55.46a9.69,9.69,0,0,0-1.89,5.82,6.9,6.9,0,0,0,.13,1.35,8.53,8.53,0,0,0,.38,1.34,10.23,10.23,0,0,0,.6,1.3,11.53,11.53,0,0,0,.78,1.23h-.64a10,10,0,0,1-1.49-2.6A8,8,0,0,1,321.4,61a9,9,0,0,1,.11-1.43,8.24,8.24,0,0,1,.36-1.41,8.63,8.63,0,0,1,.62-1.38,9.44,9.44,0,0,1,.91-1.34Z"/><path class="cls-4" d="M329,55.48a4.19,4.19,0,0,1,1.21.17,3.47,3.47,0,0,1,1,.49,2.86,2.86,0,0,1,1.17,1.79h-.81a2.57,2.57,0,0,0-.34-.7,2.26,2.26,0,0,0-.55-.56,2.68,2.68,0,0,0-.75-.37,3.37,3.37,0,0,0-2.34.17,3,3,0,0,0-1,.82,3.62,3.62,0,0,0-.62,1.2,4.87,4.87,0,0,0-.21,1.44,5.18,5.18,0,0,0,.08.94,4.26,4.26,0,0,0,.26.88,3.66,3.66,0,0,0,.44.78,2.93,2.93,0,0,0,.62.62,2.86,2.86,0,0,0,.81.41,3.23,3.23,0,0,0,1,.15,2.8,2.8,0,0,0,1.06-.19,2.55,2.55,0,0,0,.82-.52,2.7,2.7,0,0,0,.56-.77,3.22,3.22,0,0,0,.29-.93h.81a4.09,4.09,0,0,1-.35,1.2,3.33,3.33,0,0,1-.71,1,3.23,3.23,0,0,1-1.06.67,3.8,3.8,0,0,1-1.42.25,4,4,0,0,1-1.7-.34,3.66,3.66,0,0,1-1.27-.94,4.19,4.19,0,0,1-.79-1.42,5.68,5.68,0,0,1,0-3.45,4.23,4.23,0,0,1,.77-1.42,3.72,3.72,0,0,1,1.27-1A4,4,0,0,1,329,55.48Z"/><path class="cls-4" d="M339.84,64.21l-1-2.66H334.9l-1,2.66H333l3.45-8.55h.91l3.36,8.55Zm-3-7.73h0l-1.71,4.38h3.37Z"/><path class="cls-4" d="M348.35,58.09a2.34,2.34,0,0,1-.7,1.8,2.55,2.55,0,0,1-1.8.64h-3v3.67H342V55.64h3.86a2.53,2.53,0,0,1,1.8.65A2.33,2.33,0,0,1,348.35,58.09Zm-.81,0a1.68,1.68,0,0,0-.5-1.29,2.11,2.11,0,0,0-1.49-.46h-2.74v3.5h2.85a2,2,0,0,0,1.35-.45A1.65,1.65,0,0,0,347.54,58.09Z"/><path class="cls-4" d="M349.7,55.46a11.33,11.33,0,0,1,.86,1.24,8.41,8.41,0,0,1,.63,1.29,7.8,7.8,0,0,1,.39,1.4,8.62,8.62,0,0,1-1.87,7.1h-.64a10.2,10.2,0,0,0,1.39-2.71,9.63,9.63,0,0,0,.49-3.1,6.72,6.72,0,0,0-.14-1.35,8.49,8.49,0,0,0-.39-1.33,10.9,10.9,0,0,0-.6-1.3,13.56,13.56,0,0,0-.76-1.24Z"/><path class="cls-4" d="M208.69,86.48a4.19,4.19,0,0,1,1.21.17,3.47,3.47,0,0,1,1,.49,2.86,2.86,0,0,1,1.17,1.79h-.81a2.57,2.57,0,0,0-.34-.7,2.26,2.26,0,0,0-.55-.56,2.68,2.68,0,0,0-.75-.37,3.37,3.37,0,0,0-2.34.17,3,3,0,0,0-1,.82,3.62,3.62,0,0,0-.62,1.2,4.87,4.87,0,0,0-.21,1.44,5.18,5.18,0,0,0,.08.94,4.26,4.26,0,0,0,.26.88,3.66,3.66,0,0,0,.44.78,2.93,2.93,0,0,0,.62.62,2.86,2.86,0,0,0,.81.41,3.23,3.23,0,0,0,1,.15,2.8,2.8,0,0,0,1.06-.19,2.55,2.55,0,0,0,.82-.52,2.7,2.7,0,0,0,.56-.77,3.22,3.22,0,0,0,.29-.93h.81a4.09,4.09,0,0,1-.35,1.2,3.33,3.33,0,0,1-.71,1,3.23,3.23,0,0,1-1.06.67,3.8,3.8,0,0,1-1.42.25A4,4,0,0,1,207,95a3.66,3.66,0,0,1-1.27-.94,4.19,4.19,0,0,1-.79-1.42,5.68,5.68,0,0,1,0-3.45,4.23,4.23,0,0,1,.77-1.42,3.72,3.72,0,0,1,1.27-1A4,4,0,0,1,208.69,86.48Z"/><path class="cls-4" d="M220,92.94a2.15,2.15,0,0,1-.28,1.14,2.26,2.26,0,0,1-.76.76,3.46,3.46,0,0,1-1.1.42,6.15,6.15,0,0,1-1.29.13,4.8,4.8,0,0,1-1.28-.16,3.18,3.18,0,0,1-1-.49,2.35,2.35,0,0,1-.69-.79,2.22,2.22,0,0,1-.25-1.08v-.19h.82v.06a1.87,1.87,0,0,0,.16.76,1.65,1.65,0,0,0,.48.62,2.43,2.43,0,0,0,.81.42,3.79,3.79,0,0,0,1.15.16,4,4,0,0,0,.9-.1,2.56,2.56,0,0,0,.79-.32,1.81,1.81,0,0,0,.56-.54,1.38,1.38,0,0,0,.21-.78q0-1.11-1.67-1.52l-2-.49a4,4,0,0,1-.88-.31,2.14,2.14,0,0,1-.6-.44,1.6,1.6,0,0,1-.35-.58,2.24,2.24,0,0,1-.11-.73,2.1,2.1,0,0,1,.25-1,2.34,2.34,0,0,1,.68-.76,3.07,3.07,0,0,1,1-.46,4.16,4.16,0,0,1,1.14-.16,4.34,4.34,0,0,1,1.2.16,2.9,2.9,0,0,1,1,.46,2.27,2.27,0,0,1,.64.75,2.24,2.24,0,0,1,.25,1h-.81a1.6,1.6,0,0,0-.2-.65,1.78,1.78,0,0,0-.46-.53,2.24,2.24,0,0,0-.69-.36,2.81,2.81,0,0,0-.88-.13,3.49,3.49,0,0,0-.91.11,2.16,2.16,0,0,0-.71.33,1.46,1.46,0,0,0-.46.53,1.6,1.6,0,0,0-.16.73,1.2,1.2,0,0,0,.11.52,1.13,1.13,0,0,0,.29.38,1.54,1.54,0,0,0,.43.25,4,4,0,0,0,.53.17l2,.48a3.73,3.73,0,0,1,1.76.85A1.93,1.93,0,0,1,220,92.94Z"/><path class="cls-4" d="M228.79,86.48a4.19,4.19,0,0,1,1.21.17,3.47,3.47,0,0,1,1,.49,2.86,2.86,0,0,1,1.17,1.79h-.81a2.57,2.57,0,0,0-.34-.7,2.26,2.26,0,0,0-.55-.56,2.68,2.68,0,0,0-.75-.37,3.37,3.37,0,0,0-2.34.17,3,3,0,0,0-1,.82,3.62,3.62,0,0,0-.62,1.2,4.87,4.87,0,0,0-.21,1.44,5.18,5.18,0,0,0,.08.94,4.26,4.26,0,0,0,.26.88,3.66,3.66,0,0,0,.44.78,2.93,2.93,0,0,0,.62.62,2.86,2.86,0,0,0,.81.41,3.23,3.23,0,0,0,1,.15,2.8,2.8,0,0,0,1.06-.19,2.55,2.55,0,0,0,.82-.52,2.7,2.7,0,0,0,.56-.77,3.22,3.22,0,0,0,.29-.93h.81a4.09,4.09,0,0,1-.35,1.2,3.33,3.33,0,0,1-.71,1,3.23,3.23,0,0,1-1.06.67,3.8,3.8,0,0,1-1.42.25,4,4,0,0,1-1.7-.34,3.66,3.66,0,0,1-1.27-.94,4.19,4.19,0,0,1-.79-1.42,5.68,5.68,0,0,1,0-3.45,4.23,4.23,0,0,1,.77-1.42,3.72,3.72,0,0,1,1.27-1A4,4,0,0,1,228.79,86.48Z"/><path class="cls-4" d="M234.79,86.64v7.87h4.8v.7H234V86.64Z"/><path class="cls-4" d="M248,90.93a4.7,4.7,0,0,1-1.1,3.2A3.68,3.68,0,0,1,244,95.39a3.72,3.72,0,0,1-2.95-1.25,5.26,5.26,0,0,1,0-6.43A3.72,3.72,0,0,1,244,86.46a4.81,4.81,0,0,1,.77.06,4,4,0,0,1,.74.19,3.72,3.72,0,0,1,.69.34,3.43,3.43,0,0,1,.61.49,3.49,3.49,0,0,1,.55.71,4.58,4.58,0,0,1,.38.83A5.41,5.41,0,0,1,248,90,6.57,6.57,0,0,1,248,90.93Zm-.81,0a4.21,4.21,0,0,0-.85-2.69A2.86,2.86,0,0,0,244,87.16a2.89,2.89,0,0,0-2.36,1.05,4.15,4.15,0,0,0-.86,2.71,4.22,4.22,0,0,0,.85,2.7,3.16,3.16,0,0,0,4.74,0A4.21,4.21,0,0,0,247.22,90.93Z"/><path class="cls-4" d="M255.88,92.94a2.15,2.15,0,0,1-.28,1.14,2.26,2.26,0,0,1-.76.76,3.46,3.46,0,0,1-1.1.42,6.15,6.15,0,0,1-1.29.13,4.8,4.8,0,0,1-1.28-.16,3.18,3.18,0,0,1-1-.49,2.35,2.35,0,0,1-.69-.79,2.22,2.22,0,0,1-.25-1.08v-.19H250v.06a1.87,1.87,0,0,0,.16.76,1.65,1.65,0,0,0,.48.62,2.43,2.43,0,0,0,.81.42,3.79,3.79,0,0,0,1.15.16,4,4,0,0,0,.9-.1,2.56,2.56,0,0,0,.79-.32,1.81,1.81,0,0,0,.56-.54,1.38,1.38,0,0,0,.21-.78q0-1.11-1.67-1.52l-2-.49a4,4,0,0,1-.88-.31,2.14,2.14,0,0,1-.6-.44,1.6,1.6,0,0,1-.35-.58,2.24,2.24,0,0,1-.11-.73,2.1,2.1,0,0,1,.25-1,2.34,2.34,0,0,1,.68-.76,3.07,3.07,0,0,1,1-.46,4.16,4.16,0,0,1,1.14-.16,4.34,4.34,0,0,1,1.2.16,2.9,2.9,0,0,1,1,.46,2.27,2.27,0,0,1,.64.75,2.24,2.24,0,0,1,.25,1h-.81a1.6,1.6,0,0,0-.2-.65,1.78,1.78,0,0,0-.46-.53,2.24,2.24,0,0,0-.69-.36,2.81,2.81,0,0,0-.88-.13,3.49,3.49,0,0,0-.91.11,2.16,2.16,0,0,0-.71.33,1.46,1.46,0,0,0-.46.53,1.6,1.6,0,0,0-.16.73,1.2,1.2,0,0,0,.11.52,1.13,1.13,0,0,0,.29.38,1.54,1.54,0,0,0,.43.25,4,4,0,0,0,.53.17l2,.48a3.73,3.73,0,0,1,1.76.85A1.93,1.93,0,0,1,255.88,92.94Z"/><path class="cls-4" d="M263.51,86.66v.7h-5.09v3.09h4.77v.69h-4.77v3.38h5.14v.7h-6V86.66Z"/><path class="cls-4" d="M267.95,86.64a4.11,4.11,0,0,1,3,1,5.51,5.51,0,0,1,0,6.52,4,4,0,0,1-2.89,1H265.1V86.64Zm-.22,7.87a3.57,3.57,0,0,0,2.61-.83,3.76,3.76,0,0,0,.84-2.75,3.82,3.82,0,0,0-.82-2.74,3.73,3.73,0,0,0-2.75-.84h-1.69v7.17Z"/><path class="cls-4" d="M208.69,117.48a4.19,4.19,0,0,1,1.21.17,3.47,3.47,0,0,1,1,.49,2.86,2.86,0,0,1,1.17,1.79h-.81a2.57,2.57,0,0,0-.34-.7,2.26,2.26,0,0,0-.55-.56,2.68,2.68,0,0,0-.75-.37,3.37,3.37,0,0,0-2.34.17,3,3,0,0,0-1,.82,3.62,3.62,0,0,0-.62,1.2,4.87,4.87,0,0,0-.21,1.44,5.18,5.18,0,0,0,.08.94,4.26,4.26,0,0,0,.26.88,3.66,3.66,0,0,0,.44.78,2.93,2.93,0,0,0,.62.62,2.86,2.86,0,0,0,.81.41,3.23,3.23,0,0,0,1,.15,2.8,2.8,0,0,0,1.06-.19,2.55,2.55,0,0,0,.82-.52,2.7,2.7,0,0,0,.56-.77,3.22,3.22,0,0,0,.29-.93h.81a4.09,4.09,0,0,1-.35,1.2,3.33,3.33,0,0,1-.71,1,3.23,3.23,0,0,1-1.06.67,3.8,3.8,0,0,1-1.42.25A4,4,0,0,1,207,126a3.66,3.66,0,0,1-1.27-.94,4.19,4.19,0,0,1-.79-1.42,5.68,5.68,0,0,1,0-3.45,4.23,4.23,0,0,1,.77-1.42,3.72,3.72,0,0,1,1.27-1A4,4,0,0,1,208.69,117.48Z"/><path class="cls-4" d="M219.56,126.21l-1-2.66h-3.89l-1,2.66h-.87l3.45-8.55h.91l3.36,8.55Zm-3-7.73h0l-1.71,4.38h3.37Z"/><path class="cls-4" d="M228.08,120.09a2.34,2.34,0,0,1-.7,1.8,2.55,2.55,0,0,1-1.8.64h-3v3.67h-.82v-8.57h3.86a2.53,2.53,0,0,1,1.8.65A2.33,2.33,0,0,1,228.08,120.09Zm-.81,0a1.68,1.68,0,0,0-.5-1.29,2.11,2.11,0,0,0-1.49-.46h-2.74v3.5h2.85a2,2,0,0,0,1.35-.45A1.65,1.65,0,0,0,227.26,120.09Z"/><path class="cls-4" d="M240.7,121.93a6.06,6.06,0,0,1-.07.92,4.93,4.93,0,0,1-.23.9,4.42,4.42,0,0,1-.4.84,3.63,3.63,0,0,1-.6.74l1.22.94-.41.5-1.33-1a3.31,3.31,0,0,1-1,.48,4.35,4.35,0,0,1-1.22.16,3.72,3.72,0,0,1-2.95-1.25,5.26,5.26,0,0,1,0-6.43,4.07,4.07,0,0,1,5.88,0A4.69,4.69,0,0,1,240.7,121.93Zm-.81,0a4.21,4.21,0,0,0-.85-2.69,2.86,2.86,0,0,0-2.38-1.08,2.89,2.89,0,0,0-2.36,1.05,4.15,4.15,0,0,0-.86,2.71,4.22,4.22,0,0,0,.85,2.7,2.86,2.86,0,0,0,2.38,1.07,2.94,2.94,0,0,0,1.58-.42l-1.12-.85.42-.52,1.25.95a3.34,3.34,0,0,0,.82-1.29A4.8,4.8,0,0,0,239.88,121.93Z"/><path class="cls-4" d="M244.83,117.49a3.57,3.57,0,0,1,1,.13,2.67,2.67,0,0,1,.85.41,2.08,2.08,0,0,1,.6.69,2,2,0,0,1,.23,1,2.22,2.22,0,0,1-.1.66,1.82,1.82,0,0,1-.28.56,1.77,1.77,0,0,1-.45.42,2.14,2.14,0,0,1-.62.27v0a2.06,2.06,0,0,1,1.33.74,2.21,2.21,0,0,1,.45,1.39,2.41,2.41,0,0,1-.84,1.91,2.78,2.78,0,0,1-1,.55,3.78,3.78,0,0,1-1.21.18,3.66,3.66,0,0,1-1.12-.17,2.8,2.8,0,0,1-.92-.49,2.34,2.34,0,0,1-.63-.78,2.28,2.28,0,0,1-.23-1v-.18h.79v.16a1.74,1.74,0,0,0,.56,1.28,2,2,0,0,0,.66.4,2.45,2.45,0,0,0,.88.15,2.7,2.7,0,0,0,.91-.13,2.21,2.21,0,0,0,.69-.4,1.7,1.7,0,0,0,.64-1.38,1.89,1.89,0,0,0-.14-.75,1.64,1.64,0,0,0-.42-.58,2.22,2.22,0,0,0-1.53-.5h-.64v-.66H245a1.86,1.86,0,0,0,1.21-.42,1.42,1.42,0,0,0,.52-1.15,1.59,1.59,0,0,0-.15-.71,1.48,1.48,0,0,0-.4-.51,1.73,1.73,0,0,0-.6-.31,2.56,2.56,0,0,0-.73-.1,2.1,2.1,0,0,0-.81.15,1.8,1.8,0,0,0-.61.41,1.82,1.82,0,0,0-.39.6,2,2,0,0,0-.13.73h-.78a2.44,2.44,0,0,1,.18-.92,2.53,2.53,0,0,1,.53-.82,2.7,2.7,0,0,1,.86-.59A2.82,2.82,0,0,1,244.83,117.49Z"/><path class="cls-4" d="M252.09,117.49a3.57,3.57,0,0,1,1,.13,2.67,2.67,0,0,1,.85.41,2.08,2.08,0,0,1,.6.69,2,2,0,0,1,.23,1,2.22,2.22,0,0,1-.1.66,1.82,1.82,0,0,1-.28.56,1.77,1.77,0,0,1-.45.42,2.14,2.14,0,0,1-.62.27v0a2.06,2.06,0,0,1,1.33.74,2.21,2.21,0,0,1,.45,1.39,2.41,2.41,0,0,1-.84,1.91,2.78,2.78,0,0,1-1,.55,3.78,3.78,0,0,1-1.21.18,3.66,3.66,0,0,1-1.12-.17,2.8,2.8,0,0,1-.92-.49,2.34,2.34,0,0,1-.63-.78,2.28,2.28,0,0,1-.23-1v-.18H250v.16a1.74,1.74,0,0,0,.56,1.28,2,2,0,0,0,.66.4,2.45,2.45,0,0,0,.88.15,2.7,2.7,0,0,0,.91-.13,2.21,2.21,0,0,0,.69-.4,1.7,1.7,0,0,0,.64-1.38,1.89,1.89,0,0,0-.14-.75,1.64,1.64,0,0,0-.42-.58,2.22,2.22,0,0,0-1.53-.5h-.64v-.66h.69a1.86,1.86,0,0,0,1.21-.42,1.42,1.42,0,0,0,.52-1.15,1.59,1.59,0,0,0-.15-.71,1.48,1.48,0,0,0-.4-.51,1.73,1.73,0,0,0-.6-.31,2.56,2.56,0,0,0-.73-.1,2.1,2.1,0,0,0-.81.15,1.8,1.8,0,0,0-.61.41,1.82,1.82,0,0,0-.39.6,2,2,0,0,0-.13.73h-.78a2.44,2.44,0,0,1,.18-.92,2.53,2.53,0,0,1,.53-.82,2.7,2.7,0,0,1,.86-.59A2.82,2.82,0,0,1,252.09,117.49Z"/><path class="cls-4" d="M262.83,117.66v.7h-5.09v3.09h4.77v.69h-4.77v3.38h5.14v.7h-6v-8.55Z"/><path class="cls-4" d="M270.5,122.37v.7h-3v-.7Z"/><path class="cls-4" d="M275.82,117.64l1.94,7.5h0l2.09-7.5h1l2.1,7.5h0l2-7.5h.81l-2.36,8.57h-.87l-2.17-7.67h0l-2.16,7.67h-.88l-2.38-8.57Z"/><path class="cls-4" d="M295.42,126.21v-4.46a1.73,1.73,0,0,0-.37-1.22,1.85,1.85,0,0,0-2.5.21,2.8,2.8,0,0,0-.45,1.71v3.77h-.81v-4.49a1.81,1.81,0,0,0-.34-1.17,1.25,1.25,0,0,0-1-.42,1.72,1.72,0,0,0-1.46.65,2.72,2.72,0,0,0-.5,1.71v3.72h-.8v-6.56h.74v1.1h0a2.26,2.26,0,0,1,2.15-1.29,2.44,2.44,0,0,1,.64.08,1.86,1.86,0,0,1,.54.24,1.66,1.66,0,0,1,.42.4,1.86,1.86,0,0,1,.28.55,2.16,2.16,0,0,1,.85-1,2.4,2.4,0,0,1,1.24-.32,2.12,2.12,0,0,1,1.63.58,2.36,2.36,0,0,1,.54,1.66v4.51Z"/><path class="cls-4" d="M303.32,124.43a1.67,1.67,0,0,1-.22.88,1.89,1.89,0,0,1-.59.62,2.74,2.74,0,0,1-.84.36,4,4,0,0,1-1,.12,3.66,3.66,0,0,1-1.07-.14,2.4,2.4,0,0,1-.8-.41,2,2,0,0,1-.53-.64,2.4,2.4,0,0,1-.25-.85h.81a1.7,1.7,0,0,0,.2.56,1.41,1.41,0,0,0,.38.43,1.8,1.8,0,0,0,.57.28,2.56,2.56,0,0,0,.74.1,3,3,0,0,0,.6-.06,2.05,2.05,0,0,0,.58-.21,1.35,1.35,0,0,0,.44-.38,1,1,0,0,0,.18-.59.93.93,0,0,0-.34-.73,2.6,2.6,0,0,0-1.13-.46l-1-.22a4,4,0,0,1-.77-.24,2.1,2.1,0,0,1-.58-.37,1.46,1.46,0,0,1-.36-.5,1.62,1.62,0,0,1-.12-.65,1.57,1.57,0,0,1,.21-.83,1.78,1.78,0,0,1,.56-.57,2.53,2.53,0,0,1,.78-.33,3.77,3.77,0,0,1,.89-.11,3.27,3.27,0,0,1,.92.12,2.29,2.29,0,0,1,.73.35,1.83,1.83,0,0,1,.5.57,2.08,2.08,0,0,1,.25.78h-.8a1.32,1.32,0,0,0-.19-.5,1.24,1.24,0,0,0-.36-.37,1.69,1.69,0,0,0-.5-.22,2.36,2.36,0,0,0-.61-.08,2.85,2.85,0,0,0-.58.06,1.59,1.59,0,0,0-.51.19,1.07,1.07,0,0,0-.36.35,1,1,0,0,0-.13.53.74.74,0,0,0,.13.44,1.27,1.27,0,0,0,.33.32,1.93,1.93,0,0,0,.44.22,3.64,3.64,0,0,0,.46.13l1.37.3a2.85,2.85,0,0,1,.59.21,1.77,1.77,0,0,1,.5.35,1.64,1.64,0,0,1,.34.51A1.71,1.71,0,0,1,303.32,124.43Z"/><path class="cls-4" d="M307.72,126.27h-.66a3,3,0,0,1-.68-.06,1,1,0,0,1-.45-.23.89.89,0,0,1-.25-.43,2.65,2.65,0,0,1-.07-.68v-4.56h-1.32v-.67h1.32v-2h.8v2h1.5v.67h-1.5v4.48a1.76,1.76,0,0,0,0,.34.64.64,0,0,0,.11.25.5.5,0,0,0,.21.16.87.87,0,0,0,.35.06h.6l.21,0v.68Z"/><path class="cls-4" d="M316.77,117.48a4.19,4.19,0,0,1,1.21.17,3.47,3.47,0,0,1,1,.49,2.86,2.86,0,0,1,1.17,1.79h-.81a2.57,2.57,0,0,0-.34-.7,2.26,2.26,0,0,0-.55-.56,2.68,2.68,0,0,0-.75-.37,3.37,3.37,0,0,0-2.34.17,3,3,0,0,0-1,.82,3.62,3.62,0,0,0-.62,1.2,4.87,4.87,0,0,0-.21,1.44,5.18,5.18,0,0,0,.08.94,4.26,4.26,0,0,0,.26.88,3.66,3.66,0,0,0,.44.78,2.93,2.93,0,0,0,.62.62,2.86,2.86,0,0,0,.81.41,3.23,3.23,0,0,0,1,.15,2.8,2.8,0,0,0,1.06-.19,2.55,2.55,0,0,0,.82-.52,2.7,2.7,0,0,0,.56-.77,3.22,3.22,0,0,0,.29-.93h.81a4.09,4.09,0,0,1-.35,1.2,3.33,3.33,0,0,1-.71,1,3.23,3.23,0,0,1-1.06.67,3.8,3.8,0,0,1-1.42.25A4,4,0,0,1,315,126a3.66,3.66,0,0,1-1.27-.94,4.19,4.19,0,0,1-.79-1.42,5.68,5.68,0,0,1,0-3.45,4.23,4.23,0,0,1,.77-1.42,3.72,3.72,0,0,1,1.27-1A4,4,0,0,1,316.77,117.48Z"/><path class="cls-4" d="M327.73,122.93a4.29,4.29,0,0,1-.2,1.31,3.31,3.31,0,0,1-.61,1.13,2.9,2.9,0,0,1-2.29,1,2.84,2.84,0,0,1-2.24-1,4.07,4.07,0,0,1,0-5,3.08,3.08,0,0,1,4.51,0A3.65,3.65,0,0,1,327.73,122.93Zm-.8,0a3.8,3.8,0,0,0-.13-1,2.81,2.81,0,0,0-.42-.9,2.25,2.25,0,0,0-.72-.65,2,2,0,0,0-1-.25,2,2,0,0,0-1,.24,2.24,2.24,0,0,0-.72.64,2.85,2.85,0,0,0-.44.9,3.66,3.66,0,0,0-.15,1,3.58,3.58,0,0,0,.14,1,3,3,0,0,0,.43.9,2.24,2.24,0,0,0,.71.65,2,2,0,0,0,1,.25,2,2,0,0,0,1-.24,2.33,2.33,0,0,0,.72-.63,2.8,2.8,0,0,0,.45-.89A3.54,3.54,0,0,0,326.93,122.93Z"/><path class="cls-4" d="M332.45,119.46a3.35,3.35,0,0,1,1.08.16,1.83,1.83,0,0,1,.74.46,1.87,1.87,0,0,1,.43.77,3.79,3.79,0,0,1,.14,1.08v4.28H334v-4.15a2.2,2.2,0,0,0-.41-1.44,1.54,1.54,0,0,0-1.25-.49,2.07,2.07,0,0,0-.86.17,1.88,1.88,0,0,0-.65.48,2.16,2.16,0,0,0-.41.71,2.63,2.63,0,0,0-.14.88v3.84h-.8v-6.56h.8v1.14h0a2,2,0,0,1,.35-.56,2.18,2.18,0,0,1,.49-.42,2.33,2.33,0,0,1,.6-.26A2.48,2.48,0,0,1,332.45,119.46Z"/><path class="cls-4" d="M338.32,120.32v5.89h-.8v-5.89h-1.3v-.67h1.3V119a2.15,2.15,0,0,1,.4-1.48,1.23,1.23,0,0,1,.52-.32,2.39,2.39,0,0,1,.74-.11h.46l.3,0v.69l-.17,0-.2,0h-.31a.83.83,0,0,0-1,1v.88h1.47v.67Z"/><path class="cls-4" d="M208.69,148.48a4.19,4.19,0,0,1,1.21.17,3.47,3.47,0,0,1,1,.49,2.86,2.86,0,0,1,1.17,1.79h-.81a2.57,2.57,0,0,0-.34-.7,2.26,2.26,0,0,0-.55-.56,2.68,2.68,0,0,0-.75-.37,3.37,3.37,0,0,0-2.34.17,3,3,0,0,0-1,.82,3.62,3.62,0,0,0-.62,1.2,4.87,4.87,0,0,0-.21,1.44,5.18,5.18,0,0,0,.08.94,4.26,4.26,0,0,0,.26.88,3.66,3.66,0,0,0,.44.78,2.93,2.93,0,0,0,.62.62,2.86,2.86,0,0,0,.81.41,3.23,3.23,0,0,0,1,.15,2.8,2.8,0,0,0,1.06-.19,2.55,2.55,0,0,0,.82-.52,2.7,2.7,0,0,0,.56-.77,3.22,3.22,0,0,0,.29-.93h.81a4.09,4.09,0,0,1-.35,1.2,3.33,3.33,0,0,1-.71,1,3.23,3.23,0,0,1-1.06.67,3.8,3.8,0,0,1-1.42.25A4,4,0,0,1,207,157a3.66,3.66,0,0,1-1.27-.94,4.19,4.19,0,0,1-.79-1.42,5.68,5.68,0,0,1,0-3.45,4.23,4.23,0,0,1,.77-1.42,3.72,3.72,0,0,1,1.27-1A4,4,0,0,1,208.69,148.48Z"/><path class="cls-4" d="M219.56,157.21l-1-2.66h-3.89l-1,2.66h-.87l3.45-8.55h.91l3.36,8.55Zm-3-7.73h0l-1.71,4.38h3.37Z"/><path class="cls-4" d="M228.08,151.09a2.34,2.34,0,0,1-.7,1.8,2.55,2.55,0,0,1-1.8.64h-3v3.67h-.82v-8.57h3.86a2.53,2.53,0,0,1,1.8.65A2.33,2.33,0,0,1,228.08,151.09Zm-.81,0a1.68,1.68,0,0,0-.5-1.29,2.11,2.11,0,0,0-1.49-.46h-2.74v3.5h2.85a2,2,0,0,0,1.35-.45A1.65,1.65,0,0,0,227.26,151.09Z"/><path class="cls-4" d="M240.7,152.93a6.06,6.06,0,0,1-.07.92,4.93,4.93,0,0,1-.23.9,4.42,4.42,0,0,1-.4.84,3.63,3.63,0,0,1-.6.74l1.22.94-.41.5-1.33-1a3.31,3.31,0,0,1-1,.48,4.35,4.35,0,0,1-1.22.16,3.72,3.72,0,0,1-2.95-1.25,5.26,5.26,0,0,1,0-6.43,4.07,4.07,0,0,1,5.88,0A4.69,4.69,0,0,1,240.7,152.93Zm-.81,0a4.21,4.21,0,0,0-.85-2.69,2.86,2.86,0,0,0-2.38-1.08,2.89,2.89,0,0,0-2.36,1.05,4.15,4.15,0,0,0-.86,2.71,4.22,4.22,0,0,0,.85,2.7,2.86,2.86,0,0,0,2.38,1.07,2.94,2.94,0,0,0,1.58-.42l-1.12-.85.42-.52,1.25.95a3.34,3.34,0,0,0,.82-1.29A4.8,4.8,0,0,0,239.88,152.93Z"/><path class="cls-4" d="M244.83,148.49a3.57,3.57,0,0,1,1,.13,2.67,2.67,0,0,1,.85.41,2.08,2.08,0,0,1,.6.69,2,2,0,0,1,.23,1,2.22,2.22,0,0,1-.1.66,1.82,1.82,0,0,1-.28.56,1.77,1.77,0,0,1-.45.42,2.14,2.14,0,0,1-.62.27v0a2.06,2.06,0,0,1,1.33.74,2.21,2.21,0,0,1,.45,1.39,2.41,2.41,0,0,1-.84,1.91,2.78,2.78,0,0,1-1,.55,3.78,3.78,0,0,1-1.21.18,3.66,3.66,0,0,1-1.12-.17,2.8,2.8,0,0,1-.92-.49,2.34,2.34,0,0,1-.63-.78,2.28,2.28,0,0,1-.23-1v-.18h.79v.16a1.74,1.74,0,0,0,.56,1.28,2,2,0,0,0,.66.4,2.45,2.45,0,0,0,.88.15,2.7,2.7,0,0,0,.91-.13,2.21,2.21,0,0,0,.69-.4,1.7,1.7,0,0,0,.64-1.38,1.89,1.89,0,0,0-.14-.75,1.64,1.64,0,0,0-.42-.58,2.22,2.22,0,0,0-1.53-.5h-.64v-.66H245a1.86,1.86,0,0,0,1.21-.42,1.42,1.42,0,0,0,.52-1.15,1.59,1.59,0,0,0-.15-.71,1.48,1.48,0,0,0-.4-.51,1.73,1.73,0,0,0-.6-.31,2.56,2.56,0,0,0-.73-.1,2.1,2.1,0,0,0-.81.15,1.8,1.8,0,0,0-.61.41,1.82,1.82,0,0,0-.39.6,2,2,0,0,0-.13.73h-.78a2.44,2.44,0,0,1,.18-.92,2.53,2.53,0,0,1,.53-.82,2.7,2.7,0,0,1,.86-.59A2.82,2.82,0,0,1,244.83,148.49Z"/><path class="cls-4" d="M252.23,157.21v-6.43h-2.29v-.56q.53,0,.9-.06a2.36,2.36,0,0,0,.57-.13,1.3,1.3,0,0,0,.64-.52,2.46,2.46,0,0,0,.31-1H253v8.65Z"/><path class="cls-4" d="M260.49,148.46a4.29,4.29,0,0,1,1.21.17,3.53,3.53,0,0,1,1,.49,3.13,3.13,0,0,1,.79.79A3.35,3.35,0,0,1,264,151h-.83a2.22,2.22,0,0,0-.35-.73,2.41,2.41,0,0,0-.59-.58,2.89,2.89,0,0,0-.8-.38,3.22,3.22,0,0,0-1-.14,3.15,3.15,0,0,0-1.4.3,3,3,0,0,0-1,.81,3.52,3.52,0,0,0-.62,1.2,5,5,0,0,0-.21,1.47,5.07,5.07,0,0,0,.19,1.39,3.6,3.6,0,0,0,.59,1.21,2.93,2.93,0,0,0,2.44,1.17,3.14,3.14,0,0,0,1.22-.23,2.67,2.67,0,0,0,.93-.64,2.87,2.87,0,0,0,.6-1,3.73,3.73,0,0,0,.21-1.28h-2.92v-.69h3.64v4.35h-.59l-.11-1.56h0a2.88,2.88,0,0,1-1.18,1.3,3.53,3.53,0,0,1-1.79.44,4.06,4.06,0,0,1-1.73-.35,3.66,3.66,0,0,1-1.27-1,4.17,4.17,0,0,1-.78-1.42,5.55,5.55,0,0,1-.27-1.74,5.35,5.35,0,0,1,.28-1.73,4.21,4.21,0,0,1,.8-1.42,3.81,3.81,0,0,1,1.28-1A4,4,0,0,1,260.49,148.46Z"/><path class="cls-4" d="M272.3,153.37v.7h-3v-.7Z"/><path class="cls-4" d="M277.62,148.64l1.94,7.5h0l2.09-7.5h1l2.1,7.5h0l2-7.5h.81l-2.36,8.57h-.87l-2.17-7.67h0L280,157.21h-.88l-2.38-8.57Z"/><path class="cls-4" d="M296.43,157.21v-7.39h0l-2.92,7.39h-.78l-2.92-7.39h0v7.39h-.82v-8.55h1.2l3,7.5h0l2.94-7.5h1.2v8.55Z"/><path class="cls-4" d="M305.61,154.94a2.15,2.15,0,0,1-.28,1.14,2.26,2.26,0,0,1-.76.76,3.46,3.46,0,0,1-1.1.42,6.15,6.15,0,0,1-1.29.13,4.8,4.8,0,0,1-1.28-.16,3.18,3.18,0,0,1-1-.49,2.35,2.35,0,0,1-.69-.79,2.22,2.22,0,0,1-.25-1.08v-.19h.82v.06a1.87,1.87,0,0,0,.16.76,1.65,1.65,0,0,0,.48.62,2.43,2.43,0,0,0,.81.42,3.79,3.79,0,0,0,1.15.16,4,4,0,0,0,.9-.1,2.56,2.56,0,0,0,.79-.32,1.81,1.81,0,0,0,.56-.54,1.38,1.38,0,0,0,.21-.78q0-1.11-1.67-1.52l-2-.49a4,4,0,0,1-.88-.31,2.14,2.14,0,0,1-.6-.44,1.6,1.6,0,0,1-.35-.58,2.24,2.24,0,0,1-.11-.73,2.1,2.1,0,0,1,.25-1,2.34,2.34,0,0,1,.68-.76,3.07,3.07,0,0,1,1-.46,4.16,4.16,0,0,1,1.14-.16,4.34,4.34,0,0,1,1.2.16,2.9,2.9,0,0,1,1,.46,2.27,2.27,0,0,1,.64.75,2.24,2.24,0,0,1,.25,1h-.81a1.6,1.6,0,0,0-.2-.65,1.78,1.78,0,0,0-.46-.53,2.24,2.24,0,0,0-.69-.36,2.81,2.81,0,0,0-.88-.13,3.49,3.49,0,0,0-.91.11,2.16,2.16,0,0,0-.71.33,1.46,1.46,0,0,0-.46.53,1.6,1.6,0,0,0-.16.73,1.2,1.2,0,0,0,.11.52,1.13,1.13,0,0,0,.29.38,1.54,1.54,0,0,0,.43.25,4,4,0,0,0,.53.17l2,.48a3.73,3.73,0,0,1,1.76.85A1.93,1.93,0,0,1,305.61,154.94Z"/><path class="cls-4" d="M312.74,148.64v.7h-3v7.87h-.81v-7.87h-3v-.7Z"/><path class="cls-4" d="M320.95,148.48a4.19,4.19,0,0,1,1.21.17,3.47,3.47,0,0,1,1,.49,2.86,2.86,0,0,1,1.17,1.79h-.81a2.57,2.57,0,0,0-.34-.7,2.26,2.26,0,0,0-.55-.56,2.68,2.68,0,0,0-.75-.37,3.37,3.37,0,0,0-2.34.17,3,3,0,0,0-1,.82,3.62,3.62,0,0,0-.62,1.2,4.87,4.87,0,0,0-.21,1.44,5.18,5.18,0,0,0,.08.94,4.26,4.26,0,0,0,.26.88,3.66,3.66,0,0,0,.44.78,2.93,2.93,0,0,0,.62.62,2.86,2.86,0,0,0,.81.41,3.23,3.23,0,0,0,1,.15,2.8,2.8,0,0,0,1.06-.19,2.55,2.55,0,0,0,.82-.52,2.7,2.7,0,0,0,.56-.77,3.22,3.22,0,0,0,.29-.93h.81a4.09,4.09,0,0,1-.35,1.2,3.33,3.33,0,0,1-.71,1,3.23,3.23,0,0,1-1.06.67,3.8,3.8,0,0,1-1.42.25,4,4,0,0,1-1.7-.34,3.66,3.66,0,0,1-1.27-.94,4.19,4.19,0,0,1-.79-1.42,5.68,5.68,0,0,1,0-3.45,4.23,4.23,0,0,1,.77-1.42,3.72,3.72,0,0,1,1.27-1A4,4,0,0,1,320.95,148.48Z"/><path class="cls-4" d="M331.91,153.93a4.29,4.29,0,0,1-.2,1.31,3.31,3.31,0,0,1-.61,1.13,2.9,2.9,0,0,1-2.29,1,2.84,2.84,0,0,1-2.24-1,4.07,4.07,0,0,1,0-5,3.08,3.08,0,0,1,4.51,0A3.65,3.65,0,0,1,331.91,153.93Zm-.8,0a3.8,3.8,0,0,0-.13-1,2.81,2.81,0,0,0-.42-.9,2.25,2.25,0,0,0-.72-.65,2,2,0,0,0-1-.25,2,2,0,0,0-1,.24,2.24,2.24,0,0,0-.72.64,2.85,2.85,0,0,0-.44.9,3.66,3.66,0,0,0-.15,1,3.58,3.58,0,0,0,.14,1,3,3,0,0,0,.43.9,2.24,2.24,0,0,0,.71.65,2,2,0,0,0,1,.25,2,2,0,0,0,1-.24,2.33,2.33,0,0,0,.72-.63A2.8,2.8,0,0,0,331,155,3.54,3.54,0,0,0,331.11,153.93Z"/><path class="cls-4" d="M336.63,150.46a3.35,3.35,0,0,1,1.08.16,1.83,1.83,0,0,1,.74.46,1.87,1.87,0,0,1,.43.77,3.79,3.79,0,0,1,.14,1.08v4.28h-.8v-4.15a2.2,2.2,0,0,0-.41-1.44,1.54,1.54,0,0,0-1.25-.49,2.07,2.07,0,0,0-.86.17,1.88,1.88,0,0,0-.65.48,2.16,2.16,0,0,0-.41.71,2.63,2.63,0,0,0-.14.88v3.84h-.8v-6.56h.8v1.14h0a2,2,0,0,1,.35-.56,2.18,2.18,0,0,1,.49-.42,2.33,2.33,0,0,1,.6-.26A2.48,2.48,0,0,1,336.63,150.46Z"/><path class="cls-4" d="M342.5,151.32v5.89h-.8v-5.89h-1.3v-.67h1.3V150a2.15,2.15,0,0,1,.4-1.48,1.23,1.23,0,0,1,.52-.32,2.39,2.39,0,0,1,.74-.11h.46l.3,0v.69l-.17,0-.2,0h-.31a.83.83,0,0,0-1,1v.88H344v.67Z"/><path class="cls-4" d="M41.64,59.93a4.7,4.7,0,0,1-1.1,3.2,3.68,3.68,0,0,1-2.94,1.27,3.72,3.72,0,0,1-2.95-1.25,5.26,5.26,0,0,1,0-6.43,3.72,3.72,0,0,1,2.95-1.25,4.81,4.81,0,0,1,.77.06,4,4,0,0,1,.74.19,3.72,3.72,0,0,1,.69.34,3.43,3.43,0,0,1,.61.49,3.49,3.49,0,0,1,.55.71,4.58,4.58,0,0,1,.38.83,5.41,5.41,0,0,1,.22.91A6.57,6.57,0,0,1,41.64,59.93Zm-.81,0A4.21,4.21,0,0,0,40,57.24a2.86,2.86,0,0,0-2.38-1.08,2.89,2.89,0,0,0-2.36,1.05,4.15,4.15,0,0,0-.86,2.71,4.22,4.22,0,0,0,.85,2.7,3.16,3.16,0,0,0,4.74,0A4.21,4.21,0,0,0,40.83,59.93Z"/><path class="cls-4" d="M49.37,60.93a4.77,4.77,0,0,1-.17,1.28,3.38,3.38,0,0,1-.53,1.11,2.69,2.69,0,0,1-.92.79,2.8,2.8,0,0,1-1.33.3,2.9,2.9,0,0,1-.72-.09A2.59,2.59,0,0,1,45,64a2.34,2.34,0,0,1-.55-.45,2.18,2.18,0,0,1-.4-.63h0v1.25h-.74V55.13h.8V58.9h0a2,2,0,0,1,.36-.61,2.25,2.25,0,0,1,.54-.45,2.5,2.5,0,0,1,.66-.28,3,3,0,0,1,2,.18,2.62,2.62,0,0,1,.91.75,3.34,3.34,0,0,1,.55,1.1A5,5,0,0,1,49.37,60.93Zm-.8,0a4.39,4.39,0,0,0,0-.65,3.54,3.54,0,0,0-.16-.64,2.89,2.89,0,0,0-.28-.59,2.08,2.08,0,0,0-.41-.48,1.83,1.83,0,0,0-.55-.32,2,2,0,0,0-.71-.12,2.05,2.05,0,0,0-1.73.85,2.72,2.72,0,0,0-.42.89,3.94,3.94,0,0,0-.14,1.06,4.21,4.21,0,0,0,.13,1,2.67,2.67,0,0,0,.4.9,2.08,2.08,0,0,0,.71.63,2.18,2.18,0,0,0,1.06.24,1.88,1.88,0,0,0,1-.23,2,2,0,0,0,.66-.63,2.9,2.9,0,0,0,.38-.89A4.91,4.91,0,0,0,48.56,60.93Z"/><path class="cls-4" d="M52.09,64.87a2.15,2.15,0,0,1-.34,1.32,1.29,1.29,0,0,1-1.1.44h-.3l-.31,0V66h.38a.84.84,0,0,0,.67-.21,1,1,0,0,0,.2-.7V57.65h.8Zm-.8-8.81V54.78h.8v1.29Z"/><path class="cls-4" d="M56.87,57.46a2.71,2.71,0,0,1,1.3.29,2.6,2.6,0,0,1,.9.79,3.45,3.45,0,0,1,.52,1.13A5.21,5.21,0,0,1,59.76,61v.13H54.71a3.58,3.58,0,0,0,.13.94,2.59,2.59,0,0,0,.39.83,2,2,0,0,0,.66.59,1.92,1.92,0,0,0,.95.22,2.44,2.44,0,0,0,.7-.09,2,2,0,0,0,.56-.26A1.76,1.76,0,0,0,58.5,63a2.41,2.41,0,0,0,.29-.49h.79a3,3,0,0,1-.38.79,2.48,2.48,0,0,1-.59.6,2.68,2.68,0,0,1-.79.39,3.34,3.34,0,0,1-1,.14,2.94,2.94,0,0,1-1.3-.27,2.56,2.56,0,0,1-.91-.73,3.12,3.12,0,0,1-.54-1.1,5.14,5.14,0,0,1-.18-1.37,4.66,4.66,0,0,1,.18-1.28,3.36,3.36,0,0,1,.54-1.11,2.74,2.74,0,0,1,.92-.78A2.79,2.79,0,0,1,56.87,57.46Zm2.09,3a3,3,0,0,0-.16-.85,2.44,2.44,0,0,0-.41-.75,2.07,2.07,0,0,0-.65-.54,1.84,1.84,0,0,0-.88-.21,1.84,1.84,0,0,0-1.5.7,2.7,2.7,0,0,0-.42.75,4.31,4.31,0,0,0-.23.9Z"/><path class="cls-4" d="M64.14,57.46a3.46,3.46,0,0,1,1,.13,2.53,2.53,0,0,1,.78.38,2,2,0,0,1,.56.61,2.31,2.31,0,0,1,.29.82h-.8a1.73,1.73,0,0,0-.22-.52,1.5,1.5,0,0,0-.37-.4,1.7,1.7,0,0,0-.53-.26,2.34,2.34,0,0,0-.68-.09,2,2,0,0,0-1,.23,2.19,2.19,0,0,0-.72.63,2.91,2.91,0,0,0-.44.9,3.58,3.58,0,0,0-.15,1,3.67,3.67,0,0,0,.14,1,2.88,2.88,0,0,0,.42.9,2.26,2.26,0,0,0,.71.65,2,2,0,0,0,1,.25,1.93,1.93,0,0,0,.71-.13,1.88,1.88,0,0,0,.56-.34,1.79,1.79,0,0,0,.39-.49,1.87,1.87,0,0,0,.21-.58h.8a3,3,0,0,1-.29.85,2.49,2.49,0,0,1-.55.7,2.54,2.54,0,0,1-.8.48,2.88,2.88,0,0,1-1,.18,3,3,0,0,1-1.29-.27,2.85,2.85,0,0,1-1-.74,3.28,3.28,0,0,1-.61-1.1,4.47,4.47,0,0,1,0-2.67,3.31,3.31,0,0,1,.59-1.11,2.9,2.9,0,0,1,1-.77A3,3,0,0,1,64.14,57.46Z"/><path class="cls-4" d="M71.22,64.27h-.66a3,3,0,0,1-.68-.06,1,1,0,0,1-.45-.23.89.89,0,0,1-.25-.43,2.65,2.65,0,0,1-.07-.68V58.32H67.79v-.67h1.32v-2h.8v2h1.5v.67h-1.5V62.8a1.76,1.76,0,0,0,0,.34.64.64,0,0,0,.11.25.5.5,0,0,0,.21.16.87.87,0,0,0,.35.06h.6l.21,0v.68Z"/><path class="cls-4" d="M79.28,64.21V57.78H77v-.56q.53,0,.9-.06a2.36,2.36,0,0,0,.57-.13,1.3,1.3,0,0,0,.64-.52,2.46,2.46,0,0,0,.31-1h.63v8.65Z"/><path class="cls-4" d="M41.64,90.93a4.7,4.7,0,0,1-1.1,3.2,3.68,3.68,0,0,1-2.94,1.27,3.72,3.72,0,0,1-2.95-1.25,5.26,5.26,0,0,1,0-6.43,3.72,3.72,0,0,1,2.95-1.25,4.81,4.81,0,0,1,.77.06,4,4,0,0,1,.74.19,3.72,3.72,0,0,1,.69.34,3.43,3.43,0,0,1,.61.49,3.49,3.49,0,0,1,.55.71,4.58,4.58,0,0,1,.38.83,5.41,5.41,0,0,1,.22.91A6.57,6.57,0,0,1,41.64,90.93Zm-.81,0A4.21,4.21,0,0,0,40,88.24a2.86,2.86,0,0,0-2.38-1.08,2.89,2.89,0,0,0-2.36,1.05,4.15,4.15,0,0,0-.86,2.71,4.22,4.22,0,0,0,.85,2.7,3.16,3.16,0,0,0,4.74,0A4.21,4.21,0,0,0,40.83,90.93Z"/><path class="cls-4" d="M49.37,91.93a4.77,4.77,0,0,1-.17,1.28,3.38,3.38,0,0,1-.53,1.11,2.69,2.69,0,0,1-.92.79,2.8,2.8,0,0,1-1.33.3,2.9,2.9,0,0,1-.72-.09A2.59,2.59,0,0,1,45,95a2.34,2.34,0,0,1-.55-.45,2.18,2.18,0,0,1-.4-.63h0v1.25h-.74V86.13h.8V89.9h0a2,2,0,0,1,.36-.61,2.25,2.25,0,0,1,.54-.45,2.5,2.5,0,0,1,.66-.28,3,3,0,0,1,2,.18,2.62,2.62,0,0,1,.91.75,3.34,3.34,0,0,1,.55,1.1A5,5,0,0,1,49.37,91.93Zm-.8,0a4.39,4.39,0,0,0,0-.65,3.54,3.54,0,0,0-.16-.64,2.89,2.89,0,0,0-.28-.59,2.08,2.08,0,0,0-.41-.48,1.83,1.83,0,0,0-.55-.32,2,2,0,0,0-.71-.12,2.05,2.05,0,0,0-1.73.85,2.72,2.72,0,0,0-.42.89,3.94,3.94,0,0,0-.14,1.06,4.21,4.21,0,0,0,.13,1,2.67,2.67,0,0,0,.4.9,2.08,2.08,0,0,0,.71.63,2.18,2.18,0,0,0,1.06.24,1.88,1.88,0,0,0,1-.23,2,2,0,0,0,.66-.63,2.9,2.9,0,0,0,.38-.89A4.91,4.91,0,0,0,48.56,91.93Z"/><path class="cls-4" d="M52.09,95.87a2.15,2.15,0,0,1-.34,1.32,1.29,1.29,0,0,1-1.1.44h-.3l-.31,0V97h.38a.84.84,0,0,0,.67-.21,1,1,0,0,0,.2-.7V88.65h.8Zm-.8-8.81V85.78h.8v1.29Z"/><path class="cls-4" d="M56.87,88.46a2.71,2.71,0,0,1,1.3.29,2.6,2.6,0,0,1,.9.79,3.45,3.45,0,0,1,.52,1.13A5.21,5.21,0,0,1,59.76,92v.13H54.71a3.58,3.58,0,0,0,.13.94,2.59,2.59,0,0,0,.39.83,2,2,0,0,0,.66.59,1.92,1.92,0,0,0,.95.22,2.44,2.44,0,0,0,.7-.09,2,2,0,0,0,.56-.26A1.76,1.76,0,0,0,58.5,94a2.41,2.41,0,0,0,.29-.49h.79a3,3,0,0,1-.38.79,2.48,2.48,0,0,1-.59.6,2.68,2.68,0,0,1-.79.39,3.34,3.34,0,0,1-1,.14,2.94,2.94,0,0,1-1.3-.27,2.56,2.56,0,0,1-.91-.73,3.12,3.12,0,0,1-.54-1.1,5.14,5.14,0,0,1-.18-1.37,4.66,4.66,0,0,1,.18-1.28,3.36,3.36,0,0,1,.54-1.11,2.74,2.74,0,0,1,.92-.78A2.79,2.79,0,0,1,56.87,88.46Zm2.09,3a3,3,0,0,0-.16-.85,2.44,2.44,0,0,0-.41-.75,2.07,2.07,0,0,0-.65-.54,1.84,1.84,0,0,0-.88-.21,1.84,1.84,0,0,0-1.5.7,2.7,2.7,0,0,0-.42.75,4.31,4.31,0,0,0-.23.9Z"/><path class="cls-4" d="M64.14,88.46a3.46,3.46,0,0,1,1,.13,2.53,2.53,0,0,1,.78.38,2,2,0,0,1,.56.61,2.31,2.31,0,0,1,.29.82h-.8a1.73,1.73,0,0,0-.22-.52,1.5,1.5,0,0,0-.37-.4,1.7,1.7,0,0,0-.53-.26,2.34,2.34,0,0,0-.68-.09,2,2,0,0,0-1,.23,2.19,2.19,0,0,0-.72.63,2.91,2.91,0,0,0-.44.9,3.58,3.58,0,0,0-.15,1,3.67,3.67,0,0,0,.14,1,2.88,2.88,0,0,0,.42.9,2.26,2.26,0,0,0,.71.65,2,2,0,0,0,1,.25,1.93,1.93,0,0,0,.71-.13,1.88,1.88,0,0,0,.56-.34,1.79,1.79,0,0,0,.39-.49,1.87,1.87,0,0,0,.21-.58h.8a3,3,0,0,1-.29.85,2.49,2.49,0,0,1-.55.7,2.54,2.54,0,0,1-.8.48,2.88,2.88,0,0,1-1,.18,3,3,0,0,1-1.29-.27,2.85,2.85,0,0,1-1-.74,3.28,3.28,0,0,1-.61-1.1,4.47,4.47,0,0,1,0-2.67,3.31,3.31,0,0,1,.59-1.11,2.9,2.9,0,0,1,1-.77A3,3,0,0,1,64.14,88.46Z"/><path class="cls-4" d="M71.22,95.27h-.66a3,3,0,0,1-.68-.06,1,1,0,0,1-.45-.23.89.89,0,0,1-.25-.43,2.65,2.65,0,0,1-.07-.68V89.32H67.79v-.67h1.32v-2h.8v2h1.5v.67h-1.5V93.8a1.76,1.76,0,0,0,0,.34.64.64,0,0,0,.11.25.5.5,0,0,0,.21.16.87.87,0,0,0,.35.06h.6l.21,0v.68Z"/><path class="cls-4" d="M79.21,86.49a2.81,2.81,0,0,1,2,.66,2.28,2.28,0,0,1,.73,1.78,2.82,2.82,0,0,1-.55,1.66,7,7,0,0,1-2,1.66,8.29,8.29,0,0,0-1.66,1.23,2,2,0,0,0-.56,1h4.81v.72h-5.7a3,3,0,0,1,.56-1.74,6.61,6.61,0,0,1,1.93-1.66,8.78,8.78,0,0,0,1.89-1.48,2.11,2.11,0,0,0,.51-1.41,1.64,1.64,0,0,0-.54-1.28,2,2,0,0,0-1.4-.49,2,2,0,0,0-.86.17,1.82,1.82,0,0,0-.61.44,1.77,1.77,0,0,0-.36.62,2.2,2.2,0,0,0-.12.71v.17h-.77v-.12a2.93,2.93,0,0,1,.17-1,2.42,2.42,0,0,1,.51-.84,2.47,2.47,0,0,1,.86-.59A3.06,3.06,0,0,1,79.21,86.49Z"/><path class="cls-4" d="M41.64,121.93a4.7,4.7,0,0,1-1.1,3.2,3.68,3.68,0,0,1-2.94,1.27,3.72,3.72,0,0,1-2.95-1.25,5.26,5.26,0,0,1,0-6.43,3.72,3.72,0,0,1,2.95-1.25,4.81,4.81,0,0,1,.77.06,4,4,0,0,1,.74.19,3.72,3.72,0,0,1,.69.34,3.43,3.43,0,0,1,.61.49,3.49,3.49,0,0,1,.55.71,4.58,4.58,0,0,1,.38.83,5.41,5.41,0,0,1,.22.91A6.57,6.57,0,0,1,41.64,121.93Zm-.81,0a4.21,4.21,0,0,0-.85-2.69,2.86,2.86,0,0,0-2.38-1.08,2.89,2.89,0,0,0-2.36,1.05,4.15,4.15,0,0,0-.86,2.71,4.22,4.22,0,0,0,.85,2.7,3.16,3.16,0,0,0,4.74,0A4.21,4.21,0,0,0,40.83,121.93Z"/><path class="cls-4" d="M49.37,122.93a4.77,4.77,0,0,1-.17,1.28,3.38,3.38,0,0,1-.53,1.11,2.69,2.69,0,0,1-.92.79,2.8,2.8,0,0,1-1.33.3,2.9,2.9,0,0,1-.72-.09A2.59,2.59,0,0,1,45,126a2.34,2.34,0,0,1-.55-.45,2.18,2.18,0,0,1-.4-.63h0v1.25h-.74v-9.08h.8v3.77h0a2,2,0,0,1,.36-.61,2.25,2.25,0,0,1,.54-.45,2.5,2.5,0,0,1,.66-.28,3,3,0,0,1,2,.18,2.62,2.62,0,0,1,.91.75,3.34,3.34,0,0,1,.55,1.1A5,5,0,0,1,49.37,122.93Zm-.8,0a4.39,4.39,0,0,0,0-.65,3.54,3.54,0,0,0-.16-.64,2.89,2.89,0,0,0-.28-.59,2.08,2.08,0,0,0-.41-.48,1.83,1.83,0,0,0-.55-.32,2,2,0,0,0-.71-.12,2.05,2.05,0,0,0-1.73.85,2.72,2.72,0,0,0-.42.89,3.94,3.94,0,0,0-.14,1.06,4.21,4.21,0,0,0,.13,1,2.67,2.67,0,0,0,.4.9,2.08,2.08,0,0,0,.71.63,2.18,2.18,0,0,0,1.06.24,1.88,1.88,0,0,0,1-.23,2,2,0,0,0,.66-.63,2.9,2.9,0,0,0,.38-.89A4.91,4.91,0,0,0,48.56,122.93Z"/><path class="cls-4" d="M52.09,126.87a2.15,2.15,0,0,1-.34,1.32,1.29,1.29,0,0,1-1.1.44h-.3l-.31,0V128h.38a.84.84,0,0,0,.67-.21,1,1,0,0,0,.2-.7v-7.41h.8Zm-.8-8.81v-1.29h.8v1.29Z"/><path class="cls-4" d="M56.87,119.46a2.71,2.71,0,0,1,1.3.29,2.6,2.6,0,0,1,.9.79,3.45,3.45,0,0,1,.52,1.13,5.21,5.21,0,0,1,.17,1.34v.13H54.71a3.58,3.58,0,0,0,.13.94,2.59,2.59,0,0,0,.39.83,2,2,0,0,0,.66.59,1.92,1.92,0,0,0,.95.22,2.44,2.44,0,0,0,.7-.09,2,2,0,0,0,.56-.26,1.76,1.76,0,0,0,.42-.39,2.41,2.41,0,0,0,.29-.49h.79a3,3,0,0,1-.38.79,2.48,2.48,0,0,1-.59.6,2.68,2.68,0,0,1-.79.39,3.34,3.34,0,0,1-1,.14,2.94,2.94,0,0,1-1.3-.27,2.56,2.56,0,0,1-.91-.73,3.12,3.12,0,0,1-.54-1.1,5.14,5.14,0,0,1-.18-1.37,4.66,4.66,0,0,1,.18-1.28,3.36,3.36,0,0,1,.54-1.11,2.74,2.74,0,0,1,.92-.78A2.79,2.79,0,0,1,56.87,119.46Zm2.09,3a3,3,0,0,0-.16-.85,2.44,2.44,0,0,0-.41-.75,2.07,2.07,0,0,0-.65-.54,1.84,1.84,0,0,0-.88-.21,1.84,1.84,0,0,0-1.5.7,2.7,2.7,0,0,0-.42.75,4.31,4.31,0,0,0-.23.9Z"/><path class="cls-4" d="M64.14,119.46a3.46,3.46,0,0,1,1,.13,2.53,2.53,0,0,1,.78.38,2,2,0,0,1,.56.61,2.31,2.31,0,0,1,.29.82h-.8a1.73,1.73,0,0,0-.22-.52,1.5,1.5,0,0,0-.37-.4,1.7,1.7,0,0,0-.53-.26,2.34,2.34,0,0,0-.68-.09,2,2,0,0,0-1,.23,2.19,2.19,0,0,0-.72.63,2.91,2.91,0,0,0-.44.9,3.58,3.58,0,0,0-.15,1,3.67,3.67,0,0,0,.14,1,2.88,2.88,0,0,0,.42.9,2.26,2.26,0,0,0,.71.65,2,2,0,0,0,1,.25,1.93,1.93,0,0,0,.71-.13,1.88,1.88,0,0,0,.56-.34,1.79,1.79,0,0,0,.39-.49,1.87,1.87,0,0,0,.21-.58h.8a3,3,0,0,1-.29.85,2.49,2.49,0,0,1-.55.7,2.54,2.54,0,0,1-.8.48,2.88,2.88,0,0,1-1,.18,3,3,0,0,1-1.29-.27,2.85,2.85,0,0,1-1-.74,3.28,3.28,0,0,1-.61-1.1,4.47,4.47,0,0,1,0-2.67,3.31,3.31,0,0,1,.59-1.11,2.9,2.9,0,0,1,1-.77A3,3,0,0,1,64.14,119.46Z"/><path class="cls-4" d="M71.22,126.27h-.66a3,3,0,0,1-.68-.06,1,1,0,0,1-.45-.23.89.89,0,0,1-.25-.43,2.65,2.65,0,0,1-.07-.68v-4.56H67.79v-.67h1.32v-2h.8v2h1.5v.67h-1.5v4.48a1.76,1.76,0,0,0,0,.34.64.64,0,0,0,.11.25.5.5,0,0,0,.21.16.87.87,0,0,0,.35.06h.6l.21,0v.68Z"/><path class="cls-4" d="M79.14,117.49a3.57,3.57,0,0,1,1,.13A2.67,2.67,0,0,1,81,118a2.08,2.08,0,0,1,.6.69,2,2,0,0,1,.23,1,2.22,2.22,0,0,1-.1.66,1.82,1.82,0,0,1-.28.56,1.77,1.77,0,0,1-.45.42,2.14,2.14,0,0,1-.62.27v0a2.06,2.06,0,0,1,1.33.74,2.21,2.21,0,0,1,.45,1.39,2.41,2.41,0,0,1-.84,1.91,2.78,2.78,0,0,1-1,.55,3.78,3.78,0,0,1-1.21.18,3.66,3.66,0,0,1-1.12-.17,2.8,2.8,0,0,1-.92-.49,2.34,2.34,0,0,1-.63-.78,2.28,2.28,0,0,1-.23-1v-.18H77v.16a1.74,1.74,0,0,0,.56,1.28,2,2,0,0,0,.66.4,2.45,2.45,0,0,0,.88.15,2.7,2.7,0,0,0,.91-.13,2.21,2.21,0,0,0,.69-.4,1.7,1.7,0,0,0,.64-1.38,1.89,1.89,0,0,0-.14-.75,1.64,1.64,0,0,0-.42-.58,2.22,2.22,0,0,0-1.53-.5h-.64v-.66h.69a1.86,1.86,0,0,0,1.21-.42,1.42,1.42,0,0,0,.52-1.15,1.59,1.59,0,0,0-.15-.71,1.48,1.48,0,0,0-.4-.51,1.73,1.73,0,0,0-.6-.31,2.56,2.56,0,0,0-.73-.1,2.1,2.1,0,0,0-.81.15,1.8,1.8,0,0,0-.61.41,1.82,1.82,0,0,0-.39.6,2,2,0,0,0-.13.73h-.78a2.44,2.44,0,0,1,.18-.92,2.53,2.53,0,0,1,.53-.82,2.7,2.7,0,0,1,.86-.59A2.82,2.82,0,0,1,79.14,117.49Z"/><path class="cls-4" d="M41.64,152.93a4.7,4.7,0,0,1-1.1,3.2,3.68,3.68,0,0,1-2.94,1.27,3.72,3.72,0,0,1-2.95-1.25,5.26,5.26,0,0,1,0-6.43,3.72,3.72,0,0,1,2.95-1.25,4.81,4.81,0,0,1,.77.06,4,4,0,0,1,.74.19,3.72,3.72,0,0,1,.69.34,3.43,3.43,0,0,1,.61.49,3.49,3.49,0,0,1,.55.71,4.58,4.58,0,0,1,.38.83,5.41,5.41,0,0,1,.22.91A6.57,6.57,0,0,1,41.64,152.93Zm-.81,0a4.21,4.21,0,0,0-.85-2.69,2.86,2.86,0,0,0-2.38-1.08,2.89,2.89,0,0,0-2.36,1.05,4.15,4.15,0,0,0-.86,2.71,4.22,4.22,0,0,0,.85,2.7,3.16,3.16,0,0,0,4.74,0A4.21,4.21,0,0,0,40.83,152.93Z"/><path class="cls-4" d="M49.37,153.93a4.77,4.77,0,0,1-.17,1.28,3.38,3.38,0,0,1-.53,1.11,2.69,2.69,0,0,1-.92.79,2.8,2.8,0,0,1-1.33.3,2.9,2.9,0,0,1-.72-.09A2.59,2.59,0,0,1,45,157a2.34,2.34,0,0,1-.55-.45,2.18,2.18,0,0,1-.4-.63h0v1.25h-.74v-9.08h.8v3.77h0a2,2,0,0,1,.36-.61,2.25,2.25,0,0,1,.54-.45,2.5,2.5,0,0,1,.66-.28,3,3,0,0,1,2,.18,2.62,2.62,0,0,1,.91.75,3.34,3.34,0,0,1,.55,1.1A5,5,0,0,1,49.37,153.93Zm-.8,0a4.39,4.39,0,0,0,0-.65,3.54,3.54,0,0,0-.16-.64,2.89,2.89,0,0,0-.28-.59,2.08,2.08,0,0,0-.41-.48,1.83,1.83,0,0,0-.55-.32,2,2,0,0,0-.71-.12,2.05,2.05,0,0,0-1.73.85,2.72,2.72,0,0,0-.42.89,3.94,3.94,0,0,0-.14,1.06,4.21,4.21,0,0,0,.13,1,2.67,2.67,0,0,0,.4.9,2.08,2.08,0,0,0,.71.63,2.18,2.18,0,0,0,1.06.24,1.88,1.88,0,0,0,1-.23,2,2,0,0,0,.66-.63,2.9,2.9,0,0,0,.38-.89A4.91,4.91,0,0,0,48.56,153.93Z"/><path class="cls-4" d="M52.09,157.87a2.15,2.15,0,0,1-.34,1.32,1.29,1.29,0,0,1-1.1.44h-.3l-.31,0V159h.38a.84.84,0,0,0,.67-.21,1,1,0,0,0,.2-.7v-7.41h.8Zm-.8-8.81v-1.29h.8v1.29Z"/><path class="cls-4" d="M56.87,150.46a2.71,2.71,0,0,1,1.3.29,2.6,2.6,0,0,1,.9.79,3.45,3.45,0,0,1,.52,1.13,5.21,5.21,0,0,1,.17,1.34v.13H54.71a3.58,3.58,0,0,0,.13.94,2.59,2.59,0,0,0,.39.83,2,2,0,0,0,.66.59,1.92,1.92,0,0,0,.95.22,2.44,2.44,0,0,0,.7-.09,2,2,0,0,0,.56-.26,1.76,1.76,0,0,0,.42-.39,2.41,2.41,0,0,0,.29-.49h.79a3,3,0,0,1-.38.79,2.48,2.48,0,0,1-.59.6,2.68,2.68,0,0,1-.79.39,3.34,3.34,0,0,1-1,.14,2.94,2.94,0,0,1-1.3-.27,2.56,2.56,0,0,1-.91-.73,3.12,3.12,0,0,1-.54-1.1,5.14,5.14,0,0,1-.18-1.37,4.66,4.66,0,0,1,.18-1.28,3.36,3.36,0,0,1,.54-1.11,2.74,2.74,0,0,1,.92-.78A2.79,2.79,0,0,1,56.87,150.46Zm2.09,3a3,3,0,0,0-.16-.85,2.44,2.44,0,0,0-.41-.75,2.07,2.07,0,0,0-.65-.54,1.84,1.84,0,0,0-.88-.21,1.84,1.84,0,0,0-1.5.7,2.7,2.7,0,0,0-.42.75,4.31,4.31,0,0,0-.23.9Z"/><path class="cls-4" d="M64.14,150.46a3.46,3.46,0,0,1,1,.13,2.53,2.53,0,0,1,.78.38,2,2,0,0,1,.56.61,2.31,2.31,0,0,1,.29.82h-.8a1.73,1.73,0,0,0-.22-.52,1.5,1.5,0,0,0-.37-.4,1.7,1.7,0,0,0-.53-.26,2.34,2.34,0,0,0-.68-.09,2,2,0,0,0-1,.23,2.19,2.19,0,0,0-.72.63,2.91,2.91,0,0,0-.44.9,3.58,3.58,0,0,0-.15,1,3.67,3.67,0,0,0,.14,1,2.88,2.88,0,0,0,.42.9,2.26,2.26,0,0,0,.71.65,2,2,0,0,0,1,.25,1.93,1.93,0,0,0,.71-.13,1.88,1.88,0,0,0,.56-.34,1.79,1.79,0,0,0,.39-.49,1.87,1.87,0,0,0,.21-.58h.8a3,3,0,0,1-.29.85,2.49,2.49,0,0,1-.55.7,2.54,2.54,0,0,1-.8.48,2.88,2.88,0,0,1-1,.18,3,3,0,0,1-1.29-.27,2.85,2.85,0,0,1-1-.74,3.28,3.28,0,0,1-.61-1.1,4.47,4.47,0,0,1,0-2.67,3.31,3.31,0,0,1,.59-1.11,2.9,2.9,0,0,1,1-.77A3,3,0,0,1,64.14,150.46Z"/><path class="cls-4" d="M71.22,157.27h-.66a3,3,0,0,1-.68-.06,1,1,0,0,1-.45-.23.89.89,0,0,1-.25-.43,2.65,2.65,0,0,1-.07-.68v-4.56H67.79v-.67h1.32v-2h.8v2h1.5v.67h-1.5v4.48a1.76,1.76,0,0,0,0,.34.64.64,0,0,0,.11.25.5.5,0,0,0,.21.16.87.87,0,0,0,.35.06h.6l.21,0v.68Z"/><path class="cls-4" d="M80.88,155.06v2.15h-.71v-2.15h-4v-.75l4-5.75h.7v5.85h1.3v.66Zm-.71-5.36h0l-3.27,4.71h3.29Z"/><path class="cls-4" d="M481.64,60.8a4.7,4.7,0,0,1-1.1,3.2,3.68,3.68,0,0,1-2.94,1.27A3.72,3.72,0,0,1,474.66,64a5.26,5.26,0,0,1,0-6.43,3.72,3.72,0,0,1,2.95-1.25,4.81,4.81,0,0,1,.77.06,4,4,0,0,1,.74.19,3.72,3.72,0,0,1,.69.34,3.43,3.43,0,0,1,.61.49,3.49,3.49,0,0,1,.55.71,4.58,4.58,0,0,1,.38.83,5.41,5.41,0,0,1,.22.91A6.57,6.57,0,0,1,481.64,60.8Zm-.81,0a4.21,4.21,0,0,0-.85-2.69A2.86,2.86,0,0,0,477.6,57a2.89,2.89,0,0,0-2.36,1.05,4.15,4.15,0,0,0-.86,2.71,4.22,4.22,0,0,0,.85,2.7,3.16,3.16,0,0,0,4.74,0A4.21,4.21,0,0,0,480.83,60.8Z"/><path class="cls-4" d="M484.22,56.52l5,7.25h0V56.52h.81v8.57h-.91l-5-7.25h0v7.25h-.82V56.52Z"/><path class="cls-4" d="M481.64,91.8a4.7,4.7,0,0,1-1.1,3.2,3.68,3.68,0,0,1-2.94,1.27A3.72,3.72,0,0,1,474.66,95a5.26,5.26,0,0,1,0-6.43,3.72,3.72,0,0,1,2.95-1.25,4.81,4.81,0,0,1,.77.06,4,4,0,0,1,.74.19,3.72,3.72,0,0,1,.69.34,3.43,3.43,0,0,1,.61.49,3.49,3.49,0,0,1,.55.71,4.58,4.58,0,0,1,.38.83,5.41,5.41,0,0,1,.22.91A6.57,6.57,0,0,1,481.64,91.8Zm-.81,0a4.21,4.21,0,0,0-.85-2.69A2.86,2.86,0,0,0,477.6,88a2.89,2.89,0,0,0-2.36,1.05,4.15,4.15,0,0,0-.86,2.71,4.22,4.22,0,0,0,.85,2.7,3.16,3.16,0,0,0,4.74,0A4.21,4.21,0,0,0,480.83,91.8Z"/><path class="cls-4" d="M484.22,87.52l5,7.25h0V87.52h.81v8.57h-.91l-5-7.25h0v7.25h-.82V87.52Z"/><path class="cls-4" d="M481.64,122.8a4.7,4.7,0,0,1-1.1,3.2,3.68,3.68,0,0,1-2.94,1.27,3.72,3.72,0,0,1-2.95-1.25,5.26,5.26,0,0,1,0-6.43,3.72,3.72,0,0,1,2.95-1.25,4.81,4.81,0,0,1,.77.06,4,4,0,0,1,.74.19,3.72,3.72,0,0,1,.69.34,3.43,3.43,0,0,1,.61.49,3.49,3.49,0,0,1,.55.71,4.58,4.58,0,0,1,.38.83,5.41,5.41,0,0,1,.22.91A6.57,6.57,0,0,1,481.64,122.8Zm-.81,0a4.21,4.21,0,0,0-.85-2.69A2.86,2.86,0,0,0,477.6,119a2.89,2.89,0,0,0-2.36,1.05,4.15,4.15,0,0,0-.86,2.71,4.22,4.22,0,0,0,.85,2.7,3.16,3.16,0,0,0,4.74,0A4.21,4.21,0,0,0,480.83,122.8Z"/><path class="cls-4" d="M488.77,118.52v.7h-4.62v3.09h4.1v.7h-4.1v4.08h-.82v-8.57Z"/><path class="cls-4" d="M495.58,118.52v.7H491v3.09h4.1v.7H491v4.08h-.82v-8.57Z"/><path class="cls-4" d="M474.1,149.52,476,157h0l2.09-7.5h1l2.1,7.5h0l2-7.5h.81l-2.36,8.57h-.87l-2.17-7.67h0l-2.16,7.67h-.88l-2.38-8.57Z"/><path class="cls-4" d="M490.88,158l-.27,0h-.24a1.38,1.38,0,0,1-.44-.06.65.65,0,0,1-.29-.2.82.82,0,0,1-.16-.35,2.44,2.44,0,0,1,0-.53h0a3,3,0,0,1-1,1,2.79,2.79,0,0,1-1.35.29,2.46,2.46,0,0,1-1.6-.5,1.75,1.75,0,0,1-.6-1.43,1.66,1.66,0,0,1,.66-1.43,6.79,6.79,0,0,1,3-.69,2,2,0,0,0,.44-.08.75.75,0,0,0,.29-.16.6.6,0,0,0,.16-.26,1.28,1.28,0,0,0,.05-.38,1.24,1.24,0,0,0-.4-1,2,2,0,0,0-1.31-.34,2.61,2.61,0,0,0-.72.09,1.65,1.65,0,0,0-.53.25,1.13,1.13,0,0,0-.33.39,1.23,1.23,0,0,0-.13.49h-.8a2,2,0,0,1,.22-.78,1.78,1.78,0,0,1,.51-.59,2.42,2.42,0,0,1,.8-.38,4,4,0,0,1,1.09-.13,2.64,2.64,0,0,1,1.83.54,2,2,0,0,1,.59,1.52V157a.47.47,0,0,0,.11.33.46.46,0,0,0,.36.12.7.7,0,0,0,.25,0Zm-1.52-3.54h0q-.12.22-.77.31l-.67.1-.73.12a2.67,2.67,0,0,0-1.17.44,1,1,0,0,0-.39.84,1.16,1.16,0,0,0,.43.94,1.6,1.6,0,0,0,1,.35,2.36,2.36,0,0,0,1.63-.58,1.85,1.85,0,0,0,.65-1.44Z"/><path class="cls-4" d="M493.14,148.65v1.29h-.8v-1.29Zm0,2.87v6.56h-.8v-6.56Z"/><path class="cls-4" d="M498,158.15h-.66a3,3,0,0,1-.68-.06,1,1,0,0,1-.45-.23.89.89,0,0,1-.25-.43,2.65,2.65,0,0,1-.07-.68V152.2h-1.32v-.67h1.32v-2h.8v2h1.5v.67h-1.5v4.48a1.76,1.76,0,0,0,0,.34.64.64,0,0,0,.11.25.5.5,0,0,0,.21.16.87.87,0,0,0,.35.06h.6l.21,0v.68Z"/><path class="cls-4" d="M500.77,148.65v1.29H500v-1.29Zm0,2.87v6.56H500v-6.56Z"/><path class="cls-4" d="M505.9,151.34a3.35,3.35,0,0,1,1.08.16,1.83,1.83,0,0,1,.74.46,1.87,1.87,0,0,1,.43.77,3.79,3.79,0,0,1,.14,1.08v4.28h-.8v-4.15a2.2,2.2,0,0,0-.41-1.44,1.54,1.54,0,0,0-1.25-.49,2.07,2.07,0,0,0-.86.17,1.88,1.88,0,0,0-.65.48,2.16,2.16,0,0,0-.41.71,2.63,2.63,0,0,0-.14.88v3.84H503v-6.56h.8v1.14h0a2,2,0,0,1,.35-.56,2.18,2.18,0,0,1,.49-.42,2.32,2.32,0,0,1,.6-.26A2.49,2.49,0,0,1,505.9,151.34Z"/><path class="cls-4" d="M513,151.34a2.29,2.29,0,0,1,.64.09,2.32,2.32,0,0,1,1.08.68,2.26,2.26,0,0,1,.37.56h0v-1.14h.8v6.1a3.27,3.27,0,0,1-.73,2.3,2.88,2.88,0,0,1-2.21.79,4.54,4.54,0,0,1-.93-.09,2.71,2.71,0,0,1-.81-.3,1.88,1.88,0,0,1-.6-.55,1.68,1.68,0,0,1-.28-.82h.8a1.24,1.24,0,0,0,.56.81A2.34,2.34,0,0,0,513,160a2,2,0,0,0,1.61-.61,2.66,2.66,0,0,0,.54-1.81v-1.18h0a2.53,2.53,0,0,1-.37.57,2.28,2.28,0,0,1-.5.43,2.34,2.34,0,0,1-.6.27,2.4,2.4,0,0,1-.67.09,3.16,3.16,0,0,1-1.28-.24,2.44,2.44,0,0,1-.91-.67,2.85,2.85,0,0,1-.54-1,4.64,4.64,0,0,1-.18-1.31,4,4,0,0,1,.19-1.22,3,3,0,0,1,.56-1,2.74,2.74,0,0,1,.93-.7A3,3,0,0,1,513,151.34Zm-2.16,3.29a3.49,3.49,0,0,0,.12,1,2.29,2.29,0,0,0,.38.8,1.88,1.88,0,0,0,.67.54,2.13,2.13,0,0,0,1,.2,1.9,1.9,0,0,0,.91-.21,2.1,2.1,0,0,0,.67-.56,2.53,2.53,0,0,0,.42-.8,3,3,0,0,0,.14-.93,3.72,3.72,0,0,0-.12-.93,2.66,2.66,0,0,0-.37-.84,2,2,0,0,0-.66-.61,1.87,1.87,0,0,0-1-.24,2,2,0,0,0-1,.22,2,2,0,0,0-.66.59,2.55,2.55,0,0,0-.39.84A3.87,3.87,0,0,0,510.88,154.63Z"/><circle class="cls-1" cx="459" cy="61" r="6"/><circle class="cls-1" cx="459" cy="123" r="5.5"/><path class="cls-8" d="M459,118a5,5,0,1,1-5,5,5,5,0,0,1,5-5m0-1a6,6,0,1,0,6,6,6,6,0,0,0-6-6Z"/><circle class="cls-1" cx="459" cy="123" r="4"/><circle class="cls-3" cx="459" cy="123" r="5"/><circle class="cls-9" cx="459" cy="61" r="5"/><circle class="cls-1" cx="459" cy="92" r="6"/><circle class="cls-9" cx="459" cy="92" r="5"/><circle class="cls-1" cx="459" cy="154" r="6"/><circle class="cls-1" cx="459" cy="154" r="4"/><circle class="cls-10" cx="459" cy="154" r="5"/></g></svg>