<svg xmlns="http://www.w3.org/2000/svg" viewBox="0 0 558 187"><defs><style>.cls-1,.cls-4{fill:#fff;}.cls-2{opacity:0.04;}.cls-3{fill:#dcdcdc;}.cls-4{opacity:0.6;}.cls-5{fill:#d2d2d2;}.cls-6{fill:#464646;}.cls-7{fill:none;stroke:#c8c8c8;stroke-miterlimit:10;}</style></defs><title>Artboard 15</title><g id="Bg"><rect class="cls-1" x="-799" y="-1657" width="6000" height="2500"/></g><g id="Tabeller"><rect class="cls-2" x="238.5" y="136.5" width="100" height="31"/><path class="cls-3" d="M338,137v30H239V137h99m1-1H238v32H339V136Z"/><rect class="cls-2" x="338.5" y="136.5" width="100" height="31"/><path class="cls-3" d="M438,137v30H339V137h99m1-1H338v32H439V136Z"/><rect class="cls-2" x="438.5" y="136.5" width="100" height="31"/><path class="cls-3" d="M538,137v30H439V137h99m1-1H438v32H539V136Z"/><rect class="cls-4" x="138.5" y="43.5" width="100" height="31"/><path class="cls-5" d="M238,44V74H139V44h99m1-1H138V75H239V43Z"/><rect class="cls-4" x="138.5" y="74.5" width="100" height="31"/><path class="cls-5" d="M238,75v30H139V75h99m1-1H138v32H239V74Z"/><rect class="cls-4" x="138.5" y="105.5" width="100" height="31"/><path class="cls-5" d="M238,106v30H139V106h99m1-1H138v32H239V105Z"/><path class="cls-6" d="M153.28,55.13v1.27H149v2.38h3.77V60H149v3.73h-1.5V55.13Z"/><path class="cls-6" d="M156.09,55.13v7.3h4.4v1.27h-5.9V55.13Z"/><path class="cls-6" d="M168.61,57.45a2.29,2.29,0,0,1-.5,1.54,1.79,1.79,0,0,1-.42.37,2.48,2.48,0,0,1-.55.25v0a1.71,1.71,0,0,1,.59.25,1.41,1.41,0,0,1,.4.42,1.94,1.94,0,0,1,.25.62,5.13,5.13,0,0,1,.1.69q0,.36,0,.73a4.78,4.78,0,0,0,.09.74,1.65,1.65,0,0,0,.24.62h-1.53a4.38,4.38,0,0,1-.22-1.34,3.2,3.2,0,0,0-.45-1.76,1.35,1.35,0,0,0-1.06-.4h-2.39v3.51h-1.5V55.13h4.42a2.56,2.56,0,0,1,1.78.64A2.16,2.16,0,0,1,168.61,57.45Zm-1.5.24a1.31,1.31,0,0,0-.38-1,1.56,1.56,0,0,0-1.07-.34h-2.46v2.75h2.46a1.52,1.52,0,0,0,1-.33A1.3,1.3,0,0,0,167.11,57.69Z"/><path class="cls-6" d="M154.07,88.45a2.29,2.29,0,0,1-.5,1.54,1.79,1.79,0,0,1-.42.37,2.48,2.48,0,0,1-.55.25v0a1.71,1.71,0,0,1,.59.25,1.41,1.41,0,0,1,.4.42,1.94,1.94,0,0,1,.25.62,5.13,5.13,0,0,1,.1.69q0,.36,0,.73a4.78,4.78,0,0,0,.09.74,1.65,1.65,0,0,0,.24.62h-1.53a4.38,4.38,0,0,1-.22-1.34,3.2,3.2,0,0,0-.45-1.76,1.35,1.35,0,0,0-1.06-.4h-2.39v3.51h-1.5V86.13h4.42a2.56,2.56,0,0,1,1.78.64A2.16,2.16,0,0,1,154.07,88.45Zm-1.5.24a1.31,1.31,0,0,0-.38-1,1.56,1.56,0,0,0-1.07-.34h-2.46v2.75h2.46a1.52,1.52,0,0,0,1-.33A1.3,1.3,0,0,0,152.57,88.69Z"/><path class="cls-6" d="M158.6,86a3,3,0,0,1,2,.7,2.22,2.22,0,0,1,.6.83,2.77,2.77,0,0,1,.19,1.06A2.82,2.82,0,0,1,161,90.1a5.83,5.83,0,0,1-1.78,1.54q-.5.3-.85.57a6.91,6.91,0,0,0-.58.47,2.8,2.8,0,0,0-.62.81h4.33v1.21h-6.08a3.35,3.35,0,0,1,.39-1.59,3.73,3.73,0,0,1,.51-.69,5.59,5.59,0,0,1,.74-.66L158,91l1.12-.83a2.7,2.7,0,0,0,.71-.75,1.61,1.61,0,0,0,.23-.83,1.68,1.68,0,0,0-.1-.59,1.33,1.33,0,0,0-.31-.48,1.44,1.44,0,0,0-.47-.3,1.77,1.77,0,0,0-1.31,0,1.46,1.46,0,0,0-.5.38,1.58,1.58,0,0,0-.29.53,2,2,0,0,0-.1.61V89h-1.34v-.15a3.14,3.14,0,0,1,.21-1.15,2.54,2.54,0,0,1,.59-.9,2.71,2.71,0,0,1,.94-.59A3.45,3.45,0,0,1,158.6,86Z"/><path class="cls-6" d="M165.87,86a3,3,0,0,1,2,.7,2.22,2.22,0,0,1,.6.83,2.77,2.77,0,0,1,.19,1.06,2.82,2.82,0,0,1-.46,1.55,5.83,5.83,0,0,1-1.78,1.54q-.5.3-.85.57a6.91,6.91,0,0,0-.58.47,2.8,2.8,0,0,0-.62.81h4.33v1.21h-6.08a3.35,3.35,0,0,1,.39-1.59,3.73,3.73,0,0,1,.51-.69,5.59,5.59,0,0,1,.74-.66l.95-.71,1.12-.83a2.7,2.7,0,0,0,.71-.75,1.61,1.61,0,0,0,.23-.83,1.68,1.68,0,0,0-.1-.59,1.33,1.33,0,0,0-.31-.48,1.44,1.44,0,0,0-.47-.3,1.77,1.77,0,0,0-1.31,0,1.46,1.46,0,0,0-.5.38,1.58,1.58,0,0,0-.29.53,2,2,0,0,0-.1.61V89h-1.34v-.15a3.14,3.14,0,0,1,.21-1.15,2.54,2.54,0,0,1,.59-.9,2.71,2.71,0,0,1,.94-.59A3.45,3.45,0,0,1,165.87,86Z"/><path class="cls-6" d="M154.19,119.45a2.29,2.29,0,0,1-.5,1.54,1.79,1.79,0,0,1-.42.37,2.48,2.48,0,0,1-.55.25v0a1.71,1.71,0,0,1,.59.25,1.41,1.41,0,0,1,.4.42,1.94,1.94,0,0,1,.25.62,5.13,5.13,0,0,1,.1.69q0,.36,0,.73a4.78,4.78,0,0,0,.09.74,1.65,1.65,0,0,0,.24.62H152.9a4.38,4.38,0,0,1-.22-1.34,3.2,3.2,0,0,0-.45-1.76,1.35,1.35,0,0,0-1.06-.4h-2.39v3.51h-1.5v-8.57h4.42a2.56,2.56,0,0,1,1.78.64A2.16,2.16,0,0,1,154.19,119.45Zm-1.5.24a1.31,1.31,0,0,0-.38-1,1.56,1.56,0,0,0-1.07-.34h-2.46v2.75h2.46a1.52,1.52,0,0,0,1-.33A1.3,1.3,0,0,0,152.69,119.69Z"/><path class="cls-6" d="M162,117.13v1.27h-2.72v7.3h-1.49v-7.3h-2.72v-1.27Z"/><path class="cls-6" d="M165.55,125.69v-5.87h-2.2v-1a6,6,0,0,0,.9-.07,2.36,2.36,0,0,0,.63-.18,1.57,1.57,0,0,0,.64-.55,2.21,2.21,0,0,0,.31-.89h1.11v8.6Z"/><path class="cls-6" d="M148.24,27.93V34h3.67v1.05H147V27.93Z"/><path class="cls-6" d="M159.33,31.52a3.85,3.85,0,0,1-.95,2.66,3.21,3.21,0,0,1-2.51,1.05,3.63,3.63,0,0,1-1.36-.24,3.2,3.2,0,0,1-1.1-.75,3.36,3.36,0,0,1-.75-1.22,4.45,4.45,0,0,1-.25-1.51,3.9,3.9,0,0,1,.95-2.7,3.21,3.21,0,0,1,2.51-1.05,3.68,3.68,0,0,1,1.37.25,3,3,0,0,1,1.1.76,3.35,3.35,0,0,1,.74,1.23A4.76,4.76,0,0,1,159.33,31.52Zm-1.25,0a3.07,3.07,0,0,0-.59-2,2.14,2.14,0,0,0-3.25,0,3.08,3.08,0,0,0-.58,2,3,3,0,0,0,.58,1.91,2.16,2.16,0,0,0,3.26,0A3,3,0,0,0,158.07,31.52Z"/><path class="cls-6" d="M163.81,27.78a3.75,3.75,0,0,1,1.1.15,2.86,2.86,0,0,1,.89.44,2.44,2.44,0,0,1,.64.71,2.66,2.66,0,0,1,.34.95h-1.22a1.57,1.57,0,0,0-.21-.47,1.51,1.51,0,0,0-.37-.38,1.84,1.84,0,0,0-.52-.26,2.12,2.12,0,0,0-.65-.1,2,2,0,0,0-1.68.82,2.6,2.6,0,0,0-.42.86,3.75,3.75,0,0,0-.14,1,3.71,3.71,0,0,0,.13,1,2.56,2.56,0,0,0,.4.85,2,2,0,0,0,1.7.83,2,2,0,0,0,.71-.12,1.66,1.66,0,0,0,.92-.84,2.23,2.23,0,0,0,.2-.65h1.22a3.51,3.51,0,0,1-.29,1.05A2.66,2.66,0,0,1,165,35a3.45,3.45,0,0,1-1.24.21,3.55,3.55,0,0,1-1.43-.28,3.21,3.21,0,0,1-1.1-.78,3.44,3.44,0,0,1-.7-1.17,4.35,4.35,0,0,1-.24-1.48,4.43,4.43,0,0,1,.23-1.43,3.56,3.56,0,0,1,.67-1.19,3.19,3.19,0,0,1,1.09-.82A3.48,3.48,0,0,1,163.81,27.78Z"/><path class="cls-6" d="M172.75,35.07l-.62-1.82h-3l-.62,1.82h-1.27l2.57-7.13h1.69l2.52,7.13Zm-2.07-6.21h0l-1.17,3.44h2.33Z"/><path class="cls-6" d="M179.45,27.93V29h-2.27v6.08h-1.25V29h-2.27V27.93Z"/><path class="cls-6" d="M181.72,27.93v7.14h-1.25V27.93Z"/><path class="cls-6" d="M190,31.52a3.85,3.85,0,0,1-.95,2.66,3.21,3.21,0,0,1-2.51,1.05,3.63,3.63,0,0,1-1.37-.24,3.2,3.2,0,0,1-1.1-.75,3.36,3.36,0,0,1-.75-1.22,4.45,4.45,0,0,1-.25-1.51,3.9,3.9,0,0,1,.95-2.7,3.21,3.21,0,0,1,2.51-1.05,3.68,3.68,0,0,1,1.37.25,3,3,0,0,1,1.1.76,3.35,3.35,0,0,1,.74,1.23A4.76,4.76,0,0,1,190,31.52Zm-1.25,0a3.07,3.07,0,0,0-.59-2,2.14,2.14,0,0,0-3.25,0,3.08,3.08,0,0,0-.58,2,3,3,0,0,0,.58,1.91,2.16,2.16,0,0,0,3.26,0A3,3,0,0,0,188.78,31.52Z"/><path class="cls-6" d="M192.68,27.93l3.4,5.3h0v-5.3h1.19v7.14H196l-3.4-5.3h0v5.3H191.4V27.93Z"/><rect class="cls-4" x="19.5" y="43.5" width="119" height="31"/><path class="cls-5" d="M138,44V74H20V44H138m1-1H19V75H139V43Z"/><rect class="cls-4" x="19.5" y="74.5" width="119" height="31"/><path class="cls-5" d="M138,75v30H20V75H138m1-1H19v32H139V74Z"/><rect class="cls-4" x="19.5" y="105.5" width="119" height="31"/><path class="cls-5" d="M138,106v30H20V106H138m1-1H19v32H139V105Z"/><path class="cls-6" d="M28.54,27.93l1.3,5.58h0l1.43-5.58h1.25l1.41,5.62h0l1.34-5.62h1.23L34.6,35.07H33.34l-1.43-5.63h0l-1.41,5.63H29.19l-1.92-7.14Z"/><path class="cls-6" d="M41.92,35.07l-.62-1.82h-3l-.62,1.82H36.45L39,27.94h1.69l2.52,7.13Zm-2.07-6.21h0L38.66,32.3H41Z"/><path class="cls-6" d="M50,29.86a1.91,1.91,0,0,1-.42,1.28,1.5,1.5,0,0,1-.35.31,2.07,2.07,0,0,1-.46.21v0a1.44,1.44,0,0,1,.49.21,1.18,1.18,0,0,1,.33.35,1.62,1.62,0,0,1,.21.52,4.26,4.26,0,0,1,.08.57q0,.3,0,.61a4,4,0,0,0,.08.62,1.36,1.36,0,0,0,.2.52H48.91A3.63,3.63,0,0,1,48.73,34a2.68,2.68,0,0,0-.38-1.47,1.13,1.13,0,0,0-.88-.34h-2v2.92H44.22V27.93H47.9a2.13,2.13,0,0,1,1.48.53A1.8,1.8,0,0,1,50,29.86Zm-1.25.2a1.09,1.09,0,0,0-.32-.86,1.29,1.29,0,0,0-.89-.28H45.47v2.29h2.05a1.27,1.27,0,0,0,.85-.27A1.08,1.08,0,0,0,48.73,30.06Z"/><path class="cls-6" d="M56.74,27.94V29H52.81v1.9h3.64v1H52.81V34h4v1H51.56V27.94Z"/><path class="cls-6" d="M59.38,27.94v2.87h3.37V27.94H64v7.13H62.76V31.86H59.38v3.21H58.13V27.94Z"/><path class="cls-6" d="M72.29,31.52a3.85,3.85,0,0,1-.95,2.66,3.21,3.21,0,0,1-2.51,1.05A3.63,3.63,0,0,1,67.47,35a3.2,3.2,0,0,1-1.1-.75A3.36,3.36,0,0,1,65.62,33a4.45,4.45,0,0,1-.25-1.51,3.9,3.9,0,0,1,.95-2.7,3.21,3.21,0,0,1,2.51-1.05A3.68,3.68,0,0,1,70.2,28a3,3,0,0,1,1.1.76A3.35,3.35,0,0,1,72,30,4.76,4.76,0,0,1,72.29,31.52Zm-1.25,0a3.07,3.07,0,0,0-.59-2,2.14,2.14,0,0,0-3.25,0,3.08,3.08,0,0,0-.58,2,3,3,0,0,0,.58,1.91,2.16,2.16,0,0,0,3.26,0A3,3,0,0,0,71,31.52Z"/><path class="cls-6" d="M74.84,27.93v4.48a1.89,1.89,0,0,0,.41,1.33,1.69,1.69,0,0,0,1.29.44,1.73,1.73,0,0,0,1.29-.43,1.86,1.86,0,0,0,.41-1.34V27.93h1.25v4.53a2.74,2.74,0,0,1-.75,2,3,3,0,0,1-2.2.75A4,4,0,0,1,75.27,35a2.33,2.33,0,0,1-1.5-1.46,3.37,3.37,0,0,1-.18-1.13V27.93Z"/><path class="cls-6" d="M86.54,33a2,2,0,0,1-.24,1,2,2,0,0,1-.65.68,2.94,2.94,0,0,1-.94.39,4.91,4.91,0,0,1-1.12.12,4.28,4.28,0,0,1-1.14-.14,2.83,2.83,0,0,1-.92-.43,2.07,2.07,0,0,1-.62-.7,2,2,0,0,1-.22-1v-.08h1.23v0a1.12,1.12,0,0,0,.14.56,1.17,1.17,0,0,0,.38.4,1.75,1.75,0,0,0,.56.24,3,3,0,0,0,1.32,0,1.73,1.73,0,0,0,.52-.21,1.09,1.09,0,0,0,.35-.34.89.89,0,0,0,.13-.48.77.77,0,0,0-.31-.63,2.72,2.72,0,0,0-1-.42l-1.53-.41a2.36,2.36,0,0,1-1.2-.65,1.67,1.67,0,0,1-.39-1.16,1.86,1.86,0,0,1,.21-.91,2,2,0,0,1,.58-.66,2.71,2.71,0,0,1,.86-.4,4,4,0,0,1,2,0,2.68,2.68,0,0,1,.85.38,1.93,1.93,0,0,1,.59.64,1.88,1.88,0,0,1,.23.91H85.06a1,1,0,0,0-.13-.43,1.06,1.06,0,0,0-.31-.34,1.5,1.5,0,0,0-.46-.22,2.06,2.06,0,0,0-.59-.08,2.41,2.41,0,0,0-.55.06,1.48,1.48,0,0,0-.46.19,1,1,0,0,0-.31.32.88.88,0,0,0-.11.46.82.82,0,0,0,.06.33.65.65,0,0,0,.17.23.9.9,0,0,0,.26.16l.34.11,1.68.45a3.06,3.06,0,0,1,1.42.72A1.69,1.69,0,0,1,86.54,33Z"/><path class="cls-6" d="M93.05,27.94V29H89.12v1.9h3.64v1H89.12V34h4v1H87.87V27.94Z"/><rect class="cls-4" x="238.5" y="43.5" width="100" height="31"/><path class="cls-5" d="M338,44V74H239V44h99m1-1H238V75H339V43Z"/><rect class="cls-4" x="238.5" y="74.5" width="100" height="31"/><path class="cls-5" d="M338,75v30H239V75h99m1-1H238v32H339V74Z"/><rect class="cls-4" x="238.5" y="105.5" width="100" height="31"/><path class="cls-5" d="M338,106v30H239V106h99m1-1H238v32H339V105Z"/><rect class="cls-4" x="338.5" y="43.5" width="100" height="31"/><path class="cls-5" d="M438,44V74H339V44h99m1-1H338V75H439V43Z"/><rect class="cls-4" x="338.5" y="74.5" width="100" height="31"/><path class="cls-5" d="M438,75v30H339V75h99m1-1H338v32H439V74Z"/><rect class="cls-4" x="338.5" y="105.5" width="100" height="31"/><path class="cls-5" d="M438,106v30H339V106h99m1-1H338v32H439V105Z"/><path class="cls-6" d="M251.71,29.86a1.91,1.91,0,0,1-.42,1.28,1.48,1.48,0,0,1-.35.31,2.06,2.06,0,0,1-.46.21v0a1.44,1.44,0,0,1,.49.21,1.18,1.18,0,0,1,.33.35,1.61,1.61,0,0,1,.21.52,4.26,4.26,0,0,1,.08.57q0,.3,0,.61a4,4,0,0,0,.08.62,1.38,1.38,0,0,0,.2.52h-1.27a3.65,3.65,0,0,1-.19-1.12,2.67,2.67,0,0,0-.38-1.47,1.13,1.13,0,0,0-.88-.34h-2v2.92h-1.25V27.93h3.68a2.13,2.13,0,0,1,1.48.53A1.79,1.79,0,0,1,251.71,29.86Zm-1.25.2a1.09,1.09,0,0,0-.32-.86,1.29,1.29,0,0,0-.89-.28H247.2v2.29h2.05a1.27,1.27,0,0,0,.85-.27A1.08,1.08,0,0,0,250.46,30.06Z"/><path class="cls-6" d="M259.76,31.52a3.85,3.85,0,0,1-.95,2.66,3.21,3.21,0,0,1-2.51,1.05,3.63,3.63,0,0,1-1.36-.24,3.2,3.2,0,0,1-1.1-.75,3.36,3.36,0,0,1-.75-1.22,4.45,4.45,0,0,1-.25-1.51,3.9,3.9,0,0,1,.95-2.7,3.21,3.21,0,0,1,2.51-1.05,3.68,3.68,0,0,1,1.37.25,3,3,0,0,1,1.1.76,3.35,3.35,0,0,1,.74,1.23A4.76,4.76,0,0,1,259.76,31.52Zm-1.25,0a3.07,3.07,0,0,0-.59-2,2.14,2.14,0,0,0-3.25,0,3.08,3.08,0,0,0-.58,2,3,3,0,0,0,.58,1.91,2.16,2.16,0,0,0,3.26,0A3,3,0,0,0,258.5,31.52Z"/><path class="cls-6" d="M262.38,27.93V34H266v1.05h-4.92V27.93Z"/><path class="cls-6" d="M268.34,27.93V34H272v1.05h-4.92V27.93Z"/><path class="cls-6" d="M278.55,33a2,2,0,0,1-.24,1,2,2,0,0,1-.65.68,2.94,2.94,0,0,1-.94.39,4.91,4.91,0,0,1-1.12.12,4.28,4.28,0,0,1-1.14-.14,2.83,2.83,0,0,1-.92-.43,2.08,2.08,0,0,1-.62-.7,2,2,0,0,1-.22-1v-.08h1.23v0a1.12,1.12,0,0,0,.14.56,1.18,1.18,0,0,0,.38.4,1.76,1.76,0,0,0,.56.24,3,3,0,0,0,1.32,0,1.72,1.72,0,0,0,.52-.21,1.09,1.09,0,0,0,.35-.34.89.89,0,0,0,.13-.48.77.77,0,0,0-.31-.63,2.72,2.72,0,0,0-1-.42l-1.53-.41a2.36,2.36,0,0,1-1.2-.65,1.68,1.68,0,0,1-.39-1.16,1.87,1.87,0,0,1,.21-.91,2,2,0,0,1,.58-.66,2.71,2.71,0,0,1,.86-.4,4,4,0,0,1,2,0,2.67,2.67,0,0,1,.85.38,1.93,1.93,0,0,1,.59.64,1.88,1.88,0,0,1,.23.91h-1.22a1,1,0,0,0-.13-.43,1.05,1.05,0,0,0-.3-.34,1.5,1.5,0,0,0-.46-.22,2.05,2.05,0,0,0-.59-.08,2.41,2.41,0,0,0-.55.06,1.48,1.48,0,0,0-.46.19,1,1,0,0,0-.31.32.88.88,0,0,0-.12.46.82.82,0,0,0,.06.33.66.66,0,0,0,.17.23.91.91,0,0,0,.26.16l.34.11,1.68.45a3.06,3.06,0,0,1,1.42.72A1.69,1.69,0,0,1,278.55,33Z"/><path class="cls-6" d="M347,27.93l3.4,5.3h0v-5.3h1.19v7.14h-1.27l-3.4-5.3h0v5.3H345.7V27.93Z"/><path class="cls-6" d="M358.52,27.94V29h-3.94v1.9h3.64v1h-3.64V34h4v1h-5.25V27.94Z"/><path class="cls-6" d="M365.12,27.93V29h-2.27v6.08h-1.25V29h-2.27V27.93Z"/><path class="cls-6" d="M368,31.68v1h-2.83v-1Z"/><path class="cls-6" d="M370.89,27.93l3.4,5.3h0v-5.3h1.19v7.14h-1.27l-3.4-5.3h0v5.3h-1.19V27.93Z"/><path class="cls-6" d="M382.44,27.94V29h-3.94v1.9h3.64v1h-3.64V34h4v1h-5.25V27.94Z"/><path class="cls-6" d="M389,27.93V29h-2.27v6.08h-1.25V29h-2.27V27.93Z"/><path class="cls-6" d="M448.79,27.76a3.65,3.65,0,0,1,1.07.15,2.94,2.94,0,0,1,.9.45,2.54,2.54,0,0,1,.66.72,2.71,2.71,0,0,1,.36,1h-1.21a1.55,1.55,0,0,0-.24-.53,1.59,1.59,0,0,0-.4-.39,1.74,1.74,0,0,0-.52-.24,2.26,2.26,0,0,0-.63-.08,2.11,2.11,0,0,0-1,.21,2,2,0,0,0-.69.58,2.53,2.53,0,0,0-.41.86,3.94,3.94,0,0,0-.13,1,3.83,3.83,0,0,0,.12,1,2.55,2.55,0,0,0,.39.85,2,2,0,0,0,.69.6,2.07,2.07,0,0,0,1,.23,2.3,2.3,0,0,0,.8-.13,1.71,1.71,0,0,0,.61-.38,1.75,1.75,0,0,0,.4-.61,2.5,2.5,0,0,0,.17-.82h-1.88v-1h3v3.78h-.82l-.13-1h0A2.45,2.45,0,0,1,450,35a2.68,2.68,0,0,1-1.24.28,3.43,3.43,0,0,1-1.42-.28,3.17,3.17,0,0,1-1.08-.78,3.5,3.5,0,0,1-.69-1.18,4.37,4.37,0,0,1-.24-1.47,4.49,4.49,0,0,1,.23-1.46,3.53,3.53,0,0,1,.68-1.19,3.19,3.19,0,0,1,1.09-.81A3.44,3.44,0,0,1,448.79,27.76Z"/><path class="cls-6" d="M459.3,29.86a1.91,1.91,0,0,1-.42,1.28,1.48,1.48,0,0,1-.35.31,2.06,2.06,0,0,1-.46.21v0a1.44,1.44,0,0,1,.49.21,1.18,1.18,0,0,1,.33.35,1.61,1.61,0,0,1,.21.52,4.26,4.26,0,0,1,.08.57q0,.3,0,.61a4,4,0,0,0,.08.62,1.38,1.38,0,0,0,.2.52h-1.27A3.65,3.65,0,0,1,458,34a2.67,2.67,0,0,0-.38-1.47,1.13,1.13,0,0,0-.88-.34h-2v2.92h-1.25V27.93h3.68a2.13,2.13,0,0,1,1.48.53A1.79,1.79,0,0,1,459.3,29.86Zm-1.25.2a1.09,1.09,0,0,0-.32-.86,1.29,1.29,0,0,0-.89-.28h-2.05v2.29h2.05a1.27,1.27,0,0,0,.85-.27A1.08,1.08,0,0,0,458,30.06Z"/><path class="cls-6" d="M467.35,31.52a3.85,3.85,0,0,1-.95,2.66,3.21,3.21,0,0,1-2.51,1.05,3.63,3.63,0,0,1-1.37-.24,3.2,3.2,0,0,1-1.1-.75,3.36,3.36,0,0,1-.75-1.22,4.45,4.45,0,0,1-.25-1.51,3.9,3.9,0,0,1,.95-2.7,3.21,3.21,0,0,1,2.51-1.05,3.68,3.68,0,0,1,1.37.25,3,3,0,0,1,1.1.76A3.35,3.35,0,0,1,467.1,30,4.76,4.76,0,0,1,467.35,31.52Zm-1.25,0a3.07,3.07,0,0,0-.59-2,2.14,2.14,0,0,0-3.25,0,3.08,3.08,0,0,0-.58,2,3,3,0,0,0,.58,1.91,2.16,2.16,0,0,0,3.26,0A3,3,0,0,0,466.09,31.52Z"/><path class="cls-6" d="M474,33a2,2,0,0,1-.24,1,2,2,0,0,1-.65.68,2.94,2.94,0,0,1-.94.39,4.91,4.91,0,0,1-1.12.12,4.28,4.28,0,0,1-1.14-.14,2.83,2.83,0,0,1-.92-.43,2.07,2.07,0,0,1-.62-.7,2,2,0,0,1-.22-1v-.08h1.23v0a1.12,1.12,0,0,0,.14.56,1.17,1.17,0,0,0,.38.4,1.75,1.75,0,0,0,.56.24,3,3,0,0,0,1.32,0,1.73,1.73,0,0,0,.52-.21,1.09,1.09,0,0,0,.35-.34.88.88,0,0,0,.13-.48.77.77,0,0,0-.31-.63,2.71,2.71,0,0,0-1-.42L470,31.68a2.36,2.36,0,0,1-1.2-.65,1.67,1.67,0,0,1-.39-1.16,1.86,1.86,0,0,1,.21-.91,2,2,0,0,1,.58-.66,2.71,2.71,0,0,1,.86-.4,4,4,0,0,1,2,0,2.68,2.68,0,0,1,.85.38,1.93,1.93,0,0,1,.59.64,1.88,1.88,0,0,1,.23.91h-1.22a1,1,0,0,0-.13-.43,1.06,1.06,0,0,0-.31-.34,1.49,1.49,0,0,0-.46-.22,2.06,2.06,0,0,0-.59-.08,2.41,2.41,0,0,0-.55.06,1.48,1.48,0,0,0-.46.19,1,1,0,0,0-.31.32.88.88,0,0,0-.11.46.82.82,0,0,0,.06.33.65.65,0,0,0,.17.23.9.9,0,0,0,.26.16l.34.11,1.68.45a3.06,3.06,0,0,1,1.42.72A1.68,1.68,0,0,1,474,33Z"/><path class="cls-6" d="M480.78,33a2,2,0,0,1-.24,1,2,2,0,0,1-.65.68,2.94,2.94,0,0,1-.94.39,4.9,4.9,0,0,1-1.12.12,4.28,4.28,0,0,1-1.14-.14,2.83,2.83,0,0,1-.92-.43,2.08,2.08,0,0,1-.62-.7,2,2,0,0,1-.22-1v-.08h1.23v0a1.12,1.12,0,0,0,.14.56,1.18,1.18,0,0,0,.38.4,1.76,1.76,0,0,0,.56.24,3,3,0,0,0,1.32,0,1.72,1.72,0,0,0,.52-.21,1.09,1.09,0,0,0,.35-.34.88.88,0,0,0,.13-.48.77.77,0,0,0-.31-.63,2.71,2.71,0,0,0-1-.42l-1.53-.41a2.36,2.36,0,0,1-1.2-.65,1.68,1.68,0,0,1-.39-1.16,1.87,1.87,0,0,1,.21-.91,2,2,0,0,1,.58-.66,2.71,2.71,0,0,1,.86-.4,4,4,0,0,1,2,0,2.68,2.68,0,0,1,.85.38,1.92,1.92,0,0,1,.59.64,1.88,1.88,0,0,1,.23.91H479.3a1,1,0,0,0-.13-.43,1.06,1.06,0,0,0-.31-.34,1.49,1.49,0,0,0-.46-.22,2.05,2.05,0,0,0-.59-.08,2.41,2.41,0,0,0-.55.06,1.48,1.48,0,0,0-.46.19,1,1,0,0,0-.31.32.88.88,0,0,0-.11.46.82.82,0,0,0,.06.33.66.66,0,0,0,.17.23.91.91,0,0,0,.26.16l.34.11,1.68.45a3.06,3.06,0,0,1,1.42.72A1.68,1.68,0,0,1,480.78,33Z"/><rect class="cls-4" x="438.5" y="43.5" width="100" height="31"/><path class="cls-5" d="M538,44V74H439V44h99m1-1H438V75H539V43Z"/><rect class="cls-4" x="438.5" y="74.5" width="100" height="31"/><path class="cls-5" d="M538,75v30H439V75h99m1-1H438v32H539V74Z"/><rect class="cls-4" x="438.5" y="105.5" width="100" height="31"/><path class="cls-5" d="M538,106v30H439V106h99m1-1H438v32H539V105Z"/><rect class="cls-2" x="138.5" y="136.5" width="100" height="31"/><path class="cls-3" d="M238,137v30H139V137h99m1-1H138v32H239V136Z"/><rect class="cls-2" x="19.5" y="136.5" width="119" height="31"/><path class="cls-3" d="M138,137v30H20V137H138m1-1H19v32H139V136Z"/><path class="cls-6" d="M34,55.13v1.27H29.66v2.38h3.77V60H29.66v3.73h-1.5V55.13Z"/><path class="cls-6" d="M36.78,55.13v7.3h4.4v1.27h-5.9V55.13Z"/><path class="cls-6" d="M49.29,57.45A2.29,2.29,0,0,1,48.8,59a1.79,1.79,0,0,1-.42.37,2.48,2.48,0,0,1-.55.25v0a1.71,1.71,0,0,1,.59.25,1.41,1.41,0,0,1,.4.42,1.94,1.94,0,0,1,.25.62,5.13,5.13,0,0,1,.1.69q0,.36,0,.73a4.78,4.78,0,0,0,.09.74,1.65,1.65,0,0,0,.24.62H48a4.38,4.38,0,0,1-.22-1.34,3.2,3.2,0,0,0-.45-1.76,1.35,1.35,0,0,0-1.06-.4H43.88v3.51h-1.5V55.13H46.8a2.56,2.56,0,0,1,1.78.64A2.16,2.16,0,0,1,49.29,57.45Zm-1.5.24a1.31,1.31,0,0,0-.38-1,1.56,1.56,0,0,0-1.07-.34H43.88v2.75h2.46a1.52,1.52,0,0,0,1-.33A1.3,1.3,0,0,0,47.79,57.69Z"/><path class="cls-6" d="M28.82,86.13l1.56,6.69h0l1.71-6.69h1.49l1.69,6.74h0l1.61-6.74h1.47l-2.32,8.57H34.58l-1.71-6.76h0l-1.69,6.76H29.61L27.3,86.13Z"/><path class="cls-6" d="M41.11,86.14v3.44h4V86.14h1.49v8.55H45.16V90.84h-4v3.86h-1.5V86.14Z"/><path class="cls-6" d="M51.11,94.69V88.82h-2.2v-1a6,6,0,0,0,.9-.07,2.36,2.36,0,0,0,.63-.18,1.57,1.57,0,0,0,.64-.55,2.21,2.21,0,0,0,.31-.89h1.11v8.6Z"/><path class="cls-6" d="M28.82,117.13l1.56,6.69h0l1.71-6.69h1.49l1.69,6.74h0l1.61-6.74h1.47l-2.32,8.57H34.58l-1.71-6.76h0l-1.69,6.76H29.61l-2.31-8.57Z"/><path class="cls-6" d="M41.11,117.14v3.44h4v-3.44h1.49v8.55H45.16v-3.86h-4v3.86h-1.5v-8.55Z"/><path class="cls-6" d="M51.43,117a3,3,0,0,1,2,.7,2.22,2.22,0,0,1,.6.83,2.77,2.77,0,0,1,.19,1.06,2.82,2.82,0,0,1-.46,1.55A5.83,5.83,0,0,1,52,122.64q-.5.3-.85.57a6.91,6.91,0,0,0-.58.47,2.8,2.8,0,0,0-.62.81H54.3v1.21H48.22a3.35,3.35,0,0,1,.39-1.59,3.73,3.73,0,0,1,.51-.69,5.59,5.59,0,0,1,.74-.66l.95-.71,1.12-.83a2.7,2.7,0,0,0,.71-.75,1.61,1.61,0,0,0,.23-.83,1.68,1.68,0,0,0-.1-.59,1.33,1.33,0,0,0-.31-.48,1.44,1.44,0,0,0-.47-.3,1.77,1.77,0,0,0-1.31,0,1.46,1.46,0,0,0-.5.38,1.58,1.58,0,0,0-.29.53,2,2,0,0,0-.1.61V120H48.45v-.15a3.14,3.14,0,0,1,.21-1.15,2.54,2.54,0,0,1,.59-.9,2.71,2.71,0,0,1,.94-.59A3.45,3.45,0,0,1,51.43,117Z"/><path class="cls-6" d="M34.68,154.15a2.4,2.4,0,0,1-1.08,2.1,3.55,3.55,0,0,1-1.15.49,5.78,5.78,0,0,1-1.37.16,5.33,5.33,0,0,1-1.41-.18,3.5,3.5,0,0,1-1.14-.53,2.55,2.55,0,0,1-.76-.86,2.45,2.45,0,0,1-.28-1.19v0h1.83v0a1.07,1.07,0,0,0,.17.62,1.29,1.29,0,0,0,.44.4,1.94,1.94,0,0,0,.59.21,3.37,3.37,0,0,0,.63.06,3.18,3.18,0,0,0,.69-.07,1.77,1.77,0,0,0,.54-.21,1,1,0,0,0,.35-.34.88.88,0,0,0,.12-.47.79.79,0,0,0-.08-.37.88.88,0,0,0-.26-.29,2.06,2.06,0,0,0-.46-.24,6.38,6.38,0,0,0-.66-.22l-1.75-.48a2.86,2.86,0,0,1-1.41-.8,2.07,2.07,0,0,1-.48-1.43A2.29,2.29,0,0,1,28,149.4a2.43,2.43,0,0,1,.71-.81,3.24,3.24,0,0,1,1.06-.5,5.06,5.06,0,0,1,2.49,0,3.37,3.37,0,0,1,1,.45,2.4,2.4,0,0,1,.75.78,2.17,2.17,0,0,1,.29,1.14H32.54a1,1,0,0,0-.45-.77,1.88,1.88,0,0,0-1.08-.28,2.62,2.62,0,0,0-.53.05,1.57,1.57,0,0,0-.46.17,1,1,0,0,0-.33.3.78.78,0,0,0-.12.45.93.93,0,0,0,0,.32.59.59,0,0,0,.15.23.87.87,0,0,0,.24.16l.33.12,2.06.56a4.54,4.54,0,0,1,1,.36,2.77,2.77,0,0,1,.71.52,2.1,2.1,0,0,1,.45.68A2.27,2.27,0,0,1,34.68,154.15Z"/><path class="cls-6" d="M37.82,148.13v5.38a1.9,1.9,0,0,0,.42,1.37,1.79,1.79,0,0,0,1.34.44,2.82,2.82,0,0,0,.79-.1,1.28,1.28,0,0,0,.55-.32,1.33,1.33,0,0,0,.32-.56,2.81,2.81,0,0,0,.11-.83v-5.38h1.88v5.38A3.29,3.29,0,0,1,42.3,156a3.77,3.77,0,0,1-2.72.9,5.08,5.08,0,0,1-1.59-.23,3,3,0,0,1-1.14-.66,3.27,3.27,0,0,1-.92-2.5v-5.38Z"/><path class="cls-6" d="M52.83,156.69V150.1h0l-2.16,6.59H49.06l-2.16-6.53h0v6.53H45.12v-8.55h2.75l2,6.21h0l1.93-6.21h2.74v8.55Z"/><path class="cls-6" d="M321.22,55a3,3,0,0,1,2,.7,2.22,2.22,0,0,1,.6.83,2.77,2.77,0,0,1,.19,1.06,2.82,2.82,0,0,1-.46,1.55,5.83,5.83,0,0,1-1.78,1.54q-.5.3-.85.57a6.91,6.91,0,0,0-.58.47,2.8,2.8,0,0,0-.62.81h4.33v1.21H318a3.35,3.35,0,0,1,.39-1.59,3.73,3.73,0,0,1,.51-.69,5.59,5.59,0,0,1,.74-.66l.95-.71,1.12-.83a2.7,2.7,0,0,0,.71-.75,1.61,1.61,0,0,0,.23-.83,1.68,1.68,0,0,0-.1-.59,1.33,1.33,0,0,0-.31-.48,1.44,1.44,0,0,0-.47-.3,1.77,1.77,0,0,0-1.31,0,1.46,1.46,0,0,0-.5.38,1.58,1.58,0,0,0-.29.53,2,2,0,0,0-.1.61V58h-1.34v-.15a3.14,3.14,0,0,1,.21-1.15,2.54,2.54,0,0,1,.59-.9,2.71,2.71,0,0,1,.94-.59A3.45,3.45,0,0,1,321.22,55Z"/><path class="cls-6" d="M328.36,55a2.66,2.66,0,0,1,2.32,1.13,5.72,5.72,0,0,1,.79,3.3,5.83,5.83,0,0,1-.79,3.35,2.92,2.92,0,0,1-4.62,0,5.81,5.81,0,0,1-.79-3.35,5.74,5.74,0,0,1,.79-3.31A2.64,2.64,0,0,1,328.36,55Zm-1.7,4.44a10.28,10.28,0,0,0,.07,1.25A4.18,4.18,0,0,0,327,61.7a1.83,1.83,0,0,0,.52.74,1.28,1.28,0,0,0,.85.28,1.31,1.31,0,0,0,1.08-.51,2.12,2.12,0,0,0,.31-.56,4.17,4.17,0,0,0,.2-.69,6.33,6.33,0,0,0,.1-.77q0-.4,0-.8a9.63,9.63,0,0,0-.08-1.27,3.8,3.8,0,0,0-.28-1,1.82,1.82,0,0,0-.53-.71,1.32,1.32,0,0,0-.84-.26,1.29,1.29,0,0,0-.6.13,1.39,1.39,0,0,0-.45.37,2,2,0,0,0-.31.55,4.32,4.32,0,0,0-.19.68,6.52,6.52,0,0,0-.11.76Q326.66,59,326.66,59.39Z"/><path class="cls-6" d="M321.22,86a3,3,0,0,1,2,.7,2.22,2.22,0,0,1,.6.83,2.77,2.77,0,0,1,.19,1.06,2.82,2.82,0,0,1-.46,1.55,5.83,5.83,0,0,1-1.78,1.54q-.5.3-.85.57a6.91,6.91,0,0,0-.58.47,2.8,2.8,0,0,0-.62.81h4.33v1.21H318a3.35,3.35,0,0,1,.39-1.59,3.73,3.73,0,0,1,.51-.69,5.59,5.59,0,0,1,.74-.66l.95-.71,1.12-.83a2.7,2.7,0,0,0,.71-.75,1.61,1.61,0,0,0,.23-.83,1.68,1.68,0,0,0-.1-.59,1.33,1.33,0,0,0-.31-.48,1.44,1.44,0,0,0-.47-.3,1.77,1.77,0,0,0-1.31,0,1.46,1.46,0,0,0-.5.38,1.58,1.58,0,0,0-.29.53,2,2,0,0,0-.1.61V89h-1.34v-.15a3.14,3.14,0,0,1,.21-1.15,2.54,2.54,0,0,1,.59-.9,2.71,2.71,0,0,1,.94-.59A3.45,3.45,0,0,1,321.22,86Z"/><path class="cls-6" d="M328.17,94.69V88.82H326v-1a6,6,0,0,0,.9-.07,2.36,2.36,0,0,0,.63-.18,1.57,1.57,0,0,0,.64-.55,2.21,2.21,0,0,0,.31-.89h1.11v8.6Z"/><path class="cls-6" d="M328.17,125.69v-5.87H326v-1a6,6,0,0,0,.9-.07,2.36,2.36,0,0,0,.63-.18,1.57,1.57,0,0,0,.64-.55,2.21,2.21,0,0,0,.31-.89h1.11v8.6Z"/><path class="cls-6" d="M323.16,154.71v2h-1.65v-2H317.9v-1.59l3.71-5h1.55v5.16h1.14v1.42Zm-1.65-4.52h0l-2.26,3.09h2.29Z"/><path class="cls-6" d="M328.55,148a3.47,3.47,0,0,1,1.14.18,2.76,2.76,0,0,1,.94.55,2.32,2.32,0,0,1,.62.86,2.84,2.84,0,0,1,.2,1.08,2.87,2.87,0,0,1-.4,1.49,5.05,5.05,0,0,1-1.65,1.46l-.76.51a6.12,6.12,0,0,0-.53.41,3.9,3.9,0,0,0-.66.7h4.05v1.49h-6.29a3.35,3.35,0,0,1,.67-2.12,3.88,3.88,0,0,1,.5-.55,10.42,10.42,0,0,1,.82-.65q.54-.4,1.34-.92a3.3,3.3,0,0,0,.9-.8,1.48,1.48,0,0,0,.29-.87,1.6,1.6,0,0,0-.08-.53,1.18,1.18,0,0,0-.25-.43,1.07,1.07,0,0,0-.37-.27,1.27,1.27,0,0,0-.51-.1,1.37,1.37,0,0,0-.62.13,1.29,1.29,0,0,0-.43.34,1.41,1.41,0,0,0-.25.48,1.88,1.88,0,0,0-.08.55v.13h-1.66v-.16a3.25,3.25,0,0,1,.23-1.25,2.65,2.65,0,0,1,.64-.94,2.77,2.77,0,0,1,1-.59A3.74,3.74,0,0,1,328.55,148Z"/><path class="cls-6" d="M409.92,55.13v1.21a8.83,8.83,0,0,0-1.24,1.49,10.33,10.33,0,0,0-.95,1.83,12,12,0,0,0-.87,4h-1.49a11.75,11.75,0,0,1,.93-3.82,13.7,13.7,0,0,1,2.2-3.45h-4.32V55.13Z"/><path class="cls-6" d="M416.24,61.65v2h-1.31v-2h-3.76V60.36L415,55.09h1.25V60.5h1.2v1.15Zm-1.31-4.82h0l-2.62,3.67h2.65Z"/><path class="cls-6" d="M424.73,61.21a2.37,2.37,0,0,1-.89,1.95,3.88,3.88,0,0,1-4.51,0,2.33,2.33,0,0,1-.88-1.93,2.43,2.43,0,0,1,.11-.76,2.08,2.08,0,0,1,.33-.63,2,2,0,0,1,.52-.47,2.17,2.17,0,0,1,.7-.28v0a1.81,1.81,0,0,1-1-.67,1.92,1.92,0,0,1-.33-1.14,2,2,0,0,1,.81-1.65,3.16,3.16,0,0,1,2-.62,2.91,2.91,0,0,1,2,.67,2,2,0,0,1,.76,1.58,2.14,2.14,0,0,1-.08.61,1.83,1.83,0,0,1-.25.52,1.75,1.75,0,0,1-.41.42,2,2,0,0,1-.57.28v0a2.06,2.06,0,0,1,1.24.75A2.24,2.24,0,0,1,424.73,61.21Zm-1.39,0a1.45,1.45,0,0,0-.48-1.11,1.79,1.79,0,0,0-1.27-.44,1.88,1.88,0,0,0-1.27.42,1.42,1.42,0,0,0-.49,1.13,1.53,1.53,0,0,0,.5,1.18,1.79,1.79,0,0,0,1.27.46,1.74,1.74,0,0,0,1.25-.45A1.53,1.53,0,0,0,423.33,61.17Zm-.26-3.83a1.42,1.42,0,0,0-.11-.56,1,1,0,0,0-.32-.42,1.85,1.85,0,0,0-2.14,0,1.18,1.18,0,0,0-.42.94,1.19,1.19,0,0,0,.41.94,1.85,1.85,0,0,0,2.19,0A1.21,1.21,0,0,0,423.08,57.34Z"/><path class="cls-6" d="M428.84,55a2.66,2.66,0,0,1,2.32,1.13,5.72,5.72,0,0,1,.79,3.3,5.83,5.83,0,0,1-.79,3.35,2.92,2.92,0,0,1-4.62,0,5.81,5.81,0,0,1-.79-3.35,5.74,5.74,0,0,1,.79-3.31A2.64,2.64,0,0,1,428.84,55Zm-1.7,4.44a10.28,10.28,0,0,0,.07,1.25,4.18,4.18,0,0,0,.26,1.06,1.83,1.83,0,0,0,.52.74,1.28,1.28,0,0,0,.85.28,1.31,1.31,0,0,0,1.08-.51,2.12,2.12,0,0,0,.31-.56,4.17,4.17,0,0,0,.2-.69,6.33,6.33,0,0,0,.1-.77q0-.4,0-.8a9.63,9.63,0,0,0-.08-1.27,3.8,3.8,0,0,0-.28-1,1.82,1.82,0,0,0-.53-.71,1.32,1.32,0,0,0-.84-.26,1.29,1.29,0,0,0-.6.13,1.39,1.39,0,0,0-.45.37,2,2,0,0,0-.31.55,4.32,4.32,0,0,0-.19.68,6.52,6.52,0,0,0-.11.76Q427.14,59,427.14,59.39Z"/><path class="cls-6" d="M409.92,86.13v1.21a8.83,8.83,0,0,0-1.24,1.49,10.33,10.33,0,0,0-.95,1.83,12,12,0,0,0-.87,4h-1.49a11.75,11.75,0,0,1,.93-3.82,13.7,13.7,0,0,1,2.2-3.45h-4.32V86.13Z"/><path class="cls-6" d="M414.32,86a3.64,3.64,0,0,1,1,.15,2.72,2.72,0,0,1,.88.44,2.18,2.18,0,0,1,.62.72,2.1,2.1,0,0,1,.23,1,2.16,2.16,0,0,1-.08.62,1.83,1.83,0,0,1-.25.52,1.63,1.63,0,0,1-.4.41,1.88,1.88,0,0,1-.56.27v0a1.93,1.93,0,0,1,1.2.71,2.07,2.07,0,0,1,.42,1.3,2.5,2.5,0,0,1-.89,2,3.31,3.31,0,0,1-2.23.76,3.84,3.84,0,0,1-1.17-.18,2.94,2.94,0,0,1-1-.52,2.49,2.49,0,0,1-.67-.84,2.55,2.55,0,0,1-.25-1.14v-.13h1.34v.13a1.45,1.45,0,0,0,.49,1.11,1.58,1.58,0,0,0,.52.3,1.91,1.91,0,0,0,.64.11,1.81,1.81,0,0,0,1.28-.44,1.45,1.45,0,0,0,.47-1.11,1.34,1.34,0,0,0-.45-1.09,2.2,2.2,0,0,0-1.46-.39h-.35v-1h.43a1.86,1.86,0,0,0,1.2-.35,1.1,1.1,0,0,0,.4-.9,1.39,1.39,0,0,0-.11-.58,1.12,1.12,0,0,0-.31-.41,1.34,1.34,0,0,0-.46-.24,2,2,0,0,0-.57-.08,1.7,1.7,0,0,0-.6.1,1.41,1.41,0,0,0-.48.3,1.44,1.44,0,0,0-.33.47,1.62,1.62,0,0,0-.13.64H411.4a2.81,2.81,0,0,1,.23-1,2.55,2.55,0,0,1,.59-.84,2.75,2.75,0,0,1,.91-.56A3.27,3.27,0,0,1,414.32,86Z"/><path class="cls-6" d="M424.17,86.13v1.18h-3.63l-.42,2.24,0,0a2.3,2.3,0,0,1,.75-.5,2.57,2.57,0,0,1,1-.17,2.81,2.81,0,0,1,1.14.22,2.53,2.53,0,0,1,.86.62,2.71,2.71,0,0,1,.55.93,3.47,3.47,0,0,1,.19,1.17,2.93,2.93,0,0,1-.24,1.17,3,3,0,0,1-.66,1,3.13,3.13,0,0,1-1,.65,3.22,3.22,0,0,1-1.25.24,4.16,4.16,0,0,1-1.15-.15,2.71,2.71,0,0,1-.93-.46,2.33,2.33,0,0,1-.64-.76,2.65,2.65,0,0,1-.28-1.07h1.4a1.51,1.51,0,0,0,.14.5,1.33,1.33,0,0,0,.31.41,1.41,1.41,0,0,0,.48.28,2,2,0,0,0,.65.1,1.67,1.67,0,0,0,.73-.16,1.7,1.7,0,0,0,.55-.42,1.85,1.85,0,0,0,.35-.61,2.17,2.17,0,0,0,.12-.73,2.11,2.11,0,0,0-.12-.7,1.65,1.65,0,0,0-.89-1,1.74,1.74,0,0,0-.74-.15,1.76,1.76,0,0,0-1.52.76h-1.24l.84-4.6Z"/><path class="cls-6" d="M430.77,92.65v2h-1.31v-2H425.7V91.36l3.82-5.27h1.25V91.5H432v1.15Zm-1.31-4.82h0L426.8,91.5h2.65Z"/><path class="cls-6" d="M414.32,117a3.64,3.64,0,0,1,1,.15,2.72,2.72,0,0,1,.88.44,2.18,2.18,0,0,1,.62.72,2.1,2.1,0,0,1,.23,1,2.16,2.16,0,0,1-.08.62,1.83,1.83,0,0,1-.25.52,1.63,1.63,0,0,1-.4.41,1.88,1.88,0,0,1-.56.27v0a1.93,1.93,0,0,1,1.2.71,2.07,2.07,0,0,1,.42,1.3,2.5,2.5,0,0,1-.89,2,3.31,3.31,0,0,1-2.23.76,3.84,3.84,0,0,1-1.17-.18,2.94,2.94,0,0,1-1-.52,2.49,2.49,0,0,1-.67-.84,2.55,2.55,0,0,1-.25-1.14v-.13h1.34v.13a1.45,1.45,0,0,0,.49,1.11,1.58,1.58,0,0,0,.52.3,1.91,1.91,0,0,0,.64.11,1.81,1.81,0,0,0,1.28-.44,1.45,1.45,0,0,0,.47-1.11,1.34,1.34,0,0,0-.45-1.09,2.2,2.2,0,0,0-1.46-.39h-.35v-1h.43a1.86,1.86,0,0,0,1.2-.35,1.1,1.1,0,0,0,.4-.9,1.39,1.39,0,0,0-.11-.58,1.12,1.12,0,0,0-.31-.41,1.34,1.34,0,0,0-.46-.24,2,2,0,0,0-.57-.08,1.7,1.7,0,0,0-.6.1,1.41,1.41,0,0,0-.48.3,1.44,1.44,0,0,0-.33.47,1.62,1.62,0,0,0-.13.64H411.4a2.81,2.81,0,0,1,.23-1,2.55,2.55,0,0,1,.59-.84,2.75,2.75,0,0,1,.91-.56A3.27,3.27,0,0,1,414.32,117Z"/><path class="cls-6" d="M424.45,117.13v1.21a8.83,8.83,0,0,0-1.24,1.49,10.33,10.33,0,0,0-.95,1.83,12,12,0,0,0-.87,4h-1.49a11.75,11.75,0,0,1,.93-3.82,13.7,13.7,0,0,1,2.2-3.45h-4.32v-1.29Z"/><path class="cls-6" d="M430.77,123.65v2h-1.31v-2H425.7v-1.29l3.82-5.27h1.25v5.41H432v1.15Zm-1.31-4.82h0l-2.62,3.67h2.65Z"/><path class="cls-6" d="M399.44,156.69v-5.56h-2.15v-1.31a4.7,4.7,0,0,0,.89-.07,2.42,2.42,0,0,0,.65-.22,1.77,1.77,0,0,0,1-1.41h1.39v8.57Z"/><path class="cls-6" d="M409.72,148.13v1.44h-3.54l-.34,1.93,0,0a2.25,2.25,0,0,1,.72-.49,2.46,2.46,0,0,1,1-.17,2.62,2.62,0,0,1,1.11.23,2.45,2.45,0,0,1,.83.62,2.73,2.73,0,0,1,.52.92,3.49,3.49,0,0,1,.18,1.14,3,3,0,0,1-.24,1.19,3.06,3.06,0,0,1-.67,1,3.21,3.21,0,0,1-1,.67,3.25,3.25,0,0,1-1.28.25,4.66,4.66,0,0,1-1.18-.14,2.85,2.85,0,0,1-1-.45,2.35,2.35,0,0,1-.68-.78,2.71,2.71,0,0,1-.31-1.13h1.74a1.4,1.4,0,0,0,.13.42,1.07,1.07,0,0,0,.27.34,1.23,1.23,0,0,0,.4.22,1.68,1.68,0,0,0,.54.08,1.48,1.48,0,0,0,.65-.14,1.44,1.44,0,0,0,.48-.37,1.54,1.54,0,0,0,.29-.53,2,2,0,0,0,.1-.62,1.92,1.92,0,0,0-.1-.61,1.51,1.51,0,0,0-.28-.51,1.38,1.38,0,0,0-.47-.35,1.48,1.48,0,0,0-.64-.13,1.83,1.83,0,0,0-.42,0,1.35,1.35,0,0,0-.34.13,1.37,1.37,0,0,0-.29.21,2.19,2.19,0,0,0-.26.3h-1.56l.85-4.72Z"/><path class="cls-6" d="M414.5,148a3.47,3.47,0,0,1,1.14.18,2.76,2.76,0,0,1,.94.55,2.32,2.32,0,0,1,.62.86,2.84,2.84,0,0,1,.2,1.08,2.87,2.87,0,0,1-.4,1.49,5.05,5.05,0,0,1-1.65,1.46l-.76.51a6.12,6.12,0,0,0-.53.41,3.9,3.9,0,0,0-.66.7h4.05v1.49h-6.29a3.35,3.35,0,0,1,.67-2.12,3.88,3.88,0,0,1,.5-.55,10.42,10.42,0,0,1,.82-.65q.54-.4,1.34-.92a3.3,3.3,0,0,0,.9-.8,1.48,1.48,0,0,0,.29-.87,1.6,1.6,0,0,0-.08-.53,1.18,1.18,0,0,0-.25-.43,1.07,1.07,0,0,0-.37-.27,1.27,1.27,0,0,0-.51-.1,1.37,1.37,0,0,0-.62.13,1.29,1.29,0,0,0-.43.34,1.41,1.41,0,0,0-.25.48,1.88,1.88,0,0,0-.08.55v.13h-1.66v-.16a3.25,3.25,0,0,1,.23-1.25,2.65,2.65,0,0,1,.64-.94,2.77,2.77,0,0,1,1-.59A3.74,3.74,0,0,1,414.5,148Z"/><path class="cls-6" d="M421.56,148a3.13,3.13,0,0,1,1.36.28,2.57,2.57,0,0,1,1,.84,4,4,0,0,1,.61,1.38,8,8,0,0,1,.21,1.92,5.78,5.78,0,0,1-.81,3.35,3,3,0,0,1-4.69,0,5.81,5.81,0,0,1-.8-3.36,5.66,5.66,0,0,1,.8-3.29A2.68,2.68,0,0,1,421.56,148Zm-1.39,4.43q0,.32,0,.67a6.68,6.68,0,0,0,.06.69,4.58,4.58,0,0,0,.13.64,2,2,0,0,0,.24.54,1.19,1.19,0,0,0,.39.37,1.08,1.08,0,0,0,.56.14,1.06,1.06,0,0,0,.58-.15,1.26,1.26,0,0,0,.4-.41,2.17,2.17,0,0,0,.25-.58,5.23,5.23,0,0,0,.13-.66A6.07,6.07,0,0,0,423,153q0-.33,0-.59t0-.7a6.36,6.36,0,0,0-.07-.69,4,4,0,0,0-.15-.62,1.83,1.83,0,0,0-.25-.51,1.17,1.17,0,0,0-.39-.34,1.13,1.13,0,0,0-.55-.13,1,1,0,0,0-.57.15,1.25,1.25,0,0,0-.39.4,2.13,2.13,0,0,0-.24.57,5.15,5.15,0,0,0-.13.65q0,.33-.06.65T420.17,152.38Z"/><path class="cls-6" d="M432.08,154.17a2.37,2.37,0,0,1-.93,2,3.57,3.57,0,0,1-2.29.73,3.66,3.66,0,0,1-2.33-.72,2.34,2.34,0,0,1-.92-2,2.49,2.49,0,0,1,.11-.75,2,2,0,0,1,.31-.62,1.85,1.85,0,0,1,.51-.46,2.23,2.23,0,0,1,.68-.28v0a1.8,1.8,0,0,1-.54-.25,1.61,1.61,0,0,1-.4-.39,1.71,1.71,0,0,1-.24-.51,2.15,2.15,0,0,1-.08-.6,2,2,0,0,1,.85-1.69,3.28,3.28,0,0,1,2-.64,2.92,2.92,0,0,1,2.1.72,2.14,2.14,0,0,1,.77,1.58,2,2,0,0,1-.31,1.1,1.76,1.76,0,0,1-.94.69v0a2.29,2.29,0,0,1,.69.28,1.83,1.83,0,0,1,.5.46,2,2,0,0,1,.3.61A2.55,2.55,0,0,1,432.08,154.17Zm-1.74-.06a1.27,1.27,0,0,0-.42-1,1.48,1.48,0,0,0-1.06-.39,1.6,1.6,0,0,0-1.07.36,1.22,1.22,0,0,0-.44,1,1.39,1.39,0,0,0,.44,1,1.5,1.5,0,0,0,1.08.42,1.46,1.46,0,0,0,1.05-.4A1.4,1.4,0,0,0,430.34,154.11Zm-.19-3.66a1.35,1.35,0,0,0-.1-.52,1,1,0,0,0-.29-.39,1.14,1.14,0,0,0-.39-.21,1.74,1.74,0,0,0-.52-.07,1.35,1.35,0,0,0-.94.34,1.11,1.11,0,0,0-.36.85,1,1,0,0,0,.36.81,1.4,1.4,0,0,0,.94.32,1.37,1.37,0,0,0,.94-.3A1.05,1.05,0,0,0,430.14,150.45Z"/><path class="cls-6" d="M509.92,55.13v1.21a8.83,8.83,0,0,0-1.24,1.49,10.33,10.33,0,0,0-.95,1.83,12,12,0,0,0-.87,4h-1.49a11.75,11.75,0,0,1,.93-3.82,13.7,13.7,0,0,1,2.2-3.45h-4.32V55.13Z"/><path class="cls-6" d="M516.9,55.13v1.18h-3.63l-.42,2.24,0,0a2.3,2.3,0,0,1,.75-.5,2.57,2.57,0,0,1,1-.17,2.81,2.81,0,0,1,1.14.22,2.53,2.53,0,0,1,.86.62,2.71,2.71,0,0,1,.55.93,3.47,3.47,0,0,1,.19,1.17,2.93,2.93,0,0,1-.24,1.17,3,3,0,0,1-.66,1,3.13,3.13,0,0,1-1,.65,3.22,3.22,0,0,1-1.25.24,4.16,4.16,0,0,1-1.15-.15,2.71,2.71,0,0,1-.93-.46,2.33,2.33,0,0,1-.64-.76,2.65,2.65,0,0,1-.28-1.07h1.4a1.51,1.51,0,0,0,.14.5,1.33,1.33,0,0,0,.31.41,1.41,1.41,0,0,0,.48.28,2,2,0,0,0,.65.1,1.67,1.67,0,0,0,.73-.16,1.7,1.7,0,0,0,.55-.42,1.85,1.85,0,0,0,.35-.61,2.17,2.17,0,0,0,.12-.73,2.11,2.11,0,0,0-.12-.7,1.65,1.65,0,0,0-.89-1,1.74,1.74,0,0,0-.74-.15,1.76,1.76,0,0,0-1.52.76h-1.24l.84-4.6Z"/><path class="cls-6" d="M521.84,55a3.18,3.18,0,0,1,1,.14,2.5,2.5,0,0,1,.79.41,2.29,2.29,0,0,1,.57.65,2.45,2.45,0,0,1,.3.86h-1.33a1.57,1.57,0,0,0-.17-.4,1.14,1.14,0,0,0-.28-.31,1.26,1.26,0,0,0-.39-.21,1.63,1.63,0,0,0-.51-.07,1.45,1.45,0,0,0-.88.26,2,2,0,0,0-.58.69,3.5,3.5,0,0,0-.33,1,6.72,6.72,0,0,0-.12,1.13l0,0a2,2,0,0,1,1.58-1,2.45,2.45,0,0,1,1.36.11,2.41,2.41,0,0,1,1.36,1,2.77,2.77,0,0,1,.49,1.62,3,3,0,0,1-.85,2.2,2.83,2.83,0,0,1-2.13.87,3.22,3.22,0,0,1-1.42-.29,2.58,2.58,0,0,1-1-.86,4.1,4.1,0,0,1-.59-1.39,8.46,8.46,0,0,1-.2-1.94,7.74,7.74,0,0,1,.07-1.05,5.85,5.85,0,0,1,.23-1,4.47,4.47,0,0,1,.42-.92,3.09,3.09,0,0,1,.63-.75,2.77,2.77,0,0,1,.86-.5A3.19,3.19,0,0,1,521.84,55ZM520,60.9a1.9,1.9,0,0,0,.45,1.31,1.53,1.53,0,0,0,1.21.52,1.43,1.43,0,0,0,1.14-.53,1.9,1.9,0,0,0,.45-1.27,2.05,2.05,0,0,0-.43-1.32,1.42,1.42,0,0,0-1.17-.54,1.55,1.55,0,0,0-1.2.51A2,2,0,0,0,520,60.9Z"/><path class="cls-6" d="M528.84,55a2.66,2.66,0,0,1,2.32,1.13,5.72,5.72,0,0,1,.79,3.3,5.83,5.83,0,0,1-.79,3.35,2.92,2.92,0,0,1-4.62,0,5.81,5.81,0,0,1-.79-3.35,5.74,5.74,0,0,1,.79-3.31A2.64,2.64,0,0,1,528.84,55Zm-1.7,4.44a10.28,10.28,0,0,0,.07,1.25,4.18,4.18,0,0,0,.26,1.06,1.83,1.83,0,0,0,.52.74,1.28,1.28,0,0,0,.85.28,1.31,1.31,0,0,0,1.08-.51,2.12,2.12,0,0,0,.31-.56,4.17,4.17,0,0,0,.2-.69,6.33,6.33,0,0,0,.1-.77q0-.4,0-.8a9.63,9.63,0,0,0-.08-1.27,3.8,3.8,0,0,0-.28-1,1.82,1.82,0,0,0-.53-.71,1.32,1.32,0,0,0-.84-.26,1.29,1.29,0,0,0-.6.13,1.39,1.39,0,0,0-.45.37,2,2,0,0,0-.31.55,4.32,4.32,0,0,0-.19.68,6.52,6.52,0,0,0-.11.76Q527.14,59,527.14,59.39Z"/><path class="cls-6" d="M509.92,86.13v1.21a8.83,8.83,0,0,0-1.24,1.49,10.33,10.33,0,0,0-.95,1.83,12,12,0,0,0-.87,4h-1.49a11.75,11.75,0,0,1,.93-3.82,13.7,13.7,0,0,1,2.2-3.45h-4.32V86.13Z"/><path class="cls-6" d="M516.24,92.65v2h-1.31v-2h-3.76V91.36L515,86.09h1.25V91.5h1.2v1.15Zm-1.31-4.82h0l-2.62,3.67h2.65Z"/><path class="cls-6" d="M521.58,86a3.64,3.64,0,0,1,1,.15,2.72,2.72,0,0,1,.88.44,2.18,2.18,0,0,1,.62.72,2.1,2.1,0,0,1,.23,1,2.16,2.16,0,0,1-.08.62,1.83,1.83,0,0,1-.25.52,1.63,1.63,0,0,1-.4.41,1.88,1.88,0,0,1-.56.27v0a1.93,1.93,0,0,1,1.2.71,2.07,2.07,0,0,1,.42,1.3,2.5,2.5,0,0,1-.89,2,3.31,3.31,0,0,1-2.23.76,3.84,3.84,0,0,1-1.17-.18,2.94,2.94,0,0,1-1-.52,2.49,2.49,0,0,1-.67-.84,2.55,2.55,0,0,1-.25-1.14v-.13h1.34v.13a1.45,1.45,0,0,0,.49,1.11,1.58,1.58,0,0,0,.52.3,1.91,1.91,0,0,0,.64.11,1.81,1.81,0,0,0,1.28-.44,1.45,1.45,0,0,0,.47-1.11,1.34,1.34,0,0,0-.45-1.09,2.2,2.2,0,0,0-1.46-.39H521v-1h.43a1.86,1.86,0,0,0,1.2-.35,1.1,1.1,0,0,0,.4-.9,1.39,1.39,0,0,0-.11-.58,1.12,1.12,0,0,0-.31-.41,1.34,1.34,0,0,0-.46-.24,2,2,0,0,0-.57-.08,1.7,1.7,0,0,0-.6.1,1.41,1.41,0,0,0-.48.3,1.44,1.44,0,0,0-.33.47,1.62,1.62,0,0,0-.13.64h-1.34a2.81,2.81,0,0,1,.23-1,2.55,2.55,0,0,1,.59-.84,2.75,2.75,0,0,1,.91-.56A3.27,3.27,0,0,1,521.58,86Z"/><path class="cls-6" d="M532,92.21a2.37,2.37,0,0,1-.89,1.95,3.88,3.88,0,0,1-4.51,0,2.33,2.33,0,0,1-.88-1.93,2.43,2.43,0,0,1,.11-.76,2.08,2.08,0,0,1,.33-.63,2,2,0,0,1,.52-.47,2.17,2.17,0,0,1,.7-.28v0a1.81,1.81,0,0,1-1-.67,1.92,1.92,0,0,1-.33-1.14,2,2,0,0,1,.81-1.65,3.16,3.16,0,0,1,2-.62,2.91,2.91,0,0,1,2,.67,2,2,0,0,1,.76,1.58,2.14,2.14,0,0,1-.08.61,1.83,1.83,0,0,1-.25.52,1.75,1.75,0,0,1-.41.42,2,2,0,0,1-.57.28v0a2.06,2.06,0,0,1,1.24.75A2.24,2.24,0,0,1,532,92.21Zm-1.39,0a1.45,1.45,0,0,0-.48-1.11,1.79,1.79,0,0,0-1.27-.44,1.88,1.88,0,0,0-1.27.42,1.42,1.42,0,0,0-.49,1.13,1.53,1.53,0,0,0,.5,1.18,1.79,1.79,0,0,0,1.27.46,1.74,1.74,0,0,0,1.25-.45A1.53,1.53,0,0,0,530.6,92.17Zm-.26-3.83a1.42,1.42,0,0,0-.11-.56,1,1,0,0,0-.32-.42,1.85,1.85,0,0,0-2.14,0,1.18,1.18,0,0,0-.42.94,1.19,1.19,0,0,0,.41.94,1.85,1.85,0,0,0,2.19,0A1.21,1.21,0,0,0,530.34,88.34Z"/><path class="cls-6" d="M514.32,117a3.64,3.64,0,0,1,1,.15,2.72,2.72,0,0,1,.88.44,2.18,2.18,0,0,1,.62.72,2.1,2.1,0,0,1,.23,1,2.16,2.16,0,0,1-.08.62,1.83,1.83,0,0,1-.25.52,1.63,1.63,0,0,1-.4.41,1.88,1.88,0,0,1-.56.27v0a1.93,1.93,0,0,1,1.2.71,2.07,2.07,0,0,1,.42,1.3,2.5,2.5,0,0,1-.89,2,3.31,3.31,0,0,1-2.23.76,3.84,3.84,0,0,1-1.17-.18,2.94,2.94,0,0,1-1-.52,2.49,2.49,0,0,1-.67-.84,2.55,2.55,0,0,1-.25-1.14v-.13h1.34v.13a1.45,1.45,0,0,0,.49,1.11,1.58,1.58,0,0,0,.52.3,1.91,1.91,0,0,0,.64.11,1.81,1.81,0,0,0,1.28-.44,1.45,1.45,0,0,0,.47-1.11,1.34,1.34,0,0,0-.45-1.09,2.2,2.2,0,0,0-1.46-.39h-.35v-1h.43a1.86,1.86,0,0,0,1.2-.35,1.1,1.1,0,0,0,.4-.9,1.39,1.39,0,0,0-.11-.58,1.12,1.12,0,0,0-.31-.41,1.34,1.34,0,0,0-.46-.24,2,2,0,0,0-.57-.08,1.7,1.7,0,0,0-.6.1,1.41,1.41,0,0,0-.48.3,1.44,1.44,0,0,0-.33.47,1.62,1.62,0,0,0-.13.64H511.4a2.81,2.81,0,0,1,.23-1,2.55,2.55,0,0,1,.59-.84,2.75,2.75,0,0,1,.91-.56A3.27,3.27,0,0,1,514.32,117Z"/><path class="cls-6" d="M524.45,117.13v1.21a8.83,8.83,0,0,0-1.24,1.49,10.33,10.33,0,0,0-.95,1.83,12,12,0,0,0-.87,4h-1.49a11.75,11.75,0,0,1,.93-3.82,13.7,13.7,0,0,1,2.2-3.45h-4.32v-1.29Z"/><path class="cls-6" d="M532,123.21a2.37,2.37,0,0,1-.89,1.95,3.88,3.88,0,0,1-4.51,0,2.33,2.33,0,0,1-.88-1.93,2.43,2.43,0,0,1,.11-.76,2.08,2.08,0,0,1,.33-.63,2,2,0,0,1,.52-.47,2.17,2.17,0,0,1,.7-.28v0a1.81,1.81,0,0,1-1-.67,1.92,1.92,0,0,1-.33-1.14,2,2,0,0,1,.81-1.65,3.16,3.16,0,0,1,2-.62,2.91,2.91,0,0,1,2,.67,2,2,0,0,1,.76,1.58,2.14,2.14,0,0,1-.08.61,1.83,1.83,0,0,1-.25.52,1.75,1.75,0,0,1-.41.42,2,2,0,0,1-.57.28v0a2.06,2.06,0,0,1,1.24.75A2.24,2.24,0,0,1,532,123.21Zm-1.39,0a1.45,1.45,0,0,0-.48-1.11,1.79,1.79,0,0,0-1.27-.44,1.88,1.88,0,0,0-1.27.42,1.42,1.42,0,0,0-.49,1.13,1.53,1.53,0,0,0,.5,1.18,1.79,1.79,0,0,0,1.27.46,1.74,1.74,0,0,0,1.25-.45A1.53,1.53,0,0,0,530.6,123.17Zm-.26-3.83a1.42,1.42,0,0,0-.11-.56,1,1,0,0,0-.32-.42,1.85,1.85,0,0,0-2.14,0,1.18,1.18,0,0,0-.42.94,1.19,1.19,0,0,0,.41.94,1.85,1.85,0,0,0,2.19,0A1.21,1.21,0,0,0,530.34,119.34Z"/><path class="cls-6" d="M499.44,156.69v-5.56h-2.15v-1.31a4.7,4.7,0,0,0,.89-.07,2.42,2.42,0,0,0,.65-.22,1.77,1.77,0,0,0,1-1.41h1.39v8.57Z"/><path class="cls-6" d="M509.72,148.13v1.44h-3.54l-.34,1.93,0,0a2.25,2.25,0,0,1,.72-.49,2.46,2.46,0,0,1,1-.17,2.62,2.62,0,0,1,1.11.23,2.45,2.45,0,0,1,.83.62,2.73,2.73,0,0,1,.52.92,3.49,3.49,0,0,1,.18,1.14,3,3,0,0,1-.24,1.19,3.06,3.06,0,0,1-.67,1,3.21,3.21,0,0,1-1,.67,3.25,3.25,0,0,1-1.28.25,4.66,4.66,0,0,1-1.18-.14,2.85,2.85,0,0,1-1-.45,2.35,2.35,0,0,1-.68-.78,2.71,2.71,0,0,1-.31-1.13h1.74a1.4,1.4,0,0,0,.13.42,1.07,1.07,0,0,0,.27.34,1.23,1.23,0,0,0,.4.22,1.68,1.68,0,0,0,.54.08,1.48,1.48,0,0,0,.65-.14,1.44,1.44,0,0,0,.48-.37,1.54,1.54,0,0,0,.29-.53,2,2,0,0,0,.1-.62,1.92,1.92,0,0,0-.1-.61,1.51,1.51,0,0,0-.28-.51,1.38,1.38,0,0,0-.47-.35,1.48,1.48,0,0,0-.64-.13,1.83,1.83,0,0,0-.42,0,1.35,1.35,0,0,0-.34.13,1.37,1.37,0,0,0-.29.21,2.19,2.19,0,0,0-.26.3h-1.56l.85-4.72Z"/><path class="cls-6" d="M514.35,148a3.62,3.62,0,0,1,1.06.16,2.77,2.77,0,0,1,.9.46,2.28,2.28,0,0,1,.62.74,2.14,2.14,0,0,1,.23,1,2.22,2.22,0,0,1-.08.59,1.73,1.73,0,0,1-.23.51,1.6,1.6,0,0,1-.37.4,1.72,1.72,0,0,1-.52.26v0a1.9,1.9,0,0,1,1.12.7,2,2,0,0,1,.4,1.25,2.54,2.54,0,0,1-.92,2,3.39,3.39,0,0,1-2.27.78,4,4,0,0,1-1.2-.18,3,3,0,0,1-1-.54,2.61,2.61,0,0,1-.69-.88,2.68,2.68,0,0,1-.26-1.2V154h1.65v.11a1.32,1.32,0,0,0,.13.6,1.29,1.29,0,0,0,.33.42,1.34,1.34,0,0,0,.45.25,1.62,1.62,0,0,0,.5.08,2,2,0,0,0,.62-.09,1.19,1.19,0,0,0,.48-.29,1.31,1.31,0,0,0,.38-1,1.16,1.16,0,0,0-.38-1,2.31,2.31,0,0,0-1.42-.32h-.19v-1.22H514a1.86,1.86,0,0,0,1.2-.32.89.89,0,0,0,.33-.74,1.29,1.29,0,0,0-.09-.52.94.94,0,0,0-.26-.35,1,1,0,0,0-.39-.2,1.7,1.7,0,0,0-.47-.06,1.56,1.56,0,0,0-.48.07,1.18,1.18,0,0,0-.41.23,1.14,1.14,0,0,0-.29.4,1.52,1.52,0,0,0-.12.58h-1.65a3,3,0,0,1,.25-1.11,2.59,2.59,0,0,1,.62-.86,2.73,2.73,0,0,1,.93-.55A3.56,3.56,0,0,1,514.35,148Z"/><path class="cls-6" d="M524.51,148.12v1.49a7.84,7.84,0,0,0-2,3.13,13.31,13.31,0,0,0-.57,2,11.23,11.23,0,0,0-.22,2h-1.86a12,12,0,0,1,.9-3.69,12.64,12.64,0,0,1,2-3.26h-4.06v-1.62Z"/><path class="cls-6" d="M529.11,148a3.17,3.17,0,0,1,1,.15,2.69,2.69,0,0,1,.82.43,2.32,2.32,0,0,1,.58.67,2.38,2.38,0,0,1,.3.87h-1.65a1.22,1.22,0,0,0-.38-.59,1.09,1.09,0,0,0-.72-.22,1.25,1.25,0,0,0-.57.12,1.39,1.39,0,0,0-.42.33,1.85,1.85,0,0,0-.3.47,3.35,3.35,0,0,0-.19.56,5.49,5.49,0,0,0-.11.58q0,.29-.05.55l0,0a2.11,2.11,0,0,1,.82-.73,2.54,2.54,0,0,1,1.1-.22,2.67,2.67,0,0,1,1.37.39,2.33,2.33,0,0,1,1,1,3.09,3.09,0,0,1,.23.67,3.33,3.33,0,0,1-.78,2.94,3.11,3.11,0,0,1-4.6-.26,5.54,5.54,0,0,1-.84-3.28,7.47,7.47,0,0,1,.08-1.05,6,6,0,0,1,.24-1,4.56,4.56,0,0,1,.43-.93,3.11,3.11,0,0,1,.64-.76,2.92,2.92,0,0,1,.88-.51A3.24,3.24,0,0,1,529.11,148Zm-1.55,5.88a1.72,1.72,0,0,0,.38,1.12,1.24,1.24,0,0,0,1,.47,1.15,1.15,0,0,0,.93-.46,1.67,1.67,0,0,0,.38-1.1,1.86,1.86,0,0,0-.35-1.14,1.15,1.15,0,0,0-1-.48,1.26,1.26,0,0,0-1,.45A1.72,1.72,0,0,0,527.56,153.84Z"/><line class="cls-7" x1="20" y1="43.5" x2="539" y2="43.5"/></g></svg>