<svg xmlns="http://www.w3.org/2000/svg" viewBox="0 0 298 114"><defs><style>.cls-1{fill:#fff;}.cls-10,.cls-11,.cls-2,.cls-5,.cls-6{fill:none;}.cls-2{stroke:#c8c8c8;}.cls-10,.cls-11,.cls-2{stroke-miterlimit:10;}.cls-3,.cls-4{fill:#f0f;}.cls-4,.cls-8{opacity:0.2;}.cls-5{opacity:0.1;}.cls-7{fill:#464646;}.cls-8{fill:#787878;}.cls-9{fill:#444;}.cls-10{stroke:#0aaeff;stroke-width:2px;}.cls-11{stroke:#f0f;}</style></defs><title>Artboard 11</title><g id="Bg"><rect class="cls-1" x="-806" y="-704" width="6000" height="2500"/></g><g id="Tabeller"><line class="cls-2" x1="5" y1="44.5" x2="286.67" y2="44.5"/><path class="cls-3" d="M5,18.18V13.89H3.47v-.37l.6,0a1.57,1.57,0,0,0,.38-.08.87.87,0,0,0,.43-.35,1.64,1.64,0,0,0,.21-.65h.42v5.77Z"/><path class="cls-3" d="M9.79,12.36a1.88,1.88,0,0,1,1.3.44A1.52,1.52,0,0,1,11.58,14a1.88,1.88,0,0,1-.37,1.11A4.63,4.63,0,0,1,9.88,16.2,5.51,5.51,0,0,0,8.77,17a1.33,1.33,0,0,0-.37.68h3.21v.48H7.81A2,2,0,0,1,8.18,17a4.41,4.41,0,0,1,1.29-1.11,5.86,5.86,0,0,0,1.26-1,1.4,1.4,0,0,0,.34-.94,1.09,1.09,0,0,0-.36-.85,1.34,1.34,0,0,0-.93-.33,1.36,1.36,0,0,0-.57.11,1.21,1.21,0,0,0-.4.29,1.19,1.19,0,0,0-.24.41,1.46,1.46,0,0,0-.08.47v.11H8v-.08a2,2,0,0,1,.11-.65,1.61,1.61,0,0,1,.34-.56A1.65,1.65,0,0,1,9,12.51,2,2,0,0,1,9.79,12.36Z"/><path class="cls-3" d="M19.31,16a3.19,3.19,0,0,1-.12.85,2.25,2.25,0,0,1-.36.74,1.79,1.79,0,0,1-.61.52,2,2,0,0,1-1.36.14,1.65,1.65,0,0,1-.43-.18,1.52,1.52,0,0,1-.36-.3,1.47,1.47,0,0,1-.26-.42h0V19.8h-.54v-6h.5v.83h0a1.49,1.49,0,0,1,.26-.41,1.53,1.53,0,0,1,.37-.3,1.79,1.79,0,0,1,.44-.19,1.87,1.87,0,0,1,.49-.06,1.9,1.9,0,0,1,.86.18,1.76,1.76,0,0,1,.62.5,2.22,2.22,0,0,1,.37.74A3.11,3.11,0,0,1,19.31,16Zm-.54,0a3,3,0,0,0-.07-.65,1.89,1.89,0,0,0-.24-.6A1.38,1.38,0,0,0,18,14.3a1.27,1.27,0,0,0-.68-.17,1.39,1.39,0,0,0-1.13.47,2.14,2.14,0,0,0-.39,1.4,2.79,2.79,0,0,0,.08.69,1.79,1.79,0,0,0,.27.6,1.4,1.4,0,0,0,.48.42,1.44,1.44,0,0,0,.71.16A1.25,1.25,0,0,0,18,17.7a1.35,1.35,0,0,0,.45-.42,1.91,1.91,0,0,0,.26-.6A2.77,2.77,0,0,0,18.77,16Z"/><path class="cls-3" d="M20.77,13.8,22,15.47l1.22-1.66h.67L22.32,15.9,24,18.18h-.68L22,16.34l-1.34,1.84H20l1.7-2.27L20.1,13.8Z"/><path class="cls-3" d="M144.06,18.18V13.89h-1.52v-.37l.6,0a1.54,1.54,0,0,0,.38-.08.86.86,0,0,0,.43-.35,1.63,1.63,0,0,0,.21-.65h.42v5.77Z"/><path class="cls-3" d="M148.86,12.36a1.88,1.88,0,0,1,1.3.44,1.52,1.52,0,0,1,.49,1.19,1.88,1.88,0,0,1-.37,1.11,4.61,4.61,0,0,1-1.34,1.11,5.56,5.56,0,0,0-1.11.82,1.33,1.33,0,0,0-.37.68h3.21v.48h-3.8a2,2,0,0,1,.37-1.16,4.43,4.43,0,0,1,1.29-1.11,5.83,5.83,0,0,0,1.26-1,1.4,1.4,0,0,0,.34-.94,1.09,1.09,0,0,0-.36-.85,1.34,1.34,0,0,0-.93-.33,1.36,1.36,0,0,0-.57.11,1.22,1.22,0,0,0-.4.29,1.19,1.19,0,0,0-.24.41,1.48,1.48,0,0,0-.08.47v.11H147v-.08a2,2,0,0,1,.11-.65,1.61,1.61,0,0,1,.34-.56,1.66,1.66,0,0,1,.57-.39A2,2,0,0,1,148.86,12.36Z"/><path class="cls-3" d="M158.38,16a3.17,3.17,0,0,1-.12.85,2.24,2.24,0,0,1-.36.74,1.78,1.78,0,0,1-.61.52,2,2,0,0,1-1.36.14,1.62,1.62,0,0,1-.43-.18,1.51,1.51,0,0,1-.36-.3,1.46,1.46,0,0,1-.26-.42h0v2.45h-.54v-6h.5v.83h0a1.53,1.53,0,0,1,.26-.41,1.55,1.55,0,0,1,.37-.3,1.81,1.81,0,0,1,.44-.19,1.88,1.88,0,0,1,.49-.06,1.91,1.91,0,0,1,.86.18,1.77,1.77,0,0,1,.62.5,2.22,2.22,0,0,1,.37.74A3.11,3.11,0,0,1,158.38,16Zm-.54,0a3,3,0,0,0-.07-.65,1.89,1.89,0,0,0-.24-.6,1.38,1.38,0,0,0-.45-.44,1.27,1.27,0,0,0-.68-.17,1.4,1.4,0,0,0-1.13.47,2.15,2.15,0,0,0-.39,1.4,2.82,2.82,0,0,0,.08.69,1.79,1.79,0,0,0,.27.6,1.4,1.4,0,0,0,.48.42,1.44,1.44,0,0,0,.71.16,1.24,1.24,0,0,0,.64-.16,1.35,1.35,0,0,0,.45-.42,1.9,1.9,0,0,0,.26-.6A2.75,2.75,0,0,0,157.85,16Z"/><path class="cls-3" d="M159.84,13.8l1.25,1.66,1.22-1.66H163L161.4,15.9l1.71,2.28h-.68l-1.37-1.84-1.34,1.84H159l1.7-2.27-1.57-2.1Z"/><path class="cls-3" d="M170.05,18.18V13.89h-1.52v-.37l.6,0a1.54,1.54,0,0,0,.38-.08.86.86,0,0,0,.43-.35,1.63,1.63,0,0,0,.21-.65h.42v5.77Z"/><path class="cls-3" d="M174.85,12.36a1.88,1.88,0,0,1,1.3.44,1.52,1.52,0,0,1,.49,1.19,1.88,1.88,0,0,1-.37,1.11,4.61,4.61,0,0,1-1.34,1.11,5.56,5.56,0,0,0-1.11.82,1.33,1.33,0,0,0-.37.68h3.21v.48h-3.8a2,2,0,0,1,.37-1.16,4.43,4.43,0,0,1,1.29-1.11,5.83,5.83,0,0,0,1.26-1,1.4,1.4,0,0,0,.34-.94,1.09,1.09,0,0,0-.36-.85,1.34,1.34,0,0,0-.93-.33,1.36,1.36,0,0,0-.57.11,1.22,1.22,0,0,0-.4.29,1.19,1.19,0,0,0-.24.41,1.48,1.48,0,0,0-.08.47v.11H173v-.08a2,2,0,0,1,.11-.65,1.61,1.61,0,0,1,.34-.56,1.66,1.66,0,0,1,.57-.39A2,2,0,0,1,174.85,12.36Z"/><path class="cls-3" d="M184.37,16a3.17,3.17,0,0,1-.12.85,2.24,2.24,0,0,1-.36.74,1.78,1.78,0,0,1-.61.52,2,2,0,0,1-1.36.14,1.62,1.62,0,0,1-.43-.18,1.51,1.51,0,0,1-.36-.3,1.46,1.46,0,0,1-.26-.42h0v2.45h-.54v-6h.5v.83h0a1.53,1.53,0,0,1,.26-.41,1.55,1.55,0,0,1,.37-.3,1.81,1.81,0,0,1,.44-.19,1.88,1.88,0,0,1,.49-.06,1.91,1.91,0,0,1,.86.18,1.77,1.77,0,0,1,.62.5,2.22,2.22,0,0,1,.37.74A3.11,3.11,0,0,1,184.37,16Zm-.54,0a3,3,0,0,0-.07-.65,1.89,1.89,0,0,0-.24-.6,1.38,1.38,0,0,0-.45-.44,1.27,1.27,0,0,0-.68-.17,1.4,1.4,0,0,0-1.13.47,2.15,2.15,0,0,0-.39,1.4,2.82,2.82,0,0,0,.08.69,1.79,1.79,0,0,0,.27.6,1.4,1.4,0,0,0,.48.42,1.44,1.44,0,0,0,.71.16,1.24,1.24,0,0,0,.64-.16,1.35,1.35,0,0,0,.45-.42,1.9,1.9,0,0,0,.26-.6A2.75,2.75,0,0,0,183.84,16Z"/><path class="cls-3" d="M185.83,13.8l1.25,1.66,1.22-1.66H189l-1.58,2.09,1.71,2.28h-.68L187,16.34l-1.34,1.84H185l1.7-2.27-1.57-2.1Z"/><path class="cls-3" d="M274.05,18.18V13.89h-1.52v-.37l.6,0a1.54,1.54,0,0,0,.38-.08.86.86,0,0,0,.43-.35,1.63,1.63,0,0,0,.21-.65h.42v5.77Z"/><path class="cls-3" d="M278.85,12.36a1.88,1.88,0,0,1,1.3.44,1.52,1.52,0,0,1,.49,1.19,1.88,1.88,0,0,1-.37,1.11,4.61,4.61,0,0,1-1.34,1.11,5.56,5.56,0,0,0-1.11.82,1.33,1.33,0,0,0-.37.68h3.21v.48h-3.8a2,2,0,0,1,.37-1.16,4.43,4.43,0,0,1,1.29-1.11,5.83,5.83,0,0,0,1.26-1,1.4,1.4,0,0,0,.34-.94,1.09,1.09,0,0,0-.36-.85,1.34,1.34,0,0,0-.93-.33,1.36,1.36,0,0,0-.57.11,1.22,1.22,0,0,0-.4.29,1.19,1.19,0,0,0-.24.41,1.48,1.48,0,0,0-.08.47v.11H277v-.08a2,2,0,0,1,.11-.65,1.61,1.61,0,0,1,.34-.56,1.66,1.66,0,0,1,.57-.39A2,2,0,0,1,278.85,12.36Z"/><path class="cls-3" d="M288.37,16a3.17,3.17,0,0,1-.12.85,2.24,2.24,0,0,1-.36.74,1.78,1.78,0,0,1-.61.52,2,2,0,0,1-1.36.14,1.62,1.62,0,0,1-.43-.18,1.51,1.51,0,0,1-.36-.3,1.46,1.46,0,0,1-.26-.42h0v2.45h-.54v-6h.5v.83h0a1.53,1.53,0,0,1,.26-.41,1.55,1.55,0,0,1,.37-.3,1.81,1.81,0,0,1,.44-.19,1.88,1.88,0,0,1,.49-.06,1.91,1.91,0,0,1,.86.18,1.77,1.77,0,0,1,.62.5,2.22,2.22,0,0,1,.37.74A3.11,3.11,0,0,1,288.37,16Zm-.54,0a3,3,0,0,0-.07-.65,1.89,1.89,0,0,0-.24-.6,1.38,1.38,0,0,0-.45-.44,1.27,1.27,0,0,0-.68-.17,1.4,1.4,0,0,0-1.13.47,2.15,2.15,0,0,0-.39,1.4,2.82,2.82,0,0,0,.08.69,1.79,1.79,0,0,0,.27.6,1.4,1.4,0,0,0,.48.42,1.44,1.44,0,0,0,.71.16,1.24,1.24,0,0,0,.64-.16,1.35,1.35,0,0,0,.45-.42,1.9,1.9,0,0,0,.26-.6A2.75,2.75,0,0,0,287.84,16Z"/><path class="cls-3" d="M289.83,13.8l1.25,1.66,1.22-1.66H293l-1.58,2.09,1.71,2.28h-.68L291,16.34l-1.34,1.84H289l1.7-2.27-1.57-2.1Z"/><rect class="cls-4" x="5" y="22" width="12" height="73"/><rect class="cls-4" x="152" y="22" width="12" height="73"/><rect class="cls-4" x="165.25" y="22" width="12" height="73"/><rect class="cls-4" x="276.25" y="22" width="12" height="73"/><rect class="cls-5" x="5" y="70" width="283" height="24"/><rect class="cls-6" x="5" y="20" width="283" height="24"/><rect class="cls-6" x="5" y="45" width="283" height="24"/><rect class="cls-6" x="5" y="70" width="283" height="24"/><rect class="cls-6" x="5" y="95" width="283" height="24"/><path class="cls-7" d="M20.71,28.93a3.18,3.18,0,0,1,2.37.9A3.63,3.63,0,0,1,24,32.48a3.74,3.74,0,0,1-.88,2.67,3.09,3.09,0,0,1-2.35.92H17.85V28.93ZM20.57,35a2.07,2.07,0,0,0,1.58-.59,2.62,2.62,0,0,0,.57-1.86,2.79,2.79,0,0,0-.58-2A2.34,2.34,0,0,0,20.36,30H19.1v5Z"/><path class="cls-7" d="M29.83,36.07l-.62-1.82h-3l-.62,1.82H24.36l2.57-7.13h1.69l2.52,7.13Zm-2.07-6.21h0L26.57,33.3H28.9Z"/><path class="cls-7" d="M36.53,28.93V30H34.26v6.08H33V30H30.74V28.93Z"/><path class="cls-7" d="M42.73,28.94V30H38.79v1.9h3.64v1H38.79V35h4v1H37.54V28.94Z"/><path class="cls-7" d="M182.89,28.93V30h-2.27v6.08h-1.25V30h-2.27V28.93Z"/><path class="cls-7" d="M185.16,28.93v7.14h-1.25V28.93Z"/><path class="cls-7" d="M193.28,36.07V30.34h0l-2,5.73h-1.08l-2-5.7h0v5.7h-1.18V28.94h1.83l2,5.56h0l1.91-5.56h1.82v7.13Z"/><path class="cls-7" d="M201.4,28.94V30h-3.94v1.9h3.64v1h-3.64V35h4v1h-5.25V28.94Z"/><rect class="cls-8" x="5" y="94" width="283" height="1"/><rect class="cls-8" x="5" y="69" width="283" height="1"/><path class="cls-9" d="M20.63,52.49a2.81,2.81,0,0,1,2,.66,2.28,2.28,0,0,1,.73,1.78,2.82,2.82,0,0,1-.55,1.66,7,7,0,0,1-2,1.66,8.29,8.29,0,0,0-1.66,1.23,2,2,0,0,0-.56,1h4.81v.72h-5.7a3,3,0,0,1,.56-1.74,6.61,6.61,0,0,1,1.93-1.66A8.78,8.78,0,0,0,22,56.32a2.11,2.11,0,0,0,.51-1.41A1.64,1.64,0,0,0,22,53.63a2,2,0,0,0-1.4-.49,2,2,0,0,0-.86.17,1.82,1.82,0,0,0-.61.44,1.77,1.77,0,0,0-.36.62,2.2,2.2,0,0,0-.12.71v.17h-.77v-.12a2.93,2.93,0,0,1,.17-1,2.42,2.42,0,0,1,.51-.84,2.47,2.47,0,0,1,.86-.59A3.06,3.06,0,0,1,20.63,52.49Z"/><path class="cls-9" d="M27.89,52.49a2.87,2.87,0,0,1,1.32.29,2.48,2.48,0,0,1,.94.85A4.14,4.14,0,0,1,30.72,55a8.64,8.64,0,0,1,.19,1.92,5.94,5.94,0,0,1-.77,3.35,2.82,2.82,0,0,1-4.49,0,5.89,5.89,0,0,1-.77-3.34,5.89,5.89,0,0,1,.77-3.35A2.56,2.56,0,0,1,27.89,52.49Zm-2.23,4.45q0,3.81,2.23,3.81t2.24-3.81a5.64,5.64,0,0,0-.57-2.84,1.84,1.84,0,0,0-1.68-1,1.82,1.82,0,0,0-1.65.94A5.63,5.63,0,0,0,25.66,56.93Z"/><path class="cls-9" d="M35.23,61.21V54.78H32.94v-.56q.53,0,.9-.06a2.36,2.36,0,0,0,.57-.13,1.3,1.3,0,0,0,.64-.52,2.46,2.46,0,0,0,.31-1H36v8.65Z"/><path class="cls-9" d="M44.86,52.66v.72H41.08l-.54,2.78,0,0a2.32,2.32,0,0,1,.82-.52,2.79,2.79,0,0,1,1-.18,3.18,3.18,0,0,1,1.2.22,2.6,2.6,0,0,1,.92.61,2.73,2.73,0,0,1,.59.94,3.43,3.43,0,0,1,.21,1.22A2.81,2.81,0,0,1,45,59.61a2.94,2.94,0,0,1-1.61,1.56,3.12,3.12,0,0,1-1.2.23,3.29,3.29,0,0,1-1.1-.17,2.59,2.59,0,0,1-.85-.48,2.26,2.26,0,0,1-.56-.74,2.52,2.52,0,0,1-.23-1h.79a1.84,1.84,0,0,0,.16.64,1.65,1.65,0,0,0,.4.54,2,2,0,0,0,.62.37,2.29,2.29,0,0,0,.83.14,2.06,2.06,0,0,0,.87-.18,2.14,2.14,0,0,0,.7-.5,2.4,2.4,0,0,0,.46-.75,2.49,2.49,0,0,0,.17-.92,2.41,2.41,0,0,0-.16-.86,2.12,2.12,0,0,0-1.14-1.2,2.2,2.2,0,0,0-.91-.18,2.55,2.55,0,0,0-1.07.23,2.22,2.22,0,0,0-.85.68h-.66l.81-4.38Z"/><path class="cls-9" d="M49.78,57.37v.7h-3v-.7Z"/><path class="cls-9" d="M54.13,52.49a2.87,2.87,0,0,1,1.32.29,2.48,2.48,0,0,1,.94.85A4.14,4.14,0,0,1,57,55a8.64,8.64,0,0,1,.19,1.92,5.94,5.94,0,0,1-.77,3.35,2.82,2.82,0,0,1-4.49,0,5.89,5.89,0,0,1-.77-3.34,5.89,5.89,0,0,1,.77-3.35A2.56,2.56,0,0,1,54.13,52.49ZM51.9,56.93q0,3.81,2.23,3.81t2.24-3.81a5.64,5.64,0,0,0-.57-2.84,1.84,1.84,0,0,0-1.68-1,1.82,1.82,0,0,0-1.65.94A5.63,5.63,0,0,0,51.9,56.93Z"/><path class="cls-9" d="M64.4,58.79a2.36,2.36,0,0,1-.83,1.91,3.22,3.22,0,0,1-2.16.7,3.18,3.18,0,0,1-2.16-.71,2.52,2.52,0,0,1-.7-2.64,2.28,2.28,0,0,1,.35-.67,2.18,2.18,0,0,1,1.28-.81v0a2.05,2.05,0,0,1-1.06-.72,2,2,0,0,1-.35-1.18,1.9,1.9,0,0,1,.76-1.57,2.91,2.91,0,0,1,1.86-.59,3,3,0,0,1,1.88.59A1.88,1.88,0,0,1,64,54.65a2.2,2.2,0,0,1-.09.65,1.81,1.81,0,0,1-.72,1,2.1,2.1,0,0,1-.6.28v0a2.18,2.18,0,0,1,1.32.76A2.29,2.29,0,0,1,64.4,58.79Zm-.78,0A1.75,1.75,0,0,0,63,57.44a2.78,2.78,0,0,0-3.24,0,1.76,1.76,0,0,0-.57,1.37,1.79,1.79,0,0,0,.6,1.42,2.7,2.7,0,0,0,3.2,0A1.79,1.79,0,0,0,63.62,58.79Zm-.36-4.14a1.35,1.35,0,0,0-.5-1.1,2.37,2.37,0,0,0-2.67,0,1.3,1.3,0,0,0-.53,1.09,1.48,1.48,0,0,0,.49,1.18,2,2,0,0,0,1.32.43,2,2,0,0,0,1.41-.45A1.52,1.52,0,0,0,63.25,54.65Z"/><path class="cls-9" d="M68.76,57.37v.7h-3v-.7Z"/><path class="cls-9" d="M73.11,52.49a2.81,2.81,0,0,1,2,.66,2.28,2.28,0,0,1,.73,1.78,2.82,2.82,0,0,1-.55,1.66,7,7,0,0,1-2,1.66,8.29,8.29,0,0,0-1.66,1.23,2,2,0,0,0-.56,1h4.81v.72h-5.7a3,3,0,0,1,.56-1.74,6.61,6.61,0,0,1,1.93-1.66,8.78,8.78,0,0,0,1.89-1.48A2.11,2.11,0,0,0,75,54.91a1.64,1.64,0,0,0-.54-1.28,2,2,0,0,0-1.4-.49,2,2,0,0,0-.86.17,1.82,1.82,0,0,0-.61.44,1.77,1.77,0,0,0-.36.62,2.2,2.2,0,0,0-.12.71v.17h-.77v-.12a2.93,2.93,0,0,1,.17-1A2.42,2.42,0,0,1,71,53.3a2.47,2.47,0,0,1,.86-.59A3.06,3.06,0,0,1,73.11,52.49Z"/><path class="cls-9" d="M82,59.06v2.15h-.71V59.06h-4v-.75l4-5.75H82V58.4h1.3v.66Zm-.71-5.36h0L78,58.4h3.29Z"/><path class="cls-9" d="M20.63,77.49a2.81,2.81,0,0,1,2,.66,2.28,2.28,0,0,1,.73,1.78,2.82,2.82,0,0,1-.55,1.66,7,7,0,0,1-2,1.66,8.29,8.29,0,0,0-1.66,1.23,2,2,0,0,0-.56,1h4.81v.72h-5.7a3,3,0,0,1,.56-1.74,6.61,6.61,0,0,1,1.93-1.66A8.78,8.78,0,0,0,22,81.32a2.11,2.11,0,0,0,.51-1.41A1.64,1.64,0,0,0,22,78.63a2,2,0,0,0-1.4-.49,2,2,0,0,0-.86.17,1.82,1.82,0,0,0-.61.44,1.77,1.77,0,0,0-.36.62,2.2,2.2,0,0,0-.12.71v.17h-.77v-.12a2.93,2.93,0,0,1,.17-1,2.42,2.42,0,0,1,.51-.84,2.47,2.47,0,0,1,.86-.59A3.06,3.06,0,0,1,20.63,77.49Z"/><path class="cls-9" d="M27.89,77.49a2.87,2.87,0,0,1,1.32.29,2.48,2.48,0,0,1,.94.85A4.14,4.14,0,0,1,30.72,80a8.64,8.64,0,0,1,.19,1.92,5.94,5.94,0,0,1-.77,3.35,2.82,2.82,0,0,1-4.49,0,7.62,7.62,0,0,1,0-6.69A2.56,2.56,0,0,1,27.89,77.49Zm-2.23,4.45q0,3.81,2.23,3.81t2.24-3.81a5.64,5.64,0,0,0-.57-2.84,1.84,1.84,0,0,0-1.68-1,1.82,1.82,0,0,0-1.65.94A5.63,5.63,0,0,0,25.66,81.93Z"/><path class="cls-9" d="M35.23,86.21V79.78H32.94v-.56q.53,0,.9-.06a2.36,2.36,0,0,0,.57-.13,1.3,1.3,0,0,0,.64-.52,2.46,2.46,0,0,0,.31-1H36v8.65Z"/><path class="cls-9" d="M44.86,77.66v.72H41.08l-.54,2.78,0,0a2.32,2.32,0,0,1,.82-.52,2.79,2.79,0,0,1,1-.18,3.18,3.18,0,0,1,1.2.22,2.6,2.6,0,0,1,.92.61,2.73,2.73,0,0,1,.59.94,3.43,3.43,0,0,1,.21,1.22A2.81,2.81,0,0,1,45,84.61a2.94,2.94,0,0,1-1.61,1.56,3.12,3.12,0,0,1-1.2.23,3.29,3.29,0,0,1-1.1-.17,2.59,2.59,0,0,1-.85-.48,2.26,2.26,0,0,1-.56-.74,2.52,2.52,0,0,1-.23-1h.79a1.84,1.84,0,0,0,.16.64,1.65,1.65,0,0,0,.4.54,2,2,0,0,0,.62.37,2.29,2.29,0,0,0,.83.14,2.06,2.06,0,0,0,.87-.18,2.14,2.14,0,0,0,.7-.5,2.4,2.4,0,0,0,.46-.75,2.49,2.49,0,0,0,.17-.92,2.41,2.41,0,0,0-.16-.86,2.12,2.12,0,0,0-1.14-1.2,2.2,2.2,0,0,0-.91-.18,2.55,2.55,0,0,0-1.07.23,2.22,2.22,0,0,0-.85.68h-.66l.81-4.38Z"/><path class="cls-9" d="M49.78,82.37v.7h-3v-.7Z"/><path class="cls-9" d="M54.13,77.49a2.87,2.87,0,0,1,1.32.29,2.48,2.48,0,0,1,.94.85A4.14,4.14,0,0,1,57,80a8.64,8.64,0,0,1,.19,1.92,5.94,5.94,0,0,1-.77,3.35,2.82,2.82,0,0,1-4.49,0,7.62,7.62,0,0,1,0-6.69A2.56,2.56,0,0,1,54.13,77.49ZM51.9,81.93q0,3.81,2.23,3.81t2.24-3.81a5.64,5.64,0,0,0-.57-2.84,1.84,1.84,0,0,0-1.68-1,1.82,1.82,0,0,0-1.65.94A5.63,5.63,0,0,0,51.9,81.93Z"/><path class="cls-9" d="M64.4,83.79a2.36,2.36,0,0,1-.83,1.91,3.22,3.22,0,0,1-2.16.7,3.18,3.18,0,0,1-2.16-.71,2.52,2.52,0,0,1-.7-2.64,2.28,2.28,0,0,1,.35-.67,2.18,2.18,0,0,1,1.28-.81v0a2.05,2.05,0,0,1-1.06-.72,2,2,0,0,1-.35-1.18,1.9,1.9,0,0,1,.76-1.57,2.91,2.91,0,0,1,1.86-.59,3,3,0,0,1,1.88.59A1.88,1.88,0,0,1,64,79.65a2.2,2.2,0,0,1-.09.65,1.81,1.81,0,0,1-.72,1,2.1,2.1,0,0,1-.6.28v0a2.18,2.18,0,0,1,1.32.76A2.29,2.29,0,0,1,64.4,83.79Zm-.78,0A1.75,1.75,0,0,0,63,82.44a2.78,2.78,0,0,0-3.24,0,1.76,1.76,0,0,0-.57,1.37,1.79,1.79,0,0,0,.6,1.42,2.7,2.7,0,0,0,3.2,0A1.79,1.79,0,0,0,63.62,83.79Zm-.36-4.14a1.35,1.35,0,0,0-.5-1.1,2.37,2.37,0,0,0-2.67,0,1.3,1.3,0,0,0-.53,1.09,1.48,1.48,0,0,0,.49,1.18,2,2,0,0,0,1.32.43,2,2,0,0,0,1.41-.45A1.52,1.52,0,0,0,63.25,79.65Z"/><path class="cls-9" d="M68.76,82.37v.7h-3v-.7Z"/><path class="cls-9" d="M73.11,77.49a2.81,2.81,0,0,1,2,.66,2.28,2.28,0,0,1,.73,1.78,2.82,2.82,0,0,1-.55,1.66,7,7,0,0,1-2,1.66,8.29,8.29,0,0,0-1.66,1.23,2,2,0,0,0-.56,1h4.81v.72h-5.7a3,3,0,0,1,.56-1.74,6.61,6.61,0,0,1,1.93-1.66,8.78,8.78,0,0,0,1.89-1.48A2.11,2.11,0,0,0,75,79.91a1.64,1.64,0,0,0-.54-1.28,2,2,0,0,0-1.4-.49,2,2,0,0,0-.86.17,1.82,1.82,0,0,0-.61.44,1.77,1.77,0,0,0-.36.62,2.2,2.2,0,0,0-.12.71v.17h-.77v-.12a2.93,2.93,0,0,1,.17-1A2.42,2.42,0,0,1,71,78.3a2.47,2.47,0,0,1,.86-.59A3.06,3.06,0,0,1,73.11,77.49Z"/><path class="cls-9" d="M82,84.06v2.15h-.71V84.06h-4v-.75l4-5.75H82V83.4h1.3v.66Zm-.71-5.36h0L78,83.4h3.29Z"/><path class="cls-9" d="M180.63,52.49a2.87,2.87,0,0,1,1.32.29,2.48,2.48,0,0,1,.94.85,4.14,4.14,0,0,1,.57,1.39,8.64,8.64,0,0,1,.19,1.92,5.94,5.94,0,0,1-.77,3.35,2.82,2.82,0,0,1-4.49,0,5.89,5.89,0,0,1-.77-3.34,5.89,5.89,0,0,1,.77-3.35A2.56,2.56,0,0,1,180.63,52.49Zm-2.23,4.45q0,3.81,2.23,3.81t2.24-3.81a5.64,5.64,0,0,0-.57-2.84,1.84,1.84,0,0,0-1.68-1,1.82,1.82,0,0,0-1.65.94A5.63,5.63,0,0,0,178.39,56.93Z"/><path class="cls-9" d="M190.89,58.79a2.36,2.36,0,0,1-.83,1.91,3.22,3.22,0,0,1-2.16.7,3.18,3.18,0,0,1-2.16-.71,2.52,2.52,0,0,1-.7-2.64,2.28,2.28,0,0,1,.35-.67,2.18,2.18,0,0,1,1.28-.81v0a2.05,2.05,0,0,1-1.06-.72,2,2,0,0,1-.35-1.18,1.9,1.9,0,0,1,.76-1.57,2.91,2.91,0,0,1,1.86-.59,3,3,0,0,1,1.88.59,1.88,1.88,0,0,1,.76,1.57,2.2,2.2,0,0,1-.09.65,1.81,1.81,0,0,1-.72,1,2.1,2.1,0,0,1-.6.28v0a2.18,2.18,0,0,1,1.32.76A2.29,2.29,0,0,1,190.89,58.79Zm-.78,0a1.75,1.75,0,0,0-.59-1.35,2.78,2.78,0,0,0-3.24,0,1.76,1.76,0,0,0-.57,1.37,1.79,1.79,0,0,0,.6,1.42,2.7,2.7,0,0,0,3.2,0A1.79,1.79,0,0,0,190.11,58.79Zm-.36-4.14a1.35,1.35,0,0,0-.5-1.1,2.37,2.37,0,0,0-2.67,0,1.3,1.3,0,0,0-.53,1.09,1.48,1.48,0,0,0,.49,1.18,2,2,0,0,0,1.32.43,2,2,0,0,0,1.41-.45A1.52,1.52,0,0,0,189.75,54.65Z"/><path class="cls-9" d="M193.93,54.89v1.27h-1.11V54.89Zm0,5v1.27h-1.11V59.94Z"/><path class="cls-9" d="M200.51,59.06v2.15h-.71V59.06h-4v-.75l4-5.75h.7V58.4h1.3v.66Zm-.71-5.36h0l-3.27,4.71h3.29Z"/><path class="cls-9" d="M206.11,52.49a2.87,2.87,0,0,1,1.32.29,2.48,2.48,0,0,1,.94.85,4.14,4.14,0,0,1,.57,1.39,8.64,8.64,0,0,1,.19,1.92,5.94,5.94,0,0,1-.77,3.35,2.82,2.82,0,0,1-4.49,0,5.89,5.89,0,0,1-.77-3.34,5.89,5.89,0,0,1,.77-3.35A2.56,2.56,0,0,1,206.11,52.49Zm-2.23,4.45q0,3.81,2.23,3.81t2.24-3.81a5.64,5.64,0,0,0-.57-2.84,1.84,1.84,0,0,0-1.68-1,1.82,1.82,0,0,0-1.65.94A5.63,5.63,0,0,0,203.88,56.93Z"/><path class="cls-9" d="M212.15,54.89v1.27H211V54.89Zm0,5v1.27H211V59.94Z"/><path class="cls-9" d="M218.73,59.06v2.15H218V59.06h-4v-.75l4-5.75h.7V58.4H220v.66ZM218,53.7h0l-3.27,4.71H218Z"/><path class="cls-9" d="M224.26,52.49a3.57,3.57,0,0,1,1,.13,2.67,2.67,0,0,1,.85.41,2.08,2.08,0,0,1,.6.69,2,2,0,0,1,.23,1,2.22,2.22,0,0,1-.1.66,1.82,1.82,0,0,1-.28.56,1.77,1.77,0,0,1-.45.42,2.14,2.14,0,0,1-.62.27v0a2.06,2.06,0,0,1,1.33.74,2.21,2.21,0,0,1,.45,1.39,2.41,2.41,0,0,1-.84,1.91,2.78,2.78,0,0,1-1,.55,3.78,3.78,0,0,1-1.21.18,3.66,3.66,0,0,1-1.12-.17,2.8,2.8,0,0,1-.92-.49,2.34,2.34,0,0,1-.63-.78,2.28,2.28,0,0,1-.23-1v-.18h.79v.16a1.74,1.74,0,0,0,.56,1.28,2,2,0,0,0,.66.4,2.45,2.45,0,0,0,.88.15,2.7,2.7,0,0,0,.91-.13,2.21,2.21,0,0,0,.69-.4,1.7,1.7,0,0,0,.64-1.38,1.89,1.89,0,0,0-.14-.75,1.64,1.64,0,0,0-.42-.58,2.22,2.22,0,0,0-1.53-.5h-.64v-.66h.69a1.86,1.86,0,0,0,1.21-.42,1.42,1.42,0,0,0,.52-1.15,1.59,1.59,0,0,0-.15-.71,1.48,1.48,0,0,0-.4-.51,1.73,1.73,0,0,0-.6-.31,2.56,2.56,0,0,0-.73-.1,2.1,2.1,0,0,0-.81.15,1.8,1.8,0,0,0-.61.41,1.82,1.82,0,0,0-.39.6,2,2,0,0,0-.13.73h-.78a2.44,2.44,0,0,1,.18-.92,2.53,2.53,0,0,1,.53-.82,2.7,2.7,0,0,1,.86-.59A2.82,2.82,0,0,1,224.26,52.49Z"/><path class="cls-9" d="M230.37,59.94v1.27h-1.11V59.94Z"/><path class="cls-9" d="M235.53,52.49a3.17,3.17,0,0,1,.94.13,2.34,2.34,0,0,1,.75.38,2.14,2.14,0,0,1,.54.62,2.49,2.49,0,0,1,.3.83h-.78a1.7,1.7,0,0,0-.19-.51,1.45,1.45,0,0,0-.35-.42,1.67,1.67,0,0,0-.52-.28,2.16,2.16,0,0,0-.69-.1,2,2,0,0,0-1,.25,2.1,2.1,0,0,0-.75.75,3.82,3.82,0,0,0-.45,1.21,8,8,0,0,0-.15,1.65h0a2.58,2.58,0,0,1,2.31-1.44,2.74,2.74,0,0,1,2.05.81,2.83,2.83,0,0,1,.8,2.08,2.84,2.84,0,0,1-2.94,2.94A3.09,3.09,0,0,1,234,61.1a2.31,2.31,0,0,1-.93-.84,4.2,4.2,0,0,1-.52-1.39,10.4,10.4,0,0,1-.17-2.05,8.43,8.43,0,0,1,.07-1.06,5.56,5.56,0,0,1,.22-1,4.46,4.46,0,0,1,.4-.89,2.83,2.83,0,0,1,.6-.72,2.66,2.66,0,0,1,.82-.48A3.07,3.07,0,0,1,235.53,52.49Zm-2.23,6a2.25,2.25,0,0,0,.57,1.63,2.11,2.11,0,0,0,1.59.59,1.91,1.91,0,0,0,1.49-.66,2.26,2.26,0,0,0,.59-1.56,2.4,2.4,0,0,0-.57-1.64,1.93,1.93,0,0,0-1.52-.65,2,2,0,0,0-1.54.63A2.3,2.3,0,0,0,233.3,58.52Z"/><path class="cls-9" d="M242.55,52.49a2.81,2.81,0,0,1,2,.66,2.28,2.28,0,0,1,.73,1.78,2.82,2.82,0,0,1-.55,1.66,7,7,0,0,1-2,1.66A8.29,8.29,0,0,0,241,59.47a2,2,0,0,0-.56,1h4.81v.72h-5.7a3,3,0,0,1,.56-1.74,6.61,6.61,0,0,1,1.93-1.66,8.78,8.78,0,0,0,1.89-1.48,2.11,2.11,0,0,0,.51-1.41,1.64,1.64,0,0,0-.54-1.28,2,2,0,0,0-1.4-.49,2,2,0,0,0-.86.17,1.82,1.82,0,0,0-.61.44,1.77,1.77,0,0,0-.36.62,2.2,2.2,0,0,0-.12.71v.17h-.77v-.12a2.93,2.93,0,0,1,.17-1,2.42,2.42,0,0,1,.51-.84,2.47,2.47,0,0,1,.86-.59A3.06,3.06,0,0,1,242.55,52.49Z"/><path class="cls-9" d="M249.74,52.49a3.57,3.57,0,0,1,1,.13,2.67,2.67,0,0,1,.85.41,2.08,2.08,0,0,1,.6.69,2,2,0,0,1,.23,1,2.22,2.22,0,0,1-.1.66,1.82,1.82,0,0,1-.28.56,1.77,1.77,0,0,1-.45.42,2.14,2.14,0,0,1-.62.27v0a2.06,2.06,0,0,1,1.33.74,2.21,2.21,0,0,1,.45,1.39,2.41,2.41,0,0,1-.84,1.91,2.78,2.78,0,0,1-1,.55,3.78,3.78,0,0,1-1.21.18,3.66,3.66,0,0,1-1.12-.17,2.8,2.8,0,0,1-.92-.49,2.34,2.34,0,0,1-.63-.78,2.28,2.28,0,0,1-.23-1v-.18h.79v.16a1.74,1.74,0,0,0,.56,1.28,2,2,0,0,0,.66.4,2.45,2.45,0,0,0,.88.15,2.7,2.7,0,0,0,.91-.13,2.21,2.21,0,0,0,.69-.4,1.7,1.7,0,0,0,.64-1.38,1.89,1.89,0,0,0-.14-.75,1.64,1.64,0,0,0-.42-.58,2.22,2.22,0,0,0-1.53-.5h-.64v-.66h.69a1.86,1.86,0,0,0,1.21-.42,1.42,1.42,0,0,0,.52-1.15,1.59,1.59,0,0,0-.15-.71,1.48,1.48,0,0,0-.4-.51,1.73,1.73,0,0,0-.6-.31,2.56,2.56,0,0,0-.73-.1,2.1,2.1,0,0,0-.81.15,1.8,1.8,0,0,0-.61.41,1.82,1.82,0,0,0-.39.6,2,2,0,0,0-.13.73H247a2.44,2.44,0,0,1,.18-.92,2.53,2.53,0,0,1,.53-.82,2.7,2.7,0,0,1,.86-.59A2.82,2.82,0,0,1,249.74,52.49Z"/><path class="cls-9" d="M180.63,77.49a2.87,2.87,0,0,1,1.32.29,2.48,2.48,0,0,1,.94.85,4.14,4.14,0,0,1,.57,1.39,8.64,8.64,0,0,1,.19,1.92,5.94,5.94,0,0,1-.77,3.35,2.82,2.82,0,0,1-4.49,0,7.62,7.62,0,0,1,0-6.69A2.56,2.56,0,0,1,180.63,77.49Zm-2.23,4.45q0,3.81,2.23,3.81t2.24-3.81a5.64,5.64,0,0,0-.57-2.84,1.84,1.84,0,0,0-1.68-1,1.82,1.82,0,0,0-1.65.94A5.63,5.63,0,0,0,178.39,81.93Z"/><path class="cls-9" d="M190.67,77.66v.71a13.7,13.7,0,0,0-1.42,1.75A13.19,13.19,0,0,0,188.18,82a11.5,11.5,0,0,0-.7,2,12.2,12.2,0,0,0-.31,2.14h-.84a12.81,12.81,0,0,1,.32-2.12,10.53,10.53,0,0,1,.67-1.93,15.67,15.67,0,0,1,2.58-3.79H185.1v-.71Z"/><path class="cls-9" d="M193.93,79.89v1.27h-1.11V79.89Zm0,5v1.27h-1.11V84.94Z"/><path class="cls-9" d="M198.78,77.49a3.57,3.57,0,0,1,1,.13,2.67,2.67,0,0,1,.85.41,2.08,2.08,0,0,1,.6.69,2,2,0,0,1,.23,1,2.22,2.22,0,0,1-.1.66,1.82,1.82,0,0,1-.28.56,1.77,1.77,0,0,1-.45.42,2.14,2.14,0,0,1-.62.27v0a2.06,2.06,0,0,1,1.33.74,2.21,2.21,0,0,1,.45,1.39,2.41,2.41,0,0,1-.84,1.91,2.78,2.78,0,0,1-1,.55,3.78,3.78,0,0,1-1.21.18,3.66,3.66,0,0,1-1.12-.17,2.8,2.8,0,0,1-.92-.49,2.34,2.34,0,0,1-.63-.78,2.28,2.28,0,0,1-.23-1v-.18h.79v.16a1.74,1.74,0,0,0,.56,1.28,2,2,0,0,0,.66.4,2.45,2.45,0,0,0,.88.15,2.7,2.7,0,0,0,.91-.13,2.21,2.21,0,0,0,.69-.4,1.7,1.7,0,0,0,.64-1.38,1.89,1.89,0,0,0-.14-.75,1.64,1.64,0,0,0-.42-.58,2.22,2.22,0,0,0-1.53-.5h-.64v-.66h.69a1.86,1.86,0,0,0,1.21-.42,1.42,1.42,0,0,0,.52-1.15,1.59,1.59,0,0,0-.15-.71,1.48,1.48,0,0,0-.4-.51,1.73,1.73,0,0,0-.6-.31,2.56,2.56,0,0,0-.73-.1,2.1,2.1,0,0,0-.81.15,1.8,1.8,0,0,0-.61.41,1.82,1.82,0,0,0-.39.6,2,2,0,0,0-.13.73H196a2.44,2.44,0,0,1,.18-.92,2.53,2.53,0,0,1,.53-.82,2.7,2.7,0,0,1,.86-.59A2.82,2.82,0,0,1,198.78,77.49Z"/><path class="cls-9" d="M205.9,86.4a3.17,3.17,0,0,1-.94-.13,2.34,2.34,0,0,1-.75-.38,2.14,2.14,0,0,1-.54-.62,2.49,2.49,0,0,1-.3-.83h.78a1.7,1.7,0,0,0,.19.51,1.45,1.45,0,0,0,.35.42,1.67,1.67,0,0,0,.52.28,2.16,2.16,0,0,0,.69.1,2,2,0,0,0,1-.25,2.1,2.1,0,0,0,.75-.75,3.82,3.82,0,0,0,.45-1.21,8,8,0,0,0,.15-1.65h0A2.58,2.58,0,0,1,206,83.31a2.74,2.74,0,0,1-2.05-.81,2.83,2.83,0,0,1-.8-2.08,2.84,2.84,0,0,1,2.94-2.94,3.09,3.09,0,0,1,1.41.29,2.31,2.31,0,0,1,.93.84A4.2,4.2,0,0,1,208.9,80a10.4,10.4,0,0,1,.17,2.05,8.43,8.43,0,0,1-.07,1.06,5.56,5.56,0,0,1-.22,1,4.46,4.46,0,0,1-.4.89,2.83,2.83,0,0,1-.6.72,2.66,2.66,0,0,1-.82.48A3.07,3.07,0,0,1,205.9,86.4Zm2.23-6a2.25,2.25,0,0,0-.57-1.63,2.11,2.11,0,0,0-1.59-.59,1.91,1.91,0,0,0-1.49.66,2.26,2.26,0,0,0-.59,1.56,2.4,2.4,0,0,0,.57,1.64,1.92,1.92,0,0,0,1.52.65,2,2,0,0,0,1.54-.63A2.29,2.29,0,0,0,208.13,80.36Z"/><path class="cls-9" d="M212.15,79.89v1.27H211V79.89Zm0,5v1.27H211V84.94Z"/><path class="cls-9" d="M218.73,84.06v2.15H218V84.06h-4v-.75l4-5.75h.7V83.4H220v.66ZM218,78.7h0l-3.27,4.71H218Z"/><path class="cls-9" d="M224.26,77.49a3.57,3.57,0,0,1,1,.13,2.67,2.67,0,0,1,.85.41,2.08,2.08,0,0,1,.6.69,2,2,0,0,1,.23,1,2.22,2.22,0,0,1-.1.66,1.82,1.82,0,0,1-.28.56,1.77,1.77,0,0,1-.45.42,2.14,2.14,0,0,1-.62.27v0a2.06,2.06,0,0,1,1.33.74,2.21,2.21,0,0,1,.45,1.39,2.41,2.41,0,0,1-.84,1.91,2.78,2.78,0,0,1-1,.55,3.78,3.78,0,0,1-1.21.18,3.66,3.66,0,0,1-1.12-.17,2.8,2.8,0,0,1-.92-.49,2.34,2.34,0,0,1-.63-.78,2.28,2.28,0,0,1-.23-1v-.18h.79v.16a1.74,1.74,0,0,0,.56,1.28,2,2,0,0,0,.66.4,2.45,2.45,0,0,0,.88.15,2.7,2.7,0,0,0,.91-.13,2.21,2.21,0,0,0,.69-.4,1.7,1.7,0,0,0,.64-1.38,1.89,1.89,0,0,0-.14-.75,1.64,1.64,0,0,0-.42-.58,2.22,2.22,0,0,0-1.53-.5h-.64v-.66h.69a1.86,1.86,0,0,0,1.21-.42,1.42,1.42,0,0,0,.52-1.15,1.59,1.59,0,0,0-.15-.71,1.48,1.48,0,0,0-.4-.51,1.73,1.73,0,0,0-.6-.31,2.56,2.56,0,0,0-.73-.1,2.1,2.1,0,0,0-.81.15,1.8,1.8,0,0,0-.61.41,1.82,1.82,0,0,0-.39.6,2,2,0,0,0-.13.73h-.78a2.44,2.44,0,0,1,.18-.92,2.53,2.53,0,0,1,.53-.82,2.7,2.7,0,0,1,.86-.59A2.82,2.82,0,0,1,224.26,77.49Z"/><path class="cls-9" d="M230.37,84.94v1.27h-1.11V84.94Z"/><path class="cls-9" d="M235.53,77.49a3.17,3.17,0,0,1,.94.13,2.34,2.34,0,0,1,.75.38,2.14,2.14,0,0,1,.54.62,2.49,2.49,0,0,1,.3.83h-.78a1.7,1.7,0,0,0-.19-.51,1.45,1.45,0,0,0-.35-.42,1.67,1.67,0,0,0-.52-.28,2.16,2.16,0,0,0-.69-.1,2,2,0,0,0-1,.25,2.1,2.1,0,0,0-.75.75,3.82,3.82,0,0,0-.45,1.21,8,8,0,0,0-.15,1.65h0a2.58,2.58,0,0,1,2.31-1.44,2.74,2.74,0,0,1,2.05.81,2.83,2.83,0,0,1,.8,2.08,2.84,2.84,0,0,1-2.94,2.94A3.09,3.09,0,0,1,234,86.1a2.31,2.31,0,0,1-.93-.84,4.2,4.2,0,0,1-.52-1.39,10.4,10.4,0,0,1-.17-2.05,8.43,8.43,0,0,1,.07-1.06,5.56,5.56,0,0,1,.22-1,4.46,4.46,0,0,1,.4-.89,2.83,2.83,0,0,1,.6-.72,2.66,2.66,0,0,1,.82-.48A3.07,3.07,0,0,1,235.53,77.49Zm-2.23,6a2.25,2.25,0,0,0,.57,1.63,2.11,2.11,0,0,0,1.59.59,1.91,1.91,0,0,0,1.49-.66,2.26,2.26,0,0,0,.59-1.56,2.4,2.4,0,0,0-.57-1.64,1.93,1.93,0,0,0-1.52-.65,2,2,0,0,0-1.54.63A2.3,2.3,0,0,0,233.3,83.52Z"/><path class="cls-9" d="M242.61,86.21V79.78h-2.29v-.56q.53,0,.9-.06a2.36,2.36,0,0,0,.57-.13,1.3,1.3,0,0,0,.64-.52,2.46,2.46,0,0,0,.31-1h.63v8.65Z"/><path class="cls-9" d="M252.59,77.66v.71a13.7,13.7,0,0,0-1.42,1.75A13.19,13.19,0,0,0,250.1,82a11.5,11.5,0,0,0-.7,2,12.2,12.2,0,0,0-.31,2.14h-.84a12.81,12.81,0,0,1,.32-2.12,10.53,10.53,0,0,1,.67-1.93,15.67,15.67,0,0,1,2.58-3.79H247v-.71Z"/><polygon class="cls-7" points="152.01 31 148 35 144 31 152.01 31"/><polyline class="cls-10" points="164 45 164 43 5 43 5 45"/><path class="cls-3" d="M161.53,107.6v-4.29H160v-.37l.6,0a1.57,1.57,0,0,0,.38-.08.87.87,0,0,0,.43-.35,1.64,1.64,0,0,0,.21-.65H162v5.77Z"/><path class="cls-3" d="M171,105.42a3.19,3.19,0,0,1-.12.85,2.25,2.25,0,0,1-.36.74,1.79,1.79,0,0,1-.61.52,2,2,0,0,1-1.36.14,1.65,1.65,0,0,1-.43-.18,1.52,1.52,0,0,1-.36-.3,1.47,1.47,0,0,1-.26-.42h0v2.45H167v-6h.5v.83h0a1.49,1.49,0,0,1,.26-.41,1.53,1.53,0,0,1,.37-.3,1.79,1.79,0,0,1,.44-.19,1.87,1.87,0,0,1,.49-.06,1.9,1.9,0,0,1,.86.18,1.76,1.76,0,0,1,.62.5,2.22,2.22,0,0,1,.37.74A3.11,3.11,0,0,1,171,105.42Zm-.54,0a3,3,0,0,0-.07-.65,1.89,1.89,0,0,0-.24-.6,1.38,1.38,0,0,0-.45-.44,1.27,1.27,0,0,0-.68-.17,1.39,1.39,0,0,0-1.13.47,2.14,2.14,0,0,0-.39,1.4,2.79,2.79,0,0,0,.08.69,1.79,1.79,0,0,0,.27.6,1.4,1.4,0,0,0,.48.42,1.44,1.44,0,0,0,.71.16,1.25,1.25,0,0,0,.64-.16,1.35,1.35,0,0,0,.45-.42,1.91,1.91,0,0,0,.26-.6A2.77,2.77,0,0,0,170.47,105.42Z"/><path class="cls-3" d="M172.46,103.23l1.25,1.66,1.22-1.66h.67L174,105.32l1.71,2.28H175l-1.37-1.84-1.34,1.84h-.66l1.7-2.27-1.57-2.1Z"/><line class="cls-11" x1="164.5" y1="82" x2="164.5" y2="101"/></g></svg>