<svg xmlns="http://www.w3.org/2000/svg" viewBox="0 0 753 251"><defs><style>.cls-1{fill:#fff;}.cls-2{fill:#d2d2d2;}.cls-3,.cls-4{fill:none;}.cls-3{opacity:0.1;}.cls-5{fill:#464646;}.cls-6{fill:#c8c8c8;}.cls-7{fill:#787878;opacity:0.2;}.cls-8{fill:#0aaeff;}.cls-13,.cls-9{fill:#d6f1ff;}.cls-9{opacity:0.6;}.cls-10{fill:#70cfff;}.cls-11{opacity:0.4;}.cls-12{fill:#5a5a5a;}.cls-13{opacity:0.5;}.cls-14{fill:#47c2ff;}</style></defs><title>Artboard 30 copy</title><g id="Bg"><rect class="cls-1" x="-3598" y="-668" width="6000" height="2500"/></g><g id="Tabeller"><rect class="cls-1" x="504.5" y="137.5" width="73" height="31"/><path class="cls-2" d="M577,138v30H505V138h72m1-1H504v32h74V137Z"/><rect class="cls-1" x="465.5" y="137.5" width="39" height="31"/><path class="cls-2" d="M504,138v30H466V138h38m1-1H465v32h40V137Z"/><rect class="cls-1" x="577.5" y="137.5" width="73" height="31"/><path class="cls-2" d="M650,138v30H578V138h72m1-1H577v32h74V137Z"/><rect class="cls-1" x="650.5" y="137.5" width="73" height="31"/><path class="cls-2" d="M723,138v30H651V138h72m1-1H650v32h74V137Z"/><rect class="cls-1" x="504.5" y="75.5" width="73" height="31"/><path class="cls-2" d="M577,76v30H505V76h72m1-1H504v32h74V75Z"/><rect class="cls-1" x="465.5" y="75.5" width="39" height="31"/><path class="cls-2" d="M504,76v30H466V76h38m1-1H465v32h40V75Z"/><rect class="cls-1" x="504.5" y="44.5" width="73" height="31"/><path class="cls-2" d="M577,45V75H505V45h72m1-1H504V76h74V44Z"/><rect class="cls-1" x="465.5" y="44.5" width="39" height="31"/><path class="cls-2" d="M504,45V75H466V45h38m1-1H465V76h40V44Z"/><rect class="cls-1" x="577.5" y="75.5" width="73" height="31"/><path class="cls-2" d="M650,76v30H578V76h72m1-1H577v32h74V75Z"/><rect class="cls-1" x="577.5" y="44.5" width="73" height="31"/><path class="cls-2" d="M650,45V75H578V45h72m1-1H577V76h74V44Z"/><rect class="cls-1" x="650.5" y="75.5" width="73" height="31"/><path class="cls-2" d="M723,76v30H651V76h72m1-1H650v32h74V75Z"/><rect class="cls-1" x="650.5" y="44.5" width="73" height="31"/><path class="cls-2" d="M723,45V75H651V45h72m1-1H650V76h74V44Z"/><rect class="cls-3" x="20" y="76" width="405" height="30"/><rect class="cls-4" x="20" y="20" width="405" height="24"/><rect class="cls-4" x="20" y="45" width="405" height="30"/><rect class="cls-4" x="20" y="76" width="405" height="30"/><rect class="cls-4" x="20" y="107" width="405" height="30"/><rect class="cls-4" x="20" y="138" width="405" height="30"/><path class="cls-5" d="M210.37,32.52a3.85,3.85,0,0,1-.95,2.66,3.21,3.21,0,0,1-2.51,1.05,3.63,3.63,0,0,1-1.36-.24,3.21,3.21,0,0,1-1.1-.75A3.36,3.36,0,0,1,203.7,34a4.46,4.46,0,0,1-.25-1.51,3.9,3.9,0,0,1,.95-2.7,3.21,3.21,0,0,1,2.51-1.05,3.69,3.69,0,0,1,1.37.25,3,3,0,0,1,1.1.76,3.35,3.35,0,0,1,.74,1.24A4.74,4.74,0,0,1,210.37,32.52Zm-1.25,0a3.07,3.07,0,0,0-.59-2,2.14,2.14,0,0,0-3.25,0,3.08,3.08,0,0,0-.58,2,3,3,0,0,0,.58,1.91,2.16,2.16,0,0,0,3.26,0A3,3,0,0,0,209.12,32.52Z"/><path class="cls-5" d="M217.58,34a2,2,0,0,1-.19.89,1.79,1.79,0,0,1-.52.64,2.32,2.32,0,0,1-.79.39,3.56,3.56,0,0,1-1,.13h-3.35V28.93H215a3.92,3.92,0,0,1,.92.1,2,2,0,0,1,.7.31,1.4,1.4,0,0,1,.45.55,1.87,1.87,0,0,1,.16.8,1.57,1.57,0,0,1-.28.94,1.69,1.69,0,0,1-.79.58h0a2.11,2.11,0,0,1,.61.25,1.51,1.51,0,0,1,.43.4,1.7,1.7,0,0,1,.25.52A2.13,2.13,0,0,1,217.58,34Zm-1.53-3.09a.9.9,0,0,0-.32-.76,1.51,1.51,0,0,0-.93-.24H213v2h1.89a1.63,1.63,0,0,0,.45-.06,1.09,1.09,0,0,0,.37-.18.85.85,0,0,0,.25-.31A1.07,1.07,0,0,0,216.05,30.93Zm.28,3a1,1,0,0,0-.35-.86,1.58,1.58,0,0,0-1-.29h-2v2.28h2a1.63,1.63,0,0,0,1-.28A1,1,0,0,0,216.33,34Z"/><path class="cls-5" d="M222.94,28.93v5a2.26,2.26,0,0,1-.63,1.76,2.34,2.34,0,0,1-1.64.51,2.7,2.7,0,0,1-.91-.15,1.86,1.86,0,0,1-1.16-1.14,2.77,2.77,0,0,1-.16-1v-.43h1.15v.19a2.87,2.87,0,0,0,.08.72,1,1,0,0,0,.2.43,1,1,0,0,0,.8.3,1,1,0,0,0,.77-.28,1.74,1.74,0,0,0,.24-1.07V28.93Z"/><path class="cls-5" d="M229.88,28.94V30h-3.94v1.9h3.64v1h-3.64V35h4v1H224.7V28.94Z"/><path class="cls-5" d="M234.26,28.78a3.75,3.75,0,0,1,1.1.15,2.89,2.89,0,0,1,.89.44,2.45,2.45,0,0,1,.64.71,2.65,2.65,0,0,1,.34.94H236a1.56,1.56,0,0,0-.21-.47,1.5,1.5,0,0,0-.37-.38,1.83,1.83,0,0,0-.52-.26,2.12,2.12,0,0,0-.65-.1,2,2,0,0,0-1.69.82,2.6,2.6,0,0,0-.41.86,3.79,3.79,0,0,0,0,2,2.56,2.56,0,0,0,.4.85,2.09,2.09,0,0,0,.69.6,2.07,2.07,0,0,0,1,.23,2,2,0,0,0,.71-.12,1.68,1.68,0,0,0,.55-.33,1.7,1.7,0,0,0,.38-.51,2.24,2.24,0,0,0,.2-.65h1.21a3.47,3.47,0,0,1-.29,1A2.66,2.66,0,0,1,235.48,36a3.45,3.45,0,0,1-1.24.21,3.54,3.54,0,0,1-1.43-.28,3.21,3.21,0,0,1-1.1-.78A3.43,3.43,0,0,1,231,34a4.33,4.33,0,0,1-.24-1.48,4.45,4.45,0,0,1,.23-1.43,3.57,3.57,0,0,1,.67-1.19,3.19,3.19,0,0,1,1.09-.82A3.49,3.49,0,0,1,234.26,28.78Z"/><path class="cls-5" d="M243.71,28.93V30h-2.27v6.08H240.2V30h-2.27V28.93Z"/><path class="cls-5" d="M328,28.94V30H324.1v1.9h3.64v1H324.1V35h4v1h-5.25V28.94Z"/><path class="cls-5" d="M330.13,28.93,332,34.66h0l1.86-5.73h1.3l-2.47,7.14h-1.42l-2.44-7.14Z"/><path class="cls-5" d="M341.34,28.94V30H337.4v1.9H341v1H337.4V35h4v1h-5.25V28.94Z"/><path class="cls-5" d="M344,28.93l3.4,5.3h0v-5.3h1.19v7.14h-1.27l-3.4-5.3h0v5.3h-1.19V28.93Z"/><path class="cls-5" d="M355.41,28.93V30h-2.27v6.08h-1.25V30h-2.27V28.93Z"/><rect class="cls-6" x="20" y="44" width="405" height="1"/><rect class="cls-6" x="465" y="44" width="258" height="1"/><rect class="cls-7" x="20" y="106" width="405" height="1"/><rect class="cls-7" x="20" y="75" width="405" height="1"/><rect class="cls-7" x="20" y="137" width="405" height="1"/><rect class="cls-4" x="20" y="138" width="405" height="30"/><rect class="cls-7" x="20" y="168" width="405" height="1"/><polygon class="cls-5" points="169.01 31 165 35 161 31 169.01 31"/><polyline class="cls-8" points="178 45 178 43 59 43 59 45"/><rect class="cls-9" x="20.5" y="137.5" width="404" height="31"/><path class="cls-10" d="M424,138v30H21V138H424m1-1H20v32H425V137Z"/><rect class="cls-9" x="20.5" y="106.5" width="404" height="31"/><path class="cls-10" d="M424,107v30H21V107H424m1-1H20v32H425V106Z"/><rect class="cls-1" x="33" y="84" width="14" height="14"/><g class="cls-11"><path class="cls-12" d="M46,85V97H34V85H46m1-1H33V98H47V84Z"/></g><rect class="cls-1" x="33" y="53" width="14" height="14"/><g class="cls-11"><path class="cls-12" d="M46,54V66H34V54H46m1-1H33V67H47V53Z"/></g><rect class="cls-1" x="33" y="146" width="14" height="14"/><g class="cls-11"><path class="cls-12" d="M46,147v12H34V147H46m1-1H33v14H47V146Z"/></g><rect class="cls-1" x="33" y="115" width="14" height="14"/><g class="cls-11"><path class="cls-12" d="M46,116v12H34V116H46m1-1H33v14H47V115Z"/></g><polygon class="cls-8" points="39.45 125.87 35.55 122.22 36.77 120.92 39.23 123.23 43.47 117.71 44.88 118.79 39.45 125.87"/><polygon class="cls-8" points="39.45 156.87 35.55 153.22 36.77 151.92 39.23 154.23 43.47 148.71 44.88 149.79 39.45 156.87"/><path class="cls-5" d="M211.64,60.93a4.7,4.7,0,0,1-1.1,3.2,3.68,3.68,0,0,1-2.94,1.27,3.72,3.72,0,0,1-2.95-1.25,5.26,5.26,0,0,1,0-6.43,3.72,3.72,0,0,1,2.95-1.25,4.81,4.81,0,0,1,.77.06,4,4,0,0,1,.74.19,3.72,3.72,0,0,1,.69.34,3.43,3.43,0,0,1,.61.49,3.49,3.49,0,0,1,.55.71,4.58,4.58,0,0,1,.38.83,5.41,5.41,0,0,1,.22.91A6.57,6.57,0,0,1,211.64,60.93Zm-.81,0a4.21,4.21,0,0,0-.85-2.69,2.86,2.86,0,0,0-2.38-1.08,2.89,2.89,0,0,0-2.36,1.05,4.15,4.15,0,0,0-.86,2.71,4.22,4.22,0,0,0,.85,2.7,3.16,3.16,0,0,0,4.74,0A4.21,4.21,0,0,0,210.83,60.93Z"/><path class="cls-5" d="M219.36,61.93a4.77,4.77,0,0,1-.17,1.28,3.38,3.38,0,0,1-.53,1.11,2.69,2.69,0,0,1-.92.79,2.8,2.8,0,0,1-1.33.3,2.9,2.9,0,0,1-.72-.09A2.59,2.59,0,0,1,215,65a2.34,2.34,0,0,1-.55-.45,2.18,2.18,0,0,1-.4-.63h0v1.25h-.74V56.13h.8V59.9h0a2,2,0,0,1,.36-.61,2.25,2.25,0,0,1,.54-.45,2.5,2.5,0,0,1,.66-.28,3,3,0,0,1,2,.18,2.62,2.62,0,0,1,.91.75,3.34,3.34,0,0,1,.55,1.1A5,5,0,0,1,219.36,61.93Zm-.8,0a4.39,4.39,0,0,0,0-.65,3.54,3.54,0,0,0-.16-.64,2.89,2.89,0,0,0-.28-.59,2.08,2.08,0,0,0-.41-.48,1.83,1.83,0,0,0-.55-.32,2,2,0,0,0-.71-.12,2.05,2.05,0,0,0-1.73.85,2.72,2.72,0,0,0-.42.89,3.94,3.94,0,0,0-.14,1.06,4.21,4.21,0,0,0,.13,1,2.67,2.67,0,0,0,.4.9,2.08,2.08,0,0,0,.71.63,2.18,2.18,0,0,0,1.06.24,1.88,1.88,0,0,0,1-.23,2,2,0,0,0,.66-.63,2.9,2.9,0,0,0,.38-.89A4.91,4.91,0,0,0,218.56,61.93Z"/><path class="cls-5" d="M222.09,65.87a2.15,2.15,0,0,1-.34,1.32,1.29,1.29,0,0,1-1.1.44h-.3l-.31,0V67h.38a.84.84,0,0,0,.67-.21,1,1,0,0,0,.2-.7V58.65h.8Zm-.8-8.81V55.78h.8v1.29Z"/><path class="cls-5" d="M226.87,58.46a2.71,2.71,0,0,1,1.3.29,2.6,2.6,0,0,1,.9.79,3.45,3.45,0,0,1,.52,1.13,5.21,5.21,0,0,1,.17,1.34v.13h-5.05a3.58,3.58,0,0,0,.13.94,2.59,2.59,0,0,0,.39.83,2,2,0,0,0,.66.59,1.92,1.92,0,0,0,.95.22,2.44,2.44,0,0,0,.7-.09,2,2,0,0,0,.56-.26,1.76,1.76,0,0,0,.42-.39,2.41,2.41,0,0,0,.29-.49h.79a3,3,0,0,1-.38.79,2.48,2.48,0,0,1-.59.6,2.68,2.68,0,0,1-.79.39,3.34,3.34,0,0,1-1,.14,2.94,2.94,0,0,1-1.3-.27,2.56,2.56,0,0,1-.91-.73,3.12,3.12,0,0,1-.54-1.1,5.14,5.14,0,0,1-.18-1.37,4.66,4.66,0,0,1,.18-1.28,3.36,3.36,0,0,1,.54-1.11,2.74,2.74,0,0,1,.92-.78A2.79,2.79,0,0,1,226.87,58.46Zm2.09,3a3,3,0,0,0-.16-.85,2.44,2.44,0,0,0-.41-.75,2.07,2.07,0,0,0-.65-.54,1.84,1.84,0,0,0-.88-.21,1.84,1.84,0,0,0-1.5.7,2.7,2.7,0,0,0-.42.75,4.31,4.31,0,0,0-.23.9Z"/><path class="cls-5" d="M234.14,58.46a3.46,3.46,0,0,1,1,.13,2.53,2.53,0,0,1,.78.38,2,2,0,0,1,.56.61,2.31,2.31,0,0,1,.29.82h-.8a1.73,1.73,0,0,0-.22-.52,1.5,1.5,0,0,0-.37-.4,1.7,1.7,0,0,0-.53-.26,2.34,2.34,0,0,0-.68-.09,2,2,0,0,0-1,.23,2.19,2.19,0,0,0-.72.63,2.91,2.91,0,0,0-.44.9,3.58,3.58,0,0,0-.15,1,3.67,3.67,0,0,0,.14,1,2.88,2.88,0,0,0,.42.9,2.26,2.26,0,0,0,.71.65,2,2,0,0,0,1,.25,1.93,1.93,0,0,0,.71-.13,1.88,1.88,0,0,0,.56-.34,1.79,1.79,0,0,0,.39-.49,1.87,1.87,0,0,0,.21-.58h.8a3,3,0,0,1-.29.85,2.49,2.49,0,0,1-.55.7,2.54,2.54,0,0,1-.8.48,2.88,2.88,0,0,1-1,.18,3,3,0,0,1-1.29-.27,2.85,2.85,0,0,1-1-.74,3.28,3.28,0,0,1-.61-1.1,4.47,4.47,0,0,1,0-2.67,3.31,3.31,0,0,1,.59-1.11,2.9,2.9,0,0,1,1-.77A3,3,0,0,1,234.14,58.46Z"/><path class="cls-5" d="M241.22,65.27h-.66a3,3,0,0,1-.68-.06,1,1,0,0,1-.45-.23.89.89,0,0,1-.25-.43,2.65,2.65,0,0,1-.07-.68V59.32h-1.32v-.67h1.32v-2h.8v2h1.5v.67h-1.5V63.8a1.76,1.76,0,0,0,0,.34.64.64,0,0,0,.11.25.5.5,0,0,0,.21.16.87.87,0,0,0,.35.06h.6l.21,0v.68Z"/><path class="cls-5" d="M249.28,65.21V58.78H247v-.56q.53,0,.9-.06a2.36,2.36,0,0,0,.57-.13,1.3,1.3,0,0,0,.64-.52,2.46,2.46,0,0,0,.31-1h.63v8.65Z"/><path class="cls-5" d="M211.64,91.93a4.7,4.7,0,0,1-1.1,3.2,3.68,3.68,0,0,1-2.94,1.27,3.72,3.72,0,0,1-2.95-1.25,5.26,5.26,0,0,1,0-6.43,3.72,3.72,0,0,1,2.95-1.25,4.81,4.81,0,0,1,.77.06,4,4,0,0,1,.74.19,3.72,3.72,0,0,1,.69.34,3.43,3.43,0,0,1,.61.49,3.49,3.49,0,0,1,.55.71,4.58,4.58,0,0,1,.38.83,5.41,5.41,0,0,1,.22.91A6.57,6.57,0,0,1,211.64,91.93Zm-.81,0a4.21,4.21,0,0,0-.85-2.69,2.86,2.86,0,0,0-2.38-1.08,2.89,2.89,0,0,0-2.36,1.05,4.15,4.15,0,0,0-.86,2.71,4.22,4.22,0,0,0,.85,2.7,3.16,3.16,0,0,0,4.74,0A4.21,4.21,0,0,0,210.83,91.93Z"/><path class="cls-5" d="M219.36,92.93a4.77,4.77,0,0,1-.17,1.28,3.38,3.38,0,0,1-.53,1.11,2.69,2.69,0,0,1-.92.79,2.8,2.8,0,0,1-1.33.3,2.9,2.9,0,0,1-.72-.09A2.59,2.59,0,0,1,215,96a2.34,2.34,0,0,1-.55-.45,2.18,2.18,0,0,1-.4-.63h0v1.25h-.74V87.13h.8V90.9h0a2,2,0,0,1,.36-.61,2.25,2.25,0,0,1,.54-.45,2.5,2.5,0,0,1,.66-.28,3,3,0,0,1,2,.18,2.62,2.62,0,0,1,.91.75,3.34,3.34,0,0,1,.55,1.1A5,5,0,0,1,219.36,92.93Zm-.8,0a4.39,4.39,0,0,0,0-.65,3.54,3.54,0,0,0-.16-.64,2.89,2.89,0,0,0-.28-.59,2.08,2.08,0,0,0-.41-.48,1.83,1.83,0,0,0-.55-.32,2,2,0,0,0-.71-.12,2.05,2.05,0,0,0-1.73.85,2.72,2.72,0,0,0-.42.89,3.94,3.94,0,0,0-.14,1.06,4.21,4.21,0,0,0,.13,1,2.67,2.67,0,0,0,.4.9,2.08,2.08,0,0,0,.71.63,2.18,2.18,0,0,0,1.06.24,1.88,1.88,0,0,0,1-.23,2,2,0,0,0,.66-.63,2.9,2.9,0,0,0,.38-.89A4.91,4.91,0,0,0,218.56,92.93Z"/><path class="cls-5" d="M222.09,96.87a2.15,2.15,0,0,1-.34,1.32,1.29,1.29,0,0,1-1.1.44h-.3l-.31,0V98h.38a.84.84,0,0,0,.67-.21,1,1,0,0,0,.2-.7V89.65h.8Zm-.8-8.81V86.78h.8v1.29Z"/><path class="cls-5" d="M226.87,89.46a2.71,2.71,0,0,1,1.3.29,2.6,2.6,0,0,1,.9.79,3.45,3.45,0,0,1,.52,1.13,5.21,5.21,0,0,1,.17,1.34v.13h-5.05a3.58,3.58,0,0,0,.13.94,2.59,2.59,0,0,0,.39.83,2,2,0,0,0,.66.59,1.92,1.92,0,0,0,.95.22,2.44,2.44,0,0,0,.7-.09,2,2,0,0,0,.56-.26,1.76,1.76,0,0,0,.42-.39,2.41,2.41,0,0,0,.29-.49h.79a3,3,0,0,1-.38.79,2.48,2.48,0,0,1-.59.6,2.68,2.68,0,0,1-.79.39,3.34,3.34,0,0,1-1,.14,2.94,2.94,0,0,1-1.3-.27,2.56,2.56,0,0,1-.91-.73,3.12,3.12,0,0,1-.54-1.1,5.14,5.14,0,0,1-.18-1.37,4.66,4.66,0,0,1,.18-1.28,3.36,3.36,0,0,1,.54-1.11,2.74,2.74,0,0,1,.92-.78A2.79,2.79,0,0,1,226.87,89.46Zm2.09,3a3,3,0,0,0-.16-.85,2.44,2.44,0,0,0-.41-.75,2.07,2.07,0,0,0-.65-.54,1.84,1.84,0,0,0-.88-.21,1.84,1.84,0,0,0-1.5.7,2.7,2.7,0,0,0-.42.75,4.31,4.31,0,0,0-.23.9Z"/><path class="cls-5" d="M234.14,89.46a3.46,3.46,0,0,1,1,.13,2.53,2.53,0,0,1,.78.38,2,2,0,0,1,.56.61,2.31,2.31,0,0,1,.29.82h-.8a1.73,1.73,0,0,0-.22-.52,1.5,1.5,0,0,0-.37-.4,1.7,1.7,0,0,0-.53-.26,2.34,2.34,0,0,0-.68-.09,2,2,0,0,0-1,.23,2.19,2.19,0,0,0-.72.63,2.91,2.91,0,0,0-.44.9,3.58,3.58,0,0,0-.15,1,3.67,3.67,0,0,0,.14,1,2.88,2.88,0,0,0,.42.9,2.26,2.26,0,0,0,.71.65,2,2,0,0,0,1,.25,1.93,1.93,0,0,0,.71-.13,1.88,1.88,0,0,0,.56-.34,1.79,1.79,0,0,0,.39-.49,1.87,1.87,0,0,0,.21-.58h.8a3,3,0,0,1-.29.85,2.49,2.49,0,0,1-.55.7,2.54,2.54,0,0,1-.8.48,2.88,2.88,0,0,1-1,.18,3,3,0,0,1-1.29-.27,2.85,2.85,0,0,1-1-.74,3.28,3.28,0,0,1-.61-1.1,4.47,4.47,0,0,1,0-2.67,3.31,3.31,0,0,1,.59-1.11,2.9,2.9,0,0,1,1-.77A3,3,0,0,1,234.14,89.46Z"/><path class="cls-5" d="M241.22,96.27h-.66a3,3,0,0,1-.68-.06,1,1,0,0,1-.45-.23.89.89,0,0,1-.25-.43,2.65,2.65,0,0,1-.07-.68V90.32h-1.32v-.67h1.32v-2h.8v2h1.5v.67h-1.5V94.8a1.76,1.76,0,0,0,0,.34.64.64,0,0,0,.11.25.5.5,0,0,0,.21.16.87.87,0,0,0,.35.06h.6l.21,0v.68Z"/><path class="cls-5" d="M249.21,87.49a2.81,2.81,0,0,1,2,.66,2.28,2.28,0,0,1,.73,1.78,2.82,2.82,0,0,1-.55,1.66,7,7,0,0,1-2,1.66,8.29,8.29,0,0,0-1.66,1.23,2,2,0,0,0-.56,1h4.81v.72h-5.7a3,3,0,0,1,.56-1.74,6.61,6.61,0,0,1,1.93-1.66,8.78,8.78,0,0,0,1.89-1.48,2.11,2.11,0,0,0,.51-1.41,1.64,1.64,0,0,0-.54-1.28,2,2,0,0,0-1.4-.49,2,2,0,0,0-.86.17,1.82,1.82,0,0,0-.61.44,1.77,1.77,0,0,0-.36.62,2.2,2.2,0,0,0-.12.71v.17h-.77v-.12a2.93,2.93,0,0,1,.17-1,2.42,2.42,0,0,1,.51-.84,2.47,2.47,0,0,1,.86-.59A3.06,3.06,0,0,1,249.21,87.49Z"/><path class="cls-5" d="M211.64,122.93a4.7,4.7,0,0,1-1.1,3.2,3.68,3.68,0,0,1-2.94,1.27,3.72,3.72,0,0,1-2.95-1.25,5.26,5.26,0,0,1,0-6.43,3.72,3.72,0,0,1,2.95-1.25,4.81,4.81,0,0,1,.77.06,4,4,0,0,1,.74.19,3.72,3.72,0,0,1,.69.34,3.43,3.43,0,0,1,.61.49,3.49,3.49,0,0,1,.55.71,4.58,4.58,0,0,1,.38.83,5.41,5.41,0,0,1,.22.91A6.57,6.57,0,0,1,211.64,122.93Zm-.81,0a4.21,4.21,0,0,0-.85-2.69,2.86,2.86,0,0,0-2.38-1.08,2.89,2.89,0,0,0-2.36,1.05,4.15,4.15,0,0,0-.86,2.71,4.22,4.22,0,0,0,.85,2.7,3.16,3.16,0,0,0,4.74,0A4.21,4.21,0,0,0,210.83,122.93Z"/><path class="cls-5" d="M219.36,123.93a4.77,4.77,0,0,1-.17,1.28,3.38,3.38,0,0,1-.53,1.11,2.69,2.69,0,0,1-.92.79,2.8,2.8,0,0,1-1.33.3,2.9,2.9,0,0,1-.72-.09A2.59,2.59,0,0,1,215,127a2.34,2.34,0,0,1-.55-.45,2.18,2.18,0,0,1-.4-.63h0v1.25h-.74v-9.08h.8v3.77h0a2,2,0,0,1,.36-.61,2.25,2.25,0,0,1,.54-.45,2.5,2.5,0,0,1,.66-.28,3,3,0,0,1,2,.18,2.62,2.62,0,0,1,.91.75,3.34,3.34,0,0,1,.55,1.1A5,5,0,0,1,219.36,123.93Zm-.8,0a4.39,4.39,0,0,0,0-.65,3.54,3.54,0,0,0-.16-.64,2.89,2.89,0,0,0-.28-.59,2.08,2.08,0,0,0-.41-.48,1.83,1.83,0,0,0-.55-.32,2,2,0,0,0-.71-.12,2.05,2.05,0,0,0-1.73.85,2.72,2.72,0,0,0-.42.89,3.94,3.94,0,0,0-.14,1.06,4.21,4.21,0,0,0,.13,1,2.67,2.67,0,0,0,.4.9,2.08,2.08,0,0,0,.71.63,2.18,2.18,0,0,0,1.06.24,1.88,1.88,0,0,0,1-.23,2,2,0,0,0,.66-.63,2.9,2.9,0,0,0,.38-.89A4.91,4.91,0,0,0,218.56,123.93Z"/><path class="cls-5" d="M222.09,127.87a2.15,2.15,0,0,1-.34,1.32,1.29,1.29,0,0,1-1.1.44h-.3l-.31,0V129h.38a.84.84,0,0,0,.67-.21,1,1,0,0,0,.2-.7v-7.41h.8Zm-.8-8.81v-1.29h.8v1.29Z"/><path class="cls-5" d="M226.87,120.46a2.71,2.71,0,0,1,1.3.29,2.6,2.6,0,0,1,.9.79,3.45,3.45,0,0,1,.52,1.13,5.21,5.21,0,0,1,.17,1.34v.13h-5.05a3.58,3.58,0,0,0,.13.94,2.59,2.59,0,0,0,.39.83,2,2,0,0,0,.66.59,1.92,1.92,0,0,0,.95.22,2.44,2.44,0,0,0,.7-.09,2,2,0,0,0,.56-.26,1.76,1.76,0,0,0,.42-.39,2.41,2.41,0,0,0,.29-.49h.79a3,3,0,0,1-.38.79,2.48,2.48,0,0,1-.59.6,2.68,2.68,0,0,1-.79.39,3.34,3.34,0,0,1-1,.14,2.94,2.94,0,0,1-1.3-.27,2.56,2.56,0,0,1-.91-.73,3.12,3.12,0,0,1-.54-1.1,5.14,5.14,0,0,1-.18-1.37,4.66,4.66,0,0,1,.18-1.28,3.36,3.36,0,0,1,.54-1.11,2.74,2.74,0,0,1,.92-.78A2.79,2.79,0,0,1,226.87,120.46Zm2.09,3a3,3,0,0,0-.16-.85,2.44,2.44,0,0,0-.41-.75,2.07,2.07,0,0,0-.65-.54,1.84,1.84,0,0,0-.88-.21,1.84,1.84,0,0,0-1.5.7,2.7,2.7,0,0,0-.42.75,4.31,4.31,0,0,0-.23.9Z"/><path class="cls-5" d="M234.14,120.46a3.46,3.46,0,0,1,1,.13,2.53,2.53,0,0,1,.78.38,2,2,0,0,1,.56.61,2.31,2.31,0,0,1,.29.82h-.8a1.73,1.73,0,0,0-.22-.52,1.5,1.5,0,0,0-.37-.4,1.7,1.7,0,0,0-.53-.26,2.34,2.34,0,0,0-.68-.09,2,2,0,0,0-1,.23,2.19,2.19,0,0,0-.72.63,2.91,2.91,0,0,0-.44.9,3.58,3.58,0,0,0-.15,1,3.67,3.67,0,0,0,.14,1,2.88,2.88,0,0,0,.42.9,2.26,2.26,0,0,0,.71.65,2,2,0,0,0,1,.25,1.93,1.93,0,0,0,.71-.13,1.88,1.88,0,0,0,.56-.34,1.79,1.79,0,0,0,.39-.49,1.87,1.87,0,0,0,.21-.58h.8a3,3,0,0,1-.29.85,2.49,2.49,0,0,1-.55.7,2.54,2.54,0,0,1-.8.48,2.88,2.88,0,0,1-1,.18,3,3,0,0,1-1.29-.27,2.85,2.85,0,0,1-1-.74,3.28,3.28,0,0,1-.61-1.1,4.47,4.47,0,0,1,0-2.67,3.31,3.31,0,0,1,.59-1.11,2.9,2.9,0,0,1,1-.77A3,3,0,0,1,234.14,120.46Z"/><path class="cls-5" d="M241.22,127.27h-.66a3,3,0,0,1-.68-.06,1,1,0,0,1-.45-.23.89.89,0,0,1-.25-.43,2.65,2.65,0,0,1-.07-.68v-4.56h-1.32v-.67h1.32v-2h.8v2h1.5v.67h-1.5v4.48a1.76,1.76,0,0,0,0,.34.64.64,0,0,0,.11.25.5.5,0,0,0,.21.16.87.87,0,0,0,.35.06h.6l.21,0v.68Z"/><path class="cls-5" d="M249.14,118.49a3.57,3.57,0,0,1,1,.13,2.67,2.67,0,0,1,.85.41,2.08,2.08,0,0,1,.6.69,2,2,0,0,1,.23,1,2.22,2.22,0,0,1-.1.66,1.82,1.82,0,0,1-.28.56,1.77,1.77,0,0,1-.45.42,2.14,2.14,0,0,1-.62.27v0a2.06,2.06,0,0,1,1.33.74,2.21,2.21,0,0,1,.45,1.39,2.41,2.41,0,0,1-.84,1.91,2.78,2.78,0,0,1-1,.55,3.78,3.78,0,0,1-1.21.18,3.66,3.66,0,0,1-1.12-.17,2.8,2.8,0,0,1-.92-.49,2.34,2.34,0,0,1-.63-.78,2.28,2.28,0,0,1-.23-1v-.18H247v.16a1.74,1.74,0,0,0,.56,1.28,2,2,0,0,0,.66.4,2.45,2.45,0,0,0,.88.15,2.7,2.7,0,0,0,.91-.13,2.21,2.21,0,0,0,.69-.4,1.7,1.7,0,0,0,.64-1.38,1.89,1.89,0,0,0-.14-.75,1.64,1.64,0,0,0-.42-.58,2.22,2.22,0,0,0-1.53-.5h-.64v-.66h.69a1.86,1.86,0,0,0,1.21-.42,1.42,1.42,0,0,0,.52-1.15,1.59,1.59,0,0,0-.15-.71,1.48,1.48,0,0,0-.4-.51,1.73,1.73,0,0,0-.6-.31,2.56,2.56,0,0,0-.73-.1,2.1,2.1,0,0,0-.81.15,1.8,1.8,0,0,0-.61.41,1.82,1.82,0,0,0-.39.6,2,2,0,0,0-.13.73h-.78a2.44,2.44,0,0,1,.18-.92,2.53,2.53,0,0,1,.53-.82,2.7,2.7,0,0,1,.86-.59A2.82,2.82,0,0,1,249.14,118.49Z"/><path class="cls-5" d="M211.64,153.93a4.7,4.7,0,0,1-1.1,3.2,3.68,3.68,0,0,1-2.94,1.27,3.72,3.72,0,0,1-2.95-1.25,5.26,5.26,0,0,1,0-6.43,3.72,3.72,0,0,1,2.95-1.25,4.81,4.81,0,0,1,.77.06,4,4,0,0,1,.74.19,3.72,3.72,0,0,1,.69.34,3.43,3.43,0,0,1,.61.49,3.49,3.49,0,0,1,.55.71,4.58,4.58,0,0,1,.38.83,5.41,5.41,0,0,1,.22.91A6.57,6.57,0,0,1,211.64,153.93Zm-.81,0a4.21,4.21,0,0,0-.85-2.69,2.86,2.86,0,0,0-2.38-1.08,2.89,2.89,0,0,0-2.36,1.05,4.15,4.15,0,0,0-.86,2.71,4.22,4.22,0,0,0,.85,2.7,3.16,3.16,0,0,0,4.74,0A4.21,4.21,0,0,0,210.83,153.93Z"/><path class="cls-5" d="M219.36,154.93a4.77,4.77,0,0,1-.17,1.28,3.38,3.38,0,0,1-.53,1.11,2.69,2.69,0,0,1-.92.79,2.8,2.8,0,0,1-1.33.3,2.9,2.9,0,0,1-.72-.09A2.59,2.59,0,0,1,215,158a2.34,2.34,0,0,1-.55-.45,2.18,2.18,0,0,1-.4-.63h0v1.25h-.74v-9.08h.8v3.77h0a2,2,0,0,1,.36-.61,2.25,2.25,0,0,1,.54-.45,2.5,2.5,0,0,1,.66-.28,3,3,0,0,1,2,.18,2.62,2.62,0,0,1,.91.75,3.34,3.34,0,0,1,.55,1.1A5,5,0,0,1,219.36,154.93Zm-.8,0a4.39,4.39,0,0,0,0-.65,3.54,3.54,0,0,0-.16-.64,2.89,2.89,0,0,0-.28-.59,2.08,2.08,0,0,0-.41-.48,1.83,1.83,0,0,0-.55-.32,2,2,0,0,0-.71-.12,2.05,2.05,0,0,0-1.73.85,2.72,2.72,0,0,0-.42.89,3.94,3.94,0,0,0-.14,1.06,4.21,4.21,0,0,0,.13,1,2.67,2.67,0,0,0,.4.9,2.08,2.08,0,0,0,.71.63,2.18,2.18,0,0,0,1.06.24,1.88,1.88,0,0,0,1-.23,2,2,0,0,0,.66-.63,2.9,2.9,0,0,0,.38-.89A4.91,4.91,0,0,0,218.56,154.93Z"/><path class="cls-5" d="M222.09,158.87a2.15,2.15,0,0,1-.34,1.32,1.29,1.29,0,0,1-1.1.44h-.3l-.31,0V160h.38a.84.84,0,0,0,.67-.21,1,1,0,0,0,.2-.7v-7.41h.8Zm-.8-8.81v-1.29h.8v1.29Z"/><path class="cls-5" d="M226.87,151.46a2.71,2.71,0,0,1,1.3.29,2.6,2.6,0,0,1,.9.79,3.45,3.45,0,0,1,.52,1.13,5.21,5.21,0,0,1,.17,1.34v.13h-5.05a3.58,3.58,0,0,0,.13.94,2.59,2.59,0,0,0,.39.83,2,2,0,0,0,.66.59,1.92,1.92,0,0,0,.95.22,2.44,2.44,0,0,0,.7-.09,2,2,0,0,0,.56-.26,1.76,1.76,0,0,0,.42-.39,2.41,2.41,0,0,0,.29-.49h.79a3,3,0,0,1-.38.79,2.48,2.48,0,0,1-.59.6,2.68,2.68,0,0,1-.79.39,3.34,3.34,0,0,1-1,.14,2.94,2.94,0,0,1-1.3-.27,2.56,2.56,0,0,1-.91-.73,3.12,3.12,0,0,1-.54-1.1,5.14,5.14,0,0,1-.18-1.37,4.66,4.66,0,0,1,.18-1.28,3.36,3.36,0,0,1,.54-1.11,2.74,2.74,0,0,1,.92-.78A2.79,2.79,0,0,1,226.87,151.46Zm2.09,3a3,3,0,0,0-.16-.85,2.44,2.44,0,0,0-.41-.75,2.07,2.07,0,0,0-.65-.54,1.84,1.84,0,0,0-.88-.21,1.84,1.84,0,0,0-1.5.7,2.7,2.7,0,0,0-.42.75,4.31,4.31,0,0,0-.23.9Z"/><path class="cls-5" d="M234.14,151.46a3.46,3.46,0,0,1,1,.13,2.53,2.53,0,0,1,.78.38,2,2,0,0,1,.56.61,2.31,2.31,0,0,1,.29.82h-.8a1.73,1.73,0,0,0-.22-.52,1.5,1.5,0,0,0-.37-.4,1.7,1.7,0,0,0-.53-.26,2.34,2.34,0,0,0-.68-.09,2,2,0,0,0-1,.23,2.19,2.19,0,0,0-.72.63,2.91,2.91,0,0,0-.44.9,3.58,3.58,0,0,0-.15,1,3.67,3.67,0,0,0,.14,1,2.88,2.88,0,0,0,.42.9,2.26,2.26,0,0,0,.71.65,2,2,0,0,0,1,.25,1.93,1.93,0,0,0,.71-.13,1.88,1.88,0,0,0,.56-.34,1.79,1.79,0,0,0,.39-.49,1.87,1.87,0,0,0,.21-.58h.8a3,3,0,0,1-.29.85,2.49,2.49,0,0,1-.55.7,2.54,2.54,0,0,1-.8.48,2.88,2.88,0,0,1-1,.18,3,3,0,0,1-1.29-.27,2.85,2.85,0,0,1-1-.74,3.28,3.28,0,0,1-.61-1.1,4.47,4.47,0,0,1,0-2.67,3.31,3.31,0,0,1,.59-1.11,2.9,2.9,0,0,1,1-.77A3,3,0,0,1,234.14,151.46Z"/><path class="cls-5" d="M241.22,158.27h-.66a3,3,0,0,1-.68-.06,1,1,0,0,1-.45-.23.89.89,0,0,1-.25-.43,2.65,2.65,0,0,1-.07-.68v-4.56h-1.32v-.67h1.32v-2h.8v2h1.5v.67h-1.5v4.48a1.76,1.76,0,0,0,0,.34.64.64,0,0,0,.11.25.5.5,0,0,0,.21.16.87.87,0,0,0,.35.06h.6l.21,0v.68Z"/><path class="cls-5" d="M250.88,156.06v2.15h-.71v-2.15h-4v-.75l4-5.75h.7v5.85h1.3v.66Zm-.71-5.36h0l-3.27,4.71h3.29Z"/><path class="cls-5" d="M323.95,56.64v7.87h4.8v.7h-5.62V56.64Z"/><path class="cls-5" d="M335.48,61.93a4.29,4.29,0,0,1-.2,1.31,3.31,3.31,0,0,1-.61,1.13,2.9,2.9,0,0,1-2.29,1,2.84,2.84,0,0,1-2.24-1,4.07,4.07,0,0,1,0-5,3.08,3.08,0,0,1,4.51,0A3.65,3.65,0,0,1,335.48,61.93Zm-.8,0a3.8,3.8,0,0,0-.13-1,2.81,2.81,0,0,0-.42-.9,2.25,2.25,0,0,0-.72-.65,2,2,0,0,0-1-.25,2,2,0,0,0-1,.24,2.24,2.24,0,0,0-.72.64,2.85,2.85,0,0,0-.44.9,3.66,3.66,0,0,0-.15,1,3.58,3.58,0,0,0,.14,1,3,3,0,0,0,.43.9,2.24,2.24,0,0,0,.71.65,2,2,0,0,0,1,.25,2,2,0,0,0,1-.24,2.33,2.33,0,0,0,.72-.63,2.8,2.8,0,0,0,.45-.89A3.54,3.54,0,0,0,334.67,61.93Z"/><path class="cls-5" d="M340,58.46a3.46,3.46,0,0,1,1,.13,2.53,2.53,0,0,1,.78.38,2,2,0,0,1,.56.61,2.31,2.31,0,0,1,.29.82h-.8a1.73,1.73,0,0,0-.22-.52,1.5,1.5,0,0,0-.37-.4,1.7,1.7,0,0,0-.53-.26,2.34,2.34,0,0,0-.68-.09,2,2,0,0,0-1,.23,2.19,2.19,0,0,0-.72.63,2.91,2.91,0,0,0-.44.9,3.58,3.58,0,0,0-.15,1,3.67,3.67,0,0,0,.14,1,2.88,2.88,0,0,0,.42.9,2.26,2.26,0,0,0,.71.65,2,2,0,0,0,1,.25,1.93,1.93,0,0,0,.71-.13,1.88,1.88,0,0,0,.56-.34,1.79,1.79,0,0,0,.39-.49,1.87,1.87,0,0,0,.21-.58h.8a3,3,0,0,1-.29.85,2.49,2.49,0,0,1-.55.7,2.54,2.54,0,0,1-.8.48,2.88,2.88,0,0,1-1,.18,3,3,0,0,1-1.29-.27,2.85,2.85,0,0,1-1-.74,3.28,3.28,0,0,1-.61-1.1,4.47,4.47,0,0,1,0-2.67,3.31,3.31,0,0,1,.59-1.11,2.9,2.9,0,0,1,1-.77A3,3,0,0,1,340,58.46Z"/><path class="cls-5" d="M350.08,65.16l-.27,0h-.24a1.37,1.37,0,0,1-.44-.06.65.65,0,0,1-.29-.2.82.82,0,0,1-.16-.35,2.43,2.43,0,0,1,0-.53h0a3,3,0,0,1-1,1,2.79,2.79,0,0,1-1.35.29,2.46,2.46,0,0,1-1.6-.5,1.75,1.75,0,0,1-.6-1.43,1.66,1.66,0,0,1,.66-1.43,6.79,6.79,0,0,1,3-.69,2,2,0,0,0,.44-.08.75.75,0,0,0,.29-.16.6.6,0,0,0,.16-.26,1.28,1.28,0,0,0,0-.38,1.24,1.24,0,0,0-.4-1,2,2,0,0,0-1.31-.34,2.61,2.61,0,0,0-.72.09,1.65,1.65,0,0,0-.53.25,1.13,1.13,0,0,0-.33.39,1.23,1.23,0,0,0-.13.49h-.8a2,2,0,0,1,.22-.78,1.78,1.78,0,0,1,.51-.59,2.43,2.43,0,0,1,.81-.38,4,4,0,0,1,1.09-.13,2.64,2.64,0,0,1,1.83.54,2,2,0,0,1,.59,1.52v3.56a.47.47,0,0,0,.11.33.46.46,0,0,0,.36.12.7.7,0,0,0,.25,0Zm-1.52-3.54h0q-.12.22-.77.31l-.67.1-.74.12a2.67,2.67,0,0,0-1.17.44,1,1,0,0,0-.39.84,1.16,1.16,0,0,0,.43.94,1.6,1.6,0,0,0,1,.35,2.36,2.36,0,0,0,1.63-.58,1.85,1.85,0,0,0,.65-1.44Z"/><path class="cls-5" d="M352.34,56.13v9.08h-.8V56.13Z"/><path class="cls-5" d="M330.64,91.93a4.7,4.7,0,0,1-1.1,3.2,3.68,3.68,0,0,1-2.94,1.27,3.72,3.72,0,0,1-2.95-1.25,5.26,5.26,0,0,1,0-6.43,3.72,3.72,0,0,1,2.95-1.25,4.81,4.81,0,0,1,.77.06,4,4,0,0,1,.74.19,3.72,3.72,0,0,1,.69.34,3.43,3.43,0,0,1,.61.49,3.49,3.49,0,0,1,.55.71,4.58,4.58,0,0,1,.38.83,5.41,5.41,0,0,1,.22.91A6.57,6.57,0,0,1,330.64,91.93Zm-.81,0a4.21,4.21,0,0,0-.85-2.69,2.86,2.86,0,0,0-2.38-1.08,2.89,2.89,0,0,0-2.36,1.05,4.15,4.15,0,0,0-.86,2.71,4.22,4.22,0,0,0,.85,2.7,3.16,3.16,0,0,0,4.74,0A4.21,4.21,0,0,0,329.83,91.93Z"/><path class="cls-5" d="M337.77,87.64v.7h-4.62v3.09h4.1v.7h-4.1v4.08h-.82V87.64Z"/><path class="cls-5" d="M344.58,87.64v.7H340v3.09h4.1v.7H340v4.08h-.82V87.64Z"/><path class="cls-5" d="M329.66,120.88a2.33,2.33,0,0,1-.44,1.44,1.81,1.81,0,0,1-.53.47,2.4,2.4,0,0,1-.7.27v0a2.42,2.42,0,0,1,.69.22,1.16,1.16,0,0,1,.4.34,1.8,1.8,0,0,1,.29.63,4.48,4.48,0,0,1,.11.71q0,.37,0,.77a6,6,0,0,0,.09.82,1.77,1.77,0,0,0,.08.27,2.9,2.9,0,0,0,.18.37H329a3.27,3.27,0,0,1-.22-1.33,3.62,3.62,0,0,0-.49-2,1.38,1.38,0,0,0-1.11-.47h-3.21v3.8h-.82v-8.57h4a3.42,3.42,0,0,1,1,.14,2.35,2.35,0,0,1,.82.44A2,2,0,0,1,329.66,120.88Zm-.82.16a2,2,0,0,0-.13-.73,1.44,1.44,0,0,0-.36-.53,1.51,1.51,0,0,0-.57-.33,2.4,2.4,0,0,0-.74-.11h-3.09v3.37H327a1.9,1.9,0,0,0,1.27-.46A1.51,1.51,0,0,0,328.84,121Z"/><path class="cls-5" d="M334.09,120.46a2.71,2.71,0,0,1,1.3.29,2.6,2.6,0,0,1,.9.79,3.45,3.45,0,0,1,.52,1.13A5.21,5.21,0,0,1,337,124v.13h-5.05a3.58,3.58,0,0,0,.13.94,2.59,2.59,0,0,0,.39.83,2,2,0,0,0,.66.59,1.92,1.92,0,0,0,.95.22,2.44,2.44,0,0,0,.7-.09,2,2,0,0,0,.56-.26,1.76,1.76,0,0,0,.42-.39,2.41,2.41,0,0,0,.29-.49h.79a3,3,0,0,1-.38.79,2.48,2.48,0,0,1-.59.6,2.68,2.68,0,0,1-.79.39,3.34,3.34,0,0,1-1,.14,2.94,2.94,0,0,1-1.3-.27,2.56,2.56,0,0,1-.91-.73,3.12,3.12,0,0,1-.54-1.1,5.14,5.14,0,0,1-.18-1.37,4.66,4.66,0,0,1,.18-1.28,3.36,3.36,0,0,1,.54-1.11,2.74,2.74,0,0,1,.92-.78A2.79,2.79,0,0,1,334.09,120.46Zm2.09,3a3,3,0,0,0-.16-.85,2.44,2.44,0,0,0-.41-.75,2.07,2.07,0,0,0-.65-.54,1.84,1.84,0,0,0-.88-.21,1.84,1.84,0,0,0-1.5.7,2.7,2.7,0,0,0-.42.75,4.31,4.31,0,0,0-.23.9Z"/><path class="cls-5" d="M346.93,127.21v-4.46a1.73,1.73,0,0,0-.37-1.22,1.85,1.85,0,0,0-2.5.21,2.8,2.8,0,0,0-.45,1.71v3.77h-.81v-4.49a1.81,1.81,0,0,0-.34-1.17,1.25,1.25,0,0,0-1-.42,1.72,1.72,0,0,0-1.46.65,2.72,2.72,0,0,0-.5,1.71v3.72h-.8v-6.56h.74v1.1h0a2.26,2.26,0,0,1,2.15-1.29,2.44,2.44,0,0,1,.64.08,1.86,1.86,0,0,1,.54.24,1.66,1.66,0,0,1,.42.4,1.86,1.86,0,0,1,.28.55,2.16,2.16,0,0,1,.85-1,2.4,2.4,0,0,1,1.24-.32,2.12,2.12,0,0,1,1.63.58,2.36,2.36,0,0,1,.54,1.66v4.51Z"/><path class="cls-5" d="M355.73,123.93a4.29,4.29,0,0,1-.2,1.31,3.31,3.31,0,0,1-.61,1.13,2.9,2.9,0,0,1-2.29,1,2.84,2.84,0,0,1-2.24-1,4.07,4.07,0,0,1,0-5,3.08,3.08,0,0,1,4.51,0A3.65,3.65,0,0,1,355.73,123.93Zm-.8,0a3.8,3.8,0,0,0-.13-1,2.81,2.81,0,0,0-.42-.9,2.25,2.25,0,0,0-.72-.65,2,2,0,0,0-1-.25,2,2,0,0,0-1,.24,2.24,2.24,0,0,0-.72.64,2.85,2.85,0,0,0-.44.9,3.66,3.66,0,0,0-.15,1,3.58,3.58,0,0,0,.14,1,3,3,0,0,0,.43.9,2.24,2.24,0,0,0,.71.65,2,2,0,0,0,1,.25,2,2,0,0,0,1-.24,2.33,2.33,0,0,0,.72-.63,2.8,2.8,0,0,0,.45-.89A3.54,3.54,0,0,0,354.93,123.93Z"/><path class="cls-5" d="M360.17,127.27h-.66a3,3,0,0,1-.68-.06,1,1,0,0,1-.45-.23.89.89,0,0,1-.25-.43,2.65,2.65,0,0,1-.07-.68v-4.56h-1.32v-.67h1.32v-2h.8v2h1.5v.67h-1.5v4.48a1.76,1.76,0,0,0,0,.34.64.64,0,0,0,.11.25.5.5,0,0,0,.21.16.87.87,0,0,0,.35.06h.6l.21,0v.68Z"/><path class="cls-5" d="M364.53,120.46a2.71,2.71,0,0,1,1.3.29,2.6,2.6,0,0,1,.9.79,3.45,3.45,0,0,1,.52,1.13,5.21,5.21,0,0,1,.17,1.34v.13h-5.05a3.58,3.58,0,0,0,.13.94,2.59,2.59,0,0,0,.39.83,2,2,0,0,0,.66.59,1.92,1.92,0,0,0,.95.22,2.44,2.44,0,0,0,.7-.09,2,2,0,0,0,.56-.26,1.76,1.76,0,0,0,.42-.39,2.41,2.41,0,0,0,.29-.49h.79a3,3,0,0,1-.38.79,2.48,2.48,0,0,1-.59.6,2.68,2.68,0,0,1-.79.39,3.34,3.34,0,0,1-1,.14,2.94,2.94,0,0,1-1.3-.27,2.56,2.56,0,0,1-.91-.73,3.12,3.12,0,0,1-.54-1.1,5.14,5.14,0,0,1-.18-1.37,4.66,4.66,0,0,1,.18-1.28,3.36,3.36,0,0,1,.54-1.11,2.74,2.74,0,0,1,.92-.78A2.79,2.79,0,0,1,364.53,120.46Zm2.09,3a3,3,0,0,0-.16-.85,2.44,2.44,0,0,0-.41-.75,2.07,2.07,0,0,0-.65-.54,1.84,1.84,0,0,0-.88-.21,1.84,1.84,0,0,0-1.5.7,2.7,2.7,0,0,0-.42.75,4.31,4.31,0,0,0-.23.9Z"/><path class="cls-5" d="M329.66,151.88a2.33,2.33,0,0,1-.44,1.44,1.81,1.81,0,0,1-.53.47,2.4,2.4,0,0,1-.7.27v0a2.42,2.42,0,0,1,.69.22,1.16,1.16,0,0,1,.4.34,1.8,1.8,0,0,1,.29.63,4.48,4.48,0,0,1,.11.71q0,.37,0,.77a6,6,0,0,0,.09.82,1.77,1.77,0,0,0,.08.27,2.9,2.9,0,0,0,.18.37H329a3.27,3.27,0,0,1-.22-1.33,3.62,3.62,0,0,0-.49-2,1.38,1.38,0,0,0-1.11-.47h-3.21v3.8h-.82v-8.57h4a3.42,3.42,0,0,1,1,.14,2.35,2.35,0,0,1,.82.44A2,2,0,0,1,329.66,151.88Zm-.82.16a2,2,0,0,0-.13-.73,1.44,1.44,0,0,0-.36-.53,1.51,1.51,0,0,0-.57-.33,2.4,2.4,0,0,0-.74-.11h-3.09v3.37H327a1.9,1.9,0,0,0,1.27-.46A1.51,1.51,0,0,0,328.84,152Z"/><path class="cls-5" d="M334.09,151.46a2.71,2.71,0,0,1,1.3.29,2.6,2.6,0,0,1,.9.79,3.45,3.45,0,0,1,.52,1.13A5.21,5.21,0,0,1,337,155v.13h-5.05a3.58,3.58,0,0,0,.13.94,2.59,2.59,0,0,0,.39.83,2,2,0,0,0,.66.59,1.92,1.92,0,0,0,.95.22,2.44,2.44,0,0,0,.7-.09,2,2,0,0,0,.56-.26,1.76,1.76,0,0,0,.42-.39,2.41,2.41,0,0,0,.29-.49h.79a3,3,0,0,1-.38.79,2.48,2.48,0,0,1-.59.6,2.68,2.68,0,0,1-.79.39,3.34,3.34,0,0,1-1,.14,2.94,2.94,0,0,1-1.3-.27,2.56,2.56,0,0,1-.91-.73,3.12,3.12,0,0,1-.54-1.1,5.14,5.14,0,0,1-.18-1.37,4.66,4.66,0,0,1,.18-1.28,3.36,3.36,0,0,1,.54-1.11,2.74,2.74,0,0,1,.92-.78A2.79,2.79,0,0,1,334.09,151.46Zm2.09,3a3,3,0,0,0-.16-.85,2.44,2.44,0,0,0-.41-.75,2.07,2.07,0,0,0-.65-.54,1.84,1.84,0,0,0-.88-.21,1.84,1.84,0,0,0-1.5.7,2.7,2.7,0,0,0-.42.75,4.31,4.31,0,0,0-.23.9Z"/><path class="cls-5" d="M346.93,158.21v-4.46a1.73,1.73,0,0,0-.37-1.22,1.85,1.85,0,0,0-2.5.21,2.8,2.8,0,0,0-.45,1.71v3.77h-.81v-4.49a1.81,1.81,0,0,0-.34-1.17,1.25,1.25,0,0,0-1-.42,1.72,1.72,0,0,0-1.46.65,2.72,2.72,0,0,0-.5,1.71v3.72h-.8v-6.56h.74v1.1h0a2.26,2.26,0,0,1,2.15-1.29,2.44,2.44,0,0,1,.64.08,1.86,1.86,0,0,1,.54.24,1.66,1.66,0,0,1,.42.4,1.86,1.86,0,0,1,.28.55,2.16,2.16,0,0,1,.85-1,2.4,2.4,0,0,1,1.24-.32,2.12,2.12,0,0,1,1.63.58,2.36,2.36,0,0,1,.54,1.66v4.51Z"/><path class="cls-5" d="M355.73,154.93a4.29,4.29,0,0,1-.2,1.31,3.31,3.31,0,0,1-.61,1.13,2.9,2.9,0,0,1-2.29,1,2.84,2.84,0,0,1-2.24-1,4.07,4.07,0,0,1,0-5,3.08,3.08,0,0,1,4.51,0A3.65,3.65,0,0,1,355.73,154.93Zm-.8,0a3.8,3.8,0,0,0-.13-1,2.81,2.81,0,0,0-.42-.9,2.25,2.25,0,0,0-.72-.65,2,2,0,0,0-1-.25,2,2,0,0,0-1,.24,2.24,2.24,0,0,0-.72.64,2.85,2.85,0,0,0-.44.9,3.66,3.66,0,0,0-.15,1,3.58,3.58,0,0,0,.14,1,3,3,0,0,0,.43.9,2.24,2.24,0,0,0,.71.65,2,2,0,0,0,1,.25,2,2,0,0,0,1-.24,2.33,2.33,0,0,0,.72-.63,2.8,2.8,0,0,0,.45-.89A3.54,3.54,0,0,0,354.93,154.93Z"/><path class="cls-5" d="M360.17,158.27h-.66a3,3,0,0,1-.68-.06,1,1,0,0,1-.45-.23.89.89,0,0,1-.25-.43,2.65,2.65,0,0,1-.07-.68v-4.56h-1.32v-.67h1.32v-2h.8v2h1.5v.67h-1.5v4.48a1.76,1.76,0,0,0,0,.34.64.64,0,0,0,.11.25.5.5,0,0,0,.21.16.87.87,0,0,0,.35.06h.6l.21,0v.68Z"/><path class="cls-5" d="M364.53,151.46a2.71,2.71,0,0,1,1.3.29,2.6,2.6,0,0,1,.9.79,3.45,3.45,0,0,1,.52,1.13,5.21,5.21,0,0,1,.17,1.34v.13h-5.05a3.58,3.58,0,0,0,.13.94,2.59,2.59,0,0,0,.39.83,2,2,0,0,0,.66.59,1.92,1.92,0,0,0,.95.22,2.44,2.44,0,0,0,.7-.09,2,2,0,0,0,.56-.26,1.76,1.76,0,0,0,.42-.39,2.41,2.41,0,0,0,.29-.49h.79a3,3,0,0,1-.38.79,2.48,2.48,0,0,1-.59.6,2.68,2.68,0,0,1-.79.39,3.34,3.34,0,0,1-1,.14,2.94,2.94,0,0,1-1.3-.27,2.56,2.56,0,0,1-.91-.73,3.12,3.12,0,0,1-.54-1.1,5.14,5.14,0,0,1-.18-1.37,4.66,4.66,0,0,1,.18-1.28,3.36,3.36,0,0,1,.54-1.11,2.74,2.74,0,0,1,.92-.78A2.79,2.79,0,0,1,364.53,151.46Zm2.09,3a3,3,0,0,0-.16-.85,2.44,2.44,0,0,0-.41-.75,2.07,2.07,0,0,0-.65-.54,1.84,1.84,0,0,0-.88-.21,1.84,1.84,0,0,0-1.5.7,2.7,2.7,0,0,0-.42.75,4.31,4.31,0,0,0-.23.9Z"/><path class="cls-5" d="M77.89,28.93V30H75.62v6.08H74.37V30H72.11V28.93Z"/><path class="cls-5" d="M80.16,28.93v7.14H78.91V28.93Z"/><path class="cls-5" d="M88.28,36.07V30.34h0l-2,5.73H85.16l-2-5.7h0v5.7H81.93V28.94h1.83l2,5.56h0l1.91-5.56h1.82v7.13Z"/><path class="cls-5" d="M96.4,28.94V30H92.46v1.9H96.1v1H92.46V35h4v1H91.21V28.94Z"/><path class="cls-5" d="M75.63,56.49a2.87,2.87,0,0,1,1.32.29,2.48,2.48,0,0,1,.94.85A4.14,4.14,0,0,1,78.46,59a8.64,8.64,0,0,1,.19,1.92,5.94,5.94,0,0,1-.77,3.35,2.82,2.82,0,0,1-4.49,0,5.89,5.89,0,0,1-.77-3.34,5.89,5.89,0,0,1,.77-3.35A2.56,2.56,0,0,1,75.63,56.49ZM73.4,60.93q0,3.81,2.23,3.81t2.24-3.81a5.64,5.64,0,0,0-.57-2.84,1.84,1.84,0,0,0-1.68-1,1.82,1.82,0,0,0-1.65.94A5.63,5.63,0,0,0,73.4,60.93Z"/><path class="cls-5" d="M85.89,62.79a2.36,2.36,0,0,1-.83,1.91,3.22,3.22,0,0,1-2.16.7,3.18,3.18,0,0,1-2.16-.71,2.52,2.52,0,0,1-.7-2.64,2.28,2.28,0,0,1,.35-.67,2.18,2.18,0,0,1,1.28-.81v0a2.05,2.05,0,0,1-1.06-.72,2,2,0,0,1-.35-1.18A1.9,1.9,0,0,1,81,57.08a2.91,2.91,0,0,1,1.86-.59,3,3,0,0,1,1.88.59,1.88,1.88,0,0,1,.76,1.57,2.2,2.2,0,0,1-.09.65,1.81,1.81,0,0,1-.72,1,2.1,2.1,0,0,1-.6.28v0a2.18,2.18,0,0,1,1.32.76A2.29,2.29,0,0,1,85.89,62.79Zm-.78,0a1.75,1.75,0,0,0-.59-1.35,2.78,2.78,0,0,0-3.24,0,1.76,1.76,0,0,0-.57,1.37,1.79,1.79,0,0,0,.6,1.42,2.7,2.7,0,0,0,3.2,0A1.79,1.79,0,0,0,85.11,62.79Zm-.36-4.14a1.35,1.35,0,0,0-.5-1.1,2.37,2.37,0,0,0-2.67,0,1.3,1.3,0,0,0-.53,1.09,1.48,1.48,0,0,0,.49,1.18,2,2,0,0,0,1.32.43,2,2,0,0,0,1.41-.45A1.52,1.52,0,0,0,84.75,58.65Z"/><path class="cls-5" d="M88.93,58.89v1.27H87.82V58.89Zm0,5v1.27H87.82V63.94Z"/><path class="cls-5" d="M95.51,63.06v2.15H94.8V63.06h-4v-.75l4-5.75h.7V62.4h1.3v.66ZM94.8,57.7h0L91.51,62.4H94.8Z"/><path class="cls-5" d="M101.11,56.49a2.87,2.87,0,0,1,1.32.29,2.48,2.48,0,0,1,.94.85,4.14,4.14,0,0,1,.57,1.39,8.64,8.64,0,0,1,.19,1.92,5.94,5.94,0,0,1-.77,3.35,2.82,2.82,0,0,1-4.49,0,5.89,5.89,0,0,1-.77-3.34,5.89,5.89,0,0,1,.77-3.35A2.56,2.56,0,0,1,101.11,56.49Zm-2.23,4.45q0,3.81,2.23,3.81t2.24-3.81a5.64,5.64,0,0,0-.57-2.84,1.84,1.84,0,0,0-1.68-1,1.82,1.82,0,0,0-1.65.94A5.63,5.63,0,0,0,98.88,60.93Z"/><path class="cls-5" d="M107.15,58.89v1.27H106V58.89Zm0,5v1.27H106V63.94Z"/><path class="cls-5" d="M113.73,63.06v2.15H113V63.06h-4v-.75l4-5.75h.7V62.4H115v.66ZM113,57.7h0l-3.27,4.71H113Z"/><path class="cls-5" d="M119.26,56.49a3.57,3.57,0,0,1,1,.13,2.67,2.67,0,0,1,.85.41,2.08,2.08,0,0,1,.6.69,2,2,0,0,1,.23,1,2.22,2.22,0,0,1-.1.66,1.82,1.82,0,0,1-.28.56,1.77,1.77,0,0,1-.45.42,2.14,2.14,0,0,1-.62.27v0a2.06,2.06,0,0,1,1.33.74,2.21,2.21,0,0,1,.45,1.39,2.41,2.41,0,0,1-.84,1.91,2.78,2.78,0,0,1-1,.55,3.78,3.78,0,0,1-1.21.18,3.66,3.66,0,0,1-1.12-.17,2.8,2.8,0,0,1-.92-.49,2.34,2.34,0,0,1-.63-.78,2.28,2.28,0,0,1-.23-1v-.18h.79v.16a1.74,1.74,0,0,0,.56,1.28,2,2,0,0,0,.66.4,2.45,2.45,0,0,0,.88.15,2.7,2.7,0,0,0,.91-.13,2.21,2.21,0,0,0,.69-.4,1.7,1.7,0,0,0,.64-1.38,1.89,1.89,0,0,0-.14-.75,1.64,1.64,0,0,0-.42-.58,2.22,2.22,0,0,0-1.53-.5h-.64v-.66h.69a1.86,1.86,0,0,0,1.21-.42,1.42,1.42,0,0,0,.52-1.15,1.59,1.59,0,0,0-.15-.71,1.48,1.48,0,0,0-.4-.51,1.73,1.73,0,0,0-.6-.31,2.56,2.56,0,0,0-.73-.1,2.1,2.1,0,0,0-.81.15,1.8,1.8,0,0,0-.61.41,1.82,1.82,0,0,0-.39.6,2,2,0,0,0-.13.73h-.78a2.44,2.44,0,0,1,.18-.92,2.53,2.53,0,0,1,.53-.82,2.7,2.7,0,0,1,.86-.59A2.82,2.82,0,0,1,119.26,56.49Z"/><path class="cls-5" d="M125.37,63.94v1.27h-1.11V63.94Z"/><path class="cls-5" d="M130.53,56.49a3.17,3.17,0,0,1,.94.13,2.34,2.34,0,0,1,.75.38,2.14,2.14,0,0,1,.54.62,2.49,2.49,0,0,1,.3.83h-.78a1.7,1.7,0,0,0-.19-.51,1.45,1.45,0,0,0-.35-.42,1.67,1.67,0,0,0-.52-.28,2.16,2.16,0,0,0-.69-.1,2,2,0,0,0-1,.25,2.1,2.1,0,0,0-.75.75,3.82,3.82,0,0,0-.45,1.21,8,8,0,0,0-.15,1.65h0a2.58,2.58,0,0,1,2.31-1.44,2.74,2.74,0,0,1,2.05.81,2.83,2.83,0,0,1,.8,2.08,2.84,2.84,0,0,1-2.94,2.94A3.09,3.09,0,0,1,129,65.1a2.31,2.31,0,0,1-.93-.84,4.2,4.2,0,0,1-.52-1.39,10.4,10.4,0,0,1-.17-2.05,8.43,8.43,0,0,1,.07-1.06,5.56,5.56,0,0,1,.22-1,4.46,4.46,0,0,1,.4-.89,2.83,2.83,0,0,1,.6-.72,2.66,2.66,0,0,1,.82-.48A3.07,3.07,0,0,1,130.53,56.49Zm-2.23,6a2.25,2.25,0,0,0,.57,1.63,2.11,2.11,0,0,0,1.59.59,1.91,1.91,0,0,0,1.49-.66,2.26,2.26,0,0,0,.59-1.56,2.4,2.4,0,0,0-.57-1.64,1.93,1.93,0,0,0-1.52-.65,2,2,0,0,0-1.54.63A2.3,2.3,0,0,0,128.3,62.52Z"/><path class="cls-5" d="M137.55,56.49a2.81,2.81,0,0,1,2,.66,2.28,2.28,0,0,1,.73,1.78,2.82,2.82,0,0,1-.55,1.66,7,7,0,0,1-2,1.66A8.29,8.29,0,0,0,136,63.47a2,2,0,0,0-.56,1h4.81v.72h-5.7a3,3,0,0,1,.56-1.74,6.61,6.61,0,0,1,1.93-1.66,8.78,8.78,0,0,0,1.89-1.48,2.11,2.11,0,0,0,.51-1.41,1.64,1.64,0,0,0-.54-1.28,2,2,0,0,0-1.4-.49,2,2,0,0,0-.86.17,1.82,1.82,0,0,0-.61.44,1.77,1.77,0,0,0-.36.62,2.2,2.2,0,0,0-.12.71v.17h-.77v-.12a2.93,2.93,0,0,1,.17-1,2.42,2.42,0,0,1,.51-.84,2.47,2.47,0,0,1,.86-.59A3.06,3.06,0,0,1,137.55,56.49Z"/><path class="cls-5" d="M144.75,56.49a3.57,3.57,0,0,1,1,.13,2.67,2.67,0,0,1,.85.41,2.08,2.08,0,0,1,.6.69,2,2,0,0,1,.23,1,2.22,2.22,0,0,1-.1.66,1.82,1.82,0,0,1-.28.56,1.77,1.77,0,0,1-.45.42,2.14,2.14,0,0,1-.62.27v0a2.06,2.06,0,0,1,1.33.74,2.21,2.21,0,0,1,.45,1.39,2.41,2.41,0,0,1-.84,1.91,2.78,2.78,0,0,1-1,.55,3.78,3.78,0,0,1-1.21.18,3.66,3.66,0,0,1-1.12-.17,2.8,2.8,0,0,1-.92-.49,2.34,2.34,0,0,1-.63-.78,2.28,2.28,0,0,1-.23-1v-.18h.79v.16a1.74,1.74,0,0,0,.56,1.28,2,2,0,0,0,.66.4,2.45,2.45,0,0,0,.88.15,2.7,2.7,0,0,0,.91-.13,2.21,2.21,0,0,0,.69-.4,1.7,1.7,0,0,0,.64-1.38,1.89,1.89,0,0,0-.14-.75,1.64,1.64,0,0,0-.42-.58,2.22,2.22,0,0,0-1.53-.5h-.64v-.66h.69a1.86,1.86,0,0,0,1.21-.42,1.42,1.42,0,0,0,.52-1.15,1.59,1.59,0,0,0-.15-.71,1.48,1.48,0,0,0-.4-.51,1.73,1.73,0,0,0-.6-.31,2.56,2.56,0,0,0-.73-.1,2.1,2.1,0,0,0-.81.15,1.8,1.8,0,0,0-.61.41,1.82,1.82,0,0,0-.39.6,2,2,0,0,0-.13.73H142a2.44,2.44,0,0,1,.18-.92,2.53,2.53,0,0,1,.53-.82,2.7,2.7,0,0,1,.86-.59A2.82,2.82,0,0,1,144.75,56.49Z"/><path class="cls-5" d="M75.63,87.49a2.87,2.87,0,0,1,1.32.29,2.48,2.48,0,0,1,.94.85A4.14,4.14,0,0,1,78.46,90a8.64,8.64,0,0,1,.19,1.92,5.94,5.94,0,0,1-.77,3.35,2.82,2.82,0,0,1-4.49,0,7.62,7.62,0,0,1,0-6.69A2.56,2.56,0,0,1,75.63,87.49ZM73.4,91.93q0,3.81,2.23,3.81t2.24-3.81a5.64,5.64,0,0,0-.57-2.84,1.84,1.84,0,0,0-1.68-1,1.82,1.82,0,0,0-1.65.94A5.63,5.63,0,0,0,73.4,91.93Z"/><path class="cls-5" d="M85.67,87.66v.71a13.7,13.7,0,0,0-1.42,1.75A13.19,13.19,0,0,0,83.18,92a11.5,11.5,0,0,0-.7,2,12.2,12.2,0,0,0-.31,2.14h-.84a12.81,12.81,0,0,1,.32-2.12,10.53,10.53,0,0,1,.67-1.93,15.67,15.67,0,0,1,2.58-3.79H80.1v-.71Z"/><path class="cls-5" d="M88.93,89.89v1.27H87.82V89.89Zm0,5v1.27H87.82V94.94Z"/><path class="cls-5" d="M93.78,87.49a3.57,3.57,0,0,1,1,.13,2.67,2.67,0,0,1,.85.41,2.08,2.08,0,0,1,.6.69,2,2,0,0,1,.23,1,2.22,2.22,0,0,1-.1.66,1.82,1.82,0,0,1-.28.56,1.77,1.77,0,0,1-.45.42,2.14,2.14,0,0,1-.62.27v0a2.06,2.06,0,0,1,1.33.74,2.21,2.21,0,0,1,.45,1.39,2.41,2.41,0,0,1-.84,1.91,2.78,2.78,0,0,1-1,.55,3.78,3.78,0,0,1-1.21.18,3.66,3.66,0,0,1-1.12-.17,2.8,2.8,0,0,1-.92-.49,2.34,2.34,0,0,1-.63-.78,2.28,2.28,0,0,1-.23-1v-.18h.79v.16a1.74,1.74,0,0,0,.56,1.28,2,2,0,0,0,.66.4,2.45,2.45,0,0,0,.88.15,2.7,2.7,0,0,0,.91-.13,2.21,2.21,0,0,0,.69-.4A1.7,1.7,0,0,0,96,93.83a1.89,1.89,0,0,0-.14-.75,1.64,1.64,0,0,0-.42-.58A2.22,2.22,0,0,0,93.9,92h-.64v-.66h.69a1.86,1.86,0,0,0,1.21-.42,1.42,1.42,0,0,0,.52-1.15,1.59,1.59,0,0,0-.15-.71,1.48,1.48,0,0,0-.4-.51,1.73,1.73,0,0,0-.6-.31,2.56,2.56,0,0,0-.73-.1,2.1,2.1,0,0,0-.81.15,1.8,1.8,0,0,0-.61.41,1.82,1.82,0,0,0-.39.6,2,2,0,0,0-.13.73H91a2.44,2.44,0,0,1,.18-.92,2.53,2.53,0,0,1,.53-.82,2.7,2.7,0,0,1,.86-.59A2.82,2.82,0,0,1,93.78,87.49Z"/><path class="cls-5" d="M100.9,96.4a3.17,3.17,0,0,1-.94-.13,2.34,2.34,0,0,1-.75-.38,2.14,2.14,0,0,1-.54-.62,2.49,2.49,0,0,1-.3-.83h.78a1.7,1.7,0,0,0,.19.51,1.45,1.45,0,0,0,.35.42,1.67,1.67,0,0,0,.52.28,2.16,2.16,0,0,0,.69.1,2,2,0,0,0,1-.25,2.1,2.1,0,0,0,.75-.75,3.82,3.82,0,0,0,.45-1.21,8,8,0,0,0,.15-1.65h0A2.58,2.58,0,0,1,101,93.31a2.74,2.74,0,0,1-2.05-.81,2.83,2.83,0,0,1-.8-2.08,2.84,2.84,0,0,1,2.94-2.94,3.09,3.09,0,0,1,1.41.29,2.31,2.31,0,0,1,.93.84A4.2,4.2,0,0,1,103.9,90a10.4,10.4,0,0,1,.17,2.05,8.43,8.43,0,0,1-.07,1.06,5.56,5.56,0,0,1-.22,1,4.46,4.46,0,0,1-.4.89,2.83,2.83,0,0,1-.6.72,2.66,2.66,0,0,1-.82.48A3.07,3.07,0,0,1,100.9,96.4Zm2.23-6a2.25,2.25,0,0,0-.57-1.63,2.11,2.11,0,0,0-1.59-.59,1.91,1.91,0,0,0-1.49.66,2.26,2.26,0,0,0-.59,1.56A2.4,2.4,0,0,0,99.47,92a1.92,1.92,0,0,0,1.52.65,2,2,0,0,0,1.54-.63A2.29,2.29,0,0,0,103.13,90.36Z"/><path class="cls-5" d="M107.15,89.89v1.27H106V89.89Zm0,5v1.27H106V94.94Z"/><path class="cls-5" d="M113.73,94.06v2.15H113V94.06h-4v-.75l4-5.75h.7V93.4H115v.66ZM113,88.7h0l-3.27,4.71H113Z"/><path class="cls-5" d="M119.26,87.49a3.57,3.57,0,0,1,1,.13,2.67,2.67,0,0,1,.85.41,2.08,2.08,0,0,1,.6.69,2,2,0,0,1,.23,1,2.22,2.22,0,0,1-.1.66,1.82,1.82,0,0,1-.28.56,1.77,1.77,0,0,1-.45.42,2.14,2.14,0,0,1-.62.27v0a2.06,2.06,0,0,1,1.33.74,2.21,2.21,0,0,1,.45,1.39,2.41,2.41,0,0,1-.84,1.91,2.78,2.78,0,0,1-1,.55,3.78,3.78,0,0,1-1.21.18,3.66,3.66,0,0,1-1.12-.17,2.8,2.8,0,0,1-.92-.49,2.34,2.34,0,0,1-.63-.78,2.28,2.28,0,0,1-.23-1v-.18h.79v.16a1.74,1.74,0,0,0,.56,1.28,2,2,0,0,0,.66.4,2.45,2.45,0,0,0,.88.15,2.7,2.7,0,0,0,.91-.13,2.21,2.21,0,0,0,.69-.4,1.7,1.7,0,0,0,.64-1.38,1.89,1.89,0,0,0-.14-.75,1.64,1.64,0,0,0-.42-.58,2.22,2.22,0,0,0-1.53-.5h-.64v-.66h.69a1.86,1.86,0,0,0,1.21-.42,1.42,1.42,0,0,0,.52-1.15,1.59,1.59,0,0,0-.15-.71,1.48,1.48,0,0,0-.4-.51,1.73,1.73,0,0,0-.6-.31,2.56,2.56,0,0,0-.73-.1,2.1,2.1,0,0,0-.81.15,1.8,1.8,0,0,0-.61.41,1.82,1.82,0,0,0-.39.6,2,2,0,0,0-.13.73h-.78a2.44,2.44,0,0,1,.18-.92,2.53,2.53,0,0,1,.53-.82,2.7,2.7,0,0,1,.86-.59A2.82,2.82,0,0,1,119.26,87.49Z"/><path class="cls-5" d="M125.37,94.94v1.27h-1.11V94.94Z"/><path class="cls-5" d="M130.53,87.49a3.17,3.17,0,0,1,.94.13,2.34,2.34,0,0,1,.75.38,2.14,2.14,0,0,1,.54.62,2.49,2.49,0,0,1,.3.83h-.78a1.7,1.7,0,0,0-.19-.51,1.45,1.45,0,0,0-.35-.42,1.67,1.67,0,0,0-.52-.28,2.16,2.16,0,0,0-.69-.1,2,2,0,0,0-1,.25,2.1,2.1,0,0,0-.75.75,3.82,3.82,0,0,0-.45,1.21,8,8,0,0,0-.15,1.65h0a2.58,2.58,0,0,1,2.31-1.44,2.74,2.74,0,0,1,2.05.81,2.83,2.83,0,0,1,.8,2.08,2.84,2.84,0,0,1-2.94,2.94A3.09,3.09,0,0,1,129,96.1a2.31,2.31,0,0,1-.93-.84,4.2,4.2,0,0,1-.52-1.39,10.4,10.4,0,0,1-.17-2.05,8.43,8.43,0,0,1,.07-1.06,5.56,5.56,0,0,1,.22-1,4.46,4.46,0,0,1,.4-.89,2.83,2.83,0,0,1,.6-.72,2.66,2.66,0,0,1,.82-.48A3.07,3.07,0,0,1,130.53,87.49Zm-2.23,6a2.25,2.25,0,0,0,.57,1.63,2.11,2.11,0,0,0,1.59.59,1.91,1.91,0,0,0,1.49-.66,2.26,2.26,0,0,0,.59-1.56,2.4,2.4,0,0,0-.57-1.64,1.93,1.93,0,0,0-1.52-.65,2,2,0,0,0-1.54.63A2.3,2.3,0,0,0,128.3,93.52Z"/><path class="cls-5" d="M137.61,96.21V89.78h-2.29v-.56q.53,0,.9-.06a2.36,2.36,0,0,0,.57-.13,1.3,1.3,0,0,0,.64-.52,2.46,2.46,0,0,0,.31-1h.63v8.65Z"/><path class="cls-5" d="M147.59,87.66v.71a13.7,13.7,0,0,0-1.42,1.75A13.19,13.19,0,0,0,145.1,92a11.5,11.5,0,0,0-.7,2,12.2,12.2,0,0,0-.31,2.14h-.84a12.81,12.81,0,0,1,.32-2.12,10.53,10.53,0,0,1,.67-1.93,15.67,15.67,0,0,1,2.58-3.79H142v-.71Z"/><path class="cls-5" d="M75.63,118.49a2.87,2.87,0,0,1,1.32.29,2.48,2.48,0,0,1,.94.85,4.14,4.14,0,0,1,.57,1.39,8.64,8.64,0,0,1,.19,1.92,5.94,5.94,0,0,1-.77,3.35,2.82,2.82,0,0,1-4.49,0,7.62,7.62,0,0,1,0-6.69A2.56,2.56,0,0,1,75.63,118.49Zm-2.23,4.45q0,3.81,2.23,3.81t2.24-3.81a5.64,5.64,0,0,0-.57-2.84,1.84,1.84,0,0,0-1.68-1,1.82,1.82,0,0,0-1.65.94A5.63,5.63,0,0,0,73.4,122.93Z"/><path class="cls-5" d="M85.67,118.66v.71a13.7,13.7,0,0,0-1.42,1.75A13.19,13.19,0,0,0,83.18,123a11.5,11.5,0,0,0-.7,2,12.2,12.2,0,0,0-.31,2.14h-.84a12.81,12.81,0,0,1,.32-2.12,10.53,10.53,0,0,1,.67-1.93,15.67,15.67,0,0,1,2.58-3.79H80.1v-.71Z"/><path class="cls-5" d="M88.93,120.89v1.27H87.82v-1.27Zm0,5v1.27H87.82v-1.27Z"/><path class="cls-5" d="M93.78,118.49a3.57,3.57,0,0,1,1,.13,2.67,2.67,0,0,1,.85.41,2.08,2.08,0,0,1,.6.69,2,2,0,0,1,.23,1,2.22,2.22,0,0,1-.1.66,1.82,1.82,0,0,1-.28.56,1.77,1.77,0,0,1-.45.42,2.14,2.14,0,0,1-.62.27v0a2.06,2.06,0,0,1,1.33.74,2.21,2.21,0,0,1,.45,1.39,2.41,2.41,0,0,1-.84,1.91,2.78,2.78,0,0,1-1,.55,3.78,3.78,0,0,1-1.21.18,3.66,3.66,0,0,1-1.12-.17,2.8,2.8,0,0,1-.92-.49,2.34,2.34,0,0,1-.63-.78,2.28,2.28,0,0,1-.23-1v-.18h.79v.16a1.74,1.74,0,0,0,.56,1.28,2,2,0,0,0,.66.4,2.45,2.45,0,0,0,.88.15,2.7,2.7,0,0,0,.91-.13,2.21,2.21,0,0,0,.69-.4,1.7,1.7,0,0,0,.64-1.38,1.89,1.89,0,0,0-.14-.75,1.64,1.64,0,0,0-.42-.58,2.22,2.22,0,0,0-1.53-.5h-.64v-.66h.69a1.86,1.86,0,0,0,1.21-.42,1.42,1.42,0,0,0,.52-1.15,1.59,1.59,0,0,0-.15-.71,1.48,1.48,0,0,0-.4-.51,1.73,1.73,0,0,0-.6-.31,2.56,2.56,0,0,0-.73-.1,2.1,2.1,0,0,0-.81.15,1.8,1.8,0,0,0-.61.41,1.82,1.82,0,0,0-.39.6,2,2,0,0,0-.13.73H91a2.44,2.44,0,0,1,.18-.92,2.53,2.53,0,0,1,.53-.82,2.7,2.7,0,0,1,.86-.59A2.82,2.82,0,0,1,93.78,118.49Z"/><path class="cls-5" d="M104.11,124.79a2.36,2.36,0,0,1-.83,1.91,3.22,3.22,0,0,1-2.16.7,3.18,3.18,0,0,1-2.16-.71,2.52,2.52,0,0,1-.7-2.64,2.28,2.28,0,0,1,.35-.67,2.18,2.18,0,0,1,1.28-.81v0a2.05,2.05,0,0,1-1.06-.72,2,2,0,0,1-.35-1.18,1.9,1.9,0,0,1,.76-1.57,2.91,2.91,0,0,1,1.86-.59,3,3,0,0,1,1.88.59,1.88,1.88,0,0,1,.76,1.57,2.2,2.2,0,0,1-.09.65,1.81,1.81,0,0,1-.72,1,2.1,2.1,0,0,1-.6.28v0a2.18,2.18,0,0,1,1.32.76A2.29,2.29,0,0,1,104.11,124.79Zm-.78,0a1.75,1.75,0,0,0-.59-1.35,2.78,2.78,0,0,0-3.24,0,1.76,1.76,0,0,0-.57,1.37,1.79,1.79,0,0,0,.6,1.42,2.7,2.7,0,0,0,3.2,0A1.79,1.79,0,0,0,103.33,124.79Zm-.36-4.14a1.35,1.35,0,0,0-.5-1.1,2.37,2.37,0,0,0-2.67,0,1.3,1.3,0,0,0-.53,1.09,1.48,1.48,0,0,0,.49,1.18,2,2,0,0,0,1.32.43,2,2,0,0,0,1.41-.45A1.52,1.52,0,0,0,103,120.65Z"/><path class="cls-5" d="M107.15,120.89v1.27H106v-1.27Zm0,5v1.27H106v-1.27Z"/><path class="cls-5" d="M113.73,125.06v2.15H113v-2.15h-4v-.75l4-5.75h.7v5.85H115v.66ZM113,119.7h0l-3.27,4.71H113Z"/><path class="cls-5" d="M119.26,118.49a3.57,3.57,0,0,1,1,.13,2.67,2.67,0,0,1,.85.41,2.08,2.08,0,0,1,.6.69,2,2,0,0,1,.23,1,2.22,2.22,0,0,1-.1.66,1.82,1.82,0,0,1-.28.56,1.77,1.77,0,0,1-.45.42,2.14,2.14,0,0,1-.62.27v0a2.06,2.06,0,0,1,1.33.74,2.21,2.21,0,0,1,.45,1.39,2.41,2.41,0,0,1-.84,1.91,2.78,2.78,0,0,1-1,.55,3.78,3.78,0,0,1-1.21.18,3.66,3.66,0,0,1-1.12-.17,2.8,2.8,0,0,1-.92-.49,2.34,2.34,0,0,1-.63-.78,2.28,2.28,0,0,1-.23-1v-.18h.79v.16a1.74,1.74,0,0,0,.56,1.28,2,2,0,0,0,.66.4,2.45,2.45,0,0,0,.88.15,2.7,2.7,0,0,0,.91-.13,2.21,2.21,0,0,0,.69-.4,1.7,1.7,0,0,0,.64-1.38,1.89,1.89,0,0,0-.14-.75,1.64,1.64,0,0,0-.42-.58,2.22,2.22,0,0,0-1.53-.5h-.64v-.66h.69a1.86,1.86,0,0,0,1.21-.42,1.42,1.42,0,0,0,.52-1.15,1.59,1.59,0,0,0-.15-.71,1.48,1.48,0,0,0-.4-.51,1.73,1.73,0,0,0-.6-.31,2.56,2.56,0,0,0-.73-.1,2.1,2.1,0,0,0-.81.15,1.8,1.8,0,0,0-.61.41,1.82,1.82,0,0,0-.39.6,2,2,0,0,0-.13.73h-.78a2.44,2.44,0,0,1,.18-.92,2.53,2.53,0,0,1,.53-.82,2.7,2.7,0,0,1,.86-.59A2.82,2.82,0,0,1,119.26,118.49Z"/><path class="cls-5" d="M125.37,125.94v1.27h-1.11v-1.27Z"/><path class="cls-5" d="M132.72,118.66v.72h-3.78l-.54,2.78,0,0a2.32,2.32,0,0,1,.82-.52,2.79,2.79,0,0,1,1-.18,3.18,3.18,0,0,1,1.2.22,2.6,2.6,0,0,1,.92.61,2.73,2.73,0,0,1,.59.94,3.43,3.43,0,0,1,.21,1.22,2.81,2.81,0,0,1-.23,1.14,2.94,2.94,0,0,1-1.61,1.56,3.12,3.12,0,0,1-1.2.23,3.29,3.29,0,0,1-1.1-.17,2.59,2.59,0,0,1-.85-.48,2.26,2.26,0,0,1-.56-.74,2.52,2.52,0,0,1-.23-1h.79a1.84,1.84,0,0,0,.16.64,1.65,1.65,0,0,0,.4.54,2,2,0,0,0,.62.37,2.29,2.29,0,0,0,.83.14,2.06,2.06,0,0,0,.87-.18,2.14,2.14,0,0,0,.7-.5,2.4,2.4,0,0,0,.46-.75,2.49,2.49,0,0,0,.17-.92,2.41,2.41,0,0,0-.16-.86,2.12,2.12,0,0,0-1.14-1.2,2.2,2.2,0,0,0-.91-.18,2.55,2.55,0,0,0-1.07.23,2.22,2.22,0,0,0-.85.68h-.66l.81-4.38Z"/><path class="cls-5" d="M137.54,118.49a2.87,2.87,0,0,1,1.32.29,2.48,2.48,0,0,1,.94.85,4.14,4.14,0,0,1,.57,1.39,8.64,8.64,0,0,1,.19,1.92,5.94,5.94,0,0,1-.77,3.35,2.82,2.82,0,0,1-4.49,0,7.62,7.62,0,0,1,0-6.69A2.56,2.56,0,0,1,137.54,118.49Zm-2.23,4.45q0,3.81,2.23,3.81t2.24-3.81a5.64,5.64,0,0,0-.57-2.84,1.84,1.84,0,0,0-1.68-1,1.82,1.82,0,0,0-1.65.94A5.63,5.63,0,0,0,135.31,122.93Z"/><path class="cls-5" d="M144.75,118.49a3.57,3.57,0,0,1,1,.13,2.67,2.67,0,0,1,.85.41,2.08,2.08,0,0,1,.6.69,2,2,0,0,1,.23,1,2.22,2.22,0,0,1-.1.66,1.82,1.82,0,0,1-.28.56,1.77,1.77,0,0,1-.45.42,2.14,2.14,0,0,1-.62.27v0a2.06,2.06,0,0,1,1.33.74,2.21,2.21,0,0,1,.45,1.39,2.41,2.41,0,0,1-.84,1.91,2.78,2.78,0,0,1-1,.55,3.78,3.78,0,0,1-1.21.18,3.66,3.66,0,0,1-1.12-.17,2.8,2.8,0,0,1-.92-.49,2.34,2.34,0,0,1-.63-.78,2.28,2.28,0,0,1-.23-1v-.18h.79v.16a1.74,1.74,0,0,0,.56,1.28,2,2,0,0,0,.66.4,2.45,2.45,0,0,0,.88.15,2.7,2.7,0,0,0,.91-.13,2.21,2.21,0,0,0,.69-.4,1.7,1.7,0,0,0,.64-1.38,1.89,1.89,0,0,0-.14-.75,1.64,1.64,0,0,0-.42-.58,2.22,2.22,0,0,0-1.53-.5h-.64v-.66h.69a1.86,1.86,0,0,0,1.21-.42,1.42,1.42,0,0,0,.52-1.15,1.59,1.59,0,0,0-.15-.71,1.48,1.48,0,0,0-.4-.51,1.73,1.73,0,0,0-.6-.31,2.56,2.56,0,0,0-.73-.1,2.1,2.1,0,0,0-.81.15,1.8,1.8,0,0,0-.61.41,1.82,1.82,0,0,0-.39.6,2,2,0,0,0-.13.73H142a2.44,2.44,0,0,1,.18-.92,2.53,2.53,0,0,1,.53-.82,2.7,2.7,0,0,1,.86-.59A2.82,2.82,0,0,1,144.75,118.49Z"/><path class="cls-5" d="M75.63,149.49a2.87,2.87,0,0,1,1.32.29,2.48,2.48,0,0,1,.94.85,4.14,4.14,0,0,1,.57,1.39,8.64,8.64,0,0,1,.19,1.92,5.94,5.94,0,0,1-.77,3.35,2.82,2.82,0,0,1-4.49,0,7.62,7.62,0,0,1,0-6.69A2.56,2.56,0,0,1,75.63,149.49Zm-2.23,4.45q0,3.81,2.23,3.81t2.24-3.81a5.64,5.64,0,0,0-.57-2.84,1.84,1.84,0,0,0-1.68-1,1.82,1.82,0,0,0-1.65.94A5.63,5.63,0,0,0,73.4,153.93Z"/><path class="cls-5" d="M83.15,149.49a3.17,3.17,0,0,1,.94.13,2.34,2.34,0,0,1,.75.38,2.14,2.14,0,0,1,.54.62,2.49,2.49,0,0,1,.3.83h-.78a1.7,1.7,0,0,0-.19-.51,1.45,1.45,0,0,0-.35-.42,1.67,1.67,0,0,0-.52-.28,2.16,2.16,0,0,0-.69-.1,2,2,0,0,0-1,.25,2.1,2.1,0,0,0-.75.75,3.82,3.82,0,0,0-.45,1.21,8,8,0,0,0-.15,1.65h0a2.58,2.58,0,0,1,2.31-1.44,2.74,2.74,0,0,1,2.05.81,2.83,2.83,0,0,1,.8,2.08A2.84,2.84,0,0,1,83,158.4a3.09,3.09,0,0,1-1.41-.29,2.31,2.31,0,0,1-.93-.84,4.2,4.2,0,0,1-.52-1.39,10.4,10.4,0,0,1-.17-2.05,8.43,8.43,0,0,1,.07-1.06,5.56,5.56,0,0,1,.22-1,4.46,4.46,0,0,1,.4-.89,2.83,2.83,0,0,1,.6-.72,2.66,2.66,0,0,1,.82-.48A3.07,3.07,0,0,1,83.15,149.49Zm-2.23,6a2.25,2.25,0,0,0,.57,1.63,2.11,2.11,0,0,0,1.59.59,1.91,1.91,0,0,0,1.49-.66,2.26,2.26,0,0,0,.59-1.56,2.4,2.4,0,0,0-.57-1.64,1.93,1.93,0,0,0-1.52-.65,2,2,0,0,0-1.54.63A2.3,2.3,0,0,0,80.91,155.52Z"/><path class="cls-5" d="M88.93,151.89v1.27H87.82v-1.27Zm0,5v1.27H87.82v-1.27Z"/><path class="cls-5" d="M93.78,149.49a3.57,3.57,0,0,1,1,.13,2.67,2.67,0,0,1,.85.41,2.08,2.08,0,0,1,.6.69,2,2,0,0,1,.23,1,2.22,2.22,0,0,1-.1.66,1.82,1.82,0,0,1-.28.56,1.77,1.77,0,0,1-.45.42,2.14,2.14,0,0,1-.62.27v0a2.06,2.06,0,0,1,1.33.74,2.21,2.21,0,0,1,.45,1.39,2.41,2.41,0,0,1-.84,1.91,2.78,2.78,0,0,1-1,.55,3.78,3.78,0,0,1-1.21.18,3.66,3.66,0,0,1-1.12-.17,2.8,2.8,0,0,1-.92-.49,2.34,2.34,0,0,1-.63-.78,2.28,2.28,0,0,1-.23-1v-.18h.79v.16a1.74,1.74,0,0,0,.56,1.28,2,2,0,0,0,.66.4,2.45,2.45,0,0,0,.88.15,2.7,2.7,0,0,0,.91-.13,2.21,2.21,0,0,0,.69-.4,1.7,1.7,0,0,0,.64-1.38,1.89,1.89,0,0,0-.14-.75,1.64,1.64,0,0,0-.42-.58,2.22,2.22,0,0,0-1.53-.5h-.64v-.66h.69a1.86,1.86,0,0,0,1.21-.42,1.42,1.42,0,0,0,.52-1.15,1.59,1.59,0,0,0-.15-.71,1.48,1.48,0,0,0-.4-.51,1.73,1.73,0,0,0-.6-.31,2.56,2.56,0,0,0-.73-.1,2.1,2.1,0,0,0-.81.15,1.8,1.8,0,0,0-.61.41,1.82,1.82,0,0,0-.39.6,2,2,0,0,0-.13.73H91a2.44,2.44,0,0,1,.18-.92,2.53,2.53,0,0,1,.53-.82,2.7,2.7,0,0,1,.86-.59A2.82,2.82,0,0,1,93.78,149.49Z"/><path class="cls-5" d="M103.89,149.66v.71a13.7,13.7,0,0,0-1.42,1.75A13.19,13.19,0,0,0,101.4,154a11.5,11.5,0,0,0-.7,2,12.2,12.2,0,0,0-.31,2.14h-.84a12.81,12.81,0,0,1,.32-2.12,10.53,10.53,0,0,1,.67-1.93,15.67,15.67,0,0,1,2.58-3.79H98.32v-.71Z"/><path class="cls-5" d="M107.15,151.89v1.27H106v-1.27Zm0,5v1.27H106v-1.27Z"/><path class="cls-5" d="M113.73,156.06v2.15H113v-2.15h-4v-.75l4-5.75h.7v5.85H115v.66ZM113,150.7h0l-3.27,4.71H113Z"/><path class="cls-5" d="M119.26,149.49a3.57,3.57,0,0,1,1,.13,2.67,2.67,0,0,1,.85.41,2.08,2.08,0,0,1,.6.69,2,2,0,0,1,.23,1,2.22,2.22,0,0,1-.1.66,1.82,1.82,0,0,1-.28.56,1.77,1.77,0,0,1-.45.42,2.14,2.14,0,0,1-.62.27v0a2.06,2.06,0,0,1,1.33.74,2.21,2.21,0,0,1,.45,1.39,2.41,2.41,0,0,1-.84,1.91,2.78,2.78,0,0,1-1,.55,3.78,3.78,0,0,1-1.21.18,3.66,3.66,0,0,1-1.12-.17,2.8,2.8,0,0,1-.92-.49,2.34,2.34,0,0,1-.63-.78,2.28,2.28,0,0,1-.23-1v-.18h.79v.16a1.74,1.74,0,0,0,.56,1.28,2,2,0,0,0,.66.4,2.45,2.45,0,0,0,.88.15,2.7,2.7,0,0,0,.91-.13,2.21,2.21,0,0,0,.69-.4,1.7,1.7,0,0,0,.64-1.38,1.89,1.89,0,0,0-.14-.75,1.64,1.64,0,0,0-.42-.58,2.22,2.22,0,0,0-1.53-.5h-.64v-.66h.69a1.86,1.86,0,0,0,1.21-.42,1.42,1.42,0,0,0,.52-1.15,1.59,1.59,0,0,0-.15-.71,1.48,1.48,0,0,0-.4-.51,1.73,1.73,0,0,0-.6-.31,2.56,2.56,0,0,0-.73-.1,2.1,2.1,0,0,0-.81.15,1.8,1.8,0,0,0-.61.41,1.82,1.82,0,0,0-.39.6,2,2,0,0,0-.13.73h-.78a2.44,2.44,0,0,1,.18-.92,2.53,2.53,0,0,1,.53-.82,2.7,2.7,0,0,1,.86-.59A2.82,2.82,0,0,1,119.26,149.49Z"/><path class="cls-5" d="M125.37,156.94v1.27h-1.11v-1.27Z"/><path class="cls-5" d="M130.35,158.21v-6.43h-2.29v-.56q.53,0,.9-.06a2.36,2.36,0,0,0,.57-.13,1.3,1.3,0,0,0,.64-.52,2.46,2.46,0,0,0,.31-1h.63v8.65Z"/><path class="cls-5" d="M140,149.66v.72H136.2l-.54,2.78,0,0a2.32,2.32,0,0,1,.82-.52,2.79,2.79,0,0,1,1-.18,3.18,3.18,0,0,1,1.2.22,2.6,2.6,0,0,1,.92.61,2.73,2.73,0,0,1,.59.94,3.43,3.43,0,0,1,.21,1.22,2.81,2.81,0,0,1-.23,1.14,2.94,2.94,0,0,1-1.61,1.56,3.12,3.12,0,0,1-1.2.23,3.29,3.29,0,0,1-1.1-.17,2.59,2.59,0,0,1-.85-.48,2.26,2.26,0,0,1-.56-.74,2.52,2.52,0,0,1-.23-1h.79a1.84,1.84,0,0,0,.16.64,1.65,1.65,0,0,0,.4.54,2,2,0,0,0,.62.37,2.29,2.29,0,0,0,.83.14,2.06,2.06,0,0,0,.87-.18,2.14,2.14,0,0,0,.7-.5,2.4,2.4,0,0,0,.46-.75,2.49,2.49,0,0,0,.17-.92,2.41,2.41,0,0,0-.16-.86,2.12,2.12,0,0,0-1.14-1.2,2.2,2.2,0,0,0-.91-.18,2.55,2.55,0,0,0-1.07.23,2.22,2.22,0,0,0-.85.68h-.66l.81-4.38Z"/><path class="cls-5" d="M147.59,149.66v.71a13.7,13.7,0,0,0-1.42,1.75A13.19,13.19,0,0,0,145.1,154a11.5,11.5,0,0,0-.7,2,12.2,12.2,0,0,0-.31,2.14h-.84a12.81,12.81,0,0,1,.32-2.12,10.53,10.53,0,0,1,.67-1.93,15.67,15.67,0,0,1,2.58-3.79H142v-.71Z"/><path class="cls-5" d="M515,28.78a3.75,3.75,0,0,1,1.1.15,2.86,2.86,0,0,1,.89.44,2.45,2.45,0,0,1,.64.71,2.67,2.67,0,0,1,.34.95H516.7a1.59,1.59,0,0,0-.21-.47,1.52,1.52,0,0,0-.37-.38,1.85,1.85,0,0,0-.52-.26,2.12,2.12,0,0,0-.65-.09,2.09,2.09,0,0,0-1,.22,2.06,2.06,0,0,0-.7.6,2.6,2.6,0,0,0-.42.86,3.76,3.76,0,0,0-.14,1,3.69,3.69,0,0,0,.13,1,2.55,2.55,0,0,0,.4.85,2,2,0,0,0,1.7.83,2,2,0,0,0,.71-.12,1.68,1.68,0,0,0,.55-.33,1.71,1.71,0,0,0,.38-.51,2.24,2.24,0,0,0,.2-.65H518a3.54,3.54,0,0,1-.29,1A2.66,2.66,0,0,1,516.18,36a3.45,3.45,0,0,1-1.24.21,3.53,3.53,0,0,1-1.43-.28,3.19,3.19,0,0,1-1.1-.78,3.44,3.44,0,0,1-.7-1.17,4.34,4.34,0,0,1-.24-1.48,4.42,4.42,0,0,1,.23-1.43,3.57,3.57,0,0,1,.67-1.19,3.19,3.19,0,0,1,1.09-.82A3.48,3.48,0,0,1,515,28.78Z"/><path class="cls-5" d="M525.87,32.52a3.86,3.86,0,0,1-.95,2.66,3.21,3.21,0,0,1-2.51,1.05A3.65,3.65,0,0,1,521,36a3.23,3.23,0,0,1-1.1-.75A3.37,3.37,0,0,1,519.2,34a4.46,4.46,0,0,1-.25-1.51,3.9,3.9,0,0,1,.95-2.7,3.21,3.21,0,0,1,2.52-1.05,3.7,3.7,0,0,1,1.37.25,3,3,0,0,1,1.1.76,3.36,3.36,0,0,1,.74,1.24A4.77,4.77,0,0,1,525.87,32.52Zm-1.26,0a3.07,3.07,0,0,0-.59-2,2.14,2.14,0,0,0-3.25,0,3.08,3.08,0,0,0-.58,2,3,3,0,0,0,.58,1.91,2.16,2.16,0,0,0,3.26,0A3.05,3.05,0,0,0,524.61,32.52Z"/><path class="cls-5" d="M528.49,28.93V35h3.67v1.05h-4.92V28.93Z"/><path class="cls-5" d="M534.27,28.93v4.48a1.89,1.89,0,0,0,.41,1.33,1.68,1.68,0,0,0,1.29.44,1.73,1.73,0,0,0,1.29-.42,1.86,1.86,0,0,0,.41-1.34V28.93h1.25v4.53a2.74,2.74,0,0,1-.75,2,3,3,0,0,1-2.2.75A4,4,0,0,1,534.7,36a2.33,2.33,0,0,1-1.5-1.46,3.36,3.36,0,0,1-.18-1.13V28.93Z"/><path class="cls-5" d="M547,36.07V30.34h0l-2,5.73h-1.08l-2-5.7h0v5.7h-1.18V28.94h1.83l2,5.56h0l1.91-5.56h1.82v7.13Z"/><path class="cls-5" d="M551.18,28.93l3.4,5.3h0v-5.3h1.19v7.14h-1.27l-3.4-5.3h0v5.3h-1.19V28.93Z"/><path class="cls-5" d="M562.41,36.07V31.18h-1.83v-.86a5.05,5.05,0,0,0,.75-.06,2,2,0,0,0,.52-.15,1.32,1.32,0,0,0,.53-.46,1.84,1.84,0,0,0,.26-.74h.93v7.17Z"/><rect class="cls-1" x="478" y="84" width="14" height="14"/><g class="cls-11"><path class="cls-12" d="M491,85V97H479V85h12m1-1H478V98h14V84Z"/></g><rect class="cls-1" x="478" y="53" width="14" height="14"/><g class="cls-11"><path class="cls-12" d="M491,54V66H479V54h12m1-1H478V67h14V53Z"/></g><rect class="cls-9" x="504.5" y="106.5" width="73" height="31"/><path class="cls-10" d="M577,107v30H505V107h72m1-1H504v32h74V106Z"/><rect class="cls-9" x="465.5" y="106.5" width="39" height="31"/><path class="cls-10" d="M504,107v30H466V107h38m1-1H465v32h40V106Z"/><path class="cls-5" d="M561,63.17v2h-1.31v-2H556V61.88l3.82-5.27H561V62h1.2v1.15Zm-1.31-4.82h0L557.06,62h2.65Z"/><path class="cls-5" d="M569,56.65v1.18h-3.63l-.42,2.24,0,0a2.3,2.3,0,0,1,.75-.5,2.57,2.57,0,0,1,1-.17,2.81,2.81,0,0,1,1.14.22,2.53,2.53,0,0,1,.86.62,2.71,2.71,0,0,1,.55.93,3.47,3.47,0,0,1,.19,1.17,2.93,2.93,0,0,1-.24,1.17,3,3,0,0,1-.66,1,3.13,3.13,0,0,1-1,.65,3.22,3.22,0,0,1-1.25.24,4.16,4.16,0,0,1-1.15-.15,2.71,2.71,0,0,1-.93-.46,2.33,2.33,0,0,1-.64-.76,2.65,2.65,0,0,1-.28-1.07h1.4a1.51,1.51,0,0,0,.14.5,1.33,1.33,0,0,0,.31.41,1.41,1.41,0,0,0,.48.28,2,2,0,0,0,.65.1,1.67,1.67,0,0,0,.73-.16,1.7,1.7,0,0,0,.55-.42,1.85,1.85,0,0,0,.35-.61,2.17,2.17,0,0,0,.12-.73,2.11,2.11,0,0,0-.12-.7,1.65,1.65,0,0,0-.89-1,1.74,1.74,0,0,0-.74-.15,1.76,1.76,0,0,0-1.52.76h-1.24l.84-4.6Z"/><path class="cls-5" d="M554.42,87.65v1.18h-3.63l-.42,2.24,0,0a2.3,2.3,0,0,1,.75-.5,2.57,2.57,0,0,1,1-.17,2.81,2.81,0,0,1,1.14.22,2.53,2.53,0,0,1,.86.62,2.71,2.71,0,0,1,.55.93,3.47,3.47,0,0,1,.19,1.17,2.93,2.93,0,0,1-.24,1.17,3,3,0,0,1-.66,1,3.13,3.13,0,0,1-1,.65,3.22,3.22,0,0,1-1.25.24,4.16,4.16,0,0,1-1.15-.15,2.71,2.71,0,0,1-.93-.46A2.33,2.33,0,0,1,549,95a2.65,2.65,0,0,1-.28-1.07h1.4a1.51,1.51,0,0,0,.14.5,1.33,1.33,0,0,0,.31.41,1.41,1.41,0,0,0,.48.28,2,2,0,0,0,.65.1,1.67,1.67,0,0,0,.73-.16,1.7,1.7,0,0,0,.55-.42,1.85,1.85,0,0,0,.35-.61,2.17,2.17,0,0,0,.12-.73,2.11,2.11,0,0,0-.12-.7,1.65,1.65,0,0,0-.89-1,1.74,1.74,0,0,0-.74-.15,1.76,1.76,0,0,0-1.52.76H549l.84-4.6Z"/><path class="cls-5" d="M562.25,93.73a2.37,2.37,0,0,1-.89,1.95,3.88,3.88,0,0,1-4.51,0,2.33,2.33,0,0,1-.88-1.93,2.43,2.43,0,0,1,.11-.76,2.08,2.08,0,0,1,.33-.63,2,2,0,0,1,.52-.47,2.17,2.17,0,0,1,.7-.28v0a1.81,1.81,0,0,1-1-.67,1.92,1.92,0,0,1-.33-1.14,2,2,0,0,1,.81-1.65,3.16,3.16,0,0,1,2-.62,2.91,2.91,0,0,1,2,.67,2,2,0,0,1,.76,1.58,2.14,2.14,0,0,1-.08.61,1.83,1.83,0,0,1-.25.52,1.75,1.75,0,0,1-.41.42,2,2,0,0,1-.57.28v0a2.06,2.06,0,0,1,1.24.75A2.24,2.24,0,0,1,562.25,93.73Zm-1.39,0a1.45,1.45,0,0,0-.48-1.11,1.79,1.79,0,0,0-1.27-.44,1.88,1.88,0,0,0-1.27.42,1.42,1.42,0,0,0-.49,1.13,1.53,1.53,0,0,0,.5,1.18,1.79,1.79,0,0,0,1.27.46,1.74,1.74,0,0,0,1.25-.45A1.53,1.53,0,0,0,560.85,93.68Zm-.26-3.83a1.42,1.42,0,0,0-.11-.56,1,1,0,0,0-.32-.42,1.85,1.85,0,0,0-2.14,0,1.18,1.18,0,0,0-.42.94,1.19,1.19,0,0,0,.41.94,1.85,1.85,0,0,0,2.19,0A1.21,1.21,0,0,0,560.6,89.85Z"/><path class="cls-5" d="M566.12,96.39a3.21,3.21,0,0,1-1-.14,2.49,2.49,0,0,1-.79-.41,2.29,2.29,0,0,1-.57-.65,2.45,2.45,0,0,1-.3-.86h1.34a1.6,1.6,0,0,0,.17.39,1.14,1.14,0,0,0,.28.31,1.3,1.3,0,0,0,.39.21,1.55,1.55,0,0,0,.5.08,1.46,1.46,0,0,0,.88-.26,2,2,0,0,0,.59-.69,3.5,3.5,0,0,0,.33-1,6.78,6.78,0,0,0,.12-1.13h0a2.16,2.16,0,0,1-.67.68,2.21,2.21,0,0,1-.9.3,2.48,2.48,0,0,1-1.37-.11,2.34,2.34,0,0,1-1.35-1,2.76,2.76,0,0,1-.49-1.62,3,3,0,0,1,.85-2.2,2.84,2.84,0,0,1,2.13-.87,3.25,3.25,0,0,1,1.42.29,2.51,2.51,0,0,1,1,.86,5.88,5.88,0,0,1,.79,3.34,7.74,7.74,0,0,1-.07,1.05,5.85,5.85,0,0,1-.23,1,4.56,4.56,0,0,1-.42.92,3,3,0,0,1-.62.75,2.77,2.77,0,0,1-.86.5A3.19,3.19,0,0,1,566.12,96.39Zm1.8-5.94a1.88,1.88,0,0,0-.45-1.3,1.53,1.53,0,0,0-1.22-.52,1.41,1.41,0,0,0-1.13.53,1.9,1.9,0,0,0-.45,1.27,2,2,0,0,0,.43,1.32,1.43,1.43,0,0,0,1.17.54,1.55,1.55,0,0,0,1.2-.52A2,2,0,0,0,567.92,90.45Z"/><path class="cls-5" d="M540.18,118.64v1.21a8.83,8.83,0,0,0-1.24,1.49,10.33,10.33,0,0,0-.95,1.83,12,12,0,0,0-.87,4h-1.49a11.75,11.75,0,0,1,.93-3.82,13.7,13.7,0,0,1,2.2-3.45h-4.32v-1.29Z"/><path class="cls-5" d="M547.15,118.65v1.18h-3.63l-.42,2.24,0,0a2.3,2.3,0,0,1,.75-.5,2.57,2.57,0,0,1,1-.17,2.81,2.81,0,0,1,1.14.22,2.53,2.53,0,0,1,.86.62,2.71,2.71,0,0,1,.55.93,3.47,3.47,0,0,1,.19,1.17,2.93,2.93,0,0,1-.24,1.17,3,3,0,0,1-.66,1,3.13,3.13,0,0,1-1,.65,3.22,3.22,0,0,1-1.25.24,4.16,4.16,0,0,1-1.15-.15,2.71,2.71,0,0,1-.93-.46,2.33,2.33,0,0,1-.64-.76,2.65,2.65,0,0,1-.28-1.07h1.4a1.51,1.51,0,0,0,.14.5,1.33,1.33,0,0,0,.31.41,1.41,1.41,0,0,0,.48.28,2,2,0,0,0,.65.1,1.67,1.67,0,0,0,.73-.16,1.7,1.7,0,0,0,.55-.42,1.85,1.85,0,0,0,.35-.61,2.17,2.17,0,0,0,.12-.73,2.11,2.11,0,0,0-.12-.7,1.65,1.65,0,0,0-.89-1,1.74,1.74,0,0,0-.74-.15,1.76,1.76,0,0,0-1.52.76h-1.24l.84-4.6Z"/><path class="cls-5" d="M553.76,125.17v2h-1.31v-2h-3.76v-1.29l3.82-5.27h1.25V124H555v1.15Zm-1.31-4.82h0L549.79,124h2.65Z"/><path class="cls-5" d="M559.1,118.48a3.64,3.64,0,0,1,1,.15,2.72,2.72,0,0,1,.88.44,2.18,2.18,0,0,1,.62.72,2.1,2.1,0,0,1,.23,1,2.16,2.16,0,0,1-.08.62,1.83,1.83,0,0,1-.25.52,1.63,1.63,0,0,1-.4.41,1.88,1.88,0,0,1-.56.27v0a1.93,1.93,0,0,1,1.2.71,2.07,2.07,0,0,1,.42,1.3,2.5,2.5,0,0,1-.89,2,3.31,3.31,0,0,1-2.23.76,3.84,3.84,0,0,1-1.17-.18,2.94,2.94,0,0,1-1-.52,2.49,2.49,0,0,1-.67-.84,2.55,2.55,0,0,1-.25-1.14v-.13h1.34v.13a1.45,1.45,0,0,0,.49,1.11,1.58,1.58,0,0,0,.52.3,1.91,1.91,0,0,0,.64.11,1.81,1.81,0,0,0,1.28-.44,1.45,1.45,0,0,0,.47-1.11,1.34,1.34,0,0,0-.45-1.09,2.2,2.2,0,0,0-1.46-.39h-.35v-1h.43a1.86,1.86,0,0,0,1.2-.35,1.1,1.1,0,0,0,.4-.9,1.39,1.39,0,0,0-.11-.58,1.12,1.12,0,0,0-.31-.41,1.34,1.34,0,0,0-.46-.24,2,2,0,0,0-.57-.08,1.7,1.7,0,0,0-.6.1,1.41,1.41,0,0,0-.48.3,1.44,1.44,0,0,0-.33.47,1.62,1.62,0,0,0-.13.64h-1.34a2.81,2.81,0,0,1,.23-1,2.55,2.55,0,0,1,.59-.84,2.75,2.75,0,0,1,.91-.56A3.27,3.27,0,0,1,559.1,118.48Z"/><path class="cls-5" d="M566.12,127.39a3.21,3.21,0,0,1-1-.14,2.49,2.49,0,0,1-.79-.41,2.29,2.29,0,0,1-.57-.65,2.45,2.45,0,0,1-.3-.86h1.34a1.6,1.6,0,0,0,.17.39,1.14,1.14,0,0,0,.28.31,1.3,1.3,0,0,0,.39.21,1.55,1.55,0,0,0,.5.08,1.46,1.46,0,0,0,.88-.26,2,2,0,0,0,.59-.69,3.5,3.5,0,0,0,.33-1,6.78,6.78,0,0,0,.12-1.13h0a2.16,2.16,0,0,1-.67.68,2.21,2.21,0,0,1-.9.3,2.48,2.48,0,0,1-1.37-.11,2.34,2.34,0,0,1-1.35-1,2.76,2.76,0,0,1-.49-1.62,3,3,0,0,1,.85-2.2,2.84,2.84,0,0,1,2.13-.87,3.25,3.25,0,0,1,1.42.29,2.51,2.51,0,0,1,1,.86,5.88,5.88,0,0,1,.79,3.34,7.74,7.74,0,0,1-.07,1.05,5.85,5.85,0,0,1-.23,1,4.56,4.56,0,0,1-.42.92,3,3,0,0,1-.62.75,2.77,2.77,0,0,1-.86.5A3.19,3.19,0,0,1,566.12,127.39Zm1.8-5.94a1.88,1.88,0,0,0-.45-1.3,1.53,1.53,0,0,0-1.22-.52,1.41,1.41,0,0,0-1.13.53,1.9,1.9,0,0,0-.45,1.27,2,2,0,0,0,.43,1.32,1.43,1.43,0,0,0,1.17.54,1.55,1.55,0,0,0,1.2-.52A2,2,0,0,0,567.92,121.45Z"/><path class="cls-5" d="M555,155.73a2.37,2.37,0,0,1-.89,1.95,3.88,3.88,0,0,1-4.51,0,2.33,2.33,0,0,1-.88-1.93,2.43,2.43,0,0,1,.11-.76,2.08,2.08,0,0,1,.33-.63,2,2,0,0,1,.52-.47,2.17,2.17,0,0,1,.7-.28v0a1.81,1.81,0,0,1-1-.67,1.92,1.92,0,0,1-.33-1.14,2,2,0,0,1,.81-1.65,3.16,3.16,0,0,1,2-.62,2.91,2.91,0,0,1,2,.67,2,2,0,0,1,.76,1.58,2.14,2.14,0,0,1-.08.61,1.83,1.83,0,0,1-.25.52,1.75,1.75,0,0,1-.41.42,2,2,0,0,1-.57.28v0a2.06,2.06,0,0,1,1.24.75A2.24,2.24,0,0,1,555,155.73Zm-1.39,0a1.45,1.45,0,0,0-.48-1.11,1.79,1.79,0,0,0-1.27-.44,1.88,1.88,0,0,0-1.27.42,1.42,1.42,0,0,0-.49,1.13,1.53,1.53,0,0,0,.5,1.18,1.79,1.79,0,0,0,1.27.46,1.74,1.74,0,0,0,1.25-.45A1.53,1.53,0,0,0,553.59,155.68Zm-.26-3.83a1.42,1.42,0,0,0-.11-.56,1,1,0,0,0-.32-.42,1.85,1.85,0,0,0-2.14,0,1.18,1.18,0,0,0-.42.94,1.19,1.19,0,0,0,.41.94,1.85,1.85,0,0,0,2.19,0A1.21,1.21,0,0,0,553.33,151.85Z"/><path class="cls-5" d="M561.69,149.65v1.18h-3.63l-.42,2.24,0,0a2.3,2.3,0,0,1,.75-.5,2.57,2.57,0,0,1,1-.17,2.81,2.81,0,0,1,1.14.22,2.53,2.53,0,0,1,.86.62,2.71,2.71,0,0,1,.55.93,3.47,3.47,0,0,1,.19,1.17,2.93,2.93,0,0,1-.24,1.17,3,3,0,0,1-.66,1,3.13,3.13,0,0,1-1,.65,3.22,3.22,0,0,1-1.25.24,4.16,4.16,0,0,1-1.15-.15,2.71,2.71,0,0,1-.93-.46,2.33,2.33,0,0,1-.64-.76,2.65,2.65,0,0,1-.28-1.07h1.4a1.51,1.51,0,0,0,.14.5,1.33,1.33,0,0,0,.31.41,1.41,1.41,0,0,0,.48.28,2,2,0,0,0,.65.1,1.67,1.67,0,0,0,.73-.16,1.7,1.7,0,0,0,.55-.42,1.85,1.85,0,0,0,.35-.61,2.17,2.17,0,0,0,.12-.73,2.11,2.11,0,0,0-.12-.7,1.65,1.65,0,0,0-.89-1,1.74,1.74,0,0,0-.74-.15,1.76,1.76,0,0,0-1.52.76h-1.24l.84-4.6Z"/><path class="cls-5" d="M566.12,158.39a3.21,3.21,0,0,1-1-.14,2.49,2.49,0,0,1-.79-.41,2.29,2.29,0,0,1-.57-.65,2.45,2.45,0,0,1-.3-.86h1.34a1.6,1.6,0,0,0,.17.39,1.14,1.14,0,0,0,.28.31,1.3,1.3,0,0,0,.39.21,1.55,1.55,0,0,0,.5.08,1.46,1.46,0,0,0,.88-.26,2,2,0,0,0,.59-.69,3.5,3.5,0,0,0,.33-1,6.78,6.78,0,0,0,.12-1.13h0a2.16,2.16,0,0,1-.67.68,2.21,2.21,0,0,1-.9.3,2.48,2.48,0,0,1-1.37-.11,2.34,2.34,0,0,1-1.35-1,2.76,2.76,0,0,1-.49-1.62,3,3,0,0,1,.85-2.2,2.84,2.84,0,0,1,2.13-.87,3.25,3.25,0,0,1,1.42.29,2.51,2.51,0,0,1,1,.86,5.88,5.88,0,0,1,.79,3.34,7.74,7.74,0,0,1-.07,1.05,5.85,5.85,0,0,1-.23,1,4.56,4.56,0,0,1-.42.92,3,3,0,0,1-.62.75,2.77,2.77,0,0,1-.86.5A3.19,3.19,0,0,1,566.12,158.39Zm1.8-5.94a1.88,1.88,0,0,0-.45-1.3,1.53,1.53,0,0,0-1.22-.52,1.41,1.41,0,0,0-1.13.53,1.9,1.9,0,0,0-.45,1.27,2,2,0,0,0,.43,1.32,1.43,1.43,0,0,0,1.17.54,1.55,1.55,0,0,0,1.2-.52A2,2,0,0,0,567.92,152.45Z"/><path class="cls-5" d="M588,28.78a3.75,3.75,0,0,1,1.1.15,2.86,2.86,0,0,1,.89.44,2.45,2.45,0,0,1,.64.71,2.67,2.67,0,0,1,.34.95H589.7a1.59,1.59,0,0,0-.21-.47,1.52,1.52,0,0,0-.37-.38,1.85,1.85,0,0,0-.52-.26,2.12,2.12,0,0,0-.65-.09,2.09,2.09,0,0,0-1,.22,2.06,2.06,0,0,0-.7.6,2.6,2.6,0,0,0-.42.86,3.76,3.76,0,0,0-.14,1,3.69,3.69,0,0,0,.13,1,2.55,2.55,0,0,0,.4.85,2,2,0,0,0,1.7.83,2,2,0,0,0,.71-.12,1.68,1.68,0,0,0,.55-.33,1.71,1.71,0,0,0,.38-.51,2.24,2.24,0,0,0,.2-.65H591a3.54,3.54,0,0,1-.29,1A2.66,2.66,0,0,1,589.18,36a3.45,3.45,0,0,1-1.24.21,3.53,3.53,0,0,1-1.43-.28,3.19,3.19,0,0,1-1.1-.78,3.44,3.44,0,0,1-.7-1.17,4.34,4.34,0,0,1-.24-1.48,4.42,4.42,0,0,1,.23-1.43,3.57,3.57,0,0,1,.67-1.19,3.19,3.19,0,0,1,1.09-.82A3.48,3.48,0,0,1,588,28.78Z"/><path class="cls-5" d="M598.87,32.52a3.86,3.86,0,0,1-.95,2.66,3.21,3.21,0,0,1-2.51,1.05A3.65,3.65,0,0,1,594,36a3.23,3.23,0,0,1-1.1-.75A3.37,3.37,0,0,1,592.2,34a4.46,4.46,0,0,1-.25-1.51,3.9,3.9,0,0,1,.95-2.7,3.21,3.21,0,0,1,2.52-1.05,3.7,3.7,0,0,1,1.37.25,3,3,0,0,1,1.1.76,3.36,3.36,0,0,1,.74,1.24A4.77,4.77,0,0,1,598.87,32.52Zm-1.26,0a3.07,3.07,0,0,0-.59-2,2.14,2.14,0,0,0-3.25,0,3.08,3.08,0,0,0-.58,2,3,3,0,0,0,.58,1.91,2.16,2.16,0,0,0,3.26,0A3.05,3.05,0,0,0,597.61,32.52Z"/><path class="cls-5" d="M601.49,28.93V35h3.67v1.05h-4.92V28.93Z"/><path class="cls-5" d="M607.27,28.93v4.48a1.89,1.89,0,0,0,.41,1.33,1.68,1.68,0,0,0,1.29.44,1.73,1.73,0,0,0,1.29-.42,1.86,1.86,0,0,0,.41-1.34V28.93h1.25v4.53a2.74,2.74,0,0,1-.75,2,3,3,0,0,1-2.2.75A4,4,0,0,1,607.7,36a2.33,2.33,0,0,1-1.5-1.46,3.36,3.36,0,0,1-.18-1.13V28.93Z"/><path class="cls-5" d="M620,36.07V30.34h0l-2,5.73h-1.08l-2-5.7h0v5.7h-1.18V28.94h1.83l2,5.56h0l1.91-5.56h1.82v7.13Z"/><path class="cls-5" d="M624.18,28.93l3.4,5.3h0v-5.3h1.19v7.14h-1.27l-3.4-5.3h0v5.3h-1.19V28.93Z"/><path class="cls-5" d="M635.67,28.79a2.46,2.46,0,0,1,1.69.59,1.85,1.85,0,0,1,.5.69A2.31,2.31,0,0,1,638,31a2.35,2.35,0,0,1-.38,1.29,4.87,4.87,0,0,1-1.48,1.28q-.42.25-.71.47a5.64,5.64,0,0,0-.48.39,2.32,2.32,0,0,0-.52.68h3.61v1H633a2.78,2.78,0,0,1,.33-1.32,3.09,3.09,0,0,1,.42-.57,4.6,4.6,0,0,1,.62-.55l.79-.59.93-.69a2.24,2.24,0,0,0,.59-.63,1.34,1.34,0,0,0,.19-.69,1.4,1.4,0,0,0-.09-.5,1.1,1.1,0,0,0-.26-.4,1.21,1.21,0,0,0-.39-.25,1.48,1.48,0,0,0-1.09,0,1.22,1.22,0,0,0-.41.32,1.31,1.31,0,0,0-.24.44,1.64,1.64,0,0,0-.08.51v.12h-1.11v-.12a2.61,2.61,0,0,1,.17-1,2.11,2.11,0,0,1,.49-.75,2.25,2.25,0,0,1,.78-.49A2.87,2.87,0,0,1,635.67,28.79Z"/><rect class="cls-13" x="577.5" y="106.5" width="73" height="31"/><path class="cls-14" d="M650,107v30H578V107h72m1-1H577v32h74V106Z"/><path class="cls-5" d="M634,63.17v2h-1.31v-2H629V61.88l3.82-5.27H634V62h1.2v1.15Zm-1.31-4.82h0L630.06,62h2.65Z"/><path class="cls-5" d="M642,56.65v1.18h-3.63l-.42,2.24,0,0a2.3,2.3,0,0,1,.75-.5,2.57,2.57,0,0,1,1-.17,2.81,2.81,0,0,1,1.14.22,2.53,2.53,0,0,1,.86.62,2.71,2.71,0,0,1,.55.93,3.47,3.47,0,0,1,.19,1.17,2.93,2.93,0,0,1-.24,1.17,3,3,0,0,1-.66,1,3.13,3.13,0,0,1-1,.65,3.22,3.22,0,0,1-1.25.24,4.16,4.16,0,0,1-1.15-.15,2.71,2.71,0,0,1-.93-.46,2.33,2.33,0,0,1-.64-.76,2.65,2.65,0,0,1-.28-1.07h1.4a1.51,1.51,0,0,0,.14.5,1.33,1.33,0,0,0,.31.41,1.41,1.41,0,0,0,.48.28,2,2,0,0,0,.65.1,1.67,1.67,0,0,0,.73-.16,1.7,1.7,0,0,0,.55-.42,1.85,1.85,0,0,0,.35-.61,2.17,2.17,0,0,0,.12-.73,2.11,2.11,0,0,0-.12-.7,1.65,1.65,0,0,0-.89-1,1.74,1.74,0,0,0-.74-.15,1.76,1.76,0,0,0-1.52.76h-1.24l.84-4.6Z"/><path class="cls-5" d="M627.42,87.65v1.18h-3.63l-.42,2.24,0,0a2.3,2.3,0,0,1,.75-.5,2.57,2.57,0,0,1,1-.17,2.81,2.81,0,0,1,1.14.22,2.53,2.53,0,0,1,.86.62,2.71,2.71,0,0,1,.55.93,3.47,3.47,0,0,1,.19,1.17,2.93,2.93,0,0,1-.24,1.17,3,3,0,0,1-.66,1,3.13,3.13,0,0,1-1,.65,3.22,3.22,0,0,1-1.25.24,4.16,4.16,0,0,1-1.15-.15,2.71,2.71,0,0,1-.93-.46A2.33,2.33,0,0,1,622,95a2.65,2.65,0,0,1-.28-1.07h1.4a1.51,1.51,0,0,0,.14.5,1.33,1.33,0,0,0,.31.41,1.41,1.41,0,0,0,.48.28,2,2,0,0,0,.65.1,1.67,1.67,0,0,0,.73-.16,1.7,1.7,0,0,0,.55-.42,1.85,1.85,0,0,0,.35-.61,2.17,2.17,0,0,0,.12-.73,2.11,2.11,0,0,0-.12-.7,1.65,1.65,0,0,0-.89-1,1.74,1.74,0,0,0-.74-.15,1.76,1.76,0,0,0-1.52.76H622l.84-4.6Z"/><path class="cls-5" d="M635.25,93.73a2.37,2.37,0,0,1-.89,1.95,3.88,3.88,0,0,1-4.51,0,2.33,2.33,0,0,1-.88-1.93,2.43,2.43,0,0,1,.11-.76,2.08,2.08,0,0,1,.33-.63,2,2,0,0,1,.52-.47,2.17,2.17,0,0,1,.7-.28v0a1.81,1.81,0,0,1-1-.67,1.92,1.92,0,0,1-.33-1.14,2,2,0,0,1,.81-1.65,3.16,3.16,0,0,1,2-.62,2.91,2.91,0,0,1,2,.67,2,2,0,0,1,.76,1.58,2.14,2.14,0,0,1-.08.61,1.83,1.83,0,0,1-.25.52,1.75,1.75,0,0,1-.41.42,2,2,0,0,1-.57.28v0a2.06,2.06,0,0,1,1.24.75A2.24,2.24,0,0,1,635.25,93.73Zm-1.39,0a1.45,1.45,0,0,0-.48-1.11,1.79,1.79,0,0,0-1.27-.44,1.88,1.88,0,0,0-1.27.42,1.42,1.42,0,0,0-.49,1.13,1.53,1.53,0,0,0,.5,1.18,1.79,1.79,0,0,0,1.27.46,1.74,1.74,0,0,0,1.25-.45A1.53,1.53,0,0,0,633.85,93.68Zm-.26-3.83a1.42,1.42,0,0,0-.11-.56,1,1,0,0,0-.32-.42,1.85,1.85,0,0,0-2.14,0,1.18,1.18,0,0,0-.42.94,1.19,1.19,0,0,0,.41.94,1.85,1.85,0,0,0,2.19,0A1.21,1.21,0,0,0,633.6,89.85Z"/><path class="cls-5" d="M639.12,96.39a3.21,3.21,0,0,1-1-.14,2.49,2.49,0,0,1-.79-.41,2.29,2.29,0,0,1-.57-.65,2.45,2.45,0,0,1-.3-.86h1.34a1.6,1.6,0,0,0,.17.39,1.14,1.14,0,0,0,.28.31,1.3,1.3,0,0,0,.39.21,1.55,1.55,0,0,0,.5.08,1.46,1.46,0,0,0,.88-.26,2,2,0,0,0,.59-.69,3.5,3.5,0,0,0,.33-1,6.78,6.78,0,0,0,.12-1.13h0a2.16,2.16,0,0,1-.67.68,2.21,2.21,0,0,1-.9.3,2.48,2.48,0,0,1-1.37-.11,2.34,2.34,0,0,1-1.35-1,2.76,2.76,0,0,1-.49-1.62,3,3,0,0,1,.85-2.2,2.84,2.84,0,0,1,2.13-.87,3.25,3.25,0,0,1,1.42.29,2.51,2.51,0,0,1,1,.86,5.88,5.88,0,0,1,.79,3.34,7.74,7.74,0,0,1-.07,1.05,5.85,5.85,0,0,1-.23,1,4.56,4.56,0,0,1-.42.92,3,3,0,0,1-.62.75,2.77,2.77,0,0,1-.86.5A3.19,3.19,0,0,1,639.12,96.39Zm1.8-5.94a1.88,1.88,0,0,0-.45-1.3,1.53,1.53,0,0,0-1.22-.52,1.41,1.41,0,0,0-1.13.53,1.9,1.9,0,0,0-.45,1.27,2,2,0,0,0,.43,1.32,1.43,1.43,0,0,0,1.17.54,1.55,1.55,0,0,0,1.2-.52A2,2,0,0,0,640.92,90.45Z"/><path class="cls-5" d="M613.18,118.64v1.21a8.83,8.83,0,0,0-1.24,1.49,10.33,10.33,0,0,0-.95,1.83,12,12,0,0,0-.87,4h-1.49a11.75,11.75,0,0,1,.93-3.82,13.7,13.7,0,0,1,2.2-3.45h-4.32v-1.29Z"/><path class="cls-5" d="M620.15,118.65v1.18h-3.63l-.42,2.24,0,0a2.3,2.3,0,0,1,.75-.5,2.57,2.57,0,0,1,1-.17,2.81,2.81,0,0,1,1.14.22,2.53,2.53,0,0,1,.86.62,2.71,2.71,0,0,1,.55.93,3.47,3.47,0,0,1,.19,1.17,2.93,2.93,0,0,1-.24,1.17,3,3,0,0,1-.66,1,3.13,3.13,0,0,1-1,.65,3.22,3.22,0,0,1-1.25.24,4.16,4.16,0,0,1-1.15-.15,2.71,2.71,0,0,1-.93-.46,2.33,2.33,0,0,1-.64-.76,2.65,2.65,0,0,1-.28-1.07h1.4a1.51,1.51,0,0,0,.14.5,1.33,1.33,0,0,0,.31.41,1.41,1.41,0,0,0,.48.28,2,2,0,0,0,.65.1,1.67,1.67,0,0,0,.73-.16,1.7,1.7,0,0,0,.55-.42,1.85,1.85,0,0,0,.35-.61,2.17,2.17,0,0,0,.12-.73,2.11,2.11,0,0,0-.12-.7,1.65,1.65,0,0,0-.89-1,1.74,1.74,0,0,0-.74-.15,1.76,1.76,0,0,0-1.52.76h-1.24l.84-4.6Z"/><path class="cls-5" d="M626.76,125.17v2h-1.31v-2h-3.76v-1.29l3.82-5.27h1.25V124H628v1.15Zm-1.31-4.82h0L622.79,124h2.65Z"/><path class="cls-5" d="M632.1,118.48a3.64,3.64,0,0,1,1,.15,2.72,2.72,0,0,1,.88.44,2.18,2.18,0,0,1,.62.72,2.1,2.1,0,0,1,.23,1,2.16,2.16,0,0,1-.08.62,1.83,1.83,0,0,1-.25.52,1.63,1.63,0,0,1-.4.41,1.88,1.88,0,0,1-.56.27v0a1.93,1.93,0,0,1,1.2.71,2.07,2.07,0,0,1,.42,1.3,2.5,2.5,0,0,1-.89,2,3.31,3.31,0,0,1-2.23.76,3.84,3.84,0,0,1-1.17-.18,2.94,2.94,0,0,1-1-.52,2.49,2.49,0,0,1-.67-.84,2.55,2.55,0,0,1-.25-1.14v-.13h1.34v.13a1.45,1.45,0,0,0,.49,1.11,1.58,1.58,0,0,0,.52.3,1.91,1.91,0,0,0,.64.11,1.81,1.81,0,0,0,1.28-.44,1.45,1.45,0,0,0,.47-1.11,1.34,1.34,0,0,0-.45-1.09,2.2,2.2,0,0,0-1.46-.39h-.35v-1h.43a1.86,1.86,0,0,0,1.2-.35,1.1,1.1,0,0,0,.4-.9,1.39,1.39,0,0,0-.11-.58,1.12,1.12,0,0,0-.31-.41,1.34,1.34,0,0,0-.46-.24,2,2,0,0,0-.57-.08,1.7,1.7,0,0,0-.6.1,1.41,1.41,0,0,0-.48.3,1.44,1.44,0,0,0-.33.47,1.62,1.62,0,0,0-.13.64h-1.34a2.81,2.81,0,0,1,.23-1,2.55,2.55,0,0,1,.59-.84,2.75,2.75,0,0,1,.91-.56A3.27,3.27,0,0,1,632.1,118.48Z"/><path class="cls-5" d="M639.12,127.39a3.21,3.21,0,0,1-1-.14,2.49,2.49,0,0,1-.79-.41,2.29,2.29,0,0,1-.57-.65,2.45,2.45,0,0,1-.3-.86h1.34a1.6,1.6,0,0,0,.17.39,1.14,1.14,0,0,0,.28.31,1.3,1.3,0,0,0,.39.21,1.55,1.55,0,0,0,.5.08,1.46,1.46,0,0,0,.88-.26,2,2,0,0,0,.59-.69,3.5,3.5,0,0,0,.33-1,6.78,6.78,0,0,0,.12-1.13h0a2.16,2.16,0,0,1-.67.68,2.21,2.21,0,0,1-.9.3,2.48,2.48,0,0,1-1.37-.11,2.34,2.34,0,0,1-1.35-1,2.76,2.76,0,0,1-.49-1.62,3,3,0,0,1,.85-2.2,2.84,2.84,0,0,1,2.13-.87,3.25,3.25,0,0,1,1.42.29,2.51,2.51,0,0,1,1,.86,5.88,5.88,0,0,1,.79,3.34,7.74,7.74,0,0,1-.07,1.05,5.85,5.85,0,0,1-.23,1,4.56,4.56,0,0,1-.42.92,3,3,0,0,1-.62.75,2.77,2.77,0,0,1-.86.5A3.19,3.19,0,0,1,639.12,127.39Zm1.8-5.94a1.88,1.88,0,0,0-.45-1.3,1.53,1.53,0,0,0-1.22-.52,1.41,1.41,0,0,0-1.13.53,1.9,1.9,0,0,0-.45,1.27,2,2,0,0,0,.43,1.32,1.43,1.43,0,0,0,1.17.54,1.55,1.55,0,0,0,1.2-.52A2,2,0,0,0,640.92,121.45Z"/><path class="cls-5" d="M628,155.73a2.37,2.37,0,0,1-.89,1.95,3.88,3.88,0,0,1-4.51,0,2.33,2.33,0,0,1-.88-1.93,2.43,2.43,0,0,1,.11-.76,2.08,2.08,0,0,1,.33-.63,2,2,0,0,1,.52-.47,2.17,2.17,0,0,1,.7-.28v0a1.81,1.81,0,0,1-1-.67,1.92,1.92,0,0,1-.33-1.14,2,2,0,0,1,.81-1.65,3.16,3.16,0,0,1,2-.62,2.91,2.91,0,0,1,2,.67,2,2,0,0,1,.76,1.58,2.14,2.14,0,0,1-.08.61,1.83,1.83,0,0,1-.25.52,1.75,1.75,0,0,1-.41.42,2,2,0,0,1-.57.28v0a2.06,2.06,0,0,1,1.24.75A2.24,2.24,0,0,1,628,155.73Zm-1.39,0a1.45,1.45,0,0,0-.48-1.11,1.79,1.79,0,0,0-1.27-.44,1.88,1.88,0,0,0-1.27.42,1.42,1.42,0,0,0-.49,1.13,1.53,1.53,0,0,0,.5,1.18,1.79,1.79,0,0,0,1.27.46,1.74,1.74,0,0,0,1.25-.45A1.53,1.53,0,0,0,626.59,155.68Zm-.26-3.83a1.42,1.42,0,0,0-.11-.56,1,1,0,0,0-.32-.42,1.85,1.85,0,0,0-2.14,0,1.18,1.18,0,0,0-.42.94,1.19,1.19,0,0,0,.41.94,1.85,1.85,0,0,0,2.19,0A1.21,1.21,0,0,0,626.33,151.85Z"/><path class="cls-5" d="M634.69,149.65v1.18h-3.63l-.42,2.24,0,0a2.3,2.3,0,0,1,.75-.5,2.57,2.57,0,0,1,1-.17,2.81,2.81,0,0,1,1.14.22,2.53,2.53,0,0,1,.86.62,2.71,2.71,0,0,1,.55.93,3.47,3.47,0,0,1,.19,1.17,2.93,2.93,0,0,1-.24,1.17,3,3,0,0,1-.66,1,3.13,3.13,0,0,1-1,.65,3.22,3.22,0,0,1-1.25.24,4.16,4.16,0,0,1-1.15-.15,2.71,2.71,0,0,1-.93-.46,2.33,2.33,0,0,1-.64-.76,2.65,2.65,0,0,1-.28-1.07h1.4a1.51,1.51,0,0,0,.14.5,1.33,1.33,0,0,0,.31.41,1.41,1.41,0,0,0,.48.28,2,2,0,0,0,.65.1,1.67,1.67,0,0,0,.73-.16,1.7,1.7,0,0,0,.55-.42,1.85,1.85,0,0,0,.35-.61,2.17,2.17,0,0,0,.12-.73,2.11,2.11,0,0,0-.12-.7,1.65,1.65,0,0,0-.89-1,1.74,1.74,0,0,0-.74-.15,1.76,1.76,0,0,0-1.52.76h-1.24l.84-4.6Z"/><path class="cls-5" d="M639.12,158.39a3.21,3.21,0,0,1-1-.14,2.49,2.49,0,0,1-.79-.41,2.29,2.29,0,0,1-.57-.65,2.45,2.45,0,0,1-.3-.86h1.34a1.6,1.6,0,0,0,.17.39,1.14,1.14,0,0,0,.28.31,1.3,1.3,0,0,0,.39.21,1.55,1.55,0,0,0,.5.08,1.46,1.46,0,0,0,.88-.26,2,2,0,0,0,.59-.69,3.5,3.5,0,0,0,.33-1,6.78,6.78,0,0,0,.12-1.13h0a2.16,2.16,0,0,1-.67.68,2.21,2.21,0,0,1-.9.3,2.48,2.48,0,0,1-1.37-.11,2.34,2.34,0,0,1-1.35-1,2.76,2.76,0,0,1-.49-1.62,3,3,0,0,1,.85-2.2,2.84,2.84,0,0,1,2.13-.87,3.25,3.25,0,0,1,1.42.29,2.51,2.51,0,0,1,1,.86,5.88,5.88,0,0,1,.79,3.34,7.74,7.74,0,0,1-.07,1.05,5.85,5.85,0,0,1-.23,1,4.56,4.56,0,0,1-.42.92,3,3,0,0,1-.62.75,2.77,2.77,0,0,1-.86.5A3.19,3.19,0,0,1,639.12,158.39Zm1.8-5.94a1.88,1.88,0,0,0-.45-1.3,1.53,1.53,0,0,0-1.22-.52,1.41,1.41,0,0,0-1.13.53,1.9,1.9,0,0,0-.45,1.27,2,2,0,0,0,.43,1.32,1.43,1.43,0,0,0,1.17.54,1.55,1.55,0,0,0,1.2-.52A2,2,0,0,0,640.92,152.45Z"/><path class="cls-5" d="M661,28.78a3.75,3.75,0,0,1,1.1.15,2.86,2.86,0,0,1,.89.44,2.45,2.45,0,0,1,.64.71,2.67,2.67,0,0,1,.34.95H662.7a1.59,1.59,0,0,0-.21-.47,1.52,1.52,0,0,0-.37-.38,1.85,1.85,0,0,0-.52-.26,2.12,2.12,0,0,0-.65-.09,2.09,2.09,0,0,0-1,.22,2.06,2.06,0,0,0-.7.6,2.6,2.6,0,0,0-.42.86,3.76,3.76,0,0,0-.14,1,3.69,3.69,0,0,0,.13,1,2.55,2.55,0,0,0,.4.85,2,2,0,0,0,1.7.83,2,2,0,0,0,.71-.12,1.68,1.68,0,0,0,.55-.33,1.71,1.71,0,0,0,.38-.51,2.24,2.24,0,0,0,.2-.65H664a3.54,3.54,0,0,1-.29,1A2.66,2.66,0,0,1,662.18,36a3.45,3.45,0,0,1-1.24.21,3.53,3.53,0,0,1-1.43-.28,3.19,3.19,0,0,1-1.1-.78,3.44,3.44,0,0,1-.7-1.17,4.34,4.34,0,0,1-.24-1.48,4.42,4.42,0,0,1,.23-1.43,3.57,3.57,0,0,1,.67-1.19,3.19,3.19,0,0,1,1.09-.82A3.48,3.48,0,0,1,661,28.78Z"/><path class="cls-5" d="M671.87,32.52a3.86,3.86,0,0,1-.95,2.66,3.21,3.21,0,0,1-2.51,1.05A3.65,3.65,0,0,1,667,36a3.23,3.23,0,0,1-1.1-.75A3.37,3.37,0,0,1,665.2,34a4.46,4.46,0,0,1-.25-1.51,3.9,3.9,0,0,1,.95-2.7,3.21,3.21,0,0,1,2.52-1.05,3.7,3.7,0,0,1,1.37.25,3,3,0,0,1,1.1.76,3.36,3.36,0,0,1,.74,1.24A4.77,4.77,0,0,1,671.87,32.52Zm-1.26,0a3.07,3.07,0,0,0-.59-2,2.14,2.14,0,0,0-3.25,0,3.08,3.08,0,0,0-.58,2,3,3,0,0,0,.58,1.91,2.16,2.16,0,0,0,3.26,0A3.05,3.05,0,0,0,670.61,32.52Z"/><path class="cls-5" d="M674.49,28.93V35h3.67v1.05h-4.92V28.93Z"/><path class="cls-5" d="M680.27,28.93v4.48a1.89,1.89,0,0,0,.41,1.33,1.68,1.68,0,0,0,1.29.44,1.73,1.73,0,0,0,1.29-.42,1.86,1.86,0,0,0,.41-1.34V28.93h1.25v4.53a2.74,2.74,0,0,1-.75,2,3,3,0,0,1-2.2.75A4,4,0,0,1,680.7,36a2.33,2.33,0,0,1-1.5-1.46,3.36,3.36,0,0,1-.18-1.13V28.93Z"/><path class="cls-5" d="M693,36.07V30.34h0l-2,5.73h-1.08l-2-5.7h0v5.7h-1.18V28.94h1.83l2,5.56h0l1.91-5.56h1.82v7.13Z"/><path class="cls-5" d="M697.18,28.93l3.4,5.3h0v-5.3h1.19v7.14h-1.27l-3.4-5.3h0v5.3h-1.19V28.93Z"/><path class="cls-5" d="M708.58,28.79a3,3,0,0,1,.86.12,2.26,2.26,0,0,1,.73.36,1.83,1.83,0,0,1,.51.6,1.74,1.74,0,0,1,.19.83,1.82,1.82,0,0,1-.07.51,1.52,1.52,0,0,1-.21.43,1.37,1.37,0,0,1-.34.34,1.56,1.56,0,0,1-.47.22v0a1.61,1.61,0,0,1,1,.6,1.72,1.72,0,0,1,.35,1.08,2.08,2.08,0,0,1-.74,1.66,2.76,2.76,0,0,1-1.86.63,3.2,3.2,0,0,1-1-.15,2.45,2.45,0,0,1-.81-.43,2.08,2.08,0,0,1-.56-.7,2.13,2.13,0,0,1-.21-1v-.11h1.11V34a1.2,1.2,0,0,0,.41.93,1.32,1.32,0,0,0,.44.25,1.58,1.58,0,0,0,.53.09,1.51,1.51,0,0,0,1.07-.37,1.21,1.21,0,0,0,.4-.93,1.12,1.12,0,0,0-.37-.91,1.83,1.83,0,0,0-1.22-.32h-.29v-.85h.36a1.55,1.55,0,0,0,1-.29.92.92,0,0,0,.33-.75,1.16,1.16,0,0,0-.1-.49.94.94,0,0,0-.26-.34,1.13,1.13,0,0,0-.39-.2,1.64,1.64,0,0,0-.47-.07,1.42,1.42,0,0,0-.5.08,1.18,1.18,0,0,0-.4.25,1.2,1.2,0,0,0-.27.39,1.35,1.35,0,0,0-.11.53h-1.11a2.34,2.34,0,0,1,.19-.87,2.12,2.12,0,0,1,.49-.7,2.26,2.26,0,0,1,.76-.47A2.72,2.72,0,0,1,708.58,28.79Z"/><rect class="cls-9" x="650.5" y="106.5" width="73" height="31"/><path class="cls-10" d="M723,107v30H651V107h72m1-1H650v32h74V106Z"/><path class="cls-5" d="M707,63.17v2h-1.31v-2H702V61.88l3.82-5.27H707V62h1.2v1.15Zm-1.31-4.82h0L703.06,62h2.65Z"/><path class="cls-5" d="M715,56.65v1.18h-3.63l-.42,2.24,0,0a2.3,2.3,0,0,1,.75-.5,2.57,2.57,0,0,1,1-.17,2.81,2.81,0,0,1,1.14.22,2.53,2.53,0,0,1,.86.62,2.71,2.71,0,0,1,.55.93,3.47,3.47,0,0,1,.19,1.17,2.93,2.93,0,0,1-.24,1.17,3,3,0,0,1-.66,1,3.13,3.13,0,0,1-1,.65,3.22,3.22,0,0,1-1.25.24,4.16,4.16,0,0,1-1.15-.15,2.71,2.71,0,0,1-.93-.46,2.33,2.33,0,0,1-.64-.76,2.65,2.65,0,0,1-.28-1.07h1.4a1.51,1.51,0,0,0,.14.5,1.33,1.33,0,0,0,.31.41,1.41,1.41,0,0,0,.48.28,2,2,0,0,0,.65.1,1.67,1.67,0,0,0,.73-.16,1.7,1.7,0,0,0,.55-.42,1.85,1.85,0,0,0,.35-.61,2.17,2.17,0,0,0,.12-.73,2.11,2.11,0,0,0-.12-.7,1.65,1.65,0,0,0-.89-1,1.74,1.74,0,0,0-.74-.15,1.76,1.76,0,0,0-1.52.76h-1.24l.84-4.6Z"/><path class="cls-5" d="M700.42,87.65v1.18h-3.63l-.42,2.24,0,0a2.3,2.3,0,0,1,.75-.5,2.57,2.57,0,0,1,1-.17,2.81,2.81,0,0,1,1.14.22,2.53,2.53,0,0,1,.86.62,2.71,2.71,0,0,1,.55.93,3.47,3.47,0,0,1,.19,1.17,2.93,2.93,0,0,1-.24,1.17,3,3,0,0,1-.66,1,3.13,3.13,0,0,1-1,.65,3.22,3.22,0,0,1-1.25.24,4.16,4.16,0,0,1-1.15-.15,2.71,2.71,0,0,1-.93-.46A2.33,2.33,0,0,1,695,95a2.65,2.65,0,0,1-.28-1.07h1.4a1.51,1.51,0,0,0,.14.5,1.33,1.33,0,0,0,.31.41,1.41,1.41,0,0,0,.48.28,2,2,0,0,0,.65.1,1.67,1.67,0,0,0,.73-.16,1.7,1.7,0,0,0,.55-.42,1.85,1.85,0,0,0,.35-.61,2.17,2.17,0,0,0,.12-.73,2.11,2.11,0,0,0-.12-.7,1.65,1.65,0,0,0-.89-1,1.74,1.74,0,0,0-.74-.15,1.76,1.76,0,0,0-1.52.76H695l.84-4.6Z"/><path class="cls-5" d="M708.25,93.73a2.37,2.37,0,0,1-.89,1.95,3.88,3.88,0,0,1-4.51,0,2.33,2.33,0,0,1-.88-1.93,2.43,2.43,0,0,1,.11-.76,2.08,2.08,0,0,1,.33-.63,2,2,0,0,1,.52-.47,2.17,2.17,0,0,1,.7-.28v0a1.81,1.81,0,0,1-1-.67,1.92,1.92,0,0,1-.33-1.14,2,2,0,0,1,.81-1.65,3.16,3.16,0,0,1,2-.62,2.91,2.91,0,0,1,2,.67,2,2,0,0,1,.76,1.58,2.14,2.14,0,0,1-.08.61,1.83,1.83,0,0,1-.25.52,1.75,1.75,0,0,1-.41.42,2,2,0,0,1-.57.28v0a2.06,2.06,0,0,1,1.24.75A2.24,2.24,0,0,1,708.25,93.73Zm-1.39,0a1.45,1.45,0,0,0-.48-1.11,1.79,1.79,0,0,0-1.27-.44,1.88,1.88,0,0,0-1.27.42,1.42,1.42,0,0,0-.49,1.13,1.53,1.53,0,0,0,.5,1.18,1.79,1.79,0,0,0,1.27.46,1.74,1.74,0,0,0,1.25-.45A1.53,1.53,0,0,0,706.85,93.68Zm-.26-3.83a1.42,1.42,0,0,0-.11-.56,1,1,0,0,0-.32-.42,1.85,1.85,0,0,0-2.14,0,1.18,1.18,0,0,0-.42.94,1.19,1.19,0,0,0,.41.94,1.85,1.85,0,0,0,2.19,0A1.21,1.21,0,0,0,706.6,89.85Z"/><path class="cls-5" d="M712.12,96.39a3.21,3.21,0,0,1-1-.14,2.49,2.49,0,0,1-.79-.41,2.29,2.29,0,0,1-.57-.65,2.45,2.45,0,0,1-.3-.86h1.34a1.6,1.6,0,0,0,.17.39,1.14,1.14,0,0,0,.28.31,1.3,1.3,0,0,0,.39.21,1.55,1.55,0,0,0,.5.08,1.46,1.46,0,0,0,.88-.26,2,2,0,0,0,.59-.69,3.5,3.5,0,0,0,.33-1,6.78,6.78,0,0,0,.12-1.13h0a2.16,2.16,0,0,1-.67.68,2.21,2.21,0,0,1-.9.3,2.48,2.48,0,0,1-1.37-.11,2.34,2.34,0,0,1-1.35-1,2.76,2.76,0,0,1-.49-1.62,3,3,0,0,1,.85-2.2,2.84,2.84,0,0,1,2.13-.87,3.25,3.25,0,0,1,1.42.29,2.51,2.51,0,0,1,1,.86,5.88,5.88,0,0,1,.79,3.34,7.74,7.74,0,0,1-.07,1.05,5.85,5.85,0,0,1-.23,1,4.56,4.56,0,0,1-.42.92,3,3,0,0,1-.62.75,2.77,2.77,0,0,1-.86.5A3.19,3.19,0,0,1,712.12,96.39Zm1.8-5.94a1.88,1.88,0,0,0-.45-1.3,1.53,1.53,0,0,0-1.22-.52,1.41,1.41,0,0,0-1.13.53,1.9,1.9,0,0,0-.45,1.27,2,2,0,0,0,.43,1.32,1.43,1.43,0,0,0,1.17.54,1.55,1.55,0,0,0,1.2-.52A2,2,0,0,0,713.92,90.45Z"/><path class="cls-5" d="M686.18,118.64v1.21a8.83,8.83,0,0,0-1.24,1.49,10.33,10.33,0,0,0-.95,1.83,12,12,0,0,0-.87,4h-1.49a11.75,11.75,0,0,1,.93-3.82,13.7,13.7,0,0,1,2.2-3.45h-4.32v-1.29Z"/><path class="cls-5" d="M693.15,118.65v1.18h-3.63l-.42,2.24,0,0a2.3,2.3,0,0,1,.75-.5,2.57,2.57,0,0,1,1-.17,2.81,2.81,0,0,1,1.14.22,2.53,2.53,0,0,1,.86.62,2.71,2.71,0,0,1,.55.93,3.47,3.47,0,0,1,.19,1.17,2.93,2.93,0,0,1-.24,1.17,3,3,0,0,1-.66,1,3.13,3.13,0,0,1-1,.65,3.22,3.22,0,0,1-1.25.24,4.16,4.16,0,0,1-1.15-.15,2.71,2.71,0,0,1-.93-.46,2.33,2.33,0,0,1-.64-.76,2.65,2.65,0,0,1-.28-1.07h1.4a1.51,1.51,0,0,0,.14.5,1.33,1.33,0,0,0,.31.41,1.41,1.41,0,0,0,.48.28,2,2,0,0,0,.65.1,1.67,1.67,0,0,0,.73-.16,1.7,1.7,0,0,0,.55-.42,1.85,1.85,0,0,0,.35-.61,2.17,2.17,0,0,0,.12-.73,2.11,2.11,0,0,0-.12-.7,1.65,1.65,0,0,0-.89-1,1.74,1.74,0,0,0-.74-.15,1.76,1.76,0,0,0-1.52.76h-1.24l.84-4.6Z"/><path class="cls-5" d="M699.76,125.17v2h-1.31v-2h-3.76v-1.29l3.82-5.27h1.25V124H701v1.15Zm-1.31-4.82h0L695.79,124h2.65Z"/><path class="cls-5" d="M705.1,118.48a3.64,3.64,0,0,1,1,.15,2.72,2.72,0,0,1,.88.44,2.18,2.18,0,0,1,.62.72,2.1,2.1,0,0,1,.23,1,2.16,2.16,0,0,1-.08.62,1.83,1.83,0,0,1-.25.52,1.63,1.63,0,0,1-.4.41,1.88,1.88,0,0,1-.56.27v0a1.93,1.93,0,0,1,1.2.71,2.07,2.07,0,0,1,.42,1.3,2.5,2.5,0,0,1-.89,2,3.31,3.31,0,0,1-2.23.76,3.84,3.84,0,0,1-1.17-.18,2.94,2.94,0,0,1-1-.52,2.49,2.49,0,0,1-.67-.84,2.55,2.55,0,0,1-.25-1.14v-.13h1.34v.13a1.45,1.45,0,0,0,.49,1.11,1.58,1.58,0,0,0,.52.3,1.91,1.91,0,0,0,.64.11,1.81,1.81,0,0,0,1.28-.44,1.45,1.45,0,0,0,.47-1.11,1.34,1.34,0,0,0-.45-1.09,2.2,2.2,0,0,0-1.46-.39h-.35v-1h.43a1.86,1.86,0,0,0,1.2-.35,1.1,1.1,0,0,0,.4-.9,1.39,1.39,0,0,0-.11-.58,1.12,1.12,0,0,0-.31-.41,1.34,1.34,0,0,0-.46-.24,2,2,0,0,0-.57-.08,1.7,1.7,0,0,0-.6.1,1.41,1.41,0,0,0-.48.3,1.44,1.44,0,0,0-.33.47,1.62,1.62,0,0,0-.13.64h-1.34a2.81,2.81,0,0,1,.23-1,2.55,2.55,0,0,1,.59-.84,2.75,2.75,0,0,1,.91-.56A3.27,3.27,0,0,1,705.1,118.48Z"/><path class="cls-5" d="M712.12,127.39a3.21,3.21,0,0,1-1-.14,2.49,2.49,0,0,1-.79-.41,2.29,2.29,0,0,1-.57-.65,2.45,2.45,0,0,1-.3-.86h1.34a1.6,1.6,0,0,0,.17.39,1.14,1.14,0,0,0,.28.31,1.3,1.3,0,0,0,.39.21,1.55,1.55,0,0,0,.5.08,1.46,1.46,0,0,0,.88-.26,2,2,0,0,0,.59-.69,3.5,3.5,0,0,0,.33-1,6.78,6.78,0,0,0,.12-1.13h0a2.16,2.16,0,0,1-.67.68,2.21,2.21,0,0,1-.9.3,2.48,2.48,0,0,1-1.37-.11,2.34,2.34,0,0,1-1.35-1,2.76,2.76,0,0,1-.49-1.62,3,3,0,0,1,.85-2.2,2.84,2.84,0,0,1,2.13-.87,3.25,3.25,0,0,1,1.42.29,2.51,2.51,0,0,1,1,.86,5.88,5.88,0,0,1,.79,3.34,7.74,7.74,0,0,1-.07,1.05,5.85,5.85,0,0,1-.23,1,4.56,4.56,0,0,1-.42.92,3,3,0,0,1-.62.75,2.77,2.77,0,0,1-.86.5A3.19,3.19,0,0,1,712.12,127.39Zm1.8-5.94a1.88,1.88,0,0,0-.45-1.3,1.53,1.53,0,0,0-1.22-.52,1.41,1.41,0,0,0-1.13.53,1.9,1.9,0,0,0-.45,1.27,2,2,0,0,0,.43,1.32,1.43,1.43,0,0,0,1.17.54,1.55,1.55,0,0,0,1.2-.52A2,2,0,0,0,713.92,121.45Z"/><path class="cls-5" d="M701,155.73a2.37,2.37,0,0,1-.89,1.95,3.88,3.88,0,0,1-4.51,0,2.33,2.33,0,0,1-.88-1.93,2.43,2.43,0,0,1,.11-.76,2.08,2.08,0,0,1,.33-.63,2,2,0,0,1,.52-.47,2.17,2.17,0,0,1,.7-.28v0a1.81,1.81,0,0,1-1-.67,1.92,1.92,0,0,1-.33-1.14,2,2,0,0,1,.81-1.65,3.16,3.16,0,0,1,2-.62,2.91,2.91,0,0,1,2,.67,2,2,0,0,1,.76,1.58,2.14,2.14,0,0,1-.08.61,1.83,1.83,0,0,1-.25.52,1.75,1.75,0,0,1-.41.42,2,2,0,0,1-.57.28v0a2.06,2.06,0,0,1,1.24.75A2.24,2.24,0,0,1,701,155.73Zm-1.39,0a1.45,1.45,0,0,0-.48-1.11,1.79,1.79,0,0,0-1.27-.44,1.88,1.88,0,0,0-1.27.42,1.42,1.42,0,0,0-.49,1.13,1.53,1.53,0,0,0,.5,1.18,1.79,1.79,0,0,0,1.27.46,1.74,1.74,0,0,0,1.25-.45A1.53,1.53,0,0,0,699.59,155.68Zm-.26-3.83a1.42,1.42,0,0,0-.11-.56,1,1,0,0,0-.32-.42,1.85,1.85,0,0,0-2.14,0,1.18,1.18,0,0,0-.42.94,1.19,1.19,0,0,0,.41.94,1.85,1.85,0,0,0,2.19,0A1.21,1.21,0,0,0,699.33,151.85Z"/><path class="cls-5" d="M707.69,149.65v1.18h-3.63l-.42,2.24,0,0a2.3,2.3,0,0,1,.75-.5,2.57,2.57,0,0,1,1-.17,2.81,2.81,0,0,1,1.14.22,2.53,2.53,0,0,1,.86.62,2.71,2.71,0,0,1,.55.93,3.47,3.47,0,0,1,.19,1.17,2.93,2.93,0,0,1-.24,1.17,3,3,0,0,1-.66,1,3.13,3.13,0,0,1-1,.65,3.22,3.22,0,0,1-1.25.24,4.16,4.16,0,0,1-1.15-.15,2.71,2.71,0,0,1-.93-.46,2.33,2.33,0,0,1-.64-.76,2.65,2.65,0,0,1-.28-1.07h1.4a1.51,1.51,0,0,0,.14.5,1.33,1.33,0,0,0,.31.41,1.41,1.41,0,0,0,.48.28,2,2,0,0,0,.65.1,1.67,1.67,0,0,0,.73-.16,1.7,1.7,0,0,0,.55-.42,1.85,1.85,0,0,0,.35-.61,2.17,2.17,0,0,0,.12-.73,2.11,2.11,0,0,0-.12-.7,1.65,1.65,0,0,0-.89-1,1.74,1.74,0,0,0-.74-.15,1.76,1.76,0,0,0-1.52.76h-1.24l.84-4.6Z"/><path class="cls-5" d="M712.12,158.39a3.21,3.21,0,0,1-1-.14,2.49,2.49,0,0,1-.79-.41,2.29,2.29,0,0,1-.57-.65,2.45,2.45,0,0,1-.3-.86h1.34a1.6,1.6,0,0,0,.17.39,1.14,1.14,0,0,0,.28.31,1.3,1.3,0,0,0,.39.21,1.55,1.55,0,0,0,.5.08,1.46,1.46,0,0,0,.88-.26,2,2,0,0,0,.59-.69,3.5,3.5,0,0,0,.33-1,6.78,6.78,0,0,0,.12-1.13h0a2.16,2.16,0,0,1-.67.68,2.21,2.21,0,0,1-.9.3,2.48,2.48,0,0,1-1.37-.11,2.34,2.34,0,0,1-1.35-1,2.76,2.76,0,0,1-.49-1.62,3,3,0,0,1,.85-2.2,2.84,2.84,0,0,1,2.13-.87,3.25,3.25,0,0,1,1.42.29,2.51,2.51,0,0,1,1,.86,5.88,5.88,0,0,1,.79,3.34,7.74,7.74,0,0,1-.07,1.05,5.85,5.85,0,0,1-.23,1,4.56,4.56,0,0,1-.42.92,3,3,0,0,1-.62.75,2.77,2.77,0,0,1-.86.5A3.19,3.19,0,0,1,712.12,158.39Zm1.8-5.94a1.88,1.88,0,0,0-.45-1.3,1.53,1.53,0,0,0-1.22-.52,1.41,1.41,0,0,0-1.13.53,1.9,1.9,0,0,0-.45,1.27,2,2,0,0,0,.43,1.32,1.43,1.43,0,0,0,1.17.54,1.55,1.55,0,0,0,1.2-.52A2,2,0,0,0,713.92,152.45Z"/><rect class="cls-1" x="478" y="146" width="14" height="14"/><g class="cls-11"><path class="cls-12" d="M491,147v12H479V147h12m1-1H478v14h14V146Z"/></g><rect class="cls-1" x="478" y="115" width="14" height="14"/><g class="cls-11"><path class="cls-12" d="M491,116v12H479V116h12m1-1H478v14h14V115Z"/></g><polygon class="cls-8" points="484.45 125.87 480.55 122.22 481.77 120.92 484.23 123.23 488.47 117.71 489.88 118.79 484.45 125.87"/></g></svg>