<svg xmlns="http://www.w3.org/2000/svg" viewBox="0 0 436 244"><defs><style>.cls-1{fill:#fff;}.cls-2,.cls-8{fill:#dcdcdc;}.cls-2,.cls-3{opacity:0.6;}.cls-4{fill:#bebebe;}.cls-5{fill:#464646;}.cls-6{fill:none;stroke:#a0a0a0;stroke-miterlimit:10;}.cls-7{opacity:0.04;}.cls-9{fill:#444;}</style></defs><title>Artboard 36 copy</title><g id="Bg"><rect class="cls-1" x="-4389" y="-299" width="6000" height="2500"/></g><g id="Tabeller"><rect class="cls-2" x="333" y="20" width="82" height="28"/><g class="cls-3"><path class="cls-4" d="M415,20V48H333V20h82m1-1H332V49h84V19Z"/></g><path class="cls-5" d="M378.16,29.66v1.27h-4.72V33.2h4.37v1.19h-4.37V37h4.8v1.26h-6.3V29.66Z"/><path class="cls-5" d="M385.81,29.13v9.08h-1.37v-1h0a2.07,2.07,0,0,1-.37.5,2.16,2.16,0,0,1-.49.37,2.44,2.44,0,0,1-.59.23,2.79,2.79,0,0,1-.67.08,2.72,2.72,0,0,1-1.28-.29,2.76,2.76,0,0,1-.92-.77,3.38,3.38,0,0,1-.56-1.12,4.69,4.69,0,0,1-.19-1.33,4.52,4.52,0,0,1,.18-1.26,3.34,3.34,0,0,1,.54-1.1,2.75,2.75,0,0,1,.91-.77,2.91,2.91,0,0,1,1.92-.22,2.49,2.49,0,0,1,.58.21,2.07,2.07,0,0,1,.49.35,2,2,0,0,1,.37.5h0V29.13Zm-5,5.79a3.63,3.63,0,0,0,.1.82,2.44,2.44,0,0,0,.31.76,1.81,1.81,0,0,0,.56.56,1.5,1.5,0,0,0,.83.22,1.73,1.73,0,0,0,.79-.17,1.58,1.58,0,0,0,.57-.49,2.25,2.25,0,0,0,.35-.75,3.68,3.68,0,0,0,.12-1,3.73,3.73,0,0,0-.1-.84,2.3,2.3,0,0,0-.31-.75,1.72,1.72,0,0,0-.57-.54,1.64,1.64,0,0,0-.85-.21,1.56,1.56,0,0,0-.82.2,1.7,1.7,0,0,0-.55.53,2.35,2.35,0,0,0-.32.75A3.93,3.93,0,0,0,380.78,34.92Z"/><path class="cls-5" d="M389.2,28.78V30.2h-1.45V28.78Zm0,2.86v6.57h-1.45V31.64Z"/><path class="cls-5" d="M394.42,38.26h-.83a4.59,4.59,0,0,1-.74-.06,1.58,1.58,0,0,1-.6-.22,1.12,1.12,0,0,1-.4-.45,1.67,1.67,0,0,1-.15-.76V32.66h-1.29v-1h1.29v-2h1.45v2h1.5v1h-1.5v3.72a.83.83,0,0,0,.17.58.8.8,0,0,0,.59.18h.57l.17,0v1.14Z"/><line class="cls-6" x1="332" y1="48.5" x2="416" y2="48.5"/><rect class="cls-7" x="19.5" y="129.5" width="121" height="31"/><path class="cls-8" d="M140,130v30H20V130H140m1-1H19v32H141V129Z"/><rect class="cls-7" x="19.5" y="67.5" width="121" height="31"/><path class="cls-8" d="M140,68V98H20V68H140m1-1H19V99H141V67Z"/><rect class="cls-7" x="19.5" y="98.5" width="121" height="31"/><path class="cls-8" d="M140,99v30H20V99H140m1-1H19v32H141V98Z"/><rect class="cls-7" x="19.5" y="160.5" width="121" height="31"/><path class="cls-8" d="M140,161v30H20V161H140m1-1H19v32H141V160Z"/><rect class="cls-7" x="19.5" y="191.5" width="121" height="31"/><path class="cls-8" d="M140,192v30H20V192H140m1-1H19v32H141V191Z"/><path class="cls-9" d="M33.48,81.88a2.34,2.34,0,0,1-.7,1.8,2.55,2.55,0,0,1-1.8.64h-3V88h-.82V79.43H31a2.53,2.53,0,0,1,1.8.65A2.33,2.33,0,0,1,33.48,81.88Zm-.81,0a1.68,1.68,0,0,0-.5-1.29,2.11,2.11,0,0,0-1.49-.46H27.95v3.5H30.8a2,2,0,0,0,1.35-.45A1.65,1.65,0,0,0,32.66,81.88Z"/><path class="cls-9" d="M35.88,78.92V88h-.8V78.92Z"/><path class="cls-9" d="M43.75,88l-.27,0h-.24a1.37,1.37,0,0,1-.44-.06.65.65,0,0,1-.29-.2.82.82,0,0,1-.16-.35,2.43,2.43,0,0,1,0-.53h0a3,3,0,0,1-1,1,2.79,2.79,0,0,1-1.35.29,2.46,2.46,0,0,1-1.6-.5,1.75,1.75,0,0,1-.6-1.43,1.66,1.66,0,0,1,.66-1.43,6.79,6.79,0,0,1,3-.69,2,2,0,0,0,.44-.08.75.75,0,0,0,.29-.16.6.6,0,0,0,.16-.26,1.28,1.28,0,0,0,0-.38,1.24,1.24,0,0,0-.4-1,2,2,0,0,0-1.31-.34,2.61,2.61,0,0,0-.72.09,1.65,1.65,0,0,0-.53.25,1.13,1.13,0,0,0-.33.39,1.23,1.23,0,0,0-.13.49H38a2,2,0,0,1,.22-.78,1.78,1.78,0,0,1,.51-.59,2.43,2.43,0,0,1,.81-.38,4,4,0,0,1,1.09-.13,2.64,2.64,0,0,1,1.83.54A2,2,0,0,1,43,83.31v3.56a.47.47,0,0,0,.11.33.46.46,0,0,0,.36.12.7.7,0,0,0,.25,0Zm-1.52-3.54h0q-.12.22-.77.31l-.67.1-.74.12a2.67,2.67,0,0,0-1.17.44,1,1,0,0,0-.39.84,1.16,1.16,0,0,0,.43.94,1.6,1.6,0,0,0,1,.35,2.36,2.36,0,0,0,1.63-.58,1.85,1.85,0,0,0,.65-1.44Z"/><path class="cls-9" d="M48.11,81.25a3.35,3.35,0,0,1,1.08.16,1.83,1.83,0,0,1,.74.46,1.87,1.87,0,0,1,.43.77,3.79,3.79,0,0,1,.14,1.08V88h-.8V83.85a2.2,2.2,0,0,0-.41-1.44A1.54,1.54,0,0,0,48,81.92a2.07,2.07,0,0,0-.86.17,1.88,1.88,0,0,0-.65.48,2.16,2.16,0,0,0-.41.71,2.63,2.63,0,0,0-.14.88V88h-.8V81.44H46v1.14h0a2,2,0,0,1,.35-.56,2.18,2.18,0,0,1,.49-.42,2.33,2.33,0,0,1,.6-.26A2.48,2.48,0,0,1,48.11,81.25Z"/><path class="cls-9" d="M55.6,81.25a3.35,3.35,0,0,1,1.08.16,1.83,1.83,0,0,1,.74.46,1.87,1.87,0,0,1,.43.77A3.79,3.79,0,0,1,58,83.72V88h-.8V83.85a2.2,2.2,0,0,0-.41-1.44,1.54,1.54,0,0,0-1.25-.49,2.07,2.07,0,0,0-.86.17,1.88,1.88,0,0,0-.65.48,2.16,2.16,0,0,0-.41.71,2.63,2.63,0,0,0-.14.88V88h-.8V81.44h.8v1.14h0a2,2,0,0,1,.35-.56,2.18,2.18,0,0,1,.49-.42,2.33,2.33,0,0,1,.6-.26A2.48,2.48,0,0,1,55.6,81.25Z"/><path class="cls-9" d="M62.74,81.25a2.71,2.71,0,0,1,1.3.29,2.6,2.6,0,0,1,.9.79,3.45,3.45,0,0,1,.52,1.13,5.21,5.21,0,0,1,.17,1.34v.13H60.58a3.58,3.58,0,0,0,.13.94,2.59,2.59,0,0,0,.39.83,2,2,0,0,0,.66.59,1.92,1.92,0,0,0,.95.22,2.44,2.44,0,0,0,.7-.09,2,2,0,0,0,.56-.26,1.76,1.76,0,0,0,.42-.39,2.41,2.41,0,0,0,.29-.49h.79a3,3,0,0,1-.38.79,2.48,2.48,0,0,1-.59.6,2.68,2.68,0,0,1-.79.39,3.34,3.34,0,0,1-1,.14,2.94,2.94,0,0,1-1.3-.27,2.56,2.56,0,0,1-.91-.73,3.12,3.12,0,0,1-.54-1.1,5.14,5.14,0,0,1-.18-1.37A4.66,4.66,0,0,1,60,83.44a3.36,3.36,0,0,1,.54-1.11,2.74,2.74,0,0,1,.92-.78A2.79,2.79,0,0,1,62.74,81.25Zm2.09,3a3,3,0,0,0-.16-.85,2.44,2.44,0,0,0-.41-.75,2.07,2.07,0,0,0-.65-.54,1.84,1.84,0,0,0-.88-.21,1.84,1.84,0,0,0-1.5.7,2.7,2.7,0,0,0-.42.75,4.31,4.31,0,0,0-.23.9Z"/><path class="cls-9" d="M73,78.92V88h-.74V86.75h0a2,2,0,0,1-.39.59,2.57,2.57,0,0,1-.56.45,2.8,2.8,0,0,1-.67.29,2.63,2.63,0,0,1-.72.1,2.8,2.8,0,0,1-1.28-.28,2.68,2.68,0,0,1-.92-.75,3.32,3.32,0,0,1-.56-1.11A4.68,4.68,0,0,1,67,84.72a4.83,4.83,0,0,1,.17-1.29,3.31,3.31,0,0,1,.53-1.11,2.69,2.69,0,0,1,.92-.78,3,3,0,0,1,2-.2,2.56,2.56,0,0,1,.65.27,2.25,2.25,0,0,1,.54.45,2.07,2.07,0,0,1,.38.63h0V78.92Zm-5.26,5.8a4.17,4.17,0,0,0,.05.65A3.7,3.7,0,0,0,68,86a2.82,2.82,0,0,0,.28.58,2.15,2.15,0,0,0,.41.48,1.8,1.8,0,0,0,.55.32,2,2,0,0,0,.7.12,2.08,2.08,0,0,0,1.73-.84,2.66,2.66,0,0,0,.43-.89,4,4,0,0,0,.14-1.06,4,4,0,0,0-.13-1,2.73,2.73,0,0,0-.41-.9,2.06,2.06,0,0,0-1.76-.88,1.94,1.94,0,0,0-.68.11,1.8,1.8,0,0,0-.54.31,2.15,2.15,0,0,0-.41.47,2.8,2.8,0,0,0-.29.58,3.52,3.52,0,0,0-.17.65A4.25,4.25,0,0,0,67.78,84.72Z"/><path class="cls-9" d="M32.82,110.43v.7h-3V119H29v-7.87H26v-.7Z"/><path class="cls-9" d="M32.79,119v-6.56h.74V114h0a2.56,2.56,0,0,1,.9-1.2,2.32,2.32,0,0,1,1.38-.43h.29v.8h-.18a2.22,2.22,0,0,0-1.71.69,2.36,2.36,0,0,0-.64,1.69V119Z"/><path class="cls-9" d="M38.25,109.57v1.29h-.8v-1.29Zm0,2.87V119h-.8v-6.56Z"/><path class="cls-9" d="M48.72,119v-4.46a1.73,1.73,0,0,0-.37-1.22,1.85,1.85,0,0,0-2.5.21,2.8,2.8,0,0,0-.45,1.71V119h-.81v-4.49a1.81,1.81,0,0,0-.34-1.17,1.25,1.25,0,0,0-1-.42,1.72,1.72,0,0,0-1.46.65,2.72,2.72,0,0,0-.5,1.71V119h-.8v-6.56h.74v1.1h0a2.26,2.26,0,0,1,2.15-1.29,2.44,2.44,0,0,1,.64.08,1.86,1.86,0,0,1,.54.24,1.66,1.66,0,0,1,.42.4,1.86,1.86,0,0,1,.28.55,2.16,2.16,0,0,1,.85-1,2.4,2.4,0,0,1,1.24-.32,2.12,2.12,0,0,1,1.63.58,2.36,2.36,0,0,1,.54,1.66V119Z"/><path class="cls-9" d="M60,119v-4.46a1.73,1.73,0,0,0-.37-1.22,1.85,1.85,0,0,0-2.5.21,2.8,2.8,0,0,0-.45,1.71V119h-.81v-4.49a1.81,1.81,0,0,0-.34-1.17,1.25,1.25,0,0,0-1-.42,1.72,1.72,0,0,0-1.46.65,2.72,2.72,0,0,0-.5,1.71V119h-.8v-6.56h.74v1.1h0a2.26,2.26,0,0,1,2.15-1.29,2.44,2.44,0,0,1,.64.08,1.86,1.86,0,0,1,.54.24,1.66,1.66,0,0,1,.42.4,1.86,1.86,0,0,1,.28.55,2.16,2.16,0,0,1,.85-1,2.4,2.4,0,0,1,1.24-.32,2.12,2.12,0,0,1,1.63.58,2.36,2.36,0,0,1,.54,1.66V119Z"/><path class="cls-9" d="M65.55,112.25a2.71,2.71,0,0,1,1.3.29,2.6,2.6,0,0,1,.9.79,3.45,3.45,0,0,1,.52,1.13,5.21,5.21,0,0,1,.17,1.34v.13H63.39a3.58,3.58,0,0,0,.13.94,2.59,2.59,0,0,0,.39.83,2,2,0,0,0,.66.59,1.92,1.92,0,0,0,.95.22,2.44,2.44,0,0,0,.7-.09,2,2,0,0,0,.56-.26,1.76,1.76,0,0,0,.42-.39,2.41,2.41,0,0,0,.29-.49h.79a3,3,0,0,1-.38.79,2.48,2.48,0,0,1-.59.6,2.68,2.68,0,0,1-.79.39,3.34,3.34,0,0,1-1,.14,2.94,2.94,0,0,1-1.3-.27,2.56,2.56,0,0,1-.91-.73,3.12,3.12,0,0,1-.54-1.1,5.14,5.14,0,0,1-.18-1.37,4.66,4.66,0,0,1,.18-1.28,3.36,3.36,0,0,1,.54-1.11,2.74,2.74,0,0,1,.92-.78A2.79,2.79,0,0,1,65.55,112.25Zm2.09,3a3,3,0,0,0-.16-.85,2.44,2.44,0,0,0-.41-.75,2.07,2.07,0,0,0-.65-.54,1.84,1.84,0,0,0-.88-.21,1.84,1.84,0,0,0-1.5.7,2.7,2.7,0,0,0-.42.75,4.31,4.31,0,0,0-.23.9Z"/><path class="cls-9" d="M75.85,109.92V119h-.74v-1.25h0a2,2,0,0,1-.39.59,2.57,2.57,0,0,1-.56.45,2.8,2.8,0,0,1-.67.29,2.63,2.63,0,0,1-.72.1,2.8,2.8,0,0,1-1.28-.28,2.68,2.68,0,0,1-.92-.75,3.32,3.32,0,0,1-.56-1.11,4.68,4.68,0,0,1-.19-1.34,4.83,4.83,0,0,1,.17-1.29,3.31,3.31,0,0,1,.53-1.11,2.69,2.69,0,0,1,.92-.78,3,3,0,0,1,2-.2,2.56,2.56,0,0,1,.65.27,2.25,2.25,0,0,1,.54.45,2.07,2.07,0,0,1,.38.63h0v-3.77Zm-5.26,5.8a4.17,4.17,0,0,0,.05.65,3.7,3.7,0,0,0,.16.64,2.82,2.82,0,0,0,.28.58,2.15,2.15,0,0,0,.41.48,1.8,1.8,0,0,0,.55.32,2,2,0,0,0,.7.12,2.08,2.08,0,0,0,1.73-.84,2.66,2.66,0,0,0,.43-.89,4,4,0,0,0,.14-1.06,4,4,0,0,0-.13-1,2.73,2.73,0,0,0-.41-.9,2.06,2.06,0,0,0-1.76-.88,1.94,1.94,0,0,0-.68.11,1.8,1.8,0,0,0-.54.31,2.15,2.15,0,0,0-.41.47,2.8,2.8,0,0,0-.29.58,3.52,3.52,0,0,0-.17.65A4.25,4.25,0,0,0,70.59,115.72Z"/><path class="cls-9" d="M27.1,141.43l1.94,7.5h0l2.09-7.5h1l2.1,7.5h0l2-7.5h.81L34.71,150h-.87l-2.17-7.67h0L29.49,150H28.6l-2.38-8.57Z"/><path class="cls-9" d="M44,146.72a4.29,4.29,0,0,1-.2,1.31,3.31,3.31,0,0,1-.61,1.13,2.9,2.9,0,0,1-2.29,1,2.84,2.84,0,0,1-2.24-1,4.07,4.07,0,0,1,0-5,3.08,3.08,0,0,1,4.51,0A3.65,3.65,0,0,1,44,146.72Zm-.8,0a3.8,3.8,0,0,0-.13-1,2.81,2.81,0,0,0-.42-.9,2.25,2.25,0,0,0-.72-.65,2,2,0,0,0-1-.25,2,2,0,0,0-1,.24,2.24,2.24,0,0,0-.72.64,2.85,2.85,0,0,0-.44.9,3.66,3.66,0,0,0-.15,1,3.58,3.58,0,0,0,.14,1,3,3,0,0,0,.43.9,2.24,2.24,0,0,0,.71.65,2,2,0,0,0,1,.25,2,2,0,0,0,1-.24,2.33,2.33,0,0,0,.72-.63,2.8,2.8,0,0,0,.45-.89A3.54,3.54,0,0,0,43.16,146.72Z"/><path class="cls-9" d="M50.33,150v-1.18h0a2.48,2.48,0,0,1-.39.58,2.34,2.34,0,0,1-.52.43,2.47,2.47,0,0,1-.63.27,2.73,2.73,0,0,1-.72.09,2.21,2.21,0,0,1-1.74-.63,2.64,2.64,0,0,1-.56-1.82v-4.31h.8v4.28a2.67,2.67,0,0,0,.1.76A1.43,1.43,0,0,0,47,149a1.33,1.33,0,0,0,.54.35,2.33,2.33,0,0,0,.79.12,1.7,1.7,0,0,0,.89-.23,1.92,1.92,0,0,0,.62-.59,2.62,2.62,0,0,0,.36-.83,3.9,3.9,0,0,0,.11-.94v-3.49h.8V150Z"/><path class="cls-9" d="M56.16,143.25a3.35,3.35,0,0,1,1.08.16,1.83,1.83,0,0,1,.74.46,1.87,1.87,0,0,1,.43.77,3.79,3.79,0,0,1,.14,1.08V150h-.8v-4.15a2.2,2.2,0,0,0-.41-1.44,1.54,1.54,0,0,0-1.25-.49,2.07,2.07,0,0,0-.86.17,1.88,1.88,0,0,0-.65.48,2.16,2.16,0,0,0-.41.71,2.63,2.63,0,0,0-.14.88V150h-.8v-6.56H54v1.14h0a2,2,0,0,1,.35-.56,2.18,2.18,0,0,1,.49-.42,2.33,2.33,0,0,1,.6-.26A2.48,2.48,0,0,1,56.16,143.25Z"/><path class="cls-9" d="M66.46,140.92V150h-.74v-1.25h0a2,2,0,0,1-.39.59,2.57,2.57,0,0,1-.56.45,2.8,2.8,0,0,1-.67.29,2.63,2.63,0,0,1-.72.1,2.8,2.8,0,0,1-1.28-.28,2.68,2.68,0,0,1-.92-.75,3.32,3.32,0,0,1-.56-1.11,4.68,4.68,0,0,1-.19-1.34,4.83,4.83,0,0,1,.17-1.29,3.31,3.31,0,0,1,.53-1.11,2.69,2.69,0,0,1,.92-.78,3,3,0,0,1,2-.2,2.56,2.56,0,0,1,.65.27,2.25,2.25,0,0,1,.54.45,2.07,2.07,0,0,1,.38.63h0v-3.77Zm-5.26,5.8a4.17,4.17,0,0,0,.05.65,3.7,3.7,0,0,0,.16.64,2.82,2.82,0,0,0,.28.58,2.15,2.15,0,0,0,.41.48,1.8,1.8,0,0,0,.55.32,2,2,0,0,0,.7.12,2.08,2.08,0,0,0,1.73-.84,2.66,2.66,0,0,0,.43-.89,4,4,0,0,0,.14-1.06,4,4,0,0,0-.13-1,2.73,2.73,0,0,0-.41-.9,2.06,2.06,0,0,0-1.76-.88,1.94,1.94,0,0,0-.68.11,1.8,1.8,0,0,0-.54.31,2.15,2.15,0,0,0-.41.47,2.8,2.8,0,0,0-.29.58,3.52,3.52,0,0,0-.17.65A4.25,4.25,0,0,0,61.21,146.72Z"/><path class="cls-9" d="M27.1,172.43l1.94,7.5h0l2.09-7.5h1l2.1,7.5h0l2-7.5h.81L34.71,181h-.87l-2.17-7.67h0L29.49,181H28.6l-2.38-8.57Z"/><path class="cls-9" d="M38.22,181v-6.56H39V176h0a2.56,2.56,0,0,1,.9-1.2,2.32,2.32,0,0,1,1.38-.43h.29v.8h-.18a2.22,2.22,0,0,0-1.71.69,2.36,2.36,0,0,0-.64,1.69V181Z"/><path class="cls-9" d="M48.46,181l-.27,0h-.24a1.37,1.37,0,0,1-.44-.06.65.65,0,0,1-.29-.2.82.82,0,0,1-.16-.35,2.43,2.43,0,0,1,0-.53h0a3,3,0,0,1-1,1,2.79,2.79,0,0,1-1.35.29,2.46,2.46,0,0,1-1.6-.5,1.75,1.75,0,0,1-.6-1.43,1.66,1.66,0,0,1,.66-1.43,6.79,6.79,0,0,1,3-.69,2,2,0,0,0,.44-.08.75.75,0,0,0,.29-.16.6.6,0,0,0,.16-.26,1.28,1.28,0,0,0,0-.38,1.24,1.24,0,0,0-.4-1,2,2,0,0,0-1.31-.34,2.61,2.61,0,0,0-.72.09,1.65,1.65,0,0,0-.53.25,1.13,1.13,0,0,0-.33.39,1.23,1.23,0,0,0-.13.49h-.8a2,2,0,0,1,.22-.78,1.78,1.78,0,0,1,.51-.59,2.43,2.43,0,0,1,.81-.38,4,4,0,0,1,1.09-.13,2.64,2.64,0,0,1,1.83.54,2,2,0,0,1,.59,1.52v3.56a.47.47,0,0,0,.11.33.46.46,0,0,0,.36.12.7.7,0,0,0,.25,0Zm-1.52-3.54h0q-.12.22-.77.31l-.67.1-.74.12a2.67,2.67,0,0,0-1.17.44,1,1,0,0,0-.39.84,1.16,1.16,0,0,0,.43.94,1.6,1.6,0,0,0,1,.35,2.36,2.36,0,0,0,1.63-.58,1.85,1.85,0,0,0,.65-1.44Z"/><path class="cls-9" d="M56,177.72a4.77,4.77,0,0,1-.17,1.28,3.38,3.38,0,0,1-.53,1.11,2.69,2.69,0,0,1-.92.79,2.78,2.78,0,0,1-1.32.3,2.81,2.81,0,0,1-.71-.09,2.45,2.45,0,0,1-.65-.27,2.29,2.29,0,0,1-.54-.45,2.21,2.21,0,0,1-.38-.63h0v3.67h-.8v-9h.74v1.25h0a2.24,2.24,0,0,1,.39-.61,2.29,2.29,0,0,1,.55-.45,2.67,2.67,0,0,1,.67-.28,2.81,2.81,0,0,1,.74-.1,2.85,2.85,0,0,1,1.29.28,2.64,2.64,0,0,1,.92.75,3.32,3.32,0,0,1,.56,1.1A4.67,4.67,0,0,1,56,177.72Zm-.8,0a4.48,4.48,0,0,0-.11-1,2.84,2.84,0,0,0-.37-.9,2.07,2.07,0,0,0-.67-.66,1.9,1.9,0,0,0-1-.26,2.09,2.09,0,0,0-1.7.7,3.21,3.21,0,0,0-.58,2.09,4.2,4.2,0,0,0,.13,1,2.68,2.68,0,0,0,.4.9,2.1,2.1,0,0,0,.71.64,2.16,2.16,0,0,0,1.06.24,1.87,1.87,0,0,0,1-.24,2,2,0,0,0,.67-.63,2.87,2.87,0,0,0,.39-.9A4.14,4.14,0,0,0,55.15,177.72Z"/><path class="cls-9" d="M63.88,177.72a4.77,4.77,0,0,1-.17,1.28,3.38,3.38,0,0,1-.53,1.11,2.69,2.69,0,0,1-.92.79,2.78,2.78,0,0,1-1.32.3,2.81,2.81,0,0,1-.71-.09,2.45,2.45,0,0,1-.65-.27,2.29,2.29,0,0,1-.54-.45,2.21,2.21,0,0,1-.38-.63h0v3.67h-.8v-9h.74v1.25h0a2.24,2.24,0,0,1,.39-.61,2.29,2.29,0,0,1,.55-.45,2.67,2.67,0,0,1,.67-.28,2.81,2.81,0,0,1,.74-.1,2.85,2.85,0,0,1,1.29.28,2.64,2.64,0,0,1,.92.75,3.32,3.32,0,0,1,.56,1.1A4.67,4.67,0,0,1,63.88,177.72Zm-.8,0a4.48,4.48,0,0,0-.11-1,2.84,2.84,0,0,0-.37-.9,2.07,2.07,0,0,0-.67-.66,1.9,1.9,0,0,0-1-.26,2.09,2.09,0,0,0-1.7.7,3.21,3.21,0,0,0-.58,2.09,4.2,4.2,0,0,0,.13,1,2.68,2.68,0,0,0,.4.9,2.1,2.1,0,0,0,.71.64,2.16,2.16,0,0,0,1.06.24,1.87,1.87,0,0,0,1-.24,2,2,0,0,0,.67-.63,2.87,2.87,0,0,0,.39-.9A4.14,4.14,0,0,0,63.08,177.72Z"/><path class="cls-9" d="M68.32,174.25a2.71,2.71,0,0,1,1.3.29,2.6,2.6,0,0,1,.9.79,3.45,3.45,0,0,1,.52,1.13,5.21,5.21,0,0,1,.17,1.34v.13H66.16a3.58,3.58,0,0,0,.13.94,2.59,2.59,0,0,0,.39.83,2,2,0,0,0,.66.59,1.92,1.92,0,0,0,.95.22,2.44,2.44,0,0,0,.7-.09,2,2,0,0,0,.56-.26,1.76,1.76,0,0,0,.42-.39,2.41,2.41,0,0,0,.29-.49H71a3,3,0,0,1-.38.79,2.48,2.48,0,0,1-.59.6,2.68,2.68,0,0,1-.79.39,3.34,3.34,0,0,1-1,.14,2.94,2.94,0,0,1-1.3-.27,2.56,2.56,0,0,1-.91-.73,3.12,3.12,0,0,1-.54-1.1,5.14,5.14,0,0,1-.18-1.37,4.66,4.66,0,0,1,.18-1.28,3.36,3.36,0,0,1,.54-1.11,2.74,2.74,0,0,1,.92-.78A2.79,2.79,0,0,1,68.32,174.25Zm2.09,3a3,3,0,0,0-.16-.85,2.44,2.44,0,0,0-.41-.75,2.07,2.07,0,0,0-.65-.54,1.84,1.84,0,0,0-.88-.21,1.84,1.84,0,0,0-1.5.7,2.7,2.7,0,0,0-.42.75,4.31,4.31,0,0,0-.23.9Z"/><path class="cls-9" d="M78.62,171.92V181h-.74v-1.25h0a2,2,0,0,1-.39.59,2.57,2.57,0,0,1-.56.45,2.8,2.8,0,0,1-.67.29,2.63,2.63,0,0,1-.72.1,2.8,2.8,0,0,1-1.28-.28,2.68,2.68,0,0,1-.92-.75,3.32,3.32,0,0,1-.56-1.11,4.68,4.68,0,0,1-.19-1.34,4.83,4.83,0,0,1,.17-1.29,3.31,3.31,0,0,1,.53-1.11,2.69,2.69,0,0,1,.92-.78,3,3,0,0,1,2-.2,2.56,2.56,0,0,1,.65.27,2.25,2.25,0,0,1,.54.45,2.07,2.07,0,0,1,.38.63h0v-3.77Zm-5.26,5.8a4.17,4.17,0,0,0,.05.65,3.7,3.7,0,0,0,.16.64,2.82,2.82,0,0,0,.28.58,2.15,2.15,0,0,0,.41.48,1.8,1.8,0,0,0,.55.32,2,2,0,0,0,.7.12,2.08,2.08,0,0,0,1.73-.84,2.66,2.66,0,0,0,.43-.89,4,4,0,0,0,.14-1.06,4,4,0,0,0-.13-1,2.73,2.73,0,0,0-.41-.9,2.06,2.06,0,0,0-1.76-.88,1.94,1.94,0,0,0-.68.11,1.8,1.8,0,0,0-.54.31,2.15,2.15,0,0,0-.41.47,2.8,2.8,0,0,0-.29.58,3.52,3.52,0,0,0-.17.65A4.25,4.25,0,0,0,73.36,177.72Z"/><path class="cls-9" d="M33.82,209.56a2.18,2.18,0,0,1-.78,1.82,3.51,3.51,0,0,1-2.22.62H27.13v-8.57h3.69a4.84,4.84,0,0,1,1,.11,2.47,2.47,0,0,1,.86.35,1.81,1.81,0,0,1,.59.65,2,2,0,0,1,.22,1,2.1,2.1,0,0,1-.1.64,1.89,1.89,0,0,1-.76,1,2,2,0,0,1-.63.28v0a2.29,2.29,0,0,1,.76.23,1.86,1.86,0,0,1,.92,1.07A2.49,2.49,0,0,1,33.82,209.56Zm-1.14-3.83a1.45,1.45,0,0,0-.49-1.21,2.29,2.29,0,0,0-1.45-.39H27.95v3.06H30.8a2.88,2.88,0,0,0,.67-.08,1.87,1.87,0,0,0,.59-.25,1.35,1.35,0,0,0,.62-1.13Zm.32,3.81a1.42,1.42,0,0,0-.59-1.24,2.89,2.89,0,0,0-1.68-.41h-2.8v3.42h2.87a2.64,2.64,0,0,0,1.64-.43A1.58,1.58,0,0,0,33,209.54Z"/><path class="cls-9" d="M41.35,208.72a4.29,4.29,0,0,1-.2,1.31,3.31,3.31,0,0,1-.61,1.13,2.9,2.9,0,0,1-2.29,1,2.84,2.84,0,0,1-2.24-1,4.07,4.07,0,0,1,0-5,3.08,3.08,0,0,1,4.51,0A3.65,3.65,0,0,1,41.35,208.72Zm-.8,0a3.8,3.8,0,0,0-.13-1,2.81,2.81,0,0,0-.42-.9,2.25,2.25,0,0,0-.72-.65,2,2,0,0,0-1-.25,2,2,0,0,0-1,.24,2.24,2.24,0,0,0-.72.64,2.85,2.85,0,0,0-.44.9,3.66,3.66,0,0,0-.15,1,3.58,3.58,0,0,0,.14,1,3,3,0,0,0,.43.9,2.24,2.24,0,0,0,.71.65,2,2,0,0,0,1,.25,2,2,0,0,0,1-.24,2.33,2.33,0,0,0,.72-.63,2.8,2.8,0,0,0,.45-.89A3.54,3.54,0,0,0,40.54,208.72Z"/><path class="cls-9" d="M49,208.72a4.29,4.29,0,0,1-.2,1.31,3.31,3.31,0,0,1-.61,1.13,2.9,2.9,0,0,1-2.29,1,2.84,2.84,0,0,1-2.24-1,4.07,4.07,0,0,1,0-5,3.08,3.08,0,0,1,4.51,0A3.65,3.65,0,0,1,49,208.72Zm-.8,0a3.8,3.8,0,0,0-.13-1,2.81,2.81,0,0,0-.42-.9,2.25,2.25,0,0,0-.72-.65,2,2,0,0,0-1-.25,2,2,0,0,0-1,.24,2.24,2.24,0,0,0-.72.64,2.85,2.85,0,0,0-.44.9,3.66,3.66,0,0,0-.15,1,3.58,3.58,0,0,0,.14,1,3,3,0,0,0,.43.9,2.24,2.24,0,0,0,.71.65,2,2,0,0,0,1,.25,2,2,0,0,0,1-.24,2.33,2.33,0,0,0,.72-.63,2.8,2.8,0,0,0,.45-.89A3.54,3.54,0,0,0,48.15,208.72Z"/><path class="cls-9" d="M51.56,202.92v5.7l3.64-3.18h1.07l-2.79,2.43,3,4.14h-1l-2.6-3.57-1.3,1.08V212h-.8v-9.08Z"/><path class="cls-9" d="M60.17,205.25a2.71,2.71,0,0,1,1.3.29,2.6,2.6,0,0,1,.9.79,3.45,3.45,0,0,1,.52,1.13,5.21,5.21,0,0,1,.17,1.34v.13H58a3.58,3.58,0,0,0,.13.94,2.59,2.59,0,0,0,.39.83,2,2,0,0,0,.66.59,1.92,1.92,0,0,0,.95.22,2.44,2.44,0,0,0,.7-.09,2,2,0,0,0,.56-.26,1.76,1.76,0,0,0,.42-.39,2.41,2.41,0,0,0,.29-.49h.79a3,3,0,0,1-.38.79,2.48,2.48,0,0,1-.59.6,2.68,2.68,0,0,1-.79.39,3.34,3.34,0,0,1-1,.14,2.94,2.94,0,0,1-1.3-.27,2.56,2.56,0,0,1-.91-.73,3.12,3.12,0,0,1-.54-1.1,5.14,5.14,0,0,1-.18-1.37,4.66,4.66,0,0,1,.18-1.28,3.36,3.36,0,0,1,.54-1.11,2.74,2.74,0,0,1,.92-.78A2.79,2.79,0,0,1,60.17,205.25Zm2.09,3a3,3,0,0,0-.16-.85,2.44,2.44,0,0,0-.41-.75,2.07,2.07,0,0,0-.65-.54,1.84,1.84,0,0,0-.88-.21,1.84,1.84,0,0,0-1.5.7,2.7,2.7,0,0,0-.42.75,4.31,4.31,0,0,0-.23.9Z"/><path class="cls-9" d="M70.47,202.92V212h-.74v-1.25h0a2,2,0,0,1-.39.59,2.57,2.57,0,0,1-.56.45,2.8,2.8,0,0,1-.67.29,2.63,2.63,0,0,1-.72.1,2.8,2.8,0,0,1-1.28-.28,2.68,2.68,0,0,1-.92-.75,3.32,3.32,0,0,1-.56-1.11,4.68,4.68,0,0,1-.19-1.34,4.83,4.83,0,0,1,.17-1.29,3.31,3.31,0,0,1,.53-1.11,2.69,2.69,0,0,1,.92-.78,3,3,0,0,1,2-.2,2.56,2.56,0,0,1,.65.27,2.25,2.25,0,0,1,.54.45,2.07,2.07,0,0,1,.38.63h0v-3.77Zm-5.26,5.8a4.17,4.17,0,0,0,.05.65,3.7,3.7,0,0,0,.16.64,2.82,2.82,0,0,0,.28.58,2.15,2.15,0,0,0,.41.48,1.8,1.8,0,0,0,.55.32,2,2,0,0,0,.7.12,2.08,2.08,0,0,0,1.73-.84,2.66,2.66,0,0,0,.43-.89,4,4,0,0,0,.14-1.06,4,4,0,0,0-.13-1,2.73,2.73,0,0,0-.41-.9,2.06,2.06,0,0,0-1.76-.88,1.94,1.94,0,0,0-.68.11,1.8,1.8,0,0,0-.54.31,2.15,2.15,0,0,0-.41.47,2.8,2.8,0,0,0-.29.58,3.52,3.52,0,0,0-.17.65A4.25,4.25,0,0,0,65.21,208.72Z"/><rect class="cls-1" x="140.5" y="67.5" width="92" height="31"/><path class="cls-8" d="M232,68V98H141V68h91m1-1H140V99h93V67Z"/><rect class="cls-1" x="140.5" y="98.5" width="92" height="31"/><path class="cls-8" d="M232,99v30H141V99h91m1-1H140v32h93V98Z"/><rect class="cls-1" x="140.5" y="129.5" width="92" height="31"/><path class="cls-8" d="M232,130v30H141V130h91m1-1H140v32h93V129Z"/><rect class="cls-1" x="232.5" y="67.5" width="92" height="31"/><path class="cls-8" d="M324,68V98H233V68h91m1-1H232V99h93V67Z"/><rect class="cls-1" x="232.5" y="129.5" width="92" height="31"/><path class="cls-8" d="M324,130v30H233V130h91m1-1H232v32h93V129Z"/><rect class="cls-1" x="324.5" y="67.5" width="92" height="31"/><path class="cls-8" d="M416,68V98H325V68h91m1-1H324V99h93V67Z"/><rect class="cls-1" x="324.5" y="98.5" width="92" height="31"/><path class="cls-8" d="M416,99v30H325V99h91m1-1H324v32h93V98Z"/><rect class="cls-1" x="324.5" y="129.5" width="92" height="31"/><path class="cls-8" d="M416,130v30H325V130h91m1-1H324v32h93V129Z"/><rect class="cls-1" x="140.5" y="160.5" width="92" height="31"/><path class="cls-8" d="M232,161v30H141V161h91m1-1H140v32h93V160Z"/><rect class="cls-1" x="232.5" y="160.5" width="92" height="31"/><path class="cls-8" d="M324,161v30H233V161h91m1-1H232v32h93V160Z"/><rect class="cls-1" x="232.5" y="191.5" width="92" height="31"/><path class="cls-8" d="M324,192v30H233V192h91m1-1H232v32h93V191Z"/><rect class="cls-1" x="324.5" y="160.5" width="92" height="31"/><path class="cls-8" d="M416,161v30H325V161h91m1-1H324v32h93V160Z"/><rect class="cls-1" x="324.5" y="191.5" width="92" height="31"/><path class="cls-8" d="M416,192v30H325V192h91m1-1H324v32h93V191Z"/><path class="cls-5" d="M377.59,87.69V81.82h-2.2v-1a6,6,0,0,0,.9-.07,2.36,2.36,0,0,0,.63-.18,1.57,1.57,0,0,0,.64-.55,2.21,2.21,0,0,0,.31-.89H379v8.6Z"/><path class="cls-5" d="M385.17,79a3,3,0,0,1,2,.7,2.22,2.22,0,0,1,.6.83,2.77,2.77,0,0,1,.19,1.06,2.82,2.82,0,0,1-.46,1.55,5.83,5.83,0,0,1-1.78,1.54q-.5.3-.85.57a6.91,6.91,0,0,0-.58.47,2.8,2.8,0,0,0-.62.81H388v1.21H382a3.35,3.35,0,0,1,.39-1.59,3.73,3.73,0,0,1,.51-.69,5.59,5.59,0,0,1,.74-.66l.95-.71,1.12-.83a2.7,2.7,0,0,0,.71-.75,1.61,1.61,0,0,0,.23-.83,1.68,1.68,0,0,0-.1-.59,1.33,1.33,0,0,0-.31-.48,1.44,1.44,0,0,0-.47-.3,1.77,1.77,0,0,0-1.31,0,1.46,1.46,0,0,0-.5.38,1.58,1.58,0,0,0-.29.53,2,2,0,0,0-.1.61V82h-1.34v-.15a3.14,3.14,0,0,1,.21-1.15,2.54,2.54,0,0,1,.59-.9,2.71,2.71,0,0,1,.94-.59A3.45,3.45,0,0,1,385.17,79Z"/><path class="cls-5" d="M392.07,87.88a3.21,3.21,0,0,1-1-.14,2.49,2.49,0,0,1-.79-.41,2.29,2.29,0,0,1-.57-.65,2.45,2.45,0,0,1-.3-.86h1.34a1.6,1.6,0,0,0,.17.39,1.14,1.14,0,0,0,.28.31,1.3,1.3,0,0,0,.39.21,1.55,1.55,0,0,0,.5.08,1.46,1.46,0,0,0,.88-.26,2,2,0,0,0,.59-.69,3.5,3.5,0,0,0,.33-1,6.78,6.78,0,0,0,.12-1.13h0a2.16,2.16,0,0,1-.67.68,2.21,2.21,0,0,1-.9.3,2.48,2.48,0,0,1-1.37-.11,2.34,2.34,0,0,1-1.35-1,2.76,2.76,0,0,1-.49-1.62,3,3,0,0,1,.85-2.2A2.84,2.84,0,0,1,392.2,79a3.25,3.25,0,0,1,1.42.29,2.51,2.51,0,0,1,1,.86,5.88,5.88,0,0,1,.79,3.34,7.74,7.74,0,0,1-.07,1.05,5.85,5.85,0,0,1-.23,1,4.56,4.56,0,0,1-.42.92,3,3,0,0,1-.62.75,2.77,2.77,0,0,1-.86.5A3.19,3.19,0,0,1,392.07,87.88Zm1.8-5.94a1.88,1.88,0,0,0-.45-1.3,1.53,1.53,0,0,0-1.22-.52,1.41,1.41,0,0,0-1.13.53,1.9,1.9,0,0,0-.45,1.27,2,2,0,0,0,.43,1.32,1.43,1.43,0,0,0,1.17.54,1.55,1.55,0,0,0,1.2-.52A2,2,0,0,0,393.87,81.93Z"/><path class="cls-5" d="M401.5,85.65v2h-1.31v-2h-3.76V84.36l3.82-5.27h1.25V84.5h1.2v1.15Zm-1.31-4.82h0l-2.62,3.67h2.65Z"/><path class="cls-5" d="M408.77,85.65v2h-1.31v-2H403.7V84.36l3.82-5.27h1.25V84.5H410v1.15Zm-1.31-4.82h0L404.8,84.5h2.65Z"/><path class="cls-5" d="M377.59,118.69v-5.87h-2.2v-1a6,6,0,0,0,.9-.07,2.36,2.36,0,0,0,.63-.18,1.57,1.57,0,0,0,.64-.55,2.21,2.21,0,0,0,.31-.89H379v8.6Z"/><path class="cls-5" d="M385.17,110a3,3,0,0,1,2,.7,2.22,2.22,0,0,1,.6.83,2.77,2.77,0,0,1,.19,1.06,2.82,2.82,0,0,1-.46,1.55,5.83,5.83,0,0,1-1.78,1.54q-.5.3-.85.57a6.91,6.91,0,0,0-.58.47,2.8,2.8,0,0,0-.62.81H388v1.21H382a3.35,3.35,0,0,1,.39-1.59,3.73,3.73,0,0,1,.51-.69,5.59,5.59,0,0,1,.74-.66l.95-.71,1.12-.83a2.7,2.7,0,0,0,.71-.75,1.61,1.61,0,0,0,.23-.83,1.68,1.68,0,0,0-.1-.59,1.33,1.33,0,0,0-.31-.48,1.44,1.44,0,0,0-.47-.3,1.77,1.77,0,0,0-1.31,0,1.46,1.46,0,0,0-.5.38,1.58,1.58,0,0,0-.29.53,2,2,0,0,0-.1.61V113h-1.34v-.15a3.14,3.14,0,0,1,.21-1.15,2.54,2.54,0,0,1,.59-.9,2.71,2.71,0,0,1,.94-.59A3.45,3.45,0,0,1,385.17,110Z"/><path class="cls-5" d="M395.46,116.21a2.37,2.37,0,0,1-.89,1.95,3.88,3.88,0,0,1-4.51,0,2.33,2.33,0,0,1-.88-1.93,2.43,2.43,0,0,1,.11-.76,2.08,2.08,0,0,1,.33-.63,2,2,0,0,1,.52-.47,2.17,2.17,0,0,1,.7-.28v0a1.81,1.81,0,0,1-1-.67,1.92,1.92,0,0,1-.33-1.14,2,2,0,0,1,.81-1.65,3.16,3.16,0,0,1,2-.62,2.91,2.91,0,0,1,2,.67,2,2,0,0,1,.76,1.58,2.14,2.14,0,0,1-.08.61,1.83,1.83,0,0,1-.25.52,1.75,1.75,0,0,1-.41.42,2,2,0,0,1-.57.28v0a2.06,2.06,0,0,1,1.24.75A2.24,2.24,0,0,1,395.46,116.21Zm-1.39,0a1.45,1.45,0,0,0-.48-1.11,1.79,1.79,0,0,0-1.27-.44,1.88,1.88,0,0,0-1.27.42,1.42,1.42,0,0,0-.49,1.13,1.53,1.53,0,0,0,.5,1.18,1.79,1.79,0,0,0,1.27.46,1.74,1.74,0,0,0,1.25-.45A1.53,1.53,0,0,0,394.07,116.17Zm-.26-3.83a1.42,1.42,0,0,0-.11-.56,1,1,0,0,0-.32-.42,1.85,1.85,0,0,0-2.14,0,1.18,1.18,0,0,0-.42.94,1.19,1.19,0,0,0,.41.94,1.85,1.85,0,0,0,2.19,0A1.21,1.21,0,0,0,393.81,112.34Z"/><path class="cls-5" d="M401.5,116.65v2h-1.31v-2h-3.76v-1.29l3.82-5.27h1.25v5.41h1.2v1.15Zm-1.31-4.82h0l-2.62,3.67h2.65Z"/><path class="cls-5" d="M409.72,110.13v1.21a8.83,8.83,0,0,0-1.24,1.49,10.33,10.33,0,0,0-.95,1.83,12,12,0,0,0-.87,4h-1.49a11.75,11.75,0,0,1,.93-3.82,13.7,13.7,0,0,1,2.2-3.45H404v-1.29Z"/><path class="cls-5" d="M388.2,147.21a2.37,2.37,0,0,1-.89,1.95,3.88,3.88,0,0,1-4.51,0,2.33,2.33,0,0,1-.88-1.93,2.43,2.43,0,0,1,.11-.76,2.08,2.08,0,0,1,.33-.63,2,2,0,0,1,.52-.47,2.17,2.17,0,0,1,.7-.28v0a1.81,1.81,0,0,1-1-.67,1.92,1.92,0,0,1-.33-1.14,2,2,0,0,1,.81-1.65,3.16,3.16,0,0,1,2-.62,2.91,2.91,0,0,1,2,.67,2,2,0,0,1,.76,1.58,2.14,2.14,0,0,1-.08.61,1.83,1.83,0,0,1-.25.52,1.75,1.75,0,0,1-.41.42,2,2,0,0,1-.57.28v0a2.06,2.06,0,0,1,1.24.75A2.24,2.24,0,0,1,388.2,147.21Zm-1.39,0a1.45,1.45,0,0,0-.48-1.11,1.79,1.79,0,0,0-1.27-.44,1.88,1.88,0,0,0-1.27.42,1.42,1.42,0,0,0-.49,1.13,1.53,1.53,0,0,0,.5,1.18,1.79,1.79,0,0,0,1.27.46,1.74,1.74,0,0,0,1.25-.45A1.53,1.53,0,0,0,386.8,147.17Zm-.26-3.83a1.42,1.42,0,0,0-.11-.56,1,1,0,0,0-.32-.42,1.85,1.85,0,0,0-2.14,0,1.18,1.18,0,0,0-.42.94,1.19,1.19,0,0,0,.41.94,1.85,1.85,0,0,0,2.19,0A1.21,1.21,0,0,0,386.54,143.34Z"/><path class="cls-5" d="M392.32,141a3.64,3.64,0,0,1,1,.15,2.72,2.72,0,0,1,.88.44,2.18,2.18,0,0,1,.62.72,2.1,2.1,0,0,1,.23,1,2.16,2.16,0,0,1-.08.62,1.83,1.83,0,0,1-.25.52,1.63,1.63,0,0,1-.4.41,1.88,1.88,0,0,1-.56.27v0a1.93,1.93,0,0,1,1.2.71,2.07,2.07,0,0,1,.42,1.3,2.5,2.5,0,0,1-.89,2,3.31,3.31,0,0,1-2.23.76,3.84,3.84,0,0,1-1.17-.18,2.94,2.94,0,0,1-1-.52,2.49,2.49,0,0,1-.67-.84,2.55,2.55,0,0,1-.25-1.14v-.13h1.34v.13a1.45,1.45,0,0,0,.49,1.11,1.58,1.58,0,0,0,.52.3,1.91,1.91,0,0,0,.64.11,1.81,1.81,0,0,0,1.28-.44,1.45,1.45,0,0,0,.47-1.11,1.34,1.34,0,0,0-.45-1.09,2.2,2.2,0,0,0-1.46-.39h-.35v-1h.43a1.86,1.86,0,0,0,1.2-.35,1.1,1.1,0,0,0,.4-.9,1.39,1.39,0,0,0-.11-.58,1.12,1.12,0,0,0-.31-.41,1.34,1.34,0,0,0-.46-.24,2,2,0,0,0-.57-.08,1.7,1.7,0,0,0-.6.1,1.41,1.41,0,0,0-.48.3,1.44,1.44,0,0,0-.33.47,1.62,1.62,0,0,0-.13.64H389.4a2.81,2.81,0,0,1,.23-1,2.55,2.55,0,0,1,.59-.84,2.75,2.75,0,0,1,.91-.56A3.27,3.27,0,0,1,392.32,141Z"/><path class="cls-5" d="M399.38,149.69v-5.87h-2.2v-1a6,6,0,0,0,.9-.07,2.36,2.36,0,0,0,.63-.18,1.57,1.57,0,0,0,.64-.55,2.21,2.21,0,0,0,.31-.89h1.11v8.6Z"/><path class="cls-5" d="M407.11,141a3.18,3.18,0,0,1,1,.14,2.5,2.5,0,0,1,.79.41,2.29,2.29,0,0,1,.57.65,2.45,2.45,0,0,1,.3.86h-1.33a1.57,1.57,0,0,0-.17-.4,1.14,1.14,0,0,0-.28-.31,1.26,1.26,0,0,0-.39-.21,1.63,1.63,0,0,0-.51-.07,1.45,1.45,0,0,0-.88.26,2,2,0,0,0-.58.69,3.5,3.5,0,0,0-.33,1,6.72,6.72,0,0,0-.12,1.13l0,0a2,2,0,0,1,1.58-1,2.45,2.45,0,0,1,1.36.11,2.41,2.41,0,0,1,1.36,1,2.77,2.77,0,0,1,.49,1.62,3,3,0,0,1-.85,2.2,2.83,2.83,0,0,1-2.13.87,3.22,3.22,0,0,1-1.42-.29,2.58,2.58,0,0,1-1-.86,4.1,4.1,0,0,1-.59-1.39,8.46,8.46,0,0,1-.2-1.94,7.74,7.74,0,0,1,.07-1.05,5.85,5.85,0,0,1,.23-1,4.47,4.47,0,0,1,.42-.92,3.09,3.09,0,0,1,.63-.75,2.77,2.77,0,0,1,.86-.5A3.19,3.19,0,0,1,407.11,141Zm-1.8,5.94a1.9,1.9,0,0,0,.45,1.31,1.53,1.53,0,0,0,1.21.52,1.43,1.43,0,0,0,1.14-.53,1.9,1.9,0,0,0,.45-1.27,2.05,2.05,0,0,0-.43-1.32,1.42,1.42,0,0,0-1.17-.54,1.55,1.55,0,0,0-1.2.51A2,2,0,0,0,405.31,146.9Z"/><path class="cls-5" d="M387.92,172.13v1.21a8.83,8.83,0,0,0-1.24,1.49,10.33,10.33,0,0,0-.95,1.83,12,12,0,0,0-.87,4h-1.49a11.75,11.75,0,0,1,.93-3.82,13.7,13.7,0,0,1,2.2-3.45h-4.32v-1.29Z"/><path class="cls-5" d="M395.46,178.21a2.37,2.37,0,0,1-.89,1.95,3.88,3.88,0,0,1-4.51,0,2.33,2.33,0,0,1-.88-1.93,2.43,2.43,0,0,1,.11-.76,2.08,2.08,0,0,1,.33-.63,2,2,0,0,1,.52-.47,2.17,2.17,0,0,1,.7-.28v0a1.81,1.81,0,0,1-1-.67,1.92,1.92,0,0,1-.33-1.14,2,2,0,0,1,.81-1.65,3.16,3.16,0,0,1,2-.62,2.91,2.91,0,0,1,2,.67,2,2,0,0,1,.76,1.58,2.14,2.14,0,0,1-.08.61,1.83,1.83,0,0,1-.25.52,1.75,1.75,0,0,1-.41.42,2,2,0,0,1-.57.28v0a2.06,2.06,0,0,1,1.24.75A2.24,2.24,0,0,1,395.46,178.21Zm-1.39,0a1.45,1.45,0,0,0-.48-1.11,1.79,1.79,0,0,0-1.27-.44,1.88,1.88,0,0,0-1.27.42,1.42,1.42,0,0,0-.49,1.13,1.53,1.53,0,0,0,.5,1.18,1.79,1.79,0,0,0,1.27.46,1.74,1.74,0,0,0,1.25-.45A1.53,1.53,0,0,0,394.07,178.17Zm-.26-3.83a1.42,1.42,0,0,0-.11-.56,1,1,0,0,0-.32-.42,1.85,1.85,0,0,0-2.14,0,1.18,1.18,0,0,0-.42.94,1.19,1.19,0,0,0,.41.94,1.85,1.85,0,0,0,2.19,0A1.21,1.21,0,0,0,393.81,174.34Z"/><path class="cls-5" d="M399.38,180.69v-5.87h-2.2v-1a6,6,0,0,0,.9-.07,2.36,2.36,0,0,0,.63-.18,1.57,1.57,0,0,0,.64-.55,2.21,2.21,0,0,0,.31-.89h1.11v8.6Z"/><path class="cls-5" d="M407.11,172a3.18,3.18,0,0,1,1,.14,2.5,2.5,0,0,1,.79.41,2.29,2.29,0,0,1,.57.65,2.45,2.45,0,0,1,.3.86h-1.33a1.57,1.57,0,0,0-.17-.4,1.14,1.14,0,0,0-.28-.31,1.26,1.26,0,0,0-.39-.21,1.63,1.63,0,0,0-.51-.07,1.45,1.45,0,0,0-.88.26,2,2,0,0,0-.58.69,3.5,3.5,0,0,0-.33,1,6.72,6.72,0,0,0-.12,1.13l0,0a2,2,0,0,1,1.58-1,2.45,2.45,0,0,1,1.36.11,2.41,2.41,0,0,1,1.36,1,2.77,2.77,0,0,1,.49,1.62,3,3,0,0,1-.85,2.2,2.83,2.83,0,0,1-2.13.87,3.22,3.22,0,0,1-1.42-.29,2.58,2.58,0,0,1-1-.86,4.1,4.1,0,0,1-.59-1.39,8.46,8.46,0,0,1-.2-1.94,7.74,7.74,0,0,1,.07-1.05,5.85,5.85,0,0,1,.23-1,4.47,4.47,0,0,1,.42-.92,3.09,3.09,0,0,1,.63-.75,2.77,2.77,0,0,1,.86-.5A3.19,3.19,0,0,1,407.11,172Zm-1.8,5.94a1.9,1.9,0,0,0,.45,1.31,1.53,1.53,0,0,0,1.21.52,1.43,1.43,0,0,0,1.14-.53,1.9,1.9,0,0,0,.45-1.27,2.05,2.05,0,0,0-.43-1.32,1.42,1.42,0,0,0-1.17-.54,1.55,1.55,0,0,0-1.2.51A2,2,0,0,0,405.31,177.9Z"/><path class="cls-5" d="M377.59,211.69v-5.87h-2.2v-1a6,6,0,0,0,.9-.07,2.36,2.36,0,0,0,.63-.18,1.57,1.57,0,0,0,.64-.55,2.21,2.21,0,0,0,.31-.89H379v8.6Z"/><path class="cls-5" d="M385.17,203a3,3,0,0,1,2,.7,2.22,2.22,0,0,1,.6.83,2.77,2.77,0,0,1,.19,1.06,2.82,2.82,0,0,1-.46,1.55,5.83,5.83,0,0,1-1.78,1.54q-.5.3-.85.57a6.91,6.91,0,0,0-.58.47,2.8,2.8,0,0,0-.62.81H388v1.21H382a3.35,3.35,0,0,1,.39-1.59,3.73,3.73,0,0,1,.51-.69,5.59,5.59,0,0,1,.74-.66l.95-.71,1.12-.83a2.7,2.7,0,0,0,.71-.75,1.61,1.61,0,0,0,.23-.83,1.68,1.68,0,0,0-.1-.59,1.33,1.33,0,0,0-.31-.48,1.44,1.44,0,0,0-.47-.3,1.77,1.77,0,0,0-1.31,0,1.46,1.46,0,0,0-.5.38,1.58,1.58,0,0,0-.29.53,2,2,0,0,0-.1.61V206h-1.34v-.15a3.14,3.14,0,0,1,.21-1.15,2.54,2.54,0,0,1,.59-.9,2.71,2.71,0,0,1,.94-.59A3.45,3.45,0,0,1,385.17,203Z"/><path class="cls-5" d="M392.07,211.88a3.21,3.21,0,0,1-1-.14,2.49,2.49,0,0,1-.79-.41,2.29,2.29,0,0,1-.57-.65,2.45,2.45,0,0,1-.3-.86h1.34a1.6,1.6,0,0,0,.17.39,1.14,1.14,0,0,0,.28.31,1.3,1.3,0,0,0,.39.21,1.55,1.55,0,0,0,.5.08,1.46,1.46,0,0,0,.88-.26,2,2,0,0,0,.59-.69,3.5,3.5,0,0,0,.33-1,6.78,6.78,0,0,0,.12-1.13h0a2.16,2.16,0,0,1-.67.68,2.21,2.21,0,0,1-.9.3,2.48,2.48,0,0,1-1.37-.11,2.34,2.34,0,0,1-1.35-1,2.76,2.76,0,0,1-.49-1.62,3,3,0,0,1,.85-2.2,2.84,2.84,0,0,1,2.13-.87,3.25,3.25,0,0,1,1.42.29,2.51,2.51,0,0,1,1,.86,5.88,5.88,0,0,1,.79,3.34,7.74,7.74,0,0,1-.07,1.05,5.85,5.85,0,0,1-.23,1,4.56,4.56,0,0,1-.42.92,3,3,0,0,1-.62.75,2.77,2.77,0,0,1-.86.5A3.19,3.19,0,0,1,392.07,211.88Zm1.8-5.94a1.88,1.88,0,0,0-.45-1.3,1.53,1.53,0,0,0-1.22-.52,1.41,1.41,0,0,0-1.13.53,1.9,1.9,0,0,0-.45,1.27,2,2,0,0,0,.43,1.32,1.43,1.43,0,0,0,1.17.54,1.55,1.55,0,0,0,1.2-.52A2,2,0,0,0,393.87,205.93Z"/><path class="cls-5" d="M401.5,209.65v2h-1.31v-2h-3.76v-1.29l3.82-5.27h1.25v5.41h1.2v1.15Zm-1.31-4.82h0l-2.62,3.67h2.65Z"/><path class="cls-5" d="M408.77,209.65v2h-1.31v-2H403.7v-1.29l3.82-5.27h1.25v5.41H410v1.15Zm-1.31-4.82h0l-2.62,3.67h2.65Z"/><rect class="cls-1" x="140.5" y="191.5" width="92" height="31"/><path class="cls-8" d="M232,192v30H141V192h91m1-1H140v32h93V191Z"/><path class="cls-8" d="M232,192v30H141V192h91m1-1H140v32h93V191Z"/><path class="cls-5" d="M215.1,79a3.64,3.64,0,0,1,1,.15,2.72,2.72,0,0,1,.88.44,2.18,2.18,0,0,1,.62.72,2.1,2.1,0,0,1,.23,1,2.16,2.16,0,0,1-.08.62,1.83,1.83,0,0,1-.25.52,1.63,1.63,0,0,1-.4.41,1.88,1.88,0,0,1-.56.27v0a1.93,1.93,0,0,1,1.2.71,2.07,2.07,0,0,1,.42,1.3,2.5,2.5,0,0,1-.89,2,3.31,3.31,0,0,1-2.23.76,3.84,3.84,0,0,1-1.17-.18,2.94,2.94,0,0,1-1-.52,2.49,2.49,0,0,1-.67-.84A2.55,2.55,0,0,1,212,85.2v-.13h1.34v.13a1.45,1.45,0,0,0,.49,1.11,1.58,1.58,0,0,0,.52.3,1.91,1.91,0,0,0,.64.11,1.81,1.81,0,0,0,1.28-.44,1.45,1.45,0,0,0,.47-1.11,1.34,1.34,0,0,0-.45-1.09,2.2,2.2,0,0,0-1.46-.39h-.35v-1h.43a1.86,1.86,0,0,0,1.2-.35,1.1,1.1,0,0,0,.4-.9,1.39,1.39,0,0,0-.11-.58,1.12,1.12,0,0,0-.31-.41,1.34,1.34,0,0,0-.46-.24,2,2,0,0,0-.57-.08,1.7,1.7,0,0,0-.6.1,1.41,1.41,0,0,0-.48.3,1.44,1.44,0,0,0-.33.47,1.62,1.62,0,0,0-.13.64h-1.34a2.81,2.81,0,0,1,.23-1,2.55,2.55,0,0,1,.59-.84,2.75,2.75,0,0,1,.91-.56A3.27,3.27,0,0,1,215.1,79Z"/><path class="cls-5" d="M224.29,85.65v2H223v-2h-3.76V84.36L223,79.09h1.25V84.5h1.2v1.15ZM223,80.83h0l-2.62,3.67H223Z"/><path class="cls-5" d="M215.1,110a3.64,3.64,0,0,1,1,.15,2.72,2.72,0,0,1,.88.44,2.18,2.18,0,0,1,.62.72,2.1,2.1,0,0,1,.23,1,2.16,2.16,0,0,1-.08.62,1.83,1.83,0,0,1-.25.52,1.63,1.63,0,0,1-.4.41,1.88,1.88,0,0,1-.56.27v0a1.93,1.93,0,0,1,1.2.71,2.07,2.07,0,0,1,.42,1.3,2.5,2.5,0,0,1-.89,2,3.31,3.31,0,0,1-2.23.76,3.84,3.84,0,0,1-1.17-.18,2.94,2.94,0,0,1-1-.52,2.49,2.49,0,0,1-.67-.84,2.55,2.55,0,0,1-.25-1.14v-.13h1.34v.13a1.45,1.45,0,0,0,.49,1.11,1.58,1.58,0,0,0,.52.3,1.91,1.91,0,0,0,.64.11,1.81,1.81,0,0,0,1.28-.44,1.45,1.45,0,0,0,.47-1.11,1.34,1.34,0,0,0-.45-1.09,2.2,2.2,0,0,0-1.46-.39h-.35v-1h.43a1.86,1.86,0,0,0,1.2-.35,1.1,1.1,0,0,0,.4-.9,1.39,1.39,0,0,0-.11-.58,1.12,1.12,0,0,0-.31-.41,1.34,1.34,0,0,0-.46-.24,2,2,0,0,0-.57-.08,1.7,1.7,0,0,0-.6.1,1.41,1.41,0,0,0-.48.3,1.44,1.44,0,0,0-.33.47,1.62,1.62,0,0,0-.13.64h-1.34a2.81,2.81,0,0,1,.23-1,2.55,2.55,0,0,1,.59-.84,2.75,2.75,0,0,1,.91-.56A3.27,3.27,0,0,1,215.1,110Z"/><path class="cls-5" d="M224.29,116.65v2H223v-2h-3.76v-1.29l3.82-5.27h1.25v5.41h1.2v1.15ZM223,111.83h0l-2.62,3.67H223Z"/><path class="cls-5" d="M215.22,141a3,3,0,0,1,2,.7,2.22,2.22,0,0,1,.6.83,2.77,2.77,0,0,1,.19,1.06,2.82,2.82,0,0,1-.46,1.55,5.83,5.83,0,0,1-1.78,1.54q-.5.3-.85.57a6.91,6.91,0,0,0-.58.47,2.8,2.8,0,0,0-.62.81h4.33v1.21H212a3.35,3.35,0,0,1,.39-1.59,3.73,3.73,0,0,1,.51-.69,5.59,5.59,0,0,1,.74-.66l.95-.71,1.12-.83a2.7,2.7,0,0,0,.71-.75,1.61,1.61,0,0,0,.23-.83,1.68,1.68,0,0,0-.1-.59,1.33,1.33,0,0,0-.31-.48,1.44,1.44,0,0,0-.47-.3,1.77,1.77,0,0,0-1.31,0,1.46,1.46,0,0,0-.5.38,1.58,1.58,0,0,0-.29.53,2,2,0,0,0-.1.61V144h-1.34v-.15a3.14,3.14,0,0,1,.21-1.15,2.54,2.54,0,0,1,.59-.9,2.71,2.71,0,0,1,.94-.59A3.45,3.45,0,0,1,215.22,141Z"/><path class="cls-5" d="M222.48,141a3,3,0,0,1,2,.7,2.22,2.22,0,0,1,.6.83,2.77,2.77,0,0,1,.19,1.06,2.82,2.82,0,0,1-.46,1.55,5.83,5.83,0,0,1-1.78,1.54q-.5.3-.85.57a6.91,6.91,0,0,0-.58.47,2.8,2.8,0,0,0-.62.81h4.33v1.21h-6.08a3.35,3.35,0,0,1,.39-1.59,3.73,3.73,0,0,1,.51-.69,5.59,5.59,0,0,1,.74-.66l.95-.71,1.12-.83a2.7,2.7,0,0,0,.71-.75,1.61,1.61,0,0,0,.23-.83,1.68,1.68,0,0,0-.1-.59,1.33,1.33,0,0,0-.31-.48,1.44,1.44,0,0,0-.47-.3,1.77,1.77,0,0,0-1.31,0,1.46,1.46,0,0,0-.5.38,1.58,1.58,0,0,0-.29.53,2,2,0,0,0-.1.61V144h-1.34v-.15a3.14,3.14,0,0,1,.21-1.15,2.54,2.54,0,0,1,.59-.9,2.71,2.71,0,0,1,.94-.59A3.45,3.45,0,0,1,222.48,141Z"/><path class="cls-5" d="M215.22,172a3,3,0,0,1,2,.7,2.22,2.22,0,0,1,.6.83,2.77,2.77,0,0,1,.19,1.06,2.82,2.82,0,0,1-.46,1.55,5.83,5.83,0,0,1-1.78,1.54q-.5.3-.85.57a6.91,6.91,0,0,0-.58.47,2.8,2.8,0,0,0-.62.81h4.33v1.21H212a3.35,3.35,0,0,1,.39-1.59,3.73,3.73,0,0,1,.51-.69,5.59,5.59,0,0,1,.74-.66l.95-.71,1.12-.83a2.7,2.7,0,0,0,.71-.75,1.61,1.61,0,0,0,.23-.83,1.68,1.68,0,0,0-.1-.59,1.33,1.33,0,0,0-.31-.48,1.44,1.44,0,0,0-.47-.3,1.77,1.77,0,0,0-1.31,0,1.46,1.46,0,0,0-.5.38,1.58,1.58,0,0,0-.29.53,2,2,0,0,0-.1.61V175h-1.34v-.15a3.14,3.14,0,0,1,.21-1.15,2.54,2.54,0,0,1,.59-.9,2.71,2.71,0,0,1,.94-.59A3.45,3.45,0,0,1,215.22,172Z"/><path class="cls-5" d="M222.48,172a3,3,0,0,1,2,.7,2.22,2.22,0,0,1,.6.83,2.77,2.77,0,0,1,.19,1.06,2.82,2.82,0,0,1-.46,1.55,5.83,5.83,0,0,1-1.78,1.54q-.5.3-.85.57a6.91,6.91,0,0,0-.58.47,2.8,2.8,0,0,0-.62.81h4.33v1.21h-6.08a3.35,3.35,0,0,1,.39-1.59,3.73,3.73,0,0,1,.51-.69,5.59,5.59,0,0,1,.74-.66l.95-.71,1.12-.83a2.7,2.7,0,0,0,.71-.75,1.61,1.61,0,0,0,.23-.83,1.68,1.68,0,0,0-.1-.59,1.33,1.33,0,0,0-.31-.48,1.44,1.44,0,0,0-.47-.3,1.77,1.77,0,0,0-1.31,0,1.46,1.46,0,0,0-.5.38,1.58,1.58,0,0,0-.29.53,2,2,0,0,0-.1.61V175h-1.34v-.15a3.14,3.14,0,0,1,.21-1.15,2.54,2.54,0,0,1,.59-.9,2.71,2.71,0,0,1,.94-.59A3.45,3.45,0,0,1,222.48,172Z"/><path class="cls-5" d="M222.36,203a2.66,2.66,0,0,1,2.32,1.13,5.72,5.72,0,0,1,.79,3.3,5.83,5.83,0,0,1-.79,3.35,2.92,2.92,0,0,1-4.62,0,5.81,5.81,0,0,1-.79-3.35,5.74,5.74,0,0,1,.79-3.31A2.64,2.64,0,0,1,222.36,203Zm-1.7,4.44a10.28,10.28,0,0,0,.07,1.25,4.18,4.18,0,0,0,.26,1.06,1.83,1.83,0,0,0,.52.74,1.28,1.28,0,0,0,.85.28,1.31,1.31,0,0,0,1.08-.51,2.12,2.12,0,0,0,.31-.56,4.17,4.17,0,0,0,.2-.69,6.33,6.33,0,0,0,.1-.77q0-.4,0-.8a9.63,9.63,0,0,0-.08-1.27,3.8,3.8,0,0,0-.28-1,1.82,1.82,0,0,0-.53-.71,1.32,1.32,0,0,0-.84-.26,1.29,1.29,0,0,0-.6.13,1.39,1.39,0,0,0-.45.37,2,2,0,0,0-.31.55,4.32,4.32,0,0,0-.19.68,6.52,6.52,0,0,0-.11.76Q220.66,207,220.66,207.39Z"/><rect class="cls-1" x="232.5" y="98.5" width="92" height="31"/><path class="cls-8" d="M324,99v30H233V99h91m1-1H232v32h93V98Z"/><path class="cls-5" d="M285.59,87.69V81.82h-2.2v-1a6,6,0,0,0,.9-.07,2.36,2.36,0,0,0,.63-.18,1.57,1.57,0,0,0,.64-.55,2.21,2.21,0,0,0,.31-.89H287v8.6Z"/><path class="cls-5" d="M293.17,79a3,3,0,0,1,2,.7,2.22,2.22,0,0,1,.6.83,2.77,2.77,0,0,1,.19,1.06,2.82,2.82,0,0,1-.46,1.55,5.83,5.83,0,0,1-1.78,1.54q-.5.3-.85.57a6.91,6.91,0,0,0-.58.47,2.8,2.8,0,0,0-.62.81H296v1.21H290a3.35,3.35,0,0,1,.39-1.59,3.73,3.73,0,0,1,.51-.69,5.59,5.59,0,0,1,.74-.66l.95-.71,1.12-.83a2.7,2.7,0,0,0,.71-.75,1.61,1.61,0,0,0,.23-.83,1.68,1.68,0,0,0-.1-.59,1.33,1.33,0,0,0-.31-.48,1.44,1.44,0,0,0-.47-.3,1.77,1.77,0,0,0-1.31,0,1.46,1.46,0,0,0-.5.38,1.58,1.58,0,0,0-.29.53,2,2,0,0,0-.1.61V82h-1.34v-.15a3.14,3.14,0,0,1,.21-1.15,2.54,2.54,0,0,1,.59-.9,2.71,2.71,0,0,1,.94-.59A3.45,3.45,0,0,1,293.17,79Z"/><path class="cls-5" d="M303.46,85.21a2.37,2.37,0,0,1-.89,1.95,3.88,3.88,0,0,1-4.51,0,2.33,2.33,0,0,1-.88-1.93,2.43,2.43,0,0,1,.11-.76,2.08,2.08,0,0,1,.33-.63,2,2,0,0,1,.52-.47,2.17,2.17,0,0,1,.7-.28v0a1.81,1.81,0,0,1-1-.67,1.92,1.92,0,0,1-.33-1.14,2,2,0,0,1,.81-1.65,3.16,3.16,0,0,1,2-.62,2.91,2.91,0,0,1,2,.67,2,2,0,0,1,.76,1.58,2.14,2.14,0,0,1-.08.61,1.83,1.83,0,0,1-.25.52,1.75,1.75,0,0,1-.41.42,2,2,0,0,1-.57.28v0a2.06,2.06,0,0,1,1.24.75A2.24,2.24,0,0,1,303.46,85.21Zm-1.39,0a1.45,1.45,0,0,0-.48-1.11,1.79,1.79,0,0,0-1.27-.44,1.88,1.88,0,0,0-1.27.42,1.42,1.42,0,0,0-.49,1.13,1.53,1.53,0,0,0,.5,1.18,1.79,1.79,0,0,0,1.27.46,1.74,1.74,0,0,0,1.25-.45A1.53,1.53,0,0,0,302.07,85.17Zm-.26-3.83a1.42,1.42,0,0,0-.11-.56,1,1,0,0,0-.32-.42,1.85,1.85,0,0,0-2.14,0,1.18,1.18,0,0,0-.42.94,1.19,1.19,0,0,0,.41.94,1.85,1.85,0,0,0,2.19,0A1.21,1.21,0,0,0,301.81,81.34Z"/><path class="cls-5" d="M307.57,79a2.66,2.66,0,0,1,2.32,1.13,5.72,5.72,0,0,1,.79,3.3,5.83,5.83,0,0,1-.79,3.35,2.92,2.92,0,0,1-4.62,0,5.81,5.81,0,0,1-.79-3.35,5.74,5.74,0,0,1,.79-3.31A2.64,2.64,0,0,1,307.57,79Zm-1.7,4.44a10.28,10.28,0,0,0,.07,1.25,4.18,4.18,0,0,0,.26,1.06,1.83,1.83,0,0,0,.52.74,1.28,1.28,0,0,0,.85.28,1.31,1.31,0,0,0,1.08-.51,2.12,2.12,0,0,0,.31-.56,4.17,4.17,0,0,0,.2-.69,6.33,6.33,0,0,0,.1-.77q0-.4,0-.8a9.63,9.63,0,0,0-.08-1.27,3.8,3.8,0,0,0-.28-1,1.82,1.82,0,0,0-.53-.71,1.32,1.32,0,0,0-.84-.26,1.29,1.29,0,0,0-.6.13,1.39,1.39,0,0,0-.45.37,2,2,0,0,0-.31.55,4.32,4.32,0,0,0-.19.68,6.52,6.52,0,0,0-.11.76Q305.87,83,305.87,83.39Z"/><path class="cls-5" d="M318,85.21a2.37,2.37,0,0,1-.89,1.95,3.88,3.88,0,0,1-4.51,0,2.33,2.33,0,0,1-.88-1.93,2.43,2.43,0,0,1,.11-.76,2.08,2.08,0,0,1,.33-.63,2,2,0,0,1,.52-.47,2.17,2.17,0,0,1,.7-.28v0a1.81,1.81,0,0,1-1-.67,1.92,1.92,0,0,1-.33-1.14,2,2,0,0,1,.81-1.65,3.16,3.16,0,0,1,2-.62,2.91,2.91,0,0,1,2,.67,2,2,0,0,1,.76,1.58,2.14,2.14,0,0,1-.08.61,1.83,1.83,0,0,1-.25.52,1.75,1.75,0,0,1-.41.42,2,2,0,0,1-.57.28v0a2.06,2.06,0,0,1,1.24.75A2.24,2.24,0,0,1,318,85.21Zm-1.39,0a1.45,1.45,0,0,0-.48-1.11,1.79,1.79,0,0,0-1.27-.44,1.88,1.88,0,0,0-1.27.42,1.42,1.42,0,0,0-.49,1.13,1.53,1.53,0,0,0,.5,1.18,1.79,1.79,0,0,0,1.27.46,1.74,1.74,0,0,0,1.25-.45A1.53,1.53,0,0,0,316.6,85.17Zm-.26-3.83a1.42,1.42,0,0,0-.11-.56,1,1,0,0,0-.32-.42,1.85,1.85,0,0,0-2.14,0,1.18,1.18,0,0,0-.42.94,1.19,1.19,0,0,0,.41.94,1.85,1.85,0,0,0,2.19,0A1.21,1.21,0,0,0,316.34,81.34Z"/><path class="cls-5" d="M310.73,116.21a2.37,2.37,0,0,1-.89,1.95,3.88,3.88,0,0,1-4.51,0,2.33,2.33,0,0,1-.88-1.93,2.43,2.43,0,0,1,.11-.76,2.08,2.08,0,0,1,.33-.63,2,2,0,0,1,.52-.47,2.17,2.17,0,0,1,.7-.28v0a1.81,1.81,0,0,1-1-.67,1.92,1.92,0,0,1-.33-1.14,2,2,0,0,1,.81-1.65,3.16,3.16,0,0,1,2-.62,2.91,2.91,0,0,1,2,.67,2,2,0,0,1,.76,1.58,2.14,2.14,0,0,1-.08.61,1.83,1.83,0,0,1-.25.52,1.75,1.75,0,0,1-.41.42,2,2,0,0,1-.57.28v0a2.06,2.06,0,0,1,1.24.75A2.24,2.24,0,0,1,310.73,116.21Zm-1.39,0a1.45,1.45,0,0,0-.48-1.11,1.79,1.79,0,0,0-1.27-.44,1.88,1.88,0,0,0-1.27.42,1.42,1.42,0,0,0-.49,1.13,1.53,1.53,0,0,0,.5,1.18,1.79,1.79,0,0,0,1.27.46,1.74,1.74,0,0,0,1.25-.45A1.53,1.53,0,0,0,309.33,116.17Zm-.26-3.83a1.42,1.42,0,0,0-.11-.56,1,1,0,0,0-.32-.42,1.85,1.85,0,0,0-2.14,0,1.18,1.18,0,0,0-.42.94,1.19,1.19,0,0,0,.41.94,1.85,1.85,0,0,0,2.19,0A1.21,1.21,0,0,0,309.08,112.34Z"/><path class="cls-5" d="M314.84,110a2.66,2.66,0,0,1,2.32,1.13,5.72,5.72,0,0,1,.79,3.3,5.83,5.83,0,0,1-.79,3.35,2.92,2.92,0,0,1-4.62,0,5.81,5.81,0,0,1-.79-3.35,5.74,5.74,0,0,1,.79-3.31A2.64,2.64,0,0,1,314.84,110Zm-1.7,4.44a10.28,10.28,0,0,0,.07,1.25,4.18,4.18,0,0,0,.26,1.06,1.83,1.83,0,0,0,.52.74,1.28,1.28,0,0,0,.85.28,1.31,1.31,0,0,0,1.08-.51,2.12,2.12,0,0,0,.31-.56,4.17,4.17,0,0,0,.2-.69,6.33,6.33,0,0,0,.1-.77q0-.4,0-.8a9.63,9.63,0,0,0-.08-1.27,3.8,3.8,0,0,0-.28-1,1.82,1.82,0,0,0-.53-.71,1.32,1.32,0,0,0-.84-.26,1.29,1.29,0,0,0-.6.13,1.39,1.39,0,0,0-.45.37,2,2,0,0,0-.31.55,4.32,4.32,0,0,0-.19.68,6.52,6.52,0,0,0-.11.76Q313.14,114,313.14,114.39Z"/><path class="cls-5" d="M296.2,147.21a2.37,2.37,0,0,1-.89,1.95,3.88,3.88,0,0,1-4.51,0,2.33,2.33,0,0,1-.88-1.93,2.43,2.43,0,0,1,.11-.76,2.08,2.08,0,0,1,.33-.63,2,2,0,0,1,.52-.47,2.17,2.17,0,0,1,.7-.28v0a1.81,1.81,0,0,1-1-.67,1.92,1.92,0,0,1-.33-1.14,2,2,0,0,1,.81-1.65,3.16,3.16,0,0,1,2-.62,2.91,2.91,0,0,1,2,.67,2,2,0,0,1,.76,1.58,2.14,2.14,0,0,1-.08.61,1.83,1.83,0,0,1-.25.52,1.75,1.75,0,0,1-.41.42,2,2,0,0,1-.57.28v0a2.06,2.06,0,0,1,1.24.75A2.24,2.24,0,0,1,296.2,147.21Zm-1.39,0a1.45,1.45,0,0,0-.48-1.11,1.79,1.79,0,0,0-1.27-.44,1.88,1.88,0,0,0-1.27.42,1.42,1.42,0,0,0-.49,1.13,1.53,1.53,0,0,0,.5,1.18,1.79,1.79,0,0,0,1.27.46,1.74,1.74,0,0,0,1.25-.45A1.53,1.53,0,0,0,294.8,147.17Zm-.26-3.83a1.42,1.42,0,0,0-.11-.56,1,1,0,0,0-.32-.42,1.85,1.85,0,0,0-2.14,0,1.18,1.18,0,0,0-.42.94,1.19,1.19,0,0,0,.41.94,1.85,1.85,0,0,0,2.19,0A1.21,1.21,0,0,0,294.54,143.34Z"/><path class="cls-5" d="M300.43,141a3,3,0,0,1,2,.7,2.22,2.22,0,0,1,.6.83,2.77,2.77,0,0,1,.19,1.06,2.82,2.82,0,0,1-.46,1.55,5.83,5.83,0,0,1-1.78,1.54q-.5.3-.85.57a6.91,6.91,0,0,0-.58.47,2.8,2.8,0,0,0-.62.81h4.33v1.21h-6.08a3.35,3.35,0,0,1,.39-1.59,3.73,3.73,0,0,1,.51-.69,5.59,5.59,0,0,1,.74-.66l.95-.71,1.12-.83a2.7,2.7,0,0,0,.71-.75,1.61,1.61,0,0,0,.23-.83,1.68,1.68,0,0,0-.1-.59,1.33,1.33,0,0,0-.31-.48,1.44,1.44,0,0,0-.47-.3,1.77,1.77,0,0,0-1.31,0,1.46,1.46,0,0,0-.5.38,1.58,1.58,0,0,0-.29.53,2,2,0,0,0-.1.61V144h-1.34v-.15a3.14,3.14,0,0,1,.21-1.15,2.54,2.54,0,0,1,.59-.9,2.71,2.71,0,0,1,.94-.59A3.45,3.45,0,0,1,300.43,141Z"/><path class="cls-5" d="M307.7,141a3,3,0,0,1,2,.7,2.22,2.22,0,0,1,.6.83,2.77,2.77,0,0,1,.19,1.06,2.82,2.82,0,0,1-.46,1.55,5.83,5.83,0,0,1-1.78,1.54q-.5.3-.85.57a6.91,6.91,0,0,0-.58.47,2.8,2.8,0,0,0-.62.81h4.33v1.21h-6.08a3.35,3.35,0,0,1,.39-1.59,3.73,3.73,0,0,1,.51-.69,5.59,5.59,0,0,1,.74-.66l.95-.71,1.12-.83a2.7,2.7,0,0,0,.71-.75,1.61,1.61,0,0,0,.23-.83,1.68,1.68,0,0,0-.1-.59,1.33,1.33,0,0,0-.31-.48,1.44,1.44,0,0,0-.47-.3,1.77,1.77,0,0,0-1.31,0,1.46,1.46,0,0,0-.5.38,1.58,1.58,0,0,0-.29.53,2,2,0,0,0-.1.61V144h-1.34v-.15a3.14,3.14,0,0,1,.21-1.15,2.54,2.54,0,0,1,.59-.9,2.71,2.71,0,0,1,.94-.59A3.45,3.45,0,0,1,307.7,141Z"/><path class="cls-5" d="M318,147.21a2.37,2.37,0,0,1-.89,1.95,3.88,3.88,0,0,1-4.51,0,2.33,2.33,0,0,1-.88-1.93,2.43,2.43,0,0,1,.11-.76,2.08,2.08,0,0,1,.33-.63,2,2,0,0,1,.52-.47,2.17,2.17,0,0,1,.7-.28v0a1.81,1.81,0,0,1-1-.67,1.92,1.92,0,0,1-.33-1.14,2,2,0,0,1,.81-1.65,3.16,3.16,0,0,1,2-.62,2.91,2.91,0,0,1,2,.67,2,2,0,0,1,.76,1.58,2.14,2.14,0,0,1-.08.61,1.83,1.83,0,0,1-.25.52,1.75,1.75,0,0,1-.41.42,2,2,0,0,1-.57.28v0a2.06,2.06,0,0,1,1.24.75A2.24,2.24,0,0,1,318,147.21Zm-1.39,0a1.45,1.45,0,0,0-.48-1.11,1.79,1.79,0,0,0-1.27-.44,1.88,1.88,0,0,0-1.27.42,1.42,1.42,0,0,0-.49,1.13,1.53,1.53,0,0,0,.5,1.18,1.79,1.79,0,0,0,1.27.46,1.74,1.74,0,0,0,1.25-.45A1.53,1.53,0,0,0,316.6,147.17Zm-.26-3.83a1.42,1.42,0,0,0-.11-.56,1,1,0,0,0-.32-.42,1.85,1.85,0,0,0-2.14,0,1.18,1.18,0,0,0-.42.94,1.19,1.19,0,0,0,.41.94,1.85,1.85,0,0,0,2.19,0A1.21,1.21,0,0,0,316.34,143.34Z"/><path class="cls-5" d="M291.48,178.65v2h-1.31v-2h-3.76v-1.29l3.82-5.27h1.25v5.41h1.2v1.15Zm-1.31-4.82h0l-2.62,3.67h2.65Z"/><path class="cls-5" d="M299.41,172.13v1.18h-3.63l-.42,2.24,0,0a2.3,2.3,0,0,1,.75-.5,2.57,2.57,0,0,1,1-.17,2.81,2.81,0,0,1,1.14.22,2.53,2.53,0,0,1,.86.62,2.71,2.71,0,0,1,.55.93,3.47,3.47,0,0,1,.19,1.17,2.93,2.93,0,0,1-.24,1.17,3,3,0,0,1-.66,1,3.13,3.13,0,0,1-1,.65,3.22,3.22,0,0,1-1.25.24,4.16,4.16,0,0,1-1.15-.15,2.71,2.71,0,0,1-.93-.46,2.33,2.33,0,0,1-.64-.76,2.65,2.65,0,0,1-.28-1.07h1.4a1.51,1.51,0,0,0,.14.5,1.33,1.33,0,0,0,.31.41,1.41,1.41,0,0,0,.48.28,2,2,0,0,0,.65.1,1.67,1.67,0,0,0,.73-.16,1.7,1.7,0,0,0,.55-.42,1.85,1.85,0,0,0,.35-.61,2.17,2.17,0,0,0,.12-.73,2.11,2.11,0,0,0-.12-.7,1.65,1.65,0,0,0-.89-1,1.74,1.74,0,0,0-.74-.15,1.76,1.76,0,0,0-1.52.76h-1.24l.84-4.6Z"/><path class="cls-5" d="M304.21,172a3,3,0,0,1,2,.7,2.22,2.22,0,0,1,.6.83,2.77,2.77,0,0,1,.19,1.06,2.82,2.82,0,0,1-.46,1.55,5.83,5.83,0,0,1-1.78,1.54q-.5.3-.85.57a6.91,6.91,0,0,0-.58.47,2.8,2.8,0,0,0-.62.81h4.33v1.21H301a3.35,3.35,0,0,1,.39-1.59,3.73,3.73,0,0,1,.51-.69,5.59,5.59,0,0,1,.74-.66l.95-.71,1.12-.83a2.7,2.7,0,0,0,.71-.75,1.61,1.61,0,0,0,.23-.83,1.68,1.68,0,0,0-.1-.59,1.33,1.33,0,0,0-.31-.48,1.44,1.44,0,0,0-.47-.3,1.77,1.77,0,0,0-1.31,0,1.46,1.46,0,0,0-.5.38,1.58,1.58,0,0,0-.29.53,2,2,0,0,0-.1.61V175h-1.34v-.15a3.14,3.14,0,0,1,.21-1.15,2.54,2.54,0,0,1,.59-.9,2.71,2.71,0,0,1,.94-.59A3.45,3.45,0,0,1,304.21,172Z"/><path class="cls-5" d="M314.5,178.21a2.37,2.37,0,0,1-.89,1.95,3.88,3.88,0,0,1-4.51,0,2.33,2.33,0,0,1-.88-1.93,2.43,2.43,0,0,1,.11-.76,2.08,2.08,0,0,1,.33-.63,2,2,0,0,1,.52-.47,2.17,2.17,0,0,1,.7-.28v0a1.81,1.81,0,0,1-1-.67,1.92,1.92,0,0,1-.33-1.14,2,2,0,0,1,.81-1.65,3.16,3.16,0,0,1,2-.62,2.91,2.91,0,0,1,2,.67,2,2,0,0,1,.76,1.58,2.14,2.14,0,0,1-.08.61,1.83,1.83,0,0,1-.25.52,1.75,1.75,0,0,1-.41.42,2,2,0,0,1-.57.28v0a2.06,2.06,0,0,1,1.24.75A2.24,2.24,0,0,1,314.5,178.21Zm-1.39,0a1.45,1.45,0,0,0-.48-1.11,1.79,1.79,0,0,0-1.27-.44,1.88,1.88,0,0,0-1.27.42,1.42,1.42,0,0,0-.49,1.13,1.53,1.53,0,0,0,.5,1.18,1.79,1.79,0,0,0,1.27.46,1.74,1.74,0,0,0,1.25-.45A1.53,1.53,0,0,0,313.11,178.17Zm-.26-3.83a1.42,1.42,0,0,0-.11-.56,1,1,0,0,0-.32-.42,1.85,1.85,0,0,0-2.14,0,1.18,1.18,0,0,0-.42.94,1.19,1.19,0,0,0,.41.94,1.85,1.85,0,0,0,2.19,0A1.21,1.21,0,0,0,312.85,174.34Z"/><path class="cls-5" d="M293.17,203a3,3,0,0,1,2,.7,2.22,2.22,0,0,1,.6.83,2.77,2.77,0,0,1,.19,1.06,2.82,2.82,0,0,1-.46,1.55,5.83,5.83,0,0,1-1.78,1.54q-.5.3-.85.57a6.91,6.91,0,0,0-.58.47,2.8,2.8,0,0,0-.62.81H296v1.21H290a3.35,3.35,0,0,1,.39-1.59,3.73,3.73,0,0,1,.51-.69,5.59,5.59,0,0,1,.74-.66l.95-.71,1.12-.83a2.7,2.7,0,0,0,.71-.75,1.61,1.61,0,0,0,.23-.83,1.68,1.68,0,0,0-.1-.59,1.33,1.33,0,0,0-.31-.48,1.44,1.44,0,0,0-.47-.3,1.77,1.77,0,0,0-1.31,0,1.46,1.46,0,0,0-.5.38,1.58,1.58,0,0,0-.29.53,2,2,0,0,0-.1.61V206h-1.34v-.15a3.14,3.14,0,0,1,.21-1.15,2.54,2.54,0,0,1,.59-.9,2.71,2.71,0,0,1,.94-.59A3.45,3.45,0,0,1,293.17,203Z"/><path class="cls-5" d="M300.32,203a3.64,3.64,0,0,1,1,.15,2.72,2.72,0,0,1,.88.44,2.18,2.18,0,0,1,.62.72,2.1,2.1,0,0,1,.23,1,2.16,2.16,0,0,1-.08.62,1.83,1.83,0,0,1-.25.52,1.63,1.63,0,0,1-.4.41,1.88,1.88,0,0,1-.56.27v0a1.93,1.93,0,0,1,1.2.71,2.07,2.07,0,0,1,.42,1.3,2.5,2.5,0,0,1-.89,2,3.31,3.31,0,0,1-2.23.76,3.84,3.84,0,0,1-1.17-.18,2.94,2.94,0,0,1-1-.52,2.49,2.49,0,0,1-.67-.84,2.55,2.55,0,0,1-.25-1.14v-.13h1.34v.13a1.45,1.45,0,0,0,.49,1.11,1.58,1.58,0,0,0,.52.3,1.91,1.91,0,0,0,.64.11,1.81,1.81,0,0,0,1.28-.44,1.45,1.45,0,0,0,.47-1.11,1.34,1.34,0,0,0-.45-1.09,2.2,2.2,0,0,0-1.46-.39h-.35v-1h.43a1.86,1.86,0,0,0,1.2-.35,1.1,1.1,0,0,0,.4-.9,1.39,1.39,0,0,0-.11-.58,1.12,1.12,0,0,0-.31-.41,1.34,1.34,0,0,0-.46-.24,2,2,0,0,0-.57-.08,1.7,1.7,0,0,0-.6.1,1.41,1.41,0,0,0-.48.3,1.44,1.44,0,0,0-.33.47,1.62,1.62,0,0,0-.13.64H297.4a2.81,2.81,0,0,1,.23-1,2.55,2.55,0,0,1,.59-.84,2.75,2.75,0,0,1,.91-.56A3.27,3.27,0,0,1,300.32,203Z"/><path class="cls-5" d="M309.5,209.65v2h-1.31v-2h-3.76v-1.29l3.82-5.27h1.25v5.41h1.2v1.15Zm-1.31-4.82h0l-2.62,3.67h2.65Z"/><path class="cls-5" d="M317.43,203.13v1.18H313.8l-.42,2.24,0,0a2.3,2.3,0,0,1,.75-.5,2.57,2.57,0,0,1,1-.17,2.81,2.81,0,0,1,1.14.22,2.53,2.53,0,0,1,.86.62,2.71,2.71,0,0,1,.55.93,3.47,3.47,0,0,1,.19,1.17,2.93,2.93,0,0,1-.24,1.17,3,3,0,0,1-.66,1,3.13,3.13,0,0,1-1,.65,3.22,3.22,0,0,1-1.25.24,4.16,4.16,0,0,1-1.15-.15,2.71,2.71,0,0,1-.93-.46,2.33,2.33,0,0,1-.64-.76,2.65,2.65,0,0,1-.28-1.07h1.4a1.51,1.51,0,0,0,.14.5,1.33,1.33,0,0,0,.31.41,1.41,1.41,0,0,0,.48.28,2,2,0,0,0,.65.1,1.67,1.67,0,0,0,.73-.16,1.7,1.7,0,0,0,.55-.42,1.85,1.85,0,0,0,.35-.61,2.17,2.17,0,0,0,.12-.73,2.11,2.11,0,0,0-.12-.7,1.65,1.65,0,0,0-.89-1,1.74,1.74,0,0,0-.74-.15,1.76,1.76,0,0,0-1.52.76H312l.84-4.6Z"/><path class="cls-5" d="M363.16,31.29l-2.95-2.95,1.84-1.84L365,29.45Zm-4.05-1.84-6.63,6.63L351,40.5,355.42,39l6.63-6.63Z"/></g></svg>