<svg xmlns="http://www.w3.org/2000/svg" viewBox="0 0 555 220"><defs><style>.cls-1,.cls-6{fill:#fff;}.cls-2{opacity:0.04;}.cls-3{fill:#dcdcdc;}.cls-4{fill:#464646;}.cls-5{fill:#444;}.cls-6{opacity:0.09;}.cls-7{fill:#21be89;}.cls-8{fill:#049669;}.cls-9{fill:none;stroke:#c8c8c8;stroke-miterlimit:10;}.cls-10{fill:#ff7300;}.cls-11{fill:#f03040;}</style></defs><title>Artboard 44</title><g id="Bg"><rect class="cls-1" x="-4702" y="-1555" width="6000" height="2500"/></g><g id="Tabeller"><rect class="cls-2" x="106.5" y="140.5" width="43" height="31"/><path class="cls-3" d="M149,141v30H107V141h42m1-1H106v32h44V140Z"/><rect class="cls-2" x="106.5" y="109.5" width="43" height="31"/><path class="cls-3" d="M149,110v30H107V110h42m1-1H106v32h44V109Z"/><rect class="cls-2" x="106.5" y="78.5" width="43" height="31"/><path class="cls-3" d="M149,79v30H107V79h42m1-1H106v32h44V78Z"/><rect class="cls-2" x="106.5" y="47.5" width="43" height="31"/><path class="cls-3" d="M149,48V78H107V48h42m1-1H106V79h44V47Z"/><rect class="cls-2" x="149.5" y="140.5" width="43" height="31"/><path class="cls-3" d="M192,141v30H150V141h42m1-1H149v32h44V140Z"/><rect class="cls-2" x="149.5" y="109.5" width="43" height="31"/><path class="cls-3" d="M192,110v30H150V110h42m1-1H149v32h44V109Z"/><rect class="cls-2" x="149.5" y="78.5" width="43" height="31"/><path class="cls-3" d="M192,79v30H150V79h42m1-1H149v32h44V78Z"/><rect class="cls-2" x="149.5" y="47.5" width="43" height="31"/><path class="cls-3" d="M192,48V78H150V48h42m1-1H149V79h44V47Z"/><path class="cls-4" d="M33.39,18.9V20H31.12V26H29.87V20H27.61V18.9Z"/><path class="cls-4" d="M35.65,18.91v2.87H39V18.91h1.24V26H39V22.82H35.65V26H34.4V18.91Z"/><path class="cls-4" d="M43.22,18.9v4.48a1.9,1.9,0,0,0,.41,1.33,1.68,1.68,0,0,0,1.29.44,1.73,1.73,0,0,0,1.29-.42,1.86,1.86,0,0,0,.41-1.34V18.9h1.25v4.53a2.74,2.74,0,0,1-.75,2,3,3,0,0,1-2.2.75A4,4,0,0,1,43.65,26a2.35,2.35,0,0,1-1-.59,2.32,2.32,0,0,1-.54-.87A3.37,3.37,0,0,1,42,23.43V18.9Z"/><path class="cls-4" d="M30.52,30.75a2.22,2.22,0,0,1,1.93.94,4.77,4.77,0,0,1,.66,2.75,4.87,4.87,0,0,1-.66,2.79,2.44,2.44,0,0,1-3.85,0,4.84,4.84,0,0,1-.66-2.79,4.79,4.79,0,0,1,.66-2.76A2.2,2.2,0,0,1,30.52,30.75Zm-1.42,3.7a8.51,8.51,0,0,0,.06,1,3.45,3.45,0,0,0,.22.89,1.53,1.53,0,0,0,.43.62,1.07,1.07,0,0,0,.71.23,1.14,1.14,0,0,0,.52-.11,1.16,1.16,0,0,0,.38-.31,1.78,1.78,0,0,0,.26-.47,3.52,3.52,0,0,0,.16-.57,5.47,5.47,0,0,0,.08-.64q0-.33,0-.66a8,8,0,0,0-.07-1.06,3.17,3.17,0,0,0-.23-.87,1.52,1.52,0,0,0-.44-.59,1.1,1.1,0,0,0-.7-.22,1.08,1.08,0,0,0-.5.11,1.16,1.16,0,0,0-.37.31,1.66,1.66,0,0,0-.26.46,3.45,3.45,0,0,0-.16.57,5.27,5.27,0,0,0-.09.63Q29.1,34.12,29.1,34.45Z"/><path class="cls-4" d="M39.34,36a2,2,0,0,1-.74,1.62,2.87,2.87,0,0,1-1.87.6,2.9,2.9,0,0,1-1.89-.6A2,2,0,0,1,34.1,36a2,2,0,0,1,.1-.63,1.73,1.73,0,0,1,.27-.52,1.69,1.69,0,0,1,.43-.4,1.8,1.8,0,0,1,.58-.24v0a1.51,1.51,0,0,1-.82-.56,1.6,1.6,0,0,1-.28-.95,1.66,1.66,0,0,1,.68-1.38,2.63,2.63,0,0,1,1.65-.52,2.43,2.43,0,0,1,1.68.56A1.7,1.7,0,0,1,39,32.63a1.8,1.8,0,0,1-.07.51,1.52,1.52,0,0,1-.21.44,1.46,1.46,0,0,1-.34.35,1.66,1.66,0,0,1-.47.24v0a1.71,1.71,0,0,1,1,.63A1.87,1.87,0,0,1,39.34,36Zm-1.16,0a1.21,1.21,0,0,0-.4-.93,1.49,1.49,0,0,0-1.05-.37,1.57,1.57,0,0,0-1.05.35,1.19,1.19,0,0,0-.41.94,1.27,1.27,0,0,0,.42,1,1.49,1.49,0,0,0,1.05.38,1.44,1.44,0,0,0,1-.37A1.27,1.27,0,0,0,38.18,35.93ZM38,32.74a1.18,1.18,0,0,0-.09-.47.86.86,0,0,0-.27-.35,1.54,1.54,0,0,0-1.79,0,1,1,0,0,0-.35.78,1,1,0,0,0,.34.79,1.54,1.54,0,0,0,1.82,0A1,1,0,0,0,38,32.74Z"/><path class="cls-4" d="M40.63,38.2h-.92l2.9-7.47h.91Z"/><path class="cls-4" d="M46.48,30.76a2.45,2.45,0,0,1,1.69.59,1.84,1.84,0,0,1,.5.69,2.31,2.31,0,0,1,.16.88,2.35,2.35,0,0,1-.38,1.29A4.87,4.87,0,0,1,47,35.49q-.41.25-.71.47a5.64,5.64,0,0,0-.48.39,2.33,2.33,0,0,0-.52.68h3.61v1H43.8a2.8,2.8,0,0,1,.33-1.32,3.09,3.09,0,0,1,.42-.57,4.66,4.66,0,0,1,.62-.55L46,35l.93-.69a2.25,2.25,0,0,0,.59-.63,1.34,1.34,0,0,0,.19-.69,1.4,1.4,0,0,0-.08-.5,1.12,1.12,0,0,0-.26-.4,1.19,1.19,0,0,0-.39-.25,1.47,1.47,0,0,0-1.09,0,1.19,1.19,0,0,0-.41.32,1.3,1.3,0,0,0-.24.44,1.64,1.64,0,0,0-.08.51v.12H44v-.12a2.6,2.6,0,0,1,.17-1,2.12,2.12,0,0,1,.49-.75,2.26,2.26,0,0,1,.78-.49A2.88,2.88,0,0,1,46.48,30.76Z"/><path class="cls-4" d="M52.47,30.75a2.22,2.22,0,0,1,1.93.94,4.76,4.76,0,0,1,.66,2.75,4.86,4.86,0,0,1-.66,2.79,2.44,2.44,0,0,1-3.85,0,4.84,4.84,0,0,1-.66-2.79,4.79,4.79,0,0,1,.66-2.76A2.2,2.2,0,0,1,52.47,30.75Zm-1.42,3.7a8.51,8.51,0,0,0,.06,1,3.49,3.49,0,0,0,.22.89,1.54,1.54,0,0,0,.43.62,1.07,1.07,0,0,0,.71.23,1.09,1.09,0,0,0,.9-.42,1.78,1.78,0,0,0,.26-.47,3.52,3.52,0,0,0,.16-.57,5.27,5.27,0,0,0,.08-.64q0-.33,0-.66a8,8,0,0,0-.07-1.06,3.13,3.13,0,0,0-.23-.87,1.52,1.52,0,0,0-.44-.59,1.1,1.1,0,0,0-.7-.22,1.08,1.08,0,0,0-.5.11,1.17,1.17,0,0,0-.37.31,1.69,1.69,0,0,0-.26.46,3.55,3.55,0,0,0-.16.57,5.27,5.27,0,0,0-.09.63C51.07,34,51.06,34.23,51.06,34.45Z"/><path class="cls-4" d="M77.2,18.9V20H73.6v2h3.14v1H73.6V26H72.35V18.9Z"/><path class="cls-4" d="M84,20.83a1.91,1.91,0,0,1-.42,1.28,1.48,1.48,0,0,1-.35.31,2.09,2.09,0,0,1-.46.21v0a1.39,1.39,0,0,1,.49.21,1.16,1.16,0,0,1,.33.35,1.63,1.63,0,0,1,.21.52,4.45,4.45,0,0,1,.08.57c0,.2,0,.4,0,.61a4,4,0,0,0,.08.62,1.38,1.38,0,0,0,.2.52H83a3.67,3.67,0,0,1-.19-1.12,2.66,2.66,0,0,0-.38-1.47,1.13,1.13,0,0,0-.88-.34h-2V26H78.28V18.9H82a2.13,2.13,0,0,1,1.48.53A1.8,1.8,0,0,1,84,20.83Zm-1.25.2a1.09,1.09,0,0,0-.32-.86,1.3,1.3,0,0,0-.89-.28H79.53v2.29h2.05a1.27,1.27,0,0,0,.85-.27A1.08,1.08,0,0,0,82.79,21Z"/><path class="cls-4" d="M86.87,18.9V26H85.62V18.9Z"/><path class="cls-4" d="M74.52,30.75a2.22,2.22,0,0,1,1.93.94,4.77,4.77,0,0,1,.66,2.75,4.87,4.87,0,0,1-.66,2.79,2.44,2.44,0,0,1-3.85,0,4.84,4.84,0,0,1-.66-2.79,4.79,4.79,0,0,1,.66-2.76A2.2,2.2,0,0,1,74.52,30.75Zm-1.42,3.7a8.51,8.51,0,0,0,.06,1,3.45,3.45,0,0,0,.22.89,1.53,1.53,0,0,0,.43.62,1.07,1.07,0,0,0,.71.23,1.14,1.14,0,0,0,.52-.11,1.16,1.16,0,0,0,.38-.31,1.78,1.78,0,0,0,.26-.47,3.52,3.52,0,0,0,.16-.57,5.47,5.47,0,0,0,.08-.64q0-.33,0-.66a8,8,0,0,0-.07-1.06,3.17,3.17,0,0,0-.23-.87,1.52,1.52,0,0,0-.44-.59,1.1,1.1,0,0,0-.7-.22,1.08,1.08,0,0,0-.5.11,1.16,1.16,0,0,0-.37.31,1.66,1.66,0,0,0-.26.46,3.45,3.45,0,0,0-.16.57,5.27,5.27,0,0,0-.09.63Q73.1,34.12,73.1,34.45Z"/><path class="cls-4" d="M83.34,36a2,2,0,0,1-.74,1.62,2.87,2.87,0,0,1-1.87.6,2.9,2.9,0,0,1-1.89-.6A2,2,0,0,1,78.1,36a2,2,0,0,1,.1-.63,1.73,1.73,0,0,1,.27-.52,1.69,1.69,0,0,1,.43-.4,1.8,1.8,0,0,1,.58-.24v0a1.51,1.51,0,0,1-.82-.56,1.6,1.6,0,0,1-.28-.95,1.66,1.66,0,0,1,.68-1.38,2.63,2.63,0,0,1,1.65-.52,2.43,2.43,0,0,1,1.68.56A1.7,1.7,0,0,1,83,32.63a1.8,1.8,0,0,1-.07.51,1.52,1.52,0,0,1-.21.44,1.46,1.46,0,0,1-.34.35,1.66,1.66,0,0,1-.47.24v0a1.71,1.71,0,0,1,1,.63A1.87,1.87,0,0,1,83.34,36Zm-1.16,0a1.21,1.21,0,0,0-.4-.93,1.49,1.49,0,0,0-1.05-.37,1.57,1.57,0,0,0-1.05.35,1.19,1.19,0,0,0-.41.94,1.27,1.27,0,0,0,.42,1,1.49,1.49,0,0,0,1.05.38,1.44,1.44,0,0,0,1-.37A1.27,1.27,0,0,0,82.18,35.93ZM82,32.74a1.18,1.18,0,0,0-.09-.47.86.86,0,0,0-.27-.35,1.54,1.54,0,0,0-1.79,0,1,1,0,0,0-.35.78,1,1,0,0,0,.34.79,1.54,1.54,0,0,0,1.82,0A1,1,0,0,0,82,32.74Z"/><path class="cls-4" d="M84.63,38.2h-.92l2.9-7.47h.91Z"/><path class="cls-4" d="M90.48,30.76a2.45,2.45,0,0,1,1.69.59,1.84,1.84,0,0,1,.5.69,2.31,2.31,0,0,1,.16.88,2.35,2.35,0,0,1-.38,1.29A4.87,4.87,0,0,1,91,35.49q-.41.25-.71.47a5.64,5.64,0,0,0-.48.39,2.33,2.33,0,0,0-.52.68h3.61v1H87.8a2.8,2.8,0,0,1,.33-1.32,3.09,3.09,0,0,1,.42-.57,4.66,4.66,0,0,1,.62-.55L90,35l.93-.69a2.25,2.25,0,0,0,.59-.63,1.34,1.34,0,0,0,.19-.69,1.4,1.4,0,0,0-.08-.5,1.12,1.12,0,0,0-.26-.4,1.19,1.19,0,0,0-.39-.25,1.47,1.47,0,0,0-1.09,0,1.19,1.19,0,0,0-.41.32,1.3,1.3,0,0,0-.24.44,1.64,1.64,0,0,0-.08.51v.12H88v-.12a2.6,2.6,0,0,1,.17-1,2.12,2.12,0,0,1,.49-.75,2.26,2.26,0,0,1,.78-.49A2.88,2.88,0,0,1,90.48,30.76Z"/><path class="cls-4" d="M96,38V33.14H94.18v-.87a4.93,4.93,0,0,0,.75-.06,2,2,0,0,0,.52-.15,1.31,1.31,0,0,0,.53-.46,1.84,1.84,0,0,0,.26-.74h.93V38Z"/><path class="cls-4" d="M119.7,24a2,2,0,0,1-.24,1,2,2,0,0,1-.65.68,2.92,2.92,0,0,1-.94.39,4.91,4.91,0,0,1-1.12.13,4.32,4.32,0,0,1-1.14-.14,2.79,2.79,0,0,1-.92-.43,2.06,2.06,0,0,1-.62-.7,2,2,0,0,1-.22-1v-.08h1.23v0a1.11,1.11,0,0,0,.14.56,1.16,1.16,0,0,0,.38.4,1.75,1.75,0,0,0,.56.24,3,3,0,0,0,1.32,0,1.69,1.69,0,0,0,.52-.21,1.1,1.1,0,0,0,.35-.34.89.89,0,0,0,.13-.48.77.77,0,0,0-.31-.63,2.7,2.7,0,0,0-1-.42l-1.53-.4a2.36,2.36,0,0,1-1.2-.65,1.67,1.67,0,0,1-.39-1.16,1.87,1.87,0,0,1,.21-.91,2,2,0,0,1,.58-.66,2.66,2.66,0,0,1,.86-.4,3.82,3.82,0,0,1,1-.14,3.9,3.9,0,0,1,1,.12,2.69,2.69,0,0,1,.85.38,2,2,0,0,1,.59.64,1.89,1.89,0,0,1,.23.91h-1.22a1,1,0,0,0-.13-.43,1.07,1.07,0,0,0-.3-.34,1.53,1.53,0,0,0-.46-.22,2.09,2.09,0,0,0-.59-.08,2.46,2.46,0,0,0-.55.06,1.43,1.43,0,0,0-.46.19,1,1,0,0,0-.31.32.87.87,0,0,0-.12.46.83.83,0,0,0,.06.33.68.68,0,0,0,.17.23.9.9,0,0,0,.26.16l.34.11,1.68.44a3.09,3.09,0,0,1,1.42.72A1.69,1.69,0,0,1,119.7,24Z"/><path class="cls-4" d="M125.67,26l-.62-1.82h-3L121.47,26h-1.27l2.57-7.13h1.69L127,26Zm-2.07-6.21h0l-1.17,3.44h2.33Z"/><path class="cls-4" d="M132.36,18.9V20h-2.27V26h-1.25V20h-2.27V18.9Z"/><path class="cls-4" d="M116.51,30.75a2.22,2.22,0,0,1,1.93.94,4.77,4.77,0,0,1,.66,2.75,4.87,4.87,0,0,1-.66,2.79,2.44,2.44,0,0,1-3.85,0,4.84,4.84,0,0,1-.66-2.79,4.79,4.79,0,0,1,.66-2.76A2.2,2.2,0,0,1,116.51,30.75Zm-1.42,3.7a8.51,8.51,0,0,0,.06,1,3.45,3.45,0,0,0,.22.89,1.53,1.53,0,0,0,.43.62,1.07,1.07,0,0,0,.71.23,1.14,1.14,0,0,0,.52-.11,1.16,1.16,0,0,0,.38-.31,1.78,1.78,0,0,0,.26-.47,3.52,3.52,0,0,0,.16-.57,5.47,5.47,0,0,0,.08-.64q0-.33,0-.66a8,8,0,0,0-.07-1.06,3.17,3.17,0,0,0-.23-.87,1.52,1.52,0,0,0-.44-.59,1.1,1.1,0,0,0-.7-.22,1.08,1.08,0,0,0-.5.11,1.16,1.16,0,0,0-.37.31,1.66,1.66,0,0,0-.26.46,3.45,3.45,0,0,0-.16.57,5.27,5.27,0,0,0-.09.63Q115.1,34.12,115.1,34.45Z"/><path class="cls-4" d="M125.33,36a2,2,0,0,1-.74,1.62,2.87,2.87,0,0,1-1.87.6,2.9,2.9,0,0,1-1.89-.6A2,2,0,0,1,120.1,36a2,2,0,0,1,.1-.63,1.73,1.73,0,0,1,.27-.52,1.69,1.69,0,0,1,.43-.4,1.8,1.8,0,0,1,.58-.24v0a1.51,1.51,0,0,1-.82-.56,1.6,1.6,0,0,1-.28-.95,1.66,1.66,0,0,1,.68-1.38,2.63,2.63,0,0,1,1.65-.52,2.43,2.43,0,0,1,1.68.56,1.7,1.7,0,0,1,.63,1.31,1.8,1.8,0,0,1-.07.51,1.52,1.52,0,0,1-.21.44,1.46,1.46,0,0,1-.34.35,1.66,1.66,0,0,1-.47.24v0a1.71,1.71,0,0,1,1,.63A1.87,1.87,0,0,1,125.33,36Zm-1.16,0a1.21,1.21,0,0,0-.4-.93,1.49,1.49,0,0,0-1.05-.37,1.57,1.57,0,0,0-1.05.35,1.19,1.19,0,0,0-.41.94,1.27,1.27,0,0,0,.42,1,1.49,1.49,0,0,0,1.05.38,1.44,1.44,0,0,0,1-.37A1.27,1.27,0,0,0,124.17,35.93ZM124,32.74a1.18,1.18,0,0,0-.09-.47.86.86,0,0,0-.27-.35,1.54,1.54,0,0,0-1.79,0,1,1,0,0,0-.35.78,1,1,0,0,0,.34.79,1.54,1.54,0,0,0,1.82,0A1,1,0,0,0,124,32.74Z"/><path class="cls-4" d="M126.63,38.2h-.92l2.9-7.47h.91Z"/><path class="cls-4" d="M132.47,30.76a2.45,2.45,0,0,1,1.69.59,1.84,1.84,0,0,1,.5.69,2.31,2.31,0,0,1,.16.88,2.35,2.35,0,0,1-.38,1.29A4.87,4.87,0,0,1,133,35.49q-.41.25-.71.47a5.64,5.64,0,0,0-.48.39,2.33,2.33,0,0,0-.52.68h3.61v1H129.8a2.8,2.8,0,0,1,.33-1.32,3.09,3.09,0,0,1,.42-.57,4.66,4.66,0,0,1,.62-.55L132,35l.93-.69a2.25,2.25,0,0,0,.59-.63,1.34,1.34,0,0,0,.19-.69,1.4,1.4,0,0,0-.08-.5,1.12,1.12,0,0,0-.26-.4,1.19,1.19,0,0,0-.39-.25,1.47,1.47,0,0,0-1.09,0,1.19,1.19,0,0,0-.41.32,1.3,1.3,0,0,0-.24.44,1.64,1.64,0,0,0-.08.51v.12H130v-.12a2.6,2.6,0,0,1,.17-1,2.12,2.12,0,0,1,.49-.75,2.26,2.26,0,0,1,.78-.49A2.88,2.88,0,0,1,132.47,30.76Z"/><path class="cls-4" d="M138.57,30.76a2.45,2.45,0,0,1,1.69.59,1.84,1.84,0,0,1,.5.69,2.31,2.31,0,0,1,.16.88,2.35,2.35,0,0,1-.38,1.29,4.87,4.87,0,0,1-1.48,1.28q-.41.25-.71.47a5.64,5.64,0,0,0-.48.39,2.35,2.35,0,0,0-.52.68H141v1H135.9a2.81,2.81,0,0,1,.33-1.32,3.14,3.14,0,0,1,.42-.57,4.66,4.66,0,0,1,.62-.55l.79-.59.93-.69a2.25,2.25,0,0,0,.59-.63,1.34,1.34,0,0,0,.19-.69,1.4,1.4,0,0,0-.08-.5,1.12,1.12,0,0,0-.26-.4,1.19,1.19,0,0,0-.39-.25,1.47,1.47,0,0,0-1.09,0,1.19,1.19,0,0,0-.41.32,1.3,1.3,0,0,0-.24.44,1.64,1.64,0,0,0-.08.51v.12h-1.11v-.12a2.62,2.62,0,0,1,.17-1,2.12,2.12,0,0,1,.49-.75,2.26,2.26,0,0,1,.78-.49A2.88,2.88,0,0,1,138.57,30.76Z"/><path class="cls-4" d="M162.74,24a2,2,0,0,1-.24,1,2,2,0,0,1-.65.68,2.92,2.92,0,0,1-.94.39,4.91,4.91,0,0,1-1.12.13,4.32,4.32,0,0,1-1.14-.14,2.79,2.79,0,0,1-.92-.43,2.06,2.06,0,0,1-.62-.7,2,2,0,0,1-.22-1v-.08h1.23v0a1.11,1.11,0,0,0,.14.56,1.16,1.16,0,0,0,.38.4,1.75,1.75,0,0,0,.56.24,3,3,0,0,0,1.32,0,1.69,1.69,0,0,0,.52-.21,1.1,1.1,0,0,0,.35-.34.89.89,0,0,0,.13-.48.77.77,0,0,0-.31-.63,2.7,2.7,0,0,0-1-.42l-1.53-.4a2.36,2.36,0,0,1-1.2-.65,1.67,1.67,0,0,1-.39-1.16,1.87,1.87,0,0,1,.21-.91,2,2,0,0,1,.58-.66,2.66,2.66,0,0,1,.86-.4,3.82,3.82,0,0,1,1-.14,3.9,3.9,0,0,1,1,.12,2.69,2.69,0,0,1,.85.38,2,2,0,0,1,.59.64,1.89,1.89,0,0,1,.23.91h-1.22a1,1,0,0,0-.13-.43,1.07,1.07,0,0,0-.3-.34,1.53,1.53,0,0,0-.46-.22,2.09,2.09,0,0,0-.59-.08,2.46,2.46,0,0,0-.55.06,1.43,1.43,0,0,0-.46.19,1,1,0,0,0-.31.32.87.87,0,0,0-.12.46.83.83,0,0,0,.06.33.68.68,0,0,0,.17.23.9.9,0,0,0,.26.16l.34.11,1.68.44a3.09,3.09,0,0,1,1.42.72A1.69,1.69,0,0,1,162.74,24Z"/><path class="cls-4" d="M165.2,18.9v4.48a1.9,1.9,0,0,0,.41,1.33,1.68,1.68,0,0,0,1.29.44,1.73,1.73,0,0,0,1.29-.42,1.86,1.86,0,0,0,.41-1.34V18.9h1.25v4.53a2.74,2.74,0,0,1-.75,2,3,3,0,0,1-2.2.75,4,4,0,0,1-1.27-.19,2.34,2.34,0,0,1-1.5-1.46,3.35,3.35,0,0,1-.18-1.13V18.9Z"/><path class="cls-4" d="M172.82,18.9l3.4,5.3h0V18.9h1.19V26h-1.27l-3.4-5.3h0V26h-1.19V18.9Z"/><path class="cls-4" d="M159.55,30.75a2.22,2.22,0,0,1,1.93.94,4.77,4.77,0,0,1,.66,2.75,4.87,4.87,0,0,1-.66,2.79,2.44,2.44,0,0,1-3.85,0,4.84,4.84,0,0,1-.66-2.79,4.79,4.79,0,0,1,.66-2.76A2.2,2.2,0,0,1,159.55,30.75Zm-1.42,3.7a8.51,8.51,0,0,0,.06,1,3.45,3.45,0,0,0,.22.89,1.53,1.53,0,0,0,.43.62,1.07,1.07,0,0,0,.71.23,1.14,1.14,0,0,0,.52-.11,1.16,1.16,0,0,0,.38-.31,1.78,1.78,0,0,0,.26-.47,3.52,3.52,0,0,0,.16-.57,5.47,5.47,0,0,0,.08-.64q0-.33,0-.66a8,8,0,0,0-.07-1.06,3.17,3.17,0,0,0-.23-.87,1.52,1.52,0,0,0-.44-.59,1.1,1.1,0,0,0-.7-.22,1.08,1.08,0,0,0-.5.11,1.16,1.16,0,0,0-.37.31,1.66,1.66,0,0,0-.26.46,3.45,3.45,0,0,0-.16.57,5.27,5.27,0,0,0-.09.63Q158.14,34.12,158.14,34.45Z"/><path class="cls-4" d="M168.38,36a2,2,0,0,1-.74,1.62,2.87,2.87,0,0,1-1.87.6,2.9,2.9,0,0,1-1.89-.6,2,2,0,0,1-.74-1.61,2,2,0,0,1,.1-.63,1.73,1.73,0,0,1,.27-.52,1.69,1.69,0,0,1,.43-.4,1.8,1.8,0,0,1,.58-.24v0a1.51,1.51,0,0,1-.82-.56,1.6,1.6,0,0,1-.28-.95,1.66,1.66,0,0,1,.68-1.38,2.63,2.63,0,0,1,1.65-.52,2.43,2.43,0,0,1,1.68.56,1.7,1.7,0,0,1,.63,1.31,1.8,1.8,0,0,1-.07.51,1.52,1.52,0,0,1-.21.44,1.46,1.46,0,0,1-.34.35,1.66,1.66,0,0,1-.47.24v0a1.71,1.71,0,0,1,1,.63A1.87,1.87,0,0,1,168.38,36Zm-1.16,0a1.21,1.21,0,0,0-.4-.93,1.49,1.49,0,0,0-1.05-.37,1.57,1.57,0,0,0-1.05.35,1.19,1.19,0,0,0-.41.94,1.27,1.27,0,0,0,.42,1,1.49,1.49,0,0,0,1.05.38,1.44,1.44,0,0,0,1-.37A1.27,1.27,0,0,0,167.21,35.93ZM167,32.74a1.18,1.18,0,0,0-.09-.47.86.86,0,0,0-.27-.35,1.54,1.54,0,0,0-1.79,0,1,1,0,0,0-.35.78,1,1,0,0,0,.34.79,1.54,1.54,0,0,0,1.82,0A1,1,0,0,0,167,32.74Z"/><path class="cls-4" d="M169.67,38.2h-.92l2.9-7.47h.91Z"/><path class="cls-4" d="M175.51,30.76a2.45,2.45,0,0,1,1.69.59,1.84,1.84,0,0,1,.5.69,2.31,2.31,0,0,1,.16.88,2.35,2.35,0,0,1-.38,1.29A4.87,4.87,0,0,1,176,35.49q-.41.25-.71.47a5.64,5.64,0,0,0-.48.39,2.33,2.33,0,0,0-.52.68h3.61v1h-5.07a2.8,2.8,0,0,1,.33-1.32,3.09,3.09,0,0,1,.42-.57,4.66,4.66,0,0,1,.62-.55L175,35l.93-.69a2.25,2.25,0,0,0,.59-.63,1.34,1.34,0,0,0,.19-.69,1.4,1.4,0,0,0-.08-.5,1.12,1.12,0,0,0-.26-.4,1.19,1.19,0,0,0-.39-.25,1.47,1.47,0,0,0-1.09,0,1.19,1.19,0,0,0-.41.32,1.3,1.3,0,0,0-.24.44,1.64,1.64,0,0,0-.08.51v.12H173v-.12a2.6,2.6,0,0,1,.17-1,2.12,2.12,0,0,1,.49-.75,2.26,2.26,0,0,1,.78-.49A2.88,2.88,0,0,1,175.51,30.76Z"/><path class="cls-4" d="M181.43,30.76a3,3,0,0,1,.86.12,2.27,2.27,0,0,1,.74.36,1.83,1.83,0,0,1,.51.6,1.76,1.76,0,0,1,.19.84,1.81,1.81,0,0,1-.07.51,1.51,1.51,0,0,1-.21.44,1.39,1.39,0,0,1-.34.34,1.55,1.55,0,0,1-.47.22v0a1.61,1.61,0,0,1,1,.6,1.72,1.72,0,0,1,.35,1.08,2.08,2.08,0,0,1-.74,1.66,2.76,2.76,0,0,1-1.86.63,3.2,3.2,0,0,1-1-.15,2.45,2.45,0,0,1-.81-.43,2.07,2.07,0,0,1-.56-.7,2.12,2.12,0,0,1-.21-1v-.11H180V36a1.23,1.23,0,0,0,.11.53,1.21,1.21,0,0,0,.3.4,1.31,1.31,0,0,0,.44.25,1.59,1.59,0,0,0,.53.09,1.51,1.51,0,0,0,1.07-.37,1.21,1.21,0,0,0,.4-.93,1.12,1.12,0,0,0-.37-.91,1.83,1.83,0,0,0-1.22-.32h-.29v-.85h.36a1.55,1.55,0,0,0,1-.29.91.91,0,0,0,.33-.75,1.16,1.16,0,0,0-.09-.49.93.93,0,0,0-.26-.34,1.11,1.11,0,0,0-.39-.2,1.64,1.64,0,0,0-.47-.07,1.4,1.4,0,0,0-.5.08,1.19,1.19,0,0,0-.4.25,1.21,1.21,0,0,0-.27.39,1.36,1.36,0,0,0-.11.53H179a2.34,2.34,0,0,1,.19-.87,2.13,2.13,0,0,1,.49-.7,2.3,2.3,0,0,1,.76-.47A2.73,2.73,0,0,1,181.43,30.76Z"/><path class="cls-4" d="M206.82,26V20.3h0l-2,5.73h-1.08l-2-5.7h0V26h-1.18V18.91h1.83l2,5.56h0l1.91-5.56H208V26Z"/><path class="cls-4" d="M216.29,22.48a3.86,3.86,0,0,1-.95,2.66,3.21,3.21,0,0,1-2.51,1.05,3.65,3.65,0,0,1-1.37-.24,3.2,3.2,0,0,1-1.1-.75,3.36,3.36,0,0,1-.75-1.21,4.46,4.46,0,0,1-.25-1.51,3.89,3.89,0,0,1,.95-2.7,3.21,3.21,0,0,1,2.51-1.05,3.7,3.7,0,0,1,1.37.25,3,3,0,0,1,1.1.76A3.36,3.36,0,0,1,216,21,4.74,4.74,0,0,1,216.29,22.48Zm-1.25,0a3.07,3.07,0,0,0-.59-2,2.14,2.14,0,0,0-3.25,0,3.08,3.08,0,0,0-.58,2,3,3,0,0,0,.58,1.91,2.16,2.16,0,0,0,3.26,0A3,3,0,0,0,215,22.48Z"/><path class="cls-4" d="M218.93,18.9l3.4,5.3h0V18.9h1.19V26h-1.27l-3.4-5.3h0V26h-1.19V18.9Z"/><path class="cls-4" d="M202.63,30.75a2.22,2.22,0,0,1,1.93.94,4.77,4.77,0,0,1,.66,2.75,4.87,4.87,0,0,1-.66,2.79,2.44,2.44,0,0,1-3.85,0,4.84,4.84,0,0,1-.66-2.79,4.79,4.79,0,0,1,.66-2.76A2.2,2.2,0,0,1,202.63,30.75Zm-1.42,3.7a8.51,8.51,0,0,0,.06,1,3.45,3.45,0,0,0,.22.89,1.53,1.53,0,0,0,.43.62,1.07,1.07,0,0,0,.71.23,1.14,1.14,0,0,0,.52-.11,1.16,1.16,0,0,0,.38-.31,1.78,1.78,0,0,0,.26-.47,3.52,3.52,0,0,0,.16-.57,5.47,5.47,0,0,0,.08-.64q0-.33,0-.66a8,8,0,0,0-.07-1.06,3.17,3.17,0,0,0-.23-.87,1.52,1.52,0,0,0-.44-.59,1.1,1.1,0,0,0-.7-.22,1.08,1.08,0,0,0-.5.11,1.16,1.16,0,0,0-.37.31,1.66,1.66,0,0,0-.26.46,3.45,3.45,0,0,0-.16.57,5.27,5.27,0,0,0-.09.63Q201.22,34.12,201.22,34.45Z"/><path class="cls-4" d="M211.46,36a2,2,0,0,1-.74,1.62,2.87,2.87,0,0,1-1.87.6,2.9,2.9,0,0,1-1.89-.6,2,2,0,0,1-.74-1.61,2,2,0,0,1,.1-.63,1.73,1.73,0,0,1,.27-.52,1.69,1.69,0,0,1,.43-.4,1.8,1.8,0,0,1,.58-.24v0a1.51,1.51,0,0,1-.82-.56,1.6,1.6,0,0,1-.28-.95,1.66,1.66,0,0,1,.68-1.38,2.63,2.63,0,0,1,1.65-.52,2.43,2.43,0,0,1,1.68.56,1.7,1.7,0,0,1,.63,1.31,1.8,1.8,0,0,1-.07.51,1.52,1.52,0,0,1-.21.44,1.46,1.46,0,0,1-.34.35,1.66,1.66,0,0,1-.47.24v0a1.71,1.71,0,0,1,1,.63A1.87,1.87,0,0,1,211.46,36Zm-1.16,0a1.21,1.21,0,0,0-.4-.93,1.49,1.49,0,0,0-1.05-.37,1.57,1.57,0,0,0-1.05.35,1.19,1.19,0,0,0-.41.94,1.27,1.27,0,0,0,.42,1,1.49,1.49,0,0,0,1.05.38,1.44,1.44,0,0,0,1-.37A1.27,1.27,0,0,0,210.29,35.93Zm-.21-3.19a1.18,1.18,0,0,0-.09-.47.86.86,0,0,0-.27-.35,1.54,1.54,0,0,0-1.79,0,1,1,0,0,0-.35.78,1,1,0,0,0,.34.79,1.54,1.54,0,0,0,1.82,0A1,1,0,0,0,210.08,32.74Z"/><path class="cls-4" d="M212.75,38.2h-.92l2.9-7.47h.91Z"/><path class="cls-4" d="M218.59,30.76a2.45,2.45,0,0,1,1.69.59,1.84,1.84,0,0,1,.5.69,2.31,2.31,0,0,1,.16.88,2.35,2.35,0,0,1-.38,1.29,4.87,4.87,0,0,1-1.48,1.28q-.41.25-.71.47a5.64,5.64,0,0,0-.48.39,2.33,2.33,0,0,0-.52.68H221v1h-5.07a2.8,2.8,0,0,1,.33-1.32,3.09,3.09,0,0,1,.42-.57,4.66,4.66,0,0,1,.62-.55l.79-.59.93-.69a2.25,2.25,0,0,0,.59-.63,1.34,1.34,0,0,0,.19-.69,1.4,1.4,0,0,0-.08-.5,1.12,1.12,0,0,0-.26-.4,1.19,1.19,0,0,0-.39-.25,1.47,1.47,0,0,0-1.09,0,1.19,1.19,0,0,0-.41.32,1.3,1.3,0,0,0-.24.44,1.64,1.64,0,0,0-.08.51v.12h-1.11v-.12a2.6,2.6,0,0,1,.17-1,2.12,2.12,0,0,1,.49-.75,2.26,2.26,0,0,1,.78-.49A2.88,2.88,0,0,1,218.59,30.76Z"/><path class="cls-4" d="M226,36.33V38h-1.09V36.33h-3.13V35.26l3.18-4.39h1v4.51h1v1Zm-1.09-4h0l-2.18,3.06h2.21Z"/><path class="cls-4" d="M248.42,18.9V20h-2.27V26H244.9V20h-2.27V18.9Z"/><path class="cls-4" d="M250.65,18.9v4.48a1.89,1.89,0,0,0,.41,1.33,1.68,1.68,0,0,0,1.29.44,1.73,1.73,0,0,0,1.29-.42,1.87,1.87,0,0,0,.41-1.34V18.9h1.25v4.53a2.73,2.73,0,0,1-.75,2,3,3,0,0,1-2.2.75,4,4,0,0,1-1.27-.19,2.34,2.34,0,0,1-1-.59,2.31,2.31,0,0,1-.54-.87,3.35,3.35,0,0,1-.18-1.13V18.9Z"/><path class="cls-4" d="M262.19,18.91V20h-3.94v1.9h3.64v1h-3.64V25h4V26H257V18.91Z"/><path class="cls-4" d="M245.55,30.75a2.22,2.22,0,0,1,1.93.94,4.77,4.77,0,0,1,.66,2.75,4.87,4.87,0,0,1-.66,2.79,2.44,2.44,0,0,1-3.85,0,4.84,4.84,0,0,1-.66-2.79,4.79,4.79,0,0,1,.66-2.76A2.2,2.2,0,0,1,245.55,30.75Zm-1.42,3.7a8.51,8.51,0,0,0,.06,1,3.45,3.45,0,0,0,.22.89,1.53,1.53,0,0,0,.43.62,1.07,1.07,0,0,0,.71.23,1.14,1.14,0,0,0,.52-.11,1.16,1.16,0,0,0,.38-.31,1.78,1.78,0,0,0,.26-.47,3.52,3.52,0,0,0,.16-.57,5.47,5.47,0,0,0,.08-.64q0-.33,0-.66a8,8,0,0,0-.07-1.06,3.17,3.17,0,0,0-.23-.87,1.52,1.52,0,0,0-.44-.59,1.1,1.1,0,0,0-.7-.22,1.08,1.08,0,0,0-.5.11,1.16,1.16,0,0,0-.37.31,1.66,1.66,0,0,0-.26.46,3.45,3.45,0,0,0-.16.57,5.27,5.27,0,0,0-.09.63Q244.13,34.12,244.13,34.45Z"/><path class="cls-4" d="M254.37,36a2,2,0,0,1-.74,1.62,2.87,2.87,0,0,1-1.87.6,2.9,2.9,0,0,1-1.89-.6,2,2,0,0,1-.74-1.61,2,2,0,0,1,.1-.63,1.73,1.73,0,0,1,.27-.52,1.69,1.69,0,0,1,.43-.4,1.8,1.8,0,0,1,.58-.24v0a1.51,1.51,0,0,1-.82-.56,1.6,1.6,0,0,1-.28-.95,1.66,1.66,0,0,1,.68-1.38,2.63,2.63,0,0,1,1.65-.52,2.43,2.43,0,0,1,1.68.56,1.7,1.7,0,0,1,.63,1.31,1.8,1.8,0,0,1-.07.51,1.52,1.52,0,0,1-.21.44,1.46,1.46,0,0,1-.34.35,1.66,1.66,0,0,1-.47.24v0a1.71,1.71,0,0,1,1,.63A1.87,1.87,0,0,1,254.37,36Zm-1.16,0a1.21,1.21,0,0,0-.4-.93,1.49,1.49,0,0,0-1.05-.37,1.57,1.57,0,0,0-1.05.35,1.19,1.19,0,0,0-.41.94,1.27,1.27,0,0,0,.42,1,1.49,1.49,0,0,0,1.05.38,1.44,1.44,0,0,0,1-.37A1.27,1.27,0,0,0,253.21,35.93ZM253,32.74a1.18,1.18,0,0,0-.09-.47.86.86,0,0,0-.27-.35,1.54,1.54,0,0,0-1.79,0,1,1,0,0,0-.35.78,1,1,0,0,0,.34.79,1.54,1.54,0,0,0,1.82,0A1,1,0,0,0,253,32.74Z"/><path class="cls-4" d="M255.67,38.2h-.92l2.9-7.47h.91Z"/><path class="cls-4" d="M261.51,30.76a2.45,2.45,0,0,1,1.69.59,1.84,1.84,0,0,1,.5.69,2.31,2.31,0,0,1,.16.88,2.35,2.35,0,0,1-.38,1.29A4.87,4.87,0,0,1,262,35.49q-.41.25-.71.47a5.64,5.64,0,0,0-.48.39,2.33,2.33,0,0,0-.52.68h3.61v1h-5.07a2.8,2.8,0,0,1,.33-1.32,3.09,3.09,0,0,1,.42-.57,4.66,4.66,0,0,1,.62-.55L261,35l.93-.69a2.25,2.25,0,0,0,.59-.63,1.34,1.34,0,0,0,.19-.69,1.4,1.4,0,0,0-.08-.5,1.12,1.12,0,0,0-.26-.4,1.19,1.19,0,0,0-.39-.25,1.47,1.47,0,0,0-1.09,0,1.19,1.19,0,0,0-.41.32,1.3,1.3,0,0,0-.24.44,1.64,1.64,0,0,0-.08.51v.12H259v-.12a2.6,2.6,0,0,1,.17-1,2.12,2.12,0,0,1,.49-.75,2.26,2.26,0,0,1,.78-.49A2.88,2.88,0,0,1,261.51,30.76Z"/><path class="cls-4" d="M269.6,30.9v1h-3l-.35,1.87,0,0a1.92,1.92,0,0,1,.63-.42,2.15,2.15,0,0,1,.81-.14,2.33,2.33,0,0,1,.95.19,2.11,2.11,0,0,1,.72.51,2.26,2.26,0,0,1,.46.77,2.9,2.9,0,0,1,.16,1,2.44,2.44,0,0,1-.2,1,2.49,2.49,0,0,1-.55.8,2.6,2.6,0,0,1-.83.54,2.68,2.68,0,0,1-1,.2,3.49,3.49,0,0,1-1-.13,2.26,2.26,0,0,1-.77-.38,1.93,1.93,0,0,1-.53-.64,2.2,2.2,0,0,1-.23-.89H266a1.24,1.24,0,0,0,.12.42,1.09,1.09,0,0,0,.26.34,1.19,1.19,0,0,0,.4.23,1.64,1.64,0,0,0,.54.08,1.39,1.39,0,0,0,1.07-.48,1.55,1.55,0,0,0,.29-.5,1.81,1.81,0,0,0,.1-.61,1.77,1.77,0,0,0-.1-.59,1.38,1.38,0,0,0-.75-.82,1.45,1.45,0,0,0-.61-.12,1.46,1.46,0,0,0-1.27.63h-1l.7-3.83Z"/><path class="cls-4" d="M286.92,18.9l1.3,5.58h0l1.43-5.58h1.25l1.41,5.62h0l1.34-5.62h1.23L293,26h-1.26l-1.43-5.63h0L288.86,26h-1.28l-1.92-7.14Z"/><path class="cls-4" d="M301.14,18.91V20H297.2v1.9h3.64v1H297.2V25h4V26H296V18.91Z"/><path class="cls-4" d="M305.38,18.9a3.18,3.18,0,0,1,2.37.9,3.64,3.64,0,0,1,.89,2.64,3.73,3.73,0,0,1-.88,2.67,3.09,3.09,0,0,1-2.35.92h-2.89V18.9ZM305.24,25a2.07,2.07,0,0,0,1.58-.59,2.62,2.62,0,0,0,.57-1.86,2.8,2.8,0,0,0-.58-2A2.35,2.35,0,0,0,305,20h-1.25v5Z"/><path class="cls-4" d="M288.53,30.75a2.22,2.22,0,0,1,1.93.94,4.77,4.77,0,0,1,.66,2.75,4.87,4.87,0,0,1-.66,2.79,2.44,2.44,0,0,1-3.85,0,4.84,4.84,0,0,1-.66-2.79,4.79,4.79,0,0,1,.66-2.76A2.2,2.2,0,0,1,288.53,30.75Zm-1.42,3.7a8.51,8.51,0,0,0,.06,1,3.45,3.45,0,0,0,.22.89,1.53,1.53,0,0,0,.43.62,1.07,1.07,0,0,0,.71.23,1.14,1.14,0,0,0,.52-.11,1.16,1.16,0,0,0,.38-.31,1.78,1.78,0,0,0,.26-.47,3.52,3.52,0,0,0,.16-.57,5.47,5.47,0,0,0,.08-.64q0-.33,0-.66a8,8,0,0,0-.07-1.06,3.17,3.17,0,0,0-.23-.87,1.52,1.52,0,0,0-.44-.59,1.1,1.1,0,0,0-.7-.22,1.08,1.08,0,0,0-.5.11,1.16,1.16,0,0,0-.37.31,1.66,1.66,0,0,0-.26.46,3.45,3.45,0,0,0-.16.57,5.27,5.27,0,0,0-.09.63Q287.12,34.12,287.12,34.45Z"/><path class="cls-4" d="M297.35,36a2,2,0,0,1-.74,1.62,2.87,2.87,0,0,1-1.87.6,2.9,2.9,0,0,1-1.89-.6,2,2,0,0,1-.74-1.61,2,2,0,0,1,.1-.63,1.73,1.73,0,0,1,.27-.52,1.69,1.69,0,0,1,.43-.4,1.8,1.8,0,0,1,.58-.24v0a1.51,1.51,0,0,1-.82-.56,1.6,1.6,0,0,1-.28-.95,1.66,1.66,0,0,1,.68-1.38,2.63,2.63,0,0,1,1.65-.52,2.43,2.43,0,0,1,1.68.56,1.7,1.7,0,0,1,.63,1.31,1.8,1.8,0,0,1-.07.51,1.52,1.52,0,0,1-.21.44,1.46,1.46,0,0,1-.34.35,1.66,1.66,0,0,1-.47.24v0a1.71,1.71,0,0,1,1,.63A1.87,1.87,0,0,1,297.35,36Zm-1.16,0a1.21,1.21,0,0,0-.4-.93,1.49,1.49,0,0,0-1.05-.37,1.57,1.57,0,0,0-1.05.35,1.19,1.19,0,0,0-.41.94,1.27,1.27,0,0,0,.42,1,1.49,1.49,0,0,0,1.05.38,1.44,1.44,0,0,0,1-.37A1.27,1.27,0,0,0,296.19,35.93ZM296,32.74a1.18,1.18,0,0,0-.09-.47.86.86,0,0,0-.27-.35,1.54,1.54,0,0,0-1.79,0,1,1,0,0,0-.35.78,1,1,0,0,0,.34.79,1.54,1.54,0,0,0,1.82,0A1,1,0,0,0,296,32.74Z"/><path class="cls-4" d="M298.65,38.2h-.92l2.9-7.47h.91Z"/><path class="cls-4" d="M304.49,30.76a2.45,2.45,0,0,1,1.69.59,1.84,1.84,0,0,1,.5.69,2.31,2.31,0,0,1,.16.88,2.35,2.35,0,0,1-.38,1.29A4.87,4.87,0,0,1,305,35.49q-.41.25-.71.47a5.64,5.64,0,0,0-.48.39,2.33,2.33,0,0,0-.52.68h3.61v1h-5.07a2.8,2.8,0,0,1,.33-1.32,3.09,3.09,0,0,1,.42-.57,4.66,4.66,0,0,1,.62-.55L304,35l.93-.69a2.25,2.25,0,0,0,.59-.63,1.34,1.34,0,0,0,.19-.69,1.4,1.4,0,0,0-.08-.5,1.12,1.12,0,0,0-.26-.4,1.19,1.19,0,0,0-.39-.25,1.47,1.47,0,0,0-1.09,0,1.19,1.19,0,0,0-.41.32,1.3,1.3,0,0,0-.24.44,1.64,1.64,0,0,0-.08.51v.12H302v-.12a2.6,2.6,0,0,1,.17-1,2.12,2.12,0,0,1,.49-.75,2.26,2.26,0,0,1,.78-.49A2.88,2.88,0,0,1,304.49,30.76Z"/><path class="cls-4" d="M310.67,30.76a2.65,2.65,0,0,1,.81.12,2.1,2.1,0,0,1,.66.34,1.9,1.9,0,0,1,.47.54,2,2,0,0,1,.25.71h-1.11a1.31,1.31,0,0,0-.14-.33,1,1,0,0,0-.23-.26,1,1,0,0,0-.33-.17,1.37,1.37,0,0,0-.42-.06,1.21,1.21,0,0,0-.73.22,1.65,1.65,0,0,0-.49.57,2.9,2.9,0,0,0-.28.82,5.62,5.62,0,0,0-.1.94v0a1.71,1.71,0,0,1,1.31-.83,2,2,0,0,1,1.13.09,2,2,0,0,1,1.13.8,2.31,2.31,0,0,1,.41,1.35,2.52,2.52,0,0,1-.71,1.83,2.36,2.36,0,0,1-1.77.73,2.68,2.68,0,0,1-1.18-.24,2.15,2.15,0,0,1-.83-.72,3.41,3.41,0,0,1-.49-1.16,7,7,0,0,1-.16-1.62,6.4,6.4,0,0,1,.06-.88,4.87,4.87,0,0,1,.2-.86,3.76,3.76,0,0,1,.35-.77,2.58,2.58,0,0,1,.52-.62,2.31,2.31,0,0,1,.72-.42A2.67,2.67,0,0,1,310.67,30.76Zm-1.5,4.95a1.59,1.59,0,0,0,.38,1.09,1.28,1.28,0,0,0,1,.43,1.19,1.19,0,0,0,.95-.45,1.58,1.58,0,0,0,.38-1.06,1.71,1.71,0,0,0-.36-1.1,1.19,1.19,0,0,0-1-.45,1.29,1.29,0,0,0-1,.43A1.62,1.62,0,0,0,309.17,35.71Z"/><path class="cls-4" d="M334.47,18.9V20H332.2V26H331V20h-2.27V18.9Z"/><path class="cls-4" d="M336.73,18.91v2.87h3.37V18.91h1.24V26H340.1V22.82h-3.37V26h-1.25V18.91Z"/><path class="cls-4" d="M344.3,18.9v4.48a1.9,1.9,0,0,0,.41,1.33,1.68,1.68,0,0,0,1.29.44,1.73,1.73,0,0,0,1.29-.42,1.86,1.86,0,0,0,.41-1.34V18.9h1.25v4.53a2.74,2.74,0,0,1-.75,2,3,3,0,0,1-2.2.75,4,4,0,0,1-1.27-.19,2.35,2.35,0,0,1-1-.59,2.32,2.32,0,0,1-.54-.87,3.37,3.37,0,0,1-.18-1.13V18.9Z"/><path class="cls-4" d="M331.59,30.75a2.22,2.22,0,0,1,1.93.94,4.77,4.77,0,0,1,.66,2.75,4.87,4.87,0,0,1-.66,2.79,2.44,2.44,0,0,1-3.85,0,4.84,4.84,0,0,1-.66-2.79,4.79,4.79,0,0,1,.66-2.76A2.2,2.2,0,0,1,331.59,30.75Zm-1.42,3.7a8.51,8.51,0,0,0,.06,1,3.45,3.45,0,0,0,.22.89,1.53,1.53,0,0,0,.43.62,1.07,1.07,0,0,0,.71.23,1.14,1.14,0,0,0,.52-.11,1.16,1.16,0,0,0,.38-.31,1.78,1.78,0,0,0,.26-.47,3.52,3.52,0,0,0,.16-.57,5.47,5.47,0,0,0,.08-.64q0-.33,0-.66a8,8,0,0,0-.07-1.06,3.17,3.17,0,0,0-.23-.87,1.52,1.52,0,0,0-.44-.59,1.1,1.1,0,0,0-.7-.22,1.08,1.08,0,0,0-.5.11,1.16,1.16,0,0,0-.37.31,1.66,1.66,0,0,0-.26.46,3.45,3.45,0,0,0-.16.57,5.27,5.27,0,0,0-.09.63Q330.18,34.12,330.18,34.45Z"/><path class="cls-4" d="M340.42,36a2,2,0,0,1-.74,1.62,2.87,2.87,0,0,1-1.87.6,2.9,2.9,0,0,1-1.89-.6,2,2,0,0,1-.74-1.61,2,2,0,0,1,.1-.63,1.73,1.73,0,0,1,.27-.52,1.69,1.69,0,0,1,.43-.4,1.8,1.8,0,0,1,.58-.24v0a1.51,1.51,0,0,1-.82-.56,1.6,1.6,0,0,1-.28-.95,1.66,1.66,0,0,1,.68-1.38,2.63,2.63,0,0,1,1.65-.52,2.43,2.43,0,0,1,1.68.56,1.7,1.7,0,0,1,.63,1.31,1.8,1.8,0,0,1-.07.51,1.52,1.52,0,0,1-.21.44,1.46,1.46,0,0,1-.34.35,1.66,1.66,0,0,1-.47.24v0a1.71,1.71,0,0,1,1,.63A1.87,1.87,0,0,1,340.42,36Zm-1.16,0a1.21,1.21,0,0,0-.4-.93,1.49,1.49,0,0,0-1.05-.37,1.57,1.57,0,0,0-1.05.35,1.19,1.19,0,0,0-.41.94,1.27,1.27,0,0,0,.42,1,1.49,1.49,0,0,0,1.05.38,1.44,1.44,0,0,0,1-.37A1.27,1.27,0,0,0,339.25,35.93ZM339,32.74a1.18,1.18,0,0,0-.09-.47.86.86,0,0,0-.27-.35,1.54,1.54,0,0,0-1.79,0,1,1,0,0,0-.35.78,1,1,0,0,0,.34.79,1.54,1.54,0,0,0,1.82,0A1,1,0,0,0,339,32.74Z"/><path class="cls-4" d="M341.71,38.2h-.92l2.9-7.47h.91Z"/><path class="cls-4" d="M347.55,30.76a2.45,2.45,0,0,1,1.69.59,1.84,1.84,0,0,1,.5.69,2.31,2.31,0,0,1,.16.88,2.35,2.35,0,0,1-.38,1.29A4.87,4.87,0,0,1,348,35.49q-.41.25-.71.47a5.64,5.64,0,0,0-.48.39,2.33,2.33,0,0,0-.52.68h3.61v1h-5.07a2.8,2.8,0,0,1,.33-1.32,3.09,3.09,0,0,1,.42-.57,4.66,4.66,0,0,1,.62-.55L347,35l.93-.69a2.25,2.25,0,0,0,.59-.63,1.34,1.34,0,0,0,.19-.69,1.4,1.4,0,0,0-.08-.5,1.12,1.12,0,0,0-.26-.4,1.19,1.19,0,0,0-.39-.25,1.47,1.47,0,0,0-1.09,0,1.19,1.19,0,0,0-.41.32,1.3,1.3,0,0,0-.24.44,1.64,1.64,0,0,0-.08.51v.12h-1.11v-.12a2.6,2.6,0,0,1,.17-1,2.12,2.12,0,0,1,.49-.75,2.26,2.26,0,0,1,.78-.49A2.88,2.88,0,0,1,347.55,30.76Z"/><path class="cls-4" d="M355.79,30.9v1a7.38,7.38,0,0,0-1,1.25,8.61,8.61,0,0,0-.79,1.52,10,10,0,0,0-.73,3.36H352a9.82,9.82,0,0,1,.77-3.18A11.44,11.44,0,0,1,354.6,32H351V30.9Z"/><path class="cls-4" d="M377.21,18.9V20h-3.59v2h3.14v1h-3.14V26h-1.25V18.9Z"/><path class="cls-4" d="M384.06,20.83a1.91,1.91,0,0,1-.42,1.28,1.48,1.48,0,0,1-.35.31,2.09,2.09,0,0,1-.46.21v0a1.39,1.39,0,0,1,.49.21,1.16,1.16,0,0,1,.33.35,1.63,1.63,0,0,1,.21.52,4.45,4.45,0,0,1,.08.57c0,.2,0,.4,0,.61a4,4,0,0,0,.08.62,1.38,1.38,0,0,0,.2.52H383a3.67,3.67,0,0,1-.19-1.12,2.66,2.66,0,0,0-.38-1.47,1.13,1.13,0,0,0-.88-.34h-2V26H378.3V18.9H382a2.13,2.13,0,0,1,1.48.53A1.8,1.8,0,0,1,384.06,20.83Zm-1.25.2a1.09,1.09,0,0,0-.32-.86,1.3,1.3,0,0,0-.89-.28h-2.05v2.29h2.05a1.27,1.27,0,0,0,.85-.27A1.08,1.08,0,0,0,382.81,21Z"/><path class="cls-4" d="M386.88,18.9V26h-1.25V18.9Z"/><path class="cls-4" d="M374.53,30.75a2.22,2.22,0,0,1,1.93.94,4.77,4.77,0,0,1,.66,2.75,4.87,4.87,0,0,1-.66,2.79,2.44,2.44,0,0,1-3.85,0,4.84,4.84,0,0,1-.66-2.79,4.79,4.79,0,0,1,.66-2.76A2.2,2.2,0,0,1,374.53,30.75Zm-1.42,3.7a8.51,8.51,0,0,0,.06,1,3.45,3.45,0,0,0,.22.89,1.53,1.53,0,0,0,.43.62,1.07,1.07,0,0,0,.71.23,1.14,1.14,0,0,0,.52-.11,1.16,1.16,0,0,0,.38-.31,1.78,1.78,0,0,0,.26-.47,3.52,3.52,0,0,0,.16-.57,5.47,5.47,0,0,0,.08-.64q0-.33,0-.66a8,8,0,0,0-.07-1.06,3.17,3.17,0,0,0-.23-.87,1.52,1.52,0,0,0-.44-.59,1.1,1.1,0,0,0-.7-.22,1.08,1.08,0,0,0-.5.11,1.16,1.16,0,0,0-.37.31,1.66,1.66,0,0,0-.26.46,3.45,3.45,0,0,0-.16.57,5.27,5.27,0,0,0-.09.63Q373.12,34.12,373.12,34.45Z"/><path class="cls-4" d="M383.35,36a2,2,0,0,1-.74,1.62,2.87,2.87,0,0,1-1.87.6,2.9,2.9,0,0,1-1.89-.6,2,2,0,0,1-.74-1.61,2,2,0,0,1,.1-.63,1.73,1.73,0,0,1,.27-.52,1.69,1.69,0,0,1,.43-.4,1.8,1.8,0,0,1,.58-.24v0a1.51,1.51,0,0,1-.82-.56,1.6,1.6,0,0,1-.28-.95,1.66,1.66,0,0,1,.68-1.38,2.63,2.63,0,0,1,1.65-.52,2.43,2.43,0,0,1,1.68.56,1.7,1.7,0,0,1,.63,1.31,1.8,1.8,0,0,1-.07.51,1.52,1.52,0,0,1-.21.44,1.46,1.46,0,0,1-.34.35,1.66,1.66,0,0,1-.47.24v0a1.71,1.71,0,0,1,1,.63A1.87,1.87,0,0,1,383.35,36Zm-1.16,0a1.21,1.21,0,0,0-.4-.93,1.49,1.49,0,0,0-1.05-.37,1.57,1.57,0,0,0-1.05.35,1.19,1.19,0,0,0-.41.94,1.27,1.27,0,0,0,.42,1,1.49,1.49,0,0,0,1.05.38,1.44,1.44,0,0,0,1-.37A1.27,1.27,0,0,0,382.19,35.93ZM382,32.74a1.18,1.18,0,0,0-.09-.47.86.86,0,0,0-.27-.35,1.54,1.54,0,0,0-1.79,0,1,1,0,0,0-.35.78,1,1,0,0,0,.34.79,1.54,1.54,0,0,0,1.82,0A1,1,0,0,0,382,32.74Z"/><path class="cls-4" d="M384.65,38.2h-.92l2.9-7.47h.91Z"/><path class="cls-4" d="M390.49,30.76a2.45,2.45,0,0,1,1.69.59,1.84,1.84,0,0,1,.5.69,2.31,2.31,0,0,1,.16.88,2.35,2.35,0,0,1-.38,1.29A4.87,4.87,0,0,1,391,35.49q-.41.25-.71.47a5.64,5.64,0,0,0-.48.39,2.33,2.33,0,0,0-.52.68h3.61v1h-5.07a2.8,2.8,0,0,1,.33-1.32,3.09,3.09,0,0,1,.42-.57,4.66,4.66,0,0,1,.62-.55L390,35l.93-.69a2.25,2.25,0,0,0,.59-.63,1.34,1.34,0,0,0,.19-.69,1.4,1.4,0,0,0-.08-.5,1.12,1.12,0,0,0-.26-.4,1.19,1.19,0,0,0-.39-.25,1.47,1.47,0,0,0-1.09,0,1.19,1.19,0,0,0-.41.32,1.3,1.3,0,0,0-.24.44,1.64,1.64,0,0,0-.08.51v.12H388v-.12a2.6,2.6,0,0,1,.17-1,2.12,2.12,0,0,1,.49-.75,2.26,2.26,0,0,1,.78-.49A2.88,2.88,0,0,1,390.49,30.76Z"/><path class="cls-4" d="M399.08,36a2,2,0,0,1-.74,1.62,2.87,2.87,0,0,1-1.87.6,2.9,2.9,0,0,1-1.89-.6,2,2,0,0,1-.74-1.61,2,2,0,0,1,.1-.63,1.73,1.73,0,0,1,.27-.52,1.67,1.67,0,0,1,.43-.4,1.8,1.8,0,0,1,.58-.24v0a1.51,1.51,0,0,1-.82-.56,1.6,1.6,0,0,1-.28-.95,1.66,1.66,0,0,1,.68-1.38,2.63,2.63,0,0,1,1.65-.52,2.43,2.43,0,0,1,1.68.56,1.7,1.7,0,0,1,.63,1.31,1.8,1.8,0,0,1-.07.51,1.5,1.5,0,0,1-.21.44,1.46,1.46,0,0,1-.34.35,1.64,1.64,0,0,1-.47.24v0a1.71,1.71,0,0,1,1,.63A1.87,1.87,0,0,1,399.08,36Zm-1.16,0a1.21,1.21,0,0,0-.4-.93,1.49,1.49,0,0,0-1.05-.37,1.57,1.57,0,0,0-1.05.35,1.19,1.19,0,0,0-.41.94,1.27,1.27,0,0,0,.42,1,1.49,1.49,0,0,0,1.05.38,1.44,1.44,0,0,0,1-.37A1.27,1.27,0,0,0,397.92,35.93Zm-.21-3.19a1.18,1.18,0,0,0-.09-.47.86.86,0,0,0-.27-.35,1.54,1.54,0,0,0-1.79,0,1,1,0,0,0-.35.78,1,1,0,0,0,.34.79,1.54,1.54,0,0,0,1.82,0A1,1,0,0,0,397.7,32.74Z"/><path class="cls-4" d="M420.7,24a2,2,0,0,1-.24,1,2,2,0,0,1-.65.68,2.92,2.92,0,0,1-.94.39,4.91,4.91,0,0,1-1.12.13,4.32,4.32,0,0,1-1.14-.14,2.79,2.79,0,0,1-.92-.43,2.06,2.06,0,0,1-.62-.7,2,2,0,0,1-.22-1v-.08h1.23v0a1.11,1.11,0,0,0,.14.56,1.16,1.16,0,0,0,.38.4,1.75,1.75,0,0,0,.56.24,3,3,0,0,0,1.32,0,1.69,1.69,0,0,0,.52-.21,1.1,1.1,0,0,0,.35-.34.89.89,0,0,0,.13-.48.77.77,0,0,0-.31-.63,2.7,2.7,0,0,0-1-.42l-1.53-.4a2.36,2.36,0,0,1-1.2-.65,1.67,1.67,0,0,1-.39-1.16,1.87,1.87,0,0,1,.21-.91,2,2,0,0,1,.58-.66,2.66,2.66,0,0,1,.86-.4,3.82,3.82,0,0,1,1-.14,3.9,3.9,0,0,1,1,.12,2.69,2.69,0,0,1,.85.38,2,2,0,0,1,.59.64,1.89,1.89,0,0,1,.23.91h-1.22a1,1,0,0,0-.13-.43,1.07,1.07,0,0,0-.3-.34,1.53,1.53,0,0,0-.46-.22,2.09,2.09,0,0,0-.59-.08,2.46,2.46,0,0,0-.55.06,1.43,1.43,0,0,0-.46.19,1,1,0,0,0-.31.32.87.87,0,0,0-.12.46.83.83,0,0,0,.06.33.68.68,0,0,0,.17.23.9.9,0,0,0,.26.16l.34.11,1.68.44a3.09,3.09,0,0,1,1.42.72A1.69,1.69,0,0,1,420.7,24Z"/><path class="cls-4" d="M426.67,26l-.62-1.82h-3L422.47,26h-1.27l2.57-7.13h1.69L428,26Zm-2.07-6.21h0l-1.17,3.44h2.33Z"/><path class="cls-4" d="M433.36,18.9V20h-2.27V26h-1.25V20h-2.27V18.9Z"/><path class="cls-4" d="M417.51,30.75a2.22,2.22,0,0,1,1.93.94,4.77,4.77,0,0,1,.66,2.75,4.87,4.87,0,0,1-.66,2.79,2.44,2.44,0,0,1-3.85,0,4.84,4.84,0,0,1-.66-2.79,4.79,4.79,0,0,1,.66-2.76A2.2,2.2,0,0,1,417.51,30.75Zm-1.42,3.7a8.51,8.51,0,0,0,.06,1,3.45,3.45,0,0,0,.22.89,1.53,1.53,0,0,0,.43.62,1.07,1.07,0,0,0,.71.23,1.14,1.14,0,0,0,.52-.11,1.16,1.16,0,0,0,.38-.31,1.78,1.78,0,0,0,.26-.47,3.52,3.52,0,0,0,.16-.57,5.47,5.47,0,0,0,.08-.64q0-.33,0-.66a8,8,0,0,0-.07-1.06,3.17,3.17,0,0,0-.23-.87,1.52,1.52,0,0,0-.44-.59,1.1,1.1,0,0,0-.7-.22,1.08,1.08,0,0,0-.5.11,1.16,1.16,0,0,0-.37.31,1.66,1.66,0,0,0-.26.46,3.45,3.45,0,0,0-.16.57,5.27,5.27,0,0,0-.09.63Q416.1,34.12,416.1,34.45Z"/><path class="cls-4" d="M426.33,36a2,2,0,0,1-.74,1.62,2.87,2.87,0,0,1-1.87.6,2.9,2.9,0,0,1-1.89-.6A2,2,0,0,1,421.1,36a2,2,0,0,1,.1-.63,1.73,1.73,0,0,1,.27-.52,1.69,1.69,0,0,1,.43-.4,1.8,1.8,0,0,1,.58-.24v0a1.51,1.51,0,0,1-.82-.56,1.6,1.6,0,0,1-.28-.95,1.66,1.66,0,0,1,.68-1.38,2.63,2.63,0,0,1,1.65-.52,2.43,2.43,0,0,1,1.68.56,1.7,1.7,0,0,1,.63,1.31,1.8,1.8,0,0,1-.07.51,1.52,1.52,0,0,1-.21.44,1.46,1.46,0,0,1-.34.35,1.66,1.66,0,0,1-.47.24v0a1.71,1.71,0,0,1,1,.63A1.87,1.87,0,0,1,426.33,36Zm-1.16,0a1.21,1.21,0,0,0-.4-.93,1.49,1.49,0,0,0-1.05-.37,1.57,1.57,0,0,0-1.05.35,1.19,1.19,0,0,0-.41.94,1.27,1.27,0,0,0,.42,1,1.49,1.49,0,0,0,1.05.38,1.44,1.44,0,0,0,1-.37A1.27,1.27,0,0,0,425.17,35.93ZM425,32.74a1.18,1.18,0,0,0-.09-.47.86.86,0,0,0-.27-.35,1.54,1.54,0,0,0-1.79,0,1,1,0,0,0-.35.78,1,1,0,0,0,.34.79,1.54,1.54,0,0,0,1.82,0A1,1,0,0,0,425,32.74Z"/><path class="cls-4" d="M427.63,38.2h-.92l2.9-7.47h.91Z"/><path class="cls-4" d="M433.47,30.76a2.45,2.45,0,0,1,1.69.59,1.84,1.84,0,0,1,.5.69,2.31,2.31,0,0,1,.16.88,2.35,2.35,0,0,1-.38,1.29A4.87,4.87,0,0,1,434,35.49q-.41.25-.71.47a5.64,5.64,0,0,0-.48.39,2.33,2.33,0,0,0-.52.68h3.61v1H430.8a2.8,2.8,0,0,1,.33-1.32,3.09,3.09,0,0,1,.42-.57,4.66,4.66,0,0,1,.62-.55L433,35l.93-.69a2.25,2.25,0,0,0,.59-.63,1.34,1.34,0,0,0,.19-.69,1.4,1.4,0,0,0-.08-.5,1.12,1.12,0,0,0-.26-.4,1.19,1.19,0,0,0-.39-.25,1.47,1.47,0,0,0-1.09,0,1.19,1.19,0,0,0-.41.32,1.3,1.3,0,0,0-.24.44,1.64,1.64,0,0,0-.08.51v.12H431v-.12a2.6,2.6,0,0,1,.17-1,2.12,2.12,0,0,1,.49-.75,2.26,2.26,0,0,1,.78-.49A2.88,2.88,0,0,1,433.47,30.76Z"/><path class="cls-4" d="M439.27,38.19a2.67,2.67,0,0,1-.82-.12,2.1,2.1,0,0,1-.66-.34,1.92,1.92,0,0,1-.47-.54,2,2,0,0,1-.25-.71h1.11a1.32,1.32,0,0,0,.14.33.94.94,0,0,0,.23.26,1.07,1.07,0,0,0,.32.17,1.28,1.28,0,0,0,.42.06,1.22,1.22,0,0,0,.74-.22,1.65,1.65,0,0,0,.49-.57,2.93,2.93,0,0,0,.28-.82,5.59,5.59,0,0,0,.1-.95h0a1.79,1.79,0,0,1-.56.57,1.83,1.83,0,0,1-.75.25,2.07,2.07,0,0,1-1.14-.09,2,2,0,0,1-1.13-.8,2.3,2.3,0,0,1-.41-1.35,2.54,2.54,0,0,1,.71-1.83,2.37,2.37,0,0,1,1.77-.72,2.71,2.71,0,0,1,1.18.24,2.1,2.1,0,0,1,.83.71,4.89,4.89,0,0,1,.65,2.78,6.55,6.55,0,0,1-.06.88,5,5,0,0,1-.2.86,3.81,3.81,0,0,1-.35.77,2.53,2.53,0,0,1-.52.62,2.32,2.32,0,0,1-.71.42A2.67,2.67,0,0,1,439.27,38.19Zm1.5-5a1.56,1.56,0,0,0-.38-1.08,1.27,1.27,0,0,0-1-.43,1.17,1.17,0,0,0-.94.45,1.58,1.58,0,0,0-.38,1.05,1.7,1.7,0,0,0,.36,1.1,1.19,1.19,0,0,0,1,.46,1.29,1.29,0,0,0,1-.43A1.62,1.62,0,0,0,440.77,33.23Z"/><path class="cls-4" d="M463.64,24a2,2,0,0,1-.24,1,2,2,0,0,1-.65.68,2.92,2.92,0,0,1-.94.39,4.91,4.91,0,0,1-1.12.13,4.32,4.32,0,0,1-1.14-.14,2.79,2.79,0,0,1-.92-.43,2.06,2.06,0,0,1-.62-.7,2,2,0,0,1-.22-1v-.08H459v0a1.11,1.11,0,0,0,.14.56,1.16,1.16,0,0,0,.38.4,1.75,1.75,0,0,0,.56.24,3,3,0,0,0,1.32,0,1.69,1.69,0,0,0,.52-.21,1.1,1.1,0,0,0,.35-.34.89.89,0,0,0,.13-.48.77.77,0,0,0-.31-.63,2.7,2.7,0,0,0-1-.42l-1.53-.4a2.36,2.36,0,0,1-1.2-.65,1.67,1.67,0,0,1-.39-1.16,1.87,1.87,0,0,1,.21-.91,2,2,0,0,1,.58-.66,2.66,2.66,0,0,1,.86-.4,3.82,3.82,0,0,1,1-.14,3.9,3.9,0,0,1,1,.12,2.69,2.69,0,0,1,.85.38,2,2,0,0,1,.59.64,1.89,1.89,0,0,1,.23.91h-1.22a1,1,0,0,0-.13-.43,1.07,1.07,0,0,0-.3-.34,1.53,1.53,0,0,0-.46-.22,2.09,2.09,0,0,0-.59-.08,2.46,2.46,0,0,0-.55.06,1.43,1.43,0,0,0-.46.19,1,1,0,0,0-.31.32.87.87,0,0,0-.12.46.83.83,0,0,0,.06.33.68.68,0,0,0,.17.23.9.9,0,0,0,.26.16l.34.11,1.68.44a3.09,3.09,0,0,1,1.42.72A1.69,1.69,0,0,1,463.64,24Z"/><path class="cls-4" d="M466.1,18.9v4.48a1.9,1.9,0,0,0,.41,1.33,1.68,1.68,0,0,0,1.29.44,1.73,1.73,0,0,0,1.29-.42,1.86,1.86,0,0,0,.41-1.34V18.9h1.25v4.53a2.74,2.74,0,0,1-.75,2,3,3,0,0,1-2.2.75,4,4,0,0,1-1.27-.19,2.34,2.34,0,0,1-1.5-1.46,3.35,3.35,0,0,1-.18-1.13V18.9Z"/><path class="cls-4" d="M473.72,18.9l3.4,5.3h0V18.9h1.19V26h-1.27l-3.4-5.3h0V26h-1.19V18.9Z"/><path class="cls-4" d="M460.45,30.75a2.22,2.22,0,0,1,1.93.94,4.77,4.77,0,0,1,.66,2.75,4.87,4.87,0,0,1-.66,2.79,2.44,2.44,0,0,1-3.85,0,4.84,4.84,0,0,1-.66-2.79,4.79,4.79,0,0,1,.66-2.76A2.2,2.2,0,0,1,460.45,30.75ZM459,34.45a8.51,8.51,0,0,0,.06,1,3.45,3.45,0,0,0,.22.89,1.53,1.53,0,0,0,.43.62,1.07,1.07,0,0,0,.71.23,1.14,1.14,0,0,0,.52-.11,1.16,1.16,0,0,0,.38-.31,1.78,1.78,0,0,0,.26-.47,3.52,3.52,0,0,0,.16-.57,5.47,5.47,0,0,0,.08-.64q0-.33,0-.66a8,8,0,0,0-.07-1.06,3.17,3.17,0,0,0-.23-.87,1.52,1.52,0,0,0-.44-.59,1.1,1.1,0,0,0-.7-.22,1.08,1.08,0,0,0-.5.11,1.16,1.16,0,0,0-.37.31,1.66,1.66,0,0,0-.26.46,3.45,3.45,0,0,0-.16.57,5.27,5.27,0,0,0-.09.63Q459,34.12,459,34.45Z"/><path class="cls-4" d="M469.27,36a2,2,0,0,1-.74,1.62,2.87,2.87,0,0,1-1.87.6,2.9,2.9,0,0,1-1.89-.6A2,2,0,0,1,464,36a2,2,0,0,1,.1-.63,1.73,1.73,0,0,1,.27-.52,1.69,1.69,0,0,1,.43-.4,1.8,1.8,0,0,1,.58-.24v0a1.51,1.51,0,0,1-.82-.56,1.6,1.6,0,0,1-.28-.95,1.66,1.66,0,0,1,.68-1.38,2.63,2.63,0,0,1,1.65-.52,2.43,2.43,0,0,1,1.68.56,1.7,1.7,0,0,1,.63,1.31,1.8,1.8,0,0,1-.07.51,1.52,1.52,0,0,1-.21.44,1.46,1.46,0,0,1-.34.35,1.66,1.66,0,0,1-.47.24v0a1.71,1.71,0,0,1,1,.63A1.87,1.87,0,0,1,469.27,36Zm-1.16,0a1.21,1.21,0,0,0-.4-.93,1.49,1.49,0,0,0-1.05-.37,1.57,1.57,0,0,0-1.05.35,1.19,1.19,0,0,0-.41.94,1.27,1.27,0,0,0,.42,1,1.49,1.49,0,0,0,1.05.38,1.44,1.44,0,0,0,1-.37A1.27,1.27,0,0,0,468.11,35.93Zm-.21-3.19a1.18,1.18,0,0,0-.09-.47.86.86,0,0,0-.27-.35,1.54,1.54,0,0,0-1.79,0,1,1,0,0,0-.35.78,1,1,0,0,0,.34.79,1.54,1.54,0,0,0,1.82,0A1,1,0,0,0,467.9,32.74Z"/><path class="cls-4" d="M470.57,38.2h-.92l2.9-7.47h.91Z"/><path class="cls-4" d="M476.34,30.76a3,3,0,0,1,.86.12,2.28,2.28,0,0,1,.73.36,1.81,1.81,0,0,1,.51.6,1.75,1.75,0,0,1,.19.84,1.77,1.77,0,0,1-.07.51,1.51,1.51,0,0,1-.21.44A1.35,1.35,0,0,1,478,34a1.53,1.53,0,0,1-.47.22v0a1.62,1.62,0,0,1,1,.6,1.73,1.73,0,0,1,.35,1.08,2.08,2.08,0,0,1-.74,1.66,2.76,2.76,0,0,1-1.86.63,3.2,3.2,0,0,1-1-.15,2.45,2.45,0,0,1-.81-.43,2.07,2.07,0,0,1-.56-.7,2.12,2.12,0,0,1-.21-1v-.11h1.11V36a1.2,1.2,0,0,0,.41.93,1.33,1.33,0,0,0,.44.25,1.58,1.58,0,0,0,.53.09,1.51,1.51,0,0,0,1.07-.37,1.21,1.21,0,0,0,.4-.93,1.12,1.12,0,0,0-.37-.91,1.83,1.83,0,0,0-1.22-.32h-.29v-.85h.36a1.55,1.55,0,0,0,1-.29.92.92,0,0,0,.33-.75,1.16,1.16,0,0,0-.1-.49.93.93,0,0,0-.26-.34,1.11,1.11,0,0,0-.39-.2,1.64,1.64,0,0,0-.47-.07,1.4,1.4,0,0,0-.5.08,1.17,1.17,0,0,0-.67.64A1.35,1.35,0,0,0,475,33h-1.11a2.34,2.34,0,0,1,.19-.87,2.13,2.13,0,0,1,.49-.7,2.31,2.31,0,0,1,.76-.47A2.74,2.74,0,0,1,476.34,30.76Z"/><path class="cls-4" d="M482.53,30.75a2.22,2.22,0,0,1,1.93.94,4.77,4.77,0,0,1,.66,2.75,4.87,4.87,0,0,1-.66,2.79,2.44,2.44,0,0,1-3.85,0,4.84,4.84,0,0,1-.66-2.79,4.79,4.79,0,0,1,.66-2.76A2.2,2.2,0,0,1,482.53,30.75Zm-1.42,3.7a8.51,8.51,0,0,0,.06,1,3.49,3.49,0,0,0,.22.89,1.53,1.53,0,0,0,.43.62,1.07,1.07,0,0,0,.71.23,1.14,1.14,0,0,0,.52-.11,1.16,1.16,0,0,0,.38-.31,1.78,1.78,0,0,0,.26-.47,3.52,3.52,0,0,0,.16-.57,5.47,5.47,0,0,0,.08-.64q0-.33,0-.66a8,8,0,0,0-.07-1.06,3.17,3.17,0,0,0-.23-.87,1.52,1.52,0,0,0-.44-.59,1.1,1.1,0,0,0-.7-.22,1.08,1.08,0,0,0-.5.11,1.17,1.17,0,0,0-.37.31,1.69,1.69,0,0,0-.26.46,3.45,3.45,0,0,0-.16.57,5.27,5.27,0,0,0-.09.63Q481.11,34.12,481.11,34.45Z"/><path class="cls-4" d="M507.87,26V20.3h0l-2,5.73h-1.08l-2-5.7h0V26h-1.18V18.91h1.83l2,5.56h0l1.91-5.56h1.82V26Z"/><path class="cls-4" d="M517.34,22.48a3.86,3.86,0,0,1-.95,2.66,3.21,3.21,0,0,1-2.51,1.05,3.65,3.65,0,0,1-1.37-.24,3.2,3.2,0,0,1-1.1-.75,3.36,3.36,0,0,1-.75-1.21,4.46,4.46,0,0,1-.25-1.51,3.89,3.89,0,0,1,.95-2.7,3.21,3.21,0,0,1,2.51-1.05,3.7,3.7,0,0,1,1.37.25,3,3,0,0,1,1.1.76A3.36,3.36,0,0,1,517.1,21,4.74,4.74,0,0,1,517.34,22.48Zm-1.25,0a3.07,3.07,0,0,0-.59-2,2.14,2.14,0,0,0-3.25,0,3.08,3.08,0,0,0-.58,2,3,3,0,0,0,.58,1.91,2.16,2.16,0,0,0,3.26,0A3,3,0,0,0,516.09,22.48Z"/><path class="cls-4" d="M520,18.9l3.4,5.3h0V18.9h1.19V26h-1.27l-3.4-5.3h0V26h-1.19V18.9Z"/><path class="cls-4" d="M503.69,30.75a2.22,2.22,0,0,1,1.93.94,4.77,4.77,0,0,1,.66,2.75,4.87,4.87,0,0,1-.66,2.79,2.44,2.44,0,0,1-3.85,0,4.84,4.84,0,0,1-.66-2.79,4.79,4.79,0,0,1,.66-2.76A2.2,2.2,0,0,1,503.69,30.75Zm-1.42,3.7a8.51,8.51,0,0,0,.06,1,3.45,3.45,0,0,0,.22.89A1.53,1.53,0,0,0,503,37a1.07,1.07,0,0,0,.71.23,1.14,1.14,0,0,0,.52-.11,1.16,1.16,0,0,0,.38-.31,1.78,1.78,0,0,0,.26-.47,3.52,3.52,0,0,0,.16-.57,5.47,5.47,0,0,0,.08-.64q0-.33,0-.66a8,8,0,0,0-.07-1.06,3.17,3.17,0,0,0-.23-.87,1.52,1.52,0,0,0-.44-.59,1.1,1.1,0,0,0-.7-.22,1.08,1.08,0,0,0-.5.11,1.16,1.16,0,0,0-.37.31,1.66,1.66,0,0,0-.26.46,3.45,3.45,0,0,0-.16.57,5.27,5.27,0,0,0-.09.63Q502.27,34.12,502.27,34.45Z"/><path class="cls-4" d="M512.51,36a2,2,0,0,1-.74,1.62,2.87,2.87,0,0,1-1.87.6,2.9,2.9,0,0,1-1.89-.6,2,2,0,0,1-.74-1.61,2,2,0,0,1,.1-.63,1.73,1.73,0,0,1,.27-.52,1.69,1.69,0,0,1,.43-.4,1.8,1.8,0,0,1,.58-.24v0a1.51,1.51,0,0,1-.82-.56,1.6,1.6,0,0,1-.28-.95,1.66,1.66,0,0,1,.68-1.38,2.63,2.63,0,0,1,1.65-.52,2.43,2.43,0,0,1,1.68.56,1.7,1.7,0,0,1,.63,1.31,1.8,1.8,0,0,1-.07.51,1.52,1.52,0,0,1-.21.44,1.46,1.46,0,0,1-.34.35,1.66,1.66,0,0,1-.47.24v0a1.71,1.71,0,0,1,1,.63A1.87,1.87,0,0,1,512.51,36Zm-1.16,0a1.21,1.21,0,0,0-.4-.93,1.49,1.49,0,0,0-1.05-.37,1.57,1.57,0,0,0-1.05.35,1.19,1.19,0,0,0-.41.94,1.27,1.27,0,0,0,.42,1,1.49,1.49,0,0,0,1.05.38,1.44,1.44,0,0,0,1-.37A1.27,1.27,0,0,0,511.35,35.93Zm-.21-3.19a1.18,1.18,0,0,0-.09-.47.86.86,0,0,0-.27-.35A1.54,1.54,0,0,0,509,32a1,1,0,0,0-.35.78,1,1,0,0,0,.34.79,1.54,1.54,0,0,0,1.82,0A1,1,0,0,0,511.13,32.74Z"/><path class="cls-4" d="M513.8,38.2h-.92l2.9-7.47h.91Z"/><path class="cls-4" d="M519.58,30.76a3,3,0,0,1,.86.12,2.28,2.28,0,0,1,.73.36,1.81,1.81,0,0,1,.51.6,1.75,1.75,0,0,1,.19.84,1.77,1.77,0,0,1-.07.51,1.51,1.51,0,0,1-.21.44,1.35,1.35,0,0,1-.34.34,1.53,1.53,0,0,1-.47.22v0a1.62,1.62,0,0,1,1,.6,1.73,1.73,0,0,1,.35,1.08,2.08,2.08,0,0,1-.74,1.66,2.76,2.76,0,0,1-1.86.63,3.2,3.2,0,0,1-1-.15,2.45,2.45,0,0,1-.81-.43,2.07,2.07,0,0,1-.56-.7,2.12,2.12,0,0,1-.21-1v-.11h1.11V36a1.2,1.2,0,0,0,.41.93,1.33,1.33,0,0,0,.44.25,1.58,1.58,0,0,0,.53.09,1.51,1.51,0,0,0,1.07-.37,1.21,1.21,0,0,0,.4-.93,1.12,1.12,0,0,0-.37-.91,1.83,1.83,0,0,0-1.22-.32h-.29v-.85h.36a1.55,1.55,0,0,0,1-.29.92.92,0,0,0,.33-.75,1.16,1.16,0,0,0-.1-.49.93.93,0,0,0-.26-.34,1.11,1.11,0,0,0-.39-.2,1.64,1.64,0,0,0-.47-.07,1.4,1.4,0,0,0-.5.08,1.17,1.17,0,0,0-.67.64,1.35,1.35,0,0,0-.11.53h-1.11a2.34,2.34,0,0,1,.19-.87,2.13,2.13,0,0,1,.49-.7,2.31,2.31,0,0,1,.76-.47A2.74,2.74,0,0,1,519.58,30.76Z"/><path class="cls-4" d="M525.14,38V33.14H523.3v-.87a4.93,4.93,0,0,0,.75-.06,2,2,0,0,0,.52-.15,1.31,1.31,0,0,0,.53-.46,1.84,1.84,0,0,0,.26-.74h.93V38Z"/><rect class="cls-1" x="20.5" y="140.5" width="43" height="31"/><path class="cls-3" d="M63,141v30H21V141H63m1-1H20v32H64V140Z"/><rect class="cls-1" x="20.5" y="78.5" width="43" height="31"/><path class="cls-3" d="M63,79v30H21V79H63m1-1H20v32H64V78Z"/><rect class="cls-1" x="20.5" y="47.5" width="43" height="31"/><path class="cls-3" d="M63,48V78H21V48H63m1-1H20V79H64V47Z"/><rect class="cls-1" x="63.5" y="140.5" width="43" height="31"/><path class="cls-3" d="M106,141v30H64V141h42m1-1H63v32h44V140Z"/><rect class="cls-1" x="63.5" y="109.5" width="43" height="31"/><path class="cls-3" d="M106,110v30H64V110h42m1-1H63v32h44V109Z"/><rect class="cls-1" x="63.5" y="78.5" width="43" height="31"/><path class="cls-3" d="M106,79v30H64V79h42m1-1H63v32h44V78Z"/><rect class="cls-1" x="63.5" y="47.5" width="43" height="31"/><path class="cls-3" d="M106,48V78H64V48h42m1-1H63V79h44V47Z"/><path class="cls-5" d="M89.15,68V61.54H86.86V61q.53,0,.9-.06a2.36,2.36,0,0,0,.57-.13,1.3,1.3,0,0,0,.64-.52,2.46,2.46,0,0,0,.31-1h.63V68Z"/><path class="cls-5" d="M96.1,59.24a2.87,2.87,0,0,1,1.32.29,2.48,2.48,0,0,1,.94.85,4.14,4.14,0,0,1,.57,1.39,8.64,8.64,0,0,1,.19,1.92A5.94,5.94,0,0,1,98.35,67a2.82,2.82,0,0,1-4.49,0,5.89,5.89,0,0,1-.77-3.34,5.89,5.89,0,0,1,.77-3.35A2.56,2.56,0,0,1,96.1,59.24Zm-2.23,4.45q0,3.81,2.23,3.81t2.24-3.81a5.64,5.64,0,0,0-.57-2.84,1.84,1.84,0,0,0-1.68-1,1.82,1.82,0,0,0-1.65.94A5.63,5.63,0,0,0,93.87,63.69Z"/><path class="cls-5" d="M96.1,90.24a2.87,2.87,0,0,1,1.32.29,2.48,2.48,0,0,1,.94.85,4.14,4.14,0,0,1,.57,1.39,8.64,8.64,0,0,1,.19,1.92A5.94,5.94,0,0,1,98.35,98a2.82,2.82,0,0,1-4.49,0,7.62,7.62,0,0,1,0-6.69A2.56,2.56,0,0,1,96.1,90.24Zm-2.23,4.45q0,3.81,2.23,3.81t2.24-3.81a5.64,5.64,0,0,0-.57-2.84,1.84,1.84,0,0,0-1.68-1,1.82,1.82,0,0,0-1.65.94A5.63,5.63,0,0,0,93.87,94.69Z"/><path class="cls-5" d="M91.51,121.41v.72H87.73l-.54,2.78,0,0a2.32,2.32,0,0,1,.82-.52,2.79,2.79,0,0,1,1-.18,3.18,3.18,0,0,1,1.2.22,2.6,2.6,0,0,1,.92.61,2.73,2.73,0,0,1,.59.94,3.43,3.43,0,0,1,.21,1.22,2.81,2.81,0,0,1-.23,1.14,2.94,2.94,0,0,1-1.61,1.56,3.12,3.12,0,0,1-1.2.23,3.29,3.29,0,0,1-1.1-.17,2.59,2.59,0,0,1-.85-.48,2.26,2.26,0,0,1-.56-.74,2.52,2.52,0,0,1-.23-1h.79a1.84,1.84,0,0,0,.16.64,1.65,1.65,0,0,0,.4.54,2,2,0,0,0,.62.37,2.29,2.29,0,0,0,.83.14,2.06,2.06,0,0,0,.87-.18,2.14,2.14,0,0,0,.7-.5,2.4,2.4,0,0,0,.46-.75,2.49,2.49,0,0,0,.17-.92,2.41,2.41,0,0,0-.16-.86,2.12,2.12,0,0,0-1.14-1.2,2.2,2.2,0,0,0-.91-.18,2.55,2.55,0,0,0-1.07.23,2.22,2.22,0,0,0-.85.68h-.66l.81-4.38Z"/><path class="cls-5" d="M96.1,121.24a2.87,2.87,0,0,1,1.32.29,2.48,2.48,0,0,1,.94.85,4.14,4.14,0,0,1,.57,1.39,8.64,8.64,0,0,1,.19,1.92,5.94,5.94,0,0,1-.77,3.35,2.82,2.82,0,0,1-4.49,0,7.62,7.62,0,0,1,0-6.69A2.56,2.56,0,0,1,96.1,121.24Zm-2.23,4.45q0,3.81,2.23,3.81t2.24-3.81a5.64,5.64,0,0,0-.57-2.84,1.84,1.84,0,0,0-1.68-1,1.82,1.82,0,0,0-1.65.94A5.63,5.63,0,0,0,93.87,125.69Z"/><path class="cls-5" d="M89.08,152.24a2.81,2.81,0,0,1,2,.66,2.28,2.28,0,0,1,.73,1.78,2.82,2.82,0,0,1-.55,1.66,7,7,0,0,1-2,1.66,8.29,8.29,0,0,0-1.66,1.23,2,2,0,0,0-.56,1h4.81V161H86.1a3,3,0,0,1,.56-1.74,6.61,6.61,0,0,1,1.93-1.66,8.78,8.78,0,0,0,1.89-1.48,2.11,2.11,0,0,0,.51-1.41,1.64,1.64,0,0,0-.54-1.28,2,2,0,0,0-1.4-.49,2,2,0,0,0-.86.17,1.82,1.82,0,0,0-.61.44,1.77,1.77,0,0,0-.36.62,2.2,2.2,0,0,0-.12.71V155h-.77v-.12a2.93,2.93,0,0,1,.17-1,2.42,2.42,0,0,1,.51-.84,2.47,2.47,0,0,1,.86-.59A3.06,3.06,0,0,1,89.08,152.24Z"/><path class="cls-5" d="M98.54,152.41v.72H94.76l-.54,2.78,0,0a2.32,2.32,0,0,1,.82-.52,2.79,2.79,0,0,1,1-.18,3.18,3.18,0,0,1,1.2.22,2.6,2.6,0,0,1,.92.61,2.73,2.73,0,0,1,.59.94,3.43,3.43,0,0,1,.21,1.22,2.81,2.81,0,0,1-.23,1.14,2.94,2.94,0,0,1-1.61,1.56,3.12,3.12,0,0,1-1.2.23,3.29,3.29,0,0,1-1.1-.17,2.59,2.59,0,0,1-.85-.48,2.26,2.26,0,0,1-.56-.74,2.52,2.52,0,0,1-.23-1H94a1.84,1.84,0,0,0,.16.64,1.65,1.65,0,0,0,.4.54,2,2,0,0,0,.62.37,2.29,2.29,0,0,0,.83.14,2.06,2.06,0,0,0,.87-.18,2.14,2.14,0,0,0,.7-.5,2.4,2.4,0,0,0,.46-.75,2.49,2.49,0,0,0,.17-.92,2.41,2.41,0,0,0-.16-.86,2.12,2.12,0,0,0-1.14-1.2,2.2,2.2,0,0,0-.91-.18,2.55,2.55,0,0,0-1.07.23,2.22,2.22,0,0,0-.85.68h-.66l.81-4.38Z"/><rect class="cls-1" x="192.5" y="109.5" width="43" height="31"/><path class="cls-3" d="M235,110v30H193V110h42m1-1H192v32h44V109Z"/><rect class="cls-1" x="192.5" y="78.5" width="43" height="31"/><path class="cls-3" d="M235,79v30H193V79h42m1-1H192v32h44V78Z"/><rect class="cls-1" x="192.5" y="47.5" width="43" height="31"/><path class="cls-3" d="M235,48V78H193V48h42m1-1H192V79h44V47Z"/><rect class="cls-1" x="235.5" y="140.5" width="43" height="31"/><path class="cls-3" d="M278,141v30H236V141h42m1-1H235v32h44V140Z"/><rect class="cls-1" x="235.5" y="109.5" width="43" height="31"/><path class="cls-3" d="M278,110v30H236V110h42m1-1H235v32h44V109Z"/><rect class="cls-1" x="278.5" y="140.5" width="43" height="31"/><path class="cls-3" d="M321,141v30H279V141h42m1-1H278v32h44V140Z"/><rect class="cls-1" x="278.5" y="109.5" width="43" height="31"/><path class="cls-3" d="M321,110v30H279V110h42m1-1H278v32h44V109Z"/><rect class="cls-1" x="235.5" y="78.5" width="43" height="31"/><path class="cls-3" d="M278,79v30H236V79h42m1-1H235v32h44V78Z"/><rect class="cls-1" x="278.5" y="78.5" width="43" height="31"/><path class="cls-3" d="M321,79v30H279V79h42m1-1H278v32h44V78Z"/><rect class="cls-1" x="321.5" y="140.5" width="43" height="31"/><path class="cls-3" d="M364,141v30H322V141h42m1-1H321v32h44V140Z"/><rect class="cls-6" x="322" y="110" width="42" height="30"/><rect class="cls-1" x="321.5" y="78.5" width="43" height="31"/><path class="cls-3" d="M364,79v30H322V79h42m1-1H321v32h44V78Z"/><rect class="cls-1" x="321.5" y="47.5" width="43" height="31"/><path class="cls-3" d="M364,48V78H322V48h42m1-1H321V79h44V47Z"/><rect class="cls-1" x="364.5" y="140.5" width="43" height="31"/><path class="cls-3" d="M407,141v30H365V141h42m1-1H364v32h44V140Z"/><rect class="cls-1" x="364.5" y="109.5" width="43" height="31"/><path class="cls-3" d="M407,110v30H365V110h42m1-1H364v32h44V109Z"/><rect class="cls-1" x="364.5" y="78.5" width="43" height="31"/><path class="cls-3" d="M407,79v30H365V79h42m1-1H364v32h44V78Z"/><rect class="cls-1" x="364.5" y="47.5" width="43" height="31"/><path class="cls-3" d="M407,48V78H365V48h42m1-1H364V79h44V47Z"/><path class="cls-5" d="M398.77,65.82V68h-.71V65.82h-4v-.75l4-5.75h.7v5.85h1.3v.66Zm-.71-5.36h0l-3.27,4.71h3.29Z"/><path class="cls-5" d="M397.1,90.24a2.87,2.87,0,0,1,1.32.29,2.48,2.48,0,0,1,.94.85,4.14,4.14,0,0,1,.57,1.39,8.64,8.64,0,0,1,.19,1.92,5.94,5.94,0,0,1-.77,3.35,2.82,2.82,0,0,1-4.49,0,7.62,7.62,0,0,1,0-6.69A2.56,2.56,0,0,1,397.1,90.24Zm-2.23,4.45q0,3.81,2.23,3.81t2.24-3.81a5.64,5.64,0,0,0-.57-2.84,1.84,1.84,0,0,0-1.68-1,1.82,1.82,0,0,0-1.65.94A5.63,5.63,0,0,0,394.87,94.69Z"/><path class="cls-5" d="M386,126.13v.7h-3v-.7Z"/><path class="cls-5" d="M390.15,130v-6.43h-2.29V123q.53,0,.9-.06a2.36,2.36,0,0,0,.57-.13,1.3,1.3,0,0,0,.64-.52,2.46,2.46,0,0,0,.31-1h.63V130Z"/><path class="cls-5" d="M397.1,121.24a2.87,2.87,0,0,1,1.32.29,2.48,2.48,0,0,1,.94.85,4.14,4.14,0,0,1,.57,1.39,8.64,8.64,0,0,1,.19,1.92,5.94,5.94,0,0,1-.77,3.35,2.82,2.82,0,0,1-4.49,0,7.62,7.62,0,0,1,0-6.69A2.56,2.56,0,0,1,397.1,121.24Zm-2.23,4.45q0,3.81,2.23,3.81t2.24-3.81a5.64,5.64,0,0,0-.57-2.84,1.84,1.84,0,0,0-1.68-1,1.82,1.82,0,0,0-1.65.94A5.63,5.63,0,0,0,394.87,125.69Z"/><path class="cls-5" d="M386,157.13v.7h-3v-.7Z"/><path class="cls-5" d="M390.15,161v-6.43h-2.29V154q.53,0,.9-.06a2.36,2.36,0,0,0,.57-.13,1.3,1.3,0,0,0,.64-.52,2.46,2.46,0,0,0,.31-1h.63V161Z"/><path class="cls-5" d="M397.1,152.24a2.87,2.87,0,0,1,1.32.29,2.48,2.48,0,0,1,.94.85,4.14,4.14,0,0,1,.57,1.39,8.64,8.64,0,0,1,.19,1.92,5.94,5.94,0,0,1-.77,3.35,2.82,2.82,0,0,1-4.49,0,7.62,7.62,0,0,1,0-6.69A2.56,2.56,0,0,1,397.1,152.24Zm-2.23,4.45q0,3.81,2.23,3.81t2.24-3.81a5.64,5.64,0,0,0-.57-2.84,1.84,1.84,0,0,0-1.68-1,1.82,1.82,0,0,0-1.65.94A5.63,5.63,0,0,0,394.87,156.69Z"/><rect class="cls-1" x="493.5" y="109.5" width="43" height="31"/><path class="cls-3" d="M536,110v30H494V110h42m1-1H493v32h44V109Z"/><rect class="cls-1" x="493.5" y="78.5" width="43" height="31"/><path class="cls-3" d="M536,79v30H494V79h42m1-1H493v32h44V78Z"/><rect class="cls-1" x="493.5" y="47.5" width="43" height="31"/><path class="cls-3" d="M536,48V78H494V48h42m1-1H493V79h44V47Z"/><rect class="cls-1" x="21.5" y="110.5" width="41" height="29"/><path class="cls-7" d="M62,111v28H22V111H62m1-1H21v30H63V110Z"/><path class="cls-3" d="M63,110v30H21V110H63m1-1H20v32H64V109Z"/><path class="cls-5" d="M46.15,68V61.54H43.86V61q.53,0,.9-.06a2.36,2.36,0,0,0,.57-.13,1.3,1.3,0,0,0,.64-.52,2.46,2.46,0,0,0,.31-1h.63V68Z"/><path class="cls-5" d="M53.1,59.24a2.87,2.87,0,0,1,1.32.29,2.48,2.48,0,0,1,.94.85,4.14,4.14,0,0,1,.57,1.39,8.64,8.64,0,0,1,.19,1.92A5.94,5.94,0,0,1,55.35,67a2.82,2.82,0,0,1-4.49,0,5.89,5.89,0,0,1-.77-3.34,5.89,5.89,0,0,1,.77-3.35A2.56,2.56,0,0,1,53.1,59.24Zm-2.23,4.45q0,3.81,2.23,3.81t2.24-3.81a5.64,5.64,0,0,0-.57-2.84,1.84,1.84,0,0,0-1.68-1,1.82,1.82,0,0,0-1.65.94A5.63,5.63,0,0,0,50.87,63.69Z"/><path class="cls-5" d="M53.1,90.24a2.87,2.87,0,0,1,1.32.29,2.48,2.48,0,0,1,.94.85,4.14,4.14,0,0,1,.57,1.39,8.64,8.64,0,0,1,.19,1.92A5.94,5.94,0,0,1,55.35,98a2.82,2.82,0,0,1-4.49,0,7.62,7.62,0,0,1,0-6.69A2.56,2.56,0,0,1,53.1,90.24Zm-2.23,4.45q0,3.81,2.23,3.81t2.24-3.81a5.64,5.64,0,0,0-.57-2.84,1.84,1.84,0,0,0-1.68-1,1.82,1.82,0,0,0-1.65.94A5.63,5.63,0,0,0,50.87,94.69Z"/><path class="cls-8" d="M48.67,121.41v1.18H45l-.42,2.24,0,0a2.3,2.3,0,0,1,.75-.5,2.57,2.57,0,0,1,1-.17,2.81,2.81,0,0,1,1.14.22,2.53,2.53,0,0,1,.86.62,2.71,2.71,0,0,1,.55.93,3.47,3.47,0,0,1,.19,1.17,2.93,2.93,0,0,1-.24,1.17,3,3,0,0,1-.66,1,3.13,3.13,0,0,1-1,.65,3.22,3.22,0,0,1-1.25.24,4.16,4.16,0,0,1-1.15-.15,2.71,2.71,0,0,1-.93-.46,2.33,2.33,0,0,1-.64-.76A2.65,2.65,0,0,1,43,127.7h1.4a1.51,1.51,0,0,0,.14.5,1.33,1.33,0,0,0,.31.41,1.41,1.41,0,0,0,.48.28,2,2,0,0,0,.65.1,1.67,1.67,0,0,0,.73-.16,1.7,1.7,0,0,0,.55-.42,1.85,1.85,0,0,0,.35-.61,2.17,2.17,0,0,0,.12-.73,2.11,2.11,0,0,0-.12-.7,1.65,1.65,0,0,0-.89-1,1.74,1.74,0,0,0-.74-.15,1.76,1.76,0,0,0-1.52.76H43.2l.84-4.6Z"/><path class="cls-8" d="M53.09,121.23a2.66,2.66,0,0,1,2.32,1.13,5.72,5.72,0,0,1,.79,3.3,5.83,5.83,0,0,1-.79,3.35,2.92,2.92,0,0,1-4.62,0,5.81,5.81,0,0,1-.79-3.35,5.74,5.74,0,0,1,.79-3.31A2.64,2.64,0,0,1,53.09,121.23Zm-1.7,4.44a10.28,10.28,0,0,0,.07,1.25,4.18,4.18,0,0,0,.26,1.06,1.83,1.83,0,0,0,.52.74,1.28,1.28,0,0,0,.85.28,1.31,1.31,0,0,0,1.08-.51,2.12,2.12,0,0,0,.31-.56,4.17,4.17,0,0,0,.2-.69,6.33,6.33,0,0,0,.1-.77q0-.4,0-.8a9.63,9.63,0,0,0-.08-1.27,3.8,3.8,0,0,0-.28-1,1.82,1.82,0,0,0-.53-.71,1.32,1.32,0,0,0-.84-.26,1.29,1.29,0,0,0-.6.13,1.39,1.39,0,0,0-.45.37,2,2,0,0,0-.31.55,4.32,4.32,0,0,0-.19.68,6.52,6.52,0,0,0-.11.76Q51.4,125.27,51.4,125.67Z"/><path class="cls-5" d="M46.08,152.24a2.81,2.81,0,0,1,2,.66,2.28,2.28,0,0,1,.73,1.78,2.82,2.82,0,0,1-.55,1.66,7,7,0,0,1-2,1.66,8.29,8.29,0,0,0-1.66,1.23,2,2,0,0,0-.56,1h4.81V161H43.1a3,3,0,0,1,.56-1.74,6.61,6.61,0,0,1,1.93-1.66,8.78,8.78,0,0,0,1.89-1.48,2.11,2.11,0,0,0,.51-1.41,1.64,1.64,0,0,0-.54-1.28,2,2,0,0,0-1.4-.49,2,2,0,0,0-.86.17,1.82,1.82,0,0,0-.61.44,1.77,1.77,0,0,0-.36.62,2.2,2.2,0,0,0-.12.71V155h-.77v-.12a2.93,2.93,0,0,1,.17-1,2.42,2.42,0,0,1,.51-.84,2.47,2.47,0,0,1,.86-.59A3.06,3.06,0,0,1,46.08,152.24Z"/><path class="cls-5" d="M55.54,152.41v.72H51.76l-.54,2.78,0,0a2.32,2.32,0,0,1,.82-.52,2.79,2.79,0,0,1,1-.18,3.18,3.18,0,0,1,1.2.22,2.6,2.6,0,0,1,.92.61,2.73,2.73,0,0,1,.59.94,3.43,3.43,0,0,1,.21,1.22,2.81,2.81,0,0,1-.23,1.14,2.94,2.94,0,0,1-1.61,1.56,3.12,3.12,0,0,1-1.2.23,3.29,3.29,0,0,1-1.1-.17,2.59,2.59,0,0,1-.85-.48,2.26,2.26,0,0,1-.56-.74,2.52,2.52,0,0,1-.23-1H51a1.84,1.84,0,0,0,.16.64,1.65,1.65,0,0,0,.4.54,2,2,0,0,0,.62.37,2.29,2.29,0,0,0,.83.14,2.06,2.06,0,0,0,.87-.18,2.14,2.14,0,0,0,.7-.5,2.4,2.4,0,0,0,.46-.75,2.49,2.49,0,0,0,.17-.92,2.41,2.41,0,0,0-.16-.86,2.12,2.12,0,0,0-1.14-1.2,2.2,2.2,0,0,0-.91-.18,2.55,2.55,0,0,0-1.07.23,2.22,2.22,0,0,0-.85.68h-.66l.81-4.38Z"/><polygon class="cls-7" points="22 121 32 111 22 111 22 121"/><path class="cls-5" d="M132.15,68V61.54h-2.29V61q.53,0,.9-.06a2.36,2.36,0,0,0,.57-.13,1.3,1.3,0,0,0,.64-.52,2.46,2.46,0,0,0,.31-1h.63V68Z"/><path class="cls-5" d="M139.1,59.24a2.87,2.87,0,0,1,1.32.29,2.48,2.48,0,0,1,.94.85,4.14,4.14,0,0,1,.57,1.39,8.64,8.64,0,0,1,.19,1.92,5.94,5.94,0,0,1-.77,3.35,2.82,2.82,0,0,1-4.49,0,5.89,5.89,0,0,1-.77-3.34,5.89,5.89,0,0,1,.77-3.35A2.56,2.56,0,0,1,139.1,59.24Zm-2.23,4.45q0,3.81,2.23,3.81t2.24-3.81a5.64,5.64,0,0,0-.57-2.84,1.84,1.84,0,0,0-1.68-1,1.82,1.82,0,0,0-1.65.94A5.63,5.63,0,0,0,136.87,63.69Z"/><path class="cls-5" d="M139.1,90.24a2.87,2.87,0,0,1,1.32.29,2.48,2.48,0,0,1,.94.85,4.14,4.14,0,0,1,.57,1.39,8.64,8.64,0,0,1,.19,1.92,5.94,5.94,0,0,1-.77,3.35,2.82,2.82,0,0,1-4.49,0,7.62,7.62,0,0,1,0-6.69A2.56,2.56,0,0,1,139.1,90.24Zm-2.23,4.45q0,3.81,2.23,3.81t2.24-3.81a5.64,5.64,0,0,0-.57-2.84,1.84,1.84,0,0,0-1.68-1,1.82,1.82,0,0,0-1.65.94A5.63,5.63,0,0,0,136.87,94.69Z"/><path class="cls-5" d="M134.51,121.41v.72h-3.78l-.54,2.78,0,0a2.32,2.32,0,0,1,.82-.52,2.79,2.79,0,0,1,1-.18,3.18,3.18,0,0,1,1.2.22,2.6,2.6,0,0,1,.92.61,2.73,2.73,0,0,1,.59.94,3.43,3.43,0,0,1,.21,1.22,2.81,2.81,0,0,1-.23,1.14,2.94,2.94,0,0,1-1.61,1.56,3.12,3.12,0,0,1-1.2.23,3.29,3.29,0,0,1-1.1-.17,2.59,2.59,0,0,1-.85-.48,2.26,2.26,0,0,1-.56-.74,2.52,2.52,0,0,1-.23-1h.79a1.84,1.84,0,0,0,.16.64,1.65,1.65,0,0,0,.4.54,2,2,0,0,0,.62.37,2.29,2.29,0,0,0,.83.14,2.06,2.06,0,0,0,.87-.18,2.14,2.14,0,0,0,.7-.5,2.4,2.4,0,0,0,.46-.75,2.49,2.49,0,0,0,.17-.92,2.41,2.41,0,0,0-.16-.86,2.12,2.12,0,0,0-1.14-1.2,2.2,2.2,0,0,0-.91-.18,2.55,2.55,0,0,0-1.07.23,2.22,2.22,0,0,0-.85.68h-.66l.81-4.38Z"/><path class="cls-5" d="M139.1,121.24a2.87,2.87,0,0,1,1.32.29,2.48,2.48,0,0,1,.94.85,4.14,4.14,0,0,1,.57,1.39,8.64,8.64,0,0,1,.19,1.92,5.94,5.94,0,0,1-.77,3.35,2.82,2.82,0,0,1-4.49,0,7.62,7.62,0,0,1,0-6.69A2.56,2.56,0,0,1,139.1,121.24Zm-2.23,4.45q0,3.81,2.23,3.81t2.24-3.81a5.64,5.64,0,0,0-.57-2.84,1.84,1.84,0,0,0-1.68-1,1.82,1.82,0,0,0-1.65.94A5.63,5.63,0,0,0,136.87,125.69Z"/><path class="cls-5" d="M132.08,152.24a2.81,2.81,0,0,1,2,.66,2.28,2.28,0,0,1,.73,1.78,2.82,2.82,0,0,1-.55,1.66,7,7,0,0,1-2,1.66,8.29,8.29,0,0,0-1.66,1.23,2,2,0,0,0-.56,1h4.81V161h-5.7a3,3,0,0,1,.56-1.74,6.61,6.61,0,0,1,1.93-1.66,8.78,8.78,0,0,0,1.89-1.48,2.11,2.11,0,0,0,.51-1.41,1.64,1.64,0,0,0-.54-1.28,2,2,0,0,0-1.4-.49,2,2,0,0,0-.86.17,1.82,1.82,0,0,0-.61.44,1.77,1.77,0,0,0-.36.62,2.2,2.2,0,0,0-.12.71V155h-.77v-.12a2.93,2.93,0,0,1,.17-1,2.42,2.42,0,0,1,.51-.84,2.47,2.47,0,0,1,.86-.59A3.06,3.06,0,0,1,132.08,152.24Z"/><path class="cls-5" d="M141.54,152.41v.72h-3.78l-.54,2.78,0,0a2.32,2.32,0,0,1,.82-.52,2.79,2.79,0,0,1,1-.18,3.18,3.18,0,0,1,1.2.22,2.6,2.6,0,0,1,.92.61,2.73,2.73,0,0,1,.59.94,3.43,3.43,0,0,1,.21,1.22,2.81,2.81,0,0,1-.23,1.14,2.94,2.94,0,0,1-1.61,1.56,3.12,3.12,0,0,1-1.2.23,3.29,3.29,0,0,1-1.1-.17,2.59,2.59,0,0,1-.85-.48,2.26,2.26,0,0,1-.56-.74,2.52,2.52,0,0,1-.23-1H137a1.84,1.84,0,0,0,.16.64,1.65,1.65,0,0,0,.4.54,2,2,0,0,0,.62.37,2.29,2.29,0,0,0,.83.14,2.06,2.06,0,0,0,.87-.18,2.14,2.14,0,0,0,.7-.5,2.4,2.4,0,0,0,.46-.75,2.49,2.49,0,0,0,.17-.92,2.41,2.41,0,0,0-.16-.86,2.12,2.12,0,0,0-1.14-1.2,2.2,2.2,0,0,0-.91-.18,2.55,2.55,0,0,0-1.07.23,2.22,2.22,0,0,0-.85.68h-.66l.81-4.38Z"/><path class="cls-5" d="M175.15,68V61.54h-2.29V61q.53,0,.9-.06a2.36,2.36,0,0,0,.57-.13,1.3,1.3,0,0,0,.64-.52,2.46,2.46,0,0,0,.31-1h.63V68Z"/><path class="cls-5" d="M182.1,59.24a2.87,2.87,0,0,1,1.32.29,2.48,2.48,0,0,1,.94.85,4.14,4.14,0,0,1,.57,1.39,8.64,8.64,0,0,1,.19,1.92,5.94,5.94,0,0,1-.77,3.35,2.82,2.82,0,0,1-4.49,0,5.89,5.89,0,0,1-.77-3.34,5.89,5.89,0,0,1,.77-3.35A2.56,2.56,0,0,1,182.1,59.24Zm-2.23,4.45q0,3.81,2.23,3.81t2.24-3.81a5.64,5.64,0,0,0-.57-2.84,1.84,1.84,0,0,0-1.68-1,1.82,1.82,0,0,0-1.65.94A5.63,5.63,0,0,0,179.87,63.69Z"/><path class="cls-5" d="M182.1,90.24a2.87,2.87,0,0,1,1.32.29,2.48,2.48,0,0,1,.94.85,4.14,4.14,0,0,1,.57,1.39,8.64,8.64,0,0,1,.19,1.92,5.94,5.94,0,0,1-.77,3.35,2.82,2.82,0,0,1-4.49,0,7.62,7.62,0,0,1,0-6.69A2.56,2.56,0,0,1,182.1,90.24Zm-2.23,4.45q0,3.81,2.23,3.81t2.24-3.81a5.64,5.64,0,0,0-.57-2.84,1.84,1.84,0,0,0-1.68-1,1.82,1.82,0,0,0-1.65.94A5.63,5.63,0,0,0,179.87,94.69Z"/><path class="cls-5" d="M177.51,121.41v.72h-3.78l-.54,2.78,0,0a2.32,2.32,0,0,1,.82-.52,2.79,2.79,0,0,1,1-.18,3.18,3.18,0,0,1,1.2.22,2.6,2.6,0,0,1,.92.61,2.73,2.73,0,0,1,.59.94,3.43,3.43,0,0,1,.21,1.22,2.81,2.81,0,0,1-.23,1.14,2.94,2.94,0,0,1-1.61,1.56,3.12,3.12,0,0,1-1.2.23,3.29,3.29,0,0,1-1.1-.17,2.59,2.59,0,0,1-.85-.48,2.26,2.26,0,0,1-.56-.74,2.52,2.52,0,0,1-.23-1h.79a1.84,1.84,0,0,0,.16.64,1.65,1.65,0,0,0,.4.54,2,2,0,0,0,.62.37,2.29,2.29,0,0,0,.83.14,2.06,2.06,0,0,0,.87-.18,2.14,2.14,0,0,0,.7-.5,2.4,2.4,0,0,0,.46-.75,2.49,2.49,0,0,0,.17-.92,2.41,2.41,0,0,0-.16-.86,2.12,2.12,0,0,0-1.14-1.2,2.2,2.2,0,0,0-.91-.18,2.55,2.55,0,0,0-1.07.23,2.22,2.22,0,0,0-.85.68h-.66l.81-4.38Z"/><path class="cls-5" d="M182.1,121.24a2.87,2.87,0,0,1,1.32.29,2.48,2.48,0,0,1,.94.85,4.14,4.14,0,0,1,.57,1.39,8.64,8.64,0,0,1,.19,1.92,5.94,5.94,0,0,1-.77,3.35,2.82,2.82,0,0,1-4.49,0,7.62,7.62,0,0,1,0-6.69A2.56,2.56,0,0,1,182.1,121.24Zm-2.23,4.45q0,3.81,2.23,3.81t2.24-3.81a5.64,5.64,0,0,0-.57-2.84,1.84,1.84,0,0,0-1.68-1,1.82,1.82,0,0,0-1.65.94A5.63,5.63,0,0,0,179.87,125.69Z"/><path class="cls-5" d="M175.08,152.24a2.81,2.81,0,0,1,2,.66,2.28,2.28,0,0,1,.73,1.78,2.82,2.82,0,0,1-.55,1.66,7,7,0,0,1-2,1.66,8.29,8.29,0,0,0-1.66,1.23,2,2,0,0,0-.56,1h4.81V161h-5.7a3,3,0,0,1,.56-1.74,6.61,6.61,0,0,1,1.93-1.66,8.78,8.78,0,0,0,1.89-1.48,2.11,2.11,0,0,0,.51-1.41,1.64,1.64,0,0,0-.54-1.28,2,2,0,0,0-1.4-.49,2,2,0,0,0-.86.17,1.82,1.82,0,0,0-.61.44,1.77,1.77,0,0,0-.36.62,2.2,2.2,0,0,0-.12.71V155h-.77v-.12a2.93,2.93,0,0,1,.17-1,2.42,2.42,0,0,1,.51-.84,2.47,2.47,0,0,1,.86-.59A3.06,3.06,0,0,1,175.08,152.24Z"/><path class="cls-5" d="M184.54,152.41v.72h-3.78l-.54,2.78,0,0a2.32,2.32,0,0,1,.82-.52,2.79,2.79,0,0,1,1-.18,3.18,3.18,0,0,1,1.2.22,2.6,2.6,0,0,1,.92.61,2.73,2.73,0,0,1,.59.94,3.43,3.43,0,0,1,.21,1.22,2.81,2.81,0,0,1-.23,1.14,2.94,2.94,0,0,1-1.61,1.56,3.12,3.12,0,0,1-1.2.23,3.29,3.29,0,0,1-1.1-.17,2.59,2.59,0,0,1-.85-.48,2.26,2.26,0,0,1-.56-.74,2.52,2.52,0,0,1-.23-1H180a1.84,1.84,0,0,0,.16.64,1.65,1.65,0,0,0,.4.54,2,2,0,0,0,.62.37,2.29,2.29,0,0,0,.83.14,2.06,2.06,0,0,0,.87-.18,2.14,2.14,0,0,0,.7-.5,2.4,2.4,0,0,0,.46-.75,2.49,2.49,0,0,0,.17-.92,2.41,2.41,0,0,0-.16-.86,2.12,2.12,0,0,0-1.14-1.2,2.2,2.2,0,0,0-.91-.18,2.55,2.55,0,0,0-1.07.23,2.22,2.22,0,0,0-.85.68h-.66l.81-4.38Z"/><rect class="cls-2" x="407.5" y="140.5" width="43" height="31"/><path class="cls-3" d="M450,141v30H408V141h42m1-1H407v32h44V140Z"/><rect class="cls-2" x="407.5" y="109.5" width="43" height="31"/><path class="cls-3" d="M450,110v30H408V110h42m1-1H407v32h44V109Z"/><rect class="cls-2" x="407.5" y="78.5" width="43" height="31"/><path class="cls-3" d="M450,79v30H408V79h42m1-1H407v32h44V78Z"/><rect class="cls-2" x="407.5" y="47.5" width="43" height="31"/><path class="cls-3" d="M450,48V78H408V48h42m1-1H407V79h44V47Z"/><path class="cls-5" d="M441.77,65.82V68h-.71V65.82h-4v-.75l4-5.75h.7v5.85h1.3v.66Zm-.71-5.36h0l-3.27,4.71h3.29Z"/><path class="cls-5" d="M440.1,90.24a2.87,2.87,0,0,1,1.32.29,2.48,2.48,0,0,1,.94.85,4.14,4.14,0,0,1,.57,1.39,8.64,8.64,0,0,1,.19,1.92,5.94,5.94,0,0,1-.77,3.35,2.82,2.82,0,0,1-4.49,0,7.62,7.62,0,0,1,0-6.69A2.56,2.56,0,0,1,440.1,90.24Zm-2.23,4.45q0,3.81,2.23,3.81t2.24-3.81a5.64,5.64,0,0,0-.57-2.84,1.84,1.84,0,0,0-1.68-1,1.82,1.82,0,0,0-1.65.94A5.63,5.63,0,0,0,437.87,94.69Z"/><path class="cls-5" d="M429,126.13v.7h-3v-.7Z"/><path class="cls-5" d="M433.15,130v-6.43h-2.29V123q.53,0,.9-.06a2.36,2.36,0,0,0,.57-.13,1.3,1.3,0,0,0,.64-.52,2.46,2.46,0,0,0,.31-1h.63V130Z"/><path class="cls-5" d="M440.1,121.24a2.87,2.87,0,0,1,1.32.29,2.48,2.48,0,0,1,.94.85,4.14,4.14,0,0,1,.57,1.39,8.64,8.64,0,0,1,.19,1.92,5.94,5.94,0,0,1-.77,3.35,2.82,2.82,0,0,1-4.49,0,7.62,7.62,0,0,1,0-6.69A2.56,2.56,0,0,1,440.1,121.24Zm-2.23,4.45q0,3.81,2.23,3.81t2.24-3.81a5.64,5.64,0,0,0-.57-2.84,1.84,1.84,0,0,0-1.68-1,1.82,1.82,0,0,0-1.65.94A5.63,5.63,0,0,0,437.87,125.69Z"/><path class="cls-5" d="M429,157.13v.7h-3v-.7Z"/><path class="cls-5" d="M433.15,161v-6.43h-2.29V154q.53,0,.9-.06a2.36,2.36,0,0,0,.57-.13,1.3,1.3,0,0,0,.64-.52,2.46,2.46,0,0,0,.31-1h.63V161Z"/><path class="cls-5" d="M440.1,152.24a2.87,2.87,0,0,1,1.32.29,2.48,2.48,0,0,1,.94.85,4.14,4.14,0,0,1,.57,1.39,8.64,8.64,0,0,1,.19,1.92,5.94,5.94,0,0,1-.77,3.35,2.82,2.82,0,0,1-4.49,0,7.62,7.62,0,0,1,0-6.69A2.56,2.56,0,0,1,440.1,152.24Zm-2.23,4.45q0,3.81,2.23,3.81t2.24-3.81a5.64,5.64,0,0,0-.57-2.84,1.84,1.84,0,0,0-1.68-1,1.82,1.82,0,0,0-1.65.94A5.63,5.63,0,0,0,437.87,156.69Z"/><rect class="cls-2" x="450.5" y="140.5" width="43" height="31"/><path class="cls-3" d="M493,141v30H451V141h42m1-1H450v32h44V140Z"/><rect class="cls-2" x="450.5" y="109.5" width="43" height="31"/><path class="cls-3" d="M493,110v30H451V110h42m1-1H450v32h44V109Z"/><rect class="cls-2" x="450.5" y="78.5" width="43" height="31"/><path class="cls-3" d="M493,79v30H451V79h42m1-1H450v32h44V78Z"/><rect class="cls-2" x="450.5" y="47.5" width="43" height="31"/><path class="cls-3" d="M493,48V78H451V48h42m1-1H450V79h44V47Z"/><path class="cls-5" d="M484.77,65.82V68h-.71V65.82h-4v-.75l4-5.75h.7v5.85h1.3v.66Zm-.71-5.36h0l-3.27,4.71h3.29Z"/><path class="cls-5" d="M483.1,90.24a2.87,2.87,0,0,1,1.32.29,2.48,2.48,0,0,1,.94.85,4.14,4.14,0,0,1,.57,1.39,8.64,8.64,0,0,1,.19,1.92,5.94,5.94,0,0,1-.77,3.35,2.82,2.82,0,0,1-4.49,0,7.62,7.62,0,0,1,0-6.69A2.56,2.56,0,0,1,483.1,90.24Zm-2.23,4.45q0,3.81,2.23,3.81t2.24-3.81a5.64,5.64,0,0,0-.57-2.84,1.84,1.84,0,0,0-1.68-1,1.82,1.82,0,0,0-1.65.94A5.63,5.63,0,0,0,480.87,94.69Z"/><path class="cls-5" d="M472,126.13v.7h-3v-.7Z"/><path class="cls-5" d="M476.15,130v-6.43h-2.29V123q.53,0,.9-.06a2.36,2.36,0,0,0,.57-.13,1.3,1.3,0,0,0,.64-.52,2.46,2.46,0,0,0,.31-1h.63V130Z"/><path class="cls-5" d="M483.1,121.24a2.87,2.87,0,0,1,1.32.29,2.48,2.48,0,0,1,.94.85,4.14,4.14,0,0,1,.57,1.39,8.64,8.64,0,0,1,.19,1.92,5.94,5.94,0,0,1-.77,3.35,2.82,2.82,0,0,1-4.49,0,7.62,7.62,0,0,1,0-6.69A2.56,2.56,0,0,1,483.1,121.24Zm-2.23,4.45q0,3.81,2.23,3.81t2.24-3.81a5.64,5.64,0,0,0-.57-2.84,1.84,1.84,0,0,0-1.68-1,1.82,1.82,0,0,0-1.65.94A5.63,5.63,0,0,0,480.87,125.69Z"/><path class="cls-5" d="M472,157.13v.7h-3v-.7Z"/><path class="cls-5" d="M476.15,161v-6.43h-2.29V154q.53,0,.9-.06a2.36,2.36,0,0,0,.57-.13,1.3,1.3,0,0,0,.64-.52,2.46,2.46,0,0,0,.31-1h.63V161Z"/><path class="cls-5" d="M483.1,152.24a2.87,2.87,0,0,1,1.32.29,2.48,2.48,0,0,1,.94.85,4.14,4.14,0,0,1,.57,1.39,8.64,8.64,0,0,1,.19,1.92,5.94,5.94,0,0,1-.77,3.35,2.82,2.82,0,0,1-4.49,0,7.62,7.62,0,0,1,0-6.69A2.56,2.56,0,0,1,483.1,152.24Zm-2.23,4.45q0,3.81,2.23,3.81t2.24-3.81a5.64,5.64,0,0,0-.57-2.84,1.84,1.84,0,0,0-1.68-1,1.82,1.82,0,0,0-1.65.94A5.63,5.63,0,0,0,480.87,156.69Z"/><line class="cls-9" x1="20" y1="47.5" x2="537" y2="47.5"/><rect class="cls-1" x="322.5" y="110.5" width="41" height="29"/><path class="cls-10" d="M363,111v28H323V111h40m1-1H322v30h42V110Z"/><path class="cls-3" d="M364,110v30H322V110h42m1-1H321v32h44V109Z"/><path class="cls-5" d="M355.77,65.82V68h-.71V65.82h-4v-.75l4-5.75h.7v5.85h1.3v.66Zm-.71-5.36h0l-3.27,4.71h3.29Z"/><path class="cls-5" d="M354.1,90.24a2.87,2.87,0,0,1,1.32.29,2.48,2.48,0,0,1,.94.85,4.14,4.14,0,0,1,.57,1.39,8.64,8.64,0,0,1,.19,1.92,5.94,5.94,0,0,1-.77,3.35,2.82,2.82,0,0,1-4.49,0,7.62,7.62,0,0,1,0-6.69A2.56,2.56,0,0,1,354.1,90.24Zm-2.23,4.45q0,3.81,2.23,3.81t2.24-3.81a5.64,5.64,0,0,0-.57-2.84,1.84,1.84,0,0,0-1.68-1,1.82,1.82,0,0,0-1.65.94A5.63,5.63,0,0,0,351.87,94.69Z"/><path class="cls-10" d="M343,125.77v1.46h-3.61v-1.46Z"/><path class="cls-10" d="M346.74,130v-5.56h-2.15V123.1a4.7,4.7,0,0,0,.89-.07,2.42,2.42,0,0,0,.65-.22,1.77,1.77,0,0,0,1-1.41h1.39V130Z"/><path class="cls-10" d="M354.09,121.22a3.13,3.13,0,0,1,1.36.28,2.57,2.57,0,0,1,1,.84,4,4,0,0,1,.61,1.38,8,8,0,0,1,.21,1.92,5.78,5.78,0,0,1-.81,3.35,3,3,0,0,1-4.69,0,5.81,5.81,0,0,1-.8-3.36,5.66,5.66,0,0,1,.8-3.29A2.68,2.68,0,0,1,354.09,121.22Zm-1.39,4.43q0,.32,0,.67a6.68,6.68,0,0,0,.06.69,4.58,4.58,0,0,0,.13.64,2,2,0,0,0,.24.54,1.19,1.19,0,0,0,.39.37,1.08,1.08,0,0,0,.56.14,1.06,1.06,0,0,0,.58-.15,1.26,1.26,0,0,0,.4-.41,2.17,2.17,0,0,0,.25-.58,5.23,5.23,0,0,0,.13-.66,6.07,6.07,0,0,0,.06-.67q0-.33,0-.59t0-.7a6.36,6.36,0,0,0-.07-.69,4,4,0,0,0-.15-.62,1.83,1.83,0,0,0-.25-.51,1.17,1.17,0,0,0-.39-.34,1.13,1.13,0,0,0-.55-.13,1,1,0,0,0-.57.15,1.25,1.25,0,0,0-.39.4,2.13,2.13,0,0,0-.24.57,5.15,5.15,0,0,0-.13.65q0,.33-.06.65T352.69,125.65Z"/><path class="cls-5" d="M343,157.13v.7h-3v-.7Z"/><path class="cls-5" d="M347.15,161v-6.43h-2.29V154q.53,0,.9-.06a2.36,2.36,0,0,0,.57-.13,1.3,1.3,0,0,0,.64-.52,2.46,2.46,0,0,0,.31-1h.63V161Z"/><path class="cls-5" d="M354.1,152.24a2.87,2.87,0,0,1,1.32.29,2.48,2.48,0,0,1,.94.85,4.14,4.14,0,0,1,.57,1.39,8.64,8.64,0,0,1,.19,1.92,5.94,5.94,0,0,1-.77,3.35,2.82,2.82,0,0,1-4.49,0,7.62,7.62,0,0,1,0-6.69A2.56,2.56,0,0,1,354.1,152.24Zm-2.23,4.45q0,3.81,2.23,3.81t2.24-3.81a5.64,5.64,0,0,0-.57-2.84,1.84,1.84,0,0,0-1.68-1,1.82,1.82,0,0,0-1.65.94A5.63,5.63,0,0,0,351.87,156.69Z"/><polygon class="cls-10" points="322 120 332 110 322 110 322 120"/><rect class="cls-1" x="494.5" y="141.5" width="41" height="29"/><path class="cls-7" d="M535,142v28H495V142h40m1-1H494v30h42V141Z"/><path class="cls-3" d="M536,141v30H494V141h42m1-1H493v32h44V140Z"/><path class="cls-5" d="M527.77,65.82V68h-.71V65.82h-4v-.75l4-5.75h.7v5.85h1.3v.66Zm-.71-5.36h0l-3.27,4.71h3.29Z"/><path class="cls-5" d="M526.1,90.24a2.87,2.87,0,0,1,1.32.29,2.48,2.48,0,0,1,.94.85,4.14,4.14,0,0,1,.57,1.39,8.64,8.64,0,0,1,.19,1.92,5.94,5.94,0,0,1-.77,3.35,2.82,2.82,0,0,1-4.49,0,7.62,7.62,0,0,1,0-6.69A2.56,2.56,0,0,1,526.1,90.24Zm-2.23,4.45q0,3.81,2.23,3.81t2.24-3.81a5.64,5.64,0,0,0-.57-2.84,1.84,1.84,0,0,0-1.68-1,1.82,1.82,0,0,0-1.65.94A5.63,5.63,0,0,0,523.87,94.69Z"/><path class="cls-5" d="M515,126.13v.7h-3v-.7Z"/><path class="cls-5" d="M519.15,130v-6.43h-2.29V123q.53,0,.9-.06a2.36,2.36,0,0,0,.57-.13,1.3,1.3,0,0,0,.64-.52,2.46,2.46,0,0,0,.31-1h.63V130Z"/><path class="cls-5" d="M526.1,121.24a2.87,2.87,0,0,1,1.32.29,2.48,2.48,0,0,1,.94.85,4.14,4.14,0,0,1,.57,1.39,8.64,8.64,0,0,1,.19,1.92,5.94,5.94,0,0,1-.77,3.35,2.82,2.82,0,0,1-4.49,0,7.62,7.62,0,0,1,0-6.69A2.56,2.56,0,0,1,526.1,121.24Zm-2.23,4.45q0,3.81,2.23,3.81t2.24-3.81a5.64,5.64,0,0,0-.57-2.84,1.84,1.84,0,0,0-1.68-1,1.82,1.82,0,0,0-1.65.94A5.63,5.63,0,0,0,523.87,125.69Z"/><path class="cls-8" d="M521,158.92v2h-1.31v-2h-3.76v-1.29l3.82-5.27H521v5.41h1.2v1.15Zm-1.31-4.82h0L517,157.77h2.65Z"/><path class="cls-8" d="M526.09,152.23a2.66,2.66,0,0,1,2.32,1.13,5.72,5.72,0,0,1,.79,3.3,5.83,5.83,0,0,1-.79,3.35,2.92,2.92,0,0,1-4.62,0,5.81,5.81,0,0,1-.79-3.35,5.74,5.74,0,0,1,.79-3.31A2.64,2.64,0,0,1,526.09,152.23Zm-1.7,4.44a10.28,10.28,0,0,0,.07,1.25,4.18,4.18,0,0,0,.26,1.06,1.83,1.83,0,0,0,.52.74,1.28,1.28,0,0,0,.85.28,1.31,1.31,0,0,0,1.08-.51,2.12,2.12,0,0,0,.31-.56,4.17,4.17,0,0,0,.2-.69,6.33,6.33,0,0,0,.1-.77q0-.4,0-.8a9.63,9.63,0,0,0-.08-1.27,3.8,3.8,0,0,0-.28-1,1.82,1.82,0,0,0-.53-.71,1.32,1.32,0,0,0-.84-.26,1.29,1.29,0,0,0-.6.13,1.39,1.39,0,0,0-.45.37,2,2,0,0,0-.31.55,4.32,4.32,0,0,0-.19.68,6.52,6.52,0,0,0-.11.76Q524.4,156.27,524.4,156.67Z"/><polygon class="cls-7" points="494 151 504 141 494 141 494 151"/><rect class="cls-1" x="193.5" y="141.5" width="41" height="29"/><path class="cls-11" d="M234,142v28H194V142h40m1-1H193v30h42V141Z"/><path class="cls-3" d="M235,141v30H193V141h42m1-1H192v32h44V140Z"/><path class="cls-5" d="M218.15,68V61.54h-2.29V61q.53,0,.9-.06a2.36,2.36,0,0,0,.57-.13,1.3,1.3,0,0,0,.64-.52,2.46,2.46,0,0,0,.31-1h.63V68Z"/><path class="cls-5" d="M225.1,59.24a2.87,2.87,0,0,1,1.32.29,2.48,2.48,0,0,1,.94.85,4.14,4.14,0,0,1,.57,1.39,8.64,8.64,0,0,1,.19,1.92,5.94,5.94,0,0,1-.77,3.35,2.82,2.82,0,0,1-4.49,0,5.89,5.89,0,0,1-.77-3.34,5.89,5.89,0,0,1,.77-3.35A2.56,2.56,0,0,1,225.1,59.24Zm-2.23,4.45q0,3.81,2.23,3.81t2.24-3.81a5.64,5.64,0,0,0-.57-2.84,1.84,1.84,0,0,0-1.68-1,1.82,1.82,0,0,0-1.65.94A5.63,5.63,0,0,0,222.87,63.69Z"/><path class="cls-5" d="M225.1,90.24a2.87,2.87,0,0,1,1.32.29,2.48,2.48,0,0,1,.94.85,4.14,4.14,0,0,1,.57,1.39,8.64,8.64,0,0,1,.19,1.92,5.94,5.94,0,0,1-.77,3.35,2.82,2.82,0,0,1-4.49,0,7.62,7.62,0,0,1,0-6.69A2.56,2.56,0,0,1,225.1,90.24Zm-2.23,4.45q0,3.81,2.23,3.81t2.24-3.81a5.64,5.64,0,0,0-.57-2.84,1.84,1.84,0,0,0-1.68-1,1.82,1.82,0,0,0-1.65.94A5.63,5.63,0,0,0,222.87,94.69Z"/><path class="cls-5" d="M220.51,121.41v.72h-3.78l-.54,2.78,0,0a2.32,2.32,0,0,1,.82-.52,2.79,2.79,0,0,1,1-.18,3.18,3.18,0,0,1,1.2.22,2.6,2.6,0,0,1,.92.61,2.73,2.73,0,0,1,.59.94,3.43,3.43,0,0,1,.21,1.22,2.81,2.81,0,0,1-.23,1.14,2.94,2.94,0,0,1-1.61,1.56,3.12,3.12,0,0,1-1.2.23,3.29,3.29,0,0,1-1.1-.17,2.59,2.59,0,0,1-.85-.48,2.26,2.26,0,0,1-.56-.74,2.52,2.52,0,0,1-.23-1h.79a1.84,1.84,0,0,0,.16.64,1.65,1.65,0,0,0,.4.54,2,2,0,0,0,.62.37,2.29,2.29,0,0,0,.83.14,2.06,2.06,0,0,0,.87-.18,2.14,2.14,0,0,0,.7-.5,2.4,2.4,0,0,0,.46-.75,2.49,2.49,0,0,0,.17-.92,2.41,2.41,0,0,0-.16-.86,2.12,2.12,0,0,0-1.14-1.2,2.2,2.2,0,0,0-.91-.18,2.55,2.55,0,0,0-1.07.23,2.22,2.22,0,0,0-.85.68h-.66l.81-4.38Z"/><path class="cls-5" d="M225.1,121.24a2.87,2.87,0,0,1,1.32.29,2.48,2.48,0,0,1,.94.85,4.14,4.14,0,0,1,.57,1.39,8.64,8.64,0,0,1,.19,1.92,5.94,5.94,0,0,1-.77,3.35,2.82,2.82,0,0,1-4.49,0,7.62,7.62,0,0,1,0-6.69A2.56,2.56,0,0,1,225.1,121.24Zm-2.23,4.45q0,3.81,2.23,3.81t2.24-3.81a5.64,5.64,0,0,0-.57-2.84,1.84,1.84,0,0,0-1.68-1,1.82,1.82,0,0,0-1.65.94A5.63,5.63,0,0,0,222.87,125.69Z"/><path class="cls-11" d="M214,156.9v1.19h-3.39V156.9Z"/><path class="cls-11" d="M217.88,161v-5.87h-2.2v-1a6,6,0,0,0,.9-.07,2.36,2.36,0,0,0,.63-.18,1.57,1.57,0,0,0,.64-.55,2.21,2.21,0,0,0,.31-.89h1.11V161Z"/><path class="cls-11" d="M225.09,152.23a2.66,2.66,0,0,1,2.32,1.13,5.72,5.72,0,0,1,.79,3.3,5.83,5.83,0,0,1-.79,3.35,2.92,2.92,0,0,1-4.62,0,5.81,5.81,0,0,1-.79-3.35,5.74,5.74,0,0,1,.79-3.31A2.64,2.64,0,0,1,225.09,152.23Zm-1.7,4.44a10.28,10.28,0,0,0,.07,1.25,4.18,4.18,0,0,0,.26,1.06,1.83,1.83,0,0,0,.52.74,1.28,1.28,0,0,0,.85.28,1.31,1.31,0,0,0,1.08-.51,2.12,2.12,0,0,0,.31-.56,4.17,4.17,0,0,0,.2-.69,6.33,6.33,0,0,0,.1-.77q0-.4,0-.8a9.63,9.63,0,0,0-.08-1.27,3.8,3.8,0,0,0-.28-1,1.82,1.82,0,0,0-.53-.71,1.32,1.32,0,0,0-.84-.26,1.29,1.29,0,0,0-.6.13,1.39,1.39,0,0,0-.45.37,2,2,0,0,0-.31.55,4.32,4.32,0,0,0-.19.68,6.52,6.52,0,0,0-.11.76Q223.4,156.27,223.4,156.67Z"/><polygon class="cls-11" points="193 151 203 141 193 141 193 151"/><rect class="cls-1" x="236.5" y="48.5" width="41" height="29"/><path class="cls-11" d="M277,49V77H237V49h40m1-1H236V78h42V48Z"/><path class="cls-3" d="M278,48V78H236V48h42m1-1H235V79h44V47Z"/><path class="cls-11" d="M264,63.9v1.19h-3.39V63.9Z"/><path class="cls-11" d="M270.69,59.41v1.18h-3.63l-.42,2.24,0,0a2.3,2.3,0,0,1,.75-.5,2.57,2.57,0,0,1,1-.17,2.81,2.81,0,0,1,1.14.22,2.53,2.53,0,0,1,.86.62,2.71,2.71,0,0,1,.55.93,3.47,3.47,0,0,1,.19,1.17,2.93,2.93,0,0,1-.24,1.17,3,3,0,0,1-.66,1,3.13,3.13,0,0,1-1,.65,3.22,3.22,0,0,1-1.25.24,4.16,4.16,0,0,1-1.15-.15,2.71,2.71,0,0,1-.93-.46,2.33,2.33,0,0,1-.64-.76A2.65,2.65,0,0,1,265,65.7h1.4a1.51,1.51,0,0,0,.14.5,1.33,1.33,0,0,0,.31.41,1.41,1.41,0,0,0,.48.28,2,2,0,0,0,.65.1,1.67,1.67,0,0,0,.73-.16,1.7,1.7,0,0,0,.55-.42,1.85,1.85,0,0,0,.35-.61,2.17,2.17,0,0,0,.12-.73,2.11,2.11,0,0,0-.12-.7,1.65,1.65,0,0,0-.89-1,1.74,1.74,0,0,0-.74-.15,1.76,1.76,0,0,0-1.52.76h-1.24l.84-4.6Z"/><path class="cls-5" d="M268.1,90.24a2.87,2.87,0,0,1,1.32.29,2.48,2.48,0,0,1,.94.85,4.14,4.14,0,0,1,.57,1.39,8.64,8.64,0,0,1,.19,1.92,5.94,5.94,0,0,1-.77,3.35,2.82,2.82,0,0,1-4.49,0,7.62,7.62,0,0,1,0-6.69A2.56,2.56,0,0,1,268.1,90.24Zm-2.23,4.45q0,3.81,2.23,3.81t2.24-3.81a5.64,5.64,0,0,0-.57-2.84,1.84,1.84,0,0,0-1.68-1,1.82,1.82,0,0,0-1.65.94A5.63,5.63,0,0,0,265.87,94.69Z"/><path class="cls-5" d="M263.51,121.41v.72h-3.78l-.54,2.78,0,0a2.32,2.32,0,0,1,.82-.52,2.79,2.79,0,0,1,1-.18,3.18,3.18,0,0,1,1.2.22,2.6,2.6,0,0,1,.92.61,2.73,2.73,0,0,1,.59.94,3.43,3.43,0,0,1,.21,1.22,2.81,2.81,0,0,1-.23,1.14,2.94,2.94,0,0,1-1.61,1.56,3.12,3.12,0,0,1-1.2.23,3.29,3.29,0,0,1-1.1-.17,2.59,2.59,0,0,1-.85-.48,2.26,2.26,0,0,1-.56-.74,2.52,2.52,0,0,1-.23-1h.79a1.84,1.84,0,0,0,.16.64,1.65,1.65,0,0,0,.4.54,2,2,0,0,0,.62.37,2.29,2.29,0,0,0,.83.14,2.06,2.06,0,0,0,.87-.18,2.14,2.14,0,0,0,.7-.5,2.4,2.4,0,0,0,.46-.75,2.49,2.49,0,0,0,.17-.92,2.41,2.41,0,0,0-.16-.86,2.12,2.12,0,0,0-1.14-1.2,2.2,2.2,0,0,0-.91-.18,2.55,2.55,0,0,0-1.07.23,2.22,2.22,0,0,0-.85.68h-.66l.81-4.38Z"/><path class="cls-5" d="M268.1,121.24a2.87,2.87,0,0,1,1.32.29,2.48,2.48,0,0,1,.94.85,4.14,4.14,0,0,1,.57,1.39,8.64,8.64,0,0,1,.19,1.92,5.94,5.94,0,0,1-.77,3.35,2.82,2.82,0,0,1-4.49,0,7.62,7.62,0,0,1,0-6.69A2.56,2.56,0,0,1,268.1,121.24Zm-2.23,4.45q0,3.81,2.23,3.81t2.24-3.81a5.64,5.64,0,0,0-.57-2.84,1.84,1.84,0,0,0-1.68-1,1.82,1.82,0,0,0-1.65.94A5.63,5.63,0,0,0,265.87,125.69Z"/><path class="cls-5" d="M257,157.13v.7h-3v-.7Z"/><path class="cls-5" d="M261.15,161v-6.43h-2.29V154q.53,0,.9-.06a2.36,2.36,0,0,0,.57-.13,1.3,1.3,0,0,0,.64-.52,2.46,2.46,0,0,0,.31-1h.63V161Z"/><path class="cls-5" d="M268.1,152.24a2.87,2.87,0,0,1,1.32.29,2.48,2.48,0,0,1,.94.85,4.14,4.14,0,0,1,.57,1.39,8.64,8.64,0,0,1,.19,1.92,5.94,5.94,0,0,1-.77,3.35,2.82,2.82,0,0,1-4.49,0,7.62,7.62,0,0,1,0-6.69A2.56,2.56,0,0,1,268.1,152.24Zm-2.23,4.45q0,3.81,2.23,3.81t2.24-3.81a5.64,5.64,0,0,0-.57-2.84,1.84,1.84,0,0,0-1.68-1,1.82,1.82,0,0,0-1.65.94A5.63,5.63,0,0,0,265.87,156.69Z"/><rect class="cls-1" x="279.5" y="48.5" width="41" height="29"/><path class="cls-7" d="M320,49V77H280V49h40m1-1H279V78h42V48Z"/><path class="cls-3" d="M321,48V78H279V48h42m1-1H278V79h44V47Z"/><path class="cls-8" d="M313,65.92v2h-1.31v-2H308V64.63l3.82-5.27H313v5.41h1.2v1.15Zm-1.31-4.82h0l-2.62,3.67h2.65Z"/><path class="cls-5" d="M311.1,90.24a2.87,2.87,0,0,1,1.32.29,2.48,2.48,0,0,1,.94.85,4.14,4.14,0,0,1,.57,1.39,8.64,8.64,0,0,1,.19,1.92,5.94,5.94,0,0,1-.77,3.35,2.82,2.82,0,0,1-4.49,0,7.62,7.62,0,0,1,0-6.69A2.56,2.56,0,0,1,311.1,90.24Zm-2.23,4.45q0,3.81,2.23,3.81t2.24-3.81a5.64,5.64,0,0,0-.57-2.84,1.84,1.84,0,0,0-1.68-1,1.82,1.82,0,0,0-1.65.94A5.63,5.63,0,0,0,308.87,94.69Z"/><path class="cls-5" d="M306.51,121.41v.72h-3.78l-.54,2.78,0,0a2.32,2.32,0,0,1,.82-.52,2.79,2.79,0,0,1,1-.18,3.18,3.18,0,0,1,1.2.22,2.6,2.6,0,0,1,.92.61,2.73,2.73,0,0,1,.59.94,3.43,3.43,0,0,1,.21,1.22,2.81,2.81,0,0,1-.23,1.14,2.94,2.94,0,0,1-1.61,1.56,3.12,3.12,0,0,1-1.2.23,3.29,3.29,0,0,1-1.1-.17,2.59,2.59,0,0,1-.85-.48,2.26,2.26,0,0,1-.56-.74,2.52,2.52,0,0,1-.23-1h.79a1.84,1.84,0,0,0,.16.64,1.65,1.65,0,0,0,.4.54,2,2,0,0,0,.62.37,2.29,2.29,0,0,0,.83.14,2.06,2.06,0,0,0,.87-.18,2.14,2.14,0,0,0,.7-.5,2.4,2.4,0,0,0,.46-.75,2.49,2.49,0,0,0,.17-.92,2.41,2.41,0,0,0-.16-.86,2.12,2.12,0,0,0-1.14-1.2,2.2,2.2,0,0,0-.91-.18,2.55,2.55,0,0,0-1.07.23,2.22,2.22,0,0,0-.85.68h-.66l.81-4.38Z"/><path class="cls-5" d="M311.1,121.24a2.87,2.87,0,0,1,1.32.29,2.48,2.48,0,0,1,.94.85,4.14,4.14,0,0,1,.57,1.39,8.64,8.64,0,0,1,.19,1.92,5.94,5.94,0,0,1-.77,3.35,2.82,2.82,0,0,1-4.49,0,7.62,7.62,0,0,1,0-6.69A2.56,2.56,0,0,1,311.1,121.24Zm-2.23,4.45q0,3.81,2.23,3.81t2.24-3.81a5.64,5.64,0,0,0-.57-2.84,1.84,1.84,0,0,0-1.68-1,1.82,1.82,0,0,0-1.65.94A5.63,5.63,0,0,0,308.87,125.69Z"/><path class="cls-5" d="M300,157.13v.7h-3v-.7Z"/><path class="cls-5" d="M304.15,161v-6.43h-2.29V154q.53,0,.9-.06a2.36,2.36,0,0,0,.57-.13,1.3,1.3,0,0,0,.64-.52,2.46,2.46,0,0,0,.31-1h.63V161Z"/><path class="cls-5" d="M311.1,152.24a2.87,2.87,0,0,1,1.32.29,2.48,2.48,0,0,1,.94.85,4.14,4.14,0,0,1,.57,1.39,8.64,8.64,0,0,1,.19,1.92,5.94,5.94,0,0,1-.77,3.35,2.82,2.82,0,0,1-4.49,0,7.62,7.62,0,0,1,0-6.69A2.56,2.56,0,0,1,311.1,152.24Zm-2.23,4.45q0,3.81,2.23,3.81t2.24-3.81a5.64,5.64,0,0,0-.57-2.84,1.84,1.84,0,0,0-1.68-1,1.82,1.82,0,0,0-1.65.94A5.63,5.63,0,0,0,308.87,156.69Z"/><polygon class="cls-7" points="279 58 289 48 279 48 279 58"/><polygon class="cls-11" points="236 58 246 48 236 48 236 58"/></g></svg>