<svg id="Layer_1" data-name="Layer 1" xmlns="http://www.w3.org/2000/svg" viewBox="0 0 255.5 190"><defs><style>.cls-1{opacity:0.04;isolation:isolate;}.cls-2{fill:#dcdcdc;}.cls-3{fill:#464646;}.cls-4{fill:#fff;}.cls-5{fill:#ff7300;}.cls-6{fill:#444;}.cls-7{fill:#21be89;}.cls-8{fill:#049669;}.cls-9{fill:none;stroke:#c8c8c8;stroke-miterlimit:10;}.cls-10{fill:#f03040;}</style></defs><title>Artboard 1</title><g id="Tabeller"><rect class="cls-1" x="106.5" y="141.5" width="43" height="31"/><path class="cls-2" d="M149,142v30H107V142h42m1-1H106v32h44Z"/><rect class="cls-1" x="106.5" y="110.5" width="43" height="31"/><path class="cls-2" d="M149,111v30H107V111h42m1-1H106v32h44Z"/><rect class="cls-1" x="106.5" y="79.5" width="43" height="31"/><path class="cls-2" d="M149,80v30H107V80h42m1-1H106v32h44Z"/><rect class="cls-1" x="106.5" y="48.5" width="43" height="31"/><path class="cls-2" d="M149,49V79H107V49h42m1-1H106V80h44Z"/><rect class="cls-1" x="149.5" y="141.5" width="43" height="31"/><path class="cls-2" d="M192,142v30H150V142h42m1-1H149v32h44Z"/><rect class="cls-1" x="149.5" y="110.5" width="43" height="31"/><path class="cls-2" d="M192,111v30H150V111h42m1-1H149v32h44Z"/><rect class="cls-1" x="149.5" y="79.5" width="43" height="31"/><path class="cls-2" d="M192,80v30H150V80h42m1-1H149v32h44Z"/><rect class="cls-1" x="149.5" y="48.5" width="43" height="31"/><path class="cls-2" d="M192,49V79H150V49h42m1-1H149V80h44Z"/><path class="cls-3" d="M33.39,19.9V21H31.12v6H29.87V21H27.61V19.9Z"/><path class="cls-3" d="M35.65,19.91v2.87H39V19.91h1.24V27H39V23.82H35.65V27H34.4V19.91Z"/><path class="cls-3" d="M43.22,19.9v4.48a1.9,1.9,0,0,0,.41,1.33,1.68,1.68,0,0,0,1.29.44,1.73,1.73,0,0,0,1.29-.42,1.86,1.86,0,0,0,.41-1.34V19.9h1.25v4.53a2.74,2.74,0,0,1-.75,2,3,3,0,0,1-2.2.75A4,4,0,0,1,43.65,27a2.35,2.35,0,0,1-1-.59,2.32,2.32,0,0,1-.54-.87A3.37,3.37,0,0,1,42,24.43V19.9Z"/><path class="cls-3" d="M30.52,31.75a2.22,2.22,0,0,1,1.93.94,4.77,4.77,0,0,1,.66,2.75,4.87,4.87,0,0,1-.66,2.79,2.44,2.44,0,0,1-3.85,0,4.84,4.84,0,0,1-.66-2.79,4.79,4.79,0,0,1,.66-2.76A2.2,2.2,0,0,1,30.52,31.75Zm-1.42,3.7a8.51,8.51,0,0,0,.06,1,3.45,3.45,0,0,0,.22.89,1.53,1.53,0,0,0,.43.62,1.07,1.07,0,0,0,.71.23,1.14,1.14,0,0,0,.52-.11,1.16,1.16,0,0,0,.38-.31,1.78,1.78,0,0,0,.26-.47,3.52,3.52,0,0,0,.16-.57,5.47,5.47,0,0,0,.08-.64v-.66a8,8,0,0,0-.07-1.06,3.17,3.17,0,0,0-.23-.87,1.52,1.52,0,0,0-.44-.59,1.1,1.1,0,0,0-.7-.22,1.08,1.08,0,0,0-.5.11,1.16,1.16,0,0,0-.37.31,1.66,1.66,0,0,0-.26.46,3.45,3.45,0,0,0-.16.57,5.27,5.27,0,0,0-.09.63Z"/><path class="cls-3" d="M39.34,37a2,2,0,0,1-.74,1.62,2.87,2.87,0,0,1-1.87.6,2.9,2.9,0,0,1-1.89-.6,2.12,2.12,0,0,1-.64-2.25,1.73,1.73,0,0,1,.27-.52,1.69,1.69,0,0,1,.43-.4,1.8,1.8,0,0,1,.58-.24h0a1.51,1.51,0,0,1-.82-.56,1.6,1.6,0,0,1-.28-1,1.66,1.66,0,0,1,.68-1.38,2.63,2.63,0,0,1,1.65-.52,2.43,2.43,0,0,1,1.68.56A1.7,1.7,0,0,1,39,33.63a1.8,1.8,0,0,1-.07.51,1.52,1.52,0,0,1-.21.44,1.46,1.46,0,0,1-.34.35,1.66,1.66,0,0,1-.47.24h0a1.71,1.71,0,0,1,1,.63A1.87,1.87,0,0,1,39.34,37Zm-1.16,0a1.21,1.21,0,0,0-.4-.93,1.49,1.49,0,0,0-1-.37,1.57,1.57,0,0,0-1,.35,1.19,1.19,0,0,0-.41.94,1.27,1.27,0,0,0,.42,1,1.49,1.49,0,0,0,1,.38,1.44,1.44,0,0,0,1-.37,1.27,1.27,0,0,0,.44-1.07ZM38,33.74a1.18,1.18,0,0,0-.09-.47.86.86,0,0,0-.27-.35,1.54,1.54,0,0,0-1.79,0,1.07,1.07,0,0,0,0,1.57,1.54,1.54,0,0,0,1.82,0A1,1,0,0,0,38,33.74Z"/><path class="cls-3" d="M40.63,39.2h-.92l2.9-7.47h.91Z"/><path class="cls-3" d="M46.48,31.76a2.45,2.45,0,0,1,1.69.59,1.84,1.84,0,0,1,.5.69,2.31,2.31,0,0,1,.16.88,2.35,2.35,0,0,1-.38,1.29A4.87,4.87,0,0,1,47,36.49q-.41.25-.71.47a5.64,5.64,0,0,0-.48.39,2.33,2.33,0,0,0-.52.68H48.9v1H43.8a2.8,2.8,0,0,1,.33-1.32,3.09,3.09,0,0,1,.42-.57,4.66,4.66,0,0,1,.62-.55L46,36l.93-.69a2.25,2.25,0,0,0,.59-.63,1.34,1.34,0,0,0,.19-.69,1.4,1.4,0,0,0-.08-.5,1.12,1.12,0,0,0-.26-.4,1.19,1.19,0,0,0-.39-.25,1.47,1.47,0,0,0-1.09,0,1.19,1.19,0,0,0-.41.32,1.3,1.3,0,0,0-.24.44,1.64,1.64,0,0,0-.08.51v.12H44v-.12a2.6,2.6,0,0,1,.17-1,2.12,2.12,0,0,1,.49-.75,2.26,2.26,0,0,1,.78-.49A2.88,2.88,0,0,1,46.48,31.76Z"/><path class="cls-3" d="M52.47,31.75a2.22,2.22,0,0,1,1.93.94,4.76,4.76,0,0,1,.66,2.75,4.86,4.86,0,0,1-.66,2.79,2.44,2.44,0,0,1-3.85,0,4.84,4.84,0,0,1-.66-2.79,4.79,4.79,0,0,1,.66-2.76A2.2,2.2,0,0,1,52.47,31.75Zm-1.42,3.7a8.51,8.51,0,0,0,.06,1,3.49,3.49,0,0,0,.22.89,1.54,1.54,0,0,0,.43.62,1.07,1.07,0,0,0,.71.23,1.09,1.09,0,0,0,.9-.42,1.78,1.78,0,0,0,.26-.47,3.52,3.52,0,0,0,.16-.57,5.27,5.27,0,0,0,.08-.64v-.66a8,8,0,0,0-.07-1.06,3.13,3.13,0,0,0-.23-.87,1.52,1.52,0,0,0-.44-.59,1.1,1.1,0,0,0-.7-.22,1.08,1.08,0,0,0-.5.11,1.17,1.17,0,0,0-.37.31,1.69,1.69,0,0,0-.26.46,3.55,3.55,0,0,0-.16.57,5.27,5.27,0,0,0-.09.63c0,.23,0,.46,0,.68Z"/><path class="cls-3" d="M77.2,19.9V21H73.6v2h3.14v1H73.6v3H72.35V19.9Z"/><path class="cls-3" d="M84,21.83a1.91,1.91,0,0,1-.42,1.28,1.48,1.48,0,0,1-.35.31,2.09,2.09,0,0,1-.46.21h0a1.39,1.39,0,0,1,.49.21,1.16,1.16,0,0,1,.33.35,1.63,1.63,0,0,1,.21.52,4.45,4.45,0,0,1,.08.57v.61a4,4,0,0,0,.08.62,1.38,1.38,0,0,0,.2.52H83a3.67,3.67,0,0,1-.19-1.12,2.66,2.66,0,0,0-.38-1.47,1.13,1.13,0,0,0-.88-.34h-2V27H78.28V19.9H82a2.13,2.13,0,0,1,1.48.53A1.8,1.8,0,0,1,84,21.83Zm-1.25.2a1.09,1.09,0,0,0-.32-.86,1.3,1.3,0,0,0-.89-.28h-2v2.29h2.05a1.27,1.27,0,0,0,.85-.27,1.08,1.08,0,0,0,.36-.91Z"/><path class="cls-3" d="M86.87,19.9V27H85.62V19.9Z"/><path class="cls-3" d="M74.52,31.75a2.22,2.22,0,0,1,1.93.94,4.77,4.77,0,0,1,.66,2.75,4.87,4.87,0,0,1-.66,2.79,2.44,2.44,0,0,1-3.85,0,4.84,4.84,0,0,1-.66-2.79,4.79,4.79,0,0,1,.66-2.76A2.2,2.2,0,0,1,74.52,31.75Zm-1.42,3.7a8.51,8.51,0,0,0,.06,1,3.45,3.45,0,0,0,.22.89,1.53,1.53,0,0,0,.43.62,1.07,1.07,0,0,0,.71.23,1.14,1.14,0,0,0,.52-.11,1.16,1.16,0,0,0,.38-.31,1.78,1.78,0,0,0,.26-.47,3.52,3.52,0,0,0,.16-.57,5.47,5.47,0,0,0,.08-.64v-.66a8,8,0,0,0-.07-1.06,3.17,3.17,0,0,0-.23-.87,1.52,1.52,0,0,0-.44-.59,1.1,1.1,0,0,0-.7-.22,1.08,1.08,0,0,0-.5.11,1.16,1.16,0,0,0-.37.31,1.66,1.66,0,0,0-.26.46,3.45,3.45,0,0,0-.16.57,5.27,5.27,0,0,0-.09.63Z"/><path class="cls-3" d="M83.34,37a2,2,0,0,1-.74,1.62,2.87,2.87,0,0,1-1.87.6,2.9,2.9,0,0,1-1.89-.6,2.12,2.12,0,0,1-.64-2.25,1.73,1.73,0,0,1,.27-.52,1.69,1.69,0,0,1,.43-.4,1.8,1.8,0,0,1,.58-.24h0a1.51,1.51,0,0,1-.82-.56,1.6,1.6,0,0,1-.28-1,1.66,1.66,0,0,1,.68-1.38,2.63,2.63,0,0,1,1.65-.52,2.43,2.43,0,0,1,1.68.56A1.7,1.7,0,0,1,83,33.63a1.8,1.8,0,0,1-.07.51,1.52,1.52,0,0,1-.21.44,1.46,1.46,0,0,1-.34.35,1.66,1.66,0,0,1-.47.24h0a1.71,1.71,0,0,1,1,.63A1.87,1.87,0,0,1,83.34,37Zm-1.16,0a1.21,1.21,0,0,0-.4-.93,1.49,1.49,0,0,0-1.05-.37,1.57,1.57,0,0,0-1.05.35,1.19,1.19,0,0,0-.41.94,1.27,1.27,0,0,0,.42,1,1.49,1.49,0,0,0,1.05.38,1.44,1.44,0,0,0,1-.37,1.27,1.27,0,0,0,.44-1.07ZM82,33.74a1.18,1.18,0,0,0-.09-.47.86.86,0,0,0-.27-.35,1.54,1.54,0,0,0-1.79,0,1.07,1.07,0,0,0,0,1.57,1.54,1.54,0,0,0,1.82,0A1,1,0,0,0,82,33.74Z"/><path class="cls-3" d="M84.63,39.2h-.92l2.9-7.47h.91Z"/><path class="cls-3" d="M90.48,31.76a2.45,2.45,0,0,1,1.69.59,1.84,1.84,0,0,1,.5.69,2.31,2.31,0,0,1,.16.88,2.35,2.35,0,0,1-.38,1.29A4.87,4.87,0,0,1,91,36.49q-.41.25-.71.47a5.64,5.64,0,0,0-.48.39,2.33,2.33,0,0,0-.52.68H92.9v1H87.8a2.8,2.8,0,0,1,.33-1.32,3.09,3.09,0,0,1,.42-.57,4.66,4.66,0,0,1,.62-.55L90,36l.93-.69a2.25,2.25,0,0,0,.59-.63,1.34,1.34,0,0,0,.19-.69,1.4,1.4,0,0,0-.08-.5,1.12,1.12,0,0,0-.26-.4,1.19,1.19,0,0,0-.39-.25,1.47,1.47,0,0,0-1.09,0,1.19,1.19,0,0,0-.41.32,1.3,1.3,0,0,0-.24.44,1.64,1.64,0,0,0-.08.51v.12H88v-.12a2.6,2.6,0,0,1,.17-1,2.12,2.12,0,0,1,.49-.75,2.26,2.26,0,0,1,.78-.49A2.88,2.88,0,0,1,90.48,31.76Z"/><path class="cls-3" d="M96,39V34.14H94.18v-.87a4.93,4.93,0,0,0,.75-.06,2,2,0,0,0,.52-.15A1.31,1.31,0,0,0,96,32.6a1.84,1.84,0,0,0,.26-.74h.93V39Z"/><path class="cls-3" d="M119.7,25a1.89,1.89,0,0,1-.89,1.68,2.92,2.92,0,0,1-.94.39,4.91,4.91,0,0,1-1.12.13,4.32,4.32,0,0,1-1.14-.14,2.79,2.79,0,0,1-.92-.43,2.06,2.06,0,0,1-.62-.7,2,2,0,0,1-.22-1v-.08h1.23a1.11,1.11,0,0,0,.14.56,1.16,1.16,0,0,0,.38.4,1.75,1.75,0,0,0,.56.24,3,3,0,0,0,1.32,0,1.69,1.69,0,0,0,.52-.21,1.1,1.1,0,0,0,.35-.34.89.89,0,0,0,.13-.48.77.77,0,0,0-.31-.63,2.7,2.7,0,0,0-1-.42l-1.53-.4a2.36,2.36,0,0,1-1.2-.65,1.67,1.67,0,0,1-.39-1.16,1.87,1.87,0,0,1,.21-.91,2,2,0,0,1,.58-.66,2.66,2.66,0,0,1,.86-.4,3.82,3.82,0,0,1,1-.14,3.9,3.9,0,0,1,1,.12,2.69,2.69,0,0,1,.85.38,2,2,0,0,1,.59.64,1.89,1.89,0,0,1,.23.91h-1.22a1,1,0,0,0-.13-.43,1.07,1.07,0,0,0-.3-.34,1.53,1.53,0,0,0-.46-.22,2.09,2.09,0,0,0-.59-.08,2.46,2.46,0,0,0-.55.06,1.43,1.43,0,0,0-.46.19,1,1,0,0,0-.31.32.87.87,0,0,0-.12.46.83.83,0,0,0,.06.33.68.68,0,0,0,.17.23.9.9,0,0,0,.26.16l.34.11,1.68.44a3.09,3.09,0,0,1,1.42.72A1.69,1.69,0,0,1,119.7,25Z"/><path class="cls-3" d="M125.67,27,125,25.18h-3L121.47,27H120.2l2.57-7.13h1.69L127,27Zm-2.07-6.21h0l-1.17,3.44h2.33Z"/><path class="cls-3" d="M132.36,19.9V21h-2.27v6h-1.25V21h-2.27V19.9Z"/><path class="cls-3" d="M116.51,31.75a2.22,2.22,0,0,1,1.93.94,4.77,4.77,0,0,1,.66,2.75,4.87,4.87,0,0,1-.66,2.79,2.44,2.44,0,0,1-3.85,0,4.84,4.84,0,0,1-.66-2.79,4.79,4.79,0,0,1,.66-2.76A2.2,2.2,0,0,1,116.51,31.75Zm-1.42,3.7a8.51,8.51,0,0,0,.06,1,3.45,3.45,0,0,0,.22.89,1.53,1.53,0,0,0,.43.62,1.07,1.07,0,0,0,.71.23,1.14,1.14,0,0,0,.52-.11,1.16,1.16,0,0,0,.38-.31,1.78,1.78,0,0,0,.26-.47,3.52,3.52,0,0,0,.16-.57,5.47,5.47,0,0,0,.08-.64v-.66a8,8,0,0,0-.07-1.06,3.17,3.17,0,0,0-.23-.87,1.52,1.52,0,0,0-.44-.59,1.1,1.1,0,0,0-.7-.22,1.08,1.08,0,0,0-.5.11,1.16,1.16,0,0,0-.37.31,1.66,1.66,0,0,0-.26.46,3.45,3.45,0,0,0-.16.57,5.27,5.27,0,0,0-.09.63q0,.35,0,.68Z"/><path class="cls-3" d="M125.33,37a2,2,0,0,1-.74,1.62,2.87,2.87,0,0,1-1.87.6,2.9,2.9,0,0,1-1.89-.6,2.13,2.13,0,0,1-.63-2.25,1.73,1.73,0,0,1,.27-.52,1.69,1.69,0,0,1,.43-.4,1.8,1.8,0,0,1,.58-.24h0a1.51,1.51,0,0,1-.82-.56,1.6,1.6,0,0,1-.28-1,1.66,1.66,0,0,1,.68-1.38,2.63,2.63,0,0,1,1.65-.52,2.43,2.43,0,0,1,1.68.56,1.7,1.7,0,0,1,.63,1.31,1.8,1.8,0,0,1-.07.51,1.52,1.52,0,0,1-.21.44,1.46,1.46,0,0,1-.34.35,1.66,1.66,0,0,1-.47.24h0a1.71,1.71,0,0,1,1,.63A1.87,1.87,0,0,1,125.33,37Zm-1.16,0a1.21,1.21,0,0,0-.4-.93,1.49,1.49,0,0,0-1.05-.37,1.57,1.57,0,0,0-1.05.35,1.19,1.19,0,0,0-.41.94,1.27,1.27,0,0,0,.42,1,1.49,1.49,0,0,0,1.05.38,1.44,1.44,0,0,0,1-.37,1.27,1.27,0,0,0,.44-1.07ZM124,33.74a1.18,1.18,0,0,0-.09-.47.86.86,0,0,0-.27-.35,1.54,1.54,0,0,0-1.79,0,1.07,1.07,0,0,0,0,1.57,1.54,1.54,0,0,0,1.82,0A1,1,0,0,0,124,33.74Z"/><path class="cls-3" d="M126.63,39.2h-.92l2.9-7.47h.91Z"/><path class="cls-3" d="M132.47,31.76a2.45,2.45,0,0,1,1.69.59,1.84,1.84,0,0,1,.5.69,2.31,2.31,0,0,1,.16.88,2.35,2.35,0,0,1-.38,1.29A4.87,4.87,0,0,1,133,36.49q-.41.25-.71.47a5.64,5.64,0,0,0-.48.39,2.33,2.33,0,0,0-.52.68h3.61v1h-5.1a2.8,2.8,0,0,1,.33-1.32,3.09,3.09,0,0,1,.42-.57,4.66,4.66,0,0,1,.62-.55L132,36l.93-.69a2.25,2.25,0,0,0,.59-.63,1.34,1.34,0,0,0,.19-.69,1.4,1.4,0,0,0-.08-.5,1.12,1.12,0,0,0-.26-.4,1.19,1.19,0,0,0-.39-.25,1.47,1.47,0,0,0-1.09,0,1.19,1.19,0,0,0-.41.32,1.3,1.3,0,0,0-.24.44,1.64,1.64,0,0,0-.08.51v.12H130v-.12a2.6,2.6,0,0,1,.17-1,2.12,2.12,0,0,1,.49-.75,2.26,2.26,0,0,1,.78-.49A2.88,2.88,0,0,1,132.47,31.76Z"/><path class="cls-3" d="M138.57,31.76a2.45,2.45,0,0,1,1.69.59,1.84,1.84,0,0,1,.5.69,2.31,2.31,0,0,1,.16.88,2.35,2.35,0,0,1-.38,1.29,4.87,4.87,0,0,1-1.48,1.28q-.41.25-.71.47a5.64,5.64,0,0,0-.48.39,2.35,2.35,0,0,0-.52.68H141v1h-5.1a2.81,2.81,0,0,1,.33-1.32,3.14,3.14,0,0,1,.42-.57,4.66,4.66,0,0,1,.62-.55l.79-.59.93-.69a2.25,2.25,0,0,0,.59-.63,1.34,1.34,0,0,0,.19-.69,1.4,1.4,0,0,0-.08-.5,1.12,1.12,0,0,0-.26-.4,1.19,1.19,0,0,0-.39-.25,1.47,1.47,0,0,0-1.09,0,1.19,1.19,0,0,0-.41.32,1.3,1.3,0,0,0-.24.44,1.64,1.64,0,0,0-.08.51v.12h-1.11v-.12a2.62,2.62,0,0,1,.17-1,2.12,2.12,0,0,1,.49-.75,2.26,2.26,0,0,1,.78-.49A2.88,2.88,0,0,1,138.57,31.76Z"/><path class="cls-3" d="M162.74,25a1.89,1.89,0,0,1-.89,1.68,2.92,2.92,0,0,1-.94.39,4.91,4.91,0,0,1-1.12.13,4.32,4.32,0,0,1-1.14-.14,2.79,2.79,0,0,1-.92-.43,2.06,2.06,0,0,1-.62-.7,2,2,0,0,1-.22-1v-.08h1.23a1.11,1.11,0,0,0,.14.56,1.16,1.16,0,0,0,.38.4,1.75,1.75,0,0,0,.56.24,3,3,0,0,0,1.32,0,1.69,1.69,0,0,0,.52-.21,1.1,1.1,0,0,0,.35-.34.89.89,0,0,0,.13-.48.77.77,0,0,0-.31-.63,2.7,2.7,0,0,0-1-.42l-1.53-.4a2.36,2.36,0,0,1-1.2-.65,1.67,1.67,0,0,1-.39-1.16,1.87,1.87,0,0,1,.21-.91,2,2,0,0,1,.58-.66,2.66,2.66,0,0,1,.86-.4,3.82,3.82,0,0,1,1-.14,3.9,3.9,0,0,1,1,.12,2.69,2.69,0,0,1,.85.38,2,2,0,0,1,.59.64,1.89,1.89,0,0,1,.23.91h-1.22a1,1,0,0,0-.13-.43,1.07,1.07,0,0,0-.3-.34,1.53,1.53,0,0,0-.46-.22,2.09,2.09,0,0,0-.59-.08,2.46,2.46,0,0,0-.55.06,1.43,1.43,0,0,0-.46.19,1,1,0,0,0-.31.32.87.87,0,0,0-.12.46.83.83,0,0,0,.06.33.68.68,0,0,0,.17.23.9.9,0,0,0,.26.16l.34.11,1.68.44a3.09,3.09,0,0,1,1.42.72A1.69,1.69,0,0,1,162.74,25Z"/><path class="cls-3" d="M165.2,19.9v4.48a1.9,1.9,0,0,0,.41,1.33,1.68,1.68,0,0,0,1.29.44,1.73,1.73,0,0,0,1.29-.42,1.86,1.86,0,0,0,.41-1.34V19.9h1.25v4.53a2.74,2.74,0,0,1-.75,2,3,3,0,0,1-2.2.75,4,4,0,0,1-1.27-.19,2.34,2.34,0,0,1-1.5-1.46,3.35,3.35,0,0,1-.18-1.13V19.9Z"/><path class="cls-3" d="M172.82,19.9l3.4,5.3h0V19.9h1.19V27h-1.27l-3.4-5.3h0V27h-1.19V19.9Z"/><path class="cls-3" d="M159.55,31.75a2.22,2.22,0,0,1,1.93.94,4.77,4.77,0,0,1,.66,2.75,4.87,4.87,0,0,1-.66,2.79,2.44,2.44,0,0,1-3.85,0,4.84,4.84,0,0,1-.66-2.79,4.79,4.79,0,0,1,.66-2.76A2.2,2.2,0,0,1,159.55,31.75Zm-1.42,3.7a8.51,8.51,0,0,0,.06,1,3.45,3.45,0,0,0,.22.89,1.53,1.53,0,0,0,.43.62,1.07,1.07,0,0,0,.71.23,1.14,1.14,0,0,0,.52-.11,1.16,1.16,0,0,0,.38-.31,1.78,1.78,0,0,0,.26-.47,3.52,3.52,0,0,0,.16-.57,5.47,5.47,0,0,0,.08-.64v-.66a8,8,0,0,0-.07-1.06,3.17,3.17,0,0,0-.23-.87,1.52,1.52,0,0,0-.44-.59,1.1,1.1,0,0,0-.7-.22,1.08,1.08,0,0,0-.5.11,1.16,1.16,0,0,0-.37.31,1.66,1.66,0,0,0-.26.46,3.45,3.45,0,0,0-.16.57,5.27,5.27,0,0,0-.09.63q0,.35,0,.68Z"/><path class="cls-3" d="M168.38,37a2,2,0,0,1-.74,1.62,2.87,2.87,0,0,1-1.87.6,2.9,2.9,0,0,1-1.89-.6,2.1,2.1,0,0,1-.64-2.24,1.73,1.73,0,0,1,.27-.52,1.69,1.69,0,0,1,.43-.4,1.8,1.8,0,0,1,.58-.24h0a1.51,1.51,0,0,1-.82-.56,1.6,1.6,0,0,1-.28-1,1.66,1.66,0,0,1,.68-1.38,2.63,2.63,0,0,1,1.65-.52,2.43,2.43,0,0,1,1.68.56,1.7,1.7,0,0,1,.63,1.31,1.8,1.8,0,0,1-.07.51,1.52,1.52,0,0,1-.21.44,1.46,1.46,0,0,1-.34.35,1.66,1.66,0,0,1-.47.24h0a1.71,1.71,0,0,1,1,.63A1.87,1.87,0,0,1,168.38,37Zm-1.16,0a1.21,1.21,0,0,0-.4-.93,1.49,1.49,0,0,0-1.05-.37,1.57,1.57,0,0,0-1.05.35,1.19,1.19,0,0,0-.41.94,1.27,1.27,0,0,0,.42,1,1.49,1.49,0,0,0,1.05.38,1.44,1.44,0,0,0,1-.37,1.27,1.27,0,0,0,.43-1.07ZM167,33.74a1.18,1.18,0,0,0-.09-.47.86.86,0,0,0-.27-.35,1.54,1.54,0,0,0-1.79,0,1.07,1.07,0,0,0,0,1.57,1.54,1.54,0,0,0,1.82,0A1,1,0,0,0,167,33.74Z"/><path class="cls-3" d="M169.67,39.2h-.92l2.9-7.47h.91Z"/><path class="cls-3" d="M175.51,31.76a2.45,2.45,0,0,1,1.69.59,1.84,1.84,0,0,1,.5.69,2.31,2.31,0,0,1,.16.88,2.35,2.35,0,0,1-.38,1.29A4.87,4.87,0,0,1,176,36.49q-.41.25-.71.47a5.64,5.64,0,0,0-.48.39,2.33,2.33,0,0,0-.52.68h3.61v1h-5.07a2.8,2.8,0,0,1,.33-1.32,3.09,3.09,0,0,1,.42-.57,4.66,4.66,0,0,1,.62-.55L175,36l.93-.69a2.25,2.25,0,0,0,.59-.63,1.34,1.34,0,0,0,.19-.69,1.4,1.4,0,0,0-.08-.5,1.12,1.12,0,0,0-.26-.4,1.19,1.19,0,0,0-.39-.25,1.47,1.47,0,0,0-1.09,0,1.19,1.19,0,0,0-.41.32,1.3,1.3,0,0,0-.24.44,1.64,1.64,0,0,0-.08.51v.12H173v-.12a2.6,2.6,0,0,1,.17-1,2.12,2.12,0,0,1,.49-.75,2.26,2.26,0,0,1,.78-.49A2.88,2.88,0,0,1,175.51,31.76Z"/><path class="cls-3" d="M181.43,31.76a3,3,0,0,1,.86.12,2.27,2.27,0,0,1,.74.36,1.83,1.83,0,0,1,.51.6,1.76,1.76,0,0,1,.19.84,1.81,1.81,0,0,1-.07.51,1.51,1.51,0,0,1-.21.44,1.39,1.39,0,0,1-.34.34,1.55,1.55,0,0,1-.47.22h0a1.61,1.61,0,0,1,1,.6,1.72,1.72,0,0,1,.35,1.08,2.08,2.08,0,0,1-.74,1.66,2.76,2.76,0,0,1-1.86.63,3.2,3.2,0,0,1-1-.15,2.45,2.45,0,0,1-.81-.43,2.07,2.07,0,0,1-.56-.7,2.12,2.12,0,0,1-.21-1v-.11H180V37a1.23,1.23,0,0,0,.11.53,1.21,1.21,0,0,0,.3.4,1.31,1.31,0,0,0,.44.25,1.59,1.59,0,0,0,.53.09,1.51,1.51,0,0,0,1.07-.37,1.21,1.21,0,0,0,.4-.93,1.12,1.12,0,0,0-.37-.91,1.83,1.83,0,0,0-1.22-.32H181v-.85h.36a1.55,1.55,0,0,0,1-.29.91.91,0,0,0,.33-.75,1.16,1.16,0,0,0-.09-.49.93.93,0,0,0-.26-.34,1.11,1.11,0,0,0-.39-.2,1.64,1.64,0,0,0-.47-.07,1.4,1.4,0,0,0-.5.08,1.19,1.19,0,0,0-.4.25,1.21,1.21,0,0,0-.27.39,1.36,1.36,0,0,0-.11.53H179a2.34,2.34,0,0,1,.19-.87,2.13,2.13,0,0,1,.49-.7,2.3,2.3,0,0,1,.76-.47A2.73,2.73,0,0,1,181.43,31.76Z"/><path class="cls-3" d="M206.82,27V21.3h0l-2,5.73h-1.08l-2-5.7h0V27h-1.18V19.91h1.83l2,5.56h0l1.91-5.56H208V27Z"/><path class="cls-3" d="M216.29,23.48a3.86,3.86,0,0,1-.95,2.66,3.21,3.21,0,0,1-2.51,1,3.65,3.65,0,0,1-1.37-.24,3.2,3.2,0,0,1-1.1-.75,3.36,3.36,0,0,1-.75-1.21,4.46,4.46,0,0,1-.25-1.51,3.89,3.89,0,0,1,.95-2.7,3.21,3.21,0,0,1,2.51-1,3.7,3.7,0,0,1,1.37.25,3,3,0,0,1,1.1.76A3.36,3.36,0,0,1,216,22,4.74,4.74,0,0,1,216.29,23.48Zm-1.25,0a3.07,3.07,0,0,0-.59-2,2.14,2.14,0,0,0-3.25,0,3.08,3.08,0,0,0-.58,2,3,3,0,0,0,.58,1.91,2.16,2.16,0,0,0,3,.21l.21-.21a3,3,0,0,0,.54-1.91Z"/><path class="cls-3" d="M218.93,19.9l3.4,5.3h0V19.9h1.19V27h-1.27l-3.4-5.3h0V27h-1.19V19.9Z"/><path class="cls-3" d="M202.63,31.75a2.22,2.22,0,0,1,1.93.94,4.77,4.77,0,0,1,.66,2.75,4.87,4.87,0,0,1-.66,2.79,2.44,2.44,0,0,1-3.85,0,4.84,4.84,0,0,1-.66-2.79,4.79,4.79,0,0,1,.66-2.76A2.2,2.2,0,0,1,202.63,31.75Zm-1.42,3.7a8.51,8.51,0,0,0,.06,1,3.45,3.45,0,0,0,.22.89,1.53,1.53,0,0,0,.43.62,1.07,1.07,0,0,0,.71.23,1.14,1.14,0,0,0,.52-.11,1.16,1.16,0,0,0,.38-.31,1.78,1.78,0,0,0,.26-.47,3.52,3.52,0,0,0,.16-.57,5.47,5.47,0,0,0,.08-.64v-.66a8,8,0,0,0-.07-1.06,3.17,3.17,0,0,0-.23-.87,1.52,1.52,0,0,0-.44-.59,1.1,1.1,0,0,0-.7-.22,1.08,1.08,0,0,0-.5.11,1.16,1.16,0,0,0-.37.31,1.66,1.66,0,0,0-.26.46,3.45,3.45,0,0,0-.16.57,5.27,5.27,0,0,0-.09.63q0,.35,0,.68Z"/><path class="cls-3" d="M211.46,37a2,2,0,0,1-.74,1.62,2.87,2.87,0,0,1-1.87.6,2.9,2.9,0,0,1-1.89-.6,2.1,2.1,0,0,1-.64-2.24,1.73,1.73,0,0,1,.27-.52,1.69,1.69,0,0,1,.43-.4,1.8,1.8,0,0,1,.58-.24h0a1.51,1.51,0,0,1-.82-.56,1.6,1.6,0,0,1-.28-1,1.66,1.66,0,0,1,.68-1.38,2.63,2.63,0,0,1,1.65-.52,2.43,2.43,0,0,1,1.68.56,1.7,1.7,0,0,1,.63,1.31,1.8,1.8,0,0,1-.07.51,1.52,1.52,0,0,1-.21.44,1.46,1.46,0,0,1-.34.35,1.66,1.66,0,0,1-.47.24h0a1.71,1.71,0,0,1,1,.63A1.87,1.87,0,0,1,211.46,37Zm-1.16,0a1.21,1.21,0,0,0-.4-.93,1.49,1.49,0,0,0-1.05-.37,1.57,1.57,0,0,0-1.05.35,1.19,1.19,0,0,0-.41.94,1.27,1.27,0,0,0,.42,1,1.49,1.49,0,0,0,1.05.38,1.44,1.44,0,0,0,1-.37,1.27,1.27,0,0,0,.43-1.07Zm-.21-3.19a1.18,1.18,0,0,0-.09-.47.86.86,0,0,0-.27-.35,1.54,1.54,0,0,0-1.79,0,1.07,1.07,0,0,0,0,1.57,1.54,1.54,0,0,0,1.82,0,1,1,0,0,0,.33-.82Z"/><path class="cls-3" d="M212.75,39.2h-.92l2.9-7.47h.91Z"/><path class="cls-3" d="M218.59,31.76a2.45,2.45,0,0,1,1.69.59,1.84,1.84,0,0,1,.5.69,2.31,2.31,0,0,1,.16.88,2.35,2.35,0,0,1-.38,1.29,4.87,4.87,0,0,1-1.48,1.28q-.41.25-.71.47a5.64,5.64,0,0,0-.48.39,2.33,2.33,0,0,0-.52.68H221v1h-5.07a2.8,2.8,0,0,1,.33-1.32,3.09,3.09,0,0,1,.42-.57,4.66,4.66,0,0,1,.62-.55l.79-.59.93-.69a2.25,2.25,0,0,0,.59-.63,1.34,1.34,0,0,0,.19-.69,1.4,1.4,0,0,0-.08-.5,1.12,1.12,0,0,0-.26-.4,1.19,1.19,0,0,0-.39-.25,1.47,1.47,0,0,0-1.09,0,1.19,1.19,0,0,0-.41.32,1.3,1.3,0,0,0-.24.44,1.64,1.64,0,0,0-.08.51v.12h-1.11v-.12a2.6,2.6,0,0,1,.17-1,2.12,2.12,0,0,1,.49-.75,2.26,2.26,0,0,1,.78-.49A2.88,2.88,0,0,1,218.59,31.76Z"/><path class="cls-3" d="M226,37.33V39h-1.09V37.33h-3.13V36.26L225,31.87h1v4.51h1v1Zm-1.09-4h0l-2.18,3.06h2.21Z"/><rect class="cls-4" x="20.5" y="141.5" width="43" height="31"/><path class="cls-2" d="M63,142v30H21V142H63m1-1H20v32H64Z"/><rect class="cls-4" x="20.5" y="79.5" width="43" height="31"/><path class="cls-2" d="M63,80v30H21V80H63m1-1H20v32H64Z"/><rect class="cls-4" x="20.5" y="48.5" width="43" height="31"/><path class="cls-2" d="M63,49V79H21V49H63m1-1H20V80H64Z"/><rect class="cls-4" x="63.5" y="141.5" width="43" height="31"/><path class="cls-2" d="M106,142v30H64V142h42m1-1H63v32h44Z"/><rect class="cls-4" x="63.5" y="110.5" width="43" height="31"/><path class="cls-2" d="M106,111v30H64V111h42m1-1H63v32h44Z"/><rect class="cls-4" x="63.5" y="79.5" width="43" height="31"/><path class="cls-2" d="M106,80v30H64V80h42m1-1H63v32h44Z"/><rect class="cls-4" x="64.5" y="49.5" width="41" height="29"/><path class="cls-5" d="M105,50V78H65V50h40m1-1H64V79h42Z"/><path class="cls-2" d="M106,49V79H64V49h42m1-1H63V80h44Z"/><path class="cls-5" d="M99.26,62.53a2.54,2.54,0,0,1-.2,1,2.31,2.31,0,0,1-.68.87l-.72.6a1.65,1.65,0,0,0-.25.26,1.24,1.24,0,0,0-.15.25,1.69,1.69,0,0,0-.08.2,1.34,1.34,0,0,0,0,.22v.61h-1.4v-.43a2.32,2.32,0,0,1,.08-.61,2.54,2.54,0,0,1,.2-.51,3.44,3.44,0,0,1,.89-1,4.2,4.2,0,0,0,.33-.3,2.16,2.16,0,0,0,.27-.32,1.51,1.51,0,0,0,.18-.36,1.26,1.26,0,0,0,.06-.41,1.47,1.47,0,0,0-.08-.49,1.07,1.07,0,0,0-.24-.4,1.26,1.26,0,0,0-.42-.29,1.4,1.4,0,0,0-.55-.1,1.46,1.46,0,0,0-.65.14,1.29,1.29,0,0,0-.47.4A2.07,2.07,0,0,0,95,63.11H93.6A3,3,0,0,1,94.4,61a2.51,2.51,0,0,1,.93-.6,3.43,3.43,0,0,1,1.19-.2,3.55,3.55,0,0,1,1.13.17,2.53,2.53,0,0,1,.87.5,1.93,1.93,0,0,1,.54.74A2.5,2.5,0,0,1,99.26,62.53ZM95.63,69V67.33H97.2V69Z"/><path class="cls-6" d="M96.1,91.24a2.87,2.87,0,0,1,1.32.29,2.48,2.48,0,0,1,.94.85,4.14,4.14,0,0,1,.57,1.39,8.64,8.64,0,0,1,.19,1.92A5.94,5.94,0,0,1,98.35,99a2.82,2.82,0,0,1-4.49,0,7.62,7.62,0,0,1,0-6.69A2.56,2.56,0,0,1,96.1,91.24Zm-2.23,4.45q0,3.81,2.23,3.81t2.24-3.81a5.64,5.64,0,0,0-.57-2.84,1.84,1.84,0,0,0-1.68-1,1.82,1.82,0,0,0-1.65.94A5.63,5.63,0,0,0,93.87,95.69Z"/><path class="cls-6" d="M91.51,122.41v.72H87.73l-.54,2.78h0a2.32,2.32,0,0,1,.82-.52,2.79,2.79,0,0,1,1-.18,3.18,3.18,0,0,1,1.2.22,2.6,2.6,0,0,1,.92.61,2.73,2.73,0,0,1,.59.94,3.43,3.43,0,0,1,.21,1.22,2.81,2.81,0,0,1-.23,1.14,2.94,2.94,0,0,1-1.61,1.56,3.12,3.12,0,0,1-1.2.23,3.29,3.29,0,0,1-1.1-.17,2.59,2.59,0,0,1-.85-.48,2.26,2.26,0,0,1-.56-.74,2.52,2.52,0,0,1-.23-1h.79a1.84,1.84,0,0,0,.16.64,1.65,1.65,0,0,0,.4.54,2,2,0,0,0,.62.37,2.29,2.29,0,0,0,.83.14,2.06,2.06,0,0,0,.87-.18,2.14,2.14,0,0,0,.7-.5A2.4,2.4,0,0,0,91,129a2.49,2.49,0,0,0,.17-.92,2.41,2.41,0,0,0-.16-.86,2.12,2.12,0,0,0-1.14-1.2,2.2,2.2,0,0,0-.91-.18,2.55,2.55,0,0,0-1.07.23,2.22,2.22,0,0,0-.85.68h-.66l.81-4.38Z"/><path class="cls-6" d="M96.1,122.24a2.87,2.87,0,0,1,1.32.29,2.48,2.48,0,0,1,.94.85,4.14,4.14,0,0,1,.57,1.39,8.64,8.64,0,0,1,.19,1.92,5.94,5.94,0,0,1-.77,3.35,2.82,2.82,0,0,1-4.49,0,7.62,7.62,0,0,1,0-6.69A2.56,2.56,0,0,1,96.1,122.24Zm-2.23,4.45q0,3.81,2.23,3.81t2.24-3.81a5.64,5.64,0,0,0-.57-2.84,1.84,1.84,0,0,0-1.68-1,1.82,1.82,0,0,0-1.65.94A5.63,5.63,0,0,0,93.87,126.69Z"/><path class="cls-6" d="M89.08,153.24a2.81,2.81,0,0,1,2,.66,2.28,2.28,0,0,1,.73,1.78,2.82,2.82,0,0,1-.55,1.66,7,7,0,0,1-2,1.66,8.29,8.29,0,0,0-1.66,1.23,2,2,0,0,0-.56,1h4.81V162H86.1a3,3,0,0,1,.56-1.74,6.61,6.61,0,0,1,1.93-1.66,8.78,8.78,0,0,0,1.89-1.48,2.11,2.11,0,0,0,.51-1.41,1.64,1.64,0,0,0-.54-1.28,2.25,2.25,0,0,0-2.26-.32,1.82,1.82,0,0,0-.61.44,1.77,1.77,0,0,0-.36.62,2.2,2.2,0,0,0-.12.71V156h-.77v-.12a2.93,2.93,0,0,1,.17-1A2.42,2.42,0,0,1,87,154a2.47,2.47,0,0,1,.86-.59A3.06,3.06,0,0,1,89.08,153.24Z"/><path class="cls-6" d="M98.54,153.41v.72H94.76l-.54,2.78h0a2.32,2.32,0,0,1,.82-.52,2.79,2.79,0,0,1,1-.18,3.18,3.18,0,0,1,1.2.22,2.6,2.6,0,0,1,.92.61,2.73,2.73,0,0,1,.59.94A3.43,3.43,0,0,1,99,159.2a2.81,2.81,0,0,1-.23,1.14,2.94,2.94,0,0,1-1.61,1.56,3.12,3.12,0,0,1-1.2.23,3.29,3.29,0,0,1-1.1-.17,2.59,2.59,0,0,1-.85-.48,2.26,2.26,0,0,1-.56-.74,2.52,2.52,0,0,1-.23-1H94a1.84,1.84,0,0,0,.16.64,1.65,1.65,0,0,0,.4.54,2,2,0,0,0,.62.37,2.29,2.29,0,0,0,.83.14,2.06,2.06,0,0,0,.87-.18,2.14,2.14,0,0,0,.7-.5A2.4,2.4,0,0,0,98,160a2.49,2.49,0,0,0,.17-.92,2.41,2.41,0,0,0-.16-.86,2.12,2.12,0,0,0-1.14-1.2,2.2,2.2,0,0,0-.91-.18,2.55,2.55,0,0,0-1.07.23,2.22,2.22,0,0,0-.85.68h-.66l.81-4.38Z"/><rect class="cls-4" x="192.5" y="110.5" width="43" height="31"/><path class="cls-2" d="M235,111v30H193V111h42m1-1H192v32h44Z"/><rect class="cls-4" x="193.5" y="80.5" width="41" height="29"/><path class="cls-7" d="M234,81v28H194V81h40m1-1H193v30h42Z"/><path class="cls-2" d="M235,80v30H193V80h42m1-1H192v32h44Z"/><rect class="cls-4" x="192.5" y="48.5" width="43" height="31"/><path class="cls-2" d="M235,49V79H193V49h42m1-1H192V80h44Z"/><rect class="cls-4" x="21.5" y="111.5" width="41" height="29"/><path class="cls-7" d="M62,112v28H22V112H62m1-1H21v30H63Z"/><path class="cls-2" d="M63,111v30H21V111H63m1-1H20v32H64Z"/><path class="cls-6" d="M46.15,69V62.54H43.86V62a5.74,5.74,0,0,0,.9-.06,2.36,2.36,0,0,0,.57-.13,1.3,1.3,0,0,0,.64-.52,2.46,2.46,0,0,0,.31-1h.63V69Z"/><path class="cls-6" d="M53.1,60.24a2.87,2.87,0,0,1,1.32.29,2.48,2.48,0,0,1,.94.85,4.14,4.14,0,0,1,.57,1.39,8.64,8.64,0,0,1,.19,1.92A5.94,5.94,0,0,1,55.35,68a2.82,2.82,0,0,1-4.49,0,5.89,5.89,0,0,1-.77-3.34,5.89,5.89,0,0,1,.77-3.35A2.56,2.56,0,0,1,53.1,60.24Zm-2.23,4.45q0,3.81,2.23,3.81t2.24-3.81a5.64,5.64,0,0,0-.57-2.84,1.84,1.84,0,0,0-1.68-1,1.82,1.82,0,0,0-1.65.94A5.63,5.63,0,0,0,50.87,64.69Z"/><path class="cls-6" d="M53.1,91.24a2.87,2.87,0,0,1,1.32.29,2.48,2.48,0,0,1,.94.85,4.14,4.14,0,0,1,.57,1.39,8.64,8.64,0,0,1,.19,1.92A5.94,5.94,0,0,1,55.35,99a2.82,2.82,0,0,1-4.49,0,7.62,7.62,0,0,1,0-6.69A2.56,2.56,0,0,1,53.1,91.24Zm-2.23,4.45q0,3.81,2.23,3.81t2.24-3.81a5.64,5.64,0,0,0-.57-2.84,1.84,1.84,0,0,0-1.68-1,1.82,1.82,0,0,0-1.65.94A5.63,5.63,0,0,0,50.87,95.69Z"/><path class="cls-8" d="M48.67,122.41v1.18H45l-.42,2.24h0a2.3,2.3,0,0,1,.75-.5,2.57,2.57,0,0,1,1-.17,2.81,2.81,0,0,1,1.14.22,2.53,2.53,0,0,1,.86.62,2.71,2.71,0,0,1,.55.93,3.47,3.47,0,0,1,.19,1.17,2.93,2.93,0,0,1-.24,1.17,3,3,0,0,1-.66,1,3.13,3.13,0,0,1-1,.65,3.22,3.22,0,0,1-1.25.24,4.16,4.16,0,0,1-1.15-.15,2.71,2.71,0,0,1-.93-.46,2.33,2.33,0,0,1-.64-.76,2.65,2.65,0,0,1-.2-1.09h1.4a1.51,1.51,0,0,0,.14.5,1.33,1.33,0,0,0,.31.41,1.41,1.41,0,0,0,.48.28,2,2,0,0,0,.65.1,1.67,1.67,0,0,0,.73-.16,1.7,1.7,0,0,0,.55-.42,1.85,1.85,0,0,0,.35-.61,2.17,2.17,0,0,0,.12-.73,2.11,2.11,0,0,0-.12-.7,1.65,1.65,0,0,0-.89-1,1.74,1.74,0,0,0-.74-.15,1.76,1.76,0,0,0-1.52.76H43.2l.84-4.6Z"/><path class="cls-8" d="M53.09,122.23a2.66,2.66,0,0,1,2.32,1.13,5.72,5.72,0,0,1,.79,3.3,5.83,5.83,0,0,1-.79,3.35,2.92,2.92,0,0,1-4.62,0,5.81,5.81,0,0,1-.79-3.35,5.74,5.74,0,0,1,.79-3.31A2.64,2.64,0,0,1,53.09,122.23Zm-1.7,4.44a10.28,10.28,0,0,0,.07,1.25,4.18,4.18,0,0,0,.26,1.06,1.83,1.83,0,0,0,.52.74,1.28,1.28,0,0,0,.85.28,1.31,1.31,0,0,0,1.08-.51,2.12,2.12,0,0,0,.31-.56,4.17,4.17,0,0,0,.2-.69,6.33,6.33,0,0,0,.1-.77v-.8a9.63,9.63,0,0,0-.08-1.27,3.8,3.8,0,0,0-.28-1,1.82,1.82,0,0,0-.53-.71,1.32,1.32,0,0,0-.84-.26,1.29,1.29,0,0,0-.6.13,1.39,1.39,0,0,0-.45.37,2,2,0,0,0-.31.55,4.32,4.32,0,0,0-.19.68,6.52,6.52,0,0,0-.11.76q0,.35,0,.75Z"/><path class="cls-6" d="M46.08,153.24a2.81,2.81,0,0,1,2,.66,2.28,2.28,0,0,1,.73,1.78,2.82,2.82,0,0,1-.55,1.66,7,7,0,0,1-2,1.66,8.29,8.29,0,0,0-1.66,1.23,2,2,0,0,0-.56,1h4.81V162H43.1a3,3,0,0,1,.56-1.74,6.61,6.61,0,0,1,1.93-1.66,8.78,8.78,0,0,0,1.89-1.48,2.11,2.11,0,0,0,.51-1.41,1.64,1.64,0,0,0-.54-1.28,2.25,2.25,0,0,0-2.26-.32,1.82,1.82,0,0,0-.61.44,1.77,1.77,0,0,0-.36.62,2.2,2.2,0,0,0-.12.71V156h-.77v-.12a2.93,2.93,0,0,1,.17-1A2.42,2.42,0,0,1,44,154a2.47,2.47,0,0,1,.86-.59A3.06,3.06,0,0,1,46.08,153.24Z"/><path class="cls-6" d="M55.54,153.41v.72H51.76l-.54,2.78h0a2.32,2.32,0,0,1,.82-.52,2.79,2.79,0,0,1,1-.18,3.18,3.18,0,0,1,1.2.22,2.6,2.6,0,0,1,.92.61,2.73,2.73,0,0,1,.59.94A3.43,3.43,0,0,1,56,159.2a2.81,2.81,0,0,1-.23,1.14,2.94,2.94,0,0,1-1.61,1.56,3.12,3.12,0,0,1-1.2.23,3.29,3.29,0,0,1-1.1-.17,2.59,2.59,0,0,1-.85-.48,2.26,2.26,0,0,1-.56-.74,2.52,2.52,0,0,1-.23-1H51a1.84,1.84,0,0,0,.16.64,1.65,1.65,0,0,0,.4.54,2,2,0,0,0,.62.37,2.29,2.29,0,0,0,.83.14,2.06,2.06,0,0,0,.87-.18,2.14,2.14,0,0,0,.7-.5A2.4,2.4,0,0,0,55,160a2.49,2.49,0,0,0,.17-.92,2.41,2.41,0,0,0-.16-.86,2.12,2.12,0,0,0-1.14-1.2,2.2,2.2,0,0,0-.91-.18,2.55,2.55,0,0,0-1.07.23,2.22,2.22,0,0,0-.85.68h-.66l.81-4.38Z"/><polygon class="cls-7" points="22 122 32 112 22 112 22 122"/><polygon class="cls-5" points="65 60 75 50 65 50 65 60"/><polygon class="cls-7" points="193.5 91 202.72 81 193.5 81 193.5 91"/><path class="cls-6" d="M132.15,69V62.54h-2.29V62a5.74,5.74,0,0,0,.9-.06,2.36,2.36,0,0,0,.57-.13,1.3,1.3,0,0,0,.64-.52,2.46,2.46,0,0,0,.31-1h.63V69Z"/><path class="cls-6" d="M139.1,60.24a2.87,2.87,0,0,1,1.32.29,2.48,2.48,0,0,1,.94.85,4.14,4.14,0,0,1,.57,1.39,8.64,8.64,0,0,1,.19,1.92,5.94,5.94,0,0,1-.77,3.35,2.82,2.82,0,0,1-4.49,0,5.89,5.89,0,0,1-.77-3.34,5.89,5.89,0,0,1,.77-3.35A2.56,2.56,0,0,1,139.1,60.24Zm-2.23,4.45q0,3.81,2.23,3.81t2.24-3.81a5.64,5.64,0,0,0-.57-2.84,1.84,1.84,0,0,0-1.68-1,1.82,1.82,0,0,0-1.65.94,5.63,5.63,0,0,0-.57,2.9Z"/><path class="cls-6" d="M139.1,91.24a2.87,2.87,0,0,1,1.32.29,2.48,2.48,0,0,1,.94.85,4.14,4.14,0,0,1,.57,1.39,8.64,8.64,0,0,1,.19,1.92,5.94,5.94,0,0,1-.77,3.35,2.82,2.82,0,0,1-4.49,0,7.62,7.62,0,0,1,0-6.69A2.56,2.56,0,0,1,139.1,91.24Zm-2.23,4.45q0,3.81,2.23,3.81t2.24-3.81a5.64,5.64,0,0,0-.57-2.84,1.84,1.84,0,0,0-1.68-1,1.82,1.82,0,0,0-1.65.94,5.63,5.63,0,0,0-.57,2.9Z"/><path class="cls-6" d="M134.51,122.41v.72h-3.78l-.54,2.78h0a2.32,2.32,0,0,1,.82-.52,2.79,2.79,0,0,1,1-.18,3.18,3.18,0,0,1,1.2.22,2.6,2.6,0,0,1,.92.61,2.73,2.73,0,0,1,.59.94,3.43,3.43,0,0,1,.21,1.22,2.81,2.81,0,0,1-.23,1.14,2.94,2.94,0,0,1-1.61,1.56,3.12,3.12,0,0,1-1.2.23,3.29,3.29,0,0,1-1.1-.17,2.59,2.59,0,0,1-.85-.48,2.26,2.26,0,0,1-.56-.74,2.52,2.52,0,0,1-.23-1h.79a1.84,1.84,0,0,0,.16.64,1.65,1.65,0,0,0,.4.54,2,2,0,0,0,.62.37,2.29,2.29,0,0,0,.83.14,2.06,2.06,0,0,0,.87-.18,2.14,2.14,0,0,0,.7-.5A2.4,2.4,0,0,0,134,129a2.49,2.49,0,0,0,.17-.92,2.41,2.41,0,0,0-.16-.86,2.12,2.12,0,0,0-1.14-1.2,2.2,2.2,0,0,0-.91-.18,2.55,2.55,0,0,0-1.07.23,2.22,2.22,0,0,0-.85.68h-.66l.81-4.38Z"/><path class="cls-6" d="M139.1,122.24a2.87,2.87,0,0,1,1.32.29,2.48,2.48,0,0,1,.94.85,4.14,4.14,0,0,1,.57,1.39,8.64,8.64,0,0,1,.19,1.92,5.94,5.94,0,0,1-.77,3.35,2.82,2.82,0,0,1-4.49,0,7.62,7.62,0,0,1,0-6.69A2.56,2.56,0,0,1,139.1,122.24Zm-2.23,4.45q0,3.81,2.23,3.81t2.24-3.81a5.64,5.64,0,0,0-.57-2.84,1.84,1.84,0,0,0-1.68-1,1.82,1.82,0,0,0-1.65.94,5.63,5.63,0,0,0-.57,2.9Z"/><path class="cls-6" d="M132.08,153.24a2.81,2.81,0,0,1,2,.66,2.28,2.28,0,0,1,.73,1.78,2.82,2.82,0,0,1-.55,1.66,7,7,0,0,1-2,1.66,8.29,8.29,0,0,0-1.66,1.23,2,2,0,0,0-.56,1h4.81V162h-5.7a3,3,0,0,1,.56-1.74,6.61,6.61,0,0,1,1.93-1.66,8.78,8.78,0,0,0,1.89-1.48,2.11,2.11,0,0,0,.51-1.41,1.64,1.64,0,0,0-.54-1.28,2.25,2.25,0,0,0-2.26-.32,1.82,1.82,0,0,0-.61.44,1.77,1.77,0,0,0-.36.62,2.2,2.2,0,0,0-.12.71V156h-.77v-.12a2.93,2.93,0,0,1,.17-1,2.42,2.42,0,0,1,.51-.84,2.47,2.47,0,0,1,.86-.59A3.06,3.06,0,0,1,132.08,153.24Z"/><path class="cls-6" d="M141.54,153.41v.72h-3.78l-.54,2.78h0a2.32,2.32,0,0,1,.82-.52,2.79,2.79,0,0,1,1-.18,3.18,3.18,0,0,1,1.2.22,2.6,2.6,0,0,1,.92.61,2.73,2.73,0,0,1,.59.94,3.43,3.43,0,0,1,.21,1.22,2.81,2.81,0,0,1-.23,1.14,2.94,2.94,0,0,1-1.61,1.56,3.12,3.12,0,0,1-1.2.23,3.29,3.29,0,0,1-1.1-.17,2.59,2.59,0,0,1-.85-.48,2.26,2.26,0,0,1-.56-.74,2.52,2.52,0,0,1-.23-1H137a1.84,1.84,0,0,0,.16.64,1.65,1.65,0,0,0,.4.54,2,2,0,0,0,.62.37,2.29,2.29,0,0,0,.83.14,2.06,2.06,0,0,0,.87-.18,2.14,2.14,0,0,0,.7-.5A2.4,2.4,0,0,0,141,160a2.49,2.49,0,0,0,.17-.92,2.41,2.41,0,0,0-.16-.86,2.12,2.12,0,0,0-1.14-1.2,2.2,2.2,0,0,0-.91-.18,2.55,2.55,0,0,0-1.07.23,2.22,2.22,0,0,0-.85.68h-.66l.81-4.38Z"/><path class="cls-6" d="M175.15,69V62.54h-2.29V62a5.74,5.74,0,0,0,.9-.06,2.36,2.36,0,0,0,.57-.13,1.3,1.3,0,0,0,.64-.52,2.46,2.46,0,0,0,.31-1h.63V69Z"/><path class="cls-6" d="M182.1,60.24a2.87,2.87,0,0,1,1.32.29,2.48,2.48,0,0,1,.94.85,4.14,4.14,0,0,1,.57,1.39,8.64,8.64,0,0,1,.19,1.92,5.94,5.94,0,0,1-.77,3.35,2.82,2.82,0,0,1-4.49,0,5.89,5.89,0,0,1-.77-3.34,5.89,5.89,0,0,1,.77-3.35A2.56,2.56,0,0,1,182.1,60.24Zm-2.23,4.45q0,3.81,2.23,3.81t2.24-3.81a5.64,5.64,0,0,0-.57-2.84,1.84,1.84,0,0,0-1.68-1,1.82,1.82,0,0,0-1.65.94,5.63,5.63,0,0,0-.57,2.9Z"/><path class="cls-6" d="M182.1,91.24a2.87,2.87,0,0,1,1.32.29,2.48,2.48,0,0,1,.94.85,4.14,4.14,0,0,1,.57,1.39,8.64,8.64,0,0,1,.19,1.92,5.94,5.94,0,0,1-.77,3.35,2.82,2.82,0,0,1-4.49,0,7.62,7.62,0,0,1,0-6.69A2.56,2.56,0,0,1,182.1,91.24Zm-2.23,4.45q0,3.81,2.23,3.81t2.24-3.81a5.64,5.64,0,0,0-.57-2.84,1.84,1.84,0,0,0-1.68-1,1.82,1.82,0,0,0-1.65.94,5.63,5.63,0,0,0-.57,2.9Z"/><path class="cls-6" d="M177.51,122.41v.72h-3.78l-.54,2.78h0a2.32,2.32,0,0,1,.82-.52,2.79,2.79,0,0,1,1-.18,3.18,3.18,0,0,1,1.2.22,2.6,2.6,0,0,1,.92.61,2.73,2.73,0,0,1,.59.94,3.43,3.43,0,0,1,.21,1.22,2.81,2.81,0,0,1-.23,1.14,2.94,2.94,0,0,1-1.61,1.56,3.12,3.12,0,0,1-1.2.23,3.29,3.29,0,0,1-1.1-.17,2.59,2.59,0,0,1-.85-.48,2.26,2.26,0,0,1-.56-.74,2.52,2.52,0,0,1-.23-1h.79a1.84,1.84,0,0,0,.16.64,1.65,1.65,0,0,0,.4.54,2,2,0,0,0,.62.37,2.29,2.29,0,0,0,.83.14,2.06,2.06,0,0,0,.87-.18,2.14,2.14,0,0,0,.7-.5A2.4,2.4,0,0,0,177,129a2.49,2.49,0,0,0,.17-.92,2.41,2.41,0,0,0-.16-.86,2.12,2.12,0,0,0-1.14-1.2,2.2,2.2,0,0,0-.91-.18,2.55,2.55,0,0,0-1.07.23,2.22,2.22,0,0,0-.85.68h-.66l.81-4.38Z"/><path class="cls-6" d="M182.1,122.24a2.87,2.87,0,0,1,1.32.29,2.48,2.48,0,0,1,.94.85,4.14,4.14,0,0,1,.57,1.39,8.64,8.64,0,0,1,.19,1.92,5.94,5.94,0,0,1-.77,3.35,2.82,2.82,0,0,1-4.49,0,7.62,7.62,0,0,1,0-6.69A2.56,2.56,0,0,1,182.1,122.24Zm-2.23,4.45q0,3.81,2.23,3.81t2.24-3.81a5.64,5.64,0,0,0-.57-2.84,1.84,1.84,0,0,0-1.68-1,1.82,1.82,0,0,0-1.65.94,5.63,5.63,0,0,0-.57,2.9Z"/><path class="cls-6" d="M175.08,153.24a2.81,2.81,0,0,1,2,.66,2.28,2.28,0,0,1,.73,1.78,2.82,2.82,0,0,1-.55,1.66,7,7,0,0,1-2,1.66,8.29,8.29,0,0,0-1.66,1.23,2,2,0,0,0-.56,1h4.81V162h-5.7a3,3,0,0,1,.56-1.74,6.61,6.61,0,0,1,1.93-1.66,8.78,8.78,0,0,0,1.89-1.48,2.11,2.11,0,0,0,.51-1.41,1.64,1.64,0,0,0-.54-1.28,2.25,2.25,0,0,0-2.26-.32,1.82,1.82,0,0,0-.61.44,1.77,1.77,0,0,0-.36.62,2.2,2.2,0,0,0-.12.71V156h-.77v-.12a2.93,2.93,0,0,1,.17-1,2.42,2.42,0,0,1,.51-.84,2.47,2.47,0,0,1,.86-.59A3.06,3.06,0,0,1,175.08,153.24Z"/><path class="cls-6" d="M184.54,153.41v.72h-3.78l-.54,2.78h0a2.32,2.32,0,0,1,.82-.52,2.79,2.79,0,0,1,1-.18,3.18,3.18,0,0,1,1.2.22,2.6,2.6,0,0,1,.92.61,2.73,2.73,0,0,1,.59.94,3.43,3.43,0,0,1,.21,1.22,2.81,2.81,0,0,1-.23,1.14,2.94,2.94,0,0,1-1.61,1.56,3.12,3.12,0,0,1-1.2.23,3.29,3.29,0,0,1-1.1-.17,2.59,2.59,0,0,1-.85-.48,2.26,2.26,0,0,1-.56-.74,2.52,2.52,0,0,1-.23-1H180a1.84,1.84,0,0,0,.16.64,1.65,1.65,0,0,0,.4.54,2,2,0,0,0,.62.37,2.29,2.29,0,0,0,.83.14,2.06,2.06,0,0,0,.87-.18,2.14,2.14,0,0,0,.7-.5A2.4,2.4,0,0,0,184,160a2.49,2.49,0,0,0,.17-.92,2.41,2.41,0,0,0-.16-.86,2.12,2.12,0,0,0-1.14-1.2,2.2,2.2,0,0,0-.91-.18,2.55,2.55,0,0,0-1.07.23,2.22,2.22,0,0,0-.85.68h-.66l.81-4.38Z"/><line class="cls-9" x1="20" y1="48.5" x2="236" y2="48.5"/><rect class="cls-4" x="193.5" y="142.5" width="41" height="29"/><path class="cls-10" d="M234,143v28H194V143h40m1-1H193v30h42Z"/><path class="cls-2" d="M235,142v30H193V142h42m1-1H192v32h44Z"/><path class="cls-6" d="M218.15,69V62.54h-2.29V62a5.74,5.74,0,0,0,.9-.06,2.36,2.36,0,0,0,.57-.13,1.3,1.3,0,0,0,.64-.52,2.46,2.46,0,0,0,.31-1h.63V69Z"/><path class="cls-6" d="M225.1,60.24a2.87,2.87,0,0,1,1.32.29,2.48,2.48,0,0,1,.94.85,4.14,4.14,0,0,1,.57,1.39,8.64,8.64,0,0,1,.19,1.92,5.94,5.94,0,0,1-.77,3.35,2.82,2.82,0,0,1-4.49,0,5.89,5.89,0,0,1-.77-3.34,5.89,5.89,0,0,1,.77-3.35A2.56,2.56,0,0,1,225.1,60.24Zm-2.23,4.45q0,3.81,2.23,3.81t2.24-3.81a5.64,5.64,0,0,0-.57-2.84,1.84,1.84,0,0,0-1.68-1,1.82,1.82,0,0,0-1.65.94,5.63,5.63,0,0,0-.57,2.9Z"/><path class="cls-8" d="M227.69,91.41v1.18h-3.63l-.42,2.24h0a2.3,2.3,0,0,1,.75-.5,2.57,2.57,0,0,1,1-.17,2.81,2.81,0,0,1,1.14.22,2.53,2.53,0,0,1,.86.62,2.71,2.71,0,0,1,.55.93,3.47,3.47,0,0,1,.19,1.17,2.93,2.93,0,0,1-.24,1.17,3,3,0,0,1-.66,1,3.13,3.13,0,0,1-1,.65,3.22,3.22,0,0,1-1.25.24,4.16,4.16,0,0,1-1.15-.15,2.71,2.71,0,0,1-.93-.46,2.33,2.33,0,0,1-.64-.76A2.65,2.65,0,0,1,222,97.7h1.4a1.51,1.51,0,0,0,.14.5,1.33,1.33,0,0,0,.31.41,1.41,1.41,0,0,0,.48.28,2,2,0,0,0,.65.1,1.67,1.67,0,0,0,.73-.16,1.7,1.7,0,0,0,.55-.42,1.85,1.85,0,0,0,.35-.61,2.17,2.17,0,0,0,.12-.73,2.11,2.11,0,0,0-.12-.7,1.65,1.65,0,0,0-.89-1,1.74,1.74,0,0,0-.74-.15,1.76,1.76,0,0,0-1.52.76h-1.24l.84-4.6Z"/><path class="cls-6" d="M220.51,122.41v.72h-3.78l-.54,2.78h0a2.32,2.32,0,0,1,.82-.52,2.79,2.79,0,0,1,1-.18,3.18,3.18,0,0,1,1.2.22,2.6,2.6,0,0,1,.92.61,2.73,2.73,0,0,1,.59.94,3.43,3.43,0,0,1,.21,1.22,2.81,2.81,0,0,1-.23,1.14,2.94,2.94,0,0,1-1.61,1.56,3.12,3.12,0,0,1-1.2.23,3.29,3.29,0,0,1-1.1-.17,2.59,2.59,0,0,1-.85-.48,2.26,2.26,0,0,1-.56-.74,2.52,2.52,0,0,1-.23-1h.79a1.84,1.84,0,0,0,.16.64,1.65,1.65,0,0,0,.4.54,2,2,0,0,0,.62.37,2.29,2.29,0,0,0,.83.14,2.06,2.06,0,0,0,.87-.18,2.14,2.14,0,0,0,.7-.5A2.4,2.4,0,0,0,220,129a2.49,2.49,0,0,0,.17-.92,2.41,2.41,0,0,0-.16-.86,2.12,2.12,0,0,0-1.14-1.2,2.2,2.2,0,0,0-.91-.18,2.55,2.55,0,0,0-1.07.23,2.22,2.22,0,0,0-.85.68h-.66l.81-4.38Z"/><path class="cls-6" d="M225.1,122.24a2.87,2.87,0,0,1,1.32.29,2.48,2.48,0,0,1,.94.85,4.14,4.14,0,0,1,.57,1.39,8.64,8.64,0,0,1,.19,1.92,5.94,5.94,0,0,1-.77,3.35,2.82,2.82,0,0,1-4.49,0,7.62,7.62,0,0,1,0-6.69A2.56,2.56,0,0,1,225.1,122.24Zm-2.23,4.45q0,3.81,2.23,3.81t2.24-3.81a5.64,5.64,0,0,0-.57-2.84,1.84,1.84,0,0,0-1.68-1,1.82,1.82,0,0,0-1.65.94,5.63,5.63,0,0,0-.57,2.9Z"/><path class="cls-10" d="M214,157.9v1.19h-3.39V157.9Z"/><path class="cls-10" d="M217.88,162v-5.87h-2.2v-1a6,6,0,0,0,.9-.07,2.36,2.36,0,0,0,.63-.18,1.57,1.57,0,0,0,.64-.55,2.21,2.21,0,0,0,.31-.89h1.11V162Z"/><path class="cls-10" d="M225.09,153.23a2.66,2.66,0,0,1,2.32,1.13,5.72,5.72,0,0,1,.79,3.3,5.83,5.83,0,0,1-.79,3.35,2.92,2.92,0,0,1-4.62,0,5.81,5.81,0,0,1-.79-3.35,5.74,5.74,0,0,1,.79-3.31A2.64,2.64,0,0,1,225.09,153.23Zm-1.7,4.44a10.28,10.28,0,0,0,.07,1.25,4.18,4.18,0,0,0,.26,1.06,1.83,1.83,0,0,0,.52.74,1.28,1.28,0,0,0,.85.28,1.31,1.31,0,0,0,1.08-.51,2.12,2.12,0,0,0,.31-.56,4.17,4.17,0,0,0,.2-.69,6.33,6.33,0,0,0,.1-.77v-.8a9.63,9.63,0,0,0-.08-1.27,3.8,3.8,0,0,0-.28-1,1.82,1.82,0,0,0-.53-.71,1.32,1.32,0,0,0-.84-.26,1.29,1.29,0,0,0-.6.13,1.39,1.39,0,0,0-.45.37,2,2,0,0,0-.31.55,4.32,4.32,0,0,0-.19.68,6.52,6.52,0,0,0-.11.76q0,.35,0,.75Z"/><polygon class="cls-10" points="194 153 204 143 194 143 194 153"/></g></svg>