<svg xmlns="http://www.w3.org/2000/svg" viewBox="0 0 100 86"><defs><style>.cls-1,.cls-2{fill:#fff;}.cls-2{opacity:0.6;}.cls-3{fill:#d2d2d2;}.cls-4{fill:#444;}.cls-5,.cls-6{fill:#f0f;}.cls-6{opacity:0.2;}.cls-7{fill:none;stroke:#f0f;stroke-miterlimit:10;}</style></defs><title>Artboard 10</title><g id="Bg"><rect class="cls-1" x="-806" y="-588" width="6000" height="2500"/></g><g id="Tabeller"><rect class="cls-2" x="6.5" y="30.5" width="43" height="29"/><path class="cls-3" d="M49,31V59H7V31H49m1-1H6V60H50V30Z"/><rect class="cls-2" x="49.5" y="30.5" width="43" height="29"/><path class="cls-3" d="M92,31V59H50V31H92m1-1H49V60H93V30Z"/><path class="cls-4" d="M28.47,46.16v.7h-3v-.7Z"/><path class="cls-4" d="M32.58,41.28a2.81,2.81,0,0,1,2,.66,2.28,2.28,0,0,1,.73,1.78,2.82,2.82,0,0,1-.55,1.66,7,7,0,0,1-2,1.66,8.29,8.29,0,0,0-1.66,1.23,2,2,0,0,0-.56,1h4.81V50h-5.7a3,3,0,0,1,.56-1.74,6.61,6.61,0,0,1,1.93-1.66A8.78,8.78,0,0,0,34,45.11a2.11,2.11,0,0,0,.51-1.41,1.64,1.64,0,0,0-.54-1.28,2,2,0,0,0-1.4-.49,2,2,0,0,0-.86.17,1.82,1.82,0,0,0-.61.44,1.77,1.77,0,0,0-.36.62,2.2,2.2,0,0,0-.12.71V44h-.77v-.12a2.93,2.93,0,0,1,.17-1,2.42,2.42,0,0,1,.51-.84,2.47,2.47,0,0,1,.86-.59A3.06,3.06,0,0,1,32.58,41.28Z"/><path class="cls-4" d="M39.6,41.28a2.87,2.87,0,0,1,1.32.29,2.48,2.48,0,0,1,.94.85,4.14,4.14,0,0,1,.57,1.39,8.64,8.64,0,0,1,.19,1.92,5.94,5.94,0,0,1-.77,3.35,2.82,2.82,0,0,1-4.49,0,5.89,5.89,0,0,1-.77-3.34,5.89,5.89,0,0,1,.77-3.35A2.56,2.56,0,0,1,39.6,41.28Zm-2.23,4.45q0,3.81,2.23,3.81t2.24-3.81a5.64,5.64,0,0,0-.57-2.84,1.84,1.84,0,0,0-1.68-1,1.82,1.82,0,0,0-1.65.94A5.63,5.63,0,0,0,37.37,45.72Z"/><path class="cls-5" d="M32.59,16a2.11,2.11,0,0,1,.63.09,1.56,1.56,0,0,1,.5.26,1.42,1.42,0,0,1,.36.41,1.65,1.65,0,0,1,.2.56h-.52a1.14,1.14,0,0,0-.12-.34,1,1,0,0,0-.24-.28,1.1,1.1,0,0,0-.35-.19,1.44,1.44,0,0,0-.46-.07,1.35,1.35,0,0,0-.68.17,1.41,1.41,0,0,0-.5.5,2.56,2.56,0,0,0-.3.81A5.38,5.38,0,0,0,31,19h0a1.72,1.72,0,0,1,1.54-1,1.83,1.83,0,0,1,1.37.54A1.88,1.88,0,0,1,34.44,20a1.89,1.89,0,0,1-2,2,2.06,2.06,0,0,1-.94-.2,1.54,1.54,0,0,1-.62-.56,2.81,2.81,0,0,1-.35-.93,6.94,6.94,0,0,1-.12-1.37,5.65,5.65,0,0,1,0-.71,3.74,3.74,0,0,1,.15-.67,3,3,0,0,1,.27-.6,1.9,1.9,0,0,1,.4-.48,1.78,1.78,0,0,1,.55-.32A2.05,2.05,0,0,1,32.59,16ZM31.1,20a1.5,1.5,0,0,0,.38,1.09,1.41,1.41,0,0,0,1.06.39,1.27,1.27,0,0,0,1-.44,1.5,1.5,0,0,0,.39-1,1.6,1.6,0,0,0-.38-1.09,1.29,1.29,0,0,0-1-.43,1.36,1.36,0,0,0-1,.42A1.54,1.54,0,0,0,31.1,20Z"/><path class="cls-5" d="M41.94,19.61a3.17,3.17,0,0,1-.12.85,2.25,2.25,0,0,1-.36.74,1.79,1.79,0,0,1-.61.52,2,2,0,0,1-1.36.14,1.65,1.65,0,0,1-.43-.18,1.53,1.53,0,0,1-.36-.3,1.48,1.48,0,0,1-.26-.42h0v2.45H37.9v-6h.5v.83h0a1.51,1.51,0,0,1,.26-.41,1.53,1.53,0,0,1,.37-.3,1.79,1.79,0,0,1,.44-.19A1.88,1.88,0,0,1,40,17.3a1.9,1.9,0,0,1,.86.18,1.76,1.76,0,0,1,.62.5,2.21,2.21,0,0,1,.37.74A3.11,3.11,0,0,1,41.94,19.61Zm-.54,0a3,3,0,0,0-.07-.65,1.89,1.89,0,0,0-.24-.6,1.38,1.38,0,0,0-.45-.44,1.26,1.26,0,0,0-.68-.17,1.39,1.39,0,0,0-1.13.47,2.14,2.14,0,0,0-.39,1.4,2.82,2.82,0,0,0,.08.69,1.79,1.79,0,0,0,.27.6,1.4,1.4,0,0,0,.48.42,1.44,1.44,0,0,0,.71.16,1.24,1.24,0,0,0,.64-.16,1.35,1.35,0,0,0,.45-.42,1.91,1.91,0,0,0,.26-.6A2.75,2.75,0,0,0,41.41,19.61Z"/><path class="cls-5" d="M43.4,17.43l1.25,1.66,1.22-1.66h.67L45,19.52l1.71,2.28H46L44.61,20,43.27,21.8H42.6l1.7-2.27-1.57-2.1Z"/><path class="cls-5" d="M45.46,73.6V69.32H43.94v-.37l.6,0a1.56,1.56,0,0,0,.38-.08.87.87,0,0,0,.43-.35,1.64,1.64,0,0,0,.21-.65H46V73.6Z"/><path class="cls-5" d="M54.94,71.42a3.17,3.17,0,0,1-.12.85,2.25,2.25,0,0,1-.36.74,1.79,1.79,0,0,1-.61.52,2,2,0,0,1-1.36.14,1.65,1.65,0,0,1-.43-.18,1.53,1.53,0,0,1-.36-.3,1.48,1.48,0,0,1-.26-.42h0v2.45H50.9v-6h.5v.83h0a1.51,1.51,0,0,1,.26-.41,1.53,1.53,0,0,1,.37-.3,1.79,1.79,0,0,1,.44-.19A1.88,1.88,0,0,1,53,69.1a1.9,1.9,0,0,1,.86.18,1.76,1.76,0,0,1,.62.5,2.21,2.21,0,0,1,.37.74A3.11,3.11,0,0,1,54.94,71.42Zm-.54,0a3,3,0,0,0-.07-.65,1.89,1.89,0,0,0-.24-.6,1.38,1.38,0,0,0-.45-.44,1.26,1.26,0,0,0-.68-.17,1.39,1.39,0,0,0-1.13.47,2.14,2.14,0,0,0-.39,1.4,2.82,2.82,0,0,0,.08.69,1.79,1.79,0,0,0,.27.6,1.4,1.4,0,0,0,.48.42,1.44,1.44,0,0,0,.71.16,1.24,1.24,0,0,0,.64-.16,1.35,1.35,0,0,0,.45-.42,1.91,1.91,0,0,0,.26-.6A2.75,2.75,0,0,0,54.41,71.42Z"/><path class="cls-5" d="M56.4,69.23l1.25,1.66,1.22-1.66h.67L58,71.32l1.71,2.28H59l-1.37-1.84L56.27,73.6H55.6l1.7-2.27-1.57-2.1Z"/><path class="cls-5" d="M7.59,16a2.11,2.11,0,0,1,.63.09,1.56,1.56,0,0,1,.5.26,1.42,1.42,0,0,1,.36.41,1.65,1.65,0,0,1,.2.56H8.75A1.14,1.14,0,0,0,8.63,17a1,1,0,0,0-.24-.28A1.1,1.1,0,0,0,8,16.49a1.44,1.44,0,0,0-.46-.07,1.35,1.35,0,0,0-.68.17,1.41,1.41,0,0,0-.5.5,2.56,2.56,0,0,0-.3.81A5.38,5.38,0,0,0,6,19H6a1.72,1.72,0,0,1,1.54-1,1.83,1.83,0,0,1,1.37.54A1.88,1.88,0,0,1,9.44,20a1.89,1.89,0,0,1-2,2,2.06,2.06,0,0,1-.94-.2,1.54,1.54,0,0,1-.62-.56,2.81,2.81,0,0,1-.35-.93,6.94,6.94,0,0,1-.12-1.37,5.65,5.65,0,0,1,0-.71,3.74,3.74,0,0,1,.15-.67,3,3,0,0,1,.27-.6,1.9,1.9,0,0,1,.4-.48,1.78,1.78,0,0,1,.55-.32A2.05,2.05,0,0,1,7.59,16ZM6.1,20a1.5,1.5,0,0,0,.38,1.09,1.41,1.41,0,0,0,1.06.39,1.27,1.27,0,0,0,1-.44,1.5,1.5,0,0,0,.39-1,1.6,1.6,0,0,0-.38-1.09,1.29,1.29,0,0,0-1-.43,1.36,1.36,0,0,0-1,.42A1.54,1.54,0,0,0,6.1,20Z"/><path class="cls-5" d="M16.94,19.61a3.17,3.17,0,0,1-.12.85,2.25,2.25,0,0,1-.36.74,1.79,1.79,0,0,1-.61.52,2,2,0,0,1-1.36.14,1.65,1.65,0,0,1-.43-.18,1.53,1.53,0,0,1-.36-.3,1.48,1.48,0,0,1-.26-.42h0v2.45H12.9v-6h.5v.83h0a1.51,1.51,0,0,1,.26-.41,1.53,1.53,0,0,1,.37-.3,1.79,1.79,0,0,1,.44-.19A1.88,1.88,0,0,1,15,17.3a1.9,1.9,0,0,1,.86.18,1.76,1.76,0,0,1,.62.5,2.21,2.21,0,0,1,.37.74A3.11,3.11,0,0,1,16.94,19.61Zm-.54,0a3,3,0,0,0-.07-.65,1.89,1.89,0,0,0-.24-.6,1.38,1.38,0,0,0-.45-.44,1.26,1.26,0,0,0-.68-.17,1.39,1.39,0,0,0-1.13.47,2.14,2.14,0,0,0-.39,1.4,2.82,2.82,0,0,0,.08.69,1.79,1.79,0,0,0,.27.6,1.4,1.4,0,0,0,.48.42,1.44,1.44,0,0,0,.71.16,1.24,1.24,0,0,0,.64-.16,1.35,1.35,0,0,0,.45-.42,1.91,1.91,0,0,0,.26-.6A2.75,2.75,0,0,0,16.41,19.61Z"/><path class="cls-5" d="M18.4,17.43l1.25,1.66,1.22-1.66h.67L20,19.52l1.71,2.28H21L19.61,20,18.27,21.8H17.6l1.7-2.27-1.57-2.1Z"/><path class="cls-5" d="M52.59,16a2.11,2.11,0,0,1,.63.09,1.56,1.56,0,0,1,.5.26,1.42,1.42,0,0,1,.36.41,1.65,1.65,0,0,1,.2.56h-.52a1.14,1.14,0,0,0-.12-.34,1,1,0,0,0-.24-.28,1.1,1.1,0,0,0-.35-.19,1.44,1.44,0,0,0-.46-.07,1.35,1.35,0,0,0-.68.17,1.41,1.41,0,0,0-.5.5,2.56,2.56,0,0,0-.3.81A5.38,5.38,0,0,0,51,19h0a1.72,1.72,0,0,1,1.54-1,1.83,1.83,0,0,1,1.37.54A1.88,1.88,0,0,1,54.44,20a1.89,1.89,0,0,1-2,2,2.06,2.06,0,0,1-.94-.2,1.54,1.54,0,0,1-.62-.56,2.81,2.81,0,0,1-.35-.93,6.94,6.94,0,0,1-.12-1.37,5.65,5.65,0,0,1,0-.71,3.74,3.74,0,0,1,.15-.67,3,3,0,0,1,.27-.6,1.9,1.9,0,0,1,.4-.48,1.78,1.78,0,0,1,.55-.32A2.05,2.05,0,0,1,52.59,16ZM51.1,20a1.5,1.5,0,0,0,.38,1.09,1.41,1.41,0,0,0,1.06.39,1.27,1.27,0,0,0,1-.44,1.5,1.5,0,0,0,.39-1,1.6,1.6,0,0,0-.38-1.09,1.29,1.29,0,0,0-1-.43,1.36,1.36,0,0,0-1,.42A1.54,1.54,0,0,0,51.1,20Z"/><path class="cls-5" d="M61.94,19.61a3.17,3.17,0,0,1-.12.85,2.25,2.25,0,0,1-.36.74,1.79,1.79,0,0,1-.61.52,2,2,0,0,1-1.36.14,1.65,1.65,0,0,1-.43-.18,1.53,1.53,0,0,1-.36-.3,1.48,1.48,0,0,1-.26-.42h0v2.45H57.9v-6h.5v.83h0a1.51,1.51,0,0,1,.26-.41,1.53,1.53,0,0,1,.37-.3,1.79,1.79,0,0,1,.44-.19A1.88,1.88,0,0,1,60,17.3a1.9,1.9,0,0,1,.86.18,1.76,1.76,0,0,1,.62.5,2.21,2.21,0,0,1,.37.74A3.11,3.11,0,0,1,61.94,19.61Zm-.54,0a3,3,0,0,0-.07-.65,1.89,1.89,0,0,0-.24-.6,1.38,1.38,0,0,0-.45-.44,1.26,1.26,0,0,0-.68-.17,1.39,1.39,0,0,0-1.13.47,2.14,2.14,0,0,0-.39,1.4,2.82,2.82,0,0,0,.08.69,1.79,1.79,0,0,0,.27.6,1.4,1.4,0,0,0,.48.42,1.44,1.44,0,0,0,.71.16,1.24,1.24,0,0,0,.64-.16,1.35,1.35,0,0,0,.45-.42,1.91,1.91,0,0,0,.26-.6A2.75,2.75,0,0,0,61.41,19.61Z"/><path class="cls-5" d="M63.4,17.43l1.25,1.66,1.22-1.66h.67L65,19.52l1.71,2.28H66L64.61,20,63.27,21.8H62.6l1.7-2.27-1.57-2.1Z"/><path class="cls-5" d="M78.59,16a2.11,2.11,0,0,1,.63.09,1.55,1.55,0,0,1,.5.26,1.41,1.41,0,0,1,.36.41,1.64,1.64,0,0,1,.2.56h-.52a1.13,1.13,0,0,0-.12-.34,1,1,0,0,0-.24-.28,1.08,1.08,0,0,0-.35-.19,1.43,1.43,0,0,0-.46-.07,1.35,1.35,0,0,0-.68.17,1.41,1.41,0,0,0-.5.5,2.56,2.56,0,0,0-.3.81A5.38,5.38,0,0,0,77,19h0a1.72,1.72,0,0,1,1.54-1,1.83,1.83,0,0,1,1.37.54A1.88,1.88,0,0,1,80.44,20a1.89,1.89,0,0,1-2,2,2.07,2.07,0,0,1-.94-.2,1.54,1.54,0,0,1-.62-.56,2.82,2.82,0,0,1-.35-.93,7,7,0,0,1-.12-1.37,5.64,5.64,0,0,1,0-.71,3.72,3.72,0,0,1,.15-.67,3,3,0,0,1,.27-.6,1.89,1.89,0,0,1,.4-.48,1.76,1.76,0,0,1,.55-.32A2,2,0,0,1,78.59,16ZM77.1,20a1.5,1.5,0,0,0,.38,1.09,1.41,1.41,0,0,0,1.06.39,1.27,1.27,0,0,0,1-.44,1.5,1.5,0,0,0,.39-1,1.6,1.6,0,0,0-.38-1.09,1.29,1.29,0,0,0-1-.43,1.36,1.36,0,0,0-1,.42A1.53,1.53,0,0,0,77.1,20Z"/><path class="cls-5" d="M87.94,19.61a3.17,3.17,0,0,1-.12.85,2.25,2.25,0,0,1-.36.74,1.8,1.8,0,0,1-.61.52,1.86,1.86,0,0,1-.88.2,1.89,1.89,0,0,1-.47-.06,1.68,1.68,0,0,1-.43-.18,1.55,1.55,0,0,1-.36-.3,1.49,1.49,0,0,1-.26-.42h0v2.45H83.9v-6h.5v.83h0a1.51,1.51,0,0,1,.62-.71,1.77,1.77,0,0,1,.44-.19,2,2,0,0,1,1.35.12,1.76,1.76,0,0,1,.62.5,2.21,2.21,0,0,1,.37.74A3.1,3.1,0,0,1,87.94,19.61Zm-.54,0a3,3,0,0,0-.07-.65,1.89,1.89,0,0,0-.24-.6,1.38,1.38,0,0,0-.45-.44,1.26,1.26,0,0,0-.68-.17,1.39,1.39,0,0,0-1.13.47,2.14,2.14,0,0,0-.39,1.4,2.82,2.82,0,0,0,.08.69,1.79,1.79,0,0,0,.27.6,1.41,1.41,0,0,0,.48.42,1.45,1.45,0,0,0,.71.16,1.24,1.24,0,0,0,.64-.16,1.36,1.36,0,0,0,.45-.42,1.91,1.91,0,0,0,.26-.6A2.75,2.75,0,0,0,87.41,19.61Z"/><path class="cls-5" d="M89.4,17.43l1.25,1.66,1.22-1.66h.67L91,19.52l1.71,2.28H92L90.61,20,89.27,21.8H88.6l1.7-2.27-1.57-2.1Z"/><path class="cls-4" d="M71.58,46.16v.7h-3v-.7Z"/><path class="cls-4" d="M75.69,41.28a2.81,2.81,0,0,1,2,.66,2.28,2.28,0,0,1,.73,1.78,2.82,2.82,0,0,1-.55,1.66,7,7,0,0,1-2,1.66,8.29,8.29,0,0,0-1.66,1.23,2,2,0,0,0-.56,1h4.81V50h-5.7a3,3,0,0,1,.56-1.74A6.61,6.61,0,0,1,75.2,46.6a8.78,8.78,0,0,0,1.89-1.48,2.11,2.11,0,0,0,.51-1.41,1.64,1.64,0,0,0-.54-1.28,2,2,0,0,0-1.4-.49,2,2,0,0,0-.86.17,1.82,1.82,0,0,0-.61.44,1.77,1.77,0,0,0-.36.62,2.2,2.2,0,0,0-.12.71V44h-.77v-.12a2.93,2.93,0,0,1,.17-1,2.42,2.42,0,0,1,.51-.84,2.47,2.47,0,0,1,.86-.59A3.06,3.06,0,0,1,75.69,41.28Z"/><path class="cls-4" d="M82.71,41.28a2.87,2.87,0,0,1,1.32.29,2.48,2.48,0,0,1,.94.85,4.14,4.14,0,0,1,.57,1.39,8.64,8.64,0,0,1,.19,1.92A5.94,5.94,0,0,1,85,49.07a2.82,2.82,0,0,1-4.49,0,5.89,5.89,0,0,1-.77-3.34,5.89,5.89,0,0,1,.77-3.35A2.56,2.56,0,0,1,82.71,41.28Zm-2.23,4.45q0,3.81,2.23,3.81T85,45.72a5.64,5.64,0,0,0-.57-2.84,1.84,1.84,0,0,0-1.68-1,1.82,1.82,0,0,0-1.65.94A5.63,5.63,0,0,0,80.48,45.72Z"/><rect class="cls-6" x="43" y="26" width="6" height="34"/><rect class="cls-6" x="7" y="26" width="6" height="34"/><rect class="cls-6" x="50" y="26" width="6" height="34"/><rect class="cls-6" x="86" y="26" width="6" height="34"/><line class="cls-7" x1="49" y1="52" x2="49" y2="67"/></g></svg>