<svg xmlns="http://www.w3.org/2000/svg" viewBox="0 0 674 251"><defs><style>.cls-1,.cls-4{fill:#fff;}.cls-2,.cls-7,.cls-8{fill:none;}.cls-2{stroke:#c8c8c8;stroke-miterlimit:10;}.cls-3,.cls-4{opacity:0.08;}.cls-5{fill:#464646;}.cls-6{fill:#444;}.cls-8,.cls-9{opacity:0.2;}.cls-9{fill:#787878;}</style></defs><title>Artboard 13</title><g id="Bg"><rect class="cls-1" x="-799" y="-1138" width="6000" height="2500"/></g><g id="Tabeller"><line class="cls-2" x1="663" y1="43.5" x2="20" y2="43.5"/><rect class="cls-3" x="20" y="44" width="643" height="20"/><rect class="cls-4" x="20" y="65" width="643" height="24"/><rect class="cls-3" x="20" y="90" width="643" height="20"/><rect class="cls-4" x="20" y="110" width="643" height="24"/><rect class="cls-4" x="20" y="135" width="643" height="24"/><rect class="cls-3" x="20" y="160" width="643" height="20"/><rect class="cls-1" x="20" y="181" width="643" height="24"/><rect class="cls-1" x="20" y="206" width="643" height="24"/><path class="cls-5" d="M40,53a2.24,2.24,0,0,1-1.49,2.25,3.07,3.07,0,0,1-1,.16h-2.2v3H33.94V50.57h3.57a2.56,2.56,0,0,1,1.84.66A2.3,2.3,0,0,1,40,53ZM38.7,53a1.25,1.25,0,0,0-.38-1,1.81,1.81,0,0,0-1.2-.33h-1.8v2.66h1.83a2.51,2.51,0,0,0,.66-.08A1.17,1.17,0,0,0,38.7,53Z"/><path class="cls-5" d="M46.65,58.43l-.4.08-.36,0a1.66,1.66,0,0,1-.39,0,.83.83,0,0,1-.31-.14.77.77,0,0,1-.22-.27,1.17,1.17,0,0,1-.11-.41h0a2.43,2.43,0,0,1-.42.42,2.06,2.06,0,0,1-.48.29,3,3,0,0,1-1.2.22,2.22,2.22,0,0,1-1.48-.47,1.62,1.62,0,0,1-.55-1.33,1.56,1.56,0,0,1,.55-1.3,1.94,1.94,0,0,1,.53-.29,4.22,4.22,0,0,1,.67-.18l.75-.12.8-.09.31-.06a.76.76,0,0,0,.24-.12.55.55,0,0,0,.16-.21.72.72,0,0,0,.06-.3.9.9,0,0,0-.28-.72,1.94,1.94,0,0,0-1.88,0,.91.91,0,0,0-.36.67H40.92a1.84,1.84,0,0,1,.26-.82,1.81,1.81,0,0,1,.57-.57,2.66,2.66,0,0,1,.83-.33,4.68,4.68,0,0,1,1-.11,3.13,3.13,0,0,1,1.87.46A1.51,1.51,0,0,1,46.1,54v3.25a.43.43,0,0,0,.07.28.3.3,0,0,0,.25.09h.11l.12,0Zm-1.87-3.07h0a.87.87,0,0,1-.5.21l-.44.08-.59.1a2,2,0,0,0-.9.34.79.79,0,0,0-.29.66.81.81,0,0,0,.34.7,1.35,1.35,0,0,0,.8.22,1.64,1.64,0,0,0,1.16-.4,1.46,1.46,0,0,0,.45-1.14Z"/><path class="cls-5" d="M47.9,58.43v-6h1.25v1.22h0a2.2,2.2,0,0,1,.8-1,2,2,0,0,1,1.18-.36h.2l.19,0v1.25l-.23,0H51a1.69,1.69,0,0,0-1.36.55,2.17,2.17,0,0,0-.47,1.44v2.92Z"/><path class="cls-5" d="M58,58.43l-.4.08-.36,0a1.66,1.66,0,0,1-.39,0,.83.83,0,0,1-.31-.14.77.77,0,0,1-.22-.27,1.17,1.17,0,0,1-.11-.41h0a2.43,2.43,0,0,1-.42.42,2.06,2.06,0,0,1-.48.29,3,3,0,0,1-1.2.22,2.22,2.22,0,0,1-1.48-.47,1.62,1.62,0,0,1-.55-1.33,1.56,1.56,0,0,1,.55-1.3,1.94,1.94,0,0,1,.53-.29,4.22,4.22,0,0,1,.67-.18l.75-.12.8-.09.31-.06a.76.76,0,0,0,.24-.12.55.55,0,0,0,.16-.21.72.72,0,0,0,.06-.3.9.9,0,0,0-.28-.72,1.94,1.94,0,0,0-1.88,0,.91.91,0,0,0-.36.67H52.31a1.84,1.84,0,0,1,.26-.82,1.81,1.81,0,0,1,.57-.57,2.66,2.66,0,0,1,.83-.33,4.68,4.68,0,0,1,1-.11,3.13,3.13,0,0,1,1.87.46A1.51,1.51,0,0,1,57.49,54v3.25a.43.43,0,0,0,.07.28.3.3,0,0,0,.25.09h.11l.12,0Zm-1.87-3.07h0a.87.87,0,0,1-.5.21l-.44.08-.59.1a2,2,0,0,0-.9.34.79.79,0,0,0-.29.66.81.81,0,0,0,.34.7,1.35,1.35,0,0,0,.8.22,1.64,1.64,0,0,0,1.16-.4,1.46,1.46,0,0,0,.45-1.14Z"/><path class="cls-5" d="M66.89,58.43V54.72a3.16,3.16,0,0,0,0-.57,1.17,1.17,0,0,0-.18-.45.88.88,0,0,0-.35-.29,1.34,1.34,0,0,0-.58-.11,1.14,1.14,0,0,0-1,.44A2.09,2.09,0,0,0,64.43,55v3.43H63.1V54.57a1.51,1.51,0,0,0-.25-1A1,1,0,0,0,62,53.3a1.23,1.23,0,0,0-1,.44,1.83,1.83,0,0,0-.37,1.2v3.49H59.32v-6h1.25v.89h0a2.12,2.12,0,0,1,1.89-1.05,2.08,2.08,0,0,1,1.1.27,1.57,1.57,0,0,1,.65.79,2.26,2.26,0,0,1,.8-.79,2,2,0,0,1,3.18,1.81v4.1Z"/><path class="cls-5" d="M72.6,52.24a2.76,2.76,0,0,1,1.23.26,2.54,2.54,0,0,1,.88.71,3.07,3.07,0,0,1,.53,1,4.37,4.37,0,0,1,.18,1.25v.24H71a2.54,2.54,0,0,0,.12.74,1.76,1.76,0,0,0,.32.58,1.42,1.42,0,0,0,.49.38,1.55,1.55,0,0,0,.66.13,1.76,1.76,0,0,0,.89-.21,1.56,1.56,0,0,0,.56-.55h1.25a2.78,2.78,0,0,1-.41.74,2.6,2.6,0,0,1-.61.56,2.74,2.74,0,0,1-.78.36,3.36,3.36,0,0,1-.93.12,3,3,0,0,1-1.22-.24,2.58,2.58,0,0,1-.91-.66,2.91,2.91,0,0,1-.57-1,4,4,0,0,1-.2-1.28,3.72,3.72,0,0,1,.2-1.22,3,3,0,0,1,.58-1,2.78,2.78,0,0,1,.93-.69A2.89,2.89,0,0,1,72.6,52.24Zm1.5,2.61a2.54,2.54,0,0,0-.15-.65,1.6,1.6,0,0,0-.3-.5,1.31,1.31,0,0,0-.46-.32,1.59,1.59,0,0,0-.63-.12,1.6,1.6,0,0,0-.63.12,1.38,1.38,0,0,0-.47.33,1.64,1.64,0,0,0-.32.5,2.34,2.34,0,0,0-.16.64Z"/><path class="cls-5" d="M79.8,58.47H79a4.3,4.3,0,0,1-.67-.05,1.45,1.45,0,0,1-.55-.2,1,1,0,0,1-.37-.41,1.53,1.53,0,0,1-.13-.69V53.33H76.13V52.4h1.18V50.6h1.33v1.8H80v.93H78.64v3.41a.76.76,0,0,0,.15.53.74.74,0,0,0,.54.16h.52l.15,0v1Z"/><path class="cls-5" d="M83.83,52.24a2.76,2.76,0,0,1,1.23.26,2.54,2.54,0,0,1,.88.71,3.07,3.07,0,0,1,.53,1,4.37,4.37,0,0,1,.18,1.25v.24H82.2a2.54,2.54,0,0,0,.12.74,1.75,1.75,0,0,0,.32.58,1.42,1.42,0,0,0,.49.38,1.55,1.55,0,0,0,.66.13,1.75,1.75,0,0,0,.89-.21,1.56,1.56,0,0,0,.56-.55h1.25a2.76,2.76,0,0,1-.41.74,2.6,2.6,0,0,1-.61.56,2.73,2.73,0,0,1-.78.36,3.36,3.36,0,0,1-.93.12,3,3,0,0,1-1.22-.24,2.58,2.58,0,0,1-.91-.66,2.9,2.9,0,0,1-.57-1,4,4,0,0,1-.2-1.28,3.72,3.72,0,0,1,.2-1.22,3,3,0,0,1,.58-1,2.78,2.78,0,0,1,.93-.69A2.89,2.89,0,0,1,83.83,52.24Zm1.5,2.61a2.54,2.54,0,0,0-.15-.65,1.6,1.6,0,0,0-.3-.5,1.31,1.31,0,0,0-.46-.32,1.59,1.59,0,0,0-.63-.12,1.6,1.6,0,0,0-.63.12,1.38,1.38,0,0,0-.47.33,1.64,1.64,0,0,0-.32.5,2.32,2.32,0,0,0-.16.64Z"/><path class="cls-5" d="M88,58.43v-6h1.25v1.22h0a2.2,2.2,0,0,1,.8-1,2,2,0,0,1,1.18-.36h.2l.19,0v1.25l-.23,0h-.26a1.69,1.69,0,0,0-1.36.55,2.17,2.17,0,0,0-.47,1.44v2.92Z"/><path class="cls-5" d="M98.15,58.43V53h-2v-1A5.31,5.31,0,0,0,97,52a2.19,2.19,0,0,0,.57-.17,1.45,1.45,0,0,0,.59-.51,2,2,0,0,0,.29-.82h1v7.88Z"/><path class="cls-6" d="M40.28,79.15A2.15,2.15,0,0,1,40,80.29a2.26,2.26,0,0,1-.76.76,3.46,3.46,0,0,1-1.1.43,6.15,6.15,0,0,1-1.29.13,4.8,4.8,0,0,1-1.28-.16,3.18,3.18,0,0,1-1-.49,2.35,2.35,0,0,1-.69-.79,2.23,2.23,0,0,1-.25-1.08V78.9h.82V79a1.87,1.87,0,0,0,.16.76,1.65,1.65,0,0,0,.48.62,2.43,2.43,0,0,0,.81.42,3.79,3.79,0,0,0,1.15.15,4,4,0,0,0,.9-.1,2.56,2.56,0,0,0,.79-.32,1.81,1.81,0,0,0,.56-.54,1.38,1.38,0,0,0,.21-.78q0-1.11-1.67-1.52l-2-.49a4,4,0,0,1-.88-.31,2.14,2.14,0,0,1-.6-.44,1.59,1.59,0,0,1-.35-.58,2.25,2.25,0,0,1-.11-.73,2.1,2.1,0,0,1,.25-1,2.34,2.34,0,0,1,.68-.76,3.07,3.07,0,0,1,1-.46,4.16,4.16,0,0,1,1.14-.16,4.34,4.34,0,0,1,1.2.16,2.9,2.9,0,0,1,1,.46,2.27,2.27,0,0,1,.64.75,2.24,2.24,0,0,1,.25,1h-.81a1.6,1.6,0,0,0-.2-.65,1.78,1.78,0,0,0-.46-.53,2.23,2.23,0,0,0-.69-.36,2.8,2.8,0,0,0-.88-.13,3.49,3.49,0,0,0-.91.11,2.16,2.16,0,0,0-.71.33,1.46,1.46,0,0,0-.46.53,1.59,1.59,0,0,0-.16.73,1.21,1.21,0,0,0,.11.53,1.13,1.13,0,0,0,.29.38,1.54,1.54,0,0,0,.43.25,4,4,0,0,0,.53.17l2,.48a3.73,3.73,0,0,1,1.76.85A1.93,1.93,0,0,1,40.28,79.15Z"/><path class="cls-6" d="M44.56,81.49H43.9a3,3,0,0,1-.68-.06,1,1,0,0,1-.45-.22.9.9,0,0,1-.25-.43,2.65,2.65,0,0,1-.07-.68V75.54H41.13v-.67h1.32v-2h.8v2h1.5v.67h-1.5V80a1.77,1.77,0,0,0,0,.34.63.63,0,0,0,.11.25.5.5,0,0,0,.21.16.87.87,0,0,0,.35.06h.6l.21,0v.68Z"/><path class="cls-6" d="M52.19,81.38l-.27,0h-.24a1.37,1.37,0,0,1-.44-.06.66.66,0,0,1-.29-.2.81.81,0,0,1-.16-.35,2.44,2.44,0,0,1,0-.53h0a3,3,0,0,1-1,1,2.79,2.79,0,0,1-1.35.29,2.46,2.46,0,0,1-1.6-.5,1.75,1.75,0,0,1-.6-1.43,1.66,1.66,0,0,1,.66-1.43,6.79,6.79,0,0,1,3-.69,2,2,0,0,0,.44-.08.75.75,0,0,0,.29-.16.6.6,0,0,0,.16-.26,1.28,1.28,0,0,0,0-.38,1.24,1.24,0,0,0-.4-1,2,2,0,0,0-1.31-.34,2.61,2.61,0,0,0-.72.09,1.65,1.65,0,0,0-.53.25,1.13,1.13,0,0,0-.33.39,1.22,1.22,0,0,0-.13.49h-.8a2,2,0,0,1,.22-.78,1.78,1.78,0,0,1,.51-.6,2.43,2.43,0,0,1,.81-.38,4,4,0,0,1,1.09-.13,2.64,2.64,0,0,1,1.83.54,2,2,0,0,1,.59,1.52v3.56a.47.47,0,0,0,.11.33.46.46,0,0,0,.36.12.7.7,0,0,0,.25,0Zm-1.52-3.54h0q-.12.22-.77.31l-.67.1-.74.12a2.67,2.67,0,0,0-1.17.44,1,1,0,0,0-.39.84,1.16,1.16,0,0,0,.43.94,1.6,1.6,0,0,0,1,.35A2.36,2.36,0,0,0,50,80.36a1.85,1.85,0,0,0,.65-1.44Z"/><path class="cls-6" d="M53.63,81.43V74.86h.74V76.4h0a2.56,2.56,0,0,1,.9-1.2,2.32,2.32,0,0,1,1.38-.43H57v.8h-.18a2.22,2.22,0,0,0-1.71.69,2.36,2.36,0,0,0-.64,1.69v3.48Z"/><path class="cls-6" d="M61.19,81.49h-.66a3,3,0,0,1-.68-.06,1,1,0,0,1-.45-.22.9.9,0,0,1-.25-.43,2.65,2.65,0,0,1-.07-.68V75.54H57.77v-.67h1.32v-2h.8v2h1.5v.67h-1.5V80a1.77,1.77,0,0,0,0,.34.63.63,0,0,0,.11.25.5.5,0,0,0,.21.16.87.87,0,0,0,.35.06h.6l.21,0v.68Z"/><path class="cls-6" d="M66.68,74.86l2.06,5.76h0l2-5.76h.83l-2.46,6.56h-.85l-2.54-6.56Z"/><path class="cls-6" d="M78.63,81.38l-.27,0h-.24a1.37,1.37,0,0,1-.44-.06.66.66,0,0,1-.29-.2.81.81,0,0,1-.16-.35,2.44,2.44,0,0,1,0-.53h0a3,3,0,0,1-1,1,2.79,2.79,0,0,1-1.35.29,2.46,2.46,0,0,1-1.6-.5,1.75,1.75,0,0,1-.6-1.43,1.66,1.66,0,0,1,.66-1.43,6.79,6.79,0,0,1,3-.69,2,2,0,0,0,.44-.08.75.75,0,0,0,.29-.16.6.6,0,0,0,.16-.26,1.28,1.28,0,0,0,0-.38,1.24,1.24,0,0,0-.4-1,2,2,0,0,0-1.31-.34,2.61,2.61,0,0,0-.72.09,1.65,1.65,0,0,0-.53.25,1.13,1.13,0,0,0-.33.39,1.22,1.22,0,0,0-.13.49h-.8a2,2,0,0,1,.22-.78,1.78,1.78,0,0,1,.51-.6,2.43,2.43,0,0,1,.81-.38,4,4,0,0,1,1.09-.13,2.64,2.64,0,0,1,1.83.54,2,2,0,0,1,.59,1.52v3.56a.47.47,0,0,0,.11.33.46.46,0,0,0,.36.12.7.7,0,0,0,.25,0ZM77.1,77.83h0q-.12.22-.77.31l-.67.1-.74.12a2.67,2.67,0,0,0-1.17.44,1,1,0,0,0-.39.84,1.16,1.16,0,0,0,.43.94,1.6,1.6,0,0,0,1,.35,2.36,2.36,0,0,0,1.63-.58,1.85,1.85,0,0,0,.65-1.44Z"/><path class="cls-6" d="M80.88,72.34v9.08h-.8V72.34Z"/><path class="cls-6" d="M87.67,81.43V80.25h0a2.48,2.48,0,0,1-.39.58,2.33,2.33,0,0,1-.52.43,2.47,2.47,0,0,1-.63.27,2.73,2.73,0,0,1-.72.09A2.21,2.21,0,0,1,83.63,81a2.64,2.64,0,0,1-.56-1.82V74.86h.8v4.28a2.67,2.67,0,0,0,.1.76,1.44,1.44,0,0,0,.31.57,1.33,1.33,0,0,0,.54.35,2.34,2.34,0,0,0,.79.12,1.69,1.69,0,0,0,.89-.22,1.92,1.92,0,0,0,.62-.59,2.63,2.63,0,0,0,.36-.83,3.9,3.9,0,0,0,.11-.94V74.86h.8v6.56Z"/><path class="cls-6" d="M93.15,74.68a2.71,2.71,0,0,1,1.3.29,2.6,2.6,0,0,1,.9.79,3.46,3.46,0,0,1,.52,1.13A5.2,5.2,0,0,1,96,78.23v.13H91a3.58,3.58,0,0,0,.13.94,2.59,2.59,0,0,0,.39.83,2,2,0,0,0,.66.59,1.92,1.92,0,0,0,.95.22,2.44,2.44,0,0,0,.7-.09,2,2,0,0,0,.56-.26,1.75,1.75,0,0,0,.42-.39,2.42,2.42,0,0,0,.29-.49h.79a3,3,0,0,1-.38.79,2.49,2.49,0,0,1-.59.6,2.68,2.68,0,0,1-.79.39,3.34,3.34,0,0,1-1,.14,2.94,2.94,0,0,1-1.3-.27,2.56,2.56,0,0,1-.91-.73,3.12,3.12,0,0,1-.54-1.1,5.15,5.15,0,0,1-.18-1.37,4.66,4.66,0,0,1,.18-1.28,3.36,3.36,0,0,1,.54-1.11,2.74,2.74,0,0,1,.92-.78A2.79,2.79,0,0,1,93.15,74.68Zm2.09,3a3,3,0,0,0-.16-.85,2.45,2.45,0,0,0-.41-.75,2.07,2.07,0,0,0-.65-.54,1.84,1.84,0,0,0-.88-.21,1.84,1.84,0,0,0-1.5.7,2.7,2.7,0,0,0-.42.75,4.3,4.3,0,0,0-.23.9Z"/><path class="cls-5" d="M40,99a2.24,2.24,0,0,1-1.49,2.25,3.07,3.07,0,0,1-1,.16h-2.2v3H33.94V96.57h3.57a2.56,2.56,0,0,1,1.84.66A2.3,2.3,0,0,1,40,99ZM38.7,99a1.25,1.25,0,0,0-.38-1,1.81,1.81,0,0,0-1.2-.33h-1.8v2.66h1.83a2.51,2.51,0,0,0,.66-.08A1.17,1.17,0,0,0,38.7,99Z"/><path class="cls-5" d="M46.65,104.43l-.4.08-.36,0a1.66,1.66,0,0,1-.39,0,.83.83,0,0,1-.31-.14.77.77,0,0,1-.22-.27,1.17,1.17,0,0,1-.11-.41h0a2.43,2.43,0,0,1-.42.42,2.06,2.06,0,0,1-.48.29,3,3,0,0,1-1.2.22,2.22,2.22,0,0,1-1.48-.47,1.62,1.62,0,0,1-.55-1.33,1.56,1.56,0,0,1,.55-1.3,1.94,1.94,0,0,1,.53-.29,4.22,4.22,0,0,1,.67-.18l.75-.12.8-.09.31-.06a.76.76,0,0,0,.24-.12.55.55,0,0,0,.16-.21.72.72,0,0,0,.06-.3.9.9,0,0,0-.28-.72,1.94,1.94,0,0,0-1.88,0,.91.91,0,0,0-.36.67H40.92a1.84,1.84,0,0,1,.26-.82,1.81,1.81,0,0,1,.57-.57,2.66,2.66,0,0,1,.83-.33,4.68,4.68,0,0,1,1-.11,3.13,3.13,0,0,1,1.87.46A1.51,1.51,0,0,1,46.1,100v3.25a.43.43,0,0,0,.07.28.3.3,0,0,0,.25.09h.11l.12,0Zm-1.87-3.07h0a.87.87,0,0,1-.5.21l-.44.08-.59.1a2,2,0,0,0-.9.34.79.79,0,0,0-.29.66.81.81,0,0,0,.34.7,1.35,1.35,0,0,0,.8.22,1.64,1.64,0,0,0,1.16-.4,1.46,1.46,0,0,0,.45-1.14Z"/><path class="cls-5" d="M47.9,104.43v-6h1.25v1.22h0a2.2,2.2,0,0,1,.8-1,2,2,0,0,1,1.18-.36h.2l.19,0v1.25l-.23,0H51a1.69,1.69,0,0,0-1.36.55,2.17,2.17,0,0,0-.47,1.44v2.92Z"/><path class="cls-5" d="M58,104.43l-.4.08-.36,0a1.66,1.66,0,0,1-.39,0,.83.83,0,0,1-.31-.14.77.77,0,0,1-.22-.27,1.17,1.17,0,0,1-.11-.41h0a2.43,2.43,0,0,1-.42.42,2.06,2.06,0,0,1-.48.29,3,3,0,0,1-1.2.22,2.22,2.22,0,0,1-1.48-.47,1.62,1.62,0,0,1-.55-1.33,1.56,1.56,0,0,1,.55-1.3,1.94,1.94,0,0,1,.53-.29,4.22,4.22,0,0,1,.67-.18l.75-.12.8-.09.31-.06a.76.76,0,0,0,.24-.12.55.55,0,0,0,.16-.21.72.72,0,0,0,.06-.3.9.9,0,0,0-.28-.72,1.94,1.94,0,0,0-1.88,0,.91.91,0,0,0-.36.67H52.31a1.84,1.84,0,0,1,.26-.82,1.81,1.81,0,0,1,.57-.57,2.66,2.66,0,0,1,.83-.33,4.68,4.68,0,0,1,1-.11,3.13,3.13,0,0,1,1.87.46,1.51,1.51,0,0,1,.61,1.29v3.25a.43.43,0,0,0,.07.28.3.3,0,0,0,.25.09h.11l.12,0Zm-1.87-3.07h0a.87.87,0,0,1-.5.21l-.44.08-.59.1a2,2,0,0,0-.9.34.79.79,0,0,0-.29.66.81.81,0,0,0,.34.7,1.35,1.35,0,0,0,.8.22,1.64,1.64,0,0,0,1.16-.4,1.46,1.46,0,0,0,.45-1.14Z"/><path class="cls-5" d="M66.89,104.43v-3.71a3.16,3.16,0,0,0,0-.57,1.17,1.17,0,0,0-.18-.45.88.88,0,0,0-.35-.29,1.34,1.34,0,0,0-.58-.11,1.14,1.14,0,0,0-1,.44,2.09,2.09,0,0,0-.33,1.27v3.43H63.1v-3.86a1.51,1.51,0,0,0-.25-1A1,1,0,0,0,62,99.3a1.23,1.23,0,0,0-1,.44,1.83,1.83,0,0,0-.37,1.2v3.49H59.32v-6h1.25v.89h0a2.12,2.12,0,0,1,1.89-1.05,2.08,2.08,0,0,1,1.1.27,1.57,1.57,0,0,1,.65.79,2.26,2.26,0,0,1,.8-.79,2,2,0,0,1,3.18,1.81v4.1Z"/><path class="cls-5" d="M72.6,98.24a2.76,2.76,0,0,1,1.23.26,2.54,2.54,0,0,1,.88.71,3.07,3.07,0,0,1,.53,1,4.37,4.37,0,0,1,.18,1.25v.24H71a2.54,2.54,0,0,0,.12.74,1.76,1.76,0,0,0,.32.58,1.42,1.42,0,0,0,.49.38,1.55,1.55,0,0,0,.66.13,1.76,1.76,0,0,0,.89-.21,1.56,1.56,0,0,0,.56-.55h1.25a2.78,2.78,0,0,1-.41.74,2.6,2.6,0,0,1-.61.56,2.74,2.74,0,0,1-.78.36,3.36,3.36,0,0,1-.93.12,3,3,0,0,1-1.22-.24,2.58,2.58,0,0,1-.91-.66,2.91,2.91,0,0,1-.57-1,4,4,0,0,1-.2-1.28,3.72,3.72,0,0,1,.2-1.22,3,3,0,0,1,.58-1,2.78,2.78,0,0,1,.93-.69A2.89,2.89,0,0,1,72.6,98.24Zm1.5,2.61a2.54,2.54,0,0,0-.15-.65,1.6,1.6,0,0,0-.3-.5,1.31,1.31,0,0,0-.46-.32,1.59,1.59,0,0,0-.63-.12,1.6,1.6,0,0,0-.63.12,1.38,1.38,0,0,0-.47.33,1.64,1.64,0,0,0-.32.5,2.34,2.34,0,0,0-.16.64Z"/><path class="cls-5" d="M79.8,104.47H79a4.3,4.3,0,0,1-.67-.05,1.45,1.45,0,0,1-.55-.2,1,1,0,0,1-.37-.41,1.53,1.53,0,0,1-.13-.69V99.33H76.13V98.4h1.18V96.6h1.33v1.8H80v.93H78.64v3.41a.76.76,0,0,0,.15.53.74.74,0,0,0,.54.16h.52l.15,0v1Z"/><path class="cls-5" d="M83.83,98.24a2.76,2.76,0,0,1,1.23.26,2.54,2.54,0,0,1,.88.71,3.07,3.07,0,0,1,.53,1,4.37,4.37,0,0,1,.18,1.25v.24H82.2a2.54,2.54,0,0,0,.12.74,1.75,1.75,0,0,0,.32.58,1.42,1.42,0,0,0,.49.38,1.55,1.55,0,0,0,.66.13,1.75,1.75,0,0,0,.89-.21,1.56,1.56,0,0,0,.56-.55h1.25a2.76,2.76,0,0,1-.41.74,2.6,2.6,0,0,1-.61.56,2.73,2.73,0,0,1-.78.36,3.36,3.36,0,0,1-.93.12,3,3,0,0,1-1.22-.24,2.58,2.58,0,0,1-.91-.66,2.9,2.9,0,0,1-.57-1,4,4,0,0,1-.2-1.28,3.72,3.72,0,0,1,.2-1.22,3,3,0,0,1,.58-1,2.78,2.78,0,0,1,.93-.69A2.89,2.89,0,0,1,83.83,98.24Zm1.5,2.61a2.54,2.54,0,0,0-.15-.65,1.6,1.6,0,0,0-.3-.5,1.31,1.31,0,0,0-.46-.32,1.59,1.59,0,0,0-.63-.12,1.6,1.6,0,0,0-.63.12,1.38,1.38,0,0,0-.47.33,1.64,1.64,0,0,0-.32.5,2.32,2.32,0,0,0-.16.64Z"/><path class="cls-5" d="M88,104.43v-6h1.25v1.22h0a2.2,2.2,0,0,1,.8-1,2,2,0,0,1,1.18-.36h.2l.19,0v1.25l-.23,0h-.26a1.69,1.69,0,0,0-1.36.55,2.17,2.17,0,0,0-.47,1.44v2.92Z"/><path class="cls-5" d="M98.44,96.42a2.7,2.7,0,0,1,1.86.64,2,2,0,0,1,.55.76,2.53,2.53,0,0,1,.18,1,2.58,2.58,0,0,1-.42,1.42A5.35,5.35,0,0,1,99,101.62q-.46.28-.78.52a6.37,6.37,0,0,0-.53.43,2.56,2.56,0,0,0-.57.75h4v1.11H95.5a3.07,3.07,0,0,1,.36-1.46,3.45,3.45,0,0,1,.46-.63,5.19,5.19,0,0,1,.68-.61l.87-.65,1-.76a2.46,2.46,0,0,0,.65-.69,1.48,1.48,0,0,0,.21-.76,1.53,1.53,0,0,0-.09-.54,1.22,1.22,0,0,0-.28-.44,1.32,1.32,0,0,0-.43-.28,1.46,1.46,0,0,0-.56-.1,1.49,1.49,0,0,0-.64.13,1.33,1.33,0,0,0-.45.35,1.44,1.44,0,0,0-.27.49,1.81,1.81,0,0,0-.09.56v.13H95.71V99A2.87,2.87,0,0,1,95.9,98a2.32,2.32,0,0,1,.54-.83,2.49,2.49,0,0,1,.86-.54A3.17,3.17,0,0,1,98.44,96.42Z"/><path class="cls-6" d="M40.28,124.15a2.15,2.15,0,0,1-.28,1.14,2.26,2.26,0,0,1-.76.76,3.46,3.46,0,0,1-1.1.43,6.15,6.15,0,0,1-1.29.13,4.8,4.8,0,0,1-1.28-.16,3.18,3.18,0,0,1-1-.49,2.35,2.35,0,0,1-.69-.79,2.23,2.23,0,0,1-.25-1.08v-.19h.82V124a1.87,1.87,0,0,0,.16.76,1.65,1.65,0,0,0,.48.62,2.43,2.43,0,0,0,.81.42,3.79,3.79,0,0,0,1.15.15,4,4,0,0,0,.9-.1,2.56,2.56,0,0,0,.79-.32,1.81,1.81,0,0,0,.56-.54,1.38,1.38,0,0,0,.21-.78q0-1.11-1.67-1.52l-2-.49a4,4,0,0,1-.88-.31,2.14,2.14,0,0,1-.6-.44,1.59,1.59,0,0,1-.35-.58,2.25,2.25,0,0,1-.11-.73,2.1,2.1,0,0,1,.25-1,2.34,2.34,0,0,1,.68-.76,3.07,3.07,0,0,1,1-.46,4.16,4.16,0,0,1,1.14-.16,4.34,4.34,0,0,1,1.2.16,2.9,2.9,0,0,1,1,.46,2.27,2.27,0,0,1,.64.75,2.24,2.24,0,0,1,.25,1h-.81a1.6,1.6,0,0,0-.2-.65,1.78,1.78,0,0,0-.46-.53,2.23,2.23,0,0,0-.69-.36,2.8,2.8,0,0,0-.88-.13,3.49,3.49,0,0,0-.91.11,2.16,2.16,0,0,0-.71.33,1.46,1.46,0,0,0-.46.53,1.59,1.59,0,0,0-.16.73,1.21,1.21,0,0,0,.11.53,1.13,1.13,0,0,0,.29.38,1.54,1.54,0,0,0,.43.25,4,4,0,0,0,.53.17l2,.48a3.73,3.73,0,0,1,1.76.85A1.93,1.93,0,0,1,40.28,124.15Z"/><path class="cls-6" d="M44.56,126.49H43.9a3,3,0,0,1-.68-.06,1,1,0,0,1-.45-.22.9.9,0,0,1-.25-.43,2.65,2.65,0,0,1-.07-.68v-4.56H41.13v-.67h1.32v-2h.8v2h1.5v.67h-1.5V125a1.77,1.77,0,0,0,0,.34.63.63,0,0,0,.11.25.5.5,0,0,0,.21.16.87.87,0,0,0,.35.06h.6l.21,0v.68Z"/><path class="cls-6" d="M52.19,126.38l-.27,0h-.24a1.37,1.37,0,0,1-.44-.06.66.66,0,0,1-.29-.2.81.81,0,0,1-.16-.35,2.44,2.44,0,0,1,0-.53h0a3,3,0,0,1-1,1,2.79,2.79,0,0,1-1.35.29,2.46,2.46,0,0,1-1.6-.5,1.75,1.75,0,0,1-.6-1.43,1.66,1.66,0,0,1,.66-1.43,6.79,6.79,0,0,1,3-.69,2,2,0,0,0,.44-.08.75.75,0,0,0,.29-.16.6.6,0,0,0,.16-.26,1.28,1.28,0,0,0,0-.38,1.24,1.24,0,0,0-.4-1,2,2,0,0,0-1.31-.34,2.61,2.61,0,0,0-.72.09,1.65,1.65,0,0,0-.53.25,1.13,1.13,0,0,0-.33.39,1.22,1.22,0,0,0-.13.49h-.8a2,2,0,0,1,.22-.78,1.78,1.78,0,0,1,.51-.6,2.43,2.43,0,0,1,.81-.38,4,4,0,0,1,1.09-.13,2.64,2.64,0,0,1,1.83.54,2,2,0,0,1,.59,1.52v3.56a.47.47,0,0,0,.11.33.46.46,0,0,0,.36.12.7.7,0,0,0,.25,0Zm-1.52-3.54h0q-.12.22-.77.31l-.67.1-.74.12a2.67,2.67,0,0,0-1.17.44,1,1,0,0,0-.39.84,1.16,1.16,0,0,0,.43.94,1.6,1.6,0,0,0,1,.35,2.36,2.36,0,0,0,1.63-.58,1.85,1.85,0,0,0,.65-1.44Z"/><path class="cls-6" d="M53.63,126.43v-6.56h.74v1.54h0a2.56,2.56,0,0,1,.9-1.2,2.32,2.32,0,0,1,1.38-.43H57v.8h-.18a2.22,2.22,0,0,0-1.71.69,2.36,2.36,0,0,0-.64,1.69v3.48Z"/><path class="cls-6" d="M61.19,126.49h-.66a3,3,0,0,1-.68-.06,1,1,0,0,1-.45-.22.9.9,0,0,1-.25-.43,2.65,2.65,0,0,1-.07-.68v-4.56H57.77v-.67h1.32v-2h.8v2h1.5v.67h-1.5V125a1.77,1.77,0,0,0,0,.34.63.63,0,0,0,.11.25.5.5,0,0,0,.21.16.87.87,0,0,0,.35.06h.6l.21,0v.68Z"/><path class="cls-6" d="M66.68,119.86l2.06,5.76h0l2-5.76h.83l-2.46,6.56h-.85l-2.54-6.56Z"/><path class="cls-6" d="M78.63,126.38l-.27,0h-.24a1.37,1.37,0,0,1-.44-.06.66.66,0,0,1-.29-.2.81.81,0,0,1-.16-.35,2.44,2.44,0,0,1,0-.53h0a3,3,0,0,1-1,1,2.79,2.79,0,0,1-1.35.29,2.46,2.46,0,0,1-1.6-.5,1.75,1.75,0,0,1-.6-1.43,1.66,1.66,0,0,1,.66-1.43,6.79,6.79,0,0,1,3-.69,2,2,0,0,0,.44-.08.75.75,0,0,0,.29-.16.6.6,0,0,0,.16-.26,1.28,1.28,0,0,0,0-.38,1.24,1.24,0,0,0-.4-1,2,2,0,0,0-1.31-.34,2.61,2.61,0,0,0-.72.09,1.65,1.65,0,0,0-.53.25,1.13,1.13,0,0,0-.33.39,1.22,1.22,0,0,0-.13.49h-.8a2,2,0,0,1,.22-.78,1.78,1.78,0,0,1,.51-.6,2.43,2.43,0,0,1,.81-.38,4,4,0,0,1,1.09-.13,2.64,2.64,0,0,1,1.83.54,2,2,0,0,1,.59,1.52v3.56a.47.47,0,0,0,.11.33.46.46,0,0,0,.36.12.7.7,0,0,0,.25,0Zm-1.52-3.54h0q-.12.22-.77.31l-.67.1-.74.12a2.67,2.67,0,0,0-1.17.44,1,1,0,0,0-.39.84,1.16,1.16,0,0,0,.43.94,1.6,1.6,0,0,0,1,.35,2.36,2.36,0,0,0,1.63-.58,1.85,1.85,0,0,0,.65-1.44Z"/><path class="cls-6" d="M80.88,117.34v9.08h-.8v-9.08Z"/><path class="cls-6" d="M87.67,126.43v-1.18h0a2.48,2.48,0,0,1-.39.58,2.33,2.33,0,0,1-.52.43,2.47,2.47,0,0,1-.63.27,2.73,2.73,0,0,1-.72.09,2.21,2.21,0,0,1-1.74-.63,2.64,2.64,0,0,1-.56-1.82v-4.31h.8v4.28a2.67,2.67,0,0,0,.1.76,1.44,1.44,0,0,0,.31.57,1.33,1.33,0,0,0,.54.35,2.34,2.34,0,0,0,.79.12,1.69,1.69,0,0,0,.89-.22,1.92,1.92,0,0,0,.62-.59,2.63,2.63,0,0,0,.36-.83,3.9,3.9,0,0,0,.11-.94v-3.49h.8v6.56Z"/><path class="cls-6" d="M93.15,119.68a2.71,2.71,0,0,1,1.3.29,2.6,2.6,0,0,1,.9.79,3.46,3.46,0,0,1,.52,1.13,5.2,5.2,0,0,1,.17,1.34v.13H91a3.58,3.58,0,0,0,.13.94,2.59,2.59,0,0,0,.39.83,2,2,0,0,0,.66.59,1.92,1.92,0,0,0,.95.22,2.44,2.44,0,0,0,.7-.09,2,2,0,0,0,.56-.26,1.75,1.75,0,0,0,.42-.39,2.42,2.42,0,0,0,.29-.49h.79a3,3,0,0,1-.38.79,2.49,2.49,0,0,1-.59.6,2.68,2.68,0,0,1-.79.39,3.34,3.34,0,0,1-1,.14,2.94,2.94,0,0,1-1.3-.27,2.56,2.56,0,0,1-.91-.73,3.12,3.12,0,0,1-.54-1.1,5.15,5.15,0,0,1-.18-1.37,4.66,4.66,0,0,1,.18-1.28,3.36,3.36,0,0,1,.54-1.11,2.74,2.74,0,0,1,.92-.78A2.79,2.79,0,0,1,93.15,119.68Zm2.09,3a3,3,0,0,0-.16-.85,2.45,2.45,0,0,0-.41-.75,2.07,2.07,0,0,0-.65-.54,1.84,1.84,0,0,0-.88-.21,1.84,1.84,0,0,0-1.5.7,2.7,2.7,0,0,0-.42.75,4.3,4.3,0,0,0-.23.9Z"/><path class="cls-6" d="M41.64,147.14a4.7,4.7,0,0,1-1.1,3.2,3.68,3.68,0,0,1-2.94,1.27,3.72,3.72,0,0,1-2.95-1.25,5.26,5.26,0,0,1,0-6.43,3.72,3.72,0,0,1,2.95-1.25,4.81,4.81,0,0,1,.77.06,4,4,0,0,1,.74.19,3.71,3.71,0,0,1,.69.34,3.43,3.43,0,0,1,.61.49,3.49,3.49,0,0,1,.55.71,4.58,4.58,0,0,1,.38.83,5.41,5.41,0,0,1,.22.91A6.57,6.57,0,0,1,41.64,147.14Zm-.81,0a4.21,4.21,0,0,0-.85-2.69,2.86,2.86,0,0,0-2.38-1.08,2.89,2.89,0,0,0-2.36,1.05,4.15,4.15,0,0,0-.86,2.71,4.22,4.22,0,0,0,.85,2.7,3.16,3.16,0,0,0,4.74,0A4.21,4.21,0,0,0,40.83,147.14Z"/><path class="cls-6" d="M49.37,148.14a4.78,4.78,0,0,1-.17,1.28,3.38,3.38,0,0,1-.53,1.11,2.69,2.69,0,0,1-.92.79,3,3,0,0,1-2,.21,2.46,2.46,0,0,1-.65-.27,2.29,2.29,0,0,1-.54-.45,2.21,2.21,0,0,1-.38-.63h0v3.67h-.8v-9h.74v1.25h0a2.24,2.24,0,0,1,.39-.61,2.29,2.29,0,0,1,.55-.45,2.67,2.67,0,0,1,.67-.28,2.82,2.82,0,0,1,.74-.1,2.85,2.85,0,0,1,1.29.28,2.64,2.64,0,0,1,.92.75,3.33,3.33,0,0,1,.56,1.11A4.66,4.66,0,0,1,49.37,148.14Zm-.8,0a4.48,4.48,0,0,0-.11-1,2.84,2.84,0,0,0-.37-.9,2.07,2.07,0,0,0-.67-.66,1.9,1.9,0,0,0-1-.26,2.09,2.09,0,0,0-1.7.7,3.21,3.21,0,0,0-.58,2.09,4.21,4.21,0,0,0,.13,1,2.68,2.68,0,0,0,.4.9,2.09,2.09,0,0,0,.71.63,2.16,2.16,0,0,0,1.06.24,1.87,1.87,0,0,0,1-.24,2,2,0,0,0,.67-.63,2.87,2.87,0,0,0,.39-.9A4.14,4.14,0,0,0,48.56,148.14Z"/><path class="cls-6" d="M53.81,144.68a2.71,2.71,0,0,1,1.3.29,2.6,2.6,0,0,1,.9.79,3.46,3.46,0,0,1,.52,1.13,5.2,5.2,0,0,1,.17,1.34v.13H51.64a3.58,3.58,0,0,0,.13.94,2.59,2.59,0,0,0,.39.83,2,2,0,0,0,.66.59,1.92,1.92,0,0,0,.95.22,2.44,2.44,0,0,0,.7-.09,2,2,0,0,0,.56-.26,1.75,1.75,0,0,0,.42-.39,2.42,2.42,0,0,0,.29-.49h.79a3,3,0,0,1-.38.79,2.49,2.49,0,0,1-.59.6,2.68,2.68,0,0,1-.79.39,3.34,3.34,0,0,1-1,.14,2.94,2.94,0,0,1-1.3-.27,2.56,2.56,0,0,1-.91-.73,3.12,3.12,0,0,1-.54-1.1,5.15,5.15,0,0,1-.18-1.37,4.66,4.66,0,0,1,.18-1.28,3.36,3.36,0,0,1,.54-1.11,2.74,2.74,0,0,1,.92-.78A2.79,2.79,0,0,1,53.81,144.68Zm2.09,3a3,3,0,0,0-.16-.85,2.45,2.45,0,0,0-.41-.75,2.07,2.07,0,0,0-.65-.54,1.84,1.84,0,0,0-.88-.21,1.84,1.84,0,0,0-1.5.7,2.7,2.7,0,0,0-.42.75,4.3,4.3,0,0,0-.23.9Z"/><path class="cls-6" d="M58.37,151.43v-6.56h.74v1.54h0a2.56,2.56,0,0,1,.9-1.2,2.32,2.32,0,0,1,1.38-.43h.29v.8h-.18a2.22,2.22,0,0,0-1.71.69,2.36,2.36,0,0,0-.64,1.69v3.48Z"/><path class="cls-6" d="M68.61,151.38l-.27,0H68.1a1.37,1.37,0,0,1-.44-.06.66.66,0,0,1-.29-.2.81.81,0,0,1-.16-.35,2.44,2.44,0,0,1,0-.53h0a3,3,0,0,1-1,1,2.79,2.79,0,0,1-1.35.29,2.46,2.46,0,0,1-1.6-.5,1.75,1.75,0,0,1-.6-1.43,1.66,1.66,0,0,1,.66-1.43,6.79,6.79,0,0,1,3-.69,2,2,0,0,0,.44-.08.75.75,0,0,0,.29-.16.6.6,0,0,0,.16-.26,1.28,1.28,0,0,0,0-.38,1.24,1.24,0,0,0-.4-1,2,2,0,0,0-1.31-.34,2.61,2.61,0,0,0-.72.09,1.65,1.65,0,0,0-.53.25,1.13,1.13,0,0,0-.33.39,1.22,1.22,0,0,0-.13.49h-.8a2,2,0,0,1,.22-.78,1.78,1.78,0,0,1,.51-.6,2.43,2.43,0,0,1,.81-.38,4,4,0,0,1,1.09-.13,2.64,2.64,0,0,1,1.83.54,2,2,0,0,1,.59,1.52v3.56a.47.47,0,0,0,.11.33.46.46,0,0,0,.36.12.7.7,0,0,0,.25,0Zm-1.52-3.54h0q-.12.22-.77.31l-.67.1-.74.12a2.67,2.67,0,0,0-1.17.44,1,1,0,0,0-.39.84,1.16,1.16,0,0,0,.43.94,1.6,1.6,0,0,0,1,.35,2.36,2.36,0,0,0,1.63-.58,1.85,1.85,0,0,0,.65-1.44Z"/><path class="cls-6" d="M72.69,151.49H72a3,3,0,0,1-.68-.06,1,1,0,0,1-.45-.22.9.9,0,0,1-.25-.43,2.65,2.65,0,0,1-.07-.68v-4.56H69.26v-.67h1.32v-2h.8v2h1.5v.67h-1.5V150a1.77,1.77,0,0,0,0,.34.63.63,0,0,0,.11.25.5.5,0,0,0,.21.16.87.87,0,0,0,.35.06h.6l.21,0v.68Z"/><path class="cls-6" d="M75.47,142v1.29h-.8V142Zm0,2.87v6.56h-.8v-6.56Z"/><path class="cls-6" d="M83.5,148.14a4.29,4.29,0,0,1-.2,1.31,3.31,3.31,0,0,1-.61,1.13,2.9,2.9,0,0,1-2.29,1,2.84,2.84,0,0,1-2.24-1,4.07,4.07,0,0,1,0-5,3.08,3.08,0,0,1,4.51,0A3.65,3.65,0,0,1,83.5,148.14Zm-.8,0a3.8,3.8,0,0,0-.13-1,2.81,2.81,0,0,0-.42-.9,2.25,2.25,0,0,0-.72-.65,2,2,0,0,0-1-.25,2,2,0,0,0-1,.24,2.24,2.24,0,0,0-.72.64,2.85,2.85,0,0,0-.44.9,3.66,3.66,0,0,0-.15,1,3.58,3.58,0,0,0,.14,1,3,3,0,0,0,.43.9,2.24,2.24,0,0,0,.71.65,2.15,2.15,0,0,0,2,0,2.33,2.33,0,0,0,.72-.63,2.81,2.81,0,0,0,.45-.89A3.54,3.54,0,0,0,82.69,148.14Z"/><path class="cls-6" d="M88.21,144.68a3.34,3.34,0,0,1,1.08.16,1.83,1.83,0,0,1,.74.46,1.86,1.86,0,0,1,.43.77,3.79,3.79,0,0,1,.14,1.08v4.28h-.8v-4.15a2.2,2.2,0,0,0-.41-1.44,1.54,1.54,0,0,0-1.25-.49,2.07,2.07,0,0,0-.86.17,1.87,1.87,0,0,0-.65.48,2.16,2.16,0,0,0-.41.71,2.63,2.63,0,0,0-.14.88v3.84h-.8v-6.56h.8V146h0a2,2,0,0,1,.35-.56,2.18,2.18,0,0,1,.49-.42,2.33,2.33,0,0,1,.6-.26A2.48,2.48,0,0,1,88.21,144.68Z"/><path class="cls-6" d="M102,142.34v9.08h-.74v-1.25h0a2.05,2.05,0,0,1-.39.6,2.57,2.57,0,0,1-.56.45,2.8,2.8,0,0,1-.67.29,2.63,2.63,0,0,1-.72.1,2.8,2.8,0,0,1-1.28-.28,2.68,2.68,0,0,1-.92-.75,3.32,3.32,0,0,1-.56-1.11,4.68,4.68,0,0,1-.19-1.34,4.83,4.83,0,0,1,.17-1.29,3.3,3.3,0,0,1,.53-1.11,2.69,2.69,0,0,1,.92-.78,3,3,0,0,1,2-.2,2.56,2.56,0,0,1,.65.27,2.25,2.25,0,0,1,.54.45,2.07,2.07,0,0,1,.38.63h0v-3.77Zm-5.26,5.8a4.17,4.17,0,0,0,.05.65,3.7,3.7,0,0,0,.16.64,2.83,2.83,0,0,0,.28.58,2.14,2.14,0,0,0,.41.48,1.8,1.8,0,0,0,.55.32,2,2,0,0,0,.7.12,2.14,2.14,0,0,0,1-.23,2.12,2.12,0,0,0,.72-.61,2.66,2.66,0,0,0,.43-.89,4,4,0,0,0,.14-1.06,4,4,0,0,0-.13-1,2.72,2.72,0,0,0-.41-.9,2.05,2.05,0,0,0-1.76-.88,1.94,1.94,0,0,0-.68.11,1.8,1.8,0,0,0-.54.31,2.15,2.15,0,0,0-.41.47,2.79,2.79,0,0,0-.29.58,3.53,3.53,0,0,0-.17.65A4.24,4.24,0,0,0,96.75,148.14Z"/><path class="cls-6" d="M106.78,144.68a2.71,2.71,0,0,1,1.3.29,2.6,2.6,0,0,1,.9.79,3.46,3.46,0,0,1,.52,1.13,5.2,5.2,0,0,1,.17,1.34v.13h-5.05a3.58,3.58,0,0,0,.13.94,2.59,2.59,0,0,0,.39.83,2,2,0,0,0,.66.59,1.92,1.92,0,0,0,.95.22,2.44,2.44,0,0,0,.7-.09,2,2,0,0,0,.56-.26,1.75,1.75,0,0,0,.42-.39,2.42,2.42,0,0,0,.29-.49h.79a3,3,0,0,1-.38.79,2.49,2.49,0,0,1-.59.6,2.68,2.68,0,0,1-.79.39,3.34,3.34,0,0,1-1,.14,2.94,2.94,0,0,1-1.3-.27,2.56,2.56,0,0,1-.91-.73,3.12,3.12,0,0,1-.54-1.1,5.15,5.15,0,0,1-.18-1.37,4.66,4.66,0,0,1,.18-1.28,3.36,3.36,0,0,1,.54-1.11,2.74,2.74,0,0,1,.92-.78A2.79,2.79,0,0,1,106.78,144.68Zm2.09,3a3,3,0,0,0-.16-.85,2.45,2.45,0,0,0-.41-.75,2.07,2.07,0,0,0-.65-.54,1.84,1.84,0,0,0-.88-.21,1.84,1.84,0,0,0-1.5.7,2.7,2.7,0,0,0-.42.75,4.3,4.3,0,0,0-.23.9Z"/><path class="cls-6" d="M112.17,142.34v9.08h-.8v-9.08Z"/><path class="cls-6" d="M120,151.38l-.27,0h-.24a1.37,1.37,0,0,1-.44-.06.66.66,0,0,1-.29-.2.81.81,0,0,1-.16-.35,2.44,2.44,0,0,1,0-.53h0a3,3,0,0,1-1,1,2.79,2.79,0,0,1-1.35.29,2.46,2.46,0,0,1-1.6-.5,1.75,1.75,0,0,1-.6-1.43,1.66,1.66,0,0,1,.66-1.43,6.79,6.79,0,0,1,3-.69,2,2,0,0,0,.44-.08.75.75,0,0,0,.29-.16.6.6,0,0,0,.16-.26,1.28,1.28,0,0,0,0-.38,1.24,1.24,0,0,0-.4-1,2,2,0,0,0-1.31-.34,2.61,2.61,0,0,0-.72.09,1.65,1.65,0,0,0-.53.25,1.13,1.13,0,0,0-.33.39,1.22,1.22,0,0,0-.13.49h-.8a2,2,0,0,1,.22-.78,1.78,1.78,0,0,1,.51-.6,2.43,2.43,0,0,1,.81-.38,4,4,0,0,1,1.09-.13,2.64,2.64,0,0,1,1.83.54,2,2,0,0,1,.59,1.52v3.56a.47.47,0,0,0,.11.33.46.46,0,0,0,.36.12.7.7,0,0,0,.25,0Zm-1.52-3.54h0q-.12.22-.77.31l-.67.1-.74.12a2.67,2.67,0,0,0-1.17.44,1,1,0,0,0-.39.84,1.16,1.16,0,0,0,.43.94,1.6,1.6,0,0,0,1,.35,2.36,2.36,0,0,0,1.63-.58,1.85,1.85,0,0,0,.65-1.44Z"/><path class="cls-6" d="M121.46,144.86l2.16,5.59h0l2-5.59h.8l-2.83,7.5q-.13.33-.26.61a1.7,1.7,0,0,1-.32.47,1.3,1.3,0,0,1-.46.3,1.88,1.88,0,0,1-.69.11,3.17,3.17,0,0,1-.63-.06v-.68a1.29,1.29,0,0,0,.28.06h.27a1.08,1.08,0,0,0,.48-.09.9.9,0,0,0,.34-.3,2.86,2.86,0,0,0,.28-.55l.33-.83-2.62-6.54Z"/><path class="cls-6" d="M133.92,151.49h-.66a3,3,0,0,1-.68-.06,1,1,0,0,1-.45-.22.9.9,0,0,1-.25-.43,2.65,2.65,0,0,1-.07-.68v-4.56h-1.32v-.67h1.32v-2h.8v2h1.5v.67h-1.5V150a1.77,1.77,0,0,0,0,.34.63.63,0,0,0,.11.25.5.5,0,0,0,.21.16.87.87,0,0,0,.35.06h.6l.21,0v.68Z"/><path class="cls-6" d="M136.71,142v1.29h-.8V142Zm0,2.87v6.56h-.8v-6.56Z"/><path class="cls-6" d="M147.18,151.43V147a1.73,1.73,0,0,0-.37-1.22,1.85,1.85,0,0,0-2.5.21,2.8,2.8,0,0,0-.45,1.71v3.77H143v-4.49a1.81,1.81,0,0,0-.34-1.17,1.25,1.25,0,0,0-1-.42,1.72,1.72,0,0,0-1.46.65,2.72,2.72,0,0,0-.5,1.71v3.72h-.8v-6.56h.74V146h0a2.26,2.26,0,0,1,2.15-1.29,2.44,2.44,0,0,1,.64.08,1.87,1.87,0,0,1,.54.24,1.66,1.66,0,0,1,.42.4,1.85,1.85,0,0,1,.28.55,2.16,2.16,0,0,1,.85-1,2.4,2.4,0,0,1,1.24-.32,2.12,2.12,0,0,1,1.63.58,2.36,2.36,0,0,1,.54,1.66v4.51Z"/><path class="cls-6" d="M152.75,144.68a2.71,2.71,0,0,1,1.3.29,2.6,2.6,0,0,1,.9.79,3.46,3.46,0,0,1,.52,1.13,5.2,5.2,0,0,1,.17,1.34v.13h-5.05a3.58,3.58,0,0,0,.13.94,2.59,2.59,0,0,0,.39.83,2,2,0,0,0,.66.59,1.92,1.92,0,0,0,.95.22,2.44,2.44,0,0,0,.7-.09,2,2,0,0,0,.56-.26,1.75,1.75,0,0,0,.42-.39,2.42,2.42,0,0,0,.29-.49h.79a3,3,0,0,1-.38.79,2.49,2.49,0,0,1-.59.6,2.68,2.68,0,0,1-.79.39,3.34,3.34,0,0,1-1,.14,2.94,2.94,0,0,1-1.3-.27,2.56,2.56,0,0,1-.91-.73,3.12,3.12,0,0,1-.54-1.1,5.15,5.15,0,0,1-.18-1.37,4.66,4.66,0,0,1,.18-1.28,3.36,3.36,0,0,1,.54-1.11,2.74,2.74,0,0,1,.92-.78A2.79,2.79,0,0,1,152.75,144.68Zm2.09,3a3,3,0,0,0-.16-.85,2.45,2.45,0,0,0-.41-.75,2.07,2.07,0,0,0-.65-.54,1.84,1.84,0,0,0-.88-.21,1.84,1.84,0,0,0-1.5.7,2.7,2.7,0,0,0-.42.75,4.3,4.3,0,0,0-.23.9Z"/><path class="cls-5" d="M40,169a2.24,2.24,0,0,1-1.49,2.25,3.07,3.07,0,0,1-1,.16h-2.2v3H33.94v-7.85h3.57a2.56,2.56,0,0,1,1.84.66A2.3,2.3,0,0,1,40,169Zm-1.34,0a1.25,1.25,0,0,0-.38-1,1.81,1.81,0,0,0-1.2-.33h-1.8v2.66h1.83a2.51,2.51,0,0,0,.66-.08A1.17,1.17,0,0,0,38.7,169Z"/><path class="cls-5" d="M46.65,174.43l-.4.08-.36,0a1.66,1.66,0,0,1-.39,0,.83.83,0,0,1-.31-.14.77.77,0,0,1-.22-.27,1.17,1.17,0,0,1-.11-.41h0a2.43,2.43,0,0,1-.42.42,2.06,2.06,0,0,1-.48.29,3,3,0,0,1-1.2.22,2.22,2.22,0,0,1-1.48-.47,1.62,1.62,0,0,1-.55-1.33,1.56,1.56,0,0,1,.55-1.3,1.94,1.94,0,0,1,.53-.29,4.22,4.22,0,0,1,.67-.18l.75-.12.8-.09.31-.06a.76.76,0,0,0,.24-.12.55.55,0,0,0,.16-.21.72.72,0,0,0,.06-.3.9.9,0,0,0-.28-.72,1.94,1.94,0,0,0-1.88,0,.91.91,0,0,0-.36.67H40.92a1.84,1.84,0,0,1,.26-.82,1.81,1.81,0,0,1,.57-.57,2.66,2.66,0,0,1,.83-.33,4.68,4.68,0,0,1,1-.11,3.13,3.13,0,0,1,1.87.46A1.51,1.51,0,0,1,46.1,170v3.25a.43.43,0,0,0,.07.28.3.3,0,0,0,.25.09h.11l.12,0Zm-1.87-3.07h0a.87.87,0,0,1-.5.21l-.44.08-.59.1a2,2,0,0,0-.9.34.79.79,0,0,0-.29.66.81.81,0,0,0,.34.7,1.35,1.35,0,0,0,.8.22,1.64,1.64,0,0,0,1.16-.4,1.46,1.46,0,0,0,.45-1.14Z"/><path class="cls-5" d="M47.9,174.43v-6h1.25v1.22h0a2.2,2.2,0,0,1,.8-1,2,2,0,0,1,1.18-.36h.2l.19,0v1.25l-.23,0H51a1.69,1.69,0,0,0-1.36.55,2.17,2.17,0,0,0-.47,1.44v2.92Z"/><path class="cls-5" d="M58,174.43l-.4.08-.36,0a1.66,1.66,0,0,1-.39,0,.83.83,0,0,1-.31-.14.77.77,0,0,1-.22-.27,1.17,1.17,0,0,1-.11-.41h0a2.43,2.43,0,0,1-.42.42,2.06,2.06,0,0,1-.48.29,3,3,0,0,1-1.2.22,2.22,2.22,0,0,1-1.48-.47,1.62,1.62,0,0,1-.55-1.33,1.56,1.56,0,0,1,.55-1.3,1.94,1.94,0,0,1,.53-.29,4.22,4.22,0,0,1,.67-.18l.75-.12.8-.09.31-.06a.76.76,0,0,0,.24-.12.55.55,0,0,0,.16-.21.72.72,0,0,0,.06-.3.9.9,0,0,0-.28-.72,1.94,1.94,0,0,0-1.88,0,.91.91,0,0,0-.36.67H52.31a1.84,1.84,0,0,1,.26-.82,1.81,1.81,0,0,1,.57-.57,2.66,2.66,0,0,1,.83-.33,4.68,4.68,0,0,1,1-.11,3.13,3.13,0,0,1,1.87.46,1.51,1.51,0,0,1,.61,1.29v3.25a.43.43,0,0,0,.07.28.3.3,0,0,0,.25.09h.11l.12,0Zm-1.87-3.07h0a.87.87,0,0,1-.5.21l-.44.08-.59.1a2,2,0,0,0-.9.34.79.79,0,0,0-.29.66.81.81,0,0,0,.34.7,1.35,1.35,0,0,0,.8.22,1.64,1.64,0,0,0,1.16-.4,1.46,1.46,0,0,0,.45-1.14Z"/><path class="cls-5" d="M66.89,174.43v-3.71a3.16,3.16,0,0,0,0-.57,1.17,1.17,0,0,0-.18-.45.88.88,0,0,0-.35-.29,1.34,1.34,0,0,0-.58-.11,1.14,1.14,0,0,0-1,.44,2.09,2.09,0,0,0-.33,1.27v3.43H63.1v-3.86a1.51,1.51,0,0,0-.25-1,1,1,0,0,0-.84-.32,1.23,1.23,0,0,0-1,.44,1.83,1.83,0,0,0-.37,1.2v3.49H59.32v-6h1.25v.89h0a2.12,2.12,0,0,1,1.89-1.05,2.08,2.08,0,0,1,1.1.27,1.57,1.57,0,0,1,.65.79,2.26,2.26,0,0,1,.8-.79,2,2,0,0,1,3.18,1.81v4.1Z"/><path class="cls-5" d="M72.6,168.24a2.76,2.76,0,0,1,1.23.26,2.54,2.54,0,0,1,.88.71,3.07,3.07,0,0,1,.53,1,4.37,4.37,0,0,1,.18,1.25v.24H71a2.54,2.54,0,0,0,.12.74,1.76,1.76,0,0,0,.32.58,1.42,1.42,0,0,0,.49.38,1.55,1.55,0,0,0,.66.13,1.76,1.76,0,0,0,.89-.21,1.56,1.56,0,0,0,.56-.55h1.25a2.78,2.78,0,0,1-.41.74,2.6,2.6,0,0,1-.61.56,2.74,2.74,0,0,1-.78.36,3.36,3.36,0,0,1-.93.12,3,3,0,0,1-1.22-.24,2.58,2.58,0,0,1-.91-.66,2.91,2.91,0,0,1-.57-1,4,4,0,0,1-.2-1.28,3.72,3.72,0,0,1,.2-1.22,3,3,0,0,1,.58-1,2.78,2.78,0,0,1,.93-.69A2.89,2.89,0,0,1,72.6,168.24Zm1.5,2.61a2.54,2.54,0,0,0-.15-.65,1.6,1.6,0,0,0-.3-.5,1.31,1.31,0,0,0-.46-.32,1.59,1.59,0,0,0-.63-.12,1.6,1.6,0,0,0-.63.12,1.38,1.38,0,0,0-.47.33,1.64,1.64,0,0,0-.32.5,2.34,2.34,0,0,0-.16.64Z"/><path class="cls-5" d="M79.8,174.47H79a4.3,4.3,0,0,1-.67-.05,1.45,1.45,0,0,1-.55-.2,1,1,0,0,1-.37-.41,1.53,1.53,0,0,1-.13-.69v-3.81H76.13v-.93h1.18v-1.8h1.33v1.8H80v.93H78.64v3.41a.76.76,0,0,0,.15.53.74.74,0,0,0,.54.16h.52l.15,0v1Z"/><path class="cls-5" d="M83.83,168.24a2.76,2.76,0,0,1,1.23.26,2.54,2.54,0,0,1,.88.71,3.07,3.07,0,0,1,.53,1,4.37,4.37,0,0,1,.18,1.25v.24H82.2a2.54,2.54,0,0,0,.12.74,1.75,1.75,0,0,0,.32.58,1.42,1.42,0,0,0,.49.38,1.55,1.55,0,0,0,.66.13,1.75,1.75,0,0,0,.89-.21,1.56,1.56,0,0,0,.56-.55h1.25a2.76,2.76,0,0,1-.41.74,2.6,2.6,0,0,1-.61.56,2.73,2.73,0,0,1-.78.36,3.36,3.36,0,0,1-.93.12,3,3,0,0,1-1.22-.24,2.58,2.58,0,0,1-.91-.66,2.9,2.9,0,0,1-.57-1,4,4,0,0,1-.2-1.28,3.72,3.72,0,0,1,.2-1.22,3,3,0,0,1,.58-1,2.78,2.78,0,0,1,.93-.69A2.89,2.89,0,0,1,83.83,168.24Zm1.5,2.61a2.54,2.54,0,0,0-.15-.65,1.6,1.6,0,0,0-.3-.5,1.31,1.31,0,0,0-.46-.32,1.59,1.59,0,0,0-.63-.12,1.6,1.6,0,0,0-.63.12,1.38,1.38,0,0,0-.47.33,1.64,1.64,0,0,0-.32.5,2.32,2.32,0,0,0-.16.64Z"/><path class="cls-5" d="M88,174.43v-6h1.25v1.22h0a2.2,2.2,0,0,1,.8-1,2,2,0,0,1,1.18-.36h.2l.19,0v1.25l-.23,0h-.26a1.69,1.69,0,0,0-1.36.55,2.17,2.17,0,0,0-.47,1.44v2.92Z"/><path class="cls-5" d="M98.33,166.42a3.35,3.35,0,0,1,.95.13,2.51,2.51,0,0,1,.81.4,2,2,0,0,1,.56.66,1.93,1.93,0,0,1,.21.92,2,2,0,0,1-.08.56,1.7,1.7,0,0,1-.23.48,1.51,1.51,0,0,1-.37.37,1.71,1.71,0,0,1-.51.24v0a1.77,1.77,0,0,1,1.1.66,1.89,1.89,0,0,1,.38,1.19,2.29,2.29,0,0,1-.82,1.83,3,3,0,0,1-2,.7,3.52,3.52,0,0,1-1.07-.16,2.7,2.7,0,0,1-.89-.47,2.3,2.3,0,0,1-.61-.77,2.33,2.33,0,0,1-.23-1V172h1.22v.12a1.35,1.35,0,0,0,.12.58,1.32,1.32,0,0,0,.33.44,1.44,1.44,0,0,0,.48.28,1.75,1.75,0,0,0,.59.1,1.66,1.66,0,0,0,1.18-.4,1.33,1.33,0,0,0,.44-1,1.23,1.23,0,0,0-.41-1,2,2,0,0,0-1.34-.35h-.32v-.93h.4a1.7,1.7,0,0,0,1.1-.32,1,1,0,0,0,.37-.82,1.27,1.27,0,0,0-.1-.54,1,1,0,0,0-.29-.37,1.22,1.22,0,0,0-.42-.22,1.79,1.79,0,0,0-.52-.07,1.56,1.56,0,0,0-.55.09,1.27,1.27,0,0,0-.44.27,1.3,1.3,0,0,0-.3.43,1.49,1.49,0,0,0-.12.58H95.66a2.57,2.57,0,0,1,.21-1,2.33,2.33,0,0,1,.54-.77,2.5,2.5,0,0,1,.83-.52A3,3,0,0,1,98.33,166.42Z"/><path class="cls-6" d="M40.28,195.15a2.15,2.15,0,0,1-.28,1.14,2.26,2.26,0,0,1-.76.76,3.46,3.46,0,0,1-1.1.43,6.15,6.15,0,0,1-1.29.13,4.8,4.8,0,0,1-1.28-.16,3.18,3.18,0,0,1-1-.49,2.35,2.35,0,0,1-.69-.79,2.23,2.23,0,0,1-.25-1.08v-.19h.82V195a1.87,1.87,0,0,0,.16.76,1.65,1.65,0,0,0,.48.62,2.43,2.43,0,0,0,.81.42,3.79,3.79,0,0,0,1.15.15,4,4,0,0,0,.9-.1,2.56,2.56,0,0,0,.79-.32,1.81,1.81,0,0,0,.56-.54,1.38,1.38,0,0,0,.21-.78q0-1.11-1.67-1.52l-2-.49a4,4,0,0,1-.88-.31,2.14,2.14,0,0,1-.6-.44,1.59,1.59,0,0,1-.35-.58,2.25,2.25,0,0,1-.11-.73,2.1,2.1,0,0,1,.25-1,2.34,2.34,0,0,1,.68-.76,3.07,3.07,0,0,1,1-.46,4.16,4.16,0,0,1,1.14-.16,4.34,4.34,0,0,1,1.2.16,2.9,2.9,0,0,1,1,.46,2.27,2.27,0,0,1,.64.75,2.24,2.24,0,0,1,.25,1h-.81a1.6,1.6,0,0,0-.2-.65,1.78,1.78,0,0,0-.46-.53,2.23,2.23,0,0,0-.69-.36,2.8,2.8,0,0,0-.88-.13,3.49,3.49,0,0,0-.91.11,2.16,2.16,0,0,0-.71.33,1.46,1.46,0,0,0-.46.53,1.59,1.59,0,0,0-.16.73,1.21,1.21,0,0,0,.11.53,1.13,1.13,0,0,0,.29.38,1.54,1.54,0,0,0,.43.25,4,4,0,0,0,.53.17l2,.48a3.73,3.73,0,0,1,1.76.85A1.93,1.93,0,0,1,40.28,195.15Z"/><path class="cls-6" d="M44.56,197.49H43.9a3,3,0,0,1-.68-.06,1,1,0,0,1-.45-.22.9.9,0,0,1-.25-.43,2.65,2.65,0,0,1-.07-.68v-4.56H41.13v-.67h1.32v-2h.8v2h1.5v.67h-1.5V196a1.77,1.77,0,0,0,0,.34.63.63,0,0,0,.11.25.5.5,0,0,0,.21.16.87.87,0,0,0,.35.06h.6l.21,0v.68Z"/><path class="cls-6" d="M52.19,197.38l-.27,0h-.24a1.37,1.37,0,0,1-.44-.06.66.66,0,0,1-.29-.2.81.81,0,0,1-.16-.35,2.44,2.44,0,0,1,0-.53h0a3,3,0,0,1-1,1,2.79,2.79,0,0,1-1.35.29,2.46,2.46,0,0,1-1.6-.5,1.75,1.75,0,0,1-.6-1.43,1.66,1.66,0,0,1,.66-1.43,6.79,6.79,0,0,1,3-.69,2,2,0,0,0,.44-.08.75.75,0,0,0,.29-.16.6.6,0,0,0,.16-.26,1.28,1.28,0,0,0,0-.38,1.24,1.24,0,0,0-.4-1,2,2,0,0,0-1.31-.34,2.61,2.61,0,0,0-.72.09,1.65,1.65,0,0,0-.53.25,1.13,1.13,0,0,0-.33.39,1.22,1.22,0,0,0-.13.49h-.8a2,2,0,0,1,.22-.78,1.78,1.78,0,0,1,.51-.6,2.43,2.43,0,0,1,.81-.38,4,4,0,0,1,1.09-.13,2.64,2.64,0,0,1,1.83.54,2,2,0,0,1,.59,1.52v3.56a.47.47,0,0,0,.11.33.46.46,0,0,0,.36.12.7.7,0,0,0,.25,0Zm-1.52-3.54h0q-.12.22-.77.31l-.67.1-.74.12a2.67,2.67,0,0,0-1.17.44,1,1,0,0,0-.39.84,1.16,1.16,0,0,0,.43.94,1.6,1.6,0,0,0,1,.35,2.36,2.36,0,0,0,1.63-.58,1.85,1.85,0,0,0,.65-1.44Z"/><path class="cls-6" d="M53.63,197.43v-6.56h.74v1.54h0a2.56,2.56,0,0,1,.9-1.2,2.32,2.32,0,0,1,1.38-.43H57v.8h-.18a2.22,2.22,0,0,0-1.71.69,2.36,2.36,0,0,0-.64,1.69v3.48Z"/><path class="cls-6" d="M61.19,197.49h-.66a3,3,0,0,1-.68-.06,1,1,0,0,1-.45-.22.9.9,0,0,1-.25-.43,2.65,2.65,0,0,1-.07-.68v-4.56H57.77v-.67h1.32v-2h.8v2h1.5v.67h-1.5V196a1.77,1.77,0,0,0,0,.34.63.63,0,0,0,.11.25.5.5,0,0,0,.21.16.87.87,0,0,0,.35.06h.6l.21,0v.68Z"/><path class="cls-6" d="M66.68,190.86l2.06,5.76h0l2-5.76h.83l-2.46,6.56h-.85l-2.54-6.56Z"/><path class="cls-6" d="M78.63,197.38l-.27,0h-.24a1.37,1.37,0,0,1-.44-.06.66.66,0,0,1-.29-.2.81.81,0,0,1-.16-.35,2.44,2.44,0,0,1,0-.53h0a3,3,0,0,1-1,1,2.79,2.79,0,0,1-1.35.29,2.46,2.46,0,0,1-1.6-.5,1.75,1.75,0,0,1-.6-1.43,1.66,1.66,0,0,1,.66-1.43,6.79,6.79,0,0,1,3-.69,2,2,0,0,0,.44-.08.75.75,0,0,0,.29-.16.6.6,0,0,0,.16-.26,1.28,1.28,0,0,0,0-.38,1.24,1.24,0,0,0-.4-1,2,2,0,0,0-1.31-.34,2.61,2.61,0,0,0-.72.09,1.65,1.65,0,0,0-.53.25,1.13,1.13,0,0,0-.33.39,1.22,1.22,0,0,0-.13.49h-.8a2,2,0,0,1,.22-.78,1.78,1.78,0,0,1,.51-.6,2.43,2.43,0,0,1,.81-.38,4,4,0,0,1,1.09-.13,2.64,2.64,0,0,1,1.83.54,2,2,0,0,1,.59,1.52v3.56a.47.47,0,0,0,.11.33.46.46,0,0,0,.36.12.7.7,0,0,0,.25,0Zm-1.52-3.54h0q-.12.22-.77.31l-.67.1-.74.12a2.67,2.67,0,0,0-1.17.44,1,1,0,0,0-.39.84,1.16,1.16,0,0,0,.43.94,1.6,1.6,0,0,0,1,.35,2.36,2.36,0,0,0,1.63-.58,1.85,1.85,0,0,0,.65-1.44Z"/><path class="cls-6" d="M80.88,188.34v9.08h-.8v-9.08Z"/><path class="cls-6" d="M87.67,197.43v-1.18h0a2.48,2.48,0,0,1-.39.58,2.33,2.33,0,0,1-.52.43,2.47,2.47,0,0,1-.63.27,2.73,2.73,0,0,1-.72.09,2.21,2.21,0,0,1-1.74-.63,2.64,2.64,0,0,1-.56-1.82v-4.31h.8v4.28a2.67,2.67,0,0,0,.1.76,1.44,1.44,0,0,0,.31.57,1.33,1.33,0,0,0,.54.35,2.34,2.34,0,0,0,.79.12,1.69,1.69,0,0,0,.89-.22,1.92,1.92,0,0,0,.62-.59,2.63,2.63,0,0,0,.36-.83,3.9,3.9,0,0,0,.11-.94v-3.49h.8v6.56Z"/><path class="cls-6" d="M93.15,190.68a2.71,2.71,0,0,1,1.3.29,2.6,2.6,0,0,1,.9.79,3.46,3.46,0,0,1,.52,1.13,5.2,5.2,0,0,1,.17,1.34v.13H91a3.58,3.58,0,0,0,.13.94,2.59,2.59,0,0,0,.39.83,2,2,0,0,0,.66.59,1.92,1.92,0,0,0,.95.22,2.44,2.44,0,0,0,.7-.09,2,2,0,0,0,.56-.26,1.75,1.75,0,0,0,.42-.39,2.42,2.42,0,0,0,.29-.49h.79a3,3,0,0,1-.38.79,2.49,2.49,0,0,1-.59.6,2.68,2.68,0,0,1-.79.39,3.34,3.34,0,0,1-1,.14,2.94,2.94,0,0,1-1.3-.27,2.56,2.56,0,0,1-.91-.73,3.12,3.12,0,0,1-.54-1.1,5.15,5.15,0,0,1-.18-1.37,4.66,4.66,0,0,1,.18-1.28,3.36,3.36,0,0,1,.54-1.11,2.74,2.74,0,0,1,.92-.78A2.79,2.79,0,0,1,93.15,190.68Zm2.09,3a3,3,0,0,0-.16-.85,2.45,2.45,0,0,0-.41-.75,2.07,2.07,0,0,0-.65-.54,1.84,1.84,0,0,0-.88-.21,1.84,1.84,0,0,0-1.5.7,2.7,2.7,0,0,0-.42.75,4.3,4.3,0,0,0-.23.9Z"/><path class="cls-6" d="M41.64,218.14a4.7,4.7,0,0,1-1.1,3.2,3.68,3.68,0,0,1-2.94,1.27,3.72,3.72,0,0,1-2.95-1.25,5.26,5.26,0,0,1,0-6.43,3.72,3.72,0,0,1,2.95-1.25,4.81,4.81,0,0,1,.77.06,4,4,0,0,1,.74.19,3.71,3.71,0,0,1,.69.34,3.43,3.43,0,0,1,.61.49,3.49,3.49,0,0,1,.55.71,4.58,4.58,0,0,1,.38.83,5.41,5.41,0,0,1,.22.91A6.57,6.57,0,0,1,41.64,218.14Zm-.81,0a4.21,4.21,0,0,0-.85-2.69,2.86,2.86,0,0,0-2.38-1.08,2.89,2.89,0,0,0-2.36,1.05,4.15,4.15,0,0,0-.86,2.71,4.22,4.22,0,0,0,.85,2.7,3.16,3.16,0,0,0,4.74,0A4.21,4.21,0,0,0,40.83,218.14Z"/><path class="cls-6" d="M49.37,219.14a4.78,4.78,0,0,1-.17,1.28,3.38,3.38,0,0,1-.53,1.11,2.69,2.69,0,0,1-.92.79,3,3,0,0,1-2,.21,2.46,2.46,0,0,1-.65-.27,2.29,2.29,0,0,1-.54-.45,2.21,2.21,0,0,1-.38-.63h0v3.67h-.8v-9h.74v1.25h0a2.24,2.24,0,0,1,.39-.61,2.29,2.29,0,0,1,.55-.45,2.67,2.67,0,0,1,.67-.28,2.82,2.82,0,0,1,.74-.1,2.85,2.85,0,0,1,1.29.28,2.64,2.64,0,0,1,.92.75,3.33,3.33,0,0,1,.56,1.11A4.66,4.66,0,0,1,49.37,219.14Zm-.8,0a4.48,4.48,0,0,0-.11-1,2.84,2.84,0,0,0-.37-.9,2.07,2.07,0,0,0-.67-.66,1.9,1.9,0,0,0-1-.26,2.09,2.09,0,0,0-1.7.7,3.21,3.21,0,0,0-.58,2.09,4.21,4.21,0,0,0,.13,1,2.68,2.68,0,0,0,.4.9,2.09,2.09,0,0,0,.71.63,2.16,2.16,0,0,0,1.06.24,1.87,1.87,0,0,0,1-.24,2,2,0,0,0,.67-.63,2.87,2.87,0,0,0,.39-.9A4.14,4.14,0,0,0,48.56,219.14Z"/><path class="cls-6" d="M53.81,215.68a2.71,2.71,0,0,1,1.3.29,2.6,2.6,0,0,1,.9.79,3.46,3.46,0,0,1,.52,1.13,5.2,5.2,0,0,1,.17,1.34v.13H51.64a3.58,3.58,0,0,0,.13.94,2.59,2.59,0,0,0,.39.83,2,2,0,0,0,.66.59,1.92,1.92,0,0,0,.95.22,2.44,2.44,0,0,0,.7-.09,2,2,0,0,0,.56-.26,1.75,1.75,0,0,0,.42-.39,2.42,2.42,0,0,0,.29-.49h.79a3,3,0,0,1-.38.79,2.49,2.49,0,0,1-.59.6,2.68,2.68,0,0,1-.79.39,3.34,3.34,0,0,1-1,.14,2.94,2.94,0,0,1-1.3-.27,2.56,2.56,0,0,1-.91-.73,3.12,3.12,0,0,1-.54-1.1,5.15,5.15,0,0,1-.18-1.37,4.66,4.66,0,0,1,.18-1.28,3.36,3.36,0,0,1,.54-1.11,2.74,2.74,0,0,1,.92-.78A2.79,2.79,0,0,1,53.81,215.68Zm2.09,3a3,3,0,0,0-.16-.85,2.45,2.45,0,0,0-.41-.75,2.07,2.07,0,0,0-.65-.54,1.84,1.84,0,0,0-.88-.21,1.84,1.84,0,0,0-1.5.7,2.7,2.7,0,0,0-.42.75,4.3,4.3,0,0,0-.23.9Z"/><path class="cls-6" d="M58.37,222.43v-6.56h.74v1.54h0a2.56,2.56,0,0,1,.9-1.2,2.32,2.32,0,0,1,1.38-.43h.29v.8h-.18a2.22,2.22,0,0,0-1.71.69,2.36,2.36,0,0,0-.64,1.69v3.48Z"/><path class="cls-6" d="M68.61,222.38l-.27,0H68.1a1.37,1.37,0,0,1-.44-.06.66.66,0,0,1-.29-.2.81.81,0,0,1-.16-.35,2.44,2.44,0,0,1,0-.53h0a3,3,0,0,1-1,1,2.79,2.79,0,0,1-1.35.29,2.46,2.46,0,0,1-1.6-.5,1.75,1.75,0,0,1-.6-1.43,1.66,1.66,0,0,1,.66-1.43,6.79,6.79,0,0,1,3-.69,2,2,0,0,0,.44-.08.75.75,0,0,0,.29-.16.6.6,0,0,0,.16-.26,1.28,1.28,0,0,0,0-.38,1.24,1.24,0,0,0-.4-1,2,2,0,0,0-1.31-.34,2.61,2.61,0,0,0-.72.09,1.65,1.65,0,0,0-.53.25,1.13,1.13,0,0,0-.33.39,1.22,1.22,0,0,0-.13.49h-.8a2,2,0,0,1,.22-.78,1.78,1.78,0,0,1,.51-.6,2.43,2.43,0,0,1,.81-.38,4,4,0,0,1,1.09-.13,2.64,2.64,0,0,1,1.83.54,2,2,0,0,1,.59,1.52v3.56a.47.47,0,0,0,.11.33.46.46,0,0,0,.36.12.7.7,0,0,0,.25,0Zm-1.52-3.54h0q-.12.22-.77.31l-.67.1-.74.12a2.67,2.67,0,0,0-1.17.44,1,1,0,0,0-.39.84,1.16,1.16,0,0,0,.43.94,1.6,1.6,0,0,0,1,.35,2.36,2.36,0,0,0,1.63-.58,1.85,1.85,0,0,0,.65-1.44Z"/><path class="cls-6" d="M72.69,222.49H72a3,3,0,0,1-.68-.06,1,1,0,0,1-.45-.22.9.9,0,0,1-.25-.43,2.65,2.65,0,0,1-.07-.68v-4.56H69.26v-.67h1.32v-2h.8v2h1.5v.67h-1.5V221a1.77,1.77,0,0,0,0,.34.63.63,0,0,0,.11.25.5.5,0,0,0,.21.16.87.87,0,0,0,.35.06h.6l.21,0v.68Z"/><path class="cls-6" d="M75.47,213v1.29h-.8V213Zm0,2.87v6.56h-.8v-6.56Z"/><path class="cls-6" d="M83.5,219.14a4.29,4.29,0,0,1-.2,1.31,3.31,3.31,0,0,1-.61,1.13,2.9,2.9,0,0,1-2.29,1,2.84,2.84,0,0,1-2.24-1,4.07,4.07,0,0,1,0-5,3.08,3.08,0,0,1,4.51,0A3.65,3.65,0,0,1,83.5,219.14Zm-.8,0a3.8,3.8,0,0,0-.13-1,2.81,2.81,0,0,0-.42-.9,2.25,2.25,0,0,0-.72-.65,2,2,0,0,0-1-.25,2,2,0,0,0-1,.24,2.24,2.24,0,0,0-.72.64,2.85,2.85,0,0,0-.44.9,3.66,3.66,0,0,0-.15,1,3.58,3.58,0,0,0,.14,1,3,3,0,0,0,.43.9,2.24,2.24,0,0,0,.71.65,2.15,2.15,0,0,0,2,0,2.33,2.33,0,0,0,.72-.63,2.81,2.81,0,0,0,.45-.89A3.54,3.54,0,0,0,82.69,219.14Z"/><path class="cls-6" d="M88.21,215.68a3.34,3.34,0,0,1,1.08.16,1.83,1.83,0,0,1,.74.46,1.86,1.86,0,0,1,.43.77,3.79,3.79,0,0,1,.14,1.08v4.28h-.8v-4.15a2.2,2.2,0,0,0-.41-1.44,1.54,1.54,0,0,0-1.25-.49,2.07,2.07,0,0,0-.86.17,1.87,1.87,0,0,0-.65.48,2.16,2.16,0,0,0-.41.71,2.63,2.63,0,0,0-.14.88v3.84h-.8v-6.56h.8V217h0a2,2,0,0,1,.35-.56,2.18,2.18,0,0,1,.49-.42,2.33,2.33,0,0,1,.6-.26A2.48,2.48,0,0,1,88.21,215.68Z"/><path class="cls-6" d="M102,213.34v9.08h-.74v-1.25h0a2.05,2.05,0,0,1-.39.6,2.57,2.57,0,0,1-.56.45,2.8,2.8,0,0,1-.67.29,2.63,2.63,0,0,1-.72.1,2.8,2.8,0,0,1-1.28-.28,2.68,2.68,0,0,1-.92-.75,3.32,3.32,0,0,1-.56-1.11,4.68,4.68,0,0,1-.19-1.34,4.83,4.83,0,0,1,.17-1.29,3.3,3.3,0,0,1,.53-1.11,2.69,2.69,0,0,1,.92-.78,3,3,0,0,1,2-.2,2.56,2.56,0,0,1,.65.27,2.25,2.25,0,0,1,.54.45,2.07,2.07,0,0,1,.38.63h0v-3.77Zm-5.26,5.8a4.17,4.17,0,0,0,.05.65,3.7,3.7,0,0,0,.16.64,2.83,2.83,0,0,0,.28.58,2.14,2.14,0,0,0,.41.48,1.8,1.8,0,0,0,.55.32,2,2,0,0,0,.7.12,2.14,2.14,0,0,0,1-.23,2.12,2.12,0,0,0,.72-.61,2.66,2.66,0,0,0,.43-.89,4,4,0,0,0,.14-1.06,4,4,0,0,0-.13-1,2.72,2.72,0,0,0-.41-.9,2.05,2.05,0,0,0-1.76-.88,1.94,1.94,0,0,0-.68.11,1.8,1.8,0,0,0-.54.31,2.15,2.15,0,0,0-.41.47,2.79,2.79,0,0,0-.29.58,3.53,3.53,0,0,0-.17.65A4.24,4.24,0,0,0,96.75,219.14Z"/><path class="cls-6" d="M106.78,215.68a2.71,2.71,0,0,1,1.3.29,2.6,2.6,0,0,1,.9.79,3.46,3.46,0,0,1,.52,1.13,5.2,5.2,0,0,1,.17,1.34v.13h-5.05a3.58,3.58,0,0,0,.13.94,2.59,2.59,0,0,0,.39.83,2,2,0,0,0,.66.59,1.92,1.92,0,0,0,.95.22,2.44,2.44,0,0,0,.7-.09,2,2,0,0,0,.56-.26,1.75,1.75,0,0,0,.42-.39,2.42,2.42,0,0,0,.29-.49h.79a3,3,0,0,1-.38.79,2.49,2.49,0,0,1-.59.6,2.68,2.68,0,0,1-.79.39,3.34,3.34,0,0,1-1,.14,2.94,2.94,0,0,1-1.3-.27,2.56,2.56,0,0,1-.91-.73,3.12,3.12,0,0,1-.54-1.1,5.15,5.15,0,0,1-.18-1.37,4.66,4.66,0,0,1,.18-1.28,3.36,3.36,0,0,1,.54-1.11,2.74,2.74,0,0,1,.92-.78A2.79,2.79,0,0,1,106.78,215.68Zm2.09,3a3,3,0,0,0-.16-.85,2.45,2.45,0,0,0-.41-.75,2.07,2.07,0,0,0-.65-.54,1.84,1.84,0,0,0-.88-.21,1.84,1.84,0,0,0-1.5.7,2.7,2.7,0,0,0-.42.75,4.3,4.3,0,0,0-.23.9Z"/><path class="cls-6" d="M112.17,213.34v9.08h-.8v-9.08Z"/><path class="cls-6" d="M120,222.38l-.27,0h-.24a1.37,1.37,0,0,1-.44-.06.66.66,0,0,1-.29-.2.81.81,0,0,1-.16-.35,2.44,2.44,0,0,1,0-.53h0a3,3,0,0,1-1,1,2.79,2.79,0,0,1-1.35.29,2.46,2.46,0,0,1-1.6-.5,1.75,1.75,0,0,1-.6-1.43,1.66,1.66,0,0,1,.66-1.43,6.79,6.79,0,0,1,3-.69,2,2,0,0,0,.44-.08.75.75,0,0,0,.29-.16.6.6,0,0,0,.16-.26,1.28,1.28,0,0,0,0-.38,1.24,1.24,0,0,0-.4-1,2,2,0,0,0-1.31-.34,2.61,2.61,0,0,0-.72.09,1.65,1.65,0,0,0-.53.25,1.13,1.13,0,0,0-.33.39,1.22,1.22,0,0,0-.13.49h-.8a2,2,0,0,1,.22-.78,1.78,1.78,0,0,1,.51-.6,2.43,2.43,0,0,1,.81-.38,4,4,0,0,1,1.09-.13,2.64,2.64,0,0,1,1.83.54,2,2,0,0,1,.59,1.52v3.56a.47.47,0,0,0,.11.33.46.46,0,0,0,.36.12.7.7,0,0,0,.25,0Zm-1.52-3.54h0q-.12.22-.77.31l-.67.1-.74.12a2.67,2.67,0,0,0-1.17.44,1,1,0,0,0-.39.84,1.16,1.16,0,0,0,.43.94,1.6,1.6,0,0,0,1,.35,2.36,2.36,0,0,0,1.63-.58,1.85,1.85,0,0,0,.65-1.44Z"/><path class="cls-6" d="M121.46,215.86l2.16,5.59h0l2-5.59h.8l-2.83,7.5q-.13.33-.26.61a1.7,1.7,0,0,1-.32.47,1.3,1.3,0,0,1-.46.3,1.88,1.88,0,0,1-.69.11,3.17,3.17,0,0,1-.63-.06v-.68a1.29,1.29,0,0,0,.28.06h.27a1.08,1.08,0,0,0,.48-.09.9.9,0,0,0,.34-.3,2.86,2.86,0,0,0,.28-.55l.33-.83-2.62-6.54Z"/><path class="cls-6" d="M133.92,222.49h-.66a3,3,0,0,1-.68-.06,1,1,0,0,1-.45-.22.9.9,0,0,1-.25-.43,2.65,2.65,0,0,1-.07-.68v-4.56h-1.32v-.67h1.32v-2h.8v2h1.5v.67h-1.5V221a1.77,1.77,0,0,0,0,.34.63.63,0,0,0,.11.25.5.5,0,0,0,.21.16.87.87,0,0,0,.35.06h.6l.21,0v.68Z"/><path class="cls-6" d="M136.71,213v1.29h-.8V213Zm0,2.87v6.56h-.8v-6.56Z"/><path class="cls-6" d="M147.18,222.43V218a1.73,1.73,0,0,0-.37-1.22,1.85,1.85,0,0,0-2.5.21,2.8,2.8,0,0,0-.45,1.71v3.77H143v-4.49a1.81,1.81,0,0,0-.34-1.17,1.25,1.25,0,0,0-1-.42,1.72,1.72,0,0,0-1.46.65,2.72,2.72,0,0,0-.5,1.71v3.72h-.8v-6.56h.74V217h0a2.26,2.26,0,0,1,2.15-1.29,2.44,2.44,0,0,1,.64.08,1.87,1.87,0,0,1,.54.24,1.66,1.66,0,0,1,.42.4,1.85,1.85,0,0,1,.28.55,2.16,2.16,0,0,1,.85-1,2.4,2.4,0,0,1,1.24-.32,2.12,2.12,0,0,1,1.63.58,2.36,2.36,0,0,1,.54,1.66v4.51Z"/><path class="cls-6" d="M152.75,215.68a2.71,2.71,0,0,1,1.3.29,2.6,2.6,0,0,1,.9.79,3.46,3.46,0,0,1,.52,1.13,5.2,5.2,0,0,1,.17,1.34v.13h-5.05a3.58,3.58,0,0,0,.13.94,2.59,2.59,0,0,0,.39.83,2,2,0,0,0,.66.59,1.92,1.92,0,0,0,.95.22,2.44,2.44,0,0,0,.7-.09,2,2,0,0,0,.56-.26,1.75,1.75,0,0,0,.42-.39,2.42,2.42,0,0,0,.29-.49h.79a3,3,0,0,1-.38.79,2.49,2.49,0,0,1-.59.6,2.68,2.68,0,0,1-.79.39,3.34,3.34,0,0,1-1,.14,2.94,2.94,0,0,1-1.3-.27,2.56,2.56,0,0,1-.91-.73,3.12,3.12,0,0,1-.54-1.1,5.15,5.15,0,0,1-.18-1.37,4.66,4.66,0,0,1,.18-1.28,3.36,3.36,0,0,1,.54-1.11,2.74,2.74,0,0,1,.92-.78A2.79,2.79,0,0,1,152.75,215.68Zm2.09,3a3,3,0,0,0-.16-.85,2.45,2.45,0,0,0-.41-.75,2.07,2.07,0,0,0-.65-.54,1.84,1.84,0,0,0-.88-.21,1.84,1.84,0,0,0-1.5.7,2.7,2.7,0,0,0-.42.75,4.3,4.3,0,0,0-.23.9Z"/><path class="cls-6" d="M257.63,72.49a2.81,2.81,0,0,1,2,.66,2.28,2.28,0,0,1,.73,1.78,2.82,2.82,0,0,1-.55,1.66,7,7,0,0,1-2,1.66,8.29,8.29,0,0,0-1.66,1.23,2,2,0,0,0-.56,1h4.81v.72h-5.7a3,3,0,0,1,.56-1.74,6.61,6.61,0,0,1,1.93-1.66A8.78,8.78,0,0,0,259,76.32a2.11,2.11,0,0,0,.51-1.41,1.64,1.64,0,0,0-.54-1.28,2,2,0,0,0-1.4-.49,2,2,0,0,0-.86.17,1.82,1.82,0,0,0-.61.44,1.77,1.77,0,0,0-.36.62,2.2,2.2,0,0,0-.12.71v.17h-.77v-.12a2.93,2.93,0,0,1,.17-1,2.42,2.42,0,0,1,.51-.84,2.47,2.47,0,0,1,.86-.59A3.06,3.06,0,0,1,257.63,72.49Z"/><path class="cls-6" d="M264.89,72.49a2.87,2.87,0,0,1,1.32.29,2.48,2.48,0,0,1,.94.85,4.14,4.14,0,0,1,.57,1.39,8.64,8.64,0,0,1,.19,1.92,5.94,5.94,0,0,1-.77,3.35,2.82,2.82,0,0,1-4.49,0,5.89,5.89,0,0,1-.77-3.34,5.89,5.89,0,0,1,.77-3.35A2.56,2.56,0,0,1,264.89,72.49Zm-2.23,4.45q0,3.81,2.23,3.81t2.24-3.81a5.64,5.64,0,0,0-.57-2.84,1.84,1.84,0,0,0-1.68-1,1.82,1.82,0,0,0-1.65.94A5.63,5.63,0,0,0,262.66,76.93Z"/><path class="cls-6" d="M257.7,127.21v-6.43h-2.29v-.56q.53,0,.9-.06a2.36,2.36,0,0,0,.57-.13,1.3,1.3,0,0,0,.64-.52,2.46,2.46,0,0,0,.31-1h.63v8.65Z"/><path class="cls-6" d="M264.89,118.49a2.87,2.87,0,0,1,1.32.29,2.48,2.48,0,0,1,.94.85,4.14,4.14,0,0,1,.57,1.39,8.64,8.64,0,0,1,.19,1.92,5.94,5.94,0,0,1-.77,3.35,2.82,2.82,0,0,1-4.49,0,7.62,7.62,0,0,1,0-6.69A2.56,2.56,0,0,1,264.89,118.49Zm-2.23,4.45q0,3.81,2.23,3.81t2.24-3.81a5.64,5.64,0,0,0-.57-2.84,1.84,1.84,0,0,0-1.68-1,1.82,1.82,0,0,0-1.65.94A5.63,5.63,0,0,0,262.66,122.93Z"/><path class="cls-6" d="M257.63,143.49a2.81,2.81,0,0,1,2,.66,2.28,2.28,0,0,1,.73,1.78,2.82,2.82,0,0,1-.55,1.66,7,7,0,0,1-2,1.66,8.29,8.29,0,0,0-1.66,1.23,2,2,0,0,0-.56,1h4.81v.72h-5.7a3,3,0,0,1,.56-1.74,6.61,6.61,0,0,1,1.93-1.66,8.78,8.78,0,0,0,1.89-1.48,2.11,2.11,0,0,0,.51-1.41,1.64,1.64,0,0,0-.54-1.28,2,2,0,0,0-1.4-.49,2,2,0,0,0-.86.17,1.82,1.82,0,0,0-.61.44,1.77,1.77,0,0,0-.36.62,2.2,2.2,0,0,0-.12.71v.17h-.77v-.12a2.93,2.93,0,0,1,.17-1,2.42,2.42,0,0,1,.51-.84,2.47,2.47,0,0,1,.86-.59A3.06,3.06,0,0,1,257.63,143.49Z"/><path class="cls-6" d="M264.89,143.49a2.87,2.87,0,0,1,1.32.29,2.48,2.48,0,0,1,.94.85,4.14,4.14,0,0,1,.57,1.39,8.64,8.64,0,0,1,.19,1.92,5.94,5.94,0,0,1-.77,3.35,2.82,2.82,0,0,1-4.49,0,7.62,7.62,0,0,1,0-6.69A2.56,2.56,0,0,1,264.89,143.49Zm-2.23,4.45q0,3.81,2.23,3.81t2.24-3.81a5.64,5.64,0,0,0-.57-2.84,1.84,1.84,0,0,0-1.68-1,1.82,1.82,0,0,0-1.65.94A5.63,5.63,0,0,0,262.66,147.93Z"/><path class="cls-6" d="M257.7,197.21v-6.43h-2.29v-.56q.53,0,.9-.06a2.36,2.36,0,0,0,.57-.13,1.3,1.3,0,0,0,.64-.52,2.46,2.46,0,0,0,.31-1h.63v8.65Z"/><path class="cls-6" d="M264.89,188.49a2.87,2.87,0,0,1,1.32.29,2.48,2.48,0,0,1,.94.85,4.14,4.14,0,0,1,.57,1.39,8.64,8.64,0,0,1,.19,1.92,5.94,5.94,0,0,1-.77,3.35,2.82,2.82,0,0,1-4.49,0,7.62,7.62,0,0,1,0-6.69A2.56,2.56,0,0,1,264.89,188.49Zm-2.23,4.45q0,3.81,2.23,3.81t2.24-3.81a5.64,5.64,0,0,0-.57-2.84,1.84,1.84,0,0,0-1.68-1,1.82,1.82,0,0,0-1.65.94A5.63,5.63,0,0,0,262.66,192.93Z"/><path class="cls-6" d="M257.63,213.49a2.81,2.81,0,0,1,2,.66,2.28,2.28,0,0,1,.73,1.78,2.82,2.82,0,0,1-.55,1.66,7,7,0,0,1-2,1.66,8.29,8.29,0,0,0-1.66,1.23,2,2,0,0,0-.56,1h4.81v.72h-5.7a3,3,0,0,1,.56-1.74,6.61,6.61,0,0,1,1.93-1.66,8.78,8.78,0,0,0,1.89-1.48,2.11,2.11,0,0,0,.51-1.41,1.64,1.64,0,0,0-.54-1.28,2,2,0,0,0-1.4-.49,2,2,0,0,0-.86.17,1.82,1.82,0,0,0-.61.44,1.77,1.77,0,0,0-.36.62,2.2,2.2,0,0,0-.12.71v.17h-.77v-.12a2.93,2.93,0,0,1,.17-1,2.42,2.42,0,0,1,.51-.84,2.47,2.47,0,0,1,.86-.59A3.06,3.06,0,0,1,257.63,213.49Z"/><path class="cls-6" d="M264.89,213.49a2.87,2.87,0,0,1,1.32.29,2.48,2.48,0,0,1,.94.85,4.14,4.14,0,0,1,.57,1.39,8.64,8.64,0,0,1,.19,1.92,5.94,5.94,0,0,1-.77,3.35,2.82,2.82,0,0,1-4.49,0,7.62,7.62,0,0,1,0-6.69A2.56,2.56,0,0,1,264.89,213.49Zm-2.23,4.45q0,3.81,2.23,3.81t2.24-3.81a5.64,5.64,0,0,0-.57-2.84,1.84,1.84,0,0,0-1.68-1,1.82,1.82,0,0,0-1.65.94A5.63,5.63,0,0,0,262.66,217.93Z"/><rect class="cls-7" x="20" y="19" width="643" height="24"/><path class="cls-5" d="M39.4,30.13a2.12,2.12,0,0,1-.62,1.6,2.09,2.09,0,0,1-.73.45,2.76,2.76,0,0,1-.94.15h-2v2.74H33.85V27.93H37.1a2.33,2.33,0,0,1,1.67.6A2.09,2.09,0,0,1,39.4,30.13Zm-1.22,0a1.13,1.13,0,0,0-.35-.91,1.64,1.64,0,0,0-1.09-.3H35.1v2.42h1.67a2.29,2.29,0,0,0,.6-.07,1.06,1.06,0,0,0,.81-1.13Z"/><path class="cls-5" d="M44.88,35.07l-.62-1.82h-3l-.62,1.82H39.4L42,27.94h1.69l2.52,7.13Zm-2.07-6.21h0L41.61,32.3h2.33Z"/><path class="cls-5" d="M52.94,29.86a1.91,1.91,0,0,1-.42,1.28,1.51,1.51,0,0,1-.35.31,2.11,2.11,0,0,1-.46.21v0a1.4,1.4,0,0,1,.49.21,1.17,1.17,0,0,1,.33.35,1.62,1.62,0,0,1,.21.52,4.28,4.28,0,0,1,.08.57c0,.2,0,.4,0,.61a4,4,0,0,0,.08.62,1.37,1.37,0,0,0,.2.52H51.86A3.65,3.65,0,0,1,51.68,34a2.67,2.67,0,0,0-.38-1.47,1.13,1.13,0,0,0-.88-.34h-2v2.92H47.17V27.93h3.68a2.13,2.13,0,0,1,1.48.53A1.8,1.8,0,0,1,52.94,29.86Zm-1.25.2a1.09,1.09,0,0,0-.32-.86,1.29,1.29,0,0,0-.89-.28H48.42v2.29h2.05a1.27,1.27,0,0,0,.85-.27A1.08,1.08,0,0,0,51.69,30.06Z"/><path class="cls-5" d="M59.4,35.07l-.62-1.82h-3l-.62,1.82H53.93l2.57-7.13h1.69l2.52,7.13Zm-2.07-6.21h0L56.14,32.3h2.33Z"/><path class="cls-5" d="M68.05,35.07V29.34h0l-2,5.73H64.93l-2-5.7h0v5.7H61.69V27.94h1.83l2,5.56h0l1.91-5.56h1.82v7.13Z"/><path class="cls-5" d="M76.17,27.94V29H72.23v1.9h3.64v1H72.23V34h4v1H71V27.94Z"/><path class="cls-5" d="M82.77,27.93V29H80.5v6.08H79.25V29H77V27.93Z"/><path class="cls-5" d="M89,27.94V29H85v1.9h3.64v1H85V34h4v1H83.78V27.94Z"/><path class="cls-5" d="M96.12,29.86a1.91,1.91,0,0,1-.42,1.28,1.52,1.52,0,0,1-.35.31,2.12,2.12,0,0,1-.46.21v0a1.4,1.4,0,0,1,.49.21,1.17,1.17,0,0,1,.33.35,1.62,1.62,0,0,1,.21.52,4.28,4.28,0,0,1,.08.57c0,.2,0,.4,0,.61a4,4,0,0,0,.08.62,1.37,1.37,0,0,0,.2.52H95A3.65,3.65,0,0,1,94.86,34a2.67,2.67,0,0,0-.38-1.47,1.13,1.13,0,0,0-.88-.34h-2v2.92H90.36V27.93H94a2.13,2.13,0,0,1,1.48.53A1.8,1.8,0,0,1,96.12,29.86Zm-1.25.2a1.09,1.09,0,0,0-.32-.86,1.29,1.29,0,0,0-.89-.28H91.61v2.29h2.05a1.27,1.27,0,0,0,.85-.27A1.08,1.08,0,0,0,94.87,30.06Z"/><path class="cls-5" d="M101.8,27.93l3.4,5.3h0v-5.3h1.19v7.14h-1.27l-3.4-5.3h0v5.3h-1.19V27.93Z"/><path class="cls-5" d="M112.88,35.07l-.62-1.82h-3l-.62,1.82H107.4L110,27.94h1.69l2.52,7.13Zm-2.07-6.21h0l-1.17,3.44h2.33Z"/><path class="cls-5" d="M121.52,35.07V29.34h0l-2,5.73H118.4l-2-5.7h0v5.7h-1.18V27.94H117l2,5.56h0l1.91-5.56h1.82v7.13Z"/><path class="cls-5" d="M129.64,27.94V29h-3.94v1.9h3.64v1h-3.64V34h4v1h-5.25V27.94Z"/><path class="cls-5" d="M381,27.93v4.48a1.89,1.89,0,0,0,.41,1.33,1.68,1.68,0,0,0,1.29.44,1.73,1.73,0,0,0,1.29-.42,1.86,1.86,0,0,0,.41-1.34V27.93h1.25v4.53a2.74,2.74,0,0,1-.75,2,3,3,0,0,1-2.2.75,4,4,0,0,1-1.27-.19,2.33,2.33,0,0,1-1.5-1.46,3.37,3.37,0,0,1-.18-1.13V27.93Z"/><path class="cls-5" d="M388.66,27.93l3.4,5.3h0v-5.3h1.19v7.14H392l-3.4-5.3h0v5.3h-1.19V27.93Z"/><path class="cls-5" d="M396.28,27.93v7.14H395V27.93Z"/><path class="cls-5" d="M403.09,27.93V29h-2.27v6.08h-1.25V29h-2.27V27.93Z"/><path class="cls-5" d="M505.2,35.07V29.34h0l-2,5.73h-1.08l-2-5.7h0v5.7h-1.18V27.94h1.83l2,5.56h0l1.91-5.56h1.82v7.13Z"/><path class="cls-5" d="M509.39,27.93v7.14h-1.25V27.93Z"/><path class="cls-5" d="M512.42,27.93l3.4,5.3h0v-5.3H517v7.14h-1.27l-3.4-5.3h0v5.3h-1.19V27.93Z"/><path class="cls-5" d="M256.12,27.93v7.14h-1.25V27.93Z"/><path class="cls-5" d="M263.07,27.94V29h-3.94v1.9h3.64v1h-3.64V34h4v1h-5.25V27.94Z"/><path class="cls-5" d="M267.32,27.93a3.18,3.18,0,0,1,2.37.9,3.64,3.64,0,0,1,.89,2.64,3.74,3.74,0,0,1-.88,2.67,3.09,3.09,0,0,1-2.35.92h-2.89V27.93ZM267.18,34a2.07,2.07,0,0,0,1.58-.59,2.62,2.62,0,0,0,.57-1.86,2.8,2.8,0,0,0-.58-2A2.35,2.35,0,0,0,267,29h-1.25v5Z"/><path class="cls-5" d="M275.34,27.93l1.86,5.73h0l1.86-5.73h1.3l-2.47,7.14h-1.42L274,27.93Z"/><path class="cls-5" d="M285.62,35.07,285,33.25h-3l-.62,1.82h-1.27l2.57-7.13h1.69l2.52,7.13Zm-2.07-6.21h0l-1.17,3.44h2.33Z"/><path class="cls-5" d="M289.17,27.93V34h3.67v1.05h-4.92V27.93Z"/><path class="cls-5" d="M295,27.93v4.48a1.89,1.89,0,0,0,.41,1.33,1.68,1.68,0,0,0,1.29.44,1.73,1.73,0,0,0,1.29-.42,1.86,1.86,0,0,0,.41-1.34V27.93h1.25v4.53a2.74,2.74,0,0,1-.75,2,3,3,0,0,1-2.2.75,4,4,0,0,1-1.27-.19,2.33,2.33,0,0,1-1.5-1.46,3.37,3.37,0,0,1-.18-1.13V27.93Z"/><path class="cls-5" d="M306.49,27.94V29h-3.94v1.9h3.64v1h-3.64V34h4v1H301.3V27.94Z"/><rect class="cls-8" x="20" y="89" width="643" height="1"/><rect class="cls-9" x="20" y="134" width="643" height="1"/><rect class="cls-9" x="20" y="205" width="643" height="1"/><rect class="cls-9" x="20" y="230" width="643" height="1"/><path class="cls-6" d="M388.36,81.21V76.75a1.73,1.73,0,0,0-.37-1.22,1.85,1.85,0,0,0-2.5.21,2.8,2.8,0,0,0-.45,1.71v3.77h-.81V76.72a1.81,1.81,0,0,0-.34-1.17,1.25,1.25,0,0,0-1-.42,1.72,1.72,0,0,0-1.46.65,2.72,2.72,0,0,0-.5,1.71v3.72h-.8V74.65h.74v1.1h0A2.26,2.26,0,0,1,383,74.46a2.44,2.44,0,0,1,.64.08,1.86,1.86,0,0,1,.54.24,1.66,1.66,0,0,1,.42.4,1.86,1.86,0,0,1,.28.55,2.16,2.16,0,0,1,.85-1,2.4,2.4,0,0,1,1.24-.32,2.12,2.12,0,0,1,1.63.58,2.36,2.36,0,0,1,.54,1.66v4.51Z"/><path class="cls-6" d="M396.26,79.43a1.67,1.67,0,0,1-.22.88,1.89,1.89,0,0,1-.59.62,2.74,2.74,0,0,1-.84.36,4,4,0,0,1-1,.12,3.66,3.66,0,0,1-1.07-.14,2.4,2.4,0,0,1-.8-.41,2,2,0,0,1-.53-.64,2.4,2.4,0,0,1-.25-.85h.81a1.7,1.7,0,0,0,.2.56,1.41,1.41,0,0,0,.38.43,1.8,1.8,0,0,0,.57.28,2.56,2.56,0,0,0,.74.1,3,3,0,0,0,.6-.06,2.05,2.05,0,0,0,.58-.21,1.35,1.35,0,0,0,.44-.38,1,1,0,0,0,.18-.59.93.93,0,0,0-.34-.73,2.6,2.6,0,0,0-1.13-.46l-1-.22a4,4,0,0,1-.77-.24,2.1,2.1,0,0,1-.58-.37,1.46,1.46,0,0,1-.36-.5,1.62,1.62,0,0,1-.12-.65,1.57,1.57,0,0,1,.21-.83,1.78,1.78,0,0,1,.56-.57,2.53,2.53,0,0,1,.78-.33,3.77,3.77,0,0,1,.89-.11,3.27,3.27,0,0,1,.92.12,2.29,2.29,0,0,1,.73.35,1.83,1.83,0,0,1,.5.57,2.08,2.08,0,0,1,.25.78h-.8a1.32,1.32,0,0,0-.19-.5,1.24,1.24,0,0,0-.36-.37,1.69,1.69,0,0,0-.5-.22,2.36,2.36,0,0,0-.61-.08,2.85,2.85,0,0,0-.58.06,1.59,1.59,0,0,0-.51.19,1.07,1.07,0,0,0-.36.35,1,1,0,0,0-.13.53.74.74,0,0,0,.13.44,1.27,1.27,0,0,0,.33.32,1.93,1.93,0,0,0,.44.22,3.64,3.64,0,0,0,.46.13l1.37.3a2.85,2.85,0,0,1,.59.21,1.77,1.77,0,0,1,.5.35,1.64,1.64,0,0,1,.34.51A1.71,1.71,0,0,1,396.26,79.43Z"/><path class="cls-6" d="M383.65,122a3.33,3.33,0,0,1-.13,1,2,2,0,0,1-.37.71,1.57,1.57,0,0,1-.6.45,2.06,2.06,0,0,1-.81.15,1.75,1.75,0,0,1-1.42-.59,3.09,3.09,0,0,1,0-3.36,1.75,1.75,0,0,1,1.41-.59,2.08,2.08,0,0,1,.82.15,1.54,1.54,0,0,1,.6.45,2,2,0,0,1,.37.71A3.34,3.34,0,0,1,383.65,122Zm-.64,0a3,3,0,0,0-.06-.61,1.82,1.82,0,0,0-.21-.56,1.25,1.25,0,0,0-.4-.41,1.19,1.19,0,0,0-1.53.29,2.63,2.63,0,0,0,0,2.56,1.23,1.23,0,0,0,1.54.3,1.2,1.2,0,0,0,.39-.39,1.73,1.73,0,0,0,.22-.55A3.23,3.23,0,0,0,383,122Zm-1.15,6.6h-.57l5.44-9.11h.56Zm7.06-2.5a3.33,3.33,0,0,1-.13,1,2,2,0,0,1-.37.71,1.57,1.57,0,0,1-.6.45,2.06,2.06,0,0,1-.81.15,2,2,0,0,1-.84-.17,1.63,1.63,0,0,1-.59-.47,2.08,2.08,0,0,1-.35-.72,3.62,3.62,0,0,1,0-1.86,2,2,0,0,1,.37-.71,1.54,1.54,0,0,1,.6-.45,2.28,2.28,0,0,1,1.64,0,1.54,1.54,0,0,1,.6.45,2,2,0,0,1,.37.71A3.34,3.34,0,0,1,388.91,126.13Zm-.64,0a3,3,0,0,0-.06-.61A1.82,1.82,0,0,0,388,125a1.25,1.25,0,0,0-.4-.41,1.2,1.2,0,0,0-1.54.29,2.17,2.17,0,0,0-.33,1.29,2.1,2.1,0,0,0,.33,1.26,1.21,1.21,0,0,0,1.53.3,1.2,1.2,0,0,0,.39-.39,1.73,1.73,0,0,0,.22-.55A3.23,3.23,0,0,0,388.28,126.14Z"/><path class="cls-6" d="M388.36,153.21v-4.46a1.73,1.73,0,0,0-.37-1.22,1.85,1.85,0,0,0-2.5.21,2.8,2.8,0,0,0-.45,1.71v3.77h-.81v-4.49a1.81,1.81,0,0,0-.34-1.17,1.25,1.25,0,0,0-1-.42,1.72,1.72,0,0,0-1.46.65,2.72,2.72,0,0,0-.5,1.71v3.72h-.8v-6.56h.74v1.1h0a2.26,2.26,0,0,1,2.15-1.29,2.44,2.44,0,0,1,.64.08,1.86,1.86,0,0,1,.54.24,1.66,1.66,0,0,1,.42.4,1.86,1.86,0,0,1,.28.55,2.16,2.16,0,0,1,.85-1,2.4,2.4,0,0,1,1.24-.32,2.12,2.12,0,0,1,1.63.58,2.36,2.36,0,0,1,.54,1.66v4.51Z"/><path class="cls-6" d="M396.26,151.43a1.67,1.67,0,0,1-.22.88,1.89,1.89,0,0,1-.59.62,2.74,2.74,0,0,1-.84.36,4,4,0,0,1-1,.12,3.66,3.66,0,0,1-1.07-.14,2.4,2.4,0,0,1-.8-.41,2,2,0,0,1-.53-.64,2.4,2.4,0,0,1-.25-.85h.81a1.7,1.7,0,0,0,.2.56,1.41,1.41,0,0,0,.38.43,1.8,1.8,0,0,0,.57.28,2.56,2.56,0,0,0,.74.1,3,3,0,0,0,.6-.06,2.05,2.05,0,0,0,.58-.21,1.35,1.35,0,0,0,.44-.38,1,1,0,0,0,.18-.59.93.93,0,0,0-.34-.73,2.6,2.6,0,0,0-1.13-.46l-1-.22a4,4,0,0,1-.77-.24,2.1,2.1,0,0,1-.58-.37,1.46,1.46,0,0,1-.36-.5,1.62,1.62,0,0,1-.12-.65,1.57,1.57,0,0,1,.21-.83,1.78,1.78,0,0,1,.56-.57,2.53,2.53,0,0,1,.78-.33,3.77,3.77,0,0,1,.89-.11,3.27,3.27,0,0,1,.92.12,2.29,2.29,0,0,1,.73.35,1.83,1.83,0,0,1,.5.57,2.08,2.08,0,0,1,.25.78h-.8a1.32,1.32,0,0,0-.19-.5,1.24,1.24,0,0,0-.36-.37,1.69,1.69,0,0,0-.5-.22,2.36,2.36,0,0,0-.61-.08,2.85,2.85,0,0,0-.58.06,1.59,1.59,0,0,0-.51.19,1.07,1.07,0,0,0-.36.35,1,1,0,0,0-.13.53.74.74,0,0,0,.13.44,1.27,1.27,0,0,0,.33.32,1.93,1.93,0,0,0,.44.22,3.64,3.64,0,0,0,.46.13l1.37.3a2.85,2.85,0,0,1,.59.21,1.77,1.77,0,0,1,.5.35,1.64,1.64,0,0,1,.34.51A1.71,1.71,0,0,1,396.26,151.43Z"/><path class="cls-6" d="M383.65,192a3.33,3.33,0,0,1-.13,1,2,2,0,0,1-.37.71,1.57,1.57,0,0,1-.6.45,2.06,2.06,0,0,1-.81.15,1.75,1.75,0,0,1-1.42-.59,3.09,3.09,0,0,1,0-3.36,1.75,1.75,0,0,1,1.41-.59,2.08,2.08,0,0,1,.82.15,1.54,1.54,0,0,1,.6.45,2,2,0,0,1,.37.71A3.34,3.34,0,0,1,383.65,192Zm-.64,0a3,3,0,0,0-.06-.61,1.82,1.82,0,0,0-.21-.56,1.25,1.25,0,0,0-.4-.41,1.19,1.19,0,0,0-1.53.29,2.63,2.63,0,0,0,0,2.56,1.23,1.23,0,0,0,1.54.3,1.2,1.2,0,0,0,.39-.39,1.73,1.73,0,0,0,.22-.55A3.23,3.23,0,0,0,383,192Zm-1.15,6.6h-.57l5.44-9.11h.56Zm7.06-2.5a3.33,3.33,0,0,1-.13,1,2,2,0,0,1-.37.71,1.57,1.57,0,0,1-.6.45,2.06,2.06,0,0,1-.81.15,2,2,0,0,1-.84-.17,1.63,1.63,0,0,1-.59-.47,2.08,2.08,0,0,1-.35-.72,3.62,3.62,0,0,1,0-1.86,2,2,0,0,1,.37-.71,1.54,1.54,0,0,1,.6-.45,2.28,2.28,0,0,1,1.64,0,1.54,1.54,0,0,1,.6.45,2,2,0,0,1,.37.71A3.34,3.34,0,0,1,388.91,196.13Zm-.64,0a3,3,0,0,0-.06-.61A1.82,1.82,0,0,0,388,195a1.25,1.25,0,0,0-.4-.41,1.2,1.2,0,0,0-1.54.29,2.17,2.17,0,0,0-.33,1.29,2.1,2.1,0,0,0,.33,1.26,1.21,1.21,0,0,0,1.53.3,1.2,1.2,0,0,0,.39-.39,1.73,1.73,0,0,0,.22-.55A3.23,3.23,0,0,0,388.28,196.14Z"/><path class="cls-6" d="M388.36,223.21v-4.46a1.73,1.73,0,0,0-.37-1.22,1.85,1.85,0,0,0-2.5.21,2.8,2.8,0,0,0-.45,1.71v3.77h-.81v-4.49a1.81,1.81,0,0,0-.34-1.17,1.25,1.25,0,0,0-1-.42,1.72,1.72,0,0,0-1.46.65,2.72,2.72,0,0,0-.5,1.71v3.72h-.8v-6.56h.74v1.1h0a2.26,2.26,0,0,1,2.15-1.29,2.44,2.44,0,0,1,.64.08,1.86,1.86,0,0,1,.54.24,1.66,1.66,0,0,1,.42.4,1.86,1.86,0,0,1,.28.55,2.16,2.16,0,0,1,.85-1,2.4,2.4,0,0,1,1.24-.32,2.12,2.12,0,0,1,1.63.58,2.36,2.36,0,0,1,.54,1.66v4.51Z"/><path class="cls-6" d="M396.26,221.43a1.67,1.67,0,0,1-.22.88,1.89,1.89,0,0,1-.59.62,2.74,2.74,0,0,1-.84.36,4,4,0,0,1-1,.12,3.66,3.66,0,0,1-1.07-.14,2.4,2.4,0,0,1-.8-.41,2,2,0,0,1-.53-.64,2.4,2.4,0,0,1-.25-.85h.81a1.7,1.7,0,0,0,.2.56,1.41,1.41,0,0,0,.38.43,1.8,1.8,0,0,0,.57.28,2.56,2.56,0,0,0,.74.1,3,3,0,0,0,.6-.06,2.05,2.05,0,0,0,.58-.21,1.35,1.35,0,0,0,.44-.38,1,1,0,0,0,.18-.59.93.93,0,0,0-.34-.73,2.6,2.6,0,0,0-1.13-.46l-1-.22a4,4,0,0,1-.77-.24,2.1,2.1,0,0,1-.58-.37,1.46,1.46,0,0,1-.36-.5,1.62,1.62,0,0,1-.12-.65,1.57,1.57,0,0,1,.21-.83,1.78,1.78,0,0,1,.56-.57,2.53,2.53,0,0,1,.78-.33,3.77,3.77,0,0,1,.89-.11,3.27,3.27,0,0,1,.92.12,2.29,2.29,0,0,1,.73.35,1.83,1.83,0,0,1,.5.57,2.08,2.08,0,0,1,.25.78h-.8a1.32,1.32,0,0,0-.19-.5,1.24,1.24,0,0,0-.36-.37,1.69,1.69,0,0,0-.5-.22,2.36,2.36,0,0,0-.61-.08,2.85,2.85,0,0,0-.58.06,1.59,1.59,0,0,0-.51.19,1.07,1.07,0,0,0-.36.35,1,1,0,0,0-.13.53.74.74,0,0,0,.13.44,1.27,1.27,0,0,0,.33.32,1.93,1.93,0,0,0,.44.22,3.64,3.64,0,0,0,.46.13l1.37.3a2.85,2.85,0,0,1,.59.21,1.77,1.77,0,0,1,.5.35,1.64,1.64,0,0,1,.34.51A1.71,1.71,0,0,1,396.26,221.43Z"/><path class="cls-6" d="M504.56,72.66v.72h-3.78l-.54,2.78,0,0a2.32,2.32,0,0,1,.82-.52,2.79,2.79,0,0,1,1-.18,3.18,3.18,0,0,1,1.2.22,2.6,2.6,0,0,1,.92.61,2.73,2.73,0,0,1,.59.94,3.43,3.43,0,0,1,.21,1.22,2.81,2.81,0,0,1-.23,1.14,2.94,2.94,0,0,1-1.61,1.56,3.12,3.12,0,0,1-1.2.23,3.29,3.29,0,0,1-1.1-.17,2.59,2.59,0,0,1-.85-.48,2.26,2.26,0,0,1-.56-.74,2.52,2.52,0,0,1-.23-1H500a1.84,1.84,0,0,0,.16.64,1.65,1.65,0,0,0,.4.54,2,2,0,0,0,.62.37,2.29,2.29,0,0,0,.83.14,2.06,2.06,0,0,0,.87-.18,2.14,2.14,0,0,0,.7-.5,2.4,2.4,0,0,0,.46-.75,2.49,2.49,0,0,0,.17-.92,2.41,2.41,0,0,0-.16-.86,2.12,2.12,0,0,0-1.14-1.2,2.2,2.2,0,0,0-.91-.18,2.55,2.55,0,0,0-1.07.23,2.22,2.22,0,0,0-.85.68h-.66l.81-4.38Z"/><path class="cls-6" d="M504.56,118.66v.72h-3.78l-.54,2.78,0,0a2.32,2.32,0,0,1,.82-.52,2.79,2.79,0,0,1,1-.18,3.18,3.18,0,0,1,1.2.22,2.6,2.6,0,0,1,.92.61,2.73,2.73,0,0,1,.59.94,3.43,3.43,0,0,1,.21,1.22,2.81,2.81,0,0,1-.23,1.14,2.94,2.94,0,0,1-1.61,1.56,3.12,3.12,0,0,1-1.2.23,3.29,3.29,0,0,1-1.1-.17,2.59,2.59,0,0,1-.85-.48,2.26,2.26,0,0,1-.56-.74,2.52,2.52,0,0,1-.23-1H500a1.84,1.84,0,0,0,.16.64,1.65,1.65,0,0,0,.4.54,2,2,0,0,0,.62.37,2.29,2.29,0,0,0,.83.14,2.06,2.06,0,0,0,.87-.18,2.14,2.14,0,0,0,.7-.5,2.4,2.4,0,0,0,.46-.75,2.49,2.49,0,0,0,.17-.92,2.41,2.41,0,0,0-.16-.86,2.12,2.12,0,0,0-1.14-1.2,2.2,2.2,0,0,0-.91-.18,2.55,2.55,0,0,0-1.07.23,2.22,2.22,0,0,0-.85.68h-.66l.81-4.38Z"/><path class="cls-6" d="M502.13,143.49a2.81,2.81,0,0,1,2,.66,2.28,2.28,0,0,1,.73,1.78,2.82,2.82,0,0,1-.55,1.66,7,7,0,0,1-2,1.66,8.29,8.29,0,0,0-1.66,1.23,2,2,0,0,0-.56,1h4.81v.72h-5.7a3,3,0,0,1,.56-1.74,6.61,6.61,0,0,1,1.93-1.66,8.78,8.78,0,0,0,1.89-1.48,2.11,2.11,0,0,0,.51-1.41,1.64,1.64,0,0,0-.54-1.28,2,2,0,0,0-1.4-.49,2,2,0,0,0-.86.17,1.82,1.82,0,0,0-.61.44,1.77,1.77,0,0,0-.36.62,2.2,2.2,0,0,0-.12.71v.17h-.77v-.12a2.93,2.93,0,0,1,.17-1,2.42,2.42,0,0,1,.51-.84,2.47,2.47,0,0,1,.86-.59A3.06,3.06,0,0,1,502.13,143.49Z"/><path class="cls-6" d="M509.39,143.49a2.87,2.87,0,0,1,1.32.29,2.48,2.48,0,0,1,.94.85,4.14,4.14,0,0,1,.57,1.39,8.64,8.64,0,0,1,.19,1.92,5.94,5.94,0,0,1-.77,3.35,2.82,2.82,0,0,1-4.49,0,7.62,7.62,0,0,1,0-6.69A2.56,2.56,0,0,1,509.39,143.49Zm-2.23,4.45q0,3.81,2.23,3.81t2.24-3.81a5.64,5.64,0,0,0-.57-2.84,1.84,1.84,0,0,0-1.68-1,1.82,1.82,0,0,0-1.65.94A5.63,5.63,0,0,0,507.16,147.93Z"/><path class="cls-6" d="M504.56,189.66v.72h-3.78l-.54,2.78,0,0a2.32,2.32,0,0,1,.82-.52,2.79,2.79,0,0,1,1-.18,3.18,3.18,0,0,1,1.2.22,2.6,2.6,0,0,1,.92.61,2.73,2.73,0,0,1,.59.94,3.43,3.43,0,0,1,.21,1.22,2.81,2.81,0,0,1-.23,1.14,2.94,2.94,0,0,1-1.61,1.56,3.12,3.12,0,0,1-1.2.23,3.29,3.29,0,0,1-1.1-.17,2.59,2.59,0,0,1-.85-.48,2.26,2.26,0,0,1-.56-.74,2.52,2.52,0,0,1-.23-1H500a1.84,1.84,0,0,0,.16.64,1.65,1.65,0,0,0,.4.54,2,2,0,0,0,.62.37,2.29,2.29,0,0,0,.83.14,2.06,2.06,0,0,0,.87-.18,2.14,2.14,0,0,0,.7-.5,2.4,2.4,0,0,0,.46-.75,2.49,2.49,0,0,0,.17-.92,2.41,2.41,0,0,0-.16-.86,2.12,2.12,0,0,0-1.14-1.2,2.2,2.2,0,0,0-.91-.18,2.55,2.55,0,0,0-1.07.23,2.22,2.22,0,0,0-.85.68h-.66l.81-4.38Z"/><path class="cls-6" d="M502.13,214.49a2.81,2.81,0,0,1,2,.66,2.28,2.28,0,0,1,.73,1.78,2.82,2.82,0,0,1-.55,1.66,7,7,0,0,1-2,1.66,8.29,8.29,0,0,0-1.66,1.23,2,2,0,0,0-.56,1h4.81v.72h-5.7a3,3,0,0,1,.56-1.74,6.61,6.61,0,0,1,1.93-1.66,8.78,8.78,0,0,0,1.89-1.48,2.11,2.11,0,0,0,.51-1.41,1.64,1.64,0,0,0-.54-1.28,2,2,0,0,0-1.4-.49,2,2,0,0,0-.86.17,1.82,1.82,0,0,0-.61.44,1.77,1.77,0,0,0-.36.62,2.2,2.2,0,0,0-.12.71v.17h-.77v-.12a2.93,2.93,0,0,1,.17-1,2.42,2.42,0,0,1,.51-.84,2.47,2.47,0,0,1,.86-.59A3.06,3.06,0,0,1,502.13,214.49Z"/><path class="cls-6" d="M509.39,214.49a2.87,2.87,0,0,1,1.32.29,2.48,2.48,0,0,1,.94.85,4.14,4.14,0,0,1,.57,1.39,8.64,8.64,0,0,1,.19,1.92,5.94,5.94,0,0,1-.77,3.35,2.82,2.82,0,0,1-4.49,0,7.62,7.62,0,0,1,0-6.69A2.56,2.56,0,0,1,509.39,214.49Zm-2.23,4.45q0,3.81,2.23,3.81t2.24-3.81a5.64,5.64,0,0,0-.57-2.84,1.84,1.84,0,0,0-1.68-1,1.82,1.82,0,0,0-1.65.94A5.63,5.63,0,0,0,507.16,218.93Z"/></g></svg>