<svg xmlns="http://www.w3.org/2000/svg" viewBox="0 0 674 209"><defs><style>.cls-1{fill:#fff;}.cls-2{fill:#464646;}.cls-3,.cls-4,.cls-5,.cls-6,.cls-7{fill:none;}.cls-3{stroke:#000;opacity:0.11;}.cls-3,.cls-6,.cls-7{stroke-miterlimit:10;}.cls-5{opacity:0.05;}.cls-6{stroke:#c8c8c8;}.cls-7{stroke:#0aaeff;stroke-width:2px;}</style></defs><title>Artboard 5</title><g id="Bg"><rect class="cls-1" x="-35" y="-549" width="6000" height="2500"/></g><g id="Tabeller"><path class="cls-2" d="M28.71,34.93a3.18,3.18,0,0,1,2.37.9A3.63,3.63,0,0,1,32,38.48a3.74,3.74,0,0,1-.88,2.67,3.09,3.09,0,0,1-2.35.92H25.85V34.93ZM28.57,41a2.07,2.07,0,0,0,1.58-.59,2.62,2.62,0,0,0,.57-1.86,2.79,2.79,0,0,0-.58-2A2.34,2.34,0,0,0,28.36,36H27.1v5Z"/><path class="cls-2" d="M37.83,42.07l-.62-1.82h-3l-.62,1.82H32.36l2.57-7.13h1.69l2.52,7.13Zm-2.07-6.21h0L34.57,39.3H36.9Z"/><path class="cls-2" d="M44.53,34.93V36H42.26v6.08H41V36H38.74V34.93Z"/><path class="cls-2" d="M50.73,34.94V36H46.79v1.9h3.64v1H46.79V41h4v1H45.54V34.94Z"/><path class="cls-2" d="M191.89,34.93V36h-2.27v6.08h-1.25V36h-2.27V34.93Z"/><path class="cls-2" d="M194.16,34.93v7.14h-1.25V34.93Z"/><path class="cls-2" d="M202.28,42.07V36.34h0l-2,5.73h-1.08l-2-5.7h0v5.7h-1.18V34.94h1.83l2,5.56h0l1.91-5.56h1.82v7.13Z"/><path class="cls-2" d="M210.4,34.94V36h-3.94v1.9h3.64v1h-3.64V41h4v1h-5.25V34.94Z"/><path class="cls-2" d="M349.37,38.52a3.85,3.85,0,0,1-.95,2.66,3.21,3.21,0,0,1-2.51,1.05,3.64,3.64,0,0,1-1.36-.24,3.21,3.21,0,0,1-1.1-.75A3.36,3.36,0,0,1,342.7,40a4.46,4.46,0,0,1-.25-1.51,3.9,3.9,0,0,1,.95-2.7,3.21,3.21,0,0,1,2.51-1.05,3.69,3.69,0,0,1,1.37.25,3,3,0,0,1,1.1.76,3.34,3.34,0,0,1,.74,1.24A4.73,4.73,0,0,1,349.37,38.52Zm-1.25,0a3.07,3.07,0,0,0-.59-2,2.14,2.14,0,0,0-3.25,0,3.08,3.08,0,0,0-.58,2,3,3,0,0,0,.58,1.91,2.16,2.16,0,0,0,3.26,0A3,3,0,0,0,348.12,38.52Z"/><path class="cls-2" d="M356.58,40a2,2,0,0,1-.19.89,1.8,1.8,0,0,1-.52.64,2.32,2.32,0,0,1-.79.39,3.56,3.56,0,0,1-1,.13h-3.35V34.93H354a3.93,3.93,0,0,1,.93.1,2,2,0,0,1,.7.31,1.4,1.4,0,0,1,.45.55,1.88,1.88,0,0,1,.16.8,1.57,1.57,0,0,1-.28.94,1.7,1.7,0,0,1-.79.58h0a2.12,2.12,0,0,1,.61.25,1.52,1.52,0,0,1,.43.4,1.71,1.71,0,0,1,.25.52A2.16,2.16,0,0,1,356.58,40Zm-1.53-3.09a.9.9,0,0,0-.32-.76,1.51,1.51,0,0,0-.93-.24H352v2h1.89a1.64,1.64,0,0,0,.45-.06,1.1,1.1,0,0,0,.37-.18.86.86,0,0,0,.25-.31A1.07,1.07,0,0,0,355.05,36.93Zm.28,3a1,1,0,0,0-.35-.86,1.59,1.59,0,0,0-1-.29h-2v2.28h2a1.63,1.63,0,0,0,1-.28A1,1,0,0,0,355.33,40Z"/><path class="cls-2" d="M361.94,34.93v5a2.26,2.26,0,0,1-.63,1.76,2.34,2.34,0,0,1-1.64.51,2.7,2.7,0,0,1-.91-.15,1.86,1.86,0,0,1-1.15-1.14,2.76,2.76,0,0,1-.16-1v-.43h1.15v.19a2.87,2.87,0,0,0,.08.72,1,1,0,0,0,.2.43,1,1,0,0,0,.8.3,1,1,0,0,0,.77-.28,1.73,1.73,0,0,0,.24-1.07V34.93Z"/><path class="cls-2" d="M368.88,34.94V36h-3.94v1.9h3.64v1h-3.64V41h4v1H363.7V34.94Z"/><path class="cls-2" d="M373.26,34.78a3.75,3.75,0,0,1,1.1.15,2.88,2.88,0,0,1,.89.44,2.45,2.45,0,0,1,.64.71,2.66,2.66,0,0,1,.34.94H375a1.57,1.57,0,0,0-.21-.47,1.51,1.51,0,0,0-.37-.38,1.84,1.84,0,0,0-.52-.26,2.12,2.12,0,0,0-.65-.1,2.08,2.08,0,0,0-1,.22,2.06,2.06,0,0,0-.7.6,2.61,2.61,0,0,0-.42.86,3.79,3.79,0,0,0,0,2,2.56,2.56,0,0,0,.4.85,2,2,0,0,0,1.7.83,2,2,0,0,0,.71-.12,1.69,1.69,0,0,0,.55-.33,1.71,1.71,0,0,0,.38-.51,2.22,2.22,0,0,0,.2-.65h1.22a3.5,3.5,0,0,1-.29,1A2.66,2.66,0,0,1,374.48,42a3.45,3.45,0,0,1-1.24.21,3.54,3.54,0,0,1-1.43-.28,3.21,3.21,0,0,1-1.1-.78A3.44,3.44,0,0,1,370,40a4.35,4.35,0,0,1-.24-1.48,4.44,4.44,0,0,1,.23-1.43,3.56,3.56,0,0,1,.67-1.19,3.19,3.19,0,0,1,1.09-.82A3.49,3.49,0,0,1,373.26,34.78Z"/><path class="cls-2" d="M382.71,34.93V36h-2.27v6.08H379.2V36h-2.27V34.93Z"/><path class="cls-2" d="M391.61,34.93V36h-2.27v6.08H388.1V36h-2.27V34.93Z"/><path class="cls-2" d="M397.81,34.94V36h-3.94v1.9h3.64v1h-3.64V41h4v1h-5.25V34.94Z"/><path class="cls-2" d="M400.22,34.93l1.62,2.53,1.68-2.53h1.38l-2.34,3.43,2.52,3.71h-1.49l-1.78-2.71L400,42.07h-1.41l2.52-3.72-2.34-3.42Z"/><path class="cls-2" d="M411.33,34.93V36h-2.27v6.08h-1.25V36h-2.27V34.93Z"/><path class="cls-2" d="M569,34.94V36H565.1v1.9h3.64v1H565.1V41h4v1h-5.25V34.94Z"/><path class="cls-2" d="M571.13,34.93,573,40.66h0l1.86-5.73h1.3l-2.47,7.14h-1.42l-2.44-7.14Z"/><path class="cls-2" d="M582.34,34.94V36H578.4v1.9H582v1H578.4V41h4v1h-5.25V34.94Z"/><path class="cls-2" d="M585,34.93l3.4,5.3h0v-5.3h1.19v7.14h-1.27l-3.4-5.3h0v5.3h-1.19V34.93Z"/><path class="cls-2" d="M596.41,34.93V36h-2.27v6.08h-1.25V36h-2.27V34.93Z"/><path class="cls-2" d="M28.63,64.49a2.81,2.81,0,0,1,2,.66,2.28,2.28,0,0,1,.73,1.78,2.82,2.82,0,0,1-.55,1.66,7,7,0,0,1-2,1.66,8.29,8.29,0,0,0-1.66,1.23,2,2,0,0,0-.56,1h4.81v.72h-5.7a3,3,0,0,1,.56-1.74,6.61,6.61,0,0,1,1.93-1.66A8.78,8.78,0,0,0,30,68.32a2.11,2.11,0,0,0,.51-1.41A1.64,1.64,0,0,0,30,65.63a2,2,0,0,0-1.4-.49,2,2,0,0,0-.86.17,1.82,1.82,0,0,0-.61.44,1.77,1.77,0,0,0-.36.62,2.2,2.2,0,0,0-.12.71v.17h-.77v-.12a2.93,2.93,0,0,1,.17-1,2.42,2.42,0,0,1,.51-.84,2.47,2.47,0,0,1,.86-.59A3.06,3.06,0,0,1,28.63,64.49Z"/><path class="cls-2" d="M35.89,64.49a2.87,2.87,0,0,1,1.32.29,2.48,2.48,0,0,1,.94.85A4.14,4.14,0,0,1,38.72,67a8.64,8.64,0,0,1,.19,1.92,5.94,5.94,0,0,1-.77,3.35,2.82,2.82,0,0,1-4.49,0,5.89,5.89,0,0,1-.77-3.34,5.89,5.89,0,0,1,.77-3.35A2.56,2.56,0,0,1,35.89,64.49Zm-2.23,4.45q0,3.81,2.23,3.81t2.24-3.81a5.64,5.64,0,0,0-.57-2.84,1.84,1.84,0,0,0-1.68-1,1.82,1.82,0,0,0-1.65.94A5.63,5.63,0,0,0,33.66,68.93Z"/><path class="cls-2" d="M43.23,73.21V66.78H40.94v-.56q.53,0,.9-.06a2.36,2.36,0,0,0,.57-.13,1.3,1.3,0,0,0,.64-.52,2.46,2.46,0,0,0,.31-1H44v8.65Z"/><path class="cls-2" d="M52.86,64.66v.72H49.08l-.54,2.78,0,0a2.32,2.32,0,0,1,.82-.52,2.79,2.79,0,0,1,1-.18,3.18,3.18,0,0,1,1.2.22,2.6,2.6,0,0,1,.92.61,2.73,2.73,0,0,1,.59.94,3.43,3.43,0,0,1,.21,1.22A2.81,2.81,0,0,1,53,71.61a2.94,2.94,0,0,1-1.61,1.56,3.12,3.12,0,0,1-1.2.23,3.29,3.29,0,0,1-1.1-.17,2.59,2.59,0,0,1-.85-.48,2.26,2.26,0,0,1-.56-.74,2.52,2.52,0,0,1-.23-1h.79a1.84,1.84,0,0,0,.16.64,1.65,1.65,0,0,0,.4.54,2,2,0,0,0,.62.37,2.29,2.29,0,0,0,.83.14,2.06,2.06,0,0,0,.87-.18,2.14,2.14,0,0,0,.7-.5,2.4,2.4,0,0,0,.46-.75,2.49,2.49,0,0,0,.17-.92,2.41,2.41,0,0,0-.16-.86,2.12,2.12,0,0,0-1.14-1.2,2.2,2.2,0,0,0-.91-.18,2.55,2.55,0,0,0-1.07.23,2.22,2.22,0,0,0-.85.68h-.66l.81-4.38Z"/><path class="cls-2" d="M57.78,69.37v.7h-3v-.7Z"/><path class="cls-2" d="M62.13,64.49a2.87,2.87,0,0,1,1.32.29,2.48,2.48,0,0,1,.94.85A4.14,4.14,0,0,1,65,67a8.64,8.64,0,0,1,.19,1.92,5.94,5.94,0,0,1-.77,3.35,2.82,2.82,0,0,1-4.49,0,5.89,5.89,0,0,1-.77-3.34,5.89,5.89,0,0,1,.77-3.35A2.56,2.56,0,0,1,62.13,64.49ZM59.9,68.93q0,3.81,2.23,3.81t2.24-3.81a5.64,5.64,0,0,0-.57-2.84,1.84,1.84,0,0,0-1.68-1,1.82,1.82,0,0,0-1.65.94A5.63,5.63,0,0,0,59.9,68.93Z"/><path class="cls-2" d="M72.4,70.79a2.36,2.36,0,0,1-.83,1.91,3.22,3.22,0,0,1-2.16.7,3.18,3.18,0,0,1-2.16-.71,2.52,2.52,0,0,1-.7-2.64,2.28,2.28,0,0,1,.35-.67,2.18,2.18,0,0,1,1.28-.81v0a2.05,2.05,0,0,1-1.06-.72,2,2,0,0,1-.35-1.18,1.9,1.9,0,0,1,.76-1.57,2.91,2.91,0,0,1,1.86-.59,3,3,0,0,1,1.88.59A1.88,1.88,0,0,1,72,66.65a2.2,2.2,0,0,1-.09.65,1.81,1.81,0,0,1-.72,1,2.1,2.1,0,0,1-.6.28v0a2.18,2.18,0,0,1,1.32.76A2.29,2.29,0,0,1,72.4,70.79Zm-.78,0A1.75,1.75,0,0,0,71,69.44a2.78,2.78,0,0,0-3.24,0,1.76,1.76,0,0,0-.57,1.37,1.79,1.79,0,0,0,.6,1.42,2.7,2.7,0,0,0,3.2,0A1.79,1.79,0,0,0,71.62,70.79Zm-.36-4.14a1.35,1.35,0,0,0-.5-1.1,2.37,2.37,0,0,0-2.67,0,1.3,1.3,0,0,0-.53,1.09,1.48,1.48,0,0,0,.49,1.18,2,2,0,0,0,1.32.43,2,2,0,0,0,1.41-.45A1.52,1.52,0,0,0,71.25,66.65Z"/><path class="cls-2" d="M76.76,69.37v.7h-3v-.7Z"/><path class="cls-2" d="M81.11,64.49a2.81,2.81,0,0,1,2,.66,2.28,2.28,0,0,1,.73,1.78,2.82,2.82,0,0,1-.55,1.66,7,7,0,0,1-2,1.66,8.29,8.29,0,0,0-1.66,1.23,2,2,0,0,0-.56,1h4.81v.72h-5.7a3,3,0,0,1,.56-1.74,6.61,6.61,0,0,1,1.93-1.66,8.78,8.78,0,0,0,1.89-1.48A2.11,2.11,0,0,0,83,66.91a1.64,1.64,0,0,0-.54-1.28,2,2,0,0,0-1.4-.49,2,2,0,0,0-.86.17,1.82,1.82,0,0,0-.61.44,1.77,1.77,0,0,0-.36.62,2.2,2.2,0,0,0-.12.71v.17h-.77v-.12a2.93,2.93,0,0,1,.17-1A2.42,2.42,0,0,1,79,65.3a2.47,2.47,0,0,1,.86-.59A3.06,3.06,0,0,1,81.11,64.49Z"/><path class="cls-2" d="M90,71.06v2.15h-.71V71.06h-4v-.75l4-5.75H90V70.4h1.3v.66Zm-.71-5.36h0L86,70.4h3.29Z"/><path class="cls-2" d="M28.63,101.49a2.81,2.81,0,0,1,2,.66,2.28,2.28,0,0,1,.73,1.78,2.82,2.82,0,0,1-.55,1.66,7,7,0,0,1-2,1.66,8.29,8.29,0,0,0-1.66,1.23,2,2,0,0,0-.56,1h4.81v.72h-5.7a3,3,0,0,1,.56-1.74,6.61,6.61,0,0,1,1.93-1.66A8.78,8.78,0,0,0,30,105.32a2.11,2.11,0,0,0,.51-1.41,1.64,1.64,0,0,0-.54-1.28,2,2,0,0,0-1.4-.49,2,2,0,0,0-.86.17,1.82,1.82,0,0,0-.61.44,1.77,1.77,0,0,0-.36.62,2.2,2.2,0,0,0-.12.71v.17h-.77v-.12a2.93,2.93,0,0,1,.17-1,2.42,2.42,0,0,1,.51-.84,2.47,2.47,0,0,1,.86-.59A3.06,3.06,0,0,1,28.63,101.49Z"/><path class="cls-2" d="M35.89,101.49a2.87,2.87,0,0,1,1.32.29,2.48,2.48,0,0,1,.94.85,4.14,4.14,0,0,1,.57,1.39,8.64,8.64,0,0,1,.19,1.92,5.94,5.94,0,0,1-.77,3.35,2.82,2.82,0,0,1-4.49,0,7.62,7.62,0,0,1,0-6.69A2.56,2.56,0,0,1,35.89,101.49Zm-2.23,4.45q0,3.81,2.23,3.81t2.24-3.81a5.64,5.64,0,0,0-.57-2.84,1.84,1.84,0,0,0-1.68-1,1.82,1.82,0,0,0-1.65.94A5.63,5.63,0,0,0,33.66,105.93Z"/><path class="cls-2" d="M43.23,110.21v-6.43H40.94v-.56q.53,0,.9-.06a2.36,2.36,0,0,0,.57-.13,1.3,1.3,0,0,0,.64-.52,2.46,2.46,0,0,0,.31-1H44v8.65Z"/><path class="cls-2" d="M52.86,101.66v.72H49.08l-.54,2.78,0,0a2.32,2.32,0,0,1,.82-.52,2.79,2.79,0,0,1,1-.18,3.18,3.18,0,0,1,1.2.22,2.6,2.6,0,0,1,.92.61,2.73,2.73,0,0,1,.59.94,3.43,3.43,0,0,1,.21,1.22,2.81,2.81,0,0,1-.23,1.14,2.94,2.94,0,0,1-1.61,1.56,3.12,3.12,0,0,1-1.2.23,3.29,3.29,0,0,1-1.1-.17,2.59,2.59,0,0,1-.85-.48,2.26,2.26,0,0,1-.56-.74,2.52,2.52,0,0,1-.23-1h.79a1.84,1.84,0,0,0,.16.64,1.65,1.65,0,0,0,.4.54,2,2,0,0,0,.62.37,2.29,2.29,0,0,0,.83.14,2.06,2.06,0,0,0,.87-.18,2.14,2.14,0,0,0,.7-.5,2.4,2.4,0,0,0,.46-.75,2.49,2.49,0,0,0,.17-.92,2.41,2.41,0,0,0-.16-.86,2.12,2.12,0,0,0-1.14-1.2,2.2,2.2,0,0,0-.91-.18,2.55,2.55,0,0,0-1.07.23,2.22,2.22,0,0,0-.85.68h-.66l.81-4.38Z"/><path class="cls-2" d="M57.78,106.37v.7h-3v-.7Z"/><path class="cls-2" d="M62.13,101.49a2.87,2.87,0,0,1,1.32.29,2.48,2.48,0,0,1,.94.85A4.14,4.14,0,0,1,65,104a8.64,8.64,0,0,1,.19,1.92,5.94,5.94,0,0,1-.77,3.35,2.82,2.82,0,0,1-4.49,0,7.62,7.62,0,0,1,0-6.69A2.56,2.56,0,0,1,62.13,101.49Zm-2.23,4.45q0,3.81,2.23,3.81t2.24-3.81a5.64,5.64,0,0,0-.57-2.84,1.84,1.84,0,0,0-1.68-1,1.82,1.82,0,0,0-1.65.94A5.63,5.63,0,0,0,59.9,105.93Z"/><path class="cls-2" d="M72.4,107.79a2.36,2.36,0,0,1-.83,1.91,3.22,3.22,0,0,1-2.16.7,3.18,3.18,0,0,1-2.16-.71,2.52,2.52,0,0,1-.7-2.64,2.28,2.28,0,0,1,.35-.67,2.18,2.18,0,0,1,1.28-.81v0a2.05,2.05,0,0,1-1.06-.72,2,2,0,0,1-.35-1.18,1.9,1.9,0,0,1,.76-1.57,2.91,2.91,0,0,1,1.86-.59,3,3,0,0,1,1.88.59,1.88,1.88,0,0,1,.76,1.57,2.2,2.2,0,0,1-.09.65,1.81,1.81,0,0,1-.72,1,2.1,2.1,0,0,1-.6.28v0a2.18,2.18,0,0,1,1.32.76A2.29,2.29,0,0,1,72.4,107.79Zm-.78,0a1.75,1.75,0,0,0-.59-1.35,2.78,2.78,0,0,0-3.24,0,1.76,1.76,0,0,0-.57,1.37,1.79,1.79,0,0,0,.6,1.42,2.7,2.7,0,0,0,3.2,0A1.79,1.79,0,0,0,71.62,107.79Zm-.36-4.14a1.35,1.35,0,0,0-.5-1.1,2.37,2.37,0,0,0-2.67,0,1.3,1.3,0,0,0-.53,1.09,1.48,1.48,0,0,0,.49,1.18,2,2,0,0,0,1.32.43,2,2,0,0,0,1.41-.45A1.52,1.52,0,0,0,71.25,103.65Z"/><path class="cls-2" d="M76.76,106.37v.7h-3v-.7Z"/><path class="cls-2" d="M81.11,101.49a2.81,2.81,0,0,1,2,.66,2.28,2.28,0,0,1,.73,1.78,2.82,2.82,0,0,1-.55,1.66,7,7,0,0,1-2,1.66,8.29,8.29,0,0,0-1.66,1.23,2,2,0,0,0-.56,1h4.81v.72h-5.7a3,3,0,0,1,.56-1.74,6.61,6.61,0,0,1,1.93-1.66,8.78,8.78,0,0,0,1.89-1.48,2.11,2.11,0,0,0,.51-1.41,1.64,1.64,0,0,0-.54-1.28,2,2,0,0,0-1.4-.49,2,2,0,0,0-.86.17,1.82,1.82,0,0,0-.61.44,1.77,1.77,0,0,0-.36.62,2.2,2.2,0,0,0-.12.71v.17h-.77v-.12a2.93,2.93,0,0,1,.17-1,2.42,2.42,0,0,1,.51-.84,2.47,2.47,0,0,1,.86-.59A3.06,3.06,0,0,1,81.11,101.49Z"/><path class="cls-2" d="M90,108.06v2.15h-.71v-2.15h-4v-.75l4-5.75H90v5.85h1.3v.66Zm-.71-5.36h0L86,107.4h3.29Z"/><path class="cls-2" d="M28.63,138.49a2.81,2.81,0,0,1,2,.66,2.28,2.28,0,0,1,.73,1.78,2.82,2.82,0,0,1-.55,1.66,7,7,0,0,1-2,1.66,8.29,8.29,0,0,0-1.66,1.23,2,2,0,0,0-.56,1h4.81v.72h-5.7a3,3,0,0,1,.56-1.74,6.61,6.61,0,0,1,1.93-1.66A8.78,8.78,0,0,0,30,142.32a2.11,2.11,0,0,0,.51-1.41,1.64,1.64,0,0,0-.54-1.28,2,2,0,0,0-1.4-.49,2,2,0,0,0-.86.17,1.82,1.82,0,0,0-.61.44,1.77,1.77,0,0,0-.36.62,2.2,2.2,0,0,0-.12.71v.17h-.77v-.12a2.93,2.93,0,0,1,.17-1,2.42,2.42,0,0,1,.51-.84,2.47,2.47,0,0,1,.86-.59A3.06,3.06,0,0,1,28.63,138.49Z"/><path class="cls-2" d="M35.89,138.49a2.87,2.87,0,0,1,1.32.29,2.48,2.48,0,0,1,.94.85,4.14,4.14,0,0,1,.57,1.39,8.64,8.64,0,0,1,.19,1.92,5.94,5.94,0,0,1-.77,3.35,2.82,2.82,0,0,1-4.49,0,7.62,7.62,0,0,1,0-6.69A2.56,2.56,0,0,1,35.89,138.49Zm-2.23,4.45q0,3.81,2.23,3.81t2.24-3.81a5.64,5.64,0,0,0-.57-2.84,1.84,1.84,0,0,0-1.68-1,1.82,1.82,0,0,0-1.65.94A5.63,5.63,0,0,0,33.66,142.93Z"/><path class="cls-2" d="M43.23,147.21v-6.43H40.94v-.56q.53,0,.9-.06a2.36,2.36,0,0,0,.57-.13,1.3,1.3,0,0,0,.64-.52,2.46,2.46,0,0,0,.31-1H44v8.65Z"/><path class="cls-2" d="M52.86,138.66v.72H49.08l-.54,2.78,0,0a2.32,2.32,0,0,1,.82-.52,2.79,2.79,0,0,1,1-.18,3.18,3.18,0,0,1,1.2.22,2.6,2.6,0,0,1,.92.61,2.73,2.73,0,0,1,.59.94,3.43,3.43,0,0,1,.21,1.22,2.81,2.81,0,0,1-.23,1.14,2.94,2.94,0,0,1-1.61,1.56,3.12,3.12,0,0,1-1.2.23,3.29,3.29,0,0,1-1.1-.17,2.59,2.59,0,0,1-.85-.48,2.26,2.26,0,0,1-.56-.74,2.52,2.52,0,0,1-.23-1h.79a1.84,1.84,0,0,0,.16.64,1.65,1.65,0,0,0,.4.54,2,2,0,0,0,.62.37,2.29,2.29,0,0,0,.83.14,2.06,2.06,0,0,0,.87-.18,2.14,2.14,0,0,0,.7-.5,2.4,2.4,0,0,0,.46-.75,2.49,2.49,0,0,0,.17-.92,2.41,2.41,0,0,0-.16-.86,2.12,2.12,0,0,0-1.14-1.2,2.2,2.2,0,0,0-.91-.18,2.55,2.55,0,0,0-1.07.23,2.22,2.22,0,0,0-.85.68h-.66l.81-4.38Z"/><path class="cls-2" d="M57.78,143.37v.7h-3v-.7Z"/><path class="cls-2" d="M62.13,138.49a2.87,2.87,0,0,1,1.32.29,2.48,2.48,0,0,1,.94.85A4.14,4.14,0,0,1,65,141a8.64,8.64,0,0,1,.19,1.92,5.94,5.94,0,0,1-.77,3.35,2.82,2.82,0,0,1-4.49,0,7.62,7.62,0,0,1,0-6.69A2.56,2.56,0,0,1,62.13,138.49Zm-2.23,4.45q0,3.81,2.23,3.81t2.24-3.81a5.64,5.64,0,0,0-.57-2.84,1.84,1.84,0,0,0-1.68-1,1.82,1.82,0,0,0-1.65.94A5.63,5.63,0,0,0,59.9,142.93Z"/><path class="cls-2" d="M72.4,144.79a2.36,2.36,0,0,1-.83,1.91,3.22,3.22,0,0,1-2.16.7,3.18,3.18,0,0,1-2.16-.71,2.52,2.52,0,0,1-.7-2.64,2.28,2.28,0,0,1,.35-.67,2.18,2.18,0,0,1,1.28-.81v0a2.05,2.05,0,0,1-1.06-.72,2,2,0,0,1-.35-1.18,1.9,1.9,0,0,1,.76-1.57,2.91,2.91,0,0,1,1.86-.59,3,3,0,0,1,1.88.59,1.88,1.88,0,0,1,.76,1.57,2.2,2.2,0,0,1-.09.65,1.81,1.81,0,0,1-.72,1,2.1,2.1,0,0,1-.6.28v0a2.18,2.18,0,0,1,1.32.76A2.29,2.29,0,0,1,72.4,144.79Zm-.78,0a1.75,1.75,0,0,0-.59-1.35,2.78,2.78,0,0,0-3.24,0,1.76,1.76,0,0,0-.57,1.37,1.79,1.79,0,0,0,.6,1.42,2.7,2.7,0,0,0,3.2,0A1.79,1.79,0,0,0,71.62,144.79Zm-.36-4.14a1.35,1.35,0,0,0-.5-1.1,2.37,2.37,0,0,0-2.67,0,1.3,1.3,0,0,0-.53,1.09,1.48,1.48,0,0,0,.49,1.18,2,2,0,0,0,1.32.43,2,2,0,0,0,1.41-.45A1.52,1.52,0,0,0,71.25,140.65Z"/><path class="cls-2" d="M76.76,143.37v.7h-3v-.7Z"/><path class="cls-2" d="M81.11,138.49a2.81,2.81,0,0,1,2,.66,2.28,2.28,0,0,1,.73,1.78,2.82,2.82,0,0,1-.55,1.66,7,7,0,0,1-2,1.66,8.29,8.29,0,0,0-1.66,1.23,2,2,0,0,0-.56,1h4.81v.72h-5.7a3,3,0,0,1,.56-1.74,6.61,6.61,0,0,1,1.93-1.66,8.78,8.78,0,0,0,1.89-1.48,2.11,2.11,0,0,0,.51-1.41,1.64,1.64,0,0,0-.54-1.28,2,2,0,0,0-1.4-.49,2,2,0,0,0-.86.17,1.82,1.82,0,0,0-.61.44,1.77,1.77,0,0,0-.36.62,2.2,2.2,0,0,0-.12.71v.17h-.77v-.12a2.93,2.93,0,0,1,.17-1,2.42,2.42,0,0,1,.51-.84,2.47,2.47,0,0,1,.86-.59A3.06,3.06,0,0,1,81.11,138.49Z"/><path class="cls-2" d="M90,145.06v2.15h-.71v-2.15h-4v-.75l4-5.75H90v5.85h1.3v.66Zm-.71-5.36h0L86,144.4h3.29Z"/><path class="cls-2" d="M28.63,175.49a2.81,2.81,0,0,1,2,.66,2.28,2.28,0,0,1,.73,1.78,2.82,2.82,0,0,1-.55,1.66,7,7,0,0,1-2,1.66,8.29,8.29,0,0,0-1.66,1.23,2,2,0,0,0-.56,1h4.81v.72h-5.7a3,3,0,0,1,.56-1.74,6.61,6.61,0,0,1,1.93-1.66A8.78,8.78,0,0,0,30,179.32a2.11,2.11,0,0,0,.51-1.41,1.64,1.64,0,0,0-.54-1.28,2,2,0,0,0-1.4-.49,2,2,0,0,0-.86.17,1.82,1.82,0,0,0-.61.44,1.77,1.77,0,0,0-.36.62,2.2,2.2,0,0,0-.12.71v.17h-.77v-.12a2.93,2.93,0,0,1,.17-1,2.42,2.42,0,0,1,.51-.84,2.47,2.47,0,0,1,.86-.59A3.06,3.06,0,0,1,28.63,175.49Z"/><path class="cls-2" d="M35.89,175.49a2.87,2.87,0,0,1,1.32.29,2.48,2.48,0,0,1,.94.85,4.14,4.14,0,0,1,.57,1.39,8.64,8.64,0,0,1,.19,1.92,5.94,5.94,0,0,1-.77,3.35,2.82,2.82,0,0,1-4.49,0,7.62,7.62,0,0,1,0-6.69A2.56,2.56,0,0,1,35.89,175.49Zm-2.23,4.45q0,3.81,2.23,3.81t2.24-3.81a5.64,5.64,0,0,0-.57-2.84,1.84,1.84,0,0,0-1.68-1,1.82,1.82,0,0,0-1.65.94A5.63,5.63,0,0,0,33.66,179.93Z"/><path class="cls-2" d="M43.23,184.21v-6.43H40.94v-.56q.53,0,.9-.06a2.36,2.36,0,0,0,.57-.13,1.3,1.3,0,0,0,.64-.52,2.46,2.46,0,0,0,.31-1H44v8.65Z"/><path class="cls-2" d="M52.86,175.66v.72H49.08l-.54,2.78,0,0a2.32,2.32,0,0,1,.82-.52,2.79,2.79,0,0,1,1-.18,3.18,3.18,0,0,1,1.2.22,2.6,2.6,0,0,1,.92.61,2.73,2.73,0,0,1,.59.94,3.43,3.43,0,0,1,.21,1.22,2.81,2.81,0,0,1-.23,1.14,2.94,2.94,0,0,1-1.61,1.56,3.12,3.12,0,0,1-1.2.23,3.29,3.29,0,0,1-1.1-.17,2.59,2.59,0,0,1-.85-.48,2.26,2.26,0,0,1-.56-.74,2.52,2.52,0,0,1-.23-1h.79a1.84,1.84,0,0,0,.16.64,1.65,1.65,0,0,0,.4.54,2,2,0,0,0,.62.37,2.29,2.29,0,0,0,.83.14,2.06,2.06,0,0,0,.87-.18,2.14,2.14,0,0,0,.7-.5,2.4,2.4,0,0,0,.46-.75,2.49,2.49,0,0,0,.17-.92,2.41,2.41,0,0,0-.16-.86,2.12,2.12,0,0,0-1.14-1.2,2.2,2.2,0,0,0-.91-.18,2.55,2.55,0,0,0-1.07.23,2.22,2.22,0,0,0-.85.68h-.66l.81-4.38Z"/><path class="cls-2" d="M57.78,180.37v.7h-3v-.7Z"/><path class="cls-2" d="M62.13,175.49a2.87,2.87,0,0,1,1.32.29,2.48,2.48,0,0,1,.94.85A4.14,4.14,0,0,1,65,178a8.64,8.64,0,0,1,.19,1.92,5.94,5.94,0,0,1-.77,3.35,2.82,2.82,0,0,1-4.49,0,7.62,7.62,0,0,1,0-6.69A2.56,2.56,0,0,1,62.13,175.49Zm-2.23,4.45q0,3.81,2.23,3.81t2.24-3.81a5.64,5.64,0,0,0-.57-2.84,1.84,1.84,0,0,0-1.68-1,1.82,1.82,0,0,0-1.65.94A5.63,5.63,0,0,0,59.9,179.93Z"/><path class="cls-2" d="M72.4,181.79a2.36,2.36,0,0,1-.83,1.91,3.22,3.22,0,0,1-2.16.7,3.18,3.18,0,0,1-2.16-.71,2.52,2.52,0,0,1-.7-2.64,2.28,2.28,0,0,1,.35-.67,2.18,2.18,0,0,1,1.28-.81v0a2.05,2.05,0,0,1-1.06-.72,2,2,0,0,1-.35-1.18,1.9,1.9,0,0,1,.76-1.57,2.91,2.91,0,0,1,1.86-.59,3,3,0,0,1,1.88.59,1.88,1.88,0,0,1,.76,1.57,2.2,2.2,0,0,1-.09.65,1.81,1.81,0,0,1-.72,1,2.1,2.1,0,0,1-.6.28v0a2.18,2.18,0,0,1,1.32.76A2.29,2.29,0,0,1,72.4,181.79Zm-.78,0a1.75,1.75,0,0,0-.59-1.35,2.78,2.78,0,0,0-3.24,0,1.76,1.76,0,0,0-.57,1.37,1.79,1.79,0,0,0,.6,1.42,2.7,2.7,0,0,0,3.2,0A1.79,1.79,0,0,0,71.62,181.79Zm-.36-4.14a1.35,1.35,0,0,0-.5-1.1,2.37,2.37,0,0,0-2.67,0,1.3,1.3,0,0,0-.53,1.09,1.48,1.48,0,0,0,.49,1.18,2,2,0,0,0,1.32.43,2,2,0,0,0,1.41-.45A1.52,1.52,0,0,0,71.25,177.65Z"/><path class="cls-2" d="M76.76,180.37v.7h-3v-.7Z"/><path class="cls-2" d="M81.11,175.49a2.81,2.81,0,0,1,2,.66,2.28,2.28,0,0,1,.73,1.78,2.82,2.82,0,0,1-.55,1.66,7,7,0,0,1-2,1.66,8.29,8.29,0,0,0-1.66,1.23,2,2,0,0,0-.56,1h4.81v.72h-5.7a3,3,0,0,1,.56-1.74,6.61,6.61,0,0,1,1.93-1.66,8.78,8.78,0,0,0,1.89-1.48,2.11,2.11,0,0,0,.51-1.41,1.64,1.64,0,0,0-.54-1.28,2,2,0,0,0-1.4-.49,2,2,0,0,0-.86.17,1.82,1.82,0,0,0-.61.44,1.77,1.77,0,0,0-.36.62,2.2,2.2,0,0,0-.12.71v.17h-.77v-.12a2.93,2.93,0,0,1,.17-1,2.42,2.42,0,0,1,.51-.84,2.47,2.47,0,0,1,.86-.59A3.06,3.06,0,0,1,81.11,175.49Z"/><path class="cls-2" d="M90,182.06v2.15h-.71v-2.15h-4v-.75l4-5.75H90v5.85h1.3v.66Zm-.71-5.36h0L86,181.4h3.29Z"/><path class="cls-2" d="M189.63,64.49a2.87,2.87,0,0,1,1.32.29,2.48,2.48,0,0,1,.94.85,4.14,4.14,0,0,1,.57,1.39,8.64,8.64,0,0,1,.19,1.92,5.94,5.94,0,0,1-.77,3.35,2.82,2.82,0,0,1-4.49,0,5.89,5.89,0,0,1-.77-3.34,5.89,5.89,0,0,1,.77-3.35A2.56,2.56,0,0,1,189.63,64.49Zm-2.23,4.45q0,3.81,2.23,3.81t2.24-3.81a5.64,5.64,0,0,0-.57-2.84,1.84,1.84,0,0,0-1.68-1,1.82,1.82,0,0,0-1.65.94A5.63,5.63,0,0,0,187.39,68.93Z"/><path class="cls-2" d="M199.89,70.79a2.36,2.36,0,0,1-.83,1.91,3.22,3.22,0,0,1-2.16.7,3.18,3.18,0,0,1-2.16-.71,2.52,2.52,0,0,1-.7-2.64,2.28,2.28,0,0,1,.35-.67,2.18,2.18,0,0,1,1.28-.81v0a2.05,2.05,0,0,1-1.06-.72,2,2,0,0,1-.35-1.18,1.9,1.9,0,0,1,.76-1.57,2.91,2.91,0,0,1,1.86-.59,3,3,0,0,1,1.88.59,1.88,1.88,0,0,1,.76,1.57,2.2,2.2,0,0,1-.09.65,1.81,1.81,0,0,1-.72,1,2.1,2.1,0,0,1-.6.28v0a2.18,2.18,0,0,1,1.32.76A2.29,2.29,0,0,1,199.89,70.79Zm-.78,0a1.75,1.75,0,0,0-.59-1.35,2.78,2.78,0,0,0-3.24,0,1.76,1.76,0,0,0-.57,1.37,1.79,1.79,0,0,0,.6,1.42,2.7,2.7,0,0,0,3.2,0A1.79,1.79,0,0,0,199.11,70.79Zm-.36-4.14a1.35,1.35,0,0,0-.5-1.1,2.37,2.37,0,0,0-2.67,0,1.3,1.3,0,0,0-.53,1.09,1.48,1.48,0,0,0,.49,1.18,2,2,0,0,0,1.32.43,2,2,0,0,0,1.41-.45A1.52,1.52,0,0,0,198.75,66.65Z"/><path class="cls-2" d="M202.93,66.89v1.27h-1.11V66.89Zm0,5v1.27h-1.11V71.94Z"/><path class="cls-2" d="M209.51,71.06v2.15h-.71V71.06h-4v-.75l4-5.75h.7V70.4h1.3v.66Zm-.71-5.36h0l-3.27,4.71h3.29Z"/><path class="cls-2" d="M215.11,64.49a2.87,2.87,0,0,1,1.32.29,2.48,2.48,0,0,1,.94.85,4.14,4.14,0,0,1,.57,1.39,8.64,8.64,0,0,1,.19,1.92,5.94,5.94,0,0,1-.77,3.35,2.82,2.82,0,0,1-4.49,0,5.89,5.89,0,0,1-.77-3.34,5.89,5.89,0,0,1,.77-3.35A2.56,2.56,0,0,1,215.11,64.49Zm-2.23,4.45q0,3.81,2.23,3.81t2.24-3.81a5.64,5.64,0,0,0-.57-2.84,1.84,1.84,0,0,0-1.68-1,1.82,1.82,0,0,0-1.65.94A5.63,5.63,0,0,0,212.88,68.93Z"/><path class="cls-2" d="M221.15,66.89v1.27H220V66.89Zm0,5v1.27H220V71.94Z"/><path class="cls-2" d="M227.73,71.06v2.15H227V71.06h-4v-.75l4-5.75h.7V70.4H229v.66ZM227,65.7h0l-3.27,4.71H227Z"/><path class="cls-2" d="M233.26,64.49a3.57,3.57,0,0,1,1,.13,2.67,2.67,0,0,1,.85.41,2.08,2.08,0,0,1,.6.69,2,2,0,0,1,.23,1,2.22,2.22,0,0,1-.1.66,1.82,1.82,0,0,1-.28.56,1.77,1.77,0,0,1-.45.42,2.14,2.14,0,0,1-.62.27v0a2.06,2.06,0,0,1,1.33.74,2.21,2.21,0,0,1,.45,1.39,2.41,2.41,0,0,1-.84,1.91,2.78,2.78,0,0,1-1,.55,3.78,3.78,0,0,1-1.21.18,3.66,3.66,0,0,1-1.12-.17,2.8,2.8,0,0,1-.92-.49,2.34,2.34,0,0,1-.63-.78,2.28,2.28,0,0,1-.23-1v-.18h.79v.16a1.74,1.74,0,0,0,.56,1.28,2,2,0,0,0,.66.4,2.45,2.45,0,0,0,.88.15,2.7,2.7,0,0,0,.91-.13,2.21,2.21,0,0,0,.69-.4,1.7,1.7,0,0,0,.64-1.38,1.89,1.89,0,0,0-.14-.75,1.64,1.64,0,0,0-.42-.58,2.22,2.22,0,0,0-1.53-.5h-.64v-.66h.69a1.86,1.86,0,0,0,1.21-.42,1.42,1.42,0,0,0,.52-1.15,1.59,1.59,0,0,0-.15-.71,1.48,1.48,0,0,0-.4-.51,1.73,1.73,0,0,0-.6-.31,2.56,2.56,0,0,0-.73-.1,2.1,2.1,0,0,0-.81.15,1.8,1.8,0,0,0-.61.41,1.82,1.82,0,0,0-.39.6,2,2,0,0,0-.13.73h-.78a2.44,2.44,0,0,1,.18-.92,2.53,2.53,0,0,1,.53-.82,2.7,2.7,0,0,1,.86-.59A2.82,2.82,0,0,1,233.26,64.49Z"/><path class="cls-2" d="M239.37,71.94v1.27h-1.11V71.94Z"/><path class="cls-2" d="M244.53,64.49a3.17,3.17,0,0,1,.94.13,2.34,2.34,0,0,1,.75.38,2.14,2.14,0,0,1,.54.62,2.49,2.49,0,0,1,.3.83h-.78a1.7,1.7,0,0,0-.19-.51,1.45,1.45,0,0,0-.35-.42,1.67,1.67,0,0,0-.52-.28,2.16,2.16,0,0,0-.69-.1,2,2,0,0,0-1,.25,2.1,2.1,0,0,0-.75.75,3.82,3.82,0,0,0-.45,1.21,8,8,0,0,0-.15,1.65h0a2.58,2.58,0,0,1,2.31-1.44,2.74,2.74,0,0,1,2.05.81,2.83,2.83,0,0,1,.8,2.08,2.84,2.84,0,0,1-2.94,2.94A3.09,3.09,0,0,1,243,73.1a2.31,2.31,0,0,1-.93-.84,4.2,4.2,0,0,1-.52-1.39,10.4,10.4,0,0,1-.17-2.05,8.43,8.43,0,0,1,.07-1.06,5.56,5.56,0,0,1,.22-1,4.46,4.46,0,0,1,.4-.89,2.83,2.83,0,0,1,.6-.72,2.66,2.66,0,0,1,.82-.48A3.07,3.07,0,0,1,244.53,64.49Zm-2.23,6a2.25,2.25,0,0,0,.57,1.63,2.11,2.11,0,0,0,1.59.59,1.91,1.91,0,0,0,1.49-.66,2.26,2.26,0,0,0,.59-1.56,2.4,2.4,0,0,0-.57-1.64,1.93,1.93,0,0,0-1.52-.65,2,2,0,0,0-1.54.63A2.3,2.3,0,0,0,242.3,70.52Z"/><path class="cls-2" d="M251.55,64.49a2.81,2.81,0,0,1,2,.66,2.28,2.28,0,0,1,.73,1.78,2.82,2.82,0,0,1-.55,1.66,7,7,0,0,1-2,1.66A8.29,8.29,0,0,0,250,71.47a2,2,0,0,0-.56,1h4.81v.72h-5.7a3,3,0,0,1,.56-1.74,6.61,6.61,0,0,1,1.93-1.66,8.78,8.78,0,0,0,1.89-1.48,2.11,2.11,0,0,0,.51-1.41,1.64,1.64,0,0,0-.54-1.28,2,2,0,0,0-1.4-.49,2,2,0,0,0-.86.17,1.82,1.82,0,0,0-.61.44,1.77,1.77,0,0,0-.36.62,2.2,2.2,0,0,0-.12.71v.17h-.77v-.12a2.93,2.93,0,0,1,.17-1,2.42,2.42,0,0,1,.51-.84,2.47,2.47,0,0,1,.86-.59A3.06,3.06,0,0,1,251.55,64.49Z"/><path class="cls-2" d="M258.74,64.49a3.57,3.57,0,0,1,1,.13,2.67,2.67,0,0,1,.85.41,2.08,2.08,0,0,1,.6.69,2,2,0,0,1,.23,1,2.22,2.22,0,0,1-.1.66,1.82,1.82,0,0,1-.28.56,1.77,1.77,0,0,1-.45.42,2.14,2.14,0,0,1-.62.27v0a2.06,2.06,0,0,1,1.33.74,2.21,2.21,0,0,1,.45,1.39,2.41,2.41,0,0,1-.84,1.91,2.78,2.78,0,0,1-1,.55,3.78,3.78,0,0,1-1.21.18,3.66,3.66,0,0,1-1.12-.17,2.8,2.8,0,0,1-.92-.49,2.34,2.34,0,0,1-.63-.78,2.28,2.28,0,0,1-.23-1v-.18h.79v.16a1.74,1.74,0,0,0,.56,1.28,2,2,0,0,0,.66.4,2.45,2.45,0,0,0,.88.15,2.7,2.7,0,0,0,.91-.13,2.21,2.21,0,0,0,.69-.4,1.7,1.7,0,0,0,.64-1.38,1.89,1.89,0,0,0-.14-.75,1.64,1.64,0,0,0-.42-.58,2.22,2.22,0,0,0-1.53-.5h-.64v-.66h.69a1.86,1.86,0,0,0,1.21-.42,1.42,1.42,0,0,0,.52-1.15,1.59,1.59,0,0,0-.15-.71,1.48,1.48,0,0,0-.4-.51,1.73,1.73,0,0,0-.6-.31,2.56,2.56,0,0,0-.73-.1,2.1,2.1,0,0,0-.81.15,1.8,1.8,0,0,0-.61.41,1.82,1.82,0,0,0-.39.6,2,2,0,0,0-.13.73H256a2.44,2.44,0,0,1,.18-.92,2.53,2.53,0,0,1,.53-.82,2.7,2.7,0,0,1,.86-.59A2.82,2.82,0,0,1,258.74,64.49Z"/><path class="cls-2" d="M189.63,101.49a2.87,2.87,0,0,1,1.32.29,2.48,2.48,0,0,1,.94.85,4.14,4.14,0,0,1,.57,1.39,8.64,8.64,0,0,1,.19,1.92,5.94,5.94,0,0,1-.77,3.35,2.82,2.82,0,0,1-4.49,0,7.62,7.62,0,0,1,0-6.69A2.56,2.56,0,0,1,189.63,101.49Zm-2.23,4.45q0,3.81,2.23,3.81t2.24-3.81a5.64,5.64,0,0,0-.57-2.84,1.84,1.84,0,0,0-1.68-1,1.82,1.82,0,0,0-1.65.94A5.63,5.63,0,0,0,187.39,105.93Z"/><path class="cls-2" d="M199.67,101.66v.71a13.7,13.7,0,0,0-1.42,1.75,13.19,13.19,0,0,0-1.08,1.91,11.5,11.5,0,0,0-.7,2,12.2,12.2,0,0,0-.31,2.14h-.84a12.81,12.81,0,0,1,.32-2.12,10.53,10.53,0,0,1,.67-1.93,15.67,15.67,0,0,1,2.58-3.79H194.1v-.71Z"/><path class="cls-2" d="M202.93,103.89v1.27h-1.11v-1.27Zm0,5v1.27h-1.11v-1.27Z"/><path class="cls-2" d="M207.78,101.49a3.57,3.57,0,0,1,1,.13,2.67,2.67,0,0,1,.85.41,2.08,2.08,0,0,1,.6.69,2,2,0,0,1,.23,1,2.22,2.22,0,0,1-.1.66,1.82,1.82,0,0,1-.28.56,1.77,1.77,0,0,1-.45.42,2.14,2.14,0,0,1-.62.27v0a2.06,2.06,0,0,1,1.33.74,2.21,2.21,0,0,1,.45,1.39,2.41,2.41,0,0,1-.84,1.91,2.78,2.78,0,0,1-1,.55,3.78,3.78,0,0,1-1.21.18,3.66,3.66,0,0,1-1.12-.17,2.8,2.8,0,0,1-.92-.49,2.34,2.34,0,0,1-.63-.78,2.28,2.28,0,0,1-.23-1v-.18h.79v.16a1.74,1.74,0,0,0,.56,1.28,2,2,0,0,0,.66.4,2.45,2.45,0,0,0,.88.15,2.7,2.7,0,0,0,.91-.13,2.21,2.21,0,0,0,.69-.4,1.7,1.7,0,0,0,.64-1.38,1.89,1.89,0,0,0-.14-.75,1.64,1.64,0,0,0-.42-.58,2.22,2.22,0,0,0-1.53-.5h-.64v-.66h.69a1.86,1.86,0,0,0,1.21-.42,1.42,1.42,0,0,0,.52-1.15,1.59,1.59,0,0,0-.15-.71,1.48,1.48,0,0,0-.4-.51,1.73,1.73,0,0,0-.6-.31,2.56,2.56,0,0,0-.73-.1,2.1,2.1,0,0,0-.81.15,1.8,1.8,0,0,0-.61.41,1.82,1.82,0,0,0-.39.6,2,2,0,0,0-.13.73H205a2.44,2.44,0,0,1,.18-.92,2.53,2.53,0,0,1,.53-.82,2.7,2.7,0,0,1,.86-.59A2.82,2.82,0,0,1,207.78,101.49Z"/><path class="cls-2" d="M214.9,110.4a3.17,3.17,0,0,1-.94-.13,2.34,2.34,0,0,1-.75-.38,2.14,2.14,0,0,1-.54-.62,2.49,2.49,0,0,1-.3-.83h.78a1.7,1.7,0,0,0,.19.51,1.45,1.45,0,0,0,.35.42,1.67,1.67,0,0,0,.52.28,2.16,2.16,0,0,0,.69.1,2,2,0,0,0,1-.25,2.1,2.1,0,0,0,.75-.75,3.82,3.82,0,0,0,.45-1.21,8,8,0,0,0,.15-1.65h0a2.58,2.58,0,0,1-2.31,1.44,2.74,2.74,0,0,1-2.05-.81,2.83,2.83,0,0,1-.8-2.08,2.84,2.84,0,0,1,2.94-2.94,3.09,3.09,0,0,1,1.41.29,2.31,2.31,0,0,1,.93.84,4.2,4.2,0,0,1,.52,1.39,10.4,10.4,0,0,1,.17,2.05,8.43,8.43,0,0,1-.07,1.06,5.56,5.56,0,0,1-.22,1,4.46,4.46,0,0,1-.4.89,2.83,2.83,0,0,1-.6.72,2.66,2.66,0,0,1-.82.48A3.07,3.07,0,0,1,214.9,110.4Zm2.23-6a2.25,2.25,0,0,0-.57-1.63,2.11,2.11,0,0,0-1.59-.59,1.91,1.91,0,0,0-1.49.66,2.26,2.26,0,0,0-.59,1.56,2.4,2.4,0,0,0,.57,1.64,1.92,1.92,0,0,0,1.52.65,2,2,0,0,0,1.54-.63A2.29,2.29,0,0,0,217.13,104.36Z"/><path class="cls-2" d="M221.15,103.89v1.27H220v-1.27Zm0,5v1.27H220v-1.27Z"/><path class="cls-2" d="M227.73,108.06v2.15H227v-2.15h-4v-.75l4-5.75h.7v5.85H229v.66ZM227,102.7h0l-3.27,4.71H227Z"/><path class="cls-2" d="M233.26,101.49a3.57,3.57,0,0,1,1,.13,2.67,2.67,0,0,1,.85.41,2.08,2.08,0,0,1,.6.69,2,2,0,0,1,.23,1,2.22,2.22,0,0,1-.1.66,1.82,1.82,0,0,1-.28.56,1.77,1.77,0,0,1-.45.42,2.14,2.14,0,0,1-.62.27v0a2.06,2.06,0,0,1,1.33.74,2.21,2.21,0,0,1,.45,1.39,2.41,2.41,0,0,1-.84,1.91,2.78,2.78,0,0,1-1,.55,3.78,3.78,0,0,1-1.21.18,3.66,3.66,0,0,1-1.12-.17,2.8,2.8,0,0,1-.92-.49,2.34,2.34,0,0,1-.63-.78,2.28,2.28,0,0,1-.23-1v-.18h.79v.16a1.74,1.74,0,0,0,.56,1.28,2,2,0,0,0,.66.4,2.45,2.45,0,0,0,.88.15,2.7,2.7,0,0,0,.91-.13,2.21,2.21,0,0,0,.69-.4,1.7,1.7,0,0,0,.64-1.38,1.89,1.89,0,0,0-.14-.75,1.64,1.64,0,0,0-.42-.58,2.22,2.22,0,0,0-1.53-.5h-.64v-.66h.69a1.86,1.86,0,0,0,1.21-.42,1.42,1.42,0,0,0,.52-1.15,1.59,1.59,0,0,0-.15-.71,1.48,1.48,0,0,0-.4-.51,1.73,1.73,0,0,0-.6-.31,2.56,2.56,0,0,0-.73-.1,2.1,2.1,0,0,0-.81.15,1.8,1.8,0,0,0-.61.41,1.82,1.82,0,0,0-.39.6,2,2,0,0,0-.13.73h-.78a2.44,2.44,0,0,1,.18-.92,2.53,2.53,0,0,1,.53-.82,2.7,2.7,0,0,1,.86-.59A2.82,2.82,0,0,1,233.26,101.49Z"/><path class="cls-2" d="M239.37,108.94v1.27h-1.11v-1.27Z"/><path class="cls-2" d="M244.53,101.49a3.17,3.17,0,0,1,.94.13,2.34,2.34,0,0,1,.75.38,2.14,2.14,0,0,1,.54.62,2.49,2.49,0,0,1,.3.83h-.78a1.7,1.7,0,0,0-.19-.51,1.45,1.45,0,0,0-.35-.42,1.67,1.67,0,0,0-.52-.28,2.16,2.16,0,0,0-.69-.1,2,2,0,0,0-1,.25,2.1,2.1,0,0,0-.75.75,3.82,3.82,0,0,0-.45,1.21,8,8,0,0,0-.15,1.65h0a2.58,2.58,0,0,1,2.31-1.44,2.74,2.74,0,0,1,2.05.81,2.83,2.83,0,0,1,.8,2.08,2.84,2.84,0,0,1-2.94,2.94,3.09,3.09,0,0,1-1.41-.29,2.31,2.31,0,0,1-.93-.84,4.2,4.2,0,0,1-.52-1.39,10.4,10.4,0,0,1-.17-2.05,8.43,8.43,0,0,1,.07-1.06,5.56,5.56,0,0,1,.22-1,4.46,4.46,0,0,1,.4-.89,2.83,2.83,0,0,1,.6-.72,2.66,2.66,0,0,1,.82-.48A3.07,3.07,0,0,1,244.53,101.49Zm-2.23,6a2.25,2.25,0,0,0,.57,1.63,2.11,2.11,0,0,0,1.59.59,1.91,1.91,0,0,0,1.49-.66,2.26,2.26,0,0,0,.59-1.56,2.4,2.4,0,0,0-.57-1.64,1.93,1.93,0,0,0-1.52-.65,2,2,0,0,0-1.54.63A2.3,2.3,0,0,0,242.3,107.52Z"/><path class="cls-2" d="M251.61,110.21v-6.43h-2.29v-.56q.53,0,.9-.06a2.36,2.36,0,0,0,.57-.13,1.3,1.3,0,0,0,.64-.52,2.46,2.46,0,0,0,.31-1h.63v8.65Z"/><path class="cls-2" d="M261.59,101.66v.71a13.7,13.7,0,0,0-1.42,1.75A13.19,13.19,0,0,0,259.1,106a11.5,11.5,0,0,0-.7,2,12.2,12.2,0,0,0-.31,2.14h-.84a12.81,12.81,0,0,1,.32-2.12,10.53,10.53,0,0,1,.67-1.93,15.67,15.67,0,0,1,2.58-3.79H256v-.71Z"/><path class="cls-2" d="M189.63,138.49a2.87,2.87,0,0,1,1.32.29,2.48,2.48,0,0,1,.94.85,4.14,4.14,0,0,1,.57,1.39,8.64,8.64,0,0,1,.19,1.92,5.94,5.94,0,0,1-.77,3.35,2.82,2.82,0,0,1-4.49,0,7.62,7.62,0,0,1,0-6.69A2.56,2.56,0,0,1,189.63,138.49Zm-2.23,4.45q0,3.81,2.23,3.81t2.24-3.81a5.64,5.64,0,0,0-.57-2.84,1.84,1.84,0,0,0-1.68-1,1.82,1.82,0,0,0-1.65.94A5.63,5.63,0,0,0,187.39,142.93Z"/><path class="cls-2" d="M199.67,138.66v.71a13.7,13.7,0,0,0-1.42,1.75,13.19,13.19,0,0,0-1.08,1.91,11.5,11.5,0,0,0-.7,2,12.2,12.2,0,0,0-.31,2.14h-.84a12.81,12.81,0,0,1,.32-2.12,10.53,10.53,0,0,1,.67-1.93,15.67,15.67,0,0,1,2.58-3.79H194.1v-.71Z"/><path class="cls-2" d="M202.93,140.89v1.27h-1.11v-1.27Zm0,5v1.27h-1.11v-1.27Z"/><path class="cls-2" d="M207.78,138.49a3.57,3.57,0,0,1,1,.13,2.67,2.67,0,0,1,.85.41,2.08,2.08,0,0,1,.6.69,2,2,0,0,1,.23,1,2.22,2.22,0,0,1-.1.66,1.82,1.82,0,0,1-.28.56,1.77,1.77,0,0,1-.45.42,2.14,2.14,0,0,1-.62.27v0a2.06,2.06,0,0,1,1.33.74,2.21,2.21,0,0,1,.45,1.39,2.41,2.41,0,0,1-.84,1.91,2.78,2.78,0,0,1-1,.55,3.78,3.78,0,0,1-1.21.18,3.66,3.66,0,0,1-1.12-.17,2.8,2.8,0,0,1-.92-.49,2.34,2.34,0,0,1-.63-.78,2.28,2.28,0,0,1-.23-1v-.18h.79v.16a1.74,1.74,0,0,0,.56,1.28,2,2,0,0,0,.66.4,2.45,2.45,0,0,0,.88.15,2.7,2.7,0,0,0,.91-.13,2.21,2.21,0,0,0,.69-.4,1.7,1.7,0,0,0,.64-1.38,1.89,1.89,0,0,0-.14-.75,1.64,1.64,0,0,0-.42-.58,2.22,2.22,0,0,0-1.53-.5h-.64v-.66h.69a1.86,1.86,0,0,0,1.21-.42,1.42,1.42,0,0,0,.52-1.15,1.59,1.59,0,0,0-.15-.71,1.48,1.48,0,0,0-.4-.51,1.73,1.73,0,0,0-.6-.31,2.56,2.56,0,0,0-.73-.1,2.1,2.1,0,0,0-.81.15,1.8,1.8,0,0,0-.61.41,1.82,1.82,0,0,0-.39.6,2,2,0,0,0-.13.73H205a2.44,2.44,0,0,1,.18-.92,2.53,2.53,0,0,1,.53-.82,2.7,2.7,0,0,1,.86-.59A2.82,2.82,0,0,1,207.78,138.49Z"/><path class="cls-2" d="M218.11,144.79a2.36,2.36,0,0,1-.83,1.91,3.22,3.22,0,0,1-2.16.7,3.18,3.18,0,0,1-2.16-.71,2.52,2.52,0,0,1-.7-2.64,2.28,2.28,0,0,1,.35-.67,2.18,2.18,0,0,1,1.28-.81v0a2.05,2.05,0,0,1-1.06-.72,2,2,0,0,1-.35-1.18,1.9,1.9,0,0,1,.76-1.57,2.91,2.91,0,0,1,1.86-.59,3,3,0,0,1,1.88.59,1.88,1.88,0,0,1,.76,1.57,2.2,2.2,0,0,1-.09.65,1.81,1.81,0,0,1-.72,1,2.1,2.1,0,0,1-.6.28v0a2.18,2.18,0,0,1,1.32.76A2.29,2.29,0,0,1,218.11,144.79Zm-.78,0a1.75,1.75,0,0,0-.59-1.35,2.78,2.78,0,0,0-3.24,0,1.76,1.76,0,0,0-.57,1.37,1.79,1.79,0,0,0,.6,1.42,2.7,2.7,0,0,0,3.2,0A1.79,1.79,0,0,0,217.33,144.79Zm-.36-4.14a1.35,1.35,0,0,0-.5-1.1,2.37,2.37,0,0,0-2.67,0,1.3,1.3,0,0,0-.53,1.09,1.48,1.48,0,0,0,.49,1.18,2,2,0,0,0,1.32.43,2,2,0,0,0,1.41-.45A1.52,1.52,0,0,0,217,140.65Z"/><path class="cls-2" d="M221.15,140.89v1.27H220v-1.27Zm0,5v1.27H220v-1.27Z"/><path class="cls-2" d="M227.73,145.06v2.15H227v-2.15h-4v-.75l4-5.75h.7v5.85H229v.66ZM227,139.7h0l-3.27,4.71H227Z"/><path class="cls-2" d="M233.26,138.49a3.57,3.57,0,0,1,1,.13,2.67,2.67,0,0,1,.85.41,2.08,2.08,0,0,1,.6.69,2,2,0,0,1,.23,1,2.22,2.22,0,0,1-.1.66,1.82,1.82,0,0,1-.28.56,1.77,1.77,0,0,1-.45.42,2.14,2.14,0,0,1-.62.27v0a2.06,2.06,0,0,1,1.33.74,2.21,2.21,0,0,1,.45,1.39,2.41,2.41,0,0,1-.84,1.91,2.78,2.78,0,0,1-1,.55,3.78,3.78,0,0,1-1.21.18,3.66,3.66,0,0,1-1.12-.17,2.8,2.8,0,0,1-.92-.49,2.34,2.34,0,0,1-.63-.78,2.28,2.28,0,0,1-.23-1v-.18h.79v.16a1.74,1.74,0,0,0,.56,1.28,2,2,0,0,0,.66.4,2.45,2.45,0,0,0,.88.15,2.7,2.7,0,0,0,.91-.13,2.21,2.21,0,0,0,.69-.4,1.7,1.7,0,0,0,.64-1.38,1.89,1.89,0,0,0-.14-.75,1.64,1.64,0,0,0-.42-.58,2.22,2.22,0,0,0-1.53-.5h-.64v-.66h.69a1.86,1.86,0,0,0,1.21-.42,1.42,1.42,0,0,0,.52-1.15,1.59,1.59,0,0,0-.15-.71,1.48,1.48,0,0,0-.4-.51,1.73,1.73,0,0,0-.6-.31,2.56,2.56,0,0,0-.73-.1,2.1,2.1,0,0,0-.81.15,1.8,1.8,0,0,0-.61.41,1.82,1.82,0,0,0-.39.6,2,2,0,0,0-.13.73h-.78a2.44,2.44,0,0,1,.18-.92,2.53,2.53,0,0,1,.53-.82,2.7,2.7,0,0,1,.86-.59A2.82,2.82,0,0,1,233.26,138.49Z"/><path class="cls-2" d="M239.37,145.94v1.27h-1.11v-1.27Z"/><path class="cls-2" d="M246.71,138.66v.72h-3.78l-.54,2.78,0,0a2.32,2.32,0,0,1,.82-.52,2.79,2.79,0,0,1,1-.18,3.18,3.18,0,0,1,1.2.22,2.6,2.6,0,0,1,.92.61,2.73,2.73,0,0,1,.59.94,3.43,3.43,0,0,1,.21,1.22,2.81,2.81,0,0,1-.23,1.14,2.94,2.94,0,0,1-1.61,1.56,3.12,3.12,0,0,1-1.2.23,3.29,3.29,0,0,1-1.1-.17,2.59,2.59,0,0,1-.85-.48,2.26,2.26,0,0,1-.56-.74,2.52,2.52,0,0,1-.23-1h.79a1.84,1.84,0,0,0,.16.64,1.65,1.65,0,0,0,.4.54,2,2,0,0,0,.62.37,2.29,2.29,0,0,0,.83.14,2.06,2.06,0,0,0,.87-.18,2.14,2.14,0,0,0,.7-.5,2.4,2.4,0,0,0,.46-.75,2.49,2.49,0,0,0,.17-.92,2.41,2.41,0,0,0-.16-.86,2.12,2.12,0,0,0-1.14-1.2,2.2,2.2,0,0,0-.91-.18,2.55,2.55,0,0,0-1.07.23,2.22,2.22,0,0,0-.85.68h-.66l.81-4.38Z"/><path class="cls-2" d="M251.54,138.49a2.87,2.87,0,0,1,1.32.29,2.48,2.48,0,0,1,.94.85,4.14,4.14,0,0,1,.57,1.39,8.64,8.64,0,0,1,.19,1.92,5.94,5.94,0,0,1-.77,3.35,2.82,2.82,0,0,1-4.49,0,7.62,7.62,0,0,1,0-6.69A2.56,2.56,0,0,1,251.54,138.49Zm-2.23,4.45q0,3.81,2.23,3.81t2.24-3.81a5.64,5.64,0,0,0-.57-2.84,1.84,1.84,0,0,0-1.68-1,1.82,1.82,0,0,0-1.65.94A5.63,5.63,0,0,0,249.31,142.93Z"/><path class="cls-2" d="M258.74,138.49a3.57,3.57,0,0,1,1,.13,2.67,2.67,0,0,1,.85.41,2.08,2.08,0,0,1,.6.69,2,2,0,0,1,.23,1,2.22,2.22,0,0,1-.1.66,1.82,1.82,0,0,1-.28.56,1.77,1.77,0,0,1-.45.42,2.14,2.14,0,0,1-.62.27v0a2.06,2.06,0,0,1,1.33.74,2.21,2.21,0,0,1,.45,1.39,2.41,2.41,0,0,1-.84,1.91,2.78,2.78,0,0,1-1,.55,3.78,3.78,0,0,1-1.21.18,3.66,3.66,0,0,1-1.12-.17,2.8,2.8,0,0,1-.92-.49,2.34,2.34,0,0,1-.63-.78,2.28,2.28,0,0,1-.23-1v-.18h.79v.16a1.74,1.74,0,0,0,.56,1.28,2,2,0,0,0,.66.4,2.45,2.45,0,0,0,.88.15,2.7,2.7,0,0,0,.91-.13,2.21,2.21,0,0,0,.69-.4,1.7,1.7,0,0,0,.64-1.38,1.89,1.89,0,0,0-.14-.75,1.64,1.64,0,0,0-.42-.58,2.22,2.22,0,0,0-1.53-.5h-.64v-.66h.69a1.86,1.86,0,0,0,1.21-.42,1.42,1.42,0,0,0,.52-1.15,1.59,1.59,0,0,0-.15-.71,1.48,1.48,0,0,0-.4-.51,1.73,1.73,0,0,0-.6-.31,2.56,2.56,0,0,0-.73-.1,2.1,2.1,0,0,0-.81.15,1.8,1.8,0,0,0-.61.41,1.82,1.82,0,0,0-.39.6,2,2,0,0,0-.13.73H256a2.44,2.44,0,0,1,.18-.92,2.53,2.53,0,0,1,.53-.82,2.7,2.7,0,0,1,.86-.59A2.82,2.82,0,0,1,258.74,138.49Z"/><path class="cls-2" d="M189.63,175.49a2.87,2.87,0,0,1,1.32.29,2.48,2.48,0,0,1,.94.85,4.14,4.14,0,0,1,.57,1.39,8.64,8.64,0,0,1,.19,1.92,5.94,5.94,0,0,1-.77,3.35,2.82,2.82,0,0,1-4.49,0,7.62,7.62,0,0,1,0-6.69A2.56,2.56,0,0,1,189.63,175.49Zm-2.23,4.45q0,3.81,2.23,3.81t2.24-3.81a5.64,5.64,0,0,0-.57-2.84,1.84,1.84,0,0,0-1.68-1,1.82,1.82,0,0,0-1.65.94A5.63,5.63,0,0,0,187.39,179.93Z"/><path class="cls-2" d="M197.14,175.49a3.17,3.17,0,0,1,.94.13,2.34,2.34,0,0,1,.75.38,2.14,2.14,0,0,1,.54.62,2.49,2.49,0,0,1,.3.83h-.78a1.7,1.7,0,0,0-.19-.51,1.45,1.45,0,0,0-.35-.42,1.67,1.67,0,0,0-.52-.28,2.16,2.16,0,0,0-.69-.1,2,2,0,0,0-1,.25,2.1,2.1,0,0,0-.75.75,3.82,3.82,0,0,0-.45,1.21,8,8,0,0,0-.15,1.65h0a2.58,2.58,0,0,1,2.31-1.44,2.74,2.74,0,0,1,2.05.81,2.83,2.83,0,0,1,.8,2.08A2.84,2.84,0,0,1,197,184.4a3.09,3.09,0,0,1-1.41-.29,2.31,2.31,0,0,1-.93-.84,4.2,4.2,0,0,1-.52-1.39,10.4,10.4,0,0,1-.17-2.05,8.43,8.43,0,0,1,.07-1.06,5.56,5.56,0,0,1,.22-1,4.46,4.46,0,0,1,.4-.89,2.83,2.83,0,0,1,.6-.72,2.66,2.66,0,0,1,.82-.48A3.07,3.07,0,0,1,197.14,175.49Zm-2.23,6a2.25,2.25,0,0,0,.57,1.63,2.11,2.11,0,0,0,1.59.59,1.91,1.91,0,0,0,1.49-.66,2.26,2.26,0,0,0,.59-1.56,2.4,2.4,0,0,0-.57-1.64,1.93,1.93,0,0,0-1.52-.65,2,2,0,0,0-1.54.63A2.3,2.3,0,0,0,194.91,181.52Z"/><path class="cls-2" d="M202.93,177.89v1.27h-1.11v-1.27Zm0,5v1.27h-1.11v-1.27Z"/><path class="cls-2" d="M207.78,175.49a3.57,3.57,0,0,1,1,.13,2.67,2.67,0,0,1,.85.41,2.08,2.08,0,0,1,.6.69,2,2,0,0,1,.23,1,2.22,2.22,0,0,1-.1.66,1.82,1.82,0,0,1-.28.56,1.77,1.77,0,0,1-.45.42,2.14,2.14,0,0,1-.62.27v0a2.06,2.06,0,0,1,1.33.74,2.21,2.21,0,0,1,.45,1.39,2.41,2.41,0,0,1-.84,1.91,2.78,2.78,0,0,1-1,.55,3.78,3.78,0,0,1-1.21.18,3.66,3.66,0,0,1-1.12-.17,2.8,2.8,0,0,1-.92-.49,2.34,2.34,0,0,1-.63-.78,2.28,2.28,0,0,1-.23-1v-.18h.79v.16a1.74,1.74,0,0,0,.56,1.28,2,2,0,0,0,.66.4,2.45,2.45,0,0,0,.88.15,2.7,2.7,0,0,0,.91-.13,2.21,2.21,0,0,0,.69-.4,1.7,1.7,0,0,0,.64-1.38,1.89,1.89,0,0,0-.14-.75,1.64,1.64,0,0,0-.42-.58,2.22,2.22,0,0,0-1.53-.5h-.64v-.66h.69a1.86,1.86,0,0,0,1.21-.42,1.42,1.42,0,0,0,.52-1.15,1.59,1.59,0,0,0-.15-.71,1.48,1.48,0,0,0-.4-.51,1.73,1.73,0,0,0-.6-.31,2.56,2.56,0,0,0-.73-.1,2.1,2.1,0,0,0-.81.15,1.8,1.8,0,0,0-.61.41,1.82,1.82,0,0,0-.39.6,2,2,0,0,0-.13.73H205a2.44,2.44,0,0,1,.18-.92,2.53,2.53,0,0,1,.53-.82,2.7,2.7,0,0,1,.86-.59A2.82,2.82,0,0,1,207.78,175.49Z"/><path class="cls-2" d="M217.89,175.66v.71a13.7,13.7,0,0,0-1.42,1.75A13.19,13.19,0,0,0,215.4,180a11.5,11.5,0,0,0-.7,2,12.2,12.2,0,0,0-.31,2.14h-.84a12.81,12.81,0,0,1,.32-2.12,10.53,10.53,0,0,1,.67-1.93,15.67,15.67,0,0,1,2.58-3.79h-4.79v-.71Z"/><path class="cls-2" d="M221.15,177.89v1.27H220v-1.27Zm0,5v1.27H220v-1.27Z"/><path class="cls-2" d="M227.73,182.06v2.15H227v-2.15h-4v-.75l4-5.75h.7v5.85H229v.66ZM227,176.7h0l-3.27,4.71H227Z"/><path class="cls-2" d="M233.26,175.49a3.57,3.57,0,0,1,1,.13,2.67,2.67,0,0,1,.85.41,2.08,2.08,0,0,1,.6.69,2,2,0,0,1,.23,1,2.22,2.22,0,0,1-.1.66,1.82,1.82,0,0,1-.28.56,1.77,1.77,0,0,1-.45.42,2.14,2.14,0,0,1-.62.27v0a2.06,2.06,0,0,1,1.33.74,2.21,2.21,0,0,1,.45,1.39,2.41,2.41,0,0,1-.84,1.91,2.78,2.78,0,0,1-1,.55,3.78,3.78,0,0,1-1.21.18,3.66,3.66,0,0,1-1.12-.17,2.8,2.8,0,0,1-.92-.49,2.34,2.34,0,0,1-.63-.78,2.28,2.28,0,0,1-.23-1v-.18h.79v.16a1.74,1.74,0,0,0,.56,1.28,2,2,0,0,0,.66.4,2.45,2.45,0,0,0,.88.15,2.7,2.7,0,0,0,.91-.13,2.21,2.21,0,0,0,.69-.4,1.7,1.7,0,0,0,.64-1.38,1.89,1.89,0,0,0-.14-.75,1.64,1.64,0,0,0-.42-.58,2.22,2.22,0,0,0-1.53-.5h-.64v-.66h.69a1.86,1.86,0,0,0,1.21-.42,1.42,1.42,0,0,0,.52-1.15,1.59,1.59,0,0,0-.15-.71,1.48,1.48,0,0,0-.4-.51,1.73,1.73,0,0,0-.6-.31,2.56,2.56,0,0,0-.73-.1,2.1,2.1,0,0,0-.81.15,1.8,1.8,0,0,0-.61.41,1.82,1.82,0,0,0-.39.6,2,2,0,0,0-.13.73h-.78a2.44,2.44,0,0,1,.18-.92,2.53,2.53,0,0,1,.53-.82,2.7,2.7,0,0,1,.86-.59A2.82,2.82,0,0,1,233.26,175.49Z"/><path class="cls-2" d="M239.37,182.94v1.27h-1.11v-1.27Z"/><path class="cls-2" d="M244.35,184.21v-6.43h-2.29v-.56q.53,0,.9-.06a2.36,2.36,0,0,0,.57-.13,1.3,1.3,0,0,0,.64-.52,2.46,2.46,0,0,0,.31-1h.63v8.65Z"/><path class="cls-2" d="M254,175.66v.72H250.2l-.54,2.78,0,0a2.32,2.32,0,0,1,.82-.52,2.79,2.79,0,0,1,1-.18,3.18,3.18,0,0,1,1.2.22,2.6,2.6,0,0,1,.92.61,2.73,2.73,0,0,1,.59.94,3.43,3.43,0,0,1,.21,1.22,2.81,2.81,0,0,1-.23,1.14,2.94,2.94,0,0,1-1.61,1.56,3.12,3.12,0,0,1-1.2.23,3.29,3.29,0,0,1-1.1-.17,2.59,2.59,0,0,1-.85-.48,2.26,2.26,0,0,1-.56-.74,2.52,2.52,0,0,1-.23-1h.79a1.84,1.84,0,0,0,.16.64,1.65,1.65,0,0,0,.4.54,2,2,0,0,0,.62.37,2.29,2.29,0,0,0,.83.14,2.06,2.06,0,0,0,.87-.18,2.14,2.14,0,0,0,.7-.5,2.4,2.4,0,0,0,.46-.75,2.49,2.49,0,0,0,.17-.92,2.41,2.41,0,0,0-.16-.86,2.12,2.12,0,0,0-1.14-1.2,2.2,2.2,0,0,0-.91-.18,2.55,2.55,0,0,0-1.07.23,2.22,2.22,0,0,0-.85.68h-.66l.81-4.38Z"/><path class="cls-2" d="M261.59,175.66v.71a13.7,13.7,0,0,0-1.42,1.75A13.19,13.19,0,0,0,259.1,180a11.5,11.5,0,0,0-.7,2,12.2,12.2,0,0,0-.31,2.14h-.84a12.81,12.81,0,0,1,.32-2.12,10.53,10.53,0,0,1,.67-1.93,15.67,15.67,0,0,1,2.58-3.79H256v-.71Z"/><path class="cls-2" d="M349,64.66v.7h-5.09v3.09h4.77v.69h-4.77v3.38h5.14v.7h-6V64.66Z"/><path class="cls-2" d="M350.5,66.65l2.06,5.76h0l2-5.76h.83L353,73.21h-.85l-2.54-6.56Z"/><path class="cls-2" d="M359.36,66.46a2.71,2.71,0,0,1,1.3.29,2.6,2.6,0,0,1,.9.79,3.45,3.45,0,0,1,.52,1.13,5.21,5.21,0,0,1,.17,1.34v.13h-5.05a3.58,3.58,0,0,0,.13.94,2.59,2.59,0,0,0,.39.83,2,2,0,0,0,.66.59,1.92,1.92,0,0,0,.95.22,2.44,2.44,0,0,0,.7-.09,2,2,0,0,0,.56-.26A1.76,1.76,0,0,0,361,72a2.41,2.41,0,0,0,.29-.49h.79a3,3,0,0,1-.38.79,2.48,2.48,0,0,1-.59.6,2.68,2.68,0,0,1-.79.39,3.34,3.34,0,0,1-1,.14,2.94,2.94,0,0,1-1.3-.27,2.56,2.56,0,0,1-.91-.73,3.12,3.12,0,0,1-.54-1.1,5.14,5.14,0,0,1-.18-1.37,4.66,4.66,0,0,1,.18-1.28,3.36,3.36,0,0,1,.54-1.11,2.74,2.74,0,0,1,.92-.78A2.79,2.79,0,0,1,359.36,66.46Zm2.09,3a3,3,0,0,0-.16-.85,2.44,2.44,0,0,0-.41-.75,2.07,2.07,0,0,0-.65-.54,1.84,1.84,0,0,0-.88-.21,1.84,1.84,0,0,0-1.5.7,2.7,2.7,0,0,0-.42.75,4.31,4.31,0,0,0-.23.9Z"/><path class="cls-2" d="M366.84,66.46a3.35,3.35,0,0,1,1.08.16,1.83,1.83,0,0,1,.74.46,1.87,1.87,0,0,1,.43.77,3.79,3.79,0,0,1,.14,1.08v4.28h-.8V69.06a2.2,2.2,0,0,0-.41-1.44,1.54,1.54,0,0,0-1.25-.49,2.07,2.07,0,0,0-.86.17,1.88,1.88,0,0,0-.65.48,2.16,2.16,0,0,0-.41.71,2.63,2.63,0,0,0-.14.88v3.84h-.8V66.65h.8v1.14h0a2,2,0,0,1,.35-.56,2.18,2.18,0,0,1,.49-.42,2.33,2.33,0,0,1,.6-.26A2.48,2.48,0,0,1,366.84,66.46Z"/><path class="cls-2" d="M374,73.27h-.66a3,3,0,0,1-.68-.06,1,1,0,0,1-.45-.23.89.89,0,0,1-.25-.43,2.65,2.65,0,0,1-.07-.68V67.32h-1.32v-.67h1.32v-2h.8v2h1.5v.67h-1.5V71.8a1.76,1.76,0,0,0,0,.34.64.64,0,0,0,.11.25.5.5,0,0,0,.21.16.87.87,0,0,0,.35.06h.6l.21,0v.68Z"/><path class="cls-2" d="M385.24,64.13v9.08h-.74V72h0a2,2,0,0,1-.39.59,2.57,2.57,0,0,1-.56.45,2.8,2.8,0,0,1-.67.29,2.63,2.63,0,0,1-.72.1,2.8,2.8,0,0,1-1.28-.28,2.68,2.68,0,0,1-.92-.75,3.32,3.32,0,0,1-.56-1.11,4.68,4.68,0,0,1-.19-1.34,4.83,4.83,0,0,1,.17-1.29,3.31,3.31,0,0,1,.53-1.11,2.69,2.69,0,0,1,.92-.78,3,3,0,0,1,2-.2,2.56,2.56,0,0,1,.65.27,2.25,2.25,0,0,1,.54.45,2.07,2.07,0,0,1,.38.63h0V64.13ZM380,69.93a4.17,4.17,0,0,0,.05.65,3.7,3.7,0,0,0,.16.64,2.82,2.82,0,0,0,.28.58,2.15,2.15,0,0,0,.41.48,1.8,1.8,0,0,0,.55.32,2,2,0,0,0,.7.12,2.08,2.08,0,0,0,1.73-.84,2.66,2.66,0,0,0,.43-.89,4,4,0,0,0,.14-1.06,4,4,0,0,0-.13-1,2.73,2.73,0,0,0-.41-.9,2.06,2.06,0,0,0-1.76-.88,1.94,1.94,0,0,0-.68.11,1.8,1.8,0,0,0-.54.31,2.15,2.15,0,0,0-.41.47,2.8,2.8,0,0,0-.29.58,3.52,3.52,0,0,0-.17.65A4.25,4.25,0,0,0,380,69.93Z"/><path class="cls-2" d="M390,66.46a2.71,2.71,0,0,1,1.3.29,2.6,2.6,0,0,1,.9.79,3.45,3.45,0,0,1,.52,1.13A5.21,5.21,0,0,1,392.9,70v.13h-5.05a3.58,3.58,0,0,0,.13.94,2.59,2.59,0,0,0,.39.83,2,2,0,0,0,.66.59,1.92,1.92,0,0,0,.95.22,2.44,2.44,0,0,0,.7-.09,2,2,0,0,0,.56-.26,1.76,1.76,0,0,0,.42-.39,2.41,2.41,0,0,0,.29-.49h.79a3,3,0,0,1-.38.79,2.48,2.48,0,0,1-.59.6,2.68,2.68,0,0,1-.79.39,3.34,3.34,0,0,1-1,.14,2.94,2.94,0,0,1-1.3-.27,2.56,2.56,0,0,1-.91-.73,3.12,3.12,0,0,1-.54-1.1,5.14,5.14,0,0,1-.18-1.37,4.66,4.66,0,0,1,.18-1.28,3.36,3.36,0,0,1,.54-1.11,2.74,2.74,0,0,1,.92-.78A2.79,2.79,0,0,1,390,66.46Zm2.09,3a3,3,0,0,0-.16-.85,2.44,2.44,0,0,0-.41-.75,2.07,2.07,0,0,0-.65-.54,1.84,1.84,0,0,0-.88-.21,1.84,1.84,0,0,0-1.5.7,2.7,2.7,0,0,0-.42.75,4.31,4.31,0,0,0-.23.9Z"/><path class="cls-2" d="M399.48,71.43a1.67,1.67,0,0,1-.22.88,1.89,1.89,0,0,1-.59.62,2.74,2.74,0,0,1-.84.36,4,4,0,0,1-1,.12,3.66,3.66,0,0,1-1.07-.14,2.4,2.4,0,0,1-.8-.41,2,2,0,0,1-.53-.64,2.4,2.4,0,0,1-.25-.85H395a1.7,1.7,0,0,0,.2.56,1.41,1.41,0,0,0,.38.43,1.8,1.8,0,0,0,.57.28,2.56,2.56,0,0,0,.74.1,3,3,0,0,0,.6-.06,2.05,2.05,0,0,0,.58-.21,1.35,1.35,0,0,0,.44-.38,1,1,0,0,0,.18-.59.93.93,0,0,0-.34-.73,2.6,2.6,0,0,0-1.13-.46l-1-.22a4,4,0,0,1-.77-.24,2.1,2.1,0,0,1-.58-.37,1.46,1.46,0,0,1-.36-.5,1.62,1.62,0,0,1-.12-.65,1.57,1.57,0,0,1,.21-.83,1.78,1.78,0,0,1,.56-.57,2.53,2.53,0,0,1,.78-.33,3.77,3.77,0,0,1,.89-.11,3.27,3.27,0,0,1,.92.12,2.29,2.29,0,0,1,.73.35,1.83,1.83,0,0,1,.5.57,2.08,2.08,0,0,1,.25.78h-.8a1.32,1.32,0,0,0-.19-.5,1.24,1.24,0,0,0-.36-.37,1.69,1.69,0,0,0-.5-.22,2.36,2.36,0,0,0-.61-.08,2.85,2.85,0,0,0-.58.06,1.59,1.59,0,0,0-.51.19,1.07,1.07,0,0,0-.36.35,1,1,0,0,0-.13.53.74.74,0,0,0,.13.44,1.27,1.27,0,0,0,.33.32,1.93,1.93,0,0,0,.44.22,3.64,3.64,0,0,0,.46.13l1.37.3a2.85,2.85,0,0,1,.59.21,1.77,1.77,0,0,1,.5.35,1.64,1.64,0,0,1,.34.51A1.71,1.71,0,0,1,399.48,71.43Z"/><path class="cls-2" d="M404,66.46a3.46,3.46,0,0,1,1,.13,2.53,2.53,0,0,1,.78.38,2,2,0,0,1,.56.61,2.31,2.31,0,0,1,.29.82h-.8a1.73,1.73,0,0,0-.22-.52,1.5,1.5,0,0,0-.37-.4,1.7,1.7,0,0,0-.53-.26,2.34,2.34,0,0,0-.68-.09,2,2,0,0,0-1,.23,2.19,2.19,0,0,0-.72.63,2.91,2.91,0,0,0-.44.9,3.58,3.58,0,0,0-.15,1,3.67,3.67,0,0,0,.14,1,2.88,2.88,0,0,0,.42.9,2.26,2.26,0,0,0,.71.65,2,2,0,0,0,1,.25,1.93,1.93,0,0,0,.71-.13,1.88,1.88,0,0,0,.56-.34,1.79,1.79,0,0,0,.39-.49,1.87,1.87,0,0,0,.21-.58h.8a3,3,0,0,1-.29.85,2.49,2.49,0,0,1-.55.7,2.54,2.54,0,0,1-.8.48,2.88,2.88,0,0,1-1,.18,3,3,0,0,1-1.29-.27,2.85,2.85,0,0,1-1-.74,3.28,3.28,0,0,1-.61-1.1,4.47,4.47,0,0,1,0-2.67,3.31,3.31,0,0,1,.59-1.11,2.9,2.9,0,0,1,1-.77A3,3,0,0,1,404,66.46Z"/><path class="cls-2" d="M408.39,73.21V66.65h.74v1.54h0a2.56,2.56,0,0,1,.9-1.2,2.32,2.32,0,0,1,1.38-.43h.29v.8h-.18a2.22,2.22,0,0,0-1.71.69,2.36,2.36,0,0,0-.64,1.69v3.48Z"/><path class="cls-2" d="M413.84,63.78v1.29H413V63.78Zm0,2.87v6.56H413V66.65Z"/><path class="cls-2" d="M422.11,69.93a4.77,4.77,0,0,1-.17,1.28,3.38,3.38,0,0,1-.53,1.11,2.69,2.69,0,0,1-.92.79,2.78,2.78,0,0,1-1.32.3,2.81,2.81,0,0,1-.71-.09,2.45,2.45,0,0,1-.65-.27,2.29,2.29,0,0,1-.54-.45,2.21,2.21,0,0,1-.38-.63h0v3.67h-.8v-9h.74V67.9h0a2.24,2.24,0,0,1,.39-.61,2.29,2.29,0,0,1,.55-.45,2.67,2.67,0,0,1,.67-.28,2.81,2.81,0,0,1,.74-.1,2.85,2.85,0,0,1,1.29.28,2.64,2.64,0,0,1,.92.75,3.32,3.32,0,0,1,.56,1.1A4.67,4.67,0,0,1,422.11,69.93Zm-.8,0a4.48,4.48,0,0,0-.11-1,2.84,2.84,0,0,0-.37-.9,2.07,2.07,0,0,0-.67-.66,1.9,1.9,0,0,0-1-.26,2.09,2.09,0,0,0-1.7.7,3.21,3.21,0,0,0-.58,2.09,4.2,4.2,0,0,0,.13,1,2.68,2.68,0,0,0,.4.9,2.1,2.1,0,0,0,.71.64,2.16,2.16,0,0,0,1.06.24,1.87,1.87,0,0,0,1-.24,2,2,0,0,0,.67-.63,2.87,2.87,0,0,0,.39-.9A4.14,4.14,0,0,0,421.31,69.93Z"/><path class="cls-2" d="M426.62,73.27H426a3,3,0,0,1-.68-.06,1,1,0,0,1-.45-.23.89.89,0,0,1-.25-.43,2.65,2.65,0,0,1-.07-.68V67.32h-1.32v-.67h1.32v-2h.8v2h1.5v.67h-1.5V71.8a1.76,1.76,0,0,0,0,.34.64.64,0,0,0,.11.25.5.5,0,0,0,.21.16.87.87,0,0,0,.35.06h.6l.21,0v.68Z"/><path class="cls-2" d="M429.4,63.78v1.29h-.8V63.78Zm0,2.87v6.56h-.8V66.65Z"/><path class="cls-2" d="M437.43,69.93a4.29,4.29,0,0,1-.2,1.31,3.31,3.31,0,0,1-.61,1.13,2.9,2.9,0,0,1-2.29,1,2.84,2.84,0,0,1-2.24-1,4.07,4.07,0,0,1,0-5,3.08,3.08,0,0,1,4.51,0A3.65,3.65,0,0,1,437.43,69.93Zm-.8,0a3.8,3.8,0,0,0-.13-1,2.81,2.81,0,0,0-.42-.9,2.25,2.25,0,0,0-.72-.65,2,2,0,0,0-1-.25,2,2,0,0,0-1,.24,2.24,2.24,0,0,0-.72.64,2.85,2.85,0,0,0-.44.9,3.66,3.66,0,0,0-.15,1,3.58,3.58,0,0,0,.14,1,3,3,0,0,0,.43.9,2.24,2.24,0,0,0,.71.65,2,2,0,0,0,1,.25,2,2,0,0,0,1-.24,2.33,2.33,0,0,0,.72-.63,2.8,2.8,0,0,0,.45-.89A3.54,3.54,0,0,0,436.62,69.93Z"/><path class="cls-2" d="M442.14,66.46a3.35,3.35,0,0,1,1.08.16,1.83,1.83,0,0,1,.74.46,1.87,1.87,0,0,1,.43.77,3.79,3.79,0,0,1,.14,1.08v4.28h-.8V69.06a2.2,2.2,0,0,0-.41-1.44,1.54,1.54,0,0,0-1.25-.49,2.07,2.07,0,0,0-.86.17,1.88,1.88,0,0,0-.65.48,2.16,2.16,0,0,0-.41.71,2.63,2.63,0,0,0-.14.88v3.84h-.8V66.65h.8v1.14h0a2,2,0,0,1,.35-.56,2.18,2.18,0,0,1,.49-.42,2.33,2.33,0,0,1,.6-.26A2.48,2.48,0,0,1,442.14,66.46Z"/><path class="cls-2" d="M452.84,73.27h-.66a3,3,0,0,1-.68-.06,1,1,0,0,1-.45-.23.89.89,0,0,1-.25-.43,2.65,2.65,0,0,1-.07-.68V67.32h-1.32v-.67h1.32v-2h.8v2H453v.67h-1.5V71.8a1.76,1.76,0,0,0,0,.34.64.64,0,0,0,.11.25.5.5,0,0,0,.21.16.87.87,0,0,0,.35.06h.6l.21,0v.68Z"/><path class="cls-2" d="M457.2,66.46a2.71,2.71,0,0,1,1.3.29,2.6,2.6,0,0,1,.9.79,3.45,3.45,0,0,1,.52,1.13,5.21,5.21,0,0,1,.17,1.34v.13H455a3.58,3.58,0,0,0,.13.94,2.59,2.59,0,0,0,.39.83,2,2,0,0,0,.66.59,1.92,1.92,0,0,0,.95.22,2.44,2.44,0,0,0,.7-.09,2,2,0,0,0,.56-.26,1.76,1.76,0,0,0,.42-.39,2.41,2.41,0,0,0,.29-.49h.79a3,3,0,0,1-.38.79,2.48,2.48,0,0,1-.59.6,2.68,2.68,0,0,1-.79.39,3.34,3.34,0,0,1-1,.14,2.94,2.94,0,0,1-1.3-.27,2.56,2.56,0,0,1-.91-.73,3.12,3.12,0,0,1-.54-1.1,5.14,5.14,0,0,1-.18-1.37,4.66,4.66,0,0,1,.18-1.28,3.36,3.36,0,0,1,.54-1.11,2.74,2.74,0,0,1,.92-.78A2.79,2.79,0,0,1,457.2,66.46Zm2.09,3a3,3,0,0,0-.16-.85,2.44,2.44,0,0,0-.41-.75,2.07,2.07,0,0,0-.65-.54,1.84,1.84,0,0,0-.88-.21,1.84,1.84,0,0,0-1.5.7,2.7,2.7,0,0,0-.42.75,4.31,4.31,0,0,0-.23.9Z"/><path class="cls-2" d="M461.93,66.65l1.87,2.5,1.83-2.5h1l-2.37,3.14,2.56,3.42h-1l-2.06-2.76-2,2.76h-1l2.55-3.41-2.36-3.15Z"/><path class="cls-2" d="M470.77,73.27h-.66a3,3,0,0,1-.68-.06A1,1,0,0,1,469,73a.89.89,0,0,1-.25-.43,2.65,2.65,0,0,1-.07-.68V67.32h-1.32v-.67h1.32v-2h.8v2H471v.67h-1.5V71.8a1.76,1.76,0,0,0,0,.34.64.64,0,0,0,.11.25.5.5,0,0,0,.21.16.87.87,0,0,0,.35.06h.6l.21,0v.68Z"/><path class="cls-2" d="M349,101.66v.7h-5.09v3.09h4.77v.69h-4.77v3.38h5.14v.7h-6v-8.55Z"/><path class="cls-2" d="M350.5,103.65l2.06,5.76h0l2-5.76h.83L353,110.21h-.85l-2.54-6.56Z"/><path class="cls-2" d="M359.36,103.46a2.71,2.71,0,0,1,1.3.29,2.6,2.6,0,0,1,.9.79,3.45,3.45,0,0,1,.52,1.13,5.21,5.21,0,0,1,.17,1.34v.13h-5.05a3.58,3.58,0,0,0,.13.94,2.59,2.59,0,0,0,.39.83,2,2,0,0,0,.66.59,1.92,1.92,0,0,0,.95.22,2.44,2.44,0,0,0,.7-.09,2,2,0,0,0,.56-.26A1.76,1.76,0,0,0,361,109a2.41,2.41,0,0,0,.29-.49h.79a3,3,0,0,1-.38.79,2.48,2.48,0,0,1-.59.6,2.68,2.68,0,0,1-.79.39,3.34,3.34,0,0,1-1,.14,2.94,2.94,0,0,1-1.3-.27,2.56,2.56,0,0,1-.91-.73,3.12,3.12,0,0,1-.54-1.1,5.14,5.14,0,0,1-.18-1.37,4.66,4.66,0,0,1,.18-1.28,3.36,3.36,0,0,1,.54-1.11,2.74,2.74,0,0,1,.92-.78A2.79,2.79,0,0,1,359.36,103.46Zm2.09,3a3,3,0,0,0-.16-.85,2.44,2.44,0,0,0-.41-.75,2.07,2.07,0,0,0-.65-.54,1.84,1.84,0,0,0-.88-.21,1.84,1.84,0,0,0-1.5.7,2.7,2.7,0,0,0-.42.75,4.31,4.31,0,0,0-.23.9Z"/><path class="cls-2" d="M366.84,103.46a3.35,3.35,0,0,1,1.08.16,1.83,1.83,0,0,1,.74.46,1.87,1.87,0,0,1,.43.77,3.79,3.79,0,0,1,.14,1.08v4.28h-.8v-4.15a2.2,2.2,0,0,0-.41-1.44,1.54,1.54,0,0,0-1.25-.49,2.07,2.07,0,0,0-.86.17,1.88,1.88,0,0,0-.65.48,2.16,2.16,0,0,0-.41.71,2.63,2.63,0,0,0-.14.88v3.84h-.8v-6.56h.8v1.14h0a2,2,0,0,1,.35-.56,2.18,2.18,0,0,1,.49-.42,2.33,2.33,0,0,1,.6-.26A2.48,2.48,0,0,1,366.84,103.46Z"/><path class="cls-2" d="M374,110.27h-.66a3,3,0,0,1-.68-.06,1,1,0,0,1-.45-.23.89.89,0,0,1-.25-.43,2.65,2.65,0,0,1-.07-.68v-4.56h-1.32v-.67h1.32v-2h.8v2h1.5v.67h-1.5v4.48a1.76,1.76,0,0,0,0,.34.64.64,0,0,0,.11.25.5.5,0,0,0,.21.16.87.87,0,0,0,.35.06h.6l.21,0v.68Z"/><path class="cls-2" d="M385.24,101.13v9.08h-.74V109h0a2,2,0,0,1-.39.59,2.57,2.57,0,0,1-.56.45,2.8,2.8,0,0,1-.67.29,2.63,2.63,0,0,1-.72.1,2.8,2.8,0,0,1-1.28-.28,2.68,2.68,0,0,1-.92-.75,3.32,3.32,0,0,1-.56-1.11,4.68,4.68,0,0,1-.19-1.34,4.83,4.83,0,0,1,.17-1.29,3.31,3.31,0,0,1,.53-1.11,2.69,2.69,0,0,1,.92-.78,3,3,0,0,1,2-.2,2.56,2.56,0,0,1,.65.27,2.25,2.25,0,0,1,.54.45,2.07,2.07,0,0,1,.38.63h0v-3.77Zm-5.26,5.8a4.17,4.17,0,0,0,.05.65,3.7,3.7,0,0,0,.16.64,2.82,2.82,0,0,0,.28.58,2.15,2.15,0,0,0,.41.48,1.8,1.8,0,0,0,.55.32,2,2,0,0,0,.7.12,2.08,2.08,0,0,0,1.73-.84,2.66,2.66,0,0,0,.43-.89,4,4,0,0,0,.14-1.06,4,4,0,0,0-.13-1,2.73,2.73,0,0,0-.41-.9,2.06,2.06,0,0,0-1.76-.88,1.94,1.94,0,0,0-.68.11,1.8,1.8,0,0,0-.54.31,2.15,2.15,0,0,0-.41.47,2.8,2.8,0,0,0-.29.58,3.52,3.52,0,0,0-.17.65A4.25,4.25,0,0,0,380,106.93Z"/><path class="cls-2" d="M390,103.46a2.71,2.71,0,0,1,1.3.29,2.6,2.6,0,0,1,.9.79,3.45,3.45,0,0,1,.52,1.13,5.21,5.21,0,0,1,.17,1.34v.13h-5.05a3.58,3.58,0,0,0,.13.94,2.59,2.59,0,0,0,.39.83,2,2,0,0,0,.66.59,1.92,1.92,0,0,0,.95.22,2.44,2.44,0,0,0,.7-.09,2,2,0,0,0,.56-.26,1.76,1.76,0,0,0,.42-.39,2.41,2.41,0,0,0,.29-.49h.79a3,3,0,0,1-.38.79,2.48,2.48,0,0,1-.59.6,2.68,2.68,0,0,1-.79.39,3.34,3.34,0,0,1-1,.14,2.94,2.94,0,0,1-1.3-.27,2.56,2.56,0,0,1-.91-.73,3.12,3.12,0,0,1-.54-1.1,5.14,5.14,0,0,1-.18-1.37,4.66,4.66,0,0,1,.18-1.28,3.36,3.36,0,0,1,.54-1.11,2.74,2.74,0,0,1,.92-.78A2.79,2.79,0,0,1,390,103.46Zm2.09,3a3,3,0,0,0-.16-.85,2.44,2.44,0,0,0-.41-.75,2.07,2.07,0,0,0-.65-.54,1.84,1.84,0,0,0-.88-.21,1.84,1.84,0,0,0-1.5.7,2.7,2.7,0,0,0-.42.75,4.31,4.31,0,0,0-.23.9Z"/><path class="cls-2" d="M399.48,108.43a1.67,1.67,0,0,1-.22.88,1.89,1.89,0,0,1-.59.62,2.74,2.74,0,0,1-.84.36,4,4,0,0,1-1,.12,3.66,3.66,0,0,1-1.07-.14,2.4,2.4,0,0,1-.8-.41,2,2,0,0,1-.53-.64,2.4,2.4,0,0,1-.25-.85H395a1.7,1.7,0,0,0,.2.56,1.41,1.41,0,0,0,.38.43,1.8,1.8,0,0,0,.57.28,2.56,2.56,0,0,0,.74.1,3,3,0,0,0,.6-.06,2.05,2.05,0,0,0,.58-.21,1.35,1.35,0,0,0,.44-.38,1,1,0,0,0,.18-.59.93.93,0,0,0-.34-.73,2.6,2.6,0,0,0-1.13-.46l-1-.22a4,4,0,0,1-.77-.24,2.1,2.1,0,0,1-.58-.37,1.46,1.46,0,0,1-.36-.5,1.62,1.62,0,0,1-.12-.65,1.57,1.57,0,0,1,.21-.83,1.78,1.78,0,0,1,.56-.57,2.53,2.53,0,0,1,.78-.33,3.77,3.77,0,0,1,.89-.11,3.27,3.27,0,0,1,.92.12,2.29,2.29,0,0,1,.73.35,1.83,1.83,0,0,1,.5.57,2.08,2.08,0,0,1,.25.78h-.8a1.32,1.32,0,0,0-.19-.5,1.24,1.24,0,0,0-.36-.37,1.69,1.69,0,0,0-.5-.22,2.36,2.36,0,0,0-.61-.08,2.85,2.85,0,0,0-.58.06,1.59,1.59,0,0,0-.51.19,1.07,1.07,0,0,0-.36.35,1,1,0,0,0-.13.53.74.74,0,0,0,.13.44,1.27,1.27,0,0,0,.33.32,1.93,1.93,0,0,0,.44.22,3.64,3.64,0,0,0,.46.13l1.37.3a2.85,2.85,0,0,1,.59.21,1.77,1.77,0,0,1,.5.35,1.64,1.64,0,0,1,.34.51A1.71,1.71,0,0,1,399.48,108.43Z"/><path class="cls-2" d="M404,103.46a3.46,3.46,0,0,1,1,.13,2.53,2.53,0,0,1,.78.38,2,2,0,0,1,.56.61,2.31,2.31,0,0,1,.29.82h-.8a1.73,1.73,0,0,0-.22-.52,1.5,1.5,0,0,0-.37-.4,1.7,1.7,0,0,0-.53-.26,2.34,2.34,0,0,0-.68-.09,2,2,0,0,0-1,.23,2.19,2.19,0,0,0-.72.63,2.91,2.91,0,0,0-.44.9,3.58,3.58,0,0,0-.15,1,3.67,3.67,0,0,0,.14,1,2.88,2.88,0,0,0,.42.9,2.26,2.26,0,0,0,.71.65,2,2,0,0,0,1,.25,1.93,1.93,0,0,0,.71-.13,1.88,1.88,0,0,0,.56-.34,1.79,1.79,0,0,0,.39-.49,1.87,1.87,0,0,0,.21-.58h.8a3,3,0,0,1-.29.85,2.49,2.49,0,0,1-.55.7,2.54,2.54,0,0,1-.8.48,2.88,2.88,0,0,1-1,.18,3,3,0,0,1-1.29-.27,2.85,2.85,0,0,1-1-.74,3.28,3.28,0,0,1-.61-1.1,4.47,4.47,0,0,1,0-2.67,3.31,3.31,0,0,1,.59-1.11,2.9,2.9,0,0,1,1-.77A3,3,0,0,1,404,103.46Z"/><path class="cls-2" d="M408.39,110.21v-6.56h.74v1.54h0a2.56,2.56,0,0,1,.9-1.2,2.32,2.32,0,0,1,1.38-.43h.29v.8h-.18a2.22,2.22,0,0,0-1.71.69,2.36,2.36,0,0,0-.64,1.69v3.48Z"/><path class="cls-2" d="M413.84,100.78v1.29H413v-1.29Zm0,2.87v6.56H413v-6.56Z"/><path class="cls-2" d="M422.11,106.93a4.77,4.77,0,0,1-.17,1.28,3.38,3.38,0,0,1-.53,1.11,2.69,2.69,0,0,1-.92.79,2.78,2.78,0,0,1-1.32.3,2.81,2.81,0,0,1-.71-.09,2.45,2.45,0,0,1-.65-.27,2.29,2.29,0,0,1-.54-.45,2.21,2.21,0,0,1-.38-.63h0v3.67h-.8v-9h.74v1.25h0a2.24,2.24,0,0,1,.39-.61,2.29,2.29,0,0,1,.55-.45,2.67,2.67,0,0,1,.67-.28,2.81,2.81,0,0,1,.74-.1,2.85,2.85,0,0,1,1.29.28,2.64,2.64,0,0,1,.92.75,3.32,3.32,0,0,1,.56,1.1A4.67,4.67,0,0,1,422.11,106.93Zm-.8,0a4.48,4.48,0,0,0-.11-1,2.84,2.84,0,0,0-.37-.9,2.07,2.07,0,0,0-.67-.66,1.9,1.9,0,0,0-1-.26,2.09,2.09,0,0,0-1.7.7,3.21,3.21,0,0,0-.58,2.09,4.2,4.2,0,0,0,.13,1,2.68,2.68,0,0,0,.4.9,2.1,2.1,0,0,0,.71.64,2.16,2.16,0,0,0,1.06.24,1.87,1.87,0,0,0,1-.24,2,2,0,0,0,.67-.63,2.87,2.87,0,0,0,.39-.9A4.14,4.14,0,0,0,421.31,106.93Z"/><path class="cls-2" d="M426.62,110.27H426a3,3,0,0,1-.68-.06,1,1,0,0,1-.45-.23.89.89,0,0,1-.25-.43,2.65,2.65,0,0,1-.07-.68v-4.56h-1.32v-.67h1.32v-2h.8v2h1.5v.67h-1.5v4.48a1.76,1.76,0,0,0,0,.34.64.64,0,0,0,.11.25.5.5,0,0,0,.21.16.87.87,0,0,0,.35.06h.6l.21,0v.68Z"/><path class="cls-2" d="M429.4,100.78v1.29h-.8v-1.29Zm0,2.87v6.56h-.8v-6.56Z"/><path class="cls-2" d="M437.43,106.93a4.29,4.29,0,0,1-.2,1.31,3.31,3.31,0,0,1-.61,1.13,2.9,2.9,0,0,1-2.29,1,2.84,2.84,0,0,1-2.24-1,4.07,4.07,0,0,1,0-5,3.08,3.08,0,0,1,4.51,0A3.65,3.65,0,0,1,437.43,106.93Zm-.8,0a3.8,3.8,0,0,0-.13-1,2.81,2.81,0,0,0-.42-.9,2.25,2.25,0,0,0-.72-.65,2,2,0,0,0-1-.25,2,2,0,0,0-1,.24,2.24,2.24,0,0,0-.72.64,2.85,2.85,0,0,0-.44.9,3.66,3.66,0,0,0-.15,1,3.58,3.58,0,0,0,.14,1,3,3,0,0,0,.43.9,2.24,2.24,0,0,0,.71.65,2,2,0,0,0,1,.25,2,2,0,0,0,1-.24,2.33,2.33,0,0,0,.72-.63,2.8,2.8,0,0,0,.45-.89A3.54,3.54,0,0,0,436.62,106.93Z"/><path class="cls-2" d="M442.14,103.46a3.35,3.35,0,0,1,1.08.16,1.83,1.83,0,0,1,.74.46,1.87,1.87,0,0,1,.43.77,3.79,3.79,0,0,1,.14,1.08v4.28h-.8v-4.15a2.2,2.2,0,0,0-.41-1.44,1.54,1.54,0,0,0-1.25-.49,2.07,2.07,0,0,0-.86.17,1.88,1.88,0,0,0-.65.48,2.16,2.16,0,0,0-.41.71,2.63,2.63,0,0,0-.14.88v3.84h-.8v-6.56h.8v1.14h0a2,2,0,0,1,.35-.56,2.18,2.18,0,0,1,.49-.42,2.33,2.33,0,0,1,.6-.26A2.48,2.48,0,0,1,442.14,103.46Z"/><path class="cls-2" d="M452.84,110.27h-.66a3,3,0,0,1-.68-.06,1,1,0,0,1-.45-.23.89.89,0,0,1-.25-.43,2.65,2.65,0,0,1-.07-.68v-4.56h-1.32v-.67h1.32v-2h.8v2H453v.67h-1.5v4.48a1.76,1.76,0,0,0,0,.34.64.64,0,0,0,.11.25.5.5,0,0,0,.21.16.87.87,0,0,0,.35.06h.6l.21,0v.68Z"/><path class="cls-2" d="M457.2,103.46a2.71,2.71,0,0,1,1.3.29,2.6,2.6,0,0,1,.9.79,3.45,3.45,0,0,1,.52,1.13,5.21,5.21,0,0,1,.17,1.34v.13H455a3.58,3.58,0,0,0,.13.94,2.59,2.59,0,0,0,.39.83,2,2,0,0,0,.66.59,1.92,1.92,0,0,0,.95.22,2.44,2.44,0,0,0,.7-.09,2,2,0,0,0,.56-.26,1.76,1.76,0,0,0,.42-.39,2.41,2.41,0,0,0,.29-.49h.79a3,3,0,0,1-.38.79,2.48,2.48,0,0,1-.59.6,2.68,2.68,0,0,1-.79.39,3.34,3.34,0,0,1-1,.14,2.94,2.94,0,0,1-1.3-.27,2.56,2.56,0,0,1-.91-.73,3.12,3.12,0,0,1-.54-1.1,5.14,5.14,0,0,1-.18-1.37,4.66,4.66,0,0,1,.18-1.28,3.36,3.36,0,0,1,.54-1.11,2.74,2.74,0,0,1,.92-.78A2.79,2.79,0,0,1,457.2,103.46Zm2.09,3a3,3,0,0,0-.16-.85,2.44,2.44,0,0,0-.41-.75,2.07,2.07,0,0,0-.65-.54,1.84,1.84,0,0,0-.88-.21,1.84,1.84,0,0,0-1.5.7,2.7,2.7,0,0,0-.42.75,4.31,4.31,0,0,0-.23.9Z"/><path class="cls-2" d="M461.93,103.65l1.87,2.5,1.83-2.5h1l-2.37,3.14,2.56,3.42h-1l-2.06-2.76-2,2.76h-1l2.55-3.41-2.36-3.15Z"/><path class="cls-2" d="M470.77,110.27h-.66a3,3,0,0,1-.68-.06A1,1,0,0,1,469,110a.89.89,0,0,1-.25-.43,2.65,2.65,0,0,1-.07-.68v-4.56h-1.32v-.67h1.32v-2h.8v2H471v.67h-1.5v4.48a1.76,1.76,0,0,0,0,.34.64.64,0,0,0,.11.25.5.5,0,0,0,.21.16.87.87,0,0,0,.35.06h.6l.21,0v.68Z"/><path class="cls-2" d="M349,138.66v.7h-5.09v3.09h4.77v.69h-4.77v3.38h5.14v.7h-6v-8.55Z"/><path class="cls-2" d="M350.5,140.65l2.06,5.76h0l2-5.76h.83L353,147.21h-.85l-2.54-6.56Z"/><path class="cls-2" d="M359.36,140.46a2.71,2.71,0,0,1,1.3.29,2.6,2.6,0,0,1,.9.79,3.45,3.45,0,0,1,.52,1.13,5.21,5.21,0,0,1,.17,1.34v.13h-5.05a3.58,3.58,0,0,0,.13.94,2.59,2.59,0,0,0,.39.83,2,2,0,0,0,.66.59,1.92,1.92,0,0,0,.95.22,2.44,2.44,0,0,0,.7-.09,2,2,0,0,0,.56-.26A1.76,1.76,0,0,0,361,146a2.41,2.41,0,0,0,.29-.49h.79a3,3,0,0,1-.38.79,2.48,2.48,0,0,1-.59.6,2.68,2.68,0,0,1-.79.39,3.34,3.34,0,0,1-1,.14,2.94,2.94,0,0,1-1.3-.27,2.56,2.56,0,0,1-.91-.73,3.12,3.12,0,0,1-.54-1.1,5.14,5.14,0,0,1-.18-1.37,4.66,4.66,0,0,1,.18-1.28,3.36,3.36,0,0,1,.54-1.11,2.74,2.74,0,0,1,.92-.78A2.79,2.79,0,0,1,359.36,140.46Zm2.09,3a3,3,0,0,0-.16-.85,2.44,2.44,0,0,0-.41-.75,2.07,2.07,0,0,0-.65-.54,1.84,1.84,0,0,0-.88-.21,1.84,1.84,0,0,0-1.5.7,2.7,2.7,0,0,0-.42.75,4.31,4.31,0,0,0-.23.9Z"/><path class="cls-2" d="M366.84,140.46a3.35,3.35,0,0,1,1.08.16,1.83,1.83,0,0,1,.74.46,1.87,1.87,0,0,1,.43.77,3.79,3.79,0,0,1,.14,1.08v4.28h-.8v-4.15a2.2,2.2,0,0,0-.41-1.44,1.54,1.54,0,0,0-1.25-.49,2.07,2.07,0,0,0-.86.17,1.88,1.88,0,0,0-.65.48,2.16,2.16,0,0,0-.41.71,2.63,2.63,0,0,0-.14.88v3.84h-.8v-6.56h.8v1.14h0a2,2,0,0,1,.35-.56,2.18,2.18,0,0,1,.49-.42,2.33,2.33,0,0,1,.6-.26A2.48,2.48,0,0,1,366.84,140.46Z"/><path class="cls-2" d="M374,147.27h-.66a3,3,0,0,1-.68-.06,1,1,0,0,1-.45-.23.89.89,0,0,1-.25-.43,2.65,2.65,0,0,1-.07-.68v-4.56h-1.32v-.67h1.32v-2h.8v2h1.5v.67h-1.5v4.48a1.76,1.76,0,0,0,0,.34.64.64,0,0,0,.11.25.5.5,0,0,0,.21.16.87.87,0,0,0,.35.06h.6l.21,0v.68Z"/><path class="cls-2" d="M385.24,138.13v9.08h-.74V146h0a2,2,0,0,1-.39.59,2.57,2.57,0,0,1-.56.45,2.8,2.8,0,0,1-.67.29,2.63,2.63,0,0,1-.72.1,2.8,2.8,0,0,1-1.28-.28,2.68,2.68,0,0,1-.92-.75,3.32,3.32,0,0,1-.56-1.11,4.68,4.68,0,0,1-.19-1.34,4.83,4.83,0,0,1,.17-1.29,3.31,3.31,0,0,1,.53-1.11,2.69,2.69,0,0,1,.92-.78,3,3,0,0,1,2-.2,2.56,2.56,0,0,1,.65.27,2.25,2.25,0,0,1,.54.45,2.07,2.07,0,0,1,.38.63h0v-3.77Zm-5.26,5.8a4.17,4.17,0,0,0,.05.65,3.7,3.7,0,0,0,.16.64,2.82,2.82,0,0,0,.28.58,2.15,2.15,0,0,0,.41.48,1.8,1.8,0,0,0,.55.32,2,2,0,0,0,.7.12,2.08,2.08,0,0,0,1.73-.84,2.66,2.66,0,0,0,.43-.89,4,4,0,0,0,.14-1.06,4,4,0,0,0-.13-1,2.73,2.73,0,0,0-.41-.9,2.06,2.06,0,0,0-1.76-.88,1.94,1.94,0,0,0-.68.11,1.8,1.8,0,0,0-.54.31,2.15,2.15,0,0,0-.41.47,2.8,2.8,0,0,0-.29.58,3.52,3.52,0,0,0-.17.65A4.25,4.25,0,0,0,380,143.93Z"/><path class="cls-2" d="M390,140.46a2.71,2.71,0,0,1,1.3.29,2.6,2.6,0,0,1,.9.79,3.45,3.45,0,0,1,.52,1.13,5.21,5.21,0,0,1,.17,1.34v.13h-5.05a3.58,3.58,0,0,0,.13.94,2.59,2.59,0,0,0,.39.83,2,2,0,0,0,.66.59,1.92,1.92,0,0,0,.95.22,2.44,2.44,0,0,0,.7-.09,2,2,0,0,0,.56-.26,1.76,1.76,0,0,0,.42-.39,2.41,2.41,0,0,0,.29-.49h.79a3,3,0,0,1-.38.79,2.48,2.48,0,0,1-.59.6,2.68,2.68,0,0,1-.79.39,3.34,3.34,0,0,1-1,.14,2.94,2.94,0,0,1-1.3-.27,2.56,2.56,0,0,1-.91-.73,3.12,3.12,0,0,1-.54-1.1,5.14,5.14,0,0,1-.18-1.37,4.66,4.66,0,0,1,.18-1.28,3.36,3.36,0,0,1,.54-1.11,2.74,2.74,0,0,1,.92-.78A2.79,2.79,0,0,1,390,140.46Zm2.09,3a3,3,0,0,0-.16-.85,2.44,2.44,0,0,0-.41-.75,2.07,2.07,0,0,0-.65-.54,1.84,1.84,0,0,0-.88-.21,1.84,1.84,0,0,0-1.5.7,2.7,2.7,0,0,0-.42.75,4.31,4.31,0,0,0-.23.9Z"/><path class="cls-2" d="M399.48,145.43a1.67,1.67,0,0,1-.22.88,1.89,1.89,0,0,1-.59.62,2.74,2.74,0,0,1-.84.36,4,4,0,0,1-1,.12,3.66,3.66,0,0,1-1.07-.14,2.4,2.4,0,0,1-.8-.41,2,2,0,0,1-.53-.64,2.4,2.4,0,0,1-.25-.85H395a1.7,1.7,0,0,0,.2.56,1.41,1.41,0,0,0,.38.43,1.8,1.8,0,0,0,.57.28,2.56,2.56,0,0,0,.74.1,3,3,0,0,0,.6-.06,2.05,2.05,0,0,0,.58-.21,1.35,1.35,0,0,0,.44-.38,1,1,0,0,0,.18-.59.93.93,0,0,0-.34-.73,2.6,2.6,0,0,0-1.13-.46l-1-.22a4,4,0,0,1-.77-.24,2.1,2.1,0,0,1-.58-.37,1.46,1.46,0,0,1-.36-.5,1.62,1.62,0,0,1-.12-.65,1.57,1.57,0,0,1,.21-.83,1.78,1.78,0,0,1,.56-.57,2.53,2.53,0,0,1,.78-.33,3.77,3.77,0,0,1,.89-.11,3.27,3.27,0,0,1,.92.12,2.29,2.29,0,0,1,.73.35,1.83,1.83,0,0,1,.5.57,2.08,2.08,0,0,1,.25.78h-.8a1.32,1.32,0,0,0-.19-.5,1.24,1.24,0,0,0-.36-.37,1.69,1.69,0,0,0-.5-.22,2.36,2.36,0,0,0-.61-.08,2.85,2.85,0,0,0-.58.06,1.59,1.59,0,0,0-.51.19,1.07,1.07,0,0,0-.36.35,1,1,0,0,0-.13.53.74.74,0,0,0,.13.44,1.27,1.27,0,0,0,.33.32,1.93,1.93,0,0,0,.44.22,3.64,3.64,0,0,0,.46.13l1.37.3a2.85,2.85,0,0,1,.59.21,1.77,1.77,0,0,1,.5.35,1.64,1.64,0,0,1,.34.51A1.71,1.71,0,0,1,399.48,145.43Z"/><path class="cls-2" d="M404,140.46a3.46,3.46,0,0,1,1,.13,2.53,2.53,0,0,1,.78.38,2,2,0,0,1,.56.61,2.31,2.31,0,0,1,.29.82h-.8a1.73,1.73,0,0,0-.22-.52,1.5,1.5,0,0,0-.37-.4,1.7,1.7,0,0,0-.53-.26,2.34,2.34,0,0,0-.68-.09,2,2,0,0,0-1,.23,2.19,2.19,0,0,0-.72.63,2.91,2.91,0,0,0-.44.9,3.58,3.58,0,0,0-.15,1,3.67,3.67,0,0,0,.14,1,2.88,2.88,0,0,0,.42.9,2.26,2.26,0,0,0,.71.65,2,2,0,0,0,1,.25,1.93,1.93,0,0,0,.71-.13,1.88,1.88,0,0,0,.56-.34,1.79,1.79,0,0,0,.39-.49,1.87,1.87,0,0,0,.21-.58h.8a3,3,0,0,1-.29.85,2.49,2.49,0,0,1-.55.7,2.54,2.54,0,0,1-.8.48,2.88,2.88,0,0,1-1,.18,3,3,0,0,1-1.29-.27,2.85,2.85,0,0,1-1-.74,3.28,3.28,0,0,1-.61-1.1,4.47,4.47,0,0,1,0-2.67,3.31,3.31,0,0,1,.59-1.11,2.9,2.9,0,0,1,1-.77A3,3,0,0,1,404,140.46Z"/><path class="cls-2" d="M408.39,147.21v-6.56h.74v1.54h0a2.56,2.56,0,0,1,.9-1.2,2.32,2.32,0,0,1,1.38-.43h.29v.8h-.18a2.22,2.22,0,0,0-1.71.69,2.36,2.36,0,0,0-.64,1.69v3.48Z"/><path class="cls-2" d="M413.84,137.78v1.29H413v-1.29Zm0,2.87v6.56H413v-6.56Z"/><path class="cls-2" d="M422.11,143.93a4.77,4.77,0,0,1-.17,1.28,3.38,3.38,0,0,1-.53,1.11,2.69,2.69,0,0,1-.92.79,2.78,2.78,0,0,1-1.32.3,2.81,2.81,0,0,1-.71-.09,2.45,2.45,0,0,1-.65-.27,2.29,2.29,0,0,1-.54-.45,2.21,2.21,0,0,1-.38-.63h0v3.67h-.8v-9h.74v1.25h0a2.24,2.24,0,0,1,.39-.61,2.29,2.29,0,0,1,.55-.45,2.67,2.67,0,0,1,.67-.28,2.81,2.81,0,0,1,.74-.1,2.85,2.85,0,0,1,1.29.28,2.64,2.64,0,0,1,.92.75,3.32,3.32,0,0,1,.56,1.1A4.67,4.67,0,0,1,422.11,143.93Zm-.8,0a4.48,4.48,0,0,0-.11-1,2.84,2.84,0,0,0-.37-.9,2.07,2.07,0,0,0-.67-.66,1.9,1.9,0,0,0-1-.26,2.09,2.09,0,0,0-1.7.7,3.21,3.21,0,0,0-.58,2.09,4.2,4.2,0,0,0,.13,1,2.68,2.68,0,0,0,.4.9,2.1,2.1,0,0,0,.71.64,2.16,2.16,0,0,0,1.06.24,1.87,1.87,0,0,0,1-.24,2,2,0,0,0,.67-.63,2.87,2.87,0,0,0,.39-.9A4.14,4.14,0,0,0,421.31,143.93Z"/><path class="cls-2" d="M426.62,147.27H426a3,3,0,0,1-.68-.06,1,1,0,0,1-.45-.23.89.89,0,0,1-.25-.43,2.65,2.65,0,0,1-.07-.68v-4.56h-1.32v-.67h1.32v-2h.8v2h1.5v.67h-1.5v4.48a1.76,1.76,0,0,0,0,.34.64.64,0,0,0,.11.25.5.5,0,0,0,.21.16.87.87,0,0,0,.35.06h.6l.21,0v.68Z"/><path class="cls-2" d="M429.4,137.78v1.29h-.8v-1.29Zm0,2.87v6.56h-.8v-6.56Z"/><path class="cls-2" d="M437.43,143.93a4.29,4.29,0,0,1-.2,1.31,3.31,3.31,0,0,1-.61,1.13,2.9,2.9,0,0,1-2.29,1,2.84,2.84,0,0,1-2.24-1,4.07,4.07,0,0,1,0-5,3.08,3.08,0,0,1,4.51,0A3.65,3.65,0,0,1,437.43,143.93Zm-.8,0a3.8,3.8,0,0,0-.13-1,2.81,2.81,0,0,0-.42-.9,2.25,2.25,0,0,0-.72-.65,2,2,0,0,0-1-.25,2,2,0,0,0-1,.24,2.24,2.24,0,0,0-.72.64,2.85,2.85,0,0,0-.44.9,3.66,3.66,0,0,0-.15,1,3.58,3.58,0,0,0,.14,1,3,3,0,0,0,.43.9,2.24,2.24,0,0,0,.71.65,2,2,0,0,0,1,.25,2,2,0,0,0,1-.24,2.33,2.33,0,0,0,.72-.63,2.8,2.8,0,0,0,.45-.89A3.54,3.54,0,0,0,436.62,143.93Z"/><path class="cls-2" d="M442.14,140.46a3.35,3.35,0,0,1,1.08.16,1.83,1.83,0,0,1,.74.46,1.87,1.87,0,0,1,.43.77,3.79,3.79,0,0,1,.14,1.08v4.28h-.8v-4.15a2.2,2.2,0,0,0-.41-1.44,1.54,1.54,0,0,0-1.25-.49,2.07,2.07,0,0,0-.86.17,1.88,1.88,0,0,0-.65.48,2.16,2.16,0,0,0-.41.71,2.63,2.63,0,0,0-.14.88v3.84h-.8v-6.56h.8v1.14h0a2,2,0,0,1,.35-.56,2.18,2.18,0,0,1,.49-.42,2.33,2.33,0,0,1,.6-.26A2.48,2.48,0,0,1,442.14,140.46Z"/><path class="cls-2" d="M452.84,147.27h-.66a3,3,0,0,1-.68-.06,1,1,0,0,1-.45-.23.89.89,0,0,1-.25-.43,2.65,2.65,0,0,1-.07-.68v-4.56h-1.32v-.67h1.32v-2h.8v2H453v.67h-1.5v4.48a1.76,1.76,0,0,0,0,.34.64.64,0,0,0,.11.25.5.5,0,0,0,.21.16.87.87,0,0,0,.35.06h.6l.21,0v.68Z"/><path class="cls-2" d="M457.2,140.46a2.71,2.71,0,0,1,1.3.29,2.6,2.6,0,0,1,.9.79,3.45,3.45,0,0,1,.52,1.13,5.21,5.21,0,0,1,.17,1.34v.13H455a3.58,3.58,0,0,0,.13.94,2.59,2.59,0,0,0,.39.83,2,2,0,0,0,.66.59,1.92,1.92,0,0,0,.95.22,2.44,2.44,0,0,0,.7-.09,2,2,0,0,0,.56-.26,1.76,1.76,0,0,0,.42-.39,2.41,2.41,0,0,0,.29-.49h.79a3,3,0,0,1-.38.79,2.48,2.48,0,0,1-.59.6,2.68,2.68,0,0,1-.79.39,3.34,3.34,0,0,1-1,.14,2.94,2.94,0,0,1-1.3-.27,2.56,2.56,0,0,1-.91-.73,3.12,3.12,0,0,1-.54-1.1,5.14,5.14,0,0,1-.18-1.37,4.66,4.66,0,0,1,.18-1.28,3.36,3.36,0,0,1,.54-1.11,2.74,2.74,0,0,1,.92-.78A2.79,2.79,0,0,1,457.2,140.46Zm2.09,3a3,3,0,0,0-.16-.85,2.44,2.44,0,0,0-.41-.75,2.07,2.07,0,0,0-.65-.54,1.84,1.84,0,0,0-.88-.21,1.84,1.84,0,0,0-1.5.7,2.7,2.7,0,0,0-.42.75,4.31,4.31,0,0,0-.23.9Z"/><path class="cls-2" d="M461.93,140.65l1.87,2.5,1.83-2.5h1l-2.37,3.14,2.56,3.42h-1l-2.06-2.76-2,2.76h-1l2.55-3.41-2.36-3.15Z"/><path class="cls-2" d="M470.77,147.27h-.66a3,3,0,0,1-.68-.06A1,1,0,0,1,469,147a.89.89,0,0,1-.25-.43,2.65,2.65,0,0,1-.07-.68v-4.56h-1.32v-.67h1.32v-2h.8v2H471v.67h-1.5v4.48a1.76,1.76,0,0,0,0,.34.64.64,0,0,0,.11.25.5.5,0,0,0,.21.16.87.87,0,0,0,.35.06h.6l.21,0v.68Z"/><path class="cls-2" d="M349,175.66v.7h-5.09v3.09h4.77v.69h-4.77v3.38h5.14v.7h-6v-8.55Z"/><path class="cls-2" d="M350.5,177.65l2.06,5.76h0l2-5.76h.83L353,184.21h-.85l-2.54-6.56Z"/><path class="cls-2" d="M359.36,177.46a2.71,2.71,0,0,1,1.3.29,2.6,2.6,0,0,1,.9.79,3.45,3.45,0,0,1,.52,1.13,5.21,5.21,0,0,1,.17,1.34v.13h-5.05a3.58,3.58,0,0,0,.13.94,2.59,2.59,0,0,0,.39.83,2,2,0,0,0,.66.59,1.92,1.92,0,0,0,.95.22,2.44,2.44,0,0,0,.7-.09,2,2,0,0,0,.56-.26A1.76,1.76,0,0,0,361,183a2.41,2.41,0,0,0,.29-.49h.79a3,3,0,0,1-.38.79,2.48,2.48,0,0,1-.59.6,2.68,2.68,0,0,1-.79.39,3.34,3.34,0,0,1-1,.14,2.94,2.94,0,0,1-1.3-.27,2.56,2.56,0,0,1-.91-.73,3.12,3.12,0,0,1-.54-1.1,5.14,5.14,0,0,1-.18-1.37,4.66,4.66,0,0,1,.18-1.28,3.36,3.36,0,0,1,.54-1.11,2.74,2.74,0,0,1,.92-.78A2.79,2.79,0,0,1,359.36,177.46Zm2.09,3a3,3,0,0,0-.16-.85,2.44,2.44,0,0,0-.41-.75,2.07,2.07,0,0,0-.65-.54,1.84,1.84,0,0,0-.88-.21,1.84,1.84,0,0,0-1.5.7,2.7,2.7,0,0,0-.42.75,4.31,4.31,0,0,0-.23.9Z"/><path class="cls-2" d="M366.84,177.46a3.35,3.35,0,0,1,1.08.16,1.83,1.83,0,0,1,.74.46,1.87,1.87,0,0,1,.43.77,3.79,3.79,0,0,1,.14,1.08v4.28h-.8v-4.15a2.2,2.2,0,0,0-.41-1.44,1.54,1.54,0,0,0-1.25-.49,2.07,2.07,0,0,0-.86.17,1.88,1.88,0,0,0-.65.48,2.16,2.16,0,0,0-.41.71,2.63,2.63,0,0,0-.14.88v3.84h-.8v-6.56h.8v1.14h0a2,2,0,0,1,.35-.56,2.18,2.18,0,0,1,.49-.42,2.33,2.33,0,0,1,.6-.26A2.48,2.48,0,0,1,366.84,177.46Z"/><path class="cls-2" d="M374,184.27h-.66a3,3,0,0,1-.68-.06,1,1,0,0,1-.45-.23.89.89,0,0,1-.25-.43,2.65,2.65,0,0,1-.07-.68v-4.56h-1.32v-.67h1.32v-2h.8v2h1.5v.67h-1.5v4.48a1.76,1.76,0,0,0,0,.34.64.64,0,0,0,.11.25.5.5,0,0,0,.21.16.87.87,0,0,0,.35.06h.6l.21,0v.68Z"/><path class="cls-2" d="M385.24,175.13v9.08h-.74V183h0a2,2,0,0,1-.39.59,2.57,2.57,0,0,1-.56.45,2.8,2.8,0,0,1-.67.29,2.63,2.63,0,0,1-.72.1,2.8,2.8,0,0,1-1.28-.28,2.68,2.68,0,0,1-.92-.75,3.32,3.32,0,0,1-.56-1.11,4.68,4.68,0,0,1-.19-1.34,4.83,4.83,0,0,1,.17-1.29,3.31,3.31,0,0,1,.53-1.11,2.69,2.69,0,0,1,.92-.78,3,3,0,0,1,2-.2,2.56,2.56,0,0,1,.65.27,2.25,2.25,0,0,1,.54.45,2.07,2.07,0,0,1,.38.63h0v-3.77Zm-5.26,5.8a4.17,4.17,0,0,0,.05.65,3.7,3.7,0,0,0,.16.64,2.82,2.82,0,0,0,.28.58,2.15,2.15,0,0,0,.41.48,1.8,1.8,0,0,0,.55.32,2,2,0,0,0,.7.12,2.08,2.08,0,0,0,1.73-.84,2.66,2.66,0,0,0,.43-.89,4,4,0,0,0,.14-1.06,4,4,0,0,0-.13-1,2.73,2.73,0,0,0-.41-.9,2.06,2.06,0,0,0-1.76-.88,1.94,1.94,0,0,0-.68.11,1.8,1.8,0,0,0-.54.31,2.15,2.15,0,0,0-.41.47,2.8,2.8,0,0,0-.29.58,3.52,3.52,0,0,0-.17.65A4.25,4.25,0,0,0,380,180.93Z"/><path class="cls-2" d="M390,177.46a2.71,2.71,0,0,1,1.3.29,2.6,2.6,0,0,1,.9.79,3.45,3.45,0,0,1,.52,1.13,5.21,5.21,0,0,1,.17,1.34v.13h-5.05a3.58,3.58,0,0,0,.13.94,2.59,2.59,0,0,0,.39.83,2,2,0,0,0,.66.59,1.92,1.92,0,0,0,.95.22,2.44,2.44,0,0,0,.7-.09,2,2,0,0,0,.56-.26,1.76,1.76,0,0,0,.42-.39,2.41,2.41,0,0,0,.29-.49h.79a3,3,0,0,1-.38.79,2.48,2.48,0,0,1-.59.6,2.68,2.68,0,0,1-.79.39,3.34,3.34,0,0,1-1,.14,2.94,2.94,0,0,1-1.3-.27,2.56,2.56,0,0,1-.91-.73,3.12,3.12,0,0,1-.54-1.1,5.14,5.14,0,0,1-.18-1.37,4.66,4.66,0,0,1,.18-1.28,3.36,3.36,0,0,1,.54-1.11,2.74,2.74,0,0,1,.92-.78A2.79,2.79,0,0,1,390,177.46Zm2.09,3a3,3,0,0,0-.16-.85,2.44,2.44,0,0,0-.41-.75,2.07,2.07,0,0,0-.65-.54,1.84,1.84,0,0,0-.88-.21,1.84,1.84,0,0,0-1.5.7,2.7,2.7,0,0,0-.42.75,4.31,4.31,0,0,0-.23.9Z"/><path class="cls-2" d="M399.48,182.43a1.67,1.67,0,0,1-.22.88,1.89,1.89,0,0,1-.59.62,2.74,2.74,0,0,1-.84.36,4,4,0,0,1-1,.12,3.66,3.66,0,0,1-1.07-.14,2.4,2.4,0,0,1-.8-.41,2,2,0,0,1-.53-.64,2.4,2.4,0,0,1-.25-.85H395a1.7,1.7,0,0,0,.2.56,1.41,1.41,0,0,0,.38.43,1.8,1.8,0,0,0,.57.28,2.56,2.56,0,0,0,.74.1,3,3,0,0,0,.6-.06,2.05,2.05,0,0,0,.58-.21,1.35,1.35,0,0,0,.44-.38,1,1,0,0,0,.18-.59.93.93,0,0,0-.34-.73,2.6,2.6,0,0,0-1.13-.46l-1-.22a4,4,0,0,1-.77-.24,2.1,2.1,0,0,1-.58-.37,1.46,1.46,0,0,1-.36-.5,1.62,1.62,0,0,1-.12-.65,1.57,1.57,0,0,1,.21-.83,1.78,1.78,0,0,1,.56-.57,2.53,2.53,0,0,1,.78-.33,3.77,3.77,0,0,1,.89-.11,3.27,3.27,0,0,1,.92.12,2.29,2.29,0,0,1,.73.35,1.83,1.83,0,0,1,.5.57,2.08,2.08,0,0,1,.25.78h-.8a1.32,1.32,0,0,0-.19-.5,1.24,1.24,0,0,0-.36-.37,1.69,1.69,0,0,0-.5-.22,2.36,2.36,0,0,0-.61-.08,2.85,2.85,0,0,0-.58.06,1.59,1.59,0,0,0-.51.19,1.07,1.07,0,0,0-.36.35,1,1,0,0,0-.13.53.74.74,0,0,0,.13.44,1.27,1.27,0,0,0,.33.32,1.93,1.93,0,0,0,.44.22,3.64,3.64,0,0,0,.46.13l1.37.3a2.85,2.85,0,0,1,.59.21,1.77,1.77,0,0,1,.5.35,1.64,1.64,0,0,1,.34.51A1.71,1.71,0,0,1,399.48,182.43Z"/><path class="cls-2" d="M404,177.46a3.46,3.46,0,0,1,1,.13,2.53,2.53,0,0,1,.78.38,2,2,0,0,1,.56.61,2.31,2.31,0,0,1,.29.82h-.8a1.73,1.73,0,0,0-.22-.52,1.5,1.5,0,0,0-.37-.4,1.7,1.7,0,0,0-.53-.26,2.34,2.34,0,0,0-.68-.09,2,2,0,0,0-1,.23,2.19,2.19,0,0,0-.72.63,2.91,2.91,0,0,0-.44.9,3.58,3.58,0,0,0-.15,1,3.67,3.67,0,0,0,.14,1,2.88,2.88,0,0,0,.42.9,2.26,2.26,0,0,0,.71.65,2,2,0,0,0,1,.25,1.93,1.93,0,0,0,.71-.13,1.88,1.88,0,0,0,.56-.34,1.79,1.79,0,0,0,.39-.49,1.87,1.87,0,0,0,.21-.58h.8a3,3,0,0,1-.29.85,2.49,2.49,0,0,1-.55.7,2.54,2.54,0,0,1-.8.48,2.88,2.88,0,0,1-1,.18,3,3,0,0,1-1.29-.27,2.85,2.85,0,0,1-1-.74,3.28,3.28,0,0,1-.61-1.1,4.47,4.47,0,0,1,0-2.67,3.31,3.31,0,0,1,.59-1.11,2.9,2.9,0,0,1,1-.77A3,3,0,0,1,404,177.46Z"/><path class="cls-2" d="M408.39,184.21v-6.56h.74v1.54h0a2.56,2.56,0,0,1,.9-1.2,2.32,2.32,0,0,1,1.38-.43h.29v.8h-.18a2.22,2.22,0,0,0-1.71.69,2.36,2.36,0,0,0-.64,1.69v3.48Z"/><path class="cls-2" d="M413.84,174.78v1.29H413v-1.29Zm0,2.87v6.56H413v-6.56Z"/><path class="cls-2" d="M422.11,180.93a4.77,4.77,0,0,1-.17,1.28,3.38,3.38,0,0,1-.53,1.11,2.69,2.69,0,0,1-.92.79,2.78,2.78,0,0,1-1.32.3,2.81,2.81,0,0,1-.71-.09,2.45,2.45,0,0,1-.65-.27,2.29,2.29,0,0,1-.54-.45,2.21,2.21,0,0,1-.38-.63h0v3.67h-.8v-9h.74v1.25h0a2.24,2.24,0,0,1,.39-.61,2.29,2.29,0,0,1,.55-.45,2.67,2.67,0,0,1,.67-.28,2.81,2.81,0,0,1,.74-.1,2.85,2.85,0,0,1,1.29.28,2.64,2.64,0,0,1,.92.75,3.32,3.32,0,0,1,.56,1.1A4.67,4.67,0,0,1,422.11,180.93Zm-.8,0a4.48,4.48,0,0,0-.11-1,2.84,2.84,0,0,0-.37-.9,2.07,2.07,0,0,0-.67-.66,1.9,1.9,0,0,0-1-.26,2.09,2.09,0,0,0-1.7.7,3.21,3.21,0,0,0-.58,2.09,4.2,4.2,0,0,0,.13,1,2.68,2.68,0,0,0,.4.9,2.1,2.1,0,0,0,.71.64,2.16,2.16,0,0,0,1.06.24,1.87,1.87,0,0,0,1-.24,2,2,0,0,0,.67-.63,2.87,2.87,0,0,0,.39-.9A4.14,4.14,0,0,0,421.31,180.93Z"/><path class="cls-2" d="M426.62,184.27H426a3,3,0,0,1-.68-.06,1,1,0,0,1-.45-.23.89.89,0,0,1-.25-.43,2.65,2.65,0,0,1-.07-.68v-4.56h-1.32v-.67h1.32v-2h.8v2h1.5v.67h-1.5v4.48a1.76,1.76,0,0,0,0,.34.64.64,0,0,0,.11.25.5.5,0,0,0,.21.16.87.87,0,0,0,.35.06h.6l.21,0v.68Z"/><path class="cls-2" d="M429.4,174.78v1.29h-.8v-1.29Zm0,2.87v6.56h-.8v-6.56Z"/><path class="cls-2" d="M437.43,180.93a4.29,4.29,0,0,1-.2,1.31,3.31,3.31,0,0,1-.61,1.13,2.9,2.9,0,0,1-2.29,1,2.84,2.84,0,0,1-2.24-1,4.07,4.07,0,0,1,0-5,3.08,3.08,0,0,1,4.51,0A3.65,3.65,0,0,1,437.43,180.93Zm-.8,0a3.8,3.8,0,0,0-.13-1,2.81,2.81,0,0,0-.42-.9,2.25,2.25,0,0,0-.72-.65,2,2,0,0,0-1-.25,2,2,0,0,0-1,.24,2.24,2.24,0,0,0-.72.64,2.85,2.85,0,0,0-.44.9,3.66,3.66,0,0,0-.15,1,3.58,3.58,0,0,0,.14,1,3,3,0,0,0,.43.9,2.24,2.24,0,0,0,.71.65,2,2,0,0,0,1,.25,2,2,0,0,0,1-.24,2.33,2.33,0,0,0,.72-.63,2.8,2.8,0,0,0,.45-.89A3.54,3.54,0,0,0,436.62,180.93Z"/><path class="cls-2" d="M442.14,177.46a3.35,3.35,0,0,1,1.08.16,1.83,1.83,0,0,1,.74.46,1.87,1.87,0,0,1,.43.77,3.79,3.79,0,0,1,.14,1.08v4.28h-.8v-4.15a2.2,2.2,0,0,0-.41-1.44,1.54,1.54,0,0,0-1.25-.49,2.07,2.07,0,0,0-.86.17,1.88,1.88,0,0,0-.65.48,2.16,2.16,0,0,0-.41.71,2.63,2.63,0,0,0-.14.88v3.84h-.8v-6.56h.8v1.14h0a2,2,0,0,1,.35-.56,2.18,2.18,0,0,1,.49-.42,2.33,2.33,0,0,1,.6-.26A2.48,2.48,0,0,1,442.14,177.46Z"/><path class="cls-2" d="M452.84,184.27h-.66a3,3,0,0,1-.68-.06,1,1,0,0,1-.45-.23.89.89,0,0,1-.25-.43,2.65,2.65,0,0,1-.07-.68v-4.56h-1.32v-.67h1.32v-2h.8v2H453v.67h-1.5v4.48a1.76,1.76,0,0,0,0,.34.64.64,0,0,0,.11.25.5.5,0,0,0,.21.16.87.87,0,0,0,.35.06h.6l.21,0v.68Z"/><path class="cls-2" d="M457.2,177.46a2.71,2.71,0,0,1,1.3.29,2.6,2.6,0,0,1,.9.79,3.45,3.45,0,0,1,.52,1.13,5.21,5.21,0,0,1,.17,1.34v.13H455a3.58,3.58,0,0,0,.13.94,2.59,2.59,0,0,0,.39.83,2,2,0,0,0,.66.59,1.92,1.92,0,0,0,.95.22,2.44,2.44,0,0,0,.7-.09,2,2,0,0,0,.56-.26,1.76,1.76,0,0,0,.42-.39,2.41,2.41,0,0,0,.29-.49h.79a3,3,0,0,1-.38.79,2.48,2.48,0,0,1-.59.6,2.68,2.68,0,0,1-.79.39,3.34,3.34,0,0,1-1,.14,2.94,2.94,0,0,1-1.3-.27,2.56,2.56,0,0,1-.91-.73,3.12,3.12,0,0,1-.54-1.1,5.14,5.14,0,0,1-.18-1.37,4.66,4.66,0,0,1,.18-1.28,3.36,3.36,0,0,1,.54-1.11,2.74,2.74,0,0,1,.92-.78A2.79,2.79,0,0,1,457.2,177.46Zm2.09,3a3,3,0,0,0-.16-.85,2.44,2.44,0,0,0-.41-.75,2.07,2.07,0,0,0-.65-.54,1.84,1.84,0,0,0-.88-.21,1.84,1.84,0,0,0-1.5.7,2.7,2.7,0,0,0-.42.75,4.31,4.31,0,0,0-.23.9Z"/><path class="cls-2" d="M461.93,177.65l1.87,2.5,1.83-2.5h1l-2.37,3.14,2.56,3.42h-1l-2.06-2.76-2,2.76h-1l2.55-3.41-2.36-3.15Z"/><path class="cls-2" d="M470.77,184.27h-.66a3,3,0,0,1-.68-.06A1,1,0,0,1,469,184a.89.89,0,0,1-.25-.43,2.65,2.65,0,0,1-.07-.68v-4.56h-1.32v-.67h1.32v-2h.8v2H471v.67h-1.5v4.48a1.76,1.76,0,0,0,0,.34.64.64,0,0,0,.11.25.5.5,0,0,0,.21.16.87.87,0,0,0,.35.06h.6l.21,0v.68Z"/><path class="cls-2" d="M564.95,64.64v7.87h4.8v.7h-5.62V64.64Z"/><path class="cls-2" d="M576.48,69.93a4.29,4.29,0,0,1-.2,1.31,3.31,3.31,0,0,1-.61,1.13,2.9,2.9,0,0,1-2.29,1,2.84,2.84,0,0,1-2.24-1,4.07,4.07,0,0,1,0-5,3.08,3.08,0,0,1,4.51,0A3.65,3.65,0,0,1,576.48,69.93Zm-.8,0a3.8,3.8,0,0,0-.13-1,2.81,2.81,0,0,0-.42-.9,2.25,2.25,0,0,0-.72-.65,2,2,0,0,0-1-.25,2,2,0,0,0-1,.24,2.24,2.24,0,0,0-.72.64,2.85,2.85,0,0,0-.44.9,3.66,3.66,0,0,0-.15,1,3.58,3.58,0,0,0,.14,1,3,3,0,0,0,.43.9,2.24,2.24,0,0,0,.71.65,2,2,0,0,0,1,.25,2,2,0,0,0,1-.24,2.33,2.33,0,0,0,.72-.63,2.8,2.8,0,0,0,.45-.89A3.54,3.54,0,0,0,575.67,69.93Z"/><path class="cls-2" d="M581,66.46a3.46,3.46,0,0,1,1,.13,2.53,2.53,0,0,1,.78.38,2,2,0,0,1,.56.61,2.31,2.31,0,0,1,.29.82h-.8a1.73,1.73,0,0,0-.22-.52,1.5,1.5,0,0,0-.37-.4,1.7,1.7,0,0,0-.53-.26,2.34,2.34,0,0,0-.68-.09,2,2,0,0,0-1,.23,2.19,2.19,0,0,0-.72.63,2.91,2.91,0,0,0-.44.9,3.58,3.58,0,0,0-.15,1,3.67,3.67,0,0,0,.14,1,2.88,2.88,0,0,0,.42.9,2.26,2.26,0,0,0,.71.65,2,2,0,0,0,1,.25,1.93,1.93,0,0,0,.71-.13,1.88,1.88,0,0,0,.56-.34,1.79,1.79,0,0,0,.39-.49,1.87,1.87,0,0,0,.21-.58h.8a3,3,0,0,1-.29.85,2.49,2.49,0,0,1-.55.7,2.54,2.54,0,0,1-.8.48,2.88,2.88,0,0,1-1,.18,3,3,0,0,1-1.29-.27,2.85,2.85,0,0,1-1-.74,3.28,3.28,0,0,1-.61-1.1,4.47,4.47,0,0,1,0-2.67,3.31,3.31,0,0,1,.59-1.11,2.9,2.9,0,0,1,1-.77A3,3,0,0,1,581,66.46Z"/><path class="cls-2" d="M591.08,73.16l-.27,0h-.24a1.37,1.37,0,0,1-.44-.06.65.65,0,0,1-.29-.2.82.82,0,0,1-.16-.35,2.43,2.43,0,0,1,0-.53h0a3,3,0,0,1-1,1,2.79,2.79,0,0,1-1.35.29,2.46,2.46,0,0,1-1.6-.5,1.75,1.75,0,0,1-.6-1.43,1.66,1.66,0,0,1,.66-1.43,6.79,6.79,0,0,1,3-.69,2,2,0,0,0,.44-.08.75.75,0,0,0,.29-.16.6.6,0,0,0,.16-.26,1.28,1.28,0,0,0,0-.38,1.24,1.24,0,0,0-.4-1,2,2,0,0,0-1.31-.34,2.61,2.61,0,0,0-.72.09,1.65,1.65,0,0,0-.53.25,1.13,1.13,0,0,0-.33.39,1.23,1.23,0,0,0-.13.49h-.8a2,2,0,0,1,.22-.78,1.78,1.78,0,0,1,.51-.59,2.43,2.43,0,0,1,.81-.38,4,4,0,0,1,1.09-.13,2.64,2.64,0,0,1,1.83.54,2,2,0,0,1,.59,1.52v3.56a.47.47,0,0,0,.11.33.46.46,0,0,0,.36.12.7.7,0,0,0,.25,0Zm-1.52-3.54h0q-.12.22-.77.31l-.67.1-.74.12a2.67,2.67,0,0,0-1.17.44,1,1,0,0,0-.39.84,1.16,1.16,0,0,0,.43.94,1.6,1.6,0,0,0,1,.35,2.36,2.36,0,0,0,1.63-.58,1.85,1.85,0,0,0,.65-1.44Z"/><path class="cls-2" d="M593.34,64.13v9.08h-.8V64.13Z"/><path class="cls-2" d="M571.64,105.93a4.7,4.7,0,0,1-1.1,3.2,3.68,3.68,0,0,1-2.94,1.27,3.72,3.72,0,0,1-2.95-1.25,5.26,5.26,0,0,1,0-6.43,3.72,3.72,0,0,1,2.95-1.25,4.81,4.81,0,0,1,.77.06,4,4,0,0,1,.74.19,3.72,3.72,0,0,1,.69.34,3.43,3.43,0,0,1,.61.49,3.49,3.49,0,0,1,.55.71,4.58,4.58,0,0,1,.38.83,5.41,5.41,0,0,1,.22.91A6.57,6.57,0,0,1,571.64,105.93Zm-.81,0a4.21,4.21,0,0,0-.85-2.69,2.86,2.86,0,0,0-2.38-1.08,2.89,2.89,0,0,0-2.36,1.05,4.15,4.15,0,0,0-.86,2.71,4.22,4.22,0,0,0,.85,2.7,3.16,3.16,0,0,0,4.74,0A4.21,4.21,0,0,0,570.83,105.93Z"/><path class="cls-2" d="M578.77,101.64v.7h-4.62v3.09h4.1v.7h-4.1v4.08h-.82v-8.57Z"/><path class="cls-2" d="M585.58,101.64v.7H581v3.09h4.1v.7H581v4.08h-.82v-8.57Z"/><path class="cls-2" d="M570.66,140.88a2.33,2.33,0,0,1-.44,1.44,1.81,1.81,0,0,1-.53.47,2.4,2.4,0,0,1-.7.27v0a2.42,2.42,0,0,1,.69.22,1.16,1.16,0,0,1,.4.34,1.8,1.8,0,0,1,.29.63,4.48,4.48,0,0,1,.11.71q0,.37,0,.77a6,6,0,0,0,.09.82,1.77,1.77,0,0,0,.08.27,2.9,2.9,0,0,0,.18.37H570a3.27,3.27,0,0,1-.22-1.33,3.62,3.62,0,0,0-.49-2,1.38,1.38,0,0,0-1.11-.47h-3.21v3.8h-.82v-8.57h4a3.42,3.42,0,0,1,1,.14,2.35,2.35,0,0,1,.82.44A2,2,0,0,1,570.66,140.88Zm-.82.16a2,2,0,0,0-.13-.73,1.44,1.44,0,0,0-.36-.53,1.51,1.51,0,0,0-.57-.33,2.4,2.4,0,0,0-.74-.11h-3.09v3.37H568a1.9,1.9,0,0,0,1.27-.46A1.51,1.51,0,0,0,569.84,141Z"/><path class="cls-2" d="M575.09,140.46a2.71,2.71,0,0,1,1.3.29,2.6,2.6,0,0,1,.9.79,3.45,3.45,0,0,1,.52,1.13A5.21,5.21,0,0,1,578,144v.13h-5.05a3.58,3.58,0,0,0,.13.94,2.59,2.59,0,0,0,.39.83,2,2,0,0,0,.66.59,1.92,1.92,0,0,0,.95.22,2.44,2.44,0,0,0,.7-.09,2,2,0,0,0,.56-.26,1.76,1.76,0,0,0,.42-.39,2.41,2.41,0,0,0,.29-.49h.79a3,3,0,0,1-.38.79,2.48,2.48,0,0,1-.59.6,2.68,2.68,0,0,1-.79.39,3.34,3.34,0,0,1-1,.14,2.94,2.94,0,0,1-1.3-.27,2.56,2.56,0,0,1-.91-.73,3.12,3.12,0,0,1-.54-1.1,5.14,5.14,0,0,1-.18-1.37,4.66,4.66,0,0,1,.18-1.28,3.36,3.36,0,0,1,.54-1.11,2.74,2.74,0,0,1,.92-.78A2.79,2.79,0,0,1,575.09,140.46Zm2.09,3a3,3,0,0,0-.16-.85,2.44,2.44,0,0,0-.41-.75,2.07,2.07,0,0,0-.65-.54,1.84,1.84,0,0,0-.88-.21,1.84,1.84,0,0,0-1.5.7,2.7,2.7,0,0,0-.42.75,4.31,4.31,0,0,0-.23.9Z"/><path class="cls-2" d="M587.93,147.21v-4.46a1.73,1.73,0,0,0-.37-1.22,1.85,1.85,0,0,0-2.5.21,2.8,2.8,0,0,0-.45,1.71v3.77h-.81v-4.49a1.81,1.81,0,0,0-.34-1.17,1.25,1.25,0,0,0-1-.42,1.72,1.72,0,0,0-1.46.65,2.72,2.72,0,0,0-.5,1.71v3.72h-.8v-6.56h.74v1.1h0a2.26,2.26,0,0,1,2.15-1.29,2.44,2.44,0,0,1,.64.08,1.86,1.86,0,0,1,.54.24,1.66,1.66,0,0,1,.42.4,1.86,1.86,0,0,1,.28.55,2.16,2.16,0,0,1,.85-1,2.4,2.4,0,0,1,1.24-.32,2.12,2.12,0,0,1,1.63.58,2.36,2.36,0,0,1,.54,1.66v4.51Z"/><path class="cls-2" d="M596.73,143.93a4.29,4.29,0,0,1-.2,1.31,3.31,3.31,0,0,1-.61,1.13,2.9,2.9,0,0,1-2.29,1,2.84,2.84,0,0,1-2.24-1,4.07,4.07,0,0,1,0-5,3.08,3.08,0,0,1,4.51,0A3.65,3.65,0,0,1,596.73,143.93Zm-.8,0a3.8,3.8,0,0,0-.13-1,2.81,2.81,0,0,0-.42-.9,2.25,2.25,0,0,0-.72-.65,2,2,0,0,0-1-.25,2,2,0,0,0-1,.24,2.24,2.24,0,0,0-.72.64,2.85,2.85,0,0,0-.44.9,3.66,3.66,0,0,0-.15,1,3.58,3.58,0,0,0,.14,1,3,3,0,0,0,.43.9,2.24,2.24,0,0,0,.71.65,2,2,0,0,0,1,.25,2,2,0,0,0,1-.24,2.33,2.33,0,0,0,.72-.63,2.8,2.8,0,0,0,.45-.89A3.54,3.54,0,0,0,595.93,143.93Z"/><path class="cls-2" d="M601.17,147.27h-.66a3,3,0,0,1-.68-.06,1,1,0,0,1-.45-.23.89.89,0,0,1-.25-.43,2.65,2.65,0,0,1-.07-.68v-4.56h-1.32v-.67h1.32v-2h.8v2h1.5v.67h-1.5v4.48a1.76,1.76,0,0,0,0,.34.64.64,0,0,0,.11.25.5.5,0,0,0,.21.16.87.87,0,0,0,.35.06h.6l.21,0v.68Z"/><path class="cls-2" d="M605.53,140.46a2.71,2.71,0,0,1,1.3.29,2.6,2.6,0,0,1,.9.79,3.45,3.45,0,0,1,.52,1.13,5.21,5.21,0,0,1,.17,1.34v.13h-5.05a3.58,3.58,0,0,0,.13.94,2.59,2.59,0,0,0,.39.83,2,2,0,0,0,.66.59,1.92,1.92,0,0,0,.95.22,2.44,2.44,0,0,0,.7-.09,2,2,0,0,0,.56-.26,1.76,1.76,0,0,0,.42-.39,2.41,2.41,0,0,0,.29-.49h.79a3,3,0,0,1-.38.79,2.48,2.48,0,0,1-.59.6,2.68,2.68,0,0,1-.79.39,3.34,3.34,0,0,1-1,.14,2.94,2.94,0,0,1-1.3-.27,2.56,2.56,0,0,1-.91-.73,3.12,3.12,0,0,1-.54-1.1,5.14,5.14,0,0,1-.18-1.37,4.66,4.66,0,0,1,.18-1.28,3.36,3.36,0,0,1,.54-1.11,2.74,2.74,0,0,1,.92-.78A2.79,2.79,0,0,1,605.53,140.46Zm2.09,3a3,3,0,0,0-.16-.85,2.44,2.44,0,0,0-.41-.75,2.07,2.07,0,0,0-.65-.54,1.84,1.84,0,0,0-.88-.21,1.84,1.84,0,0,0-1.5.7,2.7,2.7,0,0,0-.42.75,4.31,4.31,0,0,0-.23.9Z"/><path class="cls-2" d="M570.66,177.88a2.33,2.33,0,0,1-.44,1.44,1.81,1.81,0,0,1-.53.47,2.4,2.4,0,0,1-.7.27v0a2.42,2.42,0,0,1,.69.22,1.16,1.16,0,0,1,.4.34,1.8,1.8,0,0,1,.29.63,4.48,4.48,0,0,1,.11.71q0,.37,0,.77a6,6,0,0,0,.09.82,1.77,1.77,0,0,0,.08.27,2.9,2.9,0,0,0,.18.37H570a3.27,3.27,0,0,1-.22-1.33,3.62,3.62,0,0,0-.49-2,1.38,1.38,0,0,0-1.11-.47h-3.21v3.8h-.82v-8.57h4a3.42,3.42,0,0,1,1,.14,2.35,2.35,0,0,1,.82.44A2,2,0,0,1,570.66,177.88Zm-.82.16a2,2,0,0,0-.13-.73,1.44,1.44,0,0,0-.36-.53,1.51,1.51,0,0,0-.57-.33,2.4,2.4,0,0,0-.74-.11h-3.09v3.37H568a1.9,1.9,0,0,0,1.27-.46A1.51,1.51,0,0,0,569.84,178Z"/><path class="cls-2" d="M575.09,177.46a2.71,2.71,0,0,1,1.3.29,2.6,2.6,0,0,1,.9.79,3.45,3.45,0,0,1,.52,1.13A5.21,5.21,0,0,1,578,181v.13h-5.05a3.58,3.58,0,0,0,.13.94,2.59,2.59,0,0,0,.39.83,2,2,0,0,0,.66.59,1.92,1.92,0,0,0,.95.22,2.44,2.44,0,0,0,.7-.09,2,2,0,0,0,.56-.26,1.76,1.76,0,0,0,.42-.39,2.41,2.41,0,0,0,.29-.49h.79a3,3,0,0,1-.38.79,2.48,2.48,0,0,1-.59.6,2.68,2.68,0,0,1-.79.39,3.34,3.34,0,0,1-1,.14,2.94,2.94,0,0,1-1.3-.27,2.56,2.56,0,0,1-.91-.73,3.12,3.12,0,0,1-.54-1.1,5.14,5.14,0,0,1-.18-1.37,4.66,4.66,0,0,1,.18-1.28,3.36,3.36,0,0,1,.54-1.11,2.74,2.74,0,0,1,.92-.78A2.79,2.79,0,0,1,575.09,177.46Zm2.09,3a3,3,0,0,0-.16-.85,2.44,2.44,0,0,0-.41-.75,2.07,2.07,0,0,0-.65-.54,1.84,1.84,0,0,0-.88-.21,1.84,1.84,0,0,0-1.5.7,2.7,2.7,0,0,0-.42.75,4.31,4.31,0,0,0-.23.9Z"/><path class="cls-2" d="M587.93,184.21v-4.46a1.73,1.73,0,0,0-.37-1.22,1.85,1.85,0,0,0-2.5.21,2.8,2.8,0,0,0-.45,1.71v3.77h-.81v-4.49a1.81,1.81,0,0,0-.34-1.17,1.25,1.25,0,0,0-1-.42,1.72,1.72,0,0,0-1.46.65,2.72,2.72,0,0,0-.5,1.71v3.72h-.8v-6.56h.74v1.1h0a2.26,2.26,0,0,1,2.15-1.29,2.44,2.44,0,0,1,.64.08,1.86,1.86,0,0,1,.54.24,1.66,1.66,0,0,1,.42.4,1.86,1.86,0,0,1,.28.55,2.16,2.16,0,0,1,.85-1,2.4,2.4,0,0,1,1.24-.32,2.12,2.12,0,0,1,1.63.58,2.36,2.36,0,0,1,.54,1.66v4.51Z"/><path class="cls-2" d="M596.73,180.93a4.29,4.29,0,0,1-.2,1.31,3.31,3.31,0,0,1-.61,1.13,2.9,2.9,0,0,1-2.29,1,2.84,2.84,0,0,1-2.24-1,4.07,4.07,0,0,1,0-5,3.08,3.08,0,0,1,4.51,0A3.65,3.65,0,0,1,596.73,180.93Zm-.8,0a3.8,3.8,0,0,0-.13-1,2.81,2.81,0,0,0-.42-.9,2.25,2.25,0,0,0-.72-.65,2,2,0,0,0-1-.25,2,2,0,0,0-1,.24,2.24,2.24,0,0,0-.72.64,2.85,2.85,0,0,0-.44.9,3.66,3.66,0,0,0-.15,1,3.58,3.58,0,0,0,.14,1,3,3,0,0,0,.43.9,2.24,2.24,0,0,0,.71.65,2,2,0,0,0,1,.25,2,2,0,0,0,1-.24,2.33,2.33,0,0,0,.72-.63,2.8,2.8,0,0,0,.45-.89A3.54,3.54,0,0,0,595.93,180.93Z"/><path class="cls-2" d="M601.17,184.27h-.66a3,3,0,0,1-.68-.06,1,1,0,0,1-.45-.23.89.89,0,0,1-.25-.43,2.65,2.65,0,0,1-.07-.68v-4.56h-1.32v-.67h1.32v-2h.8v2h1.5v.67h-1.5v4.48a1.76,1.76,0,0,0,0,.34.64.64,0,0,0,.11.25.5.5,0,0,0,.21.16.87.87,0,0,0,.35.06h.6l.21,0v.68Z"/><path class="cls-2" d="M605.53,177.46a2.71,2.71,0,0,1,1.3.29,2.6,2.6,0,0,1,.9.79,3.45,3.45,0,0,1,.52,1.13,5.21,5.21,0,0,1,.17,1.34v.13h-5.05a3.58,3.58,0,0,0,.13.94,2.59,2.59,0,0,0,.39.83,2,2,0,0,0,.66.59,1.92,1.92,0,0,0,.95.22,2.44,2.44,0,0,0,.7-.09,2,2,0,0,0,.56-.26,1.76,1.76,0,0,0,.42-.39,2.41,2.41,0,0,0,.29-.49h.79a3,3,0,0,1-.38.79,2.48,2.48,0,0,1-.59.6,2.68,2.68,0,0,1-.79.39,3.34,3.34,0,0,1-1,.14,2.94,2.94,0,0,1-1.3-.27,2.56,2.56,0,0,1-.91-.73,3.12,3.12,0,0,1-.54-1.1,5.14,5.14,0,0,1-.18-1.37,4.66,4.66,0,0,1,.18-1.28,3.36,3.36,0,0,1,.54-1.11,2.74,2.74,0,0,1,.92-.78A2.79,2.79,0,0,1,605.53,177.46Zm2.09,3a3,3,0,0,0-.16-.85,2.44,2.44,0,0,0-.41-.75,2.07,2.07,0,0,0-.65-.54,1.84,1.84,0,0,0-.88-.21,1.84,1.84,0,0,0-1.5.7,2.7,2.7,0,0,0-.42.75,4.31,4.31,0,0,0-.23.9Z"/><polygon class="cls-2" points="162.01 37 158 41 154 37 162.01 37"/><line class="cls-3" x1="12" y1="198.5" x2="665" y2="198.5"/><rect class="cls-4" x="12" y="162" width="653" height="36"/><line class="cls-3" x1="12" y1="161.5" x2="665" y2="161.5"/><rect class="cls-4" x="12" y="125" width="653" height="36"/><line class="cls-3" x1="12" y1="124.5" x2="665" y2="124.5"/><rect class="cls-4" x="12" y="88" width="653" height="36"/><line class="cls-3" x1="12" y1="87.5" x2="665" y2="87.5"/><rect class="cls-5" x="12" y="51" width="653" height="36"/><line class="cls-6" x1="12" y1="50.5" x2="665" y2="50.5"/><rect class="cls-4" x="12" y="26" width="653" height="24"/><line class="cls-7" x1="12" y1="50" x2="171" y2="50"/></g></svg>