<svg xmlns="http://www.w3.org/2000/svg" viewBox="0 0 565 317"><defs><style>.cls-1{fill:#fff;}.cls-2,.cls-3{fill:none;}.cls-2{opacity:0.1;}.cls-4{fill:#464646;}.cls-5{fill:#c8c8c8;}.cls-6{fill:#787878;opacity:0.2;}.cls-7{fill:#444;}.cls-8{fill:#d2d2d2;}</style></defs><title>Artboard 28</title><g id="Bg"><rect class="cls-1" x="-2890" y="-1399" width="6000" height="2500"/></g><g id="Tabeller"><rect class="cls-2" x="95" y="136.27" width="961.84" height="40.7"/><rect class="cls-3" x="95" y="94.21" width="961.84" height="40.7"/><rect class="cls-3" x="95" y="136.27" width="961.84" height="40.7"/><rect class="cls-3" x="95" y="178.32" width="961.84" height="40.7"/><rect class="cls-3" x="95" y="220.38" width="961.84" height="40.7"/><path class="cls-4" d="M121.32,75.4a2.87,2.87,0,0,1-.85,2.17,2.84,2.84,0,0,1-1,.61,3.76,3.76,0,0,1-1.28.2h-2.71V82.1h-1.7V72.41h4.41a3.16,3.16,0,0,1,2.27.81A2.84,2.84,0,0,1,121.32,75.4Zm-1.66,0a1.54,1.54,0,0,0-.47-1.23,2.22,2.22,0,0,0-1.48-.41h-2.22V77h2.26a3.12,3.12,0,0,0,.82-.1,1.44,1.44,0,0,0,1.1-1.54Z"/><path class="cls-4" d="M128.59,82.1l-.83-2.46h-4l-.85,2.46h-1.73l3.48-9.67h2.29l3.42,9.67Zm-2.81-8.42h0l-1.59,4.66h3.16Z"/><path class="cls-4" d="M139.4,75a2.59,2.59,0,0,1-.56,1.74,2.05,2.05,0,0,1-.48.42,2.79,2.79,0,0,1-.62.28v0a1.94,1.94,0,0,1,.67.28,1.61,1.61,0,0,1,.45.47,2.2,2.2,0,0,1,.29.71,6,6,0,0,1,.11.78q0,.4,0,.83a5.31,5.31,0,0,0,.11.84,1.86,1.86,0,0,0,.27.7h-1.73a5,5,0,0,1-.25-1.52,3.63,3.63,0,0,0-.51-2,1.53,1.53,0,0,0-1.2-.46h-2.7v4h-1.7V72.41h5a2.9,2.9,0,0,1,2,.72A2.44,2.44,0,0,1,139.4,75Zm-1.7.27a1.49,1.49,0,0,0-.43-1.17,1.76,1.76,0,0,0-1.21-.38h-2.78v3.11h2.78a1.72,1.72,0,0,0,1.15-.37A1.47,1.47,0,0,0,137.7,75.31Z"/><path class="cls-4" d="M148.05,82.1l-.83-2.46h-4l-.85,2.46h-1.73l3.48-9.67h2.29l3.42,9.67Zm-2.81-8.42h0l-1.59,4.66h3.16Z"/><path class="cls-4" d="M159.66,82.1V74.32h0l-2.75,7.78h-1.46l-2.76-7.74h0V82.1H151V72.42h2.48L156.18,80h0l2.6-7.54h2.46V82.1Z"/><path class="cls-4" d="M170.54,72.42v1.43H165.2v2.58h4.93v1.34H165.2v2.9h5.42V82.1h-7.12V72.42Z"/><path class="cls-4" d="M179.38,72.41v1.43H176.3V82.1h-1.69V73.84h-3.07V72.41Z"/><path class="cls-4" d="M187.66,72.42v1.43h-5.34v2.58h4.93v1.34h-4.93v2.9h5.42V82.1h-7.12V72.42Z"/><path class="cls-4" d="M197.23,75a2.59,2.59,0,0,1-.56,1.74,2.05,2.05,0,0,1-.48.42,2.79,2.79,0,0,1-.62.28v0a1.94,1.94,0,0,1,.67.28,1.61,1.61,0,0,1,.45.47A2.2,2.2,0,0,1,197,79a6,6,0,0,1,.11.78q0,.4,0,.83a5.31,5.31,0,0,0,.11.84,1.86,1.86,0,0,0,.27.7h-1.73a5,5,0,0,1-.25-1.52,3.63,3.63,0,0,0-.51-2,1.53,1.53,0,0,0-1.2-.46h-2.7v4h-1.7V72.41h5a2.9,2.9,0,0,1,2,.72A2.44,2.44,0,0,1,197.23,75Zm-1.7.27a1.49,1.49,0,0,0-.43-1.17,1.76,1.76,0,0,0-1.21-.38h-2.78v3.11h2.78A1.72,1.72,0,0,0,195,76.5,1.47,1.47,0,0,0,195.54,75.31Z"/><path class="cls-4" d="M330.19,72.41l2.52,7.78h0l2.52-7.78H337l-3.35,9.68h-1.92l-3.31-9.68Z"/><path class="cls-4" d="M344,82.1l-.83-2.46h-4l-.85,2.46h-1.73L340,72.42h2.29l3.42,9.67Zm-2.81-8.42h0l-1.59,4.66h3.16Z"/><path class="cls-4" d="M348.67,72.41v8.25h5V82.1H347V72.41Z"/><path class="cls-4" d="M356.38,72.41v6.07a2.57,2.57,0,0,0,.55,1.81,2.29,2.29,0,0,0,1.75.59,2.35,2.35,0,0,0,1.75-.58,2.53,2.53,0,0,0,.56-1.82V72.41h1.7v6.15a3.71,3.71,0,0,1-1,2.75,4.08,4.08,0,0,1-3,1,5.43,5.43,0,0,1-1.72-.26,3.16,3.16,0,0,1-2-2,4.56,4.56,0,0,1-.24-1.53V72.41Z"/><path class="cls-4" d="M371.91,72.42v1.43h-5.34v2.58h4.93v1.34h-4.93v2.9H372V82.1h-7.12V72.42Z"/><path class="cls-4" d="M448.21,72.41l2.52,7.78h0l2.52-7.78H455l-3.35,9.68h-1.92l-3.31-9.68Z"/><path class="cls-4" d="M462,82.1l-.83-2.46h-4l-.85,2.46h-1.73l3.48-9.67h2.29l3.42,9.67Zm-2.81-8.42h0l-1.59,4.66h3.16Z"/><path class="cls-4" d="M466.7,72.41v8.25h5V82.1H465V72.41Z"/><path class="cls-4" d="M474.41,72.41v6.07a2.57,2.57,0,0,0,.55,1.81,2.29,2.29,0,0,0,1.75.59,2.35,2.35,0,0,0,1.75-.58,2.53,2.53,0,0,0,.56-1.82V72.41h1.7v6.15a3.71,3.71,0,0,1-1,2.75,4.08,4.08,0,0,1-3,1,5.43,5.43,0,0,1-1.72-.26,3.16,3.16,0,0,1-2-2,4.56,4.56,0,0,1-.24-1.53V72.41Z"/><path class="cls-4" d="M489.93,72.42v1.43h-5.34v2.58h4.93v1.34h-4.93v2.9H490V82.1H482.9V72.42Z"/><path class="cls-4" d="M504.27,82.1V74.32h0L501.5,82.1H500l-2.76-7.74h0V82.1h-1.6V72.42h2.48L500.8,80h0l2.6-7.54h2.46V82.1Z"/><path class="cls-4" d="M509.83,72.41V82.1h-1.7V72.41Z"/><path class="cls-4" d="M513.81,72.41l4.62,7.19h0V72.41h1.61V82.1h-1.73l-4.62-7.19h0V82.1h-1.61V72.41Z"/><rect class="cls-5" x="95" y="92.66" width="960.5" height="2.28"/><rect class="cls-6" x="95" y="176.75" width="960.5" height="2.28"/><rect class="cls-6" x="95" y="133.57" width="960.5" height="2.28"/><rect class="cls-6" x="95" y="219.93" width="960.5" height="2.28"/><rect class="cls-3" x="95" y="220.38" width="961.84" height="40.7"/><rect class="cls-6" x="95" y="260.84" width="960.5" height="2.28"/><path class="cls-7" d="M122.78,112a3.18,3.18,0,0,1-.95,2.44,3.45,3.45,0,0,1-2.44.87h-4.12v5h-1.11V108.65h5.23a3.44,3.44,0,0,1,2.44.88A3.16,3.16,0,0,1,122.78,112Zm-1.1,0a2.27,2.27,0,0,0-.67-1.75,2.87,2.87,0,0,0-2-.62h-3.71v4.75h3.87a2.68,2.68,0,0,0,1.83-.61A2.23,2.23,0,0,0,121.67,112Z"/><path class="cls-7" d="M132.13,120.21l-.36.05h-.33a1.86,1.86,0,0,1-.6-.08.88.88,0,0,1-.4-.27,1.11,1.11,0,0,1-.22-.48,3.24,3.24,0,0,1-.07-.72h0a4.15,4.15,0,0,1-1.4,1.42,3.79,3.79,0,0,1-1.84.4,3.34,3.34,0,0,1-2.17-.68,2.37,2.37,0,0,1-.82-1.94,2.25,2.25,0,0,1,.89-1.94,9.21,9.21,0,0,1,4-.93,2.64,2.64,0,0,0,.6-.11,1,1,0,0,0,.39-.22.81.81,0,0,0,.21-.35,1.74,1.74,0,0,0,.07-.52,1.69,1.69,0,0,0-.55-1.36,2.74,2.74,0,0,0-1.78-.46,3.54,3.54,0,0,0-1,.12,2.24,2.24,0,0,0-.72.34,1.53,1.53,0,0,0-.45.52,1.65,1.65,0,0,0-.18.66H124.3a2.68,2.68,0,0,1,.3-1.05,2.41,2.41,0,0,1,.7-.81,3.3,3.3,0,0,1,1.09-.52,5.47,5.47,0,0,1,1.48-.18,3.59,3.59,0,0,1,2.48.73,2.65,2.65,0,0,1,.79,2.06v4.83a.64.64,0,0,0,.15.45.62.62,0,0,0,.48.17,1,1,0,0,0,.34-.06Zm-2.07-4.81h0c-.11.2-.45.34-1,.42l-.9.13-1,.17a3.63,3.63,0,0,0-1.58.59,1.36,1.36,0,0,0-.53,1.14,1.58,1.58,0,0,0,.59,1.28,2.17,2.17,0,0,0,1.4.48,3.21,3.21,0,0,0,2.22-.79,2.51,2.51,0,0,0,.88-2Z"/><path class="cls-7" d="M134.07,120.27v-8.9h1v2.08h0a3.47,3.47,0,0,1,1.22-1.62,3.15,3.15,0,0,1,1.87-.58h.39v1.08h-.25a3,3,0,0,0-2.31.93,3.2,3.2,0,0,0-.87,2.29v4.72Z"/><path class="cls-7" d="M148,120.21l-.36.05h-.33a1.86,1.86,0,0,1-.6-.08.88.88,0,0,1-.4-.27,1.11,1.11,0,0,1-.22-.48,3.24,3.24,0,0,1-.07-.72h0a4.15,4.15,0,0,1-1.4,1.42,3.79,3.79,0,0,1-1.84.4,3.34,3.34,0,0,1-2.17-.68,2.37,2.37,0,0,1-.82-1.94,2.25,2.25,0,0,1,.89-1.94,9.21,9.21,0,0,1,4-.93,2.64,2.64,0,0,0,.6-.11,1,1,0,0,0,.39-.22.81.81,0,0,0,.21-.35,1.74,1.74,0,0,0,.07-.52,1.69,1.69,0,0,0-.55-1.36,2.74,2.74,0,0,0-1.78-.46,3.54,3.54,0,0,0-1,.12,2.24,2.24,0,0,0-.72.34,1.53,1.53,0,0,0-.45.52,1.65,1.65,0,0,0-.18.66h-1.09a2.68,2.68,0,0,1,.3-1.05,2.41,2.41,0,0,1,.7-.81,3.3,3.3,0,0,1,1.09-.52,5.47,5.47,0,0,1,1.48-.18,3.59,3.59,0,0,1,2.48.73,2.65,2.65,0,0,1,.79,2.06v4.83a.64.64,0,0,0,.15.45.62.62,0,0,0,.48.17,1,1,0,0,0,.34-.06Zm-2.07-4.81h0c-.11.2-.45.34-1,.42l-.9.13-1,.17a3.63,3.63,0,0,0-1.58.59,1.36,1.36,0,0,0-.53,1.14,1.58,1.58,0,0,0,.59,1.28,2.17,2.17,0,0,0,1.4.48,3.21,3.21,0,0,0,2.22-.79,2.51,2.51,0,0,0,.88-2Z"/><path class="cls-7" d="M161.13,120.27v-6.06a2.35,2.35,0,0,0-.5-1.66,2.51,2.51,0,0,0-3.4.28,3.8,3.8,0,0,0-.61,2.32v5.12h-1.1v-6.1a2.46,2.46,0,0,0-.46-1.58,1.69,1.69,0,0,0-1.4-.57,2.34,2.34,0,0,0-2,.88,3.7,3.7,0,0,0-.68,2.32v5h-1.09v-8.9h1v1.49h0a3.07,3.07,0,0,1,2.92-1.75,3.3,3.3,0,0,1,.87.11,2.53,2.53,0,0,1,.74.33,2.26,2.26,0,0,1,.57.54,2.52,2.52,0,0,1,.37.75,2.92,2.92,0,0,1,1.16-1.29,3.25,3.25,0,0,1,1.68-.44,2.88,2.88,0,0,1,2.21.79,3.2,3.2,0,0,1,.73,2.25v6.12Z"/><path class="cls-7" d="M168.68,111.11a3.68,3.68,0,0,1,1.76.4,3.52,3.52,0,0,1,1.22,1.07,4.69,4.69,0,0,1,.71,1.54,7,7,0,0,1,.23,1.82v.17h-6.85a4.83,4.83,0,0,0,.17,1.28,3.52,3.52,0,0,0,.52,1.13,2.7,2.7,0,0,0,.89.8,2.6,2.6,0,0,0,1.29.3,3.3,3.3,0,0,0,1-.13,2.75,2.75,0,0,0,.75-.35,2.37,2.37,0,0,0,.56-.53,3.26,3.26,0,0,0,.39-.66h1.07a4.06,4.06,0,0,1-.52,1.07,3.37,3.37,0,0,1-.79.81,3.62,3.62,0,0,1-1.07.52,4.51,4.51,0,0,1-1.35.19,4,4,0,0,1-1.76-.36,3.46,3.46,0,0,1-1.24-1,4.24,4.24,0,0,1-.73-1.49,7,7,0,0,1-.24-1.86,6.3,6.3,0,0,1,.24-1.74,4.54,4.54,0,0,1,.74-1.51,3.71,3.71,0,0,1,1.25-1.06A3.78,3.78,0,0,1,168.68,111.11Zm2.83,4.09a4.09,4.09,0,0,0-.21-1.15,3.3,3.3,0,0,0-.55-1,2.8,2.8,0,0,0-.88-.73,2.5,2.5,0,0,0-1.2-.28,2.5,2.5,0,0,0-2,.95,3.69,3.69,0,0,0-.57,1,5.86,5.86,0,0,0-.31,1.22Z"/><path class="cls-7" d="M178.46,120.35h-.89a4.1,4.1,0,0,1-.92-.09A1.31,1.31,0,0,1,176,120a1.21,1.21,0,0,1-.33-.58,3.59,3.59,0,0,1-.1-.92v-6.19h-1.79v-.91h1.79V108.7h1.09v2.67h2v.91h-2v6.07a2.31,2.31,0,0,0,0,.46.86.86,0,0,0,.14.35.67.67,0,0,0,.29.22,1.17,1.17,0,0,0,.47.08h.82l.28,0v.92Z"/><path class="cls-7" d="M184.37,111.11a3.68,3.68,0,0,1,1.76.4,3.52,3.52,0,0,1,1.22,1.07,4.69,4.69,0,0,1,.71,1.54,7,7,0,0,1,.23,1.82v.17h-6.85a4.83,4.83,0,0,0,.17,1.28,3.52,3.52,0,0,0,.52,1.13,2.7,2.7,0,0,0,.89.8,2.6,2.6,0,0,0,1.29.3,3.3,3.3,0,0,0,1-.13,2.75,2.75,0,0,0,.75-.35,2.37,2.37,0,0,0,.56-.53,3.26,3.26,0,0,0,.39-.66H188a4.06,4.06,0,0,1-.52,1.07,3.37,3.37,0,0,1-.79.81,3.62,3.62,0,0,1-1.07.52,4.51,4.51,0,0,1-1.35.19,4,4,0,0,1-1.76-.36,3.46,3.46,0,0,1-1.24-1,4.24,4.24,0,0,1-.73-1.49,7,7,0,0,1-.24-1.86,6.3,6.3,0,0,1,.24-1.74,4.54,4.54,0,0,1,.74-1.51,3.71,3.71,0,0,1,1.25-1.06A3.78,3.78,0,0,1,184.37,111.11Zm2.83,4.09a4.09,4.09,0,0,0-.21-1.15,3.3,3.3,0,0,0-.55-1,2.8,2.8,0,0,0-.88-.73,2.5,2.5,0,0,0-1.2-.28,2.5,2.5,0,0,0-2,.95,3.69,3.69,0,0,0-.57,1,5.86,5.86,0,0,0-.31,1.22Z"/><path class="cls-7" d="M190.56,120.27v-8.9h1v2.08h0a3.47,3.47,0,0,1,1.22-1.62,3.15,3.15,0,0,1,1.87-.58h.39v1.08h-.25a3,3,0,0,0-2.31.93,3.2,3.2,0,0,0-.87,2.29v4.72Z"/><path class="cls-7" d="M205.11,120.27v-8.72H202v-.76q.72,0,1.22-.08a3.21,3.21,0,0,0,.78-.17,1.77,1.77,0,0,0,.87-.7,3.35,3.35,0,0,0,.43-1.32h.86v11.74Z"/><path class="cls-7" d="M122.78,154a3.18,3.18,0,0,1-.95,2.44,3.45,3.45,0,0,1-2.44.87h-4.12v5h-1.11V150.71h5.23a3.44,3.44,0,0,1,2.44.88A3.16,3.16,0,0,1,122.78,154Zm-1.1,0a2.27,2.27,0,0,0-.67-1.75,2.87,2.87,0,0,0-2-.62h-3.71v4.75h3.87a2.68,2.68,0,0,0,1.83-.61A2.23,2.23,0,0,0,121.67,154Z"/><path class="cls-7" d="M132.13,162.26l-.36.05h-.33a1.86,1.86,0,0,1-.6-.08.88.88,0,0,1-.4-.27,1.11,1.11,0,0,1-.22-.48,3.24,3.24,0,0,1-.07-.72h0a4.15,4.15,0,0,1-1.4,1.42,3.79,3.79,0,0,1-1.84.4,3.34,3.34,0,0,1-2.17-.68,2.37,2.37,0,0,1-.82-1.94,2.25,2.25,0,0,1,.89-1.94,9.21,9.21,0,0,1,4-.93,2.64,2.64,0,0,0,.6-.11,1,1,0,0,0,.39-.22.81.81,0,0,0,.21-.35,1.74,1.74,0,0,0,.07-.52,1.69,1.69,0,0,0-.55-1.36,2.74,2.74,0,0,0-1.78-.46,3.54,3.54,0,0,0-1,.12,2.24,2.24,0,0,0-.72.34,1.53,1.53,0,0,0-.45.52,1.65,1.65,0,0,0-.18.66H124.3a2.68,2.68,0,0,1,.3-1.05,2.41,2.41,0,0,1,.7-.81,3.3,3.3,0,0,1,1.09-.52,5.47,5.47,0,0,1,1.48-.18,3.59,3.59,0,0,1,2.48.73,2.65,2.65,0,0,1,.79,2.06v4.83a.64.64,0,0,0,.15.45.62.62,0,0,0,.48.17,1,1,0,0,0,.34-.06Zm-2.07-4.81h0c-.11.2-.45.34-1,.42l-.9.13-1,.17a3.63,3.63,0,0,0-1.58.59,1.36,1.36,0,0,0-.53,1.14,1.58,1.58,0,0,0,.59,1.28,2.17,2.17,0,0,0,1.4.48,3.21,3.21,0,0,0,2.22-.79,2.51,2.51,0,0,0,.88-2Z"/><path class="cls-7" d="M134.07,162.33v-8.9h1v2.08h0a3.47,3.47,0,0,1,1.22-1.62,3.15,3.15,0,0,1,1.87-.58h.39v1.08h-.25a3,3,0,0,0-2.31.93,3.2,3.2,0,0,0-.87,2.29v4.72Z"/><path class="cls-7" d="M148,162.26l-.36.05h-.33a1.86,1.86,0,0,1-.6-.08.88.88,0,0,1-.4-.27,1.11,1.11,0,0,1-.22-.48,3.24,3.24,0,0,1-.07-.72h0a4.15,4.15,0,0,1-1.4,1.42,3.79,3.79,0,0,1-1.84.4,3.34,3.34,0,0,1-2.17-.68,2.37,2.37,0,0,1-.82-1.94,2.25,2.25,0,0,1,.89-1.94,9.21,9.21,0,0,1,4-.93,2.64,2.64,0,0,0,.6-.11,1,1,0,0,0,.39-.22.81.81,0,0,0,.21-.35,1.74,1.74,0,0,0,.07-.52,1.69,1.69,0,0,0-.55-1.36,2.74,2.74,0,0,0-1.78-.46,3.54,3.54,0,0,0-1,.12,2.24,2.24,0,0,0-.72.34,1.53,1.53,0,0,0-.45.52,1.65,1.65,0,0,0-.18.66h-1.09a2.68,2.68,0,0,1,.3-1.05,2.41,2.41,0,0,1,.7-.81,3.3,3.3,0,0,1,1.09-.52,5.47,5.47,0,0,1,1.48-.18,3.59,3.59,0,0,1,2.48.73A2.65,2.65,0,0,1,147,156v4.83a.64.64,0,0,0,.15.45.62.62,0,0,0,.48.17,1,1,0,0,0,.34-.06Zm-2.07-4.81h0c-.11.2-.45.34-1,.42l-.9.13-1,.17a3.63,3.63,0,0,0-1.58.59,1.36,1.36,0,0,0-.53,1.14,1.58,1.58,0,0,0,.59,1.28,2.17,2.17,0,0,0,1.4.48,3.21,3.21,0,0,0,2.22-.79,2.51,2.51,0,0,0,.88-2Z"/><path class="cls-7" d="M161.13,162.33v-6.06a2.35,2.35,0,0,0-.5-1.66,2.51,2.51,0,0,0-3.4.28,3.8,3.8,0,0,0-.61,2.32v5.12h-1.1v-6.1a2.46,2.46,0,0,0-.46-1.58,1.69,1.69,0,0,0-1.4-.57,2.34,2.34,0,0,0-2,.88,3.7,3.7,0,0,0-.68,2.32v5h-1.09v-8.9h1v1.49h0a3.07,3.07,0,0,1,2.92-1.75,3.3,3.3,0,0,1,.87.11,2.53,2.53,0,0,1,.74.33,2.26,2.26,0,0,1,.57.54,2.52,2.52,0,0,1,.37.75,2.92,2.92,0,0,1,1.16-1.29,3.25,3.25,0,0,1,1.68-.44,2.88,2.88,0,0,1,2.21.79,3.2,3.2,0,0,1,.73,2.25v6.12Z"/><path class="cls-7" d="M168.68,153.17a3.68,3.68,0,0,1,1.76.4,3.52,3.52,0,0,1,1.22,1.07,4.69,4.69,0,0,1,.71,1.54,7,7,0,0,1,.23,1.82v.17h-6.85a4.83,4.83,0,0,0,.17,1.28,3.52,3.52,0,0,0,.52,1.13,2.7,2.7,0,0,0,.89.8,2.6,2.6,0,0,0,1.29.3,3.3,3.3,0,0,0,1-.13,2.75,2.75,0,0,0,.75-.35,2.37,2.37,0,0,0,.56-.53,3.26,3.26,0,0,0,.39-.66h1.07a4.06,4.06,0,0,1-.52,1.07,3.37,3.37,0,0,1-.79.81,3.62,3.62,0,0,1-1.07.52,4.51,4.51,0,0,1-1.35.19,4,4,0,0,1-1.76-.36,3.46,3.46,0,0,1-1.24-1,4.24,4.24,0,0,1-.73-1.49,7,7,0,0,1-.24-1.86,6.3,6.3,0,0,1,.24-1.74,4.54,4.54,0,0,1,.74-1.51,3.71,3.71,0,0,1,1.25-1.06A3.78,3.78,0,0,1,168.68,153.17Zm2.83,4.09a4.09,4.09,0,0,0-.21-1.15,3.3,3.3,0,0,0-.55-1,2.8,2.8,0,0,0-.88-.73,2.5,2.5,0,0,0-1.2-.28,2.5,2.5,0,0,0-2,.95,3.69,3.69,0,0,0-.57,1,5.86,5.86,0,0,0-.31,1.22Z"/><path class="cls-7" d="M178.46,162.41h-.89a4.1,4.1,0,0,1-.92-.09A1.31,1.31,0,0,1,176,162a1.21,1.21,0,0,1-.33-.58,3.59,3.59,0,0,1-.1-.92v-6.19h-1.79v-.91h1.79v-2.67h1.09v2.67h2v.91h-2v6.07a2.31,2.31,0,0,0,0,.46.86.86,0,0,0,.14.35.67.67,0,0,0,.29.22,1.17,1.17,0,0,0,.47.08h.82l.28,0v.92Z"/><path class="cls-7" d="M184.37,153.17a3.68,3.68,0,0,1,1.76.4,3.52,3.52,0,0,1,1.22,1.07,4.69,4.69,0,0,1,.71,1.54,7,7,0,0,1,.23,1.82v.17h-6.85a4.83,4.83,0,0,0,.17,1.28,3.52,3.52,0,0,0,.52,1.13,2.7,2.7,0,0,0,.89.8,2.6,2.6,0,0,0,1.29.3,3.3,3.3,0,0,0,1-.13,2.75,2.75,0,0,0,.75-.35,2.37,2.37,0,0,0,.56-.53A3.26,3.26,0,0,0,187,160H188a4.06,4.06,0,0,1-.52,1.07,3.37,3.37,0,0,1-.79.81,3.62,3.62,0,0,1-1.07.52,4.51,4.51,0,0,1-1.35.19,4,4,0,0,1-1.76-.36,3.46,3.46,0,0,1-1.24-1,4.24,4.24,0,0,1-.73-1.49,7,7,0,0,1-.24-1.86,6.3,6.3,0,0,1,.24-1.74,4.54,4.54,0,0,1,.74-1.51,3.71,3.71,0,0,1,1.25-1.06A3.78,3.78,0,0,1,184.37,153.17Zm2.83,4.09a4.09,4.09,0,0,0-.21-1.15,3.3,3.3,0,0,0-.55-1,2.8,2.8,0,0,0-.88-.73,2.5,2.5,0,0,0-1.2-.28,2.5,2.5,0,0,0-2,.95,3.69,3.69,0,0,0-.57,1,5.86,5.86,0,0,0-.31,1.22Z"/><path class="cls-7" d="M190.56,162.33v-8.9h1v2.08h0a3.47,3.47,0,0,1,1.22-1.62,3.15,3.15,0,0,1,1.87-.58h.39v1.08h-.25a3,3,0,0,0-2.31.93,3.2,3.2,0,0,0-.87,2.29v4.72Z"/><path class="cls-7" d="M205,150.49a3.82,3.82,0,0,1,2.65.89,3.1,3.1,0,0,1,1,2.42,3.83,3.83,0,0,1-.75,2.25,9.43,9.43,0,0,1-2.72,2.25A11.26,11.26,0,0,0,203,160a2.71,2.71,0,0,0-.75,1.38h6.53v1H201a4.07,4.07,0,0,1,.75-2.36,9,9,0,0,1,2.62-2.26,11.91,11.91,0,0,0,2.56-2,2.86,2.86,0,0,0,.69-1.92,2.22,2.22,0,0,0-.73-1.73,2.73,2.73,0,0,0-1.9-.67,2.76,2.76,0,0,0-1.16.23,2.46,2.46,0,0,0-.82.6,2.41,2.41,0,0,0-.49.84,3,3,0,0,0-.16,1v.23h-1v-.17a4,4,0,0,1,.23-1.33,3.29,3.29,0,0,1,.69-1.14,3.36,3.36,0,0,1,1.17-.8A4.16,4.16,0,0,1,205,150.49Z"/><path class="cls-7" d="M122.78,196.08a3.18,3.18,0,0,1-.95,2.44,3.45,3.45,0,0,1-2.44.87h-4.12v5h-1.11V192.76h5.23a3.44,3.44,0,0,1,2.44.88A3.16,3.16,0,0,1,122.78,196.08Zm-1.1,0a2.27,2.27,0,0,0-.67-1.75,2.87,2.87,0,0,0-2-.62h-3.71v4.75h3.87a2.68,2.68,0,0,0,1.83-.61A2.23,2.23,0,0,0,121.67,196.08Z"/><path class="cls-7" d="M132.13,204.32l-.36.05h-.33a1.86,1.86,0,0,1-.6-.08.88.88,0,0,1-.4-.27,1.11,1.11,0,0,1-.22-.48,3.24,3.24,0,0,1-.07-.72h0a4.15,4.15,0,0,1-1.4,1.42,3.79,3.79,0,0,1-1.84.4,3.34,3.34,0,0,1-2.17-.68,2.37,2.37,0,0,1-.82-1.94,2.25,2.25,0,0,1,.89-1.94,9.21,9.21,0,0,1,4-.93,2.64,2.64,0,0,0,.6-.11,1,1,0,0,0,.39-.22.81.81,0,0,0,.21-.35,1.74,1.74,0,0,0,.07-.52,1.69,1.69,0,0,0-.55-1.36,2.74,2.74,0,0,0-1.78-.46,3.54,3.54,0,0,0-1,.12,2.24,2.24,0,0,0-.72.34,1.53,1.53,0,0,0-.45.52,1.65,1.65,0,0,0-.18.66H124.3a2.68,2.68,0,0,1,.3-1.05,2.41,2.41,0,0,1,.7-.81,3.3,3.3,0,0,1,1.09-.52,5.47,5.47,0,0,1,1.48-.18,3.59,3.59,0,0,1,2.48.73,2.65,2.65,0,0,1,.79,2.06v4.83a.64.64,0,0,0,.15.45.62.62,0,0,0,.48.17,1,1,0,0,0,.34-.06Zm-2.07-4.81h0c-.11.2-.45.34-1,.42l-.9.13-1,.17a3.63,3.63,0,0,0-1.58.59A1.36,1.36,0,0,0,125,202a1.58,1.58,0,0,0,.59,1.28,2.17,2.17,0,0,0,1.4.48,3.21,3.21,0,0,0,2.22-.79,2.51,2.51,0,0,0,.88-2Z"/><path class="cls-7" d="M134.07,204.38v-8.9h1v2.08h0a3.47,3.47,0,0,1,1.22-1.62,3.15,3.15,0,0,1,1.87-.58h.39v1.08h-.25a3,3,0,0,0-2.31.93,3.2,3.2,0,0,0-.87,2.29v4.72Z"/><path class="cls-7" d="M148,204.32l-.36.05h-.33a1.86,1.86,0,0,1-.6-.08.88.88,0,0,1-.4-.27,1.11,1.11,0,0,1-.22-.48,3.24,3.24,0,0,1-.07-.72h0a4.15,4.15,0,0,1-1.4,1.42,3.79,3.79,0,0,1-1.84.4,3.34,3.34,0,0,1-2.17-.68,2.37,2.37,0,0,1-.82-1.94,2.25,2.25,0,0,1,.89-1.94,9.21,9.21,0,0,1,4-.93,2.64,2.64,0,0,0,.6-.11,1,1,0,0,0,.39-.22.81.81,0,0,0,.21-.35,1.74,1.74,0,0,0,.07-.52,1.69,1.69,0,0,0-.55-1.36,2.74,2.74,0,0,0-1.78-.46,3.54,3.54,0,0,0-1,.12,2.24,2.24,0,0,0-.72.34,1.53,1.53,0,0,0-.45.52,1.65,1.65,0,0,0-.18.66h-1.09a2.68,2.68,0,0,1,.3-1.05,2.41,2.41,0,0,1,.7-.81,3.3,3.3,0,0,1,1.09-.52,5.47,5.47,0,0,1,1.48-.18,3.59,3.59,0,0,1,2.48.73A2.65,2.65,0,0,1,147,198v4.83a.64.64,0,0,0,.15.45.62.62,0,0,0,.48.17,1,1,0,0,0,.34-.06Zm-2.07-4.81h0c-.11.2-.45.34-1,.42l-.9.13-1,.17a3.63,3.63,0,0,0-1.58.59,1.36,1.36,0,0,0-.53,1.14,1.58,1.58,0,0,0,.59,1.28,2.17,2.17,0,0,0,1.4.48,3.21,3.21,0,0,0,2.22-.79,2.51,2.51,0,0,0,.88-2Z"/><path class="cls-7" d="M161.13,204.38v-6.06a2.35,2.35,0,0,0-.5-1.66,2.51,2.51,0,0,0-3.4.28,3.8,3.8,0,0,0-.61,2.32v5.12h-1.1v-6.1a2.46,2.46,0,0,0-.46-1.58,1.69,1.69,0,0,0-1.4-.57,2.34,2.34,0,0,0-2,.88,3.7,3.7,0,0,0-.68,2.32v5h-1.09v-8.9h1V197h0a3.07,3.07,0,0,1,2.92-1.75,3.3,3.3,0,0,1,.87.11,2.53,2.53,0,0,1,.74.33,2.26,2.26,0,0,1,.57.54,2.52,2.52,0,0,1,.37.75,2.92,2.92,0,0,1,1.16-1.29,3.25,3.25,0,0,1,1.68-.44,2.88,2.88,0,0,1,2.21.79,3.2,3.2,0,0,1,.73,2.25v6.12Z"/><path class="cls-7" d="M168.68,195.22a3.68,3.68,0,0,1,1.76.4,3.52,3.52,0,0,1,1.22,1.07,4.69,4.69,0,0,1,.71,1.54,7,7,0,0,1,.23,1.82v.17h-6.85a4.83,4.83,0,0,0,.17,1.28,3.52,3.52,0,0,0,.52,1.13,2.7,2.7,0,0,0,.89.8,2.6,2.6,0,0,0,1.29.3,3.3,3.3,0,0,0,1-.13,2.75,2.75,0,0,0,.75-.35,2.37,2.37,0,0,0,.56-.53,3.26,3.26,0,0,0,.39-.66h1.07a4.06,4.06,0,0,1-.52,1.07,3.37,3.37,0,0,1-.79.81,3.62,3.62,0,0,1-1.07.52,4.51,4.51,0,0,1-1.35.19,4,4,0,0,1-1.76-.36,3.46,3.46,0,0,1-1.24-1,4.24,4.24,0,0,1-.73-1.49,7,7,0,0,1-.24-1.86,6.3,6.3,0,0,1,.24-1.74,4.54,4.54,0,0,1,.74-1.51,3.71,3.71,0,0,1,1.25-1.06A3.78,3.78,0,0,1,168.68,195.22Zm2.83,4.09a4.09,4.09,0,0,0-.21-1.15,3.3,3.3,0,0,0-.55-1,2.8,2.8,0,0,0-.88-.73,2.5,2.5,0,0,0-1.2-.28,2.5,2.5,0,0,0-2,.95,3.69,3.69,0,0,0-.57,1,5.86,5.86,0,0,0-.31,1.22Z"/><path class="cls-7" d="M178.46,204.46h-.89a4.1,4.1,0,0,1-.92-.09,1.31,1.31,0,0,1-.61-.31,1.21,1.21,0,0,1-.33-.58,3.59,3.59,0,0,1-.1-.92v-6.19h-1.79v-.91h1.79v-2.67h1.09v2.67h2v.91h-2v6.07a2.31,2.31,0,0,0,0,.46.86.86,0,0,0,.14.35.67.67,0,0,0,.29.22,1.17,1.17,0,0,0,.47.08h.82l.28,0v.92Z"/><path class="cls-7" d="M184.37,195.22a3.68,3.68,0,0,1,1.76.4,3.52,3.52,0,0,1,1.22,1.07,4.69,4.69,0,0,1,.71,1.54,7,7,0,0,1,.23,1.82v.17h-6.85a4.83,4.83,0,0,0,.17,1.28,3.52,3.52,0,0,0,.52,1.13,2.7,2.7,0,0,0,.89.8,2.6,2.6,0,0,0,1.29.3,3.3,3.3,0,0,0,1-.13,2.75,2.75,0,0,0,.75-.35,2.37,2.37,0,0,0,.56-.53,3.26,3.26,0,0,0,.39-.66H188a4.06,4.06,0,0,1-.52,1.07,3.37,3.37,0,0,1-.79.81,3.62,3.62,0,0,1-1.07.52,4.51,4.51,0,0,1-1.35.19,4,4,0,0,1-1.76-.36,3.46,3.46,0,0,1-1.24-1,4.24,4.24,0,0,1-.73-1.49,7,7,0,0,1-.24-1.86,6.3,6.3,0,0,1,.24-1.74,4.54,4.54,0,0,1,.74-1.51,3.71,3.71,0,0,1,1.25-1.06A3.78,3.78,0,0,1,184.37,195.22Zm2.83,4.09a4.09,4.09,0,0,0-.21-1.15,3.3,3.3,0,0,0-.55-1,2.8,2.8,0,0,0-.88-.73,2.5,2.5,0,0,0-1.2-.28,2.5,2.5,0,0,0-2,.95,3.69,3.69,0,0,0-.57,1,5.86,5.86,0,0,0-.31,1.22Z"/><path class="cls-7" d="M190.56,204.38v-8.9h1v2.08h0a3.47,3.47,0,0,1,1.22-1.62,3.15,3.15,0,0,1,1.87-.58h.39v1.08h-.25a3,3,0,0,0-2.31.93,3.2,3.2,0,0,0-.87,2.29v4.72Z"/><path class="cls-7" d="M204.93,192.55a4.84,4.84,0,0,1,1.32.18,3.65,3.65,0,0,1,1.16.55,2.83,2.83,0,0,1,.82.93,2.69,2.69,0,0,1,.31,1.32,3,3,0,0,1-.13.9,2.46,2.46,0,0,1-.38.76,2.43,2.43,0,0,1-.62.57,2.93,2.93,0,0,1-.84.37v0a2.79,2.79,0,0,1,1.8,1,3,3,0,0,1,.6,1.89,3.27,3.27,0,0,1-1.14,2.59,3.77,3.77,0,0,1-1.29.74,5.12,5.12,0,0,1-1.64.24,4.94,4.94,0,0,1-1.51-.23,3.78,3.78,0,0,1-1.25-.66,3.18,3.18,0,0,1-.85-1.06,3.08,3.08,0,0,1-.31-1.41V201H202v.22a2.36,2.36,0,0,0,.75,1.74,2.72,2.72,0,0,0,.89.54,3.31,3.31,0,0,0,1.2.2,3.66,3.66,0,0,0,1.23-.18,3,3,0,0,0,.94-.55,2.31,2.31,0,0,0,.88-1.87,2.55,2.55,0,0,0-.19-1,2.22,2.22,0,0,0-.57-.79,3,3,0,0,0-2.07-.67h-.87v-.89h.93a2.53,2.53,0,0,0,1.64-.56,1.93,1.93,0,0,0,.7-1.57,2.15,2.15,0,0,0-.2-1,2,2,0,0,0-.55-.69,2.35,2.35,0,0,0-.82-.42,3.47,3.47,0,0,0-1-.14,2.86,2.86,0,0,0-1.1.2,2.42,2.42,0,0,0-1.35,1.38,2.68,2.68,0,0,0-.18,1h-1.06a3.31,3.31,0,0,1,.25-1.25,3.44,3.44,0,0,1,.72-1.11,3.68,3.68,0,0,1,1.16-.79A3.83,3.83,0,0,1,204.93,192.55Z"/><path class="cls-7" d="M122.78,238.14a3.18,3.18,0,0,1-.95,2.44,3.45,3.45,0,0,1-2.44.87h-4.12v5h-1.11V234.82h5.23a3.44,3.44,0,0,1,2.44.88A3.16,3.16,0,0,1,122.78,238.14Zm-1.1,0a2.27,2.27,0,0,0-.67-1.75,2.87,2.87,0,0,0-2-.62h-3.71v4.75h3.87a2.68,2.68,0,0,0,1.83-.61A2.23,2.23,0,0,0,121.67,238.14Z"/><path class="cls-7" d="M132.13,246.37l-.36.05h-.33a1.86,1.86,0,0,1-.6-.08.88.88,0,0,1-.4-.27,1.11,1.11,0,0,1-.22-.48,3.24,3.24,0,0,1-.07-.72h0a4.15,4.15,0,0,1-1.4,1.42,3.79,3.79,0,0,1-1.84.4,3.34,3.34,0,0,1-2.17-.68,2.37,2.37,0,0,1-.82-1.94,2.25,2.25,0,0,1,.89-1.94,9.21,9.21,0,0,1,4-.93,2.64,2.64,0,0,0,.6-.11,1,1,0,0,0,.39-.22.81.81,0,0,0,.21-.35,1.74,1.74,0,0,0,.07-.52,1.69,1.69,0,0,0-.55-1.36,2.74,2.74,0,0,0-1.78-.46,3.54,3.54,0,0,0-1,.12,2.24,2.24,0,0,0-.72.34,1.53,1.53,0,0,0-.45.52,1.65,1.65,0,0,0-.18.66H124.3a2.68,2.68,0,0,1,.3-1.05,2.41,2.41,0,0,1,.7-.81,3.3,3.3,0,0,1,1.09-.52,5.47,5.47,0,0,1,1.48-.18,3.59,3.59,0,0,1,2.48.73,2.65,2.65,0,0,1,.79,2.06v4.83a.64.64,0,0,0,.15.45.62.62,0,0,0,.48.17,1,1,0,0,0,.34-.06Zm-2.07-4.81h0c-.11.2-.45.34-1,.42l-.9.13-1,.17a3.63,3.63,0,0,0-1.58.59A1.36,1.36,0,0,0,125,244a1.58,1.58,0,0,0,.59,1.28,2.17,2.17,0,0,0,1.4.48,3.21,3.21,0,0,0,2.22-.79,2.51,2.51,0,0,0,.88-2Z"/><path class="cls-7" d="M134.07,246.44v-8.9h1v2.08h0a3.47,3.47,0,0,1,1.22-1.62,3.15,3.15,0,0,1,1.87-.58h.39v1.08h-.25a3,3,0,0,0-2.31.93,3.2,3.2,0,0,0-.87,2.29v4.72Z"/><path class="cls-7" d="M148,246.37l-.36.05h-.33a1.86,1.86,0,0,1-.6-.08.88.88,0,0,1-.4-.27,1.11,1.11,0,0,1-.22-.48,3.24,3.24,0,0,1-.07-.72h0a4.15,4.15,0,0,1-1.4,1.42,3.79,3.79,0,0,1-1.84.4,3.34,3.34,0,0,1-2.17-.68,2.37,2.37,0,0,1-.82-1.94,2.25,2.25,0,0,1,.89-1.94,9.21,9.21,0,0,1,4-.93,2.64,2.64,0,0,0,.6-.11,1,1,0,0,0,.39-.22.81.81,0,0,0,.21-.35,1.74,1.74,0,0,0,.07-.52,1.69,1.69,0,0,0-.55-1.36,2.74,2.74,0,0,0-1.78-.46,3.54,3.54,0,0,0-1,.12,2.24,2.24,0,0,0-.72.34,1.53,1.53,0,0,0-.45.52,1.65,1.65,0,0,0-.18.66h-1.09a2.68,2.68,0,0,1,.3-1.05,2.41,2.41,0,0,1,.7-.81,3.3,3.3,0,0,1,1.09-.52,5.47,5.47,0,0,1,1.48-.18,3.59,3.59,0,0,1,2.48.73,2.65,2.65,0,0,1,.79,2.06v4.83a.64.64,0,0,0,.15.45.62.62,0,0,0,.48.17,1,1,0,0,0,.34-.06Zm-2.07-4.81h0c-.11.2-.45.34-1,.42l-.9.13-1,.17a3.63,3.63,0,0,0-1.58.59,1.36,1.36,0,0,0-.53,1.14,1.58,1.58,0,0,0,.59,1.28,2.17,2.17,0,0,0,1.4.48A3.21,3.21,0,0,0,145,245a2.51,2.51,0,0,0,.88-2Z"/><path class="cls-7" d="M161.13,246.44v-6.06a2.35,2.35,0,0,0-.5-1.66,2.51,2.51,0,0,0-3.4.28,3.8,3.8,0,0,0-.61,2.32v5.12h-1.1v-6.1a2.46,2.46,0,0,0-.46-1.58,1.69,1.69,0,0,0-1.4-.57,2.34,2.34,0,0,0-2,.88,3.7,3.7,0,0,0-.68,2.32v5h-1.09v-8.9h1V239h0a3.07,3.07,0,0,1,2.92-1.75,3.3,3.3,0,0,1,.87.11,2.53,2.53,0,0,1,.74.33,2.26,2.26,0,0,1,.57.54,2.52,2.52,0,0,1,.37.75,2.92,2.92,0,0,1,1.16-1.29,3.25,3.25,0,0,1,1.68-.44,2.88,2.88,0,0,1,2.21.79,3.2,3.2,0,0,1,.73,2.25v6.12Z"/><path class="cls-7" d="M168.68,237.28a3.68,3.68,0,0,1,1.76.4,3.52,3.52,0,0,1,1.22,1.07,4.69,4.69,0,0,1,.71,1.54,7,7,0,0,1,.23,1.82v.17h-6.85a4.83,4.83,0,0,0,.17,1.28,3.52,3.52,0,0,0,.52,1.13,2.7,2.7,0,0,0,.89.8,2.6,2.6,0,0,0,1.29.3,3.3,3.3,0,0,0,1-.13,2.75,2.75,0,0,0,.75-.35,2.37,2.37,0,0,0,.56-.53,3.26,3.26,0,0,0,.39-.66h1.07a4.06,4.06,0,0,1-.52,1.07,3.37,3.37,0,0,1-.79.81,3.62,3.62,0,0,1-1.07.52,4.51,4.51,0,0,1-1.35.19,4,4,0,0,1-1.76-.36,3.46,3.46,0,0,1-1.24-1,4.24,4.24,0,0,1-.73-1.49,7,7,0,0,1-.24-1.86,6.3,6.3,0,0,1,.24-1.74,4.54,4.54,0,0,1,.74-1.51,3.71,3.71,0,0,1,1.25-1.06A3.78,3.78,0,0,1,168.68,237.28Zm2.83,4.09a4.09,4.09,0,0,0-.21-1.15,3.3,3.3,0,0,0-.55-1,2.8,2.8,0,0,0-.88-.73,2.5,2.5,0,0,0-1.2-.28,2.5,2.5,0,0,0-2,.95,3.69,3.69,0,0,0-.57,1,5.86,5.86,0,0,0-.31,1.22Z"/><path class="cls-7" d="M178.46,246.52h-.89a4.1,4.1,0,0,1-.92-.09,1.31,1.31,0,0,1-.61-.31,1.21,1.21,0,0,1-.33-.58,3.59,3.59,0,0,1-.1-.92v-6.19h-1.79v-.91h1.79v-2.67h1.09v2.67h2v.91h-2v6.07a2.31,2.31,0,0,0,0,.46.86.86,0,0,0,.14.35.67.67,0,0,0,.29.22,1.17,1.17,0,0,0,.47.08h.82l.28,0v.92Z"/><path class="cls-7" d="M184.37,237.28a3.68,3.68,0,0,1,1.76.4,3.52,3.52,0,0,1,1.22,1.07,4.69,4.69,0,0,1,.71,1.54,7,7,0,0,1,.23,1.82v.17h-6.85a4.83,4.83,0,0,0,.17,1.28,3.52,3.52,0,0,0,.52,1.13,2.7,2.7,0,0,0,.89.8,2.6,2.6,0,0,0,1.29.3,3.3,3.3,0,0,0,1-.13,2.75,2.75,0,0,0,.75-.35,2.37,2.37,0,0,0,.56-.53,3.26,3.26,0,0,0,.39-.66H188a4.06,4.06,0,0,1-.52,1.07,3.37,3.37,0,0,1-.79.81,3.62,3.62,0,0,1-1.07.52,4.51,4.51,0,0,1-1.35.19,4,4,0,0,1-1.76-.36,3.46,3.46,0,0,1-1.24-1,4.24,4.24,0,0,1-.73-1.49,7,7,0,0,1-.24-1.86,6.3,6.3,0,0,1,.24-1.74,4.54,4.54,0,0,1,.74-1.51,3.71,3.71,0,0,1,1.25-1.06A3.78,3.78,0,0,1,184.37,237.28Zm2.83,4.09a4.09,4.09,0,0,0-.21-1.15,3.3,3.3,0,0,0-.55-1,2.8,2.8,0,0,0-.88-.73,2.5,2.5,0,0,0-1.2-.28,2.5,2.5,0,0,0-2,.95,3.69,3.69,0,0,0-.57,1,5.86,5.86,0,0,0-.31,1.22Z"/><path class="cls-7" d="M190.56,246.44v-8.9h1v2.08h0a3.47,3.47,0,0,1,1.22-1.62,3.15,3.15,0,0,1,1.87-.58h.39v1.08h-.25a3,3,0,0,0-2.31.93,3.2,3.2,0,0,0-.87,2.29v4.72Z"/><path class="cls-7" d="M207.28,243.52v2.92h-1v-2.92h-5.42v-1l5.44-7.81h1v7.93H209v.89Zm-1-7.27h0l-4.44,6.38h4.47Z"/><path class="cls-7" d="M333.35,120.27v-8.72h-3.1v-.76q.72,0,1.22-.08a3.21,3.21,0,0,0,.78-.17,1.77,1.77,0,0,0,.87-.7,3.35,3.35,0,0,0,.43-1.32h.86v11.74Z"/><path class="cls-7" d="M343.12,108.44a3.82,3.82,0,0,1,2.65.89,3.1,3.1,0,0,1,1,2.42A3.83,3.83,0,0,1,346,114a9.43,9.43,0,0,1-2.72,2.25,11.26,11.26,0,0,0-2.25,1.67,2.71,2.71,0,0,0-.75,1.38h6.53v1h-7.73a4.07,4.07,0,0,1,.75-2.36,9,9,0,0,1,2.62-2.26,11.91,11.91,0,0,0,2.56-2,2.86,2.86,0,0,0,.69-1.92A2.22,2.22,0,0,0,345,110a2.73,2.73,0,0,0-1.9-.67,2.76,2.76,0,0,0-1.16.23,2.46,2.46,0,0,0-.82.6,2.41,2.41,0,0,0-.49.84,3,3,0,0,0-.16,1v.23h-1V112a4,4,0,0,1,.23-1.33,3.29,3.29,0,0,1,.69-1.14,3.36,3.36,0,0,1,1.17-.8A4.16,4.16,0,0,1,343.12,108.44Z"/><path class="cls-7" d="M356.28,108.67v1h-5.13l-.74,3.77,0,0a3.13,3.13,0,0,1,1.11-.7,3.77,3.77,0,0,1,1.34-.24,4.31,4.31,0,0,1,1.62.29,3.53,3.53,0,0,1,1.24.83,3.72,3.72,0,0,1,.79,1.28,4.66,4.66,0,0,1,.28,1.65,3.81,3.81,0,0,1-.32,1.55,4,4,0,0,1-.87,1.26,4.05,4.05,0,0,1-1.31.85,4.22,4.22,0,0,1-1.62.31,4.46,4.46,0,0,1-1.49-.23,3.5,3.5,0,0,1-1.15-.66,3.07,3.07,0,0,1-.76-1,3.42,3.42,0,0,1-.32-1.29h1.07a2.47,2.47,0,0,0,.22.87,2.24,2.24,0,0,0,.54.73,2.66,2.66,0,0,0,.84.5,3.09,3.09,0,0,0,1.13.19,2.8,2.8,0,0,0,1.18-.25,2.91,2.91,0,0,0,.95-.68,3.27,3.27,0,0,0,.63-1,3.39,3.39,0,0,0,.23-1.25,3.26,3.26,0,0,0-.21-1.17,2.88,2.88,0,0,0-1.55-1.63,3,3,0,0,0-1.23-.25,3.46,3.46,0,0,0-1.45.31,3,3,0,0,0-1.15.93h-.9l1.1-5.95Z"/><path class="cls-7" d="M335.52,159.41v2.92h-1v-2.92h-5.42v-1l5.44-7.81h1v7.93h1.76v.89Zm-1-7.27h0l-4.44,6.38h4.47Z"/><path class="cls-7" d="M343.46,150.49a4.3,4.3,0,0,1,1.27.18,3.18,3.18,0,0,1,1,.52,2.91,2.91,0,0,1,.73.84,3.38,3.38,0,0,1,.4,1.13h-1.06a2.33,2.33,0,0,0-.25-.69,2,2,0,0,0-.48-.57,2.25,2.25,0,0,0-.71-.38,2.93,2.93,0,0,0-.94-.14,2.75,2.75,0,0,0-1.39.35,2.85,2.85,0,0,0-1,1,5.18,5.18,0,0,0-.62,1.65,10.92,10.92,0,0,0-.21,2.24h0a3.51,3.51,0,0,1,3.13-1.95,3.72,3.72,0,0,1,2.78,1.1,3.83,3.83,0,0,1,1.08,2.82,3.85,3.85,0,0,1-4,4,4.19,4.19,0,0,1-1.91-.4,3.13,3.13,0,0,1-1.26-1.14,5.71,5.71,0,0,1-.7-1.89,14.11,14.11,0,0,1-.23-2.78,11.51,11.51,0,0,1,.09-1.44,7.57,7.57,0,0,1,.3-1.37,6,6,0,0,1,.54-1.21,3.86,3.86,0,0,1,.81-1,3.63,3.63,0,0,1,1.12-.65A4.17,4.17,0,0,1,343.46,150.49Zm-3,8.19a3.05,3.05,0,0,0,.77,2.22,2.86,2.86,0,0,0,2.15.79,2.59,2.59,0,0,0,2-.89,3.06,3.06,0,0,0,.8-2.12,3.26,3.26,0,0,0-.78-2.23,2.62,2.62,0,0,0-2.07-.88,2.76,2.76,0,0,0-2.09.86A3.13,3.13,0,0,0,340.43,158.68Z"/><path class="cls-7" d="M356.74,150.72v1a18.54,18.54,0,0,0-1.92,2.37,17.94,17.94,0,0,0-1.46,2.59,15.52,15.52,0,0,0-.95,2.77,16.54,16.54,0,0,0-.43,2.91h-1.14a17.44,17.44,0,0,1,.43-2.88,14.25,14.25,0,0,1,.9-2.62,21.25,21.25,0,0,1,3.5-5.13h-6.49v-1Z"/><path class="cls-7" d="M336.57,192.78v1h-5.13l-.74,3.77,0,0a3.13,3.13,0,0,1,1.11-.7,3.77,3.77,0,0,1,1.34-.24,4.31,4.31,0,0,1,1.62.29,3.53,3.53,0,0,1,1.24.83,3.72,3.72,0,0,1,.79,1.28,4.66,4.66,0,0,1,.28,1.65,3.81,3.81,0,0,1-.32,1.55,4,4,0,0,1-.87,1.26,4.05,4.05,0,0,1-1.31.85,4.22,4.22,0,0,1-1.62.31,4.46,4.46,0,0,1-1.49-.23,3.5,3.5,0,0,1-1.15-.66,3.07,3.07,0,0,1-.76-1,3.42,3.42,0,0,1-.32-1.29h1.07a2.47,2.47,0,0,0,.22.87,2.24,2.24,0,0,0,.54.73,2.66,2.66,0,0,0,.84.5,3.09,3.09,0,0,0,1.13.19,2.8,2.8,0,0,0,1.18-.25,2.91,2.91,0,0,0,.95-.68,3.27,3.27,0,0,0,.63-1,3.39,3.39,0,0,0,.23-1.25,3.26,3.26,0,0,0-.21-1.17,2.88,2.88,0,0,0-1.55-1.63,3,3,0,0,0-1.23-.25,3.46,3.46,0,0,0-1.45.31,3,3,0,0,0-1.15.93h-.9l1.1-5.95Z"/><path class="cls-7" d="M346.88,192.78v1a18.54,18.54,0,0,0-1.92,2.37,17.94,17.94,0,0,0-1.46,2.59,15.52,15.52,0,0,0-.95,2.77,16.54,16.54,0,0,0-.43,2.91H341a17.44,17.44,0,0,1,.43-2.88,14.25,14.25,0,0,1,.9-2.62,21.25,21.25,0,0,1,3.5-5.13h-6.49v-1Z"/><path class="cls-7" d="M357,201.1a3.2,3.2,0,0,1-1.12,2.59,5,5,0,0,1-5.85,0,3.42,3.42,0,0,1-.95-3.58,3.12,3.12,0,0,1,.48-.9,3,3,0,0,1,1.74-1.1v0a2.78,2.78,0,0,1-1.44-1,2.67,2.67,0,0,1-.48-1.61,2.57,2.57,0,0,1,1-2.13,4,4,0,0,1,2.53-.8,4,4,0,0,1,2.54.8,2.55,2.55,0,0,1,1,2.13,3,3,0,0,1-.13.88,2.44,2.44,0,0,1-1,1.32,2.83,2.83,0,0,1-.81.38v0a3,3,0,0,1,1.79,1A3.11,3.11,0,0,1,357,201.1Zm-1.06,0a2.37,2.37,0,0,0-.79-1.84,3.77,3.77,0,0,0-4.4,0,2.38,2.38,0,0,0-.78,1.85,2.43,2.43,0,0,0,.82,1.93,3.66,3.66,0,0,0,4.34,0A2.42,2.42,0,0,0,356,201.1Zm-.49-5.62a1.84,1.84,0,0,0-.68-1.5,3.22,3.22,0,0,0-3.62,0,1.77,1.77,0,0,0-.71,1.48,2,2,0,0,0,.67,1.6,2.65,2.65,0,0,0,1.79.58,2.69,2.69,0,0,0,1.92-.6A2.06,2.06,0,0,0,355.49,195.48Z"/><path class="cls-7" d="M336.57,234.83v1h-5.13l-.74,3.77,0,0a3.13,3.13,0,0,1,1.11-.7,3.77,3.77,0,0,1,1.34-.24,4.31,4.31,0,0,1,1.62.29,3.53,3.53,0,0,1,1.24.83,3.72,3.72,0,0,1,.79,1.28,4.66,4.66,0,0,1,.28,1.65,3.81,3.81,0,0,1-.32,1.55,4,4,0,0,1-.87,1.26,4.05,4.05,0,0,1-1.31.85,4.22,4.22,0,0,1-1.62.31,4.46,4.46,0,0,1-1.49-.23,3.5,3.5,0,0,1-1.15-.66,3.07,3.07,0,0,1-.76-1,3.42,3.42,0,0,1-.32-1.29h1.07a2.47,2.47,0,0,0,.22.87,2.24,2.24,0,0,0,.54.73,2.66,2.66,0,0,0,.84.5,3.09,3.09,0,0,0,1.13.19,2.8,2.8,0,0,0,1.18-.25,2.91,2.91,0,0,0,.95-.68,3.27,3.27,0,0,0,.63-1,3.39,3.39,0,0,0,.23-1.25,3.26,3.26,0,0,0-.21-1.17,2.88,2.88,0,0,0-1.55-1.63,3,3,0,0,0-1.23-.25,3.46,3.46,0,0,0-1.45.31,3,3,0,0,0-1.15.93h-.9l1.1-5.95Z"/><path class="cls-7" d="M347.19,243.15a3.2,3.2,0,0,1-1.12,2.59,5,5,0,0,1-5.85,0,3.42,3.42,0,0,1-.95-3.58,3.12,3.12,0,0,1,.48-.9,3,3,0,0,1,1.74-1.1v0a2.78,2.78,0,0,1-1.44-1,2.67,2.67,0,0,1-.48-1.61,2.57,2.57,0,0,1,1-2.13,4,4,0,0,1,2.53-.8,4,4,0,0,1,2.54.8,2.55,2.55,0,0,1,1,2.13,3,3,0,0,1-.13.88,2.44,2.44,0,0,1-1,1.32,2.83,2.83,0,0,1-.81.38v0a3,3,0,0,1,1.79,1A3.11,3.11,0,0,1,347.19,243.15Zm-1.06,0a2.37,2.37,0,0,0-.79-1.84,3.77,3.77,0,0,0-4.4,0,2.38,2.38,0,0,0-.78,1.85,2.43,2.43,0,0,0,.82,1.93,3.66,3.66,0,0,0,4.34,0A2.42,2.42,0,0,0,346.13,243.15Zm-.49-5.62A1.84,1.84,0,0,0,345,236a3.22,3.22,0,0,0-3.62,0,1.77,1.77,0,0,0-.71,1.48,2,2,0,0,0,.67,1.6,2.65,2.65,0,0,0,1.79.58,2.69,2.69,0,0,0,1.92-.6A2.06,2.06,0,0,0,345.64,237.54Z"/><path class="cls-7" d="M451.2,108.44a4.84,4.84,0,0,1,1.32.18,3.65,3.65,0,0,1,1.16.55,2.83,2.83,0,0,1,.82.93,2.69,2.69,0,0,1,.31,1.32,3,3,0,0,1-.13.9,2.46,2.46,0,0,1-.38.76,2.43,2.43,0,0,1-.62.57,2.93,2.93,0,0,1-.84.37v0a2.79,2.79,0,0,1,1.8,1,3,3,0,0,1,.6,1.89,3.27,3.27,0,0,1-1.14,2.59,3.77,3.77,0,0,1-1.29.74,5.12,5.12,0,0,1-1.64.24,4.94,4.94,0,0,1-1.51-.23,3.78,3.78,0,0,1-1.25-.66,3.18,3.18,0,0,1-.85-1.06,3.08,3.08,0,0,1-.31-1.41v-.25h1.07v.22a2.36,2.36,0,0,0,.75,1.74,2.72,2.72,0,0,0,.89.54,3.31,3.31,0,0,0,1.2.2,3.66,3.66,0,0,0,1.23-.18,3,3,0,0,0,.94-.55,2.31,2.31,0,0,0,.88-1.87,2.55,2.55,0,0,0-.19-1,2.22,2.22,0,0,0-.57-.79,3,3,0,0,0-2.07-.67h-.87v-.89h.93a2.53,2.53,0,0,0,1.64-.56,1.93,1.93,0,0,0,.7-1.57,2.15,2.15,0,0,0-.2-1,2,2,0,0,0-.55-.69,2.35,2.35,0,0,0-.82-.42,3.47,3.47,0,0,0-1-.14,2.86,2.86,0,0,0-1.1.2,2.42,2.42,0,0,0-1.35,1.38,2.68,2.68,0,0,0-.18,1h-1.06a3.31,3.31,0,0,1,.25-1.25,3.44,3.44,0,0,1,.72-1.11,3.68,3.68,0,0,1,1.16-.79A3.83,3.83,0,0,1,451.2,108.44Z"/><path class="cls-7" d="M463.41,117.35v2.92h-1v-2.92H457v-1l5.44-7.81h1v7.93h1.76v.89Zm-1-7.27h0L458,116.46h4.47Z"/><path class="cls-7" d="M451.63,150.49a4.3,4.3,0,0,1,1.27.18,3.18,3.18,0,0,1,1,.52,2.91,2.91,0,0,1,.73.84,3.38,3.38,0,0,1,.4,1.13H454a2.33,2.33,0,0,0-.25-.69,2,2,0,0,0-.48-.57,2.25,2.25,0,0,0-.71-.38,2.93,2.93,0,0,0-.94-.14,2.75,2.75,0,0,0-1.39.35,2.85,2.85,0,0,0-1,1,5.18,5.18,0,0,0-.62,1.65,10.92,10.92,0,0,0-.21,2.24h0a3.51,3.51,0,0,1,3.13-1.95,3.72,3.72,0,0,1,2.78,1.1,3.83,3.83,0,0,1,1.08,2.82,3.85,3.85,0,0,1-4,4,4.19,4.19,0,0,1-1.91-.4,3.13,3.13,0,0,1-1.26-1.14,5.71,5.71,0,0,1-.7-1.89,14.11,14.11,0,0,1-.23-2.78,11.51,11.51,0,0,1,.09-1.44,7.57,7.57,0,0,1,.3-1.37,6,6,0,0,1,.54-1.21,3.86,3.86,0,0,1,.81-1,3.63,3.63,0,0,1,1.12-.65A4.17,4.17,0,0,1,451.63,150.49Zm-3,8.19a3.05,3.05,0,0,0,.77,2.22,2.86,2.86,0,0,0,2.15.79,2.59,2.59,0,0,0,2-.89,3.06,3.06,0,0,0,.8-2.12,3.26,3.26,0,0,0-.78-2.23,2.62,2.62,0,0,0-2.07-.88,2.76,2.76,0,0,0-2.09.86A3.13,3.13,0,0,0,448.6,158.68Z"/><path class="cls-7" d="M451.2,192.55a4.84,4.84,0,0,1,1.32.18,3.65,3.65,0,0,1,1.16.55,2.83,2.83,0,0,1,.82.93,2.69,2.69,0,0,1,.31,1.32,3,3,0,0,1-.13.9,2.46,2.46,0,0,1-.38.76,2.43,2.43,0,0,1-.62.57,2.93,2.93,0,0,1-.84.37v0a2.79,2.79,0,0,1,1.8,1,3,3,0,0,1,.6,1.89,3.27,3.27,0,0,1-1.14,2.59,3.77,3.77,0,0,1-1.29.74,5.12,5.12,0,0,1-1.64.24,4.94,4.94,0,0,1-1.51-.23,3.78,3.78,0,0,1-1.25-.66,3.18,3.18,0,0,1-.85-1.06,3.08,3.08,0,0,1-.31-1.41V201h1.07v.22a2.36,2.36,0,0,0,.75,1.74,2.72,2.72,0,0,0,.89.54,3.31,3.31,0,0,0,1.2.2,3.66,3.66,0,0,0,1.23-.18,3,3,0,0,0,.94-.55,2.31,2.31,0,0,0,.88-1.87,2.55,2.55,0,0,0-.19-1,2.22,2.22,0,0,0-.57-.79,3,3,0,0,0-2.07-.67h-.87v-.89h.93a2.53,2.53,0,0,0,1.64-.56,1.93,1.93,0,0,0,.7-1.57,2.15,2.15,0,0,0-.2-1A2,2,0,0,0,453,194a2.35,2.35,0,0,0-.82-.42,3.47,3.47,0,0,0-1-.14,2.86,2.86,0,0,0-1.1.2,2.42,2.42,0,0,0-1.35,1.38,2.68,2.68,0,0,0-.18,1h-1.06a3.31,3.31,0,0,1,.25-1.25,3.44,3.44,0,0,1,.72-1.11,3.68,3.68,0,0,1,1.16-.79A3.83,3.83,0,0,1,451.2,192.55Z"/><path class="cls-7" d="M461.48,192.55a4.3,4.3,0,0,1,1.27.18,3.18,3.18,0,0,1,1,.52,2.91,2.91,0,0,1,.73.84,3.38,3.38,0,0,1,.4,1.13h-1.06a2.33,2.33,0,0,0-.25-.69,2,2,0,0,0-.48-.57,2.25,2.25,0,0,0-.71-.38,2.93,2.93,0,0,0-.94-.14,2.75,2.75,0,0,0-1.39.35,2.85,2.85,0,0,0-1,1,5.18,5.18,0,0,0-.62,1.65,10.92,10.92,0,0,0-.21,2.24h0a3.51,3.51,0,0,1,3.13-1.95,3.72,3.72,0,0,1,2.78,1.1,3.83,3.83,0,0,1,1.08,2.82,3.85,3.85,0,0,1-4,4,4.19,4.19,0,0,1-1.91-.4,3.13,3.13,0,0,1-1.26-1.14,5.71,5.71,0,0,1-.7-1.89,14.11,14.11,0,0,1-.23-2.78,11.51,11.51,0,0,1,.09-1.44,7.57,7.57,0,0,1,.3-1.37,6,6,0,0,1,.54-1.21,3.86,3.86,0,0,1,.81-1,3.63,3.63,0,0,1,1.12-.65A4.17,4.17,0,0,1,461.48,192.55Zm-3,8.19a3.05,3.05,0,0,0,.77,2.22,2.86,2.86,0,0,0,2.15.79,2.59,2.59,0,0,0,2-.89,3.06,3.06,0,0,0,.8-2.12,3.26,3.26,0,0,0-.78-2.23,2.62,2.62,0,0,0-2.07-.88,2.76,2.76,0,0,0-2.09.86A3.13,3.13,0,0,0,458.45,200.73Z"/><path class="cls-7" d="M471.34,192.55a4.3,4.3,0,0,1,1.27.18,3.18,3.18,0,0,1,1,.52,2.91,2.91,0,0,1,.73.84,3.38,3.38,0,0,1,.4,1.13h-1.06a2.33,2.33,0,0,0-.25-.69A2,2,0,0,0,473,194a2.25,2.25,0,0,0-.71-.38,2.93,2.93,0,0,0-.94-.14,2.75,2.75,0,0,0-1.39.35,2.85,2.85,0,0,0-1,1,5.18,5.18,0,0,0-.62,1.65,10.92,10.92,0,0,0-.21,2.24h0a3.51,3.51,0,0,1,3.13-1.95,3.72,3.72,0,0,1,2.78,1.1,3.83,3.83,0,0,1,1.08,2.82,3.85,3.85,0,0,1-4,4,4.19,4.19,0,0,1-1.91-.4A3.13,3.13,0,0,1,468,203.1a5.71,5.71,0,0,1-.7-1.89,14.11,14.11,0,0,1-.23-2.78,11.51,11.51,0,0,1,.09-1.44,7.57,7.57,0,0,1,.3-1.37,6,6,0,0,1,.54-1.21,3.86,3.86,0,0,1,.81-1,3.63,3.63,0,0,1,1.12-.65A4.17,4.17,0,0,1,471.34,192.55Zm-3,8.19a3.05,3.05,0,0,0,.77,2.22,2.86,2.86,0,0,0,2.15.79,2.59,2.59,0,0,0,2-.89,3.06,3.06,0,0,0,.8-2.12,3.26,3.26,0,0,0-.78-2.23,2.62,2.62,0,0,0-2.07-.88,2.76,2.76,0,0,0-2.09.86A3.13,3.13,0,0,0,468.31,200.73Z"/><path class="cls-7" d="M451.28,234.6a3.89,3.89,0,0,1,1.79.39,3.37,3.37,0,0,1,1.28,1.15,5.61,5.61,0,0,1,.77,1.89,11.75,11.75,0,0,1,.26,2.6,8.06,8.06,0,0,1-1,4.54,3.82,3.82,0,0,1-6.09,0,10.35,10.35,0,0,1,0-9.07A3.47,3.47,0,0,1,451.28,234.6Zm-3,6q0,5.17,3,5.17t3-5.17a7.65,7.65,0,0,0-.77-3.85,2.5,2.5,0,0,0-2.28-1.29,2.47,2.47,0,0,0-2.24,1.27A7.63,7.63,0,0,0,448.26,240.63Z"/><path class="cls-4" d="M566.24,72.41l2.52,7.78h0l2.52-7.78h1.76l-3.35,9.68h-1.92l-3.31-9.68Z"/><rect class="cls-2" x="95" y="304.7" width="961.84" height="40.7"/><rect class="cls-3" x="95" y="262.64" width="961.84" height="40.7"/><rect class="cls-3" x="95" y="304.7" width="961.84" height="40.7"/><rect class="cls-6" x="95" y="301.75" width="960.5" height="2.28"/><path class="cls-7" d="M122.78,280.4a3.18,3.18,0,0,1-.95,2.44,3.45,3.45,0,0,1-2.44.87h-4.12v5h-1.11V277.08h5.23a3.44,3.44,0,0,1,2.44.88A3.16,3.16,0,0,1,122.78,280.4Zm-1.1,0a2.27,2.27,0,0,0-.67-1.75,2.87,2.87,0,0,0-2-.62h-3.71v4.75h3.87a2.68,2.68,0,0,0,1.83-.61A2.23,2.23,0,0,0,121.67,280.4Z"/><path class="cls-7" d="M132.13,288.64l-.36.05h-.33a1.86,1.86,0,0,1-.6-.08.88.88,0,0,1-.4-.27,1.11,1.11,0,0,1-.22-.48,3.24,3.24,0,0,1-.07-.72h0a4.15,4.15,0,0,1-1.4,1.42,3.79,3.79,0,0,1-1.84.4,3.34,3.34,0,0,1-2.17-.68,2.37,2.37,0,0,1-.82-1.94,2.25,2.25,0,0,1,.89-1.94,9.21,9.21,0,0,1,4-.93,2.64,2.64,0,0,0,.6-.11,1,1,0,0,0,.39-.22.81.81,0,0,0,.21-.35,1.74,1.74,0,0,0,.07-.52,1.69,1.69,0,0,0-.55-1.36,2.74,2.74,0,0,0-1.78-.46,3.54,3.54,0,0,0-1,.12,2.24,2.24,0,0,0-.72.34,1.53,1.53,0,0,0-.45.52,1.65,1.65,0,0,0-.18.66H124.3a2.68,2.68,0,0,1,.3-1.05,2.41,2.41,0,0,1,.7-.81,3.3,3.3,0,0,1,1.09-.52,5.47,5.47,0,0,1,1.48-.18,3.59,3.59,0,0,1,2.48.73,2.65,2.65,0,0,1,.79,2.06v4.83a.64.64,0,0,0,.15.45.62.62,0,0,0,.48.17,1,1,0,0,0,.34-.06Zm-2.07-4.81h0c-.11.2-.45.34-1,.42l-.9.13-1,.17a3.63,3.63,0,0,0-1.58.59,1.36,1.36,0,0,0-.53,1.14,1.58,1.58,0,0,0,.59,1.28,2.17,2.17,0,0,0,1.4.48,3.21,3.21,0,0,0,2.22-.79,2.51,2.51,0,0,0,.88-2Z"/><path class="cls-7" d="M134.07,288.7v-8.9h1v2.08h0a3.47,3.47,0,0,1,1.22-1.62,3.15,3.15,0,0,1,1.87-.58h.39v1.08h-.25a3,3,0,0,0-2.31.93,3.2,3.2,0,0,0-.87,2.29v4.72Z"/><path class="cls-7" d="M148,288.64l-.36.05h-.33a1.86,1.86,0,0,1-.6-.08.88.88,0,0,1-.4-.27,1.11,1.11,0,0,1-.22-.48,3.24,3.24,0,0,1-.07-.72h0a4.15,4.15,0,0,1-1.4,1.42,3.79,3.79,0,0,1-1.84.4,3.34,3.34,0,0,1-2.17-.68,2.37,2.37,0,0,1-.82-1.94,2.25,2.25,0,0,1,.89-1.94,9.21,9.21,0,0,1,4-.93,2.64,2.64,0,0,0,.6-.11,1,1,0,0,0,.39-.22.81.81,0,0,0,.21-.35,1.74,1.74,0,0,0,.07-.52,1.69,1.69,0,0,0-.55-1.36,2.74,2.74,0,0,0-1.78-.46,3.54,3.54,0,0,0-1,.12,2.24,2.24,0,0,0-.72.34,1.53,1.53,0,0,0-.45.52,1.65,1.65,0,0,0-.18.66h-1.09a2.68,2.68,0,0,1,.3-1.05,2.41,2.41,0,0,1,.7-.81,3.3,3.3,0,0,1,1.09-.52,5.47,5.47,0,0,1,1.48-.18,3.59,3.59,0,0,1,2.48.73,2.65,2.65,0,0,1,.79,2.06v4.83a.64.64,0,0,0,.15.45.62.62,0,0,0,.48.17,1,1,0,0,0,.34-.06Zm-2.07-4.81h0c-.11.2-.45.34-1,.42l-.9.13-1,.17a3.63,3.63,0,0,0-1.58.59,1.36,1.36,0,0,0-.53,1.14,1.58,1.58,0,0,0,.59,1.28,2.17,2.17,0,0,0,1.4.48,3.21,3.21,0,0,0,2.22-.79,2.51,2.51,0,0,0,.88-2Z"/><path class="cls-7" d="M161.13,288.7v-6.06a2.35,2.35,0,0,0-.5-1.66,2.51,2.51,0,0,0-3.4.28,3.8,3.8,0,0,0-.61,2.32v5.12h-1.1v-6.1a2.46,2.46,0,0,0-.46-1.58,1.69,1.69,0,0,0-1.4-.57,2.34,2.34,0,0,0-2,.88,3.7,3.7,0,0,0-.68,2.32v5h-1.09v-8.9h1v1.49h0a3.07,3.07,0,0,1,2.92-1.75,3.3,3.3,0,0,1,.87.11,2.53,2.53,0,0,1,.74.33,2.26,2.26,0,0,1,.57.54,2.52,2.52,0,0,1,.37.75A2.92,2.92,0,0,1,157.6,280a3.25,3.25,0,0,1,1.68-.44,2.88,2.88,0,0,1,2.21.79,3.2,3.2,0,0,1,.73,2.25v6.12Z"/><path class="cls-7" d="M168.68,279.54a3.68,3.68,0,0,1,1.76.4,3.52,3.52,0,0,1,1.22,1.07,4.69,4.69,0,0,1,.71,1.54,7,7,0,0,1,.23,1.82v.17h-6.85a4.83,4.83,0,0,0,.17,1.28,3.52,3.52,0,0,0,.52,1.13,2.7,2.7,0,0,0,.89.8,2.6,2.6,0,0,0,1.29.3,3.3,3.3,0,0,0,1-.13,2.75,2.75,0,0,0,.75-.35,2.37,2.37,0,0,0,.56-.53,3.26,3.26,0,0,0,.39-.66h1.07a4.06,4.06,0,0,1-.52,1.07,3.37,3.37,0,0,1-.79.81,3.62,3.62,0,0,1-1.07.52,4.51,4.51,0,0,1-1.35.19,4,4,0,0,1-1.76-.36,3.46,3.46,0,0,1-1.24-1,4.24,4.24,0,0,1-.73-1.49,7,7,0,0,1-.24-1.86,6.3,6.3,0,0,1,.24-1.74,4.54,4.54,0,0,1,.74-1.51,3.71,3.71,0,0,1,1.25-1.06A3.78,3.78,0,0,1,168.68,279.54Zm2.83,4.09a4.09,4.09,0,0,0-.21-1.15,3.3,3.3,0,0,0-.55-1,2.8,2.8,0,0,0-.88-.73,2.5,2.5,0,0,0-1.2-.28,2.5,2.5,0,0,0-2,.95,3.69,3.69,0,0,0-.57,1,5.86,5.86,0,0,0-.31,1.22Z"/><path class="cls-7" d="M178.46,288.79h-.89a4.1,4.1,0,0,1-.92-.09,1.31,1.31,0,0,1-.61-.31,1.21,1.21,0,0,1-.33-.58,3.59,3.59,0,0,1-.1-.92v-6.19h-1.79v-.91h1.79v-2.67h1.09v2.67h2v.91h-2v6.07a2.31,2.31,0,0,0,0,.46.86.86,0,0,0,.14.35.67.67,0,0,0,.29.22,1.17,1.17,0,0,0,.47.08h.82l.28,0v.92Z"/><path class="cls-7" d="M184.37,279.54a3.68,3.68,0,0,1,1.76.4,3.52,3.52,0,0,1,1.22,1.07,4.69,4.69,0,0,1,.71,1.54,7,7,0,0,1,.23,1.82v.17h-6.85a4.83,4.83,0,0,0,.17,1.28,3.52,3.52,0,0,0,.52,1.13,2.7,2.7,0,0,0,.89.8,2.6,2.6,0,0,0,1.29.3,3.3,3.3,0,0,0,1-.13,2.75,2.75,0,0,0,.75-.35,2.37,2.37,0,0,0,.56-.53,3.26,3.26,0,0,0,.39-.66H188a4.06,4.06,0,0,1-.52,1.07,3.37,3.37,0,0,1-.79.81,3.62,3.62,0,0,1-1.07.52,4.51,4.51,0,0,1-1.35.19,4,4,0,0,1-1.76-.36,3.46,3.46,0,0,1-1.24-1,4.24,4.24,0,0,1-.73-1.49,7,7,0,0,1-.24-1.86,6.3,6.3,0,0,1,.24-1.74,4.54,4.54,0,0,1,.74-1.51,3.71,3.71,0,0,1,1.25-1.06A3.78,3.78,0,0,1,184.37,279.54Zm2.83,4.09a4.09,4.09,0,0,0-.21-1.15,3.3,3.3,0,0,0-.55-1,2.8,2.8,0,0,0-.88-.73,2.5,2.5,0,0,0-1.2-.28,2.5,2.5,0,0,0-2,.95,3.69,3.69,0,0,0-.57,1,5.86,5.86,0,0,0-.31,1.22Z"/><path class="cls-7" d="M190.56,288.7v-8.9h1v2.08h0a3.47,3.47,0,0,1,1.22-1.62,3.15,3.15,0,0,1,1.87-.58h.39v1.08h-.25a3,3,0,0,0-2.31.93,3.2,3.2,0,0,0-.87,2.29v4.72Z"/><path class="cls-7" d="M208.32,277.1v1H203.2l-.74,3.77,0,0a3.13,3.13,0,0,1,1.11-.7,3.77,3.77,0,0,1,1.34-.24,4.31,4.31,0,0,1,1.62.29,3.53,3.53,0,0,1,1.24.83,3.72,3.72,0,0,1,.79,1.28,4.66,4.66,0,0,1,.28,1.65,3.81,3.81,0,0,1-.32,1.55,4,4,0,0,1-.87,1.26,4.05,4.05,0,0,1-1.31.85,4.22,4.22,0,0,1-1.62.31,4.46,4.46,0,0,1-1.49-.23,3.5,3.5,0,0,1-1.15-.66,3.07,3.07,0,0,1-.76-1,3.42,3.42,0,0,1-.32-1.29h1.07a2.47,2.47,0,0,0,.22.87,2.24,2.24,0,0,0,.54.73,2.66,2.66,0,0,0,.84.5,3.09,3.09,0,0,0,1.13.19,2.8,2.8,0,0,0,1.18-.25,2.91,2.91,0,0,0,.95-.68,3.27,3.27,0,0,0,.63-1,3.39,3.39,0,0,0,.23-1.25,3.26,3.26,0,0,0-.21-1.17,2.88,2.88,0,0,0-1.55-1.63,3,3,0,0,0-1.23-.25,3.46,3.46,0,0,0-1.45.31,3,3,0,0,0-1.15.93h-.9l1.1-5.95Z"/><path class="cls-7" d="M333.35,288.7V280h-3.1v-.76q.72,0,1.22-.08a3.21,3.21,0,0,0,.78-.17,1.77,1.77,0,0,0,.87-.7,3.35,3.35,0,0,0,.43-1.32h.86V288.7Z"/><path class="cls-7" d="M343.12,276.87a3.82,3.82,0,0,1,2.65.89,3.1,3.1,0,0,1,1,2.42,3.83,3.83,0,0,1-.75,2.25,9.43,9.43,0,0,1-2.72,2.25,11.26,11.26,0,0,0-2.25,1.67,2.71,2.71,0,0,0-.75,1.38h6.53v1h-7.73a4.07,4.07,0,0,1,.75-2.36,9,9,0,0,1,2.62-2.26,11.91,11.91,0,0,0,2.56-2,2.86,2.86,0,0,0,.69-1.92,2.22,2.22,0,0,0-.73-1.73,2.73,2.73,0,0,0-1.9-.67,2.76,2.76,0,0,0-1.16.23,2.46,2.46,0,0,0-.82.6,2.41,2.41,0,0,0-.49.84,3,3,0,0,0-.16,1v.23h-1v-.17a4,4,0,0,1,.23-1.33,3.29,3.29,0,0,1,.69-1.14,3.36,3.36,0,0,1,1.17-.8A4.16,4.16,0,0,1,343.12,276.87Z"/><path class="cls-7" d="M356.28,277.1v1h-5.13l-.74,3.77,0,0a3.13,3.13,0,0,1,1.11-.7,3.77,3.77,0,0,1,1.34-.24,4.31,4.31,0,0,1,1.62.29,3.53,3.53,0,0,1,1.24.83,3.72,3.72,0,0,1,.79,1.28,4.66,4.66,0,0,1,.28,1.65,3.81,3.81,0,0,1-.32,1.55,4,4,0,0,1-.87,1.26,4.05,4.05,0,0,1-1.31.85,4.22,4.22,0,0,1-1.62.31,4.46,4.46,0,0,1-1.49-.23,3.5,3.5,0,0,1-1.15-.66,3.07,3.07,0,0,1-.76-1,3.42,3.42,0,0,1-.32-1.29h1.07a2.47,2.47,0,0,0,.22.87,2.24,2.24,0,0,0,.54.73,2.66,2.66,0,0,0,.84.5,3.09,3.09,0,0,0,1.13.19,2.8,2.8,0,0,0,1.18-.25,2.91,2.91,0,0,0,.95-.68,3.27,3.27,0,0,0,.63-1,3.39,3.39,0,0,0,.23-1.25,3.26,3.26,0,0,0-.21-1.17,2.88,2.88,0,0,0-1.55-1.63,3,3,0,0,0-1.23-.25,3.46,3.46,0,0,0-1.45.31,3,3,0,0,0-1.15.93h-.9l1.1-5.95Z"/><path class="cls-7" d="M451.2,276.87a4.84,4.84,0,0,1,1.32.18,3.65,3.65,0,0,1,1.16.55,2.83,2.83,0,0,1,.82.93,2.69,2.69,0,0,1,.31,1.32,3,3,0,0,1-.13.9,2.46,2.46,0,0,1-.38.76,2.43,2.43,0,0,1-.62.57,2.93,2.93,0,0,1-.84.37v0a2.79,2.79,0,0,1,1.8,1,3,3,0,0,1,.6,1.89A3.27,3.27,0,0,1,454.1,288a3.77,3.77,0,0,1-1.29.74,5.12,5.12,0,0,1-1.64.24,4.94,4.94,0,0,1-1.51-.23,3.78,3.78,0,0,1-1.25-.66,3.18,3.18,0,0,1-.85-1.06,3.08,3.08,0,0,1-.31-1.41v-.25h1.07v.22a2.36,2.36,0,0,0,.75,1.74,2.72,2.72,0,0,0,.89.54,3.31,3.31,0,0,0,1.2.2,3.66,3.66,0,0,0,1.23-.18,3,3,0,0,0,.94-.55,2.31,2.31,0,0,0,.88-1.87,2.55,2.55,0,0,0-.19-1,2.22,2.22,0,0,0-.57-.79,3,3,0,0,0-2.07-.67h-.87v-.89h.93a2.53,2.53,0,0,0,1.64-.56,1.93,1.93,0,0,0,.7-1.57,2.15,2.15,0,0,0-.2-1,2,2,0,0,0-.55-.69,2.35,2.35,0,0,0-.82-.42,3.47,3.47,0,0,0-1-.14,2.86,2.86,0,0,0-1.1.2,2.42,2.42,0,0,0-1.35,1.38,2.68,2.68,0,0,0-.18,1h-1.06a3.31,3.31,0,0,1,.25-1.25,3.44,3.44,0,0,1,.72-1.11,3.68,3.68,0,0,1,1.16-.79A3.83,3.83,0,0,1,451.2,276.87Z"/><path class="cls-7" d="M463.41,285.79v2.92h-1v-2.92H457v-1l5.44-7.81h1v7.93h1.76v.89Zm-1-7.27h0L458,284.89h4.47Z"/><polygon class="cls-3" points="298.5 75.22 293.07 80.65 287.64 75.22 298.5 75.22"/><polyline class="cls-3" points="310.7 94.21 310.7 91.5 95 91.5 95 94.21"/><polygon class="cls-3" points="293.32 73.95 287.63 79.64 281.94 73.95 293.32 73.95"/><polyline class="cls-3" points="306.36 94.43 306.36 89.89 95 89.89 95 94.43"/><path class="cls-1" d="M1,316V1H564V316Zm74-34H524V35H75Z"/><path class="cls-8" d="M563,2V315H2V2H563M74,283H525V34H74V283M565,0H0V317H565V0ZM76,281V36H523V281Z"/><path class="cls-8" d="M39.5,144A14.5,14.5,0,1,1,25,158.5,14.52,14.52,0,0,1,39.5,144m0-2A16.5,16.5,0,1,0,56,158.5,16.5,16.5,0,0,0,39.5,142Z"/></g></svg>