<svg xmlns="http://www.w3.org/2000/svg" viewBox="0 0 565 191"><defs><style>.cls-1{fill:#fafafa;}.cls-11,.cls-2,.cls-5,.cls-7{fill:none;}.cls-3{opacity:0.5;}.cls-4{fill:#646464;}.cls-5{stroke:#000;opacity:0.1;}.cls-11,.cls-5,.cls-7{stroke-miterlimit:10;}.cls-6{fill:#444;}.cls-7{stroke:#0aaeff;stroke-width:4px;}.cls-8{fill:#fff;}.cls-9{fill:#ebebeb;}.cls-10{fill:#464646;}.cls-11{stroke:#6e6e6e;stroke-width:2px;}</style></defs><title>Artboard 61</title><g id="Background"><rect class="cls-1" width="565" height="191"/></g><g id="Content"><rect class="cls-2" x="197" y="94" width="170" height="28"/><g class="cls-3"><path class="cls-4" d="M395.66,103.76v8.57h-1.5v-8.57Z"/><path class="cls-4" d="M400.92,112.37h-.83a4.59,4.59,0,0,1-.74-.06,1.58,1.58,0,0,1-.6-.22,1.12,1.12,0,0,1-.4-.45,1.67,1.67,0,0,1-.15-.76v-4.15h-1.29v-1h1.29v-2h1.45v2h1.5v1h-1.5v3.72a.83.83,0,0,0,.17.58.8.8,0,0,0,.59.18H401l.17,0v1.14Z"/><path class="cls-4" d="M405.32,105.57a3,3,0,0,1,1.34.28,2.78,2.78,0,0,1,1,.77,3.33,3.33,0,0,1,.58,1.13,4.76,4.76,0,0,1,.19,1.37v.26h-4.85a2.77,2.77,0,0,0,.13.81,1.9,1.9,0,0,0,.35.63,1.55,1.55,0,0,0,.54.41,1.7,1.7,0,0,0,.72.15,1.9,1.9,0,0,0,1-.23,1.7,1.7,0,0,0,.61-.6h1.37a3.06,3.06,0,0,1-.45.81,2.83,2.83,0,0,1-.66.62,3,3,0,0,1-.85.39,3.66,3.66,0,0,1-1,.13,3.28,3.28,0,0,1-1.33-.26,2.82,2.82,0,0,1-1-.72,3.18,3.18,0,0,1-.62-1.1,4.31,4.31,0,0,1-.22-1.4,4,4,0,0,1,.22-1.33,3.3,3.3,0,0,1,.63-1.1,3,3,0,0,1,1-.76A3.16,3.16,0,0,1,405.32,105.57Zm1.63,2.85a2.77,2.77,0,0,0-.16-.71,1.73,1.73,0,0,0-.33-.55,1.43,1.43,0,0,0-.5-.35,1.91,1.91,0,0,0-1.37,0,1.51,1.51,0,0,0-.52.36,1.79,1.79,0,0,0-.35.55,2.54,2.54,0,0,0-.17.7Z"/><path class="cls-4" d="M418.2,112.32v-4a3.44,3.44,0,0,0-.05-.62,1.26,1.26,0,0,0-.19-.49,1,1,0,0,0-.39-.32,1.48,1.48,0,0,0-.63-.12,1.24,1.24,0,0,0-1.06.47,2.29,2.29,0,0,0-.35,1.38v3.74h-1.45v-4.21a1.64,1.64,0,0,0-.28-1,1.1,1.1,0,0,0-.91-.35,1.34,1.34,0,0,0-1.08.48,2,2,0,0,0-.4,1.31v3.81h-1.45v-6.57h1.36v1h0a2.31,2.31,0,0,1,2.06-1.15,2.27,2.27,0,0,1,1.2.3,1.71,1.71,0,0,1,.71.86,2.45,2.45,0,0,1,.87-.86,2.21,2.21,0,0,1,3.47,2v4.48Z"/><path class="cls-4" d="M428.35,112.37h-.83a4.59,4.59,0,0,1-.74-.06,1.58,1.58,0,0,1-.6-.22,1.12,1.12,0,0,1-.4-.45,1.67,1.67,0,0,1-.15-.76v-4.15h-1.29v-1h1.29v-2h1.45v2h1.5v1h-1.5v3.72a.83.83,0,0,0,.17.58.8.8,0,0,0,.59.18h.57l.17,0v1.14Z"/><path class="cls-4" d="M434.39,112.32v-3.9a2.11,2.11,0,0,0-.32-1.27,1.19,1.19,0,0,0-1-.43,1.79,1.79,0,0,0-.72.13,1.33,1.33,0,0,0-.51.39,1.68,1.68,0,0,0-.3.62,3.13,3.13,0,0,0-.1.83v3.63H430v-9.08h1.44v3.5h0a1.94,1.94,0,0,1,.35-.48,2.36,2.36,0,0,1,.47-.37,2.24,2.24,0,0,1,.56-.24,2.32,2.32,0,0,1,.61-.08,3.33,3.33,0,0,1,1.08.16,1.77,1.77,0,0,1,.74.47,2,2,0,0,1,.43.81,4.22,4.22,0,0,1,.14,1.14v4.17Z"/><path class="cls-4" d="M437.74,112.32v-6.57h1.37v1.34h0A2.4,2.4,0,0,1,440,106a2.23,2.23,0,0,1,1.29-.39h.21l.2,0V107l-.25,0h-.28a1.84,1.84,0,0,0-1.48.6,2.36,2.36,0,0,0-.51,1.57v3.18Z"/><path class="cls-4" d="M445.55,105.57a3,3,0,0,1,1.34.28,2.78,2.78,0,0,1,1,.77,3.33,3.33,0,0,1,.58,1.13,4.76,4.76,0,0,1,.19,1.37v.26h-4.85a2.77,2.77,0,0,0,.13.81,1.9,1.9,0,0,0,.35.63,1.55,1.55,0,0,0,.54.41,1.7,1.7,0,0,0,.72.15,1.9,1.9,0,0,0,1-.23,1.7,1.7,0,0,0,.61-.6h1.37a3.06,3.06,0,0,1-.45.81,2.83,2.83,0,0,1-.66.62,3,3,0,0,1-.85.39,3.66,3.66,0,0,1-1,.13,3.28,3.28,0,0,1-1.33-.26,2.82,2.82,0,0,1-1-.72,3.18,3.18,0,0,1-.62-1.1,4.31,4.31,0,0,1-.22-1.4,4,4,0,0,1,.22-1.33,3.3,3.3,0,0,1,.63-1.1,3,3,0,0,1,1-.76A3.16,3.16,0,0,1,445.55,105.57Zm1.63,2.85a2.77,2.77,0,0,0-.16-.71,1.73,1.73,0,0,0-.33-.55,1.43,1.43,0,0,0-.5-.35,1.91,1.91,0,0,0-1.37,0,1.51,1.51,0,0,0-.52.36,1.79,1.79,0,0,0-.35.55,2.54,2.54,0,0,0-.17.7Z"/><path class="cls-4" d="M453,105.57a3,3,0,0,1,1.34.28,2.78,2.78,0,0,1,1,.77,3.33,3.33,0,0,1,.58,1.13,4.76,4.76,0,0,1,.19,1.37v.26H451.2a2.77,2.77,0,0,0,.13.81,1.9,1.9,0,0,0,.35.63,1.55,1.55,0,0,0,.54.41,1.7,1.7,0,0,0,.72.15,1.9,1.9,0,0,0,1-.23,1.7,1.7,0,0,0,.61-.6h1.37a3.06,3.06,0,0,1-.45.81,2.83,2.83,0,0,1-.66.62,3,3,0,0,1-.85.39,3.66,3.66,0,0,1-1,.13,3.28,3.28,0,0,1-1.33-.26,2.82,2.82,0,0,1-1-.72,3.18,3.18,0,0,1-.62-1.1,4.31,4.31,0,0,1-.22-1.4,4,4,0,0,1,.22-1.33,3.3,3.3,0,0,1,.63-1.1,3,3,0,0,1,1-.76A3.16,3.16,0,0,1,453,105.57Zm1.63,2.85a2.77,2.77,0,0,0-.16-.71,1.73,1.73,0,0,0-.33-.55,1.43,1.43,0,0,0-.5-.35,1.91,1.91,0,0,0-1.37,0,1.51,1.51,0,0,0-.52.36,1.79,1.79,0,0,0-.35.55,2.54,2.54,0,0,0-.17.7Z"/><path class="cls-4" d="M464.55,103.76a3.81,3.81,0,0,1,2.85,1.08,4.36,4.36,0,0,1,1.07,3.17,4.48,4.48,0,0,1-1.05,3.21,3.71,3.71,0,0,1-2.82,1.11h-3.46v-8.57Zm-.17,7.3a2.49,2.49,0,0,0,1.89-.71,3.14,3.14,0,0,0,.69-2.23,3.35,3.35,0,0,0-.69-2.36,2.81,2.81,0,0,0-2.14-.73h-1.51v6Z"/><path class="cls-4" d="M471.49,102.89v1.42H470v-1.42Zm0,2.86v6.57H470v-6.57Z"/><path class="cls-4" d="M478.87,110.34a2,2,0,0,1-.23,1,2,2,0,0,1-.61.68,2.7,2.7,0,0,1-.91.39,4.79,4.79,0,0,1-1.12.13,4.56,4.56,0,0,1-1.08-.12A2.74,2.74,0,0,1,474,112a2.14,2.14,0,0,1-.63-.65,2.2,2.2,0,0,1-.3-.94h1.39a1.15,1.15,0,0,0,.51.8,1.51,1.51,0,0,0,.46.2,2.2,2.2,0,0,0,.56.07,2.4,2.4,0,0,0,.53-.06,1.46,1.46,0,0,0,.45-.18,1,1,0,0,0,.32-.31.78.78,0,0,0,.12-.44.61.61,0,0,0-.1-.35.9.9,0,0,0-.27-.26,1.81,1.81,0,0,0-.4-.18l-.47-.13-.93-.22a6,6,0,0,1-.91-.28,2.37,2.37,0,0,1-.63-.37,1.33,1.33,0,0,1-.37-.49,1.57,1.57,0,0,1-.12-.63,1.77,1.77,0,0,1,.21-.89,1.84,1.84,0,0,1,.58-.63,2.69,2.69,0,0,1,.87-.37,4.46,4.46,0,0,1,1.07-.12,3.88,3.88,0,0,1,1.06.13,2.61,2.61,0,0,1,.82.38,1.9,1.9,0,0,1,.54.59,2,2,0,0,1,.25.77h-1.39a1,1,0,0,0-.45-.65,1.65,1.65,0,0,0-.91-.23,2.3,2.3,0,0,0-.47,0,1.27,1.27,0,0,0-.39.14.77.77,0,0,0-.26.25.65.65,0,0,0-.1.36.6.6,0,0,0,.1.35.91.91,0,0,0,.26.25,1.47,1.47,0,0,0,.35.16l.37.1,1.38.33a4.37,4.37,0,0,1,.68.22,2,2,0,0,1,.54.34,1.47,1.47,0,0,1,.37.5A1.84,1.84,0,0,1,478.87,110.34Z"/><path class="cls-4" d="M486.52,112.32l-.44.09-.39,0a1.79,1.79,0,0,1-.42,0,.91.91,0,0,1-.34-.16.84.84,0,0,1-.24-.29,1.28,1.28,0,0,1-.12-.45h0a2.67,2.67,0,0,1-.45.46,2.3,2.3,0,0,1-.52.31,3.32,3.32,0,0,1-1.31.24,2.42,2.42,0,0,1-1.62-.51,1.77,1.77,0,0,1-.6-1.45,1.7,1.7,0,0,1,.6-1.42,2.11,2.11,0,0,1,.58-.32,4.68,4.68,0,0,1,.73-.2q.39-.08.82-.13l.87-.1.34-.07a.8.8,0,0,0,.27-.13.59.59,0,0,0,.17-.22.79.79,0,0,0,.06-.33,1,1,0,0,0-.31-.79,2.11,2.11,0,0,0-2.05,0,1,1,0,0,0-.39.73h-1.45a2,2,0,0,1,.28-.9,2,2,0,0,1,.62-.62,2.88,2.88,0,0,1,.9-.36,5.08,5.08,0,0,1,1.13-.12,3.42,3.42,0,0,1,2,.5,1.65,1.65,0,0,1,.67,1.41V111a.47.47,0,0,0,.08.3.33.33,0,0,0,.27.1h.12l.13,0Zm-2-3.35h0a1,1,0,0,1-.54.23l-.48.08-.65.11a2.2,2.2,0,0,0-1,.37.87.87,0,0,0-.32.72.89.89,0,0,0,.37.76,1.48,1.48,0,0,0,.87.24,1.79,1.79,0,0,0,1.27-.43,1.59,1.59,0,0,0,.49-1.24Z"/><path class="cls-4" d="M494.31,109a4.85,4.85,0,0,1-.17,1.28,3.47,3.47,0,0,1-.52,1.11,2.65,2.65,0,0,1-.88.79,2.51,2.51,0,0,1-1.25.3,2.93,2.93,0,0,1-1.36-.3,1.9,1.9,0,0,1-.86-.87h0v1h-1.37v-9.08h1.44v3.47h0a1.88,1.88,0,0,1,.36-.47,2.16,2.16,0,0,1,.5-.36,2.68,2.68,0,0,1,.61-.23,2.85,2.85,0,0,1,.68-.08,2.52,2.52,0,0,1,1.24.29,2.66,2.66,0,0,1,.88.78,3.4,3.4,0,0,1,.52,1.11A4.87,4.87,0,0,1,494.31,109Zm-1.45,0a3.74,3.74,0,0,0-.09-.82,2.52,2.52,0,0,0-.3-.76,1.71,1.71,0,0,0-.54-.56,1.5,1.5,0,0,0-.83-.22,1.57,1.57,0,0,0-.82.21,1.71,1.71,0,0,0-.56.54,2.39,2.39,0,0,0-.32.75,3.63,3.63,0,0,0-.1.86,3.68,3.68,0,0,0,.1.83,2.37,2.37,0,0,0,.31.76,1.76,1.76,0,0,0,.56.55,1.57,1.57,0,0,0,.84.21,1.49,1.49,0,0,0,.8-.21,1.69,1.69,0,0,0,.54-.54,2.43,2.43,0,0,0,.31-.75A3.94,3.94,0,0,0,492.86,109Z"/><path class="cls-4" d="M497.43,103.24v9.08H496v-9.08Z"/><path class="cls-4" d="M502.21,105.57a3,3,0,0,1,1.34.28,2.78,2.78,0,0,1,1,.77,3.33,3.33,0,0,1,.58,1.13,4.76,4.76,0,0,1,.19,1.37v.26h-4.85a2.77,2.77,0,0,0,.13.81,1.9,1.9,0,0,0,.35.63,1.55,1.55,0,0,0,.54.41,1.7,1.7,0,0,0,.72.15,1.9,1.9,0,0,0,1-.23,1.7,1.7,0,0,0,.61-.6h1.37a3.06,3.06,0,0,1-.45.81,2.83,2.83,0,0,1-.66.62,3,3,0,0,1-.85.39,3.66,3.66,0,0,1-1,.13,3.28,3.28,0,0,1-1.33-.26,2.82,2.82,0,0,1-1-.72,3.18,3.18,0,0,1-.62-1.1A4.31,4.31,0,0,1,499,109a4,4,0,0,1,.22-1.33,3.3,3.3,0,0,1,.63-1.1,3,3,0,0,1,1-.76A3.16,3.16,0,0,1,502.21,105.57Zm1.63,2.85a2.77,2.77,0,0,0-.16-.71,1.73,1.73,0,0,0-.33-.55,1.43,1.43,0,0,0-.5-.35,1.91,1.91,0,0,0-1.37,0,1.51,1.51,0,0,0-.52.36,1.79,1.79,0,0,0-.35.55,2.54,2.54,0,0,0-.17.7Z"/><path class="cls-4" d="M512.95,103.24v9.08h-1.37v-1h0a2.07,2.07,0,0,1-.37.5,2.16,2.16,0,0,1-.49.37,2.44,2.44,0,0,1-.59.23,2.79,2.79,0,0,1-.67.08,2.72,2.72,0,0,1-1.28-.29,2.76,2.76,0,0,1-.92-.77,3.38,3.38,0,0,1-.56-1.12,4.69,4.69,0,0,1-.19-1.33,4.52,4.52,0,0,1,.18-1.26,3.34,3.34,0,0,1,.54-1.1,2.75,2.75,0,0,1,.91-.77,2.91,2.91,0,0,1,1.92-.22,2.49,2.49,0,0,1,.58.21,2.07,2.07,0,0,1,.49.35,2,2,0,0,1,.37.5h0v-3.47Zm-5,5.79a3.63,3.63,0,0,0,.1.82,2.44,2.44,0,0,0,.31.76,1.81,1.81,0,0,0,.56.56,1.5,1.5,0,0,0,.83.22,1.73,1.73,0,0,0,.79-.17,1.58,1.58,0,0,0,.57-.49,2.25,2.25,0,0,0,.35-.75,3.68,3.68,0,0,0,.12-1,3.73,3.73,0,0,0-.1-.84,2.3,2.3,0,0,0-.31-.75,1.72,1.72,0,0,0-.57-.54,1.64,1.64,0,0,0-.85-.21,1.56,1.56,0,0,0-.82.2,1.7,1.7,0,0,0-.55.53,2.35,2.35,0,0,0-.32.75A3.93,3.93,0,0,0,507.92,109Z"/></g><rect class="cls-2" x="369" y="94" width="170" height="28"/><path class="cls-4" d="M256.48,103.76v8.57H255v-8.57Z"/><path class="cls-4" d="M261.75,112.37h-.83a4.59,4.59,0,0,1-.74-.06,1.58,1.58,0,0,1-.6-.22,1.12,1.12,0,0,1-.4-.45,1.67,1.67,0,0,1-.15-.76v-4.15h-1.29v-1H259v-2h1.45v2H262v1h-1.5v3.72a.83.83,0,0,0,.17.58.8.8,0,0,0,.59.18h.57l.17,0v1.14Z"/><path class="cls-4" d="M266.14,105.57a3,3,0,0,1,1.34.28,2.78,2.78,0,0,1,1,.77,3.33,3.33,0,0,1,.58,1.13,4.76,4.76,0,0,1,.19,1.37v.26h-4.85a2.77,2.77,0,0,0,.13.81,1.9,1.9,0,0,0,.35.63,1.55,1.55,0,0,0,.54.41,1.7,1.7,0,0,0,.72.15,1.9,1.9,0,0,0,1-.23,1.7,1.7,0,0,0,.61-.6h1.37a3.06,3.06,0,0,1-.45.81,2.83,2.83,0,0,1-.66.62,3,3,0,0,1-.85.39,3.66,3.66,0,0,1-1,.13,3.28,3.28,0,0,1-1.33-.26,2.82,2.82,0,0,1-1-.72,3.18,3.18,0,0,1-.62-1.1,4.31,4.31,0,0,1-.22-1.4,4,4,0,0,1,.22-1.33,3.3,3.3,0,0,1,.63-1.1,3,3,0,0,1,1-.76A3.16,3.16,0,0,1,266.14,105.57Zm1.63,2.85a2.77,2.77,0,0,0-.16-.71,1.73,1.73,0,0,0-.33-.55,1.43,1.43,0,0,0-.5-.35,1.91,1.91,0,0,0-1.37,0,1.51,1.51,0,0,0-.52.36,1.79,1.79,0,0,0-.35.55,2.54,2.54,0,0,0-.17.7Z"/><path class="cls-4" d="M279,112.32v-4a3.44,3.44,0,0,0-.05-.62,1.26,1.26,0,0,0-.19-.49,1,1,0,0,0-.39-.32,1.48,1.48,0,0,0-.63-.12,1.24,1.24,0,0,0-1.06.47,2.29,2.29,0,0,0-.35,1.38v3.74h-1.45v-4.21a1.64,1.64,0,0,0-.28-1,1.1,1.1,0,0,0-.91-.35,1.34,1.34,0,0,0-1.08.48,2,2,0,0,0-.4,1.31v3.81h-1.45v-6.57h1.36v1h0a2.31,2.31,0,0,1,2.06-1.15,2.27,2.27,0,0,1,1.2.3,1.71,1.71,0,0,1,.71.86,2.45,2.45,0,0,1,.87-.86,2.21,2.21,0,0,1,3.47,2v4.48Z"/><path class="cls-4" d="M289.17,112.37h-.83a4.59,4.59,0,0,1-.74-.06,1.58,1.58,0,0,1-.6-.22,1.12,1.12,0,0,1-.4-.45,1.67,1.67,0,0,1-.15-.76v-4.15h-1.29v-1h1.29v-2h1.45v2h1.5v1h-1.5v3.72a.83.83,0,0,0,.17.58.8.8,0,0,0,.59.18h.57l.17,0v1.14Z"/><path class="cls-4" d="M291.6,105.75l1.38,5h0l1.28-5h1.45l1.29,5h0l1.38-5h1.49l-2.09,6.57h-1.5L295,107.39h0l-1.29,4.93h-1.52l-2.09-6.57Z"/><path class="cls-4" d="M307.41,109a4.09,4.09,0,0,1-.23,1.38,3.1,3.1,0,0,1-.68,1.11,3,3,0,0,1-1,.73,3.49,3.49,0,0,1-1.36.25,3.12,3.12,0,0,1-2.38-1,3.94,3.94,0,0,1,0-5,3.1,3.1,0,0,1,2.39-1,3.15,3.15,0,0,1,2.4,1A3.54,3.54,0,0,1,307.41,109ZM306,109a3.59,3.59,0,0,0-.11-.92,2.21,2.21,0,0,0-.35-.75,1.68,1.68,0,0,0-.58-.5,1.75,1.75,0,0,0-.83-.18,1.71,1.71,0,0,0-.77.17,1.62,1.62,0,0,0-.57.48,2.23,2.23,0,0,0-.36.74,3.79,3.79,0,0,0,0,1.9,2.19,2.19,0,0,0,.35.74,1.67,1.67,0,0,0,.58.49,1.7,1.7,0,0,0,.79.18,1.72,1.72,0,0,0,.79-.18,1.68,1.68,0,0,0,.58-.49,2.24,2.24,0,0,0,.36-.74A3.41,3.41,0,0,0,306,109Z"/><line class="cls-5" x1="24" y1="24.5" x2="541" y2="24.5"/><path class="cls-6" d="M44.06,35.13V43.7h-1.5V35.13Z"/><path class="cls-6" d="M49.33,43.75H48.5a4.59,4.59,0,0,1-.74-.06,1.58,1.58,0,0,1-.6-.22,1.12,1.12,0,0,1-.4-.45,1.67,1.67,0,0,1-.15-.76V38.14H45.33v-1h1.29v-2h1.45v2h1.5v1h-1.5v3.72a.83.83,0,0,0,.17.58.8.8,0,0,0,.59.18h.57l.17,0v1.14Z"/><path class="cls-6" d="M53.72,36.95a3,3,0,0,1,1.34.28A2.78,2.78,0,0,1,56,38a3.33,3.33,0,0,1,.58,1.13,4.76,4.76,0,0,1,.19,1.37v.26H52a2.77,2.77,0,0,0,.13.81,1.9,1.9,0,0,0,.35.63,1.55,1.55,0,0,0,.54.41,1.7,1.7,0,0,0,.72.15,1.9,1.9,0,0,0,1-.23,1.7,1.7,0,0,0,.61-.6h1.37a3.06,3.06,0,0,1-.45.81,2.83,2.83,0,0,1-.66.62,3,3,0,0,1-.85.39,3.66,3.66,0,0,1-1,.13,3.28,3.28,0,0,1-1.33-.26,2.82,2.82,0,0,1-1-.72,3.18,3.18,0,0,1-.62-1.1,4.31,4.31,0,0,1-.22-1.4,4,4,0,0,1,.22-1.33,3.3,3.3,0,0,1,.63-1.1,3,3,0,0,1,1-.76A3.16,3.16,0,0,1,53.72,36.95Zm1.63,2.85a2.77,2.77,0,0,0-.16-.71,1.73,1.73,0,0,0-.33-.55,1.43,1.43,0,0,0-.5-.35,1.91,1.91,0,0,0-1.37,0,1.51,1.51,0,0,0-.52.36,1.79,1.79,0,0,0-.35.55,2.54,2.54,0,0,0-.17.7Z"/><path class="cls-6" d="M66.6,43.7v-4a3.44,3.44,0,0,0-.05-.62,1.26,1.26,0,0,0-.19-.49,1,1,0,0,0-.39-.32,1.48,1.48,0,0,0-.63-.12,1.24,1.24,0,0,0-1.06.47A2.29,2.29,0,0,0,63.92,40V43.7H62.47V39.49a1.64,1.64,0,0,0-.28-1,1.1,1.1,0,0,0-.91-.35,1.34,1.34,0,0,0-1.08.48,2,2,0,0,0-.4,1.31V43.7H58.35V37.12h1.36v1h0a2.31,2.31,0,0,1,2.06-1.15,2.27,2.27,0,0,1,1.2.3,1.71,1.71,0,0,1,.71.86,2.45,2.45,0,0,1,.87-.86,2.21,2.21,0,0,1,3.47,2V43.7Z"/><path class="cls-6" d="M76,43.7V37.82h-2.2v-1a6,6,0,0,0,.9-.07,2.36,2.36,0,0,0,.63-.18,1.57,1.57,0,0,0,.64-.55,2.21,2.21,0,0,0,.31-.89h1.11v8.6Z"/><path class="cls-6" d="M90.74,41.25a2.36,2.36,0,0,1-.29,1.2,2.41,2.41,0,0,1-.78.82,3.5,3.5,0,0,1-1.13.47,5.89,5.89,0,0,1-1.34.15,5.17,5.17,0,0,1-1.37-.17,3.37,3.37,0,0,1-1.1-.51,2.49,2.49,0,0,1-.74-.84,2.38,2.38,0,0,1-.27-1.15v-.1H85.2v.05a1.33,1.33,0,0,0,.16.67,1.4,1.4,0,0,0,.45.48,2.11,2.11,0,0,0,.67.28,3.62,3.62,0,0,0,1.58,0,2.05,2.05,0,0,0,.63-.25,1.3,1.3,0,0,0,.42-.41,1.06,1.06,0,0,0,.16-.58.93.93,0,0,0-.37-.76,3.25,3.25,0,0,0-1.16-.51l-1.84-.49a2.83,2.83,0,0,1-1.44-.78A2,2,0,0,1,84,37.46a2.24,2.24,0,0,1,.26-1.09,2.36,2.36,0,0,1,.7-.79,3.22,3.22,0,0,1,1-.48,4.62,4.62,0,0,1,1.25-.16,4.67,4.67,0,0,1,1.19.15,3.23,3.23,0,0,1,1,.45,2.32,2.32,0,0,1,.71.77,2.25,2.25,0,0,1,.28,1.09H89a1.25,1.25,0,0,0-.16-.52,1.27,1.27,0,0,0-.37-.4,1.8,1.8,0,0,0-.55-.26,2.49,2.49,0,0,0-.71-.09,2.92,2.92,0,0,0-.67.07,1.75,1.75,0,0,0-.55.23,1.15,1.15,0,0,0-.37.38,1.05,1.05,0,0,0-.14.55,1,1,0,0,0,.07.39.8.8,0,0,0,.2.28,1.07,1.07,0,0,0,.31.19,3.06,3.06,0,0,0,.4.13l2,.53a3.69,3.69,0,0,1,1.7.87A2,2,0,0,1,90.74,41.25Z"/><path class="cls-6" d="M95,36.95a3,3,0,0,1,1.34.28,2.78,2.78,0,0,1,1,.77,3.33,3.33,0,0,1,.58,1.13A4.76,4.76,0,0,1,98,40.5v.26H93.19a2.77,2.77,0,0,0,.13.81,1.9,1.9,0,0,0,.35.63,1.55,1.55,0,0,0,.54.41,1.7,1.7,0,0,0,.72.15,1.9,1.9,0,0,0,1-.23,1.7,1.7,0,0,0,.61-.6h1.37a3.06,3.06,0,0,1-.45.81,2.83,2.83,0,0,1-.66.62,3,3,0,0,1-.85.39,3.66,3.66,0,0,1-1,.13,3.28,3.28,0,0,1-1.33-.26,2.82,2.82,0,0,1-1-.72,3.18,3.18,0,0,1-.62-1.1,4.31,4.31,0,0,1-.22-1.4A4,4,0,0,1,92,39.09a3.3,3.3,0,0,1,.63-1.1,3,3,0,0,1,1-.76A3.16,3.16,0,0,1,95,36.95Zm1.63,2.85a2.77,2.77,0,0,0-.16-.71,1.73,1.73,0,0,0-.33-.55,1.43,1.43,0,0,0-.5-.35,1.91,1.91,0,0,0-1.37,0,1.51,1.51,0,0,0-.52.36,1.79,1.79,0,0,0-.35.55,2.54,2.54,0,0,0-.17.7Z"/><path class="cls-6" d="M101,34.61V43.7H99.59V34.61Z"/><path class="cls-6" d="M105.83,36.95a3,3,0,0,1,1.34.28,2.78,2.78,0,0,1,1,.77,3.33,3.33,0,0,1,.58,1.13,4.76,4.76,0,0,1,.19,1.37v.26h-4.85a2.77,2.77,0,0,0,.13.81,1.9,1.9,0,0,0,.35.63,1.55,1.55,0,0,0,.54.41,1.7,1.7,0,0,0,.72.15,1.9,1.9,0,0,0,1-.23,1.7,1.7,0,0,0,.61-.6h1.37a3.06,3.06,0,0,1-.45.81,2.83,2.83,0,0,1-.66.62,3,3,0,0,1-.85.39,3.66,3.66,0,0,1-1,.13,3.28,3.28,0,0,1-1.33-.26,2.82,2.82,0,0,1-1-.72,3.18,3.18,0,0,1-.62-1.1,4.31,4.31,0,0,1-.22-1.4,4,4,0,0,1,.22-1.33,3.3,3.3,0,0,1,.63-1.1,3,3,0,0,1,1-.76A3.16,3.16,0,0,1,105.83,36.95Zm1.63,2.85a2.77,2.77,0,0,0-.16-.71,1.73,1.73,0,0,0-.33-.55,1.43,1.43,0,0,0-.5-.35,1.91,1.91,0,0,0-1.37,0,1.51,1.51,0,0,0-.52.36,1.79,1.79,0,0,0-.35.55,2.54,2.54,0,0,0-.17.7Z"/><path class="cls-6" d="M113.4,36.95a4.08,4.08,0,0,1,1.06.13,2.82,2.82,0,0,1,.89.41,2.27,2.27,0,0,1,.64.68,2.3,2.3,0,0,1,.31.95h-1.42a1.21,1.21,0,0,0-.47-.78,1.69,1.69,0,0,0-1-.27,1.53,1.53,0,0,0-.81.21,1.8,1.8,0,0,0-.57.54,2.44,2.44,0,0,0-.33.76,3.42,3.42,0,0,0,0,1.67A2.42,2.42,0,0,0,112,42a1.78,1.78,0,0,0,.56.55,1.51,1.51,0,0,0,.82.21,1.81,1.81,0,0,0,.6-.09,1.48,1.48,0,0,0,.47-.26,1.4,1.4,0,0,0,.33-.41,1.75,1.75,0,0,0,.18-.52h1.4a3.08,3.08,0,0,1-.33,1,2.59,2.59,0,0,1-.62.76,2.78,2.78,0,0,1-.89.49,3.49,3.49,0,0,1-1.14.18,3.33,3.33,0,0,1-1.32-.25,3,3,0,0,1-1-.71,3.22,3.22,0,0,1-.67-1.08,3.83,3.83,0,0,1-.24-1.37,4.25,4.25,0,0,1,.21-1.36A3.31,3.31,0,0,1,111,38a3,3,0,0,1,1-.76A3.33,3.33,0,0,1,113.4,36.95Z"/><path class="cls-6" d="M121.13,43.75h-.83a4.59,4.59,0,0,1-.74-.06,1.58,1.58,0,0,1-.6-.22,1.12,1.12,0,0,1-.4-.45,1.67,1.67,0,0,1-.15-.76V38.14h-1.29v-1h1.29v-2h1.45v2h1.5v1h-1.5v3.72a.83.83,0,0,0,.17.58.8.8,0,0,0,.59.18h.57l.17,0v1.14Z"/><path class="cls-6" d="M125.52,36.95a3,3,0,0,1,1.34.28,2.78,2.78,0,0,1,1,.77,3.33,3.33,0,0,1,.58,1.13,4.76,4.76,0,0,1,.19,1.37v.26h-4.85a2.77,2.77,0,0,0,.13.81,1.9,1.9,0,0,0,.35.63,1.55,1.55,0,0,0,.54.41,1.7,1.7,0,0,0,.72.15,1.9,1.9,0,0,0,1-.23,1.7,1.7,0,0,0,.61-.6h1.37a3.06,3.06,0,0,1-.45.81,2.83,2.83,0,0,1-.66.62,3,3,0,0,1-.85.39,3.66,3.66,0,0,1-1,.13,3.28,3.28,0,0,1-1.33-.26,2.82,2.82,0,0,1-1-.72,3.18,3.18,0,0,1-.62-1.1,4.31,4.31,0,0,1-.22-1.4,4,4,0,0,1,.22-1.33,3.3,3.3,0,0,1,.63-1.1,3,3,0,0,1,1-.76A3.16,3.16,0,0,1,125.52,36.95Zm1.63,2.85a2.77,2.77,0,0,0-.16-.71,1.73,1.73,0,0,0-.33-.55,1.43,1.43,0,0,0-.5-.35,1.91,1.91,0,0,0-1.37,0,1.51,1.51,0,0,0-.52.36,1.79,1.79,0,0,0-.35.55,2.54,2.54,0,0,0-.17.7Z"/><path class="cls-6" d="M136.25,34.61V43.7h-1.37v-1h0a2.07,2.07,0,0,1-.37.5,2.16,2.16,0,0,1-.49.37,2.44,2.44,0,0,1-.59.23,2.79,2.79,0,0,1-.67.08,2.72,2.72,0,0,1-1.28-.29,2.76,2.76,0,0,1-.92-.77,3.38,3.38,0,0,1-.56-1.12,4.69,4.69,0,0,1-.19-1.33,4.52,4.52,0,0,1,.18-1.26,3.34,3.34,0,0,1,.54-1.1,2.75,2.75,0,0,1,.91-.77,2.91,2.91,0,0,1,1.92-.22,2.49,2.49,0,0,1,.58.21,2.07,2.07,0,0,1,.49.35,2,2,0,0,1,.37.5h0V34.61Zm-5,5.79a3.63,3.63,0,0,0,.1.82,2.44,2.44,0,0,0,.31.76,1.81,1.81,0,0,0,.56.56,1.5,1.5,0,0,0,.83.22,1.73,1.73,0,0,0,.79-.17,1.58,1.58,0,0,0,.57-.49,2.25,2.25,0,0,0,.35-.75,3.68,3.68,0,0,0,.12-1,3.73,3.73,0,0,0-.1-.84,2.3,2.3,0,0,0-.31-.75,1.72,1.72,0,0,0-.57-.54,1.64,1.64,0,0,0-.85-.21,1.56,1.56,0,0,0-.82.2,1.7,1.7,0,0,0-.55.53,2.35,2.35,0,0,0-.32.75A3.93,3.93,0,0,0,131.23,40.4Z"/><path class="cls-4" d="M172.55,35.13V43.7h-1.5V35.13Z"/><path class="cls-4" d="M177.82,43.75H177a4.59,4.59,0,0,1-.74-.06,1.58,1.58,0,0,1-.6-.22,1.12,1.12,0,0,1-.4-.45,1.67,1.67,0,0,1-.15-.76V38.14h-1.29v-1h1.29v-2h1.45v2h1.5v1h-1.5v3.72a.83.83,0,0,0,.17.58.8.8,0,0,0,.59.18h.57l.17,0v1.14Z"/><path class="cls-4" d="M182.21,36.95a3,3,0,0,1,1.34.28,2.78,2.78,0,0,1,1,.77,3.33,3.33,0,0,1,.58,1.13,4.76,4.76,0,0,1,.19,1.37v.26h-4.85a2.77,2.77,0,0,0,.13.81,1.9,1.9,0,0,0,.35.63,1.55,1.55,0,0,0,.54.41,1.7,1.7,0,0,0,.72.15,1.9,1.9,0,0,0,1-.23,1.7,1.7,0,0,0,.61-.6h1.37a3.06,3.06,0,0,1-.45.81,2.83,2.83,0,0,1-.66.62,3,3,0,0,1-.85.39,3.66,3.66,0,0,1-1,.13,3.28,3.28,0,0,1-1.33-.26,2.82,2.82,0,0,1-1-.72,3.18,3.18,0,0,1-.62-1.1,4.31,4.31,0,0,1-.22-1.4,4,4,0,0,1,.22-1.33,3.3,3.3,0,0,1,.63-1.1,3,3,0,0,1,1-.76A3.16,3.16,0,0,1,182.21,36.95Zm1.63,2.85a2.77,2.77,0,0,0-.16-.71,1.73,1.73,0,0,0-.33-.55,1.43,1.43,0,0,0-.5-.35,1.91,1.91,0,0,0-1.37,0,1.51,1.51,0,0,0-.52.36,1.79,1.79,0,0,0-.35.55,2.54,2.54,0,0,0-.17.7Z"/><path class="cls-4" d="M195.09,43.7v-4A3.44,3.44,0,0,0,195,39a1.26,1.26,0,0,0-.19-.49,1,1,0,0,0-.39-.32,1.48,1.48,0,0,0-.63-.12,1.24,1.24,0,0,0-1.06.47,2.29,2.29,0,0,0-.35,1.38V43.7H191V39.49a1.64,1.64,0,0,0-.28-1,1.1,1.1,0,0,0-.91-.35,1.34,1.34,0,0,0-1.08.48,2,2,0,0,0-.4,1.31V43.7h-1.45V37.12h1.36v1h0a2.31,2.31,0,0,1,2.06-1.15,2.27,2.27,0,0,1,1.2.3,1.71,1.71,0,0,1,.71.86,2.45,2.45,0,0,1,.87-.86,2.21,2.21,0,0,1,3.47,2V43.7Z"/><path class="cls-4" d="M204.77,35a3,3,0,0,1,2,.7,2.22,2.22,0,0,1,.6.83,2.77,2.77,0,0,1,.19,1.06,2.82,2.82,0,0,1-.46,1.55,5.83,5.83,0,0,1-1.78,1.54q-.5.3-.85.57a6.91,6.91,0,0,0-.58.47,2.8,2.8,0,0,0-.62.81h4.33V43.7h-6.08a3.35,3.35,0,0,1,.39-1.59,3.73,3.73,0,0,1,.51-.69,5.59,5.59,0,0,1,.74-.66l.95-.71,1.12-.83a2.7,2.7,0,0,0,.71-.75,1.61,1.61,0,0,0,.23-.83,1.68,1.68,0,0,0-.1-.59,1.33,1.33,0,0,0-.31-.48,1.44,1.44,0,0,0-.47-.3,1.77,1.77,0,0,0-1.31,0,1.46,1.46,0,0,0-.5.38,1.58,1.58,0,0,0-.29.53,2,2,0,0,0-.1.61V38h-1.34v-.15a3.14,3.14,0,0,1,.21-1.15,2.54,2.54,0,0,1,.59-.9,2.71,2.71,0,0,1,.94-.59A3.45,3.45,0,0,1,204.77,35Z"/><path class="cls-4" d="M244.66,35.13V43.7h-1.5V35.13Z"/><path class="cls-4" d="M249.93,43.75h-.83a4.59,4.59,0,0,1-.74-.06,1.58,1.58,0,0,1-.6-.22,1.12,1.12,0,0,1-.4-.45,1.67,1.67,0,0,1-.15-.76V38.14h-1.29v-1h1.29v-2h1.45v2h1.5v1h-1.5v3.72a.83.83,0,0,0,.17.58.8.8,0,0,0,.59.18H250l.17,0v1.14Z"/><path class="cls-4" d="M254.32,36.95a3,3,0,0,1,1.34.28,2.78,2.78,0,0,1,1,.77,3.33,3.33,0,0,1,.58,1.13,4.76,4.76,0,0,1,.19,1.37v.26h-4.85a2.77,2.77,0,0,0,.13.81,1.9,1.9,0,0,0,.35.63,1.55,1.55,0,0,0,.54.41,1.7,1.7,0,0,0,.72.15,1.9,1.9,0,0,0,1-.23,1.7,1.7,0,0,0,.61-.6h1.37a3.06,3.06,0,0,1-.45.81,2.83,2.83,0,0,1-.66.62,3,3,0,0,1-.85.39,3.66,3.66,0,0,1-1,.13,3.28,3.28,0,0,1-1.33-.26,2.82,2.82,0,0,1-1-.72,3.18,3.18,0,0,1-.62-1.1,4.31,4.31,0,0,1-.22-1.4,4,4,0,0,1,.22-1.33A3.3,3.3,0,0,1,252,38a3,3,0,0,1,1-.76A3.16,3.16,0,0,1,254.32,36.95ZM256,39.79a2.77,2.77,0,0,0-.16-.71,1.73,1.73,0,0,0-.33-.55,1.43,1.43,0,0,0-.5-.35,1.91,1.91,0,0,0-1.37,0,1.51,1.51,0,0,0-.52.36,1.79,1.79,0,0,0-.35.55,2.54,2.54,0,0,0-.17.7Z"/><path class="cls-4" d="M267.2,43.7v-4a3.44,3.44,0,0,0-.05-.62,1.26,1.26,0,0,0-.19-.49,1,1,0,0,0-.39-.32,1.48,1.48,0,0,0-.63-.12,1.24,1.24,0,0,0-1.06.47,2.29,2.29,0,0,0-.35,1.38V43.7h-1.45V39.49a1.64,1.64,0,0,0-.28-1,1.1,1.1,0,0,0-.91-.35,1.34,1.34,0,0,0-1.08.48,2,2,0,0,0-.4,1.31V43.7h-1.45V37.12h1.36v1h0a2.31,2.31,0,0,1,2.06-1.15,2.27,2.27,0,0,1,1.2.3,1.71,1.71,0,0,1,.71.86,2.45,2.45,0,0,1,.87-.86,2.21,2.21,0,0,1,3.47,2V43.7Z"/><path class="cls-4" d="M276.76,35a3.64,3.64,0,0,1,1,.15,2.72,2.72,0,0,1,.88.44,2.18,2.18,0,0,1,.62.72,2.1,2.1,0,0,1,.23,1,2.16,2.16,0,0,1-.08.62,1.83,1.83,0,0,1-.25.52,1.63,1.63,0,0,1-.4.41,1.88,1.88,0,0,1-.56.27v0a1.93,1.93,0,0,1,1.2.71,2.07,2.07,0,0,1,.42,1.3,2.5,2.5,0,0,1-.89,2,3.31,3.31,0,0,1-2.23.76,3.84,3.84,0,0,1-1.17-.18,2.94,2.94,0,0,1-1-.52,2.49,2.49,0,0,1-.67-.84,2.55,2.55,0,0,1-.25-1.14v-.13H275v.13a1.45,1.45,0,0,0,.49,1.11,1.58,1.58,0,0,0,.52.3,1.91,1.91,0,0,0,.64.11,1.81,1.81,0,0,0,1.28-.44,1.45,1.45,0,0,0,.47-1.11,1.34,1.34,0,0,0-.45-1.09,2.2,2.2,0,0,0-1.46-.39h-.35v-1h.43a1.86,1.86,0,0,0,1.2-.35,1.1,1.1,0,0,0,.4-.9,1.39,1.39,0,0,0-.11-.58,1.12,1.12,0,0,0-.31-.41,1.34,1.34,0,0,0-.46-.24,2,2,0,0,0-.57-.08,1.7,1.7,0,0,0-.6.1,1.41,1.41,0,0,0-.48.3,1.44,1.44,0,0,0-.33.47,1.62,1.62,0,0,0-.13.64h-1.34a2.81,2.81,0,0,1,.23-1,2.55,2.55,0,0,1,.59-.84,2.75,2.75,0,0,1,.91-.56A3.27,3.27,0,0,1,276.76,35Z"/><g class="cls-3"><path class="cls-4" d="M318.55,35.13V43.7h-1.5V35.13Z"/><path class="cls-4" d="M323.82,43.75H323a4.59,4.59,0,0,1-.74-.06,1.58,1.58,0,0,1-.6-.22,1.12,1.12,0,0,1-.4-.45,1.67,1.67,0,0,1-.15-.76V38.14h-1.29v-1h1.29v-2h1.45v2h1.5v1h-1.5v3.72a.83.83,0,0,0,.17.58.8.8,0,0,0,.59.18h.57l.17,0v1.14Z"/><path class="cls-4" d="M328.21,36.95a3,3,0,0,1,1.34.28,2.78,2.78,0,0,1,1,.77,3.33,3.33,0,0,1,.58,1.13,4.76,4.76,0,0,1,.19,1.37v.26h-4.85a2.77,2.77,0,0,0,.13.81,1.9,1.9,0,0,0,.35.63,1.55,1.55,0,0,0,.54.41,1.7,1.7,0,0,0,.72.15,1.9,1.9,0,0,0,1-.23,1.7,1.7,0,0,0,.61-.6h1.37a3.06,3.06,0,0,1-.45.81,2.83,2.83,0,0,1-.66.62,3,3,0,0,1-.85.39,3.66,3.66,0,0,1-1,.13,3.28,3.28,0,0,1-1.33-.26,2.82,2.82,0,0,1-1-.72,3.18,3.18,0,0,1-.62-1.1,4.31,4.31,0,0,1-.22-1.4,4,4,0,0,1,.22-1.33,3.3,3.3,0,0,1,.63-1.1,3,3,0,0,1,1-.76A3.16,3.16,0,0,1,328.21,36.95Zm1.63,2.85a2.77,2.77,0,0,0-.16-.71,1.73,1.73,0,0,0-.33-.55,1.43,1.43,0,0,0-.5-.35,1.91,1.91,0,0,0-1.37,0,1.51,1.51,0,0,0-.52.36,1.79,1.79,0,0,0-.35.55,2.54,2.54,0,0,0-.17.7Z"/><path class="cls-4" d="M341.09,43.7v-4A3.44,3.44,0,0,0,341,39a1.26,1.26,0,0,0-.19-.49,1,1,0,0,0-.39-.32,1.48,1.48,0,0,0-.63-.12,1.24,1.24,0,0,0-1.06.47,2.29,2.29,0,0,0-.35,1.38V43.7H337V39.49a1.64,1.64,0,0,0-.28-1,1.1,1.1,0,0,0-.91-.35,1.34,1.34,0,0,0-1.08.48,2,2,0,0,0-.4,1.31V43.7h-1.45V37.12h1.36v1h0a2.31,2.31,0,0,1,2.06-1.15,2.27,2.27,0,0,1,1.2.3,1.71,1.71,0,0,1,.71.86,2.45,2.45,0,0,1,.87-.86,2.21,2.21,0,0,1,3.47,2V43.7Z"/><path class="cls-4" d="M352.58,41.65v2h-1.31v-2h-3.76V40.36l3.82-5.27h1.25V40.5h1.2v1.15Zm-1.31-4.82h0l-2.62,3.67h2.65Z"/><path class="cls-4" d="M362.23,35.13a3.81,3.81,0,0,1,2.85,1.08,4.36,4.36,0,0,1,1.07,3.17,4.48,4.48,0,0,1-1.05,3.21,3.71,3.71,0,0,1-2.82,1.11H358.8V35.13Zm-.17,7.3a2.49,2.49,0,0,0,1.89-.71,3.14,3.14,0,0,0,.69-2.23,3.35,3.35,0,0,0-.69-2.36,2.81,2.81,0,0,0-2.14-.73H360.3v6Z"/><path class="cls-4" d="M369.18,34.26v1.42h-1.45V34.26Zm0,2.86V43.7h-1.45V37.12Z"/><path class="cls-4" d="M376.55,41.71a2,2,0,0,1-.23,1,2,2,0,0,1-.61.68,2.7,2.7,0,0,1-.91.39,4.79,4.79,0,0,1-1.12.13,4.56,4.56,0,0,1-1.08-.12,2.74,2.74,0,0,1-.89-.38,2.14,2.14,0,0,1-.63-.65,2.2,2.2,0,0,1-.3-.94h1.39a1.15,1.15,0,0,0,.51.8,1.51,1.51,0,0,0,.46.2,2.2,2.2,0,0,0,.56.07,2.4,2.4,0,0,0,.53-.06,1.46,1.46,0,0,0,.45-.18,1,1,0,0,0,.32-.31.78.78,0,0,0,.12-.44.61.61,0,0,0-.1-.35.9.9,0,0,0-.27-.26,1.81,1.81,0,0,0-.4-.18l-.47-.13-.93-.22a6,6,0,0,1-.91-.28,2.37,2.37,0,0,1-.63-.37,1.33,1.33,0,0,1-.37-.49,1.57,1.57,0,0,1-.12-.63,1.77,1.77,0,0,1,.21-.89,1.84,1.84,0,0,1,.58-.63,2.69,2.69,0,0,1,.87-.37,4.46,4.46,0,0,1,1.07-.12,3.88,3.88,0,0,1,1.06.13,2.61,2.61,0,0,1,.82.38,1.9,1.9,0,0,1,.54.59,2,2,0,0,1,.25.77h-1.39a1,1,0,0,0-.45-.65,1.65,1.65,0,0,0-.91-.23,2.3,2.3,0,0,0-.47,0,1.27,1.27,0,0,0-.39.14.77.77,0,0,0-.26.25.65.65,0,0,0-.1.36.6.6,0,0,0,.1.35.91.91,0,0,0,.26.25,1.47,1.47,0,0,0,.35.16l.37.1,1.38.33a4.37,4.37,0,0,1,.68.22,2,2,0,0,1,.54.34,1.47,1.47,0,0,1,.37.5A1.84,1.84,0,0,1,376.55,41.71Z"/><path class="cls-4" d="M384.21,43.7l-.44.09-.39,0a1.79,1.79,0,0,1-.42,0,.91.91,0,0,1-.34-.16.84.84,0,0,1-.24-.29,1.28,1.28,0,0,1-.12-.45h0a2.67,2.67,0,0,1-.45.46,2.3,2.3,0,0,1-.52.31,3.32,3.32,0,0,1-1.31.24,2.42,2.42,0,0,1-1.62-.51,1.77,1.77,0,0,1-.6-1.45,1.7,1.7,0,0,1,.6-1.42,2.11,2.11,0,0,1,.58-.32,4.68,4.68,0,0,1,.73-.2q.39-.08.82-.13l.87-.1.34-.07a.8.8,0,0,0,.27-.13.59.59,0,0,0,.17-.22.79.79,0,0,0,.06-.33,1,1,0,0,0-.31-.79,2.11,2.11,0,0,0-2.05,0,1,1,0,0,0-.39.73H378a2,2,0,0,1,.28-.9,2,2,0,0,1,.62-.62,2.88,2.88,0,0,1,.9-.36,5.08,5.08,0,0,1,1.13-.12,3.42,3.42,0,0,1,2,.5,1.65,1.65,0,0,1,.67,1.41v3.54a.47.47,0,0,0,.08.3.33.33,0,0,0,.27.1h.12l.13,0Zm-2-3.35h0a1,1,0,0,1-.54.23l-.48.08-.65.11a2.2,2.2,0,0,0-1,.37.87.87,0,0,0-.32.72.89.89,0,0,0,.37.76,1.48,1.48,0,0,0,.87.24,1.79,1.79,0,0,0,1.27-.43,1.59,1.59,0,0,0,.49-1.24Z"/><path class="cls-4" d="M392,40.41a4.85,4.85,0,0,1-.17,1.28,3.47,3.47,0,0,1-.52,1.11,2.65,2.65,0,0,1-.88.79,2.51,2.51,0,0,1-1.25.3,2.93,2.93,0,0,1-1.36-.3,1.9,1.9,0,0,1-.86-.87h0v1h-1.37V34.61H387v3.47h0a1.88,1.88,0,0,1,.36-.47,2.16,2.16,0,0,1,.5-.36,2.68,2.68,0,0,1,.61-.23,2.85,2.85,0,0,1,.68-.08,2.52,2.52,0,0,1,1.24.29,2.66,2.66,0,0,1,.88.78,3.4,3.4,0,0,1,.52,1.11A4.87,4.87,0,0,1,392,40.41Zm-1.45,0a3.74,3.74,0,0,0-.09-.82,2.52,2.52,0,0,0-.3-.76,1.71,1.71,0,0,0-.54-.56,1.5,1.5,0,0,0-.83-.22,1.57,1.57,0,0,0-.82.21,1.71,1.71,0,0,0-.56.54,2.39,2.39,0,0,0-.32.75,3.63,3.63,0,0,0-.1.86,3.68,3.68,0,0,0,.1.83,2.37,2.37,0,0,0,.31.76,1.76,1.76,0,0,0,.56.55,1.57,1.57,0,0,0,.84.21,1.49,1.49,0,0,0,.8-.21,1.69,1.69,0,0,0,.54-.54,2.43,2.43,0,0,0,.31-.75A3.94,3.94,0,0,0,390.54,40.41Z"/><path class="cls-4" d="M395.11,34.61V43.7h-1.45V34.61Z"/><path class="cls-4" d="M399.9,36.95a3,3,0,0,1,1.34.28,2.78,2.78,0,0,1,1,.77,3.33,3.33,0,0,1,.58,1.13A4.76,4.76,0,0,1,403,40.5v.26h-4.85a2.77,2.77,0,0,0,.13.81,1.9,1.9,0,0,0,.35.63,1.55,1.55,0,0,0,.54.41,1.7,1.7,0,0,0,.72.15,1.9,1.9,0,0,0,1-.23,1.7,1.7,0,0,0,.61-.6h1.37a3.06,3.06,0,0,1-.45.81,2.83,2.83,0,0,1-.66.62,3,3,0,0,1-.85.39,3.66,3.66,0,0,1-1,.13,3.28,3.28,0,0,1-1.33-.26,2.82,2.82,0,0,1-1-.72,3.18,3.18,0,0,1-.62-1.1,4.31,4.31,0,0,1-.22-1.4,4,4,0,0,1,.22-1.33,3.3,3.3,0,0,1,.63-1.1,3,3,0,0,1,1-.76A3.16,3.16,0,0,1,399.9,36.95Zm1.63,2.85a2.77,2.77,0,0,0-.16-.71,1.73,1.73,0,0,0-.33-.55,1.43,1.43,0,0,0-.5-.35,1.91,1.91,0,0,0-1.37,0,1.51,1.51,0,0,0-.52.36,1.79,1.79,0,0,0-.35.55,2.54,2.54,0,0,0-.17.7Z"/><path class="cls-4" d="M410.63,34.61V43.7h-1.37v-1h0a2.07,2.07,0,0,1-.37.5,2.16,2.16,0,0,1-.49.37,2.44,2.44,0,0,1-.59.23,2.79,2.79,0,0,1-.67.08,2.72,2.72,0,0,1-1.28-.29,2.76,2.76,0,0,1-.92-.77,3.38,3.38,0,0,1-.56-1.12,4.69,4.69,0,0,1-.19-1.33,4.52,4.52,0,0,1,.18-1.26,3.34,3.34,0,0,1,.54-1.1,2.75,2.75,0,0,1,.91-.77,2.91,2.91,0,0,1,1.92-.22,2.49,2.49,0,0,1,.58.21,2.07,2.07,0,0,1,.49.35,2,2,0,0,1,.37.5h0V34.61Zm-5,5.79a3.63,3.63,0,0,0,.1.82A2.44,2.44,0,0,0,406,42a1.81,1.81,0,0,0,.56.56,1.5,1.5,0,0,0,.83.22,1.73,1.73,0,0,0,.79-.17,1.58,1.58,0,0,0,.57-.49,2.25,2.25,0,0,0,.35-.75,3.68,3.68,0,0,0,.12-1,3.73,3.73,0,0,0-.1-.84,2.3,2.3,0,0,0-.31-.75,1.72,1.72,0,0,0-.57-.54,1.64,1.64,0,0,0-.85-.21,1.56,1.56,0,0,0-.82.2,1.7,1.7,0,0,0-.55.53,2.35,2.35,0,0,0-.32.75A3.93,3.93,0,0,0,405.6,40.4Z"/></g><line class="cls-7" x1="24" y1="27" x2="152.19" y2="27"/><polygon class="cls-8" points="24.5 165.5 24.5 93.5 195.5 93.5 195.5 121.5 539.5 121.5 539.5 165.5 24.5 165.5"/><path class="cls-9" d="M195,94v28H539v43H25V94H195m1-1H24v73H540V121H196V93Z"/><path class="cls-10" d="M56.79,103.76v8.57h-1.5v-8.57Z"/><path class="cls-10" d="M62.06,112.37h-.83a4.59,4.59,0,0,1-.74-.06,1.58,1.58,0,0,1-.6-.22,1.12,1.12,0,0,1-.4-.45,1.67,1.67,0,0,1-.15-.76v-4.15H58.05v-1h1.29v-2h1.45v2h1.5v1h-1.5v3.72a.83.83,0,0,0,.17.58.8.8,0,0,0,.59.18h.57l.17,0v1.14Z"/><path class="cls-10" d="M66.45,105.57a3,3,0,0,1,1.34.28,2.78,2.78,0,0,1,1,.77,3.33,3.33,0,0,1,.58,1.13,4.76,4.76,0,0,1,.19,1.37v.26H64.68a2.77,2.77,0,0,0,.13.81,1.9,1.9,0,0,0,.35.63,1.55,1.55,0,0,0,.54.41,1.7,1.7,0,0,0,.72.15,1.9,1.9,0,0,0,1-.23,1.7,1.7,0,0,0,.61-.6h1.37a3.06,3.06,0,0,1-.45.81,2.83,2.83,0,0,1-.66.62,3,3,0,0,1-.85.39,3.66,3.66,0,0,1-1,.13,3.28,3.28,0,0,1-1.33-.26,2.82,2.82,0,0,1-1-.72,3.18,3.18,0,0,1-.62-1.1,4.31,4.31,0,0,1-.22-1.4,4,4,0,0,1,.22-1.33,3.3,3.3,0,0,1,.63-1.1,3,3,0,0,1,1-.76A3.16,3.16,0,0,1,66.45,105.57Zm1.63,2.85a2.77,2.77,0,0,0-.16-.71,1.73,1.73,0,0,0-.33-.55,1.43,1.43,0,0,0-.5-.35,1.91,1.91,0,0,0-1.37,0,1.51,1.51,0,0,0-.52.36,1.79,1.79,0,0,0-.35.55,2.54,2.54,0,0,0-.17.7Z"/><path class="cls-10" d="M79.33,112.32v-4a3.44,3.44,0,0,0-.05-.62,1.26,1.26,0,0,0-.19-.49,1,1,0,0,0-.39-.32,1.48,1.48,0,0,0-.63-.12,1.24,1.24,0,0,0-1.06.47,2.29,2.29,0,0,0-.35,1.38v3.74H75.2v-4.21a1.64,1.64,0,0,0-.28-1,1.1,1.1,0,0,0-.91-.35,1.34,1.34,0,0,0-1.08.48,2,2,0,0,0-.4,1.31v3.81H71.08v-6.57h1.36v1h0a2.31,2.31,0,0,1,2.06-1.15,2.27,2.27,0,0,1,1.2.3,1.71,1.71,0,0,1,.71.86,2.45,2.45,0,0,1,.87-.86,2.21,2.21,0,0,1,3.47,2v4.48Z"/><path class="cls-10" d="M92.52,109a4.09,4.09,0,0,1-.23,1.38,3.1,3.1,0,0,1-.68,1.11,3,3,0,0,1-1,.73,3.49,3.49,0,0,1-1.36.25,3.12,3.12,0,0,1-2.38-1,3.94,3.94,0,0,1,0-5,3.1,3.1,0,0,1,2.39-1,3.15,3.15,0,0,1,2.4,1A3.54,3.54,0,0,1,92.52,109Zm-1.45,0a3.59,3.59,0,0,0-.11-.92,2.21,2.21,0,0,0-.35-.75,1.68,1.68,0,0,0-.58-.5,1.75,1.75,0,0,0-.83-.18,1.71,1.71,0,0,0-.77.17,1.62,1.62,0,0,0-.57.48,2.23,2.23,0,0,0-.36.74,3.79,3.79,0,0,0,0,1.9,2.19,2.19,0,0,0,.35.74,1.67,1.67,0,0,0,.58.49,1.7,1.7,0,0,0,.79.18,1.72,1.72,0,0,0,.79-.18,1.68,1.68,0,0,0,.58-.49,2.24,2.24,0,0,0,.36-.74A3.41,3.41,0,0,0,91.07,109Z"/><path class="cls-10" d="M97.59,105.57a3.25,3.25,0,0,1,1.1.16,1.8,1.8,0,0,1,.74.49,2,2,0,0,1,.42.81,4.28,4.28,0,0,1,.13,1.12v4.17H98.55v-3.9a2.11,2.11,0,0,0-.32-1.27,1.19,1.19,0,0,0-1-.43,1.48,1.48,0,0,0-1.23.52,2.28,2.28,0,0,0-.41,1.45v3.63H94.12v-6.57h1.38v1h0a2.14,2.14,0,0,1,.37-.5,2.24,2.24,0,0,1,.48-.37,2.34,2.34,0,0,1,.57-.23A2.51,2.51,0,0,1,97.59,105.57Z"/><path class="cls-10" d="M104.73,105.57a3,3,0,0,1,1.34.28,2.78,2.78,0,0,1,1,.77,3.33,3.33,0,0,1,.58,1.13,4.76,4.76,0,0,1,.19,1.37v.26H103a2.77,2.77,0,0,0,.13.81,1.9,1.9,0,0,0,.35.63,1.55,1.55,0,0,0,.54.41,1.7,1.7,0,0,0,.72.15,1.9,1.9,0,0,0,1-.23,1.7,1.7,0,0,0,.61-.6h1.37a3.06,3.06,0,0,1-.45.81,2.83,2.83,0,0,1-.66.62,3,3,0,0,1-.85.39,3.66,3.66,0,0,1-1,.13,3.28,3.28,0,0,1-1.33-.26,2.82,2.82,0,0,1-1-.72,3.18,3.18,0,0,1-.62-1.1,4.31,4.31,0,0,1-.22-1.4,4,4,0,0,1,.22-1.33,3.3,3.3,0,0,1,.63-1.1,3,3,0,0,1,1-.76A3.16,3.16,0,0,1,104.73,105.57Zm1.63,2.85a2.77,2.77,0,0,0-.16-.71,1.73,1.73,0,0,0-.33-.55,1.43,1.43,0,0,0-.5-.35,1.91,1.91,0,0,0-1.37,0,1.51,1.51,0,0,0-.52.36,1.79,1.79,0,0,0-.35.55,2.54,2.54,0,0,0-.17.7Z"/><path class="cls-10" d="M119.3,109.88a2.36,2.36,0,0,1-.29,1.2,2.41,2.41,0,0,1-.78.82,3.5,3.5,0,0,1-1.13.47,5.89,5.89,0,0,1-1.34.15,5.17,5.17,0,0,1-1.37-.17,3.37,3.37,0,0,1-1.1-.51,2.49,2.49,0,0,1-.74-.84,2.38,2.38,0,0,1-.27-1.15v-.1h1.47v.05a1.33,1.33,0,0,0,.16.67,1.4,1.4,0,0,0,.45.48,2.11,2.11,0,0,0,.67.28,3.62,3.62,0,0,0,1.58,0,2.05,2.05,0,0,0,.63-.25,1.3,1.3,0,0,0,.42-.41,1.06,1.06,0,0,0,.16-.58.93.93,0,0,0-.37-.76,3.25,3.25,0,0,0-1.16-.51l-1.84-.49a2.83,2.83,0,0,1-1.44-.78,2,2,0,0,1-.47-1.39,2.24,2.24,0,0,1,.26-1.09,2.36,2.36,0,0,1,.7-.79,3.22,3.22,0,0,1,1-.48,4.62,4.62,0,0,1,1.25-.16,4.67,4.67,0,0,1,1.19.15,3.23,3.23,0,0,1,1,.45,2.32,2.32,0,0,1,.71.77A2.25,2.25,0,0,1,119,106h-1.46a1.25,1.25,0,0,0-.16-.52,1.27,1.27,0,0,0-.37-.4,1.8,1.8,0,0,0-.55-.26,2.49,2.49,0,0,0-.71-.09,2.92,2.92,0,0,0-.67.07,1.75,1.75,0,0,0-.55.23,1.15,1.15,0,0,0-.37.38,1.05,1.05,0,0,0-.14.55,1,1,0,0,0,.07.39.8.8,0,0,0,.2.28,1.07,1.07,0,0,0,.31.19,3.06,3.06,0,0,0,.4.13l2,.53a3.69,3.69,0,0,1,1.7.87A2,2,0,0,1,119.3,109.88Z"/><path class="cls-10" d="M123.52,105.57a3,3,0,0,1,1.34.28,2.78,2.78,0,0,1,1,.77,3.33,3.33,0,0,1,.58,1.13,4.76,4.76,0,0,1,.19,1.37v.26h-4.85a2.77,2.77,0,0,0,.13.81,1.9,1.9,0,0,0,.35.63,1.55,1.55,0,0,0,.54.41,1.7,1.7,0,0,0,.72.15,1.9,1.9,0,0,0,1-.23,1.7,1.7,0,0,0,.61-.6h1.37a3.06,3.06,0,0,1-.45.81,2.83,2.83,0,0,1-.66.62,3,3,0,0,1-.85.39,3.66,3.66,0,0,1-1,.13,3.28,3.28,0,0,1-1.33-.26,2.82,2.82,0,0,1-1-.72,3.18,3.18,0,0,1-.62-1.1,4.31,4.31,0,0,1-.22-1.4,4,4,0,0,1,.22-1.33,3.3,3.3,0,0,1,.63-1.1,3,3,0,0,1,1-.76A3.16,3.16,0,0,1,123.52,105.57Zm1.63,2.85a2.77,2.77,0,0,0-.16-.71,1.73,1.73,0,0,0-.33-.55,1.43,1.43,0,0,0-.5-.35,1.91,1.91,0,0,0-1.37,0,1.51,1.51,0,0,0-.52.36,1.79,1.79,0,0,0-.35.55,2.54,2.54,0,0,0-.17.7Z"/><path class="cls-10" d="M129.6,103.24v9.08h-1.45v-9.08Z"/><path class="cls-10" d="M134.39,105.57a3,3,0,0,1,1.34.28,2.78,2.78,0,0,1,1,.77,3.33,3.33,0,0,1,.58,1.13,4.76,4.76,0,0,1,.19,1.37v.26h-4.85a2.77,2.77,0,0,0,.13.81,1.9,1.9,0,0,0,.35.63,1.55,1.55,0,0,0,.54.41,1.7,1.7,0,0,0,.72.15,1.9,1.9,0,0,0,1-.23,1.7,1.7,0,0,0,.61-.6h1.37a3.06,3.06,0,0,1-.45.81,2.83,2.83,0,0,1-.66.62,3,3,0,0,1-.85.39,3.66,3.66,0,0,1-1,.13,3.28,3.28,0,0,1-1.33-.26,2.82,2.82,0,0,1-1-.72,3.18,3.18,0,0,1-.62-1.1,4.31,4.31,0,0,1-.22-1.4,4,4,0,0,1,.22-1.33,3.3,3.3,0,0,1,.63-1.1,3,3,0,0,1,1-.76A3.16,3.16,0,0,1,134.39,105.57Zm1.63,2.85a2.77,2.77,0,0,0-.16-.71,1.73,1.73,0,0,0-.33-.55,1.43,1.43,0,0,0-.5-.35,1.91,1.91,0,0,0-1.37,0,1.51,1.51,0,0,0-.52.36,1.79,1.79,0,0,0-.35.55,2.54,2.54,0,0,0-.17.7Z"/><path class="cls-10" d="M142,105.57a4.08,4.08,0,0,1,1.06.13,2.82,2.82,0,0,1,.89.41,2.27,2.27,0,0,1,.64.68,2.3,2.3,0,0,1,.31.95h-1.42A1.21,1.21,0,0,0,143,107a1.69,1.69,0,0,0-1-.27,1.53,1.53,0,0,0-.81.21,1.8,1.8,0,0,0-.57.54,2.44,2.44,0,0,0-.33.76,3.42,3.42,0,0,0,0,1.67,2.42,2.42,0,0,0,.32.75,1.78,1.78,0,0,0,.56.55,1.51,1.51,0,0,0,.82.21,1.81,1.81,0,0,0,.6-.09A1.48,1.48,0,0,0,143,111a1.4,1.4,0,0,0,.33-.41,1.75,1.75,0,0,0,.18-.52h1.4a3.08,3.08,0,0,1-.33,1,2.59,2.59,0,0,1-.62.76,2.78,2.78,0,0,1-.89.49,3.49,3.49,0,0,1-1.14.18,3.33,3.33,0,0,1-1.32-.25,3,3,0,0,1-1-.71,3.22,3.22,0,0,1-.67-1.08,3.83,3.83,0,0,1-.24-1.37,4.25,4.25,0,0,1,.21-1.36,3.31,3.31,0,0,1,.63-1.12,3,3,0,0,1,1-.76A3.33,3.33,0,0,1,142,105.57Z"/><path class="cls-10" d="M149.69,112.37h-.83a4.59,4.59,0,0,1-.74-.06,1.58,1.58,0,0,1-.6-.22,1.12,1.12,0,0,1-.4-.45,1.67,1.67,0,0,1-.15-.76v-4.15h-1.29v-1H147v-2h1.45v2h1.5v1h-1.5v3.72a.83.83,0,0,0,.17.58.8.8,0,0,0,.59.18h.57l.17,0v1.14Z"/><path class="cls-10" d="M154.08,105.57a3,3,0,0,1,1.34.28,2.78,2.78,0,0,1,1,.77,3.33,3.33,0,0,1,.58,1.13,4.76,4.76,0,0,1,.19,1.37v.26h-4.85a2.77,2.77,0,0,0,.13.81,1.9,1.9,0,0,0,.35.63,1.55,1.55,0,0,0,.54.41,1.7,1.7,0,0,0,.72.15,1.9,1.9,0,0,0,1-.23,1.7,1.7,0,0,0,.61-.6H157a3.06,3.06,0,0,1-.45.81,2.83,2.83,0,0,1-.66.62,3,3,0,0,1-.85.39,3.66,3.66,0,0,1-1,.13,3.28,3.28,0,0,1-1.33-.26,2.82,2.82,0,0,1-1-.72,3.18,3.18,0,0,1-.62-1.1,4.31,4.31,0,0,1-.22-1.4,4,4,0,0,1,.22-1.33,3.3,3.3,0,0,1,.63-1.1,3,3,0,0,1,1-.76A3.16,3.16,0,0,1,154.08,105.57Zm1.63,2.85a2.77,2.77,0,0,0-.16-.71,1.73,1.73,0,0,0-.33-.55,1.43,1.43,0,0,0-.5-.35,1.91,1.91,0,0,0-1.37,0,1.51,1.51,0,0,0-.52.36,1.79,1.79,0,0,0-.35.55,2.54,2.54,0,0,0-.17.7Z"/><path class="cls-10" d="M164.82,103.24v9.08h-1.37v-1h0a2.07,2.07,0,0,1-.37.5,2.16,2.16,0,0,1-.49.37,2.44,2.44,0,0,1-.59.23,2.79,2.79,0,0,1-.67.08,2.72,2.72,0,0,1-1.28-.29,2.76,2.76,0,0,1-.92-.77,3.38,3.38,0,0,1-.56-1.12,4.69,4.69,0,0,1-.19-1.33,4.52,4.52,0,0,1,.18-1.26,3.34,3.34,0,0,1,.54-1.1,2.75,2.75,0,0,1,.91-.77,2.91,2.91,0,0,1,1.92-.22,2.49,2.49,0,0,1,.58.21,2.07,2.07,0,0,1,.49.35,2,2,0,0,1,.37.5h0v-3.47Zm-5,5.79a3.63,3.63,0,0,0,.1.82,2.44,2.44,0,0,0,.31.76,1.81,1.81,0,0,0,.56.56,1.5,1.5,0,0,0,.83.22,1.73,1.73,0,0,0,.79-.17,1.58,1.58,0,0,0,.57-.49,2.25,2.25,0,0,0,.35-.75,3.68,3.68,0,0,0,.12-1,3.73,3.73,0,0,0-.1-.84,2.3,2.3,0,0,0-.31-.75,1.72,1.72,0,0,0-.57-.54,1.64,1.64,0,0,0-.85-.21,1.56,1.56,0,0,0-.82.2,1.7,1.7,0,0,0-.55.53,2.35,2.35,0,0,0-.32.75A3.93,3.93,0,0,0,159.79,109Z"/><line class="cls-11" x1="24" y1="93.5" x2="196" y2="93.5"/></g></svg>