<svg xmlns="http://www.w3.org/2000/svg" viewBox="0 0 282 181"><defs><style>.cls-1{fill:#fff;opacity:0.8;}.cls-2{opacity:0.4;}.cls-3{fill:#969696;}.cls-4{opacity:0.5;}.cls-5{fill:#464646;}.cls-6{fill:#0aaeff;}</style></defs><title>Artboard 56</title><g id="Content"><rect class="cls-1" x="15" y="72" width="248" height="28"/><g class="cls-2"><path class="cls-3" d="M263,72v28H15V72H263m1-1H14v30H264V71Z"/></g><g class="cls-4"><path class="cls-5" d="M30.25,80.37v1.27H25.53v2.28h4.37v1.19H25.53v2.56h4.8v1.26H24V80.37Z"/><path class="cls-5" d="M40,88.93v-4a3.44,3.44,0,0,0-.05-.62,1.26,1.26,0,0,0-.19-.49,1,1,0,0,0-.39-.32,1.48,1.48,0,0,0-.63-.12,1.24,1.24,0,0,0-1.06.47,2.29,2.29,0,0,0-.35,1.38v3.74H35.91V84.72a1.64,1.64,0,0,0-.28-1,1.1,1.1,0,0,0-.91-.35,1.34,1.34,0,0,0-1.08.48,2,2,0,0,0-.4,1.31v3.81H31.8V82.35h1.36v1h0a2.31,2.31,0,0,1,2.06-1.15,2.27,2.27,0,0,1,1.2.3,1.71,1.71,0,0,1,.71.86,2.45,2.45,0,0,1,.87-.86,2.21,2.21,0,0,1,3.47,2v4.48Z"/><path class="cls-5" d="M49.57,88.93l-.44.09-.39,0a1.79,1.79,0,0,1-.42,0,.91.91,0,0,1-.34-.16.84.84,0,0,1-.24-.29,1.28,1.28,0,0,1-.12-.45h0a2.67,2.67,0,0,1-.45.46,2.3,2.3,0,0,1-.52.31,3.32,3.32,0,0,1-1.31.24,2.42,2.42,0,0,1-1.62-.51,1.77,1.77,0,0,1-.6-1.45,1.7,1.7,0,0,1,.6-1.42,2.11,2.11,0,0,1,.58-.32,4.68,4.68,0,0,1,.73-.2q.39-.08.82-.13l.87-.1.34-.07a.8.8,0,0,0,.27-.13.59.59,0,0,0,.17-.22.79.79,0,0,0,.06-.33,1,1,0,0,0-.31-.79,2.11,2.11,0,0,0-2.05,0,1,1,0,0,0-.39.73H43.33a2,2,0,0,1,.28-.9,2,2,0,0,1,.62-.62,2.88,2.88,0,0,1,.9-.36,5.08,5.08,0,0,1,1.13-.12,3.42,3.42,0,0,1,2,.5A1.65,1.65,0,0,1,49,84.08v3.54a.47.47,0,0,0,.08.3.33.33,0,0,0,.27.1h.12l.13,0Zm-2-3.35h0a1,1,0,0,1-.54.23l-.48.08-.65.11a2.2,2.2,0,0,0-1,.37.87.87,0,0,0-.32.72.89.89,0,0,0,.37.76,1.48,1.48,0,0,0,.87.24A1.79,1.79,0,0,0,47,87.66a1.59,1.59,0,0,0,.49-1.24Z"/><path class="cls-5" d="M52.43,79.5v1.42H51V79.5Zm0,2.86v6.57H51V82.35Z"/><path class="cls-5" d="M55.88,79.85v9.08H54.43V79.85Z"/></g><path class="cls-5" d="M22,55.95v.7H16.95v3.09h4.77v.69H16.95V63.8h5.14v.7h-6V55.95Z"/><path class="cls-5" d="M31.86,64.5V60a1.73,1.73,0,0,0-.37-1.22A1.85,1.85,0,0,0,29,59a2.8,2.8,0,0,0-.45,1.71V64.5h-.81V60a1.81,1.81,0,0,0-.34-1.17,1.25,1.25,0,0,0-1-.42,1.72,1.72,0,0,0-1.46.65,2.72,2.72,0,0,0-.5,1.71V64.5h-.8V57.94h.74V59h0a2.26,2.26,0,0,1,2.15-1.29,2.44,2.44,0,0,1,.64.08,1.86,1.86,0,0,1,.54.24,1.66,1.66,0,0,1,.42.4,1.86,1.86,0,0,1,.28.55,2.16,2.16,0,0,1,.85-1,2.4,2.4,0,0,1,1.24-.32,2.12,2.12,0,0,1,1.63.58A2.36,2.36,0,0,1,32.66,60V64.5Z"/><path class="cls-5" d="M40.52,64.45l-.27,0H40a1.37,1.37,0,0,1-.44-.06.65.65,0,0,1-.29-.2.82.82,0,0,1-.16-.35,2.43,2.43,0,0,1,0-.53h0a3,3,0,0,1-1,1,2.79,2.79,0,0,1-1.35.29,2.46,2.46,0,0,1-1.6-.5,1.75,1.75,0,0,1-.6-1.43,1.66,1.66,0,0,1,.66-1.43,6.79,6.79,0,0,1,3-.69,2,2,0,0,0,.44-.08.75.75,0,0,0,.29-.16.6.6,0,0,0,.16-.26,1.28,1.28,0,0,0,0-.38,1.24,1.24,0,0,0-.4-1,2,2,0,0,0-1.31-.34,2.61,2.61,0,0,0-.72.09,1.65,1.65,0,0,0-.53.25,1.13,1.13,0,0,0-.33.39,1.23,1.23,0,0,0-.13.49h-.8a2,2,0,0,1,.22-.78,1.78,1.78,0,0,1,.51-.59,2.43,2.43,0,0,1,.81-.38,4,4,0,0,1,1.09-.13,2.64,2.64,0,0,1,1.83.54,2,2,0,0,1,.59,1.52v3.56a.47.47,0,0,0,.11.33.46.46,0,0,0,.36.12.7.7,0,0,0,.25,0ZM39,60.91h0q-.12.22-.77.31l-.67.1-.74.12a2.67,2.67,0,0,0-1.17.44,1,1,0,0,0-.39.84,1.16,1.16,0,0,0,.43.94,1.6,1.6,0,0,0,1,.35,2.36,2.36,0,0,0,1.63-.58A1.85,1.85,0,0,0,39,62Z"/><path class="cls-5" d="M42.77,55.07v1.29H42V55.07Zm0,2.87V64.5H42V57.94Z"/><path class="cls-5" d="M45.8,55.42V64.5H45V55.42Z"/><rect class="cls-1" x="15" y="137" width="248" height="28"/><g class="cls-2"><path class="cls-3" d="M263,137v28H15V137H263m1-1H14v30H264V136Z"/></g><g class="cls-4"><path class="cls-5" d="M30.68,148a2.54,2.54,0,0,1-.75,1.92,2.51,2.51,0,0,1-.88.54,3.33,3.33,0,0,1-1.13.18h-2.4v3.29H24v-8.57h3.9a2.79,2.79,0,0,1,2,.72A2.51,2.51,0,0,1,30.68,148Zm-1.46,0a1.36,1.36,0,0,0-.42-1.09,2,2,0,0,0-1.31-.36h-2v2.9h2a2.78,2.78,0,0,0,.72-.08,1.28,1.28,0,0,0,1-1.36Z"/><path class="cls-5" d="M37.89,153.93l-.44.09-.39,0a1.79,1.79,0,0,1-.42,0,.91.91,0,0,1-.34-.16.84.84,0,0,1-.24-.29,1.28,1.28,0,0,1-.12-.45h0a2.67,2.67,0,0,1-.45.46,2.3,2.3,0,0,1-.52.31,3.32,3.32,0,0,1-1.31.24,2.42,2.42,0,0,1-1.62-.51,1.77,1.77,0,0,1-.6-1.45,1.7,1.7,0,0,1,.6-1.42,2.11,2.11,0,0,1,.58-.32,4.68,4.68,0,0,1,.73-.2q.39-.08.82-.13L35,150l.34-.07a.8.8,0,0,0,.27-.13.59.59,0,0,0,.17-.22.79.79,0,0,0,.06-.33,1,1,0,0,0-.31-.79,2.11,2.11,0,0,0-2.05,0,1,1,0,0,0-.39.73H31.64a2,2,0,0,1,.28-.9,2,2,0,0,1,.62-.62,2.88,2.88,0,0,1,.9-.36,5.08,5.08,0,0,1,1.13-.12,3.42,3.42,0,0,1,2,.5,1.65,1.65,0,0,1,.67,1.41v3.54a.47.47,0,0,0,.08.3.33.33,0,0,0,.27.1h.12l.13,0Zm-2-3.35h0a1,1,0,0,1-.54.23l-.48.08-.65.11a2.2,2.2,0,0,0-1,.37.87.87,0,0,0-.32.72.89.89,0,0,0,.37.76,1.48,1.48,0,0,0,.87.24,1.79,1.79,0,0,0,1.27-.43,1.59,1.59,0,0,0,.49-1.24Z"/><path class="cls-5" d="M44.68,151.94a2,2,0,0,1-.23,1,2,2,0,0,1-.61.68,2.7,2.7,0,0,1-.91.39,4.79,4.79,0,0,1-1.12.13,4.56,4.56,0,0,1-1.08-.12,2.74,2.74,0,0,1-.89-.38,2.14,2.14,0,0,1-.63-.65,2.2,2.2,0,0,1-.3-.94h1.39a1.15,1.15,0,0,0,.51.8,1.51,1.51,0,0,0,.46.2,2.2,2.2,0,0,0,.56.07,2.4,2.4,0,0,0,.53-.06,1.46,1.46,0,0,0,.45-.18,1,1,0,0,0,.32-.31.78.78,0,0,0,.12-.44.61.61,0,0,0-.1-.35.9.9,0,0,0-.27-.26,1.81,1.81,0,0,0-.4-.18l-.47-.13-.93-.22a6,6,0,0,1-.91-.28,2.37,2.37,0,0,1-.63-.37,1.33,1.33,0,0,1-.37-.49,1.57,1.57,0,0,1-.12-.63,1.77,1.77,0,0,1,.21-.89,1.84,1.84,0,0,1,.58-.63,2.69,2.69,0,0,1,.87-.37,4.46,4.46,0,0,1,1.07-.12,3.88,3.88,0,0,1,1.06.13,2.61,2.61,0,0,1,.82.38,1.9,1.9,0,0,1,.54.59,2,2,0,0,1,.25.77H43.06a1,1,0,0,0-.45-.65,1.65,1.65,0,0,0-.91-.23,2.3,2.3,0,0,0-.47,0,1.27,1.27,0,0,0-.39.14.77.77,0,0,0-.26.25.65.65,0,0,0-.1.36.6.6,0,0,0,.1.35.91.91,0,0,0,.26.25,1.47,1.47,0,0,0,.35.16l.37.1,1.38.33a4.37,4.37,0,0,1,.68.22,2,2,0,0,1,.54.34,1.47,1.47,0,0,1,.37.5A1.84,1.84,0,0,1,44.68,151.94Z"/><path class="cls-5" d="M51.62,151.94a2,2,0,0,1-.23,1,2,2,0,0,1-.61.68,2.7,2.7,0,0,1-.91.39,4.79,4.79,0,0,1-1.12.13,4.56,4.56,0,0,1-1.08-.12,2.74,2.74,0,0,1-.89-.38,2.14,2.14,0,0,1-.63-.65,2.2,2.2,0,0,1-.3-.94h1.39a1.15,1.15,0,0,0,.51.8,1.51,1.51,0,0,0,.46.2,2.2,2.2,0,0,0,.56.07,2.4,2.4,0,0,0,.53-.06,1.46,1.46,0,0,0,.45-.18,1,1,0,0,0,.32-.31.78.78,0,0,0,.12-.44.61.61,0,0,0-.1-.35.9.9,0,0,0-.27-.26,1.81,1.81,0,0,0-.4-.18l-.47-.13L48,151a6,6,0,0,1-.91-.28,2.37,2.37,0,0,1-.63-.37,1.33,1.33,0,0,1-.37-.49,1.57,1.57,0,0,1-.12-.63,1.77,1.77,0,0,1,.21-.89,1.84,1.84,0,0,1,.58-.63,2.69,2.69,0,0,1,.87-.37,4.46,4.46,0,0,1,1.07-.12,3.88,3.88,0,0,1,1.06.13,2.61,2.61,0,0,1,.82.38,1.9,1.9,0,0,1,.54.59,2,2,0,0,1,.25.77H50a1,1,0,0,0-.45-.65,1.65,1.65,0,0,0-.91-.23,2.3,2.3,0,0,0-.47,0,1.27,1.27,0,0,0-.39.14.77.77,0,0,0-.26.25.65.65,0,0,0-.1.36.6.6,0,0,0,.1.35.91.91,0,0,0,.26.25,1.47,1.47,0,0,0,.35.16l.37.1,1.38.33a4.37,4.37,0,0,1,.68.22,2,2,0,0,1,.54.34,1.47,1.47,0,0,1,.37.5A1.84,1.84,0,0,1,51.62,151.94Z"/><path class="cls-5" d="M53.94,147.35l1.38,5h0l1.28-5h1.45l1.29,5h0l1.38-5h1.49l-2.09,6.57h-1.5L57.34,149h0L56,153.93H54.51l-2.09-6.57Z"/><path class="cls-5" d="M69.76,150.65a4.09,4.09,0,0,1-.23,1.38,3.1,3.1,0,0,1-.68,1.11,3,3,0,0,1-1,.73,3.49,3.49,0,0,1-1.36.25,3.12,3.12,0,0,1-2.38-1,3.94,3.94,0,0,1,0-5,3.1,3.1,0,0,1,2.39-1,3.15,3.15,0,0,1,2.4,1A3.54,3.54,0,0,1,69.76,150.65Zm-1.45,0a3.59,3.59,0,0,0-.11-.92,2.21,2.21,0,0,0-.35-.75,1.68,1.68,0,0,0-.58-.5,1.75,1.75,0,0,0-.83-.18,1.71,1.71,0,0,0-.77.17,1.62,1.62,0,0,0-.57.48,2.23,2.23,0,0,0-.36.74,3.79,3.79,0,0,0,0,1.9,2.19,2.19,0,0,0,.35.74,1.67,1.67,0,0,0,.58.49,1.7,1.7,0,0,0,.79.18,1.72,1.72,0,0,0,.79-.18,1.68,1.68,0,0,0,.58-.49,2.24,2.24,0,0,0,.36-.74A3.41,3.41,0,0,0,68.31,150.65Z"/><path class="cls-5" d="M71.37,153.93v-6.57h1.37v1.34h0a2.4,2.4,0,0,1,.87-1.08,2.23,2.23,0,0,1,1.29-.39h.21l.2,0v1.36l-.25,0H74.8a1.84,1.84,0,0,0-1.48.6,2.36,2.36,0,0,0-.51,1.57v3.18Z"/><path class="cls-5" d="M82.49,144.85v9.08H81.12v-1h0a2.07,2.07,0,0,1-.37.5,2.16,2.16,0,0,1-.49.37,2.44,2.44,0,0,1-.59.23,2.79,2.79,0,0,1-.67.08,2.72,2.72,0,0,1-1.28-.29,2.76,2.76,0,0,1-.92-.77,3.38,3.38,0,0,1-.56-1.12,4.69,4.69,0,0,1-.19-1.33,4.52,4.52,0,0,1,.18-1.26,3.34,3.34,0,0,1,.54-1.1,2.75,2.75,0,0,1,.91-.77,2.91,2.91,0,0,1,1.92-.22,2.49,2.49,0,0,1,.58.21,2.07,2.07,0,0,1,.49.35,2,2,0,0,1,.37.5h0v-3.47Zm-5,5.79a3.63,3.63,0,0,0,.1.82,2.44,2.44,0,0,0,.31.76,1.81,1.81,0,0,0,.56.56,1.5,1.5,0,0,0,.83.22,1.73,1.73,0,0,0,.79-.17,1.58,1.58,0,0,0,.57-.49,2.25,2.25,0,0,0,.35-.75,3.68,3.68,0,0,0,.12-1,3.73,3.73,0,0,0-.1-.84,2.3,2.3,0,0,0-.31-.75,1.72,1.72,0,0,0-.57-.54,1.64,1.64,0,0,0-.85-.21,1.56,1.56,0,0,0-.82.2,1.7,1.7,0,0,0-.55.53,2.35,2.35,0,0,0-.32.75A3.93,3.93,0,0,0,77.46,150.64Z"/></g><path class="cls-5" d="M22.48,123.38a2.34,2.34,0,0,1-.7,1.8,2.55,2.55,0,0,1-1.8.64h-3v3.67h-.82v-8.57H20a2.53,2.53,0,0,1,1.8.65A2.33,2.33,0,0,1,22.48,123.38Zm-.81,0a1.68,1.68,0,0,0-.5-1.29,2.11,2.11,0,0,0-1.49-.46H16.95v3.5H19.8a2,2,0,0,0,1.35-.45A1.65,1.65,0,0,0,21.66,123.38Z"/><path class="cls-5" d="M29.37,129.45l-.27,0h-.24a1.37,1.37,0,0,1-.44-.06.65.65,0,0,1-.29-.2.82.82,0,0,1-.16-.35,2.43,2.43,0,0,1,0-.53h0a3,3,0,0,1-1,1,2.79,2.79,0,0,1-1.35.29,2.46,2.46,0,0,1-1.6-.5,1.75,1.75,0,0,1-.6-1.43,1.66,1.66,0,0,1,.66-1.43,6.79,6.79,0,0,1,3-.69,2,2,0,0,0,.44-.08.75.75,0,0,0,.29-.16.6.6,0,0,0,.16-.26,1.28,1.28,0,0,0,0-.38,1.24,1.24,0,0,0-.4-1,2,2,0,0,0-1.31-.34,2.61,2.61,0,0,0-.72.09,1.65,1.65,0,0,0-.53.25,1.13,1.13,0,0,0-.33.39,1.23,1.23,0,0,0-.13.49h-.8a2,2,0,0,1,.22-.78,1.78,1.78,0,0,1,.51-.59,2.43,2.43,0,0,1,.81-.38,4,4,0,0,1,1.09-.13,2.64,2.64,0,0,1,1.83.54,2,2,0,0,1,.59,1.52v3.56a.47.47,0,0,0,.11.33.46.46,0,0,0,.36.12.7.7,0,0,0,.25,0Zm-1.52-3.54h0q-.12.22-.77.31l-.67.1-.74.12a2.67,2.67,0,0,0-1.17.44,1,1,0,0,0-.39.84,1.16,1.16,0,0,0,.43.94,1.6,1.6,0,0,0,1,.35,2.36,2.36,0,0,0,1.63-.58,1.85,1.85,0,0,0,.65-1.44Z"/><path class="cls-5" d="M35.71,127.72a1.67,1.67,0,0,1-.22.88,1.89,1.89,0,0,1-.59.62,2.74,2.74,0,0,1-.84.36,4,4,0,0,1-1,.12,3.66,3.66,0,0,1-1.07-.14,2.4,2.4,0,0,1-.8-.41,2,2,0,0,1-.53-.64,2.4,2.4,0,0,1-.25-.85h.81a1.7,1.7,0,0,0,.2.56,1.41,1.41,0,0,0,.38.43,1.8,1.8,0,0,0,.57.28,2.56,2.56,0,0,0,.74.1,3,3,0,0,0,.6-.06,2.05,2.05,0,0,0,.58-.21,1.35,1.35,0,0,0,.44-.38,1,1,0,0,0,.18-.59.93.93,0,0,0-.34-.73,2.6,2.6,0,0,0-1.13-.46l-1-.22a4,4,0,0,1-.77-.24,2.1,2.1,0,0,1-.58-.37,1.46,1.46,0,0,1-.36-.5,1.62,1.62,0,0,1-.12-.65,1.57,1.57,0,0,1,.21-.83,1.78,1.78,0,0,1,.56-.57,2.53,2.53,0,0,1,.78-.33,3.77,3.77,0,0,1,.89-.11,3.27,3.27,0,0,1,.92.12,2.29,2.29,0,0,1,.73.35,1.83,1.83,0,0,1,.5.57,2.08,2.08,0,0,1,.25.78h-.8a1.32,1.32,0,0,0-.19-.5,1.24,1.24,0,0,0-.36-.37,1.69,1.69,0,0,0-.5-.22,2.36,2.36,0,0,0-.61-.08,2.85,2.85,0,0,0-.58.06,1.59,1.59,0,0,0-.51.19,1.07,1.07,0,0,0-.36.35,1,1,0,0,0-.13.53.74.74,0,0,0,.13.44,1.27,1.27,0,0,0,.33.32,1.93,1.93,0,0,0,.44.22,3.64,3.64,0,0,0,.46.13l1.37.3a2.85,2.85,0,0,1,.59.21,1.77,1.77,0,0,1,.5.35,1.64,1.64,0,0,1,.34.51A1.71,1.71,0,0,1,35.71,127.72Z"/><path class="cls-5" d="M42.38,127.72a1.67,1.67,0,0,1-.22.88,1.89,1.89,0,0,1-.59.62,2.74,2.74,0,0,1-.84.36,4,4,0,0,1-1,.12,3.66,3.66,0,0,1-1.07-.14,2.4,2.4,0,0,1-.8-.41,2,2,0,0,1-.53-.64,2.4,2.4,0,0,1-.25-.85h.81a1.7,1.7,0,0,0,.2.56,1.41,1.41,0,0,0,.38.43,1.8,1.8,0,0,0,.57.28,2.56,2.56,0,0,0,.74.1,3,3,0,0,0,.6-.06,2.05,2.05,0,0,0,.58-.21,1.35,1.35,0,0,0,.44-.38,1,1,0,0,0,.18-.59.93.93,0,0,0-.34-.73,2.6,2.6,0,0,0-1.13-.46l-1-.22a4,4,0,0,1-.77-.24,2.1,2.1,0,0,1-.58-.37,1.46,1.46,0,0,1-.36-.5,1.62,1.62,0,0,1-.12-.65,1.57,1.57,0,0,1,.21-.83,1.78,1.78,0,0,1,.56-.57,2.53,2.53,0,0,1,.78-.33,3.77,3.77,0,0,1,.89-.11,3.27,3.27,0,0,1,.92.12,2.29,2.29,0,0,1,.73.35,1.83,1.83,0,0,1,.5.57,2.08,2.08,0,0,1,.25.78h-.8a1.32,1.32,0,0,0-.19-.5,1.24,1.24,0,0,0-.36-.37,1.69,1.69,0,0,0-.5-.22,2.36,2.36,0,0,0-.61-.08,2.85,2.85,0,0,0-.58.06,1.59,1.59,0,0,0-.51.19,1.07,1.07,0,0,0-.36.35,1,1,0,0,0-.13.53.74.74,0,0,0,.13.44,1.27,1.27,0,0,0,.33.32,1.93,1.93,0,0,0,.44.22,3.64,3.64,0,0,0,.46.13l1.37.3a2.85,2.85,0,0,1,.59.21,1.77,1.77,0,0,1,.5.35,1.64,1.64,0,0,1,.34.51A1.71,1.71,0,0,1,42.38,127.72Z"/><path class="cls-5" d="M44.22,122.94l1.68,5.62h0l1.6-5.62h.9L50,128.56h0l1.68-5.62h.85l-2.12,6.56H49.6L48,124h0l-1.6,5.52h-.88l-2.11-6.56Z"/><path class="cls-5" d="M59.83,126.22a4.29,4.29,0,0,1-.2,1.31,3.31,3.31,0,0,1-.61,1.13,2.9,2.9,0,0,1-2.29,1,2.84,2.84,0,0,1-2.24-1,4.07,4.07,0,0,1,0-5,3.08,3.08,0,0,1,4.51,0A3.65,3.65,0,0,1,59.83,126.22Zm-.8,0a3.8,3.8,0,0,0-.13-1,2.81,2.81,0,0,0-.42-.9,2.25,2.25,0,0,0-.72-.65,2,2,0,0,0-1-.25,2,2,0,0,0-1,.24,2.24,2.24,0,0,0-.72.64,2.85,2.85,0,0,0-.44.9,3.66,3.66,0,0,0-.15,1,3.58,3.58,0,0,0,.14,1,3,3,0,0,0,.43.9,2.24,2.24,0,0,0,.71.65,2,2,0,0,0,1,.25,2,2,0,0,0,1-.24,2.33,2.33,0,0,0,.72-.63,2.8,2.8,0,0,0,.45-.89A3.54,3.54,0,0,0,59,126.22Z"/><path class="cls-5" d="M61.63,129.5v-6.56h.74v1.54h0a2.56,2.56,0,0,1,.9-1.2,2.32,2.32,0,0,1,1.38-.43H65v.8h-.18a2.22,2.22,0,0,0-1.71.69,2.36,2.36,0,0,0-.64,1.69v3.48Z"/><path class="cls-5" d="M71.84,120.42v9.08H71.1v-1.25h0a2,2,0,0,1-.39.59,2.57,2.57,0,0,1-.56.45,2.8,2.8,0,0,1-.67.29,2.63,2.63,0,0,1-.72.1,2.8,2.8,0,0,1-1.28-.28,2.68,2.68,0,0,1-.92-.75,3.32,3.32,0,0,1-.56-1.11,4.68,4.68,0,0,1-.19-1.34,4.83,4.83,0,0,1,.17-1.29,3.31,3.31,0,0,1,.53-1.11,2.69,2.69,0,0,1,.92-.78,3,3,0,0,1,2-.2,2.56,2.56,0,0,1,.65.27,2.25,2.25,0,0,1,.54.45,2.07,2.07,0,0,1,.38.63h0v-3.77Zm-5.26,5.8a4.17,4.17,0,0,0,.05.65,3.7,3.7,0,0,0,.16.64,2.82,2.82,0,0,0,.28.58,2.15,2.15,0,0,0,.41.48,1.8,1.8,0,0,0,.55.32,2,2,0,0,0,.7.12,2.08,2.08,0,0,0,1.73-.84,2.66,2.66,0,0,0,.43-.89,4,4,0,0,0,.14-1.06,4,4,0,0,0-.13-1,2.73,2.73,0,0,0-.41-.9,2.06,2.06,0,0,0-1.76-.88,1.94,1.94,0,0,0-.68.11,1.8,1.8,0,0,0-.54.31,2.15,2.15,0,0,0-.41.47,2.8,2.8,0,0,0-.29.58,3.52,3.52,0,0,0-.17.65A4.25,4.25,0,0,0,66.58,126.22Z"/><path class="cls-5" d="M42.48,25a2.34,2.34,0,0,1-.7,1.8,2.55,2.55,0,0,1-1.8.64h-3v3.67h-.82V22.52H40a2.53,2.53,0,0,1,1.8.65A2.33,2.33,0,0,1,42.48,25Zm-.81,0a1.68,1.68,0,0,0-.5-1.29,2.11,2.11,0,0,0-1.49-.46H36.95v3.5H39.8a2,2,0,0,0,1.35-.45A1.65,1.65,0,0,0,41.66,25Z"/><path class="cls-5" d="M44.88,22v9.08h-.8V22Z"/><path class="cls-5" d="M49.66,24.33a2.71,2.71,0,0,1,1.3.29,2.6,2.6,0,0,1,.9.79,3.45,3.45,0,0,1,.52,1.13,5.21,5.21,0,0,1,.17,1.34V28H47.5a3.58,3.58,0,0,0,.13.94,2.59,2.59,0,0,0,.39.83,2,2,0,0,0,.66.59,1.92,1.92,0,0,0,.95.22,2.44,2.44,0,0,0,.7-.09,2,2,0,0,0,.56-.26,1.76,1.76,0,0,0,.42-.39,2.41,2.41,0,0,0,.29-.49h.79a3,3,0,0,1-.38.79,2.48,2.48,0,0,1-.59.6,2.68,2.68,0,0,1-.79.39,3.34,3.34,0,0,1-1,.14,2.94,2.94,0,0,1-1.3-.27,2.56,2.56,0,0,1-.91-.73,3.12,3.12,0,0,1-.54-1.1,5.14,5.14,0,0,1-.18-1.37,4.66,4.66,0,0,1,.18-1.28,3.36,3.36,0,0,1,.54-1.11,2.74,2.74,0,0,1,.92-.78A2.79,2.79,0,0,1,49.66,24.33Zm2.09,3a3,3,0,0,0-.16-.85,2.44,2.44,0,0,0-.41-.75,2.07,2.07,0,0,0-.65-.54,1.84,1.84,0,0,0-.88-.21,1.84,1.84,0,0,0-1.5.7,2.7,2.7,0,0,0-.42.75,4.31,4.31,0,0,0-.23.9Z"/><path class="cls-5" d="M59.89,31l-.27,0h-.24a1.37,1.37,0,0,1-.44-.06.65.65,0,0,1-.29-.2.82.82,0,0,1-.16-.35,2.43,2.43,0,0,1,0-.53h0a3,3,0,0,1-1,1,2.79,2.79,0,0,1-1.35.29,2.46,2.46,0,0,1-1.6-.5,1.75,1.75,0,0,1-.6-1.43,1.66,1.66,0,0,1,.66-1.43,6.79,6.79,0,0,1,3-.69,2,2,0,0,0,.44-.08.75.75,0,0,0,.29-.16.6.6,0,0,0,.16-.26,1.28,1.28,0,0,0,0-.38,1.24,1.24,0,0,0-.4-1A2,2,0,0,0,56.65,25a2.61,2.61,0,0,0-.72.09,1.65,1.65,0,0,0-.53.25,1.13,1.13,0,0,0-.33.39,1.23,1.23,0,0,0-.13.49h-.8a2,2,0,0,1,.22-.78,1.78,1.78,0,0,1,.51-.59,2.43,2.43,0,0,1,.81-.38,4,4,0,0,1,1.09-.13,2.64,2.64,0,0,1,1.83.54,2,2,0,0,1,.59,1.52V30a.47.47,0,0,0,.11.33.46.46,0,0,0,.36.12.7.7,0,0,0,.25,0Zm-1.52-3.54h0q-.12.22-.77.31l-.67.1-.74.12a2.67,2.67,0,0,0-1.17.44,1,1,0,0,0-.39.84,1.16,1.16,0,0,0,.43.94,1.6,1.6,0,0,0,1,.35A2.36,2.36,0,0,0,57.72,30a1.85,1.85,0,0,0,.65-1.44Z"/><path class="cls-5" d="M66.23,29.3a1.67,1.67,0,0,1-.22.88,1.89,1.89,0,0,1-.59.62,2.74,2.74,0,0,1-.84.36,4,4,0,0,1-1,.12,3.66,3.66,0,0,1-1.07-.14,2.4,2.4,0,0,1-.8-.41,2,2,0,0,1-.53-.64,2.4,2.4,0,0,1-.25-.85h.81a1.7,1.7,0,0,0,.2.56,1.41,1.41,0,0,0,.38.43,1.8,1.8,0,0,0,.57.28,2.56,2.56,0,0,0,.74.1,3,3,0,0,0,.6-.06,2.05,2.05,0,0,0,.58-.21,1.35,1.35,0,0,0,.44-.38,1,1,0,0,0,.18-.59.93.93,0,0,0-.34-.73A2.6,2.6,0,0,0,64,28.15l-1-.22a4,4,0,0,1-.77-.24,2.1,2.1,0,0,1-.58-.37,1.46,1.46,0,0,1-.36-.5,1.62,1.62,0,0,1-.12-.65,1.57,1.57,0,0,1,.21-.83,1.78,1.78,0,0,1,.56-.57,2.53,2.53,0,0,1,.78-.33,3.77,3.77,0,0,1,.89-.11,3.27,3.27,0,0,1,.92.12,2.29,2.29,0,0,1,.73.35,1.83,1.83,0,0,1,.5.57,2.08,2.08,0,0,1,.25.78h-.8a1.32,1.32,0,0,0-.19-.5,1.24,1.24,0,0,0-.36-.37,1.69,1.69,0,0,0-.5-.22,2.36,2.36,0,0,0-.61-.08,2.85,2.85,0,0,0-.58.06,1.59,1.59,0,0,0-.51.19,1.07,1.07,0,0,0-.36.35,1,1,0,0,0-.13.53.74.74,0,0,0,.13.44,1.27,1.27,0,0,0,.33.32,1.93,1.93,0,0,0,.44.22,3.64,3.64,0,0,0,.46.13l1.37.3a2.85,2.85,0,0,1,.59.21,1.77,1.77,0,0,1,.5.35,1.64,1.64,0,0,1,.34.51A1.71,1.71,0,0,1,66.23,29.3Z"/><path class="cls-5" d="M70.57,24.33a2.71,2.71,0,0,1,1.3.29,2.6,2.6,0,0,1,.9.79,3.45,3.45,0,0,1,.52,1.13,5.21,5.21,0,0,1,.17,1.34V28H68.4a3.58,3.58,0,0,0,.13.94,2.59,2.59,0,0,0,.39.83,2,2,0,0,0,.66.59,1.92,1.92,0,0,0,.95.22,2.44,2.44,0,0,0,.7-.09,2,2,0,0,0,.56-.26,1.76,1.76,0,0,0,.42-.39,2.41,2.41,0,0,0,.29-.49h.79a3,3,0,0,1-.38.79,2.48,2.48,0,0,1-.59.6,2.68,2.68,0,0,1-.79.39,3.34,3.34,0,0,1-1,.14,2.94,2.94,0,0,1-1.3-.27,2.56,2.56,0,0,1-.91-.73,3.12,3.12,0,0,1-.54-1.1,5.14,5.14,0,0,1-.18-1.37,4.66,4.66,0,0,1,.18-1.28,3.36,3.36,0,0,1,.54-1.11,2.74,2.74,0,0,1,.92-.78A2.79,2.79,0,0,1,70.57,24.33Zm2.09,3a3,3,0,0,0-.16-.85,2.44,2.44,0,0,0-.41-.75,2.07,2.07,0,0,0-.65-.54,1.84,1.84,0,0,0-.88-.21,1.84,1.84,0,0,0-1.5.7,2.7,2.7,0,0,0-.42.75,4.31,4.31,0,0,0-.23.9Z"/><path class="cls-5" d="M83.53,29.3a1.67,1.67,0,0,1-.22.88,1.89,1.89,0,0,1-.59.62,2.74,2.74,0,0,1-.84.36,4,4,0,0,1-1,.12,3.66,3.66,0,0,1-1.07-.14,2.4,2.4,0,0,1-.8-.41,2,2,0,0,1-.53-.64,2.4,2.4,0,0,1-.25-.85H79a1.7,1.7,0,0,0,.2.56,1.41,1.41,0,0,0,.38.43,1.8,1.8,0,0,0,.57.28,2.56,2.56,0,0,0,.74.1,3,3,0,0,0,.6-.06,2.05,2.05,0,0,0,.58-.21,1.35,1.35,0,0,0,.44-.38,1,1,0,0,0,.18-.59.93.93,0,0,0-.34-.73,2.6,2.6,0,0,0-1.13-.46l-1-.22a4,4,0,0,1-.77-.24,2.1,2.1,0,0,1-.58-.37,1.46,1.46,0,0,1-.36-.5,1.62,1.62,0,0,1-.12-.65,1.57,1.57,0,0,1,.21-.83,1.78,1.78,0,0,1,.56-.57,2.53,2.53,0,0,1,.78-.33,3.77,3.77,0,0,1,.89-.11,3.27,3.27,0,0,1,.92.12,2.29,2.29,0,0,1,.73.35,1.83,1.83,0,0,1,.5.57,2.08,2.08,0,0,1,.25.78h-.8a1.32,1.32,0,0,0-.19-.5,1.24,1.24,0,0,0-.36-.37,1.69,1.69,0,0,0-.5-.22A2.36,2.36,0,0,0,80.8,25a2.85,2.85,0,0,0-.58.06,1.59,1.59,0,0,0-.51.19,1.07,1.07,0,0,0-.36.35,1,1,0,0,0-.13.53.74.74,0,0,0,.13.44,1.27,1.27,0,0,0,.33.32,1.93,1.93,0,0,0,.44.22,3.64,3.64,0,0,0,.46.13l1.37.3a2.85,2.85,0,0,1,.59.21,1.77,1.77,0,0,1,.5.35,1.64,1.64,0,0,1,.34.51A1.71,1.71,0,0,1,83.53,29.3Z"/><path class="cls-5" d="M86.11,21.65v1.29h-.8V21.65Zm0,2.87v6.56h-.8V24.52Z"/><path class="cls-5" d="M90.89,24.33a2.29,2.29,0,0,1,.64.09,2.31,2.31,0,0,1,1.08.68,2.26,2.26,0,0,1,.37.56h0V24.52h.8v6.1a3.27,3.27,0,0,1-.73,2.3,2.88,2.88,0,0,1-2.21.79,4.54,4.54,0,0,1-.93-.09,2.71,2.71,0,0,1-.81-.3,1.88,1.88,0,0,1-.6-.55,1.68,1.68,0,0,1-.28-.82H89a1.24,1.24,0,0,0,.56.81,2.33,2.33,0,0,0,1.25.28,2,2,0,0,0,1.61-.61A2.66,2.66,0,0,0,93,30.61V29.43h0a2.53,2.53,0,0,1-.37.57,2.28,2.28,0,0,1-.5.43,2.35,2.35,0,0,1-.6.27,2.4,2.4,0,0,1-.67.09,3.16,3.16,0,0,1-1.28-.24,2.43,2.43,0,0,1-.91-.67,2.85,2.85,0,0,1-.54-1,4.64,4.64,0,0,1-.18-1.31,4,4,0,0,1,.19-1.22,3,3,0,0,1,.56-1,2.74,2.74,0,0,1,.93-.7A3,3,0,0,1,90.89,24.33Zm-2.16,3.29a3.49,3.49,0,0,0,.12,1,2.29,2.29,0,0,0,.38.8,1.87,1.87,0,0,0,.67.54,2.13,2.13,0,0,0,1,.2,1.9,1.9,0,0,0,.91-.21,2.1,2.1,0,0,0,.67-.56,2.53,2.53,0,0,0,.42-.8,3,3,0,0,0,.14-.93,3.72,3.72,0,0,0-.12-.93,2.66,2.66,0,0,0-.37-.84,2,2,0,0,0-.66-.61,1.87,1.87,0,0,0-1-.24,2,2,0,0,0-1,.22,2,2,0,0,0-.67.59,2.55,2.55,0,0,0-.39.84A3.87,3.87,0,0,0,88.73,27.62Z"/><path class="cls-5" d="M98.91,24.33a3.35,3.35,0,0,1,1.08.16,1.83,1.83,0,0,1,.74.46,1.87,1.87,0,0,1,.43.77,3.79,3.79,0,0,1,.14,1.08v4.28h-.8V26.93a2.2,2.2,0,0,0-.41-1.44A1.54,1.54,0,0,0,98.84,25a2.07,2.07,0,0,0-.86.17,1.88,1.88,0,0,0-.65.48,2.16,2.16,0,0,0-.41.71,2.63,2.63,0,0,0-.14.88v3.84H96V24.52h.8v1.14h0a2,2,0,0,1,.35-.56,2.18,2.18,0,0,1,.49-.42,2.33,2.33,0,0,1,.6-.26A2.48,2.48,0,0,1,98.91,24.33Z"/><path class="cls-5" d="M107.8,21.65v1.29H107V21.65Zm0,2.87v6.56H107V24.52Z"/><path class="cls-5" d="M112.92,24.33a3.35,3.35,0,0,1,1.08.16,1.83,1.83,0,0,1,.74.46,1.87,1.87,0,0,1,.43.77,3.79,3.79,0,0,1,.14,1.08v4.28h-.8V26.93a2.2,2.2,0,0,0-.41-1.44,1.54,1.54,0,0,0-1.25-.49,2.07,2.07,0,0,0-.86.17,1.88,1.88,0,0,0-.65.48,2.16,2.16,0,0,0-.41.71,2.63,2.63,0,0,0-.14.88v3.84H110V24.52h.8v1.14h0a2,2,0,0,1,.35-.56,2.18,2.18,0,0,1,.49-.42,2.33,2.33,0,0,1,.6-.26A2.48,2.48,0,0,1,112.92,24.33Z"/><path class="cls-5" d="M123.63,31.14H123a3,3,0,0,1-.68-.06,1,1,0,0,1-.45-.23.89.89,0,0,1-.25-.43,2.65,2.65,0,0,1-.07-.68V25.19H120.2v-.67h1.32v-2h.8v2h1.5v.67h-1.5v4.48a1.76,1.76,0,0,0,0,.34.64.64,0,0,0,.11.25.5.5,0,0,0,.21.16.87.87,0,0,0,.35.06h.6l.21,0v.68Z"/><path class="cls-5" d="M131.22,27.8a4.29,4.29,0,0,1-.2,1.31,3.31,3.31,0,0,1-.61,1.13,2.9,2.9,0,0,1-2.29,1,2.84,2.84,0,0,1-2.24-1,3.65,3.65,0,0,1-.86-2.5,3.65,3.65,0,0,1,.85-2.49,3.08,3.08,0,0,1,4.51,0A3.65,3.65,0,0,1,131.22,27.8Zm-.8,0a3.8,3.8,0,0,0-.13-1,2.81,2.81,0,0,0-.42-.9,2.25,2.25,0,0,0-.72-.65,2,2,0,0,0-1-.25,2,2,0,0,0-1,.24,2.24,2.24,0,0,0-.72.64,2.85,2.85,0,0,0-.44.9,3.66,3.66,0,0,0-.15,1,3.58,3.58,0,0,0,.14,1,3,3,0,0,0,.43.9,2.24,2.24,0,0,0,.71.65,2,2,0,0,0,1,.25,2,2,0,0,0,1-.24,2.33,2.33,0,0,0,.72-.63,2.8,2.8,0,0,0,.45-.89A3.54,3.54,0,0,0,130.42,27.8Z"/><path class="cls-5" d="M139.09,24.33a2.71,2.71,0,0,1,1.3.29,2.6,2.6,0,0,1,.9.79,3.45,3.45,0,0,1,.52,1.13,5.21,5.21,0,0,1,.17,1.34V28h-5.05A3.58,3.58,0,0,0,137,29a2.59,2.59,0,0,0,.39.83,2,2,0,0,0,.66.59,1.92,1.92,0,0,0,.95.22,2.44,2.44,0,0,0,.7-.09,2,2,0,0,0,.56-.26,1.76,1.76,0,0,0,.42-.39,2.41,2.41,0,0,0,.29-.49h.79a3,3,0,0,1-.38.79,2.48,2.48,0,0,1-.59.6,2.68,2.68,0,0,1-.79.39,3.34,3.34,0,0,1-1,.14,2.94,2.94,0,0,1-1.3-.27,2.56,2.56,0,0,1-.91-.73,3.12,3.12,0,0,1-.54-1.1,5.14,5.14,0,0,1-.18-1.37,4.66,4.66,0,0,1,.18-1.28,3.36,3.36,0,0,1,.54-1.11,2.74,2.74,0,0,1,.92-.78A2.79,2.79,0,0,1,139.09,24.33Zm2.09,3a3,3,0,0,0-.16-.85,2.44,2.44,0,0,0-.41-.75,2.07,2.07,0,0,0-.65-.54,1.84,1.84,0,0,0-.88-.21,1.84,1.84,0,0,0-1.5.7,2.7,2.7,0,0,0-.42.75,4.31,4.31,0,0,0-.23.9Z"/><path class="cls-5" d="M149.38,22v9.08h-.74V29.83h0a2,2,0,0,1-.39.59,2.57,2.57,0,0,1-.56.45,2.8,2.8,0,0,1-.67.29,2.63,2.63,0,0,1-.72.1A2.8,2.8,0,0,1,145,31a2.68,2.68,0,0,1-.92-.75,3.32,3.32,0,0,1-.56-1.11,4.68,4.68,0,0,1-.19-1.34,4.83,4.83,0,0,1,.17-1.29A3.31,3.31,0,0,1,144,25.4a2.69,2.69,0,0,1,.92-.78,3,3,0,0,1,2-.2,2.56,2.56,0,0,1,.65.27,2.25,2.25,0,0,1,.54.45,2.07,2.07,0,0,1,.38.63h0V22Zm-5.26,5.8a4.17,4.17,0,0,0,.05.65,3.7,3.7,0,0,0,.16.64,2.82,2.82,0,0,0,.28.58,2.15,2.15,0,0,0,.41.48,1.8,1.8,0,0,0,.55.32,2,2,0,0,0,.7.12,2.08,2.08,0,0,0,1.73-.84,2.66,2.66,0,0,0,.43-.89,4,4,0,0,0,.14-1.06,4,4,0,0,0-.13-1,2.73,2.73,0,0,0-.41-.9,2.06,2.06,0,0,0-1.76-.88,1.94,1.94,0,0,0-.68.11,1.8,1.8,0,0,0-.54.31,2.15,2.15,0,0,0-.41.47,2.8,2.8,0,0,0-.29.58,3.52,3.52,0,0,0-.17.65A4.25,4.25,0,0,0,144.13,27.8Z"/><path class="cls-5" d="M152.4,21.65v1.29h-.8V21.65Zm0,2.87v6.56h-.8V24.52Z"/><path class="cls-5" d="M157.25,31.14h-.66a3,3,0,0,1-.68-.06,1,1,0,0,1-.45-.23.89.89,0,0,1-.25-.43,2.65,2.65,0,0,1-.07-.68V25.19h-1.32v-.67h1.32v-2h.8v2h1.5v.67h-1.5v4.48a1.76,1.76,0,0,0,0,.34.64.64,0,0,0,.11.25.5.5,0,0,0,.21.16.87.87,0,0,0,.35.06h.6l.21,0v.68Z"/><path class="cls-5" d="M165.35,31.14h-.66a3,3,0,0,1-.68-.06,1,1,0,0,1-.45-.23.89.89,0,0,1-.25-.43,2.65,2.65,0,0,1-.07-.68V25.19h-1.32v-.67h1.32v-2h.8v2h1.5v.67H164v4.48a1.76,1.76,0,0,0,0,.34.64.64,0,0,0,.11.25.5.5,0,0,0,.21.16.87.87,0,0,0,.35.06h.6l.21,0v.68Z"/><path class="cls-5" d="M171.83,31.08V26.93a2.2,2.2,0,0,0-.41-1.44,1.54,1.54,0,0,0-1.25-.49,2,2,0,0,0-.87.18,1.91,1.91,0,0,0-.65.48,2.14,2.14,0,0,0-.4.71,2.66,2.66,0,0,0-.14.87v3.84h-.8V22h.8v3.66h0a1.89,1.89,0,0,1,.34-.56,2.12,2.12,0,0,1,.5-.42,2.43,2.43,0,0,1,.61-.26,2.46,2.46,0,0,1,.67-.09,3.35,3.35,0,0,1,1.08.16,1.83,1.83,0,0,1,.74.46,1.87,1.87,0,0,1,.43.77,3.79,3.79,0,0,1,.14,1.08v4.28Z"/><path class="cls-5" d="M177.38,24.33a2.71,2.71,0,0,1,1.3.29,2.6,2.6,0,0,1,.9.79,3.45,3.45,0,0,1,.52,1.13,5.21,5.21,0,0,1,.17,1.34V28h-5.05a3.58,3.58,0,0,0,.13.94,2.59,2.59,0,0,0,.39.83,2,2,0,0,0,.66.59,1.92,1.92,0,0,0,.95.22,2.44,2.44,0,0,0,.7-.09,2,2,0,0,0,.56-.26,1.76,1.76,0,0,0,.42-.39,2.41,2.41,0,0,0,.29-.49h.79a3,3,0,0,1-.38.79,2.48,2.48,0,0,1-.59.6,2.68,2.68,0,0,1-.79.39,3.34,3.34,0,0,1-1,.14A2.94,2.94,0,0,1,176,31a2.56,2.56,0,0,1-.91-.73,3.12,3.12,0,0,1-.54-1.1,5.14,5.14,0,0,1-.18-1.37,4.66,4.66,0,0,1,.18-1.28,3.36,3.36,0,0,1,.54-1.11,2.74,2.74,0,0,1,.92-.78A2.79,2.79,0,0,1,177.38,24.33Zm2.09,3a3,3,0,0,0-.16-.85,2.44,2.44,0,0,0-.41-.75,2.07,2.07,0,0,0-.65-.54,1.84,1.84,0,0,0-.88-.21,1.84,1.84,0,0,0-1.5.7,2.7,2.7,0,0,0-.42.75,4.31,4.31,0,0,0-.23.9Z"/><path class="cls-5" d="M191.16,22v9.08h-.74V29.83h0a2,2,0,0,1-.39.59,2.57,2.57,0,0,1-.56.45,2.8,2.8,0,0,1-.67.29,2.63,2.63,0,0,1-.72.1,2.8,2.8,0,0,1-1.28-.28,2.68,2.68,0,0,1-.92-.75,3.32,3.32,0,0,1-.56-1.11,4.68,4.68,0,0,1-.19-1.34,4.83,4.83,0,0,1,.17-1.29,3.31,3.31,0,0,1,.53-1.11,2.69,2.69,0,0,1,.92-.78,3,3,0,0,1,2-.2,2.56,2.56,0,0,1,.65.27,2.25,2.25,0,0,1,.54.45,2.07,2.07,0,0,1,.38.63h0V22Zm-5.26,5.8a4.17,4.17,0,0,0,.05.65,3.7,3.7,0,0,0,.16.64,2.82,2.82,0,0,0,.28.58,2.15,2.15,0,0,0,.41.48,1.8,1.8,0,0,0,.55.32,2,2,0,0,0,.7.12,2.08,2.08,0,0,0,1.73-.84,2.66,2.66,0,0,0,.43-.89,4,4,0,0,0,.14-1.06,4,4,0,0,0-.13-1,2.73,2.73,0,0,0-.41-.9,2.06,2.06,0,0,0-1.76-.88,1.94,1.94,0,0,0-.68.11,1.8,1.8,0,0,0-.54.31,2.15,2.15,0,0,0-.41.47,2.8,2.8,0,0,0-.29.58,3.52,3.52,0,0,0-.17.65A4.25,4.25,0,0,0,185.91,27.8Z"/><path class="cls-5" d="M199,31l-.27,0h-.24a1.37,1.37,0,0,1-.44-.06.65.65,0,0,1-.29-.2.82.82,0,0,1-.16-.35,2.43,2.43,0,0,1,0-.53h0a3,3,0,0,1-1,1,2.79,2.79,0,0,1-1.35.29,2.46,2.46,0,0,1-1.6-.5,1.75,1.75,0,0,1-.6-1.43,1.66,1.66,0,0,1,.66-1.43,6.79,6.79,0,0,1,3-.69,2,2,0,0,0,.44-.08.75.75,0,0,0,.29-.16.6.6,0,0,0,.16-.26,1.28,1.28,0,0,0,0-.38,1.24,1.24,0,0,0-.4-1,2,2,0,0,0-1.31-.34,2.61,2.61,0,0,0-.72.09,1.65,1.65,0,0,0-.53.25,1.13,1.13,0,0,0-.33.39,1.23,1.23,0,0,0-.13.49h-.8a2,2,0,0,1,.22-.78,1.78,1.78,0,0,1,.51-.59,2.43,2.43,0,0,1,.81-.38,4,4,0,0,1,1.09-.13,2.64,2.64,0,0,1,1.83.54,2,2,0,0,1,.59,1.52V30a.47.47,0,0,0,.11.33.46.46,0,0,0,.36.12.7.7,0,0,0,.25,0Zm-1.52-3.54h0q-.12.22-.77.31l-.67.1-.74.12a2.67,2.67,0,0,0-1.17.44,1,1,0,0,0-.39.84,1.16,1.16,0,0,0,.43.94,1.6,1.6,0,0,0,1,.35,2.36,2.36,0,0,0,1.63-.58,1.85,1.85,0,0,0,.65-1.44Z"/><path class="cls-5" d="M205.37,29.3a1.67,1.67,0,0,1-.22.88,1.89,1.89,0,0,1-.59.62,2.74,2.74,0,0,1-.84.36,4,4,0,0,1-1,.12,3.66,3.66,0,0,1-1.07-.14,2.4,2.4,0,0,1-.8-.41,2,2,0,0,1-.53-.64,2.4,2.4,0,0,1-.25-.85h.81a1.7,1.7,0,0,0,.2.56,1.41,1.41,0,0,0,.38.43,1.8,1.8,0,0,0,.57.28,2.56,2.56,0,0,0,.74.1,3,3,0,0,0,.6-.06,2.05,2.05,0,0,0,.58-.21,1.35,1.35,0,0,0,.44-.38,1,1,0,0,0,.18-.59.93.93,0,0,0-.34-.73,2.6,2.6,0,0,0-1.13-.46l-1-.22a4,4,0,0,1-.77-.24,2.1,2.1,0,0,1-.58-.37,1.46,1.46,0,0,1-.36-.5,1.62,1.62,0,0,1-.12-.65,1.57,1.57,0,0,1,.21-.83,1.78,1.78,0,0,1,.56-.57,2.53,2.53,0,0,1,.78-.33,3.77,3.77,0,0,1,.89-.11,3.27,3.27,0,0,1,.92.12,2.29,2.29,0,0,1,.73.35,1.83,1.83,0,0,1,.5.57,2.08,2.08,0,0,1,.25.78h-.8a1.32,1.32,0,0,0-.19-.5,1.24,1.24,0,0,0-.36-.37,1.69,1.69,0,0,0-.5-.22,2.36,2.36,0,0,0-.61-.08,2.85,2.85,0,0,0-.58.06,1.59,1.59,0,0,0-.51.19,1.07,1.07,0,0,0-.36.35,1,1,0,0,0-.13.53.74.74,0,0,0,.13.44,1.27,1.27,0,0,0,.33.32,1.93,1.93,0,0,0,.44.22,3.64,3.64,0,0,0,.46.13l1.37.3a2.85,2.85,0,0,1,.59.21,1.77,1.77,0,0,1,.5.35,1.64,1.64,0,0,1,.34.51A1.71,1.71,0,0,1,205.37,29.3Z"/><path class="cls-5" d="M211.65,31.08V26.93a2.2,2.2,0,0,0-.41-1.44A1.54,1.54,0,0,0,210,25a2,2,0,0,0-.87.18,1.91,1.91,0,0,0-.65.48,2.14,2.14,0,0,0-.4.71,2.66,2.66,0,0,0-.14.87v3.84h-.8V22h.8v3.66h0a1.89,1.89,0,0,1,.34-.56,2.12,2.12,0,0,1,.5-.42,2.43,2.43,0,0,1,.61-.26,2.46,2.46,0,0,1,.67-.09,3.35,3.35,0,0,1,1.08.16,1.83,1.83,0,0,1,.74.46,1.87,1.87,0,0,1,.43.77,3.79,3.79,0,0,1,.14,1.08v4.28Z"/><path class="cls-5" d="M220.68,27.8a4.77,4.77,0,0,1-.17,1.28,3.38,3.38,0,0,1-.53,1.11,2.69,2.69,0,0,1-.92.79,2.8,2.8,0,0,1-1.33.3,2.9,2.9,0,0,1-.72-.09,2.59,2.59,0,0,1-.66-.27,2.34,2.34,0,0,1-.55-.45,2.18,2.18,0,0,1-.4-.63h0v1.25h-.74V22h.8v3.77h0a2,2,0,0,1,.36-.61,2.25,2.25,0,0,1,.54-.45,2.5,2.5,0,0,1,.66-.28,3,3,0,0,1,2,.18,2.62,2.62,0,0,1,.91.75,3.34,3.34,0,0,1,.55,1.1A5,5,0,0,1,220.68,27.8Zm-.8,0a4.39,4.39,0,0,0,0-.65,3.54,3.54,0,0,0-.16-.64,2.89,2.89,0,0,0-.28-.59,2.08,2.08,0,0,0-.41-.48,1.83,1.83,0,0,0-.55-.32,2,2,0,0,0-.71-.12,2.05,2.05,0,0,0-1.73.85,2.72,2.72,0,0,0-.42.89,3.94,3.94,0,0,0-.14,1.06,4.21,4.21,0,0,0,.13,1,2.67,2.67,0,0,0,.4.9,2.08,2.08,0,0,0,.71.63,2.18,2.18,0,0,0,1.06.24,1.88,1.88,0,0,0,1-.23,2,2,0,0,0,.66-.63,2.9,2.9,0,0,0,.38-.89A4.91,4.91,0,0,0,219.88,27.8Z"/><path class="cls-5" d="M228.37,27.8a4.29,4.29,0,0,1-.2,1.31,3.31,3.31,0,0,1-.61,1.13,2.9,2.9,0,0,1-2.29,1,2.84,2.84,0,0,1-2.24-1,3.65,3.65,0,0,1-.86-2.5,3.65,3.65,0,0,1,.85-2.49,3.08,3.08,0,0,1,4.51,0A3.65,3.65,0,0,1,228.37,27.8Zm-.8,0a3.8,3.8,0,0,0-.13-1,2.81,2.81,0,0,0-.42-.9,2.25,2.25,0,0,0-.72-.65,2,2,0,0,0-1-.25,2,2,0,0,0-1,.24,2.24,2.24,0,0,0-.72.64,2.85,2.85,0,0,0-.44.9,3.66,3.66,0,0,0-.15,1,3.58,3.58,0,0,0,.14,1,3,3,0,0,0,.43.9,2.24,2.24,0,0,0,.71.65,2,2,0,0,0,1,.25,2,2,0,0,0,1-.24,2.33,2.33,0,0,0,.72-.63,2.8,2.8,0,0,0,.45-.89A3.54,3.54,0,0,0,227.56,27.8Z"/><path class="cls-5" d="M235.83,31l-.27,0h-.24a1.37,1.37,0,0,1-.44-.06.65.65,0,0,1-.29-.2.82.82,0,0,1-.16-.35,2.43,2.43,0,0,1,0-.53h0a3,3,0,0,1-1,1,2.79,2.79,0,0,1-1.35.29,2.46,2.46,0,0,1-1.6-.5,1.75,1.75,0,0,1-.6-1.43,1.66,1.66,0,0,1,.66-1.43,6.79,6.79,0,0,1,3-.69,2,2,0,0,0,.44-.08.75.75,0,0,0,.29-.16.6.6,0,0,0,.16-.26,1.28,1.28,0,0,0,0-.38,1.24,1.24,0,0,0-.4-1,2,2,0,0,0-1.31-.34,2.61,2.61,0,0,0-.72.09,1.65,1.65,0,0,0-.53.25,1.13,1.13,0,0,0-.33.39,1.23,1.23,0,0,0-.13.49h-.8a2,2,0,0,1,.22-.78,1.78,1.78,0,0,1,.51-.59,2.43,2.43,0,0,1,.81-.38,4,4,0,0,1,1.09-.13,2.64,2.64,0,0,1,1.83.54,2,2,0,0,1,.59,1.52V30a.47.47,0,0,0,.11.33.46.46,0,0,0,.36.12.7.7,0,0,0,.25,0Zm-1.52-3.54h0q-.12.22-.77.31l-.67.1-.74.12a2.67,2.67,0,0,0-1.17.44,1,1,0,0,0-.39.84,1.16,1.16,0,0,0,.43.94,1.6,1.6,0,0,0,1,.35,2.36,2.36,0,0,0,1.63-.58,1.85,1.85,0,0,0,.65-1.44Z"/><path class="cls-5" d="M237.27,31.08V24.52H238v1.54h0a2.56,2.56,0,0,1,.9-1.2,2.32,2.32,0,0,1,1.38-.43h.29v.8h-.18a2.22,2.22,0,0,0-1.71.69,2.36,2.36,0,0,0-.64,1.69v3.48Z"/><path class="cls-5" d="M247.47,22v9.08h-.74V29.83h0a2,2,0,0,1-.39.59,2.57,2.57,0,0,1-.56.45,2.8,2.8,0,0,1-.67.29,2.63,2.63,0,0,1-.72.1,2.8,2.8,0,0,1-1.28-.28,2.68,2.68,0,0,1-.92-.75,3.32,3.32,0,0,1-.56-1.11,4.68,4.68,0,0,1-.19-1.34,4.83,4.83,0,0,1,.17-1.29,3.31,3.31,0,0,1,.53-1.11,2.69,2.69,0,0,1,.92-.78,3,3,0,0,1,2-.2,2.56,2.56,0,0,1,.65.27,2.25,2.25,0,0,1,.54.45,2.07,2.07,0,0,1,.38.63h0V22Zm-5.26,5.8a4.17,4.17,0,0,0,.05.65,3.7,3.7,0,0,0,.16.64,2.82,2.82,0,0,0,.28.58,2.15,2.15,0,0,0,.41.48,1.8,1.8,0,0,0,.55.32,2,2,0,0,0,.7.12,2.08,2.08,0,0,0,1.73-.84,2.66,2.66,0,0,0,.43-.89,4,4,0,0,0,.14-1.06,4,4,0,0,0-.13-1,2.73,2.73,0,0,0-.41-.9,2.06,2.06,0,0,0-1.76-.88,1.94,1.94,0,0,0-.68.11,1.8,1.8,0,0,0-.54.31,2.15,2.15,0,0,0-.41.47,2.8,2.8,0,0,0-.29.58,3.52,3.52,0,0,0-.17.65A4.25,4.25,0,0,0,242.22,27.8Z"/><path class="cls-5" d="M251,29.81v1.27h-1.11V29.81Z"/><path class="cls-6" d="M23,19a8,8,0,1,0,8,8A8,8,0,0,0,23,19Zm-1,3h2v2H22Zm3,10H21V31h1V26H21V25h3v6h1Z"/></g></svg>