<svg xmlns="http://www.w3.org/2000/svg" viewBox="0 0 213 70"><defs><style>.cls-1{fill:#dcdcdc;}.cls-1,.cls-2{opacity:0.6;}.cls-3{fill:#bebebe;}.cls-4{fill:#464646;}.cls-5,.cls-6{fill:none;stroke-miterlimit:10;}.cls-5{stroke:#a0a0a0;}.cls-6{stroke:#f0f;stroke-width:0.5px;}.cls-7,.cls-8{fill:#f0f;}.cls-8{opacity:0.2;}</style></defs><title>Artboard 29</title><g id="Content"><rect class="cls-1" x="12" y="15" width="110" height="28"/><g class="cls-2"><path class="cls-3" d="M122,15V43H12V15H122m1-1H11V44H123V14Z"/></g><path class="cls-4" d="M26.48,23.93A3.81,3.81,0,0,1,29.33,25a4.36,4.36,0,0,1,1.07,3.17,4.48,4.48,0,0,1-1.05,3.21,3.71,3.71,0,0,1-2.82,1.11H23.05V23.93Zm-.17,7.3a2.49,2.49,0,0,0,1.89-.71,3.14,3.14,0,0,0,.69-2.23,3.35,3.35,0,0,0-.69-2.36,2.81,2.81,0,0,0-2.14-.73H24.55v6Z"/><path class="cls-4" d="M34.77,25.75a3,3,0,0,1,1.34.28,2.78,2.78,0,0,1,1,.77,3.33,3.33,0,0,1,.58,1.13,4.76,4.76,0,0,1,.19,1.37v.26H33a2.77,2.77,0,0,0,.13.81,1.9,1.9,0,0,0,.35.63,1.55,1.55,0,0,0,.54.41,1.7,1.7,0,0,0,.72.15,1.9,1.9,0,0,0,1-.23,1.7,1.7,0,0,0,.61-.6h1.37a3.06,3.06,0,0,1-.45.81,2.83,2.83,0,0,1-.66.62,3,3,0,0,1-.85.39,3.66,3.66,0,0,1-1,.13,3.28,3.28,0,0,1-1.33-.26,2.82,2.82,0,0,1-1-.72,3.18,3.18,0,0,1-.62-1.1,4.31,4.31,0,0,1-.22-1.4,4,4,0,0,1,.22-1.33,3.3,3.3,0,0,1,.63-1.1,3,3,0,0,1,1-.76A3.16,3.16,0,0,1,34.77,25.75ZM36.4,28.6a2.77,2.77,0,0,0-.16-.71,1.73,1.73,0,0,0-.33-.55,1.43,1.43,0,0,0-.5-.35A1.91,1.91,0,0,0,34,27a1.51,1.51,0,0,0-.52.36,1.79,1.79,0,0,0-.35.55,2.54,2.54,0,0,0-.17.7Z"/><path class="cls-4" d="M41.28,26.95V32.5H39.83V26.95H38.56v-1h1.28v-.51a2,2,0,0,1,.52-1.52,1.64,1.64,0,0,1,.63-.36,3,3,0,0,1,.9-.12h.43l.52,0v1.11l-.18,0-.2,0h-.34a.86.86,0,0,0-.65.2,1,1,0,0,0-.18.68v.51h1.44v1Z"/><path class="cls-4" d="M50,32.5l-.44.09-.39,0a1.79,1.79,0,0,1-.42,0,.91.91,0,0,1-.34-.16.84.84,0,0,1-.24-.29,1.28,1.28,0,0,1-.12-.45h0a2.67,2.67,0,0,1-.45.46,2.3,2.3,0,0,1-.52.31,3.32,3.32,0,0,1-1.31.24,2.42,2.42,0,0,1-1.62-.51,1.77,1.77,0,0,1-.6-1.45,1.7,1.7,0,0,1,.6-1.42,2.11,2.11,0,0,1,.58-.32,4.68,4.68,0,0,1,.73-.2q.39-.08.82-.13l.87-.1.34-.07a.8.8,0,0,0,.27-.13.59.59,0,0,0,.17-.22.79.79,0,0,0,.06-.33,1,1,0,0,0-.31-.79,2.11,2.11,0,0,0-2.05,0,1,1,0,0,0-.39.73H43.77a2,2,0,0,1,.28-.9,2,2,0,0,1,.62-.62,2.88,2.88,0,0,1,.9-.36,5.08,5.08,0,0,1,1.13-.12,3.42,3.42,0,0,1,2,.5,1.65,1.65,0,0,1,.67,1.41V31.2a.47.47,0,0,0,.08.3.33.33,0,0,0,.27.1h.12l.13,0Zm-2-3.35h0a1,1,0,0,1-.54.23l-.48.08-.65.11a2.2,2.2,0,0,0-1,.37.87.87,0,0,0-.32.72.89.89,0,0,0,.37.76,1.48,1.48,0,0,0,.87.24,1.79,1.79,0,0,0,1.27-.43A1.59,1.59,0,0,0,48,30Z"/><path class="cls-4" d="M55.87,32.5v-1h0a2.25,2.25,0,0,1-.39.52,2.3,2.3,0,0,1-.5.37,2.49,2.49,0,0,1-.58.23,2.54,2.54,0,0,1-.64.08,2.3,2.3,0,0,1-1.78-.63,2.81,2.81,0,0,1-.57-1.95V25.93h1.44v4a2.89,2.89,0,0,0,.08.7,1.37,1.37,0,0,0,.24.52,1,1,0,0,0,.42.32,1.82,1.82,0,0,0,1.36,0,1.37,1.37,0,0,0,.5-.43,1.86,1.86,0,0,0,.29-.66,3.72,3.72,0,0,0,.09-.85v-3.5h1.44V32.5Z"/><path class="cls-4" d="M60.63,23.42V32.5H59.19V23.42Z"/><path class="cls-4" d="M65.86,32.55H65a4.59,4.59,0,0,1-.74-.06,1.58,1.58,0,0,1-.6-.22,1.12,1.12,0,0,1-.4-.45,1.67,1.67,0,0,1-.15-.76V26.95H61.85v-1h1.29V24h1.45v2h1.5v1h-1.5v3.72a.83.83,0,0,0,.17.58.8.8,0,0,0,.59.18h.57l.17,0v1.14Z"/><path class="cls-4" d="M77.39,29.21a4.85,4.85,0,0,1-.17,1.28,3.47,3.47,0,0,1-.52,1.11,2.65,2.65,0,0,1-.88.79,2.51,2.51,0,0,1-1.25.3,2.93,2.93,0,0,1-1.36-.3,1.9,1.9,0,0,1-.86-.87h0v1H71V23.42h1.44v3.47h0a1.88,1.88,0,0,1,.36-.47,2.16,2.16,0,0,1,.5-.36,2.68,2.68,0,0,1,.61-.23,2.85,2.85,0,0,1,.68-.08,2.52,2.52,0,0,1,1.24.29,2.66,2.66,0,0,1,.88.78,3.4,3.4,0,0,1,.52,1.11A4.87,4.87,0,0,1,77.39,29.21Zm-1.45,0a3.74,3.74,0,0,0-.09-.82,2.52,2.52,0,0,0-.3-.76,1.71,1.71,0,0,0-.54-.56,1.5,1.5,0,0,0-.83-.22,1.57,1.57,0,0,0-.82.21,1.71,1.71,0,0,0-.56.54,2.39,2.39,0,0,0-.32.75,3.63,3.63,0,0,0-.1.86,3.68,3.68,0,0,0,.1.83,2.37,2.37,0,0,0,.31.76,1.76,1.76,0,0,0,.56.55,1.57,1.57,0,0,0,.84.21,1.49,1.49,0,0,0,.8-.21,1.69,1.69,0,0,0,.54-.54,2.43,2.43,0,0,0,.31-.75A3.94,3.94,0,0,0,75.95,29.22Z"/><path class="cls-4" d="M83.51,32.5v-1h0a2.25,2.25,0,0,1-.39.52,2.3,2.3,0,0,1-.5.37,2.49,2.49,0,0,1-.58.23,2.54,2.54,0,0,1-.64.08,2.3,2.3,0,0,1-1.78-.63A2.81,2.81,0,0,1,79,30.12V25.93h1.44v4a2.89,2.89,0,0,0,.08.7,1.37,1.37,0,0,0,.24.52,1,1,0,0,0,.42.32,1.82,1.82,0,0,0,1.36,0,1.37,1.37,0,0,0,.5-.43,1.86,1.86,0,0,0,.29-.66,3.72,3.72,0,0,0,.09-.85v-3.5h1.44V32.5Z"/><path class="cls-4" d="M90,32.55h-.83a4.59,4.59,0,0,1-.74-.06,1.58,1.58,0,0,1-.6-.22,1.12,1.12,0,0,1-.4-.45,1.67,1.67,0,0,1-.15-.76V26.95H86v-1h1.29V24h1.45v2h1.5v1h-1.5v3.72a.83.83,0,0,0,.17.58.8.8,0,0,0,.59.18h.57l.17,0v1.14Z"/><path class="cls-4" d="M94.94,32.55h-.83a4.59,4.59,0,0,1-.74-.06,1.58,1.58,0,0,1-.6-.22,1.12,1.12,0,0,1-.4-.45,1.67,1.67,0,0,1-.15-.76V26.95H90.94v-1h1.29V24h1.45v2h1.5v1h-1.5v3.72a.83.83,0,0,0,.17.58.8.8,0,0,0,.59.18H95l.17,0v1.14Z"/><path class="cls-4" d="M102.8,29.22a4.09,4.09,0,0,1-.23,1.38,3.1,3.1,0,0,1-.68,1.11,3,3,0,0,1-1,.73,3.49,3.49,0,0,1-1.36.25,3.12,3.12,0,0,1-2.38-1,3.94,3.94,0,0,1,0-5,3.1,3.1,0,0,1,2.39-1,3.15,3.15,0,0,1,2.4,1A3.54,3.54,0,0,1,102.8,29.22Zm-1.45,0a3.59,3.59,0,0,0-.11-.92,2.21,2.21,0,0,0-.35-.75,1.68,1.68,0,0,0-.58-.5,1.75,1.75,0,0,0-.83-.18,1.71,1.71,0,0,0-.77.17,1.62,1.62,0,0,0-.57.48,2.23,2.23,0,0,0-.36.74,3.79,3.79,0,0,0,0,1.9,2.19,2.19,0,0,0,.35.74,1.67,1.67,0,0,0,.58.49,1.7,1.7,0,0,0,.79.18,1.72,1.72,0,0,0,.79-.18,1.68,1.68,0,0,0,.58-.49,2.24,2.24,0,0,0,.36-.74A3.41,3.41,0,0,0,101.36,29.22Z"/><path class="cls-4" d="M107.88,25.75a3.25,3.25,0,0,1,1.1.16,1.8,1.8,0,0,1,.74.49,2,2,0,0,1,.42.81,4.28,4.28,0,0,1,.13,1.12V32.5h-1.44V28.6a2.11,2.11,0,0,0-.32-1.27,1.19,1.19,0,0,0-1-.43,1.48,1.48,0,0,0-1.23.52,2.28,2.28,0,0,0-.41,1.45V32.5h-1.44V25.93h1.38v1h0a2.14,2.14,0,0,1,.37-.5,2.24,2.24,0,0,1,.48-.37,2.34,2.34,0,0,1,.57-.23A2.51,2.51,0,0,1,107.88,25.75Z"/><line class="cls-5" x1="11" y1="43.5" x2="123" y2="43.5"/><line class="cls-6" x1="11.25" y1="50" x2="22.75" y2="50"/><rect class="cls-7" x="11" y="48.38" width="0.5" height="3.25"/><rect class="cls-7" x="22.5" y="48.38" width="0.5" height="3.25"/><line class="cls-6" x1="111.25" y1="50" x2="122.75" y2="50"/><rect class="cls-7" x="111" y="48.38" width="0.5" height="3.25"/><rect class="cls-7" x="122.5" y="48.38" width="0.5" height="3.25"/><line class="cls-6" x1="129.33" y1="35.25" x2="129.33" y2="23.75"/><rect class="cls-7" x="127.71" y="35" width="3.25" height="0.5"/><rect class="cls-7" x="127.71" y="23.5" width="3.25" height="0.5"/><path class="cls-7" d="M111,60.05V55.77h-1.52V55.4l.6,0a1.59,1.59,0,0,0,.38-.08.87.87,0,0,0,.43-.35,1.64,1.64,0,0,0,.21-.65h.42v5.77Z"/><path class="cls-7" d="M115.79,54.24a1.88,1.88,0,0,1,1.3.44,1.52,1.52,0,0,1,.49,1.19,1.88,1.88,0,0,1-.37,1.11,4.63,4.63,0,0,1-1.34,1.11,5.55,5.55,0,0,0-1.11.82,1.33,1.33,0,0,0-.37.68h3.21v.48h-3.8a2,2,0,0,1,.37-1.16,4.41,4.41,0,0,1,1.29-1.11,5.84,5.84,0,0,0,1.26-1,1.4,1.4,0,0,0,.34-.94,1.09,1.09,0,0,0-.36-.85,1.34,1.34,0,0,0-.93-.33,1.36,1.36,0,0,0-.57.11,1.21,1.21,0,0,0-.4.29,1.18,1.18,0,0,0-.24.41,1.46,1.46,0,0,0-.08.47v.11H114V56a2,2,0,0,1,.11-.65,1.61,1.61,0,0,1,.34-.56,1.64,1.64,0,0,1,.57-.39A2,2,0,0,1,115.79,54.24Z"/><path class="cls-7" d="M123,57.86a3.19,3.19,0,0,1-.12.85,2.25,2.25,0,0,1-.36.74,1.79,1.79,0,0,1-.61.52,1.85,1.85,0,0,1-.88.2,1.89,1.89,0,0,1-.47-.06,1.62,1.62,0,0,1-.43-.18,1.52,1.52,0,0,1-.36-.3,1.47,1.47,0,0,1-.26-.42h0v2.45h-.54v-6h.5v.83h0a1.49,1.49,0,0,1,.26-.41,1.53,1.53,0,0,1,.37-.3,1.77,1.77,0,0,1,.44-.19,1.87,1.87,0,0,1,.49-.06,1.91,1.91,0,0,1,.86.18,1.76,1.76,0,0,1,.62.5,2.22,2.22,0,0,1,.37.74A3.11,3.11,0,0,1,123,57.86Zm-.54,0a3,3,0,0,0-.07-.65,1.89,1.89,0,0,0-.24-.6,1.38,1.38,0,0,0-.45-.44A1.27,1.27,0,0,0,121,56a1.39,1.39,0,0,0-1.13.47,2.14,2.14,0,0,0-.39,1.4,2.79,2.79,0,0,0,.08.69,1.79,1.79,0,0,0,.27.6,1.39,1.39,0,0,0,.48.42,1.45,1.45,0,0,0,.71.16,1.25,1.25,0,0,0,.64-.16,1.35,1.35,0,0,0,.45-.42,1.91,1.91,0,0,0,.26-.6A2.77,2.77,0,0,0,122.44,57.86Z"/><path class="cls-7" d="M124.44,55.68l1.25,1.66,1.22-1.66h.67L126,57.77l1.71,2.28H127l-1.37-1.84-1.34,1.84h-.66l1.7-2.27-1.57-2.1Z"/><path class="cls-7" d="M136.15,32.5V28.21h-1.52v-.37l.6,0a1.59,1.59,0,0,0,.38-.08.87.87,0,0,0,.43-.35,1.64,1.64,0,0,0,.21-.65h.42V32.5Z"/><path class="cls-7" d="M141,26.68a1.88,1.88,0,0,1,1.3.44,1.52,1.52,0,0,1,.49,1.19,1.88,1.88,0,0,1-.37,1.11A4.63,4.63,0,0,1,141,30.52a5.55,5.55,0,0,0-1.11.82,1.33,1.33,0,0,0-.37.68h3.21v.48H139a2,2,0,0,1,.37-1.16,4.41,4.41,0,0,1,1.29-1.11,5.84,5.84,0,0,0,1.26-1,1.4,1.4,0,0,0,.34-.94,1.09,1.09,0,0,0-.36-.85,1.34,1.34,0,0,0-.93-.33,1.36,1.36,0,0,0-.57.11,1.21,1.21,0,0,0-.4.29,1.18,1.18,0,0,0-.24.41,1.46,1.46,0,0,0-.08.47v.11h-.52v-.08a2,2,0,0,1,.11-.65,1.61,1.61,0,0,1,.34-.56,1.64,1.64,0,0,1,.57-.39A2,2,0,0,1,141,26.68Z"/><path class="cls-7" d="M148.14,30.31a3.19,3.19,0,0,1-.12.85,2.25,2.25,0,0,1-.36.74,1.79,1.79,0,0,1-.61.52,1.85,1.85,0,0,1-.88.2,1.89,1.89,0,0,1-.47-.06,1.62,1.62,0,0,1-.43-.18,1.52,1.52,0,0,1-.36-.3,1.47,1.47,0,0,1-.26-.42h0v2.45h-.54v-6h.5V29h0a1.49,1.49,0,0,1,.26-.41,1.53,1.53,0,0,1,.37-.3,1.77,1.77,0,0,1,.44-.19,1.87,1.87,0,0,1,.49-.06,1.91,1.91,0,0,1,.86.18,1.76,1.76,0,0,1,.62.5,2.22,2.22,0,0,1,.37.74A3.11,3.11,0,0,1,148.14,30.31Zm-.54,0a3,3,0,0,0-.07-.65,1.89,1.89,0,0,0-.24-.6,1.38,1.38,0,0,0-.45-.44,1.27,1.27,0,0,0-.68-.17,1.39,1.39,0,0,0-1.13.47,2.14,2.14,0,0,0-.39,1.4,2.79,2.79,0,0,0,.08.69,1.79,1.79,0,0,0,.27.6,1.39,1.39,0,0,0,.48.42,1.45,1.45,0,0,0,.71.16,1.25,1.25,0,0,0,.64-.16,1.35,1.35,0,0,0,.45-.42,1.91,1.91,0,0,0,.26-.6A2.77,2.77,0,0,0,147.61,30.31Z"/><path class="cls-7" d="M149.6,28.13l1.25,1.66,1.22-1.66h.67l-1.58,2.09,1.71,2.28h-.68l-1.37-1.84-1.34,1.84h-.66l1.7-2.27-1.57-2.1Z"/><path class="cls-7" d="M154.61,31.65v.88a1.18,1.18,0,0,1-.2.65,1,1,0,0,1-.24.26,1,1,0,0,1-.33.15v-.34a.58.58,0,0,0,.3-.28.88.88,0,0,0,.11-.43v0h-.37v-.85Z"/><path class="cls-7" d="M164,32.5v-3a1.15,1.15,0,0,0-.25-.82,1.23,1.23,0,0,0-1.67.14,1.86,1.86,0,0,0-.3,1.14V32.5h-.54v-3a1.21,1.21,0,0,0-.23-.78.83.83,0,0,0-.69-.28,1.15,1.15,0,0,0-1,.43,1.82,1.82,0,0,0-.33,1.14V32.5h-.54V28.13h.5v.73h0a1.51,1.51,0,0,1,1.43-.86,1.64,1.64,0,0,1,.43.05,1.24,1.24,0,0,1,.36.16,1.1,1.1,0,0,1,.28.27,1.24,1.24,0,0,1,.18.37,1.44,1.44,0,0,1,.57-.64,1.6,1.6,0,0,1,.83-.21,1.41,1.41,0,0,1,1.09.39,1.57,1.57,0,0,1,.36,1.11v3Z"/><path class="cls-7" d="M167.75,28a1.81,1.81,0,0,1,.87.2,1.73,1.73,0,0,1,.6.52,2.3,2.3,0,0,1,.35.76,3.47,3.47,0,0,1,.11.89v.09H166.3a2.38,2.38,0,0,0,.08.63,1.73,1.73,0,0,0,.26.55,1.32,1.32,0,0,0,.44.39,1.28,1.28,0,0,0,.63.15,1.61,1.61,0,0,0,.47-.06,1.35,1.35,0,0,0,.37-.17,1.17,1.17,0,0,0,.28-.26,1.63,1.63,0,0,0,.19-.33h.52a2,2,0,0,1-.26.52,1.65,1.65,0,0,1-.39.4,1.8,1.8,0,0,1-.52.26,2.21,2.21,0,0,1-.66.09,2,2,0,0,1-.87-.18,1.7,1.7,0,0,1-.61-.49,2.08,2.08,0,0,1-.36-.73,3.42,3.42,0,0,1-.12-.92,3.1,3.1,0,0,1,.12-.86,2.25,2.25,0,0,1,.36-.74,1.83,1.83,0,0,1,.62-.52A1.86,1.86,0,0,1,167.75,28Zm1.39,2a2,2,0,0,0-.11-.56,1.62,1.62,0,0,0-.27-.5,1.38,1.38,0,0,0-.43-.36,1.23,1.23,0,0,0-.59-.14,1.23,1.23,0,0,0-1,.46,1.82,1.82,0,0,0-.28.5,2.86,2.86,0,0,0-.15.6Z"/><path class="cls-7" d="M174.61,26.45V32.5h-.49v-.83h0a1.36,1.36,0,0,1-.26.4,1.72,1.72,0,0,1-.37.3,1.89,1.89,0,0,1-.45.19,1.74,1.74,0,0,1-.48.07,1.86,1.86,0,0,1-.85-.19,1.79,1.79,0,0,1-.61-.5,2.22,2.22,0,0,1-.37-.74,3.11,3.11,0,0,1-.12-.89,3.23,3.23,0,0,1,.12-.86,2.21,2.21,0,0,1,.36-.74,1.79,1.79,0,0,1,.61-.52,2,2,0,0,1,1.35-.13,1.71,1.71,0,0,1,.44.18,1.49,1.49,0,0,1,.36.3,1.38,1.38,0,0,1,.25.42h0V26.45Zm-3.5,3.87a2.78,2.78,0,0,0,0,.43,2.45,2.45,0,0,0,.11.43,1.9,1.9,0,0,0,.19.39,1.42,1.42,0,0,0,.27.32,1.2,1.2,0,0,0,.37.21,1.32,1.32,0,0,0,.46.08,1.43,1.43,0,0,0,.68-.15,1.41,1.41,0,0,0,.48-.41A1.77,1.77,0,0,0,174,31a2.64,2.64,0,0,0,.09-.71,2.69,2.69,0,0,0-.09-.68,1.82,1.82,0,0,0-.28-.6,1.37,1.37,0,0,0-1.18-.58,1.29,1.29,0,0,0-.45.07,1.2,1.2,0,0,0-.36.21,1.45,1.45,0,0,0-.28.31,1.87,1.87,0,0,0-.19.38,2.35,2.35,0,0,0-.11.44A2.81,2.81,0,0,0,171.1,30.31Z"/><path class="cls-7" d="M176.62,26.21v.86h-.54v-.86Zm0,1.91V32.5h-.54V28.13Z"/><path class="cls-7" d="M181.15,32.5v-.79h0a1.64,1.64,0,0,1-.26.38,1.56,1.56,0,0,1-.35.29,1.66,1.66,0,0,1-.42.18,1.81,1.81,0,0,1-.48.06,1.48,1.48,0,0,1-1.16-.42,1.76,1.76,0,0,1-.37-1.21V28.13h.54V31a1.77,1.77,0,0,0,.07.51,1,1,0,0,0,.21.38.9.9,0,0,0,.36.23,1.55,1.55,0,0,0,.53.08,1.13,1.13,0,0,0,.59-.15,1.28,1.28,0,0,0,.41-.39,1.75,1.75,0,0,0,.24-.55,2.6,2.6,0,0,0,.08-.62V28.13h.54V32.5Z"/><path class="cls-7" d="M188.6,32.5v-3a1.15,1.15,0,0,0-.25-.82,1.23,1.23,0,0,0-1.67.14,1.86,1.86,0,0,0-.3,1.14V32.5h-.54v-3a1.21,1.21,0,0,0-.23-.78.83.83,0,0,0-.69-.28,1.15,1.15,0,0,0-1,.43,1.82,1.82,0,0,0-.33,1.14V32.5h-.54V28.13h.5v.73h0A1.51,1.51,0,0,1,185,28a1.64,1.64,0,0,1,.43.05,1.24,1.24,0,0,1,.36.16,1.1,1.1,0,0,1,.28.27,1.24,1.24,0,0,1,.18.37,1.44,1.44,0,0,1,.57-.64,1.6,1.6,0,0,1,.83-.21,1.41,1.41,0,0,1,1.09.39,1.57,1.57,0,0,1,.36,1.11v3Z"/><path class="cls-7" d="M194.69,32.54h-.44a2,2,0,0,1-.45,0,.64.64,0,0,1-.3-.15.59.59,0,0,1-.16-.29,1.76,1.76,0,0,1,0-.45v-3h-.88v-.45h.88V26.81h.54v1.31h1v.45h-1v3a1.16,1.16,0,0,0,0,.22.43.43,0,0,0,.07.17.33.33,0,0,0,.14.11.58.58,0,0,0,.23,0h.54v.45Z"/><path class="cls-7" d="M197.71,28a1.81,1.81,0,0,1,.87.2,1.73,1.73,0,0,1,.6.52,2.3,2.3,0,0,1,.35.76,3.47,3.47,0,0,1,.11.89v.09h-3.37a2.38,2.38,0,0,0,.08.63,1.73,1.73,0,0,0,.26.55,1.32,1.32,0,0,0,.44.39,1.28,1.28,0,0,0,.63.15,1.61,1.61,0,0,0,.47-.06,1.35,1.35,0,0,0,.37-.17,1.17,1.17,0,0,0,.28-.26,1.63,1.63,0,0,0,.19-.33h.52a2,2,0,0,1-.26.52,1.65,1.65,0,0,1-.39.4,1.8,1.8,0,0,1-.52.26,2.21,2.21,0,0,1-.66.09,2,2,0,0,1-.87-.18,1.7,1.7,0,0,1-.61-.49,2.08,2.08,0,0,1-.36-.73,3.42,3.42,0,0,1-.12-.92,3.1,3.1,0,0,1,.12-.86,2.25,2.25,0,0,1,.36-.74,1.83,1.83,0,0,1,.62-.52A1.86,1.86,0,0,1,197.71,28Zm1.39,2a2,2,0,0,0-.11-.56,1.62,1.62,0,0,0-.27-.5,1.38,1.38,0,0,0-.43-.36,1.23,1.23,0,0,0-.59-.14,1.23,1.23,0,0,0-1,.46,1.82,1.82,0,0,0-.28.5,2.86,2.86,0,0,0-.15.6Z"/><path class="cls-7" d="M201,28.13l1.25,1.66,1.22-1.66h.67l-1.58,2.09,1.71,2.28h-.68l-1.37-1.84-1.34,1.84h-.66l1.7-2.27-1.57-2.1Z"/><path class="cls-7" d="M206.86,32.54h-.44a2,2,0,0,1-.45,0,.64.64,0,0,1-.3-.15.59.59,0,0,1-.16-.29,1.76,1.76,0,0,1,0-.45v-3h-.88v-.45h.88V26.81H206v1.31h1v.45h-1v3a1.16,1.16,0,0,0,0,.22.43.43,0,0,0,.07.17.33.33,0,0,0,.14.11.58.58,0,0,0,.23,0H207v.45Z"/><path class="cls-7" d="M10.29,60.05V55.77H8.77V55.4l.6,0a1.59,1.59,0,0,0,.38-.08.87.87,0,0,0,.43-.35,1.64,1.64,0,0,0,.21-.65h.42v5.77Z"/><path class="cls-7" d="M15.09,54.24a1.88,1.88,0,0,1,1.3.44,1.52,1.52,0,0,1,.49,1.19A1.88,1.88,0,0,1,16.51,57a4.63,4.63,0,0,1-1.34,1.11,5.55,5.55,0,0,0-1.11.82,1.33,1.33,0,0,0-.37.68h3.21v.48h-3.8a2,2,0,0,1,.37-1.16,4.41,4.41,0,0,1,1.29-1.11,5.84,5.84,0,0,0,1.26-1,1.4,1.4,0,0,0,.34-.94A1.09,1.09,0,0,0,16,55a1.34,1.34,0,0,0-.93-.33,1.36,1.36,0,0,0-.57.11,1.21,1.21,0,0,0-.4.29,1.18,1.18,0,0,0-.24.41,1.46,1.46,0,0,0-.08.47v.11h-.52V56a2,2,0,0,1,.11-.65,1.61,1.61,0,0,1,.34-.56,1.64,1.64,0,0,1,.57-.39A2,2,0,0,1,15.09,54.24Z"/><path class="cls-7" d="M22.28,57.86a3.19,3.19,0,0,1-.12.85,2.25,2.25,0,0,1-.36.74,1.79,1.79,0,0,1-.61.52,1.85,1.85,0,0,1-.88.2,1.89,1.89,0,0,1-.47-.06,1.62,1.62,0,0,1-.43-.18,1.52,1.52,0,0,1-.36-.3,1.47,1.47,0,0,1-.26-.42h0v2.45h-.54v-6h.5v.83h0A1.49,1.49,0,0,1,19,56.1a1.53,1.53,0,0,1,.37-.3,1.77,1.77,0,0,1,.44-.19,1.87,1.87,0,0,1,.49-.06,1.91,1.91,0,0,1,.86.18,1.76,1.76,0,0,1,.62.5,2.22,2.22,0,0,1,.37.74A3.11,3.11,0,0,1,22.28,57.86Zm-.54,0a3,3,0,0,0-.07-.65,1.89,1.89,0,0,0-.24-.6,1.38,1.38,0,0,0-.45-.44A1.27,1.27,0,0,0,20.3,56a1.39,1.39,0,0,0-1.13.47,2.14,2.14,0,0,0-.39,1.4,2.79,2.79,0,0,0,.08.69,1.79,1.79,0,0,0,.27.6,1.39,1.39,0,0,0,.48.42,1.45,1.45,0,0,0,.71.16,1.25,1.25,0,0,0,.64-.16,1.35,1.35,0,0,0,.45-.42,1.91,1.91,0,0,0,.26-.6A2.77,2.77,0,0,0,21.75,57.86Z"/><path class="cls-7" d="M23.74,55.68,25,57.34l1.22-1.66h.67L25.3,57.77,27,60.05h-.68L25,58.21l-1.34,1.84h-.66l1.7-2.27-1.57-2.1Z"/><rect class="cls-8" x="11" y="14" width="12" height="30"/><rect class="cls-8" x="111" y="14" width="12" height="30"/></g></svg>