<svg xmlns="http://www.w3.org/2000/svg" viewBox="0 0 329 130"><defs><style>.cls-1{fill:#787878;}.cls-2{fill:#0aaeff;}.cls-3{fill:#e6e6e6;}</style></defs><title>Artboard 79</title><g id="Not_in_use" data-name="Not in use"><path class="cls-1" d="M32,22.26a4.68,4.68,0,0,1-1.39,3.6A5.09,5.09,0,0,1,27,27.15H20.89v7.35H19.25V17.36H27a5.06,5.06,0,0,1,3.6,1.3A4.66,4.66,0,0,1,32,22.26Zm-1.63,0a3.35,3.35,0,0,0-1-2.58,4.23,4.23,0,0,0-3-.92H20.89v7H26.6a3.94,3.94,0,0,0,2.7-.9A3.29,3.29,0,0,0,30.32,22.26Z"/><path class="cls-1" d="M45.73,34.4a4.84,4.84,0,0,1-.53.08l-.49,0a2.74,2.74,0,0,1-.88-.12,1.31,1.31,0,0,1-.59-.39,1.64,1.64,0,0,1-.33-.71,4.87,4.87,0,0,1-.1-1.06h-.06a6.1,6.1,0,0,1-2.06,2.09,5.58,5.58,0,0,1-2.71.59,4.93,4.93,0,0,1-3.2-1A3.5,3.5,0,0,1,33.58,31a3.32,3.32,0,0,1,1.31-2.86q1.34-1,5.92-1.37a4,4,0,0,0,.88-.16,1.5,1.5,0,0,0,.57-.32,1.2,1.2,0,0,0,.32-.52,2.56,2.56,0,0,0,.1-.76,2.49,2.49,0,0,0-.81-2,4,4,0,0,0-2.62-.69,5.22,5.22,0,0,0-1.45.18,3.3,3.3,0,0,0-1.06.5,2.25,2.25,0,0,0-.67.77,2.45,2.45,0,0,0-.27,1H34.2a4,4,0,0,1,.44-1.55,3.55,3.55,0,0,1,1-1.19,4.86,4.86,0,0,1,1.61-.76A8.06,8.06,0,0,1,39.46,21a5.29,5.29,0,0,1,3.66,1.07,3.91,3.91,0,0,1,1.17,3v7.12a.94.94,0,0,0,.22.66.92.92,0,0,0,.71.25,1.4,1.4,0,0,0,.5-.09Zm-3-7.09h0q-.23.45-1.54.62l-1.33.2-1.47.25a5.34,5.34,0,0,0-2.33.87,2,2,0,0,0-.79,1.68,2.32,2.32,0,0,0,.87,1.89,3.2,3.2,0,0,0,2.06.7,4.73,4.73,0,0,0,3.27-1.16,3.71,3.71,0,0,0,1.3-2.88Z"/><path class="cls-1" d="M50.25,15.63v2.58H48.64V15.63Zm0,5.74V34.49H48.64V21.37Z"/><path class="cls-1" d="M54.66,34.49V21.37h1.49v3.07h0A5.12,5.12,0,0,1,58,22a4.64,4.64,0,0,1,2.75-.86h.57v1.59H61a4.44,4.44,0,0,0-3.41,1.37,4.72,4.72,0,0,0-1.29,3.38v7Z"/><path class="cls-1" d="M65.57,15.63v2.58H64V15.63Zm0,5.74V34.49H64V21.37Z"/><path class="cls-1" d="M75.83,21A6.69,6.69,0,0,1,78,21.3a3.66,3.66,0,0,1,1.49.93,3.74,3.74,0,0,1,.86,1.54,7.59,7.59,0,0,1,.28,2.16v8.57H79V26.2a4.4,4.4,0,0,0-.82-2.89,3.09,3.09,0,0,0-2.51-1,4.13,4.13,0,0,0-1.72.35,3.75,3.75,0,0,0-1.3,1,4.32,4.32,0,0,0-.82,1.42,5.27,5.27,0,0,0-.29,1.76v7.68H70V21.37h1.61v2.27h0a4,4,0,0,1,.69-1.11,4.35,4.35,0,0,1,1-.83,4.66,4.66,0,0,1,1.2-.52A5,5,0,0,1,75.83,21Z"/><path class="cls-1" d="M90.1,21a4.59,4.59,0,0,1,1.28.18,4.61,4.61,0,0,1,2.16,1.35,4.53,4.53,0,0,1,.74,1.11h0V21.37h1.61v12.2a6.54,6.54,0,0,1-1.45,4.59,5.75,5.75,0,0,1-4.43,1.57,9.08,9.08,0,0,1-1.85-.19,5.41,5.41,0,0,1-1.63-.61,3.76,3.76,0,0,1-1.2-1.1,3.37,3.37,0,0,1-.57-1.65h1.61a2.48,2.48,0,0,0,1.12,1.63,4.66,4.66,0,0,0,2.5.56,4.09,4.09,0,0,0,3.22-1.21,5.32,5.32,0,0,0,1.08-3.63V31.19h0a5.07,5.07,0,0,1-.75,1.14,4.56,4.56,0,0,1-1,.86,4.69,4.69,0,0,1-1.2.54,4.8,4.8,0,0,1-1.35.19,6.32,6.32,0,0,1-2.57-.48,4.87,4.87,0,0,1-1.81-1.35A5.7,5.7,0,0,1,84.54,30a9.28,9.28,0,0,1-.35-2.62A7.91,7.91,0,0,1,84.56,25a5.9,5.9,0,0,1,1.13-2,5.48,5.48,0,0,1,1.85-1.4A5.94,5.94,0,0,1,90.1,21Zm-4.31,6.57A7,7,0,0,0,86,29.48a4.58,4.58,0,0,0,.77,1.59,3.75,3.75,0,0,0,1.33,1.09,4.25,4.25,0,0,0,1.92.4,3.81,3.81,0,0,0,1.83-.43A4.21,4.21,0,0,0,93.21,31a5.07,5.07,0,0,0,.83-1.6,6.07,6.07,0,0,0,.29-1.85,7.44,7.44,0,0,0-.24-1.85A5.33,5.33,0,0,0,93.34,24,4.07,4.07,0,0,0,92,22.8a3.75,3.75,0,0,0-1.94-.47,3.89,3.89,0,0,0-1.92.45,4,4,0,0,0-1.33,1.17,5.1,5.1,0,0,0-.79,1.68A7.74,7.74,0,0,0,85.79,27.57Z"/><path class="cls-1" d="M102.93,32v2.54h-2.23V32Z"/><path class="cls-1" d="M110.3,32v2.54h-2.23V32Z"/><path class="cls-1" d="M117.68,32v2.54h-2.23V32Z"/><rect class="cls-2" x="19" y="62" width="12" height="31"/><rect class="cls-2" x="35" y="62" width="12" height="31"/><rect class="cls-2" x="51" y="62" width="12" height="31"/><rect class="cls-3" x="67" y="62" width="12" height="31"/><rect class="cls-3" x="83" y="62" width="12" height="31"/><rect class="cls-3" x="99" y="62" width="12" height="31"/><rect class="cls-3" x="115" y="62" width="12" height="31"/><rect class="cls-3" x="131" y="62" width="12" height="31"/><rect class="cls-3" x="147" y="62" width="12" height="31"/><rect class="cls-3" x="163" y="62" width="12" height="31"/><rect class="cls-3" x="179" y="62" width="12" height="31"/><rect class="cls-3" x="195" y="62" width="12" height="31"/><rect class="cls-3" x="211" y="62" width="12" height="31"/><rect class="cls-3" x="227" y="62" width="12" height="31"/><rect class="cls-3" x="243" y="62" width="12" height="31"/><rect class="cls-3" x="259" y="62" width="12" height="31"/><rect class="cls-3" x="274" y="62" width="12" height="31"/><rect class="cls-3" x="290" y="62" width="12" height="31"/></g></svg>