<svg xmlns="http://www.w3.org/2000/svg" viewBox="0 0 143 67"><defs><style>.cls-1{fill:#dcdcdc;}.cls-1,.cls-2{opacity:0.6;}.cls-3{fill:#bebebe;}.cls-4,.cls-5,.cls-6,.cls-7{fill:none;stroke-miterlimit:10;}.cls-4{stroke:#a0a0a0;}.cls-5,.cls-6,.cls-7{stroke:#f0f;stroke-width:0.5px;}.cls-6{stroke-dasharray:2.05 3.07;}.cls-7{stroke-dasharray:1.97 2.96;}.cls-8{fill:#464646;}</style></defs><title>Artboard 30</title><g id="Content"><rect class="cls-1" x="16" y="21" width="110" height="28"/><g class="cls-2"><path class="cls-3" d="M126,21V49H16V21H126m1-1H15V50H127V20Z"/></g><line class="cls-4" x1="15" y1="49.5" x2="127" y2="49.5"/><line class="cls-5" x1="71.02" y1="12" x2="71.02" y2="13"/><line class="cls-6" x1="71.02" y1="16.07" x2="71.02" y2="55.47"/><line class="cls-5" x1="71.02" y1="57" x2="71.02" y2="58"/><line class="cls-5" x1="4.35" y1="35" x2="5.35" y2="35"/><line class="cls-7" x1="8.31" y1="35" x2="135.21" y2="35"/><line class="cls-5" x1="136.69" y1="35" x2="137.69" y2="35"/><path class="cls-8" d="M51.11,29.93V31.2H48.39v7.3H46.89V31.2H44.17V29.93Z"/><path class="cls-8" d="M53.82,31.75a3,3,0,0,1,1.34.28,2.78,2.78,0,0,1,1,.77,3.33,3.33,0,0,1,.58,1.13,4.76,4.76,0,0,1,.19,1.37v.26H52a2.77,2.77,0,0,0,.13.81,1.9,1.9,0,0,0,.35.63,1.55,1.55,0,0,0,.54.41,1.7,1.7,0,0,0,.72.15,1.9,1.9,0,0,0,1-.23,1.7,1.7,0,0,0,.61-.6h1.37a3.06,3.06,0,0,1-.45.81,2.83,2.83,0,0,1-.66.62,3,3,0,0,1-.85.39,3.66,3.66,0,0,1-1,.13,3.28,3.28,0,0,1-1.33-.26,2.82,2.82,0,0,1-1-.72,3.18,3.18,0,0,1-.62-1.1,4.31,4.31,0,0,1-.22-1.4,4,4,0,0,1,.22-1.33,3.3,3.3,0,0,1,.63-1.1,3,3,0,0,1,1-.76A3.16,3.16,0,0,1,53.82,31.75Zm1.63,2.85a2.77,2.77,0,0,0-.16-.71,1.73,1.73,0,0,0-.33-.55,1.43,1.43,0,0,0-.5-.35,1.91,1.91,0,0,0-1.37,0,1.51,1.51,0,0,0-.52.36,1.79,1.79,0,0,0-.35.55,2.54,2.54,0,0,0-.17.7Z"/><path class="cls-8" d="M59.26,31.93l1.41,2,1.39-2H63.7L61.47,35l2.47,3.47H62.25l-1.62-2.32L59,38.5H57.37l2.43-3.44-2.23-3.13Z"/><path class="cls-8" d="M68.3,38.55h-.83a4.59,4.59,0,0,1-.74-.06,1.58,1.58,0,0,1-.6-.22,1.12,1.12,0,0,1-.4-.45,1.67,1.67,0,0,1-.15-.76V32.95H64.29v-1h1.29V30H67v2h1.5v1H67v3.72a.83.83,0,0,0,.17.58.8.8,0,0,0,.59.18h.57l.17,0v1.14Z"/><path class="cls-8" d="M79.72,35.22a4.09,4.09,0,0,1-.23,1.38,3.1,3.1,0,0,1-.68,1.11,3,3,0,0,1-1,.73,3.49,3.49,0,0,1-1.36.25,3.12,3.12,0,0,1-2.38-1,3.94,3.94,0,0,1,0-5,3.1,3.1,0,0,1,2.39-1,3.15,3.15,0,0,1,2.4,1A3.54,3.54,0,0,1,79.72,35.22Zm-1.45,0a3.59,3.59,0,0,0-.11-.92,2.21,2.21,0,0,0-.35-.75,1.68,1.68,0,0,0-.58-.5,1.75,1.75,0,0,0-.83-.18,1.71,1.71,0,0,0-.77.17,1.62,1.62,0,0,0-.57.48,2.23,2.23,0,0,0-.36.74,3.79,3.79,0,0,0,0,1.9,2.19,2.19,0,0,0,.35.74,1.67,1.67,0,0,0,.58.49,1.7,1.7,0,0,0,.79.18,1.72,1.72,0,0,0,.79-.18,1.68,1.68,0,0,0,.58-.49,2.24,2.24,0,0,0,.36-.74A3.41,3.41,0,0,0,78.27,35.22Z"/><path class="cls-8" d="M84.79,31.75a3.25,3.25,0,0,1,1.1.16,1.8,1.8,0,0,1,.74.49,2,2,0,0,1,.42.81,4.28,4.28,0,0,1,.13,1.12V38.5H85.75V34.6a2.11,2.11,0,0,0-.32-1.27,1.19,1.19,0,0,0-1-.43,1.48,1.48,0,0,0-1.23.52,2.28,2.28,0,0,0-.41,1.45V38.5H81.32V31.93H82.7v1h0a2.14,2.14,0,0,1,.37-.5,2.24,2.24,0,0,1,.48-.37,2.34,2.34,0,0,1,.57-.23A2.51,2.51,0,0,1,84.79,31.75Z"/><path class="cls-8" d="M90.58,29.42V38.5H89.14V29.42Z"/><path class="cls-8" d="M93.23,31.93,95,37h0l1.64-5h1.49L95.3,39.44A3,3,0,0,1,95,40a1.79,1.79,0,0,1-.4.44,1.71,1.71,0,0,1-.54.28,2.43,2.43,0,0,1-.72.1l-.54,0-.46,0V39.6l.45.05h.35a1,1,0,0,0,.4-.07.76.76,0,0,0,.28-.21A1.39,1.39,0,0,0,94,39q.09-.22.18-.52l-2.53-6.57Z"/></g></svg>