<svg xmlns="http://www.w3.org/2000/svg" viewBox="0 0 235 298"><defs><style>.cls-1{fill:none;}.cls-2{fill:#464646;}.cls-3{fill:#cdcdcd;opacity:0.6;}.cls-4{opacity:0.4;}.cls-5{fill:#c3c3c3;}.cls-6{opacity:0.5;}.cls-7{opacity:0.2;}.cls-8{fill:#0aaeff;}.cls-9{fill:#787878;}.cls-10{opacity:0.3;}.cls-11{fill:#fff;}.cls-12{fill:#0096e0;}.cls-13{fill:#47c2ff;}</style></defs><title>Artboard 44</title><g id="Background"><rect class="cls-1" width="235" height="298"/></g><g id="Content"><path class="cls-2" d="M22,24l5,7.25h0V24h.81v8.57h-.91l-5-7.25h0v7.25H21.1V24Z"/><path class="cls-2" d="M35.86,29.3a4.29,4.29,0,0,1-.2,1.31A3.31,3.31,0,0,1,35,31.74a2.9,2.9,0,0,1-2.29,1,2.84,2.84,0,0,1-2.24-1,4.07,4.07,0,0,1,0-5,3.08,3.08,0,0,1,4.51,0A3.65,3.65,0,0,1,35.86,29.3Zm-.8,0a3.8,3.8,0,0,0-.13-1,2.81,2.81,0,0,0-.42-.9,2.25,2.25,0,0,0-.72-.65,2,2,0,0,0-1-.25,2,2,0,0,0-1,.24,2.24,2.24,0,0,0-.72.64,2.85,2.85,0,0,0-.44.9,3.66,3.66,0,0,0-.15,1,3.58,3.58,0,0,0,.14,1,3,3,0,0,0,.43.9,2.24,2.24,0,0,0,.71.65,2,2,0,0,0,1,.25,2,2,0,0,0,1-.24,2.33,2.33,0,0,0,.72-.63,2.8,2.8,0,0,0,.45-.89A3.54,3.54,0,0,0,35.06,29.3Z"/><path class="cls-2" d="M37.66,32.58V26h.74v1.54h0a2.56,2.56,0,0,1,.9-1.2,2.32,2.32,0,0,1,1.38-.43H41v.8h-.18a2.22,2.22,0,0,0-1.71.69,2.36,2.36,0,0,0-.64,1.69v3.48Z"/><path class="cls-2" d="M50.56,32.58V28.12a1.73,1.73,0,0,0-.37-1.22,1.85,1.85,0,0,0-2.5.21,2.8,2.8,0,0,0-.45,1.71v3.77h-.81V28.09a1.81,1.81,0,0,0-.34-1.17,1.25,1.25,0,0,0-1-.42,1.72,1.72,0,0,0-1.46.65,2.72,2.72,0,0,0-.5,1.71v3.72h-.8V26H43v1.1h0a2.26,2.26,0,0,1,2.15-1.29,2.44,2.44,0,0,1,.64.08,1.86,1.86,0,0,1,.54.24,1.66,1.66,0,0,1,.42.4,1.86,1.86,0,0,1,.28.55,2.16,2.16,0,0,1,.85-1,2.4,2.4,0,0,1,1.24-.32,2.12,2.12,0,0,1,1.63.58,2.36,2.36,0,0,1,.54,1.66v4.51Z"/><path class="cls-2" d="M59.22,32.54l-.27,0h-.24a1.37,1.37,0,0,1-.44-.06.65.65,0,0,1-.29-.2.82.82,0,0,1-.16-.35,2.43,2.43,0,0,1,0-.53h0a3,3,0,0,1-1,1,2.79,2.79,0,0,1-1.35.29,2.46,2.46,0,0,1-1.6-.5,1.75,1.75,0,0,1-.6-1.43,1.66,1.66,0,0,1,.66-1.43,6.79,6.79,0,0,1,3-.69,2,2,0,0,0,.44-.08.75.75,0,0,0,.29-.16.6.6,0,0,0,.16-.26,1.28,1.28,0,0,0,0-.38,1.24,1.24,0,0,0-.4-1A2,2,0,0,0,56,26.5a2.61,2.61,0,0,0-.72.09,1.65,1.65,0,0,0-.53.25,1.13,1.13,0,0,0-.33.39,1.23,1.23,0,0,0-.13.49h-.8a2,2,0,0,1,.22-.78,1.78,1.78,0,0,1,.51-.59A2.43,2.43,0,0,1,55,26a4,4,0,0,1,1.09-.13,2.64,2.64,0,0,1,1.83.54,2,2,0,0,1,.59,1.52v3.56a.47.47,0,0,0,.11.33.46.46,0,0,0,.36.12.7.7,0,0,0,.25,0ZM57.7,29h0q-.12.22-.77.31l-.67.1-.74.12a2.67,2.67,0,0,0-1.17.44,1,1,0,0,0-.39.84,1.16,1.16,0,0,0,.43.94,1.6,1.6,0,0,0,1,.35A2.36,2.36,0,0,0,57,31.52a1.85,1.85,0,0,0,.65-1.44Z"/><path class="cls-2" d="M61.48,23.5v9.08h-.8V23.5Z"/><rect class="cls-3" x="20" y="46" width="195" height="6"/><g class="cls-4"><path class="cls-5" d="M214,47v4H21V47H214m1-1H20v6H215V46Z"/></g><path class="cls-2" d="M21.95,92.28V96H27V92.28h.81v8.55H27V96.69H21.95v4.15h-.82V92.28Z"/><path class="cls-2" d="M35.87,97.55a4.29,4.29,0,0,1-.2,1.31,3.31,3.31,0,0,1-.61,1.13,2.9,2.9,0,0,1-2.29,1,2.84,2.84,0,0,1-2.24-1,4.07,4.07,0,0,1,0-5,3.08,3.08,0,0,1,4.51,0A3.65,3.65,0,0,1,35.87,97.55Zm-.8,0a3.8,3.8,0,0,0-.13-1,2.81,2.81,0,0,0-.42-.9,2.25,2.25,0,0,0-.72-.65,2,2,0,0,0-1-.25,2,2,0,0,0-1,.24,2.24,2.24,0,0,0-.72.64,2.85,2.85,0,0,0-.44.9,3.66,3.66,0,0,0-.15,1,3.58,3.58,0,0,0,.14,1,3,3,0,0,0,.43.9,2.24,2.24,0,0,0,.71.65,2,2,0,0,0,1,.25,2,2,0,0,0,1-.24,2.33,2.33,0,0,0,.72-.63,2.8,2.8,0,0,0,.45-.89A3.54,3.54,0,0,0,35.06,97.55Z"/><path class="cls-2" d="M37.7,94.27,39.76,100h0l2-5.76h.83l-2.46,6.56h-.85L36.8,94.27Z"/><path class="cls-2" d="M46.55,94.08a2.71,2.71,0,0,1,1.3.29,2.6,2.6,0,0,1,.9.79,3.45,3.45,0,0,1,.52,1.13,5.21,5.21,0,0,1,.17,1.34v.13H44.39a3.58,3.58,0,0,0,.13.94,2.59,2.59,0,0,0,.39.83,2,2,0,0,0,.66.59,1.92,1.92,0,0,0,.95.22,2.44,2.44,0,0,0,.7-.09,2,2,0,0,0,.56-.26,1.76,1.76,0,0,0,.42-.39,2.41,2.41,0,0,0,.29-.49h.79a3,3,0,0,1-.38.79,2.48,2.48,0,0,1-.59.6,2.68,2.68,0,0,1-.79.39,3.34,3.34,0,0,1-1,.14,2.94,2.94,0,0,1-1.3-.27,2.56,2.56,0,0,1-.91-.73,3.12,3.12,0,0,1-.54-1.1,5.14,5.14,0,0,1-.18-1.37,4.66,4.66,0,0,1,.18-1.28,3.36,3.36,0,0,1,.54-1.11,2.74,2.74,0,0,1,.92-.78A2.79,2.79,0,0,1,46.55,94.08Zm2.09,3a3,3,0,0,0-.16-.85,2.44,2.44,0,0,0-.41-.75,2.07,2.07,0,0,0-.65-.54,1.84,1.84,0,0,0-.88-.21,1.84,1.84,0,0,0-1.5.7,2.7,2.7,0,0,0-.42.75,4.31,4.31,0,0,0-.23.9Z"/><path class="cls-2" d="M51.11,100.83V94.27h.74v1.54h0a2.56,2.56,0,0,1,.9-1.2,2.32,2.32,0,0,1,1.38-.43h.29V95h-.18a2.22,2.22,0,0,0-1.71.69,2.36,2.36,0,0,0-.64,1.69v3.48Z"/><rect class="cls-3" x="20" y="114" width="195" height="6"/><g class="cls-4"><path class="cls-5" d="M214,115v4H21v-4H214m1-1H20v6H215v-6Z"/></g><path class="cls-2" d="M27,169.83l-1-2.66H22.06l-1,2.66h-.87l3.45-8.55h.91l3.36,8.55Zm-3-7.73h0l-1.71,4.38h3.37Z"/><path class="cls-2" d="M31.84,163.08a3.46,3.46,0,0,1,1,.13,2.53,2.53,0,0,1,.78.38,2,2,0,0,1,.56.61,2.31,2.31,0,0,1,.29.82h-.8a1.73,1.73,0,0,0-.22-.52,1.5,1.5,0,0,0-.37-.4,1.7,1.7,0,0,0-.53-.26,2.34,2.34,0,0,0-.68-.09,2,2,0,0,0-1,.23,2.19,2.19,0,0,0-.72.63,2.91,2.91,0,0,0-.44.9,3.58,3.58,0,0,0-.15,1,3.67,3.67,0,0,0,.14,1,2.88,2.88,0,0,0,.42.9,2.26,2.26,0,0,0,.71.65,2,2,0,0,0,1,.25,1.93,1.93,0,0,0,.71-.13,1.88,1.88,0,0,0,.56-.34,1.79,1.79,0,0,0,.39-.49,1.87,1.87,0,0,0,.21-.58h.8a3,3,0,0,1-.29.85,2.49,2.49,0,0,1-.55.7,2.54,2.54,0,0,1-.8.48,2.88,2.88,0,0,1-1,.18,3,3,0,0,1-1.29-.27,2.85,2.85,0,0,1-1-.74,3.28,3.28,0,0,1-.61-1.1,4.47,4.47,0,0,1,0-2.67,3.31,3.31,0,0,1,.59-1.11,2.9,2.9,0,0,1,1-.77A3,3,0,0,1,31.84,163.08Z"/><path class="cls-2" d="M38.91,169.9h-.66a3,3,0,0,1-.68-.06,1,1,0,0,1-.45-.23.89.89,0,0,1-.25-.43,2.65,2.65,0,0,1-.07-.68v-4.56H35.49v-.67H36.8v-2h.8v2h1.5v.67h-1.5v4.48a1.76,1.76,0,0,0,0,.34.64.64,0,0,0,.11.25.5.5,0,0,0,.21.16.87.87,0,0,0,.35.06h.6l.21,0v.68Z"/><path class="cls-2" d="M41.7,160.4v1.29h-.8V160.4Zm0,2.87v6.56h-.8v-6.56Z"/><path class="cls-2" d="M43.94,163.27,46,169h0l2-5.76h.83l-2.46,6.56h-.85L43,163.27Z"/><path class="cls-2" d="M52.79,163.08a2.71,2.71,0,0,1,1.3.29,2.6,2.6,0,0,1,.9.79,3.45,3.45,0,0,1,.52,1.13,5.21,5.21,0,0,1,.17,1.34v.13H50.63a3.58,3.58,0,0,0,.13.94,2.59,2.59,0,0,0,.39.83,2,2,0,0,0,.66.59,1.92,1.92,0,0,0,.95.22,2.44,2.44,0,0,0,.7-.09A2,2,0,0,0,54,169a1.76,1.76,0,0,0,.42-.39,2.41,2.41,0,0,0,.29-.49h.79a3,3,0,0,1-.38.79,2.48,2.48,0,0,1-.59.6,2.68,2.68,0,0,1-.79.39,3.34,3.34,0,0,1-1,.14,2.94,2.94,0,0,1-1.3-.27,2.56,2.56,0,0,1-.91-.73,3.12,3.12,0,0,1-.54-1.1,5.14,5.14,0,0,1-.18-1.37,4.66,4.66,0,0,1,.18-1.28,3.36,3.36,0,0,1,.54-1.11,2.74,2.74,0,0,1,.92-.78A2.79,2.79,0,0,1,52.79,163.08Zm2.09,3a3,3,0,0,0-.16-.85,2.44,2.44,0,0,0-.41-.75,2.07,2.07,0,0,0-.65-.54,1.84,1.84,0,0,0-.88-.21,1.84,1.84,0,0,0-1.5.7,2.7,2.7,0,0,0-.42.75,4.31,4.31,0,0,0-.23.9Z"/><rect class="cls-3" x="20" y="183" width="195" height="6"/><g class="cls-4"><path class="cls-5" d="M214,184v4H21v-4H214m1-1H20v6H215v-6Z"/></g><g class="cls-6"><path class="cls-2" d="M24,229.81a4.11,4.11,0,0,1,3,1,5.51,5.51,0,0,1,0,6.52,4,4,0,0,1-2.89,1H21.13v-8.57Zm-.22,7.87a3.57,3.57,0,0,0,2.61-.83,3.76,3.76,0,0,0,.84-2.75,3.82,3.82,0,0,0-.82-2.74,3.73,3.73,0,0,0-2.75-.84H21.95v7.17Z"/><path class="cls-2" d="M30.57,228.94v1.29h-.8v-1.29Zm0,2.87v6.56h-.8v-6.56Z"/><path class="cls-2" d="M37.68,236.59a1.67,1.67,0,0,1-.22.88,1.89,1.89,0,0,1-.59.62,2.74,2.74,0,0,1-.84.36,4,4,0,0,1-1,.12,3.66,3.66,0,0,1-1.07-.14,2.4,2.4,0,0,1-.8-.41,2,2,0,0,1-.53-.64,2.4,2.4,0,0,1-.25-.85h.81a1.7,1.7,0,0,0,.2.56,1.41,1.41,0,0,0,.38.43,1.8,1.8,0,0,0,.57.28,2.56,2.56,0,0,0,.74.1,3,3,0,0,0,.6-.06,2.05,2.05,0,0,0,.58-.21,1.35,1.35,0,0,0,.44-.38,1,1,0,0,0,.18-.59.93.93,0,0,0-.34-.73,2.6,2.6,0,0,0-1.13-.46l-1-.22a4,4,0,0,1-.77-.24,2.1,2.1,0,0,1-.58-.37,1.46,1.46,0,0,1-.36-.5,1.62,1.62,0,0,1-.12-.65,1.57,1.57,0,0,1,.21-.83,1.78,1.78,0,0,1,.56-.57,2.53,2.53,0,0,1,.78-.33,3.77,3.77,0,0,1,.89-.11,3.27,3.27,0,0,1,.92.12,2.29,2.29,0,0,1,.73.35,1.83,1.83,0,0,1,.5.57,2.08,2.08,0,0,1,.25.78h-.8a1.32,1.32,0,0,0-.19-.5,1.24,1.24,0,0,0-.36-.37,1.69,1.69,0,0,0-.5-.22,2.36,2.36,0,0,0-.61-.08,2.85,2.85,0,0,0-.58.06,1.59,1.59,0,0,0-.51.19,1.07,1.07,0,0,0-.36.35,1,1,0,0,0-.13.53.74.74,0,0,0,.13.44,1.27,1.27,0,0,0,.33.32,1.93,1.93,0,0,0,.44.22,3.64,3.64,0,0,0,.46.13l1.37.3a2.85,2.85,0,0,1,.59.21,1.77,1.77,0,0,1,.5.35,1.64,1.64,0,0,1,.34.51A1.71,1.71,0,0,1,37.68,236.59Z"/><path class="cls-2" d="M45.11,238.33l-.27,0H44.6a1.37,1.37,0,0,1-.44-.06.65.65,0,0,1-.29-.2.82.82,0,0,1-.16-.35,2.43,2.43,0,0,1,0-.53h0a3,3,0,0,1-1,1,2.79,2.79,0,0,1-1.35.29,2.46,2.46,0,0,1-1.6-.5,1.75,1.75,0,0,1-.6-1.43,1.66,1.66,0,0,1,.66-1.43,6.79,6.79,0,0,1,3-.69,2,2,0,0,0,.44-.08.75.75,0,0,0,.29-.16.6.6,0,0,0,.16-.26,1.28,1.28,0,0,0,0-.38,1.24,1.24,0,0,0-.4-1,2,2,0,0,0-1.31-.34,2.61,2.61,0,0,0-.72.09,1.65,1.65,0,0,0-.53.25,1.13,1.13,0,0,0-.33.39,1.23,1.23,0,0,0-.13.49h-.8a2,2,0,0,1,.22-.78,1.78,1.78,0,0,1,.51-.59,2.43,2.43,0,0,1,.81-.38,4,4,0,0,1,1.09-.13,2.64,2.64,0,0,1,1.83.54,2,2,0,0,1,.59,1.52v3.56a.47.47,0,0,0,.11.33.46.46,0,0,0,.36.12.7.7,0,0,0,.25,0Zm-1.52-3.54h0q-.12.22-.77.31l-.67.1-.74.12a2.67,2.67,0,0,0-1.17.44,1,1,0,0,0-.39.84,1.16,1.16,0,0,0,.43.94,1.6,1.6,0,0,0,1,.35,2.36,2.36,0,0,0,1.63-.58,1.85,1.85,0,0,0,.65-1.44Z"/><path class="cls-2" d="M52.61,235.09a4.77,4.77,0,0,1-.17,1.28,3.38,3.38,0,0,1-.53,1.11,2.69,2.69,0,0,1-.92.79,2.8,2.8,0,0,1-1.33.3,2.9,2.9,0,0,1-.72-.09,2.59,2.59,0,0,1-.66-.27,2.34,2.34,0,0,1-.55-.45,2.18,2.18,0,0,1-.4-.63h0v1.25h-.74v-9.08h.8v3.77h0a2,2,0,0,1,.36-.61,2.25,2.25,0,0,1,.54-.45,2.5,2.5,0,0,1,.66-.28,3,3,0,0,1,2,.18,2.62,2.62,0,0,1,.91.75,3.34,3.34,0,0,1,.55,1.1A5,5,0,0,1,52.61,235.09Zm-.8,0a4.39,4.39,0,0,0,0-.65,3.54,3.54,0,0,0-.16-.64,2.89,2.89,0,0,0-.28-.59,2.08,2.08,0,0,0-.41-.48,1.83,1.83,0,0,0-.55-.32,2,2,0,0,0-.71-.12,2.05,2.05,0,0,0-1.73.85,2.72,2.72,0,0,0-.42.89,3.94,3.94,0,0,0-.14,1.06,4.21,4.21,0,0,0,.13,1,2.67,2.67,0,0,0,.4.9,2.08,2.08,0,0,0,.71.63,2.18,2.18,0,0,0,1.06.24,1.88,1.88,0,0,0,1-.23,2,2,0,0,0,.66-.63,2.9,2.9,0,0,0,.38-.89A4.91,4.91,0,0,0,51.8,235.09Z"/><path class="cls-2" d="M55.3,229.29v9.08h-.8v-9.08Z"/><path class="cls-2" d="M60.08,231.63a2.71,2.71,0,0,1,1.3.29,2.6,2.6,0,0,1,.9.79,3.45,3.45,0,0,1,.52,1.13,5.21,5.21,0,0,1,.17,1.34v.13H57.92a3.58,3.58,0,0,0,.13.94,2.59,2.59,0,0,0,.39.83,2,2,0,0,0,.66.59,1.92,1.92,0,0,0,.95.22,2.44,2.44,0,0,0,.7-.09,2,2,0,0,0,.56-.26,1.76,1.76,0,0,0,.42-.39,2.41,2.41,0,0,0,.29-.49h.79a3,3,0,0,1-.38.79,2.48,2.48,0,0,1-.59.6,2.68,2.68,0,0,1-.79.39,3.34,3.34,0,0,1-1,.14,2.94,2.94,0,0,1-1.3-.27,2.56,2.56,0,0,1-.91-.73,3.12,3.12,0,0,1-.54-1.1,5.14,5.14,0,0,1-.18-1.37,4.66,4.66,0,0,1,.18-1.28,3.36,3.36,0,0,1,.54-1.11,2.74,2.74,0,0,1,.92-.78A2.79,2.79,0,0,1,60.08,231.63Zm2.09,3a3,3,0,0,0-.16-.85,2.44,2.44,0,0,0-.41-.75,2.07,2.07,0,0,0-.65-.54,1.84,1.84,0,0,0-.88-.21,1.84,1.84,0,0,0-1.5.7,2.7,2.7,0,0,0-.42.75,4.31,4.31,0,0,0-.23.9Z"/><path class="cls-2" d="M70.37,229.29v9.08h-.74v-1.25h0a2,2,0,0,1-.39.59,2.57,2.57,0,0,1-.56.45,2.8,2.8,0,0,1-.67.29,2.63,2.63,0,0,1-.72.1,2.8,2.8,0,0,1-1.28-.28,2.68,2.68,0,0,1-.92-.75,3.32,3.32,0,0,1-.56-1.11,4.68,4.68,0,0,1-.19-1.34,4.83,4.83,0,0,1,.17-1.29A3.31,3.31,0,0,1,65,232.7a2.69,2.69,0,0,1,.92-.78,3,3,0,0,1,2-.2,2.56,2.56,0,0,1,.65.27,2.25,2.25,0,0,1,.54.45,2.07,2.07,0,0,1,.38.63h0v-3.77Zm-5.26,5.8a4.17,4.17,0,0,0,.05.65,3.7,3.7,0,0,0,.16.64,2.82,2.82,0,0,0,.28.58,2.15,2.15,0,0,0,.41.48,1.8,1.8,0,0,0,.55.32,2,2,0,0,0,.7.12A2.08,2.08,0,0,0,69,237a2.66,2.66,0,0,0,.43-.89,4,4,0,0,0,.14-1.06,4,4,0,0,0-.13-1,2.73,2.73,0,0,0-.41-.9,2.06,2.06,0,0,0-1.76-.88,1.94,1.94,0,0,0-.68.11,1.8,1.8,0,0,0-.54.31,2.15,2.15,0,0,0-.41.47,2.8,2.8,0,0,0-.29.58,3.52,3.52,0,0,0-.17.65A4.25,4.25,0,0,0,65.12,235.09Z"/></g><rect class="cls-3" x="20" y="252" width="195" height="6"/><g class="cls-7"><path class="cls-5" d="M214,253v4H21v-4H214m1-1H20v6H215v-6Z"/></g><rect class="cls-8" x="20.5" y="46.5" width="32" height="5"/><path class="cls-8" d="M52,47v4H21V47H52m1-1H20v6H53V46Z"/><path class="cls-9" d="M23,60.05a2.21,2.21,0,0,1,1.93.94,4.77,4.77,0,0,1,.66,2.75,4.86,4.86,0,0,1-.66,2.79,2.21,2.21,0,0,1-1.93.94,2.2,2.2,0,0,1-1.92-.94,4.84,4.84,0,0,1-.66-2.79A4.79,4.79,0,0,1,21.1,61,2.2,2.2,0,0,1,23,60.05Zm-1.42,3.7a8.5,8.5,0,0,0,.06,1,3.46,3.46,0,0,0,.22.89,1.52,1.52,0,0,0,.43.62,1.07,1.07,0,0,0,.71.23,1.09,1.09,0,0,0,.9-.42,1.78,1.78,0,0,0,.26-.47,3.5,3.5,0,0,0,.16-.57,5.37,5.37,0,0,0,.09-.64q0-.33,0-.66a8,8,0,0,0-.07-1.06,3.17,3.17,0,0,0-.23-.87,1.53,1.53,0,0,0-.44-.59A1.1,1.1,0,0,0,23,61a1.07,1.07,0,0,0-.5.11,1.15,1.15,0,0,0-.37.31,1.67,1.67,0,0,0-.26.46,3.57,3.57,0,0,0-.16.57,5.29,5.29,0,0,0-.09.63Q21.6,63.42,21.6,63.75Z"/><path class="cls-9" d="M193,67.33V62.44h-1.83v-.86a5,5,0,0,0,.75-.06,2,2,0,0,0,.52-.15,1.31,1.31,0,0,0,.53-.46,1.85,1.85,0,0,0,.26-.74h.93v7.17Z"/><path class="cls-9" d="M199.19,60.05a2.21,2.21,0,0,1,1.93.94,4.77,4.77,0,0,1,.66,2.75,4.86,4.86,0,0,1-.66,2.79,2.44,2.44,0,0,1-3.85,0,4.84,4.84,0,0,1-.66-2.79,4.79,4.79,0,0,1,.66-2.76A2.2,2.2,0,0,1,199.19,60.05Zm-1.42,3.7a8.5,8.5,0,0,0,.06,1,3.46,3.46,0,0,0,.22.89,1.52,1.52,0,0,0,.43.62,1.07,1.07,0,0,0,.71.23,1.09,1.09,0,0,0,.9-.42,1.78,1.78,0,0,0,.26-.47,3.5,3.5,0,0,0,.16-.57,5.37,5.37,0,0,0,.09-.64q0-.33,0-.66a8,8,0,0,0-.07-1.06,3.17,3.17,0,0,0-.23-.87,1.53,1.53,0,0,0-.44-.59,1.1,1.1,0,0,0-.7-.22,1.07,1.07,0,0,0-.5.11,1.15,1.15,0,0,0-.37.31,1.67,1.67,0,0,0-.26.46,3.57,3.57,0,0,0-.16.57,5.29,5.29,0,0,0-.09.63Q197.77,63.42,197.77,63.75Z"/><path class="cls-9" d="M205.24,60.05a2.21,2.21,0,0,1,1.93.94,4.77,4.77,0,0,1,.66,2.75,4.86,4.86,0,0,1-.66,2.79,2.44,2.44,0,0,1-3.85,0,4.84,4.84,0,0,1-.66-2.79,4.79,4.79,0,0,1,.66-2.76A2.2,2.2,0,0,1,205.24,60.05Zm-1.42,3.7a8.5,8.5,0,0,0,.06,1,3.46,3.46,0,0,0,.22.89,1.52,1.52,0,0,0,.43.62,1.07,1.07,0,0,0,.71.23,1.09,1.09,0,0,0,.9-.42,1.78,1.78,0,0,0,.26-.47,3.5,3.5,0,0,0,.16-.57,5.37,5.37,0,0,0,.09-.64q0-.33,0-.66a8,8,0,0,0-.07-1.06,3.17,3.17,0,0,0-.23-.87,1.53,1.53,0,0,0-.44-.59,1.1,1.1,0,0,0-.7-.22,1.07,1.07,0,0,0-.5.11,1.15,1.15,0,0,0-.37.31,1.67,1.67,0,0,0-.26.46,3.57,3.57,0,0,0-.16.57,5.29,5.29,0,0,0-.09.63Q203.82,63.42,203.83,63.75Z"/><path class="cls-9" d="M211.3,60.05a2.21,2.21,0,0,1,1.93.94,4.77,4.77,0,0,1,.66,2.75,4.86,4.86,0,0,1-.66,2.79,2.44,2.44,0,0,1-3.85,0,4.84,4.84,0,0,1-.66-2.79,4.79,4.79,0,0,1,.66-2.76A2.2,2.2,0,0,1,211.3,60.05Zm-1.42,3.7a8.5,8.5,0,0,0,.06,1,3.46,3.46,0,0,0,.22.89,1.52,1.52,0,0,0,.43.62,1.07,1.07,0,0,0,.71.23,1.09,1.09,0,0,0,.9-.42,1.78,1.78,0,0,0,.26-.47,3.5,3.5,0,0,0,.16-.57,5.37,5.37,0,0,0,.09-.64q0-.33,0-.66a8,8,0,0,0-.07-1.06,3.17,3.17,0,0,0-.23-.87,1.53,1.53,0,0,0-.44-.59,1.1,1.1,0,0,0-.7-.22,1.07,1.07,0,0,0-.5.11,1.15,1.15,0,0,0-.37.31,1.67,1.67,0,0,0-.26.46,3.57,3.57,0,0,0-.16.57,5.29,5.29,0,0,0-.09.63Q209.88,63.42,209.88,63.75Z"/><rect class="cls-8" x="52" y="44" width="10" height="10"/><g class="cls-10"><path class="cls-11" d="M62,44V54H52V44H62m1-1H51V55H63V43Z"/></g><g class="cls-10"><rect class="cls-12" x="20" y="252" width="43" height="6"/></g><g class="cls-6"><path class="cls-9" d="M23,266.51a2.21,2.21,0,0,1,1.93.94,4.77,4.77,0,0,1,.66,2.75,4.86,4.86,0,0,1-.66,2.79,2.21,2.21,0,0,1-1.93.94A2.2,2.2,0,0,1,21.1,273a4.84,4.84,0,0,1-.66-2.79,4.79,4.79,0,0,1,.66-2.76A2.2,2.2,0,0,1,23,266.51Zm-1.42,3.7a8.5,8.5,0,0,0,.06,1,3.46,3.46,0,0,0,.22.89,1.52,1.52,0,0,0,.43.62A1.07,1.07,0,0,0,23,273a1.09,1.09,0,0,0,.9-.42,1.78,1.78,0,0,0,.26-.47,3.5,3.5,0,0,0,.16-.57,5.37,5.37,0,0,0,.09-.64q0-.33,0-.66a8,8,0,0,0-.07-1.06,3.17,3.17,0,0,0-.23-.87,1.53,1.53,0,0,0-.44-.59,1.1,1.1,0,0,0-.7-.22,1.07,1.07,0,0,0-.5.11,1.15,1.15,0,0,0-.37.31,1.67,1.67,0,0,0-.26.46,3.57,3.57,0,0,0-.16.57,5.29,5.29,0,0,0-.09.63Q21.6,269.88,21.6,270.21Z"/></g><g class="cls-6"><path class="cls-9" d="M193,273.79V268.9h-1.83V268a5,5,0,0,0,.75-.06,2,2,0,0,0,.52-.15,1.31,1.31,0,0,0,.53-.46,1.85,1.85,0,0,0,.26-.74h.93v7.17Z"/><path class="cls-9" d="M199.19,266.51a2.21,2.21,0,0,1,1.93.94,4.77,4.77,0,0,1,.66,2.75,4.86,4.86,0,0,1-.66,2.79,2.44,2.44,0,0,1-3.85,0,4.84,4.84,0,0,1-.66-2.79,4.79,4.79,0,0,1,.66-2.76A2.2,2.2,0,0,1,199.19,266.51Zm-1.42,3.7a8.5,8.5,0,0,0,.06,1,3.46,3.46,0,0,0,.22.89,1.52,1.52,0,0,0,.43.62,1.07,1.07,0,0,0,.71.23,1.09,1.09,0,0,0,.9-.42,1.78,1.78,0,0,0,.26-.47,3.5,3.5,0,0,0,.16-.57,5.37,5.37,0,0,0,.09-.64q0-.33,0-.66a8,8,0,0,0-.07-1.06,3.17,3.17,0,0,0-.23-.87,1.53,1.53,0,0,0-.44-.59,1.1,1.1,0,0,0-.7-.22,1.07,1.07,0,0,0-.5.11,1.15,1.15,0,0,0-.37.31,1.67,1.67,0,0,0-.26.46,3.57,3.57,0,0,0-.16.57,5.29,5.29,0,0,0-.09.63Q197.77,269.88,197.77,270.21Z"/><path class="cls-9" d="M205.24,266.51a2.21,2.21,0,0,1,1.93.94,4.77,4.77,0,0,1,.66,2.75,4.86,4.86,0,0,1-.66,2.79,2.44,2.44,0,0,1-3.85,0,4.84,4.84,0,0,1-.66-2.79,4.79,4.79,0,0,1,.66-2.76A2.2,2.2,0,0,1,205.24,266.51Zm-1.42,3.7a8.5,8.5,0,0,0,.06,1,3.46,3.46,0,0,0,.22.89,1.52,1.52,0,0,0,.43.62,1.07,1.07,0,0,0,.71.23,1.09,1.09,0,0,0,.9-.42,1.78,1.78,0,0,0,.26-.47,3.5,3.5,0,0,0,.16-.57,5.37,5.37,0,0,0,.09-.64q0-.33,0-.66a8,8,0,0,0-.07-1.06,3.17,3.17,0,0,0-.23-.87,1.53,1.53,0,0,0-.44-.59,1.1,1.1,0,0,0-.7-.22,1.07,1.07,0,0,0-.5.11,1.15,1.15,0,0,0-.37.31,1.67,1.67,0,0,0-.26.46,3.57,3.57,0,0,0-.16.57,5.29,5.29,0,0,0-.09.63Q203.82,269.88,203.83,270.21Z"/><path class="cls-9" d="M211.3,266.51a2.21,2.21,0,0,1,1.93.94,4.77,4.77,0,0,1,.66,2.75,4.86,4.86,0,0,1-.66,2.79,2.44,2.44,0,0,1-3.85,0,4.84,4.84,0,0,1-.66-2.79,4.79,4.79,0,0,1,.66-2.76A2.2,2.2,0,0,1,211.3,266.51Zm-1.42,3.7a8.5,8.5,0,0,0,.06,1,3.46,3.46,0,0,0,.22.89,1.52,1.52,0,0,0,.43.62,1.07,1.07,0,0,0,.71.23,1.09,1.09,0,0,0,.9-.42,1.78,1.78,0,0,0,.26-.47,3.5,3.5,0,0,0,.16-.57,5.37,5.37,0,0,0,.09-.64q0-.33,0-.66a8,8,0,0,0-.07-1.06,3.17,3.17,0,0,0-.23-.87,1.53,1.53,0,0,0-.44-.59,1.1,1.1,0,0,0-.7-.22,1.07,1.07,0,0,0-.5.11,1.15,1.15,0,0,0-.37.31,1.67,1.67,0,0,0-.26.46,3.57,3.57,0,0,0-.16.57,5.29,5.29,0,0,0-.09.63Q209.88,269.88,209.88,270.21Z"/></g><rect class="cls-8" x="20.5" y="114.5" width="32" height="5"/><path class="cls-8" d="M52,115v4H21v-4H52m1-1H20v6H53v-6Z"/><path class="cls-9" d="M23,128.05a2.21,2.21,0,0,1,1.93.94,4.77,4.77,0,0,1,.66,2.75,4.86,4.86,0,0,1-.66,2.79,2.21,2.21,0,0,1-1.93.94,2.2,2.2,0,0,1-1.92-.94,4.84,4.84,0,0,1-.66-2.79A4.79,4.79,0,0,1,21.1,129,2.2,2.2,0,0,1,23,128.05Zm-1.42,3.7a8.5,8.5,0,0,0,.06,1,3.46,3.46,0,0,0,.22.89,1.52,1.52,0,0,0,.43.62,1.07,1.07,0,0,0,.71.23,1.09,1.09,0,0,0,.9-.42,1.78,1.78,0,0,0,.26-.47,3.5,3.5,0,0,0,.16-.57,5.37,5.37,0,0,0,.09-.64q0-.33,0-.66a8,8,0,0,0-.07-1.06,3.17,3.17,0,0,0-.23-.87,1.53,1.53,0,0,0-.44-.59A1.1,1.1,0,0,0,23,129a1.07,1.07,0,0,0-.5.11,1.15,1.15,0,0,0-.37.31,1.67,1.67,0,0,0-.26.46,3.57,3.57,0,0,0-.16.57,5.29,5.29,0,0,0-.09.63Q21.6,131.42,21.6,131.75Z"/><path class="cls-9" d="M193,135.33v-4.89h-1.83v-.86a5,5,0,0,0,.75-.06,2,2,0,0,0,.52-.15,1.31,1.31,0,0,0,.53-.46,1.85,1.85,0,0,0,.26-.74h.93v7.17Z"/><path class="cls-9" d="M199.19,128.05a2.21,2.21,0,0,1,1.93.94,4.77,4.77,0,0,1,.66,2.75,4.86,4.86,0,0,1-.66,2.79,2.44,2.44,0,0,1-3.85,0,4.84,4.84,0,0,1-.66-2.79,4.79,4.79,0,0,1,.66-2.76A2.2,2.2,0,0,1,199.19,128.05Zm-1.42,3.7a8.5,8.5,0,0,0,.06,1,3.46,3.46,0,0,0,.22.89,1.52,1.52,0,0,0,.43.62,1.07,1.07,0,0,0,.71.23,1.09,1.09,0,0,0,.9-.42,1.78,1.78,0,0,0,.26-.47,3.5,3.5,0,0,0,.16-.57,5.37,5.37,0,0,0,.09-.64q0-.33,0-.66a8,8,0,0,0-.07-1.06,3.17,3.17,0,0,0-.23-.87,1.53,1.53,0,0,0-.44-.59,1.1,1.1,0,0,0-.7-.22,1.07,1.07,0,0,0-.5.11,1.15,1.15,0,0,0-.37.31,1.67,1.67,0,0,0-.26.46,3.57,3.57,0,0,0-.16.57,5.29,5.29,0,0,0-.09.63Q197.77,131.42,197.77,131.75Z"/><path class="cls-9" d="M205.24,128.05a2.21,2.21,0,0,1,1.93.94,4.77,4.77,0,0,1,.66,2.75,4.86,4.86,0,0,1-.66,2.79,2.44,2.44,0,0,1-3.85,0,4.84,4.84,0,0,1-.66-2.79,4.79,4.79,0,0,1,.66-2.76A2.2,2.2,0,0,1,205.24,128.05Zm-1.42,3.7a8.5,8.5,0,0,0,.06,1,3.46,3.46,0,0,0,.22.89,1.52,1.52,0,0,0,.43.62,1.07,1.07,0,0,0,.71.23,1.09,1.09,0,0,0,.9-.42,1.78,1.78,0,0,0,.26-.47,3.5,3.5,0,0,0,.16-.57,5.37,5.37,0,0,0,.09-.64q0-.33,0-.66a8,8,0,0,0-.07-1.06,3.17,3.17,0,0,0-.23-.87,1.53,1.53,0,0,0-.44-.59,1.1,1.1,0,0,0-.7-.22,1.07,1.07,0,0,0-.5.11,1.15,1.15,0,0,0-.37.31,1.67,1.67,0,0,0-.26.46,3.57,3.57,0,0,0-.16.57,5.29,5.29,0,0,0-.09.63Q203.82,131.42,203.83,131.75Z"/><path class="cls-9" d="M211.3,128.05a2.21,2.21,0,0,1,1.93.94,4.77,4.77,0,0,1,.66,2.75,4.86,4.86,0,0,1-.66,2.79,2.44,2.44,0,0,1-3.85,0,4.84,4.84,0,0,1-.66-2.79,4.79,4.79,0,0,1,.66-2.76A2.2,2.2,0,0,1,211.3,128.05Zm-1.42,3.7a8.5,8.5,0,0,0,.06,1,3.46,3.46,0,0,0,.22.89,1.52,1.52,0,0,0,.43.62,1.07,1.07,0,0,0,.71.23,1.09,1.09,0,0,0,.9-.42,1.78,1.78,0,0,0,.26-.47,3.5,3.5,0,0,0,.16-.57,5.37,5.37,0,0,0,.09-.64q0-.33,0-.66a8,8,0,0,0-.07-1.06,3.17,3.17,0,0,0-.23-.87,1.53,1.53,0,0,0-.44-.59,1.1,1.1,0,0,0-.7-.22,1.07,1.07,0,0,0-.5.11,1.15,1.15,0,0,0-.37.31,1.67,1.67,0,0,0-.26.46,3.57,3.57,0,0,0-.16.57,5.29,5.29,0,0,0-.09.63Q209.88,131.42,209.88,131.75Z"/><rect class="cls-13" x="49" y="109" width="16" height="16"/><g class="cls-4"><path class="cls-11" d="M65,109v16H49V109H65m1-1H48v18H66V108Z"/></g><rect class="cls-8" x="20.5" y="183.5" width="32" height="5"/><path class="cls-8" d="M52,184v4H21v-4H52m1-1H20v6H53v-6Z"/><path class="cls-9" d="M23,197.05a2.21,2.21,0,0,1,1.93.94,4.77,4.77,0,0,1,.66,2.75,4.86,4.86,0,0,1-.66,2.79,2.21,2.21,0,0,1-1.93.94,2.2,2.2,0,0,1-1.92-.94,4.84,4.84,0,0,1-.66-2.79A4.79,4.79,0,0,1,21.1,198,2.2,2.2,0,0,1,23,197.05Zm-1.42,3.7a8.5,8.5,0,0,0,.06,1,3.46,3.46,0,0,0,.22.89,1.52,1.52,0,0,0,.43.62,1.07,1.07,0,0,0,.71.23,1.09,1.09,0,0,0,.9-.42,1.78,1.78,0,0,0,.26-.47,3.5,3.5,0,0,0,.16-.57,5.37,5.37,0,0,0,.09-.64q0-.33,0-.66a8,8,0,0,0-.07-1.06,3.17,3.17,0,0,0-.23-.87,1.53,1.53,0,0,0-.44-.59A1.1,1.1,0,0,0,23,198a1.07,1.07,0,0,0-.5.11,1.15,1.15,0,0,0-.37.31,1.67,1.67,0,0,0-.26.46,3.57,3.57,0,0,0-.16.57,5.29,5.29,0,0,0-.09.63Q21.6,200.42,21.6,200.75Z"/><path class="cls-9" d="M193,204.33v-4.89h-1.83v-.86a5,5,0,0,0,.75-.06,2,2,0,0,0,.52-.15,1.31,1.31,0,0,0,.53-.46,1.85,1.85,0,0,0,.26-.74h.93v7.17Z"/><path class="cls-9" d="M199.19,197.05a2.21,2.21,0,0,1,1.93.94,4.77,4.77,0,0,1,.66,2.75,4.86,4.86,0,0,1-.66,2.79,2.44,2.44,0,0,1-3.85,0,4.84,4.84,0,0,1-.66-2.79,4.79,4.79,0,0,1,.66-2.76A2.2,2.2,0,0,1,199.19,197.05Zm-1.42,3.7a8.5,8.5,0,0,0,.06,1,3.46,3.46,0,0,0,.22.89,1.52,1.52,0,0,0,.43.62,1.07,1.07,0,0,0,.71.23,1.09,1.09,0,0,0,.9-.42,1.78,1.78,0,0,0,.26-.47,3.5,3.5,0,0,0,.16-.57,5.37,5.37,0,0,0,.09-.64q0-.33,0-.66a8,8,0,0,0-.07-1.06,3.17,3.17,0,0,0-.23-.87,1.53,1.53,0,0,0-.44-.59,1.1,1.1,0,0,0-.7-.22,1.07,1.07,0,0,0-.5.11,1.15,1.15,0,0,0-.37.31,1.67,1.67,0,0,0-.26.46,3.57,3.57,0,0,0-.16.57,5.29,5.29,0,0,0-.09.63Q197.77,200.42,197.77,200.75Z"/><path class="cls-9" d="M205.24,197.05a2.21,2.21,0,0,1,1.93.94,4.77,4.77,0,0,1,.66,2.75,4.86,4.86,0,0,1-.66,2.79,2.44,2.44,0,0,1-3.85,0,4.84,4.84,0,0,1-.66-2.79,4.79,4.79,0,0,1,.66-2.76A2.2,2.2,0,0,1,205.24,197.05Zm-1.42,3.7a8.5,8.5,0,0,0,.06,1,3.46,3.46,0,0,0,.22.89,1.52,1.52,0,0,0,.43.62,1.07,1.07,0,0,0,.71.23,1.09,1.09,0,0,0,.9-.42,1.78,1.78,0,0,0,.26-.47,3.5,3.5,0,0,0,.16-.57,5.37,5.37,0,0,0,.09-.64q0-.33,0-.66a8,8,0,0,0-.07-1.06,3.17,3.17,0,0,0-.23-.87,1.53,1.53,0,0,0-.44-.59,1.1,1.1,0,0,0-.7-.22,1.07,1.07,0,0,0-.5.11,1.15,1.15,0,0,0-.37.31,1.67,1.67,0,0,0-.26.46,3.57,3.57,0,0,0-.16.57,5.29,5.29,0,0,0-.09.63Q203.82,200.42,203.83,200.75Z"/><path class="cls-9" d="M211.3,197.05a2.21,2.21,0,0,1,1.93.94,4.77,4.77,0,0,1,.66,2.75,4.86,4.86,0,0,1-.66,2.79,2.44,2.44,0,0,1-3.85,0,4.84,4.84,0,0,1-.66-2.79,4.79,4.79,0,0,1,.66-2.76A2.2,2.2,0,0,1,211.3,197.05Zm-1.42,3.7a8.5,8.5,0,0,0,.06,1,3.46,3.46,0,0,0,.22.89,1.52,1.52,0,0,0,.43.62,1.07,1.07,0,0,0,.71.23,1.09,1.09,0,0,0,.9-.42,1.78,1.78,0,0,0,.26-.47,3.5,3.5,0,0,0,.16-.57,5.37,5.37,0,0,0,.09-.64q0-.33,0-.66a8,8,0,0,0-.07-1.06,3.17,3.17,0,0,0-.23-.87,1.53,1.53,0,0,0-.44-.59,1.1,1.1,0,0,0-.7-.22,1.07,1.07,0,0,0-.5.11,1.15,1.15,0,0,0-.37.31,1.67,1.67,0,0,0-.26.46,3.57,3.57,0,0,0-.16.57,5.29,5.29,0,0,0-.09.63Q209.88,200.42,209.88,200.75Z"/><rect class="cls-8" x="49" y="178" width="16" height="16"/><g class="cls-4"><path class="cls-11" d="M65,178v16H49V178H65m1-1H48v18H66V177Z"/></g></g></svg>