<svg xmlns="http://www.w3.org/2000/svg" viewBox="0 0 310 70"><defs><style>.cls-1{fill:#fff;opacity:0.8;}.cls-2{opacity:0.4;}.cls-3{fill:#969696;}.cls-4{fill:#464646;}.cls-5{fill:#787878;}.cls-6,.cls-8{fill:#f0f;}.cls-7{fill:none;stroke:#f0f;stroke-miterlimit:10;stroke-width:0.5px;}.cls-8{opacity:0.2;}</style></defs><title>Artboard 48</title><g id="Content"><rect class="cls-1" x="37" y="20" width="178" height="28"/><g class="cls-2"><path class="cls-3" d="M215,20V48H37V20H215m1-1H36V49H216V19Z"/></g><path class="cls-4" d="M47.55,28.36v8.57H46V28.36Z"/><path class="cls-4" d="M53,30.18a3.25,3.25,0,0,1,1.1.16,1.8,1.8,0,0,1,.74.49,2,2,0,0,1,.42.81,4.28,4.28,0,0,1,.13,1.12v4.17H54V33a2.11,2.11,0,0,0-.32-1.27,1.19,1.19,0,0,0-1-.43,1.48,1.48,0,0,0-1.23.52A2.28,2.28,0,0,0,51,33.3v3.63H49.54V30.35h1.38v1h0a2.14,2.14,0,0,1,.37-.5,2.24,2.24,0,0,1,.48-.37,2.34,2.34,0,0,1,.57-.23A2.51,2.51,0,0,1,53,30.18Z"/><path class="cls-4" d="M63.77,33.69a4.55,4.55,0,0,1-.08.85,4.15,4.15,0,0,1-.23.8,3.31,3.31,0,0,1-.4.71,2.59,2.59,0,0,1-.57.57,2.64,2.64,0,0,1-.73.37,2.87,2.87,0,0,1-.91.13,2.61,2.61,0,0,1-.63-.08,2.42,2.42,0,0,1-.58-.22,2.29,2.29,0,0,1-.5-.36,2,2,0,0,1-.38-.5h0v3.33H57.31V30.35h1.37v1h0a2.08,2.08,0,0,1,.86-.88,2.59,2.59,0,0,1,1.23-.29,2.88,2.88,0,0,1,1.31.28,2.67,2.67,0,0,1,.93.76,3.3,3.3,0,0,1,.55,1.12A4.85,4.85,0,0,1,63.77,33.69Zm-1.45,0a3.92,3.92,0,0,0-.09-.83,2.38,2.38,0,0,0-.3-.76,1.72,1.72,0,0,0-.56-.56,1.57,1.57,0,0,0-.85-.22,1.6,1.6,0,0,0-1.35.61,2.82,2.82,0,0,0-.47,1.75,3.62,3.62,0,0,0,.1.84,2.34,2.34,0,0,0,.32.75,1.73,1.73,0,0,0,.57.54,1.64,1.64,0,0,0,.85.21,1.56,1.56,0,0,0,1.33-.66,2.17,2.17,0,0,0,.34-.74A3.75,3.75,0,0,0,62.33,33.65Z"/><path class="cls-4" d="M69.84,36.93v-1h0a2.25,2.25,0,0,1-.39.52,2.3,2.3,0,0,1-.5.37,2.49,2.49,0,0,1-.58.23,2.54,2.54,0,0,1-.64.08,2.3,2.3,0,0,1-1.78-.63,2.81,2.81,0,0,1-.57-1.95V30.35h1.44v4a2.89,2.89,0,0,0,.08.7,1.37,1.37,0,0,0,.24.52,1,1,0,0,0,.42.32,1.82,1.82,0,0,0,1.36,0,1.37,1.37,0,0,0,.5-.43,1.86,1.86,0,0,0,.29-.66,3.72,3.72,0,0,0,.09-.85v-3.5h1.44v6.57Z"/><path class="cls-4" d="M76.38,37h-.83a4.59,4.59,0,0,1-.74-.06,1.58,1.58,0,0,1-.6-.22,1.12,1.12,0,0,1-.4-.45,1.67,1.67,0,0,1-.15-.76V31.37H72.38v-1h1.29v-2h1.45v2h1.5v1h-1.5V35.1a.83.83,0,0,0,.17.58.8.8,0,0,0,.59.18h.57l.17,0V37Z"/><path class="cls-4" d="M84.77,37h-.83a4.59,4.59,0,0,1-.74-.06,1.58,1.58,0,0,1-.6-.22,1.12,1.12,0,0,1-.4-.45,1.67,1.67,0,0,1-.15-.76V31.37H80.77v-1h1.29v-2H83.5v2H85v1H83.5V35.1a.83.83,0,0,0,.17.58.8.8,0,0,0,.59.18h.57l.17,0V37Z"/><path class="cls-4" d="M89.16,30.18a3,3,0,0,1,1.34.28,2.78,2.78,0,0,1,1,.77,3.33,3.33,0,0,1,.58,1.13,4.76,4.76,0,0,1,.19,1.37V34H87.39a2.77,2.77,0,0,0,.13.81,1.9,1.9,0,0,0,.35.63,1.55,1.55,0,0,0,.54.41,1.7,1.7,0,0,0,.72.15,1.9,1.9,0,0,0,1-.23,1.7,1.7,0,0,0,.61-.6h1.37a3.06,3.06,0,0,1-.45.81,2.83,2.83,0,0,1-.66.62,3,3,0,0,1-.85.39,3.66,3.66,0,0,1-1,.13,3.28,3.28,0,0,1-1.33-.26,2.82,2.82,0,0,1-1-.72,3.18,3.18,0,0,1-.62-1.1,4.31,4.31,0,0,1-.22-1.4,4,4,0,0,1,.22-1.33,3.3,3.3,0,0,1,.63-1.1,3,3,0,0,1,1-.76A3.16,3.16,0,0,1,89.16,30.18ZM90.8,33a2.77,2.77,0,0,0-.16-.71,1.73,1.73,0,0,0-.33-.55,1.43,1.43,0,0,0-.5-.35,1.91,1.91,0,0,0-1.37,0,1.51,1.51,0,0,0-.52.36,1.79,1.79,0,0,0-.35.55,2.54,2.54,0,0,0-.17.7Z"/><path class="cls-4" d="M94.61,30.35l1.41,2,1.39-2H99l-2.23,3.11,2.47,3.47H97.6L96,34.61l-1.61,2.32H92.72l2.43-3.44-2.23-3.13Z"/><path class="cls-4" d="M103.64,37h-.83a4.59,4.59,0,0,1-.74-.06,1.58,1.58,0,0,1-.6-.22,1.12,1.12,0,0,1-.4-.45,1.67,1.67,0,0,1-.15-.76V31.37H99.64v-1h1.29v-2h1.45v2h1.5v1h-1.5V35.1a.83.83,0,0,0,.17.58.8.8,0,0,0,.59.18h.57l.17,0V37Z"/><path class="cls-5" d="M39.1,4.36v6.08h3.67V11.5H37.85V4.36Z"/><path class="cls-5" d="M48.46,11.5l-.62-1.82h-3l-.62,1.82H43l2.57-7.13h1.69l2.52,7.13ZM46.39,5.29h0L45.2,8.73h2.33Z"/><path class="cls-5" d="M56.52,9.44a2,2,0,0,1-.19.89,1.8,1.8,0,0,1-.52.64,2.31,2.31,0,0,1-.79.39,3.56,3.56,0,0,1-1,.13H50.68V4.36H54a3.94,3.94,0,0,1,.92.1,2,2,0,0,1,.7.31,1.41,1.41,0,0,1,.45.55,1.87,1.87,0,0,1,.16.8,1.57,1.57,0,0,1-.28.95,1.69,1.69,0,0,1-.79.58h0a2.1,2.1,0,0,1,.61.25,1.49,1.49,0,0,1,.43.39,1.68,1.68,0,0,1,.25.52A2.13,2.13,0,0,1,56.52,9.44ZM55,6.36a.9.9,0,0,0-.32-.76,1.51,1.51,0,0,0-.93-.24H51.93v2h1.89a1.65,1.65,0,0,0,.45-.06,1.11,1.11,0,0,0,.37-.18.85.85,0,0,0,.25-.31A1.08,1.08,0,0,0,55,6.36Zm.28,3a1,1,0,0,0-.35-.86,1.59,1.59,0,0,0-1-.29h-2v2.28h2a1.62,1.62,0,0,0,1-.28A1,1,0,0,0,55.27,9.38Z"/><path class="cls-5" d="M63,4.37V5.43H59.08v1.9h3.64v1H59.08v2.13h4v1H57.83V4.37Z"/><path class="cls-5" d="M65.58,4.36v6.08h3.67V11.5H64.33V4.36Z"/><path class="cls-6" d="M6.14,32.33a2.36,2.36,0,0,1,.65.09,1.77,1.77,0,0,1,.57.27,1.39,1.39,0,0,1,.4.46,1.32,1.32,0,0,1,.15.65,1.48,1.48,0,0,1-.06.44,1.22,1.22,0,0,1-.19.37,1.18,1.18,0,0,1-.3.28,1.43,1.43,0,0,1-.41.18v0a1.37,1.37,0,0,1,.89.5,1.47,1.47,0,0,1,.3.93,1.61,1.61,0,0,1-.56,1.27,1.86,1.86,0,0,1-.63.37,2.53,2.53,0,0,1-.81.12,2.44,2.44,0,0,1-.74-.11,1.87,1.87,0,0,1-.61-.32,1.57,1.57,0,0,1-.42-.52,1.52,1.52,0,0,1-.15-.69v-.12h.52v.11a1.16,1.16,0,0,0,.1.47,1.17,1.17,0,0,0,.28.39,1.34,1.34,0,0,0,.44.27,1.63,1.63,0,0,0,.59.1,1.81,1.81,0,0,0,.6-.09,1.5,1.5,0,0,0,.46-.27,1.14,1.14,0,0,0,.43-.92,1.26,1.26,0,0,0-.09-.5,1.08,1.08,0,0,0-.28-.39,1.48,1.48,0,0,0-1-.33H5.79v-.44h.46a1.25,1.25,0,0,0,.8-.28,1,1,0,0,0,.34-.77,1.06,1.06,0,0,0-.1-.47A1,1,0,0,0,7,33a1.13,1.13,0,0,0-.4-.21,1.7,1.7,0,0,0-.49-.07,1.4,1.4,0,0,0-.54.1,1.19,1.19,0,0,0-.41.27,1.21,1.21,0,0,0-.26.4,1.31,1.31,0,0,0-.09.49H4.32a1.62,1.62,0,0,1,.12-.61,1.69,1.69,0,0,1,.36-.54,1.79,1.79,0,0,1,.57-.39A1.87,1.87,0,0,1,6.14,32.33Z"/><path class="cls-6" d="M11,32.33a1.91,1.91,0,0,1,.88.19,1.65,1.65,0,0,1,.63.57,2.75,2.75,0,0,1,.38.93A5.76,5.76,0,0,1,13,35.3a4,4,0,0,1-.51,2.23,1.7,1.7,0,0,1-1.5.75,1.7,1.7,0,0,1-1.49-.74A3.93,3.93,0,0,1,9,35.31a3.92,3.92,0,0,1,.52-2.23A1.7,1.7,0,0,1,11,32.33Zm-1.49,3q0,2.54,1.49,2.54t1.49-2.54a3.76,3.76,0,0,0-.38-1.89A1.22,1.22,0,0,0,11,32.77a1.21,1.21,0,0,0-1.1.63A3.75,3.75,0,0,0,9.54,35.3Z"/><path class="cls-6" d="M20.55,36a3.19,3.19,0,0,1-.12.85,2.25,2.25,0,0,1-.36.74,1.8,1.8,0,0,1-.61.52,1.86,1.86,0,0,1-.88.2,1.89,1.89,0,0,1-.47-.06,1.68,1.68,0,0,1-.43-.18,1.54,1.54,0,0,1-.36-.3,1.48,1.48,0,0,1-.26-.42h0v2.45h-.54v-6H17v.83h0a1.47,1.47,0,0,1,.26-.41,1.51,1.51,0,0,1,.37-.3,1.77,1.77,0,0,1,.44-.19,2,2,0,0,1,1.35.12,1.76,1.76,0,0,1,.62.5,2.22,2.22,0,0,1,.37.74A3.1,3.1,0,0,1,20.55,36ZM20,36a3,3,0,0,0-.07-.65,1.89,1.89,0,0,0-.24-.6,1.38,1.38,0,0,0-.45-.44,1.26,1.26,0,0,0-.68-.17,1.39,1.39,0,0,0-1.13.47A2.14,2.14,0,0,0,17,36a2.79,2.79,0,0,0,.08.69,1.79,1.79,0,0,0,.27.6,1.4,1.4,0,0,0,.48.42,1.45,1.45,0,0,0,.71.16,1.25,1.25,0,0,0,.64-.16,1.36,1.36,0,0,0,.45-.42,1.91,1.91,0,0,0,.26-.6A2.77,2.77,0,0,0,20,36Z"/><path class="cls-6" d="M22,33.78l1.25,1.66,1.22-1.66h.67l-1.58,2.09,1.71,2.28h-.68l-1.37-1.84-1.34,1.84h-.66l1.7-2.27-1.57-2.1Z"/><line class="cls-7" x1="31" y1="48.75" x2="31" y2="19.25"/><rect class="cls-6" x="29.38" y="48.5" width="3.25" height="0.5"/><rect class="cls-6" x="29.38" y="19" width="3.25" height="0.5"/><line class="cls-7" x1="223.27" y1="39.75" x2="223.27" y2="28.25"/><rect class="cls-6" x="221.64" y="39.5" width="3.25" height="0.5"/><rect class="cls-6" x="221.64" y="28" width="3.25" height="0.5"/><path class="cls-6" d="M233.46,36.93V32.64h-1.52v-.37l.6,0a1.59,1.59,0,0,0,.38-.08.87.87,0,0,0,.43-.35,1.64,1.64,0,0,0,.21-.65H234v5.77Z"/><path class="cls-6" d="M238.27,31.11a1.88,1.88,0,0,1,1.3.44,1.52,1.52,0,0,1,.49,1.19,1.88,1.88,0,0,1-.37,1.11,4.63,4.63,0,0,1-1.34,1.11,5.55,5.55,0,0,0-1.11.82,1.33,1.33,0,0,0-.37.68h3.21v.48h-3.8a2,2,0,0,1,.37-1.16,4.41,4.41,0,0,1,1.29-1.11,5.84,5.84,0,0,0,1.26-1,1.4,1.4,0,0,0,.34-.94,1.09,1.09,0,0,0-.36-.85,1.34,1.34,0,0,0-.93-.33,1.36,1.36,0,0,0-.57.11,1.21,1.21,0,0,0-.4.29,1.18,1.18,0,0,0-.24.41,1.46,1.46,0,0,0-.08.47V33h-.52v-.08a2,2,0,0,1,.11-.65,1.61,1.61,0,0,1,.34-.56,1.64,1.64,0,0,1,.57-.39A2,2,0,0,1,238.27,31.11Z"/><path class="cls-6" d="M245.46,34.74a3.19,3.19,0,0,1-.12.85,2.25,2.25,0,0,1-.36.74,1.79,1.79,0,0,1-.61.52,1.85,1.85,0,0,1-.88.2A1.89,1.89,0,0,1,243,37a1.62,1.62,0,0,1-.43-.18,1.52,1.52,0,0,1-.36-.3,1.47,1.47,0,0,1-.26-.42h0v2.45h-.54v-6h.5v.83h0a1.49,1.49,0,0,1,.26-.41,1.53,1.53,0,0,1,.37-.3,1.77,1.77,0,0,1,.44-.19,1.87,1.87,0,0,1,.49-.06,1.91,1.91,0,0,1,.86.18,1.76,1.76,0,0,1,.62.5,2.22,2.22,0,0,1,.37.74A3.11,3.11,0,0,1,245.46,34.74Zm-.54,0a3,3,0,0,0-.07-.65,1.89,1.89,0,0,0-.24-.6,1.38,1.38,0,0,0-.45-.44,1.27,1.27,0,0,0-.68-.17,1.39,1.39,0,0,0-1.13.47,2.14,2.14,0,0,0-.39,1.4,2.79,2.79,0,0,0,.08.69,1.79,1.79,0,0,0,.27.6,1.39,1.39,0,0,0,.48.42,1.45,1.45,0,0,0,.71.16,1.25,1.25,0,0,0,.64-.16,1.35,1.35,0,0,0,.45-.42,1.91,1.91,0,0,0,.26-.6A2.77,2.77,0,0,0,244.92,34.74Z"/><path class="cls-6" d="M246.92,32.55l1.25,1.66,1.22-1.66h.67l-1.58,2.09,1.71,2.28h-.68l-1.37-1.84-1.34,1.84h-.66l1.7-2.27-1.57-2.1Z"/><path class="cls-6" d="M251.92,36.08V37a1.18,1.18,0,0,1-.2.65,1,1,0,0,1-.24.26,1,1,0,0,1-.33.15v-.34a.58.58,0,0,0,.3-.28.88.88,0,0,0,.11-.43v0h-.37v-.85Z"/><path class="cls-6" d="M261.35,36.93V34a1.15,1.15,0,0,0-.25-.82,1.23,1.23,0,0,0-1.67.14,1.86,1.86,0,0,0-.3,1.14v2.52h-.54v-3a1.21,1.21,0,0,0-.23-.78.83.83,0,0,0-.69-.28,1.15,1.15,0,0,0-1,.43,1.82,1.82,0,0,0-.33,1.14v2.48h-.54V32.55h.5v.73h0a1.51,1.51,0,0,1,1.43-.86,1.64,1.64,0,0,1,.43.05,1.24,1.24,0,0,1,.36.16,1.1,1.1,0,0,1,.28.27,1.24,1.24,0,0,1,.18.37,1.44,1.44,0,0,1,.57-.64,1.6,1.6,0,0,1,.83-.21,1.41,1.41,0,0,1,1.09.39,1.57,1.57,0,0,1,.36,1.11v3Z"/><path class="cls-6" d="M265.06,32.43a1.81,1.81,0,0,1,.87.2,1.73,1.73,0,0,1,.6.52,2.3,2.3,0,0,1,.35.76,3.47,3.47,0,0,1,.11.89v.09h-3.37a2.38,2.38,0,0,0,.08.63,1.73,1.73,0,0,0,.26.55,1.32,1.32,0,0,0,.44.39,1.28,1.28,0,0,0,.63.15,1.61,1.61,0,0,0,.47-.06,1.35,1.35,0,0,0,.37-.17,1.17,1.17,0,0,0,.28-.26,1.63,1.63,0,0,0,.19-.33h.52a2,2,0,0,1-.26.52,1.65,1.65,0,0,1-.39.4,1.8,1.8,0,0,1-.52.26,2.21,2.21,0,0,1-.66.09,2,2,0,0,1-.87-.18,1.7,1.7,0,0,1-.61-.49,2.08,2.08,0,0,1-.36-.73,3.42,3.42,0,0,1-.12-.92,3.1,3.1,0,0,1,.12-.86,2.25,2.25,0,0,1,.36-.74,1.83,1.83,0,0,1,.62-.52A1.86,1.86,0,0,1,265.06,32.43Zm1.39,2a2,2,0,0,0-.11-.56,1.62,1.62,0,0,0-.27-.5,1.38,1.38,0,0,0-.43-.36,1.23,1.23,0,0,0-.59-.14,1.23,1.23,0,0,0-1,.46,1.82,1.82,0,0,0-.28.5,2.86,2.86,0,0,0-.15.6Z"/><path class="cls-6" d="M271.92,30.87v6.05h-.49V36.1h0a1.36,1.36,0,0,1-.26.4,1.72,1.72,0,0,1-.37.3,1.89,1.89,0,0,1-.45.19,1.74,1.74,0,0,1-.48.07,1.86,1.86,0,0,1-.85-.19,1.79,1.79,0,0,1-.61-.5,2.22,2.22,0,0,1-.37-.74,3.11,3.11,0,0,1-.12-.89,3.23,3.23,0,0,1,.12-.86,2.21,2.21,0,0,1,.36-.74,1.79,1.79,0,0,1,.61-.52,2,2,0,0,1,1.35-.13,1.71,1.71,0,0,1,.44.18,1.49,1.49,0,0,1,.36.3,1.38,1.38,0,0,1,.25.42h0V30.87Zm-3.5,3.87a2.78,2.78,0,0,0,0,.43,2.45,2.45,0,0,0,.11.43,1.9,1.9,0,0,0,.19.39,1.42,1.42,0,0,0,.27.32,1.2,1.2,0,0,0,.37.21,1.32,1.32,0,0,0,.46.08,1.43,1.43,0,0,0,.68-.15A1.41,1.41,0,0,0,271,36a1.77,1.77,0,0,0,.29-.59,2.64,2.64,0,0,0,.09-.71,2.69,2.69,0,0,0-.09-.68,1.82,1.82,0,0,0-.28-.6,1.37,1.37,0,0,0-1.18-.58,1.29,1.29,0,0,0-.45.07,1.2,1.2,0,0,0-.36.21,1.45,1.45,0,0,0-.28.31,1.87,1.87,0,0,0-.19.38,2.35,2.35,0,0,0-.11.44A2.81,2.81,0,0,0,268.42,34.74Z"/><path class="cls-6" d="M273.94,30.64v.86h-.54v-.86Zm0,1.91v4.38h-.54V32.55Z"/><path class="cls-6" d="M278.46,36.93v-.79h0a1.64,1.64,0,0,1-.26.38,1.56,1.56,0,0,1-.35.29,1.66,1.66,0,0,1-.42.18,1.81,1.81,0,0,1-.48.06,1.48,1.48,0,0,1-1.16-.42,1.76,1.76,0,0,1-.37-1.21V32.55h.54v2.85a1.77,1.77,0,0,0,.07.51,1,1,0,0,0,.21.38.9.9,0,0,0,.36.23,1.55,1.55,0,0,0,.53.08,1.13,1.13,0,0,0,.59-.15,1.28,1.28,0,0,0,.41-.39,1.75,1.75,0,0,0,.24-.55,2.6,2.6,0,0,0,.08-.62V32.55H279v4.38Z"/><path class="cls-6" d="M285.91,36.93V34a1.15,1.15,0,0,0-.25-.82,1.23,1.23,0,0,0-1.67.14,1.86,1.86,0,0,0-.3,1.14v2.52h-.54v-3a1.21,1.21,0,0,0-.23-.78.83.83,0,0,0-.69-.28,1.15,1.15,0,0,0-1,.43,1.82,1.82,0,0,0-.33,1.14v2.48h-.54V32.55h.5v.73h0a1.51,1.51,0,0,1,1.43-.86,1.64,1.64,0,0,1,.43.05,1.24,1.24,0,0,1,.36.16,1.1,1.1,0,0,1,.28.27,1.24,1.24,0,0,1,.18.37,1.44,1.44,0,0,1,.57-.64,1.6,1.6,0,0,1,.83-.21,1.41,1.41,0,0,1,1.09.39,1.57,1.57,0,0,1,.36,1.11v3Z"/><path class="cls-6" d="M292,37h-.44a2,2,0,0,1-.45,0,.64.64,0,0,1-.3-.15.59.59,0,0,1-.16-.29,1.76,1.76,0,0,1,0-.45V33h-.88v-.45h.88V31.24h.54v1.31h1V33h-1v3a1.16,1.16,0,0,0,0,.22.43.43,0,0,0,.07.17.33.33,0,0,0,.14.11.58.58,0,0,0,.23,0h.54V37Z"/><path class="cls-6" d="M295,32.43a1.81,1.81,0,0,1,.87.2,1.73,1.73,0,0,1,.6.52,2.3,2.3,0,0,1,.35.76,3.47,3.47,0,0,1,.11.89v.09h-3.37a2.38,2.38,0,0,0,.08.63,1.73,1.73,0,0,0,.26.55,1.32,1.32,0,0,0,.44.39,1.28,1.28,0,0,0,.63.15,1.61,1.61,0,0,0,.47-.06,1.35,1.35,0,0,0,.37-.17,1.17,1.17,0,0,0,.28-.26,1.63,1.63,0,0,0,.19-.33h.52a2,2,0,0,1-.26.52,1.65,1.65,0,0,1-.39.4,1.8,1.8,0,0,1-.52.26,2.21,2.21,0,0,1-.66.09,2,2,0,0,1-.87-.18,1.7,1.7,0,0,1-.61-.49,2.08,2.08,0,0,1-.36-.73,3.42,3.42,0,0,1-.12-.92,3.1,3.1,0,0,1,.12-.86,2.25,2.25,0,0,1,.36-.74,1.83,1.83,0,0,1,.62-.52A1.86,1.86,0,0,1,295,32.43Zm1.39,2a2,2,0,0,0-.11-.56,1.62,1.62,0,0,0-.27-.5,1.38,1.38,0,0,0-.43-.36,1.23,1.23,0,0,0-.59-.14,1.23,1.23,0,0,0-1,.46,1.82,1.82,0,0,0-.28.5,2.86,2.86,0,0,0-.15.6Z"/><path class="cls-6" d="M298.28,32.55l1.25,1.66,1.22-1.66h.67l-1.58,2.09,1.71,2.28h-.68l-1.37-1.84-1.34,1.84h-.66l1.7-2.27-1.57-2.1Z"/><path class="cls-6" d="M304.18,37h-.44a2,2,0,0,1-.45,0,.64.64,0,0,1-.3-.15.59.59,0,0,1-.16-.29,1.76,1.76,0,0,1,0-.45V33h-.88v-.45h.88V31.24h.54v1.31h1V33h-1v3a1.16,1.16,0,0,0,0,.22.43.43,0,0,0,.07.17.33.33,0,0,0,.14.11.58.58,0,0,0,.23,0h.54V37Z"/><line class="cls-7" x1="36.25" y1="54.5" x2="45.75" y2="54.5"/><rect class="cls-6" x="36" y="52.88" width="0.5" height="3.25"/><rect class="cls-6" x="45.5" y="52.88" width="0.5" height="3.25"/><path class="cls-6" d="M38,64.55V60.27H36.44V59.9l.6,0a1.59,1.59,0,0,0,.38-.08.87.87,0,0,0,.43-.35,1.64,1.64,0,0,0,.21-.65h.42v5.77Z"/><path class="cls-6" d="M42.76,58.74a1.91,1.91,0,0,1,.88.19,1.66,1.66,0,0,1,.63.57,2.75,2.75,0,0,1,.38.93,5.77,5.77,0,0,1,.13,1.28,4,4,0,0,1-.51,2.23,1.88,1.88,0,0,1-3,0,5.08,5.08,0,0,1,0-4.46A1.7,1.7,0,0,1,42.76,58.74Zm-1.49,3q0,2.54,1.49,2.54t1.49-2.54a3.76,3.76,0,0,0-.38-1.89,1.23,1.23,0,0,0-1.12-.63,1.21,1.21,0,0,0-1.1.63A3.76,3.76,0,0,0,41.27,61.7Z"/><path class="cls-6" d="M52.29,62.37a3.19,3.19,0,0,1-.12.85,2.25,2.25,0,0,1-.36.74,1.79,1.79,0,0,1-.61.52,1.85,1.85,0,0,1-.88.2,1.89,1.89,0,0,1-.47-.06,1.62,1.62,0,0,1-.43-.18,1.52,1.52,0,0,1-.36-.3,1.47,1.47,0,0,1-.26-.42h0v2.45h-.54v-6h.5V61h0A1.49,1.49,0,0,1,49,60.6a1.53,1.53,0,0,1,.37-.3,1.77,1.77,0,0,1,.44-.19,1.87,1.87,0,0,1,.49-.06,1.91,1.91,0,0,1,.86.18,1.76,1.76,0,0,1,.62.5,2.22,2.22,0,0,1,.37.74A3.11,3.11,0,0,1,52.29,62.37Zm-.54,0a3,3,0,0,0-.07-.65,1.89,1.89,0,0,0-.24-.6,1.38,1.38,0,0,0-.45-.44,1.27,1.27,0,0,0-.68-.17,1.39,1.39,0,0,0-1.13.47,2.14,2.14,0,0,0-.39,1.4,2.79,2.79,0,0,0,.08.69,1.79,1.79,0,0,0,.27.6,1.39,1.39,0,0,0,.48.42,1.45,1.45,0,0,0,.71.16,1.25,1.25,0,0,0,.64-.16,1.35,1.35,0,0,0,.45-.42,1.91,1.91,0,0,0,.26-.6A2.77,2.77,0,0,0,51.75,62.37Z"/><path class="cls-6" d="M53.75,60.18,55,61.84l1.22-1.66h.67L55.3,62.27,57,64.55h-.68L55,62.71l-1.34,1.84h-.66l1.7-2.27-1.57-2.1Z"/><rect class="cls-8" x="36" y="19" width="10" height="30"/></g></svg>