<svg xmlns="http://www.w3.org/2000/svg" viewBox="0 0 395 78"><defs><style>.cls-1{fill:#fff;}.cls-1,.cls-5,.cls-6{opacity:0.6;}.cls-2{opacity:0.4;}.cls-3{fill:#969696;}.cls-4{fill:#464646;}.cls-5{fill:#dcdcdc;}.cls-7{fill:#bebebe;}.cls-8{fill:none;stroke:#a0a0a0;stroke-miterlimit:10;}</style></defs><title>Artboard 52</title><g id="Content"><rect class="cls-1" x="23" y="22" width="84" height="34"/><g class="cls-2"><path class="cls-3" d="M107,22V56H23V22h84m1-1H22V57h86V21Z"/></g><rect class="cls-1" x="170" y="22" width="64" height="34"/><g class="cls-2"><path class="cls-3" d="M234,22V56H170V22h64m1-1H169V57h66V21Z"/></g><path class="cls-4" d="M51.13,43.11a3.21,3.21,0,0,1-1-.14,2.49,2.49,0,0,1-.79-.41,2.29,2.29,0,0,1-.57-.65,2.45,2.45,0,0,1-.3-.86h1.34a1.6,1.6,0,0,0,.17.39,1.14,1.14,0,0,0,.28.31,1.3,1.3,0,0,0,.39.21,1.55,1.55,0,0,0,.5.08,1.46,1.46,0,0,0,.88-.26,2,2,0,0,0,.59-.69,3.5,3.5,0,0,0,.33-1A6.78,6.78,0,0,0,53.08,39h0a2.16,2.16,0,0,1-.67.68,2.21,2.21,0,0,1-.9.3,2.48,2.48,0,0,1-1.37-.11,2.34,2.34,0,0,1-1.35-1,2.76,2.76,0,0,1-.49-1.62,3,3,0,0,1,.85-2.2,2.84,2.84,0,0,1,2.13-.87,3.25,3.25,0,0,1,1.42.29,2.51,2.51,0,0,1,1,.86,5.88,5.88,0,0,1,.79,3.34,7.74,7.74,0,0,1-.07,1.05,5.85,5.85,0,0,1-.23,1,4.56,4.56,0,0,1-.42.92,3,3,0,0,1-.62.75,2.77,2.77,0,0,1-.86.5A3.19,3.19,0,0,1,51.13,43.11Zm1.8-5.94a1.88,1.88,0,0,0-.45-1.3,1.53,1.53,0,0,0-1.22-.52,1.41,1.41,0,0,0-1.13.53,1.9,1.9,0,0,0-.45,1.27,2,2,0,0,0,.43,1.32,1.43,1.43,0,0,0,1.17.54,1.55,1.55,0,0,0,1.2-.52A2,2,0,0,0,52.93,37.17Z"/><path class="cls-4" d="M61.79,40.44a2.37,2.37,0,0,1-.89,1.95,3.88,3.88,0,0,1-4.51,0,2.33,2.33,0,0,1-.88-1.93,2.43,2.43,0,0,1,.11-.76,2.08,2.08,0,0,1,.33-.63,2,2,0,0,1,.52-.47,2.17,2.17,0,0,1,.7-.28v0a1.81,1.81,0,0,1-1-.67,1.92,1.92,0,0,1-.33-1.14,2,2,0,0,1,.81-1.65,3.16,3.16,0,0,1,2-.62,2.91,2.91,0,0,1,2,.67,2,2,0,0,1,.76,1.58,2.14,2.14,0,0,1-.08.61,1.83,1.83,0,0,1-.25.52,1.75,1.75,0,0,1-.41.42,2,2,0,0,1-.57.28v0a2.06,2.06,0,0,1,1.24.75A2.24,2.24,0,0,1,61.79,40.44Zm-1.39,0a1.45,1.45,0,0,0-.48-1.11,1.79,1.79,0,0,0-1.27-.44,1.88,1.88,0,0,0-1.27.42,1.42,1.42,0,0,0-.49,1.13,1.53,1.53,0,0,0,.5,1.18,1.79,1.79,0,0,0,1.27.46,1.74,1.74,0,0,0,1.25-.45A1.53,1.53,0,0,0,60.39,40.4Zm-.26-3.83A1.42,1.42,0,0,0,60,36a1,1,0,0,0-.32-.42,1.85,1.85,0,0,0-2.14,0,1.18,1.18,0,0,0-.42.94,1.19,1.19,0,0,0,.41.94,1.85,1.85,0,0,0,2.19,0A1.21,1.21,0,0,0,60.13,36.57Z"/><path class="cls-4" d="M64.8,41.29v1.64H63.2V41.29Z"/><path class="cls-4" d="M69.37,34.2a3.64,3.64,0,0,1,1,.15,2.72,2.72,0,0,1,.88.44,2.18,2.18,0,0,1,.62.72,2.1,2.1,0,0,1,.23,1,2.16,2.16,0,0,1-.08.62,1.83,1.83,0,0,1-.25.52,1.63,1.63,0,0,1-.4.41,1.88,1.88,0,0,1-.56.27v0a1.93,1.93,0,0,1,1.2.71,2.07,2.07,0,0,1,.42,1.3,2.5,2.5,0,0,1-.89,2,3.31,3.31,0,0,1-2.23.76,3.84,3.84,0,0,1-1.17-.18,2.94,2.94,0,0,1-1-.52,2.49,2.49,0,0,1-.67-.84,2.55,2.55,0,0,1-.25-1.14V40.3H67.6v.13a1.45,1.45,0,0,0,.49,1.11,1.58,1.58,0,0,0,.52.3,1.91,1.91,0,0,0,.64.11,1.81,1.81,0,0,0,1.28-.44A1.45,1.45,0,0,0,71,40.4a1.34,1.34,0,0,0-.45-1.09,2.2,2.2,0,0,0-1.46-.39h-.35v-1h.43a1.86,1.86,0,0,0,1.2-.35,1.1,1.1,0,0,0,.4-.9,1.39,1.39,0,0,0-.11-.58,1.12,1.12,0,0,0-.31-.41,1.34,1.34,0,0,0-.46-.24,2,2,0,0,0-.57-.08,1.7,1.7,0,0,0-.6.1,1.41,1.41,0,0,0-.48.3,1.44,1.44,0,0,0-.33.47,1.62,1.62,0,0,0-.13.64H66.46a2.81,2.81,0,0,1,.23-1,2.55,2.55,0,0,1,.59-.84,2.75,2.75,0,0,1,.91-.56A3.27,3.27,0,0,1,69.37,34.2Z"/><path class="cls-4" d="M196.66,44.16a4,4,0,0,1-1.22-.18,3.13,3.13,0,0,1-1-.52,2.87,2.87,0,0,1-.71-.81,3.06,3.06,0,0,1-.37-1.07H195a2,2,0,0,0,.21.49,1.42,1.42,0,0,0,.34.39,1.63,1.63,0,0,0,.49.26,1.94,1.94,0,0,0,.63.1,1.83,1.83,0,0,0,1.1-.33,2.46,2.46,0,0,0,.73-.86A4.39,4.39,0,0,0,199,40.4,8.48,8.48,0,0,0,199.1,39h0a2.69,2.69,0,0,1-.84.85,2.76,2.76,0,0,1-1.12.38,3.1,3.1,0,0,1-1.71-.13,2.92,2.92,0,0,1-1.69-1.2,3.45,3.45,0,0,1-.61-2,3.81,3.81,0,0,1,1.06-2.75A3.55,3.55,0,0,1,196.82,33a4.06,4.06,0,0,1,1.77.36,3.14,3.14,0,0,1,1.24,1.07,7.34,7.34,0,0,1,1,4.17,9.76,9.76,0,0,1-.09,1.32,7.4,7.4,0,0,1-.29,1.28,5.71,5.71,0,0,1-.52,1.15,3.78,3.78,0,0,1-.78.93,3.47,3.47,0,0,1-1.07.63A4,4,0,0,1,196.66,44.16Zm2.25-7.43a2.35,2.35,0,0,0-.56-1.63,1.91,1.91,0,0,0-1.52-.64,1.76,1.76,0,0,0-1.41.67,2.37,2.37,0,0,0-.56,1.58,2.55,2.55,0,0,0,.53,1.65,1.79,1.79,0,0,0,1.46.68,1.94,1.94,0,0,0,1.5-.64A2.43,2.43,0,0,0,198.91,36.73Z"/><path class="cls-4" d="M210,40.82a3,3,0,0,1-1.11,2.43,4.85,4.85,0,0,1-5.63,0,2.92,2.92,0,0,1-1.11-2.42,3,3,0,0,1,.14-.94,2.58,2.58,0,0,1,.41-.79,2.53,2.53,0,0,1,.65-.59,2.72,2.72,0,0,1,.88-.36v0a2.26,2.26,0,0,1-1.22-.84,2.4,2.4,0,0,1-.42-1.42,2.49,2.49,0,0,1,1-2.07,4,4,0,0,1,2.47-.78,3.64,3.64,0,0,1,2.53.84,2.54,2.54,0,0,1,1,2,2.67,2.67,0,0,1-.11.76,2.28,2.28,0,0,1-.31.66,2.18,2.18,0,0,1-.51.52,2.49,2.49,0,0,1-.71.35v0a2.57,2.57,0,0,1,1.55.94A2.8,2.8,0,0,1,210,40.82Zm-1.74-.05a1.82,1.82,0,0,0-.6-1.39,2.24,2.24,0,0,0-1.58-.55,2.35,2.35,0,0,0-1.58.52,1.78,1.78,0,0,0-.61,1.41,1.91,1.91,0,0,0,.62,1.47,2.23,2.23,0,0,0,1.58.57,2.17,2.17,0,0,0,1.56-.56A1.91,1.91,0,0,0,208.24,40.77ZM207.92,36a1.78,1.78,0,0,0-.13-.7,1.3,1.3,0,0,0-.4-.52,2.31,2.31,0,0,0-2.68.05,1.47,1.47,0,0,0-.52,1.17,1.49,1.49,0,0,0,.51,1.18,2.31,2.31,0,0,0,2.73,0A1.52,1.52,0,0,0,207.92,36Z"/><path class="cls-4" d="M213.75,41.88v2.05h-2V41.88Z"/><path class="cls-4" d="M219.46,33a4.54,4.54,0,0,1,1.29.18,3.42,3.42,0,0,1,1.1.55,2.74,2.74,0,0,1,.77.9,2.62,2.62,0,0,1,.29,1.25,2.72,2.72,0,0,1-.11.77,2.31,2.31,0,0,1-.31.65,2,2,0,0,1-.51.51,2.33,2.33,0,0,1-.7.33v0a2.42,2.42,0,0,1,1.49.89,2.58,2.58,0,0,1,.52,1.63,3.12,3.12,0,0,1-1.11,2.49,4.14,4.14,0,0,1-2.79,1,4.8,4.8,0,0,1-1.46-.22,3.68,3.68,0,0,1-1.22-.65,3.12,3.12,0,0,1-.83-1.05,3.18,3.18,0,0,1-.31-1.43v-.17h1.67v.17a1.83,1.83,0,0,0,.17.79,1.82,1.82,0,0,0,.45.6,2,2,0,0,0,.66.38,2.38,2.38,0,0,0,.8.13,2.27,2.27,0,0,0,1.6-.55,1.81,1.81,0,0,0,.59-1.39,1.68,1.68,0,0,0-.56-1.36,2.75,2.75,0,0,0-1.82-.48h-.44V37.65h.54a2.32,2.32,0,0,0,1.5-.44,1.37,1.37,0,0,0,.5-1.12,1.74,1.74,0,0,0-.14-.73,1.4,1.4,0,0,0-.39-.51,1.68,1.68,0,0,0-.58-.3,2.48,2.48,0,0,0-.71-.1,2.14,2.14,0,0,0-.75.13,1.77,1.77,0,0,0-.6.37,1.8,1.8,0,0,0-.41.59,2,2,0,0,0-.16.79h-1.67A3.51,3.51,0,0,1,216.1,35a3.17,3.17,0,0,1,.74-1.05,3.42,3.42,0,0,1,1.13-.7A4.08,4.08,0,0,1,219.46,33Z"/><polygon class="cls-4" points="90 49.35 86 45.35 86.7 44.65 90 47.94 93.3 44.65 94 45.35 90 49.35"/><polygon class="cls-4" points="90 28.65 94 32.65 93.3 33.35 90 30.06 86.7 33.35 86 32.65 90 28.65"/><rect class="cls-5" x="135" y="22" width="34" height="34"/><g class="cls-6"><path class="cls-7" d="M169,22V56H135V22h34m1-1H134V57h36V21Z"/></g><line class="cls-8" x1="134" y1="56.5" x2="170" y2="56.5"/><rect class="cls-5" x="235" y="22" width="34" height="34"/><g class="cls-6"><path class="cls-7" d="M269,22V56H235V22h34m1-1H234V57h36V21Z"/></g><line class="cls-8" x1="234" y1="56.5" x2="270" y2="56.5"/><polygon class="cls-4" points="154.32 45.24 147.52 39 154.32 32.76 155.68 34.24 150.48 39 155.68 43.76 154.32 45.24"/><polygon class="cls-4" points="249.68 45.24 248.32 43.76 253.52 39 248.32 34.24 249.68 32.76 256.48 39 249.68 45.24"/><rect class="cls-5" x="300" y="22" width="34" height="34"/><g class="cls-6"><path class="cls-7" d="M334,22V56H300V22h34m1-1H299V57h36V21Z"/></g><line class="cls-8" x1="299" y1="56.5" x2="335" y2="56.5"/><rect class="cls-5" x="335" y="22" width="34" height="34"/><g class="cls-6"><path class="cls-7" d="M369,22V56H335V22h34m1-1H334V57h36V21Z"/></g><line class="cls-8" x1="334" y1="56.5" x2="370" y2="56.5"/><polygon class="cls-4" points="357 38 353 38 353 34 351 34 351 38 347 38 347 40 351 40 351 44 353 44 353 40 357 40 357 38"/><rect class="cls-4" x="312" y="38" width="10" height="2"/></g></svg>