<svg xmlns="http://www.w3.org/2000/svg" viewBox="0 0 163 166"><defs><style>.cls-1{fill:#dcdcdc;}.cls-1,.cls-2{opacity:0.6;}.cls-3{fill:#bebebe;}.cls-11,.cls-12,.cls-13,.cls-14,.cls-4,.cls-5,.cls-8,.cls-9{fill:none;stroke-miterlimit:10;}.cls-4{stroke:#a0a0a0;}.cls-11,.cls-12,.cls-13,.cls-14,.cls-5,.cls-8,.cls-9{stroke:#f0f;stroke-width:0.5px;}.cls-6,.cls-7{fill:#f0f;}.cls-7{opacity:0.2;}.cls-8{stroke-dasharray:2.05 3.07;}.cls-9{stroke-dasharray:1.99 2.99;}.cls-10{fill:#464646;}.cls-11{stroke-dasharray:2.05 3.08;}.cls-12{stroke-dasharray:2.24 3.36;}.cls-13{stroke-dasharray:2 3;}.cls-14{stroke-dasharray:1.8 2.7;}</style></defs><title>Artboard 31</title><g id="Content"><rect class="cls-1" x="16.5" y="26" width="131" height="28"/><g class="cls-2"><path class="cls-3" d="M147.5,26V54H16.5V26h131m1-1H15.5V55h133V25Z"/></g><line class="cls-4" x1="15.5" y1="54.5" x2="148.5" y2="54.5"/><line class="cls-5" x1="15.75" y1="60.5" x2="25.25" y2="60.5"/><rect class="cls-6" x="15.5" y="58.88" width="0.5" height="3.25"/><rect class="cls-6" x="25" y="58.88" width="0.5" height="3.25"/><path class="cls-6" d="M17.47,70.55V66.27H15.94V65.9l.6,0a1.59,1.59,0,0,0,.38-.08.87.87,0,0,0,.43-.35,1.64,1.64,0,0,0,.21-.65H18v5.77Z"/><path class="cls-6" d="M22.26,64.74a1.91,1.91,0,0,1,.88.19,1.66,1.66,0,0,1,.63.57,2.75,2.75,0,0,1,.38.93,5.77,5.77,0,0,1,.13,1.28,4,4,0,0,1-.51,2.23,1.88,1.88,0,0,1-3,0,5.08,5.08,0,0,1,0-4.46A1.7,1.7,0,0,1,22.26,64.74Zm-1.49,3q0,2.54,1.49,2.54t1.49-2.54a3.76,3.76,0,0,0-.38-1.89,1.23,1.23,0,0,0-1.12-.63,1.21,1.21,0,0,0-1.1.63A3.76,3.76,0,0,0,20.78,67.7Z"/><path class="cls-6" d="M31.79,68.37a3.19,3.19,0,0,1-.12.85,2.25,2.25,0,0,1-.36.74,1.79,1.79,0,0,1-.61.52,1.85,1.85,0,0,1-.88.2,1.89,1.89,0,0,1-.47-.06,1.62,1.62,0,0,1-.43-.18,1.52,1.52,0,0,1-.36-.3,1.47,1.47,0,0,1-.26-.42h0v2.45h-.54v-6h.5V67h0a1.49,1.49,0,0,1,.26-.41,1.53,1.53,0,0,1,.37-.3,1.77,1.77,0,0,1,.44-.19,1.87,1.87,0,0,1,.49-.06,1.91,1.91,0,0,1,.86.18,1.76,1.76,0,0,1,.62.5,2.22,2.22,0,0,1,.37.74A3.11,3.11,0,0,1,31.79,68.37Zm-.54,0a3,3,0,0,0-.07-.65,1.89,1.89,0,0,0-.24-.6,1.38,1.38,0,0,0-.45-.44,1.27,1.27,0,0,0-.68-.17,1.39,1.39,0,0,0-1.13.47,2.14,2.14,0,0,0-.39,1.4,2.79,2.79,0,0,0,.08.69,1.79,1.79,0,0,0,.27.6,1.39,1.39,0,0,0,.48.42,1.45,1.45,0,0,0,.71.16,1.25,1.25,0,0,0,.64-.16,1.35,1.35,0,0,0,.45-.42,1.91,1.91,0,0,0,.26-.6A2.77,2.77,0,0,0,31.25,68.37Z"/><path class="cls-6" d="M33.25,66.18l1.25,1.66,1.22-1.66h.67L34.8,68.27l1.71,2.28h-.68l-1.37-1.84-1.34,1.84h-.66l1.7-2.27-1.57-2.1Z"/><path class="cls-6" d="M48.76,8.29v.46h-2V14h-.54V8.75h-2V8.29Z"/><path class="cls-6" d="M51.22,9.5a1.81,1.81,0,0,1,.87.2,1.73,1.73,0,0,1,.6.52A2.3,2.3,0,0,1,53,11a3.47,3.47,0,0,1,.11.89V12H49.78a2.38,2.38,0,0,0,.08.63,1.73,1.73,0,0,0,.26.55,1.32,1.32,0,0,0,.44.39,1.28,1.28,0,0,0,.63.15,1.61,1.61,0,0,0,.47-.06,1.35,1.35,0,0,0,.37-.17,1.17,1.17,0,0,0,.28-.26,1.63,1.63,0,0,0,.19-.33H53a2,2,0,0,1-.26.52,1.65,1.65,0,0,1-.39.4,1.8,1.8,0,0,1-.52.26,2.21,2.21,0,0,1-.66.09,2,2,0,0,1-.87-.18,1.7,1.7,0,0,1-.61-.49,2.08,2.08,0,0,1-.36-.73,3.42,3.42,0,0,1-.12-.92,3.1,3.1,0,0,1,.12-.86,2.25,2.25,0,0,1,.36-.74,1.83,1.83,0,0,1,.62-.52A1.86,1.86,0,0,1,51.22,9.5Zm1.39,2a2,2,0,0,0-.11-.56,1.62,1.62,0,0,0-.27-.5,1.38,1.38,0,0,0-.43-.36,1.23,1.23,0,0,0-.59-.14,1.23,1.23,0,0,0-1,.46,1.82,1.82,0,0,0-.28.5,2.86,2.86,0,0,0-.15.6Z"/><path class="cls-6" d="M54.48,9.63l1.25,1.66,1.22-1.66h.67L56,11.72,57.74,14h-.68l-1.37-1.84L54.34,14h-.66l1.7-2.27-1.57-2.1Z"/><path class="cls-6" d="M60.38,14h-.44a2,2,0,0,1-.45,0,.64.64,0,0,1-.3-.15.59.59,0,0,1-.16-.29,1.76,1.76,0,0,1,0-.45v-3h-.88V9.63H59V8.31h.54V9.63h1v.45h-1v3a1.16,1.16,0,0,0,0,.22.43.43,0,0,0,.07.17.33.33,0,0,0,.14.11.58.58,0,0,0,.23,0h.54V14Z"/><path class="cls-6" d="M65.82,9.5a2.29,2.29,0,0,1,.65.09,1.69,1.69,0,0,1,.52.25,1.36,1.36,0,0,1,.37.4,1.54,1.54,0,0,1,.2.55H67a1.16,1.16,0,0,0-.15-.34,1,1,0,0,0-.25-.27,1.12,1.12,0,0,0-.35-.17,1.58,1.58,0,0,0-.45-.06,1.34,1.34,0,0,0-.66.16,1.46,1.46,0,0,0-.48.42,2,2,0,0,0-.29.6,2.38,2.38,0,0,0-.1.7,2.45,2.45,0,0,0,.09.67,1.91,1.91,0,0,0,.28.6,1.51,1.51,0,0,0,.47.43,1.4,1.4,0,0,0,1.14.08,1.25,1.25,0,0,0,.38-.22,1.19,1.19,0,0,0,.26-.33,1.25,1.25,0,0,0,.14-.38h.54a2,2,0,0,1-.2.57,1.65,1.65,0,0,1-.37.47,1.7,1.7,0,0,1-.53.32,1.92,1.92,0,0,1-.69.12,2,2,0,0,1-.86-.18,1.91,1.91,0,0,1-.65-.49,2.18,2.18,0,0,1-.41-.73,3,3,0,0,1,0-1.78,2.21,2.21,0,0,1,.39-.74,1.93,1.93,0,0,1,.65-.51A2,2,0,0,1,65.82,9.5Z"/><path class="cls-6" d="M70.49,9.5a1.81,1.81,0,0,1,.87.2,1.73,1.73,0,0,1,.6.52,2.3,2.3,0,0,1,.35.76,3.47,3.47,0,0,1,.11.89V12H69a2.38,2.38,0,0,0,.08.63,1.73,1.73,0,0,0,.26.55,1.32,1.32,0,0,0,.44.39,1.28,1.28,0,0,0,.63.15,1.61,1.61,0,0,0,.47-.06,1.35,1.35,0,0,0,.37-.17,1.17,1.17,0,0,0,.28-.26,1.63,1.63,0,0,0,.19-.33h.52a2,2,0,0,1-.26.52,1.65,1.65,0,0,1-.39.4,1.8,1.8,0,0,1-.52.26,2.21,2.21,0,0,1-.66.09A2,2,0,0,1,69.6,14a1.7,1.7,0,0,1-.61-.49,2.08,2.08,0,0,1-.36-.73,3.42,3.42,0,0,1-.12-.92,3.1,3.1,0,0,1,.12-.86,2.25,2.25,0,0,1,.36-.74,1.83,1.83,0,0,1,.62-.52A1.86,1.86,0,0,1,70.49,9.5Zm1.39,2a2,2,0,0,0-.11-.56,1.62,1.62,0,0,0-.27-.5,1.38,1.38,0,0,0-.43-.36,1.23,1.23,0,0,0-.59-.14,1.23,1.23,0,0,0-1,.46,1.82,1.82,0,0,0-.28.5,2.86,2.86,0,0,0-.15.6Z"/><path class="cls-6" d="M75.48,9.5a2.22,2.22,0,0,1,.72.1,1.22,1.22,0,0,1,.5.31,1.24,1.24,0,0,1,.29.51,2.54,2.54,0,0,1,.09.72V14h-.54V11.23a1.47,1.47,0,0,0-.27-1,1,1,0,0,0-.84-.33,1.37,1.37,0,0,0-.57.12,1.25,1.25,0,0,0-.43.32,1.45,1.45,0,0,0-.27.47,1.75,1.75,0,0,0-.1.59V14h-.54V9.63h.54v.76h0A1.33,1.33,0,0,1,74.3,10a1.43,1.43,0,0,1,.33-.28,1.56,1.56,0,0,1,.4-.17A1.67,1.67,0,0,1,75.48,9.5Z"/><path class="cls-6" d="M80.29,14h-.44a2,2,0,0,1-.45,0,.64.64,0,0,1-.3-.15.59.59,0,0,1-.16-.29,1.76,1.76,0,0,1,0-.45v-3H78V9.63h.88V8.31h.54V9.63h1v.45h-1v3a1.16,1.16,0,0,0,0,.22.43.43,0,0,0,.07.17.33.33,0,0,0,.14.11.58.58,0,0,0,.23,0h.54V14Z"/><path class="cls-6" d="M83.31,9.5a1.81,1.81,0,0,1,.87.2,1.73,1.73,0,0,1,.6.52,2.3,2.3,0,0,1,.35.76,3.47,3.47,0,0,1,.11.89V12H81.87a2.38,2.38,0,0,0,.08.63,1.73,1.73,0,0,0,.26.55,1.32,1.32,0,0,0,.44.39,1.28,1.28,0,0,0,.63.15,1.61,1.61,0,0,0,.47-.06,1.35,1.35,0,0,0,.37-.17,1.17,1.17,0,0,0,.28-.26,1.63,1.63,0,0,0,.19-.33h.52a2,2,0,0,1-.26.52,1.65,1.65,0,0,1-.39.4,1.8,1.8,0,0,1-.52.26,2.21,2.21,0,0,1-.66.09,2,2,0,0,1-.87-.18,1.7,1.7,0,0,1-.61-.49,2.08,2.08,0,0,1-.36-.73,3.42,3.42,0,0,1-.12-.92,3.1,3.1,0,0,1,.12-.86,2.25,2.25,0,0,1,.36-.74,1.83,1.83,0,0,1,.62-.52A1.86,1.86,0,0,1,83.31,9.5Zm1.39,2a2,2,0,0,0-.11-.56,1.62,1.62,0,0,0-.27-.5,1.38,1.38,0,0,0-.43-.36,1.23,1.23,0,0,0-.59-.14,1.23,1.23,0,0,0-1,.46,1.82,1.82,0,0,0-.28.5,2.86,2.86,0,0,0-.15.6Z"/><path class="cls-6" d="M86.35,14V9.63h.5v1h0a1.71,1.71,0,0,1,.6-.8,1.55,1.55,0,0,1,.92-.29h.19v.53h-.12a1.48,1.48,0,0,0-1.14.46,1.57,1.57,0,0,0-.43,1.13V14Z"/><path class="cls-6" d="M91.19,11.44v.46h-2v-.46Z"/><path class="cls-6" d="M96.18,14,96,14h-.16a.92.92,0,0,1-.29,0,.44.44,0,0,1-.2-.13.54.54,0,0,1-.11-.24,1.63,1.63,0,0,1,0-.35h0a2,2,0,0,1-.69.7,1.86,1.86,0,0,1-.9.2,1.64,1.64,0,0,1-1.07-.33,1.17,1.17,0,0,1-.4-1,1.11,1.11,0,0,1,.44-1,4.53,4.53,0,0,1,2-.46,1.34,1.34,0,0,0,.29-.05.5.5,0,0,0,.19-.11.4.4,0,0,0,.11-.17.86.86,0,0,0,0-.25.83.83,0,0,0-.27-.67A1.35,1.35,0,0,0,94,9.95a1.75,1.75,0,0,0-.48.06,1.1,1.1,0,0,0-.35.17.75.75,0,0,0-.22.26.82.82,0,0,0-.09.33h-.54a1.33,1.33,0,0,1,.15-.52,1.18,1.18,0,0,1,.34-.4,1.61,1.61,0,0,1,.54-.25,2.7,2.7,0,0,1,.73-.09,1.76,1.76,0,0,1,1.22.36,1.31,1.31,0,0,1,.39,1v2.38a.31.31,0,0,0,.07.22.31.31,0,0,0,.24.08.48.48,0,0,0,.17,0Zm-1-2.36h0q-.08.15-.51.21l-.44.07-.49.08a1.78,1.78,0,0,0-.78.29.67.67,0,0,0-.26.56.77.77,0,0,0,.29.63,1.07,1.07,0,0,0,.69.23,1.58,1.58,0,0,0,1.09-.39,1.24,1.24,0,0,0,.43-1Z"/><path class="cls-6" d="M97.69,7.95V14h-.54V7.95Z"/><path class="cls-6" d="M99.71,7.71v.86h-.54V7.71Zm0,1.91V14h-.54V9.63Z"/><path class="cls-6" d="M102.89,9.5A1.54,1.54,0,0,1,104,10a1.51,1.51,0,0,1,.25.37h0V9.63h.54v4.07a2.18,2.18,0,0,1-.48,1.53,1.92,1.92,0,0,1-1.48.52,3,3,0,0,1-.62-.06,1.81,1.81,0,0,1-.54-.2,1.25,1.25,0,0,1-.4-.37,1.12,1.12,0,0,1-.19-.55h.54a.83.83,0,0,0,.37.54,1.56,1.56,0,0,0,.83.19,1.36,1.36,0,0,0,1.07-.4,1.77,1.77,0,0,0,.36-1.21V12.9h0a1.69,1.69,0,0,1-.25.38,1.53,1.53,0,0,1-.33.29,1.58,1.58,0,0,1-.85.24,2.11,2.11,0,0,1-.86-.16,1.62,1.62,0,0,1-.6-.45,1.9,1.9,0,0,1-.36-.69,3.09,3.09,0,0,1-.12-.87,2.63,2.63,0,0,1,.13-.82,2,2,0,0,1,.38-.68,1.83,1.83,0,0,1,.62-.47A2,2,0,0,1,102.89,9.5Zm-1.44,2.19a2.34,2.34,0,0,0,.08.64,1.53,1.53,0,0,0,.26.53,1.25,1.25,0,0,0,.44.36,1.42,1.42,0,0,0,.64.13,1.27,1.27,0,0,0,.61-.14,1.39,1.39,0,0,0,.45-.37,1.7,1.7,0,0,0,.28-.53,2,2,0,0,0,.1-.62,2.48,2.48,0,0,0-.08-.62,1.78,1.78,0,0,0-.25-.56,1.35,1.35,0,0,0-.44-.41,1.25,1.25,0,0,0-.65-.16,1.3,1.3,0,0,0-.64.15,1.35,1.35,0,0,0-.44.39,1.69,1.69,0,0,0-.26.56A2.58,2.58,0,0,0,101.45,11.69Z"/><path class="cls-6" d="M108.24,9.5a2.22,2.22,0,0,1,.72.1,1.22,1.22,0,0,1,.5.31,1.24,1.24,0,0,1,.29.51,2.54,2.54,0,0,1,.09.72V14h-.54V11.23a1.47,1.47,0,0,0-.27-1,1,1,0,0,0-.84-.33,1.37,1.37,0,0,0-.57.12,1.25,1.25,0,0,0-.43.32,1.45,1.45,0,0,0-.27.47,1.75,1.75,0,0,0-.1.59V14h-.54V9.63h.54v.76h0a1.33,1.33,0,0,1,.23-.37,1.43,1.43,0,0,1,.33-.28,1.56,1.56,0,0,1,.4-.17A1.67,1.67,0,0,1,108.24,9.5Z"/><path class="cls-6" d="M113,9.5a1.81,1.81,0,0,1,.87.2,1.73,1.73,0,0,1,.6.52,2.3,2.3,0,0,1,.35.76,3.47,3.47,0,0,1,.11.89V12h-3.37a2.38,2.38,0,0,0,.08.63,1.73,1.73,0,0,0,.26.55,1.32,1.32,0,0,0,.44.39,1.28,1.28,0,0,0,.63.15,1.61,1.61,0,0,0,.47-.06,1.35,1.35,0,0,0,.37-.17,1.17,1.17,0,0,0,.28-.26,1.63,1.63,0,0,0,.19-.33h.52a2,2,0,0,1-.26.52,1.65,1.65,0,0,1-.39.4,1.8,1.8,0,0,1-.52.26,2.21,2.21,0,0,1-.66.09,2,2,0,0,1-.87-.18,1.7,1.7,0,0,1-.61-.49,2.08,2.08,0,0,1-.36-.73,3.42,3.42,0,0,1-.12-.92,3.1,3.1,0,0,1,.12-.86,2.25,2.25,0,0,1,.36-.74,1.83,1.83,0,0,1,.62-.52A1.86,1.86,0,0,1,113,9.5Zm1.39,2a2,2,0,0,0-.11-.56,1.62,1.62,0,0,0-.27-.5,1.38,1.38,0,0,0-.43-.36,1.23,1.23,0,0,0-.59-.14,1.23,1.23,0,0,0-1,.46,1.82,1.82,0,0,0-.28.5,2.86,2.86,0,0,0-.15.6Z"/><path class="cls-6" d="M119.87,7.95V14h-.49v-.83h0a1.36,1.36,0,0,1-.26.4,1.72,1.72,0,0,1-.37.3,1.89,1.89,0,0,1-.45.19,1.74,1.74,0,0,1-.48.07,1.86,1.86,0,0,1-.85-.19,1.79,1.79,0,0,1-.61-.5,2.22,2.22,0,0,1-.37-.74,3.11,3.11,0,0,1-.12-.89,3.23,3.23,0,0,1,.12-.86,2.21,2.21,0,0,1,.36-.74,1.79,1.79,0,0,1,.61-.52,2,2,0,0,1,1.35-.13,1.71,1.71,0,0,1,.44.18,1.49,1.49,0,0,1,.36.3,1.38,1.38,0,0,1,.25.42h0V7.95Zm-3.5,3.87a2.78,2.78,0,0,0,0,.43,2.45,2.45,0,0,0,.11.43,1.9,1.9,0,0,0,.19.39,1.42,1.42,0,0,0,.27.32,1.2,1.2,0,0,0,.37.21,1.32,1.32,0,0,0,.46.08,1.43,1.43,0,0,0,.68-.15,1.41,1.41,0,0,0,.48-.41,1.77,1.77,0,0,0,.29-.59,2.64,2.64,0,0,0,.09-.71,2.69,2.69,0,0,0-.09-.68,1.82,1.82,0,0,0-.28-.6,1.37,1.37,0,0,0-1.18-.58,1.29,1.29,0,0,0-.45.07,1.2,1.2,0,0,0-.36.21,1.45,1.45,0,0,0-.28.31,1.87,1.87,0,0,0-.19.38,2.35,2.35,0,0,0-.11.44A2.81,2.81,0,0,0,116.36,11.81Z"/><rect class="cls-7" x="15.5" y="25" width="10" height="30"/><line class="cls-5" x1="82" y1="17" x2="82" y2="18"/><line class="cls-8" x1="82" y1="21.07" x2="82" y2="60.47"/><line class="cls-5" x1="82" y1="62" x2="82" y2="63"/><line class="cls-5" x1="4.81" y1="40" x2="5.81" y2="40"/><line class="cls-9" x1="8.8" y1="40" x2="156.69" y2="40"/><line class="cls-5" x1="158.19" y1="40" x2="159.19" y2="40"/><path class="cls-10" d="M69.28,41a2.43,2.43,0,0,1-.22,1.07,2.15,2.15,0,0,1-.62.77,2.77,2.77,0,0,1-.94.47,4.28,4.28,0,0,1-1.2.16h-4V34.93h3.95a4.72,4.72,0,0,1,1.11.12,2.35,2.35,0,0,1,.84.38,1.68,1.68,0,0,1,.54.66,2.25,2.25,0,0,1,.19,1,1.88,1.88,0,0,1-.34,1.13,2,2,0,0,1-.95.7v0a2.54,2.54,0,0,1,.74.3,1.83,1.83,0,0,1,.52.47,2,2,0,0,1,.3.62A2.58,2.58,0,0,1,69.28,41Zm-1.83-3.7a1.08,1.08,0,0,0-.38-.91,1.81,1.81,0,0,0-1.12-.29H63.78v2.38H66a2,2,0,0,0,.54-.07,1.32,1.32,0,0,0,.44-.21,1,1,0,0,0,.3-.37A1.28,1.28,0,0,0,67.45,37.33ZM67.78,41a1.25,1.25,0,0,0-.42-1,1.9,1.9,0,0,0-1.23-.35H63.78v2.73h2.36A2,2,0,0,0,67.35,42,1.21,1.21,0,0,0,67.78,41Z"/><path class="cls-10" d="M75.28,43.5v-1h0a2.25,2.25,0,0,1-.39.52,2.3,2.3,0,0,1-.5.37,2.49,2.49,0,0,1-.58.23,2.54,2.54,0,0,1-.64.08,2.3,2.3,0,0,1-1.78-.63,2.81,2.81,0,0,1-.57-1.95V36.93h1.44v4a2.89,2.89,0,0,0,.08.7,1.37,1.37,0,0,0,.24.52,1,1,0,0,0,.42.32,1.82,1.82,0,0,0,1.36,0,1.37,1.37,0,0,0,.5-.43,1.86,1.86,0,0,0,.29-.66,3.72,3.72,0,0,0,.09-.85v-3.5h1.44V43.5Z"/><path class="cls-10" d="M81.82,43.55H81a4.59,4.59,0,0,1-.74-.06,1.58,1.58,0,0,1-.6-.22,1.12,1.12,0,0,1-.4-.45,1.67,1.67,0,0,1-.15-.76V37.95H77.82v-1h1.29V35h1.45v2h1.5v1h-1.5v3.72a.83.83,0,0,0,.17.58.8.8,0,0,0,.59.18h.57l.17,0v1.14Z"/><path class="cls-10" d="M86.71,43.55h-.83a4.59,4.59,0,0,1-.74-.06,1.58,1.58,0,0,1-.6-.22,1.12,1.12,0,0,1-.4-.45A1.67,1.67,0,0,1,84,42.1V37.95H82.71v-1H84V35h1.45v2h1.5v1h-1.5v3.72a.83.83,0,0,0,.17.58.8.8,0,0,0,.59.18h.57l.17,0v1.14Z"/><path class="cls-10" d="M94.58,40.22a4.09,4.09,0,0,1-.23,1.38,3.1,3.1,0,0,1-.68,1.11,3,3,0,0,1-1,.73,3.49,3.49,0,0,1-1.36.25,3.12,3.12,0,0,1-2.38-1,3.94,3.94,0,0,1,0-5,3.1,3.1,0,0,1,2.39-1,3.15,3.15,0,0,1,2.4,1A3.54,3.54,0,0,1,94.58,40.22Zm-1.45,0A3.59,3.59,0,0,0,93,39.3a2.21,2.21,0,0,0-.35-.75,1.68,1.68,0,0,0-.58-.5,1.75,1.75,0,0,0-.83-.18,1.71,1.71,0,0,0-.77.17,1.62,1.62,0,0,0-.57.48,2.23,2.23,0,0,0-.36.74,3.79,3.79,0,0,0,0,1.9,2.19,2.19,0,0,0,.35.74,1.67,1.67,0,0,0,.58.49,1.7,1.7,0,0,0,.79.18,1.72,1.72,0,0,0,.79-.18,1.68,1.68,0,0,0,.58-.49,2.24,2.24,0,0,0,.36-.74A3.41,3.41,0,0,0,93.13,40.22Z"/><path class="cls-10" d="M99.65,36.75a3.25,3.25,0,0,1,1.1.16,1.8,1.8,0,0,1,.74.49,2,2,0,0,1,.42.81,4.28,4.28,0,0,1,.13,1.12V43.5h-1.44V39.6a2.11,2.11,0,0,0-.32-1.27,1.19,1.19,0,0,0-1-.43,1.48,1.48,0,0,0-1.23.52,2.28,2.28,0,0,0-.41,1.45V43.5H96.18V36.93h1.38v1h0a2.14,2.14,0,0,1,.37-.5,2.24,2.24,0,0,1,.48-.37,2.34,2.34,0,0,1,.57-.23A2.51,2.51,0,0,1,99.65,36.75Z"/><path class="cls-10" d="M41.5,41V39l-2.72-.54a5.47,5.47,0,0,0-.45-1.1l1.54-2.31-1.41-1.41-2.31,1.54a5.47,5.47,0,0,0-1.1-.45L34.5,32h-2L32,34.72a5.47,5.47,0,0,0-1.1.45l-2.31-1.54-1.41,1.41,1.54,2.31a5.47,5.47,0,0,0-.45,1.1L25.5,39v2l2.72.54a5.46,5.46,0,0,0,.45,1.1l-1.54,2.31,1.41,1.41,2.31-1.54a5.47,5.47,0,0,0,1.1.45L32.5,48h2L35,45.28a5.47,5.47,0,0,0,1.1-.45l2.31,1.54,1.41-1.41-1.54-2.31a5.46,5.46,0,0,0,.45-1.1Zm-5-1a3,3,0,1,1-3-3A3,3,0,0,1,36.5,40Z"/><rect class="cls-1" x="41" y="116" width="84" height="28"/><g class="cls-2"><path class="cls-3" d="M125,116v28H41V116h84m1-1H40v30h86V115Z"/></g><line class="cls-4" x1="40" y1="144.5" x2="126" y2="144.5"/><line class="cls-5" x1="68.25" y1="150.5" x2="73.75" y2="150.5"/><rect class="cls-6" x="68" y="148.88" width="0.5" height="3.25"/><rect class="cls-6" x="73.5" y="148.88" width="0.5" height="3.25"/><path class="cls-6" d="M70.09,154.74a2.11,2.11,0,0,1,.63.09,1.56,1.56,0,0,1,.5.26,1.43,1.43,0,0,1,.36.41,1.67,1.67,0,0,1,.2.56h-.52a1.13,1.13,0,0,0-.12-.34,1,1,0,0,0-.24-.28,1.12,1.12,0,0,0-.35-.19,1.43,1.43,0,0,0-.46-.07,1.35,1.35,0,0,0-.68.17,1.41,1.41,0,0,0-.5.5,2.55,2.55,0,0,0-.3.81,5.35,5.35,0,0,0-.1,1.1h0a1.72,1.72,0,0,1,1.54-1,1.83,1.83,0,0,1,1.37.54,1.88,1.88,0,0,1,.53,1.39,1.89,1.89,0,0,1-2,2,2.07,2.07,0,0,1-.94-.2,1.54,1.54,0,0,1-.62-.56,2.8,2.8,0,0,1-.35-.93,7,7,0,0,1-.12-1.37,5.64,5.64,0,0,1,0-.71,3.72,3.72,0,0,1,.15-.67,3,3,0,0,1,.27-.6,1.89,1.89,0,0,1,.4-.48,1.78,1.78,0,0,1,.55-.32A2,2,0,0,1,70.09,154.74Zm-1.49,4a1.5,1.5,0,0,0,.38,1.09,1.4,1.4,0,0,0,1.06.39,1.27,1.27,0,0,0,1-.44,1.5,1.5,0,0,0,.39-1,1.6,1.6,0,0,0-.38-1.09,1.29,1.29,0,0,0-1-.43,1.36,1.36,0,0,0-1,.42A1.54,1.54,0,0,0,68.6,158.76Z"/><path class="cls-6" d="M79.44,158.37a3.19,3.19,0,0,1-.12.85A2.25,2.25,0,0,1,79,160a1.79,1.79,0,0,1-.61.52,1.85,1.85,0,0,1-.88.2,1.89,1.89,0,0,1-.47-.06,1.62,1.62,0,0,1-.43-.18,1.52,1.52,0,0,1-.36-.3,1.47,1.47,0,0,1-.26-.42h0v2.45H75.4v-6h.5V157h0a1.49,1.49,0,0,1,.26-.41,1.53,1.53,0,0,1,.37-.3,1.77,1.77,0,0,1,.44-.19,1.87,1.87,0,0,1,.49-.06,1.91,1.91,0,0,1,.86.18,1.76,1.76,0,0,1,.62.5,2.22,2.22,0,0,1,.37.74A3.11,3.11,0,0,1,79.44,158.37Zm-.54,0a3,3,0,0,0-.07-.65,1.89,1.89,0,0,0-.24-.6,1.38,1.38,0,0,0-.45-.44,1.27,1.27,0,0,0-.68-.17,1.39,1.39,0,0,0-1.13.47,2.14,2.14,0,0,0-.39,1.4A2.79,2.79,0,0,0,76,159a1.79,1.79,0,0,0,.27.6,1.39,1.39,0,0,0,.48.42,1.45,1.45,0,0,0,.71.16,1.25,1.25,0,0,0,.64-.16,1.35,1.35,0,0,0,.45-.42,1.91,1.91,0,0,0,.26-.6A2.77,2.77,0,0,0,78.91,158.37Z"/><path class="cls-6" d="M80.9,156.18l1.25,1.66,1.22-1.66H84l-1.58,2.09,1.71,2.28h-.68l-1.37-1.84-1.34,1.84H80.1l1.7-2.27-1.57-2.1Z"/><path class="cls-6" d="M30.5,96.79v.46h-2v5.25H28V97.25H26v-.46Z"/><path class="cls-6" d="M33,98a1.81,1.81,0,0,1,.87.2,1.73,1.73,0,0,1,.6.52,2.29,2.29,0,0,1,.35.76,3.45,3.45,0,0,1,.11.89v.09H31.52a2.4,2.4,0,0,0,.08.63,1.75,1.75,0,0,0,.26.55,1.33,1.33,0,0,0,.44.39,1.28,1.28,0,0,0,.63.15,1.61,1.61,0,0,0,.47-.06,1.34,1.34,0,0,0,.37-.17,1.15,1.15,0,0,0,.28-.26,1.59,1.59,0,0,0,.19-.33h.52a2,2,0,0,1-.26.52,1.64,1.64,0,0,1-.39.4,1.79,1.79,0,0,1-.52.26,2.21,2.21,0,0,1-.66.09,2,2,0,0,1-.87-.18,1.71,1.71,0,0,1-.61-.49,2.09,2.09,0,0,1-.36-.73,3.42,3.42,0,0,1-.12-.92,3.11,3.11,0,0,1,.12-.86,2.26,2.26,0,0,1,.36-.74A1.79,1.79,0,0,1,33,98Zm1.39,2a2,2,0,0,0-.11-.56,1.61,1.61,0,0,0-.27-.5,1.37,1.37,0,0,0-.43-.36,1.23,1.23,0,0,0-.59-.14,1.23,1.23,0,0,0-1,.46,1.84,1.84,0,0,0-.28.5,2.89,2.89,0,0,0-.15.6Z"/><path class="cls-6" d="M36.22,98.13l1.25,1.66,1.22-1.66h.67l-1.58,2.09,1.71,2.28H38.8l-1.37-1.84-1.34,1.84h-.66l1.7-2.27-1.57-2.1Z"/><path class="cls-6" d="M42.12,102.54h-.44a2,2,0,0,1-.45,0,.65.65,0,0,1-.3-.15.6.6,0,0,1-.16-.29,1.78,1.78,0,0,1,0-.45v-3h-.88v-.45h.88V96.81h.54v1.31h1v.45h-1v3a1.2,1.2,0,0,0,0,.22.45.45,0,0,0,.07.17.34.34,0,0,0,.14.11.58.58,0,0,0,.23,0h.54v.45Z"/><path class="cls-6" d="M49.53,102.47l-.18,0h-.16a.92.92,0,0,1-.29,0,.44.44,0,0,1-.2-.13.55.55,0,0,1-.11-.24,1.67,1.67,0,0,1,0-.35h0a2,2,0,0,1-.69.7,1.86,1.86,0,0,1-.9.2,1.64,1.64,0,0,1-1.07-.33,1.17,1.17,0,0,1-.4-1,1.11,1.11,0,0,1,.44-1,4.54,4.54,0,0,1,2-.46,1.34,1.34,0,0,0,.29-.05.49.49,0,0,0,.19-.11.39.39,0,0,0,.11-.17.84.84,0,0,0,0-.25.83.83,0,0,0-.27-.67,1.35,1.35,0,0,0-.87-.23,1.76,1.76,0,0,0-.48.06,1.11,1.11,0,0,0-.35.17.76.76,0,0,0-.22.26.82.82,0,0,0-.09.33h-.54a1.33,1.33,0,0,1,.15-.52,1.18,1.18,0,0,1,.34-.4,1.62,1.62,0,0,1,.54-.25,2.7,2.7,0,0,1,.73-.09,1.76,1.76,0,0,1,1.22.36,1.3,1.3,0,0,1,.39,1v2.37a.32.32,0,0,0,.07.22.31.31,0,0,0,.24.08.47.47,0,0,0,.17,0Zm-1-2.36h0q-.08.15-.51.21l-.44.07-.49.08a1.78,1.78,0,0,0-.78.29.67.67,0,0,0-.26.56.78.78,0,0,0,.29.63,1.07,1.07,0,0,0,.69.23,1.58,1.58,0,0,0,1.09-.39,1.24,1.24,0,0,0,.43-1Z"/><path class="cls-6" d="M52.43,98a2.22,2.22,0,0,1,.72.1,1.22,1.22,0,0,1,.5.31,1.23,1.23,0,0,1,.29.51,2.52,2.52,0,0,1,.09.72v2.86H53.5V99.73a1.46,1.46,0,0,0-.27-1,1,1,0,0,0-.84-.33,1.37,1.37,0,0,0-.57.12,1.26,1.26,0,0,0-.43.32,1.46,1.46,0,0,0-.27.47,1.76,1.76,0,0,0-.1.59v2.56h-.54V98.13H51v.76h0a1.35,1.35,0,0,1,.23-.37,1.46,1.46,0,0,1,.33-.28,1.56,1.56,0,0,1,.4-.17A1.67,1.67,0,0,1,52.43,98Z"/><path class="cls-6" d="M59.3,96.45v6.05h-.49v-.83h0a1.35,1.35,0,0,1-.26.4,1.7,1.7,0,0,1-.37.3,1.88,1.88,0,0,1-.45.19,1.74,1.74,0,0,1-.48.07,1.86,1.86,0,0,1-.85-.19,1.8,1.8,0,0,1-.61-.5,2.22,2.22,0,0,1-.37-.74,3.13,3.13,0,0,1-.12-.89,3.25,3.25,0,0,1,.12-.86,2.22,2.22,0,0,1,.36-.74,1.79,1.79,0,0,1,.61-.52,2,2,0,0,1,1.35-.13,1.69,1.69,0,0,1,.44.18,1.48,1.48,0,0,1,.36.3,1.37,1.37,0,0,1,.25.42h0V96.45Zm-3.5,3.87a2.78,2.78,0,0,0,0,.43,2.49,2.49,0,0,0,.11.43,2,2,0,0,0,.19.39,1.43,1.43,0,0,0,.27.32,1.21,1.21,0,0,0,.37.21,1.32,1.32,0,0,0,.46.08,1.43,1.43,0,0,0,.68-.15,1.4,1.4,0,0,0,.48-.41,1.76,1.76,0,0,0,.29-.59,2.64,2.64,0,0,0,.09-.71,2.69,2.69,0,0,0-.09-.68,1.82,1.82,0,0,0-.28-.6,1.41,1.41,0,0,0-.48-.42,1.43,1.43,0,0,0-.7-.16,1.29,1.29,0,0,0-.45.07,1.2,1.2,0,0,0-.36.21,1.45,1.45,0,0,0-.28.31,1.87,1.87,0,0,0-.19.38,2.39,2.39,0,0,0-.11.44A2.87,2.87,0,0,0,55.8,100.31Z"/><path class="cls-6" d="M63.64,96.21v.86h-.54v-.86Zm0,1.91v4.38h-.54V98.13Z"/><path class="cls-6" d="M66.92,98a2.29,2.29,0,0,1,.65.09,1.68,1.68,0,0,1,.52.25,1.35,1.35,0,0,1,.37.4,1.52,1.52,0,0,1,.2.55h-.54a1.16,1.16,0,0,0-.15-.34,1,1,0,0,0-.25-.27,1.11,1.11,0,0,0-.35-.17,1.57,1.57,0,0,0-.45-.06,1.34,1.34,0,0,0-.66.16,1.47,1.47,0,0,0-.48.42,2,2,0,0,0-.29.6,2.4,2.4,0,0,0-.1.7,2.45,2.45,0,0,0,.09.67,1.92,1.92,0,0,0,.28.6,1.52,1.52,0,0,0,.47.43,1.31,1.31,0,0,0,.67.17,1.29,1.29,0,0,0,.47-.08,1.24,1.24,0,0,0,.38-.22,1.17,1.17,0,0,0,.26-.33,1.24,1.24,0,0,0,.14-.38h.54a2,2,0,0,1-.2.57,1.64,1.64,0,0,1-.37.47,1.69,1.69,0,0,1-.53.32,1.92,1.92,0,0,1-.69.12,2,2,0,0,1-.86-.18,1.92,1.92,0,0,1-.65-.49,2.19,2.19,0,0,1-.41-.73,2.86,2.86,0,0,1-.14-.91,2.89,2.89,0,0,1,.13-.87,2.23,2.23,0,0,1,.39-.74,1.94,1.94,0,0,1,.65-.51A2,2,0,0,1,66.92,98Z"/><path class="cls-6" d="M73.75,100.31a2.86,2.86,0,0,1-.13.88,2.2,2.2,0,0,1-.41.75,2,2,0,0,1-.65.5,2,2,0,0,1-.88.19,1.89,1.89,0,0,1-1.5-.65,2.71,2.71,0,0,1,0-3.32,2.06,2.06,0,0,1,3,0A2.43,2.43,0,0,1,73.75,100.31Zm-.54,0a2.51,2.51,0,0,0-.09-.66,1.86,1.86,0,0,0-.28-.6,1.49,1.49,0,0,0-.48-.44,1.36,1.36,0,0,0-.69-.17,1.32,1.32,0,0,0-.66.16,1.5,1.5,0,0,0-.48.42,1.91,1.91,0,0,0-.29.6,2.46,2.46,0,0,0-.1.68,2.4,2.4,0,0,0,.1.66,2,2,0,0,0,.29.6A1.49,1.49,0,0,0,71,102a1.33,1.33,0,0,0,.67.17,1.31,1.31,0,0,0,.65-.16,1.55,1.55,0,0,0,.48-.42,1.86,1.86,0,0,0,.3-.6A2.34,2.34,0,0,0,73.22,100.31Z"/><path class="cls-6" d="M76.9,98a2.22,2.22,0,0,1,.72.1,1.22,1.22,0,0,1,.5.31,1.23,1.23,0,0,1,.29.51,2.52,2.52,0,0,1,.09.72v2.86H78V99.73a1.46,1.46,0,0,0-.27-1,1,1,0,0,0-.84-.33,1.37,1.37,0,0,0-.57.12,1.26,1.26,0,0,0-.43.32,1.46,1.46,0,0,0-.27.47,1.76,1.76,0,0,0-.1.59v2.56h-.54V98.13h.54v.76h0a1.35,1.35,0,0,1,.23-.37,1.46,1.46,0,0,1,.33-.28,1.56,1.56,0,0,1,.4-.17A1.67,1.67,0,0,1,76.9,98Z"/><path class="cls-6" d="M84.08,98a2.29,2.29,0,0,1,.65.09,1.68,1.68,0,0,1,.52.25,1.35,1.35,0,0,1,.37.4,1.52,1.52,0,0,1,.2.55h-.54a1.16,1.16,0,0,0-.15-.34,1,1,0,0,0-.25-.27,1.11,1.11,0,0,0-.35-.17,1.57,1.57,0,0,0-.45-.06,1.34,1.34,0,0,0-.66.16,1.47,1.47,0,0,0-.48.42,2,2,0,0,0-.29.6,2.4,2.4,0,0,0-.1.7,2.45,2.45,0,0,0,.09.67,1.92,1.92,0,0,0,.28.6,1.52,1.52,0,0,0,.47.43,1.31,1.31,0,0,0,.67.17,1.29,1.29,0,0,0,.47-.08,1.24,1.24,0,0,0,.38-.22,1.17,1.17,0,0,0,.26-.33,1.24,1.24,0,0,0,.14-.38h.54a2,2,0,0,1-.2.57,1.64,1.64,0,0,1-.37.47,1.69,1.69,0,0,1-.53.32,1.92,1.92,0,0,1-.69.12,2,2,0,0,1-.86-.18,1.92,1.92,0,0,1-.65-.49,2.19,2.19,0,0,1-.41-.73,2.86,2.86,0,0,1-.14-.91,2.89,2.89,0,0,1,.13-.87,2.23,2.23,0,0,1,.39-.74,1.94,1.94,0,0,1,.65-.51A2,2,0,0,1,84.08,98Z"/><path class="cls-6" d="M88.75,98a1.81,1.81,0,0,1,.87.2,1.73,1.73,0,0,1,.6.52,2.29,2.29,0,0,1,.35.76,3.45,3.45,0,0,1,.11.89v.09H87.31a2.4,2.4,0,0,0,.08.63,1.75,1.75,0,0,0,.26.55,1.33,1.33,0,0,0,.44.39,1.28,1.28,0,0,0,.63.15,1.61,1.61,0,0,0,.47-.06,1.34,1.34,0,0,0,.37-.17,1.15,1.15,0,0,0,.28-.26,1.59,1.59,0,0,0,.19-.33h.52a2,2,0,0,1-.26.52,1.64,1.64,0,0,1-.39.4,1.79,1.79,0,0,1-.52.26,2.21,2.21,0,0,1-.66.09,2,2,0,0,1-.87-.18,1.71,1.71,0,0,1-.61-.49,2.09,2.09,0,0,1-.36-.73,3.42,3.42,0,0,1-.12-.92,3.11,3.11,0,0,1,.12-.86,2.26,2.26,0,0,1,.36-.74,1.79,1.79,0,0,1,1.5-.72Zm1.39,2a2,2,0,0,0-.11-.56,1.61,1.61,0,0,0-.27-.5,1.37,1.37,0,0,0-.43-.36,1.23,1.23,0,0,0-.59-.14,1.23,1.23,0,0,0-1,.46,1.84,1.84,0,0,0-.28.5,2.89,2.89,0,0,0-.15.6Z"/><path class="cls-6" d="M93.74,98a2.22,2.22,0,0,1,.72.1,1.22,1.22,0,0,1,.5.31,1.23,1.23,0,0,1,.29.51,2.52,2.52,0,0,1,.09.72v2.86H94.8V99.73a1.46,1.46,0,0,0-.27-1,1,1,0,0,0-.84-.33,1.37,1.37,0,0,0-.57.12,1.26,1.26,0,0,0-.43.32,1.46,1.46,0,0,0-.27.47,1.76,1.76,0,0,0-.1.59v2.56h-.54V98.13h.54v.76h0a1.35,1.35,0,0,1,.23-.37,1.46,1.46,0,0,1,.33-.28,1.56,1.56,0,0,1,.4-.17A1.67,1.67,0,0,1,93.74,98Z"/><path class="cls-6" d="M98.54,102.54h-.44a2,2,0,0,1-.45,0,.65.65,0,0,1-.3-.15.6.6,0,0,1-.16-.29,1.78,1.78,0,0,1,0-.45v-3h-.88v-.45h.88V96.81h.54v1.31h1v.45h-1v3a1.2,1.2,0,0,0,0,.22.45.45,0,0,0,.07.17.34.34,0,0,0,.14.11.58.58,0,0,0,.23,0h.54v.45Z"/><path class="cls-6" d="M101.57,98a1.81,1.81,0,0,1,.87.2,1.73,1.73,0,0,1,.6.52,2.29,2.29,0,0,1,.35.76,3.45,3.45,0,0,1,.11.89v.09h-3.37a2.4,2.4,0,0,0,.08.63,1.75,1.75,0,0,0,.26.55,1.33,1.33,0,0,0,.44.39,1.28,1.28,0,0,0,.63.15,1.61,1.61,0,0,0,.47-.06,1.34,1.34,0,0,0,.37-.17,1.15,1.15,0,0,0,.28-.26,1.59,1.59,0,0,0,.19-.33h.52a2,2,0,0,1-.26.52,1.64,1.64,0,0,1-.39.4,1.79,1.79,0,0,1-.52.26,2.21,2.21,0,0,1-.66.09,2,2,0,0,1-.87-.18,1.71,1.71,0,0,1-.61-.49,2.09,2.09,0,0,1-.36-.73,3.42,3.42,0,0,1-.12-.92,3.11,3.11,0,0,1,.12-.86,2.26,2.26,0,0,1,.36-.74,1.79,1.79,0,0,1,1.5-.72Zm1.39,2a2,2,0,0,0-.11-.56,1.61,1.61,0,0,0-.27-.5,1.37,1.37,0,0,0-.43-.36,1.23,1.23,0,0,0-.59-.14,1.23,1.23,0,0,0-1,.46,1.84,1.84,0,0,0-.28.5,2.89,2.89,0,0,0-.15.6Z"/><path class="cls-6" d="M104.61,102.5V98.13h.5v1h0a1.71,1.71,0,0,1,.6-.8,1.55,1.55,0,0,1,.92-.29h.19v.53h-.12a1.48,1.48,0,0,0-1.14.46,1.57,1.57,0,0,0-.43,1.13v2.32Z"/><path class="cls-6" d="M109.45,99.94v.46h-2v-.46Z"/><path class="cls-6" d="M114.44,102.47l-.18,0h-.16a.92.92,0,0,1-.29,0,.44.44,0,0,1-.2-.13.55.55,0,0,1-.11-.24,1.67,1.67,0,0,1,0-.35h0a2,2,0,0,1-.69.7,1.86,1.86,0,0,1-.9.2,1.64,1.64,0,0,1-1.07-.33,1.17,1.17,0,0,1-.4-1,1.11,1.11,0,0,1,.44-1,4.54,4.54,0,0,1,2-.46,1.34,1.34,0,0,0,.29-.05.49.49,0,0,0,.19-.11.39.39,0,0,0,.11-.17.84.84,0,0,0,0-.25.83.83,0,0,0-.27-.67,1.35,1.35,0,0,0-.87-.23,1.76,1.76,0,0,0-.48.06,1.11,1.11,0,0,0-.35.17.76.76,0,0,0-.22.26.82.82,0,0,0-.09.33h-.54a1.33,1.33,0,0,1,.15-.52,1.18,1.18,0,0,1,.34-.4,1.62,1.62,0,0,1,.54-.25,2.7,2.7,0,0,1,.73-.09,1.76,1.76,0,0,1,1.22.36,1.3,1.3,0,0,1,.39,1v2.37a.32.32,0,0,0,.07.22.31.31,0,0,0,.24.08.47.47,0,0,0,.17,0Zm-1-2.36h0q-.08.15-.51.21l-.44.07-.49.08a1.78,1.78,0,0,0-.78.29.67.67,0,0,0-.26.56.78.78,0,0,0,.29.63,1.07,1.07,0,0,0,.69.23,1.58,1.58,0,0,0,1.09-.39,1.24,1.24,0,0,0,.43-1Z"/><path class="cls-6" d="M115.95,96.45v6.05h-.54V96.45Z"/><path class="cls-6" d="M118,96.21v.86h-.54v-.86Zm0,1.91v4.38h-.54V98.13Z"/><path class="cls-6" d="M121.15,98a1.54,1.54,0,0,1,1.15.51,1.48,1.48,0,0,1,.25.37h0v-.76h.54v4.07a2.18,2.18,0,0,1-.48,1.53,1.92,1.92,0,0,1-1.48.52,3,3,0,0,1-.62-.06,1.82,1.82,0,0,1-.54-.2,1.26,1.26,0,0,1-.4-.37,1.13,1.13,0,0,1-.19-.55h.54a.83.83,0,0,0,.37.54,1.56,1.56,0,0,0,.83.19,1.36,1.36,0,0,0,1.07-.4,1.77,1.77,0,0,0,.36-1.21v-.79h0a1.66,1.66,0,0,1-.25.38,1.5,1.5,0,0,1-.33.29,1.56,1.56,0,0,1-.4.18,1.59,1.59,0,0,1-.45.06,2.11,2.11,0,0,1-.86-.16,1.62,1.62,0,0,1-.6-.45,1.9,1.9,0,0,1-.36-.69,3.09,3.09,0,0,1-.12-.87,2.65,2.65,0,0,1,.13-.82,2,2,0,0,1,.38-.68,1.84,1.84,0,0,1,.62-.47A2,2,0,0,1,121.15,98Zm-1.44,2.19a2.36,2.36,0,0,0,.08.64,1.54,1.54,0,0,0,.26.53,1.25,1.25,0,0,0,.44.36,1.42,1.42,0,0,0,.64.13,1.27,1.27,0,0,0,.61-.14,1.39,1.39,0,0,0,.45-.37,1.69,1.69,0,0,0,.28-.53,2,2,0,0,0,.1-.62,2.46,2.46,0,0,0-.08-.62,1.77,1.77,0,0,0-.25-.56,1.35,1.35,0,0,0-.44-.41,1.25,1.25,0,0,0-.65-.16,1.3,1.3,0,0,0-.64.15,1.36,1.36,0,0,0-.44.39,1.7,1.7,0,0,0-.26.56A2.62,2.62,0,0,0,119.71,100.19Z"/><path class="cls-6" d="M126.5,98a2.22,2.22,0,0,1,.72.1,1.22,1.22,0,0,1,.5.31,1.23,1.23,0,0,1,.29.51,2.52,2.52,0,0,1,.09.72v2.86h-.54V99.73a1.46,1.46,0,0,0-.27-1,1,1,0,0,0-.84-.33,1.37,1.37,0,0,0-.57.12,1.26,1.26,0,0,0-.43.32,1.46,1.46,0,0,0-.27.47,1.76,1.76,0,0,0-.1.59v2.56h-.54V98.13h.54v.76h0a1.35,1.35,0,0,1,.23-.37,1.46,1.46,0,0,1,.33-.28,1.56,1.56,0,0,1,.4-.17A1.67,1.67,0,0,1,126.5,98Z"/><path class="cls-6" d="M131.26,98a1.81,1.81,0,0,1,.87.2,1.73,1.73,0,0,1,.6.52,2.29,2.29,0,0,1,.35.76,3.45,3.45,0,0,1,.11.89v.09h-3.37a2.4,2.4,0,0,0,.08.63,1.75,1.75,0,0,0,.26.55,1.33,1.33,0,0,0,.44.39,1.28,1.28,0,0,0,.63.15,1.61,1.61,0,0,0,.47-.06,1.34,1.34,0,0,0,.37-.17,1.15,1.15,0,0,0,.28-.26,1.59,1.59,0,0,0,.19-.33h.52a2,2,0,0,1-.26.52,1.64,1.64,0,0,1-.39.4,1.79,1.79,0,0,1-.52.26,2.21,2.21,0,0,1-.66.09,2,2,0,0,1-.87-.18,1.71,1.71,0,0,1-.61-.49,2.09,2.09,0,0,1-.36-.73,3.42,3.42,0,0,1-.12-.92,3.11,3.11,0,0,1,.12-.86,2.26,2.26,0,0,1,.36-.74,1.79,1.79,0,0,1,1.5-.72Zm1.39,2a2,2,0,0,0-.11-.56,1.61,1.61,0,0,0-.27-.5,1.37,1.37,0,0,0-.43-.36,1.23,1.23,0,0,0-.59-.14,1.23,1.23,0,0,0-1,.46,1.84,1.84,0,0,0-.28.5,2.89,2.89,0,0,0-.15.6Z"/><path class="cls-6" d="M138.13,96.45v6.05h-.49v-.83h0a1.35,1.35,0,0,1-.26.4,1.7,1.7,0,0,1-.37.3,1.88,1.88,0,0,1-.45.19,1.74,1.74,0,0,1-.48.07,1.86,1.86,0,0,1-.85-.19,1.8,1.8,0,0,1-.61-.5,2.22,2.22,0,0,1-.37-.74,3.13,3.13,0,0,1-.12-.89,3.25,3.25,0,0,1,.12-.86,2.22,2.22,0,0,1,.36-.74,1.79,1.79,0,0,1,.61-.52,2,2,0,0,1,1.35-.13,1.69,1.69,0,0,1,.44.18,1.48,1.48,0,0,1,.36.3,1.37,1.37,0,0,1,.25.42h0V96.45Zm-3.5,3.87a2.78,2.78,0,0,0,0,.43,2.49,2.49,0,0,0,.11.43,2,2,0,0,0,.19.39,1.43,1.43,0,0,0,.27.32,1.21,1.21,0,0,0,.37.21,1.32,1.32,0,0,0,.46.08,1.43,1.43,0,0,0,.68-.15,1.4,1.4,0,0,0,.48-.41,1.76,1.76,0,0,0,.29-.59,2.64,2.64,0,0,0,.09-.71,2.69,2.69,0,0,0-.09-.68,1.82,1.82,0,0,0-.28-.6,1.41,1.41,0,0,0-.48-.42,1.43,1.43,0,0,0-.7-.16,1.29,1.29,0,0,0-.45.07,1.2,1.2,0,0,0-.36.21A1.45,1.45,0,0,0,135,99a1.87,1.87,0,0,0-.19.38,2.39,2.39,0,0,0-.11.44A2.87,2.87,0,0,0,134.62,100.31Z"/><rect class="cls-7" x="68" y="115" width="6" height="30"/><line class="cls-5" x1="83" y1="107" x2="83" y2="108"/><line class="cls-11" x1="83" y1="111.08" x2="83" y2="119.79"/><line class="cls-5" x1="83" y1="121.33" x2="83" y2="122.33"/><line class="cls-5" x1="114.5" y1="130" x2="115.5" y2="130"/><line class="cls-12" x1="118.86" y1="130" x2="134" y2="130"/><line class="cls-5" x1="135.69" y1="130" x2="136.69" y2="130"/><path class="cls-10" d="M81,131a2.43,2.43,0,0,1-.22,1.07,2.15,2.15,0,0,1-.62.77,2.77,2.77,0,0,1-.94.47,4.28,4.28,0,0,1-1.2.16H74v-8.57H78a4.72,4.72,0,0,1,1.11.12,2.35,2.35,0,0,1,.84.38,1.68,1.68,0,0,1,.54.66,2.25,2.25,0,0,1,.19,1,1.88,1.88,0,0,1-.34,1.13,2,2,0,0,1-.95.7v0a2.54,2.54,0,0,1,.74.3,1.83,1.83,0,0,1,.52.47,2,2,0,0,1,.3.62A2.58,2.58,0,0,1,81,131Zm-1.83-3.7a1.08,1.08,0,0,0-.38-.91,1.81,1.81,0,0,0-1.12-.29H75.53v2.38h2.27a2,2,0,0,0,.54-.07,1.32,1.32,0,0,0,.44-.21,1,1,0,0,0,.3-.37A1.28,1.28,0,0,0,79.19,127.33Zm.33,3.63a1.25,1.25,0,0,0-.42-1,1.9,1.9,0,0,0-1.23-.35H75.53v2.73h2.36A2,2,0,0,0,79.1,132,1.21,1.21,0,0,0,79.53,131Z"/><path class="cls-10" d="M87,133.5v-1h0a2.25,2.25,0,0,1-.39.52,2.3,2.3,0,0,1-.5.37,2.49,2.49,0,0,1-.58.23,2.54,2.54,0,0,1-.64.08,2.3,2.3,0,0,1-1.78-.63,2.81,2.81,0,0,1-.57-1.95v-4.19H84v4a2.89,2.89,0,0,0,.08.7,1.37,1.37,0,0,0,.24.52,1,1,0,0,0,.42.32,1.82,1.82,0,0,0,1.36,0,1.37,1.37,0,0,0,.5-.43,1.86,1.86,0,0,0,.29-.66,3.72,3.72,0,0,0,.09-.85v-3.5h1.44v6.57Z"/><path class="cls-10" d="M93.57,133.55h-.83a4.59,4.59,0,0,1-.74-.06,1.58,1.58,0,0,1-.6-.22,1.12,1.12,0,0,1-.4-.45,1.67,1.67,0,0,1-.15-.76v-4.15H89.56v-1h1.29v-2H92.3v2h1.5v1H92.3v3.72a.83.83,0,0,0,.17.58.8.8,0,0,0,.59.18h.57l.17,0v1.14Z"/><path class="cls-10" d="M98.46,133.55h-.83a4.59,4.59,0,0,1-.74-.06,1.58,1.58,0,0,1-.6-.22,1.12,1.12,0,0,1-.4-.45,1.67,1.67,0,0,1-.15-.76v-4.15H94.46v-1h1.29v-2h1.45v2h1.5v1h-1.5v3.72a.83.83,0,0,0,.17.58.8.8,0,0,0,.59.18h.57l.17,0v1.14Z"/><path class="cls-10" d="M106.32,130.22a4.09,4.09,0,0,1-.23,1.38,3.1,3.1,0,0,1-.68,1.11,3,3,0,0,1-1,.73,3.49,3.49,0,0,1-1.36.25,3.12,3.12,0,0,1-2.38-1,3.94,3.94,0,0,1,0-5,3.1,3.1,0,0,1,2.39-1,3.15,3.15,0,0,1,2.4,1A3.54,3.54,0,0,1,106.32,130.22Zm-1.45,0a3.59,3.59,0,0,0-.11-.92,2.21,2.21,0,0,0-.35-.75,1.68,1.68,0,0,0-.58-.5,1.75,1.75,0,0,0-.83-.18,1.71,1.71,0,0,0-.77.17,1.62,1.62,0,0,0-.57.48,2.23,2.23,0,0,0-.36.74,3.79,3.79,0,0,0,0,1.9,2.19,2.19,0,0,0,.35.74,1.67,1.67,0,0,0,.58.49,1.7,1.7,0,0,0,.79.18,1.72,1.72,0,0,0,.79-.18,1.68,1.68,0,0,0,.58-.49,2.24,2.24,0,0,0,.36-.74A3.41,3.41,0,0,0,104.88,130.22Z"/><path class="cls-10" d="M111.4,126.75a3.25,3.25,0,0,1,1.1.16,1.8,1.8,0,0,1,.74.49,2,2,0,0,1,.42.81,4.28,4.28,0,0,1,.13,1.12v4.17h-1.44v-3.9a2.11,2.11,0,0,0-.32-1.27,1.19,1.19,0,0,0-1-.43,1.48,1.48,0,0,0-1.23.52,2.28,2.28,0,0,0-.41,1.45v3.63h-1.44v-6.57h1.38v1h0a2.14,2.14,0,0,1,.37-.5,2.24,2.24,0,0,1,.48-.37,2.34,2.34,0,0,1,.57-.23A2.51,2.51,0,0,1,111.4,126.75Z"/><path class="cls-10" d="M68,131v-2l-2.72-.54a5.47,5.47,0,0,0-.45-1.1l1.54-2.31-1.41-1.41-2.31,1.54a5.47,5.47,0,0,0-1.1-.45L61,122H59l-.54,2.72a5.47,5.47,0,0,0-1.1.45l-2.31-1.54-1.41,1.41,1.54,2.31a5.47,5.47,0,0,0-.45,1.1L52,129v2l2.72.54a5.46,5.46,0,0,0,.45,1.1l-1.54,2.31,1.41,1.41,2.31-1.54a5.47,5.47,0,0,0,1.1.45L59,138h2l.54-2.72a5.47,5.47,0,0,0,1.1-.45l2.31,1.54,1.41-1.41-1.54-2.31a5.46,5.46,0,0,0,.45-1.1Zm-5-1a3,3,0,1,1-3-3A3,3,0,0,1,63,130Z"/><rect class="cls-5" x="52" y="122" width="62.5" height="16"/><line class="cls-5" x1="83" y1="138" x2="83" y2="139"/><line class="cls-13" x1="83" y1="142" x2="83" y2="150.5"/><line class="cls-5" x1="83" y1="152" x2="83" y2="153"/><line class="cls-5" x1="29.31" y1="130" x2="30.31" y2="130"/><line class="cls-14" x1="33.01" y1="130" x2="49.65" y2="130"/><line class="cls-5" x1="51" y1="130" x2="52" y2="130"/></g></svg>