<svg xmlns="http://www.w3.org/2000/svg" viewBox="0 0 300 70"><defs><style>.cls-1{fill:#787878;}.cls-2{fill:#cdcdcd;opacity:0.6;}.cls-3{opacity:0.4;}.cls-4{fill:#c3c3c3;}.cls-5{fill:none;stroke:#ccc;stroke-miterlimit:10;}.cls-6{fill:#fff;}.cls-7{fill:#ccc;}.cls-8{fill:#0aaeff;}.cls-9{fill:#464646;}</style></defs><title>Artboard 45 copy</title><g id="Content"><path class="cls-1" d="M19,23.72a2.21,2.21,0,0,1,1.93.94,4.77,4.77,0,0,1,.66,2.75,4.86,4.86,0,0,1-.66,2.79,2.21,2.21,0,0,1-1.93.95,2.2,2.2,0,0,1-1.92-.94,4.84,4.84,0,0,1-.66-2.79,4.79,4.79,0,0,1,.66-2.76A2.2,2.2,0,0,1,19,23.72Zm-1.42,3.7a8.68,8.68,0,0,0,.06,1,3.48,3.48,0,0,0,.22.89,1.53,1.53,0,0,0,.43.62,1.06,1.06,0,0,0,.71.23,1.13,1.13,0,0,0,.52-.11,1.15,1.15,0,0,0,.38-.31,1.78,1.78,0,0,0,.26-.47,3.39,3.39,0,0,0,.16-.57,5.26,5.26,0,0,0,.09-.64c0-.22,0-.44,0-.66a8.19,8.19,0,0,0-.07-1.06,3.19,3.19,0,0,0-.23-.87,1.52,1.52,0,0,0-.44-.59,1.1,1.1,0,0,0-.7-.22,1.07,1.07,0,0,0-.5.11,1.17,1.17,0,0,0-.37.31,1.69,1.69,0,0,0-.26.46,3.55,3.55,0,0,0-.16.57,5.28,5.28,0,0,0-.09.63C17.61,27,17.6,27.2,17.6,27.42Z"/><path class="cls-1" d="M271,23.72a2.45,2.45,0,0,1,1.69.59,1.85,1.85,0,0,1,.5.69,2.3,2.3,0,0,1,.16.88,2.35,2.35,0,0,1-.38,1.29,4.85,4.85,0,0,1-1.48,1.28q-.41.25-.71.47a5.84,5.84,0,0,0-.48.39,2.33,2.33,0,0,0-.52.68h3.61v1h-5.07a2.79,2.79,0,0,1,.33-1.32,3.05,3.05,0,0,1,.42-.57,4.6,4.6,0,0,1,.62-.55l.79-.59.93-.69a2.26,2.26,0,0,0,.59-.63,1.35,1.35,0,0,0,.19-.69,1.39,1.39,0,0,0-.09-.5,1.11,1.11,0,0,0-.26-.4,1.18,1.18,0,0,0-.39-.25,1.47,1.47,0,0,0-1.09,0,1.22,1.22,0,0,0-.41.31,1.34,1.34,0,0,0-.24.44,1.67,1.67,0,0,0-.08.51v.12h-1.11V26.1a2.61,2.61,0,0,1,.17-1,2.13,2.13,0,0,1,.49-.75,2.27,2.27,0,0,1,.78-.49A2.88,2.88,0,0,1,271,23.72Z"/><path class="cls-1" d="M276.91,23.72a2.21,2.21,0,0,1,1.93.94,4.77,4.77,0,0,1,.66,2.75,4.86,4.86,0,0,1-.66,2.79,2.44,2.44,0,0,1-3.85,0,4.84,4.84,0,0,1-.66-2.79,4.79,4.79,0,0,1,.66-2.76A2.2,2.2,0,0,1,276.91,23.72Zm-1.42,3.7a8.68,8.68,0,0,0,.06,1,3.48,3.48,0,0,0,.22.89,1.53,1.53,0,0,0,.43.62,1.06,1.06,0,0,0,.71.23,1.13,1.13,0,0,0,.52-.11,1.15,1.15,0,0,0,.38-.31,1.78,1.78,0,0,0,.26-.47,3.39,3.39,0,0,0,.16-.57,5.26,5.26,0,0,0,.09-.64c0-.22,0-.44,0-.66a8.19,8.19,0,0,0-.07-1.06,3.19,3.19,0,0,0-.23-.87,1.52,1.52,0,0,0-.44-.59,1.1,1.1,0,0,0-.7-.22,1.07,1.07,0,0,0-.5.11,1.17,1.17,0,0,0-.37.31,1.69,1.69,0,0,0-.26.46,3.55,3.55,0,0,0-.16.57,5.28,5.28,0,0,0-.09.63C275.5,27,275.49,27.2,275.49,27.42Z"/><path class="cls-1" d="M283,23.72a2.21,2.21,0,0,1,1.93.94,4.77,4.77,0,0,1,.66,2.75,4.86,4.86,0,0,1-.66,2.79,2.44,2.44,0,0,1-3.85,0,4.84,4.84,0,0,1-.66-2.79,4.79,4.79,0,0,1,.66-2.76A2.2,2.2,0,0,1,283,23.72Zm-1.42,3.7a8.68,8.68,0,0,0,.06,1,3.48,3.48,0,0,0,.22.89,1.53,1.53,0,0,0,.43.62,1.06,1.06,0,0,0,.71.23,1.13,1.13,0,0,0,.52-.11,1.15,1.15,0,0,0,.38-.31,1.78,1.78,0,0,0,.26-.47,3.39,3.39,0,0,0,.16-.57,5.26,5.26,0,0,0,.09-.64c0-.22,0-.44,0-.66a8.19,8.19,0,0,0-.07-1.06,3.19,3.19,0,0,0-.23-.87,1.52,1.52,0,0,0-.44-.59,1.1,1.1,0,0,0-.7-.22,1.07,1.07,0,0,0-.5.11,1.17,1.17,0,0,0-.37.31,1.69,1.69,0,0,0-.26.46,3.55,3.55,0,0,0-.16.57,5.28,5.28,0,0,0-.09.63C281.56,27,281.55,27.2,281.55,27.42Z"/><rect class="cls-2" x="16" y="35" width="270" height="6"/><g class="cls-3"><path class="cls-4" d="M285,36v4H17V36H285m1-1H16v6H286V35Z"/></g><line class="cls-5" x1="73.5" y1="34.98" x2="73.5" y2="51"/><rect class="cls-6" x="53.5" y="50.5" width="40" height="19"/><path class="cls-7" d="M93,51V69H54V51H93m1-1H53V70H94V50Z"/><line class="cls-5" x1="151.5" y1="35" x2="151.5" y2="51"/><rect class="cls-6" x="131.5" y="50.5" width="40" height="19"/><path class="cls-7" d="M171,51V69H132V51h39m1-1H131V70h41V50Z"/><rect class="cls-8" x="74.5" y="35.5" width="76" height="5"/><path class="cls-8" d="M150,36v4H75V36h75m1-1H74v6h77V35Z"/><path class="cls-9" d="M68.75,55.27a3,3,0,0,1,2,.7,2.22,2.22,0,0,1,.6.83,2.77,2.77,0,0,1,.19,1.06,2.82,2.82,0,0,1-.46,1.55,5.83,5.83,0,0,1-1.78,1.54q-.5.3-.85.57a6.91,6.91,0,0,0-.58.47,2.8,2.8,0,0,0-.62.81h4.33V64H65.54a3.35,3.35,0,0,1,.39-1.59,3.73,3.73,0,0,1,.51-.69,5.59,5.59,0,0,1,.74-.66l.95-.71,1.12-.83a2.7,2.7,0,0,0,.71-.75,1.61,1.61,0,0,0,.23-.83,1.68,1.68,0,0,0-.1-.59,1.33,1.33,0,0,0-.31-.48,1.44,1.44,0,0,0-.47-.3,1.77,1.77,0,0,0-1.31,0,1.46,1.46,0,0,0-.5.38,1.58,1.58,0,0,0-.29.53,2,2,0,0,0-.1.61v.15H65.77v-.15A3.14,3.14,0,0,1,66,57a2.54,2.54,0,0,1,.59-.9,2.71,2.71,0,0,1,.94-.59A3.45,3.45,0,0,1,68.75,55.27Z"/><path class="cls-9" d="M76,55.27a3,3,0,0,1,2,.7,2.22,2.22,0,0,1,.6.83,2.77,2.77,0,0,1,.19,1.06,2.82,2.82,0,0,1-.46,1.55,5.83,5.83,0,0,1-1.78,1.54q-.5.3-.85.57a6.91,6.91,0,0,0-.58.47,2.8,2.8,0,0,0-.62.81h4.33V64H72.81a3.35,3.35,0,0,1,.39-1.59,3.73,3.73,0,0,1,.51-.69,5.59,5.59,0,0,1,.74-.66l.95-.71,1.12-.83a2.7,2.7,0,0,0,.71-.75,1.61,1.61,0,0,0,.23-.83,1.68,1.68,0,0,0-.1-.59,1.33,1.33,0,0,0-.31-.48,1.44,1.44,0,0,0-.47-.3,1.77,1.77,0,0,0-1.31,0,1.46,1.46,0,0,0-.5.38,1.58,1.58,0,0,0-.29.53,2,2,0,0,0-.1.61v.15H73v-.15A3.14,3.14,0,0,1,73.24,57a2.54,2.54,0,0,1,.59-.9,2.71,2.71,0,0,1,.94-.59A3.45,3.45,0,0,1,76,55.27Z"/><path class="cls-9" d="M82.06,62.36V64H80.46V62.36Z"/><path class="cls-9" d="M88.55,62v2H87.24V62H83.48V60.67L87.3,55.4h1.25v5.41h1.2V62Zm-1.31-4.82h0l-2.62,3.67h2.65Z"/><path class="cls-9" d="M148.22,55.44v1.18h-3.63l-.42,2.24,0,0a2.3,2.3,0,0,1,.75-.5,2.57,2.57,0,0,1,1-.17,2.81,2.81,0,0,1,1.14.22,2.53,2.53,0,0,1,.86.62,2.71,2.71,0,0,1,.55.93,3.47,3.47,0,0,1,.19,1.17,2.93,2.93,0,0,1-.24,1.17,3,3,0,0,1-.66,1,3.13,3.13,0,0,1-1,.65,3.22,3.22,0,0,1-1.25.24,4.16,4.16,0,0,1-1.15-.15,2.71,2.71,0,0,1-.93-.46,2.33,2.33,0,0,1-.64-.76,2.65,2.65,0,0,1-.28-1.07h1.4a1.51,1.51,0,0,0,.14.5,1.33,1.33,0,0,0,.31.41,1.41,1.41,0,0,0,.48.28,2,2,0,0,0,.65.1,1.67,1.67,0,0,0,.73-.16,1.7,1.7,0,0,0,.55-.42,1.85,1.85,0,0,0,.35-.61,2.17,2.17,0,0,0,.12-.73,2.11,2.11,0,0,0-.12-.7,1.65,1.65,0,0,0-.89-1,1.74,1.74,0,0,0-.74-.15A1.76,1.76,0,0,0,144,60h-1.24l.84-4.6Z"/><path class="cls-9" d="M152.7,64V58.13h-2.2v-1a6,6,0,0,0,.9-.07,2.36,2.36,0,0,0,.63-.18,1.57,1.57,0,0,0,.64-.55,2.21,2.21,0,0,0,.31-.89h1.11V64Z"/><path class="cls-9" d="M159.06,62.36V64h-1.61V62.36Z"/><path class="cls-9" d="M166.21,55.44v1.18h-3.63l-.42,2.24,0,0a2.3,2.3,0,0,1,.75-.5,2.57,2.57,0,0,1,1-.17,2.81,2.81,0,0,1,1.14.22,2.53,2.53,0,0,1,.86.62,2.71,2.71,0,0,1,.55.93,3.47,3.47,0,0,1,.19,1.17,2.93,2.93,0,0,1-.24,1.17,3,3,0,0,1-.66,1,3.13,3.13,0,0,1-1,.65,3.22,3.22,0,0,1-1.25.24,4.16,4.16,0,0,1-1.15-.15,2.71,2.71,0,0,1-.93-.46,2.33,2.33,0,0,1-.64-.76,2.65,2.65,0,0,1-.28-1.07h1.4a1.51,1.51,0,0,0,.14.5,1.33,1.33,0,0,0,.31.41,1.41,1.41,0,0,0,.48.28,2,2,0,0,0,.65.1,1.67,1.67,0,0,0,.73-.16,1.7,1.7,0,0,0,.55-.42,1.85,1.85,0,0,0,.35-.61,2.17,2.17,0,0,0,.12-.73,2.11,2.11,0,0,0-.12-.7,1.65,1.65,0,0,0-.89-1,1.74,1.74,0,0,0-.74-.15A1.76,1.76,0,0,0,162,60h-1.24l.84-4.6Z"/></g></svg>