<svg xmlns="http://www.w3.org/2000/svg" viewBox="0 0 185 50"><defs><style>.cls-1{fill:#dcdcdc;}.cls-1,.cls-2,.cls-6{opacity:0.6;}.cls-3{fill:#bebebe;}.cls-4{fill:#464646;}.cls-5{fill:none;stroke:#a0a0a0;}.cls-5,.cls-8{stroke-miterlimit:10;}.cls-6{fill:#cdcdcd;}.cls-7{fill:#969696;}.cls-8{fill:#206397;stroke:#0aaeff;stroke-width:2px;}</style></defs><title>Artboard 37 copy 2</title><g id="Content"><rect class="cls-1" x="12" y="12" width="28" height="28"/><g class="cls-2"><path class="cls-3" d="M40,12V40H12V12H40m1-1H11V41H41V11Z"/></g><path class="cls-4" d="M25.8,29.5V23.63H23.6v-1a6,6,0,0,0,.9-.07,2.36,2.36,0,0,0,.63-.18,1.57,1.57,0,0,0,.64-.55,2.21,2.21,0,0,0,.31-.89H27.2v8.6Z"/><line class="cls-5" x1="11" y1="40.5" x2="41" y2="40.5"/><rect class="cls-1" x="114" y="12" width="28" height="28"/><g class="cls-2"><path class="cls-3" d="M142,12V40H114V12h28m1-1H113V41h30V11Z"/></g><path class="cls-4" d="M129.92,27.46v2h-1.31v-2h-3.76V26.17l3.82-5.27h1.25v5.41h1.2v1.15Zm-1.31-4.82h0L126,26.31h2.65Z"/><line class="cls-5" x1="113" y1="40.5" x2="143" y2="40.5"/><rect class="cls-6" x="46" y="12" width="28" height="28"/><g class="cls-2"><path class="cls-7" d="M74,12V40H46V12H74m1-1H45V41H75V11Z"/></g><path class="cls-4" d="M60.12,20.77a3,3,0,0,1,2,.7,2.22,2.22,0,0,1,.6.83,2.77,2.77,0,0,1,.19,1.06,2.82,2.82,0,0,1-.46,1.55,5.83,5.83,0,0,1-1.78,1.54q-.5.3-.85.57a6.91,6.91,0,0,0-.58.47,2.8,2.8,0,0,0-.62.81H63V29.5H56.91a3.35,3.35,0,0,1,.39-1.59,3.73,3.73,0,0,1,.51-.69,5.59,5.59,0,0,1,.74-.66l.95-.71L60.61,25a2.7,2.7,0,0,0,.71-.75,1.61,1.61,0,0,0,.23-.83,1.68,1.68,0,0,0-.1-.59,1.33,1.33,0,0,0-.31-.48,1.44,1.44,0,0,0-.47-.3,1.77,1.77,0,0,0-1.31,0,1.46,1.46,0,0,0-.5.38,1.58,1.58,0,0,0-.29.53,2,2,0,0,0-.1.61v.15H57.14v-.15a3.14,3.14,0,0,1,.21-1.15,2.54,2.54,0,0,1,.59-.9,2.71,2.71,0,0,1,.94-.59A3.45,3.45,0,0,1,60.12,20.77Z"/><line class="cls-8" x1="45" y1="12" x2="75" y2="12"/><rect class="cls-6" x="80" y="12" width="28" height="28"/><g class="cls-2"><path class="cls-7" d="M108,12V40H80V12h28m1-1H79V41h30V11Z"/></g><path class="cls-4" d="M94,20.77a3.64,3.64,0,0,1,1,.15,2.72,2.72,0,0,1,.88.44,2.18,2.18,0,0,1,.62.72,2.1,2.1,0,0,1,.23,1,2.16,2.16,0,0,1-.08.62,1.83,1.83,0,0,1-.25.52,1.63,1.63,0,0,1-.4.41,1.88,1.88,0,0,1-.56.27v0a1.93,1.93,0,0,1,1.2.71,2.07,2.07,0,0,1,.42,1.3,2.5,2.5,0,0,1-.89,2,3.31,3.31,0,0,1-2.23.76,3.84,3.84,0,0,1-1.17-.18,2.94,2.94,0,0,1-1-.52,2.49,2.49,0,0,1-.67-.84A2.55,2.55,0,0,1,90.89,27v-.13h1.34V27a1.45,1.45,0,0,0,.49,1.11,1.58,1.58,0,0,0,.52.3,1.91,1.91,0,0,0,.64.11,1.81,1.81,0,0,0,1.28-.44A1.45,1.45,0,0,0,95.64,27a1.34,1.34,0,0,0-.45-1.09,2.2,2.2,0,0,0-1.46-.39h-.35v-1h.43a1.86,1.86,0,0,0,1.2-.35,1.1,1.1,0,0,0,.4-.9,1.39,1.39,0,0,0-.11-.58,1.12,1.12,0,0,0-.31-.41,1.34,1.34,0,0,0-.46-.24,2,2,0,0,0-.57-.08,1.7,1.7,0,0,0-.6.1,1.41,1.41,0,0,0-.48.3,1.44,1.44,0,0,0-.33.47,1.62,1.62,0,0,0-.13.64H91.09a2.81,2.81,0,0,1,.23-1,2.55,2.55,0,0,1,.59-.84,2.75,2.75,0,0,1,.91-.56A3.27,3.27,0,0,1,94,20.77Z"/><line class="cls-8" x1="79" y1="12" x2="109" y2="12"/><rect class="cls-6" x="148" y="12" width="28" height="28"/><g class="cls-2"><path class="cls-7" d="M176,12V40H148V12h28m1-1H147V41h30V11Z"/></g><path class="cls-4" d="M164.58,20.94v1.18H161l-.42,2.24,0,0a2.3,2.3,0,0,1,.75-.5,2.57,2.57,0,0,1,1-.17,2.81,2.81,0,0,1,1.14.22,2.53,2.53,0,0,1,.86.62,2.71,2.71,0,0,1,.55.93,3.47,3.47,0,0,1,.19,1.17,2.93,2.93,0,0,1-.24,1.17,3,3,0,0,1-.66,1,3.13,3.13,0,0,1-1,.65,3.22,3.22,0,0,1-1.25.24,4.16,4.16,0,0,1-1.15-.15,2.71,2.71,0,0,1-.93-.46,2.33,2.33,0,0,1-.64-.76,2.65,2.65,0,0,1-.28-1.07h1.4a1.51,1.51,0,0,0,.14.5,1.33,1.33,0,0,0,.31.41,1.41,1.41,0,0,0,.48.28,2,2,0,0,0,.65.1,1.67,1.67,0,0,0,.73-.16,1.7,1.7,0,0,0,.55-.42,1.85,1.85,0,0,0,.35-.61,2.17,2.17,0,0,0,.12-.73,2.11,2.11,0,0,0-.12-.7,1.65,1.65,0,0,0-.89-1,1.74,1.74,0,0,0-.74-.15,1.76,1.76,0,0,0-1.52.76h-1.24l.84-4.6Z"/><line class="cls-8" x1="147" y1="12" x2="177" y2="12"/></g></svg>