<svg xmlns="http://www.w3.org/2000/svg" viewBox="0 0 750 655"><defs><style>.cls-1{fill:#fff;}.cls-2{fill:#d2d2d2;}.cls-3{fill:#787878;}.cls-4{fill:#a0a0a0;}.cls-5{fill:#414141;}.cls-6{fill:#464646;}</style></defs><title>Artboard 54</title><g id="Content"><rect class="cls-1" x="0.5" y="0.5" width="749" height="654"/><path class="cls-2" d="M749,1V654H1V1H749m1-1H0V655H750V0Z"/><rect class="cls-2" x="1" y="218" width="748" height="1"/><rect class="cls-2" x="1" y="327" width="748" height="1"/><rect class="cls-2" x="1" y="109" width="748" height="1"/><path class="cls-3" d="M61.29,285V267.75h-.05L54.43,285H52.61l-6.82-17.25h-.05V285H43.82V265h2.8l6.89,17.5h0L60.41,265h2.79v20Z"/><path class="cls-3" d="M81.86,277.34a10,10,0,0,1-.47,3.06A7.74,7.74,0,0,1,80,283a6.77,6.77,0,0,1-5.35,2.42,6.62,6.62,0,0,1-5.24-2.28,9.5,9.5,0,0,1,0-11.63,7.19,7.19,0,0,1,10.51,0A8.51,8.51,0,0,1,81.86,277.34Zm-1.87,0a8.88,8.88,0,0,0-.31-2.32,6.59,6.59,0,0,0-1-2.1A5.26,5.26,0,0,0,77,271.4a4.78,4.78,0,0,0-2.43-.59,4.62,4.62,0,0,0-2.3.56,5.23,5.23,0,0,0-1.67,1.48,6.66,6.66,0,0,0-1,2.1,8.53,8.53,0,0,0-.34,2.39,8.34,8.34,0,0,0,.33,2.32,6.89,6.89,0,0,0,1,2.1,5.2,5.2,0,0,0,1.67,1.52,5,5,0,0,0,4.64,0,5.44,5.44,0,0,0,1.69-1.47,6.55,6.55,0,0,0,1-2.08A8.27,8.27,0,0,0,80,277.34Z"/><path class="cls-3" d="M92.21,285.14l-.53,0h-1a7.07,7.07,0,0,1-1.59-.15,2.24,2.24,0,0,1-1-.53,2.07,2.07,0,0,1-.57-1,6.15,6.15,0,0,1-.17-1.59V271.26H84.22v-1.57H87.3v-4.59h1.87v4.59h3.5v1.57h-3.5v10.45a4.08,4.08,0,0,0,.07.79,1.49,1.49,0,0,0,.25.59,1.16,1.16,0,0,0,.49.38,2,2,0,0,0,.81.14h.88l.53,0,.49,0v1.59Z"/><path class="cls-3" d="M109.94,277.34a10,10,0,0,1-.47,3.06A7.74,7.74,0,0,1,108,283a6.77,6.77,0,0,1-5.35,2.42,6.62,6.62,0,0,1-5.24-2.28,9.5,9.5,0,0,1,0-11.63,7.19,7.19,0,0,1,10.51,0A8.51,8.51,0,0,1,109.94,277.34Zm-1.87,0a8.88,8.88,0,0,0-.31-2.32,6.59,6.59,0,0,0-1-2.1,5.26,5.26,0,0,0-1.68-1.52,4.78,4.78,0,0,0-2.43-.59,4.62,4.62,0,0,0-2.3.56,5.23,5.23,0,0,0-1.67,1.48,6.66,6.66,0,0,0-1,2.1,8.53,8.53,0,0,0-.34,2.39,8.34,8.34,0,0,0,.33,2.32,6.89,6.89,0,0,0,1,2.1,5.2,5.2,0,0,0,1.67,1.52,5,5,0,0,0,4.64,0,5.44,5.44,0,0,0,1.69-1.47,6.55,6.55,0,0,0,1-2.08A8.27,8.27,0,0,0,108.07,277.34Z"/><path class="cls-3" d="M114.14,285V269.69h1.74v3.58h.05a6,6,0,0,1,2.11-2.79,5.42,5.42,0,0,1,3.21-1h.67v1.86h-.42a5.18,5.18,0,0,0-4,1.6,5.5,5.5,0,0,0-1.5,3.94V285Z"/><path class="cls-3" d="M135.25,265l11.65,16.91h.05V265h1.9v20h-2.12l-11.65-16.91H135V285h-1.91V265Z"/><path class="cls-3" d="M167.21,284.89a5.58,5.58,0,0,1-.62.09l-.57,0a3.2,3.2,0,0,1-1-.14,1.52,1.52,0,0,1-.68-.46,1.9,1.9,0,0,1-.38-.83,5.67,5.67,0,0,1-.12-1.24h-.07a7.1,7.1,0,0,1-2.41,2.43,6.51,6.51,0,0,1-3.16.68,5.75,5.75,0,0,1-3.73-1.16A4.08,4.08,0,0,1,153,281a3.87,3.87,0,0,1,1.53-3.34q1.56-1.13,6.9-1.6a4.65,4.65,0,0,0,1-.19,1.74,1.74,0,0,0,.67-.38,1.4,1.4,0,0,0,.37-.61,3,3,0,0,0,.12-.89,2.9,2.9,0,0,0-.94-2.34,4.72,4.72,0,0,0-3.06-.8A6.11,6.11,0,0,0,158,271a3.87,3.87,0,0,0-1.24.59,2.63,2.63,0,0,0-.78.9,2.86,2.86,0,0,0-.31,1.14h-1.87a4.65,4.65,0,0,1,.51-1.81,4.14,4.14,0,0,1,1.2-1.39,5.67,5.67,0,0,1,1.88-.89,9.43,9.43,0,0,1,2.55-.31,6.17,6.17,0,0,1,4.27,1.25,4.57,4.57,0,0,1,1.37,3.55v8.31a1.1,1.1,0,0,0,.26.77,1.07,1.07,0,0,0,.83.29,1.63,1.63,0,0,0,.59-.11Zm-3.55-8.27h-.05q-.27.52-1.79.72l-1.55.23-1.72.29a6.25,6.25,0,0,0-2.72,1,2.34,2.34,0,0,0-.92,2,2.71,2.71,0,0,0,1,2.2,3.74,3.74,0,0,0,2.41.82,5.52,5.52,0,0,0,3.81-1.35,4.32,4.32,0,0,0,1.52-3.36Z"/><path class="cls-3" d="M189.85,285V274.58a4,4,0,0,0-.87-2.86,4.32,4.32,0,0,0-5.84.49,6.53,6.53,0,0,0-1.05,4V285H180.2V274.51a4.23,4.23,0,0,0-.79-2.72,2.91,2.91,0,0,0-2.41-1,4,4,0,0,0-3.4,1.52,6.36,6.36,0,0,0-1.16,4V285h-1.87V269.69h1.74v2.57h.08a5.27,5.27,0,0,1,5-3,5.72,5.72,0,0,1,1.5.19,4.38,4.38,0,0,1,1.27.57,3.88,3.88,0,0,1,1,.93,4.35,4.35,0,0,1,.64,1.29,5,5,0,0,1,2-2.23,5.6,5.6,0,0,1,2.89-.75,4.94,4.94,0,0,1,3.81,1.35,5.5,5.5,0,0,1,1.25,3.87V285Z"/><path class="cls-3" d="M202.84,269.25a6.33,6.33,0,0,1,3,.68,6.06,6.06,0,0,1,2.09,1.83,8.06,8.06,0,0,1,1.22,2.65,12.16,12.16,0,0,1,.4,3.12v.3H197.79a8.33,8.33,0,0,0,.29,2.2A6,6,0,0,0,199,282a4.62,4.62,0,0,0,1.54,1.37,4.47,4.47,0,0,0,2.21.52,5.67,5.67,0,0,0,1.63-.22,4.7,4.7,0,0,0,1.3-.6,4.09,4.09,0,0,0,1-.91,5.65,5.65,0,0,0,.68-1.14h1.83a7,7,0,0,1-.9,1.83,5.78,5.78,0,0,1-1.37,1.4,6.24,6.24,0,0,1-1.83.9,7.8,7.8,0,0,1-2.32.32,6.85,6.85,0,0,1-3-.62,6,6,0,0,1-2.13-1.71,7.27,7.27,0,0,1-1.26-2.57,12,12,0,0,1-.41-3.21,10.86,10.86,0,0,1,.42-3,7.84,7.84,0,0,1,1.26-2.59,6.39,6.39,0,0,1,2.15-1.82A6.51,6.51,0,0,1,202.84,269.25Zm4.87,7a7.1,7.1,0,0,0-.37-2,5.7,5.7,0,0,0-1-1.76,4.85,4.85,0,0,0-1.52-1.26,4.31,4.31,0,0,0-2.06-.48,4.3,4.3,0,0,0-3.49,1.63,6.31,6.31,0,0,0-1,1.74,10,10,0,0,0-.54,2.1Z"/><path class="cls-3" d="M58.26,389.19a5,5,0,0,1-.66,2.66,5.29,5.29,0,0,1-1.78,1.77,8.06,8.06,0,0,1-2.56,1,14.35,14.35,0,0,1-3,.31,11.21,11.21,0,0,1-3-.38,7.4,7.4,0,0,1-2.42-1.13,5.47,5.47,0,0,1-1.62-1.84,5.19,5.19,0,0,1-.59-2.51v-.45h1.91v.14a4.36,4.36,0,0,0,.36,1.77A3.84,3.84,0,0,0,46,392a5.66,5.66,0,0,0,1.89,1,8.84,8.84,0,0,0,2.68.36,9.26,9.26,0,0,0,2.1-.24,6,6,0,0,0,1.84-.75A4.23,4.23,0,0,0,55.85,391a3.22,3.22,0,0,0,.5-1.81q0-2.58-3.9-3.55l-4.66-1.15a9.24,9.24,0,0,1-2-.72,5,5,0,0,1-1.4-1,3.72,3.72,0,0,1-.81-1.35,5.23,5.23,0,0,1-.26-1.7,4.89,4.89,0,0,1,.59-2.45,5.47,5.47,0,0,1,1.58-1.76,7.17,7.17,0,0,1,2.26-1.07,9.71,9.71,0,0,1,2.66-.36,10.12,10.12,0,0,1,2.8.37,6.77,6.77,0,0,1,2.23,1.08,5.29,5.29,0,0,1,1.5,1.74,5.24,5.24,0,0,1,.59,2.34H55.61a3.74,3.74,0,0,0-.46-1.52,4.16,4.16,0,0,0-1.07-1.24,5.22,5.22,0,0,0-1.61-.84,6.55,6.55,0,0,0-2.06-.31,8.15,8.15,0,0,0-2.13.26,5,5,0,0,0-1.65.76A3.42,3.42,0,0,0,45.55,378a3.72,3.72,0,0,0-.38,1.7,2.8,2.8,0,0,0,.25,1.22,2.63,2.63,0,0,0,.67.88,3.59,3.59,0,0,0,1,.59,9.22,9.22,0,0,0,1.23.4l4.55,1.12a8.71,8.71,0,0,1,4.1,2A4.5,4.5,0,0,1,58.26,389.19Z"/><path class="cls-3" d="M68.2,378.74a6.33,6.33,0,0,1,3,.68,6.06,6.06,0,0,1,2.09,1.83,8.06,8.06,0,0,1,1.22,2.65,12.16,12.16,0,0,1,.4,3.12v.3H63.15a8.33,8.33,0,0,0,.29,2.2,6,6,0,0,0,.9,1.93,4.63,4.63,0,0,0,1.54,1.37,4.47,4.47,0,0,0,2.21.52,5.69,5.69,0,0,0,1.63-.22,4.72,4.72,0,0,0,1.3-.6,4.1,4.1,0,0,0,1-.91,5.65,5.65,0,0,0,.68-1.14h1.83a7,7,0,0,1-.9,1.83,5.79,5.79,0,0,1-1.37,1.4,6.24,6.24,0,0,1-1.83.9,7.8,7.8,0,0,1-2.32.32,6.85,6.85,0,0,1-3-.62,6,6,0,0,1-2.13-1.71A7.27,7.27,0,0,1,61.69,390a12,12,0,0,1-.41-3.21,10.86,10.86,0,0,1,.42-3A7.84,7.84,0,0,1,63,381.25a6.38,6.38,0,0,1,2.15-1.82A6.51,6.51,0,0,1,68.2,378.74Zm4.87,7a7.1,7.1,0,0,0-.37-2,5.7,5.7,0,0,0-1-1.76,4.85,4.85,0,0,0-1.52-1.26,4.3,4.3,0,0,0-2.06-.48,4.3,4.3,0,0,0-3.49,1.63,6.29,6.29,0,0,0-1,1.74,10,10,0,0,0-.54,2.1Z"/><path class="cls-3" d="M78.85,394.49V379.18h1.74v3.58h.05A6,6,0,0,1,82.75,380,5.42,5.42,0,0,1,86,379h.67v1.86H86.2a5.18,5.18,0,0,0-4,1.6,5.5,5.5,0,0,0-1.5,3.94v8.12Z"/><path class="cls-3" d="M91.58,372.48v3H89.7v-3Zm0,6.7v15.31H89.7V379.18Z"/><path class="cls-3" d="M110,394.39a5.58,5.58,0,0,1-.62.09l-.57,0a3.2,3.2,0,0,1-1-.14,1.52,1.52,0,0,1-.68-.46,1.91,1.91,0,0,1-.38-.83,5.67,5.67,0,0,1-.12-1.24h-.07a7.11,7.11,0,0,1-2.41,2.43,6.51,6.51,0,0,1-3.16.68,5.75,5.75,0,0,1-3.73-1.16,4.08,4.08,0,0,1-1.41-3.34,3.87,3.87,0,0,1,1.53-3.34q1.56-1.13,6.9-1.6a4.67,4.67,0,0,0,1-.19,1.75,1.75,0,0,0,.67-.38,1.4,1.4,0,0,0,.37-.61,3,3,0,0,0,.12-.89,2.9,2.9,0,0,0-.94-2.34,4.72,4.72,0,0,0-3.06-.8,6.09,6.09,0,0,0-1.69.21,3.86,3.86,0,0,0-1.24.59,2.63,2.63,0,0,0-.78.9,2.86,2.86,0,0,0-.31,1.14H96.5a4.64,4.64,0,0,1,.51-1.81,4.14,4.14,0,0,1,1.2-1.39,5.67,5.67,0,0,1,1.88-.89,9.41,9.41,0,0,1,2.55-.31A6.17,6.17,0,0,1,106.9,380a4.57,4.57,0,0,1,1.37,3.55v8.31a1.1,1.1,0,0,0,.26.77,1.07,1.07,0,0,0,.83.29,1.63,1.63,0,0,0,.59-.11Zm-3.55-8.27h-.05q-.27.52-1.79.72l-1.55.23-1.72.29a6.24,6.24,0,0,0-2.72,1,2.33,2.33,0,0,0-.92,2,2.71,2.71,0,0,0,1,2.2,3.74,3.74,0,0,0,2.41.82,5.52,5.52,0,0,0,3.81-1.35,4.32,4.32,0,0,0,1.52-3.36Z"/><path class="cls-3" d="M115.22,373.3v21.19h-1.87V373.3Z"/><path class="cls-3" d="M135.33,378.74a7.82,7.82,0,0,1,2.53.36,4.27,4.27,0,0,1,1.74,1.08,4.36,4.36,0,0,1,1,1.8,8.87,8.87,0,0,1,.32,2.52v10H139v-9.68a5.14,5.14,0,0,0-1-3.37,3.6,3.6,0,0,0-2.93-1.14,4.83,4.83,0,0,0-2,.4,4.38,4.38,0,0,0-1.52,1.11,5,5,0,0,0-1,1.66,6.14,6.14,0,0,0-.33,2.06v9h-1.87V379.18h1.87v2.65h.05a4.63,4.63,0,0,1,.81-1.3,5.07,5.07,0,0,1,1.15-1,5.45,5.45,0,0,1,1.4-.61A5.8,5.8,0,0,1,135.33,378.74Z"/><path class="cls-3" d="M156.67,394.49v-2.75h-.07a5.78,5.78,0,0,1-.91,1.35,5.46,5.46,0,0,1-1.22,1,5.77,5.77,0,0,1-1.48.63,6.39,6.39,0,0,1-1.69.22,5.16,5.16,0,0,1-4.05-1.46,6.17,6.17,0,0,1-1.31-4.24V379.18h1.87v10a6.21,6.21,0,0,0,.23,1.78,3.34,3.34,0,0,0,.72,1.32,3.1,3.1,0,0,0,1.26.82,5.44,5.44,0,0,0,1.85.28,4,4,0,0,0,2.08-.53,4.49,4.49,0,0,0,1.44-1.38,6.12,6.12,0,0,0,.83-1.93,9.09,9.09,0,0,0,.27-2.19v-8.15h1.87v15.31Z"/><path class="cls-3" d="M182.75,394.49V384.08a4,4,0,0,0-.87-2.86,4.32,4.32,0,0,0-5.84.49,6.53,6.53,0,0,0-1.05,4v8.8H173.1V384a4.23,4.23,0,0,0-.79-2.72,2.91,2.91,0,0,0-2.41-1,4,4,0,0,0-3.4,1.52,6.36,6.36,0,0,0-1.16,4v8.68h-1.87V379.18h1.74v2.57h.08a5.27,5.27,0,0,1,5-3,5.7,5.7,0,0,1,1.5.19,4.37,4.37,0,0,1,1.27.57,3.88,3.88,0,0,1,1,.93,4.35,4.35,0,0,1,.64,1.29,5,5,0,0,1,2-2.23,5.6,5.6,0,0,1,2.89-.75,4.94,4.94,0,0,1,3.81,1.35,5.5,5.5,0,0,1,1.25,3.87v10.53Z"/><path class="cls-3" d="M203.88,386.84a11.15,11.15,0,0,1-.4,3,7.88,7.88,0,0,1-1.24,2.6,6.27,6.27,0,0,1-2.14,1.83,6.53,6.53,0,0,1-3.1.69,6.78,6.78,0,0,1-1.69-.21,6,6,0,0,1-1.54-.63,5.44,5.44,0,0,1-1.29-1,5.07,5.07,0,0,1-.93-1.48h-.05v2.91h-1.74V373.3h1.87v8.79h.05a4.61,4.61,0,0,1,.84-1.43,5.24,5.24,0,0,1,1.25-1.05,5.82,5.82,0,0,1,1.54-.65,7.08,7.08,0,0,1,4.71.43,6.13,6.13,0,0,1,2.13,1.76,7.81,7.81,0,0,1,1.28,2.58A11.72,11.72,0,0,1,203.88,386.84Zm-1.87,0a10.29,10.29,0,0,0-.12-1.52,8.3,8.3,0,0,0-.37-1.5,6.79,6.79,0,0,0-.66-1.37,4.88,4.88,0,0,0-1-1.12,4.3,4.3,0,0,0-1.29-.75,4.68,4.68,0,0,0-1.65-.27,4.79,4.79,0,0,0-4,2,6.35,6.35,0,0,0-1,2.08,9.19,9.19,0,0,0-.33,2.47,9.81,9.81,0,0,0,.29,2.39,6.22,6.22,0,0,0,.94,2.09,4.85,4.85,0,0,0,1.66,1.48,5.08,5.08,0,0,0,2.48.56,4.38,4.38,0,0,0,2.25-.55,4.58,4.58,0,0,0,1.54-1.46,6.78,6.78,0,0,0,.9-2.08A11.46,11.46,0,0,0,202,386.84Z"/><path class="cls-3" d="M214.24,378.74a6.33,6.33,0,0,1,3,.68,6.06,6.06,0,0,1,2.09,1.83,8.06,8.06,0,0,1,1.22,2.65A12.16,12.16,0,0,1,221,387v.3H209.2a8.33,8.33,0,0,0,.29,2.2,6,6,0,0,0,.9,1.93,4.63,4.63,0,0,0,1.54,1.37,4.47,4.47,0,0,0,2.21.52,5.69,5.69,0,0,0,1.63-.22,4.72,4.72,0,0,0,1.3-.6,4.1,4.1,0,0,0,1-.91,5.65,5.65,0,0,0,.68-1.14h1.83a7,7,0,0,1-.9,1.83,5.79,5.79,0,0,1-1.37,1.4,6.24,6.24,0,0,1-1.83.9,7.8,7.8,0,0,1-2.32.32,6.85,6.85,0,0,1-3-.62,6,6,0,0,1-2.13-1.71,7.27,7.27,0,0,1-1.26-2.57,12,12,0,0,1-.41-3.21,10.86,10.86,0,0,1,.42-3,7.84,7.84,0,0,1,1.26-2.59,6.38,6.38,0,0,1,2.15-1.82A6.51,6.51,0,0,1,214.24,378.74Zm4.87,7a7.1,7.1,0,0,0-.37-2,5.7,5.7,0,0,0-1-1.76,4.85,4.85,0,0,0-1.52-1.26,4.3,4.3,0,0,0-2.06-.48,4.3,4.3,0,0,0-3.49,1.63,6.29,6.29,0,0,0-1,1.74,10,10,0,0,0-.54,2.1Z"/><path class="cls-3" d="M224.89,394.49V379.18h1.74v3.58h.05a6,6,0,0,1,2.11-2.79,5.42,5.42,0,0,1,3.21-1h.67v1.86h-.42a5.18,5.18,0,0,0-4,1.6,5.5,5.5,0,0,0-1.5,3.94v8.12Z"/><path class="cls-3" d="M61.29,175.51V158.25h-.05l-6.81,17.25H52.61l-6.82-17.25h-.05v17.25H43.82v-20h2.8L53.51,173h0l6.86-17.5h2.79v20Z"/><path class="cls-3" d="M81.86,167.85a10,10,0,0,1-.47,3.06A7.74,7.74,0,0,1,80,173.54,6.77,6.77,0,0,1,74.61,176a6.62,6.62,0,0,1-5.24-2.28,9.5,9.5,0,0,1,0-11.63,7.19,7.19,0,0,1,10.51,0A8.51,8.51,0,0,1,81.86,167.85Zm-1.87,0a8.87,8.87,0,0,0-.31-2.32,6.58,6.58,0,0,0-1-2.1A5.26,5.26,0,0,0,77,161.9a4.78,4.78,0,0,0-2.43-.59,4.61,4.61,0,0,0-2.3.56,5.23,5.23,0,0,0-1.67,1.48,6.65,6.65,0,0,0-1,2.1,8.53,8.53,0,0,0-.34,2.39,8.34,8.34,0,0,0,.33,2.32,6.9,6.9,0,0,0,1,2.1,5.21,5.21,0,0,0,1.67,1.52,5,5,0,0,0,4.64,0,5.45,5.45,0,0,0,1.69-1.47,6.55,6.55,0,0,0,1-2.08A8.27,8.27,0,0,0,80,167.85Z"/><path class="cls-3" d="M92.21,175.65l-.53,0h-1a7.1,7.1,0,0,1-1.59-.15,2.24,2.24,0,0,1-1-.53,2.08,2.08,0,0,1-.57-1,6.16,6.16,0,0,1-.17-1.59V161.77H84.22v-1.57H87.3V155.6h1.87v4.59h3.5v1.57h-3.5v10.45a4.08,4.08,0,0,0,.07.79,1.49,1.49,0,0,0,.25.59A1.16,1.16,0,0,0,90,174a2,2,0,0,0,.81.14h.88l.53,0,.49,0v1.59Z"/><path class="cls-3" d="M109.94,167.85a10,10,0,0,1-.47,3.06,7.74,7.74,0,0,1-1.43,2.63,6.77,6.77,0,0,1-5.35,2.42,6.62,6.62,0,0,1-5.24-2.28,9.5,9.5,0,0,1,0-11.63A7.19,7.19,0,0,1,108,162,8.51,8.51,0,0,1,109.94,167.85Zm-1.87,0a8.87,8.87,0,0,0-.31-2.32,6.58,6.58,0,0,0-1-2.1,5.26,5.26,0,0,0-1.68-1.52,4.78,4.78,0,0,0-2.43-.59,4.61,4.61,0,0,0-2.3.56,5.23,5.23,0,0,0-1.67,1.48,6.65,6.65,0,0,0-1,2.1,8.53,8.53,0,0,0-.34,2.39,8.34,8.34,0,0,0,.33,2.32,6.9,6.9,0,0,0,1,2.1,5.21,5.21,0,0,0,1.67,1.52,5,5,0,0,0,4.64,0,5.45,5.45,0,0,0,1.69-1.47,6.55,6.55,0,0,0,1-2.08A8.27,8.27,0,0,0,108.07,167.85Z"/><path class="cls-3" d="M114.14,175.51V160.19h1.74v3.58h.05A6,6,0,0,1,118,161a5.42,5.42,0,0,1,3.21-1h.67v1.86h-.42a5.18,5.18,0,0,0-4,1.6,5.5,5.5,0,0,0-1.5,3.94v8.12Z"/><path class="cls-3" d="M135.22,155.52v20h-1.9v-20Z"/><path class="cls-3" d="M147.28,155.52a9.6,9.6,0,0,1,7,2.39q2.49,2.41,2.49,7.6t-2.5,7.62a9.38,9.38,0,0,1-6.74,2.38h-6.86v-20Zm-.52,18.36q4.16,0,6.1-1.94t2-6.43q0-4.44-1.91-6.4t-6.43-2h-4v16.73Z"/><rect class="cls-2" x="1" y="436" width="748" height="1"/><polyline class="cls-2" points="1 437 1 436 749 436 749 437"/><rect class="cls-2" x="1" y="545" width="748" height="1"/><polygon class="cls-4" points="710.58 489.62 699 502.25 687.42 489.62 690.01 487.25 699 497.06 707.99 487.25 710.58 489.62"/><polygon class="cls-4" points="710.58 598.62 699 611.25 687.42 598.62 690.01 596.25 699 606.06 707.99 596.25 710.58 598.62"/><path class="cls-3" d="M58.43,45V30.21h0L52.55,45H51L45.15,30.21h0V45H43.46V27.89h2.4l5.91,15h0l5.88-15h2.39V45Z"/><path class="cls-3" d="M75.77,44.91a4.84,4.84,0,0,1-.53.08l-.49,0a2.74,2.74,0,0,1-.88-.12,1.31,1.31,0,0,1-.59-.39,1.64,1.64,0,0,1-.33-.71,4.87,4.87,0,0,1-.1-1.06h-.06a6.1,6.1,0,0,1-2.06,2.09,5.58,5.58,0,0,1-2.71.59,4.93,4.93,0,0,1-3.2-1,3.5,3.5,0,0,1-1.21-2.86,3.32,3.32,0,0,1,1.31-2.86q1.34-1,5.92-1.37a4,4,0,0,0,.88-.16,1.5,1.5,0,0,0,.57-.32,1.2,1.2,0,0,0,.32-.52,2.56,2.56,0,0,0,.1-.76,2.49,2.49,0,0,0-.81-2,4,4,0,0,0-2.62-.69,5.22,5.22,0,0,0-1.45.18,3.3,3.3,0,0,0-1.06.5,2.25,2.25,0,0,0-.67.77,2.45,2.45,0,0,0-.27,1H64.24a4,4,0,0,1,.44-1.55,3.55,3.55,0,0,1,1-1.19,4.86,4.86,0,0,1,1.61-.76,8.06,8.06,0,0,1,2.19-.27,5.29,5.29,0,0,1,3.66,1.07,3.91,3.91,0,0,1,1.17,3v7.13a.94.94,0,0,0,.22.66.92.92,0,0,0,.71.25,1.4,1.4,0,0,0,.5-.09Zm-3-7.09h0q-.23.45-1.54.62l-1.33.2-1.47.25a5.34,5.34,0,0,0-2.33.87,2,2,0,0,0-.79,1.68,2.32,2.32,0,0,0,.87,1.89,3.2,3.2,0,0,0,2.06.7,4.73,4.73,0,0,0,3.27-1.16A3.71,3.71,0,0,0,72.72,40Z"/><path class="cls-3" d="M84.05,31.5a6.91,6.91,0,0,1,1.94.26,5.05,5.05,0,0,1,1.56.75,4.08,4.08,0,0,1,1.11,1.21,4.61,4.61,0,0,1,.59,1.65H87.65a3.47,3.47,0,0,0-.44-1,3,3,0,0,0-.75-.8A3.4,3.4,0,0,0,85.41,33a4.69,4.69,0,0,0-1.35-.18,4,4,0,0,0-2,.47,4.38,4.38,0,0,0-1.44,1.25,5.83,5.83,0,0,0-.88,1.79,7.17,7.17,0,0,0-.3,2.09,7.34,7.34,0,0,0,.28,2,5.75,5.75,0,0,0,.85,1.79A4.52,4.52,0,0,0,82,43.53a3.91,3.91,0,0,0,2,.5,3.86,3.86,0,0,0,1.42-.25,3.76,3.76,0,0,0,1.13-.67,3.58,3.58,0,0,0,.79-1A3.75,3.75,0,0,0,87.75,41h1.61a5.92,5.92,0,0,1-.59,1.71,5,5,0,0,1-1.1,1.41,5.08,5.08,0,0,1-1.59,1,5.76,5.76,0,0,1-2.07.35,6,6,0,0,1-2.58-.54,5.71,5.71,0,0,1-1.94-1.48,6.57,6.57,0,0,1-1.22-2.2,8.93,8.93,0,0,1,0-5.33,6.61,6.61,0,0,1,1.17-2.21,5.8,5.8,0,0,1,1.94-1.54A6,6,0,0,1,84.05,31.5Z"/><path class="cls-3" d="M111.24,44.91a4.84,4.84,0,0,1-.53.08l-.49,0a2.74,2.74,0,0,1-.88-.12,1.31,1.31,0,0,1-.59-.39,1.64,1.64,0,0,1-.33-.71,4.87,4.87,0,0,1-.1-1.06h-.06a6.1,6.1,0,0,1-2.06,2.09,5.58,5.58,0,0,1-2.71.59,4.93,4.93,0,0,1-3.2-1,3.5,3.5,0,0,1-1.21-2.86,3.32,3.32,0,0,1,1.31-2.86q1.34-1,5.92-1.37a4,4,0,0,0,.88-.16,1.5,1.5,0,0,0,.57-.32,1.2,1.2,0,0,0,.32-.52,2.56,2.56,0,0,0,.1-.76,2.49,2.49,0,0,0-.81-2,4,4,0,0,0-2.62-.69,5.22,5.22,0,0,0-1.45.18,3.3,3.3,0,0,0-1.06.5,2.25,2.25,0,0,0-.67.77,2.45,2.45,0,0,0-.27,1H99.71a4,4,0,0,1,.44-1.55,3.55,3.55,0,0,1,1-1.19,4.86,4.86,0,0,1,1.61-.76A8.06,8.06,0,0,1,105,31.5a5.29,5.29,0,0,1,3.66,1.07,3.91,3.91,0,0,1,1.17,3v7.13a.94.94,0,0,0,.22.66.92.92,0,0,0,.71.25,1.4,1.4,0,0,0,.5-.09Zm-3-7.09h0q-.23.45-1.54.62l-1.33.2-1.47.25a5.34,5.34,0,0,0-2.33.87,2,2,0,0,0-.79,1.68,2.32,2.32,0,0,0,.87,1.89,3.2,3.2,0,0,0,2.06.7,4.73,4.73,0,0,0,3.27-1.16,3.71,3.71,0,0,0,1.3-2.88Z"/><path class="cls-3" d="M125.57,26.84V45h-1.48V42.5h0a4.1,4.1,0,0,1-.78,1.19,5.15,5.15,0,0,1-1.12.91,5.6,5.6,0,0,1-1.35.58,5.27,5.27,0,0,1-1.45.21,5.59,5.59,0,0,1-2.55-.56A5.36,5.36,0,0,1,115,43.32a6.64,6.64,0,0,1-1.11-2.21,9.36,9.36,0,0,1-.37-2.67,9.66,9.66,0,0,1,.35-2.58,6.62,6.62,0,0,1,1.07-2.22,5.37,5.37,0,0,1,1.83-1.55,6,6,0,0,1,4-.4,5.12,5.12,0,0,1,1.31.54,4.51,4.51,0,0,1,1.09.9,4.15,4.15,0,0,1,.76,1.25h0V26.84Zm-10.51,11.6a8.34,8.34,0,0,0,.11,1.3,7.41,7.41,0,0,0,.32,1.29,5.64,5.64,0,0,0,.56,1.17,4.29,4.29,0,0,0,.82,1,3.61,3.61,0,0,0,1.1.64,3.93,3.93,0,0,0,1.39.23,4.15,4.15,0,0,0,3.47-1.68,5.31,5.31,0,0,0,.86-1.78,7.92,7.92,0,0,0,.28-2.13,8.07,8.07,0,0,0-.26-2.05,5.45,5.45,0,0,0-.83-1.8,4.11,4.11,0,0,0-3.53-1.75,3.89,3.89,0,0,0-1.35.22,3.6,3.6,0,0,0-1.08.62,4.29,4.29,0,0,0-.83.93,5.6,5.6,0,0,0-.58,1.15,7,7,0,0,0-.34,1.31A8.5,8.5,0,0,0,115.06,38.44Z"/><path class="cls-3" d="M141.44,26.84V45H140V42.5h0a4.1,4.1,0,0,1-.78,1.19,5.15,5.15,0,0,1-1.12.91,5.6,5.6,0,0,1-1.35.58,5.27,5.27,0,0,1-1.45.21,5.59,5.59,0,0,1-2.55-.56,5.36,5.36,0,0,1-1.84-1.51,6.64,6.64,0,0,1-1.11-2.21,9.36,9.36,0,0,1-.37-2.67,9.66,9.66,0,0,1,.35-2.58,6.62,6.62,0,0,1,1.07-2.22,5.37,5.37,0,0,1,1.83-1.55,6,6,0,0,1,4-.4,5.12,5.12,0,0,1,1.31.54,4.51,4.51,0,0,1,1.09.9,4.15,4.15,0,0,1,.76,1.25h0V26.84Zm-10.51,11.6a8.34,8.34,0,0,0,.11,1.3,7.41,7.41,0,0,0,.32,1.29,5.64,5.64,0,0,0,.56,1.17,4.29,4.29,0,0,0,.82,1,3.61,3.61,0,0,0,1.1.64,3.93,3.93,0,0,0,1.39.23,4.15,4.15,0,0,0,3.47-1.68,5.31,5.31,0,0,0,.86-1.78,7.92,7.92,0,0,0,.28-2.13,8.07,8.07,0,0,0-.26-2.05,5.45,5.45,0,0,0-.83-1.8,4.11,4.11,0,0,0-3.53-1.75,3.89,3.89,0,0,0-1.35.22,3.6,3.6,0,0,0-1.08.62,4.29,4.29,0,0,0-.83.93,5.6,5.6,0,0,0-.58,1.15,7,7,0,0,0-.34,1.31A8.5,8.5,0,0,0,130.93,38.44Z"/><path class="cls-3" d="M145.84,45V31.88h1.49v3.07h0a5.12,5.12,0,0,1,1.8-2.39,4.64,4.64,0,0,1,2.75-.86h.57v1.59h-.36a4.44,4.44,0,0,0-3.41,1.37A4.72,4.72,0,0,0,147.45,38v7Z"/><path class="cls-3" d="M159.94,31.5a5.42,5.42,0,0,1,2.6.59,5.19,5.19,0,0,1,1.79,1.57,6.9,6.9,0,0,1,1,2.27,10.42,10.42,0,0,1,.34,2.68v.26h-10.1a7.15,7.15,0,0,0,.25,1.89,5.17,5.17,0,0,0,.77,1.66A4,4,0,0,0,158,43.58a3.83,3.83,0,0,0,1.9.45,4.88,4.88,0,0,0,1.4-.19,4.05,4.05,0,0,0,1.11-.52,3.52,3.52,0,0,0,.83-.78,4.82,4.82,0,0,0,.58-1h1.57a6,6,0,0,1-.77,1.57,5,5,0,0,1-1.17,1.2,5.36,5.36,0,0,1-1.57.77,6.67,6.67,0,0,1-2,.28,5.87,5.87,0,0,1-2.6-.53,5.11,5.11,0,0,1-1.82-1.46,6.24,6.24,0,0,1-1.08-2.2,10.28,10.28,0,0,1-.35-2.75,9.32,9.32,0,0,1,.36-2.57,6.73,6.73,0,0,1,1.08-2.22,5.47,5.47,0,0,1,1.85-1.56A5.58,5.58,0,0,1,159.94,31.5Zm4.17,6a6.08,6.08,0,0,0-.32-1.69,4.88,4.88,0,0,0-.81-1.51,4.14,4.14,0,0,0-1.3-1.08,3.68,3.68,0,0,0-1.76-.41,3.69,3.69,0,0,0-3,1.39,5.4,5.4,0,0,0-.84,1.49,8.62,8.62,0,0,0-.46,1.8Z"/><path class="cls-3" d="M178.88,41.44a3.35,3.35,0,0,1-.45,1.75,3.79,3.79,0,0,1-1.18,1.23,5.49,5.49,0,0,1-1.69.73,8,8,0,0,1-2,.24,7.33,7.33,0,0,1-2.14-.29,4.79,4.79,0,0,1-1.61-.82A4,4,0,0,1,168.8,43a4.81,4.81,0,0,1-.5-1.69h1.62a3.4,3.4,0,0,0,.39,1.11,2.81,2.81,0,0,0,.76.86,3.6,3.6,0,0,0,1.13.56,5.12,5.12,0,0,0,1.49.2,6,6,0,0,0,1.2-.13,4.11,4.11,0,0,0,1.17-.42,2.71,2.71,0,0,0,.88-.77,1.92,1.92,0,0,0,.35-1.18,1.85,1.85,0,0,0-.68-1.46,5.2,5.2,0,0,0-2.26-.93l-2-.45a8.1,8.1,0,0,1-1.55-.49,4.2,4.2,0,0,1-1.15-.73,2.92,2.92,0,0,1-.72-1,3.23,3.23,0,0,1-.25-1.29,3.13,3.13,0,0,1,.43-1.67,3.55,3.55,0,0,1,1.12-1.14,5.06,5.06,0,0,1,1.56-.66,7.53,7.53,0,0,1,1.78-.21,6.53,6.53,0,0,1,1.85.25,4.57,4.57,0,0,1,1.46.71,3.65,3.65,0,0,1,1,1.15,4.16,4.16,0,0,1,.49,1.56h-1.61a2.64,2.64,0,0,0-.37-1,2.48,2.48,0,0,0-.72-.73,3.38,3.38,0,0,0-1-.45,4.72,4.72,0,0,0-1.22-.15,5.7,5.7,0,0,0-1.15.12,3.18,3.18,0,0,0-1,.39,2.14,2.14,0,0,0-.71.7,2,2,0,0,0-.27,1.06,1.49,1.49,0,0,0,.26.88,2.54,2.54,0,0,0,.66.64,3.85,3.85,0,0,0,.88.44,7.28,7.28,0,0,0,.93.26l2.74.61a5.71,5.71,0,0,1,1.19.41,3.54,3.54,0,0,1,1,.7,3.27,3.27,0,0,1,.69,1A3.42,3.42,0,0,1,178.88,41.44Z"/><path class="cls-3" d="M192.22,41.44a3.35,3.35,0,0,1-.45,1.75,3.79,3.79,0,0,1-1.18,1.23,5.49,5.49,0,0,1-1.69.73,8,8,0,0,1-2,.24,7.33,7.33,0,0,1-2.14-.29,4.79,4.79,0,0,1-1.61-.82A4,4,0,0,1,182.13,43a4.81,4.81,0,0,1-.5-1.69h1.62a3.4,3.4,0,0,0,.39,1.11,2.81,2.81,0,0,0,.76.86,3.6,3.6,0,0,0,1.13.56A5.12,5.12,0,0,0,187,44a6,6,0,0,0,1.2-.13,4.11,4.11,0,0,0,1.17-.42,2.71,2.71,0,0,0,.88-.77,1.92,1.92,0,0,0,.35-1.18,1.85,1.85,0,0,0-.68-1.46,5.2,5.2,0,0,0-2.26-.93l-2-.45a8.1,8.1,0,0,1-1.55-.49,4.2,4.2,0,0,1-1.15-.73,2.92,2.92,0,0,1-.72-1,3.23,3.23,0,0,1-.25-1.29,3.13,3.13,0,0,1,.43-1.67,3.55,3.55,0,0,1,1.12-1.14,5.06,5.06,0,0,1,1.56-.66,7.53,7.53,0,0,1,1.78-.21,6.53,6.53,0,0,1,1.85.25,4.57,4.57,0,0,1,1.46.71,3.65,3.65,0,0,1,1,1.15,4.16,4.16,0,0,1,.49,1.56h-1.61a2.64,2.64,0,0,0-.37-1,2.48,2.48,0,0,0-.72-.73,3.38,3.38,0,0,0-1-.45,4.72,4.72,0,0,0-1.22-.15,5.7,5.7,0,0,0-1.15.12,3.18,3.18,0,0,0-1,.39,2.14,2.14,0,0,0-.71.7,2,2,0,0,0-.27,1.06,1.49,1.49,0,0,0,.26.88,2.54,2.54,0,0,0,.66.64,3.85,3.85,0,0,0,.88.44,7.28,7.28,0,0,0,.93.26l2.74.61a5.71,5.71,0,0,1,1.19.41,3.54,3.54,0,0,1,1,.7,3.27,3.27,0,0,1,.69,1A3.42,3.42,0,0,1,192.22,41.44Z"/><path class="cls-5" d="M49.73,66.62a6.2,6.2,0,0,1,5.41,2.63Q57,71.88,57,77t-1.85,7.81a6.19,6.19,0,0,1-5.41,2.65,6.16,6.16,0,0,1-5.37-2.62Q42.51,82.16,42.51,77t1.85-7.73A6.16,6.16,0,0,1,49.73,66.62ZM45.76,77a23.92,23.92,0,0,0,.17,2.91,9.72,9.72,0,0,0,.61,2.48,4.26,4.26,0,0,0,1.21,1.72,3,3,0,0,0,2,.64,3.05,3.05,0,0,0,2.51-1.19A4.94,4.94,0,0,0,53,82.22a9.74,9.74,0,0,0,.46-1.61,14.85,14.85,0,0,0,.24-1.79q.07-.93.07-1.86a22.49,22.49,0,0,0-.18-3,8.87,8.87,0,0,0-.65-2.43,4.26,4.26,0,0,0-1.24-1.65,3.08,3.08,0,0,0-2-.61,3,3,0,0,0-1.41.31,3.25,3.25,0,0,0-1,.86,4.72,4.72,0,0,0-.72,1.29,10.06,10.06,0,0,0-.45,1.59,15.07,15.07,0,0,0-.25,1.77Q45.76,76,45.76,77Z"/><path class="cls-5" d="M66.68,66.62a6.2,6.2,0,0,1,5.41,2.63q1.85,2.63,1.85,7.7t-1.85,7.81a6.82,6.82,0,0,1-10.77,0Q59.46,82.16,59.46,77t1.85-7.73A6.16,6.16,0,0,1,66.68,66.62ZM62.72,77a23.92,23.92,0,0,0,.17,2.91,9.72,9.72,0,0,0,.61,2.48,4.26,4.26,0,0,0,1.21,1.72,3,3,0,0,0,2,.64,3.05,3.05,0,0,0,2.51-1.19,4.94,4.94,0,0,0,.73-1.31,9.74,9.74,0,0,0,.46-1.61,14.85,14.85,0,0,0,.24-1.79q.07-.93.07-1.86a22.49,22.49,0,0,0-.18-3,8.87,8.87,0,0,0-.65-2.43,4.26,4.26,0,0,0-1.24-1.65,3.08,3.08,0,0,0-2-.61,3,3,0,0,0-1.41.31,3.25,3.25,0,0,0-1,.86,4.72,4.72,0,0,0-.72,1.29A10.06,10.06,0,0,0,63,73.36a15.07,15.07,0,0,0-.25,1.77Q62.72,76,62.72,77Z"/><path class="cls-5" d="M81.1,72.14V76H77.36V72.14Zm0,11V87H77.36V83.17Z"/><path class="cls-5" d="M91.28,87V73.3H86.15V70.88a13.87,13.87,0,0,0,2.09-.16,5.51,5.51,0,0,0,1.46-.43A3.66,3.66,0,0,0,91.2,69a5.16,5.16,0,0,0,.73-2.08h2.6V87Z"/><path class="cls-5" d="M109.42,71.25a9.54,9.54,0,0,1,2.48.31,6.58,6.58,0,0,1,2.08,1,5.3,5.3,0,0,1,1.49,1.58,5.38,5.38,0,0,1,.73,2.21h-3.32a2.83,2.83,0,0,0-1.11-1.83,4,4,0,0,0-2.37-.64,3.58,3.58,0,0,0-1.89.49,4.21,4.21,0,0,0-1.33,1.27,5.7,5.7,0,0,0-.78,1.78,8,8,0,0,0,0,3.9,5.63,5.63,0,0,0,.74,1.76,4.15,4.15,0,0,0,1.3,1.29,3.52,3.52,0,0,0,1.91.5,4.21,4.21,0,0,0,1.39-.22,3.45,3.45,0,0,0,1.1-.62,3.26,3.26,0,0,0,.77-1,4.1,4.1,0,0,0,.42-1.22h3.27a7.18,7.18,0,0,1-.77,2.29,6.05,6.05,0,0,1-1.44,1.77A6.48,6.48,0,0,1,112,87a8.14,8.14,0,0,1-2.67.41,7.76,7.76,0,0,1-3.08-.59,7,7,0,0,1-2.39-1.65,7.5,7.5,0,0,1-1.55-2.52,8.93,8.93,0,0,1-.55-3.19,9.92,9.92,0,0,1,.5-3.17,7.72,7.72,0,0,1,1.47-2.62,6.94,6.94,0,0,1,2.4-1.78A7.76,7.76,0,0,1,109.42,71.25Z"/><path class="cls-5" d="M123.5,72.14V76h-3.75V72.14Zm0,11V87h-3.75V83.17Z"/><path class="cls-5" d="M133.56,87.42a7.48,7.48,0,0,1-2.28-.33,5.79,5.79,0,0,1-1.85-1,5.33,5.33,0,0,1-1.32-1.52,5.69,5.69,0,0,1-.7-2h3.12a3.69,3.69,0,0,0,.39.92,2.65,2.65,0,0,0,.64.73,3,3,0,0,0,.91.49,3.6,3.6,0,0,0,1.18.18,3.41,3.41,0,0,0,2.06-.61,4.57,4.57,0,0,0,1.37-1.61,8.16,8.16,0,0,0,.77-2.29,15.86,15.86,0,0,0,.27-2.65l-.05,0a5,5,0,0,1-1.57,1.59,5.15,5.15,0,0,1-2.1.7,5.79,5.79,0,0,1-3.19-.25,5.45,5.45,0,0,1-3.16-2.24,6.43,6.43,0,0,1-1.13-3.77,7.11,7.11,0,0,1,2-5.13,6.63,6.63,0,0,1,5-2,7.58,7.58,0,0,1,3.31.67,5.87,5.87,0,0,1,2.31,2q1.83,2.65,1.83,7.79a18.09,18.09,0,0,1-.17,2.46,13.67,13.67,0,0,1-.55,2.39,10.66,10.66,0,0,1-1,2.15,7.05,7.05,0,0,1-1.46,1.74,6.46,6.46,0,0,1-2,1.17A7.46,7.46,0,0,1,133.56,87.42Zm4.2-13.86a4.38,4.38,0,0,0-1.05-3,3.56,3.56,0,0,0-2.84-1.2,3.29,3.29,0,0,0-2.64,1.24,4.43,4.43,0,0,0-1.05,3,4.76,4.76,0,0,0,1,3.08,3.33,3.33,0,0,0,2.73,1.27,3.62,3.62,0,0,0,2.8-1.2A4.54,4.54,0,0,0,137.76,73.56Z"/><path class="cls-5" d="M150.63,87V73.3H145.5V70.88a13.87,13.87,0,0,0,2.09-.16,5.51,5.51,0,0,0,1.46-.43,3.66,3.66,0,0,0,1.5-1.29,5.16,5.16,0,0,0,.73-2.08h2.6V87Z"/><path class="cls-5" d="M165.49,72.14V76h-3.75V72.14Zm0,11V87h-3.75V83.17Z"/><path class="cls-5" d="M175.55,87.42a7.48,7.48,0,0,1-2.28-.33,5.79,5.79,0,0,1-1.85-1,5.33,5.33,0,0,1-1.32-1.52,5.69,5.69,0,0,1-.7-2h3.12a3.69,3.69,0,0,0,.39.92,2.65,2.65,0,0,0,.64.73,3,3,0,0,0,.91.49,3.6,3.6,0,0,0,1.18.18,3.41,3.41,0,0,0,2.06-.61,4.57,4.57,0,0,0,1.37-1.61,8.16,8.16,0,0,0,.77-2.29,15.86,15.86,0,0,0,.27-2.65l-.05,0a5,5,0,0,1-1.57,1.59,5.15,5.15,0,0,1-2.1.7,5.79,5.79,0,0,1-3.19-.25A5.45,5.45,0,0,1,170,77.55a6.43,6.43,0,0,1-1.13-3.77,7.11,7.11,0,0,1,2-5.13,6.63,6.63,0,0,1,5-2,7.58,7.58,0,0,1,3.31.67,5.87,5.87,0,0,1,2.31,2q1.83,2.65,1.83,7.79a18.09,18.09,0,0,1-.17,2.46,13.67,13.67,0,0,1-.55,2.39,10.66,10.66,0,0,1-1,2.15,7.05,7.05,0,0,1-1.46,1.74,6.46,6.46,0,0,1-2,1.17A7.46,7.46,0,0,1,175.55,87.42Zm4.2-13.86a4.38,4.38,0,0,0-1.05-3,3.56,3.56,0,0,0-2.84-1.2,3.29,3.29,0,0,0-2.64,1.24,4.43,4.43,0,0,0-1.05,3,4.76,4.76,0,0,0,1,3.08,3.33,3.33,0,0,0,2.73,1.27,3.62,3.62,0,0,0,2.8-1.2A4.54,4.54,0,0,0,179.75,73.56Z"/><path class="cls-5" d="M201.17,65.81V87H198V84.7h-.05a4.83,4.83,0,0,1-.85,1.16,5.05,5.05,0,0,1-1.15.86,5.7,5.7,0,0,1-1.39.53,6.52,6.52,0,0,1-1.56.18,6.36,6.36,0,0,1-3-.67,6.43,6.43,0,0,1-2.15-1.8,7.88,7.88,0,0,1-1.31-2.61,10.92,10.92,0,0,1-.44-3.11,10.55,10.55,0,0,1,.42-2.95,7.8,7.8,0,0,1,1.26-2.56,6.43,6.43,0,0,1,2.13-1.8,6.79,6.79,0,0,1,4.48-.51,5.82,5.82,0,0,1,1.35.5,4.86,4.86,0,0,1,1.14.83,4.78,4.78,0,0,1,.87,1.16h.05V65.81ZM189.44,79.32a8.46,8.46,0,0,0,.23,1.91A5.68,5.68,0,0,0,190.4,83a4.22,4.22,0,0,0,1.31,1.31,3.51,3.51,0,0,0,1.93.51,4,4,0,0,0,1.84-.4,3.67,3.67,0,0,0,1.33-1.13,5.26,5.26,0,0,0,.81-1.74,8.59,8.59,0,0,0,.27-2.24,8.7,8.7,0,0,0-.23-2,5.38,5.38,0,0,0-.73-1.75,4,4,0,0,0-1.32-1.26,3.82,3.82,0,0,0-2-.49,3.64,3.64,0,0,0-1.91.47,4,4,0,0,0-1.29,1.24,5.48,5.48,0,0,0-.74,1.75A9.13,9.13,0,0,0,189.44,79.32Z"/><path class="cls-5" d="M209.29,72.14V76h-3.75V72.14Zm0,11V87h-3.75V83.17Z"/><path class="cls-5" d="M220.53,66.63a7.45,7.45,0,0,1,2.28.33,5.85,5.85,0,0,1,1.85,1A5.36,5.36,0,0,1,226,69.45a5.72,5.72,0,0,1,.7,2h-3.1a3.7,3.7,0,0,0-.39-.93,2.67,2.67,0,0,0-.64-.73,2.94,2.94,0,0,0-.91-.48,3.82,3.82,0,0,0-1.19-.17,3.39,3.39,0,0,0-2.05.61A4.62,4.62,0,0,0,217,71.35a8.16,8.16,0,0,0-.77,2.28,15.68,15.68,0,0,0-.27,2.64l0,0A4.78,4.78,0,0,1,219.7,74a5.72,5.72,0,0,1,3.17.25A5.62,5.62,0,0,1,226,76.49a6.47,6.47,0,0,1,1.13,3.77,7.05,7.05,0,0,1-2,5.13,6.61,6.61,0,0,1-5,2,7.51,7.51,0,0,1-3.31-.68,6,6,0,0,1-2.32-2,9.56,9.56,0,0,1-1.37-3.25,19.73,19.73,0,0,1-.46-4.53,18,18,0,0,1,.17-2.46,13.6,13.6,0,0,1,.55-2.39,10.42,10.42,0,0,1,1-2.15,7.21,7.21,0,0,1,1.46-1.74,6.5,6.5,0,0,1,2-1.17A7.46,7.46,0,0,1,220.53,66.63Zm-4.2,13.85a4.43,4.43,0,0,0,1.05,3,3.57,3.57,0,0,0,2.83,1.2,3.33,3.33,0,0,0,2.65-1.24,4.44,4.44,0,0,0,1.05-3,4.8,4.8,0,0,0-1-3.08,3.33,3.33,0,0,0-2.73-1.26,3.61,3.61,0,0,0-2.8,1.19A4.54,4.54,0,0,0,216.33,80.48Z"/><path class="cls-5" d="M244.22,81.2a5.53,5.53,0,0,1-2.08,4.54,9.06,9.06,0,0,1-10.51,0,5.45,5.45,0,0,1-2.06-4.51,5.67,5.67,0,0,1,.27-1.76A4.85,4.85,0,0,1,230.6,78a4.73,4.73,0,0,1,1.22-1.11,5.08,5.08,0,0,1,1.63-.66v-.07a4.21,4.21,0,0,1-2.28-1.57,4.48,4.48,0,0,1-.78-2.66,4.65,4.65,0,0,1,1.9-3.86,7.38,7.38,0,0,1,4.61-1.45,6.8,6.8,0,0,1,4.72,1.57,4.75,4.75,0,0,1,1.78,3.68,5,5,0,0,1-.2,1.42,4.27,4.27,0,0,1-.58,1.22,4.08,4.08,0,0,1-1,1,4.65,4.65,0,0,1-1.32.66v.07a4.81,4.81,0,0,1,2.9,1.75A5.23,5.23,0,0,1,244.22,81.2Zm-3.25-.1a3.4,3.4,0,0,0-1.12-2.6,4.17,4.17,0,0,0-3-1,4.39,4.39,0,0,0-3,1,3.32,3.32,0,0,0-1.13,2.64A3.56,3.56,0,0,0,234,83.84a4.17,4.17,0,0,0,3,1.07,4.05,4.05,0,0,0,2.91-1A3.56,3.56,0,0,0,241,81.11Zm-.6-8.94a3.32,3.32,0,0,0-.25-1.31,2.44,2.44,0,0,0-.75-1,4.32,4.32,0,0,0-5,.1,2.74,2.74,0,0,0-1,2.19,2.78,2.78,0,0,0,1,2.2,4.31,4.31,0,0,0,5.1,0A2.83,2.83,0,0,0,240.37,72.17Z"/><path class="cls-5" d="M251.28,72.14V76h-3.75V72.14Zm0,11V87h-3.75V83.17Z"/><path class="cls-5" d="M261.45,87V73.3h-5.13V70.88a13.87,13.87,0,0,0,2.09-.16,5.51,5.51,0,0,0,1.46-.43,3.66,3.66,0,0,0,1.5-1.29,5.16,5.16,0,0,0,.73-2.08h2.6V87Z"/><path class="cls-5" d="M279.47,66.63a7.45,7.45,0,0,1,2.28.33,5.85,5.85,0,0,1,1.85,1,5.36,5.36,0,0,1,1.32,1.52,5.72,5.72,0,0,1,.7,2h-3.1a3.7,3.7,0,0,0-.39-.93,2.67,2.67,0,0,0-.64-.73,2.94,2.94,0,0,0-.91-.48,3.82,3.82,0,0,0-1.19-.17,3.39,3.39,0,0,0-2.05.61A4.62,4.62,0,0,0,276,71.35a8.16,8.16,0,0,0-.77,2.28,15.68,15.68,0,0,0-.27,2.64l0,0A4.78,4.78,0,0,1,278.64,74a5.72,5.72,0,0,1,3.17.25A5.62,5.62,0,0,1,285,76.49a6.47,6.47,0,0,1,1.13,3.77,7.05,7.05,0,0,1-2,5.13,6.61,6.61,0,0,1-5,2,7.51,7.51,0,0,1-3.31-.68,6,6,0,0,1-2.32-2,9.56,9.56,0,0,1-1.37-3.25A19.73,19.73,0,0,1,271.7,77a18,18,0,0,1,.17-2.46,13.6,13.6,0,0,1,.55-2.39,10.42,10.42,0,0,1,1-2.15,7.21,7.21,0,0,1,1.46-1.74,6.5,6.5,0,0,1,2-1.17A7.46,7.46,0,0,1,279.47,66.63Zm-4.2,13.85a4.43,4.43,0,0,0,1.05,3,3.57,3.57,0,0,0,2.83,1.2,3.33,3.33,0,0,0,2.65-1.24,4.44,4.44,0,0,0,1.05-3,4.8,4.8,0,0,0-1-3.08,3.33,3.33,0,0,0-2.73-1.26,3.61,3.61,0,0,0-2.8,1.19A4.54,4.54,0,0,0,275.27,80.48Z"/><path class="cls-3" d="M49.24,462.2a8.23,8.23,0,0,1,6,2.05q2.13,2.06,2.13,6.52t-2.14,6.53a8,8,0,0,1-5.78,2H43.53V462.2Zm-.45,15.74q3.56,0,5.23-1.66t1.69-5.51q0-3.81-1.64-5.48t-5.51-1.69H45.17v14.34Z"/><path class="cls-3" d="M72.66,462.22v1.39H62.48v6.19H72v1.38H62.48v6.75H72.77v1.39H60.84V462.22Z"/><path class="cls-3" d="M96.2,474.46a4.36,4.36,0,0,1-1.56,3.64,7,7,0,0,1-4.45,1.24H82.81V462.2h7.37a9.68,9.68,0,0,1,2,.21,4.94,4.94,0,0,1,1.72.7,3.62,3.62,0,0,1,1.18,1.29,4.07,4.07,0,0,1,.44,2,4.19,4.19,0,0,1-.2,1.29,3.78,3.78,0,0,1-1.52,2,4,4,0,0,1-1.26.55v0a4.58,4.58,0,0,1,1.52.47,3.72,3.72,0,0,1,1.84,2.14A5,5,0,0,1,96.2,474.46Zm-2.27-7.66a2.9,2.9,0,0,0-1-2.41A4.59,4.59,0,0,0,90,463.6H84.45v6.12h5.71a5.75,5.75,0,0,0,1.34-.16,3.73,3.73,0,0,0,1.19-.5,2.71,2.71,0,0,0,1.24-2.26Zm.64,7.62a2.83,2.83,0,0,0-1.17-2.48,5.77,5.77,0,0,0-3.35-.83h-5.6v6.83h5.73a5.27,5.27,0,0,0,3.28-.87A3.15,3.15,0,0,0,94.58,474.41Z"/><path class="cls-3" d="M104.77,465.83a5.42,5.42,0,0,1,2.6.59,5.19,5.19,0,0,1,1.79,1.57,6.9,6.9,0,0,1,1,2.27,10.42,10.42,0,0,1,.34,2.68v.26h-10.1a7.15,7.15,0,0,0,.25,1.89,5.17,5.17,0,0,0,.77,1.66,4,4,0,0,0,1.32,1.18,3.83,3.83,0,0,0,1.9.45,4.88,4.88,0,0,0,1.4-.19,4.05,4.05,0,0,0,1.11-.52,3.52,3.52,0,0,0,.83-.78,4.82,4.82,0,0,0,.58-1h1.57a6,6,0,0,1-.77,1.57,5,5,0,0,1-1.17,1.2,5.36,5.36,0,0,1-1.57.77,6.67,6.67,0,0,1-2,.28,5.87,5.87,0,0,1-2.6-.53,5.11,5.11,0,0,1-1.82-1.46,6.24,6.24,0,0,1-1.08-2.2,10.28,10.28,0,0,1-.35-2.75,9.32,9.32,0,0,1,.36-2.57,6.73,6.73,0,0,1,1.08-2.22,5.47,5.47,0,0,1,1.85-1.56A5.58,5.58,0,0,1,104.77,465.83Zm4.17,6a6.08,6.08,0,0,0-.32-1.69,4.88,4.88,0,0,0-.81-1.51,4.14,4.14,0,0,0-1.3-1.08,3.68,3.68,0,0,0-1.76-.41,3.69,3.69,0,0,0-3,1.39,5.4,5.4,0,0,0-.84,1.49,8.62,8.62,0,0,0-.46,1.8Z"/><path class="cls-3" d="M125.23,479.24a4.84,4.84,0,0,1-.53.08l-.49,0a2.74,2.74,0,0,1-.88-.12,1.31,1.31,0,0,1-.59-.39,1.64,1.64,0,0,1-.33-.71,4.87,4.87,0,0,1-.1-1.06h-.06a6.1,6.1,0,0,1-2.06,2.09,5.58,5.58,0,0,1-2.71.59,4.93,4.93,0,0,1-3.2-1,3.5,3.5,0,0,1-1.21-2.86,3.32,3.32,0,0,1,1.31-2.86q1.34-1,5.92-1.37a4,4,0,0,0,.88-.16,1.5,1.5,0,0,0,.57-.32,1.2,1.2,0,0,0,.32-.52,2.56,2.56,0,0,0,.1-.76,2.49,2.49,0,0,0-.81-2,4,4,0,0,0-2.62-.69,5.22,5.22,0,0,0-1.45.18,3.3,3.3,0,0,0-1.06.5,2.25,2.25,0,0,0-.67.77,2.45,2.45,0,0,0-.27,1H113.7a4,4,0,0,1,.44-1.55,3.55,3.55,0,0,1,1-1.19,4.86,4.86,0,0,1,1.61-.76,8.06,8.06,0,0,1,2.19-.27,5.29,5.29,0,0,1,3.66,1.07,3.91,3.91,0,0,1,1.17,3v7.13a.94.94,0,0,0,.22.66.92.92,0,0,0,.71.25,1.4,1.4,0,0,0,.5-.09Zm-3-7.09h0q-.23.45-1.54.62l-1.33.2-1.47.25a5.34,5.34,0,0,0-2.33.87,2,2,0,0,0-.79,1.68,2.32,2.32,0,0,0,.87,1.89,3.2,3.2,0,0,0,2.06.7,4.73,4.73,0,0,0,3.27-1.16,3.71,3.71,0,0,0,1.3-2.88Z"/><path class="cls-3" d="M128.1,479.33V466.21h1.49v3.07h0a5.12,5.12,0,0,1,1.8-2.39,4.64,4.64,0,0,1,2.75-.86h.57v1.59h-.36A4.44,4.44,0,0,0,131,469a4.72,4.72,0,0,0-1.29,3.38v7Z"/><path class="cls-3" d="M139,460.47V463h-1.61v-2.58Zm0,5.74v13.13h-1.61V466.21Z"/><path class="cls-3" d="M149.27,465.83a6.69,6.69,0,0,1,2.17.31,3.66,3.66,0,0,1,1.49.93,3.74,3.74,0,0,1,.86,1.54,7.59,7.59,0,0,1,.28,2.16v8.57h-1.61V471a4.4,4.4,0,0,0-.82-2.89,3.09,3.09,0,0,0-2.51-1,4.13,4.13,0,0,0-1.72.35,3.75,3.75,0,0,0-1.3,1,4.32,4.32,0,0,0-.82,1.42,5.27,5.27,0,0,0-.29,1.76v7.68H143.4V466.21H145v2.27h0a4,4,0,0,1,.69-1.11,4.35,4.35,0,0,1,1-.83,4.66,4.66,0,0,1,1.2-.52A5,5,0,0,1,149.27,465.83Z"/><path class="cls-3" d="M163.54,465.83a4.59,4.59,0,0,1,1.28.18,4.61,4.61,0,0,1,2.16,1.35,4.53,4.53,0,0,1,.74,1.11h0v-2.27h1.61v12.2a6.54,6.54,0,0,1-1.45,4.59,5.75,5.75,0,0,1-4.43,1.57,9.08,9.08,0,0,1-1.85-.19,5.41,5.41,0,0,1-1.63-.61,3.76,3.76,0,0,1-1.2-1.1,3.37,3.37,0,0,1-.57-1.65h1.61a2.48,2.48,0,0,0,1.12,1.63,4.66,4.66,0,0,0,2.5.56,4.09,4.09,0,0,0,3.22-1.21,5.32,5.32,0,0,0,1.08-3.63V476h0a5.07,5.07,0,0,1-.75,1.14,4.56,4.56,0,0,1-1,.86,4.69,4.69,0,0,1-1.2.54,4.8,4.8,0,0,1-1.35.19,6.32,6.32,0,0,1-2.57-.48,4.87,4.87,0,0,1-1.81-1.35,5.7,5.7,0,0,1-1.07-2.06,9.28,9.28,0,0,1-.35-2.62,7.91,7.91,0,0,1,.38-2.45,5.9,5.9,0,0,1,1.13-2,5.48,5.48,0,0,1,1.85-1.4A5.94,5.94,0,0,1,163.54,465.83Zm-4.31,6.57a7,7,0,0,0,.23,1.92,4.58,4.58,0,0,0,.77,1.59,3.75,3.75,0,0,0,1.33,1.09,4.25,4.25,0,0,0,1.92.4,3.81,3.81,0,0,0,1.83-.43,4.21,4.21,0,0,0,1.34-1.12,5.07,5.07,0,0,0,.83-1.6,6.07,6.07,0,0,0,.29-1.85,7.44,7.44,0,0,0-.24-1.85,5.33,5.33,0,0,0-.75-1.69,4.07,4.07,0,0,0-1.31-1.22,3.75,3.75,0,0,0-1.94-.47,3.89,3.89,0,0,0-1.92.45,4,4,0,0,0-1.33,1.17,5.1,5.1,0,0,0-.79,1.68A7.74,7.74,0,0,0,159.23,472.41Z"/><path class="cls-6" d="M57.77,501.35v3H51.41v17H47.92v-17H41.58v-3Z"/><path class="cls-6" d="M59.49,506l4,11.77h.05L67.41,506h3.47l-6.55,17.54a6.92,6.92,0,0,1-.68,1.39,4.2,4.2,0,0,1-.94,1,4,4,0,0,1-1.27.65,5.67,5.67,0,0,1-1.68.23q-.74,0-1.27,0l-1.08-.11v-2.79q.62.1,1,.12l.83,0a2.36,2.36,0,0,0,.93-.16,1.77,1.77,0,0,0,.66-.5,3.27,3.27,0,0,0,.49-.85q.21-.51.43-1.21L55.88,506Z"/><path class="cls-6" d="M88.42,513.77a10.62,10.62,0,0,1-.18,2,9.71,9.71,0,0,1-.55,1.87,7.73,7.73,0,0,1-.92,1.65,6,6,0,0,1-1.32,1.32,6.16,6.16,0,0,1-1.71.87,6.7,6.7,0,0,1-2.11.31,6.11,6.11,0,0,1-1.47-.18,5.65,5.65,0,0,1-1.35-.52,5.32,5.32,0,0,1-1.16-.85,4.7,4.7,0,0,1-.88-1.16H76.7v7.77H73.34V506h3.19v2.31h.05a4.85,4.85,0,0,1,2-2,6.05,6.05,0,0,1,2.88-.68,6.72,6.72,0,0,1,3.06.66A6.24,6.24,0,0,1,86.7,508a7.71,7.71,0,0,1,1.29,2.6A11.32,11.32,0,0,1,88.42,513.77ZM85,513.69a9.16,9.16,0,0,0-.21-1.93,5.57,5.57,0,0,0-.7-1.78,4,4,0,0,0-1.3-1.3,3.67,3.67,0,0,0-2-.51,3.74,3.74,0,0,0-3.14,1.42,6.59,6.59,0,0,0-1.09,4.09,8.44,8.44,0,0,0,.23,2,5.46,5.46,0,0,0,.75,1.76,4,4,0,0,0,1.33,1.26A3.86,3.86,0,0,0,84,517.61a5.08,5.08,0,0,0,.79-1.73A8.77,8.77,0,0,0,85,513.69Z"/><path class="cls-6" d="M98.71,505.58a7,7,0,0,1,3.14.66,6.51,6.51,0,0,1,2.25,1.8,7.78,7.78,0,0,1,1.35,2.65,11.1,11.1,0,0,1,.45,3.19v.62H94.58a6.45,6.45,0,0,0,.31,1.89,4.44,4.44,0,0,0,.81,1.47,3.61,3.61,0,0,0,1.26,1,4,4,0,0,0,1.68.34,4.44,4.44,0,0,0,2.28-.53,4,4,0,0,0,1.43-1.41h3.19a7.16,7.16,0,0,1-1.05,1.89,6.62,6.62,0,0,1-1.54,1.44,7,7,0,0,1-2,.91,8.54,8.54,0,0,1-2.37.31,7.65,7.65,0,0,1-3.1-.6,6.58,6.58,0,0,1-2.32-1.67,7.4,7.4,0,0,1-1.46-2.56,10,10,0,0,1-.51-3.26,9.45,9.45,0,0,1,.51-3.1A7.69,7.69,0,0,1,93.18,508a7.08,7.08,0,0,1,2.36-1.76A7.36,7.36,0,0,1,98.71,505.58Zm3.81,6.64a6.47,6.47,0,0,0-.38-1.65,4,4,0,0,0-.77-1.28,3.34,3.34,0,0,0-1.18-.83,4.45,4.45,0,0,0-3.2,0,3.52,3.52,0,0,0-1.2.83,4.18,4.18,0,0,0-.81,1.28,5.92,5.92,0,0,0-.4,1.63Z"/><path class="cls-6" d="M123.35,521.33v-13.7h-5.13v-2.42a13.87,13.87,0,0,0,2.09-.16,5.51,5.51,0,0,0,1.46-.43,3.66,3.66,0,0,0,1.5-1.29,5.16,5.16,0,0,0,.73-2.08h2.6v20.07Z"/><path class="cls-3" d="M45.31,570.87l10,14.5h0v-14.5H57V588H55.15l-10-14.5h0V588H43.48V570.87Z"/><path class="cls-3" d="M67.14,570.87a8.23,8.23,0,0,1,6,2.05q2.13,2.06,2.13,6.52T73.09,586a8,8,0,0,1-5.78,2H61.43V570.87Zm-.45,15.74q3.56,0,5.23-1.66t1.69-5.51q0-3.81-1.64-5.48t-5.51-1.69H63.08v14.34Z"/><path class="cls-3" d="M90.57,570.89v1.39H80.38v6.19h9.54v1.38H80.38v6.75H90.67V588H78.74V570.89Z"/><path class="cls-3" d="M114.11,583.13a4.36,4.36,0,0,1-1.56,3.64A7,7,0,0,1,108.1,588h-7.38V570.87h7.37a9.68,9.68,0,0,1,2,.21,4.94,4.94,0,0,1,1.72.7,3.62,3.62,0,0,1,1.18,1.29,4.07,4.07,0,0,1,.44,2,4.19,4.19,0,0,1-.2,1.29,3.78,3.78,0,0,1-1.52,2,4,4,0,0,1-1.26.55v0a4.58,4.58,0,0,1,1.52.47,3.72,3.72,0,0,1,1.84,2.14A5,5,0,0,1,114.11,583.13Zm-2.27-7.66a2.9,2.9,0,0,0-1-2.41,4.59,4.59,0,0,0-2.91-.79h-5.59v6.12h5.71a5.75,5.75,0,0,0,1.34-.16,3.73,3.73,0,0,0,1.19-.5,2.71,2.71,0,0,0,1.24-2.26Zm.64,7.62a2.83,2.83,0,0,0-1.17-2.48,5.77,5.77,0,0,0-3.35-.83h-5.6v6.83h5.73a5.27,5.27,0,0,0,3.28-.87A3.15,3.15,0,0,0,112.48,583.08Z"/><path class="cls-3" d="M122.68,574.5a5.42,5.42,0,0,1,2.6.59,5.19,5.19,0,0,1,1.79,1.57,6.9,6.9,0,0,1,1,2.27,10.42,10.42,0,0,1,.34,2.68v.26h-10.1a7.15,7.15,0,0,0,.25,1.89,5.17,5.17,0,0,0,.77,1.66,4,4,0,0,0,1.32,1.18,3.83,3.83,0,0,0,1.9.45,4.88,4.88,0,0,0,1.4-.19,4.05,4.05,0,0,0,1.11-.52,3.52,3.52,0,0,0,.83-.78,4.82,4.82,0,0,0,.58-1h1.57a6,6,0,0,1-.77,1.57,5,5,0,0,1-1.17,1.2,5.36,5.36,0,0,1-1.57.77,6.67,6.67,0,0,1-2,.28,5.87,5.87,0,0,1-2.6-.53,5.11,5.11,0,0,1-1.82-1.46,6.24,6.24,0,0,1-1.08-2.2,10.28,10.28,0,0,1-.35-2.75,9.32,9.32,0,0,1,.36-2.57,6.73,6.73,0,0,1,1.08-2.22,5.47,5.47,0,0,1,1.85-1.56A5.58,5.58,0,0,1,122.68,574.5Zm4.17,6a6.08,6.08,0,0,0-.32-1.69,4.88,4.88,0,0,0-.81-1.51,4.14,4.14,0,0,0-1.3-1.08,3.68,3.68,0,0,0-1.76-.41,3.69,3.69,0,0,0-3,1.39,5.4,5.4,0,0,0-.84,1.49,8.62,8.62,0,0,0-.46,1.8Z"/><path class="cls-3" d="M143.14,587.91a4.84,4.84,0,0,1-.53.08l-.49,0a2.74,2.74,0,0,1-.88-.12,1.31,1.31,0,0,1-.59-.39,1.64,1.64,0,0,1-.33-.71,4.87,4.87,0,0,1-.1-1.06h-.06a6.1,6.1,0,0,1-2.06,2.09,5.58,5.58,0,0,1-2.71.59,4.93,4.93,0,0,1-3.2-1,3.5,3.5,0,0,1-1.21-2.86,3.32,3.32,0,0,1,1.31-2.86q1.34-1,5.92-1.37a4,4,0,0,0,.88-.16,1.5,1.5,0,0,0,.57-.32,1.2,1.2,0,0,0,.32-.52,2.56,2.56,0,0,0,.1-.76,2.49,2.49,0,0,0-.81-2,4,4,0,0,0-2.62-.69,5.22,5.22,0,0,0-1.45.18,3.3,3.3,0,0,0-1.06.5,2.25,2.25,0,0,0-.67.77,2.45,2.45,0,0,0-.27,1h-1.61a4,4,0,0,1,.44-1.55,3.55,3.55,0,0,1,1-1.19,4.86,4.86,0,0,1,1.61-.76,8.06,8.06,0,0,1,2.19-.27,5.29,5.29,0,0,1,3.66,1.07,3.91,3.91,0,0,1,1.17,3v7.13a.94.94,0,0,0,.22.66.92.92,0,0,0,.71.25,1.4,1.4,0,0,0,.5-.09Zm-3-7.09h0q-.23.45-1.54.62l-1.33.2-1.47.25a5.34,5.34,0,0,0-2.33.87,2,2,0,0,0-.79,1.68,2.32,2.32,0,0,0,.87,1.89,3.2,3.2,0,0,0,2.06.7,4.73,4.73,0,0,0,3.27-1.16,3.71,3.71,0,0,0,1.3-2.88Z"/><path class="cls-3" d="M146,588V574.88h1.49v3.07h0a5.12,5.12,0,0,1,1.8-2.39,4.64,4.64,0,0,1,2.75-.86h.57v1.59h-.36a4.44,4.44,0,0,0-3.41,1.37,4.72,4.72,0,0,0-1.29,3.38v7Z"/><path class="cls-3" d="M156.92,569.13v2.58h-1.61v-2.58Zm0,5.74V588h-1.61V574.88Z"/><path class="cls-3" d="M167.17,574.5a6.69,6.69,0,0,1,2.17.31,3.66,3.66,0,0,1,1.49.93,3.74,3.74,0,0,1,.86,1.54,7.59,7.59,0,0,1,.28,2.16V588h-1.61v-8.3a4.4,4.4,0,0,0-.82-2.89,3.09,3.09,0,0,0-2.51-1,4.13,4.13,0,0,0-1.72.35,3.75,3.75,0,0,0-1.3,1,4.32,4.32,0,0,0-.82,1.42,5.27,5.27,0,0,0-.29,1.76V588H161.3V574.88h1.61v2.27h0a4,4,0,0,1,.69-1.11,4.35,4.35,0,0,1,1-.83,4.66,4.66,0,0,1,1.2-.52A5,5,0,0,1,167.17,574.5Z"/><path class="cls-3" d="M181.45,574.5a4.59,4.59,0,0,1,1.28.18,4.61,4.61,0,0,1,2.16,1.35,4.53,4.53,0,0,1,.74,1.11h0v-2.27h1.61v12.2a6.54,6.54,0,0,1-1.45,4.59,5.75,5.75,0,0,1-4.43,1.57,9.08,9.08,0,0,1-1.85-.19,5.41,5.41,0,0,1-1.63-.61,3.76,3.76,0,0,1-1.2-1.1,3.37,3.37,0,0,1-.57-1.65h1.61a2.48,2.48,0,0,0,1.12,1.63,4.66,4.66,0,0,0,2.5.56,4.09,4.09,0,0,0,3.22-1.21,5.32,5.32,0,0,0,1.08-3.63V584.7h0a5.07,5.07,0,0,1-.75,1.14,4.56,4.56,0,0,1-1,.86,4.69,4.69,0,0,1-1.2.54,4.8,4.8,0,0,1-1.35.19,6.32,6.32,0,0,1-2.57-.48A4.87,4.87,0,0,1,177,585.6a5.7,5.7,0,0,1-1.07-2.06,9.28,9.28,0,0,1-.35-2.62,7.91,7.91,0,0,1,.38-2.45,5.9,5.9,0,0,1,1.13-2,5.48,5.48,0,0,1,1.85-1.4A5.94,5.94,0,0,1,181.45,574.5Zm-4.31,6.57a7,7,0,0,0,.23,1.92,4.58,4.58,0,0,0,.77,1.59,3.75,3.75,0,0,0,1.33,1.09,4.25,4.25,0,0,0,1.92.4,3.81,3.81,0,0,0,1.83-.43,4.21,4.21,0,0,0,1.34-1.12,5.07,5.07,0,0,0,.83-1.6,6.07,6.07,0,0,0,.29-1.85,7.44,7.44,0,0,0-.24-1.85,5.33,5.33,0,0,0-.75-1.69,4.07,4.07,0,0,0-1.31-1.22,3.75,3.75,0,0,0-1.94-.47,3.89,3.89,0,0,0-1.92.45,4,4,0,0,0-1.33,1.17,5.1,5.1,0,0,0-.79,1.68A7.74,7.74,0,0,0,177.13,581.07Z"/><path class="cls-6" d="M57.77,610v3H51.41v17H47.92V613H41.58v-3Z"/><path class="cls-6" d="M59.49,614.66l4,11.77h.05l3.83-11.77h3.47L64.33,632.2a6.9,6.9,0,0,1-.68,1.39,4.19,4.19,0,0,1-.94,1,4,4,0,0,1-1.27.65,5.67,5.67,0,0,1-1.68.23q-.74,0-1.27,0l-1.08-.11v-2.79q.62.1,1,.12l.83,0a2.36,2.36,0,0,0,.93-.16,1.76,1.76,0,0,0,.66-.5,3.27,3.27,0,0,0,.49-.85q.21-.51.43-1.21l-5.91-15.33Z"/><path class="cls-6" d="M88.42,622.44a10.62,10.62,0,0,1-.18,2,9.69,9.69,0,0,1-.55,1.87,7.72,7.72,0,0,1-.92,1.65,6,6,0,0,1-1.32,1.32,6.14,6.14,0,0,1-1.71.87,6.69,6.69,0,0,1-2.11.31,6.11,6.11,0,0,1-1.47-.18,5.61,5.61,0,0,1-1.35-.52,5.3,5.3,0,0,1-1.16-.85,4.7,4.7,0,0,1-.88-1.16H76.7v7.77H73.34V614.66h3.19V617h.05a4.85,4.85,0,0,1,2-2,6.05,6.05,0,0,1,2.88-.68,6.72,6.72,0,0,1,3.06.66,6.25,6.25,0,0,1,2.17,1.77,7.71,7.71,0,0,1,1.29,2.6A11.33,11.33,0,0,1,88.42,622.44ZM85,622.36a9.16,9.16,0,0,0-.21-1.93,5.57,5.57,0,0,0-.7-1.78,4,4,0,0,0-1.3-1.3,3.67,3.67,0,0,0-2-.51,3.74,3.74,0,0,0-3.14,1.42,6.59,6.59,0,0,0-1.09,4.09,8.44,8.44,0,0,0,.23,2,5.46,5.46,0,0,0,.75,1.76,4,4,0,0,0,1.33,1.26A3.86,3.86,0,0,0,84,626.28a5.07,5.07,0,0,0,.79-1.73A8.77,8.77,0,0,0,85,622.36Z"/><path class="cls-6" d="M98.71,614.25a7,7,0,0,1,3.14.66,6.51,6.51,0,0,1,2.25,1.8,7.78,7.78,0,0,1,1.35,2.65,11.1,11.1,0,0,1,.45,3.19v.62H94.58a6.45,6.45,0,0,0,.31,1.89,4.43,4.43,0,0,0,.81,1.47,3.61,3.61,0,0,0,1.26,1,4,4,0,0,0,1.68.34,4.44,4.44,0,0,0,2.28-.53,4,4,0,0,0,1.43-1.41h3.19a7.16,7.16,0,0,1-1.05,1.89,6.62,6.62,0,0,1-1.54,1.44,7,7,0,0,1-2,.91,8.52,8.52,0,0,1-2.37.31,7.64,7.64,0,0,1-3.1-.6,6.57,6.57,0,0,1-2.32-1.67,7.4,7.4,0,0,1-1.46-2.56,10,10,0,0,1-.51-3.26,9.45,9.45,0,0,1,.51-3.1,7.69,7.69,0,0,1,1.47-2.58,7.08,7.08,0,0,1,2.36-1.76A7.36,7.36,0,0,1,98.71,614.25Zm3.81,6.64a6.47,6.47,0,0,0-.38-1.65,4,4,0,0,0-.77-1.28,3.34,3.34,0,0,0-1.18-.83,4.45,4.45,0,0,0-3.2,0,3.52,3.52,0,0,0-1.2.83,4.19,4.19,0,0,0-.81,1.28,5.92,5.92,0,0,0-.4,1.63Z"/><path class="cls-6" d="M124.09,609.63a6.87,6.87,0,0,1,4.74,1.64,5.2,5.2,0,0,1,1.39,1.93,6.46,6.46,0,0,1,.45,2.47,6.57,6.57,0,0,1-1.07,3.61,13.59,13.59,0,0,1-4.14,3.58q-1.16.71-2,1.32a16.31,16.31,0,0,0-1.35,1.09,6.54,6.54,0,0,0-1.45,1.9h10.1V630H116.6a7.82,7.82,0,0,1,.92-3.71,8.69,8.69,0,0,1,1.18-1.6,13.05,13.05,0,0,1,1.73-1.54l2.21-1.65,2.6-1.94a6.29,6.29,0,0,0,1.66-1.76,3.75,3.75,0,0,0,.53-1.93,3.92,3.92,0,0,0-.24-1.39,3.11,3.11,0,0,0-.72-1.11,3.37,3.37,0,0,0-1.09-.7,4.14,4.14,0,0,0-3.06.08,3.41,3.41,0,0,0-1.16.88,3.68,3.68,0,0,0-.68,1.24,4.59,4.59,0,0,0-.23,1.42v.34h-3.12v-.34a7.31,7.31,0,0,1,.48-2.69A5.92,5.92,0,0,1,119,611.5a6.32,6.32,0,0,1,2.19-1.37A8.05,8.05,0,0,1,124.09,609.63Z"/></g></svg>