<svg xmlns="http://www.w3.org/2000/svg" viewBox="0 0 172 106"><defs><style>.cls-1{fill:#dcdcdc;}.cls-1,.cls-2{opacity:0.6;}.cls-3{fill:#bebebe;}.cls-4{fill:#464646;}.cls-5,.cls-7{fill:none;stroke-miterlimit:10;}.cls-5{stroke:#a0a0a0;}.cls-6{fill:#f0f;}.cls-7{stroke:#f0f;stroke-width:0.5px;}</style></defs><title>Artboard 28</title><g id="Content"><rect class="cls-1" x="43" y="12" width="115" height="34"/><g class="cls-2"><path class="cls-3" d="M158,12V46H43V12H158m1-1H42V47H159V11Z"/></g><path class="cls-4" d="M60.42,23.95v3.44h4V23.95H66V32.5H64.47V28.64h-4V32.5h-1.5V23.95Z"/><path class="cls-4" d="M69.43,23.07v1.42H68V23.07Zm0,2.86V32.5H68V25.93Z"/><path class="cls-4" d="M74,25.75a2.35,2.35,0,0,1,1.2.3,2.12,2.12,0,0,1,.81.85h0v-1h1.39V32.1a3.42,3.42,0,0,1-.23,1.31,2.39,2.39,0,0,1-.65.92,2.71,2.71,0,0,1-1,.54,4.81,4.81,0,0,1-1.35.18,4.46,4.46,0,0,1-1-.11,2.93,2.93,0,0,1-.86-.33,2.12,2.12,0,0,1-.65-.59,1.76,1.76,0,0,1-.31-.86h1.44a1,1,0,0,0,.49.66,2,2,0,0,0,1,.22,1.64,1.64,0,0,0,1.28-.49,2,2,0,0,0,.44-1.4v-1h0a2,2,0,0,1-.82.84,2.47,2.47,0,0,1-1.22.3A2.92,2.92,0,0,1,72.68,32a2.46,2.46,0,0,1-.88-.69,3,3,0,0,1-.52-1,4.7,4.7,0,0,1-.17-1.3,4.06,4.06,0,0,1,.18-1.22,3.1,3.1,0,0,1,.54-1,2.67,2.67,0,0,1,.9-.72A2.76,2.76,0,0,1,74,25.75ZM72.54,29a3.41,3.41,0,0,0,.11.87,2,2,0,0,0,.32.68,1.48,1.48,0,0,0,.53.44,1.65,1.65,0,0,0,.74.16A1.58,1.58,0,0,0,75,31a1.71,1.71,0,0,0,.55-.46,2,2,0,0,0,.34-.66,2.63,2.63,0,0,0,.11-.78,3.51,3.51,0,0,0-.11-.88,2.07,2.07,0,0,0-.32-.71A1.53,1.53,0,0,0,75,27a1.68,1.68,0,0,0-.78-.17,1.57,1.57,0,0,0-.77.18,1.53,1.53,0,0,0-.53.48,2.15,2.15,0,0,0-.3.69A3.18,3.18,0,0,0,72.54,29Z"/><path class="cls-4" d="M83.77,32.5V28.6a2.11,2.11,0,0,0-.32-1.27,1.19,1.19,0,0,0-1-.43,1.79,1.79,0,0,0-.72.13,1.33,1.33,0,0,0-.51.39,1.68,1.68,0,0,0-.3.62,3.13,3.13,0,0,0-.1.83V32.5H79.35V23.42h1.44v3.5h0a1.94,1.94,0,0,1,.35-.48,2.36,2.36,0,0,1,.47-.37,2.24,2.24,0,0,1,.56-.24,2.32,2.32,0,0,1,.61-.08,3.33,3.33,0,0,1,1.08.16,1.77,1.77,0,0,1,.74.47,2,2,0,0,1,.43.81,4.22,4.22,0,0,1,.14,1.14V32.5Z"/><path class="cls-4" d="M90,25.75A3,3,0,0,1,91.3,26a2.78,2.78,0,0,1,1,.77,3.33,3.33,0,0,1,.58,1.13A4.76,4.76,0,0,1,93,29.31v.26H88.19a2.77,2.77,0,0,0,.13.81,1.9,1.9,0,0,0,.35.63,1.55,1.55,0,0,0,.54.41,1.7,1.7,0,0,0,.72.15,1.9,1.9,0,0,0,1-.23,1.7,1.7,0,0,0,.61-.6h1.37a3.06,3.06,0,0,1-.45.81,2.83,2.83,0,0,1-.66.62,3,3,0,0,1-.85.39,3.66,3.66,0,0,1-1,.13,3.28,3.28,0,0,1-1.33-.26,2.82,2.82,0,0,1-1-.72,3.18,3.18,0,0,1-.62-1.1,4.31,4.31,0,0,1-.22-1.4A4,4,0,0,1,87,27.89a3.3,3.3,0,0,1,.63-1.1,3,3,0,0,1,1-.76A3.16,3.16,0,0,1,90,25.75Zm1.63,2.85a2.77,2.77,0,0,0-.16-.71,1.73,1.73,0,0,0-.33-.55,1.43,1.43,0,0,0-.5-.35,1.91,1.91,0,0,0-1.37,0,1.51,1.51,0,0,0-.52.36,1.79,1.79,0,0,0-.35.55,2.54,2.54,0,0,0-.17.7Z"/><path class="cls-4" d="M94.54,32.5V25.93h1.37v1.34h0a2.4,2.4,0,0,1,.87-1.08,2.23,2.23,0,0,1,1.29-.39h.21l.2,0v1.36l-.25,0H98a1.84,1.84,0,0,0-1.48.6A2.36,2.36,0,0,0,96,29.32V32.5Z"/><path class="cls-4" d="M109.53,29.21a4.85,4.85,0,0,1-.17,1.28,3.47,3.47,0,0,1-.52,1.11,2.65,2.65,0,0,1-.88.79,2.51,2.51,0,0,1-1.25.3,2.93,2.93,0,0,1-1.36-.3,1.9,1.9,0,0,1-.86-.87h0v1H103.1V23.42h1.44v3.47h0a1.88,1.88,0,0,1,.36-.47,2.16,2.16,0,0,1,.5-.36,2.68,2.68,0,0,1,.61-.23,2.85,2.85,0,0,1,.68-.08A2.52,2.52,0,0,1,108,26a2.66,2.66,0,0,1,.88.78,3.4,3.4,0,0,1,.52,1.11A4.87,4.87,0,0,1,109.53,29.21Zm-1.45,0a3.74,3.74,0,0,0-.09-.82,2.52,2.52,0,0,0-.3-.76,1.71,1.71,0,0,0-.54-.56,1.5,1.5,0,0,0-.83-.22,1.57,1.57,0,0,0-.82.21,1.71,1.71,0,0,0-.56.54,2.39,2.39,0,0,0-.32.75,3.63,3.63,0,0,0-.1.86,3.68,3.68,0,0,0,.1.83,2.37,2.37,0,0,0,.31.76,1.76,1.76,0,0,0,.56.55,1.57,1.57,0,0,0,.84.21,1.49,1.49,0,0,0,.8-.21,1.69,1.69,0,0,0,.54-.54,2.43,2.43,0,0,0,.31-.75A3.94,3.94,0,0,0,108.08,29.22Z"/><path class="cls-4" d="M115.64,32.5v-1h0a2.25,2.25,0,0,1-.39.52,2.3,2.3,0,0,1-.5.37,2.49,2.49,0,0,1-.58.23,2.54,2.54,0,0,1-.64.08,2.3,2.3,0,0,1-1.78-.63,2.81,2.81,0,0,1-.57-1.95V25.93h1.44v4a2.89,2.89,0,0,0,.08.7,1.37,1.37,0,0,0,.24.52,1,1,0,0,0,.42.32,1.82,1.82,0,0,0,1.36,0,1.37,1.37,0,0,0,.5-.43,1.86,1.86,0,0,0,.29-.66,3.72,3.72,0,0,0,.09-.85v-3.5H117V32.5Z"/><path class="cls-4" d="M122.18,32.55h-.83a4.59,4.59,0,0,1-.74-.06,1.58,1.58,0,0,1-.6-.22,1.12,1.12,0,0,1-.4-.45,1.67,1.67,0,0,1-.15-.76V26.95h-1.29v-1h1.29V24h1.45v2h1.5v1h-1.5v3.72a.83.83,0,0,0,.17.58.8.8,0,0,0,.59.18h.57l.17,0v1.14Z"/><path class="cls-4" d="M127.08,32.55h-.83a4.59,4.59,0,0,1-.74-.06,1.58,1.58,0,0,1-.6-.22,1.12,1.12,0,0,1-.4-.45,1.67,1.67,0,0,1-.15-.76V26.95h-1.29v-1h1.29V24h1.45v2h1.5v1h-1.5v3.72a.83.83,0,0,0,.17.58.8.8,0,0,0,.59.18h.57l.17,0v1.14Z"/><path class="cls-4" d="M134.94,29.22a4.09,4.09,0,0,1-.23,1.38,3.1,3.1,0,0,1-.68,1.11,3,3,0,0,1-1,.73,3.49,3.49,0,0,1-1.36.25,3.12,3.12,0,0,1-2.38-1,3.94,3.94,0,0,1,0-5,3.1,3.1,0,0,1,2.39-1,3.15,3.15,0,0,1,2.4,1A3.54,3.54,0,0,1,134.94,29.22Zm-1.45,0a3.59,3.59,0,0,0-.11-.92,2.21,2.21,0,0,0-.35-.75,1.68,1.68,0,0,0-.58-.5,1.75,1.75,0,0,0-.83-.18,1.71,1.71,0,0,0-.77.17,1.62,1.62,0,0,0-.57.48,2.23,2.23,0,0,0-.36.74,3.79,3.79,0,0,0,0,1.9,2.19,2.19,0,0,0,.35.74,1.67,1.67,0,0,0,.58.49,1.7,1.7,0,0,0,.79.18,1.72,1.72,0,0,0,.79-.18,1.68,1.68,0,0,0,.58-.49,2.24,2.24,0,0,0,.36-.74A3.41,3.41,0,0,0,133.49,29.22Z"/><path class="cls-4" d="M140,25.75a3.25,3.25,0,0,1,1.1.16,1.8,1.8,0,0,1,.74.49,2,2,0,0,1,.42.81,4.28,4.28,0,0,1,.13,1.12V32.5H141V28.6a2.11,2.11,0,0,0-.32-1.27,1.19,1.19,0,0,0-1-.43,1.48,1.48,0,0,0-1.23.52,2.28,2.28,0,0,0-.41,1.45V32.5h-1.44V25.93h1.38v1h0a2.14,2.14,0,0,1,.37-.5,2.24,2.24,0,0,1,.48-.37,2.34,2.34,0,0,1,.57-.23A2.51,2.51,0,0,1,140,25.75Z"/><line class="cls-5" x1="42" y1="46.5" x2="159" y2="46.5"/><rect class="cls-1" x="43" y="71" width="115" height="22"/><g class="cls-2"><path class="cls-3" d="M158,71V93H43V71H158m1-1H42V94H159V70Z"/></g><path class="cls-4" d="M63.71,85.5V78.62h0L61.26,85.5H60l-2.44-6.84h0V85.5H56.09V76.95h2.19l2.36,6.67h0L63,76.95h2.18V85.5Z"/><path class="cls-4" d="M68.59,76.07v1.42H67.14V76.07Zm0,2.86V85.5H67.14V78.93Z"/><path class="cls-4" d="M74,78.75a3.25,3.25,0,0,1,1.1.16,1.8,1.8,0,0,1,.74.49,2,2,0,0,1,.42.81,4.28,4.28,0,0,1,.13,1.12V85.5H75V81.6a2.11,2.11,0,0,0-.32-1.27,1.19,1.19,0,0,0-1-.43,1.48,1.48,0,0,0-1.23.52A2.28,2.28,0,0,0,72,81.87V85.5H70.54V78.93h1.38v1h0a2.14,2.14,0,0,1,.37-.5,2.24,2.24,0,0,1,.48-.37,2.34,2.34,0,0,1,.57-.23A2.51,2.51,0,0,1,74,78.75Z"/><path class="cls-4" d="M79.8,76.07v1.42H78.35V76.07Zm0,2.86V85.5H78.35V78.93Z"/><path class="cls-4" d="M90,85.5v-4a3.44,3.44,0,0,0-.05-.62,1.26,1.26,0,0,0-.19-.49,1,1,0,0,0-.39-.32,1.48,1.48,0,0,0-.63-.12,1.24,1.24,0,0,0-1.06.47,2.29,2.29,0,0,0-.35,1.38V85.5H85.91V81.29a1.64,1.64,0,0,0-.28-1,1.1,1.1,0,0,0-.91-.35,1.34,1.34,0,0,0-1.08.48,2,2,0,0,0-.4,1.31V85.5H81.79V78.93h1.36v1h0a2.31,2.31,0,0,1,2.06-1.15,2.27,2.27,0,0,1,1.2.3,1.71,1.71,0,0,1,.71.86A2.45,2.45,0,0,1,88,79a2.21,2.21,0,0,1,3.47,2V85.5Z"/><path class="cls-4" d="M99.57,85.5l-.44.09-.39,0a1.79,1.79,0,0,1-.42,0,.91.91,0,0,1-.34-.16.84.84,0,0,1-.24-.29,1.28,1.28,0,0,1-.12-.45h0a2.67,2.67,0,0,1-.45.46,2.3,2.3,0,0,1-.52.31,3.32,3.32,0,0,1-1.31.24,2.42,2.42,0,0,1-1.62-.51,1.77,1.77,0,0,1-.6-1.45,1.7,1.7,0,0,1,.6-1.42,2.11,2.11,0,0,1,.58-.32,4.68,4.68,0,0,1,.73-.2q.39-.08.82-.13l.87-.1L97,81.5a.8.8,0,0,0,.27-.13.59.59,0,0,0,.17-.22.79.79,0,0,0,.06-.33,1,1,0,0,0-.31-.79,2.11,2.11,0,0,0-2.05,0,1,1,0,0,0-.39.73H93.32a2,2,0,0,1,.28-.9,2,2,0,0,1,.62-.62,2.88,2.88,0,0,1,.9-.36,5.08,5.08,0,0,1,1.13-.12,3.42,3.42,0,0,1,2,.5A1.65,1.65,0,0,1,99,80.65V84.2a.47.47,0,0,0,.08.3.33.33,0,0,0,.27.1h.12l.13,0Zm-2-3.35h0a1,1,0,0,1-.54.23l-.48.08-.65.11a2.2,2.2,0,0,0-1,.37.87.87,0,0,0-.32.72.89.89,0,0,0,.37.76,1.48,1.48,0,0,0,.87.24A1.79,1.79,0,0,0,97,84.23,1.59,1.59,0,0,0,97.52,83Z"/><path class="cls-4" d="M102.43,76.42V85.5H101V76.42Z"/><path class="cls-4" d="M112.29,85.5V81.6a2.11,2.11,0,0,0-.32-1.27,1.19,1.19,0,0,0-1-.43,1.79,1.79,0,0,0-.72.13,1.33,1.33,0,0,0-.51.39,1.68,1.68,0,0,0-.3.62,3.13,3.13,0,0,0-.1.83V85.5h-1.44V76.42h1.44v3.5h0a1.94,1.94,0,0,1,.35-.48,2.36,2.36,0,0,1,.47-.37,2.24,2.24,0,0,1,.56-.24,2.32,2.32,0,0,1,.61-.08,3.33,3.33,0,0,1,1.08.16,1.77,1.77,0,0,1,.74.47,2,2,0,0,1,.43.81,4.22,4.22,0,0,1,.14,1.14V85.5Z"/><path class="cls-4" d="M118.47,78.75a3,3,0,0,1,1.34.28,2.78,2.78,0,0,1,1,.77,3.33,3.33,0,0,1,.58,1.13,4.76,4.76,0,0,1,.19,1.37v.26H116.7a2.77,2.77,0,0,0,.13.81,1.9,1.9,0,0,0,.35.63,1.55,1.55,0,0,0,.54.41,1.7,1.7,0,0,0,.72.15,1.9,1.9,0,0,0,1-.23,1.7,1.7,0,0,0,.61-.6h1.37a3.06,3.06,0,0,1-.45.81,2.83,2.83,0,0,1-.66.62,3,3,0,0,1-.85.39,3.66,3.66,0,0,1-1,.13,3.28,3.28,0,0,1-1.33-.26,2.82,2.82,0,0,1-1-.72,3.18,3.18,0,0,1-.62-1.1,4.31,4.31,0,0,1-.22-1.4,4,4,0,0,1,.22-1.33,3.3,3.3,0,0,1,.63-1.1,3,3,0,0,1,1-.76A3.16,3.16,0,0,1,118.47,78.75Zm1.63,2.85a2.77,2.77,0,0,0-.16-.71,1.73,1.73,0,0,0-.33-.55,1.43,1.43,0,0,0-.5-.35,1.91,1.91,0,0,0-1.37,0,1.51,1.51,0,0,0-.52.36,1.79,1.79,0,0,0-.35.55,2.54,2.54,0,0,0-.17.7Z"/><path class="cls-4" d="M124.55,76.07v1.42h-1.45V76.07Zm0,2.86V85.5h-1.45V78.93Z"/><path class="cls-4" d="M129.09,78.75a2.35,2.35,0,0,1,1.2.3,2.12,2.12,0,0,1,.81.85h0v-1h1.39V85.1a3.42,3.42,0,0,1-.23,1.31,2.39,2.39,0,0,1-.65.92,2.71,2.71,0,0,1-1,.54,4.81,4.81,0,0,1-1.35.18,4.46,4.46,0,0,1-1-.11,2.93,2.93,0,0,1-.86-.33,2.12,2.12,0,0,1-.65-.59,1.76,1.76,0,0,1-.31-.86h1.44a1,1,0,0,0,.49.66,2,2,0,0,0,1,.22,1.64,1.64,0,0,0,1.28-.49,2,2,0,0,0,.44-1.4v-1h0a2,2,0,0,1-.82.84,2.47,2.47,0,0,1-1.22.3A2.92,2.92,0,0,1,127.8,85a2.46,2.46,0,0,1-.88-.69,3,3,0,0,1-.52-1,4.7,4.7,0,0,1-.17-1.3,4.06,4.06,0,0,1,.18-1.22,3.1,3.1,0,0,1,.54-1,2.67,2.67,0,0,1,.9-.72A2.76,2.76,0,0,1,129.09,78.75ZM127.66,82a3.41,3.41,0,0,0,.11.87,2,2,0,0,0,.32.68,1.48,1.48,0,0,0,.53.44,1.65,1.65,0,0,0,.74.16,1.58,1.58,0,0,0,.75-.17,1.71,1.71,0,0,0,.55-.46,2,2,0,0,0,.34-.66,2.63,2.63,0,0,0,.11-.78,3.51,3.51,0,0,0-.11-.88,2.07,2.07,0,0,0-.32-.71,1.53,1.53,0,0,0-.55-.47,1.68,1.68,0,0,0-.78-.17,1.57,1.57,0,0,0-.77.18,1.53,1.53,0,0,0-.53.48,2.15,2.15,0,0,0-.3.69A3.18,3.18,0,0,0,127.66,82Z"/><path class="cls-4" d="M138.9,85.5V81.6a2.11,2.11,0,0,0-.32-1.27,1.19,1.19,0,0,0-1-.43,1.79,1.79,0,0,0-.72.13,1.33,1.33,0,0,0-.51.39,1.68,1.68,0,0,0-.3.62,3.13,3.13,0,0,0-.1.83V85.5h-1.44V76.42h1.44v3.5h0a1.94,1.94,0,0,1,.35-.48,2.36,2.36,0,0,1,.47-.37,2.24,2.24,0,0,1,.56-.24,2.32,2.32,0,0,1,.61-.08,3.33,3.33,0,0,1,1.08.16,1.77,1.77,0,0,1,.74.47,2,2,0,0,1,.43.81,4.22,4.22,0,0,1,.14,1.14V85.5Z"/><path class="cls-4" d="M145.51,85.55h-.83a4.59,4.59,0,0,1-.74-.06,1.58,1.58,0,0,1-.6-.22,1.12,1.12,0,0,1-.4-.45,1.67,1.67,0,0,1-.15-.76V79.95h-1.29v-1h1.29V77h1.45v2h1.5v1h-1.5v3.72a.83.83,0,0,0,.17.58.8.8,0,0,0,.59.18h.57l.17,0v1.14Z"/><line class="cls-5" x1="42" y1="93.5" x2="159" y2="93.5"/><path class="cls-6" d="M10.47,27.33a2.36,2.36,0,0,1,.65.09,1.77,1.77,0,0,1,.57.27,1.39,1.39,0,0,1,.4.46,1.32,1.32,0,0,1,.15.65,1.48,1.48,0,0,1-.06.44,1.22,1.22,0,0,1-.19.37,1.18,1.18,0,0,1-.3.28,1.43,1.43,0,0,1-.41.18v0a1.37,1.37,0,0,1,.89.5,1.47,1.47,0,0,1,.3.93,1.61,1.61,0,0,1-.56,1.27,1.86,1.86,0,0,1-.63.37,2.53,2.53,0,0,1-.81.12,2.44,2.44,0,0,1-.74-.11,1.87,1.87,0,0,1-.61-.32,1.57,1.57,0,0,1-.42-.52,1.52,1.52,0,0,1-.15-.69v-.12h.52v.11a1.16,1.16,0,0,0,.1.47,1.17,1.17,0,0,0,.28.39,1.34,1.34,0,0,0,.44.27,1.63,1.63,0,0,0,.59.1,1.81,1.81,0,0,0,.6-.09,1.5,1.5,0,0,0,.46-.27,1.14,1.14,0,0,0,.43-.92,1.26,1.26,0,0,0-.09-.5,1.08,1.08,0,0,0-.28-.39,1.48,1.48,0,0,0-1-.33h-.43v-.44h.46a1.25,1.25,0,0,0,.8-.28,1,1,0,0,0,.34-.77,1.06,1.06,0,0,0-.1-.47,1,1,0,0,0-.27-.34,1.13,1.13,0,0,0-.4-.21,1.7,1.7,0,0,0-.49-.07,1.4,1.4,0,0,0-.54.1,1.19,1.19,0,0,0-.41.27,1.21,1.21,0,0,0-.26.4,1.31,1.31,0,0,0-.09.49H8.65a1.62,1.62,0,0,1,.12-.61,1.69,1.69,0,0,1,.36-.54,1.79,1.79,0,0,1,.57-.39A1.87,1.87,0,0,1,10.47,27.33Z"/><path class="cls-6" d="M15.53,27.33a2.11,2.11,0,0,1,.63.09,1.56,1.56,0,0,1,.5.26,1.41,1.41,0,0,1,.36.41,1.65,1.65,0,0,1,.2.56h-.52a1.13,1.13,0,0,0-.12-.34,1,1,0,0,0-.24-.28,1.08,1.08,0,0,0-.35-.19,1.43,1.43,0,0,0-.46-.07,1.35,1.35,0,0,0-.68.17,1.41,1.41,0,0,0-.5.5,2.55,2.55,0,0,0-.3.81,5.35,5.35,0,0,0-.1,1.1h0a1.68,1.68,0,0,1,.64-.7,1.7,1.7,0,0,1,.9-.26,1.83,1.83,0,0,1,1.37.54,1.88,1.88,0,0,1,.53,1.39,1.89,1.89,0,0,1-2,2,2.07,2.07,0,0,1-.94-.2,1.54,1.54,0,0,1-.62-.56,2.8,2.8,0,0,1-.35-.93,7,7,0,0,1-.12-1.37,5.64,5.64,0,0,1,0-.71,3.68,3.68,0,0,1,.15-.67,3,3,0,0,1,.27-.6,1.87,1.87,0,0,1,.4-.48,1.76,1.76,0,0,1,.55-.32A2,2,0,0,1,15.53,27.33Zm-1.49,4a1.5,1.5,0,0,0,.38,1.09,1.41,1.41,0,0,0,1.06.39,1.27,1.27,0,0,0,1-.44,1.5,1.5,0,0,0,.39-1,1.6,1.6,0,0,0-.38-1.09,1.29,1.29,0,0,0-1-.43,1.36,1.36,0,0,0-1,.42A1.53,1.53,0,0,0,14,31.36Z"/><path class="cls-6" d="M24.88,31a3.19,3.19,0,0,1-.12.85,2.25,2.25,0,0,1-.36.74,1.8,1.8,0,0,1-.61.52,1.86,1.86,0,0,1-.88.2,1.89,1.89,0,0,1-.47-.06A1.68,1.68,0,0,1,22,33a1.54,1.54,0,0,1-.36-.3,1.48,1.48,0,0,1-.26-.42h0v2.45h-.54v-6h.5v.83h0a1.47,1.47,0,0,1,.26-.41,1.51,1.51,0,0,1,.37-.3,1.77,1.77,0,0,1,.44-.19,2,2,0,0,1,1.35.12,1.76,1.76,0,0,1,.62.5,2.22,2.22,0,0,1,.37.74A3.1,3.1,0,0,1,24.88,31Zm-.54,0a3,3,0,0,0-.07-.65,1.89,1.89,0,0,0-.24-.6,1.38,1.38,0,0,0-.45-.44,1.26,1.26,0,0,0-.68-.17,1.39,1.39,0,0,0-1.13.47,2.14,2.14,0,0,0-.39,1.4,2.79,2.79,0,0,0,.08.69,1.79,1.79,0,0,0,.27.6,1.4,1.4,0,0,0,.48.42,1.45,1.45,0,0,0,.71.16,1.25,1.25,0,0,0,.64-.16,1.36,1.36,0,0,0,.45-.42,1.91,1.91,0,0,0,.26-.6A2.77,2.77,0,0,0,24.35,31Z"/><path class="cls-6" d="M26.35,28.78l1.25,1.66,1.22-1.66h.67L27.9,30.87l1.71,2.28h-.68l-1.37-1.84-1.34,1.84h-.66l1.7-2.27-1.57-2.1Z"/><line class="cls-7" x1="35.33" y1="46.75" x2="35.33" y2="11.25"/><rect class="cls-6" x="33.71" y="46.5" width="3.25" height="0.5"/><rect class="cls-6" x="33.71" y="11" width="3.25" height="0.5"/><path class="cls-6" d="M10.52,80.33a1.88,1.88,0,0,1,1.3.44A1.52,1.52,0,0,1,12.31,82a1.88,1.88,0,0,1-.37,1.11,4.64,4.64,0,0,1-1.34,1.11A5.47,5.47,0,0,0,9.5,85a1.33,1.33,0,0,0-.37.68h3.21v.48H8.54A2,2,0,0,1,8.91,85a4.39,4.39,0,0,1,1.29-1.11,5.88,5.88,0,0,0,1.26-1,1.41,1.41,0,0,0,.34-.94,1.09,1.09,0,0,0-.36-.85,1.34,1.34,0,0,0-.93-.33,1.36,1.36,0,0,0-.57.11,1.21,1.21,0,0,0-.4.29,1.18,1.18,0,0,0-.24.41,1.46,1.46,0,0,0-.08.47v.11H8.69v-.08a2,2,0,0,1,.11-.65,1.61,1.61,0,0,1,.34-.56,1.64,1.64,0,0,1,.57-.39A2,2,0,0,1,10.52,80.33Z"/><path class="cls-6" d="M16.47,84.72v1.43H16V84.72H13.33v-.5L16,80.38h.47v3.9h.87v.44ZM16,81.14h0L13.8,84.28H16Z"/><path class="cls-6" d="M24.88,84a3.19,3.19,0,0,1-.12.85,2.25,2.25,0,0,1-.36.74,1.8,1.8,0,0,1-.61.52,1.86,1.86,0,0,1-.88.2,1.89,1.89,0,0,1-.47-.06A1.68,1.68,0,0,1,22,86a1.54,1.54,0,0,1-.36-.3,1.48,1.48,0,0,1-.26-.42h0v2.45h-.54v-6h.5v.83h0a1.47,1.47,0,0,1,.26-.41,1.51,1.51,0,0,1,.37-.3,1.77,1.77,0,0,1,.44-.19,2,2,0,0,1,1.35.12,1.76,1.76,0,0,1,.62.5,2.22,2.22,0,0,1,.37.74A3.1,3.1,0,0,1,24.88,84Zm-.54,0a3,3,0,0,0-.07-.65,1.89,1.89,0,0,0-.24-.6,1.38,1.38,0,0,0-.45-.44,1.26,1.26,0,0,0-.68-.17,1.39,1.39,0,0,0-1.13.47,2.14,2.14,0,0,0-.39,1.4,2.79,2.79,0,0,0,.08.69,1.79,1.79,0,0,0,.27.6,1.4,1.4,0,0,0,.48.42,1.45,1.45,0,0,0,.71.16,1.25,1.25,0,0,0,.64-.16,1.36,1.36,0,0,0,.45-.42,1.91,1.91,0,0,0,.26-.6A2.77,2.77,0,0,0,24.35,84Z"/><path class="cls-6" d="M26.35,81.78l1.25,1.66,1.22-1.66h.67L27.9,83.87l1.71,2.28h-.68l-1.37-1.84-1.34,1.84h-.66l1.7-2.27-1.57-2.1Z"/><line class="cls-7" x1="35.33" y1="93.75" x2="35.33" y2="70.25"/><rect class="cls-6" x="33.71" y="93.5" width="3.25" height="0.5"/><rect class="cls-6" x="33.71" y="70" width="3.25" height="0.5"/></g></svg>