<svg xmlns="http://www.w3.org/2000/svg" viewBox="0 0 750 70"><defs><style>.cls-1{fill:#cdcdcd;opacity:0.6;}.cls-2{opacity:0.4;}.cls-3{fill:#c3c3c3;}.cls-4{fill:#787878;}.cls-5{fill:#0096e0;}.cls-6{fill:#0aaeff;}.cls-7{opacity:0.3;}.cls-8{fill:#fff;}</style></defs><title>Artboard 45</title><g id="Content"><rect class="cls-1" x="68" y="34" width="610" height="6"/><g class="cls-2"><path class="cls-3" d="M677,35v4H69V35H677m1-1H68v6H678V34Z"/></g><path class="cls-4" d="M15.51,32.72a2.21,2.21,0,0,1,1.93.94,4.76,4.76,0,0,1,.66,2.75,4.86,4.86,0,0,1-.66,2.79,2.21,2.21,0,0,1-1.93.95,2.2,2.2,0,0,1-1.92-.94,4.85,4.85,0,0,1-.66-2.79,4.79,4.79,0,0,1,.66-2.76A2.2,2.2,0,0,1,15.51,32.72Zm-1.42,3.7a8.58,8.58,0,0,0,.06,1,3.48,3.48,0,0,0,.22.89,1.53,1.53,0,0,0,.43.62,1.06,1.06,0,0,0,.71.23,1.12,1.12,0,0,0,.52-.11,1.14,1.14,0,0,0,.38-.31,1.77,1.77,0,0,0,.26-.47,3.43,3.43,0,0,0,.16-.57,5.26,5.26,0,0,0,.09-.64c0-.22,0-.44,0-.66a8,8,0,0,0-.07-1.06,3.14,3.14,0,0,0-.23-.87,1.52,1.52,0,0,0-.44-.59,1.1,1.1,0,0,0-.7-.22,1.07,1.07,0,0,0-.5.11,1.17,1.17,0,0,0-.37.31,1.69,1.69,0,0,0-.26.46,3.55,3.55,0,0,0-.16.57,5.49,5.49,0,0,0-.09.63C14.1,36,14.1,36.2,14.1,36.42Z"/><path class="cls-4" d="M24.2,37.93a2,2,0,0,1-.74,1.62,2.87,2.87,0,0,1-1.87.6,2.9,2.9,0,0,1-1.89-.6A2,2,0,0,1,19,37.94a2,2,0,0,1,.1-.63,1.73,1.73,0,0,1,.27-.52,1.68,1.68,0,0,1,.43-.4,1.82,1.82,0,0,1,.58-.24v0a1.5,1.5,0,0,1-.82-.56,1.6,1.6,0,0,1-.28-.95,1.66,1.66,0,0,1,.68-1.38,2.64,2.64,0,0,1,1.65-.52,2.43,2.43,0,0,1,1.68.56,1.7,1.7,0,0,1,.63,1.31,1.78,1.78,0,0,1-.07.51,1.54,1.54,0,0,1-.21.44,1.46,1.46,0,0,1-.34.35,1.65,1.65,0,0,1-.47.24v0a1.72,1.72,0,0,1,1,.63A1.87,1.87,0,0,1,24.2,37.93Zm-1.16,0a1.21,1.21,0,0,0-.4-.93,1.49,1.49,0,0,0-1.05-.37,1.56,1.56,0,0,0-1.05.35,1.19,1.19,0,0,0-.41.94,1.27,1.27,0,0,0,.42,1,1.49,1.49,0,0,0,1.05.38,1.45,1.45,0,0,0,1-.37A1.27,1.27,0,0,0,23,37.89Zm-.21-3.19a1.18,1.18,0,0,0-.09-.47.87.87,0,0,0-.27-.35,1.54,1.54,0,0,0-1.79,0,1,1,0,0,0-.35.78,1,1,0,0,0,.34.79,1.54,1.54,0,0,0,1.82,0A1,1,0,0,0,22.82,34.7Z"/><path class="cls-4" d="M26.72,34.69v1.37H25.38V34.69Zm0,3.94V40H25.38V38.63Z"/><path class="cls-4" d="M30.52,32.72a3,3,0,0,1,.86.12,2.24,2.24,0,0,1,.73.36,1.8,1.8,0,0,1,.51.6,1.75,1.75,0,0,1,.19.83,1.79,1.79,0,0,1-.07.51,1.53,1.53,0,0,1-.21.43,1.37,1.37,0,0,1-.34.34,1.57,1.57,0,0,1-.47.22v0a1.61,1.61,0,0,1,1,.6,1.72,1.72,0,0,1,.35,1.08,2.08,2.08,0,0,1-.74,1.66,2.76,2.76,0,0,1-1.86.63,3.2,3.2,0,0,1-1-.15,2.43,2.43,0,0,1-.81-.43,2.07,2.07,0,0,1-.56-.7,2.12,2.12,0,0,1-.21-1v-.11H29v.11a1.23,1.23,0,0,0,.11.53,1.21,1.21,0,0,0,.3.4,1.32,1.32,0,0,0,.44.25,1.59,1.59,0,0,0,.53.09,1.51,1.51,0,0,0,1.07-.37,1.21,1.21,0,0,0,.4-.93,1.12,1.12,0,0,0-.37-.91,1.83,1.83,0,0,0-1.22-.32H30v-.85h.36a1.55,1.55,0,0,0,1-.29.92.92,0,0,0,.33-.75,1.16,1.16,0,0,0-.1-.49.94.94,0,0,0-.26-.34,1.11,1.11,0,0,0-.39-.2,1.61,1.61,0,0,0-.47-.07,1.4,1.4,0,0,0-.5.09,1.17,1.17,0,0,0-.4.25,1.2,1.2,0,0,0-.27.39,1.36,1.36,0,0,0-.11.53H28.09a2.35,2.35,0,0,1,.19-.87,2.13,2.13,0,0,1,.49-.7,2.3,2.3,0,0,1,.76-.47A2.71,2.71,0,0,1,30.52,32.72Z"/><path class="cls-4" d="M36.67,32.72a2.46,2.46,0,0,1,1.69.59,1.85,1.85,0,0,1,.5.69,2.3,2.3,0,0,1,.16.88,2.35,2.35,0,0,1-.38,1.29,4.85,4.85,0,0,1-1.48,1.28q-.42.25-.71.47a5.82,5.82,0,0,0-.48.39,2.34,2.34,0,0,0-.52.68h3.61v1H34a2.79,2.79,0,0,1,.33-1.32,3.12,3.12,0,0,1,.42-.57,4.69,4.69,0,0,1,.62-.55l.79-.59.93-.69a2.26,2.26,0,0,0,.59-.63,1.34,1.34,0,0,0,.19-.69,1.4,1.4,0,0,0-.09-.5,1.12,1.12,0,0,0-.26-.4,1.19,1.19,0,0,0-.39-.25,1.47,1.47,0,0,0-1.09,0,1.21,1.21,0,0,0-.41.31,1.32,1.32,0,0,0-.24.44,1.64,1.64,0,0,0-.08.51v.12H34.19V35.1a2.62,2.62,0,0,1,.17-1,2.12,2.12,0,0,1,.49-.75,2.27,2.27,0,0,1,.78-.49A2.88,2.88,0,0,1,36.67,32.72Z"/><path class="cls-4" d="M48.05,40l-.62-1.82h-3L43.85,40H42.58l2.57-7.13h1.69L49.35,40ZM46,33.79h0l-1.17,3.44h2.33Z"/><path class="cls-4" d="M56.62,40V34.27h0l-2,5.73H53.5l-2-5.7h0V40H50.26V32.87h1.83l2,5.56h0L56,32.87H57.8V40Z"/><path class="cls-5" d="M197.93,13.5a2.66,2.66,0,0,1,2.32,1.13,5.72,5.72,0,0,1,.79,3.3,5.83,5.83,0,0,1-.79,3.35,2.92,2.92,0,0,1-4.62,0,5.81,5.81,0,0,1-.79-3.35,5.74,5.74,0,0,1,.79-3.31A2.64,2.64,0,0,1,197.93,13.5Zm-1.7,4.44a10.28,10.28,0,0,0,.07,1.25,4.18,4.18,0,0,0,.26,1.06,1.83,1.83,0,0,0,.52.74,1.28,1.28,0,0,0,.85.28,1.31,1.31,0,0,0,1.08-.51,2.12,2.12,0,0,0,.31-.56,4.17,4.17,0,0,0,.2-.69,6.33,6.33,0,0,0,.1-.77q0-.4,0-.8a9.63,9.63,0,0,0-.08-1.27,3.8,3.8,0,0,0-.28-1,1.82,1.82,0,0,0-.53-.71,1.32,1.32,0,0,0-.84-.26,1.29,1.29,0,0,0-.6.13,1.39,1.39,0,0,0-.45.37,2,2,0,0,0-.31.55,4.32,4.32,0,0,0-.19.68,6.52,6.52,0,0,0-.11.76Q196.23,17.54,196.23,17.93Z"/><path class="cls-5" d="M205,22.42a3.21,3.21,0,0,1-1-.14,2.49,2.49,0,0,1-.79-.41,2.29,2.29,0,0,1-.57-.65,2.45,2.45,0,0,1-.3-.86h1.34a1.6,1.6,0,0,0,.17.39,1.14,1.14,0,0,0,.28.31,1.3,1.3,0,0,0,.39.21,1.55,1.55,0,0,0,.5.08,1.46,1.46,0,0,0,.88-.26,2,2,0,0,0,.59-.69,3.5,3.5,0,0,0,.33-1,6.78,6.78,0,0,0,.12-1.13h0a2.16,2.16,0,0,1-.67.68,2.21,2.21,0,0,1-.9.3,2.48,2.48,0,0,1-1.37-.11,2.34,2.34,0,0,1-1.35-1,2.76,2.76,0,0,1-.49-1.62,3,3,0,0,1,.85-2.2,2.84,2.84,0,0,1,2.13-.87,3.25,3.25,0,0,1,1.42.29,2.51,2.51,0,0,1,1,.86,5.88,5.88,0,0,1,.79,3.34,7.74,7.74,0,0,1-.07,1.05,5.85,5.85,0,0,1-.23,1,4.56,4.56,0,0,1-.42.92,3,3,0,0,1-.62.75,2.77,2.77,0,0,1-.86.5A3.19,3.19,0,0,1,205,22.42Zm1.8-5.94a1.88,1.88,0,0,0-.45-1.3,1.53,1.53,0,0,0-1.22-.52,1.41,1.41,0,0,0-1.13.53,1.9,1.9,0,0,0-.45,1.27,2,2,0,0,0,.43,1.32,1.43,1.43,0,0,0,1.17.54,1.55,1.55,0,0,0,1.2-.52A2,2,0,0,0,206.76,16.47Z"/><path class="cls-5" d="M211.38,15.86V17.5h-1.61V15.86Zm0,4.73v1.64h-1.61V20.59Z"/><path class="cls-5" d="M215.94,13.5a3.64,3.64,0,0,1,1,.15,2.72,2.72,0,0,1,.88.44,2.18,2.18,0,0,1,.62.72,2.1,2.1,0,0,1,.23,1,2.16,2.16,0,0,1-.08.62,1.83,1.83,0,0,1-.25.52,1.63,1.63,0,0,1-.4.41,1.88,1.88,0,0,1-.56.27v0a1.93,1.93,0,0,1,1.2.71,2.07,2.07,0,0,1,.42,1.3,2.5,2.5,0,0,1-.89,2,3.31,3.31,0,0,1-2.23.76,3.84,3.84,0,0,1-1.17-.18,2.94,2.94,0,0,1-1-.52,2.49,2.49,0,0,1-.67-.84,2.55,2.55,0,0,1-.25-1.14V19.6h1.34v.13a1.45,1.45,0,0,0,.49,1.11,1.58,1.58,0,0,0,.52.3,1.91,1.91,0,0,0,.64.11,1.81,1.81,0,0,0,1.28-.44,1.45,1.45,0,0,0,.47-1.11,1.34,1.34,0,0,0-.45-1.09,2.2,2.2,0,0,0-1.46-.39h-.35v-1h.43a1.86,1.86,0,0,0,1.2-.35,1.1,1.1,0,0,0,.4-.9,1.39,1.39,0,0,0-.11-.58,1.12,1.12,0,0,0-.31-.41,1.34,1.34,0,0,0-.46-.24,2,2,0,0,0-.57-.08,1.7,1.7,0,0,0-.6.1,1.41,1.41,0,0,0-.48.3,1.44,1.44,0,0,0-.33.47,1.62,1.62,0,0,0-.13.64H213a2.81,2.81,0,0,1,.23-1,2.55,2.55,0,0,1,.59-.84,2.75,2.75,0,0,1,.91-.56A3.27,3.27,0,0,1,215.94,13.5Z"/><path class="cls-5" d="M225.13,20.19v2h-1.31v-2h-3.76V18.9l3.82-5.27h1.25V19h1.2v1.15Zm-1.31-4.82h0L221.16,19h2.65Z"/><path class="cls-5" d="M237,22.23l-.74-2.18h-3.55l-.75,2.18h-1.53l3.08-8.55h2l3,8.55Zm-2.48-7.45h0l-1.41,4.13h2.79Z"/><path class="cls-5" d="M247.26,22.23V15.35h0l-2.43,6.88h-1.29l-2.44-6.84h0v6.84h-1.42V13.68h2.19l2.36,6.67h0l2.3-6.67h2.18v8.55Z"/><path class="cls-5" d="M423.75,22.23V16.36h-2.2v-1a6,6,0,0,0,.9-.07,2.36,2.36,0,0,0,.63-.18,1.57,1.57,0,0,0,.64-.55,2.21,2.21,0,0,0,.31-.89h1.11v8.6Z"/><path class="cls-5" d="M431.2,13.5a2.66,2.66,0,0,1,2.32,1.13,5.72,5.72,0,0,1,.79,3.3,5.83,5.83,0,0,1-.79,3.35,2.92,2.92,0,0,1-4.62,0,5.81,5.81,0,0,1-.79-3.35,5.74,5.74,0,0,1,.79-3.31A2.64,2.64,0,0,1,431.2,13.5Zm-1.7,4.44a10.28,10.28,0,0,0,.07,1.25,4.18,4.18,0,0,0,.26,1.06,1.83,1.83,0,0,0,.52.74,1.28,1.28,0,0,0,.85.28,1.31,1.31,0,0,0,1.08-.51,2.12,2.12,0,0,0,.31-.56,4.17,4.17,0,0,0,.2-.69,6.33,6.33,0,0,0,.1-.77q0-.4,0-.8a9.63,9.63,0,0,0-.08-1.27,3.8,3.8,0,0,0-.28-1,1.82,1.82,0,0,0-.53-.71,1.32,1.32,0,0,0-.84-.26,1.29,1.29,0,0,0-.6.13,1.39,1.39,0,0,0-.45.37,2,2,0,0,0-.31.55,4.32,4.32,0,0,0-.19.68,6.52,6.52,0,0,0-.11.76Q429.5,17.54,429.5,17.93Z"/><path class="cls-5" d="M437.38,15.86V17.5h-1.61V15.86Zm0,4.73v1.64h-1.61V20.59Z"/><path class="cls-5" d="M442.06,13.5a3,3,0,0,1,2,.7,2.22,2.22,0,0,1,.6.83,2.77,2.77,0,0,1,.19,1.06,2.82,2.82,0,0,1-.46,1.55,5.83,5.83,0,0,1-1.78,1.54q-.5.3-.85.57a6.91,6.91,0,0,0-.58.47,2.8,2.8,0,0,0-.62.81h4.33v1.21h-6.08a3.35,3.35,0,0,1,.39-1.59,3.73,3.73,0,0,1,.51-.69,5.59,5.59,0,0,1,.74-.66l.95-.71,1.12-.83a2.7,2.7,0,0,0,.71-.75,1.61,1.61,0,0,0,.23-.83,1.68,1.68,0,0,0-.1-.59,1.33,1.33,0,0,0-.31-.48,1.44,1.44,0,0,0-.47-.3,1.77,1.77,0,0,0-1.31,0,1.46,1.46,0,0,0-.5.38,1.58,1.58,0,0,0-.29.53,2,2,0,0,0-.1.61v.15h-1.34v-.15a3.14,3.14,0,0,1,.21-1.15,2.54,2.54,0,0,1,.59-.9,2.71,2.71,0,0,1,.94-.59A3.45,3.45,0,0,1,442.06,13.5Z"/><path class="cls-5" d="M452.08,13.67v1.21a8.83,8.83,0,0,0-1.24,1.49,10.33,10.33,0,0,0-.95,1.83,12,12,0,0,0-.87,4h-1.49a11.75,11.75,0,0,1,.93-3.82,13.7,13.7,0,0,1,2.2-3.45h-4.32V13.67Z"/><path class="cls-5" d="M463,22.23l-.74-2.18h-3.55l-.75,2.18h-1.53l3.08-8.55h2l3,8.55Zm-2.48-7.45h0l-1.41,4.13h2.79Z"/><path class="cls-5" d="M473.26,22.23V15.35h0l-2.43,6.88h-1.29l-2.44-6.84h0v6.84h-1.42V13.68h2.19l2.36,6.67h0l2.3-6.67h2.18v8.55Z"/><path class="cls-4" d="M688.93,40V35.11H687.1v-.86a5.06,5.06,0,0,0,.75-.06,2,2,0,0,0,.52-.15,1.3,1.3,0,0,0,.53-.46,1.84,1.84,0,0,0,.26-.74h.93V40Z"/><path class="cls-4" d="M695.25,32.72a2.45,2.45,0,0,1,1.69.59,1.85,1.85,0,0,1,.5.69,2.3,2.3,0,0,1,.16.88,2.35,2.35,0,0,1-.38,1.29,4.85,4.85,0,0,1-1.48,1.28q-.41.25-.71.47a5.84,5.84,0,0,0-.48.39A2.33,2.33,0,0,0,694,39h3.61v1h-5.07a2.79,2.79,0,0,1,.33-1.32,3.05,3.05,0,0,1,.42-.57,4.6,4.6,0,0,1,.62-.55l.79-.59.93-.69a2.26,2.26,0,0,0,.59-.63,1.35,1.35,0,0,0,.19-.69,1.39,1.39,0,0,0-.09-.5,1.11,1.11,0,0,0-.26-.4,1.18,1.18,0,0,0-.39-.25,1.47,1.47,0,0,0-1.09,0,1.22,1.22,0,0,0-.41.31,1.34,1.34,0,0,0-.24.44,1.67,1.67,0,0,0-.08.51v.12h-1.11V35.1a2.61,2.61,0,0,1,.17-1,2.13,2.13,0,0,1,.49-.75,2.27,2.27,0,0,1,.78-.49A2.88,2.88,0,0,1,695.25,32.72Z"/><path class="cls-4" d="M700.29,34.69v1.37H699V34.69Zm0,3.94V40H699V38.63Z"/><path class="cls-4" d="M704.09,32.72a3,3,0,0,1,.86.12,2.24,2.24,0,0,1,.73.36,1.8,1.8,0,0,1,.51.6,1.9,1.9,0,0,1,.12,1.35,1.51,1.51,0,0,1-.21.43,1.37,1.37,0,0,1-.34.34,1.57,1.57,0,0,1-.47.22v0a1.61,1.61,0,0,1,1,.6,1.72,1.72,0,0,1,.35,1.08,2.08,2.08,0,0,1-.74,1.66,2.76,2.76,0,0,1-1.86.63,3.21,3.21,0,0,1-1-.15,2.44,2.44,0,0,1-.81-.43,2.07,2.07,0,0,1-.56-.7,2.12,2.12,0,0,1-.21-1v-.11h1.11v.11a1.24,1.24,0,0,0,.11.53,1.22,1.22,0,0,0,.3.4,1.31,1.31,0,0,0,.44.25,1.59,1.59,0,0,0,.53.09,1.51,1.51,0,0,0,1.07-.37,1.21,1.21,0,0,0,.4-.93,1.12,1.12,0,0,0-.37-.91,1.83,1.83,0,0,0-1.22-.32h-.29v-.85h.36a1.55,1.55,0,0,0,1-.29.92.92,0,0,0,.33-.75,1.14,1.14,0,0,0-.1-.49.93.93,0,0,0-.26-.34,1.11,1.11,0,0,0-.39-.2,1.61,1.61,0,0,0-.47-.07,1.4,1.4,0,0,0-.5.09,1.17,1.17,0,0,0-.4.25,1.2,1.2,0,0,0-.27.39,1.35,1.35,0,0,0-.11.53h-1.11a2.35,2.35,0,0,1,.19-.87,2.14,2.14,0,0,1,.49-.7,2.31,2.31,0,0,1,.76-.47A2.71,2.71,0,0,1,704.09,32.72Z"/><path class="cls-4" d="M710.25,32.72a2.45,2.45,0,0,1,1.69.59,1.85,1.85,0,0,1,.5.69,2.3,2.3,0,0,1,.16.88,2.35,2.35,0,0,1-.38,1.29,4.85,4.85,0,0,1-1.48,1.28q-.41.25-.71.47a5.84,5.84,0,0,0-.48.39A2.33,2.33,0,0,0,709,39h3.61v1h-5.07a2.79,2.79,0,0,1,.33-1.32,3.05,3.05,0,0,1,.42-.57,4.6,4.6,0,0,1,.62-.55l.79-.59.93-.69a2.26,2.26,0,0,0,.59-.63,1.35,1.35,0,0,0,.19-.69,1.39,1.39,0,0,0-.09-.5,1.11,1.11,0,0,0-.26-.4,1.18,1.18,0,0,0-.39-.25,1.47,1.47,0,0,0-1.09,0,1.22,1.22,0,0,0-.41.31,1.34,1.34,0,0,0-.24.44,1.67,1.67,0,0,0-.08.51v.12h-1.11V35.1a2.61,2.61,0,0,1,.17-1,2.13,2.13,0,0,1,.49-.75,2.27,2.27,0,0,1,.78-.49A2.88,2.88,0,0,1,710.25,32.72Z"/><path class="cls-4" d="M722.49,35.06a2.12,2.12,0,0,1-.62,1.6,2.1,2.1,0,0,1-.73.45,2.77,2.77,0,0,1-.95.15h-2V40h-1.25V32.86h3.25a2.33,2.33,0,0,1,1.67.6A2.09,2.09,0,0,1,722.49,35.06Zm-1.22,0a1.14,1.14,0,0,0-.35-.91,1.64,1.64,0,0,0-1.09-.3h-1.64v2.42h1.67a2.34,2.34,0,0,0,.6-.07,1.07,1.07,0,0,0,.81-1.14Z"/><path class="cls-4" d="M730,40V34.27h0L728,40h-1.08l-2-5.7h0V40h-1.18V32.87h1.83l2,5.56h0l1.91-5.56h1.82V40Z"/><rect class="cls-6" x="222.5" y="34.5" width="225" height="5"/><path class="cls-6" d="M447,35v4H223V35H447m1-1H222v6H448V34Z"/><rect class="cls-6" x="220" y="29" width="4" height="16"/><g class="cls-7"><path class="cls-8" d="M224,29V45h-4V29h4m1-1h-6V46h6V28Z"/></g><rect class="cls-6" x="446" y="29" width="4" height="16"/><g class="cls-7"><path class="cls-8" d="M450,29V45h-4V29h4m1-1h-6V46h6V28Z"/></g></g></svg>