<svg xmlns="http://www.w3.org/2000/svg" viewBox="0 0 445 440"><defs><style>.cls-1{fill:none;}.cls-14,.cls-16,.cls-2{fill:#fff;}.cls-15,.cls-2{opacity:0.8;}.cls-3{opacity:0.4;}.cls-4{fill:#969696;}.cls-5,.cls-8{opacity:0.5;}.cls-6{fill:#464646;}.cls-7{fill:#787878;}.cls-8{fill:#d6f1ff;}.cls-9{fill:#47c2ff;}.cls-10{fill:#2269a1;}.cls-11{fill:#f03040;}.cls-12{opacity:0.04;}.cls-13{opacity:0.3;}.cls-14{opacity:0;}.cls-17{fill:#0aaeff;}</style></defs><title>Artboard 47</title><g id="Background"><rect class="cls-1" width="445" height="440"/></g><g id="Content"><rect class="cls-2" x="243" y="35.5" width="178" height="28"/><g class="cls-3"><path class="cls-4" d="M421,35.5v28H243v-28H421m1-1H242v30H422v-30Z"/></g><g class="cls-5"><path class="cls-6" d="M258.25,43.87v1.27h-4.72v2.28h4.37v1.19h-4.37v2.56h4.8v1.26H252V43.87Z"/><path class="cls-6" d="M268,52.43v-4a3.44,3.44,0,0,0-.05-.62,1.26,1.26,0,0,0-.19-.49,1,1,0,0,0-.39-.32,1.48,1.48,0,0,0-.63-.12,1.24,1.24,0,0,0-1.06.47,2.29,2.29,0,0,0-.35,1.38v3.74h-1.45V48.22a1.64,1.64,0,0,0-.28-1,1.1,1.1,0,0,0-.91-.35,1.34,1.34,0,0,0-1.08.48,2,2,0,0,0-.4,1.31v3.81H259.8V45.85h1.36v1h0a2.31,2.31,0,0,1,2.06-1.15,2.27,2.27,0,0,1,1.2.3,1.71,1.71,0,0,1,.71.86A2.45,2.45,0,0,1,266,46a2.21,2.21,0,0,1,3.47,2v4.48Z"/><path class="cls-6" d="M277.9,49.19a4.55,4.55,0,0,1-.08.85,4.15,4.15,0,0,1-.23.8,3.31,3.31,0,0,1-.4.71,2.59,2.59,0,0,1-.57.57,2.64,2.64,0,0,1-.73.37,2.87,2.87,0,0,1-.91.13,2.61,2.61,0,0,1-.63-.08,2.42,2.42,0,0,1-.58-.22,2.29,2.29,0,0,1-.5-.36,2,2,0,0,1-.38-.5h0v3.33h-1.44V45.85h1.37v1h0a2.08,2.08,0,0,1,.86-.88,2.59,2.59,0,0,1,1.23-.29,2.88,2.88,0,0,1,1.31.28,2.67,2.67,0,0,1,.93.76,3.3,3.3,0,0,1,.55,1.12A4.85,4.85,0,0,1,277.9,49.19Zm-1.45,0a3.92,3.92,0,0,0-.09-.83,2.38,2.38,0,0,0-.3-.76,1.72,1.72,0,0,0-.56-.56,1.57,1.57,0,0,0-.85-.22,1.6,1.6,0,0,0-1.35.61,2.82,2.82,0,0,0-.47,1.75,3.62,3.62,0,0,0,.1.84,2.34,2.34,0,0,0,.32.75,1.73,1.73,0,0,0,.57.54,1.64,1.64,0,0,0,.85.21,1.56,1.56,0,0,0,1.33-.66,2.17,2.17,0,0,0,.34-.74A3.75,3.75,0,0,0,276.45,49.15Z"/><path class="cls-6" d="M282.75,52.48h-.83a4.59,4.59,0,0,1-.74-.06,1.58,1.58,0,0,1-.6-.22,1.12,1.12,0,0,1-.4-.45A1.67,1.67,0,0,1,280,51V46.87h-1.29v-1H280v-2h1.45v2H283v1h-1.5V50.6a.83.83,0,0,0,.17.58.8.8,0,0,0,.59.18h.57l.17,0v1.14Z"/><path class="cls-6" d="M285.06,45.85l1.73,5h0l1.64-5h1.49l-2.81,7.52a3,3,0,0,1-.29.59,1.79,1.79,0,0,1-.4.44,1.71,1.71,0,0,1-.54.28,2.43,2.43,0,0,1-.72.1l-.54,0-.46,0v-1.2l.45.05H285a1,1,0,0,0,.4-.07.76.76,0,0,0,.28-.21,1.39,1.39,0,0,0,.21-.36q.09-.22.18-.52l-2.53-6.57Z"/><path class="cls-6" d="M297.76,52.48h-.83a4.59,4.59,0,0,1-.74-.06,1.58,1.58,0,0,1-.6-.22,1.12,1.12,0,0,1-.4-.45A1.67,1.67,0,0,1,295,51V46.87h-1.29v-1H295v-2h1.45v2H298v1h-1.5V50.6a.83.83,0,0,0,.17.58.8.8,0,0,0,.59.18h.57l.17,0v1.14Z"/><path class="cls-6" d="M302.15,45.68a3,3,0,0,1,1.34.28,2.78,2.78,0,0,1,1,.77,3.33,3.33,0,0,1,.58,1.13,4.76,4.76,0,0,1,.19,1.37v.26h-4.85a2.77,2.77,0,0,0,.13.81,1.9,1.9,0,0,0,.35.63,1.55,1.55,0,0,0,.54.41,1.7,1.7,0,0,0,.72.15,1.9,1.9,0,0,0,1-.23,1.7,1.7,0,0,0,.61-.6h1.37a3.06,3.06,0,0,1-.45.81,2.83,2.83,0,0,1-.66.62,3,3,0,0,1-.85.39,3.66,3.66,0,0,1-1,.13,3.28,3.28,0,0,1-1.33-.26,2.82,2.82,0,0,1-1-.72,3.18,3.18,0,0,1-.62-1.1,4.31,4.31,0,0,1-.22-1.4,4,4,0,0,1,.22-1.33,3.3,3.3,0,0,1,.63-1.1,3,3,0,0,1,1-.76A3.16,3.16,0,0,1,302.15,45.68Zm1.63,2.85a2.77,2.77,0,0,0-.16-.71,1.73,1.73,0,0,0-.33-.55,1.43,1.43,0,0,0-.5-.35,1.91,1.91,0,0,0-1.37,0,1.51,1.51,0,0,0-.52.36,1.79,1.79,0,0,0-.35.55,2.54,2.54,0,0,0-.17.7Z"/><path class="cls-6" d="M307.6,45.85l1.41,2,1.39-2H312L309.81,49l2.47,3.47h-1.69L309,50.11l-1.61,2.32h-1.66L308.14,49l-2.23-3.13Z"/><path class="cls-6" d="M316.63,52.48h-.83a4.59,4.59,0,0,1-.74-.06,1.58,1.58,0,0,1-.6-.22,1.12,1.12,0,0,1-.4-.45,1.67,1.67,0,0,1-.15-.76V46.87h-1.29v-1h1.29v-2h1.45v2h1.5v1h-1.5V50.6a.83.83,0,0,0,.17.58.8.8,0,0,0,.59.18h.57l.17,0v1.14Z"/><path class="cls-6" d="M323.67,46.87v5.55h-1.45V46.87h-1.28v-1h1.28v-.51a2,2,0,0,1,.52-1.52,1.64,1.64,0,0,1,.63-.36,3,3,0,0,1,.9-.12h.43l.52,0v1.11l-.18,0-.2,0h-.34a.86.86,0,0,0-.65.2,1,1,0,0,0-.18.68v.51h1.44v1ZM327.55,43v1.42H326.1V43Zm0,2.86v6.57H326.1V45.85Z"/><path class="cls-6" d="M332.33,45.68a3,3,0,0,1,1.34.28,2.78,2.78,0,0,1,1,.77,3.33,3.33,0,0,1,.58,1.13,4.76,4.76,0,0,1,.19,1.37v.26h-4.85a2.77,2.77,0,0,0,.13.81,1.9,1.9,0,0,0,.35.63,1.55,1.55,0,0,0,.54.41,1.7,1.7,0,0,0,.72.15,1.9,1.9,0,0,0,1-.23,1.7,1.7,0,0,0,.61-.6h1.37a3.06,3.06,0,0,1-.45.81,2.83,2.83,0,0,1-.66.62,3,3,0,0,1-.85.39,3.66,3.66,0,0,1-1,.13,3.28,3.28,0,0,1-1.33-.26,2.82,2.82,0,0,1-1-.72,3.18,3.18,0,0,1-.62-1.1,4.31,4.31,0,0,1-.22-1.4,4,4,0,0,1,.22-1.33,3.3,3.3,0,0,1,.63-1.1,3,3,0,0,1,1-.76A3.16,3.16,0,0,1,332.33,45.68ZM334,48.53a2.77,2.77,0,0,0-.16-.71,1.73,1.73,0,0,0-.33-.55,1.43,1.43,0,0,0-.5-.35,1.91,1.91,0,0,0-1.37,0,1.51,1.51,0,0,0-.52.36,1.79,1.79,0,0,0-.35.55,2.54,2.54,0,0,0-.17.7Z"/><path class="cls-6" d="M338.42,43.35v9.08H337V43.35Z"/><path class="cls-6" d="M346.51,43.35v9.08h-1.37v-1h0a2.07,2.07,0,0,1-.37.5,2.16,2.16,0,0,1-.49.37,2.44,2.44,0,0,1-.59.23,2.79,2.79,0,0,1-.67.08,2.72,2.72,0,0,1-1.28-.29,2.76,2.76,0,0,1-.92-.77,3.38,3.38,0,0,1-.56-1.12,4.69,4.69,0,0,1-.19-1.33,4.52,4.52,0,0,1,.18-1.26,3.34,3.34,0,0,1,.54-1.1,2.75,2.75,0,0,1,.91-.77,2.91,2.91,0,0,1,1.92-.22,2.49,2.49,0,0,1,.58.21,2.07,2.07,0,0,1,.49.35,2,2,0,0,1,.37.5h0V43.35Zm-5,5.79a3.63,3.63,0,0,0,.1.82,2.44,2.44,0,0,0,.31.76,1.81,1.81,0,0,0,.56.56,1.5,1.5,0,0,0,.83.22,1.73,1.73,0,0,0,.79-.17,1.58,1.58,0,0,0,.57-.49,2.25,2.25,0,0,0,.35-.75,3.68,3.68,0,0,0,.12-1,3.73,3.73,0,0,0-.1-.84,2.3,2.3,0,0,0-.31-.75,1.72,1.72,0,0,0-.57-.54,1.64,1.64,0,0,0-.85-.21,1.56,1.56,0,0,0-.82.2,1.7,1.7,0,0,0-.55.53,2.35,2.35,0,0,0-.32.75A3.93,3.93,0,0,0,341.49,49.14Z"/><path class="cls-6" d="M353.4,43.35v9.08H352V43.35Z"/><path class="cls-6" d="M361.48,52.43l-.44.09-.39,0a1.79,1.79,0,0,1-.42,0,.91.91,0,0,1-.34-.16.84.84,0,0,1-.24-.29,1.28,1.28,0,0,1-.12-.45h0a2.67,2.67,0,0,1-.45.46,2.3,2.3,0,0,1-.52.31,3.32,3.32,0,0,1-1.31.24,2.42,2.42,0,0,1-1.62-.51,1.77,1.77,0,0,1-.6-1.45,1.7,1.7,0,0,1,.6-1.42,2.11,2.11,0,0,1,.58-.32,4.68,4.68,0,0,1,.73-.2q.39-.08.82-.13l.87-.1.34-.07a.8.8,0,0,0,.27-.13.59.59,0,0,0,.17-.22.79.79,0,0,0,.06-.33,1,1,0,0,0-.31-.79,2.11,2.11,0,0,0-2.05,0,1,1,0,0,0-.39.73h-1.45a2,2,0,0,1,.28-.9,2,2,0,0,1,.62-.62,2.88,2.88,0,0,1,.9-.36,5.08,5.08,0,0,1,1.13-.12,3.42,3.42,0,0,1,2,.5,1.65,1.65,0,0,1,.67,1.41v3.54a.47.47,0,0,0,.08.3.33.33,0,0,0,.27.1h.12l.13,0Zm-2-3.35h0a1,1,0,0,1-.54.23l-.48.08-.65.11a2.2,2.2,0,0,0-1,.37.87.87,0,0,0-.32.72.89.89,0,0,0,.37.76,1.48,1.48,0,0,0,.87.24,1.79,1.79,0,0,0,1.27-.43,1.59,1.59,0,0,0,.49-1.24Z"/><path class="cls-6" d="M369.27,49.14a4.85,4.85,0,0,1-.17,1.28,3.47,3.47,0,0,1-.52,1.11,2.65,2.65,0,0,1-.88.79,2.51,2.51,0,0,1-1.25.3,2.93,2.93,0,0,1-1.36-.3,1.9,1.9,0,0,1-.86-.87h0v1h-1.37V43.35h1.44v3.47h0a1.88,1.88,0,0,1,.36-.47,2.16,2.16,0,0,1,.5-.36,2.68,2.68,0,0,1,.61-.23,2.85,2.85,0,0,1,.68-.08,2.52,2.52,0,0,1,1.24.29,2.66,2.66,0,0,1,.88.78,3.4,3.4,0,0,1,.52,1.11A4.87,4.87,0,0,1,369.27,49.14Zm-1.45,0a3.74,3.74,0,0,0-.09-.82,2.52,2.52,0,0,0-.3-.76,1.71,1.71,0,0,0-.54-.56,1.5,1.5,0,0,0-.83-.22,1.57,1.57,0,0,0-.82.21,1.71,1.71,0,0,0-.56.54,2.39,2.39,0,0,0-.32.75,3.63,3.63,0,0,0-.1.86,3.68,3.68,0,0,0,.1.83,2.37,2.37,0,0,0,.31.76,1.76,1.76,0,0,0,.56.55,1.57,1.57,0,0,0,.84.21,1.49,1.49,0,0,0,.8-.21,1.69,1.69,0,0,0,.54-.54,2.43,2.43,0,0,0,.31-.75A3.94,3.94,0,0,0,367.82,49.15Z"/><path class="cls-6" d="M373.73,45.68a3,3,0,0,1,1.34.28,2.78,2.78,0,0,1,1,.77,3.33,3.33,0,0,1,.58,1.13,4.76,4.76,0,0,1,.19,1.37v.26H372a2.77,2.77,0,0,0,.13.81,1.9,1.9,0,0,0,.35.63,1.55,1.55,0,0,0,.54.41,1.7,1.7,0,0,0,.72.15,1.9,1.9,0,0,0,1-.23,1.7,1.7,0,0,0,.61-.6h1.37a3.06,3.06,0,0,1-.45.81,2.83,2.83,0,0,1-.66.62,3,3,0,0,1-.85.39,3.66,3.66,0,0,1-1,.13,3.28,3.28,0,0,1-1.33-.26,2.82,2.82,0,0,1-1-.72,3.18,3.18,0,0,1-.62-1.1,4.31,4.31,0,0,1-.22-1.4,4,4,0,0,1,.22-1.33,3.3,3.3,0,0,1,.63-1.1,3,3,0,0,1,1-.76A3.16,3.16,0,0,1,373.73,45.68Zm1.63,2.85a2.77,2.77,0,0,0-.16-.71,1.73,1.73,0,0,0-.33-.55,1.43,1.43,0,0,0-.5-.35,1.91,1.91,0,0,0-1.37,0,1.51,1.51,0,0,0-.52.36,1.79,1.79,0,0,0-.35.55,2.54,2.54,0,0,0-.17.7Z"/><path class="cls-6" d="M379.81,43.35v9.08h-1.45V43.35Z"/></g><path class="cls-7" d="M245.12,20.43l3.4,5.3h0v-5.3h1.19v7.14h-1.27l-3.4-5.3h0v5.3h-1.19V20.43Z"/><path class="cls-7" d="M258,24a3.85,3.85,0,0,1-.95,2.66,3.21,3.21,0,0,1-2.51,1.05,3.63,3.63,0,0,1-1.37-.24,3.23,3.23,0,0,1-1.1-.75,3.35,3.35,0,0,1-.75-1.22A4.46,4.46,0,0,1,251,24a3.9,3.9,0,0,1,.95-2.7,3.21,3.21,0,0,1,2.51-1.05,3.7,3.7,0,0,1,1.37.25,3,3,0,0,1,1.1.76,3.34,3.34,0,0,1,.74,1.24A4.74,4.74,0,0,1,258,24Zm-1.25,0a3.07,3.07,0,0,0-.59-2,2.14,2.14,0,0,0-3.25,0,3.08,3.08,0,0,0-.58,2,3,3,0,0,0,.58,1.91,2.16,2.16,0,0,0,3.26,0A3,3,0,0,0,256.7,24Z"/><path class="cls-7" d="M265,22.36a1.91,1.91,0,0,1-.42,1.28,1.5,1.5,0,0,1-.35.31,2.09,2.09,0,0,1-.46.21v0a1.43,1.43,0,0,1,.49.21,1.17,1.17,0,0,1,.33.35,1.63,1.63,0,0,1,.21.52,4.43,4.43,0,0,1,.08.57c0,.2,0,.4,0,.61a4,4,0,0,0,.08.62,1.38,1.38,0,0,0,.2.52h-1.27a3.66,3.66,0,0,1-.19-1.12,2.66,2.66,0,0,0-.38-1.47,1.13,1.13,0,0,0-.88-.34h-2v2.92h-1.25V20.43h3.68a2.14,2.14,0,0,1,1.48.53A1.8,1.8,0,0,1,265,22.36Zm-1.25.2a1.09,1.09,0,0,0-.32-.86,1.3,1.3,0,0,0-.89-.28H260.5v2.29h2.05a1.27,1.27,0,0,0,.85-.27A1.08,1.08,0,0,0,263.76,22.56Z"/><path class="cls-7" d="M272.86,27.57V21.84h0l-2,5.73h-1.08l-2-5.7h0v5.7h-1.18V20.44h1.83l2,5.56h0l1.91-5.56H274v7.13Z"/><path class="cls-7" d="M280.43,27.57l-.62-1.82h-3l-.62,1.82H275l2.57-7.13h1.69l2.52,7.13Zm-2.07-6.21h0l-1.17,3.44h2.33Z"/><path class="cls-7" d="M283.9,20.43v6.08h3.67v1.05h-4.92V20.43Z"/><rect class="cls-2" x="23" y="35.5" width="178" height="28"/><g class="cls-3"><path class="cls-4" d="M201,35.5v28H23v-28H201m1-1H22v30H202v-30Z"/></g><path class="cls-6" d="M33.55,43.86v8.57H32V43.86Z"/><path class="cls-6" d="M39,45.68a3.25,3.25,0,0,1,1.1.16,1.8,1.8,0,0,1,.74.49,2,2,0,0,1,.42.81,4.28,4.28,0,0,1,.13,1.12v4.17H40v-3.9a2.11,2.11,0,0,0-.32-1.27,1.19,1.19,0,0,0-1-.43,1.48,1.48,0,0,0-1.23.52A2.28,2.28,0,0,0,37,48.8v3.63H35.54V45.85h1.38v1h0a2.14,2.14,0,0,1,.37-.5,2.24,2.24,0,0,1,.48-.37,2.34,2.34,0,0,1,.57-.23A2.51,2.51,0,0,1,39,45.68Z"/><path class="cls-6" d="M49.77,49.19a4.55,4.55,0,0,1-.08.85,4.15,4.15,0,0,1-.23.8,3.31,3.31,0,0,1-.4.71,2.59,2.59,0,0,1-.57.57,2.64,2.64,0,0,1-.73.37,2.87,2.87,0,0,1-.91.13,2.61,2.61,0,0,1-.63-.08,2.42,2.42,0,0,1-.58-.22,2.29,2.29,0,0,1-.5-.36,2,2,0,0,1-.38-.5h0v3.33H43.31V45.85h1.37v1h0a2.08,2.08,0,0,1,.86-.88,2.59,2.59,0,0,1,1.23-.29,2.88,2.88,0,0,1,1.31.28,2.67,2.67,0,0,1,.93.76,3.3,3.3,0,0,1,.55,1.12A4.85,4.85,0,0,1,49.77,49.19Zm-1.45,0a3.92,3.92,0,0,0-.09-.83,2.38,2.38,0,0,0-.3-.76,1.72,1.72,0,0,0-.56-.56,1.57,1.57,0,0,0-.85-.22,1.6,1.6,0,0,0-1.35.61,2.82,2.82,0,0,0-.47,1.75,3.62,3.62,0,0,0,.1.84,2.34,2.34,0,0,0,.32.75,1.73,1.73,0,0,0,.57.54,1.64,1.64,0,0,0,.85.21,1.56,1.56,0,0,0,1.33-.66,2.17,2.17,0,0,0,.34-.74A3.75,3.75,0,0,0,48.33,49.15Z"/><path class="cls-6" d="M55.84,52.43v-1h0a2.25,2.25,0,0,1-.39.52,2.3,2.3,0,0,1-.5.37,2.49,2.49,0,0,1-.58.23,2.54,2.54,0,0,1-.64.08A2.3,2.3,0,0,1,51.92,52,2.81,2.81,0,0,1,51.34,50V45.85h1.44v4a2.89,2.89,0,0,0,.08.7,1.37,1.37,0,0,0,.24.52,1,1,0,0,0,.42.32,1.82,1.82,0,0,0,1.36,0,1.37,1.37,0,0,0,.5-.43,1.86,1.86,0,0,0,.29-.66,3.72,3.72,0,0,0,.09-.85v-3.5h1.44v6.57Z"/><path class="cls-6" d="M62.38,52.48h-.83a4.59,4.59,0,0,1-.74-.06,1.58,1.58,0,0,1-.6-.22,1.12,1.12,0,0,1-.4-.45,1.67,1.67,0,0,1-.15-.76V46.87H58.38v-1h1.29v-2h1.45v2h1.5v1h-1.5V50.6a.83.83,0,0,0,.17.58.8.8,0,0,0,.59.18h.57l.17,0v1.14Z"/><path class="cls-6" d="M70.77,52.48h-.83a4.59,4.59,0,0,1-.74-.06,1.58,1.58,0,0,1-.6-.22,1.12,1.12,0,0,1-.4-.45,1.67,1.67,0,0,1-.15-.76V46.87H66.77v-1h1.29v-2H69.5v2H71v1H69.5V50.6a.83.83,0,0,0,.17.58.8.8,0,0,0,.59.18h.57l.17,0v1.14Z"/><path class="cls-6" d="M75.16,45.68a3,3,0,0,1,1.34.28,2.78,2.78,0,0,1,1,.77,3.33,3.33,0,0,1,.58,1.13,4.76,4.76,0,0,1,.19,1.37v.26H73.39a2.77,2.77,0,0,0,.13.81,1.9,1.9,0,0,0,.35.63,1.55,1.55,0,0,0,.54.41,1.7,1.7,0,0,0,.72.15,1.9,1.9,0,0,0,1-.23,1.7,1.7,0,0,0,.61-.6h1.37a3.06,3.06,0,0,1-.45.81,2.83,2.83,0,0,1-.66.62,3,3,0,0,1-.85.39,3.66,3.66,0,0,1-1,.13,3.28,3.28,0,0,1-1.33-.26,2.82,2.82,0,0,1-1-.72,3.18,3.18,0,0,1-.62-1.1,4.31,4.31,0,0,1-.22-1.4,4,4,0,0,1,.22-1.33,3.3,3.3,0,0,1,.63-1.1,3,3,0,0,1,1-.76A3.16,3.16,0,0,1,75.16,45.68Zm1.63,2.85a2.77,2.77,0,0,0-.16-.71,1.73,1.73,0,0,0-.33-.55,1.43,1.43,0,0,0-.5-.35,1.91,1.91,0,0,0-1.37,0,1.51,1.51,0,0,0-.52.36,1.79,1.79,0,0,0-.35.55,2.54,2.54,0,0,0-.17.7Z"/><path class="cls-6" d="M80.61,45.85l1.41,2,1.39-2H85L82.81,49l2.47,3.47H83.6L82,50.11l-1.61,2.32H78.72L81.15,49l-2.23-3.13Z"/><path class="cls-6" d="M89.64,52.48h-.83a4.59,4.59,0,0,1-.74-.06,1.58,1.58,0,0,1-.6-.22,1.12,1.12,0,0,1-.4-.45,1.67,1.67,0,0,1-.15-.76V46.87H85.64v-1h1.29v-2h1.45v2h1.5v1h-1.5V50.6a.83.83,0,0,0,.17.58.8.8,0,0,0,.59.18h.57l.17,0v1.14Z"/><path class="cls-7" d="M25.12,19.86l3.4,5.3h0v-5.3h1.19V27H28.45l-3.4-5.3h0V27H23.84V19.86Z"/><path class="cls-7" d="M38,23.45A3.85,3.85,0,0,1,37,26.11a3.21,3.21,0,0,1-2.51,1.05,3.63,3.63,0,0,1-1.37-.24,3.23,3.23,0,0,1-1.1-.75A3.35,3.35,0,0,1,31.28,25,4.46,4.46,0,0,1,31,23.45a3.9,3.9,0,0,1,.95-2.7,3.21,3.21,0,0,1,2.51-1.05,3.7,3.7,0,0,1,1.37.25,3,3,0,0,1,1.1.76,3.34,3.34,0,0,1,.74,1.24A4.74,4.74,0,0,1,38,23.45Zm-1.25,0a3.07,3.07,0,0,0-.59-2,2.14,2.14,0,0,0-3.25,0,3.08,3.08,0,0,0-.58,2,3,3,0,0,0,.58,1.91,2.16,2.16,0,0,0,3.26,0A3,3,0,0,0,36.7,23.45Z"/><path class="cls-7" d="M45,21.79a1.91,1.91,0,0,1-.42,1.28,1.5,1.5,0,0,1-.35.31,2.09,2.09,0,0,1-.46.21v0a1.43,1.43,0,0,1,.49.21,1.17,1.17,0,0,1,.33.35,1.63,1.63,0,0,1,.21.52,4.43,4.43,0,0,1,.08.57c0,.2,0,.4,0,.61a4,4,0,0,0,.08.62,1.38,1.38,0,0,0,.2.52H43.94a3.66,3.66,0,0,1-.19-1.12,2.66,2.66,0,0,0-.38-1.47,1.13,1.13,0,0,0-.88-.34h-2V27H39.25V19.86h3.68a2.14,2.14,0,0,1,1.48.53A1.8,1.8,0,0,1,45,21.79Zm-1.25.2a1.09,1.09,0,0,0-.32-.86,1.3,1.3,0,0,0-.89-.28H40.5v2.29h2.05a1.27,1.27,0,0,0,.85-.27A1.08,1.08,0,0,0,43.76,22Z"/><path class="cls-7" d="M52.86,27V21.27h0l-2,5.73H49.74l-2-5.7h0V27H46.51V19.87h1.83l2,5.56h0l1.91-5.56H54V27Z"/><path class="cls-7" d="M60.43,27l-.62-1.82h-3L56.23,27H55l2.57-7.13h1.69L61.73,27Zm-2.07-6.21h0l-1.17,3.44h2.33Z"/><path class="cls-7" d="M63.9,19.86v6.08h3.67V27H62.65V19.86Z"/><rect class="cls-8" x="22.5" y="335" width="179" height="29"/><path class="cls-9" d="M201,335.5v28H23v-28H201m1-1H22v30H202v-30Z"/><path class="cls-10" d="M33.55,343.86v8.57H32v-8.57Z"/><path class="cls-10" d="M39,345.68a3.25,3.25,0,0,1,1.1.16,1.8,1.8,0,0,1,.74.49,2,2,0,0,1,.42.81,4.28,4.28,0,0,1,.13,1.12v4.17H40v-3.9a2.11,2.11,0,0,0-.32-1.27,1.19,1.19,0,0,0-1-.43,1.48,1.48,0,0,0-1.23.52A2.28,2.28,0,0,0,37,348.8v3.63H35.54v-6.57h1.38v1h0a2.14,2.14,0,0,1,.37-.5,2.24,2.24,0,0,1,.48-.37,2.34,2.34,0,0,1,.57-.23A2.51,2.51,0,0,1,39,345.68Z"/><path class="cls-10" d="M49.77,349.19a4.55,4.55,0,0,1-.08.85,4.15,4.15,0,0,1-.23.8,3.31,3.31,0,0,1-.4.71,2.59,2.59,0,0,1-.57.57,2.64,2.64,0,0,1-.73.37,2.87,2.87,0,0,1-.91.13,2.61,2.61,0,0,1-.63-.08,2.42,2.42,0,0,1-.58-.22,2.29,2.29,0,0,1-.5-.36,2,2,0,0,1-.38-.5h0v3.33H43.31v-8.93h1.37v1h0a2.08,2.08,0,0,1,.86-.88,2.59,2.59,0,0,1,1.23-.29,2.88,2.88,0,0,1,1.31.28,2.67,2.67,0,0,1,.93.76,3.3,3.3,0,0,1,.55,1.12A4.85,4.85,0,0,1,49.77,349.19Zm-1.45,0a3.92,3.92,0,0,0-.09-.83,2.38,2.38,0,0,0-.3-.76,1.72,1.72,0,0,0-.56-.56,1.57,1.57,0,0,0-.85-.22,1.6,1.6,0,0,0-1.35.61,2.82,2.82,0,0,0-.47,1.75,3.62,3.62,0,0,0,.1.84,2.34,2.34,0,0,0,.32.75,1.73,1.73,0,0,0,.57.54,1.64,1.64,0,0,0,.85.21,1.56,1.56,0,0,0,1.33-.66,2.17,2.17,0,0,0,.34-.74A3.75,3.75,0,0,0,48.33,349.15Z"/><path class="cls-10" d="M55.84,352.43v-1h0a2.25,2.25,0,0,1-.39.52,2.3,2.3,0,0,1-.5.37,2.49,2.49,0,0,1-.58.23,2.54,2.54,0,0,1-.64.08,2.3,2.3,0,0,1-1.78-.63,2.81,2.81,0,0,1-.57-1.95v-4.19h1.44v4a2.89,2.89,0,0,0,.08.7,1.37,1.37,0,0,0,.24.52,1,1,0,0,0,.42.32,1.82,1.82,0,0,0,1.36,0,1.37,1.37,0,0,0,.5-.43,1.86,1.86,0,0,0,.29-.66,3.72,3.72,0,0,0,.09-.85v-3.5h1.44v6.57Z"/><path class="cls-10" d="M62.38,352.48h-.83a4.59,4.59,0,0,1-.74-.06,1.58,1.58,0,0,1-.6-.22,1.12,1.12,0,0,1-.4-.45,1.67,1.67,0,0,1-.15-.76v-4.15H58.38v-1h1.29v-2h1.45v2h1.5v1h-1.5v3.72a.83.83,0,0,0,.17.58.8.8,0,0,0,.59.18h.57l.17,0v1.14Z"/><path class="cls-10" d="M70.77,352.48h-.83a4.59,4.59,0,0,1-.74-.06,1.58,1.58,0,0,1-.6-.22,1.12,1.12,0,0,1-.4-.45,1.67,1.67,0,0,1-.15-.76v-4.15H66.77v-1h1.29v-2H69.5v2H71v1H69.5v3.72a.83.83,0,0,0,.17.58.8.8,0,0,0,.59.18h.57l.17,0v1.14Z"/><path class="cls-10" d="M75.16,345.68a3,3,0,0,1,1.34.28,2.78,2.78,0,0,1,1,.77,3.33,3.33,0,0,1,.58,1.13,4.76,4.76,0,0,1,.19,1.37v.26H73.39a2.77,2.77,0,0,0,.13.81,1.9,1.9,0,0,0,.35.63,1.55,1.55,0,0,0,.54.41,1.7,1.7,0,0,0,.72.15,1.9,1.9,0,0,0,1-.23,1.7,1.7,0,0,0,.61-.6h1.37a3.06,3.06,0,0,1-.45.81,2.83,2.83,0,0,1-.66.62,3,3,0,0,1-.85.39,3.66,3.66,0,0,1-1,.13,3.28,3.28,0,0,1-1.33-.26,2.82,2.82,0,0,1-1-.72,3.18,3.18,0,0,1-.62-1.1,4.31,4.31,0,0,1-.22-1.4,4,4,0,0,1,.22-1.33,3.3,3.3,0,0,1,.63-1.1,3,3,0,0,1,1-.76A3.16,3.16,0,0,1,75.16,345.68Zm1.63,2.85a2.77,2.77,0,0,0-.16-.71,1.73,1.73,0,0,0-.33-.55,1.43,1.43,0,0,0-.5-.35,1.91,1.91,0,0,0-1.37,0,1.51,1.51,0,0,0-.52.36,1.79,1.79,0,0,0-.35.55,2.54,2.54,0,0,0-.17.7Z"/><path class="cls-10" d="M80.61,345.85l1.41,2,1.39-2H85L82.81,349l2.47,3.47H83.6L82,350.11l-1.61,2.32H78.72L81.15,349l-2.23-3.13Z"/><path class="cls-10" d="M89.64,352.48h-.83a4.59,4.59,0,0,1-.74-.06,1.58,1.58,0,0,1-.6-.22,1.12,1.12,0,0,1-.4-.45,1.67,1.67,0,0,1-.15-.76v-4.15H85.64v-1h1.29v-2h1.45v2h1.5v1h-1.5v3.72a.83.83,0,0,0,.17.58.8.8,0,0,0,.59.18h.57l.17,0v1.14Z"/><path class="cls-7" d="M29,320.87v1.05H25.1v1.9h3.64v1H25.1V327h4v1H23.85v-7.13Z"/><path class="cls-7" d="M33.21,320.86a3.18,3.18,0,0,1,2.37.9,3.63,3.63,0,0,1,.89,2.64,3.74,3.74,0,0,1-.88,2.67,3.09,3.09,0,0,1-2.35.92H30.35v-7.14Zm-.14,6.08a2.07,2.07,0,0,0,1.58-.59,2.62,2.62,0,0,0,.57-1.86,2.79,2.79,0,0,0-.58-2,2.34,2.34,0,0,0-1.78-.61H31.6v5Z"/><path class="cls-7" d="M39.08,320.86V328H37.83v-7.14Z"/><path class="cls-7" d="M45.84,320.86v1.05H43.57V328H42.32v-6.08H40.06v-1.05Z"/><path class="cls-7" d="M52,320.87v1.05H48v1.9h3.64v1H48V327h4v1H46.79v-7.13Z"/><path class="cls-7" d="M56.15,320.86a3.18,3.18,0,0,1,2.37.9,3.63,3.63,0,0,1,.89,2.64,3.74,3.74,0,0,1-.88,2.67,3.09,3.09,0,0,1-2.35.92H53.29v-7.14ZM56,326.95a2.07,2.07,0,0,0,1.58-.59,2.62,2.62,0,0,0,.57-1.86,2.79,2.79,0,0,0-.58-2,2.34,2.34,0,0,0-1.78-.61H54.54v5Z"/><path class="cls-7" d="M65.72,320.7a8.62,8.62,0,0,0-.94,2.19,9.16,9.16,0,0,0-.33,2.46,8.44,8.44,0,0,0,.32,2.32,9.39,9.39,0,0,0,.94,2.19h-.95a9.33,9.33,0,0,1-.61-1,8.55,8.55,0,0,1-.46-1.11,7.82,7.82,0,0,1-.29-1.16,7.23,7.23,0,0,1-.1-1.21,8.47,8.47,0,0,1,.08-1.19,8.15,8.15,0,0,1,.26-1.19,8,8,0,0,1,.45-1.15,7.48,7.48,0,0,1,.65-1.09Z"/><path class="cls-7" d="M67.91,320.86v4.48a1.89,1.89,0,0,0,.41,1.33,1.68,1.68,0,0,0,1.29.44,1.73,1.73,0,0,0,1.29-.42,1.87,1.87,0,0,0,.41-1.34v-4.48h1.25v4.53a2.74,2.74,0,0,1-.75,2,3,3,0,0,1-2.2.75,4,4,0,0,1-1.27-.19,2.35,2.35,0,0,1-1-.59,2.33,2.33,0,0,1-.54-.87,3.37,3.37,0,0,1-.18-1.13v-4.53Z"/><path class="cls-7" d="M75.47,320.86l3.4,5.3h0v-5.3h1.19V328H78.8l-3.4-5.3h0V328H74.19v-7.14Z"/><path class="cls-7" d="M87.13,326a2,2,0,0,1-.24,1,2,2,0,0,1-.65.68,2.89,2.89,0,0,1-.94.39,4.86,4.86,0,0,1-1.12.13A4.28,4.28,0,0,1,83,328a2.81,2.81,0,0,1-.92-.43,2.06,2.06,0,0,1-.62-.7,2,2,0,0,1-.22-1v-.08h1.23v0a1.11,1.11,0,0,0,.14.56,1.17,1.17,0,0,0,.38.4,1.73,1.73,0,0,0,.56.24,2.89,2.89,0,0,0,.68.08,2.84,2.84,0,0,0,.64-.07,1.7,1.7,0,0,0,.52-.21,1.07,1.07,0,0,0,.35-.34.88.88,0,0,0,.13-.48.77.77,0,0,0-.31-.63,2.7,2.7,0,0,0-1-.42l-1.53-.41a2.36,2.36,0,0,1-1.2-.65,1.68,1.68,0,0,1-.39-1.16,1.86,1.86,0,0,1,.21-.91,2,2,0,0,1,.58-.66,2.67,2.67,0,0,1,.86-.4,4,4,0,0,1,2,0,2.67,2.67,0,0,1,.85.38,1.94,1.94,0,0,1,.59.64,1.89,1.89,0,0,1,.23.91H85.65a1,1,0,0,0-.13-.43,1.05,1.05,0,0,0-.31-.34,1.46,1.46,0,0,0-.46-.22,2.09,2.09,0,0,0-.59-.08,2.42,2.42,0,0,0-.55.06,1.44,1.44,0,0,0-.46.19,1,1,0,0,0-.31.32.88.88,0,0,0-.11.46.83.83,0,0,0,.06.33.68.68,0,0,0,.17.23.88.88,0,0,0,.26.16l.34.11,1.68.44a3.07,3.07,0,0,1,1.42.72A1.68,1.68,0,0,1,87.13,326Z"/><path class="cls-7" d="M93,328l-.62-1.82h-3L88.83,328H87.56l2.57-7.13h1.69L94.33,328ZM91,321.79h0l-1.17,3.44H92.1Z"/><path class="cls-7" d="M95.35,320.86l1.86,5.73h0l1.86-5.73h1.3L97.91,328H96.5l-2.44-7.14Z"/><path class="cls-7" d="M106.48,320.87v1.05h-3.94v1.9h3.64v1h-3.64V327h4v1h-5.25v-7.13Z"/><path class="cls-7" d="M110.65,320.86a3.18,3.18,0,0,1,2.37.9,3.63,3.63,0,0,1,.89,2.64,3.74,3.74,0,0,1-.88,2.67,3.09,3.09,0,0,1-2.35.92h-2.89v-7.14Zm-.14,6.08a2.07,2.07,0,0,0,1.58-.59,2.62,2.62,0,0,0,.57-1.86,2.79,2.79,0,0,0-.58-2,2.34,2.34,0,0,0-1.78-.61H109v5Z"/><path class="cls-7" d="M115.49,320.7a9.12,9.12,0,0,1,1.06,2.14,7.36,7.36,0,0,1,.39,2.4,8.38,8.38,0,0,1-.09,1.2,8,8,0,0,1-.26,1.19,7.62,7.62,0,0,1-.45,1.15,7.29,7.29,0,0,1-.64,1.07h-1a8.88,8.88,0,0,0,.95-2.21,9.1,9.1,0,0,0,.32-2.43,8.35,8.35,0,0,0-.33-2.34,10.1,10.1,0,0,0-.93-2.18Z"/><rect class="cls-2" x="23" y="395.5" width="178" height="28"/><g class="cls-3"><path class="cls-4" d="M201,395.5v28H23v-28H201m1-1H22v30H202v-30Z"/></g><path class="cls-6" d="M33.55,403.86v8.57H32v-8.57Z"/><path class="cls-6" d="M39,405.68a3.25,3.25,0,0,1,1.1.16,1.8,1.8,0,0,1,.74.49,2,2,0,0,1,.42.81,4.28,4.28,0,0,1,.13,1.12v4.17H40v-3.9a2.11,2.11,0,0,0-.32-1.27,1.19,1.19,0,0,0-1-.43,1.48,1.48,0,0,0-1.23.52A2.28,2.28,0,0,0,37,408.8v3.63H35.54v-6.57h1.38v1h0a2.14,2.14,0,0,1,.37-.5,2.24,2.24,0,0,1,.48-.37,2.34,2.34,0,0,1,.57-.23A2.51,2.51,0,0,1,39,405.68Z"/><path class="cls-6" d="M49.77,409.19a4.55,4.55,0,0,1-.08.85,4.15,4.15,0,0,1-.23.8,3.31,3.31,0,0,1-.4.71,2.59,2.59,0,0,1-.57.57,2.64,2.64,0,0,1-.73.37,2.87,2.87,0,0,1-.91.13,2.61,2.61,0,0,1-.63-.08,2.42,2.42,0,0,1-.58-.22,2.29,2.29,0,0,1-.5-.36,2,2,0,0,1-.38-.5h0v3.33H43.31v-8.93h1.37v1h0a2.08,2.08,0,0,1,.86-.88,2.59,2.59,0,0,1,1.23-.29,2.88,2.88,0,0,1,1.31.28,2.67,2.67,0,0,1,.93.76,3.3,3.3,0,0,1,.55,1.12A4.85,4.85,0,0,1,49.77,409.19Zm-1.45,0a3.92,3.92,0,0,0-.09-.83,2.38,2.38,0,0,0-.3-.76,1.72,1.72,0,0,0-.56-.56,1.57,1.57,0,0,0-.85-.22,1.6,1.6,0,0,0-1.35.61,2.82,2.82,0,0,0-.47,1.75,3.62,3.62,0,0,0,.1.84,2.34,2.34,0,0,0,.32.75,1.73,1.73,0,0,0,.57.54,1.64,1.64,0,0,0,.85.21,1.56,1.56,0,0,0,1.33-.66,2.17,2.17,0,0,0,.34-.74A3.75,3.75,0,0,0,48.33,409.15Z"/><path class="cls-6" d="M55.84,412.43v-1h0a2.25,2.25,0,0,1-.39.52,2.3,2.3,0,0,1-.5.37,2.49,2.49,0,0,1-.58.23,2.54,2.54,0,0,1-.64.08,2.3,2.3,0,0,1-1.78-.63,2.81,2.81,0,0,1-.57-1.95v-4.19h1.44v4a2.89,2.89,0,0,0,.08.7,1.37,1.37,0,0,0,.24.52,1,1,0,0,0,.42.32,1.82,1.82,0,0,0,1.36,0,1.37,1.37,0,0,0,.5-.43,1.86,1.86,0,0,0,.29-.66,3.72,3.72,0,0,0,.09-.85v-3.5h1.44v6.57Z"/><path class="cls-6" d="M62.38,412.48h-.83a4.59,4.59,0,0,1-.74-.06,1.58,1.58,0,0,1-.6-.22,1.12,1.12,0,0,1-.4-.45,1.67,1.67,0,0,1-.15-.76v-4.15H58.38v-1h1.29v-2h1.45v2h1.5v1h-1.5v3.72a.83.83,0,0,0,.17.58.8.8,0,0,0,.59.18h.57l.17,0v1.14Z"/><path class="cls-6" d="M70.77,412.48h-.83a4.59,4.59,0,0,1-.74-.06,1.58,1.58,0,0,1-.6-.22,1.12,1.12,0,0,1-.4-.45,1.67,1.67,0,0,1-.15-.76v-4.15H66.77v-1h1.29v-2H69.5v2H71v1H69.5v3.72a.83.83,0,0,0,.17.58.8.8,0,0,0,.59.18h.57l.17,0v1.14Z"/><path class="cls-6" d="M75.16,405.68a3,3,0,0,1,1.34.28,2.78,2.78,0,0,1,1,.77,3.33,3.33,0,0,1,.58,1.13,4.76,4.76,0,0,1,.19,1.37v.26H73.39a2.77,2.77,0,0,0,.13.81,1.9,1.9,0,0,0,.35.63,1.55,1.55,0,0,0,.54.41,1.7,1.7,0,0,0,.72.15,1.9,1.9,0,0,0,1-.23,1.7,1.7,0,0,0,.61-.6h1.37a3.06,3.06,0,0,1-.45.81,2.83,2.83,0,0,1-.66.62,3,3,0,0,1-.85.39,3.66,3.66,0,0,1-1,.13,3.28,3.28,0,0,1-1.33-.26,2.82,2.82,0,0,1-1-.72,3.18,3.18,0,0,1-.62-1.1,4.31,4.31,0,0,1-.22-1.4,4,4,0,0,1,.22-1.33,3.3,3.3,0,0,1,.63-1.1,3,3,0,0,1,1-.76A3.16,3.16,0,0,1,75.16,405.68Zm1.63,2.85a2.77,2.77,0,0,0-.16-.71,1.73,1.73,0,0,0-.33-.55,1.43,1.43,0,0,0-.5-.35,1.91,1.91,0,0,0-1.37,0,1.51,1.51,0,0,0-.52.36,1.79,1.79,0,0,0-.35.55,2.54,2.54,0,0,0-.17.7Z"/><path class="cls-6" d="M80.61,405.85l1.41,2,1.39-2H85L82.81,409l2.47,3.47H83.6L82,410.11l-1.61,2.32H78.72L81.15,409l-2.23-3.13Z"/><path class="cls-6" d="M89.64,412.48h-.83a4.59,4.59,0,0,1-.74-.06,1.58,1.58,0,0,1-.6-.22,1.12,1.12,0,0,1-.4-.45,1.67,1.67,0,0,1-.15-.76v-4.15H85.64v-1h1.29v-2h1.45v2h1.5v1h-1.5v3.72a.83.83,0,0,0,.17.58.8.8,0,0,0,.59.18h.57l.17,0v1.14Z"/><path class="cls-11" d="M26.6,376.58v2l1.85-.69.36,1-1.88.63,1.16,1.57-.86.63-1.17-1.63-1.14,1.63-.87-.63,1.18-1.57-1.85-.62.35-1,1.82.69v-2Z"/><path class="cls-7" d="M38.72,382.79a1.91,1.91,0,0,1-.42,1.28,1.5,1.5,0,0,1-.35.31,2.09,2.09,0,0,1-.46.21v0a1.43,1.43,0,0,1,.49.21,1.17,1.17,0,0,1,.33.35,1.63,1.63,0,0,1,.21.52,4.43,4.43,0,0,1,.08.57c0,.2,0,.4,0,.61a4,4,0,0,0,.08.62,1.38,1.38,0,0,0,.2.52H37.65a3.66,3.66,0,0,1-.19-1.12,2.66,2.66,0,0,0-.38-1.47,1.13,1.13,0,0,0-.88-.34h-2V388H33v-7.14h3.68a2.14,2.14,0,0,1,1.48.53A1.8,1.8,0,0,1,38.72,382.79Zm-1.25.2a1.09,1.09,0,0,0-.32-.86,1.3,1.3,0,0,0-.89-.28H34.21v2.29h2.05a1.27,1.27,0,0,0,.85-.27A1.08,1.08,0,0,0,37.47,383Z"/><path class="cls-7" d="M45.41,380.87v1.05H41.48v1.9h3.64v1H41.48V387h4v1H40.23v-7.13Z"/><path class="cls-7" d="M53.24,384.45a4.45,4.45,0,0,1-.24,1.46,3.46,3.46,0,0,1-.75,1.24l.93.8-.59.64-1-.89a2.94,2.94,0,0,1-.8.34,3.76,3.76,0,0,1-1,.12,3.19,3.19,0,0,1-2.52-1.06,4.28,4.28,0,0,1,0-5.36,3.51,3.51,0,0,1,5,0A3.9,3.9,0,0,1,53.24,384.45Zm-1.25,0a3.08,3.08,0,0,0-.58-2,2.14,2.14,0,0,0-3.25,0,3.53,3.53,0,0,0,0,3.87,1.75,1.75,0,0,0,.73.56,2.63,2.63,0,0,0,1,.18,1.87,1.87,0,0,0,.44,0,.92.92,0,0,0,.33-.14l-.9-.77.59-.65,1,.88a2.24,2.24,0,0,0,.46-.85A3.73,3.73,0,0,0,52,384.45Z"/><path class="cls-7" d="M55.73,380.86v4.48a1.89,1.89,0,0,0,.41,1.33,1.68,1.68,0,0,0,1.29.44,1.73,1.73,0,0,0,1.29-.42,1.87,1.87,0,0,0,.41-1.34v-4.48h1.25v4.53a2.74,2.74,0,0,1-.75,2,3,3,0,0,1-2.2.75,4,4,0,0,1-1.27-.19,2.35,2.35,0,0,1-1-.59,2.33,2.33,0,0,1-.54-.87,3.37,3.37,0,0,1-.18-1.13v-4.53Z"/><path class="cls-7" d="M63.29,380.86V388H62v-7.14Z"/><path class="cls-7" d="M70.78,382.79a1.91,1.91,0,0,1-.42,1.28,1.5,1.5,0,0,1-.35.31,2.09,2.09,0,0,1-.46.21v0a1.43,1.43,0,0,1,.49.21,1.17,1.17,0,0,1,.33.35,1.63,1.63,0,0,1,.21.52,4.43,4.43,0,0,1,.08.57c0,.2,0,.4,0,.61a4,4,0,0,0,.08.62,1.38,1.38,0,0,0,.2.52H69.7a3.66,3.66,0,0,1-.19-1.12,2.66,2.66,0,0,0-.38-1.47,1.13,1.13,0,0,0-.88-.34h-2V388H65v-7.14H68.7a2.14,2.14,0,0,1,1.48.53A1.8,1.8,0,0,1,70.78,382.79Zm-1.25.2a1.09,1.09,0,0,0-.32-.86,1.3,1.3,0,0,0-.89-.28H66.27v2.29h2.05a1.27,1.27,0,0,0,.85-.27A1.08,1.08,0,0,0,69.53,383Z"/><path class="cls-7" d="M77.47,380.87v1.05H73.53v1.9h3.64v1H73.53V387h4v1H72.28v-7.13Z"/><path class="cls-7" d="M81.64,380.86a3.18,3.18,0,0,1,2.37.9,3.63,3.63,0,0,1,.89,2.64,3.74,3.74,0,0,1-.88,2.67,3.09,3.09,0,0,1-2.35.92H78.78v-7.14Zm-.14,6.08a2.07,2.07,0,0,0,1.58-.59,2.62,2.62,0,0,0,.57-1.86,2.79,2.79,0,0,0-.58-2,2.34,2.34,0,0,0-1.78-.61H80v5Z"/><path class="cls-7" d="M94,380.86v1.05H90.4v2h3.14v1H90.4V388H89.15v-7.14Z"/><path class="cls-7" d="M96.35,380.86V388H95.1v-7.14Z"/><path class="cls-7" d="M103.26,380.87v1.05H99.32v1.9H103v1H99.32V387h4v1H98.07v-7.13Z"/><path class="cls-7" d="M105.82,380.86v6.08h3.67V388h-4.92v-7.14Z"/><path class="cls-7" d="M113.35,380.86a3.18,3.18,0,0,1,2.37.9,3.63,3.63,0,0,1,.89,2.64,3.74,3.74,0,0,1-.88,2.67,3.09,3.09,0,0,1-2.35.92h-2.89v-7.14Zm-.14,6.08a2.07,2.07,0,0,0,1.58-.59,2.62,2.62,0,0,0,.57-1.86,2.79,2.79,0,0,0-.58-2,2.34,2.34,0,0,0-1.78-.61h-1.25v5Z"/><path class="cls-7" d="M122.92,380.7a8.62,8.62,0,0,0-.94,2.19,9.16,9.16,0,0,0-.33,2.46,8.44,8.44,0,0,0,.32,2.32,9.39,9.39,0,0,0,.94,2.19H122a9.33,9.33,0,0,1-.61-1,8.55,8.55,0,0,1-.46-1.11,7.82,7.82,0,0,1-.29-1.16,7.23,7.23,0,0,1-.1-1.21,8.47,8.47,0,0,1,.08-1.19,8.15,8.15,0,0,1,.26-1.19,8,8,0,0,1,.45-1.15,7.48,7.48,0,0,1,.65-1.09Z"/><path class="cls-7" d="M129.27,386a2,2,0,0,1-.24,1,2,2,0,0,1-.65.68,2.89,2.89,0,0,1-.94.39,4.86,4.86,0,0,1-1.12.13,4.28,4.28,0,0,1-1.14-.14,2.81,2.81,0,0,1-.92-.43,2.06,2.06,0,0,1-.62-.7,2,2,0,0,1-.22-1v-.08h1.23v0a1.11,1.11,0,0,0,.14.56,1.17,1.17,0,0,0,.38.4,1.73,1.73,0,0,0,.56.24,2.89,2.89,0,0,0,.68.08,2.84,2.84,0,0,0,.64-.07,1.7,1.7,0,0,0,.52-.21,1.07,1.07,0,0,0,.35-.34.88.88,0,0,0,.13-.48.77.77,0,0,0-.31-.63,2.7,2.7,0,0,0-1-.42l-1.53-.41A2.36,2.36,0,0,1,124,384a1.68,1.68,0,0,1-.39-1.16,1.86,1.86,0,0,1,.21-.91,2,2,0,0,1,.58-.66,2.67,2.67,0,0,1,.86-.4,4,4,0,0,1,2,0,2.67,2.67,0,0,1,.85.38,1.94,1.94,0,0,1,.59.64,1.89,1.89,0,0,1,.23.91h-1.22a1,1,0,0,0-.13-.43,1.05,1.05,0,0,0-.31-.34,1.46,1.46,0,0,0-.46-.22,2.09,2.09,0,0,0-.59-.08,2.42,2.42,0,0,0-.55.06,1.44,1.44,0,0,0-.46.19,1,1,0,0,0-.31.32.88.88,0,0,0-.11.46.83.83,0,0,0,.06.33.68.68,0,0,0,.17.23.88.88,0,0,0,.26.16l.34.11,1.68.44a3.07,3.07,0,0,1,1.42.72A1.68,1.68,0,0,1,129.27,386Z"/><path class="cls-7" d="M135.37,380.86v1.05H133.1V388h-1.25v-6.08h-2.27v-1.05Z"/><path class="cls-7" d="M140.29,388l-.62-1.82h-3l-.62,1.82h-1.27l2.57-7.13h1.69L141.6,388Zm-2.07-6.21h0L137,385.23h2.33Z"/><path class="cls-7" d="M143.78,380.86l3.4,5.3h0v-5.3h1.19V388h-1.27l-3.4-5.3h0V388h-1.19v-7.14Z"/><path class="cls-7" d="M153,380.86a3.18,3.18,0,0,1,2.37.9,3.63,3.63,0,0,1,.89,2.64,3.74,3.74,0,0,1-.88,2.67A3.09,3.09,0,0,1,153,388h-2.89v-7.14Zm-.14,6.08a2.07,2.07,0,0,0,1.58-.59,2.62,2.62,0,0,0,.57-1.86,2.79,2.79,0,0,0-.58-2,2.34,2.34,0,0,0-1.78-.61h-1.25v5Z"/><path class="cls-7" d="M162,388l-.62-1.82h-3L157.8,388h-1.27l2.57-7.13h1.69L163.3,388Zm-2.07-6.21h0l-1.17,3.44h2.33Z"/><path class="cls-7" d="M170,382.79a1.91,1.91,0,0,1-.42,1.28,1.5,1.5,0,0,1-.35.31,2.09,2.09,0,0,1-.46.21v0a1.43,1.43,0,0,1,.49.21,1.17,1.17,0,0,1,.33.35,1.63,1.63,0,0,1,.21.52,4.43,4.43,0,0,1,.08.57c0,.2,0,.4,0,.61a4,4,0,0,0,.08.62,1.38,1.38,0,0,0,.2.52h-1.27a3.66,3.66,0,0,1-.19-1.12,2.66,2.66,0,0,0-.38-1.47,1.13,1.13,0,0,0-.88-.34h-2V388h-1.25v-7.14h3.68a2.14,2.14,0,0,1,1.48.53A1.8,1.8,0,0,1,170,382.79Zm-1.25.2a1.09,1.09,0,0,0-.32-.86,1.3,1.3,0,0,0-.89-.28h-2.05v2.29h2.05a1.27,1.27,0,0,0,.85-.27A1.08,1.08,0,0,0,168.73,383Z"/><path class="cls-7" d="M174.34,380.86a3.18,3.18,0,0,1,2.37.9,3.63,3.63,0,0,1,.89,2.64,3.74,3.74,0,0,1-.88,2.67,3.09,3.09,0,0,1-2.35.92h-2.89v-7.14Zm-.14,6.08a2.07,2.07,0,0,0,1.58-.59,2.62,2.62,0,0,0,.57-1.86,2.79,2.79,0,0,0-.58-2,2.34,2.34,0,0,0-1.78-.61h-1.25v5Z"/><path class="cls-7" d="M179.19,380.7a9.12,9.12,0,0,1,1.06,2.14,7.36,7.36,0,0,1,.39,2.4,8.38,8.38,0,0,1-.09,1.2,8,8,0,0,1-.26,1.19,7.62,7.62,0,0,1-.45,1.15,7.29,7.29,0,0,1-.64,1.07h-1a8.88,8.88,0,0,0,.95-2.21,9.1,9.1,0,0,0,.32-2.43,8.35,8.35,0,0,0-.33-2.34,10.1,10.1,0,0,0-.93-2.18Z"/><rect class="cls-12" x="23" y="275.5" width="178" height="28"/><g class="cls-13"><path class="cls-4" d="M201,275.5v28H23v-28H201m1-1H22v30H202v-30Z"/></g><path class="cls-6" d="M33,283.86v8.57h-.81v-8.57Z"/><path class="cls-6" d="M38.21,285.68a3.35,3.35,0,0,1,1.08.16,1.83,1.83,0,0,1,.74.46,1.87,1.87,0,0,1,.43.77,3.79,3.79,0,0,1,.14,1.08v4.28h-.8v-4.15a2.2,2.2,0,0,0-.41-1.44,1.54,1.54,0,0,0-1.25-.49,2.07,2.07,0,0,0-.86.17,1.88,1.88,0,0,0-.65.48,2.16,2.16,0,0,0-.41.71,2.63,2.63,0,0,0-.14.88v3.84h-.8v-6.56h.8V287h0a2,2,0,0,1,.35-.56,2.18,2.18,0,0,1,.49-.42,2.33,2.33,0,0,1,.6-.26A2.48,2.48,0,0,1,38.21,285.68Z"/><path class="cls-6" d="M48.84,289.15a4.77,4.77,0,0,1-.17,1.28,3.38,3.38,0,0,1-.53,1.11,2.69,2.69,0,0,1-.92.79,2.78,2.78,0,0,1-1.32.3,2.81,2.81,0,0,1-.71-.09,2.45,2.45,0,0,1-.65-.27,2.29,2.29,0,0,1-.54-.45,2.21,2.21,0,0,1-.38-.63h0v3.67h-.8v-9h.74v1.25h0a2.24,2.24,0,0,1,.39-.61,2.29,2.29,0,0,1,.55-.45,2.67,2.67,0,0,1,.67-.28,2.81,2.81,0,0,1,.74-.1,2.85,2.85,0,0,1,1.29.28,2.64,2.64,0,0,1,.92.75,3.32,3.32,0,0,1,.56,1.1A4.67,4.67,0,0,1,48.84,289.15Zm-.8,0a4.48,4.48,0,0,0-.11-1,2.84,2.84,0,0,0-.37-.9,2.07,2.07,0,0,0-.67-.66,1.9,1.9,0,0,0-1-.26,2.09,2.09,0,0,0-1.7.7,3.21,3.21,0,0,0-.58,2.09,4.2,4.2,0,0,0,.13,1,2.68,2.68,0,0,0,.4.9,2.1,2.1,0,0,0,.71.64,2.16,2.16,0,0,0,1.06.24,1.87,1.87,0,0,0,1-.24,2,2,0,0,0,.67-.63,2.87,2.87,0,0,0,.39-.9A4.14,4.14,0,0,0,48,289.15Z"/><path class="cls-6" d="M55.28,292.43v-1.18h0a2.48,2.48,0,0,1-.39.58,2.34,2.34,0,0,1-.52.43,2.47,2.47,0,0,1-.63.27,2.73,2.73,0,0,1-.72.09,2.21,2.21,0,0,1-1.74-.63,2.64,2.64,0,0,1-.56-1.82v-4.31h.8v4.28a2.67,2.67,0,0,0,.1.76,1.43,1.43,0,0,0,.31.57,1.33,1.33,0,0,0,.54.35,2.33,2.33,0,0,0,.79.12,1.7,1.7,0,0,0,.89-.23,1.92,1.92,0,0,0,.62-.59,2.62,2.62,0,0,0,.36-.83,3.9,3.9,0,0,0,.11-.94v-3.49H56v6.56Z"/><path class="cls-6" d="M60.83,292.49h-.66a3,3,0,0,1-.68-.06,1,1,0,0,1-.45-.23.89.89,0,0,1-.25-.43,2.65,2.65,0,0,1-.07-.68v-4.56H57.41v-.67h1.32v-2h.8v2H61v.67h-1.5V291a1.76,1.76,0,0,0,0,.34.64.64,0,0,0,.11.25.5.5,0,0,0,.21.16.87.87,0,0,0,.35.06h.6l.21,0v.68Z"/><path class="cls-6" d="M68.93,292.49h-.66a3,3,0,0,1-.68-.06,1,1,0,0,1-.45-.23.89.89,0,0,1-.25-.43,2.65,2.65,0,0,1-.07-.68v-4.56H65.51v-.67h1.32v-2h.8v2h1.5v.67h-1.5V291a1.76,1.76,0,0,0,0,.34.64.64,0,0,0,.11.25.5.5,0,0,0,.21.16.87.87,0,0,0,.35.06h.6l.21,0v.68Z"/><path class="cls-6" d="M73.29,285.68a2.71,2.71,0,0,1,1.3.29,2.6,2.6,0,0,1,.9.79,3.45,3.45,0,0,1,.52,1.13,5.21,5.21,0,0,1,.17,1.34v.13H71.13a3.58,3.58,0,0,0,.13.94,2.59,2.59,0,0,0,.39.83,2,2,0,0,0,.66.59,1.92,1.92,0,0,0,.95.22,2.44,2.44,0,0,0,.7-.09,2,2,0,0,0,.56-.26,1.76,1.76,0,0,0,.42-.39,2.41,2.41,0,0,0,.29-.49H76a3,3,0,0,1-.38.79,2.48,2.48,0,0,1-.59.6,2.68,2.68,0,0,1-.79.39,3.34,3.34,0,0,1-1,.14,2.94,2.94,0,0,1-1.3-.27,2.56,2.56,0,0,1-.91-.73,3.12,3.12,0,0,1-.54-1.1,5.14,5.14,0,0,1-.18-1.37,4.66,4.66,0,0,1,.18-1.28,3.36,3.36,0,0,1,.54-1.11A2.74,2.74,0,0,1,72,286,2.79,2.79,0,0,1,73.29,285.68Zm2.09,3a3,3,0,0,0-.16-.85,2.44,2.44,0,0,0-.41-.75,2.07,2.07,0,0,0-.65-.54,1.84,1.84,0,0,0-.88-.21,1.84,1.84,0,0,0-1.5.7,2.7,2.7,0,0,0-.42.75,4.31,4.31,0,0,0-.23.9Z"/><path class="cls-6" d="M78,285.87l1.87,2.5,1.83-2.5h1L80.35,289l2.56,3.42h-1l-2.06-2.76-2,2.76h-1L79.36,289,77,285.87Z"/><path class="cls-6" d="M86.86,292.49H86.2a3,3,0,0,1-.68-.06,1,1,0,0,1-.45-.23.89.89,0,0,1-.25-.43,2.65,2.65,0,0,1-.07-.68v-4.56H83.44v-.67h1.32v-2h.8v2h1.5v.67h-1.5V291a1.76,1.76,0,0,0,0,.34.64.64,0,0,0,.11.25.5.5,0,0,0,.21.16.87.87,0,0,0,.35.06h.6l.21,0v.68Z"/><path class="cls-7" d="M29.62,262.79a1.91,1.91,0,0,1-.42,1.28,1.5,1.5,0,0,1-.35.31,2.09,2.09,0,0,1-.46.21v0a1.43,1.43,0,0,1,.49.21,1.17,1.17,0,0,1,.33.35,1.63,1.63,0,0,1,.21.52,4.43,4.43,0,0,1,.08.57c0,.2,0,.4,0,.61a4,4,0,0,0,.08.62,1.38,1.38,0,0,0,.2.52H28.54a3.66,3.66,0,0,1-.19-1.12,2.66,2.66,0,0,0-.38-1.47,1.13,1.13,0,0,0-.88-.34h-2V268H23.85v-7.14h3.68a2.14,2.14,0,0,1,1.48.53A1.8,1.8,0,0,1,29.62,262.79Zm-1.25.2a1.09,1.09,0,0,0-.32-.86,1.3,1.3,0,0,0-.89-.28H25.1v2.29h2.05a1.27,1.27,0,0,0,.85-.27A1.08,1.08,0,0,0,28.37,263Z"/><path class="cls-7" d="M36.31,260.87v1.05H32.37v1.9H36v1H32.37V267h4v1H31.12v-7.13Z"/><path class="cls-7" d="M42.31,268l-.62-1.82h-3L38.11,268H36.83l2.57-7.13h1.69L43.61,268Zm-2.07-6.21h0L39,265.23h2.33Z"/><path class="cls-7" d="M47.38,260.86a3.18,3.18,0,0,1,2.37.9,3.63,3.63,0,0,1,.89,2.64,3.74,3.74,0,0,1-.88,2.67,3.09,3.09,0,0,1-2.35.92H44.53v-7.14Zm-.14,6.08a2.07,2.07,0,0,0,1.58-.59,2.62,2.62,0,0,0,.57-1.86,2.79,2.79,0,0,0-.58-2,2.34,2.34,0,0,0-1.78-.61H45.78v5Z"/><path class="cls-7" d="M54.51,264.61v1H51.69v-1Z"/><path class="cls-7" d="M62.44,264.45a3.85,3.85,0,0,1-.95,2.66A3.21,3.21,0,0,1,59,268.17a3.63,3.63,0,0,1-1.37-.24,3.23,3.23,0,0,1-1.1-.75,3.35,3.35,0,0,1-.75-1.22,4.46,4.46,0,0,1-.25-1.51,3.9,3.9,0,0,1,.95-2.7A3.21,3.21,0,0,1,59,260.7a3.7,3.7,0,0,1,1.37.25,3,3,0,0,1,1.1.76,3.34,3.34,0,0,1,.74,1.24A4.74,4.74,0,0,1,62.44,264.45Zm-1.25,0a3.07,3.07,0,0,0-.59-2,2.14,2.14,0,0,0-3.25,0,3.08,3.08,0,0,0-.58,2,3,3,0,0,0,.58,1.91,2.16,2.16,0,0,0,3.26,0A3,3,0,0,0,61.19,264.45Z"/><path class="cls-7" d="M65,260.86l3.4,5.3h0v-5.3h1.19V268H68.34l-3.4-5.3h0V268H63.73v-7.14Z"/><path class="cls-7" d="M72.57,260.86v6.08h3.67V268H71.32v-7.14Z"/><path class="cls-7" d="M76.87,260.86l1.92,3.2,1.9-3.2h1.41l-2.71,4.33V268H78.15v-2.84l-2.7-4.3Z"/><rect class="cls-14" x="243" y="215.5" width="178" height="28"/><g class="cls-13"><path class="cls-4" d="M421,215.5v28H243v-28H421m1-1H242v30H422v-30Z"/></g><g class="cls-13"><path class="cls-6" d="M258.25,223.87v1.27h-4.72v2.28h4.37v1.19h-4.37v2.56h4.8v1.26H252v-8.55Z"/><path class="cls-6" d="M268,232.43v-4a3.44,3.44,0,0,0-.05-.62,1.26,1.26,0,0,0-.19-.49,1,1,0,0,0-.39-.32,1.48,1.48,0,0,0-.63-.12,1.24,1.24,0,0,0-1.06.47,2.29,2.29,0,0,0-.35,1.38v3.74h-1.45v-4.21a1.64,1.64,0,0,0-.28-1,1.1,1.1,0,0,0-.91-.35,1.34,1.34,0,0,0-1.08.48,2,2,0,0,0-.4,1.31v3.81H259.8v-6.57h1.36v1h0a2.31,2.31,0,0,1,2.06-1.15,2.27,2.27,0,0,1,1.2.3,1.71,1.71,0,0,1,.71.86A2.45,2.45,0,0,1,266,226a2.21,2.21,0,0,1,3.47,2v4.48Z"/><path class="cls-6" d="M277.9,229.19a4.55,4.55,0,0,1-.08.85,4.15,4.15,0,0,1-.23.8,3.31,3.31,0,0,1-.4.71,2.59,2.59,0,0,1-.57.57,2.64,2.64,0,0,1-.73.37,2.87,2.87,0,0,1-.91.13,2.61,2.61,0,0,1-.63-.08,2.42,2.42,0,0,1-.58-.22,2.29,2.29,0,0,1-.5-.36,2,2,0,0,1-.38-.5h0v3.33h-1.44v-8.93h1.37v1h0a2.08,2.08,0,0,1,.86-.88,2.59,2.59,0,0,1,1.23-.29,2.88,2.88,0,0,1,1.31.28,2.67,2.67,0,0,1,.93.76,3.3,3.3,0,0,1,.55,1.12A4.85,4.85,0,0,1,277.9,229.19Zm-1.45,0a3.92,3.92,0,0,0-.09-.83,2.38,2.38,0,0,0-.3-.76,1.72,1.72,0,0,0-.56-.56,1.57,1.57,0,0,0-.85-.22,1.6,1.6,0,0,0-1.35.61,2.82,2.82,0,0,0-.47,1.75,3.62,3.62,0,0,0,.1.84,2.34,2.34,0,0,0,.32.75,1.73,1.73,0,0,0,.57.54,1.64,1.64,0,0,0,.85.21,1.56,1.56,0,0,0,1.33-.66,2.17,2.17,0,0,0,.34-.74A3.75,3.75,0,0,0,276.45,229.15Z"/><path class="cls-6" d="M282.75,232.48h-.83a4.59,4.59,0,0,1-.74-.06,1.58,1.58,0,0,1-.6-.22,1.12,1.12,0,0,1-.4-.45A1.67,1.67,0,0,1,280,231v-4.15h-1.29v-1H280v-2h1.45v2H283v1h-1.5v3.72a.83.83,0,0,0,.17.58.8.8,0,0,0,.59.18h.57l.17,0v1.14Z"/><path class="cls-6" d="M285.06,225.85l1.73,5h0l1.64-5h1.49l-2.81,7.52a3,3,0,0,1-.29.59,1.79,1.79,0,0,1-.4.44,1.71,1.71,0,0,1-.54.28,2.43,2.43,0,0,1-.72.1l-.54,0-.46,0v-1.2l.45.05H285a1,1,0,0,0,.4-.07.76.76,0,0,0,.28-.21,1.39,1.39,0,0,0,.21-.36q.09-.22.18-.52l-2.53-6.57Z"/><path class="cls-6" d="M297.76,232.48h-.83a4.59,4.59,0,0,1-.74-.06,1.58,1.58,0,0,1-.6-.22,1.12,1.12,0,0,1-.4-.45A1.67,1.67,0,0,1,295,231v-4.15h-1.29v-1H295v-2h1.45v2H298v1h-1.5v3.72a.83.83,0,0,0,.17.58.8.8,0,0,0,.59.18h.57l.17,0v1.14Z"/><path class="cls-6" d="M302.15,225.68a3,3,0,0,1,1.34.28,2.78,2.78,0,0,1,1,.77,3.33,3.33,0,0,1,.58,1.13,4.76,4.76,0,0,1,.19,1.37v.26h-4.85a2.77,2.77,0,0,0,.13.81,1.9,1.9,0,0,0,.35.63,1.55,1.55,0,0,0,.54.41,1.7,1.7,0,0,0,.72.15,1.9,1.9,0,0,0,1-.23,1.7,1.7,0,0,0,.61-.6h1.37a3.06,3.06,0,0,1-.45.81,2.83,2.83,0,0,1-.66.62,3,3,0,0,1-.85.39,3.66,3.66,0,0,1-1,.13,3.28,3.28,0,0,1-1.33-.26,2.82,2.82,0,0,1-1-.72,3.18,3.18,0,0,1-.62-1.1,4.31,4.31,0,0,1-.22-1.4,4,4,0,0,1,.22-1.33,3.3,3.3,0,0,1,.63-1.1,3,3,0,0,1,1-.76A3.16,3.16,0,0,1,302.15,225.68Zm1.63,2.85a2.77,2.77,0,0,0-.16-.71,1.73,1.73,0,0,0-.33-.55,1.43,1.43,0,0,0-.5-.35,1.91,1.91,0,0,0-1.37,0,1.51,1.51,0,0,0-.52.36,1.79,1.79,0,0,0-.35.55,2.54,2.54,0,0,0-.17.7Z"/><path class="cls-6" d="M307.6,225.85l1.41,2,1.39-2H312L309.81,229l2.47,3.47h-1.69L309,230.11l-1.61,2.32h-1.66l2.43-3.44-2.23-3.13Z"/><path class="cls-6" d="M316.63,232.48h-.83a4.59,4.59,0,0,1-.74-.06,1.58,1.58,0,0,1-.6-.22,1.12,1.12,0,0,1-.4-.45,1.67,1.67,0,0,1-.15-.76v-4.15h-1.29v-1h1.29v-2h1.45v2h1.5v1h-1.5v3.72a.83.83,0,0,0,.17.58.8.8,0,0,0,.59.18h.57l.17,0v1.14Z"/><path class="cls-6" d="M323.67,226.87v5.55h-1.45v-5.55h-1.28v-1h1.28v-.51a2,2,0,0,1,.52-1.52,1.64,1.64,0,0,1,.63-.36,3,3,0,0,1,.9-.12h.43l.52,0v1.11l-.18,0-.2,0h-.34a.86.86,0,0,0-.65.2,1,1,0,0,0-.18.68v.51h1.44v1Zm3.87-3.88v1.42H326.1V223Zm0,2.86v6.57H326.1v-6.57Z"/><path class="cls-6" d="M332.33,225.68a3,3,0,0,1,1.34.28,2.78,2.78,0,0,1,1,.77,3.33,3.33,0,0,1,.58,1.13,4.76,4.76,0,0,1,.19,1.37v.26h-4.85a2.77,2.77,0,0,0,.13.81,1.9,1.9,0,0,0,.35.63,1.55,1.55,0,0,0,.54.41,1.7,1.7,0,0,0,.72.15,1.9,1.9,0,0,0,1-.23,1.7,1.7,0,0,0,.61-.6h1.37a3.06,3.06,0,0,1-.45.81,2.83,2.83,0,0,1-.66.62,3,3,0,0,1-.85.39,3.66,3.66,0,0,1-1,.13,3.28,3.28,0,0,1-1.33-.26,2.82,2.82,0,0,1-1-.72,3.18,3.18,0,0,1-.62-1.1,4.31,4.31,0,0,1-.22-1.4,4,4,0,0,1,.22-1.33,3.3,3.3,0,0,1,.63-1.1,3,3,0,0,1,1-.76A3.16,3.16,0,0,1,332.33,225.68Zm1.63,2.85a2.77,2.77,0,0,0-.16-.71,1.73,1.73,0,0,0-.33-.55,1.43,1.43,0,0,0-.5-.35,1.91,1.91,0,0,0-1.37,0,1.51,1.51,0,0,0-.52.36,1.79,1.79,0,0,0-.35.55,2.54,2.54,0,0,0-.17.7Z"/><path class="cls-6" d="M338.42,223.35v9.08H337v-9.08Z"/><path class="cls-6" d="M346.51,223.35v9.08h-1.37v-1h0a2.07,2.07,0,0,1-.37.5,2.16,2.16,0,0,1-.49.37,2.44,2.44,0,0,1-.59.23,2.79,2.79,0,0,1-.67.08,2.72,2.72,0,0,1-1.28-.29,2.76,2.76,0,0,1-.92-.77,3.38,3.38,0,0,1-.56-1.12,4.69,4.69,0,0,1-.19-1.33,4.52,4.52,0,0,1,.18-1.26,3.34,3.34,0,0,1,.54-1.1,2.75,2.75,0,0,1,.91-.77,2.91,2.91,0,0,1,1.92-.22,2.49,2.49,0,0,1,.58.21,2.07,2.07,0,0,1,.49.35,2,2,0,0,1,.37.5h0v-3.47Zm-5,5.79a3.63,3.63,0,0,0,.1.82,2.44,2.44,0,0,0,.31.76,1.81,1.81,0,0,0,.56.56,1.5,1.5,0,0,0,.83.22,1.73,1.73,0,0,0,.79-.17,1.58,1.58,0,0,0,.57-.49,2.25,2.25,0,0,0,.35-.75,3.68,3.68,0,0,0,.12-1,3.73,3.73,0,0,0-.1-.84,2.3,2.3,0,0,0-.31-.75,1.72,1.72,0,0,0-.57-.54,1.64,1.64,0,0,0-.85-.21,1.56,1.56,0,0,0-.82.2,1.7,1.7,0,0,0-.55.53,2.35,2.35,0,0,0-.32.75A3.93,3.93,0,0,0,341.49,229.14Z"/><path class="cls-6" d="M353.4,223.35v9.08H352v-9.08Z"/><path class="cls-6" d="M361.48,232.43l-.44.09-.39,0a1.79,1.79,0,0,1-.42,0,.91.91,0,0,1-.34-.16.84.84,0,0,1-.24-.29,1.28,1.28,0,0,1-.12-.45h0a2.67,2.67,0,0,1-.45.46,2.3,2.3,0,0,1-.52.31,3.32,3.32,0,0,1-1.31.24,2.42,2.42,0,0,1-1.62-.51,1.77,1.77,0,0,1-.6-1.45,1.7,1.7,0,0,1,.6-1.42,2.11,2.11,0,0,1,.58-.32,4.68,4.68,0,0,1,.73-.2q.39-.08.82-.13l.87-.1.34-.07a.8.8,0,0,0,.27-.13.59.59,0,0,0,.17-.22.79.79,0,0,0,.06-.33,1,1,0,0,0-.31-.79,2.11,2.11,0,0,0-2.05,0,1,1,0,0,0-.39.73h-1.45a2,2,0,0,1,.28-.9,2,2,0,0,1,.62-.62,2.88,2.88,0,0,1,.9-.36,5.08,5.08,0,0,1,1.13-.12,3.42,3.42,0,0,1,2,.5,1.65,1.65,0,0,1,.67,1.41v3.54a.47.47,0,0,0,.08.3.33.33,0,0,0,.27.1h.12l.13,0Zm-2-3.35h0a1,1,0,0,1-.54.23l-.48.08-.65.11a2.2,2.2,0,0,0-1,.37.87.87,0,0,0-.32.72.89.89,0,0,0,.37.76,1.48,1.48,0,0,0,.87.24,1.79,1.79,0,0,0,1.27-.43,1.59,1.59,0,0,0,.49-1.24Z"/><path class="cls-6" d="M369.27,229.14a4.85,4.85,0,0,1-.17,1.28,3.47,3.47,0,0,1-.52,1.11,2.65,2.65,0,0,1-.88.79,2.51,2.51,0,0,1-1.25.3,2.93,2.93,0,0,1-1.36-.3,1.9,1.9,0,0,1-.86-.87h0v1h-1.37v-9.08h1.44v3.47h0a1.88,1.88,0,0,1,.36-.47,2.16,2.16,0,0,1,.5-.36,2.68,2.68,0,0,1,.61-.23,2.85,2.85,0,0,1,.68-.08,2.52,2.52,0,0,1,1.24.29,2.66,2.66,0,0,1,.88.78,3.4,3.4,0,0,1,.52,1.11A4.87,4.87,0,0,1,369.27,229.14Zm-1.45,0a3.74,3.74,0,0,0-.09-.82,2.52,2.52,0,0,0-.3-.76,1.71,1.71,0,0,0-.54-.56,1.5,1.5,0,0,0-.83-.22,1.57,1.57,0,0,0-.82.21,1.71,1.71,0,0,0-.56.54,2.39,2.39,0,0,0-.32.75,3.63,3.63,0,0,0-.1.86,3.68,3.68,0,0,0,.1.83,2.37,2.37,0,0,0,.31.76,1.76,1.76,0,0,0,.56.55,1.57,1.57,0,0,0,.84.21,1.49,1.49,0,0,0,.8-.21,1.69,1.69,0,0,0,.54-.54,2.43,2.43,0,0,0,.31-.75A3.94,3.94,0,0,0,367.82,229.15Z"/><path class="cls-6" d="M373.73,225.68a3,3,0,0,1,1.34.28,2.78,2.78,0,0,1,1,.77,3.33,3.33,0,0,1,.58,1.13,4.76,4.76,0,0,1,.19,1.37v.26H372a2.77,2.77,0,0,0,.13.81,1.9,1.9,0,0,0,.35.63,1.55,1.55,0,0,0,.54.41,1.7,1.7,0,0,0,.72.15,1.9,1.9,0,0,0,1-.23,1.7,1.7,0,0,0,.61-.6h1.37a3.06,3.06,0,0,1-.45.81,2.83,2.83,0,0,1-.66.62,3,3,0,0,1-.85.39,3.66,3.66,0,0,1-1,.13,3.28,3.28,0,0,1-1.33-.26,2.82,2.82,0,0,1-1-.72,3.18,3.18,0,0,1-.62-1.1,4.31,4.31,0,0,1-.22-1.4,4,4,0,0,1,.22-1.33,3.3,3.3,0,0,1,.63-1.1,3,3,0,0,1,1-.76A3.16,3.16,0,0,1,373.73,225.68Zm1.63,2.85a2.77,2.77,0,0,0-.16-.71,1.73,1.73,0,0,0-.33-.55,1.43,1.43,0,0,0-.5-.35,1.91,1.91,0,0,0-1.37,0,1.51,1.51,0,0,0-.52.36,1.79,1.79,0,0,0-.35.55,2.54,2.54,0,0,0-.17.7Z"/><path class="cls-6" d="M379.81,223.35v9.08h-1.45v-9.08Z"/></g><path class="cls-7" d="M246.71,200.86a3.18,3.18,0,0,1,2.37.9,3.63,3.63,0,0,1,.89,2.64,3.74,3.74,0,0,1-.88,2.67,3.09,3.09,0,0,1-2.35.92h-2.89v-7.14Zm-.14,6.08a2.07,2.07,0,0,0,1.58-.59,2.62,2.62,0,0,0,.57-1.86,2.79,2.79,0,0,0-.58-2,2.34,2.34,0,0,0-1.78-.61H245.1v5Z"/><path class="cls-7" d="M252.58,200.86V208h-1.25v-7.14Z"/><path class="cls-7" d="M259.66,206a2,2,0,0,1-.24,1,2,2,0,0,1-.65.68,2.89,2.89,0,0,1-.94.39,4.86,4.86,0,0,1-1.12.13,4.28,4.28,0,0,1-1.14-.14,2.81,2.81,0,0,1-.92-.43,2.06,2.06,0,0,1-.62-.7,2,2,0,0,1-.22-1v-.08H255v0a1.11,1.11,0,0,0,.14.56,1.17,1.17,0,0,0,.38.4,1.73,1.73,0,0,0,.56.24,2.89,2.89,0,0,0,.68.08,2.84,2.84,0,0,0,.64-.07,1.7,1.7,0,0,0,.52-.21,1.07,1.07,0,0,0,.35-.34.88.88,0,0,0,.13-.48.77.77,0,0,0-.31-.63,2.7,2.7,0,0,0-1-.42l-1.53-.41a2.36,2.36,0,0,1-1.2-.65,1.68,1.68,0,0,1-.39-1.16,1.86,1.86,0,0,1,.21-.91,2,2,0,0,1,.58-.66,2.67,2.67,0,0,1,.86-.4,4,4,0,0,1,2,0,2.67,2.67,0,0,1,.85.38,1.94,1.94,0,0,1,.59.64,1.89,1.89,0,0,1,.23.91h-1.22a1,1,0,0,0-.13-.43,1.05,1.05,0,0,0-.31-.34,1.46,1.46,0,0,0-.46-.22,2.09,2.09,0,0,0-.59-.08,2.42,2.42,0,0,0-.55.06,1.44,1.44,0,0,0-.46.19,1,1,0,0,0-.31.32.88.88,0,0,0-.11.46.83.83,0,0,0,.06.33.68.68,0,0,0,.17.23.88.88,0,0,0,.26.16l.34.11,1.68.44a3.07,3.07,0,0,1,1.42.72A1.68,1.68,0,0,1,259.66,206Z"/><path class="cls-7" d="M265.55,208l-.62-1.82h-3l-.62,1.82h-1.27l2.57-7.13h1.69l2.52,7.13Zm-2.07-6.21h0l-1.17,3.44h2.33Z"/><path class="cls-7" d="M273.61,205.94a2,2,0,0,1-.19.89,1.8,1.8,0,0,1-.52.64,2.31,2.31,0,0,1-.79.39,3.56,3.56,0,0,1-1,.13h-3.35v-7.14h3.29a3.94,3.94,0,0,1,.92.1,2,2,0,0,1,.7.31,1.41,1.41,0,0,1,.45.55,1.87,1.87,0,0,1,.16.8,1.57,1.57,0,0,1-.28.95,1.69,1.69,0,0,1-.79.58h0a2.1,2.1,0,0,1,.61.25,1.49,1.49,0,0,1,.43.39,1.68,1.68,0,0,1,.25.52A2.13,2.13,0,0,1,273.61,205.94Zm-1.53-3.09a.9.9,0,0,0-.32-.76,1.51,1.51,0,0,0-.93-.24H269v2h1.89a1.65,1.65,0,0,0,.45-.06,1.11,1.11,0,0,0,.37-.18.85.85,0,0,0,.25-.31A1.08,1.08,0,0,0,272.08,202.86Zm.28,3A1,1,0,0,0,272,205a1.59,1.59,0,0,0-1-.29h-2V207h2a1.62,1.62,0,0,0,1-.28A1,1,0,0,0,272.36,205.88Z"/><path class="cls-7" d="M276.17,200.86v6.08h3.67V208h-4.92v-7.14Z"/><path class="cls-7" d="M286,200.87v1.05h-3.94v1.9h3.64v1h-3.64V207h4v1h-5.25v-7.13Z"/><path class="cls-7" d="M290.2,200.86a3.18,3.18,0,0,1,2.37.9,3.63,3.63,0,0,1,.89,2.64,3.74,3.74,0,0,1-.88,2.67,3.09,3.09,0,0,1-2.35.92h-2.89v-7.14Zm-.14,6.08a2.07,2.07,0,0,0,1.58-.59,2.62,2.62,0,0,0,.57-1.86,2.79,2.79,0,0,0-.58-2,2.34,2.34,0,0,0-1.78-.61h-1.25v5Z"/><rect class="cls-14" x="23" y="215.5" width="178" height="28"/><g class="cls-13"><path class="cls-4" d="M201,215.5v28H23v-28H201m1-1H22v30H202v-30Z"/></g><g class="cls-5"><path class="cls-6" d="M33.55,223.86v8.57H32v-8.57Z"/><path class="cls-6" d="M39,225.68a3.25,3.25,0,0,1,1.1.16,1.8,1.8,0,0,1,.74.49,2,2,0,0,1,.42.81,4.28,4.28,0,0,1,.13,1.12v4.17H40v-3.9a2.11,2.11,0,0,0-.32-1.27,1.19,1.19,0,0,0-1-.43,1.48,1.48,0,0,0-1.23.52A2.28,2.28,0,0,0,37,228.8v3.63H35.54v-6.57h1.38v1h0a2.14,2.14,0,0,1,.37-.5,2.24,2.24,0,0,1,.48-.37,2.34,2.34,0,0,1,.57-.23A2.51,2.51,0,0,1,39,225.68Z"/><path class="cls-6" d="M49.77,229.19a4.55,4.55,0,0,1-.08.85,4.15,4.15,0,0,1-.23.8,3.31,3.31,0,0,1-.4.71,2.59,2.59,0,0,1-.57.57,2.64,2.64,0,0,1-.73.37,2.87,2.87,0,0,1-.91.13,2.61,2.61,0,0,1-.63-.08,2.42,2.42,0,0,1-.58-.22,2.29,2.29,0,0,1-.5-.36,2,2,0,0,1-.38-.5h0v3.33H43.31v-8.93h1.37v1h0a2.08,2.08,0,0,1,.86-.88,2.59,2.59,0,0,1,1.23-.29,2.88,2.88,0,0,1,1.31.28,2.67,2.67,0,0,1,.93.76,3.3,3.3,0,0,1,.55,1.12A4.85,4.85,0,0,1,49.77,229.19Zm-1.45,0a3.92,3.92,0,0,0-.09-.83,2.38,2.38,0,0,0-.3-.76,1.72,1.72,0,0,0-.56-.56,1.57,1.57,0,0,0-.85-.22,1.6,1.6,0,0,0-1.35.61,2.82,2.82,0,0,0-.47,1.75,3.62,3.62,0,0,0,.1.84,2.34,2.34,0,0,0,.32.75,1.73,1.73,0,0,0,.57.54,1.64,1.64,0,0,0,.85.21,1.56,1.56,0,0,0,1.33-.66,2.17,2.17,0,0,0,.34-.74A3.75,3.75,0,0,0,48.33,229.15Z"/><path class="cls-6" d="M55.84,232.43v-1h0a2.25,2.25,0,0,1-.39.52,2.3,2.3,0,0,1-.5.37,2.49,2.49,0,0,1-.58.23,2.54,2.54,0,0,1-.64.08,2.3,2.3,0,0,1-1.78-.63,2.81,2.81,0,0,1-.57-1.95v-4.19h1.44v4a2.89,2.89,0,0,0,.08.7,1.37,1.37,0,0,0,.24.52,1,1,0,0,0,.42.32,1.82,1.82,0,0,0,1.36,0,1.37,1.37,0,0,0,.5-.43,1.86,1.86,0,0,0,.29-.66,3.72,3.72,0,0,0,.09-.85v-3.5h1.44v6.57Z"/><path class="cls-6" d="M62.38,232.48h-.83a4.59,4.59,0,0,1-.74-.06,1.58,1.58,0,0,1-.6-.22,1.12,1.12,0,0,1-.4-.45,1.67,1.67,0,0,1-.15-.76v-4.15H58.38v-1h1.29v-2h1.45v2h1.5v1h-1.5v3.72a.83.83,0,0,0,.17.58.8.8,0,0,0,.59.18h.57l.17,0v1.14Z"/><path class="cls-6" d="M70.77,232.48h-.83a4.59,4.59,0,0,1-.74-.06,1.58,1.58,0,0,1-.6-.22,1.12,1.12,0,0,1-.4-.45,1.67,1.67,0,0,1-.15-.76v-4.15H66.77v-1h1.29v-2H69.5v2H71v1H69.5v3.72a.83.83,0,0,0,.17.58.8.8,0,0,0,.59.18h.57l.17,0v1.14Z"/><path class="cls-6" d="M75.16,225.68a3,3,0,0,1,1.34.28,2.78,2.78,0,0,1,1,.77,3.33,3.33,0,0,1,.58,1.13,4.76,4.76,0,0,1,.19,1.37v.26H73.39a2.77,2.77,0,0,0,.13.81,1.9,1.9,0,0,0,.35.63,1.55,1.55,0,0,0,.54.41,1.7,1.7,0,0,0,.72.15,1.9,1.9,0,0,0,1-.23,1.7,1.7,0,0,0,.61-.6h1.37a3.06,3.06,0,0,1-.45.81,2.83,2.83,0,0,1-.66.62,3,3,0,0,1-.85.39,3.66,3.66,0,0,1-1,.13,3.28,3.28,0,0,1-1.33-.26,2.82,2.82,0,0,1-1-.72,3.18,3.18,0,0,1-.62-1.1,4.31,4.31,0,0,1-.22-1.4,4,4,0,0,1,.22-1.33,3.3,3.3,0,0,1,.63-1.1,3,3,0,0,1,1-.76A3.16,3.16,0,0,1,75.16,225.68Zm1.63,2.85a2.77,2.77,0,0,0-.16-.71,1.73,1.73,0,0,0-.33-.55,1.43,1.43,0,0,0-.5-.35,1.91,1.91,0,0,0-1.37,0,1.51,1.51,0,0,0-.52.36,1.79,1.79,0,0,0-.35.55,2.54,2.54,0,0,0-.17.7Z"/><path class="cls-6" d="M80.61,225.85l1.41,2,1.39-2H85L82.81,229l2.47,3.47H83.6L82,230.11l-1.61,2.32H78.72L81.15,229l-2.23-3.13Z"/><path class="cls-6" d="M89.64,232.48h-.83a4.59,4.59,0,0,1-.74-.06,1.58,1.58,0,0,1-.6-.22,1.12,1.12,0,0,1-.4-.45,1.67,1.67,0,0,1-.15-.76v-4.15H85.64v-1h1.29v-2h1.45v2h1.5v1h-1.5v3.72a.83.83,0,0,0,.17.58.8.8,0,0,0,.59.18h.57l.17,0v1.14Z"/></g><path class="cls-7" d="M26.71,200.86a3.18,3.18,0,0,1,2.37.9,3.63,3.63,0,0,1,.89,2.64,3.74,3.74,0,0,1-.88,2.67,3.09,3.09,0,0,1-2.35.92H23.85v-7.14Zm-.14,6.08a2.07,2.07,0,0,0,1.58-.59,2.62,2.62,0,0,0,.57-1.86,2.79,2.79,0,0,0-.58-2,2.34,2.34,0,0,0-1.78-.61H25.1v5Z"/><path class="cls-7" d="M32.58,200.86V208H31.33v-7.14Z"/><path class="cls-7" d="M39.66,206a2,2,0,0,1-.24,1,2,2,0,0,1-.65.68,2.89,2.89,0,0,1-.94.39,4.86,4.86,0,0,1-1.12.13,4.28,4.28,0,0,1-1.14-.14,2.81,2.81,0,0,1-.92-.43,2.06,2.06,0,0,1-.62-.7,2,2,0,0,1-.22-1v-.08H35v0a1.11,1.11,0,0,0,.14.56,1.17,1.17,0,0,0,.38.4,1.73,1.73,0,0,0,.56.24,2.89,2.89,0,0,0,.68.08,2.84,2.84,0,0,0,.64-.07,1.7,1.7,0,0,0,.52-.21,1.07,1.07,0,0,0,.35-.34.88.88,0,0,0,.13-.48.77.77,0,0,0-.31-.63,2.7,2.7,0,0,0-1-.42l-1.53-.41a2.36,2.36,0,0,1-1.2-.65A1.68,1.68,0,0,1,34,202.8a1.86,1.86,0,0,1,.21-.91,2,2,0,0,1,.58-.66,2.67,2.67,0,0,1,.86-.4,4,4,0,0,1,2,0,2.67,2.67,0,0,1,.85.38,1.94,1.94,0,0,1,.59.64,1.89,1.89,0,0,1,.23.91H38.18a1,1,0,0,0-.13-.43,1.05,1.05,0,0,0-.31-.34,1.46,1.46,0,0,0-.46-.22,2.09,2.09,0,0,0-.59-.08,2.42,2.42,0,0,0-.55.06,1.44,1.44,0,0,0-.46.19,1,1,0,0,0-.31.32.88.88,0,0,0-.11.46.83.83,0,0,0,.06.33.68.68,0,0,0,.17.23.88.88,0,0,0,.26.16l.34.11,1.68.44a3.07,3.07,0,0,1,1.42.72A1.68,1.68,0,0,1,39.66,206Z"/><path class="cls-7" d="M45.55,208l-.62-1.82H42L41.35,208H40.08l2.57-7.13h1.69L46.86,208Zm-2.07-6.21h0l-1.17,3.44h2.33Z"/><path class="cls-7" d="M53.61,205.94a2,2,0,0,1-.19.89,1.8,1.8,0,0,1-.52.64,2.31,2.31,0,0,1-.79.39,3.56,3.56,0,0,1-1,.13H47.78v-7.14h3.29a3.94,3.94,0,0,1,.92.1,2,2,0,0,1,.7.31,1.41,1.41,0,0,1,.45.55,1.87,1.87,0,0,1,.16.8,1.57,1.57,0,0,1-.28.95,1.69,1.69,0,0,1-.79.58h0a2.1,2.1,0,0,1,.61.25,1.49,1.49,0,0,1,.43.39,1.68,1.68,0,0,1,.25.52A2.13,2.13,0,0,1,53.61,205.94Zm-1.53-3.09a.9.9,0,0,0-.32-.76,1.51,1.51,0,0,0-.93-.24H49v2h1.89a1.65,1.65,0,0,0,.45-.06,1.11,1.11,0,0,0,.37-.18.85.85,0,0,0,.25-.31A1.08,1.08,0,0,0,52.08,202.86Zm.28,3A1,1,0,0,0,52,205a1.59,1.59,0,0,0-1-.29H49V207h2a1.62,1.62,0,0,0,1-.28A1,1,0,0,0,52.36,205.88Z"/><path class="cls-7" d="M56.17,200.86v6.08h3.67V208H54.92v-7.14Z"/><path class="cls-7" d="M66,200.87v1.05H62.09v1.9h3.64v1H62.09V207h4v1H60.84v-7.13Z"/><path class="cls-7" d="M70.2,200.86a3.18,3.18,0,0,1,2.37.9,3.63,3.63,0,0,1,.89,2.64,3.74,3.74,0,0,1-.88,2.67,3.09,3.09,0,0,1-2.35.92H67.34v-7.14Zm-.14,6.08a2.07,2.07,0,0,0,1.58-.59,2.62,2.62,0,0,0,.57-1.86,2.79,2.79,0,0,0-.58-2,2.34,2.34,0,0,0-1.78-.61H68.59v5Z"/><rect class="cls-2" x="243" y="95.5" width="178" height="28"/><g class="cls-15"><path class="cls-4" d="M421,95.5v28H243v-28H421m1-1H242v30H422v-30Z"/></g><g class="cls-5"><path class="cls-6" d="M258.25,103.87v1.27h-4.72v2.28h4.37v1.19h-4.37v2.56h4.8v1.26H252v-8.55Z"/><path class="cls-6" d="M268,112.43v-4a3.44,3.44,0,0,0-.05-.62,1.26,1.26,0,0,0-.19-.49,1,1,0,0,0-.39-.32,1.48,1.48,0,0,0-.63-.12,1.24,1.24,0,0,0-1.06.47,2.29,2.29,0,0,0-.35,1.38v3.74h-1.45v-4.21a1.64,1.64,0,0,0-.28-1,1.1,1.1,0,0,0-.91-.35,1.34,1.34,0,0,0-1.08.48,2,2,0,0,0-.4,1.31v3.81H259.8v-6.57h1.36v1h0a2.31,2.31,0,0,1,2.06-1.15,2.27,2.27,0,0,1,1.2.3,1.71,1.71,0,0,1,.71.86A2.45,2.45,0,0,1,266,106a2.21,2.21,0,0,1,3.47,2v4.48Z"/><path class="cls-6" d="M277.9,109.19a4.55,4.55,0,0,1-.08.85,4.15,4.15,0,0,1-.23.8,3.31,3.31,0,0,1-.4.71,2.59,2.59,0,0,1-.57.57,2.64,2.64,0,0,1-.73.37,2.87,2.87,0,0,1-.91.13,2.61,2.61,0,0,1-.63-.08,2.42,2.42,0,0,1-.58-.22,2.29,2.29,0,0,1-.5-.36,2,2,0,0,1-.38-.5h0v3.33h-1.44v-8.93h1.37v1h0a2.08,2.08,0,0,1,.86-.88,2.59,2.59,0,0,1,1.23-.29,2.88,2.88,0,0,1,1.31.28,2.67,2.67,0,0,1,.93.76,3.3,3.3,0,0,1,.55,1.12A4.85,4.85,0,0,1,277.9,109.19Zm-1.45,0a3.92,3.92,0,0,0-.09-.83,2.38,2.38,0,0,0-.3-.76,1.72,1.72,0,0,0-.56-.56,1.57,1.57,0,0,0-.85-.22,1.6,1.6,0,0,0-1.35.61,2.82,2.82,0,0,0-.47,1.75,3.62,3.62,0,0,0,.1.84,2.34,2.34,0,0,0,.32.75,1.73,1.73,0,0,0,.57.54,1.64,1.64,0,0,0,.85.21,1.56,1.56,0,0,0,1.33-.66,2.17,2.17,0,0,0,.34-.74A3.75,3.75,0,0,0,276.45,109.15Z"/><path class="cls-6" d="M282.75,112.48h-.83a4.59,4.59,0,0,1-.74-.06,1.58,1.58,0,0,1-.6-.22,1.12,1.12,0,0,1-.4-.45A1.67,1.67,0,0,1,280,111v-4.15h-1.29v-1H280v-2h1.45v2H283v1h-1.5v3.72a.83.83,0,0,0,.17.58.8.8,0,0,0,.59.18h.57l.17,0v1.14Z"/><path class="cls-6" d="M285.06,105.85l1.73,5h0l1.64-5h1.49l-2.81,7.52a3,3,0,0,1-.29.59,1.79,1.79,0,0,1-.4.44,1.71,1.71,0,0,1-.54.28,2.43,2.43,0,0,1-.72.1l-.54,0-.46,0v-1.2l.45.05H285a1,1,0,0,0,.4-.07.76.76,0,0,0,.28-.21,1.39,1.39,0,0,0,.21-.36q.09-.22.18-.52l-2.53-6.57Z"/><path class="cls-6" d="M297.76,112.48h-.83a4.59,4.59,0,0,1-.74-.06,1.58,1.58,0,0,1-.6-.22,1.12,1.12,0,0,1-.4-.45A1.67,1.67,0,0,1,295,111v-4.15h-1.29v-1H295v-2h1.45v2H298v1h-1.5v3.72a.83.83,0,0,0,.17.58.8.8,0,0,0,.59.18h.57l.17,0v1.14Z"/><path class="cls-6" d="M302.15,105.68a3,3,0,0,1,1.34.28,2.78,2.78,0,0,1,1,.77,3.33,3.33,0,0,1,.58,1.13,4.76,4.76,0,0,1,.19,1.37v.26h-4.85a2.77,2.77,0,0,0,.13.81,1.9,1.9,0,0,0,.35.63,1.55,1.55,0,0,0,.54.41,1.7,1.7,0,0,0,.72.15,1.9,1.9,0,0,0,1-.23,1.7,1.7,0,0,0,.61-.6h1.37a3.06,3.06,0,0,1-.45.81,2.83,2.83,0,0,1-.66.62,3,3,0,0,1-.85.39,3.66,3.66,0,0,1-1,.13,3.28,3.28,0,0,1-1.33-.26,2.82,2.82,0,0,1-1-.72,3.18,3.18,0,0,1-.62-1.1,4.31,4.31,0,0,1-.22-1.4,4,4,0,0,1,.22-1.33,3.3,3.3,0,0,1,.63-1.1,3,3,0,0,1,1-.76A3.16,3.16,0,0,1,302.15,105.68Zm1.63,2.85a2.77,2.77,0,0,0-.16-.71,1.73,1.73,0,0,0-.33-.55,1.43,1.43,0,0,0-.5-.35,1.91,1.91,0,0,0-1.37,0,1.51,1.51,0,0,0-.52.36,1.79,1.79,0,0,0-.35.55,2.54,2.54,0,0,0-.17.7Z"/><path class="cls-6" d="M307.6,105.85l1.41,2,1.39-2H312L309.81,109l2.47,3.47h-1.69L309,110.11l-1.61,2.32h-1.66l2.43-3.44-2.23-3.13Z"/><path class="cls-6" d="M316.63,112.48h-.83a4.59,4.59,0,0,1-.74-.06,1.58,1.58,0,0,1-.6-.22,1.12,1.12,0,0,1-.4-.45,1.67,1.67,0,0,1-.15-.76v-4.15h-1.29v-1h1.29v-2h1.45v2h1.5v1h-1.5v3.72a.83.83,0,0,0,.17.58.8.8,0,0,0,.59.18h.57l.17,0v1.14Z"/><path class="cls-6" d="M323.67,106.87v5.55h-1.45v-5.55h-1.28v-1h1.28v-.51a2,2,0,0,1,.52-1.52,1.64,1.64,0,0,1,.63-.36,3,3,0,0,1,.9-.12h.43l.52,0v1.11l-.18,0-.2,0h-.34a.86.86,0,0,0-.65.2,1,1,0,0,0-.18.68v.51h1.44v1Zm3.87-3.88v1.42H326.1V103Zm0,2.86v6.57H326.1v-6.57Z"/><path class="cls-6" d="M332.33,105.68a3,3,0,0,1,1.34.28,2.78,2.78,0,0,1,1,.77,3.33,3.33,0,0,1,.58,1.13,4.76,4.76,0,0,1,.19,1.37v.26h-4.85a2.77,2.77,0,0,0,.13.81,1.9,1.9,0,0,0,.35.63,1.55,1.55,0,0,0,.54.41,1.7,1.7,0,0,0,.72.15,1.9,1.9,0,0,0,1-.23,1.7,1.7,0,0,0,.61-.6h1.37a3.06,3.06,0,0,1-.45.81,2.83,2.83,0,0,1-.66.62,3,3,0,0,1-.85.39,3.66,3.66,0,0,1-1,.13,3.28,3.28,0,0,1-1.33-.26,2.82,2.82,0,0,1-1-.72,3.18,3.18,0,0,1-.62-1.1,4.31,4.31,0,0,1-.22-1.4,4,4,0,0,1,.22-1.33,3.3,3.3,0,0,1,.63-1.1,3,3,0,0,1,1-.76A3.16,3.16,0,0,1,332.33,105.68Zm1.63,2.85a2.77,2.77,0,0,0-.16-.71,1.73,1.73,0,0,0-.33-.55,1.43,1.43,0,0,0-.5-.35,1.91,1.91,0,0,0-1.37,0,1.51,1.51,0,0,0-.52.36,1.79,1.79,0,0,0-.35.55,2.54,2.54,0,0,0-.17.7Z"/><path class="cls-6" d="M338.42,103.35v9.08H337v-9.08Z"/><path class="cls-6" d="M346.51,103.35v9.08h-1.37v-1h0a2.07,2.07,0,0,1-.37.5,2.16,2.16,0,0,1-.49.37,2.44,2.44,0,0,1-.59.23,2.79,2.79,0,0,1-.67.08,2.72,2.72,0,0,1-1.28-.29,2.76,2.76,0,0,1-.92-.77,3.38,3.38,0,0,1-.56-1.12,4.69,4.69,0,0,1-.19-1.33,4.52,4.52,0,0,1,.18-1.26,3.34,3.34,0,0,1,.54-1.1,2.75,2.75,0,0,1,.91-.77,2.91,2.91,0,0,1,1.92-.22,2.49,2.49,0,0,1,.58.21,2.07,2.07,0,0,1,.49.35,2,2,0,0,1,.37.5h0v-3.47Zm-5,5.79a3.63,3.63,0,0,0,.1.82,2.44,2.44,0,0,0,.31.76,1.81,1.81,0,0,0,.56.56,1.5,1.5,0,0,0,.83.22,1.73,1.73,0,0,0,.79-.17,1.58,1.58,0,0,0,.57-.49,2.25,2.25,0,0,0,.35-.75,3.68,3.68,0,0,0,.12-1,3.73,3.73,0,0,0-.1-.84,2.3,2.3,0,0,0-.31-.75,1.72,1.72,0,0,0-.57-.54,1.64,1.64,0,0,0-.85-.21,1.56,1.56,0,0,0-.82.2,1.7,1.7,0,0,0-.55.53,2.35,2.35,0,0,0-.32.75A3.93,3.93,0,0,0,341.49,109.14Z"/><path class="cls-6" d="M353.4,103.35v9.08H352v-9.08Z"/><path class="cls-6" d="M361.48,112.43l-.44.09-.39,0a1.79,1.79,0,0,1-.42,0,.91.91,0,0,1-.34-.16.84.84,0,0,1-.24-.29,1.28,1.28,0,0,1-.12-.45h0a2.67,2.67,0,0,1-.45.46,2.3,2.3,0,0,1-.52.31,3.32,3.32,0,0,1-1.31.24,2.42,2.42,0,0,1-1.62-.51,1.77,1.77,0,0,1-.6-1.45,1.7,1.7,0,0,1,.6-1.42,2.11,2.11,0,0,1,.58-.32,4.68,4.68,0,0,1,.73-.2q.39-.08.82-.13l.87-.1.34-.07a.8.8,0,0,0,.27-.13.59.59,0,0,0,.17-.22.79.79,0,0,0,.06-.33,1,1,0,0,0-.31-.79,2.11,2.11,0,0,0-2.05,0,1,1,0,0,0-.39.73h-1.45a2,2,0,0,1,.28-.9,2,2,0,0,1,.62-.62,2.88,2.88,0,0,1,.9-.36,5.08,5.08,0,0,1,1.13-.12,3.42,3.42,0,0,1,2,.5,1.65,1.65,0,0,1,.67,1.41v3.54a.47.47,0,0,0,.08.3.33.33,0,0,0,.27.1h.12l.13,0Zm-2-3.35h0a1,1,0,0,1-.54.23l-.48.08-.65.11a2.2,2.2,0,0,0-1,.37.87.87,0,0,0-.32.72.89.89,0,0,0,.37.76,1.48,1.48,0,0,0,.87.24,1.79,1.79,0,0,0,1.27-.43,1.59,1.59,0,0,0,.49-1.24Z"/><path class="cls-6" d="M369.27,109.14a4.85,4.85,0,0,1-.17,1.28,3.47,3.47,0,0,1-.52,1.11,2.65,2.65,0,0,1-.88.79,2.51,2.51,0,0,1-1.25.3,2.93,2.93,0,0,1-1.36-.3,1.9,1.9,0,0,1-.86-.87h0v1h-1.37v-9.08h1.44v3.47h0a1.88,1.88,0,0,1,.36-.47,2.16,2.16,0,0,1,.5-.36,2.68,2.68,0,0,1,.61-.23,2.85,2.85,0,0,1,.68-.08,2.52,2.52,0,0,1,1.24.29,2.66,2.66,0,0,1,.88.78,3.4,3.4,0,0,1,.52,1.11A4.87,4.87,0,0,1,369.27,109.14Zm-1.45,0a3.74,3.74,0,0,0-.09-.82,2.52,2.52,0,0,0-.3-.76,1.71,1.71,0,0,0-.54-.56,1.5,1.5,0,0,0-.83-.22,1.57,1.57,0,0,0-.82.21,1.71,1.71,0,0,0-.56.54,2.39,2.39,0,0,0-.32.75,3.63,3.63,0,0,0-.1.86,3.68,3.68,0,0,0,.1.83,2.37,2.37,0,0,0,.31.76,1.76,1.76,0,0,0,.56.55,1.57,1.57,0,0,0,.84.21,1.49,1.49,0,0,0,.8-.21,1.69,1.69,0,0,0,.54-.54,2.43,2.43,0,0,0,.31-.75A3.94,3.94,0,0,0,367.82,109.15Z"/><path class="cls-6" d="M373.73,105.68a3,3,0,0,1,1.34.28,2.78,2.78,0,0,1,1,.77,3.33,3.33,0,0,1,.58,1.13,4.76,4.76,0,0,1,.19,1.37v.26H372a2.77,2.77,0,0,0,.13.81,1.9,1.9,0,0,0,.35.63,1.55,1.55,0,0,0,.54.41,1.7,1.7,0,0,0,.72.15,1.9,1.9,0,0,0,1-.23,1.7,1.7,0,0,0,.61-.6h1.37a3.06,3.06,0,0,1-.45.81,2.83,2.83,0,0,1-.66.62,3,3,0,0,1-.85.39,3.66,3.66,0,0,1-1,.13,3.28,3.28,0,0,1-1.33-.26,2.82,2.82,0,0,1-1-.72,3.18,3.18,0,0,1-.62-1.1,4.31,4.31,0,0,1-.22-1.4,4,4,0,0,1,.22-1.33,3.3,3.3,0,0,1,.63-1.1,3,3,0,0,1,1-.76A3.16,3.16,0,0,1,373.73,105.68Zm1.63,2.85a2.77,2.77,0,0,0-.16-.71,1.73,1.73,0,0,0-.33-.55,1.43,1.43,0,0,0-.5-.35,1.91,1.91,0,0,0-1.37,0,1.51,1.51,0,0,0-.52.36,1.79,1.79,0,0,0-.35.55,2.54,2.54,0,0,0-.17.7Z"/><path class="cls-6" d="M379.81,103.35v9.08h-1.45v-9.08Z"/></g><path class="cls-7" d="M245.1,80.87v2.87h3.37V80.87h1.24V88h-1.24V84.79H245.1V88h-1.25V80.87Z"/><path class="cls-7" d="M257.95,84.45a3.85,3.85,0,0,1-.95,2.66,3.21,3.21,0,0,1-2.51,1.05,3.63,3.63,0,0,1-1.37-.24,3.23,3.23,0,0,1-1.1-.75,3.35,3.35,0,0,1-.75-1.22,4.46,4.46,0,0,1-.25-1.51,3.9,3.9,0,0,1,.95-2.7,3.21,3.21,0,0,1,2.51-1.05,3.7,3.7,0,0,1,1.37.25,3,3,0,0,1,1.1.76,3.34,3.34,0,0,1,.74,1.24A4.74,4.74,0,0,1,257.95,84.45Zm-1.25,0a3.07,3.07,0,0,0-.59-2,2.14,2.14,0,0,0-3.25,0,3.08,3.08,0,0,0-.58,2,3,3,0,0,0,.58,1.91,2.16,2.16,0,0,0,3.26,0A3,3,0,0,0,256.69,84.45Z"/><path class="cls-7" d="M259.65,80.86l1.86,5.73h0l1.86-5.73h1.3L262.21,88h-1.42l-2.44-7.14Z"/><path class="cls-7" d="M270.77,80.87v1.05h-3.94v1.9h3.64v1h-3.64V87h4v1h-5.25V80.87Z"/><path class="cls-7" d="M277.85,82.79a1.91,1.91,0,0,1-.42,1.28,1.5,1.5,0,0,1-.35.31,2.09,2.09,0,0,1-.46.21v0a1.43,1.43,0,0,1,.49.21,1.17,1.17,0,0,1,.33.35,1.63,1.63,0,0,1,.21.52,4.43,4.43,0,0,1,.08.57c0,.2,0,.4,0,.61a4,4,0,0,0,.08.62,1.38,1.38,0,0,0,.2.52h-1.27a3.66,3.66,0,0,1-.19-1.12,2.66,2.66,0,0,0-.38-1.47,1.13,1.13,0,0,0-.88-.34h-2V88h-1.25V80.86h3.68a2.14,2.14,0,0,1,1.48.53A1.8,1.8,0,0,1,277.85,82.79Zm-1.25.2a1.09,1.09,0,0,0-.32-.86,1.3,1.3,0,0,0-.89-.28h-2.05v2.29h2.05a1.27,1.27,0,0,0,.85-.27A1.08,1.08,0,0,0,276.6,83Z"/><rect class="cls-2" x="23" y="95.5" width="178" height="28"/><g class="cls-15"><path class="cls-4" d="M201,95.5v28H23v-28H201m1-1H22v30H202v-30Z"/></g><path class="cls-6" d="M33.55,103.86v8.57H32v-8.57Z"/><path class="cls-6" d="M39,105.68a3.25,3.25,0,0,1,1.1.16,1.8,1.8,0,0,1,.74.49,2,2,0,0,1,.42.81,4.28,4.28,0,0,1,.13,1.12v4.17H40v-3.9a2.11,2.11,0,0,0-.32-1.27,1.19,1.19,0,0,0-1-.43,1.48,1.48,0,0,0-1.23.52A2.28,2.28,0,0,0,37,108.8v3.63H35.54v-6.57h1.38v1h0a2.14,2.14,0,0,1,.37-.5,2.24,2.24,0,0,1,.48-.37,2.34,2.34,0,0,1,.57-.23A2.51,2.51,0,0,1,39,105.68Z"/><path class="cls-6" d="M49.77,109.19a4.55,4.55,0,0,1-.08.85,4.15,4.15,0,0,1-.23.8,3.31,3.31,0,0,1-.4.71,2.59,2.59,0,0,1-.57.57,2.64,2.64,0,0,1-.73.37,2.87,2.87,0,0,1-.91.13,2.61,2.61,0,0,1-.63-.08,2.42,2.42,0,0,1-.58-.22,2.29,2.29,0,0,1-.5-.36,2,2,0,0,1-.38-.5h0v3.33H43.31v-8.93h1.37v1h0a2.08,2.08,0,0,1,.86-.88,2.59,2.59,0,0,1,1.23-.29,2.88,2.88,0,0,1,1.31.28,2.67,2.67,0,0,1,.93.76,3.3,3.3,0,0,1,.55,1.12A4.85,4.85,0,0,1,49.77,109.19Zm-1.45,0a3.92,3.92,0,0,0-.09-.83,2.38,2.38,0,0,0-.3-.76,1.72,1.72,0,0,0-.56-.56,1.57,1.57,0,0,0-.85-.22,1.6,1.6,0,0,0-1.35.61,2.82,2.82,0,0,0-.47,1.75,3.62,3.62,0,0,0,.1.84,2.34,2.34,0,0,0,.32.75,1.73,1.73,0,0,0,.57.54,1.64,1.64,0,0,0,.85.21,1.56,1.56,0,0,0,1.33-.66,2.17,2.17,0,0,0,.34-.74A3.75,3.75,0,0,0,48.33,109.15Z"/><path class="cls-6" d="M55.84,112.43v-1h0a2.25,2.25,0,0,1-.39.52,2.3,2.3,0,0,1-.5.37,2.49,2.49,0,0,1-.58.23,2.54,2.54,0,0,1-.64.08,2.3,2.3,0,0,1-1.78-.63,2.81,2.81,0,0,1-.57-1.95v-4.19h1.44v4a2.89,2.89,0,0,0,.08.7,1.37,1.37,0,0,0,.24.52,1,1,0,0,0,.42.32,1.82,1.82,0,0,0,1.36,0,1.37,1.37,0,0,0,.5-.43,1.86,1.86,0,0,0,.29-.66,3.72,3.72,0,0,0,.09-.85v-3.5h1.44v6.57Z"/><path class="cls-6" d="M62.38,112.48h-.83a4.59,4.59,0,0,1-.74-.06,1.58,1.58,0,0,1-.6-.22,1.12,1.12,0,0,1-.4-.45,1.67,1.67,0,0,1-.15-.76v-4.15H58.38v-1h1.29v-2h1.45v2h1.5v1h-1.5v3.72a.83.83,0,0,0,.17.58.8.8,0,0,0,.59.18h.57l.17,0v1.14Z"/><path class="cls-6" d="M70.77,112.48h-.83a4.59,4.59,0,0,1-.74-.06,1.58,1.58,0,0,1-.6-.22,1.12,1.12,0,0,1-.4-.45,1.67,1.67,0,0,1-.15-.76v-4.15H66.77v-1h1.29v-2H69.5v2H71v1H69.5v3.72a.83.83,0,0,0,.17.58.8.8,0,0,0,.59.18h.57l.17,0v1.14Z"/><path class="cls-6" d="M75.16,105.68a3,3,0,0,1,1.34.28,2.78,2.78,0,0,1,1,.77,3.33,3.33,0,0,1,.58,1.13,4.76,4.76,0,0,1,.19,1.37v.26H73.39a2.77,2.77,0,0,0,.13.81,1.9,1.9,0,0,0,.35.63,1.55,1.55,0,0,0,.54.41,1.7,1.7,0,0,0,.72.15,1.9,1.9,0,0,0,1-.23,1.7,1.7,0,0,0,.61-.6h1.37a3.06,3.06,0,0,1-.45.81,2.83,2.83,0,0,1-.66.62,3,3,0,0,1-.85.39,3.66,3.66,0,0,1-1,.13,3.28,3.28,0,0,1-1.33-.26,2.82,2.82,0,0,1-1-.72,3.18,3.18,0,0,1-.62-1.1,4.31,4.31,0,0,1-.22-1.4,4,4,0,0,1,.22-1.33,3.3,3.3,0,0,1,.63-1.1,3,3,0,0,1,1-.76A3.16,3.16,0,0,1,75.16,105.68Zm1.63,2.85a2.77,2.77,0,0,0-.16-.71,1.73,1.73,0,0,0-.33-.55,1.43,1.43,0,0,0-.5-.35,1.91,1.91,0,0,0-1.37,0,1.51,1.51,0,0,0-.52.36,1.79,1.79,0,0,0-.35.55,2.54,2.54,0,0,0-.17.7Z"/><path class="cls-6" d="M80.61,105.85l1.41,2,1.39-2H85L82.81,109l2.47,3.47H83.6L82,110.11l-1.61,2.32H78.72L81.15,109l-2.23-3.13Z"/><path class="cls-6" d="M89.64,112.48h-.83a4.59,4.59,0,0,1-.74-.06,1.58,1.58,0,0,1-.6-.22,1.12,1.12,0,0,1-.4-.45,1.67,1.67,0,0,1-.15-.76v-4.15H85.64v-1h1.29v-2h1.45v2h1.5v1h-1.5v3.72a.83.83,0,0,0,.17.58.8.8,0,0,0,.59.18h.57l.17,0v1.14Z"/><path class="cls-7" d="M25.1,80.87v2.87h3.37V80.87h1.24V88H28.48V84.79H25.1V88H23.85V80.87Z"/><path class="cls-7" d="M37.95,84.45A3.85,3.85,0,0,1,37,87.11a3.21,3.21,0,0,1-2.51,1.05,3.63,3.63,0,0,1-1.37-.24,3.23,3.23,0,0,1-1.1-.75A3.35,3.35,0,0,1,31.28,86,4.46,4.46,0,0,1,31,84.45a3.9,3.9,0,0,1,.95-2.7,3.21,3.21,0,0,1,2.51-1.05,3.7,3.7,0,0,1,1.37.25,3,3,0,0,1,1.1.76,3.34,3.34,0,0,1,.74,1.24A4.74,4.74,0,0,1,37.95,84.45Zm-1.25,0a3.07,3.07,0,0,0-.59-2,2.14,2.14,0,0,0-3.25,0,3.08,3.08,0,0,0-.58,2,3,3,0,0,0,.58,1.91,2.16,2.16,0,0,0,3.26,0A3,3,0,0,0,36.69,84.45Z"/><path class="cls-7" d="M39.65,80.86l1.86,5.73h0l1.86-5.73h1.3L42.21,88H40.79l-2.44-7.14Z"/><path class="cls-7" d="M50.77,80.87v1.05H46.84v1.9h3.64v1H46.84V87h4v1H45.59V80.87Z"/><path class="cls-7" d="M57.85,82.79a1.91,1.91,0,0,1-.42,1.28,1.5,1.5,0,0,1-.35.31,2.09,2.09,0,0,1-.46.21v0a1.43,1.43,0,0,1,.49.21,1.17,1.17,0,0,1,.33.35,1.63,1.63,0,0,1,.21.52,4.43,4.43,0,0,1,.08.57c0,.2,0,.4,0,.61a4,4,0,0,0,.08.62A1.38,1.38,0,0,0,58,88H56.77a3.66,3.66,0,0,1-.19-1.12,2.66,2.66,0,0,0-.38-1.47,1.13,1.13,0,0,0-.88-.34h-2V88H52.09V80.86h3.68a2.14,2.14,0,0,1,1.48.53A1.8,1.8,0,0,1,57.85,82.79ZM56.6,83a1.09,1.09,0,0,0-.32-.86,1.3,1.3,0,0,0-.89-.28H53.34v2.29h2.05a1.27,1.27,0,0,0,.85-.27A1.08,1.08,0,0,0,56.6,83Z"/><rect class="cls-16" x="243" y="155.5" width="178" height="28"/><path class="cls-17" d="M420,156.5v26H244v-26H420m2-2H242v30H422v-30Z"/><g class="cls-5"><path class="cls-6" d="M258.25,163.87v1.27h-4.72v2.28h4.37v1.19h-4.37v2.56h4.8v1.26H252v-8.55Z"/><path class="cls-6" d="M268,172.43v-4a3.44,3.44,0,0,0-.05-.62,1.26,1.26,0,0,0-.19-.49,1,1,0,0,0-.39-.32,1.48,1.48,0,0,0-.63-.12,1.24,1.24,0,0,0-1.06.47,2.29,2.29,0,0,0-.35,1.38v3.74h-1.45v-4.21a1.64,1.64,0,0,0-.28-1,1.1,1.1,0,0,0-.91-.35,1.34,1.34,0,0,0-1.08.48,2,2,0,0,0-.4,1.31v3.81H259.8v-6.57h1.36v1h0a2.31,2.31,0,0,1,2.06-1.15,2.27,2.27,0,0,1,1.2.3,1.71,1.71,0,0,1,.71.86A2.45,2.45,0,0,1,266,166a2.21,2.21,0,0,1,3.47,2v4.48Z"/><path class="cls-6" d="M277.9,169.19a4.55,4.55,0,0,1-.08.85,4.15,4.15,0,0,1-.23.8,3.31,3.31,0,0,1-.4.71,2.59,2.59,0,0,1-.57.57,2.64,2.64,0,0,1-.73.37,2.87,2.87,0,0,1-.91.13,2.61,2.61,0,0,1-.63-.08,2.42,2.42,0,0,1-.58-.22,2.29,2.29,0,0,1-.5-.36,2,2,0,0,1-.38-.5h0v3.33h-1.44v-8.93h1.37v1h0a2.08,2.08,0,0,1,.86-.88,2.59,2.59,0,0,1,1.23-.29,2.88,2.88,0,0,1,1.31.28,2.67,2.67,0,0,1,.93.76,3.3,3.3,0,0,1,.55,1.12A4.85,4.85,0,0,1,277.9,169.19Zm-1.45,0a3.92,3.92,0,0,0-.09-.83,2.38,2.38,0,0,0-.3-.76,1.72,1.72,0,0,0-.56-.56,1.57,1.57,0,0,0-.85-.22,1.6,1.6,0,0,0-1.35.61,2.82,2.82,0,0,0-.47,1.75,3.62,3.62,0,0,0,.1.84,2.34,2.34,0,0,0,.32.75,1.73,1.73,0,0,0,.57.54,1.64,1.64,0,0,0,.85.21,1.56,1.56,0,0,0,1.33-.66,2.17,2.17,0,0,0,.34-.74A3.75,3.75,0,0,0,276.45,169.15Z"/><path class="cls-6" d="M282.75,172.48h-.83a4.59,4.59,0,0,1-.74-.06,1.58,1.58,0,0,1-.6-.22,1.12,1.12,0,0,1-.4-.45A1.67,1.67,0,0,1,280,171v-4.15h-1.29v-1H280v-2h1.45v2H283v1h-1.5v3.72a.83.83,0,0,0,.17.58.8.8,0,0,0,.59.18h.57l.17,0v1.14Z"/><path class="cls-6" d="M285.06,165.85l1.73,5h0l1.64-5h1.49l-2.81,7.52a3,3,0,0,1-.29.59,1.79,1.79,0,0,1-.4.44,1.71,1.71,0,0,1-.54.28,2.43,2.43,0,0,1-.72.1l-.54,0-.46,0v-1.2l.45.05H285a1,1,0,0,0,.4-.07.76.76,0,0,0,.28-.21,1.39,1.39,0,0,0,.21-.36q.09-.22.18-.52l-2.53-6.57Z"/><path class="cls-6" d="M297.76,172.48h-.83a4.59,4.59,0,0,1-.74-.06,1.58,1.58,0,0,1-.6-.22,1.12,1.12,0,0,1-.4-.45A1.67,1.67,0,0,1,295,171v-4.15h-1.29v-1H295v-2h1.45v2H298v1h-1.5v3.72a.83.83,0,0,0,.17.58.8.8,0,0,0,.59.18h.57l.17,0v1.14Z"/><path class="cls-6" d="M302.15,165.68a3,3,0,0,1,1.34.28,2.78,2.78,0,0,1,1,.77,3.33,3.33,0,0,1,.58,1.13,4.76,4.76,0,0,1,.19,1.37v.26h-4.85a2.77,2.77,0,0,0,.13.81,1.9,1.9,0,0,0,.35.63,1.55,1.55,0,0,0,.54.41,1.7,1.7,0,0,0,.72.15,1.9,1.9,0,0,0,1-.23,1.7,1.7,0,0,0,.61-.6h1.37a3.06,3.06,0,0,1-.45.81,2.83,2.83,0,0,1-.66.62,3,3,0,0,1-.85.39,3.66,3.66,0,0,1-1,.13,3.28,3.28,0,0,1-1.33-.26,2.82,2.82,0,0,1-1-.72,3.18,3.18,0,0,1-.62-1.1,4.31,4.31,0,0,1-.22-1.4,4,4,0,0,1,.22-1.33,3.3,3.3,0,0,1,.63-1.1,3,3,0,0,1,1-.76A3.16,3.16,0,0,1,302.15,165.68Zm1.63,2.85a2.77,2.77,0,0,0-.16-.71,1.73,1.73,0,0,0-.33-.55,1.43,1.43,0,0,0-.5-.35,1.91,1.91,0,0,0-1.37,0,1.51,1.51,0,0,0-.52.36,1.79,1.79,0,0,0-.35.55,2.54,2.54,0,0,0-.17.7Z"/><path class="cls-6" d="M307.6,165.85l1.41,2,1.39-2H312L309.81,169l2.47,3.47h-1.69L309,170.11l-1.61,2.32h-1.66l2.43-3.44-2.23-3.13Z"/><path class="cls-6" d="M316.63,172.48h-.83a4.59,4.59,0,0,1-.74-.06,1.58,1.58,0,0,1-.6-.22,1.12,1.12,0,0,1-.4-.45,1.67,1.67,0,0,1-.15-.76v-4.15h-1.29v-1h1.29v-2h1.45v2h1.5v1h-1.5v3.72a.83.83,0,0,0,.17.58.8.8,0,0,0,.59.18h.57l.17,0v1.14Z"/><path class="cls-6" d="M323.67,166.87v5.55h-1.45v-5.55h-1.28v-1h1.28v-.51a2,2,0,0,1,.52-1.52,1.64,1.64,0,0,1,.63-.36,3,3,0,0,1,.9-.12h.43l.52,0v1.11l-.18,0-.2,0h-.34a.86.86,0,0,0-.65.2,1,1,0,0,0-.18.68v.51h1.44v1Zm3.87-3.88v1.42H326.1V163Zm0,2.86v6.57H326.1v-6.57Z"/><path class="cls-6" d="M332.33,165.68a3,3,0,0,1,1.34.28,2.78,2.78,0,0,1,1,.77,3.33,3.33,0,0,1,.58,1.13,4.76,4.76,0,0,1,.19,1.37v.26h-4.85a2.77,2.77,0,0,0,.13.81,1.9,1.9,0,0,0,.35.63,1.55,1.55,0,0,0,.54.41,1.7,1.7,0,0,0,.72.15,1.9,1.9,0,0,0,1-.23,1.7,1.7,0,0,0,.61-.6h1.37a3.06,3.06,0,0,1-.45.81,2.83,2.83,0,0,1-.66.62,3,3,0,0,1-.85.39,3.66,3.66,0,0,1-1,.13,3.28,3.28,0,0,1-1.33-.26,2.82,2.82,0,0,1-1-.72,3.18,3.18,0,0,1-.62-1.1,4.31,4.31,0,0,1-.22-1.4,4,4,0,0,1,.22-1.33,3.3,3.3,0,0,1,.63-1.1,3,3,0,0,1,1-.76A3.16,3.16,0,0,1,332.33,165.68Zm1.63,2.85a2.77,2.77,0,0,0-.16-.71,1.73,1.73,0,0,0-.33-.55,1.43,1.43,0,0,0-.5-.35,1.91,1.91,0,0,0-1.37,0,1.51,1.51,0,0,0-.52.36,1.79,1.79,0,0,0-.35.55,2.54,2.54,0,0,0-.17.7Z"/><path class="cls-6" d="M338.42,163.35v9.08H337v-9.08Z"/><path class="cls-6" d="M346.51,163.35v9.08h-1.37v-1h0a2.07,2.07,0,0,1-.37.5,2.16,2.16,0,0,1-.49.37,2.44,2.44,0,0,1-.59.23,2.79,2.79,0,0,1-.67.08,2.72,2.72,0,0,1-1.28-.29,2.76,2.76,0,0,1-.92-.77,3.38,3.38,0,0,1-.56-1.12,4.69,4.69,0,0,1-.19-1.33,4.52,4.52,0,0,1,.18-1.26,3.34,3.34,0,0,1,.54-1.1,2.75,2.75,0,0,1,.91-.77,2.91,2.91,0,0,1,1.92-.22,2.49,2.49,0,0,1,.58.21,2.07,2.07,0,0,1,.49.35,2,2,0,0,1,.37.5h0v-3.47Zm-5,5.79a3.63,3.63,0,0,0,.1.82,2.44,2.44,0,0,0,.31.76,1.81,1.81,0,0,0,.56.56,1.5,1.5,0,0,0,.83.22,1.73,1.73,0,0,0,.79-.17,1.58,1.58,0,0,0,.57-.49,2.25,2.25,0,0,0,.35-.75,3.68,3.68,0,0,0,.12-1,3.73,3.73,0,0,0-.1-.84,2.3,2.3,0,0,0-.31-.75,1.72,1.72,0,0,0-.57-.54,1.64,1.64,0,0,0-.85-.21,1.56,1.56,0,0,0-.82.2,1.7,1.7,0,0,0-.55.53,2.35,2.35,0,0,0-.32.75A3.93,3.93,0,0,0,341.49,169.14Z"/><path class="cls-6" d="M353.4,163.35v9.08H352v-9.08Z"/><path class="cls-6" d="M361.48,172.43l-.44.09-.39,0a1.79,1.79,0,0,1-.42,0,.91.91,0,0,1-.34-.16.84.84,0,0,1-.24-.29,1.28,1.28,0,0,1-.12-.45h0a2.67,2.67,0,0,1-.45.46,2.3,2.3,0,0,1-.52.31,3.32,3.32,0,0,1-1.31.24,2.42,2.42,0,0,1-1.62-.51,1.77,1.77,0,0,1-.6-1.45,1.7,1.7,0,0,1,.6-1.42,2.11,2.11,0,0,1,.58-.32,4.68,4.68,0,0,1,.73-.2q.39-.08.82-.13l.87-.1.34-.07a.8.8,0,0,0,.27-.13.59.59,0,0,0,.17-.22.79.79,0,0,0,.06-.33,1,1,0,0,0-.31-.79,2.11,2.11,0,0,0-2.05,0,1,1,0,0,0-.39.73h-1.45a2,2,0,0,1,.28-.9,2,2,0,0,1,.62-.62,2.88,2.88,0,0,1,.9-.36,5.08,5.08,0,0,1,1.13-.12,3.42,3.42,0,0,1,2,.5,1.65,1.65,0,0,1,.67,1.41v3.54a.47.47,0,0,0,.08.3.33.33,0,0,0,.27.1h.12l.13,0Zm-2-3.35h0a1,1,0,0,1-.54.23l-.48.08-.65.11a2.2,2.2,0,0,0-1,.37.87.87,0,0,0-.32.72.89.89,0,0,0,.37.76,1.48,1.48,0,0,0,.87.24,1.79,1.79,0,0,0,1.27-.43,1.59,1.59,0,0,0,.49-1.24Z"/><path class="cls-6" d="M369.27,169.14a4.85,4.85,0,0,1-.17,1.28,3.47,3.47,0,0,1-.52,1.11,2.65,2.65,0,0,1-.88.79,2.51,2.51,0,0,1-1.25.3,2.93,2.93,0,0,1-1.36-.3,1.9,1.9,0,0,1-.86-.87h0v1h-1.37v-9.08h1.44v3.47h0a1.88,1.88,0,0,1,.36-.47,2.16,2.16,0,0,1,.5-.36,2.68,2.68,0,0,1,.61-.23,2.85,2.85,0,0,1,.68-.08,2.52,2.52,0,0,1,1.24.29,2.66,2.66,0,0,1,.88.78,3.4,3.4,0,0,1,.52,1.11A4.87,4.87,0,0,1,369.27,169.14Zm-1.45,0a3.74,3.74,0,0,0-.09-.82,2.52,2.52,0,0,0-.3-.76,1.71,1.71,0,0,0-.54-.56,1.5,1.5,0,0,0-.83-.22,1.57,1.57,0,0,0-.82.21,1.71,1.71,0,0,0-.56.54,2.39,2.39,0,0,0-.32.75,3.63,3.63,0,0,0-.1.86,3.68,3.68,0,0,0,.1.83,2.37,2.37,0,0,0,.31.76,1.76,1.76,0,0,0,.56.55,1.57,1.57,0,0,0,.84.21,1.49,1.49,0,0,0,.8-.21,1.69,1.69,0,0,0,.54-.54,2.43,2.43,0,0,0,.31-.75A3.94,3.94,0,0,0,367.82,169.15Z"/><path class="cls-6" d="M373.73,165.68a3,3,0,0,1,1.34.28,2.78,2.78,0,0,1,1,.77,3.33,3.33,0,0,1,.58,1.13,4.76,4.76,0,0,1,.19,1.37v.26H372a2.77,2.77,0,0,0,.13.81,1.9,1.9,0,0,0,.35.63,1.55,1.55,0,0,0,.54.41,1.7,1.7,0,0,0,.72.15,1.9,1.9,0,0,0,1-.23,1.7,1.7,0,0,0,.61-.6h1.37a3.06,3.06,0,0,1-.45.81,2.83,2.83,0,0,1-.66.62,3,3,0,0,1-.85.39,3.66,3.66,0,0,1-1,.13,3.28,3.28,0,0,1-1.33-.26,2.82,2.82,0,0,1-1-.72,3.18,3.18,0,0,1-.62-1.1,4.31,4.31,0,0,1-.22-1.4,4,4,0,0,1,.22-1.33,3.3,3.3,0,0,1,.63-1.1,3,3,0,0,1,1-.76A3.16,3.16,0,0,1,373.73,165.68Zm1.63,2.85a2.77,2.77,0,0,0-.16-.71,1.73,1.73,0,0,0-.33-.55,1.43,1.43,0,0,0-.5-.35,1.91,1.91,0,0,0-1.37,0,1.51,1.51,0,0,0-.52.36,1.79,1.79,0,0,0-.35.55,2.54,2.54,0,0,0-.17.7Z"/><path class="cls-6" d="M379.81,163.35v9.08h-1.45v-9.08Z"/></g><path class="cls-7" d="M248.54,148l-.62-1.82h-3l-.62,1.82h-1.27l2.57-7.13h1.69l2.52,7.13Zm-2.07-6.21h0l-1.17,3.44h2.33Z"/><path class="cls-7" d="M253.68,140.71a3.78,3.78,0,0,1,1.1.15,2.88,2.88,0,0,1,.89.44,2.45,2.45,0,0,1,.64.71,2.66,2.66,0,0,1,.34.94h-1.22a1.58,1.58,0,0,0-.21-.47,1.49,1.49,0,0,0-.37-.38,1.79,1.79,0,0,0-.52-.26,2.28,2.28,0,0,0-1.64.13,2,2,0,0,0-.7.6,2.58,2.58,0,0,0-.42.86,3.75,3.75,0,0,0-.14,1,3.68,3.68,0,0,0,.13,1,2.55,2.55,0,0,0,.4.85,2.1,2.1,0,0,0,.69.6,2.07,2.07,0,0,0,1,.23,2,2,0,0,0,.71-.12,1.66,1.66,0,0,0,.93-.84,2.23,2.23,0,0,0,.2-.65h1.22a3.53,3.53,0,0,1-.29,1,2.67,2.67,0,0,1-1.52,1.41,3.45,3.45,0,0,1-1.24.21,3.54,3.54,0,0,1-1.43-.28,3.21,3.21,0,0,1-1.1-.78,3.46,3.46,0,0,1-.7-1.17,4.33,4.33,0,0,1-.24-1.48,4.43,4.43,0,0,1,.23-1.43,3.58,3.58,0,0,1,.67-1.19,3.2,3.2,0,0,1,1.09-.82A3.48,3.48,0,0,1,253.68,140.71Z"/><path class="cls-7" d="M262.81,140.86v1.05h-2.27V148H259.3v-6.08H257v-1.05Z"/><path class="cls-7" d="M265,140.86V148h-1.25v-7.14Z"/><path class="cls-7" d="M267.27,140.86l1.86,5.73h0l1.86-5.73h1.3L269.83,148h-1.42L266,140.86Z"/><path class="cls-7" d="M278.4,140.87v1.05h-3.94v1.9h3.64v1h-3.64V147h4v1h-5.25v-7.13Z"/><rect class="cls-16" x="23" y="155.5" width="178" height="28"/><path class="cls-17" d="M200,156.5v26H24v-26H200m2-2H22v30H202v-30Z"/><path class="cls-6" d="M33.55,163.86v8.57H32v-8.57Z"/><path class="cls-6" d="M39,165.68a3.25,3.25,0,0,1,1.1.16,1.8,1.8,0,0,1,.74.49,2,2,0,0,1,.42.81,4.28,4.28,0,0,1,.13,1.12v4.17H40v-3.9a2.11,2.11,0,0,0-.32-1.27,1.19,1.19,0,0,0-1-.43,1.48,1.48,0,0,0-1.23.52A2.28,2.28,0,0,0,37,168.8v3.63H35.54v-6.57h1.38v1h0a2.14,2.14,0,0,1,.37-.5,2.24,2.24,0,0,1,.48-.37,2.34,2.34,0,0,1,.57-.23A2.51,2.51,0,0,1,39,165.68Z"/><path class="cls-6" d="M49.77,169.19a4.55,4.55,0,0,1-.08.85,4.15,4.15,0,0,1-.23.8,3.31,3.31,0,0,1-.4.71,2.59,2.59,0,0,1-.57.57,2.64,2.64,0,0,1-.73.37,2.87,2.87,0,0,1-.91.13,2.61,2.61,0,0,1-.63-.08,2.42,2.42,0,0,1-.58-.22,2.29,2.29,0,0,1-.5-.36,2,2,0,0,1-.38-.5h0v3.33H43.31v-8.93h1.37v1h0a2.08,2.08,0,0,1,.86-.88,2.59,2.59,0,0,1,1.23-.29,2.88,2.88,0,0,1,1.31.28,2.67,2.67,0,0,1,.93.76,3.3,3.3,0,0,1,.55,1.12A4.85,4.85,0,0,1,49.77,169.19Zm-1.45,0a3.92,3.92,0,0,0-.09-.83,2.38,2.38,0,0,0-.3-.76,1.72,1.72,0,0,0-.56-.56,1.57,1.57,0,0,0-.85-.22,1.6,1.6,0,0,0-1.35.61,2.82,2.82,0,0,0-.47,1.75,3.62,3.62,0,0,0,.1.84,2.34,2.34,0,0,0,.32.75,1.73,1.73,0,0,0,.57.54,1.64,1.64,0,0,0,.85.21,1.56,1.56,0,0,0,1.33-.66,2.17,2.17,0,0,0,.34-.74A3.75,3.75,0,0,0,48.33,169.15Z"/><path class="cls-6" d="M51.21,175V163h1v12Z"/><path class="cls-7" d="M28.54,148l-.62-1.82H25L24.34,148H23.07l2.57-7.13h1.69L29.85,148Zm-2.07-6.21h0l-1.17,3.44h2.33Z"/><path class="cls-7" d="M33.68,140.71a3.78,3.78,0,0,1,1.1.15,2.88,2.88,0,0,1,.89.44,2.45,2.45,0,0,1,.64.71,2.66,2.66,0,0,1,.34.94H35.43a1.58,1.58,0,0,0-.21-.47,1.49,1.49,0,0,0-.37-.38,1.79,1.79,0,0,0-.52-.26,2.28,2.28,0,0,0-1.64.13,2,2,0,0,0-.7.6,2.58,2.58,0,0,0-.42.86,3.75,3.75,0,0,0-.14,1,3.68,3.68,0,0,0,.13,1,2.55,2.55,0,0,0,.4.85,2.1,2.1,0,0,0,.69.6,2.07,2.07,0,0,0,1,.23,2,2,0,0,0,.71-.12,1.66,1.66,0,0,0,.93-.84,2.23,2.23,0,0,0,.2-.65h1.22a3.53,3.53,0,0,1-.29,1A2.67,2.67,0,0,1,34.91,148a3.45,3.45,0,0,1-1.24.21,3.54,3.54,0,0,1-1.43-.28,3.21,3.21,0,0,1-1.1-.78,3.46,3.46,0,0,1-.7-1.17,4.33,4.33,0,0,1-.24-1.48,4.43,4.43,0,0,1,.23-1.43,3.58,3.58,0,0,1,.67-1.19,3.2,3.2,0,0,1,1.09-.82A3.48,3.48,0,0,1,33.68,140.71Z"/><path class="cls-7" d="M42.81,140.86v1.05H40.54V148H39.3v-6.08H37v-1.05Z"/><path class="cls-7" d="M45,140.86V148H43.79v-7.14Z"/><path class="cls-7" d="M47.27,140.86l1.86,5.73h0L51,140.86h1.3L49.83,148H48.42L46,140.86Z"/><path class="cls-7" d="M58.4,140.87v1.05H54.46v1.9H58.1v1H54.46V147h4v1H53.21v-7.13Z"/></g></svg>