<svg xmlns="http://www.w3.org/2000/svg" viewBox="0 0 212 146"><defs><style>.cls-1{fill:#fff;opacity:0.6;}.cls-2{opacity:0.4;}.cls-3{fill:#969696;}.cls-4{fill:#787878;}.cls-5{fill:#444;}</style></defs><title>Artboard 53</title><g id="Content"><rect class="cls-1" x="16" y="18" width="178" height="40"/><g class="cls-2"><path class="cls-3" d="M194,18V58H16V18H194m1-1H15V59H195V17Z"/></g><path class="cls-4" d="M27.61,33v8.57h-1.5V33Z"/><path class="cls-4" d="M33.07,34.86a3.25,3.25,0,0,1,1.1.16,1.8,1.8,0,0,1,.74.49,2,2,0,0,1,.42.81,4.28,4.28,0,0,1,.13,1.12v4.17H34v-3.9a2.11,2.11,0,0,0-.32-1.27,1.19,1.19,0,0,0-1-.43,1.48,1.48,0,0,0-1.23.52A2.28,2.28,0,0,0,31,38v3.63H29.6V35H31v1h0a2.14,2.14,0,0,1,.37-.5,2.24,2.24,0,0,1,.48-.37,2.34,2.34,0,0,1,.57-.23A2.51,2.51,0,0,1,33.07,34.86Z"/><path class="cls-4" d="M38.86,32.53v9.08H37.42V32.53Z"/><path class="cls-4" d="M42.31,32.18V33.6H40.86V32.18Zm0,2.86v6.57H40.86V35Z"/><path class="cls-4" d="M47.72,34.86a3.25,3.25,0,0,1,1.1.16,1.8,1.8,0,0,1,.74.49,2,2,0,0,1,.42.81,4.28,4.28,0,0,1,.13,1.12v4.17H48.68v-3.9a2.11,2.11,0,0,0-.32-1.27,1.19,1.19,0,0,0-1-.43,1.48,1.48,0,0,0-1.23.52A2.28,2.28,0,0,0,45.69,38v3.63H44.25V35h1.38v1h0a2.14,2.14,0,0,1,.37-.5,2.24,2.24,0,0,1,.48-.37,2.34,2.34,0,0,1,.57-.23A2.51,2.51,0,0,1,47.72,34.86Z"/><path class="cls-4" d="M54.86,34.86a3,3,0,0,1,1.34.28,2.78,2.78,0,0,1,1,.77,3.33,3.33,0,0,1,.58,1.13,4.76,4.76,0,0,1,.19,1.37v.26H53.09a2.77,2.77,0,0,0,.13.81,1.9,1.9,0,0,0,.35.63,1.55,1.55,0,0,0,.54.41,1.7,1.7,0,0,0,.72.15,1.9,1.9,0,0,0,1-.23,1.7,1.7,0,0,0,.61-.6h1.37a3.06,3.06,0,0,1-.45.81,2.83,2.83,0,0,1-.66.62,3,3,0,0,1-.85.39,3.66,3.66,0,0,1-1,.13,3.28,3.28,0,0,1-1.33-.26,2.82,2.82,0,0,1-1-.72,3.18,3.18,0,0,1-.62-1.1,4.31,4.31,0,0,1-.22-1.4A4,4,0,0,1,51.86,37a3.3,3.3,0,0,1,.63-1.1,3,3,0,0,1,1-.76A3.16,3.16,0,0,1,54.86,34.86Zm1.63,2.85a2.77,2.77,0,0,0-.16-.71,1.73,1.73,0,0,0-.33-.55,1.43,1.43,0,0,0-.5-.35,1.91,1.91,0,0,0-1.37,0,1.51,1.51,0,0,0-.52.36,1.79,1.79,0,0,0-.35.55,2.54,2.54,0,0,0-.17.7Z"/><path class="cls-4" d="M64.43,32.53v9.08H63V32.53Z"/><path class="cls-4" d="M72.52,41.61l-.44.09-.39,0a1.79,1.79,0,0,1-.42,0,.91.91,0,0,1-.34-.16.84.84,0,0,1-.24-.29,1.28,1.28,0,0,1-.12-.45h0a2.67,2.67,0,0,1-.45.46,2.3,2.3,0,0,1-.52.31,3.32,3.32,0,0,1-1.31.24,2.42,2.42,0,0,1-1.62-.51,1.77,1.77,0,0,1-.6-1.45,1.7,1.7,0,0,1,.6-1.42,2.11,2.11,0,0,1,.58-.32,4.68,4.68,0,0,1,.73-.2q.39-.08.82-.13l.87-.1.34-.07a.8.8,0,0,0,.27-.13.59.59,0,0,0,.17-.22.79.79,0,0,0,.06-.33,1,1,0,0,0-.31-.79,2.11,2.11,0,0,0-2.05,0,1,1,0,0,0-.39.73H66.27a2,2,0,0,1,.28-.9,2,2,0,0,1,.62-.62,2.88,2.88,0,0,1,.9-.36,5.08,5.08,0,0,1,1.13-.12,3.42,3.42,0,0,1,2,.5,1.65,1.65,0,0,1,.67,1.41v3.54a.47.47,0,0,0,.08.3.33.33,0,0,0,.27.1h.12l.13,0Zm-2-3.35h0a1,1,0,0,1-.54.23l-.48.08-.65.11a2.2,2.2,0,0,0-1,.37.87.87,0,0,0-.32.72.89.89,0,0,0,.37.76,1.48,1.48,0,0,0,.87.24A1.79,1.79,0,0,0,70,40.34a1.59,1.59,0,0,0,.49-1.24Z"/><path class="cls-4" d="M80.31,38.33a4.85,4.85,0,0,1-.17,1.28,3.47,3.47,0,0,1-.52,1.11,2.65,2.65,0,0,1-.88.79,2.51,2.51,0,0,1-1.25.3,2.93,2.93,0,0,1-1.36-.3,1.9,1.9,0,0,1-.86-.87h0v1H73.88V32.53h1.44V36h0a1.88,1.88,0,0,1,.36-.47,2.16,2.16,0,0,1,.5-.36,2.68,2.68,0,0,1,.61-.23,2.85,2.85,0,0,1,.68-.08,2.52,2.52,0,0,1,1.24.29,2.66,2.66,0,0,1,.88.78A3.4,3.4,0,0,1,80.14,37,4.87,4.87,0,0,1,80.31,38.33Zm-1.45,0a3.74,3.74,0,0,0-.09-.82,2.52,2.52,0,0,0-.3-.76,1.71,1.71,0,0,0-.54-.56,1.5,1.5,0,0,0-.83-.22,1.57,1.57,0,0,0-.82.21,1.71,1.71,0,0,0-.56.54,2.39,2.39,0,0,0-.32.75,3.63,3.63,0,0,0-.1.86,3.68,3.68,0,0,0,.1.83,2.37,2.37,0,0,0,.31.76,1.76,1.76,0,0,0,.56.55,1.57,1.57,0,0,0,.84.21,1.49,1.49,0,0,0,.8-.21,1.69,1.69,0,0,0,.54-.54,2.43,2.43,0,0,0,.31-.75A3.94,3.94,0,0,0,78.86,38.33Z"/><path class="cls-4" d="M84.76,34.86a3,3,0,0,1,1.34.28,2.78,2.78,0,0,1,1,.77,3.33,3.33,0,0,1,.58,1.13,4.76,4.76,0,0,1,.19,1.37v.26H83a2.77,2.77,0,0,0,.13.81,1.9,1.9,0,0,0,.35.63,1.55,1.55,0,0,0,.54.41,1.7,1.7,0,0,0,.72.15,1.9,1.9,0,0,0,1-.23,1.7,1.7,0,0,0,.61-.6h1.37a3.06,3.06,0,0,1-.45.81,2.83,2.83,0,0,1-.66.62,3,3,0,0,1-.85.39,3.66,3.66,0,0,1-1,.13,3.28,3.28,0,0,1-1.33-.26,2.82,2.82,0,0,1-1-.72,3.18,3.18,0,0,1-.62-1.1,4.31,4.31,0,0,1-.22-1.4A4,4,0,0,1,81.76,37a3.3,3.3,0,0,1,.63-1.1,3,3,0,0,1,1-.76A3.16,3.16,0,0,1,84.76,34.86Zm1.63,2.85a2.77,2.77,0,0,0-.16-.71,1.73,1.73,0,0,0-.33-.55,1.43,1.43,0,0,0-.5-.35,1.91,1.91,0,0,0-1.37,0,1.51,1.51,0,0,0-.52.36,1.79,1.79,0,0,0-.35.55,2.54,2.54,0,0,0-.17.7Z"/><path class="cls-4" d="M90.85,32.53v9.08H89.4V32.53Z"/><rect class="cls-1" x="16" y="88" width="178" height="40"/><g class="cls-2"><path class="cls-3" d="M194,88v40H16V88H194m1-1H15v42H195V87Z"/></g><path class="cls-4" d="M27.18,94.47v7.14H25.93V94.47Z"/><path class="cls-4" d="M31.73,96a2.7,2.7,0,0,1,.92.14,1.5,1.5,0,0,1,.62.41,1.62,1.62,0,0,1,.35.67,3.57,3.57,0,0,1,.11.94v3.48h-1.2V98.36a1.76,1.76,0,0,0-.26-1.05,1,1,0,0,0-.85-.36,1.23,1.23,0,0,0-1,.43A1.9,1.9,0,0,0,30,98.59v3h-1.2V96.13H30V97h0a1.78,1.78,0,0,1,.31-.42,1.86,1.86,0,0,1,.4-.31,2,2,0,0,1,.47-.19A2.09,2.09,0,0,1,31.73,96Z"/><path class="cls-4" d="M36.56,94v7.57H35.36V94Z"/><path class="cls-4" d="M39.43,93.75v1.18H38.23V93.75Zm0,2.38v5.48H38.23V96.13Z"/><path class="cls-4" d="M43.94,96a2.7,2.7,0,0,1,.92.14,1.5,1.5,0,0,1,.62.41,1.62,1.62,0,0,1,.35.67,3.57,3.57,0,0,1,.11.94v3.48h-1.2V98.36a1.76,1.76,0,0,0-.26-1.05,1,1,0,0,0-.85-.36,1.23,1.23,0,0,0-1,.43,1.9,1.9,0,0,0-.34,1.21v3h-1.2V96.13h1.15V97h0a1.78,1.78,0,0,1,.31-.42,1.86,1.86,0,0,1,.4-.31,2,2,0,0,1,.47-.19A2.09,2.09,0,0,1,43.94,96Z"/><path class="cls-4" d="M49.89,96a2.51,2.51,0,0,1,1.12.24,2.32,2.32,0,0,1,.8.64,2.77,2.77,0,0,1,.48.94A4,4,0,0,1,52.46,99v.22h-4a2.3,2.3,0,0,0,.11.68,1.59,1.59,0,0,0,.29.52,1.29,1.29,0,0,0,.45.34,1.41,1.41,0,0,0,.6.12,1.59,1.59,0,0,0,.81-.19,1.41,1.41,0,0,0,.51-.5h1.14a2.55,2.55,0,0,1-.38.68,2.36,2.36,0,0,1-.55.51,2.51,2.51,0,0,1-.71.32,3.05,3.05,0,0,1-.84.11,2.73,2.73,0,0,1-1.11-.21,2.35,2.35,0,0,1-.83-.6,2.65,2.65,0,0,1-.52-.91,3.58,3.58,0,0,1-.18-1.16,3.37,3.37,0,0,1,.18-1.11,2.75,2.75,0,0,1,.52-.92,2.53,2.53,0,0,1,.84-.63A2.63,2.63,0,0,1,49.89,96Zm1.36,2.37a2.31,2.31,0,0,0-.14-.59,1.44,1.44,0,0,0-.28-.46,1.19,1.19,0,0,0-.42-.3,1.59,1.59,0,0,0-1.14,0,1.26,1.26,0,0,0-.43.3,1.5,1.5,0,0,0-.29.46,2.12,2.12,0,0,0-.14.58Z"/><path class="cls-4" d="M57.87,94v7.57H56.66V94Z"/><path class="cls-4" d="M64.61,101.61l-.37.07-.33,0a1.5,1.5,0,0,1-.35,0,.75.75,0,0,1-.28-.13.7.7,0,0,1-.2-.24,1.06,1.06,0,0,1-.1-.37h0a2.22,2.22,0,0,1-.38.38,1.92,1.92,0,0,1-.44.26,2.77,2.77,0,0,1-1.09.2,2,2,0,0,1-1.35-.42,1.47,1.47,0,0,1-.5-1.21,1.42,1.42,0,0,1,.5-1.18,1.76,1.76,0,0,1,.48-.26,3.91,3.91,0,0,1,.61-.17l.69-.1.73-.09.28-.06a.66.66,0,0,0,.22-.11.49.49,0,0,0,.14-.19.66.66,0,0,0,.05-.27.82.82,0,0,0-.26-.66,1.76,1.76,0,0,0-1.71,0,.83.83,0,0,0-.33.61H59.4a1.67,1.67,0,0,1,.24-.75,1.63,1.63,0,0,1,.52-.52,2.39,2.39,0,0,1,.75-.3,4.24,4.24,0,0,1,.94-.1,2.85,2.85,0,0,1,1.7.42,1.38,1.38,0,0,1,.56,1.17v3a.39.39,0,0,0,.07.25.28.28,0,0,0,.23.08h.1l.1,0Zm-1.7-2.79h0a.79.79,0,0,1-.45.19l-.4.07-.54.09a1.83,1.83,0,0,0-.82.31.72.72,0,0,0-.27.6.74.74,0,0,0,.31.63,1.23,1.23,0,0,0,.73.2,1.49,1.49,0,0,0,1.05-.36,1.32,1.32,0,0,0,.41-1Z"/><path class="cls-4" d="M71.1,98.87A4,4,0,0,1,71,99.94a2.89,2.89,0,0,1-.43.93,2.21,2.21,0,0,1-.73.65,2.09,2.09,0,0,1-1,.25,2.45,2.45,0,0,1-1.13-.25,1.58,1.58,0,0,1-.72-.73h0v.82H65.75V94h1.2v2.89h0a1.57,1.57,0,0,1,.3-.4,1.8,1.8,0,0,1,.42-.3,2.22,2.22,0,0,1,.51-.19,2.38,2.38,0,0,1,.56-.07,2.1,2.1,0,0,1,1,.24,2.21,2.21,0,0,1,.73.65,2.83,2.83,0,0,1,.43.92A4.07,4.07,0,0,1,71.1,98.87Zm-1.21,0a3.11,3.11,0,0,0-.08-.68,2.09,2.09,0,0,0-.25-.63,1.43,1.43,0,0,0-.45-.47,1.25,1.25,0,0,0-.69-.18,1.31,1.31,0,0,0-.69.17,1.42,1.42,0,0,0-.47.45,2,2,0,0,0-.27.63,3,3,0,0,0-.09.72,3.07,3.07,0,0,0,.08.69,2,2,0,0,0,.26.63,1.47,1.47,0,0,0,.47.46,1.31,1.31,0,0,0,.7.18,1.24,1.24,0,0,0,.67-.17,1.4,1.4,0,0,0,.45-.45,2,2,0,0,0,.26-.63A3.31,3.31,0,0,0,69.89,98.88Z"/><path class="cls-4" d="M74.81,96a2.51,2.51,0,0,1,1.12.24,2.32,2.32,0,0,1,.8.64,2.77,2.77,0,0,1,.48.94A4,4,0,0,1,77.38,99v.22h-4a2.3,2.3,0,0,0,.11.68,1.59,1.59,0,0,0,.29.52,1.29,1.29,0,0,0,.45.34,1.41,1.41,0,0,0,.6.12,1.59,1.59,0,0,0,.81-.19,1.41,1.41,0,0,0,.51-.5h1.14a2.55,2.55,0,0,1-.38.68,2.36,2.36,0,0,1-.55.51,2.51,2.51,0,0,1-.71.32,3.05,3.05,0,0,1-.84.11,2.73,2.73,0,0,1-1.11-.21,2.35,2.35,0,0,1-.83-.6,2.65,2.65,0,0,1-.52-.91,3.58,3.58,0,0,1-.18-1.16,3.37,3.37,0,0,1,.18-1.11,2.75,2.75,0,0,1,.52-.92,2.53,2.53,0,0,1,.84-.63A2.63,2.63,0,0,1,74.81,96Zm1.36,2.37a2.31,2.31,0,0,0-.14-.59,1.44,1.44,0,0,0-.28-.46,1.19,1.19,0,0,0-.42-.3,1.59,1.59,0,0,0-1.14,0,1.26,1.26,0,0,0-.43.3,1.5,1.5,0,0,0-.29.46,2.12,2.12,0,0,0-.14.58Z"/><path class="cls-4" d="M79.88,94v7.57H78.68V94Z"/><path class="cls-5" d="M27.61,110v8.57h-1.5V110Z"/><path class="cls-5" d="M33.07,111.86a3.25,3.25,0,0,1,1.1.16,1.8,1.8,0,0,1,.74.49,2,2,0,0,1,.42.81,4.28,4.28,0,0,1,.13,1.12v4.17H34v-3.9a2.11,2.11,0,0,0-.32-1.27,1.19,1.19,0,0,0-1-.43,1.48,1.48,0,0,0-1.23.52A2.28,2.28,0,0,0,31,115v3.63H29.6V112H31v1h0a2.14,2.14,0,0,1,.37-.5,2.24,2.24,0,0,1,.48-.37,2.34,2.34,0,0,1,.57-.23A2.51,2.51,0,0,1,33.07,111.86Z"/><path class="cls-5" d="M43.83,115.37a4.55,4.55,0,0,1-.08.85,4.15,4.15,0,0,1-.23.8,3.31,3.31,0,0,1-.4.71,2.59,2.59,0,0,1-.57.57,2.64,2.64,0,0,1-.73.37,2.87,2.87,0,0,1-.91.13,2.61,2.61,0,0,1-.63-.08,2.42,2.42,0,0,1-.58-.22,2.29,2.29,0,0,1-.5-.36,2,2,0,0,1-.38-.5h0V121H37.37V112h1.37v1h0a2.08,2.08,0,0,1,.86-.88,2.59,2.59,0,0,1,1.23-.29,2.88,2.88,0,0,1,1.31.28,2.67,2.67,0,0,1,.93.76,3.3,3.3,0,0,1,.55,1.12A4.85,4.85,0,0,1,43.83,115.37Zm-1.45,0a3.92,3.92,0,0,0-.09-.83,2.38,2.38,0,0,0-.3-.76,1.72,1.72,0,0,0-.56-.56,1.57,1.57,0,0,0-.85-.22,1.6,1.6,0,0,0-1.35.61,2.82,2.82,0,0,0-.47,1.75,3.62,3.62,0,0,0,.1.84,2.34,2.34,0,0,0,.32.75,1.73,1.73,0,0,0,.57.54,1.64,1.64,0,0,0,.85.21,1.56,1.56,0,0,0,1.33-.66,2.17,2.17,0,0,0,.34-.74A3.75,3.75,0,0,0,42.38,115.34Z"/><path class="cls-5" d="M49.9,118.61v-1h0a2.25,2.25,0,0,1-.39.52,2.3,2.3,0,0,1-.5.37,2.49,2.49,0,0,1-.58.23,2.54,2.54,0,0,1-.64.08,2.3,2.3,0,0,1-1.78-.63,2.81,2.81,0,0,1-.57-1.95V112h1.44v4a2.89,2.89,0,0,0,.08.7,1.37,1.37,0,0,0,.24.52,1,1,0,0,0,.42.32,1.82,1.82,0,0,0,1.36,0,1.37,1.37,0,0,0,.5-.43,1.86,1.86,0,0,0,.29-.66,3.72,3.72,0,0,0,.09-.85V112h1.44v6.57Z"/><path class="cls-5" d="M56.44,118.66h-.83a4.59,4.59,0,0,1-.74-.06,1.58,1.58,0,0,1-.6-.22,1.12,1.12,0,0,1-.4-.45,1.67,1.67,0,0,1-.15-.76v-4.15H52.44v-1h1.29v-2h1.45v2h1.5v1h-1.5v3.72a.83.83,0,0,0,.17.58.8.8,0,0,0,.59.18h.57l.17,0v1.14Z"/><path class="cls-5" d="M64.83,118.66H64a4.59,4.59,0,0,1-.74-.06,1.58,1.58,0,0,1-.6-.22,1.12,1.12,0,0,1-.4-.45,1.67,1.67,0,0,1-.15-.76v-4.15H60.82v-1h1.29v-2h1.45v2h1.5v1h-1.5v3.72a.83.83,0,0,0,.17.58.8.8,0,0,0,.59.18h.57l.17,0v1.14Z"/><path class="cls-5" d="M69.22,111.86a3,3,0,0,1,1.34.28,2.78,2.78,0,0,1,1,.77,3.33,3.33,0,0,1,.58,1.13,4.76,4.76,0,0,1,.19,1.37v.26H67.45a2.77,2.77,0,0,0,.13.81,1.9,1.9,0,0,0,.35.63,1.55,1.55,0,0,0,.54.41,1.7,1.7,0,0,0,.72.15,1.9,1.9,0,0,0,1-.23,1.7,1.7,0,0,0,.61-.6h1.37a3.06,3.06,0,0,1-.45.81,2.83,2.83,0,0,1-.66.62,3,3,0,0,1-.85.39,3.66,3.66,0,0,1-1,.13,3.28,3.28,0,0,1-1.33-.26,2.82,2.82,0,0,1-1-.72,3.18,3.18,0,0,1-.62-1.1,4.31,4.31,0,0,1-.22-1.4,4,4,0,0,1,.22-1.33,3.3,3.3,0,0,1,.63-1.1,3,3,0,0,1,1-.76A3.16,3.16,0,0,1,69.22,111.86Zm1.63,2.85a2.77,2.77,0,0,0-.16-.71,1.73,1.73,0,0,0-.33-.55,1.43,1.43,0,0,0-.5-.35,1.91,1.91,0,0,0-1.37,0,1.51,1.51,0,0,0-.52.36,1.79,1.79,0,0,0-.35.55,2.54,2.54,0,0,0-.17.7Z"/><path class="cls-5" d="M74.66,112l1.41,2,1.39-2H79.1l-2.23,3.11,2.47,3.47H77.66L76,116.29l-1.61,2.32H72.78l2.43-3.44L73,112Z"/><path class="cls-5" d="M83.7,118.66h-.83a4.59,4.59,0,0,1-.74-.06,1.58,1.58,0,0,1-.6-.22,1.12,1.12,0,0,1-.4-.45,1.67,1.67,0,0,1-.15-.76v-4.15H79.7v-1H81v-2h1.45v2h1.5v1h-1.5v3.72a.83.83,0,0,0,.17.58.8.8,0,0,0,.59.18h.57l.17,0v1.14Z"/></g></svg>