<svg id="Layer_1" data-name="Layer 1" xmlns="http://www.w3.org/2000/svg" viewBox="0 0 1238 563.77"><defs><style>.cls-1{fill:#0096ea;}.cls-13,.cls-15,.cls-2,.cls-3,.cls-4{fill:none;}.cls-14,.cls-15,.cls-16,.cls-2,.cls-4,.cls-6{stroke:#0096ea;}.cls-11,.cls-13,.cls-16,.cls-2,.cls-3,.cls-4,.cls-6,.cls-8,.cls-9{stroke-miterlimit:10;}.cls-11,.cls-13,.cls-2,.cls-3,.cls-4,.cls-6{stroke-width:2px;}.cls-3,.cls-8,.cls-9{stroke:#004b7a;}.cls-4{stroke-dasharray:8 8;}.cls-14,.cls-16,.cls-5,.cls-6,.cls-8,.cls-9{fill:#fff;}.cls-11,.cls-7{fill:#004b7a;}.cls-8{stroke-width:1.5px;}.cls-9{stroke-width:2.17px;}.cls-10{fill:#f1f2f2;}.cls-11{stroke:#fff;}.cls-12{fill:#fafafa;}.cls-13{stroke:#fafafa;}.cls-14,.cls-15{stroke-linejoin:round;}.cls-16{stroke-width:1.5px;}</style></defs><title>Design process</title><line class="cls-1" x1="971.76" y1="313.88" x2="971.76" y2="165.3"/><line class="cls-2" x1="971.76" y1="299.53" x2="971.76" y2="165.3"/><polygon class="cls-1" points="981.73 296.61 971.76 313.88 961.78 296.61 981.73 296.61"/><rect class="cls-3" x="322.27" y="10.04" width="392.58" height="240"/><polyline class="cls-4" points="804.37 434.6 513 434.6 513 330.25"/><polygon class="cls-1" points="522.98 333.17 513 315.9 503.03 333.17 522.98 333.17"/><rect class="cls-5" x="600.88" y="413.78" width="84.06" height="41.65"/><path class="cls-1" d="M624.94,438a2.76,2.76,0,0,1-.34,1.41,2.83,2.83,0,0,1-.91,1,4.12,4.12,0,0,1-1.32.55,6.92,6.92,0,0,1-1.56.17,6.05,6.05,0,0,1-1.59-.2,3.93,3.93,0,0,1-1.29-.6,2.9,2.9,0,0,1-.86-1,2.77,2.77,0,0,1-.31-1.34v-.12h1.72v.06a1.56,1.56,0,0,0,.19.79,1.64,1.64,0,0,0,.53.56,2.48,2.48,0,0,0,.78.33,4.22,4.22,0,0,0,1.85,0,2.41,2.41,0,0,0,.73-.29,1.53,1.53,0,0,0,.5-.48,1.24,1.24,0,0,0,.18-.68,1.08,1.08,0,0,0-.43-.89,3.81,3.81,0,0,0-1.36-.59l-2.15-.57a3.3,3.3,0,0,1-1.67-.91,2.34,2.34,0,0,1-.55-1.62,2.62,2.62,0,0,1,.3-1.28,2.76,2.76,0,0,1,.82-.92,3.75,3.75,0,0,1,1.2-.56,5.38,5.38,0,0,1,1.45-.19,5.49,5.49,0,0,1,1.38.17,3.78,3.78,0,0,1,1.19.53,2.7,2.7,0,0,1,.83.9,2.62,2.62,0,0,1,.32,1.27h-1.7a1.44,1.44,0,0,0-.18-.6,1.48,1.48,0,0,0-.43-.47,2.14,2.14,0,0,0-.64-.3,2.9,2.9,0,0,0-.83-.11,3.42,3.42,0,0,0-.78.08,2.06,2.06,0,0,0-.64.26,1.34,1.34,0,0,0-.44.45,1.23,1.23,0,0,0-.16.64,1.16,1.16,0,0,0,.08.46.93.93,0,0,0,.23.33,1.27,1.27,0,0,0,.36.23,3.56,3.56,0,0,0,.47.16l2.36.62a4.3,4.3,0,0,1,2,1A2.36,2.36,0,0,1,624.94,438Z"/><path class="cls-1" d="M631.8,440.87v-1.18h0a2.62,2.62,0,0,1-.46.6,2.66,2.66,0,0,1-.58.43,2.91,2.91,0,0,1-.68.27,3,3,0,0,1-.74.09,2.69,2.69,0,0,1-2.08-.73,3.28,3.28,0,0,1-.67-2.27V433.2h1.68v4.61a3.38,3.38,0,0,0,.09.81,1.6,1.6,0,0,0,.28.6,1.23,1.23,0,0,0,.5.38,2.12,2.12,0,0,0,1.59-.05,1.6,1.6,0,0,0,.58-.5,2.17,2.17,0,0,0,.33-.77,4.32,4.32,0,0,0,.11-1V433.2h1.68v7.67Z"/><path class="cls-1" d="M643.15,437.09a5.3,5.3,0,0,1-.09,1,4.85,4.85,0,0,1-.27.93,3.85,3.85,0,0,1-.46.83,3,3,0,0,1-.66.66,3,3,0,0,1-.85.43,3.36,3.36,0,0,1-1.06.16A3,3,0,0,1,639,441a2.82,2.82,0,0,1-.67-.26,2.67,2.67,0,0,1-.58-.42,2.37,2.37,0,0,1-.44-.58h0v3.88h-1.68V433.2h1.59v1.16h0a2.43,2.43,0,0,1,1-1,3,3,0,0,1,1.44-.34,3.36,3.36,0,0,1,1.53.33,3.12,3.12,0,0,1,1.08.88,3.86,3.86,0,0,1,.65,1.3A5.66,5.66,0,0,1,643.15,437.09Zm-1.69,0a4.56,4.56,0,0,0-.11-1,2.79,2.79,0,0,0-.35-.89,2,2,0,0,0-.65-.65,1.83,1.83,0,0,0-1-.25,1.87,1.87,0,0,0-1.57.71,3.3,3.3,0,0,0-.55,2,4.22,4.22,0,0,0,.12,1,2.74,2.74,0,0,0,.37.88,2,2,0,0,0,.66.63,1.93,1.93,0,0,0,2.54-.53,2.53,2.53,0,0,0,.39-.87A4.38,4.38,0,0,0,641.46,437Z"/><path class="cls-1" d="M652.53,437.09a5.3,5.3,0,0,1-.09,1,4.85,4.85,0,0,1-.27.93,3.85,3.85,0,0,1-.46.83,3,3,0,0,1-.66.66,3,3,0,0,1-.85.43,3.36,3.36,0,0,1-1.06.16,3,3,0,0,1-.73-.09,2.82,2.82,0,0,1-.67-.26,2.67,2.67,0,0,1-.58-.42,2.37,2.37,0,0,1-.44-.58h0v3.88H645V433.2h1.59v1.16h0a2.43,2.43,0,0,1,1-1,3,3,0,0,1,1.44-.34,3.36,3.36,0,0,1,1.53.33,3.12,3.12,0,0,1,1.08.88,3.86,3.86,0,0,1,.65,1.3A5.66,5.66,0,0,1,652.53,437.09Zm-1.69,0a4.56,4.56,0,0,0-.11-1,2.79,2.79,0,0,0-.35-.89,2,2,0,0,0-.65-.65,1.83,1.83,0,0,0-1-.25,1.87,1.87,0,0,0-1.57.71,3.3,3.3,0,0,0-.55,2,4.22,4.22,0,0,0,.12,1,2.74,2.74,0,0,0,.37.88,2,2,0,0,0,.66.63,1.93,1.93,0,0,0,2.54-.53,2.53,2.53,0,0,0,.39-.87A4.38,4.38,0,0,0,650.84,437Z"/><path class="cls-1" d="M661.72,437a4.78,4.78,0,0,1-.26,1.61,3.61,3.61,0,0,1-.79,1.29,3.46,3.46,0,0,1-1.21.85,4.07,4.07,0,0,1-1.59.29,3.64,3.64,0,0,1-2.78-1.12,4.59,4.59,0,0,1,0-5.85,3.62,3.62,0,0,1,2.79-1.12,3.68,3.68,0,0,1,2.8,1.12A4.13,4.13,0,0,1,661.72,437ZM660,437a4.18,4.18,0,0,0-.13-1.08,2.57,2.57,0,0,0-.4-.87,2,2,0,0,0-.68-.58,2.06,2.06,0,0,0-1-.21,2,2,0,0,0-.9.2,1.89,1.89,0,0,0-.67.56,2.61,2.61,0,0,0-.42.87,4.42,4.42,0,0,0,0,2.22,2.56,2.56,0,0,0,.41.87,2,2,0,0,0,.67.57,2,2,0,0,0,.92.21,2,2,0,0,0,.92-.21,2,2,0,0,0,.68-.57,2.61,2.61,0,0,0,.42-.87A4,4,0,0,0,660,437Z"/><path class="cls-1" d="M663.6,440.87V433.2h1.59v1.56h0a2.8,2.8,0,0,1,1-1.26,2.6,2.6,0,0,1,1.5-.46H668l.24,0v1.59l-.29,0h-.33a2.15,2.15,0,0,0-1.73.7,2.76,2.76,0,0,0-.59,1.83v3.71Z"/><path class="cls-1" d="M673.63,440.93l-.33,0h-.64a5.28,5.28,0,0,1-.86-.07,1.84,1.84,0,0,1-.7-.25,1.31,1.31,0,0,1-.47-.52,2,2,0,0,1-.17-.88v-4.85H669V433.2h1.5v-2.3h1.69v2.3h1.75v1.19h-1.75v4.34a1,1,0,0,0,.19.68.94.94,0,0,0,.69.21h.67l.19,0v1.33Z"/><rect class="cls-6" x="789.09" y="314.6" width="240" height="240"/><polygon class="cls-7" points="170.53 123.63 170.53 139.79 179.15 136.63 176.33 121.13 170.53 123.63"/><polygon class="cls-7" points="198.04 123.63 198.04 139.79 189.42 136.63 192.24 121.13 198.04 123.63"/><polygon class="cls-8" points="35.54 142.95 28.14 142.95 20.43 142.95 13.04 142.95 4.8 171.04 11.7 180.65 24.29 180.65 36.87 180.65 43.77 171.04 35.54 142.95"/><ellipse class="cls-8" cx="24.08" cy="124.95" rx="13.51" ry="13.34" transform="translate(-101.02 148.21) rotate(-89.63)"/><polygon class="cls-7" points="20.25 142.95 22.71 147.87 19.95 165.15 24.23 172.3 24.23 172.3 24.23 172.3 24.23 172.3 28.61 165.21 26.07 147.89 28.62 142.95 20.25 142.95"/><path class="cls-7" d="M20.1,108.59s-1.35,13.85,17.23,11.88C38.64,120.33,32.05,104.37,20.1,108.59Z"/><path class="cls-7" d="M20.19,109.22s1.76,10.25-9.32,11.25C9.56,120.59,14.71,108.08,20.19,109.22Z"/><polygon class="cls-8" points="195.54 142.95 188.14 142.95 180.43 142.95 173.03 142.95 164.81 171.04 171.7 180.65 184.29 180.65 196.87 180.65 203.77 171.04 195.54 142.95"/><ellipse class="cls-8" cx="184.08" cy="124.95" rx="13.51" ry="13.34" transform="translate(57.93 308.2) rotate(-89.63)"/><ellipse class="cls-8" cx="103.58" cy="124.95" rx="13.51" ry="13.34" transform="translate(-22.04 227.71) rotate(-89.63)"/><path class="cls-8" d="M115,143h-5.31a7.15,7.15,0,0,1-12.39,0H92.53L84.31,171l6.9,9.61h25.17l6.9-9.61Z"/><polygon class="cls-7" points="44.03 107.14 44.03 130.42 56.45 125.86 52.38 103.53 44.03 107.14"/><polygon class="cls-7" points="83.67 107.14 83.67 130.42 71.25 125.86 75.32 103.53 83.67 107.14"/><ellipse class="cls-9" cx="63.88" cy="108.47" rx="19.5" ry="19.25" transform="translate(-45.01 171.64) rotate(-89.63)"/><polygon class="cls-9" points="76.32 133.03 70.53 133.03 63.88 142.94 57.6 133.03 51.34 133.03 43.31 143.85 35.71 194.55 45.66 208.42 45.66 208.42 63.83 208.42 81.99 208.42 81.99 208.42 91.95 194.55 84.06 143.77 76.32 133.03"/><polyline class="cls-7" points="56.88 133.03 51.57 133.03 51.57 142.94 59.9 137.98"/><path class="cls-7" d="M58.16,89.43s-1.92,19.72,24.53,16.91C84.55,106.15,75.17,83.42,58.16,89.43Z"/><path class="cls-7" d="M58.28,90.33s2.51,14.6-13.27,16C43.15,106.51,50.49,88.7,58.28,90.33Z"/><polyline class="cls-7" points="71.04 133.03 76.35 133.03 76.35 142.94 68.02 137.98"/><ellipse class="cls-9" cx="144.38" cy="108.47" rx="19.5" ry="19.25" transform="translate(34.96 252.14) rotate(-89.63)"/><polygon class="cls-9" points="156.82 133.03 151.03 133.03 138.1 133.03 131.84 133.03 123.81 143.85 116.21 194.55 126.17 208.42 126.17 208.42 144.33 208.42 162.49 208.42 162.49 208.42 172.45 194.55 164.56 143.77 156.82 133.03"/><path class="cls-7" d="M138.66,86.43s-36.16,18.1,24.53,16.91C165.06,103.31,155.67,80.42,138.66,86.43Z"/><path class="cls-7" d="M131.63,92.45s1.19,9.93-6.27,10.9C124.48,103.46,127.94,91.34,131.63,92.45Z"/><path class="cls-7" d="M103.67,108.44a13.42,13.42,0,0,0-13.43,13.42c0,.22,4-3.34,4-3.34h18.62s4,3.68,4,3.52A13.42,13.42,0,0,0,103.67,108.44Z"/><path class="cls-7" d="M184.17,108.44a13.42,13.42,0,0,0-13.43,13.42c0,.22,4-3.34,4-3.34h18.62s4,3.68,4,3.52A13.42,13.42,0,0,0,184.17,108.44Z"/><polygon class="cls-7" points="190.8 142.95 184.29 154.24 177.77 142.95 190.8 142.95"/><path class="cls-7" d="M151.47,148.79a9.75,9.75,0,0,0-7.09,3,9.75,9.75,0,0,0-7.09-3c-5.22,0-9.45,3.91-9.45,8.74,0,6.76,8.59,14.15,14.18,18.24.87.64,1.67,1.2,2.35,1.66.68-.46,1.48-1,2.35-1.66,5.6-4.09,14.18-11.48,14.18-18.24C160.91,152.71,156.69,148.79,151.47,148.79Z"/><path class="cls-10" d="M139,156.73v5.38a1.9,1.9,0,0,0,.42,1.37,1.79,1.79,0,0,0,1.34.44,2.82,2.82,0,0,0,.79-.1,1.28,1.28,0,0,0,.55-.32,1.33,1.33,0,0,0,.32-.56,2.81,2.81,0,0,0,.11-.83v-5.38h1.88v5.38a3.29,3.29,0,0,1-.93,2.49,3.77,3.77,0,0,1-2.72.9,5.08,5.08,0,0,1-1.59-.23,3,3,0,0,1-1.14-.66,3.27,3.27,0,0,1-.92-2.5v-5.38Z"/><path class="cls-10" d="M147.7,156.73l1.68,2.74,1.74-2.74h2.06l-2.75,4.09,3,4.48h-2.24l-1.87-3-1.91,3h-2.12l3-4.49-2.76-4.08Z"/><path class="cls-7" d="M78.11,40.9a2.76,2.76,0,0,1-.34,1.41,2.83,2.83,0,0,1-.91,1,4.12,4.12,0,0,1-1.32.55A6.92,6.92,0,0,1,74,44a6.05,6.05,0,0,1-1.59-.2,3.93,3.93,0,0,1-1.29-.6,2.9,2.9,0,0,1-.86-1,2.77,2.77,0,0,1-.31-1.34v-.12h1.72v.06a1.56,1.56,0,0,0,.19.79,1.64,1.64,0,0,0,.53.56,2.48,2.48,0,0,0,.78.33,4.22,4.22,0,0,0,1.85,0,2.41,2.41,0,0,0,.73-.29,1.53,1.53,0,0,0,.5-.48,1.24,1.24,0,0,0,.18-.68,1.08,1.08,0,0,0-.43-.89,3.81,3.81,0,0,0-1.36-.59L72.46,39a3.3,3.3,0,0,1-1.67-.91,2.34,2.34,0,0,1-.55-1.62,2.62,2.62,0,0,1,.3-1.28,2.76,2.76,0,0,1,.82-.92,3.75,3.75,0,0,1,1.2-.56A5.38,5.38,0,0,1,74,33.53a5.49,5.49,0,0,1,1.38.17,3.78,3.78,0,0,1,1.19.53,2.7,2.7,0,0,1,.83.9,2.62,2.62,0,0,1,.32,1.27H76a1.44,1.44,0,0,0-.18-.6,1.48,1.48,0,0,0-.43-.47,2.14,2.14,0,0,0-.64-.3,2.9,2.9,0,0,0-.83-.11,3.42,3.42,0,0,0-.78.08,2.06,2.06,0,0,0-.64.26,1.34,1.34,0,0,0-.44.45,1.23,1.23,0,0,0-.16.64,1.16,1.16,0,0,0,.08.46.93.93,0,0,0,.23.33,1.27,1.27,0,0,0,.36.23,3.56,3.56,0,0,0,.47.16l2.36.62a4.3,4.3,0,0,1,2,1A2.36,2.36,0,0,1,78.11,40.9Z"/><path class="cls-7" d="M87.08,39.93a4.78,4.78,0,0,1-.26,1.61A3.61,3.61,0,0,1,86,42.83a3.46,3.46,0,0,1-1.21.85,4.07,4.07,0,0,1-1.59.29,3.64,3.64,0,0,1-2.78-1.12,4.59,4.59,0,0,1,0-5.85,3.62,3.62,0,0,1,2.79-1.12A3.68,3.68,0,0,1,86,37,4.13,4.13,0,0,1,87.08,39.93Zm-1.69,0a4.18,4.18,0,0,0-.13-1.08,2.57,2.57,0,0,0-.4-.87,2,2,0,0,0-.68-.58,2.06,2.06,0,0,0-1-.21,2,2,0,0,0-.9.2,1.89,1.89,0,0,0-.67.56,2.61,2.61,0,0,0-.42.87,4.42,4.42,0,0,0,0,2.22,2.56,2.56,0,0,0,.41.87,2,2,0,0,0,.67.57,2,2,0,0,0,.92.21,2,2,0,0,0,.92-.21,2,2,0,0,0,.68-.57,2.61,2.61,0,0,0,.42-.87A4,4,0,0,0,85.39,39.93Z"/><path class="cls-7" d="M91.21,37.27v6.48H89.52V37.27H88V36.08h1.49v-.59a2.31,2.31,0,0,1,.61-1.77,1.91,1.91,0,0,1,.74-.42,3.53,3.53,0,0,1,1.05-.14h.51l.61.05v1.3l-.22,0-.24,0h-.4a1,1,0,0,0-.76.24,1.17,1.17,0,0,0-.22.8v.59h1.68v1.19Z"/><path class="cls-7" d="M98.05,43.81l-.33,0h-.64a5.28,5.28,0,0,1-.86-.07,1.84,1.84,0,0,1-.7-.25,1.31,1.31,0,0,1-.47-.52,2,2,0,0,1-.17-.88V37.27h-1.5V36.08h1.5v-2.3h1.69v2.3h1.75v1.19H96.57v4.34a1,1,0,0,0,.19.68.94.94,0,0,0,.69.21h.67l.19,0v1.33Z"/><path class="cls-7" d="M100.88,36.08l1.61,5.83h0L104,36.08h1.7l1.5,5.82h0l1.61-5.82h1.74l-2.44,7.67H106.4L104.85,38h0l-1.5,5.75h-1.77L99.1,36.08Z"/><path class="cls-7" d="M119.13,43.75a4.34,4.34,0,0,1-.51.1l-.46,0a2.1,2.1,0,0,1-.49-.05,1.06,1.06,0,0,1-.39-.18,1,1,0,0,1-.28-.34,1.5,1.5,0,0,1-.14-.52h0a3.1,3.1,0,0,1-.53.54,2.65,2.65,0,0,1-.61.37,3.88,3.88,0,0,1-1.53.28,2.83,2.83,0,0,1-1.89-.59,2.06,2.06,0,0,1-.7-1.69,2,2,0,0,1,.7-1.65,2.47,2.47,0,0,1,.68-.37,5.5,5.5,0,0,1,.85-.23q.46-.09,1-.15l1-.12a2.51,2.51,0,0,0,.39-.08.92.92,0,0,0,.31-.16.69.69,0,0,0,.2-.26.92.92,0,0,0,.07-.38,1.15,1.15,0,0,0-.36-.92,2.47,2.47,0,0,0-2.39,0,1.16,1.16,0,0,0-.46.85h-1.69a2.35,2.35,0,0,1,.33-1,2.29,2.29,0,0,1,.73-.72A3.37,3.37,0,0,1,114,36a5.94,5.94,0,0,1,1.31-.14,4,4,0,0,1,2.39.58,1.93,1.93,0,0,1,.78,1.64v4.14a.55.55,0,0,0,.09.35.39.39,0,0,0,.32.11H119l.15,0Zm-2.39-3.9h0a1.11,1.11,0,0,1-.64.27l-.56.1-.76.12a2.58,2.58,0,0,0-1.15.43,1,1,0,0,0-.37.84,1,1,0,0,0,.43.89,1.73,1.73,0,0,0,1,.28,2.09,2.09,0,0,0,1.48-.51,1.85,1.85,0,0,0,.57-1.45Z"/><path class="cls-7" d="M120.73,43.75V36.08h1.59v1.56h0a2.8,2.8,0,0,1,1-1.26,2.6,2.6,0,0,1,1.5-.46h.25l.24,0v1.59l-.29,0h-.33a2.15,2.15,0,0,0-1.73.7,2.76,2.76,0,0,0-.59,1.83v3.71Z"/><path class="cls-7" d="M129.84,35.88a3.5,3.5,0,0,1,1.57.33,3.25,3.25,0,0,1,1.12.9,3.89,3.89,0,0,1,.68,1.32,5.55,5.55,0,0,1,.23,1.6v.31h-5.66a3.24,3.24,0,0,0,.16.95,2.22,2.22,0,0,0,.4.73,1.81,1.81,0,0,0,.63.48,2,2,0,0,0,.84.17,2.22,2.22,0,0,0,1.14-.27,2,2,0,0,0,.71-.7h1.59a3.57,3.57,0,0,1-.53.95,3.31,3.31,0,0,1-.77.72,3.53,3.53,0,0,1-1,.45,4.28,4.28,0,0,1-1.18.16,3.83,3.83,0,0,1-1.55-.3,3.28,3.28,0,0,1-1.16-.84,3.7,3.7,0,0,1-.73-1.28,5,5,0,0,1-.25-1.63,4.73,4.73,0,0,1,.25-1.55,3.85,3.85,0,0,1,.73-1.29,3.54,3.54,0,0,1,1.18-.88A3.68,3.68,0,0,1,129.84,35.88Zm1.91,3.32a3.24,3.24,0,0,0-.19-.82,2,2,0,0,0-.39-.64,1.68,1.68,0,0,0-.59-.41,2.23,2.23,0,0,0-1.6,0,1.76,1.76,0,0,0-.6.42,2.08,2.08,0,0,0-.4.64,3,3,0,0,0-.2.82Z"/><path class="cls-7" d="M44.64,50v10.6H43V59.41h0a2.44,2.44,0,0,1-.43.58,2.52,2.52,0,0,1-.57.43,2.85,2.85,0,0,1-.69.27,3.31,3.31,0,0,1-.78.09A3.17,3.17,0,0,1,39,60.44a3.21,3.21,0,0,1-1.08-.9,3.94,3.94,0,0,1-.65-1.3,5.47,5.47,0,0,1-.22-1.56,5.28,5.28,0,0,1,.21-1.47,3.9,3.9,0,0,1,.63-1.28A3.21,3.21,0,0,1,39,53a3.39,3.39,0,0,1,2.24-.26,2.88,2.88,0,0,1,.67.25,2.39,2.39,0,0,1,1,1h0V50Zm-5.87,6.75a4.23,4.23,0,0,0,.11,1,2.84,2.84,0,0,0,.37.89,2.09,2.09,0,0,0,.65.66,1.75,1.75,0,0,0,1,.26,2,2,0,0,0,.92-.2,1.84,1.84,0,0,0,.67-.57,2.64,2.64,0,0,0,.4-.87A4.28,4.28,0,0,0,43,56.71a4.36,4.36,0,0,0-.11-1,2.7,2.7,0,0,0-.37-.87,2,2,0,0,0-.66-.63,1.91,1.91,0,0,0-1-.24,1.81,1.81,0,0,0-1,.24,2,2,0,0,0-.65.62,2.76,2.76,0,0,0-.37.88A4.57,4.57,0,0,0,38.77,56.71Z"/><path class="cls-7" d="M50.16,52.68a3.5,3.5,0,0,1,1.57.33,3.25,3.25,0,0,1,1.12.9,3.89,3.89,0,0,1,.68,1.32,5.55,5.55,0,0,1,.23,1.6v.31H48.1a3.24,3.24,0,0,0,.16.95,2.22,2.22,0,0,0,.4.73,1.81,1.81,0,0,0,.63.48,2,2,0,0,0,.84.17,2.22,2.22,0,0,0,1.14-.27,2,2,0,0,0,.71-.7h1.59a3.57,3.57,0,0,1-.53.95,3.31,3.31,0,0,1-.77.72,3.53,3.53,0,0,1-1,.45,4.28,4.28,0,0,1-1.18.16,3.83,3.83,0,0,1-1.55-.3,3.28,3.28,0,0,1-1.16-.84,3.7,3.7,0,0,1-.73-1.28,5,5,0,0,1-.25-1.63,4.73,4.73,0,0,1,.25-1.55,3.85,3.85,0,0,1,.73-1.29A3.54,3.54,0,0,1,48.58,53,3.68,3.68,0,0,1,50.16,52.68ZM52.07,56a3.24,3.24,0,0,0-.19-.82,2,2,0,0,0-.39-.64,1.68,1.68,0,0,0-.59-.41,2.23,2.23,0,0,0-1.6,0,1.76,1.76,0,0,0-.6.42,2.08,2.08,0,0,0-.4.64,3,3,0,0,0-.2.82Z"/><path class="cls-7" d="M56.4,52.88l1.91,6h0l1.89-6h1.68l-2.69,7.67H57.36l-2.75-7.67Z"/><path class="cls-7" d="M66.54,52.68a3.5,3.5,0,0,1,1.57.33,3.25,3.25,0,0,1,1.12.9,3.89,3.89,0,0,1,.68,1.32,5.55,5.55,0,0,1,.23,1.6v.31H64.48a3.24,3.24,0,0,0,.16.95,2.22,2.22,0,0,0,.4.73,1.81,1.81,0,0,0,.63.48,2,2,0,0,0,.84.17,2.22,2.22,0,0,0,1.14-.27,2,2,0,0,0,.71-.7H70a3.57,3.57,0,0,1-.53.95,3.31,3.31,0,0,1-.77.72,3.53,3.53,0,0,1-1,.45,4.28,4.28,0,0,1-1.18.16,3.83,3.83,0,0,1-1.55-.3,3.28,3.28,0,0,1-1.16-.84A3.7,3.7,0,0,1,63,58.36a5,5,0,0,1-.25-1.63A4.73,4.73,0,0,1,63,55.18a3.85,3.85,0,0,1,.73-1.29A3.54,3.54,0,0,1,65,53,3.68,3.68,0,0,1,66.54,52.68ZM68.45,56a3.24,3.24,0,0,0-.19-.82,2,2,0,0,0-.39-.64,1.68,1.68,0,0,0-.59-.41,2.23,2.23,0,0,0-1.6,0,1.76,1.76,0,0,0-.6.42,2.08,2.08,0,0,0-.4.64,3,3,0,0,0-.2.82Z"/><path class="cls-7" d="M73.64,50v10.6H71.95V50Z"/><path class="cls-7" d="M83.27,56.73A4.78,4.78,0,0,1,83,58.34a3.61,3.61,0,0,1-.79,1.29,3.46,3.46,0,0,1-1.21.85,4.07,4.07,0,0,1-1.59.29,3.64,3.64,0,0,1-2.78-1.12,4.59,4.59,0,0,1,0-5.85,3.62,3.62,0,0,1,2.79-1.12,3.68,3.68,0,0,1,2.8,1.12A4.13,4.13,0,0,1,83.27,56.73Zm-1.69,0a4.18,4.18,0,0,0-.13-1.08,2.57,2.57,0,0,0-.4-.87,2,2,0,0,0-.68-.58,2.06,2.06,0,0,0-1-.21,2,2,0,0,0-.9.2,1.89,1.89,0,0,0-.67.56,2.61,2.61,0,0,0-.42.87,4.42,4.42,0,0,0,0,2.22,2.56,2.56,0,0,0,.41.87,2,2,0,0,0,.67.57,2,2,0,0,0,.92.21,2,2,0,0,0,.92-.21,2,2,0,0,0,.68-.57,2.61,2.61,0,0,0,.42-.87A4,4,0,0,0,81.58,56.73Z"/><path class="cls-7" d="M92.69,56.77a5.3,5.3,0,0,1-.09,1,4.85,4.85,0,0,1-.27.93,3.85,3.85,0,0,1-.46.83,3,3,0,0,1-.66.66,3,3,0,0,1-.85.43,3.36,3.36,0,0,1-1.06.16,3,3,0,0,1-.73-.09,2.82,2.82,0,0,1-.67-.26,2.67,2.67,0,0,1-.58-.42,2.37,2.37,0,0,1-.44-.58h0V63.3H85.15V52.88h1.59V54h0a2.43,2.43,0,0,1,1-1,3,3,0,0,1,1.44-.34,3.36,3.36,0,0,1,1.53.33,3.12,3.12,0,0,1,1.08.88,3.86,3.86,0,0,1,.65,1.3A5.66,5.66,0,0,1,92.69,56.77Zm-1.69,0a4.56,4.56,0,0,0-.11-1,2.79,2.79,0,0,0-.35-.89,2,2,0,0,0-.65-.65,1.83,1.83,0,0,0-1-.25,1.87,1.87,0,0,0-1.57.71,3.3,3.3,0,0,0-.55,2,4.22,4.22,0,0,0,.12,1,2.74,2.74,0,0,0,.37.88,2,2,0,0,0,.66.63,1.93,1.93,0,0,0,2.54-.53,2.53,2.53,0,0,0,.39-.87A4.38,4.38,0,0,0,91,56.73Z"/><path class="cls-7" d="M104.2,60.55V55.84a4,4,0,0,0-.06-.72,1.47,1.47,0,0,0-.23-.57,1.11,1.11,0,0,0-.45-.38,1.73,1.73,0,0,0-.74-.14,1.45,1.45,0,0,0-1.24.55,2.67,2.67,0,0,0-.41,1.61v4.36H99.38V55.65a1.92,1.92,0,0,0-.32-1.21A1.28,1.28,0,0,0,98,54a1.56,1.56,0,0,0-1.26.56,2.33,2.33,0,0,0-.47,1.52v4.44H94.58V52.88h1.59V54h0a2.7,2.7,0,0,1,2.41-1.34A2.64,2.64,0,0,1,100,53a2,2,0,0,1,.82,1,2.85,2.85,0,0,1,1-1,2.57,2.57,0,0,1,4.05,2.31v5.22Z"/><path class="cls-7" d="M111.47,52.68A3.5,3.5,0,0,1,113,53a3.25,3.25,0,0,1,1.12.9,3.89,3.89,0,0,1,.68,1.32,5.55,5.55,0,0,1,.23,1.6v.31H109.4a3.24,3.24,0,0,0,.16.95,2.22,2.22,0,0,0,.4.73,1.81,1.81,0,0,0,.63.48,2,2,0,0,0,.84.17,2.22,2.22,0,0,0,1.14-.27,2,2,0,0,0,.71-.7h1.59a3.57,3.57,0,0,1-.53.95,3.31,3.31,0,0,1-.77.72,3.53,3.53,0,0,1-1,.45,4.28,4.28,0,0,1-1.18.16,3.83,3.83,0,0,1-1.55-.3,3.28,3.28,0,0,1-1.16-.84,3.7,3.7,0,0,1-.73-1.28,5,5,0,0,1-.25-1.63,4.73,4.73,0,0,1,.25-1.55,3.85,3.85,0,0,1,.73-1.29,3.54,3.54,0,0,1,1.18-.88A3.68,3.68,0,0,1,111.47,52.68ZM113.37,56a3.24,3.24,0,0,0-.19-.82,2,2,0,0,0-.39-.64,1.68,1.68,0,0,0-.59-.41,2.23,2.23,0,0,0-1.6,0,1.76,1.76,0,0,0-.6.42,2.08,2.08,0,0,0-.4.64,3,3,0,0,0-.2.82Z"/><path class="cls-7" d="M120.86,52.68a3.78,3.78,0,0,1,1.28.19,2.11,2.11,0,0,1,.87.57,2.27,2.27,0,0,1,.49.94,5,5,0,0,1,.15,1.31v4.87H122V56a2.47,2.47,0,0,0-.37-1.48,1.39,1.39,0,0,0-1.2-.5,1.72,1.72,0,0,0-1.44.6,2.66,2.66,0,0,0-.48,1.7v4.23h-1.68V52.88h1.61V54h0a2.52,2.52,0,0,1,.43-.58,2.56,2.56,0,0,1,.56-.43,2.73,2.73,0,0,1,.66-.27A3,3,0,0,1,120.86,52.68Z"/><path class="cls-7" d="M129.69,60.61l-.33,0h-.64a5.28,5.28,0,0,1-.86-.07,1.84,1.84,0,0,1-.7-.25,1.31,1.31,0,0,1-.47-.52,2,2,0,0,1-.17-.88V54.07H125V52.88h1.5v-2.3h1.69v2.3H130v1.19h-1.75v4.34a1,1,0,0,0,.19.68.94.94,0,0,0,.69.21h.67l.19,0v1.33Z"/><path class="cls-7" d="M139.47,60.61l-.33,0h-.64a5.28,5.28,0,0,1-.86-.07,1.84,1.84,0,0,1-.7-.25,1.31,1.31,0,0,1-.47-.52,2,2,0,0,1-.17-.88V54.07h-1.5V52.88h1.5v-2.3H138v2.3h1.75v1.19H138v4.34a1,1,0,0,0,.19.68.94.94,0,0,0,.69.21h.67l.19,0v1.33Z"/><path class="cls-7" d="M144.6,52.68a3.5,3.5,0,0,1,1.57.33,3.25,3.25,0,0,1,1.12.9,3.89,3.89,0,0,1,.68,1.32,5.55,5.55,0,0,1,.23,1.6v.31h-5.66a3.24,3.24,0,0,0,.16.95,2.22,2.22,0,0,0,.4.73,1.81,1.81,0,0,0,.63.48,2,2,0,0,0,.84.17,2.22,2.22,0,0,0,1.14-.27,2,2,0,0,0,.71-.7H148a3.57,3.57,0,0,1-.53.95,3.31,3.31,0,0,1-.77.72,3.53,3.53,0,0,1-1,.45,4.28,4.28,0,0,1-1.18.16,3.83,3.83,0,0,1-1.55-.3,3.28,3.28,0,0,1-1.16-.84,3.7,3.7,0,0,1-.73-1.28,5,5,0,0,1-.25-1.63,4.73,4.73,0,0,1,.25-1.55,3.85,3.85,0,0,1,.73-1.29A3.54,3.54,0,0,1,143,53,3.68,3.68,0,0,1,144.6,52.68ZM146.51,56a3.24,3.24,0,0,0-.19-.82,2,2,0,0,0-.39-.64,1.68,1.68,0,0,0-.59-.41,2.23,2.23,0,0,0-1.6,0,1.76,1.76,0,0,0-.6.42,2.08,2.08,0,0,0-.4.64,3,3,0,0,0-.2.82Z"/><path class="cls-7" d="M157.11,60.55a4.34,4.34,0,0,1-.51.1l-.46,0a2.1,2.1,0,0,1-.49-.05,1.06,1.06,0,0,1-.39-.18,1,1,0,0,1-.28-.34,1.5,1.5,0,0,1-.14-.52h0a3.1,3.1,0,0,1-.53.54,2.65,2.65,0,0,1-.61.37,3.88,3.88,0,0,1-1.53.28,2.83,2.83,0,0,1-1.89-.59,2.06,2.06,0,0,1-.7-1.69,2,2,0,0,1,.7-1.65,2.47,2.47,0,0,1,.68-.37,5.5,5.5,0,0,1,.85-.23q.46-.09,1-.15l1-.12a2.51,2.51,0,0,0,.39-.08.92.92,0,0,0,.31-.16.69.69,0,0,0,.2-.26.92.92,0,0,0,.07-.38,1.15,1.15,0,0,0-.36-.92,2.47,2.47,0,0,0-2.39,0,1.16,1.16,0,0,0-.46.85h-1.69a2.35,2.35,0,0,1,.33-1,2.29,2.29,0,0,1,.73-.72,3.37,3.37,0,0,1,1.05-.42,5.94,5.94,0,0,1,1.31-.14,4,4,0,0,1,2.39.58,1.93,1.93,0,0,1,.78,1.64V59a.55.55,0,0,0,.09.35.39.39,0,0,0,.32.11H157l.15,0Zm-2.39-3.9h0a1.11,1.11,0,0,1-.64.27l-.56.1-.76.12a2.58,2.58,0,0,0-1.15.43,1,1,0,0,0-.37.84,1,1,0,0,0,.43.89,1.73,1.73,0,0,0,1,.28,2.09,2.09,0,0,0,1.48-.51,1.85,1.85,0,0,0,.57-1.45Z"/><path class="cls-7" d="M168.38,60.55V55.84a4,4,0,0,0-.06-.72,1.47,1.47,0,0,0-.23-.57,1.11,1.11,0,0,0-.45-.38,1.73,1.73,0,0,0-.74-.14,1.45,1.45,0,0,0-1.24.55,2.67,2.67,0,0,0-.41,1.61v4.36h-1.69V55.65a1.92,1.92,0,0,0-.32-1.21,1.28,1.28,0,0,0-1.06-.41,1.56,1.56,0,0,0-1.26.56,2.33,2.33,0,0,0-.47,1.52v4.44h-1.69V52.88h1.59V54h0a2.7,2.7,0,0,1,2.41-1.34,2.64,2.64,0,0,1,1.4.35,2,2,0,0,1,.82,1,2.85,2.85,0,0,1,1-1,2.57,2.57,0,0,1,4.05,2.31v5.22Z"/><polyline class="cls-11" points="228.24 179.75 789.66 179.75 871.95 179.75 1200.66 179.75 1233.97 131.24 1200.66 80.75 871.95 80.75 789.66 80.75 228.55 80.75"/><path class="cls-12" d="M667.87,125.48l1.83,7.81h0l2-7.81h1.74l2,7.86h0l1.87-7.86H679l-2.71,10h-1.76l-2-7.88h0l-2,7.88h-1.8l-2.69-10Z"/><path class="cls-12" d="M682.23,125.48v10h-1.75v-10Z"/><path class="cls-12" d="M692.71,128.19a2.67,2.67,0,0,1-.58,1.79,2.07,2.07,0,0,1-.5.43,2.9,2.9,0,0,1-.64.29v0a2,2,0,0,1,.69.29,1.64,1.64,0,0,1,.46.48,2.26,2.26,0,0,1,.29.73,6,6,0,0,1,.11.8c0,.28,0,.56.05.85a5.67,5.67,0,0,0,.11.87,1.94,1.94,0,0,0,.28.72h-1.78a5.15,5.15,0,0,1-.26-1.57,3.72,3.72,0,0,0-.53-2.06,1.58,1.58,0,0,0-1.24-.47H686.4v4.1h-1.75v-10h5.15a3,3,0,0,1,2.08.74A2.52,2.52,0,0,1,692.71,128.19Zm-1.75.28a1.53,1.53,0,0,0-.44-1.2,1.82,1.82,0,0,0-1.25-.4H686.4v3.21h2.87a1.77,1.77,0,0,0,1.19-.38A1.51,1.51,0,0,0,691,128.46Z"/><path class="cls-12" d="M702.08,125.49V127h-5.51v2.66h5.09V131h-5.09v3h5.6v1.47h-7.35v-10Z"/><path class="cls-12" d="M710.7,125.48V127h-5v2.78h4.4v1.39h-4.4v4.36h-1.75v-10Z"/><path class="cls-12" d="M720.29,128.19a2.67,2.67,0,0,1-.58,1.79,2.07,2.07,0,0,1-.5.43,2.9,2.9,0,0,1-.64.29v0a2,2,0,0,1,.69.29,1.64,1.64,0,0,1,.46.48,2.26,2.26,0,0,1,.29.73,6,6,0,0,1,.11.8c0,.28,0,.56.05.85a5.67,5.67,0,0,0,.11.87,1.94,1.94,0,0,0,.28.72h-1.78a5.15,5.15,0,0,1-.26-1.57,3.72,3.72,0,0,0-.53-2.06,1.58,1.58,0,0,0-1.24-.47H714v4.1h-1.75v-10h5.15a3,3,0,0,1,2.08.74A2.52,2.52,0,0,1,720.29,128.19Zm-1.75.28a1.53,1.53,0,0,0-.44-1.2,1.82,1.82,0,0,0-1.25-.4H714v3.21h2.87a1.77,1.77,0,0,0,1.19-.38A1.51,1.51,0,0,0,718.54,128.46Z"/><path class="cls-12" d="M729,135.47l-.86-2.54H724l-.87,2.54h-1.78l3.6-10h2.37l3.53,10Zm-2.9-8.69h0l-1.64,4.81h3.26Z"/><path class="cls-12" d="M741,135.47v-8h0l-2.84,8h-1.51l-2.84-8h0v8h-1.65v-10h2.56l2.75,7.79h0l2.68-7.79h2.54v10Z"/><path class="cls-12" d="M752.24,125.49V127h-5.51v2.66h5.09V131h-5.09v3h5.6v1.47H745v-10Z"/><path class="cls-12" d="M871.3,125.48l2.6,8h0l2.6-8h1.82l-3.46,10h-2l-3.41-10Z"/><path class="cls-12" d="M881.39,125.48v10h-1.75v-10Z"/><path class="cls-12" d="M891.3,132.62A2.76,2.76,0,0,1,891,134a2.83,2.83,0,0,1-.91,1,4.12,4.12,0,0,1-1.32.55,6.91,6.91,0,0,1-1.56.17,6.1,6.1,0,0,1-1.59-.2,3.91,3.91,0,0,1-1.29-.6,2.9,2.9,0,0,1-.86-1,2.77,2.77,0,0,1-.31-1.34v-.12h1.72v.06a1.55,1.55,0,0,0,.19.79,1.63,1.63,0,0,0,.53.56,2.48,2.48,0,0,0,.78.33,4.22,4.22,0,0,0,1.85,0,2.39,2.39,0,0,0,.73-.29,1.53,1.53,0,0,0,.5-.48,1.25,1.25,0,0,0,.18-.68,1.08,1.08,0,0,0-.43-.88,3.78,3.78,0,0,0-1.36-.59l-2.15-.57a3.31,3.31,0,0,1-1.67-.91,2.35,2.35,0,0,1-.55-1.62,2.62,2.62,0,0,1,.3-1.28,2.75,2.75,0,0,1,.82-.92,3.73,3.73,0,0,1,1.2-.56,5.35,5.35,0,0,1,1.45-.19,5.5,5.5,0,0,1,1.38.17,3.82,3.82,0,0,1,1.19.53,2.7,2.7,0,0,1,.83.9,2.61,2.61,0,0,1,.33,1.27h-1.7a1.45,1.45,0,0,0-.18-.6,1.48,1.48,0,0,0-.43-.47,2.17,2.17,0,0,0-.64-.3,2.93,2.93,0,0,0-.83-.11,3.41,3.41,0,0,0-.78.09,2,2,0,0,0-.64.26,1.32,1.32,0,0,0-.44.45,1.22,1.22,0,0,0-.16.64,1.17,1.17,0,0,0,.08.46.94.94,0,0,0,.23.33,1.27,1.27,0,0,0,.36.22,3.6,3.6,0,0,0,.47.16l2.36.62a4.32,4.32,0,0,1,2,1A2.37,2.37,0,0,1,891.3,132.62Z"/><path class="cls-12" d="M894.66,125.48v6.27a2.65,2.65,0,0,0,.57,1.86,2.36,2.36,0,0,0,1.8.61,2.42,2.42,0,0,0,1.81-.59,2.61,2.61,0,0,0,.58-1.87v-6.28h1.75v6.34a3.83,3.83,0,0,1-1.05,2.84,4.21,4.21,0,0,1-3.08,1,5.63,5.63,0,0,1-1.77-.26,3.26,3.26,0,0,1-2.1-2,4.69,4.69,0,0,1-.25-1.58v-6.34Z"/><path class="cls-12" d="M909.86,135.47l-.86-2.54h-4.14l-.87,2.54H902.2l3.6-10h2.37l3.53,10Zm-2.9-8.69h0l-1.64,4.81h3.26Z"/><path class="cls-12" d="M914.72,125.48V134h5.13v1.48H913v-10Z"/><path class="cls-12" d="M929.33,125.48a4.45,4.45,0,0,1,3.32,1.26,5.1,5.1,0,0,1,1.24,3.7,5.23,5.23,0,0,1-1.23,3.74,4.32,4.32,0,0,1-3.29,1.29h-4v-10Zm-.2,8.52a2.9,2.9,0,0,0,2.21-.83,3.66,3.66,0,0,0,.8-2.6,3.91,3.91,0,0,0-.81-2.76,3.29,3.29,0,0,0-2.5-.85h-1.76v7Z"/><path class="cls-12" d="M943,125.49V127h-5.51v2.66h5.09V131h-5.09v3h5.6v1.47h-7.35v-10Z"/><path class="cls-12" d="M952.36,132.62A2.76,2.76,0,0,1,952,134a2.83,2.83,0,0,1-.91,1,4.12,4.12,0,0,1-1.32.55,6.91,6.91,0,0,1-1.56.17,6.1,6.1,0,0,1-1.59-.2,3.91,3.91,0,0,1-1.29-.6,2.9,2.9,0,0,1-.86-1,2.77,2.77,0,0,1-.31-1.34v-.12h1.72v.06a1.55,1.55,0,0,0,.19.79,1.63,1.63,0,0,0,.53.56,2.48,2.48,0,0,0,.78.33,4.22,4.22,0,0,0,1.85,0,2.39,2.39,0,0,0,.73-.29,1.53,1.53,0,0,0,.5-.48,1.25,1.25,0,0,0,.18-.68,1.08,1.08,0,0,0-.43-.88,3.78,3.78,0,0,0-1.36-.59l-2.15-.57a3.31,3.31,0,0,1-1.67-.91,2.35,2.35,0,0,1-.55-1.62,2.62,2.62,0,0,1,.3-1.28,2.75,2.75,0,0,1,.82-.92,3.73,3.73,0,0,1,1.2-.56,5.35,5.35,0,0,1,1.45-.19,5.5,5.5,0,0,1,1.38.17,3.82,3.82,0,0,1,1.19.53,2.7,2.7,0,0,1,.83.9,2.61,2.61,0,0,1,.33,1.27h-1.7a1.45,1.45,0,0,0-.18-.6,1.48,1.48,0,0,0-.43-.47,2.17,2.17,0,0,0-.64-.3,2.93,2.93,0,0,0-.83-.11,3.41,3.41,0,0,0-.78.09,2,2,0,0,0-.64.26,1.32,1.32,0,0,0-.44.45,1.22,1.22,0,0,0-.16.64,1.17,1.17,0,0,0,.08.46.94.94,0,0,0,.23.33,1.27,1.27,0,0,0,.36.22,3.6,3.6,0,0,0,.47.16l2.36.62a4.32,4.32,0,0,1,2,1A2.37,2.37,0,0,1,952.36,132.62Z"/><path class="cls-12" d="M955.83,125.48v10h-1.75v-10Z"/><path class="cls-12" d="M962.56,125.25a5.15,5.15,0,0,1,1.5.21,4.13,4.13,0,0,1,1.26.63,3.58,3.58,0,0,1,.92,1,3.82,3.82,0,0,1,.5,1.37H965a2.16,2.16,0,0,0-.33-.74,2.23,2.23,0,0,0-.55-.55,2.47,2.47,0,0,0-.73-.34,3.23,3.23,0,0,0-.88-.12,2.93,2.93,0,0,0-1.37.3,2.79,2.79,0,0,0-1,.82,3.58,3.58,0,0,0-.57,1.2,5.53,5.53,0,0,0-.19,1.46,5.43,5.43,0,0,0,.17,1.37,3.59,3.59,0,0,0,.55,1.19,2.88,2.88,0,0,0,1,.84,2.91,2.91,0,0,0,1.41.32,3.28,3.28,0,0,0,1.12-.18,2.38,2.38,0,0,0,.85-.53,2.45,2.45,0,0,0,.56-.85,3.5,3.5,0,0,0,.24-1.14h-2.64v-1.34h4.22v5.29h-1.15l-.18-1.37h0a3.42,3.42,0,0,1-1.3,1.22,3.76,3.76,0,0,1-1.73.39,4.82,4.82,0,0,1-2-.4,4.46,4.46,0,0,1-1.51-1.09,4.89,4.89,0,0,1-1-1.65,6.08,6.08,0,0,1-.34-2.06,6.3,6.3,0,0,1,.33-2,4.9,4.9,0,0,1,.95-1.67,4.51,4.51,0,0,1,1.52-1.13A4.84,4.84,0,0,1,962.56,125.25Z"/><path class="cls-12" d="M970.85,125.48l4.76,7.42h0v-7.42h1.66v10h-1.78l-4.76-7.42h0v7.42h-1.66v-10Z"/><path class="cls-12" d="M1063,125.48v10h-1.75v-10Z"/><path class="cls-12" d="M1074.3,135.47v-8h0l-2.84,8h-1.51l-2.84-8h0v8h-1.65v-10H1068l2.75,7.79h0l2.68-7.79H1076v10Z"/><path class="cls-12" d="M1086.09,128.56a3,3,0,0,1-.87,2.24,2.93,2.93,0,0,1-1,.63,3.89,3.89,0,0,1-1.32.21h-2.8v3.84h-1.75v-10h4.55a3.26,3.26,0,0,1,2.34.84A2.93,2.93,0,0,1,1086.09,128.56Zm-1.71,0a1.59,1.59,0,0,0-.49-1.27,2.3,2.3,0,0,0-1.53-.42h-2.29v3.38h2.33a3.22,3.22,0,0,0,.84-.1,1.49,1.49,0,0,0,1.13-1.59Z"/><path class="cls-12" d="M1089.54,125.48V134h5.13v1.48h-6.88v-10Z"/><path class="cls-12" d="M1103.33,125.49V127h-5.51v2.66h5.09V131h-5.09v3h5.6v1.47h-7.35v-10Z"/><path class="cls-12" d="M1114.06,135.47v-8h0l-2.84,8h-1.51l-2.84-8h0v8h-1.65v-10h2.56l2.75,7.79h0l2.68-7.79h2.54v10Z"/><path class="cls-12" d="M1125.35,125.49V127h-5.51v2.66h5.09V131h-5.09v3h5.6v1.47h-7.35v-10Z"/><path class="cls-12" d="M1129,125.48l4.76,7.42h0v-7.42h1.66v10h-1.78l-4.76-7.42h0v7.42h-1.66v-10Z"/><path class="cls-12" d="M1144.84,125.48V127h-3.18v8.52h-1.74V127h-3.17v-1.48Z"/><path class="cls-12" d="M1151.74,135.47l-.86-2.54h-4.14l-.87,2.54h-1.78l3.6-10H1150l3.53,10Zm-2.9-8.69h0l-1.64,4.81h3.26Z"/><path class="cls-12" d="M1160.89,125.48V127h-3.18v8.52H1156V127h-3.17v-1.48Z"/><path class="cls-12" d="M1164,125.48v10h-1.75v-10Z"/><path class="cls-12" d="M1175.55,130.5a5.4,5.4,0,0,1-1.33,3.73,4.49,4.49,0,0,1-3.51,1.48,5.11,5.11,0,0,1-1.91-.34,4.48,4.48,0,0,1-1.54-1,4.7,4.7,0,0,1-1-1.7,6.25,6.25,0,0,1-.35-2.11,5.46,5.46,0,0,1,1.33-3.78,4.49,4.49,0,0,1,3.52-1.48,5.16,5.16,0,0,1,1.91.35,4.16,4.16,0,0,1,1.54,1.07,4.7,4.7,0,0,1,1,1.73A6.63,6.63,0,0,1,1175.55,130.5Zm-1.76,0a4.3,4.3,0,0,0-.82-2.73,3,3,0,0,0-4.55,0,4.32,4.32,0,0,0-.81,2.73,4.23,4.23,0,0,0,.81,2.67,3,3,0,0,0,4.56,0A4.27,4.27,0,0,0,1173.79,130.5Z"/><path class="cls-12" d="M1179.14,125.48l4.76,7.42h0v-7.42h1.66v10h-1.78l-4.76-7.42h0v7.42h-1.66v-10Z"/><path class="cls-12" d="M252.17,115v10h-1.74V115Z"/><path class="cls-12" d="M258.53,115a4.39,4.39,0,0,1,3.3,1.26,5.11,5.11,0,0,1,1.23,3.7,5.26,5.26,0,0,1-1.22,3.74,4.27,4.27,0,0,1-3.27,1.29h-4V115Zm-.2,8.52a2.87,2.87,0,0,0,2.19-.83,3.69,3.69,0,0,0,.79-2.6,3.93,3.93,0,0,0-.8-2.75,3.24,3.24,0,0,0-2.48-.85H256.3v7Z"/><path class="cls-12" d="M272.13,115v1.48h-5.47v2.66h5.05v1.39h-5.05v3h5.56V125h-7.29V115Z"/><path class="cls-12" d="M280.46,125l-.85-2.54H275.5l-.87,2.54h-1.77l3.57-10h2.35l3.5,10Zm-2.88-8.69h0l-1.63,4.81h3.24Z"/><path class="cls-12" d="M283.48,125.22H282.2l4-10.46h1.27Z"/><path class="cls-12" d="M292.82,114.78a5.17,5.17,0,0,1,1.52.21,4,4,0,0,1,1.24.62,3.41,3.41,0,0,1,.89,1,3.75,3.75,0,0,1,.47,1.32h-1.69a2.22,2.22,0,0,0-.3-.65,2.11,2.11,0,0,0-.51-.53,2.53,2.53,0,0,0-.72-.36,2.92,2.92,0,0,0-.91-.13,2.78,2.78,0,0,0-2.34,1.14,3.66,3.66,0,0,0-.58,1.2,5.34,5.34,0,0,0,0,2.79,3.59,3.59,0,0,0,.56,1.19,2.91,2.91,0,0,0,1,.84,2.86,2.86,0,0,0,1.4.32,2.71,2.71,0,0,0,1-.17,2.34,2.34,0,0,0,.76-.46,2.4,2.4,0,0,0,.53-.71,3.13,3.13,0,0,0,.28-.91H297a4.94,4.94,0,0,1-.41,1.47,3.71,3.71,0,0,1-2.11,2,4.76,4.76,0,0,1-1.72.29,4.88,4.88,0,0,1-2-.39,4.45,4.45,0,0,1-1.52-1.09,4.82,4.82,0,0,1-1-1.64A6.12,6.12,0,0,1,288,120a6.24,6.24,0,0,1,.32-2,5,5,0,0,1,.93-1.67,4.44,4.44,0,0,1,1.52-1.14A4.81,4.81,0,0,1,292.82,114.78Z"/><path class="cls-12" d="M307.9,120a5.42,5.42,0,0,1-1.32,3.73,4.44,4.44,0,0,1-3.49,1.48,5,5,0,0,1-1.9-.34,4.48,4.48,0,0,1-1.53-1,4.71,4.71,0,0,1-1-1.7,6.28,6.28,0,0,1-.35-2.11,5.48,5.48,0,0,1,1.32-3.78,4.44,4.44,0,0,1,3.49-1.48,5.11,5.11,0,0,1,1.9.34,4.14,4.14,0,0,1,1.53,1.07,4.68,4.68,0,0,1,1,1.73A6.68,6.68,0,0,1,307.9,120Zm-1.74,0a4.32,4.32,0,0,0-.81-2.73,3,3,0,0,0-4.51,0A4.33,4.33,0,0,0,300,120a4.26,4.26,0,0,0,.8,2.67,3,3,0,0,0,4.52,0A4.29,4.29,0,0,0,306.16,120Z"/><path class="cls-12" d="M311.47,115l4.73,7.42h0V115h1.65v10H316.1l-4.73-7.42h0V125H309.7V115Z"/><path class="cls-12" d="M324.54,114.78a5.17,5.17,0,0,1,1.52.21,4,4,0,0,1,1.24.62,3.41,3.41,0,0,1,.89,1,3.75,3.75,0,0,1,.47,1.32H327a2.22,2.22,0,0,0-.3-.65,2.11,2.11,0,0,0-.51-.53,2.53,2.53,0,0,0-.72-.36,2.92,2.92,0,0,0-.91-.13,2.78,2.78,0,0,0-2.34,1.14,3.66,3.66,0,0,0-.58,1.2,5.34,5.34,0,0,0,0,2.79,3.59,3.59,0,0,0,.56,1.19,2.91,2.91,0,0,0,1,.84,2.86,2.86,0,0,0,1.4.32,2.71,2.71,0,0,0,1-.17,2.34,2.34,0,0,0,.76-.46,2.4,2.4,0,0,0,.53-.71,3.13,3.13,0,0,0,.28-.91h1.69a4.94,4.94,0,0,1-.41,1.47,3.71,3.71,0,0,1-2.11,2,4.76,4.76,0,0,1-1.72.29,4.88,4.88,0,0,1-2-.39,4.45,4.45,0,0,1-1.52-1.09,4.82,4.82,0,0,1-1-1.64,6.12,6.12,0,0,1-.34-2.07,6.24,6.24,0,0,1,.32-2,5,5,0,0,1,.93-1.67,4.44,4.44,0,0,1,1.52-1.14A4.81,4.81,0,0,1,324.54,114.78Z"/><path class="cls-12" d="M337.77,115v1.48h-5.47v2.66h5.05v1.39h-5.05v3h5.56V125h-7.29V115Z"/><path class="cls-12" d="M347.3,118.07a3,3,0,0,1-.87,2.24,2.91,2.91,0,0,1-1,.63,3.81,3.81,0,0,1-1.31.21h-2.77V125H339.6V115h4.51a3.22,3.22,0,0,1,2.33.84A2.94,2.94,0,0,1,347.3,118.07Zm-1.7,0a1.6,1.6,0,0,0-.48-1.27,2.26,2.26,0,0,0-1.52-.42h-2.27v3.38h2.31a3.18,3.18,0,0,0,.84-.1,1.53,1.53,0,0,0,.61-.32A1.55,1.55,0,0,0,345.61,118.07Z"/><path class="cls-12" d="M356,115v1.48h-3.15V125H351.1v-8.52h-3.15V115Z"/><path class="cls-12" d="M252.05,131.79v6.27a2.66,2.66,0,0,0,.57,1.86,2.33,2.33,0,0,0,1.79.61,2.39,2.39,0,0,0,1.79-.59,2.62,2.62,0,0,0,.57-1.87v-6.28h1.74v6.34a3.85,3.85,0,0,1-1,2.84,4.16,4.16,0,0,1-3.06,1,5.54,5.54,0,0,1-1.76-.26,3.25,3.25,0,0,1-2.08-2,4.74,4.74,0,0,1-.25-1.58v-6.34Z"/><path class="cls-12" d="M268.23,138.93a2.68,2.68,0,0,1-1.24,2.36,4,4,0,0,1-1.31.55,6.77,6.77,0,0,1-1.55.17,5.92,5.92,0,0,1-1.58-.2,3.88,3.88,0,0,1-1.28-.6,2.9,2.9,0,0,1-.85-1,2.79,2.79,0,0,1-.31-1.34v-.12h1.7v.06a1.57,1.57,0,0,0,.19.79,1.63,1.63,0,0,0,.52.56,2.43,2.43,0,0,0,.78.33,4.16,4.16,0,0,0,1.83,0,2.38,2.38,0,0,0,.73-.29,1.51,1.51,0,0,0,.49-.48,1.25,1.25,0,0,0,.18-.68,1.09,1.09,0,0,0-.43-.89,3.76,3.76,0,0,0-1.35-.59l-2.13-.57a3.27,3.27,0,0,1-1.66-.91,2.36,2.36,0,0,1-.54-1.62,2.63,2.63,0,0,1,.3-1.28,2.76,2.76,0,0,1,.81-.92,3.71,3.71,0,0,1,1.19-.56,5.3,5.3,0,0,1,1.44-.19,5.37,5.37,0,0,1,1.37.17,3.72,3.72,0,0,1,1.18.53,2.69,2.69,0,0,1,.82.9,2.63,2.63,0,0,1,.32,1.28h-1.69a1.45,1.45,0,0,0-.61-1.08,2.06,2.06,0,0,0-.63-.3,2.85,2.85,0,0,0-.82-.11,3.37,3.37,0,0,0-.77.08,2,2,0,0,0-.64.26,1.34,1.34,0,0,0-.43.45,1.24,1.24,0,0,0-.16.64,1.17,1.17,0,0,0,.08.46,1,1,0,0,0,.23.33,1.25,1.25,0,0,0,.36.23,3.67,3.67,0,0,0,.47.16l2.34.62a4.25,4.25,0,0,1,2,1A2.37,2.37,0,0,1,268.23,138.93Z"/><path class="cls-12" d="M277.12,131.8v1.48h-5.47v2.66h5.05v1.39h-5.05v3h5.56v1.47h-7.29v-10Z"/><path class="cls-12" d="M286.95,134.5a2.69,2.69,0,0,1-.58,1.79,2.11,2.11,0,0,1-.49.43,2.89,2.89,0,0,1-.63.29v0a2,2,0,0,1,.68.29,1.63,1.63,0,0,1,.46.49,2.28,2.28,0,0,1,.29.73,6.07,6.07,0,0,1,.11.8c0,.28,0,.56.05.85a5.59,5.59,0,0,0,.11.87,1.93,1.93,0,0,0,.28.72h-1.77a5.15,5.15,0,0,1-.26-1.57,3.75,3.75,0,0,0-.52-2.06,1.56,1.56,0,0,0-1.23-.47h-2.77v4.09h-1.74v-10h5.12a3,3,0,0,1,2.06.75A2.53,2.53,0,0,1,286.95,134.5Zm-1.74.28a1.54,1.54,0,0,0-.44-1.2,1.79,1.79,0,0,0-1.24-.4h-2.85v3.21h2.85a1.76,1.76,0,0,0,1.18-.38A1.52,1.52,0,0,0,285.21,134.78Z"/><path class="cls-12" d="M300.52,138.93a2.68,2.68,0,0,1-1.24,2.36,4,4,0,0,1-1.31.55,6.77,6.77,0,0,1-1.55.17,5.92,5.92,0,0,1-1.58-.2,3.88,3.88,0,0,1-1.28-.6,2.9,2.9,0,0,1-.85-1,2.79,2.79,0,0,1-.31-1.34v-.12h1.7v.06a1.57,1.57,0,0,0,.19.79,1.63,1.63,0,0,0,.52.56,2.43,2.43,0,0,0,.78.33,4.16,4.16,0,0,0,1.83,0,2.38,2.38,0,0,0,.73-.29,1.51,1.51,0,0,0,.49-.48,1.25,1.25,0,0,0,.18-.68,1.09,1.09,0,0,0-.43-.89,3.76,3.76,0,0,0-1.35-.59l-2.13-.57a3.27,3.27,0,0,1-1.66-.91,2.36,2.36,0,0,1-.54-1.62,2.63,2.63,0,0,1,.3-1.28,2.76,2.76,0,0,1,.81-.92,3.71,3.71,0,0,1,1.19-.56,5.3,5.3,0,0,1,1.44-.19,5.37,5.37,0,0,1,1.37.17,3.72,3.72,0,0,1,1.18.53,2.69,2.69,0,0,1,.82.9,2.63,2.63,0,0,1,.32,1.28h-1.69a1.45,1.45,0,0,0-.61-1.08,2.06,2.06,0,0,0-.63-.3,2.85,2.85,0,0,0-.82-.11,3.37,3.37,0,0,0-.77.08,2,2,0,0,0-.64.26,1.34,1.34,0,0,0-.43.45,1.24,1.24,0,0,0-.16.64,1.17,1.17,0,0,0,.08.46,1,1,0,0,0,.23.33,1.25,1.25,0,0,0,.36.23,3.67,3.67,0,0,0,.47.16l2.34.62a4.25,4.25,0,0,1,2,1A2.37,2.37,0,0,1,300.52,138.93Z"/><path class="cls-12" d="M309,131.79v1.48h-3.15v8.52H304.1v-8.52H301v-1.48Z"/><path class="cls-12" d="M318.9,136.81a5.42,5.42,0,0,1-1.32,3.73A4.44,4.44,0,0,1,314.1,142a5,5,0,0,1-1.9-.34,4.48,4.48,0,0,1-1.53-1,4.71,4.71,0,0,1-1-1.7,6.28,6.28,0,0,1-.35-2.11A5.48,5.48,0,0,1,310.6,133a4.44,4.44,0,0,1,3.49-1.48,5.11,5.11,0,0,1,1.9.34,4.14,4.14,0,0,1,1.53,1.07,4.68,4.68,0,0,1,1,1.73A6.68,6.68,0,0,1,318.9,136.81Zm-1.74,0a4.32,4.32,0,0,0-.81-2.73,3,3,0,0,0-4.51,0,4.33,4.33,0,0,0-.81,2.73,4.26,4.26,0,0,0,.8,2.67,3,3,0,0,0,4.52,0A4.29,4.29,0,0,0,317.16,136.81Z"/><path class="cls-12" d="M328.71,134.5a2.69,2.69,0,0,1-.58,1.79,2.11,2.11,0,0,1-.49.43,2.89,2.89,0,0,1-.63.29v0a2,2,0,0,1,.68.29,1.63,1.63,0,0,1,.46.49,2.28,2.28,0,0,1,.29.73,6.07,6.07,0,0,1,.11.8c0,.28,0,.56.05.85a5.59,5.59,0,0,0,.11.87,1.93,1.93,0,0,0,.28.72h-1.77a5.15,5.15,0,0,1-.26-1.57,3.75,3.75,0,0,0-.52-2.06,1.56,1.56,0,0,0-1.23-.47h-2.77v4.09h-1.74v-10h5.12a3,3,0,0,1,2.06.75A2.53,2.53,0,0,1,328.71,134.5Zm-1.74.28a1.54,1.54,0,0,0-.44-1.2,1.79,1.79,0,0,0-1.24-.4h-2.85v3.21h2.85a1.76,1.76,0,0,0,1.18-.38A1.52,1.52,0,0,0,327,134.78Z"/><path class="cls-12" d="M331.45,131.79l2.67,4.48,2.65-4.48h2L335,137.85v3.94h-1.74v-4l-3.74-6Z"/><path class="cls-12" d="M475.61,132.62a2.77,2.77,0,0,1-.34,1.41,2.84,2.84,0,0,1-.91,1,4.12,4.12,0,0,1-1.32.55,6.92,6.92,0,0,1-1.56.17,6.09,6.09,0,0,1-1.59-.2,3.92,3.92,0,0,1-1.29-.6,2.89,2.89,0,0,1-.86-1,2.78,2.78,0,0,1-.31-1.34v-.12h1.72v.06a1.55,1.55,0,0,0,.19.79,1.63,1.63,0,0,0,.53.56,2.48,2.48,0,0,0,.78.33,4.22,4.22,0,0,0,1.85,0,2.39,2.39,0,0,0,.73-.29,1.53,1.53,0,0,0,.5-.48,1.25,1.25,0,0,0,.18-.68,1.08,1.08,0,0,0-.43-.88,3.79,3.79,0,0,0-1.36-.59l-2.15-.57a3.31,3.31,0,0,1-1.67-.91,2.34,2.34,0,0,1-.55-1.62,2.61,2.61,0,0,1,.3-1.28,2.75,2.75,0,0,1,.82-.92,3.71,3.71,0,0,1,1.2-.56,5.34,5.34,0,0,1,1.45-.19,5.49,5.49,0,0,1,1.38.17,3.8,3.8,0,0,1,1.19.53,2.71,2.71,0,0,1,.83.9,2.62,2.62,0,0,1,.32,1.27h-1.7a1.44,1.44,0,0,0-.18-.6,1.48,1.48,0,0,0-.43-.47,2.16,2.16,0,0,0-.64-.3,2.93,2.93,0,0,0-.83-.11,3.42,3.42,0,0,0-.78.09,2,2,0,0,0-.64.26,1.33,1.33,0,0,0-.44.45,1.23,1.23,0,0,0-.16.64,1.17,1.17,0,0,0,.08.46,1,1,0,0,0,.23.33,1.27,1.27,0,0,0,.36.22,3.55,3.55,0,0,0,.47.16l2.36.62a4.32,4.32,0,0,1,2,1A2.36,2.36,0,0,1,475.61,132.62Z"/><path class="cls-12" d="M479.06,125.48v4.59l4.59-4.59h2.22l-4.12,4,4.43,6H484l-3.42-4.75-1.5,1.46v3.29h-1.75v-10Z"/><path class="cls-12" d="M494.58,125.49V127h-5.51v2.66h5.09V131h-5.09v3h5.6v1.47h-7.35v-10Z"/><path class="cls-12" d="M503.47,125.48V127h-3.18v8.52h-1.74V127h-3.17v-1.48Z"/><path class="cls-12" d="M508.7,125.27a5.22,5.22,0,0,1,1.53.22,4,4,0,0,1,1.25.62,3.46,3.46,0,0,1,.89,1,3.72,3.72,0,0,1,.48,1.32h-1.7a2.21,2.21,0,0,0-.3-.65,2.1,2.1,0,0,0-.52-.53,2.59,2.59,0,0,0-.72-.36,3,3,0,0,0-.91-.13,2.81,2.81,0,0,0-2.36,1.14,3.65,3.65,0,0,0-.58,1.2,5.3,5.3,0,0,0,0,2.79,3.56,3.56,0,0,0,.56,1.19,2.81,2.81,0,0,0,2.38,1.17,2.77,2.77,0,0,0,1-.17,2.32,2.32,0,0,0,1.3-1.18,3.1,3.1,0,0,0,.28-.91H513a4.92,4.92,0,0,1-.41,1.47,3.72,3.72,0,0,1-2.13,2,4.83,4.83,0,0,1-1.73.29,5,5,0,0,1-2-.39,4.52,4.52,0,0,1-1.53-1.09,4.81,4.81,0,0,1-1-1.64,6.07,6.07,0,0,1-.34-2.07,6.21,6.21,0,0,1,.32-2,5,5,0,0,1,.94-1.67,4.47,4.47,0,0,1,1.53-1.15A4.9,4.9,0,0,1,508.7,125.27Z"/><path class="cls-12" d="M516.52,125.49v4h4.72v-4H523v10h-1.74V131h-4.72v4.5h-1.75v-10Z"/><polyline class="cls-13" points="804.37 81.44 841.93 131.45 804.47 179.82"/><polyline class="cls-13" points="1003.37 81.44 1040.93 131.45 1003.47 179.82"/><polyline class="cls-13" points="605.23 81.44 642.78 131.45 605.32 179.82"/><polyline class="cls-13" points="405.48 81.44 443.04 131.45 405.58 179.82"/><path class="cls-1" d="M856.23,434.14l-.86-2.54h-4.14l-.87,2.54h-1.78l3.6-10h2.37l3.53,10Zm-2.9-8.69h0l-1.64,4.81h3.26Z"/><path class="cls-1" d="M867.51,431.26a2.84,2.84,0,0,1-.26,1.25,2.5,2.5,0,0,1-.72.9,3.22,3.22,0,0,1-1.1.55,5,5,0,0,1-1.39.19h-4.69v-10h4.61a5.48,5.48,0,0,1,1.29.14,2.69,2.69,0,0,1,1,.44,1.94,1.94,0,0,1,.63.77,2.62,2.62,0,0,1,.22,1.12,2.19,2.19,0,0,1-.39,1.32,2.35,2.35,0,0,1-1.1.82v0a3,3,0,0,1,.86.35,2.11,2.11,0,0,1,.6.55,2.33,2.33,0,0,1,.36.73A3,3,0,0,1,867.51,431.26Zm-2.14-4.32a1.26,1.26,0,0,0-.44-1.07,2.12,2.12,0,0,0-1.31-.34h-2.53v2.78h2.65a2.3,2.3,0,0,0,.63-.08,1.53,1.53,0,0,0,.51-.25,1.19,1.19,0,0,0,.35-.43A1.49,1.49,0,0,0,865.37,426.94Zm.39,4.23a1.46,1.46,0,0,0-.5-1.2,2.22,2.22,0,0,0-1.43-.4h-2.74v3.19h2.75a2.29,2.29,0,0,0,1.42-.38A1.42,1.42,0,0,0,865.76,431.17Z"/><path class="cls-1" d="M877.51,431.26a2.84,2.84,0,0,1-.26,1.25,2.5,2.5,0,0,1-.72.9,3.22,3.22,0,0,1-1.1.55,5,5,0,0,1-1.39.19h-4.69v-10H874a5.48,5.48,0,0,1,1.29.14,2.69,2.69,0,0,1,1,.44,1.94,1.94,0,0,1,.63.77,2.62,2.62,0,0,1,.22,1.12,2.19,2.19,0,0,1-.39,1.32,2.35,2.35,0,0,1-1.1.82v0a3,3,0,0,1,.86.35,2.11,2.11,0,0,1,.6.55,2.33,2.33,0,0,1,.36.73A3,3,0,0,1,877.51,431.26Zm-2.14-4.32a1.26,1.26,0,0,0-.44-1.07,2.12,2.12,0,0,0-1.31-.34H871.1v2.78h2.65a2.3,2.3,0,0,0,.63-.08,1.53,1.53,0,0,0,.51-.25,1.19,1.19,0,0,0,.35-.43A1.49,1.49,0,0,0,875.38,426.94Zm.39,4.23a1.46,1.46,0,0,0-.5-1.2,2.22,2.22,0,0,0-1.43-.4H871.1v3.19h2.75a2.29,2.29,0,0,0,1.42-.38A1.42,1.42,0,0,0,875.76,431.17Z"/><path class="cls-1" d="M887.77,423.93a5.21,5.21,0,0,1,1.53.22,4,4,0,0,1,1.25.62,3.47,3.47,0,0,1,.89,1,3.73,3.73,0,0,1,.47,1.32h-1.7a2.2,2.2,0,0,0-.3-.65,2.09,2.09,0,0,0-.52-.53,2.58,2.58,0,0,0-.72-.36,3,3,0,0,0-.91-.13,2.92,2.92,0,0,0-1.38.31,2.89,2.89,0,0,0-1,.83,3.64,3.64,0,0,0-.58,1.2,5.26,5.26,0,0,0-.19,1.43,5.17,5.17,0,0,0,.18,1.36,3.56,3.56,0,0,0,.56,1.19,2.81,2.81,0,0,0,2.38,1.17,2.77,2.77,0,0,0,1-.17,2.32,2.32,0,0,0,.77-.46,2.35,2.35,0,0,0,.53-.71,3.12,3.12,0,0,0,.28-.91H892a4.89,4.89,0,0,1-.41,1.47,3.72,3.72,0,0,1-2.13,2,4.83,4.83,0,0,1-1.73.29,5,5,0,0,1-2-.39,4.52,4.52,0,0,1-1.53-1.09,4.82,4.82,0,0,1-1-1.64,6.06,6.06,0,0,1-.34-2.07,6.23,6.23,0,0,1,.32-2,5,5,0,0,1,.94-1.67,4.47,4.47,0,0,1,1.53-1.15A4.9,4.9,0,0,1,887.77,423.93Z"/><path class="cls-1" d="M903,429.17a5.4,5.4,0,0,1-1.33,3.73,4.49,4.49,0,0,1-3.51,1.48,5.1,5.1,0,0,1-1.91-.34,4.48,4.48,0,0,1-1.54-1,4.7,4.7,0,0,1-1-1.7,6.25,6.25,0,0,1-.35-2.11,5.46,5.46,0,0,1,1.33-3.78,4.49,4.49,0,0,1,3.52-1.48,5.16,5.16,0,0,1,1.91.35,4.16,4.16,0,0,1,1.54,1.07,4.7,4.7,0,0,1,1,1.73A6.63,6.63,0,0,1,903,429.17Zm-1.76,0a4.3,4.3,0,0,0-.82-2.73,3,3,0,0,0-4.55,0,4.31,4.31,0,0,0-.81,2.73,4.23,4.23,0,0,0,.81,2.67,3,3,0,0,0,4.56,0A4.27,4.27,0,0,0,901.21,429.17Z"/><path class="cls-1" d="M913.67,434.14v-8h0l-2.84,8h-1.51l-2.84-8h0v8h-1.65v-10h2.56l2.75,7.79h0l2.68-7.79h2.54v10Z"/><path class="cls-1" d="M926.58,434.14v-8h0l-2.84,8h-1.51l-2.84-8h0v8h-1.65v-10h2.56l2.75,7.79h0l2.68-7.79h2.54v10Z"/><path class="cls-1" d="M939.74,429.17a5.4,5.4,0,0,1-1.33,3.73,4.49,4.49,0,0,1-3.51,1.48A5.12,5.12,0,0,1,933,434a4.5,4.5,0,0,1-1.54-1,4.7,4.7,0,0,1-1-1.7,6.25,6.25,0,0,1-.35-2.11,5.45,5.45,0,0,1,1.33-3.78,4.49,4.49,0,0,1,3.52-1.48,5.16,5.16,0,0,1,1.91.35,4.16,4.16,0,0,1,1.54,1.07,4.7,4.7,0,0,1,1,1.73A6.63,6.63,0,0,1,939.74,429.17Zm-1.76,0a4.3,4.3,0,0,0-.82-2.73,3,3,0,0,0-4.55,0,4.32,4.32,0,0,0-.81,2.73,4.24,4.24,0,0,0,.81,2.67,3,3,0,0,0,4.56,0A4.27,4.27,0,0,0,938,429.17Z"/><path class="cls-1" d="M943.32,424.14l4.76,7.42h0v-7.42h1.66v10H948l-4.76-7.42h0v7.42h-1.66v-10Z"/><path class="cls-1" d="M957.9,424.14v6.27a2.65,2.65,0,0,0,.57,1.86,2.36,2.36,0,0,0,1.8.61,2.42,2.42,0,0,0,1.81-.59,2.61,2.61,0,0,0,.58-1.87v-6.28h1.75v6.34a3.83,3.83,0,0,1-1.05,2.84,4.21,4.21,0,0,1-3.08,1,5.63,5.63,0,0,1-1.77-.26,3.26,3.26,0,0,1-2.1-2,4.69,4.69,0,0,1-.25-1.58v-6.34Z"/><path class="cls-1" d="M967.75,424.14l2.27,3.55,2.35-3.55h1.93l-3.28,4.8,3.53,5.19h-2.08l-2.49-3.8-2.54,3.8h-2l3.53-5.21-3.28-4.79Z"/><path class="cls-1" d="M914.19,368.92a2.76,2.76,0,0,1-.34,1.41,2.82,2.82,0,0,1-.91,1,4.11,4.11,0,0,1-1.32.55,6.92,6.92,0,0,1-1.56.17,6,6,0,0,1-1.59-.2,3.93,3.93,0,0,1-1.29-.6,2.89,2.89,0,0,1-.86-1,2.77,2.77,0,0,1-.31-1.34v-.12h1.72v.06a1.55,1.55,0,0,0,.19.79,1.63,1.63,0,0,0,.53.56,2.48,2.48,0,0,0,.78.33,4.23,4.23,0,0,0,1.85,0,2.42,2.42,0,0,0,.73-.29,1.53,1.53,0,0,0,.5-.48,1.24,1.24,0,0,0,.18-.68,1.08,1.08,0,0,0-.43-.89,3.8,3.8,0,0,0-1.36-.59l-2.15-.57a3.3,3.3,0,0,1-1.67-.91,2.34,2.34,0,0,1-.55-1.62,2.61,2.61,0,0,1,.3-1.28,2.76,2.76,0,0,1,.82-.92,3.76,3.76,0,0,1,1.2-.56,5.38,5.38,0,0,1,1.45-.19,5.49,5.49,0,0,1,1.38.17,3.79,3.79,0,0,1,1.19.53,2.7,2.7,0,0,1,.83.9,2.62,2.62,0,0,1,.33,1.27h-1.7a1.46,1.46,0,0,0-.18-.6,1.48,1.48,0,0,0-.43-.47,2.13,2.13,0,0,0-.64-.3,2.9,2.9,0,0,0-.83-.11,3.43,3.43,0,0,0-.78.08,2.07,2.07,0,0,0-.64.26,1.35,1.35,0,0,0-.44.45,1.24,1.24,0,0,0-.16.64,1.16,1.16,0,0,0,.08.46.93.93,0,0,0,.23.33,1.25,1.25,0,0,0,.36.23,3.51,3.51,0,0,0,.47.16l2.36.62a4.29,4.29,0,0,1,2,1A2.36,2.36,0,0,1,914.19,368.92Z"/><path class="cls-1" d="M919.57,371.83l-.33,0h-.64a5.28,5.28,0,0,1-.86-.07,1.84,1.84,0,0,1-.7-.25,1.3,1.3,0,0,1-.47-.52,1.94,1.94,0,0,1-.17-.88v-4.85h-1.5V364.1h1.5v-2.3h1.69v2.3h1.75v1.19h-1.75v4.34a1,1,0,0,0,.19.68.94.94,0,0,0,.69.21h.67l.2,0v1.33Z"/><path class="cls-1" d="M922.27,364.1l2,5.89h0l1.91-5.89H928l-3.27,8.77a3.48,3.48,0,0,1-.34.69,2.13,2.13,0,0,1-.47.52,2,2,0,0,1-.64.32,2.81,2.81,0,0,1-.84.11l-.64,0-.54-.05V373l.52.06h.41a1.18,1.18,0,0,0,.46-.08.87.87,0,0,0,.33-.25,1.58,1.58,0,0,0,.25-.42c.07-.17.14-.37.22-.6l-3-7.66Z"/><path class="cls-1" d="M930.93,361.17v10.6h-1.69v-10.6Z"/><path class="cls-1" d="M936.52,363.89a3.5,3.5,0,0,1,1.57.33,3.25,3.25,0,0,1,1.13.9,3.89,3.89,0,0,1,.68,1.32,5.55,5.55,0,0,1,.23,1.6v.31h-5.66a3.22,3.22,0,0,0,.16.95,2.21,2.21,0,0,0,.4.73,1.81,1.81,0,0,0,.63.48,2,2,0,0,0,.84.17,2.22,2.22,0,0,0,1.14-.27,2,2,0,0,0,.71-.7h1.59a3.58,3.58,0,0,1-.53.95,3.32,3.32,0,0,1-.77.72,3.55,3.55,0,0,1-1,.45,4.28,4.28,0,0,1-1.18.16,3.83,3.83,0,0,1-1.55-.3,3.29,3.29,0,0,1-1.16-.84,3.7,3.7,0,0,1-.73-1.28,5,5,0,0,1-.25-1.63,4.72,4.72,0,0,1,.25-1.55,3.84,3.84,0,0,1,.73-1.29,3.54,3.54,0,0,1,1.18-.88A3.68,3.68,0,0,1,936.52,363.89Zm1.91,3.32a3.26,3.26,0,0,0-.19-.82,2,2,0,0,0-.39-.64,1.67,1.67,0,0,0-.59-.41,2.23,2.23,0,0,0-1.6,0,1.77,1.77,0,0,0-.6.42,2.09,2.09,0,0,0-.4.64,2.93,2.93,0,0,0-.2.82Z"/><path class="cls-1" d="M949,363.89a2.73,2.73,0,0,1,1.4.35,2.47,2.47,0,0,1,.94,1h0V364.1H953v7.2a4,4,0,0,1-.27,1.53,2.79,2.79,0,0,1-.76,1.07,3.17,3.17,0,0,1-1.2.63,5.62,5.62,0,0,1-1.57.21,5.2,5.2,0,0,1-1.12-.12,3.42,3.42,0,0,1-1-.39,2.47,2.47,0,0,1-.76-.69,2.05,2.05,0,0,1-.37-1h1.67a1.19,1.19,0,0,0,.57.77,2.33,2.33,0,0,0,1.17.26,1.92,1.92,0,0,0,1.49-.57,2.34,2.34,0,0,0,.52-1.63v-1.18h0a2.32,2.32,0,0,1-1,1,2.88,2.88,0,0,1-1.42.35,3.4,3.4,0,0,1-1.47-.29,2.87,2.87,0,0,1-1-.81,3.45,3.45,0,0,1-.61-1.21,5.51,5.51,0,0,1-.2-1.52,4.73,4.73,0,0,1,.21-1.42,3.59,3.59,0,0,1,.63-1.2,3.1,3.1,0,0,1,1-.84A3.21,3.21,0,0,1,949,363.89Zm-1.66,3.79a4,4,0,0,0,.12,1,2.29,2.29,0,0,0,.37.8,1.74,1.74,0,0,0,.62.52,1.93,1.93,0,0,0,.87.18,1.85,1.85,0,0,0,.88-.2,2,2,0,0,0,.65-.54,2.34,2.34,0,0,0,.4-.77,3.07,3.07,0,0,0,.13-.91,4.1,4.1,0,0,0-.12-1,2.43,2.43,0,0,0-.38-.82,1.78,1.78,0,0,0-.64-.55,2,2,0,0,0-.91-.2,1.82,1.82,0,0,0-.9.21,1.77,1.77,0,0,0-.62.56,2.48,2.48,0,0,0-.36.8A3.68,3.68,0,0,0,947.3,367.69Z"/><path class="cls-1" d="M960.49,371.77v-1.18h0a2.63,2.63,0,0,1-.46.6,2.66,2.66,0,0,1-.58.43,2.91,2.91,0,0,1-.68.27,3,3,0,0,1-.74.09,2.69,2.69,0,0,1-2.08-.73,3.27,3.27,0,0,1-.67-2.27V364.1h1.68v4.61a3.35,3.35,0,0,0,.09.81,1.58,1.58,0,0,0,.28.6,1.22,1.22,0,0,0,.5.38,2.12,2.12,0,0,0,1.59-.05,1.59,1.59,0,0,0,.58-.5,2.15,2.15,0,0,0,.33-.77,4.3,4.3,0,0,0,.11-1V364.1h1.68v7.67Z"/><path class="cls-1" d="M966,360.76v1.65h-1.69v-1.65Zm0,3.34v7.67h-1.69V364.1Z"/><path class="cls-1" d="M975.5,361.17v10.6h-1.6v-1.15h0a2.46,2.46,0,0,1-.43.58,2.52,2.52,0,0,1-.57.43,2.86,2.86,0,0,1-.69.27,3.31,3.31,0,0,1-.78.09,3.17,3.17,0,0,1-1.49-.33,3.22,3.22,0,0,1-1.08-.9,3.94,3.94,0,0,1-.65-1.3,5.45,5.45,0,0,1-.22-1.56,5.3,5.3,0,0,1,.21-1.47,3.9,3.9,0,0,1,.63-1.28,3.2,3.2,0,0,1,1.06-.9,3.39,3.39,0,0,1,2.24-.26,2.9,2.9,0,0,1,.67.25,2.39,2.39,0,0,1,1,1h0v-4Zm-5.87,6.75a4.23,4.23,0,0,0,.11,1,2.83,2.83,0,0,0,.37.89,2.08,2.08,0,0,0,.65.66,1.75,1.75,0,0,0,1,.26,2,2,0,0,0,.92-.2,1.84,1.84,0,0,0,.67-.57,2.65,2.65,0,0,0,.4-.87,4.31,4.31,0,0,0,.14-1.12,4.36,4.36,0,0,0-.11-1,2.71,2.71,0,0,0-.37-.87,2,2,0,0,0-.66-.63,1.91,1.91,0,0,0-1-.24,1.81,1.81,0,0,0-1,.24,2,2,0,0,0-.65.62,2.73,2.73,0,0,0-.37.88A4.51,4.51,0,0,0,969.63,367.93Z"/><path class="cls-1" d="M981,363.89a3.5,3.5,0,0,1,1.57.33,3.25,3.25,0,0,1,1.13.9,3.89,3.89,0,0,1,.68,1.32,5.55,5.55,0,0,1,.23,1.6v.31H979a3.22,3.22,0,0,0,.16.95,2.21,2.21,0,0,0,.4.73,1.81,1.81,0,0,0,.63.48,2,2,0,0,0,.84.17,2.22,2.22,0,0,0,1.14-.27,2,2,0,0,0,.71-.7h1.59a3.58,3.58,0,0,1-.53.95,3.32,3.32,0,0,1-.77.72,3.55,3.55,0,0,1-1,.45A4.28,4.28,0,0,1,981,372a3.83,3.83,0,0,1-1.55-.3,3.29,3.29,0,0,1-1.16-.84,3.7,3.7,0,0,1-.73-1.28,5,5,0,0,1-.25-1.63,4.72,4.72,0,0,1,.25-1.55,3.84,3.84,0,0,1,.73-1.29,3.54,3.54,0,0,1,1.18-.88A3.68,3.68,0,0,1,981,363.89Zm1.91,3.32a3.26,3.26,0,0,0-.19-.82,2,2,0,0,0-.39-.64,1.67,1.67,0,0,0-.59-.41,2.23,2.23,0,0,0-1.6,0,1.77,1.77,0,0,0-.6.42,2.09,2.09,0,0,0-.4.64,2.93,2.93,0,0,0-.2.82Z"/><polygon class="cls-5" points="846.2 396.77 846.2 334.77 877.12 334.77 895.2 352.85 895.2 396.77 846.2 396.77"/><path class="cls-1" d="M876.71,335.77l17.5,17.5v42.5h-47v-60h29.5m.83-2H845.2v64h51V352.43l-18.67-18.67Z"/><polygon class="cls-14" points="877.7 352.27 894.7 352.27 877.7 335.27 877.7 352.27"/><line class="cls-15" x1="862.2" y1="357.27" x2="886.2" y2="357.27"/><line class="cls-15" x1="862.2" y1="362.27" x2="886.2" y2="362.27"/><line class="cls-15" x1="862.2" y1="371.27" x2="886.2" y2="371.27"/><line class="cls-15" x1="862.2" y1="376.27" x2="886.2" y2="376.27"/><line class="cls-15" x1="862.2" y1="385.27" x2="886.2" y2="385.27"/><rect class="cls-1" x="853.2" y="355.77" width="4" height="4"/><rect class="cls-1" x="853.2" y="369.77" width="4" height="4"/><rect class="cls-1" x="853.2" y="383.77" width="4" height="4"/><ellipse class="cls-16" cx="879.35" cy="467.11" rx="17.29" ry="17.07" transform="translate(406.51 1343.4) rotate(-89.63)"/><polygon class="cls-16" points="893.75 489.35 884.29 489.35 879.35 500.63 874.41 489.35 864.95 489.35 854.42 525.3 863.24 537.6 879.35 537.6 895.46 537.6 904.28 525.3 893.75 489.35"/><path class="cls-1" d="M886.69,504.15a9.75,9.75,0,0,0-7.09,3,9.75,9.75,0,0,0-7.09-3c-5.22,0-9.45,3.91-9.45,8.74,0,6.76,8.59,14.15,14.18,18.24.87.64,1.67,1.2,2.35,1.66.68-.46,1.48-1,2.35-1.66,5.6-4.09,14.18-11.48,14.18-18.24C896.14,508.07,891.91,504.15,886.69,504.15Z"/><path class="cls-10" d="M874.22,512.09v5.38a1.9,1.9,0,0,0,.42,1.37,1.79,1.79,0,0,0,1.34.44,2.82,2.82,0,0,0,.79-.1,1.28,1.28,0,0,0,.55-.32,1.33,1.33,0,0,0,.32-.56,2.81,2.81,0,0,0,.11-.83v-5.38h1.88v5.38a3.29,3.29,0,0,1-.93,2.49,3.77,3.77,0,0,1-2.72.9,5.08,5.08,0,0,1-1.59-.23,3,3,0,0,1-1.14-.66,3.27,3.27,0,0,1-.92-2.5v-5.38Z"/><path class="cls-10" d="M882.92,512.09l1.68,2.74,1.74-2.74h2.06l-2.75,4.09,3,4.48H886.4l-1.87-3-1.91,3H880.5l3-4.49-2.76-4.08Z"/><path class="cls-1" d="M862.65,462.71c1.64-7.87,8.57-13.13,16.81-13.08A17.12,17.12,0,0,1,896,462.87Z"/><rect class="cls-1" x="851.48" y="460.04" width="44.11" height="3.06"/><polygon class="cls-1" points="954.25 469.7 954.25 489.8 943.53 485.87 947.04 466.59 954.25 469.7"/><polygon class="cls-1" points="920.03 469.59 920.03 489.69 930.75 485.76 927.24 466.48 920.03 469.59"/><ellipse class="cls-16" cx="937.18" cy="469.94" rx="16.7" ry="16.5" transform="translate(461.15 1404.04) rotate(-89.63)"/><polygon class="cls-16" points="951.1 490.98 941.96 490.98 937.18 501.88 932.41 490.98 923.27 490.98 913.09 525.71 921.62 537.6 937.18 537.6 952.75 537.6 961.28 525.71 951.1 490.98"/><path class="cls-1" d="M932.27,453.42s-1.67,17.13,21.31,14.69C955.19,467.94,947,448.2,932.27,453.42Z"/><path class="cls-1" d="M932.37,454.2s2.18,12.68-11.53,13.91C919.23,468.26,925.6,452.79,932.37,454.2Z"/><polyline class="cls-1" points="932.3 490.52 927.86 490.87 926.54 499.74 934.81 496.44"/><polyline class="cls-1" points="941.9 490.67 946.35 491.03 947.66 499.9 939.4 496.6"/><path class="cls-1" d="M944.69,504.15a9.75,9.75,0,0,0-7.09,3,9.75,9.75,0,0,0-7.09-3c-5.22,0-9.45,3.91-9.45,8.74,0,6.76,8.59,14.15,14.18,18.24.87.64,1.67,1.2,2.35,1.66.68-.46,1.48-1,2.35-1.66,5.6-4.09,14.18-11.48,14.18-18.24C954.14,508.07,949.91,504.15,944.69,504.15Z"/><path class="cls-10" d="M932.22,512.09v5.38a1.9,1.9,0,0,0,.43,1.37,1.79,1.79,0,0,0,1.34.44,2.82,2.82,0,0,0,.79-.1,1.28,1.28,0,0,0,.55-.32,1.33,1.33,0,0,0,.32-.56,2.81,2.81,0,0,0,.11-.83v-5.38h1.88v5.38a3.29,3.29,0,0,1-.93,2.49,3.77,3.77,0,0,1-2.72.9,5.07,5.07,0,0,1-1.59-.23,3,3,0,0,1-1.14-.66,3.27,3.27,0,0,1-.92-2.5v-5.38Z"/><path class="cls-10" d="M940.92,512.09l1.68,2.74,1.74-2.74h2.06l-2.75,4.09,3,4.48H944.4l-1.87-3-1.91,3H938.5l3-4.49-2.76-4.08Z"/><rect class="cls-5" x="447.43" y="-2.85" width="131.16" height="48"/><path class="cls-7" d="M472.54,7.76V14a2.65,2.65,0,0,0,.57,1.86,2.36,2.36,0,0,0,1.8.61,2.42,2.42,0,0,0,1.81-.59A2.6,2.6,0,0,0,477.3,14V7.76H479V14.1A3.84,3.84,0,0,1,478,16.94a4.21,4.21,0,0,1-3.08,1,5.62,5.62,0,0,1-1.77-.26,3.26,3.26,0,0,1-2.1-2,4.72,4.72,0,0,1-.25-1.58V7.76Z"/><path class="cls-7" d="M487.6,15.44a2.33,2.33,0,0,1-.26,1.14,2.27,2.27,0,0,1-.71.79,3.15,3.15,0,0,1-1.06.46,5.6,5.6,0,0,1-1.31.15,5.32,5.32,0,0,1-1.26-.14,3.21,3.21,0,0,1-1-.44,2.51,2.51,0,0,1-.73-.76,2.57,2.57,0,0,1-.36-1.1h1.62a1.34,1.34,0,0,0,.59.94,1.75,1.75,0,0,0,.54.24,2.54,2.54,0,0,0,.65.08,2.79,2.79,0,0,0,.62-.07,1.7,1.7,0,0,0,.53-.21,1.16,1.16,0,0,0,.37-.36.91.91,0,0,0,.14-.51.72.72,0,0,0-.12-.41,1.08,1.08,0,0,0-.31-.3,2.15,2.15,0,0,0-.46-.21l-.55-.16-1.09-.26a7,7,0,0,1-1.06-.33,2.79,2.79,0,0,1-.74-.43,1.57,1.57,0,0,1-.43-.57,1.84,1.84,0,0,1-.14-.74,2.08,2.08,0,0,1,.25-1,2.16,2.16,0,0,1,.68-.73,3.12,3.12,0,0,1,1-.43,5.2,5.2,0,0,1,1.25-.14,4.54,4.54,0,0,1,1.24.16,3,3,0,0,1,1,.44,2.22,2.22,0,0,1,.64.69,2.29,2.29,0,0,1,.29.9h-1.62a1.19,1.19,0,0,0-.52-.75,1.92,1.92,0,0,0-1.07-.26,2.7,2.7,0,0,0-.55.05,1.44,1.44,0,0,0-.45.17.88.88,0,0,0-.3.29.75.75,0,0,0-.11.42.69.69,0,0,0,.12.41,1,1,0,0,0,.3.29,1.67,1.67,0,0,0,.41.19L484,13l1.61.38a5,5,0,0,1,.8.26A2.26,2.26,0,0,1,487,14a1.71,1.71,0,0,1,.43.59A2.17,2.17,0,0,1,487.6,15.44Z"/><path class="cls-7" d="M492.68,9.88a3.5,3.5,0,0,1,1.57.33,3.25,3.25,0,0,1,1.13.9,3.89,3.89,0,0,1,.68,1.32,5.55,5.55,0,0,1,.23,1.6v.31h-5.66a3.22,3.22,0,0,0,.16.95,2.21,2.21,0,0,0,.4.73,1.81,1.81,0,0,0,.63.48,2,2,0,0,0,.84.17,2.22,2.22,0,0,0,1.14-.27,2,2,0,0,0,.71-.7h1.59a3.58,3.58,0,0,1-.53.95,3.32,3.32,0,0,1-.77.72,3.55,3.55,0,0,1-1,.45,4.28,4.28,0,0,1-1.18.16,3.83,3.83,0,0,1-1.55-.3,3.29,3.29,0,0,1-1.16-.84,3.7,3.7,0,0,1-.73-1.28,5,5,0,0,1-.25-1.63,4.72,4.72,0,0,1,.25-1.55,3.84,3.84,0,0,1,.73-1.29,3.54,3.54,0,0,1,1.18-.88A3.68,3.68,0,0,1,492.68,9.88Zm1.91,3.32a3.26,3.26,0,0,0-.19-.82,2,2,0,0,0-.39-.64,1.67,1.67,0,0,0-.59-.41,2.23,2.23,0,0,0-1.6,0,1.77,1.77,0,0,0-.6.42,2.09,2.09,0,0,0-.4.64,2.93,2.93,0,0,0-.2.82Z"/><path class="cls-7" d="M498,17.75V10.08h1.59v1.56h0a2.79,2.79,0,0,1,1-1.26,2.6,2.6,0,0,1,1.5-.46h.25l.24,0v1.59l-.29,0H502a2.15,2.15,0,0,0-1.73.7,2.76,2.76,0,0,0-.59,1.83v3.71Z"/><path class="cls-7" d="M509.76,6.75V8.4h-1.69V6.75Zm0,3.34v7.67h-1.69V10.08Z"/><path class="cls-7" d="M516.08,9.88a3.78,3.78,0,0,1,1.28.19,2.1,2.1,0,0,1,.87.57,2.27,2.27,0,0,1,.49.94,5,5,0,0,1,.15,1.31v4.87h-1.68V13.2a2.47,2.47,0,0,0-.37-1.48,1.39,1.39,0,0,0-1.2-.5,1.72,1.72,0,0,0-1.44.6,2.66,2.66,0,0,0-.48,1.7v4.23H512V10.08h1.61v1.16h0a2.49,2.49,0,0,1,.43-.58,2.55,2.55,0,0,1,.56-.43,2.73,2.73,0,0,1,.66-.27A3,3,0,0,1,516.08,9.88Z"/><path class="cls-7" d="M527.43,15.44a2.33,2.33,0,0,1-.26,1.14,2.27,2.27,0,0,1-.71.79,3.15,3.15,0,0,1-1.06.46,5.6,5.6,0,0,1-1.31.15,5.32,5.32,0,0,1-1.26-.14,3.21,3.21,0,0,1-1-.44,2.51,2.51,0,0,1-.73-.76,2.57,2.57,0,0,1-.36-1.1h1.62a1.34,1.34,0,0,0,.59.94,1.75,1.75,0,0,0,.54.24,2.54,2.54,0,0,0,.65.08,2.79,2.79,0,0,0,.62-.07,1.7,1.7,0,0,0,.53-.21,1.16,1.16,0,0,0,.37-.36.91.91,0,0,0,.14-.51.72.72,0,0,0-.12-.41,1.08,1.08,0,0,0-.31-.3,2.15,2.15,0,0,0-.46-.21l-.55-.16-1.09-.26a7,7,0,0,1-1.06-.33,2.79,2.79,0,0,1-.74-.43A1.57,1.57,0,0,1,521,13a1.84,1.84,0,0,1-.14-.74,2.08,2.08,0,0,1,.25-1,2.16,2.16,0,0,1,.68-.73,3.12,3.12,0,0,1,1-.43A5.2,5.2,0,0,1,524,9.88a4.54,4.54,0,0,1,1.24.16,3,3,0,0,1,1,.44,2.22,2.22,0,0,1,.64.69,2.29,2.29,0,0,1,.29.9h-1.62a1.19,1.19,0,0,0-.52-.75,1.92,1.92,0,0,0-1.07-.26,2.7,2.7,0,0,0-.55.05,1.44,1.44,0,0,0-.45.17.88.88,0,0,0-.3.29.75.75,0,0,0-.11.42.69.69,0,0,0,.12.41,1,1,0,0,0,.3.29,1.67,1.67,0,0,0,.41.19l.43.12,1.61.38a5,5,0,0,1,.8.26,2.26,2.26,0,0,1,.64.39,1.71,1.71,0,0,1,.43.59A2.17,2.17,0,0,1,527.43,15.44Z"/><path class="cls-7" d="M530.94,6.75V8.4h-1.69V6.75Zm0,3.34v7.67h-1.69V10.08Z"/><path class="cls-7" d="M536.23,9.88a2.73,2.73,0,0,1,1.4.35,2.47,2.47,0,0,1,.94,1h0V10.08h1.62v7.2a4,4,0,0,1-.27,1.53,2.79,2.79,0,0,1-.76,1.07,3.17,3.17,0,0,1-1.2.63,5.62,5.62,0,0,1-1.57.21,5.2,5.2,0,0,1-1.12-.12,3.42,3.42,0,0,1-1-.39,2.47,2.47,0,0,1-.76-.69,2.05,2.05,0,0,1-.37-1h1.67a1.19,1.19,0,0,0,.57.77,2.33,2.33,0,0,0,1.17.26,1.92,1.92,0,0,0,1.49-.57,2.34,2.34,0,0,0,.52-1.63V16.15h0a2.32,2.32,0,0,1-1,1,2.88,2.88,0,0,1-1.42.35,3.4,3.4,0,0,1-1.47-.29,2.87,2.87,0,0,1-1-.81,3.45,3.45,0,0,1-.61-1.21,5.51,5.51,0,0,1-.2-1.52,4.73,4.73,0,0,1,.21-1.42,3.59,3.59,0,0,1,.63-1.2,3.1,3.1,0,0,1,1-.84A3.21,3.21,0,0,1,536.23,9.88Zm-1.66,3.79a4,4,0,0,0,.12,1,2.29,2.29,0,0,0,.37.8,1.74,1.74,0,0,0,.62.52,1.93,1.93,0,0,0,.87.18,1.85,1.85,0,0,0,.88-.2,2,2,0,0,0,.65-.54,2.34,2.34,0,0,0,.4-.77,3.07,3.07,0,0,0,.13-.91,4.1,4.1,0,0,0-.12-1,2.43,2.43,0,0,0-.38-.82,1.78,1.78,0,0,0-.64-.55,2,2,0,0,0-.91-.2,1.82,1.82,0,0,0-.9.21,1.77,1.77,0,0,0-.62.56,2.48,2.48,0,0,0-.36.8A3.68,3.68,0,0,0,534.57,13.67Z"/><path class="cls-7" d="M547.67,17.75V13.2a2.47,2.47,0,0,0-.37-1.48,1.39,1.39,0,0,0-1.2-.5,2.1,2.1,0,0,0-.84.16,1.54,1.54,0,0,0-.6.46,1.94,1.94,0,0,0-.36.72,3.62,3.62,0,0,0-.12,1v4.23h-1.68V7.16h1.68v4.09h0a2.26,2.26,0,0,1,.41-.56,2.75,2.75,0,0,1,.55-.43,2.61,2.61,0,0,1,.66-.28,2.73,2.73,0,0,1,.71-.1,3.87,3.87,0,0,1,1.26.18,2.07,2.07,0,0,1,.87.55,2.29,2.29,0,0,1,.5.94,4.9,4.9,0,0,1,.16,1.33v4.87Z"/><path class="cls-7" d="M555.39,17.81l-.33,0h-.64a5.28,5.28,0,0,1-.86-.07,1.84,1.84,0,0,1-.7-.25,1.3,1.3,0,0,1-.47-.52,1.94,1.94,0,0,1-.17-.88V11.27h-1.5V10.08h1.5V7.79h1.69v2.3h1.75v1.19h-1.75v4.34a1,1,0,0,0,.19.68.94.94,0,0,0,.69.21h.67l.2,0v1.33Z"/><rect class="cls-5" x="470.29" y="230.83" width="80.34" height="41.65"/><path class="cls-7" d="M489.8,247.92v10h-1.75v-10Z"/><path class="cls-7" d="M495.95,258l-.33,0H495a5.28,5.28,0,0,1-.86-.07,1.84,1.84,0,0,1-.7-.25,1.3,1.3,0,0,1-.47-.52,1.94,1.94,0,0,1-.17-.88v-4.85h-1.5v-1.19h1.5v-2.3h1.69v2.3h1.75v1.19h-1.75v4.34a1,1,0,0,0,.19.68.94.94,0,0,0,.69.21H496l.2,0v1.33Z"/><path class="cls-7" d="M501.07,250a3.5,3.5,0,0,1,1.57.33,3.25,3.25,0,0,1,1.13.9,3.89,3.89,0,0,1,.68,1.32,5.55,5.55,0,0,1,.23,1.6v.31H499a3.22,3.22,0,0,0,.16.95,2.21,2.21,0,0,0,.4.73,1.81,1.81,0,0,0,.63.48,2,2,0,0,0,.84.17,2.22,2.22,0,0,0,1.14-.27,2,2,0,0,0,.71-.7h1.59a3.58,3.58,0,0,1-.53.95,3.32,3.32,0,0,1-.77.72,3.55,3.55,0,0,1-1,.45,4.28,4.28,0,0,1-1.18.16,3.83,3.83,0,0,1-1.55-.3,3.29,3.29,0,0,1-1.16-.84,3.7,3.7,0,0,1-.73-1.28,5,5,0,0,1-.25-1.63,4.72,4.72,0,0,1,.25-1.55,3.84,3.84,0,0,1,.73-1.29,3.54,3.54,0,0,1,1.18-.88A3.68,3.68,0,0,1,501.07,250Zm1.91,3.32a3.26,3.26,0,0,0-.19-.82,2,2,0,0,0-.39-.64,1.67,1.67,0,0,0-.59-.41,2.23,2.23,0,0,0-1.6,0,1.77,1.77,0,0,0-.6.42,2.09,2.09,0,0,0-.4.64,2.93,2.93,0,0,0-.2.82Z"/><path class="cls-7" d="M506.43,257.92v-7.67H508v1.56h0a2.79,2.79,0,0,1,1-1.26,2.6,2.6,0,0,1,1.5-.46h.25l.24,0v1.59l-.29,0h-.33a2.15,2.15,0,0,0-1.73.7,2.76,2.76,0,0,0-.59,1.83v3.71Z"/><path class="cls-7" d="M519.33,257.92a4.38,4.38,0,0,1-.51.1l-.46,0a2.1,2.1,0,0,1-.49-.05,1.06,1.06,0,0,1-.39-.18,1,1,0,0,1-.28-.34A1.48,1.48,0,0,1,517,257h0a3.1,3.1,0,0,1-.53.54,2.65,2.65,0,0,1-.61.37,3.88,3.88,0,0,1-1.53.28,2.83,2.83,0,0,1-1.89-.59,2.06,2.06,0,0,1-.7-1.69,2,2,0,0,1,.7-1.65,2.47,2.47,0,0,1,.68-.37,5.48,5.48,0,0,1,.85-.23q.46-.09,1-.15l1-.12a2.51,2.51,0,0,0,.39-.08.93.93,0,0,0,.31-.16.7.7,0,0,0,.2-.26.92.92,0,0,0,.07-.38,1.15,1.15,0,0,0-.36-.92,2.47,2.47,0,0,0-2.39,0,1.16,1.16,0,0,0-.46.85H512a2.34,2.34,0,0,1,.33-1,2.29,2.29,0,0,1,.73-.72,3.37,3.37,0,0,1,1.05-.42,5.93,5.93,0,0,1,1.31-.14,4,4,0,0,1,2.39.58,1.93,1.93,0,0,1,.78,1.64v4.14a.55.55,0,0,0,.09.35.39.39,0,0,0,.32.11h.14l.15,0Zm-2.39-3.9h0a1.11,1.11,0,0,1-.64.27l-.56.1-.75.12a2.59,2.59,0,0,0-1.15.43,1,1,0,0,0-.37.84,1,1,0,0,0,.43.89,1.72,1.72,0,0,0,1,.28,2.09,2.09,0,0,0,1.48-.51,1.85,1.85,0,0,0,.57-1.45Z"/><path class="cls-7" d="M524.73,258l-.33,0h-.64a5.28,5.28,0,0,1-.86-.07,1.84,1.84,0,0,1-.7-.25,1.3,1.3,0,0,1-.47-.52,1.94,1.94,0,0,1-.17-.88v-4.85h-1.5v-1.19h1.5v-2.3h1.69v2.3H525v1.19h-1.75v4.34a1,1,0,0,0,.19.68.94.94,0,0,0,.69.21h.67l.2,0v1.33Z"/><path class="cls-7" d="M529.86,250a3.5,3.5,0,0,1,1.57.33,3.25,3.25,0,0,1,1.13.9,3.89,3.89,0,0,1,.68,1.32,5.55,5.55,0,0,1,.23,1.6v.31h-5.66a3.22,3.22,0,0,0,.16.95,2.21,2.21,0,0,0,.4.73,1.81,1.81,0,0,0,.63.48,2,2,0,0,0,.84.17,2.22,2.22,0,0,0,1.14-.27,2,2,0,0,0,.71-.7h1.59a3.58,3.58,0,0,1-.53.95,3.32,3.32,0,0,1-.77.72,3.55,3.55,0,0,1-1,.45,4.28,4.28,0,0,1-1.18.16,3.83,3.83,0,0,1-1.55-.3,3.29,3.29,0,0,1-1.16-.84,3.7,3.7,0,0,1-.73-1.28,5,5,0,0,1-.25-1.63,4.72,4.72,0,0,1,.25-1.55,3.84,3.84,0,0,1,.73-1.29,3.54,3.54,0,0,1,1.18-.88A3.68,3.68,0,0,1,529.86,250Zm1.91,3.32a3.26,3.26,0,0,0-.19-.82,2,2,0,0,0-.39-.64,1.67,1.67,0,0,0-.59-.41,2.23,2.23,0,0,0-1.6,0,1.77,1.77,0,0,0-.6.42,2.09,2.09,0,0,0-.4.64,2.93,2.93,0,0,0-.2.82Z"/><line class="cls-3" x1="845.85" y1="194.17" x2="845.85" y2="313.88"/><polygon class="cls-7" points="835.87 197.09 845.85 179.82 855.82 197.09 835.87 197.09"/><rect class="cls-5" x="778.72" y="225.73" width="249.93" height="39.47"/><path class="cls-1" d="M959.61,230.4a5.15,5.15,0,0,1,1.5.21,4.15,4.15,0,0,1,1.26.63,3.56,3.56,0,0,1,.92,1,3.8,3.8,0,0,1,.5,1.37h-1.7a2.16,2.16,0,0,0-.33-.74,2.24,2.24,0,0,0-.55-.55,2.45,2.45,0,0,0-.73-.34,3.19,3.19,0,0,0-.88-.12,2.94,2.94,0,0,0-1.37.3,2.8,2.8,0,0,0-1,.82,3.59,3.59,0,0,0-.57,1.2,5.53,5.53,0,0,0-.19,1.46,5.42,5.42,0,0,0,.17,1.36,3.61,3.61,0,0,0,.55,1.19,2.86,2.86,0,0,0,1,.84,2.9,2.9,0,0,0,1.41.32,3.26,3.26,0,0,0,1.12-.18,2.38,2.38,0,0,0,.85-.53,2.44,2.44,0,0,0,.56-.85,3.52,3.52,0,0,0,.24-1.14h-2.64v-1.34H964v5.29H962.8l-.18-1.37h0a3.42,3.42,0,0,1-1.3,1.22,3.76,3.76,0,0,1-1.73.39,4.81,4.81,0,0,1-2-.4,4.45,4.45,0,0,1-1.51-1.09,4.89,4.89,0,0,1-1-1.65,6.09,6.09,0,0,1-.34-2.06,6.29,6.29,0,0,1,.33-2,4.9,4.9,0,0,1,.95-1.67,4.49,4.49,0,0,1,1.52-1.13A4.83,4.83,0,0,1,959.61,230.4Z"/><path class="cls-1" d="M967.79,229.62v1.65h-1.69v-1.65Zm0,3.34v7.67h-1.69V233Z"/><path class="cls-1" d="M971,233l1.91,6h0l1.89-6h1.68l-2.69,7.67h-1.85L969.17,233Z"/><path class="cls-1" d="M981.1,232.75a3.51,3.51,0,0,1,1.57.33,3.25,3.25,0,0,1,1.12.9,3.89,3.89,0,0,1,.68,1.32,5.55,5.55,0,0,1,.23,1.6v.31H979a3.22,3.22,0,0,0,.16.95,2.23,2.23,0,0,0,.4.73,1.81,1.81,0,0,0,.63.48,2,2,0,0,0,.84.17,2.23,2.23,0,0,0,1.14-.27,2,2,0,0,0,.71-.7h1.59a3.58,3.58,0,0,1-.53.95,3.3,3.3,0,0,1-.77.72,3.55,3.55,0,0,1-1,.45,4.28,4.28,0,0,1-1.18.16,3.83,3.83,0,0,1-1.55-.3,3.3,3.3,0,0,1-1.16-.84,3.71,3.71,0,0,1-.73-1.28,5,5,0,0,1-.25-1.63,4.72,4.72,0,0,1,.25-1.55,3.84,3.84,0,0,1,.74-1.29,3.53,3.53,0,0,1,1.18-.88A3.68,3.68,0,0,1,981.1,232.75Zm1.91,3.32a3.21,3.21,0,0,0-.19-.82,2,2,0,0,0-.39-.64,1.67,1.67,0,0,0-.59-.41,2.23,2.23,0,0,0-1.6,0,1.77,1.77,0,0,0-.6.42,2.07,2.07,0,0,0-.4.64,2.94,2.94,0,0,0-.2.82Z"/><path class="cls-1" d="M941.42,250.95v6.48h-1.69v-6.48h-1.49v-1.19h1.49v-.59a2.32,2.32,0,0,1,.61-1.77,1.91,1.91,0,0,1,.74-.42,3.52,3.52,0,0,1,1.05-.14h.51l.61.05v1.3l-.21,0-.24,0h-.4a1,1,0,0,0-.76.24,1.16,1.16,0,0,0-.22.8v.59h1.68v1.19Z"/><path class="cls-1" d="M947.76,249.55a3.5,3.5,0,0,1,1.57.33,3.25,3.25,0,0,1,1.13.9,3.89,3.89,0,0,1,.68,1.32,5.55,5.55,0,0,1,.23,1.6V254h-5.66a3.25,3.25,0,0,0,.16.95,2.21,2.21,0,0,0,.4.73,1.82,1.82,0,0,0,.63.48,2,2,0,0,0,.84.17,2.22,2.22,0,0,0,1.14-.27,2,2,0,0,0,.71-.7h1.59a3.55,3.55,0,0,1-.53.95,3.32,3.32,0,0,1-.77.72,3.52,3.52,0,0,1-1,.45,4.28,4.28,0,0,1-1.18.16,3.82,3.82,0,0,1-1.55-.3,3.27,3.27,0,0,1-1.16-.84,3.68,3.68,0,0,1-.73-1.28,5,5,0,0,1-.25-1.63,4.75,4.75,0,0,1,.25-1.55,3.86,3.86,0,0,1,.73-1.29,3.55,3.55,0,0,1,1.18-.88A3.68,3.68,0,0,1,947.76,249.55Zm1.91,3.32a3.26,3.26,0,0,0-.19-.82,2,2,0,0,0-.39-.64,1.68,1.68,0,0,0-.59-.41,2.23,2.23,0,0,0-1.6,0,1.75,1.75,0,0,0-.6.42,2.1,2.1,0,0,0-.4.64,3,3,0,0,0-.2.82Z"/><path class="cls-1" d="M956.42,249.55a3.51,3.51,0,0,1,1.57.33,3.25,3.25,0,0,1,1.12.9,3.89,3.89,0,0,1,.68,1.32,5.55,5.55,0,0,1,.23,1.6V254h-5.66a3.22,3.22,0,0,0,.16.95,2.23,2.23,0,0,0,.4.73,1.81,1.81,0,0,0,.63.48,2,2,0,0,0,.84.17,2.23,2.23,0,0,0,1.14-.27,2,2,0,0,0,.71-.7h1.59a3.58,3.58,0,0,1-.53.95,3.3,3.3,0,0,1-.77.72,3.55,3.55,0,0,1-1,.45,4.28,4.28,0,0,1-1.18.16,3.83,3.83,0,0,1-1.55-.3,3.3,3.3,0,0,1-1.16-.84,3.71,3.71,0,0,1-.73-1.28,5,5,0,0,1-.25-1.63,4.72,4.72,0,0,1,.25-1.55,3.84,3.84,0,0,1,.74-1.29,3.53,3.53,0,0,1,1.18-.88A3.68,3.68,0,0,1,956.42,249.55Zm1.91,3.32a3.21,3.21,0,0,0-.19-.82,2,2,0,0,0-.39-.64,1.67,1.67,0,0,0-.59-.41,2.23,2.23,0,0,0-1.6,0,1.77,1.77,0,0,0-.6.42,2.07,2.07,0,0,0-.4.64,2.94,2.94,0,0,0-.2.82Z"/><path class="cls-1" d="M968.94,246.83v10.6h-1.6v-1.15h0a2.48,2.48,0,0,1-.43.58,2.56,2.56,0,0,1-.57.43,2.86,2.86,0,0,1-.69.27,3.31,3.31,0,0,1-.78.09,3.17,3.17,0,0,1-1.49-.33,3.22,3.22,0,0,1-1.08-.9,4,4,0,0,1-.65-1.3,5.45,5.45,0,0,1-.22-1.56,5.26,5.26,0,0,1,.21-1.47,3.9,3.9,0,0,1,.63-1.28,3.2,3.2,0,0,1,1.06-.9,3.39,3.39,0,0,1,2.24-.26,2.91,2.91,0,0,1,.67.25,2.38,2.38,0,0,1,1,1h0v-4Zm-5.87,6.75a4.28,4.28,0,0,0,.11,1,2.85,2.85,0,0,0,.37.89,2.09,2.09,0,0,0,.65.66,1.74,1.74,0,0,0,1,.26,2,2,0,0,0,.92-.2,1.84,1.84,0,0,0,.67-.57,2.63,2.63,0,0,0,.4-.87,4.31,4.31,0,0,0,.14-1.12,4.41,4.41,0,0,0-.11-1,2.71,2.71,0,0,0-.37-.87,2,2,0,0,0-.66-.63,1.92,1.92,0,0,0-1-.24,1.81,1.81,0,0,0-1,.24,2,2,0,0,0-.65.62,2.73,2.73,0,0,0-.37.88A4.63,4.63,0,0,0,963.08,253.59Z"/><path class="cls-1" d="M978.65,253.59a5.62,5.62,0,0,1-.2,1.49,4,4,0,0,1-.61,1.3,3.07,3.07,0,0,1-1,.92,2.93,2.93,0,0,1-1.45.35,3.43,3.43,0,0,1-1.58-.35,2.22,2.22,0,0,1-1-1h0v1.15h-1.59v-10.6h1.68v4h0a2.22,2.22,0,0,1,.42-.55,2.55,2.55,0,0,1,.58-.42,3.14,3.14,0,0,1,.71-.26,3.37,3.37,0,0,1,.79-.09,2.94,2.94,0,0,1,1.45.34,3.08,3.08,0,0,1,1,.91,4,4,0,0,1,.61,1.29A5.67,5.67,0,0,1,978.65,253.59Zm-1.69,0a4.39,4.39,0,0,0-.11-1,2.92,2.92,0,0,0-.35-.89,2,2,0,0,0-.64-.65,1.75,1.75,0,0,0-1-.25,1.85,1.85,0,0,0-1,.24,2,2,0,0,0-.65.63,2.81,2.81,0,0,0-.37.88,4.27,4.27,0,0,0-.12,1,4.23,4.23,0,0,0,.11,1,2.76,2.76,0,0,0,.37.88,2.05,2.05,0,0,0,.66.64,1.84,1.84,0,0,0,1,.25,1.74,1.74,0,0,0,.93-.24,2,2,0,0,0,.63-.62,2.85,2.85,0,0,0,.36-.88A4.52,4.52,0,0,0,977,253.6Z"/><path class="cls-1" d="M987.7,257.43a4.34,4.34,0,0,1-.51.1l-.46,0a2.1,2.1,0,0,1-.49-.05,1.06,1.06,0,0,1-.39-.18,1,1,0,0,1-.28-.34,1.5,1.5,0,0,1-.14-.52h0a3.06,3.06,0,0,1-.53.54,2.63,2.63,0,0,1-.61.37,3.88,3.88,0,0,1-1.53.28,2.83,2.83,0,0,1-1.89-.59,2.07,2.07,0,0,1-.7-1.69,2,2,0,0,1,.7-1.65,2.47,2.47,0,0,1,.68-.37,5.52,5.52,0,0,1,.85-.23q.46-.09,1-.15l1-.12a2.52,2.52,0,0,0,.39-.08.92.92,0,0,0,.31-.16.69.69,0,0,0,.2-.26.9.9,0,0,0,.07-.38A1.15,1.15,0,0,0,985,251a2.47,2.47,0,0,0-2.39,0,1.17,1.17,0,0,0-.46.85h-1.69a2.35,2.35,0,0,1,.33-1,2.3,2.3,0,0,1,.73-.72,3.37,3.37,0,0,1,1.05-.42,5.93,5.93,0,0,1,1.31-.14,4,4,0,0,1,2.39.58,1.93,1.93,0,0,1,.78,1.64v4.14a.54.54,0,0,0,.09.35.38.38,0,0,0,.32.11h.14l.15,0Zm-2.39-3.9h0a1.11,1.11,0,0,1-.64.27l-.56.1-.75.12a2.58,2.58,0,0,0-1.15.43,1,1,0,0,0-.37.84,1,1,0,0,0,.43.89,1.73,1.73,0,0,0,1,.28,2.09,2.09,0,0,0,1.48-.51,1.85,1.85,0,0,0,.57-1.45Z"/><path class="cls-1" d="M992.78,249.55a4.76,4.76,0,0,1,1.24.16,3.24,3.24,0,0,1,1,.48,2.64,2.64,0,0,1,.75.79,2.7,2.7,0,0,1,.37,1.11h-1.66a1.41,1.41,0,0,0-.55-.91,2,2,0,0,0-1.18-.32,1.79,1.79,0,0,0-.95.24,2.1,2.1,0,0,0-.66.64,2.84,2.84,0,0,0-.39.89,4,4,0,0,0-.13,1,4.09,4.09,0,0,0,.12,1,2.82,2.82,0,0,0,.37.88,2.1,2.1,0,0,0,.65.64,1.76,1.76,0,0,0,1,.25,2.1,2.1,0,0,0,.7-.11,1.76,1.76,0,0,0,.55-.31,1.66,1.66,0,0,0,.39-.47,2,2,0,0,0,.21-.61h1.63a3.61,3.61,0,0,1-.38,1.15,3,3,0,0,1-.72.88,3.23,3.23,0,0,1-1,.57,4.07,4.07,0,0,1-1.33.21,3.9,3.9,0,0,1-1.54-.3,3.53,3.53,0,0,1-1.2-.83,3.76,3.76,0,0,1-.78-1.26,4.48,4.48,0,0,1-.28-1.59,5,5,0,0,1,.25-1.59,3.87,3.87,0,0,1,.74-1.31,3.45,3.45,0,0,1,1.2-.89A3.88,3.88,0,0,1,992.78,249.55Z"/><path class="cls-1" d="M999.8,246.83v6l3.23-3.1h2l-3,2.82,3.31,4.85h-2.05l-2.44-3.69-1.07,1v2.74h-1.69v-10.6Z"/><path class="cls-7" d="M833,230.63v6.27a2.65,2.65,0,0,0,.57,1.86,2.36,2.36,0,0,0,1.8.61,2.42,2.42,0,0,0,1.81-.59,2.6,2.6,0,0,0,.58-1.87v-6.28h1.75V237a3.84,3.84,0,0,1-1.05,2.84,4.21,4.21,0,0,1-3.08,1,5.62,5.62,0,0,1-1.77-.26,3.26,3.26,0,0,1-2.1-2,4.72,4.72,0,0,1-.25-1.58v-6.34Z"/><path class="cls-7" d="M848.11,238.31a2.33,2.33,0,0,1-.26,1.14,2.27,2.27,0,0,1-.71.79,3.15,3.15,0,0,1-1.06.46,5.6,5.6,0,0,1-1.31.15,5.32,5.32,0,0,1-1.26-.14,3.21,3.21,0,0,1-1-.44,2.51,2.51,0,0,1-.73-.76,2.57,2.57,0,0,1-.36-1.1H843a1.34,1.34,0,0,0,.59.94,1.75,1.75,0,0,0,.54.24,2.54,2.54,0,0,0,.65.08,2.79,2.79,0,0,0,.62-.07,1.7,1.7,0,0,0,.53-.21,1.16,1.16,0,0,0,.37-.36.91.91,0,0,0,.14-.51.72.72,0,0,0-.12-.41,1.08,1.08,0,0,0-.31-.3,2.15,2.15,0,0,0-.46-.21l-.55-.16-1.09-.26a7,7,0,0,1-1.06-.33,2.79,2.79,0,0,1-.74-.43,1.57,1.57,0,0,1-.43-.57,1.84,1.84,0,0,1-.14-.74,2.08,2.08,0,0,1,.25-1,2.16,2.16,0,0,1,.68-.73,3.12,3.12,0,0,1,1-.43,5.2,5.2,0,0,1,1.25-.14,4.54,4.54,0,0,1,1.24.16,3,3,0,0,1,1,.44,2.22,2.22,0,0,1,.64.69,2.29,2.29,0,0,1,.29.9h-1.62a1.19,1.19,0,0,0-.52-.75,1.92,1.92,0,0,0-1.07-.26,2.7,2.7,0,0,0-.55.05,1.44,1.44,0,0,0-.45.17.88.88,0,0,0-.3.29.75.75,0,0,0-.11.42.69.69,0,0,0,.12.41,1,1,0,0,0,.3.29,1.67,1.67,0,0,0,.41.19l.43.12,1.61.38a5,5,0,0,1,.8.26,2.26,2.26,0,0,1,.64.39,1.71,1.71,0,0,1,.43.59A2.17,2.17,0,0,1,848.11,238.31Z"/><path class="cls-7" d="M853.19,232.75a3.5,3.5,0,0,1,1.57.33,3.25,3.25,0,0,1,1.13.9,3.89,3.89,0,0,1,.68,1.32,5.55,5.55,0,0,1,.23,1.6v.31h-5.66a3.22,3.22,0,0,0,.16.95,2.21,2.21,0,0,0,.4.73,1.81,1.81,0,0,0,.63.48,2,2,0,0,0,.84.17,2.22,2.22,0,0,0,1.14-.27,2,2,0,0,0,.71-.7h1.59a3.58,3.58,0,0,1-.53.95,3.32,3.32,0,0,1-.77.72,3.55,3.55,0,0,1-1,.45,4.28,4.28,0,0,1-1.18.16,3.83,3.83,0,0,1-1.55-.3,3.29,3.29,0,0,1-1.16-.84,3.7,3.7,0,0,1-.73-1.28,5,5,0,0,1-.25-1.63,4.72,4.72,0,0,1,.25-1.55,3.84,3.84,0,0,1,.73-1.29,3.54,3.54,0,0,1,1.18-.88A3.68,3.68,0,0,1,853.19,232.75Zm1.91,3.32a3.26,3.26,0,0,0-.19-.82,2,2,0,0,0-.39-.64,1.67,1.67,0,0,0-.59-.41,2.23,2.23,0,0,0-1.6,0,1.77,1.77,0,0,0-.6.42,2.09,2.09,0,0,0-.4.64,2.93,2.93,0,0,0-.2.82Z"/><path class="cls-7" d="M813.93,255.11a2.33,2.33,0,0,1-.26,1.14,2.27,2.27,0,0,1-.71.79,3.15,3.15,0,0,1-1.06.46,5.6,5.6,0,0,1-1.31.15,5.32,5.32,0,0,1-1.26-.14,3.21,3.21,0,0,1-1-.44,2.51,2.51,0,0,1-.73-.76,2.57,2.57,0,0,1-.36-1.1h1.62a1.34,1.34,0,0,0,.59.94,1.75,1.75,0,0,0,.54.24,2.54,2.54,0,0,0,.65.08,2.79,2.79,0,0,0,.62-.07,1.7,1.7,0,0,0,.53-.21,1.16,1.16,0,0,0,.37-.36.91.91,0,0,0,.14-.51.72.72,0,0,0-.12-.41,1.08,1.08,0,0,0-.31-.3,2.15,2.15,0,0,0-.46-.21l-.55-.16-1.09-.26a7,7,0,0,1-1.06-.33,2.79,2.79,0,0,1-.74-.43,1.57,1.57,0,0,1-.43-.57,1.84,1.84,0,0,1-.14-.74,2.08,2.08,0,0,1,.25-1,2.16,2.16,0,0,1,.68-.73,3.12,3.12,0,0,1,1-.43,5.2,5.2,0,0,1,1.25-.14,4.54,4.54,0,0,1,1.24.16,3,3,0,0,1,1,.44,2.22,2.22,0,0,1,.64.69,2.29,2.29,0,0,1,.29.9H812a1.19,1.19,0,0,0-.52-.75,1.92,1.92,0,0,0-1.07-.26,2.7,2.7,0,0,0-.55.05,1.44,1.44,0,0,0-.45.17.88.88,0,0,0-.3.29.75.75,0,0,0-.11.42.69.69,0,0,0,.12.41,1,1,0,0,0,.3.29,1.67,1.67,0,0,0,.41.19l.43.12,1.61.38a5,5,0,0,1,.8.26,2.26,2.26,0,0,1,.64.39,1.71,1.71,0,0,1,.43.59A2.17,2.17,0,0,1,813.93,255.11Z"/><path class="cls-7" d="M819.51,257.49l-.33,0h-.64a5.28,5.28,0,0,1-.86-.07,1.84,1.84,0,0,1-.7-.25,1.3,1.3,0,0,1-.47-.52,1.94,1.94,0,0,1-.17-.88v-4.85h-1.5v-1.19h1.5v-2.3H818v2.3h1.75v1.19H818v4.34a1,1,0,0,0,.19.68.94.94,0,0,0,.69.21h.67l.2,0v1.33Z"/><path class="cls-7" d="M822.21,249.76l2,5.89h0l1.91-5.89h1.74l-3.27,8.77a3.48,3.48,0,0,1-.34.69,2.13,2.13,0,0,1-.47.52,2,2,0,0,1-.64.32,2.81,2.81,0,0,1-.84.11l-.64,0-.54-.05v-1.39l.52.06h.41a1.18,1.18,0,0,0,.46-.08.87.87,0,0,0,.33-.25,1.58,1.58,0,0,0,.25-.42c.07-.17.14-.37.22-.6l-3-7.66Z"/><path class="cls-7" d="M830.88,246.83v10.6h-1.69v-10.6Z"/><path class="cls-7" d="M836.47,249.55a3.5,3.5,0,0,1,1.57.33,3.25,3.25,0,0,1,1.13.9,3.89,3.89,0,0,1,.68,1.32,5.55,5.55,0,0,1,.23,1.6V254H834.4a3.22,3.22,0,0,0,.16.95,2.21,2.21,0,0,0,.4.73,1.81,1.81,0,0,0,.63.48,2,2,0,0,0,.84.17,2.22,2.22,0,0,0,1.14-.27,2,2,0,0,0,.71-.7h1.59a3.58,3.58,0,0,1-.53.95,3.32,3.32,0,0,1-.77.72,3.55,3.55,0,0,1-1,.45,4.28,4.28,0,0,1-1.18.16,3.83,3.83,0,0,1-1.55-.3,3.29,3.29,0,0,1-1.16-.84,3.7,3.7,0,0,1-.73-1.28,5,5,0,0,1-.25-1.63,4.72,4.72,0,0,1,.25-1.55,3.84,3.84,0,0,1,.73-1.29,3.54,3.54,0,0,1,1.18-.88A3.68,3.68,0,0,1,836.47,249.55Zm1.91,3.32a3.26,3.26,0,0,0-.19-.82,2,2,0,0,0-.39-.64,1.67,1.67,0,0,0-.59-.41,2.23,2.23,0,0,0-1.6,0,1.77,1.77,0,0,0-.6.42,2.09,2.09,0,0,0-.4.64,2.93,2.93,0,0,0-.2.82Z"/><path class="cls-7" d="M848.91,249.55a2.73,2.73,0,0,1,1.4.35,2.47,2.47,0,0,1,.94,1h0v-1.13h1.62V257a4,4,0,0,1-.27,1.53,2.79,2.79,0,0,1-.76,1.07,3.17,3.17,0,0,1-1.2.63,5.62,5.62,0,0,1-1.57.21,5.2,5.2,0,0,1-1.12-.12,3.42,3.42,0,0,1-1-.39,2.47,2.47,0,0,1-.76-.69,2.05,2.05,0,0,1-.37-1h1.67a1.19,1.19,0,0,0,.57.77,2.33,2.33,0,0,0,1.17.26,1.92,1.92,0,0,0,1.49-.57,2.34,2.34,0,0,0,.52-1.63v-1.18h0a2.32,2.32,0,0,1-1,1,2.88,2.88,0,0,1-1.42.35,3.4,3.4,0,0,1-1.47-.29,2.87,2.87,0,0,1-1-.81,3.45,3.45,0,0,1-.61-1.21,5.51,5.51,0,0,1-.2-1.52,4.73,4.73,0,0,1,.21-1.42,3.59,3.59,0,0,1,.63-1.2,3.1,3.1,0,0,1,1-.84A3.21,3.21,0,0,1,848.91,249.55Zm-1.66,3.79a4,4,0,0,0,.12,1,2.29,2.29,0,0,0,.37.8,1.74,1.74,0,0,0,.62.52,1.93,1.93,0,0,0,.87.18,1.85,1.85,0,0,0,.88-.2,2,2,0,0,0,.65-.54,2.34,2.34,0,0,0,.4-.77,3.07,3.07,0,0,0,.13-.91,4.1,4.1,0,0,0-.12-1,2.43,2.43,0,0,0-.38-.82,1.78,1.78,0,0,0-.64-.55,2,2,0,0,0-.91-.2,1.82,1.82,0,0,0-.9.21,1.77,1.77,0,0,0-.62.56,2.48,2.48,0,0,0-.36.8A3.68,3.68,0,0,0,847.25,253.35Z"/><path class="cls-7" d="M860.44,257.43v-1.18h0a2.63,2.63,0,0,1-.46.6,2.66,2.66,0,0,1-.58.43,2.91,2.91,0,0,1-.68.27,3,3,0,0,1-.74.09,2.69,2.69,0,0,1-2.08-.73,3.27,3.27,0,0,1-.67-2.27v-4.89h1.68v4.61a3.35,3.35,0,0,0,.09.81,1.58,1.58,0,0,0,.28.6,1.22,1.22,0,0,0,.5.38,2.12,2.12,0,0,0,1.59-.05,1.59,1.59,0,0,0,.58-.5,2.15,2.15,0,0,0,.33-.77,4.3,4.3,0,0,0,.11-1v-4.09H862v7.67Z"/><path class="cls-7" d="M866,246.42v1.65h-1.69v-1.65Zm0,3.34v7.67h-1.69v-7.67Z"/><path class="cls-7" d="M875.45,246.83v10.6h-1.6v-1.15h0a2.46,2.46,0,0,1-.43.58,2.52,2.52,0,0,1-.57.43,2.86,2.86,0,0,1-.69.27,3.31,3.31,0,0,1-.78.09,3.17,3.17,0,0,1-1.49-.33,3.22,3.22,0,0,1-1.08-.9,3.94,3.94,0,0,1-.65-1.3,5.45,5.45,0,0,1-.22-1.56,5.3,5.3,0,0,1,.21-1.47,3.9,3.9,0,0,1,.63-1.28,3.2,3.2,0,0,1,1.06-.9,3.39,3.39,0,0,1,2.24-.26,2.9,2.9,0,0,1,.67.25,2.39,2.39,0,0,1,1,1h0v-4Zm-5.87,6.75a4.23,4.23,0,0,0,.11,1,2.83,2.83,0,0,0,.37.89,2.08,2.08,0,0,0,.65.66,1.75,1.75,0,0,0,1,.26,2,2,0,0,0,.92-.2,1.84,1.84,0,0,0,.67-.57,2.65,2.65,0,0,0,.4-.87,4.31,4.31,0,0,0,.14-1.12,4.36,4.36,0,0,0-.11-1,2.71,2.71,0,0,0-.37-.87,2,2,0,0,0-.66-.63,1.91,1.91,0,0,0-1-.24,1.81,1.81,0,0,0-1,.24,2,2,0,0,0-.65.62,2.73,2.73,0,0,0-.37.88A4.51,4.51,0,0,0,869.58,253.59Z"/><path class="cls-7" d="M881,249.55a3.5,3.5,0,0,1,1.57.33,3.25,3.25,0,0,1,1.13.9,3.89,3.89,0,0,1,.68,1.32,5.55,5.55,0,0,1,.23,1.6V254h-5.66a3.22,3.22,0,0,0,.16.95,2.21,2.21,0,0,0,.4.73,1.81,1.81,0,0,0,.63.48,2,2,0,0,0,.84.17,2.22,2.22,0,0,0,1.14-.27,2,2,0,0,0,.71-.7h1.59a3.58,3.58,0,0,1-.53.95,3.32,3.32,0,0,1-.77.72,3.55,3.55,0,0,1-1,.45,4.28,4.28,0,0,1-1.18.16,3.83,3.83,0,0,1-1.55-.3,3.29,3.29,0,0,1-1.16-.84,3.7,3.7,0,0,1-.73-1.28,5,5,0,0,1-.25-1.63,4.72,4.72,0,0,1,.25-1.55,3.84,3.84,0,0,1,.73-1.29,3.54,3.54,0,0,1,1.18-.88A3.68,3.68,0,0,1,881,249.55Zm1.91,3.32a3.26,3.26,0,0,0-.19-.82,2,2,0,0,0-.39-.64,1.67,1.67,0,0,0-.59-.41,2.23,2.23,0,0,0-1.6,0,1.77,1.77,0,0,0-.6.42,2.09,2.09,0,0,0-.4.64,2.93,2.93,0,0,0-.2.82Z"/><polygon class="cls-7" points="638.66 0 656.42 10.25 638.66 20.5 638.66 0"/><polygon class="cls-7" points="414.36 260.07 396.6 249.82 414.36 239.57 414.36 260.07"/></svg>