<svg id="Layer_1" data-name="Layer 1" xmlns="http://www.w3.org/2000/svg" viewBox="0 0 1099.96 1100"><defs><style>.cls-1,.cls-2,.cls-7{fill:none;}.cls-1,.cls-11,.cls-2,.cls-3,.cls-4,.cls-5{stroke:#00457a;}.cls-1,.cls-11,.cls-2,.cls-3,.cls-4,.cls-5,.cls-7,.cls-8{stroke-miterlimit:10;}.cls-1,.cls-11,.cls-3,.cls-7,.cls-8{stroke-width:2px;}.cls-3,.cls-4,.cls-8,.cls-9{fill:#fff;}.cls-5{fill:#030202;}.cls-6{fill:#00457a;}.cls-7,.cls-8{stroke:#87c4ff;}.cls-10,.cls-11{fill:#fcfdff;}.cls-12{fill:#004b7a;}</style></defs><title>Artboard 1</title><path class="cls-1" d="M352.12,864.34a718.31,718.31,0,0,0-211,0V802a718.31,718.31,0,0,0,211,0Z"/><path class="cls-2" d="M145.63,859.82V806.54a768.91,768.91,0,0,0,202,0v53.28A768.91,768.91,0,0,0,145.63,859.82Z"/><rect class="cls-3" x="790.26" y="210" width="125.55" height="87.51"/><rect class="cls-4" x="809.19" y="222.1" width="87.69" height="44.84"/><rect class="cls-4" x="809.03" y="277.5" width="88" height="8"/><line class="cls-4" x1="916" y1="285.5" x2="790" y2="285.5"/><line class="cls-4" x1="823.5" y1="278" x2="823.5" y2="285"/><line class="cls-4" x1="839.5" y1="278" x2="839.5" y2="285"/><line class="cls-4" x1="852.5" y1="278" x2="852.5" y2="285"/><line class="cls-4" x1="867.5" y1="278" x2="867.5" y2="285"/><line class="cls-4" x1="882.5" y1="278" x2="882.5" y2="285"/><rect class="cls-3" x="918.72" y="498.87" width="108.57" height="76" transform="translate(436.14 1509.88) rotate(-90)"/><rect class="cls-4" x="927.3" y="502.95" width="91.41" height="63.59" transform="translate(438.26 1507.75) rotate(-90)"/><circle class="cls-5" cx="973.2" cy="585.62" r="2.33"/><polygon class="cls-3" points="534.93 141.24 506.59 141.24 510.38 131.51 531.14 131.51 534.93 141.24"/><rect class="cls-3" x="469.27" y="64.56" width="102.98" height="67.03"/><rect class="cls-4" x="474.31" y="69.07" width="92.91" height="56.93"/><polygon class="cls-3" points="601.63 1034.66 494.52 1034.66 494.52 894.7 548.08 894.7 601.63 894.7 601.63 1034.66"/><line class="cls-3" x1="549" y1="1035" x2="549" y2="895"/><rect class="cls-4" x="560.03" y="915.56" width="29.87" height="19.92"/><line class="cls-3" x1="584" y1="965" x2="596" y2="965"/><line class="cls-3" x1="533" y1="965" x2="545" y2="965"/><rect class="cls-1" x="118.07" y="573.91" width="19.56" height="20.24"/><rect class="cls-1" x="89.22" y="464.94" width="77.26" height="20.93"/><rect class="cls-3" x="101.68" y="543.01" width="52.34" height="32.19"/><circle class="cls-3" cx="127.75" cy="510.01" r="42.25"/><circle class="cls-1" cx="127.75" cy="510.01" r="30.58"/><rect class="cls-2" x="106.1" y="496.07" width="43.5" height="21.75"/><path class="cls-2" d="M127.86,534.93a6.56,6.56,0,0,0,6.52-5.43h-13A6.56,6.56,0,0,0,127.86,534.93Z"/><path class="cls-2" d="M127.86,522.06a6.56,6.56,0,0,0-6.52,5.43h13A6.56,6.56,0,0,0,127.86,522.06Z"/><path class="cls-2" d="M122.72,520.5H105.64a24,24,0,0,0,14.26,12.75,11.34,11.34,0,0,1-1.74-5.3C118.15,524.72,120,521.5,122.72,520.5Z"/><path class="cls-2" d="M132.78,520.5h17.08A23.38,23.38,0,0,1,136,533.25a11,11,0,0,0,1.39-5.3C137.35,524.72,135.51,521.5,132.78,520.5Z"/><path class="cls-6" d="M67.46,612.53v.93H61.31v4.13h5.47v.93H61.31V624H60.21V612.53Z"/><path class="cls-6" d="M70.35,611.38v1.72H69.28v-1.72Zm0,3.83V624H69.28v-8.75Z"/><path class="cls-6" d="M76.72,615a3.61,3.61,0,0,1,1.73.39,3.46,3.46,0,0,1,1.2,1,4.61,4.61,0,0,1,.7,1.51,6.93,6.93,0,0,1,.23,1.79v.17H73.84a4.76,4.76,0,0,0,.17,1.26,3.46,3.46,0,0,0,.52,1.11,2.65,2.65,0,0,0,.88.79,2.55,2.55,0,0,0,1.27.3,3.26,3.26,0,0,0,.93-.12,2.7,2.7,0,0,0,.74-.34,2.35,2.35,0,0,0,.55-.52,3.24,3.24,0,0,0,.39-.65h1a4,4,0,0,1-.51,1,3.31,3.31,0,0,1-.78.8,3.55,3.55,0,0,1-1,.52,4.46,4.46,0,0,1-1.32.18,3.91,3.91,0,0,1-1.73-.36,3.41,3.41,0,0,1-1.21-1,4.15,4.15,0,0,1-.72-1.47,6.85,6.85,0,0,1-.23-1.83,6.2,6.2,0,0,1,.24-1.71,4.48,4.48,0,0,1,.72-1.48,3.65,3.65,0,0,1,1.23-1A3.72,3.72,0,0,1,76.72,615Zm2.78,4a4.06,4.06,0,0,0-.21-1.13,3.25,3.25,0,0,0-.54-1,2.77,2.77,0,0,0-.87-.72,2.45,2.45,0,0,0-1.18-.27,2.46,2.46,0,0,0-2,.93,3.61,3.61,0,0,0-.56,1,5.73,5.73,0,0,0-.31,1.2Z"/><path class="cls-6" d="M83.9,611.85V624H82.83V611.85Z"/><path class="cls-6" d="M94.49,611.85V624h-1v-1.66h0a2.72,2.72,0,0,1-.52.79,3.45,3.45,0,0,1-.75.61,3.7,3.7,0,0,1-.9.39,3.52,3.52,0,0,1-1,.14,3.73,3.73,0,0,1-1.7-.37,3.57,3.57,0,0,1-1.23-1,4.43,4.43,0,0,1-.74-1.48,6.23,6.23,0,0,1-.25-1.78,6.45,6.45,0,0,1,.23-1.72,4.4,4.4,0,0,1,.71-1.48,3.58,3.58,0,0,1,1.22-1,4,4,0,0,1,2.7-.27,3.41,3.41,0,0,1,.87.36,3,3,0,0,1,.73.6,2.76,2.76,0,0,1,.51.84h0v-5Zm-7,7.73a5.56,5.56,0,0,0,.07.87,4.92,4.92,0,0,0,.21.86,3.78,3.78,0,0,0,.38.78,2.86,2.86,0,0,0,.55.64,2.4,2.4,0,0,0,.73.43,2.61,2.61,0,0,0,.93.16,2.86,2.86,0,0,0,1.35-.3,2.83,2.83,0,0,0,1-.82,3.55,3.55,0,0,0,.57-1.19,5.28,5.28,0,0,0,.19-1.42,5.38,5.38,0,0,0-.18-1.37,3.63,3.63,0,0,0-.55-1.2,2.74,2.74,0,0,0-2.35-1.17,2.6,2.6,0,0,0-.9.15,2.4,2.4,0,0,0-.72.41,2.85,2.85,0,0,0-.55.62,3.74,3.74,0,0,0-.39.77,4.73,4.73,0,0,0-.23.87A5.64,5.64,0,0,0,87.48,619.58Z"/><path class="cls-6" d="M105.6,624h-.88a4,4,0,0,1-.91-.09,1.28,1.28,0,0,1-.6-.3,1.2,1.2,0,0,1-.33-.57,3.51,3.51,0,0,1-.1-.91v-6.09H101v-.9h1.76v-2.62h1.07v2.63h2v.9h-2v6a2.32,2.32,0,0,0,0,.45.86.86,0,0,0,.14.34.66.66,0,0,0,.28.22,1.17,1.17,0,0,0,.46.08h.8l.28,0V624Z"/><path class="cls-6" d="M108.22,624v-8.75h1v2h0a3.41,3.41,0,0,1,1.2-1.59,3.1,3.1,0,0,1,1.84-.57h.38v1.06h-.24a3,3,0,0,0-2.27.91,3.14,3.14,0,0,0-.86,2.25V624Z"/><path class="cls-6" d="M121.88,623.89l-.36.05h-.32a1.83,1.83,0,0,1-.59-.08.87.87,0,0,1-.39-.26,1.09,1.09,0,0,1-.22-.47,3.26,3.26,0,0,1-.07-.71h0a4.06,4.06,0,0,1-1.37,1.39,3.71,3.71,0,0,1-1.8.39,3.29,3.29,0,0,1-2.13-.66,2.33,2.33,0,0,1-.8-1.91,2.21,2.21,0,0,1,.88-1.91,9,9,0,0,1,3.95-.91,2.69,2.69,0,0,0,.59-.11,1,1,0,0,0,.38-.21.79.79,0,0,0,.21-.35,1.71,1.71,0,0,0,.07-.51,1.66,1.66,0,0,0-.54-1.34,2.69,2.69,0,0,0-1.75-.46,3.46,3.46,0,0,0-1,.12,2.2,2.2,0,0,0-.71.34,1.51,1.51,0,0,0-.45.52,1.63,1.63,0,0,0-.18.65h-1.07a2.65,2.65,0,0,1,.29-1,2.37,2.37,0,0,1,.68-.79,3.24,3.24,0,0,1,1.07-.51,5.36,5.36,0,0,1,1.46-.18,3.53,3.53,0,0,1,2.44.71,2.61,2.61,0,0,1,.78,2v4.75a.63.63,0,0,0,.15.44.61.61,0,0,0,.48.16.93.93,0,0,0,.34-.06Zm-2-4.73h0q-.16.3-1,.41l-.89.13-1,.16a3.56,3.56,0,0,0-1.55.58,1.33,1.33,0,0,0-.52,1.12,1.55,1.55,0,0,0,.58,1.26,2.13,2.13,0,0,0,1.38.47,3.15,3.15,0,0,0,2.18-.77,2.47,2.47,0,0,0,.87-1.92Z"/><path class="cls-6" d="M127.68,615a4.47,4.47,0,0,1,1.45.21,2.43,2.43,0,0,1,1,.62,2.49,2.49,0,0,1,.57,1,5.07,5.07,0,0,1,.18,1.44V624h-1.07v-5.53a2.94,2.94,0,0,0-.55-1.93,2.06,2.06,0,0,0-1.67-.65,2.76,2.76,0,0,0-1.14.23,2.51,2.51,0,0,0-.87.64,2.87,2.87,0,0,0-.55.95,3.51,3.51,0,0,0-.19,1.18V624h-1.07v-8.75h1.07v1.52h0a2.65,2.65,0,0,1,.46-.74,2.89,2.89,0,0,1,.66-.55,3.11,3.11,0,0,1,.8-.35A3.3,3.3,0,0,1,127.68,615Z"/><path class="cls-6" d="M140.32,621.58a2.23,2.23,0,0,1-.3,1.17,2.52,2.52,0,0,1-.79.82,3.66,3.66,0,0,1-1.12.48,5.31,5.31,0,0,1-1.3.16,4.88,4.88,0,0,1-1.43-.19,3.19,3.19,0,0,1-1.07-.55,2.66,2.66,0,0,1-.71-.86,3.2,3.2,0,0,1-.33-1.13h1.08a2.26,2.26,0,0,0,.26.74,1.89,1.89,0,0,0,.51.57,2.4,2.4,0,0,0,.75.37,3.4,3.4,0,0,0,1,.13,4,4,0,0,0,.8-.09,2.76,2.76,0,0,0,.78-.28,1.8,1.8,0,0,0,.59-.51,1.28,1.28,0,0,0,.23-.79,1.24,1.24,0,0,0-.45-1,3.46,3.46,0,0,0-1.51-.62l-1.34-.3a5.36,5.36,0,0,1-1-.32,2.81,2.81,0,0,1-.77-.49,1.94,1.94,0,0,1-.48-.67,2.15,2.15,0,0,1-.16-.86,2.08,2.08,0,0,1,.29-1.11,2.38,2.38,0,0,1,.75-.76,3.37,3.37,0,0,1,1-.44,5,5,0,0,1,1.18-.14,4.35,4.35,0,0,1,1.23.16,3,3,0,0,1,1,.47,2.44,2.44,0,0,1,.67.77,2.77,2.77,0,0,1,.33,1H138.9a1.77,1.77,0,0,0-.25-.67,1.65,1.65,0,0,0-.48-.49,2.25,2.25,0,0,0-.67-.3,3.16,3.16,0,0,0-.82-.1,3.82,3.82,0,0,0-.77.08,2.11,2.11,0,0,0-.68.26,1.43,1.43,0,0,0-.48.46,1.3,1.3,0,0,0-.18.71,1,1,0,0,0,.18.59,1.7,1.7,0,0,0,.44.43,2.53,2.53,0,0,0,.59.29,5,5,0,0,0,.62.18l1.83.41a3.79,3.79,0,0,1,.79.27,2.36,2.36,0,0,1,.66.46,2.18,2.18,0,0,1,.46.68A2.29,2.29,0,0,1,140.32,621.58Z"/><path class="cls-6" d="M153.69,624v-6a2.31,2.31,0,0,0-.5-1.63,2.47,2.47,0,0,0-3.34.28,3.73,3.73,0,0,0-.6,2.28v5h-1.08v-6a2.42,2.42,0,0,0-.45-1.55,1.66,1.66,0,0,0-1.37-.56,2.3,2.3,0,0,0-1.95.87,3.63,3.63,0,0,0-.66,2.28v5h-1.07v-8.75h1v1.47h0a3,3,0,0,1,2.87-1.72,3.24,3.24,0,0,1,.86.11,2.48,2.48,0,0,1,.73.32,2.22,2.22,0,0,1,.56.53,2.49,2.49,0,0,1,.37.74,2.87,2.87,0,0,1,1.14-1.27,3.2,3.2,0,0,1,1.65-.43,2.82,2.82,0,0,1,2.18.77,3.14,3.14,0,0,1,.71,2.21v6Z"/><path class="cls-6" d="M158.78,611.38v1.72h-1.07v-1.72Zm0,3.83V624h-1.07v-8.75Z"/><path class="cls-6" d="M165.24,624h-.88a4,4,0,0,1-.91-.09,1.28,1.28,0,0,1-.6-.3,1.2,1.2,0,0,1-.33-.57,3.51,3.51,0,0,1-.1-.91v-6.09h-1.76v-.9h1.76v-2.62h1.07v2.63h2v.9h-2v6a2.32,2.32,0,0,0,0,.45.86.86,0,0,0,.14.34.66.66,0,0,0,.28.22,1.17,1.17,0,0,0,.46.08h.8l.28,0V624Z"/><path class="cls-6" d="M171.38,624h-.88a4,4,0,0,1-.91-.09,1.28,1.28,0,0,1-.6-.3,1.2,1.2,0,0,1-.33-.57,3.51,3.51,0,0,1-.1-.91v-6.09h-1.76v-.9h1.76v-2.62h1.07v2.63h2v.9h-2v6a2.32,2.32,0,0,0,0,.45.86.86,0,0,0,.14.34.66.66,0,0,0,.28.22,1.17,1.17,0,0,0,.46.08h.8l.28,0V624Z"/><path class="cls-6" d="M177.19,615a3.61,3.61,0,0,1,1.73.39,3.46,3.46,0,0,1,1.2,1,4.61,4.61,0,0,1,.7,1.51,6.93,6.93,0,0,1,.23,1.79v.17h-6.73a4.76,4.76,0,0,0,.17,1.26,3.46,3.46,0,0,0,.52,1.11,2.65,2.65,0,0,0,.88.79,2.55,2.55,0,0,0,1.27.3,3.26,3.26,0,0,0,.93-.12,2.7,2.7,0,0,0,.74-.34,2.35,2.35,0,0,0,.55-.52,3.24,3.24,0,0,0,.39-.65h1a4,4,0,0,1-.51,1,3.31,3.31,0,0,1-.78.8,3.55,3.55,0,0,1-1,.52,4.46,4.46,0,0,1-1.32.18,3.91,3.91,0,0,1-1.73-.36,3.41,3.41,0,0,1-1.21-1,4.15,4.15,0,0,1-.72-1.47,6.85,6.85,0,0,1-.23-1.83,6.2,6.2,0,0,1,.24-1.71,4.48,4.48,0,0,1,.72-1.48,3.65,3.65,0,0,1,1.23-1A3.72,3.72,0,0,1,177.19,615Zm2.78,4a4.06,4.06,0,0,0-.21-1.13,3.25,3.25,0,0,0-.54-1,2.77,2.77,0,0,0-.87-.72,2.45,2.45,0,0,0-1.18-.27,2.46,2.46,0,0,0-2,.93,3.61,3.61,0,0,0-.56,1,5.73,5.73,0,0,0-.31,1.2Z"/><path class="cls-6" d="M183.28,624v-8.75h1v2h0a3.41,3.41,0,0,1,1.2-1.59,3.1,3.1,0,0,1,1.84-.57h.38v1.06h-.24a3,3,0,0,0-2.27.91,3.14,3.14,0,0,0-.86,2.25V624Z"/><path class="cls-6" d="M196,621.58a2.23,2.23,0,0,1-.3,1.17,2.52,2.52,0,0,1-.79.82,3.66,3.66,0,0,1-1.12.48,5.31,5.31,0,0,1-1.3.16A4.88,4.88,0,0,1,191,624a3.19,3.19,0,0,1-1.07-.55,2.66,2.66,0,0,1-.71-.86,3.2,3.2,0,0,1-.33-1.13H190a2.26,2.26,0,0,0,.26.74,1.89,1.89,0,0,0,.51.57,2.4,2.4,0,0,0,.75.37,3.4,3.4,0,0,0,1,.13,4,4,0,0,0,.8-.09,2.76,2.76,0,0,0,.78-.28,1.8,1.8,0,0,0,.59-.51,1.28,1.28,0,0,0,.23-.79,1.24,1.24,0,0,0-.45-1,3.46,3.46,0,0,0-1.51-.62l-1.34-.3a5.36,5.36,0,0,1-1-.32,2.81,2.81,0,0,1-.77-.49,1.94,1.94,0,0,1-.48-.67,2.15,2.15,0,0,1-.16-.86,2.08,2.08,0,0,1,.29-1.11,2.38,2.38,0,0,1,.75-.76,3.37,3.37,0,0,1,1-.44,5,5,0,0,1,1.18-.14,4.35,4.35,0,0,1,1.23.16,3,3,0,0,1,1,.47,2.44,2.44,0,0,1,.67.77,2.77,2.77,0,0,1,.33,1h-1.07a1.77,1.77,0,0,0-.25-.67,1.65,1.65,0,0,0-.48-.49,2.25,2.25,0,0,0-.67-.3,3.16,3.16,0,0,0-.82-.1,3.82,3.82,0,0,0-.77.08,2.11,2.11,0,0,0-.68.26,1.43,1.43,0,0,0-.48.46,1.3,1.3,0,0,0-.18.71,1,1,0,0,0,.18.59,1.7,1.7,0,0,0,.44.43,2.53,2.53,0,0,0,.59.29,5,5,0,0,0,.62.18l1.83.41a3.79,3.79,0,0,1,.79.27,2.36,2.36,0,0,1,.66.46,2.18,2.18,0,0,1,.46.68A2.29,2.29,0,0,1,196,621.58Z"/><circle class="cls-7" cx="548.08" cy="127.98" r="125" transform="translate(411.28 673.93) rotate(-89.08)"/><circle class="cls-7" cx="852.81" cy="253.57" r="125" transform="translate(585.16 1102.07) rotate(-89.05)"/><circle class="cls-7" cx="972.01" cy="554.71" r="125" transform="translate(-112.4 831.4) rotate(-44.03)"/><circle class="cls-7" cx="846.14" cy="853.09" r="125" transform="translate(-21.57 1684.22) rotate(-89)"/><circle class="cls-7" cx="548.08" cy="972" r="125" transform="translate(-521.25 653.07) rotate(-43.98)"/><circle class="cls-7" cx="246.63" cy="845.85" r="125" transform="translate(-603.6 1076.93) rotate(-88.95)"/><circle class="cls-7" cx="128" cy="544.48" r="125" transform="translate(-341.9 241.11) rotate(-43.92)"/><line class="cls-7" x1="547.86" y1="253" x2="548.29" y2="847"/><line class="cls-7" x1="760.6" y1="339.22" x2="335.52" y2="759.02"/><line class="cls-7" x1="847.13" y1="551.32" x2="253.13" y2="552.74"/><line class="cls-7" x1="756.69" y1="765.74" x2="340.76" y2="333.89"/><path class="cls-6" d="M198.07,913.91V924.4h6.4v.93H197V913.91Z"/><path class="cls-6" d="M213.54,925.27l-.36.05h-.32a1.83,1.83,0,0,1-.59-.08.87.87,0,0,1-.39-.26,1.09,1.09,0,0,1-.22-.47,3.26,3.26,0,0,1-.07-.71h0a4.06,4.06,0,0,1-1.37,1.39,3.71,3.71,0,0,1-1.8.39,3.29,3.29,0,0,1-2.13-.66,2.33,2.33,0,0,1-.8-1.91,2.21,2.21,0,0,1,.88-1.91,9,9,0,0,1,3.95-.91,2.69,2.69,0,0,0,.59-.11,1,1,0,0,0,.38-.21.79.79,0,0,0,.21-.35,1.71,1.71,0,0,0,.07-.51,1.66,1.66,0,0,0-.54-1.34,2.69,2.69,0,0,0-1.75-.46,3.46,3.46,0,0,0-1,.12,2.2,2.2,0,0,0-.71.34,1.51,1.51,0,0,0-.45.52,1.63,1.63,0,0,0-.18.65h-1.07a2.65,2.65,0,0,1,.29-1,2.37,2.37,0,0,1,.68-.79,3.24,3.24,0,0,1,1.07-.51,5.36,5.36,0,0,1,1.46-.18,3.53,3.53,0,0,1,2.44.71,2.61,2.61,0,0,1,.78,2v4.75a.63.63,0,0,0,.15.44.61.61,0,0,0,.48.16.93.93,0,0,0,.34-.06Zm-2-4.73h0q-.16.3-1,.41l-.89.13-1,.16a3.56,3.56,0,0,0-1.55.58,1.33,1.33,0,0,0-.52,1.12,1.55,1.55,0,0,0,.58,1.26,2.13,2.13,0,0,0,1.38.47,3.15,3.15,0,0,0,2.18-.77,2.47,2.47,0,0,0,.87-1.92Z"/><path class="cls-6" d="M215.46,925.33v-8.75h1v2h0a3.41,3.41,0,0,1,1.2-1.59,3.1,3.1,0,0,1,1.84-.57h.38v1.06h-.24a3,3,0,0,0-2.27.91,3.14,3.14,0,0,0-.86,2.25v4.64Z"/><path class="cls-6" d="M224.85,916.33a3,3,0,0,1,.86.12,3.08,3.08,0,0,1,1.44.9,3,3,0,0,1,.49.74h0v-1.52h1.07v8.13a4.36,4.36,0,0,1-1,3.06,3.83,3.83,0,0,1-3,1,6.08,6.08,0,0,1-1.23-.12,3.6,3.6,0,0,1-1.09-.41,2.5,2.5,0,0,1-.8-.73,2.25,2.25,0,0,1-.38-1.1h1.07a1.65,1.65,0,0,0,.75,1.09,3.11,3.11,0,0,0,1.67.38,2.73,2.73,0,0,0,2.15-.81,3.54,3.54,0,0,0,.72-2.42v-1.57h0a3.38,3.38,0,0,1-.5.76,3.05,3.05,0,0,1-.67.57,3.12,3.12,0,0,1-.8.36,3.21,3.21,0,0,1-.9.13,4.21,4.21,0,0,1-1.71-.32,3.24,3.24,0,0,1-1.21-.9,3.8,3.8,0,0,1-.71-1.37,6.18,6.18,0,0,1-.23-1.75,5.27,5.27,0,0,1,.25-1.63,3.94,3.94,0,0,1,.75-1.36,3.65,3.65,0,0,1,1.23-.93A4,4,0,0,1,224.85,916.33ZM222,920.71a4.66,4.66,0,0,0,.16,1.28,3.06,3.06,0,0,0,.51,1.06,2.5,2.5,0,0,0,.89.73,2.83,2.83,0,0,0,1.28.27,2.53,2.53,0,0,0,1.22-.29,2.81,2.81,0,0,0,.89-.75,3.38,3.38,0,0,0,.55-1.07,4,4,0,0,0,.19-1.23,5,5,0,0,0-.16-1.23,3.54,3.54,0,0,0-.5-1.12,2.72,2.72,0,0,0-.87-.82,2.5,2.5,0,0,0-1.29-.32,2.59,2.59,0,0,0-1.28.3,2.7,2.7,0,0,0-.89.78,3.4,3.4,0,0,0-.52,1.12A5.16,5.16,0,0,0,222,920.71Z"/><path class="cls-6" d="M235.09,916.33a3.61,3.61,0,0,1,1.73.39,3.46,3.46,0,0,1,1.2,1,4.61,4.61,0,0,1,.7,1.51,6.93,6.93,0,0,1,.23,1.79v.17h-6.73a4.76,4.76,0,0,0,.17,1.26,3.46,3.46,0,0,0,.52,1.11,2.65,2.65,0,0,0,.88.79,2.55,2.55,0,0,0,1.27.3,3.26,3.26,0,0,0,.93-.12,2.7,2.7,0,0,0,.74-.34,2.35,2.35,0,0,0,.55-.52,3.24,3.24,0,0,0,.39-.65h1a4,4,0,0,1-.51,1,3.31,3.31,0,0,1-.78.8,3.55,3.55,0,0,1-1,.52,4.46,4.46,0,0,1-1.32.18,3.91,3.91,0,0,1-1.73-.36,3.41,3.41,0,0,1-1.21-1,4.15,4.15,0,0,1-.72-1.47,6.85,6.85,0,0,1-.23-1.83,6.2,6.2,0,0,1,.24-1.71,4.48,4.48,0,0,1,.72-1.48,3.65,3.65,0,0,1,1.23-1A3.72,3.72,0,0,1,235.09,916.33Zm2.78,4a4.06,4.06,0,0,0-.21-1.13,3.25,3.25,0,0,0-.54-1,2.77,2.77,0,0,0-.87-.72,2.45,2.45,0,0,0-1.18-.27,2.46,2.46,0,0,0-2,.93,3.61,3.61,0,0,0-.56,1,5.73,5.73,0,0,0-.31,1.2Z"/><path class="cls-6" d="M252.37,923a2.23,2.23,0,0,1-.3,1.17,2.52,2.52,0,0,1-.79.82,3.66,3.66,0,0,1-1.12.48,5.31,5.31,0,0,1-1.3.16,4.88,4.88,0,0,1-1.43-.19,3.19,3.19,0,0,1-1.07-.55,2.66,2.66,0,0,1-.71-.86,3.2,3.2,0,0,1-.33-1.13h1.08a2.26,2.26,0,0,0,.26.74,1.89,1.89,0,0,0,.51.57,2.4,2.4,0,0,0,.75.37,3.4,3.4,0,0,0,1,.13,4,4,0,0,0,.8-.09,2.76,2.76,0,0,0,.78-.28,1.8,1.8,0,0,0,.59-.51,1.28,1.28,0,0,0,.23-.79,1.24,1.24,0,0,0-.45-1,3.46,3.46,0,0,0-1.51-.62l-1.34-.3a5.36,5.36,0,0,1-1-.32,2.81,2.81,0,0,1-.77-.49,1.94,1.94,0,0,1-.48-.67,2.15,2.15,0,0,1-.16-.86,2.08,2.08,0,0,1,.29-1.11,2.38,2.38,0,0,1,.75-.76,3.37,3.37,0,0,1,1-.44,5,5,0,0,1,1.18-.14,4.35,4.35,0,0,1,1.23.16,3,3,0,0,1,1,.47,2.44,2.44,0,0,1,.67.77,2.77,2.77,0,0,1,.33,1H251a1.77,1.77,0,0,0-.25-.67,1.65,1.65,0,0,0-.48-.49,2.25,2.25,0,0,0-.67-.3,3.16,3.16,0,0,0-.82-.1,3.82,3.82,0,0,0-.77.08,2.11,2.11,0,0,0-.68.26,1.43,1.43,0,0,0-.48.46,1.3,1.3,0,0,0-.18.71,1,1,0,0,0,.18.59,1.7,1.7,0,0,0,.44.43,2.53,2.53,0,0,0,.59.29,5,5,0,0,0,.62.18l1.83.41a3.79,3.79,0,0,1,.79.27,2.36,2.36,0,0,1,.66.46,2.18,2.18,0,0,1,.46.68A2.29,2.29,0,0,1,252.37,923Z"/><path class="cls-6" d="M258.33,916.33a4.62,4.62,0,0,1,1.29.17,3.35,3.35,0,0,1,1,.5,2.72,2.72,0,0,1,.74.81,3.08,3.08,0,0,1,.39,1.1h-1.07a2.31,2.31,0,0,0-.29-.69,2,2,0,0,0-.5-.54,2.27,2.27,0,0,0-.7-.34,3.12,3.12,0,0,0-.9-.12,2.69,2.69,0,0,0-1.31.31,2.93,2.93,0,0,0-1,.84,3.88,3.88,0,0,0-.59,1.2,4.77,4.77,0,0,0-.2,1.39,4.89,4.89,0,0,0,.19,1.34,3.83,3.83,0,0,0,.57,1.2,3,3,0,0,0,.95.86,2.6,2.6,0,0,0,1.34.33,2.57,2.57,0,0,0,.95-.17,2.52,2.52,0,0,0,.75-.45,2.39,2.39,0,0,0,.52-.65,2.49,2.49,0,0,0,.27-.77h1.07a4,4,0,0,1-.39,1.14,3.33,3.33,0,0,1-.73.94,3.38,3.38,0,0,1-1.06.64,3.84,3.84,0,0,1-1.38.23,4,4,0,0,1-1.72-.36,3.8,3.8,0,0,1-1.29-1,4.38,4.38,0,0,1-.81-1.47,6,6,0,0,1,0-3.55,4.4,4.4,0,0,1,.78-1.48,3.87,3.87,0,0,1,1.29-1A4,4,0,0,1,258.33,916.33Z"/><path class="cls-6" d="M264.25,925.33v-8.75h1v2h0a3.41,3.41,0,0,1,1.2-1.59,3.1,3.1,0,0,1,1.84-.57h.38v1.06h-.24a3,3,0,0,0-2.27.91,3.14,3.14,0,0,0-.86,2.25v4.64Z"/><path class="cls-6" d="M273.64,916.33a3.61,3.61,0,0,1,1.73.39,3.46,3.46,0,0,1,1.2,1,4.61,4.61,0,0,1,.7,1.51,6.93,6.93,0,0,1,.23,1.79v.17h-6.73a4.76,4.76,0,0,0,.17,1.26,3.46,3.46,0,0,0,.52,1.11,2.65,2.65,0,0,0,.88.79,2.55,2.55,0,0,0,1.27.3,3.26,3.26,0,0,0,.93-.12,2.7,2.7,0,0,0,.74-.34,2.35,2.35,0,0,0,.55-.52,3.24,3.24,0,0,0,.39-.65h1a4,4,0,0,1-.51,1,3.31,3.31,0,0,1-.78.8,3.55,3.55,0,0,1-1,.52,4.46,4.46,0,0,1-1.32.18,3.91,3.91,0,0,1-1.73-.36,3.41,3.41,0,0,1-1.21-1,4.15,4.15,0,0,1-.72-1.47,6.85,6.85,0,0,1-.23-1.83,6.2,6.2,0,0,1,.24-1.71,4.48,4.48,0,0,1,.72-1.48,3.65,3.65,0,0,1,1.23-1A3.72,3.72,0,0,1,273.64,916.33Zm2.78,4a4.06,4.06,0,0,0-.21-1.13,3.25,3.25,0,0,0-.54-1,2.77,2.77,0,0,0-.87-.72,2.45,2.45,0,0,0-1.18-.27,2.46,2.46,0,0,0-2,.93,3.61,3.61,0,0,0-.56,1,5.73,5.73,0,0,0-.31,1.2Z"/><path class="cls-6" d="M283.16,916.33a3.61,3.61,0,0,1,1.73.39,3.46,3.46,0,0,1,1.2,1,4.61,4.61,0,0,1,.7,1.51,6.93,6.93,0,0,1,.23,1.79v.17h-6.73a4.76,4.76,0,0,0,.17,1.26,3.46,3.46,0,0,0,.52,1.11,2.65,2.65,0,0,0,.88.79,2.55,2.55,0,0,0,1.27.3,3.26,3.26,0,0,0,.93-.12,2.7,2.7,0,0,0,.74-.34,2.35,2.35,0,0,0,.55-.52,3.24,3.24,0,0,0,.39-.65h1a4,4,0,0,1-.51,1,3.31,3.31,0,0,1-.78.8,3.55,3.55,0,0,1-1,.52,4.46,4.46,0,0,1-1.32.18,3.91,3.91,0,0,1-1.73-.36,3.41,3.41,0,0,1-1.21-1,4.15,4.15,0,0,1-.72-1.47,6.85,6.85,0,0,1-.23-1.83,6.2,6.2,0,0,1,.24-1.71,4.48,4.48,0,0,1,.72-1.48,3.65,3.65,0,0,1,1.23-1A3.72,3.72,0,0,1,283.16,916.33Zm2.78,4a4.06,4.06,0,0,0-.21-1.13,3.25,3.25,0,0,0-.54-1,2.77,2.77,0,0,0-.87-.72,2.45,2.45,0,0,0-1.18-.27,2.46,2.46,0,0,0-2,.93,3.61,3.61,0,0,0-.56,1,5.73,5.73,0,0,0-.31,1.2Z"/><path class="cls-6" d="M293.14,916.33a4.47,4.47,0,0,1,1.45.21,2.43,2.43,0,0,1,1,.62,2.49,2.49,0,0,1,.57,1,5.07,5.07,0,0,1,.18,1.44v5.71h-1.07V919.8a2.94,2.94,0,0,0-.55-1.93,2.06,2.06,0,0,0-1.67-.65,2.76,2.76,0,0,0-1.14.23,2.51,2.51,0,0,0-.87.64,2.87,2.87,0,0,0-.55.95,3.51,3.51,0,0,0-.19,1.18v5.12h-1.07v-8.75h1.07v1.52h0a2.65,2.65,0,0,1,.46-.74,2.89,2.89,0,0,1,.66-.55,3.11,3.11,0,0,1,.8-.35A3.3,3.3,0,0,1,293.14,916.33Z"/><path class="cls-6" d="M223.28,932.42v12.11h-1v-1.66h0a2.72,2.72,0,0,1-.52.79,3.45,3.45,0,0,1-.75.61,3.7,3.7,0,0,1-.9.39,3.52,3.52,0,0,1-1,.14,3.73,3.73,0,0,1-1.7-.37,3.57,3.57,0,0,1-1.23-1,4.43,4.43,0,0,1-.74-1.48,6.23,6.23,0,0,1-.25-1.78,6.45,6.45,0,0,1,.23-1.72,4.4,4.4,0,0,1,.71-1.48,3.58,3.58,0,0,1,1.22-1,4,4,0,0,1,2.7-.27,3.41,3.41,0,0,1,.87.36,3,3,0,0,1,.73.6,2.76,2.76,0,0,1,.51.84h0v-5Zm-7,7.73a5.56,5.56,0,0,0,.07.87,4.92,4.92,0,0,0,.21.86,3.78,3.78,0,0,0,.38.78,2.86,2.86,0,0,0,.55.64,2.4,2.4,0,0,0,.73.43,2.61,2.61,0,0,0,.93.16,2.86,2.86,0,0,0,1.35-.3,2.83,2.83,0,0,0,1-.82,3.55,3.55,0,0,0,.57-1.19,5.28,5.28,0,0,0,.19-1.42,5.38,5.38,0,0,0-.18-1.37,3.63,3.63,0,0,0-.55-1.2,2.74,2.74,0,0,0-2.35-1.17,2.6,2.6,0,0,0-.9.15,2.4,2.4,0,0,0-.72.41,2.85,2.85,0,0,0-.55.62,3.74,3.74,0,0,0-.39.77,4.73,4.73,0,0,0-.23.87A5.64,5.64,0,0,0,216.27,940.16Z"/><path class="cls-6" d="M227.31,932v1.72h-1.07V932Zm0,3.83v8.75h-1.07v-8.75Z"/><path class="cls-6" d="M236.8,942.16a2.23,2.23,0,0,1-.3,1.17,2.52,2.52,0,0,1-.79.82,3.66,3.66,0,0,1-1.12.48,5.31,5.31,0,0,1-1.3.16,4.88,4.88,0,0,1-1.43-.19,3.19,3.19,0,0,1-1.07-.55,2.66,2.66,0,0,1-.71-.86,3.2,3.2,0,0,1-.33-1.13h1.08a2.26,2.26,0,0,0,.26.74,1.89,1.89,0,0,0,.51.57,2.4,2.4,0,0,0,.75.37,3.4,3.4,0,0,0,1,.13,4,4,0,0,0,.8-.09,2.76,2.76,0,0,0,.78-.28,1.8,1.8,0,0,0,.59-.51,1.28,1.28,0,0,0,.23-.79,1.24,1.24,0,0,0-.45-1,3.46,3.46,0,0,0-1.51-.62l-1.34-.3a5.36,5.36,0,0,1-1-.32,2.81,2.81,0,0,1-.77-.49,1.94,1.94,0,0,1-.48-.67A2.15,2.15,0,0,1,230,938a2.08,2.08,0,0,1,.29-1.11,2.38,2.38,0,0,1,.75-.76,3.37,3.37,0,0,1,1-.44,5,5,0,0,1,1.18-.14,4.35,4.35,0,0,1,1.23.16,3,3,0,0,1,1,.47,2.44,2.44,0,0,1,.67.77,2.77,2.77,0,0,1,.33,1h-1.07a1.77,1.77,0,0,0-.25-.67,1.65,1.65,0,0,0-.48-.49,2.25,2.25,0,0,0-.67-.3,3.16,3.16,0,0,0-.82-.1,3.82,3.82,0,0,0-.77.08,2.11,2.11,0,0,0-.68.26,1.43,1.43,0,0,0-.48.46,1.3,1.3,0,0,0-.18.71,1,1,0,0,0,.18.59,1.7,1.7,0,0,0,.44.43,2.53,2.53,0,0,0,.59.29,5,5,0,0,0,.62.18l1.83.41a3.79,3.79,0,0,1,.79.27,2.36,2.36,0,0,1,.66.46,2.18,2.18,0,0,1,.46.68A2.29,2.29,0,0,1,236.8,942.16Z"/><path class="cls-6" d="M247.23,940.16a6.38,6.38,0,0,1-.23,1.71,4.5,4.5,0,0,1-.71,1.48,3.58,3.58,0,0,1-1.22,1,4,4,0,0,1-2.71.27,3.3,3.3,0,0,1-.87-.36,3,3,0,0,1-.72-.6,2.93,2.93,0,0,1-.51-.84h0v4.9h-1.07v-12h1v1.66h0a3,3,0,0,1,.52-.81,3.06,3.06,0,0,1,.73-.6,3.58,3.58,0,0,1,.89-.37,3.75,3.75,0,0,1,1-.13,3.8,3.8,0,0,1,1.71.37,3.53,3.53,0,0,1,1.23,1,4.44,4.44,0,0,1,.74,1.47A6.22,6.22,0,0,1,247.23,940.16Zm-1.07,0a6,6,0,0,0-.15-1.3,3.78,3.78,0,0,0-.49-1.2,2.76,2.76,0,0,0-.89-.88,2.53,2.53,0,0,0-1.36-.34,2.79,2.79,0,0,0-2.27.93,4.28,4.28,0,0,0-.78,2.79,5.58,5.58,0,0,0,.17,1.37,3.58,3.58,0,0,0,.54,1.2,2.8,2.8,0,0,0,1,.85,2.88,2.88,0,0,0,1.41.32,2.49,2.49,0,0,0,1.28-.32,2.71,2.71,0,0,0,.89-.84,3.81,3.81,0,0,0,.52-1.2A5.54,5.54,0,0,0,246.16,940.16Z"/><path class="cls-6" d="M250.81,932.42v12.11h-1.07V932.42Z"/><path class="cls-6" d="M261.31,944.47l-.36.05h-.32a1.83,1.83,0,0,1-.59-.08.87.87,0,0,1-.39-.26,1.09,1.09,0,0,1-.22-.47,3.26,3.26,0,0,1-.07-.71h0A4.06,4.06,0,0,1,258,944.4a3.71,3.71,0,0,1-1.8.39,3.29,3.29,0,0,1-2.13-.66,2.33,2.33,0,0,1-.8-1.91,2.21,2.21,0,0,1,.88-1.91,9,9,0,0,1,3.95-.91,2.69,2.69,0,0,0,.59-.11,1,1,0,0,0,.38-.21.79.79,0,0,0,.21-.35,1.71,1.71,0,0,0,.07-.51,1.66,1.66,0,0,0-.54-1.34,2.69,2.69,0,0,0-1.75-.46,3.46,3.46,0,0,0-1,.12,2.2,2.2,0,0,0-.71.34,1.51,1.51,0,0,0-.45.52,1.63,1.63,0,0,0-.18.65h-1.07a2.65,2.65,0,0,1,.29-1,2.37,2.37,0,0,1,.68-.79,3.24,3.24,0,0,1,1.07-.51,5.36,5.36,0,0,1,1.46-.18,3.53,3.53,0,0,1,2.44.71,2.61,2.61,0,0,1,.78,2V943a.63.63,0,0,0,.15.44.61.61,0,0,0,.48.16.93.93,0,0,0,.34-.06Zm-2-4.73h0q-.16.3-1,.41l-.89.13-1,.16a3.56,3.56,0,0,0-1.55.58,1.33,1.33,0,0,0-.52,1.12,1.55,1.55,0,0,0,.58,1.26,2.13,2.13,0,0,0,1.38.47,3.15,3.15,0,0,0,2.18-.77,2.47,2.47,0,0,0,.87-1.92Z"/><path class="cls-6" d="M263.21,935.78l2.88,7.45h0l2.7-7.45h1.07l-3.77,10c-.11.3-.23.57-.34.81a2.25,2.25,0,0,1-.42.63,1.73,1.73,0,0,1-.62.4,2.51,2.51,0,0,1-.91.14,4.25,4.25,0,0,1-.84-.08v-.91a1.72,1.72,0,0,0,.37.08l.36,0a1.44,1.44,0,0,0,.64-.12,1.2,1.2,0,0,0,.45-.41,3.82,3.82,0,0,0,.38-.73q.18-.45.43-1.11l-3.5-8.72Z"/><path class="cls-6" d="M278.18,942.16a2.23,2.23,0,0,1-.3,1.17,2.52,2.52,0,0,1-.79.82,3.66,3.66,0,0,1-1.12.48,5.31,5.31,0,0,1-1.3.16,4.88,4.88,0,0,1-1.43-.19,3.19,3.19,0,0,1-1.07-.55,2.66,2.66,0,0,1-.71-.86,3.2,3.2,0,0,1-.33-1.13h1.08a2.26,2.26,0,0,0,.26.74,1.89,1.89,0,0,0,.51.57,2.4,2.4,0,0,0,.75.37,3.4,3.4,0,0,0,1,.13,4,4,0,0,0,.8-.09,2.76,2.76,0,0,0,.78-.28,1.8,1.8,0,0,0,.59-.51,1.28,1.28,0,0,0,.23-.79,1.24,1.24,0,0,0-.45-1,3.46,3.46,0,0,0-1.51-.62l-1.34-.3a5.36,5.36,0,0,1-1-.32,2.81,2.81,0,0,1-.77-.49,1.94,1.94,0,0,1-.48-.67,2.15,2.15,0,0,1-.16-.86,2.08,2.08,0,0,1,.29-1.11,2.38,2.38,0,0,1,.75-.76,3.37,3.37,0,0,1,1-.44,5,5,0,0,1,1.18-.14,4.35,4.35,0,0,1,1.23.16,3,3,0,0,1,1,.47,2.44,2.44,0,0,1,.67.77,2.77,2.77,0,0,1,.33,1h-1.07a1.77,1.77,0,0,0-.25-.67,1.65,1.65,0,0,0-.48-.49,2.25,2.25,0,0,0-.67-.3,3.16,3.16,0,0,0-.82-.1,3.82,3.82,0,0,0-.77.08,2.11,2.11,0,0,0-.68.26,1.43,1.43,0,0,0-.48.46,1.3,1.3,0,0,0-.18.71,1,1,0,0,0,.18.59,1.7,1.7,0,0,0,.44.43,2.53,2.53,0,0,0,.59.29,5,5,0,0,0,.62.18l1.83.41a3.79,3.79,0,0,1,.79.27,2.36,2.36,0,0,1,.66.46,2.18,2.18,0,0,1,.46.68A2.29,2.29,0,0,1,278.18,942.16Z"/><path class="cls-6" d="M481.46,1047.06v11.42h-1.09v-11.42Z"/><path class="cls-6" d="M488.4,1049.48a4.5,4.5,0,0,1,1.45.21,2.44,2.44,0,0,1,1,.62,2.49,2.49,0,0,1,.57,1,5.07,5.07,0,0,1,.18,1.44v5.71h-1.07v-5.53A2.94,2.94,0,0,0,490,1051a2.06,2.06,0,0,0-1.67-.65,2.78,2.78,0,0,0-1.14.23,2.53,2.53,0,0,0-.87.64,2.89,2.89,0,0,0-.55.95,3.51,3.51,0,0,0-.19,1.18v5.12h-1.07v-8.75h1.07v1.52h0a2.66,2.66,0,0,1,.46-.74,2.92,2.92,0,0,1,.66-.55,3.18,3.18,0,0,1,.8-.35A3.33,3.33,0,0,1,488.4,1049.48Z"/><path class="cls-6" d="M498,1058.56h-.88a4,4,0,0,1-.91-.09,1.27,1.27,0,0,1-.6-.3,1.19,1.19,0,0,1-.33-.57,3.5,3.5,0,0,1-.1-.91v-6.09h-1.76v-.9h1.76v-2.62h1.07v2.63h2v.9h-2v6a2.31,2.31,0,0,0,0,.45.86.86,0,0,0,.14.34.65.65,0,0,0,.28.22,1.15,1.15,0,0,0,.46.08h.8l.28,0v.91Z"/><path class="cls-6" d="M503.82,1049.48a3.62,3.62,0,0,1,1.73.39,3.47,3.47,0,0,1,1.2,1,4.61,4.61,0,0,1,.7,1.51,6.93,6.93,0,0,1,.23,1.79v.17h-6.73a4.74,4.74,0,0,0,.17,1.26,3.44,3.44,0,0,0,.52,1.11,2.63,2.63,0,0,0,.88.79,2.54,2.54,0,0,0,1.27.3,3.23,3.23,0,0,0,.93-.12,2.65,2.65,0,0,0,.74-.34,2.31,2.31,0,0,0,.55-.52,3.21,3.21,0,0,0,.39-.65h1a4,4,0,0,1-.51,1,3.29,3.29,0,0,1-.78.8,3.5,3.5,0,0,1-1,.52,4.43,4.43,0,0,1-1.32.18,3.9,3.9,0,0,1-1.73-.36,3.4,3.4,0,0,1-1.21-1,4.15,4.15,0,0,1-.72-1.47,6.85,6.85,0,0,1-.23-1.83,6.21,6.21,0,0,1,.24-1.71,4.49,4.49,0,0,1,.72-1.48,3.66,3.66,0,0,1,1.23-1A3.73,3.73,0,0,1,503.82,1049.48Zm2.78,4a4.07,4.07,0,0,0-.21-1.13,3.26,3.26,0,0,0-.54-1,2.79,2.79,0,0,0-.87-.72,2.46,2.46,0,0,0-1.18-.27,2.54,2.54,0,0,0-1.15.25,2.57,2.57,0,0,0-.84.68,3.63,3.63,0,0,0-.56,1,5.75,5.75,0,0,0-.31,1.2Z"/><path class="cls-6" d="M513.33,1049.48a3.08,3.08,0,0,1,.86.12,3.08,3.08,0,0,1,1.44.9,3,3,0,0,1,.49.74h0v-1.52h1.07v8.13a4.36,4.36,0,0,1-1,3.06,3.83,3.83,0,0,1-3,1,6,6,0,0,1-1.23-.12,3.57,3.57,0,0,1-1.09-.41,2.49,2.49,0,0,1-.8-.73,2.24,2.24,0,0,1-.38-1.1h1.07a1.65,1.65,0,0,0,.75,1.09,3.11,3.11,0,0,0,1.67.38,2.73,2.73,0,0,0,2.15-.81,3.54,3.54,0,0,0,.72-2.42v-1.57h0a3.38,3.38,0,0,1-.5.76,3.06,3.06,0,0,1-1.47.93,3.18,3.18,0,0,1-.9.13,4.19,4.19,0,0,1-1.71-.32,3.22,3.22,0,0,1-1.21-.9,3.79,3.79,0,0,1-.71-1.37,6.18,6.18,0,0,1-.23-1.75,5.27,5.27,0,0,1,.25-1.63,3.94,3.94,0,0,1,.75-1.36,3.66,3.66,0,0,1,1.23-.93A4,4,0,0,1,513.33,1049.48Zm-2.87,4.38a4.66,4.66,0,0,0,.16,1.28,3.05,3.05,0,0,0,.51,1.06,2.5,2.5,0,0,0,.89.73,2.83,2.83,0,0,0,1.28.27,2.52,2.52,0,0,0,1.22-.29,2.78,2.78,0,0,0,.89-.75,3.36,3.36,0,0,0,.55-1.07,4,4,0,0,0,.19-1.23,5,5,0,0,0-.16-1.23,3.56,3.56,0,0,0-.5-1.12,2.73,2.73,0,0,0-.87-.82,2.5,2.5,0,0,0-1.29-.32,2.6,2.6,0,0,0-1.28.3,2.72,2.72,0,0,0-.89.78,3.4,3.4,0,0,0-.52,1.12A5.17,5.17,0,0,0,510.45,1053.86Z"/><path class="cls-6" d="M520.14,1058.48v-8.75h1v2h0a3.42,3.42,0,0,1,1.2-1.59,3.1,3.1,0,0,1,1.84-.57h.38v1.06h-.24a3,3,0,0,0-2.27.91,3.15,3.15,0,0,0-.86,2.25v4.64Z"/><path class="cls-6" d="M533.79,1058.42l-.36.05h-.32a1.83,1.83,0,0,1-.59-.08.86.86,0,0,1-.39-.26,1.08,1.08,0,0,1-.22-.47,3.26,3.26,0,0,1-.07-.71h0a4,4,0,0,1-1.37,1.39,3.7,3.7,0,0,1-1.8.39,3.28,3.28,0,0,1-2.13-.66,2.33,2.33,0,0,1-.8-1.91,2.21,2.21,0,0,1,.88-1.91,9.07,9.07,0,0,1,3.95-.91,2.58,2.58,0,0,0,.59-.11,1,1,0,0,0,.38-.21.78.78,0,0,0,.21-.35,1.71,1.71,0,0,0,.07-.51,1.66,1.66,0,0,0-.54-1.34,2.69,2.69,0,0,0-1.75-.46,3.5,3.5,0,0,0-1,.12,2.24,2.24,0,0,0-.71.34,1.53,1.53,0,0,0-.45.52,1.63,1.63,0,0,0-.18.65h-1.07a2.66,2.66,0,0,1,.29-1,2.38,2.38,0,0,1,.68-.79,3.26,3.26,0,0,1,1.07-.51,5.4,5.4,0,0,1,1.46-.18,3.53,3.53,0,0,1,2.44.71,2.61,2.61,0,0,1,.78,2V1057a.63.63,0,0,0,.15.44.61.61,0,0,0,.48.16.91.91,0,0,0,.34-.06Zm-2-4.73h0c-.1.2-.45.34-1,.41l-.89.13-1,.16a3.59,3.59,0,0,0-1.55.58,1.34,1.34,0,0,0-.52,1.12,1.55,1.55,0,0,0,.58,1.26,2.13,2.13,0,0,0,1.38.47,3.15,3.15,0,0,0,2.18-.77,2.47,2.47,0,0,0,.87-1.92Z"/><path class="cls-6" d="M539.23,1058.56h-.88a4,4,0,0,1-.91-.09,1.27,1.27,0,0,1-.6-.3,1.19,1.19,0,0,1-.33-.57,3.5,3.5,0,0,1-.1-.91v-6.09h-1.76v-.9h1.76v-2.62h1.07v2.63h2v.9h-2v6a2.31,2.31,0,0,0,0,.45.86.86,0,0,0,.14.34.65.65,0,0,0,.28.22,1.15,1.15,0,0,0,.46.08h.8l.28,0v.91Z"/><path class="cls-6" d="M545,1049.48a3.62,3.62,0,0,1,1.73.39,3.47,3.47,0,0,1,1.2,1,4.61,4.61,0,0,1,.7,1.51,6.93,6.93,0,0,1,.23,1.79v.17h-6.73a4.74,4.74,0,0,0,.17,1.26,3.44,3.44,0,0,0,.52,1.11,2.63,2.63,0,0,0,.88.79,2.54,2.54,0,0,0,1.27.3,3.23,3.23,0,0,0,.93-.12,2.65,2.65,0,0,0,.74-.34,2.31,2.31,0,0,0,.55-.52,3.21,3.21,0,0,0,.39-.65h1a4,4,0,0,1-.51,1,3.29,3.29,0,0,1-.78.8,3.5,3.5,0,0,1-1,.52,4.43,4.43,0,0,1-1.32.18,3.9,3.9,0,0,1-1.73-.36,3.4,3.4,0,0,1-1.21-1,4.15,4.15,0,0,1-.72-1.47,6.85,6.85,0,0,1-.23-1.83,6.21,6.21,0,0,1,.24-1.71,4.49,4.49,0,0,1,.72-1.48,3.66,3.66,0,0,1,1.23-1A3.73,3.73,0,0,1,545,1049.48Zm2.78,4a4.07,4.07,0,0,0-.21-1.13,3.26,3.26,0,0,0-.54-1,2.79,2.79,0,0,0-.87-.72,2.46,2.46,0,0,0-1.18-.27,2.54,2.54,0,0,0-1.15.25,2.57,2.57,0,0,0-.84.68,3.63,3.63,0,0,0-.56,1,5.75,5.75,0,0,0-.31,1.2Z"/><path class="cls-6" d="M558.76,1046.37v12.11h-1v-1.66h0a2.7,2.7,0,0,1-.52.79,3.39,3.39,0,0,1-.75.61,3.63,3.63,0,0,1-.9.39,3.48,3.48,0,0,1-1,.14,3.72,3.72,0,0,1-1.7-.37,3.56,3.56,0,0,1-1.23-1,4.43,4.43,0,0,1-.74-1.48,6.23,6.23,0,0,1-.25-1.78,6.46,6.46,0,0,1,.23-1.72,4.41,4.41,0,0,1,.71-1.48,3.59,3.59,0,0,1,1.22-1,4,4,0,0,1,2.7-.27,3.49,3.49,0,0,1,.87.36,3.08,3.08,0,0,1,.73.6,2.78,2.78,0,0,1,.51.84h0v-5Zm-7,7.73a5.56,5.56,0,0,0,.07.87,4.9,4.9,0,0,0,.21.86,3.76,3.76,0,0,0,.38.78,2.84,2.84,0,0,0,.55.64,2.36,2.36,0,0,0,.73.43,2.59,2.59,0,0,0,.93.16,2.86,2.86,0,0,0,1.35-.3,2.82,2.82,0,0,0,1-.82,3.53,3.53,0,0,0,.57-1.19,5.27,5.27,0,0,0,.19-1.42,5.39,5.39,0,0,0-.18-1.37,3.64,3.64,0,0,0-.55-1.2,2.74,2.74,0,0,0-2.35-1.17,2.63,2.63,0,0,0-.9.15,2.44,2.44,0,0,0-.72.41,2.89,2.89,0,0,0-.55.62,3.79,3.79,0,0,0-.39.77,4.75,4.75,0,0,0-.23.87A5.64,5.64,0,0,0,551.76,1054.11Z"/><path class="cls-6" d="M574.44,1054.11a6.37,6.37,0,0,1-.23,1.71,4.49,4.49,0,0,1-.71,1.48,3.56,3.56,0,0,1-1.22,1,4,4,0,0,1-2.71.27,3.24,3.24,0,0,1-.87-.36,3,3,0,0,1-.72-.6,2.91,2.91,0,0,1-.51-.84h0v4.9h-1.07v-12h1v1.66h0a3,3,0,0,1,.52-.81,3.11,3.11,0,0,1,.73-.6,3.62,3.62,0,0,1,.89-.37,3.75,3.75,0,0,1,1-.13,3.81,3.81,0,0,1,1.71.37,3.54,3.54,0,0,1,1.23,1,4.45,4.45,0,0,1,.74,1.47A6.22,6.22,0,0,1,574.44,1054.11Zm-1.07,0a6,6,0,0,0-.15-1.3,3.79,3.79,0,0,0-.49-1.2,2.77,2.77,0,0,0-.89-.88,2.54,2.54,0,0,0-1.36-.34,2.79,2.79,0,0,0-2.27.93,4.29,4.29,0,0,0-.78,2.79,5.58,5.58,0,0,0,.17,1.37,3.58,3.58,0,0,0,.54,1.2,2.79,2.79,0,0,0,1,.85,2.87,2.87,0,0,0,1.41.32,2.49,2.49,0,0,0,1.28-.32,2.7,2.7,0,0,0,.89-.84,3.79,3.79,0,0,0,.52-1.2A5.54,5.54,0,0,0,573.37,1054.11Z"/><path class="cls-6" d="M584.48,1058.42l-.36.05h-.32a1.83,1.83,0,0,1-.59-.08.86.86,0,0,1-.39-.26,1.08,1.08,0,0,1-.22-.47,3.26,3.26,0,0,1-.07-.71h0a4,4,0,0,1-1.37,1.39,3.7,3.7,0,0,1-1.8.39,3.28,3.28,0,0,1-2.13-.66,2.33,2.33,0,0,1-.8-1.91,2.21,2.21,0,0,1,.88-1.91,9.07,9.07,0,0,1,3.95-.91,2.58,2.58,0,0,0,.59-.11,1,1,0,0,0,.38-.21.78.78,0,0,0,.21-.35,1.71,1.71,0,0,0,.07-.51,1.66,1.66,0,0,0-.54-1.34,2.69,2.69,0,0,0-1.75-.46,3.5,3.5,0,0,0-1,.12,2.24,2.24,0,0,0-.71.34,1.53,1.53,0,0,0-.45.52,1.63,1.63,0,0,0-.18.65h-1.07a2.66,2.66,0,0,1,.29-1,2.38,2.38,0,0,1,.68-.79,3.26,3.26,0,0,1,1.07-.51,5.4,5.4,0,0,1,1.46-.18,3.53,3.53,0,0,1,2.44.71,2.61,2.61,0,0,1,.78,2V1057a.63.63,0,0,0,.15.44.61.61,0,0,0,.48.16.91.91,0,0,0,.34-.06Zm-2-4.73h0c-.1.2-.45.34-1,.41l-.89.13-1,.16a3.59,3.59,0,0,0-1.55.58,1.34,1.34,0,0,0-.52,1.12,1.55,1.55,0,0,0,.58,1.26,2.13,2.13,0,0,0,1.38.47,3.15,3.15,0,0,0,2.18-.77,2.47,2.47,0,0,0,.87-1.92Z"/><path class="cls-6" d="M590.29,1049.48a4.5,4.5,0,0,1,1.45.21,2.44,2.44,0,0,1,1,.62,2.49,2.49,0,0,1,.57,1,5.07,5.07,0,0,1,.18,1.44v5.71h-1.07v-5.53a2.94,2.94,0,0,0-.55-1.93,2.06,2.06,0,0,0-1.67-.65,2.78,2.78,0,0,0-1.14.23,2.53,2.53,0,0,0-.87.64,2.89,2.89,0,0,0-.55.95,3.51,3.51,0,0,0-.19,1.18v5.12h-1.07v-8.75h1.07v1.52h0a2.66,2.66,0,0,1,.46-.74,2.92,2.92,0,0,1,.66-.55,3.18,3.18,0,0,1,.8-.35A3.33,3.33,0,0,1,590.29,1049.48Z"/><path class="cls-6" d="M599.81,1049.48a3.62,3.62,0,0,1,1.73.39,3.47,3.47,0,0,1,1.2,1,4.61,4.61,0,0,1,.7,1.51,6.93,6.93,0,0,1,.23,1.79v.17h-6.73a4.74,4.74,0,0,0,.17,1.26,3.44,3.44,0,0,0,.52,1.11,2.63,2.63,0,0,0,.88.79,2.54,2.54,0,0,0,1.27.3,3.23,3.23,0,0,0,.93-.12,2.65,2.65,0,0,0,.74-.34,2.31,2.31,0,0,0,.55-.52,3.21,3.21,0,0,0,.39-.65h1a4,4,0,0,1-.51,1,3.29,3.29,0,0,1-.78.8,3.5,3.5,0,0,1-1,.52,4.43,4.43,0,0,1-1.32.18,3.9,3.9,0,0,1-1.73-.36,3.4,3.4,0,0,1-1.21-1,4.15,4.15,0,0,1-.72-1.47,6.85,6.85,0,0,1-.23-1.83,6.21,6.21,0,0,1,.24-1.71,4.49,4.49,0,0,1,.72-1.48,3.66,3.66,0,0,1,1.23-1A3.73,3.73,0,0,1,599.81,1049.48Zm2.78,4a4.07,4.07,0,0,0-.21-1.13,3.26,3.26,0,0,0-.54-1,2.79,2.79,0,0,0-.87-.72,2.46,2.46,0,0,0-1.18-.27,2.54,2.54,0,0,0-1.15.25,2.57,2.57,0,0,0-.84.68,3.63,3.63,0,0,0-.56,1,5.75,5.75,0,0,0-.31,1.2Z"/><path class="cls-6" d="M607,1046.37v12.11h-1.07v-12.11Z"/><path class="cls-6" d="M616.47,1056.11a2.22,2.22,0,0,1-.3,1.17,2.5,2.5,0,0,1-.79.82,3.61,3.61,0,0,1-1.12.48,5.26,5.26,0,0,1-1.3.16,4.84,4.84,0,0,1-1.43-.19,3.16,3.16,0,0,1-1.07-.55,2.65,2.65,0,0,1-.71-.86,3.19,3.19,0,0,1-.33-1.13h1.08a2.24,2.24,0,0,0,.26.74,1.86,1.86,0,0,0,.51.57,2.35,2.35,0,0,0,.75.37,3.37,3.37,0,0,0,1,.13,3.91,3.91,0,0,0,.8-.09,2.7,2.7,0,0,0,.78-.28,1.79,1.79,0,0,0,.59-.51,1.28,1.28,0,0,0,.23-.79,1.24,1.24,0,0,0-.45-1,3.49,3.49,0,0,0-1.51-.62l-1.34-.3a5.29,5.29,0,0,1-1-.32,2.79,2.79,0,0,1-.77-.49,1.92,1.92,0,0,1-.48-.67,2.15,2.15,0,0,1-.16-.86,2.09,2.09,0,0,1,.29-1.11,2.39,2.39,0,0,1,.75-.76,3.39,3.39,0,0,1,1-.44,5,5,0,0,1,1.18-.14,4.35,4.35,0,0,1,1.23.16,3.07,3.07,0,0,1,1,.47,2.45,2.45,0,0,1,.67.77,2.77,2.77,0,0,1,.33,1h-1.07a1.77,1.77,0,0,0-.25-.67,1.66,1.66,0,0,0-.48-.49,2.3,2.3,0,0,0-.67-.3,3.2,3.2,0,0,0-.82-.1,3.9,3.9,0,0,0-.77.08,2.15,2.15,0,0,0-.68.26,1.45,1.45,0,0,0-.48.46,1.3,1.3,0,0,0-.18.71,1,1,0,0,0,.18.59,1.67,1.67,0,0,0,.44.43,2.45,2.45,0,0,0,.59.29,4.65,4.65,0,0,0,.62.18l1.83.41a3.84,3.84,0,0,1,.79.27,2.4,2.4,0,0,1,.66.46,2.2,2.2,0,0,1,.46.68A2.29,2.29,0,0,1,616.47,1056.11Z"/><path class="cls-6" d="M952,612.54v.93h-4V624h-1.09V613.47h-4v-.93Z"/><path class="cls-6" d="M959.51,623.9l-.36.05h-.32a1.84,1.84,0,0,1-.59-.08.87.87,0,0,1-.39-.26,1.1,1.1,0,0,1-.22-.47,3.33,3.33,0,0,1-.07-.71h0a4.05,4.05,0,0,1-1.37,1.39,3.71,3.71,0,0,1-1.8.39,3.29,3.29,0,0,1-2.13-.66,2.33,2.33,0,0,1-.8-1.91,2.21,2.21,0,0,1,.88-1.91,9,9,0,0,1,3.95-.91,2.68,2.68,0,0,0,.59-.11,1,1,0,0,0,.38-.21.77.77,0,0,0,.21-.35,1.68,1.68,0,0,0,.07-.51,1.66,1.66,0,0,0-.54-1.34,2.69,2.69,0,0,0-1.75-.46,3.47,3.47,0,0,0-1,.12,2.22,2.22,0,0,0-.71.34,1.53,1.53,0,0,0-.45.52,1.64,1.64,0,0,0-.18.65h-1.07a2.65,2.65,0,0,1,.29-1,2.38,2.38,0,0,1,.68-.79,3.26,3.26,0,0,1,1.07-.51,5.37,5.37,0,0,1,1.46-.18,3.52,3.52,0,0,1,2.44.71,2.61,2.61,0,0,1,.78,2v4.75a.63.63,0,0,0,.15.44.61.61,0,0,0,.48.16.93.93,0,0,0,.34-.06Zm-2-4.73h0q-.16.3-1,.41l-.89.13-1,.16a3.57,3.57,0,0,0-1.55.58,1.34,1.34,0,0,0-.52,1.12,1.55,1.55,0,0,0,.58,1.26,2.14,2.14,0,0,0,1.38.47,3.15,3.15,0,0,0,2.18-.77,2.47,2.47,0,0,0,.87-1.92Z"/><path class="cls-6" d="M969.5,619.58a6.34,6.34,0,0,1-.23,1.71,4.48,4.48,0,0,1-.71,1.48,3.57,3.57,0,0,1-1.22,1,3.73,3.73,0,0,1-1.77.39,3.86,3.86,0,0,1-1-.12,3.46,3.46,0,0,1-.88-.36,3.13,3.13,0,0,1-.74-.6,2.92,2.92,0,0,1-.53-.84h0V624h-1V611.85h1.07v5h0a2.67,2.67,0,0,1,.48-.82,3,3,0,0,1,.71-.6,3.34,3.34,0,0,1,.88-.37,3.82,3.82,0,0,1,1-.12,3.76,3.76,0,0,1,1.72.37,3.48,3.48,0,0,1,1.22,1,4.44,4.44,0,0,1,.73,1.47A6.66,6.66,0,0,1,969.5,619.58Zm-1.07,0a5.76,5.76,0,0,0-.07-.87,4.53,4.53,0,0,0-.21-.86,3.79,3.79,0,0,0-.37-.78,2.72,2.72,0,0,0-.55-.64,2.43,2.43,0,0,0-.74-.43,2.66,2.66,0,0,0-.94-.16,2.8,2.8,0,0,0-1.35.31,2.84,2.84,0,0,0-1,.82,3.65,3.65,0,0,0-.57,1.19,5.25,5.25,0,0,0-.19,1.41,5.65,5.65,0,0,0,.17,1.37,3.6,3.6,0,0,0,.54,1.2,2.81,2.81,0,0,0,.95.84,2.9,2.9,0,0,0,1.42.32,2.51,2.51,0,0,0,1.29-.31,2.61,2.61,0,0,0,.88-.84,3.82,3.82,0,0,0,.51-1.19A6.46,6.46,0,0,0,968.43,619.58Z"/><path class="cls-6" d="M973.09,611.85V624H972V611.85Z"/><path class="cls-6" d="M979.46,615a3.61,3.61,0,0,1,1.73.39,3.46,3.46,0,0,1,1.2,1,4.59,4.59,0,0,1,.7,1.51,6.89,6.89,0,0,1,.23,1.79v.17h-6.73a4.8,4.8,0,0,0,.17,1.26,3.51,3.51,0,0,0,.52,1.11,2.67,2.67,0,0,0,.88.79,2.56,2.56,0,0,0,1.27.3,3.26,3.26,0,0,0,.93-.12,2.67,2.67,0,0,0,.74-.34,2.31,2.31,0,0,0,.55-.52,3.15,3.15,0,0,0,.39-.65h1a4,4,0,0,1-.51,1,3.29,3.29,0,0,1-.78.8,3.54,3.54,0,0,1-1,.52,4.45,4.45,0,0,1-1.32.18,3.92,3.92,0,0,1-1.73-.36,3.43,3.43,0,0,1-1.21-1,4.17,4.17,0,0,1-.72-1.47,6.85,6.85,0,0,1-.23-1.83,6.24,6.24,0,0,1,.24-1.71,4.52,4.52,0,0,1,.72-1.48,3.67,3.67,0,0,1,1.23-1A3.73,3.73,0,0,1,979.46,615Zm2.78,4a4.06,4.06,0,0,0-.21-1.13,3.23,3.23,0,0,0-.54-1,2.75,2.75,0,0,0-.87-.72,2.45,2.45,0,0,0-1.18-.27,2.53,2.53,0,0,0-1.15.25,2.57,2.57,0,0,0-.84.68,3.66,3.66,0,0,0-.56,1,5.79,5.79,0,0,0-.31,1.2Z"/><path class="cls-6" d="M989.07,624h-.88a4,4,0,0,1-.91-.09,1.29,1.29,0,0,1-.6-.3,1.21,1.21,0,0,1-.33-.57,3.56,3.56,0,0,1-.1-.91v-6.09H984.5v-.9h1.76v-2.62h1.07v2.63h2v.9h-2v6a2.4,2.4,0,0,0,0,.45.89.89,0,0,0,.14.34.67.67,0,0,0,.28.22,1.17,1.17,0,0,0,.46.08h.8l.28,0V624Z"/><path class="cls-6" d="M998.23,621.58a2.22,2.22,0,0,1-.3,1.17,2.51,2.51,0,0,1-.79.82,3.66,3.66,0,0,1-1.12.48,5.3,5.3,0,0,1-1.3.16,4.89,4.89,0,0,1-1.43-.19,3.2,3.2,0,0,1-1.07-.55,2.67,2.67,0,0,1-.71-.86,3.22,3.22,0,0,1-.33-1.13h1.08a2.28,2.28,0,0,0,.26.74,1.9,1.9,0,0,0,.51.57,2.41,2.41,0,0,0,.75.37,3.41,3.41,0,0,0,1,.13,4,4,0,0,0,.8-.09,2.75,2.75,0,0,0,.78-.28,1.79,1.79,0,0,0,.59-.51,1.28,1.28,0,0,0,.23-.79,1.23,1.23,0,0,0-.45-1,3.46,3.46,0,0,0-1.51-.62l-1.34-.3a5.4,5.4,0,0,1-1-.32,2.83,2.83,0,0,1-.77-.49,1.94,1.94,0,0,1-.48-.67,2.15,2.15,0,0,1-.16-.86,2.09,2.09,0,0,1,.29-1.11,2.4,2.4,0,0,1,.75-.76,3.39,3.39,0,0,1,1-.44,5,5,0,0,1,1.18-.14,4.34,4.34,0,0,1,1.23.16,3,3,0,0,1,1,.47,2.42,2.42,0,0,1,.67.77,2.77,2.77,0,0,1,.33,1h-1.07a1.75,1.75,0,0,0-.25-.67,1.65,1.65,0,0,0-.48-.49,2.24,2.24,0,0,0-.67-.3,3.15,3.15,0,0,0-.82-.1,3.84,3.84,0,0,0-.77.08,2.12,2.12,0,0,0-.68.26,1.45,1.45,0,0,0-.48.46,1.31,1.31,0,0,0-.18.71,1,1,0,0,0,.18.59,1.71,1.71,0,0,0,.44.43,2.57,2.57,0,0,0,.59.29,5.06,5.06,0,0,0,.62.18l1.83.41a3.75,3.75,0,0,1,.79.27,2.33,2.33,0,0,1,.66.46,2.15,2.15,0,0,1,.46.68A2.27,2.27,0,0,1,998.23,621.58Z"/><path class="cls-6" d="M789.81,321.41a5.57,5.57,0,0,1,1.61.23,4.63,4.63,0,0,1,1.36.65,3.86,3.86,0,0,1,1,1,3.8,3.8,0,0,1,.56,1.36h-1.09a3.37,3.37,0,0,0-.45-.93,3,3,0,0,0-.73-.74,3.56,3.56,0,0,0-1-.49,4.5,4.5,0,0,0-3.12.22,4,4,0,0,0-1.36,1.09,4.85,4.85,0,0,0-.83,1.6,6.49,6.49,0,0,0-.28,1.93,7,7,0,0,0,.11,1.25,5.72,5.72,0,0,0,.35,1.18,4.91,4.91,0,0,0,.59,1,4,4,0,0,0,.83.82,3.83,3.83,0,0,0,1.08.54,4.33,4.33,0,0,0,1.34.2,3.74,3.74,0,0,0,1.41-.25,3.38,3.38,0,0,0,1.09-.7,3.56,3.56,0,0,0,.75-1,4.21,4.21,0,0,0,.39-1.24h1.09a5.41,5.41,0,0,1-.47,1.6,4.42,4.42,0,0,1-.94,1.31,4.3,4.3,0,0,1-1.41.89,5.07,5.07,0,0,1-1.89.33,5.4,5.4,0,0,1-2.27-.46,4.89,4.89,0,0,1-1.69-1.26,5.62,5.62,0,0,1-1.06-1.89,7.57,7.57,0,0,1,0-4.6,5.66,5.66,0,0,1,1-1.89,5,5,0,0,1,1.7-1.3A5.36,5.36,0,0,1,789.81,321.41Z"/><path class="cls-6" d="M804.43,328.67a5.71,5.71,0,0,1-.27,1.75,4.41,4.41,0,0,1-.82,1.5,3.9,3.9,0,0,1-1.3,1,4,4,0,0,1-1.75.38,3.78,3.78,0,0,1-3-1.3,5.43,5.43,0,0,1,0-6.65,4.11,4.11,0,0,1,6,0A4.86,4.86,0,0,1,804.43,328.67Zm-1.07,0a5,5,0,0,0-.18-1.33,3.71,3.71,0,0,0-.56-1.2,3,3,0,0,0-1-.87,2.73,2.73,0,0,0-1.39-.34,2.63,2.63,0,0,0-1.31.32,3,3,0,0,0-1,.85,3.81,3.81,0,0,0-.58,1.2,4.92,4.92,0,0,0-.2,1.37,4.8,4.8,0,0,0,.19,1.33,4,4,0,0,0,.57,1.2,3,3,0,0,0,1,.87,2.64,2.64,0,0,0,1.35.33,2.61,2.61,0,0,0,1.3-.32,3.09,3.09,0,0,0,1-.84,3.71,3.71,0,0,0,.6-1.19A4.68,4.68,0,0,0,803.36,328.67Z"/><path class="cls-6" d="M810.72,324a4.47,4.47,0,0,1,1.45.21,2.42,2.42,0,0,1,1,.62,2.46,2.46,0,0,1,.57,1,5,5,0,0,1,.18,1.44V333h-1.07v-5.53a2.93,2.93,0,0,0-.55-1.93,2.06,2.06,0,0,0-1.67-.65,2.76,2.76,0,0,0-1.14.23,2.52,2.52,0,0,0-.87.64,2.91,2.91,0,0,0-.55.95,3.53,3.53,0,0,0-.19,1.18V333H806.8V324.3h1.07v1.52h0a2.69,2.69,0,0,1,.46-.74,2.94,2.94,0,0,1,.66-.55,3.13,3.13,0,0,1,.8-.35A3.3,3.3,0,0,1,810.72,324Z"/><path class="cls-6" d="M823.35,330.67a2.22,2.22,0,0,1-.3,1.17,2.51,2.51,0,0,1-.79.82,3.66,3.66,0,0,1-1.12.48,5.3,5.3,0,0,1-1.3.16,4.89,4.89,0,0,1-1.43-.19,3.2,3.2,0,0,1-1.07-.55,2.67,2.67,0,0,1-.71-.86,3.22,3.22,0,0,1-.33-1.13h1.08a2.28,2.28,0,0,0,.26.74,1.9,1.9,0,0,0,.51.57,2.41,2.41,0,0,0,.75.37,3.41,3.41,0,0,0,1,.13,4,4,0,0,0,.8-.09,2.75,2.75,0,0,0,.78-.28,1.79,1.79,0,0,0,.59-.51,1.28,1.28,0,0,0,.23-.79,1.23,1.23,0,0,0-.45-1,3.46,3.46,0,0,0-1.51-.62l-1.34-.3a5.4,5.4,0,0,1-1-.32,2.83,2.83,0,0,1-.77-.49,1.94,1.94,0,0,1-.48-.67,2.15,2.15,0,0,1-.16-.86,2.09,2.09,0,0,1,.29-1.11,2.4,2.4,0,0,1,.75-.76,3.39,3.39,0,0,1,1-.44,5,5,0,0,1,1.18-.14,4.34,4.34,0,0,1,1.23.16,3,3,0,0,1,1,.47,2.42,2.42,0,0,1,.67.77,2.77,2.77,0,0,1,.33,1h-1.07a1.75,1.75,0,0,0-.25-.67,1.65,1.65,0,0,0-.48-.49,2.24,2.24,0,0,0-.67-.3,3.15,3.15,0,0,0-.82-.1,3.84,3.84,0,0,0-.77.08,2.12,2.12,0,0,0-.68.26,1.45,1.45,0,0,0-.48.46,1.31,1.31,0,0,0-.18.71,1,1,0,0,0,.18.59,1.71,1.71,0,0,0,.44.43,2.57,2.57,0,0,0,.59.29,5.06,5.06,0,0,0,.62.18l1.83.41a3.75,3.75,0,0,1,.79.27,2.33,2.33,0,0,1,.66.46,2.15,2.15,0,0,1,.46.68A2.27,2.27,0,0,1,823.35,330.67Z"/><path class="cls-6" d="M831.8,333v-1.57h0a3.27,3.27,0,0,1-.52.77,3.1,3.1,0,0,1-.7.57,3.28,3.28,0,0,1-.84.36,3.65,3.65,0,0,1-1,.13,3,3,0,0,1-2.32-.84,3.53,3.53,0,0,1-.75-2.42V324.3h1.07V330a3.58,3.58,0,0,0,.13,1,1.93,1.93,0,0,0,.41.75,1.78,1.78,0,0,0,.72.47,3.13,3.13,0,0,0,1.06.16,2.26,2.26,0,0,0,1.19-.3,2.55,2.55,0,0,0,.82-.79,3.48,3.48,0,0,0,.48-1.11,5.2,5.2,0,0,0,.15-1.25V324.3h1.07V333Z"/><path class="cls-6" d="M846.71,333v-6a2.3,2.3,0,0,0-.5-1.63,2.47,2.47,0,0,0-3.34.28,3.74,3.74,0,0,0-.6,2.28v5h-1.08v-6a2.41,2.41,0,0,0-.45-1.55,1.66,1.66,0,0,0-1.37-.56,2.3,2.3,0,0,0-1.95.87,3.64,3.64,0,0,0-.66,2.28v5h-1.07V324.3h1v1.47h0a3,3,0,0,1,2.87-1.72,3.23,3.23,0,0,1,.86.11,2.45,2.45,0,0,1,.73.32,2.2,2.2,0,0,1,.56.53,2.46,2.46,0,0,1,.37.74,2.88,2.88,0,0,1,1.14-1.27,3.21,3.21,0,0,1,1.65-.43,2.82,2.82,0,0,1,2.18.77,3.14,3.14,0,0,1,.71,2.21v6Z"/><path class="cls-6" d="M854.13,324a3.61,3.61,0,0,1,1.73.39,3.46,3.46,0,0,1,1.2,1,4.59,4.59,0,0,1,.7,1.51,6.89,6.89,0,0,1,.23,1.79V329h-6.73a4.8,4.8,0,0,0,.17,1.26,3.51,3.51,0,0,0,.52,1.11,2.67,2.67,0,0,0,.88.79,2.56,2.56,0,0,0,1.27.3,3.26,3.26,0,0,0,.93-.12,2.67,2.67,0,0,0,.74-.34,2.31,2.31,0,0,0,.55-.52,3.15,3.15,0,0,0,.39-.65h1a4,4,0,0,1-.51,1,3.29,3.29,0,0,1-.78.8,3.54,3.54,0,0,1-1,.52,4.45,4.45,0,0,1-1.32.18,3.92,3.92,0,0,1-1.73-.36,3.43,3.43,0,0,1-1.21-1,4.17,4.17,0,0,1-.72-1.47,6.85,6.85,0,0,1-.23-1.83,6.24,6.24,0,0,1,.24-1.71,4.52,4.52,0,0,1,.72-1.48,3.67,3.67,0,0,1,1.23-1A3.73,3.73,0,0,1,854.13,324Zm2.78,4a4.06,4.06,0,0,0-.21-1.13,3.23,3.23,0,0,0-.54-1,2.75,2.75,0,0,0-.87-.72,2.45,2.45,0,0,0-1.18-.27,2.53,2.53,0,0,0-1.15.25,2.57,2.57,0,0,0-.84.68,3.66,3.66,0,0,0-.56,1,5.79,5.79,0,0,0-.31,1.2Z"/><path class="cls-6" d="M860.22,333V324.3h1v2h0a3.42,3.42,0,0,1,1.2-1.59,3.1,3.1,0,0,1,1.84-.57h.38v1.06h-.24a3,3,0,0,0-2.27.91,3.15,3.15,0,0,0-.86,2.25V333Z"/><path class="cls-6" d="M879.13,328.67a6.34,6.34,0,0,1-.23,1.71,4.48,4.48,0,0,1-.71,1.48,3.57,3.57,0,0,1-1.22,1,4,4,0,0,1-2.71.27,3.33,3.33,0,0,1-.87-.36,3.06,3.06,0,0,1-.72-.6,3,3,0,0,1-.51-.84h0v4.9h-1.07v-12h1V326h0a3,3,0,0,1,.52-.81,3.08,3.08,0,0,1,.73-.6,3.6,3.6,0,0,1,.89-.37,4,4,0,0,1,2.7.24,3.53,3.53,0,0,1,1.23,1,4.42,4.42,0,0,1,.74,1.47A6.18,6.18,0,0,1,879.13,328.67Zm-1.07,0a5.93,5.93,0,0,0-.15-1.3,3.76,3.76,0,0,0-.49-1.2,2.75,2.75,0,0,0-.89-.88,2.53,2.53,0,0,0-1.36-.34,2.79,2.79,0,0,0-2.27.93,4.29,4.29,0,0,0-.78,2.79,5.63,5.63,0,0,0,.17,1.37,3.62,3.62,0,0,0,.54,1.2,2.82,2.82,0,0,0,1,.85,2.89,2.89,0,0,0,1.41.32,2.49,2.49,0,0,0,1.28-.32,2.7,2.7,0,0,0,.89-.84,3.79,3.79,0,0,0,.52-1.2A5.5,5.5,0,0,0,878.06,328.67Z"/><path class="cls-6" d="M889.18,333l-.36.05h-.32a1.84,1.84,0,0,1-.59-.08.87.87,0,0,1-.39-.26,1.1,1.1,0,0,1-.22-.47,3.33,3.33,0,0,1-.07-.71h0a4.05,4.05,0,0,1-1.37,1.39,3.71,3.71,0,0,1-1.8.39,3.29,3.29,0,0,1-2.13-.66,2.33,2.33,0,0,1-.8-1.91,2.21,2.21,0,0,1,.88-1.91,9,9,0,0,1,3.95-.91,2.68,2.68,0,0,0,.59-.11,1,1,0,0,0,.38-.21.77.77,0,0,0,.21-.35,1.68,1.68,0,0,0,.07-.51,1.66,1.66,0,0,0-.54-1.34,2.69,2.69,0,0,0-1.75-.46,3.47,3.47,0,0,0-1,.12,2.22,2.22,0,0,0-.71.34,1.53,1.53,0,0,0-.45.52,1.64,1.64,0,0,0-.18.65h-1.07a2.65,2.65,0,0,1,.29-1,2.38,2.38,0,0,1,.68-.79,3.26,3.26,0,0,1,1.07-.51A5.37,5.37,0,0,1,885,324a3.52,3.52,0,0,1,2.44.71,2.61,2.61,0,0,1,.78,2v4.75a.63.63,0,0,0,.15.44.61.61,0,0,0,.48.16.93.93,0,0,0,.34-.06Zm-2-4.73h0q-.16.3-1,.41l-.89.13-1,.16a3.57,3.57,0,0,0-1.55.58,1.34,1.34,0,0,0-.52,1.12,1.55,1.55,0,0,0,.58,1.26,2.14,2.14,0,0,0,1.38.47,3.15,3.15,0,0,0,2.18-.77,2.47,2.47,0,0,0,.87-1.92Z"/><path class="cls-6" d="M895,324a4.47,4.47,0,0,1,1.45.21,2.42,2.42,0,0,1,1,.62,2.46,2.46,0,0,1,.57,1,5,5,0,0,1,.18,1.44V333h-1.07v-5.53a2.93,2.93,0,0,0-.55-1.93,2.06,2.06,0,0,0-1.67-.65,2.76,2.76,0,0,0-1.14.23,2.52,2.52,0,0,0-.87.64,2.91,2.91,0,0,0-.55.95,3.53,3.53,0,0,0-.19,1.18V333h-1.07V324.3h1.07v1.52h0a2.69,2.69,0,0,1,.46-.74,2.94,2.94,0,0,1,.66-.55,3.13,3.13,0,0,1,.8-.35A3.3,3.3,0,0,1,895,324Z"/><path class="cls-6" d="M904.5,324a3.61,3.61,0,0,1,1.73.39,3.46,3.46,0,0,1,1.2,1,4.59,4.59,0,0,1,.7,1.51,6.89,6.89,0,0,1,.23,1.79V329h-6.73a4.8,4.8,0,0,0,.17,1.26,3.51,3.51,0,0,0,.52,1.11,2.67,2.67,0,0,0,.88.79,2.56,2.56,0,0,0,1.27.3,3.26,3.26,0,0,0,.93-.12,2.67,2.67,0,0,0,.74-.34,2.31,2.31,0,0,0,.55-.52,3.15,3.15,0,0,0,.39-.65h1a4,4,0,0,1-.51,1,3.29,3.29,0,0,1-.78.8,3.54,3.54,0,0,1-1,.52,4.45,4.45,0,0,1-1.32.18,3.92,3.92,0,0,1-1.73-.36,3.43,3.43,0,0,1-1.21-1,4.17,4.17,0,0,1-.72-1.47,6.85,6.85,0,0,1-.23-1.83,6.24,6.24,0,0,1,.24-1.71,4.52,4.52,0,0,1,.72-1.48,3.67,3.67,0,0,1,1.23-1A3.73,3.73,0,0,1,904.5,324Zm2.78,4a4.06,4.06,0,0,0-.21-1.13,3.23,3.23,0,0,0-.54-1,2.75,2.75,0,0,0-.87-.72,2.45,2.45,0,0,0-1.18-.27,2.53,2.53,0,0,0-1.15.25,2.57,2.57,0,0,0-.84.68,3.66,3.66,0,0,0-.56,1,5.79,5.79,0,0,0-.31,1.2Z"/><path class="cls-6" d="M911.68,320.94V333h-1.07V320.94Z"/><path class="cls-6" d="M921.17,330.67a2.22,2.22,0,0,1-.3,1.17,2.51,2.51,0,0,1-.79.82,3.66,3.66,0,0,1-1.12.48,5.3,5.3,0,0,1-1.3.16,4.89,4.89,0,0,1-1.43-.19,3.2,3.2,0,0,1-1.07-.55,2.67,2.67,0,0,1-.71-.86,3.22,3.22,0,0,1-.33-1.13h1.08a2.28,2.28,0,0,0,.26.74,1.9,1.9,0,0,0,.51.57,2.41,2.41,0,0,0,.75.37,3.41,3.41,0,0,0,1,.13,4,4,0,0,0,.8-.09,2.75,2.75,0,0,0,.78-.28,1.79,1.79,0,0,0,.59-.51,1.28,1.28,0,0,0,.23-.79,1.23,1.23,0,0,0-.45-1,3.46,3.46,0,0,0-1.51-.62l-1.34-.3a5.4,5.4,0,0,1-1-.32A2.83,2.83,0,0,1,915,328a1.94,1.94,0,0,1-.48-.67,2.15,2.15,0,0,1-.16-.86,2.09,2.09,0,0,1,.29-1.11,2.4,2.4,0,0,1,.75-.76,3.39,3.39,0,0,1,1-.44,5,5,0,0,1,1.18-.14,4.34,4.34,0,0,1,1.23.16,3,3,0,0,1,1,.47,2.42,2.42,0,0,1,.67.77,2.77,2.77,0,0,1,.33,1h-1.07a1.75,1.75,0,0,0-.25-.67,1.65,1.65,0,0,0-.48-.49,2.24,2.24,0,0,0-.67-.3,3.15,3.15,0,0,0-.82-.1,3.84,3.84,0,0,0-.77.08,2.12,2.12,0,0,0-.68.26,1.45,1.45,0,0,0-.48.46,1.31,1.31,0,0,0-.18.71,1,1,0,0,0,.18.59,1.71,1.71,0,0,0,.44.43,2.57,2.57,0,0,0,.59.29,5.06,5.06,0,0,0,.62.18l1.83.41a3.75,3.75,0,0,1,.79.27,2.33,2.33,0,0,1,.66.46,2.15,2.15,0,0,1,.46.68A2.27,2.27,0,0,1,921.17,330.67Z"/><path class="cls-6" d="M481.08,196.07a5.49,5.49,0,0,1,4,1.37,7.34,7.34,0,0,1,0,8.7,5.36,5.36,0,0,1-3.85,1.36h-3.92V196.07Zm-.3,10.49a4.76,4.76,0,0,0,3.48-1.11,5,5,0,0,0,1.13-3.67,5.1,5.1,0,0,0-1.09-3.66,5,5,0,0,0-3.67-1.12h-2.26v9.56Z"/><path class="cls-6" d="M492.21,198.49a3.61,3.61,0,0,1,1.73.39,3.46,3.46,0,0,1,1.2,1,4.61,4.61,0,0,1,.7,1.51,6.93,6.93,0,0,1,.23,1.79v.17h-6.73a4.76,4.76,0,0,0,.17,1.26,3.46,3.46,0,0,0,.52,1.11,2.65,2.65,0,0,0,.88.79,2.55,2.55,0,0,0,1.27.3,3.26,3.26,0,0,0,.93-.12,2.7,2.7,0,0,0,.74-.34,2.35,2.35,0,0,0,.55-.52,3.24,3.24,0,0,0,.39-.65h1a4,4,0,0,1-.51,1,3.31,3.31,0,0,1-.78.8,3.55,3.55,0,0,1-1,.52,4.46,4.46,0,0,1-1.32.18,3.91,3.91,0,0,1-1.73-.36,3.41,3.41,0,0,1-1.21-1,4.15,4.15,0,0,1-.72-1.47,6.85,6.85,0,0,1-.23-1.83,6.2,6.2,0,0,1,.24-1.71,4.48,4.48,0,0,1,.72-1.48,3.65,3.65,0,0,1,1.23-1A3.72,3.72,0,0,1,492.21,198.49Zm2.78,4a4.06,4.06,0,0,0-.21-1.13,3.25,3.25,0,0,0-.54-1,2.77,2.77,0,0,0-.87-.72,2.45,2.45,0,0,0-1.18-.27,2.46,2.46,0,0,0-2,.93,3.61,3.61,0,0,0-.56,1,5.73,5.73,0,0,0-.31,1.2Z"/><path class="cls-6" d="M504.83,205.12a2.23,2.23,0,0,1-.3,1.17,2.52,2.52,0,0,1-.79.82,3.66,3.66,0,0,1-1.12.48,5.31,5.31,0,0,1-1.3.16,4.88,4.88,0,0,1-1.43-.19,3.19,3.19,0,0,1-1.07-.55,2.66,2.66,0,0,1-.71-.86,3.2,3.2,0,0,1-.33-1.13h1.08a2.26,2.26,0,0,0,.26.74,1.89,1.89,0,0,0,.51.57,2.4,2.4,0,0,0,.75.37,3.4,3.4,0,0,0,1,.13,4,4,0,0,0,.8-.09,2.76,2.76,0,0,0,.78-.28,1.8,1.8,0,0,0,.59-.51,1.28,1.28,0,0,0,.23-.79,1.24,1.24,0,0,0-.45-1,3.46,3.46,0,0,0-1.51-.62l-1.34-.3a5.36,5.36,0,0,1-1-.32,2.81,2.81,0,0,1-.77-.49,1.94,1.94,0,0,1-.48-.67,2.15,2.15,0,0,1-.16-.86,2.08,2.08,0,0,1,.29-1.11,2.38,2.38,0,0,1,.75-.76,3.37,3.37,0,0,1,1-.44,5,5,0,0,1,1.18-.14,4.35,4.35,0,0,1,1.23.16,3,3,0,0,1,1,.47,2.44,2.44,0,0,1,.67.77,2.77,2.77,0,0,1,.33,1h-1.07a1.77,1.77,0,0,0-.25-.67,1.65,1.65,0,0,0-.48-.49,2.25,2.25,0,0,0-.67-.3,3.16,3.16,0,0,0-.82-.1,3.82,3.82,0,0,0-.77.08,2.11,2.11,0,0,0-.68.26,1.43,1.43,0,0,0-.48.46,1.3,1.3,0,0,0-.18.71,1,1,0,0,0,.18.59,1.7,1.7,0,0,0,.44.43,2.53,2.53,0,0,0,.59.29,5,5,0,0,0,.62.18l1.83.41a3.79,3.79,0,0,1,.79.27,2.36,2.36,0,0,1,.66.46,2.18,2.18,0,0,1,.46.68A2.29,2.29,0,0,1,504.83,205.12Z"/><path class="cls-6" d="M508.25,195.38V203l4.85-4.23h1.43L510.81,202l4,5.52h-1.33L510,202.73l-1.73,1.44v3.32h-1.07V195.38Z"/><path class="cls-6" d="M519.93,207.57H519a4,4,0,0,1-.91-.09,1.28,1.28,0,0,1-.6-.3,1.2,1.2,0,0,1-.33-.57,3.51,3.51,0,0,1-.1-.91v-6.09h-1.76v-.9h1.76v-2.62h1.07v2.63h2v.9h-2v6a2.32,2.32,0,0,0,0,.45.86.86,0,0,0,.14.34.66.66,0,0,0,.28.22,1.17,1.17,0,0,0,.46.08h.8l.28,0v.91Z"/><path class="cls-6" d="M530.06,203.12a5.71,5.71,0,0,1-.27,1.75,4.42,4.42,0,0,1-.82,1.5,3.87,3.87,0,0,1-3.05,1.38,3.78,3.78,0,0,1-3-1.3,5.43,5.43,0,0,1,0-6.65,4.11,4.11,0,0,1,6,0A4.87,4.87,0,0,1,530.06,203.12Zm-1.07,0a5.05,5.05,0,0,0-.18-1.33,3.75,3.75,0,0,0-.56-1.2,3,3,0,0,0-1-.87,2.73,2.73,0,0,0-1.39-.34,2.63,2.63,0,0,0-1.31.32,3,3,0,0,0-1,.85,3.79,3.79,0,0,0-.58,1.2,4.89,4.89,0,0,0-.2,1.37,4.76,4.76,0,0,0,.19,1.33,4,4,0,0,0,.57,1.2,3,3,0,0,0,1,.87,2.64,2.64,0,0,0,1.35.33,2.61,2.61,0,0,0,1.3-.32,3.11,3.11,0,0,0,1-.84,3.75,3.75,0,0,0,.6-1.19A4.72,4.72,0,0,0,529,203.12Z"/><path class="cls-6" d="M540.53,203.12a6.38,6.38,0,0,1-.23,1.71,4.5,4.5,0,0,1-.71,1.48,3.58,3.58,0,0,1-1.22,1,4,4,0,0,1-2.71.27,3.3,3.3,0,0,1-.87-.36,3,3,0,0,1-.72-.6,2.93,2.93,0,0,1-.51-.84h0v4.9h-1.07v-12h1v1.66h0a3,3,0,0,1,.52-.81,3.06,3.06,0,0,1,.73-.6,3.58,3.58,0,0,1,.89-.37,3.75,3.75,0,0,1,1-.13,3.8,3.8,0,0,1,1.71.37,3.53,3.53,0,0,1,1.23,1,4.44,4.44,0,0,1,.74,1.47A6.22,6.22,0,0,1,540.53,203.12Zm-1.07,0a6,6,0,0,0-.15-1.3,3.78,3.78,0,0,0-.49-1.2,2.76,2.76,0,0,0-.89-.88,2.53,2.53,0,0,0-1.36-.34,2.79,2.79,0,0,0-2.27.93,4.28,4.28,0,0,0-.78,2.79,5.58,5.58,0,0,0,.17,1.37,3.58,3.58,0,0,0,.54,1.2,2.8,2.8,0,0,0,1,.85,2.88,2.88,0,0,0,1.41.32,2.49,2.49,0,0,0,1.28-.32,2.71,2.71,0,0,0,.89-.84,3.81,3.81,0,0,0,.52-1.2A5.54,5.54,0,0,0,539.46,203.12Z"/><path class="cls-6" d="M549.56,205.12a2.23,2.23,0,0,1-.3,1.17,2.52,2.52,0,0,1-.79.82,3.66,3.66,0,0,1-1.12.48,5.31,5.31,0,0,1-1.3.16,4.88,4.88,0,0,1-1.43-.19,3.19,3.19,0,0,1-1.07-.55,2.66,2.66,0,0,1-.71-.86,3.2,3.2,0,0,1-.33-1.13h1.08a2.26,2.26,0,0,0,.26.74,1.89,1.89,0,0,0,.51.57,2.4,2.4,0,0,0,.75.37,3.4,3.4,0,0,0,1,.13,4,4,0,0,0,.8-.09,2.76,2.76,0,0,0,.78-.28,1.8,1.8,0,0,0,.59-.51,1.28,1.28,0,0,0,.23-.79,1.24,1.24,0,0,0-.45-1,3.46,3.46,0,0,0-1.51-.62l-1.34-.3a5.36,5.36,0,0,1-1-.32,2.81,2.81,0,0,1-.77-.49,1.94,1.94,0,0,1-.48-.67,2.15,2.15,0,0,1-.16-.86,2.08,2.08,0,0,1,.29-1.11,2.38,2.38,0,0,1,.75-.76,3.37,3.37,0,0,1,1-.44,5,5,0,0,1,1.18-.14,4.35,4.35,0,0,1,1.23.16,3,3,0,0,1,1,.47,2.44,2.44,0,0,1,.67.77,2.77,2.77,0,0,1,.33,1h-1.07a1.77,1.77,0,0,0-.25-.67,1.65,1.65,0,0,0-.48-.49,2.25,2.25,0,0,0-.67-.3,3.16,3.16,0,0,0-.82-.1,3.82,3.82,0,0,0-.77.08,2.11,2.11,0,0,0-.68.26,1.43,1.43,0,0,0-.48.46,1.3,1.3,0,0,0-.18.71,1,1,0,0,0,.18.59,1.7,1.7,0,0,0,.44.43,2.53,2.53,0,0,0,.59.29,5,5,0,0,0,.62.18l1.83.41a3.79,3.79,0,0,1,.79.27,2.36,2.36,0,0,1,.66.46,2.18,2.18,0,0,1,.46.68A2.29,2.29,0,0,1,549.56,205.12Z"/><path class="cls-6" d="M551.11,207.73h-.87l4.93-11.91H556Z"/><path class="cls-6" d="M558.38,196.07v10.49h6.4v.93h-7.49V196.07Z"/><path class="cls-6" d="M573.85,207.43l-.36.05h-.32a1.83,1.83,0,0,1-.59-.08.87.87,0,0,1-.39-.26,1.09,1.09,0,0,1-.22-.47,3.26,3.26,0,0,1-.07-.71h0a4.06,4.06,0,0,1-1.37,1.39,3.71,3.71,0,0,1-1.8.39,3.29,3.29,0,0,1-2.13-.66,2.33,2.33,0,0,1-.8-1.91,2.21,2.21,0,0,1,.88-1.91,9,9,0,0,1,3.95-.91,2.69,2.69,0,0,0,.59-.11,1,1,0,0,0,.38-.21.79.79,0,0,0,.21-.35,1.71,1.71,0,0,0,.07-.51,1.66,1.66,0,0,0-.54-1.34,2.69,2.69,0,0,0-1.75-.46,3.46,3.46,0,0,0-1,.12,2.2,2.2,0,0,0-.71.34,1.51,1.51,0,0,0-.45.52,1.63,1.63,0,0,0-.18.65h-1.07a2.65,2.65,0,0,1,.29-1,2.37,2.37,0,0,1,.68-.79,3.24,3.24,0,0,1,1.07-.51,5.36,5.36,0,0,1,1.46-.18,3.53,3.53,0,0,1,2.44.71,2.61,2.61,0,0,1,.78,2V206a.63.63,0,0,0,.15.44.61.61,0,0,0,.48.16.93.93,0,0,0,.34-.06Zm-2-4.73h0q-.16.3-1,.41l-.89.13-1,.16a3.56,3.56,0,0,0-1.55.58,1.33,1.33,0,0,0-.52,1.12,1.55,1.55,0,0,0,.58,1.26,2.13,2.13,0,0,0,1.38.47,3.15,3.15,0,0,0,2.18-.77,2.47,2.47,0,0,0,.87-1.92Z"/><path class="cls-6" d="M583.84,203.12a6.38,6.38,0,0,1-.23,1.71,4.5,4.5,0,0,1-.71,1.48,3.58,3.58,0,0,1-1.22,1,4,4,0,0,1-2.71.27,3.3,3.3,0,0,1-.87-.36,3,3,0,0,1-.72-.6,2.93,2.93,0,0,1-.51-.84h0v4.9h-1.07v-12h1v1.66h0a3,3,0,0,1,.52-.81,3.06,3.06,0,0,1,.73-.6,3.58,3.58,0,0,1,.89-.37,3.75,3.75,0,0,1,1-.13,3.8,3.8,0,0,1,1.71.37,3.53,3.53,0,0,1,1.23,1,4.44,4.44,0,0,1,.74,1.47A6.22,6.22,0,0,1,583.84,203.12Zm-1.07,0a6,6,0,0,0-.15-1.3,3.78,3.78,0,0,0-.49-1.2,2.76,2.76,0,0,0-.89-.88,2.53,2.53,0,0,0-1.36-.34,2.79,2.79,0,0,0-2.27.93,4.28,4.28,0,0,0-.78,2.79,5.58,5.58,0,0,0,.17,1.37,3.58,3.58,0,0,0,.54,1.2,2.8,2.8,0,0,0,1,.85,2.88,2.88,0,0,0,1.41.32,2.49,2.49,0,0,0,1.28-.32,2.71,2.71,0,0,0,.89-.84,3.81,3.81,0,0,0,.52-1.2A5.54,5.54,0,0,0,582.77,203.12Z"/><path class="cls-6" d="M589.85,207.57H589a4,4,0,0,1-.91-.09,1.28,1.28,0,0,1-.6-.3,1.2,1.2,0,0,1-.33-.57,3.51,3.51,0,0,1-.1-.91v-6.09h-1.76v-.9H587v-2.62h1.07v2.63h2v.9h-2v6a2.32,2.32,0,0,0,0,.45.86.86,0,0,0,.14.34.66.66,0,0,0,.28.22,1.17,1.17,0,0,0,.46.08h.8l.28,0v.91Z"/><path class="cls-6" d="M600,203.12a5.71,5.71,0,0,1-.27,1.75,4.42,4.42,0,0,1-.82,1.5,3.87,3.87,0,0,1-3.05,1.38,3.78,3.78,0,0,1-3-1.3,5.43,5.43,0,0,1,0-6.65,4.11,4.11,0,0,1,6,0A4.87,4.87,0,0,1,600,203.12Zm-1.07,0a5.05,5.05,0,0,0-.18-1.33,3.75,3.75,0,0,0-.56-1.2,3,3,0,0,0-1-.87,2.73,2.73,0,0,0-1.39-.34,2.63,2.63,0,0,0-1.31.32,3,3,0,0,0-1,.85,3.79,3.79,0,0,0-.58,1.2,4.89,4.89,0,0,0-.2,1.37,4.76,4.76,0,0,0,.19,1.33,4,4,0,0,0,.57,1.2,3,3,0,0,0,1,.87,2.64,2.64,0,0,0,1.35.33,2.61,2.61,0,0,0,1.3-.32,3.11,3.11,0,0,0,1-.84,3.75,3.75,0,0,0,.6-1.19A4.72,4.72,0,0,0,598.91,203.12Z"/><path class="cls-6" d="M610.46,203.12a6.38,6.38,0,0,1-.23,1.71,4.5,4.5,0,0,1-.71,1.48,3.58,3.58,0,0,1-1.22,1,4,4,0,0,1-2.71.27,3.3,3.3,0,0,1-.87-.36,3,3,0,0,1-.72-.6,2.93,2.93,0,0,1-.51-.84h0v4.9h-1.07v-12h1v1.66h0a3,3,0,0,1,.52-.81,3.06,3.06,0,0,1,.73-.6,3.58,3.58,0,0,1,.89-.37,3.75,3.75,0,0,1,1-.13,3.8,3.8,0,0,1,1.71.37,3.53,3.53,0,0,1,1.23,1,4.44,4.44,0,0,1,.74,1.47A6.22,6.22,0,0,1,610.46,203.12Zm-1.07,0a6,6,0,0,0-.15-1.3,3.78,3.78,0,0,0-.49-1.2,2.76,2.76,0,0,0-.89-.88,2.53,2.53,0,0,0-1.36-.34,2.79,2.79,0,0,0-2.27.93,4.28,4.28,0,0,0-.78,2.79,5.58,5.58,0,0,0,.17,1.37,3.58,3.58,0,0,0,.54,1.2,2.8,2.8,0,0,0,1,.85,2.88,2.88,0,0,0,1.41.32,2.49,2.49,0,0,0,1.28-.32,2.71,2.71,0,0,0,.89-.84,3.81,3.81,0,0,0,.52-1.2A5.54,5.54,0,0,0,609.38,203.12Z"/><path class="cls-6" d="M619.49,205.12a2.23,2.23,0,0,1-.3,1.17,2.52,2.52,0,0,1-.79.82,3.66,3.66,0,0,1-1.12.48,5.31,5.31,0,0,1-1.3.16,4.88,4.88,0,0,1-1.43-.19,3.19,3.19,0,0,1-1.07-.55,2.66,2.66,0,0,1-.71-.86,3.2,3.2,0,0,1-.33-1.13h1.08a2.26,2.26,0,0,0,.26.74,1.89,1.89,0,0,0,.51.57,2.4,2.4,0,0,0,.75.37,3.4,3.4,0,0,0,1,.13,4,4,0,0,0,.8-.09,2.76,2.76,0,0,0,.78-.28,1.8,1.8,0,0,0,.59-.51,1.28,1.28,0,0,0,.23-.79,1.24,1.24,0,0,0-.45-1,3.46,3.46,0,0,0-1.51-.62l-1.34-.3a5.36,5.36,0,0,1-1-.32,2.81,2.81,0,0,1-.77-.49,1.94,1.94,0,0,1-.48-.67,2.15,2.15,0,0,1-.16-.86,2.08,2.08,0,0,1,.29-1.11,2.38,2.38,0,0,1,.75-.76,3.37,3.37,0,0,1,1-.44,5,5,0,0,1,1.18-.14,4.35,4.35,0,0,1,1.23.16,3,3,0,0,1,1,.47,2.44,2.44,0,0,1,.67.77,2.77,2.77,0,0,1,.33,1h-1.07a1.77,1.77,0,0,0-.25-.67,1.65,1.65,0,0,0-.48-.49,2.25,2.25,0,0,0-.67-.3,3.16,3.16,0,0,0-.82-.1,3.82,3.82,0,0,0-.77.08,2.11,2.11,0,0,0-.68.26,1.43,1.43,0,0,0-.48.46,1.3,1.3,0,0,0-.18.71,1,1,0,0,0,.18.59,1.7,1.7,0,0,0,.44.43,2.53,2.53,0,0,0,.59.29,5,5,0,0,0,.62.18l1.83.41a3.79,3.79,0,0,1,.79.27,2.36,2.36,0,0,1,.66.46,2.18,2.18,0,0,1,.46.68A2.29,2.29,0,0,1,619.49,205.12Z"/><path class="cls-6" d="M827,934.57v-9.86h0l-3.89,9.86h-1l-3.9-9.86h0v9.86H817V923.16h1.6l3.94,10h0l3.92-10h1.59v11.41Z"/><path class="cls-6" d="M838.74,930.2a5.71,5.71,0,0,1-.27,1.75,4.44,4.44,0,0,1-.82,1.5,3.87,3.87,0,0,1-3.05,1.38,3.78,3.78,0,0,1-3-1.3,5.43,5.43,0,0,1,0-6.65,4.11,4.11,0,0,1,6,0A4.87,4.87,0,0,1,838.74,930.2Zm-1.07,0a5.09,5.09,0,0,0-.18-1.33,3.79,3.79,0,0,0-.56-1.2,3,3,0,0,0-1-.87,2.74,2.74,0,0,0-1.39-.34,2.62,2.62,0,0,0-1.31.32,3,3,0,0,0-1,.85,3.77,3.77,0,0,0-.58,1.2,4.85,4.85,0,0,0-.2,1.37,4.73,4.73,0,0,0,.19,1.33,3.91,3.91,0,0,0,.57,1.2,3,3,0,0,0,1,.87,2.86,2.86,0,0,0,2.65,0,3.13,3.13,0,0,0,1-.84,3.79,3.79,0,0,0,.6-1.19A4.75,4.75,0,0,0,837.67,930.2Z"/><path class="cls-6" d="M849.21,930.2a6.42,6.42,0,0,1-.23,1.71,4.52,4.52,0,0,1-.71,1.48,3.59,3.59,0,0,1-1.22,1,3.74,3.74,0,0,1-1.77.39,3.85,3.85,0,0,1-1-.12,3.44,3.44,0,0,1-.88-.36,3.13,3.13,0,0,1-.74-.6,2.88,2.88,0,0,1-.53-.84h0v1.66h-1V922.46h1.07v5h0a2.59,2.59,0,0,1,.48-.82,3,3,0,0,1,.71-.6,3.28,3.28,0,0,1,.88-.37,4,4,0,0,1,2.69.25,3.52,3.52,0,0,1,1.22,1,4.47,4.47,0,0,1,.73,1.47A6.74,6.74,0,0,1,849.21,930.2Zm-1.07,0a6,6,0,0,0-.07-.87,4.85,4.85,0,0,0-.21-.86,4,4,0,0,0-.37-.78,2.81,2.81,0,0,0-.55-.64,2.48,2.48,0,0,0-.74-.43,2.67,2.67,0,0,0-.94-.16,2.74,2.74,0,0,0-2.3,1.13,3.61,3.61,0,0,0-.57,1.19,5.25,5.25,0,0,0-.19,1.41,5.55,5.55,0,0,0,.17,1.37,3.52,3.52,0,0,0,.54,1.2,2.77,2.77,0,0,0,.95.84,2.89,2.89,0,0,0,1.42.32,2.51,2.51,0,0,0,1.29-.31,2.64,2.64,0,0,0,.88-.84,3.92,3.92,0,0,0,.51-1.19A6.58,6.58,0,0,0,848.14,930.2Z"/><path class="cls-6" d="M852.8,922v1.72h-1.07V922Zm0,3.83v8.75h-1.07v-8.75Z"/><path class="cls-6" d="M856.84,922.46v12.11h-1.07V922.46Z"/><path class="cls-6" d="M863.21,925.57a3.61,3.61,0,0,1,1.73.39,3.46,3.46,0,0,1,1.2,1,4.63,4.63,0,0,1,.7,1.51,7,7,0,0,1,.23,1.79v.17h-6.73a4.72,4.72,0,0,0,.17,1.26,3.42,3.42,0,0,0,.52,1.11,2.63,2.63,0,0,0,.88.79,2.55,2.55,0,0,0,1.27.3,3.27,3.27,0,0,0,.93-.12,2.73,2.73,0,0,0,.74-.34,2.38,2.38,0,0,0,.55-.52,3.33,3.33,0,0,0,.39-.65h1a4,4,0,0,1-.51,1,3.33,3.33,0,0,1-.78.8,3.56,3.56,0,0,1-1,.52,4.47,4.47,0,0,1-1.32.18,3.91,3.91,0,0,1-1.73-.36,3.39,3.39,0,0,1-1.21-1,4.14,4.14,0,0,1-.72-1.47,6.85,6.85,0,0,1-.23-1.83,6.17,6.17,0,0,1,.24-1.71,4.44,4.44,0,0,1,.72-1.48,3.63,3.63,0,0,1,1.23-1A3.72,3.72,0,0,1,863.21,925.57Zm2.78,4a4.06,4.06,0,0,0-.21-1.13,3.27,3.27,0,0,0-.54-1,2.8,2.8,0,0,0-.87-.72,2.46,2.46,0,0,0-1.18-.27,2.46,2.46,0,0,0-2,.93,3.56,3.56,0,0,0-.56,1,5.67,5.67,0,0,0-.31,1.2Z"/><path class="cls-6" d="M875.84,932.2a2.24,2.24,0,0,1-.3,1.17,2.53,2.53,0,0,1-.79.82,3.66,3.66,0,0,1-1.12.48,5.32,5.32,0,0,1-1.3.16,4.87,4.87,0,0,1-1.43-.19,3.18,3.18,0,0,1-1.07-.55,2.65,2.65,0,0,1-.71-.86,3.18,3.18,0,0,1-.33-1.13h1.08a2.24,2.24,0,0,0,.26.74,1.87,1.87,0,0,0,.51.57,2.39,2.39,0,0,0,.75.37,3.39,3.39,0,0,0,1,.13,4,4,0,0,0,.8-.09,2.77,2.77,0,0,0,.78-.28,1.81,1.81,0,0,0,.59-.51,1.28,1.28,0,0,0,.23-.79,1.24,1.24,0,0,0-.45-1,3.47,3.47,0,0,0-1.51-.62l-1.34-.3a5.32,5.32,0,0,1-1-.32,2.8,2.8,0,0,1-.77-.49,1.94,1.94,0,0,1-.48-.67A2.15,2.15,0,0,1,869,928a2.07,2.07,0,0,1,.29-1.11,2.36,2.36,0,0,1,.75-.76,3.35,3.35,0,0,1,1-.44,5,5,0,0,1,1.18-.14,4.36,4.36,0,0,1,1.23.16,3.07,3.07,0,0,1,1,.47,2.45,2.45,0,0,1,.67.77,2.77,2.77,0,0,1,.33,1h-1.07a1.78,1.78,0,0,0-.25-.67,1.65,1.65,0,0,0-.48-.49,2.26,2.26,0,0,0-.67-.3,3.17,3.17,0,0,0-.82-.1,3.81,3.81,0,0,0-.77.08,2.09,2.09,0,0,0-.68.26,1.41,1.41,0,0,0-.48.46,1.29,1.29,0,0,0-.18.71,1,1,0,0,0,.18.59,1.68,1.68,0,0,0,.44.43,2.49,2.49,0,0,0,.59.29,4.87,4.87,0,0,0,.62.18l1.83.41a3.83,3.83,0,0,1,.79.27,2.39,2.39,0,0,1,.66.46,2.21,2.21,0,0,1,.46.68A2.3,2.3,0,0,1,875.84,932.2Z"/><circle class="cls-8" cx="254.43" cy="246.34" r="125" transform="translate(3.25 495.99) rotate(-88.9)"/><rect class="cls-1" x="166.95" y="190.21" width="174.96" height="42.23"/><rect class="cls-9" x="176" y="197.7" width="48.75" height="27.26"/><path class="cls-6" d="M224.25,198.2v26.26H176.5V198.2h47.75m1-1H175.5v28.26h49.75V197.2Z"/><rect class="cls-9" x="230.84" y="197.7" width="48.75" height="27.26"/><path class="cls-6" d="M279.09,198.2v26.26H231.34V198.2h47.75m1-1H230.34v28.26h49.75V197.2Z"/><rect class="cls-9" x="285.69" y="197.7" width="48.75" height="27.26"/><path class="cls-6" d="M333.93,198.2v26.26H286.19V198.2h47.75m1-1H285.19v28.26h49.75V197.2Z"/><rect class="cls-10" x="176.5" y="230.44" width="21.4" height="11.57"/><path class="cls-6" d="M196.91,231.44V241H177.5v-9.57h19.4m2-2H175.5V243h23.4V229.44Z"/><rect class="cls-10" x="203.71" y="230.44" width="21.4" height="11.57"/><path class="cls-6" d="M224.11,231.44V241h-19.4v-9.57h19.4m2-2h-23.4V243h23.4V229.44Z"/><rect class="cls-10" x="230.91" y="230.44" width="21.4" height="11.57"/><path class="cls-6" d="M251.32,231.44V241h-19.4v-9.57h19.4m2-2h-23.4V243h23.4V229.44Z"/><rect class="cls-10" x="258.12" y="230.44" width="21.4" height="11.57"/><path class="cls-6" d="M278.52,231.44V241h-19.4v-9.57h19.4m2-2h-23.4V243h23.4V229.44Z"/><rect class="cls-10" x="285.32" y="230.44" width="21.4" height="11.57"/><path class="cls-6" d="M305.73,231.44V241h-19.4v-9.57h19.4m2-2h-23.4V243h23.4V229.44Z"/><rect class="cls-10" x="312.53" y="230.44" width="21.4" height="11.57"/><path class="cls-6" d="M332.93,231.44V241h-19.4v-9.57h19.4m2-2h-23.4V243h23.4V229.44Z"/><rect class="cls-11" x="185.64" y="245.74" width="7.5" height="38.95"/><rect class="cls-11" x="315.73" y="245.74" width="7.5" height="38.95"/><rect class="cls-11" x="167.01" y="245.39" width="174.85" height="5.04"/><path class="cls-6" d="M231.64,308.47a5.58,5.58,0,0,1,1.61.23,4.64,4.64,0,0,1,1.36.65,3.88,3.88,0,0,1,1,1,3.84,3.84,0,0,1,.56,1.36h-1.09a3.42,3.42,0,0,0-.45-.93,3,3,0,0,0-.73-.74,3.59,3.59,0,0,0-1-.49,4.5,4.5,0,0,0-3.12.22,4,4,0,0,0-1.36,1.09,4.83,4.83,0,0,0-.83,1.6,6.49,6.49,0,0,0-.28,1.93,6.94,6.94,0,0,0,.11,1.25,5.66,5.66,0,0,0,.35,1.18,4.87,4.87,0,0,0,.59,1,3.92,3.92,0,0,0,.83.82,3.8,3.8,0,0,0,1.08.54,4.32,4.32,0,0,0,1.34.2,3.74,3.74,0,0,0,1.41-.25,3.4,3.4,0,0,0,1.09-.7,3.59,3.59,0,0,0,.75-1,4.26,4.26,0,0,0,.39-1.24h1.09a5.44,5.44,0,0,1-.47,1.6,4.44,4.44,0,0,1-.94,1.31,4.31,4.31,0,0,1-1.41.89,5.07,5.07,0,0,1-1.89.33,5.39,5.39,0,0,1-2.27-.46,4.88,4.88,0,0,1-1.69-1.26,5.6,5.6,0,0,1-1.06-1.89,7.57,7.57,0,0,1,0-4.6,5.63,5.63,0,0,1,1-1.89,5,5,0,0,1,1.7-1.3A5.35,5.35,0,0,1,231.64,308.47Z"/><path class="cls-6" d="M246.26,315.73a5.71,5.71,0,0,1-.27,1.75,4.42,4.42,0,0,1-.82,1.5,3.87,3.87,0,0,1-3.05,1.38,3.78,3.78,0,0,1-3-1.3,5.43,5.43,0,0,1,0-6.65,4.11,4.11,0,0,1,6,0A4.87,4.87,0,0,1,246.26,315.73Zm-1.07,0a5.05,5.05,0,0,0-.18-1.33,3.75,3.75,0,0,0-.56-1.2,3,3,0,0,0-1-.87,2.73,2.73,0,0,0-1.39-.34,2.63,2.63,0,0,0-1.31.32,3,3,0,0,0-1,.85,3.79,3.79,0,0,0-.58,1.2,4.89,4.89,0,0,0-.2,1.37,4.76,4.76,0,0,0,.19,1.33,4,4,0,0,0,.57,1.2,3,3,0,0,0,1,.87,2.64,2.64,0,0,0,1.35.33,2.61,2.61,0,0,0,1.3-.32,3.11,3.11,0,0,0,1-.84,3.75,3.75,0,0,0,.6-1.19A4.72,4.72,0,0,0,245.19,315.73Z"/><path class="cls-6" d="M252.55,311.11a4.47,4.47,0,0,1,1.45.21,2.43,2.43,0,0,1,1,.62,2.49,2.49,0,0,1,.57,1,5.07,5.07,0,0,1,.18,1.44v5.71h-1.07v-5.53a2.94,2.94,0,0,0-.55-1.93,2.06,2.06,0,0,0-1.67-.65,2.76,2.76,0,0,0-1.14.23,2.51,2.51,0,0,0-.87.64,2.87,2.87,0,0,0-.55.95,3.51,3.51,0,0,0-.19,1.18v5.12h-1.07v-8.75h1.07v1.52h0a2.65,2.65,0,0,1,.46-.74,2.89,2.89,0,0,1,.66-.55,3.11,3.11,0,0,1,.8-.35A3.3,3.3,0,0,1,252.55,311.11Z"/><path class="cls-6" d="M262.16,320.19h-.88a4,4,0,0,1-.91-.09,1.28,1.28,0,0,1-.6-.3,1.2,1.2,0,0,1-.33-.57,3.51,3.51,0,0,1-.1-.91v-6.09h-1.76v-.9h1.76v-2.62h1.07v2.63h2v.9h-2v6a2.32,2.32,0,0,0,0,.45.86.86,0,0,0,.14.34.66.66,0,0,0,.28.22,1.17,1.17,0,0,0,.46.08h.8l.28,0v.91Z"/><path class="cls-6" d="M264.78,320.11v-8.75h1v2h0a3.41,3.41,0,0,1,1.2-1.59,3.1,3.1,0,0,1,1.84-.57h.38v1.06H269a3,3,0,0,0-2.27.91,3.14,3.14,0,0,0-.86,2.25v4.64Z"/><path class="cls-6" d="M278.5,315.73a5.71,5.71,0,0,1-.27,1.75,4.42,4.42,0,0,1-.82,1.5,3.87,3.87,0,0,1-3.05,1.38,3.78,3.78,0,0,1-3-1.3,5.43,5.43,0,0,1,0-6.65,4.11,4.11,0,0,1,6,0A4.87,4.87,0,0,1,278.5,315.73Zm-1.07,0a5.05,5.05,0,0,0-.18-1.33,3.75,3.75,0,0,0-.56-1.2,3,3,0,0,0-1-.87,2.73,2.73,0,0,0-1.39-.34,2.63,2.63,0,0,0-1.31.32,3,3,0,0,0-1,.85,3.79,3.79,0,0,0-.58,1.2,4.89,4.89,0,0,0-.2,1.37,4.76,4.76,0,0,0,.19,1.33,4,4,0,0,0,.57,1.2,3,3,0,0,0,1,.87,2.64,2.64,0,0,0,1.35.33,2.61,2.61,0,0,0,1.3-.32,3.11,3.11,0,0,0,1-.84,3.75,3.75,0,0,0,.6-1.19A4.72,4.72,0,0,0,277.43,315.73Z"/><path class="cls-6" d="M282,308v12.11h-1.07V308Z"/><path class="cls-6" d="M204.79,330.56,207,338h0l2.13-7.49h1.2l2.14,7.49h0l2.23-7.49h1.13l-2.82,8.75H212l-2.15-7.36h0l-2.13,7.36h-1.18l-2.81-8.75Z"/><path class="cls-6" d="M225.6,334.93a5.71,5.71,0,0,1-.27,1.75,4.42,4.42,0,0,1-.82,1.5,3.87,3.87,0,0,1-3.05,1.38,3.78,3.78,0,0,1-3-1.3,5.43,5.43,0,0,1,0-6.65,4.11,4.11,0,0,1,6,0A4.87,4.87,0,0,1,225.6,334.93Zm-1.07,0a5.05,5.05,0,0,0-.18-1.33,3.75,3.75,0,0,0-.56-1.2,3,3,0,0,0-1-.87,2.73,2.73,0,0,0-1.39-.34,2.63,2.63,0,0,0-1.31.32,3,3,0,0,0-1,.85,3.79,3.79,0,0,0-.58,1.2,4.89,4.89,0,0,0-.2,1.37,4.76,4.76,0,0,0,.19,1.33,4,4,0,0,0,.57,1.2,3,3,0,0,0,1,.87,2.64,2.64,0,0,0,1.35.33,2.61,2.61,0,0,0,1.3-.32,3.11,3.11,0,0,0,1-.84,3.75,3.75,0,0,0,.6-1.19A4.72,4.72,0,0,0,224.53,334.93Z"/><path class="cls-6" d="M228,339.31v-8.75h1v2h0a3.41,3.41,0,0,1,1.2-1.59,3.1,3.1,0,0,1,1.84-.57h.38v1.06h-.24a3,3,0,0,0-2.27.91,3.14,3.14,0,0,0-.86,2.25v4.64Z"/><path class="cls-6" d="M235.25,327.2v7.59l4.85-4.23h1.43l-3.73,3.23,4,5.52h-1.33L237,334.55,235.25,336v3.32h-1.07V327.2Z"/><path class="cls-6" d="M249.95,336.93a2.23,2.23,0,0,1-.3,1.17,2.52,2.52,0,0,1-.79.82,3.66,3.66,0,0,1-1.12.48,5.31,5.31,0,0,1-1.3.16,4.88,4.88,0,0,1-1.43-.19,3.19,3.19,0,0,1-1.07-.55,2.66,2.66,0,0,1-.71-.86,3.2,3.2,0,0,1-.33-1.13H244a2.26,2.26,0,0,0,.26.74,1.89,1.89,0,0,0,.51.57,2.4,2.4,0,0,0,.75.37,3.4,3.4,0,0,0,1,.13,4,4,0,0,0,.8-.09,2.76,2.76,0,0,0,.78-.28,1.8,1.8,0,0,0,.59-.51,1.28,1.28,0,0,0,.23-.79,1.24,1.24,0,0,0-.45-1,3.46,3.46,0,0,0-1.51-.62l-1.34-.3a5.36,5.36,0,0,1-1-.32,2.81,2.81,0,0,1-.77-.49,1.94,1.94,0,0,1-.48-.67,2.15,2.15,0,0,1-.16-.86,2.08,2.08,0,0,1,.29-1.11,2.38,2.38,0,0,1,.75-.76,3.37,3.37,0,0,1,1-.44,5,5,0,0,1,1.18-.14,4.35,4.35,0,0,1,1.23.16,3,3,0,0,1,1,.47,2.44,2.44,0,0,1,.67.77,2.77,2.77,0,0,1,.33,1h-1.07a1.77,1.77,0,0,0-.25-.67,1.65,1.65,0,0,0-.48-.49,2.25,2.25,0,0,0-.67-.3,3.16,3.16,0,0,0-.82-.1,3.82,3.82,0,0,0-.77.08,2.11,2.11,0,0,0-.68.26,1.43,1.43,0,0,0-.48.46,1.3,1.3,0,0,0-.18.71,1,1,0,0,0,.18.59,1.7,1.7,0,0,0,.44.43,2.53,2.53,0,0,0,.59.29,5,5,0,0,0,.62.18l1.83.41a3.79,3.79,0,0,1,.79.27,2.36,2.36,0,0,1,.66.46,2.18,2.18,0,0,1,.46.68A2.29,2.29,0,0,1,249.95,336.93Z"/><path class="cls-6" d="M255.82,339.39h-.88a4,4,0,0,1-.91-.09,1.28,1.28,0,0,1-.6-.3,1.2,1.2,0,0,1-.33-.57,3.51,3.51,0,0,1-.1-.91v-6.09h-1.76v-.9H253v-2.62h1.07v2.63h2v.9h-2v6a2.32,2.32,0,0,0,0,.45.86.86,0,0,0,.14.34.66.66,0,0,0,.28.22,1.17,1.17,0,0,0,.46.08h.8l.28,0v.91Z"/><path class="cls-6" d="M266,339.24l-.36.05h-.32a1.83,1.83,0,0,1-.59-.08.87.87,0,0,1-.39-.26,1.09,1.09,0,0,1-.22-.47,3.26,3.26,0,0,1-.07-.71h0a4.06,4.06,0,0,1-1.37,1.39,3.71,3.71,0,0,1-1.8.39,3.29,3.29,0,0,1-2.13-.66,2.33,2.33,0,0,1-.8-1.91,2.21,2.21,0,0,1,.88-1.91,9,9,0,0,1,3.95-.91,2.69,2.69,0,0,0,.59-.11,1,1,0,0,0,.38-.21.79.79,0,0,0,.21-.35A1.71,1.71,0,0,0,264,333a1.66,1.66,0,0,0-.54-1.34,2.69,2.69,0,0,0-1.75-.46,3.46,3.46,0,0,0-1,.12,2.2,2.2,0,0,0-.71.34,1.51,1.51,0,0,0-.45.52,1.63,1.63,0,0,0-.18.65h-1.07a2.65,2.65,0,0,1,.29-1,2.37,2.37,0,0,1,.68-.79,3.24,3.24,0,0,1,1.07-.51,5.36,5.36,0,0,1,1.46-.18,3.53,3.53,0,0,1,2.44.71,2.61,2.61,0,0,1,.78,2v4.75a.63.63,0,0,0,.15.44.61.61,0,0,0,.48.16.93.93,0,0,0,.34-.06Zm-2-4.73h0q-.16.3-1,.41l-.89.13-1,.16a3.56,3.56,0,0,0-1.55.58,1.33,1.33,0,0,0-.52,1.12,1.55,1.55,0,0,0,.58,1.26,2.13,2.13,0,0,0,1.38.47,3.15,3.15,0,0,0,2.18-.77A2.47,2.47,0,0,0,264,336Z"/><path class="cls-6" d="M271.43,339.39h-.88a4,4,0,0,1-.91-.09,1.28,1.28,0,0,1-.6-.3,1.2,1.2,0,0,1-.33-.57,3.51,3.51,0,0,1-.1-.91v-6.09h-1.76v-.9h1.76v-2.62h1.07v2.63h2v.9h-2v6a2.32,2.32,0,0,0,0,.45.86.86,0,0,0,.14.34.66.66,0,0,0,.28.22,1.17,1.17,0,0,0,.46.08h.8l.28,0v.91Z"/><path class="cls-6" d="M275.14,326.73v1.72h-1.07v-1.72Zm0,3.83v8.75h-1.07v-8.75Z"/><path class="cls-6" d="M285.84,334.93a5.71,5.71,0,0,1-.27,1.75,4.42,4.42,0,0,1-.82,1.5,3.87,3.87,0,0,1-3.05,1.38,3.78,3.78,0,0,1-3-1.3,5.43,5.43,0,0,1,0-6.65,4.11,4.11,0,0,1,6,0A4.87,4.87,0,0,1,285.84,334.93Zm-1.07,0a5.05,5.05,0,0,0-.18-1.33,3.75,3.75,0,0,0-.56-1.2,3,3,0,0,0-1-.87,2.73,2.73,0,0,0-1.39-.34,2.63,2.63,0,0,0-1.31.32,3,3,0,0,0-1,.85,3.79,3.79,0,0,0-.58,1.2,4.89,4.89,0,0,0-.2,1.37,4.76,4.76,0,0,0,.19,1.33,4,4,0,0,0,.57,1.2,3,3,0,0,0,1,.87,2.64,2.64,0,0,0,1.35.33,2.61,2.61,0,0,0,1.3-.32,3.11,3.11,0,0,0,1-.84,3.75,3.75,0,0,0,.6-1.19A4.72,4.72,0,0,0,284.77,334.93Z"/><path class="cls-6" d="M292.13,330.31a4.47,4.47,0,0,1,1.45.21,2.43,2.43,0,0,1,1,.62,2.49,2.49,0,0,1,.57,1,5.07,5.07,0,0,1,.18,1.44v5.71h-1.07v-5.53a2.94,2.94,0,0,0-.55-1.93,2.06,2.06,0,0,0-1.67-.65,2.76,2.76,0,0,0-1.14.23,2.51,2.51,0,0,0-.87.64,2.87,2.87,0,0,0-.55.95,3.51,3.51,0,0,0-.19,1.18v5.12h-1.07v-8.75h1.07v1.52h0a2.65,2.65,0,0,1,.46-.74,2.89,2.89,0,0,1,.66-.55,3.11,3.11,0,0,1,.8-.35A3.3,3.3,0,0,1,292.13,330.31Z"/><path class="cls-6" d="M304.76,336.93a2.23,2.23,0,0,1-.3,1.17,2.52,2.52,0,0,1-.79.82,3.66,3.66,0,0,1-1.12.48,5.31,5.31,0,0,1-1.3.16,4.88,4.88,0,0,1-1.43-.19,3.19,3.19,0,0,1-1.07-.55A2.66,2.66,0,0,1,298,338a3.2,3.2,0,0,1-.33-1.13h1.08a2.26,2.26,0,0,0,.26.74,1.89,1.89,0,0,0,.51.57,2.4,2.4,0,0,0,.75.37,3.4,3.4,0,0,0,1,.13,4,4,0,0,0,.8-.09,2.76,2.76,0,0,0,.78-.28,1.8,1.8,0,0,0,.59-.51,1.28,1.28,0,0,0,.23-.79,1.24,1.24,0,0,0-.45-1,3.46,3.46,0,0,0-1.51-.62l-1.34-.3a5.36,5.36,0,0,1-1-.32,2.81,2.81,0,0,1-.77-.49,1.94,1.94,0,0,1-.48-.67,2.15,2.15,0,0,1-.16-.86,2.08,2.08,0,0,1,.29-1.11,2.38,2.38,0,0,1,.75-.76,3.37,3.37,0,0,1,1-.44,5,5,0,0,1,1.18-.14,4.35,4.35,0,0,1,1.23.16,3,3,0,0,1,1,.47,2.44,2.44,0,0,1,.67.77,2.77,2.77,0,0,1,.33,1h-1.07a1.77,1.77,0,0,0-.25-.67,1.65,1.65,0,0,0-.48-.49,2.25,2.25,0,0,0-.67-.3,3.16,3.16,0,0,0-.82-.1,3.82,3.82,0,0,0-.77.08,2.11,2.11,0,0,0-.68.26,1.43,1.43,0,0,0-.48.46,1.3,1.3,0,0,0-.18.71,1,1,0,0,0,.18.59,1.7,1.7,0,0,0,.44.43,2.53,2.53,0,0,0,.59.29,5,5,0,0,0,.62.18l1.83.41a3.79,3.79,0,0,1,.79.27,2.36,2.36,0,0,1,.66.46,2.18,2.18,0,0,1,.46.68A2.29,2.29,0,0,1,304.76,336.93Z"/><rect class="cls-3" x="542.53" y="115.54" width="78.74" height="51.26"/><rect class="cls-3" x="533.83" y="165.93" width="96.15" height="6.57"/><rect class="cls-4" x="546.38" y="118.99" width="71.04" height="43.53"/><rect class="cls-3" x="806.48" y="818.58" width="80.83" height="48.19" transform="translate(4.22 1689.56) rotate(-90)"/><rect class="cls-4" x="814.95" y="821.17" width="63.87" height="37.95" transform="translate(6.75 1687.03) rotate(-90)"/><circle class="cls-5" cx="847.22" cy="877.08" r="2.33"/><polygon class="cls-4" points="259.4 865.24 253.28 865.24 246.9 865.24 240.79 865.24 233.99 888.46 239.69 896.4 250.09 896.4 260.5 896.4 266.2 888.46 259.4 865.24"/><ellipse class="cls-4" cx="249.92" cy="850.35" rx="11.17" ry="11.03" transform="translate(-602.04 1094.72) rotate(-89.63)"/><path class="cls-6" d="M246.63,839.31s-1.12,11.45,14.25,9.82C262,849,256.51,835.82,246.63,839.31Z"/><path class="cls-6" d="M246.7,839.83s1.46,8.48-7.71,9.3C237.92,849.23,242.18,838.88,246.7,839.83Z"/><polygon class="cls-6" points="289.4 854.47 289.4 869.87 281.18 866.86 283.87 852.08 289.4 854.47"/><polygon class="cls-6" points="263.17 854.38 263.17 869.78 271.39 866.77 268.7 851.99 263.17 854.38"/><ellipse class="cls-4" cx="276.32" cy="854.64" rx="12.8" ry="12.64" transform="translate(-580.11 1125.38) rotate(-89.63)"/><polygon class="cls-4" points="286.98 870.77 279.97 870.77 276.32 870.77 272.66 870.77 265.65 870.77 257.85 897.39 264.39 906.5 276.32 906.5 288.25 906.5 294.78 897.39 286.98 870.77"/><path class="cls-6" d="M272.55,842s-1.28,13.13,16.33,11.26C290.12,853.12,283.88,838,272.55,842Z"/><path class="cls-6" d="M272.63,842.59s1.67,9.72-8.83,10.66C262.56,853.36,267.44,841.5,272.63,842.59Z"/><circle class="cls-12" cx="548.08" cy="552.03" r="80.88"/><path class="cls-9" d="M494.49,531.13a9.77,9.77,0,0,1,2.85.4,7.49,7.49,0,0,1,2.32,1.15,6.36,6.36,0,0,1,1.66,1.83,6.91,6.91,0,0,1,.88,2.46H499a4.08,4.08,0,0,0-.56-1.21,3.9,3.9,0,0,0-1-1,4.72,4.72,0,0,0-1.35-.67,5.47,5.47,0,0,0-1.69-.25,5.4,5.4,0,0,0-2.56.58A5.34,5.34,0,0,0,490.1,536a6.76,6.76,0,0,0-1.08,2.23,9.84,9.84,0,0,0,0,5.17,6.66,6.66,0,0,0,1,2.22,5.21,5.21,0,0,0,4.42,2.16,5.14,5.14,0,0,0,1.83-.31,4.31,4.31,0,0,0,2.41-2.19,5.77,5.77,0,0,0,.52-1.69h3.16a9.11,9.11,0,0,1-.76,2.73,6.93,6.93,0,0,1-3.95,3.67,9,9,0,0,1-3.21.53,9.2,9.2,0,0,1-3.73-.73,8.36,8.36,0,0,1-2.85-2,8.94,8.94,0,0,1-1.82-3.05,11.3,11.3,0,0,1-.63-3.85,11.54,11.54,0,0,1,.6-3.72,9.27,9.27,0,0,1,1.75-3.1,8.3,8.3,0,0,1,2.84-2.13A9.07,9.07,0,0,1,494.49,531.13Z"/><path class="cls-9" d="M522.71,540.85a10,10,0,0,1-2.46,6.92,8.35,8.35,0,0,1-6.53,2.74,9.46,9.46,0,0,1-3.55-.63,8.34,8.34,0,0,1-2.86-1.94,8.73,8.73,0,0,1-1.94-3.16,11.59,11.59,0,0,1-.65-3.92,10.14,10.14,0,0,1,2.46-7,8.34,8.34,0,0,1,6.54-2.74,9.62,9.62,0,0,1,3.55.64,7.75,7.75,0,0,1,2.87,2,8.7,8.7,0,0,1,1.93,3.21A12.33,12.33,0,0,1,522.71,540.85Zm-3.26,0a8,8,0,0,0-1.52-5.08,5.56,5.56,0,0,0-8.44,0,8,8,0,0,0-1.51,5.08,7.86,7.86,0,0,0,1.5,5,5.61,5.61,0,0,0,8.47,0A7.93,7.93,0,0,0,519.45,540.85Z"/><path class="cls-9" d="M542.59,550.08v-14.9h-.05l-5.27,14.9h-2.81l-5.28-14.83h-.05v14.83h-3.07V531.55h4.75L535.93,546h0l5-14.46h4.72v18.54Z"/><path class="cls-9" d="M566.57,550.08v-14.9h-.05l-5.27,14.9h-2.81l-5.28-14.83h-.05v14.83H550V531.55h4.75L559.91,546h0l5-14.46h4.72v18.54Z"/><path class="cls-9" d="M591,540.85a10,10,0,0,1-2.46,6.92,8.35,8.35,0,0,1-6.53,2.74,9.46,9.46,0,0,1-3.55-.63,8.34,8.34,0,0,1-2.86-1.94,8.73,8.73,0,0,1-1.94-3.16,11.59,11.59,0,0,1-.65-3.92,10.14,10.14,0,0,1,2.46-7,8.34,8.34,0,0,1,6.54-2.74,9.62,9.62,0,0,1,3.55.64,7.75,7.75,0,0,1,2.87,2,8.7,8.7,0,0,1,1.93,3.21A12.33,12.33,0,0,1,591,540.85Zm-3.26,0a8,8,0,0,0-1.52-5.08,5.56,5.56,0,0,0-8.44,0,8,8,0,0,0-1.51,5.08,7.86,7.86,0,0,0,1.5,5,5.61,5.61,0,0,0,8.47,0A7.93,7.93,0,0,0,587.74,540.85Z"/><path class="cls-9" d="M597.67,531.52l8.85,13.79h.05V531.52h3.08v18.56h-3.31l-8.85-13.77h-.05v13.77h-3.08V531.52Z"/><path class="cls-9" d="M535.27,562.72v11.64a4.92,4.92,0,0,0,1.06,3.46,4.38,4.38,0,0,0,3.34,1.14,4.5,4.5,0,0,0,3.36-1.1,4.84,4.84,0,0,0,1.07-3.48V562.72h3.25V574.5a7.12,7.12,0,0,1-2,5.27,7.82,7.82,0,0,1-5.73,1.94,10.47,10.47,0,0,1-3.29-.49,6.06,6.06,0,0,1-3.9-3.79,8.75,8.75,0,0,1-.46-2.93V562.72Z"/><path class="cls-9" d="M553.57,562.72l4.21,6.59,4.37-6.59h3.58l-6.09,8.92,6.55,9.64h-3.87l-4.62-7.06L553,581.28h-3.67l6.56-9.67-6.09-8.89Z"/></svg>